<?xml version="1.0" encoding="UTF-8" standalone="no"?>
<!DOCTYPE svg PUBLIC "-//W3C//DTD SVG 1.1//EN"
 "http://www.w3.org/Graphics/SVG/1.1/DTD/svg11.dtd">
<!-- Generated by graphviz version 2.43.0 (0)
 -->
<!-- Title: AudioPlayer.generated.h Pages: 1 -->
<svg width="2674pt" height="368pt"
 viewBox="0.00 0.00 2674.00 368.00" xmlns="http://www.w3.org/2000/svg" xmlns:xlink="http://www.w3.org/1999/xlink">
<g id="graph0" class="graph" transform="scale(1 1) rotate(0) translate(4 364)">
<title>AudioPlayer.generated.h</title>
<!-- Node1 -->
<g id="node1" class="node">
<title>Node1</title>
<g id="a_node1"><a xlink:title=" ">
<polygon fill="#999999" stroke="#666666" points="537,-360 401,-360 401,-341 537,-341 537,-360"/>
<text text-anchor="middle" x="469" y="-348" font-family="Helvetica,sans-Serif" font-size="10.00">AudioPlayer.generated.h</text>
</a>
</g>
</g>
<!-- Node2 -->
<g id="node2" class="node">
<title>Node2</title>
<g id="a_node2"><a xlink:href="AudioPlayer_8generated_8cpp.html" target="_top" xlink:title=" ">
<polygon fill="white" stroke="#666666" points="453.5,-250 306.5,-250 306.5,-231 453.5,-231 453.5,-250"/>
<text text-anchor="middle" x="380" y="-238" font-family="Helvetica,sans-Serif" font-size="10.00">AudioPlayer.generated.cpp</text>
</a>
</g>
</g>
<!-- Node1&#45;&gt;Node2 -->
<g id="edge1" class="edge">
<title>Node1&#45;&gt;Node2</title>
<path fill="none" stroke="#63b8ff" d="M455.15,-332.69C435.93,-309.37 401.88,-268.05 387.14,-250.16"/>
<polygon fill="#63b8ff" stroke="#63b8ff" points="452.66,-335.17 461.72,-340.66 458.06,-330.72 452.66,-335.17"/>
</g>
<!-- Node3 -->
<g id="node3" class="node">
<title>Node3</title>
<g id="a_node3"><a xlink:href="AudioPlayer_8h.html" target="_top" xlink:title=" ">
<polygon fill="white" stroke="#666666" points="561.5,-305 478.5,-305 478.5,-286 561.5,-286 561.5,-305"/>
<text text-anchor="middle" x="520" y="-293" font-family="Helvetica,sans-Serif" font-size="10.00">AudioPlayer.h</text>
</a>
</g>
</g>
<!-- Node1&#45;&gt;Node3 -->
<g id="edge2" class="edge">
<title>Node1&#45;&gt;Node3</title>
<path fill="none" stroke="#63b8ff" d="M484.38,-333.52C493.37,-324.18 504.36,-312.75 511.74,-305.09"/>
<polygon fill="#63b8ff" stroke="#63b8ff" points="481.83,-331.12 477.42,-340.75 486.88,-335.97 481.83,-331.12"/>
</g>
<!-- Node3&#45;&gt;Node2 -->
<g id="edge4" class="edge">
<title>Node3&#45;&gt;Node2</title>
<path fill="none" stroke="#63b8ff" d="M488.09,-282.42C462.12,-272.59 426.08,-258.95 402.9,-250.17"/>
<polygon fill="#63b8ff" stroke="#63b8ff" points="486.92,-285.72 497.51,-285.98 489.39,-279.17 486.92,-285.72"/>
</g>
<!-- Node4 -->
<g id="node4" class="node">
<title>Node4</title>
<g id="a_node4"><a xlink:href="AudioPlayer_8cpp.html" target="_top" xlink:title=" ">
<polygon fill="white" stroke="#666666" points="605.5,-250 510.5,-250 510.5,-231 605.5,-231 605.5,-250"/>
<text text-anchor="middle" x="558" y="-238" font-family="Helvetica,sans-Serif" font-size="10.00">AudioPlayer.cpp</text>
</a>
</g>
</g>
<!-- Node3&#45;&gt;Node4 -->
<g id="edge3" class="edge">
<title>Node3&#45;&gt;Node4</title>
<path fill="none" stroke="#63b8ff" d="M532.27,-277.39C538.81,-268.27 546.57,-257.45 551.84,-250.09"/>
<polygon fill="#63b8ff" stroke="#63b8ff" points="529.26,-275.58 526.27,-285.75 534.95,-279.66 529.26,-275.58"/>
</g>
<!-- Node5 -->
<g id="node5" class="node">
<title>Node5</title>
<g id="a_node5"><a xlink:href="AudioPlayerCP_8h.html" target="_top" xlink:title=" ">
<polygon fill="white" stroke="#666666" points="718.5,-250 623.5,-250 623.5,-231 718.5,-231 718.5,-250"/>
<text text-anchor="middle" x="671" y="-238" font-family="Helvetica,sans-Serif" font-size="10.00">AudioPlayerCP.h</text>
</a>
</g>
</g>
<!-- Node3&#45;&gt;Node5 -->
<g id="edge5" class="edge">
<title>Node3&#45;&gt;Node5</title>
<path fill="none" stroke="#63b8ff" d="M548.68,-282.41C575.29,-272.54 614.52,-258.85 641.42,-250.08"/>
<polygon fill="#63b8ff" stroke="#63b8ff" points="547.28,-279.2 539.15,-285.98 549.74,-285.75 547.28,-279.2"/>
</g>
<!-- Node27 -->
<g id="node27" class="node">
<title>Node27</title>
<g id="a_node27"><a xlink:href="MTImGui_8cpp.html" target="_top" xlink:title=" ">
<polygon fill="white" stroke="#666666" points="507.5,-79.5 426.5,-79.5 426.5,-60.5 507.5,-60.5 507.5,-79.5"/>
<text text-anchor="middle" x="467" y="-67.5" font-family="Helvetica,sans-Serif" font-size="10.00">MTImGui.cpp</text>
</a>
</g>
</g>
<!-- Node3&#45;&gt;Node27 -->
<g id="edge61" class="edge">
<title>Node3&#45;&gt;Node27</title>
<path fill="none" stroke="#63b8ff" d="M511.38,-276.75C507.76,-268.73 503.75,-259.04 501,-250 481.56,-186.15 471.07,-105.95 467.98,-79.73"/>
<polygon fill="#63b8ff" stroke="#63b8ff" points="508.23,-278.27 515.64,-285.84 514.57,-275.3 508.23,-278.27"/>
</g>
<!-- Node5&#45;&gt;Node3 -->
<g id="edge6" class="edge">
<title>Node5&#45;&gt;Node3</title>
<path fill="none" stroke="#63b8ff" d="M641.88,-253.75C615.21,-263.63 576.14,-277.27 549.38,-285.98"/>
<polygon fill="#63b8ff" stroke="#63b8ff" points="643.31,-256.96 651.45,-250.17 640.85,-250.4 643.31,-256.96"/>
</g>
<!-- Node6 -->
<g id="node6" class="node">
<title>Node6</title>
<g id="a_node6"><a xlink:href="AudioPlayerCP_8cpp.html" target="_top" xlink:title=" ">
<polygon fill="white" stroke="#666666" points="724.5,-195 617.5,-195 617.5,-176 724.5,-176 724.5,-195"/>
<text text-anchor="middle" x="671" y="-183" font-family="Helvetica,sans-Serif" font-size="10.00">AudioPlayerCP.cpp</text>
</a>
</g>
</g>
<!-- Node5&#45;&gt;Node6 -->
<g id="edge7" class="edge">
<title>Node5&#45;&gt;Node6</title>
<path fill="none" stroke="#63b8ff" d="M671,-220.66C671,-211.93 671,-201.99 671,-195.09"/>
<polygon fill="#63b8ff" stroke="#63b8ff" points="667.5,-220.75 671,-230.75 674.5,-220.75 667.5,-220.75"/>
</g>
<!-- Node7 -->
<g id="node7" class="node">
<title>Node7</title>
<g id="a_node7"><a xlink:href="mtgb_8h.html" target="_top" xlink:title=" ">
<polygon fill="white" stroke="#666666" points="1660.5,-195 1609.5,-195 1609.5,-176 1660.5,-176 1660.5,-195"/>
<text text-anchor="middle" x="1635" y="-183" font-family="Helvetica,sans-Serif" font-size="10.00">mtgb.h</text>
</a>
</g>
</g>
<!-- Node5&#45;&gt;Node7 -->
<g id="edge8" class="edge">
<title>Node5&#45;&gt;Node7</title>
<path fill="none" stroke="#63b8ff" d="M728.84,-236.32C913.14,-226.19 1481.96,-194.91 1609.46,-187.9"/>
<polygon fill="#63b8ff" stroke="#63b8ff" points="728.6,-232.83 718.8,-236.87 728.98,-239.82 728.6,-232.83"/>
</g>
<!-- Node8 -->
<g id="node8" class="node">
<title>Node8</title>
<g id="a_node8"><a xlink:href="Box3D_8h.html" target="_top" xlink:title=" ">
<polygon fill="white" stroke="#666666" points="1795,-140 1737,-140 1737,-121 1795,-121 1795,-140"/>
<text text-anchor="middle" x="1766" y="-128" font-family="Helvetica,sans-Serif" font-size="10.00">Box3D.h</text>
</a>
</g>
</g>
<!-- Node7&#45;&gt;Node8 -->
<g id="edge9" class="edge">
<title>Node7&#45;&gt;Node8</title>
<path fill="none" stroke="#63b8ff" d="M1665.5,-172.16C1689.75,-162.35 1723.07,-148.87 1744.57,-140.17"/>
<polygon fill="#63b8ff" stroke="#63b8ff" points="1664,-168.99 1656.05,-175.98 1666.63,-175.48 1664,-168.99"/>
</g>
<!-- Node12 -->
<g id="node12" class="node">
<title>Node12</title>
<g id="a_node12"><a xlink:href="Camera_8h.html" target="_top" xlink:title=" ">
<polygon fill="white" stroke="#666666" points="269,-140 205,-140 205,-121 269,-121 269,-140"/>
<text text-anchor="middle" x="237" y="-128" font-family="Helvetica,sans-Serif" font-size="10.00">Camera.h</text>
</a>
</g>
</g>
<!-- Node7&#45;&gt;Node12 -->
<g id="edge13" class="edge">
<title>Node7&#45;&gt;Node12</title>
<path fill="none" stroke="#63b8ff" d="M1599.15,-183.14C1402.42,-175.68 455.99,-139.8 269.1,-132.72"/>
<polygon fill="#63b8ff" stroke="#63b8ff" points="1599.11,-186.64 1609.24,-183.52 1599.38,-179.65 1599.11,-186.64"/>
</g>
<!-- Node15 -->
<g id="node15" class="node">
<title>Node15</title>
<g id="a_node15"><a xlink:href="Player_8h.html" target="_top" xlink:title=" ">
<polygon fill="white" stroke="#666666" points="293,-79.5 237,-79.5 237,-60.5 293,-60.5 293,-79.5"/>
<text text-anchor="middle" x="265" y="-67.5" font-family="Helvetica,sans-Serif" font-size="10.00">Player.h</text>
</a>
</g>
</g>
<!-- Node7&#45;&gt;Node15 -->
<g id="edge38" class="edge">
<title>Node7&#45;&gt;Node15</title>
<path fill="none" stroke="#63b8ff" d="M1599.23,-184.91C1465.35,-186.02 981.28,-186.4 586,-140 458.31,-125.01 425.68,-120.1 302,-85 296.71,-83.5 291.12,-81.57 285.92,-79.63"/>
<polygon fill="#63b8ff" stroke="#63b8ff" points="1599.36,-188.41 1609.33,-184.82 1599.3,-181.41 1599.36,-188.41"/>
</g>
<!-- Node18 -->
<g id="node18" class="node">
<title>Node18</title>
<g id="a_node18"><a xlink:href="TitleScene_8cpp.html" target="_top" xlink:title=" ">
<polygon fill="white" stroke="#666666" points="88,-79.5 0,-79.5 0,-60.5 88,-60.5 88,-79.5"/>
<text text-anchor="middle" x="44" y="-67.5" font-family="Helvetica,sans-Serif" font-size="10.00">TitleScene.cpp</text>
</a>
</g>
</g>
<!-- Node7&#45;&gt;Node18 -->
<g id="edge59" class="edge">
<title>Node7&#45;&gt;Node18</title>
<path fill="none" stroke="#63b8ff" d="M1599.17,-184.23C1390.48,-182.58 336.28,-172.63 196,-140 142.09,-127.46 84.01,-95.22 57.99,-79.66"/>
<polygon fill="#63b8ff" stroke="#63b8ff" points="1599.25,-187.74 1609.28,-184.31 1599.3,-180.74 1599.25,-187.74"/>
</g>
<!-- Node19 -->
<g id="node19" class="node">
<title>Node19</title>
<g id="a_node19"><a xlink:href="GameOverZone_8h.html" target="_top" xlink:title=" ">
<polygon fill="white" stroke="#666666" points="1372.5,-140 1269.5,-140 1269.5,-121 1372.5,-121 1372.5,-140"/>
<text text-anchor="middle" x="1321" y="-128" font-family="Helvetica,sans-Serif" font-size="10.00">GameOverZone.h</text>
</a>
</g>
</g>
<!-- Node7&#45;&gt;Node19 -->
<g id="edge21" class="edge">
<title>Node7&#45;&gt;Node19</title>
<path fill="none" stroke="#63b8ff" d="M1599.18,-178.45C1543.35,-169.03 1435.37,-150.8 1371.61,-140.04"/>
<polygon fill="#63b8ff" stroke="#63b8ff" points="1598.86,-181.95 1609.3,-180.16 1600.03,-175.05 1598.86,-181.95"/>
</g>
<!-- Node21 -->
<g id="node21" class="node">
<title>Node21</title>
<g id="a_node21"><a xlink:href="Goal_8h.html" target="_top" xlink:title=" ">
<polygon fill="white" stroke="#666666" points="1441,-140 1393,-140 1393,-121 1441,-121 1441,-140"/>
<text text-anchor="middle" x="1417" y="-128" font-family="Helvetica,sans-Serif" font-size="10.00">Goal.h</text>
</a>
</g>
</g>
<!-- Node7&#45;&gt;Node21 -->
<g id="edge24" class="edge">
<title>Node7&#45;&gt;Node21</title>
<path fill="none" stroke="#63b8ff" d="M1599.3,-175.82C1554.69,-164.97 1479.55,-146.71 1441.16,-137.37"/>
<polygon fill="#63b8ff" stroke="#63b8ff" points="1598.59,-179.25 1609.14,-178.21 1600.25,-172.45 1598.59,-179.25"/>
</g>
<!-- Node23 -->
<g id="node23" class="node">
<title>Node23</title>
<g id="a_node23"><a xlink:href="HighlightEnemy_8h.html" target="_top" xlink:title=" ">
<polygon fill="white" stroke="#666666" points="2253,-140 2151,-140 2151,-121 2253,-121 2253,-140"/>
<text text-anchor="middle" x="2202" y="-128" font-family="Helvetica,sans-Serif" font-size="10.00">HighlightEnemy.h</text>
</a>
</g>
</g>
<!-- Node7&#45;&gt;Node23 -->
<g id="edge27" class="edge">
<title>Node7&#45;&gt;Node23</title>
<path fill="none" stroke="#63b8ff" d="M1670.72,-181.99C1753.51,-176.02 1964.93,-160 2141,-140 2144.19,-139.64 2147.47,-139.24 2150.77,-138.83"/>
<polygon fill="#63b8ff" stroke="#63b8ff" points="1670.31,-178.51 1660.58,-182.71 1670.81,-185.49 1670.31,-178.51"/>
</g>
<!-- Node25 -->
<g id="node25" class="node">
<title>Node25</title>
<g id="a_node25"><a xlink:href="Model_8cpp.html" target="_top" xlink:title=" ">
<polygon fill="white" stroke="#666666" points="1880.5,-140 1813.5,-140 1813.5,-121 1880.5,-121 1880.5,-140"/>
<text text-anchor="middle" x="1847" y="-128" font-family="Helvetica,sans-Serif" font-size="10.00">Model.cpp</text>
</a>
</g>
</g>
<!-- Node7&#45;&gt;Node25 -->
<g id="edge29" class="edge">
<title>Node7&#45;&gt;Node25</title>
<path fill="none" stroke="#63b8ff" d="M1670.37,-175.66C1710.14,-165.72 1774.23,-149.69 1813.3,-139.92"/>
<polygon fill="#63b8ff" stroke="#63b8ff" points="1669.42,-172.29 1660.57,-178.11 1671.12,-179.08 1669.42,-172.29"/>
</g>
<!-- Node26 -->
<g id="node26" class="node">
<title>Node26</title>
<g id="a_node26"><a xlink:href="MovingFloor_8h.html" target="_top" xlink:title=" ">
<polygon fill="white" stroke="#666666" points="681,-140 595,-140 595,-121 681,-121 681,-140"/>
<text text-anchor="middle" x="638" y="-128" font-family="Helvetica,sans-Serif" font-size="10.00">MovingFloor.h</text>
</a>
</g>
</g>
<!-- Node7&#45;&gt;Node26 -->
<g id="edge30" class="edge">
<title>Node7&#45;&gt;Node26</title>
<path fill="none" stroke="#63b8ff" d="M1599.11,-182.59C1445.96,-174.45 847.45,-142.63 681.1,-133.79"/>
<polygon fill="#63b8ff" stroke="#63b8ff" points="1599.18,-186.1 1609.35,-183.14 1599.55,-179.11 1599.18,-186.1"/>
</g>
<!-- Node30 -->
<g id="node30" class="node">
<title>Node30</title>
<g id="a_node30"><a xlink:href="PatrolChargerEnemy_8h.html" target="_top" xlink:title=" ">
<polygon fill="white" stroke="#666666" points="1066,-140 942,-140 942,-121 1066,-121 1066,-140"/>
<text text-anchor="middle" x="1004" y="-128" font-family="Helvetica,sans-Serif" font-size="10.00">PatrolChargerEnemy.h</text>
</a>
</g>
</g>
<!-- Node7&#45;&gt;Node30 -->
<g id="edge35" class="edge">
<title>Node7&#45;&gt;Node30</title>
<path fill="none" stroke="#63b8ff" d="M1599.21,-182.15C1510.38,-176.22 1272.71,-159.68 1075,-140 1072.16,-139.72 1069.25,-139.42 1066.32,-139.1"/>
<polygon fill="#63b8ff" stroke="#63b8ff" points="1599.08,-185.65 1609.29,-182.82 1599.55,-178.67 1599.08,-185.65"/>
</g>
<!-- Node32 -->
<g id="node32" class="node">
<title>Node32</title>
<g id="a_node32"><a xlink:href="SampleGame_8h.html" target="_top" xlink:title=" ">
<polygon fill="white" stroke="#666666" points="1681,-140 1589,-140 1589,-121 1681,-121 1681,-140"/>
<text text-anchor="middle" x="1635" y="-128" font-family="Helvetica,sans-Serif" font-size="10.00">SampleGame.h</text>
</a>
</g>
</g>
<!-- Node7&#45;&gt;Node32 -->
<g id="edge39" class="edge">
<title>Node7&#45;&gt;Node32</title>
<path fill="none" stroke="#63b8ff" d="M1635,-165.66C1635,-156.93 1635,-146.99 1635,-140.09"/>
<polygon fill="#63b8ff" stroke="#63b8ff" points="1631.5,-165.75 1635,-175.75 1638.5,-165.75 1631.5,-165.75"/>
</g>
<!-- Node34 -->
<g id="node34" class="node">
<title>Node34</title>
<g id="a_node34"><a xlink:href="Source_2TheMain_8cpp.html" target="_top" xlink:title=" ">
<polygon fill="white" stroke="#666666" points="1789.5,-79.5 1710.5,-79.5 1710.5,-60.5 1789.5,-60.5 1789.5,-79.5"/>
<text text-anchor="middle" x="1750" y="-67.5" font-family="Helvetica,sans-Serif" font-size="10.00">TheMain.cpp</text>
</a>
</g>
</g>
<!-- Node7&#45;&gt;Node34 -->
<g id="edge56" class="edge">
<title>Node7&#45;&gt;Node34</title>
<path fill="none" stroke="#63b8ff" d="M1654.87,-169.78C1665.65,-161.46 1678.98,-150.63 1690,-140 1710.79,-119.94 1732.34,-93.53 1743.07,-79.93"/>
<polygon fill="#63b8ff" stroke="#63b8ff" points="1652.72,-167.02 1646.87,-175.85 1656.95,-172.59 1652.72,-167.02"/>
</g>
<!-- Node35 -->
<g id="node35" class="node">
<title>Node35</title>
<g id="a_node35"><a xlink:href="SampleScene_8cpp.html" target="_top" xlink:title=" ">
<polygon fill="white" stroke="#666666" points="2001.5,-140 1898.5,-140 1898.5,-121 2001.5,-121 2001.5,-140"/>
<text text-anchor="middle" x="1950" y="-128" font-family="Helvetica,sans-Serif" font-size="10.00">SampleScene.cpp</text>
</a>
</g>
</g>
<!-- Node7&#45;&gt;Node35 -->
<g id="edge42" class="edge">
<title>Node7&#45;&gt;Node35</title>
<path fill="none" stroke="#63b8ff" d="M1670.65,-178.5C1726.63,-169.08 1835.36,-150.79 1899.41,-140.01"/>
<polygon fill="#63b8ff" stroke="#63b8ff" points="1669.79,-175.1 1660.51,-180.21 1670.95,-182 1669.79,-175.1"/>
</g>
<!-- Node36 -->
<g id="node36" class="node">
<title>Node36</title>
<g id="a_node36"><a xlink:href="ScoreItem_8h.html" target="_top" xlink:title=" ">
<polygon fill="white" stroke="#666666" points="1159.5,-140 1084.5,-140 1084.5,-121 1159.5,-121 1159.5,-140"/>
<text text-anchor="middle" x="1122" y="-128" font-family="Helvetica,sans-Serif" font-size="10.00">ScoreItem.h</text>
</a>
</g>
</g>
<!-- Node7&#45;&gt;Node36 -->
<g id="edge43" class="edge">
<title>Node7&#45;&gt;Node36</title>
<path fill="none" stroke="#63b8ff" d="M1599.12,-180.79C1505.67,-171.14 1255.42,-145.28 1159.83,-135.41"/>
<polygon fill="#63b8ff" stroke="#63b8ff" points="1598.9,-184.29 1609.21,-181.84 1599.62,-177.33 1598.9,-184.29"/>
</g>
<!-- Node38 -->
<g id="node38" class="node">
<title>Node38</title>
<g id="a_node38"><a xlink:href="ScoreViewer_8h.html" target="_top" xlink:title=" ">
<polygon fill="white" stroke="#666666" points="2357,-140 2271,-140 2271,-121 2357,-121 2357,-140"/>
<text text-anchor="middle" x="2314" y="-128" font-family="Helvetica,sans-Serif" font-size="10.00">ScoreViewer.h</text>
</a>
</g>
</g>
<!-- Node7&#45;&gt;Node38 -->
<g id="edge46" class="edge">
<title>Node7&#45;&gt;Node38</title>
<path fill="none" stroke="#63b8ff" d="M1670.81,-183.1C1766.82,-179.11 2037.91,-166.21 2262,-140 2264.91,-139.66 2267.9,-139.27 2270.91,-138.85"/>
<polygon fill="#63b8ff" stroke="#63b8ff" points="1670.61,-179.61 1660.76,-183.51 1670.89,-186.6 1670.61,-179.61"/>
</g>
<!-- Node40 -->
<g id="node40" class="node">
<title>Node40</title>
<g id="a_node40"><a xlink:href="StageEditScene_8cpp.html" target="_top" xlink:title=" ">
<polygon fill="white" stroke="#666666" points="2132.5,-140 2019.5,-140 2019.5,-121 2132.5,-121 2132.5,-140"/>
<text text-anchor="middle" x="2076" y="-128" font-family="Helvetica,sans-Serif" font-size="10.00">StageEditScene.cpp</text>
</a>
</g>
</g>
<!-- Node7&#45;&gt;Node40 -->
<g id="edge48" class="edge">
<title>Node7&#45;&gt;Node40</title>
<path fill="none" stroke="#63b8ff" d="M1670.93,-180.36C1737.73,-172.63 1885.55,-155.4 2010,-140 2013.1,-139.62 2016.27,-139.22 2019.48,-138.82"/>
<polygon fill="#63b8ff" stroke="#63b8ff" points="1670.46,-176.89 1660.93,-181.51 1671.26,-183.84 1670.46,-176.89"/>
</g>
<!-- Node41 -->
<g id="node41" class="node">
<title>Node41</title>
<g id="a_node41"><a xlink:href="StageManager_8h.html" target="_top" xlink:title=" ">
<polygon fill="white" stroke="#666666" points="1565.5,-140 1470.5,-140 1470.5,-121 1565.5,-121 1565.5,-140"/>
<text text-anchor="middle" x="1518" y="-128" font-family="Helvetica,sans-Serif" font-size="10.00">StageManager.h</text>
</a>
</g>
</g>
<!-- Node7&#45;&gt;Node41 -->
<g id="edge49" class="edge">
<title>Node7&#45;&gt;Node41</title>
<path fill="none" stroke="#63b8ff" d="M1606.89,-171.77C1585.31,-161.99 1556.09,-148.75 1537.14,-140.17"/>
<polygon fill="#63b8ff" stroke="#63b8ff" points="1605.65,-175.05 1616.2,-175.98 1608.54,-168.67 1605.65,-175.05"/>
</g>
<!-- Node43 -->
<g id="node43" class="node">
<title>Node43</title>
<g id="a_node43"><a xlink:href="TextBox_8h.html" target="_top" xlink:title=" ">
<polygon fill="white" stroke="#666666" points="2538.5,-140 2473.5,-140 2473.5,-121 2538.5,-121 2538.5,-140"/>
<text text-anchor="middle" x="2506" y="-128" font-family="Helvetica,sans-Serif" font-size="10.00">TextBox.h</text>
</a>
</g>
</g>
<!-- Node7&#45;&gt;Node43 -->
<g id="edge54" class="edge">
<title>Node7&#45;&gt;Node43</title>
<path fill="none" stroke="#63b8ff" d="M1670.84,-183.63C1784.55,-180.64 2147.25,-169.3 2446,-140 2454.9,-139.13 2464.5,-137.9 2473.36,-136.64"/>
<polygon fill="#63b8ff" stroke="#63b8ff" points="1670.53,-180.14 1660.63,-183.9 1670.72,-187.14 1670.53,-180.14"/>
</g>
<!-- Node45 -->
<g id="node45" class="node">
<title>Node45</title>
<g id="a_node45"><a xlink:href="TimeLimit_8h.html" target="_top" xlink:title=" ">
<polygon fill="white" stroke="#666666" points="2645.5,-140 2570.5,-140 2570.5,-121 2645.5,-121 2645.5,-140"/>
<text text-anchor="middle" x="2608" y="-128" font-family="Helvetica,sans-Serif" font-size="10.00">TimeLimit.h</text>
</a>
</g>
</g>
<!-- Node7&#45;&gt;Node45 -->
<g id="edge57" class="edge">
<title>Node7&#45;&gt;Node45</title>
<path fill="none" stroke="#63b8ff" d="M1671.18,-183.93C1794.25,-181.75 2207.93,-172.31 2548,-140 2555.23,-139.31 2562.92,-138.38 2570.3,-137.38"/>
<polygon fill="#63b8ff" stroke="#63b8ff" points="1670.78,-180.44 1660.84,-184.11 1670.9,-187.44 1670.78,-180.44"/>
</g>
<!-- Node47 -->
<g id="node47" class="node">
<title>Node47</title>
<g id="a_node47"><a xlink:href="mtgb_8cpp.html" target="_top" xlink:title=" ">
<polygon fill="white" stroke="#666666" points="2437,-140 2375,-140 2375,-121 2437,-121 2437,-140"/>
<text text-anchor="middle" x="2406" y="-128" font-family="Helvetica,sans-Serif" font-size="10.00">mtgb.cpp</text>
</a>
</g>
</g>
<!-- Node7&#45;&gt;Node47 -->
<g id="edge60" class="edge">
<title>Node7&#45;&gt;Node47</title>
<path fill="none" stroke="#63b8ff" d="M1670.9,-184.2C1777.42,-182.9 2100.77,-176.05 2366,-140 2368.81,-139.62 2371.73,-139.15 2374.63,-138.63"/>
<polygon fill="#63b8ff" stroke="#63b8ff" points="1670.67,-180.7 1660.71,-184.31 1670.75,-187.7 1670.67,-180.7"/>
</g>
<!-- Node9 -->
<g id="node9" class="node">
<title>Node9</title>
<g id="a_node9"><a xlink:href="Box3D_8cpp.html" target="_top" xlink:title=" ">
<polygon fill="white" stroke="#666666" points="1876.5,-79.5 1807.5,-79.5 1807.5,-60.5 1876.5,-60.5 1876.5,-79.5"/>
<text text-anchor="middle" x="1842" y="-67.5" font-family="Helvetica,sans-Serif" font-size="10.00">Box3D.cpp</text>
</a>
</g>
</g>
<!-- Node8&#45;&gt;Node9 -->
<g id="edge10" class="edge">
<title>Node8&#45;&gt;Node9</title>
<path fill="none" stroke="#63b8ff" d="M1785.44,-114.54C1799.79,-103.49 1818.82,-88.84 1830.74,-79.67"/>
<polygon fill="#63b8ff" stroke="#63b8ff" points="1783,-111.99 1777.21,-120.87 1787.27,-117.54 1783,-111.99"/>
</g>
<!-- Node10 -->
<g id="node10" class="node">
<title>Node10</title>
<g id="a_node10"><a xlink:href="GameObjectGenerator_8cpp.html" target="_top" xlink:title=" ">
<polygon fill="white" stroke="#666666" points="2041,-79.5 1895,-79.5 1895,-60.5 2041,-60.5 2041,-79.5"/>
<text text-anchor="middle" x="1968" y="-67.5" font-family="Helvetica,sans-Serif" font-size="10.00">GameObjectGenerator.cpp</text>
</a>
</g>
</g>
<!-- Node8&#45;&gt;Node10 -->
<g id="edge11" class="edge">
<title>Node8&#45;&gt;Node10</title>
<path fill="none" stroke="#63b8ff" d="M1805.34,-118.11C1844.41,-106.79 1903.42,-89.7 1938.59,-79.52"/>
<polygon fill="#63b8ff" stroke="#63b8ff" points="1804,-114.85 1795.37,-120.99 1805.95,-121.57 1804,-114.85"/>
</g>
<!-- Node11 -->
<g id="node11" class="node">
<title>Node11</title>
<g id="a_node11"><a xlink:href="RegisterCommonGameObjectType_8cpp.html" target="_top" xlink:title=" ">
<polygon fill="white" stroke="#666666" points="2221,-85 2059,-85 2059,-55 2221,-55 2221,-85"/>
<text text-anchor="start" x="2067" y="-73" font-family="Helvetica,sans-Serif" font-size="10.00">RegisterCommonGameObject</text>
<text text-anchor="middle" x="2140" y="-62" font-family="Helvetica,sans-Serif" font-size="10.00">Type.cpp</text>
</a>
</g>
</g>
<!-- Node8&#45;&gt;Node11 -->
<g id="edge12" class="edge">
<title>Node8&#45;&gt;Node11</title>
<path fill="none" stroke="#63b8ff" d="M1805.12,-120.91C1914.37,-100.94 1943.94,-101.01 2050,-85 2052.81,-84.58 2055.68,-84.14 2058.57,-83.7"/>
<polygon fill="#63b8ff" stroke="#63b8ff" points="1804.2,-117.52 1795,-122.78 1805.47,-124.41 1804.2,-117.52"/>
</g>
<!-- Node13 -->
<g id="node13" class="node">
<title>Node13</title>
<g id="a_node13"><a xlink:href="Camera_8cpp.html" target="_top" xlink:title=" ">
<polygon fill="white" stroke="#666666" points="180.5,-79.5 105.5,-79.5 105.5,-60.5 180.5,-60.5 180.5,-79.5"/>
<text text-anchor="middle" x="143" y="-67.5" font-family="Helvetica,sans-Serif" font-size="10.00">Camera.cpp</text>
</a>
</g>
</g>
<!-- Node12&#45;&gt;Node13 -->
<g id="edge14" class="edge">
<title>Node12&#45;&gt;Node13</title>
<path fill="none" stroke="#63b8ff" d="M214.45,-115.47C196.55,-104.32 172.08,-89.1 156.93,-79.67"/>
<polygon fill="#63b8ff" stroke="#63b8ff" points="212.79,-118.56 223.13,-120.87 216.49,-112.61 212.79,-118.56"/>
</g>
<!-- Node14 -->
<g id="node14" class="node">
<title>Node14</title>
<g id="a_node14"><a xlink:href="Player_8cpp.html" target="_top" xlink:title=" ">
<polygon fill="white" stroke="#666666" points="270.5,-19 203.5,-19 203.5,0 270.5,0 270.5,-19"/>
<text text-anchor="middle" x="237" y="-7" font-family="Helvetica,sans-Serif" font-size="10.00">Player.cpp</text>
</a>
</g>
</g>
<!-- Node12&#45;&gt;Node14 -->
<g id="edge15" class="edge">
<title>Node12&#45;&gt;Node14</title>
<path fill="none" stroke="#63b8ff" d="M232.34,-110.73C230.61,-102.84 228.85,-93.53 228,-85 226.67,-71.73 226.67,-68.27 228,-55 229.26,-42.45 232.46,-28.21 234.68,-19.29"/>
<polygon fill="#63b8ff" stroke="#63b8ff" points="228.99,-111.78 234.68,-120.71 235.8,-110.18 228.99,-111.78"/>
</g>
<!-- Node12&#45;&gt;Node15 -->
<g id="edge16" class="edge">
<title>Node12&#45;&gt;Node15</title>
<path fill="none" stroke="#63b8ff" d="M245.54,-111.65C250.62,-101.04 256.83,-88.06 260.85,-79.67"/>
<polygon fill="#63b8ff" stroke="#63b8ff" points="242.29,-110.34 241.13,-120.87 248.61,-113.36 242.29,-110.34"/>
</g>
<!-- Node17 -->
<g id="node17" class="node">
<title>Node17</title>
<g id="a_node17"><a xlink:href="ResultScene_8cpp.html" target="_top" xlink:title=" ">
<polygon fill="white" stroke="#666666" points="408.5,-79.5 311.5,-79.5 311.5,-60.5 408.5,-60.5 408.5,-79.5"/>
<text text-anchor="middle" x="360" y="-67.5" font-family="Helvetica,sans-Serif" font-size="10.00">ResultScene.cpp</text>
</a>
</g>
</g>
<!-- Node12&#45;&gt;Node17 -->
<g id="edge19" class="edge">
<title>Node12&#45;&gt;Node17</title>
<path fill="none" stroke="#63b8ff" d="M264.05,-116.63C287.78,-105.35 321.59,-89.27 342.09,-79.52"/>
<polygon fill="#63b8ff" stroke="#63b8ff" points="262.41,-113.54 254.89,-120.99 265.42,-119.86 262.41,-113.54"/>
</g>
<!-- Node12&#45;&gt;Node18 -->
<g id="edge20" class="edge">
<title>Node12&#45;&gt;Node18</title>
<path fill="none" stroke="#63b8ff" d="M198.94,-117.96C161.61,-106.65 105.56,-89.66 72.1,-79.52"/>
<polygon fill="#63b8ff" stroke="#63b8ff" points="198.35,-121.44 208.94,-120.99 200.38,-114.74 198.35,-121.44"/>
</g>
<!-- Node15&#45;&gt;Node14 -->
<g id="edge17" class="edge">
<title>Node15&#45;&gt;Node14</title>
<path fill="none" stroke="#63b8ff" d="M256.46,-51.15C251.38,-40.54 245.17,-27.56 241.15,-19.17"/>
<polygon fill="#63b8ff" stroke="#63b8ff" points="253.39,-52.86 260.87,-60.37 259.71,-49.84 253.39,-52.86"/>
</g>
<!-- Node16 -->
<g id="node16" class="node">
<title>Node16</title>
<g id="a_node16"><a xlink:href="RegisterGameObjectType_8cpp.html" target="_top" xlink:title=" ">
<polygon fill="white" stroke="#666666" points="1108.5,-19 947.5,-19 947.5,0 1108.5,0 1108.5,-19"/>
<text text-anchor="middle" x="1028" y="-7" font-family="Helvetica,sans-Serif" font-size="10.00">RegisterGameObjectType.cpp</text>
</a>
</g>
</g>
<!-- Node15&#45;&gt;Node16 -->
<g id="edge18" class="edge">
<title>Node15&#45;&gt;Node16</title>
<path fill="none" stroke="#63b8ff" d="M293.86,-57.14C296.58,-56.31 299.32,-55.57 302,-55 423.07,-29.01 784.75,-16.72 947.3,-12.4"/>
<polygon fill="#63b8ff" stroke="#63b8ff" points="292.56,-53.89 284.25,-60.46 294.85,-60.5 292.56,-53.89"/>
</g>
<!-- Node19&#45;&gt;Node16 -->
<g id="edge23" class="edge">
<title>Node19&#45;&gt;Node16</title>
<path fill="none" stroke="#63b8ff" d="M1321.59,-110.45C1321.02,-93.39 1317.28,-68.98 1302,-55 1274.36,-29.71 1179.2,-18.72 1108.75,-14"/>
<polygon fill="#63b8ff" stroke="#63b8ff" points="1318.09,-110.86 1321.59,-120.86 1325.09,-110.86 1318.09,-110.86"/>
</g>
<!-- Node20 -->
<g id="node20" class="node">
<title>Node20</title>
<g id="a_node20"><a xlink:href="GameOverZone_8cpp.html" target="_top" xlink:title=" ">
<polygon fill="white" stroke="#666666" points="1293,-79.5 1179,-79.5 1179,-60.5 1293,-60.5 1293,-79.5"/>
<text text-anchor="middle" x="1236" y="-67.5" font-family="Helvetica,sans-Serif" font-size="10.00">GameOverZone.cpp</text>
</a>
</g>
</g>
<!-- Node19&#45;&gt;Node20 -->
<g id="edge22" class="edge">
<title>Node19&#45;&gt;Node20</title>
<path fill="none" stroke="#63b8ff" d="M1300.16,-115.16C1284.01,-104.05 1262.17,-89.01 1248.59,-79.67"/>
<polygon fill="#63b8ff" stroke="#63b8ff" points="1298.24,-118.08 1308.46,-120.87 1302.2,-112.32 1298.24,-118.08"/>
</g>
<!-- Node21&#45;&gt;Node16 -->
<g id="edge26" class="edge">
<title>Node21&#45;&gt;Node16</title>
<path fill="none" stroke="#63b8ff" d="M1401.96,-113.14C1384.87,-95.67 1355.27,-68.68 1324,-55 1255.32,-24.96 1170.06,-14.65 1108.71,-11.36"/>
<polygon fill="#63b8ff" stroke="#63b8ff" points="1399.86,-116.01 1409.29,-120.84 1404.93,-111.19 1399.86,-116.01"/>
</g>
<!-- Node22 -->
<g id="node22" class="node">
<title>Node22</title>
<g id="a_node22"><a xlink:href="Goal_8cpp.html" target="_top" xlink:title=" ">
<polygon fill="white" stroke="#666666" points="1446.5,-79.5 1387.5,-79.5 1387.5,-60.5 1446.5,-60.5 1446.5,-79.5"/>
<text text-anchor="middle" x="1417" y="-67.5" font-family="Helvetica,sans-Serif" font-size="10.00">Goal.cpp</text>
</a>
</g>
</g>
<!-- Node21&#45;&gt;Node22 -->
<g id="edge25" class="edge">
<title>Node21&#45;&gt;Node22</title>
<path fill="none" stroke="#63b8ff" d="M1417,-110.66C1417,-100.24 1417,-87.8 1417,-79.67"/>
<polygon fill="#63b8ff" stroke="#63b8ff" points="1413.5,-110.87 1417,-120.87 1420.5,-110.87 1413.5,-110.87"/>
</g>
<!-- Node24 -->
<g id="node24" class="node">
<title>Node24</title>
<g id="a_node24"><a xlink:href="HighlightEnemy_8cpp.html" target="_top" xlink:title=" ">
<polygon fill="white" stroke="#666666" points="2352.5,-79.5 2239.5,-79.5 2239.5,-60.5 2352.5,-60.5 2352.5,-79.5"/>
<text text-anchor="middle" x="2296" y="-67.5" font-family="Helvetica,sans-Serif" font-size="10.00">HighlightEnemy.cpp</text>
</a>
</g>
</g>
<!-- Node23&#45;&gt;Node24 -->
<g id="edge28" class="edge">
<title>Node23&#45;&gt;Node24</title>
<path fill="none" stroke="#63b8ff" d="M2224.55,-115.47C2242.45,-104.32 2266.92,-89.1 2282.07,-79.67"/>
<polygon fill="#63b8ff" stroke="#63b8ff" points="2222.51,-112.61 2215.87,-120.87 2226.21,-118.56 2222.51,-112.61"/>
</g>
<!-- Node26&#45;&gt;Node16 -->
<g id="edge34" class="edge">
<title>Node26&#45;&gt;Node16</title>
<path fill="none" stroke="#63b8ff" d="M594.94,-117.17C579.22,-110.35 563.09,-100.11 554,-85 547.12,-73.58 545.02,-64.86 554,-55 579.91,-26.54 819.01,-15.94 947.38,-12.27"/>
<polygon fill="#63b8ff" stroke="#63b8ff" points="594.01,-120.56 604.6,-120.98 596.58,-114.05 594.01,-120.56"/>
</g>
<!-- Node26&#45;&gt;Node27 -->
<g id="edge31" class="edge">
<title>Node26&#45;&gt;Node27</title>
<path fill="none" stroke="#63b8ff" d="M603.42,-117.67C570.35,-106.36 521.29,-89.57 491.89,-79.52"/>
<polygon fill="#63b8ff" stroke="#63b8ff" points="602.54,-121.07 613.14,-120.99 604.81,-114.45 602.54,-121.07"/>
</g>
<!-- Node28 -->
<g id="node28" class="node">
<title>Node28</title>
<g id="a_node28"><a xlink:href="MovingFloor_8cpp.html" target="_top" xlink:title=" ">
<polygon fill="white" stroke="#666666" points="827.5,-79.5 730.5,-79.5 730.5,-60.5 827.5,-60.5 827.5,-79.5"/>
<text text-anchor="middle" x="779" y="-67.5" font-family="Helvetica,sans-Serif" font-size="10.00">MovingFloor.cpp</text>
</a>
</g>
</g>
<!-- Node26&#45;&gt;Node28 -->
<g id="edge32" class="edge">
<title>Node26&#45;&gt;Node28</title>
<path fill="none" stroke="#63b8ff" d="M667.93,-117.08C695.17,-105.78 734.65,-89.4 758.47,-79.52"/>
<polygon fill="#63b8ff" stroke="#63b8ff" points="666.4,-113.93 658.5,-120.99 669.08,-120.39 666.4,-113.93"/>
</g>
<!-- Node29 -->
<g id="node29" class="node">
<title>Node29</title>
<g id="a_node29"><a xlink:href="MovingFloor_8generated_8cpp.html" target="_top" xlink:title=" ">
<polygon fill="white" stroke="#666666" points="712.5,-79.5 563.5,-79.5 563.5,-60.5 712.5,-60.5 712.5,-79.5"/>
<text text-anchor="middle" x="638" y="-67.5" font-family="Helvetica,sans-Serif" font-size="10.00">MovingFloor.generated.cpp</text>
</a>
</g>
</g>
<!-- Node26&#45;&gt;Node29 -->
<g id="edge33" class="edge">
<title>Node26&#45;&gt;Node29</title>
<path fill="none" stroke="#63b8ff" d="M638,-110.66C638,-100.24 638,-87.8 638,-79.67"/>
<polygon fill="#63b8ff" stroke="#63b8ff" points="634.5,-110.87 638,-120.87 641.5,-110.87 634.5,-110.87"/>
</g>
<!-- Node30&#45;&gt;Node16 -->
<g id="edge37" class="edge">
<title>Node30&#45;&gt;Node16</title>
<path fill="none" stroke="#63b8ff" d="M1007.76,-110.86C1013.01,-84.81 1022.34,-38.56 1026.22,-19.3"/>
<polygon fill="#63b8ff" stroke="#63b8ff" points="1004.27,-110.45 1005.73,-120.94 1011.13,-111.83 1004.27,-110.45"/>
</g>
<!-- Node31 -->
<g id="node31" class="node">
<title>Node31</title>
<g id="a_node31"><a xlink:href="PatrolChargerEnemy_8cpp.html" target="_top" xlink:title=" ">
<polygon fill="white" stroke="#666666" points="980.5,-79.5 845.5,-79.5 845.5,-60.5 980.5,-60.5 980.5,-79.5"/>
<text text-anchor="middle" x="913" y="-67.5" font-family="Helvetica,sans-Serif" font-size="10.00">PatrolChargerEnemy.cpp</text>
</a>
</g>
</g>
<!-- Node30&#45;&gt;Node31 -->
<g id="edge36" class="edge">
<title>Node30&#45;&gt;Node31</title>
<path fill="none" stroke="#63b8ff" d="M981.69,-115.16C964.4,-104.05 941.02,-89.01 926.48,-79.67"/>
<polygon fill="#63b8ff" stroke="#63b8ff" points="980.27,-118.4 990.57,-120.87 984.05,-112.52 980.27,-118.4"/>
</g>
<!-- Node33 -->
<g id="node33" class="node">
<title>Node33</title>
<g id="a_node33"><a xlink:href="SampleGame_8cpp.html" target="_top" xlink:title=" ">
<polygon fill="white" stroke="#666666" points="1692.5,-79.5 1589.5,-79.5 1589.5,-60.5 1692.5,-60.5 1692.5,-79.5"/>
<text text-anchor="middle" x="1641" y="-67.5" font-family="Helvetica,sans-Serif" font-size="10.00">SampleGame.cpp</text>
</a>
</g>
</g>
<!-- Node32&#45;&gt;Node33 -->
<g id="edge40" class="edge">
<title>Node32&#45;&gt;Node33</title>
<path fill="none" stroke="#63b8ff" d="M1636.93,-110.66C1638,-100.24 1639.28,-87.8 1640.11,-79.67"/>
<polygon fill="#63b8ff" stroke="#63b8ff" points="1633.42,-110.56 1635.89,-120.87 1640.39,-111.28 1633.42,-110.56"/>
</g>
<!-- Node32&#45;&gt;Node34 -->
<g id="edge41" class="edge">
<title>Node32&#45;&gt;Node34</title>
<path fill="none" stroke="#63b8ff" d="M1661.09,-116.23C1683.11,-105.03 1713.99,-89.32 1732.96,-79.67"/>
<polygon fill="#63b8ff" stroke="#63b8ff" points="1659.29,-113.21 1651.97,-120.87 1662.47,-119.45 1659.29,-113.21"/>
</g>
<!-- Node36&#45;&gt;Node16 -->
<g id="edge44" class="edge">
<title>Node36&#45;&gt;Node16</title>
<path fill="none" stroke="#63b8ff" d="M1099.78,-115.23C1088.65,-107.3 1075.55,-96.68 1066,-85 1048.72,-63.87 1036.33,-33.6 1030.96,-19"/>
<polygon fill="#63b8ff" stroke="#63b8ff" points="1097.95,-118.22 1108.18,-120.99 1101.91,-112.45 1097.95,-118.22"/>
</g>
<!-- Node37 -->
<g id="node37" class="node">
<title>Node37</title>
<g id="a_node37"><a xlink:href="ScoreItem_8cpp.html" target="_top" xlink:title=" ">
<polygon fill="white" stroke="#666666" points="1161,-79.5 1075,-79.5 1075,-60.5 1161,-60.5 1161,-79.5"/>
<text text-anchor="middle" x="1118" y="-67.5" font-family="Helvetica,sans-Serif" font-size="10.00">ScoreItem.cpp</text>
</a>
</g>
</g>
<!-- Node36&#45;&gt;Node37 -->
<g id="edge45" class="edge">
<title>Node36&#45;&gt;Node37</title>
<path fill="none" stroke="#63b8ff" d="M1120.71,-110.66C1120,-100.24 1119.15,-87.8 1118.59,-79.67"/>
<polygon fill="#63b8ff" stroke="#63b8ff" points="1117.24,-111.13 1121.41,-120.87 1124.22,-110.65 1117.24,-111.13"/>
</g>
<!-- Node39 -->
<g id="node39" class="node">
<title>Node39</title>
<g id="a_node39"><a xlink:href="ScoreViewer_8cpp.html" target="_top" xlink:title=" ">
<polygon fill="white" stroke="#666666" points="2467.5,-79.5 2370.5,-79.5 2370.5,-60.5 2467.5,-60.5 2467.5,-79.5"/>
<text text-anchor="middle" x="2419" y="-67.5" font-family="Helvetica,sans-Serif" font-size="10.00">ScoreViewer.cpp</text>
</a>
</g>
</g>
<!-- Node38&#45;&gt;Node39 -->
<g id="edge47" class="edge">
<title>Node38&#45;&gt;Node39</title>
<path fill="none" stroke="#63b8ff" d="M2338.37,-115.92C2358.43,-104.74 2386.28,-89.23 2403.44,-79.67"/>
<polygon fill="#63b8ff" stroke="#63b8ff" points="2336.53,-112.94 2329.49,-120.87 2339.93,-119.06 2336.53,-112.94"/>
</g>
<!-- Node41&#45;&gt;Node17 -->
<g id="edge51" class="edge">
<title>Node41&#45;&gt;Node17</title>
<path fill="none" stroke="#63b8ff" d="M1460.49,-121.95C1456.94,-121.59 1453.42,-121.27 1450,-121 992.06,-84.47 872.03,-148.12 417,-85 408.02,-83.75 398.39,-81.68 389.65,-79.51"/>
<polygon fill="#63b8ff" stroke="#63b8ff" points="1460.18,-125.43 1470.5,-123.01 1460.93,-118.47 1460.18,-125.43"/>
</g>
<!-- Node41&#45;&gt;Node22 -->
<g id="edge50" class="edge">
<title>Node41&#45;&gt;Node22</title>
<path fill="none" stroke="#63b8ff" d="M1494.3,-115.77C1475.02,-104.6 1448.4,-89.19 1431.96,-79.67"/>
<polygon fill="#63b8ff" stroke="#63b8ff" points="1492.69,-118.88 1503.1,-120.87 1496.2,-112.83 1492.69,-118.88"/>
</g>
<!-- Node41&#45;&gt;Node33 -->
<g id="edge52" class="edge">
<title>Node41&#45;&gt;Node33</title>
<path fill="none" stroke="#63b8ff" d="M1545.05,-116.63C1568.78,-105.35 1602.59,-89.27 1623.09,-79.52"/>
<polygon fill="#63b8ff" stroke="#63b8ff" points="1543.41,-113.54 1535.89,-120.99 1546.42,-119.86 1543.41,-113.54"/>
</g>
<!-- Node42 -->
<g id="node42" class="node">
<title>Node42</title>
<g id="a_node42"><a xlink:href="StageManager_8cpp.html" target="_top" xlink:title=" ">
<polygon fill="white" stroke="#666666" points="1571.5,-79.5 1464.5,-79.5 1464.5,-60.5 1571.5,-60.5 1571.5,-79.5"/>
<text text-anchor="middle" x="1518" y="-67.5" font-family="Helvetica,sans-Serif" font-size="10.00">StageManager.cpp</text>
</a>
</g>
</g>
<!-- Node41&#45;&gt;Node42 -->
<g id="edge53" class="edge">
<title>Node41&#45;&gt;Node42</title>
<path fill="none" stroke="#63b8ff" d="M1518,-110.66C1518,-100.24 1518,-87.8 1518,-79.67"/>
<polygon fill="#63b8ff" stroke="#63b8ff" points="1514.5,-110.87 1518,-120.87 1521.5,-110.87 1514.5,-110.87"/>
</g>
<!-- Node44 -->
<g id="node44" class="node">
<title>Node44</title>
<g id="a_node44"><a xlink:href="TextBox_8cpp.html" target="_top" xlink:title=" ">
<polygon fill="white" stroke="#666666" points="2562,-79.5 2486,-79.5 2486,-60.5 2562,-60.5 2562,-79.5"/>
<text text-anchor="middle" x="2524" y="-67.5" font-family="Helvetica,sans-Serif" font-size="10.00">TextBox.cpp</text>
</a>
</g>
</g>
<!-- Node43&#45;&gt;Node44 -->
<g id="edge55" class="edge">
<title>Node43&#45;&gt;Node44</title>
<path fill="none" stroke="#63b8ff" d="M2511.69,-110.99C2514.92,-100.51 2518.8,-87.89 2521.33,-79.67"/>
<polygon fill="#63b8ff" stroke="#63b8ff" points="2508.25,-110.28 2508.66,-120.87 2514.94,-112.34 2508.25,-110.28"/>
</g>
<!-- Node46 -->
<g id="node46" class="node">
<title>Node46</title>
<g id="a_node46"><a xlink:href="TimeLimit_8cpp.html" target="_top" xlink:title=" ">
<polygon fill="white" stroke="#666666" points="2666,-79.5 2580,-79.5 2580,-60.5 2666,-60.5 2666,-79.5"/>
<text text-anchor="middle" x="2623" y="-67.5" font-family="Helvetica,sans-Serif" font-size="10.00">TimeLimit.cpp</text>
</a>
</g>
</g>
<!-- Node45&#45;&gt;Node46 -->
<g id="edge58" class="edge">
<title>Node45&#45;&gt;Node46</title>
<path fill="none" stroke="#63b8ff" d="M2612.75,-110.99C2615.43,-100.51 2618.67,-87.89 2620.78,-79.67"/>
<polygon fill="#63b8ff" stroke="#63b8ff" points="2609.31,-110.31 2610.21,-120.87 2616.09,-112.05 2609.31,-110.31"/>
</g>
</g>
</svg>
