<?xml version="1.0" encoding="UTF-8" standalone="no"?>
<!DOCTYPE svg PUBLIC "-//W3C//DTD SVG 1.1//EN"
 "http://www.w3.org/Graphics/SVG/1.1/DTD/svg11.dtd">
<!-- Generated by graphviz version 2.43.0 (0)
 -->
<!-- Title: mtgb::Collider::SetCenter Pages: 1 -->
<svg width="363pt" height="86pt"
 viewBox="0.00 0.00 363.00 86.00" xmlns="http://www.w3.org/2000/svg" xmlns:xlink="http://www.w3.org/1999/xlink">
<g id="graph0" class="graph" transform="scale(1 1) rotate(0) translate(4 82)">
<title>mtgb::Collider::SetCenter</title>
<!-- Node1 -->
<g id="node1" class="node">
<title>Node1</title>
<g id="a_node1"><a xlink:title=" ">
<polygon fill="#999999" stroke="#666666" points="355,-48.5 215,-48.5 215,-29.5 355,-29.5 355,-48.5"/>
<text text-anchor="middle" x="285" y="-36.5" font-family="Helvetica,sans-Serif" font-size="10.00">mtgb::Collider::SetCenter</text>
</a>
</g>
</g>
<!-- Node2 -->
<g id="node2" class="node">
<title>Node2</title>
<g id="a_node2"><a xlink:href="classmtgb_1_1TerrainReader.html#a40311d6c5437dd7ed0b0b9378f1a7fff" target="_top" xlink:title="ステージの範囲外と範囲内の境界となるコライダーを作成する">
<polygon fill="white" stroke="#666666" points="179,-78 0,-78 0,-48 179,-48 179,-78"/>
<text text-anchor="start" x="8" y="-66" font-family="Helvetica,sans-Serif" font-size="10.00">mtgb::TerrainReader</text>
<text text-anchor="middle" x="89.5" y="-55" font-family="Helvetica,sans-Serif" font-size="10.00">::GenerateStageBoundaryCollider</text>
</a>
</g>
</g>
<!-- Node1&#45;&gt;Node2 -->
<g id="edge1" class="edge">
<title>Node1&#45;&gt;Node2</title>
<path fill="none" stroke="#63b8ff" d="M204.76,-48.83C196.31,-49.88 187.68,-50.95 179.13,-52.01"/>
<polygon fill="#63b8ff" stroke="#63b8ff" points="205.47,-52.27 214.96,-47.56 204.61,-45.32 205.47,-52.27"/>
</g>
<!-- Node3 -->
<g id="node3" class="node">
<title>Node3</title>
<g id="a_node3"><a xlink:href="classmtgb_1_1TerrainReader.html#ad0cb5f981330b1880493835f5aa591bc" target="_top" xlink:title=" ">
<polygon fill="white" stroke="#666666" points="156,-30 23,-30 23,0 156,0 156,-30"/>
<text text-anchor="start" x="31" y="-18" font-family="Helvetica,sans-Serif" font-size="10.00">mtgb::TerrainReader</text>
<text text-anchor="middle" x="89.5" y="-7" font-family="Helvetica,sans-Serif" font-size="10.00">::GenerateTerrainAABBs</text>
</a>
</g>
</g>
<!-- Node1&#45;&gt;Node3 -->
<g id="edge2" class="edge">
<title>Node1&#45;&gt;Node3</title>
<path fill="none" stroke="#63b8ff" d="M204.99,-29.2C188.8,-27.19 171.93,-25.1 156.27,-23.16"/>
<polygon fill="#63b8ff" stroke="#63b8ff" points="204.61,-32.68 214.96,-30.44 205.47,-25.73 204.61,-32.68"/>
</g>
</g>
</svg>
