<?xml version="1.0" encoding="UTF-8" standalone="no"?>
<!DOCTYPE svg PUBLIC "-//W3C//DTD SVG 1.1//EN"
 "http://www.w3.org/Graphics/SVG/1.1/DTD/svg11.dtd">
<!-- Generated by graphviz version 2.43.0 (0)
 -->
<!-- Title: mtgb::Game::GetComponentFactory Pages: 1 -->
<svg width="576pt" height="278pt"
 viewBox="0.00 0.00 576.00 278.00" xmlns="http://www.w3.org/2000/svg" xmlns:xlink="http://www.w3.org/1999/xlink">
<g id="graph0" class="graph" transform="scale(1 1) rotate(0) translate(4 274)">
<title>mtgb::Game::GetComponentFactory</title>
<!-- Node1 -->
<g id="node1" class="node">
<title>Node1</title>
<g id="a_node1"><a xlink:title=" ">
<polygon fill="#999999" stroke="#666666" points="568,-150 411,-150 411,-120 568,-120 568,-150"/>
<text text-anchor="start" x="419" y="-138" font-family="Helvetica,sans-Serif" font-size="10.00">mtgb::Game::GetComponent</text>
<text text-anchor="middle" x="489.5" y="-127" font-family="Helvetica,sans-Serif" font-size="10.00">Factory</text>
</a>
</g>
</g>
<!-- Node2 -->
<g id="node2" class="node">
<title>Node2</title>
<g id="a_node2"><a xlink:href="classmtgb_1_1ImGuiEditor.html#acac1920ffcfc560c0d1d93bbb60478c0" target="_top" xlink:title=" ">
<polygon fill="white" stroke="#666666" points="352,-270 240,-270 240,-240 352,-240 352,-270"/>
<text text-anchor="start" x="248" y="-258" font-family="Helvetica,sans-Serif" font-size="10.00">mtgb::ImGuiEditor::</text>
<text text-anchor="middle" x="296" y="-247" font-family="Helvetica,sans-Serif" font-size="10.00">AddComponent</text>
</a>
</g>
</g>
<!-- Node1&#45;&gt;Node2 -->
<g id="edge1" class="edge">
<title>Node1&#45;&gt;Node2</title>
<path fill="none" stroke="#63b8ff" d="M467.28,-157.62C445.86,-179.24 410.9,-211.37 375,-231 367.91,-234.87 360.12,-238.21 352.28,-241.06"/>
<polygon fill="#63b8ff" stroke="#63b8ff" points="470.07,-159.77 474.54,-150.17 465.05,-154.89 470.07,-159.77"/>
</g>
<!-- Node3 -->
<g id="node3" class="node">
<title>Node3</title>
<g id="a_node3"><a xlink:href="classmtgb_1_1GameObjectGenerator.html#a9067a4b9b90df50f8037d54e41a2f468" target="_top" xlink:title=" ">
<polygon fill="white" stroke="#666666" points="375,-222 217,-222 217,-192 375,-192 375,-222"/>
<text text-anchor="start" x="225" y="-210" font-family="Helvetica,sans-Serif" font-size="10.00">mtgb::GameObjectGenerator</text>
<text text-anchor="middle" x="296" y="-199" font-family="Helvetica,sans-Serif" font-size="10.00">::Duplicate</text>
</a>
</g>
</g>
<!-- Node1&#45;&gt;Node3 -->
<g id="edge2" class="edge">
<title>Node1&#45;&gt;Node3</title>
<path fill="none" stroke="#63b8ff" d="M445.76,-154.29C424.66,-163.5 398.71,-174.36 375,-183 366.48,-186.1 357.34,-189.15 348.43,-191.99"/>
<polygon fill="#63b8ff" stroke="#63b8ff" points="447.34,-157.42 455.09,-150.19 444.52,-151.01 447.34,-157.42"/>
</g>
<!-- Node5 -->
<g id="node5" class="node">
<title>Node5</title>
<g id="a_node5"><a xlink:href="classmtgb_1_1GameObjectGenerator.html#a8b5503cfaba6ad2226fea687c2d74891" target="_top" xlink:title=" ">
<polygon fill="white" stroke="#666666" points="375,-174 217,-174 217,-144 375,-144 375,-174"/>
<text text-anchor="start" x="225" y="-162" font-family="Helvetica,sans-Serif" font-size="10.00">mtgb::GameObjectGenerator</text>
<text text-anchor="middle" x="296" y="-151" font-family="Helvetica,sans-Serif" font-size="10.00">::Generate</text>
</a>
</g>
</g>
<!-- Node1&#45;&gt;Node5 -->
<g id="edge4" class="edge">
<title>Node1&#45;&gt;Node5</title>
<path fill="none" stroke="#63b8ff" d="M400.84,-145.99C392.23,-147.06 383.54,-148.15 375.04,-149.22"/>
<polygon fill="#63b8ff" stroke="#63b8ff" points="401.4,-149.44 410.89,-144.73 400.53,-142.5 401.4,-149.44"/>
</g>
<!-- Node7 -->
<g id="node7" class="node">
<title>Node7</title>
<g id="a_node7"><a xlink:href="classmtgb_1_1GameObjectGenerator.html#a75cbc1b1bde2c45d36a91cacc6fbdd3f" target="_top" xlink:title="JSONからゲームオブジェクトを生成する">
<polygon fill="white" stroke="#666666" points="375,-126 217,-126 217,-96 375,-96 375,-126"/>
<text text-anchor="start" x="225" y="-114" font-family="Helvetica,sans-Serif" font-size="10.00">mtgb::GameObjectGenerator</text>
<text text-anchor="middle" x="296" y="-103" font-family="Helvetica,sans-Serif" font-size="10.00">::GenerateFromJson</text>
</a>
</g>
</g>
<!-- Node1&#45;&gt;Node7 -->
<g id="edge6" class="edge">
<title>Node1&#45;&gt;Node7</title>
<path fill="none" stroke="#63b8ff" d="M400.84,-124.01C392.23,-122.94 383.54,-121.85 375.04,-120.78"/>
<polygon fill="#63b8ff" stroke="#63b8ff" points="400.53,-127.5 410.89,-125.27 401.4,-120.56 400.53,-127.5"/>
</g>
<!-- Node10 -->
<g id="node10" class="node">
<title>Node10</title>
<g id="a_node10"><a xlink:href="classmtgb_1_1ImGuiEditor.html#aa6724aea9919a87393ed404ec9f3f4b9" target="_top" xlink:title=" ">
<polygon fill="white" stroke="#666666" points="370.5,-78 221.5,-78 221.5,-48 370.5,-48 370.5,-78"/>
<text text-anchor="start" x="229.5" y="-66" font-family="Helvetica,sans-Serif" font-size="10.00">mtgb::ImGuiEditor::</text>
<text text-anchor="middle" x="296" y="-55" font-family="Helvetica,sans-Serif" font-size="10.00">ShowAddComponentDialog</text>
</a>
</g>
</g>
<!-- Node1&#45;&gt;Node10 -->
<g id="edge9" class="edge">
<title>Node1&#45;&gt;Node10</title>
<path fill="none" stroke="#63b8ff" d="M445.76,-115.71C424.66,-106.5 398.71,-95.64 375,-87 366.48,-83.9 357.34,-80.85 348.43,-78.01"/>
<polygon fill="#63b8ff" stroke="#63b8ff" points="444.52,-118.99 455.09,-119.81 447.34,-112.58 444.52,-118.99"/>
</g>
<!-- Node11 -->
<g id="node11" class="node">
<title>Node11</title>
<g id="a_node11"><a xlink:href="classmtgb_1_1ImGuizmoManipulator.html#a83d7be03b39a1d4e6d6ec57c4a710fcc" target="_top" xlink:title=" ">
<polygon fill="white" stroke="#666666" points="374.5,-30 217.5,-30 217.5,0 374.5,0 374.5,-30"/>
<text text-anchor="start" x="225.5" y="-18" font-family="Helvetica,sans-Serif" font-size="10.00">mtgb::ImGuizmoManipulator</text>
<text text-anchor="middle" x="296" y="-7" font-family="Helvetica,sans-Serif" font-size="10.00">::UpdateManpulator</text>
</a>
</g>
</g>
<!-- Node1&#45;&gt;Node11 -->
<g id="edge10" class="edge">
<title>Node1&#45;&gt;Node11</title>
<path fill="none" stroke="#63b8ff" d="M467.28,-112.38C445.86,-90.76 410.9,-58.63 375,-39 368.78,-35.6 362.02,-32.62 355.16,-30.01"/>
<polygon fill="#63b8ff" stroke="#63b8ff" points="465.05,-115.11 474.54,-119.83 470.07,-110.23 465.05,-115.11"/>
</g>
<!-- Node4 -->
<g id="node4" class="node">
<title>Node4</title>
<g id="a_node4"><a xlink:href="classmtgb_1_1ImGuiEditor.html#ae43edf44b6b7a58bf12baacc5dcc48e7" target="_top" xlink:title="現在選択されているゲームオブジェクトの複製を行う">
<polygon fill="white" stroke="#666666" points="152.5,-222 28.5,-222 28.5,-192 152.5,-192 152.5,-222"/>
<text text-anchor="start" x="36.5" y="-210" font-family="Helvetica,sans-Serif" font-size="10.00">mtgb::ImGuiEditor::</text>
<text text-anchor="middle" x="90.5" y="-199" font-family="Helvetica,sans-Serif" font-size="10.00">DuplicateGameObject</text>
</a>
</g>
</g>
<!-- Node3&#45;&gt;Node4 -->
<g id="edge3" class="edge">
<title>Node3&#45;&gt;Node4</title>
<path fill="none" stroke="#63b8ff" d="M206.83,-207C188.56,-207 169.69,-207 152.64,-207"/>
<polygon fill="#63b8ff" stroke="#63b8ff" points="206.9,-210.5 216.9,-207 206.9,-203.5 206.9,-210.5"/>
</g>
<!-- Node6 -->
<g id="node6" class="node">
<title>Node6</title>
<g id="a_node6"><a xlink:href="classmtgb_1_1ImGuiEditor.html#abd26972c5037adf41d1ce8f9317610bb" target="_top" xlink:title=" ">
<polygon fill="white" stroke="#666666" points="181,-174 0,-174 0,-144 181,-144 181,-174"/>
<text text-anchor="start" x="8" y="-162" font-family="Helvetica,sans-Serif" font-size="10.00">mtgb::ImGuiEditor::</text>
<text text-anchor="middle" x="90.5" y="-151" font-family="Helvetica,sans-Serif" font-size="10.00">ShowGenerateGameObjectButton</text>
</a>
</g>
</g>
<!-- Node5&#45;&gt;Node6 -->
<g id="edge5" class="edge">
<title>Node5&#45;&gt;Node6</title>
<path fill="none" stroke="#63b8ff" d="M206.7,-159C198.27,-159 189.72,-159 181.28,-159"/>
<polygon fill="#63b8ff" stroke="#63b8ff" points="206.9,-162.5 216.9,-159 206.9,-155.5 206.9,-162.5"/>
</g>
<!-- Node8 -->
<g id="node8" class="node">
<title>Node8</title>
<g id="a_node8"><a xlink:href="classSampleScene.html#aae186be401040c6ad4aef71afd78f711" target="_top" xlink:title=" ">
<polygon fill="white" stroke="#666666" points="156,-122.5 25,-122.5 25,-103.5 156,-103.5 156,-122.5"/>
<text text-anchor="middle" x="90.5" y="-110.5" font-family="Helvetica,sans-Serif" font-size="10.00">SampleScene::Initialize</text>
</a>
</g>
</g>
<!-- Node7&#45;&gt;Node8 -->
<g id="edge7" class="edge">
<title>Node7&#45;&gt;Node8</title>
<path fill="none" stroke="#63b8ff" d="M206.46,-111.87C189.56,-112.04 172.16,-112.21 156.18,-112.36"/>
<polygon fill="#63b8ff" stroke="#63b8ff" points="206.94,-115.37 216.9,-111.77 206.87,-108.37 206.94,-115.37"/>
</g>
<!-- Node9 -->
<g id="node9" class="node">
<title>Node9</title>
<g id="a_node9"><a xlink:href="classmtgb_1_1ImGuiEditor.html#ae5e6810893d4adec725a83bfe37bc579" target="_top" xlink:title=" ">
<polygon fill="white" stroke="#666666" points="146.5,-85 34.5,-85 34.5,-55 146.5,-55 146.5,-85"/>
<text text-anchor="start" x="42.5" y="-73" font-family="Helvetica,sans-Serif" font-size="10.00">mtgb::ImGuiEditor::</text>
<text text-anchor="middle" x="90.5" y="-62" font-family="Helvetica,sans-Serif" font-size="10.00">LoadMapData</text>
</a>
</g>
</g>
<!-- Node7&#45;&gt;Node9 -->
<g id="edge8" class="edge">
<title>Node7&#45;&gt;Node9</title>
<path fill="none" stroke="#63b8ff" d="M210.56,-93.99C188.99,-89.64 166.35,-85.08 146.67,-81.12"/>
<polygon fill="#63b8ff" stroke="#63b8ff" points="209.89,-97.42 220.38,-95.97 211.27,-90.56 209.89,-97.42"/>
</g>
</g>
</svg>
