<?xml version="1.0" encoding="UTF-8" standalone="no"?>
<!DOCTYPE svg PUBLIC "-//W3C//DTD SVG 1.1//EN"
 "http://www.w3.org/Graphics/SVG/1.1/DTD/svg11.dtd">
<!-- Generated by graphviz version 2.43.0 (0)
 -->
<!-- Title: mtgb::MTImGui::Initialize Pages: 1 -->
<svg width="324pt" height="64pt"
 viewBox="0.00 0.00 324.00 64.00" xmlns="http://www.w3.org/2000/svg" xmlns:xlink="http://www.w3.org/1999/xlink">
<g id="graph0" class="graph" transform="scale(1 1) rotate(0) translate(4 60)">
<title>mtgb::MTImGui::Initialize</title>
<!-- Node1 -->
<g id="node1" class="node">
<title>Node1</title>
<g id="a_node1"><a xlink:title=" ">
<polygon fill="#999999" stroke="#666666" points="316,-37 176,-37 176,-18 316,-18 316,-37"/>
<text text-anchor="middle" x="246" y="-25" font-family="Helvetica,sans-Serif" font-size="10.00">mtgb::MTImGui::Initialize</text>
</a>
</g>
</g>
<!-- Node2 -->
<g id="node2" class="node">
<title>Node2</title>
<g id="a_node2"><a xlink:href="classSampleScene.html#aae186be401040c6ad4aef71afd78f711" target="_top" xlink:title=" ">
<polygon fill="white" stroke="#666666" points="135.5,-56 4.5,-56 4.5,-37 135.5,-37 135.5,-56"/>
<text text-anchor="middle" x="70" y="-44" font-family="Helvetica,sans-Serif" font-size="10.00">SampleScene::Initialize</text>
</a>
</g>
</g>
<!-- Node1&#45;&gt;Node2 -->
<g id="edge1" class="edge">
<title>Node1&#45;&gt;Node2</title>
<path fill="none" stroke="#63b8ff" d="M165.93,-36.13C155.81,-37.24 145.54,-38.36 135.69,-39.44"/>
<polygon fill="#63b8ff" stroke="#63b8ff" points="166.42,-39.6 175.98,-35.04 165.66,-32.64 166.42,-39.6"/>
</g>
<!-- Node3 -->
<g id="node3" class="node">
<title>Node3</title>
<g id="a_node3"><a xlink:href="classStageEditScene.html#ab58c8a57aad68525a42128f090cb4919" target="_top" xlink:title=" ">
<polygon fill="white" stroke="#666666" points="140,-19 0,-19 0,0 140,0 140,-19"/>
<text text-anchor="middle" x="70" y="-7" font-family="Helvetica,sans-Serif" font-size="10.00">StageEditScene::Initialize</text>
</a>
</g>
</g>
<!-- Node1&#45;&gt;Node3 -->
<g id="edge2" class="edge">
<title>Node1&#45;&gt;Node3</title>
<path fill="none" stroke="#63b8ff" d="M165.97,-19.32C157.38,-18.44 148.68,-17.54 140.22,-16.66"/>
<polygon fill="#63b8ff" stroke="#63b8ff" points="165.67,-22.81 175.98,-20.36 166.39,-15.85 165.67,-22.81"/>
</g>
</g>
</svg>
