<?xml version="1.0" encoding="UTF-8" standalone="no"?>
<!DOCTYPE svg PUBLIC "-//W3C//DTD SVG 1.1//EN"
 "http://www.w3.org/Graphics/SVG/1.1/DTD/svg11.dtd">
<!-- Generated by graphviz version 2.43.0 (0)
 -->
<!-- Title: Player::Update Pages: 1 -->
<svg width="474pt" height="395pt"
 viewBox="0.00 0.00 474.00 394.50" xmlns="http://www.w3.org/2000/svg" xmlns:xlink="http://www.w3.org/1999/xlink">
<g id="graph0" class="graph" transform="scale(1 1) rotate(0) translate(4 390.5)">
<title>Player::Update</title>
<!-- Node1 -->
<g id="node1" class="node">
<title>Node1</title>
<g id="a_node1"><a xlink:title=" ">
<polygon fill="#999999" stroke="#666666" points="89,-185 0,-185 0,-166 89,-166 89,-185"/>
<text text-anchor="middle" x="44.5" y="-173" font-family="Helvetica,sans-Serif" font-size="10.00">Player::Update</text>
</a>
</g>
</g>
<!-- Node2 -->
<g id="node2" class="node">
<title>Node2</title>
<g id="a_node2"><a xlink:href="classmtgb_1_1Transform.html#a2c166b8c575ce4893f881836eee54bc1" target="_top" xlink:title="ワールド行列を生成する">
<polygon fill="white" stroke="#666666" points="282.5,-386.5 134.5,-386.5 134.5,-356.5 282.5,-356.5 282.5,-386.5"/>
<text text-anchor="start" x="142.5" y="-374.5" font-family="Helvetica,sans-Serif" font-size="10.00">mtgb::Transform::Generate</text>
<text text-anchor="middle" x="208.5" y="-363.5" font-family="Helvetica,sans-Serif" font-size="10.00">WorldMatrix</text>
</a>
</g>
</g>
<!-- Node1&#45;&gt;Node2 -->
<g id="edge1" class="edge">
<title>Node1&#45;&gt;Node2</title>
<path fill="none" stroke="#63b8ff" d="M47.13,-185.38C52.49,-214.74 72.38,-302.23 125,-347.5 126.36,-348.67 127.78,-349.78 129.24,-350.84"/>
<polygon fill="#63b8ff" stroke="#63b8ff" points="127.71,-354.02 138.05,-356.34 131.42,-348.08 127.71,-354.02"/>
</g>
<!-- Node3 -->
<g id="node3" class="node">
<title>Node3</title>
<g id="a_node3"><a xlink:href="classmtgb_1_1Transform.html#aca077ac0e5205e81189be3c5d3c45a2f" target="_top" xlink:title="ワールド回転行列を生成する">
<polygon fill="white" stroke="#666666" points="282.5,-338.5 134.5,-338.5 134.5,-308.5 282.5,-308.5 282.5,-338.5"/>
<text text-anchor="start" x="142.5" y="-326.5" font-family="Helvetica,sans-Serif" font-size="10.00">mtgb::Transform::Generate</text>
<text text-anchor="middle" x="208.5" y="-315.5" font-family="Helvetica,sans-Serif" font-size="10.00">WorldRotationMatrix</text>
</a>
</g>
</g>
<!-- Node1&#45;&gt;Node3 -->
<g id="edge2" class="edge">
<title>Node1&#45;&gt;Node3</title>
<path fill="none" stroke="#63b8ff" d="M48.97,-185.25C57.79,-208.66 83.42,-268.42 125,-299.5 126.84,-300.88 128.77,-302.18 130.75,-303.4"/>
<polygon fill="#63b8ff" stroke="#63b8ff" points="129.33,-306.62 139.79,-308.31 132.67,-300.46 129.33,-306.62"/>
</g>
<!-- Node4 -->
<g id="node4" class="node">
<title>Node4</title>
<g id="a_node4"><a xlink:href="classmtgb_1_1InputUtil.html#a4e0e27db46e915d4841584a7d914eb51" target="_top" xlink:title=" ">
<polygon fill="white" stroke="#666666" points="275.5,-290 141.5,-290 141.5,-271 275.5,-271 275.5,-290"/>
<text text-anchor="middle" x="208.5" y="-278" font-family="Helvetica,sans-Serif" font-size="10.00">mtgb::InputUtil::GetAxis</text>
</a>
</g>
</g>
<!-- Node1&#45;&gt;Node4 -->
<g id="edge3" class="edge">
<title>Node1&#45;&gt;Node4</title>
<path fill="none" stroke="#63b8ff" d="M51.59,-185.27C63.4,-203.33 91.23,-241.92 125,-261.5 128.9,-263.76 133.04,-265.75 137.32,-267.5"/>
<polygon fill="#63b8ff" stroke="#63b8ff" points="136.26,-270.84 146.86,-270.98 138.66,-264.27 136.26,-270.84"/>
</g>
<!-- Node6 -->
<g id="node6" class="node">
<title>Node6</title>
<g id="a_node6"><a xlink:href="classmtgb_1_1InputUtil.html#abcc52de1fac55087716b6e03816d4e13" target="_top" xlink:title=" ">
<polygon fill="white" stroke="#666666" points="280,-252.5 137,-252.5 137,-222.5 280,-222.5 280,-252.5"/>
<text text-anchor="start" x="145" y="-240.5" font-family="Helvetica,sans-Serif" font-size="10.00">mtgb::InputUtil::GetGame</text>
<text text-anchor="middle" x="208.5" y="-229.5" font-family="Helvetica,sans-Serif" font-size="10.00">PadDown</text>
</a>
</g>
</g>
<!-- Node1&#45;&gt;Node6 -->
<g id="edge5" class="edge">
<title>Node1&#45;&gt;Node6</title>
<path fill="none" stroke="#63b8ff" d="M63.44,-185.11C79.32,-193.37 103.27,-205.21 125,-213.5 130.36,-215.54 135.97,-217.52 141.63,-219.39"/>
<polygon fill="#63b8ff" stroke="#63b8ff" points="140.59,-222.73 151.18,-222.45 142.72,-216.06 140.59,-222.73"/>
</g>
<!-- Node7 -->
<g id="node7" class="node">
<title>Node7</title>
<g id="a_node7"><a xlink:href="classmtgb_1_1InputUtil.html#a920280bc3d6f2d8f967385d733aad1b2" target="_top" xlink:title=" ">
<polygon fill="white" stroke="#666666" points="274,-204 143,-204 143,-185 274,-185 274,-204"/>
<text text-anchor="middle" x="208.5" y="-192" font-family="Helvetica,sans-Serif" font-size="10.00">mtgb::InputUtil::GetKey</text>
</a>
</g>
</g>
<!-- Node1&#45;&gt;Node7 -->
<g id="edge6" class="edge">
<title>Node1&#45;&gt;Node7</title>
<path fill="none" stroke="#63b8ff" d="M89.34,-180.64C102.74,-182.21 117.87,-183.99 132.72,-185.73"/>
<polygon fill="#63b8ff" stroke="#63b8ff" points="132.6,-189.24 142.94,-186.93 133.41,-182.29 132.6,-189.24"/>
</g>
<!-- Node10 -->
<g id="node10" class="node">
<title>Node10</title>
<g id="a_node10"><a xlink:href="classmtgb_1_1InputUtil.html#a4dade03e3bbb665d967f7411d82b8d94" target="_top" xlink:title=" ">
<polygon fill="white" stroke="#666666" points="288,-167 129,-167 129,-148 288,-148 288,-167"/>
<text text-anchor="middle" x="208.5" y="-155" font-family="Helvetica,sans-Serif" font-size="10.00">mtgb::InputUtil::GetKeyDown</text>
</a>
</g>
</g>
<!-- Node1&#45;&gt;Node10 -->
<g id="edge9" class="edge">
<title>Node1&#45;&gt;Node10</title>
<path fill="none" stroke="#63b8ff" d="M89.34,-170.63C98.55,-169.61 108.57,-168.49 118.76,-167.36"/>
<polygon fill="#63b8ff" stroke="#63b8ff" points="119.43,-170.81 128.98,-166.22 118.65,-163.85 119.43,-170.81"/>
</g>
<!-- Node11 -->
<g id="node11" class="node">
<title>Node11</title>
<g id="a_node11"><a xlink:href="classmtgb_1_1RigidBody.html#a378827546f30e355ed19358323c0c578" target="_top" xlink:title=" ">
<polygon fill="white" stroke="#666666" points="284,-130 133,-130 133,-111 284,-111 284,-130"/>
<text text-anchor="middle" x="208.5" y="-118" font-family="Helvetica,sans-Serif" font-size="10.00">mtgb::RigidBody::IsJumping</text>
</a>
</g>
</g>
<!-- Node1&#45;&gt;Node11 -->
<g id="edge10" class="edge">
<title>Node1&#45;&gt;Node11</title>
<path fill="none" stroke="#63b8ff" d="M63.71,-165.99C79.56,-158.03 103.33,-146.82 125,-139.5 132.62,-136.92 140.76,-134.58 148.84,-132.49"/>
<polygon fill="#63b8ff" stroke="#63b8ff" points="149.76,-135.87 158.63,-130.06 148.08,-129.07 149.76,-135.87"/>
</g>
<!-- Node12 -->
<g id="node12" class="node">
<title>Node12</title>
<g id="a_node12"><a xlink:href="structmtgb_1_1Vector3.html#ae4cb4e8c99cfae50150e86f1f1450acc" target="_top" xlink:title=" ">
<polygon fill="white" stroke="#666666" points="279,-93 138,-93 138,-74 279,-74 279,-93"/>
<text text-anchor="middle" x="208.5" y="-81" font-family="Helvetica,sans-Serif" font-size="10.00">mtgb::Vector3::Normalize</text>
</a>
</g>
</g>
<!-- Node1&#45;&gt;Node12 -->
<g id="edge11" class="edge">
<title>Node1&#45;&gt;Node12</title>
<path fill="none" stroke="#63b8ff" d="M52.9,-165.83C65.74,-149.8 93.76,-117.85 125,-101.5 128.55,-99.64 132.29,-97.97 136.12,-96.48"/>
<polygon fill="#63b8ff" stroke="#63b8ff" points="137.53,-99.69 145.83,-93.11 135.23,-93.08 137.53,-99.69"/>
</g>
<!-- Node14 -->
<g id="node14" class="node">
<title>Node14</title>
<g id="a_node14"><a xlink:href="classmtgb_1_1Camera.html#a4b88760a7bdb3cecd530bb3a4f6703e0" target="_top" xlink:title=" ">
<polygon fill="white" stroke="#666666" points="292,-56 125,-56 125,-37 292,-37 292,-56"/>
<text text-anchor="middle" x="208.5" y="-44" font-family="Helvetica,sans-Serif" font-size="10.00">mtgb::Camera::SetFollowMode</text>
</a>
</g>
</g>
<!-- Node1&#45;&gt;Node14 -->
<g id="edge13" class="edge">
<title>Node1&#45;&gt;Node14</title>
<path fill="none" stroke="#63b8ff" d="M49.42,-165.96C58.89,-144.18 85.2,-90.69 125,-64.5 127.41,-62.91 129.94,-61.46 132.55,-60.14"/>
<polygon fill="#63b8ff" stroke="#63b8ff" points="133.97,-63.34 141.72,-56.11 131.15,-56.93 133.97,-63.34"/>
</g>
<!-- Node15 -->
<g id="node15" class="node">
<title>Node15</title>
<g id="a_node15"><a xlink:href="structmtgb_1_1Vector2T.html#acae1f66869c68ad657f64b3c8e25a290" target="_top" xlink:title=" ">
<polygon fill="white" stroke="#666666" points="266.5,-19 150.5,-19 150.5,0 266.5,0 266.5,-19"/>
<text text-anchor="middle" x="208.5" y="-7" font-family="Helvetica,sans-Serif" font-size="10.00">mtgb::Vector2T::Size</text>
</a>
</g>
</g>
<!-- Node1&#45;&gt;Node15 -->
<g id="edge14" class="edge">
<title>Node1&#45;&gt;Node15</title>
<path fill="none" stroke="#63b8ff" d="M47.73,-165.7C54.36,-138.9 76.57,-64.04 125,-27.5 129.72,-23.94 135.01,-21.05 140.56,-18.71"/>
<polygon fill="#63b8ff" stroke="#63b8ff" points="141.88,-21.96 150.1,-15.28 139.51,-15.37 141.88,-21.96"/>
</g>
<!-- Node5 -->
<g id="node5" class="node">
<title>Node5</title>
<g id="a_node5"><a xlink:href="structmtgb_1_1InputConfig.html#afd92c594e07fda5437b692f44e165241" target="_top" xlink:title="デッドゾーンを適用して0～1の範囲に正規化する">
<polygon fill="white" stroke="#666666" points="452,-295.5 342,-295.5 342,-265.5 452,-265.5 452,-295.5"/>
<text text-anchor="start" x="350" y="-283.5" font-family="Helvetica,sans-Serif" font-size="10.00">mtgb::InputConfig::</text>
<text text-anchor="middle" x="397" y="-272.5" font-family="Helvetica,sans-Serif" font-size="10.00">ApplyDeadZone</text>
</a>
</g>
</g>
<!-- Node4&#45;&gt;Node5 -->
<g id="edge4" class="edge">
<title>Node4&#45;&gt;Node5</title>
<path fill="none" stroke="#63b8ff" d="M275.52,-280.5C293.73,-280.5 313.47,-280.5 331.59,-280.5"/>
<polygon fill="#63b8ff" stroke="#63b8ff" points="331.76,-284 341.76,-280.5 331.76,-277 331.76,-284"/>
</g>
<!-- Node8 -->
<g id="node8" class="node">
<title>Node8</title>
<g id="a_node8"><a xlink:href="classmtgb_1_1InputUtil.html#a62806c019f0c9cc77efe0ef832ff9ee2" target="_top" xlink:title="入力状態を取得 どのウィンドウでも構わない場合はWindowContext::Firstのウィンドウが取得される">
<polygon fill="white" stroke="#666666" points="466,-222 328,-222 328,-203 466,-203 466,-222"/>
<text text-anchor="middle" x="397" y="-210" font-family="Helvetica,sans-Serif" font-size="10.00">mtgb::InputUtil::GetInput</text>
</a>
</g>
</g>
<!-- Node7&#45;&gt;Node8 -->
<g id="edge7" class="edge">
<title>Node7&#45;&gt;Node8</title>
<path fill="none" stroke="#63b8ff" d="M274.21,-200.75C288.31,-202.11 303.38,-203.56 317.94,-204.97"/>
<polygon fill="#63b8ff" stroke="#63b8ff" points="317.63,-208.45 327.92,-205.93 318.3,-201.48 317.63,-208.45"/>
</g>
<!-- Node9 -->
<g id="node9" class="node">
<title>Node9</title>
<g id="a_node9"><a xlink:href="classmtgb_1_1InputUtil.html#a49655ed15bd2f09cfa36f8b26211c279" target="_top" xlink:title="キーコード構造体列挙型をインデックスに変換">
<polygon fill="white" stroke="#666666" points="458.5,-185 335.5,-185 335.5,-166 458.5,-166 458.5,-185"/>
<text text-anchor="middle" x="397" y="-173" font-family="Helvetica,sans-Serif" font-size="10.00">mtgb::InputUtil::Index</text>
</a>
</g>
</g>
<!-- Node7&#45;&gt;Node9 -->
<g id="edge8" class="edge">
<title>Node7&#45;&gt;Node9</title>
<path fill="none" stroke="#63b8ff" d="M274.21,-187.91C290.67,-186.23 308.45,-184.42 325.2,-182.71"/>
<polygon fill="#63b8ff" stroke="#63b8ff" points="325.89,-186.16 335.48,-181.67 325.18,-179.2 325.89,-186.16"/>
</g>
<!-- Node13 -->
<g id="node13" class="node">
<title>Node13</title>
<g id="a_node13"><a xlink:href="structmtgb_1_1Vector3.html#a7da613a1086e5e1a58950d3d93746d2b" target="_top" xlink:title=" ">
<polygon fill="white" stroke="#666666" points="452.5,-93 341.5,-93 341.5,-74 452.5,-74 452.5,-93"/>
<text text-anchor="middle" x="397" y="-81" font-family="Helvetica,sans-Serif" font-size="10.00">mtgb::Vector3::Size</text>
</a>
</g>
</g>
<!-- Node12&#45;&gt;Node13 -->
<g id="edge12" class="edge">
<title>Node12&#45;&gt;Node13</title>
<path fill="none" stroke="#63b8ff" d="M279.21,-83.5C296.18,-83.5 314.25,-83.5 330.99,-83.5"/>
<polygon fill="#63b8ff" stroke="#63b8ff" points="331.21,-87 341.21,-83.5 331.21,-80 331.21,-87"/>
</g>
</g>
</svg>
