<?xml version="1.0" encoding="UTF-8" standalone="no"?>
<!DOCTYPE svg PUBLIC "-//W3C//DTD SVG 1.1//EN"
 "http://www.w3.org/Graphics/SVG/1.1/DTD/svg11.dtd">
<!-- Generated by graphviz version 2.43.0 (0)
 -->
<!-- Title: mtgb::GameScene::RegisterCameraGameObject Pages: 1 -->
<svg width="322pt" height="64pt"
 viewBox="0.00 0.00 322.00 64.00" xmlns="http://www.w3.org/2000/svg" xmlns:xlink="http://www.w3.org/1999/xlink">
<g id="graph0" class="graph" transform="scale(1 1) rotate(0) translate(4 60)">
<title>mtgb::GameScene::RegisterCameraGameObject</title>
<!-- Node1 -->
<g id="node1" class="node">
<title>Node1</title>
<g id="a_node1"><a xlink:title="カメラオブジェクトとして登録する">
<polygon fill="#999999" stroke="#666666" points="314,-42.5 161,-42.5 161,-12.5 314,-12.5 314,-42.5"/>
<text text-anchor="start" x="169" y="-30.5" font-family="Helvetica,sans-Serif" font-size="10.00">mtgb::GameScene::Register</text>
<text text-anchor="middle" x="237.5" y="-19.5" font-family="Helvetica,sans-Serif" font-size="10.00">CameraGameObject</text>
</a>
</g>
</g>
<!-- Node2 -->
<g id="node2" class="node">
<title>Node2</title>
<g id="a_node2"><a xlink:href="classResultScene.html#a1c074c08f803ed253f844d9189c88cfc" target="_top" xlink:title=" ">
<polygon fill="white" stroke="#666666" points="125,-56 0,-56 0,-37 125,-37 125,-56"/>
<text text-anchor="middle" x="62.5" y="-44" font-family="Helvetica,sans-Serif" font-size="10.00">ResultScene::Initialize</text>
</a>
</g>
</g>
<!-- Node1&#45;&gt;Node2 -->
<g id="edge1" class="edge">
<title>Node1&#45;&gt;Node2</title>
<path fill="none" stroke="#63b8ff" d="M150.78,-36.91C142.15,-37.86 133.52,-38.81 125.22,-39.72"/>
<polygon fill="#63b8ff" stroke="#63b8ff" points="151.31,-40.38 160.87,-35.81 150.55,-33.42 151.31,-40.38"/>
</g>
<!-- Node3 -->
<g id="node3" class="node">
<title>Node3</title>
<g id="a_node3"><a xlink:href="classTitleScene.html#adf5fb009db0ebe44f3cfef8548207d11" target="_top" xlink:title=" ">
<polygon fill="white" stroke="#666666" points="120.5,-19 4.5,-19 4.5,0 120.5,0 120.5,-19"/>
<text text-anchor="middle" x="62.5" y="-7" font-family="Helvetica,sans-Serif" font-size="10.00">TitleScene::Initialize</text>
</a>
</g>
</g>
<!-- Node1&#45;&gt;Node3 -->
<g id="edge2" class="edge">
<title>Node1&#45;&gt;Node3</title>
<path fill="none" stroke="#63b8ff" d="M150.66,-18.57C140.43,-17.5 130.19,-16.44 120.5,-15.43"/>
<polygon fill="#63b8ff" stroke="#63b8ff" points="150.56,-22.08 160.87,-19.63 151.29,-15.11 150.56,-22.08"/>
</g>
</g>
</svg>
