<?xml version="1.0" encoding="UTF-8" standalone="no"?>
<!DOCTYPE svg PUBLIC "-//W3C//DTD SVG 1.1//EN"
 "http://www.w3.org/Graphics/SVG/1.1/DTD/svg11.dtd">
<!-- Generated by graphviz version 2.43.0 (0)
 -->
<!-- Title: mtgb::CommandHistoryManager Pages: 1 -->
<svg width="566pt" height="910pt"
 viewBox="0.00 0.00 565.50 910.00" xmlns="http://www.w3.org/2000/svg" xmlns:xlink="http://www.w3.org/1999/xlink">
<g id="graph0" class="graph" transform="scale(1 1) rotate(0) translate(4 906)">
<title>mtgb::CommandHistoryManager</title>
<!-- Node1 -->
<g id="node1" class="node">
<title>Node1</title>
<g id="a_node1"><a xlink:title=" ">
<polygon fill="#999999" stroke="#666666" points="109,-0.5 109,-222.5 285,-222.5 285,-0.5 109,-0.5"/>
<text text-anchor="middle" x="197" y="-210.5" font-family="Helvetica,sans-Serif" font-size="10.00">mtgb::CommandHistoryManager</text>
<polyline fill="none" stroke="#666666" points="109,-203.5 285,-203.5 "/>
<text text-anchor="start" x="117" y="-191.5" font-family="Helvetica,sans-Serif" font-size="10.00">&#45; bool isGrouping_</text>
<polyline fill="none" stroke="#666666" points="109,-184.5 285,-184.5 "/>
<text text-anchor="start" x="117" y="-172.5" font-family="Helvetica,sans-Serif" font-size="10.00">+ CommandHistoryManager()</text>
<text text-anchor="start" x="117" y="-161.5" font-family="Helvetica,sans-Serif" font-size="10.00">+ void Initialize() override</text>
<text text-anchor="start" x="117" y="-150.5" font-family="Helvetica,sans-Serif" font-size="10.00">+ void Update() override</text>
<text text-anchor="start" x="117" y="-139.5" font-family="Helvetica,sans-Serif" font-size="10.00">+ void BeginGroupCommand()</text>
<text text-anchor="start" x="117" y="-128.5" font-family="Helvetica,sans-Serif" font-size="10.00">+ void EndGroupCommand()</text>
<text text-anchor="start" x="117" y="-117.5" font-family="Helvetica,sans-Serif" font-size="10.00">+ void ExecuteCommand</text>
<text text-anchor="start" x="117" y="-106.5" font-family="Helvetica,sans-Serif" font-size="10.00">(Command *_command)</text>
<text text-anchor="start" x="117" y="-95.5" font-family="Helvetica,sans-Serif" font-size="10.00"> override</text>
<text text-anchor="start" x="117" y="-84.5" font-family="Helvetica,sans-Serif" font-size="10.00">+ void UndoCommand()</text>
<text text-anchor="start" x="117" y="-73.5" font-family="Helvetica,sans-Serif" font-size="10.00"> override</text>
<text text-anchor="start" x="117" y="-62.5" font-family="Helvetica,sans-Serif" font-size="10.00">+ void RedoCommand()</text>
<text text-anchor="start" x="117" y="-51.5" font-family="Helvetica,sans-Serif" font-size="10.00"> override</text>
<text text-anchor="start" x="117" y="-40.5" font-family="Helvetica,sans-Serif" font-size="10.00">+ void ClearAllStack</text>
<text text-anchor="start" x="117" y="-29.5" font-family="Helvetica,sans-Serif" font-size="10.00">() override</text>
<text text-anchor="start" x="117" y="-18.5" font-family="Helvetica,sans-Serif" font-size="10.00">+ void ClearRedoStack</text>
<text text-anchor="start" x="117" y="-7.5" font-family="Helvetica,sans-Serif" font-size="10.00">() override</text>
</a>
</g>
</g>
<!-- Node2 -->
<g id="node2" class="node">
<title>Node2</title>
<g id="a_node2"><a xlink:href="classmtgb_1_1ISystem.html" target="_top" xlink:title=" ">
<polygon fill="white" stroke="#666666" points="0,-325.5 0,-426.5 150,-426.5 150,-325.5 0,-325.5"/>
<text text-anchor="middle" x="75" y="-414.5" font-family="Helvetica,sans-Serif" font-size="10.00">mtgb::ISystem</text>
<polyline fill="none" stroke="#666666" points="0,-407.5 150,-407.5 "/>
<text text-anchor="middle" x="75" y="-395.5" font-family="Helvetica,sans-Serif" font-size="10.00"> </text>
<polyline fill="none" stroke="#666666" points="0,-388.5 150,-388.5 "/>
<text text-anchor="start" x="8" y="-376.5" font-family="Helvetica,sans-Serif" font-size="10.00">+ ISystem()</text>
<text text-anchor="start" x="8" y="-365.5" font-family="Helvetica,sans-Serif" font-size="10.00">+ virtual ~ISystem()</text>
<text text-anchor="start" x="8" y="-354.5" font-family="Helvetica,sans-Serif" font-size="10.00">+ virtual void Initialize()=0</text>
<text text-anchor="start" x="8" y="-343.5" font-family="Helvetica,sans-Serif" font-size="10.00">+ virtual void Update()=0</text>
<text text-anchor="start" x="8" y="-332.5" font-family="Helvetica,sans-Serif" font-size="10.00">+ virtual void Release()</text>
</a>
</g>
</g>
<!-- Node2&#45;&gt;Node1 -->
<g id="edge1" class="edge">
<title>Node2&#45;&gt;Node1</title>
<path fill="none" stroke="#63b8ff" d="M102.33,-316.2C115.16,-288.58 130.9,-254.73 145.82,-222.62"/>
<polygon fill="none" stroke="#63b8ff" points="99.13,-314.77 98.09,-325.32 105.48,-317.72 99.13,-314.77"/>
</g>
<!-- Node3 -->
<g id="node3" class="node">
<title>Node3</title>
<g id="a_node3"><a xlink:href="classICommandHistory.html" target="_top" xlink:title=" ">
<polygon fill="white" stroke="#666666" points="123.5,-767.5 123.5,-901.5 308.5,-901.5 308.5,-767.5 123.5,-767.5"/>
<text text-anchor="middle" x="216" y="-889.5" font-family="Helvetica,sans-Serif" font-size="10.00">ICommandHistory</text>
<polyline fill="none" stroke="#666666" points="123.5,-882.5 308.5,-882.5 "/>
<text text-anchor="middle" x="216" y="-870.5" font-family="Helvetica,sans-Serif" font-size="10.00"> </text>
<polyline fill="none" stroke="#666666" points="123.5,-863.5 308.5,-863.5 "/>
<text text-anchor="start" x="131.5" y="-851.5" font-family="Helvetica,sans-Serif" font-size="10.00">+ ~ICommandHistory()</text>
<text text-anchor="start" x="131.5" y="-840.5" font-family="Helvetica,sans-Serif" font-size="10.00">=default</text>
<text text-anchor="start" x="131.5" y="-829.5" font-family="Helvetica,sans-Serif" font-size="10.00">+ virtual void ExecuteCommand</text>
<text text-anchor="start" x="131.5" y="-818.5" font-family="Helvetica,sans-Serif" font-size="10.00">(Command *_command)=0</text>
<text text-anchor="start" x="131.5" y="-807.5" font-family="Helvetica,sans-Serif" font-size="10.00">+ virtual void UndoCommand()=0</text>
<text text-anchor="start" x="131.5" y="-796.5" font-family="Helvetica,sans-Serif" font-size="10.00">+ virtual void RedoCommand()=0</text>
<text text-anchor="start" x="131.5" y="-785.5" font-family="Helvetica,sans-Serif" font-size="10.00">+ virtual void ClearAllStack()=0</text>
<text text-anchor="start" x="131.5" y="-774.5" font-family="Helvetica,sans-Serif" font-size="10.00"># virtual void ClearRedoStack()=0</text>
</a>
</g>
</g>
<!-- Node3&#45;&gt;Node1 -->
<g id="edge2" class="edge">
<title>Node3&#45;&gt;Node1</title>
<path fill="none" stroke="#63b8ff" d="M202.89,-757.16C202.56,-754.41 202.27,-751.68 202,-749 183.75,-565.08 187.21,-349.8 191.81,-222.64"/>
<polygon fill="none" stroke="#63b8ff" points="199.43,-757.71 204.17,-767.19 206.38,-756.82 199.43,-757.71"/>
</g>
<!-- Node3&#45;&gt;Node1 -->
<g id="edge3" class="edge">
<title>Node3&#45;&gt;Node1</title>
<path fill="none" stroke="#404040" d="M214.77,-767.29C212.65,-657.78 207.97,-432.03 202,-241 201.94,-238.93 201.87,-236.84 201.8,-234.73"/>
<polygon fill="none" stroke="#404040" points="201.79,-234.54 197.6,-228.68 201.39,-222.55 205.59,-228.41 201.79,-234.54"/>
<text text-anchor="middle" x="228.5" y="-503" font-family="Helvetica,sans-Serif" font-size="10.00"> &#45;inner_</text>
</g>
<!-- Node6 -->
<g id="node6" class="node">
<title>Node6</title>
<g id="a_node6"><a xlink:href="classCommandHistory.html" target="_top" xlink:title=" ">
<polygon fill="white" stroke="#666666" points="244,-529.5 244,-729.5 384,-729.5 384,-529.5 244,-529.5"/>
<text text-anchor="middle" x="314" y="-717.5" font-family="Helvetica,sans-Serif" font-size="10.00">CommandHistory</text>
<polyline fill="none" stroke="#666666" points="244,-710.5 384,-710.5 "/>
<text text-anchor="start" x="252" y="-698.5" font-family="Helvetica,sans-Serif" font-size="10.00">&#45; std::stack&lt; Command</text>
<text text-anchor="start" x="252" y="-687.5" font-family="Helvetica,sans-Serif" font-size="10.00"> * &gt; undoStack_</text>
<text text-anchor="start" x="252" y="-676.5" font-family="Helvetica,sans-Serif" font-size="10.00">&#45; std::stack&lt; Command</text>
<text text-anchor="start" x="252" y="-665.5" font-family="Helvetica,sans-Serif" font-size="10.00"> * &gt; redoStack_</text>
<polyline fill="none" stroke="#666666" points="244,-658.5 384,-658.5 "/>
<text text-anchor="start" x="252" y="-646.5" font-family="Helvetica,sans-Serif" font-size="10.00">+ ~CommandHistory()</text>
<text text-anchor="start" x="252" y="-635.5" font-family="Helvetica,sans-Serif" font-size="10.00">+ void ExecuteCommand</text>
<text text-anchor="start" x="252" y="-624.5" font-family="Helvetica,sans-Serif" font-size="10.00">(Command *_command)</text>
<text text-anchor="start" x="252" y="-613.5" font-family="Helvetica,sans-Serif" font-size="10.00"> override</text>
<text text-anchor="start" x="252" y="-602.5" font-family="Helvetica,sans-Serif" font-size="10.00">+ void UndoCommand()</text>
<text text-anchor="start" x="252" y="-591.5" font-family="Helvetica,sans-Serif" font-size="10.00"> override</text>
<text text-anchor="start" x="252" y="-580.5" font-family="Helvetica,sans-Serif" font-size="10.00">+ void RedoCommand()</text>
<text text-anchor="start" x="252" y="-569.5" font-family="Helvetica,sans-Serif" font-size="10.00"> override</text>
<text text-anchor="start" x="252" y="-558.5" font-family="Helvetica,sans-Serif" font-size="10.00">+ void ClearAllStack</text>
<text text-anchor="start" x="252" y="-547.5" font-family="Helvetica,sans-Serif" font-size="10.00">() override</text>
<text text-anchor="start" x="252" y="-536.5" font-family="Helvetica,sans-Serif" font-size="10.00">&#45; void ClearRedoStack()</text>
</a>
</g>
</g>
<!-- Node3&#45;&gt;Node6 -->
<g id="edge7" class="edge">
<title>Node3&#45;&gt;Node6</title>
<path fill="none" stroke="#63b8ff" d="M252.37,-758.16C256.85,-748.89 261.47,-739.3 266.09,-729.75"/>
<polygon fill="none" stroke="#63b8ff" points="249.15,-756.78 247.95,-767.31 255.45,-759.83 249.15,-756.78"/>
</g>
<!-- Node4 -->
<g id="node4" class="node">
<title>Node4</title>
<g id="a_node4"><a xlink:href="classmtgb_1_1GroupCommand.html" target="_top" xlink:title=" ">
<polygon fill="white" stroke="#666666" points="244,-270.5 244,-481.5 410,-481.5 410,-270.5 244,-270.5"/>
<text text-anchor="middle" x="327" y="-469.5" font-family="Helvetica,sans-Serif" font-size="10.00">mtgb::GroupCommand</text>
<polyline fill="none" stroke="#666666" points="244,-462.5 410,-462.5 "/>
<text text-anchor="start" x="252" y="-450.5" font-family="Helvetica,sans-Serif" font-size="10.00">&#45; std::string commandName_</text>
<text text-anchor="start" x="252" y="-439.5" font-family="Helvetica,sans-Serif" font-size="10.00">&#45; unsigned int undoCounter_</text>
<text text-anchor="start" x="252" y="-428.5" font-family="Helvetica,sans-Serif" font-size="10.00">&#45; unsigned int redoCounter_</text>
<polyline fill="none" stroke="#666666" points="244,-421.5 410,-421.5 "/>
<text text-anchor="start" x="252" y="-409.5" font-family="Helvetica,sans-Serif" font-size="10.00">+ GroupCommand()</text>
<text text-anchor="start" x="252" y="-398.5" font-family="Helvetica,sans-Serif" font-size="10.00">+ ~GroupCommand()</text>
<text text-anchor="start" x="252" y="-387.5" font-family="Helvetica,sans-Serif" font-size="10.00">+ void Execute() override</text>
<text text-anchor="start" x="252" y="-376.5" font-family="Helvetica,sans-Serif" font-size="10.00">+ void Undo() override</text>
<text text-anchor="start" x="252" y="-365.5" font-family="Helvetica,sans-Serif" font-size="10.00">+ void Redo() override</text>
<text text-anchor="start" x="252" y="-354.5" font-family="Helvetica,sans-Serif" font-size="10.00">+ std::string Name()</text>
<text text-anchor="start" x="252" y="-343.5" font-family="Helvetica,sans-Serif" font-size="10.00"> const override</text>
<text text-anchor="start" x="252" y="-332.5" font-family="Helvetica,sans-Serif" font-size="10.00">+ EntityId GetCommandTarget</text>
<text text-anchor="start" x="252" y="-321.5" font-family="Helvetica,sans-Serif" font-size="10.00">EntityId() const override</text>
<text text-anchor="start" x="252" y="-310.5" font-family="Helvetica,sans-Serif" font-size="10.00">+ void ExecuteCommand</text>
<text text-anchor="start" x="252" y="-299.5" font-family="Helvetica,sans-Serif" font-size="10.00">(Command *_pCommand)</text>
<text text-anchor="start" x="252" y="-288.5" font-family="Helvetica,sans-Serif" font-size="10.00">+ void SetGroupName(std</text>
<text text-anchor="start" x="252" y="-277.5" font-family="Helvetica,sans-Serif" font-size="10.00">::string _name)</text>
</a>
</g>
</g>
<!-- Node4&#45;&gt;Node1 -->
<g id="edge4" class="edge">
<title>Node4&#45;&gt;Node1</title>
<path fill="none" stroke="#404040" d="M275.25,-270.5C269.22,-258.33 263.04,-245.85 256.92,-233.49"/>
<polygon fill="none" stroke="#404040" points="256.88,-233.42 250.64,-229.82 251.56,-222.67 257.81,-226.27 256.88,-233.42"/>
<text text-anchor="middle" x="315" y="-244" font-family="Helvetica,sans-Serif" font-size="10.00"> &#45;pGroupCommand_</text>
</g>
<!-- Node5 -->
<g id="node5" class="node">
<title>Node5</title>
<g id="a_node5"><a xlink:href="classCommand.html" target="_top" xlink:title=" ">
<polygon fill="white" stroke="#666666" points="402.5,-551.5 402.5,-707.5 557.5,-707.5 557.5,-551.5 402.5,-551.5"/>
<text text-anchor="middle" x="480" y="-695.5" font-family="Helvetica,sans-Serif" font-size="10.00">Command</text>
<polyline fill="none" stroke="#666666" points="402.5,-688.5 557.5,-688.5 "/>
<text text-anchor="middle" x="480" y="-676.5" font-family="Helvetica,sans-Serif" font-size="10.00"> </text>
<polyline fill="none" stroke="#666666" points="402.5,-669.5 557.5,-669.5 "/>
<text text-anchor="start" x="410.5" y="-657.5" font-family="Helvetica,sans-Serif" font-size="10.00">+ virtual ~Command()</text>
<text text-anchor="start" x="410.5" y="-646.5" font-family="Helvetica,sans-Serif" font-size="10.00">=default</text>
<text text-anchor="start" x="410.5" y="-635.5" font-family="Helvetica,sans-Serif" font-size="10.00">+ virtual void Execute()=0</text>
<text text-anchor="start" x="410.5" y="-624.5" font-family="Helvetica,sans-Serif" font-size="10.00">+ virtual void Undo()=0</text>
<text text-anchor="start" x="410.5" y="-613.5" font-family="Helvetica,sans-Serif" font-size="10.00">+ virtual void Redo()</text>
<text text-anchor="start" x="410.5" y="-602.5" font-family="Helvetica,sans-Serif" font-size="10.00">+ virtual std::string</text>
<text text-anchor="start" x="410.5" y="-591.5" font-family="Helvetica,sans-Serif" font-size="10.00"> Name() const =0</text>
<text text-anchor="start" x="410.5" y="-580.5" font-family="Helvetica,sans-Serif" font-size="10.00">+ virtual mtgb::EntityId</text>
<text text-anchor="start" x="410.5" y="-569.5" font-family="Helvetica,sans-Serif" font-size="10.00"> GetCommandTargetEntityId</text>
<text text-anchor="start" x="410.5" y="-558.5" font-family="Helvetica,sans-Serif" font-size="10.00">() const =0</text>
</a>
</g>
</g>
<!-- Node5&#45;&gt;Node4 -->
<g id="edge5" class="edge">
<title>Node5&#45;&gt;Node4</title>
<path fill="none" stroke="#63b8ff" d="M477.72,-541.45C474.97,-527.06 470.64,-512.71 464,-500 451.05,-475.21 430.94,-453 410.09,-434.5"/>
<polygon fill="none" stroke="#63b8ff" points="474.28,-542.11 479.38,-551.4 481.18,-540.96 474.28,-542.11"/>
</g>
<!-- Node6&#45;&gt;Node4 -->
<g id="edge6" class="edge">
<title>Node6&#45;&gt;Node4</title>
<path fill="none" stroke="#404040" d="M319.12,-529.46C319.72,-517.83 320.34,-505.88 320.95,-494.03"/>
<polygon fill="none" stroke="#404040" points="320.97,-493.73 317.28,-487.53 321.59,-481.75 325.27,-487.94 320.97,-493.73"/>
<text text-anchor="middle" x="390.5" y="-503" font-family="Helvetica,sans-Serif" font-size="10.00"> &#45;commandHistoryManager_</text>
</g>
</g>
</svg>
