<?xml version="1.0" encoding="UTF-8" standalone="no"?>
<!DOCTYPE svg PUBLIC "-//W3C//DTD SVG 1.1//EN"
 "http://www.w3.org/Graphics/SVG/1.1/DTD/svg11.dtd">
<!-- Generated by graphviz version 2.43.0 (0)
 -->
<!-- Title: ResultScene::Initialize Pages: 1 -->
<svg width="525pt" height="150pt"
 viewBox="0.00 0.00 525.00 150.00" xmlns="http://www.w3.org/2000/svg" xmlns:xlink="http://www.w3.org/1999/xlink">
<g id="graph0" class="graph" transform="scale(1 1) rotate(0) translate(4 146)">
<title>ResultScene::Initialize</title>
<!-- Node1 -->
<g id="node1" class="node">
<title>Node1</title>
<g id="a_node1"><a xlink:title=" ">
<polygon fill="#999999" stroke="#666666" points="125,-83 0,-83 0,-64 125,-64 125,-83"/>
<text text-anchor="middle" x="62.5" y="-71" font-family="Helvetica,sans-Serif" font-size="10.00">ResultScene::Initialize</text>
</a>
</g>
</g>
<!-- Node2 -->
<g id="node2" class="node">
<title>Node2</title>
<g id="a_node2"><a xlink:href="classmtgb_1_1Image.html#a739cb4329f2e2f2521fa782b260cfeb7" target="_top" xlink:title="画像を読み込み、ハンドラを取得">
<polygon fill="white" stroke="#666666" points="291.5,-105 183.5,-105 183.5,-86 291.5,-86 291.5,-105"/>
<text text-anchor="middle" x="237.5" y="-93" font-family="Helvetica,sans-Serif" font-size="10.00">mtgb::Image::Load</text>
</a>
</g>
</g>
<!-- Node1&#45;&gt;Node2 -->
<g id="edge1" class="edge">
<title>Node1&#45;&gt;Node2</title>
<path fill="none" stroke="#63b8ff" d="M125.47,-81.38C140.98,-83.35 157.63,-85.47 173.21,-87.45"/>
<polygon fill="#63b8ff" stroke="#63b8ff" points="172.9,-90.94 183.26,-88.73 173.78,-84 172.9,-90.94"/>
</g>
<!-- Node5 -->
<g id="node5" class="node">
<title>Node5</title>
<g id="a_node5"><a xlink:href="classmtgb_1_1GameScene.html#a6fbe94e4fcf17b804cba13b30846dd92" target="_top" xlink:title="カメラオブジェクトとして登録する">
<polygon fill="white" stroke="#666666" points="314,-67.5 161,-67.5 161,-37.5 314,-37.5 314,-67.5"/>
<text text-anchor="start" x="169" y="-55.5" font-family="Helvetica,sans-Serif" font-size="10.00">mtgb::GameScene::Register</text>
<text text-anchor="middle" x="237.5" y="-44.5" font-family="Helvetica,sans-Serif" font-size="10.00">CameraGameObject</text>
</a>
</g>
</g>
<!-- Node1&#45;&gt;Node5 -->
<g id="edge4" class="edge">
<title>Node1&#45;&gt;Node5</title>
<path fill="none" stroke="#63b8ff" d="M125.47,-65.98C133.69,-64.98 142.24,-63.94 150.77,-62.91"/>
<polygon fill="#63b8ff" stroke="#63b8ff" points="151.26,-66.37 160.77,-61.69 150.42,-59.42 151.26,-66.37"/>
</g>
<!-- Node3 -->
<g id="node3" class="node">
<title>Node3</title>
<g id="a_node3"><a xlink:href="classmtgb_1_1IShader.html#add59a2eace0eecf37919bb05a769dc7b" target="_top" xlink:title="シェーダの初期化処理">
<polygon fill="white" stroke="#666666" points="500,-142 367,-142 367,-123 500,-123 500,-142"/>
<text text-anchor="middle" x="433.5" y="-130" font-family="Helvetica,sans-Serif" font-size="10.00">mtgb::IShader::Initialize</text>
</a>
</g>
</g>
<!-- Node2&#45;&gt;Node3 -->
<g id="edge2" class="edge">
<title>Node2&#45;&gt;Node3</title>
<path fill="none" stroke="#63b8ff" d="M288.46,-105.03C314.04,-109.91 345.39,-115.89 372.3,-121.02"/>
<polygon fill="#63b8ff" stroke="#63b8ff" points="371.89,-124.5 382.37,-122.94 373.21,-117.63 371.89,-124.5"/>
</g>
<!-- Node4 -->
<g id="node4" class="node">
<title>Node4</title>
<g id="a_node4"><a xlink:href="namespacemtgb.html#a617eca76bf9fafbeec11995aa89bedc9" target="_top" xlink:title="ワイド文字列に変換する">
<polygon fill="white" stroke="#666666" points="482,-105 385,-105 385,-86 482,-86 482,-105"/>
<text text-anchor="middle" x="433.5" y="-93" font-family="Helvetica,sans-Serif" font-size="10.00">mtgb::ToWString</text>
</a>
</g>
</g>
<!-- Node2&#45;&gt;Node4 -->
<g id="edge3" class="edge">
<title>Node2&#45;&gt;Node4</title>
<path fill="none" stroke="#63b8ff" d="M291.51,-95.5C317.26,-95.5 348.26,-95.5 374.62,-95.5"/>
<polygon fill="#63b8ff" stroke="#63b8ff" points="374.86,-99 384.86,-95.5 374.86,-92 374.86,-99"/>
</g>
<!-- Node6 -->
<g id="node6" class="node">
<title>Node6</title>
<g id="a_node6"><a xlink:href="classmtgb_1_1IComponent.html#a931ae7565817c83a4e3c5f9004c074d5" target="_top" xlink:title=" ">
<polygon fill="white" stroke="#666666" points="517,-67.5 350,-67.5 350,-37.5 517,-37.5 517,-67.5"/>
<text text-anchor="start" x="358" y="-55.5" font-family="Helvetica,sans-Serif" font-size="10.00">mtgb::IComponent&lt; Transform</text>
<text text-anchor="middle" x="433.5" y="-44.5" font-family="Helvetica,sans-Serif" font-size="10.00">CP, Transform &gt;::Get</text>
</a>
</g>
</g>
<!-- Node5&#45;&gt;Node6 -->
<g id="edge5" class="edge">
<title>Node5&#45;&gt;Node6</title>
<path fill="none" stroke="#63b8ff" d="M314.06,-52.5C322.47,-52.5 331.11,-52.5 339.7,-52.5"/>
<polygon fill="#63b8ff" stroke="#63b8ff" points="339.76,-56 349.76,-52.5 339.76,-49 339.76,-56"/>
</g>
<!-- Node7 -->
<g id="node7" class="node">
<title>Node7</title>
<g id="a_node7"><a xlink:href="classmtgb_1_1Entity.html#a7f534d8f54f1d8bd4e6e0a6902ba7736" target="_top" xlink:title="エンティティIdを取得する">
<polygon fill="white" stroke="#666666" points="502,-19 365,-19 365,0 502,0 502,-19"/>
<text text-anchor="middle" x="433.5" y="-7" font-family="Helvetica,sans-Serif" font-size="10.00">mtgb::Entity::GetEntityId</text>
</a>
</g>
</g>
<!-- Node5&#45;&gt;Node7 -->
<g id="edge6" class="edge">
<title>Node5&#45;&gt;Node7</title>
<path fill="none" stroke="#63b8ff" d="M306.35,-37.46C330.32,-32.15 356.92,-26.25 379.48,-21.25"/>
<polygon fill="#63b8ff" stroke="#63b8ff" points="380.53,-24.6 389.54,-19.02 379.02,-17.77 380.53,-24.6"/>
</g>
</g>
</svg>
