<?xml version="1.0" encoding="UTF-8" standalone="no"?>
<!DOCTYPE svg PUBLIC "-//W3C//DTD SVG 1.1//EN"
 "http://www.w3.org/Graphics/SVG/1.1/DTD/svg11.dtd">
<!-- Generated by graphviz version 2.43.0 (0)
 -->
<!-- Title: mtgb::MTImGui::ShowComponents Pages: 1 -->
<svg width="372pt" height="150pt"
 viewBox="0.00 0.00 372.00 150.00" xmlns="http://www.w3.org/2000/svg" xmlns:xlink="http://www.w3.org/1999/xlink">
<g id="graph0" class="graph" transform="scale(1 1) rotate(0) translate(4 146)">
<title>mtgb::MTImGui::ShowComponents</title>
<!-- Node1 -->
<g id="node1" class="node">
<title>Node1</title>
<g id="a_node1"><a xlink:title=" ">
<polygon fill="#999999" stroke="#666666" points="364,-83 178,-83 178,-64 364,-64 364,-83"/>
<text text-anchor="middle" x="271" y="-71" font-family="Helvetica,sans-Serif" font-size="10.00">mtgb::MTImGui::ShowComponents</text>
</a>
</g>
</g>
<!-- Node2 -->
<g id="node2" class="node">
<title>Node2</title>
<g id="a_node2"><a xlink:href="classmtgb_1_1Box3D.html#aefca67a14d78b884ccbd71732ebf7de3" target="_top" xlink:title="指定した表示キューに積まれる">
<polygon fill="white" stroke="#666666" points="142,-142 0,-142 0,-123 142,-123 142,-142"/>
<text text-anchor="middle" x="71" y="-130" font-family="Helvetica,sans-Serif" font-size="10.00">mtgb::Box3D::ShowImGui</text>
</a>
</g>
</g>
<!-- Node1&#45;&gt;Node2 -->
<g id="edge1" class="edge">
<title>Node1&#45;&gt;Node2</title>
<path fill="none" stroke="#63b8ff" d="M232.31,-86.21C206.91,-94.62 172.58,-105.68 142,-114.5 131.87,-117.42 120.85,-120.36 110.62,-123"/>
<polygon fill="#63b8ff" stroke="#63b8ff" points="233.54,-89.49 241.93,-83.01 231.33,-82.85 233.54,-89.49"/>
</g>
<!-- Node3 -->
<g id="node3" class="node">
<title>Node3</title>
<g id="a_node3"><a xlink:href="classGoal.html#a5f1f112e02c9f0f6115686aef99099f1" target="_top" xlink:title="指定した表示キューに積まれる">
<polygon fill="white" stroke="#666666" points="121.5,-105 20.5,-105 20.5,-86 121.5,-86 121.5,-105"/>
<text text-anchor="middle" x="71" y="-93" font-family="Helvetica,sans-Serif" font-size="10.00">Goal::ShowImGui</text>
</a>
</g>
</g>
<!-- Node1&#45;&gt;Node3 -->
<g id="edge2" class="edge">
<title>Node1&#45;&gt;Node3</title>
<path fill="none" stroke="#63b8ff" d="M174.22,-84.14C156,-86.17 137.64,-88.21 121.6,-89.99"/>
<polygon fill="#63b8ff" stroke="#63b8ff" points="174.75,-87.6 184.31,-83.02 173.98,-80.65 174.75,-87.6"/>
</g>
<!-- Node4 -->
<g id="node4" class="node">
<title>Node4</title>
<g id="a_node4"><a xlink:href="classPatrolChargerEnemy.html#acedb3317bc67249ae7692949f73fefa9" target="_top" xlink:title="指定した表示キューに積まれる">
<polygon fill="white" stroke="#666666" points="129,-67.5 13,-67.5 13,-37.5 129,-37.5 129,-67.5"/>
<text text-anchor="start" x="21" y="-55.5" font-family="Helvetica,sans-Serif" font-size="10.00">PatrolChargerEnemy</text>
<text text-anchor="middle" x="71" y="-44.5" font-family="Helvetica,sans-Serif" font-size="10.00">::ShowImGui</text>
</a>
</g>
</g>
<!-- Node1&#45;&gt;Node4 -->
<g id="edge3" class="edge">
<title>Node1&#45;&gt;Node4</title>
<path fill="none" stroke="#63b8ff" d="M170.05,-62.9C156,-61.41 141.97,-59.92 129.1,-58.56"/>
<polygon fill="#63b8ff" stroke="#63b8ff" points="169.96,-66.41 180.27,-63.98 170.69,-59.45 169.96,-66.41"/>
</g>
<!-- Node5 -->
<g id="node5" class="node">
<title>Node5</title>
<g id="a_node5"><a xlink:href="classPlayer.html#a67f1604a70559c6862e9fb498a8e623d" target="_top" xlink:title="指定した表示キューに積まれる">
<polygon fill="white" stroke="#666666" points="125.5,-19 16.5,-19 16.5,0 125.5,0 125.5,-19"/>
<text text-anchor="middle" x="71" y="-7" font-family="Helvetica,sans-Serif" font-size="10.00">Player::ShowImGui</text>
</a>
</g>
</g>
<!-- Node1&#45;&gt;Node5 -->
<g id="edge4" class="edge">
<title>Node1&#45;&gt;Node5</title>
<path fill="none" stroke="#63b8ff" d="M235.05,-60.44C209.45,-51.06 173.77,-38.38 142,-28.5 131.42,-25.21 119.84,-21.94 109.2,-19.06"/>
<polygon fill="#63b8ff" stroke="#63b8ff" points="234.09,-63.81 244.68,-63.98 236.51,-57.24 234.09,-63.81"/>
</g>
</g>
</svg>
