<?xml version="1.0" encoding="UTF-8" standalone="no"?>
<!DOCTYPE svg PUBLIC "-//W3C//DTD SVG 1.1//EN"
 "http://www.w3.org/Graphics/SVG/1.1/DTD/svg11.dtd">
<!-- Generated by graphviz version 2.43.0 (0)
 -->
<!-- Title: Effekseer::StringView::data Pages: 1 -->
<svg width="286pt" height="134pt"
 viewBox="0.00 0.00 286.00 134.00" xmlns="http://www.w3.org/2000/svg" xmlns:xlink="http://www.w3.org/1999/xlink">
<g id="graph0" class="graph" transform="scale(1 1) rotate(0) translate(4 130)">
<title>Effekseer::StringView::data</title>
<!-- Node1 -->
<g id="node1" class="node">
<title>Node1</title>
<g id="a_node1"><a xlink:title=" ">
<polygon fill="#999999" stroke="#666666" points="278,-78 157,-78 157,-48 278,-48 278,-78"/>
<text text-anchor="start" x="165" y="-66" font-family="Helvetica,sans-Serif" font-size="10.00">Effekseer::StringView</text>
<text text-anchor="middle" x="217.5" y="-55" font-family="Helvetica,sans-Serif" font-size="10.00">::data</text>
</a>
</g>
</g>
<!-- Node2 -->
<g id="node2" class="node">
<title>Node2</title>
<g id="a_node2"><a xlink:href="classEffekseer_1_1StringView.html#a219a6112dd9f7c4b168d46a96c1deea1" target="_top" xlink:title=" ">
<polygon fill="white" stroke="#666666" points="121,-126 0,-126 0,-96 121,-96 121,-126"/>
<text text-anchor="start" x="8" y="-114" font-family="Helvetica,sans-Serif" font-size="10.00">Effekseer::StringView</text>
<text text-anchor="middle" x="60.5" y="-103" font-family="Helvetica,sans-Serif" font-size="10.00">::operator!=</text>
</a>
</g>
</g>
<!-- Node1&#45;&gt;Node2 -->
<g id="edge1" class="edge">
<title>Node1&#45;&gt;Node2</title>
<path fill="none" stroke="#63b8ff" d="M158.16,-81.07C142.27,-85.99 125.22,-91.27 109.95,-96"/>
<polygon fill="#63b8ff" stroke="#63b8ff" points="159.37,-84.36 167.88,-78.06 157.29,-77.67 159.37,-84.36"/>
</g>
<!-- Node3 -->
<g id="node3" class="node">
<title>Node3</title>
<g id="a_node3"><a xlink:href="structEffekseer_1_1StringView_1_1Hash.html#a28e955b2a7f083d759e10c49e29ab562" target="_top" xlink:title=" ">
<polygon fill="white" stroke="#666666" points="121,-78 0,-78 0,-48 121,-48 121,-78"/>
<text text-anchor="start" x="8" y="-66" font-family="Helvetica,sans-Serif" font-size="10.00">Effekseer::StringView</text>
<text text-anchor="middle" x="60.5" y="-55" font-family="Helvetica,sans-Serif" font-size="10.00">::Hash::operator()</text>
</a>
</g>
</g>
<!-- Node1&#45;&gt;Node3 -->
<g id="edge2" class="edge">
<title>Node1&#45;&gt;Node3</title>
<path fill="none" stroke="#63b8ff" d="M146.34,-63C137.88,-63 129.3,-63 121.01,-63"/>
<polygon fill="#63b8ff" stroke="#63b8ff" points="146.57,-66.5 156.57,-63 146.57,-59.5 146.57,-66.5"/>
</g>
<!-- Node4 -->
<g id="node4" class="node">
<title>Node4</title>
<g id="a_node4"><a xlink:href="classEffekseer_1_1StringView.html#a002b39a78a5575a375343ccafc24e223" target="_top" xlink:title=" ">
<polygon fill="white" stroke="#666666" points="121,-30 0,-30 0,0 121,0 121,-30"/>
<text text-anchor="start" x="8" y="-18" font-family="Helvetica,sans-Serif" font-size="10.00">Effekseer::StringView</text>
<text text-anchor="middle" x="60.5" y="-7" font-family="Helvetica,sans-Serif" font-size="10.00">::operator==</text>
</a>
</g>
</g>
<!-- Node1&#45;&gt;Node4 -->
<g id="edge3" class="edge">
<title>Node1&#45;&gt;Node4</title>
<path fill="none" stroke="#63b8ff" d="M158.16,-44.93C142.27,-40.01 125.22,-34.73 109.95,-30"/>
<polygon fill="#63b8ff" stroke="#63b8ff" points="157.29,-48.33 167.88,-47.94 159.37,-41.64 157.29,-48.33"/>
</g>
</g>
</svg>
