<?xml version="1.0" encoding="UTF-8" standalone="no"?>
<!DOCTYPE svg PUBLIC "-//W3C//DTD SVG 1.1//EN"
 "http://www.w3.org/Graphics/SVG/1.1/DTD/svg11.dtd">
<!-- Generated by graphviz version 2.43.0 (0)
 -->
<!-- Title: mtgb::MTImGui::DrawRayImpl Pages: 1 -->
<svg width="871pt" height="167pt"
 viewBox="0.00 0.00 871.00 166.50" xmlns="http://www.w3.org/2000/svg" xmlns:xlink="http://www.w3.org/1999/xlink">
<g id="graph0" class="graph" transform="scale(1 1) rotate(0) translate(4 162.5)">
<title>mtgb::MTImGui::DrawRayImpl</title>
<!-- Node1 -->
<g id="node1" class="node">
<title>Node1</title>
<g id="a_node1"><a xlink:title=" ">
<polygon fill="#999999" stroke="#666666" points="164,-67.5 0,-67.5 0,-48.5 164,-48.5 164,-67.5"/>
<text text-anchor="middle" x="82" y="-55.5" font-family="Helvetica,sans-Serif" font-size="10.00">mtgb::MTImGui::DrawRayImpl</text>
</a>
</g>
</g>
<!-- Node2 -->
<g id="node2" class="node">
<title>Node2</title>
<g id="a_node2"><a xlink:href="structImDrawList.html#aa21e5a1c6e00239581f97d344fc0db61" target="_top" xlink:title=" ">
<polygon fill="white" stroke="#666666" points="334,-104.5 217,-104.5 217,-85.5 334,-85.5 334,-104.5"/>
<text text-anchor="middle" x="275.5" y="-92.5" font-family="Helvetica,sans-Serif" font-size="10.00">ImDrawList::AddLine</text>
</a>
</g>
</g>
<!-- Node1&#45;&gt;Node2 -->
<g id="edge1" class="edge">
<title>Node1&#45;&gt;Node2</title>
<path fill="none" stroke="#63b8ff" d="M132.32,-67.53C157.57,-72.41 188.51,-78.39 215.07,-83.52"/>
<polygon fill="#63b8ff" stroke="#63b8ff" points="214.54,-86.98 225.02,-85.44 215.86,-80.11 214.54,-86.98"/>
</g>
<!-- Node8 -->
<g id="node8" class="node">
<title>Node8</title>
<g id="a_node8"><a xlink:href="namespaceImGui.html#aa100c22a9feafe843fa12c66590cbda0" target="_top" xlink:title=" ">
<polygon fill="white" stroke="#666666" points="351,-67.5 200,-67.5 200,-48.5 351,-48.5 351,-67.5"/>
<text text-anchor="middle" x="275.5" y="-55.5" font-family="Helvetica,sans-Serif" font-size="10.00">ImGui::GetWindowDrawList</text>
</a>
</g>
</g>
<!-- Node1&#45;&gt;Node8 -->
<g id="edge7" class="edge">
<title>Node1&#45;&gt;Node8</title>
<path fill="none" stroke="#63b8ff" d="M164.21,-58C172.62,-58 181.18,-58 189.63,-58"/>
<polygon fill="#63b8ff" stroke="#63b8ff" points="189.85,-61.5 199.85,-58 189.85,-54.5 189.85,-61.5"/>
</g>
<!-- Node10 -->
<g id="node10" class="node">
<title>Node10</title>
<g id="a_node10"><a xlink:href="namespacemtgb_1_1ImGuiUtil.html#a21fcd4256a75ac9b687c213c62d05d61" target="_top" xlink:title=" ">
<polygon fill="white" stroke="#666666" points="345,-30 206,-30 206,0 345,0 345,-30"/>
<text text-anchor="start" x="214" y="-18" font-family="Helvetica,sans-Serif" font-size="10.00">mtgb::ImGuiUtil::WorldTo</text>
<text text-anchor="middle" x="275.5" y="-7" font-family="Helvetica,sans-Serif" font-size="10.00">ImGui</text>
</a>
</g>
</g>
<!-- Node1&#45;&gt;Node10 -->
<g id="edge9" class="edge">
<title>Node1&#45;&gt;Node10</title>
<path fill="none" stroke="#63b8ff" d="M125.5,-48.46C146.71,-43.69 173.03,-37.78 197.62,-32.26"/>
<polygon fill="#63b8ff" stroke="#63b8ff" points="198.68,-35.61 207.67,-30.01 197.15,-28.78 198.68,-35.61"/>
</g>
<!-- Node3 -->
<g id="node3" class="node">
<title>Node3</title>
<g id="a_node3"><a xlink:href="structImDrawList.html#a828d944325ed58d8b57abd3647bffaaf" target="_top" xlink:title=" ">
<polygon fill="white" stroke="#666666" points="524,-139.5 394,-139.5 394,-120.5 524,-120.5 524,-139.5"/>
<text text-anchor="middle" x="459" y="-127.5" font-family="Helvetica,sans-Serif" font-size="10.00">ImDrawList::PathLineTo</text>
</a>
</g>
</g>
<!-- Node2&#45;&gt;Node3 -->
<g id="edge2" class="edge">
<title>Node2&#45;&gt;Node3</title>
<path fill="none" stroke="#63b8ff" d="M326.1,-104.56C348.5,-108.89 375.16,-114.03 398.63,-118.55"/>
<polygon fill="#63b8ff" stroke="#63b8ff" points="397.98,-121.99 408.46,-120.45 399.31,-115.12 397.98,-121.99"/>
</g>
<!-- Node7 -->
<g id="node7" class="node">
<title>Node7</title>
<g id="a_node7"><a xlink:href="structImDrawList.html#a60bf9040ef3d09b39c4ba8f5a2a68ae9" target="_top" xlink:title=" ">
<polygon fill="white" stroke="#666666" points="524,-102.5 394,-102.5 394,-83.5 524,-83.5 524,-102.5"/>
<text text-anchor="middle" x="459" y="-90.5" font-family="Helvetica,sans-Serif" font-size="10.00">ImDrawList::PathStroke</text>
</a>
</g>
</g>
<!-- Node2&#45;&gt;Node7 -->
<g id="edge6" class="edge">
<title>Node2&#45;&gt;Node7</title>
<path fill="none" stroke="#63b8ff" d="M334.18,-94.36C349.91,-94.19 367.17,-94 383.69,-93.82"/>
<polygon fill="#63b8ff" stroke="#63b8ff" points="383.89,-97.32 393.85,-93.71 383.82,-90.32 383.89,-97.32"/>
</g>
<!-- Node4 -->
<g id="node4" class="node">
<title>Node4</title>
<g id="a_node4"><a xlink:href="structImVector.html#aab5df48e0711a48bd12f3206e08c4108" target="_top" xlink:title=" ">
<polygon fill="white" stroke="#666666" points="685,-139.5 567,-139.5 567,-120.5 685,-120.5 685,-139.5"/>
<text text-anchor="middle" x="626" y="-127.5" font-family="Helvetica,sans-Serif" font-size="10.00">ImVector::push_back</text>
</a>
</g>
</g>
<!-- Node3&#45;&gt;Node4 -->
<g id="edge3" class="edge">
<title>Node3&#45;&gt;Node4</title>
<path fill="none" stroke="#63b8ff" d="M524.27,-130C534.89,-130 545.95,-130 556.67,-130"/>
<polygon fill="#63b8ff" stroke="#63b8ff" points="556.83,-133.5 566.83,-130 556.83,-126.5 556.83,-133.5"/>
</g>
<!-- Node5 -->
<g id="node5" class="node">
<title>Node5</title>
<g id="a_node5"><a xlink:href="structImVector.html#a3a097635d464b1b70dc7d59996a88b28" target="_top" xlink:title=" ">
<polygon fill="white" stroke="#666666" points="863,-158.5 721,-158.5 721,-139.5 863,-139.5 863,-158.5"/>
<text text-anchor="middle" x="792" y="-146.5" font-family="Helvetica,sans-Serif" font-size="10.00">ImVector::_grow_capacity</text>
</a>
</g>
</g>
<!-- Node4&#45;&gt;Node5 -->
<g id="edge4" class="edge">
<title>Node4&#45;&gt;Node5</title>
<path fill="none" stroke="#63b8ff" d="M685.28,-136.75C693.55,-137.71 702.18,-138.71 710.78,-139.71"/>
<polygon fill="#63b8ff" stroke="#63b8ff" points="710.5,-143.2 720.83,-140.87 711.3,-136.24 710.5,-143.2"/>
</g>
<!-- Node6 -->
<g id="node6" class="node">
<title>Node6</title>
<g id="a_node6"><a xlink:href="structImVector.html#a0f14f5736c3372157856eebb67123b75" target="_top" xlink:title=" ">
<polygon fill="white" stroke="#666666" points="843.5,-121.5 740.5,-121.5 740.5,-102.5 843.5,-102.5 843.5,-121.5"/>
<text text-anchor="middle" x="792" y="-109.5" font-family="Helvetica,sans-Serif" font-size="10.00">ImVector::reserve</text>
</a>
</g>
</g>
<!-- Node4&#45;&gt;Node6 -->
<g id="edge5" class="edge">
<title>Node4&#45;&gt;Node6</title>
<path fill="none" stroke="#63b8ff" d="M685.28,-123.6C699.87,-122 715.55,-120.28 730.25,-118.67"/>
<polygon fill="#63b8ff" stroke="#63b8ff" points="730.69,-122.14 740.25,-117.57 729.93,-115.18 730.69,-122.14"/>
</g>
<!-- Node9 -->
<g id="node9" class="node">
<title>Node9</title>
<g id="a_node9"><a xlink:href="namespaceImGui.html#ac452417b5004ca16a814a72cff153526" target="_top" xlink:title=" ">
<polygon fill="white" stroke="#666666" points="531,-64.5 387,-64.5 387,-45.5 531,-45.5 531,-64.5"/>
<text text-anchor="middle" x="459" y="-52.5" font-family="Helvetica,sans-Serif" font-size="10.00">ImGui::GetCurrentWindow</text>
</a>
</g>
</g>
<!-- Node8&#45;&gt;Node9 -->
<g id="edge8" class="edge">
<title>Node8&#45;&gt;Node9</title>
<path fill="none" stroke="#63b8ff" d="M351.11,-56.77C359.61,-56.63 368.31,-56.48 376.89,-56.34"/>
<polygon fill="#63b8ff" stroke="#63b8ff" points="376.95,-59.84 386.9,-56.18 376.84,-52.84 376.95,-59.84"/>
</g>
<!-- Node10&#45;&gt;Node9 -->
<g id="edge10" class="edge">
<title>Node10&#45;&gt;Node9</title>
<path fill="none" stroke="#63b8ff" d="M344.6,-30.01C364.55,-34.41 386.06,-39.15 404.93,-43.3"/>
<polygon fill="#63b8ff" stroke="#63b8ff" points="404.31,-46.75 414.83,-45.49 405.81,-39.92 404.31,-46.75"/>
</g>
<!-- Node11 -->
<g id="node11" class="node">
<title>Node11</title>
<g id="a_node11"><a xlink:href="namespaceImGui.html#a413d939f3ef416a47d6e5b48be955146" target="_top" xlink:title=" ">
<polygon fill="white" stroke="#666666" points="521.5,-24.5 396.5,-24.5 396.5,-5.5 521.5,-5.5 521.5,-24.5"/>
<text text-anchor="middle" x="459" y="-12.5" font-family="Helvetica,sans-Serif" font-size="10.00">ImGui::GetWindowPos</text>
</a>
</g>
</g>
<!-- Node10&#45;&gt;Node11 -->
<g id="edge11" class="edge">
<title>Node10&#45;&gt;Node11</title>
<path fill="none" stroke="#63b8ff" d="M345.12,-15C358.56,-15 372.69,-15 386.22,-15"/>
<polygon fill="#63b8ff" stroke="#63b8ff" points="386.44,-18.5 396.44,-15 386.44,-11.5 386.44,-18.5"/>
</g>
</g>
</svg>
