<?xml version="1.0" encoding="UTF-8" standalone="no"?>
<!DOCTYPE svg PUBLIC "-//W3C//DTD SVG 1.1//EN"
 "http://www.w3.org/Graphics/SVG/1.1/DTD/svg11.dtd">
<!-- Generated by graphviz version 2.43.0 (0)
 -->
<!-- Title: B Pages: 1 -->
<svg width="75pt" height="254pt"
 viewBox="0.00 0.00 75.00 254.00" xmlns="http://www.w3.org/2000/svg" xmlns:xlink="http://www.w3.org/1999/xlink">
<g id="graph0" class="graph" transform="scale(1 1) rotate(0) translate(4 250)">
<title>B</title>
<!-- Node1 -->
<g id="node1" class="node">
<title>Node1</title>
<g id="a_node1"><a xlink:title=" ">
<polygon fill="#999999" stroke="#666666" points="0,-188.5 0,-245.5 67,-245.5 67,-188.5 0,-188.5"/>
<text text-anchor="middle" x="33.5" y="-233.5" font-family="Helvetica,sans-Serif" font-size="10.00">B</text>
<polyline fill="none" stroke="#666666" points="0,-226.5 67,-226.5 "/>
<text text-anchor="start" x="8" y="-214.5" font-family="Helvetica,sans-Serif" font-size="10.00">+ A * m_a</text>
<polyline fill="none" stroke="#666666" points="0,-207.5 67,-207.5 "/>
<text text-anchor="middle" x="33.5" y="-195.5" font-family="Helvetica,sans-Serif" font-size="10.00"> </text>
</a>
</g>
</g>
<!-- Node2 -->
<g id="node2" class="node">
<title>Node2</title>
<g id="a_node2"><a xlink:href="classD.html" target="_top" xlink:title=" ">
<polygon fill="white" stroke="#666666" points="4.5,-94.5 4.5,-151.5 62.5,-151.5 62.5,-94.5 4.5,-94.5"/>
<text text-anchor="middle" x="33.5" y="-139.5" font-family="Helvetica,sans-Serif" font-size="10.00">D</text>
<polyline fill="none" stroke="#666666" points="4.5,-132.5 62.5,-132.5 "/>
<text text-anchor="start" x="12.5" y="-120.5" font-family="Helvetica,sans-Serif" font-size="10.00">+ C m_c</text>
<polyline fill="none" stroke="#666666" points="4.5,-113.5 62.5,-113.5 "/>
<text text-anchor="middle" x="33.5" y="-101.5" font-family="Helvetica,sans-Serif" font-size="10.00"> </text>
</a>
</g>
</g>
<!-- Node1&#45;&gt;Node2 -->
<g id="edge1" class="edge">
<title>Node1&#45;&gt;Node2</title>
<path fill="none" stroke="#8b1a1a" d="M33.5,-178.21C33.5,-169.29 33.5,-159.95 33.5,-151.58"/>
<polygon fill="none" stroke="#8b1a1a" points="30,-178.4 33.5,-188.4 37,-178.4 30,-178.4"/>
</g>
<!-- Node3 -->
<g id="node3" class="node">
<title>Node3</title>
<g id="a_node3"><a xlink:href="classE.html" target="_top" xlink:title=" ">
<polygon fill="white" stroke="#666666" points="19,-0.5 19,-57.5 48,-57.5 48,-0.5 19,-0.5"/>
<text text-anchor="middle" x="33.5" y="-45.5" font-family="Helvetica,sans-Serif" font-size="10.00">E</text>
<polyline fill="none" stroke="#666666" points="19,-38.5 48,-38.5 "/>
<text text-anchor="middle" x="33.5" y="-26.5" font-family="Helvetica,sans-Serif" font-size="10.00"> </text>
<polyline fill="none" stroke="#666666" points="19,-19.5 48,-19.5 "/>
<text text-anchor="middle" x="33.5" y="-7.5" font-family="Helvetica,sans-Serif" font-size="10.00"> </text>
</a>
</g>
</g>
<!-- Node2&#45;&gt;Node3 -->
<g id="edge2" class="edge">
<title>Node2&#45;&gt;Node3</title>
<path fill="none" stroke="#63b8ff" d="M33.5,-84.21C33.5,-75.29 33.5,-65.95 33.5,-57.58"/>
<polygon fill="none" stroke="#63b8ff" points="30,-84.4 33.5,-94.4 37,-84.4 30,-84.4"/>
</g>
</g>
</svg>
