<?xml version="1.0" encoding="UTF-8" standalone="no"?>
<!DOCTYPE svg PUBLIC "-//W3C//DTD SVG 1.1//EN"
 "http://www.w3.org/Graphics/SVG/1.1/DTD/svg11.dtd">
<!-- Generated by graphviz version 2.43.0 (0)
 -->
<!-- Title: mtgb::Draw::Image Pages: 1 -->
<svg width="282pt" height="76pt"
 viewBox="0.00 0.00 282.00 75.50" xmlns="http://www.w3.org/2000/svg" xmlns:xlink="http://www.w3.org/1999/xlink">
<g id="graph0" class="graph" transform="scale(1 1) rotate(0) translate(4 71.5)">
<title>mtgb::Draw::Image</title>
<!-- Node1 -->
<g id="node1" class="node">
<title>Node1</title>
<g id="a_node1"><a xlink:title=" ">
<polygon fill="#999999" stroke="#666666" points="110,-45.5 0,-45.5 0,-26.5 110,-26.5 110,-45.5"/>
<text text-anchor="middle" x="55" y="-33.5" font-family="Helvetica,sans-Serif" font-size="10.00">mtgb::Draw::Image</text>
</a>
</g>
</g>
<!-- Node2 -->
<g id="node2" class="node">
<title>Node2</title>
<g id="a_node2"><a xlink:href="classmtgb_1_1Image.html#aab62e1b950dd84ec5cdb476d1d64ef4c" target="_top" xlink:title=" ">
<polygon fill="white" stroke="#666666" points="274,-67.5 146,-67.5 146,-48.5 274,-48.5 274,-67.5"/>
<text text-anchor="middle" x="210" y="-55.5" font-family="Helvetica,sans-Serif" font-size="10.00">mtgb::Image::GetSizeF</text>
</a>
</g>
</g>
<!-- Node1&#45;&gt;Node2 -->
<g id="edge1" class="edge">
<title>Node1&#45;&gt;Node2</title>
<path fill="none" stroke="#63b8ff" d="M110.37,-43.82C118.65,-45.01 127.3,-46.25 135.89,-47.49"/>
<polygon fill="#63b8ff" stroke="#63b8ff" points="135.53,-50.97 145.92,-48.93 136.52,-44.04 135.53,-50.97"/>
</g>
<!-- Node3 -->
<g id="node3" class="node">
<title>Node3</title>
<g id="a_node3"><a xlink:href="structmtgb_1_1Vector2T.html#a13314fd799be3ab4092b455396c65e0c" target="_top" xlink:title=" ">
<polygon fill="white" stroke="#666666" points="272,-30 148,-30 148,0 272,0 272,-30"/>
<text text-anchor="start" x="156" y="-18" font-family="Helvetica,sans-Serif" font-size="10.00">mtgb::Vector2T&lt; float</text>
<text text-anchor="middle" x="210" y="-7" font-family="Helvetica,sans-Serif" font-size="10.00"> &gt;::Zero</text>
</a>
</g>
</g>
<!-- Node1&#45;&gt;Node3 -->
<g id="edge2" class="edge">
<title>Node1&#45;&gt;Node3</title>
<path fill="none" stroke="#63b8ff" d="M110.37,-28.54C119.27,-27.32 128.6,-26.04 137.82,-24.77"/>
<polygon fill="#63b8ff" stroke="#63b8ff" points="138.34,-28.23 147.77,-23.4 137.39,-21.3 138.34,-28.23"/>
</g>
</g>
</svg>
