<?xml version="1.0" encoding="UTF-8" standalone="no"?>
<!DOCTYPE svg PUBLIC "-//W3C//DTD SVG 1.1//EN"
 "http://www.w3.org/Graphics/SVG/1.1/DTD/svg11.dtd">
<!-- Generated by graphviz version 2.43.0 (0)
 -->
<!-- Title: mtbit::BitFlag::Has Pages: 1 -->
<svg width="283pt" height="134pt"
 viewBox="0.00 0.00 283.00 134.00" xmlns="http://www.w3.org/2000/svg" xmlns:xlink="http://www.w3.org/1999/xlink">
<g id="graph0" class="graph" transform="scale(1 1) rotate(0) translate(4 130)">
<title>mtbit::BitFlag::Has</title>
<!-- Node1 -->
<g id="node1" class="node">
<title>Node1</title>
<g id="a_node1"><a xlink:title="指定フラグが立っているかどうか">
<polygon fill="#999999" stroke="#666666" points="275,-72.5 167,-72.5 167,-53.5 275,-53.5 275,-72.5"/>
<text text-anchor="middle" x="221" y="-60.5" font-family="Helvetica,sans-Serif" font-size="10.00">mtbit::BitFlag::Has</text>
</a>
</g>
</g>
<!-- Node2 -->
<g id="node2" class="node">
<title>Node2</title>
<g id="a_node2"><a xlink:href="classmtgb_1_1RenderSystem.html#a2fa6dee7a6277df1dd8837fda2a6058d" target="_top" xlink:title=" ">
<polygon fill="white" stroke="#666666" points="125,-126 6,-126 6,-96 125,-96 125,-126"/>
<text text-anchor="start" x="14" y="-114" font-family="Helvetica,sans-Serif" font-size="10.00">mtgb::RenderSystem</text>
<text text-anchor="middle" x="65.5" y="-103" font-family="Helvetica,sans-Serif" font-size="10.00">::DrawGameObjects</text>
</a>
</g>
</g>
<!-- Node1&#45;&gt;Node2 -->
<g id="edge1" class="edge">
<title>Node1&#45;&gt;Node2</title>
<path fill="none" stroke="#63b8ff" d="M179.61,-75.63C159.7,-81.86 135.54,-89.41 114.67,-95.94"/>
<polygon fill="#63b8ff" stroke="#63b8ff" points="180.81,-78.92 189.31,-72.6 178.72,-72.24 180.81,-78.92"/>
</g>
<!-- Node3 -->
<g id="node3" class="node">
<title>Node3</title>
<g id="a_node3"><a xlink:href="classmtgb_1_1MeshRendererCP.html#ac88207e42310f8f7019be0ec12a354f8" target="_top" xlink:title="特定のレイヤーを描画">
<polygon fill="white" stroke="#666666" points="131,-78 0,-78 0,-48 131,-48 131,-78"/>
<text text-anchor="start" x="8" y="-66" font-family="Helvetica,sans-Serif" font-size="10.00">mtgb::MeshRendererCP</text>
<text text-anchor="middle" x="65.5" y="-55" font-family="Helvetica,sans-Serif" font-size="10.00">::RenderLayer</text>
</a>
</g>
</g>
<!-- Node1&#45;&gt;Node3 -->
<g id="edge2" class="edge">
<title>Node1&#45;&gt;Node3</title>
<path fill="none" stroke="#63b8ff" d="M156.59,-63C148.15,-63 139.49,-63 131.03,-63"/>
<polygon fill="#63b8ff" stroke="#63b8ff" points="156.74,-66.5 166.74,-63 156.74,-59.5 156.74,-66.5"/>
</g>
<!-- Node4 -->
<g id="node4" class="node">
<title>Node4</title>
<g id="a_node4"><a xlink:href="classmtgb_1_1TextRendererCP.html#ada0c5dbb4071baea183bd8ad0a0b2c90" target="_top" xlink:title="特定のレイヤーを描画">
<polygon fill="white" stroke="#666666" points="128,-30 3,-30 3,0 128,0 128,-30"/>
<text text-anchor="start" x="11" y="-18" font-family="Helvetica,sans-Serif" font-size="10.00">mtgb::TextRendererCP</text>
<text text-anchor="middle" x="65.5" y="-7" font-family="Helvetica,sans-Serif" font-size="10.00">::RenderLayer</text>
</a>
</g>
</g>
<!-- Node1&#45;&gt;Node4 -->
<g id="edge3" class="edge">
<title>Node1&#45;&gt;Node4</title>
<path fill="none" stroke="#63b8ff" d="M179.61,-50.37C159.7,-44.14 135.54,-36.59 114.67,-30.06"/>
<polygon fill="#63b8ff" stroke="#63b8ff" points="178.72,-53.76 189.31,-53.4 180.81,-47.08 178.72,-53.76"/>
</g>
</g>
</svg>
