<?xml version="1.0" encoding="UTF-8" standalone="no"?>
<!DOCTYPE svg PUBLIC "-//W3C//DTD SVG 1.1//EN"
 "http://www.w3.org/Graphics/SVG/1.1/DTD/svg11.dtd">
<!-- Generated by graphviz version 2.43.0 (0)
 -->
<!-- Title: mtgb::MTImGui::TypedShow Pages: 1 -->
<svg width="332pt" height="76pt"
 viewBox="0.00 0.00 332.00 75.50" xmlns="http://www.w3.org/2000/svg" xmlns:xlink="http://www.w3.org/1999/xlink">
<g id="graph0" class="graph" transform="scale(1 1) rotate(0) translate(4 71.5)">
<title>mtgb::MTImGui::TypedShow</title>
<!-- Node1 -->
<g id="node1" class="node">
<title>Node1</title>
<g id="a_node1"><a xlink:title="型を指定して表示キューに積む 事前にSetupShowFuncで表示方法を登録する必要あり">
<polygon fill="#999999" stroke="#666666" points="324,-45.5 171,-45.5 171,-26.5 324,-26.5 324,-45.5"/>
<text text-anchor="middle" x="247.5" y="-33.5" font-family="Helvetica,sans-Serif" font-size="10.00">mtgb::MTImGui::TypedShow</text>
</a>
</g>
</g>
<!-- Node2 -->
<g id="node2" class="node">
<title>Node2</title>
<g id="a_node2"><a xlink:href="classHighlightEnemy.html#ac8568e36fb1a50ab4d6012fa79f22a2e" target="_top" xlink:title=" ">
<polygon fill="white" stroke="#666666" points="135,-67.5 0,-67.5 0,-48.5 135,-48.5 135,-67.5"/>
<text text-anchor="middle" x="67.5" y="-55.5" font-family="Helvetica,sans-Serif" font-size="10.00">HighlightEnemy::Update</text>
</a>
</g>
</g>
<!-- Node1&#45;&gt;Node2 -->
<g id="edge1" class="edge">
<title>Node1&#45;&gt;Node2</title>
<path fill="none" stroke="#63b8ff" d="M160.72,-46.6C152.14,-47.66 143.51,-48.73 135.17,-49.76"/>
<polygon fill="#63b8ff" stroke="#63b8ff" points="161.26,-50.06 170.75,-45.36 160.4,-43.12 161.26,-50.06"/>
</g>
<!-- Node3 -->
<g id="node3" class="node">
<title>Node3</title>
<g id="a_node3"><a xlink:href="classmtgb_1_1InputResource.html#ad1a7496289a816903d50af7232189601" target="_top" xlink:title="更新処理">
<polygon fill="white" stroke="#666666" points="126.5,-30 8.5,-30 8.5,0 126.5,0 126.5,-30"/>
<text text-anchor="start" x="16.5" y="-18" font-family="Helvetica,sans-Serif" font-size="10.00">mtgb::InputResource</text>
<text text-anchor="middle" x="67.5" y="-7" font-family="Helvetica,sans-Serif" font-size="10.00">::Update</text>
</a>
</g>
</g>
<!-- Node1&#45;&gt;Node3 -->
<g id="edge2" class="edge">
<title>Node1&#45;&gt;Node3</title>
<path fill="none" stroke="#63b8ff" d="M160.66,-25.87C149.14,-24.51 137.54,-23.15 126.65,-21.86"/>
<polygon fill="#63b8ff" stroke="#63b8ff" points="160.41,-29.37 170.75,-27.06 161.23,-22.42 160.41,-29.37"/>
</g>
</g>
</svg>
