<?xml version="1.0" encoding="UTF-8" standalone="no"?>
<!DOCTYPE svg PUBLIC "-//W3C//DTD SVG 1.1//EN"
 "http://www.w3.org/Graphics/SVG/1.1/DTD/svg11.dtd">
<!-- Generated by graphviz version 2.43.0 (0)
 -->
<!-- Title: mtgb::Figure::Draw Pages: 1 -->
<svg width="296pt" height="86pt"
 viewBox="0.00 0.00 296.00 86.00" xmlns="http://www.w3.org/2000/svg" xmlns:xlink="http://www.w3.org/1999/xlink">
<g id="graph0" class="graph" transform="scale(1 1) rotate(0) translate(4 82)">
<title>mtgb::Figure::Draw</title>
<!-- Node1 -->
<g id="node1" class="node">
<title>Node1</title>
<g id="a_node1"><a xlink:title=" ">
<polygon fill="#999999" stroke="#666666" points="110,-48.5 0,-48.5 0,-29.5 110,-29.5 110,-48.5"/>
<text text-anchor="middle" x="55" y="-36.5" font-family="Helvetica,sans-Serif" font-size="10.00">mtgb::Figure::Draw</text>
</a>
</g>
</g>
<!-- Node2 -->
<g id="node2" class="node">
<title>Node2</title>
<g id="a_node2"><a xlink:href="classmtgb_1_1DirectX11Draw.html#a8969f8c1b58ab3718d78be65ba3d7a7a" target="_top" xlink:title="描画するブレンドモードをセットする">
<polygon fill="white" stroke="#666666" points="278,-78 156,-78 156,-48 278,-48 278,-78"/>
<text text-anchor="start" x="164" y="-66" font-family="Helvetica,sans-Serif" font-size="10.00">mtgb::DirectX11Draw</text>
<text text-anchor="middle" x="217" y="-55" font-family="Helvetica,sans-Serif" font-size="10.00">::SetBlendMode</text>
</a>
</g>
</g>
<!-- Node1&#45;&gt;Node2 -->
<g id="edge1" class="edge">
<title>Node1&#45;&gt;Node2</title>
<path fill="none" stroke="#63b8ff" d="M110.17,-47.13C121.64,-48.85 133.91,-50.69 145.88,-52.48"/>
<polygon fill="#63b8ff" stroke="#63b8ff" points="145.43,-55.95 155.84,-53.98 146.47,-49.03 145.43,-55.95"/>
</g>
<!-- Node3 -->
<g id="node3" class="node">
<title>Node3</title>
<g id="a_node3"><a xlink:href="classmtgb_1_1DirectX11Draw.html#a80c3f65ad5458eebc5095d6520d85510" target="_top" xlink:title="深度バッファへの書き込みをするか">
<polygon fill="white" stroke="#666666" points="288,-30 146,-30 146,0 288,0 288,-30"/>
<text text-anchor="start" x="154" y="-18" font-family="Helvetica,sans-Serif" font-size="10.00">mtgb::DirectX11Draw</text>
<text text-anchor="middle" x="217" y="-7" font-family="Helvetica,sans-Serif" font-size="10.00">::SetIsWriteToDepthBuffer</text>
</a>
</g>
</g>
<!-- Node1&#45;&gt;Node3 -->
<g id="edge2" class="edge">
<title>Node1&#45;&gt;Node3</title>
<path fill="none" stroke="#63b8ff" d="M110.17,-30.87C118.38,-29.64 127,-28.35 135.62,-27.06"/>
<polygon fill="#63b8ff" stroke="#63b8ff" points="136.35,-30.49 145.72,-25.54 135.31,-23.56 136.35,-30.49"/>
</g>
</g>
</svg>
