<?xml version="1.0" encoding="UTF-8" standalone="no"?>
<!DOCTYPE svg PUBLIC "-//W3C//DTD SVG 1.1//EN"
 "http://www.w3.org/Graphics/SVG/1.1/DTD/svg11.dtd">
<!-- Generated by graphviz version 2.43.0 (0)
 -->
<!-- Title: mtgb::Time::DeltaTimeF Pages: 1 -->
<svg width="847pt" height="746pt"
 viewBox="0.00 0.00 847.00 746.01" xmlns="http://www.w3.org/2000/svg" xmlns:xlink="http://www.w3.org/1999/xlink">
<g id="graph0" class="graph" transform="scale(1 1) rotate(0) translate(4 742.01)">
<title>mtgb::Time::DeltaTimeF</title>
<!-- Node1 -->
<g id="node1" class="node">
<title>Node1</title>
<g id="a_node1"><a xlink:title=" ">
<polygon fill="#999999" stroke="#666666" points="839,-373.4 703,-373.4 703,-354.4 839,-354.4 839,-373.4"/>
<text text-anchor="middle" x="771" y="-361.4" font-family="Helvetica,sans-Serif" font-size="10.00">mtgb::Time::DeltaTimeF</text>
</a>
</g>
</g>
<!-- Node2 -->
<g id="node2" class="node">
<title>Node2</title>
<g id="a_node2"><a xlink:href="classPatrolChargerEnemy.html#aac1a4d668a195db8df90baca6e91e34a" target="_top" xlink:title=" ">
<polygon fill="white" stroke="#666666" points="440,-710.9 324,-710.9 324,-680.9 440,-680.9 440,-710.9"/>
<text text-anchor="start" x="332" y="-698.9" font-family="Helvetica,sans-Serif" font-size="10.00">PatrolChargerEnemy</text>
<text text-anchor="middle" x="382" y="-687.9" font-family="Helvetica,sans-Serif" font-size="10.00">::Charge</text>
</a>
</g>
</g>
<!-- Node1&#45;&gt;Node2 -->
<g id="edge1" class="edge">
<title>Node1&#45;&gt;Node2</title>
<path fill="none" stroke="#63b8ff" d="M767.19,-383.46C757.17,-450.18 720.88,-666.82 667,-706.9 594.35,-760.93 479.93,-731.85 420.95,-711.04"/>
<polygon fill="#63b8ff" stroke="#63b8ff" points="770.67,-383.85 768.66,-373.45 763.74,-382.83 770.67,-383.85"/>
</g>
<!-- Node5 -->
<g id="node5" class="node">
<title>Node5</title>
<g id="a_node5"><a xlink:href="classmtgb_1_1ImGuiEditorCamera.html#aeba51d4deee4df973342639d9453e9c3" target="_top" xlink:title=" ">
<polygon fill="white" stroke="#666666" points="650.5,-697.9 506.5,-697.9 506.5,-667.9 650.5,-667.9 650.5,-697.9"/>
<text text-anchor="start" x="514.5" y="-685.9" font-family="Helvetica,sans-Serif" font-size="10.00">mtgb::ImGuiEditorCamera</text>
<text text-anchor="middle" x="578.5" y="-674.9" font-family="Helvetica,sans-Serif" font-size="10.00">::DoDolly</text>
</a>
</g>
</g>
<!-- Node1&#45;&gt;Node5 -->
<g id="edge4" class="edge">
<title>Node1&#45;&gt;Node5</title>
<path fill="none" stroke="#63b8ff" d="M769.16,-383.53C765.81,-436.27 749.18,-582.14 667,-658.9 662.17,-663.41 656.56,-667.09 650.57,-670.09"/>
<polygon fill="#63b8ff" stroke="#63b8ff" points="772.66,-383.67 769.7,-373.5 765.67,-383.29 772.66,-383.67"/>
</g>
<!-- Node7 -->
<g id="node7" class="node">
<title>Node7</title>
<g id="a_node7"><a xlink:href="classmtgb_1_1ICamera.html#a36054de92b591accc1dab2a1aa42e1de" target="_top" xlink:title=" ">
<polygon fill="white" stroke="#666666" points="645,-649.4 512,-649.4 512,-630.4 645,-630.4 645,-649.4"/>
<text text-anchor="middle" x="578.5" y="-637.4" font-family="Helvetica,sans-Serif" font-size="10.00">mtgb::ICamera::DoOrbit</text>
</a>
</g>
</g>
<!-- Node1&#45;&gt;Node7 -->
<g id="edge6" class="edge">
<title>Node1&#45;&gt;Node7</title>
<path fill="none" stroke="#63b8ff" d="M768.33,-383.59C763.08,-432.24 742.5,-558.7 667,-621.9 660.7,-627.17 653.25,-631.03 645.41,-633.84"/>
<polygon fill="#63b8ff" stroke="#63b8ff" points="771.83,-383.76 769.31,-373.47 764.86,-383.08 771.83,-383.76"/>
</g>
<!-- Node8 -->
<g id="node8" class="node">
<title>Node8</title>
<g id="a_node8"><a xlink:href="classmtgb_1_1Camera.html#a1e550faa0a97e2a0414c7f85f8b0b8f4" target="_top" xlink:title="被写体の周りを円を描くように回転させる">
<polygon fill="white" stroke="#666666" points="643.5,-612.4 513.5,-612.4 513.5,-593.4 643.5,-593.4 643.5,-612.4"/>
<text text-anchor="middle" x="578.5" y="-600.4" font-family="Helvetica,sans-Serif" font-size="10.00">mtgb::Camera::DoOrbit</text>
</a>
</g>
</g>
<!-- Node1&#45;&gt;Node8 -->
<g id="edge8" class="edge">
<title>Node1&#45;&gt;Node8</title>
<path fill="none" stroke="#63b8ff" d="M766.79,-383.57C758.62,-427 732.81,-531.39 667,-583.9 660.19,-589.32 652.18,-593.29 643.81,-596.17"/>
<polygon fill="#63b8ff" stroke="#63b8ff" points="770.24,-384.14 768.54,-373.68 763.35,-382.92 770.24,-384.14"/>
</g>
<!-- Node9 -->
<g id="node9" class="node">
<title>Node9</title>
<g id="a_node9"><a xlink:href="classmtgb_1_1ImGuiEditorCamera.html#aca708eb8cb25acbe97e23559986c0221" target="_top" xlink:title=" ">
<polygon fill="white" stroke="#666666" points="650.5,-574.9 506.5,-574.9 506.5,-544.9 650.5,-544.9 650.5,-574.9"/>
<text text-anchor="start" x="514.5" y="-562.9" font-family="Helvetica,sans-Serif" font-size="10.00">mtgb::ImGuiEditorCamera</text>
<text text-anchor="middle" x="578.5" y="-551.9" font-family="Helvetica,sans-Serif" font-size="10.00">::DoPan</text>
</a>
</g>
</g>
<!-- Node1&#45;&gt;Node9 -->
<g id="edge9" class="edge">
<title>Node1&#45;&gt;Node9</title>
<path fill="none" stroke="#63b8ff" d="M763.91,-383.12C751.59,-418.84 720.26,-495.45 667,-535.9 661.98,-539.71 656.4,-542.91 650.54,-545.61"/>
<polygon fill="#63b8ff" stroke="#63b8ff" points="767.3,-384.03 767.13,-373.44 760.65,-381.82 767.3,-384.03"/>
</g>
<!-- Node10 -->
<g id="node10" class="node">
<title>Node10</title>
<g id="a_node10"><a xlink:href="classmtgb_1_1ImGuiEditorCamera.html#aa90ccf988aea53027161e8d9d553bc74" target="_top" xlink:title=" ">
<polygon fill="white" stroke="#666666" points="650.5,-526.9 506.5,-526.9 506.5,-496.9 650.5,-496.9 650.5,-526.9"/>
<text text-anchor="start" x="514.5" y="-514.9" font-family="Helvetica,sans-Serif" font-size="10.00">mtgb::ImGuiEditorCamera</text>
<text text-anchor="middle" x="578.5" y="-503.9" font-family="Helvetica,sans-Serif" font-size="10.00">::DoTrack</text>
</a>
</g>
</g>
<!-- Node1&#45;&gt;Node10 -->
<g id="edge11" class="edge">
<title>Node1&#45;&gt;Node10</title>
<path fill="none" stroke="#63b8ff" d="M759.57,-382.61C743.36,-409.94 709.52,-460.48 667,-487.9 661.7,-491.31 655.93,-494.24 649.95,-496.76"/>
<polygon fill="#63b8ff" stroke="#63b8ff" points="762.75,-384.09 764.72,-373.68 756.69,-380.59 762.75,-384.09"/>
</g>
<!-- Node11 -->
<g id="node11" class="node">
<title>Node11</title>
<g id="a_node11"><a xlink:href="classmtgb_1_1PlaneUVScroll.html#a2289c282c6d1d1d3af65ce0dc61c7146" target="_top" xlink:title=" ">
<polygon fill="white" stroke="#666666" points="636.5,-478.9 520.5,-478.9 520.5,-448.9 636.5,-448.9 636.5,-478.9"/>
<text text-anchor="start" x="528.5" y="-466.9" font-family="Helvetica,sans-Serif" font-size="10.00">mtgb::PlaneUVScroll</text>
<text text-anchor="middle" x="578.5" y="-455.9" font-family="Helvetica,sans-Serif" font-size="10.00">::Draw</text>
</a>
</g>
</g>
<!-- Node1&#45;&gt;Node11 -->
<g id="edge13" class="edge">
<title>Node1&#45;&gt;Node11</title>
<path fill="none" stroke="#63b8ff" d="M750.31,-380C730.33,-395.72 698,-419.47 667,-434.9 656.4,-440.17 644.61,-444.82 633.22,-448.76"/>
<polygon fill="#63b8ff" stroke="#63b8ff" points="752.7,-382.58 758.33,-373.6 748.33,-377.11 752.7,-382.58"/>
</g>
<!-- Node12 -->
<g id="node12" class="node">
<title>Node12</title>
<g id="a_node12"><a xlink:href="classPatrolChargerEnemy.html#ab4594441183b6f1b99289908fba4f7eb" target="_top" xlink:title=" ">
<polygon fill="white" stroke="#666666" points="440,-401.9 324,-401.9 324,-371.9 440,-371.9 440,-401.9"/>
<text text-anchor="start" x="332" y="-389.9" font-family="Helvetica,sans-Serif" font-size="10.00">PatrolChargerEnemy</text>
<text text-anchor="middle" x="382" y="-378.9" font-family="Helvetica,sans-Serif" font-size="10.00">::ReturnToPatrol</text>
</a>
</g>
</g>
<!-- Node1&#45;&gt;Node12 -->
<g id="edge14" class="edge">
<title>Node1&#45;&gt;Node12</title>
<path fill="none" stroke="#63b8ff" d="M741.18,-377.66C720.95,-386.53 692.96,-397.26 667,-401.9 589.23,-415.78 497.74,-406.45 440.05,-397.5"/>
<polygon fill="#63b8ff" stroke="#63b8ff" points="742.77,-380.78 750.45,-373.48 739.9,-374.4 742.77,-380.78"/>
</g>
<!-- Node13 -->
<g id="node13" class="node">
<title>Node13</title>
<g id="a_node13"><a xlink:href="namespacemtgb_1_1Mathf.html#a3016014551ebf040b15a2a51fefbf626" target="_top" xlink:title="射撃予測">
<polygon fill="white" stroke="#666666" points="661.5,-392.4 495.5,-392.4 495.5,-373.4 661.5,-373.4 661.5,-392.4"/>
<text text-anchor="middle" x="578.5" y="-380.4" font-family="Helvetica,sans-Serif" font-size="10.00">mtgb::Mathf::TargetingPosition</text>
</a>
</g>
</g>
<!-- Node1&#45;&gt;Node13 -->
<g id="edge16" class="edge">
<title>Node1&#45;&gt;Node13</title>
<path fill="none" stroke="#63b8ff" d="M692.74,-371.6C682.54,-372.62 672.04,-373.67 661.75,-374.69"/>
<polygon fill="#63b8ff" stroke="#63b8ff" points="693.23,-375.07 702.84,-370.59 692.54,-368.1 693.23,-375.07"/>
</g>
<!-- Node14 -->
<g id="node14" class="node">
<title>Node14</title>
<g id="a_node14"><a xlink:href="classmtgb_1_1Audio.html#ad96a64c0eba4aab70cf1813a6cf61d66" target="_top" xlink:title=" ">
<polygon fill="white" stroke="#666666" points="637,-355.4 520,-355.4 520,-336.4 637,-336.4 637,-355.4"/>
<text text-anchor="middle" x="578.5" y="-343.4" font-family="Helvetica,sans-Serif" font-size="10.00">mtgb::Audio::Update</text>
</a>
</g>
</g>
<!-- Node1&#45;&gt;Node14 -->
<g id="edge17" class="edge">
<title>Node1&#45;&gt;Node14</title>
<path fill="none" stroke="#63b8ff" d="M692.66,-356.59C674.14,-354.84 654.67,-353 637.21,-351.35"/>
<polygon fill="#63b8ff" stroke="#63b8ff" points="692.55,-360.09 702.84,-357.55 693.21,-353.12 692.55,-360.09"/>
</g>
<!-- Node15 -->
<g id="node15" class="node">
<title>Node15</title>
<g id="a_node15"><a xlink:href="classTimeLimit.html#a60b9274e1bbe213b267419fe63cd9c0e" target="_top" xlink:title=" ">
<polygon fill="white" stroke="#666666" points="632,-318.4 525,-318.4 525,-299.4 632,-299.4 632,-318.4"/>
<text text-anchor="middle" x="578.5" y="-306.4" font-family="Helvetica,sans-Serif" font-size="10.00">TimeLimit::Update</text>
</a>
</g>
</g>
<!-- Node1&#45;&gt;Node15 -->
<g id="edge18" class="edge">
<title>Node1&#45;&gt;Node15</title>
<path fill="none" stroke="#63b8ff" d="M735.75,-350.74C715.87,-343.4 690.24,-334.45 667,-327.9 654.58,-324.39 641.02,-321.16 628.36,-318.4"/>
<polygon fill="#63b8ff" stroke="#63b8ff" points="734.7,-354.09 745.3,-354.3 737.15,-347.53 734.7,-354.09"/>
</g>
<!-- Node16 -->
<g id="node16" class="node">
<title>Node16</title>
<g id="a_node16"><a xlink:href="classmtgb_1_1Timer.html#af7202a0d9281160408b01a963af5edc3" target="_top" xlink:title=" ">
<polygon fill="white" stroke="#666666" points="637.5,-281.4 519.5,-281.4 519.5,-262.4 637.5,-262.4 637.5,-281.4"/>
<text text-anchor="middle" x="578.5" y="-269.4" font-family="Helvetica,sans-Serif" font-size="10.00">mtgb::Timer::Update</text>
</a>
</g>
</g>
<!-- Node1&#45;&gt;Node16 -->
<g id="edge19" class="edge">
<title>Node1&#45;&gt;Node16</title>
<path fill="none" stroke="#63b8ff" d="M751.69,-347.4C732.12,-330.65 699.49,-305.22 667,-290.9 657.75,-286.82 647.56,-283.59 637.5,-281.04"/>
<polygon fill="#63b8ff" stroke="#63b8ff" points="749.64,-350.26 759.48,-354.19 754.24,-344.98 749.64,-350.26"/>
</g>
<!-- Node17 -->
<g id="node17" class="node">
<title>Node17</title>
<g id="a_node17"><a xlink:href="classmtgb_1_1Saw.html#a9f2e0775acdb086c47925f07e9c0ab65" target="_top" xlink:title=" ">
<polygon fill="white" stroke="#666666" points="633,-244.4 524,-244.4 524,-225.4 633,-225.4 633,-244.4"/>
<text text-anchor="middle" x="578.5" y="-232.4" font-family="Helvetica,sans-Serif" font-size="10.00">mtgb::Saw::Update</text>
</a>
</g>
</g>
<!-- Node1&#45;&gt;Node17 -->
<g id="edge20" class="edge">
<title>Node1&#45;&gt;Node17</title>
<path fill="none" stroke="#63b8ff" d="M758.56,-345.75C741.73,-320.67 707.83,-275.88 667,-252.9 656.73,-247.11 644.85,-243.18 633.21,-240.5"/>
<polygon fill="#63b8ff" stroke="#63b8ff" points="755.76,-347.86 764.16,-354.32 761.62,-344.03 755.76,-347.86"/>
</g>
<!-- Node18 -->
<g id="node18" class="node">
<title>Node18</title>
<g id="a_node18"><a xlink:href="classmtgb_1_1CircularSaw.html#aff174a045211f2c2c2733af32546e3db" target="_top" xlink:title=" ">
<polygon fill="white" stroke="#666666" points="634,-206.9 523,-206.9 523,-176.9 634,-176.9 634,-206.9"/>
<text text-anchor="start" x="531" y="-194.9" font-family="Helvetica,sans-Serif" font-size="10.00">mtgb::CircularSaw::</text>
<text text-anchor="middle" x="578.5" y="-183.9" font-family="Helvetica,sans-Serif" font-size="10.00">Update</text>
</a>
</g>
</g>
<!-- Node1&#45;&gt;Node18 -->
<g id="edge21" class="edge">
<title>Node1&#45;&gt;Node18</title>
<path fill="none" stroke="#63b8ff" d="M761.98,-344.74C747.69,-312.99 714.77,-249.66 667,-215.9 657.35,-209.08 645.85,-204.19 634.4,-200.7"/>
<polygon fill="#63b8ff" stroke="#63b8ff" points="758.9,-346.43 766.1,-354.2 765.31,-343.64 758.9,-346.43"/>
</g>
<!-- Node19 -->
<g id="node19" class="node">
<title>Node19</title>
<g id="a_node19"><a xlink:href="classmtgb_1_1SkySphere.html#a6b2466055d919ce9a84fe1f2d9df596e" target="_top" xlink:title=" ">
<polygon fill="white" stroke="#666666" points="648.5,-158.4 508.5,-158.4 508.5,-139.4 648.5,-139.4 648.5,-158.4"/>
<text text-anchor="middle" x="578.5" y="-146.4" font-family="Helvetica,sans-Serif" font-size="10.00">mtgb::SkySphere::Update</text>
</a>
</g>
</g>
<!-- Node1&#45;&gt;Node19 -->
<g id="edge22" class="edge">
<title>Node1&#45;&gt;Node19</title>
<path fill="none" stroke="#63b8ff" d="M765.64,-344.48C755.64,-304.66 727.12,-213.64 667,-167.9 661.56,-163.75 655.4,-160.47 648.93,-157.88"/>
<polygon fill="#63b8ff" stroke="#63b8ff" points="762.25,-345.36 767.98,-354.27 769.06,-343.73 762.25,-345.36"/>
</g>
<!-- Node20 -->
<g id="node20" class="node">
<title>Node20</title>
<g id="a_node20"><a xlink:href="classmtgb_1_1Interpolator.html#aa48383060f1a0c4bc19b1291b6d57d4b" target="_top" xlink:title="補間の進行状況を更新する 経過時間を進め、端まで到達した場合は移動方向を反転する">
<polygon fill="white" stroke="#666666" points="631,-120.9 526,-120.9 526,-90.9 631,-90.9 631,-120.9"/>
<text text-anchor="start" x="534" y="-108.9" font-family="Helvetica,sans-Serif" font-size="10.00">mtgb::Interpolator</text>
<text text-anchor="middle" x="578.5" y="-97.9" font-family="Helvetica,sans-Serif" font-size="10.00">::UpdateProgress</text>
</a>
</g>
</g>
<!-- Node1&#45;&gt;Node20 -->
<g id="edge23" class="edge">
<title>Node1&#45;&gt;Node20</title>
<path fill="none" stroke="#63b8ff" d="M767.13,-344.18C759.51,-299.16 734.54,-188.17 667,-129.9 656.98,-121.25 644.12,-115.7 631.35,-112.13"/>
<polygon fill="#63b8ff" stroke="#63b8ff" points="763.69,-344.81 768.71,-354.14 770.6,-343.71 763.69,-344.81"/>
</g>
<!-- Node23 -->
<g id="node23" class="node">
<title>Node23</title>
<g id="a_node23"><a xlink:href="classmtgb_1_1RigidBody.html#a4ae90b81205022f5551239ba5029262f" target="_top" xlink:title=" ">
<polygon fill="white" stroke="#666666" points="667,-72.4 490,-72.4 490,-53.4 667,-53.4 667,-72.4"/>
<text text-anchor="middle" x="578.5" y="-60.4" font-family="Helvetica,sans-Serif" font-size="10.00">mtgb::RigidBody::UpdateVelocity</text>
</a>
</g>
</g>
<!-- Node1&#45;&gt;Node23 -->
<g id="edge27" class="edge">
<title>Node1&#45;&gt;Node23</title>
<path fill="none" stroke="#63b8ff" d="M769.03,-344.2C765.37,-292.59 748.07,-152.6 667,-81.9 662.67,-78.11 657.76,-75.03 652.53,-72.52"/>
<polygon fill="#63b8ff" stroke="#63b8ff" points="765.54,-344.55 769.65,-354.32 772.53,-344.12 765.54,-344.55"/>
</g>
<!-- Node25 -->
<g id="node25" class="node">
<title>Node25</title>
<g id="a_node25"><a xlink:href="classPatrolChargerEnemy.html#a7af8a1d24439f3fc5a4e90c21ec9f51e" target="_top" xlink:title=" ">
<polygon fill="white" stroke="#666666" points="440,-32.9 324,-32.9 324,-2.9 440,-2.9 440,-32.9"/>
<text text-anchor="start" x="332" y="-20.9" font-family="Helvetica,sans-Serif" font-size="10.00">PatrolChargerEnemy</text>
<text text-anchor="middle" x="382" y="-9.9" font-family="Helvetica,sans-Serif" font-size="10.00">::Wait</text>
</a>
</g>
</g>
<!-- Node1&#45;&gt;Node25 -->
<g id="edge29" class="edge">
<title>Node1&#45;&gt;Node25</title>
<path fill="none" stroke="#63b8ff" d="M770.48,-344.06C770.69,-286.81 762.67,-120.53 667,-43.9 602.95,7.41 502.78,3.18 440.12,-6.18"/>
<polygon fill="#63b8ff" stroke="#63b8ff" points="766.98,-344.23 770.35,-354.27 773.98,-344.32 766.98,-344.23"/>
</g>
<!-- Node3 -->
<g id="node3" class="node">
<title>Node3</title>
<g id="a_node3"><a xlink:href="classPatrolChargerEnemy.html#a79033149c975f639be25c6692426541e" target="_top" xlink:title=" ">
<polygon fill="white" stroke="#666666" points="274,-367.9 158,-367.9 158,-337.9 274,-337.9 274,-367.9"/>
<text text-anchor="start" x="166" y="-355.9" font-family="Helvetica,sans-Serif" font-size="10.00">PatrolChargerEnemy</text>
<text text-anchor="middle" x="216" y="-344.9" font-family="Helvetica,sans-Serif" font-size="10.00">::InitializeState</text>
</a>
</g>
</g>
<!-- Node2&#45;&gt;Node3 -->
<g id="edge2" class="edge">
<title>Node2&#45;&gt;Node3</title>
<path fill="none" stroke="#63b8ff" d="M357.85,-673.51C342.59,-657.72 323.08,-635.45 310,-612.9 260.09,-526.85 229.99,-409.47 220.38,-368.09"/>
<polygon fill="#63b8ff" stroke="#63b8ff" points="355.44,-676.04 364.96,-680.71 360.43,-671.13 355.44,-676.04"/>
</g>
<!-- Node4 -->
<g id="node4" class="node">
<title>Node4</title>
<g id="a_node4"><a xlink:href="classPatrolChargerEnemy.html#a0aa45f3f6c7ea3dd5d4b1e6f832eae7d" target="_top" xlink:title=" ">
<polygon fill="white" stroke="#666666" points="122,-367.9 0,-367.9 0,-337.9 122,-337.9 122,-367.9"/>
<text text-anchor="start" x="8" y="-355.9" font-family="Helvetica,sans-Serif" font-size="10.00">PatrolChargerEnemy</text>
<text text-anchor="middle" x="61" y="-344.9" font-family="Helvetica,sans-Serif" font-size="10.00">::PatrolChargerEnemy</text>
</a>
</g>
</g>
<!-- Node3&#45;&gt;Node4 -->
<g id="edge3" class="edge">
<title>Node3&#45;&gt;Node4</title>
<path fill="none" stroke="#63b8ff" d="M147.39,-352.9C138.94,-352.9 130.35,-352.9 122.03,-352.9"/>
<polygon fill="#63b8ff" stroke="#63b8ff" points="147.59,-356.4 157.59,-352.9 147.59,-349.4 147.59,-356.4"/>
</g>
<!-- Node6 -->
<g id="node6" class="node">
<title>Node6</title>
<g id="a_node6"><a xlink:href="classmtgb_1_1ImGuiEditorCamera.html#ae593d5e8b81e1fe8d6efc3ddb8ecb9a2" target="_top" xlink:title=" ">
<polygon fill="white" stroke="#666666" points="454,-603.9 310,-603.9 310,-573.9 454,-573.9 454,-603.9"/>
<text text-anchor="start" x="318" y="-591.9" font-family="Helvetica,sans-Serif" font-size="10.00">mtgb::ImGuiEditorCamera</text>
<text text-anchor="middle" x="382" y="-580.9" font-family="Helvetica,sans-Serif" font-size="10.00">::ImGuiEditorCamera</text>
</a>
</g>
</g>
<!-- Node5&#45;&gt;Node6 -->
<g id="edge5" class="edge">
<title>Node5&#45;&gt;Node6</title>
<path fill="none" stroke="#63b8ff" d="M503.8,-664.5C499.07,-662.76 494.43,-660.89 490,-658.9 457.01,-644.03 422.65,-619.71 402.04,-604.01"/>
<polygon fill="#63b8ff" stroke="#63b8ff" points="502.99,-667.92 513.59,-667.88 505.28,-661.3 502.99,-667.92"/>
</g>
<!-- Node7&#45;&gt;Node6 -->
<g id="edge7" class="edge">
<title>Node7&#45;&gt;Node6</title>
<path fill="none" stroke="#63b8ff" d="M517.08,-628.26C507.97,-626.28 498.72,-624.13 490,-621.9 469.57,-616.66 447.24,-609.93 428.28,-603.92"/>
<polygon fill="#63b8ff" stroke="#63b8ff" points="516.37,-631.69 526.88,-630.34 517.82,-624.84 516.37,-631.69"/>
</g>
<!-- Node9&#45;&gt;Node6 -->
<g id="edge10" class="edge">
<title>Node9&#45;&gt;Node6</title>
<path fill="none" stroke="#63b8ff" d="M496.36,-571.99C482.35,-574.08 467.89,-576.24 454.18,-578.28"/>
<polygon fill="#63b8ff" stroke="#63b8ff" points="497.08,-575.42 506.46,-570.49 496.05,-568.5 497.08,-575.42"/>
</g>
<!-- Node10&#45;&gt;Node6 -->
<g id="edge12" class="edge">
<title>Node10&#45;&gt;Node6</title>
<path fill="none" stroke="#63b8ff" d="M506.99,-529.96C501.2,-531.83 495.47,-533.81 490,-535.9 461.91,-546.59 431.31,-562.17 410.06,-573.68"/>
<polygon fill="#63b8ff" stroke="#63b8ff" points="508.25,-533.23 516.76,-526.92 506.17,-526.55 508.25,-533.23"/>
</g>
<!-- Node12&#45;&gt;Node3 -->
<g id="edge15" class="edge">
<title>Node12&#45;&gt;Node3</title>
<path fill="none" stroke="#63b8ff" d="M313.7,-372.94C300.53,-370.21 286.84,-367.37 274.05,-364.72"/>
<polygon fill="#63b8ff" stroke="#63b8ff" points="313.14,-376.4 323.64,-375 314.56,-369.55 313.14,-376.4"/>
</g>
<!-- Node21 -->
<g id="node21" class="node">
<title>Node21</title>
<g id="a_node21"><a xlink:href="classPatrolChargerEnemy.html#adfe79074fb34615599e8132528572e42" target="_top" xlink:title=" ">
<polygon fill="white" stroke="#666666" points="440,-233.9 324,-233.9 324,-203.9 440,-203.9 440,-233.9"/>
<text text-anchor="start" x="332" y="-221.9" font-family="Helvetica,sans-Serif" font-size="10.00">PatrolChargerEnemy</text>
<text text-anchor="middle" x="382" y="-210.9" font-family="Helvetica,sans-Serif" font-size="10.00">::Patrol</text>
</a>
</g>
</g>
<!-- Node20&#45;&gt;Node21 -->
<g id="edge24" class="edge">
<title>Node20&#45;&gt;Node21</title>
<path fill="none" stroke="#63b8ff" d="M515.98,-119.17C507.03,-122.13 498.1,-125.67 490,-129.9 452.51,-149.45 416.27,-183.86 397.1,-203.68"/>
<polygon fill="#63b8ff" stroke="#63b8ff" points="517.15,-122.48 525.68,-116.2 515.09,-115.79 517.15,-122.48"/>
</g>
<!-- Node22 -->
<g id="node22" class="node">
<title>Node22</title>
<g id="a_node22"><a xlink:href="classMovingFloor.html#a14ccd16b5bbd6804940fb69650bcc42f" target="_top" xlink:title=" ">
<polygon fill="white" stroke="#666666" points="441.5,-118.4 322.5,-118.4 322.5,-99.4 441.5,-99.4 441.5,-118.4"/>
<text text-anchor="middle" x="382" y="-106.4" font-family="Helvetica,sans-Serif" font-size="10.00">MovingFloor::Update</text>
</a>
</g>
</g>
<!-- Node20&#45;&gt;Node22 -->
<g id="edge26" class="edge">
<title>Node20&#45;&gt;Node22</title>
<path fill="none" stroke="#63b8ff" d="M515.62,-106.85C491.97,-107.21 465.08,-107.63 441.73,-107.99"/>
<polygon fill="#63b8ff" stroke="#63b8ff" points="515.94,-110.35 525.89,-106.69 515.84,-103.35 515.94,-110.35"/>
</g>
<!-- Node21&#45;&gt;Node3 -->
<g id="edge25" class="edge">
<title>Node21&#45;&gt;Node3</title>
<path fill="none" stroke="#63b8ff" d="M354.56,-240.49C321.25,-267.72 264.83,-313.81 235.68,-337.63"/>
<polygon fill="#63b8ff" stroke="#63b8ff" points="356.98,-243.04 362.51,-234.01 352.55,-237.62 356.98,-243.04"/>
</g>
<!-- Node24 -->
<g id="node24" class="node">
<title>Node24</title>
<g id="a_node24"><a xlink:href="classmtgb_1_1RigidBodyCP.html#ab3052d653b853508f6ac92d1de8d5798" target="_top" xlink:title=" ">
<polygon fill="white" stroke="#666666" points="440,-80.9 324,-80.9 324,-50.9 440,-50.9 440,-80.9"/>
<text text-anchor="start" x="332" y="-68.9" font-family="Helvetica,sans-Serif" font-size="10.00">mtgb::RigidBodyCP::</text>
<text text-anchor="middle" x="382" y="-57.9" font-family="Helvetica,sans-Serif" font-size="10.00">Update</text>
</a>
</g>
</g>
<!-- Node23&#45;&gt;Node24 -->
<g id="edge28" class="edge">
<title>Node23&#45;&gt;Node24</title>
<path fill="none" stroke="#63b8ff" d="M479.57,-64.41C466.01,-64.61 452.47,-64.82 440,-65.02"/>
<polygon fill="#63b8ff" stroke="#63b8ff" points="479.98,-67.9 489.92,-64.25 479.87,-60.9 479.98,-67.9"/>
</g>
<!-- Node25&#45;&gt;Node3 -->
<g id="edge30" class="edge">
<title>Node25&#45;&gt;Node3</title>
<path fill="none" stroke="#63b8ff" d="M315.18,-37.22C313.35,-38.67 311.62,-40.22 310,-41.9 226.05,-128.87 217.49,-288.44 216.92,-337.88"/>
<polygon fill="#63b8ff" stroke="#63b8ff" points="317.35,-39.98 323.75,-31.54 313.48,-34.14 317.35,-39.98"/>
</g>
</g>
</svg>
