<?xml version="1.0" encoding="UTF-8" standalone="no"?>
<!DOCTYPE svg PUBLIC "-//W3C//DTD SVG 1.1//EN"
 "http://www.w3.org/Graphics/SVG/1.1/DTD/svg11.dtd">
<!-- Generated by graphviz version 2.43.0 (0)
 -->
<!-- Title: mtgb::DirectX11Draw::SetIsWriteToDepthBuffer Pages: 1 -->
<svg width="348pt" height="335pt"
 viewBox="0.00 0.00 348.00 335.00" xmlns="http://www.w3.org/2000/svg" xmlns:xlink="http://www.w3.org/1999/xlink">
<g id="graph0" class="graph" transform="scale(1 1) rotate(0) translate(4 331)">
<title>mtgb::DirectX11Draw::SetIsWriteToDepthBuffer</title>
<!-- Node1 -->
<g id="node1" class="node">
<title>Node1</title>
<g id="a_node1"><a xlink:title="深度バッファへの書き込みをするか">
<polygon fill="#999999" stroke="#666666" points="340,-184.5 198,-184.5 198,-154.5 340,-154.5 340,-184.5"/>
<text text-anchor="start" x="206" y="-172.5" font-family="Helvetica,sans-Serif" font-size="10.00">mtgb::DirectX11Draw</text>
<text text-anchor="middle" x="269" y="-161.5" font-family="Helvetica,sans-Serif" font-size="10.00">::SetIsWriteToDepthBuffer</text>
</a>
</g>
</g>
<!-- Node2 -->
<g id="node2" class="node">
<title>Node2</title>
<g id="a_node2"><a xlink:href="classmtgb_1_1Sprite.html#addba33ef9f14dc11eb2a218f5143732d" target="_top" xlink:title="Spriteを描画する">
<polygon fill="white" stroke="#666666" points="135,-327 27,-327 27,-308 135,-308 135,-327"/>
<text text-anchor="middle" x="81" y="-315" font-family="Helvetica,sans-Serif" font-size="10.00">mtgb::Sprite::Draw</text>
</a>
</g>
</g>
<!-- Node1&#45;&gt;Node2 -->
<g id="edge1" class="edge">
<title>Node1&#45;&gt;Node2</title>
<path fill="none" stroke="#63b8ff" d="M255.11,-193.61C237.94,-223.32 204.68,-273.09 162,-299.5 153.89,-304.52 144.54,-308.14 135.17,-310.76"/>
<polygon fill="#63b8ff" stroke="#63b8ff" points="258.26,-195.16 260.12,-184.73 252.16,-191.72 258.26,-195.16"/>
</g>
<!-- Node3 -->
<g id="node3" class="node">
<title>Node3</title>
<g id="a_node3"><a xlink:href="classmtgb_1_1Figure.html#a5f07d275fc8d986e4ba068d460989448" target="_top" xlink:title=" ">
<polygon fill="white" stroke="#666666" points="136,-290 26,-290 26,-271 136,-271 136,-290"/>
<text text-anchor="middle" x="81" y="-278" font-family="Helvetica,sans-Serif" font-size="10.00">mtgb::Figure::Draw</text>
</a>
</g>
</g>
<!-- Node1&#45;&gt;Node3 -->
<g id="edge2" class="edge">
<title>Node1&#45;&gt;Node3</title>
<path fill="none" stroke="#63b8ff" d="M248.39,-192.31C228.7,-213.71 196.44,-244.97 162,-262.5 154.01,-266.57 145.1,-269.72 136.22,-272.17"/>
<polygon fill="#63b8ff" stroke="#63b8ff" points="251.2,-194.41 255.29,-184.64 246,-189.73 251.2,-194.41"/>
</g>
<!-- Node4 -->
<g id="node4" class="node">
<title>Node4</title>
<g id="a_node4"><a xlink:href="classmtgb_1_1FbxParts.html#a1713fb4aa315c4474adb28c852d7b7c5" target="_top" xlink:title="モデルを描画する">
<polygon fill="white" stroke="#666666" points="142,-253 20,-253 20,-234 142,-234 142,-253"/>
<text text-anchor="middle" x="81" y="-241" font-family="Helvetica,sans-Serif" font-size="10.00">mtgb::FbxParts::Draw</text>
</a>
</g>
</g>
<!-- Node1&#45;&gt;Node4 -->
<g id="edge3" class="edge">
<title>Node1&#45;&gt;Node4</title>
<path fill="none" stroke="#63b8ff" d="M235.13,-189.78C214.71,-201.63 187.57,-216.06 162,-225.5 153.05,-228.8 143.31,-231.61 133.8,-233.96"/>
<polygon fill="#63b8ff" stroke="#63b8ff" points="237.17,-192.64 244.01,-184.54 233.62,-186.61 237.17,-192.64"/>
</g>
<!-- Node5 -->
<g id="node5" class="node">
<title>Node5</title>
<g id="a_node5"><a xlink:href="classmtgb_1_1OBJ.html#a4ead5c07e474e987e85eb4cfcb351d7a" target="_top" xlink:title=" ">
<polygon fill="white" stroke="#666666" points="129.5,-216 32.5,-216 32.5,-197 129.5,-197 129.5,-216"/>
<text text-anchor="middle" x="81" y="-204" font-family="Helvetica,sans-Serif" font-size="10.00">mtgb::OBJ::Draw</text>
</a>
</g>
</g>
<!-- Node1&#45;&gt;Node5 -->
<g id="edge4" class="edge">
<title>Node1&#45;&gt;Node5</title>
<path fill="none" stroke="#63b8ff" d="M187.97,-185.42C168.13,-189.37 147.48,-193.48 129.73,-197"/>
<polygon fill="#63b8ff" stroke="#63b8ff" points="188.82,-188.82 197.95,-183.44 187.46,-181.95 188.82,-188.82"/>
</g>
<!-- Node6 -->
<g id="node6" class="node">
<title>Node6</title>
<g id="a_node6"><a xlink:href="classmtgb_1_1Draw.html#aac17b22c6296bca518da934e0efd7b42" target="_top" xlink:title=" ">
<polygon fill="white" stroke="#666666" points="151.5,-179 10.5,-179 10.5,-160 151.5,-160 151.5,-179"/>
<text text-anchor="middle" x="81" y="-167" font-family="Helvetica,sans-Serif" font-size="10.00">mtgb::Draw::GroundPlane</text>
</a>
</g>
</g>
<!-- Node1&#45;&gt;Node6 -->
<g id="edge5" class="edge">
<title>Node1&#45;&gt;Node6</title>
<path fill="none" stroke="#63b8ff" d="M187.91,-169.5C175.85,-169.5 163.5,-169.5 151.68,-169.5"/>
<polygon fill="#63b8ff" stroke="#63b8ff" points="187.95,-173 197.95,-169.5 187.95,-166 187.95,-173"/>
</g>
<!-- Node7 -->
<g id="node7" class="node">
<title>Node7</title>
<g id="a_node7"><a xlink:href="classmtgb_1_1Draw.html#a924ac060cf4fa21fbec4cdcd87b0af26" target="_top" xlink:title=" ">
<polygon fill="white" stroke="#666666" points="157,-142 5,-142 5,-123 157,-123 157,-142"/>
<text text-anchor="middle" x="81" y="-130" font-family="Helvetica,sans-Serif" font-size="10.00">mtgb::Draw::ImmediateText</text>
</a>
</g>
</g>
<!-- Node1&#45;&gt;Node7 -->
<g id="edge6" class="edge">
<title>Node1&#45;&gt;Node7</title>
<path fill="none" stroke="#63b8ff" d="M188.02,-153.59C168.26,-149.66 147.71,-145.57 130.01,-142.05"/>
<polygon fill="#63b8ff" stroke="#63b8ff" points="187.46,-157.05 197.95,-155.56 188.82,-150.18 187.46,-157.05"/>
</g>
<!-- Node8 -->
<g id="node8" class="node">
<title>Node8</title>
<g id="a_node8"><a xlink:href="classmtgb_1_1Draw.html#ad82ee2710f7acb4e6583d51fddd4f557" target="_top" xlink:title=" ">
<polygon fill="white" stroke="#666666" points="162,-105 0,-105 0,-86 162,-86 162,-105"/>
<text text-anchor="middle" x="81" y="-93" font-family="Helvetica,sans-Serif" font-size="10.00">mtgb::Draw::ImmediateTextW</text>
</a>
</g>
</g>
<!-- Node1&#45;&gt;Node8 -->
<g id="edge7" class="edge">
<title>Node1&#45;&gt;Node8</title>
<path fill="none" stroke="#63b8ff" d="M234.23,-149.26C213.88,-137.76 187.11,-123.83 162,-114.5 152.1,-110.82 141.24,-107.68 130.8,-105.07"/>
<polygon fill="#63b8ff" stroke="#63b8ff" points="232.69,-152.41 243.1,-154.35 236.17,-146.34 232.69,-152.41"/>
</g>
<!-- Node9 -->
<g id="node9" class="node">
<title>Node9</title>
<g id="a_node9"><a xlink:href="classmtgb_1_1TerrainReader.html#af83680f408b54e315344688484bce287" target="_top" xlink:title=" ">
<polygon fill="white" stroke="#666666" points="139,-67.5 23,-67.5 23,-37.5 139,-37.5 139,-67.5"/>
<text text-anchor="start" x="31" y="-55.5" font-family="Helvetica,sans-Serif" font-size="10.00">mtgb::TerrainReader</text>
<text text-anchor="middle" x="81" y="-44.5" font-family="Helvetica,sans-Serif" font-size="10.00">::TestDraw</text>
</a>
</g>
</g>
<!-- Node1&#45;&gt;Node9 -->
<g id="edge8" class="edge">
<title>Node1&#45;&gt;Node9</title>
<path fill="none" stroke="#63b8ff" d="M247.33,-146.86C227.32,-126.16 195.21,-96.03 162,-77.5 154.88,-73.53 147.05,-70.1 139.16,-67.17"/>
<polygon fill="#63b8ff" stroke="#63b8ff" points="244.96,-149.44 254.39,-154.28 250.04,-144.62 244.96,-149.44"/>
</g>
<!-- Node10 -->
<g id="node10" class="node">
<title>Node10</title>
<g id="a_node10"><a xlink:href="classmtgb_1_1Draw.html#afd2da608b8ae2ab0d37ba37cc9d81e22" target="_top" xlink:title=" ">
<polygon fill="white" stroke="#666666" points="130.5,-19 31.5,-19 31.5,0 130.5,0 130.5,-19"/>
<text text-anchor="middle" x="81" y="-7" font-family="Helvetica,sans-Serif" font-size="10.00">mtgb::Draw::Text</text>
</a>
</g>
</g>
<!-- Node1&#45;&gt;Node10 -->
<g id="edge9" class="edge">
<title>Node1&#45;&gt;Node10</title>
<path fill="none" stroke="#63b8ff" d="M256.57,-145.34C240.22,-113.48 207.05,-57.99 162,-28.5 152.68,-22.4 141.62,-18.25 130.73,-15.44"/>
<polygon fill="#63b8ff" stroke="#63b8ff" points="253.51,-147.04 261.11,-154.42 259.77,-143.91 253.51,-147.04"/>
</g>
</g>
</svg>
