<?xml version="1.0" encoding="UTF-8" standalone="no"?>
<!DOCTYPE svg PUBLIC "-//W3C//DTD SVG 1.1//EN"
 "http://www.w3.org/Graphics/SVG/1.1/DTD/svg11.dtd">
<!-- Generated by graphviz version 2.43.0 (0)
 -->
<!-- Title: mtgb::FbxParts::Draw Pages: 1 -->
<svg width="314pt" height="134pt"
 viewBox="0.00 0.00 314.00 134.00" xmlns="http://www.w3.org/2000/svg" xmlns:xlink="http://www.w3.org/1999/xlink">
<g id="graph0" class="graph" transform="scale(1 1) rotate(0) translate(4 130)">
<title>mtgb::FbxParts::Draw</title>
<!-- Node1 -->
<g id="node1" class="node">
<title>Node1</title>
<g id="a_node1"><a xlink:title="モデルを描画する">
<polygon fill="#999999" stroke="#666666" points="122,-72.5 0,-72.5 0,-53.5 122,-53.5 122,-72.5"/>
<text text-anchor="middle" x="61" y="-60.5" font-family="Helvetica,sans-Serif" font-size="10.00">mtgb::FbxParts::Draw</text>
</a>
</g>
</g>
<!-- Node2 -->
<g id="node2" class="node">
<title>Node2</title>
<g id="a_node2"><a xlink:href="classmtgb_1_1Transform.html#a2c166b8c575ce4893f881836eee54bc1" target="_top" xlink:title="ワールド行列を生成する">
<polygon fill="white" stroke="#666666" points="306,-126 158,-126 158,-96 306,-96 306,-126"/>
<text text-anchor="start" x="166" y="-114" font-family="Helvetica,sans-Serif" font-size="10.00">mtgb::Transform::Generate</text>
<text text-anchor="middle" x="232" y="-103" font-family="Helvetica,sans-Serif" font-size="10.00">WorldMatrix</text>
</a>
</g>
</g>
<!-- Node1&#45;&gt;Node2 -->
<g id="edge1" class="edge">
<title>Node1&#45;&gt;Node2</title>
<path fill="none" stroke="#63b8ff" d="M95.79,-72.6C116.54,-78.49 143.76,-86.22 168.34,-93.2"/>
<polygon fill="#63b8ff" stroke="#63b8ff" points="167.39,-96.57 177.97,-95.94 169.3,-89.84 167.39,-96.57"/>
</g>
<!-- Node3 -->
<g id="node3" class="node">
<title>Node3</title>
<g id="a_node3"><a xlink:href="classmtgb_1_1DirectX11Draw.html#a80c3f65ad5458eebc5095d6520d85510" target="_top" xlink:title="深度バッファへの書き込みをするか">
<polygon fill="white" stroke="#666666" points="303,-78 161,-78 161,-48 303,-48 303,-78"/>
<text text-anchor="start" x="169" y="-66" font-family="Helvetica,sans-Serif" font-size="10.00">mtgb::DirectX11Draw</text>
<text text-anchor="middle" x="232" y="-55" font-family="Helvetica,sans-Serif" font-size="10.00">::SetIsWriteToDepthBuffer</text>
</a>
</g>
</g>
<!-- Node1&#45;&gt;Node3 -->
<g id="edge2" class="edge">
<title>Node1&#45;&gt;Node3</title>
<path fill="none" stroke="#63b8ff" d="M122.06,-63C131.35,-63 141.08,-63 150.73,-63"/>
<polygon fill="#63b8ff" stroke="#63b8ff" points="150.74,-66.5 160.74,-63 150.74,-59.5 150.74,-66.5"/>
</g>
<!-- Node4 -->
<g id="node4" class="node">
<title>Node4</title>
<g id="a_node4"><a xlink:href="classmtgb_1_1DirectX11Draw.html#af785597070f75b637902ae9adb60f735" target="_top" xlink:title="描画するシェーダをセットする">
<polygon fill="white" stroke="#666666" points="293,-30 171,-30 171,0 293,0 293,-30"/>
<text text-anchor="start" x="179" y="-18" font-family="Helvetica,sans-Serif" font-size="10.00">mtgb::DirectX11Draw</text>
<text text-anchor="middle" x="232" y="-7" font-family="Helvetica,sans-Serif" font-size="10.00">::SetShader</text>
</a>
</g>
</g>
<!-- Node1&#45;&gt;Node4 -->
<g id="edge3" class="edge">
<title>Node1&#45;&gt;Node4</title>
<path fill="none" stroke="#63b8ff" d="M95.79,-53.4C116.54,-47.51 143.76,-39.78 168.34,-32.8"/>
<polygon fill="#63b8ff" stroke="#63b8ff" points="169.3,-36.16 177.97,-30.06 167.39,-29.43 169.3,-36.16"/>
</g>
</g>
</svg>
