<?xml version="1.0" encoding="UTF-8" standalone="no"?>
<!DOCTYPE svg PUBLIC "-//W3C//DTD SVG 1.1//EN"
 "http://www.w3.org/Graphics/SVG/1.1/DTD/svg11.dtd">
<!-- Generated by graphviz version 2.43.0 (0)
 -->
<!-- Title: mtgb::GameObjectGenerator::Initialize Pages: 1 -->
<svg width="758pt" height="124pt"
 viewBox="0.00 0.00 758.00 123.50" xmlns="http://www.w3.org/2000/svg" xmlns:xlink="http://www.w3.org/1999/xlink">
<g id="graph0" class="graph" transform="scale(1 1) rotate(0) translate(4 119.5)">
<title>mtgb::GameObjectGenerator::Initialize</title>
<!-- Node1 -->
<g id="node1" class="node">
<title>Node1</title>
<g id="a_node1"><a xlink:title=" ">
<polygon fill="#999999" stroke="#666666" points="158,-67.5 0,-67.5 0,-37.5 158,-37.5 158,-67.5"/>
<text text-anchor="start" x="8" y="-55.5" font-family="Helvetica,sans-Serif" font-size="10.00">mtgb::GameObjectGenerator</text>
<text text-anchor="middle" x="79" y="-44.5" font-family="Helvetica,sans-Serif" font-size="10.00">::Initialize</text>
</a>
</g>
</g>
<!-- Node2 -->
<g id="node2" class="node">
<title>Node2</title>
<g id="a_node2"><a xlink:href="classmtgb_1_1GameObjectGenerator.html#a04e2229c6a5c70c661d8e74c4e8d72b5" target="_top" xlink:title=" ">
<polygon fill="white" stroke="#666666" points="359,-115.5 201,-115.5 201,-85.5 359,-85.5 359,-115.5"/>
<text text-anchor="start" x="209" y="-103.5" font-family="Helvetica,sans-Serif" font-size="10.00">mtgb::GameObjectGenerator</text>
<text text-anchor="middle" x="280" y="-92.5" font-family="Helvetica,sans-Serif" font-size="10.00">::GameObjectGenerator</text>
</a>
</g>
</g>
<!-- Node1&#45;&gt;Node2 -->
<g id="edge1" class="edge">
<title>Node1&#45;&gt;Node2</title>
<path fill="none" stroke="#63b8ff" d="M142.42,-67.56C162.89,-72.49 185.8,-78.02 206.92,-83.11"/>
<polygon fill="#63b8ff" stroke="#63b8ff" points="206.26,-86.56 216.8,-85.5 207.9,-79.75 206.26,-86.56"/>
</g>
<!-- Node3 -->
<g id="node3" class="node">
<title>Node3</title>
<g id="a_node3"><a xlink:href="namespacemtgb.html#a50105f4ff6011ac155e433de5666c823" target="_top" xlink:title=" ">
<polygon fill="white" stroke="#666666" points="361,-67.5 199,-67.5 199,-37.5 361,-37.5 361,-67.5"/>
<text text-anchor="start" x="207" y="-55.5" font-family="Helvetica,sans-Serif" font-size="10.00">mtgb::RegisterCommonGame</text>
<text text-anchor="middle" x="280" y="-44.5" font-family="Helvetica,sans-Serif" font-size="10.00">ObjectType</text>
</a>
</g>
</g>
<!-- Node1&#45;&gt;Node3 -->
<g id="edge2" class="edge">
<title>Node1&#45;&gt;Node3</title>
<path fill="none" stroke="#63b8ff" d="M158.08,-52.5C168.12,-52.5 178.47,-52.5 188.69,-52.5"/>
<polygon fill="#63b8ff" stroke="#63b8ff" points="188.86,-56 198.86,-52.5 188.86,-49 188.86,-56"/>
</g>
<!-- Node6 -->
<g id="node6" class="node">
<title>Node6</title>
<g id="a_node6"><a xlink:href="namespacemtgb.html#af5a2231deca373aede77a1f71b759e81" target="_top" xlink:title=" ">
<polygon fill="white" stroke="#666666" points="366,-19 194,-19 194,0 366,0 366,-19"/>
<text text-anchor="middle" x="280" y="-7" font-family="Helvetica,sans-Serif" font-size="10.00">mtgb::RegisterGameObjectType</text>
</a>
</g>
</g>
<!-- Node1&#45;&gt;Node6 -->
<g id="edge5" class="edge">
<title>Node1&#45;&gt;Node6</title>
<path fill="none" stroke="#63b8ff" d="M149.6,-37.46C174.3,-32.12 201.71,-26.2 224.93,-21.18"/>
<polygon fill="#63b8ff" stroke="#63b8ff" points="225.9,-24.56 234.93,-19.02 224.42,-17.71 225.9,-24.56"/>
</g>
<!-- Node4 -->
<g id="node4" class="node">
<title>Node4</title>
<g id="a_node4"><a xlink:href="classmtgb_1_1IGameObjectRegistrar.html#a1f0c6fbfbba16d4e7b0cd66376a14e11" target="_top" xlink:title=" ">
<polygon fill="white" stroke="#666666" points="558,-45.5 402,-45.5 402,-15.5 558,-15.5 558,-45.5"/>
<text text-anchor="start" x="410" y="-33.5" font-family="Helvetica,sans-Serif" font-size="10.00">mtgb::IGameObjectRegistrar</text>
<text text-anchor="middle" x="480" y="-22.5" font-family="Helvetica,sans-Serif" font-size="10.00">::Register</text>
</a>
</g>
</g>
<!-- Node3&#45;&gt;Node4 -->
<g id="edge3" class="edge">
<title>Node3&#45;&gt;Node4</title>
<path fill="none" stroke="#63b8ff" d="M361.25,-43.58C371.3,-42.47 381.62,-41.32 391.77,-40.19"/>
<polygon fill="#63b8ff" stroke="#63b8ff" points="392.29,-43.66 401.84,-39.07 391.52,-36.7 392.29,-43.66"/>
</g>
<!-- Node5 -->
<g id="node5" class="node">
<title>Node5</title>
<g id="a_node5"><a xlink:href="classmtgb_1_1IGameObjectRegistrar.html#a3c2cbf9555869207fa36992ca0a4aa35" target="_top" xlink:title=" ">
<polygon fill="white" stroke="#666666" points="750,-45.5 594,-45.5 594,-15.5 750,-15.5 750,-45.5"/>
<text text-anchor="start" x="602" y="-33.5" font-family="Helvetica,sans-Serif" font-size="10.00">mtgb::IGameObjectRegistrar</text>
<text text-anchor="middle" x="672" y="-22.5" font-family="Helvetica,sans-Serif" font-size="10.00">::RegisterFactory</text>
</a>
</g>
</g>
<!-- Node4&#45;&gt;Node5 -->
<g id="edge4" class="edge">
<title>Node4&#45;&gt;Node5</title>
<path fill="none" stroke="#63b8ff" d="M558.01,-30.5C566.51,-30.5 575.21,-30.5 583.83,-30.5"/>
<polygon fill="#63b8ff" stroke="#63b8ff" points="583.88,-34 593.88,-30.5 583.88,-27 583.88,-34"/>
</g>
<!-- Node6&#45;&gt;Node4 -->
<g id="edge6" class="edge">
<title>Node6&#45;&gt;Node4</title>
<path fill="none" stroke="#63b8ff" d="M366.12,-18.53C374.63,-19.43 383.28,-20.35 391.82,-21.25"/>
<polygon fill="#63b8ff" stroke="#63b8ff" points="391.45,-24.73 401.77,-22.31 392.19,-17.77 391.45,-24.73"/>
</g>
</g>
</svg>
