<?xml version="1.0" encoding="UTF-8" standalone="no"?>
<!DOCTYPE svg PUBLIC "-//W3C//DTD SVG 1.1//EN"
 "http://www.w3.org/Graphics/SVG/1.1/DTD/svg11.dtd">
<!-- Generated by graphviz version 2.43.0 (0)
 -->
<!-- Title: mtgb::RenderSystem::DrawGameObjects Pages: 1 -->
<svg width="337pt" height="101pt"
 viewBox="0.00 0.00 337.00 101.00" xmlns="http://www.w3.org/2000/svg" xmlns:xlink="http://www.w3.org/1999/xlink">
<g id="graph0" class="graph" transform="scale(1 1) rotate(0) translate(4 97)">
<title>mtgb::RenderSystem::DrawGameObjects</title>
<!-- Node1 -->
<g id="node1" class="node">
<title>Node1</title>
<g id="a_node1"><a xlink:title=" ">
<polygon fill="#999999" stroke="#666666" points="119,-61.5 0,-61.5 0,-31.5 119,-31.5 119,-61.5"/>
<text text-anchor="start" x="8" y="-49.5" font-family="Helvetica,sans-Serif" font-size="10.00">mtgb::RenderSystem</text>
<text text-anchor="middle" x="59.5" y="-38.5" font-family="Helvetica,sans-Serif" font-size="10.00">::DrawGameObjects</text>
</a>
</g>
</g>
<!-- Node2 -->
<g id="node2" class="node">
<title>Node2</title>
<g id="a_node2"><a xlink:href="classmtgb_1_1GameScene.html#a62c3eb59801fdd460e8b316a0a879bb4" target="_top" xlink:title=" ">
<polygon fill="white" stroke="#666666" points="311,-93 173,-93 173,-74 311,-74 311,-93"/>
<text text-anchor="middle" x="242" y="-81" font-family="Helvetica,sans-Serif" font-size="10.00">mtgb::GameScene::Draw</text>
</a>
</g>
</g>
<!-- Node1&#45;&gt;Node2 -->
<g id="edge1" class="edge">
<title>Node1&#45;&gt;Node2</title>
<path fill="none" stroke="#63b8ff" d="M119.1,-58.51C140.07,-62.81 163.64,-67.64 184.43,-71.9"/>
<polygon fill="#63b8ff" stroke="#63b8ff" points="183.89,-75.37 194.39,-73.95 185.3,-68.51 183.89,-75.37"/>
</g>
<!-- Node3 -->
<g id="node3" class="node">
<title>Node3</title>
<g id="a_node3"><a xlink:href="classmtgb_1_1Game.html#a3e92de67f7858ed8f5a9a5adcf9cb75b" target="_top" xlink:title="描画可能なコンポーネントプールを返す">
<polygon fill="white" stroke="#666666" points="329,-56 155,-56 155,-37 329,-37 329,-56"/>
<text text-anchor="middle" x="242" y="-44" font-family="Helvetica,sans-Serif" font-size="10.00">mtgb::Game::GetRenderableCPs</text>
</a>
</g>
</g>
<!-- Node1&#45;&gt;Node3 -->
<g id="edge2" class="edge">
<title>Node1&#45;&gt;Node3</title>
<path fill="none" stroke="#63b8ff" d="M119.1,-46.5C127.32,-46.5 135.93,-46.5 144.62,-46.5"/>
<polygon fill="#63b8ff" stroke="#63b8ff" points="144.83,-50 154.83,-46.5 144.83,-43 144.83,-50"/>
</g>
<!-- Node4 -->
<g id="node4" class="node">
<title>Node4</title>
<g id="a_node4"><a xlink:href="classmtbit_1_1BitFlag.html#ad8f9b426c4a79b220e1044f078d0913f" target="_top" xlink:title="指定フラグが立っているかどうか">
<polygon fill="white" stroke="#666666" points="296,-19 188,-19 188,0 296,0 296,-19"/>
<text text-anchor="middle" x="242" y="-7" font-family="Helvetica,sans-Serif" font-size="10.00">mtbit::BitFlag::Has</text>
</a>
</g>
</g>
<!-- Node1&#45;&gt;Node4 -->
<g id="edge3" class="edge">
<title>Node1&#45;&gt;Node4</title>
<path fill="none" stroke="#63b8ff" d="M119.1,-34.49C140.07,-30.19 163.64,-25.36 184.43,-21.1"/>
<polygon fill="#63b8ff" stroke="#63b8ff" points="185.3,-24.49 194.39,-19.05 183.89,-17.63 185.3,-24.49"/>
</g>
</g>
</svg>
