<?xml version="1.0" encoding="UTF-8" standalone="no"?>
<!DOCTYPE svg PUBLIC "-//W3C//DTD SVG 1.1//EN"
 "http://www.w3.org/Graphics/SVG/1.1/DTD/svg11.dtd">
<!-- Generated by graphviz version 2.43.0 (0)
 -->
<!-- Title: mtgb::CommandHistoryManager::ExecuteCommand Pages: 1 -->
<svg width="369pt" height="86pt"
 viewBox="0.00 0.00 369.00 86.00" xmlns="http://www.w3.org/2000/svg" xmlns:xlink="http://www.w3.org/1999/xlink">
<g id="graph0" class="graph" transform="scale(1 1) rotate(0) translate(4 82)">
<title>mtgb::CommandHistoryManager::ExecuteCommand</title>
<!-- Node1 -->
<g id="node1" class="node">
<title>Node1</title>
<g id="a_node1"><a xlink:title="コマンドを実行、スタックに積む">
<polygon fill="#999999" stroke="#666666" points="176,-54 0,-54 0,-24 176,-24 176,-54"/>
<text text-anchor="start" x="8" y="-42" font-family="Helvetica,sans-Serif" font-size="10.00">mtgb::CommandHistoryManager</text>
<text text-anchor="middle" x="88" y="-31" font-family="Helvetica,sans-Serif" font-size="10.00">::ExecuteCommand</text>
</a>
</g>
</g>
<!-- Node2 -->
<g id="node2" class="node">
<title>Node2</title>
<g id="a_node2"><a xlink:href="classICommandHistory.html#aca75b9956f5f7d2790dacde7483d1649" target="_top" xlink:title="コマンドを実行、スタックに積む">
<polygon fill="white" stroke="#666666" points="361,-78 212,-78 212,-48 361,-48 361,-78"/>
<text text-anchor="start" x="220" y="-66" font-family="Helvetica,sans-Serif" font-size="10.00">ICommandHistory::Execute</text>
<text text-anchor="middle" x="286.5" y="-55" font-family="Helvetica,sans-Serif" font-size="10.00">Command</text>
</a>
</g>
</g>
<!-- Node1&#45;&gt;Node2 -->
<g id="edge1" class="edge">
<title>Node1&#45;&gt;Node2</title>
<path fill="none" stroke="#63b8ff" d="M176.05,-49.63C184.51,-50.67 193.09,-51.71 201.53,-52.74"/>
<polygon fill="#63b8ff" stroke="#63b8ff" points="201.38,-56.25 211.73,-53.99 202.22,-49.3 201.38,-56.25"/>
</g>
<!-- Node3 -->
<g id="node3" class="node">
<title>Node3</title>
<g id="a_node3"><a xlink:href="classmtgb_1_1GroupCommand.html#aff7d93328690039cd1046e3ea869e4c1" target="_top" xlink:title=" ">
<polygon fill="white" stroke="#666666" points="350.5,-30 222.5,-30 222.5,0 350.5,0 350.5,-30"/>
<text text-anchor="start" x="230.5" y="-18" font-family="Helvetica,sans-Serif" font-size="10.00">mtgb::GroupCommand</text>
<text text-anchor="middle" x="286.5" y="-7" font-family="Helvetica,sans-Serif" font-size="10.00">::ExecuteCommand</text>
</a>
</g>
</g>
<!-- Node1&#45;&gt;Node3 -->
<g id="edge2" class="edge">
<title>Node1&#45;&gt;Node3</title>
<path fill="none" stroke="#63b8ff" d="M176.05,-28.37C188.11,-26.89 200.41,-25.39 212.2,-23.95"/>
<polygon fill="#63b8ff" stroke="#63b8ff" points="212.9,-27.39 222.4,-22.71 212.05,-20.44 212.9,-27.39"/>
</g>
</g>
</svg>
