<?xml version="1.0" encoding="UTF-8" standalone="no"?>
<!DOCTYPE svg PUBLIC "-//W3C//DTD SVG 1.1//EN"
 "http://www.w3.org/Graphics/SVG/1.1/DTD/svg11.dtd">
<!-- Generated by graphviz version 2.43.0 (0)
 -->
<!-- Title: HighlightEnemy::Draw Pages: 1 -->
<svg width="281pt" height="76pt"
 viewBox="0.00 0.00 281.00 75.50" xmlns="http://www.w3.org/2000/svg" xmlns:xlink="http://www.w3.org/1999/xlink">
<g id="graph0" class="graph" transform="scale(1 1) rotate(0) translate(4 71.5)">
<title>HighlightEnemy::Draw</title>
<!-- Node1 -->
<g id="node1" class="node">
<title>Node1</title>
<g id="a_node1"><a xlink:title=" ">
<polygon fill="#999999" stroke="#666666" points="125,-40 0,-40 0,-21 125,-21 125,-40"/>
<text text-anchor="middle" x="62.5" y="-28" font-family="Helvetica,sans-Serif" font-size="10.00">HighlightEnemy::Draw</text>
</a>
</g>
</g>
<!-- Node2 -->
<g id="node2" class="node">
<title>Node2</title>
<g id="a_node2"><a xlink:href="classmtgb_1_1RectDetector.html#ae215e3a7b73037ce0056a8269af82526" target="_top" xlink:title="検出結果を操作">
<polygon fill="white" stroke="#666666" points="273,-67.5 161,-67.5 161,-37.5 273,-37.5 273,-67.5"/>
<text text-anchor="start" x="169" y="-55.5" font-family="Helvetica,sans-Serif" font-size="10.00">mtgb::RectDetector</text>
<text text-anchor="middle" x="217" y="-44.5" font-family="Helvetica,sans-Serif" font-size="10.00">::ForEach</text>
</a>
</g>
</g>
<!-- Node1&#45;&gt;Node2 -->
<g id="edge1" class="edge">
<title>Node1&#45;&gt;Node2</title>
<path fill="none" stroke="#63b8ff" d="M125.09,-39.38C133.43,-40.59 142.02,-41.83 150.43,-43.04"/>
<polygon fill="#63b8ff" stroke="#63b8ff" points="150.18,-46.54 160.58,-44.5 151.18,-39.61 150.18,-46.54"/>
</g>
<!-- Node3 -->
<g id="node3" class="node">
<title>Node3</title>
<g id="a_node3"><a xlink:href="classmtgb_1_1Draw.html#a157c2546af7ac20d4828e7538f6bb468" target="_top" xlink:title=" ">
<polygon fill="white" stroke="#666666" points="272,-19 162,-19 162,0 272,0 272,-19"/>
<text text-anchor="middle" x="217" y="-7" font-family="Helvetica,sans-Serif" font-size="10.00">mtgb::Draw::Image</text>
</a>
</g>
</g>
<!-- Node1&#45;&gt;Node3 -->
<g id="edge2" class="edge">
<title>Node1&#45;&gt;Node3</title>
<path fill="none" stroke="#63b8ff" d="M125.09,-22.02C133.76,-20.82 142.7,-19.59 151.43,-18.39"/>
<polygon fill="#63b8ff" stroke="#63b8ff" points="152.12,-21.83 161.55,-17 151.17,-14.89 152.12,-21.83"/>
</g>
</g>
</svg>
