<?xml version="1.0" encoding="UTF-8" standalone="no"?>
<!DOCTYPE svg PUBLIC "-//W3C//DTD SVG 1.1//EN"
 "http://www.w3.org/Graphics/SVG/1.1/DTD/svg11.dtd">
<!-- Generated by graphviz version 2.43.0 (0)
 -->
<!-- Title: mtgb::DirectX11Draw::SetShader Pages: 1 -->
<svg width="476pt" height="70pt"
 viewBox="0.00 0.00 476.00 69.50" xmlns="http://www.w3.org/2000/svg" xmlns:xlink="http://www.w3.org/1999/xlink">
<g id="graph0" class="graph" transform="scale(1 1) rotate(0) translate(4 65.5)">
<title>mtgb::DirectX11Draw::SetShader</title>
<!-- Node1 -->
<g id="node1" class="node">
<title>Node1</title>
<g id="a_node1"><a xlink:title="描画するシェーダをセットする">
<polygon fill="#999999" stroke="#666666" points="468,-42.5 346,-42.5 346,-12.5 468,-12.5 468,-42.5"/>
<text text-anchor="start" x="354" y="-30.5" font-family="Helvetica,sans-Serif" font-size="10.00">mtgb::DirectX11Draw</text>
<text text-anchor="middle" x="407" y="-19.5" font-family="Helvetica,sans-Serif" font-size="10.00">::SetShader</text>
</a>
</g>
</g>
<!-- Node2 -->
<g id="node2" class="node">
<title>Node2</title>
<g id="a_node2"><a xlink:href="classmtgb_1_1Draw.html#a972e48a671d7610a2a71b8ae76339cf7" target="_top" xlink:title="シェーダがセットされているかチェックする">
<polygon fill="white" stroke="#666666" points="310,-56 152,-56 152,-37 310,-37 310,-56"/>
<text text-anchor="middle" x="231" y="-44" font-family="Helvetica,sans-Serif" font-size="10.00">mtgb::Draw::CheckSetShader</text>
</a>
</g>
</g>
<!-- Node1&#45;&gt;Node2 -->
<g id="edge1" class="edge">
<title>Node1&#45;&gt;Node2</title>
<path fill="none" stroke="#63b8ff" d="M335.52,-35.2C327.13,-36.11 318.53,-37.05 310.04,-37.98"/>
<polygon fill="#63b8ff" stroke="#63b8ff" points="336.07,-38.66 345.63,-34.09 335.31,-31.7 336.07,-38.66"/>
</g>
<!-- Node4 -->
<g id="node4" class="node">
<title>Node4</title>
<g id="a_node4"><a xlink:href="classmtgb_1_1FbxParts.html#a1713fb4aa315c4474adb28c852d7b7c5" target="_top" xlink:title="モデルを描画する">
<polygon fill="white" stroke="#666666" points="292,-19 170,-19 170,0 292,0 292,-19"/>
<text text-anchor="middle" x="231" y="-7" font-family="Helvetica,sans-Serif" font-size="10.00">mtgb::FbxParts::Draw</text>
</a>
</g>
</g>
<!-- Node1&#45;&gt;Node4 -->
<g id="edge3" class="edge">
<title>Node1&#45;&gt;Node4</title>
<path fill="none" stroke="#63b8ff" d="M335.36,-20.19C321.06,-18.71 306.16,-17.17 292.26,-15.73"/>
<polygon fill="#63b8ff" stroke="#63b8ff" points="335.32,-23.71 345.63,-21.25 336.04,-16.74 335.32,-23.71"/>
</g>
<!-- Node3 -->
<g id="node3" class="node">
<title>Node3</title>
<g id="a_node3"><a xlink:href="classmtgb_1_1TerrainReader.html#af83680f408b54e315344688484bce287" target="_top" xlink:title=" ">
<polygon fill="white" stroke="#666666" points="116,-61.5 0,-61.5 0,-31.5 116,-31.5 116,-61.5"/>
<text text-anchor="start" x="8" y="-49.5" font-family="Helvetica,sans-Serif" font-size="10.00">mtgb::TerrainReader</text>
<text text-anchor="middle" x="58" y="-38.5" font-family="Helvetica,sans-Serif" font-size="10.00">::TestDraw</text>
</a>
</g>
</g>
<!-- Node2&#45;&gt;Node3 -->
<g id="edge2" class="edge">
<title>Node2&#45;&gt;Node3</title>
<path fill="none" stroke="#63b8ff" d="M141.41,-46.5C132.81,-46.5 124.24,-46.5 116.07,-46.5"/>
<polygon fill="#63b8ff" stroke="#63b8ff" points="141.51,-50 151.51,-46.5 141.51,-43 141.51,-50"/>
</g>
</g>
</svg>
