<?xml version="1.0" encoding="UTF-8" standalone="no"?>
<!DOCTYPE svg PUBLIC "-//W3C//DTD SVG 1.1//EN"
 "http://www.w3.org/Graphics/SVG/1.1/DTD/svg11.dtd">
<!-- Generated by graphviz version 2.43.0 (0)
 -->
<!-- Title: mtgb::ImGuiEditor::ShowAddComponentDialog Pages: 1 -->
<svg width="1354pt" height="1470pt"
 viewBox="0.00 0.00 1354.00 1469.50" xmlns="http://www.w3.org/2000/svg" xmlns:xlink="http://www.w3.org/1999/xlink">
<g id="graph0" class="graph" transform="scale(1 1) rotate(0) translate(4 1465.5)">
<title>mtgb::ImGuiEditor::ShowAddComponentDialog</title>
<!-- Node1 -->
<g id="node1" class="node">
<title>Node1</title>
<g id="a_node1"><a xlink:title=" ">
<polygon fill="#999999" stroke="#666666" points="149,-234 0,-234 0,-204 149,-204 149,-234"/>
<text text-anchor="start" x="8" y="-222" font-family="Helvetica,sans-Serif" font-size="10.00">mtgb::ImGuiEditor::</text>
<text text-anchor="middle" x="74.5" y="-211" font-family="Helvetica,sans-Serif" font-size="10.00">ShowAddComponentDialog</text>
</a>
</g>
</g>
<!-- Node2 -->
<g id="node2" class="node">
<title>Node2</title>
<g id="a_node2"><a xlink:href="namespaceImGui.html#a38094c568ce398db5a3abb9d3ac92030" target="_top" xlink:title=" ">
<polygon fill="white" stroke="#666666" points="305.5,-271.5 221.5,-271.5 221.5,-252.5 305.5,-252.5 305.5,-271.5"/>
<text text-anchor="middle" x="263.5" y="-259.5" font-family="Helvetica,sans-Serif" font-size="10.00">ImGui::Button</text>
</a>
</g>
</g>
<!-- Node1&#45;&gt;Node2 -->
<g id="edge1" class="edge">
<title>Node1&#45;&gt;Node2</title>
<path fill="none" stroke="#63b8ff" d="M140.9,-234.04C164,-239.35 189.61,-245.24 211.36,-250.24"/>
<polygon fill="#63b8ff" stroke="#63b8ff" points="210.84,-253.71 221.37,-252.54 212.41,-246.89 210.84,-253.71"/>
</g>
<!-- Node500 -->
<g id="node49" class="node">
<title>Node500</title>
<g id="a_node49"><a xlink:href="classmtgb_1_1Game.html#a66362917a1d96665e8160adcb72f031f" target="_top" xlink:title=" ">
<polygon fill="white" stroke="#666666" points="342,-234 185,-234 185,-204 342,-204 342,-234"/>
<text text-anchor="start" x="193" y="-222" font-family="Helvetica,sans-Serif" font-size="10.00">mtgb::Game::GetComponent</text>
<text text-anchor="middle" x="263.5" y="-211" font-family="Helvetica,sans-Serif" font-size="10.00">Factory</text>
</a>
</g>
</g>
<!-- Node1&#45;&gt;Node500 -->
<g id="edge74" class="edge">
<title>Node1&#45;&gt;Node500</title>
<path fill="none" stroke="#63b8ff" d="M149.14,-219C157.59,-219 166.26,-219 174.87,-219"/>
<polygon fill="#63b8ff" stroke="#63b8ff" points="174.93,-222.5 184.93,-219 174.93,-215.5 174.93,-222.5"/>
</g>
<!-- Node501 -->
<g id="node50" class="node">
<title>Node501</title>
<g id="a_node50"><a xlink:href="classmtgb_1_1ComponentFactory.html#aeb879ceb7a52658be2231319dcbc5b06" target="_top" xlink:title=" ">
<polygon fill="white" stroke="#666666" points="333.5,-186 193.5,-186 193.5,-156 333.5,-156 333.5,-186"/>
<text text-anchor="start" x="201.5" y="-174" font-family="Helvetica,sans-Serif" font-size="10.00">mtgb::ComponentFactory</text>
<text text-anchor="middle" x="263.5" y="-163" font-family="Helvetica,sans-Serif" font-size="10.00">::GetRegisteredTypes</text>
</a>
</g>
</g>
<!-- Node1&#45;&gt;Node501 -->
<g id="edge75" class="edge">
<title>Node1&#45;&gt;Node501</title>
<path fill="none" stroke="#63b8ff" d="M134.15,-203.94C153.21,-199.05 174.53,-193.58 194.23,-188.52"/>
<polygon fill="#63b8ff" stroke="#63b8ff" points="195.24,-191.88 204.05,-186 193.5,-185.1 195.24,-191.88"/>
</g>
<!-- Node3 -->
<g id="node3" class="node">
<title>Node3</title>
<g id="a_node3"><a xlink:href="namespaceImGui.html#ae479220c66b039874c6e4c9e9b22849f" target="_top" xlink:title=" ">
<polygon fill="white" stroke="#666666" points="474,-271.5 378,-271.5 378,-252.5 474,-252.5 474,-271.5"/>
<text text-anchor="middle" x="426" y="-259.5" font-family="Helvetica,sans-Serif" font-size="10.00">ImGui::ButtonEx</text>
</a>
</g>
</g>
<!-- Node2&#45;&gt;Node3 -->
<g id="edge2" class="edge">
<title>Node2&#45;&gt;Node3</title>
<path fill="none" stroke="#63b8ff" d="M305.83,-262C324.66,-262 347.27,-262 367.7,-262"/>
<polygon fill="#63b8ff" stroke="#63b8ff" points="367.85,-265.5 377.85,-262 367.85,-258.5 367.85,-265.5"/>
</g>
<!-- Node4 -->
<g id="node4" class="node">
<title>Node4</title>
<g id="a_node4"><a xlink:href="namespaceImGui.html#a65a4f18b1bc8ce0f351687922089f374" target="_top" xlink:title=" ">
<polygon fill="white" stroke="#666666" points="665,-1113.5 537,-1113.5 537,-1094.5 665,-1094.5 665,-1113.5"/>
<text text-anchor="middle" x="601" y="-1101.5" font-family="Helvetica,sans-Serif" font-size="10.00">ImGui::ButtonBehavior</text>
</a>
</g>
</g>
<!-- Node3&#45;&gt;Node4 -->
<g id="edge3" class="edge">
<title>Node3&#45;&gt;Node4</title>
<path fill="none" stroke="#63b8ff" d="M428.38,-271.56C435.58,-321.26 470.16,-554.98 510,-744 537.6,-874.95 579.67,-1030.41 594.55,-1084.39"/>
<polygon fill="#63b8ff" stroke="#63b8ff" points="591.26,-1085.62 597.3,-1094.32 598.01,-1083.75 591.26,-1085.62"/>
</g>
<!-- Node33 -->
<g id="node9" class="node">
<title>Node33</title>
<g id="a_node9"><a xlink:href="namespaceImGui.html#ac452417b5004ca16a814a72cff153526" target="_top" xlink:title=" ">
<polygon fill="white" stroke="#666666" points="888.5,-1461.5 744.5,-1461.5 744.5,-1442.5 888.5,-1442.5 888.5,-1461.5"/>
<text text-anchor="middle" x="816.5" y="-1449.5" font-family="Helvetica,sans-Serif" font-size="10.00">ImGui::GetCurrentWindow</text>
</a>
</g>
</g>
<!-- Node3&#45;&gt;Node33 -->
<g id="edge45" class="edge">
<title>Node3&#45;&gt;Node33</title>
<path fill="none" stroke="#63b8ff" d="M427.26,-271.69C429.56,-355.25 448.1,-955.36 510,-1123 568.47,-1281.35 586.91,-1341.33 728,-1434 730.43,-1435.6 732.97,-1437.06 735.6,-1438.39"/>
<polygon fill="#63b8ff" stroke="#63b8ff" points="734.25,-1441.62 744.82,-1442.45 737.08,-1435.22 734.25,-1441.62"/>
</g>
<!-- Node498 -->
<g id="node26" class="node">
<title>Node498</title>
<g id="a_node26"><a xlink:href="namespaceImGui.html#acaef0497f7982dd98bf215e50129cd9b" target="_top" xlink:title=" ">
<polygon fill="white" stroke="#666666" points="659,-640.5 543,-640.5 543,-621.5 659,-621.5 659,-640.5"/>
<text text-anchor="middle" x="601" y="-628.5" font-family="Helvetica,sans-Serif" font-size="10.00">ImGui::CalcItemSize</text>
</a>
</g>
</g>
<!-- Node3&#45;&gt;Node498 -->
<g id="edge36" class="edge">
<title>Node3&#45;&gt;Node498</title>
<path fill="none" stroke="#63b8ff" d="M430.06,-271.81C439.92,-303 472.43,-402.35 510,-480 534.14,-529.89 569.32,-584.98 587.73,-612.79"/>
<polygon fill="#63b8ff" stroke="#63b8ff" points="585.03,-615.06 593.49,-621.43 590.86,-611.17 585.03,-615.06"/>
</g>
<!-- Node170 -->
<g id="node28" class="node">
<title>Node170</title>
<g id="a_node28"><a xlink:href="namespaceImGui.html#a848b9db6cc4a186751c0ecebcaadc33b" target="_top" xlink:title=" ">
<polygon fill="white" stroke="#666666" points="657.5,-252.5 544.5,-252.5 544.5,-233.5 657.5,-233.5 657.5,-252.5"/>
<text text-anchor="middle" x="601" y="-240.5" font-family="Helvetica,sans-Serif" font-size="10.00">ImGui::CalcTextSize</text>
</a>
</g>
</g>
<!-- Node3&#45;&gt;Node170 -->
<g id="edge39" class="edge">
<title>Node3&#45;&gt;Node170</title>
<path fill="none" stroke="#63b8ff" d="M474.27,-256.81C492.76,-254.78 514.28,-252.41 534.23,-250.22"/>
<polygon fill="#63b8ff" stroke="#63b8ff" points="534.63,-253.7 544.19,-249.13 533.87,-246.74 534.63,-253.7"/>
</g>
<!-- Node138 -->
<g id="node31" class="node">
<title>Node138</title>
<g id="a_node31"><a xlink:href="namespaceImGui.html#a0de2d9bd347d9866511eb8d014e62556" target="_top" xlink:title=" ">
<polygon fill="white" stroke="#666666" points="873.5,-24.5 759.5,-24.5 759.5,-5.5 873.5,-5.5 873.5,-24.5"/>
<text text-anchor="middle" x="816.5" y="-12.5" font-family="Helvetica,sans-Serif" font-size="10.00">ImGui::GetColorU32</text>
</a>
</g>
</g>
<!-- Node3&#45;&gt;Node138 -->
<g id="edge43" class="edge">
<title>Node3&#45;&gt;Node138</title>
<path fill="none" stroke="#63b8ff" d="M427.83,-252.15C431.18,-219.28 446.7,-112.71 510,-63 578.18,-9.46 681.88,-4.36 749.18,-7.9"/>
<polygon fill="#63b8ff" stroke="#63b8ff" points="749.05,-11.4 759.24,-8.51 749.47,-4.41 749.05,-11.4"/>
</g>
<!-- Node376 -->
<g id="node33" class="node">
<title>Node376</title>
<g id="a_node33"><a xlink:href="structImGuiWindow.html#afe084e59f7cd4da393ae30f0b4410b16" target="_top" xlink:title=" ">
<polygon fill="white" stroke="#666666" points="660,-734.5 542,-734.5 542,-715.5 660,-715.5 660,-734.5"/>
<text text-anchor="middle" x="601" y="-722.5" font-family="Helvetica,sans-Serif" font-size="10.00">ImGuiWindow::GetID</text>
</a>
</g>
</g>
<!-- Node3&#45;&gt;Node376 -->
<g id="edge46" class="edge">
<title>Node3&#45;&gt;Node376</title>
<path fill="none" stroke="#63b8ff" d="M426.86,-271.51C426.6,-317.06 430.28,-516.13 510,-649 525.67,-675.12 553.58,-696.58 574.17,-709.95"/>
<polygon fill="#63b8ff" stroke="#63b8ff" points="572.44,-713 582.77,-715.35 576.16,-707.07 572.44,-713"/>
</g>
<!-- Node287 -->
<g id="node37" class="node">
<title>Node287</title>
<g id="a_node37"><a xlink:href="namespaceImGui.html#a0c2ccafc8d403c02a6590ac21157b9ac" target="_top" xlink:title=" ">
<polygon fill="white" stroke="#666666" points="647.5,-471.5 554.5,-471.5 554.5,-452.5 647.5,-452.5 647.5,-471.5"/>
<text text-anchor="middle" x="601" y="-459.5" font-family="Helvetica,sans-Serif" font-size="10.00">ImGui::ItemAdd</text>
</a>
</g>
</g>
<!-- Node3&#45;&gt;Node287 -->
<g id="edge50" class="edge">
<title>Node3&#45;&gt;Node287</title>
<path fill="none" stroke="#63b8ff" d="M435.34,-271.65C462.69,-303.26 549.87,-404.05 585.06,-444.73"/>
<polygon fill="#63b8ff" stroke="#63b8ff" points="582.55,-447.18 591.74,-452.45 587.84,-442.6 582.55,-447.18"/>
</g>
<!-- Node492 -->
<g id="node42" class="node">
<title>Node492</title>
<g id="a_node42"><a xlink:href="namespaceImGui.html#a4b5818a652d943ea54e0cec9fb3943d7" target="_top" xlink:title=" ">
<polygon fill="white" stroke="#666666" points="648.5,-290.5 553.5,-290.5 553.5,-271.5 648.5,-271.5 648.5,-290.5"/>
<text text-anchor="middle" x="601" y="-278.5" font-family="Helvetica,sans-Serif" font-size="10.00">ImGui::ItemSize</text>
</a>
</g>
</g>
<!-- Node3&#45;&gt;Node492 -->
<g id="edge60" class="edge">
<title>Node3&#45;&gt;Node492</title>
<path fill="none" stroke="#63b8ff" d="M474.27,-267.19C495.62,-269.54 521,-272.32 543.35,-274.78"/>
<polygon fill="#63b8ff" stroke="#63b8ff" points="543.06,-278.27 553.38,-275.88 543.83,-271.31 543.06,-278.27"/>
</g>
<!-- Node303 -->
<g id="node44" class="node">
<title>Node303</title>
<g id="a_node44"><a xlink:href="namespaceImGui.html#a66bc1e61bff5f2170bcd2d7d071eaa22" target="_top" xlink:title=" ">
<polygon fill="white" stroke="#666666" points="692,-178.5 510,-178.5 510,-159.5 692,-159.5 692,-178.5"/>
<text text-anchor="middle" x="601" y="-166.5" font-family="Helvetica,sans-Serif" font-size="10.00">ImGui::LogSetNextTextDecoration</text>
</a>
</g>
</g>
<!-- Node3&#45;&gt;Node303 -->
<g id="edge63" class="edge">
<title>Node3&#45;&gt;Node303</title>
<path fill="none" stroke="#63b8ff" d="M434.55,-252.41C447.91,-236.17 477.38,-203.41 510,-187 513.84,-185.07 517.88,-183.34 522.02,-181.8"/>
<polygon fill="#63b8ff" stroke="#63b8ff" points="523.45,-185.01 531.84,-178.53 521.24,-178.37 523.45,-185.01"/>
</g>
<!-- Node436 -->
<g id="node45" class="node">
<title>Node436</title>
<g id="a_node45"><a xlink:href="namespaceImGui.html#a6eb97ff501764c37df4ffd99ebadeba7" target="_top" xlink:title=" ">
<polygon fill="white" stroke="#666666" points="659.5,-140.5 542.5,-140.5 542.5,-121.5 659.5,-121.5 659.5,-140.5"/>
<text text-anchor="middle" x="601" y="-128.5" font-family="Helvetica,sans-Serif" font-size="10.00">ImGui::RenderFrame</text>
</a>
</g>
</g>
<!-- Node3&#45;&gt;Node436 -->
<g id="edge64" class="edge">
<title>Node3&#45;&gt;Node436</title>
<path fill="none" stroke="#63b8ff" d="M431.18,-252.35C441.24,-230.33 469.06,-176.27 510,-150 516.88,-145.59 524.61,-142.18 532.57,-139.55"/>
<polygon fill="#63b8ff" stroke="#63b8ff" points="533.72,-142.86 542.35,-136.71 531.77,-136.13 533.72,-142.86"/>
</g>
<!-- Node302 -->
<g id="node47" class="node">
<title>Node302</title>
<g id="a_node47"><a xlink:href="namespaceImGui.html#a2722dcfe26c7f6e8cd522102ef5b7df2" target="_top" xlink:title=" ">
<polygon fill="#fff0f0" stroke="red" points="669.5,-91.5 532.5,-91.5 532.5,-72.5 669.5,-72.5 669.5,-91.5"/>
<text text-anchor="middle" x="601" y="-79.5" font-family="Helvetica,sans-Serif" font-size="10.00">ImGui::RenderNavCursor</text>
</a>
</g>
</g>
<!-- Node3&#45;&gt;Node302 -->
<g id="edge68" class="edge">
<title>Node3&#45;&gt;Node302</title>
<path fill="none" stroke="#63b8ff" d="M429.64,-252.33C437.36,-225.86 462.4,-151.58 510,-112 518.82,-104.67 529.49,-99.11 540.36,-94.9"/>
<polygon fill="#63b8ff" stroke="#63b8ff" points="541.66,-98.15 549.93,-91.53 539.33,-91.55 541.66,-98.15"/>
</g>
<!-- Node453 -->
<g id="node48" class="node">
<title>Node453</title>
<g id="a_node48"><a xlink:href="namespaceImGui.html#ab362eafae794c7364a6b96ea06f38eb9" target="_top" xlink:title=" ">
<polygon fill="#fff0f0" stroke="red" points="672.5,-215.5 529.5,-215.5 529.5,-196.5 672.5,-196.5 672.5,-215.5"/>
<text text-anchor="middle" x="601" y="-203.5" font-family="Helvetica,sans-Serif" font-size="10.00">ImGui::RenderTextClipped</text>
</a>
</g>
</g>
<!-- Node3&#45;&gt;Node453 -->
<g id="edge72" class="edge">
<title>Node3&#45;&gt;Node453</title>
<path fill="none" stroke="#63b8ff" d="M444.65,-252.46C461.13,-243.91 486.63,-231.57 510,-224 517.06,-221.71 524.53,-219.66 532.03,-217.83"/>
<polygon fill="#63b8ff" stroke="#63b8ff" points="532.92,-221.22 541.87,-215.57 531.34,-214.4 532.92,-221.22"/>
</g>
<!-- Node5 -->
<g id="node5" class="node">
<title>Node5</title>
<g id="a_node5"><a xlink:href="namespaceImGui.html#ab9804506fa0fe8823f63eadb3043916f" target="_top" xlink:title=" ">
<polygon fill="white" stroke="#666666" points="895.5,-1387 737.5,-1387 737.5,-1357 895.5,-1357 895.5,-1387"/>
<text text-anchor="start" x="745.5" y="-1375" font-family="Helvetica,sans-Serif" font-size="10.00">ImGui::CalcTypematicRepeat</text>
<text text-anchor="middle" x="816.5" y="-1364" font-family="Helvetica,sans-Serif" font-size="10.00">Amount</text>
</a>
</g>
</g>
<!-- Node4&#45;&gt;Node5 -->
<g id="edge4" class="edge">
<title>Node4&#45;&gt;Node5</title>
<path fill="none" stroke="#63b8ff" d="M606.61,-1113.76C626.88,-1156.53 708,-1326.06 728,-1343 732.2,-1346.56 736.85,-1349.68 741.75,-1352.42"/>
<polygon fill="#63b8ff" stroke="#63b8ff" points="740.29,-1355.61 750.8,-1356.96 743.43,-1349.35 740.29,-1355.61"/>
</g>
<!-- Node6 -->
<g id="node6" class="node">
<title>Node6</title>
<g id="a_node6"><a xlink:href="namespaceImGui.html#a17ff60ad1e2669130ac38a04d16eb354" target="_top" xlink:title=" ">
<polygon fill="white" stroke="#666666" points="1079.5,-1037.5 960.5,-1037.5 960.5,-1018.5 1079.5,-1018.5 1079.5,-1037.5"/>
<text text-anchor="middle" x="1020" y="-1025.5" font-family="Helvetica,sans-Serif" font-size="10.00">ImGui::ClearActiveID</text>
</a>
</g>
</g>
<!-- Node4&#45;&gt;Node6 -->
<g id="edge5" class="edge">
<title>Node4&#45;&gt;Node6</title>
<path fill="none" stroke="#63b8ff" d="M665.01,-1099.73C726.74,-1094.71 823.18,-1084.58 905,-1066 932.65,-1059.72 963.06,-1049.4 985.52,-1041.1"/>
<polygon fill="#63b8ff" stroke="#63b8ff" points="986.8,-1044.36 994.93,-1037.57 984.34,-1037.8 986.8,-1044.36"/>
</g>
<!-- Node7 -->
<g id="node7" class="node">
<title>Node7</title>
<g id="a_node7"><a xlink:href="namespaceImGui.html#a27b8ace13a8c421ee8405f0cbebe4ead" target="_top" xlink:title=" ">
<polygon fill="#fff0f0" stroke="red" points="1252,-970.5 1143,-970.5 1143,-951.5 1252,-951.5 1252,-970.5"/>
<text text-anchor="middle" x="1197.5" y="-958.5" font-family="Helvetica,sans-Serif" font-size="10.00">ImGui::SetActiveID</text>
</a>
</g>
</g>
<!-- Node4&#45;&gt;Node7 -->
<g id="edge31" class="edge">
<title>Node4&#45;&gt;Node7</title>
<path fill="none" stroke="#63b8ff" d="M604.96,-1094.24C615.4,-1061.78 653.92,-957.29 728,-918 736.37,-913.56 1092.31,-918.61 1099,-920 1124.38,-925.26 1151.41,-937.18 1170.56,-946.82"/>
<polygon fill="#63b8ff" stroke="#63b8ff" points="1169.06,-949.98 1179.55,-951.47 1172.27,-943.77 1169.06,-949.98"/>
</g>
<!-- Node12 -->
<g id="node8" class="node">
<title>Node12</title>
<g id="a_node8"><a xlink:href="namespaceImGui.html#a27aa6f2f3aa11778c6d023b1b223f262" target="_top" xlink:title=" ">
<polygon fill="#fff0f0" stroke="red" points="876,-1056.5 757,-1056.5 757,-1037.5 876,-1037.5 876,-1056.5"/>
<text text-anchor="middle" x="816.5" y="-1044.5" font-family="Helvetica,sans-Serif" font-size="10.00">ImGui::FocusWindow</text>
</a>
</g>
</g>
<!-- Node4&#45;&gt;Node12 -->
<g id="edge7" class="edge">
<title>Node4&#45;&gt;Node12</title>
<path fill="none" stroke="#63b8ff" d="M637.74,-1094.46C673.99,-1084.78 730.25,-1069.76 769.74,-1059.22"/>
<polygon fill="#63b8ff" stroke="#63b8ff" points="770.89,-1062.53 779.65,-1056.57 769.08,-1055.77 770.89,-1062.53"/>
</g>
<!-- Node4&#45;&gt;Node33 -->
<g id="edge9" class="edge">
<title>Node4&#45;&gt;Node33</title>
<path fill="none" stroke="#63b8ff" d="M607.6,-1113.89C622.98,-1141.35 666.38,-1221.23 692,-1292 714.17,-1353.22 680.93,-1389.02 728,-1434 730.28,-1436.18 732.75,-1438.13 735.37,-1439.86"/>
<polygon fill="#63b8ff" stroke="#63b8ff" points="733.72,-1442.95 744.17,-1444.73 737.11,-1436.83 733.72,-1442.95"/>
</g>
<!-- Node34 -->
<g id="node10" class="node">
<title>Node34</title>
<g id="a_node10"><a xlink:href="namespaceImGui.html#a6d32d70d6beb45537b605508b78216c3" target="_top" xlink:title=" ">
<polygon fill="#fff0f0" stroke="red" points="871.5,-1187.5 761.5,-1187.5 761.5,-1168.5 871.5,-1168.5 871.5,-1187.5"/>
<text text-anchor="middle" x="816.5" y="-1175.5" font-family="Helvetica,sans-Serif" font-size="10.00">ImGui::GetKeyData</text>
</a>
</g>
</g>
<!-- Node4&#45;&gt;Node34 -->
<g id="edge10" class="edge">
<title>Node4&#45;&gt;Node34</title>
<path fill="none" stroke="#63b8ff" d="M620.29,-1113.64C644.38,-1125.98 688.34,-1147.27 728,-1160 735.48,-1162.4 743.42,-1164.55 751.35,-1166.47"/>
<polygon fill="#63b8ff" stroke="#63b8ff" points="750.82,-1169.94 761.35,-1168.76 752.38,-1163.11 750.82,-1169.94"/>
</g>
<!-- Node37 -->
<g id="node11" class="node">
<title>Node37</title>
<g id="a_node11"><a xlink:href="imgui__internal_8h.html#a7667efd95147d0422f140917c71a9226" target="_top" xlink:title=" ">
<polygon fill="white" stroke="#666666" points="1346,-290.5 1296,-290.5 1296,-271.5 1346,-271.5 1346,-290.5"/>
<text text-anchor="middle" x="1321" y="-278.5" font-family="Helvetica,sans-Serif" font-size="10.00">ImMax</text>
</a>
</g>
</g>
<!-- Node4&#45;&gt;Node37 -->
<g id="edge11" class="edge">
<title>Node4&#45;&gt;Node37</title>
<path fill="none" stroke="#63b8ff" d="M603.48,-1094.42C610.01,-1055.66 639.89,-909.08 728,-839 791.04,-788.86 830.74,-831.21 905,-800 1078.76,-726.97 1153.73,-723.67 1260,-568 1318.71,-482 1321.9,-350.18 1320.82,-300.69"/>
<polygon fill="#63b8ff" stroke="#63b8ff" points="1324.32,-300.57 1320.51,-290.68 1317.32,-300.78 1324.32,-300.57"/>
</g>
<!-- Node38 -->
<g id="node12" class="node">
<title>Node38</title>
<g id="a_node12"><a xlink:href="namespaceImGui.html#ac9a400eff3a9561d95e80486c52a660b" target="_top" xlink:title=" ">
<polygon fill="#fff0f0" stroke="red" points="1082,-990.5 958,-990.5 958,-971.5 1082,-971.5 1082,-990.5"/>
<text text-anchor="middle" x="1020" y="-978.5" font-family="Helvetica,sans-Serif" font-size="10.00">ImGui::IsItemHovered</text>
</a>
</g>
</g>
<!-- Node4&#45;&gt;Node38 -->
<g id="edge12" class="edge">
<title>Node4&#45;&gt;Node38</title>
<path fill="none" stroke="#63b8ff" d="M614.43,-1094.41C636.17,-1078.17 683.05,-1045.42 728,-1029 767.33,-1014.63 875.19,-999.03 947.95,-989.64"/>
<polygon fill="#63b8ff" stroke="#63b8ff" points="948.5,-993.1 957.98,-988.35 947.61,-986.15 948.5,-993.1"/>
</g>
<!-- Node46 -->
<g id="node13" class="node">
<title>Node46</title>
<g id="a_node13"><a xlink:href="namespaceImGui.html#a2d430db9485d0b3d86d51d5436225495" target="_top" xlink:title=" ">
<polygon fill="white" stroke="#666666" points="880.5,-1132.5 752.5,-1132.5 752.5,-1113.5 880.5,-1113.5 880.5,-1132.5"/>
<text text-anchor="middle" x="816.5" y="-1120.5" font-family="Helvetica,sans-Serif" font-size="10.00">ImGui::IsMouseClicked</text>
</a>
</g>
</g>
<!-- Node4&#45;&gt;Node46 -->
<g id="edge13" class="edge">
<title>Node4&#45;&gt;Node46</title>
<path fill="none" stroke="#63b8ff" d="M665.19,-1109.62C689.4,-1111.78 717.21,-1114.25 742.28,-1116.48"/>
<polygon fill="#63b8ff" stroke="#63b8ff" points="742.2,-1119.99 752.47,-1117.39 742.82,-1113.02 742.2,-1119.99"/>
</g>
<!-- Node47 -->
<g id="node14" class="node">
<title>Node47</title>
<g id="a_node14"><a xlink:href="namespaceImGui.html#aed7dae248aa865bf06c1d60c0e809537" target="_top" xlink:title=" ">
<polygon fill="white" stroke="#666666" points="876.5,-1263.5 756.5,-1263.5 756.5,-1244.5 876.5,-1244.5 876.5,-1263.5"/>
<text text-anchor="middle" x="816.5" y="-1251.5" font-family="Helvetica,sans-Serif" font-size="10.00">ImGui::IsMouseDown</text>
</a>
</g>
</g>
<!-- Node4&#45;&gt;Node47 -->
<g id="edge15" class="edge">
<title>Node4&#45;&gt;Node47</title>
<path fill="none" stroke="#63b8ff" d="M608.73,-1113.56C625.82,-1137.1 673.44,-1198.28 728,-1230 735.9,-1234.59 744.71,-1238.34 753.62,-1241.38"/>
<polygon fill="#63b8ff" stroke="#63b8ff" points="752.69,-1244.76 763.28,-1244.41 754.79,-1238.08 752.69,-1244.76"/>
</g>
<!-- Node48 -->
<g id="node15" class="node">
<title>Node48</title>
<g id="a_node15"><a xlink:href="namespaceImGui.html#a25689086f813c9714c4bbd4e3d5e669c" target="_top" xlink:title=" ">
<polygon fill="white" stroke="#666666" points="1092.5,-1300.5 947.5,-1300.5 947.5,-1281.5 1092.5,-1281.5 1092.5,-1300.5"/>
<text text-anchor="middle" x="1020" y="-1288.5" font-family="Helvetica,sans-Serif" font-size="10.00">ImGui::MouseButtonToKey</text>
</a>
</g>
</g>
<!-- Node4&#45;&gt;Node48 -->
<g id="edge30" class="edge">
<title>Node4&#45;&gt;Node48</title>
<path fill="none" stroke="#63b8ff" d="M604.36,-1113.79C613.29,-1148.43 648.64,-1265.52 728,-1310 811.11,-1356.59 929.3,-1324.41 986.07,-1304.1"/>
<polygon fill="#63b8ff" stroke="#63b8ff" points="987.43,-1307.32 995.61,-1300.59 985.01,-1300.75 987.43,-1307.32"/>
</g>
<!-- Node49 -->
<g id="node16" class="node">
<title>Node49</title>
<g id="a_node16"><a xlink:href="namespaceImGui.html#ad12c5be2f1c691e4e6656524248824fb" target="_top" xlink:title=" ">
<polygon fill="#fff0f0" stroke="red" points="1080.5,-1263.5 959.5,-1263.5 959.5,-1244.5 1080.5,-1244.5 1080.5,-1263.5"/>
<text text-anchor="middle" x="1020" y="-1251.5" font-family="Helvetica,sans-Serif" font-size="10.00">ImGui::TestKeyOwner</text>
</a>
</g>
</g>
<!-- Node4&#45;&gt;Node49 -->
<g id="edge35" class="edge">
<title>Node4&#45;&gt;Node49</title>
<path fill="none" stroke="#63b8ff" d="M611.79,-1113.69C631.77,-1132.86 679.48,-1175.64 728,-1197 748.39,-1205.97 874.25,-1228.87 953.63,-1242.76"/>
<polygon fill="#63b8ff" stroke="#63b8ff" points="953.09,-1246.22 963.54,-1244.49 954.3,-1239.33 953.09,-1246.22"/>
</g>
<!-- Node52 -->
<g id="node17" class="node">
<title>Node52</title>
<g id="a_node17"><a xlink:href="namespaceImGui.html#ae53a0c1818d2804e3b1331f0c1777434" target="_top" xlink:title=" ">
<polygon fill="white" stroke="#666666" points="885,-1300.5 748,-1300.5 748,-1281.5 885,-1281.5 885,-1300.5"/>
<text text-anchor="middle" x="816.5" y="-1288.5" font-family="Helvetica,sans-Serif" font-size="10.00">ImGui::IsMouseReleased</text>
</a>
</g>
</g>
<!-- Node4&#45;&gt;Node52 -->
<g id="edge18" class="edge">
<title>Node4&#45;&gt;Node52</title>
<path fill="none" stroke="#63b8ff" d="M606.09,-1113.57C619.09,-1142.79 662.53,-1231.36 728,-1273 731.2,-1275.03 734.58,-1276.84 738.09,-1278.45"/>
<polygon fill="#63b8ff" stroke="#63b8ff" points="737.03,-1281.8 747.61,-1282.26 739.63,-1275.3 737.03,-1281.8"/>
</g>
<!-- Node53 -->
<g id="node18" class="node">
<title>Node53</title>
<g id="a_node18"><a xlink:href="namespaceImGui.html#a1d7304e335dbe35c4d97b67854111ed2" target="_top" xlink:title=" ">
<polygon fill="#fff0f0" stroke="red" points="879,-980.5 754,-980.5 754,-961.5 879,-961.5 879,-980.5"/>
<text text-anchor="middle" x="816.5" y="-968.5" font-family="Helvetica,sans-Serif" font-size="10.00">ImGui::ItemHoverable</text>
</a>
</g>
</g>
<!-- Node4&#45;&gt;Node53 -->
<g id="edge21" class="edge">
<title>Node4&#45;&gt;Node53</title>
<path fill="none" stroke="#63b8ff" d="M610.41,-1094.23C629.25,-1072.94 677.23,-1022.11 728,-995 736.75,-990.33 746.5,-986.5 756.22,-983.38"/>
<polygon fill="#63b8ff" stroke="#63b8ff" points="757.3,-986.71 765.89,-980.5 755.3,-980 757.3,-986.71"/>
</g>
<!-- Node89 -->
<g id="node23" class="node">
<title>Node89</title>
<g id="a_node23"><a xlink:href="namespaceImGui.html#aba1f0c75d6f98702e6b02eb1bc30d915" target="_top" xlink:title=" ">
<polygon fill="white" stroke="#666666" points="1079.5,-947.5 960.5,-947.5 960.5,-928.5 1079.5,-928.5 1079.5,-947.5"/>
<text text-anchor="middle" x="1020" y="-935.5" font-family="Helvetica,sans-Serif" font-size="10.00">ImGui::SetHoveredID</text>
</a>
</g>
</g>
<!-- Node4&#45;&gt;Node89 -->
<g id="edge33" class="edge">
<title>Node4&#45;&gt;Node89</title>
<path fill="none" stroke="#63b8ff" d="M606.53,-1094.23C620.16,-1066.13 663.86,-985.05 728,-953 799.58,-917.22 893.82,-919.94 955.37,-927.23"/>
<polygon fill="#63b8ff" stroke="#63b8ff" points="954.98,-930.71 965.34,-928.48 955.86,-923.76 954.98,-930.71"/>
</g>
<!-- Node496 -->
<g id="node24" class="node">
<title>Node496</title>
<g id="a_node24"><a xlink:href="namespaceImGui.html#a8ad578d7141486ff12b59b0c251234e6" target="_top" xlink:title=" ">
<polygon fill="#fff0f0" stroke="red" points="869.5,-866.5 763.5,-866.5 763.5,-847.5 869.5,-847.5 869.5,-866.5"/>
<text text-anchor="middle" x="816.5" y="-854.5" font-family="Helvetica,sans-Serif" font-size="10.00">ImGui::SetFocusID</text>
</a>
</g>
</g>
<!-- Node4&#45;&gt;Node496 -->
<g id="edge32" class="edge">
<title>Node4&#45;&gt;Node496</title>
<path fill="none" stroke="#63b8ff" d="M604.58,-1094.18C614.28,-1059.31 651.89,-940.32 728,-881 735.56,-875.11 744.47,-870.66 753.66,-867.3"/>
<polygon fill="#63b8ff" stroke="#63b8ff" points="754.86,-870.59 763.3,-864.18 752.71,-863.93 754.86,-870.59"/>
</g>
<!-- Node497 -->
<g id="node25" class="node">
<title>Node497</title>
<g id="a_node25"><a xlink:href="namespaceImGui.html#ac415798dd69ab045cda84dd14a52c3ea" target="_top" xlink:title=" ">
<polygon fill="#fff0f0" stroke="red" points="875,-1424.5 758,-1424.5 758,-1405.5 875,-1405.5 875,-1424.5"/>
<text text-anchor="middle" x="816.5" y="-1412.5" font-family="Helvetica,sans-Serif" font-size="10.00">ImGui::SetKeyOwner</text>
</a>
</g>
</g>
<!-- Node4&#45;&gt;Node497 -->
<g id="edge34" class="edge">
<title>Node4&#45;&gt;Node497</title>
<path fill="none" stroke="#63b8ff" d="M607.08,-1113.61C621.46,-1141.01 663.26,-1222.05 692,-1292 710.59,-1337.24 691.41,-1363.54 728,-1396 733.89,-1401.22 740.87,-1405.12 748.28,-1408.02"/>
<polygon fill="#63b8ff" stroke="#63b8ff" points="747.25,-1411.37 757.85,-1411.18 749.45,-1404.72 747.25,-1411.37"/>
</g>
<!-- Node6&#45;&gt;Node7 -->
<g id="edge6" class="edge">
<title>Node6&#45;&gt;Node7</title>
<path fill="none" stroke="#63b8ff" d="M1048.52,-1018.39C1063.5,-1013.09 1082.32,-1006.33 1099,-1000 1120.77,-991.74 1145.09,-982.01 1164,-974.34"/>
<polygon fill="#63b8ff" stroke="#63b8ff" points="1165.4,-977.55 1173.35,-970.53 1162.76,-971.06 1165.4,-977.55"/>
</g>
<!-- Node12&#45;&gt;Node6 -->
<g id="edge8" class="edge">
<title>Node12&#45;&gt;Node6</title>
<path fill="none" stroke="#63b8ff" d="M876.05,-1041.48C899.23,-1039.29 926.05,-1036.76 950.16,-1034.49"/>
<polygon fill="#63b8ff" stroke="#63b8ff" points="950.67,-1037.96 960.3,-1033.53 950.02,-1030.99 950.67,-1037.96"/>
</g>
<!-- Node46&#45;&gt;Node46 -->
<g id="edge14" class="edge">
<title>Node46&#45;&gt;Node46</title>
<path fill="none" stroke="#63b8ff" d="M785.37,-1132.58C770.22,-1141.23 780.6,-1150.5 816.5,-1150.5 841.74,-1150.5 854.37,-1145.92 854.37,-1140.19"/>
<polygon fill="#63b8ff" stroke="#63b8ff" points="856.89,-1137.75 847.63,-1132.58 851.65,-1142.39 856.89,-1137.75"/>
</g>
<!-- Node47&#45;&gt;Node48 -->
<g id="edge16" class="edge">
<title>Node47&#45;&gt;Node48</title>
<path fill="none" stroke="#63b8ff" d="M869.39,-1263.53C896.08,-1268.43 928.81,-1274.44 956.84,-1279.59"/>
<polygon fill="#63b8ff" stroke="#63b8ff" points="956.47,-1283.08 966.93,-1281.44 957.73,-1276.19 956.47,-1283.08"/>
</g>
<!-- Node47&#45;&gt;Node49 -->
<g id="edge17" class="edge">
<title>Node47&#45;&gt;Node49</title>
<path fill="none" stroke="#63b8ff" d="M876.6,-1254C899.25,-1254 925.33,-1254 948.92,-1254"/>
<polygon fill="#63b8ff" stroke="#63b8ff" points="949.21,-1257.5 959.21,-1254 949.21,-1250.5 949.21,-1257.5"/>
</g>
<!-- Node52&#45;&gt;Node48 -->
<g id="edge19" class="edge">
<title>Node52&#45;&gt;Node48</title>
<path fill="none" stroke="#63b8ff" d="M885.16,-1291C901.88,-1291 919.98,-1291 937.29,-1291"/>
<polygon fill="#63b8ff" stroke="#63b8ff" points="937.38,-1294.5 947.38,-1291 937.38,-1287.5 937.38,-1294.5"/>
</g>
<!-- Node52&#45;&gt;Node49 -->
<g id="edge20" class="edge">
<title>Node52&#45;&gt;Node49</title>
<path fill="none" stroke="#63b8ff" d="M869.39,-1281.47C896.08,-1276.57 928.81,-1270.56 956.84,-1265.41"/>
<polygon fill="#63b8ff" stroke="#63b8ff" points="957.73,-1268.81 966.93,-1263.56 956.47,-1261.92 957.73,-1268.81"/>
</g>
<!-- Node53&#45;&gt;Node6 -->
<g id="edge23" class="edge">
<title>Node53&#45;&gt;Node6</title>
<path fill="none" stroke="#63b8ff" d="M851.23,-980.54C885.23,-990.16 937.86,-1005.05 975.1,-1015.58"/>
<polygon fill="#63b8ff" stroke="#63b8ff" points="974.59,-1019.07 985.16,-1018.43 976.49,-1012.34 974.59,-1019.07"/>
</g>
<!-- Node53&#45;&gt;Node38 -->
<g id="edge24" class="edge">
<title>Node53&#45;&gt;Node38</title>
<path fill="none" stroke="#63b8ff" d="M879.05,-974.05C900.73,-975.13 925.28,-976.35 947.69,-977.46"/>
<polygon fill="#63b8ff" stroke="#63b8ff" points="947.66,-980.96 957.83,-977.96 948.01,-973.97 947.66,-980.96"/>
</g>
<!-- Node54 -->
<g id="node19" class="node">
<title>Node54</title>
<g id="a_node19"><a xlink:href="structImDrawList.html#ad96f10a3e954fe0c5b7c96d4e205af7b" target="_top" xlink:title=" ">
<polygon fill="#fff0f0" stroke="red" points="1079.5,-371.5 960.5,-371.5 960.5,-352.5 1079.5,-352.5 1079.5,-371.5"/>
<text text-anchor="middle" x="1020" y="-359.5" font-family="Helvetica,sans-Serif" font-size="10.00">ImDrawList::AddRect</text>
</a>
</g>
</g>
<!-- Node53&#45;&gt;Node54 -->
<g id="edge22" class="edge">
<title>Node53&#45;&gt;Node54</title>
<path fill="none" stroke="#63b8ff" d="M830.75,-961.39C850.84,-945.96 888.44,-913.54 905,-876 979.56,-707.02 873.42,-633.89 941,-462 954.18,-428.47 982.38,-396.95 1001.01,-378.57"/>
<polygon fill="#63b8ff" stroke="#63b8ff" points="1003.55,-380.98 1008.34,-371.53 998.7,-375.93 1003.55,-380.98"/>
</g>
<!-- Node84 -->
<g id="node20" class="node">
<title>Node84</title>
<g id="a_node20"><a xlink:href="namespaceImGui.html#ae0b8ea0e06c457316d6aed6c5b2a1c25" target="_top" xlink:title=" ">
<polygon fill="#fff0f0" stroke="red" points="1099,-528.5 941,-528.5 941,-509.5 1099,-509.5 1099,-528.5"/>
<text text-anchor="middle" x="1020" y="-516.5" font-family="Helvetica,sans-Serif" font-size="10.00">ImGui::IsMouseHoveringRect</text>
</a>
</g>
</g>
<!-- Node53&#45;&gt;Node84 -->
<g id="edge25" class="edge">
<title>Node53&#45;&gt;Node84</title>
<path fill="none" stroke="#63b8ff" d="M829.15,-961.41C847.74,-945.5 884.15,-911.86 905,-876 973.39,-758.4 1006.11,-594.74 1015.81,-538.72"/>
<polygon fill="#63b8ff" stroke="#63b8ff" points="1019.28,-539.16 1017.49,-528.72 1012.38,-538 1019.28,-539.16"/>
</g>
<!-- Node53&#45;&gt;Node89 -->
<g id="edge29" class="edge">
<title>Node53&#45;&gt;Node89</title>
<path fill="none" stroke="#63b8ff" d="M875.51,-961.5C899.01,-957.65 926.33,-953.18 950.77,-949.17"/>
<polygon fill="#63b8ff" stroke="#63b8ff" points="951.4,-952.62 960.7,-947.55 950.27,-945.71 951.4,-952.62"/>
</g>
<!-- Node85 -->
<g id="node21" class="node">
<title>Node85</title>
<g id="a_node21"><a xlink:href="structImRect.html#ac02d5cf6ce0358aea9ed9df43d368f3f" target="_top" xlink:title=" ">
<polygon fill="#fff0f0" stroke="red" points="1246.5,-252.5 1148.5,-252.5 1148.5,-233.5 1246.5,-233.5 1246.5,-252.5"/>
<text text-anchor="middle" x="1197.5" y="-240.5" font-family="Helvetica,sans-Serif" font-size="10.00">ImRect::ClipWith</text>
</a>
</g>
</g>
<!-- Node84&#45;&gt;Node85 -->
<g id="edge26" class="edge">
<title>Node84&#45;&gt;Node85</title>
<path fill="none" stroke="#63b8ff" d="M1082.67,-509.35C1088.61,-506.67 1094.2,-503.28 1099,-499 1171.25,-434.48 1190.25,-310.58 1195,-262.63"/>
<polygon fill="#63b8ff" stroke="#63b8ff" points="1198.49,-262.9 1195.89,-252.63 1191.52,-262.28 1198.49,-262.9"/>
</g>
<!-- Node88 -->
<g id="node22" class="node">
<title>Node88</title>
<g id="a_node22"><a xlink:href="structImRect.html#a0af3bade3781e5e7c6afdf71ccfb0d43" target="_top" xlink:title=" ">
<polygon fill="white" stroke="#666666" points="1248,-490.5 1147,-490.5 1147,-471.5 1248,-471.5 1248,-490.5"/>
<text text-anchor="middle" x="1197.5" y="-478.5" font-family="Helvetica,sans-Serif" font-size="10.00">ImRect::Overlaps</text>
</a>
</g>
</g>
<!-- Node84&#45;&gt;Node88 -->
<g id="edge28" class="edge">
<title>Node84&#45;&gt;Node88</title>
<path fill="none" stroke="#63b8ff" d="M1065.29,-509.41C1088.76,-504.33 1117.78,-498.04 1142.56,-492.68"/>
<polygon fill="#63b8ff" stroke="#63b8ff" points="1143.5,-496.06 1152.53,-490.52 1142.02,-489.22 1143.5,-496.06"/>
</g>
<!-- Node85&#45;&gt;Node37 -->
<g id="edge27" class="edge">
<title>Node85&#45;&gt;Node37</title>
<path fill="none" stroke="#63b8ff" d="M1229.16,-252.59C1246.52,-258.02 1268.26,-264.82 1286.12,-270.4"/>
<polygon fill="#63b8ff" stroke="#63b8ff" points="1285.27,-273.81 1295.86,-273.45 1287.36,-267.12 1285.27,-273.81"/>
</g>
<!-- Node498&#45;&gt;Node37 -->
<g id="edge38" class="edge">
<title>Node498&#45;&gt;Node37</title>
<path fill="none" stroke="#63b8ff" d="M656.71,-640.54C678.78,-643.94 704.53,-647.33 728,-649 973.05,-666.41 1098.05,-683.72 1260,-499 1311.09,-440.72 1319.06,-342.67 1320.04,-300.86"/>
<polygon fill="#63b8ff" stroke="#63b8ff" points="1323.54,-300.67 1320.16,-290.63 1316.54,-300.59 1323.54,-300.67"/>
</g>
<!-- Node499 -->
<g id="node27" class="node">
<title>Node499</title>
<g id="a_node27"><a xlink:href="namespaceImGui.html#a410c8e19b2fea8b52746ca11b3930301" target="_top" xlink:title=" ">
<polygon fill="white" stroke="#666666" points="899,-640.5 734,-640.5 734,-621.5 899,-621.5 899,-640.5"/>
<text text-anchor="middle" x="816.5" y="-628.5" font-family="Helvetica,sans-Serif" font-size="10.00">ImGui::GetContentRegionAvail</text>
</a>
</g>
</g>
<!-- Node498&#45;&gt;Node499 -->
<g id="edge37" class="edge">
<title>Node498&#45;&gt;Node499</title>
<path fill="none" stroke="#63b8ff" d="M659.21,-631C678.94,-631 701.57,-631 723.37,-631"/>
<polygon fill="#63b8ff" stroke="#63b8ff" points="723.64,-634.5 733.64,-631 723.64,-627.5 723.64,-634.5"/>
</g>
<!-- Node171 -->
<g id="node29" class="node">
<title>Node171</title>
<g id="a_node29"><a xlink:href="structImFont.html#a418146c00c3dee351a411b952cce5175" target="_top" xlink:title=" ">
<polygon fill="#fff0f0" stroke="red" points="1260,-215.5 1135,-215.5 1135,-196.5 1260,-196.5 1260,-215.5"/>
<text text-anchor="middle" x="1197.5" y="-203.5" font-family="Helvetica,sans-Serif" font-size="10.00">ImFont::CalcTextSizeA</text>
</a>
</g>
</g>
<!-- Node170&#45;&gt;Node171 -->
<g id="edge40" class="edge">
<title>Node170&#45;&gt;Node171</title>
<path fill="none" stroke="#63b8ff" d="M657.66,-239.54C765.93,-232.8 1004.73,-217.94 1124.72,-210.47"/>
<polygon fill="#63b8ff" stroke="#63b8ff" points="1125.14,-213.95 1134.91,-209.83 1124.71,-206.96 1125.14,-213.95"/>
</g>
<!-- Node281 -->
<g id="node30" class="node">
<title>Node281</title>
<g id="a_node30"><a xlink:href="namespaceImGui.html#a7671e1dbc803a31b06081b52a771d83f" target="_top" xlink:title=" ">
<polygon fill="white" stroke="#666666" points="895,-214.5 738,-214.5 738,-195.5 895,-195.5 895,-214.5"/>
<text text-anchor="middle" x="816.5" y="-202.5" font-family="Helvetica,sans-Serif" font-size="10.00">ImGui::FindRenderedTextEnd</text>
</a>
</g>
</g>
<!-- Node170&#45;&gt;Node281 -->
<g id="edge42" class="edge">
<title>Node170&#45;&gt;Node281</title>
<path fill="none" stroke="#63b8ff" d="M655.6,-233.46C684.79,-228.27 721.09,-221.8 751.72,-216.35"/>
<polygon fill="#63b8ff" stroke="#63b8ff" points="752.65,-219.74 761.88,-214.54 751.42,-212.85 752.65,-219.74"/>
</g>
<!-- Node171&#45;&gt;Node37 -->
<g id="edge41" class="edge">
<title>Node171&#45;&gt;Node37</title>
<path fill="none" stroke="#63b8ff" d="M1240.95,-215.53C1247.55,-217.82 1254.12,-220.61 1260,-224 1277.98,-234.35 1294.76,-251.15 1305.98,-263.84"/>
<polygon fill="#63b8ff" stroke="#63b8ff" points="1303.35,-266.15 1312.5,-271.48 1308.67,-261.6 1303.35,-266.15"/>
</g>
<!-- Node131 -->
<g id="node32" class="node">
<title>Node131</title>
<g id="a_node32"><a xlink:href="namespaceImGui.html#abe2691de0b1a71c774ab24cc91564a94" target="_top" xlink:title=" ">
<polygon fill="white" stroke="#666666" points="1093,-30 947,-30 947,0 1093,0 1093,-30"/>
<text text-anchor="start" x="955" y="-18" font-family="Helvetica,sans-Serif" font-size="10.00">ImGui::ColorConvertFloat4</text>
<text text-anchor="middle" x="1020" y="-7" font-family="Helvetica,sans-Serif" font-size="10.00">ToU32</text>
</a>
</g>
</g>
<!-- Node138&#45;&gt;Node131 -->
<g id="edge44" class="edge">
<title>Node138&#45;&gt;Node131</title>
<path fill="none" stroke="#63b8ff" d="M873.63,-15C893.23,-15 915.66,-15 936.93,-15"/>
<polygon fill="#63b8ff" stroke="#63b8ff" points="936.94,-18.5 946.94,-15 936.94,-11.5 936.94,-18.5"/>
</g>
<!-- Node18 -->
<g id="node34" class="node">
<title>Node18</title>
<g id="a_node34"><a xlink:href="structImVector.html#a2d80e87e81b1b01143c8d8be93e6fde1" target="_top" xlink:title=" ">
<polygon fill="white" stroke="#666666" points="861,-790.5 772,-790.5 772,-771.5 861,-771.5 861,-790.5"/>
<text text-anchor="middle" x="816.5" y="-778.5" font-family="Helvetica,sans-Serif" font-size="10.00">ImVector::back</text>
</a>
</g>
</g>
<!-- Node376&#45;&gt;Node18 -->
<g id="edge47" class="edge">
<title>Node376&#45;&gt;Node18</title>
<path fill="none" stroke="#63b8ff" d="M631.07,-734.58C656.48,-742.76 694.44,-754.51 728,-763 738.82,-765.74 750.47,-768.36 761.63,-770.71"/>
<polygon fill="#63b8ff" stroke="#63b8ff" points="761.21,-774.2 771.71,-772.8 762.62,-767.34 761.21,-774.2"/>
</g>
<!-- Node377 -->
<g id="node35" class="node">
<title>Node377</title>
<g id="a_node35"><a xlink:href="namespaceImGui.html#a5487269f4cb9fb809fd3e797411ed2d7" target="_top" xlink:title=" ">
<polygon fill="#fff0f0" stroke="red" points="885,-753.5 748,-753.5 748,-734.5 885,-734.5 885,-753.5"/>
<text text-anchor="middle" x="816.5" y="-741.5" font-family="Helvetica,sans-Serif" font-size="10.00">ImGui::DebugHookIdInfo</text>
</a>
</g>
</g>
<!-- Node376&#45;&gt;Node377 -->
<g id="edge48" class="edge">
<title>Node376&#45;&gt;Node377</title>
<path fill="none" stroke="#63b8ff" d="M660.06,-730.17C684.04,-732.3 712.19,-734.81 737.91,-737.09"/>
<polygon fill="#63b8ff" stroke="#63b8ff" points="737.73,-740.59 748,-737.99 738.35,-733.62 737.73,-740.59"/>
</g>
<!-- Node117 -->
<g id="node36" class="node">
<title>Node117</title>
<g id="a_node36"><a xlink:href="imgui_8cpp.html#ab6659b5d67f7a3369e099ce890e12223" target="_top" xlink:title=" ">
<polygon fill="white" stroke="#666666" points="850.5,-716.5 782.5,-716.5 782.5,-697.5 850.5,-697.5 850.5,-716.5"/>
<text text-anchor="middle" x="816.5" y="-704.5" font-family="Helvetica,sans-Serif" font-size="10.00">ImHashStr</text>
</a>
</g>
</g>
<!-- Node376&#45;&gt;Node117 -->
<g id="edge49" class="edge">
<title>Node376&#45;&gt;Node117</title>
<path fill="none" stroke="#63b8ff" d="M660.06,-720.11C695.49,-717.12 740.03,-713.36 772.34,-710.64"/>
<polygon fill="#63b8ff" stroke="#63b8ff" points="772.7,-714.12 782.37,-709.79 772.12,-707.15 772.7,-714.12"/>
</g>
<!-- Node287&#45;&gt;Node54 -->
<g id="edge51" class="edge">
<title>Node287&#45;&gt;Node54</title>
<path fill="none" stroke="#63b8ff" d="M637.23,-452.47C662.46,-445.72 697.26,-436.56 728,-429 810.63,-408.67 906.94,-386.87 965.41,-373.84"/>
<polygon fill="#63b8ff" stroke="#63b8ff" points="966.52,-377.17 975.52,-371.59 965,-370.34 966.52,-377.17"/>
</g>
<!-- Node287&#45;&gt;Node84 -->
<g id="edge54" class="edge">
<title>Node287&#45;&gt;Node84</title>
<path fill="none" stroke="#63b8ff" d="M647.64,-471.55C671.51,-476.33 701.25,-481.94 728,-486 795.81,-496.29 872.96,-504.9 930.78,-510.74"/>
<polygon fill="#63b8ff" stroke="#63b8ff" points="930.68,-514.25 940.98,-511.76 931.38,-507.28 930.68,-514.25"/>
</g>
<!-- Node287&#45;&gt;Node88 -->
<g id="edge59" class="edge">
<title>Node287&#45;&gt;Node88</title>
<path fill="none" stroke="#63b8ff" d="M647.71,-459.07C735.45,-454.1 933.46,-446.02 1099,-462 1114.77,-463.52 1131.78,-466.4 1147.11,-469.46"/>
<polygon fill="#63b8ff" stroke="#63b8ff" points="1146.4,-472.89 1156.91,-471.49 1147.82,-466.04 1146.4,-472.89"/>
</g>
<!-- Node288 -->
<g id="node38" class="node">
<title>Node288</title>
<g id="a_node38"><a xlink:href="namespaceImGui.html#ae8ab0d7dfc90af8e82db3ed9e7829219" target="_top" xlink:title=" ">
<polygon fill="#fff0f0" stroke="red" points="905,-377 728,-377 728,-347 905,-347 905,-377"/>
<text text-anchor="start" x="736" y="-365" font-family="Helvetica,sans-Serif" font-size="10.00">ImGui::DebugLocateItemResolve</text>
<text text-anchor="middle" x="816.5" y="-354" font-family="Helvetica,sans-Serif" font-size="10.00">WithLastItem</text>
</a>
</g>
</g>
<!-- Node287&#45;&gt;Node288 -->
<g id="edge52" class="edge">
<title>Node287&#45;&gt;Node288</title>
<path fill="none" stroke="#63b8ff" d="M617.02,-452.27C640.16,-437.58 686.21,-409.49 728,-391 736.58,-387.2 745.82,-383.62 754.97,-380.36"/>
<polygon fill="#63b8ff" stroke="#63b8ff" points="756.13,-383.66 764.44,-377.08 753.84,-377.05 756.13,-383.66"/>
</g>
<!-- Node289 -->
<g id="node39" class="node">
<title>Node289</title>
<g id="a_node39"><a xlink:href="namespaceImGui.html#a338deb537666a886cf3ece08c07e9fa9" target="_top" xlink:title=" ">
<polygon fill="#fff0f0" stroke="red" points="891,-603.5 742,-603.5 742,-584.5 891,-584.5 891,-603.5"/>
<text text-anchor="middle" x="816.5" y="-591.5" font-family="Helvetica,sans-Serif" font-size="10.00">ImGui::ItemHandleShortcut</text>
</a>
</g>
</g>
<!-- Node287&#45;&gt;Node289 -->
<g id="edge55" class="edge">
<title>Node287&#45;&gt;Node289</title>
<path fill="none" stroke="#63b8ff" d="M609.67,-471.68C627.73,-493.79 675.41,-548.12 728,-575 732.64,-577.37 737.56,-579.45 742.62,-581.26"/>
<polygon fill="#63b8ff" stroke="#63b8ff" points="741.87,-584.7 752.46,-584.45 744.02,-578.04 741.87,-584.7"/>
</g>
<!-- Node120 -->
<g id="node40" class="node">
<title>Node120</title>
<g id="a_node40"><a xlink:href="namespaceImGui.html#a85a245c78a9f7c351636bdad6e60c488" target="_top" xlink:title=" ">
<polygon fill="white" stroke="#666666" points="872,-566.5 761,-566.5 761,-547.5 872,-547.5 872,-566.5"/>
<text text-anchor="middle" x="816.5" y="-554.5" font-family="Helvetica,sans-Serif" font-size="10.00">ImGui::KeepAliveID</text>
</a>
</g>
</g>
<!-- Node287&#45;&gt;Node120 -->
<g id="edge56" class="edge">
<title>Node287&#45;&gt;Node120</title>
<path fill="none" stroke="#63b8ff" d="M616.16,-471.52C638.88,-486.43 685.28,-515.42 728,-533 738.93,-537.5 750.97,-541.42 762.52,-544.72"/>
<polygon fill="#63b8ff" stroke="#63b8ff" points="761.95,-548.19 772.52,-547.46 763.8,-541.44 761.95,-548.19"/>
</g>
<!-- Node292 -->
<g id="node41" class="node">
<title>Node292</title>
<g id="a_node41"><a xlink:href="namespaceImGui.html#aa217c2f0448788f3c064bf828a8f9d8f" target="_top" xlink:title=" ">
<polygon fill="#fff0f0" stroke="red" points="1085.5,-490.5 954.5,-490.5 954.5,-471.5 1085.5,-471.5 1085.5,-490.5"/>
<text text-anchor="middle" x="1020" y="-478.5" font-family="Helvetica,sans-Serif" font-size="10.00">ImGui::NavProcessItem</text>
</a>
</g>
</g>
<!-- Node287&#45;&gt;Node292 -->
<g id="edge57" class="edge">
<title>Node287&#45;&gt;Node292</title>
<path fill="none" stroke="#63b8ff" d="M647.82,-464.09C719.28,-467.34 858,-473.66 944.13,-477.59"/>
<polygon fill="#63b8ff" stroke="#63b8ff" points="944.22,-481.1 954.37,-478.06 944.54,-474.1 944.22,-481.1"/>
</g>
<!-- Node288&#45;&gt;Node54 -->
<g id="edge53" class="edge">
<title>Node288&#45;&gt;Node54</title>
<path fill="none" stroke="#63b8ff" d="M905,-362C920.04,-362 935.49,-362 949.96,-362"/>
<polygon fill="#63b8ff" stroke="#63b8ff" points="950.3,-365.5 960.3,-362 950.3,-358.5 950.3,-365.5"/>
</g>
<!-- Node292&#45;&gt;Node88 -->
<g id="edge58" class="edge">
<title>Node292&#45;&gt;Node88</title>
<path fill="none" stroke="#63b8ff" d="M1085.85,-481C1102.35,-481 1120.01,-481 1136.27,-481"/>
<polygon fill="#63b8ff" stroke="#63b8ff" points="1136.73,-484.5 1146.73,-481 1136.73,-477.5 1136.73,-484.5"/>
</g>
<!-- Node492&#45;&gt;Node37 -->
<g id="edge61" class="edge">
<title>Node492&#45;&gt;Node37</title>
<path fill="none" stroke="#63b8ff" d="M648.56,-281C782.81,-281 1168.54,-281 1285.79,-281"/>
<polygon fill="#63b8ff" stroke="#63b8ff" points="1285.97,-284.5 1295.97,-281 1285.97,-277.5 1285.97,-284.5"/>
</g>
<!-- Node493 -->
<g id="node43" class="node">
<title>Node493</title>
<g id="a_node43"><a xlink:href="namespaceImGui.html#addd433eb3aae59119e341e80db474f66" target="_top" xlink:title=" ">
<polygon fill="white" stroke="#666666" points="866.5,-328.5 766.5,-328.5 766.5,-309.5 866.5,-309.5 866.5,-328.5"/>
<text text-anchor="middle" x="816.5" y="-316.5" font-family="Helvetica,sans-Serif" font-size="10.00">ImGui::SameLine</text>
</a>
</g>
</g>
<!-- Node492&#45;&gt;Node493 -->
<g id="edge62" class="edge">
<title>Node492&#45;&gt;Node493</title>
<path fill="none" stroke="#63b8ff" d="M648.59,-289.29C680.17,-294.91 722.18,-302.39 756.15,-308.44"/>
<polygon fill="#63b8ff" stroke="#63b8ff" points="755.95,-311.96 766.41,-310.26 757.18,-305.06 755.95,-311.96"/>
</g>
<!-- Node436&#45;&gt;Node54 -->
<g id="edge65" class="edge">
<title>Node436&#45;&gt;Node54</title>
<path fill="none" stroke="#63b8ff" d="M659.79,-138.67C742.17,-150.03 885.6,-171.54 905,-186 933.37,-207.14 922.38,-226.91 941,-257 960.97,-289.27 988.11,-324.16 1004.54,-344.49"/>
<polygon fill="#63b8ff" stroke="#63b8ff" points="1001.85,-346.72 1010.88,-352.26 1007.28,-342.3 1001.85,-346.72"/>
</g>
<!-- Node436&#45;&gt;Node138 -->
<g id="edge67" class="edge">
<title>Node436&#45;&gt;Node138</title>
<path fill="none" stroke="#63b8ff" d="M636.65,-121.48C653.76,-116.18 674.44,-108.86 692,-100 731.15,-80.25 772.26,-49.68 795.79,-31.09"/>
<polygon fill="#63b8ff" stroke="#63b8ff" points="798.29,-33.57 803.91,-24.59 793.91,-28.11 798.29,-33.57"/>
</g>
<!-- Node150 -->
<g id="node46" class="node">
<title>Node150</title>
<g id="a_node46"><a xlink:href="structImDrawList.html#a6b16ab764160b0251d2e7b3bd08c1ffc" target="_top" xlink:title=" ">
<polygon fill="#fff0f0" stroke="red" points="889,-138.5 744,-138.5 744,-119.5 889,-119.5 889,-138.5"/>
<text text-anchor="middle" x="816.5" y="-126.5" font-family="Helvetica,sans-Serif" font-size="10.00">ImDrawList::AddRectFilled</text>
</a>
</g>
</g>
<!-- Node436&#45;&gt;Node150 -->
<g id="edge66" class="edge">
<title>Node436&#45;&gt;Node150</title>
<path fill="none" stroke="#63b8ff" d="M659.78,-130.46C682.57,-130.25 709.17,-130 733.86,-129.76"/>
<polygon fill="#63b8ff" stroke="#63b8ff" points="733.98,-133.26 743.95,-129.67 733.91,-126.26 733.98,-133.26"/>
</g>
<!-- Node302&#45;&gt;Node54 -->
<g id="edge69" class="edge">
<title>Node302&#45;&gt;Node54</title>
<path fill="none" stroke="#63b8ff" d="M669.75,-79.44C748.17,-77.95 870.94,-80.64 905,-110 955.95,-153.92 912.38,-196.13 941,-257 957.06,-291.16 985.16,-325.24 1002.88,-344.93"/>
<polygon fill="#63b8ff" stroke="#63b8ff" points="1000.44,-347.44 1009.78,-352.45 1005.6,-342.71 1000.44,-347.44"/>
</g>
<!-- Node302&#45;&gt;Node85 -->
<g id="edge70" class="edge">
<title>Node302&#45;&gt;Node85</title>
<path fill="none" stroke="#63b8ff" d="M649.1,-72.47C709.69,-62.13 817.55,-50.29 905,-76 1021.62,-110.28 1024.8,-172.7 1135,-224 1139.75,-226.21 1144.83,-228.25 1149.95,-230.11"/>
<polygon fill="#63b8ff" stroke="#63b8ff" points="1149.19,-233.55 1159.79,-233.45 1151.44,-226.92 1149.19,-233.55"/>
</g>
<!-- Node302&#45;&gt;Node138 -->
<g id="edge71" class="edge">
<title>Node302&#45;&gt;Node138</title>
<path fill="none" stroke="#63b8ff" d="M628.39,-72.47C653.78,-63.42 693.31,-49.66 728,-39 741.2,-34.94 755.62,-30.85 768.87,-27.22"/>
<polygon fill="#63b8ff" stroke="#63b8ff" points="770.01,-30.54 778.74,-24.55 768.18,-23.78 770.01,-30.54"/>
</g>
<!-- Node453&#45;&gt;Node281 -->
<g id="edge73" class="edge">
<title>Node453&#45;&gt;Node281</title>
<path fill="none" stroke="#63b8ff" d="M672.8,-205.67C690.41,-205.59 709.51,-205.5 727.83,-205.41"/>
<polygon fill="#63b8ff" stroke="#63b8ff" points="727.93,-208.91 737.91,-205.36 727.89,-201.91 727.93,-208.91"/>
</g>
</g>
</svg>
