<?xml version="1.0" encoding="UTF-8" standalone="no"?>
<!DOCTYPE svg PUBLIC "-//W3C//DTD SVG 1.1//EN"
 "http://www.w3.org/Graphics/SVG/1.1/DTD/svg11.dtd">
<!-- Generated by graphviz version 2.43.0 (0)
 -->
<!-- Title: mtgb::ImGuiEditor::Update Pages: 1 -->
<svg width="489pt" height="82pt"
 viewBox="0.00 0.00 489.00 82.00" xmlns="http://www.w3.org/2000/svg" xmlns:xlink="http://www.w3.org/1999/xlink">
<g id="graph0" class="graph" transform="scale(1 1) rotate(0) translate(4 78)">
<title>mtgb::ImGuiEditor::Update</title>
<!-- Node1 -->
<g id="node1" class="node">
<title>Node1</title>
<g id="a_node1"><a xlink:title=" ">
<polygon fill="#999999" stroke="#666666" points="112,-42.5 0,-42.5 0,-12.5 112,-12.5 112,-42.5"/>
<text text-anchor="start" x="8" y="-30.5" font-family="Helvetica,sans-Serif" font-size="10.00">mtgb::ImGuiEditor::</text>
<text text-anchor="middle" x="56" y="-19.5" font-family="Helvetica,sans-Serif" font-size="10.00">Update</text>
</a>
</g>
</g>
<!-- Node2 -->
<g id="node2" class="node">
<title>Node2</title>
<g id="a_node2"><a xlink:href="classmtgb_1_1InputUtil.html#a920280bc3d6f2d8f967385d733aad1b2" target="_top" xlink:title=" ">
<polygon fill="white" stroke="#666666" points="293,-56 162,-56 162,-37 293,-37 293,-56"/>
<text text-anchor="middle" x="227.5" y="-44" font-family="Helvetica,sans-Serif" font-size="10.00">mtgb::InputUtil::GetKey</text>
</a>
</g>
</g>
<!-- Node1&#45;&gt;Node2 -->
<g id="edge1" class="edge">
<title>Node1&#45;&gt;Node2</title>
<path fill="none" stroke="#63b8ff" d="M112.03,-33.67C124.66,-35.08 138.31,-36.61 151.62,-38.11"/>
<polygon fill="#63b8ff" stroke="#63b8ff" points="151.39,-41.6 161.71,-39.24 152.16,-34.65 151.39,-41.6"/>
</g>
<!-- Node5 -->
<g id="node5" class="node">
<title>Node5</title>
<g id="a_node5"><a xlink:href="classmtgb_1_1InputUtil.html#a4dade03e3bbb665d967f7411d82b8d94" target="_top" xlink:title=" ">
<polygon fill="white" stroke="#666666" points="307,-19 148,-19 148,0 307,0 307,-19"/>
<text text-anchor="middle" x="227.5" y="-7" font-family="Helvetica,sans-Serif" font-size="10.00">mtgb::InputUtil::GetKeyDown</text>
</a>
</g>
</g>
<!-- Node1&#45;&gt;Node5 -->
<g id="edge4" class="edge">
<title>Node1&#45;&gt;Node5</title>
<path fill="none" stroke="#63b8ff" d="M112.03,-21.66C120.23,-20.79 128.85,-19.87 137.54,-18.95"/>
<polygon fill="#63b8ff" stroke="#63b8ff" points="138.16,-22.4 147.73,-17.86 137.42,-15.44 138.16,-22.4"/>
</g>
<!-- Node3 -->
<g id="node3" class="node">
<title>Node3</title>
<g id="a_node3"><a xlink:href="classmtgb_1_1InputUtil.html#a62806c019f0c9cc77efe0ef832ff9ee2" target="_top" xlink:title="入力状態を取得 どのウィンドウでも構わない場合はWindowContext::Firstのウィンドウが取得される">
<polygon fill="white" stroke="#666666" points="481,-74 343,-74 343,-55 481,-55 481,-74"/>
<text text-anchor="middle" x="412" y="-62" font-family="Helvetica,sans-Serif" font-size="10.00">mtgb::InputUtil::GetInput</text>
</a>
</g>
</g>
<!-- Node2&#45;&gt;Node3 -->
<g id="edge2" class="edge">
<title>Node2&#45;&gt;Node3</title>
<path fill="none" stroke="#63b8ff" d="M293.1,-52.87C305.93,-54.14 319.53,-55.48 332.75,-56.78"/>
<polygon fill="#63b8ff" stroke="#63b8ff" points="332.48,-60.27 342.78,-57.77 333.17,-53.31 332.48,-60.27"/>
</g>
<!-- Node4 -->
<g id="node4" class="node">
<title>Node4</title>
<g id="a_node4"><a xlink:href="classmtgb_1_1InputUtil.html#a49655ed15bd2f09cfa36f8b26211c279" target="_top" xlink:title="キーコード構造体列挙型をインデックスに変換">
<polygon fill="white" stroke="#666666" points="473.5,-37 350.5,-37 350.5,-18 473.5,-18 473.5,-37"/>
<text text-anchor="middle" x="412" y="-25" font-family="Helvetica,sans-Serif" font-size="10.00">mtgb::InputUtil::Index</text>
</a>
</g>
</g>
<!-- Node2&#45;&gt;Node4 -->
<g id="edge3" class="edge">
<title>Node2&#45;&gt;Node4</title>
<path fill="none" stroke="#63b8ff" d="M293.1,-39.77C308.41,-38.18 324.81,-36.47 340.37,-34.85"/>
<polygon fill="#63b8ff" stroke="#63b8ff" points="340.88,-38.32 350.46,-33.8 340.15,-31.36 340.88,-38.32"/>
</g>
</g>
</svg>
