<?xml version="1.0" encoding="UTF-8" standalone="no"?>
<!DOCTYPE svg PUBLIC "-//W3C//DTD SVG 1.1//EN"
 "http://www.w3.org/Graphics/SVG/1.1/DTD/svg11.dtd">
<!-- Generated by graphviz version 2.43.0 (0)
 -->
<!-- Title: mtgb::Draw::FBXModel Pages: 1 -->
<svg width="458pt" height="76pt"
 viewBox="0.00 0.00 458.00 75.50" xmlns="http://www.w3.org/2000/svg" xmlns:xlink="http://www.w3.org/1999/xlink">
<g id="graph0" class="graph" transform="scale(1 1) rotate(0) translate(4 71.5)">
<title>mtgb::Draw::FBXModel</title>
<!-- Node1 -->
<g id="node1" class="node">
<title>Node1</title>
<g id="a_node1"><a xlink:title=" ">
<polygon fill="#999999" stroke="#666666" points="450,-45.5 322,-45.5 322,-26.5 450,-26.5 450,-45.5"/>
<text text-anchor="middle" x="386" y="-33.5" font-family="Helvetica,sans-Serif" font-size="10.00">mtgb::Draw::FBXModel</text>
</a>
</g>
</g>
<!-- Node2 -->
<g id="node2" class="node">
<title>Node2</title>
<g id="a_node2"><a xlink:href="classmtgb_1_1Collider.html#a684b04422fd7be8aafddc9b8ad5b7b50" target="_top" xlink:title=" ">
<polygon fill="white" stroke="#666666" points="285,-67.5 168,-67.5 168,-48.5 285,-48.5 285,-67.5"/>
<text text-anchor="middle" x="226.5" y="-55.5" font-family="Helvetica,sans-Serif" font-size="10.00">mtgb::Collider::Draw</text>
</a>
</g>
</g>
<!-- Node1&#45;&gt;Node2 -->
<g id="edge1" class="edge">
<title>Node1&#45;&gt;Node2</title>
<path fill="none" stroke="#63b8ff" d="M311.79,-46.23C302.82,-47.48 293.75,-48.75 285.06,-49.96"/>
<polygon fill="#63b8ff" stroke="#63b8ff" points="312.43,-49.67 321.85,-44.82 311.46,-42.74 312.43,-49.67"/>
</g>
<!-- Node3 -->
<g id="node3" class="node">
<title>Node3</title>
<g id="a_node3"><a xlink:href="classmtgb_1_1MeshRenderer.html#a4da90b8ef96622cec49f0729b7f4f2cc" target="_top" xlink:title="描画を行う">
<polygon fill="white" stroke="#666666" points="286,-30 167,-30 167,0 286,0 286,-30"/>
<text text-anchor="start" x="175" y="-18" font-family="Helvetica,sans-Serif" font-size="10.00">mtgb::MeshRenderer</text>
<text text-anchor="middle" x="226.5" y="-7" font-family="Helvetica,sans-Serif" font-size="10.00">::Render</text>
</a>
</g>
</g>
<!-- Node1&#45;&gt;Node3 -->
<g id="edge2" class="edge">
<title>Node1&#45;&gt;Node3</title>
<path fill="none" stroke="#63b8ff" d="M311.79,-26.24C303.17,-25.09 294.46,-23.93 286.07,-22.81"/>
<polygon fill="#63b8ff" stroke="#63b8ff" points="311.47,-29.73 321.85,-27.58 312.4,-22.79 311.47,-29.73"/>
</g>
<!-- Node4 -->
<g id="node4" class="node">
<title>Node4</title>
<g id="a_node4"><a xlink:href="classmtgb_1_1MeshRendererCP.html#ac88207e42310f8f7019be0ec12a354f8" target="_top" xlink:title="特定のレイヤーを描画">
<polygon fill="white" stroke="#666666" points="131,-30 0,-30 0,0 131,0 131,-30"/>
<text text-anchor="start" x="8" y="-18" font-family="Helvetica,sans-Serif" font-size="10.00">mtgb::MeshRendererCP</text>
<text text-anchor="middle" x="65.5" y="-7" font-family="Helvetica,sans-Serif" font-size="10.00">::RenderLayer</text>
</a>
</g>
</g>
<!-- Node3&#45;&gt;Node4 -->
<g id="edge3" class="edge">
<title>Node3&#45;&gt;Node4</title>
<path fill="none" stroke="#63b8ff" d="M156.56,-15C148.13,-15 139.53,-15 131.17,-15"/>
<polygon fill="#63b8ff" stroke="#63b8ff" points="156.75,-18.5 166.75,-15 156.75,-11.5 156.75,-18.5"/>
</g>
</g>
</svg>
