<?xml version="1.0" encoding="UTF-8" standalone="no"?>
<!DOCTYPE svg PUBLIC "-//W3C//DTD SVG 1.1//EN"
 "http://www.w3.org/Graphics/SVG/1.1/DTD/svg11.dtd">
<!-- Generated by graphviz version 2.43.0 (0)
 -->
<!-- Title: mtgb::WindowResource::HandleWindowMessage Pages: 1 -->
<svg width="1654pt" height="696pt"
 viewBox="0.00 0.00 1654.00 696.50" xmlns="http://www.w3.org/2000/svg" xmlns:xlink="http://www.w3.org/1999/xlink">
<g id="graph0" class="graph" transform="scale(1 1) rotate(0) translate(4 692.5)">
<title>mtgb::WindowResource::HandleWindowMessage</title>
<!-- Node1 -->
<g id="node1" class="node">
<title>Node1</title>
<g id="a_node1"><a xlink:title=" ">
<polygon fill="#999999" stroke="#666666" points="140,-675 0,-675 0,-645 140,-645 140,-675"/>
<text text-anchor="start" x="8" y="-663" font-family="Helvetica,sans-Serif" font-size="10.00">mtgb::WindowResource</text>
<text text-anchor="middle" x="70" y="-652" font-family="Helvetica,sans-Serif" font-size="10.00">::HandleWindowMessage</text>
</a>
</g>
</g>
<!-- Node2 -->
<g id="node2" class="node">
<title>Node2</title>
<g id="a_node2"><a xlink:href="classmtgb_1_1Game.html#a89610789c1e997fbf101d1137f9407a9" target="_top" xlink:title="ゲームを終了する">
<polygon fill="white" stroke="#666666" points="322,-688.5 220,-688.5 220,-669.5 322,-669.5 322,-688.5"/>
<text text-anchor="middle" x="271" y="-676.5" font-family="Helvetica,sans-Serif" font-size="10.00">mtgb::Game::Exit</text>
</a>
</g>
</g>
<!-- Node1&#45;&gt;Node2 -->
<g id="edge1" class="edge">
<title>Node1&#45;&gt;Node2</title>
<path fill="none" stroke="#63b8ff" d="M140.04,-666.59C162.72,-668.76 187.73,-671.14 209.71,-673.24"/>
<polygon fill="#63b8ff" stroke="#63b8ff" points="209.61,-676.75 219.9,-674.21 210.28,-669.78 209.61,-676.75"/>
</g>
<!-- Node3 -->
<g id="node3" class="node">
<title>Node3</title>
<g id="a_node3"><a xlink:href="imgui__impl__win32_8cpp.html#a87a3f9652a75339308cf5fd5699ef1fd" target="_top" xlink:title="ウィンドウからのメッセージを受信してImGuiの入力やイベントを有効にするためのコールバック関数">
<polygon fill="white" stroke="#666666" points="366,-651.5 176,-651.5 176,-632.5 366,-632.5 366,-651.5"/>
<text text-anchor="middle" x="271" y="-639.5" font-family="Helvetica,sans-Serif" font-size="10.00">ImGui_ImplWin32_WndProcHandler</text>
</a>
</g>
</g>
<!-- Node1&#45;&gt;Node3 -->
<g id="edge2" class="edge">
<title>Node1&#45;&gt;Node3</title>
<path fill="none" stroke="#63b8ff" d="M140.04,-653.75C148.35,-653 156.98,-652.22 165.65,-651.44"/>
<polygon fill="#63b8ff" stroke="#63b8ff" points="166.2,-654.9 175.84,-650.52 165.56,-647.93 166.2,-654.9"/>
</g>
<!-- Node4 -->
<g id="node4" class="node">
<title>Node4</title>
<g id="a_node4"><a xlink:href="namespaceImGui.html#af557a6de5538099a0f6047eb994bbf42" target="_top" xlink:title=" ">
<polygon fill="white" stroke="#666666" points="1251,-679.5 1108,-679.5 1108,-660.5 1251,-660.5 1251,-679.5"/>
<text text-anchor="middle" x="1179.5" y="-667.5" font-family="Helvetica,sans-Serif" font-size="10.00">ImGui::GetCurrentContext</text>
</a>
</g>
</g>
<!-- Node3&#45;&gt;Node4 -->
<g id="edge3" class="edge">
<title>Node3&#45;&gt;Node4</title>
<path fill="none" stroke="#63b8ff" d="M366.06,-648.19C378.15,-648.86 390.37,-649.49 402,-650 655.67,-661.07 956.25,-666.67 1097.51,-668.86"/>
<polygon fill="#63b8ff" stroke="#63b8ff" points="1097.76,-672.37 1107.81,-669.02 1097.86,-665.37 1097.76,-672.37"/>
</g>
<!-- Node5 -->
<g id="node5" class="node">
<title>Node5</title>
<g id="a_node5"><a xlink:href="namespaceImGui.html#a3179e560812f878f3961ce803a5d9302" target="_top" xlink:title=" ">
<polygon fill="white" stroke="#666666" points="1219.5,-631.5 1139.5,-631.5 1139.5,-612.5 1219.5,-612.5 1219.5,-631.5"/>
<text text-anchor="middle" x="1179.5" y="-619.5" font-family="Helvetica,sans-Serif" font-size="10.00">ImGui::GetIO</text>
</a>
</g>
</g>
<!-- Node3&#45;&gt;Node5 -->
<g id="edge4" class="edge">
<title>Node3&#45;&gt;Node5</title>
<path fill="none" stroke="#63b8ff" d="M366.02,-639.92C556.68,-635.72 983.06,-626.31 1128.66,-623.1"/>
<polygon fill="#63b8ff" stroke="#63b8ff" points="1129.13,-626.59 1139.06,-622.87 1128.98,-619.59 1129.13,-626.59"/>
</g>
<!-- Node6 -->
<g id="node6" class="node">
<title>Node6</title>
<g id="a_node6"><a xlink:href="imgui__impl__win32_8cpp.html#a7038e1f34a0be8f5b6023a08973f4431" target="_top" xlink:title=" ">
<polygon fill="white" stroke="#666666" points="604,-326.5 402,-326.5 402,-307.5 604,-307.5 604,-326.5"/>
<text text-anchor="middle" x="503" y="-314.5" font-family="Helvetica,sans-Serif" font-size="10.00">ImGui_ImplWin32_WndProcHandlerEx</text>
</a>
</g>
</g>
<!-- Node3&#45;&gt;Node6 -->
<g id="edge5" class="edge">
<title>Node3&#45;&gt;Node6</title>
<path fill="none" stroke="#63b8ff" d="M278.88,-632.27C311.02,-586.86 446.55,-395.35 489.14,-335.18"/>
<polygon fill="#63b8ff" stroke="#63b8ff" points="492.22,-336.87 495.14,-326.69 486.51,-332.83 492.22,-336.87"/>
</g>
<!-- Node7 -->
<g id="node7" class="node">
<title>Node7</title>
<g id="a_node7"><a xlink:href="structImGuiIO.html#a051243815ff6305cdcd3db8f84c2dfef" target="_top" xlink:title=" ">
<polygon fill="white" stroke="#666666" points="1248,-184.5 1111,-184.5 1111,-165.5 1248,-165.5 1248,-184.5"/>
<text text-anchor="middle" x="1179.5" y="-172.5" font-family="Helvetica,sans-Serif" font-size="10.00">ImGuiIO::AddFocusEvent</text>
</a>
</g>
</g>
<!-- Node6&#45;&gt;Node7 -->
<g id="edge6" class="edge">
<title>Node6&#45;&gt;Node7</title>
<path fill="none" stroke="#63b8ff" d="M510.84,-307.22C528.69,-282.64 579.52,-218.52 640,-194 721.24,-161.05 972.16,-166.16 1100.77,-171.27"/>
<polygon fill="#63b8ff" stroke="#63b8ff" points="1100.81,-174.77 1110.94,-171.68 1101.09,-167.78 1100.81,-174.77"/>
</g>
<!-- Node12 -->
<g id="node12" class="node">
<title>Node12</title>
<g id="a_node12"><a xlink:href="structImGuiIO.html#a0ded7ab1043ea14b65e1d81819878ccc" target="_top" xlink:title=" ">
<polygon fill="white" stroke="#666666" points="1038,-53.5 885,-53.5 885,-34.5 1038,-34.5 1038,-53.5"/>
<text text-anchor="middle" x="961.5" y="-41.5" font-family="Helvetica,sans-Serif" font-size="10.00">ImGuiIO::AddInputCharacter</text>
</a>
</g>
</g>
<!-- Node6&#45;&gt;Node12 -->
<g id="edge11" class="edge">
<title>Node6&#45;&gt;Node12</title>
<path fill="none" stroke="#63b8ff" d="M505.03,-307.23C510.08,-264.9 536.35,-96.48 640,-31 730.09,25.92 864.56,-9.51 926.74,-31.04"/>
<polygon fill="#63b8ff" stroke="#63b8ff" points="925.83,-34.43 936.43,-34.49 928.18,-27.84 925.83,-34.43"/>
</g>
<!-- Node13 -->
<g id="node13" class="node">
<title>Node13</title>
<g id="a_node13"><a xlink:href="structImGuiIO.html#a09ce496becb406f0fbe94dc35915af64" target="_top" xlink:title=" ">
<polygon fill="white" stroke="#666666" points="811.5,-70 658.5,-70 658.5,-40 811.5,-40 811.5,-70"/>
<text text-anchor="start" x="666.5" y="-58" font-family="Helvetica,sans-Serif" font-size="10.00">ImGuiIO::AddInputCharacter</text>
<text text-anchor="middle" x="735" y="-47" font-family="Helvetica,sans-Serif" font-size="10.00">UTF16</text>
</a>
</g>
</g>
<!-- Node6&#45;&gt;Node13 -->
<g id="edge13" class="edge">
<title>Node6&#45;&gt;Node13</title>
<path fill="none" stroke="#63b8ff" d="M506.81,-307.32C517.63,-271.8 560.02,-147.47 640,-84 644.43,-80.48 649.29,-77.39 654.39,-74.67"/>
<polygon fill="#63b8ff" stroke="#63b8ff" points="656.28,-77.64 663.79,-70.17 653.26,-71.33 656.28,-77.64"/>
</g>
<!-- Node14 -->
<g id="node14" class="node">
<title>Node14</title>
<g id="a_node14"><a xlink:href="structImGuiIO.html#a9fa5df74047424bb03d7cb29c6fb6ea1" target="_top" xlink:title=" ">
<polygon fill="white" stroke="#666666" points="1266,-129.5 1093,-129.5 1093,-110.5 1266,-110.5 1266,-129.5"/>
<text text-anchor="middle" x="1179.5" y="-117.5" font-family="Helvetica,sans-Serif" font-size="10.00">ImGuiIO::AddMouseButtonEvent</text>
</a>
</g>
</g>
<!-- Node6&#45;&gt;Node14 -->
<g id="edge15" class="edge">
<title>Node6&#45;&gt;Node14</title>
<path fill="none" stroke="#63b8ff" d="M509.17,-307.32C524.64,-279.46 573.66,-198.98 640,-166 715.28,-128.57 949.05,-121 1082.52,-119.83"/>
<polygon fill="#63b8ff" stroke="#63b8ff" points="1082.77,-123.33 1092.75,-119.75 1082.72,-116.33 1082.77,-123.33"/>
</g>
<!-- Node15 -->
<g id="node15" class="node">
<title>Node15</title>
<g id="a_node15"><a xlink:href="structImGuiIO.html#ab6423058bbb3503c3cf66e0e45ee606d" target="_top" xlink:title=" ">
<polygon fill="white" stroke="#666666" points="1258.5,-221.5 1100.5,-221.5 1100.5,-202.5 1258.5,-202.5 1258.5,-221.5"/>
<text text-anchor="middle" x="1179.5" y="-209.5" font-family="Helvetica,sans-Serif" font-size="10.00">ImGuiIO::AddMousePosEvent</text>
</a>
</g>
</g>
<!-- Node6&#45;&gt;Node15 -->
<g id="edge19" class="edge">
<title>Node6&#45;&gt;Node15</title>
<path fill="none" stroke="#63b8ff" d="M514.62,-307.41C536.29,-288.56 587.95,-247.07 640,-231 793.91,-183.46 984.41,-191.28 1092.64,-201.49"/>
<polygon fill="#63b8ff" stroke="#63b8ff" points="1092.56,-205 1102.85,-202.48 1093.24,-198.03 1092.56,-205"/>
</g>
<!-- Node17 -->
<g id="node17" class="node">
<title>Node17</title>
<g id="a_node17"><a xlink:href="structImGuiIO.html#adc3cac2515e40a80c6dc961800ed221f" target="_top" xlink:title=" ">
<polygon fill="white" stroke="#666666" points="822,-441.5 648,-441.5 648,-422.5 822,-422.5 822,-441.5"/>
<text text-anchor="middle" x="735" y="-429.5" font-family="Helvetica,sans-Serif" font-size="10.00">ImGuiIO::AddMouseSourceEvent</text>
</a>
</g>
</g>
<!-- Node6&#45;&gt;Node17 -->
<g id="edge23" class="edge">
<title>Node6&#45;&gt;Node17</title>
<path fill="none" stroke="#63b8ff" d="M514.34,-326.65C535.9,-346.21 587.98,-390.57 640,-413 646.06,-415.61 652.5,-417.87 659.05,-419.82"/>
<polygon fill="#63b8ff" stroke="#63b8ff" points="658.13,-423.2 668.7,-422.47 659.98,-416.45 658.13,-423.2"/>
</g>
<!-- Node18 -->
<g id="node18" class="node">
<title>Node18</title>
<g id="a_node18"><a xlink:href="structImGuiIO.html#a3c5ad00141194e3a01c9efbcb53cd5a1" target="_top" xlink:title=" ">
<polygon fill="white" stroke="#666666" points="1047.5,-99.5 875.5,-99.5 875.5,-80.5 1047.5,-80.5 1047.5,-99.5"/>
<text text-anchor="middle" x="961.5" y="-87.5" font-family="Helvetica,sans-Serif" font-size="10.00">ImGuiIO::AddMouseWheelEvent</text>
</a>
</g>
</g>
<!-- Node6&#45;&gt;Node18 -->
<g id="edge24" class="edge">
<title>Node6&#45;&gt;Node18</title>
<path fill="none" stroke="#63b8ff" d="M507.46,-307.05C519.56,-273.92 563.46,-166.91 640,-122 677,-100.29 784.78,-93.11 865.21,-90.84"/>
<polygon fill="#63b8ff" stroke="#63b8ff" points="865.46,-94.33 875.37,-90.57 865.28,-87.33 865.46,-94.33"/>
</g>
<!-- Node19 -->
<g id="node19" class="node">
<title>Node19</title>
<g id="a_node19"><a xlink:href="imgui__impl__win32_8cpp.html#a0d6df8cbcae3dbb153da2acda4dd1e07" target="_top" xlink:title=" ">
<polygon fill="white" stroke="#666666" points="821.5,-259.5 648.5,-259.5 648.5,-240.5 821.5,-240.5 821.5,-259.5"/>
<text text-anchor="middle" x="735" y="-247.5" font-family="Helvetica,sans-Serif" font-size="10.00">ImGui_ImplWin32_AddKeyEvent</text>
</a>
</g>
</g>
<!-- Node6&#45;&gt;Node19 -->
<g id="edge26" class="edge">
<title>Node6&#45;&gt;Node19</title>
<path fill="none" stroke="#63b8ff" d="M527.75,-307.47C554.65,-296.96 599.93,-280.06 640,-269 649.63,-266.34 659.91,-263.88 670,-261.68"/>
<polygon fill="#63b8ff" stroke="#63b8ff" points="670.95,-265.06 680.01,-259.57 669.5,-258.21 670.95,-265.06"/>
</g>
<!-- Node30 -->
<g id="node30" class="node">
<title>Node30</title>
<g id="a_node30"><a xlink:href="imgui__impl__win32_8cpp.html#a89061996e57d1d3850ca680093eaa688" target="_top" xlink:title=" ">
<polygon fill="white" stroke="#666666" points="1057,-610.5 866,-610.5 866,-591.5 1057,-591.5 1057,-610.5"/>
<text text-anchor="middle" x="961.5" y="-598.5" font-family="Helvetica,sans-Serif" font-size="10.00">ImGui_ImplWin32_GetBackendData</text>
</a>
</g>
</g>
<!-- Node6&#45;&gt;Node30 -->
<g id="edge40" class="edge">
<title>Node6&#45;&gt;Node30</title>
<path fill="none" stroke="#63b8ff" d="M507.32,-326.78C519.26,-360.42 563.46,-472.29 640,-526 650.95,-533.68 817.41,-570.26 905.98,-589.35"/>
<polygon fill="#63b8ff" stroke="#63b8ff" points="905.35,-592.79 915.87,-591.47 906.83,-585.95 905.35,-592.79"/>
</g>
<!-- Node31 -->
<g id="node31" class="node">
<title>Node31</title>
<g id="a_node31"><a xlink:href="imgui__impl__win32_8cpp.html#ae3b7d79542a3e8cea0ec3374e8f7930c" target="_top" xlink:title=" ">
<polygon fill="white" stroke="#666666" points="816,-404 654,-404 654,-374 816,-374 816,-404"/>
<text text-anchor="start" x="662" y="-392" font-family="Helvetica,sans-Serif" font-size="10.00">ImGui_ImplWin32_GetMouse</text>
<text text-anchor="middle" x="735" y="-381" font-family="Helvetica,sans-Serif" font-size="10.00">SourceFromMessageExtraInfo</text>
</a>
</g>
</g>
<!-- Node6&#45;&gt;Node31 -->
<g id="edge43" class="edge">
<title>Node6&#45;&gt;Node31</title>
<path fill="none" stroke="#63b8ff" d="M528.84,-326.52C555.94,-336.73 600.71,-353.07 640,-365 647.12,-367.16 654.57,-369.29 662.04,-371.33"/>
<polygon fill="#63b8ff" stroke="#63b8ff" points="661.28,-374.75 671.84,-373.96 663.09,-367.99 661.28,-374.75"/>
</g>
<!-- Node32 -->
<g id="node32" class="node">
<title>Node32</title>
<g id="a_node32"><a xlink:href="imgui__impl__win32_8cpp.html#a2942d25da60c96f3681b4ca43de6b426" target="_top" xlink:title=" ">
<polygon fill="white" stroke="#666666" points="812.5,-356 657.5,-356 657.5,-326 812.5,-326 812.5,-356"/>
<text text-anchor="start" x="665.5" y="-344" font-family="Helvetica,sans-Serif" font-size="10.00">ImGui_ImplWin32_KeyEvent</text>
<text text-anchor="middle" x="735" y="-333" font-family="Helvetica,sans-Serif" font-size="10.00">ToImGuiKey</text>
</a>
</g>
</g>
<!-- Node6&#45;&gt;Node32 -->
<g id="edge44" class="edge">
<title>Node6&#45;&gt;Node32</title>
<path fill="none" stroke="#63b8ff" d="M595.23,-326.52C612.27,-328.3 630.03,-330.15 646.93,-331.91"/>
<polygon fill="#63b8ff" stroke="#63b8ff" points="647.02,-335.44 657.33,-333 647.75,-328.48 647.02,-335.44"/>
</g>
<!-- Node33 -->
<g id="node33" class="node">
<title>Node33</title>
<g id="a_node33"><a xlink:href="imgui__impl__win32_8cpp.html#a9e5765b2d898579d5aa03637c29722cd" target="_top" xlink:title=" ">
<polygon fill="white" stroke="#666666" points="830,-614 640,-614 640,-584 830,-584 830,-614"/>
<text text-anchor="start" x="648" y="-602" font-family="Helvetica,sans-Serif" font-size="10.00">ImGui_ImplWin32_UpdateKeyboard</text>
<text text-anchor="middle" x="735" y="-591" font-family="Helvetica,sans-Serif" font-size="10.00">CodePage</text>
</a>
</g>
</g>
<!-- Node6&#45;&gt;Node33 -->
<g id="edge45" class="edge">
<title>Node6&#45;&gt;Node33</title>
<path fill="none" stroke="#63b8ff" d="M506.35,-326.72C515.91,-364.17 555.47,-500.46 640,-570 644.29,-573.52 649,-576.62 653.96,-579.35"/>
<polygon fill="#63b8ff" stroke="#63b8ff" points="652.61,-582.58 663.12,-583.85 655.7,-576.3 652.61,-582.58"/>
</g>
<!-- Node34 -->
<g id="node34" class="node">
<title>Node34</title>
<g id="a_node34"><a xlink:href="imgui__impl__win32_8cpp.html#a2aeb32bb0cfc356c58dddedc7edb7942" target="_top" xlink:title=" ">
<polygon fill="white" stroke="#666666" points="816,-490 654,-490 654,-460 816,-460 816,-490"/>
<text text-anchor="start" x="662" y="-478" font-family="Helvetica,sans-Serif" font-size="10.00">ImGui_ImplWin32_UpdateKey</text>
<text text-anchor="middle" x="735" y="-467" font-family="Helvetica,sans-Serif" font-size="10.00">Modifiers</text>
</a>
</g>
</g>
<!-- Node6&#45;&gt;Node34 -->
<g id="edge47" class="edge">
<title>Node6&#45;&gt;Node34</title>
<path fill="none" stroke="#63b8ff" d="M511,-326.86C529.21,-351.76 580.83,-417.59 640,-451 643.1,-452.75 646.33,-454.37 649.65,-455.88"/>
<polygon fill="#63b8ff" stroke="#63b8ff" points="648.61,-459.24 659.19,-459.83 651.28,-452.77 648.61,-459.24"/>
</g>
<!-- Node35 -->
<g id="node35" class="node">
<title>Node35</title>
<g id="a_node35"><a xlink:href="imgui__impl__win32_8cpp.html#ab053b258f642136586dd18c8acf7e520" target="_top" xlink:title=" ">
<polygon fill="white" stroke="#666666" points="994,-505.5 929,-505.5 929,-486.5 994,-486.5 994,-505.5"/>
<text text-anchor="middle" x="961.5" y="-493.5" font-family="Helvetica,sans-Serif" font-size="10.00">IsVkDown</text>
</a>
</g>
</g>
<!-- Node6&#45;&gt;Node35 -->
<g id="edge51" class="edge">
<title>Node6&#45;&gt;Node35</title>
<path fill="none" stroke="#63b8ff" d="M507.51,-326.58C519.79,-358.46 564.18,-461.01 640,-499 730.9,-544.55 855.32,-523.55 919.1,-507.79"/>
<polygon fill="#63b8ff" stroke="#63b8ff" points="919.98,-511.18 928.8,-505.32 918.25,-504.4 919.98,-511.18"/>
</g>
<!-- Node36 -->
<g id="node36" class="node">
<title>Node36</title>
<g id="a_node36"><a xlink:href="imgui__impl__win32_8cpp.html#ab9ac21db89c81edd0193dc8247039b24" target="_top" xlink:title=" ">
<polygon fill="white" stroke="#666666" points="823,-308 647,-308 647,-278 823,-278 823,-308"/>
<text text-anchor="start" x="655" y="-296" font-family="Helvetica,sans-Serif" font-size="10.00">ImGui_ImplWin32_UpdateMouse</text>
<text text-anchor="middle" x="735" y="-285" font-family="Helvetica,sans-Serif" font-size="10.00">Cursor</text>
</a>
</g>
</g>
<!-- Node6&#45;&gt;Node36 -->
<g id="edge50" class="edge">
<title>Node6&#45;&gt;Node36</title>
<path fill="none" stroke="#63b8ff" d="M595.23,-307.48C608.72,-306.07 622.67,-304.62 636.29,-303.19"/>
<polygon fill="#63b8ff" stroke="#63b8ff" points="637.04,-306.63 646.63,-302.12 636.32,-299.67 637.04,-306.63"/>
</g>
<!-- Node8 -->
<g id="node8" class="node">
<title>Node8</title>
<g id="a_node8"><a xlink:href="imgui_8cpp.html#ac07ec3acbc8eefe52f805b1ed55f670a" target="_top" xlink:title=" ">
<polygon fill="white" stroke="#666666" points="1434.5,-184.5 1315.5,-184.5 1315.5,-165.5 1434.5,-165.5 1434.5,-184.5"/>
<text text-anchor="middle" x="1375" y="-172.5" font-family="Helvetica,sans-Serif" font-size="10.00">FindLatestInputEvent</text>
</a>
</g>
</g>
<!-- Node7&#45;&gt;Node8 -->
<g id="edge7" class="edge">
<title>Node7&#45;&gt;Node8</title>
<path fill="none" stroke="#63b8ff" d="M1248.18,-175C1266.66,-175 1286.7,-175 1305.25,-175"/>
<polygon fill="#63b8ff" stroke="#63b8ff" points="1305.37,-178.5 1315.37,-175 1305.37,-171.5 1305.37,-178.5"/>
</g>
<!-- Node9 -->
<g id="node9" class="node">
<title>Node9</title>
<g id="a_node9"><a xlink:href="structImVector.html#aab5df48e0711a48bd12f3206e08c4108" target="_top" xlink:title=" ">
<polygon fill="white" stroke="#666666" points="1434,-138.5 1316,-138.5 1316,-119.5 1434,-119.5 1434,-138.5"/>
<text text-anchor="middle" x="1375" y="-126.5" font-family="Helvetica,sans-Serif" font-size="10.00">ImVector::push_back</text>
</a>
</g>
</g>
<!-- Node7&#45;&gt;Node9 -->
<g id="edge8" class="edge">
<title>Node7&#45;&gt;Node9</title>
<path fill="none" stroke="#63b8ff" d="M1224.49,-165.46C1237.84,-162.5 1252.53,-159.18 1266,-156 1285.93,-151.29 1307.86,-145.86 1326.73,-141.1"/>
<polygon fill="#63b8ff" stroke="#63b8ff" points="1327.74,-144.46 1336.57,-138.61 1326.02,-137.67 1327.74,-144.46"/>
</g>
<!-- Node10 -->
<g id="node10" class="node">
<title>Node10</title>
<g id="a_node10"><a xlink:href="structImVector.html#a3a097635d464b1b70dc7d59996a88b28" target="_top" xlink:title=" ">
<polygon fill="white" stroke="#666666" points="1636,-157.5 1494,-157.5 1494,-138.5 1636,-138.5 1636,-157.5"/>
<text text-anchor="middle" x="1565" y="-145.5" font-family="Helvetica,sans-Serif" font-size="10.00">ImVector::_grow_capacity</text>
</a>
</g>
</g>
<!-- Node9&#45;&gt;Node10 -->
<g id="edge9" class="edge">
<title>Node9&#45;&gt;Node10</title>
<path fill="none" stroke="#63b8ff" d="M1434.2,-134.88C1449.83,-136.46 1467.01,-138.2 1483.61,-139.87"/>
<polygon fill="#63b8ff" stroke="#63b8ff" points="1483.55,-143.39 1493.85,-140.91 1484.25,-136.42 1483.55,-143.39"/>
</g>
<!-- Node11 -->
<g id="node11" class="node">
<title>Node11</title>
<g id="a_node11"><a xlink:href="structImVector.html#a0f14f5736c3372157856eebb67123b75" target="_top" xlink:title=" ">
<polygon fill="white" stroke="#666666" points="1616.5,-120.5 1513.5,-120.5 1513.5,-101.5 1616.5,-101.5 1616.5,-120.5"/>
<text text-anchor="middle" x="1565" y="-108.5" font-family="Helvetica,sans-Serif" font-size="10.00">ImVector::reserve</text>
</a>
</g>
</g>
<!-- Node9&#45;&gt;Node11 -->
<g id="edge10" class="edge">
<title>Node9&#45;&gt;Node11</title>
<path fill="none" stroke="#63b8ff" d="M1434.2,-123.43C1456.17,-121.32 1481.22,-118.92 1503.41,-116.8"/>
<polygon fill="#63b8ff" stroke="#63b8ff" points="1503.76,-120.28 1513.38,-115.84 1503.1,-113.31 1503.76,-120.28"/>
</g>
<!-- Node12&#45;&gt;Node9 -->
<g id="edge12" class="edge">
<title>Node12&#45;&gt;Node9</title>
<path fill="none" stroke="#63b8ff" d="M1038.06,-48.88C1100.1,-54.15 1189.84,-64.69 1266,-85 1293.82,-92.42 1324.06,-105.17 1345.45,-115.05"/>
<polygon fill="#63b8ff" stroke="#63b8ff" points="1344.07,-118.27 1354.61,-119.35 1347.05,-111.93 1344.07,-118.27"/>
</g>
<!-- Node13&#45;&gt;Node12 -->
<g id="edge14" class="edge">
<title>Node13&#45;&gt;Node12</title>
<path fill="none" stroke="#63b8ff" d="M811.69,-51.29C831.93,-50.3 853.95,-49.22 874.69,-48.2"/>
<polygon fill="#63b8ff" stroke="#63b8ff" points="874.94,-51.7 884.75,-47.71 874.6,-44.7 874.94,-51.7"/>
</g>
<!-- Node14&#45;&gt;Node8 -->
<g id="edge17" class="edge">
<title>Node14&#45;&gt;Node8</title>
<path fill="none" stroke="#63b8ff" d="M1214.21,-129.58C1246.43,-138.74 1295.19,-152.6 1330.37,-162.6"/>
<polygon fill="#63b8ff" stroke="#63b8ff" points="1329.78,-166.07 1340.36,-165.44 1331.7,-159.33 1329.78,-166.07"/>
</g>
<!-- Node14&#45;&gt;Node9 -->
<g id="edge18" class="edge">
<title>Node14&#45;&gt;Node9</title>
<path fill="none" stroke="#63b8ff" d="M1266.22,-123.99C1279.46,-124.6 1292.98,-125.23 1305.77,-125.82"/>
<polygon fill="#63b8ff" stroke="#63b8ff" points="1305.7,-129.33 1315.85,-126.29 1306.02,-122.33 1305.7,-129.33"/>
</g>
<!-- Node14&#45;&gt;Node14 -->
<g id="edge16" class="edge">
<title>Node14&#45;&gt;Node14</title>
<path fill="none" stroke="#63b8ff" d="M1149.6,-129.58C1135.05,-138.23 1145.02,-147.5 1179.5,-147.5 1203.21,-147.5 1215.32,-143.12 1215.86,-137.57"/>
<polygon fill="#63b8ff" stroke="#63b8ff" points="1218.41,-135.16 1209.4,-129.58 1212.96,-139.56 1218.41,-135.16"/>
</g>
<!-- Node15&#45;&gt;Node8 -->
<g id="edge20" class="edge">
<title>Node15&#45;&gt;Node8</title>
<path fill="none" stroke="#63b8ff" d="M1230.33,-202.47C1255.85,-197.59 1287.11,-191.61 1313.95,-186.48"/>
<polygon fill="#63b8ff" stroke="#63b8ff" points="1314.84,-189.87 1324,-184.56 1313.52,-183 1314.84,-189.87"/>
</g>
<!-- Node15&#45;&gt;Node9 -->
<g id="edge22" class="edge">
<title>Node15&#45;&gt;Node9</title>
<path fill="none" stroke="#63b8ff" d="M1243.7,-202.37C1251.47,-199.92 1259.09,-196.85 1266,-193 1286.04,-181.82 1282.79,-168.55 1302,-156 1310.46,-150.47 1320.22,-145.84 1329.77,-142.08"/>
<polygon fill="#63b8ff" stroke="#63b8ff" points="1331.03,-145.34 1339.19,-138.59 1328.6,-138.78 1331.03,-145.34"/>
</g>
<!-- Node16 -->
<g id="node16" class="node">
<title>Node16</title>
<g id="a_node16"><a xlink:href="imgui__internal_8h.html#a51a84b6be21807818b857a8565d97912" target="_top" xlink:title=" ">
<polygon fill="white" stroke="#666666" points="1402,-221.5 1348,-221.5 1348,-202.5 1402,-202.5 1402,-221.5"/>
<text text-anchor="middle" x="1375" y="-209.5" font-family="Helvetica,sans-Serif" font-size="10.00">ImFloor</text>
</a>
</g>
</g>
<!-- Node15&#45;&gt;Node16 -->
<g id="edge21" class="edge">
<title>Node15&#45;&gt;Node16</title>
<path fill="none" stroke="#63b8ff" d="M1258.65,-212C1285.99,-212 1315.4,-212 1337.68,-212"/>
<polygon fill="#63b8ff" stroke="#63b8ff" points="1337.69,-215.5 1347.69,-212 1337.69,-208.5 1337.69,-215.5"/>
</g>
<!-- Node18&#45;&gt;Node9 -->
<g id="edge25" class="edge">
<title>Node18&#45;&gt;Node9</title>
<path fill="none" stroke="#63b8ff" d="M1047.65,-88.16C1108.74,-88.04 1192.83,-90.32 1266,-101 1288.96,-104.35 1314.07,-110.69 1334.3,-116.5"/>
<polygon fill="#63b8ff" stroke="#63b8ff" points="1333.52,-119.91 1344.1,-119.37 1335.49,-113.2 1333.52,-119.91"/>
</g>
<!-- Node20 -->
<g id="node20" class="node">
<title>Node20</title>
<g id="a_node20"><a xlink:href="structImGuiIO.html#a50c3ab6883647aacdf5153a4dbe2cdbe" target="_top" xlink:title=" ">
<polygon fill="white" stroke="#666666" points="1025,-353.5 898,-353.5 898,-334.5 1025,-334.5 1025,-353.5"/>
<text text-anchor="middle" x="961.5" y="-341.5" font-family="Helvetica,sans-Serif" font-size="10.00">ImGuiIO::AddKeyEvent</text>
</a>
</g>
</g>
<!-- Node19&#45;&gt;Node20 -->
<g id="edge27" class="edge">
<title>Node19&#45;&gt;Node20</title>
<path fill="none" stroke="#63b8ff" d="M797.74,-259.51C808.66,-262.03 819.8,-265.15 830,-269 870.72,-284.35 913.69,-311.47 938.75,-328.55"/>
<polygon fill="#63b8ff" stroke="#63b8ff" points="936.92,-331.54 947.13,-334.35 940.9,-325.78 936.92,-331.54"/>
</g>
<!-- Node28 -->
<g id="node28" class="node">
<title>Node28</title>
<g id="a_node28"><a xlink:href="structImGuiIO.html#a6b2fa57fb6af5aa1c99f58115542e1dc" target="_top" xlink:title=" ">
<polygon fill="white" stroke="#666666" points="1051,-259.5 872,-259.5 872,-240.5 1051,-240.5 1051,-259.5"/>
<text text-anchor="middle" x="961.5" y="-247.5" font-family="Helvetica,sans-Serif" font-size="10.00">ImGuiIO::SetKeyEventNativeData</text>
</a>
</g>
</g>
<!-- Node19&#45;&gt;Node28 -->
<g id="edge37" class="edge">
<title>Node19&#45;&gt;Node28</title>
<path fill="none" stroke="#63b8ff" d="M821.51,-250C834.65,-250 848.3,-250 861.69,-250"/>
<polygon fill="#63b8ff" stroke="#63b8ff" points="861.87,-253.5 871.87,-250 861.87,-246.5 861.87,-253.5"/>
</g>
<!-- Node21 -->
<g id="node21" class="node">
<title>Node21</title>
<g id="a_node21"><a xlink:href="structImGuiIO.html#ac88dcffd1c6785d00eedd5616315e48c" target="_top" xlink:title=" ">
<polygon fill="white" stroke="#666666" points="1260,-353.5 1099,-353.5 1099,-334.5 1260,-334.5 1260,-353.5"/>
<text text-anchor="middle" x="1179.5" y="-341.5" font-family="Helvetica,sans-Serif" font-size="10.00">ImGuiIO::AddKeyAnalogEvent</text>
</a>
</g>
</g>
<!-- Node20&#45;&gt;Node21 -->
<g id="edge28" class="edge">
<title>Node20&#45;&gt;Node21</title>
<path fill="none" stroke="#63b8ff" d="M1025.27,-344C1045.05,-344 1067.31,-344 1088.6,-344"/>
<polygon fill="#63b8ff" stroke="#63b8ff" points="1088.63,-347.5 1098.63,-344 1088.63,-340.5 1088.63,-347.5"/>
</g>
<!-- Node21&#45;&gt;Node8 -->
<g id="edge29" class="edge">
<title>Node21&#45;&gt;Node8</title>
<path fill="none" stroke="#63b8ff" d="M1194.14,-334.37C1212.37,-320.95 1244.86,-295.09 1266,-267 1287.99,-237.78 1273.6,-216.04 1302,-193 1303.58,-191.72 1305.23,-190.53 1306.95,-189.42"/>
<polygon fill="#63b8ff" stroke="#63b8ff" points="1308.84,-192.38 1315.99,-184.56 1305.52,-186.22 1308.84,-192.38"/>
</g>
<!-- Node21&#45;&gt;Node9 -->
<g id="edge36" class="edge">
<title>Node21&#45;&gt;Node9</title>
<path fill="none" stroke="#63b8ff" d="M1195.37,-334.33C1214.38,-321.25 1247.08,-296.16 1266,-267 1294.23,-223.49 1266.16,-193.49 1302,-156 1307.14,-150.62 1313.45,-146.31 1320.17,-142.85"/>
<polygon fill="#63b8ff" stroke="#63b8ff" points="1321.85,-145.93 1329.54,-138.64 1318.98,-139.55 1321.85,-145.93"/>
</g>
<!-- Node22 -->
<g id="node22" class="node">
<title>Node22</title>
<g id="a_node22"><a xlink:href="namespaceImGui.html#a6d32d70d6beb45537b605508b78216c3" target="_top" xlink:title=" ">
<polygon fill="white" stroke="#666666" points="1430,-334.5 1320,-334.5 1320,-315.5 1430,-315.5 1430,-334.5"/>
<text text-anchor="middle" x="1375" y="-322.5" font-family="Helvetica,sans-Serif" font-size="10.00">ImGui::GetKeyData</text>
</a>
</g>
</g>
<!-- Node21&#45;&gt;Node22 -->
<g id="edge30" class="edge">
<title>Node21&#45;&gt;Node22</title>
<path fill="none" stroke="#63b8ff" d="M1260.04,-336.19C1276.54,-334.57 1293.74,-332.88 1309.62,-331.32"/>
<polygon fill="#63b8ff" stroke="#63b8ff" points="1310.23,-334.78 1319.84,-330.32 1309.55,-327.81 1310.23,-334.78"/>
</g>
<!-- Node25 -->
<g id="node25" class="node">
<title>Node25</title>
<g id="a_node25"><a xlink:href="namespaceImGui.html#ac8e09701fd3ff94f49df16ecd6526149" target="_top" xlink:title=" ">
<polygon fill="white" stroke="#666666" points="1426,-445.5 1324,-445.5 1324,-426.5 1426,-426.5 1426,-445.5"/>
<text text-anchor="middle" x="1375" y="-433.5" font-family="Helvetica,sans-Serif" font-size="10.00">ImGui::IsAliasKey</text>
</a>
</g>
</g>
<!-- Node21&#45;&gt;Node25 -->
<g id="edge33" class="edge">
<title>Node21&#45;&gt;Node25</title>
<path fill="none" stroke="#63b8ff" d="M1193.28,-353.6C1214.68,-369.24 1259.62,-400.28 1302,-418 1306.98,-420.08 1312.25,-421.96 1317.6,-423.65"/>
<polygon fill="#63b8ff" stroke="#63b8ff" points="1316.66,-427.03 1327.24,-426.5 1318.64,-420.31 1316.66,-427.03"/>
</g>
<!-- Node26 -->
<g id="node26" class="node">
<title>Node26</title>
<g id="a_node26"><a xlink:href="namespaceImGui.html#acbf72e4cb07d326caf3c9b2c29d543d6" target="_top" xlink:title=" ">
<polygon fill="white" stroke="#666666" points="1437.5,-408.5 1312.5,-408.5 1312.5,-389.5 1437.5,-389.5 1437.5,-408.5"/>
<text text-anchor="middle" x="1375" y="-396.5" font-family="Helvetica,sans-Serif" font-size="10.00">ImGui::IsGamepadKey</text>
</a>
</g>
</g>
<!-- Node21&#45;&gt;Node26 -->
<g id="edge34" class="edge">
<title>Node21&#45;&gt;Node26</title>
<path fill="none" stroke="#63b8ff" d="M1210.34,-353.55C1234.86,-361.28 1270.55,-372.28 1302,-381 1309.25,-383.01 1316.94,-385.04 1324.49,-386.97"/>
<polygon fill="#63b8ff" stroke="#63b8ff" points="1323.74,-390.39 1334.29,-389.45 1325.46,-383.61 1323.74,-390.39"/>
</g>
<!-- Node27 -->
<g id="node27" class="node">
<title>Node27</title>
<g id="a_node27"><a xlink:href="namespaceImGui.html#ad97807fb804a4d11866e5bca7d08d59c" target="_top" xlink:title=" ">
<polygon fill="white" stroke="#666666" points="1448,-371.5 1302,-371.5 1302,-352.5 1448,-352.5 1448,-371.5"/>
<text text-anchor="middle" x="1375" y="-359.5" font-family="Helvetica,sans-Serif" font-size="10.00">ImGui::IsNamedKeyOrMod</text>
</a>
</g>
</g>
<!-- Node21&#45;&gt;Node27 -->
<g id="edge35" class="edge">
<title>Node21&#45;&gt;Node27</title>
<path fill="none" stroke="#63b8ff" d="M1260.04,-351.4C1270.55,-352.37 1281.33,-353.38 1291.88,-354.36"/>
<polygon fill="#63b8ff" stroke="#63b8ff" points="1291.62,-357.85 1301.91,-355.29 1292.27,-350.88 1291.62,-357.85"/>
</g>
<!-- Node23 -->
<g id="node23" class="node">
<title>Node23</title>
<g id="a_node23"><a xlink:href="namespaceImGui.html#ad540a8f07e5834f77f76a84626cdc70e" target="_top" xlink:title=" ">
<polygon fill="white" stroke="#666666" points="1646,-345 1484,-345 1484,-315 1646,-315 1646,-345"/>
<text text-anchor="start" x="1492" y="-333" font-family="Helvetica,sans-Serif" font-size="10.00">ImGui::ConvertSingleModFlag</text>
<text text-anchor="middle" x="1565" y="-322" font-family="Helvetica,sans-Serif" font-size="10.00">ToKey</text>
</a>
</g>
</g>
<!-- Node22&#45;&gt;Node23 -->
<g id="edge31" class="edge">
<title>Node22&#45;&gt;Node23</title>
<path fill="none" stroke="#63b8ff" d="M1430.13,-326.44C1443.7,-326.8 1458.63,-327.2 1473.45,-327.59"/>
<polygon fill="#63b8ff" stroke="#63b8ff" points="1473.59,-331.09 1483.68,-327.86 1473.77,-324.1 1473.59,-331.09"/>
</g>
<!-- Node24 -->
<g id="node24" class="node">
<title>Node24</title>
<g id="a_node24"><a xlink:href="namespaceImGui.html#a1e6a2ce7696a25d0dd0cf318e3b48a33" target="_top" xlink:title=" ">
<polygon fill="white" stroke="#666666" points="1621.5,-296.5 1508.5,-296.5 1508.5,-277.5 1621.5,-277.5 1621.5,-296.5"/>
<text text-anchor="middle" x="1565" y="-284.5" font-family="Helvetica,sans-Serif" font-size="10.00">ImGui::IsNamedKey</text>
</a>
</g>
</g>
<!-- Node22&#45;&gt;Node24 -->
<g id="edge32" class="edge">
<title>Node22&#45;&gt;Node24</title>
<path fill="none" stroke="#63b8ff" d="M1423.44,-315.41C1448.81,-310.28 1480.23,-303.93 1506.92,-298.54"/>
<polygon fill="#63b8ff" stroke="#63b8ff" points="1507.79,-301.93 1516.9,-296.52 1506.41,-295.07 1507.79,-301.93"/>
</g>
<!-- Node28&#45;&gt;Node24 -->
<g id="edge39" class="edge">
<title>Node28&#45;&gt;Node24</title>
<path fill="none" stroke="#63b8ff" d="M1026.76,-259.5C1047.83,-262.31 1071.37,-265.13 1093,-267 1237.27,-279.43 1407.1,-284.23 1498.25,-286.01"/>
<polygon fill="#63b8ff" stroke="#63b8ff" points="1498.37,-289.52 1508.43,-286.2 1498.5,-282.52 1498.37,-289.52"/>
</g>
<!-- Node29 -->
<g id="node29" class="node">
<title>Node29</title>
<g id="a_node29"><a xlink:href="namespaceImGui.html#a8737377cd9666008318a3fa66fa943c7" target="_top" xlink:title=" ">
<polygon fill="white" stroke="#666666" points="1236,-258.5 1123,-258.5 1123,-239.5 1236,-239.5 1236,-258.5"/>
<text text-anchor="middle" x="1179.5" y="-246.5" font-family="Helvetica,sans-Serif" font-size="10.00">ImGui::IsLegacyKey</text>
</a>
</g>
</g>
<!-- Node28&#45;&gt;Node29 -->
<g id="edge38" class="edge">
<title>Node28&#45;&gt;Node29</title>
<path fill="none" stroke="#63b8ff" d="M1051.29,-249.59C1071.81,-249.49 1093.28,-249.39 1112.61,-249.3"/>
<polygon fill="#63b8ff" stroke="#63b8ff" points="1112.83,-252.8 1122.81,-249.26 1112.8,-245.8 1112.83,-252.8"/>
</g>
<!-- Node30&#45;&gt;Node4 -->
<g id="edge41" class="edge">
<title>Node30&#45;&gt;Node4</title>
<path fill="none" stroke="#63b8ff" d="M992.53,-610.59C1030.74,-622.8 1096.81,-643.9 1139.05,-657.4"/>
<polygon fill="#63b8ff" stroke="#63b8ff" points="1138.13,-660.78 1148.72,-660.49 1140.26,-654.11 1138.13,-660.78"/>
</g>
<!-- Node30&#45;&gt;Node5 -->
<g id="edge42" class="edge">
<title>Node30&#45;&gt;Node5</title>
<path fill="none" stroke="#63b8ff" d="M1057.24,-610.21C1082.08,-612.62 1107.87,-615.13 1129.25,-617.21"/>
<polygon fill="#63b8ff" stroke="#63b8ff" points="1129.07,-620.71 1139.36,-618.19 1129.75,-613.74 1129.07,-620.71"/>
</g>
<!-- Node33&#45;&gt;Node30 -->
<g id="edge46" class="edge">
<title>Node33&#45;&gt;Node30</title>
<path fill="none" stroke="#63b8ff" d="M830.23,-599.84C838.59,-599.91 847.09,-599.99 855.53,-600.06"/>
<polygon fill="#63b8ff" stroke="#63b8ff" points="855.76,-603.57 865.79,-600.15 855.82,-596.57 855.76,-603.57"/>
</g>
<!-- Node34&#45;&gt;Node20 -->
<g id="edge48" class="edge">
<title>Node34&#45;&gt;Node20</title>
<path fill="none" stroke="#63b8ff" d="M808.52,-459.94C815.95,-457.38 823.24,-454.42 830,-451 876.74,-427.35 921.85,-384.54 944.8,-360.87"/>
<polygon fill="#63b8ff" stroke="#63b8ff" points="947.34,-363.29 951.71,-353.64 942.27,-358.45 947.34,-363.29"/>
</g>
<!-- Node34&#45;&gt;Node35 -->
<g id="edge49" class="edge">
<title>Node34&#45;&gt;Node35</title>
<path fill="none" stroke="#63b8ff" d="M816.1,-482.49C850.75,-485.73 889.87,-489.39 918.65,-492.08"/>
<polygon fill="#63b8ff" stroke="#63b8ff" points="918.47,-495.58 928.75,-493.03 919.12,-488.61 918.47,-495.58"/>
</g>
</g>
</svg>
