<?xml version="1.0" encoding="UTF-8" standalone="no"?>
<!DOCTYPE svg PUBLIC "-//W3C//DTD SVG 1.1//EN"
 "http://www.w3.org/Graphics/SVG/1.1/DTD/svg11.dtd">
<!-- Generated by graphviz version 2.43.0 (0)
 -->
<!-- Title: mtstat::MTStat::OnUpdate Pages: 1 -->
<svg width="332pt" height="86pt"
 viewBox="0.00 0.00 332.00 86.00" xmlns="http://www.w3.org/2000/svg" xmlns:xlink="http://www.w3.org/1999/xlink">
<g id="graph0" class="graph" transform="scale(1 1) rotate(0) translate(4 82)">
<title>mtstat::MTStat::OnUpdate</title>
<!-- Node1 -->
<g id="node1" class="node">
<title>Node1</title>
<g id="a_node1"><a xlink:title=" ">
<polygon fill="#999999" stroke="#666666" points="324,-48.5 180,-48.5 180,-29.5 324,-29.5 324,-48.5"/>
<text text-anchor="middle" x="252" y="-36.5" font-family="Helvetica,sans-Serif" font-size="10.00">mtstat::MTStat::OnUpdate</text>
</a>
</g>
</g>
<!-- Node2 -->
<g id="node2" class="node">
<title>Node2</title>
<g id="a_node2"><a xlink:href="classmtgb_1_1ImGuiEditorCamera.html#ae593d5e8b81e1fe8d6efc3ddb8ecb9a2" target="_top" xlink:title=" ">
<polygon fill="white" stroke="#666666" points="144,-78 0,-78 0,-48 144,-48 144,-78"/>
<text text-anchor="start" x="8" y="-66" font-family="Helvetica,sans-Serif" font-size="10.00">mtgb::ImGuiEditorCamera</text>
<text text-anchor="middle" x="72" y="-55" font-family="Helvetica,sans-Serif" font-size="10.00">::ImGuiEditorCamera</text>
</a>
</g>
</g>
<!-- Node1&#45;&gt;Node2 -->
<g id="edge1" class="edge">
<title>Node1&#45;&gt;Node2</title>
<path fill="none" stroke="#63b8ff" d="M170.23,-49.89C161.52,-51.07 152.69,-52.25 144.1,-53.41"/>
<polygon fill="#63b8ff" stroke="#63b8ff" points="170.95,-53.32 180.39,-48.52 170.02,-46.39 170.95,-53.32"/>
</g>
<!-- Node3 -->
<g id="node3" class="node">
<title>Node3</title>
<g id="a_node3"><a xlink:href="classPatrolChargerEnemy.html#a0aa45f3f6c7ea3dd5d4b1e6f832eae7d" target="_top" xlink:title=" ">
<polygon fill="white" stroke="#666666" points="133,-30 11,-30 11,0 133,0 133,-30"/>
<text text-anchor="start" x="19" y="-18" font-family="Helvetica,sans-Serif" font-size="10.00">PatrolChargerEnemy</text>
<text text-anchor="middle" x="72" y="-7" font-family="Helvetica,sans-Serif" font-size="10.00">::PatrolChargerEnemy</text>
</a>
</g>
</g>
<!-- Node1&#45;&gt;Node3 -->
<g id="edge2" class="edge">
<title>Node1&#45;&gt;Node3</title>
<path fill="none" stroke="#63b8ff" d="M170.42,-28.14C157.9,-26.45 145.15,-24.73 133.18,-23.11"/>
<polygon fill="#63b8ff" stroke="#63b8ff" points="170.02,-31.61 180.39,-29.48 170.95,-24.68 170.02,-31.61"/>
</g>
</g>
</svg>
