<?xml version="1.0" encoding="UTF-8" standalone="no"?>
<!DOCTYPE svg PUBLIC "-//W3C//DTD SVG 1.1//EN"
 "http://www.w3.org/Graphics/SVG/1.1/DTD/svg11.dtd">
<!-- Generated by graphviz version 2.43.0 (0)
 -->
<!-- Title: mtgb::Collider::Intersect Pages: 1 -->
<svg width="466pt" height="46pt"
 viewBox="0.00 0.00 466.00 46.00" xmlns="http://www.w3.org/2000/svg" xmlns:xlink="http://www.w3.org/1999/xlink">
<g id="graph0" class="graph" transform="scale(1 1) rotate(0) translate(4 42)">
<title>mtgb::Collider::Intersect</title>
<!-- Node1 -->
<g id="node1" class="node">
<title>Node1</title>
<g id="a_node1"><a xlink:title=" ">
<polygon fill="#999999" stroke="#666666" points="134,-19 0,-19 0,0 134,0 134,-19"/>
<text text-anchor="middle" x="67" y="-7" font-family="Helvetica,sans-Serif" font-size="10.00">mtgb::Collider::Intersect</text>
</a>
</g>
</g>
<!-- Node2 -->
<g id="node2" class="node">
<title>Node2</title>
<g id="a_node2"><a xlink:href="structmtgb_1_1Vector3.html#ae4cb4e8c99cfae50150e86f1f1450acc" target="_top" xlink:title=" ">
<polygon fill="white" stroke="#666666" points="311,-38 170,-38 170,-19 311,-19 311,-38"/>
<text text-anchor="middle" x="240.5" y="-26" font-family="Helvetica,sans-Serif" font-size="10.00">mtgb::Vector3::Normalize</text>
</a>
</g>
</g>
<!-- Node1&#45;&gt;Node2 -->
<g id="edge1" class="edge">
<title>Node1&#45;&gt;Node2</title>
<path fill="none" stroke="#63b8ff" d="M134.31,-16.85C142.71,-17.78 151.37,-18.74 159.95,-19.69"/>
<polygon fill="#63b8ff" stroke="#63b8ff" points="159.64,-23.17 169.96,-20.8 160.41,-16.22 159.64,-23.17"/>
</g>
<!-- Node3 -->
<g id="node3" class="node">
<title>Node3</title>
<g id="a_node3"><a xlink:href="structmtgb_1_1Vector3.html#a7da613a1086e5e1a58950d3d93746d2b" target="_top" xlink:title=" ">
<polygon fill="white" stroke="#666666" points="458,-19 347,-19 347,0 458,0 458,-19"/>
<text text-anchor="middle" x="402.5" y="-7" font-family="Helvetica,sans-Serif" font-size="10.00">mtgb::Vector3::Size</text>
</a>
</g>
</g>
<!-- Node1&#45;&gt;Node3 -->
<g id="edge3" class="edge">
<title>Node1&#45;&gt;Node3</title>
<path fill="none" stroke="#63b8ff" d="M134.29,-9.5C193.06,-9.5 278.39,-9.5 336.71,-9.5"/>
<polygon fill="#63b8ff" stroke="#63b8ff" points="336.91,-13 346.91,-9.5 336.91,-6 336.91,-13"/>
</g>
<!-- Node2&#45;&gt;Node3 -->
<g id="edge2" class="edge">
<title>Node2&#45;&gt;Node3</title>
<path fill="none" stroke="#63b8ff" d="M311.21,-20.22C319.71,-19.21 328.37,-18.18 336.8,-17.18"/>
<polygon fill="#63b8ff" stroke="#63b8ff" points="337.41,-20.64 346.93,-15.98 336.59,-13.68 337.41,-20.64"/>
</g>
</g>
</svg>
