<?xml version="1.0" encoding="UTF-8" standalone="no"?>
<!DOCTYPE svg PUBLIC "-//W3C//DTD SVG 1.1//EN"
 "http://www.w3.org/Graphics/SVG/1.1/DTD/svg11.dtd">
<!-- Generated by graphviz version 2.43.0 (0)
 -->
<!-- Title: ColliderCP.h Pages: 1 -->
<svg width="2295pt" height="368pt"
 viewBox="0.00 0.00 2294.50 368.00" xmlns="http://www.w3.org/2000/svg" xmlns:xlink="http://www.w3.org/1999/xlink">
<g id="graph0" class="graph" transform="scale(1 1) rotate(0) translate(4 364)">
<title>ColliderCP.h</title>
<!-- Node1 -->
<g id="node1" class="node">
<title>Node1</title>
<g id="a_node1"><a xlink:title=" ">
<polygon fill="#999999" stroke="#666666" points="1605,-360 1531,-360 1531,-341 1605,-341 1605,-360"/>
<text text-anchor="middle" x="1568" y="-348" font-family="Helvetica,sans-Serif" font-size="10.00">ColliderCP.h</text>
</a>
</g>
</g>
<!-- Node2 -->
<g id="node2" class="node">
<title>Node2</title>
<g id="a_node2"><a xlink:href="Collider_8h.html" target="_top" xlink:title=" ">
<polygon fill="white" stroke="#666666" points="1399,-305 1337,-305 1337,-286 1399,-286 1399,-305"/>
<text text-anchor="middle" x="1368" y="-293" font-family="Helvetica,sans-Serif" font-size="10.00">Collider.h</text>
</a>
</g>
</g>
<!-- Node1&#45;&gt;Node2 -->
<g id="edge1" class="edge">
<title>Node1&#45;&gt;Node2</title>
<path fill="none" stroke="#63b8ff" d="M1520.9,-338.5C1481.77,-328.58 1427.59,-314.18 1395.26,-305.08"/>
<polygon fill="#63b8ff" stroke="#63b8ff" points="1520.2,-341.93 1530.75,-340.98 1521.91,-335.15 1520.2,-341.93"/>
</g>
<!-- Node34 -->
<g id="node9" class="node">
<title>Node34</title>
<g id="a_node9"><a xlink:href="mtgb_8h.html" target="_top" xlink:title=" ">
<polygon fill="white" stroke="#666666" points="1424.5,-195 1373.5,-195 1373.5,-176 1424.5,-176 1424.5,-195"/>
<text text-anchor="middle" x="1399" y="-183" font-family="Helvetica,sans-Serif" font-size="10.00">mtgb.h</text>
</a>
</g>
</g>
<!-- Node1&#45;&gt;Node34 -->
<g id="edge64" class="edge">
<title>Node1&#45;&gt;Node34</title>
<path fill="none" stroke="#63b8ff" d="M1547.13,-334.77C1535.79,-326.46 1521.72,-315.63 1510,-305 1498.98,-295.01 1430.72,-220.99 1407.06,-195.27"/>
<polygon fill="#63b8ff" stroke="#63b8ff" points="1545.39,-337.83 1555.54,-340.85 1549.48,-332.16 1545.39,-337.83"/>
</g>
<!-- Node62 -->
<g id="node44" class="node">
<title>Node62</title>
<g id="a_node44"><a xlink:href="TerrainReader_8h.html" target="_top" xlink:title=" ">
<polygon fill="white" stroke="#666666" points="1579,-250 1487,-250 1487,-231 1579,-231 1579,-250"/>
<text text-anchor="middle" x="1533" y="-238" font-family="Helvetica,sans-Serif" font-size="10.00">TerrainReader.h</text>
</a>
</g>
</g>
<!-- Node1&#45;&gt;Node62 -->
<g id="edge63" class="edge">
<title>Node1&#45;&gt;Node62</title>
<path fill="none" stroke="#63b8ff" d="M1543.42,-335.29C1532.91,-327.76 1521.75,-317.48 1516,-305 1507.41,-286.34 1519.3,-262.53 1527.12,-250.03"/>
<polygon fill="#63b8ff" stroke="#63b8ff" points="1541.7,-338.35 1551.97,-340.95 1545.57,-332.51 1541.7,-338.35"/>
</g>
<!-- Node64 -->
<g id="node46" class="node">
<title>Node64</title>
<g id="a_node46"><a xlink:href="ColliderCP_8cpp.html" target="_top" xlink:title=" ">
<polygon fill="white" stroke="#666666" points="1611,-305 1525,-305 1525,-286 1611,-286 1611,-305"/>
<text text-anchor="middle" x="1568" y="-293" font-family="Helvetica,sans-Serif" font-size="10.00">ColliderCP.cpp</text>
</a>
</g>
</g>
<!-- Node1&#45;&gt;Node64 -->
<g id="edge58" class="edge">
<title>Node1&#45;&gt;Node64</title>
<path fill="none" stroke="#63b8ff" d="M1568,-330.66C1568,-321.93 1568,-311.99 1568,-305.09"/>
<polygon fill="#63b8ff" stroke="#63b8ff" points="1564.5,-330.75 1568,-340.75 1571.5,-330.75 1564.5,-330.75"/>
</g>
<!-- Node65 -->
<g id="node47" class="node">
<title>Node65</title>
<g id="a_node47"><a xlink:href="ImGuiEditorCamera_8cpp.html" target="_top" xlink:title=" ">
<polygon fill="white" stroke="#666666" points="1762.5,-305 1629.5,-305 1629.5,-286 1762.5,-286 1762.5,-305"/>
<text text-anchor="middle" x="1696" y="-293" font-family="Helvetica,sans-Serif" font-size="10.00">ImGuiEditorCamera.cpp</text>
</a>
</g>
</g>
<!-- Node1&#45;&gt;Node65 -->
<g id="edge59" class="edge">
<title>Node1&#45;&gt;Node65</title>
<path fill="none" stroke="#63b8ff" d="M1598.12,-337.03C1621.79,-327.23 1654.15,-313.83 1675.06,-305.17"/>
<polygon fill="#63b8ff" stroke="#63b8ff" points="1596.47,-333.93 1588.57,-340.98 1599.14,-340.39 1596.47,-333.93"/>
</g>
<!-- Node66 -->
<g id="node48" class="node">
<title>Node66</title>
<g id="a_node48"><a xlink:href="RectDetector_8cpp.html" target="_top" xlink:title=" ">
<polygon fill="white" stroke="#666666" points="1881,-305 1781,-305 1781,-286 1881,-286 1881,-305"/>
<text text-anchor="middle" x="1831" y="-293" font-family="Helvetica,sans-Serif" font-size="10.00">RectDetector.cpp</text>
</a>
</g>
</g>
<!-- Node1&#45;&gt;Node66 -->
<g id="edge60" class="edge">
<title>Node1&#45;&gt;Node66</title>
<path fill="none" stroke="#63b8ff" d="M1615.2,-339.99C1664.44,-330.07 1740.94,-314.65 1788.4,-305.08"/>
<polygon fill="#63b8ff" stroke="#63b8ff" points="1614.24,-336.61 1605.12,-342.02 1615.62,-343.47 1614.24,-336.61"/>
</g>
<!-- Node67 -->
<g id="node49" class="node">
<title>Node67</title>
<g id="a_node49"><a xlink:href="RenderSystem_8cpp.html" target="_top" xlink:title=" ">
<polygon fill="white" stroke="#666666" points="2007,-305 1899,-305 1899,-286 2007,-286 2007,-305"/>
<text text-anchor="middle" x="1953" y="-293" font-family="Helvetica,sans-Serif" font-size="10.00">RenderSystem.cpp</text>
</a>
</g>
</g>
<!-- Node1&#45;&gt;Node67 -->
<g id="edge61" class="edge">
<title>Node1&#45;&gt;Node67</title>
<path fill="none" stroke="#63b8ff" d="M1615.38,-342.98C1687.2,-333.09 1823.24,-314.36 1898.87,-303.95"/>
<polygon fill="#63b8ff" stroke="#63b8ff" points="1614.69,-339.54 1605.27,-344.37 1615.65,-346.47 1614.69,-339.54"/>
</g>
<!-- Node68 -->
<g id="node50" class="node">
<title>Node68</title>
<g id="a_node50"><a xlink:href="RigidBodyCP_8cpp.html" target="_top" xlink:title=" ">
<polygon fill="white" stroke="#666666" points="2123,-305 2025,-305 2025,-286 2123,-286 2123,-305"/>
<text text-anchor="middle" x="2074" y="-293" font-family="Helvetica,sans-Serif" font-size="10.00">RigidBodyCP.cpp</text>
</a>
</g>
</g>
<!-- Node1&#45;&gt;Node68 -->
<g id="edge62" class="edge">
<title>Node1&#45;&gt;Node68</title>
<path fill="none" stroke="#63b8ff" d="M1615.22,-345.54C1696.98,-338.51 1870.19,-322.92 2016,-305 2018.93,-304.64 2021.94,-304.25 2024.97,-303.85"/>
<polygon fill="#63b8ff" stroke="#63b8ff" points="1614.9,-342.05 1605.24,-346.39 1615.5,-349.03 1614.9,-342.05"/>
</g>
<!-- Node2&#45;&gt;Node1 -->
<g id="edge4" class="edge">
<title>Node2&#45;&gt;Node1</title>
<path fill="none" stroke="#63b8ff" d="M1408.91,-305.93C1448.42,-315.88 1506.93,-331.4 1540.98,-340.98"/>
<polygon fill="#63b8ff" stroke="#63b8ff" points="1409.6,-302.5 1399.05,-303.47 1407.9,-309.29 1409.6,-302.5"/>
</g>
<!-- Node3 -->
<g id="node3" class="node">
<title>Node3</title>
<g id="a_node3"><a xlink:href="Collider_8cpp.html" target="_top" xlink:title=" ">
<polygon fill="white" stroke="#666666" points="1287,-250 1213,-250 1213,-231 1287,-231 1287,-250"/>
<text text-anchor="middle" x="1250" y="-238" font-family="Helvetica,sans-Serif" font-size="10.00">Collider.cpp</text>
</a>
</g>
</g>
<!-- Node2&#45;&gt;Node3 -->
<g id="edge2" class="edge">
<title>Node2&#45;&gt;Node3</title>
<path fill="none" stroke="#63b8ff" d="M1339.65,-281.77C1317.88,-271.99 1288.41,-258.75 1269.3,-250.17"/>
<polygon fill="#63b8ff" stroke="#63b8ff" points="1338.49,-285.08 1349.04,-285.98 1341.35,-278.69 1338.49,-285.08"/>
</g>
<!-- Node4 -->
<g id="node4" class="node">
<title>Node4</title>
<g id="a_node4"><a xlink:href="Collider_8generated_8cpp.html" target="_top" xlink:title=" ">
<polygon fill="white" stroke="#666666" points="1431,-250 1305,-250 1305,-231 1431,-231 1431,-250"/>
<text text-anchor="middle" x="1368" y="-238" font-family="Helvetica,sans-Serif" font-size="10.00">Collider.generated.cpp</text>
</a>
</g>
</g>
<!-- Node2&#45;&gt;Node4 -->
<g id="edge3" class="edge">
<title>Node2&#45;&gt;Node4</title>
<path fill="none" stroke="#63b8ff" d="M1368,-275.66C1368,-266.93 1368,-256.99 1368,-250.09"/>
<polygon fill="#63b8ff" stroke="#63b8ff" points="1364.5,-275.75 1368,-285.75 1371.5,-275.75 1364.5,-275.75"/>
</g>
<!-- Node5 -->
<g id="node5" class="node">
<title>Node5</title>
<g id="a_node5"><a xlink:href="Interpolator_8h.html" target="_top" xlink:title=" ">
<polygon fill="white" stroke="#666666" points="1195,-250 1113,-250 1113,-231 1195,-231 1195,-250"/>
<text text-anchor="middle" x="1154" y="-238" font-family="Helvetica,sans-Serif" font-size="10.00">Interpolator.h</text>
</a>
</g>
</g>
<!-- Node2&#45;&gt;Node5 -->
<g id="edge5" class="edge">
<title>Node2&#45;&gt;Node5</title>
<path fill="none" stroke="#63b8ff" d="M1327.12,-284.38C1286.89,-274.41 1226.15,-259.37 1188.34,-250.01"/>
<polygon fill="#63b8ff" stroke="#63b8ff" points="1326.33,-287.79 1336.88,-286.79 1328.02,-280.99 1326.33,-287.79"/>
</g>
<!-- Node48 -->
<g id="node29" class="node">
<title>Node48</title>
<g id="a_node29"><a xlink:href="MTImGui_8cpp.html" target="_top" xlink:title=" ">
<polygon fill="white" stroke="#666666" points="1112.5,-79.5 1031.5,-79.5 1031.5,-60.5 1112.5,-60.5 1112.5,-79.5"/>
<text text-anchor="middle" x="1072" y="-67.5" font-family="Helvetica,sans-Serif" font-size="10.00">MTImGui.cpp</text>
</a>
</g>
</g>
<!-- Node2&#45;&gt;Node48 -->
<g id="edge55" class="edge">
<title>Node2&#45;&gt;Node48</title>
<path fill="none" stroke="#63b8ff" d="M1326.78,-292.71C1273.64,-289.26 1179.14,-279.2 1104,-250 1062.06,-233.7 1040.5,-234.53 1019,-195 996.4,-153.46 1042.46,-100.27 1062.9,-79.68"/>
<polygon fill="#63b8ff" stroke="#63b8ff" points="1326.65,-296.21 1336.84,-293.32 1327.07,-289.22 1326.65,-296.21"/>
</g>
<!-- Node2&#45;&gt;Node62 -->
<g id="edge56" class="edge">
<title>Node2&#45;&gt;Node62</title>
<path fill="none" stroke="#63b8ff" d="M1404.43,-282.8C1435.22,-272.91 1478.62,-258.97 1506.28,-250.08"/>
<polygon fill="#63b8ff" stroke="#63b8ff" points="1402.96,-279.59 1394.51,-285.98 1405.1,-286.26 1402.96,-279.59"/>
</g>
<!-- Node6 -->
<g id="node6" class="node">
<title>Node6</title>
<g id="a_node6"><a xlink:href="Interpolator_8cpp.html" target="_top" xlink:title=" ">
<polygon fill="white" stroke="#666666" points="1121.5,-195 1028.5,-195 1028.5,-176 1121.5,-176 1121.5,-195"/>
<text text-anchor="middle" x="1075" y="-183" font-family="Helvetica,sans-Serif" font-size="10.00">Interpolator.cpp</text>
</a>
</g>
</g>
<!-- Node5&#45;&gt;Node6 -->
<g id="edge6" class="edge">
<title>Node5&#45;&gt;Node6</title>
<path fill="none" stroke="#63b8ff" d="M1132.61,-225.15C1118.33,-215.57 1100.03,-203.29 1087.92,-195.17"/>
<polygon fill="#63b8ff" stroke="#63b8ff" points="1131.05,-228.32 1141.31,-230.98 1134.95,-222.51 1131.05,-228.32"/>
</g>
<!-- Node7 -->
<g id="node7" class="node">
<title>Node7</title>
<g id="a_node7"><a xlink:href="InterpolatorCP_8cpp.html" target="_top" xlink:title=" ">
<polygon fill="white" stroke="#666666" points="1244.5,-195 1139.5,-195 1139.5,-176 1244.5,-176 1244.5,-195"/>
<text text-anchor="middle" x="1192" y="-183" font-family="Helvetica,sans-Serif" font-size="10.00">InterpolatorCP.cpp</text>
</a>
</g>
</g>
<!-- Node5&#45;&gt;Node7 -->
<g id="edge7" class="edge">
<title>Node5&#45;&gt;Node7</title>
<path fill="none" stroke="#63b8ff" d="M1166.27,-222.39C1172.81,-213.27 1180.57,-202.45 1185.84,-195.09"/>
<polygon fill="#63b8ff" stroke="#63b8ff" points="1163.26,-220.58 1160.27,-230.75 1168.95,-224.66 1163.26,-220.58"/>
</g>
<!-- Node8 -->
<g id="node8" class="node">
<title>Node8</title>
<g id="a_node8"><a xlink:href="ReflectionInfo_8h.html" target="_top" xlink:title=" ">
<polygon fill="#fff0f0" stroke="red" points="1355.5,-195 1262.5,-195 1262.5,-176 1355.5,-176 1355.5,-195"/>
<text text-anchor="middle" x="1309" y="-183" font-family="Helvetica,sans-Serif" font-size="10.00">ReflectionInfo.h</text>
</a>
</g>
</g>
<!-- Node5&#45;&gt;Node8 -->
<g id="edge8" class="edge">
<title>Node5&#45;&gt;Node8</title>
<path fill="none" stroke="#63b8ff" d="M1188.6,-227.67C1217.5,-217.79 1258.03,-203.93 1283.9,-195.08"/>
<polygon fill="#63b8ff" stroke="#63b8ff" points="1187.23,-224.44 1178.9,-230.98 1189.5,-231.06 1187.23,-224.44"/>
</g>
<!-- Node5&#45;&gt;Node34 -->
<g id="edge9" class="edge">
<title>Node5&#45;&gt;Node34</title>
<path fill="none" stroke="#63b8ff" d="M1204.97,-229.14C1247.55,-220.37 1309.83,-207.31 1364,-195 1367.05,-194.31 1370.24,-193.56 1373.41,-192.81"/>
<polygon fill="#63b8ff" stroke="#63b8ff" points="1204.21,-225.72 1195.12,-231.16 1205.62,-232.58 1204.21,-225.72"/>
</g>
<!-- Node35 -->
<g id="node10" class="node">
<title>Node35</title>
<g id="a_node10"><a xlink:href="Box3D_8h.html" target="_top" xlink:title=" ">
<polygon fill="white" stroke="#666666" points="1327,-140 1269,-140 1269,-121 1327,-121 1327,-140"/>
<text text-anchor="middle" x="1298" y="-128" font-family="Helvetica,sans-Serif" font-size="10.00">Box3D.h</text>
</a>
</g>
</g>
<!-- Node34&#45;&gt;Node35 -->
<g id="edge10" class="edge">
<title>Node34&#45;&gt;Node35</title>
<path fill="none" stroke="#63b8ff" d="M1373.72,-171.23C1355.2,-161.51 1330.58,-148.6 1314.52,-140.17"/>
<polygon fill="#63b8ff" stroke="#63b8ff" points="1372.29,-174.44 1382.77,-175.98 1375.54,-168.24 1372.29,-174.44"/>
</g>
<!-- Node39 -->
<g id="node14" class="node">
<title>Node39</title>
<g id="a_node14"><a xlink:href="Camera_8h.html" target="_top" xlink:title=" ">
<polygon fill="white" stroke="#666666" points="201,-140 137,-140 137,-121 201,-121 201,-140"/>
<text text-anchor="middle" x="169" y="-128" font-family="Helvetica,sans-Serif" font-size="10.00">Camera.h</text>
</a>
</g>
</g>
<!-- Node34&#45;&gt;Node39 -->
<g id="edge14" class="edge">
<title>Node34&#45;&gt;Node39</title>
<path fill="none" stroke="#63b8ff" d="M1362.95,-176.2C889.92,-112.16 764.72,-164.26 292,-140 261.11,-138.41 225.9,-135.91 201.09,-134.03"/>
<polygon fill="#63b8ff" stroke="#63b8ff" points="1362.74,-179.71 1373.12,-177.59 1363.68,-172.77 1362.74,-179.71"/>
</g>
<!-- Node41 -->
<g id="node17" class="node">
<title>Node41</title>
<g id="a_node17"><a xlink:href="Player_8h.html" target="_top" xlink:title=" ">
<polygon fill="white" stroke="#666666" points="56,-79.5 0,-79.5 0,-60.5 56,-60.5 56,-79.5"/>
<text text-anchor="middle" x="28" y="-67.5" font-family="Helvetica,sans-Serif" font-size="10.00">Player.h</text>
</a>
</g>
</g>
<!-- Node34&#45;&gt;Node41 -->
<g id="edge39" class="edge">
<title>Node34&#45;&gt;Node41</title>
<path fill="none" stroke="#63b8ff" d="M1363.16,-176.41C1188.43,-158.69 255.89,-181.89 128,-140 89.71,-127.46 52.89,-95.22 36.66,-79.66"/>
<polygon fill="#63b8ff" stroke="#63b8ff" points="1362.78,-179.89 1373.12,-177.58 1363.6,-172.94 1362.78,-179.89"/>
</g>
<!-- Node32 -->
<g id="node20" class="node">
<title>Node32</title>
<g id="a_node20"><a xlink:href="TitleScene_8cpp.html" target="_top" xlink:title=" ">
<polygon fill="white" stroke="#666666" points="293,-79.5 205,-79.5 205,-60.5 293,-60.5 293,-79.5"/>
<text text-anchor="middle" x="249" y="-67.5" font-family="Helvetica,sans-Serif" font-size="10.00">TitleScene.cpp</text>
</a>
</g>
</g>
<!-- Node34&#45;&gt;Node32 -->
<g id="edge53" class="edge">
<title>Node34&#45;&gt;Node32</title>
<path fill="none" stroke="#63b8ff" d="M1363,-176.27C1131.52,-147.51 590.07,-194.82 382,-140 333.96,-127.34 283.57,-95.16 261.08,-79.64"/>
<polygon fill="#63b8ff" stroke="#63b8ff" points="1362.75,-179.76 1373.12,-177.6 1363.66,-172.82 1362.75,-179.76"/>
</g>
<!-- Node42 -->
<g id="node21" class="node">
<title>Node42</title>
<g id="a_node21"><a xlink:href="GameOverZone_8h.html" target="_top" xlink:title=" ">
<polygon fill="white" stroke="#666666" points="734.5,-140 631.5,-140 631.5,-121 734.5,-121 734.5,-140"/>
<text text-anchor="middle" x="683" y="-128" font-family="Helvetica,sans-Serif" font-size="10.00">GameOverZone.h</text>
</a>
</g>
</g>
<!-- Node34&#45;&gt;Node42 -->
<g id="edge22" class="edge">
<title>Node34&#45;&gt;Node42</title>
<path fill="none" stroke="#63b8ff" d="M1363.49,-176.28C1224.83,-156.61 868.99,-139.66 734.97,-133.73"/>
<polygon fill="#63b8ff" stroke="#63b8ff" points="1363.08,-179.76 1373.49,-177.76 1364.11,-172.84 1363.08,-179.76"/>
</g>
<!-- Node43 -->
<g id="node23" class="node">
<title>Node43</title>
<g id="a_node23"><a xlink:href="Goal_8h.html" target="_top" xlink:title=" ">
<polygon fill="white" stroke="#666666" points="553,-140 505,-140 505,-121 553,-121 553,-140"/>
<text text-anchor="middle" x="529" y="-128" font-family="Helvetica,sans-Serif" font-size="10.00">Goal.h</text>
</a>
</g>
</g>
<!-- Node34&#45;&gt;Node43 -->
<g id="edge25" class="edge">
<title>Node34&#45;&gt;Node43</title>
<path fill="none" stroke="#63b8ff" d="M1363.23,-176.24C1035.43,-129.52 947.98,-162.79 622,-140 598.55,-138.36 571.83,-135.85 553.06,-133.98"/>
<polygon fill="#63b8ff" stroke="#63b8ff" points="1363.1,-179.75 1373.5,-177.71 1364.1,-172.82 1363.1,-179.75"/>
</g>
<!-- Node44 -->
<g id="node25" class="node">
<title>Node44</title>
<g id="a_node25"><a xlink:href="HighlightEnemy_8h.html" target="_top" xlink:title=" ">
<polygon fill="white" stroke="#666666" points="1533,-140 1431,-140 1431,-121 1533,-121 1533,-140"/>
<text text-anchor="middle" x="1482" y="-128" font-family="Helvetica,sans-Serif" font-size="10.00">HighlightEnemy.h</text>
</a>
</g>
</g>
<!-- Node34&#45;&gt;Node44 -->
<g id="edge28" class="edge">
<title>Node34&#45;&gt;Node44</title>
<path fill="none" stroke="#63b8ff" d="M1421.04,-170.42C1436.11,-160.81 1455.59,-148.37 1468.42,-140.17"/>
<polygon fill="#63b8ff" stroke="#63b8ff" points="1418.88,-167.65 1412.34,-175.98 1422.65,-173.55 1418.88,-167.65"/>
</g>
<!-- Node46 -->
<g id="node27" class="node">
<title>Node46</title>
<g id="a_node27"><a xlink:href="Model_8cpp.html" target="_top" xlink:title=" ">
<polygon fill="white" stroke="#666666" points="1412.5,-140 1345.5,-140 1345.5,-121 1412.5,-121 1412.5,-140"/>
<text text-anchor="middle" x="1379" y="-128" font-family="Helvetica,sans-Serif" font-size="10.00">Model.cpp</text>
</a>
</g>
</g>
<!-- Node34&#45;&gt;Node46 -->
<g id="edge30" class="edge">
<title>Node34&#45;&gt;Node46</title>
<path fill="none" stroke="#63b8ff" d="M1392.11,-166.24C1388.76,-157.37 1384.9,-147.14 1382.24,-140.09"/>
<polygon fill="#63b8ff" stroke="#63b8ff" points="1388.89,-167.63 1395.7,-175.75 1395.44,-165.16 1388.89,-167.63"/>
</g>
<!-- Node47 -->
<g id="node28" class="node">
<title>Node47</title>
<g id="a_node28"><a xlink:href="MovingFloor_8h.html" target="_top" xlink:title=" ">
<polygon fill="white" stroke="#666666" points="972,-140 886,-140 886,-121 972,-121 972,-140"/>
<text text-anchor="middle" x="929" y="-128" font-family="Helvetica,sans-Serif" font-size="10.00">MovingFloor.h</text>
</a>
</g>
</g>
<!-- Node34&#45;&gt;Node47 -->
<g id="edge31" class="edge">
<title>Node34&#45;&gt;Node47</title>
<path fill="none" stroke="#63b8ff" d="M1363.21,-176.12C1214.02,-150.99 1048.87,-138.75 972.18,-133.96"/>
<polygon fill="#63b8ff" stroke="#63b8ff" points="1363.02,-179.64 1373.47,-177.87 1364.2,-172.74 1363.02,-179.64"/>
</g>
<!-- Node50 -->
<g id="node32" class="node">
<title>Node50</title>
<g id="a_node32"><a xlink:href="PatrolChargerEnemy_8h.html" target="_top" xlink:title=" ">
<polygon fill="white" stroke="#666666" points="1213,-140 1089,-140 1089,-121 1213,-121 1213,-140"/>
<text text-anchor="middle" x="1151" y="-128" font-family="Helvetica,sans-Serif" font-size="10.00">PatrolChargerEnemy.h</text>
</a>
</g>
</g>
<!-- Node34&#45;&gt;Node50 -->
<g id="edge36" class="edge">
<title>Node34&#45;&gt;Node50</title>
<path fill="none" stroke="#63b8ff" d="M1363.42,-175.93C1298.62,-161.37 1234.9,-148.3 1193.93,-140.04"/>
<polygon fill="#63b8ff" stroke="#63b8ff" points="1362.88,-179.4 1373.41,-178.18 1364.42,-172.57 1362.88,-179.4"/>
</g>
<!-- Node51 -->
<g id="node34" class="node">
<title>Node51</title>
<g id="a_node34"><a xlink:href="SampleGame_8h.html" target="_top" xlink:title=" ">
<polygon fill="#fff0f0" stroke="red" points="2256,-140 2164,-140 2164,-121 2256,-121 2256,-140"/>
<text text-anchor="middle" x="2210" y="-128" font-family="Helvetica,sans-Serif" font-size="10.00">SampleGame.h</text>
</a>
</g>
</g>
<!-- Node34&#45;&gt;Node51 -->
<g id="edge40" class="edge">
<title>Node34&#45;&gt;Node51</title>
<path fill="none" stroke="#63b8ff" d="M1434.63,-179.89C1446.5,-178.48 1459.81,-177.03 1472,-176 1774.9,-150.41 1852.63,-171.25 2155,-140 2157.88,-139.7 2160.85,-139.36 2163.83,-138.98"/>
<polygon fill="#63b8ff" stroke="#63b8ff" points="1434.14,-176.43 1424.64,-181.11 1434.99,-183.38 1434.14,-176.43"/>
</g>
<!-- Node53 -->
<g id="node35" class="node">
<title>Node53</title>
<g id="a_node35"><a xlink:href="Source_2TheMain_8cpp.html" target="_top" xlink:title=" ">
<polygon fill="white" stroke="#666666" points="2286.5,-79.5 2207.5,-79.5 2207.5,-60.5 2286.5,-60.5 2286.5,-79.5"/>
<text text-anchor="middle" x="2247" y="-67.5" font-family="Helvetica,sans-Serif" font-size="10.00">TheMain.cpp</text>
</a>
</g>
</g>
<!-- Node34&#45;&gt;Node53 -->
<g id="edge51" class="edge">
<title>Node34&#45;&gt;Node53</title>
<path fill="none" stroke="#63b8ff" d="M1434.63,-179.84C1446.5,-178.43 1459.8,-176.99 1472,-176 1515.96,-172.45 2234.53,-171.88 2265,-140 2280.91,-123.35 2264.2,-94.47 2253.87,-79.92"/>
<polygon fill="#63b8ff" stroke="#63b8ff" points="1434.13,-176.38 1424.63,-181.07 1434.98,-183.32 1434.13,-176.38"/>
</g>
<!-- Node54 -->
<g id="node36" class="node">
<title>Node54</title>
<g id="a_node36"><a xlink:href="SampleScene_8cpp.html" target="_top" xlink:title=" ">
<polygon fill="white" stroke="#666666" points="1654.5,-140 1551.5,-140 1551.5,-121 1654.5,-121 1654.5,-140"/>
<text text-anchor="middle" x="1603" y="-128" font-family="Helvetica,sans-Serif" font-size="10.00">SampleScene.cpp</text>
</a>
</g>
</g>
<!-- Node34&#45;&gt;Node54 -->
<g id="edge42" class="edge">
<title>Node34&#45;&gt;Node54</title>
<path fill="none" stroke="#63b8ff" d="M1434.99,-175.15C1473.16,-165.23 1532.95,-149.7 1569.95,-140.09"/>
<polygon fill="#63b8ff" stroke="#63b8ff" points="1433.64,-171.89 1424.84,-177.79 1435.4,-178.66 1433.64,-171.89"/>
</g>
<!-- Node55 -->
<g id="node37" class="node">
<title>Node55</title>
<g id="a_node37"><a xlink:href="ScoreItem_8h.html" target="_top" xlink:title=" ">
<polygon fill="#fff0f0" stroke="red" points="1397.5,-79.5 1322.5,-79.5 1322.5,-60.5 1397.5,-60.5 1397.5,-79.5"/>
<text text-anchor="middle" x="1360" y="-67.5" font-family="Helvetica,sans-Serif" font-size="10.00">ScoreItem.h</text>
</a>
</g>
</g>
<!-- Node34&#45;&gt;Node55 -->
<g id="edge43" class="edge">
<title>Node34&#45;&gt;Node55</title>
<path fill="none" stroke="#63b8ff" d="M1363.23,-175.39C1324.17,-165.07 1266.27,-148.6 1260,-140 1255.02,-133.18 1255.56,-128.18 1260,-121 1268.62,-107.05 1309.44,-89.73 1336.19,-79.56"/>
<polygon fill="#63b8ff" stroke="#63b8ff" points="1362.65,-178.85 1373.21,-177.99 1364.42,-172.08 1362.65,-178.85"/>
</g>
<!-- Node56 -->
<g id="node38" class="node">
<title>Node56</title>
<g id="a_node38"><a xlink:href="ScoreViewer_8h.html" target="_top" xlink:title=" ">
<polygon fill="#fff0f0" stroke="red" points="1759,-140 1673,-140 1673,-121 1759,-121 1759,-140"/>
<text text-anchor="middle" x="1716" y="-128" font-family="Helvetica,sans-Serif" font-size="10.00">ScoreViewer.h</text>
</a>
</g>
</g>
<!-- Node34&#45;&gt;Node56 -->
<g id="edge45" class="edge">
<title>Node34&#45;&gt;Node56</title>
<path fill="none" stroke="#63b8ff" d="M1434.58,-178.55C1493.19,-168.75 1609.82,-149.25 1672.97,-138.69"/>
<polygon fill="#63b8ff" stroke="#63b8ff" points="1433.96,-175.11 1424.67,-180.21 1435.11,-182.01 1433.96,-175.11"/>
</g>
<!-- Node27 -->
<g id="node39" class="node">
<title>Node27</title>
<g id="a_node39"><a xlink:href="StageEditScene_8cpp.html" target="_top" xlink:title=" ">
<polygon fill="white" stroke="#666666" points="1890.5,-140 1777.5,-140 1777.5,-121 1890.5,-121 1890.5,-140"/>
<text text-anchor="middle" x="1834" y="-128" font-family="Helvetica,sans-Serif" font-size="10.00">StageEditScene.cpp</text>
</a>
</g>
</g>
<!-- Node34&#45;&gt;Node27 -->
<g id="edge46" class="edge">
<title>Node34&#45;&gt;Node27</title>
<path fill="none" stroke="#63b8ff" d="M1434.76,-180.28C1500.68,-172.49 1645.78,-155.24 1768,-140 1771.1,-139.61 1774.27,-139.21 1777.48,-138.81"/>
<polygon fill="#63b8ff" stroke="#63b8ff" points="1434.03,-176.85 1424.51,-181.5 1434.85,-183.8 1434.03,-176.85"/>
</g>
<!-- Node57 -->
<g id="node40" class="node">
<title>Node57</title>
<g id="a_node40"><a xlink:href="StageManager_8h.html" target="_top" xlink:title=" ">
<polygon fill="#fff0f0" stroke="red" points="486.5,-140 391.5,-140 391.5,-121 486.5,-121 486.5,-140"/>
<text text-anchor="middle" x="439" y="-128" font-family="Helvetica,sans-Serif" font-size="10.00">StageManager.h</text>
</a>
</g>
</g>
<!-- Node34&#45;&gt;Node57 -->
<g id="edge47" class="edge">
<title>Node34&#45;&gt;Node57</title>
<path fill="none" stroke="#63b8ff" d="M1363.52,-176.29C979.91,-123.1 877.09,-176.21 496,-140 492.91,-139.71 489.74,-139.36 486.54,-138.98"/>
<polygon fill="#63b8ff" stroke="#63b8ff" points="1363.11,-179.77 1373.5,-177.69 1364.08,-172.84 1363.11,-179.77"/>
</g>
<!-- Node58 -->
<g id="node41" class="node">
<title>Node58</title>
<g id="a_node41"><a xlink:href="TextBox_8h.html" target="_top" xlink:title=" ">
<polygon fill="#fff0f0" stroke="red" points="1973.5,-140 1908.5,-140 1908.5,-121 1973.5,-121 1973.5,-140"/>
<text text-anchor="middle" x="1941" y="-128" font-family="Helvetica,sans-Serif" font-size="10.00">TextBox.h</text>
</a>
</g>
</g>
<!-- Node34&#45;&gt;Node58 -->
<g id="edge50" class="edge">
<title>Node34&#45;&gt;Node58</title>
<path fill="none" stroke="#63b8ff" d="M1434.65,-180.12C1446.53,-178.72 1459.82,-177.22 1472,-176 1661.94,-156.96 1711.09,-167.43 1900,-140 1902.73,-139.6 1905.56,-139.14 1908.39,-138.63"/>
<polygon fill="#63b8ff" stroke="#63b8ff" points="1434.17,-176.65 1424.65,-181.31 1435,-183.6 1434.17,-176.65"/>
</g>
<!-- Node59 -->
<g id="node42" class="node">
<title>Node59</title>
<g id="a_node42"><a xlink:href="TimeLimit_8h.html" target="_top" xlink:title=" ">
<polygon fill="#fff0f0" stroke="red" points="2066.5,-140 1991.5,-140 1991.5,-121 2066.5,-121 2066.5,-140"/>
<text text-anchor="middle" x="2029" y="-128" font-family="Helvetica,sans-Serif" font-size="10.00">TimeLimit.h</text>
</a>
</g>
</g>
<!-- Node34&#45;&gt;Node59 -->
<g id="edge52" class="edge">
<title>Node34&#45;&gt;Node59</title>
<path fill="none" stroke="#63b8ff" d="M1434.65,-180.02C1446.52,-178.62 1459.82,-177.14 1472,-176 1698.69,-154.83 1757.15,-168.73 1983,-140 1985.74,-139.65 1988.56,-139.25 1991.4,-138.8"/>
<polygon fill="#63b8ff" stroke="#63b8ff" points="1434.16,-176.55 1424.65,-181.22 1434.99,-183.5 1434.16,-176.55"/>
</g>
<!-- Node61 -->
<g id="node43" class="node">
<title>Node61</title>
<g id="a_node43"><a xlink:href="mtgb_8cpp.html" target="_top" xlink:title=" ">
<polygon fill="white" stroke="#666666" points="2146,-140 2084,-140 2084,-121 2146,-121 2146,-140"/>
<text text-anchor="middle" x="2115" y="-128" font-family="Helvetica,sans-Serif" font-size="10.00">mtgb.cpp</text>
</a>
</g>
</g>
<!-- Node34&#45;&gt;Node61 -->
<g id="edge54" class="edge">
<title>Node34&#45;&gt;Node61</title>
<path fill="none" stroke="#63b8ff" d="M1434.64,-179.94C1446.51,-178.53 1459.81,-177.07 1472,-176 1739.89,-152.44 1809.6,-176.74 2076,-140 2078.61,-139.64 2081.3,-139.2 2084,-138.71"/>
<polygon fill="#63b8ff" stroke="#63b8ff" points="1434.15,-176.48 1424.64,-181.16 1434.99,-183.43 1434.15,-176.48"/>
</g>
<!-- Node36 -->
<g id="node11" class="node">
<title>Node36</title>
<g id="a_node11"><a xlink:href="Box3D_8cpp.html" target="_top" xlink:title=" ">
<polygon fill="white" stroke="#666666" points="1484.5,-79.5 1415.5,-79.5 1415.5,-60.5 1484.5,-60.5 1484.5,-79.5"/>
<text text-anchor="middle" x="1450" y="-67.5" font-family="Helvetica,sans-Serif" font-size="10.00">Box3D.cpp</text>
</a>
</g>
</g>
<!-- Node35&#45;&gt;Node36 -->
<g id="edge11" class="edge">
<title>Node35&#45;&gt;Node36</title>
<path fill="none" stroke="#63b8ff" d="M1329.5,-117.38C1358.88,-106.07 1401.97,-89.49 1427.87,-79.52"/>
<polygon fill="#63b8ff" stroke="#63b8ff" points="1328.18,-114.14 1320.1,-120.99 1330.69,-120.67 1328.18,-114.14"/>
</g>
<!-- Node37 -->
<g id="node12" class="node">
<title>Node37</title>
<g id="a_node12"><a xlink:href="GameObjectGenerator_8cpp.html" target="_top" xlink:title=" ">
<polygon fill="white" stroke="#666666" points="1649,-79.5 1503,-79.5 1503,-60.5 1649,-60.5 1649,-79.5"/>
<text text-anchor="middle" x="1576" y="-67.5" font-family="Helvetica,sans-Serif" font-size="10.00">GameObjectGenerator.cpp</text>
</a>
</g>
</g>
<!-- Node35&#45;&gt;Node37 -->
<g id="edge12" class="edge">
<title>Node35&#45;&gt;Node37</title>
<path fill="none" stroke="#63b8ff" d="M1337.13,-120.78C1412.14,-104.62 1488.02,-88.97 1533.91,-79.57"/>
<polygon fill="#63b8ff" stroke="#63b8ff" points="1336.07,-117.43 1327.04,-122.96 1337.55,-124.27 1336.07,-117.43"/>
</g>
<!-- Node38 -->
<g id="node13" class="node">
<title>Node38</title>
<g id="a_node13"><a xlink:href="RegisterCommonGameObjectType_8cpp.html" target="_top" xlink:title=" ">
<polygon fill="white" stroke="#666666" points="1829,-85 1667,-85 1667,-55 1829,-55 1829,-85"/>
<text text-anchor="start" x="1675" y="-73" font-family="Helvetica,sans-Serif" font-size="10.00">RegisterCommonGameObject</text>
<text text-anchor="middle" x="1748" y="-62" font-family="Helvetica,sans-Serif" font-size="10.00">Type.cpp</text>
</a>
</g>
</g>
<!-- Node35&#45;&gt;Node38 -->
<g id="edge13" class="edge">
<title>Node35&#45;&gt;Node38</title>
<path fill="none" stroke="#63b8ff" d="M1337.38,-120.93C1479.76,-97.54 1518.47,-103.64 1658,-85 1660.82,-84.62 1663.69,-84.23 1666.59,-83.82"/>
<polygon fill="#63b8ff" stroke="#63b8ff" points="1336.69,-117.5 1327.4,-122.59 1337.84,-124.41 1336.69,-117.5"/>
</g>
<!-- Node40 -->
<g id="node15" class="node">
<title>Node40</title>
<g id="a_node15"><a xlink:href="Camera_8cpp.html" target="_top" xlink:title=" ">
<polygon fill="white" stroke="#666666" points="187.5,-79.5 112.5,-79.5 112.5,-60.5 187.5,-60.5 187.5,-79.5"/>
<text text-anchor="middle" x="150" y="-67.5" font-family="Helvetica,sans-Serif" font-size="10.00">Camera.cpp</text>
</a>
</g>
</g>
<!-- Node39&#45;&gt;Node40 -->
<g id="edge15" class="edge">
<title>Node39&#45;&gt;Node40</title>
<path fill="none" stroke="#63b8ff" d="M163.1,-111.32C159.67,-100.78 155.51,-87.98 152.82,-79.67"/>
<polygon fill="#63b8ff" stroke="#63b8ff" points="159.78,-112.44 166.2,-120.87 166.44,-110.28 159.78,-112.44"/>
</g>
<!-- Node22 -->
<g id="node16" class="node">
<title>Node22</title>
<g id="a_node16"><a xlink:href="Player_8cpp.html" target="_top" xlink:title=" ">
<polygon fill="white" stroke="#666666" points="89.5,-19 22.5,-19 22.5,0 89.5,0 89.5,-19"/>
<text text-anchor="middle" x="56" y="-7" font-family="Helvetica,sans-Serif" font-size="10.00">Player.cpp</text>
</a>
</g>
</g>
<!-- Node39&#45;&gt;Node22 -->
<g id="edge16" class="edge">
<title>Node39&#45;&gt;Node22</title>
<path fill="none" stroke="#63b8ff" d="M143.43,-115.69C130.36,-107.83 114.77,-97.13 103,-85 82.98,-64.36 67.02,-33.86 59.95,-19.11"/>
<polygon fill="#63b8ff" stroke="#63b8ff" points="142.01,-118.91 152.41,-120.9 145.52,-112.86 142.01,-118.91"/>
</g>
<!-- Node39&#45;&gt;Node41 -->
<g id="edge17" class="edge">
<title>Node39&#45;&gt;Node41</title>
<path fill="none" stroke="#63b8ff" d="M139.07,-117.08C111.83,-105.78 72.35,-89.4 48.53,-79.52"/>
<polygon fill="#63b8ff" stroke="#63b8ff" points="137.92,-120.39 148.5,-120.99 140.6,-113.93 137.92,-120.39"/>
</g>
<!-- Node24 -->
<g id="node19" class="node">
<title>Node24</title>
<g id="a_node19"><a xlink:href="ResultScene_8cpp.html" target="_top" xlink:title=" ">
<polygon fill="white" stroke="#666666" points="407.5,-79.5 310.5,-79.5 310.5,-60.5 407.5,-60.5 407.5,-79.5"/>
<text text-anchor="middle" x="359" y="-67.5" font-family="Helvetica,sans-Serif" font-size="10.00">ResultScene.cpp</text>
</a>
</g>
</g>
<!-- Node39&#45;&gt;Node24 -->
<g id="edge20" class="edge">
<title>Node39&#45;&gt;Node24</title>
<path fill="none" stroke="#63b8ff" d="M206.47,-117.96C243.22,-106.65 298.4,-89.66 331.34,-79.52"/>
<polygon fill="#63b8ff" stroke="#63b8ff" points="205.15,-114.71 196.63,-120.99 207.21,-121.4 205.15,-114.71"/>
</g>
<!-- Node39&#45;&gt;Node32 -->
<g id="edge21" class="edge">
<title>Node39&#45;&gt;Node32</title>
<path fill="none" stroke="#63b8ff" d="M189.04,-114.85C204.19,-103.77 224.48,-88.93 237.15,-79.67"/>
<polygon fill="#63b8ff" stroke="#63b8ff" points="186.81,-112.14 180.8,-120.87 190.94,-117.79 186.81,-112.14"/>
</g>
<!-- Node41&#45;&gt;Node22 -->
<g id="edge18" class="edge">
<title>Node41&#45;&gt;Node22</title>
<path fill="none" stroke="#63b8ff" d="M36.54,-51.15C41.62,-40.54 47.83,-27.56 51.85,-19.17"/>
<polygon fill="#63b8ff" stroke="#63b8ff" points="33.29,-49.84 32.13,-60.37 39.61,-52.86 33.29,-49.84"/>
</g>
<!-- Node23 -->
<g id="node18" class="node">
<title>Node23</title>
<g id="a_node18"><a xlink:href="RegisterGameObjectType_8cpp.html" target="_top" xlink:title=" ">
<polygon fill="white" stroke="#666666" points="782.5,-19 621.5,-19 621.5,0 782.5,0 782.5,-19"/>
<text text-anchor="middle" x="702" y="-7" font-family="Helvetica,sans-Serif" font-size="10.00">RegisterGameObjectType.cpp</text>
</a>
</g>
</g>
<!-- Node41&#45;&gt;Node23 -->
<g id="edge19" class="edge">
<title>Node41&#45;&gt;Node23</title>
<path fill="none" stroke="#63b8ff" d="M66.01,-61.06C77.82,-58.82 90.91,-56.57 103,-55 287.58,-30.99 505.98,-18.83 621.3,-13.66"/>
<polygon fill="#63b8ff" stroke="#63b8ff" points="65.16,-57.66 56.02,-63.01 66.5,-64.53 65.16,-57.66"/>
</g>
<!-- Node42&#45;&gt;Node23 -->
<g id="edge24" class="edge">
<title>Node42&#45;&gt;Node23</title>
<path fill="none" stroke="#63b8ff" d="M685.98,-110.86C690.13,-84.81 697.52,-38.56 700.59,-19.3"/>
<polygon fill="#63b8ff" stroke="#63b8ff" points="682.49,-110.52 684.37,-120.94 689.4,-111.62 682.49,-110.52"/>
</g>
<!-- Node16 -->
<g id="node22" class="node">
<title>Node16</title>
<g id="a_node22"><a xlink:href="GameOverZone_8cpp.html" target="_top" xlink:title=" ">
<polygon fill="white" stroke="#666666" points="655,-79.5 541,-79.5 541,-60.5 655,-60.5 655,-79.5"/>
<text text-anchor="middle" x="598" y="-67.5" font-family="Helvetica,sans-Serif" font-size="10.00">GameOverZone.cpp</text>
</a>
</g>
</g>
<!-- Node42&#45;&gt;Node16 -->
<g id="edge23" class="edge">
<title>Node42&#45;&gt;Node16</title>
<path fill="none" stroke="#63b8ff" d="M662.16,-115.16C646.01,-104.05 624.17,-89.01 610.59,-79.67"/>
<polygon fill="#63b8ff" stroke="#63b8ff" points="660.24,-118.08 670.46,-120.87 664.2,-112.32 660.24,-118.08"/>
</g>
<!-- Node43&#45;&gt;Node23 -->
<g id="edge27" class="edge">
<title>Node43&#45;&gt;Node23</title>
<path fill="none" stroke="#63b8ff" d="M524.02,-110.44C520.93,-93.95 519.61,-70.41 532,-55 545.58,-38.12 596.4,-26.28 638.97,-19.07"/>
<polygon fill="#63b8ff" stroke="#63b8ff" points="520.68,-111.55 526.29,-120.54 527.51,-110.01 520.68,-111.55"/>
</g>
<!-- Node17 -->
<g id="node24" class="node">
<title>Node17</title>
<g id="a_node24"><a xlink:href="Goal_8cpp.html" target="_top" xlink:title=" ">
<polygon fill="white" stroke="#666666" points="484.5,-79.5 425.5,-79.5 425.5,-60.5 484.5,-60.5 484.5,-79.5"/>
<text text-anchor="middle" x="455" y="-67.5" font-family="Helvetica,sans-Serif" font-size="10.00">Goal.cpp</text>
</a>
</g>
</g>
<!-- Node43&#45;&gt;Node17 -->
<g id="edge26" class="edge">
<title>Node43&#45;&gt;Node17</title>
<path fill="none" stroke="#63b8ff" d="M510.07,-114.54C496.1,-103.49 477.57,-88.84 465.96,-79.67"/>
<polygon fill="#63b8ff" stroke="#63b8ff" points="508.07,-117.41 518.08,-120.87 512.41,-111.92 508.07,-117.41"/>
</g>
<!-- Node45 -->
<g id="node26" class="node">
<title>Node45</title>
<g id="a_node26"><a xlink:href="HighlightEnemy_8cpp.html" target="_top" xlink:title=" ">
<polygon fill="white" stroke="#666666" points="1960.5,-79.5 1847.5,-79.5 1847.5,-60.5 1960.5,-60.5 1960.5,-79.5"/>
<text text-anchor="middle" x="1904" y="-67.5" font-family="Helvetica,sans-Serif" font-size="10.00">HighlightEnemy.cpp</text>
</a>
</g>
</g>
<!-- Node44&#45;&gt;Node45 -->
<g id="edge29" class="edge">
<title>Node44&#45;&gt;Node45</title>
<path fill="none" stroke="#63b8ff" d="M1543.14,-120.88C1675.1,-103.84 1710.47,-106.24 1838,-85 1847.24,-83.46 1857.15,-81.52 1866.41,-79.57"/>
<polygon fill="#63b8ff" stroke="#63b8ff" points="1542.52,-117.43 1533.05,-122.2 1543.42,-124.37 1542.52,-117.43"/>
</g>
<!-- Node47&#45;&gt;Node23 -->
<g id="edge35" class="edge">
<title>Node47&#45;&gt;Node23</title>
<path fill="none" stroke="#63b8ff" d="M875.85,-128.75C834.84,-125.59 778.75,-115.4 740,-85 718.18,-67.88 707.77,-34.84 703.89,-19.16"/>
<polygon fill="#63b8ff" stroke="#63b8ff" points="875.72,-132.24 885.93,-129.4 876.18,-125.26 875.72,-132.24"/>
</g>
<!-- Node47&#45;&gt;Node48 -->
<g id="edge32" class="edge">
<title>Node47&#45;&gt;Node48</title>
<path fill="none" stroke="#63b8ff" d="M959.36,-117.08C986.98,-105.78 1027.02,-89.4 1051.18,-79.52"/>
<polygon fill="#63b8ff" stroke="#63b8ff" points="957.72,-113.97 949.79,-120.99 960.37,-120.45 957.72,-113.97"/>
</g>
<!-- Node20 -->
<g id="node30" class="node">
<title>Node20</title>
<g id="a_node30"><a xlink:href="MovingFloor_8cpp.html" target="_top" xlink:title=" ">
<polygon fill="white" stroke="#666666" points="846.5,-79.5 749.5,-79.5 749.5,-60.5 846.5,-60.5 846.5,-79.5"/>
<text text-anchor="middle" x="798" y="-67.5" font-family="Helvetica,sans-Serif" font-size="10.00">MovingFloor.cpp</text>
</a>
</g>
</g>
<!-- Node47&#45;&gt;Node20 -->
<g id="edge33" class="edge">
<title>Node47&#45;&gt;Node20</title>
<path fill="none" stroke="#63b8ff" d="M900.52,-116.78C875.24,-105.49 839.01,-89.31 817.07,-79.52"/>
<polygon fill="#63b8ff" stroke="#63b8ff" points="899.39,-120.11 909.95,-120.99 902.25,-113.72 899.39,-120.11"/>
</g>
<!-- Node49 -->
<g id="node31" class="node">
<title>Node49</title>
<g id="a_node31"><a xlink:href="MovingFloor_8generated_8cpp.html" target="_top" xlink:title=" ">
<polygon fill="white" stroke="#666666" points="1013.5,-79.5 864.5,-79.5 864.5,-60.5 1013.5,-60.5 1013.5,-79.5"/>
<text text-anchor="middle" x="939" y="-67.5" font-family="Helvetica,sans-Serif" font-size="10.00">MovingFloor.generated.cpp</text>
</a>
</g>
</g>
<!-- Node47&#45;&gt;Node49 -->
<g id="edge34" class="edge">
<title>Node47&#45;&gt;Node49</title>
<path fill="none" stroke="#63b8ff" d="M932.16,-110.99C933.96,-100.51 936.11,-87.89 937.52,-79.67"/>
<polygon fill="#63b8ff" stroke="#63b8ff" points="928.71,-110.42 930.48,-120.87 935.61,-111.6 928.71,-110.42"/>
</g>
<!-- Node50&#45;&gt;Node23 -->
<g id="edge38" class="edge">
<title>Node50&#45;&gt;Node23</title>
<path fill="none" stroke="#63b8ff" d="M1148.88,-110.78C1145.84,-93.38 1138.52,-68.24 1121,-55 1094.66,-35.1 897.16,-21.14 782.96,-14.64"/>
<polygon fill="#63b8ff" stroke="#63b8ff" points="1145.44,-111.48 1150.32,-120.88 1152.37,-110.49 1145.44,-111.48"/>
</g>
<!-- Node21 -->
<g id="node33" class="node">
<title>Node21</title>
<g id="a_node33"><a xlink:href="PatrolChargerEnemy_8cpp.html" target="_top" xlink:title=" ">
<polygon fill="white" stroke="#666666" points="1304.5,-79.5 1169.5,-79.5 1169.5,-60.5 1304.5,-60.5 1304.5,-79.5"/>
<text text-anchor="middle" x="1237" y="-67.5" font-family="Helvetica,sans-Serif" font-size="10.00">PatrolChargerEnemy.cpp</text>
</a>
</g>
</g>
<!-- Node50&#45;&gt;Node21 -->
<g id="edge37" class="edge">
<title>Node50&#45;&gt;Node21</title>
<path fill="none" stroke="#63b8ff" d="M1172.08,-115.16C1188.42,-104.05 1210.52,-89.01 1224.26,-79.67"/>
<polygon fill="#63b8ff" stroke="#63b8ff" points="1169.99,-112.35 1163.69,-120.87 1173.93,-118.14 1169.99,-112.35"/>
</g>
<!-- Node51&#45;&gt;Node53 -->
<g id="edge41" class="edge">
<title>Node51&#45;&gt;Node53</title>
<path fill="none" stroke="#63b8ff" d="M2220.88,-112.3C2227.66,-101.58 2236.1,-88.23 2241.52,-79.67"/>
<polygon fill="#63b8ff" stroke="#63b8ff" points="2217.85,-110.55 2215.46,-120.87 2223.76,-114.29 2217.85,-110.55"/>
</g>
<!-- Node55&#45;&gt;Node23 -->
<g id="edge44" class="edge">
<title>Node55&#45;&gt;Node23</title>
<path fill="none" stroke="#63b8ff" d="M1325.05,-57.69C1321.02,-56.65 1316.94,-55.72 1313,-55 1125.21,-20.61 900.37,-12.57 782.77,-10.83"/>
<polygon fill="#63b8ff" stroke="#63b8ff" points="1324.3,-61.11 1334.88,-60.42 1326.18,-54.37 1324.3,-61.11"/>
</g>
<!-- Node57&#45;&gt;Node24 -->
<g id="edge49" class="edge">
<title>Node57&#45;&gt;Node24</title>
<path fill="none" stroke="#63b8ff" d="M418.96,-114.85C403.81,-103.77 383.52,-88.93 370.85,-79.67"/>
<polygon fill="#63b8ff" stroke="#63b8ff" points="417.06,-117.79 427.2,-120.87 421.19,-112.14 417.06,-117.79"/>
</g>
<!-- Node57&#45;&gt;Node17 -->
<g id="edge48" class="edge">
<title>Node57&#45;&gt;Node17</title>
<path fill="none" stroke="#63b8ff" d="M444.06,-110.99C446.93,-100.51 450.38,-87.89 452.63,-79.67"/>
<polygon fill="#63b8ff" stroke="#63b8ff" points="440.62,-110.3 441.36,-120.87 447.38,-112.15 440.62,-110.3"/>
</g>
<!-- Node63 -->
<g id="node45" class="node">
<title>Node63</title>
<g id="a_node45"><a xlink:href="TerrainReader_8cpp.html" target="_top" xlink:title=" ">
<polygon fill="white" stroke="#666666" points="1585,-195 1481,-195 1481,-176 1585,-176 1585,-195"/>
<text text-anchor="middle" x="1533" y="-183" font-family="Helvetica,sans-Serif" font-size="10.00">TerrainReader.cpp</text>
</a>
</g>
</g>
<!-- Node62&#45;&gt;Node63 -->
<g id="edge57" class="edge">
<title>Node62&#45;&gt;Node63</title>
<path fill="none" stroke="#63b8ff" d="M1533,-220.66C1533,-211.93 1533,-201.99 1533,-195.09"/>
<polygon fill="#63b8ff" stroke="#63b8ff" points="1529.5,-220.75 1533,-230.75 1536.5,-220.75 1529.5,-220.75"/>
</g>
</g>
</svg>
