<?xml version="1.0" encoding="UTF-8" standalone="no"?>
<!DOCTYPE svg PUBLIC "-//W3C//DTD SVG 1.1//EN"
 "http://www.w3.org/Graphics/SVG/1.1/DTD/svg11.dtd">
<!-- Generated by graphviz version 2.43.0 (0)
 -->
<!-- Title: ComponentFactory.cpp Pages: 1 -->
<svg width="773pt" height="357pt"
 viewBox="0.00 0.00 772.50 357.00" xmlns="http://www.w3.org/2000/svg" xmlns:xlink="http://www.w3.org/1999/xlink">
<g id="graph0" class="graph" transform="scale(1 1) rotate(0) translate(4 353)">
<title>ComponentFactory.cpp</title>
<!-- Node1 -->
<g id="node1" class="node">
<title>Node1</title>
<g id="a_node1"><a xlink:title=" ">
<polygon fill="#999999" stroke="#666666" points="423,-349 296,-349 296,-330 423,-330 423,-349"/>
<text text-anchor="middle" x="359.5" y="-337" font-family="Helvetica,sans-Serif" font-size="10.00">ComponentFactory.cpp</text>
</a>
</g>
</g>
<!-- Node2 -->
<g id="node2" class="node">
<title>Node2</title>
<g id="a_node2"><a xlink:href="ComponentFactory_8h.html" target="_top" xlink:title=" ">
<polygon fill="white" stroke="#666666" points="417.5,-294 301.5,-294 301.5,-275 417.5,-275 417.5,-294"/>
<text text-anchor="middle" x="359.5" y="-282" font-family="Helvetica,sans-Serif" font-size="10.00">ComponentFactory.h</text>
</a>
</g>
</g>
<!-- Node1&#45;&gt;Node2 -->
<g id="edge1" class="edge">
<title>Node1&#45;&gt;Node2</title>
<path fill="none" stroke="#63b8ff" d="M359.5,-329.75C359.5,-322.8 359.5,-312.85 359.5,-304.13"/>
<polygon fill="#63b8ff" stroke="#63b8ff" points="363,-304.09 359.5,-294.09 356,-304.09 363,-304.09"/>
</g>
<!-- Node3 -->
<g id="node3" class="node">
<title>Node3</title>
<g id="a_node3"><a xlink:href="ISystem_8h.html" target="_top" xlink:title=" ">
<polygon fill="white" stroke="#666666" points="401,-184 336,-184 336,-165 401,-165 401,-184"/>
<text text-anchor="middle" x="368.5" y="-172" font-family="Helvetica,sans-Serif" font-size="10.00">ISystem.h</text>
</a>
</g>
</g>
<!-- Node2&#45;&gt;Node3 -->
<g id="edge2" class="edge">
<title>Node2&#45;&gt;Node3</title>
<path fill="none" stroke="#63b8ff" d="M360.15,-274.87C361.07,-262.65 362.85,-239.61 364.5,-220 365.22,-211.49 366.06,-202.07 366.78,-194.09"/>
<polygon fill="#63b8ff" stroke="#63b8ff" points="370.28,-194.31 367.71,-184.03 363.31,-193.67 370.28,-194.31"/>
</g>
<!-- Node4 -->
<g id="node4" class="node">
<title>Node4</title>
<g id="a_node4"><a xlink:title=" ">
<polygon fill="#e0e0e0" stroke="#999999" points="318,-184 253,-184 253,-165 318,-165 318,-184"/>
<text text-anchor="middle" x="285.5" y="-172" font-family="Helvetica,sans-Serif" font-size="10.00">typeindex</text>
</a>
</g>
</g>
<!-- Node2&#45;&gt;Node4 -->
<g id="edge3" class="edge">
<title>Node2&#45;&gt;Node4</title>
<path fill="none" stroke="#63b8ff" d="M353.44,-274.66C341.19,-256.77 313.25,-216 297.28,-192.69"/>
<polygon fill="#63b8ff" stroke="#63b8ff" points="299.97,-190.43 291.43,-184.16 294.2,-194.39 299.97,-190.43"/>
</g>
<!-- Node5 -->
<g id="node5" class="node">
<title>Node5</title>
<g id="a_node5"><a xlink:title=" ">
<polygon fill="#e0e0e0" stroke="#999999" points="512,-184 419,-184 419,-165 512,-165 512,-184"/>
<text text-anchor="middle" x="465.5" y="-172" font-family="Helvetica,sans-Serif" font-size="10.00">unordered_map</text>
</a>
</g>
</g>
<!-- Node2&#45;&gt;Node5 -->
<g id="edge4" class="edge">
<title>Node2&#45;&gt;Node5</title>
<path fill="none" stroke="#63b8ff" d="M363.29,-274.9C369.33,-261.89 382.15,-236.94 398.5,-220 410.48,-207.59 426.49,-196.8 439.86,-188.95"/>
<polygon fill="#63b8ff" stroke="#63b8ff" points="441.63,-191.97 448.61,-184 438.18,-185.88 441.63,-191.97"/>
</g>
<!-- Node6 -->
<g id="node6" class="node">
<title>Node6</title>
<g id="a_node6"><a xlink:href="ComponentConcept_8h.html" target="_top" xlink:title=" ">
<polygon fill="white" stroke="#666666" points="163.5,-184 41.5,-184 41.5,-165 163.5,-165 163.5,-184"/>
<text text-anchor="middle" x="102.5" y="-172" font-family="Helvetica,sans-Serif" font-size="10.00">ComponentConcept.h</text>
</a>
</g>
</g>
<!-- Node2&#45;&gt;Node6 -->
<g id="edge5" class="edge">
<title>Node2&#45;&gt;Node6</title>
<path fill="none" stroke="#63b8ff" d="M301.39,-277.95C243.38,-271.4 159.26,-258.81 133.5,-239 119.09,-227.92 110.97,-208.38 106.69,-193.9"/>
<polygon fill="#63b8ff" stroke="#63b8ff" points="110.03,-192.83 104.13,-184.03 103.26,-194.59 110.03,-192.83"/>
</g>
<!-- Node9 -->
<g id="node9" class="node">
<title>Node9</title>
<g id="a_node9"><a xlink:href="IComponentMemento_8h.html" target="_top" xlink:title=" ">
<polygon fill="white" stroke="#666666" points="274,-239 143,-239 143,-220 274,-220 274,-239"/>
<text text-anchor="middle" x="208.5" y="-227" font-family="Helvetica,sans-Serif" font-size="10.00">IComponentMemento.h</text>
</a>
</g>
</g>
<!-- Node2&#45;&gt;Node9 -->
<g id="edge8" class="edge">
<title>Node2&#45;&gt;Node9</title>
<path fill="none" stroke="#63b8ff" d="M335.24,-274.98C310.18,-266.19 270.87,-252.39 242.67,-242.49"/>
<polygon fill="#63b8ff" stroke="#63b8ff" points="243.8,-239.18 233.2,-239.17 241.48,-245.78 243.8,-239.18"/>
</g>
<!-- Node14 -->
<g id="node14" class="node">
<title>Node14</title>
<g id="a_node14"><a xlink:href="ComponentRegistry_8h.html" target="_top" xlink:title=" ">
<polygon fill="white" stroke="#666666" points="528,-239 407,-239 407,-220 528,-220 528,-239"/>
<text text-anchor="middle" x="467.5" y="-227" font-family="Helvetica,sans-Serif" font-size="10.00">ComponentRegistry.h</text>
</a>
</g>
</g>
<!-- Node2&#45;&gt;Node14 -->
<g id="edge16" class="edge">
<title>Node2&#45;&gt;Node14</title>
<path fill="none" stroke="#63b8ff" d="M376.85,-274.98C394.07,-266.54 420.7,-253.47 440.65,-243.68"/>
<polygon fill="#63b8ff" stroke="#63b8ff" points="442.4,-246.72 449.83,-239.17 439.31,-240.43 442.4,-246.72"/>
</g>
<!-- Node18 -->
<g id="node18" class="node">
<title>Node18</title>
<g id="a_node18"><a xlink:title=" ">
<polygon fill="#e0e0e0" stroke="#999999" points="611,-239 546,-239 546,-220 611,-220 611,-239"/>
<text text-anchor="middle" x="578.5" y="-227" font-family="Helvetica,sans-Serif" font-size="10.00">functional</text>
</a>
</g>
</g>
<!-- Node2&#45;&gt;Node18 -->
<g id="edge23" class="edge">
<title>Node2&#45;&gt;Node18</title>
<path fill="none" stroke="#63b8ff" d="M394.69,-274.98C433.22,-265.66 495.01,-250.71 536.17,-240.74"/>
<polygon fill="#63b8ff" stroke="#63b8ff" points="537.01,-244.14 545.9,-238.39 535.36,-237.34 537.01,-244.14"/>
</g>
<!-- Node19 -->
<g id="node19" class="node">
<title>Node19</title>
<g id="a_node19"><a xlink:title=" ">
<polygon fill="#e0e0e0" stroke="#999999" points="669.5,-239 629.5,-239 629.5,-220 669.5,-220 669.5,-239"/>
<text text-anchor="middle" x="649.5" y="-227" font-family="Helvetica,sans-Serif" font-size="10.00">span</text>
</a>
</g>
</g>
<!-- Node2&#45;&gt;Node19 -->
<g id="edge24" class="edge">
<title>Node2&#45;&gt;Node19</title>
<path fill="none" stroke="#63b8ff" d="M417.68,-275.56C468.54,-268.17 544.54,-256.05 619.25,-239.06"/>
<polygon fill="#63b8ff" stroke="#63b8ff" points="620.34,-242.4 629.3,-236.75 618.77,-235.58 620.34,-242.4"/>
</g>
<!-- Node7 -->
<g id="node7" class="node">
<title>Node7</title>
<g id="a_node7"><a xlink:title=" ">
<polygon fill="#e0e0e0" stroke="#999999" points="147.5,-129 87.5,-129 87.5,-110 147.5,-110 147.5,-129"/>
<text text-anchor="middle" x="117.5" y="-117" font-family="Helvetica,sans-Serif" font-size="10.00">concepts</text>
</a>
</g>
</g>
<!-- Node6&#45;&gt;Node7 -->
<g id="edge6" class="edge">
<title>Node6&#45;&gt;Node7</title>
<path fill="none" stroke="#63b8ff" d="M104.98,-164.75C106.96,-157.72 109.82,-147.62 112.31,-138.84"/>
<polygon fill="#63b8ff" stroke="#63b8ff" points="115.71,-139.66 115.07,-129.09 108.98,-137.76 115.71,-139.66"/>
</g>
<!-- Node8 -->
<g id="node8" class="node">
<title>Node8</title>
<g id="a_node8"><a xlink:title=" ">
<polygon fill="#e0e0e0" stroke="#999999" points="69,-129 0,-129 0,-110 69,-110 69,-129"/>
<text text-anchor="middle" x="34.5" y="-117" font-family="Helvetica,sans-Serif" font-size="10.00">type_traits</text>
</a>
</g>
</g>
<!-- Node6&#45;&gt;Node8 -->
<g id="edge7" class="edge">
<title>Node6&#45;&gt;Node8</title>
<path fill="none" stroke="#63b8ff" d="M91.57,-164.98C81.42,-157.07 66.08,-145.11 53.85,-135.58"/>
<polygon fill="#63b8ff" stroke="#63b8ff" points="55.66,-132.56 45.62,-129.17 51.36,-138.08 55.66,-132.56"/>
</g>
<!-- Node9&#45;&gt;Node4 -->
<g id="edge14" class="edge">
<title>Node9&#45;&gt;Node4</title>
<path fill="none" stroke="#63b8ff" d="M220.87,-219.98C232.59,-211.92 250.42,-199.65 264.39,-190.03"/>
<polygon fill="#63b8ff" stroke="#63b8ff" points="266.65,-192.72 272.9,-184.17 262.68,-186.96 266.65,-192.72"/>
</g>
<!-- Node9&#45;&gt;Node6 -->
<g id="edge15" class="edge">
<title>Node9&#45;&gt;Node6</title>
<path fill="none" stroke="#63b8ff" d="M191.47,-219.98C174.57,-211.54 148.44,-198.47 128.86,-188.68"/>
<polygon fill="#63b8ff" stroke="#63b8ff" points="130.35,-185.51 119.84,-184.17 127.22,-191.77 130.35,-185.51"/>
</g>
<!-- Node10 -->
<g id="node10" class="node">
<title>Node10</title>
<g id="a_node10"><a xlink:href="Entity_8h.html" target="_top" xlink:title=" ">
<polygon fill="white" stroke="#666666" points="235,-184 182,-184 182,-165 235,-165 235,-184"/>
<text text-anchor="middle" x="208.5" y="-172" font-family="Helvetica,sans-Serif" font-size="10.00">Entity.h</text>
</a>
</g>
</g>
<!-- Node9&#45;&gt;Node10 -->
<g id="edge9" class="edge">
<title>Node9&#45;&gt;Node10</title>
<path fill="none" stroke="#63b8ff" d="M208.5,-219.75C208.5,-212.8 208.5,-202.85 208.5,-194.13"/>
<polygon fill="#63b8ff" stroke="#63b8ff" points="212,-194.09 208.5,-184.09 205,-194.09 212,-194.09"/>
</g>
<!-- Node11 -->
<g id="node11" class="node">
<title>Node11</title>
<g id="a_node11"><a xlink:href="cmtgb_8h.html" target="_top" xlink:title=" ">
<polygon fill="white" stroke="#666666" points="236.5,-129 180.5,-129 180.5,-110 236.5,-110 236.5,-129"/>
<text text-anchor="middle" x="208.5" y="-117" font-family="Helvetica,sans-Serif" font-size="10.00">cmtgb.h</text>
</a>
</g>
</g>
<!-- Node10&#45;&gt;Node11 -->
<g id="edge10" class="edge">
<title>Node10&#45;&gt;Node11</title>
<path fill="none" stroke="#63b8ff" d="M208.5,-164.75C208.5,-157.8 208.5,-147.85 208.5,-139.13"/>
<polygon fill="#63b8ff" stroke="#63b8ff" points="212,-139.09 208.5,-129.09 205,-139.09 212,-139.09"/>
</g>
<!-- Node12 -->
<g id="node12" class="node">
<title>Node12</title>
<g id="a_node12"><a xlink:title=" ">
<polygon fill="#e0e0e0" stroke="#999999" points="232.5,-19 182.5,-19 182.5,0 232.5,0 232.5,-19"/>
<text text-anchor="middle" x="207.5" y="-7" font-family="Helvetica,sans-Serif" font-size="10.00">cstdint</text>
</a>
</g>
</g>
<!-- Node11&#45;&gt;Node12 -->
<g id="edge11" class="edge">
<title>Node11&#45;&gt;Node12</title>
<path fill="none" stroke="#63b8ff" d="M205.16,-109.8C201.95,-100.94 197.32,-86.75 195.5,-74 193.31,-58.71 196.95,-41.5 200.78,-28.86"/>
<polygon fill="#63b8ff" stroke="#63b8ff" points="204.19,-29.68 204.05,-19.09 197.55,-27.46 204.19,-29.68"/>
</g>
<!-- Node13 -->
<g id="node13" class="node">
<title>Node13</title>
<g id="a_node13"><a xlink:href="Handlers_8h.html" target="_top" xlink:title=" ">
<polygon fill="white" stroke="#666666" points="274,-74 205,-74 205,-55 274,-55 274,-74"/>
<text text-anchor="middle" x="239.5" y="-62" font-family="Helvetica,sans-Serif" font-size="10.00">Handlers.h</text>
</a>
</g>
</g>
<!-- Node11&#45;&gt;Node13 -->
<g id="edge12" class="edge">
<title>Node11&#45;&gt;Node13</title>
<path fill="none" stroke="#63b8ff" d="M213.62,-109.75C217.86,-102.49 224.03,-91.95 229.28,-82.98"/>
<polygon fill="#63b8ff" stroke="#63b8ff" points="232.45,-84.49 234.48,-74.09 226.41,-80.95 232.45,-84.49"/>
</g>
<!-- Node13&#45;&gt;Node12 -->
<g id="edge13" class="edge">
<title>Node13&#45;&gt;Node12</title>
<path fill="none" stroke="#63b8ff" d="M234.22,-54.75C229.79,-47.42 223.34,-36.73 217.88,-27.7"/>
<polygon fill="#63b8ff" stroke="#63b8ff" points="220.85,-25.84 212.69,-19.09 214.86,-29.46 220.85,-25.84"/>
</g>
<!-- Node14&#45;&gt;Node3 -->
<g id="edge17" class="edge">
<title>Node14&#45;&gt;Node3</title>
<path fill="none" stroke="#63b8ff" d="M451.59,-219.98C435.95,-211.61 411.84,-198.7 393.62,-188.95"/>
<polygon fill="#63b8ff" stroke="#63b8ff" points="395.16,-185.8 384.7,-184.17 391.86,-191.98 395.16,-185.8"/>
</g>
<!-- Node14&#45;&gt;Node4 -->
<g id="edge19" class="edge">
<title>Node14&#45;&gt;Node4</title>
<path fill="none" stroke="#63b8ff" d="M438.26,-219.98C407.44,-211.01 358.72,-196.82 324.61,-186.89"/>
<polygon fill="#63b8ff" stroke="#63b8ff" points="325.55,-183.52 314.97,-184.08 323.59,-190.24 325.55,-183.52"/>
</g>
<!-- Node14&#45;&gt;Node5 -->
<g id="edge18" class="edge">
<title>Node14&#45;&gt;Node5</title>
<path fill="none" stroke="#63b8ff" d="M467.17,-219.75C466.91,-212.8 466.53,-202.85 466.2,-194.13"/>
<polygon fill="#63b8ff" stroke="#63b8ff" points="469.7,-193.95 465.82,-184.09 462.7,-194.21 469.7,-193.95"/>
</g>
<!-- Node15 -->
<g id="node15" class="node">
<title>Node15</title>
<g id="a_node15"><a xlink:title=" ">
<polygon fill="#e0e0e0" stroke="#999999" points="586.5,-184 530.5,-184 530.5,-165 586.5,-165 586.5,-184"/>
<text text-anchor="middle" x="558.5" y="-172" font-family="Helvetica,sans-Serif" font-size="10.00">optional</text>
</a>
</g>
</g>
<!-- Node14&#45;&gt;Node15 -->
<g id="edge20" class="edge">
<title>Node14&#45;&gt;Node15</title>
<path fill="none" stroke="#63b8ff" d="M482.12,-219.98C496.36,-211.69 518.25,-198.94 534.95,-189.22"/>
<polygon fill="#63b8ff" stroke="#63b8ff" points="536.73,-192.23 543.61,-184.17 533.21,-186.18 536.73,-192.23"/>
</g>
<!-- Node16 -->
<g id="node16" class="node">
<title>Node16</title>
<g id="a_node16"><a xlink:title=" ">
<polygon fill="#e0e0e0" stroke="#999999" points="636.5,-184 604.5,-184 604.5,-165 636.5,-165 636.5,-184"/>
<text text-anchor="middle" x="620.5" y="-172" font-family="Helvetica,sans-Serif" font-size="10.00">set</text>
</a>
</g>
</g>
<!-- Node14&#45;&gt;Node16 -->
<g id="edge21" class="edge">
<title>Node14&#45;&gt;Node16</title>
<path fill="none" stroke="#63b8ff" d="M492.08,-219.98C520.22,-210.24 566.1,-194.35 594.73,-184.43"/>
<polygon fill="#63b8ff" stroke="#63b8ff" points="596.12,-187.65 604.43,-181.07 593.83,-181.03 596.12,-187.65"/>
</g>
<!-- Node17 -->
<g id="node17" class="node">
<title>Node17</title>
<g id="a_node17"><a xlink:title=" ">
<polygon fill="#e0e0e0" stroke="#999999" points="764.5,-184 654.5,-184 654.5,-165 764.5,-165 764.5,-184"/>
<text text-anchor="middle" x="709.5" y="-172" font-family="Helvetica,sans-Serif" font-size="10.00">nlohmann/json.hpp</text>
</a>
</g>
</g>
<!-- Node14&#45;&gt;Node17 -->
<g id="edge22" class="edge">
<title>Node14&#45;&gt;Node17</title>
<path fill="none" stroke="#63b8ff" d="M506.38,-219.98C548.24,-210.82 614.93,-196.21 660.38,-186.26"/>
<polygon fill="#63b8ff" stroke="#63b8ff" points="661.29,-189.64 670.31,-184.08 659.8,-182.8 661.29,-189.64"/>
</g>
</g>
</svg>
