<?xml version="1.0" encoding="UTF-8" standalone="no"?>
<!DOCTYPE svg PUBLIC "-//W3C//DTD SVG 1.1//EN"
 "http://www.w3.org/Graphics/SVG/1.1/DTD/svg11.dtd">
<!-- Generated by graphviz version 2.43.0 (0)
 -->
<!-- Title: DefaultShow.inl Pages: 1 -->
<svg width="211pt" height="302pt"
 viewBox="0.00 0.00 210.50 302.00" xmlns="http://www.w3.org/2000/svg" xmlns:xlink="http://www.w3.org/1999/xlink">
<g id="graph0" class="graph" transform="scale(1 1) rotate(0) translate(4 298)">
<title>DefaultShow.inl</title>
<!-- Node1 -->
<g id="node1" class="node">
<title>Node1</title>
<g id="a_node1"><a xlink:title=" ">
<polygon fill="#999999" stroke="#666666" points="117.5,-294 24.5,-294 24.5,-275 117.5,-275 117.5,-294"/>
<text text-anchor="middle" x="71" y="-282" font-family="Helvetica,sans-Serif" font-size="10.00">DefaultShow.inl</text>
</a>
</g>
</g>
<!-- Node2 -->
<g id="node2" class="node">
<title>Node2</title>
<g id="a_node2"><a xlink:href="Command_8h.html" target="_top" xlink:title=" ">
<polygon fill="white" stroke="#666666" points="76,-184 0,-184 0,-165 76,-165 76,-184"/>
<text text-anchor="middle" x="38" y="-172" font-family="Helvetica,sans-Serif" font-size="10.00">Command.h</text>
</a>
</g>
</g>
<!-- Node1&#45;&gt;Node2 -->
<g id="edge1" class="edge">
<title>Node1&#45;&gt;Node2</title>
<path fill="none" stroke="#63b8ff" d="M64.13,-274.89C57.72,-266.33 48.49,-252.55 44,-239 39.21,-224.53 37.83,-207.26 37.59,-194.38"/>
<polygon fill="#63b8ff" stroke="#63b8ff" points="41.09,-194.39 37.61,-184.38 34.09,-194.38 41.09,-194.39"/>
</g>
<!-- Node7 -->
<g id="node7" class="node">
<title>Node7</title>
<g id="a_node7"><a xlink:href="ImGuiInputCommand_8h.html" target="_top" xlink:title=" ">
<polygon fill="white" stroke="#666666" points="183,-239 53,-239 53,-220 183,-220 183,-239"/>
<text text-anchor="middle" x="118" y="-227" font-family="Helvetica,sans-Serif" font-size="10.00">ImGuiInputCommand.h</text>
</a>
</g>
</g>
<!-- Node1&#45;&gt;Node7 -->
<g id="edge7" class="edge">
<title>Node1&#45;&gt;Node7</title>
<path fill="none" stroke="#63b8ff" d="M78.76,-274.75C85.47,-267.18 95.34,-256.05 103.51,-246.84"/>
<polygon fill="#63b8ff" stroke="#63b8ff" points="106.37,-248.89 110.38,-239.09 101.13,-244.25 106.37,-248.89"/>
</g>
<!-- Node3 -->
<g id="node3" class="node">
<title>Node3</title>
<g id="a_node3"><a xlink:title=" ">
<polygon fill="#e0e0e0" stroke="#999999" points="127,-129 83,-129 83,-110 127,-110 127,-129"/>
<text text-anchor="middle" x="105" y="-117" font-family="Helvetica,sans-Serif" font-size="10.00">string</text>
</a>
</g>
</g>
<!-- Node2&#45;&gt;Node3 -->
<g id="edge2" class="edge">
<title>Node2&#45;&gt;Node3</title>
<path fill="none" stroke="#63b8ff" d="M48.76,-164.98C58.77,-157.07 73.89,-145.11 85.93,-135.58"/>
<polygon fill="#63b8ff" stroke="#63b8ff" points="88.37,-138.12 94.04,-129.17 84.03,-132.63 88.37,-138.12"/>
</g>
<!-- Node4 -->
<g id="node4" class="node">
<title>Node4</title>
<g id="a_node4"><a xlink:href="cmtgb_8h.html" target="_top" xlink:title=" ">
<polygon fill="white" stroke="#666666" points="65,-129 9,-129 9,-110 65,-110 65,-129"/>
<text text-anchor="middle" x="37" y="-117" font-family="Helvetica,sans-Serif" font-size="10.00">cmtgb.h</text>
</a>
</g>
</g>
<!-- Node2&#45;&gt;Node4 -->
<g id="edge3" class="edge">
<title>Node2&#45;&gt;Node4</title>
<path fill="none" stroke="#63b8ff" d="M37.83,-164.75C37.7,-157.8 37.52,-147.85 37.35,-139.13"/>
<polygon fill="#63b8ff" stroke="#63b8ff" points="40.85,-139.02 37.16,-129.09 33.85,-139.15 40.85,-139.02"/>
</g>
<!-- Node5 -->
<g id="node5" class="node">
<title>Node5</title>
<g id="a_node5"><a xlink:title=" ">
<polygon fill="#e0e0e0" stroke="#999999" points="62,-19 12,-19 12,0 62,0 62,-19"/>
<text text-anchor="middle" x="37" y="-7" font-family="Helvetica,sans-Serif" font-size="10.00">cstdint</text>
</a>
</g>
</g>
<!-- Node4&#45;&gt;Node5 -->
<g id="edge4" class="edge">
<title>Node4&#45;&gt;Node5</title>
<path fill="none" stroke="#63b8ff" d="M33.61,-109.92C29.2,-97.76 22.38,-74.8 25,-55 26.16,-46.27 28.53,-36.83 30.87,-28.9"/>
<polygon fill="#63b8ff" stroke="#63b8ff" points="34.25,-29.82 33.91,-19.23 27.57,-27.72 34.25,-29.82"/>
</g>
<!-- Node6 -->
<g id="node6" class="node">
<title>Node6</title>
<g id="a_node6"><a xlink:href="Handlers_8h.html" target="_top" xlink:title=" ">
<polygon fill="white" stroke="#666666" points="103.5,-74 34.5,-74 34.5,-55 103.5,-55 103.5,-74"/>
<text text-anchor="middle" x="69" y="-62" font-family="Helvetica,sans-Serif" font-size="10.00">Handlers.h</text>
</a>
</g>
</g>
<!-- Node4&#45;&gt;Node6 -->
<g id="edge5" class="edge">
<title>Node4&#45;&gt;Node6</title>
<path fill="none" stroke="#63b8ff" d="M42.28,-109.75C46.71,-102.42 53.16,-91.73 58.62,-82.7"/>
<polygon fill="#63b8ff" stroke="#63b8ff" points="61.64,-84.46 63.81,-74.09 55.65,-80.84 61.64,-84.46"/>
</g>
<!-- Node6&#45;&gt;Node5 -->
<g id="edge6" class="edge">
<title>Node6&#45;&gt;Node5</title>
<path fill="none" stroke="#63b8ff" d="M63.72,-54.75C59.29,-47.42 52.84,-36.73 47.38,-27.7"/>
<polygon fill="#63b8ff" stroke="#63b8ff" points="50.35,-25.84 42.19,-19.09 44.36,-29.46 50.35,-25.84"/>
</g>
<!-- Node7&#45;&gt;Node2 -->
<g id="edge10" class="edge">
<title>Node7&#45;&gt;Node2</title>
<path fill="none" stroke="#63b8ff" d="M105.15,-219.98C92.86,-211.84 74.09,-199.41 59.52,-189.76"/>
<polygon fill="#63b8ff" stroke="#63b8ff" points="61.36,-186.78 51.09,-184.17 57.49,-192.61 61.36,-186.78"/>
</g>
<!-- Node7&#45;&gt;Node3 -->
<g id="edge8" class="edge">
<title>Node7&#45;&gt;Node3</title>
<path fill="none" stroke="#63b8ff" d="M116.94,-219.66C114.83,-202.17 110.09,-162.8 107.26,-139.27"/>
<polygon fill="#63b8ff" stroke="#63b8ff" points="110.71,-138.67 106.04,-129.16 103.76,-139.51 110.71,-138.67"/>
</g>
<!-- Node8 -->
<g id="node8" class="node">
<title>Node8</title>
<g id="a_node8"><a xlink:title=" ">
<polygon fill="#e0e0e0" stroke="#999999" points="202.5,-184 133.5,-184 133.5,-165 202.5,-165 202.5,-184"/>
<text text-anchor="middle" x="168" y="-172" font-family="Helvetica,sans-Serif" font-size="10.00">type_traits</text>
</a>
</g>
</g>
<!-- Node7&#45;&gt;Node8 -->
<g id="edge9" class="edge">
<title>Node7&#45;&gt;Node8</title>
<path fill="none" stroke="#63b8ff" d="M126.26,-219.75C133.46,-212.11 144.11,-200.82 152.85,-191.56"/>
<polygon fill="#63b8ff" stroke="#63b8ff" points="155.58,-193.76 159.9,-184.09 150.49,-188.96 155.58,-193.76"/>
</g>
</g>
</svg>
