<?xml version="1.0" encoding="UTF-8" standalone="no"?>
<!DOCTYPE svg PUBLIC "-//W3C//DTD SVG 1.1//EN"
 "http://www.w3.org/Graphics/SVG/1.1/DTD/svg11.dtd">
<!-- Generated by graphviz version 2.43.0 (0)
 -->
<!-- Title: Direct2DResource.h Pages: 1 -->
<svg width="508pt" height="192pt"
 viewBox="0.00 0.00 507.50 192.00" xmlns="http://www.w3.org/2000/svg" xmlns:xlink="http://www.w3.org/1999/xlink">
<g id="graph0" class="graph" transform="scale(1 1) rotate(0) translate(4 188)">
<title>Direct2DResource.h</title>
<!-- Node1 -->
<g id="node1" class="node">
<title>Node1</title>
<g id="a_node1"><a xlink:title=" ">
<polygon fill="#999999" stroke="#666666" points="428.5,-184 315.5,-184 315.5,-165 428.5,-165 428.5,-184"/>
<text text-anchor="middle" x="372" y="-172" font-family="Helvetica,sans-Serif" font-size="10.00">Direct2DResource.h</text>
</a>
</g>
</g>
<!-- Node2 -->
<g id="node2" class="node">
<title>Node2</title>
<g id="a_node2"><a xlink:href="WindowContextResource_8h.html" target="_top" xlink:title=" ">
<polygon fill="white" stroke="#666666" points="259,-129 111,-129 111,-110 259,-110 259,-129"/>
<text text-anchor="middle" x="185" y="-117" font-family="Helvetica,sans-Serif" font-size="10.00">WindowContextResource.h</text>
</a>
</g>
</g>
<!-- Node1&#45;&gt;Node2 -->
<g id="edge1" class="edge">
<title>Node1&#45;&gt;Node2</title>
<path fill="none" stroke="#63b8ff" d="M341.96,-164.98C310.29,-156.01 260.23,-141.82 225.19,-131.89"/>
<polygon fill="#63b8ff" stroke="#63b8ff" points="225.86,-128.44 215.28,-129.08 223.95,-135.18 225.86,-128.44"/>
</g>
<!-- Node7 -->
<g id="node7" class="node">
<title>Node7</title>
<g id="a_node7"><a xlink:href="WindowContext_8h.html" target="_top" xlink:title=" ">
<polygon fill="white" stroke="#666666" points="340.5,-74 237.5,-74 237.5,-55 340.5,-55 340.5,-74"/>
<text text-anchor="middle" x="289" y="-62" font-family="Helvetica,sans-Serif" font-size="10.00">WindowContext.h</text>
</a>
</g>
</g>
<!-- Node1&#45;&gt;Node7 -->
<g id="edge14" class="edge">
<title>Node1&#45;&gt;Node7</title>
<path fill="none" stroke="#63b8ff" d="M365.21,-164.66C351.4,-146.69 319.85,-105.64 301.98,-82.38"/>
<polygon fill="#63b8ff" stroke="#63b8ff" points="304.52,-79.95 295.65,-74.16 298.97,-84.22 304.52,-79.95"/>
</g>
<!-- Node9 -->
<g id="node9" class="node">
<title>Node9</title>
<g id="a_node9"><a xlink:title=" ">
<polygon fill="#e0e0e0" stroke="#999999" points="410,-19 340,-19 340,0 410,0 410,-19"/>
<text text-anchor="middle" x="375" y="-7" font-family="Helvetica,sans-Serif" font-size="10.00">Windows.h</text>
</a>
</g>
</g>
<!-- Node1&#45;&gt;Node9 -->
<g id="edge15" class="edge">
<title>Node1&#45;&gt;Node9</title>
<path fill="none" stroke="#63b8ff" d="M372.16,-164.74C372.63,-139.31 374,-65.08 374.65,-29.69"/>
<polygon fill="#63b8ff" stroke="#63b8ff" points="378.15,-29.37 374.84,-19.31 371.15,-29.24 378.15,-29.37"/>
</g>
<!-- Node12 -->
<g id="node12" class="node">
<title>Node12</title>
<g id="a_node12"><a xlink:title=" ">
<polygon fill="#e0e0e0" stroke="#999999" points="499.5,-19 428.5,-19 428.5,0 499.5,0 499.5,-19"/>
<text text-anchor="middle" x="464" y="-7" font-family="Helvetica,sans-Serif" font-size="10.00">wrl/client.h</text>
</a>
</g>
</g>
<!-- Node1&#45;&gt;Node12 -->
<g id="edge16" class="edge">
<title>Node1&#45;&gt;Node12</title>
<path fill="none" stroke="#63b8ff" d="M376.95,-164.74C391.49,-138.98 434.29,-63.13 453.94,-28.33"/>
<polygon fill="#63b8ff" stroke="#63b8ff" points="457.16,-29.74 459.03,-19.31 451.07,-26.3 457.16,-29.74"/>
</g>
<!-- Node13 -->
<g id="node13" class="node">
<title>Node13</title>
<g id="a_node13"><a xlink:title=" ">
<polygon fill="#e0e0e0" stroke="#999999" points="488,-129 438,-129 438,-110 488,-110 488,-129"/>
<text text-anchor="middle" x="463" y="-117" font-family="Helvetica,sans-Serif" font-size="10.00">d2d1.h</text>
</a>
</g>
</g>
<!-- Node1&#45;&gt;Node13 -->
<g id="edge13" class="edge">
<title>Node1&#45;&gt;Node13</title>
<path fill="none" stroke="#63b8ff" d="M386.62,-164.98C400.86,-156.69 422.75,-143.94 439.45,-134.22"/>
<polygon fill="#63b8ff" stroke="#63b8ff" points="441.23,-137.23 448.11,-129.17 437.71,-131.18 441.23,-137.23"/>
</g>
<!-- Node3 -->
<g id="node3" class="node">
<title>Node3</title>
<g id="a_node3"><a xlink:title=" ">
<polygon fill="#e0e0e0" stroke="#999999" points="219.5,-74 178.5,-74 178.5,-55 219.5,-55 219.5,-74"/>
<text text-anchor="middle" x="199" y="-62" font-family="Helvetica,sans-Serif" font-size="10.00">tuple</text>
</a>
</g>
</g>
<!-- Node2&#45;&gt;Node3 -->
<g id="edge2" class="edge">
<title>Node2&#45;&gt;Node3</title>
<path fill="none" stroke="#63b8ff" d="M187.31,-109.75C189.17,-102.72 191.84,-92.62 194.15,-83.84"/>
<polygon fill="#63b8ff" stroke="#63b8ff" points="197.56,-84.65 196.73,-74.09 190.79,-82.86 197.56,-84.65"/>
</g>
<!-- Node4 -->
<g id="node4" class="node">
<title>Node4</title>
<g id="a_node4"><a xlink:title=" ">
<polygon fill="#e0e0e0" stroke="#999999" points="38,-74 0,-74 0,-55 38,-55 38,-74"/>
<text text-anchor="middle" x="19" y="-62" font-family="Helvetica,sans-Serif" font-size="10.00">map</text>
</a>
</g>
</g>
<!-- Node2&#45;&gt;Node4 -->
<g id="edge3" class="edge">
<title>Node2&#45;&gt;Node4</title>
<path fill="none" stroke="#63b8ff" d="M158.33,-109.98C128.19,-100.36 79.3,-84.75 48.17,-74.81"/>
<polygon fill="#63b8ff" stroke="#63b8ff" points="48.94,-71.38 38.34,-71.68 46.81,-78.05 48.94,-71.38"/>
</g>
<!-- Node5 -->
<g id="node5" class="node">
<title>Node5</title>
<g id="a_node5"><a xlink:title=" ">
<polygon fill="#e0e0e0" stroke="#999999" points="121.5,-74 56.5,-74 56.5,-55 121.5,-55 121.5,-74"/>
<text text-anchor="middle" x="89" y="-62" font-family="Helvetica,sans-Serif" font-size="10.00">typeindex</text>
</a>
</g>
</g>
<!-- Node2&#45;&gt;Node5 -->
<g id="edge4" class="edge">
<title>Node2&#45;&gt;Node5</title>
<path fill="none" stroke="#63b8ff" d="M169.58,-109.98C154.55,-101.69 131.46,-88.94 113.84,-79.22"/>
<polygon fill="#63b8ff" stroke="#63b8ff" points="115.15,-75.94 104.7,-74.17 111.77,-82.07 115.15,-75.94"/>
</g>
<!-- Node6 -->
<g id="node6" class="node">
<title>Node6</title>
<g id="a_node6"><a xlink:title=" ">
<polygon fill="#e0e0e0" stroke="#999999" points="111,-19 55,-19 55,0 111,0 111,-19"/>
<text text-anchor="middle" x="83" y="-7" font-family="Helvetica,sans-Serif" font-size="10.00">d3d11.h</text>
</a>
</g>
</g>
<!-- Node2&#45;&gt;Node6 -->
<g id="edge5" class="edge">
<title>Node2&#45;&gt;Node6</title>
<path fill="none" stroke="#63b8ff" d="M177.79,-109.63C167.53,-97.13 147.95,-73.76 130,-55 120.48,-45.05 109.31,-34.44 100.25,-26.07"/>
<polygon fill="#63b8ff" stroke="#63b8ff" points="102.37,-23.26 92.63,-19.1 97.65,-28.43 102.37,-23.26"/>
</g>
<!-- Node2&#45;&gt;Node7 -->
<g id="edge6" class="edge">
<title>Node2&#45;&gt;Node7</title>
<path fill="none" stroke="#63b8ff" d="M201.71,-109.98C218.21,-101.57 243.7,-88.59 262.88,-78.81"/>
<polygon fill="#63b8ff" stroke="#63b8ff" points="264.67,-81.83 271.99,-74.17 261.49,-75.59 264.67,-81.83"/>
</g>
<!-- Node7&#45;&gt;Node6 -->
<g id="edge8" class="edge">
<title>Node7&#45;&gt;Node6</title>
<path fill="none" stroke="#63b8ff" d="M255.9,-54.98C219.05,-45.5 159.59,-30.2 120.9,-20.25"/>
<polygon fill="#63b8ff" stroke="#63b8ff" points="121.61,-16.82 111.05,-17.72 119.86,-23.6 121.61,-16.82"/>
</g>
<!-- Node8 -->
<g id="node8" class="node">
<title>Node8</title>
<g id="a_node8"><a xlink:title=" ">
<polygon fill="#e0e0e0" stroke="#999999" points="173,-19 129,-19 129,0 173,0 173,-19"/>
<text text-anchor="middle" x="151" y="-7" font-family="Helvetica,sans-Serif" font-size="10.00">string</text>
</a>
</g>
</g>
<!-- Node7&#45;&gt;Node8 -->
<g id="edge7" class="edge">
<title>Node7&#45;&gt;Node8</title>
<path fill="none" stroke="#63b8ff" d="M266.83,-54.98C244.09,-46.25 208.52,-32.59 182.79,-22.71"/>
<polygon fill="#63b8ff" stroke="#63b8ff" points="183.71,-19.31 173.12,-18.99 181.2,-25.85 183.71,-19.31"/>
</g>
<!-- Node7&#45;&gt;Node9 -->
<g id="edge9" class="edge">
<title>Node7&#45;&gt;Node9</title>
<path fill="none" stroke="#63b8ff" d="M302.82,-54.98C316.15,-46.77 336.58,-34.18 352.31,-24.49"/>
<polygon fill="#63b8ff" stroke="#63b8ff" points="354.25,-27.4 360.93,-19.17 350.58,-21.44 354.25,-27.4"/>
</g>
<!-- Node10 -->
<g id="node10" class="node">
<title>Node10</title>
<g id="a_node10"><a xlink:title=" ">
<polygon fill="#e0e0e0" stroke="#999999" points="238.5,-19 191.5,-19 191.5,0 238.5,0 238.5,-19"/>
<text text-anchor="middle" x="215" y="-7" font-family="Helvetica,sans-Serif" font-size="10.00">dxgi.h</text>
</a>
</g>
</g>
<!-- Node7&#45;&gt;Node10 -->
<g id="edge10" class="edge">
<title>Node7&#45;&gt;Node10</title>
<path fill="none" stroke="#63b8ff" d="M277.11,-54.98C265.85,-46.92 248.71,-34.65 235.29,-25.03"/>
<polygon fill="#63b8ff" stroke="#63b8ff" points="237.27,-22.15 227.11,-19.17 233.2,-27.84 237.27,-22.15"/>
</g>
<!-- Node11 -->
<g id="node11" class="node">
<title>Node11</title>
<g id="a_node11"><a xlink:title=" ">
<polygon fill="#e0e0e0" stroke="#999999" points="321.5,-19 256.5,-19 256.5,0 321.5,0 321.5,-19"/>
<text text-anchor="middle" x="289" y="-7" font-family="Helvetica,sans-Serif" font-size="10.00">Dxgi1_2.h</text>
</a>
</g>
</g>
<!-- Node7&#45;&gt;Node11 -->
<g id="edge11" class="edge">
<title>Node7&#45;&gt;Node11</title>
<path fill="none" stroke="#63b8ff" d="M289,-54.75C289,-47.8 289,-37.85 289,-29.13"/>
<polygon fill="#63b8ff" stroke="#63b8ff" points="292.5,-29.09 289,-19.09 285.5,-29.09 292.5,-29.09"/>
</g>
<!-- Node7&#45;&gt;Node12 -->
<g id="edge12" class="edge">
<title>Node7&#45;&gt;Node12</title>
<path fill="none" stroke="#63b8ff" d="M317.12,-54.98C346.62,-46.05 393.19,-31.94 425.97,-22.02"/>
<polygon fill="#63b8ff" stroke="#63b8ff" points="427.11,-25.33 435.66,-19.08 425.08,-18.63 427.11,-25.33"/>
</g>
</g>
</svg>
