<?xml version="1.0" encoding="UTF-8" standalone="no"?>
<!DOCTYPE svg PUBLIC "-//W3C//DTD SVG 1.1//EN"
 "http://www.w3.org/Graphics/SVG/1.1/DTD/svg11.dtd">
<!-- Generated by graphviz version 2.43.0 (0)
 -->
<!-- Title: Direct2D.cpp Pages: 1 -->
<svg width="1779pt" height="467pt"
 viewBox="0.00 0.00 1778.75 467.00" xmlns="http://www.w3.org/2000/svg" xmlns:xlink="http://www.w3.org/1999/xlink">
<g id="graph0" class="graph" transform="scale(1 1) rotate(0) translate(4 463)">
<title>Direct2D.cpp</title>
<!-- Node1 -->
<g id="node1" class="node">
<title>Node1</title>
<g id="a_node1"><a xlink:title=" ">
<polygon fill="#999999" stroke="#666666" points="961.25,-459 881.25,-459 881.25,-440 961.25,-440 961.25,-459"/>
<text text-anchor="middle" x="921.25" y="-447" font-family="Helvetica,sans-Serif" font-size="10.00">Direct2D.cpp</text>
</a>
</g>
</g>
<!-- Node2 -->
<g id="node2" class="node">
<title>Node2</title>
<g id="a_node2"><a xlink:href="Direct2D_8h.html" target="_top" xlink:title=" ">
<polygon fill="white" stroke="#666666" points="328.25,-294 260.25,-294 260.25,-275 328.25,-275 328.25,-294"/>
<text text-anchor="middle" x="294.25" y="-282" font-family="Helvetica,sans-Serif" font-size="10.00">Direct2D.h</text>
</a>
</g>
</g>
<!-- Node1&#45;&gt;Node2 -->
<g id="edge1" class="edge">
<title>Node1&#45;&gt;Node2</title>
<path fill="none" stroke="#63b8ff" d="M880.96,-447.83C756.76,-445.43 385.54,-435.65 342.25,-404 309.95,-380.39 299.34,-331.28 295.89,-304.28"/>
<polygon fill="#63b8ff" stroke="#63b8ff" points="299.35,-303.78 294.8,-294.21 292.39,-304.52 299.35,-303.78"/>
</g>
<!-- Node6 -->
<g id="node6" class="node">
<title>Node6</title>
<g id="a_node6"><a xlink:title=" ">
<polygon fill="#e0e0e0" stroke="#999999" points="428.25,-239 378.25,-239 378.25,-220 428.25,-220 428.25,-239"/>
<text text-anchor="middle" x="403.25" y="-227" font-family="Helvetica,sans-Serif" font-size="10.00">d2d1.h</text>
</a>
</g>
</g>
<!-- Node1&#45;&gt;Node6 -->
<g id="edge77" class="edge">
<title>Node1&#45;&gt;Node6</title>
<path fill="none" stroke="#63b8ff" d="M881.16,-443.37C765.86,-427.74 437.72,-376.6 375.25,-294 364.42,-279.68 375.69,-260.5 387,-246.99"/>
<polygon fill="#63b8ff" stroke="#63b8ff" points="389.75,-249.16 393.85,-239.39 384.56,-244.47 389.75,-249.16"/>
</g>
<!-- Node8 -->
<g id="node8" class="node">
<title>Node8</title>
<g id="a_node8"><a xlink:href="MTAssert_8h.html" target="_top" xlink:title=" ">
<polygon fill="white" stroke="#666666" points="905.75,-404 834.75,-404 834.75,-385 905.75,-385 905.75,-404"/>
<text text-anchor="middle" x="870.25" y="-392" font-family="Helvetica,sans-Serif" font-size="10.00">MTAssert.h</text>
</a>
</g>
</g>
<!-- Node1&#45;&gt;Node8 -->
<g id="edge8" class="edge">
<title>Node1&#45;&gt;Node8</title>
<path fill="none" stroke="#63b8ff" d="M912.83,-439.75C905.48,-432.11 894.62,-420.82 885.71,-411.56"/>
<polygon fill="#63b8ff" stroke="#63b8ff" points="887.97,-408.87 878.52,-404.09 882.93,-413.72 887.97,-408.87"/>
</g>
<!-- Node10 -->
<g id="node10" class="node">
<title>Node10</title>
<g id="a_node10"><a xlink:href="IncludingWindows_8h.html" target="_top" xlink:title=" ">
<polygon fill="white" stroke="#666666" points="1030.25,-349 916.25,-349 916.25,-330 1030.25,-330 1030.25,-349"/>
<text text-anchor="middle" x="973.25" y="-337" font-family="Helvetica,sans-Serif" font-size="10.00">IncludingWindows.h</text>
</a>
</g>
</g>
<!-- Node1&#45;&gt;Node10 -->
<g id="edge78" class="edge">
<title>Node1&#45;&gt;Node10</title>
<path fill="none" stroke="#63b8ff" d="M925.51,-439.66C934.04,-421.93 953.4,-381.73 964.67,-358.32"/>
<polygon fill="#63b8ff" stroke="#63b8ff" points="967.9,-359.69 969.08,-349.16 961.59,-356.65 967.9,-359.69"/>
</g>
<!-- Node29 -->
<g id="node29" class="node">
<title>Node29</title>
<g id="a_node29"><a xlink:href="ReleaseUtility_8h.html" target="_top" xlink:title=" ">
<polygon fill="white" stroke="#666666" points="1770.75,-294 1677.75,-294 1677.75,-275 1770.75,-275 1770.75,-294"/>
<text text-anchor="middle" x="1724.25" y="-282" font-family="Helvetica,sans-Serif" font-size="10.00">ReleaseUtility.h</text>
</a>
</g>
</g>
<!-- Node1&#45;&gt;Node29 -->
<g id="edge74" class="edge">
<title>Node1&#45;&gt;Node29</title>
<path fill="none" stroke="#63b8ff" d="M938.68,-439.89C967.17,-426.17 1025.81,-399.43 1078.25,-385 1085.4,-383.03 1511.59,-317.94 1667.72,-294.12"/>
<polygon fill="#63b8ff" stroke="#63b8ff" points="1668.25,-297.58 1677.61,-292.61 1667.2,-290.66 1668.25,-297.58"/>
</g>
<!-- Node43 -->
<g id="node41" class="node">
<title>Node43</title>
<g id="a_node41"><a xlink:href="DirectX11Draw_8h.html" target="_top" xlink:title=" ">
<polygon fill="white" stroke="#666666" points="222.25,-294 124.25,-294 124.25,-275 222.25,-275 222.25,-294"/>
<text text-anchor="middle" x="173.25" y="-282" font-family="Helvetica,sans-Serif" font-size="10.00">DirectX11Draw.h</text>
</a>
</g>
</g>
<!-- Node1&#45;&gt;Node43 -->
<g id="edge60" class="edge">
<title>Node1&#45;&gt;Node43</title>
<path fill="none" stroke="#63b8ff" d="M881.24,-448.6C764.1,-448.4 423.69,-444.27 321.25,-404 264.03,-381.5 211.52,-328.75 187.31,-301.87"/>
<polygon fill="#63b8ff" stroke="#63b8ff" points="189.71,-299.3 180.47,-294.12 184.46,-303.94 189.71,-299.3"/>
</g>
<!-- Node51 -->
<g id="node49" class="node">
<title>Node51</title>
<g id="a_node49"><a xlink:title=" ">
<polygon fill="#e0e0e0" stroke="#999999" points="1153.75,-404 1086.75,-404 1086.75,-385 1153.75,-385 1153.75,-404"/>
<text text-anchor="middle" x="1120.25" y="-392" font-family="Helvetica,sans-Serif" font-size="10.00">d3d11_1.h</text>
</a>
</g>
</g>
<!-- Node1&#45;&gt;Node51 -->
<g id="edge75" class="edge">
<title>Node1&#45;&gt;Node51</title>
<path fill="none" stroke="#63b8ff" d="M953.22,-439.98C987.07,-430.97 1040.65,-416.7 1077.96,-406.76"/>
<polygon fill="#63b8ff" stroke="#63b8ff" points="1079.27,-410.04 1088.03,-404.08 1077.46,-403.27 1079.27,-410.04"/>
</g>
<!-- Node52 -->
<g id="node50" class="node">
<title>Node52</title>
<g id="a_node50"><a xlink:title=" ">
<polygon fill="#e0e0e0" stroke="#999999" points="1228.25,-404 1172.25,-404 1172.25,-385 1228.25,-385 1228.25,-404"/>
<text text-anchor="middle" x="1200.25" y="-392" font-family="Helvetica,sans-Serif" font-size="10.00">d3d11.h</text>
</a>
</g>
</g>
<!-- Node1&#45;&gt;Node52 -->
<g id="edge76" class="edge">
<title>Node1&#45;&gt;Node52</title>
<path fill="none" stroke="#63b8ff" d="M961.61,-441.64C1007.66,-433.68 1085.5,-419.87 1161.74,-404.24"/>
<polygon fill="#63b8ff" stroke="#63b8ff" points="1162.91,-407.57 1172,-402.13 1161.5,-400.72 1162.91,-407.57"/>
</g>
<!-- Node3 -->
<g id="node3" class="node">
<title>Node3</title>
<g id="a_node3"><a xlink:href="cmtgb_8h.html" target="_top" xlink:title=" ">
<polygon fill="white" stroke="#666666" points="378.25,-129 322.25,-129 322.25,-110 378.25,-110 378.25,-129"/>
<text text-anchor="middle" x="350.25" y="-117" font-family="Helvetica,sans-Serif" font-size="10.00">cmtgb.h</text>
</a>
</g>
</g>
<!-- Node2&#45;&gt;Node3 -->
<g id="edge2" class="edge">
<title>Node2&#45;&gt;Node3</title>
<path fill="none" stroke="#63b8ff" d="M303.52,-274.9C311.9,-266.56 323.88,-253.13 330.25,-239 345.07,-206.15 349,-163.68 349.98,-139.53"/>
<polygon fill="#63b8ff" stroke="#63b8ff" points="353.49,-139.36 350.27,-129.27 346.49,-139.16 353.49,-139.36"/>
</g>
<!-- Node2&#45;&gt;Node6 -->
<g id="edge6" class="edge">
<title>Node2&#45;&gt;Node6</title>
<path fill="none" stroke="#63b8ff" d="M311.76,-274.98C329.22,-266.5 356.26,-253.35 376.42,-243.54"/>
<polygon fill="#63b8ff" stroke="#63b8ff" points="377.96,-246.69 385.42,-239.17 374.9,-240.4 377.96,-246.69"/>
</g>
<!-- Node7 -->
<g id="node7" class="node">
<title>Node7</title>
<g id="a_node7"><a xlink:title=" ">
<polygon fill="#e0e0e0" stroke="#999999" points="321.75,-239 250.75,-239 250.75,-220 321.75,-220 321.75,-239"/>
<text text-anchor="middle" x="286.25" y="-227" font-family="Helvetica,sans-Serif" font-size="10.00">wrl/client.h</text>
</a>
</g>
</g>
<!-- Node2&#45;&gt;Node7 -->
<g id="edge7" class="edge">
<title>Node2&#45;&gt;Node7</title>
<path fill="none" stroke="#63b8ff" d="M292.93,-274.75C291.88,-267.8 290.38,-257.85 289.06,-249.13"/>
<polygon fill="#63b8ff" stroke="#63b8ff" points="292.5,-248.45 287.55,-239.09 285.58,-249.5 292.5,-248.45"/>
</g>
<!-- Node4 -->
<g id="node4" class="node">
<title>Node4</title>
<g id="a_node4"><a xlink:title=" ">
<polygon fill="#e0e0e0" stroke="#999999" points="438.25,-19 388.25,-19 388.25,0 438.25,0 438.25,-19"/>
<text text-anchor="middle" x="413.25" y="-7" font-family="Helvetica,sans-Serif" font-size="10.00">cstdint</text>
</a>
</g>
</g>
<!-- Node3&#45;&gt;Node4 -->
<g id="edge3" class="edge">
<title>Node3&#45;&gt;Node4</title>
<path fill="none" stroke="#63b8ff" d="M351.68,-109.76C354.05,-97.01 359.61,-72.88 370.25,-55 376.66,-44.23 386.16,-34.03 394.61,-26.12"/>
<polygon fill="#63b8ff" stroke="#63b8ff" points="397.12,-28.57 402.24,-19.29 392.45,-23.35 397.12,-28.57"/>
</g>
<!-- Node5 -->
<g id="node5" class="node">
<title>Node5</title>
<g id="a_node5"><a xlink:href="Handlers_8h.html" target="_top" xlink:title=" ">
<polygon fill="white" stroke="#666666" points="447.75,-74 378.75,-74 378.75,-55 447.75,-55 447.75,-74"/>
<text text-anchor="middle" x="413.25" y="-62" font-family="Helvetica,sans-Serif" font-size="10.00">Handlers.h</text>
</a>
</g>
</g>
<!-- Node3&#45;&gt;Node5 -->
<g id="edge4" class="edge">
<title>Node3&#45;&gt;Node5</title>
<path fill="none" stroke="#63b8ff" d="M360.37,-109.98C369.69,-102.15 383.72,-90.34 394.99,-80.86"/>
<polygon fill="#63b8ff" stroke="#63b8ff" points="397.55,-83.29 402.94,-74.17 393.04,-77.93 397.55,-83.29"/>
</g>
<!-- Node5&#45;&gt;Node4 -->
<g id="edge5" class="edge">
<title>Node5&#45;&gt;Node4</title>
<path fill="none" stroke="#63b8ff" d="M413.25,-54.75C413.25,-47.8 413.25,-37.85 413.25,-29.13"/>
<polygon fill="#63b8ff" stroke="#63b8ff" points="416.75,-29.09 413.25,-19.09 409.75,-29.09 416.75,-29.09"/>
</g>
<!-- Node9 -->
<g id="node9" class="node">
<title>Node9</title>
<g id="a_node9"><a xlink:title=" ">
<polygon fill="#e0e0e0" stroke="#999999" points="824.25,-349 768.25,-349 768.25,-330 824.25,-330 824.25,-349"/>
<text text-anchor="middle" x="796.25" y="-337" font-family="Helvetica,sans-Serif" font-size="10.00">assert.h</text>
</a>
</g>
</g>
<!-- Node8&#45;&gt;Node9 -->
<g id="edge9" class="edge">
<title>Node8&#45;&gt;Node9</title>
<path fill="none" stroke="#63b8ff" d="M858.36,-384.98C847.1,-376.92 829.96,-364.65 816.54,-355.03"/>
<polygon fill="#63b8ff" stroke="#63b8ff" points="818.52,-352.15 808.36,-349.17 814.45,-357.84 818.52,-352.15"/>
</g>
<!-- Node8&#45;&gt;Node10 -->
<g id="edge10" class="edge">
<title>Node8&#45;&gt;Node10</title>
<path fill="none" stroke="#63b8ff" d="M886.8,-384.98C903.15,-376.57 928.39,-363.59 947.38,-353.81"/>
<polygon fill="#63b8ff" stroke="#63b8ff" points="949.11,-356.86 956.4,-349.17 945.91,-350.63 949.11,-356.86"/>
</g>
<!-- Node12 -->
<g id="node12" class="node">
<title>Node12</title>
<g id="a_node12"><a xlink:title=" ">
<polygon fill="#e0e0e0" stroke="#999999" points="428.25,-294 384.25,-294 384.25,-275 428.25,-275 428.25,-294"/>
<text text-anchor="middle" x="406.25" y="-282" font-family="Helvetica,sans-Serif" font-size="10.00">string</text>
</a>
</g>
</g>
<!-- Node8&#45;&gt;Node12 -->
<g id="edge12" class="edge">
<title>Node8&#45;&gt;Node12</title>
<path fill="none" stroke="#63b8ff" d="M834.73,-385.29C761.38,-368.31 587.83,-328.11 442.25,-294 440.99,-293.7 439.69,-293.4 438.39,-293.09"/>
<polygon fill="#63b8ff" stroke="#63b8ff" points="438.87,-289.61 428.33,-290.73 437.26,-296.43 438.87,-289.61"/>
</g>
<!-- Node13 -->
<g id="node13" class="node">
<title>Node13</title>
<g id="a_node13"><a xlink:href="Game_8h.html" target="_top" xlink:title=" ">
<polygon fill="white" stroke="#666666" points="897.75,-349 842.75,-349 842.75,-330 897.75,-330 897.75,-349"/>
<text text-anchor="middle" x="870.25" y="-337" font-family="Helvetica,sans-Serif" font-size="10.00">Game.h</text>
</a>
</g>
</g>
<!-- Node8&#45;&gt;Node13 -->
<g id="edge13" class="edge">
<title>Node8&#45;&gt;Node13</title>
<path fill="none" stroke="#63b8ff" d="M870.25,-384.75C870.25,-377.8 870.25,-367.85 870.25,-359.13"/>
<polygon fill="#63b8ff" stroke="#63b8ff" points="873.75,-359.09 870.25,-349.09 866.75,-359.09 873.75,-359.09"/>
</g>
<!-- Node11 -->
<g id="node11" class="node">
<title>Node11</title>
<g id="a_node11"><a xlink:title=" ">
<polygon fill="#e0e0e0" stroke="#999999" points="1659.25,-294 1589.25,-294 1589.25,-275 1659.25,-275 1659.25,-294"/>
<text text-anchor="middle" x="1624.25" y="-282" font-family="Helvetica,sans-Serif" font-size="10.00">Windows.h</text>
</a>
</g>
</g>
<!-- Node10&#45;&gt;Node11 -->
<g id="edge11" class="edge">
<title>Node10&#45;&gt;Node11</title>
<path fill="none" stroke="#63b8ff" d="M1030.58,-331.38C1035.2,-330.88 1039.8,-330.42 1044.25,-330 1279.76,-307.93 1340.4,-322.25 1575.25,-294 1576.5,-293.85 1577.78,-293.69 1579.06,-293.52"/>
<polygon fill="#63b8ff" stroke="#63b8ff" points="1579.6,-296.98 1588.99,-292.07 1578.59,-290.05 1579.6,-296.98"/>
</g>
<!-- Node13&#45;&gt;Node4 -->
<g id="edge18" class="edge">
<title>Node13&#45;&gt;Node4</title>
<path fill="none" stroke="#63b8ff" d="M898.04,-331.63C901.14,-331.01 904.25,-330.45 907.25,-330 1131.11,-296.56 1195.42,-347.91 1415.25,-294 1483.98,-277.15 1561.25,-301.26 1561.25,-230.5 1561.25,-230.5 1561.25,-230.5 1561.25,-118.5 1561.25,-61.15 641.29,-19.93 448.44,-11.92"/>
<polygon fill="#63b8ff" stroke="#63b8ff" points="448.43,-8.42 438.3,-11.5 448.14,-15.41 448.43,-8.42"/>
</g>
<!-- Node13&#45;&gt;Node12 -->
<g id="edge16" class="edge">
<title>Node13&#45;&gt;Node12</title>
<path fill="none" stroke="#63b8ff" d="M842.45,-331.69C839.36,-331.06 836.24,-330.48 833.25,-330 660.93,-302.4 614.48,-322.12 442.25,-294 441,-293.8 439.73,-293.57 438.46,-293.34"/>
<polygon fill="#63b8ff" stroke="#63b8ff" points="439.12,-289.9 428.62,-291.29 437.7,-296.75 439.12,-289.9"/>
</g>
<!-- Node14 -->
<g id="node14" class="node">
<title>Node14</title>
<g id="a_node14"><a xlink:href="Entity_8h.html" target="_top" xlink:title=" ">
<polygon fill="white" stroke="#666666" points="482.75,-184 429.75,-184 429.75,-165 482.75,-165 482.75,-184"/>
<text text-anchor="middle" x="456.25" y="-172" font-family="Helvetica,sans-Serif" font-size="10.00">Entity.h</text>
</a>
</g>
</g>
<!-- Node13&#45;&gt;Node14 -->
<g id="edge14" class="edge">
<title>Node13&#45;&gt;Node14</title>
<path fill="none" stroke="#63b8ff" d="M842.44,-331.74C839.35,-331.1 836.24,-330.5 833.25,-330 760.51,-317.72 563.96,-335.91 503.25,-294 470.26,-271.22 460.43,-221.36 457.5,-194.14"/>
<polygon fill="#63b8ff" stroke="#63b8ff" points="460.97,-193.66 456.61,-184 453.99,-194.27 460.97,-193.66"/>
</g>
<!-- Node15 -->
<g id="node15" class="node">
<title>Node15</title>
<g id="a_node15"><a xlink:title=" ">
<polygon fill="#e0e0e0" stroke="#999999" points="1106.75,-239 1041.75,-239 1041.75,-220 1106.75,-220 1106.75,-239"/>
<text text-anchor="middle" x="1074.25" y="-227" font-family="Helvetica,sans-Serif" font-size="10.00">functional</text>
</a>
</g>
</g>
<!-- Node13&#45;&gt;Node15 -->
<g id="edge17" class="edge">
<title>Node13&#45;&gt;Node15</title>
<path fill="none" stroke="#63b8ff" d="M898.13,-332.08C901.21,-331.38 904.29,-330.67 907.25,-330 978.33,-313.84 1018.66,-348.33 1067.25,-294 1077.99,-282 1078.8,-263.18 1077.49,-249.15"/>
<polygon fill="#63b8ff" stroke="#63b8ff" points="1080.94,-248.57 1076.13,-239.13 1074,-249.51 1080.94,-248.57"/>
</g>
<!-- Node16 -->
<g id="node16" class="node">
<title>Node16</title>
<g id="a_node16"><a xlink:title=" ">
<polygon fill="#e0e0e0" stroke="#999999" points="560.25,-294 522.25,-294 522.25,-275 560.25,-275 560.25,-294"/>
<text text-anchor="middle" x="541.25" y="-282" font-family="Helvetica,sans-Serif" font-size="10.00">map</text>
</a>
</g>
</g>
<!-- Node13&#45;&gt;Node16 -->
<g id="edge19" class="edge">
<title>Node13&#45;&gt;Node16</title>
<path fill="none" stroke="#63b8ff" d="M842.43,-331.82C839.34,-331.17 836.23,-330.54 833.25,-330 719.94,-309.3 686.74,-318.73 570.43,-293.93"/>
<polygon fill="#63b8ff" stroke="#63b8ff" points="570.94,-290.46 560.42,-291.76 569.45,-297.3 570.94,-290.46"/>
</g>
<!-- Node17 -->
<g id="node17" class="node">
<title>Node17</title>
<g id="a_node17"><a xlink:title=" ">
<polygon fill="#e0e0e0" stroke="#999999" points="712.25,-294 680.25,-294 680.25,-275 712.25,-275 712.25,-294"/>
<text text-anchor="middle" x="696.25" y="-282" font-family="Helvetica,sans-Serif" font-size="10.00">list</text>
</a>
</g>
</g>
<!-- Node13&#45;&gt;Node17 -->
<g id="edge20" class="edge">
<title>Node13&#45;&gt;Node17</title>
<path fill="none" stroke="#63b8ff" d="M842.69,-330.61C814.59,-322.48 769.52,-309.25 721.91,-294.13"/>
<polygon fill="#63b8ff" stroke="#63b8ff" points="722.95,-290.78 712.36,-291.08 720.82,-297.45 722.95,-290.78"/>
</g>
<!-- Node18 -->
<g id="node18" class="node">
<title>Node18</title>
<g id="a_node18"><a xlink:title=" ">
<polygon fill="#e0e0e0" stroke="#999999" points="782.25,-294 730.25,-294 730.25,-275 782.25,-275 782.25,-294"/>
<text text-anchor="middle" x="756.25" y="-282" font-family="Helvetica,sans-Serif" font-size="10.00">cassert</text>
</a>
</g>
</g>
<!-- Node13&#45;&gt;Node18 -->
<g id="edge21" class="edge">
<title>Node13&#45;&gt;Node18</title>
<path fill="none" stroke="#63b8ff" d="M851.94,-329.98C833.6,-321.46 805.14,-308.23 784.02,-298.41"/>
<polygon fill="#63b8ff" stroke="#63b8ff" points="785.44,-295.21 774.9,-294.17 782.49,-301.56 785.44,-295.21"/>
</g>
<!-- Node19 -->
<g id="node19" class="node">
<title>Node19</title>
<g id="a_node19"><a xlink:title=" ">
<polygon fill="#e0e0e0" stroke="#999999" points="857.75,-294 800.75,-294 800.75,-275 857.75,-275 857.75,-294"/>
<text text-anchor="middle" x="829.25" y="-282" font-family="Helvetica,sans-Serif" font-size="10.00">typeinfo</text>
</a>
</g>
</g>
<!-- Node13&#45;&gt;Node19 -->
<g id="edge22" class="edge">
<title>Node13&#45;&gt;Node19</title>
<path fill="none" stroke="#63b8ff" d="M863.48,-329.75C857.69,-322.26 849.19,-311.28 842.11,-302.13"/>
<polygon fill="#63b8ff" stroke="#63b8ff" points="844.78,-299.86 835.9,-294.09 839.25,-304.14 844.78,-299.86"/>
</g>
<!-- Node20 -->
<g id="node20" class="node">
<title>Node20</title>
<g id="a_node20"><a xlink:title=" ">
<polygon fill="#e0e0e0" stroke="#999999" points="948.75,-294 875.75,-294 875.75,-275 948.75,-275 948.75,-294"/>
<text text-anchor="middle" x="912.25" y="-282" font-family="Helvetica,sans-Serif" font-size="10.00">string_view</text>
</a>
</g>
</g>
<!-- Node13&#45;&gt;Node20 -->
<g id="edge23" class="edge">
<title>Node13&#45;&gt;Node20</title>
<path fill="none" stroke="#63b8ff" d="M877.19,-329.75C883.12,-322.26 891.82,-311.28 899.07,-302.13"/>
<polygon fill="#63b8ff" stroke="#63b8ff" points="901.98,-304.1 905.44,-294.09 896.49,-299.75 901.98,-304.1"/>
</g>
<!-- Node21 -->
<g id="node21" class="node">
<title>Node21</title>
<g id="a_node21"><a xlink:title=" ">
<polygon fill="#e0e0e0" stroke="#999999" points="894.75,-129 825.75,-129 825.75,-110 894.75,-110 894.75,-129"/>
<text text-anchor="middle" x="860.25" y="-117" font-family="Helvetica,sans-Serif" font-size="10.00">type_traits</text>
</a>
</g>
</g>
<!-- Node13&#45;&gt;Node21 -->
<g id="edge24" class="edge">
<title>Node13&#45;&gt;Node21</title>
<path fill="none" stroke="#63b8ff" d="M897.96,-330.32C925.4,-321.59 964.56,-307.23 973.25,-294 977.89,-286.94 974.08,-283.4 973.25,-275 968.34,-225.39 981.69,-204.49 951.25,-165 939.58,-149.86 921.42,-139.56 904.39,-132.71"/>
<polygon fill="#63b8ff" stroke="#63b8ff" points="905.13,-129.26 894.54,-129.07 902.71,-135.82 905.13,-129.26"/>
</g>
<!-- Node22 -->
<g id="node22" class="node">
<title>Node22</title>
<g id="a_node22"><a xlink:href="ISystem_8h.html" target="_top" xlink:title=" ">
<polygon fill="white" stroke="#666666" points="1532.75,-184 1467.75,-184 1467.75,-165 1532.75,-165 1532.75,-184"/>
<text text-anchor="middle" x="1500.25" y="-172" font-family="Helvetica,sans-Serif" font-size="10.00">ISystem.h</text>
</a>
</g>
</g>
<!-- Node13&#45;&gt;Node22 -->
<g id="edge25" class="edge">
<title>Node13&#45;&gt;Node22</title>
<path fill="none" stroke="#63b8ff" d="M898.06,-331.72C901.15,-331.08 904.26,-330.49 907.25,-330 1156.92,-288.9 1274,-399.94 1469.25,-239 1483.13,-227.56 1491.28,-208.39 1495.71,-194.1"/>
<polygon fill="#63b8ff" stroke="#63b8ff" points="1499.12,-194.91 1498.41,-184.34 1492.37,-193.04 1499.12,-194.91"/>
</g>
<!-- Node23 -->
<g id="node23" class="node">
<title>Node23</title>
<g id="a_node23"><a xlink:href="Vector2Int_8h.html" target="_top" xlink:title=" ">
<polygon fill="white" stroke="#666666" points="646.75,-239 571.75,-239 571.75,-220 646.75,-220 646.75,-239"/>
<text text-anchor="middle" x="609.25" y="-227" font-family="Helvetica,sans-Serif" font-size="10.00">Vector2Int.h</text>
</a>
</g>
</g>
<!-- Node13&#45;&gt;Node23 -->
<g id="edge26" class="edge">
<title>Node13&#45;&gt;Node23</title>
<path fill="none" stroke="#63b8ff" d="M842.44,-331.75C839.35,-331.11 836.24,-330.51 833.25,-330 762.71,-317.97 560.94,-347.35 513.25,-294 492.95,-271.29 530.87,-253.11 564.87,-242.11"/>
<polygon fill="#63b8ff" stroke="#63b8ff" points="566.24,-245.36 574.77,-239.07 564.18,-238.67 566.24,-245.36"/>
</g>
<!-- Node28 -->
<g id="node28" class="node">
<title>Node28</title>
<g id="a_node28"><a xlink:title=" ">
<polygon fill="#e0e0e0" stroke="#999999" points="1102.75,-184 1037.75,-184 1037.75,-165 1102.75,-165 1102.75,-184"/>
<text text-anchor="middle" x="1070.25" y="-172" font-family="Helvetica,sans-Serif" font-size="10.00">typeindex</text>
</a>
</g>
</g>
<!-- Node13&#45;&gt;Node28 -->
<g id="edge32" class="edge">
<title>Node13&#45;&gt;Node28</title>
<path fill="none" stroke="#63b8ff" d="M897.76,-331.68C942.15,-320.56 1025.06,-299.23 1029.25,-294 1049.86,-268.31 1021.22,-250.66 1033.25,-220 1037.49,-209.2 1045.43,-199.08 1052.88,-191.24"/>
<polygon fill="#63b8ff" stroke="#63b8ff" points="1055.35,-193.72 1060,-184.2 1050.43,-188.74 1055.35,-193.72"/>
</g>
<!-- Node13&#45;&gt;Node29 -->
<g id="edge33" class="edge">
<title>Node13&#45;&gt;Node29</title>
<path fill="none" stroke="#63b8ff" d="M898.03,-331.56C901.13,-330.95 904.25,-330.41 907.25,-330 1239.42,-284.36 1329.55,-326.61 1667.48,-293.95"/>
<polygon fill="#63b8ff" stroke="#63b8ff" points="1667.94,-297.42 1677.55,-292.96 1667.25,-290.45 1667.94,-297.42"/>
</g>
<!-- Node30 -->
<g id="node30" class="node">
<title>Node30</title>
<g id="a_node30"><a xlink:href="IComponentMemento_8h.html" target="_top" xlink:title=" ">
<polygon fill="white" stroke="#666666" points="946.75,-239 815.75,-239 815.75,-220 946.75,-220 946.75,-239"/>
<text text-anchor="middle" x="881.25" y="-227" font-family="Helvetica,sans-Serif" font-size="10.00">IComponentMemento.h</text>
</a>
</g>
</g>
<!-- Node13&#45;&gt;Node30 -->
<g id="edge34" class="edge">
<title>Node13&#45;&gt;Node30</title>
<path fill="none" stroke="#63b8ff" d="M897.78,-332.71C918.38,-326.77 945.16,-315.29 958.25,-294 971.83,-271.92 943.23,-253.95 917.12,-242.84"/>
<polygon fill="#63b8ff" stroke="#63b8ff" points="918.28,-239.53 907.7,-239.06 915.68,-246.03 918.28,-239.53"/>
</g>
<!-- Node32 -->
<g id="node32" class="node">
<title>Node32</title>
<g id="a_node32"><a xlink:title=" ">
<polygon fill="#e0e0e0" stroke="#999999" points="1264.25,-184 1154.25,-184 1154.25,-165 1264.25,-165 1264.25,-184"/>
<text text-anchor="middle" x="1209.25" y="-172" font-family="Helvetica,sans-Serif" font-size="10.00">nlohmann/json.hpp</text>
</a>
</g>
</g>
<!-- Node13&#45;&gt;Node32 -->
<g id="edge40" class="edge">
<title>Node13&#45;&gt;Node32</title>
<path fill="none" stroke="#63b8ff" d="M898.06,-331.74C901.15,-331.1 904.26,-330.5 907.25,-330 981.53,-317.55 1190.94,-347.2 1244.25,-294 1267.61,-270.69 1262.25,-250.74 1250.25,-220 1245.85,-208.73 1237.11,-198.59 1228.82,-190.85"/>
<polygon fill="#63b8ff" stroke="#63b8ff" points="1231.02,-188.12 1221.18,-184.2 1226.43,-193.4 1231.02,-188.12"/>
</g>
<!-- Node33 -->
<g id="node33" class="node">
<title>Node33</title>
<g id="a_node33"><a xlink:href="IRenderable_8h.html" target="_top" xlink:title=" ">
<polygon fill="white" stroke="#666666" points="662.25,-294 578.25,-294 578.25,-275 662.25,-275 662.25,-294"/>
<text text-anchor="middle" x="620.25" y="-282" font-family="Helvetica,sans-Serif" font-size="10.00">IRenderable.h</text>
</a>
</g>
</g>
<!-- Node13&#45;&gt;Node33 -->
<g id="edge41" class="edge">
<title>Node13&#45;&gt;Node33</title>
<path fill="none" stroke="#63b8ff" d="M842.38,-332.04C839.3,-331.34 836.21,-330.65 833.25,-330 778.42,-317.98 715.48,-304.92 672.32,-296.08"/>
<polygon fill="#63b8ff" stroke="#63b8ff" points="672.83,-292.61 662.34,-294.04 671.43,-299.47 672.83,-292.61"/>
</g>
<!-- Node37 -->
<g id="node36" class="node">
<title>Node37</title>
<g id="a_node36"><a xlink:href="ComponentFactory_8h.html" target="_top" xlink:title=" ">
<polygon fill="white" stroke="#666666" points="1235.25,-294 1119.25,-294 1119.25,-275 1235.25,-275 1235.25,-294"/>
<text text-anchor="middle" x="1177.25" y="-282" font-family="Helvetica,sans-Serif" font-size="10.00">ComponentFactory.h</text>
</a>
</g>
</g>
<!-- Node13&#45;&gt;Node37 -->
<g id="edge46" class="edge">
<title>Node13&#45;&gt;Node37</title>
<path fill="none" stroke="#63b8ff" d="M898.09,-331.91C901.18,-331.24 904.28,-330.59 907.25,-330 975.7,-316.51 1054.47,-303.85 1109.2,-295.51"/>
<polygon fill="#63b8ff" stroke="#63b8ff" points="1109.76,-298.97 1119.13,-294.01 1108.71,-292.05 1109.76,-298.97"/>
</g>
<!-- Node14&#45;&gt;Node3 -->
<g id="edge15" class="edge">
<title>Node14&#45;&gt;Node3</title>
<path fill="none" stroke="#63b8ff" d="M439.22,-164.98C422.32,-156.54 396.19,-143.47 376.61,-133.68"/>
<polygon fill="#63b8ff" stroke="#63b8ff" points="378.1,-130.51 367.59,-129.17 374.97,-136.77 378.1,-130.51"/>
</g>
<!-- Node24 -->
<g id="node24" class="node">
<title>Node24</title>
<g id="a_node24"><a xlink:href="Vector2T_8h.html" target="_top" xlink:title=" ">
<polygon fill="white" stroke="#666666" points="692.25,-184 624.25,-184 624.25,-165 692.25,-165 692.25,-184"/>
<text text-anchor="middle" x="658.25" y="-172" font-family="Helvetica,sans-Serif" font-size="10.00">Vector2T.h</text>
</a>
</g>
</g>
<!-- Node23&#45;&gt;Node24 -->
<g id="edge27" class="edge">
<title>Node23&#45;&gt;Node24</title>
<path fill="none" stroke="#63b8ff" d="M617.34,-219.75C624.41,-212.11 634.84,-200.82 643.4,-191.56"/>
<polygon fill="#63b8ff" stroke="#63b8ff" points="646.09,-193.81 650.31,-184.09 640.95,-189.06 646.09,-193.81"/>
</g>
<!-- Node24&#45;&gt;Node21 -->
<g id="edge28" class="edge">
<title>Node24&#45;&gt;Node21</title>
<path fill="none" stroke="#63b8ff" d="M690.71,-164.98C725.21,-155.93 779.91,-141.58 817.81,-131.64"/>
<polygon fill="#63b8ff" stroke="#63b8ff" points="818.76,-135.01 827.54,-129.08 816.98,-128.23 818.76,-135.01"/>
</g>
<!-- Node25 -->
<g id="node25" class="node">
<title>Node25</title>
<g id="a_node25"><a xlink:title=" ">
<polygon fill="#e0e0e0" stroke="#999999" points="684.25,-129 640.25,-129 640.25,-110 684.25,-110 684.25,-129"/>
<text text-anchor="middle" x="662.25" y="-117" font-family="Helvetica,sans-Serif" font-size="10.00">limits</text>
</a>
</g>
</g>
<!-- Node24&#45;&gt;Node25 -->
<g id="edge29" class="edge">
<title>Node24&#45;&gt;Node25</title>
<path fill="none" stroke="#63b8ff" d="M658.91,-164.75C659.44,-157.8 660.19,-147.85 660.84,-139.13"/>
<polygon fill="#63b8ff" stroke="#63b8ff" points="664.34,-139.32 661.6,-129.09 657.36,-138.8 664.34,-139.32"/>
</g>
<!-- Node26 -->
<g id="node26" class="node">
<title>Node26</title>
<g id="a_node26"><a xlink:title=" ">
<polygon fill="#e0e0e0" stroke="#999999" points="621.75,-129 574.75,-129 574.75,-110 621.75,-110 621.75,-129"/>
<text text-anchor="middle" x="598.25" y="-117" font-family="Helvetica,sans-Serif" font-size="10.00">cmath</text>
</a>
</g>
</g>
<!-- Node24&#45;&gt;Node26 -->
<g id="edge30" class="edge">
<title>Node24&#45;&gt;Node26</title>
<path fill="none" stroke="#63b8ff" d="M648.61,-164.98C639.74,-157.15 626.38,-145.34 615.64,-135.86"/>
<polygon fill="#63b8ff" stroke="#63b8ff" points="617.88,-133.17 608.07,-129.17 613.24,-138.41 617.88,-133.17"/>
</g>
<!-- Node27 -->
<g id="node27" class="node">
<title>Node27</title>
<g id="a_node27"><a xlink:title=" ">
<polygon fill="#e0e0e0" stroke="#999999" points="786.25,-129 726.25,-129 726.25,-110 786.25,-110 786.25,-129"/>
<text text-anchor="middle" x="756.25" y="-117" font-family="Helvetica,sans-Serif" font-size="10.00">concepts</text>
</a>
</g>
</g>
<!-- Node24&#45;&gt;Node27 -->
<g id="edge31" class="edge">
<title>Node24&#45;&gt;Node27</title>
<path fill="none" stroke="#63b8ff" d="M674,-164.98C689.48,-156.61 713.34,-143.7 731.39,-133.95"/>
<polygon fill="#63b8ff" stroke="#63b8ff" points="733.09,-137.01 740.22,-129.17 729.76,-130.85 733.09,-137.01"/>
</g>
<!-- Node30&#45;&gt;Node14 -->
<g id="edge35" class="edge">
<title>Node30&#45;&gt;Node14</title>
<path fill="none" stroke="#63b8ff" d="M815.31,-220.28C724.64,-208.97 564.57,-189.01 492.83,-180.06"/>
<polygon fill="#63b8ff" stroke="#63b8ff" points="493.26,-176.59 482.9,-178.82 492.39,-183.53 493.26,-176.59"/>
</g>
<!-- Node30&#45;&gt;Node28 -->
<g id="edge36" class="edge">
<title>Node30&#45;&gt;Node28</title>
<path fill="none" stroke="#63b8ff" d="M911.62,-219.98C943.62,-211.01 994.21,-196.82 1029.63,-186.89"/>
<polygon fill="#63b8ff" stroke="#63b8ff" points="1030.96,-190.15 1039.65,-184.08 1029.07,-183.41 1030.96,-190.15"/>
</g>
<!-- Node31 -->
<g id="node31" class="node">
<title>Node31</title>
<g id="a_node31"><a xlink:href="ComponentConcept_8h.html" target="_top" xlink:title=" ">
<polygon fill="white" stroke="#666666" points="942.25,-184 820.25,-184 820.25,-165 942.25,-165 942.25,-184"/>
<text text-anchor="middle" x="881.25" y="-172" font-family="Helvetica,sans-Serif" font-size="10.00">ComponentConcept.h</text>
</a>
</g>
</g>
<!-- Node30&#45;&gt;Node31 -->
<g id="edge37" class="edge">
<title>Node30&#45;&gt;Node31</title>
<path fill="none" stroke="#63b8ff" d="M881.25,-219.75C881.25,-212.8 881.25,-202.85 881.25,-194.13"/>
<polygon fill="#63b8ff" stroke="#63b8ff" points="884.75,-194.09 881.25,-184.09 877.75,-194.09 884.75,-194.09"/>
</g>
<!-- Node31&#45;&gt;Node21 -->
<g id="edge39" class="edge">
<title>Node31&#45;&gt;Node21</title>
<path fill="none" stroke="#63b8ff" d="M877.78,-164.75C874.97,-157.65 870.91,-147.4 867.41,-138.56"/>
<polygon fill="#63b8ff" stroke="#63b8ff" points="870.59,-137.1 863.65,-129.09 864.08,-139.68 870.59,-137.1"/>
</g>
<!-- Node31&#45;&gt;Node27 -->
<g id="edge38" class="edge">
<title>Node31&#45;&gt;Node27</title>
<path fill="none" stroke="#63b8ff" d="M861.17,-164.98C840.88,-156.38 809.3,-142.99 786.08,-133.15"/>
<polygon fill="#63b8ff" stroke="#63b8ff" points="787.27,-129.85 776.7,-129.17 784.54,-136.3 787.27,-129.85"/>
</g>
<!-- Node34 -->
<g id="node34" class="node">
<title>Node34</title>
<g id="a_node34"><a xlink:href="GameObjectLayer_8h.html" target="_top" xlink:title=" ">
<polygon fill="white" stroke="#666666" points="784.75,-239 671.75,-239 671.75,-220 784.75,-220 784.75,-239"/>
<text text-anchor="middle" x="728.25" y="-227" font-family="Helvetica,sans-Serif" font-size="10.00">GameObjectLayer.h</text>
</a>
</g>
</g>
<!-- Node33&#45;&gt;Node34 -->
<g id="edge42" class="edge">
<title>Node33&#45;&gt;Node34</title>
<path fill="none" stroke="#63b8ff" d="M637.6,-274.98C654.82,-266.54 681.45,-253.47 701.4,-243.68"/>
<polygon fill="#63b8ff" stroke="#63b8ff" points="703.15,-246.72 710.58,-239.17 700.06,-240.43 703.15,-246.72"/>
</g>
<!-- Node35 -->
<g id="node35" class="node">
<title>Node35</title>
<g id="a_node35"><a xlink:href="BitFlag_8h.html" target="_top" xlink:title=" ">
<polygon fill="#fff0f0" stroke="red" points="802.25,-184 710.25,-184 710.25,-165 802.25,-165 802.25,-184"/>
<text text-anchor="middle" x="756.25" y="-172" font-family="Helvetica,sans-Serif" font-size="10.00">MTBit/BitFlag.h</text>
</a>
</g>
</g>
<!-- Node34&#45;&gt;Node35 -->
<g id="edge43" class="edge">
<title>Node34&#45;&gt;Node35</title>
<path fill="none" stroke="#63b8ff" d="M732.87,-219.75C736.71,-212.49 742.28,-201.95 747.02,-192.98"/>
<polygon fill="#63b8ff" stroke="#63b8ff" points="750.14,-194.57 751.71,-184.09 743.95,-191.3 750.14,-194.57"/>
</g>
<!-- Node35&#45;&gt;Node21 -->
<g id="edge44" class="edge">
<title>Node35&#45;&gt;Node21</title>
<path fill="none" stroke="#63b8ff" d="M772.96,-164.98C789.46,-156.57 814.95,-143.59 834.13,-133.81"/>
<polygon fill="#63b8ff" stroke="#63b8ff" points="835.92,-136.83 843.24,-129.17 832.74,-130.59 835.92,-136.83"/>
</g>
<!-- Node35&#45;&gt;Node27 -->
<g id="edge45" class="edge">
<title>Node35&#45;&gt;Node27</title>
<path fill="none" stroke="#63b8ff" d="M756.25,-164.75C756.25,-157.8 756.25,-147.85 756.25,-139.13"/>
<polygon fill="#63b8ff" stroke="#63b8ff" points="759.75,-139.09 756.25,-129.09 752.75,-139.09 759.75,-139.09"/>
</g>
<!-- Node37&#45;&gt;Node15 -->
<g id="edge58" class="edge">
<title>Node37&#45;&gt;Node15</title>
<path fill="none" stroke="#63b8ff" d="M1160.7,-274.98C1144.36,-266.57 1119.12,-253.59 1100.12,-243.81"/>
<polygon fill="#63b8ff" stroke="#63b8ff" points="1101.59,-240.63 1091.1,-239.17 1098.39,-246.86 1101.59,-240.63"/>
</g>
<!-- Node37&#45;&gt;Node22 -->
<g id="edge47" class="edge">
<title>Node37&#45;&gt;Node22</title>
<path fill="none" stroke="#63b8ff" d="M1235.28,-278.4C1302.73,-271.68 1409.27,-258.41 1444.25,-239 1463.86,-228.12 1479.99,-207.65 1489.82,-192.89"/>
<polygon fill="#63b8ff" stroke="#63b8ff" points="1492.95,-194.49 1495.34,-184.17 1487.03,-190.75 1492.95,-194.49"/>
</g>
<!-- Node37&#45;&gt;Node28 -->
<g id="edge48" class="edge">
<title>Node37&#45;&gt;Node28</title>
<path fill="none" stroke="#63b8ff" d="M1175.28,-274.72C1171.92,-261.49 1163.98,-236.24 1149.25,-220 1136.73,-206.19 1118.89,-195.63 1103.33,-188.28"/>
<polygon fill="#63b8ff" stroke="#63b8ff" points="1104.56,-184.99 1094,-184.11 1101.7,-191.39 1104.56,-184.99"/>
</g>
<!-- Node37&#45;&gt;Node30 -->
<g id="edge51" class="edge">
<title>Node37&#45;&gt;Node30</title>
<path fill="none" stroke="#63b8ff" d="M1129.69,-274.98C1077.85,-265.7 994.86,-250.84 939.24,-240.88"/>
<polygon fill="#63b8ff" stroke="#63b8ff" points="939.64,-237.4 929.18,-239.08 938.41,-244.29 939.64,-237.4"/>
</g>
<!-- Node37&#45;&gt;Node31 -->
<g id="edge50" class="edge">
<title>Node37&#45;&gt;Node31</title>
<path fill="none" stroke="#63b8ff" d="M1171.67,-274.89C1162.13,-260.93 1141.25,-233.54 1116.25,-220 1065.8,-192.68 1001.35,-181.89 952.71,-177.74"/>
<polygon fill="#63b8ff" stroke="#63b8ff" points="952.82,-174.24 942.58,-176.95 952.28,-181.22 952.82,-174.24"/>
</g>
<!-- Node38 -->
<g id="node37" class="node">
<title>Node38</title>
<g id="a_node37"><a xlink:title=" ">
<polygon fill="#e0e0e0" stroke="#999999" points="1449.75,-184 1356.75,-184 1356.75,-165 1449.75,-165 1449.75,-184"/>
<text text-anchor="middle" x="1403.25" y="-172" font-family="Helvetica,sans-Serif" font-size="10.00">unordered_map</text>
</a>
</g>
</g>
<!-- Node37&#45;&gt;Node38 -->
<g id="edge49" class="edge">
<title>Node37&#45;&gt;Node38</title>
<path fill="none" stroke="#63b8ff" d="M1235.31,-281.55C1301.63,-277.96 1404.12,-267.79 1428.25,-239 1439.72,-225.32 1429.02,-205.73 1418.28,-191.94"/>
<polygon fill="#63b8ff" stroke="#63b8ff" points="1420.89,-189.61 1411.78,-184.21 1415.53,-194.12 1420.89,-189.61"/>
</g>
<!-- Node39 -->
<g id="node38" class="node">
<title>Node39</title>
<g id="a_node38"><a xlink:href="ComponentRegistry_8h.html" target="_top" xlink:title=" ">
<polygon fill="#fff0f0" stroke="red" points="1418.75,-239 1297.75,-239 1297.75,-220 1418.75,-220 1418.75,-239"/>
<text text-anchor="middle" x="1358.25" y="-227" font-family="Helvetica,sans-Serif" font-size="10.00">ComponentRegistry.h</text>
</a>
</g>
</g>
<!-- Node37&#45;&gt;Node39 -->
<g id="edge52" class="edge">
<title>Node37&#45;&gt;Node39</title>
<path fill="none" stroke="#63b8ff" d="M1206.33,-274.98C1236.85,-266.05 1285.02,-251.94 1318.92,-242.02"/>
<polygon fill="#63b8ff" stroke="#63b8ff" points="1320.33,-245.25 1328.94,-239.08 1318.36,-238.53 1320.33,-245.25"/>
</g>
<!-- Node42 -->
<g id="node40" class="node">
<title>Node42</title>
<g id="a_node40"><a xlink:title=" ">
<polygon fill="#e0e0e0" stroke="#999999" points="1241.25,-239 1201.25,-239 1201.25,-220 1241.25,-220 1241.25,-239"/>
<text text-anchor="middle" x="1221.25" y="-227" font-family="Helvetica,sans-Serif" font-size="10.00">span</text>
</a>
</g>
</g>
<!-- Node37&#45;&gt;Node42 -->
<g id="edge59" class="edge">
<title>Node37&#45;&gt;Node42</title>
<path fill="none" stroke="#63b8ff" d="M1184.52,-274.75C1190.8,-267.18 1200.04,-256.05 1207.68,-246.84"/>
<polygon fill="#63b8ff" stroke="#63b8ff" points="1210.43,-249.02 1214.12,-239.09 1205.04,-244.55 1210.43,-249.02"/>
</g>
<!-- Node39&#45;&gt;Node22 -->
<g id="edge53" class="edge">
<title>Node39&#45;&gt;Node22</title>
<path fill="none" stroke="#63b8ff" d="M1381.07,-219.98C1404.42,-211.27 1440.96,-197.63 1467.42,-187.75"/>
<polygon fill="#63b8ff" stroke="#63b8ff" points="1468.88,-190.95 1477.02,-184.17 1466.43,-184.39 1468.88,-190.95"/>
</g>
<!-- Node39&#45;&gt;Node28 -->
<g id="edge55" class="edge">
<title>Node39&#45;&gt;Node28</title>
<path fill="none" stroke="#63b8ff" d="M1311.98,-219.98C1257.12,-209.89 1166.44,-193.2 1113.12,-183.39"/>
<polygon fill="#63b8ff" stroke="#63b8ff" points="1113.44,-179.89 1102.97,-181.52 1112.17,-186.77 1113.44,-179.89"/>
</g>
<!-- Node39&#45;&gt;Node32 -->
<g id="edge57" class="edge">
<title>Node39&#45;&gt;Node32</title>
<path fill="none" stroke="#63b8ff" d="M1334.31,-219.98C1309.69,-211.23 1271.13,-197.51 1243.33,-187.62"/>
<polygon fill="#63b8ff" stroke="#63b8ff" points="1244.22,-184.22 1233.63,-184.17 1241.87,-190.82 1244.22,-184.22"/>
</g>
<!-- Node39&#45;&gt;Node38 -->
<g id="edge54" class="edge">
<title>Node39&#45;&gt;Node38</title>
<path fill="none" stroke="#63b8ff" d="M1365.68,-219.75C1372.1,-212.18 1381.56,-201.05 1389.37,-191.84"/>
<polygon fill="#63b8ff" stroke="#63b8ff" points="1392.15,-193.98 1395.96,-184.09 1386.82,-189.45 1392.15,-193.98"/>
</g>
<!-- Node40 -->
<g id="node39" class="node">
<title>Node40</title>
<g id="a_node39"><a xlink:title=" ">
<polygon fill="#e0e0e0" stroke="#999999" points="1338.25,-184 1282.25,-184 1282.25,-165 1338.25,-165 1338.25,-184"/>
<text text-anchor="middle" x="1310.25" y="-172" font-family="Helvetica,sans-Serif" font-size="10.00">optional</text>
</a>
</g>
</g>
<!-- Node39&#45;&gt;Node40 -->
<g id="edge56" class="edge">
<title>Node39&#45;&gt;Node40</title>
<path fill="none" stroke="#63b8ff" d="M1350.32,-219.75C1343.41,-212.11 1333.19,-200.82 1324.8,-191.56"/>
<polygon fill="#63b8ff" stroke="#63b8ff" points="1327.34,-189.15 1318.03,-184.09 1322.15,-193.85 1327.34,-189.15"/>
</g>
<!-- Node43&#45;&gt;Node3 -->
<g id="edge61" class="edge">
<title>Node43&#45;&gt;Node3</title>
<path fill="none" stroke="#63b8ff" d="M124.18,-282.56C65.37,-279.37 -22.06,-266.88 5.25,-220 30.2,-177.18 55.64,-181.84 102.25,-165 173.69,-139.19 262.32,-127.92 311.95,-123.34"/>
<polygon fill="#63b8ff" stroke="#63b8ff" points="312.27,-126.82 321.93,-122.46 311.66,-119.85 312.27,-126.82"/>
</g>
<!-- Node43&#45;&gt;Node7 -->
<g id="edge67" class="edge">
<title>Node43&#45;&gt;Node7</title>
<path fill="none" stroke="#63b8ff" d="M191.41,-274.98C209.5,-266.5 237.54,-253.35 258.44,-243.54"/>
<polygon fill="#63b8ff" stroke="#63b8ff" points="260.2,-246.59 267.77,-239.17 257.23,-240.25 260.2,-246.59"/>
</g>
<!-- Node44 -->
<g id="node42" class="node">
<title>Node44</title>
<g id="a_node42"><a xlink:href="Vector4_8h.html" target="_top" xlink:title=" ">
<polygon fill="white" stroke="#666666" points="546.25,-239 484.25,-239 484.25,-220 546.25,-220 546.25,-239"/>
<text text-anchor="middle" x="515.25" y="-227" font-family="Helvetica,sans-Serif" font-size="10.00">Vector4.h</text>
</a>
</g>
</g>
<!-- Node43&#45;&gt;Node44 -->
<g id="edge62" class="edge">
<title>Node43&#45;&gt;Node44</title>
<path fill="none" stroke="#63b8ff" d="M222.25,-275.91C289.96,-265.41 410.92,-246.67 474.16,-236.87"/>
<polygon fill="#63b8ff" stroke="#63b8ff" points="474.82,-240.31 484.17,-235.32 473.75,-233.39 474.82,-240.31"/>
</g>
<!-- Node47 -->
<g id="node45" class="node">
<title>Node47</title>
<g id="a_node45"><a xlink:title=" ">
<polygon fill="#e0e0e0" stroke="#999999" points="56.25,-239 14.25,-239 14.25,-220 56.25,-220 56.25,-239"/>
<text text-anchor="middle" x="35.25" y="-227" font-family="Helvetica,sans-Serif" font-size="10.00">array</text>
</a>
</g>
</g>
<!-- Node43&#45;&gt;Node47 -->
<g id="edge68" class="edge">
<title>Node43&#45;&gt;Node47</title>
<path fill="none" stroke="#63b8ff" d="M151.08,-274.98C128.08,-266.15 91.92,-252.27 66.13,-242.36"/>
<polygon fill="#63b8ff" stroke="#63b8ff" points="67.05,-238.96 56.46,-238.65 64.54,-245.5 67.05,-238.96"/>
</g>
<!-- Node48 -->
<g id="node46" class="node">
<title>Node48</title>
<g id="a_node46"><a xlink:href="ShaderType_8h.html" target="_top" xlink:title=" ">
<polygon fill="white" stroke="#666666" points="281.25,-184 199.25,-184 199.25,-165 281.25,-165 281.25,-184"/>
<text text-anchor="middle" x="240.25" y="-172" font-family="Helvetica,sans-Serif" font-size="10.00">ShaderType.h</text>
</a>
</g>
</g>
<!-- Node43&#45;&gt;Node48 -->
<g id="edge69" class="edge">
<title>Node43&#45;&gt;Node48</title>
<path fill="none" stroke="#63b8ff" d="M179.4,-274.75C185.59,-265.85 195.33,-251.63 203.25,-239 212.87,-223.67 223.19,-205.83 230.48,-192.97"/>
<polygon fill="#63b8ff" stroke="#63b8ff" points="233.54,-194.67 235.4,-184.23 227.44,-191.23 233.54,-194.67"/>
</g>
<!-- Node49 -->
<g id="node47" class="node">
<title>Node49</title>
<g id="a_node47"><a xlink:title=" ">
<polygon fill="#e0e0e0" stroke="#999999" points="158.75,-184 111.75,-184 111.75,-165 158.75,-165 158.75,-184"/>
<text text-anchor="middle" x="135.25" y="-172" font-family="Helvetica,sans-Serif" font-size="10.00">dxgi.h</text>
</a>
</g>
</g>
<!-- Node43&#45;&gt;Node49 -->
<g id="edge71" class="edge">
<title>Node43&#45;&gt;Node49</title>
<path fill="none" stroke="#63b8ff" d="M148.44,-274.95C132.41,-267.99 112.82,-256.42 103.25,-239 94.49,-223.05 106.43,-204.41 118.13,-191.47"/>
<polygon fill="#63b8ff" stroke="#63b8ff" points="120.72,-193.83 125.2,-184.23 115.71,-188.94 120.72,-193.83"/>
</g>
<!-- Node50 -->
<g id="node48" class="node">
<title>Node50</title>
<g id="a_node48"><a xlink:href="MonitorInfo_8h.html" target="_top" xlink:title=" ">
<polygon fill="white" stroke="#666666" points="194.25,-239 112.25,-239 112.25,-220 194.25,-220 194.25,-239"/>
<text text-anchor="middle" x="153.25" y="-227" font-family="Helvetica,sans-Serif" font-size="10.00">MonitorInfo.h</text>
</a>
</g>
</g>
<!-- Node43&#45;&gt;Node50 -->
<g id="edge72" class="edge">
<title>Node43&#45;&gt;Node50</title>
<path fill="none" stroke="#63b8ff" d="M169.95,-274.75C167.27,-267.65 163.4,-257.4 160.06,-248.56"/>
<polygon fill="#63b8ff" stroke="#63b8ff" points="163.3,-247.21 156.49,-239.09 156.75,-249.68 163.3,-247.21"/>
</g>
<!-- Node45 -->
<g id="node43" class="node">
<title>Node45</title>
<g id="a_node43"><a xlink:title=" ">
<polygon fill="#e0e0e0" stroke="#999999" points="556.25,-129 470.25,-129 470.25,-110 556.25,-110 556.25,-129"/>
<text text-anchor="middle" x="513.25" y="-117" font-family="Helvetica,sans-Serif" font-size="10.00">DirectXMath.h</text>
</a>
</g>
</g>
<!-- Node44&#45;&gt;Node45 -->
<g id="edge63" class="edge">
<title>Node44&#45;&gt;Node45</title>
<path fill="none" stroke="#63b8ff" d="M515.09,-219.66C514.76,-202.17 514.03,-162.8 513.6,-139.27"/>
<polygon fill="#63b8ff" stroke="#63b8ff" points="517.1,-139.09 513.41,-129.16 510.1,-139.22 517.1,-139.09"/>
</g>
<!-- Node46 -->
<g id="node44" class="node">
<title>Node46</title>
<g id="a_node44"><a xlink:href="Vector3_8h.html" target="_top" xlink:title=" ">
<polygon fill="white" stroke="#666666" points="603.25,-184 541.25,-184 541.25,-165 603.25,-165 603.25,-184"/>
<text text-anchor="middle" x="572.25" y="-172" font-family="Helvetica,sans-Serif" font-size="10.00">Vector3.h</text>
</a>
</g>
</g>
<!-- Node44&#45;&gt;Node46 -->
<g id="edge64" class="edge">
<title>Node44&#45;&gt;Node46</title>
<path fill="none" stroke="#63b8ff" d="M524.41,-219.98C532.75,-212.23 545.28,-200.58 555.43,-191.14"/>
<polygon fill="#63b8ff" stroke="#63b8ff" points="557.99,-193.54 562.93,-184.17 553.22,-188.42 557.99,-193.54"/>
</g>
<!-- Node46&#45;&gt;Node26 -->
<g id="edge66" class="edge">
<title>Node46&#45;&gt;Node26</title>
<path fill="none" stroke="#63b8ff" d="M576.54,-164.75C580.07,-157.57 585.16,-147.18 589.53,-138.27"/>
<polygon fill="#63b8ff" stroke="#63b8ff" points="592.78,-139.61 594.04,-129.09 586.49,-136.53 592.78,-139.61"/>
</g>
<!-- Node46&#45;&gt;Node45 -->
<g id="edge65" class="edge">
<title>Node46&#45;&gt;Node45</title>
<path fill="none" stroke="#63b8ff" d="M562.77,-164.98C554.05,-157.15 540.91,-145.34 530.35,-135.86"/>
<polygon fill="#63b8ff" stroke="#63b8ff" points="532.68,-133.25 522.9,-129.17 528,-138.46 532.68,-133.25"/>
</g>
<!-- Node48&#45;&gt;Node3 -->
<g id="edge70" class="edge">
<title>Node48&#45;&gt;Node3</title>
<path fill="none" stroke="#63b8ff" d="M257.92,-164.98C275.54,-156.5 302.83,-143.35 323.18,-133.54"/>
<polygon fill="#63b8ff" stroke="#63b8ff" points="324.77,-136.66 332.26,-129.17 321.73,-130.36 324.77,-136.66"/>
</g>
<!-- Node50&#45;&gt;Node49 -->
<g id="edge73" class="edge">
<title>Node50&#45;&gt;Node49</title>
<path fill="none" stroke="#63b8ff" d="M150.28,-219.75C147.89,-212.72 144.46,-202.62 141.48,-193.84"/>
<polygon fill="#63b8ff" stroke="#63b8ff" points="144.7,-192.43 138.17,-184.09 138.07,-194.68 144.7,-192.43"/>
</g>
</g>
</svg>
