<?xml version="1.0" encoding="UTF-8" standalone="no"?>
<!DOCTYPE svg PUBLIC "-//W3C//DTD SVG 1.1//EN"
 "http://www.w3.org/Graphics/SVG/1.1/DTD/svg11.dtd">
<!-- Generated by graphviz version 2.43.0 (0)
 -->
<!-- Title: EndPoint.cpp Pages: 1 -->
<svg width="478pt" height="247pt"
 viewBox="0.00 0.00 477.50 247.00" xmlns="http://www.w3.org/2000/svg" xmlns:xlink="http://www.w3.org/1999/xlink">
<g id="graph0" class="graph" transform="scale(1 1) rotate(0) translate(4 243)">
<title>EndPoint.cpp</title>
<!-- Node1 -->
<g id="node1" class="node">
<title>Node1</title>
<g id="a_node1"><a xlink:title=" ">
<polygon fill="#999999" stroke="#666666" points="383,-239 303,-239 303,-220 383,-220 383,-239"/>
<text text-anchor="middle" x="343" y="-227" font-family="Helvetica,sans-Serif" font-size="10.00">EndPoint.cpp</text>
</a>
</g>
</g>
<!-- Node2 -->
<g id="node2" class="node">
<title>Node2</title>
<g id="a_node2"><a xlink:href="EndPoint_8h.html" target="_top" xlink:title=" ">
<polygon fill="white" stroke="#666666" points="305,-184 237,-184 237,-165 305,-165 305,-184"/>
<text text-anchor="middle" x="271" y="-172" font-family="Helvetica,sans-Serif" font-size="10.00">EndPoint.h</text>
</a>
</g>
</g>
<!-- Node1&#45;&gt;Node2 -->
<g id="edge1" class="edge">
<title>Node1&#45;&gt;Node2</title>
<path fill="none" stroke="#63b8ff" d="M331.43,-219.98C320.58,-212 304.12,-199.88 291.12,-190.31"/>
<polygon fill="#63b8ff" stroke="#63b8ff" points="292.91,-187.28 282.78,-184.17 288.76,-192.92 292.91,-187.28"/>
</g>
<!-- Node7 -->
<g id="node7" class="node">
<title>Node7</title>
<g id="a_node7"><a xlink:title=" ">
<polygon fill="#e0e0e0" stroke="#999999" points="380,-74 306,-74 306,-55 380,-55 380,-74"/>
<text text-anchor="middle" x="343" y="-62" font-family="Helvetica,sans-Serif" font-size="10.00">WinSock2.h</text>
</a>
</g>
</g>
<!-- Node1&#45;&gt;Node7 -->
<g id="edge11" class="edge">
<title>Node1&#45;&gt;Node7</title>
<path fill="none" stroke="#63b8ff" d="M343,-219.74C343,-194.31 343,-120.08 343,-84.69"/>
<polygon fill="#63b8ff" stroke="#63b8ff" points="346.5,-84.31 343,-74.31 339.5,-84.31 346.5,-84.31"/>
</g>
<!-- Node8 -->
<g id="node8" class="node">
<title>Node8</title>
<g id="a_node8"><a xlink:title=" ">
<polygon fill="#e0e0e0" stroke="#999999" points="469.5,-74 398.5,-74 398.5,-55 469.5,-55 469.5,-74"/>
<text text-anchor="middle" x="434" y="-62" font-family="Helvetica,sans-Serif" font-size="10.00">WS2tcpip.h</text>
</a>
</g>
</g>
<!-- Node1&#45;&gt;Node8 -->
<g id="edge12" class="edge">
<title>Node1&#45;&gt;Node8</title>
<path fill="none" stroke="#63b8ff" d="M347.89,-219.74C362.27,-193.98 404.62,-118.13 424.05,-83.33"/>
<polygon fill="#63b8ff" stroke="#63b8ff" points="427.26,-84.74 429.08,-74.31 421.15,-81.33 427.26,-84.74"/>
</g>
<!-- Node3 -->
<g id="node3" class="node">
<title>Node3</title>
<g id="a_node3"><a xlink:href="MTNet_2Common_8h.html" target="_top" xlink:title=" ">
<polygon fill="white" stroke="#666666" points="295,-129 225,-129 225,-110 295,-110 295,-129"/>
<text text-anchor="middle" x="260" y="-117" font-family="Helvetica,sans-Serif" font-size="10.00">Common.h</text>
</a>
</g>
</g>
<!-- Node2&#45;&gt;Node3 -->
<g id="edge2" class="edge">
<title>Node2&#45;&gt;Node3</title>
<path fill="none" stroke="#63b8ff" d="M269.18,-164.75C267.74,-157.8 265.68,-147.85 263.87,-139.13"/>
<polygon fill="#63b8ff" stroke="#63b8ff" points="267.24,-138.17 261.78,-129.09 260.39,-139.59 267.24,-138.17"/>
</g>
<!-- Node4 -->
<g id="node4" class="node">
<title>Node4</title>
<g id="a_node4"><a xlink:title=" ">
<polygon fill="#e0e0e0" stroke="#999999" points="214,-74 170,-74 170,-55 214,-55 214,-74"/>
<text text-anchor="middle" x="192" y="-62" font-family="Helvetica,sans-Serif" font-size="10.00">string</text>
</a>
</g>
</g>
<!-- Node3&#45;&gt;Node4 -->
<g id="edge3" class="edge">
<title>Node3&#45;&gt;Node4</title>
<path fill="none" stroke="#63b8ff" d="M249.07,-109.98C238.92,-102.07 223.58,-90.11 211.35,-80.58"/>
<polygon fill="#63b8ff" stroke="#63b8ff" points="213.16,-77.56 203.12,-74.17 208.86,-83.08 213.16,-77.56"/>
</g>
<!-- Node5 -->
<g id="node5" class="node">
<title>Node5</title>
<g id="a_node5"><a xlink:title=" ">
<polygon fill="#e0e0e0" stroke="#999999" points="288,-74 232,-74 232,-55 288,-55 288,-74"/>
<text text-anchor="middle" x="260" y="-62" font-family="Helvetica,sans-Serif" font-size="10.00">sstream</text>
</a>
</g>
</g>
<!-- Node3&#45;&gt;Node5 -->
<g id="edge4" class="edge">
<title>Node3&#45;&gt;Node5</title>
<path fill="none" stroke="#63b8ff" d="M260,-109.75C260,-102.8 260,-92.85 260,-84.13"/>
<polygon fill="#63b8ff" stroke="#63b8ff" points="263.5,-84.09 260,-74.09 256.5,-84.09 263.5,-84.09"/>
</g>
<!-- Node6 -->
<g id="node6" class="node">
<title>Node6</title>
<g id="a_node6"><a xlink:title=" ">
<polygon fill="#e0e0e0" stroke="#999999" points="52,-19 0,-19 0,0 52,0 52,-19"/>
<text text-anchor="middle" x="26" y="-7" font-family="Helvetica,sans-Serif" font-size="10.00">cassert</text>
</a>
</g>
</g>
<!-- Node3&#45;&gt;Node6 -->
<g id="edge5" class="edge">
<title>Node3&#45;&gt;Node6</title>
<path fill="none" stroke="#63b8ff" d="M224.8,-116.06C169.2,-111.48 64.71,-99.63 39,-74 27.43,-62.47 24.8,-43.59 24.69,-29.41"/>
<polygon fill="#63b8ff" stroke="#63b8ff" points="28.2,-29.38 25.03,-19.27 21.2,-29.15 28.2,-29.38"/>
</g>
<!-- Node3&#45;&gt;Node7 -->
<g id="edge6" class="edge">
<title>Node3&#45;&gt;Node7</title>
<path fill="none" stroke="#63b8ff" d="M273.34,-109.98C286.09,-101.84 305.55,-89.41 320.67,-79.76"/>
<polygon fill="#63b8ff" stroke="#63b8ff" points="322.88,-82.5 329.42,-74.17 319.11,-76.6 322.88,-82.5"/>
</g>
<!-- Node3&#45;&gt;Node8 -->
<g id="edge7" class="edge">
<title>Node3&#45;&gt;Node8</title>
<path fill="none" stroke="#63b8ff" d="M287.96,-109.98C317.3,-101.05 363.6,-86.94 396.19,-77.02"/>
<polygon fill="#63b8ff" stroke="#63b8ff" points="397.28,-80.34 405.82,-74.08 395.24,-73.65 397.28,-80.34"/>
</g>
<!-- Node9 -->
<g id="node9" class="node">
<title>Node9</title>
<g id="a_node9"><a xlink:href="MTBin_2Common_8h.html" target="_top" xlink:title=" ">
<polygon fill="white" stroke="#666666" points="152,-74 48,-74 48,-55 152,-55 152,-74"/>
<text text-anchor="middle" x="100" y="-62" font-family="Helvetica,sans-Serif" font-size="10.00">MTBin/Common.h</text>
</a>
</g>
</g>
<!-- Node3&#45;&gt;Node9 -->
<g id="edge8" class="edge">
<title>Node3&#45;&gt;Node9</title>
<path fill="none" stroke="#63b8ff" d="M234.29,-109.98C207.55,-101.13 165.47,-87.19 135.55,-77.28"/>
<polygon fill="#63b8ff" stroke="#63b8ff" points="136.5,-73.9 125.91,-74.08 134.3,-80.55 136.5,-73.9"/>
</g>
<!-- Node9&#45;&gt;Node6 -->
<g id="edge10" class="edge">
<title>Node9&#45;&gt;Node6</title>
<path fill="none" stroke="#63b8ff" d="M88.11,-54.98C76.85,-46.92 59.71,-34.65 46.29,-25.03"/>
<polygon fill="#63b8ff" stroke="#63b8ff" points="48.27,-22.15 38.11,-19.17 44.2,-27.84 48.27,-22.15"/>
</g>
<!-- Node10 -->
<g id="node10" class="node">
<title>Node10</title>
<g id="a_node10"><a xlink:title=" ">
<polygon fill="#e0e0e0" stroke="#999999" points="125,-19 75,-19 75,0 125,0 125,-19"/>
<text text-anchor="middle" x="100" y="-7" font-family="Helvetica,sans-Serif" font-size="10.00">cstdint</text>
</a>
</g>
</g>
<!-- Node9&#45;&gt;Node10 -->
<g id="edge9" class="edge">
<title>Node9&#45;&gt;Node10</title>
<path fill="none" stroke="#63b8ff" d="M100,-54.75C100,-47.8 100,-37.85 100,-29.13"/>
<polygon fill="#63b8ff" stroke="#63b8ff" points="103.5,-29.09 100,-19.09 96.5,-29.09 103.5,-29.09"/>
</g>
</g>
</svg>
