<?xml version="1.0" encoding="UTF-8" standalone="no"?>
<!DOCTYPE svg PUBLIC "-//W3C//DTD SVG 1.1//EN"
 "http://www.w3.org/Graphics/SVG/1.1/DTD/svg11.dtd">
<!-- Generated by graphviz version 2.43.0 (0)
 -->
<!-- Title: Entity.cpp Pages: 1 -->
<svg width="107pt" height="247pt"
 viewBox="0.00 0.00 106.50 247.00" xmlns="http://www.w3.org/2000/svg" xmlns:xlink="http://www.w3.org/1999/xlink">
<g id="graph0" class="graph" transform="scale(1 1) rotate(0) translate(4 243)">
<title>Entity.cpp</title>
<!-- Node1 -->
<g id="node1" class="node">
<title>Node1</title>
<g id="a_node1"><a xlink:title=" ">
<polygon fill="#999999" stroke="#666666" points="64,-239 0,-239 0,-220 64,-220 64,-239"/>
<text text-anchor="middle" x="32" y="-227" font-family="Helvetica,sans-Serif" font-size="10.00">Entity.cpp</text>
</a>
</g>
</g>
<!-- Node2 -->
<g id="node2" class="node">
<title>Node2</title>
<g id="a_node2"><a xlink:href="Entity_8h.html" target="_top" xlink:title=" ">
<polygon fill="white" stroke="#666666" points="58.5,-184 5.5,-184 5.5,-165 58.5,-165 58.5,-184"/>
<text text-anchor="middle" x="32" y="-172" font-family="Helvetica,sans-Serif" font-size="10.00">Entity.h</text>
</a>
</g>
</g>
<!-- Node1&#45;&gt;Node2 -->
<g id="edge1" class="edge">
<title>Node1&#45;&gt;Node2</title>
<path fill="none" stroke="#63b8ff" d="M32,-219.75C32,-212.8 32,-202.85 32,-194.13"/>
<polygon fill="#63b8ff" stroke="#63b8ff" points="35.5,-194.09 32,-184.09 28.5,-194.09 35.5,-194.09"/>
</g>
<!-- Node3 -->
<g id="node3" class="node">
<title>Node3</title>
<g id="a_node3"><a xlink:href="cmtgb_8h.html" target="_top" xlink:title=" ">
<polygon fill="white" stroke="#666666" points="60,-129 4,-129 4,-110 60,-110 60,-129"/>
<text text-anchor="middle" x="32" y="-117" font-family="Helvetica,sans-Serif" font-size="10.00">cmtgb.h</text>
</a>
</g>
</g>
<!-- Node2&#45;&gt;Node3 -->
<g id="edge2" class="edge">
<title>Node2&#45;&gt;Node3</title>
<path fill="none" stroke="#63b8ff" d="M32,-164.75C32,-157.8 32,-147.85 32,-139.13"/>
<polygon fill="#63b8ff" stroke="#63b8ff" points="35.5,-139.09 32,-129.09 28.5,-139.09 35.5,-139.09"/>
</g>
<!-- Node4 -->
<g id="node4" class="node">
<title>Node4</title>
<g id="a_node4"><a xlink:title=" ">
<polygon fill="#e0e0e0" stroke="#999999" points="57,-19 7,-19 7,0 57,0 57,-19"/>
<text text-anchor="middle" x="32" y="-7" font-family="Helvetica,sans-Serif" font-size="10.00">cstdint</text>
</a>
</g>
</g>
<!-- Node3&#45;&gt;Node4 -->
<g id="edge3" class="edge">
<title>Node3&#45;&gt;Node4</title>
<path fill="none" stroke="#63b8ff" d="M28.61,-109.92C24.2,-97.76 17.38,-74.8 20,-55 21.16,-46.27 23.53,-36.83 25.87,-28.9"/>
<polygon fill="#63b8ff" stroke="#63b8ff" points="29.25,-29.82 28.91,-19.23 22.57,-27.72 29.25,-29.82"/>
</g>
<!-- Node5 -->
<g id="node5" class="node">
<title>Node5</title>
<g id="a_node5"><a xlink:href="Handlers_8h.html" target="_top" xlink:title=" ">
<polygon fill="white" stroke="#666666" points="98.5,-74 29.5,-74 29.5,-55 98.5,-55 98.5,-74"/>
<text text-anchor="middle" x="64" y="-62" font-family="Helvetica,sans-Serif" font-size="10.00">Handlers.h</text>
</a>
</g>
</g>
<!-- Node3&#45;&gt;Node5 -->
<g id="edge4" class="edge">
<title>Node3&#45;&gt;Node5</title>
<path fill="none" stroke="#63b8ff" d="M37.28,-109.75C41.71,-102.42 48.16,-91.73 53.62,-82.7"/>
<polygon fill="#63b8ff" stroke="#63b8ff" points="56.64,-84.46 58.81,-74.09 50.65,-80.84 56.64,-84.46"/>
</g>
<!-- Node5&#45;&gt;Node4 -->
<g id="edge5" class="edge">
<title>Node5&#45;&gt;Node4</title>
<path fill="none" stroke="#63b8ff" d="M58.72,-54.75C54.29,-47.42 47.84,-36.73 42.38,-27.7"/>
<polygon fill="#63b8ff" stroke="#63b8ff" points="45.35,-25.84 37.19,-19.09 39.36,-29.46 45.35,-25.84"/>
</g>
</g>
</svg>
