<?xml version="1.0" encoding="UTF-8" standalone="no"?>
<!DOCTYPE svg PUBLIC "-//W3C//DTD SVG 1.1//EN"
 "http://www.w3.org/Graphics/SVG/1.1/DTD/svg11.dtd">
<!-- Generated by graphviz version 2.43.0 (0)
 -->
<!-- Title: EventManager.cpp Pages: 1 -->
<svg width="1552pt" height="412pt"
 viewBox="0.00 0.00 1551.50 412.00" xmlns="http://www.w3.org/2000/svg" xmlns:xlink="http://www.w3.org/1999/xlink">
<g id="graph0" class="graph" transform="scale(1 1) rotate(0) translate(4 408)">
<title>EventManager.cpp</title>
<!-- Node1 -->
<g id="node1" class="node">
<title>Node1</title>
<g id="a_node1"><a xlink:title=" ">
<polygon fill="#999999" stroke="#666666" points="1268.5,-404 1161.5,-404 1161.5,-385 1268.5,-385 1268.5,-404"/>
<text text-anchor="middle" x="1215" y="-392" font-family="Helvetica,sans-Serif" font-size="10.00">EventManager.cpp</text>
</a>
</g>
</g>
<!-- Node2 -->
<g id="node2" class="node">
<title>Node2</title>
<g id="a_node2"><a xlink:href="EventManager_8h.html" target="_top" xlink:title=" ">
<polygon fill="white" stroke="#666666" points="1035.5,-294 940.5,-294 940.5,-275 1035.5,-275 1035.5,-294"/>
<text text-anchor="middle" x="988" y="-282" font-family="Helvetica,sans-Serif" font-size="10.00">EventManager.h</text>
</a>
</g>
</g>
<!-- Node1&#45;&gt;Node2 -->
<g id="edge1" class="edge">
<title>Node1&#45;&gt;Node2</title>
<path fill="none" stroke="#63b8ff" d="M1196.81,-384.84C1157.03,-365.92 1062.13,-320.77 1015.21,-298.45"/>
<polygon fill="#63b8ff" stroke="#63b8ff" points="1016.5,-295.18 1005.96,-294.05 1013.49,-301.5 1016.5,-295.18"/>
</g>
<!-- Node8 -->
<g id="node8" class="node">
<title>Node8</title>
<g id="a_node8"><a xlink:href="Game_8h.html" target="_top" xlink:title=" ">
<polygon fill="white" stroke="#666666" points="645.5,-349 590.5,-349 590.5,-330 645.5,-330 645.5,-349"/>
<text text-anchor="middle" x="618" y="-337" font-family="Helvetica,sans-Serif" font-size="10.00">Game.h</text>
</a>
</g>
</g>
<!-- Node1&#45;&gt;Node8 -->
<g id="edge7" class="edge">
<title>Node1&#45;&gt;Node8</title>
<path fill="none" stroke="#63b8ff" d="M1161.49,-388.75C1042.5,-378.19 758.35,-352.96 655.76,-343.85"/>
<polygon fill="#63b8ff" stroke="#63b8ff" points="655.83,-340.35 645.56,-342.95 655.21,-347.32 655.83,-340.35"/>
</g>
<!-- Node25 -->
<g id="node25" class="node">
<title>Node25</title>
<g id="a_node25"><a xlink:href="ReleaseUtility_8h.html" target="_top" xlink:title=" ">
<polygon fill="white" stroke="#666666" points="1543.5,-239 1450.5,-239 1450.5,-220 1543.5,-220 1543.5,-239"/>
<text text-anchor="middle" x="1497" y="-227" font-family="Helvetica,sans-Serif" font-size="10.00">ReleaseUtility.h</text>
</a>
</g>
</g>
<!-- Node1&#45;&gt;Node25 -->
<g id="edge73" class="edge">
<title>Node1&#45;&gt;Node25</title>
<path fill="none" stroke="#63b8ff" d="M1244.39,-384.93C1289.43,-370.86 1376.92,-339.79 1440,-294 1457.9,-281.01 1474.31,-261.57 1484.88,-247.63"/>
<polygon fill="#63b8ff" stroke="#63b8ff" points="1487.84,-249.51 1490.93,-239.38 1482.19,-245.37 1487.84,-249.51"/>
</g>
<!-- Node38 -->
<g id="node38" class="node">
<title>Node38</title>
<g id="a_node38"><a xlink:href="SceneSystem_8h.html" target="_top" xlink:title=" ">
<polygon fill="white" stroke="#666666" points="1400,-294 1308,-294 1308,-275 1400,-275 1400,-294"/>
<text text-anchor="middle" x="1354" y="-282" font-family="Helvetica,sans-Serif" font-size="10.00">SceneSystem.h</text>
</a>
</g>
</g>
<!-- Node1&#45;&gt;Node38 -->
<g id="edge59" class="edge">
<title>Node1&#45;&gt;Node38</title>
<path fill="none" stroke="#63b8ff" d="M1226.37,-384.66C1250.11,-366.22 1305.16,-323.45 1334.6,-300.57"/>
<polygon fill="#63b8ff" stroke="#63b8ff" points="1337.11,-303.06 1342.86,-294.16 1332.81,-297.53 1337.11,-303.06"/>
</g>
<!-- Node3 -->
<g id="node3" class="node">
<title>Node3</title>
<g id="a_node3"><a xlink:title=" ">
<polygon fill="#e0e0e0" stroke="#999999" points="1073.5,-239 1008.5,-239 1008.5,-220 1073.5,-220 1073.5,-239"/>
<text text-anchor="middle" x="1041" y="-227" font-family="Helvetica,sans-Serif" font-size="10.00">functional</text>
</a>
</g>
</g>
<!-- Node2&#45;&gt;Node3 -->
<g id="edge2" class="edge">
<title>Node2&#45;&gt;Node3</title>
<path fill="none" stroke="#63b8ff" d="M996.75,-274.75C1004.47,-267.03 1015.9,-255.6 1025.22,-246.28"/>
<polygon fill="#63b8ff" stroke="#63b8ff" points="1027.81,-248.64 1032.41,-239.09 1022.86,-243.69 1027.81,-248.64"/>
</g>
<!-- Node4 -->
<g id="node4" class="node">
<title>Node4</title>
<g id="a_node4"><a xlink:title=" ">
<polygon fill="#e0e0e0" stroke="#999999" points="489.5,-184 424.5,-184 424.5,-165 489.5,-165 489.5,-184"/>
<text text-anchor="middle" x="457" y="-172" font-family="Helvetica,sans-Serif" font-size="10.00">typeindex</text>
</a>
</g>
</g>
<!-- Node2&#45;&gt;Node4 -->
<g id="edge3" class="edge">
<title>Node2&#45;&gt;Node4</title>
<path fill="none" stroke="#63b8ff" d="M940.45,-282.66C871.02,-280.31 738.46,-271.52 631,-239 612.93,-233.53 610.46,-227.18 593,-220 561.38,-207.01 524.46,-195.12 497.07,-186.91"/>
<polygon fill="#63b8ff" stroke="#63b8ff" points="498.02,-183.54 487.44,-184.06 496.04,-190.26 498.02,-183.54"/>
</g>
<!-- Node5 -->
<g id="node5" class="node">
<title>Node5</title>
<g id="a_node5"><a xlink:title=" ">
<polygon fill="#e0e0e0" stroke="#999999" points="925.5,-184 832.5,-184 832.5,-165 925.5,-165 925.5,-184"/>
<text text-anchor="middle" x="879" y="-172" font-family="Helvetica,sans-Serif" font-size="10.00">unordered_map</text>
</a>
</g>
</g>
<!-- Node2&#45;&gt;Node5 -->
<g id="edge4" class="edge">
<title>Node2&#45;&gt;Node5</title>
<path fill="none" stroke="#63b8ff" d="M979.08,-274.66C960.71,-256.46 918.41,-214.55 895.12,-191.47"/>
<polygon fill="#63b8ff" stroke="#63b8ff" points="897.31,-188.71 887.74,-184.16 892.38,-193.68 897.31,-188.71"/>
</g>
<!-- Node6 -->
<g id="node6" class="node">
<title>Node6</title>
<g id="a_node6"><a xlink:title=" ">
<polygon fill="#e0e0e0" stroke="#999999" points="1177.5,-239 1130.5,-239 1130.5,-220 1177.5,-220 1177.5,-239"/>
<text text-anchor="middle" x="1154" y="-227" font-family="Helvetica,sans-Serif" font-size="10.00">queue</text>
</a>
</g>
</g>
<!-- Node2&#45;&gt;Node6 -->
<g id="edge5" class="edge">
<title>Node2&#45;&gt;Node6</title>
<path fill="none" stroke="#63b8ff" d="M1014.67,-274.98C1043.53,-265.77 1089.6,-251.06 1120.79,-241.1"/>
<polygon fill="#63b8ff" stroke="#63b8ff" points="1121.89,-244.43 1130.35,-238.05 1119.76,-237.76 1121.89,-244.43"/>
</g>
<!-- Node7 -->
<g id="node7" class="node">
<title>Node7</title>
<g id="a_node7"><a xlink:href="ISystem_8h.html" target="_top" xlink:title=" ">
<polygon fill="white" stroke="#666666" points="1008.5,-184 943.5,-184 943.5,-165 1008.5,-165 1008.5,-184"/>
<text text-anchor="middle" x="976" y="-172" font-family="Helvetica,sans-Serif" font-size="10.00">ISystem.h</text>
</a>
</g>
</g>
<!-- Node2&#45;&gt;Node7 -->
<g id="edge6" class="edge">
<title>Node2&#45;&gt;Node7</title>
<path fill="none" stroke="#63b8ff" d="M987.02,-274.66C985.07,-257.17 980.7,-217.8 978.09,-194.27"/>
<polygon fill="#63b8ff" stroke="#63b8ff" points="981.55,-193.71 976.96,-184.16 974.59,-194.48 981.55,-193.71"/>
</g>
<!-- Node8&#45;&gt;Node3 -->
<g id="edge14" class="edge">
<title>Node8&#45;&gt;Node3</title>
<path fill="none" stroke="#63b8ff" d="M645.54,-337.72C735.61,-334.87 1017.28,-323.66 1044,-294 1054.83,-281.98 1052.27,-262.9 1048.11,-248.79"/>
<polygon fill="#63b8ff" stroke="#63b8ff" points="1051.36,-247.49 1044.8,-239.16 1044.74,-249.76 1051.36,-247.49"/>
</g>
<!-- Node8&#45;&gt;Node4 -->
<g id="edge29" class="edge">
<title>Node8&#45;&gt;Node4</title>
<path fill="none" stroke="#63b8ff" d="M590.07,-337.33C530.79,-334.29 395.11,-324.13 362,-294 337.18,-271.41 328.24,-247.82 347,-220 355.13,-207.94 387.74,-195.65 415.36,-187.05"/>
<polygon fill="#63b8ff" stroke="#63b8ff" points="416.7,-190.3 425.26,-184.06 414.67,-183.6 416.7,-190.3"/>
</g>
<!-- Node8&#45;&gt;Node7 -->
<g id="edge22" class="edge">
<title>Node8&#45;&gt;Node7</title>
<path fill="none" stroke="#63b8ff" d="M645.69,-334.1C680.43,-327.97 741.35,-315.16 790,-294 855.79,-265.39 924.92,-215.17 957.26,-190.31"/>
<polygon fill="#63b8ff" stroke="#63b8ff" points="959.62,-192.91 965.37,-184.01 955.32,-187.38 959.62,-192.91"/>
</g>
<!-- Node9 -->
<g id="node9" class="node">
<title>Node9</title>
<g id="a_node9"><a xlink:href="Entity_8h.html" target="_top" xlink:title=" ">
<polygon fill="white" stroke="#666666" points="635.5,-184 582.5,-184 582.5,-165 635.5,-165 635.5,-184"/>
<text text-anchor="middle" x="609" y="-172" font-family="Helvetica,sans-Serif" font-size="10.00">Entity.h</text>
</a>
</g>
</g>
<!-- Node8&#45;&gt;Node9 -->
<g id="edge8" class="edge">
<title>Node8&#45;&gt;Node9</title>
<path fill="none" stroke="#63b8ff" d="M645.57,-337.38C737.23,-333.42 1027.77,-319.01 1061,-294 1088.41,-273.37 1106.25,-245.24 1083,-220 1051.47,-185.77 725.96,-191.02 645.65,-183.47"/>
<polygon fill="#63b8ff" stroke="#63b8ff" points="646,-179.99 635.65,-182.26 645.15,-186.94 646,-179.99"/>
</g>
<!-- Node11 -->
<g id="node11" class="node">
<title>Node11</title>
<g id="a_node11"><a xlink:title=" ">
<polygon fill="#e0e0e0" stroke="#999999" points="964,-19 914,-19 914,0 964,0 964,-19"/>
<text text-anchor="middle" x="939" y="-7" font-family="Helvetica,sans-Serif" font-size="10.00">cstdint</text>
</a>
</g>
</g>
<!-- Node8&#45;&gt;Node11 -->
<g id="edge15" class="edge">
<title>Node8&#45;&gt;Node11</title>
<path fill="none" stroke="#63b8ff" d="M590.13,-337.94C480.29,-335.5 80.96,-324.61 34,-294 7.18,-276.52 0,-262.51 0,-230.5 0,-230.5 0,-230.5 0,-118.5 0,-25.72 732.79,-12.58 903.68,-10.78"/>
<polygon fill="#63b8ff" stroke="#63b8ff" points="903.92,-14.28 913.88,-10.68 903.85,-7.28 903.92,-14.28"/>
</g>
<!-- Node13 -->
<g id="node13" class="node">
<title>Node13</title>
<g id="a_node13"><a xlink:title=" ">
<polygon fill="#e0e0e0" stroke="#999999" points="1114,-184 1070,-184 1070,-165 1114,-165 1114,-184"/>
<text text-anchor="middle" x="1092" y="-172" font-family="Helvetica,sans-Serif" font-size="10.00">string</text>
</a>
</g>
</g>
<!-- Node8&#45;&gt;Node13 -->
<g id="edge13" class="edge">
<title>Node8&#45;&gt;Node13</title>
<path fill="none" stroke="#63b8ff" d="M645.59,-338.76C751.69,-339.08 1130.33,-333.5 1187,-239 1191.34,-231.76 1191.53,-227.13 1187,-220 1179.7,-208.52 1148.56,-195.28 1123.89,-186.25"/>
<polygon fill="#63b8ff" stroke="#63b8ff" points="1124.74,-182.83 1114.15,-182.77 1122.39,-189.43 1124.74,-182.83"/>
</g>
<!-- Node14 -->
<g id="node14" class="node">
<title>Node14</title>
<g id="a_node14"><a xlink:title=" ">
<polygon fill="#e0e0e0" stroke="#999999" points="315,-294 277,-294 277,-275 315,-275 315,-294"/>
<text text-anchor="middle" x="296" y="-282" font-family="Helvetica,sans-Serif" font-size="10.00">map</text>
</a>
</g>
</g>
<!-- Node8&#45;&gt;Node14 -->
<g id="edge16" class="edge">
<title>Node8&#45;&gt;Node14</title>
<path fill="none" stroke="#63b8ff" d="M590.34,-335.17C538.7,-328.75 424.23,-313.55 329,-294 327.73,-293.74 326.43,-293.46 325.13,-293.17"/>
<polygon fill="#63b8ff" stroke="#63b8ff" points="325.66,-289.7 315.12,-290.77 324.03,-296.5 325.66,-289.7"/>
</g>
<!-- Node15 -->
<g id="node15" class="node">
<title>Node15</title>
<g id="a_node15"><a xlink:title=" ">
<polygon fill="#e0e0e0" stroke="#999999" points="1164,-184 1132,-184 1132,-165 1164,-165 1164,-184"/>
<text text-anchor="middle" x="1148" y="-172" font-family="Helvetica,sans-Serif" font-size="10.00">list</text>
</a>
</g>
</g>
<!-- Node8&#45;&gt;Node15 -->
<g id="edge17" class="edge">
<title>Node8&#45;&gt;Node15</title>
<path fill="none" stroke="#63b8ff" d="M645.71,-338.29C739.77,-337.25 1045.95,-331.04 1136,-294 1171.31,-279.48 1185.8,-273.58 1202,-239 1211.23,-219.29 1190.98,-200.82 1172.7,-188.94"/>
<polygon fill="#63b8ff" stroke="#63b8ff" points="1174.39,-185.87 1164.02,-183.66 1170.75,-191.85 1174.39,-185.87"/>
</g>
<!-- Node16 -->
<g id="node16" class="node">
<title>Node16</title>
<g id="a_node16"><a xlink:title=" ">
<polygon fill="#e0e0e0" stroke="#999999" points="423,-294 371,-294 371,-275 423,-275 423,-294"/>
<text text-anchor="middle" x="397" y="-282" font-family="Helvetica,sans-Serif" font-size="10.00">cassert</text>
</a>
</g>
</g>
<!-- Node8&#45;&gt;Node16 -->
<g id="edge18" class="edge">
<title>Node8&#45;&gt;Node16</title>
<path fill="none" stroke="#63b8ff" d="M590.26,-331.89C555.75,-323.67 494.77,-309.11 433.25,-294.29"/>
<polygon fill="#63b8ff" stroke="#63b8ff" points="433.91,-290.86 423.37,-291.91 432.27,-297.66 433.91,-290.86"/>
</g>
<!-- Node17 -->
<g id="node17" class="node">
<title>Node17</title>
<g id="a_node17"><a xlink:title=" ">
<polygon fill="#e0e0e0" stroke="#999999" points="498.5,-294 441.5,-294 441.5,-275 498.5,-275 498.5,-294"/>
<text text-anchor="middle" x="470" y="-282" font-family="Helvetica,sans-Serif" font-size="10.00">typeinfo</text>
</a>
</g>
</g>
<!-- Node8&#45;&gt;Node17 -->
<g id="edge19" class="edge">
<title>Node8&#45;&gt;Node17</title>
<path fill="none" stroke="#63b8ff" d="M594.22,-329.98C569.77,-321.23 531.47,-307.51 503.85,-297.62"/>
<polygon fill="#63b8ff" stroke="#63b8ff" points="504.81,-294.25 494.21,-294.17 502.45,-300.84 504.81,-294.25"/>
</g>
<!-- Node18 -->
<g id="node18" class="node">
<title>Node18</title>
<g id="a_node18"><a xlink:title=" ">
<polygon fill="#e0e0e0" stroke="#999999" points="589.5,-294 516.5,-294 516.5,-275 589.5,-275 589.5,-294"/>
<text text-anchor="middle" x="553" y="-282" font-family="Helvetica,sans-Serif" font-size="10.00">string_view</text>
</a>
</g>
</g>
<!-- Node8&#45;&gt;Node18 -->
<g id="edge20" class="edge">
<title>Node8&#45;&gt;Node18</title>
<path fill="none" stroke="#63b8ff" d="M607.56,-329.98C597.85,-322.07 583.18,-310.11 571.5,-300.58"/>
<polygon fill="#63b8ff" stroke="#63b8ff" points="573.6,-297.78 563.63,-294.17 569.17,-303.2 573.6,-297.78"/>
</g>
<!-- Node19 -->
<g id="node19" class="node">
<title>Node19</title>
<g id="a_node19"><a xlink:title=" ">
<polygon fill="#e0e0e0" stroke="#999999" points="365.5,-129 296.5,-129 296.5,-110 365.5,-110 365.5,-129"/>
<text text-anchor="middle" x="331" y="-117" font-family="Helvetica,sans-Serif" font-size="10.00">type_traits</text>
</a>
</g>
</g>
<!-- Node8&#45;&gt;Node19 -->
<g id="edge21" class="edge">
<title>Node8&#45;&gt;Node19</title>
<path fill="none" stroke="#63b8ff" d="M590.5,-337.06C511.69,-332.65 289.28,-318.16 268,-294 260.01,-284.93 226.82,-249.88 271,-165 277.87,-151.8 290.64,-141.49 302.63,-134.14"/>
<polygon fill="#63b8ff" stroke="#63b8ff" points="304.57,-137.06 311.55,-129.09 301.12,-130.97 304.57,-137.06"/>
</g>
<!-- Node20 -->
<g id="node20" class="node">
<title>Node20</title>
<g id="a_node20"><a xlink:href="Vector2Int_8h.html" target="_top" xlink:title=" ">
<polygon fill="white" stroke="#666666" points="118.5,-294 43.5,-294 43.5,-275 118.5,-275 118.5,-294"/>
<text text-anchor="middle" x="81" y="-282" font-family="Helvetica,sans-Serif" font-size="10.00">Vector2Int.h</text>
</a>
</g>
</g>
<!-- Node8&#45;&gt;Node20 -->
<g id="edge23" class="edge">
<title>Node8&#45;&gt;Node20</title>
<path fill="none" stroke="#63b8ff" d="M590.27,-336.84C516.8,-332.27 310.84,-318.27 128.69,-293.97"/>
<polygon fill="#63b8ff" stroke="#63b8ff" points="129.04,-290.48 118.66,-292.61 128.11,-297.42 129.04,-290.48"/>
</g>
<!-- Node8&#45;&gt;Node25 -->
<g id="edge30" class="edge">
<title>Node8&#45;&gt;Node25</title>
<path fill="none" stroke="#63b8ff" d="M645.9,-337.86C777.84,-334.7 1335.92,-319.91 1409,-294 1437.43,-283.92 1464.72,-261.62 1481.17,-246.32"/>
<polygon fill="#63b8ff" stroke="#63b8ff" points="1483.95,-248.51 1488.74,-239.06 1479.1,-243.45 1483.95,-248.51"/>
</g>
<!-- Node26 -->
<g id="node26" class="node">
<title>Node26</title>
<g id="a_node26"><a xlink:href="IComponentMemento_8h.html" target="_top" xlink:title=" ">
<polygon fill="white" stroke="#666666" points="487.5,-239 356.5,-239 356.5,-220 487.5,-220 487.5,-239"/>
<text text-anchor="middle" x="422" y="-227" font-family="Helvetica,sans-Serif" font-size="10.00">IComponentMemento.h</text>
</a>
</g>
</g>
<!-- Node8&#45;&gt;Node26 -->
<g id="edge31" class="edge">
<title>Node8&#45;&gt;Node26</title>
<path fill="none" stroke="#63b8ff" d="M617.81,-329.72C617.03,-316.02 613.46,-289.6 598,-275 582.3,-260.18 532.99,-248.47 490.54,-240.8"/>
<polygon fill="#63b8ff" stroke="#63b8ff" points="490.94,-237.31 480.49,-239.03 489.73,-244.21 490.94,-237.31"/>
</g>
<!-- Node28 -->
<g id="node28" class="node">
<title>Node28</title>
<g id="a_node28"><a xlink:title=" ">
<polygon fill="#e0e0e0" stroke="#999999" points="814,-184 704,-184 704,-165 814,-165 814,-184"/>
<text text-anchor="middle" x="759" y="-172" font-family="Helvetica,sans-Serif" font-size="10.00">nlohmann/json.hpp</text>
</a>
</g>
</g>
<!-- Node8&#45;&gt;Node28 -->
<g id="edge37" class="edge">
<title>Node8&#45;&gt;Node28</title>
<path fill="none" stroke="#63b8ff" d="M645.5,-334.49C685.32,-328.05 755.93,-314.08 771,-294 793.16,-264.48 778.58,-218.51 767.73,-193.39"/>
<polygon fill="#63b8ff" stroke="#63b8ff" points="770.77,-191.63 763.42,-184.01 764.41,-194.55 770.77,-191.63"/>
</g>
<!-- Node29 -->
<g id="node29" class="node">
<title>Node29</title>
<g id="a_node29"><a xlink:href="IRenderable_8h.html" target="_top" xlink:title=" ">
<polygon fill="white" stroke="#666666" points="221,-294 137,-294 137,-275 221,-275 221,-294"/>
<text text-anchor="middle" x="179" y="-282" font-family="Helvetica,sans-Serif" font-size="10.00">IRenderable.h</text>
</a>
</g>
</g>
<!-- Node8&#45;&gt;Node29 -->
<g id="edge38" class="edge">
<title>Node8&#45;&gt;Node29</title>
<path fill="none" stroke="#63b8ff" d="M590.09,-335.59C526.82,-328.94 367.7,-311.77 235,-294 233.74,-293.83 232.46,-293.66 231.18,-293.48"/>
<polygon fill="#63b8ff" stroke="#63b8ff" points="231.57,-290 221.17,-292.06 230.58,-296.93 231.57,-290"/>
</g>
<!-- Node33 -->
<g id="node33" class="node">
<title>Node33</title>
<g id="a_node33"><a xlink:href="ComponentFactory_8h.html" target="_top" xlink:title=" ">
<polygon fill="white" stroke="#666666" points="762,-294 646,-294 646,-275 762,-275 762,-294"/>
<text text-anchor="middle" x="704" y="-282" font-family="Helvetica,sans-Serif" font-size="10.00">ComponentFactory.h</text>
</a>
</g>
</g>
<!-- Node8&#45;&gt;Node33 -->
<g id="edge44" class="edge">
<title>Node8&#45;&gt;Node33</title>
<path fill="none" stroke="#63b8ff" d="M631.82,-329.98C645.15,-321.77 665.58,-309.18 681.31,-299.49"/>
<polygon fill="#63b8ff" stroke="#63b8ff" points="683.25,-302.4 689.93,-294.17 679.58,-296.44 683.25,-302.4"/>
</g>
<!-- Node10 -->
<g id="node10" class="node">
<title>Node10</title>
<g id="a_node10"><a xlink:href="cmtgb_8h.html" target="_top" xlink:title=" ">
<polygon fill="white" stroke="#666666" points="999,-129 943,-129 943,-110 999,-110 999,-129"/>
<text text-anchor="middle" x="971" y="-117" font-family="Helvetica,sans-Serif" font-size="10.00">cmtgb.h</text>
</a>
</g>
</g>
<!-- Node9&#45;&gt;Node10 -->
<g id="edge9" class="edge">
<title>Node9&#45;&gt;Node10</title>
<path fill="none" stroke="#63b8ff" d="M635.68,-166.9C638.81,-166.21 641.97,-165.56 645,-165 748.52,-145.76 871.99,-131.15 933,-124.49"/>
<polygon fill="#63b8ff" stroke="#63b8ff" points="933.38,-127.97 942.95,-123.41 932.63,-121.01 933.38,-127.97"/>
</g>
<!-- Node10&#45;&gt;Node11 -->
<g id="edge10" class="edge">
<title>Node10&#45;&gt;Node11</title>
<path fill="none" stroke="#63b8ff" d="M968.38,-109.66C963.18,-92.09 951.43,-52.45 944.47,-28.95"/>
<polygon fill="#63b8ff" stroke="#63b8ff" points="947.76,-27.75 941.57,-19.16 941.05,-29.74 947.76,-27.75"/>
</g>
<!-- Node12 -->
<g id="node12" class="node">
<title>Node12</title>
<g id="a_node12"><a xlink:href="Handlers_8h.html" target="_top" xlink:title=" ">
<polygon fill="white" stroke="#666666" points="1036.5,-74 967.5,-74 967.5,-55 1036.5,-55 1036.5,-74"/>
<text text-anchor="middle" x="1002" y="-62" font-family="Helvetica,sans-Serif" font-size="10.00">Handlers.h</text>
</a>
</g>
</g>
<!-- Node10&#45;&gt;Node12 -->
<g id="edge11" class="edge">
<title>Node10&#45;&gt;Node12</title>
<path fill="none" stroke="#63b8ff" d="M976.12,-109.75C980.36,-102.49 986.53,-91.95 991.78,-82.98"/>
<polygon fill="#63b8ff" stroke="#63b8ff" points="994.95,-84.49 996.98,-74.09 988.91,-80.95 994.95,-84.49"/>
</g>
<!-- Node12&#45;&gt;Node11 -->
<g id="edge12" class="edge">
<title>Node12&#45;&gt;Node11</title>
<path fill="none" stroke="#63b8ff" d="M991.88,-54.98C982.56,-47.15 968.53,-35.34 957.26,-25.86"/>
<polygon fill="#63b8ff" stroke="#63b8ff" points="959.21,-22.93 949.31,-19.17 954.71,-28.29 959.21,-22.93"/>
</g>
<!-- Node21 -->
<g id="node21" class="node">
<title>Node21</title>
<g id="a_node21"><a xlink:href="Vector2T_8h.html" target="_top" xlink:title=" ">
<polygon fill="white" stroke="#666666" points="114,-184 46,-184 46,-165 114,-165 114,-184"/>
<text text-anchor="middle" x="80" y="-172" font-family="Helvetica,sans-Serif" font-size="10.00">Vector2T.h</text>
</a>
</g>
</g>
<!-- Node20&#45;&gt;Node21 -->
<g id="edge24" class="edge">
<title>Node20&#45;&gt;Node21</title>
<path fill="none" stroke="#63b8ff" d="M80.92,-274.66C80.76,-257.17 80.39,-217.8 80.17,-194.27"/>
<polygon fill="#63b8ff" stroke="#63b8ff" points="83.67,-194.13 80.08,-184.16 76.67,-194.19 83.67,-194.13"/>
</g>
<!-- Node21&#45;&gt;Node19 -->
<g id="edge25" class="edge">
<title>Node21&#45;&gt;Node19</title>
<path fill="none" stroke="#63b8ff" d="M114.11,-166.3C158.66,-156.89 236.77,-140.4 286.09,-129.98"/>
<polygon fill="#63b8ff" stroke="#63b8ff" points="287.09,-133.35 296.16,-127.86 285.65,-126.5 287.09,-133.35"/>
</g>
<!-- Node22 -->
<g id="node22" class="node">
<title>Node22</title>
<g id="a_node22"><a xlink:title=" ">
<polygon fill="#e0e0e0" stroke="#999999" points="138,-129 94,-129 94,-110 138,-110 138,-129"/>
<text text-anchor="middle" x="116" y="-117" font-family="Helvetica,sans-Serif" font-size="10.00">limits</text>
</a>
</g>
</g>
<!-- Node21&#45;&gt;Node22 -->
<g id="edge26" class="edge">
<title>Node21&#45;&gt;Node22</title>
<path fill="none" stroke="#63b8ff" d="M85.94,-164.75C90.98,-157.34 98.34,-146.5 104.51,-137.41"/>
<polygon fill="#63b8ff" stroke="#63b8ff" points="107.44,-139.33 110.17,-129.09 101.65,-135.39 107.44,-139.33"/>
</g>
<!-- Node23 -->
<g id="node23" class="node">
<title>Node23</title>
<g id="a_node23"><a xlink:title=" ">
<polygon fill="#e0e0e0" stroke="#999999" points="75.5,-129 28.5,-129 28.5,-110 75.5,-110 75.5,-129"/>
<text text-anchor="middle" x="52" y="-117" font-family="Helvetica,sans-Serif" font-size="10.00">cmath</text>
</a>
</g>
</g>
<!-- Node21&#45;&gt;Node23 -->
<g id="edge27" class="edge">
<title>Node21&#45;&gt;Node23</title>
<path fill="none" stroke="#63b8ff" d="M75.38,-164.75C71.54,-157.49 65.98,-146.95 61.24,-137.98"/>
<polygon fill="#63b8ff" stroke="#63b8ff" points="64.3,-136.3 56.54,-129.09 58.11,-139.57 64.3,-136.3"/>
</g>
<!-- Node24 -->
<g id="node24" class="node">
<title>Node24</title>
<g id="a_node24"><a xlink:title=" ">
<polygon fill="#e0e0e0" stroke="#999999" points="278,-129 218,-129 218,-110 278,-110 278,-129"/>
<text text-anchor="middle" x="248" y="-117" font-family="Helvetica,sans-Serif" font-size="10.00">concepts</text>
</a>
</g>
</g>
<!-- Node21&#45;&gt;Node24 -->
<g id="edge28" class="edge">
<title>Node21&#45;&gt;Node24</title>
<path fill="none" stroke="#63b8ff" d="M106.99,-164.98C135.2,-156.09 179.64,-142.07 211.08,-132.15"/>
<polygon fill="#63b8ff" stroke="#63b8ff" points="212.31,-135.43 220.8,-129.08 210.21,-128.75 212.31,-135.43"/>
</g>
<!-- Node26&#45;&gt;Node4 -->
<g id="edge33" class="edge">
<title>Node26&#45;&gt;Node4</title>
<path fill="none" stroke="#63b8ff" d="M427.78,-219.75C432.62,-212.42 439.68,-201.73 445.64,-192.7"/>
<polygon fill="#63b8ff" stroke="#63b8ff" points="448.74,-194.36 451.33,-184.09 442.9,-190.5 448.74,-194.36"/>
</g>
<!-- Node26&#45;&gt;Node9 -->
<g id="edge32" class="edge">
<title>Node26&#45;&gt;Node9</title>
<path fill="none" stroke="#63b8ff" d="M452.04,-219.98C484.84,-210.69 537.35,-195.81 572.5,-185.85"/>
<polygon fill="#63b8ff" stroke="#63b8ff" points="573.69,-189.14 582.36,-183.05 571.79,-182.41 573.69,-189.14"/>
</g>
<!-- Node27 -->
<g id="node27" class="node">
<title>Node27</title>
<g id="a_node27"><a xlink:href="ComponentConcept_8h.html" target="_top" xlink:title=" ">
<polygon fill="white" stroke="#666666" points="402,-184 280,-184 280,-165 402,-165 402,-184"/>
<text text-anchor="middle" x="341" y="-172" font-family="Helvetica,sans-Serif" font-size="10.00">ComponentConcept.h</text>
</a>
</g>
</g>
<!-- Node26&#45;&gt;Node27 -->
<g id="edge34" class="edge">
<title>Node26&#45;&gt;Node27</title>
<path fill="none" stroke="#63b8ff" d="M408.99,-219.98C396.54,-211.84 377.54,-199.41 362.79,-189.76"/>
<polygon fill="#63b8ff" stroke="#63b8ff" points="364.54,-186.72 354.25,-184.17 360.7,-192.57 364.54,-186.72"/>
</g>
<!-- Node27&#45;&gt;Node19 -->
<g id="edge36" class="edge">
<title>Node27&#45;&gt;Node19</title>
<path fill="none" stroke="#63b8ff" d="M339.35,-164.75C338.04,-157.8 336.16,-147.85 334.52,-139.13"/>
<polygon fill="#63b8ff" stroke="#63b8ff" points="337.91,-138.27 332.62,-129.09 331.04,-139.56 337.91,-138.27"/>
</g>
<!-- Node27&#45;&gt;Node24 -->
<g id="edge35" class="edge">
<title>Node27&#45;&gt;Node24</title>
<path fill="none" stroke="#63b8ff" d="M326.06,-164.98C311.5,-156.69 289.13,-143.94 272.07,-134.22"/>
<polygon fill="#63b8ff" stroke="#63b8ff" points="273.64,-131.08 263.21,-129.17 270.17,-137.16 273.64,-131.08"/>
</g>
<!-- Node30 -->
<g id="node30" class="node">
<title>Node30</title>
<g id="a_node30"><a xlink:href="GameObjectLayer_8h.html" target="_top" xlink:title=" ">
<polygon fill="white" stroke="#666666" points="223.5,-239 110.5,-239 110.5,-220 223.5,-220 223.5,-239"/>
<text text-anchor="middle" x="167" y="-227" font-family="Helvetica,sans-Serif" font-size="10.00">GameObjectLayer.h</text>
</a>
</g>
</g>
<!-- Node29&#45;&gt;Node30 -->
<g id="edge39" class="edge">
<title>Node29&#45;&gt;Node30</title>
<path fill="none" stroke="#63b8ff" d="M177.02,-274.75C175.43,-267.72 173.14,-257.62 171.15,-248.84"/>
<polygon fill="#63b8ff" stroke="#63b8ff" points="174.57,-248.07 168.94,-239.09 167.74,-249.62 174.57,-248.07"/>
</g>
<!-- Node31 -->
<g id="node31" class="node">
<title>Node31</title>
<g id="a_node31"><a xlink:href="BitFlag_8h.html" target="_top" xlink:title=" ">
<polygon fill="white" stroke="#666666" points="224,-184 132,-184 132,-165 224,-165 224,-184"/>
<text text-anchor="middle" x="178" y="-172" font-family="Helvetica,sans-Serif" font-size="10.00">MTBit/BitFlag.h</text>
</a>
</g>
</g>
<!-- Node30&#45;&gt;Node31 -->
<g id="edge40" class="edge">
<title>Node30&#45;&gt;Node31</title>
<path fill="none" stroke="#63b8ff" d="M168.82,-219.75C170.26,-212.8 172.32,-202.85 174.13,-194.13"/>
<polygon fill="#63b8ff" stroke="#63b8ff" points="177.61,-194.59 176.22,-184.09 170.76,-193.17 177.61,-194.59"/>
</g>
<!-- Node31&#45;&gt;Node19 -->
<g id="edge41" class="edge">
<title>Node31&#45;&gt;Node19</title>
<path fill="none" stroke="#63b8ff" d="M202.58,-164.98C228.05,-156.16 268.04,-142.31 296.63,-132.41"/>
<polygon fill="#63b8ff" stroke="#63b8ff" points="297.92,-135.66 306.23,-129.08 295.63,-129.05 297.92,-135.66"/>
</g>
<!-- Node31&#45;&gt;Node24 -->
<g id="edge43" class="edge">
<title>Node31&#45;&gt;Node24</title>
<path fill="none" stroke="#63b8ff" d="M189.25,-164.98C199.8,-157 215.8,-144.88 228.44,-135.31"/>
<polygon fill="#63b8ff" stroke="#63b8ff" points="230.69,-138 236.55,-129.17 226.46,-132.42 230.69,-138"/>
</g>
<!-- Node32 -->
<g id="node32" class="node">
<title>Node32</title>
<g id="a_node32"><a xlink:title=" ">
<polygon fill="#e0e0e0" stroke="#999999" points="200,-129 156,-129 156,-110 200,-110 200,-129"/>
<text text-anchor="middle" x="178" y="-117" font-family="Helvetica,sans-Serif" font-size="10.00">bitset</text>
</a>
</g>
</g>
<!-- Node31&#45;&gt;Node32 -->
<g id="edge42" class="edge">
<title>Node31&#45;&gt;Node32</title>
<path fill="none" stroke="#63b8ff" d="M178,-164.75C178,-157.8 178,-147.85 178,-139.13"/>
<polygon fill="#63b8ff" stroke="#63b8ff" points="181.5,-139.09 178,-129.09 174.5,-139.09 181.5,-139.09"/>
</g>
<!-- Node33&#45;&gt;Node3 -->
<g id="edge57" class="edge">
<title>Node33&#45;&gt;Node3</title>
<path fill="none" stroke="#63b8ff" d="M758.14,-274.98C824.98,-264.47 937.27,-246.81 998.33,-237.21"/>
<polygon fill="#63b8ff" stroke="#63b8ff" points="999.06,-240.64 1008.39,-235.63 997.97,-233.72 999.06,-240.64"/>
</g>
<!-- Node33&#45;&gt;Node4 -->
<g id="edge46" class="edge">
<title>Node33&#45;&gt;Node4</title>
<path fill="none" stroke="#63b8ff" d="M648.2,-274.99C614.18,-268.33 570.56,-257.08 535,-239 510.83,-226.71 487.29,-205.98 472.51,-191.56"/>
<polygon fill="#63b8ff" stroke="#63b8ff" points="474.79,-188.89 465.24,-184.29 469.84,-193.84 474.79,-188.89"/>
</g>
<!-- Node33&#45;&gt;Node5 -->
<g id="edge47" class="edge">
<title>Node33&#45;&gt;Node5</title>
<path fill="none" stroke="#63b8ff" d="M718.03,-274.84C748.23,-256.2 819.67,-212.11 856.37,-189.46"/>
<polygon fill="#63b8ff" stroke="#63b8ff" points="858.24,-192.43 864.91,-184.2 854.56,-186.47 858.24,-192.43"/>
</g>
<!-- Node33&#45;&gt;Node7 -->
<g id="edge45" class="edge">
<title>Node33&#45;&gt;Node7</title>
<path fill="none" stroke="#63b8ff" d="M725.8,-274.84C773.96,-255.72 889.57,-209.82 945.14,-187.75"/>
<polygon fill="#63b8ff" stroke="#63b8ff" points="946.47,-190.99 954.47,-184.05 943.89,-184.48 946.47,-190.99"/>
</g>
<!-- Node33&#45;&gt;Node26 -->
<g id="edge49" class="edge">
<title>Node33&#45;&gt;Node26</title>
<path fill="none" stroke="#63b8ff" d="M658.69,-274.98C609.4,-265.72 530.57,-250.9 477.57,-240.94"/>
<polygon fill="#63b8ff" stroke="#63b8ff" points="478.14,-237.49 467.66,-239.08 476.84,-244.37 478.14,-237.49"/>
</g>
<!-- Node33&#45;&gt;Node27 -->
<g id="edge48" class="edge">
<title>Node33&#45;&gt;Node27</title>
<path fill="none" stroke="#63b8ff" d="M645.94,-278.16C547.47,-268.85 357.29,-249.6 347,-239 335.8,-227.46 335.38,-208.59 337.11,-194.41"/>
<polygon fill="#63b8ff" stroke="#63b8ff" points="340.6,-194.71 338.79,-184.27 333.7,-193.56 340.6,-194.71"/>
</g>
<!-- Node34 -->
<g id="node34" class="node">
<title>Node34</title>
<g id="a_node34"><a xlink:href="ComponentRegistry_8h.html" target="_top" xlink:title=" ">
<polygon fill="white" stroke="#666666" points="761.5,-239 640.5,-239 640.5,-220 761.5,-220 761.5,-239"/>
<text text-anchor="middle" x="701" y="-227" font-family="Helvetica,sans-Serif" font-size="10.00">ComponentRegistry.h</text>
</a>
</g>
</g>
<!-- Node33&#45;&gt;Node34 -->
<g id="edge50" class="edge">
<title>Node33&#45;&gt;Node34</title>
<path fill="none" stroke="#63b8ff" d="M703.5,-274.75C703.11,-267.8 702.55,-257.85 702.05,-249.13"/>
<polygon fill="#63b8ff" stroke="#63b8ff" points="705.55,-248.88 701.49,-239.09 698.56,-249.27 705.55,-248.88"/>
</g>
<!-- Node37 -->
<g id="node37" class="node">
<title>Node37</title>
<g id="a_node37"><a xlink:title=" ">
<polygon fill="#e0e0e0" stroke="#999999" points="584,-239 544,-239 544,-220 584,-220 584,-239"/>
<text text-anchor="middle" x="564" y="-227" font-family="Helvetica,sans-Serif" font-size="10.00">span</text>
</a>
</g>
</g>
<!-- Node33&#45;&gt;Node37 -->
<g id="edge58" class="edge">
<title>Node33&#45;&gt;Node37</title>
<path fill="none" stroke="#63b8ff" d="M681.51,-274.98C657.66,-265.96 619.87,-251.65 593.61,-241.71"/>
<polygon fill="#63b8ff" stroke="#63b8ff" points="594.76,-238.4 584.17,-238.13 592.28,-244.95 594.76,-238.4"/>
</g>
<!-- Node34&#45;&gt;Node4 -->
<g id="edge53" class="edge">
<title>Node34&#45;&gt;Node4</title>
<path fill="none" stroke="#63b8ff" d="M661.8,-219.98C617.46,-210.35 545.5,-194.72 499.75,-184.79"/>
<polygon fill="#63b8ff" stroke="#63b8ff" points="500.36,-181.34 489.85,-182.63 498.88,-188.18 500.36,-181.34"/>
</g>
<!-- Node34&#45;&gt;Node5 -->
<g id="edge52" class="edge">
<title>Node34&#45;&gt;Node5</title>
<path fill="none" stroke="#63b8ff" d="M729.6,-219.98C759.61,-211.05 806.98,-196.94 840.32,-187.02"/>
<polygon fill="#63b8ff" stroke="#63b8ff" points="841.59,-190.29 850.18,-184.08 839.59,-183.58 841.59,-190.29"/>
</g>
<!-- Node34&#45;&gt;Node7 -->
<g id="edge51" class="edge">
<title>Node34&#45;&gt;Node7</title>
<path fill="none" stroke="#63b8ff" d="M746.57,-219.95C791.45,-211.5 862.23,-198.07 933.4,-184.1"/>
<polygon fill="#63b8ff" stroke="#63b8ff" points="934.31,-187.49 943.45,-182.12 932.96,-180.62 934.31,-187.49"/>
</g>
<!-- Node34&#45;&gt;Node28 -->
<g id="edge56" class="edge">
<title>Node34&#45;&gt;Node28</title>
<path fill="none" stroke="#63b8ff" d="M710.32,-219.98C718.81,-212.23 731.56,-200.58 741.88,-191.14"/>
<polygon fill="#63b8ff" stroke="#63b8ff" points="744.49,-193.5 749.51,-184.17 739.77,-188.33 744.49,-193.5"/>
</g>
<!-- Node35 -->
<g id="node35" class="node">
<title>Node35</title>
<g id="a_node35"><a xlink:title=" ">
<polygon fill="#e0e0e0" stroke="#999999" points="564,-184 508,-184 508,-165 564,-165 564,-184"/>
<text text-anchor="middle" x="536" y="-172" font-family="Helvetica,sans-Serif" font-size="10.00">optional</text>
</a>
</g>
</g>
<!-- Node34&#45;&gt;Node35 -->
<g id="edge54" class="edge">
<title>Node34&#45;&gt;Node35</title>
<path fill="none" stroke="#63b8ff" d="M674.49,-219.98C646.79,-211.09 603.14,-197.07 572.26,-187.15"/>
<polygon fill="#63b8ff" stroke="#63b8ff" points="573.31,-183.81 562.72,-184.08 571.17,-190.47 573.31,-183.81"/>
</g>
<!-- Node36 -->
<g id="node36" class="node">
<title>Node36</title>
<g id="a_node36"><a xlink:title=" ">
<polygon fill="#e0e0e0" stroke="#999999" points="686,-184 654,-184 654,-165 686,-165 686,-184"/>
<text text-anchor="middle" x="670" y="-172" font-family="Helvetica,sans-Serif" font-size="10.00">set</text>
</a>
</g>
</g>
<!-- Node34&#45;&gt;Node36 -->
<g id="edge55" class="edge">
<title>Node34&#45;&gt;Node36</title>
<path fill="none" stroke="#63b8ff" d="M695.88,-219.75C691.64,-212.49 685.47,-201.95 680.22,-192.98"/>
<polygon fill="#63b8ff" stroke="#63b8ff" points="683.09,-190.95 675.02,-184.09 677.05,-194.49 683.09,-190.95"/>
</g>
<!-- Node38&#45;&gt;Node3 -->
<g id="edge70" class="edge">
<title>Node38&#45;&gt;Node3</title>
<path fill="none" stroke="#63b8ff" d="M1307.82,-275.68C1247.5,-265.47 1142.7,-247.72 1084,-237.78"/>
<polygon fill="#63b8ff" stroke="#63b8ff" points="1084.39,-234.3 1073.94,-236.08 1083.22,-241.2 1084.39,-234.3"/>
</g>
<!-- Node38&#45;&gt;Node6 -->
<g id="edge72" class="edge">
<title>Node38&#45;&gt;Node6</title>
<path fill="none" stroke="#63b8ff" d="M1321.87,-274.98C1285.03,-265.22 1224.92,-249.29 1187.51,-239.38"/>
<polygon fill="#63b8ff" stroke="#63b8ff" points="1188.16,-235.93 1177.6,-236.75 1186.37,-242.7 1188.16,-235.93"/>
</g>
<!-- Node38&#45;&gt;Node7 -->
<g id="edge60" class="edge">
<title>Node38&#45;&gt;Node7</title>
<path fill="none" stroke="#63b8ff" d="M1334.54,-274.96C1303.74,-261.71 1241.61,-236.04 1187,-220 1129.59,-203.14 1061.62,-189.99 1018.66,-182.49"/>
<polygon fill="#63b8ff" stroke="#63b8ff" points="1019.01,-178.99 1008.56,-180.75 1017.82,-185.89 1019.01,-178.99"/>
</g>
<!-- Node38&#45;&gt;Node25 -->
<g id="edge69" class="edge">
<title>Node38&#45;&gt;Node25</title>
<path fill="none" stroke="#63b8ff" d="M1376.98,-274.98C1400.5,-266.27 1437.29,-252.63 1463.94,-242.75"/>
<polygon fill="#63b8ff" stroke="#63b8ff" points="1465.45,-245.93 1473.61,-239.17 1463.01,-239.36 1465.45,-245.93"/>
</g>
<!-- Node39 -->
<g id="node39" class="node">
<title>Node39</title>
<g id="a_node39"><a xlink:href="GameScene_8h.html" target="_top" xlink:title=" ">
<polygon fill="white" stroke="#666666" points="1394,-239 1310,-239 1310,-220 1394,-220 1394,-239"/>
<text text-anchor="middle" x="1352" y="-227" font-family="Helvetica,sans-Serif" font-size="10.00">GameScene.h</text>
</a>
</g>
</g>
<!-- Node38&#45;&gt;Node39 -->
<g id="edge61" class="edge">
<title>Node38&#45;&gt;Node39</title>
<path fill="none" stroke="#63b8ff" d="M1353.67,-274.75C1353.41,-267.8 1353.03,-257.85 1352.7,-249.13"/>
<polygon fill="#63b8ff" stroke="#63b8ff" points="1356.2,-248.95 1352.32,-239.09 1349.2,-249.21 1356.2,-248.95"/>
</g>
<!-- Node40 -->
<g id="node40" class="node">
<title>Node40</title>
<g id="a_node40"><a xlink:title=" ">
<polygon fill="#e0e0e0" stroke="#999999" points="1465.5,-184 1418.5,-184 1418.5,-165 1465.5,-165 1465.5,-184"/>
<text text-anchor="middle" x="1442" y="-172" font-family="Helvetica,sans-Serif" font-size="10.00">vector</text>
</a>
</g>
</g>
<!-- Node38&#45;&gt;Node40 -->
<g id="edge71" class="edge">
<title>Node38&#45;&gt;Node40</title>
<path fill="none" stroke="#63b8ff" d="M1365.35,-274.75C1375.87,-266.31 1391.56,-252.8 1403,-239 1414.84,-224.71 1425.66,-206.5 1432.88,-193.25"/>
<polygon fill="#63b8ff" stroke="#63b8ff" points="1436.07,-194.7 1437.66,-184.23 1429.88,-191.42 1436.07,-194.7"/>
</g>
<!-- Node39&#45;&gt;Node10 -->
<g id="edge62" class="edge">
<title>Node39&#45;&gt;Node10</title>
<path fill="none" stroke="#63b8ff" d="M1352.18,-219.95C1351.97,-206.07 1349.35,-178.81 1333,-165 1284.75,-124.26 1091.91,-119.99 1009.1,-120.09"/>
<polygon fill="#63b8ff" stroke="#63b8ff" points="1009.09,-116.59 999.1,-120.13 1009.11,-123.59 1009.09,-116.59"/>
</g>
<!-- Node39&#45;&gt;Node12 -->
<g id="edge64" class="edge">
<title>Node39&#45;&gt;Node12</title>
<path fill="none" stroke="#63b8ff" d="M1355.24,-219.66C1359.49,-206.35 1365.1,-181.01 1353,-165 1315.84,-115.84 1132.37,-83.93 1046.49,-71.44"/>
<polygon fill="#63b8ff" stroke="#63b8ff" points="1046.91,-67.97 1036.51,-70.02 1045.92,-74.9 1046.91,-67.97"/>
</g>
<!-- Node39&#45;&gt;Node13 -->
<g id="edge65" class="edge">
<title>Node39&#45;&gt;Node13</title>
<path fill="none" stroke="#63b8ff" d="M1309.59,-221.25C1265.54,-213.5 1194.42,-200.37 1124.2,-184.14"/>
<polygon fill="#63b8ff" stroke="#63b8ff" points="1124.83,-180.7 1114.3,-181.83 1123.24,-187.51 1124.83,-180.7"/>
</g>
<!-- Node39&#45;&gt;Node15 -->
<g id="edge63" class="edge">
<title>Node39&#45;&gt;Node15</title>
<path fill="none" stroke="#63b8ff" d="M1317.6,-219.98C1282.45,-211.21 1226.32,-197.02 1178,-184 1176.74,-183.66 1175.44,-183.31 1174.14,-182.95"/>
<polygon fill="#63b8ff" stroke="#63b8ff" points="1174.74,-179.48 1164.17,-180.16 1172.86,-186.23 1174.74,-179.48"/>
</g>
<!-- Node39&#45;&gt;Node19 -->
<g id="edge67" class="edge">
<title>Node39&#45;&gt;Node19</title>
<path fill="none" stroke="#63b8ff" d="M1320.68,-219.96C1292,-211.81 1248.58,-198.64 1212,-184 1194.1,-176.84 1191.67,-169.83 1173,-165 1020.24,-125.49 527.68,-120.97 375.93,-120.52"/>
<polygon fill="#63b8ff" stroke="#63b8ff" points="375.61,-117.02 365.6,-120.5 375.59,-124.02 375.61,-117.02"/>
</g>
<!-- Node39&#45;&gt;Node40 -->
<g id="edge66" class="edge">
<title>Node39&#45;&gt;Node40</title>
<path fill="none" stroke="#63b8ff" d="M1366.46,-219.98C1380.42,-211.77 1401.79,-199.18 1418.25,-189.49"/>
<polygon fill="#63b8ff" stroke="#63b8ff" points="1420.44,-192.26 1427.28,-184.17 1416.88,-186.23 1420.44,-192.26"/>
</g>
<!-- Node41 -->
<g id="node41" class="node">
<title>Node41</title>
<g id="a_node41"><a xlink:href="GameObjectTag_8h.html" target="_top" xlink:title=" ">
<polygon fill="white" stroke="#666666" points="1323.5,-184 1220.5,-184 1220.5,-165 1323.5,-165 1323.5,-184"/>
<text text-anchor="middle" x="1272" y="-172" font-family="Helvetica,sans-Serif" font-size="10.00">GameObjectTag.h</text>
</a>
</g>
</g>
<!-- Node39&#45;&gt;Node41 -->
<g id="edge68" class="edge">
<title>Node39&#45;&gt;Node41</title>
<path fill="none" stroke="#63b8ff" d="M1339.15,-219.98C1326.86,-211.84 1308.09,-199.41 1293.52,-189.76"/>
<polygon fill="#63b8ff" stroke="#63b8ff" points="1295.36,-186.78 1285.09,-184.17 1291.49,-192.61 1295.36,-186.78"/>
</g>
</g>
</svg>
