<?xml version="1.0" encoding="UTF-8" standalone="no"?>
<!DOCTYPE svg PUBLIC "-//W3C//DTD SVG 1.1//EN"
 "http://www.w3.org/Graphics/SVG/1.1/DTD/svg11.dtd">
<!-- Generated by graphviz version 2.43.0 (0)
 -->
<!-- Title: GameObjectTypeRegistry.h Pages: 1 -->
<svg width="2570pt" height="434pt"
 viewBox="0.00 0.00 2570.00 434.00" xmlns="http://www.w3.org/2000/svg" xmlns:xlink="http://www.w3.org/1999/xlink">
<g id="graph0" class="graph" transform="scale(1 1) rotate(0) translate(4 430)">
<title>GameObjectTypeRegistry.h</title>
<!-- Node1 -->
<g id="node1" class="node">
<title>Node1</title>
<g id="a_node1"><a xlink:title=" ">
<polygon fill="#999999" stroke="#666666" points="2073.5,-426 1925.5,-426 1925.5,-407 2073.5,-407 2073.5,-426"/>
<text text-anchor="middle" x="1999.5" y="-414" font-family="Helvetica,sans-Serif" font-size="10.00">GameObjectTypeRegistry.h</text>
</a>
</g>
</g>
<!-- Node2 -->
<g id="node2" class="node">
<title>Node2</title>
<g id="a_node2"><a xlink:href="GameObjectFactory_8h.html" target="_top" xlink:title=" ">
<polygon fill="white" stroke="#666666" points="2236.5,-316 2116.5,-316 2116.5,-297 2236.5,-297 2236.5,-316"/>
<text text-anchor="middle" x="2176.5" y="-304" font-family="Helvetica,sans-Serif" font-size="10.00">GameObjectFactory.h</text>
</a>
</g>
</g>
<!-- Node1&#45;&gt;Node2 -->
<g id="edge1" class="edge">
<title>Node1&#45;&gt;Node2</title>
<path fill="none" stroke="#63b8ff" d="M1958.86,-403.73C1927.26,-392.55 1891.72,-374.19 1910.5,-352 1936.33,-321.49 2046.04,-311.88 2116.25,-308.87"/>
<polygon fill="#63b8ff" stroke="#63b8ff" points="1957.87,-407.09 1968.47,-406.97 1960.11,-400.46 1957.87,-407.09"/>
</g>
<!-- Node7 -->
<g id="node7" class="node">
<title>Node7</title>
<g id="a_node7"><a xlink:href="mtgb_8h.html" target="_top" xlink:title=" ">
<polygon fill="white" stroke="#666666" points="1502,-195 1451,-195 1451,-176 1502,-176 1502,-195"/>
<text text-anchor="middle" x="1476.5" y="-183" font-family="Helvetica,sans-Serif" font-size="10.00">mtgb.h</text>
</a>
</g>
</g>
<!-- Node1&#45;&gt;Node7 -->
<g id="edge73" class="edge">
<title>Node1&#45;&gt;Node7</title>
<path fill="none" stroke="#63b8ff" d="M1970.69,-402.89C1876.01,-361.43 1575.94,-230.04 1496.15,-195.1"/>
<polygon fill="#63b8ff" stroke="#63b8ff" points="1969.39,-406.14 1979.95,-406.94 1972.2,-399.72 1969.39,-406.14"/>
</g>
<!-- Node50 -->
<g id="node48" class="node">
<title>Node50</title>
<g id="a_node48"><a xlink:href="GameObjectTypeRegistry_8cpp.html" target="_top" xlink:title=" ">
<polygon fill="white" stroke="#666666" points="2079,-371 1920,-371 1920,-352 2079,-352 2079,-371"/>
<text text-anchor="middle" x="1999.5" y="-359" font-family="Helvetica,sans-Serif" font-size="10.00">GameObjectTypeRegistry.cpp</text>
</a>
</g>
</g>
<!-- Node1&#45;&gt;Node50 -->
<g id="edge68" class="edge">
<title>Node1&#45;&gt;Node50</title>
<path fill="none" stroke="#63b8ff" d="M1999.5,-396.66C1999.5,-387.93 1999.5,-377.99 1999.5,-371.09"/>
<polygon fill="#63b8ff" stroke="#63b8ff" points="1996,-396.75 1999.5,-406.75 2003,-396.75 1996,-396.75"/>
</g>
<!-- Node51 -->
<g id="node49" class="node">
<title>Node51</title>
<g id="a_node49"><a xlink:href="GameScene_8cpp.html" target="_top" xlink:title=" ">
<polygon fill="white" stroke="#666666" points="2192,-371 2097,-371 2097,-352 2192,-352 2192,-371"/>
<text text-anchor="middle" x="2144.5" y="-359" font-family="Helvetica,sans-Serif" font-size="10.00">GameScene.cpp</text>
</a>
</g>
</g>
<!-- Node1&#45;&gt;Node51 -->
<g id="edge69" class="edge">
<title>Node1&#45;&gt;Node51</title>
<path fill="none" stroke="#63b8ff" d="M2032.19,-403.55C2059.12,-393.71 2096.66,-379.98 2120.78,-371.17"/>
<polygon fill="#63b8ff" stroke="#63b8ff" points="2030.99,-400.26 2022.8,-406.98 2033.39,-406.84 2030.99,-400.26"/>
</g>
<!-- Node52 -->
<g id="node50" class="node">
<title>Node52</title>
<g id="a_node50"><a xlink:href="IGameObjectRegistrar_8h.html" target="_top" xlink:title=" ">
<polygon fill="white" stroke="#666666" points="2343,-371 2210,-371 2210,-352 2343,-352 2343,-371"/>
<text text-anchor="middle" x="2276.5" y="-359" font-family="Helvetica,sans-Serif" font-size="10.00">IGameObjectRegistrar.h</text>
</a>
</g>
</g>
<!-- Node1&#45;&gt;Node52 -->
<g id="edge70" class="edge">
<title>Node1&#45;&gt;Node52</title>
<path fill="none" stroke="#63b8ff" d="M2054.04,-405.07C2105.97,-395.13 2183.19,-380.35 2231.65,-371.08"/>
<polygon fill="#63b8ff" stroke="#63b8ff" points="2053.17,-401.67 2044,-406.98 2054.48,-408.54 2053.17,-401.67"/>
</g>
<!-- Node3 -->
<g id="node3" class="node">
<title>Node3</title>
<g id="a_node3"><a xlink:href="GameObjectFactory_8cpp.html" target="_top" xlink:title=" ">
<polygon fill="white" stroke="#666666" points="2242,-255.5 2111,-255.5 2111,-236.5 2242,-236.5 2242,-255.5"/>
<text text-anchor="middle" x="2176.5" y="-243.5" font-family="Helvetica,sans-Serif" font-size="10.00">GameObjectFactory.cpp</text>
</a>
</g>
</g>
<!-- Node2&#45;&gt;Node3 -->
<g id="edge2" class="edge">
<title>Node2&#45;&gt;Node3</title>
<path fill="none" stroke="#63b8ff" d="M2176.5,-286.66C2176.5,-276.24 2176.5,-263.8 2176.5,-255.67"/>
<polygon fill="#63b8ff" stroke="#63b8ff" points="2173,-286.87 2176.5,-296.87 2180,-286.87 2173,-286.87"/>
</g>
<!-- Node4 -->
<g id="node4" class="node">
<title>Node4</title>
<g id="a_node4"><a xlink:href="GameObjectGenerator_8h.html" target="_top" xlink:title=" ">
<polygon fill="white" stroke="#666666" points="2394.5,-255.5 2260.5,-255.5 2260.5,-236.5 2394.5,-236.5 2394.5,-255.5"/>
<text text-anchor="middle" x="2327.5" y="-243.5" font-family="Helvetica,sans-Serif" font-size="10.00">GameObjectGenerator.h</text>
</a>
</g>
</g>
<!-- Node2&#45;&gt;Node4 -->
<g id="edge3" class="edge">
<title>Node2&#45;&gt;Node4</title>
<path fill="none" stroke="#63b8ff" d="M2207.79,-293.38C2236.98,-282.07 2279.78,-265.49 2305.52,-255.52"/>
<polygon fill="#63b8ff" stroke="#63b8ff" points="2206.52,-290.12 2198.46,-296.99 2209.05,-296.64 2206.52,-290.12"/>
</g>
<!-- Node47 -->
<g id="node45" class="node">
<title>Node47</title>
<g id="a_node45"><a xlink:href="ImGuiEditor_8h.html" target="_top" xlink:title=" ">
<polygon fill="white" stroke="#666666" points="1912,-255.5 1829,-255.5 1829,-236.5 1912,-236.5 1912,-255.5"/>
<text text-anchor="middle" x="1870.5" y="-243.5" font-family="Helvetica,sans-Serif" font-size="10.00">ImGuiEditor.h</text>
</a>
</g>
</g>
<!-- Node2&#45;&gt;Node47 -->
<g id="edge57" class="edge">
<title>Node2&#45;&gt;Node47</title>
<path fill="none" stroke="#63b8ff" d="M2108.44,-295.43C2056.87,-287.36 1984.4,-275.09 1921.5,-261 1914.42,-259.41 1906.86,-257.47 1899.78,-255.55"/>
<polygon fill="#63b8ff" stroke="#63b8ff" points="2108.04,-298.91 2118.46,-296.98 2109.12,-291.99 2108.04,-298.91"/>
</g>
<!-- Node48 -->
<g id="node46" class="node">
<title>Node48</title>
<g id="a_node46"><a xlink:href="RegisterCommonGameObjectType_8h.html" target="_top" xlink:title=" ">
<polygon fill="white" stroke="#666666" points="2092.5,-261 1930.5,-261 1930.5,-231 2092.5,-231 2092.5,-261"/>
<text text-anchor="start" x="1938.5" y="-249" font-family="Helvetica,sans-Serif" font-size="10.00">RegisterCommonGameObject</text>
<text text-anchor="middle" x="2011.5" y="-238" font-family="Helvetica,sans-Serif" font-size="10.00">Type.h</text>
</a>
</g>
</g>
<!-- Node2&#45;&gt;Node48 -->
<g id="edge60" class="edge">
<title>Node2&#45;&gt;Node48</title>
<path fill="none" stroke="#63b8ff" d="M2142.89,-293.58C2116.32,-284.16 2079.19,-271 2051.17,-261.06"/>
<polygon fill="#63b8ff" stroke="#63b8ff" points="2141.91,-296.95 2152.51,-296.99 2144.25,-290.35 2141.91,-296.95"/>
</g>
<!-- Node49 -->
<g id="node47" class="node">
<title>Node49</title>
<g id="a_node47"><a xlink:href="RegisterGameObjectType_8h.html" target="_top" xlink:title=" ">
<polygon fill="white" stroke="#666666" points="2562,-255.5 2413,-255.5 2413,-236.5 2562,-236.5 2562,-255.5"/>
<text text-anchor="middle" x="2487.5" y="-243.5" font-family="Helvetica,sans-Serif" font-size="10.00">RegisterGameObjectType.h</text>
</a>
</g>
</g>
<!-- Node2&#45;&gt;Node49 -->
<g id="edge64" class="edge">
<title>Node2&#45;&gt;Node49</title>
<path fill="none" stroke="#63b8ff" d="M2231.77,-295.1C2291.77,-283.82 2386.46,-266.01 2442.22,-255.52"/>
<polygon fill="#63b8ff" stroke="#63b8ff" points="2230.9,-291.71 2221.72,-296.99 2232.2,-298.58 2230.9,-291.71"/>
</g>
<!-- Node5 -->
<g id="node5" class="node">
<title>Node5</title>
<g id="a_node5"><a xlink:href="GameObjectGenerator_8cpp.html" target="_top" xlink:title=" ">
<polygon fill="white" stroke="#666666" points="2491.5,-79.5 2345.5,-79.5 2345.5,-60.5 2491.5,-60.5 2491.5,-79.5"/>
<text text-anchor="middle" x="2418.5" y="-67.5" font-family="Helvetica,sans-Serif" font-size="10.00">GameObjectGenerator.cpp</text>
</a>
</g>
</g>
<!-- Node4&#45;&gt;Node5 -->
<g id="edge4" class="edge">
<title>Node4&#45;&gt;Node5</title>
<path fill="none" stroke="#63b8ff" d="M2342.12,-228.58C2350,-219.18 2359.51,-206.93 2366.5,-195 2390.33,-154.31 2408.93,-100.63 2415.72,-79.79"/>
<polygon fill="#63b8ff" stroke="#63b8ff" points="2339.33,-226.45 2335.46,-236.31 2344.64,-231.02 2339.33,-226.45"/>
</g>
<!-- Node6 -->
<g id="node6" class="node">
<title>Node6</title>
<g id="a_node6"><a xlink:href="ImGuiEditor_8cpp.html" target="_top" xlink:title=" ">
<polygon fill="white" stroke="#666666" points="2357.5,-195 2263.5,-195 2263.5,-176 2357.5,-176 2357.5,-195"/>
<text text-anchor="middle" x="2310.5" y="-183" font-family="Helvetica,sans-Serif" font-size="10.00">ImGuiEditor.cpp</text>
</a>
</g>
</g>
<!-- Node4&#45;&gt;Node6 -->
<g id="edge5" class="edge">
<title>Node4&#45;&gt;Node6</title>
<path fill="none" stroke="#63b8ff" d="M2322.12,-226.49C2319.08,-216.01 2315.41,-203.39 2313.02,-195.17"/>
<polygon fill="#63b8ff" stroke="#63b8ff" points="2318.84,-227.74 2324.99,-236.37 2325.56,-225.79 2318.84,-227.74"/>
</g>
<!-- Node4&#45;&gt;Node7 -->
<g id="edge6" class="edge">
<title>Node4&#45;&gt;Node7</title>
<path fill="none" stroke="#63b8ff" d="M2275.62,-234.67C2267.25,-233.26 2258.65,-231.97 2250.5,-231 1958.14,-196.15 1600.28,-188.37 1502.32,-186.84"/>
<polygon fill="#63b8ff" stroke="#63b8ff" points="2275.23,-238.16 2285.68,-236.44 2276.43,-231.26 2275.23,-238.16"/>
</g>
<!-- Node8 -->
<g id="node8" class="node">
<title>Node8</title>
<g id="a_node8"><a xlink:href="Box3D_8h.html" target="_top" xlink:title=" ">
<polygon fill="white" stroke="#666666" points="2158.5,-140 2100.5,-140 2100.5,-121 2158.5,-121 2158.5,-140"/>
<text text-anchor="middle" x="2129.5" y="-128" font-family="Helvetica,sans-Serif" font-size="10.00">Box3D.h</text>
</a>
</g>
</g>
<!-- Node7&#45;&gt;Node8 -->
<g id="edge7" class="edge">
<title>Node7&#45;&gt;Node8</title>
<path fill="none" stroke="#63b8ff" d="M1512.12,-182.45C1603.73,-177.04 1854.94,-161.32 2063.5,-140 2075.57,-138.77 2088.84,-137.11 2100.3,-135.6"/>
<polygon fill="#63b8ff" stroke="#63b8ff" points="1511.78,-178.97 1502,-183.05 1512.19,-185.95 1511.78,-178.97"/>
</g>
<!-- Node11 -->
<g id="node11" class="node">
<title>Node11</title>
<g id="a_node11"><a xlink:href="Camera_8h.html" target="_top" xlink:title=" ">
<polygon fill="white" stroke="#666666" points="2021.5,-140 1957.5,-140 1957.5,-121 2021.5,-121 2021.5,-140"/>
<text text-anchor="middle" x="1989.5" y="-128" font-family="Helvetica,sans-Serif" font-size="10.00">Camera.h</text>
</a>
</g>
</g>
<!-- Node7&#45;&gt;Node11 -->
<g id="edge11" class="edge">
<title>Node7&#45;&gt;Node11</title>
<path fill="none" stroke="#63b8ff" d="M1512.46,-182.15C1590.96,-176.79 1783.46,-162.37 1943.5,-140 1948,-139.37 1952.74,-138.61 1957.39,-137.81"/>
<polygon fill="#63b8ff" stroke="#63b8ff" points="1511.9,-178.68 1502.16,-182.85 1512.37,-185.67 1511.9,-178.68"/>
</g>
<!-- Node14 -->
<g id="node14" class="node">
<title>Node14</title>
<g id="a_node14"><a xlink:href="Player_8h.html" target="_top" xlink:title=" ">
<polygon fill="white" stroke="#666666" points="1821.5,-79.5 1765.5,-79.5 1765.5,-60.5 1821.5,-60.5 1821.5,-79.5"/>
<text text-anchor="middle" x="1793.5" y="-67.5" font-family="Helvetica,sans-Serif" font-size="10.00">Player.h</text>
</a>
</g>
</g>
<!-- Node7&#45;&gt;Node14 -->
<g id="edge36" class="edge">
<title>Node7&#45;&gt;Node14</title>
<path fill="none" stroke="#63b8ff" d="M1512.15,-183.53C1611.15,-180.46 1883.97,-169.39 1910.5,-140 1916.16,-133.73 1915.15,-128.05 1910.5,-121 1907.69,-116.75 1848.16,-92.65 1815.13,-79.53"/>
<polygon fill="#63b8ff" stroke="#63b8ff" points="1511.93,-180.03 1502.04,-183.83 1512.14,-187.03 1511.93,-180.03"/>
</g>
<!-- Node17 -->
<g id="node17" class="node">
<title>Node17</title>
<g id="a_node17"><a xlink:href="TitleScene_8cpp.html" target="_top" xlink:title=" ">
<polygon fill="white" stroke="#666666" points="2059.5,-79.5 1971.5,-79.5 1971.5,-60.5 2059.5,-60.5 2059.5,-79.5"/>
<text text-anchor="middle" x="2015.5" y="-67.5" font-family="Helvetica,sans-Serif" font-size="10.00">TitleScene.cpp</text>
</a>
</g>
</g>
<!-- Node7&#45;&gt;Node17 -->
<g id="edge55" class="edge">
<title>Node7&#45;&gt;Node17</title>
<path fill="none" stroke="#63b8ff" d="M1512.6,-184.37C1630,-183.57 1995.4,-178.03 2030.5,-140 2045.96,-123.24 2031.04,-94.41 2021.72,-79.9"/>
<polygon fill="#63b8ff" stroke="#63b8ff" points="1512.33,-180.87 1502.35,-184.43 1512.37,-187.87 1512.33,-180.87"/>
</g>
<!-- Node18 -->
<g id="node18" class="node">
<title>Node18</title>
<g id="a_node18"><a xlink:href="GameOverZone_8h.html" target="_top" xlink:title=" ">
<polygon fill="white" stroke="#666666" points="640,-140 537,-140 537,-121 640,-121 640,-140"/>
<text text-anchor="middle" x="588.5" y="-128" font-family="Helvetica,sans-Serif" font-size="10.00">GameOverZone.h</text>
</a>
</g>
</g>
<!-- Node7&#45;&gt;Node18 -->
<g id="edge19" class="edge">
<title>Node7&#45;&gt;Node18</title>
<path fill="none" stroke="#63b8ff" d="M1440.65,-183.69C1325.41,-180.84 954.17,-169.81 648.5,-140 645.78,-139.73 642.99,-139.44 640.18,-139.11"/>
<polygon fill="#63b8ff" stroke="#63b8ff" points="1440.6,-187.19 1450.68,-183.93 1440.77,-180.19 1440.6,-187.19"/>
</g>
<!-- Node20 -->
<g id="node20" class="node">
<title>Node20</title>
<g id="a_node20"><a xlink:href="Goal_8h.html" target="_top" xlink:title=" ">
<polygon fill="white" stroke="#666666" points="1027.5,-140 979.5,-140 979.5,-121 1027.5,-121 1027.5,-140"/>
<text text-anchor="middle" x="1003.5" y="-128" font-family="Helvetica,sans-Serif" font-size="10.00">Goal.h</text>
</a>
</g>
</g>
<!-- Node7&#45;&gt;Node20 -->
<g id="edge22" class="edge">
<title>Node7&#45;&gt;Node20</title>
<path fill="none" stroke="#63b8ff" d="M1440.61,-182.27C1365.95,-177.31 1188.63,-163.89 1041.5,-140 1036.96,-139.26 1032.15,-138.32 1027.54,-137.33"/>
<polygon fill="#63b8ff" stroke="#63b8ff" points="1440.66,-185.78 1450.87,-182.94 1441.12,-178.79 1440.66,-185.78"/>
</g>
<!-- Node22 -->
<g id="node22" class="node">
<title>Node22</title>
<g id="a_node22"><a xlink:href="HighlightEnemy_8h.html" target="_top" xlink:title=" ">
<polygon fill="white" stroke="#666666" points="182.5,-140 80.5,-140 80.5,-121 182.5,-121 182.5,-140"/>
<text text-anchor="middle" x="131.5" y="-128" font-family="Helvetica,sans-Serif" font-size="10.00">HighlightEnemy.h</text>
</a>
</g>
</g>
<!-- Node7&#45;&gt;Node22 -->
<g id="edge25" class="edge">
<title>Node7&#45;&gt;Node22</title>
<path fill="none" stroke="#63b8ff" d="M1440.76,-183.53C1294.83,-179.52 729.81,-163.25 265.5,-140 238.14,-138.63 207.67,-136.73 182.7,-135.07"/>
<polygon fill="#63b8ff" stroke="#63b8ff" points="1440.83,-187.04 1450.92,-183.81 1441.02,-180.04 1440.83,-187.04"/>
</g>
<!-- Node24 -->
<g id="node24" class="node">
<title>Node24</title>
<g id="a_node24"><a xlink:href="Model_8cpp.html" target="_top" xlink:title=" ">
<polygon fill="white" stroke="#666666" points="725,-140 658,-140 658,-121 725,-121 725,-140"/>
<text text-anchor="middle" x="691.5" y="-128" font-family="Helvetica,sans-Serif" font-size="10.00">Model.cpp</text>
</a>
</g>
</g>
<!-- Node7&#45;&gt;Node24 -->
<g id="edge27" class="edge">
<title>Node7&#45;&gt;Node24</title>
<path fill="none" stroke="#63b8ff" d="M1440.45,-184.06C1332.78,-182.39 1004.28,-174.59 734.5,-140 731.48,-139.61 728.36,-139.14 725.23,-138.62"/>
<polygon fill="#63b8ff" stroke="#63b8ff" points="1440.7,-187.57 1450.75,-184.21 1440.8,-180.57 1440.7,-187.57"/>
</g>
<!-- Node25 -->
<g id="node25" class="node">
<title>Node25</title>
<g id="a_node25"><a xlink:href="MovingFloor_8h.html" target="_top" xlink:title=" ">
<polygon fill="white" stroke="#666666" points="360.5,-140 274.5,-140 274.5,-121 360.5,-121 360.5,-140"/>
<text text-anchor="middle" x="317.5" y="-128" font-family="Helvetica,sans-Serif" font-size="10.00">MovingFloor.h</text>
</a>
</g>
</g>
<!-- Node7&#45;&gt;Node25 -->
<g id="edge28" class="edge">
<title>Node7&#45;&gt;Node25</title>
<path fill="none" stroke="#63b8ff" d="M1440.8,-182.87C1271.05,-175.1 546.15,-141.96 360.8,-133.48"/>
<polygon fill="#63b8ff" stroke="#63b8ff" points="1440.79,-186.37 1450.94,-183.33 1441.11,-179.38 1440.79,-186.37"/>
</g>
<!-- Node29 -->
<g id="node29" class="node">
<title>Node29</title>
<g id="a_node29"><a xlink:href="PatrolChargerEnemy_8h.html" target="_top" xlink:title=" ">
<polygon fill="white" stroke="#666666" points="867.5,-140 743.5,-140 743.5,-121 867.5,-121 867.5,-140"/>
<text text-anchor="middle" x="805.5" y="-128" font-family="Helvetica,sans-Serif" font-size="10.00">PatrolChargerEnemy.h</text>
</a>
</g>
</g>
<!-- Node7&#45;&gt;Node29 -->
<g id="edge33" class="edge">
<title>Node7&#45;&gt;Node29</title>
<path fill="none" stroke="#63b8ff" d="M1440.71,-182.41C1347.61,-176.85 1090.23,-160.71 876.5,-140 873.66,-139.72 870.75,-139.43 867.82,-139.12"/>
<polygon fill="#63b8ff" stroke="#63b8ff" points="1440.54,-185.91 1450.73,-183.01 1440.96,-178.92 1440.54,-185.91"/>
</g>
<!-- Node31 -->
<g id="node31" class="node">
<title>Node31</title>
<g id="a_node31"><a xlink:href="SampleGame_8h.html" target="_top" xlink:title=" ">
<polygon fill="white" stroke="#666666" points="1401.5,-140 1309.5,-140 1309.5,-121 1401.5,-121 1401.5,-140"/>
<text text-anchor="middle" x="1355.5" y="-128" font-family="Helvetica,sans-Serif" font-size="10.00">SampleGame.h</text>
</a>
</g>
</g>
<!-- Node7&#45;&gt;Node31 -->
<g id="edge37" class="edge">
<title>Node7&#45;&gt;Node31</title>
<path fill="none" stroke="#63b8ff" d="M1447.73,-171.9C1425.38,-162.11 1394.98,-148.79 1375.29,-140.17"/>
<polygon fill="#63b8ff" stroke="#63b8ff" points="1446.5,-175.18 1457.06,-175.98 1449.3,-168.77 1446.5,-175.18"/>
</g>
<!-- Node33 -->
<g id="node33" class="node">
<title>Node33</title>
<g id="a_node33"><a xlink:href="Source_2TheMain_8cpp.html" target="_top" xlink:title=" ">
<polygon fill="white" stroke="#666666" points="1386,-79.5 1307,-79.5 1307,-60.5 1386,-60.5 1386,-79.5"/>
<text text-anchor="middle" x="1346.5" y="-67.5" font-family="Helvetica,sans-Serif" font-size="10.00">TheMain.cpp</text>
</a>
</g>
</g>
<!-- Node7&#45;&gt;Node33 -->
<g id="edge53" class="edge">
<title>Node7&#45;&gt;Node33</title>
<path fill="none" stroke="#63b8ff" d="M1440.65,-183.21C1346.67,-179.46 1098.74,-167.07 1074.5,-140 1068.87,-133.71 1069.03,-127.43 1074.5,-121 1107.04,-82.78 1248.5,-95.91 1297.5,-85 1304.41,-83.46 1311.78,-81.52 1318.66,-79.57"/>
<polygon fill="#63b8ff" stroke="#63b8ff" points="1440.68,-186.71 1450.81,-183.6 1440.95,-179.72 1440.68,-186.71"/>
</g>
<!-- Node34 -->
<g id="node34" class="node">
<title>Node34</title>
<g id="a_node34"><a xlink:href="SampleScene_8cpp.html" target="_top" xlink:title=" ">
<polygon fill="white" stroke="#666666" points="1187,-140 1084,-140 1084,-121 1187,-121 1187,-140"/>
<text text-anchor="middle" x="1135.5" y="-128" font-family="Helvetica,sans-Serif" font-size="10.00">SampleScene.cpp</text>
</a>
</g>
</g>
<!-- Node7&#45;&gt;Node34 -->
<g id="edge40" class="edge">
<title>Node7&#45;&gt;Node34</title>
<path fill="none" stroke="#63b8ff" d="M1440.64,-178.93C1379.98,-169.5 1256.91,-150.37 1187.02,-139.51"/>
<polygon fill="#63b8ff" stroke="#63b8ff" points="1440.45,-182.44 1450.87,-180.52 1441.53,-175.52 1440.45,-182.44"/>
</g>
<!-- Node35 -->
<g id="node35" class="node">
<title>Node35</title>
<g id="a_node35"><a xlink:href="ScoreItem_8h.html" target="_top" xlink:title=" ">
<polygon fill="white" stroke="#666666" points="961,-140 886,-140 886,-121 961,-121 961,-140"/>
<text text-anchor="middle" x="923.5" y="-128" font-family="Helvetica,sans-Serif" font-size="10.00">ScoreItem.h</text>
</a>
</g>
</g>
<!-- Node7&#45;&gt;Node35 -->
<g id="edge41" class="edge">
<title>Node7&#45;&gt;Node35</title>
<path fill="none" stroke="#63b8ff" d="M1440.72,-182.48C1357.8,-177.55 1146.13,-163.55 970.5,-140 967.46,-139.59 964.32,-139.12 961.16,-138.62"/>
<polygon fill="#63b8ff" stroke="#63b8ff" points="1440.68,-185.98 1450.87,-183.07 1441.09,-178.99 1440.68,-185.98"/>
</g>
<!-- Node37 -->
<g id="node37" class="node">
<title>Node37</title>
<g id="a_node37"><a xlink:href="ScoreViewer_8h.html" target="_top" xlink:title=" ">
<polygon fill="white" stroke="#666666" points="1291.5,-140 1205.5,-140 1205.5,-121 1291.5,-121 1291.5,-140"/>
<text text-anchor="middle" x="1248.5" y="-128" font-family="Helvetica,sans-Serif" font-size="10.00">ScoreViewer.h</text>
</a>
</g>
</g>
<!-- Node7&#45;&gt;Node37 -->
<g id="edge44" class="edge">
<title>Node7&#45;&gt;Node37</title>
<path fill="none" stroke="#63b8ff" d="M1440.92,-176.23C1398.6,-166.39 1328.29,-150.05 1285.39,-140.08"/>
<polygon fill="#63b8ff" stroke="#63b8ff" points="1440.26,-179.67 1450.79,-178.52 1441.84,-172.85 1440.26,-179.67"/>
</g>
<!-- Node39 -->
<g id="node39" class="node">
<title>Node39</title>
<g id="a_node39"><a xlink:href="StageEditScene_8cpp.html" target="_top" xlink:title=" ">
<polygon fill="white" stroke="#666666" points="1533,-140 1420,-140 1420,-121 1533,-121 1533,-140"/>
<text text-anchor="middle" x="1476.5" y="-128" font-family="Helvetica,sans-Serif" font-size="10.00">StageEditScene.cpp</text>
</a>
</g>
</g>
<!-- Node7&#45;&gt;Node39 -->
<g id="edge46" class="edge">
<title>Node7&#45;&gt;Node39</title>
<path fill="none" stroke="#63b8ff" d="M1476.5,-165.66C1476.5,-156.93 1476.5,-146.99 1476.5,-140.09"/>
<polygon fill="#63b8ff" stroke="#63b8ff" points="1473,-165.75 1476.5,-175.75 1480,-165.75 1473,-165.75"/>
</g>
<!-- Node40 -->
<g id="node40" class="node">
<title>Node40</title>
<g id="a_node40"><a xlink:href="StageManager_8h.html" target="_top" xlink:title=" ">
<polygon fill="white" stroke="#666666" points="1646,-140 1551,-140 1551,-121 1646,-121 1646,-140"/>
<text text-anchor="middle" x="1598.5" y="-128" font-family="Helvetica,sans-Serif" font-size="10.00">StageManager.h</text>
</a>
</g>
</g>
<!-- Node7&#45;&gt;Node40 -->
<g id="edge47" class="edge">
<title>Node7&#45;&gt;Node40</title>
<path fill="none" stroke="#63b8ff" d="M1505.51,-171.9C1528.04,-162.11 1558.7,-148.79 1578.54,-140.17"/>
<polygon fill="#63b8ff" stroke="#63b8ff" points="1503.88,-168.79 1496.1,-175.98 1506.67,-175.21 1503.88,-168.79"/>
</g>
<!-- Node42 -->
<g id="node42" class="node">
<title>Node42</title>
<g id="a_node42"><a xlink:href="TextBox_8h.html" target="_top" xlink:title=" ">
<polygon fill="#fff0f0" stroke="red" points="1729,-140 1664,-140 1664,-121 1729,-121 1729,-140"/>
<text text-anchor="middle" x="1696.5" y="-128" font-family="Helvetica,sans-Serif" font-size="10.00">TextBox.h</text>
</a>
</g>
</g>
<!-- Node7&#45;&gt;Node42 -->
<g id="edge52" class="edge">
<title>Node7&#45;&gt;Node42</title>
<path fill="none" stroke="#63b8ff" d="M1511.96,-175.96C1553.91,-165.85 1623.19,-149.16 1663.87,-139.36"/>
<polygon fill="#63b8ff" stroke="#63b8ff" points="1511.07,-172.57 1502.17,-178.32 1512.71,-179.38 1511.07,-172.57"/>
</g>
<!-- Node44 -->
<g id="node43" class="node">
<title>Node44</title>
<g id="a_node43"><a xlink:href="TimeLimit_8h.html" target="_top" xlink:title=" ">
<polygon fill="#fff0f0" stroke="red" points="1822,-140 1747,-140 1747,-121 1822,-121 1822,-140"/>
<text text-anchor="middle" x="1784.5" y="-128" font-family="Helvetica,sans-Serif" font-size="10.00">TimeLimit.h</text>
</a>
</g>
</g>
<!-- Node7&#45;&gt;Node44 -->
<g id="edge54" class="edge">
<title>Node7&#45;&gt;Node44</title>
<path fill="none" stroke="#63b8ff" d="M1512.11,-178.55C1562.37,-170.11 1656.98,-154.14 1737.5,-140 1740.52,-139.47 1743.65,-138.91 1746.8,-138.35"/>
<polygon fill="#63b8ff" stroke="#63b8ff" points="1511.36,-175.12 1502.08,-180.23 1512.52,-182.03 1511.36,-175.12"/>
</g>
<!-- Node46 -->
<g id="node44" class="node">
<title>Node46</title>
<g id="a_node44"><a xlink:href="mtgb_8cpp.html" target="_top" xlink:title=" ">
<polygon fill="white" stroke="#666666" points="1901.5,-140 1839.5,-140 1839.5,-121 1901.5,-121 1901.5,-140"/>
<text text-anchor="middle" x="1870.5" y="-128" font-family="Helvetica,sans-Serif" font-size="10.00">mtgb.cpp</text>
</a>
</g>
</g>
<!-- Node7&#45;&gt;Node46 -->
<g id="edge56" class="edge">
<title>Node7&#45;&gt;Node46</title>
<path fill="none" stroke="#63b8ff" d="M1512.37,-181C1576.46,-174.53 1714.79,-159.53 1830.5,-140 1833.3,-139.53 1836.2,-138.99 1839.1,-138.43"/>
<polygon fill="#63b8ff" stroke="#63b8ff" points="1511.97,-177.52 1502.37,-182 1512.67,-184.49 1511.97,-177.52"/>
</g>
<!-- Node8&#45;&gt;Node5 -->
<g id="edge9" class="edge">
<title>Node8&#45;&gt;Node5</title>
<path fill="none" stroke="#63b8ff" d="M2168.46,-121.61C2222.72,-110.63 2320.65,-90.81 2376.5,-79.5"/>
<polygon fill="#63b8ff" stroke="#63b8ff" points="2167.64,-118.21 2158.53,-123.62 2169.03,-125.07 2167.64,-118.21"/>
</g>
<!-- Node9 -->
<g id="node9" class="node">
<title>Node9</title>
<g id="a_node9"><a xlink:href="Box3D_8cpp.html" target="_top" xlink:title=" ">
<polygon fill="white" stroke="#666666" points="2147,-79.5 2078,-79.5 2078,-60.5 2147,-60.5 2147,-79.5"/>
<text text-anchor="middle" x="2112.5" y="-67.5" font-family="Helvetica,sans-Serif" font-size="10.00">Box3D.cpp</text>
</a>
</g>
</g>
<!-- Node8&#45;&gt;Node9 -->
<g id="edge8" class="edge">
<title>Node8&#45;&gt;Node9</title>
<path fill="none" stroke="#63b8ff" d="M2124.12,-110.99C2121.08,-100.51 2117.41,-87.89 2115.02,-79.67"/>
<polygon fill="#63b8ff" stroke="#63b8ff" points="2120.84,-112.24 2126.99,-120.87 2127.56,-110.29 2120.84,-112.24"/>
</g>
<!-- Node10 -->
<g id="node10" class="node">
<title>Node10</title>
<g id="a_node10"><a xlink:href="RegisterCommonGameObjectType_8cpp.html" target="_top" xlink:title=" ">
<polygon fill="white" stroke="#666666" points="2327.5,-85 2165.5,-85 2165.5,-55 2327.5,-55 2327.5,-85"/>
<text text-anchor="start" x="2173.5" y="-73" font-family="Helvetica,sans-Serif" font-size="10.00">RegisterCommonGameObject</text>
<text text-anchor="middle" x="2246.5" y="-62" font-family="Helvetica,sans-Serif" font-size="10.00">Type.cpp</text>
</a>
</g>
</g>
<!-- Node8&#45;&gt;Node10 -->
<g id="edge10" class="edge">
<title>Node8&#45;&gt;Node10</title>
<path fill="none" stroke="#63b8ff" d="M2155.58,-116.46C2174.15,-107.18 2199.08,-94.71 2218.14,-85.18"/>
<polygon fill="#63b8ff" stroke="#63b8ff" points="2153.89,-113.39 2146.51,-120.99 2157.02,-119.65 2153.89,-113.39"/>
</g>
<!-- Node12 -->
<g id="node12" class="node">
<title>Node12</title>
<g id="a_node12"><a xlink:href="Camera_8cpp.html" target="_top" xlink:title=" ">
<polygon fill="white" stroke="#666666" points="1915,-79.5 1840,-79.5 1840,-60.5 1915,-60.5 1915,-79.5"/>
<text text-anchor="middle" x="1877.5" y="-67.5" font-family="Helvetica,sans-Serif" font-size="10.00">Camera.cpp</text>
</a>
</g>
</g>
<!-- Node11&#45;&gt;Node12 -->
<g id="edge12" class="edge">
<title>Node11&#45;&gt;Node12</title>
<path fill="none" stroke="#63b8ff" d="M1964.09,-116.23C1942.64,-105.03 1912.57,-89.32 1894.09,-79.67"/>
<polygon fill="#63b8ff" stroke="#63b8ff" points="1962.49,-119.34 1972.97,-120.87 1965.73,-113.14 1962.49,-119.34"/>
</g>
<!-- Node13 -->
<g id="node13" class="node">
<title>Node13</title>
<g id="a_node13"><a xlink:href="Player_8cpp.html" target="_top" xlink:title=" ">
<polygon fill="white" stroke="#666666" points="1902,-19 1835,-19 1835,0 1902,0 1902,-19"/>
<text text-anchor="middle" x="1868.5" y="-7" font-family="Helvetica,sans-Serif" font-size="10.00">Player.cpp</text>
</a>
</g>
</g>
<!-- Node11&#45;&gt;Node13 -->
<g id="edge13" class="edge">
<title>Node11&#45;&gt;Node13</title>
<path fill="none" stroke="#63b8ff" d="M1975.95,-112.65C1963.09,-97.06 1942.92,-73.57 1923.5,-55 1909.47,-41.59 1891.81,-27.78 1880.34,-19.17"/>
<polygon fill="#63b8ff" stroke="#63b8ff" points="1973.57,-115.28 1982.6,-120.82 1979,-110.86 1973.57,-115.28"/>
</g>
<!-- Node11&#45;&gt;Node14 -->
<g id="edge14" class="edge">
<title>Node11&#45;&gt;Node14</title>
<path fill="none" stroke="#63b8ff" d="M1947.3,-118.78C1915.08,-110.34 1869.7,-97.87 1830.5,-85 1825.54,-83.37 1820.27,-81.48 1815.3,-79.62"/>
<polygon fill="#63b8ff" stroke="#63b8ff" points="1946.71,-122.25 1957.27,-121.38 1948.48,-115.47 1946.71,-122.25"/>
</g>
<!-- Node16 -->
<g id="node16" class="node">
<title>Node16</title>
<g id="a_node16"><a xlink:href="ResultScene_8cpp.html" target="_top" xlink:title=" ">
<polygon fill="white" stroke="#666666" points="1747,-79.5 1650,-79.5 1650,-60.5 1747,-60.5 1747,-79.5"/>
<text text-anchor="middle" x="1698.5" y="-67.5" font-family="Helvetica,sans-Serif" font-size="10.00">ResultScene.cpp</text>
</a>
</g>
</g>
<!-- Node11&#45;&gt;Node16 -->
<g id="edge17" class="edge">
<title>Node11&#45;&gt;Node16</title>
<path fill="none" stroke="#63b8ff" d="M1947.3,-122.07C1900.53,-113.69 1822.93,-99.35 1756.5,-85 1748.8,-83.34 1740.57,-81.43 1732.79,-79.57"/>
<polygon fill="#63b8ff" stroke="#63b8ff" points="1946.91,-125.56 1957.37,-123.87 1948.14,-118.67 1946.91,-125.56"/>
</g>
<!-- Node11&#45;&gt;Node17 -->
<g id="edge18" class="edge">
<title>Node11&#45;&gt;Node17</title>
<path fill="none" stroke="#63b8ff" d="M1997.43,-111.65C2002.15,-101.04 2007.92,-88.06 2011.65,-79.67"/>
<polygon fill="#63b8ff" stroke="#63b8ff" points="1994.2,-110.31 1993.34,-120.87 2000.6,-113.15 1994.2,-110.31"/>
</g>
<!-- Node14&#45;&gt;Node13 -->
<g id="edge15" class="edge">
<title>Node14&#45;&gt;Node13</title>
<path fill="none" stroke="#63b8ff" d="M1812.68,-54.04C1826.85,-42.99 1845.63,-28.34 1857.39,-19.17"/>
<polygon fill="#63b8ff" stroke="#63b8ff" points="1810.3,-51.46 1804.57,-60.37 1814.6,-56.98 1810.3,-51.46"/>
</g>
<!-- Node15 -->
<g id="node15" class="node">
<title>Node15</title>
<g id="a_node15"><a xlink:href="RegisterGameObjectType_8cpp.html" target="_top" xlink:title=" ">
<polygon fill="white" stroke="#666666" points="1004,-19 843,-19 843,0 1004,0 1004,-19"/>
<text text-anchor="middle" x="923.5" y="-7" font-family="Helvetica,sans-Serif" font-size="10.00">RegisterGameObjectType.cpp</text>
</a>
</g>
</g>
<!-- Node14&#45;&gt;Node15 -->
<g id="edge16" class="edge">
<title>Node14&#45;&gt;Node15</title>
<path fill="none" stroke="#63b8ff" d="M1764.14,-57.21C1761.25,-56.35 1758.34,-55.59 1755.5,-55 1613.56,-25.75 1184.1,-15.03 1004.17,-11.75"/>
<polygon fill="#63b8ff" stroke="#63b8ff" points="1763.12,-60.56 1773.71,-60.44 1765.36,-53.93 1763.12,-60.56"/>
</g>
<!-- Node18&#45;&gt;Node15 -->
<g id="edge21" class="edge">
<title>Node18&#45;&gt;Node15</title>
<path fill="none" stroke="#63b8ff" d="M614.1,-116.21C650.73,-97.33 716.44,-64.05 741.5,-55 786.47,-38.76 839.81,-26.5 877.07,-19"/>
<polygon fill="#63b8ff" stroke="#63b8ff" points="612.31,-113.2 605.03,-120.89 615.52,-119.41 612.31,-113.2"/>
</g>
<!-- Node19 -->
<g id="node19" class="node">
<title>Node19</title>
<g id="a_node19"><a xlink:href="GameOverZone_8cpp.html" target="_top" xlink:title=" ">
<polygon fill="white" stroke="#666666" points="665.5,-79.5 551.5,-79.5 551.5,-60.5 665.5,-60.5 665.5,-79.5"/>
<text text-anchor="middle" x="608.5" y="-67.5" font-family="Helvetica,sans-Serif" font-size="10.00">GameOverZone.cpp</text>
</a>
</g>
</g>
<!-- Node18&#45;&gt;Node19 -->
<g id="edge20" class="edge">
<title>Node18&#45;&gt;Node19</title>
<path fill="none" stroke="#63b8ff" d="M594.71,-111.32C598.32,-100.78 602.7,-87.98 605.54,-79.67"/>
<polygon fill="#63b8ff" stroke="#63b8ff" points="591.37,-110.27 591.45,-120.87 598,-112.54 591.37,-110.27"/>
</g>
<!-- Node20&#45;&gt;Node15 -->
<g id="edge24" class="edge">
<title>Node20&#45;&gt;Node15</title>
<path fill="none" stroke="#63b8ff" d="M1022.95,-114.13C1040.04,-98.72 1060.21,-74.54 1046.5,-55 1033.33,-36.22 1011.4,-25.34 989.68,-19.04"/>
<polygon fill="#63b8ff" stroke="#63b8ff" points="1020.31,-111.79 1014.97,-120.94 1024.85,-117.11 1020.31,-111.79"/>
</g>
<!-- Node21 -->
<g id="node21" class="node">
<title>Node21</title>
<g id="a_node21"><a xlink:href="Goal_8cpp.html" target="_top" xlink:title=" ">
<polygon fill="white" stroke="#666666" points="1167,-79.5 1108,-79.5 1108,-60.5 1167,-60.5 1167,-79.5"/>
<text text-anchor="middle" x="1137.5" y="-67.5" font-family="Helvetica,sans-Serif" font-size="10.00">Goal.cpp</text>
</a>
</g>
</g>
<!-- Node20&#45;&gt;Node21 -->
<g id="edge23" class="edge">
<title>Node20&#45;&gt;Node21</title>
<path fill="none" stroke="#63b8ff" d="M1032.29,-116.93C1058.16,-105.64 1095.45,-89.36 1117.99,-79.52"/>
<polygon fill="#63b8ff" stroke="#63b8ff" points="1030.75,-113.78 1022.98,-120.99 1033.55,-120.2 1030.75,-113.78"/>
</g>
<!-- Node23 -->
<g id="node23" class="node">
<title>Node23</title>
<g id="a_node23"><a xlink:href="HighlightEnemy_8cpp.html" target="_top" xlink:title=" ">
<polygon fill="white" stroke="#666666" points="113,-79.5 0,-79.5 0,-60.5 113,-60.5 113,-79.5"/>
<text text-anchor="middle" x="56.5" y="-67.5" font-family="Helvetica,sans-Serif" font-size="10.00">HighlightEnemy.cpp</text>
</a>
</g>
</g>
<!-- Node22&#45;&gt;Node23 -->
<g id="edge26" class="edge">
<title>Node22&#45;&gt;Node23</title>
<path fill="none" stroke="#63b8ff" d="M112.32,-114.54C98.15,-103.49 79.37,-88.84 67.61,-79.67"/>
<polygon fill="#63b8ff" stroke="#63b8ff" points="110.4,-117.48 120.43,-120.87 114.7,-111.96 110.4,-117.48"/>
</g>
<!-- Node25&#45;&gt;Node15 -->
<g id="edge32" class="edge">
<title>Node25&#45;&gt;Node15</title>
<path fill="none" stroke="#63b8ff" d="M264.13,-122.52C205.9,-112.87 125.35,-92.26 160.5,-55 183.65,-30.46 651.56,-16.83 842.96,-12.26"/>
<polygon fill="#63b8ff" stroke="#63b8ff" points="263.93,-126.03 274.35,-124.15 265.02,-119.12 263.93,-126.03"/>
</g>
<!-- Node26 -->
<g id="node26" class="node">
<title>Node26</title>
<g id="a_node26"><a xlink:href="MTImGui_8cpp.html" target="_top" xlink:title=" ">
<polygon fill="white" stroke="#666666" points="251,-79.5 170,-79.5 170,-60.5 251,-60.5 251,-79.5"/>
<text text-anchor="middle" x="210.5" y="-67.5" font-family="Helvetica,sans-Serif" font-size="10.00">MTImGui.cpp</text>
</a>
</g>
</g>
<!-- Node25&#45;&gt;Node26 -->
<g id="edge29" class="edge">
<title>Node25&#45;&gt;Node26</title>
<path fill="none" stroke="#63b8ff" d="M292.67,-115.92C272.22,-104.74 243.84,-89.23 226.35,-79.67"/>
<polygon fill="#63b8ff" stroke="#63b8ff" points="291.26,-119.14 301.71,-120.87 294.62,-113 291.26,-119.14"/>
</g>
<!-- Node27 -->
<g id="node27" class="node">
<title>Node27</title>
<g id="a_node27"><a xlink:href="MovingFloor_8cpp.html" target="_top" xlink:title=" ">
<polygon fill="white" stroke="#666666" points="366,-79.5 269,-79.5 269,-60.5 366,-60.5 366,-79.5"/>
<text text-anchor="middle" x="317.5" y="-67.5" font-family="Helvetica,sans-Serif" font-size="10.00">MovingFloor.cpp</text>
</a>
</g>
</g>
<!-- Node25&#45;&gt;Node27 -->
<g id="edge30" class="edge">
<title>Node25&#45;&gt;Node27</title>
<path fill="none" stroke="#63b8ff" d="M317.5,-110.66C317.5,-100.24 317.5,-87.8 317.5,-79.67"/>
<polygon fill="#63b8ff" stroke="#63b8ff" points="314,-110.87 317.5,-120.87 321,-110.87 314,-110.87"/>
</g>
<!-- Node28 -->
<g id="node28" class="node">
<title>Node28</title>
<g id="a_node28"><a xlink:href="MovingFloor_8generated_8cpp.html" target="_top" xlink:title=" ">
<polygon fill="white" stroke="#666666" points="533,-79.5 384,-79.5 384,-60.5 533,-60.5 533,-79.5"/>
<text text-anchor="middle" x="458.5" y="-67.5" font-family="Helvetica,sans-Serif" font-size="10.00">MovingFloor.generated.cpp</text>
</a>
</g>
</g>
<!-- Node25&#45;&gt;Node28 -->
<g id="edge31" class="edge">
<title>Node25&#45;&gt;Node28</title>
<path fill="none" stroke="#63b8ff" d="M347.43,-117.08C374.67,-105.78 414.15,-89.4 437.97,-79.52"/>
<polygon fill="#63b8ff" stroke="#63b8ff" points="345.9,-113.93 338,-120.99 348.58,-120.39 345.9,-113.93"/>
</g>
<!-- Node29&#45;&gt;Node15 -->
<g id="edge35" class="edge">
<title>Node29&#45;&gt;Node15</title>
<path fill="none" stroke="#63b8ff" d="M779.42,-115.51C768.34,-108.06 756.59,-97.77 750.5,-85 744.76,-72.97 742.33,-65.54 750.5,-55 763.8,-37.84 814.29,-26.14 857.32,-19.06"/>
<polygon fill="#63b8ff" stroke="#63b8ff" points="777.7,-118.57 788.04,-120.88 781.4,-112.62 777.7,-118.57"/>
</g>
<!-- Node30 -->
<g id="node30" class="node">
<title>Node30</title>
<g id="a_node30"><a xlink:href="PatrolChargerEnemy_8cpp.html" target="_top" xlink:title=" ">
<polygon fill="white" stroke="#666666" points="895,-79.5 760,-79.5 760,-60.5 895,-60.5 895,-79.5"/>
<text text-anchor="middle" x="827.5" y="-67.5" font-family="Helvetica,sans-Serif" font-size="10.00">PatrolChargerEnemy.cpp</text>
</a>
</g>
</g>
<!-- Node29&#45;&gt;Node30 -->
<g id="edge34" class="edge">
<title>Node29&#45;&gt;Node30</title>
<path fill="none" stroke="#63b8ff" d="M812.34,-111.32C816.3,-100.78 821.12,-87.98 824.24,-79.67"/>
<polygon fill="#63b8ff" stroke="#63b8ff" points="808.99,-110.28 808.75,-120.87 815.54,-112.74 808.99,-110.28"/>
</g>
<!-- Node32 -->
<g id="node32" class="node">
<title>Node32</title>
<g id="a_node32"><a xlink:href="SampleGame_8cpp.html" target="_top" xlink:title=" ">
<polygon fill="white" stroke="#666666" points="1507,-79.5 1404,-79.5 1404,-60.5 1507,-60.5 1507,-79.5"/>
<text text-anchor="middle" x="1455.5" y="-67.5" font-family="Helvetica,sans-Serif" font-size="10.00">SampleGame.cpp</text>
</a>
</g>
</g>
<!-- Node31&#45;&gt;Node32 -->
<g id="edge38" class="edge">
<title>Node31&#45;&gt;Node32</title>
<path fill="none" stroke="#63b8ff" d="M1378.97,-115.77C1398.06,-104.6 1424.41,-89.19 1440.68,-79.67"/>
<polygon fill="#63b8ff" stroke="#63b8ff" points="1377.12,-112.8 1370.26,-120.87 1380.65,-118.84 1377.12,-112.8"/>
</g>
<!-- Node31&#45;&gt;Node33 -->
<g id="edge39" class="edge">
<title>Node31&#45;&gt;Node33</title>
<path fill="none" stroke="#63b8ff" d="M1352.6,-110.66C1351,-100.24 1349.08,-87.8 1347.83,-79.67"/>
<polygon fill="#63b8ff" stroke="#63b8ff" points="1349.19,-111.52 1354.17,-120.87 1356.11,-110.45 1349.19,-111.52"/>
</g>
<!-- Node35&#45;&gt;Node15 -->
<g id="edge42" class="edge">
<title>Node35&#45;&gt;Node15</title>
<path fill="none" stroke="#63b8ff" d="M923.5,-110.86C923.5,-84.81 923.5,-38.56 923.5,-19.3"/>
<polygon fill="#63b8ff" stroke="#63b8ff" points="920,-110.94 923.5,-120.94 927,-110.94 920,-110.94"/>
</g>
<!-- Node36 -->
<g id="node36" class="node">
<title>Node36</title>
<g id="a_node36"><a xlink:href="ScoreItem_8cpp.html" target="_top" xlink:title=" ">
<polygon fill="white" stroke="#666666" points="1037.5,-79.5 951.5,-79.5 951.5,-60.5 1037.5,-60.5 1037.5,-79.5"/>
<text text-anchor="middle" x="994.5" y="-67.5" font-family="Helvetica,sans-Serif" font-size="10.00">ScoreItem.cpp</text>
</a>
</g>
</g>
<!-- Node35&#45;&gt;Node36 -->
<g id="edge43" class="edge">
<title>Node35&#45;&gt;Node36</title>
<path fill="none" stroke="#63b8ff" d="M942.04,-114.22C955.4,-103.21 972.95,-88.75 983.98,-79.67"/>
<polygon fill="#63b8ff" stroke="#63b8ff" points="939.47,-111.81 933.98,-120.87 943.92,-117.21 939.47,-111.81"/>
</g>
<!-- Node38 -->
<g id="node38" class="node">
<title>Node38</title>
<g id="a_node38"><a xlink:href="ScoreViewer_8cpp.html" target="_top" xlink:title=" ">
<polygon fill="white" stroke="#666666" points="1289,-79.5 1192,-79.5 1192,-60.5 1289,-60.5 1289,-79.5"/>
<text text-anchor="middle" x="1240.5" y="-67.5" font-family="Helvetica,sans-Serif" font-size="10.00">ScoreViewer.cpp</text>
</a>
</g>
</g>
<!-- Node37&#45;&gt;Node38 -->
<g id="edge45" class="edge">
<title>Node37&#45;&gt;Node38</title>
<path fill="none" stroke="#63b8ff" d="M1245.92,-110.66C1244.5,-100.24 1242.8,-87.8 1241.69,-79.67"/>
<polygon fill="#63b8ff" stroke="#63b8ff" points="1242.5,-111.43 1247.32,-120.87 1249.43,-110.49 1242.5,-111.43"/>
</g>
<!-- Node40&#45;&gt;Node16 -->
<g id="edge49" class="edge">
<title>Node40&#45;&gt;Node16</title>
<path fill="none" stroke="#63b8ff" d="M1621.97,-115.77C1641.06,-104.6 1667.41,-89.19 1683.68,-79.67"/>
<polygon fill="#63b8ff" stroke="#63b8ff" points="1620.12,-112.8 1613.26,-120.87 1623.65,-118.84 1620.12,-112.8"/>
</g>
<!-- Node40&#45;&gt;Node21 -->
<g id="edge48" class="edge">
<title>Node40&#45;&gt;Node21</title>
<path fill="none" stroke="#63b8ff" d="M1540.72,-120.98C1380.57,-101.8 1336.41,-116.32 1182.5,-85 1175.77,-83.63 1168.61,-81.65 1162.02,-79.61"/>
<polygon fill="#63b8ff" stroke="#63b8ff" points="1540.59,-124.49 1550.94,-122.23 1541.44,-117.54 1540.59,-124.49"/>
</g>
<!-- Node40&#45;&gt;Node32 -->
<g id="edge50" class="edge">
<title>Node40&#45;&gt;Node32</title>
<path fill="none" stroke="#63b8ff" d="M1568.14,-117.08C1540.52,-105.78 1500.48,-89.4 1476.32,-79.52"/>
<polygon fill="#63b8ff" stroke="#63b8ff" points="1567.13,-120.45 1577.71,-120.99 1569.78,-113.97 1567.13,-120.45"/>
</g>
<!-- Node41 -->
<g id="node41" class="node">
<title>Node41</title>
<g id="a_node41"><a xlink:href="StageManager_8cpp.html" target="_top" xlink:title=" ">
<polygon fill="white" stroke="#666666" points="1632,-79.5 1525,-79.5 1525,-60.5 1632,-60.5 1632,-79.5"/>
<text text-anchor="middle" x="1578.5" y="-67.5" font-family="Helvetica,sans-Serif" font-size="10.00">StageManager.cpp</text>
</a>
</g>
</g>
<!-- Node40&#45;&gt;Node41 -->
<g id="edge51" class="edge">
<title>Node40&#45;&gt;Node41</title>
<path fill="none" stroke="#63b8ff" d="M1592.29,-111.32C1588.68,-100.78 1584.3,-87.98 1581.46,-79.67"/>
<polygon fill="#63b8ff" stroke="#63b8ff" points="1589,-112.54 1595.55,-120.87 1595.63,-110.27 1589,-112.54"/>
</g>
<!-- Node47&#45;&gt;Node6 -->
<g id="edge58" class="edge">
<title>Node47&#45;&gt;Node6</title>
<path fill="none" stroke="#63b8ff" d="M1908.59,-233.86C1912.92,-232.8 1917.29,-231.81 1921.5,-231 2043.63,-207.4 2189.93,-194.8 2263.44,-189.53"/>
<polygon fill="#63b8ff" stroke="#63b8ff" points="1907.44,-230.54 1898.64,-236.44 1909.2,-237.32 1907.44,-230.54"/>
</g>
<!-- Node47&#45;&gt;Node7 -->
<g id="edge59" class="edge">
<title>Node47&#45;&gt;Node7</title>
<path fill="none" stroke="#63b8ff" d="M1818.72,-237.31C1733.35,-224.64 1566.17,-199.81 1502.22,-190.32"/>
<polygon fill="#63b8ff" stroke="#63b8ff" points="1818.3,-240.79 1828.71,-238.79 1819.33,-233.86 1818.3,-240.79"/>
</g>
<!-- Node48&#45;&gt;Node5 -->
<g id="edge61" class="edge">
<title>Node48&#45;&gt;Node5</title>
<path fill="none" stroke="#63b8ff" d="M2053.75,-226.94C2140.47,-189.86 2335.74,-106.38 2398.6,-79.51"/>
<polygon fill="#63b8ff" stroke="#63b8ff" points="2052.28,-223.76 2044.46,-230.91 2055.03,-230.2 2052.28,-223.76"/>
</g>
<!-- Node48&#45;&gt;Node6 -->
<g id="edge62" class="edge">
<title>Node48&#45;&gt;Node6</title>
<path fill="none" stroke="#63b8ff" d="M2093.03,-229.05C2149.07,-218.08 2221.31,-203.95 2266.78,-195.05"/>
<polygon fill="#63b8ff" stroke="#63b8ff" points="2092.26,-225.63 2083.12,-230.99 2093.6,-232.5 2092.26,-225.63"/>
</g>
<!-- Node48&#45;&gt;Node10 -->
<g id="edge63" class="edge">
<title>Node48&#45;&gt;Node10</title>
<path fill="none" stroke="#63b8ff" d="M2042.86,-225.54C2074.94,-205.25 2125.85,-172 2167.5,-140 2190.75,-122.14 2216,-99.45 2231.54,-85.07"/>
<polygon fill="#63b8ff" stroke="#63b8ff" points="2040.93,-222.61 2034.33,-230.9 2044.66,-228.54 2040.93,-222.61"/>
</g>
<!-- Node49&#45;&gt;Node5 -->
<g id="edge65" class="edge">
<title>Node49&#45;&gt;Node5</title>
<path fill="none" stroke="#63b8ff" d="M2480.18,-226.54C2465.42,-189.33 2432.6,-106.57 2421.93,-79.64"/>
<polygon fill="#63b8ff" stroke="#63b8ff" points="2477.04,-228.13 2483.98,-236.13 2483.55,-225.55 2477.04,-228.13"/>
</g>
<!-- Node49&#45;&gt;Node6 -->
<g id="edge66" class="edge">
<title>Node49&#45;&gt;Node6</title>
<path fill="none" stroke="#63b8ff" d="M2452.15,-233.32C2417.92,-222 2366.83,-205.12 2336.27,-195.02"/>
<polygon fill="#63b8ff" stroke="#63b8ff" points="2451.17,-236.68 2461.76,-236.49 2453.37,-230.03 2451.17,-236.68"/>
</g>
<!-- Node49&#45;&gt;Node15 -->
<g id="edge67" class="edge">
<title>Node49&#45;&gt;Node15</title>
<path fill="none" stroke="#63b8ff" d="M2496.37,-227.07C2513.59,-189.43 2546,-101.81 2500.5,-55 2474.17,-27.92 1321.94,-14.46 1004.01,-11.26"/>
<polygon fill="#63b8ff" stroke="#63b8ff" points="2493.13,-225.75 2492,-236.28 2499.45,-228.75 2493.13,-225.75"/>
</g>
<!-- Node52&#45;&gt;Node2 -->
<g id="edge71" class="edge">
<title>Node52&#45;&gt;Node2</title>
<path fill="none" stroke="#63b8ff" d="M2251.47,-347.23C2233.13,-337.51 2208.76,-324.6 2192.86,-316.17"/>
<polygon fill="#63b8ff" stroke="#63b8ff" points="2249.96,-350.39 2260.43,-351.98 2253.24,-344.21 2249.96,-350.39"/>
</g>
<!-- Node52&#45;&gt;Node49 -->
<g id="edge72" class="edge">
<title>Node52&#45;&gt;Node49</title>
<path fill="none" stroke="#63b8ff" d="M2301.2,-347.21C2344.94,-323.68 2434.85,-275.32 2471.46,-255.63"/>
<polygon fill="#63b8ff" stroke="#63b8ff" points="2299.51,-344.15 2292.36,-351.97 2302.82,-350.31 2299.51,-344.15"/>
</g>
</g>
</svg>
