<?xml version="1.0" encoding="UTF-8" standalone="no"?>
<!DOCTYPE svg PUBLIC "-//W3C//DTD SVG 1.1//EN"
 "http://www.w3.org/Graphics/SVG/1.1/DTD/svg11.dtd">
<!-- Generated by graphviz version 2.43.0 (0)
 -->
<!-- Title: GameObjectBuilder.h Pages: 1 -->
<svg width="3012pt" height="423pt"
 viewBox="0.00 0.00 3011.50 423.00" xmlns="http://www.w3.org/2000/svg" xmlns:xlink="http://www.w3.org/1999/xlink">
<g id="graph0" class="graph" transform="scale(1 1) rotate(0) translate(4 419)">
<title>GameObjectBuilder.h</title>
<!-- Node1 -->
<g id="node1" class="node">
<title>Node1</title>
<g id="a_node1"><a xlink:title=" ">
<polygon fill="#999999" stroke="#666666" points="1659.5,-415 1539.5,-415 1539.5,-396 1659.5,-396 1659.5,-415"/>
<text text-anchor="middle" x="1599.5" y="-403" font-family="Helvetica,sans-Serif" font-size="10.00">GameObjectBuilder.h</text>
</a>
</g>
</g>
<!-- Node2 -->
<g id="node2" class="node">
<title>Node2</title>
<g id="a_node2"><a xlink:href="GameObject_8h.html" target="_top" xlink:title=" ">
<polygon fill="white" stroke="#666666" points="2240.5,-360 2154.5,-360 2154.5,-341 2240.5,-341 2240.5,-360"/>
<text text-anchor="middle" x="2197.5" y="-348" font-family="Helvetica,sans-Serif" font-size="10.00">GameObject.h</text>
</a>
</g>
</g>
<!-- Node1&#45;&gt;Node2 -->
<g id="edge1" class="edge">
<title>Node1&#45;&gt;Node2</title>
<path fill="none" stroke="#63b8ff" d="M1669.79,-398.27C1794.7,-387.2 2051.81,-364.41 2154.12,-355.34"/>
<polygon fill="#63b8ff" stroke="#63b8ff" points="1669.23,-394.81 1659.58,-399.18 1669.85,-401.78 1669.23,-394.81"/>
</g>
<!-- Node16 -->
<g id="node15" class="node">
<title>Node16</title>
<g id="a_node15"><a xlink:href="mtgb_8h.html" target="_top" xlink:title=" ">
<polygon fill="white" stroke="#666666" points="1123,-134.5 1072,-134.5 1072,-115.5 1123,-115.5 1123,-134.5"/>
<text text-anchor="middle" x="1097.5" y="-122.5" font-family="Helvetica,sans-Serif" font-size="10.00">mtgb.h</text>
</a>
</g>
</g>
<!-- Node1&#45;&gt;Node16 -->
<g id="edge69" class="edge">
<title>Node1&#45;&gt;Node16</title>
<path fill="none" stroke="#63b8ff" d="M1528.81,-402.77C1397.8,-397.63 1130.5,-377.24 1130.5,-296.5 1130.5,-296.5 1130.5,-296.5 1130.5,-239.5 1130.5,-198.87 1110.76,-153.19 1101.81,-134.58"/>
<polygon fill="#63b8ff" stroke="#63b8ff" points="1529.02,-406.28 1539.15,-403.15 1529.28,-399.28 1529.02,-406.28"/>
</g>
<!-- Node3 -->
<g id="node3" class="node">
<title>Node3</title>
<g id="a_node3"><a xlink:href="CameraResource_8cpp.html" target="_top" xlink:title=" ">
<polygon fill="white" stroke="#666666" points="3003.5,-305 2883.5,-305 2883.5,-286 3003.5,-286 3003.5,-305"/>
<text text-anchor="middle" x="2943.5" y="-293" font-family="Helvetica,sans-Serif" font-size="10.00">CameraResource.cpp</text>
</a>
</g>
</g>
<!-- Node2&#45;&gt;Node3 -->
<g id="edge2" class="edge">
<title>Node2&#45;&gt;Node3</title>
<path fill="none" stroke="#63b8ff" d="M2250.98,-347.02C2365.48,-341.49 2642.8,-326.87 2874.5,-305 2877.38,-304.73 2880.33,-304.43 2883.31,-304.12"/>
<polygon fill="#63b8ff" stroke="#63b8ff" points="2250.55,-343.54 2240.73,-347.51 2250.89,-350.53 2250.55,-343.54"/>
</g>
<!-- Node4 -->
<g id="node4" class="node">
<title>Node4</title>
<g id="a_node4"><a xlink:href="CircleDetector_8cpp.html" target="_top" xlink:title=" ">
<polygon fill="white" stroke="#666666" points="1400.5,-305 1294.5,-305 1294.5,-286 1400.5,-286 1400.5,-305"/>
<text text-anchor="middle" x="1347.5" y="-293" font-family="Helvetica,sans-Serif" font-size="10.00">CircleDetector.cpp</text>
</a>
</g>
</g>
<!-- Node2&#45;&gt;Node4 -->
<g id="edge3" class="edge">
<title>Node2&#45;&gt;Node4</title>
<path fill="none" stroke="#63b8ff" d="M2144.01,-347.95C2016.58,-343.95 1685.1,-331.63 1409.5,-305 1406.58,-304.72 1403.59,-304.4 1400.57,-304.06"/>
<polygon fill="#63b8ff" stroke="#63b8ff" points="2144.17,-351.46 2154.27,-348.27 2144.38,-344.46 2144.17,-351.46"/>
</g>
<!-- Node5 -->
<g id="node5" class="node">
<title>Node5</title>
<g id="a_node5"><a xlink:href="ColliderCP_8cpp.html" target="_top" xlink:title=" ">
<polygon fill="white" stroke="#666666" points="1504.5,-305 1418.5,-305 1418.5,-286 1504.5,-286 1504.5,-305"/>
<text text-anchor="middle" x="1461.5" y="-293" font-family="Helvetica,sans-Serif" font-size="10.00">ColliderCP.cpp</text>
</a>
</g>
</g>
<!-- Node2&#45;&gt;Node5 -->
<g id="edge4" class="edge">
<title>Node2&#45;&gt;Node5</title>
<path fill="none" stroke="#63b8ff" d="M2143.82,-347.78C2028.25,-343.69 1747.4,-331.66 1513.5,-305 1510.59,-304.67 1507.6,-304.29 1504.59,-303.87"/>
<polygon fill="#63b8ff" stroke="#63b8ff" points="2144.04,-351.29 2154.16,-348.14 2144.28,-344.29 2144.04,-351.29"/>
</g>
<!-- Node6 -->
<g id="node6" class="node">
<title>Node6</title>
<g id="a_node6"><a xlink:href="DuplicateGameObjectCommand_8h.html" target="_top" xlink:title=" ">
<polygon fill="white" stroke="#666666" points="1893,-305 1710,-305 1710,-286 1893,-286 1893,-305"/>
<text text-anchor="middle" x="1801.5" y="-293" font-family="Helvetica,sans-Serif" font-size="10.00">DuplicateGameObjectCommand.h</text>
</a>
</g>
</g>
<!-- Node2&#45;&gt;Node6 -->
<g id="edge5" class="edge">
<title>Node2&#45;&gt;Node6</title>
<path fill="none" stroke="#63b8ff" d="M2144.11,-342.35C2071.67,-332.66 1942.46,-315.37 1865.1,-305.01"/>
<polygon fill="#63b8ff" stroke="#63b8ff" points="2143.99,-345.87 2154.37,-343.73 2144.92,-338.93 2143.99,-345.87"/>
</g>
<!-- Node8 -->
<g id="node8" class="node">
<title>Node8</title>
<g id="a_node8"><a xlink:href="GameObjectGenerator_8cpp.html" target="_top" xlink:title=" ">
<polygon fill="white" stroke="#666666" points="2071.5,-19 1925.5,-19 1925.5,0 2071.5,0 2071.5,-19"/>
<text text-anchor="middle" x="1998.5" y="-7" font-family="Helvetica,sans-Serif" font-size="10.00">GameObjectGenerator.cpp</text>
</a>
</g>
</g>
<!-- Node2&#45;&gt;Node8 -->
<g id="edge47" class="edge">
<title>Node2&#45;&gt;Node8</title>
<path fill="none" stroke="#63b8ff" d="M2250.63,-338.94C2286.63,-331.14 2335.02,-319.4 2376.5,-305 2395.85,-298.28 2398.66,-291.09 2418.5,-286 2518.46,-260.35 2801.18,-314.8 2881.5,-250 2904.43,-231.5 2900.5,-215.96 2900.5,-186.5 2900.5,-186.5 2900.5,-186.5 2900.5,-124 2900.5,-40.64 2286.29,-17.57 2071.55,-12.05"/>
<polygon fill="#63b8ff" stroke="#63b8ff" points="2249.86,-335.52 2240.81,-341.03 2251.32,-342.37 2249.86,-335.52"/>
</g>
<!-- Node9 -->
<g id="node9" class="node">
<title>Node9</title>
<g id="a_node9"><a xlink:href="GameObject_8cpp.html" target="_top" xlink:title=" ">
<polygon fill="white" stroke="#666666" points="2525.5,-305 2427.5,-305 2427.5,-286 2525.5,-286 2525.5,-305"/>
<text text-anchor="middle" x="2476.5" y="-293" font-family="Helvetica,sans-Serif" font-size="10.00">GameObject.cpp</text>
</a>
</g>
</g>
<!-- Node2&#45;&gt;Node9 -->
<g id="edge8" class="edge">
<title>Node2&#45;&gt;Node9</title>
<path fill="none" stroke="#63b8ff" d="M2250.91,-339.35C2303.36,-329.39 2382.47,-314.36 2431.72,-305.01"/>
<polygon fill="#63b8ff" stroke="#63b8ff" points="2249.96,-335.97 2240.79,-341.28 2251.27,-342.85 2249.96,-335.97"/>
</g>
<!-- Node10 -->
<g id="node10" class="node">
<title>Node10</title>
<g id="a_node10"><a xlink:href="GameObjectCreateCommand_8h.html" target="_top" xlink:title=" ">
<polygon fill="white" stroke="#666666" points="1692,-305 1523,-305 1523,-286 1692,-286 1692,-305"/>
<text text-anchor="middle" x="1607.5" y="-293" font-family="Helvetica,sans-Serif" font-size="10.00">GameObjectCreateCommand.h</text>
</a>
</g>
</g>
<!-- Node2&#45;&gt;Node10 -->
<g id="edge9" class="edge">
<title>Node2&#45;&gt;Node10</title>
<path fill="none" stroke="#63b8ff" d="M2144.22,-344.76C2053.24,-336.66 1862.08,-319.62 1700.5,-305 1697.75,-304.75 1694.96,-304.5 1692.15,-304.24"/>
<polygon fill="#63b8ff" stroke="#63b8ff" points="2144.02,-348.26 2154.29,-345.66 2144.64,-341.29 2144.02,-348.26"/>
</g>
<!-- Node12 -->
<g id="node12" class="node">
<title>Node12</title>
<g id="a_node12"><a xlink:href="GameObjectFactory_8h.html" target="_top" xlink:title=" ">
<polygon fill="white" stroke="#666666" points="1949.5,-250 1829.5,-250 1829.5,-231 1949.5,-231 1949.5,-250"/>
<text text-anchor="middle" x="1889.5" y="-238" font-family="Helvetica,sans-Serif" font-size="10.00">GameObjectFactory.h</text>
</a>
</g>
</g>
<!-- Node2&#45;&gt;Node12 -->
<g id="edge12" class="edge">
<title>Node2&#45;&gt;Node12</title>
<path fill="none" stroke="#63b8ff" d="M2144.34,-344.75C2079.45,-338.19 1974.19,-324.87 1940.5,-305 1917.85,-291.64 1901.19,-264.17 1893.77,-250.15"/>
<polygon fill="#63b8ff" stroke="#63b8ff" points="2144.09,-348.24 2154.39,-345.74 2144.78,-341.27 2144.09,-348.24"/>
</g>
<!-- Node2&#45;&gt;Node16 -->
<g id="edge68" class="edge">
<title>Node2&#45;&gt;Node16</title>
<path fill="none" stroke="#63b8ff" d="M2144.19,-349.06C1961.01,-347.24 1364.29,-338.76 1285.5,-305 1262.61,-295.19 1139.13,-168.92 1105.8,-134.57"/>
<polygon fill="#63b8ff" stroke="#63b8ff" points="2144.35,-352.56 2154.38,-349.16 2144.42,-345.56 2144.35,-352.56"/>
</g>
<!-- Node59 -->
<g id="node39" class="node">
<title>Node59</title>
<g id="a_node39"><a xlink:href="GameScene_8cpp.html" target="_top" xlink:title=" ">
<polygon fill="white" stroke="#666666" points="2639,-305 2544,-305 2544,-286 2639,-286 2639,-305"/>
<text text-anchor="middle" x="2591.5" y="-293" font-family="Helvetica,sans-Serif" font-size="10.00">GameScene.cpp</text>
</a>
</g>
</g>
<!-- Node2&#45;&gt;Node59 -->
<g id="edge48" class="edge">
<title>Node2&#45;&gt;Node59</title>
<path fill="none" stroke="#63b8ff" d="M2250.85,-342.74C2317.32,-334.24 2434.37,-319.08 2534.5,-305 2537.57,-304.57 2540.73,-304.12 2543.92,-303.66"/>
<polygon fill="#63b8ff" stroke="#63b8ff" points="2250.1,-339.3 2240.62,-344.04 2250.98,-346.25 2250.1,-339.3"/>
</g>
<!-- Node60 -->
<g id="node40" class="node">
<title>Node60</title>
<g id="a_node40"><a xlink:href="IGameObjectRegistrar_8h.html" target="_top" xlink:title=" ">
<polygon fill="white" stroke="#666666" points="2083,-305 1950,-305 1950,-286 2083,-286 2083,-305"/>
<text text-anchor="middle" x="2016.5" y="-293" font-family="Helvetica,sans-Serif" font-size="10.00">IGameObjectRegistrar.h</text>
</a>
</g>
</g>
<!-- Node2&#45;&gt;Node60 -->
<g id="edge49" class="edge">
<title>Node2&#45;&gt;Node60</title>
<path fill="none" stroke="#63b8ff" d="M2158.42,-338.06C2124.59,-328.15 2076.42,-314.04 2045.81,-305.08"/>
<polygon fill="#63b8ff" stroke="#63b8ff" points="2157.84,-341.53 2168.42,-340.98 2159.81,-334.82 2157.84,-341.53"/>
</g>
<!-- Node61 -->
<g id="node41" class="node">
<title>Node61</title>
<g id="a_node41"><a xlink:href="ImGuiEditorCamera_8cpp.html" target="_top" xlink:title=" ">
<polygon fill="white" stroke="#666666" points="2139,-250 2006,-250 2006,-231 2139,-231 2139,-250"/>
<text text-anchor="middle" x="2072.5" y="-238" font-family="Helvetica,sans-Serif" font-size="10.00">ImGuiEditorCamera.cpp</text>
</a>
</g>
</g>
<!-- Node2&#45;&gt;Node61 -->
<g id="edge52" class="edge">
<title>Node2&#45;&gt;Node61</title>
<path fill="none" stroke="#63b8ff" d="M2179.45,-333.91C2152.75,-310.83 2103.59,-268.37 2082.52,-250.16"/>
<polygon fill="#63b8ff" stroke="#63b8ff" points="2177.42,-336.77 2187.27,-340.66 2181.99,-331.48 2177.42,-336.77"/>
</g>
<!-- Node62 -->
<g id="node42" class="node">
<title>Node62</title>
<g id="a_node42"><a xlink:href="ImGuizmoManipulator_8cpp.html" target="_top" xlink:title=" ">
<polygon fill="white" stroke="#666666" points="2302,-250 2157,-250 2157,-231 2302,-231 2302,-250"/>
<text text-anchor="middle" x="2229.5" y="-238" font-family="Helvetica,sans-Serif" font-size="10.00">ImGuizmoManipulator.cpp</text>
</a>
</g>
</g>
<!-- Node2&#45;&gt;Node62 -->
<g id="edge53" class="edge">
<title>Node2&#45;&gt;Node62</title>
<path fill="none" stroke="#63b8ff" d="M2203.04,-330.8C2210.03,-307.2 2221.77,-267.58 2226.93,-250.16"/>
<polygon fill="#63b8ff" stroke="#63b8ff" points="2199.6,-330.08 2200.12,-340.66 2206.32,-332.07 2199.6,-330.08"/>
</g>
<!-- Node63 -->
<g id="node43" class="node">
<title>Node63</title>
<g id="a_node43"><a xlink:href="Interpolator_8cpp.html" target="_top" xlink:title=" ">
<polygon fill="white" stroke="#666666" points="2750,-305 2657,-305 2657,-286 2750,-286 2750,-305"/>
<text text-anchor="middle" x="2703.5" y="-293" font-family="Helvetica,sans-Serif" font-size="10.00">Interpolator.cpp</text>
</a>
</g>
</g>
<!-- Node2&#45;&gt;Node63 -->
<g id="edge54" class="edge">
<title>Node2&#45;&gt;Node63</title>
<path fill="none" stroke="#63b8ff" d="M2250.94,-345.18C2335.48,-338.14 2505.19,-323.13 2648.5,-305 2651.18,-304.66 2653.94,-304.29 2656.72,-303.91"/>
<polygon fill="#63b8ff" stroke="#63b8ff" points="2250.49,-341.71 2240.81,-346.02 2251.07,-348.69 2250.49,-341.71"/>
</g>
<!-- Node64 -->
<g id="node44" class="node">
<title>Node64</title>
<g id="a_node44"><a xlink:href="MTImGui_8h.html" target="_top" xlink:title=" ">
<polygon fill="#fff0f0" stroke="red" points="2295.5,-305 2225.5,-305 2225.5,-286 2295.5,-286 2295.5,-305"/>
<text text-anchor="middle" x="2260.5" y="-293" font-family="Helvetica,sans-Serif" font-size="10.00">MTImGui.h</text>
</a>
</g>
</g>
<!-- Node2&#45;&gt;Node64 -->
<g id="edge55" class="edge">
<title>Node2&#45;&gt;Node64</title>
<path fill="none" stroke="#63b8ff" d="M2215.54,-334.32C2226.77,-324.87 2240.82,-313.06 2250.19,-305.17"/>
<polygon fill="#63b8ff" stroke="#63b8ff" points="2213.02,-331.87 2207.62,-340.98 2217.53,-337.23 2213.02,-331.87"/>
</g>
<!-- Node78 -->
<g id="node48" class="node">
<title>Node78</title>
<g id="a_node48"><a xlink:href="RenderSystem_8cpp.html" target="_top" xlink:title=" ">
<polygon fill="white" stroke="#666666" points="2750.5,-250 2642.5,-250 2642.5,-231 2750.5,-231 2750.5,-250"/>
<text text-anchor="middle" x="2696.5" y="-238" font-family="Helvetica,sans-Serif" font-size="10.00">RenderSystem.cpp</text>
</a>
</g>
</g>
<!-- Node2&#45;&gt;Node78 -->
<g id="edge66" class="edge">
<title>Node2&#45;&gt;Node78</title>
<path fill="none" stroke="#63b8ff" d="M2227.73,-337.13C2249.2,-328.3 2278.68,-316.07 2304.5,-305 2323.7,-296.77 2327.37,-291.59 2347.5,-286 2470.95,-251.75 2506.46,-266.57 2633.5,-250 2636.35,-249.63 2639.26,-249.25 2642.21,-248.86"/>
<polygon fill="#63b8ff" stroke="#63b8ff" points="2226.39,-333.9 2218.47,-340.94 2229.05,-340.38 2226.39,-333.9"/>
</g>
<!-- Node111 -->
<g id="node49" class="node">
<title>Node111</title>
<g id="a_node49"><a xlink:href="SceneSystem_8cpp.html" target="_top" xlink:title=" ">
<polygon fill="white" stroke="#666666" points="2872,-250 2769,-250 2769,-231 2872,-231 2872,-250"/>
<text text-anchor="middle" x="2820.5" y="-238" font-family="Helvetica,sans-Serif" font-size="10.00">SceneSystem.cpp</text>
</a>
</g>
</g>
<!-- Node2&#45;&gt;Node111 -->
<g id="edge67" class="edge">
<title>Node2&#45;&gt;Node111</title>
<path fill="none" stroke="#63b8ff" d="M2237.06,-338.12C2265.72,-329.63 2305.28,-317.4 2339.5,-305 2360.3,-297.46 2364.03,-291.34 2385.5,-286 2547.55,-245.68 2593.66,-269.53 2759.5,-250 2762.58,-249.64 2765.74,-249.25 2768.94,-248.84"/>
<polygon fill="#63b8ff" stroke="#63b8ff" points="2236,-334.78 2227.4,-340.96 2237.98,-341.5 2236,-334.78"/>
</g>
<!-- Node123 -->
<g id="node50" class="node">
<title>Node123</title>
<g id="a_node50"><a xlink:href="RayDetector_8cpp.html" target="_top" xlink:title=" ">
<polygon fill="white" stroke="#666666" points="2865,-305 2768,-305 2768,-286 2865,-286 2865,-305"/>
<text text-anchor="middle" x="2816.5" y="-293" font-family="Helvetica,sans-Serif" font-size="10.00">RayDetector.cpp</text>
</a>
</g>
</g>
<!-- Node2&#45;&gt;Node123 -->
<g id="edge65" class="edge">
<title>Node2&#45;&gt;Node123</title>
<path fill="none" stroke="#63b8ff" d="M2250.75,-346.51C2350.68,-340.63 2573.07,-326.26 2759.5,-305 2762.18,-304.69 2764.94,-304.36 2767.71,-304"/>
<polygon fill="#63b8ff" stroke="#63b8ff" points="2250.39,-343.03 2240.61,-347.1 2250.79,-350.02 2250.39,-343.03"/>
</g>
<!-- Node7 -->
<g id="node7" class="node">
<title>Node7</title>
<g id="a_node7"><a xlink:href="DuplicateGameObjectCommand_8cpp.html" target="_top" xlink:title=" ">
<polygon fill="white" stroke="#666666" points="1735.5,-250 1541.5,-250 1541.5,-231 1735.5,-231 1735.5,-250"/>
<text text-anchor="middle" x="1638.5" y="-238" font-family="Helvetica,sans-Serif" font-size="10.00">DuplicateGameObjectCommand.cpp</text>
</a>
</g>
</g>
<!-- Node6&#45;&gt;Node7 -->
<g id="edge6" class="edge">
<title>Node6&#45;&gt;Node7</title>
<path fill="none" stroke="#63b8ff" d="M1765.51,-282.8C1735.09,-272.91 1692.22,-258.97 1664.89,-250.08"/>
<polygon fill="#63b8ff" stroke="#63b8ff" points="1764.72,-286.22 1775.31,-285.98 1766.88,-279.56 1764.72,-286.22"/>
</g>
<!-- Node6&#45;&gt;Node8 -->
<g id="edge7" class="edge">
<title>Node6&#45;&gt;Node8</title>
<path fill="none" stroke="#63b8ff" d="M1800.84,-275.82C1800.77,-251.42 1803.39,-208.05 1820.5,-176 1860.84,-100.44 1949.13,-40.65 1983.96,-19.13"/>
<polygon fill="#63b8ff" stroke="#63b8ff" points="1797.35,-275.93 1801.03,-285.86 1804.34,-275.8 1797.35,-275.93"/>
</g>
<!-- Node10&#45;&gt;Node8 -->
<g id="edge11" class="edge">
<title>Node10&#45;&gt;Node8</title>
<path fill="none" stroke="#63b8ff" d="M1572.8,-282.09C1547.11,-270.83 1518.76,-252.7 1532.5,-231 1559.04,-189.08 1889.25,-54.34 1977.13,-19.03"/>
<polygon fill="#63b8ff" stroke="#63b8ff" points="1571.48,-285.34 1582.06,-285.92 1574.15,-278.87 1571.48,-285.34"/>
</g>
<!-- Node11 -->
<g id="node11" class="node">
<title>Node11</title>
<g id="a_node11"><a xlink:href="GameObjectCreateCommand_8cpp.html" target="_top" xlink:title=" ">
<polygon fill="white" stroke="#666666" points="1485.5,-250 1305.5,-250 1305.5,-231 1485.5,-231 1485.5,-250"/>
<text text-anchor="middle" x="1395.5" y="-238" font-family="Helvetica,sans-Serif" font-size="10.00">GameObjectCreateCommand.cpp</text>
</a>
</g>
</g>
<!-- Node10&#45;&gt;Node11 -->
<g id="edge10" class="edge">
<title>Node10&#45;&gt;Node11</title>
<path fill="none" stroke="#63b8ff" d="M1563.5,-283.5C1523.81,-273.58 1466.22,-259.18 1429.83,-250.08"/>
<polygon fill="#63b8ff" stroke="#63b8ff" points="1562.89,-286.95 1573.44,-285.98 1564.59,-280.16 1562.89,-286.95"/>
</g>
<!-- Node13 -->
<g id="node13" class="node">
<title>Node13</title>
<g id="a_node13"><a xlink:href="GameObjectFactory_8cpp.html" target="_top" xlink:title=" ">
<polygon fill="white" stroke="#666666" points="2215,-195 2084,-195 2084,-176 2215,-176 2215,-195"/>
<text text-anchor="middle" x="2149.5" y="-183" font-family="Helvetica,sans-Serif" font-size="10.00">GameObjectFactory.cpp</text>
</a>
</g>
</g>
<!-- Node12&#45;&gt;Node13 -->
<g id="edge13" class="edge">
<title>Node12&#45;&gt;Node13</title>
<path fill="none" stroke="#63b8ff" d="M1941.3,-228.94C1990.04,-219.01 2062.11,-204.31 2107.4,-195.08"/>
<polygon fill="#63b8ff" stroke="#63b8ff" points="1940.37,-225.56 1931.27,-230.98 1941.77,-232.42 1940.37,-225.56"/>
</g>
<!-- Node14 -->
<g id="node14" class="node">
<title>Node14</title>
<g id="a_node14"><a xlink:href="GameObjectGenerator_8h.html" target="_top" xlink:title=" ">
<polygon fill="#fff0f0" stroke="red" points="2065.5,-195 1931.5,-195 1931.5,-176 2065.5,-176 2065.5,-195"/>
<text text-anchor="middle" x="1998.5" y="-183" font-family="Helvetica,sans-Serif" font-size="10.00">GameObjectGenerator.h</text>
</a>
</g>
</g>
<!-- Node12&#45;&gt;Node14 -->
<g id="edge14" class="edge">
<title>Node12&#45;&gt;Node14</title>
<path fill="none" stroke="#63b8ff" d="M1916.23,-226.5C1936.29,-216.75 1963.18,-203.68 1980.67,-195.17"/>
<polygon fill="#63b8ff" stroke="#63b8ff" points="1914.48,-223.46 1907.01,-230.98 1917.54,-229.76 1914.48,-223.46"/>
</g>
<!-- Node56 -->
<g id="node36" class="node">
<title>Node56</title>
<g id="a_node36"><a xlink:href="ImGuiEditor_8h.html" target="_top" xlink:title=" ">
<polygon fill="#fff0f0" stroke="red" points="1913,-195 1830,-195 1830,-176 1913,-176 1913,-195"/>
<text text-anchor="middle" x="1871.5" y="-183" font-family="Helvetica,sans-Serif" font-size="10.00">ImGuiEditor.h</text>
</a>
</g>
</g>
<!-- Node12&#45;&gt;Node56 -->
<g id="edge41" class="edge">
<title>Node12&#45;&gt;Node56</title>
<path fill="none" stroke="#63b8ff" d="M1883.3,-221.24C1880.29,-212.37 1876.81,-202.14 1874.42,-195.09"/>
<polygon fill="#63b8ff" stroke="#63b8ff" points="1880,-222.4 1886.53,-230.75 1886.63,-220.15 1880,-222.4"/>
</g>
<!-- Node57 -->
<g id="node37" class="node">
<title>Node57</title>
<g id="a_node37"><a xlink:href="RegisterCommonGameObjectType_8h.html" target="_top" xlink:title=" ">
<polygon fill="#fff0f0" stroke="red" points="2252.5,-140 2090.5,-140 2090.5,-110 2252.5,-110 2252.5,-140"/>
<text text-anchor="start" x="2098.5" y="-128" font-family="Helvetica,sans-Serif" font-size="10.00">RegisterCommonGameObject</text>
<text text-anchor="middle" x="2171.5" y="-117" font-family="Helvetica,sans-Serif" font-size="10.00">Type.h</text>
</a>
</g>
</g>
<!-- Node12&#45;&gt;Node57 -->
<g id="edge43" class="edge">
<title>Node12&#45;&gt;Node57</title>
<path fill="none" stroke="#63b8ff" d="M1959.76,-231.3C2056.45,-219.86 2219.17,-199.94 2223.5,-195 2239.31,-176.94 2215.05,-154.5 2194.62,-140.21"/>
<polygon fill="#63b8ff" stroke="#63b8ff" points="1959.28,-227.84 1949.76,-232.49 1960.1,-234.79 1959.28,-227.84"/>
</g>
<!-- Node58 -->
<g id="node38" class="node">
<title>Node58</title>
<g id="a_node38"><a xlink:href="RegisterGameObjectType_8h.html" target="_top" xlink:title=" ">
<polygon fill="#fff0f0" stroke="red" points="2420,-195 2271,-195 2271,-176 2420,-176 2420,-195"/>
<text text-anchor="middle" x="2345.5" y="-183" font-family="Helvetica,sans-Serif" font-size="10.00">RegisterGameObjectType.h</text>
</a>
</g>
</g>
<!-- Node12&#45;&gt;Node58 -->
<g id="edge45" class="edge">
<title>Node12&#45;&gt;Node58</title>
<path fill="none" stroke="#63b8ff" d="M1959.62,-231.35C2044.27,-221.51 2185.97,-205.04 2272.07,-195.03"/>
<polygon fill="#63b8ff" stroke="#63b8ff" points="1959.11,-227.89 1949.58,-232.52 1959.92,-234.84 1959.11,-227.89"/>
</g>
<!-- Node14&#45;&gt;Node8 -->
<g id="edge15" class="edge">
<title>Node14&#45;&gt;Node8</title>
<path fill="none" stroke="#63b8ff" d="M1998.5,-165.56C1998.5,-128.12 1998.5,-45.95 1998.5,-19.14"/>
<polygon fill="#63b8ff" stroke="#63b8ff" points="1995,-165.63 1998.5,-175.63 2002,-165.63 1995,-165.63"/>
</g>
<!-- Node14&#45;&gt;Node16 -->
<g id="edge16" class="edge">
<title>Node14&#45;&gt;Node16</title>
<path fill="none" stroke="#63b8ff" d="M1921.34,-176.04C1599.52,-148.79 1223.56,-131.48 1123.16,-127.1"/>
<polygon fill="#63b8ff" stroke="#63b8ff" points="1921.07,-179.53 1931.33,-176.89 1921.66,-172.55 1921.07,-179.53"/>
</g>
<!-- Node17 -->
<g id="node16" class="node">
<title>Node17</title>
<g id="a_node16"><a xlink:href="Box3D_8h.html" target="_top" xlink:title=" ">
<polygon fill="#fff0f0" stroke="red" points="1815.5,-74 1757.5,-74 1757.5,-55 1815.5,-55 1815.5,-74"/>
<text text-anchor="middle" x="1786.5" y="-62" font-family="Helvetica,sans-Serif" font-size="10.00">Box3D.h</text>
</a>
</g>
</g>
<!-- Node16&#45;&gt;Node17 -->
<g id="edge17" class="edge">
<title>Node16&#45;&gt;Node17</title>
<path fill="none" stroke="#63b8ff" d="M1133.09,-123.06C1231.5,-120.07 1515.4,-108.84 1748.5,-74 1751.31,-73.58 1754.22,-73.07 1757.12,-72.51"/>
<polygon fill="#63b8ff" stroke="#63b8ff" points="1132.98,-119.56 1123.08,-123.35 1133.18,-126.56 1132.98,-119.56"/>
</g>
<!-- Node20 -->
<g id="node17" class="node">
<title>Node20</title>
<g id="a_node17"><a xlink:href="Camera_8h.html" target="_top" xlink:title=" ">
<polygon fill="#fff0f0" stroke="red" points="242.5,-74 178.5,-74 178.5,-55 242.5,-55 242.5,-74"/>
<text text-anchor="middle" x="210.5" y="-62" font-family="Helvetica,sans-Serif" font-size="10.00">Camera.h</text>
</a>
</g>
</g>
<!-- Node16&#45;&gt;Node20 -->
<g id="edge19" class="edge">
<title>Node16&#45;&gt;Node20</title>
<path fill="none" stroke="#63b8ff" d="M1061.82,-123.45C945.52,-121.33 566.96,-111.77 256.5,-74 251.99,-73.45 247.24,-72.74 242.59,-71.95"/>
<polygon fill="#63b8ff" stroke="#63b8ff" points="1061.88,-126.95 1071.94,-123.63 1062,-119.95 1061.88,-126.95"/>
</g>
<!-- Node23 -->
<g id="node18" class="node">
<title>Node23</title>
<g id="a_node18"><a xlink:href="Player_8h.html" target="_top" xlink:title=" ">
<polygon fill="#fff0f0" stroke="red" points="297.5,-19 241.5,-19 241.5,0 297.5,0 297.5,-19"/>
<text text-anchor="middle" x="269.5" y="-7" font-family="Helvetica,sans-Serif" font-size="10.00">Player.h</text>
</a>
</g>
</g>
<!-- Node16&#45;&gt;Node23 -->
<g id="edge28" class="edge">
<title>Node16&#45;&gt;Node23</title>
<path fill="none" stroke="#63b8ff" d="M1061.18,-124.13C911.94,-124.36 350.86,-121.99 289.5,-74 272.57,-60.76 269.68,-33.24 269.37,-19.18"/>
<polygon fill="#63b8ff" stroke="#63b8ff" points="1061.6,-127.63 1071.6,-124.11 1061.59,-120.63 1061.6,-127.63"/>
</g>
<!-- Node26 -->
<g id="node19" class="node">
<title>Node26</title>
<g id="a_node19"><a xlink:href="TitleScene_8cpp.html" target="_top" xlink:title=" ">
<polygon fill="white" stroke="#666666" points="222.5,-19 134.5,-19 134.5,0 222.5,0 222.5,-19"/>
<text text-anchor="middle" x="178.5" y="-7" font-family="Helvetica,sans-Serif" font-size="10.00">TitleScene.cpp</text>
</a>
</g>
</g>
<!-- Node16&#45;&gt;Node26 -->
<g id="edge39" class="edge">
<title>Node16&#45;&gt;Node26</title>
<path fill="none" stroke="#63b8ff" d="M1061.48,-123.43C894.28,-120.61 200.72,-106.95 169.5,-74 155.41,-59.13 166.22,-32.83 173.42,-19.21"/>
<polygon fill="#63b8ff" stroke="#63b8ff" points="1061.66,-126.93 1071.71,-123.6 1061.77,-119.93 1061.66,-126.93"/>
</g>
<!-- Node27 -->
<g id="node20" class="node">
<title>Node27</title>
<g id="a_node20"><a xlink:href="GameOverZone_8h.html" target="_top" xlink:title=" ">
<polygon fill="#fff0f0" stroke="red" points="402,-74 299,-74 299,-55 402,-55 402,-74"/>
<text text-anchor="middle" x="350.5" y="-62" font-family="Helvetica,sans-Serif" font-size="10.00">GameOverZone.h</text>
</a>
</g>
</g>
<!-- Node16&#45;&gt;Node27 -->
<g id="edge22" class="edge">
<title>Node16&#45;&gt;Node27</title>
<path fill="none" stroke="#63b8ff" d="M1061.86,-122.23C960.15,-117 659.8,-100.32 411.5,-74 408.42,-73.67 405.25,-73.31 402.06,-72.93"/>
<polygon fill="#63b8ff" stroke="#63b8ff" points="1061.74,-125.73 1071.91,-122.74 1062.1,-118.74 1061.74,-125.73"/>
</g>
<!-- Node29 -->
<g id="node21" class="node">
<title>Node29</title>
<g id="a_node21"><a xlink:href="Goal_8h.html" target="_top" xlink:title=" ">
<polygon fill="#fff0f0" stroke="red" points="468.5,-74 420.5,-74 420.5,-55 468.5,-55 468.5,-74"/>
<text text-anchor="middle" x="444.5" y="-62" font-family="Helvetica,sans-Serif" font-size="10.00">Goal.h</text>
</a>
</g>
</g>
<!-- Node16&#45;&gt;Node29 -->
<g id="edge23" class="edge">
<title>Node16&#45;&gt;Node29</title>
<path fill="none" stroke="#63b8ff" d="M1061.65,-123.26C966.07,-120.81 697.46,-110.92 477.5,-74 474.58,-73.51 471.55,-72.89 468.55,-72.2"/>
<polygon fill="#63b8ff" stroke="#63b8ff" points="1061.83,-126.76 1071.91,-123.51 1062,-119.76 1061.83,-126.76"/>
</g>
<!-- Node31 -->
<g id="node22" class="node">
<title>Node31</title>
<g id="a_node22"><a xlink:href="HighlightEnemy_8h.html" target="_top" xlink:title=" ">
<polygon fill="#fff0f0" stroke="red" points="588.5,-74 486.5,-74 486.5,-55 588.5,-55 588.5,-74"/>
<text text-anchor="middle" x="537.5" y="-62" font-family="Helvetica,sans-Serif" font-size="10.00">HighlightEnemy.h</text>
</a>
</g>
</g>
<!-- Node16&#45;&gt;Node31 -->
<g id="edge24" class="edge">
<title>Node16&#45;&gt;Node31</title>
<path fill="none" stroke="#63b8ff" d="M1061.92,-120.95C979.92,-113.8 771.33,-95 597.5,-74 594.58,-73.65 591.57,-73.27 588.54,-72.88"/>
<polygon fill="#63b8ff" stroke="#63b8ff" points="1061.7,-124.44 1071.96,-121.82 1062.3,-117.47 1061.7,-124.44"/>
</g>
<!-- Node33 -->
<g id="node23" class="node">
<title>Node33</title>
<g id="a_node23"><a xlink:href="Model_8cpp.html" target="_top" xlink:title=" ">
<polygon fill="white" stroke="#666666" points="674,-74 607,-74 607,-55 674,-55 674,-74"/>
<text text-anchor="middle" x="640.5" y="-62" font-family="Helvetica,sans-Serif" font-size="10.00">Model.cpp</text>
</a>
</g>
</g>
<!-- Node16&#45;&gt;Node33 -->
<g id="edge25" class="edge">
<title>Node16&#45;&gt;Node33</title>
<path fill="none" stroke="#63b8ff" d="M1061.39,-120.56C989.32,-113.49 822.58,-96.11 683.5,-74 680.49,-73.52 677.38,-72.99 674.26,-72.42"/>
<polygon fill="#63b8ff" stroke="#63b8ff" points="1061.44,-124.08 1071.73,-121.57 1062.12,-117.11 1061.44,-124.08"/>
</g>
<!-- Node34 -->
<g id="node24" class="node">
<title>Node34</title>
<g id="a_node24"><a xlink:href="MovingFloor_8h.html" target="_top" xlink:title=" ">
<polygon fill="#fff0f0" stroke="red" points="778.5,-74 692.5,-74 692.5,-55 778.5,-55 778.5,-74"/>
<text text-anchor="middle" x="735.5" y="-62" font-family="Helvetica,sans-Serif" font-size="10.00">MovingFloor.h</text>
</a>
</g>
</g>
<!-- Node16&#45;&gt;Node34 -->
<g id="edge26" class="edge">
<title>Node16&#45;&gt;Node34</title>
<path fill="none" stroke="#63b8ff" d="M1061.71,-118.25C1003.99,-108.98 886.79,-90.12 787.5,-74 784.61,-73.53 781.63,-73.05 778.63,-72.56"/>
<polygon fill="#63b8ff" stroke="#63b8ff" points="1061.35,-121.74 1071.78,-119.87 1062.46,-114.83 1061.35,-121.74"/>
</g>
<!-- Node38 -->
<g id="node25" class="node">
<title>Node38</title>
<g id="a_node25"><a xlink:href="PatrolChargerEnemy_8h.html" target="_top" xlink:title=" ">
<polygon fill="#fff0f0" stroke="red" points="920.5,-74 796.5,-74 796.5,-55 920.5,-55 920.5,-74"/>
<text text-anchor="middle" x="858.5" y="-62" font-family="Helvetica,sans-Serif" font-size="10.00">PatrolChargerEnemy.h</text>
</a>
</g>
</g>
<!-- Node16&#45;&gt;Node38 -->
<g id="edge27" class="edge">
<title>Node16&#45;&gt;Node38</title>
<path fill="none" stroke="#63b8ff" d="M1061.95,-115.3C1016.59,-104.19 938.62,-85.11 893.52,-74.07"/>
<polygon fill="#63b8ff" stroke="#63b8ff" points="1061.38,-118.76 1071.92,-117.74 1063.04,-111.96 1061.38,-118.76"/>
</g>
<!-- Node40 -->
<g id="node26" class="node">
<title>Node40</title>
<g id="a_node26"><a xlink:href="SampleGame_8h.html" target="_top" xlink:title=" ">
<polygon fill="#fff0f0" stroke="red" points="122.5,-74 30.5,-74 30.5,-55 122.5,-55 122.5,-74"/>
<text text-anchor="middle" x="76.5" y="-62" font-family="Helvetica,sans-Serif" font-size="10.00">SampleGame.h</text>
</a>
</g>
</g>
<!-- Node16&#45;&gt;Node40 -->
<g id="edge29" class="edge">
<title>Node16&#45;&gt;Node40</title>
<path fill="none" stroke="#63b8ff" d="M1061.53,-123.28C934.68,-120.49 496.42,-108.79 136.5,-74 132,-73.56 127.31,-73.04 122.64,-72.46"/>
<polygon fill="#63b8ff" stroke="#63b8ff" points="1061.75,-126.78 1071.82,-123.5 1061.9,-119.79 1061.75,-126.78"/>
</g>
<!-- Node42 -->
<g id="node27" class="node">
<title>Node42</title>
<g id="a_node27"><a xlink:href="Source_2TheMain_8cpp.html" target="_top" xlink:title=" ">
<polygon fill="white" stroke="#666666" points="79,-19 0,-19 0,0 79,0 79,-19"/>
<text text-anchor="middle" x="39.5" y="-7" font-family="Helvetica,sans-Serif" font-size="10.00">TheMain.cpp</text>
</a>
</g>
</g>
<!-- Node16&#45;&gt;Node42 -->
<g id="edge37" class="edge">
<title>Node16&#45;&gt;Node42</title>
<path fill="none" stroke="#63b8ff" d="M1061.75,-123.71C879.21,-122.05 58.22,-112.46 21.5,-74 6.94,-58.75 22.61,-32.62 32.57,-19.12"/>
<polygon fill="#63b8ff" stroke="#63b8ff" points="1061.86,-127.21 1071.89,-123.8 1061.92,-120.21 1061.86,-127.21"/>
</g>
<!-- Node43 -->
<g id="node28" class="node">
<title>Node43</title>
<g id="a_node28"><a xlink:href="SampleScene_8cpp.html" target="_top" xlink:title=" ">
<polygon fill="white" stroke="#666666" points="1042,-74 939,-74 939,-55 1042,-55 1042,-74"/>
<text text-anchor="middle" x="990.5" y="-62" font-family="Helvetica,sans-Serif" font-size="10.00">SampleScene.cpp</text>
</a>
</g>
</g>
<!-- Node16&#45;&gt;Node43 -->
<g id="edge31" class="edge">
<title>Node16&#45;&gt;Node43</title>
<path fill="none" stroke="#63b8ff" d="M1072.67,-110.42C1052.22,-99.24 1023.84,-83.73 1006.35,-74.17"/>
<polygon fill="#63b8ff" stroke="#63b8ff" points="1071.26,-113.64 1081.71,-115.37 1074.62,-107.5 1071.26,-113.64"/>
</g>
<!-- Node44 -->
<g id="node29" class="node">
<title>Node44</title>
<g id="a_node29"><a xlink:href="ScoreItem_8h.html" target="_top" xlink:title=" ">
<polygon fill="#fff0f0" stroke="red" points="1135,-74 1060,-74 1060,-55 1135,-55 1135,-74"/>
<text text-anchor="middle" x="1097.5" y="-62" font-family="Helvetica,sans-Serif" font-size="10.00">ScoreItem.h</text>
</a>
</g>
</g>
<!-- Node16&#45;&gt;Node44 -->
<g id="edge32" class="edge">
<title>Node16&#45;&gt;Node44</title>
<path fill="none" stroke="#63b8ff" d="M1097.5,-105.16C1097.5,-94.74 1097.5,-82.3 1097.5,-74.17"/>
<polygon fill="#63b8ff" stroke="#63b8ff" points="1094,-105.37 1097.5,-115.37 1101,-105.37 1094,-105.37"/>
</g>
<!-- Node46 -->
<g id="node30" class="node">
<title>Node46</title>
<g id="a_node30"><a xlink:href="ScoreViewer_8h.html" target="_top" xlink:title=" ">
<polygon fill="#fff0f0" stroke="red" points="1239.5,-74 1153.5,-74 1153.5,-55 1239.5,-55 1239.5,-74"/>
<text text-anchor="middle" x="1196.5" y="-62" font-family="Helvetica,sans-Serif" font-size="10.00">ScoreViewer.h</text>
</a>
</g>
</g>
<!-- Node16&#45;&gt;Node46 -->
<g id="edge33" class="edge">
<title>Node16&#45;&gt;Node46</title>
<path fill="none" stroke="#63b8ff" d="M1120.73,-110.27C1139.63,-99.1 1165.72,-83.69 1181.83,-74.17"/>
<polygon fill="#63b8ff" stroke="#63b8ff" points="1118.94,-107.27 1112.11,-115.37 1122.5,-113.29 1118.94,-107.27"/>
</g>
<!-- Node48 -->
<g id="node31" class="node">
<title>Node48</title>
<g id="a_node31"><a xlink:href="StageEditScene_8cpp.html" target="_top" xlink:title=" ">
<polygon fill="white" stroke="#666666" points="1371,-74 1258,-74 1258,-55 1371,-55 1371,-74"/>
<text text-anchor="middle" x="1314.5" y="-62" font-family="Helvetica,sans-Serif" font-size="10.00">StageEditScene.cpp</text>
</a>
</g>
</g>
<!-- Node16&#45;&gt;Node48 -->
<g id="edge34" class="edge">
<title>Node16&#45;&gt;Node48</title>
<path fill="none" stroke="#63b8ff" d="M1132.96,-114.44C1174.57,-103.22 1242.92,-84.8 1282.82,-74.04"/>
<polygon fill="#63b8ff" stroke="#63b8ff" points="1131.99,-111.08 1123.24,-117.06 1133.81,-117.84 1131.99,-111.08"/>
</g>
<!-- Node49 -->
<g id="node32" class="node">
<title>Node49</title>
<g id="a_node32"><a xlink:href="StageManager_8h.html" target="_top" xlink:title=" ">
<polygon fill="#fff0f0" stroke="red" points="1484,-74 1389,-74 1389,-55 1484,-55 1484,-74"/>
<text text-anchor="middle" x="1436.5" y="-62" font-family="Helvetica,sans-Serif" font-size="10.00">StageManager.h</text>
</a>
</g>
</g>
<!-- Node16&#45;&gt;Node49 -->
<g id="edge35" class="edge">
<title>Node16&#45;&gt;Node49</title>
<path fill="none" stroke="#63b8ff" d="M1133.24,-117.83C1194.58,-107.25 1319.93,-85.62 1388.71,-73.75"/>
<polygon fill="#63b8ff" stroke="#63b8ff" points="1132.52,-114.41 1123.26,-119.55 1133.71,-121.3 1132.52,-114.41"/>
</g>
<!-- Node51 -->
<g id="node33" class="node">
<title>Node51</title>
<g id="a_node33"><a xlink:href="TextBox_8h.html" target="_top" xlink:title=" ">
<polygon fill="#fff0f0" stroke="red" points="1567,-74 1502,-74 1502,-55 1567,-55 1567,-74"/>
<text text-anchor="middle" x="1534.5" y="-62" font-family="Helvetica,sans-Serif" font-size="10.00">TextBox.h</text>
</a>
</g>
</g>
<!-- Node16&#45;&gt;Node51 -->
<g id="edge36" class="edge">
<title>Node16&#45;&gt;Node51</title>
<path fill="none" stroke="#63b8ff" d="M1132.97,-120.4C1202.28,-113.16 1360.47,-95.69 1492.5,-74 1495.58,-73.49 1498.79,-72.92 1501.98,-72.33"/>
<polygon fill="#63b8ff" stroke="#63b8ff" points="1132.6,-116.92 1123.01,-121.43 1133.32,-123.88 1132.6,-116.92"/>
</g>
<!-- Node53 -->
<g id="node34" class="node">
<title>Node53</title>
<g id="a_node34"><a xlink:href="TimeLimit_8h.html" target="_top" xlink:title=" ">
<polygon fill="#fff0f0" stroke="red" points="1660,-74 1585,-74 1585,-55 1660,-55 1660,-74"/>
<text text-anchor="middle" x="1622.5" y="-62" font-family="Helvetica,sans-Serif" font-size="10.00">TimeLimit.h</text>
</a>
</g>
</g>
<!-- Node16&#45;&gt;Node53 -->
<g id="edge38" class="edge">
<title>Node16&#45;&gt;Node53</title>
<path fill="none" stroke="#63b8ff" d="M1133.23,-121.18C1212.86,-114.7 1410.87,-97.46 1575.5,-74 1578.54,-73.57 1581.68,-73.08 1584.83,-72.57"/>
<polygon fill="#63b8ff" stroke="#63b8ff" points="1132.92,-117.7 1123.23,-121.99 1133.48,-124.67 1132.92,-117.7"/>
</g>
<!-- Node55 -->
<g id="node35" class="node">
<title>Node55</title>
<g id="a_node35"><a xlink:href="mtgb_8cpp.html" target="_top" xlink:title=" ">
<polygon fill="white" stroke="#666666" points="1739.5,-74 1677.5,-74 1677.5,-55 1739.5,-55 1739.5,-74"/>
<text text-anchor="middle" x="1708.5" y="-62" font-family="Helvetica,sans-Serif" font-size="10.00">mtgb.cpp</text>
</a>
</g>
</g>
<!-- Node16&#45;&gt;Node55 -->
<g id="edge40" class="edge">
<title>Node16&#45;&gt;Node55</title>
<path fill="none" stroke="#63b8ff" d="M1133.49,-122.38C1223.87,-117.97 1467.53,-104.04 1668.5,-74 1671.31,-73.58 1674.22,-73.08 1677.12,-72.55"/>
<polygon fill="#63b8ff" stroke="#63b8ff" points="1133.06,-118.89 1123.24,-122.87 1133.4,-125.88 1133.06,-118.89"/>
</g>
<!-- Node17&#45;&gt;Node8 -->
<g id="edge18" class="edge">
<title>Node17&#45;&gt;Node8</title>
<path fill="none" stroke="#63b8ff" d="M1825.39,-53.78C1865.13,-43.84 1926.23,-28.57 1964.21,-19.07"/>
<polygon fill="#63b8ff" stroke="#63b8ff" points="1824.39,-50.42 1815.53,-56.24 1826.08,-57.21 1824.39,-50.42"/>
</g>
<!-- Node20&#45;&gt;Node23 -->
<g id="edge20" class="edge">
<title>Node20&#45;&gt;Node23</title>
<path fill="none" stroke="#63b8ff" d="M227.7,-48.04C238.17,-38.64 251.15,-26.98 259.85,-19.17"/>
<polygon fill="#63b8ff" stroke="#63b8ff" points="225.08,-45.7 219.98,-54.98 229.76,-50.91 225.08,-45.7"/>
</g>
<!-- Node20&#45;&gt;Node26 -->
<g id="edge21" class="edge">
<title>Node20&#45;&gt;Node26</title>
<path fill="none" stroke="#63b8ff" d="M200,-46.1C194.53,-37.04 188.08,-26.37 183.69,-19.09"/>
<polygon fill="#63b8ff" stroke="#63b8ff" points="197.05,-48 205.22,-54.75 203.04,-44.38 197.05,-48"/>
</g>
<!-- Node40&#45;&gt;Node42 -->
<g id="edge30" class="edge">
<title>Node40&#45;&gt;Node42</title>
<path fill="none" stroke="#63b8ff" d="M64.55,-46.39C58.19,-37.27 50.63,-26.45 45.5,-19.09"/>
<polygon fill="#63b8ff" stroke="#63b8ff" points="61.8,-48.55 70.39,-54.75 67.54,-44.55 61.8,-48.55"/>
</g>
<!-- Node56&#45;&gt;Node16 -->
<g id="edge42" class="edge">
<title>Node56&#45;&gt;Node16</title>
<path fill="none" stroke="#63b8ff" d="M1819.64,-179.65C1805.94,-178.42 1791.16,-177.12 1777.5,-176 1522.37,-155.09 1213.05,-133.83 1123.14,-127.73"/>
<polygon fill="#63b8ff" stroke="#63b8ff" points="1819.59,-183.16 1829.87,-180.58 1820.22,-176.19 1819.59,-183.16"/>
</g>
<!-- Node57&#45;&gt;Node8 -->
<g id="edge44" class="edge">
<title>Node57&#45;&gt;Node8</title>
<path fill="none" stroke="#63b8ff" d="M2141.31,-104.19C2103.25,-79.22 2039.45,-37.36 2011.87,-19.27"/>
<polygon fill="#63b8ff" stroke="#63b8ff" points="2139.66,-107.3 2149.94,-109.85 2143.5,-101.44 2139.66,-107.3"/>
</g>
<!-- Node58&#45;&gt;Node8 -->
<g id="edge46" class="edge">
<title>Node58&#45;&gt;Node8</title>
<path fill="none" stroke="#63b8ff" d="M2330.64,-168.22C2314.84,-151.69 2288.45,-126.29 2261.5,-110 2185.25,-63.92 2084.06,-32.97 2032.23,-19"/>
<polygon fill="#63b8ff" stroke="#63b8ff" points="2328.11,-170.63 2337.51,-175.54 2333.22,-165.85 2328.11,-170.63"/>
</g>
<!-- Node60&#45;&gt;Node12 -->
<g id="edge50" class="edge">
<title>Node60&#45;&gt;Node12</title>
<path fill="none" stroke="#63b8ff" d="M1986.62,-282.03C1963.13,-272.23 1931.03,-258.83 1910.28,-250.17"/>
<polygon fill="#63b8ff" stroke="#63b8ff" points="1985.52,-285.36 1996.1,-285.98 1988.21,-278.9 1985.52,-285.36"/>
</g>
<!-- Node60&#45;&gt;Node58 -->
<g id="edge51" class="edge">
<title>Node60&#45;&gt;Node58</title>
<path fill="none" stroke="#63b8ff" d="M2003.03,-277.35C1993.8,-263.39 1985.1,-243.95 1996.5,-231 2005.49,-220.79 2171.16,-203.22 2270.97,-193.49"/>
<polygon fill="#63b8ff" stroke="#63b8ff" points="2000.29,-279.53 2008.97,-285.61 2005.97,-275.45 2000.29,-279.53"/>
</g>
<!-- Node64&#45;&gt;Node16 -->
<g id="edge64" class="edge">
<title>Node64&#45;&gt;Node16</title>
<path fill="none" stroke="#63b8ff" d="M2215.25,-292.08C2135.18,-287.32 1963.46,-274.96 1820.5,-250 1786.2,-244.01 1778.6,-238.02 1744.5,-231 1504.58,-181.63 1210.7,-141.05 1123.22,-129.38"/>
<polygon fill="#63b8ff" stroke="#63b8ff" points="2215.29,-295.59 2225.47,-292.68 2215.69,-288.6 2215.29,-295.59"/>
</g>
<!-- Node64&#45;&gt;Node61 -->
<g id="edge60" class="edge">
<title>Node64&#45;&gt;Node61</title>
<path fill="none" stroke="#63b8ff" d="M2220.36,-283.18C2185.2,-273.27 2134.87,-259.08 2102.94,-250.08"/>
<polygon fill="#63b8ff" stroke="#63b8ff" points="2219.72,-286.64 2230.29,-285.98 2221.62,-279.9 2219.72,-286.64"/>
</g>
<!-- Node64&#45;&gt;Node62 -->
<g id="edge61" class="edge">
<title>Node64&#45;&gt;Node62</title>
<path fill="none" stroke="#63b8ff" d="M2250.32,-277.1C2245.03,-268.04 2238.78,-257.37 2234.52,-250.09"/>
<polygon fill="#63b8ff" stroke="#63b8ff" points="2247.31,-278.88 2255.38,-285.75 2253.35,-275.35 2247.31,-278.88"/>
</g>
<!-- Node65 -->
<g id="node45" class="node">
<title>Node65</title>
<g id="a_node45"><a xlink:href="AudioPlayer_8generated_8cpp.html" target="_top" xlink:title=" ">
<polygon fill="white" stroke="#666666" points="2585,-195 2438,-195 2438,-176 2585,-176 2585,-195"/>
<text text-anchor="middle" x="2511.5" y="-183" font-family="Helvetica,sans-Serif" font-size="10.00">AudioPlayer.generated.cpp</text>
</a>
</g>
</g>
<!-- Node64&#45;&gt;Node65 -->
<g id="edge56" class="edge">
<title>Node64&#45;&gt;Node65</title>
<path fill="none" stroke="#63b8ff" d="M2278.16,-279.01C2295.32,-264.7 2322.64,-243.77 2349.5,-231 2385.98,-213.65 2430.41,-202.05 2463.5,-195.05"/>
<polygon fill="#63b8ff" stroke="#63b8ff" points="2275.52,-276.67 2270.18,-285.82 2280.06,-282 2275.52,-276.67"/>
</g>
<!-- Node66 -->
<g id="node46" class="node">
<title>Node66</title>
<g id="a_node46"><a xlink:href="AudioPlayer_8generated_8h.html" target="_top" xlink:title=" ">
<polygon fill="#fff0f0" stroke="red" points="2494.5,-250 2358.5,-250 2358.5,-231 2494.5,-231 2494.5,-250"/>
<text text-anchor="middle" x="2426.5" y="-238" font-family="Helvetica,sans-Serif" font-size="10.00">AudioPlayer.generated.h</text>
</a>
</g>
</g>
<!-- Node64&#45;&gt;Node66 -->
<g id="edge57" class="edge">
<title>Node64&#45;&gt;Node66</title>
<path fill="none" stroke="#63b8ff" d="M2296.75,-282.93C2327.75,-273.03 2371.67,-259.01 2399.62,-250.08"/>
<polygon fill="#63b8ff" stroke="#63b8ff" points="2295.63,-279.61 2287.17,-285.98 2297.76,-286.28 2295.63,-279.61"/>
</g>
<!-- Node71 -->
<g id="node47" class="node">
<title>Node71</title>
<g id="a_node47"><a xlink:href="CameraSystem_8cpp.html" target="_top" xlink:title=" ">
<polygon fill="white" stroke="#666666" points="2624.5,-250 2512.5,-250 2512.5,-231 2624.5,-231 2624.5,-250"/>
<text text-anchor="middle" x="2568.5" y="-238" font-family="Helvetica,sans-Serif" font-size="10.00">CameraSystem.cpp</text>
</a>
</g>
</g>
<!-- Node64&#45;&gt;Node71 -->
<g id="edge59" class="edge">
<title>Node64&#45;&gt;Node71</title>
<path fill="none" stroke="#63b8ff" d="M2305.65,-286.67C2306.95,-286.44 2308.23,-286.22 2309.5,-286 2382.33,-273.43 2466.7,-258.95 2518.84,-250.01"/>
<polygon fill="#63b8ff" stroke="#63b8ff" points="2304.82,-283.26 2295.56,-288.41 2306.01,-290.15 2304.82,-283.26"/>
</g>
<!-- Node64&#45;&gt;Node78 -->
<g id="edge62" class="edge">
<title>Node64&#45;&gt;Node78</title>
<path fill="none" stroke="#63b8ff" d="M2305.63,-286.57C2306.93,-286.37 2308.23,-286.18 2309.5,-286 2452.94,-265.61 2489.7,-267.69 2633.5,-250 2636.35,-249.65 2639.27,-249.28 2642.21,-248.91"/>
<polygon fill="#63b8ff" stroke="#63b8ff" points="2304.86,-283.14 2295.52,-288.16 2305.95,-290.06 2304.86,-283.14"/>
</g>
<!-- Node64&#45;&gt;Node111 -->
<g id="edge63" class="edge">
<title>Node64&#45;&gt;Node111</title>
<path fill="none" stroke="#63b8ff" d="M2305.63,-290C2319.09,-288.68 2333.89,-287.26 2347.5,-286 2530.53,-269.06 2576.86,-270.69 2759.5,-250 2762.58,-249.65 2765.75,-249.27 2768.94,-248.87"/>
<polygon fill="#63b8ff" stroke="#63b8ff" points="2305.24,-286.52 2295.63,-290.99 2305.92,-293.49 2305.24,-286.52"/>
</g>
<!-- Node66&#45;&gt;Node65 -->
<g id="edge58" class="edge">
<title>Node66&#45;&gt;Node65</title>
<path fill="none" stroke="#63b8ff" d="M2449.07,-225.42C2464.5,-215.81 2484.45,-203.37 2497.59,-195.17"/>
<polygon fill="#63b8ff" stroke="#63b8ff" points="2446.79,-222.72 2440.16,-230.98 2450.49,-228.66 2446.79,-222.72"/>
</g>
</g>
</svg>
