<?xml version="1.0" encoding="UTF-8" standalone="no"?>
<!DOCTYPE svg PUBLIC "-//W3C//DTD SVG 1.1//EN"
 "http://www.w3.org/Graphics/SVG/1.1/DTD/svg11.dtd">
<!-- Generated by graphviz version 2.43.0 (0)
 -->
<!-- Title: GameObjectFactory.h Pages: 1 -->
<svg width="2958pt" height="324pt"
 viewBox="0.00 0.00 2957.50 324.00" xmlns="http://www.w3.org/2000/svg" xmlns:xlink="http://www.w3.org/1999/xlink">
<g id="graph0" class="graph" transform="scale(1 1) rotate(0) translate(4 320)">
<title>GameObjectFactory.h</title>
<!-- Node1 -->
<g id="node1" class="node">
<title>Node1</title>
<g id="a_node1"><a xlink:title=" ">
<polygon fill="#999999" stroke="#666666" points="2512,-316 2392,-316 2392,-297 2512,-297 2512,-316"/>
<text text-anchor="middle" x="2452" y="-304" font-family="Helvetica,sans-Serif" font-size="10.00">GameObjectFactory.h</text>
</a>
</g>
</g>
<!-- Node2 -->
<g id="node2" class="node">
<title>Node2</title>
<g id="a_node2"><a xlink:href="DeleteGameObjectCommand_8h.html" target="_top" xlink:title=" ">
<polygon fill="white" stroke="#666666" points="2800.5,-255.5 2631.5,-255.5 2631.5,-236.5 2800.5,-236.5 2800.5,-255.5"/>
<text text-anchor="middle" x="2716" y="-243.5" font-family="Helvetica,sans-Serif" font-size="10.00">DeleteGameObjectCommand.h</text>
</a>
</g>
</g>
<!-- Node1&#45;&gt;Node2 -->
<g id="edge1" class="edge">
<title>Node1&#45;&gt;Node2</title>
<path fill="none" stroke="#63b8ff" d="M2500.19,-294.82C2551.18,-283.52 2630.62,-265.92 2677.57,-255.52"/>
<polygon fill="#63b8ff" stroke="#63b8ff" points="2499.39,-291.41 2490.39,-296.99 2500.91,-298.25 2499.39,-291.41"/>
</g>
<!-- Node5 -->
<g id="node5" class="node">
<title>Node5</title>
<g id="a_node5"><a xlink:href="GameObjectFactory_8cpp.html" target="_top" xlink:title=" ">
<polygon fill="white" stroke="#666666" points="2949.5,-255.5 2818.5,-255.5 2818.5,-236.5 2949.5,-236.5 2949.5,-255.5"/>
<text text-anchor="middle" x="2884" y="-243.5" font-family="Helvetica,sans-Serif" font-size="10.00">GameObjectFactory.cpp</text>
</a>
</g>
</g>
<!-- Node1&#45;&gt;Node5 -->
<g id="edge4" class="edge">
<title>Node1&#45;&gt;Node5</title>
<path fill="none" stroke="#63b8ff" d="M2522.37,-298.08C2594.7,-290.15 2710.48,-276.58 2810,-261 2820.2,-259.4 2831.16,-257.46 2841.43,-255.53"/>
<polygon fill="#63b8ff" stroke="#63b8ff" points="2521.58,-294.65 2512.02,-299.21 2522.34,-301.61 2521.58,-294.65"/>
</g>
<!-- Node6 -->
<g id="node6" class="node">
<title>Node6</title>
<g id="a_node6"><a xlink:href="GameObjectGenerator_8h.html" target="_top" xlink:title=" ">
<polygon fill="white" stroke="#666666" points="2266,-255.5 2132,-255.5 2132,-236.5 2266,-236.5 2266,-255.5"/>
<text text-anchor="middle" x="2199" y="-243.5" font-family="Helvetica,sans-Serif" font-size="10.00">GameObjectGenerator.h</text>
</a>
</g>
</g>
<!-- Node1&#45;&gt;Node6 -->
<g id="edge5" class="edge">
<title>Node1&#45;&gt;Node6</title>
<path fill="none" stroke="#63b8ff" d="M2405.21,-294.68C2356.32,-283.38 2280.63,-265.88 2235.83,-255.52"/>
<polygon fill="#63b8ff" stroke="#63b8ff" points="2404.68,-298.15 2415.21,-296.99 2406.26,-291.33 2404.68,-298.15"/>
</g>
<!-- Node73 -->
<g id="node48" class="node">
<title>Node73</title>
<g id="a_node48"><a xlink:href="ImGuiEditor_8h.html" target="_top" xlink:title=" ">
<polygon fill="white" stroke="#666666" points="2113.5,-255.5 2030.5,-255.5 2030.5,-236.5 2113.5,-236.5 2113.5,-255.5"/>
<text text-anchor="middle" x="2072" y="-243.5" font-family="Helvetica,sans-Serif" font-size="10.00">ImGuiEditor.h</text>
</a>
</g>
</g>
<!-- Node1&#45;&gt;Node73 -->
<g id="edge72" class="edge">
<title>Node1&#45;&gt;Node73</title>
<path fill="none" stroke="#63b8ff" d="M2381.85,-298.75C2314.93,-291.68 2211.5,-279.05 2123,-261 2115.62,-259.5 2107.74,-257.52 2100.43,-255.53"/>
<polygon fill="#63b8ff" stroke="#63b8ff" points="2381.55,-302.24 2391.86,-299.8 2382.28,-295.28 2381.55,-302.24"/>
</g>
<!-- Node74 -->
<g id="node49" class="node">
<title>Node74</title>
<g id="a_node49"><a xlink:href="RegisterCommonGameObjectType_8h.html" target="_top" xlink:title=" ">
<polygon fill="white" stroke="#666666" points="2446,-261 2284,-261 2284,-231 2446,-231 2446,-261"/>
<text text-anchor="start" x="2292" y="-249" font-family="Helvetica,sans-Serif" font-size="10.00">RegisterCommonGameObject</text>
<text text-anchor="middle" x="2365" y="-238" font-family="Helvetica,sans-Serif" font-size="10.00">Type.h</text>
</a>
</g>
</g>
<!-- Node1&#45;&gt;Node74 -->
<g id="edge75" class="edge">
<title>Node1&#45;&gt;Node74</title>
<path fill="none" stroke="#63b8ff" d="M2430.48,-291.03C2416.91,-281.9 2399.46,-270.17 2385.99,-261.11"/>
<polygon fill="#63b8ff" stroke="#63b8ff" points="2428.91,-294.19 2439.16,-296.87 2432.82,-288.38 2428.91,-294.19"/>
</g>
<!-- Node75 -->
<g id="node50" class="node">
<title>Node75</title>
<g id="a_node50"><a xlink:href="RegisterGameObjectType_8h.html" target="_top" xlink:title=" ">
<polygon fill="white" stroke="#666666" points="2613.5,-255.5 2464.5,-255.5 2464.5,-236.5 2613.5,-236.5 2613.5,-255.5"/>
<text text-anchor="middle" x="2539" y="-243.5" font-family="Helvetica,sans-Serif" font-size="10.00">RegisterGameObjectType.h</text>
</a>
</g>
</g>
<!-- Node1&#45;&gt;Node75 -->
<g id="edge79" class="edge">
<title>Node1&#45;&gt;Node75</title>
<path fill="none" stroke="#63b8ff" d="M2473.33,-291.16C2489.86,-280.05 2512.21,-265.01 2526.11,-255.67"/>
<polygon fill="#63b8ff" stroke="#63b8ff" points="2471.18,-288.38 2464.84,-296.87 2475.09,-294.19 2471.18,-288.38"/>
</g>
<!-- Node3 -->
<g id="node3" class="node">
<title>Node3</title>
<g id="a_node3"><a xlink:href="DeleteGameObjectCommand_8cpp.html" target="_top" xlink:title=" ">
<polygon fill="white" stroke="#666666" points="2806,-195 2626,-195 2626,-176 2806,-176 2806,-195"/>
<text text-anchor="middle" x="2716" y="-183" font-family="Helvetica,sans-Serif" font-size="10.00">DeleteGameObjectCommand.cpp</text>
</a>
</g>
</g>
<!-- Node2&#45;&gt;Node3 -->
<g id="edge2" class="edge">
<title>Node2&#45;&gt;Node3</title>
<path fill="none" stroke="#63b8ff" d="M2716,-226.16C2716,-215.74 2716,-203.3 2716,-195.17"/>
<polygon fill="#63b8ff" stroke="#63b8ff" points="2712.5,-226.37 2716,-236.37 2719.5,-226.37 2712.5,-226.37"/>
</g>
<!-- Node4 -->
<g id="node4" class="node">
<title>Node4</title>
<g id="a_node4"><a xlink:href="GameObjectGenerator_8cpp.html" target="_top" xlink:title=" ">
<polygon fill="white" stroke="#666666" points="2569,-195 2423,-195 2423,-176 2569,-176 2569,-195"/>
<text text-anchor="middle" x="2496" y="-183" font-family="Helvetica,sans-Serif" font-size="10.00">GameObjectGenerator.cpp</text>
</a>
</g>
</g>
<!-- Node2&#45;&gt;Node4 -->
<g id="edge3" class="edge">
<title>Node2&#45;&gt;Node4</title>
<path fill="none" stroke="#63b8ff" d="M2674.24,-233.9C2631.7,-222.58 2566.66,-205.29 2528.03,-195.02"/>
<polygon fill="#63b8ff" stroke="#63b8ff" points="2673.45,-237.31 2684.01,-236.49 2675.25,-230.54 2673.45,-237.31"/>
</g>
<!-- Node6&#45;&gt;Node4 -->
<g id="edge6" class="edge">
<title>Node6&#45;&gt;Node4</title>
<path fill="none" stroke="#63b8ff" d="M2252.14,-234.53C2309.46,-223.24 2399.62,-205.48 2452.76,-195.02"/>
<polygon fill="#63b8ff" stroke="#63b8ff" points="2251.32,-231.13 2242.19,-236.49 2252.67,-237.99 2251.32,-231.13"/>
</g>
<!-- Node7 -->
<g id="node7" class="node">
<title>Node7</title>
<g id="a_node7"><a xlink:href="ImGuiEditor_8cpp.html" target="_top" xlink:title=" ">
<polygon fill="white" stroke="#666666" points="2365,-195 2271,-195 2271,-176 2365,-176 2365,-195"/>
<text text-anchor="middle" x="2318" y="-183" font-family="Helvetica,sans-Serif" font-size="10.00">ImGuiEditor.cpp</text>
</a>
</g>
</g>
<!-- Node6&#45;&gt;Node7 -->
<g id="edge7" class="edge">
<title>Node6&#45;&gt;Node7</title>
<path fill="none" stroke="#63b8ff" d="M2225.48,-231.98C2248.41,-220.71 2280.93,-204.73 2300.68,-195.02"/>
<polygon fill="#63b8ff" stroke="#63b8ff" points="2223.73,-228.94 2216.3,-236.49 2226.82,-235.22 2223.73,-228.94"/>
</g>
<!-- Node8 -->
<g id="node8" class="node">
<title>Node8</title>
<g id="a_node8"><a xlink:href="SceneSystem_8cpp.html" target="_top" xlink:title=" ">
<polygon fill="white" stroke="#666666" points="2250.5,-195 2147.5,-195 2147.5,-176 2250.5,-176 2250.5,-195"/>
<text text-anchor="middle" x="2199" y="-183" font-family="Helvetica,sans-Serif" font-size="10.00">SceneSystem.cpp</text>
</a>
</g>
</g>
<!-- Node6&#45;&gt;Node8 -->
<g id="edge8" class="edge">
<title>Node6&#45;&gt;Node8</title>
<path fill="none" stroke="#63b8ff" d="M2199,-226.16C2199,-215.74 2199,-203.3 2199,-195.17"/>
<polygon fill="#63b8ff" stroke="#63b8ff" points="2195.5,-226.37 2199,-236.37 2202.5,-226.37 2195.5,-226.37"/>
</g>
<!-- Node9 -->
<g id="node9" class="node">
<title>Node9</title>
<g id="a_node9"><a xlink:href="mtgb_8h.html" target="_top" xlink:title=" ">
<polygon fill="white" stroke="#666666" points="1204.5,-195 1153.5,-195 1153.5,-176 1204.5,-176 1204.5,-195"/>
<text text-anchor="middle" x="1179" y="-183" font-family="Helvetica,sans-Serif" font-size="10.00">mtgb.h</text>
</a>
</g>
</g>
<!-- Node6&#45;&gt;Node9 -->
<g id="edge9" class="edge">
<title>Node6&#45;&gt;Node9</title>
<path fill="none" stroke="#63b8ff" d="M2148.67,-234.74C2140.13,-233.29 2131.33,-231.96 2123,-231 1760.34,-189.24 1314.98,-186.46 1204.63,-186.44"/>
<polygon fill="#63b8ff" stroke="#63b8ff" points="2148.07,-238.19 2158.53,-236.5 2149.3,-231.3 2148.07,-238.19"/>
</g>
<!-- Node10 -->
<g id="node10" class="node">
<title>Node10</title>
<g id="a_node10"><a xlink:href="Box3D_8h.html" target="_top" xlink:title=" ">
<polygon fill="white" stroke="#666666" points="2367,-140 2309,-140 2309,-121 2367,-121 2367,-140"/>
<text text-anchor="middle" x="2338" y="-128" font-family="Helvetica,sans-Serif" font-size="10.00">Box3D.h</text>
</a>
</g>
</g>
<!-- Node9&#45;&gt;Node10 -->
<g id="edge10" class="edge">
<title>Node9&#45;&gt;Node10</title>
<path fill="none" stroke="#63b8ff" d="M1215.01,-183.82C1381.6,-180.54 2078.54,-165.55 2295,-140 2299.53,-139.46 2304.31,-138.71 2308.95,-137.88"/>
<polygon fill="#63b8ff" stroke="#63b8ff" points="1214.75,-180.32 1204.82,-184.02 1214.88,-187.32 1214.75,-180.32"/>
</g>
<!-- Node13 -->
<g id="node13" class="node">
<title>Node13</title>
<g id="a_node13"><a xlink:href="Button_8h.html" target="_top" xlink:title=" ">
<polygon fill="white" stroke="#666666" points="192,-79.5 134,-79.5 134,-60.5 192,-60.5 192,-79.5"/>
<text text-anchor="middle" x="163" y="-67.5" font-family="Helvetica,sans-Serif" font-size="10.00">Button.h</text>
</a>
</g>
</g>
<!-- Node9&#45;&gt;Node13 -->
<g id="edge13" class="edge">
<title>Node9&#45;&gt;Node13</title>
<path fill="none" stroke="#63b8ff" d="M1143.23,-184.11C1003.82,-182.38 496.86,-173.82 340,-140 278.42,-126.72 210.2,-94.85 179.53,-79.52"/>
<polygon fill="#63b8ff" stroke="#63b8ff" points="1143.32,-187.62 1153.37,-184.24 1143.41,-180.62 1143.32,-187.62"/>
</g>
<!-- Node16 -->
<g id="node16" class="node">
<title>Node16</title>
<g id="a_node16"><a xlink:href="TitleScene_8cpp.html" target="_top" xlink:title=" ">
<polygon fill="white" stroke="#666666" points="413,-19 325,-19 325,0 413,0 413,-19"/>
<text text-anchor="middle" x="369" y="-7" font-family="Helvetica,sans-Serif" font-size="10.00">TitleScene.cpp</text>
</a>
</g>
</g>
<!-- Node9&#45;&gt;Node16 -->
<g id="edge66" class="edge">
<title>Node9&#45;&gt;Node16</title>
<path fill="none" stroke="#63b8ff" d="M1143.05,-183.64C1000.39,-180.04 480.74,-165.25 457,-140 440.64,-122.6 478.42,-90.4 480,-85 483.74,-72.2 487.47,-66.04 480,-55 465.05,-32.9 437.14,-21.78 413.05,-16.18"/>
<polygon fill="#63b8ff" stroke="#63b8ff" points="1143.33,-187.15 1153.42,-183.9 1143.51,-180.15 1143.33,-187.15"/>
</g>
<!-- Node17 -->
<g id="node17" class="node">
<title>Node17</title>
<g id="a_node17"><a xlink:href="CircularSaw_8h.html" target="_top" xlink:title=" ">
<polygon fill="white" stroke="#666666" points="2028.5,-140 1945.5,-140 1945.5,-121 2028.5,-121 2028.5,-140"/>
<text text-anchor="middle" x="1987" y="-128" font-family="Helvetica,sans-Serif" font-size="10.00">CircularSaw.h</text>
</a>
</g>
</g>
<!-- Node9&#45;&gt;Node17 -->
<g id="edge17" class="edge">
<title>Node9&#45;&gt;Node17</title>
<path fill="none" stroke="#63b8ff" d="M1214.65,-183.75C1323.24,-181.18 1659.36,-171.1 1936,-140 1939.03,-139.66 1942.16,-139.26 1945.3,-138.82"/>
<polygon fill="#63b8ff" stroke="#63b8ff" points="1214.49,-180.25 1204.57,-183.98 1214.65,-187.25 1214.49,-180.25"/>
</g>
<!-- Node20 -->
<g id="node20" class="node">
<title>Node20</title>
<g id="a_node20"><a xlink:href="FadeOutScreen_8h.html" target="_top" xlink:title=" ">
<polygon fill="white" stroke="#666666" points="1451,-140 1353,-140 1353,-121 1451,-121 1451,-140"/>
<text text-anchor="middle" x="1402" y="-128" font-family="Helvetica,sans-Serif" font-size="10.00">FadeOutScreen.h</text>
</a>
</g>
</g>
<!-- Node9&#45;&gt;Node20 -->
<g id="edge20" class="edge">
<title>Node9&#45;&gt;Node20</title>
<path fill="none" stroke="#63b8ff" d="M1214.53,-176.06C1256.05,-166.19 1324.38,-149.95 1366.07,-140.04"/>
<polygon fill="#63b8ff" stroke="#63b8ff" points="1213.5,-172.7 1204.58,-178.42 1215.12,-179.51 1213.5,-172.7"/>
</g>
<!-- Node22 -->
<g id="node22" class="node">
<title>Node22</title>
<g id="a_node22"><a xlink:href="GameOverManager_8h.html" target="_top" xlink:title=" ">
<polygon fill="#fff0f0" stroke="red" points="1539,-79.5 1419,-79.5 1419,-60.5 1539,-60.5 1539,-79.5"/>
<text text-anchor="middle" x="1479" y="-67.5" font-family="Helvetica,sans-Serif" font-size="10.00">GameOverManager.h</text>
</a>
</g>
</g>
<!-- Node9&#45;&gt;Node22 -->
<g id="edge23" class="edge">
<title>Node9&#45;&gt;Node22</title>
<path fill="none" stroke="#63b8ff" d="M1215.05,-183.52C1282.55,-180.95 1424.44,-171.8 1460,-140 1477.41,-124.43 1479.5,-94.52 1479.38,-79.72"/>
<polygon fill="#63b8ff" stroke="#63b8ff" points="1214.75,-180.03 1204.88,-183.88 1215,-187.02 1214.75,-180.03"/>
</g>
<!-- Node24 -->
<g id="node23" class="node">
<title>Node24</title>
<g id="a_node23"><a xlink:href="GameOverZone_8h.html" target="_top" xlink:title=" ">
<polygon fill="#fff0f0" stroke="red" points="850.5,-79.5 747.5,-79.5 747.5,-60.5 850.5,-60.5 850.5,-79.5"/>
<text text-anchor="middle" x="799" y="-67.5" font-family="Helvetica,sans-Serif" font-size="10.00">GameOverZone.h</text>
</a>
</g>
</g>
<!-- Node9&#45;&gt;Node24 -->
<g id="edge24" class="edge">
<title>Node9&#45;&gt;Node24</title>
<path fill="none" stroke="#63b8ff" d="M1143.14,-183.9C1036.66,-181.76 727.87,-172.77 698,-140 673.32,-112.93 727.76,-91.01 765.9,-79.59"/>
<polygon fill="#63b8ff" stroke="#63b8ff" points="1143.31,-187.41 1153.37,-184.1 1143.44,-180.41 1143.31,-187.41"/>
</g>
<!-- Node26 -->
<g id="node24" class="node">
<title>Node26</title>
<g id="a_node24"><a xlink:href="Goal_8h.html" target="_top" xlink:title=" ">
<polygon fill="#fff0f0" stroke="red" points="931,-79.5 883,-79.5 883,-60.5 931,-60.5 931,-79.5"/>
<text text-anchor="middle" x="907" y="-67.5" font-family="Helvetica,sans-Serif" font-size="10.00">Goal.h</text>
</a>
</g>
</g>
<!-- Node9&#45;&gt;Node26 -->
<g id="edge26" class="edge">
<title>Node9&#45;&gt;Node26</title>
<path fill="none" stroke="#63b8ff" d="M1143.1,-183.77C1039.34,-181.27 744.58,-171.46 716,-140 682.71,-103.35 700.03,-128.18 859,-85 866.71,-82.91 875.07,-80.51 882.63,-78.3"/>
<polygon fill="#63b8ff" stroke="#63b8ff" points="1143.3,-187.27 1153.38,-184 1143.46,-180.27 1143.3,-187.27"/>
</g>
<!-- Node28 -->
<g id="node25" class="node">
<title>Node28</title>
<g id="a_node25"><a xlink:href="HPViewer_8h.html" target="_top" xlink:title=" ">
<polygon fill="#fff0f0" stroke="red" points="1215,-140 1143,-140 1143,-121 1215,-121 1215,-140"/>
<text text-anchor="middle" x="1179" y="-128" font-family="Helvetica,sans-Serif" font-size="10.00">HPViewer.h</text>
</a>
</g>
</g>
<!-- Node9&#45;&gt;Node28 -->
<g id="edge28" class="edge">
<title>Node9&#45;&gt;Node28</title>
<path fill="none" stroke="#63b8ff" d="M1179,-165.66C1179,-156.93 1179,-146.99 1179,-140.09"/>
<polygon fill="#63b8ff" stroke="#63b8ff" points="1175.5,-165.75 1179,-175.75 1182.5,-165.75 1175.5,-165.75"/>
</g>
<!-- Node30 -->
<g id="node26" class="node">
<title>Node30</title>
<g id="a_node26"><a xlink:href="Player_8h.html" target="_top" xlink:title=" ">
<polygon fill="#fff0f0" stroke="red" points="1101,-79.5 1045,-79.5 1045,-60.5 1101,-60.5 1101,-79.5"/>
<text text-anchor="middle" x="1073" y="-67.5" font-family="Helvetica,sans-Serif" font-size="10.00">Player.h</text>
</a>
</g>
</g>
<!-- Node9&#45;&gt;Node30 -->
<g id="edge41" class="edge">
<title>Node9&#45;&gt;Node30</title>
<path fill="none" stroke="#63b8ff" d="M1162.6,-168.8C1153.95,-160.39 1143.25,-149.78 1134,-140 1114.01,-118.86 1091.61,-92.9 1080.33,-79.66"/>
<polygon fill="#63b8ff" stroke="#63b8ff" points="1160.23,-171.38 1169.86,-175.81 1165.1,-166.34 1160.23,-171.38"/>
</g>
<!-- Node32 -->
<g id="node27" class="node">
<title>Node32</title>
<g id="a_node27"><a xlink:href="HighlightEnemy_8h.html" target="_top" xlink:title=" ">
<polygon fill="white" stroke="#666666" points="1335,-140 1233,-140 1233,-121 1335,-121 1335,-140"/>
<text text-anchor="middle" x="1284" y="-128" font-family="Helvetica,sans-Serif" font-size="10.00">HighlightEnemy.h</text>
</a>
</g>
</g>
<!-- Node9&#45;&gt;Node32 -->
<g id="edge31" class="edge">
<title>Node9&#45;&gt;Node32</title>
<path fill="none" stroke="#63b8ff" d="M1205.02,-171.37C1224.3,-161.63 1250.05,-148.64 1266.82,-140.17"/>
<polygon fill="#63b8ff" stroke="#63b8ff" points="1203.22,-168.35 1195.87,-175.98 1206.37,-174.6 1203.22,-168.35"/>
</g>
<!-- Node33 -->
<g id="node28" class="node">
<title>Node33</title>
<g id="a_node28"><a xlink:href="JumpController_8h.html" target="_top" xlink:title=" ">
<polygon fill="#fff0f0" stroke="red" points="823,-140 725,-140 725,-121 823,-121 823,-140"/>
<text text-anchor="middle" x="774" y="-128" font-family="Helvetica,sans-Serif" font-size="10.00">JumpController.h</text>
</a>
</g>
</g>
<!-- Node9&#45;&gt;Node33 -->
<g id="edge32" class="edge">
<title>Node9&#45;&gt;Node33</title>
<path fill="none" stroke="#63b8ff" d="M1143.1,-180.11C1080.08,-172.36 945.48,-155.59 832,-140 829.08,-139.6 826.07,-139.18 823.04,-138.75"/>
<polygon fill="#63b8ff" stroke="#63b8ff" points="1142.94,-183.62 1153.3,-181.36 1143.8,-176.67 1142.94,-183.62"/>
</g>
<!-- Node35 -->
<g id="node29" class="node">
<title>Node35</title>
<g id="a_node29"><a xlink:href="MovingFloor_8h.html" target="_top" xlink:title=" ">
<polygon fill="#fff0f0" stroke="red" points="1924,-79.5 1838,-79.5 1838,-60.5 1924,-60.5 1924,-79.5"/>
<text text-anchor="middle" x="1881" y="-67.5" font-family="Helvetica,sans-Serif" font-size="10.00">MovingFloor.h</text>
</a>
</g>
</g>
<!-- Node9&#45;&gt;Node35 -->
<g id="edge34" class="edge">
<title>Node9&#45;&gt;Node35</title>
<path fill="none" stroke="#63b8ff" d="M1214.87,-184C1373.95,-181.64 2009.23,-170.3 2038,-140 2043.81,-133.88 2042.98,-127.82 2038,-121 2034.14,-115.72 1955.57,-92.44 1911.08,-79.59"/>
<polygon fill="#63b8ff" stroke="#63b8ff" points="1214.62,-180.51 1204.67,-184.15 1214.72,-187.51 1214.62,-180.51"/>
</g>
<!-- Node39 -->
<g id="node30" class="node">
<title>Node39</title>
<g id="a_node30"><a xlink:href="Panel_8h.html" target="_top" xlink:title=" ">
<polygon fill="#fff0f0" stroke="red" points="116,-79.5 64,-79.5 64,-60.5 116,-60.5 116,-79.5"/>
<text text-anchor="middle" x="90" y="-67.5" font-family="Helvetica,sans-Serif" font-size="10.00">Panel.h</text>
</a>
</g>
</g>
<!-- Node9&#45;&gt;Node39 -->
<g id="edge36" class="edge">
<title>Node9&#45;&gt;Node39</title>
<path fill="none" stroke="#63b8ff" d="M1143.3,-184.12C962.76,-182.04 157.35,-171.04 115,-140 95.47,-125.69 91.16,-94.61 90.23,-79.54"/>
<polygon fill="#63b8ff" stroke="#63b8ff" points="1143.29,-187.62 1153.33,-184.23 1143.37,-180.62 1143.29,-187.62"/>
</g>
<!-- Node41 -->
<g id="node31" class="node">
<title>Node41</title>
<g id="a_node31"><a xlink:href="PanelManager_8h.html" target="_top" xlink:title=" ">
<polygon fill="#fff0f0" stroke="red" points="94,-19 0,-19 0,0 94,0 94,-19"/>
<text text-anchor="middle" x="47" y="-7" font-family="Helvetica,sans-Serif" font-size="10.00">PanelManager.h</text>
</a>
</g>
</g>
<!-- Node9&#45;&gt;Node41 -->
<g id="edge38" class="edge">
<title>Node9&#45;&gt;Node41</title>
<path fill="none" stroke="#63b8ff" d="M1143.25,-184.82C966.59,-186.16 191.48,-189.17 97,-140 69.72,-125.8 66.4,-113.57 55,-85 46.03,-62.53 45.87,-33.38 46.46,-19.12"/>
<polygon fill="#63b8ff" stroke="#63b8ff" points="1143.35,-188.32 1153.32,-184.74 1143.29,-181.32 1143.35,-188.32"/>
</g>
<!-- Node46 -->
<g id="node32" class="node">
<title>Node46</title>
<g id="a_node32"><a xlink:href="PatrolChargerEnemy_8h.html" target="_top" xlink:title=" ">
<polygon fill="#fff0f0" stroke="red" points="2163,-79.5 2039,-79.5 2039,-60.5 2163,-60.5 2163,-79.5"/>
<text text-anchor="middle" x="2101" y="-67.5" font-family="Helvetica,sans-Serif" font-size="10.00">PatrolChargerEnemy.h</text>
</a>
</g>
</g>
<!-- Node9&#45;&gt;Node46 -->
<g id="edge39" class="edge">
<title>Node9&#45;&gt;Node46</title>
<path fill="none" stroke="#63b8ff" d="M1214.85,-184.35C1394.35,-183.42 2188.35,-177.2 2224,-140 2252.29,-110.48 2191.33,-90.11 2145.52,-79.52"/>
<polygon fill="#63b8ff" stroke="#63b8ff" points="1214.61,-180.85 1204.63,-184.4 1214.65,-187.85 1214.61,-180.85"/>
</g>
<!-- Node48 -->
<g id="node33" class="node">
<title>Node48</title>
<g id="a_node33"><a xlink:href="QuaternionCamera_8h.html" target="_top" xlink:title=" ">
<polygon fill="#fff0f0" stroke="red" points="959,-140 841,-140 841,-121 959,-121 959,-140"/>
<text text-anchor="middle" x="900" y="-128" font-family="Helvetica,sans-Serif" font-size="10.00">QuaternionCamera.h</text>
</a>
</g>
</g>
<!-- Node9&#45;&gt;Node48 -->
<g id="edge42" class="edge">
<title>Node9&#45;&gt;Node48</title>
<path fill="none" stroke="#63b8ff" d="M1143.42,-177.74C1092.81,-168.13 1000.07,-150.51 944.83,-140.02"/>
<polygon fill="#63b8ff" stroke="#63b8ff" points="1142.77,-181.18 1153.25,-179.61 1144.08,-174.3 1142.77,-181.18"/>
</g>
<!-- Node50 -->
<g id="node34" class="node">
<title>Node50</title>
<g id="a_node34"><a xlink:href="RespawnManager_8h.html" target="_top" xlink:title=" ">
<polygon fill="#fff0f0" stroke="red" points="2293,-79.5 2181,-79.5 2181,-60.5 2293,-60.5 2293,-79.5"/>
<text text-anchor="middle" x="2237" y="-67.5" font-family="Helvetica,sans-Serif" font-size="10.00">RespawnManager.h</text>
</a>
</g>
</g>
<!-- Node9&#45;&gt;Node50 -->
<g id="edge44" class="edge">
<title>Node9&#45;&gt;Node50</title>
<path fill="none" stroke="#63b8ff" d="M1214.57,-184.37C1395.31,-183.57 2204.7,-177.85 2241,-140 2256.61,-123.72 2247.14,-94.14 2241,-79.57"/>
<polygon fill="#63b8ff" stroke="#63b8ff" points="1214.52,-180.87 1204.53,-184.42 1214.55,-187.87 1214.52,-180.87"/>
</g>
<!-- Node52 -->
<g id="node35" class="node">
<title>Node52</title>
<g id="a_node35"><a xlink:href="SampleGame_8h.html" target="_top" xlink:title=" ">
<polygon fill="#fff0f0" stroke="red" points="2215,-140 2123,-140 2123,-121 2215,-121 2215,-140"/>
<text text-anchor="middle" x="2169" y="-128" font-family="Helvetica,sans-Serif" font-size="10.00">SampleGame.h</text>
</a>
</g>
</g>
<!-- Node9&#45;&gt;Node52 -->
<g id="edge46" class="edge">
<title>Node9&#45;&gt;Node52</title>
<path fill="none" stroke="#63b8ff" d="M1214.64,-183.99C1338.47,-181.95 1761.47,-172.86 2109,-140 2113.5,-139.57 2118.19,-139.05 2122.86,-138.48"/>
<polygon fill="#63b8ff" stroke="#63b8ff" points="1214.52,-180.49 1204.58,-184.15 1214.64,-187.49 1214.52,-180.49"/>
</g>
<!-- Node53 -->
<g id="node36" class="node">
<title>Node53</title>
<g id="a_node36"><a xlink:href="TheMain_8cpp.html" target="_top" xlink:title=" ">
<polygon fill="white" stroke="#666666" points="2021.5,-79.5 1942.5,-79.5 1942.5,-60.5 2021.5,-60.5 2021.5,-79.5"/>
<text text-anchor="middle" x="1982" y="-67.5" font-family="Helvetica,sans-Serif" font-size="10.00">TheMain.cpp</text>
</a>
</g>
</g>
<!-- Node9&#45;&gt;Node53 -->
<g id="edge65" class="edge">
<title>Node9&#45;&gt;Node53</title>
<path fill="none" stroke="#63b8ff" d="M1215,-184.04C1376.16,-181.8 2024.65,-170.88 2054,-140 2075.47,-117.41 2031.15,-92.48 2002.95,-79.66"/>
<polygon fill="#63b8ff" stroke="#63b8ff" points="1214.63,-180.54 1204.68,-184.18 1214.73,-187.54 1214.63,-180.54"/>
</g>
<!-- Node54 -->
<g id="node37" class="node">
<title>Node54</title>
<g id="a_node37"><a xlink:href="SampleScene_8cpp.html" target="_top" xlink:title=" ">
<polygon fill="white" stroke="#666666" points="1610.5,-140 1507.5,-140 1507.5,-121 1610.5,-121 1610.5,-140"/>
<text text-anchor="middle" x="1559" y="-128" font-family="Helvetica,sans-Serif" font-size="10.00">SampleScene.cpp</text>
</a>
</g>
</g>
<!-- Node9&#45;&gt;Node54 -->
<g id="edge48" class="edge">
<title>Node9&#45;&gt;Node54</title>
<path fill="none" stroke="#63b8ff" d="M1214.65,-179.53C1282.15,-170.11 1428.84,-149.65 1507.2,-138.72"/>
<polygon fill="#63b8ff" stroke="#63b8ff" points="1213.94,-176.09 1204.52,-180.94 1214.91,-183.03 1213.94,-176.09"/>
</g>
<!-- Node55 -->
<g id="node38" class="node">
<title>Node55</title>
<g id="a_node38"><a xlink:href="ScoreItem_8h.html" target="_top" xlink:title=" ">
<polygon fill="#fff0f0" stroke="red" points="541.5,-140 466.5,-140 466.5,-121 541.5,-121 541.5,-140"/>
<text text-anchor="middle" x="504" y="-128" font-family="Helvetica,sans-Serif" font-size="10.00">ScoreItem.h</text>
</a>
</g>
</g>
<!-- Node9&#45;&gt;Node55 -->
<g id="edge49" class="edge">
<title>Node9&#45;&gt;Node55</title>
<path fill="none" stroke="#63b8ff" d="M1143.38,-183.38C1047.28,-180.05 774.79,-168.63 550,-140 547.26,-139.65 544.44,-139.25 541.6,-138.8"/>
<polygon fill="#63b8ff" stroke="#63b8ff" points="1143.32,-186.88 1153.43,-183.72 1143.56,-179.88 1143.32,-186.88"/>
</g>
<!-- Node57 -->
<g id="node39" class="node">
<title>Node57</title>
<g id="a_node39"><a xlink:href="ScoreViewer_8h.html" target="_top" xlink:title=" ">
<polygon fill="#fff0f0" stroke="red" points="1715,-140 1629,-140 1629,-121 1715,-121 1715,-140"/>
<text text-anchor="middle" x="1672" y="-128" font-family="Helvetica,sans-Serif" font-size="10.00">ScoreViewer.h</text>
</a>
</g>
</g>
<!-- Node9&#45;&gt;Node57 -->
<g id="edge51" class="edge">
<title>Node9&#45;&gt;Node57</title>
<path fill="none" stroke="#63b8ff" d="M1215.19,-181.56C1290.51,-175.28 1469.52,-159.53 1619,-140 1622.23,-139.58 1625.57,-139.11 1628.93,-138.62"/>
<polygon fill="#63b8ff" stroke="#63b8ff" points="1214.53,-178.1 1204.85,-182.42 1215.1,-185.08 1214.53,-178.1"/>
</g>
<!-- Node59 -->
<g id="node40" class="node">
<title>Node59</title>
<g id="a_node40"><a xlink:href="SeaPlane_8h.html" target="_top" xlink:title=" ">
<polygon fill="#fff0f0" stroke="red" points="630.5,-140 559.5,-140 559.5,-121 630.5,-121 630.5,-140"/>
<text text-anchor="middle" x="595" y="-128" font-family="Helvetica,sans-Serif" font-size="10.00">SeaPlane.h</text>
</a>
</g>
</g>
<!-- Node9&#45;&gt;Node59 -->
<g id="edge52" class="edge">
<title>Node9&#45;&gt;Node59</title>
<path fill="none" stroke="#63b8ff" d="M1143.34,-182.58C1057.36,-177.73 831.94,-163.64 645,-140 640.37,-139.41 635.51,-138.71 630.72,-137.95"/>
<polygon fill="#63b8ff" stroke="#63b8ff" points="1143.17,-186.08 1153.35,-183.14 1143.56,-179.09 1143.17,-186.08"/>
</g>
<!-- Node61 -->
<g id="node41" class="node">
<title>Node61</title>
<g id="a_node41"><a xlink:href="SkySphere_8h.html" target="_top" xlink:title=" ">
<polygon fill="#fff0f0" stroke="red" points="400.5,-79.5 323.5,-79.5 323.5,-60.5 400.5,-60.5 400.5,-79.5"/>
<text text-anchor="middle" x="362" y="-67.5" font-family="Helvetica,sans-Serif" font-size="10.00">SkySphere.h</text>
</a>
</g>
</g>
<!-- Node9&#45;&gt;Node61 -->
<g id="edge54" class="edge">
<title>Node9&#45;&gt;Node61</title>
<path fill="none" stroke="#63b8ff" d="M1142.69,-184.17C999.5,-182.61 478.66,-174.61 414,-140 388.87,-126.55 372.4,-95.06 365.58,-79.71"/>
<polygon fill="#63b8ff" stroke="#63b8ff" points="1143.06,-187.67 1153.1,-184.28 1143.13,-180.67 1143.06,-187.67"/>
</g>
<!-- Node63 -->
<g id="node42" class="node">
<title>Node63</title>
<g id="a_node42"><a xlink:href="Slider_8h.html" target="_top" xlink:title=" ">
<polygon fill="#fff0f0" stroke="red" points="471.5,-79.5 418.5,-79.5 418.5,-60.5 471.5,-60.5 471.5,-79.5"/>
<text text-anchor="middle" x="445" y="-67.5" font-family="Helvetica,sans-Serif" font-size="10.00">Slider.h</text>
</a>
</g>
</g>
<!-- Node9&#45;&gt;Node63 -->
<g id="edge57" class="edge">
<title>Node9&#45;&gt;Node63</title>
<path fill="none" stroke="#63b8ff" d="M1142.83,-183.73C995.73,-180.44 448.93,-166.45 424,-140 408.02,-123.05 426.35,-94.31 437.56,-79.85"/>
<polygon fill="#63b8ff" stroke="#63b8ff" points="1143.04,-187.24 1153.11,-183.96 1143.19,-180.24 1143.04,-187.24"/>
</g>
<!-- Node65 -->
<g id="node43" class="node">
<title>Node65</title>
<g id="a_node43"><a xlink:href="SphericalCamera_8h.html" target="_top" xlink:title=" ">
<polygon fill="#fff0f0" stroke="red" points="1086.5,-140 977.5,-140 977.5,-121 1086.5,-121 1086.5,-140"/>
<text text-anchor="middle" x="1032" y="-128" font-family="Helvetica,sans-Serif" font-size="10.00">SphericalCamera.h</text>
</a>
</g>
</g>
<!-- Node9&#45;&gt;Node65 -->
<g id="edge59" class="edge">
<title>Node9&#45;&gt;Node65</title>
<path fill="none" stroke="#63b8ff" d="M1145.86,-172.55C1118.56,-162.71 1080.5,-148.98 1056.05,-140.17"/>
<polygon fill="#63b8ff" stroke="#63b8ff" points="1144.79,-175.89 1155.38,-175.98 1147.16,-169.3 1144.79,-175.89"/>
</g>
<!-- Node67 -->
<g id="node44" class="node">
<title>Node67</title>
<g id="a_node44"><a xlink:href="StageEditScene_8cpp.html" target="_top" xlink:title=" ">
<polygon fill="white" stroke="#666666" points="1846.5,-140 1733.5,-140 1733.5,-121 1846.5,-121 1846.5,-140"/>
<text text-anchor="middle" x="1790" y="-128" font-family="Helvetica,sans-Serif" font-size="10.00">StageEditScene.cpp</text>
</a>
</g>
</g>
<!-- Node9&#45;&gt;Node67 -->
<g id="edge61" class="edge">
<title>Node9&#45;&gt;Node67</title>
<path fill="none" stroke="#63b8ff" d="M1214.72,-182.16C1301.87,-176.33 1532.31,-160.16 1724,-140 1727.1,-139.67 1730.28,-139.32 1733.49,-138.95"/>
<polygon fill="#63b8ff" stroke="#63b8ff" points="1214.32,-178.68 1204.58,-182.84 1214.79,-185.67 1214.32,-178.68"/>
</g>
<!-- Node68 -->
<g id="node45" class="node">
<title>Node68</title>
<g id="a_node45"><a xlink:href="StageManager_8h.html" target="_top" xlink:title=" ">
<polygon fill="#fff0f0" stroke="red" points="305.5,-79.5 210.5,-79.5 210.5,-60.5 305.5,-60.5 305.5,-79.5"/>
<text text-anchor="middle" x="258" y="-67.5" font-family="Helvetica,sans-Serif" font-size="10.00">StageManager.h</text>
</a>
</g>
</g>
<!-- Node9&#45;&gt;Node68 -->
<g id="edge62" class="edge">
<title>Node9&#45;&gt;Node68</title>
<path fill="none" stroke="#63b8ff" d="M1143.02,-184.5C1008.28,-184.18 533.83,-180.17 389,-140 341.69,-126.88 292.05,-94.93 269.9,-79.55"/>
<polygon fill="#63b8ff" stroke="#63b8ff" points="1143.2,-188 1153.21,-184.52 1143.21,-181 1143.2,-188"/>
</g>
<!-- Node70 -->
<g id="node46" class="node">
<title>Node70</title>
<g id="a_node46"><a xlink:href="UIComponent_8h.html" target="_top" xlink:title=" ">
<polygon fill="#fff0f0" stroke="red" points="216,-140 124,-140 124,-121 216,-121 216,-140"/>
<text text-anchor="middle" x="170" y="-128" font-family="Helvetica,sans-Serif" font-size="10.00">UIComponent.h</text>
</a>
</g>
</g>
<!-- Node9&#45;&gt;Node70 -->
<g id="edge67" class="edge">
<title>Node9&#45;&gt;Node70</title>
<path fill="none" stroke="#63b8ff" d="M1143.18,-183.46C1019.63,-179.72 599.85,-165.8 254,-140 241.72,-139.08 228.46,-137.85 216.18,-136.61"/>
<polygon fill="#63b8ff" stroke="#63b8ff" points="1143.12,-186.96 1153.22,-183.76 1143.33,-179.96 1143.12,-186.96"/>
</g>
<!-- Node72 -->
<g id="node47" class="node">
<title>Node72</title>
<g id="a_node47"><a xlink:href="mtgb_8cpp.html" target="_top" xlink:title=" ">
<polygon fill="white" stroke="#666666" points="1927,-140 1865,-140 1865,-121 1927,-121 1927,-140"/>
<text text-anchor="middle" x="1896" y="-128" font-family="Helvetica,sans-Serif" font-size="10.00">mtgb.cpp</text>
</a>
</g>
</g>
<!-- Node9&#45;&gt;Node72 -->
<g id="edge71" class="edge">
<title>Node9&#45;&gt;Node72</title>
<path fill="none" stroke="#63b8ff" d="M1214.87,-183.89C1315.99,-181.79 1611.83,-173.05 1855,-140 1858.17,-139.57 1861.46,-139.04 1864.74,-138.45"/>
<polygon fill="#63b8ff" stroke="#63b8ff" points="1214.53,-180.39 1204.6,-184.09 1214.67,-187.39 1214.53,-180.39"/>
</g>
<!-- Node11 -->
<g id="node11" class="node">
<title>Node11</title>
<g id="a_node11"><a xlink:href="Box3D_8cpp.html" target="_top" xlink:title=" ">
<polygon fill="white" stroke="#666666" points="2380.5,-79.5 2311.5,-79.5 2311.5,-60.5 2380.5,-60.5 2380.5,-79.5"/>
<text text-anchor="middle" x="2346" y="-67.5" font-family="Helvetica,sans-Serif" font-size="10.00">Box3D.cpp</text>
</a>
</g>
</g>
<!-- Node10&#45;&gt;Node11 -->
<g id="edge11" class="edge">
<title>Node10&#45;&gt;Node11</title>
<path fill="none" stroke="#63b8ff" d="M2340.58,-110.66C2342,-100.24 2343.7,-87.8 2344.81,-79.67"/>
<polygon fill="#63b8ff" stroke="#63b8ff" points="2337.07,-110.49 2339.18,-120.87 2344,-111.43 2337.07,-110.49"/>
</g>
<!-- Node12 -->
<g id="node12" class="node">
<title>Node12</title>
<g id="a_node12"><a xlink:href="RegisterCommonGameObjectType_8cpp.html" target="_top" xlink:title=" ">
<polygon fill="white" stroke="#666666" points="2561,-85 2399,-85 2399,-55 2561,-55 2561,-85"/>
<text text-anchor="start" x="2407" y="-73" font-family="Helvetica,sans-Serif" font-size="10.00">RegisterCommonGameObject</text>
<text text-anchor="middle" x="2480" y="-62" font-family="Helvetica,sans-Serif" font-size="10.00">Type.cpp</text>
</a>
</g>
</g>
<!-- Node10&#45;&gt;Node12 -->
<g id="edge12" class="edge">
<title>Node10&#45;&gt;Node12</title>
<path fill="none" stroke="#63b8ff" d="M2368.15,-117.08C2390.91,-107.7 2422.17,-94.82 2445.86,-85.06"/>
<polygon fill="#63b8ff" stroke="#63b8ff" points="2366.56,-113.95 2358.65,-120.99 2369.23,-120.42 2366.56,-113.95"/>
</g>
<!-- Node14 -->
<g id="node14" class="node">
<title>Node14</title>
<g id="a_node14"><a xlink:href="Button_8cpp.html" target="_top" xlink:title=" ">
<polygon fill="white" stroke="#666666" points="191.5,-19 122.5,-19 122.5,0 191.5,0 191.5,-19"/>
<text text-anchor="middle" x="157" y="-7" font-family="Helvetica,sans-Serif" font-size="10.00">Button.cpp</text>
</a>
</g>
</g>
<!-- Node13&#45;&gt;Node14 -->
<g id="edge14" class="edge">
<title>Node13&#45;&gt;Node14</title>
<path fill="none" stroke="#63b8ff" d="M161.07,-50.16C160,-39.74 158.72,-27.3 157.89,-19.17"/>
<polygon fill="#63b8ff" stroke="#63b8ff" points="157.61,-50.78 162.11,-60.37 164.58,-50.06 157.61,-50.78"/>
</g>
<!-- Node15 -->
<g id="node15" class="node">
<title>Node15</title>
<g id="a_node15"><a xlink:href="ResultScene_8cpp.html" target="_top" xlink:title=" ">
<polygon fill="white" stroke="#666666" points="306.5,-19 209.5,-19 209.5,0 306.5,0 306.5,-19"/>
<text text-anchor="middle" x="258" y="-7" font-family="Helvetica,sans-Serif" font-size="10.00">ResultScene.cpp</text>
</a>
</g>
</g>
<!-- Node13&#45;&gt;Node15 -->
<g id="edge15" class="edge">
<title>Node13&#45;&gt;Node15</title>
<path fill="none" stroke="#63b8ff" d="M185.79,-54.97C203.88,-43.82 228.61,-28.6 243.92,-19.17"/>
<polygon fill="#63b8ff" stroke="#63b8ff" points="183.7,-52.14 177.02,-60.37 187.37,-58.1 183.7,-52.14"/>
</g>
<!-- Node13&#45;&gt;Node16 -->
<g id="edge16" class="edge">
<title>Node13&#45;&gt;Node16</title>
<path fill="none" stroke="#63b8ff" d="M195.17,-56.91C197.13,-56.25 199.09,-55.6 201,-55 245.88,-40.82 298.45,-27.4 332.67,-19.08"/>
<polygon fill="#63b8ff" stroke="#63b8ff" points="193.65,-53.73 185.38,-60.36 195.98,-60.34 193.65,-53.73"/>
</g>
<!-- Node18 -->
<g id="node18" class="node">
<title>Node18</title>
<g id="a_node18"><a xlink:href="CircularSaw_8cpp.html" target="_top" xlink:title=" ">
<polygon fill="white" stroke="#666666" points="1782,-79.5 1688,-79.5 1688,-60.5 1782,-60.5 1782,-79.5"/>
<text text-anchor="middle" x="1735" y="-67.5" font-family="Helvetica,sans-Serif" font-size="10.00">CircularSaw.cpp</text>
</a>
</g>
</g>
<!-- Node17&#45;&gt;Node18 -->
<g id="edge18" class="edge">
<title>Node17&#45;&gt;Node18</title>
<path fill="none" stroke="#63b8ff" d="M1940.39,-118.68C1891.7,-107.38 1816.31,-89.88 1771.69,-79.52"/>
<polygon fill="#63b8ff" stroke="#63b8ff" points="1939.82,-122.14 1950.36,-120.99 1941.41,-115.32 1939.82,-122.14"/>
</g>
<!-- Node19 -->
<g id="node19" class="node">
<title>Node19</title>
<g id="a_node19"><a xlink:href="RegisterGameObjectType_8cpp.html" target="_top" xlink:title=" ">
<polygon fill="white" stroke="#666666" points="1542.5,-19 1381.5,-19 1381.5,0 1542.5,0 1542.5,-19"/>
<text text-anchor="middle" x="1462" y="-7" font-family="Helvetica,sans-Serif" font-size="10.00">RegisterGameObjectType.cpp</text>
</a>
</g>
</g>
<!-- Node17&#45;&gt;Node19 -->
<g id="edge19" class="edge">
<title>Node17&#45;&gt;Node19</title>
<path fill="none" stroke="#63b8ff" d="M1935.43,-120.35C1903.59,-113.41 1862.56,-102.11 1829,-85 1809.83,-75.23 1810.81,-63.41 1791,-55 1747.63,-36.59 1625.46,-23.55 1542.83,-16.52"/>
<polygon fill="#63b8ff" stroke="#63b8ff" points="1934.92,-123.82 1945.42,-122.45 1936.36,-116.97 1934.92,-123.82"/>
</g>
<!-- Node21 -->
<g id="node21" class="node">
<title>Node21</title>
<g id="a_node21"><a xlink:href="FadeOutScreen_8cpp.html" target="_top" xlink:title=" ">
<polygon fill="white" stroke="#666666" points="1401,-79.5 1291,-79.5 1291,-60.5 1401,-60.5 1401,-79.5"/>
<text text-anchor="middle" x="1346" y="-67.5" font-family="Helvetica,sans-Serif" font-size="10.00">FadeOutScreen.cpp</text>
</a>
</g>
</g>
<!-- Node20&#45;&gt;Node21 -->
<g id="edge21" class="edge">
<title>Node20&#45;&gt;Node21</title>
<path fill="none" stroke="#63b8ff" d="M1386.77,-113.59C1376.31,-102.67 1362.83,-88.58 1354.3,-79.67"/>
<polygon fill="#63b8ff" stroke="#63b8ff" points="1384.29,-116.06 1393.74,-120.87 1389.35,-111.22 1384.29,-116.06"/>
</g>
<!-- Node20&#45;&gt;Node22 -->
<g id="edge22" class="edge">
<title>Node20&#45;&gt;Node22</title>
<path fill="none" stroke="#63b8ff" d="M1421.69,-114.54C1436.23,-103.49 1455.52,-88.84 1467.59,-79.67"/>
<polygon fill="#63b8ff" stroke="#63b8ff" points="1419.21,-112.03 1413.36,-120.87 1423.44,-117.61 1419.21,-112.03"/>
</g>
<!-- Node24&#45;&gt;Node19 -->
<g id="edge25" class="edge">
<title>Node24&#45;&gt;Node19</title>
<path fill="none" stroke="#63b8ff" d="M850.09,-58.69C858.07,-57.31 866.24,-56.01 874,-55 1054.44,-31.4 1267.78,-19.12 1381.35,-13.82"/>
<polygon fill="#63b8ff" stroke="#63b8ff" points="849.35,-55.27 840.13,-60.49 850.6,-62.16 849.35,-55.27"/>
</g>
<!-- Node26&#45;&gt;Node19 -->
<g id="edge27" class="edge">
<title>Node26&#45;&gt;Node19</title>
<path fill="none" stroke="#63b8ff" d="M941.35,-65.23C967.34,-62.39 1003.91,-58.42 1036,-55 1156.16,-42.2 1295.42,-27.72 1381.12,-18.85"/>
<polygon fill="#63b8ff" stroke="#63b8ff" points="940.81,-61.77 931.25,-66.34 941.57,-68.73 940.81,-61.77"/>
</g>
<!-- Node28&#45;&gt;Node30 -->
<g id="edge29" class="edge">
<title>Node28&#45;&gt;Node30</title>
<path fill="none" stroke="#63b8ff" d="M1154.4,-115.92C1134.14,-104.74 1106.03,-89.23 1088.7,-79.67"/>
<polygon fill="#63b8ff" stroke="#63b8ff" points="1152.91,-119.1 1163.36,-120.87 1156.3,-112.97 1152.91,-119.1"/>
</g>
<!-- Node30&#45;&gt;Node19 -->
<g id="edge30" class="edge">
<title>Node30&#45;&gt;Node19</title>
<path fill="none" stroke="#63b8ff" d="M1111.26,-63.25C1180.06,-52.9 1324.95,-31.11 1405.31,-19.03"/>
<polygon fill="#63b8ff" stroke="#63b8ff" points="1110.66,-59.8 1101.29,-64.75 1111.7,-66.72 1110.66,-59.8"/>
</g>
<!-- Node33&#45;&gt;Node30 -->
<g id="edge33" class="edge">
<title>Node33&#45;&gt;Node30</title>
<path fill="none" stroke="#63b8ff" d="M827.33,-119.07C890.96,-106.62 994.97,-86.27 1044.74,-76.53"/>
<polygon fill="#63b8ff" stroke="#63b8ff" points="826.62,-115.64 817.48,-120.99 827.96,-122.51 826.62,-115.64"/>
</g>
<!-- Node35&#45;&gt;Node19 -->
<g id="edge35" class="edge">
<title>Node35&#45;&gt;Node19</title>
<path fill="none" stroke="#63b8ff" d="M1839.4,-58.18C1834.23,-57.01 1829.01,-55.92 1824,-55 1727.93,-37.36 1616.21,-24.82 1542.57,-17.64"/>
<polygon fill="#63b8ff" stroke="#63b8ff" points="1838.65,-61.6 1849.19,-60.48 1840.25,-54.78 1838.65,-61.6"/>
</g>
<!-- Node39&#45;&gt;Node41 -->
<g id="edge37" class="edge">
<title>Node39&#45;&gt;Node41</title>
<path fill="none" stroke="#63b8ff" d="M77.6,-52.13C69.68,-41.35 59.73,-27.82 53.37,-19.17"/>
<polygon fill="#63b8ff" stroke="#63b8ff" points="74.91,-54.38 83.66,-60.37 80.55,-50.24 74.91,-54.38"/>
</g>
<!-- Node46&#45;&gt;Node19 -->
<g id="edge40" class="edge">
<title>Node46&#45;&gt;Node19</title>
<path fill="none" stroke="#63b8ff" d="M2052.14,-58.59C2044.75,-57.24 2037.19,-55.99 2030,-55 1857.29,-31.29 1653.16,-19.13 1542.74,-13.86"/>
<polygon fill="#63b8ff" stroke="#63b8ff" points="2051.6,-62.05 2062.08,-60.48 2052.9,-55.17 2051.6,-62.05"/>
</g>
<!-- Node48&#45;&gt;Node30 -->
<g id="edge43" class="edge">
<title>Node48&#45;&gt;Node30</title>
<path fill="none" stroke="#63b8ff" d="M934.98,-117.67C968.44,-106.36 1018.08,-89.57 1047.81,-79.52"/>
<polygon fill="#63b8ff" stroke="#63b8ff" points="933.51,-114.47 925.16,-120.99 935.75,-121.11 933.51,-114.47"/>
</g>
<!-- Node50&#45;&gt;Node19 -->
<g id="edge45" class="edge">
<title>Node50&#45;&gt;Node19</title>
<path fill="none" stroke="#63b8ff" d="M2191.85,-58.37C2185.22,-57.07 2178.45,-55.89 2172,-55 1945.21,-23.65 1674.58,-14.37 1542.51,-11.63"/>
<polygon fill="#63b8ff" stroke="#63b8ff" points="2191.59,-61.89 2202.09,-60.48 2193,-55.03 2191.59,-61.89"/>
</g>
<!-- Node52&#45;&gt;Node53 -->
<g id="edge47" class="edge">
<title>Node52&#45;&gt;Node53</title>
<path fill="none" stroke="#63b8ff" d="M2132.12,-117.96C2095.95,-106.65 2041.65,-89.66 2009.22,-79.52"/>
<polygon fill="#63b8ff" stroke="#63b8ff" points="2131.22,-121.35 2141.81,-120.99 2133.31,-114.67 2131.22,-121.35"/>
</g>
<!-- Node55&#45;&gt;Node19 -->
<g id="edge50" class="edge">
<title>Node55&#45;&gt;Node19</title>
<path fill="none" stroke="#63b8ff" d="M526.89,-115.51C557.22,-97.78 612.96,-67.99 665,-55 798.87,-21.59 1206.69,-13.23 1381.29,-11.17"/>
<polygon fill="#63b8ff" stroke="#63b8ff" points="524.79,-112.69 517.97,-120.8 528.36,-118.7 524.79,-112.69"/>
</g>
<!-- Node59&#45;&gt;Node19 -->
<g id="edge53" class="edge">
<title>Node59&#45;&gt;Node19</title>
<path fill="none" stroke="#63b8ff" d="M615.8,-115.06C642.64,-97.3 691.43,-67.93 738,-55 856.99,-21.96 1218.6,-13.43 1381.24,-11.24"/>
<polygon fill="#63b8ff" stroke="#63b8ff" points="613.6,-112.32 607.26,-120.81 617.51,-118.13 613.6,-112.32"/>
</g>
<!-- Node61&#45;&gt;Node15 -->
<g id="edge55" class="edge">
<title>Node61&#45;&gt;Node15</title>
<path fill="none" stroke="#63b8ff" d="M337.86,-55.42C317.99,-44.24 290.41,-28.73 273.41,-19.17"/>
<polygon fill="#63b8ff" stroke="#63b8ff" points="336.22,-58.52 346.65,-60.37 339.65,-52.41 336.22,-58.52"/>
</g>
<!-- Node61&#45;&gt;Node16 -->
<g id="edge56" class="edge">
<title>Node61&#45;&gt;Node16</title>
<path fill="none" stroke="#63b8ff" d="M364.25,-50.16C365.5,-39.74 366.99,-27.3 367.96,-19.17"/>
<polygon fill="#63b8ff" stroke="#63b8ff" points="360.75,-50.02 363.03,-60.37 367.7,-50.85 360.75,-50.02"/>
</g>
<!-- Node63&#45;&gt;Node16 -->
<g id="edge58" class="edge">
<title>Node63&#45;&gt;Node16</title>
<path fill="none" stroke="#63b8ff" d="M425.56,-54.04C411.21,-42.99 392.18,-28.34 380.26,-19.17"/>
<polygon fill="#63b8ff" stroke="#63b8ff" points="423.73,-57.04 433.79,-60.37 428,-51.49 423.73,-57.04"/>
</g>
<!-- Node65&#45;&gt;Node30 -->
<g id="edge60" class="edge">
<title>Node65&#45;&gt;Node30</title>
<path fill="none" stroke="#63b8ff" d="M1043.82,-112.63C1051.38,-101.85 1060.86,-88.32 1066.93,-79.67"/>
<polygon fill="#63b8ff" stroke="#63b8ff" points="1040.92,-110.67 1038.05,-120.87 1046.66,-114.69 1040.92,-110.67"/>
</g>
<!-- Node68&#45;&gt;Node15 -->
<g id="edge63" class="edge">
<title>Node68&#45;&gt;Node15</title>
<path fill="none" stroke="#63b8ff" d="M258,-50.16C258,-39.74 258,-27.3 258,-19.17"/>
<polygon fill="#63b8ff" stroke="#63b8ff" points="254.5,-50.37 258,-60.37 261.5,-50.37 254.5,-50.37"/>
</g>
<!-- Node68&#45;&gt;Node16 -->
<g id="edge64" class="edge">
<title>Node68&#45;&gt;Node16</title>
<path fill="none" stroke="#63b8ff" d="M283.47,-55.58C304.71,-44.38 334.33,-28.77 352.55,-19.17"/>
<polygon fill="#63b8ff" stroke="#63b8ff" points="281.59,-52.61 274.38,-60.37 284.86,-58.8 281.59,-52.61"/>
</g>
<!-- Node70&#45;&gt;Node13 -->
<g id="edge68" class="edge">
<title>Node70&#45;&gt;Node13</title>
<path fill="none" stroke="#63b8ff" d="M167.75,-110.66C166.5,-100.24 165.01,-87.8 164.04,-79.67"/>
<polygon fill="#63b8ff" stroke="#63b8ff" points="164.3,-111.35 168.97,-120.87 171.25,-110.52 164.3,-111.35"/>
</g>
<!-- Node70&#45;&gt;Node39 -->
<g id="edge69" class="edge">
<title>Node70&#45;&gt;Node39</title>
<path fill="none" stroke="#63b8ff" d="M149.96,-114.85C134.81,-103.77 114.52,-88.93 101.85,-79.67"/>
<polygon fill="#63b8ff" stroke="#63b8ff" points="148.06,-117.79 158.2,-120.87 152.19,-112.14 148.06,-117.79"/>
</g>
<!-- Node70&#45;&gt;Node63 -->
<g id="edge70" class="edge">
<title>Node70&#45;&gt;Node63</title>
<path fill="none" stroke="#63b8ff" d="M226.47,-122.03C275.34,-114.84 347.61,-102.49 409,-85 414.29,-83.49 419.88,-81.52 425.04,-79.52"/>
<polygon fill="#63b8ff" stroke="#63b8ff" points="225.8,-118.59 216.41,-123.48 226.81,-125.52 225.8,-118.59"/>
</g>
<!-- Node73&#45;&gt;Node7 -->
<g id="edge73" class="edge">
<title>Node73&#45;&gt;Node7</title>
<path fill="none" stroke="#63b8ff" d="M2111.94,-233.86C2115.67,-232.87 2119.4,-231.9 2123,-231 2176.55,-217.55 2238.8,-203.64 2278.29,-195.03"/>
<polygon fill="#63b8ff" stroke="#63b8ff" points="2110.89,-230.51 2102.15,-236.49 2112.71,-237.27 2110.89,-230.51"/>
</g>
<!-- Node73&#45;&gt;Node9 -->
<g id="edge74" class="edge">
<title>Node73&#45;&gt;Node9</title>
<path fill="none" stroke="#63b8ff" d="M2020.36,-241.62C1852.6,-230.63 1326.66,-196.17 1204.52,-188.17"/>
<polygon fill="#63b8ff" stroke="#63b8ff" points="2020.22,-245.12 2030.42,-242.28 2020.67,-238.13 2020.22,-245.12"/>
</g>
<!-- Node74&#45;&gt;Node4 -->
<g id="edge76" class="edge">
<title>Node74&#45;&gt;Node4</title>
<path fill="none" stroke="#63b8ff" d="M2405.82,-226.77C2429.44,-216.22 2458.08,-203.43 2476.65,-195.14"/>
<polygon fill="#63b8ff" stroke="#63b8ff" points="2404.08,-223.71 2396.38,-230.99 2406.94,-230.11 2404.08,-223.71"/>
</g>
<!-- Node74&#45;&gt;Node7 -->
<g id="edge77" class="edge">
<title>Node74&#45;&gt;Node7</title>
<path fill="none" stroke="#63b8ff" d="M2347.16,-222.8C2339.46,-213.21 2330.89,-202.54 2325.04,-195.27"/>
<polygon fill="#63b8ff" stroke="#63b8ff" points="2344.63,-225.24 2353.62,-230.84 2350.09,-220.85 2344.63,-225.24"/>
</g>
<!-- Node74&#45;&gt;Node12 -->
<g id="edge78" class="edge">
<title>Node74&#45;&gt;Node12</title>
<path fill="none" stroke="#63b8ff" d="M2380.01,-222.29C2404.03,-185.94 2450.46,-115.69 2470.46,-85.44"/>
<polygon fill="#63b8ff" stroke="#63b8ff" points="2377,-220.49 2374.41,-230.76 2382.84,-224.35 2377,-220.49"/>
</g>
<!-- Node75&#45;&gt;Node4 -->
<g id="edge80" class="edge">
<title>Node75&#45;&gt;Node4</title>
<path fill="none" stroke="#63b8ff" d="M2526.6,-228.13C2518.68,-217.35 2508.73,-203.82 2502.37,-195.17"/>
<polygon fill="#63b8ff" stroke="#63b8ff" points="2523.91,-230.38 2532.66,-236.37 2529.55,-226.24 2523.91,-230.38"/>
</g>
<!-- Node75&#45;&gt;Node7 -->
<g id="edge81" class="edge">
<title>Node75&#45;&gt;Node7</title>
<path fill="none" stroke="#63b8ff" d="M2497.05,-233.9C2454.32,-222.58 2388.98,-205.29 2350.17,-195.02"/>
<polygon fill="#63b8ff" stroke="#63b8ff" points="2496.3,-237.32 2506.86,-236.49 2498.09,-230.55 2496.3,-237.32"/>
</g>
<!-- Node75&#45;&gt;Node19 -->
<g id="edge82" class="edge">
<title>Node75&#45;&gt;Node19</title>
<path fill="none" stroke="#63b8ff" d="M2556.18,-228.79C2564.5,-219.75 2573.61,-207.75 2578,-195 2592,-154.3 2648.11,-131.12 2570,-55 2533.31,-19.25 1791.5,-12.18 1542.61,-10.82"/>
<polygon fill="#63b8ff" stroke="#63b8ff" points="2553.42,-226.61 2548.92,-236.21 2558.42,-231.51 2553.42,-226.61"/>
</g>
</g>
</svg>
