<?xml version="1.0" encoding="UTF-8" standalone="no"?>
<!DOCTYPE svg PUBLIC "-//W3C//DTD SVG 1.1//EN"
 "http://www.w3.org/Graphics/SVG/1.1/DTD/svg11.dtd">
<!-- Generated by graphviz version 2.43.0 (0)
 -->
<!-- Title: GameObjectTag.h Pages: 1 -->
<svg width="2067pt" height="357pt"
 viewBox="0.00 0.00 2067.00 357.00" xmlns="http://www.w3.org/2000/svg" xmlns:xlink="http://www.w3.org/1999/xlink">
<g id="graph0" class="graph" transform="scale(1 1) rotate(0) translate(4 353)">
<title>GameObjectTag.h</title>
<!-- Node1 -->
<g id="node1" class="node">
<title>Node1</title>
<g id="a_node1"><a xlink:title=" ">
<polygon fill="#999999" stroke="#666666" points="957.5,-349 854.5,-349 854.5,-330 957.5,-330 957.5,-349"/>
<text text-anchor="middle" x="906" y="-337" font-family="Helvetica,sans-Serif" font-size="10.00">GameObjectTag.h</text>
</a>
</g>
</g>
<!-- Node2 -->
<g id="node2" class="node">
<title>Node2</title>
<g id="a_node2"><a xlink:href="ColliderCP_8h.html" target="_top" xlink:title=" ">
<polygon fill="white" stroke="#666666" points="1413,-294 1339,-294 1339,-275 1413,-275 1413,-294"/>
<text text-anchor="middle" x="1376" y="-282" font-family="Helvetica,sans-Serif" font-size="10.00">ColliderCP.h</text>
</a>
</g>
</g>
<!-- Node1&#45;&gt;Node2 -->
<g id="edge1" class="edge">
<title>Node1&#45;&gt;Node2</title>
<path fill="none" stroke="#63b8ff" d="M967.8,-331.53C1066.82,-320.36 1258.08,-298.8 1338.71,-289.71"/>
<polygon fill="#63b8ff" stroke="#63b8ff" points="967.19,-328.08 957.64,-332.68 967.97,-335.03 967.19,-328.08"/>
</g>
<!-- Node70 -->
<g id="node35" class="node">
<title>Node70</title>
<g id="a_node35"><a xlink:href="DetectorConfigs_8h.html" target="_top" xlink:title=" ">
<polygon fill="white" stroke="#666666" points="906,-294 802,-294 802,-275 906,-275 906,-294"/>
<text text-anchor="middle" x="854" y="-282" font-family="Helvetica,sans-Serif" font-size="10.00">DetectorConfigs.h</text>
</a>
</g>
</g>
<!-- Node1&#45;&gt;Node70 -->
<g id="edge41" class="edge">
<title>Node1&#45;&gt;Node70</title>
<path fill="none" stroke="#63b8ff" d="M890.32,-322.52C881.16,-313.18 869.95,-301.75 862.43,-294.09"/>
<polygon fill="#63b8ff" stroke="#63b8ff" points="887.91,-325.06 897.41,-329.75 892.91,-320.16 887.91,-325.06"/>
</g>
<!-- Node75 -->
<g id="node38" class="node">
<title>Node75</title>
<g id="a_node38"><a xlink:href="RectDetector_8h.html" target="_top" xlink:title=" ">
<polygon fill="white" stroke="#666666" points="1115.5,-239 1026.5,-239 1026.5,-220 1115.5,-220 1115.5,-239"/>
<text text-anchor="middle" x="1071" y="-227" font-family="Helvetica,sans-Serif" font-size="10.00">RectDetector.h</text>
</a>
</g>
</g>
<!-- Node1&#45;&gt;Node75 -->
<g id="edge82" class="edge">
<title>Node1&#45;&gt;Node75</title>
<path fill="none" stroke="#63b8ff" d="M939.58,-326.21C958.93,-318.39 983.25,-307.24 1003,-294 1027.42,-277.63 1051.49,-252.44 1063.36,-239.25"/>
<polygon fill="#63b8ff" stroke="#63b8ff" points="938.27,-322.97 930.25,-329.89 940.83,-329.48 938.27,-322.97"/>
</g>
<!-- Node76 -->
<g id="node39" class="node">
<title>Node76</title>
<g id="a_node39"><a xlink:href="GameObjectBuilder_8h.html" target="_top" xlink:title=" ">
<polygon fill="white" stroke="#666666" points="752,-239 632,-239 632,-220 752,-220 752,-239"/>
<text text-anchor="middle" x="692" y="-227" font-family="Helvetica,sans-Serif" font-size="10.00">GameObjectBuilder.h</text>
</a>
</g>
</g>
<!-- Node1&#45;&gt;Node76 -->
<g id="edge48" class="edge">
<title>Node1&#45;&gt;Node76</title>
<path fill="none" stroke="#63b8ff" d="M870.72,-326.53C848.06,-318.37 818.24,-306.76 793,-294 759.36,-276.99 722.5,-252.07 704.01,-239.09"/>
<polygon fill="#63b8ff" stroke="#63b8ff" points="869.68,-329.87 880.28,-329.91 872.02,-323.27 869.68,-329.87"/>
</g>
<!-- Node152 -->
<g id="node42" class="node">
<title>Node152</title>
<g id="a_node42"><a xlink:href="GameScene_8h.html" target="_top" xlink:title=" ">
<polygon fill="white" stroke="#666666" points="452,-239 368,-239 368,-220 452,-220 452,-239"/>
<text text-anchor="middle" x="410" y="-227" font-family="Helvetica,sans-Serif" font-size="10.00">GameScene.h</text>
</a>
</g>
</g>
<!-- Node1&#45;&gt;Node152 -->
<g id="edge56" class="edge">
<title>Node1&#45;&gt;Node152</title>
<path fill="none" stroke="#63b8ff" d="M856.67,-327.76C758.19,-306.32 538.97,-258.58 449.34,-239.07"/>
<polygon fill="#63b8ff" stroke="#63b8ff" points="856.15,-331.23 866.67,-329.94 857.64,-324.39 856.15,-331.23"/>
</g>
<!-- Node161 -->
<g id="node50" class="node">
<title>Node161</title>
<g id="a_node50"><a xlink:href="IDetector_8h.html" target="_top" xlink:title=" ">
<polygon fill="white" stroke="#666666" points="994,-294 924,-294 924,-275 994,-275 994,-294"/>
<text text-anchor="middle" x="959" y="-282" font-family="Helvetica,sans-Serif" font-size="10.00">IDetector.h</text>
</a>
</g>
</g>
<!-- Node1&#45;&gt;Node161 -->
<g id="edge78" class="edge">
<title>Node1&#45;&gt;Node161</title>
<path fill="none" stroke="#63b8ff" d="M921.98,-322.52C931.32,-313.18 942.75,-301.75 950.41,-294.09"/>
<polygon fill="#63b8ff" stroke="#63b8ff" points="919.35,-320.2 914.75,-329.75 924.3,-325.15 919.35,-320.2"/>
</g>
<!-- Node3 -->
<g id="node3" class="node">
<title>Node3</title>
<g id="a_node3"><a xlink:href="Collider_8h.html" target="_top" xlink:title=" ">
<polygon fill="white" stroke="#666666" points="1649,-239 1587,-239 1587,-220 1649,-220 1649,-239"/>
<text text-anchor="middle" x="1618" y="-227" font-family="Helvetica,sans-Serif" font-size="10.00">Collider.h</text>
</a>
</g>
</g>
<!-- Node2&#45;&gt;Node3 -->
<g id="edge2" class="edge">
<title>Node2&#45;&gt;Node3</title>
<path fill="none" stroke="#63b8ff" d="M1419.61,-272.73C1467.84,-261.75 1544.14,-245.13 1586.77,-236.37"/>
<polygon fill="#63b8ff" stroke="#63b8ff" points="1418.73,-269.34 1409.77,-274.98 1420.3,-276.17 1418.73,-269.34"/>
</g>
<!-- Node35 -->
<g id="node7" class="node">
<title>Node35</title>
<g id="a_node7"><a xlink:href="mtgb_8h.html" target="_top" xlink:title=" ">
<polygon fill="#fff0f0" stroke="red" points="1052.5,-129 1001.5,-129 1001.5,-110 1052.5,-110 1052.5,-129"/>
<text text-anchor="middle" x="1027" y="-117" font-family="Helvetica,sans-Serif" font-size="10.00">mtgb.h</text>
</a>
</g>
</g>
<!-- Node2&#45;&gt;Node35 -->
<g id="edge40" class="edge">
<title>Node2&#45;&gt;Node35</title>
<path fill="none" stroke="#63b8ff" d="M1335.38,-271.5C1316.76,-264.4 1295.46,-253.85 1280,-239 1253.34,-213.39 1271.43,-187.38 1242,-165 1212.42,-142.5 1103.16,-128.46 1052.77,-123.04"/>
<polygon fill="#63b8ff" stroke="#63b8ff" points="1334.23,-274.8 1344.82,-274.89 1336.6,-268.21 1334.23,-274.8"/>
</g>
<!-- Node63 -->
<g id="node28" class="node">
<title>Node63</title>
<g id="a_node28"><a xlink:href="TerrainReader_8h.html" target="_top" xlink:title=" ">
<polygon fill="white" stroke="#666666" points="2047,-184 1955,-184 1955,-165 2047,-165 2047,-184"/>
<text text-anchor="middle" x="2001" y="-172" font-family="Helvetica,sans-Serif" font-size="10.00">TerrainReader.h</text>
</a>
</g>
</g>
<!-- Node2&#45;&gt;Node63 -->
<g id="edge39" class="edge">
<title>Node2&#45;&gt;Node63</title>
<path fill="none" stroke="#63b8ff" d="M1422.98,-276.48C1479.01,-268.01 1575.45,-253.15 1658,-239 1765.59,-220.56 1891.72,-196.6 1956.94,-184.04"/>
<polygon fill="#63b8ff" stroke="#63b8ff" points="1422.37,-273.03 1413,-277.98 1423.41,-279.95 1422.37,-273.03"/>
</g>
<!-- Node65 -->
<g id="node30" class="node">
<title>Node65</title>
<g id="a_node30"><a xlink:href="ColliderCP_8cpp.html" target="_top" xlink:title=" ">
<polygon fill="white" stroke="#666666" points="706,-129 620,-129 620,-110 706,-110 706,-129"/>
<text text-anchor="middle" x="663" y="-117" font-family="Helvetica,sans-Serif" font-size="10.00">ColliderCP.cpp</text>
</a>
</g>
</g>
<!-- Node2&#45;&gt;Node65 -->
<g id="edge34" class="edge">
<title>Node2&#45;&gt;Node65</title>
<path fill="none" stroke="#63b8ff" d="M1388.96,-266.56C1397.64,-252.99 1405.85,-233.97 1396,-220 1354.13,-160.59 1313.15,-179.84 1242,-165 1012.18,-117.07 948.21,-155.97 715,-129 712.09,-128.66 709.1,-128.28 706.09,-127.86"/>
<polygon fill="#63b8ff" stroke="#63b8ff" points="1385.95,-264.76 1383.08,-274.96 1391.68,-268.77 1385.95,-264.76"/>
</g>
<!-- Node66 -->
<g id="node31" class="node">
<title>Node66</title>
<g id="a_node31"><a xlink:href="ImGuiEditorCamera_8cpp.html" target="_top" xlink:title=" ">
<polygon fill="white" stroke="#666666" points="983.5,-129 850.5,-129 850.5,-110 983.5,-110 983.5,-129"/>
<text text-anchor="middle" x="917" y="-117" font-family="Helvetica,sans-Serif" font-size="10.00">ImGuiEditorCamera.cpp</text>
</a>
</g>
</g>
<!-- Node2&#45;&gt;Node66 -->
<g id="edge35" class="edge">
<title>Node2&#45;&gt;Node66</title>
<path fill="none" stroke="#63b8ff" d="M1401.25,-269.24C1411.91,-261.75 1423.17,-251.51 1429,-239 1442.89,-209.19 1451.28,-189.19 1429,-165 1395.99,-129.16 1040.49,-133.74 992,-129 989.26,-128.73 986.47,-128.45 983.65,-128.16"/>
<polygon fill="#63b8ff" stroke="#63b8ff" points="1399.06,-266.49 1392.58,-274.87 1402.88,-272.36 1399.06,-266.49"/>
</g>
<!-- Node67 -->
<g id="node32" class="node">
<title>Node67</title>
<g id="a_node32"><a xlink:href="RectDetector_8cpp.html" target="_top" xlink:title=" ">
<polygon fill="white" stroke="#666666" points="1233,-184 1133,-184 1133,-165 1233,-165 1233,-184"/>
<text text-anchor="middle" x="1183" y="-172" font-family="Helvetica,sans-Serif" font-size="10.00">RectDetector.cpp</text>
</a>
</g>
</g>
<!-- Node2&#45;&gt;Node67 -->
<g id="edge36" class="edge">
<title>Node2&#45;&gt;Node67</title>
<path fill="none" stroke="#63b8ff" d="M1328.93,-272.75C1303.44,-265.61 1272.12,-254.64 1247,-239 1222.55,-223.78 1200.18,-197.63 1189.54,-184.13"/>
<polygon fill="#63b8ff" stroke="#63b8ff" points="1328.18,-276.17 1338.75,-275.39 1330,-269.41 1328.18,-276.17"/>
</g>
<!-- Node68 -->
<g id="node33" class="node">
<title>Node68</title>
<g id="a_node33"><a xlink:href="RenderSystem_8cpp.html" target="_top" xlink:title=" ">
<polygon fill="white" stroke="#666666" points="832,-129 724,-129 724,-110 832,-110 832,-129"/>
<text text-anchor="middle" x="778" y="-117" font-family="Helvetica,sans-Serif" font-size="10.00">RenderSystem.cpp</text>
</a>
</g>
</g>
<!-- Node2&#45;&gt;Node68 -->
<g id="edge37" class="edge">
<title>Node2&#45;&gt;Node68</title>
<path fill="none" stroke="#63b8ff" d="M1328.76,-282.72C1259.1,-280.44 1125.36,-271.75 1017,-239 998.93,-233.54 995.91,-228.41 979,-220 911.19,-186.27 830.4,-146.36 795.49,-129.13"/>
<polygon fill="#63b8ff" stroke="#63b8ff" points="1328.87,-286.22 1338.97,-283.02 1329.08,-279.23 1328.87,-286.22"/>
</g>
<!-- Node69 -->
<g id="node34" class="node">
<title>Node69</title>
<g id="a_node34"><a xlink:href="RigidBodyCP_8cpp.html" target="_top" xlink:title=" ">
<polygon fill="white" stroke="#666666" points="1387,-239 1289,-239 1289,-220 1387,-220 1387,-239"/>
<text text-anchor="middle" x="1338" y="-227" font-family="Helvetica,sans-Serif" font-size="10.00">RigidBodyCP.cpp</text>
</a>
</g>
</g>
<!-- Node2&#45;&gt;Node69 -->
<g id="edge38" class="edge">
<title>Node2&#45;&gt;Node69</title>
<path fill="none" stroke="#63b8ff" d="M1363.73,-266.39C1357.19,-257.27 1349.43,-246.45 1344.16,-239.09"/>
<polygon fill="#63b8ff" stroke="#63b8ff" points="1361.05,-268.66 1369.73,-274.75 1366.74,-264.58 1361.05,-268.66"/>
</g>
<!-- Node3&#45;&gt;Node2 -->
<g id="edge5" class="edge">
<title>Node3&#45;&gt;Node2</title>
<path fill="none" stroke="#63b8ff" d="M1576.92,-240.69C1530.98,-251.17 1457.45,-267.23 1413.16,-276.41"/>
<polygon fill="#63b8ff" stroke="#63b8ff" points="1577.88,-244.06 1586.84,-238.41 1576.31,-237.24 1577.88,-244.06"/>
</g>
<!-- Node4 -->
<g id="node4" class="node">
<title>Node4</title>
<g id="a_node4"><a xlink:href="Collider_8cpp.html" target="_top" xlink:title=" ">
<polygon fill="white" stroke="#666666" points="1655,-184 1581,-184 1581,-165 1655,-165 1655,-184"/>
<text text-anchor="middle" x="1618" y="-172" font-family="Helvetica,sans-Serif" font-size="10.00">Collider.cpp</text>
</a>
</g>
</g>
<!-- Node3&#45;&gt;Node4 -->
<g id="edge3" class="edge">
<title>Node3&#45;&gt;Node4</title>
<path fill="none" stroke="#63b8ff" d="M1618,-209.66C1618,-200.93 1618,-190.99 1618,-184.09"/>
<polygon fill="#63b8ff" stroke="#63b8ff" points="1614.5,-209.75 1618,-219.75 1621.5,-209.75 1614.5,-209.75"/>
</g>
<!-- Node5 -->
<g id="node5" class="node">
<title>Node5</title>
<g id="a_node5"><a xlink:href="Collider_8generated_8cpp.html" target="_top" xlink:title=" ">
<polygon fill="white" stroke="#666666" points="1799,-184 1673,-184 1673,-165 1799,-165 1799,-184"/>
<text text-anchor="middle" x="1736" y="-172" font-family="Helvetica,sans-Serif" font-size="10.00">Collider.generated.cpp</text>
</a>
</g>
</g>
<!-- Node3&#45;&gt;Node5 -->
<g id="edge4" class="edge">
<title>Node3&#45;&gt;Node5</title>
<path fill="none" stroke="#63b8ff" d="M1646.35,-215.77C1668.12,-205.99 1697.59,-192.75 1716.7,-184.17"/>
<polygon fill="#63b8ff" stroke="#63b8ff" points="1644.65,-212.69 1636.96,-219.98 1647.51,-219.08 1644.65,-212.69"/>
</g>
<!-- Node6 -->
<g id="node6" class="node">
<title>Node6</title>
<g id="a_node6"><a xlink:href="Interpolator_8h.html" target="_top" xlink:title=" ">
<polygon fill="#fff0f0" stroke="red" points="1563,-184 1481,-184 1481,-165 1563,-165 1563,-184"/>
<text text-anchor="middle" x="1522" y="-172" font-family="Helvetica,sans-Serif" font-size="10.00">Interpolator.h</text>
</a>
</g>
</g>
<!-- Node3&#45;&gt;Node6 -->
<g id="edge6" class="edge">
<title>Node3&#45;&gt;Node6</title>
<path fill="none" stroke="#63b8ff" d="M1593.48,-214.97C1575.94,-205.28 1552.83,-192.52 1537.7,-184.17"/>
<polygon fill="#63b8ff" stroke="#63b8ff" points="1592.13,-218.22 1602.58,-219.98 1595.51,-212.09 1592.13,-218.22"/>
</g>
<!-- Node49 -->
<g id="node17" class="node">
<title>Node49</title>
<g id="a_node17"><a xlink:href="MTImGui_8cpp.html" target="_top" xlink:title=" ">
<polygon fill="white" stroke="#666666" points="1799.5,-19 1718.5,-19 1718.5,0 1799.5,0 1799.5,-19"/>
<text text-anchor="middle" x="1759" y="-7" font-family="Helvetica,sans-Serif" font-size="10.00">MTImGui.cpp</text>
</a>
</g>
</g>
<!-- Node3&#45;&gt;Node49 -->
<g id="edge31" class="edge">
<title>Node3&#45;&gt;Node49</title>
<path fill="none" stroke="#63b8ff" d="M1659.04,-218.96C1724.89,-205.35 1750.68,-218.68 1808,-184 1863.27,-150.56 1880.48,-134.54 1903,-74 1919.48,-29.7 1847.93,-16.27 1799.79,-12.23"/>
<polygon fill="#63b8ff" stroke="#63b8ff" points="1658.04,-215.6 1649.03,-221.17 1659.54,-222.43 1658.04,-215.6"/>
</g>
<!-- Node3&#45;&gt;Node63 -->
<g id="edge32" class="edge">
<title>Node3&#45;&gt;Node63</title>
<path fill="none" stroke="#63b8ff" d="M1659.25,-222.87C1720.67,-214.47 1839.78,-198.14 1941,-184 1945.48,-183.37 1950.15,-182.72 1954.81,-182.06"/>
<polygon fill="#63b8ff" stroke="#63b8ff" points="1658.62,-219.42 1649.19,-224.24 1659.57,-226.36 1658.62,-219.42"/>
</g>
<!-- Node6&#45;&gt;Node35 -->
<g id="edge7" class="edge">
<title>Node6&#45;&gt;Node35</title>
<path fill="none" stroke="#63b8ff" d="M1470.84,-165.5C1469.55,-165.33 1468.27,-165.16 1467,-165 1310.11,-144.96 1120.81,-128.36 1052.84,-122.64"/>
<polygon fill="#63b8ff" stroke="#63b8ff" points="1470.5,-168.99 1480.89,-166.9 1471.47,-162.06 1470.5,-168.99"/>
</g>
<!-- Node36 -->
<g id="node8" class="node">
<title>Node36</title>
<g id="a_node8"><a xlink:href="Box3D_8h.html" target="_top" xlink:title=" ">
<polygon fill="#fff0f0" stroke="red" points="813,-74 755,-74 755,-55 813,-55 813,-74"/>
<text text-anchor="middle" x="784" y="-62" font-family="Helvetica,sans-Serif" font-size="10.00">Box3D.h</text>
</a>
</g>
</g>
<!-- Node35&#45;&gt;Node36 -->
<g id="edge8" class="edge">
<title>Node35&#45;&gt;Node36</title>
<path fill="none" stroke="#63b8ff" d="M991.3,-109.9C915.02,-92.66 894.37,-89.76 822,-74 819.09,-73.37 816.06,-72.7 813.04,-72.03"/>
<polygon fill="#63b8ff" stroke="#63b8ff" points="990.88,-113.39 1001.41,-112.19 992.43,-106.57 990.88,-113.39"/>
</g>
<!-- Node40 -->
<g id="node9" class="node">
<title>Node40</title>
<g id="a_node9"><a xlink:href="Camera_8h.html" target="_top" xlink:title=" ">
<polygon fill="#fff0f0" stroke="red" points="895,-74 831,-74 831,-55 895,-55 895,-74"/>
<text text-anchor="middle" x="863" y="-62" font-family="Helvetica,sans-Serif" font-size="10.00">Camera.h</text>
</a>
</g>
</g>
<!-- Node35&#45;&gt;Node40 -->
<g id="edge9" class="edge">
<title>Node35&#45;&gt;Node40</title>
<path fill="none" stroke="#63b8ff" d="M991.52,-107.03C960.86,-97.13 917.24,-83.03 889.53,-74.07"/>
<polygon fill="#63b8ff" stroke="#63b8ff" points="990.78,-110.47 1001.38,-110.22 992.94,-103.81 990.78,-110.47"/>
</g>
<!-- Node42 -->
<g id="node10" class="node">
<title>Node42</title>
<g id="a_node10"><a xlink:href="Player_8h.html" target="_top" xlink:title=" ">
<polygon fill="#fff0f0" stroke="red" points="897,-19 841,-19 841,0 897,0 897,-19"/>
<text text-anchor="middle" x="869" y="-7" font-family="Helvetica,sans-Serif" font-size="10.00">Player.h</text>
</a>
</g>
</g>
<!-- Node35&#45;&gt;Node42 -->
<g id="edge19" class="edge">
<title>Node35&#45;&gt;Node42</title>
<path fill="none" stroke="#63b8ff" d="M1000.37,-105.2C984.47,-96.89 964.11,-85.59 947,-74 920.98,-56.37 892.99,-32.14 878.66,-19.31"/>
<polygon fill="#63b8ff" stroke="#63b8ff" points="999.14,-108.5 1009.63,-109.96 1002.34,-102.27 999.14,-108.5"/>
</g>
<!-- Node33 -->
<g id="node11" class="node">
<title>Node33</title>
<g id="a_node11"><a xlink:href="TitleScene_8cpp.html" target="_top" xlink:title=" ">
<polygon fill="white" stroke="#666666" points="239,-19 151,-19 151,0 239,0 239,-19"/>
<text text-anchor="middle" x="195" y="-7" font-family="Helvetica,sans-Serif" font-size="10.00">TitleScene.cpp</text>
</a>
</g>
</g>
<!-- Node35&#45;&gt;Node33 -->
<g id="edge30" class="edge">
<title>Node35&#45;&gt;Node33</title>
<path fill="none" stroke="#63b8ff" d="M991.26,-110.23C728.59,-71.92 654.82,-121.22 398,-74 363.04,-67.57 265.88,-34.91 219.82,-19.1"/>
<polygon fill="#63b8ff" stroke="#63b8ff" points="991.08,-113.74 1001.49,-111.75 992.11,-106.82 991.08,-113.74"/>
</g>
<!-- Node43 -->
<g id="node12" class="node">
<title>Node43</title>
<g id="a_node12"><a xlink:href="GameOverZone_8h.html" target="_top" xlink:title=" ">
<polygon fill="#fff0f0" stroke="red" points="1794.5,-74 1691.5,-74 1691.5,-55 1794.5,-55 1794.5,-74"/>
<text text-anchor="middle" x="1743" y="-62" font-family="Helvetica,sans-Serif" font-size="10.00">GameOverZone.h</text>
</a>
</g>
</g>
<!-- Node35&#45;&gt;Node43 -->
<g id="edge12" class="edge">
<title>Node35&#45;&gt;Node43</title>
<path fill="none" stroke="#63b8ff" d="M1062.68,-116.96C1161.38,-112.52 1446.27,-98.4 1682,-74 1685.08,-73.68 1688.25,-73.32 1691.45,-72.94"/>
<polygon fill="#63b8ff" stroke="#63b8ff" points="1062.48,-113.47 1052.65,-117.41 1062.79,-120.46 1062.48,-113.47"/>
</g>
<!-- Node44 -->
<g id="node13" class="node">
<title>Node44</title>
<g id="a_node13"><a xlink:href="Goal_8h.html" target="_top" xlink:title=" ">
<polygon fill="#fff0f0" stroke="red" points="1861,-74 1813,-74 1813,-55 1861,-55 1861,-74"/>
<text text-anchor="middle" x="1837" y="-62" font-family="Helvetica,sans-Serif" font-size="10.00">Goal.h</text>
</a>
</g>
</g>
<!-- Node35&#45;&gt;Node44 -->
<g id="edge13" class="edge">
<title>Node35&#45;&gt;Node44</title>
<path fill="none" stroke="#63b8ff" d="M1062.92,-118.83C1173.8,-119.32 1520.26,-117.06 1803,-74 1806.25,-73.51 1809.64,-72.84 1812.97,-72.1"/>
<polygon fill="#63b8ff" stroke="#63b8ff" points="1062.66,-115.32 1052.64,-118.77 1062.62,-122.32 1062.66,-115.32"/>
</g>
<!-- Node45 -->
<g id="node14" class="node">
<title>Node45</title>
<g id="a_node14"><a xlink:href="HighlightEnemy_8h.html" target="_top" xlink:title=" ">
<polygon fill="#fff0f0" stroke="red" points="509,-74 407,-74 407,-55 509,-55 509,-74"/>
<text text-anchor="middle" x="458" y="-62" font-family="Helvetica,sans-Serif" font-size="10.00">HighlightEnemy.h</text>
</a>
</g>
</g>
<!-- Node35&#45;&gt;Node45 -->
<g id="edge14" class="edge">
<title>Node35&#45;&gt;Node45</title>
<path fill="none" stroke="#63b8ff" d="M991.37,-110.2C781.56,-77.57 724.75,-96.47 518,-74 515.07,-73.68 512.07,-73.33 509.03,-72.96"/>
<polygon fill="#63b8ff" stroke="#63b8ff" points="991.06,-113.7 1001.48,-111.8 992.15,-106.78 991.06,-113.7"/>
</g>
<!-- Node47 -->
<g id="node15" class="node">
<title>Node47</title>
<g id="a_node15"><a xlink:href="Model_8cpp.html" target="_top" xlink:title=" ">
<polygon fill="white" stroke="#666666" points="594.5,-74 527.5,-74 527.5,-55 594.5,-55 594.5,-74"/>
<text text-anchor="middle" x="561" y="-62" font-family="Helvetica,sans-Serif" font-size="10.00">Model.cpp</text>
</a>
</g>
</g>
<!-- Node35&#45;&gt;Node47 -->
<g id="edge15" class="edge">
<title>Node35&#45;&gt;Node47</title>
<path fill="none" stroke="#63b8ff" d="M991.58,-110.2C819.44,-82.12 772.22,-98.36 604,-74 600.99,-73.56 597.87,-73.06 594.74,-72.51"/>
<polygon fill="#63b8ff" stroke="#63b8ff" points="991.04,-113.66 1001.47,-111.85 992.18,-106.76 991.04,-113.66"/>
</g>
<!-- Node48 -->
<g id="node16" class="node">
<title>Node48</title>
<g id="a_node16"><a xlink:href="MovingFloor_8h.html" target="_top" xlink:title=" ">
<polygon fill="#fff0f0" stroke="red" points="1673,-74 1587,-74 1587,-55 1673,-55 1673,-74"/>
<text text-anchor="middle" x="1630" y="-62" font-family="Helvetica,sans-Serif" font-size="10.00">MovingFloor.h</text>
</a>
</g>
</g>
<!-- Node35&#45;&gt;Node48 -->
<g id="edge16" class="edge">
<title>Node35&#45;&gt;Node48</title>
<path fill="none" stroke="#63b8ff" d="M1062.85,-116.62C1150.83,-111.78 1384.35,-97.61 1578,-74 1580.91,-73.65 1583.9,-73.25 1586.91,-72.82"/>
<polygon fill="#63b8ff" stroke="#63b8ff" points="1062.41,-113.14 1052.62,-117.18 1062.79,-120.13 1062.41,-113.14"/>
</g>
<!-- Node51 -->
<g id="node18" class="node">
<title>Node51</title>
<g id="a_node18"><a xlink:href="PatrolChargerEnemy_8h.html" target="_top" xlink:title=" ">
<polygon fill="#fff0f0" stroke="red" points="737,-74 613,-74 613,-55 737,-55 737,-74"/>
<text text-anchor="middle" x="675" y="-62" font-family="Helvetica,sans-Serif" font-size="10.00">PatrolChargerEnemy.h</text>
</a>
</g>
</g>
<!-- Node35&#45;&gt;Node51 -->
<g id="edge18" class="edge">
<title>Node35&#45;&gt;Node51</title>
<path fill="none" stroke="#63b8ff" d="M991.48,-110.12C930.51,-99.05 810.86,-83.07 737.12,-73.48"/>
<polygon fill="#63b8ff" stroke="#63b8ff" points="990.98,-113.58 1001.45,-111.99 992.27,-106.7 990.98,-113.58"/>
</g>
<!-- Node52 -->
<g id="node19" class="node">
<title>Node52</title>
<g id="a_node19"><a xlink:href="SampleGame_8h.html" target="_top" xlink:title=" ">
<polygon fill="#fff0f0" stroke="red" points="1569,-74 1477,-74 1477,-55 1569,-55 1569,-74"/>
<text text-anchor="middle" x="1523" y="-62" font-family="Helvetica,sans-Serif" font-size="10.00">SampleGame.h</text>
</a>
</g>
</g>
<!-- Node35&#45;&gt;Node52 -->
<g id="edge20" class="edge">
<title>Node35&#45;&gt;Node52</title>
<path fill="none" stroke="#63b8ff" d="M1063.18,-115.46C1138.47,-108.99 1317.44,-92.9 1467,-74 1470.22,-73.59 1473.54,-73.15 1476.88,-72.69"/>
<polygon fill="#63b8ff" stroke="#63b8ff" points="1062.51,-112 1052.84,-116.34 1063.1,-118.98 1062.51,-112"/>
</g>
<!-- Node54 -->
<g id="node20" class="node">
<title>Node54</title>
<g id="a_node20"><a xlink:href="Source_2TheMain_8cpp.html" target="_top" xlink:title=" ">
<polygon fill="white" stroke="#666666" points="1281.5,-19 1202.5,-19 1202.5,0 1281.5,0 1281.5,-19"/>
<text text-anchor="middle" x="1242" y="-7" font-family="Helvetica,sans-Serif" font-size="10.00">TheMain.cpp</text>
</a>
</g>
</g>
<!-- Node35&#45;&gt;Node54 -->
<g id="edge28" class="edge">
<title>Node35&#45;&gt;Node54</title>
<path fill="none" stroke="#63b8ff" d="M1004.01,-103.93C986.1,-90.79 966.39,-71.12 980,-55 1007.98,-21.87 1136.16,-13.4 1202.29,-11.24"/>
<polygon fill="#63b8ff" stroke="#63b8ff" points="1002.29,-107 1012.5,-109.81 1006.27,-101.24 1002.29,-107"/>
</g>
<!-- Node55 -->
<g id="node21" class="node">
<title>Node55</title>
<g id="a_node21"><a xlink:href="SampleScene_8cpp.html" target="_top" xlink:title=" ">
<polygon fill="white" stroke="#666666" points="181.5,-74 78.5,-74 78.5,-55 181.5,-55 181.5,-74"/>
<text text-anchor="middle" x="130" y="-62" font-family="Helvetica,sans-Serif" font-size="10.00">SampleScene.cpp</text>
</a>
</g>
</g>
<!-- Node35&#45;&gt;Node55 -->
<g id="edge22" class="edge">
<title>Node35&#45;&gt;Node55</title>
<path fill="none" stroke="#63b8ff" d="M991.47,-110.28C637.01,-60.54 541.97,-106.75 190,-74 187.28,-73.75 184.49,-73.46 181.67,-73.14"/>
<polygon fill="#63b8ff" stroke="#63b8ff" points="991.1,-113.76 1001.5,-111.7 992.09,-106.83 991.1,-113.76"/>
</g>
<!-- Node56 -->
<g id="node22" class="node">
<title>Node56</title>
<g id="a_node22"><a xlink:href="ScoreItem_8h.html" target="_top" xlink:title=" ">
<polygon fill="#fff0f0" stroke="red" points="1064.5,-74 989.5,-74 989.5,-55 1064.5,-55 1064.5,-74"/>
<text text-anchor="middle" x="1027" y="-62" font-family="Helvetica,sans-Serif" font-size="10.00">ScoreItem.h</text>
</a>
</g>
</g>
<!-- Node35&#45;&gt;Node56 -->
<g id="edge23" class="edge">
<title>Node35&#45;&gt;Node56</title>
<path fill="none" stroke="#63b8ff" d="M1027,-99.66C1027,-90.93 1027,-80.99 1027,-74.09"/>
<polygon fill="#63b8ff" stroke="#63b8ff" points="1023.5,-99.75 1027,-109.75 1030.5,-99.75 1023.5,-99.75"/>
</g>
<!-- Node57 -->
<g id="node23" class="node">
<title>Node57</title>
<g id="a_node23"><a xlink:href="ScoreViewer_8h.html" target="_top" xlink:title=" ">
<polygon fill="#fff0f0" stroke="red" points="1169,-74 1083,-74 1083,-55 1169,-55 1169,-74"/>
<text text-anchor="middle" x="1126" y="-62" font-family="Helvetica,sans-Serif" font-size="10.00">ScoreViewer.h</text>
</a>
</g>
</g>
<!-- Node35&#45;&gt;Node57 -->
<g id="edge24" class="edge">
<title>Node35&#45;&gt;Node57</title>
<path fill="none" stroke="#63b8ff" d="M1051.78,-105.23C1069.94,-95.51 1094.06,-82.6 1109.8,-74.17"/>
<polygon fill="#63b8ff" stroke="#63b8ff" points="1050.07,-102.18 1042.91,-109.98 1053.37,-108.35 1050.07,-102.18"/>
</g>
<!-- Node28 -->
<g id="node24" class="node">
<title>Node28</title>
<g id="a_node24"><a xlink:href="StageEditScene_8cpp.html" target="_top" xlink:title=" ">
<polygon fill="white" stroke="#666666" points="312.5,-74 199.5,-74 199.5,-55 312.5,-55 312.5,-74"/>
<text text-anchor="middle" x="256" y="-62" font-family="Helvetica,sans-Serif" font-size="10.00">StageEditScene.cpp</text>
</a>
</g>
</g>
<!-- Node35&#45;&gt;Node28 -->
<g id="edge25" class="edge">
<title>Node35&#45;&gt;Node28</title>
<path fill="none" stroke="#63b8ff" d="M991.39,-110.25C697.4,-67.62 618.57,-99.32 327,-74 322.3,-73.59 317.43,-73.12 312.55,-72.61"/>
<polygon fill="#63b8ff" stroke="#63b8ff" points="991.09,-113.74 1001.49,-111.73 992.11,-106.82 991.09,-113.74"/>
</g>
<!-- Node58 -->
<g id="node25" class="node">
<title>Node58</title>
<g id="a_node25"><a xlink:href="StageManager_8h.html" target="_top" xlink:title=" ">
<polygon fill="#fff0f0" stroke="red" points="1282.5,-74 1187.5,-74 1187.5,-55 1282.5,-55 1282.5,-74"/>
<text text-anchor="middle" x="1235" y="-62" font-family="Helvetica,sans-Serif" font-size="10.00">StageManager.h</text>
</a>
</g>
</g>
<!-- Node35&#45;&gt;Node58 -->
<g id="edge26" class="edge">
<title>Node35&#45;&gt;Node58</title>
<path fill="none" stroke="#63b8ff" d="M1062.34,-109.5C1101.2,-99.59 1163.19,-83.8 1201.36,-74.07"/>
<polygon fill="#63b8ff" stroke="#63b8ff" points="1061.33,-106.14 1052.5,-112 1063.06,-112.92 1061.33,-106.14"/>
</g>
<!-- Node59 -->
<g id="node26" class="node">
<title>Node59</title>
<g id="a_node26"><a xlink:href="TextBox_8h.html" target="_top" xlink:title=" ">
<polygon fill="#fff0f0" stroke="red" points="1365.5,-74 1300.5,-74 1300.5,-55 1365.5,-55 1365.5,-74"/>
<text text-anchor="middle" x="1333" y="-62" font-family="Helvetica,sans-Serif" font-size="10.00">TextBox.h</text>
</a>
</g>
</g>
<!-- Node35&#45;&gt;Node59 -->
<g id="edge27" class="edge">
<title>Node35&#45;&gt;Node59</title>
<path fill="none" stroke="#63b8ff" d="M1062.66,-112.87C1113.45,-104.76 1209.51,-89.11 1291,-74 1294.07,-73.43 1297.27,-72.82 1300.46,-72.19"/>
<polygon fill="#63b8ff" stroke="#63b8ff" points="1061.86,-109.45 1052.53,-114.48 1062.96,-116.36 1061.86,-109.45"/>
</g>
<!-- Node60 -->
<g id="node27" class="node">
<title>Node60</title>
<g id="a_node27"><a xlink:href="TimeLimit_8h.html" target="_top" xlink:title=" ">
<polygon fill="#fff0f0" stroke="red" points="1458.5,-74 1383.5,-74 1383.5,-55 1458.5,-55 1458.5,-74"/>
<text text-anchor="middle" x="1421" y="-62" font-family="Helvetica,sans-Serif" font-size="10.00">TimeLimit.h</text>
</a>
</g>
</g>
<!-- Node35&#45;&gt;Node60 -->
<g id="edge29" class="edge">
<title>Node35&#45;&gt;Node60</title>
<path fill="none" stroke="#63b8ff" d="M1062.96,-114.51C1126.07,-107.36 1260.8,-91.48 1374,-74 1377.03,-73.53 1380.17,-73.02 1383.32,-72.49"/>
<polygon fill="#63b8ff" stroke="#63b8ff" points="1062.29,-111.06 1052.75,-115.66 1063.08,-118.01 1062.29,-111.06"/>
</g>
<!-- Node40&#45;&gt;Node42 -->
<g id="edge10" class="edge">
<title>Node40&#45;&gt;Node42</title>
<path fill="none" stroke="#63b8ff" d="M865.13,-44.66C866.12,-35.93 867.25,-25.99 868.03,-19.09"/>
<polygon fill="#63b8ff" stroke="#63b8ff" points="861.64,-44.42 863.99,-54.75 868.59,-45.21 861.64,-44.42"/>
</g>
<!-- Node40&#45;&gt;Node33 -->
<g id="edge11" class="edge">
<title>Node40&#45;&gt;Node33</title>
<path fill="none" stroke="#63b8ff" d="M820.88,-55.04C597.07,-24.61 340.61,-14.59 239.3,-11.61"/>
<polygon fill="#63b8ff" stroke="#63b8ff" points="820.46,-58.51 830.84,-56.41 821.41,-51.58 820.46,-58.51"/>
</g>
<!-- Node48&#45;&gt;Node49 -->
<g id="edge17" class="edge">
<title>Node48&#45;&gt;Node49</title>
<path fill="none" stroke="#63b8ff" d="M1660.04,-51.16C1683.92,-41.35 1716.72,-27.87 1737.9,-19.17"/>
<polygon fill="#63b8ff" stroke="#63b8ff" points="1658.65,-47.95 1650.73,-54.98 1661.31,-54.42 1658.65,-47.95"/>
</g>
<!-- Node52&#45;&gt;Node54 -->
<g id="edge21" class="edge">
<title>Node52&#45;&gt;Node54</title>
<path fill="none" stroke="#63b8ff" d="M1467.95,-53.12C1413.11,-42.77 1330.25,-27.14 1281.59,-17.97"/>
<polygon fill="#63b8ff" stroke="#63b8ff" points="1467.38,-56.57 1477.85,-54.98 1468.67,-49.69 1467.38,-56.57"/>
</g>
<!-- Node64 -->
<g id="node29" class="node">
<title>Node64</title>
<g id="a_node29"><a xlink:href="TerrainReader_8cpp.html" target="_top" xlink:title=" ">
<polygon fill="white" stroke="#666666" points="2059,-129 1955,-129 1955,-110 2059,-110 2059,-129"/>
<text text-anchor="middle" x="2007" y="-117" font-family="Helvetica,sans-Serif" font-size="10.00">TerrainReader.cpp</text>
</a>
</g>
</g>
<!-- Node63&#45;&gt;Node64 -->
<g id="edge33" class="edge">
<title>Node63&#45;&gt;Node64</title>
<path fill="none" stroke="#63b8ff" d="M2003.13,-154.66C2004.12,-145.93 2005.25,-135.99 2006.03,-129.09"/>
<polygon fill="#63b8ff" stroke="#63b8ff" points="1999.64,-154.42 2001.99,-164.75 2006.59,-155.21 1999.64,-154.42"/>
</g>
<!-- Node71 -->
<g id="node36" class="node">
<title>Node71</title>
<g id="a_node36"><a xlink:href="CircleDetector_8h.html" target="_top" xlink:title=" ">
<polygon fill="#fff0f0" stroke="red" points="865.5,-239 770.5,-239 770.5,-220 865.5,-220 865.5,-239"/>
<text text-anchor="middle" x="818" y="-227" font-family="Helvetica,sans-Serif" font-size="10.00">CircleDetector.h</text>
</a>
</g>
</g>
<!-- Node70&#45;&gt;Node71 -->
<g id="edge42" class="edge">
<title>Node70&#45;&gt;Node71</title>
<path fill="none" stroke="#63b8ff" d="M842.38,-266.39C836.18,-257.27 828.83,-246.45 823.83,-239.09"/>
<polygon fill="#63b8ff" stroke="#63b8ff" points="839.54,-268.44 848.06,-274.75 845.33,-264.51 839.54,-268.44"/>
</g>
<!-- Node73 -->
<g id="node37" class="node">
<title>Node73</title>
<g id="a_node37"><a xlink:href="RayDetector_8h.html" target="_top" xlink:title=" ">
<polygon fill="#fff0f0" stroke="red" points="970,-239 884,-239 884,-220 970,-220 970,-239"/>
<text text-anchor="middle" x="927" y="-227" font-family="Helvetica,sans-Serif" font-size="10.00">RayDetector.h</text>
</a>
</g>
</g>
<!-- Node70&#45;&gt;Node73 -->
<g id="edge43" class="edge">
<title>Node70&#45;&gt;Node73</title>
<path fill="none" stroke="#63b8ff" d="M874.14,-268.88C887.28,-259.34 903.98,-247.21 915.06,-239.17"/>
<polygon fill="#63b8ff" stroke="#63b8ff" points="871.76,-266.28 865.73,-274.98 875.88,-271.94 871.76,-266.28"/>
</g>
<!-- Node70&#45;&gt;Node75 -->
<g id="edge44" class="edge">
<title>Node70&#45;&gt;Node75</title>
<path fill="none" stroke="#63b8ff" d="M898.77,-272.56C939.42,-262.64 998.53,-248.2 1035.86,-239.08"/>
<polygon fill="#63b8ff" stroke="#63b8ff" points="897.75,-269.21 888.86,-274.98 899.41,-276.01 897.75,-269.21"/>
</g>
<!-- Node75&#45;&gt;Node35 -->
<g id="edge47" class="edge">
<title>Node75&#45;&gt;Node35</title>
<path fill="none" stroke="#63b8ff" d="M1063.51,-210.12C1053.91,-186.56 1037.66,-146.66 1030.53,-129.16"/>
<polygon fill="#63b8ff" stroke="#63b8ff" points="1060.38,-211.72 1067.4,-219.66 1066.87,-209.08 1060.38,-211.72"/>
</g>
<!-- Node75&#45;&gt;Node49 -->
<g id="edge45" class="edge">
<title>Node75&#45;&gt;Node49</title>
<path fill="none" stroke="#63b8ff" d="M1080.54,-210.91C1089.62,-196.02 1104.75,-175.47 1124,-165 1270.7,-85.18 1759.29,-199.04 1870,-74 1894.43,-46.41 1840.51,-27.9 1799.57,-18.3"/>
<polygon fill="#63b8ff" stroke="#63b8ff" points="1077.42,-209.31 1075.46,-219.72 1083.49,-212.8 1077.42,-209.31"/>
</g>
<!-- Node75&#45;&gt;Node67 -->
<g id="edge46" class="edge">
<title>Node75&#45;&gt;Node67</title>
<path fill="none" stroke="#63b8ff" d="M1098.19,-215.63C1118.82,-205.87 1146.62,-192.71 1164.68,-184.17"/>
<polygon fill="#63b8ff" stroke="#63b8ff" points="1096.54,-212.54 1088.99,-219.98 1099.53,-218.87 1096.54,-212.54"/>
</g>
<!-- Node76&#45;&gt;Node35 -->
<g id="edge55" class="edge">
<title>Node76&#45;&gt;Node35</title>
<path fill="none" stroke="#63b8ff" d="M739.25,-217.63C773.59,-209.36 821.03,-197.2 862,-184 915.17,-166.87 976.14,-142 1006.94,-129.06"/>
<polygon fill="#63b8ff" stroke="#63b8ff" points="738.4,-214.23 729.49,-219.96 740.03,-221.04 738.4,-214.23"/>
</g>
<!-- Node77 -->
<g id="node40" class="node">
<title>Node77</title>
<g id="a_node40"><a xlink:href="GameObject_8h.html" target="_top" xlink:title=" ">
<polygon fill="#fff0f0" stroke="red" points="738,-184 652,-184 652,-165 738,-165 738,-184"/>
<text text-anchor="middle" x="695" y="-172" font-family="Helvetica,sans-Serif" font-size="10.00">GameObject.h</text>
</a>
</g>
</g>
<!-- Node76&#45;&gt;Node77 -->
<g id="edge49" class="edge">
<title>Node76&#45;&gt;Node77</title>
<path fill="none" stroke="#63b8ff" d="M693.07,-209.66C693.56,-200.93 694.12,-190.99 694.51,-184.09"/>
<polygon fill="#63b8ff" stroke="#63b8ff" points="689.57,-209.57 692.5,-219.75 696.56,-209.96 689.57,-209.57"/>
</g>
<!-- Node77&#45;&gt;Node35 -->
<g id="edge54" class="edge">
<title>Node77&#45;&gt;Node35</title>
<path fill="none" stroke="#63b8ff" d="M748.23,-164.84C857.48,-148.21 887.13,-149.39 992,-129 995.07,-128.4 998.27,-127.72 1001.45,-126.99"/>
<polygon fill="#63b8ff" stroke="#63b8ff" points="747.47,-161.42 738.12,-166.4 748.54,-168.34 747.47,-161.42"/>
</g>
<!-- Node77&#45;&gt;Node65 -->
<g id="edge50" class="edge">
<title>Node77&#45;&gt;Node65</title>
<path fill="none" stroke="#63b8ff" d="M684.5,-156.1C679.03,-147.04 672.58,-136.37 668.19,-129.09"/>
<polygon fill="#63b8ff" stroke="#63b8ff" points="681.55,-158 689.72,-164.75 687.54,-154.38 681.55,-158"/>
</g>
<!-- Node77&#45;&gt;Node66 -->
<g id="edge52" class="edge">
<title>Node77&#45;&gt;Node66</title>
<path fill="none" stroke="#63b8ff" d="M740.54,-162.63C782.13,-152.7 842.78,-138.22 881.05,-129.08"/>
<polygon fill="#63b8ff" stroke="#63b8ff" points="739.58,-159.26 730.67,-164.98 741.21,-166.07 739.58,-159.26"/>
</g>
<!-- Node77&#45;&gt;Node68 -->
<g id="edge53" class="edge">
<title>Node77&#45;&gt;Node68</title>
<path fill="none" stroke="#63b8ff" d="M717.04,-159.42C732.11,-149.81 751.59,-137.37 764.42,-129.17"/>
<polygon fill="#63b8ff" stroke="#63b8ff" points="714.88,-156.65 708.34,-164.98 718.65,-162.55 714.88,-156.65"/>
</g>
<!-- Node89 -->
<g id="node41" class="node">
<title>Node89</title>
<g id="a_node41"><a xlink:href="GameScene_8cpp.html" target="_top" xlink:title=" ">
<polygon fill="white" stroke="#666666" points="601.5,-129 506.5,-129 506.5,-110 601.5,-110 601.5,-129"/>
<text text-anchor="middle" x="554" y="-117" font-family="Helvetica,sans-Serif" font-size="10.00">GameScene.cpp</text>
</a>
</g>
</g>
<!-- Node77&#45;&gt;Node89 -->
<g id="edge51" class="edge">
<title>Node77&#45;&gt;Node89</title>
<path fill="none" stroke="#63b8ff" d="M662.86,-161.42C636.71,-151.59 600.41,-137.95 577.07,-129.17"/>
<polygon fill="#63b8ff" stroke="#63b8ff" points="661.75,-164.74 672.35,-164.98 664.22,-158.19 661.75,-164.74"/>
</g>
<!-- Node152&#45;&gt;Node89 -->
<g id="edge57" class="edge">
<title>Node152&#45;&gt;Node89</title>
<path fill="none" stroke="#63b8ff" d="M411.13,-209.92C412.93,-195.91 417.49,-177.11 429,-165 449.23,-143.71 480.31,-132.59 506.42,-126.79"/>
<polygon fill="#63b8ff" stroke="#63b8ff" points="407.64,-209.62 410.2,-219.9 414.61,-210.27 407.64,-209.62"/>
</g>
<!-- Node85 -->
<g id="node43" class="node">
<title>Node85</title>
<g id="a_node43"><a xlink:href="ImGuiEditor_8cpp.html" target="_top" xlink:title=" ">
<polygon fill="white" stroke="#666666" points="419,-129 325,-129 325,-110 419,-110 419,-129"/>
<text text-anchor="middle" x="372" y="-117" font-family="Helvetica,sans-Serif" font-size="10.00">ImGuiEditor.cpp</text>
</a>
</g>
</g>
<!-- Node152&#45;&gt;Node85 -->
<g id="edge58" class="edge">
<title>Node152&#45;&gt;Node85</title>
<path fill="none" stroke="#63b8ff" d="M403.53,-210.12C395.24,-186.56 381.2,-146.66 375.05,-129.16"/>
<polygon fill="#63b8ff" stroke="#63b8ff" points="400.27,-211.39 406.89,-219.66 406.87,-209.07 400.27,-211.39"/>
</g>
<!-- Node153 -->
<g id="node44" class="node">
<title>Node153</title>
<g id="a_node44"><a xlink:href="RenderSystem_8h.html" target="_top" xlink:title=" ">
<polygon fill="#fff0f0" stroke="red" points="853.5,-184 756.5,-184 756.5,-165 853.5,-165 853.5,-184"/>
<text text-anchor="middle" x="805" y="-172" font-family="Helvetica,sans-Serif" font-size="10.00">RenderSystem.h</text>
</a>
</g>
</g>
<!-- Node152&#45;&gt;Node153 -->
<g id="edge59" class="edge">
<title>Node152&#45;&gt;Node153</title>
<path fill="none" stroke="#63b8ff" d="M462.24,-221.84C528.51,-213.33 646.3,-198.03 747,-184 750.02,-183.58 753.14,-183.14 756.27,-182.69"/>
<polygon fill="#63b8ff" stroke="#63b8ff" points="461.53,-218.4 452.06,-223.14 462.42,-225.34 461.53,-218.4"/>
</g>
<!-- Node154 -->
<g id="node45" class="node">
<title>Node154</title>
<g id="a_node45"><a xlink:href="ResultScene_8h.html" target="_top" xlink:title=" ">
<polygon fill="#fff0f0" stroke="red" points="524,-184 438,-184 438,-165 524,-165 524,-184"/>
<text text-anchor="middle" x="481" y="-172" font-family="Helvetica,sans-Serif" font-size="10.00">ResultScene.h</text>
</a>
</g>
</g>
<!-- Node152&#45;&gt;Node154 -->
<g id="edge62" class="edge">
<title>Node152&#45;&gt;Node154</title>
<path fill="none" stroke="#63b8ff" d="M429.59,-213.88C442.37,-204.34 458.61,-192.21 469.39,-184.17"/>
<polygon fill="#63b8ff" stroke="#63b8ff" points="427.33,-211.2 421.41,-219.98 431.51,-216.81 427.33,-211.2"/>
</g>
<!-- Node155 -->
<g id="node46" class="node">
<title>Node155</title>
<g id="a_node46"><a xlink:href="SampleScene_8h.html" target="_top" xlink:title=" ">
<polygon fill="#fff0f0" stroke="red" points="92,-129 0,-129 0,-110 92,-110 92,-129"/>
<text text-anchor="middle" x="46" y="-117" font-family="Helvetica,sans-Serif" font-size="10.00">SampleScene.h</text>
</a>
</g>
</g>
<!-- Node152&#45;&gt;Node155 -->
<g id="edge63" class="edge">
<title>Node152&#45;&gt;Node155</title>
<path fill="none" stroke="#63b8ff" d="M371.36,-217.03C297.96,-195.26 139.91,-148.36 74.87,-129.07"/>
<polygon fill="#63b8ff" stroke="#63b8ff" points="370.55,-220.45 381.13,-219.94 372.54,-213.74 370.55,-220.45"/>
</g>
<!-- Node156 -->
<g id="node47" class="node">
<title>Node156</title>
<g id="a_node47"><a xlink:href="SceneSystem_8h.html" target="_top" xlink:title=" ">
<polygon fill="#fff0f0" stroke="red" points="634,-184 542,-184 542,-165 634,-165 634,-184"/>
<text text-anchor="middle" x="588" y="-172" font-family="Helvetica,sans-Serif" font-size="10.00">SceneSystem.h</text>
</a>
</g>
</g>
<!-- Node152&#45;&gt;Node156 -->
<g id="edge66" class="edge">
<title>Node152&#45;&gt;Node156</title>
<path fill="none" stroke="#63b8ff" d="M448.44,-217.06C481.7,-207.15 529.08,-193.04 559.18,-184.08"/>
<polygon fill="#63b8ff" stroke="#63b8ff" points="447.18,-213.78 438.6,-219.98 449.18,-220.49 447.18,-213.78"/>
</g>
<!-- Node159 -->
<g id="node48" class="node">
<title>Node159</title>
<g id="a_node48"><a xlink:href="StageEditScene_8h.html" target="_top" xlink:title=" ">
<polygon fill="#fff0f0" stroke="red" points="306.5,-129 205.5,-129 205.5,-110 306.5,-110 306.5,-129"/>
<text text-anchor="middle" x="256" y="-117" font-family="Helvetica,sans-Serif" font-size="10.00">StageEditScene.h</text>
</a>
</g>
</g>
<!-- Node152&#45;&gt;Node159 -->
<g id="edge74" class="edge">
<title>Node152&#45;&gt;Node159</title>
<path fill="none" stroke="#63b8ff" d="M389.33,-214.01C356.84,-191.22 294.81,-147.72 268.4,-129.2"/>
<polygon fill="#63b8ff" stroke="#63b8ff" points="387.46,-216.97 397.66,-219.84 391.48,-211.24 387.46,-216.97"/>
</g>
<!-- Node160 -->
<g id="node49" class="node">
<title>Node160</title>
<g id="a_node49"><a xlink:href="TitleScene_8h.html" target="_top" xlink:title=" ">
<polygon fill="#fff0f0" stroke="red" points="187.5,-129 110.5,-129 110.5,-110 187.5,-110 187.5,-129"/>
<text text-anchor="middle" x="149" y="-117" font-family="Helvetica,sans-Serif" font-size="10.00">TitleScene.h</text>
</a>
</g>
</g>
<!-- Node152&#45;&gt;Node160 -->
<g id="edge76" class="edge">
<title>Node152&#45;&gt;Node160</title>
<path fill="none" stroke="#63b8ff" d="M379.75,-215.98C326.08,-193.77 215.53,-148.03 169.65,-129.05"/>
<polygon fill="#63b8ff" stroke="#63b8ff" points="378.5,-219.25 389.08,-219.84 381.18,-212.79 378.5,-219.25"/>
</g>
<!-- Node153&#45;&gt;Node35 -->
<g id="edge61" class="edge">
<title>Node153&#45;&gt;Node35</title>
<path fill="none" stroke="#63b8ff" d="M851.41,-162.52C889.26,-153.55 944.1,-140.52 992,-129 995.04,-128.27 998.23,-127.5 1001.39,-126.73"/>
<polygon fill="#63b8ff" stroke="#63b8ff" points="850.13,-159.22 841.21,-164.94 851.75,-166.04 850.13,-159.22"/>
</g>
<!-- Node153&#45;&gt;Node68 -->
<g id="edge60" class="edge">
<title>Node153&#45;&gt;Node68</title>
<path fill="none" stroke="#63b8ff" d="M795.99,-155.82C791.41,-146.82 786.05,-136.29 782.38,-129.09"/>
<polygon fill="#63b8ff" stroke="#63b8ff" points="792.88,-157.43 800.54,-164.75 799.12,-154.25 792.88,-157.43"/>
</g>
<!-- Node155&#45;&gt;Node33 -->
<g id="edge65" class="edge">
<title>Node155&#45;&gt;Node33</title>
<path fill="none" stroke="#63b8ff" d="M45.78,-99.51C46.63,-85.56 50.01,-67.01 61,-55 83.92,-29.95 121.26,-18.98 150.71,-14.19"/>
<polygon fill="#63b8ff" stroke="#63b8ff" points="42.27,-99.83 45.55,-109.91 49.27,-99.99 42.27,-99.83"/>
</g>
<!-- Node155&#45;&gt;Node55 -->
<g id="edge64" class="edge">
<title>Node155&#45;&gt;Node55</title>
<path fill="none" stroke="#63b8ff" d="M68.31,-104.42C83.55,-94.81 103.27,-82.37 116.26,-74.17"/>
<polygon fill="#63b8ff" stroke="#63b8ff" points="66.09,-101.69 59.5,-109.98 69.82,-107.61 66.09,-101.69"/>
</g>
<!-- Node156&#45;&gt;Node35 -->
<g id="edge73" class="edge">
<title>Node156&#45;&gt;Node35</title>
<path fill="none" stroke="#63b8ff" d="M644.56,-164.87C799.46,-145.51 841.63,-154.89 992,-129 995.08,-128.47 998.29,-127.82 1001.47,-127.12"/>
<polygon fill="#63b8ff" stroke="#63b8ff" points="643.67,-161.46 634.19,-166.19 644.55,-168.4 643.67,-161.46"/>
</g>
<!-- Node156&#45;&gt;Node49 -->
<g id="edge71" class="edge">
<title>Node156&#45;&gt;Node49</title>
<path fill="none" stroke="#63b8ff" d="M535.56,-162.28C490.08,-149.45 427.12,-123.48 398,-74 393.72,-66.72 392.13,-61.07 398,-55 409.79,-42.82 1493.07,-16.74 1718.28,-11.45"/>
<polygon fill="#63b8ff" stroke="#63b8ff" points="534.7,-165.68 545.27,-164.9 536.53,-158.92 534.7,-165.68"/>
</g>
<!-- Node156&#45;&gt;Node65 -->
<g id="edge67" class="edge">
<title>Node156&#45;&gt;Node65</title>
<path fill="none" stroke="#63b8ff" d="M608.31,-159.15C621.86,-149.57 639.24,-137.29 650.73,-129.17"/>
<polygon fill="#63b8ff" stroke="#63b8ff" points="606.2,-156.36 600.05,-164.98 610.24,-162.07 606.2,-156.36"/>
</g>
<!-- Node156&#45;&gt;Node66 -->
<g id="edge70" class="edge">
<title>Node156&#45;&gt;Node66</title>
<path fill="none" stroke="#63b8ff" d="M644.03,-164.47C705.63,-154.55 803.84,-138.73 864.15,-129.01"/>
<polygon fill="#63b8ff" stroke="#63b8ff" points="643.41,-161.03 634.09,-166.07 644.52,-167.94 643.41,-161.03"/>
</g>
<!-- Node156&#45;&gt;Node68 -->
<g id="edge72" class="edge">
<title>Node156&#45;&gt;Node68</title>
<path fill="none" stroke="#63b8ff" d="M628.57,-162.18C664.1,-152.27 714.97,-138.08 747.23,-129.08"/>
<polygon fill="#63b8ff" stroke="#63b8ff" points="627.22,-158.93 618.53,-164.98 629.1,-165.67 627.22,-158.93"/>
</g>
<!-- Node156&#45;&gt;Node89 -->
<g id="edge68" class="edge">
<title>Node156&#45;&gt;Node89</title>
<path fill="none" stroke="#63b8ff" d="M576.84,-156.1C571.03,-147.04 564.18,-136.37 559.51,-129.09"/>
<polygon fill="#63b8ff" stroke="#63b8ff" points="574.04,-158.22 582.39,-164.75 579.93,-154.44 574.04,-158.22"/>
</g>
<!-- Node156&#45;&gt;Node85 -->
<g id="edge69" class="edge">
<title>Node156&#45;&gt;Node85</title>
<path fill="none" stroke="#63b8ff" d="M543.43,-162.56C502.98,-152.64 444.13,-138.2 406.98,-129.08"/>
<polygon fill="#63b8ff" stroke="#63b8ff" points="542.75,-166 553.3,-164.98 544.42,-159.2 542.75,-166"/>
</g>
<!-- Node159&#45;&gt;Node28 -->
<g id="edge75" class="edge">
<title>Node159&#45;&gt;Node28</title>
<path fill="none" stroke="#63b8ff" d="M256,-99.66C256,-90.93 256,-80.99 256,-74.09"/>
<polygon fill="#63b8ff" stroke="#63b8ff" points="252.5,-99.75 256,-109.75 259.5,-99.75 252.5,-99.75"/>
</g>
<!-- Node160&#45;&gt;Node33 -->
<g id="edge77" class="edge">
<title>Node160&#45;&gt;Node33</title>
<path fill="none" stroke="#63b8ff" d="M111.96,-106.29C84.22,-95.07 53.52,-76.89 69,-55 87.42,-28.96 122.4,-18.05 150.84,-13.54"/>
<polygon fill="#63b8ff" stroke="#63b8ff" points="110.97,-109.66 121.57,-109.96 113.47,-103.12 110.97,-109.66"/>
</g>
<!-- Node161&#45;&gt;Node71 -->
<g id="edge79" class="edge">
<title>Node161&#45;&gt;Node71</title>
<path fill="none" stroke="#63b8ff" d="M926.86,-271.42C900.71,-261.59 864.41,-247.95 841.07,-239.17"/>
<polygon fill="#63b8ff" stroke="#63b8ff" points="925.75,-274.74 936.35,-274.98 928.22,-268.19 925.75,-274.74"/>
</g>
<!-- Node161&#45;&gt;Node73 -->
<g id="edge80" class="edge">
<title>Node161&#45;&gt;Node73</title>
<path fill="none" stroke="#63b8ff" d="M948.5,-266.1C943.03,-257.04 936.58,-246.37 932.19,-239.09"/>
<polygon fill="#63b8ff" stroke="#63b8ff" points="945.55,-268 953.72,-274.75 951.54,-264.38 945.55,-268"/>
</g>
<!-- Node161&#45;&gt;Node75 -->
<g id="edge81" class="edge">
<title>Node161&#45;&gt;Node75</title>
<path fill="none" stroke="#63b8ff" d="M986.19,-270.63C1006.82,-260.87 1034.62,-247.71 1052.68,-239.17"/>
<polygon fill="#63b8ff" stroke="#63b8ff" points="984.54,-267.54 976.99,-274.98 987.53,-273.87 984.54,-267.54"/>
</g>
</g>
</svg>
