<?xml version="1.0" encoding="UTF-8" standalone="no"?>
<!DOCTYPE svg PUBLIC "-//W3C//DTD SVG 1.1//EN"
 "http://www.w3.org/Graphics/SVG/1.1/DTD/svg11.dtd">
<!-- Generated by graphviz version 2.43.0 (0)
 -->
<!-- Title: Input reference Pages: 1 -->
<svg width="266pt" height="286pt"
 viewBox="0.00 0.00 266.00 286.00" xmlns="http://www.w3.org/2000/svg" xmlns:xlink="http://www.w3.org/1999/xlink">
<g id="graph0" class="graph" transform="scale(1 1) rotate(0) translate(4 282)">
<title>Input reference</title>
<!-- Node5 -->
<g id="node1" class="node">
<title>Node5</title>
<g id="a_node1"><a xlink:href="group__buttons.html" target="_top" xlink:title="Mouse button IDs.">
<polygon fill="white" stroke="#666666" points="237,-278 148,-278 148,-259 237,-259 237,-278"/>
<text text-anchor="middle" x="192.5" y="-266" font-family="Helvetica,sans-Serif" font-size="10.00">Mouse buttons</text>
</a>
</g>
</g>
<!-- Node8 -->
<g id="node2" class="node">
<title>Node8</title>
<g id="a_node2"><a xlink:href="group__gamepad__axes.html" target="_top" xlink:title="Gamepad axes.">
<polygon fill="white" stroke="#666666" points="237,-241 148,-241 148,-222 237,-222 237,-241"/>
<text text-anchor="middle" x="192.5" y="-229" font-family="Helvetica,sans-Serif" font-size="10.00">Gamepad axes</text>
</a>
</g>
</g>
<!-- Node7 -->
<g id="node3" class="node">
<title>Node7</title>
<g id="a_node3"><a xlink:href="group__gamepad__buttons.html" target="_top" xlink:title="Gamepad buttons.">
<polygon fill="white" stroke="#666666" points="244.5,-204 140.5,-204 140.5,-185 244.5,-185 244.5,-204"/>
<text text-anchor="middle" x="192.5" y="-192" font-family="Helvetica,sans-Serif" font-size="10.00">Gamepad buttons</text>
</a>
</g>
</g>
<!-- Node2 -->
<g id="node4" class="node">
<title>Node2</title>
<g id="a_node4"><a xlink:href="group__hat__state.html" target="_top" xlink:title="Joystick hat states.">
<polygon fill="white" stroke="#666666" points="246,-167 139,-167 139,-148 246,-148 246,-167"/>
<text text-anchor="middle" x="192.5" y="-155" font-family="Helvetica,sans-Serif" font-size="10.00">Joystick hat states</text>
</a>
</g>
</g>
<!-- Node1 -->
<g id="node5" class="node">
<title>Node1</title>
<g id="a_node5"><a xlink:title="Functions and types related to input handling.">
<polygon fill="#999999" stroke="#666666" points="91,-148 0,-148 0,-129 91,-129 91,-148"/>
<text text-anchor="middle" x="45.5" y="-136" font-family="Helvetica,sans-Serif" font-size="10.00">Input reference</text>
</a>
</g>
</g>
<!-- Node1&#45;&gt;Node5 -->
<g id="edge4" class="edge">
<title>Node1&#45;&gt;Node5</title>
<path fill="none" stroke="black" d="M55.1,-157.5C67.42,-182.58 92.5,-226.39 127,-250.5 133.19,-254.83 140.4,-258.12 147.71,-260.62"/>
<polygon fill="black" stroke="black" points="58.18,-155.83 50.74,-148.3 51.85,-158.83 58.18,-155.83"/>
</g>
<!-- Node1&#45;&gt;Node8 -->
<g id="edge7" class="edge">
<title>Node1&#45;&gt;Node8</title>
<path fill="none" stroke="black" d="M60.94,-156.17C75.8,-173.23 100.47,-198.62 127,-213.5 133.39,-217.08 140.54,-219.99 147.69,-222.34"/>
<polygon fill="black" stroke="black" points="63.24,-153.47 54.1,-148.1 57.9,-157.99 63.24,-153.47"/>
</g>
<!-- Node1&#45;&gt;Node7 -->
<g id="edge6" class="edge">
<title>Node1&#45;&gt;Node7</title>
<path fill="none" stroke="black" d="M73.62,-152.71C89.01,-160.41 108.77,-169.71 127,-176.5 135.39,-179.62 144.57,-182.5 153.3,-184.99"/>
<polygon fill="black" stroke="black" points="75.16,-149.57 64.66,-148.16 71.99,-155.81 75.16,-149.57"/>
</g>
<!-- Node1&#45;&gt;Node2 -->
<g id="edge1" class="edge">
<title>Node1&#45;&gt;Node2</title>
<path fill="none" stroke="black" d="M101.31,-145.68C113.6,-147.29 126.61,-149 138.82,-150.6"/>
<polygon fill="black" stroke="black" points="101.56,-142.18 91.19,-144.36 100.65,-149.13 101.56,-142.18"/>
</g>
<!-- Node6 -->
<g id="node6" class="node">
<title>Node6</title>
<g id="a_node6"><a xlink:href="group__joysticks.html" target="_top" xlink:title="Joystick IDs.">
<polygon fill="white" stroke="#666666" points="222.5,-130 162.5,-130 162.5,-111 222.5,-111 222.5,-130"/>
<text text-anchor="middle" x="192.5" y="-118" font-family="Helvetica,sans-Serif" font-size="10.00">Joysticks</text>
</a>
</g>
</g>
<!-- Node1&#45;&gt;Node6 -->
<g id="edge5" class="edge">
<title>Node1&#45;&gt;Node6</title>
<path fill="none" stroke="black" d="M101.18,-131.71C121.94,-129.14 144.77,-126.3 162.29,-124.13"/>
<polygon fill="black" stroke="black" points="100.68,-128.25 91.19,-132.95 101.54,-135.19 100.68,-128.25"/>
</g>
<!-- Node3 -->
<g id="node7" class="node">
<title>Node3</title>
<g id="a_node7"><a xlink:href="group__keys.html" target="_top" xlink:title="Keyboard key IDs.">
<polygon fill="white" stroke="#666666" points="236.5,-93 148.5,-93 148.5,-74 236.5,-74 236.5,-93"/>
<text text-anchor="middle" x="192.5" y="-81" font-family="Helvetica,sans-Serif" font-size="10.00">Keyboard keys</text>
</a>
</g>
</g>
<!-- Node1&#45;&gt;Node3 -->
<g id="edge2" class="edge">
<title>Node1&#45;&gt;Node3</title>
<path fill="none" stroke="black" d="M75.4,-124.45C90.56,-117.36 109.56,-108.93 127,-102.5 136.31,-99.06 146.55,-95.82 156.07,-93.01"/>
<polygon fill="black" stroke="black" points="73.59,-121.43 66.04,-128.87 76.58,-127.76 73.59,-121.43"/>
</g>
<!-- Node4 -->
<g id="node8" class="node">
<title>Node4</title>
<g id="a_node8"><a xlink:href="group__mods.html" target="_top" xlink:title="Modifier key flags.">
<polygon fill="white" stroke="#666666" points="244,-56 141,-56 141,-37 244,-37 244,-56"/>
<text text-anchor="middle" x="192.5" y="-44" font-family="Helvetica,sans-Serif" font-size="10.00">Modifier key flags</text>
</a>
</g>
</g>
<!-- Node1&#45;&gt;Node4 -->
<g id="edge3" class="edge">
<title>Node1&#45;&gt;Node4</title>
<path fill="none" stroke="black" d="M61.32,-121.13C76.31,-104.6 100.94,-80.13 127,-65.5 133.82,-61.67 141.49,-58.55 149.09,-56.02"/>
<polygon fill="black" stroke="black" points="58.4,-119.15 54.4,-128.96 63.65,-123.79 58.4,-119.15"/>
</g>
<!-- Node9 -->
<g id="node9" class="node">
<title>Node9</title>
<g id="a_node9"><a xlink:href="group__shapes.html" target="_top" xlink:title="Standard system cursor shapes.">
<polygon fill="white" stroke="#666666" points="258,-19 127,-19 127,0 258,0 258,-19"/>
<text text-anchor="middle" x="192.5" y="-7" font-family="Helvetica,sans-Serif" font-size="10.00">Standard cursor shapes</text>
</a>
</g>
</g>
<!-- Node1&#45;&gt;Node9 -->
<g id="edge8" class="edge">
<title>Node1&#45;&gt;Node9</title>
<path fill="none" stroke="black" d="M55.23,-119.91C67.72,-95.36 92.97,-52.42 127,-28.5 132.54,-24.61 138.88,-21.5 145.37,-19.03"/>
<polygon fill="black" stroke="black" points="52.08,-118.4 50.81,-128.92 58.36,-121.49 52.08,-118.4"/>
</g>
</g>
</svg>
