<?xml version="1.0" encoding="UTF-8" standalone="no"?>
<!DOCTYPE svg PUBLIC "-//W3C//DTD SVG 1.1//EN"
 "http://www.w3.org/Graphics/SVG/1.1/DTD/svg11.dtd">
<!-- Generated by graphviz version 2.43.0 (0)
 -->
<!-- Title: func Pages: 1 -->
<svg width="1007pt" height="330pt"
 viewBox="0.00 0.00 1007.00 330.00" xmlns="http://www.w3.org/2000/svg" xmlns:xlink="http://www.w3.org/1999/xlink">
<g id="graph0" class="graph" transform="scale(1 1) rotate(0) translate(4 326)">
<title>func</title>
<!-- Node1 -->
<g id="node1" class="node">
<title>Node1</title>
<g id="a_node1"><a xlink:title=" ">
<polygon fill="#999999" stroke="#666666" points="999,-142 961,-142 961,-123 999,-123 999,-142"/>
<text text-anchor="middle" x="980" y="-130" font-family="Helvetica,sans-Serif" font-size="10.00">func</text>
</a>
</g>
</g>
<!-- Node2 -->
<g id="node2" class="node">
<title>Node2</title>
<g id="a_node2"><a xlink:href="imgui__demo_8cpp.html#aa2f1f2bd9f38dac933e8dbe79f687997" target="_top" xlink:title=" ">
<polygon fill="white" stroke="#666666" points="923,-287 761,-287 761,-268 923,-268 923,-287"/>
<text text-anchor="middle" x="842" y="-275" font-family="Helvetica,sans-Serif" font-size="10.00">DemoWindowWidgetsPlotting</text>
</a>
</g>
</g>
<!-- Node1&#45;&gt;Node2 -->
<g id="edge1" class="edge">
<title>Node1&#45;&gt;Node2</title>
<path fill="none" stroke="#63b8ff" d="M971.23,-151.53C962.32,-171.66 946.16,-203.5 925,-225.5 907.24,-243.97 881.66,-258.84 863.81,-267.87"/>
<polygon fill="#63b8ff" stroke="#63b8ff" points="974.51,-152.76 975.22,-142.19 968.08,-150.01 974.51,-152.76"/>
</g>
<!-- Node5 -->
<g id="node5" class="node">
<title>Node5</title>
<g id="a_node5"><a xlink:href="classmtgb_1_1MTImGui.html#aa9081f2cfb7ed13e429f9da025d215d4" target="_top" xlink:title="コールバックを表示キューに直接積む">
<polygon fill="white" stroke="#666666" points="919,-216 765,-216 765,-197 919,-197 919,-216"/>
<text text-anchor="middle" x="842" y="-204" font-family="Helvetica,sans-Serif" font-size="10.00">mtgb::MTImGui::DirectShow</text>
</a>
</g>
</g>
<!-- Node1&#45;&gt;Node5 -->
<g id="edge4" class="edge">
<title>Node1&#45;&gt;Node5</title>
<path fill="none" stroke="#63b8ff" d="M966.29,-150.46C956.45,-163.02 941.7,-179.17 925,-188.5 918.89,-191.91 912.19,-194.68 905.34,-196.92"/>
<polygon fill="#63b8ff" stroke="#63b8ff" points="969.36,-152.19 972.55,-142.09 963.76,-148 969.36,-152.19"/>
</g>
<!-- Node12 -->
<g id="node12" class="node">
<title>Node12</title>
<g id="a_node12"><a xlink:href="classmtgb_1_1Observer.html#ad14cb5634b3379b8028b442a8ee9cf97" target="_top" xlink:title=" ">
<polygon fill="white" stroke="#666666" points="907.5,-179 776.5,-179 776.5,-160 907.5,-160 907.5,-179"/>
<text text-anchor="middle" x="842" y="-167" font-family="Helvetica,sans-Serif" font-size="10.00">mtgb::Observer::Invoke</text>
</a>
</g>
</g>
<!-- Node1&#45;&gt;Node12 -->
<g id="edge11" class="edge">
<title>Node1&#45;&gt;Node12</title>
<path fill="none" stroke="#63b8ff" d="M951.06,-143.06C942.74,-146.01 933.56,-149.06 925,-151.5 914.21,-154.57 902.49,-157.42 891.37,-159.91"/>
<polygon fill="#63b8ff" stroke="#63b8ff" points="952.48,-146.27 960.68,-139.57 950.09,-139.69 952.48,-146.27"/>
</g>
<!-- Node13 -->
<g id="node13" class="node">
<title>Node13</title>
<g id="a_node13"><a xlink:href="classmtgb_1_1Debug.html#aa59fda3f614d13c72420102b1f1aa539" target="_top" xlink:title=" ">
<polygon fill="white" stroke="#666666" points="907,-142 777,-142 777,-123 907,-123 907,-142"/>
<text text-anchor="middle" x="842" y="-130" font-family="Helvetica,sans-Serif" font-size="10.00">mtgb::Debug::MakeKey</text>
</a>
</g>
</g>
<!-- Node1&#45;&gt;Node13 -->
<g id="edge12" class="edge">
<title>Node1&#45;&gt;Node13</title>
<path fill="none" stroke="#63b8ff" d="M950.58,-132.5C937.87,-132.5 922.33,-132.5 907.06,-132.5"/>
<polygon fill="#63b8ff" stroke="#63b8ff" points="950.94,-136 960.94,-132.5 950.94,-129 950.94,-136"/>
</g>
<!-- Node15 -->
<g id="node15" class="node">
<title>Node15</title>
<g id="a_node15"><a xlink:href="classCommandHandlerRegistry.html#a6cbff57d112398a38795b2eef540a5fc" target="_top" xlink:title=" ">
<polygon fill="white" stroke="#666666" points="915,-104.5 769,-104.5 769,-74.5 915,-74.5 915,-104.5"/>
<text text-anchor="start" x="777" y="-92.5" font-family="Helvetica,sans-Serif" font-size="10.00">CommandHandlerRegistry</text>
<text text-anchor="middle" x="842" y="-81.5" font-family="Helvetica,sans-Serif" font-size="10.00">::Register</text>
</a>
</g>
</g>
<!-- Node1&#45;&gt;Node15 -->
<g id="edge14" class="edge">
<title>Node1&#45;&gt;Node15</title>
<path fill="none" stroke="#63b8ff" d="M950.9,-122.98C942.58,-120.2 933.43,-117.19 925,-114.5 914.79,-111.24 903.84,-107.84 893.37,-104.63"/>
<polygon fill="#63b8ff" stroke="#63b8ff" points="949.95,-126.35 960.54,-126.22 952.18,-119.72 949.95,-126.35"/>
</g>
<!-- Node16 -->
<g id="node16" class="node">
<title>Node16</title>
<g id="a_node16"><a xlink:href="classTypeRegistry.html#aec3419f2fa985b8670cfbf58a3c7e815" target="_top" xlink:title=" ">
<polygon fill="white" stroke="#666666" points="916,-56 768,-56 768,-37 916,-37 916,-56"/>
<text text-anchor="middle" x="842" y="-44" font-family="Helvetica,sans-Serif" font-size="10.00">TypeRegistry::RegisterFunc</text>
</a>
</g>
</g>
<!-- Node1&#45;&gt;Node16 -->
<g id="edge15" class="edge">
<title>Node1&#45;&gt;Node16</title>
<path fill="none" stroke="#63b8ff" d="M968.79,-113.89C959.41,-98.56 944.08,-77.46 925,-65.5 918.81,-61.62 911.91,-58.53 904.81,-56.07"/>
<polygon fill="#63b8ff" stroke="#63b8ff" points="965.79,-115.69 973.85,-122.56 971.83,-112.16 965.79,-115.69"/>
</g>
<!-- Node22 -->
<g id="node22" class="node">
<title>Node22</title>
<g id="a_node22"><a xlink:href="classmtgb_1_1MTImGui.html#aa45c0c8107a8ba97723a53cf21cb7325" target="_top" xlink:title=" ">
<polygon fill="white" stroke="#666666" points="925,-19 759,-19 759,0 925,0 925,-19"/>
<text text-anchor="middle" x="842" y="-7" font-family="Helvetica,sans-Serif" font-size="10.00">mtgb::MTImGui::ShowListView</text>
</a>
</g>
</g>
<!-- Node1&#45;&gt;Node22 -->
<g id="edge21" class="edge">
<title>Node1&#45;&gt;Node22</title>
<path fill="none" stroke="#63b8ff" d="M974.46,-113.19C967.81,-89.28 953.03,-49.07 925,-27.5 920.61,-24.12 915.72,-21.35 910.57,-19.08"/>
<polygon fill="#63b8ff" stroke="#63b8ff" points="971.08,-114.09 976.97,-122.9 977.86,-112.34 971.08,-114.09"/>
</g>
<!-- Node3 -->
<g id="node3" class="node">
<title>Node3</title>
<g id="a_node3"><a xlink:href="imgui__demo_8cpp.html#a9a639caab781642cbc4f4a23bfbd11cd" target="_top" xlink:title=" ">
<polygon fill="white" stroke="#666666" points="705.5,-322 580.5,-322 580.5,-303 705.5,-303 705.5,-322"/>
<text text-anchor="middle" x="643" y="-310" font-family="Helvetica,sans-Serif" font-size="10.00">DemoWindowWidgets</text>
</a>
</g>
</g>
<!-- Node2&#45;&gt;Node3 -->
<g id="edge2" class="edge">
<title>Node2&#45;&gt;Node3</title>
<path fill="none" stroke="#63b8ff" d="M777.38,-288.8C751.62,-293.38 722.2,-298.61 697.56,-302.98"/>
<polygon fill="#63b8ff" stroke="#63b8ff" points="778.2,-292.21 787.43,-287.02 776.97,-285.32 778.2,-292.21"/>
</g>
<!-- Node4 -->
<g id="node4" class="node">
<title>Node4</title>
<g id="a_node4"><a xlink:href="namespaceImGui.html#af95643a0ce4893b9e57c12991922fb18" target="_top" xlink:title=" ">
<polygon fill="white" stroke="#666666" points="512.5,-322 366.5,-322 366.5,-303 512.5,-303 512.5,-322"/>
<text text-anchor="middle" x="439.5" y="-310" font-family="Helvetica,sans-Serif" font-size="10.00">ImGui::ShowDemoWindow</text>
</a>
</g>
</g>
<!-- Node3&#45;&gt;Node4 -->
<g id="edge3" class="edge">
<title>Node3&#45;&gt;Node4</title>
<path fill="none" stroke="#63b8ff" d="M570.23,-312.5C551.52,-312.5 531.36,-312.5 512.64,-312.5"/>
<polygon fill="#63b8ff" stroke="#63b8ff" points="570.45,-316 580.45,-312.5 570.45,-309 570.45,-316"/>
</g>
<!-- Node6 -->
<g id="node6" class="node">
<title>Node6</title>
<g id="a_node6"><a xlink:href="classmtgb_1_1MTImGui.html#a6e1f2a4343ee349da40c7552ad9f26b2" target="_top" xlink:title="型を指定して表示キューに積む 事前にSetupShowFuncで表示方法を登録する必要あり">
<polygon fill="white" stroke="#666666" points="719.5,-285 566.5,-285 566.5,-266 719.5,-266 719.5,-285"/>
<text text-anchor="middle" x="643" y="-273" font-family="Helvetica,sans-Serif" font-size="10.00">mtgb::MTImGui::TypedShow</text>
</a>
</g>
</g>
<!-- Node5&#45;&gt;Node6 -->
<g id="edge5" class="edge">
<title>Node5&#45;&gt;Node6</title>
<path fill="none" stroke="#63b8ff" d="M812.25,-220.26C788.67,-231.16 754.2,-246.22 723,-256.5 712.28,-260.03 700.55,-263.21 689.48,-265.92"/>
<polygon fill="#63b8ff" stroke="#63b8ff" points="813.76,-223.42 821.34,-216.01 810.8,-217.07 813.76,-223.42"/>
</g>
<!-- Node9 -->
<g id="node9" class="node">
<title>Node9</title>
<g id="a_node9"><a xlink:href="classmtgb_1_1DXGIResource.html#a4bdee96054d05221b6c3a821c9d76847" target="_top" xlink:title="更新処理">
<polygon fill="white" stroke="#666666" points="702,-247.5 584,-247.5 584,-217.5 702,-217.5 702,-247.5"/>
<text text-anchor="start" x="592" y="-235.5" font-family="Helvetica,sans-Serif" font-size="10.00">mtgb::DXGIResource</text>
<text text-anchor="middle" x="643" y="-224.5" font-family="Helvetica,sans-Serif" font-size="10.00">::Update</text>
</a>
</g>
</g>
<!-- Node5&#45;&gt;Node9 -->
<g id="edge8" class="edge">
<title>Node5&#45;&gt;Node9</title>
<path fill="none" stroke="#63b8ff" d="M758.61,-217.37C739.6,-219.88 719.77,-222.5 702.06,-224.84"/>
<polygon fill="#63b8ff" stroke="#63b8ff" points="759.31,-220.81 768.76,-216.03 758.39,-213.87 759.31,-220.81"/>
</g>
<!-- Node10 -->
<g id="node10" class="node">
<title>Node10</title>
<g id="a_node10"><a xlink:href="classmtgb_1_1ScoreManager.html#adbebc24602944500ef8dd102d9e357ea" target="_top" xlink:title=" ">
<polygon fill="white" stroke="#666666" points="702,-199.5 584,-199.5 584,-169.5 702,-169.5 702,-199.5"/>
<text text-anchor="start" x="592" y="-187.5" font-family="Helvetica,sans-Serif" font-size="10.00">mtgb::ScoreManager</text>
<text text-anchor="middle" x="643" y="-176.5" font-family="Helvetica,sans-Serif" font-size="10.00">::Update</text>
</a>
</g>
</g>
<!-- Node5&#45;&gt;Node10 -->
<g id="edge9" class="edge">
<title>Node5&#45;&gt;Node10</title>
<path fill="none" stroke="#63b8ff" d="M754.51,-196.84C736.83,-194.87 718.64,-192.84 702.24,-191"/>
<polygon fill="#63b8ff" stroke="#63b8ff" points="754.51,-200.36 764.83,-197.99 755.28,-193.41 754.51,-200.36"/>
</g>
<!-- Node11 -->
<g id="node11" class="node">
<title>Node11</title>
<g id="a_node11"><a xlink:href="classmtgb_1_1Camera.html#a3fa552f30a150c210180fc745838576d" target="_top" xlink:title=" ">
<polygon fill="white" stroke="#666666" points="707,-151 579,-151 579,-132 707,-132 707,-151"/>
<text text-anchor="middle" x="643" y="-139" font-family="Helvetica,sans-Serif" font-size="10.00">mtgb::Camera::Update</text>
</a>
</g>
</g>
<!-- Node5&#45;&gt;Node11 -->
<g id="edge10" class="edge">
<title>Node5&#45;&gt;Node11</title>
<path fill="none" stroke="#63b8ff" d="M772.5,-193.92C767.85,-192.32 763.31,-190.52 759,-188.5 740.65,-179.89 741.26,-169.29 723,-160.5 714.99,-156.65 706.14,-153.54 697.35,-151.04"/>
<polygon fill="#63b8ff" stroke="#63b8ff" points="771.56,-197.29 782.15,-196.93 773.65,-190.61 771.56,-197.29"/>
</g>
<!-- Node7 -->
<g id="node7" class="node">
<title>Node7</title>
<g id="a_node7"><a xlink:href="classHighlightEnemy.html#ac8568e36fb1a50ab4d6012fa79f22a2e" target="_top" xlink:title=" ">
<polygon fill="white" stroke="#666666" points="507,-285 372,-285 372,-266 507,-266 507,-285"/>
<text text-anchor="middle" x="439.5" y="-273" font-family="Helvetica,sans-Serif" font-size="10.00">HighlightEnemy::Update</text>
</a>
</g>
</g>
<!-- Node6&#45;&gt;Node7 -->
<g id="edge6" class="edge">
<title>Node6&#45;&gt;Node7</title>
<path fill="none" stroke="#63b8ff" d="M556.27,-275.5C539.88,-275.5 522.94,-275.5 507.25,-275.5"/>
<polygon fill="#63b8ff" stroke="#63b8ff" points="556.4,-279 566.4,-275.5 556.4,-272 556.4,-279"/>
</g>
<!-- Node8 -->
<g id="node8" class="node">
<title>Node8</title>
<g id="a_node8"><a xlink:href="classmtgb_1_1InputResource.html#ad1a7496289a816903d50af7232189601" target="_top" xlink:title="更新処理">
<polygon fill="white" stroke="#666666" points="498.5,-247.5 380.5,-247.5 380.5,-217.5 498.5,-217.5 498.5,-247.5"/>
<text text-anchor="start" x="388.5" y="-235.5" font-family="Helvetica,sans-Serif" font-size="10.00">mtgb::InputResource</text>
<text text-anchor="middle" x="439.5" y="-224.5" font-family="Helvetica,sans-Serif" font-size="10.00">::Update</text>
</a>
</g>
</g>
<!-- Node6&#45;&gt;Node8 -->
<g id="edge7" class="edge">
<title>Node6&#45;&gt;Node8</title>
<path fill="none" stroke="#63b8ff" d="M587.46,-263.86C560.05,-258.01 526.81,-250.92 498.88,-244.96"/>
<polygon fill="#63b8ff" stroke="#63b8ff" points="586.77,-267.29 597.28,-265.96 588.23,-260.45 586.77,-267.29"/>
</g>
<!-- Node14 -->
<g id="node14" class="node">
<title>Node14</title>
<g id="a_node14"><a xlink:href="classmtgb_1_1Debug.html#a4b64e335782574a376cbb4c5d64cd3d1" target="_top" xlink:title=" ">
<polygon fill="white" stroke="#666666" points="709,-114 577,-114 577,-95 709,-95 709,-114"/>
<text text-anchor="middle" x="643" y="-102" font-family="Helvetica,sans-Serif" font-size="10.00">mtgb::Debug::LogImGui</text>
</a>
</g>
</g>
<!-- Node13&#45;&gt;Node14 -->
<g id="edge13" class="edge">
<title>Node13&#45;&gt;Node14</title>
<path fill="none" stroke="#63b8ff" d="M766.7,-121.94C747.78,-119.25 727.59,-116.38 709.16,-113.76"/>
<polygon fill="#63b8ff" stroke="#63b8ff" points="766.37,-125.43 776.77,-123.37 767.36,-118.5 766.37,-125.43"/>
</g>
<!-- Node17 -->
<g id="node17" class="node">
<title>Node17</title>
<g id="a_node17"><a xlink:href="namespaceRegisterShowFuncHolder.html#af08ace69b5719a63c9be6b507e8aee41" target="_top" xlink:title="型に対応したImGuiの表示処理をセットする">
<polygon fill="white" stroke="#666666" points="723,-56 563,-56 563,-37 723,-37 723,-56"/>
<text text-anchor="middle" x="643" y="-44" font-family="Helvetica,sans-Serif" font-size="10.00">RegisterShowFuncHolder::Set</text>
</a>
</g>
</g>
<!-- Node16&#45;&gt;Node17 -->
<g id="edge16" class="edge">
<title>Node16&#45;&gt;Node17</title>
<path fill="none" stroke="#63b8ff" d="M757.92,-46.5C746.43,-46.5 734.66,-46.5 723.24,-46.5"/>
<polygon fill="#63b8ff" stroke="#63b8ff" points="757.92,-50 767.92,-46.5 757.92,-43 757.92,-50"/>
</g>
<!-- Node18 -->
<g id="node18" class="node">
<title>Node18</title>
<g id="a_node18"><a xlink:href="classmtgb_1_1MTImGui.html#a66e27a522dc67b37932354e70e6d9674" target="_top" xlink:title="TypedShowの_targetの型に対応する関数を登録する">
<polygon fill="white" stroke="#666666" points="527,-56 352,-56 352,-37 527,-37 527,-56"/>
<text text-anchor="middle" x="439.5" y="-44" font-family="Helvetica,sans-Serif" font-size="10.00">mtgb::MTImGui::SetupShowFunc</text>
</a>
</g>
</g>
<!-- Node17&#45;&gt;Node18 -->
<g id="edge17" class="edge">
<title>Node17&#45;&gt;Node18</title>
<path fill="none" stroke="#63b8ff" d="M552.72,-46.5C544.28,-46.5 535.74,-46.5 527.32,-46.5"/>
<polygon fill="#63b8ff" stroke="#63b8ff" points="552.94,-50 562.94,-46.5 552.94,-43 552.94,-50"/>
</g>
<!-- Node19 -->
<g id="node19" class="node">
<title>Node19</title>
<g id="a_node19"><a xlink:href="classmtgb_1_1MTImGui.html#a9d99d144b1fc6bbaacf6044db9ef8eba" target="_top" xlink:title=" ">
<polygon fill="white" stroke="#666666" points="316,-56 176,-56 176,-37 316,-37 316,-56"/>
<text text-anchor="middle" x="246" y="-44" font-family="Helvetica,sans-Serif" font-size="10.00">mtgb::MTImGui::Initialize</text>
</a>
</g>
</g>
<!-- Node18&#45;&gt;Node19 -->
<g id="edge18" class="edge">
<title>Node18&#45;&gt;Node19</title>
<path fill="none" stroke="#63b8ff" d="M341.85,-46.5C333.19,-46.5 324.54,-46.5 316.19,-46.5"/>
<polygon fill="#63b8ff" stroke="#63b8ff" points="341.99,-50 351.99,-46.5 341.99,-43 341.99,-50"/>
</g>
<!-- Node20 -->
<g id="node20" class="node">
<title>Node20</title>
<g id="a_node20"><a xlink:href="classSampleScene.html#aae186be401040c6ad4aef71afd78f711" target="_top" xlink:title=" ">
<polygon fill="white" stroke="#666666" points="135.5,-75 4.5,-75 4.5,-56 135.5,-56 135.5,-75"/>
<text text-anchor="middle" x="70" y="-63" font-family="Helvetica,sans-Serif" font-size="10.00">SampleScene::Initialize</text>
</a>
</g>
</g>
<!-- Node19&#45;&gt;Node20 -->
<g id="edge19" class="edge">
<title>Node19&#45;&gt;Node20</title>
<path fill="none" stroke="#63b8ff" d="M165.93,-55.13C155.81,-56.24 145.54,-57.36 135.69,-58.44"/>
<polygon fill="#63b8ff" stroke="#63b8ff" points="166.42,-58.6 175.98,-54.04 165.66,-51.64 166.42,-58.6"/>
</g>
<!-- Node21 -->
<g id="node21" class="node">
<title>Node21</title>
<g id="a_node21"><a xlink:href="classStageEditScene.html#ab58c8a57aad68525a42128f090cb4919" target="_top" xlink:title=" ">
<polygon fill="white" stroke="#666666" points="140,-38 0,-38 0,-19 140,-19 140,-38"/>
<text text-anchor="middle" x="70" y="-26" font-family="Helvetica,sans-Serif" font-size="10.00">StageEditScene::Initialize</text>
</a>
</g>
</g>
<!-- Node19&#45;&gt;Node21 -->
<g id="edge20" class="edge">
<title>Node19&#45;&gt;Node21</title>
<path fill="none" stroke="#63b8ff" d="M165.97,-38.32C157.38,-37.44 148.68,-36.54 140.22,-35.66"/>
<polygon fill="#63b8ff" stroke="#63b8ff" points="165.67,-41.81 175.98,-39.36 166.39,-34.85 165.67,-41.81"/>
</g>
</g>
</svg>
