<?xml version="1.0" encoding="UTF-8" standalone="no"?>
<!DOCTYPE svg PUBLIC "-//W3C//DTD SVG 1.1//EN"
 "http://www.w3.org/Graphics/SVG/1.1/DTD/svg11.dtd">
<!-- Generated by graphviz version 2.43.0 (0)
 -->
<!-- Title: HttpHeaderBuilder.h Pages: 1 -->
<svg width="240pt" height="137pt"
 viewBox="0.00 0.00 239.50 137.00" xmlns="http://www.w3.org/2000/svg" xmlns:xlink="http://www.w3.org/1999/xlink">
<g id="graph0" class="graph" transform="scale(1 1) rotate(0) translate(4 133)">
<title>HttpHeaderBuilder.h</title>
<!-- Node1 -->
<g id="node1" class="node">
<title>Node1</title>
<g id="a_node1"><a xlink:title=" ">
<polygon fill="#999999" stroke="#666666" points="193,-129 77,-129 77,-110 193,-110 193,-129"/>
<text text-anchor="middle" x="135" y="-117" font-family="Helvetica,sans-Serif" font-size="10.00">HttpHeaderBuilder.h</text>
</a>
</g>
</g>
<!-- Node2 -->
<g id="node2" class="node">
<title>Node2</title>
<g id="a_node2"><a xlink:href="HttpClient_8h.html" target="_top" xlink:title=" ">
<polygon fill="white" stroke="#666666" points="139.5,-74 64.5,-74 64.5,-55 139.5,-55 139.5,-74"/>
<text text-anchor="middle" x="102" y="-62" font-family="Helvetica,sans-Serif" font-size="10.00">HttpClient.h</text>
</a>
</g>
</g>
<!-- Node1&#45;&gt;Node2 -->
<g id="edge1" class="edge">
<title>Node1&#45;&gt;Node2</title>
<path fill="none" stroke="#63b8ff" d="M124.17,-101.1C118.53,-92.04 111.88,-81.37 107.35,-74.09"/>
<polygon fill="#63b8ff" stroke="#63b8ff" points="121.29,-103.11 129.55,-109.75 127.24,-99.41 121.29,-103.11"/>
</g>
<!-- Node4 -->
<g id="node4" class="node">
<title>Node4</title>
<g id="a_node4"><a xlink:href="HttpHeaderBuilder_8cpp.html" target="_top" xlink:title=" ">
<polygon fill="white" stroke="#666666" points="231.5,-19 104.5,-19 104.5,0 231.5,0 231.5,-19"/>
<text text-anchor="middle" x="168" y="-7" font-family="Helvetica,sans-Serif" font-size="10.00">HttpHeaderBuilder.cpp</text>
</a>
</g>
</g>
<!-- Node1&#45;&gt;Node4 -->
<g id="edge4" class="edge">
<title>Node1&#45;&gt;Node4</title>
<path fill="none" stroke="#63b8ff" d="M140.71,-99.8C147.92,-76.2 160.03,-36.58 165.35,-19.16"/>
<polygon fill="#63b8ff" stroke="#63b8ff" points="137.28,-99.08 137.7,-109.66 143.97,-101.12 137.28,-99.08"/>
</g>
<!-- Node3 -->
<g id="node3" class="node">
<title>Node3</title>
<g id="a_node3"><a xlink:href="HttpClient_8cpp.html" target="_top" xlink:title=" ">
<polygon fill="white" stroke="#666666" points="86,-19 0,-19 0,0 86,0 86,-19"/>
<text text-anchor="middle" x="43" y="-7" font-family="Helvetica,sans-Serif" font-size="10.00">HttpClient.cpp</text>
</a>
</g>
</g>
<!-- Node2&#45;&gt;Node3 -->
<g id="edge2" class="edge">
<title>Node2&#45;&gt;Node3</title>
<path fill="none" stroke="#63b8ff" d="M84.8,-48.04C74.33,-38.64 61.35,-26.98 52.65,-19.17"/>
<polygon fill="#63b8ff" stroke="#63b8ff" points="82.74,-50.91 92.52,-54.98 87.42,-45.7 82.74,-50.91"/>
</g>
<!-- Node2&#45;&gt;Node4 -->
<g id="edge3" class="edge">
<title>Node2&#45;&gt;Node4</title>
<path fill="none" stroke="#63b8ff" d="M120.55,-48.6C132.38,-39.11 147.29,-27.13 157.2,-19.17"/>
<polygon fill="#63b8ff" stroke="#63b8ff" points="118.21,-45.99 112.6,-54.98 122.59,-51.45 118.21,-45.99"/>
</g>
</g>
</svg>
