<?xml version="1.0" encoding="UTF-8" standalone="no"?>
<!DOCTYPE svg PUBLIC "-//W3C//DTD SVG 1.1//EN"
 "http://www.w3.org/Graphics/SVG/1.1/DTD/svg11.dtd">
<!-- Generated by graphviz version 2.43.0 (0)
 -->
<!-- Title: ICamera.h Pages: 1 -->
<svg width="2894pt" height="368pt"
 viewBox="0.00 0.00 2894.00 368.00" xmlns="http://www.w3.org/2000/svg" xmlns:xlink="http://www.w3.org/1999/xlink">
<g id="graph0" class="graph" transform="scale(1 1) rotate(0) translate(4 364)">
<title>ICamera.h</title>
<!-- Node1 -->
<g id="node1" class="node">
<title>Node1</title>
<g id="a_node1"><a xlink:title=" ">
<polygon fill="#999999" stroke="#666666" points="1493,-360 1426,-360 1426,-341 1493,-341 1493,-360"/>
<text text-anchor="middle" x="1459.5" y="-348" font-family="Helvetica,sans-Serif" font-size="10.00">ICamera.h</text>
</a>
</g>
</g>
<!-- Node2 -->
<g id="node2" class="node">
<title>Node2</title>
<g id="a_node2"><a xlink:href="ICamera_8cpp.html" target="_top" xlink:title=" ">
<polygon fill="white" stroke="#666666" points="1380.5,-305 1302.5,-305 1302.5,-286 1380.5,-286 1380.5,-305"/>
<text text-anchor="middle" x="1341.5" y="-293" font-family="Helvetica,sans-Serif" font-size="10.00">ICamera.cpp</text>
</a>
</g>
</g>
<!-- Node1&#45;&gt;Node2 -->
<g id="edge1" class="edge">
<title>Node1&#45;&gt;Node2</title>
<path fill="none" stroke="#63b8ff" d="M1431.15,-336.77C1409.38,-326.99 1379.91,-313.75 1360.8,-305.17"/>
<polygon fill="#63b8ff" stroke="#63b8ff" points="1429.99,-340.08 1440.54,-340.98 1432.85,-333.69 1429.99,-340.08"/>
</g>
<!-- Node3 -->
<g id="node3" class="node">
<title>Node3</title>
<g id="a_node3"><a xlink:href="ImGuiEditorCamera_8h.html" target="_top" xlink:title=" ">
<polygon fill="white" stroke="#666666" points="1520.5,-305 1398.5,-305 1398.5,-286 1520.5,-286 1520.5,-305"/>
<text text-anchor="middle" x="1459.5" y="-293" font-family="Helvetica,sans-Serif" font-size="10.00">ImGuiEditorCamera.h</text>
</a>
</g>
</g>
<!-- Node1&#45;&gt;Node3 -->
<g id="edge2" class="edge">
<title>Node1&#45;&gt;Node3</title>
<path fill="none" stroke="#63b8ff" d="M1459.5,-330.66C1459.5,-321.93 1459.5,-311.99 1459.5,-305.09"/>
<polygon fill="#63b8ff" stroke="#63b8ff" points="1456,-330.75 1459.5,-340.75 1463,-330.75 1456,-330.75"/>
</g>
<!-- Node6 -->
<g id="node6" class="node">
<title>Node6</title>
<g id="a_node6"><a xlink:href="mtgb_8h.html" target="_top" xlink:title=" ">
<polygon fill="white" stroke="#666666" points="1590,-195 1539,-195 1539,-176 1590,-176 1590,-195"/>
<text text-anchor="middle" x="1564.5" y="-183" font-family="Helvetica,sans-Serif" font-size="10.00">mtgb.h</text>
</a>
</g>
</g>
<!-- Node1&#45;&gt;Node6 -->
<g id="edge65" class="edge">
<title>Node1&#45;&gt;Node6</title>
<path fill="none" stroke="#63b8ff" d="M1488.71,-336.34C1519.01,-320.76 1564.19,-291.58 1580.5,-250 1587.89,-231.16 1577.27,-207.82 1570.11,-195.35"/>
<polygon fill="#63b8ff" stroke="#63b8ff" points="1486.87,-333.35 1479.45,-340.92 1489.97,-339.62 1486.87,-333.35"/>
</g>
<!-- Node4 -->
<g id="node4" class="node">
<title>Node4</title>
<g id="a_node4"><a xlink:href="ImGuiEditor_8h.html" target="_top" xlink:title=" ">
<polygon fill="white" stroke="#666666" points="1571,-250 1488,-250 1488,-231 1571,-231 1571,-250"/>
<text text-anchor="middle" x="1529.5" y="-238" font-family="Helvetica,sans-Serif" font-size="10.00">ImGuiEditor.h</text>
</a>
</g>
</g>
<!-- Node3&#45;&gt;Node4 -->
<g id="edge3" class="edge">
<title>Node3&#45;&gt;Node4</title>
<path fill="none" stroke="#63b8ff" d="M1478.81,-279.88C1491.41,-270.34 1507.43,-258.21 1518.05,-250.17"/>
<polygon fill="#63b8ff" stroke="#63b8ff" points="1476.61,-277.16 1470.75,-285.98 1480.83,-282.74 1476.61,-277.16"/>
</g>
<!-- Node3&#45;&gt;Node6 -->
<g id="edge64" class="edge">
<title>Node3&#45;&gt;Node6</title>
<path fill="none" stroke="#63b8ff" d="M1461.59,-275.48C1463.95,-261.8 1468.95,-243.6 1479.5,-231 1494.89,-212.61 1519.86,-200.82 1538.77,-194.04"/>
<polygon fill="#63b8ff" stroke="#63b8ff" points="1458.08,-275.31 1460.16,-285.69 1465.01,-276.27 1458.08,-275.31"/>
</g>
<!-- Node47 -->
<g id="node40" class="node">
<title>Node47</title>
<g id="a_node40"><a xlink:href="ImGuiEditorCamera_8cpp.html" target="_top" xlink:title=" ">
<polygon fill="white" stroke="#666666" points="133,-195 0,-195 0,-176 133,-176 133,-195"/>
<text text-anchor="middle" x="66.5" y="-183" font-family="Helvetica,sans-Serif" font-size="10.00">ImGuiEditorCamera.cpp</text>
</a>
</g>
</g>
<!-- Node3&#45;&gt;Node47 -->
<g id="edge50" class="edge">
<title>Node3&#45;&gt;Node47</title>
<path fill="none" stroke="#63b8ff" d="M1388.11,-285.94C1111.96,-261.51 1040.3,-269.89 767.5,-250 489.39,-229.72 419.97,-222.72 142.5,-195 139.46,-194.7 136.36,-194.38 133.22,-194.05"/>
<polygon fill="#63b8ff" stroke="#63b8ff" points="1388.17,-289.45 1398.44,-286.86 1388.79,-282.48 1388.17,-289.45"/>
</g>
<!-- Node48 -->
<g id="node41" class="node">
<title>Node48</title>
<g id="a_node41"><a xlink:href="ImGuiRenderer_8h.html" target="_top" xlink:title=" ">
<polygon fill="white" stroke="#666666" points="874.5,-250 776.5,-250 776.5,-231 874.5,-231 874.5,-250"/>
<text text-anchor="middle" x="825.5" y="-238" font-family="Helvetica,sans-Serif" font-size="10.00">ImGuiRenderer.h</text>
</a>
</g>
</g>
<!-- Node3&#45;&gt;Node48 -->
<g id="edge51" class="edge">
<title>Node3&#45;&gt;Node48</title>
<path fill="none" stroke="#63b8ff" d="M1388.21,-285.91C1191.7,-266.43 970.93,-251.06 874.6,-244.68"/>
<polygon fill="#63b8ff" stroke="#63b8ff" points="1388.14,-289.42 1398.43,-286.93 1388.83,-282.46 1388.14,-289.42"/>
</g>
<!-- Node5 -->
<g id="node5" class="node">
<title>Node5</title>
<g id="a_node5"><a xlink:href="ImGuiEditor_8cpp.html" target="_top" xlink:title=" ">
<polygon fill="white" stroke="#666666" points="1702.5,-195 1608.5,-195 1608.5,-176 1702.5,-176 1702.5,-195"/>
<text text-anchor="middle" x="1655.5" y="-183" font-family="Helvetica,sans-Serif" font-size="10.00">ImGuiEditor.cpp</text>
</a>
</g>
</g>
<!-- Node4&#45;&gt;Node5 -->
<g id="edge4" class="edge">
<title>Node4&#45;&gt;Node5</title>
<path fill="none" stroke="#63b8ff" d="M1559.15,-227.03C1582.45,-217.23 1614.3,-203.83 1634.89,-195.17"/>
<polygon fill="#63b8ff" stroke="#63b8ff" points="1557.6,-223.88 1549.74,-230.98 1560.32,-230.33 1557.6,-223.88"/>
</g>
<!-- Node4&#45;&gt;Node6 -->
<g id="edge5" class="edge">
<title>Node4&#45;&gt;Node6</title>
<path fill="none" stroke="#63b8ff" d="M1540.8,-222.39C1546.82,-213.27 1553.97,-202.45 1558.83,-195.09"/>
<polygon fill="#63b8ff" stroke="#63b8ff" points="1537.87,-220.47 1535.28,-230.75 1543.71,-224.33 1537.87,-220.47"/>
</g>
<!-- Node7 -->
<g id="node7" class="node">
<title>Node7</title>
<g id="a_node7"><a xlink:href="Box3D_8h.html" target="_top" xlink:title=" ">
<polygon fill="white" stroke="#666666" points="2451.5,-140 2393.5,-140 2393.5,-121 2451.5,-121 2451.5,-140"/>
<text text-anchor="middle" x="2422.5" y="-128" font-family="Helvetica,sans-Serif" font-size="10.00">Box3D.h</text>
</a>
</g>
</g>
<!-- Node6&#45;&gt;Node7 -->
<g id="edge6" class="edge">
<title>Node6&#45;&gt;Node7</title>
<path fill="none" stroke="#63b8ff" d="M1600.07,-176.26C1921.41,-130.28 2007.07,-162.04 2326.5,-140 2348.87,-138.46 2374.12,-136.2 2393.11,-134.4"/>
<polygon fill="#63b8ff" stroke="#63b8ff" points="1599.4,-172.82 1590.01,-177.72 1600.4,-179.75 1599.4,-172.82"/>
</g>
<!-- Node11 -->
<g id="node11" class="node">
<title>Node11</title>
<g id="a_node11"><a xlink:href="Camera_8h.html" target="_top" xlink:title=" ">
<polygon fill="white" stroke="#666666" points="907.5,-140 843.5,-140 843.5,-121 907.5,-121 907.5,-140"/>
<text text-anchor="middle" x="875.5" y="-128" font-family="Helvetica,sans-Serif" font-size="10.00">Camera.h</text>
</a>
</g>
</g>
<!-- Node6&#45;&gt;Node11 -->
<g id="edge10" class="edge">
<title>Node6&#45;&gt;Node11</title>
<path fill="none" stroke="#63b8ff" d="M1528.82,-182.92C1432.56,-178.47 1159.49,-164.49 933.5,-140 925.1,-139.09 916.05,-137.88 907.66,-136.65"/>
<polygon fill="#63b8ff" stroke="#63b8ff" points="1528.74,-186.42 1538.89,-183.39 1529.06,-179.43 1528.74,-186.42"/>
</g>
<!-- Node14 -->
<g id="node14" class="node">
<title>Node14</title>
<g id="a_node14"><a xlink:href="Player_8h.html" target="_top" xlink:title=" ">
<polygon fill="white" stroke="#666666" points="975.5,-79.5 919.5,-79.5 919.5,-60.5 975.5,-60.5 975.5,-79.5"/>
<text text-anchor="middle" x="947.5" y="-67.5" font-family="Helvetica,sans-Serif" font-size="10.00">Player.h</text>
</a>
</g>
</g>
<!-- Node6&#45;&gt;Node14 -->
<g id="edge34" class="edge">
<title>Node6&#45;&gt;Node14</title>
<path fill="none" stroke="#63b8ff" d="M1528.48,-182.96C1402.54,-177.43 988.3,-157.93 966.5,-140 948.46,-125.16 946.67,-94.91 946.99,-79.88"/>
<polygon fill="#63b8ff" stroke="#63b8ff" points="1528.6,-186.47 1538.75,-183.41 1528.91,-179.47 1528.6,-186.47"/>
</g>
<!-- Node17 -->
<g id="node17" class="node">
<title>Node17</title>
<g id="a_node17"><a xlink:href="TitleScene_8cpp.html" target="_top" xlink:title=" ">
<polygon fill="white" stroke="#666666" points="770.5,-79.5 682.5,-79.5 682.5,-60.5 770.5,-60.5 770.5,-79.5"/>
<text text-anchor="middle" x="726.5" y="-67.5" font-family="Helvetica,sans-Serif" font-size="10.00">TitleScene.cpp</text>
</a>
</g>
</g>
<!-- Node6&#45;&gt;Node17 -->
<g id="edge48" class="edge">
<title>Node6&#45;&gt;Node17</title>
<path fill="none" stroke="#63b8ff" d="M1528.21,-182.8C1385.33,-176.02 867.78,-150.83 834.5,-140 794.09,-126.85 753.86,-94.91 736.04,-79.54"/>
<polygon fill="#63b8ff" stroke="#63b8ff" points="1528.44,-186.31 1538.6,-183.29 1528.78,-179.32 1528.44,-186.31"/>
</g>
<!-- Node18 -->
<g id="node18" class="node">
<title>Node18</title>
<g id="a_node18"><a xlink:href="GameOverZone_8h.html" target="_top" xlink:title=" ">
<polygon fill="white" stroke="#666666" points="1503,-140 1400,-140 1400,-121 1503,-121 1503,-140"/>
<text text-anchor="middle" x="1451.5" y="-128" font-family="Helvetica,sans-Serif" font-size="10.00">GameOverZone.h</text>
</a>
</g>
</g>
<!-- Node6&#45;&gt;Node18 -->
<g id="edge18" class="edge">
<title>Node6&#45;&gt;Node18</title>
<path fill="none" stroke="#63b8ff" d="M1537.07,-171.63C1516.25,-161.87 1488.2,-148.71 1469.99,-140.17"/>
<polygon fill="#63b8ff" stroke="#63b8ff" points="1535.8,-174.91 1546.34,-175.98 1538.78,-168.57 1535.8,-174.91"/>
</g>
<!-- Node20 -->
<g id="node20" class="node">
<title>Node20</title>
<g id="a_node20"><a xlink:href="Goal_8h.html" target="_top" xlink:title=" ">
<polygon fill="white" stroke="#666666" points="1137.5,-140 1089.5,-140 1089.5,-121 1137.5,-121 1137.5,-140"/>
<text text-anchor="middle" x="1113.5" y="-128" font-family="Helvetica,sans-Serif" font-size="10.00">Goal.h</text>
</a>
</g>
</g>
<!-- Node6&#45;&gt;Node20 -->
<g id="edge21" class="edge">
<title>Node6&#45;&gt;Node20</title>
<path fill="none" stroke="#63b8ff" d="M1528.6,-180.33C1461.17,-172.48 1310.98,-154.98 1184.5,-140 1168.97,-138.16 1151.52,-136.07 1137.81,-134.43"/>
<polygon fill="#63b8ff" stroke="#63b8ff" points="1528.36,-183.82 1538.7,-181.5 1529.17,-176.87 1528.36,-183.82"/>
</g>
<!-- Node22 -->
<g id="node22" class="node">
<title>Node22</title>
<g id="a_node22"><a xlink:href="HighlightEnemy_8h.html" target="_top" xlink:title=" ">
<polygon fill="white" stroke="#666666" points="2712.5,-140 2610.5,-140 2610.5,-121 2712.5,-121 2712.5,-140"/>
<text text-anchor="middle" x="2661.5" y="-128" font-family="Helvetica,sans-Serif" font-size="10.00">HighlightEnemy.h</text>
</a>
</g>
</g>
<!-- Node6&#45;&gt;Node22 -->
<g id="edge24" class="edge">
<title>Node6&#45;&gt;Node22</title>
<path fill="none" stroke="#63b8ff" d="M1599.9,-176.3C1980.47,-123.12 2081.11,-155.95 2460.5,-140 2511.45,-137.86 2569.66,-135.39 2610.28,-133.67"/>
<polygon fill="#63b8ff" stroke="#63b8ff" points="1599.42,-172.83 1590,-177.69 1600.39,-179.77 1599.42,-172.83"/>
</g>
<!-- Node24 -->
<g id="node24" class="node">
<title>Node24</title>
<g id="a_node24"><a xlink:href="Model_8cpp.html" target="_top" xlink:title=" ">
<polygon fill="white" stroke="#666666" points="1261,-140 1194,-140 1194,-121 1261,-121 1261,-140"/>
<text text-anchor="middle" x="1227.5" y="-128" font-family="Helvetica,sans-Serif" font-size="10.00">Model.cpp</text>
</a>
</g>
</g>
<!-- Node6&#45;&gt;Node24 -->
<g id="edge26" class="edge">
<title>Node6&#45;&gt;Node24</title>
<path fill="none" stroke="#63b8ff" d="M1528.74,-179.69C1473.15,-172.09 1362.7,-156.45 1269.5,-140 1266.86,-139.53 1264.14,-139.03 1261.4,-138.51"/>
<polygon fill="#63b8ff" stroke="#63b8ff" points="1528.4,-183.18 1538.78,-181.06 1529.34,-176.24 1528.4,-183.18"/>
</g>
<!-- Node25 -->
<g id="node25" class="node">
<title>Node25</title>
<g id="a_node25"><a xlink:href="MovingFloor_8h.html" target="_top" xlink:title=" ">
<polygon fill="white" stroke="#666666" points="2098.5,-140 2012.5,-140 2012.5,-121 2098.5,-121 2098.5,-140"/>
<text text-anchor="middle" x="2055.5" y="-128" font-family="Helvetica,sans-Serif" font-size="10.00">MovingFloor.h</text>
</a>
</g>
</g>
<!-- Node6&#45;&gt;Node25 -->
<g id="edge27" class="edge">
<title>Node6&#45;&gt;Node25</title>
<path fill="none" stroke="#63b8ff" d="M1600.04,-176.19C1779.11,-147.21 1827.88,-162.15 2003.5,-140 2006.4,-139.63 2009.39,-139.23 2012.41,-138.79"/>
<polygon fill="#63b8ff" stroke="#63b8ff" points="1599.32,-172.76 1590.02,-177.84 1600.46,-179.67 1599.32,-172.76"/>
</g>
<!-- Node29 -->
<g id="node29" class="node">
<title>Node29</title>
<g id="a_node29"><a xlink:href="PatrolChargerEnemy_8h.html" target="_top" xlink:title=" ">
<polygon fill="#fff0f0" stroke="red" points="2132.5,-79.5 2008.5,-79.5 2008.5,-60.5 2132.5,-60.5 2132.5,-79.5"/>
<text text-anchor="middle" x="2070.5" y="-67.5" font-family="Helvetica,sans-Serif" font-size="10.00">PatrolChargerEnemy.h</text>
</a>
</g>
</g>
<!-- Node6&#45;&gt;Node29 -->
<g id="edge32" class="edge">
<title>Node6&#45;&gt;Node29</title>
<path fill="none" stroke="#63b8ff" d="M1600.04,-176.58C1689.48,-168.38 2070.55,-179.66 2107.5,-140 2124.73,-121.5 2097.39,-93.46 2081.15,-79.51"/>
<polygon fill="#63b8ff" stroke="#63b8ff" points="1599.53,-173.12 1590.02,-177.78 1600.36,-180.07 1599.53,-173.12"/>
</g>
<!-- Node31 -->
<g id="node30" class="node">
<title>Node31</title>
<g id="a_node30"><a xlink:href="SampleGame_8h.html" target="_top" xlink:title=" ">
<polygon fill="#fff0f0" stroke="red" points="2284.5,-140 2192.5,-140 2192.5,-121 2284.5,-121 2284.5,-140"/>
<text text-anchor="middle" x="2238.5" y="-128" font-family="Helvetica,sans-Serif" font-size="10.00">SampleGame.h</text>
</a>
</g>
</g>
<!-- Node6&#45;&gt;Node31 -->
<g id="edge35" class="edge">
<title>Node6&#45;&gt;Node31</title>
<path fill="none" stroke="#63b8ff" d="M1599.99,-176.25C1856.17,-138.15 1925.25,-165.77 2178.5,-140 2183,-139.54 2187.68,-139 2192.36,-138.41"/>
<polygon fill="#63b8ff" stroke="#63b8ff" points="1599.38,-172.8 1590.01,-177.75 1600.42,-179.73 1599.38,-172.8"/>
</g>
<!-- Node33 -->
<g id="node31" class="node">
<title>Node33</title>
<g id="a_node31"><a xlink:href="Source_2TheMain_8cpp.html" target="_top" xlink:title=" ">
<polygon fill="white" stroke="#666666" points="2230,-79.5 2151,-79.5 2151,-60.5 2230,-60.5 2230,-79.5"/>
<text text-anchor="middle" x="2190.5" y="-67.5" font-family="Helvetica,sans-Serif" font-size="10.00">TheMain.cpp</text>
</a>
</g>
</g>
<!-- Node6&#45;&gt;Node33 -->
<g id="edge46" class="edge">
<title>Node6&#45;&gt;Node33</title>
<path fill="none" stroke="#63b8ff" d="M1600.25,-176.33C1730.68,-159.74 2020.41,-187.82 2123.5,-140 2152.28,-126.65 2175.25,-95.11 2185.17,-79.73"/>
<polygon fill="#63b8ff" stroke="#63b8ff" points="1599.43,-172.91 1590.01,-177.77 1600.41,-179.84 1599.43,-172.91"/>
</g>
<!-- Node34 -->
<g id="node32" class="node">
<title>Node34</title>
<g id="a_node32"><a xlink:href="SampleScene_8cpp.html" target="_top" xlink:title=" ">
<polygon fill="white" stroke="#666666" points="1382,-140 1279,-140 1279,-121 1382,-121 1382,-140"/>
<text text-anchor="middle" x="1330.5" y="-128" font-family="Helvetica,sans-Serif" font-size="10.00">SampleScene.cpp</text>
</a>
</g>
</g>
<!-- Node6&#45;&gt;Node34 -->
<g id="edge37" class="edge">
<title>Node6&#45;&gt;Node34</title>
<path fill="none" stroke="#63b8ff" d="M1528.72,-176.39C1485.28,-166.56 1412.37,-150.04 1368.12,-140.02"/>
<polygon fill="#63b8ff" stroke="#63b8ff" points="1528.04,-179.83 1538.56,-178.63 1529.58,-173 1528.04,-179.83"/>
</g>
<!-- Node35 -->
<g id="node33" class="node">
<title>Node35</title>
<g id="a_node33"><a xlink:href="ScoreItem_8h.html" target="_top" xlink:title=" ">
<polygon fill="#fff0f0" stroke="red" points="2323,-79.5 2248,-79.5 2248,-60.5 2323,-60.5 2323,-79.5"/>
<text text-anchor="middle" x="2285.5" y="-67.5" font-family="Helvetica,sans-Serif" font-size="10.00">ScoreItem.h</text>
</a>
</g>
</g>
<!-- Node6&#45;&gt;Node35 -->
<g id="edge38" class="edge">
<title>Node6&#45;&gt;Node35</title>
<path fill="none" stroke="#63b8ff" d="M1600.11,-176.58C1712.82,-166.81 2242.1,-194.14 2293.5,-140 2309.11,-123.56 2297.48,-94.05 2290.2,-79.54"/>
<polygon fill="#63b8ff" stroke="#63b8ff" points="1599.55,-173.12 1590.01,-177.72 1600.34,-180.08 1599.55,-173.12"/>
</g>
<!-- Node37 -->
<g id="node34" class="node">
<title>Node37</title>
<g id="a_node34"><a xlink:href="ScoreViewer_8h.html" target="_top" xlink:title=" ">
<polygon fill="#fff0f0" stroke="red" points="1607.5,-140 1521.5,-140 1521.5,-121 1607.5,-121 1607.5,-140"/>
<text text-anchor="middle" x="1564.5" y="-128" font-family="Helvetica,sans-Serif" font-size="10.00">ScoreViewer.h</text>
</a>
</g>
</g>
<!-- Node6&#45;&gt;Node37 -->
<g id="edge40" class="edge">
<title>Node6&#45;&gt;Node37</title>
<path fill="none" stroke="#63b8ff" d="M1564.5,-165.66C1564.5,-156.93 1564.5,-146.99 1564.5,-140.09"/>
<polygon fill="#63b8ff" stroke="#63b8ff" points="1561,-165.75 1564.5,-175.75 1568,-165.75 1561,-165.75"/>
</g>
<!-- Node39 -->
<g id="node35" class="node">
<title>Node39</title>
<g id="a_node35"><a xlink:href="StageEditScene_8cpp.html" target="_top" xlink:title=" ">
<polygon fill="white" stroke="#666666" points="1739,-140 1626,-140 1626,-121 1739,-121 1739,-140"/>
<text text-anchor="middle" x="1682.5" y="-128" font-family="Helvetica,sans-Serif" font-size="10.00">StageEditScene.cpp</text>
</a>
</g>
</g>
<!-- Node6&#45;&gt;Node39 -->
<g id="edge41" class="edge">
<title>Node6&#45;&gt;Node39</title>
<path fill="none" stroke="#63b8ff" d="M1592.85,-171.77C1614.62,-161.99 1644.09,-148.75 1663.2,-140.17"/>
<polygon fill="#63b8ff" stroke="#63b8ff" points="1591.15,-168.69 1583.46,-175.98 1594.01,-175.08 1591.15,-168.69"/>
</g>
<!-- Node40 -->
<g id="node36" class="node">
<title>Node40</title>
<g id="a_node36"><a xlink:href="StageManager_8h.html" target="_top" xlink:title=" ">
<polygon fill="#fff0f0" stroke="red" points="1071,-140 976,-140 976,-121 1071,-121 1071,-140"/>
<text text-anchor="middle" x="1023.5" y="-128" font-family="Helvetica,sans-Serif" font-size="10.00">StageManager.h</text>
</a>
</g>
</g>
<!-- Node6&#45;&gt;Node40 -->
<g id="edge42" class="edge">
<title>Node6&#45;&gt;Node40</title>
<path fill="none" stroke="#63b8ff" d="M1528.94,-181.92C1448.77,-175.95 1247.87,-160.16 1080.5,-140 1077.42,-139.63 1074.25,-139.22 1071.06,-138.8"/>
<polygon fill="#63b8ff" stroke="#63b8ff" points="1528.76,-185.42 1539,-182.66 1529.28,-178.44 1528.76,-185.42"/>
</g>
<!-- Node42 -->
<g id="node37" class="node">
<title>Node42</title>
<g id="a_node37"><a xlink:href="TextBox_8h.html" target="_top" xlink:title=" ">
<polygon fill="#fff0f0" stroke="red" points="1822,-140 1757,-140 1757,-121 1822,-121 1822,-140"/>
<text text-anchor="middle" x="1789.5" y="-128" font-family="Helvetica,sans-Serif" font-size="10.00">TextBox.h</text>
</a>
</g>
</g>
<!-- Node6&#45;&gt;Node42 -->
<g id="edge45" class="edge">
<title>Node6&#45;&gt;Node42</title>
<path fill="none" stroke="#63b8ff" d="M1599.94,-175.91C1661.16,-161.33 1720.93,-147.4 1756.87,-139.06"/>
<polygon fill="#63b8ff" stroke="#63b8ff" points="1599.02,-172.53 1590.11,-178.26 1600.65,-179.34 1599.02,-172.53"/>
</g>
<!-- Node44 -->
<g id="node38" class="node">
<title>Node44</title>
<g id="a_node38"><a xlink:href="TimeLimit_8h.html" target="_top" xlink:title=" ">
<polygon fill="#fff0f0" stroke="red" points="1915,-140 1840,-140 1840,-121 1915,-121 1915,-140"/>
<text text-anchor="middle" x="1877.5" y="-128" font-family="Helvetica,sans-Serif" font-size="10.00">TimeLimit.h</text>
</a>
</g>
</g>
<!-- Node6&#45;&gt;Node44 -->
<g id="edge47" class="edge">
<title>Node6&#45;&gt;Node44</title>
<path fill="none" stroke="#63b8ff" d="M1599.98,-176.06C1703.54,-155.76 1731.74,-156.95 1831.5,-140 1834.22,-139.54 1837.03,-139.05 1839.86,-138.55"/>
<polygon fill="#63b8ff" stroke="#63b8ff" points="1599.19,-172.65 1590.06,-178.03 1600.55,-179.52 1599.19,-172.65"/>
</g>
<!-- Node46 -->
<g id="node39" class="node">
<title>Node46</title>
<g id="a_node39"><a xlink:href="mtgb_8cpp.html" target="_top" xlink:title=" ">
<polygon fill="white" stroke="#666666" points="1994.5,-140 1932.5,-140 1932.5,-121 1994.5,-121 1994.5,-140"/>
<text text-anchor="middle" x="1963.5" y="-128" font-family="Helvetica,sans-Serif" font-size="10.00">mtgb.cpp</text>
</a>
</g>
</g>
<!-- Node6&#45;&gt;Node46 -->
<g id="edge49" class="edge">
<title>Node6&#45;&gt;Node46</title>
<path fill="none" stroke="#63b8ff" d="M1600.15,-176.13C1744.41,-151.35 1784.31,-162.98 1924.5,-140 1927.1,-139.57 1929.79,-139.09 1932.48,-138.57"/>
<polygon fill="#63b8ff" stroke="#63b8ff" points="1599.28,-172.73 1590.03,-177.9 1600.49,-179.63 1599.28,-172.73"/>
</g>
<!-- Node8 -->
<g id="node8" class="node">
<title>Node8</title>
<g id="a_node8"><a xlink:href="Box3D_8cpp.html" target="_top" xlink:title=" ">
<polygon fill="white" stroke="#666666" points="2410,-79.5 2341,-79.5 2341,-60.5 2410,-60.5 2410,-79.5"/>
<text text-anchor="middle" x="2375.5" y="-67.5" font-family="Helvetica,sans-Serif" font-size="10.00">Box3D.cpp</text>
</a>
</g>
</g>
<!-- Node7&#45;&gt;Node8 -->
<g id="edge7" class="edge">
<title>Node7&#45;&gt;Node8</title>
<path fill="none" stroke="#63b8ff" d="M2409.2,-112.95C2400.5,-102.12 2389.49,-88.41 2382.46,-79.67"/>
<polygon fill="#63b8ff" stroke="#63b8ff" points="2406.57,-115.26 2415.56,-120.87 2412.03,-110.88 2406.57,-115.26"/>
</g>
<!-- Node9 -->
<g id="node9" class="node">
<title>Node9</title>
<g id="a_node9"><a xlink:href="GameObjectGenerator_8cpp.html" target="_top" xlink:title=" ">
<polygon fill="white" stroke="#666666" points="2574.5,-79.5 2428.5,-79.5 2428.5,-60.5 2574.5,-60.5 2574.5,-79.5"/>
<text text-anchor="middle" x="2501.5" y="-67.5" font-family="Helvetica,sans-Serif" font-size="10.00">GameObjectGenerator.cpp</text>
</a>
</g>
</g>
<!-- Node7&#45;&gt;Node9 -->
<g id="edge8" class="edge">
<title>Node7&#45;&gt;Node9</title>
<path fill="none" stroke="#63b8ff" d="M2442.29,-114.85C2457.25,-103.77 2477.29,-88.93 2489.8,-79.67"/>
<polygon fill="#63b8ff" stroke="#63b8ff" points="2440.11,-112.1 2434.16,-120.87 2444.28,-117.73 2440.11,-112.1"/>
</g>
<!-- Node10 -->
<g id="node10" class="node">
<title>Node10</title>
<g id="a_node10"><a xlink:href="RegisterCommonGameObjectType_8cpp.html" target="_top" xlink:title=" ">
<polygon fill="white" stroke="#666666" points="2754.5,-85 2592.5,-85 2592.5,-55 2754.5,-55 2754.5,-85"/>
<text text-anchor="start" x="2600.5" y="-73" font-family="Helvetica,sans-Serif" font-size="10.00">RegisterCommonGameObject</text>
<text text-anchor="middle" x="2673.5" y="-62" font-family="Helvetica,sans-Serif" font-size="10.00">Type.cpp</text>
</a>
</g>
</g>
<!-- Node7&#45;&gt;Node10 -->
<g id="edge9" class="edge">
<title>Node7&#45;&gt;Node10</title>
<path fill="none" stroke="#63b8ff" d="M2461.58,-120.39C2502.22,-110.92 2566.35,-95.97 2613.42,-85"/>
<polygon fill="#63b8ff" stroke="#63b8ff" points="2460.73,-117 2451.78,-122.67 2462.32,-123.81 2460.73,-117"/>
</g>
<!-- Node12 -->
<g id="node12" class="node">
<title>Node12</title>
<g id="a_node12"><a xlink:href="Camera_8cpp.html" target="_top" xlink:title=" ">
<polygon fill="white" stroke="#666666" points="902,-79.5 827,-79.5 827,-60.5 902,-60.5 902,-79.5"/>
<text text-anchor="middle" x="864.5" y="-67.5" font-family="Helvetica,sans-Serif" font-size="10.00">Camera.cpp</text>
</a>
</g>
</g>
<!-- Node11&#45;&gt;Node12 -->
<g id="edge11" class="edge">
<title>Node11&#45;&gt;Node12</title>
<path fill="none" stroke="#63b8ff" d="M872.02,-110.99C870.05,-100.51 867.68,-87.89 866.13,-79.67"/>
<polygon fill="#63b8ff" stroke="#63b8ff" points="868.59,-111.69 873.88,-120.87 875.47,-110.39 868.59,-111.69"/>
</g>
<!-- Node13 -->
<g id="node13" class="node">
<title>Node13</title>
<g id="a_node13"><a xlink:href="Player_8cpp.html" target="_top" xlink:title=" ">
<polygon fill="white" stroke="#666666" points="907,-19 840,-19 840,0 907,0 907,-19"/>
<text text-anchor="middle" x="873.5" y="-7" font-family="Helvetica,sans-Serif" font-size="10.00">Player.cpp</text>
</a>
</g>
</g>
<!-- Node11&#45;&gt;Node13 -->
<g id="edge12" class="edge">
<title>Node11&#45;&gt;Node13</title>
<path fill="none" stroke="#63b8ff" d="M848.14,-115.89C836.43,-108.5 823.99,-98.15 817.5,-85 811.6,-73.04 811.7,-67.01 817.5,-55 825.38,-38.67 842.49,-26.49 855.73,-19.04"/>
<polygon fill="#63b8ff" stroke="#63b8ff" points="846.43,-118.95 856.83,-120.97 849.96,-112.9 846.43,-118.95"/>
</g>
<!-- Node11&#45;&gt;Node14 -->
<g id="edge13" class="edge">
<title>Node11&#45;&gt;Node14</title>
<path fill="none" stroke="#63b8ff" d="M893.92,-114.54C907.51,-103.49 925.54,-88.84 936.83,-79.67"/>
<polygon fill="#63b8ff" stroke="#63b8ff" points="891.68,-111.85 886.12,-120.87 896.09,-117.28 891.68,-111.85"/>
</g>
<!-- Node16 -->
<g id="node16" class="node">
<title>Node16</title>
<g id="a_node16"><a xlink:href="ResultScene_8cpp.html" target="_top" xlink:title=" ">
<polygon fill="white" stroke="#666666" points="1091,-79.5 994,-79.5 994,-60.5 1091,-60.5 1091,-79.5"/>
<text text-anchor="middle" x="1042.5" y="-67.5" font-family="Helvetica,sans-Serif" font-size="10.00">ResultScene.cpp</text>
</a>
</g>
</g>
<!-- Node11&#45;&gt;Node16 -->
<g id="edge16" class="edge">
<title>Node11&#45;&gt;Node16</title>
<path fill="none" stroke="#63b8ff" d="M909.27,-117.67C941.56,-106.36 989.48,-89.57 1018.19,-79.52"/>
<polygon fill="#63b8ff" stroke="#63b8ff" points="908.06,-114.38 899.78,-120.99 910.38,-120.99 908.06,-114.38"/>
</g>
<!-- Node11&#45;&gt;Node17 -->
<g id="edge17" class="edge">
<title>Node11&#45;&gt;Node17</title>
<path fill="none" stroke="#63b8ff" d="M844.25,-117.23C815.45,-105.92 773.47,-89.44 748.19,-79.52"/>
<polygon fill="#63b8ff" stroke="#63b8ff" points="843.25,-120.6 853.83,-120.99 845.8,-114.08 843.25,-120.6"/>
</g>
<!-- Node14&#45;&gt;Node13 -->
<g id="edge14" class="edge">
<title>Node14&#45;&gt;Node13</title>
<path fill="none" stroke="#63b8ff" d="M928.57,-54.04C914.6,-42.99 896.07,-28.34 884.46,-19.17"/>
<polygon fill="#63b8ff" stroke="#63b8ff" points="926.57,-56.91 936.58,-60.37 930.91,-51.42 926.57,-56.91"/>
</g>
<!-- Node15 -->
<g id="node15" class="node">
<title>Node15</title>
<g id="a_node15"><a xlink:href="RegisterGameObjectType_8cpp.html" target="_top" xlink:title=" ">
<polygon fill="white" stroke="#666666" points="1725,-19 1564,-19 1564,0 1725,0 1725,-19"/>
<text text-anchor="middle" x="1644.5" y="-7" font-family="Helvetica,sans-Serif" font-size="10.00">RegisterGameObjectType.cpp</text>
</a>
</g>
</g>
<!-- Node14&#45;&gt;Node15 -->
<g id="edge15" class="edge">
<title>Node14&#45;&gt;Node15</title>
<path fill="none" stroke="#63b8ff" d="M976.37,-57.16C979.08,-56.32 981.82,-55.58 984.5,-55 1092.78,-31.41 1412.92,-18.1 1563.93,-12.97"/>
<polygon fill="#63b8ff" stroke="#63b8ff" points="975.06,-53.91 966.76,-60.49 977.35,-60.52 975.06,-53.91"/>
</g>
<!-- Node18&#45;&gt;Node15 -->
<g id="edge20" class="edge">
<title>Node18&#45;&gt;Node15</title>
<path fill="none" stroke="#63b8ff" d="M1451.22,-110.49C1452.03,-93.66 1455.93,-69.58 1470.5,-55 1486.7,-38.79 1541.67,-26.52 1585.54,-19.02"/>
<polygon fill="#63b8ff" stroke="#63b8ff" points="1447.72,-110.72 1451.06,-120.77 1454.71,-110.83 1447.72,-110.72"/>
</g>
<!-- Node19 -->
<g id="node19" class="node">
<title>Node19</title>
<g id="a_node19"><a xlink:href="GameOverZone_8cpp.html" target="_top" xlink:title=" ">
<polygon fill="white" stroke="#666666" points="1593.5,-79.5 1479.5,-79.5 1479.5,-60.5 1593.5,-60.5 1593.5,-79.5"/>
<text text-anchor="middle" x="1536.5" y="-67.5" font-family="Helvetica,sans-Serif" font-size="10.00">GameOverZone.cpp</text>
</a>
</g>
</g>
<!-- Node18&#45;&gt;Node19 -->
<g id="edge19" class="edge">
<title>Node18&#45;&gt;Node19</title>
<path fill="none" stroke="#63b8ff" d="M1472.34,-115.16C1488.49,-104.05 1510.33,-89.01 1523.91,-79.67"/>
<polygon fill="#63b8ff" stroke="#63b8ff" points="1470.3,-112.32 1464.04,-120.87 1474.26,-118.08 1470.3,-112.32"/>
</g>
<!-- Node20&#45;&gt;Node15 -->
<g id="edge23" class="edge">
<title>Node20&#45;&gt;Node15</title>
<path fill="none" stroke="#63b8ff" d="M1140.47,-116.5C1176.68,-99.6 1243.43,-70.45 1303.5,-55 1390.96,-32.51 1494.1,-21.06 1563.87,-15.46"/>
<polygon fill="#63b8ff" stroke="#63b8ff" points="1138.64,-113.48 1131.09,-120.91 1141.63,-119.82 1138.64,-113.48"/>
</g>
<!-- Node21 -->
<g id="node21" class="node">
<title>Node21</title>
<g id="a_node21"><a xlink:href="Goal_8cpp.html" target="_top" xlink:title=" ">
<polygon fill="white" stroke="#666666" points="1168,-79.5 1109,-79.5 1109,-60.5 1168,-60.5 1168,-79.5"/>
<text text-anchor="middle" x="1138.5" y="-67.5" font-family="Helvetica,sans-Serif" font-size="10.00">Goal.cpp</text>
</a>
</g>
</g>
<!-- Node20&#45;&gt;Node21 -->
<g id="edge22" class="edge">
<title>Node20&#45;&gt;Node21</title>
<path fill="none" stroke="#63b8ff" d="M1121.13,-111.65C1125.66,-101.04 1131.21,-88.06 1134.8,-79.67"/>
<polygon fill="#63b8ff" stroke="#63b8ff" points="1117.9,-110.3 1117.19,-120.87 1124.34,-113.05 1117.9,-110.3"/>
</g>
<!-- Node23 -->
<g id="node23" class="node">
<title>Node23</title>
<g id="a_node23"><a xlink:href="HighlightEnemy_8cpp.html" target="_top" xlink:title=" ">
<polygon fill="white" stroke="#666666" points="2886,-79.5 2773,-79.5 2773,-60.5 2886,-60.5 2886,-79.5"/>
<text text-anchor="middle" x="2829.5" y="-67.5" font-family="Helvetica,sans-Serif" font-size="10.00">HighlightEnemy.cpp</text>
</a>
</g>
</g>
<!-- Node22&#45;&gt;Node23 -->
<g id="edge25" class="edge">
<title>Node22&#45;&gt;Node23</title>
<path fill="none" stroke="#63b8ff" d="M2695.47,-117.67C2727.96,-106.36 2776.16,-89.57 2805.04,-79.52"/>
<polygon fill="#63b8ff" stroke="#63b8ff" points="2694.22,-114.4 2685.93,-120.99 2696.52,-121.01 2694.22,-114.4"/>
</g>
<!-- Node25&#45;&gt;Node15 -->
<g id="edge31" class="edge">
<title>Node25&#45;&gt;Node15</title>
<path fill="none" stroke="#63b8ff" d="M2005.12,-118.8C1962.65,-109.34 1905.54,-95.46 1884.5,-85 1865.23,-75.42 1865.94,-64.22 1846.5,-55 1807.23,-36.39 1759.96,-25.43 1721.02,-19.05"/>
<polygon fill="#63b8ff" stroke="#63b8ff" points="2004.5,-122.25 2015.02,-120.99 2006.01,-115.41 2004.5,-122.25"/>
</g>
<!-- Node26 -->
<g id="node26" class="node">
<title>Node26</title>
<g id="a_node26"><a xlink:href="MTImGui_8cpp.html" target="_top" xlink:title=" ">
<polygon fill="white" stroke="#666666" points="1394,-79.5 1313,-79.5 1313,-60.5 1394,-60.5 1394,-79.5"/>
<text text-anchor="middle" x="1353.5" y="-67.5" font-family="Helvetica,sans-Serif" font-size="10.00">MTImGui.cpp</text>
</a>
</g>
</g>
<!-- Node25&#45;&gt;Node26 -->
<g id="edge28" class="edge">
<title>Node25&#45;&gt;Node26</title>
<path fill="none" stroke="#63b8ff" d="M2002.48,-121C1765.94,-94.18 1703.66,-106.81 1470.5,-85 1445.04,-82.62 1416.55,-79.22 1394.06,-76.38"/>
<polygon fill="#63b8ff" stroke="#63b8ff" points="2002.08,-124.47 2012.41,-122.13 2002.88,-117.52 2002.08,-124.47"/>
</g>
<!-- Node27 -->
<g id="node27" class="node">
<title>Node27</title>
<g id="a_node27"><a xlink:href="MovingFloor_8cpp.html" target="_top" xlink:title=" ">
<polygon fill="white" stroke="#666666" points="1990,-79.5 1893,-79.5 1893,-60.5 1990,-60.5 1990,-79.5"/>
<text text-anchor="middle" x="1941.5" y="-67.5" font-family="Helvetica,sans-Serif" font-size="10.00">MovingFloor.cpp</text>
</a>
</g>
</g>
<!-- Node25&#45;&gt;Node27 -->
<g id="edge29" class="edge">
<title>Node25&#45;&gt;Node27</title>
<path fill="none" stroke="#63b8ff" d="M2029.63,-116.23C2007.81,-105.03 1977.19,-89.32 1958.39,-79.67"/>
<polygon fill="#63b8ff" stroke="#63b8ff" points="2028.18,-119.42 2038.68,-120.87 2031.38,-113.19 2028.18,-119.42"/>
</g>
<!-- Node28 -->
<g id="node28" class="node">
<title>Node28</title>
<g id="a_node28"><a xlink:href="MovingFloor_8generated_8cpp.html" target="_top" xlink:title=" ">
<polygon fill="white" stroke="#666666" points="1837,-79.5 1688,-79.5 1688,-60.5 1837,-60.5 1837,-79.5"/>
<text text-anchor="middle" x="1762.5" y="-67.5" font-family="Helvetica,sans-Serif" font-size="10.00">MovingFloor.generated.cpp</text>
</a>
</g>
</g>
<!-- Node25&#45;&gt;Node28 -->
<g id="edge30" class="edge">
<title>Node25&#45;&gt;Node28</title>
<path fill="none" stroke="#63b8ff" d="M2003.08,-119.03C1946.53,-107.74 1857.58,-89.98 1805.16,-79.52"/>
<polygon fill="#63b8ff" stroke="#63b8ff" points="2002.4,-122.47 2012.9,-120.99 2003.77,-115.6 2002.4,-122.47"/>
</g>
<!-- Node29&#45;&gt;Node15 -->
<g id="edge33" class="edge">
<title>Node29&#45;&gt;Node15</title>
<path fill="none" stroke="#63b8ff" d="M2019.8,-58.55C2012.99,-57.28 2006.08,-56.06 1999.5,-55 1905.67,-39.89 1797.2,-26.94 1725.09,-18.98"/>
<polygon fill="#63b8ff" stroke="#63b8ff" points="2019.18,-62 2029.66,-60.44 2020.5,-55.12 2019.18,-62"/>
</g>
<!-- Node31&#45;&gt;Node33 -->
<g id="edge36" class="edge">
<title>Node31&#45;&gt;Node33</title>
<path fill="none" stroke="#63b8ff" d="M2224.92,-112.95C2216.04,-102.12 2204.78,-88.41 2197.61,-79.67"/>
<polygon fill="#63b8ff" stroke="#63b8ff" points="2222.37,-115.36 2231.42,-120.87 2227.78,-110.92 2222.37,-115.36"/>
</g>
<!-- Node35&#45;&gt;Node15 -->
<g id="edge39" class="edge">
<title>Node35&#45;&gt;Node15</title>
<path fill="none" stroke="#63b8ff" d="M2251.3,-57.69C2247.35,-56.65 2243.36,-55.72 2239.5,-55 2057.75,-20.98 1840.18,-12.77 1725.11,-10.91"/>
<polygon fill="#63b8ff" stroke="#63b8ff" points="2250.35,-61.05 2260.92,-60.43 2252.26,-54.32 2250.35,-61.05"/>
</g>
<!-- Node40&#45;&gt;Node16 -->
<g id="edge44" class="edge">
<title>Node40&#45;&gt;Node16</title>
<path fill="none" stroke="#63b8ff" d="M1029.4,-111.32C1032.83,-100.78 1036.99,-87.98 1039.68,-79.67"/>
<polygon fill="#63b8ff" stroke="#63b8ff" points="1026.06,-110.28 1026.3,-120.87 1032.72,-112.44 1026.06,-110.28"/>
</g>
<!-- Node40&#45;&gt;Node21 -->
<g id="edge43" class="edge">
<title>Node40&#45;&gt;Node21</title>
<path fill="none" stroke="#63b8ff" d="M1049.59,-116.23C1071.61,-105.03 1102.49,-89.32 1121.46,-79.67"/>
<polygon fill="#63b8ff" stroke="#63b8ff" points="1047.79,-113.21 1040.47,-120.87 1050.97,-119.45 1047.79,-113.21"/>
</g>
<!-- Node48&#45;&gt;Node6 -->
<g id="edge63" class="edge">
<title>Node48&#45;&gt;Node6</title>
<path fill="none" stroke="#63b8ff" d="M884.61,-235.26C1036.12,-224.39 1433.84,-195.87 1538.8,-188.34"/>
<polygon fill="#63b8ff" stroke="#63b8ff" points="884.28,-231.78 874.56,-235.98 884.78,-238.76 884.28,-231.78"/>
</g>
<!-- Node48&#45;&gt;Node26 -->
<g id="edge58" class="edge">
<title>Node48&#45;&gt;Node26</title>
<path fill="none" stroke="#63b8ff" d="M884.86,-237.72C965.84,-234.21 1105.58,-224.04 1146.5,-195 1176.65,-173.61 1156.03,-144.59 1184.5,-121 1204.05,-104.79 1269.31,-88.58 1312.77,-79.19"/>
<polygon fill="#63b8ff" stroke="#63b8ff" points="884.65,-234.22 874.8,-238.13 884.94,-241.22 884.65,-234.22"/>
</g>
<!-- Node48&#45;&gt;Node47 -->
<g id="edge54" class="edge">
<title>Node48&#45;&gt;Node47</title>
<path fill="none" stroke="#63b8ff" d="M765.83,-236.54C647.04,-230.45 372.58,-215.35 142.5,-195 139.46,-194.73 136.35,-194.44 133.21,-194.14"/>
<polygon fill="#63b8ff" stroke="#63b8ff" points="765.99,-240.06 776.16,-237.07 766.35,-233.07 765.99,-240.06"/>
</g>
<!-- Node49 -->
<g id="node42" class="node">
<title>Node49</title>
<g id="a_node42"><a xlink:href="DirectX11Manager_8cpp.html" target="_top" xlink:title=" ">
<polygon fill="white" stroke="#666666" points="1321,-195 1194,-195 1194,-176 1321,-176 1321,-195"/>
<text text-anchor="middle" x="1257.5" y="-183" font-family="Helvetica,sans-Serif" font-size="10.00">DirectX11Manager.cpp</text>
</a>
</g>
</g>
<!-- Node48&#45;&gt;Node49 -->
<g id="edge52" class="edge">
<title>Node48&#45;&gt;Node49</title>
<path fill="none" stroke="#63b8ff" d="M884.67,-232.24C965.64,-222.31 1110.41,-204.55 1193.72,-194.32"/>
<polygon fill="#63b8ff" stroke="#63b8ff" points="884.13,-228.78 874.64,-233.47 884.99,-235.73 884.13,-228.78"/>
</g>
<!-- Node50 -->
<g id="node43" class="node">
<title>Node50</title>
<g id="a_node43"><a xlink:href="Draw_8cpp.html" target="_top" xlink:title=" ">
<polygon fill="white" stroke="#666666" points="213.5,-195 151.5,-195 151.5,-176 213.5,-176 213.5,-195"/>
<text text-anchor="middle" x="182.5" y="-183" font-family="Helvetica,sans-Serif" font-size="10.00">Draw.cpp</text>
</a>
</g>
</g>
<!-- Node48&#45;&gt;Node50 -->
<g id="edge53" class="edge">
<title>Node48&#45;&gt;Node50</title>
<path fill="none" stroke="#63b8ff" d="M766.33,-237.8C657.97,-234.09 420.58,-223.22 222.5,-195 219.69,-194.6 216.78,-194.12 213.87,-193.59"/>
<polygon fill="#63b8ff" stroke="#63b8ff" points="766.3,-241.3 776.41,-238.13 766.53,-234.3 766.3,-241.3"/>
</g>
<!-- Node51 -->
<g id="node44" class="node">
<title>Node51</title>
<g id="a_node44"><a xlink:href="ImGuiRenderer_8cpp.html" target="_top" xlink:title=" ">
<polygon fill="white" stroke="#666666" points="341.5,-195 231.5,-195 231.5,-176 341.5,-176 341.5,-195"/>
<text text-anchor="middle" x="286.5" y="-183" font-family="Helvetica,sans-Serif" font-size="10.00">ImGuiRenderer.cpp</text>
</a>
</g>
</g>
<!-- Node48&#45;&gt;Node51 -->
<g id="edge55" class="edge">
<title>Node48&#45;&gt;Node51</title>
<path fill="none" stroke="#63b8ff" d="M766.19,-234.68C676.21,-227.21 499.88,-211.91 350.5,-195 347.6,-194.67 344.64,-194.32 341.64,-193.96"/>
<polygon fill="#63b8ff" stroke="#63b8ff" points="765.95,-238.18 776.2,-235.51 766.52,-231.2 765.95,-238.18"/>
</g>
<!-- Node52 -->
<g id="node45" class="node">
<title>Node52</title>
<g id="a_node45"><a xlink:href="ImGuiShowable_8cpp.html" target="_top" xlink:title=" ">
<polygon fill="white" stroke="#666666" points="473,-195 360,-195 360,-176 473,-176 473,-195"/>
<text text-anchor="middle" x="416.5" y="-183" font-family="Helvetica,sans-Serif" font-size="10.00">ImGuiShowable.cpp</text>
</a>
</g>
</g>
<!-- Node48&#45;&gt;Node52 -->
<g id="edge56" class="edge">
<title>Node48&#45;&gt;Node52</title>
<path fill="none" stroke="#63b8ff" d="M766.04,-231.83C697.47,-222.99 581.33,-207.98 481.5,-195 478.79,-194.65 476.02,-194.29 473.22,-193.92"/>
<polygon fill="#63b8ff" stroke="#63b8ff" points="765.86,-235.34 776.22,-233.15 766.75,-228.4 765.86,-235.34"/>
</g>
<!-- Node53 -->
<g id="node46" class="node">
<title>Node53</title>
<g id="a_node46"><a xlink:href="ImGuizmoManipulator_8cpp.html" target="_top" xlink:title=" ">
<polygon fill="white" stroke="#666666" points="636,-195 491,-195 491,-176 636,-176 636,-195"/>
<text text-anchor="middle" x="563.5" y="-183" font-family="Helvetica,sans-Serif" font-size="10.00">ImGuizmoManipulator.cpp</text>
</a>
</g>
</g>
<!-- Node48&#45;&gt;Node53 -->
<g id="edge57" class="edge">
<title>Node48&#45;&gt;Node53</title>
<path fill="none" stroke="#63b8ff" d="M773.3,-228.94C724.19,-219.01 651.57,-204.31 605.92,-195.08"/>
<polygon fill="#63b8ff" stroke="#63b8ff" points="772.91,-232.43 783.41,-230.98 774.3,-225.57 772.91,-232.43"/>
</g>
<!-- Node54 -->
<g id="node47" class="node">
<title>Node54</title>
<g id="a_node47"><a xlink:href="MainWindow_8cpp.html" target="_top" xlink:title=" ">
<polygon fill="white" stroke="#666666" points="753,-195 654,-195 654,-176 753,-176 753,-195"/>
<text text-anchor="middle" x="703.5" y="-183" font-family="Helvetica,sans-Serif" font-size="10.00">MainWindow.cpp</text>
</a>
</g>
</g>
<!-- Node48&#45;&gt;Node54 -->
<g id="edge59" class="edge">
<title>Node48&#45;&gt;Node54</title>
<path fill="none" stroke="#63b8ff" d="M796.49,-226.9C773.96,-217.11 743.3,-203.79 723.46,-195.17"/>
<polygon fill="#63b8ff" stroke="#63b8ff" points="795.33,-230.21 805.9,-230.98 798.12,-223.79 795.33,-230.21"/>
</g>
<!-- Node55 -->
<g id="node48" class="node">
<title>Node55</title>
<g id="a_node48"><a xlink:href="RenderSystem_8cpp.html" target="_top" xlink:title=" ">
<polygon fill="white" stroke="#666666" points="879.5,-195 771.5,-195 771.5,-176 879.5,-176 879.5,-195"/>
<text text-anchor="middle" x="825.5" y="-183" font-family="Helvetica,sans-Serif" font-size="10.00">RenderSystem.cpp</text>
</a>
</g>
</g>
<!-- Node48&#45;&gt;Node55 -->
<g id="edge60" class="edge">
<title>Node48&#45;&gt;Node55</title>
<path fill="none" stroke="#63b8ff" d="M825.5,-220.66C825.5,-211.93 825.5,-201.99 825.5,-195.09"/>
<polygon fill="#63b8ff" stroke="#63b8ff" points="822,-220.75 825.5,-230.75 829,-220.75 822,-220.75"/>
</g>
<!-- Node56 -->
<g id="node49" class="node">
<title>Node56</title>
<g id="a_node49"><a xlink:href="SceneSystem_8cpp.html" target="_top" xlink:title=" ">
<polygon fill="white" stroke="#666666" points="1001,-195 898,-195 898,-176 1001,-176 1001,-195"/>
<text text-anchor="middle" x="949.5" y="-183" font-family="Helvetica,sans-Serif" font-size="10.00">SceneSystem.cpp</text>
</a>
</g>
</g>
<!-- Node48&#45;&gt;Node56 -->
<g id="edge61" class="edge">
<title>Node48&#45;&gt;Node56</title>
<path fill="none" stroke="#63b8ff" d="M854.68,-227.03C877.61,-217.23 908.95,-203.83 929.21,-195.17"/>
<polygon fill="#63b8ff" stroke="#63b8ff" points="853.24,-223.84 845.42,-230.98 855.99,-230.27 853.24,-223.84"/>
</g>
<!-- Node57 -->
<g id="node50" class="node">
<title>Node57</title>
<g id="a_node50"><a xlink:href="WindowManager_8cpp.html" target="_top" xlink:title=" ">
<polygon fill="white" stroke="#666666" points="1137.5,-195 1019.5,-195 1019.5,-176 1137.5,-176 1137.5,-195"/>
<text text-anchor="middle" x="1078.5" y="-183" font-family="Helvetica,sans-Serif" font-size="10.00">WindowManager.cpp</text>
</a>
</g>
</g>
<!-- Node48&#45;&gt;Node57 -->
<g id="edge62" class="edge">
<title>Node48&#45;&gt;Node57</title>
<path fill="none" stroke="#63b8ff" d="M876.2,-228.88C923.62,-218.94 993.55,-204.3 1037.53,-195.08"/>
<polygon fill="#63b8ff" stroke="#63b8ff" points="875.22,-225.51 866.15,-230.98 876.65,-232.36 875.22,-225.51"/>
</g>
</g>
</svg>
