<?xml version="1.0" encoding="UTF-8" standalone="no"?>
<!DOCTYPE svg PUBLIC "-//W3C//DTD SVG 1.1//EN"
 "http://www.w3.org/Graphics/SVG/1.1/DTD/svg11.dtd">
<!-- Generated by graphviz version 2.43.0 (0)
 -->
<!-- Title: ICamera.cpp Pages: 1 -->
<svg width="2377pt" height="302pt"
 viewBox="0.00 0.00 2377.05 302.00" xmlns="http://www.w3.org/2000/svg" xmlns:xlink="http://www.w3.org/1999/xlink">
<g id="graph0" class="graph" transform="scale(1 1) rotate(0) translate(4 298)">
<title>ICamera.cpp</title>
<!-- Node1 -->
<g id="node1" class="node">
<title>Node1</title>
<g id="a_node1"><a xlink:title=" ">
<polygon fill="#999999" stroke="#666666" points="837.55,-294 759.55,-294 759.55,-275 837.55,-275 837.55,-294"/>
<text text-anchor="middle" x="798.55" y="-282" font-family="Helvetica,sans-Serif" font-size="10.00">ICamera.cpp</text>
</a>
</g>
</g>
<!-- Node2 -->
<g id="node2" class="node">
<title>Node2</title>
<g id="a_node2"><a xlink:href="ICamera_8h.html" target="_top" xlink:title=" ">
<polygon fill="white" stroke="#666666" points="659.05,-239 592.05,-239 592.05,-220 659.05,-220 659.05,-239"/>
<text text-anchor="middle" x="625.55" y="-227" font-family="Helvetica,sans-Serif" font-size="10.00">ICamera.h</text>
</a>
</g>
</g>
<!-- Node1&#45;&gt;Node2 -->
<g id="edge1" class="edge">
<title>Node1&#45;&gt;Node2</title>
<path fill="none" stroke="#63b8ff" d="M770.75,-274.98C741.58,-266.05 695.55,-251.94 663.14,-242.02"/>
<polygon fill="#63b8ff" stroke="#63b8ff" points="664.15,-238.66 653.56,-239.08 662.1,-245.36 664.15,-238.66"/>
</g>
<!-- Node3 -->
<g id="node3" class="node">
<title>Node3</title>
<g id="a_node3"><a xlink:href="InputData_8h.html" target="_top" xlink:title=" ">
<polygon fill="white" stroke="#666666" points="751.55,-239 677.55,-239 677.55,-220 751.55,-220 751.55,-239"/>
<text text-anchor="middle" x="714.55" y="-227" font-family="Helvetica,sans-Serif" font-size="10.00">InputData.h</text>
</a>
</g>
</g>
<!-- Node1&#45;&gt;Node3 -->
<g id="edge2" class="edge">
<title>Node1&#45;&gt;Node3</title>
<path fill="none" stroke="#63b8ff" d="M785.05,-274.98C772.15,-266.84 752.44,-254.41 737.15,-244.76"/>
<polygon fill="#63b8ff" stroke="#63b8ff" points="738.61,-241.55 728.29,-239.17 734.88,-247.47 738.61,-241.55"/>
</g>
<!-- Node43 -->
<g id="node39" class="node">
<title>Node43</title>
<g id="a_node39"><a xlink:href="GameTime_8h.html" target="_top" xlink:title=" ">
<polygon fill="white" stroke="#666666" points="983.55,-184 903.55,-184 903.55,-165 983.55,-165 983.55,-184"/>
<text text-anchor="middle" x="943.55" y="-172" font-family="Helvetica,sans-Serif" font-size="10.00">GameTime.h</text>
</a>
</g>
</g>
<!-- Node1&#45;&gt;Node43 -->
<g id="edge55" class="edge">
<title>Node1&#45;&gt;Node43</title>
<path fill="none" stroke="#63b8ff" d="M810.41,-274.66C835.28,-256.14 893.1,-213.08 923.71,-190.28"/>
<polygon fill="#63b8ff" stroke="#63b8ff" points="925.99,-192.94 931.92,-184.16 921.81,-187.32 925.99,-192.94"/>
</g>
<!-- Node44 -->
<g id="node40" class="node">
<title>Node44</title>
<g id="a_node40"><a xlink:href="Transform_8h.html" target="_top" xlink:title=" ">
<polygon fill="white" stroke="#666666" points="1799.55,-239 1725.55,-239 1725.55,-220 1799.55,-220 1799.55,-239"/>
<text text-anchor="middle" x="1762.55" y="-227" font-family="Helvetica,sans-Serif" font-size="10.00">Transform.h</text>
</a>
</g>
</g>
<!-- Node1&#45;&gt;Node44 -->
<g id="edge58" class="edge">
<title>Node1&#45;&gt;Node44</title>
<path fill="none" stroke="#63b8ff" d="M837.83,-281.34C991.06,-272.92 1548.27,-242.28 1715.06,-233.11"/>
<polygon fill="#63b8ff" stroke="#63b8ff" points="1715.68,-236.58 1725.48,-232.54 1715.3,-229.59 1715.68,-236.58"/>
</g>
<!-- Node4 -->
<g id="node4" class="node">
<title>Node4</title>
<g id="a_node4"><a xlink:title=" ">
<polygon fill="#e0e0e0" stroke="#999999" points="284.55,-184 242.55,-184 242.55,-165 284.55,-165 284.55,-184"/>
<text text-anchor="middle" x="263.55" y="-172" font-family="Helvetica,sans-Serif" font-size="10.00">array</text>
</a>
</g>
</g>
<!-- Node3&#45;&gt;Node4 -->
<g id="edge3" class="edge">
<title>Node3&#45;&gt;Node4</title>
<path fill="none" stroke="#63b8ff" d="M677.39,-221.49C674.07,-220.95 670.75,-220.45 667.55,-220 504.34,-197.32 461.01,-211.51 298.55,-184 297.3,-183.79 296.03,-183.56 294.75,-183.31"/>
<polygon fill="#63b8ff" stroke="#63b8ff" points="295.43,-179.88 284.92,-181.2 293.96,-186.72 295.43,-179.88"/>
</g>
<!-- Node5 -->
<g id="node5" class="node">
<title>Node5</title>
<g id="a_node5"><a xlink:href="IncludingInput_8h.html" target="_top" xlink:title=" ">
<polygon fill="white" stroke="#666666" points="638.05,-129 543.05,-129 543.05,-110 638.05,-110 638.05,-129"/>
<text text-anchor="middle" x="590.55" y="-117" font-family="Helvetica,sans-Serif" font-size="10.00">IncludingInput.h</text>
</a>
</g>
</g>
<!-- Node3&#45;&gt;Node5 -->
<g id="edge4" class="edge">
<title>Node3&#45;&gt;Node5</title>
<path fill="none" stroke="#63b8ff" d="M677.54,-221.21C654.98,-214.95 627.18,-203.69 609.55,-184 598.51,-171.68 593.88,-153.17 591.94,-139.31"/>
<polygon fill="#63b8ff" stroke="#63b8ff" points="595.38,-138.58 590.86,-129 588.42,-139.31 595.38,-138.58"/>
</g>
<!-- Node8 -->
<g id="node8" class="node">
<title>Node8</title>
<g id="a_node8"><a xlink:title=" ">
<polygon fill="#e0e0e0" stroke="#999999" points="452.55,-184 408.55,-184 408.55,-165 452.55,-165 452.55,-184"/>
<text text-anchor="middle" x="430.55" y="-172" font-family="Helvetica,sans-Serif" font-size="10.00">bitset</text>
</a>
</g>
</g>
<!-- Node3&#45;&gt;Node8 -->
<g id="edge7" class="edge">
<title>Node3&#45;&gt;Node8</title>
<path fill="none" stroke="#63b8ff" d="M677.35,-221.75C674.04,-221.16 670.73,-220.57 667.55,-220 579.17,-204.29 553.95,-204.29 462.77,-184.1"/>
<polygon fill="#63b8ff" stroke="#63b8ff" points="463.36,-180.65 452.83,-181.88 461.83,-187.48 463.36,-180.65"/>
</g>
<!-- Node9 -->
<g id="node9" class="node">
<title>Node9</title>
<g id="a_node9"><a xlink:href="Vector3_8h.html" target="_top" xlink:title=" ">
<polygon fill="white" stroke="#666666" points="1832.55,-129 1770.55,-129 1770.55,-110 1832.55,-110 1832.55,-129"/>
<text text-anchor="middle" x="1801.55" y="-117" font-family="Helvetica,sans-Serif" font-size="10.00">Vector3.h</text>
</a>
</g>
</g>
<!-- Node3&#45;&gt;Node9 -->
<g id="edge8" class="edge">
<title>Node3&#45;&gt;Node9</title>
<path fill="none" stroke="#63b8ff" d="M751.87,-226.68C842.85,-222.01 1083.22,-208.23 1282.55,-184 1333.97,-177.75 1346.23,-172.06 1397.55,-165 1529.64,-146.83 1686.84,-131.24 1760.11,-124.32"/>
<polygon fill="#63b8ff" stroke="#63b8ff" points="1760.67,-127.78 1770.3,-123.36 1760.02,-120.81 1760.67,-127.78"/>
</g>
<!-- Node12 -->
<g id="node12" class="node">
<title>Node12</title>
<g id="a_node12"><a xlink:href="Vector2Int_8h.html" target="_top" xlink:title=" ">
<polygon fill="white" stroke="#666666" points="1188.05,-184 1113.05,-184 1113.05,-165 1188.05,-165 1188.05,-184"/>
<text text-anchor="middle" x="1150.55" y="-172" font-family="Helvetica,sans-Serif" font-size="10.00">Vector2Int.h</text>
</a>
</g>
</g>
<!-- Node3&#45;&gt;Node12 -->
<g id="edge11" class="edge">
<title>Node3&#45;&gt;Node12</title>
<path fill="none" stroke="#63b8ff" d="M751.76,-225.12C819.57,-218.77 967.99,-204.01 1102.83,-184.17"/>
<polygon fill="#63b8ff" stroke="#63b8ff" points="1103.55,-187.6 1112.93,-182.67 1102.52,-180.68 1103.55,-187.6"/>
</g>
<!-- Node17 -->
<g id="node14" class="node">
<title>Node17</title>
<g id="a_node14"><a xlink:href="Vector2F_8h.html" target="_top" xlink:title=" ">
<polygon fill="white" stroke="#666666" points="1273.05,-184 1206.05,-184 1206.05,-165 1273.05,-165 1273.05,-184"/>
<text text-anchor="middle" x="1239.55" y="-172" font-family="Helvetica,sans-Serif" font-size="10.00">Vector2F.h</text>
</a>
</g>
</g>
<!-- Node3&#45;&gt;Node17 -->
<g id="edge14" class="edge">
<title>Node3&#45;&gt;Node17</title>
<path fill="none" stroke="#63b8ff" d="M751.67,-226.45C831.31,-221.75 1024.62,-208.79 1195.74,-184.13"/>
<polygon fill="#63b8ff" stroke="#63b8ff" points="1196.29,-187.59 1205.68,-182.68 1195.28,-180.66 1196.29,-187.59"/>
</g>
<!-- Node18 -->
<g id="node15" class="node">
<title>Node18</title>
<g id="a_node15"><a xlink:href="InputKeyCode_8h.html" target="_top" xlink:title=" ">
<polygon fill="white" stroke="#666666" points="1095.05,-184 1002.05,-184 1002.05,-165 1095.05,-165 1095.05,-184"/>
<text text-anchor="middle" x="1048.55" y="-172" font-family="Helvetica,sans-Serif" font-size="10.00">InputKeyCode.h</text>
</a>
</g>
</g>
<!-- Node3&#45;&gt;Node18 -->
<g id="edge16" class="edge">
<title>Node3&#45;&gt;Node18</title>
<path fill="none" stroke="#63b8ff" d="M751.57,-222.63C809.81,-213.38 923.24,-195.38 991.82,-184.5"/>
<polygon fill="#63b8ff" stroke="#63b8ff" points="992.68,-187.91 1002.01,-182.88 991.59,-180.99 992.68,-187.91"/>
</g>
<!-- Node19 -->
<g id="node16" class="node">
<title>Node19</title>
<g id="a_node16"><a xlink:href="cmtgb_8h.html" target="_top" xlink:title=" ">
<polygon fill="white" stroke="#666666" points="1149.55,-129 1093.55,-129 1093.55,-110 1149.55,-110 1149.55,-129"/>
<text text-anchor="middle" x="1121.55" y="-117" font-family="Helvetica,sans-Serif" font-size="10.00">cmtgb.h</text>
</a>
</g>
</g>
<!-- Node3&#45;&gt;Node19 -->
<g id="edge25" class="edge">
<title>Node3&#45;&gt;Node19</title>
<path fill="none" stroke="#63b8ff" d="M746.09,-219.99C774.98,-211.86 818.71,-198.69 855.55,-184 873.46,-176.86 876.27,-171.13 894.55,-165 959.02,-143.39 1037.5,-130.9 1083.26,-124.92"/>
<polygon fill="#63b8ff" stroke="#63b8ff" points="1083.86,-128.37 1093.34,-123.64 1082.98,-121.43 1083.86,-128.37"/>
</g>
<!-- Node22 -->
<g id="node19" class="node">
<title>Node22</title>
<g id="a_node19"><a xlink:href="InputMouseCode_8h.html" target="_top" xlink:title=" ">
<polygon fill="white" stroke="#666666" points="726.05,-184 619.05,-184 619.05,-165 726.05,-165 726.05,-184"/>
<text text-anchor="middle" x="672.55" y="-172" font-family="Helvetica,sans-Serif" font-size="10.00">InputMouseCode.h</text>
</a>
</g>
</g>
<!-- Node3&#45;&gt;Node22 -->
<g id="edge21" class="edge">
<title>Node3&#45;&gt;Node22</title>
<path fill="none" stroke="#63b8ff" d="M707.61,-219.75C701.68,-212.26 692.97,-201.28 685.72,-192.13"/>
<polygon fill="#63b8ff" stroke="#63b8ff" points="688.31,-189.75 679.35,-184.09 682.82,-194.1 688.31,-189.75"/>
</g>
<!-- Node23 -->
<g id="node20" class="node">
<title>Node23</title>
<g id="a_node20"><a xlink:href="InputPadCode_8h.html" target="_top" xlink:title=" ">
<polygon fill="white" stroke="#666666" points="562.55,-184 470.55,-184 470.55,-165 562.55,-165 562.55,-184"/>
<text text-anchor="middle" x="516.55" y="-172" font-family="Helvetica,sans-Serif" font-size="10.00">InputPadCode.h</text>
</a>
</g>
</g>
<!-- Node3&#45;&gt;Node23 -->
<g id="edge23" class="edge">
<title>Node3&#45;&gt;Node23</title>
<path fill="none" stroke="#63b8ff" d="M682.73,-219.98C649.06,-210.97 595.75,-196.7 558.62,-186.76"/>
<polygon fill="#63b8ff" stroke="#63b8ff" points="559.17,-183.29 548.61,-184.08 557.36,-190.05 559.17,-183.29"/>
</g>
<!-- Node24 -->
<g id="node21" class="node">
<title>Node24</title>
<g id="a_node21"><a xlink:href="WindowContext_8h.html" target="_top" xlink:title=" ">
<polygon fill="white" stroke="#666666" points="847.05,-184 744.05,-184 744.05,-165 847.05,-165 847.05,-184"/>
<text text-anchor="middle" x="795.55" y="-172" font-family="Helvetica,sans-Serif" font-size="10.00">WindowContext.h</text>
</a>
</g>
</g>
<!-- Node3&#45;&gt;Node24 -->
<g id="edge26" class="edge">
<title>Node3&#45;&gt;Node24</title>
<path fill="none" stroke="#63b8ff" d="M727.56,-219.98C740,-211.84 759,-199.41 773.75,-189.76"/>
<polygon fill="#63b8ff" stroke="#63b8ff" points="775.84,-192.57 782.3,-184.17 772.01,-186.72 775.84,-192.57"/>
</g>
<!-- Node31 -->
<g id="node28" class="node">
<title>Node31</title>
<g id="a_node28"><a xlink:href="InputConfig_8h.html" target="_top" xlink:title=" ">
<polygon fill="white" stroke="#666666" points="95.05,-129 14.05,-129 14.05,-110 95.05,-110 95.05,-129"/>
<text text-anchor="middle" x="54.55" y="-117" font-family="Helvetica,sans-Serif" font-size="10.00">InputConfig.h</text>
</a>
</g>
</g>
<!-- Node3&#45;&gt;Node31 -->
<g id="edge33" class="edge">
<title>Node3&#45;&gt;Node31</title>
<path fill="none" stroke="#63b8ff" d="M677.39,-221.52C674.06,-220.98 670.75,-220.46 667.55,-220 518.89,-198.62 475.67,-226.25 331.55,-184 313.43,-178.69 311.45,-171.01 293.55,-165 230.42,-143.81 154.32,-131.83 105.22,-125.77"/>
<polygon fill="#63b8ff" stroke="#63b8ff" points="105.51,-122.28 95.16,-124.56 104.68,-129.23 105.51,-122.28"/>
</g>
<!-- Node32 -->
<g id="node29" class="node">
<title>Node32</title>
<g id="a_node29"><a xlink:href="Axis_8h.html" target="_top" xlink:title=" ">
<polygon fill="white" stroke="#666666" points="78.05,-74 31.05,-74 31.05,-55 78.05,-55 78.05,-74"/>
<text text-anchor="middle" x="54.55" y="-62" font-family="Helvetica,sans-Serif" font-size="10.00">Axis.h</text>
</a>
</g>
</g>
<!-- Node3&#45;&gt;Node32 -->
<g id="edge54" class="edge">
<title>Node3&#45;&gt;Node32</title>
<path fill="none" stroke="#63b8ff" d="M677.4,-221.44C674.07,-220.91 670.75,-220.42 667.55,-220 520.1,-200.6 96.61,-245.79 4.55,-129 -8.8,-112.07 11.89,-92.58 30.57,-79.71"/>
<polygon fill="#63b8ff" stroke="#63b8ff" points="32.67,-82.52 39.14,-74.13 28.85,-76.65 32.67,-82.52"/>
</g>
<!-- Node33 -->
<g id="node30" class="node">
<title>Node33</title>
<g id="a_node30"><a xlink:href="Input_8h.html" target="_top" xlink:title=" ">
<polygon fill="white" stroke="#666666" points="390.55,-184 340.55,-184 340.55,-165 390.55,-165 390.55,-184"/>
<text text-anchor="middle" x="365.55" y="-172" font-family="Helvetica,sans-Serif" font-size="10.00">Input.h</text>
</a>
</g>
</g>
<!-- Node3&#45;&gt;Node33 -->
<g id="edge36" class="edge">
<title>Node3&#45;&gt;Node33</title>
<path fill="none" stroke="#63b8ff" d="M677.37,-221.62C674.05,-221.05 670.74,-220.5 667.55,-220 551.96,-201.79 519.29,-206.35 400.57,-184"/>
<polygon fill="#63b8ff" stroke="#63b8ff" points="401.21,-180.56 390.73,-182.13 399.9,-187.44 401.21,-180.56"/>
</g>
<!-- Node6 -->
<g id="node6" class="node">
<title>Node6</title>
<g id="a_node6"><a xlink:title=" ">
<polygon fill="#e0e0e0" stroke="#999999" points="592.55,-74 536.55,-74 536.55,-55 592.55,-55 592.55,-74"/>
<text text-anchor="middle" x="564.55" y="-62" font-family="Helvetica,sans-Serif" font-size="10.00">dinput.h</text>
</a>
</g>
</g>
<!-- Node5&#45;&gt;Node6 -->
<g id="edge5" class="edge">
<title>Node5&#45;&gt;Node6</title>
<path fill="none" stroke="#63b8ff" d="M586.25,-109.75C582.73,-102.57 577.63,-92.18 573.26,-83.27"/>
<polygon fill="#63b8ff" stroke="#63b8ff" points="576.31,-81.53 568.76,-74.09 570.02,-84.61 576.31,-81.53"/>
</g>
<!-- Node7 -->
<g id="node7" class="node">
<title>Node7</title>
<g id="a_node7"><a xlink:title=" ">
<polygon fill="#e0e0e0" stroke="#999999" points="668.05,-74 611.05,-74 611.05,-55 668.05,-55 668.05,-74"/>
<text text-anchor="middle" x="639.55" y="-62" font-family="Helvetica,sans-Serif" font-size="10.00">Xinput.h</text>
</a>
</g>
</g>
<!-- Node5&#45;&gt;Node7 -->
<g id="edge6" class="edge">
<title>Node5&#45;&gt;Node7</title>
<path fill="none" stroke="#63b8ff" d="M598.64,-109.75C605.7,-102.11 616.13,-90.82 624.7,-81.56"/>
<polygon fill="#63b8ff" stroke="#63b8ff" points="627.39,-83.81 631.61,-74.09 622.25,-79.06 627.39,-83.81"/>
</g>
<!-- Node10 -->
<g id="node10" class="node">
<title>Node10</title>
<g id="a_node10"><a xlink:title=" ">
<polygon fill="#e0e0e0" stroke="#999999" points="1958.55,-74 1872.55,-74 1872.55,-55 1958.55,-55 1958.55,-74"/>
<text text-anchor="middle" x="1915.55" y="-62" font-family="Helvetica,sans-Serif" font-size="10.00">DirectXMath.h</text>
</a>
</g>
</g>
<!-- Node9&#45;&gt;Node10 -->
<g id="edge9" class="edge">
<title>Node9&#45;&gt;Node10</title>
<path fill="none" stroke="#63b8ff" d="M1819.86,-109.98C1838.2,-101.46 1866.66,-88.23 1887.77,-78.41"/>
<polygon fill="#63b8ff" stroke="#63b8ff" points="1889.3,-81.56 1896.9,-74.17 1886.35,-75.21 1889.3,-81.56"/>
</g>
<!-- Node11 -->
<g id="node11" class="node">
<title>Node11</title>
<g id="a_node11"><a xlink:title=" ">
<polygon fill="#e0e0e0" stroke="#999999" points="1825.05,-74 1778.05,-74 1778.05,-55 1825.05,-55 1825.05,-74"/>
<text text-anchor="middle" x="1801.55" y="-62" font-family="Helvetica,sans-Serif" font-size="10.00">cmath</text>
</a>
</g>
</g>
<!-- Node9&#45;&gt;Node11 -->
<g id="edge10" class="edge">
<title>Node9&#45;&gt;Node11</title>
<path fill="none" stroke="#63b8ff" d="M1801.55,-109.75C1801.55,-102.8 1801.55,-92.85 1801.55,-84.13"/>
<polygon fill="#63b8ff" stroke="#63b8ff" points="1805.05,-84.09 1801.55,-74.09 1798.05,-84.09 1805.05,-84.09"/>
</g>
<!-- Node13 -->
<g id="node13" class="node">
<title>Node13</title>
<g id="a_node13"><a xlink:href="Vector2T_8h.html" target="_top" xlink:title=" ">
<polygon fill="#fff0f0" stroke="red" points="1273.55,-129 1205.55,-129 1205.55,-110 1273.55,-110 1273.55,-129"/>
<text text-anchor="middle" x="1239.55" y="-117" font-family="Helvetica,sans-Serif" font-size="10.00">Vector2T.h</text>
</a>
</g>
</g>
<!-- Node12&#45;&gt;Node13 -->
<g id="edge12" class="edge">
<title>Node12&#45;&gt;Node13</title>
<path fill="none" stroke="#63b8ff" d="M1164.85,-164.98C1178.65,-156.77 1199.79,-144.18 1216.06,-134.49"/>
<polygon fill="#63b8ff" stroke="#63b8ff" points="1218.19,-137.29 1224.99,-129.17 1214.6,-131.28 1218.19,-137.29"/>
</g>
<!-- Node13&#45;&gt;Node11 -->
<g id="edge13" class="edge">
<title>Node13&#45;&gt;Node11</title>
<path fill="none" stroke="#63b8ff" d="M1273.65,-111.82C1277.65,-111.15 1281.68,-110.52 1285.55,-110 1466.52,-85.53 1685.11,-71.88 1767.73,-67.28"/>
<polygon fill="#63b8ff" stroke="#63b8ff" points="1768,-70.77 1777.8,-66.73 1767.62,-63.78 1768,-70.77"/>
</g>
<!-- Node17&#45;&gt;Node13 -->
<g id="edge15" class="edge">
<title>Node17&#45;&gt;Node13</title>
<path fill="none" stroke="#63b8ff" d="M1239.55,-164.75C1239.55,-157.8 1239.55,-147.85 1239.55,-139.13"/>
<polygon fill="#63b8ff" stroke="#63b8ff" points="1243.05,-139.09 1239.55,-129.09 1236.05,-139.09 1243.05,-139.09"/>
</g>
<!-- Node18&#45;&gt;Node19 -->
<g id="edge17" class="edge">
<title>Node18&#45;&gt;Node19</title>
<path fill="none" stroke="#63b8ff" d="M1060.28,-164.98C1071.28,-157 1087.97,-144.88 1101.15,-135.31"/>
<polygon fill="#63b8ff" stroke="#63b8ff" points="1103.57,-137.88 1109.6,-129.17 1099.46,-132.21 1103.57,-137.88"/>
</g>
<!-- Node20 -->
<g id="node17" class="node">
<title>Node20</title>
<g id="a_node17"><a xlink:title=" ">
<polygon fill="#e0e0e0" stroke="#999999" points="766.55,-19 716.55,-19 716.55,0 766.55,0 766.55,-19"/>
<text text-anchor="middle" x="741.55" y="-7" font-family="Helvetica,sans-Serif" font-size="10.00">cstdint</text>
</a>
</g>
</g>
<!-- Node19&#45;&gt;Node20 -->
<g id="edge18" class="edge">
<title>Node19&#45;&gt;Node20</title>
<path fill="none" stroke="#63b8ff" d="M1100.46,-110C1067.42,-96.9 1001.26,-71.58 943.55,-55 885.76,-38.4 817.16,-24.48 776.61,-16.83"/>
<polygon fill="#63b8ff" stroke="#63b8ff" points="777.15,-13.37 766.68,-14.98 775.87,-20.26 777.15,-13.37"/>
</g>
<!-- Node21 -->
<g id="node18" class="node">
<title>Node21</title>
<g id="a_node18"><a xlink:href="Handlers_8h.html" target="_top" xlink:title=" ">
<polygon fill="white" stroke="#666666" points="934.05,-74 865.05,-74 865.05,-55 934.05,-55 934.05,-74"/>
<text text-anchor="middle" x="899.55" y="-62" font-family="Helvetica,sans-Serif" font-size="10.00">Handlers.h</text>
</a>
</g>
</g>
<!-- Node19&#45;&gt;Node21 -->
<g id="edge19" class="edge">
<title>Node19&#45;&gt;Node21</title>
<path fill="none" stroke="#63b8ff" d="M1093.43,-111.79C1055.87,-102.82 988.89,-86.83 944.34,-76.19"/>
<polygon fill="#63b8ff" stroke="#63b8ff" points="944.9,-72.73 934.36,-73.81 943.28,-79.54 944.9,-72.73"/>
</g>
<!-- Node21&#45;&gt;Node20 -->
<g id="edge20" class="edge">
<title>Node21&#45;&gt;Node20</title>
<path fill="none" stroke="#63b8ff" d="M874.16,-54.98C847.59,-46.07 805.71,-32.02 776.13,-22.1"/>
<polygon fill="#63b8ff" stroke="#63b8ff" points="777.2,-18.77 766.61,-18.91 774.98,-25.41 777.2,-18.77"/>
</g>
<!-- Node22&#45;&gt;Node5 -->
<g id="edge22" class="edge">
<title>Node22&#45;&gt;Node5</title>
<path fill="none" stroke="#63b8ff" d="M659.37,-164.98C646.77,-156.84 627.54,-144.41 612.61,-134.76"/>
<polygon fill="#63b8ff" stroke="#63b8ff" points="614.26,-131.66 603.96,-129.17 610.46,-137.54 614.26,-131.66"/>
</g>
<!-- Node23&#45;&gt;Node5 -->
<g id="edge24" class="edge">
<title>Node23&#45;&gt;Node5</title>
<path fill="none" stroke="#63b8ff" d="M528.44,-164.98C539.7,-156.92 556.83,-144.65 570.26,-135.03"/>
<polygon fill="#63b8ff" stroke="#63b8ff" points="572.35,-137.84 578.44,-129.17 568.27,-132.15 572.35,-137.84"/>
</g>
<!-- Node25 -->
<g id="node22" class="node">
<title>Node25</title>
<g id="a_node22"><a xlink:title=" ">
<polygon fill="#e0e0e0" stroke="#999999" points="1987.55,-129 1943.55,-129 1943.55,-110 1987.55,-110 1987.55,-129"/>
<text text-anchor="middle" x="1965.55" y="-117" font-family="Helvetica,sans-Serif" font-size="10.00">string</text>
</a>
</g>
</g>
<!-- Node24&#45;&gt;Node25 -->
<g id="edge27" class="edge">
<title>Node24&#45;&gt;Node25</title>
<path fill="none" stroke="#63b8ff" d="M847.15,-168.6C862.4,-167.28 879.14,-165.95 894.55,-165 1314.93,-138.98 1420.95,-151.4 1841.55,-129 1872.66,-127.34 1908.12,-124.85 1933.12,-122.99"/>
<polygon fill="#63b8ff" stroke="#63b8ff" points="1933.45,-126.48 1943.16,-122.24 1932.92,-119.5 1933.45,-126.48"/>
</g>
<!-- Node26 -->
<g id="node23" class="node">
<title>Node26</title>
<g id="a_node23"><a xlink:title=" ">
<polygon fill="#e0e0e0" stroke="#999999" points="949.55,-129 893.55,-129 893.55,-110 949.55,-110 949.55,-129"/>
<text text-anchor="middle" x="921.55" y="-117" font-family="Helvetica,sans-Serif" font-size="10.00">d3d11.h</text>
</a>
</g>
</g>
<!-- Node24&#45;&gt;Node26 -->
<g id="edge28" class="edge">
<title>Node24&#45;&gt;Node26</title>
<path fill="none" stroke="#63b8ff" d="M815.79,-164.98C836.24,-156.38 868.08,-142.99 891.48,-133.15"/>
<polygon fill="#63b8ff" stroke="#63b8ff" points="893.07,-136.27 900.93,-129.17 890.36,-129.82 893.07,-136.27"/>
</g>
<!-- Node27 -->
<g id="node24" class="node">
<title>Node27</title>
<g id="a_node24"><a xlink:title=" ">
<polygon fill="#e0e0e0" stroke="#999999" points="1037.55,-129 967.55,-129 967.55,-110 1037.55,-110 1037.55,-129"/>
<text text-anchor="middle" x="1002.55" y="-117" font-family="Helvetica,sans-Serif" font-size="10.00">Windows.h</text>
</a>
</g>
</g>
<!-- Node24&#45;&gt;Node27 -->
<g id="edge29" class="edge">
<title>Node24&#45;&gt;Node27</title>
<path fill="none" stroke="#63b8ff" d="M828.8,-164.98C864.16,-155.93 920.22,-141.58 959.06,-131.64"/>
<polygon fill="#63b8ff" stroke="#63b8ff" points="960.21,-134.95 969.03,-129.08 958.47,-128.17 960.21,-134.95"/>
</g>
<!-- Node28 -->
<g id="node25" class="node">
<title>Node28</title>
<g id="a_node25"><a xlink:title=" ">
<polygon fill="#e0e0e0" stroke="#999999" points="792.05,-129 745.05,-129 745.05,-110 792.05,-110 792.05,-129"/>
<text text-anchor="middle" x="768.55" y="-117" font-family="Helvetica,sans-Serif" font-size="10.00">dxgi.h</text>
</a>
</g>
</g>
<!-- Node24&#45;&gt;Node28 -->
<g id="edge30" class="edge">
<title>Node24&#45;&gt;Node28</title>
<path fill="none" stroke="#63b8ff" d="M791.09,-164.75C787.43,-157.57 782.14,-147.18 777.6,-138.27"/>
<polygon fill="#63b8ff" stroke="#63b8ff" points="780.58,-136.41 772.92,-129.09 774.34,-139.59 780.58,-136.41"/>
</g>
<!-- Node29 -->
<g id="node26" class="node">
<title>Node29</title>
<g id="a_node26"><a xlink:title=" ">
<polygon fill="#e0e0e0" stroke="#999999" points="875.05,-129 810.05,-129 810.05,-110 875.05,-110 875.05,-129"/>
<text text-anchor="middle" x="842.55" y="-117" font-family="Helvetica,sans-Serif" font-size="10.00">Dxgi1_2.h</text>
</a>
</g>
</g>
<!-- Node24&#45;&gt;Node29 -->
<g id="edge31" class="edge">
<title>Node24&#45;&gt;Node29</title>
<path fill="none" stroke="#63b8ff" d="M803.31,-164.75C810.01,-157.18 819.89,-146.05 828.05,-136.84"/>
<polygon fill="#63b8ff" stroke="#63b8ff" points="830.91,-138.89 834.93,-129.09 825.68,-134.25 830.91,-138.89"/>
</g>
<!-- Node30 -->
<g id="node27" class="node">
<title>Node30</title>
<g id="a_node27"><a xlink:title=" ">
<polygon fill="#e0e0e0" stroke="#999999" points="727.05,-129 656.05,-129 656.05,-110 727.05,-110 727.05,-129"/>
<text text-anchor="middle" x="691.55" y="-117" font-family="Helvetica,sans-Serif" font-size="10.00">wrl/client.h</text>
</a>
</g>
</g>
<!-- Node24&#45;&gt;Node30 -->
<g id="edge32" class="edge">
<title>Node24&#45;&gt;Node30</title>
<path fill="none" stroke="#63b8ff" d="M778.84,-164.98C762.33,-156.57 736.85,-143.59 717.67,-133.81"/>
<polygon fill="#63b8ff" stroke="#63b8ff" points="719.06,-130.59 708.56,-129.17 715.88,-136.83 719.06,-130.59"/>
</g>
<!-- Node31&#45;&gt;Node32 -->
<g id="edge34" class="edge">
<title>Node31&#45;&gt;Node32</title>
<path fill="none" stroke="#63b8ff" d="M54.55,-109.75C54.55,-102.8 54.55,-92.85 54.55,-84.13"/>
<polygon fill="#63b8ff" stroke="#63b8ff" points="58.05,-84.09 54.55,-74.09 51.05,-84.09 58.05,-84.09"/>
</g>
<!-- Node32&#45;&gt;Node20 -->
<g id="edge35" class="edge">
<title>Node32&#45;&gt;Node20</title>
<path fill="none" stroke="#63b8ff" d="M78.33,-60.77C94.23,-58.99 115.63,-56.7 134.55,-55 351.66,-35.51 613.04,-18.53 706.34,-12.68"/>
<polygon fill="#63b8ff" stroke="#63b8ff" points="706.61,-16.17 716.37,-12.05 706.17,-9.18 706.61,-16.17"/>
</g>
<!-- Node33&#45;&gt;Node5 -->
<g id="edge39" class="edge">
<title>Node33&#45;&gt;Node5</title>
<path fill="none" stroke="#63b8ff" d="M390.79,-167.14C393.74,-166.41 396.71,-165.69 399.55,-165 448.46,-153.19 504.56,-140.18 543.24,-131.3"/>
<polygon fill="#63b8ff" stroke="#63b8ff" points="544.21,-134.67 553.17,-129.02 542.64,-127.84 544.21,-134.67"/>
</g>
<!-- Node33&#45;&gt;Node19 -->
<g id="edge38" class="edge">
<title>Node33&#45;&gt;Node19</title>
<path fill="none" stroke="#63b8ff" d="M390.69,-166.65C393.66,-166.01 396.66,-165.44 399.55,-165 684.3,-121.88 759.57,-153.23 1046.55,-129 1058.56,-127.99 1071.64,-126.6 1083.45,-125.25"/>
<polygon fill="#63b8ff" stroke="#63b8ff" points="1083.93,-128.71 1093.45,-124.07 1083.11,-121.76 1083.93,-128.71"/>
</g>
<!-- Node33&#45;&gt;Node30 -->
<g id="edge40" class="edge">
<title>Node33&#45;&gt;Node30</title>
<path fill="none" stroke="#63b8ff" d="M390.73,-166.9C393.7,-166.22 396.68,-165.57 399.55,-165 505.2,-144.15 535.38,-147.1 645.51,-129.1"/>
<polygon fill="#63b8ff" stroke="#63b8ff" points="646.42,-132.5 655.71,-127.41 645.27,-125.59 646.42,-132.5"/>
</g>
<!-- Node33&#45;&gt;Node31 -->
<g id="edge53" class="edge">
<title>Node33&#45;&gt;Node31</title>
<path fill="none" stroke="#63b8ff" d="M340.41,-167.82C335.81,-166.84 331.04,-165.86 326.55,-165 285.16,-157.11 172.03,-139.02 105.42,-128.5"/>
<polygon fill="#63b8ff" stroke="#63b8ff" points="105.57,-124.98 95.15,-126.87 104.48,-131.89 105.57,-124.98"/>
</g>
<!-- Node34 -->
<g id="node31" class="node">
<title>Node34</title>
<g id="a_node31"><a xlink:href="ISystem_8h.html" target="_top" xlink:title=" ">
<polygon fill="white" stroke="#666666" points="783.05,-74 718.05,-74 718.05,-55 783.05,-55 783.05,-74"/>
<text text-anchor="middle" x="750.55" y="-62" font-family="Helvetica,sans-Serif" font-size="10.00">ISystem.h</text>
</a>
</g>
</g>
<!-- Node33&#45;&gt;Node34 -->
<g id="edge37" class="edge">
<title>Node33&#45;&gt;Node34</title>
<path fill="none" stroke="#63b8ff" d="M385.11,-164.93C416.1,-151.64 478.59,-125.91 533.55,-110 593.05,-92.77 663.59,-79.61 707.72,-72.21"/>
<polygon fill="#63b8ff" stroke="#63b8ff" points="708.51,-75.63 717.8,-70.54 707.36,-68.72 708.51,-75.63"/>
</g>
<!-- Node35 -->
<g id="node32" class="node">
<title>Node35</title>
<g id="a_node32"><a xlink:title=" ">
<polygon fill="#e0e0e0" stroke="#999999" points="209.05,-74 144.05,-74 144.05,-55 209.05,-55 209.05,-74"/>
<text text-anchor="middle" x="176.55" y="-62" font-family="Helvetica,sans-Serif" font-size="10.00">functional</text>
</a>
</g>
</g>
<!-- Node33&#45;&gt;Node35 -->
<g id="edge41" class="edge">
<title>Node33&#45;&gt;Node35</title>
<path fill="none" stroke="#63b8ff" d="M340.39,-167.93C335.79,-166.94 331.03,-165.93 326.55,-165 244.94,-148.13 195.51,-193.33 142.55,-129 130.59,-114.47 144.43,-95.09 157.88,-81.57"/>
<polygon fill="#63b8ff" stroke="#63b8ff" points="160.65,-83.77 165.55,-74.37 155.87,-78.66 160.65,-83.77"/>
</g>
<!-- Node36 -->
<g id="node33" class="node">
<title>Node36</title>
<g id="a_node33"><a xlink:title=" ">
<polygon fill="#e0e0e0" stroke="#999999" points="199.05,-129 152.05,-129 152.05,-110 199.05,-110 199.05,-129"/>
<text text-anchor="middle" x="175.55" y="-117" font-family="Helvetica,sans-Serif" font-size="10.00">vector</text>
</a>
</g>
</g>
<!-- Node33&#45;&gt;Node36 -->
<g id="edge42" class="edge">
<title>Node33&#45;&gt;Node36</title>
<path fill="none" stroke="#63b8ff" d="M340.32,-166.46C306.55,-157.04 246.56,-140.31 209.03,-129.84"/>
<polygon fill="#63b8ff" stroke="#63b8ff" points="209.66,-126.38 199.09,-127.07 207.78,-133.12 209.66,-126.38"/>
</g>
<!-- Node37 -->
<g id="node34" class="node">
<title>Node37</title>
<g id="a_node34"><a xlink:title=" ">
<polygon fill="#e0e0e0" stroke="#999999" points="258.05,-129 217.05,-129 217.05,-110 258.05,-110 258.05,-129"/>
<text text-anchor="middle" x="237.55" y="-117" font-family="Helvetica,sans-Serif" font-size="10.00">tuple</text>
</a>
</g>
</g>
<!-- Node33&#45;&gt;Node37 -->
<g id="edge43" class="edge">
<title>Node33&#45;&gt;Node37</title>
<path fill="none" stroke="#63b8ff" d="M344.98,-164.98C323.99,-156.29 291.19,-142.71 267.35,-132.84"/>
<polygon fill="#63b8ff" stroke="#63b8ff" points="268.64,-129.59 258.06,-128.99 265.96,-136.05 268.64,-129.59"/>
</g>
<!-- Node38 -->
<g id="node35" class="node">
<title>Node38</title>
<g id="a_node35"><a xlink:title=" ">
<polygon fill="#e0e0e0" stroke="#999999" points="350.55,-74 318.55,-74 318.55,-55 350.55,-55 350.55,-74"/>
<text text-anchor="middle" x="334.55" y="-62" font-family="Helvetica,sans-Serif" font-size="10.00">set</text>
</a>
</g>
</g>
<!-- Node33&#45;&gt;Node38 -->
<g id="edge44" class="edge">
<title>Node33&#45;&gt;Node38</title>
<path fill="none" stroke="#63b8ff" d="M345.96,-164.98C331.88,-157.68 313.94,-145.68 305.55,-129 297.59,-113.19 308.14,-94.76 318.68,-81.84"/>
<polygon fill="#63b8ff" stroke="#63b8ff" points="321.41,-84.04 325.41,-74.23 316.16,-79.4 321.41,-84.04"/>
</g>
<!-- Node39 -->
<g id="node36" class="node">
<title>Node39</title>
<g id="a_node36"><a xlink:title=" ">
<polygon fill="#e0e0e0" stroke="#999999" points="376.55,-129 314.55,-129 314.55,-110 376.55,-110 376.55,-129"/>
<text text-anchor="middle" x="345.55" y="-117" font-family="Helvetica,sans-Serif" font-size="10.00">guiddef.h</text>
</a>
</g>
</g>
<!-- Node33&#45;&gt;Node39 -->
<g id="edge45" class="edge">
<title>Node33&#45;&gt;Node39</title>
<path fill="none" stroke="#63b8ff" d="M362.24,-164.75C359.56,-157.65 355.7,-147.4 352.36,-138.56"/>
<polygon fill="#63b8ff" stroke="#63b8ff" points="355.59,-137.21 348.79,-129.09 349.04,-139.68 355.59,-137.21"/>
</g>
<!-- Node40 -->
<g id="node37" class="node">
<title>Node40</title>
<g id="a_node37"><a xlink:title=" ">
<polygon fill="#e0e0e0" stroke="#999999" points="491.55,-74 453.55,-74 453.55,-55 491.55,-55 491.55,-74"/>
<text text-anchor="middle" x="472.55" y="-62" font-family="Helvetica,sans-Serif" font-size="10.00">map</text>
</a>
</g>
</g>
<!-- Node33&#45;&gt;Node40 -->
<g id="edge46" class="edge">
<title>Node33&#45;&gt;Node40</title>
<path fill="none" stroke="#63b8ff" d="M390.89,-167.47C411.54,-161.25 439.93,-149.49 456.55,-129 466.73,-116.44 470.54,-98.25 471.91,-84.55"/>
<polygon fill="#63b8ff" stroke="#63b8ff" points="475.42,-84.53 472.58,-74.32 468.43,-84.07 475.42,-84.53"/>
</g>
<!-- Node41 -->
<g id="node38" class="node">
<title>Node41</title>
<g id="a_node38"><a xlink:href="Timer_8h.html" target="_top" xlink:title=" ">
<polygon fill="#fff0f0" stroke="red" points="448.05,-129 395.05,-129 395.05,-110 448.05,-110 448.05,-129"/>
<text text-anchor="middle" x="421.55" y="-117" font-family="Helvetica,sans-Serif" font-size="10.00">Timer.h</text>
</a>
</g>
</g>
<!-- Node33&#45;&gt;Node41 -->
<g id="edge47" class="edge">
<title>Node33&#45;&gt;Node41</title>
<path fill="none" stroke="#63b8ff" d="M374.54,-164.98C382.74,-157.23 395.05,-145.58 405.02,-136.14"/>
<polygon fill="#63b8ff" stroke="#63b8ff" points="407.53,-138.59 412.39,-129.17 402.72,-133.5 407.53,-138.59"/>
</g>
<!-- Node41&#45;&gt;Node20 -->
<g id="edge51" class="edge">
<title>Node41&#45;&gt;Node20</title>
<path fill="none" stroke="#63b8ff" d="M421.98,-109.95C423.18,-96.08 427.67,-68.81 444.55,-55 483.98,-22.72 636.34,-13.79 706.19,-11.37"/>
<polygon fill="#63b8ff" stroke="#63b8ff" points="706.39,-14.87 716.27,-11.05 706.17,-7.87 706.39,-14.87"/>
</g>
<!-- Node41&#45;&gt;Node34 -->
<g id="edge52" class="edge">
<title>Node41&#45;&gt;Node34</title>
<path fill="none" stroke="#63b8ff" d="M448.19,-114.21C505.08,-105.04 638.86,-83.49 707.8,-72.39"/>
<polygon fill="#63b8ff" stroke="#63b8ff" points="708.57,-75.81 717.89,-70.76 707.46,-68.9 708.57,-75.81"/>
</g>
<!-- Node41&#45;&gt;Node35 -->
<g id="edge48" class="edge">
<title>Node41&#45;&gt;Node35</title>
<path fill="none" stroke="#63b8ff" d="M394.83,-112.12C391.7,-111.4 388.55,-110.68 385.55,-110 328.03,-97.09 261.39,-83.06 219.12,-74.28"/>
<polygon fill="#63b8ff" stroke="#63b8ff" points="219.68,-70.82 209.18,-72.21 218.26,-77.67 219.68,-70.82"/>
</g>
<!-- Node41&#45;&gt;Node38 -->
<g id="edge50" class="edge">
<title>Node41&#45;&gt;Node38</title>
<path fill="none" stroke="#63b8ff" d="M407.57,-109.98C394.08,-101.77 373.41,-89.18 357.51,-79.49"/>
<polygon fill="#63b8ff" stroke="#63b8ff" points="359.14,-76.38 348.78,-74.17 355.5,-82.36 359.14,-76.38"/>
</g>
<!-- Node41&#45;&gt;Node40 -->
<g id="edge49" class="edge">
<title>Node41&#45;&gt;Node40</title>
<path fill="none" stroke="#63b8ff" d="M429.97,-109.75C437.32,-102.11 448.18,-90.82 457.09,-81.56"/>
<polygon fill="#63b8ff" stroke="#63b8ff" points="459.87,-83.72 464.28,-74.09 454.83,-78.87 459.87,-83.72"/>
</g>
<!-- Node43&#45;&gt;Node19 -->
<g id="edge57" class="edge">
<title>Node43&#45;&gt;Node19</title>
<path fill="none" stroke="#63b8ff" d="M972.15,-164.98C1002.34,-155.99 1050.09,-141.78 1083.45,-131.84"/>
<polygon fill="#63b8ff" stroke="#63b8ff" points="1084.73,-135.11 1093.31,-128.91 1082.73,-128.41 1084.73,-135.11"/>
</g>
<!-- Node43&#45;&gt;Node34 -->
<g id="edge56" class="edge">
<title>Node43&#45;&gt;Node34</title>
<path fill="none" stroke="#63b8ff" d="M982.26,-165C1020.13,-154.94 1069.09,-136.19 1046.55,-110 1030.24,-91.06 871.31,-75.46 793.3,-68.87"/>
<polygon fill="#63b8ff" stroke="#63b8ff" points="793.56,-65.38 783.3,-68.04 792.98,-72.36 793.56,-65.38"/>
</g>
<!-- Node44&#45;&gt;Node9 -->
<g id="edge68" class="edge">
<title>Node44&#45;&gt;Node9</title>
<path fill="none" stroke="#63b8ff" d="M1765.74,-219.66C1772.11,-202.01 1786.53,-162.09 1795,-138.64"/>
<polygon fill="#63b8ff" stroke="#63b8ff" points="1798.32,-139.75 1798.42,-129.16 1791.73,-137.38 1798.32,-139.75"/>
</g>
<!-- Node44&#45;&gt;Node19 -->
<g id="edge78" class="edge">
<title>Node44&#45;&gt;Node19</title>
<path fill="none" stroke="#63b8ff" d="M1725.36,-226.03C1655.16,-221 1498.53,-207.93 1368.55,-184 1328.5,-176.63 1218.47,-147.06 1159.71,-131.01"/>
<polygon fill="#63b8ff" stroke="#63b8ff" points="1160.27,-127.53 1149.7,-128.27 1158.42,-134.28 1160.27,-127.53"/>
</g>
<!-- Node45 -->
<g id="node41" class="node">
<title>Node45</title>
<g id="a_node41"><a xlink:href="ReflectionMacro_8h.html" target="_top" xlink:title=" ">
<polygon fill="white" stroke="#666666" points="2223.55,-184 2119.55,-184 2119.55,-165 2223.55,-165 2223.55,-184"/>
<text text-anchor="middle" x="2171.55" y="-172" font-family="Helvetica,sans-Serif" font-size="10.00">ReflectionMacro.h</text>
</a>
</g>
</g>
<!-- Node44&#45;&gt;Node45 -->
<g id="edge59" class="edge">
<title>Node44&#45;&gt;Node45</title>
<path fill="none" stroke="#63b8ff" d="M1799.65,-223.9C1861.55,-216.18 1990.07,-200.04 2109.28,-184.16"/>
<polygon fill="#63b8ff" stroke="#63b8ff" points="2109.86,-187.61 2119.31,-182.82 2108.93,-180.67 2109.86,-187.61"/>
</g>
<!-- Node46 -->
<g id="node42" class="node">
<title>Node46</title>
<g id="a_node42"><a xlink:href="Transform_8generated_8h.html" target="_top" xlink:title=" ">
<polygon fill="#fff0f0" stroke="red" points="2369.05,-184 2242.05,-184 2242.05,-165 2369.05,-165 2369.05,-184"/>
<text text-anchor="middle" x="2305.55" y="-172" font-family="Helvetica,sans-Serif" font-size="10.00">Transform.generated.h</text>
</a>
</g>
</g>
<!-- Node44&#45;&gt;Node46 -->
<g id="edge60" class="edge">
<title>Node44&#45;&gt;Node46</title>
<path fill="none" stroke="#63b8ff" d="M1799.74,-225.25C1877.68,-218.39 2064.1,-201.66 2231.85,-184.05"/>
<polygon fill="#63b8ff" stroke="#63b8ff" points="2232.28,-187.53 2241.85,-183 2231.54,-180.56 2232.28,-187.53"/>
</g>
<!-- Node80 -->
<g id="node44" class="node">
<title>Node80</title>
<g id="a_node44"><a xlink:href="ISerializableObject_8h.html" target="_top" xlink:title=" ">
<polygon fill="white" stroke="#666666" points="1523.05,-184 1406.05,-184 1406.05,-165 1523.05,-165 1523.05,-184"/>
<text text-anchor="middle" x="1464.55" y="-172" font-family="Helvetica,sans-Serif" font-size="10.00">ISerializableObject.h</text>
</a>
</g>
</g>
<!-- Node44&#45;&gt;Node80 -->
<g id="edge63" class="edge">
<title>Node44&#45;&gt;Node80</title>
<path fill="none" stroke="#63b8ff" d="M1725.41,-221.89C1674.52,-212.84 1582.62,-196.5 1522.6,-185.83"/>
<polygon fill="#63b8ff" stroke="#63b8ff" points="1522.98,-182.34 1512.52,-184.03 1521.75,-189.23 1522.98,-182.34"/>
</g>
<!-- Node81 -->
<g id="node45" class="node">
<title>Node81</title>
<g id="a_node45"><a xlink:href="IComponent_8h.html" target="_top" xlink:title=" ">
<polygon fill="#fff0f0" stroke="red" points="1910.05,-184 1825.05,-184 1825.05,-165 1910.05,-165 1910.05,-184"/>
<text text-anchor="middle" x="1867.55" y="-172" font-family="Helvetica,sans-Serif" font-size="10.00">IComponent.h</text>
</a>
</g>
</g>
<!-- Node44&#45;&gt;Node81 -->
<g id="edge64" class="edge">
<title>Node44&#45;&gt;Node81</title>
<path fill="none" stroke="#63b8ff" d="M1779.42,-219.98C1796.16,-211.54 1822.04,-198.47 1841.44,-188.68"/>
<polygon fill="#63b8ff" stroke="#63b8ff" points="1843.02,-191.8 1850.37,-184.17 1839.87,-185.55 1843.02,-191.8"/>
</g>
<!-- Node78 -->
<g id="node46" class="node">
<title>Node78</title>
<g id="a_node46"><a xlink:href="IComponentMemento_8h.html" target="_top" xlink:title=" ">
<polygon fill="#fff0f0" stroke="red" points="1672.05,-184 1541.05,-184 1541.05,-165 1672.05,-165 1672.05,-184"/>
<text text-anchor="middle" x="1606.55" y="-172" font-family="Helvetica,sans-Serif" font-size="10.00">IComponentMemento.h</text>
</a>
</g>
</g>
<!-- Node44&#45;&gt;Node78 -->
<g id="edge67" class="edge">
<title>Node44&#45;&gt;Node78</title>
<path fill="none" stroke="#63b8ff" d="M1737.48,-219.98C1711.52,-211.16 1670.74,-197.31 1641.59,-187.41"/>
<polygon fill="#63b8ff" stroke="#63b8ff" points="1642.4,-183.99 1631.81,-184.08 1640.15,-190.61 1642.4,-183.99"/>
</g>
<!-- Node98 -->
<g id="node47" class="node">
<title>Node98</title>
<g id="a_node47"><a xlink:href="Vector3Ref_8h.html" target="_top" xlink:title=" ">
<polygon fill="white" stroke="#666666" points="1768.55,-184 1690.55,-184 1690.55,-165 1768.55,-165 1768.55,-184"/>
<text text-anchor="middle" x="1729.55" y="-172" font-family="Helvetica,sans-Serif" font-size="10.00">Vector3Ref.h</text>
</a>
</g>
</g>
<!-- Node44&#45;&gt;Node98 -->
<g id="edge69" class="edge">
<title>Node44&#45;&gt;Node98</title>
<path fill="none" stroke="#63b8ff" d="M1757.1,-219.75C1752.53,-212.42 1745.88,-201.73 1740.25,-192.7"/>
<polygon fill="#63b8ff" stroke="#63b8ff" points="1743.15,-190.73 1734.89,-184.09 1737.21,-194.43 1743.15,-190.73"/>
</g>
<!-- Node76 -->
<g id="node48" class="node">
<title>Node76</title>
<g id="a_node48"><a xlink:href="Quaternion_8h.html" target="_top" xlink:title=" ">
<polygon fill="white" stroke="#666666" points="2101.55,-184 2021.55,-184 2021.55,-165 2101.55,-165 2101.55,-184"/>
<text text-anchor="middle" x="2061.55" y="-172" font-family="Helvetica,sans-Serif" font-size="10.00">Quaternion.h</text>
</a>
</g>
</g>
<!-- Node44&#45;&gt;Node76 -->
<g id="edge70" class="edge">
<title>Node44&#45;&gt;Node76</title>
<path fill="none" stroke="#63b8ff" d="M1799.81,-221.89C1853.23,-212.43 1951.72,-194.97 2011.46,-184.38"/>
<polygon fill="#63b8ff" stroke="#63b8ff" points="2012.19,-187.8 2021.42,-182.61 2010.97,-180.91 2012.19,-187.8"/>
</g>
<!-- Node99 -->
<g id="node49" class="node">
<title>Node99</title>
<g id="a_node49"><a xlink:href="Matrix4x4_8h.html" target="_top" xlink:title=" ">
<polygon fill="white" stroke="#666666" points="2003.05,-184 1928.05,-184 1928.05,-165 2003.05,-165 2003.05,-184"/>
<text text-anchor="middle" x="1965.55" y="-172" font-family="Helvetica,sans-Serif" font-size="10.00">Matrix4x4.h</text>
</a>
</g>
</g>
<!-- Node44&#45;&gt;Node99 -->
<g id="edge74" class="edge">
<title>Node44&#45;&gt;Node99</title>
<path fill="none" stroke="#63b8ff" d="M1795.16,-219.98C1829.83,-210.93 1884.81,-196.58 1922.9,-186.64"/>
<polygon fill="#63b8ff" stroke="#63b8ff" points="1923.88,-189.99 1932.68,-184.08 1922.12,-183.22 1923.88,-189.99"/>
</g>
<!-- Node100 -->
<g id="node50" class="node">
<title>Node100</title>
<g id="a_node50"><a xlink:href="TransformCP_8h.html" target="_top" xlink:title=" ">
<polygon fill="#fff0f0" stroke="red" points="1380.55,-129 1294.55,-129 1294.55,-110 1380.55,-110 1380.55,-129"/>
<text text-anchor="middle" x="1337.55" y="-117" font-family="Helvetica,sans-Serif" font-size="10.00">TransformCP.h</text>
</a>
</g>
</g>
<!-- Node44&#45;&gt;Node100 -->
<g id="edge79" class="edge">
<title>Node44&#45;&gt;Node100</title>
<path fill="none" stroke="#63b8ff" d="M1725.36,-227.15C1644.3,-223.69 1454.39,-212.7 1397.55,-184 1376.69,-173.47 1359.21,-152.62 1348.59,-137.69"/>
<polygon fill="#63b8ff" stroke="#63b8ff" points="1351.41,-135.61 1342.9,-129.3 1345.62,-139.54 1351.41,-135.61"/>
</g>
<!-- Node46&#45;&gt;Node25 -->
<g id="edge62" class="edge">
<title>Node46&#45;&gt;Node25</title>
<path fill="none" stroke="#63b8ff" d="M2241.98,-165.3C2169.95,-155.84 2055.95,-140.37 1997.69,-128.97"/>
<polygon fill="#63b8ff" stroke="#63b8ff" points="1998.31,-125.53 1987.82,-126.96 1996.92,-132.39 1998.31,-125.53"/>
</g>
<!-- Node47 -->
<g id="node43" class="node">
<title>Node47</title>
<g id="a_node43"><a xlink:title=" ">
<polygon fill="#e0e0e0" stroke="#999999" points="2115.55,-129 2005.55,-129 2005.55,-110 2115.55,-110 2115.55,-129"/>
<text text-anchor="middle" x="2060.55" y="-117" font-family="Helvetica,sans-Serif" font-size="10.00">nlohmann/json.hpp</text>
</a>
</g>
</g>
<!-- Node46&#45;&gt;Node47 -->
<g id="edge61" class="edge">
<title>Node46&#45;&gt;Node47</title>
<path fill="none" stroke="#63b8ff" d="M2266.18,-164.98C2223.8,-155.82 2156.29,-141.21 2110.27,-131.26"/>
<polygon fill="#63b8ff" stroke="#63b8ff" points="2110.73,-127.78 2100.22,-129.08 2109.25,-134.62 2110.73,-127.78"/>
</g>
<!-- Node81&#45;&gt;Node19 -->
<g id="edge65" class="edge">
<title>Node81&#45;&gt;Node19</title>
<path fill="none" stroke="#63b8ff" d="M1824.99,-169.2C1810.01,-167.76 1793.04,-166.21 1777.55,-165 1519.62,-144.83 1454.28,-151.57 1196.55,-129 1184.53,-127.95 1171.46,-126.55 1159.65,-125.2"/>
<polygon fill="#63b8ff" stroke="#63b8ff" points="1159.99,-121.71 1149.65,-124.03 1159.17,-128.67 1159.99,-121.71"/>
</g>
<!-- Node81&#45;&gt;Node47 -->
<g id="edge66" class="edge">
<title>Node81&#45;&gt;Node47</title>
<path fill="none" stroke="#63b8ff" d="M1898.56,-164.98C1931.38,-155.97 1983.34,-141.7 2019.53,-131.76"/>
<polygon fill="#63b8ff" stroke="#63b8ff" points="2020.58,-135.11 2029.29,-129.08 2018.72,-128.36 2020.58,-135.11"/>
</g>
<!-- Node76&#45;&gt;Node9 -->
<g id="edge73" class="edge">
<title>Node76&#45;&gt;Node9</title>
<path fill="none" stroke="#63b8ff" d="M2021.49,-165.33C1972.95,-155.44 1891.6,-138.86 1842.61,-128.87"/>
<polygon fill="#63b8ff" stroke="#63b8ff" points="1843.17,-125.41 1832.67,-126.84 1841.77,-132.27 1843.17,-125.41"/>
</g>
<!-- Node76&#45;&gt;Node10 -->
<g id="edge71" class="edge">
<title>Node76&#45;&gt;Node10</title>
<path fill="none" stroke="#63b8ff" d="M2081.2,-165C2105.52,-153.29 2141.74,-131.24 2124.55,-110 2105.32,-86.25 2024.28,-74.64 1968.95,-69.38"/>
<polygon fill="#63b8ff" stroke="#63b8ff" points="1969.22,-65.89 1958.94,-68.47 1968.58,-72.86 1969.22,-65.89"/>
</g>
<!-- Node76&#45;&gt;Node25 -->
<g id="edge72" class="edge">
<title>Node76&#45;&gt;Node25</title>
<path fill="none" stroke="#63b8ff" d="M2046.12,-164.98C2031.1,-156.69 2008.01,-143.94 1990.39,-134.22"/>
<polygon fill="#63b8ff" stroke="#63b8ff" points="1991.7,-130.94 1981.25,-129.17 1988.31,-137.07 1991.7,-130.94"/>
</g>
<!-- Node99&#45;&gt;Node10 -->
<g id="edge75" class="edge">
<title>Node99&#45;&gt;Node10</title>
<path fill="none" stroke="#63b8ff" d="M1958.24,-164.82C1951.31,-156.21 1941.01,-142.4 1934.55,-129 1927.58,-114.57 1922.58,-97.06 1919.45,-84.08"/>
<polygon fill="#63b8ff" stroke="#63b8ff" points="1922.8,-83.02 1917.2,-74.03 1915.97,-84.56 1922.8,-83.02"/>
</g>
<!-- Node99&#45;&gt;Node11 -->
<g id="edge77" class="edge">
<title>Node99&#45;&gt;Node11</title>
<path fill="none" stroke="#63b8ff" d="M1952.4,-164.84C1924.21,-146.28 1857.71,-102.49 1823.19,-79.75"/>
<polygon fill="#63b8ff" stroke="#63b8ff" points="1825.03,-76.77 1814.75,-74.2 1821.18,-82.62 1825.03,-76.77"/>
</g>
<!-- Node99&#45;&gt;Node25 -->
<g id="edge76" class="edge">
<title>Node99&#45;&gt;Node25</title>
<path fill="none" stroke="#63b8ff" d="M1965.55,-164.75C1965.55,-157.8 1965.55,-147.85 1965.55,-139.13"/>
<polygon fill="#63b8ff" stroke="#63b8ff" points="1969.05,-139.09 1965.55,-129.09 1962.05,-139.09 1969.05,-139.09"/>
</g>
<!-- Node100&#45;&gt;Node34 -->
<g id="edge80" class="edge">
<title>Node100&#45;&gt;Node34</title>
<path fill="none" stroke="#63b8ff" d="M1294.35,-111.53C1290.37,-110.98 1286.38,-110.46 1282.55,-110 1258.37,-107.12 915.46,-78.99 793.34,-69"/>
<polygon fill="#63b8ff" stroke="#63b8ff" points="793.5,-65.5 783.24,-68.17 792.92,-72.48 793.5,-65.5"/>
</g>
</g>
</svg>
