<?xml version="1.0" encoding="UTF-8" standalone="no"?>
<!DOCTYPE svg PUBLIC "-//W3C//DTD SVG 1.1//EN"
 "http://www.w3.org/Graphics/SVG/1.1/DTD/svg11.dtd">
<!-- Generated by graphviz version 2.43.0 (0)
 -->
<!-- Title: ImTextureDataGetFormatBytesPerPixel Pages: 1 -->
<svg width="3472pt" height="563pt"
 viewBox="0.00 0.00 3472.00 563.03" xmlns="http://www.w3.org/2000/svg" xmlns:xlink="http://www.w3.org/1999/xlink">
<g id="graph0" class="graph" transform="scale(1 1) rotate(0) translate(4 559.03)">
<title>ImTextureDataGetFormatBytesPerPixel</title>
<!-- Node1 -->
<g id="node1" class="node">
<title>Node1</title>
<g id="a_node1"><a xlink:title=" ">
<polygon fill="#999999" stroke="#666666" points="3464,-80 3296,-80 3296,-50 3464,-50 3464,-80"/>
<text text-anchor="start" x="3304" y="-68" font-family="Helvetica,sans-Serif" font-size="10.00">ImTextureDataGetFormatBytes</text>
<text text-anchor="middle" x="3380" y="-57" font-family="Helvetica,sans-Serif" font-size="10.00">PerPixel</text>
</a>
</g>
</g>
<!-- Node2 -->
<g id="node2" class="node">
<title>Node2</title>
<g id="a_node2"><a xlink:href="structImTextureData.html#a22fc119a6933ecbb7fc600cbf93d41aa" target="_top" xlink:title=" ">
<polygon fill="white" stroke="#666666" points="3235.5,-93.5 3108.5,-93.5 3108.5,-74.5 3235.5,-74.5 3235.5,-93.5"/>
<text text-anchor="middle" x="3172" y="-81.5" font-family="Helvetica,sans-Serif" font-size="10.00">ImTextureData::Create</text>
</a>
</g>
</g>
<!-- Node1&#45;&gt;Node2 -->
<g id="edge1" class="edge">
<title>Node1&#45;&gt;Node2</title>
<path fill="none" stroke="#63b8ff" d="M3285.84,-73.59C3268.83,-75.16 3251.45,-76.76 3235.59,-78.23"/>
<polygon fill="#63b8ff" stroke="#63b8ff" points="3286.17,-77.08 3295.81,-72.67 3285.53,-70.11 3286.17,-77.08"/>
</g>
<!-- Node452 -->
<g id="node49" class="node">
<title>Node452</title>
<g id="a_node49"><a xlink:href="imgui__draw_8cpp.html#ad09f72a150e0ca5f54f0971099b9c2e6" target="_top" xlink:title=" ">
<polygon fill="white" stroke="#666666" points="3260,-56.5 3084,-56.5 3084,-37.5 3260,-37.5 3260,-56.5"/>
<text text-anchor="middle" x="3172" y="-44.5" font-family="Helvetica,sans-Serif" font-size="10.00">ImFontAtlasTextureBlockConvert</text>
</a>
</g>
</g>
<!-- Node1&#45;&gt;Node452 -->
<g id="edge71" class="edge">
<title>Node1&#45;&gt;Node452</title>
<path fill="none" stroke="#63b8ff" d="M3285.84,-56.86C3277.31,-56.11 3268.68,-55.36 3260.2,-54.62"/>
<polygon fill="#63b8ff" stroke="#63b8ff" points="3285.54,-60.35 3295.81,-57.73 3286.15,-53.37 3285.54,-60.35"/>
</g>
<!-- Node3 -->
<g id="node3" class="node">
<title>Node3</title>
<g id="a_node3"><a xlink:href="imgui__draw_8cpp.html#a5279b1dafad68a1ab42121440c59ce0f" target="_top" xlink:title=" ">
<polygon fill="white" stroke="#666666" points="3048,-124.5 2918,-124.5 2918,-105.5 3048,-105.5 3048,-124.5"/>
<text text-anchor="middle" x="2983" y="-112.5" font-family="Helvetica,sans-Serif" font-size="10.00">ImFontAtlasTextureAdd</text>
</a>
</g>
</g>
<!-- Node2&#45;&gt;Node3 -->
<g id="edge2" class="edge">
<title>Node2&#45;&gt;Node3</title>
<path fill="none" stroke="#63b8ff" d="M3103.51,-95.19C3083.23,-98.55 3061.17,-102.21 3041.59,-105.45"/>
<polygon fill="#63b8ff" stroke="#63b8ff" points="3104.33,-98.6 3113.62,-93.51 3103.19,-91.69 3104.33,-98.6"/>
</g>
<!-- Node4 -->
<g id="node4" class="node">
<title>Node4</title>
<g id="a_node4"><a xlink:href="imgui__draw_8cpp.html#a9d1efb82d7bc3af7b4ee436ea5d776a9" target="_top" xlink:title=" ">
<polygon fill="white" stroke="#666666" points="2659.5,-86.5 2534.5,-86.5 2534.5,-67.5 2659.5,-67.5 2659.5,-86.5"/>
<text text-anchor="middle" x="2597" y="-74.5" font-family="Helvetica,sans-Serif" font-size="10.00">ImFontAtlasBuildClear</text>
</a>
</g>
</g>
<!-- Node3&#45;&gt;Node4 -->
<g id="edge3" class="edge">
<title>Node3&#45;&gt;Node4</title>
<path fill="none" stroke="#63b8ff" d="M2907.68,-104.14C2899.03,-103.01 2890.33,-101.93 2882,-101 2805.54,-92.42 2717.18,-85.41 2659.59,-81.23"/>
<polygon fill="#63b8ff" stroke="#63b8ff" points="2907.41,-107.63 2917.78,-105.48 2908.33,-100.69 2907.41,-107.63"/>
</g>
<!-- Node11 -->
<g id="node11" class="node">
<title>Node11</title>
<g id="a_node11"><a xlink:href="imgui__draw_8cpp.html#ac050ff181df43cec0b63d834b6039c3f" target="_top" xlink:title=" ">
<polygon fill="white" stroke="#666666" points="2855,-275.5 2739,-275.5 2739,-256.5 2855,-256.5 2855,-275.5"/>
<text text-anchor="middle" x="2797" y="-263.5" font-family="Helvetica,sans-Serif" font-size="10.00">ImFontAtlasBuildInit</text>
</a>
</g>
</g>
<!-- Node3&#45;&gt;Node11 -->
<g id="edge12" class="edge">
<title>Node3&#45;&gt;Node11</title>
<path fill="none" stroke="#63b8ff" d="M2962.36,-131.12C2924.16,-162.46 2840.91,-230.78 2809.93,-256.21"/>
<polygon fill="#63b8ff" stroke="#63b8ff" points="2964.7,-133.72 2970.21,-124.68 2960.26,-128.31 2964.7,-133.72"/>
</g>
<!-- Node14 -->
<g id="node14" class="node">
<title>Node14</title>
<g id="a_node14"><a xlink:href="imgui__draw_8cpp.html#a774e74d2f6e0b33b6e6b85d4d5c5b3da" target="_top" xlink:title=" ">
<polygon fill="white" stroke="#666666" points="1862,-280.5 1715,-280.5 1715,-261.5 1862,-261.5 1862,-280.5"/>
<text text-anchor="middle" x="1788.5" y="-268.5" font-family="Helvetica,sans-Serif" font-size="10.00">ImFontAtlasTextureRepack</text>
</a>
</g>
</g>
<!-- Node3&#45;&gt;Node14 -->
<g id="edge70" class="edge">
<title>Node3&#45;&gt;Node14</title>
<path fill="none" stroke="#63b8ff" d="M2907.74,-110.54C2729.06,-102.12 2262.95,-93.96 1898,-209 1860.34,-220.87 1821.39,-247.2 1802.02,-261.43"/>
<polygon fill="#63b8ff" stroke="#63b8ff" points="2907.66,-114.04 2917.82,-111.03 2908,-107.05 2907.66,-114.04"/>
</g>
<!-- Node32 -->
<g id="node36" class="node">
<title>Node32</title>
<g id="a_node36"><a xlink:href="imgui__draw_8cpp.html#a2ed1c49f29c1635abb9d187846311e43" target="_top" xlink:title=" ">
<polygon fill="white" stroke="#666666" points="1850.5,-485.5 1726.5,-485.5 1726.5,-466.5 1850.5,-466.5 1850.5,-485.5"/>
<text text-anchor="middle" x="1788.5" y="-473.5" font-family="Helvetica,sans-Serif" font-size="10.00">ImFontAtlasBuildMain</text>
</a>
</g>
</g>
<!-- Node3&#45;&gt;Node32 -->
<g id="edge69" class="edge">
<title>Node3&#45;&gt;Node32</title>
<path fill="none" stroke="#63b8ff" d="M2974.79,-134.21C2943.5,-213.86 2811.46,-514 2598,-514 2598,-514 2598,-514 2184.5,-514 2065.83,-514 1928.03,-496.8 1850.56,-485.54"/>
<polygon fill="#63b8ff" stroke="#63b8ff" points="2978.06,-135.45 2978.39,-124.86 2971.53,-132.94 2978.06,-135.45"/>
</g>
<!-- Node5 -->
<g id="node5" class="node">
<title>Node5</title>
<g id="a_node5"><a xlink:href="namespaceImGui.html#acab51ec2b39577845309f24535381038" target="_top" xlink:title=" ">
<polygon fill="white" stroke="#666666" points="682,-133.5 558,-133.5 558,-114.5 682,-114.5 682,-133.5"/>
<text text-anchor="middle" x="620" y="-121.5" font-family="Helvetica,sans-Serif" font-size="10.00">ImGui::ShowFontAtlas</text>
</a>
</g>
</g>
<!-- Node4&#45;&gt;Node5 -->
<g id="edge4" class="edge">
<title>Node4&#45;&gt;Node5</title>
<path fill="none" stroke="#63b8ff" d="M2524.27,-66.01C2442.67,-54.47 2305.32,-38 2186.5,-38 2186.5,-38 2186.5,-38 1787.5,-38 1523.63,-38 1458.87,0 1195,0 1195,0 1195,0 994.5,0 869.03,0 833.38,-7.69 718,-57 683.56,-71.72 648.79,-99.63 631.76,-114.35"/>
<polygon fill="#63b8ff" stroke="#63b8ff" points="2524.04,-69.51 2534.43,-67.46 2525.03,-62.58 2524.04,-69.51"/>
</g>
<!-- Node6 -->
<g id="node6" class="node">
<title>Node6</title>
<g id="a_node6"><a xlink:href="imgui__demo_8cpp.html#a163f04ccf255dede76e5e54f741ca9d5" target="_top" xlink:title=" ">
<polygon fill="white" stroke="#666666" points="522,-171.5 371,-171.5 371,-152.5 522,-152.5 522,-171.5"/>
<text text-anchor="middle" x="446.5" y="-159.5" font-family="Helvetica,sans-Serif" font-size="10.00">DemoWindowWidgetsFonts</text>
</a>
</g>
</g>
<!-- Node5&#45;&gt;Node6 -->
<g id="edge5" class="edge">
<title>Node5&#45;&gt;Node6</title>
<path fill="none" stroke="#63b8ff" d="M565.96,-135.75C541.71,-141.13 513.35,-147.41 490.47,-152.48"/>
<polygon fill="#63b8ff" stroke="#63b8ff" points="566.72,-139.17 575.72,-133.59 565.2,-132.34 566.72,-139.17"/>
</g>
<!-- Node9 -->
<g id="node9" class="node">
<title>Node9</title>
<g id="a_node9"><a xlink:href="namespaceImGui.html#afe7a28c6eb52fff3cc27d5a698fea4ff" target="_top" xlink:title=" ">
<polygon fill="white" stroke="#666666" points="335,-133.5 182,-133.5 182,-114.5 335,-114.5 335,-133.5"/>
<text text-anchor="middle" x="258.5" y="-121.5" font-family="Helvetica,sans-Serif" font-size="10.00">ImGui::ShowMetricsWindow</text>
</a>
</g>
</g>
<!-- Node5&#45;&gt;Node9 -->
<g id="edge8" class="edge">
<title>Node5&#45;&gt;Node9</title>
<path fill="none" stroke="#63b8ff" d="M547.24,-124C485.87,-124 397.82,-124 335.32,-124"/>
<polygon fill="#63b8ff" stroke="#63b8ff" points="547.61,-127.5 557.61,-124 547.61,-120.5 547.61,-127.5"/>
</g>
<!-- Node10 -->
<g id="node10" class="node">
<title>Node10</title>
<g id="a_node10"><a xlink:href="namespaceImGui.html#ab2eb3dec78d054fe3feab1c091ec5de5" target="_top" xlink:title=" ">
<polygon fill="white" stroke="#666666" points="512,-95.5 381,-95.5 381,-76.5 512,-76.5 512,-95.5"/>
<text text-anchor="middle" x="446.5" y="-83.5" font-family="Helvetica,sans-Serif" font-size="10.00">ImGui::ShowStyleEditor</text>
</a>
</g>
</g>
<!-- Node5&#45;&gt;Node10 -->
<g id="edge10" class="edge">
<title>Node5&#45;&gt;Node10</title>
<path fill="none" stroke="#63b8ff" d="M565.96,-112.25C541.71,-106.87 513.35,-100.59 490.47,-95.52"/>
<polygon fill="#63b8ff" stroke="#63b8ff" points="565.2,-115.66 575.72,-114.41 566.72,-108.83 565.2,-115.66"/>
</g>
<!-- Node7 -->
<g id="node7" class="node">
<title>Node7</title>
<g id="a_node7"><a xlink:href="imgui__demo_8cpp.html#a9a639caab781642cbc4f4a23bfbd11cd" target="_top" xlink:title=" ">
<polygon fill="white" stroke="#666666" points="321,-170.5 196,-170.5 196,-151.5 321,-151.5 321,-170.5"/>
<text text-anchor="middle" x="258.5" y="-158.5" font-family="Helvetica,sans-Serif" font-size="10.00">DemoWindowWidgets</text>
</a>
</g>
</g>
<!-- Node6&#45;&gt;Node7 -->
<g id="edge6" class="edge">
<title>Node6&#45;&gt;Node7</title>
<path fill="none" stroke="#63b8ff" d="M360.8,-161.54C347.48,-161.47 333.94,-161.4 321.27,-161.33"/>
<polygon fill="#63b8ff" stroke="#63b8ff" points="360.9,-165.05 370.92,-161.6 360.94,-158.05 360.9,-165.05"/>
</g>
<!-- Node8 -->
<g id="node8" class="node">
<title>Node8</title>
<g id="a_node8"><a xlink:href="namespaceImGui.html#af95643a0ce4893b9e57c12991922fb18" target="_top" xlink:title=" ">
<polygon fill="white" stroke="#666666" points="146,-133.5 0,-133.5 0,-114.5 146,-114.5 146,-133.5"/>
<text text-anchor="middle" x="73" y="-121.5" font-family="Helvetica,sans-Serif" font-size="10.00">ImGui::ShowDemoWindow</text>
</a>
</g>
</g>
<!-- Node7&#45;&gt;Node8 -->
<g id="edge7" class="edge">
<title>Node7&#45;&gt;Node8</title>
<path fill="none" stroke="#63b8ff" d="M200.39,-149.48C175.03,-144.37 145.53,-138.42 121.41,-133.56"/>
<polygon fill="#63b8ff" stroke="#63b8ff" points="199.75,-152.93 210.24,-151.47 201.13,-146.06 199.75,-152.93"/>
</g>
<!-- Node9&#45;&gt;Node8 -->
<g id="edge9" class="edge">
<title>Node9&#45;&gt;Node8</title>
<path fill="none" stroke="#63b8ff" d="M171.54,-124C163.09,-124 154.57,-124 146.28,-124"/>
<polygon fill="#63b8ff" stroke="#63b8ff" points="171.8,-127.5 181.8,-124 171.8,-120.5 171.8,-127.5"/>
</g>
<!-- Node10&#45;&gt;Node8 -->
<g id="edge11" class="edge">
<title>Node10&#45;&gt;Node8</title>
<path fill="none" stroke="#63b8ff" d="M370.59,-89.36C317.74,-92.23 245.37,-97.16 182,-105 162.26,-107.44 140.63,-111.06 121.96,-114.48"/>
<polygon fill="#63b8ff" stroke="#63b8ff" points="371.09,-92.84 380.89,-88.81 370.72,-85.85 371.09,-92.84"/>
</g>
<!-- Node11&#45;&gt;Node4 -->
<g id="edge60" class="edge">
<title>Node11&#45;&gt;Node4</title>
<path fill="none" stroke="#63b8ff" d="M2781.07,-248.7C2759.06,-223.55 2716.15,-175.86 2676,-139 2654.34,-119.11 2627.05,-98.3 2611.16,-86.56"/>
<polygon fill="#63b8ff" stroke="#63b8ff" points="2778.5,-251.07 2787.7,-256.32 2783.78,-246.48 2778.5,-251.07"/>
</g>
<!-- Node12 -->
<g id="node12" class="node">
<title>Node12</title>
<g id="a_node12"><a xlink:href="structImFontAtlas.html#ab4660128958e0c30577056975ef8dc29" target="_top" xlink:title=" ">
<polygon fill="white" stroke="#666666" points="2265,-237.5 2106,-237.5 2106,-218.5 2265,-218.5 2265,-237.5"/>
<text text-anchor="middle" x="2185.5" y="-225.5" font-family="Helvetica,sans-Serif" font-size="10.00">ImFontAtlas::AddCustomRect</text>
</a>
</g>
</g>
<!-- Node11&#45;&gt;Node12 -->
<g id="edge13" class="edge">
<title>Node11&#45;&gt;Node12</title>
<path fill="none" stroke="#63b8ff" d="M2728.6,-265.74C2633.18,-264.81 2453.37,-261 2301,-246 2280.57,-243.99 2258.25,-240.72 2238.78,-237.52"/>
<polygon fill="#63b8ff" stroke="#63b8ff" points="2728.65,-269.24 2738.69,-265.83 2728.72,-262.24 2728.65,-269.24"/>
</g>
<!-- Node443 -->
<g id="node30" class="node">
<title>Node443</title>
<g id="a_node30"><a xlink:href="structImFontAtlas.html#ad01c0f19a95d37a9e5ebab1e54525625" target="_top" xlink:title=" ">
<polygon fill="white" stroke="#666666" points="2657.5,-392.5 2536.5,-392.5 2536.5,-373.5 2657.5,-373.5 2657.5,-392.5"/>
<text text-anchor="middle" x="2597" y="-380.5" font-family="Helvetica,sans-Serif" font-size="10.00">ImFontAtlas::AddFont</text>
</a>
</g>
</g>
<!-- Node11&#45;&gt;Node443 -->
<g id="edge42" class="edge">
<title>Node11&#45;&gt;Node443</title>
<path fill="none" stroke="#63b8ff" d="M2777.81,-282.53C2755.3,-302.26 2715.15,-335.2 2676,-356 2662.59,-363.13 2646.91,-368.98 2633.14,-373.39"/>
<polygon fill="#63b8ff" stroke="#63b8ff" points="2780.38,-284.92 2785.53,-275.66 2775.73,-279.69 2780.38,-284.92"/>
</g>
<!-- Node11&#45;&gt;Node32 -->
<g id="edge61" class="edge">
<title>Node11&#45;&gt;Node32</title>
<path fill="none" stroke="#63b8ff" d="M2784.86,-284.34C2766.11,-313.59 2725.44,-370.6 2676,-401 2564.98,-469.28 2522.83,-476 2392.5,-476 2392.5,-476 2392.5,-476 2184.5,-476 2066.38,-476 1928.38,-476 1850.74,-476"/>
<polygon fill="#63b8ff" stroke="#63b8ff" points="2788.01,-285.9 2790.35,-275.57 2782.08,-282.18 2788.01,-285.9"/>
</g>
<!-- Node449 -->
<g id="node46" class="node">
<title>Node449</title>
<g id="a_node46"><a xlink:href="imgui__draw_8cpp.html#ac554b588bab2aa85e6f6d6969b8224e4" target="_top" xlink:title=" ">
<polygon fill="white" stroke="#666666" points="2676,-237.5 2518,-237.5 2518,-218.5 2676,-218.5 2676,-237.5"/>
<text text-anchor="middle" x="2597" y="-225.5" font-family="Helvetica,sans-Serif" font-size="10.00">ImFontAtlasPackGetRectSafe</text>
</a>
</g>
</g>
<!-- Node11&#45;&gt;Node449 -->
<g id="edge62" class="edge">
<title>Node11&#45;&gt;Node449</title>
<path fill="none" stroke="#63b8ff" d="M2736.13,-254.51C2707.88,-249.09 2674.56,-242.69 2647.73,-237.54"/>
<polygon fill="#63b8ff" stroke="#63b8ff" points="2735.81,-258.01 2746.29,-256.46 2737.13,-251.14 2735.81,-258.01"/>
</g>
<!-- Node13 -->
<g id="node13" class="node">
<title>Node13</title>
<g id="a_node13"><a xlink:href="imgui__draw_8cpp.html#ab393bf8b3bb80eec2e65edae02153d8c" target="_top" xlink:title=" ">
<polygon fill="white" stroke="#666666" points="2064.5,-248 1903.5,-248 1903.5,-218 2064.5,-218 2064.5,-248"/>
<text text-anchor="start" x="1911.5" y="-236" font-family="Helvetica,sans-Serif" font-size="10.00">ImFontAtlasBuildUpdateBasic</text>
<text text-anchor="middle" x="1984" y="-225" font-family="Helvetica,sans-Serif" font-size="10.00">TexData</text>
</a>
</g>
</g>
<!-- Node12&#45;&gt;Node13 -->
<g id="edge14" class="edge">
<title>Node12&#45;&gt;Node13</title>
<path fill="none" stroke="#63b8ff" d="M2095.71,-230.23C2085.42,-230.48 2074.96,-230.75 2064.8,-231"/>
<polygon fill="#63b8ff" stroke="#63b8ff" points="2096.03,-233.72 2105.94,-229.97 2095.85,-226.72 2096.03,-233.72"/>
</g>
<!-- Node442 -->
<g id="node29" class="node">
<title>Node442</title>
<g id="a_node29"><a xlink:href="imgui__draw_8cpp.html#ae1947e9ba26126e2cd94f8772df62b88" target="_top" xlink:title=" ">
<polygon fill="white" stroke="#666666" points="2064.5,-296 1903.5,-296 1903.5,-266 2064.5,-266 2064.5,-296"/>
<text text-anchor="start" x="1911.5" y="-284" font-family="Helvetica,sans-Serif" font-size="10.00">ImFontAtlasBuildUpdateLines</text>
<text text-anchor="middle" x="1984" y="-273" font-family="Helvetica,sans-Serif" font-size="10.00">TexData</text>
</a>
</g>
</g>
<!-- Node12&#45;&gt;Node442 -->
<g id="edge39" class="edge">
<title>Node12&#45;&gt;Node442</title>
<path fill="none" stroke="#63b8ff" d="M2138.55,-240.21C2109.7,-247.87 2072.28,-257.81 2041.6,-265.96"/>
<polygon fill="#63b8ff" stroke="#63b8ff" points="2139.61,-243.55 2148.37,-237.6 2137.81,-236.78 2139.61,-243.55"/>
</g>
<!-- Node13&#45;&gt;Node11 -->
<g id="edge15" class="edge">
<title>Node13&#45;&gt;Node11</title>
<path fill="none" stroke="#63b8ff" d="M2074.8,-244.99C2206.56,-261.17 2460.07,-286.88 2676,-277 2696.48,-276.06 2718.87,-274.23 2738.7,-272.33"/>
<polygon fill="#63b8ff" stroke="#63b8ff" points="2075.1,-241.51 2064.75,-243.75 2074.24,-248.45 2075.1,-241.51"/>
</g>
<!-- Node13&#45;&gt;Node14 -->
<g id="edge16" class="edge">
<title>Node13&#45;&gt;Node14</title>
<path fill="none" stroke="#63b8ff" d="M1896.68,-249.95C1876.51,-253.91 1855.72,-258 1837.88,-261.5"/>
<polygon fill="#63b8ff" stroke="#63b8ff" points="1897.39,-253.38 1906.52,-248.02 1896.04,-246.51 1897.39,-253.38"/>
</g>
<!-- Node15 -->
<g id="node15" class="node">
<title>Node15</title>
<g id="a_node15"><a xlink:href="imgui__draw_8cpp.html#af11c1114c44b7a339be338065a28412b" target="_top" xlink:title=" ">
<polygon fill="white" stroke="#666666" points="1675,-339.5 1520,-339.5 1520,-320.5 1675,-320.5 1675,-339.5"/>
<text text-anchor="middle" x="1597.5" y="-327.5" font-family="Helvetica,sans-Serif" font-size="10.00">ImFontAtlasTextureCompact</text>
</a>
</g>
</g>
<!-- Node14&#45;&gt;Node15 -->
<g id="edge17" class="edge">
<title>Node14&#45;&gt;Node15</title>
<path fill="none" stroke="#63b8ff" d="M1753.63,-284.18C1732.38,-292.19 1704.3,-302.33 1679,-310 1666.6,-313.76 1652.96,-317.35 1640.5,-320.42"/>
<polygon fill="#63b8ff" stroke="#63b8ff" points="1755.07,-287.37 1763.18,-280.55 1752.58,-280.83 1755.07,-287.37"/>
</g>
<!-- Node21 -->
<g id="node20" class="node">
<title>Node21</title>
<g id="a_node20"><a xlink:href="imgui__draw_8cpp.html#ad574da8343f063ce995d922236480aac" target="_top" xlink:title=" ">
<polygon fill="white" stroke="#666666" points="1666,-301.5 1529,-301.5 1529,-282.5 1666,-282.5 1666,-301.5"/>
<text text-anchor="middle" x="1597.5" y="-289.5" font-family="Helvetica,sans-Serif" font-size="10.00">ImFontAtlasTextureGrow</text>
</a>
</g>
</g>
<!-- Node14&#45;&gt;Node21 -->
<g id="edge23" class="edge">
<title>Node14&#45;&gt;Node21</title>
<path fill="none" stroke="#63b8ff" d="M1704.93,-273.47C1680.44,-276 1654.86,-279.25 1634.92,-282.5"/>
<polygon fill="#63b8ff" stroke="#63b8ff" points="1705.36,-276.95 1714.97,-272.47 1704.67,-269.98 1705.36,-276.95"/>
</g>
<!-- Node22 -->
<g id="node21" class="node">
<title>Node22</title>
<g id="a_node21"><a xlink:href="imgui__draw_8cpp.html#ab6db3feee2a9236c83a4cfa35cd8b044" target="_top" xlink:title=" ">
<polygon fill="white" stroke="#666666" points="1480,-263.5 1313,-263.5 1313,-244.5 1480,-244.5 1480,-263.5"/>
<text text-anchor="middle" x="1396.5" y="-251.5" font-family="Helvetica,sans-Serif" font-size="10.00">ImFontAtlasTextureMakeSpace</text>
</a>
</g>
</g>
<!-- Node14&#45;&gt;Node22 -->
<g id="edge38" class="edge">
<title>Node14&#45;&gt;Node22</title>
<path fill="none" stroke="#63b8ff" d="M1704.22,-267.37C1638.1,-264.49 1546.13,-260.48 1480.17,-257.6"/>
<polygon fill="#63b8ff" stroke="#63b8ff" points="1704.46,-270.88 1714.6,-267.82 1704.76,-263.89 1704.46,-270.88"/>
</g>
<!-- Node16 -->
<g id="node16" class="node">
<title>Node16</title>
<g id="a_node16"><a xlink:href="structImFontAtlas.html#a617f379b512d62e83a395516a555f3c5" target="_top" xlink:title=" ">
<polygon fill="white" stroke="#666666" points="1474,-339.5 1319,-339.5 1319,-320.5 1474,-320.5 1474,-339.5"/>
<text text-anchor="middle" x="1396.5" y="-327.5" font-family="Helvetica,sans-Serif" font-size="10.00">ImFontAtlas::CompactCache</text>
</a>
</g>
</g>
<!-- Node15&#45;&gt;Node16 -->
<g id="edge18" class="edge">
<title>Node15&#45;&gt;Node16</title>
<path fill="none" stroke="#63b8ff" d="M1509.55,-330C1497.75,-330 1485.72,-330 1474.11,-330"/>
<polygon fill="#63b8ff" stroke="#63b8ff" points="1509.85,-333.5 1519.85,-330 1509.85,-326.5 1509.85,-333.5"/>
</g>
<!-- Node16&#45;&gt;Node5 -->
<g id="edge22" class="edge">
<title>Node16&#45;&gt;Node5</title>
<path fill="none" stroke="#63b8ff" d="M1308.61,-337.4C1148.4,-349.36 814.03,-365.98 718,-306 653.01,-265.41 628.89,-165.5 622.73,-133.81"/>
<polygon fill="#63b8ff" stroke="#63b8ff" points="1309.2,-340.86 1318.91,-336.62 1308.67,-333.88 1309.2,-340.86"/>
</g>
<!-- Node17 -->
<g id="node17" class="node">
<title>Node17</title>
<g id="a_node17"><a xlink:href="namespaceImGui.html#aab0d052a1581fddc1cc2d9d981f487c0" target="_top" xlink:title=" ">
<polygon fill="white" stroke="#666666" points="1270,-388 1118,-388 1118,-358 1270,-358 1270,-388"/>
<text text-anchor="start" x="1126" y="-376" font-family="Helvetica,sans-Serif" font-size="10.00">ImGui::GcCompactTransient</text>
<text text-anchor="middle" x="1194" y="-365" font-family="Helvetica,sans-Serif" font-size="10.00">MiscBuffers</text>
</a>
</g>
</g>
<!-- Node16&#45;&gt;Node17 -->
<g id="edge19" class="edge">
<title>Node16&#45;&gt;Node17</title>
<path fill="none" stroke="#63b8ff" d="M1341.22,-341.64C1317.74,-346.68 1289.97,-352.63 1264.97,-357.99"/>
<polygon fill="#63b8ff" stroke="#63b8ff" points="1341.96,-345.06 1351,-339.54 1340.49,-338.22 1341.96,-345.06"/>
</g>
<!-- Node18 -->
<g id="node18" class="node">
<title>Node18</title>
<g id="a_node18"><a xlink:href="namespaceImGui.html#ab3f1fc018f903b7ad79fd10663375774" target="_top" xlink:title=" ">
<polygon fill="white" stroke="#666666" points="1047.5,-425.5 943.5,-425.5 943.5,-406.5 1047.5,-406.5 1047.5,-425.5"/>
<text text-anchor="middle" x="995.5" y="-413.5" font-family="Helvetica,sans-Serif" font-size="10.00">ImGui::NewFrame</text>
</a>
</g>
</g>
<!-- Node17&#45;&gt;Node18 -->
<g id="edge20" class="edge">
<title>Node17&#45;&gt;Node18</title>
<path fill="none" stroke="#63b8ff" d="M1114.3,-390.22C1088.98,-395.76 1061.85,-401.7 1040.01,-406.48"/>
<polygon fill="#63b8ff" stroke="#63b8ff" points="1115.25,-393.6 1124.27,-388.04 1113.76,-386.76 1115.25,-393.6"/>
</g>
<!-- Node19 -->
<g id="node19" class="node">
<title>Node19</title>
<g id="a_node19"><a xlink:href="classmtgb_1_1ImGuiRenderer.html#a4684d4374beee1f52053b4634edae2c8" target="_top" xlink:title=" ">
<polygon fill="#fff0f0" stroke="red" points="860,-431 738,-431 738,-401 860,-401 860,-431"/>
<text text-anchor="start" x="746" y="-419" font-family="Helvetica,sans-Serif" font-size="10.00">mtgb::ImGuiRenderer</text>
<text text-anchor="middle" x="799" y="-408" font-family="Helvetica,sans-Serif" font-size="10.00">::BeginFrame</text>
</a>
</g>
</g>
<!-- Node18&#45;&gt;Node19 -->
<g id="edge21" class="edge">
<title>Node18&#45;&gt;Node19</title>
<path fill="none" stroke="#63b8ff" d="M933.26,-416C909.91,-416 883.33,-416 860.08,-416"/>
<polygon fill="#63b8ff" stroke="#63b8ff" points="933.4,-419.5 943.4,-416 933.4,-412.5 933.4,-419.5"/>
</g>
<!-- Node21&#45;&gt;Node5 -->
<g id="edge37" class="edge">
<title>Node21&#45;&gt;Node5</title>
<path fill="none" stroke="#63b8ff" d="M1518.55,-292C1437.66,-292 1307.47,-292 1195,-292 1195,-292 1195,-292 994.5,-292 869.85,-292 825.44,-308.2 718,-245 670.66,-217.15 637.17,-156.85 625.52,-133.5"/>
<polygon fill="#63b8ff" stroke="#63b8ff" points="1518.66,-295.5 1528.66,-292 1518.66,-288.5 1518.66,-295.5"/>
</g>
<!-- Node21&#45;&gt;Node14 -->
<g id="edge36" class="edge">
<title>Node21&#45;&gt;Node14</title>
<path fill="none" stroke="#63b8ff" d="M1676.39,-290C1702.26,-287.42 1729.85,-283.96 1751.06,-280.51"/>
<polygon fill="#63b8ff" stroke="#63b8ff" points="1675.82,-286.54 1666.2,-290.98 1676.49,-293.51 1675.82,-286.54"/>
</g>
<!-- Node21&#45;&gt;Node22 -->
<g id="edge24" class="edge">
<title>Node21&#45;&gt;Node22</title>
<path fill="none" stroke="#63b8ff" d="M1536.71,-280.58C1508.23,-275.14 1474.57,-268.72 1447.48,-263.54"/>
<polygon fill="#63b8ff" stroke="#63b8ff" points="1536.06,-284.02 1546.54,-282.46 1537.37,-277.15 1536.06,-284.02"/>
</g>
<!-- Node23 -->
<g id="node22" class="node">
<title>Node23</title>
<g id="a_node22"><a xlink:href="imgui__draw_8cpp.html#a0033358c6425323b29be68b3f5af3aa9" target="_top" xlink:title=" ">
<polygon fill="white" stroke="#666666" points="1263,-214.5 1125,-214.5 1125,-195.5 1263,-195.5 1263,-214.5"/>
<text text-anchor="middle" x="1194" y="-202.5" font-family="Helvetica,sans-Serif" font-size="10.00">ImFontAtlasPackAddRect</text>
</a>
</g>
</g>
<!-- Node22&#45;&gt;Node23 -->
<g id="edge25" class="edge">
<title>Node22&#45;&gt;Node23</title>
<path fill="none" stroke="#63b8ff" d="M1346.47,-242.02C1311.88,-233.56 1266.16,-222.39 1234.04,-214.54"/>
<polygon fill="#63b8ff" stroke="#63b8ff" points="1345.82,-245.46 1356.37,-244.44 1347.48,-238.66 1345.82,-245.46"/>
</g>
<!-- Node23&#45;&gt;Node12 -->
<g id="edge26" class="edge">
<title>Node23&#45;&gt;Node12</title>
<path fill="none" stroke="#63b8ff" d="M1273.5,-201.17C1426.88,-194.61 1777.02,-184.18 2070,-209 2092.39,-210.9 2116.99,-214.75 2137.64,-218.49"/>
<polygon fill="#63b8ff" stroke="#63b8ff" points="1273.08,-197.68 1263.24,-201.61 1273.38,-204.68 1273.08,-197.68"/>
</g>
<!-- Node23&#45;&gt;Node14 -->
<g id="edge31" class="edge">
<title>Node23&#45;&gt;Node14</title>
<path fill="none" stroke="#63b8ff" d="M1273.39,-212.47C1369.19,-221.78 1536.17,-238.6 1679,-256 1692.69,-257.67 1707.32,-259.59 1721.27,-261.5"/>
<polygon fill="#63b8ff" stroke="#63b8ff" points="1273.5,-208.96 1263.21,-211.48 1272.83,-215.93 1273.5,-208.96"/>
</g>
<!-- Node24 -->
<g id="node23" class="node">
<title>Node24</title>
<g id="a_node23"><a xlink:href="structImFontAtlas.html#a7b5b4e1374b9ee8ad3cdf624f6ca0ea6" target="_top" xlink:title=" ">
<polygon fill="white" stroke="#666666" points="1075,-236 916,-236 916,-206 1075,-206 1075,-236"/>
<text text-anchor="start" x="924" y="-224" font-family="Helvetica,sans-Serif" font-size="10.00">ImFontAtlas::AddCustomRect</text>
<text text-anchor="middle" x="995.5" y="-213" font-family="Helvetica,sans-Serif" font-size="10.00">FontGlyphForSize</text>
</a>
</g>
</g>
<!-- Node23&#45;&gt;Node24 -->
<g id="edge27" class="edge">
<title>Node23&#45;&gt;Node24</title>
<path fill="none" stroke="#63b8ff" d="M1114.51,-211.39C1101.5,-212.45 1088.01,-213.55 1075,-214.61"/>
<polygon fill="#63b8ff" stroke="#63b8ff" points="1115.14,-214.85 1124.83,-210.55 1114.57,-207.87 1115.14,-214.85"/>
</g>
<!-- Node26 -->
<g id="node25" class="node">
<title>Node26</title>
<g id="a_node25"><a xlink:href="imgui__draw_8cpp.html#af9e65faab4d4aee635252df4de8f9c20" target="_top" xlink:title=" ">
<polygon fill="white" stroke="#666666" points="1070,-188 921,-188 921,-158 1070,-158 1070,-188"/>
<text text-anchor="start" x="929" y="-176" font-family="Helvetica,sans-Serif" font-size="10.00">ImFontAtlasBuildSetupFont</text>
<text text-anchor="middle" x="995.5" y="-165" font-family="Helvetica,sans-Serif" font-size="10.00">BakedEllipsis</text>
</a>
</g>
</g>
<!-- Node23&#45;&gt;Node26 -->
<g id="edge29" class="edge">
<title>Node23&#45;&gt;Node26</title>
<path fill="none" stroke="#63b8ff" d="M1124.41,-193.83C1106.83,-190.97 1087.86,-187.88 1070.05,-184.98"/>
<polygon fill="#63b8ff" stroke="#63b8ff" points="1124.14,-197.33 1134.58,-195.49 1125.27,-190.42 1124.14,-197.33"/>
</g>
<!-- Node440 -->
<g id="node27" class="node">
<title>Node440</title>
<g id="a_node27"><a xlink:href="imgui__draw_8cpp.html#a384d25358c5821097a2a8cfc007a78a5" target="_top" xlink:title=" ">
<polygon fill="white" stroke="#666666" points="1061,-96 930,-96 930,-66 1061,-66 1061,-96"/>
<text text-anchor="start" x="938" y="-84" font-family="Helvetica,sans-Serif" font-size="10.00">ImGui_ImplStbTrueType</text>
<text text-anchor="middle" x="995.5" y="-73" font-family="Helvetica,sans-Serif" font-size="10.00">_FontBakedLoadGlyph</text>
</a>
</g>
</g>
<!-- Node23&#45;&gt;Node440 -->
<g id="edge32" class="edge">
<title>Node23&#45;&gt;Node440</title>
<path fill="none" stroke="#63b8ff" d="M1169.1,-189.92C1131.27,-166.05 1058.05,-119.84 1020.29,-96.01"/>
<polygon fill="#63b8ff" stroke="#63b8ff" points="1167.58,-193.1 1177.91,-195.48 1171.32,-187.18 1167.58,-193.1"/>
</g>
<!-- Node25 -->
<g id="node24" class="node">
<title>Node25</title>
<g id="a_node24"><a xlink:href="structImFontAtlas.html#ab5427b1134dc2d82fefb4595054f1a04" target="_top" xlink:title=" ">
<polygon fill="white" stroke="#666666" points="878.5,-236 719.5,-236 719.5,-206 878.5,-206 878.5,-236"/>
<text text-anchor="start" x="727.5" y="-224" font-family="Helvetica,sans-Serif" font-size="10.00">ImFontAtlas::AddCustomRect</text>
<text text-anchor="middle" x="799" y="-213" font-family="Helvetica,sans-Serif" font-size="10.00">FontGlyph</text>
</a>
</g>
</g>
<!-- Node24&#45;&gt;Node25 -->
<g id="edge28" class="edge">
<title>Node24&#45;&gt;Node25</title>
<path fill="none" stroke="#63b8ff" d="M905.75,-221C896.67,-221 887.49,-221 878.53,-221"/>
<polygon fill="#63b8ff" stroke="#63b8ff" points="905.95,-224.5 915.95,-221 905.95,-217.5 905.95,-224.5"/>
</g>
<!-- Node27 -->
<g id="node26" class="node">
<title>Node27</title>
<g id="a_node26"><a xlink:href="imgui__draw_8cpp.html#af0ee06cd161ca9d371b6466b8a145db9" target="_top" xlink:title=" ">
<polygon fill="#fff0f0" stroke="red" points="880,-182.5 718,-182.5 718,-163.5 880,-163.5 880,-182.5"/>
<text text-anchor="middle" x="799" y="-170.5" font-family="Helvetica,sans-Serif" font-size="10.00">ImFontBaked_BuildLoadGlyph</text>
</a>
</g>
</g>
<!-- Node26&#45;&gt;Node27 -->
<g id="edge30" class="edge">
<title>Node26&#45;&gt;Node27</title>
<path fill="none" stroke="#63b8ff" d="M910.86,-173C900.67,-173 890.28,-173 880.14,-173"/>
<polygon fill="#63b8ff" stroke="#63b8ff" points="910.97,-176.5 920.97,-173 910.97,-169.5 910.97,-176.5"/>
</g>
<!-- Node441 -->
<g id="node28" class="node">
<title>Node441</title>
<g id="a_node28"><a xlink:href="imgui__draw_8cpp.html#a2445ec6272ab6f7597ad4012e178a5d6" target="_top" xlink:title=" ">
<polygon fill="white" stroke="#666666" points="872,-96 726,-96 726,-66 872,-66 872,-96"/>
<text text-anchor="start" x="734" y="-84" font-family="Helvetica,sans-Serif" font-size="10.00">ImFontAtlasGetFontLoader</text>
<text text-anchor="middle" x="799" y="-73" font-family="Helvetica,sans-Serif" font-size="10.00">ForStbTruetype</text>
</a>
</g>
</g>
<!-- Node440&#45;&gt;Node441 -->
<g id="edge33" class="edge">
<title>Node440&#45;&gt;Node441</title>
<path fill="none" stroke="#63b8ff" d="M919.63,-81C904.06,-81 887.67,-81 872.19,-81"/>
<polygon fill="#63b8ff" stroke="#63b8ff" points="919.73,-84.5 929.73,-81 919.73,-77.5 919.73,-84.5"/>
</g>
<!-- Node441&#45;&gt;Node5 -->
<g id="edge35" class="edge">
<title>Node441&#45;&gt;Node5</title>
<path fill="none" stroke="#63b8ff" d="M726.2,-98.44C703.65,-103.92 679.6,-109.76 660.2,-114.48"/>
<polygon fill="#63b8ff" stroke="#63b8ff" points="727.2,-101.8 736.09,-96.04 725.55,-95 727.2,-101.8"/>
</g>
<!-- Node441&#45;&gt;Node11 -->
<g id="edge34" class="edge">
<title>Node441&#45;&gt;Node11</title>
<path fill="none" stroke="#63b8ff" d="M871.11,-63.9C885.87,-61.03 901.37,-58.5 916,-57 986.3,-49.8 1004.35,-55.71 1075,-57 1306.89,-61.22 1364.57,-76 1596.5,-76 1985,-76 1985,-76 1985,-76 2297.75,-76 2378.82,-111.57 2676,-209 2714.57,-221.65 2756.83,-243.85 2779.47,-256.48"/>
<polygon fill="#63b8ff" stroke="#63b8ff" points="870.15,-60.53 861.04,-65.94 871.54,-67.39 870.15,-60.53"/>
</g>
<!-- Node442&#45;&gt;Node11 -->
<g id="edge40" class="edge">
<title>Node442&#45;&gt;Node11</title>
<path fill="none" stroke="#63b8ff" d="M2033.51,-299.44C2055.32,-306.79 2081.6,-314.35 2106,-318 2356.55,-355.45 2427.94,-369.43 2676,-318 2715.13,-309.89 2757.17,-288.35 2779.63,-275.68"/>
<polygon fill="#63b8ff" stroke="#63b8ff" points="2034.42,-296.05 2023.83,-296.09 2032.14,-302.67 2034.42,-296.05"/>
</g>
<!-- Node442&#45;&gt;Node14 -->
<g id="edge41" class="edge">
<title>Node442&#45;&gt;Node14</title>
<path fill="none" stroke="#63b8ff" d="M1893.47,-276.37C1883,-275.83 1872.41,-275.28 1862.21,-274.76"/>
<polygon fill="#63b8ff" stroke="#63b8ff" points="1893.29,-279.87 1903.46,-276.89 1893.65,-272.88 1893.29,-279.87"/>
</g>
<!-- Node444 -->
<g id="node31" class="node">
<title>Node444</title>
<g id="a_node31"><a xlink:href="structImFontAtlas.html#ad7e1ae24061d41f667546626dc39ef09" target="_top" xlink:title=" ">
<polygon fill="white" stroke="#666666" points="2464.5,-400 2318.5,-400 2318.5,-370 2464.5,-370 2464.5,-400"/>
<text text-anchor="start" x="2326.5" y="-388" font-family="Helvetica,sans-Serif" font-size="10.00">ImFontAtlas::AddFontFrom</text>
<text text-anchor="middle" x="2391.5" y="-377" font-family="Helvetica,sans-Serif" font-size="10.00">MemoryTTF</text>
</a>
</g>
</g>
<!-- Node443&#45;&gt;Node444 -->
<g id="edge43" class="edge">
<title>Node443&#45;&gt;Node444</title>
<path fill="none" stroke="#63b8ff" d="M2526.14,-383.69C2506.34,-383.88 2484.74,-384.09 2464.79,-384.29"/>
<polygon fill="#63b8ff" stroke="#63b8ff" points="2526.35,-387.18 2536.32,-383.59 2526.28,-380.19 2526.35,-387.18"/>
</g>
<!-- Node445 -->
<g id="node32" class="node">
<title>Node445</title>
<g id="a_node32"><a xlink:href="structImFontAtlas.html#a4c6bafad7f84b9de141e70b549b3601c" target="_top" xlink:title=" ">
<polygon fill="white" stroke="#666666" points="2258.5,-448 2112.5,-448 2112.5,-418 2258.5,-418 2258.5,-448"/>
<text text-anchor="start" x="2120.5" y="-436" font-family="Helvetica,sans-Serif" font-size="10.00">ImFontAtlas::AddFontFrom</text>
<text text-anchor="middle" x="2185.5" y="-425" font-family="Helvetica,sans-Serif" font-size="10.00">FileTTF</text>
</a>
</g>
</g>
<!-- Node444&#45;&gt;Node445 -->
<g id="edge44" class="edge">
<title>Node444&#45;&gt;Node445</title>
<path fill="none" stroke="#63b8ff" d="M2316.67,-402.37C2294.92,-407.49 2271.32,-413.04 2250.26,-418"/>
<polygon fill="#63b8ff" stroke="#63b8ff" points="2317.58,-405.75 2326.51,-400.06 2315.98,-398.94 2317.58,-405.75"/>
</g>
<!-- Node446 -->
<g id="node34" class="node">
<title>Node446</title>
<g id="a_node34"><a xlink:href="structImFontAtlas.html#a7da214e3b090724bbc43e77ee254870d" target="_top" xlink:title=" ">
<polygon fill="white" stroke="#666666" points="2258.5,-400 2112.5,-400 2112.5,-370 2258.5,-370 2258.5,-400"/>
<text text-anchor="start" x="2120.5" y="-388" font-family="Helvetica,sans-Serif" font-size="10.00">ImFontAtlas::AddFontFrom</text>
<text text-anchor="middle" x="2185.5" y="-377" font-family="Helvetica,sans-Serif" font-size="10.00">MemoryCompressedTTF</text>
</a>
</g>
</g>
<!-- Node444&#45;&gt;Node446 -->
<g id="edge46" class="edge">
<title>Node444&#45;&gt;Node446</title>
<path fill="none" stroke="#63b8ff" d="M2308.18,-385C2291.77,-385 2274.65,-385 2258.61,-385"/>
<polygon fill="#63b8ff" stroke="#63b8ff" points="2308.29,-388.5 2318.29,-385 2308.29,-381.5 2308.29,-388.5"/>
</g>
<!-- Node330 -->
<g id="node33" class="node">
<title>Node330</title>
<g id="a_node33"><a xlink:href="classmtgb_1_1ImGuiRenderer.html#a4db4a95a57f586a5fda30be1957f247a" target="_top" xlink:title=" ">
<polygon fill="white" stroke="#666666" points="2045,-448 1923,-448 1923,-418 2045,-418 2045,-448"/>
<text text-anchor="start" x="1931" y="-436" font-family="Helvetica,sans-Serif" font-size="10.00">mtgb::ImGuiRenderer</text>
<text text-anchor="middle" x="1984" y="-425" font-family="Helvetica,sans-Serif" font-size="10.00">::Initialize</text>
</a>
</g>
</g>
<!-- Node445&#45;&gt;Node330 -->
<g id="edge45" class="edge">
<title>Node445&#45;&gt;Node330</title>
<path fill="none" stroke="#63b8ff" d="M2102.26,-433C2083.11,-433 2063.07,-433 2045.09,-433"/>
<polygon fill="#63b8ff" stroke="#63b8ff" points="2102.48,-436.5 2112.48,-433 2102.48,-429.5 2102.48,-436.5"/>
</g>
<!-- Node447 -->
<g id="node35" class="node">
<title>Node447</title>
<g id="a_node35"><a xlink:href="structImFontAtlas.html#a9d2b4a94579bf603a0d2662cd8348cbd" target="_top" xlink:title=" ">
<polygon fill="white" stroke="#666666" points="2062.5,-399.5 1905.5,-399.5 1905.5,-380.5 2062.5,-380.5 2062.5,-399.5"/>
<text text-anchor="middle" x="1984" y="-387.5" font-family="Helvetica,sans-Serif" font-size="10.00">ImFontAtlas::AddFontDefault</text>
</a>
</g>
</g>
<!-- Node446&#45;&gt;Node447 -->
<g id="edge47" class="edge">
<title>Node446&#45;&gt;Node447</title>
<path fill="none" stroke="#63b8ff" d="M2102.11,-387.06C2089.06,-387.39 2075.59,-387.73 2062.65,-388.05"/>
<polygon fill="#63b8ff" stroke="#63b8ff" points="2102.57,-390.55 2112.48,-386.81 2102.39,-383.56 2102.57,-390.55"/>
</g>
<!-- Node448 -->
<g id="node45" class="node">
<title>Node448</title>
<g id="a_node45"><a xlink:href="structImFontAtlas.html#a00b44a4a4d7b2d5b66f83e8b92d0f5e7" target="_top" xlink:title=" ">
<polygon fill="white" stroke="#666666" points="2070,-362 1898,-362 1898,-332 2070,-332 2070,-362"/>
<text text-anchor="start" x="1906" y="-350" font-family="Helvetica,sans-Serif" font-size="10.00">ImFontAtlas::AddFontFrom</text>
<text text-anchor="middle" x="1984" y="-339" font-family="Helvetica,sans-Serif" font-size="10.00">MemoryCompressedBase85TTF</text>
</a>
</g>
</g>
<!-- Node446&#45;&gt;Node448 -->
<g id="edge59" class="edge">
<title>Node446&#45;&gt;Node448</title>
<path fill="none" stroke="#63b8ff" d="M2102.4,-369.36C2089.71,-366.94 2076.63,-364.45 2064.01,-362.05"/>
<polygon fill="#63b8ff" stroke="#63b8ff" points="2102,-372.85 2112.48,-371.28 2103.31,-365.97 2102,-372.85"/>
</g>
<!-- Node447&#45;&gt;Node32 -->
<g id="edge48" class="edge">
<title>Node447&#45;&gt;Node32</title>
<path fill="none" stroke="#63b8ff" d="M1917.81,-402.21C1911.02,-404.18 1904.3,-406.43 1898,-409 1860.48,-424.27 1821.16,-451.95 1801.78,-466.49"/>
<polygon fill="#63b8ff" stroke="#63b8ff" points="1919.02,-405.51 1927.76,-399.53 1917.2,-398.75 1919.02,-405.51"/>
</g>
<!-- Node33 -->
<g id="node37" class="node">
<title>Node33</title>
<g id="a_node37"><a xlink:href="structImFontAtlas.html#a81e39e30dffa4dd7e458a53297451e27" target="_top" xlink:title=" ">
<polygon fill="white" stroke="#666666" points="1650.5,-485.5 1544.5,-485.5 1544.5,-466.5 1650.5,-466.5 1650.5,-485.5"/>
<text text-anchor="middle" x="1597.5" y="-473.5" font-family="Helvetica,sans-Serif" font-size="10.00">ImFontAtlas::Build</text>
</a>
</g>
</g>
<!-- Node32&#45;&gt;Node33 -->
<g id="edge49" class="edge">
<title>Node32&#45;&gt;Node33</title>
<path fill="none" stroke="#63b8ff" d="M1716.18,-476C1694.37,-476 1670.79,-476 1650.51,-476"/>
<polygon fill="#63b8ff" stroke="#63b8ff" points="1716.4,-479.5 1726.4,-476 1716.4,-472.5 1716.4,-479.5"/>
</g>
<!-- Node37 -->
<g id="node41" class="node">
<title>Node37</title>
<g id="a_node41"><a xlink:href="namespaceImGui.html#a8344798d82c6baf9d94f81e445609eb2" target="_top" xlink:title=" ">
<polygon fill="white" stroke="#666666" points="1660.5,-444.5 1534.5,-444.5 1534.5,-425.5 1660.5,-425.5 1660.5,-444.5"/>
<text text-anchor="middle" x="1597.5" y="-432.5" font-family="Helvetica,sans-Serif" font-size="10.00">ImGui::GetDefaultFont</text>
</a>
</g>
</g>
<!-- Node32&#45;&gt;Node37 -->
<g id="edge53" class="edge">
<title>Node32&#45;&gt;Node37</title>
<path fill="none" stroke="#63b8ff" d="M1733.73,-464.34C1704.83,-458.07 1669.66,-450.44 1642.42,-444.53"/>
<polygon fill="#63b8ff" stroke="#63b8ff" points="1733.15,-467.79 1743.66,-466.49 1734.63,-460.95 1733.15,-467.79"/>
</g>
<!-- Node39 -->
<g id="node43" class="node">
<title>Node39</title>
<g id="a_node43"><a xlink:href="imgui__draw_8cpp.html#a3f94172dde65426b52f7e137a899afb1" target="_top" xlink:title=" ">
<polygon fill="white" stroke="#666666" points="1679,-534.5 1516,-534.5 1516,-515.5 1679,-515.5 1679,-534.5"/>
<text text-anchor="middle" x="1597.5" y="-522.5" font-family="Helvetica,sans-Serif" font-size="10.00">ImFontAtlasUpdateNewFrame</text>
</a>
</g>
</g>
<!-- Node32&#45;&gt;Node39 -->
<g id="edge56" class="edge">
<title>Node32&#45;&gt;Node39</title>
<path fill="none" stroke="#63b8ff" d="M1740.86,-488.09C1708.31,-496.53 1665.45,-507.64 1635.3,-515.46"/>
<polygon fill="#63b8ff" stroke="#63b8ff" points="1741.81,-491.46 1750.61,-485.56 1740.05,-484.69 1741.81,-491.46"/>
</g>
<!-- Node34 -->
<g id="node38" class="node">
<title>Node34</title>
<g id="a_node38"><a xlink:href="imgui__draw_8cpp.html#a716f90bbbb825a71a7e17de856038d5c" target="_top" xlink:title=" ">
<polygon fill="white" stroke="#666666" points="1456.5,-485.5 1336.5,-485.5 1336.5,-466.5 1456.5,-466.5 1456.5,-485.5"/>
<text text-anchor="middle" x="1396.5" y="-473.5" font-family="Helvetica,sans-Serif" font-size="10.00">GetTexDataAsFormat</text>
</a>
</g>
</g>
<!-- Node33&#45;&gt;Node34 -->
<g id="edge50" class="edge">
<title>Node33&#45;&gt;Node34</title>
<path fill="none" stroke="#63b8ff" d="M1534.44,-476C1509.61,-476 1481.13,-476 1456.6,-476"/>
<polygon fill="#63b8ff" stroke="#63b8ff" points="1534.48,-479.5 1544.48,-476 1534.47,-472.5 1534.48,-479.5"/>
</g>
<!-- Node35 -->
<g id="node39" class="node">
<title>Node35</title>
<g id="a_node39"><a xlink:href="structImFontAtlas.html#aeff1a1044a1ab68d8f27bb2819cd9f44" target="_top" xlink:title=" ">
<polygon fill="white" stroke="#666666" points="1269,-474 1119,-474 1119,-444 1269,-444 1269,-474"/>
<text text-anchor="start" x="1127" y="-462" font-family="Helvetica,sans-Serif" font-size="10.00">ImFontAtlas::GetTexDataAs</text>
<text text-anchor="middle" x="1194" y="-451" font-family="Helvetica,sans-Serif" font-size="10.00">Alpha8</text>
</a>
</g>
</g>
<!-- Node34&#45;&gt;Node35 -->
<g id="edge51" class="edge">
<title>Node34&#45;&gt;Node35</title>
<path fill="none" stroke="#63b8ff" d="M1326.38,-470.14C1307.97,-468.58 1288,-466.89 1269.32,-465.3"/>
<polygon fill="#63b8ff" stroke="#63b8ff" points="1326.17,-473.63 1336.43,-470.99 1326.76,-466.66 1326.17,-473.63"/>
</g>
<!-- Node36 -->
<g id="node40" class="node">
<title>Node36</title>
<g id="a_node40"><a xlink:href="structImFontAtlas.html#a8abb0c4e67ebb38249d4df71218c4eec" target="_top" xlink:title=" ">
<polygon fill="white" stroke="#666666" points="1269,-522 1119,-522 1119,-492 1269,-492 1269,-522"/>
<text text-anchor="start" x="1127" y="-510" font-family="Helvetica,sans-Serif" font-size="10.00">ImFontAtlas::GetTexDataAs</text>
<text text-anchor="middle" x="1194" y="-499" font-family="Helvetica,sans-Serif" font-size="10.00">RGBA32</text>
</a>
</g>
</g>
<!-- Node34&#45;&gt;Node36 -->
<g id="edge52" class="edge">
<title>Node34&#45;&gt;Node36</title>
<path fill="none" stroke="#63b8ff" d="M1326.38,-486.69C1307.97,-489.53 1288,-492.62 1269.32,-495.51"/>
<polygon fill="#63b8ff" stroke="#63b8ff" points="1327.08,-490.12 1336.43,-485.13 1326.01,-483.2 1327.08,-490.12"/>
</g>
<!-- Node38 -->
<g id="node42" class="node">
<title>Node38</title>
<g id="a_node42"><a xlink:href="namespaceImGui.html#a90f16c53af3ba22af61a6e56dcbd7281" target="_top" xlink:title=" ">
<polygon fill="white" stroke="#666666" points="1277,-425.5 1111,-425.5 1111,-406.5 1277,-406.5 1277,-425.5"/>
<text text-anchor="middle" x="1194" y="-413.5" font-family="Helvetica,sans-Serif" font-size="10.00">ImGui::UpdateFontsNewFrame</text>
</a>
</g>
</g>
<!-- Node37&#45;&gt;Node38 -->
<g id="edge54" class="edge">
<title>Node37&#45;&gt;Node38</title>
<path fill="none" stroke="#63b8ff" d="M1523.8,-431.56C1454.33,-428.27 1349.77,-423.32 1277.29,-419.89"/>
<polygon fill="#63b8ff" stroke="#63b8ff" points="1524.05,-435.08 1534.21,-432.05 1524.38,-428.08 1524.05,-435.08"/>
</g>
<!-- Node38&#45;&gt;Node18 -->
<g id="edge55" class="edge">
<title>Node38&#45;&gt;Node18</title>
<path fill="none" stroke="#63b8ff" d="M1100.69,-416C1082.4,-416 1063.83,-416 1047.54,-416"/>
<polygon fill="#63b8ff" stroke="#63b8ff" points="1100.8,-419.5 1110.8,-416 1100.8,-412.5 1100.8,-419.5"/>
</g>
<!-- Node40 -->
<g id="node44" class="node">
<title>Node40</title>
<g id="a_node44"><a xlink:href="namespaceImGui.html#a50afb067961d5c407afdabc34905a47f" target="_top" xlink:title=" ">
<polygon fill="white" stroke="#666666" points="1471.5,-552 1321.5,-552 1321.5,-522 1471.5,-522 1471.5,-552"/>
<text text-anchor="start" x="1329.5" y="-540" font-family="Helvetica,sans-Serif" font-size="10.00">ImGui::UpdateTexturesNew</text>
<text text-anchor="middle" x="1396.5" y="-529" font-family="Helvetica,sans-Serif" font-size="10.00">Frame</text>
</a>
</g>
</g>
<!-- Node39&#45;&gt;Node40 -->
<g id="edge57" class="edge">
<title>Node39&#45;&gt;Node40</title>
<path fill="none" stroke="#63b8ff" d="M1505.82,-530.47C1494.34,-531.16 1482.7,-531.86 1471.53,-532.54"/>
<polygon fill="#63b8ff" stroke="#63b8ff" points="1506.07,-533.96 1515.85,-529.86 1505.65,-526.97 1506.07,-533.96"/>
</g>
<!-- Node40&#45;&gt;Node18 -->
<g id="edge58" class="edge">
<title>Node40&#45;&gt;Node18</title>
<path fill="none" stroke="#63b8ff" d="M1311.35,-551.29C1252.81,-557.46 1174.22,-558.05 1111,-531 1058.16,-508.39 1016.83,-448.79 1002.21,-425.51"/>
<polygon fill="#63b8ff" stroke="#63b8ff" points="1311.76,-554.76 1321.31,-550.17 1310.98,-547.81 1311.76,-554.76"/>
</g>
<!-- Node450 -->
<g id="node47" class="node">
<title>Node450</title>
<g id="a_node47"><a xlink:href="structImFontAtlas.html#a4b2f96a0b67dd06c69547e93ccd4652f" target="_top" xlink:title=" ">
<polygon fill="white" stroke="#666666" points="2470.5,-237.5 2312.5,-237.5 2312.5,-218.5 2470.5,-218.5 2470.5,-237.5"/>
<text text-anchor="middle" x="2391.5" y="-225.5" font-family="Helvetica,sans-Serif" font-size="10.00">ImFontAtlas::GetCustomRect</text>
</a>
</g>
</g>
<!-- Node449&#45;&gt;Node450 -->
<g id="edge63" class="edge">
<title>Node449&#45;&gt;Node450</title>
<path fill="none" stroke="#63b8ff" d="M2507.66,-228C2495.37,-228 2482.81,-228 2470.72,-228"/>
<polygon fill="#63b8ff" stroke="#63b8ff" points="2507.9,-231.5 2517.9,-228 2507.9,-224.5 2507.9,-231.5"/>
</g>
<!-- Node451 -->
<g id="node48" class="node">
<title>Node451</title>
<g id="a_node48"><a xlink:href="structImFontAtlas.html#a1fd42ec0b657ff4a1447290894c331de" target="_top" xlink:title=" ">
<polygon fill="white" stroke="#666666" points="2482,-200.5 2301,-200.5 2301,-181.5 2482,-181.5 2482,-200.5"/>
<text text-anchor="middle" x="2391.5" y="-188.5" font-family="Helvetica,sans-Serif" font-size="10.00">ImFontAtlas::RemoveCustomRect</text>
</a>
</g>
</g>
<!-- Node449&#45;&gt;Node451 -->
<g id="edge68" class="edge">
<title>Node449&#45;&gt;Node451</title>
<path fill="none" stroke="#63b8ff" d="M2533.41,-216.62C2505.12,-211.48 2472.06,-205.47 2445.08,-200.56"/>
<polygon fill="#63b8ff" stroke="#63b8ff" points="2533.13,-220.13 2543.59,-218.47 2534.38,-213.24 2533.13,-220.13"/>
</g>
<!-- Node450&#45;&gt;Node5 -->
<g id="edge67" class="edge">
<title>Node450&#45;&gt;Node5</title>
<path fill="none" stroke="#63b8ff" d="M2334.83,-216.27C2323.63,-213.88 2311.93,-211.38 2301,-209 2284.98,-205.52 2281.25,-203.17 2265,-201 1651.48,-119.08 899.1,-120.67 682.17,-123.09"/>
<polygon fill="#63b8ff" stroke="#63b8ff" points="2334.44,-219.76 2344.95,-218.42 2335.9,-212.92 2334.44,-219.76"/>
</g>
<!-- Node450&#45;&gt;Node12 -->
<g id="edge64" class="edge">
<title>Node450&#45;&gt;Node12</title>
<path fill="none" stroke="#63b8ff" d="M2302.02,-228C2289.79,-228 2277.29,-228 2265.25,-228"/>
<polygon fill="#63b8ff" stroke="#63b8ff" points="2302.21,-231.5 2312.21,-228 2302.21,-224.5 2302.21,-231.5"/>
</g>
<!-- Node450&#45;&gt;Node13 -->
<g id="edge65" class="edge">
<title>Node450&#45;&gt;Node13</title>
<path fill="none" stroke="#63b8ff" d="M2329.31,-216.85C2308.93,-213.64 2286.05,-210.58 2265,-209 2194.53,-203.7 2176.33,-202.09 2106,-209 2087.24,-210.84 2067.08,-214.25 2048.7,-217.94"/>
<polygon fill="#63b8ff" stroke="#63b8ff" points="2328.98,-220.34 2339.41,-218.49 2330.09,-213.43 2328.98,-220.34"/>
</g>
<!-- Node450&#45;&gt;Node442 -->
<g id="edge66" class="edge">
<title>Node450&#45;&gt;Node442</title>
<path fill="none" stroke="#63b8ff" d="M2315.5,-238.98C2298.88,-241.35 2281.35,-243.81 2265,-246 2197.51,-255.06 2120.76,-264.6 2064.71,-271.43"/>
<polygon fill="#63b8ff" stroke="#63b8ff" points="2316.31,-242.4 2325.72,-237.52 2315.32,-235.47 2316.31,-242.4"/>
</g>
<!-- Node453 -->
<g id="node50" class="node">
<title>Node453</title>
<g id="a_node50"><a xlink:href="imgui__draw_8cpp.html#af9bb9baf259d78887086d048324b8657" target="_top" xlink:title=" ">
<polygon fill="white" stroke="#666666" points="2882,-32 2712,-32 2712,-2 2882,-2 2882,-32"/>
<text text-anchor="start" x="2720" y="-20" font-family="Helvetica,sans-Serif" font-size="10.00">ImFontAtlasBakedSetFontGlyph</text>
<text text-anchor="middle" x="2797" y="-9" font-family="Helvetica,sans-Serif" font-size="10.00">Bitmap</text>
</a>
</g>
</g>
<!-- Node452&#45;&gt;Node453 -->
<g id="edge72" class="edge">
<title>Node452&#45;&gt;Node453</title>
<path fill="none" stroke="#63b8ff" d="M3073.4,-39.15C3013.96,-34.37 2938.8,-28.32 2882.02,-23.76"/>
<polygon fill="#63b8ff" stroke="#63b8ff" points="3073.3,-42.65 3083.55,-39.97 3073.86,-35.68 3073.3,-42.65"/>
</g>
<!-- Node453&#45;&gt;Node440 -->
<g id="edge73" class="edge">
<title>Node453&#45;&gt;Node440</title>
<path fill="none" stroke="#63b8ff" d="M2701.54,-10.77C2619.8,-5.92 2498.4,0 2392.5,0 2392.5,0 2392.5,0 1787.5,0 1516.42,0 1195.78,-47.66 1061.12,-69.86"/>
<polygon fill="#63b8ff" stroke="#63b8ff" points="2701.61,-14.28 2711.81,-11.39 2702.03,-7.29 2701.61,-14.28"/>
</g>
</g>
</svg>
