<?xml version="1.0" encoding="UTF-8" standalone="no"?>
<!DOCTYPE svg PUBLIC "-//W3C//DTD SVG 1.1//EN"
 "http://www.w3.org/Graphics/SVG/1.1/DTD/svg11.dtd">
<!-- Generated by graphviz version 2.43.0 (0)
 -->
<!-- Title: CalcScopeRect Pages: 1 -->
<svg width="1461pt" height="1008pt"
 viewBox="0.00 0.00 1461.00 1008.10" xmlns="http://www.w3.org/2000/svg" xmlns:xlink="http://www.w3.org/1999/xlink">
<g id="graph0" class="graph" transform="scale(1 1) rotate(0) translate(4 1004.1)">
<title>CalcScopeRect</title>
<!-- Node1 -->
<g id="node1" class="node">
<title>Node1</title>
<g id="a_node1"><a xlink:title=" ">
<polygon fill="#999999" stroke="#666666" points="1453,-954.5 1364,-954.5 1364,-935.5 1453,-935.5 1453,-954.5"/>
<text text-anchor="middle" x="1408.5" y="-942.5" font-family="Helvetica,sans-Serif" font-size="10.00">CalcScopeRect</text>
</a>
</g>
</g>
<!-- Node2 -->
<g id="node2" class="node">
<title>Node2</title>
<g id="a_node2"><a xlink:href="namespaceImGui.html#a1024700da3902b084e0f37d4abecc723" target="_top" xlink:title=" ">
<polygon fill="white" stroke="#666666" points="1328,-976.5 1194,-976.5 1194,-957.5 1328,-957.5 1328,-976.5"/>
<text text-anchor="middle" x="1261" y="-964.5" font-family="Helvetica,sans-Serif" font-size="10.00">ImGui::BeginMultiSelect</text>
</a>
</g>
</g>
<!-- Node1&#45;&gt;Node2 -->
<g id="edge1" class="edge">
<title>Node1&#45;&gt;Node2</title>
<path fill="none" stroke="#63b8ff" d="M1353.86,-953.11C1344.47,-954.53 1334.61,-956.02 1324.99,-957.48"/>
<polygon fill="#63b8ff" stroke="#63b8ff" points="1354.48,-956.56 1363.85,-951.6 1353.43,-949.64 1354.48,-956.56"/>
</g>
<!-- Node9 -->
<g id="node9" class="node">
<title>Node9</title>
<g id="a_node9"><a xlink:href="namespaceImGui.html#a19b11a3ea8f98b43089dc13ab015ad5b" target="_top" xlink:title=" ">
<polygon fill="white" stroke="#666666" points="1323.5,-936.5 1198.5,-936.5 1198.5,-917.5 1323.5,-917.5 1323.5,-936.5"/>
<text text-anchor="middle" x="1261" y="-924.5" font-family="Helvetica,sans-Serif" font-size="10.00">ImGui::EndMultiSelect</text>
</a>
</g>
</g>
<!-- Node1&#45;&gt;Node9 -->
<g id="edge10" class="edge">
<title>Node1&#45;&gt;Node9</title>
<path fill="none" stroke="#63b8ff" d="M1353.82,-938.36C1344,-937.14 1333.68,-935.87 1323.64,-934.63"/>
<polygon fill="#63b8ff" stroke="#63b8ff" points="1353.49,-941.85 1363.85,-939.6 1354.35,-934.9 1353.49,-941.85"/>
</g>
<!-- Node3 -->
<g id="node3" class="node">
<title>Node3</title>
<g id="a_node3"><a xlink:href="imgui__demo_8cpp.html#a401c106ef9206d8dd4b4bc3271a6de6f" target="_top" xlink:title=" ">
<polygon fill="white" stroke="#666666" points="976,-980 806,-980 806,-950 976,-950 976,-980"/>
<text text-anchor="start" x="814" y="-968" font-family="Helvetica,sans-Serif" font-size="10.00">DemoWindowWidgetsSelection</text>
<text text-anchor="middle" x="891" y="-957" font-family="Helvetica,sans-Serif" font-size="10.00">AndMultiSelect</text>
</a>
</g>
</g>
<!-- Node2&#45;&gt;Node3 -->
<g id="edge2" class="edge">
<title>Node2&#45;&gt;Node3</title>
<path fill="none" stroke="#63b8ff" d="M1222.04,-979.55C1203.05,-985.19 1179.56,-991.2 1158,-994 1093.65,-1002.37 1076.43,-1001.68 1012,-994 988.91,-991.25 963.83,-985.62 942.61,-980.05"/>
<polygon fill="#63b8ff" stroke="#63b8ff" points="1223.27,-982.84 1231.82,-976.57 1221.23,-976.14 1223.27,-982.84"/>
</g>
<!-- Node6 -->
<g id="node6" class="node">
<title>Node6</title>
<g id="a_node6"><a xlink:href="structExampleAssetsBrowser.html#a2b36e1f9b7d764e547611baa4c7fd8d1" target="_top" xlink:title=" ">
<polygon fill="white" stroke="#666666" points="747.5,-909 616.5,-909 616.5,-879 747.5,-879 747.5,-909"/>
<text text-anchor="start" x="624.5" y="-897" font-family="Helvetica,sans-Serif" font-size="10.00">ExampleAssetsBrowser</text>
<text text-anchor="middle" x="682" y="-886" font-family="Helvetica,sans-Serif" font-size="10.00">::Draw</text>
</a>
</g>
</g>
<!-- Node2&#45;&gt;Node6 -->
<g id="edge5" class="edge">
<title>Node2&#45;&gt;Node6</title>
<path fill="none" stroke="#63b8ff" d="M1207.79,-955.27C1191.86,-951.95 1174.26,-948.56 1158,-946 1012.13,-923.05 839.47,-906.88 747.79,-899.15"/>
<polygon fill="#63b8ff" stroke="#63b8ff" points="1207.47,-958.78 1217.98,-957.42 1208.92,-951.93 1207.47,-958.78"/>
</g>
<!-- Node8 -->
<g id="node8" class="node">
<title>Node8</title>
<g id="a_node8"><a xlink:href="structExampleDualListBox.html#a1413fd803c568a0d4b98a8f3c59af1be" target="_top" xlink:title=" ">
<polygon fill="white" stroke="#666666" points="1144,-985 1026,-985 1026,-955 1144,-955 1144,-985"/>
<text text-anchor="start" x="1034" y="-973" font-family="Helvetica,sans-Serif" font-size="10.00">ExampleDualListBox</text>
<text text-anchor="middle" x="1085" y="-962" font-family="Helvetica,sans-Serif" font-size="10.00">::Show</text>
</a>
</g>
</g>
<!-- Node2&#45;&gt;Node8 -->
<g id="edge8" class="edge">
<title>Node2&#45;&gt;Node8</title>
<path fill="none" stroke="#63b8ff" d="M1183.67,-968.32C1170.4,-968.54 1156.8,-968.78 1144.13,-969"/>
<polygon fill="#63b8ff" stroke="#63b8ff" points="1183.78,-971.81 1193.72,-968.14 1183.66,-964.82 1183.78,-971.81"/>
</g>
<!-- Node4 -->
<g id="node4" class="node">
<title>Node4</title>
<g id="a_node4"><a xlink:href="imgui__demo_8cpp.html#a9a639caab781642cbc4f4a23bfbd11cd" target="_top" xlink:title=" ">
<polygon fill="white" stroke="#666666" points="525,-887.5 400,-887.5 400,-868.5 525,-868.5 525,-887.5"/>
<text text-anchor="middle" x="462.5" y="-875.5" font-family="Helvetica,sans-Serif" font-size="10.00">DemoWindowWidgets</text>
</a>
</g>
</g>
<!-- Node3&#45;&gt;Node4 -->
<g id="edge3" class="edge">
<title>Node3&#45;&gt;Node4</title>
<path fill="none" stroke="#63b8ff" d="M795.86,-953.48C737.37,-945.48 660.85,-933.47 594,-918 557.75,-909.61 516.88,-896.47 490.69,-887.56"/>
<polygon fill="#63b8ff" stroke="#63b8ff" points="795.45,-956.95 805.83,-954.83 796.39,-950.02 795.45,-956.95"/>
</g>
<!-- Node5 -->
<g id="node5" class="node">
<title>Node5</title>
<g id="a_node5"><a xlink:href="namespaceImGui.html#af95643a0ce4893b9e57c12991922fb18" target="_top" xlink:title=" ">
<polygon fill="white" stroke="#666666" points="322,-529.5 176,-529.5 176,-510.5 322,-510.5 322,-529.5"/>
<text text-anchor="middle" x="249" y="-517.5" font-family="Helvetica,sans-Serif" font-size="10.00">ImGui::ShowDemoWindow</text>
</a>
</g>
</g>
<!-- Node4&#45;&gt;Node5 -->
<g id="edge4" class="edge">
<title>Node4&#45;&gt;Node5</title>
<path fill="none" stroke="#63b8ff" d="M390.11,-872.93C381.67,-869.97 373.7,-865.8 367,-860 260.83,-768.04 250.91,-575.09 250.06,-529.7"/>
<polygon fill="#63b8ff" stroke="#63b8ff" points="389.22,-876.32 399.8,-875.79 391.2,-869.6 389.22,-876.32"/>
</g>
<!-- Node7 -->
<g id="node7" class="node">
<title>Node7</title>
<g id="a_node7"><a xlink:href="imgui__demo_8cpp.html#a83fdfc359b5a0432835090acd227690f" target="_top" xlink:title=" ">
<polygon fill="white" stroke="#666666" points="550.5,-850.5 374.5,-850.5 374.5,-831.5 550.5,-831.5 550.5,-850.5"/>
<text text-anchor="middle" x="462.5" y="-838.5" font-family="Helvetica,sans-Serif" font-size="10.00">ShowExampleAppAssetsBrowser</text>
</a>
</g>
</g>
<!-- Node6&#45;&gt;Node7 -->
<g id="edge6" class="edge">
<title>Node6&#45;&gt;Node7</title>
<path fill="none" stroke="#63b8ff" d="M616.37,-876.19C608.83,-874.1 601.24,-872.01 594,-870 578,-865.57 574.15,-863.86 558,-860 544,-856.65 528.75,-853.41 514.65,-850.58"/>
<polygon fill="#63b8ff" stroke="#63b8ff" points="615.66,-879.62 626.23,-878.91 617.52,-872.87 615.66,-879.62"/>
</g>
<!-- Node7&#45;&gt;Node5 -->
<g id="edge7" class="edge">
<title>Node7&#45;&gt;Node5</title>
<path fill="none" stroke="#63b8ff" d="M382.15,-827.18C376.69,-824.37 371.56,-821.01 367,-817 274.47,-735.5 254.4,-571.31 250.73,-529.74"/>
<polygon fill="#63b8ff" stroke="#63b8ff" points="381.05,-830.53 391.61,-831.42 383.91,-824.14 381.05,-830.53"/>
</g>
<!-- Node8&#45;&gt;Node3 -->
<g id="edge9" class="edge">
<title>Node8&#45;&gt;Node3</title>
<path fill="none" stroke="#63b8ff" d="M1015.76,-968.22C1002.93,-967.89 989.38,-967.54 976.14,-967.19"/>
<polygon fill="#63b8ff" stroke="#63b8ff" points="1015.78,-971.72 1025.87,-968.49 1015.97,-964.73 1015.78,-971.72"/>
</g>
<!-- Node9&#45;&gt;Node3 -->
<g id="edge11" class="edge">
<title>Node9&#45;&gt;Node3</title>
<path fill="none" stroke="#63b8ff" d="M1188.47,-930.95C1138.85,-934.06 1071.28,-939.05 1012,-946 1000.37,-947.36 988.15,-949.03 976.13,-950.8"/>
<polygon fill="#63b8ff" stroke="#63b8ff" points="1188.7,-934.44 1198.46,-930.33 1188.27,-927.46 1188.7,-934.44"/>
</g>
<!-- Node9&#45;&gt;Node6 -->
<g id="edge12" class="edge">
<title>Node9&#45;&gt;Node6</title>
<path fill="none" stroke="#63b8ff" d="M1237.7,-911.7C1217.8,-899.05 1187.37,-882.05 1158,-875 1014.76,-840.59 840.34,-863.41 747.86,-880.37"/>
<polygon fill="#63b8ff" stroke="#63b8ff" points="1236.02,-914.79 1246.31,-917.33 1239.85,-908.93 1236.02,-914.79"/>
</g>
<!-- Node9&#45;&gt;Node8 -->
<g id="edge65" class="edge">
<title>Node9&#45;&gt;Node8</title>
<path fill="none" stroke="#63b8ff" d="M1211.44,-939C1190.52,-944.17 1165.89,-950.26 1144.02,-955.66"/>
<polygon fill="#63b8ff" stroke="#63b8ff" points="1212.52,-942.34 1221.38,-936.54 1210.84,-935.54 1212.52,-942.34"/>
</g>
<!-- Node10 -->
<g id="node10" class="node">
<title>Node10</title>
<g id="a_node10"><a xlink:href="namespaceImGui.html#a9e02d2905347634105ecc057a0824e1a" target="_top" xlink:title=" ">
<polygon fill="white" stroke="#666666" points="1158,-495 1012,-495 1012,-465 1158,-465 1158,-495"/>
<text text-anchor="start" x="1020" y="-483" font-family="Helvetica,sans-Serif" font-size="10.00">ImGui::ErrorRecoveryTryTo</text>
<text text-anchor="middle" x="1085" y="-472" font-family="Helvetica,sans-Serif" font-size="10.00">RecoverWindowState</text>
</a>
</g>
</g>
<!-- Node9&#45;&gt;Node10 -->
<g id="edge13" class="edge">
<title>Node9&#45;&gt;Node10</title>
<path fill="none" stroke="#63b8ff" d="M1252.47,-907.66C1223.29,-832.7 1118.02,-562.27 1091.9,-495.15"/>
<polygon fill="#63b8ff" stroke="#63b8ff" points="1249.31,-909.2 1256.2,-917.25 1255.84,-906.66 1249.31,-909.2"/>
</g>
<!-- Node11 -->
<g id="node11" class="node">
<title>Node11</title>
<g id="a_node11"><a xlink:href="namespaceImGui.html#a5479d93794a004c67ceb6d13f37c8254" target="_top" xlink:title=" ">
<polygon fill="white" stroke="#666666" points="926,-489.5 856,-489.5 856,-470.5 926,-470.5 926,-489.5"/>
<text text-anchor="middle" x="891" y="-477.5" font-family="Helvetica,sans-Serif" font-size="10.00">ImGui::End</text>
</a>
</g>
</g>
<!-- Node10&#45;&gt;Node11 -->
<g id="edge14" class="edge">
<title>Node10&#45;&gt;Node11</title>
<path fill="none" stroke="#63b8ff" d="M1001.87,-480C975.33,-480 947.33,-480 926.25,-480"/>
<polygon fill="#63b8ff" stroke="#63b8ff" points="1001.96,-483.5 1011.96,-480 1001.96,-476.5 1001.96,-483.5"/>
</g>
<!-- Node35 -->
<g id="node35" class="node">
<title>Node35</title>
<g id="a_node35"><a xlink:href="namespaceImGui.html#af173cf3b924ce08bf5ba4b6a49c04cf1" target="_top" xlink:title=" ">
<polygon fill="white" stroke="#666666" points="964,-234 818,-234 818,-204 964,-204 964,-234"/>
<text text-anchor="start" x="826" y="-222" font-family="Helvetica,sans-Serif" font-size="10.00">ImGui::ErrorRecoveryTryTo</text>
<text text-anchor="middle" x="891" y="-211" font-family="Helvetica,sans-Serif" font-size="10.00">RecoverState</text>
</a>
</g>
</g>
<!-- Node10&#45;&gt;Node35 -->
<g id="edge60" class="edge">
<title>Node10&#45;&gt;Node35</title>
<path fill="none" stroke="#63b8ff" d="M1066.69,-456.47C1027.99,-403.86 935.3,-277.86 903.18,-234.2"/>
<polygon fill="#63b8ff" stroke="#63b8ff" points="1064.1,-458.86 1072.85,-464.84 1069.74,-454.71 1064.1,-458.86"/>
</g>
<!-- Node11&#45;&gt;Node5 -->
<g id="edge35" class="edge">
<title>Node11&#45;&gt;Node5</title>
<path fill="none" stroke="#63b8ff" d="M889.11,-499.78C885.42,-555.39 866.52,-713.32 770,-780 696.32,-830.91 442.07,-832.84 367,-784 273.71,-723.3 254.23,-569.35 250.71,-529.52"/>
<polygon fill="#63b8ff" stroke="#63b8ff" points="892.62,-499.72 889.69,-489.54 885.63,-499.33 892.62,-499.72"/>
</g>
<!-- Node11&#45;&gt;Node6 -->
<g id="edge24" class="edge">
<title>Node11&#45;&gt;Node6</title>
<path fill="none" stroke="#63b8ff" d="M890.15,-499.79C889.51,-563.38 878.6,-764.53 770,-870 763.71,-876.11 756,-880.7 747.81,-884.14"/>
<polygon fill="#63b8ff" stroke="#63b8ff" points="893.65,-499.57 890.17,-489.57 886.65,-499.56 893.65,-499.57"/>
</g>
<!-- Node12 -->
<g id="node12" class="node">
<title>Node12</title>
<g id="a_node12"><a xlink:href="namespaceIMGUIZMO__NAMESPACE.html#a7e79232f8e04ed9a9da0bda4ed3ca1c5" target="_top" xlink:title=" ">
<polygon fill="white" stroke="#666666" points="749.5,-154 614.5,-154 614.5,-124 749.5,-124 749.5,-154"/>
<text text-anchor="start" x="622.5" y="-142" font-family="Helvetica,sans-Serif" font-size="10.00">IMGUIZMO_NAMESPACE</text>
<text text-anchor="middle" x="682" y="-131" font-family="Helvetica,sans-Serif" font-size="10.00">::BeginFrame</text>
</a>
</g>
</g>
<!-- Node11&#45;&gt;Node12 -->
<g id="edge15" class="edge">
<title>Node11&#45;&gt;Node12</title>
<path fill="none" stroke="#63b8ff" d="M883.2,-460.78C860.94,-398.18 790.48,-202.93 770,-181 759.12,-169.36 744.34,-160.57 730.04,-154.13"/>
<polygon fill="#63b8ff" stroke="#63b8ff" points="879.92,-462 886.56,-470.25 886.52,-459.66 879.92,-462"/>
</g>
<!-- Node13 -->
<g id="node13" class="node">
<title>Node13</title>
<g id="a_node13"><a xlink:href="imgui__demo_8cpp.html#acdabfa47af2ef5ba0a22b98a4368cc7d" target="_top" xlink:title=" ">
<polygon fill="white" stroke="#666666" points="521.5,-774.5 403.5,-774.5 403.5,-755.5 521.5,-755.5 521.5,-774.5"/>
<text text-anchor="middle" x="462.5" y="-762.5" font-family="Helvetica,sans-Serif" font-size="10.00">DemoWindowLayout</text>
</a>
</g>
</g>
<!-- Node11&#45;&gt;Node13 -->
<g id="edge17" class="edge">
<title>Node11&#45;&gt;Node13</title>
<path fill="none" stroke="#63b8ff" d="M887.88,-499.74C881.23,-550.69 855.84,-686.71 770,-746 689.17,-801.83 565.92,-787.14 503.19,-774.52"/>
<polygon fill="#63b8ff" stroke="#63b8ff" points="891.36,-500.06 889.08,-489.72 884.41,-499.23 891.36,-500.06"/>
</g>
<!-- Node14 -->
<g id="node14" class="node">
<title>Node14</title>
<g id="a_node14"><a xlink:href="imgui__demo_8cpp.html#a5de91117986b51cfb587630d6ff46205" target="_top" xlink:title=" ">
<polygon fill="white" stroke="#666666" points="766.5,-861 597.5,-861 597.5,-831 766.5,-831 766.5,-861"/>
<text text-anchor="start" x="605.5" y="-849" font-family="Helvetica,sans-Serif" font-size="10.00">DemoWindowWidgetsQuerying</text>
<text text-anchor="middle" x="682" y="-838" font-family="Helvetica,sans-Serif" font-size="10.00">Statuses</text>
</a>
</g>
</g>
<!-- Node11&#45;&gt;Node14 -->
<g id="edge19" class="edge">
<title>Node11&#45;&gt;Node14</title>
<path fill="none" stroke="#63b8ff" d="M888.79,-499.87C884.23,-557.38 863.17,-725.71 770,-817 764.2,-822.68 757.26,-827.25 749.86,-830.93"/>
<polygon fill="#63b8ff" stroke="#63b8ff" points="892.3,-499.84 889.52,-489.62 885.32,-499.35 892.3,-499.84"/>
</g>
<!-- Node15 -->
<g id="node15" class="node">
<title>Node15</title>
<g id="a_node15"><a xlink:href="structExampleAppConsole.html#a0518a09c7e8648dd52c7c06df19ac17a" target="_top" xlink:title=" ">
<polygon fill="white" stroke="#666666" points="756.5,-736.5 607.5,-736.5 607.5,-717.5 756.5,-717.5 756.5,-736.5"/>
<text text-anchor="middle" x="682" y="-724.5" font-family="Helvetica,sans-Serif" font-size="10.00">ExampleAppConsole::Draw</text>
</a>
</g>
</g>
<!-- Node11&#45;&gt;Node15 -->
<g id="edge21" class="edge">
<title>Node11&#45;&gt;Node15</title>
<path fill="none" stroke="#63b8ff" d="M885.09,-499.72C873.19,-543.3 838.62,-648.28 770,-703 762.04,-709.35 752.51,-714.02 742.72,-717.46"/>
<polygon fill="#63b8ff" stroke="#63b8ff" points="888.54,-500.37 887.69,-489.81 881.76,-498.59 888.54,-500.37"/>
</g>
<!-- Node17 -->
<g id="node17" class="node">
<title>Node17</title>
<g id="a_node17"><a xlink:href="structExampleAppLog.html#a5ad3a4bdb89171b84aeaff96948a1f77" target="_top" xlink:title=" ">
<polygon fill="white" stroke="#666666" points="745.5,-660.5 618.5,-660.5 618.5,-641.5 745.5,-641.5 745.5,-660.5"/>
<text text-anchor="middle" x="682" y="-648.5" font-family="Helvetica,sans-Serif" font-size="10.00">ExampleAppLog::Draw</text>
</a>
</g>
</g>
<!-- Node11&#45;&gt;Node17 -->
<g id="edge25" class="edge">
<title>Node11&#45;&gt;Node17</title>
<path fill="none" stroke="#63b8ff" d="M879.99,-498.6C862.15,-529.96 821.8,-593.23 770,-627 760.29,-633.33 748.92,-638.01 737.67,-641.46"/>
<polygon fill="#63b8ff" stroke="#63b8ff" points="883.18,-500.06 884.98,-489.62 877.07,-496.66 883.18,-500.06"/>
</g>
<!-- Node18 -->
<g id="node18" class="node">
<title>Node18</title>
<g id="a_node18"><a xlink:href="imgui__demo_8cpp.html#ad0303cf1f675002eb4e68c17a47b3f88" target="_top" xlink:title=" ">
<polygon fill="white" stroke="#666666" points="523.5,-668.5 401.5,-668.5 401.5,-649.5 523.5,-649.5 523.5,-668.5"/>
<text text-anchor="middle" x="462.5" y="-656.5" font-family="Helvetica,sans-Serif" font-size="10.00">ShowExampleAppLog</text>
</a>
</g>
</g>
<!-- Node11&#45;&gt;Node18 -->
<g id="edge50" class="edge">
<title>Node11&#45;&gt;Node18</title>
<path fill="none" stroke="#63b8ff" d="M884.53,-499.75C872.07,-540.44 837.29,-632.91 770,-670 678.13,-720.63 546.15,-686.82 490.2,-668.55"/>
<polygon fill="#63b8ff" stroke="#63b8ff" points="887.95,-500.52 887.4,-489.94 881.23,-498.56 887.95,-500.52"/>
</g>
<!-- Node19 -->
<g id="node19" class="node">
<title>Node19</title>
<g id="a_node19"><a xlink:href="classmtgb_1_1ImGuiRenderer.html#a725b57c53e525ab8e63e305f7898bae4" target="_top" xlink:title=" ">
<polygon fill="white" stroke="#666666" points="755,-67.5 609,-67.5 609,-48.5 755,-48.5 755,-67.5"/>
<text text-anchor="middle" x="682" y="-55.5" font-family="Helvetica,sans-Serif" font-size="10.00">mtgb::ImGuiRenderer::End</text>
</a>
</g>
</g>
<!-- Node11&#45;&gt;Node19 -->
<g id="edge28" class="edge">
<title>Node11&#45;&gt;Node19</title>
<path fill="none" stroke="#63b8ff" d="M882.33,-460.87C866.5,-420.9 829.72,-325.41 806,-243 785.72,-172.54 820.56,-135.11 770,-82 764.06,-75.76 756.65,-71.09 748.69,-67.61"/>
<polygon fill="#63b8ff" stroke="#63b8ff" points="879.1,-462.21 886.05,-470.2 885.6,-459.62 879.1,-462.21"/>
</g>
<!-- Node20 -->
<g id="node20" class="node">
<title>Node20</title>
<g id="a_node20"><a xlink:href="classmtgb_1_1MTImGui.html#a0ebe89de7aaa854c37e842ed796efb99" target="_top" xlink:title=" ">
<polygon fill="white" stroke="#666666" points="533.5,-105.5 391.5,-105.5 391.5,-86.5 533.5,-86.5 533.5,-105.5"/>
<text text-anchor="middle" x="462.5" y="-93.5" font-family="Helvetica,sans-Serif" font-size="10.00">mtgb::MTImGui::ShowLog</text>
</a>
</g>
</g>
<!-- Node11&#45;&gt;Node20 -->
<g id="edge59" class="edge">
<title>Node11&#45;&gt;Node20</title>
<path fill="none" stroke="#63b8ff" d="M882.69,-460.76C867.54,-420.59 831.95,-324.74 806,-243 788.12,-186.67 815.98,-152.13 770,-115 735,-86.74 612.96,-87.48 533.84,-91.27"/>
<polygon fill="#63b8ff" stroke="#63b8ff" points="879.43,-462.03 886.24,-470.15 885.98,-459.55 879.43,-462.03"/>
</g>
<!-- Node23 -->
<g id="node23" class="node">
<title>Node23</title>
<g id="a_node23"><a xlink:href="namespaceImGui.html#ac297462e33309d0540fa459bccdc9304" target="_top" xlink:title=" ">
<polygon fill="white" stroke="#666666" points="535.5,-631.5 389.5,-631.5 389.5,-612.5 535.5,-612.5 535.5,-631.5"/>
<text text-anchor="middle" x="462.5" y="-619.5" font-family="Helvetica,sans-Serif" font-size="10.00">ImGui::ShowAboutWindow</text>
</a>
</g>
</g>
<!-- Node11&#45;&gt;Node23 -->
<g id="edge33" class="edge">
<title>Node11&#45;&gt;Node23</title>
<path fill="none" stroke="#63b8ff" d="M871.21,-496.19C848.68,-514.72 809.05,-544.63 770,-561 693.57,-593.04 599.22,-608.56 535.56,-615.87"/>
<polygon fill="#63b8ff" stroke="#63b8ff" points="873.54,-498.8 878.97,-489.69 869.05,-493.43 873.54,-498.8"/>
</g>
<!-- Node24 -->
<g id="node24" class="node">
<title>Node24</title>
<g id="a_node24"><a xlink:href="imgui__demo_8cpp.html#a38c9b50749061ff83a0ebf3137c00174" target="_top" xlink:title=" ">
<polygon fill="white" stroke="#666666" points="542,-594.5 383,-594.5 383,-575.5 542,-575.5 542,-594.5"/>
<text text-anchor="middle" x="462.5" y="-582.5" font-family="Helvetica,sans-Serif" font-size="10.00">ShowExampleAppAutoResize</text>
</a>
</g>
</g>
<!-- Node11&#45;&gt;Node24 -->
<g id="edge36" class="edge">
<title>Node11&#45;&gt;Node24</title>
<path fill="none" stroke="#63b8ff" d="M860.85,-493.89C836.92,-504.81 801.89,-519.68 770,-529 693.15,-551.45 602.72,-566.66 540.09,-575.49"/>
<polygon fill="#63b8ff" stroke="#63b8ff" points="862.46,-497 870.07,-489.63 859.53,-490.65 862.46,-497"/>
</g>
<!-- Node25 -->
<g id="node25" class="node">
<title>Node25</title>
<g id="a_node25"><a xlink:href="imgui__demo_8cpp.html#a4f7b0b016c2ffd33836c3bdcf78ed97b" target="_top" xlink:title=" ">
<polygon fill="white" stroke="#666666" points="544,-557 381,-557 381,-527 544,-527 544,-557"/>
<text text-anchor="start" x="389" y="-545" font-family="Helvetica,sans-Serif" font-size="10.00">ShowExampleAppConstrained</text>
<text text-anchor="middle" x="462.5" y="-534" font-family="Helvetica,sans-Serif" font-size="10.00">Resize</text>
</a>
</g>
</g>
<!-- Node11&#45;&gt;Node25 -->
<g id="edge38" class="edge">
<title>Node11&#45;&gt;Node25</title>
<path fill="none" stroke="#63b8ff" d="M845.97,-489.13C823.33,-493.64 795.25,-498.98 770,-503 693.59,-515.17 605.97,-526.01 544.04,-533.15"/>
<polygon fill="#63b8ff" stroke="#63b8ff" points="846.85,-492.52 855.96,-487.11 845.47,-485.66 846.85,-492.52"/>
</g>
<!-- Node26 -->
<g id="node26" class="node">
<title>Node26</title>
<g id="a_node26"><a xlink:href="imgui__demo_8cpp.html#a0729207a285af6ef57ce5a31d1a60348" target="_top" xlink:title=" ">
<polygon fill="white" stroke="#666666" points="558,-508.5 367,-508.5 367,-489.5 558,-489.5 558,-508.5"/>
<text text-anchor="middle" x="462.5" y="-496.5" font-family="Helvetica,sans-Serif" font-size="10.00">ShowExampleAppCustomRendering</text>
</a>
</g>
</g>
<!-- Node11&#45;&gt;Node26 -->
<g id="edge40" class="edge">
<title>Node11&#45;&gt;Node26</title>
<path fill="none" stroke="#63b8ff" d="M845.52,-481.98C777.93,-484.99 647.76,-490.79 558.31,-494.78"/>
<polygon fill="#63b8ff" stroke="#63b8ff" points="845.98,-485.46 855.82,-481.52 845.67,-478.47 845.98,-485.46"/>
</g>
<!-- Node27 -->
<g id="node27" class="node">
<title>Node27</title>
<g id="a_node27"><a xlink:href="imgui__demo_8cpp.html#ae18f1dc3d5298b314080b35f6c20d781" target="_top" xlink:title=" ">
<polygon fill="white" stroke="#666666" points="541.5,-471.5 383.5,-471.5 383.5,-452.5 541.5,-452.5 541.5,-471.5"/>
<text text-anchor="middle" x="462.5" y="-459.5" font-family="Helvetica,sans-Serif" font-size="10.00">ShowExampleAppDockSpace</text>
</a>
</g>
</g>
<!-- Node11&#45;&gt;Node27 -->
<g id="edge42" class="edge">
<title>Node11&#45;&gt;Node27</title>
<path fill="none" stroke="#63b8ff" d="M845.75,-478.13C773.93,-475.1 631.04,-469.07 541.76,-465.3"/>
<polygon fill="#63b8ff" stroke="#63b8ff" points="845.68,-481.63 855.82,-478.56 845.98,-474.64 845.68,-481.63"/>
</g>
<!-- Node28 -->
<g id="node28" class="node">
<title>Node28</title>
<g id="a_node28"><a xlink:href="imgui__demo_8cpp.html#aa9e4f5130b74080ea2d97916a91b3b3c" target="_top" xlink:title=" ">
<polygon fill="white" stroke="#666666" points="542.5,-434.5 382.5,-434.5 382.5,-415.5 542.5,-415.5 542.5,-434.5"/>
<text text-anchor="middle" x="462.5" y="-422.5" font-family="Helvetica,sans-Serif" font-size="10.00">ShowExampleAppDocuments</text>
</a>
</g>
</g>
<!-- Node11&#45;&gt;Node28 -->
<g id="edge44" class="edge">
<title>Node11&#45;&gt;Node28</title>
<path fill="none" stroke="#63b8ff" d="M845.88,-473.56C823.21,-470.3 795.14,-466.34 770,-463 692.8,-452.75 604.53,-441.9 542.61,-434.43"/>
<polygon fill="#63b8ff" stroke="#63b8ff" points="845.49,-477.04 855.88,-475.01 846.49,-470.11 845.49,-477.04"/>
</g>
<!-- Node29 -->
<g id="node29" class="node">
<title>Node29</title>
<g id="a_node29"><a xlink:href="imgui__demo_8cpp.html#a2f38052447680c83c0028e4f21f0a2e6" target="_top" xlink:title=" ">
<polygon fill="white" stroke="#666666" points="759,-394.5 605,-394.5 605,-375.5 759,-375.5 759,-394.5"/>
<text text-anchor="middle" x="682" y="-382.5" font-family="Helvetica,sans-Serif" font-size="10.00">ShowExampleAppFullscreen</text>
</a>
</g>
</g>
<!-- Node11&#45;&gt;Node29 -->
<g id="edge46" class="edge">
<title>Node11&#45;&gt;Node29</title>
<path fill="none" stroke="#63b8ff" d="M868.13,-464.64C844.77,-448.82 806.19,-424.37 770,-409 756.16,-403.12 740.46,-398.27 726.25,-394.51"/>
<polygon fill="#63b8ff" stroke="#63b8ff" points="866.36,-467.67 876.59,-470.44 870.32,-461.9 866.36,-467.67"/>
</g>
<!-- Node30 -->
<g id="node30" class="node">
<title>Node30</title>
<g id="a_node30"><a xlink:href="imgui__demo_8cpp.html#adfe8516f13b623adbf78b024efd5bb6e" target="_top" xlink:title=" ">
<polygon fill="white" stroke="#666666" points="750.5,-357.5 613.5,-357.5 613.5,-338.5 750.5,-338.5 750.5,-357.5"/>
<text text-anchor="middle" x="682" y="-345.5" font-family="Helvetica,sans-Serif" font-size="10.00">ShowExampleAppLayout</text>
</a>
</g>
</g>
<!-- Node11&#45;&gt;Node30 -->
<g id="edge48" class="edge">
<title>Node11&#45;&gt;Node30</title>
<path fill="none" stroke="#63b8ff" d="M876.53,-462.3C856.29,-437.03 815.51,-391 770,-367 762.62,-363.11 754.47,-360.01 746.23,-357.55"/>
<polygon fill="#63b8ff" stroke="#63b8ff" points="873.88,-464.6 882.81,-470.31 879.39,-460.28 873.88,-464.6"/>
</g>
<!-- Node31 -->
<g id="node31" class="node">
<title>Node31</title>
<g id="a_node31"><a xlink:href="imgui__demo_8cpp.html#a4dadf5e7b393795666d19af9694037cf" target="_top" xlink:title=" ">
<polygon fill="white" stroke="#666666" points="756,-320.5 608,-320.5 608,-301.5 756,-301.5 756,-320.5"/>
<text text-anchor="middle" x="682" y="-308.5" font-family="Helvetica,sans-Serif" font-size="10.00">ShowExampleAppLongText</text>
</a>
</g>
</g>
<!-- Node11&#45;&gt;Node31 -->
<g id="edge51" class="edge">
<title>Node11&#45;&gt;Node31</title>
<path fill="none" stroke="#63b8ff" d="M880.54,-461.18C863.27,-428.87 823.44,-363.17 770,-330 763.83,-326.17 756.99,-323.1 749.93,-320.65"/>
<polygon fill="#63b8ff" stroke="#63b8ff" points="877.62,-463.15 885.34,-470.41 883.83,-459.92 877.62,-463.15"/>
</g>
<!-- Node32 -->
<g id="node32" class="node">
<title>Node32</title>
<g id="a_node32"><a xlink:href="imgui__demo_8cpp.html#a746628697dff9d8d5e352436c96633c9" target="_top" xlink:title=" ">
<polygon fill="white" stroke="#666666" points="769,-283.5 595,-283.5 595,-264.5 769,-264.5 769,-283.5"/>
<text text-anchor="middle" x="682" y="-271.5" font-family="Helvetica,sans-Serif" font-size="10.00">ShowExampleAppPropertyEditor</text>
</a>
</g>
</g>
<!-- Node11&#45;&gt;Node32 -->
<g id="edge53" class="edge">
<title>Node11&#45;&gt;Node32</title>
<path fill="none" stroke="#63b8ff" d="M883.46,-460.88C869.29,-422.5 831.95,-336.08 770,-293 764.42,-289.12 758.18,-286.01 751.68,-283.52"/>
<polygon fill="#63b8ff" stroke="#63b8ff" points="880.18,-462.12 886.84,-470.36 886.78,-459.76 880.18,-462.12"/>
</g>
<!-- Node33 -->
<g id="node33" class="node">
<title>Node33</title>
<g id="a_node33"><a xlink:href="imgui__demo_8cpp.html#a41a6cb36f6ad91f80eba61b0053d17a5" target="_top" xlink:title=" ">
<polygon fill="white" stroke="#666666" points="770,-246.5 594,-246.5 594,-227.5 770,-227.5 770,-246.5"/>
<text text-anchor="middle" x="682" y="-234.5" font-family="Helvetica,sans-Serif" font-size="10.00">ShowExampleAppSimpleOverlay</text>
</a>
</g>
</g>
<!-- Node11&#45;&gt;Node33 -->
<g id="edge55" class="edge">
<title>Node11&#45;&gt;Node33</title>
<path fill="none" stroke="#63b8ff" d="M885.48,-460.53C874.23,-416.57 840.59,-309.33 770,-256 764.94,-252.18 759.27,-249.09 753.32,-246.61"/>
<polygon fill="#63b8ff" stroke="#63b8ff" points="882.15,-461.61 887.93,-470.49 888.95,-459.95 882.15,-461.61"/>
</g>
<!-- Node34 -->
<g id="node34" class="node">
<title>Node34</title>
<g id="a_node34"><a xlink:href="imgui__demo_8cpp.html#aa93cc0d732db176bbffaf106faaa0ca1" target="_top" xlink:title=" ">
<polygon fill="white" stroke="#666666" points="767,-209.5 597,-209.5 597,-190.5 767,-190.5 767,-209.5"/>
<text text-anchor="middle" x="682" y="-197.5" font-family="Helvetica,sans-Serif" font-size="10.00">ShowExampleAppWindowTitles</text>
</a>
</g>
</g>
<!-- Node11&#45;&gt;Node34 -->
<g id="edge57" class="edge">
<title>Node11&#45;&gt;Node34</title>
<path fill="none" stroke="#63b8ff" d="M887.04,-460.37C878.57,-411.35 849.49,-282.95 770,-219 765.3,-215.22 760.02,-212.15 754.43,-209.67"/>
<polygon fill="#63b8ff" stroke="#63b8ff" points="883.6,-461 888.66,-470.31 890.51,-459.88 883.6,-461"/>
</g>
<!-- Node12&#45;&gt;Node12 -->
<g id="edge16" class="edge">
<title>Node12&#45;&gt;Node12</title>
<path fill="none" stroke="#63b8ff" d="M718.41,-164.6C713.43,-168.97 701.3,-172 682,-172 649.5,-172 637.31,-163.41 645.44,-154.28"/>
<polygon fill="#63b8ff" stroke="#63b8ff" points="721.91,-164.33 718.56,-154.28 714.91,-164.22 721.91,-164.33"/>
</g>
<!-- Node13&#45;&gt;Node5 -->
<g id="edge18" class="edge">
<title>Node13&#45;&gt;Node5</title>
<path fill="none" stroke="#63b8ff" d="M405.01,-752.08C391.52,-747.1 377.9,-740.27 367,-731 298.09,-672.37 262.17,-562.47 252.63,-529.55"/>
<polygon fill="#63b8ff" stroke="#63b8ff" points="404.16,-755.49 414.76,-755.4 406.42,-748.87 404.16,-755.49"/>
</g>
<!-- Node14&#45;&gt;Node4 -->
<g id="edge20" class="edge">
<title>Node14&#45;&gt;Node4</title>
<path fill="none" stroke="#63b8ff" d="M587.32,-859.78C566.34,-862.87 544.59,-866.07 525.29,-868.91"/>
<polygon fill="#63b8ff" stroke="#63b8ff" points="587.84,-863.24 597.22,-858.33 586.82,-856.32 587.84,-863.24"/>
</g>
<!-- Node16 -->
<g id="node16" class="node">
<title>Node16</title>
<g id="a_node16"><a xlink:href="imgui__demo_8cpp.html#a8e5624314ae6402dd0ddf2a62aa91473" target="_top" xlink:title=" ">
<polygon fill="white" stroke="#666666" points="534,-721.5 391,-721.5 391,-702.5 534,-702.5 534,-721.5"/>
<text text-anchor="middle" x="462.5" y="-709.5" font-family="Helvetica,sans-Serif" font-size="10.00">ShowExampleAppConsole</text>
</a>
</g>
</g>
<!-- Node15&#45;&gt;Node16 -->
<g id="edge22" class="edge">
<title>Node15&#45;&gt;Node16</title>
<path fill="none" stroke="#63b8ff" d="M597.25,-721.22C576.4,-719.79 554.26,-718.26 534.12,-716.87"/>
<polygon fill="#63b8ff" stroke="#63b8ff" points="597.15,-724.73 607.36,-721.92 597.63,-717.74 597.15,-724.73"/>
</g>
<!-- Node16&#45;&gt;Node5 -->
<g id="edge23" class="edge">
<title>Node16&#45;&gt;Node5</title>
<path fill="none" stroke="#63b8ff" d="M409.01,-699.22C394.52,-694.12 379.39,-687.21 367,-678 309.75,-635.43 268,-557.06 254.59,-529.72"/>
<polygon fill="#63b8ff" stroke="#63b8ff" points="408.3,-702.67 418.89,-702.46 410.48,-696.02 408.3,-702.67"/>
</g>
<!-- Node17&#45;&gt;Node18 -->
<g id="edge26" class="edge">
<title>Node17&#45;&gt;Node18</title>
<path fill="none" stroke="#63b8ff" d="M608.07,-653.68C580.7,-654.69 549.91,-655.82 523.81,-656.78"/>
<polygon fill="#63b8ff" stroke="#63b8ff" points="608.52,-657.17 618.38,-653.3 608.26,-650.17 608.52,-657.17"/>
</g>
<!-- Node18&#45;&gt;Node5 -->
<g id="edge27" class="edge">
<title>Node18&#45;&gt;Node5</title>
<path fill="none" stroke="#63b8ff" d="M391.19,-650.65C382.76,-648.2 374.5,-645.05 367,-641 314.81,-612.81 271.82,-553.24 256.26,-529.79"/>
<polygon fill="#63b8ff" stroke="#63b8ff" points="390.56,-654.1 401.12,-653.21 392.31,-647.33 390.56,-654.1"/>
</g>
<!-- Node19&#45;&gt;Node20 -->
<g id="edge29" class="edge">
<title>Node19&#45;&gt;Node20</title>
<path fill="none" stroke="#63b8ff" d="M616.46,-69.28C585.17,-74.74 547.99,-81.24 518.13,-86.46"/>
<polygon fill="#63b8ff" stroke="#63b8ff" points="617.15,-72.71 626.4,-67.54 615.94,-65.81 617.15,-72.71"/>
</g>
<!-- Node22 -->
<g id="node22" class="node">
<title>Node22</title>
<g id="a_node22"><a xlink:href="classmtgb_1_1MTImGui.html#aba6310f01ca3716db9817ef459b605f6" target="_top" xlink:title="ImGuiウィンドウの表示、キュー内の表示関数の一括実行、ImGuiウィンドウのEnd()までを行う">
<polygon fill="white" stroke="#666666" points="331,-67.5 167,-67.5 167,-48.5 331,-48.5 331,-67.5"/>
<text text-anchor="middle" x="249" y="-55.5" font-family="Helvetica,sans-Serif" font-size="10.00">mtgb::MTImGui::ShowWindow</text>
</a>
</g>
</g>
<!-- Node19&#45;&gt;Node22 -->
<g id="edge31" class="edge">
<title>Node19&#45;&gt;Node22</title>
<path fill="none" stroke="#63b8ff" d="M598.74,-58C521.85,-58 407.73,-58 331.19,-58"/>
<polygon fill="#63b8ff" stroke="#63b8ff" points="598.86,-61.5 608.86,-58 598.86,-54.5 598.86,-61.5"/>
</g>
<!-- Node21 -->
<g id="node21" class="node">
<title>Node21</title>
<g id="a_node21"><a xlink:href="classmtgb_1_1RenderSystem.html#a14e39d4590efdf77c2085b12c6f3cdf5" target="_top" xlink:title=" ">
<polygon fill="white" stroke="#666666" points="131,-73 0,-73 0,-43 131,-43 131,-73"/>
<text text-anchor="start" x="8" y="-61" font-family="Helvetica,sans-Serif" font-size="10.00">mtgb::RenderSystem</text>
<text text-anchor="middle" x="65.5" y="-50" font-family="Helvetica,sans-Serif" font-size="10.00">::RenderImGuiWindows</text>
</a>
</g>
</g>
<!-- Node20&#45;&gt;Node21 -->
<g id="edge30" class="edge">
<title>Node20&#45;&gt;Node21</title>
<path fill="none" stroke="#63b8ff" d="M381.32,-92.93C321.97,-90.08 239.24,-84.9 167,-76 155.39,-74.57 143.08,-72.68 131.22,-70.67"/>
<polygon fill="#63b8ff" stroke="#63b8ff" points="381.23,-96.43 391.38,-93.4 381.55,-89.43 381.23,-96.43"/>
</g>
<!-- Node22&#45;&gt;Node21 -->
<g id="edge32" class="edge">
<title>Node22&#45;&gt;Node21</title>
<path fill="none" stroke="#63b8ff" d="M156.66,-58C148,-58 139.35,-58 131.02,-58"/>
<polygon fill="#63b8ff" stroke="#63b8ff" points="156.81,-61.5 166.81,-58 156.81,-54.5 156.81,-61.5"/>
</g>
<!-- Node23&#45;&gt;Node5 -->
<g id="edge34" class="edge">
<title>Node23&#45;&gt;Node5</title>
<path fill="none" stroke="#63b8ff" d="M382.59,-609.69C377.23,-608.03 371.99,-606.14 367,-604 322.88,-585.06 279.13,-547.28 260.01,-529.57"/>
<polygon fill="#63b8ff" stroke="#63b8ff" points="381.74,-613.09 392.32,-612.45 383.65,-606.36 381.74,-613.09"/>
</g>
<!-- Node24&#45;&gt;Node5 -->
<g id="edge37" class="edge">
<title>Node24&#45;&gt;Node5</title>
<path fill="none" stroke="#63b8ff" d="M395.63,-573.31C385.96,-571.15 376.17,-568.7 367,-566 332.66,-555.88 294.3,-539.85 271.17,-529.63"/>
<polygon fill="#63b8ff" stroke="#63b8ff" points="395.12,-576.78 405.63,-575.46 396.6,-569.94 395.12,-576.78"/>
</g>
<!-- Node25&#45;&gt;Node5 -->
<g id="edge39" class="edge">
<title>Node25&#45;&gt;Node5</title>
<path fill="none" stroke="#63b8ff" d="M370.85,-532.57C354.53,-530.87 337.72,-529.12 322.02,-527.49"/>
<polygon fill="#63b8ff" stroke="#63b8ff" points="370.63,-536.07 380.94,-533.62 371.35,-529.1 370.63,-536.07"/>
</g>
<!-- Node26&#45;&gt;Node5 -->
<g id="edge41" class="edge">
<title>Node26&#45;&gt;Node5</title>
<path fill="none" stroke="#63b8ff" d="M356.61,-509.41C344.9,-510.58 333.17,-511.74 322.01,-512.85"/>
<polygon fill="#63b8ff" stroke="#63b8ff" points="357.28,-512.87 366.88,-508.39 356.59,-505.9 357.28,-512.87"/>
</g>
<!-- Node27&#45;&gt;Node5 -->
<g id="edge43" class="edge">
<title>Node27&#45;&gt;Node5</title>
<path fill="none" stroke="#63b8ff" d="M398.29,-473.58C387.79,-475.83 377.05,-478.33 367,-481 335.14,-489.48 299.27,-501.87 275.75,-510.4"/>
<polygon fill="#63b8ff" stroke="#63b8ff" points="399.18,-476.97 408.25,-471.51 397.75,-470.12 399.18,-476.97"/>
</g>
<!-- Node28&#45;&gt;Node5 -->
<g id="edge45" class="edge">
<title>Node28&#45;&gt;Node5</title>
<path fill="none" stroke="#63b8ff" d="M387.1,-437.17C380.2,-439.13 373.4,-441.39 367,-444 324.84,-461.2 281.5,-494.12 261.45,-510.4"/>
<polygon fill="#63b8ff" stroke="#63b8ff" points="388.46,-440.43 397.24,-434.51 386.68,-433.66 388.46,-440.43"/>
</g>
<!-- Node29&#45;&gt;Node5 -->
<g id="edge47" class="edge">
<title>Node29&#45;&gt;Node5</title>
<path fill="none" stroke="#63b8ff" d="M594.62,-375.57C529.31,-372.02 438.91,-374.98 367,-407 314.63,-430.32 271.75,-487.71 256.23,-510.47"/>
<polygon fill="#63b8ff" stroke="#63b8ff" points="594.69,-379.08 604.88,-376.19 595.11,-372.09 594.69,-379.08"/>
</g>
<!-- Node30&#45;&gt;Node5 -->
<g id="edge49" class="edge">
<title>Node30&#45;&gt;Node5</title>
<path fill="none" stroke="#63b8ff" d="M611.86,-337.38C545.13,-330.56 443.28,-329.39 367,-370 305.78,-402.59 266.27,-482.65 254.05,-510.37"/>
<polygon fill="#63b8ff" stroke="#63b8ff" points="611.53,-340.87 621.85,-338.48 612.29,-333.91 611.53,-340.87"/>
</g>
<!-- Node31&#45;&gt;Node5 -->
<g id="edge52" class="edge">
<title>Node31&#45;&gt;Node5</title>
<path fill="none" stroke="#63b8ff" d="M626.47,-299.75C560.12,-289.12 447.06,-281.1 367,-329 295.26,-371.93 261.5,-477.47 252.52,-510.18"/>
<polygon fill="#63b8ff" stroke="#63b8ff" points="626.27,-303.27 636.71,-301.47 627.43,-296.36 626.27,-303.27"/>
</g>
<!-- Node32&#45;&gt;Node5 -->
<g id="edge54" class="edge">
<title>Node32&#45;&gt;Node5</title>
<path fill="none" stroke="#63b8ff" d="M584.4,-267.53C505.57,-264.14 401.76,-264.55 367,-287 283.53,-340.9 257.18,-473.67 251.37,-510.43"/>
<polygon fill="#63b8ff" stroke="#63b8ff" points="584.71,-271.05 594.86,-268.01 585.03,-264.06 584.71,-271.05"/>
</g>
<!-- Node33&#45;&gt;Node5 -->
<g id="edge56" class="edge">
<title>Node33&#45;&gt;Node5</title>
<path fill="none" stroke="#63b8ff" d="M627.66,-225.79C560.45,-214.82 444.39,-206.75 367,-261 277.71,-323.59 255.39,-471.14 250.96,-510.31"/>
<polygon fill="#63b8ff" stroke="#63b8ff" points="627.17,-229.25 637.61,-227.49 628.35,-222.35 627.17,-229.25"/>
</g>
<!-- Node34&#45;&gt;Node5 -->
<g id="edge58" class="edge">
<title>Node34&#45;&gt;Node5</title>
<path fill="none" stroke="#63b8ff" d="M586.91,-192.83C507.35,-188.73 401.02,-188.5 367,-213 263.31,-287.65 251.5,-466.71 250.17,-510.31"/>
<polygon fill="#63b8ff" stroke="#63b8ff" points="586.79,-196.33 596.97,-193.38 587.17,-189.34 586.79,-196.33"/>
</g>
<!-- Node36 -->
<g id="node36" class="node">
<title>Node36</title>
<g id="a_node36"><a xlink:href="namespaceImGui.html#a246c37da45e88a12ade440a0feacb4ee" target="_top" xlink:title=" ">
<polygon fill="white" stroke="#666666" points="732.5,-27.5 631.5,-27.5 631.5,-8.5 732.5,-8.5 732.5,-27.5"/>
<text text-anchor="middle" x="682" y="-15.5" font-family="Helvetica,sans-Serif" font-size="10.00">ImGui::EndFrame</text>
</a>
</g>
</g>
<!-- Node35&#45;&gt;Node36 -->
<g id="edge61" class="edge">
<title>Node35&#45;&gt;Node36</title>
<path fill="none" stroke="#63b8ff" d="M880.67,-194.56C864.41,-155.38 827.07,-78.87 770,-39 759.05,-31.35 745.63,-26.47 732.65,-23.36"/>
<polygon fill="#63b8ff" stroke="#63b8ff" points="877.45,-195.93 884.43,-203.89 883.94,-193.31 877.45,-195.93"/>
</g>
<!-- Node37 -->
<g id="node37" class="node">
<title>Node37</title>
<g id="a_node37"><a xlink:href="namespaceImGui.html#ab51a164f547317c16c441f1599e3946d" target="_top" xlink:title=" ">
<polygon fill="white" stroke="#666666" points="505.5,-27.5 419.5,-27.5 419.5,-8.5 505.5,-8.5 505.5,-27.5"/>
<text text-anchor="middle" x="462.5" y="-15.5" font-family="Helvetica,sans-Serif" font-size="10.00">ImGui::Render</text>
</a>
</g>
</g>
<!-- Node36&#45;&gt;Node37 -->
<g id="edge62" class="edge">
<title>Node36&#45;&gt;Node37</title>
<path fill="none" stroke="#63b8ff" d="M621.29,-18C584.6,-18 538.47,-18 505.59,-18"/>
<polygon fill="#63b8ff" stroke="#63b8ff" points="621.37,-21.5 631.37,-18 621.37,-14.5 621.37,-21.5"/>
</g>
<!-- Node38 -->
<g id="node38" class="node">
<title>Node38</title>
<g id="a_node38"><a xlink:href="classmtgb_1_1ImGuiRenderer.html#a8659d92cdaecc531688232b504e8c637" target="_top" xlink:title=" ">
<polygon fill="white" stroke="#666666" points="310,-30 188,-30 188,0 310,0 310,-30"/>
<text text-anchor="start" x="196" y="-18" font-family="Helvetica,sans-Serif" font-size="10.00">mtgb::ImGuiRenderer</text>
<text text-anchor="middle" x="249" y="-7" font-family="Helvetica,sans-Serif" font-size="10.00">::EndFrame</text>
</a>
</g>
</g>
<!-- Node37&#45;&gt;Node38 -->
<g id="edge63" class="edge">
<title>Node37&#45;&gt;Node38</title>
<path fill="none" stroke="#63b8ff" d="M409.22,-17.26C379.28,-16.83 341.58,-16.3 310.39,-15.86"/>
<polygon fill="#63b8ff" stroke="#63b8ff" points="409.41,-20.76 419.46,-17.4 409.51,-13.76 409.41,-20.76"/>
</g>
<!-- Node38&#45;&gt;Node21 -->
<g id="edge64" class="edge">
<title>Node38&#45;&gt;Node21</title>
<path fill="none" stroke="#63b8ff" d="M177.64,-31.67C161.93,-35.39 145.36,-39.32 129.95,-42.97"/>
<polygon fill="#63b8ff" stroke="#63b8ff" points="178.89,-34.97 187.82,-29.26 177.28,-28.16 178.89,-34.97"/>
</g>
</g>
</svg>
