<?xml version="1.0" encoding="UTF-8" standalone="no"?>
<!DOCTYPE svg PUBLIC "-//W3C//DTD SVG 1.1//EN"
 "http://www.w3.org/Graphics/SVG/1.1/DTD/svg11.dtd">
<!-- Generated by graphviz version 2.43.0 (0)
 -->
<!-- Title: ImFontAtlasPackReuseRectEntry Pages: 1 -->
<svg width="333pt" height="64pt"
 viewBox="0.00 0.00 333.00 64.00" xmlns="http://www.w3.org/2000/svg" xmlns:xlink="http://www.w3.org/1999/xlink">
<g id="graph0" class="graph" transform="scale(1 1) rotate(0) translate(4 60)">
<title>ImFontAtlasPackReuseRectEntry</title>
<!-- Node1 -->
<g id="node1" class="node">
<title>Node1</title>
<g id="a_node1"><a xlink:title=" ">
<polygon fill="#999999" stroke="#666666" points="149,-42.5 0,-42.5 0,-12.5 149,-12.5 149,-42.5"/>
<text text-anchor="start" x="8" y="-30.5" font-family="Helvetica,sans-Serif" font-size="10.00">ImFontAtlasPackReuseRect</text>
<text text-anchor="middle" x="74.5" y="-19.5" font-family="Helvetica,sans-Serif" font-size="10.00">Entry</text>
</a>
</g>
</g>
<!-- Node2 -->
<g id="node2" class="node">
<title>Node2</title>
<g id="a_node2"><a xlink:href="imgui__internal_8h.html#aff5fe59b050fb1d9a54f6b44d5c83b45" target="_top" xlink:title=" ">
<polygon fill="white" stroke="#666666" points="323.5,-56 186.5,-56 186.5,-37 323.5,-37 323.5,-56"/>
<text text-anchor="middle" x="255" y="-44" font-family="Helvetica,sans-Serif" font-size="10.00">ImFontAtlasRectId_Make</text>
</a>
</g>
</g>
<!-- Node1&#45;&gt;Node2 -->
<g id="edge1" class="edge">
<title>Node1&#45;&gt;Node2</title>
<path fill="none" stroke="#63b8ff" d="M149.13,-35.34C158.06,-36.29 167.21,-37.26 176.2,-38.22"/>
<polygon fill="#63b8ff" stroke="#63b8ff" points="175.95,-41.71 186.26,-39.29 176.69,-34.75 175.95,-41.71"/>
</g>
<!-- Node3 -->
<g id="node3" class="node">
<title>Node3</title>
<g id="a_node3"><a xlink:href="structImVector.html#a3fd48379f807eeb01fb9da39afa30dc7" target="_top" xlink:title=" ">
<polygon fill="white" stroke="#666666" points="325,-19 185,-19 185,0 325,0 325,-19"/>
<text text-anchor="middle" x="255" y="-7" font-family="Helvetica,sans-Serif" font-size="10.00">ImVector::index_from_ptr</text>
</a>
</g>
</g>
<!-- Node1&#45;&gt;Node3 -->
<g id="edge2" class="edge">
<title>Node1&#45;&gt;Node3</title>
<path fill="none" stroke="#63b8ff" d="M149.13,-20.07C157.62,-19.22 166.31,-18.34 174.87,-17.48"/>
<polygon fill="#63b8ff" stroke="#63b8ff" points="175.24,-20.96 184.84,-16.47 174.54,-14 175.24,-20.96"/>
</g>
</g>
</svg>
