<?xml version="1.0" encoding="UTF-8" standalone="no"?>
<!DOCTYPE svg PUBLIC "-//W3C//DTD SVG 1.1//EN"
 "http://www.w3.org/Graphics/SVG/1.1/DTD/svg11.dtd">
<!-- Generated by graphviz version 2.43.0 (0)
 -->
<!-- Title: ImGui_ImplWin32_OnChangedViewport Pages: 1 -->
<svg width="441pt" height="64pt"
 viewBox="0.00 0.00 441.00 64.00" xmlns="http://www.w3.org/2000/svg" xmlns:xlink="http://www.w3.org/1999/xlink">
<g id="graph0" class="graph" transform="scale(1 1) rotate(0) translate(4 60)">
<title>ImGui_ImplWin32_OnChangedViewport</title>
<!-- Node1 -->
<g id="node1" class="node">
<title>Node1</title>
<g id="a_node1"><a xlink:title=" ">
<polygon fill="#999999" stroke="#666666" points="165,-42.5 0,-42.5 0,-12.5 165,-12.5 165,-42.5"/>
<text text-anchor="start" x="8" y="-30.5" font-family="Helvetica,sans-Serif" font-size="10.00">ImGui_ImplWin32_OnChanged</text>
<text text-anchor="middle" x="82.5" y="-19.5" font-family="Helvetica,sans-Serif" font-size="10.00">Viewport</text>
</a>
</g>
</g>
<!-- Node2 -->
<g id="node2" class="node">
<title>Node2</title>
<g id="a_node2"><a xlink:href="namespaceImGui.html#abafef4bb3e3654efd96a47b2e22870a7" target="_top" xlink:title=" ">
<polygon fill="white" stroke="#666666" points="318.5,-56 224.5,-56 224.5,-37 318.5,-37 318.5,-56"/>
<text text-anchor="middle" x="271.5" y="-44" font-family="Helvetica,sans-Serif" font-size="10.00">ImGui::GetStyle</text>
</a>
</g>
</g>
<!-- Node1&#45;&gt;Node2 -->
<g id="edge1" class="edge">
<title>Node1&#45;&gt;Node2</title>
<path fill="none" stroke="#63b8ff" d="M165.25,-35.81C181.7,-37.48 198.64,-39.2 214,-40.76"/>
<polygon fill="#63b8ff" stroke="#63b8ff" points="214.04,-44.28 224.35,-41.81 214.75,-37.32 214.04,-44.28"/>
</g>
<!-- Node3 -->
<g id="node3" class="node">
<title>Node3</title>
<g id="a_node3"><a xlink:href="structImGuiStyle.html#a7c9d3e0974a239f65e433cc952be0627" target="_top" xlink:title=" ">
<polygon fill="white" stroke="#666666" points="342,-19 201,-19 201,0 342,0 342,-19"/>
<text text-anchor="middle" x="271.5" y="-7" font-family="Helvetica,sans-Serif" font-size="10.00">ImGuiStyle::ScaleAllSizes</text>
</a>
</g>
</g>
<!-- Node1&#45;&gt;Node3 -->
<g id="edge2" class="edge">
<title>Node1&#45;&gt;Node3</title>
<path fill="none" stroke="#63b8ff" d="M165.25,-19.63C173.7,-18.82 182.29,-17.99 190.72,-17.18"/>
<polygon fill="#63b8ff" stroke="#63b8ff" points="191.29,-20.64 200.91,-16.2 190.62,-13.67 191.29,-20.64"/>
</g>
<!-- Node4 -->
<g id="node4" class="node">
<title>Node4</title>
<g id="a_node4"><a xlink:href="imgui__internal_8h.html#a34870cae27ccd450c17ec3d3910b2da4" target="_top" xlink:title=" ">
<polygon fill="white" stroke="#666666" points="433,-19 378,-19 378,0 433,0 433,-19"/>
<text text-anchor="middle" x="405.5" y="-7" font-family="Helvetica,sans-Serif" font-size="10.00">ImTrunc</text>
</a>
</g>
</g>
<!-- Node3&#45;&gt;Node4 -->
<g id="edge3" class="edge">
<title>Node3&#45;&gt;Node4</title>
<path fill="none" stroke="#63b8ff" d="M342.37,-9.5C351.14,-9.5 359.82,-9.5 367.78,-9.5"/>
<polygon fill="#63b8ff" stroke="#63b8ff" points="367.79,-13 377.79,-9.5 367.79,-6 367.79,-13"/>
</g>
</g>
</svg>
