<?xml version="1.0" encoding="UTF-8" standalone="no"?>
<!DOCTYPE svg PUBLIC "-//W3C//DTD SVG 1.1//EN"
 "http://www.w3.org/Graphics/SVG/1.1/DTD/svg11.dtd">
<!-- Generated by graphviz version 2.43.0 (0)
 -->
<!-- Title: ImFontAtlasTextureGetSizeEstimate Pages: 1 -->
<svg width="312pt" height="101pt"
 viewBox="0.00 0.00 312.00 101.00" xmlns="http://www.w3.org/2000/svg" xmlns:xlink="http://www.w3.org/1999/xlink">
<g id="graph0" class="graph" transform="scale(1 1) rotate(0) translate(4 97)">
<title>ImFontAtlasTextureGetSizeEstimate</title>
<!-- Node1 -->
<g id="node1" class="node">
<title>Node1</title>
<g id="a_node1"><a xlink:title=" ">
<polygon fill="#999999" stroke="#666666" points="149,-61.5 0,-61.5 0,-31.5 149,-31.5 149,-61.5"/>
<text text-anchor="start" x="8" y="-49.5" font-family="Helvetica,sans-Serif" font-size="10.00">ImFontAtlasTextureGetSize</text>
<text text-anchor="middle" x="74.5" y="-38.5" font-family="Helvetica,sans-Serif" font-size="10.00">Estimate</text>
</a>
</g>
</g>
<!-- Node2 -->
<g id="node2" class="node">
<title>Node2</title>
<g id="a_node2"><a xlink:href="imgui__internal_8h.html#a3cc719adb48b1aed8ab1196ecea7e828" target="_top" xlink:title=" ">
<polygon fill="white" stroke="#666666" points="293.5,-93 195.5,-93 195.5,-74 293.5,-74 293.5,-93"/>
<text text-anchor="middle" x="244.5" y="-81" font-family="Helvetica,sans-Serif" font-size="10.00">ImIsPowerOfTwo</text>
</a>
</g>
</g>
<!-- Node1&#45;&gt;Node2 -->
<g id="edge1" class="edge">
<title>Node1&#45;&gt;Node2</title>
<path fill="none" stroke="#63b8ff" d="M143.83,-61.55C159.33,-64.96 175.57,-68.54 190.33,-71.79"/>
<polygon fill="#63b8ff" stroke="#63b8ff" points="189.77,-75.25 200.29,-73.98 191.28,-68.41 189.77,-75.25"/>
</g>
<!-- Node3 -->
<g id="node3" class="node">
<title>Node3</title>
<g id="a_node3"><a xlink:href="imgui__internal_8h.html#a7667efd95147d0422f140917c71a9226" target="_top" xlink:title=" ">
<polygon fill="white" stroke="#666666" points="269.5,-56 219.5,-56 219.5,-37 269.5,-37 269.5,-56"/>
<text text-anchor="middle" x="244.5" y="-44" font-family="Helvetica,sans-Serif" font-size="10.00">ImMax</text>
</a>
</g>
</g>
<!-- Node1&#45;&gt;Node3 -->
<g id="edge2" class="edge">
<title>Node1&#45;&gt;Node3</title>
<path fill="none" stroke="#63b8ff" d="M149.19,-46.5C170.07,-46.5 191.81,-46.5 209.15,-46.5"/>
<polygon fill="#63b8ff" stroke="#63b8ff" points="209.33,-50 219.33,-46.5 209.33,-43 209.33,-50"/>
</g>
<!-- Node4 -->
<g id="node4" class="node">
<title>Node4</title>
<g id="a_node4"><a xlink:href="imgui__internal_8h.html#adae096c61c812293ec61ac541c146674" target="_top" xlink:title=" ">
<polygon fill="white" stroke="#666666" points="304,-19 185,-19 185,0 304,0 304,-19"/>
<text text-anchor="middle" x="244.5" y="-7" font-family="Helvetica,sans-Serif" font-size="10.00">ImUpperPowerOfTwo</text>
</a>
</g>
</g>
<!-- Node1&#45;&gt;Node4 -->
<g id="edge3" class="edge">
<title>Node1&#45;&gt;Node4</title>
<path fill="none" stroke="#63b8ff" d="M143.83,-31.45C159.33,-28.04 175.57,-24.46 190.33,-21.21"/>
<polygon fill="#63b8ff" stroke="#63b8ff" points="191.28,-24.59 200.29,-19.02 189.77,-17.75 191.28,-24.59"/>
</g>
</g>
</svg>
