<?xml version="1.0" encoding="UTF-8" standalone="no"?>
<!DOCTYPE svg PUBLIC "-//W3C//DTD SVG 1.1//EN"
 "http://www.w3.org/Graphics/SVG/1.1/DTD/svg11.dtd">
<!-- Generated by graphviz version 2.43.0 (0)
 -->
<!-- Title: FindWindowNavFocusable Pages: 1 -->
<svg width="1148pt" height="52pt"
 viewBox="0.00 0.00 1148.00 51.50" xmlns="http://www.w3.org/2000/svg" xmlns:xlink="http://www.w3.org/1999/xlink">
<g id="graph0" class="graph" transform="scale(1 1) rotate(0) translate(4 47.5)">
<title>FindWindowNavFocusable</title>
<!-- Node1 -->
<g id="node1" class="node">
<title>Node1</title>
<g id="a_node1"><a xlink:title=" ">
<polygon fill="#999999" stroke="#666666" points="1140,-38 996,-38 996,-19 1140,-19 1140,-38"/>
<text text-anchor="middle" x="1068" y="-26" font-family="Helvetica,sans-Serif" font-size="10.00">FindWindowNavFocusable</text>
</a>
</g>
</g>
<!-- Node2 -->
<g id="node2" class="node">
<title>Node2</title>
<g id="a_node2"><a xlink:href="namespaceImGui.html#ad00213b916de0bc1519d6d20259391cf" target="_top" xlink:title=" ">
<polygon fill="white" stroke="#666666" points="769,-38 608,-38 608,-19 769,-19 769,-38"/>
<text text-anchor="middle" x="688.5" y="-26" font-family="Helvetica,sans-Serif" font-size="10.00">ImGui::NavUpdateWindowing</text>
</a>
</g>
</g>
<!-- Node1&#45;&gt;Node2 -->
<g id="edge1" class="edge">
<title>Node1&#45;&gt;Node2</title>
<path fill="none" stroke="#63b8ff" d="M985.92,-28.5C921.79,-28.5 832.73,-28.5 769,-28.5"/>
<polygon fill="#63b8ff" stroke="#63b8ff" points="986,-32 996,-28.5 986,-25 986,-32"/>
</g>
<!-- Node7 -->
<g id="node7" class="node">
<title>Node7</title>
<g id="a_node7"><a xlink:href="imgui_8cpp.html#a3dfd1ab6a83db7c5195c103309e34522" target="_top" xlink:title=" ">
<polygon fill="white" stroke="#666666" points="960,-19 805,-19 805,0 960,0 960,-19"/>
<text text-anchor="middle" x="882.5" y="-7" font-family="Helvetica,sans-Serif" font-size="10.00">NavUpdateWindowingTarget</text>
</a>
</g>
</g>
<!-- Node1&#45;&gt;Node7 -->
<g id="edge6" class="edge">
<title>Node1&#45;&gt;Node7</title>
<path fill="none" stroke="#63b8ff" d="M985.84,-20.1C977.3,-19.21 968.63,-18.31 960.14,-17.44"/>
<polygon fill="#63b8ff" stroke="#63b8ff" points="985.48,-23.58 995.79,-21.13 986.21,-16.62 985.48,-23.58"/>
</g>
<!-- Node3 -->
<g id="node3" class="node">
<title>Node3</title>
<g id="a_node3"><a xlink:href="namespaceImGui.html#aab7d3ffa460af6604421e8c2d8bdef19" target="_top" xlink:title=" ">
<polygon fill="white" stroke="#666666" points="572,-38 465,-38 465,-19 572,-19 572,-38"/>
<text text-anchor="middle" x="518.5" y="-26" font-family="Helvetica,sans-Serif" font-size="10.00">ImGui::NavUpdate</text>
</a>
</g>
</g>
<!-- Node2&#45;&gt;Node3 -->
<g id="edge2" class="edge">
<title>Node2&#45;&gt;Node3</title>
<path fill="none" stroke="#63b8ff" d="M597.76,-28.5C589.11,-28.5 580.54,-28.5 572.43,-28.5"/>
<polygon fill="#63b8ff" stroke="#63b8ff" points="597.93,-32 607.93,-28.5 597.93,-25 597.93,-32"/>
</g>
<!-- Node4 -->
<g id="node4" class="node">
<title>Node4</title>
<g id="a_node4"><a xlink:href="namespaceImGui.html#ab3f1fc018f903b7ad79fd10663375774" target="_top" xlink:title=" ">
<polygon fill="white" stroke="#666666" points="429,-38 325,-38 325,-19 429,-19 429,-38"/>
<text text-anchor="middle" x="377" y="-26" font-family="Helvetica,sans-Serif" font-size="10.00">ImGui::NewFrame</text>
</a>
</g>
</g>
<!-- Node3&#45;&gt;Node4 -->
<g id="edge3" class="edge">
<title>Node3&#45;&gt;Node4</title>
<path fill="none" stroke="#63b8ff" d="M454.59,-28.5C446.17,-28.5 437.62,-28.5 429.43,-28.5"/>
<polygon fill="#63b8ff" stroke="#63b8ff" points="454.76,-32 464.76,-28.5 454.76,-25 454.76,-32"/>
</g>
<!-- Node5 -->
<g id="node5" class="node">
<title>Node5</title>
<g id="a_node5"><a xlink:href="classmtgb_1_1ImGuiRenderer.html#a4684d4374beee1f52053b4634edae2c8" target="_top" xlink:title=" ">
<polygon fill="white" stroke="#666666" points="289,-43.5 167,-43.5 167,-13.5 289,-13.5 289,-43.5"/>
<text text-anchor="start" x="175" y="-31.5" font-family="Helvetica,sans-Serif" font-size="10.00">mtgb::ImGuiRenderer</text>
<text text-anchor="middle" x="228" y="-20.5" font-family="Helvetica,sans-Serif" font-size="10.00">::BeginFrame</text>
</a>
</g>
</g>
<!-- Node4&#45;&gt;Node5 -->
<g id="edge4" class="edge">
<title>Node4&#45;&gt;Node5</title>
<path fill="none" stroke="#63b8ff" d="M314.76,-28.5C306.24,-28.5 297.5,-28.5 289.01,-28.5"/>
<polygon fill="#63b8ff" stroke="#63b8ff" points="315,-32 325,-28.5 315,-25 315,-32"/>
</g>
<!-- Node6 -->
<g id="node6" class="node">
<title>Node6</title>
<g id="a_node6"><a xlink:href="classmtgb_1_1RenderSystem.html#a14e39d4590efdf77c2085b12c6f3cdf5" target="_top" xlink:title=" ">
<polygon fill="white" stroke="#666666" points="131,-43.5 0,-43.5 0,-13.5 131,-13.5 131,-43.5"/>
<text text-anchor="start" x="8" y="-31.5" font-family="Helvetica,sans-Serif" font-size="10.00">mtgb::RenderSystem</text>
<text text-anchor="middle" x="65.5" y="-20.5" font-family="Helvetica,sans-Serif" font-size="10.00">::RenderImGuiWindows</text>
</a>
</g>
</g>
<!-- Node5&#45;&gt;Node6 -->
<g id="edge5" class="edge">
<title>Node5&#45;&gt;Node6</title>
<path fill="none" stroke="#63b8ff" d="M156.55,-28.5C148.08,-28.5 139.47,-28.5 131.09,-28.5"/>
<polygon fill="#63b8ff" stroke="#63b8ff" points="156.78,-32 166.78,-28.5 156.78,-25 156.78,-32"/>
</g>
<!-- Node7&#45;&gt;Node2 -->
<g id="edge7" class="edge">
<title>Node7&#45;&gt;Node2</title>
<path fill="none" stroke="#63b8ff" d="M794.56,-18.1C786.12,-18.94 777.59,-19.78 769.23,-20.61"/>
<polygon fill="#63b8ff" stroke="#63b8ff" points="795.18,-21.56 804.79,-17.09 794.49,-14.59 795.18,-21.56"/>
</g>
</g>
</svg>
