<?xml version="1.0" encoding="UTF-8" standalone="no"?>
<!DOCTYPE svg PUBLIC "-//W3C//DTD SVG 1.1//EN"
 "http://www.w3.org/Graphics/SVG/1.1/DTD/svg11.dtd">
<!-- Generated by graphviz version 2.43.0 (0)
 -->
<!-- Title: ClampWindowPos Pages: 1 -->
<svg width="280pt" height="64pt"
 viewBox="0.00 0.00 280.00 64.00" xmlns="http://www.w3.org/2000/svg" xmlns:xlink="http://www.w3.org/1999/xlink">
<g id="graph0" class="graph" transform="scale(1 1) rotate(0) translate(4 60)">
<title>ClampWindowPos</title>
<!-- Node1 -->
<g id="node1" class="node">
<title>Node1</title>
<g id="a_node1"><a xlink:title=" ">
<polygon fill="#999999" stroke="#666666" points="104,-37 0,-37 0,-18 104,-18 104,-37"/>
<text text-anchor="middle" x="52" y="-25" font-family="Helvetica,sans-Serif" font-size="10.00">ClampWindowPos</text>
</a>
</g>
</g>
<!-- Node2 -->
<g id="node2" class="node">
<title>Node2</title>
<g id="a_node2"><a xlink:href="namespaceImGui.html#ae560f17cf3262017cee888d1eb77f294" target="_top" xlink:title=" ">
<polygon fill="white" stroke="#666666" points="272,-56 140,-56 140,-37 272,-37 272,-56"/>
<text text-anchor="middle" x="206" y="-44" font-family="Helvetica,sans-Serif" font-size="10.00">ImGui::GetFrameHeight</text>
</a>
</g>
</g>
<!-- Node1&#45;&gt;Node2 -->
<g id="edge1" class="edge">
<title>Node1&#45;&gt;Node2</title>
<path fill="none" stroke="#63b8ff" d="M104.04,-33.88C112.28,-34.91 120.97,-36 129.64,-37.08"/>
<polygon fill="#63b8ff" stroke="#63b8ff" points="129.43,-40.58 139.79,-38.35 130.3,-33.64 129.43,-40.58"/>
</g>
<!-- Node3 -->
<g id="node3" class="node">
<title>Node3</title>
<g id="a_node3"><a xlink:href="imgui__internal_8h.html#a6e61ede308bfd68c7434e17905a29fc8" target="_top" xlink:title=" ">
<polygon fill="white" stroke="#666666" points="236.5,-19 175.5,-19 175.5,0 236.5,0 236.5,-19"/>
<text text-anchor="middle" x="206" y="-7" font-family="Helvetica,sans-Serif" font-size="10.00">ImClamp</text>
</a>
</g>
</g>
<!-- Node1&#45;&gt;Node3 -->
<g id="edge2" class="edge">
<title>Node1&#45;&gt;Node3</title>
<path fill="none" stroke="#63b8ff" d="M104.04,-21.46C123.98,-19.1 146.49,-16.43 165.2,-14.21"/>
<polygon fill="#63b8ff" stroke="#63b8ff" points="165.63,-17.69 175.15,-13.03 164.81,-10.73 165.63,-17.69"/>
</g>
</g>
</svg>
