<?xml version="1.0" encoding="UTF-8" standalone="no"?>
<!DOCTYPE svg PUBLIC "-//W3C//DTD SVG 1.1//EN"
 "http://www.w3.org/Graphics/SVG/1.1/DTD/svg11.dtd">
<!-- Generated by graphviz version 2.43.0 (0)
 -->
<!-- Title: PushStyleCompact Pages: 1 -->
<svg width="616pt" height="131pt"
 viewBox="0.00 0.00 616.00 131.00" xmlns="http://www.w3.org/2000/svg" xmlns:xlink="http://www.w3.org/1999/xlink">
<g id="graph0" class="graph" transform="scale(1 1) rotate(0) translate(4 127)">
<title>PushStyleCompact</title>
<!-- Node1 -->
<g id="node1" class="node">
<title>Node1</title>
<g id="a_node1"><a xlink:title=" ">
<polygon fill="#999999" stroke="#666666" points="108,-98 0,-98 0,-79 108,-79 108,-98"/>
<text text-anchor="middle" x="54" y="-86" font-family="Helvetica,sans-Serif" font-size="10.00">PushStyleCompact</text>
</a>
</g>
</g>
<!-- Node2 -->
<g id="node2" class="node">
<title>Node2</title>
<g id="a_node2"><a xlink:href="namespaceImGui.html#abafef4bb3e3654efd96a47b2e22870a7" target="_top" xlink:title=" ">
<polygon fill="white" stroke="#666666" points="252,-117 158,-117 158,-98 252,-98 252,-117"/>
<text text-anchor="middle" x="205" y="-105" font-family="Helvetica,sans-Serif" font-size="10.00">ImGui::GetStyle</text>
</a>
</g>
</g>
<!-- Node1&#45;&gt;Node2 -->
<g id="edge1" class="edge">
<title>Node1&#45;&gt;Node2</title>
<path fill="none" stroke="#63b8ff" d="M108.37,-95.31C121.15,-96.94 134.84,-98.68 147.75,-100.33"/>
<polygon fill="#63b8ff" stroke="#63b8ff" points="147.54,-103.83 157.9,-101.62 148.43,-96.88 147.54,-103.83"/>
</g>
<!-- Node3 -->
<g id="node3" class="node">
<title>Node3</title>
<g id="a_node3"><a xlink:href="namespaceImGui.html#a0085e55737477dccb318201f0f737678" target="_top" xlink:title=" ">
<polygon fill="white" stroke="#666666" points="266,-80 144,-80 144,-61 266,-61 266,-80"/>
<text text-anchor="middle" x="205" y="-68" font-family="Helvetica,sans-Serif" font-size="10.00">ImGui::PushStyleVarY</text>
</a>
</g>
</g>
<!-- Node1&#45;&gt;Node3 -->
<g id="edge2" class="edge">
<title>Node1&#45;&gt;Node3</title>
<path fill="none" stroke="#63b8ff" d="M108.37,-82.05C116.65,-81.05 125.32,-80.01 133.9,-78.97"/>
<polygon fill="#63b8ff" stroke="#63b8ff" points="134.41,-82.43 143.91,-77.76 133.57,-75.48 134.41,-82.43"/>
</g>
<!-- Node4 -->
<g id="node4" class="node">
<title>Node4</title>
<g id="a_node4"><a xlink:href="namespaceImGui.html#a3870829d4a3b6ea8ad8f6f82c944495f" target="_top" xlink:title=" ">
<polygon fill="white" stroke="#666666" points="430,-123 302,-123 302,-104 430,-104 430,-123"/>
<text text-anchor="middle" x="366" y="-111" font-family="Helvetica,sans-Serif" font-size="10.00">ImGui::GetStyleVarInfo</text>
</a>
</g>
</g>
<!-- Node3&#45;&gt;Node4 -->
<g id="edge3" class="edge">
<title>Node3&#45;&gt;Node4</title>
<path fill="none" stroke="#63b8ff" d="M241.29,-80.04C264.45,-86.31 294.94,-94.55 319.86,-101.29"/>
<polygon fill="#63b8ff" stroke="#63b8ff" points="319.24,-104.75 329.81,-103.98 321.07,-97.99 319.24,-104.75"/>
</g>
<!-- Node5 -->
<g id="node5" class="node">
<title>Node5</title>
<g id="a_node5"><a xlink:href="structImGuiStyleVarInfo.html#a6621aa66480ec67de95b6a74625d834a" target="_top" xlink:title=" ">
<polygon fill="white" stroke="#666666" points="421.5,-85.5 310.5,-85.5 310.5,-55.5 421.5,-55.5 421.5,-85.5"/>
<text text-anchor="start" x="318.5" y="-73.5" font-family="Helvetica,sans-Serif" font-size="10.00">ImGuiStyleVarInfo::</text>
<text text-anchor="middle" x="366" y="-62.5" font-family="Helvetica,sans-Serif" font-size="10.00">GetVarPtr</text>
</a>
</g>
</g>
<!-- Node3&#45;&gt;Node5 -->
<g id="edge4" class="edge">
<title>Node3&#45;&gt;Node5</title>
<path fill="none" stroke="#63b8ff" d="M266.11,-70.5C277.22,-70.5 288.87,-70.5 300.11,-70.5"/>
<polygon fill="#63b8ff" stroke="#63b8ff" points="300.3,-74 310.3,-70.5 300.3,-67 300.3,-74"/>
</g>
<!-- Node6 -->
<g id="node6" class="node">
<title>Node6</title>
<g id="a_node6"><a xlink:href="structImVector.html#aab5df48e0711a48bd12f3206e08c4108" target="_top" xlink:title=" ">
<polygon fill="white" stroke="#666666" points="425,-37 307,-37 307,-18 425,-18 425,-37"/>
<text text-anchor="middle" x="366" y="-25" font-family="Helvetica,sans-Serif" font-size="10.00">ImVector::push_back</text>
</a>
</g>
</g>
<!-- Node3&#45;&gt;Node6 -->
<g id="edge5" class="edge">
<title>Node3&#45;&gt;Node6</title>
<path fill="none" stroke="#63b8ff" d="M241.29,-60.96C264.45,-54.69 294.94,-46.45 319.86,-39.71"/>
<polygon fill="#63b8ff" stroke="#63b8ff" points="321.07,-43.01 329.81,-37.02 319.24,-36.25 321.07,-43.01"/>
</g>
<!-- Node7 -->
<g id="node7" class="node">
<title>Node7</title>
<g id="a_node7"><a xlink:href="structImVector.html#a3a097635d464b1b70dc7d59996a88b28" target="_top" xlink:title=" ">
<polygon fill="white" stroke="#666666" points="608,-56 466,-56 466,-37 608,-37 608,-56"/>
<text text-anchor="middle" x="537" y="-44" font-family="Helvetica,sans-Serif" font-size="10.00">ImVector::_grow_capacity</text>
</a>
</g>
</g>
<!-- Node6&#45;&gt;Node7 -->
<g id="edge6" class="edge">
<title>Node6&#45;&gt;Node7</title>
<path fill="none" stroke="#63b8ff" d="M425.16,-34.04C434.97,-35.14 445.31,-36.3 455.56,-37.46"/>
<polygon fill="#63b8ff" stroke="#63b8ff" points="455.44,-40.97 465.77,-38.6 456.23,-34.01 455.44,-40.97"/>
</g>
<!-- Node8 -->
<g id="node8" class="node">
<title>Node8</title>
<g id="a_node8"><a xlink:href="structImVector.html#a0f14f5736c3372157856eebb67123b75" target="_top" xlink:title=" ">
<polygon fill="white" stroke="#666666" points="588.5,-19 485.5,-19 485.5,0 588.5,0 588.5,-19"/>
<text text-anchor="middle" x="537" y="-7" font-family="Helvetica,sans-Serif" font-size="10.00">ImVector::reserve</text>
</a>
</g>
</g>
<!-- Node6&#45;&gt;Node8 -->
<g id="edge7" class="edge">
<title>Node6&#45;&gt;Node8</title>
<path fill="none" stroke="#63b8ff" d="M425.16,-21.31C441.37,-19.58 459.02,-17.7 475.36,-15.96"/>
<polygon fill="#63b8ff" stroke="#63b8ff" points="475.78,-19.43 485.35,-14.89 475.04,-12.47 475.78,-19.43"/>
</g>
</g>
</svg>
