<?xml version="1.0" encoding="UTF-8" standalone="no"?>
<!DOCTYPE svg PUBLIC "-//W3C//DTD SVG 1.1//EN"
 "http://www.w3.org/Graphics/SVG/1.1/DTD/svg11.dtd">
<!-- Generated by graphviz version 2.43.0 (0)
 -->
<!-- Title: ImGui_ImplStbTrueType_FontBakedLoadGlyph Pages: 1 -->
<svg width="1592pt" height="1151pt"
 viewBox="0.00 0.00 1592.00 1150.50" xmlns="http://www.w3.org/2000/svg" xmlns:xlink="http://www.w3.org/1999/xlink">
<g id="graph0" class="graph" transform="scale(1 1) rotate(0) translate(4 1146.5)">
<title>ImGui_ImplStbTrueType_FontBakedLoadGlyph</title>
<!-- Node1 -->
<g id="node1" class="node">
<title>Node1</title>
<g id="a_node1"><a xlink:title=" ">
<polygon fill="#999999" stroke="#666666" points="131,-193.5 0,-193.5 0,-163.5 131,-163.5 131,-193.5"/>
<text text-anchor="start" x="8" y="-181.5" font-family="Helvetica,sans-Serif" font-size="10.00">ImGui_ImplStbTrueType</text>
<text text-anchor="middle" x="65.5" y="-170.5" font-family="Helvetica,sans-Serif" font-size="10.00">_FontBakedLoadGlyph</text>
</a>
</g>
</g>
<!-- Node2 -->
<g id="node2" class="node">
<title>Node2</title>
<g id="a_node2"><a xlink:href="imgui__draw_8cpp.html#af9bb9baf259d78887086d048324b8657" target="_top" xlink:title=" ">
<polygon fill="white" stroke="#666666" points="558,-1022.5 388,-1022.5 388,-992.5 558,-992.5 558,-1022.5"/>
<text text-anchor="start" x="396" y="-1010.5" font-family="Helvetica,sans-Serif" font-size="10.00">ImFontAtlasBakedSetFontGlyph</text>
<text text-anchor="middle" x="473" y="-999.5" font-family="Helvetica,sans-Serif" font-size="10.00">Bitmap</text>
</a>
</g>
</g>
<!-- Node1&#45;&gt;Node2 -->
<g id="edge1" class="edge">
<title>Node1&#45;&gt;Node2</title>
<path fill="none" stroke="#63b8ff" d="M67.38,-193.72C71.32,-252.71 90.56,-470.88 167,-629.5 241.3,-783.67 389.49,-930.97 447.71,-985.39"/>
<polygon fill="#63b8ff" stroke="#63b8ff" points="445.6,-988.21 455.31,-992.45 450.36,-983.08 445.6,-988.21"/>
</g>
<!-- Node15 -->
<g id="node15" class="node">
<title>Node15</title>
<g id="a_node15"><a xlink:href="imgui__draw_8cpp.html#a2f95da190b053827e48cbd80f1f6cdf4" target="_top" xlink:title=" ">
<polygon fill="white" stroke="#666666" points="347.5,-215.5 171.5,-215.5 171.5,-185.5 347.5,-185.5 347.5,-215.5"/>
<text text-anchor="start" x="179.5" y="-203.5" font-family="Helvetica,sans-Serif" font-size="10.00">ImFontAtlasBuildGetOversample</text>
<text text-anchor="middle" x="259.5" y="-192.5" font-family="Helvetica,sans-Serif" font-size="10.00">Factors</text>
</a>
</g>
</g>
<!-- Node1&#45;&gt;Node15 -->
<g id="edge15" class="edge">
<title>Node1&#45;&gt;Node15</title>
<path fill="none" stroke="#63b8ff" d="M131.23,-185.92C140.87,-187.02 150.98,-188.18 161.1,-189.34"/>
<polygon fill="#63b8ff" stroke="#63b8ff" points="160.89,-192.84 171.22,-190.5 161.68,-185.88 160.89,-192.84"/>
</g>
<!-- Node16 -->
<g id="node16" class="node">
<title>Node16</title>
<g id="a_node16"><a xlink:href="imgui__draw_8cpp.html#a0033358c6425323b29be68b3f5af3aa9" target="_top" xlink:title=" ">
<polygon fill="white" stroke="#666666" points="328.5,-621 190.5,-621 190.5,-602 328.5,-602 328.5,-621"/>
<text text-anchor="middle" x="259.5" y="-609" font-family="Helvetica,sans-Serif" font-size="10.00">ImFontAtlasPackAddRect</text>
</a>
</g>
</g>
<!-- Node1&#45;&gt;Node16 -->
<g id="edge16" class="edge">
<title>Node1&#45;&gt;Node16</title>
<path fill="none" stroke="#63b8ff" d="M73.22,-193.66C102.38,-259.43 217.95,-520.04 250.14,-592.64"/>
<polygon fill="#63b8ff" stroke="#63b8ff" points="247.01,-594.22 254.26,-601.94 253.41,-591.38 247.01,-594.22"/>
</g>
<!-- Node19 -->
<g id="node19" class="node">
<title>Node19</title>
<g id="a_node19"><a xlink:href="structImVector.html#ac371dd62e56ae486b1a5038cf07eee56" target="_top" xlink:title=" ">
<polygon fill="white" stroke="#666666" points="1337.5,-962 1242.5,-962 1242.5,-943 1337.5,-943 1337.5,-962"/>
<text text-anchor="middle" x="1290" y="-950" font-family="Helvetica,sans-Serif" font-size="10.00">ImVector::resize</text>
</a>
</g>
</g>
<!-- Node1&#45;&gt;Node19 -->
<g id="edge64" class="edge">
<title>Node1&#45;&gt;Node19</title>
<path fill="none" stroke="#63b8ff" d="M66.29,-193.95C65.92,-263.96 70.46,-557.29 167,-769.5 255.67,-964.42 257.86,-1142.5 472,-1142.5 472,-1142.5 472,-1142.5 891,-1142.5 1026.22,-1142.5 1061.26,-1109.75 1178,-1041.5 1213.96,-1020.48 1250.7,-988.54 1271.6,-969.18"/>
<polygon fill="#63b8ff" stroke="#63b8ff" points="1274.15,-971.59 1279.04,-962.19 1269.36,-966.49 1274.15,-971.59"/>
</g>
<!-- Node29 -->
<g id="node28" class="node">
<title>Node29</title>
<g id="a_node28"><a xlink:href="imgui__draw_8cpp.html#a0c336a0e5d743ff3c8d40351d125d1bb" target="_top" xlink:title=" ">
<polygon fill="white" stroke="#666666" points="1358.5,-291 1221.5,-291 1221.5,-272 1358.5,-272 1358.5,-291"/>
<text text-anchor="middle" x="1290" y="-279" font-family="Helvetica,sans-Serif" font-size="10.00">ImFontAtlasPackGetRect</text>
</a>
</g>
</g>
<!-- Node1&#45;&gt;Node29 -->
<g id="edge63" class="edge">
<title>Node1&#45;&gt;Node29</title>
<path fill="none" stroke="#63b8ff" d="M92.4,-193.57C112.14,-204.25 140.38,-217.82 167,-224.5 298.74,-257.54 336.18,-243.5 472,-243.5 472,-243.5 472,-243.5 891,-243.5 1018.83,-243.5 1051.05,-247.47 1178,-262.5 1194.88,-264.5 1213.1,-267.33 1229.8,-270.2"/>
<polygon fill="#63b8ff" stroke="#63b8ff" points="1229.53,-273.71 1239.98,-271.99 1230.74,-266.81 1229.53,-273.71"/>
</g>
<!-- Node58 -->
<g id="node46" class="node">
<title>Node58</title>
<g id="a_node46"><a xlink:href="imstb__truetype_8h.html#a213d5628c6b2e5c107b99378eefc6e3a" target="_top" xlink:title=" ">
<polygon fill="white" stroke="#666666" points="319.5,-167 199.5,-167 199.5,-148 319.5,-148 319.5,-167"/>
<text text-anchor="middle" x="259.5" y="-155" font-family="Helvetica,sans-Serif" font-size="10.00">stbtt_FindGlyphIndex</text>
</a>
</g>
</g>
<!-- Node1&#45;&gt;Node58 -->
<g id="edge65" class="edge">
<title>Node1&#45;&gt;Node58</title>
<path fill="none" stroke="#63b8ff" d="M131.23,-171.42C149.88,-169.38 170.28,-167.15 189.19,-165.08"/>
<polygon fill="#63b8ff" stroke="#63b8ff" points="189.66,-168.55 199.22,-163.98 188.9,-161.59 189.66,-168.55"/>
</g>
<!-- Node93 -->
<g id="node47" class="node">
<title>Node93</title>
<g id="a_node47"><a xlink:href="imstb__truetype_8h.html#a7bba8bb63f534246ccd3ed5b9390cc53" target="_top" xlink:title=" ">
<polygon fill="white" stroke="#666666" points="331.5,-130 187.5,-130 187.5,-111 331.5,-111 331.5,-130"/>
<text text-anchor="middle" x="259.5" y="-118" font-family="Helvetica,sans-Serif" font-size="10.00">stbtt_GetGlyphBitmapBox</text>
</a>
</g>
</g>
<!-- Node1&#45;&gt;Node93 -->
<g id="edge66" class="edge">
<title>Node1&#45;&gt;Node93</title>
<path fill="none" stroke="#63b8ff" d="M99.91,-163.4C119.21,-155.14 144.12,-145.24 167,-138.5 174.93,-136.17 183.33,-134.05 191.7,-132.15"/>
<polygon fill="#63b8ff" stroke="#63b8ff" points="192.46,-135.57 201.49,-130.02 190.97,-128.73 192.46,-135.57"/>
</g>
<!-- Node94 -->
<g id="node48" class="node">
<title>Node94</title>
<g id="a_node48"><a xlink:href="imstb__truetype_8h.html#a597ef6b92ab0b5800c74478548b4782f" target="_top" xlink:title=" ">
<polygon fill="white" stroke="#666666" points="352,-93 167,-93 167,-74 352,-74 352,-93"/>
<text text-anchor="middle" x="259.5" y="-81" font-family="Helvetica,sans-Serif" font-size="10.00">stbtt_GetGlyphBitmapBoxSubpixel</text>
</a>
</g>
</g>
<!-- Node1&#45;&gt;Node94 -->
<g id="edge67" class="edge">
<title>Node1&#45;&gt;Node94</title>
<path fill="none" stroke="#63b8ff" d="M81.37,-163.47C99.8,-145.78 132.94,-116.87 167,-101.5 171.59,-99.43 176.41,-97.6 181.34,-95.97"/>
<polygon fill="#63b8ff" stroke="#63b8ff" points="182.35,-99.33 190.93,-93.11 180.34,-92.62 182.35,-99.33"/>
</g>
<!-- Node95 -->
<g id="node49" class="node">
<title>Node95</title>
<g id="a_node49"><a xlink:href="imstb__truetype_8h.html#ab593f3066f2a8a7e33e7b7011d1b1f9a" target="_top" xlink:title=" ">
<polygon fill="white" stroke="#666666" points="326.5,-56 192.5,-56 192.5,-37 326.5,-37 326.5,-56"/>
<text text-anchor="middle" x="259.5" y="-44" font-family="Helvetica,sans-Serif" font-size="10.00">stbtt_GetGlyphHMetrics</text>
</a>
</g>
</g>
<!-- Node1&#45;&gt;Node95 -->
<g id="edge68" class="edge">
<title>Node1&#45;&gt;Node95</title>
<path fill="none" stroke="#63b8ff" d="M75.14,-163.47C90.31,-138.57 124.21,-89.07 167,-64.5 171.83,-61.73 177.01,-59.38 182.36,-57.38"/>
<polygon fill="#63b8ff" stroke="#63b8ff" points="183.73,-60.61 192.14,-54.16 181.54,-53.97 183.73,-60.61"/>
</g>
<!-- Node96 -->
<g id="node50" class="node">
<title>Node96</title>
<g id="a_node50"><a xlink:href="imstb__truetype_8h.html#aa82d35f758bc70bd675c48da381e7ea7" target="_top" xlink:title=" ">
<polygon fill="white" stroke="#666666" points="347.5,-19 171.5,-19 171.5,0 347.5,0 347.5,-19"/>
<text text-anchor="middle" x="259.5" y="-7" font-family="Helvetica,sans-Serif" font-size="10.00">stbtt_MakeGlyphBitmapSubpixel</text>
</a>
</g>
</g>
<!-- Node1&#45;&gt;Node96 -->
<g id="edge69" class="edge">
<title>Node1&#45;&gt;Node96</title>
<path fill="none" stroke="#63b8ff" d="M72.02,-163.15C84.03,-132.08 115.67,-61.78 167,-27.5 169.18,-26.04 171.45,-24.7 173.79,-23.46"/>
<polygon fill="#63b8ff" stroke="#63b8ff" points="175.49,-26.53 183.12,-19.18 172.57,-20.17 175.49,-26.53"/>
</g>
<!-- Node3 -->
<g id="node3" class="node">
<title>Node3</title>
<g id="a_node3"><a xlink:href="structImTextureData.html#aa5742593953fabdb7cbee5608327914c" target="_top" xlink:title=" ">
<polygon fill="white" stroke="#666666" points="750,-1077 614,-1077 614,-1058 750,-1058 750,-1077"/>
<text text-anchor="middle" x="682" y="-1065" font-family="Helvetica,sans-Serif" font-size="10.00">ImTextureData::GetPitch</text>
</a>
</g>
</g>
<!-- Node2&#45;&gt;Node3 -->
<g id="edge2" class="edge">
<title>Node2&#45;&gt;Node3</title>
<path fill="none" stroke="#63b8ff" d="M523.26,-1022.55C544.93,-1029.1 570.69,-1036.79 594,-1043.5 607.56,-1047.4 622.34,-1051.53 635.81,-1055.24"/>
<polygon fill="#63b8ff" stroke="#63b8ff" points="635.25,-1058.71 645.82,-1057.99 637.1,-1051.96 635.25,-1058.71"/>
</g>
<!-- Node4 -->
<g id="node4" class="node">
<title>Node4</title>
<g id="a_node4"><a xlink:href="structImTextureData.html#ae7e2edcf13504e8c6de654c5e4127d3b" target="_top" xlink:title=" ">
<polygon fill="white" stroke="#666666" points="1365.5,-925 1214.5,-925 1214.5,-906 1365.5,-906 1365.5,-925"/>
<text text-anchor="middle" x="1290" y="-913" font-family="Helvetica,sans-Serif" font-size="10.00">ImTextureData::GetPixelsAt</text>
</a>
</g>
</g>
<!-- Node2&#45;&gt;Node4 -->
<g id="edge3" class="edge">
<title>Node2&#45;&gt;Node4</title>
<path fill="none" stroke="#63b8ff" d="M558.03,-1018.82C722,-1039.17 1077.37,-1074.18 1178,-1010.5 1209.58,-990.51 1185.13,-958.24 1214,-934.5 1216.04,-932.82 1218.21,-931.29 1220.48,-929.89"/>
<polygon fill="#63b8ff" stroke="#63b8ff" points="1222.39,-932.84 1229.65,-925.12 1219.16,-926.63 1222.39,-932.84"/>
</g>
<!-- Node5 -->
<g id="node5" class="node">
<title>Node5</title>
<g id="a_node5"><a xlink:href="imgui__draw_8cpp.html#ad09f72a150e0ca5f54f0971099b9c2e6" target="_top" xlink:title=" ">
<polygon fill="white" stroke="#666666" points="770,-1114 594,-1114 594,-1095 770,-1095 770,-1114"/>
<text text-anchor="middle" x="682" y="-1102" font-family="Helvetica,sans-Serif" font-size="10.00">ImFontAtlasTextureBlockConvert</text>
</a>
</g>
</g>
<!-- Node2&#45;&gt;Node5 -->
<g id="edge4" class="edge">
<title>Node2&#45;&gt;Node5</title>
<path fill="none" stroke="#63b8ff" d="M492.27,-1022.76C514.77,-1040.75 554.83,-1070.26 594,-1086.5 599.08,-1088.6 604.42,-1090.47 609.87,-1092.13"/>
<polygon fill="#63b8ff" stroke="#63b8ff" points="609.17,-1095.57 619.74,-1094.88 611.05,-1088.82 609.17,-1095.57"/>
</g>
<!-- Node7 -->
<g id="node7" class="node">
<title>Node7</title>
<g id="a_node7"><a xlink:href="imgui__draw_8cpp.html#a3e1a542c0cc52e9e9c7226147a363b35" target="_top" xlink:title=" ">
<polygon fill="white" stroke="#666666" points="761.5,-1001.5 602.5,-1001.5 602.5,-971.5 761.5,-971.5 761.5,-1001.5"/>
<text text-anchor="start" x="610.5" y="-989.5" font-family="Helvetica,sans-Serif" font-size="10.00">ImFontAtlasTextureBlockPost</text>
<text text-anchor="middle" x="682" y="-978.5" font-family="Helvetica,sans-Serif" font-size="10.00">Process</text>
</a>
</g>
</g>
<!-- Node2&#45;&gt;Node7 -->
<g id="edge6" class="edge">
<title>Node2&#45;&gt;Node7</title>
<path fill="none" stroke="#63b8ff" d="M558.19,-998.96C569.34,-997.83 580.79,-996.67 592,-995.53"/>
<polygon fill="#63b8ff" stroke="#63b8ff" points="592.63,-998.98 602.23,-994.49 591.92,-992.02 592.63,-998.98"/>
</g>
<!-- Node10 -->
<g id="node10" class="node">
<title>Node10</title>
<g id="a_node10"><a xlink:href="imgui__draw_8cpp.html#a4361bba2b60ded70d35f43c4f4a3ac41" target="_top" xlink:title=" ">
<polygon fill="white" stroke="#666666" points="767,-914.5 597,-914.5 597,-884.5 767,-884.5 767,-914.5"/>
<text text-anchor="start" x="605" y="-902.5" font-family="Helvetica,sans-Serif" font-size="10.00">ImFontAtlasTextureBlockQueue</text>
<text text-anchor="middle" x="682" y="-891.5" font-family="Helvetica,sans-Serif" font-size="10.00">Upload</text>
</a>
</g>
</g>
<!-- Node2&#45;&gt;Node10 -->
<g id="edge9" class="edge">
<title>Node2&#45;&gt;Node10</title>
<path fill="none" stroke="#63b8ff" d="M502.78,-992.48C539.37,-973.39 602.63,-940.39 643.11,-919.27"/>
<polygon fill="#63b8ff" stroke="#63b8ff" points="644.88,-922.29 652.13,-914.56 641.64,-916.09 644.88,-922.29"/>
</g>
<!-- Node6 -->
<g id="node6" class="node">
<title>Node6</title>
<g id="a_node6"><a xlink:href="imgui__draw_8cpp.html#ab03ee823701d6a6b8b0d95d8ff56be73" target="_top" xlink:title=" ">
<polygon fill="white" stroke="#666666" points="974,-1114.5 806,-1114.5 806,-1084.5 974,-1084.5 974,-1114.5"/>
<text text-anchor="start" x="814" y="-1102.5" font-family="Helvetica,sans-Serif" font-size="10.00">ImTextureDataGetFormatBytes</text>
<text text-anchor="middle" x="890" y="-1091.5" font-family="Helvetica,sans-Serif" font-size="10.00">PerPixel</text>
</a>
</g>
</g>
<!-- Node5&#45;&gt;Node6 -->
<g id="edge5" class="edge">
<title>Node5&#45;&gt;Node6</title>
<path fill="none" stroke="#63b8ff" d="M770.06,-1102.39C778.59,-1102.18 787.26,-1101.97 795.84,-1101.76"/>
<polygon fill="#63b8ff" stroke="#63b8ff" points="795.95,-1105.26 805.86,-1101.52 795.78,-1098.26 795.95,-1105.26"/>
</g>
<!-- Node8 -->
<g id="node8" class="node">
<title>Node8</title>
<g id="a_node8"><a xlink:href="imgui__draw_8cpp.html#ac6609aa9ce31f3607d744ea9d000b38b" target="_top" xlink:title=" ">
<polygon fill="white" stroke="#666666" points="969.5,-1001.5 810.5,-1001.5 810.5,-971.5 969.5,-971.5 969.5,-1001.5"/>
<text text-anchor="start" x="818.5" y="-989.5" font-family="Helvetica,sans-Serif" font-size="10.00">ImFontAtlasTextureBlockPost</text>
<text text-anchor="middle" x="890" y="-978.5" font-family="Helvetica,sans-Serif" font-size="10.00">ProcessMultiply</text>
</a>
</g>
</g>
<!-- Node7&#45;&gt;Node8 -->
<g id="edge7" class="edge">
<title>Node7&#45;&gt;Node8</title>
<path fill="none" stroke="#63b8ff" d="M761.76,-986.5C774.31,-986.5 787.37,-986.5 800.13,-986.5"/>
<polygon fill="#63b8ff" stroke="#63b8ff" points="800.28,-990 810.28,-986.5 800.28,-983 800.28,-990"/>
</g>
<!-- Node9 -->
<g id="node9" class="node">
<title>Node9</title>
<g id="a_node9"><a xlink:href="imgui__internal_8h.html#a7f9d7828066a9d61b5630adcdf4655d3" target="_top" xlink:title=" ">
<polygon fill="white" stroke="#666666" points="1117.5,-1001 1070.5,-1001 1070.5,-982 1117.5,-982 1117.5,-1001"/>
<text text-anchor="middle" x="1094" y="-989" font-family="Helvetica,sans-Serif" font-size="10.00">ImMin</text>
</a>
</g>
</g>
<!-- Node8&#45;&gt;Node9 -->
<g id="edge8" class="edge">
<title>Node8&#45;&gt;Node9</title>
<path fill="none" stroke="#63b8ff" d="M969.68,-988.45C1001.14,-989.23 1035.63,-990.08 1060.12,-990.69"/>
<polygon fill="#63b8ff" stroke="#63b8ff" points="1060.21,-994.19 1070.3,-990.94 1060.39,-987.19 1060.21,-994.19"/>
</g>
<!-- Node10&#45;&gt;Node9 -->
<g id="edge11" class="edge">
<title>Node10&#45;&gt;Node9</title>
<path fill="none" stroke="#63b8ff" d="M754.87,-914.52C813.83,-926.97 899.44,-945.35 974,-962.5 1003.24,-969.23 1036.41,-977.35 1060.28,-983.29"/>
<polygon fill="#63b8ff" stroke="#63b8ff" points="1059.68,-986.74 1070.23,-985.77 1061.37,-979.95 1059.68,-986.74"/>
</g>
<!-- Node11 -->
<g id="node11" class="node">
<title>Node11</title>
<g id="a_node11"><a xlink:href="imgui__internal_8h.html#a7667efd95147d0422f140917c71a9226" target="_top" xlink:title=" ">
<polygon fill="white" stroke="#666666" points="915,-827 865,-827 865,-808 915,-808 915,-827"/>
<text text-anchor="middle" x="890" y="-815" font-family="Helvetica,sans-Serif" font-size="10.00">ImMax</text>
</a>
</g>
</g>
<!-- Node10&#45;&gt;Node11 -->
<g id="edge10" class="edge">
<title>Node10&#45;&gt;Node11</title>
<path fill="none" stroke="#63b8ff" d="M711.76,-884.34C736.34,-871.77 772.87,-854.01 806,-841.5 821.73,-835.56 839.61,-830.22 854.73,-826.09"/>
<polygon fill="#63b8ff" stroke="#63b8ff" points="855.93,-829.39 864.7,-823.44 854.13,-822.63 855.93,-829.39"/>
</g>
<!-- Node12 -->
<g id="node12" class="node">
<title>Node12</title>
<g id="a_node12"><a xlink:href="structImVector.html#aab5df48e0711a48bd12f3206e08c4108" target="_top" xlink:title=" ">
<polygon fill="white" stroke="#666666" points="1349,-678 1231,-678 1231,-659 1349,-659 1349,-678"/>
<text text-anchor="middle" x="1290" y="-666" font-family="Helvetica,sans-Serif" font-size="10.00">ImVector::push_back</text>
</a>
</g>
</g>
<!-- Node10&#45;&gt;Node12 -->
<g id="edge12" class="edge">
<title>Node10&#45;&gt;Node12</title>
<path fill="none" stroke="#63b8ff" d="M767.09,-886.73C904.32,-865.57 1162.79,-824.19 1178,-810.5 1220.65,-772.1 1172.48,-726.11 1214,-686.5 1216.42,-684.19 1219.09,-682.16 1221.92,-680.37"/>
<polygon fill="#63b8ff" stroke="#63b8ff" points="1223.61,-683.44 1230.88,-675.73 1220.39,-677.23 1223.61,-683.44"/>
</g>
<!-- Node13 -->
<g id="node13" class="node">
<title>Node13</title>
<g id="a_node13"><a xlink:href="structImVector.html#a3a097635d464b1b70dc7d59996a88b28" target="_top" xlink:title=" ">
<polygon fill="white" stroke="#666666" points="1564,-740 1422,-740 1422,-721 1564,-721 1564,-740"/>
<text text-anchor="middle" x="1493" y="-728" font-family="Helvetica,sans-Serif" font-size="10.00">ImVector::_grow_capacity</text>
</a>
</g>
</g>
<!-- Node12&#45;&gt;Node13 -->
<g id="edge13" class="edge">
<title>Node12&#45;&gt;Node13</title>
<path fill="none" stroke="#63b8ff" d="M1334.03,-678.04C1344.54,-680.59 1355.72,-683.48 1366,-686.5 1397.4,-695.73 1432.51,-708.17 1457.67,-717.46"/>
<polygon fill="#63b8ff" stroke="#63b8ff" points="1456.55,-720.78 1467.14,-720.99 1458.99,-714.22 1456.55,-720.78"/>
</g>
<!-- Node14 -->
<g id="node14" class="node">
<title>Node14</title>
<g id="a_node14"><a xlink:href="structImVector.html#a0f14f5736c3372157856eebb67123b75" target="_top" xlink:title=" ">
<polygon fill="white" stroke="#666666" points="1544.5,-900 1441.5,-900 1441.5,-881 1544.5,-881 1544.5,-900"/>
<text text-anchor="middle" x="1493" y="-888" font-family="Helvetica,sans-Serif" font-size="10.00">ImVector::reserve</text>
</a>
</g>
</g>
<!-- Node12&#45;&gt;Node14 -->
<g id="edge14" class="edge">
<title>Node12&#45;&gt;Node14</title>
<path fill="none" stroke="#63b8ff" d="M1349.28,-677.35C1355.25,-679.73 1360.97,-682.72 1366,-686.5 1391.8,-705.85 1385.32,-721.9 1402,-749.5 1428.89,-793.99 1462.18,-845.21 1479.77,-871.99"/>
<polygon fill="#63b8ff" stroke="#63b8ff" points="1477.08,-874.26 1485.5,-880.69 1482.93,-870.41 1477.08,-874.26"/>
</g>
<!-- Node16&#45;&gt;Node11 -->
<g id="edge60" class="edge">
<title>Node16&#45;&gt;Node11</title>
<path fill="none" stroke="#63b8ff" d="M328.88,-613.03C337.36,-615.68 345.37,-619.66 352,-625.5 395.7,-664 345.26,-711.94 388,-751.5 520.99,-874.61 765.57,-842.01 855.05,-824.84"/>
<polygon fill="#63b8ff" stroke="#63b8ff" points="855.81,-828.26 864.94,-822.88 854.45,-821.39 855.81,-828.26"/>
</g>
<!-- Node16&#45;&gt;Node12 -->
<g id="edge61" class="edge">
<title>Node16&#45;&gt;Node12</title>
<path fill="none" stroke="#63b8ff" d="M267.22,-601.78C303.13,-551.12 478.36,-319.5 681,-319.5 681,-319.5 681,-319.5 891,-319.5 954.92,-319.5 1127.36,-299.5 1178,-338.5 1279.02,-416.29 1288.93,-589.94 1289.28,-648.66"/>
<polygon fill="#63b8ff" stroke="#63b8ff" points="1285.78,-648.79 1289.25,-658.81 1292.78,-648.82 1285.78,-648.79"/>
</g>
<!-- Node17 -->
<g id="node17" class="node">
<title>Node17</title>
<g id="a_node17"><a xlink:href="imgui__draw_8cpp.html#a97e0b82c321802f15c857859f81ea9ef" target="_top" xlink:title=" ">
<polygon fill="white" stroke="#666666" points="544.5,-704.5 401.5,-704.5 401.5,-674.5 544.5,-674.5 544.5,-704.5"/>
<text text-anchor="start" x="409.5" y="-692.5" font-family="Helvetica,sans-Serif" font-size="10.00">ImFontAtlasPackAllocRect</text>
<text text-anchor="middle" x="473" y="-681.5" font-family="Helvetica,sans-Serif" font-size="10.00">Entry</text>
</a>
</g>
</g>
<!-- Node16&#45;&gt;Node17 -->
<g id="edge17" class="edge">
<title>Node16&#45;&gt;Node17</title>
<path fill="none" stroke="#63b8ff" d="M286.43,-621.06C319.9,-633.41 378.85,-655.15 421.34,-670.82"/>
<polygon fill="#63b8ff" stroke="#63b8ff" points="420.36,-674.19 430.95,-674.36 422.78,-667.62 420.36,-674.19"/>
</g>
<!-- Node20 -->
<g id="node20" class="node">
<title>Node20</title>
<g id="a_node20"><a xlink:href="imgui__draw_8cpp.html#a961a07cb6d9f496c94ff8c9f81dfcb7d" target="_top" xlink:title=" ">
<polygon fill="white" stroke="#666666" points="547.5,-564.5 398.5,-564.5 398.5,-534.5 547.5,-534.5 547.5,-564.5"/>
<text text-anchor="start" x="406.5" y="-552.5" font-family="Helvetica,sans-Serif" font-size="10.00">ImFontAtlasPackReuseRect</text>
<text text-anchor="middle" x="473" y="-541.5" font-family="Helvetica,sans-Serif" font-size="10.00">Entry</text>
</a>
</g>
</g>
<!-- Node16&#45;&gt;Node20 -->
<g id="edge22" class="edge">
<title>Node16&#45;&gt;Node20</title>
<path fill="none" stroke="#63b8ff" d="M292.17,-601.95C317.95,-594.21 355.3,-583.05 388,-573.5 394.91,-571.48 402.14,-569.39 409.34,-567.32"/>
<polygon fill="#63b8ff" stroke="#63b8ff" points="410.45,-570.64 419.1,-564.52 408.52,-563.91 410.45,-570.64"/>
</g>
<!-- Node22 -->
<g id="node22" class="node">
<title>Node22</title>
<g id="a_node22"><a xlink:href="imgui__draw_8cpp.html#ab6db3feee2a9236c83a4cfa35cd8b044" target="_top" xlink:title=" ">
<polygon fill="white" stroke="#666666" points="556.5,-602 389.5,-602 389.5,-583 556.5,-583 556.5,-602"/>
<text text-anchor="middle" x="473" y="-590" font-family="Helvetica,sans-Serif" font-size="10.00">ImFontAtlasTextureMakeSpace</text>
</a>
</g>
</g>
<!-- Node16&#45;&gt;Node22 -->
<g id="edge25" class="edge">
<title>Node16&#45;&gt;Node22</title>
<path fill="none" stroke="#63b8ff" d="M328.58,-605.38C344.74,-603.93 362.24,-602.36 379.28,-600.83"/>
<polygon fill="#63b8ff" stroke="#63b8ff" points="379.6,-604.32 389.24,-599.93 378.97,-597.34 379.6,-604.32"/>
</g>
<!-- Node92 -->
<g id="node45" class="node">
<title>Node92</title>
<g id="a_node45"><a xlink:href="imstb__rectpack_8h.html#af038ae1b98573f24736c9a3eed0478ba" target="_top" xlink:title=" ">
<polygon fill="white" stroke="#666666" points="522.5,-742 423.5,-742 423.5,-723 522.5,-723 522.5,-742"/>
<text text-anchor="middle" x="473" y="-730" font-family="Helvetica,sans-Serif" font-size="10.00">stbrp_pack_rects</text>
</a>
</g>
</g>
<!-- Node16&#45;&gt;Node92 -->
<g id="edge62" class="edge">
<title>Node16&#45;&gt;Node92</title>
<path fill="none" stroke="#63b8ff" d="M269.38,-621.09C288.81,-641.45 337.43,-689.16 388,-713.5 395.93,-717.32 404.65,-720.38 413.38,-722.84"/>
<polygon fill="#63b8ff" stroke="#63b8ff" points="412.65,-726.27 423.21,-725.37 414.39,-719.49 412.65,-726.27"/>
</g>
<!-- Node18 -->
<g id="node18" class="node">
<title>Node18</title>
<g id="a_node18"><a xlink:href="imgui__internal_8h.html#aff5fe59b050fb1d9a54f6b44d5c83b45" target="_top" xlink:title=" ">
<polygon fill="white" stroke="#666666" points="750.5,-715 613.5,-715 613.5,-696 750.5,-696 750.5,-715"/>
<text text-anchor="middle" x="682" y="-703" font-family="Helvetica,sans-Serif" font-size="10.00">ImFontAtlasRectId_Make</text>
</a>
</g>
</g>
<!-- Node17&#45;&gt;Node18 -->
<g id="edge18" class="edge">
<title>Node17&#45;&gt;Node18</title>
<path fill="none" stroke="#63b8ff" d="M544.66,-694.96C563.52,-696.42 584.01,-698 603.23,-699.49"/>
<polygon fill="#63b8ff" stroke="#63b8ff" points="603.22,-703 613.46,-700.28 603.75,-696.02 603.22,-703"/>
</g>
<!-- Node17&#45;&gt;Node19 -->
<g id="edge19" class="edge">
<title>Node17&#45;&gt;Node19</title>
<path fill="none" stroke="#63b8ff" d="M526.7,-704.53C557.27,-713.23 590.45,-722.64 594,-723.5 614.93,-728.55 958.3,-784.77 974,-799.5 1019.27,-842 962,-895.1 1010,-934.5 1042.72,-961.36 1160.37,-959.97 1232.03,-956.36"/>
<polygon fill="#63b8ff" stroke="#63b8ff" points="1232.45,-959.85 1242.25,-955.82 1232.08,-952.86 1232.45,-959.85"/>
</g>
<!-- Node19&#45;&gt;Node13 -->
<g id="edge20" class="edge">
<title>Node19&#45;&gt;Node13</title>
<path fill="none" stroke="#63b8ff" d="M1337.6,-947.44C1347.65,-944.74 1357.73,-940.66 1366,-934.5 1391.56,-915.47 1385.47,-899.74 1402,-872.5 1429.24,-827.61 1462.64,-775.68 1480.09,-748.78"/>
<polygon fill="#63b8ff" stroke="#63b8ff" points="1483.25,-750.35 1485.76,-740.06 1477.38,-746.54 1483.25,-750.35"/>
</g>
<!-- Node19&#45;&gt;Node14 -->
<g id="edge21" class="edge">
<title>Node19&#45;&gt;Node14</title>
<path fill="none" stroke="#63b8ff" d="M1334.03,-942.96C1344.54,-940.41 1355.72,-937.52 1366,-934.5 1397.4,-925.27 1432.51,-912.83 1457.67,-903.54"/>
<polygon fill="#63b8ff" stroke="#63b8ff" points="1458.99,-906.78 1467.14,-900.01 1456.55,-900.22 1458.99,-906.78"/>
</g>
<!-- Node20&#45;&gt;Node18 -->
<g id="edge23" class="edge">
<title>Node20&#45;&gt;Node18</title>
<path fill="none" stroke="#63b8ff" d="M546.39,-564.71C550.59,-567.21 554.52,-570.12 558,-573.5 595.83,-610.21 555.03,-651.01 594,-686.5 597.06,-689.29 600.44,-691.7 604.03,-693.79"/>
<polygon fill="#63b8ff" stroke="#63b8ff" points="602.81,-697.09 613.33,-698.33 605.87,-690.8 602.81,-697.09"/>
</g>
<!-- Node21 -->
<g id="node21" class="node">
<title>Node21</title>
<g id="a_node21"><a xlink:href="structImVector.html#a3fd48379f807eeb01fb9da39afa30dc7" target="_top" xlink:title=" ">
<polygon fill="white" stroke="#666666" points="1164,-478 1024,-478 1024,-459 1164,-459 1164,-478"/>
<text text-anchor="middle" x="1094" y="-466" font-family="Helvetica,sans-Serif" font-size="10.00">ImVector::index_from_ptr</text>
</a>
</g>
</g>
<!-- Node20&#45;&gt;Node21 -->
<g id="edge24" class="edge">
<title>Node20&#45;&gt;Node21</title>
<path fill="none" stroke="#63b8ff" d="M537.6,-534.44C555.75,-530.49 575.59,-526.5 594,-523.5 741.26,-499.5 914.71,-483 1013.48,-474.71"/>
<polygon fill="#63b8ff" stroke="#63b8ff" points="1014,-478.17 1023.68,-473.86 1013.42,-471.2 1014,-478.17"/>
</g>
<!-- Node23 -->
<g id="node23" class="node">
<title>Node23</title>
<g id="a_node23"><a xlink:href="imgui__draw_8cpp.html#a7c23c7c6d5ca50deabb79f717eeab1b7" target="_top" xlink:title=" ">
<polygon fill="white" stroke="#666666" points="765,-552 599,-552 599,-533 765,-533 765,-552"/>
<text text-anchor="middle" x="682" y="-540" font-family="Helvetica,sans-Serif" font-size="10.00">ImFontAtlasBuildDiscardBakes</text>
</a>
</g>
</g>
<!-- Node22&#45;&gt;Node23 -->
<g id="edge26" class="edge">
<title>Node22&#45;&gt;Node23</title>
<path fill="none" stroke="#63b8ff" d="M517.21,-582.94C530.33,-579.98 544.77,-576.66 558,-573.5 583.28,-567.46 611.4,-560.4 634.36,-554.54"/>
<polygon fill="#63b8ff" stroke="#63b8ff" points="635.37,-557.9 644.19,-552.03 633.63,-551.11 635.37,-557.9"/>
</g>
<!-- Node35 -->
<g id="node32" class="node">
<title>Node35</title>
<g id="a_node32"><a xlink:href="imgui__draw_8cpp.html#ad574da8343f063ce995d922236480aac" target="_top" xlink:title=" ">
<polygon fill="white" stroke="#666666" points="750.5,-678 613.5,-678 613.5,-659 750.5,-659 750.5,-678"/>
<text text-anchor="middle" x="682" y="-666" font-family="Helvetica,sans-Serif" font-size="10.00">ImFontAtlasTextureGrow</text>
</a>
</g>
</g>
<!-- Node22&#45;&gt;Node35 -->
<g id="edge36" class="edge">
<title>Node22&#45;&gt;Node35</title>
<path fill="none" stroke="#63b8ff" d="M500.22,-602.13C537.08,-615.66 604.33,-640.35 645.6,-655.5"/>
<polygon fill="#63b8ff" stroke="#63b8ff" points="644.4,-658.79 655,-658.95 646.82,-652.22 644.4,-658.79"/>
</g>
<!-- Node37 -->
<g id="node34" class="node">
<title>Node37</title>
<g id="a_node34"><a xlink:href="imgui__draw_8cpp.html#a774e74d2f6e0b33b6e6b85d4d5c5b3da" target="_top" xlink:title=" ">
<polygon fill="white" stroke="#666666" points="963.5,-640 816.5,-640 816.5,-621 963.5,-621 963.5,-640"/>
<text text-anchor="middle" x="890" y="-628" font-family="Helvetica,sans-Serif" font-size="10.00">ImFontAtlasTextureRepack</text>
</a>
</g>
</g>
<!-- Node22&#45;&gt;Node37 -->
<g id="edge59" class="edge">
<title>Node22&#45;&gt;Node37</title>
<path fill="none" stroke="#63b8ff" d="M556.69,-598.4C616.09,-602.83 698.04,-609.35 770,-616.5 781.72,-617.66 794.09,-619 806.23,-620.37"/>
<polygon fill="#63b8ff" stroke="#63b8ff" points="806.03,-623.87 816.36,-621.53 806.82,-616.92 806.03,-623.87"/>
</g>
<!-- Node24 -->
<g id="node24" class="node">
<title>Node24</title>
<g id="a_node24"><a xlink:href="imgui__draw_8cpp.html#a5b545ff603b726dfe58fb1a673a19c11" target="_top" xlink:title=" ">
<polygon fill="white" stroke="#666666" points="961,-404 819,-404 819,-385 961,-385 961,-404"/>
<text text-anchor="middle" x="890" y="-392" font-family="Helvetica,sans-Serif" font-size="10.00">ImFontAtlasBakedDiscard</text>
</a>
</g>
</g>
<!-- Node23&#45;&gt;Node24 -->
<g id="edge27" class="edge">
<title>Node23&#45;&gt;Node24</title>
<path fill="none" stroke="#63b8ff" d="M696.52,-532.79C731.45,-507.69 824.95,-440.52 867.45,-409.98"/>
<polygon fill="#63b8ff" stroke="#63b8ff" points="869.62,-412.73 875.7,-404.05 865.54,-407.05 869.62,-412.73"/>
</g>
<!-- Node25 -->
<g id="node25" class="node">
<title>Node25</title>
<g id="a_node25"><a xlink:href="structImFontBaked.html#ab97e16ef7ce03a16d79bceffd409b762" target="_top" xlink:title=" ">
<polygon fill="#fff0f0" stroke="red" points="1178,-441 1010,-441 1010,-422 1178,-422 1178,-441"/>
<text text-anchor="middle" x="1094" y="-429" font-family="Helvetica,sans-Serif" font-size="10.00">ImFontBaked::ClearOutputData</text>
</a>
</g>
</g>
<!-- Node24&#45;&gt;Node25 -->
<g id="edge28" class="edge">
<title>Node24&#45;&gt;Node25</title>
<path fill="none" stroke="#63b8ff" d="M943.02,-404.03C969.78,-408.93 1002.58,-414.94 1030.69,-420.09"/>
<polygon fill="#63b8ff" stroke="#63b8ff" points="1030.34,-423.58 1040.81,-421.94 1031.6,-416.7 1030.34,-423.58"/>
</g>
<!-- Node27 -->
<g id="node26" class="node">
<title>Node27</title>
<g id="a_node26"><a xlink:href="structImFont.html#a51ebaa238a7efd72875b270cbd813590" target="_top" xlink:title=" ">
<polygon fill="white" stroke="#666666" points="1161,-404 1027,-404 1027,-385 1161,-385 1161,-404"/>
<text text-anchor="middle" x="1094" y="-392" font-family="Helvetica,sans-Serif" font-size="10.00">ImFont::GetDebugName</text>
</a>
</g>
</g>
<!-- Node24&#45;&gt;Node27 -->
<g id="edge29" class="edge">
<title>Node24&#45;&gt;Node27</title>
<path fill="none" stroke="#63b8ff" d="M961.08,-394.5C979.06,-394.5 998.49,-394.5 1016.76,-394.5"/>
<polygon fill="#63b8ff" stroke="#63b8ff" points="1016.78,-398 1026.78,-394.5 1016.78,-391 1016.78,-398"/>
</g>
<!-- Node28 -->
<g id="node27" class="node">
<title>Node28</title>
<g id="a_node27"><a xlink:href="imgui__draw_8cpp.html#a53458cee397384163c40b3042561aa87" target="_top" xlink:title=" ">
<polygon fill="white" stroke="#666666" points="1172,-291 1016,-291 1016,-272 1172,-272 1172,-291"/>
<text text-anchor="middle" x="1094" y="-279" font-family="Helvetica,sans-Serif" font-size="10.00">ImFontAtlasPackDiscardRect</text>
</a>
</g>
</g>
<!-- Node24&#45;&gt;Node28 -->
<g id="edge30" class="edge">
<title>Node24&#45;&gt;Node28</title>
<path fill="none" stroke="#63b8ff" d="M908.22,-384.87C943.7,-365.02 1025.12,-319.47 1067.03,-296.03"/>
<polygon fill="#63b8ff" stroke="#63b8ff" points="1068.8,-299.05 1075.82,-291.11 1065.39,-292.94 1068.8,-299.05"/>
</g>
<!-- Node32 -->
<g id="node31" class="node">
<title>Node32</title>
<g id="a_node31"><a xlink:href="structImGuiStorage.html#a55f840086b3ec9cf63c67f02d159204a" target="_top" xlink:title=" ">
<polygon fill="#fff0f0" stroke="red" points="1164,-367 1024,-367 1024,-348 1164,-348 1164,-367"/>
<text text-anchor="middle" x="1094" y="-355" font-family="Helvetica,sans-Serif" font-size="10.00">ImGuiStorage::SetVoidPtr</text>
</a>
</g>
</g>
<!-- Node24&#45;&gt;Node32 -->
<g id="edge35" class="edge">
<title>Node24&#45;&gt;Node32</title>
<path fill="none" stroke="#63b8ff" d="M943.02,-384.97C969.78,-380.07 1002.58,-374.06 1030.69,-368.91"/>
<polygon fill="#63b8ff" stroke="#63b8ff" points="1031.6,-372.3 1040.81,-367.06 1030.34,-365.42 1031.6,-372.3"/>
</g>
<!-- Node28&#45;&gt;Node29 -->
<g id="edge31" class="edge">
<title>Node28&#45;&gt;Node29</title>
<path fill="none" stroke="#63b8ff" d="M1172.23,-281.5C1185.07,-281.5 1198.39,-281.5 1211.25,-281.5"/>
<polygon fill="#63b8ff" stroke="#63b8ff" points="1211.44,-285 1221.44,-281.5 1211.44,-278 1211.44,-285"/>
</g>
<!-- Node31 -->
<g id="node30" class="node">
<title>Node31</title>
<g id="a_node30"><a xlink:href="imgui__internal_8h.html#aa98db9ab353d51f962cc6cfe7c39a9d2" target="_top" xlink:title=" ">
<polygon fill="white" stroke="#666666" points="1570.5,-329 1415.5,-329 1415.5,-310 1570.5,-310 1570.5,-329"/>
<text text-anchor="middle" x="1493" y="-317" font-family="Helvetica,sans-Serif" font-size="10.00">ImFontAtlasRectId_GetIndex</text>
</a>
</g>
</g>
<!-- Node28&#45;&gt;Node31 -->
<g id="edge34" class="edge">
<title>Node28&#45;&gt;Node31</title>
<path fill="none" stroke="#63b8ff" d="M1151.78,-291.01C1171.44,-294.06 1193.65,-297.23 1214,-299.5 1277.95,-306.63 1350.47,-311.74 1405.4,-315.02"/>
<polygon fill="#63b8ff" stroke="#63b8ff" points="1405.26,-318.52 1415.45,-315.61 1405.67,-311.53 1405.26,-318.52"/>
</g>
<!-- Node30 -->
<g id="node29" class="node">
<title>Node30</title>
<g id="a_node29"><a xlink:href="imgui__internal_8h.html#a6039a69a67990d53ef5ae5b1118c6b32" target="_top" xlink:title=" ">
<polygon fill="white" stroke="#666666" points="1584,-291 1402,-291 1402,-272 1584,-272 1584,-291"/>
<text text-anchor="middle" x="1493" y="-279" font-family="Helvetica,sans-Serif" font-size="10.00">ImFontAtlasRectId_GetGeneration</text>
</a>
</g>
</g>
<!-- Node29&#45;&gt;Node30 -->
<g id="edge32" class="edge">
<title>Node29&#45;&gt;Node30</title>
<path fill="none" stroke="#63b8ff" d="M1358.77,-281.5C1369.33,-281.5 1380.43,-281.5 1391.53,-281.5"/>
<polygon fill="#63b8ff" stroke="#63b8ff" points="1391.7,-285 1401.7,-281.5 1391.7,-278 1391.7,-285"/>
</g>
<!-- Node29&#45;&gt;Node31 -->
<g id="edge33" class="edge">
<title>Node29&#45;&gt;Node31</title>
<path fill="none" stroke="#63b8ff" d="M1341.46,-291.04C1368.82,-296.21 1402.82,-302.64 1431.58,-308.08"/>
<polygon fill="#63b8ff" stroke="#63b8ff" points="1431.04,-311.54 1441.52,-309.96 1432.34,-304.66 1431.04,-311.54"/>
</g>
<!-- Node35&#45;&gt;Node11 -->
<g id="edge57" class="edge">
<title>Node35&#45;&gt;Node11</title>
<path fill="none" stroke="#63b8ff" d="M750.84,-676C757.72,-678.63 764.28,-682.05 770,-686.5 798.87,-708.95 782.13,-732.78 806,-760.5 821.11,-778.05 842.81,-792.7 860.23,-802.75"/>
<polygon fill="#63b8ff" stroke="#63b8ff" points="858.96,-806.05 869.4,-807.85 862.36,-799.93 858.96,-806.05"/>
</g>
<!-- Node36 -->
<g id="node33" class="node">
<title>Node36</title>
<g id="a_node33"><a xlink:href="imgui__internal_8h.html#a6e61ede308bfd68c7434e17905a29fc8" target="_top" xlink:title=" ">
<polygon fill="white" stroke="#666666" points="920.5,-677 859.5,-677 859.5,-658 920.5,-658 920.5,-677"/>
<text text-anchor="middle" x="890" y="-665" font-family="Helvetica,sans-Serif" font-size="10.00">ImClamp</text>
</a>
</g>
</g>
<!-- Node35&#45;&gt;Node36 -->
<g id="edge37" class="edge">
<title>Node35&#45;&gt;Node36</title>
<path fill="none" stroke="#63b8ff" d="M750.74,-668.17C783.39,-668.01 821.42,-667.83 849.32,-667.69"/>
<polygon fill="#63b8ff" stroke="#63b8ff" points="849.5,-671.19 859.48,-667.64 849.46,-664.19 849.5,-671.19"/>
</g>
<!-- Node35&#45;&gt;Node37 -->
<g id="edge38" class="edge">
<title>Node35&#45;&gt;Node37</title>
<path fill="none" stroke="#63b8ff" d="M709.51,-658.91C733.94,-652.71 771.52,-645.14 805.99,-639.18"/>
<polygon fill="#63b8ff" stroke="#63b8ff" points="806.82,-642.59 816.09,-637.46 805.65,-635.68 806.82,-642.59"/>
</g>
<!-- Node91 -->
<g id="node43" class="node">
<title>Node91</title>
<g id="a_node43"><a xlink:href="imgui__internal_8h.html#a3cc719adb48b1aed8ab1196ecea7e828" target="_top" xlink:title=" ">
<polygon fill="white" stroke="#666666" points="939,-751 841,-751 841,-732 939,-732 939,-751"/>
<text text-anchor="middle" x="890" y="-739" font-family="Helvetica,sans-Serif" font-size="10.00">ImIsPowerOfTwo</text>
</a>
</g>
</g>
<!-- Node35&#45;&gt;Node91 -->
<g id="edge56" class="edge">
<title>Node35&#45;&gt;Node91</title>
<path fill="none" stroke="#63b8ff" d="M749.52,-678.02C756.65,-680.27 763.62,-683.06 770,-686.5 789.91,-697.24 786.2,-711.55 806,-722.5 813.71,-726.76 822.32,-730.07 831.01,-732.64"/>
<polygon fill="#63b8ff" stroke="#63b8ff" points="830.23,-736.05 840.79,-735.23 832.02,-729.29 830.23,-736.05"/>
</g>
<!-- Node74 -->
<g id="node44" class="node">
<title>Node74</title>
<g id="a_node44"><a xlink:href="imgui__internal_8h.html#adae096c61c812293ec61ac541c146674" target="_top" xlink:title=" ">
<polygon fill="white" stroke="#666666" points="949.5,-714 830.5,-714 830.5,-695 949.5,-695 949.5,-714"/>
<text text-anchor="middle" x="890" y="-702" font-family="Helvetica,sans-Serif" font-size="10.00">ImUpperPowerOfTwo</text>
</a>
</g>
</g>
<!-- Node35&#45;&gt;Node74 -->
<g id="edge58" class="edge">
<title>Node35&#45;&gt;Node74</title>
<path fill="none" stroke="#63b8ff" d="M737.39,-678.01C764.04,-682.66 796.32,-688.3 824.23,-693.18"/>
<polygon fill="#63b8ff" stroke="#63b8ff" points="823.85,-696.67 834.3,-694.94 825.05,-689.77 823.85,-696.67"/>
</g>
<!-- Node37&#45;&gt;Node16 -->
<g id="edge43" class="edge">
<title>Node37&#45;&gt;Node16</title>
<path fill="none" stroke="#63b8ff" d="M816.2,-628.3C697.03,-624.7 461.33,-617.57 338.72,-613.86"/>
<polygon fill="#63b8ff" stroke="#63b8ff" points="338.76,-610.36 328.66,-613.56 338.55,-617.36 338.76,-610.36"/>
</g>
<!-- Node37&#45;&gt;Node21 -->
<g id="edge54" class="edge">
<title>Node37&#45;&gt;Node21</title>
<path fill="none" stroke="#63b8ff" d="M896.57,-620.79C911.52,-595.6 955.15,-527.69 1010,-492.5 1017.08,-487.96 1025.04,-484.26 1033.15,-481.24"/>
<polygon fill="#63b8ff" stroke="#63b8ff" points="1034.35,-484.53 1042.7,-478.01 1032.11,-477.9 1034.35,-484.53"/>
</g>
<!-- Node37&#45;&gt;Node29 -->
<g id="edge44" class="edge">
<title>Node37&#45;&gt;Node29</title>
<path fill="none" stroke="#63b8ff" d="M899.53,-620.91C917.77,-600.98 962.78,-554.93 1010,-530.5 1078.55,-495.03 1117.28,-534.15 1178,-486.5 1240.71,-437.29 1272.63,-342.47 1284.02,-301.34"/>
<polygon fill="#63b8ff" stroke="#63b8ff" points="1287.46,-302.02 1286.64,-291.46 1280.69,-300.22 1287.46,-302.02"/>
</g>
<!-- Node37&#45;&gt;Node31 -->
<g id="edge46" class="edge">
<title>Node37&#45;&gt;Node31</title>
<path fill="none" stroke="#63b8ff" d="M905.02,-620.91C926.65,-606.53 969.86,-579.35 1010,-563.5 1081.49,-535.27 1107.41,-552.9 1178,-522.5 1298.67,-470.53 1424.81,-373.84 1472.34,-335.64"/>
<polygon fill="#63b8ff" stroke="#63b8ff" points="1474.71,-338.22 1480.28,-329.21 1470.31,-332.78 1474.71,-338.22"/>
</g>
<!-- Node37&#45;&gt;Node35 -->
<g id="edge52" class="edge">
<title>Node37&#45;&gt;Node35</title>
<path fill="none" stroke="#63b8ff" d="M862.65,-640.05C836.98,-646.57 796.67,-654.63 760.74,-660.73"/>
<polygon fill="#63b8ff" stroke="#63b8ff" points="760.03,-657.3 750.74,-662.39 761.18,-664.2 760.03,-657.3"/>
</g>
<!-- Node38 -->
<g id="node35" class="node">
<title>Node38</title>
<g id="a_node35"><a xlink:href="imgui__draw_8cpp.html#a10edae7dc82c6255c63f3d6761f204f5" target="_top" xlink:title=" ">
<polygon fill="#fff0f0" stroke="red" points="1366,-715 1214,-715 1214,-696 1366,-696 1366,-715"/>
<text text-anchor="middle" x="1290" y="-703" font-family="Helvetica,sans-Serif" font-size="10.00">ImFontAtlasBuildSetTexture</text>
</a>
</g>
</g>
<!-- Node37&#45;&gt;Node38 -->
<g id="edge39" class="edge">
<title>Node37&#45;&gt;Node38</title>
<path fill="none" stroke="#63b8ff" d="M954.08,-640.04C961.02,-642.29 967.81,-645.07 974,-648.5 994.07,-659.63 989.2,-675.82 1010,-685.5 1070.44,-713.61 1146.27,-717.33 1203.62,-714.73"/>
<polygon fill="#63b8ff" stroke="#63b8ff" points="1203.94,-718.21 1213.74,-714.19 1203.57,-711.22 1203.94,-718.21"/>
</g>
<!-- Node45 -->
<g id="node36" class="node">
<title>Node45</title>
<g id="a_node36"><a xlink:href="imgui__draw_8cpp.html#ab393bf8b3bb80eec2e65edae02153d8c" target="_top" xlink:title=" ">
<polygon fill="#fff0f0" stroke="red" points="1174.5,-602.5 1013.5,-602.5 1013.5,-572.5 1174.5,-572.5 1174.5,-602.5"/>
<text text-anchor="start" x="1021.5" y="-590.5" font-family="Helvetica,sans-Serif" font-size="10.00">ImFontAtlasBuildUpdateBasic</text>
<text text-anchor="middle" x="1094" y="-579.5" font-family="Helvetica,sans-Serif" font-size="10.00">TexData</text>
</a>
</g>
</g>
<!-- Node37&#45;&gt;Node45 -->
<g id="edge40" class="edge">
<title>Node37&#45;&gt;Node45</title>
<path fill="none" stroke="#63b8ff" d="M935.83,-620.96C958.4,-616.15 986.46,-610.18 1012.6,-604.62"/>
<polygon fill="#63b8ff" stroke="#63b8ff" points="1013.45,-608.01 1022.51,-602.51 1012,-601.17 1013.45,-608.01"/>
</g>
<!-- Node50 -->
<g id="node37" class="node">
<title>Node50</title>
<g id="a_node37"><a xlink:href="imgui__draw_8cpp.html#ae1947e9ba26126e2cd94f8772df62b88" target="_top" xlink:title=" ">
<polygon fill="#fff0f0" stroke="red" points="1174.5,-887.5 1013.5,-887.5 1013.5,-857.5 1174.5,-857.5 1174.5,-887.5"/>
<text text-anchor="start" x="1021.5" y="-875.5" font-family="Helvetica,sans-Serif" font-size="10.00">ImFontAtlasBuildUpdateLines</text>
<text text-anchor="middle" x="1094" y="-864.5" font-family="Helvetica,sans-Serif" font-size="10.00">TexData</text>
</a>
</g>
</g>
<!-- Node37&#45;&gt;Node50 -->
<g id="edge41" class="edge">
<title>Node37&#45;&gt;Node50</title>
<path fill="none" stroke="#63b8ff" d="M962.75,-640.08C966.85,-642.4 970.66,-645.17 974,-648.5 1026.29,-700.52 969.95,-748.56 1010,-810.5 1021.04,-827.58 1038.52,-841.66 1054.59,-852.07"/>
<polygon fill="#63b8ff" stroke="#63b8ff" points="1052.98,-855.19 1063.33,-857.47 1056.66,-849.23 1052.98,-855.19"/>
</g>
<!-- Node68 -->
<g id="node38" class="node">
<title>Node68</title>
<g id="a_node38"><a xlink:href="imgui__draw_8cpp.html#a352dcf39de7ba575d8e1c1db1f11c45a" target="_top" xlink:title=" ">
<polygon fill="#fff0f0" stroke="red" points="1150.5,-801 1037.5,-801 1037.5,-782 1150.5,-782 1150.5,-801"/>
<text text-anchor="middle" x="1094" y="-789" font-family="Helvetica,sans-Serif" font-size="10.00">ImFontAtlasPackInit</text>
</a>
</g>
</g>
<!-- Node37&#45;&gt;Node68 -->
<g id="edge45" class="edge">
<title>Node37&#45;&gt;Node68</title>
<path fill="none" stroke="#63b8ff" d="M962.12,-640.12C966.42,-642.42 970.44,-645.18 974,-648.5 1015.95,-687.65 968.27,-733.11 1010,-772.5 1015.06,-777.27 1021.05,-780.93 1027.48,-783.73"/>
<polygon fill="#63b8ff" stroke="#63b8ff" points="1026.55,-787.11 1037.14,-787.23 1028.93,-780.53 1026.55,-787.11"/>
</g>
<!-- Node70 -->
<g id="node39" class="node">
<title>Node70</title>
<g id="a_node39"><a xlink:href="imgui__draw_8cpp.html#a5279b1dafad68a1ab42121440c59ce0f" target="_top" xlink:title=" ">
<polygon fill="#fff0f0" stroke="red" points="1159,-640 1029,-640 1029,-621 1159,-621 1159,-640"/>
<text text-anchor="middle" x="1094" y="-628" font-family="Helvetica,sans-Serif" font-size="10.00">ImFontAtlasTextureAdd</text>
</a>
</g>
</g>
<!-- Node37&#45;&gt;Node70 -->
<g id="edge47" class="edge">
<title>Node37&#45;&gt;Node70</title>
<path fill="none" stroke="#63b8ff" d="M963.64,-630.5C981.5,-630.5 1000.65,-630.5 1018.59,-630.5"/>
<polygon fill="#63b8ff" stroke="#63b8ff" points="1018.7,-634 1028.7,-630.5 1018.7,-627 1018.7,-634"/>
</g>
<!-- Node89 -->
<g id="node40" class="node">
<title>Node89</title>
<g id="a_node40"><a xlink:href="imgui__draw_8cpp.html#a0438e0b3d9708f5fd9f7213631bd540b" target="_top" xlink:title=" ">
<polygon fill="white" stroke="#666666" points="1175.5,-925 1012.5,-925 1012.5,-906 1175.5,-906 1175.5,-925"/>
<text text-anchor="middle" x="1094" y="-913" font-family="Helvetica,sans-Serif" font-size="10.00">ImFontAtlasTextureBlockCopy</text>
</a>
</g>
</g>
<!-- Node37&#45;&gt;Node89 -->
<g id="edge50" class="edge">
<title>Node37&#45;&gt;Node89</title>
<path fill="none" stroke="#63b8ff" d="M963.42,-640.03C967.3,-642.36 970.88,-645.16 974,-648.5 1049.98,-729.94 934.49,-814.62 1010,-896.5 1011.21,-897.81 1012.48,-899.03 1013.82,-900.18"/>
<polygon fill="#63b8ff" stroke="#63b8ff" points="1011.87,-903.1 1022.07,-905.97 1015.89,-897.36 1011.87,-903.1"/>
</g>
<!-- Node73 -->
<g id="node41" class="node">
<title>Node73</title>
<g id="a_node41"><a xlink:href="imgui__draw_8cpp.html#ad83271ddd5cf9c02c9cc72fb33299369" target="_top" xlink:title=" ">
<polygon fill="white" stroke="#666666" points="1173,-763.5 1015,-763.5 1015,-733.5 1173,-733.5 1173,-763.5"/>
<text text-anchor="start" x="1023" y="-751.5" font-family="Helvetica,sans-Serif" font-size="10.00">ImFontAtlasUpdateDrawLists</text>
<text text-anchor="middle" x="1094" y="-740.5" font-family="Helvetica,sans-Serif" font-size="10.00">SharedData</text>
</a>
</g>
</g>
<!-- Node37&#45;&gt;Node73 -->
<g id="edge53" class="edge">
<title>Node37&#45;&gt;Node73</title>
<path fill="none" stroke="#63b8ff" d="M959.82,-640.16C964.88,-642.42 969.68,-645.17 974,-648.5 1002,-670.12 983.37,-696.2 1010,-719.5 1013.92,-722.93 1018.27,-725.96 1022.87,-728.64"/>
<polygon fill="#63b8ff" stroke="#63b8ff" points="1021.47,-731.86 1031.96,-733.36 1024.7,-725.65 1021.47,-731.86"/>
</g>
<!-- Node90 -->
<g id="node42" class="node">
<title>Node90</title>
<g id="a_node42"><a xlink:href="structImVector.html#afcec0d2a1e28aebe412b6efd06f0a77a" target="_top" xlink:title=" ">
<polygon fill="white" stroke="#666666" points="1140,-677 1048,-677 1048,-658 1140,-658 1140,-677"/>
<text text-anchor="middle" x="1094" y="-665" font-family="Helvetica,sans-Serif" font-size="10.00">ImVector::swap</text>
</a>
</g>
</g>
<!-- Node37&#45;&gt;Node90 -->
<g id="edge55" class="edge">
<title>Node37&#45;&gt;Node90</title>
<path fill="none" stroke="#63b8ff" d="M943.02,-640.03C971.99,-645.33 1008.04,-651.94 1037.54,-657.34"/>
<polygon fill="#63b8ff" stroke="#63b8ff" points="1037.21,-660.84 1047.68,-659.2 1038.48,-653.95 1037.21,-660.84"/>
</g>
<!-- Node50&#45;&gt;Node4 -->
<g id="edge42" class="edge">
<title>Node50&#45;&gt;Node4</title>
<path fill="none" stroke="#63b8ff" d="M1162.85,-887.54C1186.82,-892.85 1213.42,-898.75 1235.98,-903.75"/>
<polygon fill="#63b8ff" stroke="#63b8ff" points="1235.52,-907.23 1246.04,-905.98 1237.03,-900.4 1235.52,-907.23"/>
</g>
<!-- Node70&#45;&gt;Node12 -->
<g id="edge49" class="edge">
<title>Node70&#45;&gt;Node12</title>
<path fill="none" stroke="#63b8ff" d="M1143.95,-640.09C1170.25,-645.24 1202.84,-651.62 1230.47,-657.03"/>
<polygon fill="#63b8ff" stroke="#63b8ff" points="1229.91,-660.49 1240.4,-658.98 1231.26,-653.62 1229.91,-660.49"/>
</g>
<!-- Node70&#45;&gt;Node38 -->
<g id="edge48" class="edge">
<title>Node70&#45;&gt;Node38</title>
<path fill="none" stroke="#63b8ff" d="M1158.56,-640.1C1165.34,-642.34 1171.96,-645.1 1178,-648.5 1198.27,-659.92 1193.93,-674.73 1214,-686.5 1217.72,-688.68 1221.68,-690.61 1225.76,-692.32"/>
<polygon fill="#63b8ff" stroke="#63b8ff" points="1224.88,-695.72 1235.47,-695.93 1227.32,-689.16 1224.88,-695.72"/>
</g>
<!-- Node89&#45;&gt;Node4 -->
<g id="edge51" class="edge">
<title>Node89&#45;&gt;Node4</title>
<path fill="none" stroke="#63b8ff" d="M1175.59,-915.5C1184.99,-915.5 1194.61,-915.5 1204.07,-915.5"/>
<polygon fill="#63b8ff" stroke="#63b8ff" points="1204.25,-919 1214.25,-915.5 1204.25,-912 1204.25,-919"/>
</g>
</g>
</svg>
