<?xml version="1.0" encoding="UTF-8" standalone="no"?>
<!DOCTYPE svg PUBLIC "-//W3C//DTD SVG 1.1//EN"
 "http://www.w3.org/Graphics/SVG/1.1/DTD/svg11.dtd">
<!-- Generated by graphviz version 2.43.0 (0)
 -->
<!-- Title: ImFileOpen Pages: 1 -->
<svg width="1150pt" height="226pt"
 viewBox="0.00 0.00 1150.00 225.50" xmlns="http://www.w3.org/2000/svg" xmlns:xlink="http://www.w3.org/1999/xlink">
<g id="graph0" class="graph" transform="scale(1 1) rotate(0) translate(4 221.5)">
<title>ImFileOpen</title>
<!-- Node1 -->
<g id="node1" class="node">
<title>Node1</title>
<g id="a_node1"><a xlink:title=" ">
<polygon fill="#999999" stroke="#666666" points="1142,-94 1070,-94 1070,-75 1142,-75 1142,-94"/>
<text text-anchor="middle" x="1106" y="-82" font-family="Helvetica,sans-Serif" font-size="10.00">ImFileOpen</text>
</a>
</g>
</g>
<!-- Node2 -->
<g id="node2" class="node">
<title>Node2</title>
<g id="a_node2"><a xlink:href="imgui_8cpp.html#acdc4b377b19c5dbd32e76bd0066c8476" target="_top" xlink:title=" ">
<polygon fill="white" stroke="#666666" points="1014.5,-169 893.5,-169 893.5,-150 1014.5,-150 1014.5,-169"/>
<text text-anchor="middle" x="954" y="-157" font-family="Helvetica,sans-Serif" font-size="10.00">ImFileLoadToMemory</text>
</a>
</g>
</g>
<!-- Node1&#45;&gt;Node2 -->
<g id="edge1" class="edge">
<title>Node1&#45;&gt;Node2</title>
<path fill="none" stroke="#63b8ff" d="M1076.59,-98.71C1046.61,-113.7 1000.18,-136.91 974.23,-149.89"/>
<polygon fill="#63b8ff" stroke="#63b8ff" points="1078.32,-101.75 1085.7,-94.15 1075.19,-95.49 1078.32,-101.75"/>
</g>
<!-- Node10 -->
<g id="node10" class="node">
<title>Node10</title>
<g id="a_node10"><a xlink:href="namespaceImGui.html#a8feab4b22519bc5eae9754b0ad545d81" target="_top" xlink:title=" ">
<polygon fill="white" stroke="#666666" points="1002.5,-38 905.5,-38 905.5,-19 1002.5,-19 1002.5,-38"/>
<text text-anchor="middle" x="954" y="-26" font-family="Helvetica,sans-Serif" font-size="10.00">ImGui::LogToFile</text>
</a>
</g>
</g>
<!-- Node1&#45;&gt;Node10 -->
<g id="edge9" class="edge">
<title>Node1&#45;&gt;Node10</title>
<path fill="none" stroke="#63b8ff" d="M1069.61,-71.29C1042.22,-61.06 1004.95,-47.15 980.45,-38"/>
<polygon fill="#63b8ff" stroke="#63b8ff" points="1068.62,-74.65 1079.21,-74.87 1071.07,-68.1 1068.62,-74.65"/>
</g>
<!-- Node13 -->
<g id="node13" class="node">
<title>Node13</title>
<g id="a_node13"><a xlink:href="namespaceImGui.html#afa4985e7810be4e687bc4ff28cec8a4d" target="_top" xlink:title=" ">
<polygon fill="white" stroke="#666666" points="1034,-94 874,-94 874,-75 1034,-75 1034,-94"/>
<text text-anchor="middle" x="954" y="-82" font-family="Helvetica,sans-Serif" font-size="10.00">ImGui::SaveIniSettingsToDisk</text>
</a>
</g>
</g>
<!-- Node1&#45;&gt;Node13 -->
<g id="edge12" class="edge">
<title>Node1&#45;&gt;Node13</title>
<path fill="none" stroke="#63b8ff" d="M1059.82,-84.5C1051.64,-84.5 1042.9,-84.5 1034.09,-84.5"/>
<polygon fill="#63b8ff" stroke="#63b8ff" points="1059.83,-88 1069.83,-84.5 1059.83,-81 1059.83,-88"/>
</g>
<!-- Node3 -->
<g id="node3" class="node">
<title>Node3</title>
<g id="a_node3"><a xlink:href="structImFontAtlas.html#a4c6bafad7f84b9de141e70b549b3601c" target="_top" xlink:title=" ">
<polygon fill="white" stroke="#666666" points="824.5,-217.5 678.5,-217.5 678.5,-187.5 824.5,-187.5 824.5,-217.5"/>
<text text-anchor="start" x="686.5" y="-205.5" font-family="Helvetica,sans-Serif" font-size="10.00">ImFontAtlas::AddFontFrom</text>
<text text-anchor="middle" x="751.5" y="-194.5" font-family="Helvetica,sans-Serif" font-size="10.00">FileTTF</text>
</a>
</g>
</g>
<!-- Node2&#45;&gt;Node3 -->
<g id="edge2" class="edge">
<title>Node2&#45;&gt;Node3</title>
<path fill="none" stroke="#63b8ff" d="M898.72,-171.14C875.24,-176.18 847.47,-182.13 822.47,-187.49"/>
<polygon fill="#63b8ff" stroke="#63b8ff" points="899.46,-174.56 908.5,-169.04 897.99,-167.72 899.46,-174.56"/>
</g>
<!-- Node5 -->
<g id="node5" class="node">
<title>Node5</title>
<g id="a_node5"><a xlink:href="namespaceImGui.html#a4bf22fb84ba768fc18383af50e8c217f" target="_top" xlink:title=" ">
<polygon fill="white" stroke="#666666" points="838,-169 665,-169 665,-150 838,-150 838,-169"/>
<text text-anchor="middle" x="751.5" y="-157" font-family="Helvetica,sans-Serif" font-size="10.00">ImGui::LoadIniSettingsFromDisk</text>
</a>
</g>
</g>
<!-- Node2&#45;&gt;Node5 -->
<g id="edge4" class="edge">
<title>Node2&#45;&gt;Node5</title>
<path fill="none" stroke="#63b8ff" d="M883.04,-159.5C868.57,-159.5 853.18,-159.5 838.23,-159.5"/>
<polygon fill="#63b8ff" stroke="#63b8ff" points="883.39,-163 893.39,-159.5 883.39,-156 883.39,-163"/>
</g>
<!-- Node4 -->
<g id="node4" class="node">
<title>Node4</title>
<g id="a_node4"><a xlink:href="classmtgb_1_1ImGuiRenderer.html#a4db4a95a57f586a5fda30be1957f247a" target="_top" xlink:title=" ">
<polygon fill="white" stroke="#666666" points="617,-217.5 495,-217.5 495,-187.5 617,-187.5 617,-217.5"/>
<text text-anchor="start" x="503" y="-205.5" font-family="Helvetica,sans-Serif" font-size="10.00">mtgb::ImGuiRenderer</text>
<text text-anchor="middle" x="556" y="-194.5" font-family="Helvetica,sans-Serif" font-size="10.00">::Initialize</text>
</a>
</g>
</g>
<!-- Node3&#45;&gt;Node4 -->
<g id="edge3" class="edge">
<title>Node3&#45;&gt;Node4</title>
<path fill="none" stroke="#63b8ff" d="M668.4,-202.5C651.18,-202.5 633.32,-202.5 617.08,-202.5"/>
<polygon fill="#63b8ff" stroke="#63b8ff" points="668.45,-206 678.45,-202.5 668.45,-199 668.45,-206"/>
</g>
<!-- Node6 -->
<g id="node6" class="node">
<title>Node6</title>
<g id="a_node6"><a xlink:href="namespaceImGui.html#a8bdb90b84ec6e306d312fc8bfb7caf64" target="_top" xlink:title=" ">
<polygon fill="white" stroke="#666666" points="619.5,-94 492.5,-94 492.5,-75 619.5,-75 619.5,-94"/>
<text text-anchor="middle" x="556" y="-82" font-family="Helvetica,sans-Serif" font-size="10.00">ImGui::UpdateSettings</text>
</a>
</g>
</g>
<!-- Node5&#45;&gt;Node6 -->
<g id="edge5" class="edge">
<title>Node5&#45;&gt;Node6</title>
<path fill="none" stroke="#63b8ff" d="M675.39,-146.44C671.8,-144.97 668.32,-143.33 665,-141.5 644.9,-130.43 648.74,-116.2 629,-104.5 621.75,-100.2 613.53,-96.8 605.32,-94.11"/>
<polygon fill="#63b8ff" stroke="#63b8ff" points="674.48,-149.84 685.08,-149.97 676.88,-143.26 674.48,-149.84"/>
</g>
<!-- Node7 -->
<g id="node7" class="node">
<title>Node7</title>
<g id="a_node7"><a xlink:href="namespaceImGui.html#ab3f1fc018f903b7ad79fd10663375774" target="_top" xlink:title=" ">
<polygon fill="white" stroke="#666666" points="438,-92 334,-92 334,-73 438,-73 438,-92"/>
<text text-anchor="middle" x="386" y="-80" font-family="Helvetica,sans-Serif" font-size="10.00">ImGui::NewFrame</text>
</a>
</g>
</g>
<!-- Node6&#45;&gt;Node7 -->
<g id="edge6" class="edge">
<title>Node6&#45;&gt;Node7</title>
<path fill="none" stroke="#63b8ff" d="M482.24,-83.63C467.37,-83.46 452.01,-83.27 438.09,-83.11"/>
<polygon fill="#63b8ff" stroke="#63b8ff" points="482.4,-87.14 492.44,-83.76 482.49,-80.14 482.4,-87.14"/>
</g>
<!-- Node8 -->
<g id="node8" class="node">
<title>Node8</title>
<g id="a_node8"><a xlink:href="classmtgb_1_1ImGuiRenderer.html#a4684d4374beee1f52053b4634edae2c8" target="_top" xlink:title=" ">
<polygon fill="white" stroke="#666666" points="289,-97.5 167,-97.5 167,-67.5 289,-67.5 289,-97.5"/>
<text text-anchor="start" x="175" y="-85.5" font-family="Helvetica,sans-Serif" font-size="10.00">mtgb::ImGuiRenderer</text>
<text text-anchor="middle" x="228" y="-74.5" font-family="Helvetica,sans-Serif" font-size="10.00">::BeginFrame</text>
</a>
</g>
</g>
<!-- Node7&#45;&gt;Node8 -->
<g id="edge7" class="edge">
<title>Node7&#45;&gt;Node8</title>
<path fill="none" stroke="#63b8ff" d="M323.66,-82.5C312.31,-82.5 300.47,-82.5 289.15,-82.5"/>
<polygon fill="#63b8ff" stroke="#63b8ff" points="323.92,-86 333.92,-82.5 323.92,-79 323.92,-86"/>
</g>
<!-- Node9 -->
<g id="node9" class="node">
<title>Node9</title>
<g id="a_node9"><a xlink:href="classmtgb_1_1RenderSystem.html#a14e39d4590efdf77c2085b12c6f3cdf5" target="_top" xlink:title=" ">
<polygon fill="white" stroke="#666666" points="131,-97.5 0,-97.5 0,-67.5 131,-67.5 131,-97.5"/>
<text text-anchor="start" x="8" y="-85.5" font-family="Helvetica,sans-Serif" font-size="10.00">mtgb::RenderSystem</text>
<text text-anchor="middle" x="65.5" y="-74.5" font-family="Helvetica,sans-Serif" font-size="10.00">::RenderImGuiWindows</text>
</a>
</g>
</g>
<!-- Node8&#45;&gt;Node9 -->
<g id="edge8" class="edge">
<title>Node8&#45;&gt;Node9</title>
<path fill="none" stroke="#63b8ff" d="M156.55,-82.5C148.08,-82.5 139.47,-82.5 131.09,-82.5"/>
<polygon fill="#63b8ff" stroke="#63b8ff" points="156.78,-86 166.78,-82.5 156.78,-79 156.78,-86"/>
</g>
<!-- Node11 -->
<g id="node11" class="node">
<title>Node11</title>
<g id="a_node11"><a xlink:href="namespaceImGui.html#a7bd295da4be19bab98262c76fcaeb4fb" target="_top" xlink:title=" ">
<polygon fill="white" stroke="#666666" points="805,-19 698,-19 698,0 805,0 805,-19"/>
<text text-anchor="middle" x="751.5" y="-7" font-family="Helvetica,sans-Serif" font-size="10.00">ImGui::LogButtons</text>
</a>
</g>
</g>
<!-- Node10&#45;&gt;Node11 -->
<g id="edge10" class="edge">
<title>Node10&#45;&gt;Node11</title>
<path fill="none" stroke="#63b8ff" d="M895.31,-23.03C866.94,-20.35 833,-17.13 805.32,-14.51"/>
<polygon fill="#63b8ff" stroke="#63b8ff" points="895.2,-26.54 905.48,-24 895.86,-19.57 895.2,-26.54"/>
</g>
<!-- Node12 -->
<g id="node12" class="node">
<title>Node12</title>
<g id="a_node12"><a xlink:href="namespaceImGui.html#af95643a0ce4893b9e57c12991922fb18" target="_top" xlink:title=" ">
<polygon fill="white" stroke="#666666" points="629,-38 483,-38 483,-19 629,-19 629,-38"/>
<text text-anchor="middle" x="556" y="-26" font-family="Helvetica,sans-Serif" font-size="10.00">ImGui::ShowDemoWindow</text>
</a>
</g>
</g>
<!-- Node11&#45;&gt;Node12 -->
<g id="edge11" class="edge">
<title>Node11&#45;&gt;Node12</title>
<path fill="none" stroke="#63b8ff" d="M687.72,-15.66C669.05,-17.5 648.44,-19.52 629.21,-21.41"/>
<polygon fill="#63b8ff" stroke="#63b8ff" points="688.27,-19.13 697.88,-14.67 687.59,-12.16 688.27,-19.13"/>
</g>
<!-- Node13&#45;&gt;Node6 -->
<g id="edge18" class="edge">
<title>Node13&#45;&gt;Node6</title>
<path fill="none" stroke="#63b8ff" d="M863.54,-84.5C789.26,-84.5 685.49,-84.5 619.78,-84.5"/>
<polygon fill="#63b8ff" stroke="#63b8ff" points="863.82,-88 873.82,-84.5 863.82,-81 863.82,-88"/>
</g>
<!-- Node14 -->
<g id="node14" class="node">
<title>Node14</title>
<g id="a_node14"><a xlink:href="namespaceImGui.html#afe7a28c6eb52fff3cc27d5a698fea4ff" target="_top" xlink:title=" ">
<polygon fill="white" stroke="#666666" points="828,-56 675,-56 675,-37 828,-37 828,-56"/>
<text text-anchor="middle" x="751.5" y="-44" font-family="Helvetica,sans-Serif" font-size="10.00">ImGui::ShowMetricsWindow</text>
</a>
</g>
</g>
<!-- Node13&#45;&gt;Node14 -->
<g id="edge13" class="edge">
<title>Node13&#45;&gt;Node14</title>
<path fill="none" stroke="#63b8ff" d="M892.75,-73.08C864.07,-67.64 830.15,-61.22 802.86,-56.04"/>
<polygon fill="#63b8ff" stroke="#63b8ff" points="892.19,-76.54 902.66,-74.96 893.49,-69.66 892.19,-76.54"/>
</g>
<!-- Node15 -->
<g id="node15" class="node">
<title>Node15</title>
<g id="a_node15"><a xlink:href="namespaceImGui.html#aeba34069558d4fbcf734a9c92ce3b773" target="_top" xlink:title=" ">
<polygon fill="white" stroke="#666666" points="801.5,-132 701.5,-132 701.5,-113 801.5,-113 801.5,-132"/>
<text text-anchor="middle" x="751.5" y="-120" font-family="Helvetica,sans-Serif" font-size="10.00">ImGui::Shutdown</text>
</a>
</g>
</g>
<!-- Node13&#45;&gt;Node15 -->
<g id="edge15" class="edge">
<title>Node13&#45;&gt;Node15</title>
<path fill="none" stroke="#63b8ff" d="M892.64,-95.94C863.61,-101.44 829.25,-107.95 801.82,-113.15"/>
<polygon fill="#63b8ff" stroke="#63b8ff" points="893.49,-99.34 902.66,-94.04 892.19,-92.46 893.49,-99.34"/>
</g>
<!-- Node14&#45;&gt;Node12 -->
<g id="edge14" class="edge">
<title>Node14&#45;&gt;Node12</title>
<path fill="none" stroke="#63b8ff" d="M664.89,-38.54C652.95,-37.43 640.77,-36.29 629.11,-35.21"/>
<polygon fill="#63b8ff" stroke="#63b8ff" points="664.58,-42.02 674.86,-39.46 665.22,-35.05 664.58,-42.02"/>
</g>
<!-- Node16 -->
<g id="node16" class="node">
<title>Node16</title>
<g id="a_node16"><a xlink:href="namespaceImGui.html#ab9132deece575023170cd8e681d0581d" target="_top" xlink:title=" ">
<polygon fill="white" stroke="#666666" points="620,-133 492,-133 492,-114 620,-114 620,-133"/>
<text text-anchor="middle" x="556" y="-121" font-family="Helvetica,sans-Serif" font-size="10.00">ImGui::DestroyContext</text>
</a>
</g>
</g>
<!-- Node15&#45;&gt;Node16 -->
<g id="edge16" class="edge">
<title>Node15&#45;&gt;Node16</title>
<path fill="none" stroke="#63b8ff" d="M691.34,-122.81C668.85,-122.92 643.16,-123.05 620.31,-123.17"/>
<polygon fill="#63b8ff" stroke="#63b8ff" points="691.44,-126.31 701.42,-122.75 691.4,-119.31 691.44,-126.31"/>
</g>
<!-- Node17 -->
<g id="node17" class="node">
<title>Node17</title>
<g id="a_node17"><a xlink:href="classmtgb_1_1ImGuiRenderer.html#a9ef4f353cce28e09af4b18d95f4a253b" target="_top" xlink:title="開放処理">
<polygon fill="white" stroke="#666666" points="447,-140.5 325,-140.5 325,-110.5 447,-110.5 447,-140.5"/>
<text text-anchor="start" x="333" y="-128.5" font-family="Helvetica,sans-Serif" font-size="10.00">mtgb::ImGuiRenderer</text>
<text text-anchor="middle" x="386" y="-117.5" font-family="Helvetica,sans-Serif" font-size="10.00">::Release</text>
</a>
</g>
</g>
<!-- Node16&#45;&gt;Node17 -->
<g id="edge17" class="edge">
<title>Node16&#45;&gt;Node17</title>
<path fill="none" stroke="#63b8ff" d="M481.85,-124.37C470.23,-124.51 458.32,-124.65 447.05,-124.79"/>
<polygon fill="#63b8ff" stroke="#63b8ff" points="482.01,-127.87 491.97,-124.25 481.92,-120.87 482.01,-127.87"/>
</g>
</g>
</svg>
