<?xml version="1.0" encoding="UTF-8" standalone="no"?>
<!DOCTYPE svg PUBLIC "-//W3C//DTD SVG 1.1//EN"
 "http://www.w3.org/Graphics/SVG/1.1/DTD/svg11.dtd">
<!-- Generated by graphviz version 2.43.0 (0)
 -->
<!-- Title: ImStrimatchlen Pages: 1 -->
<svg width="493pt" height="86pt"
 viewBox="0.00 0.00 493.00 86.00" xmlns="http://www.w3.org/2000/svg" xmlns:xlink="http://www.w3.org/1999/xlink">
<g id="graph0" class="graph" transform="scale(1 1) rotate(0) translate(4 82)">
<title>ImStrimatchlen</title>
<!-- Node1 -->
<g id="node1" class="node">
<title>Node1</title>
<g id="a_node1"><a xlink:title=" ">
<polygon fill="#999999" stroke="#666666" points="485,-48.5 393,-48.5 393,-29.5 485,-29.5 485,-48.5"/>
<text text-anchor="middle" x="439" y="-36.5" font-family="Helvetica,sans-Serif" font-size="10.00">ImStrimatchlen</text>
</a>
</g>
</g>
<!-- Node2 -->
<g id="node2" class="node">
<title>Node2</title>
<g id="a_node2"><a xlink:href="namespaceImGui.html#acb850fb78a02ecd78c256730c8b712aa" target="_top" xlink:title=" ">
<polygon fill="white" stroke="#666666" points="356,-78 201,-78 201,-48 356,-48 356,-78"/>
<text text-anchor="start" x="209" y="-66" font-family="Helvetica,sans-Serif" font-size="10.00">ImGui::TypingSelectFindBest</text>
<text text-anchor="middle" x="278.5" y="-55" font-family="Helvetica,sans-Serif" font-size="10.00">LeadingMatch</text>
</a>
</g>
</g>
<!-- Node1&#45;&gt;Node2 -->
<g id="edge1" class="edge">
<title>Node1&#45;&gt;Node2</title>
<path fill="none" stroke="#63b8ff" d="M382.69,-47.38C374.07,-48.68 365.04,-50.05 356.05,-51.41"/>
<polygon fill="#63b8ff" stroke="#63b8ff" points="383.22,-50.84 392.58,-45.88 382.17,-43.91 383.22,-50.84"/>
</g>
<!-- Node4 -->
<g id="node4" class="node">
<title>Node4</title>
<g id="a_node4"><a xlink:href="namespaceImGui.html#a370869a016f66fb90750a72d5f7bcbd2" target="_top" xlink:title=" ">
<polygon fill="white" stroke="#666666" points="357,-30 200,-30 200,0 357,0 357,-30"/>
<text text-anchor="start" x="208" y="-18" font-family="Helvetica,sans-Serif" font-size="10.00">ImGui::TypingSelectFindNext</text>
<text text-anchor="middle" x="278.5" y="-7" font-family="Helvetica,sans-Serif" font-size="10.00">SingleCharMatch</text>
</a>
</g>
</g>
<!-- Node1&#45;&gt;Node4 -->
<g id="edge3" class="edge">
<title>Node1&#45;&gt;Node4</title>
<path fill="none" stroke="#63b8ff" d="M382.47,-30.59C374.3,-29.35 365.76,-28.06 357.25,-26.77"/>
<polygon fill="#63b8ff" stroke="#63b8ff" points="382.17,-34.09 392.58,-32.12 383.22,-27.16 382.17,-34.09"/>
</g>
<!-- Node3 -->
<g id="node3" class="node">
<title>Node3</title>
<g id="a_node3"><a xlink:href="namespaceImGui.html#a8650c2ec1a532a5b7d67975716c5a90b" target="_top" xlink:title=" ">
<polygon fill="white" stroke="#666666" points="164,-48.5 0,-48.5 0,-29.5 164,-29.5 164,-48.5"/>
<text text-anchor="middle" x="82" y="-36.5" font-family="Helvetica,sans-Serif" font-size="10.00">ImGui::TypingSelectFindMatch</text>
</a>
</g>
</g>
<!-- Node2&#45;&gt;Node3 -->
<g id="edge2" class="edge">
<title>Node2&#45;&gt;Node3</title>
<path fill="none" stroke="#63b8ff" d="M190.78,-52.3C180.58,-51.04 170.22,-49.76 160.16,-48.52"/>
<polygon fill="#63b8ff" stroke="#63b8ff" points="190.55,-55.8 200.91,-53.55 191.41,-48.85 190.55,-55.8"/>
</g>
<!-- Node4&#45;&gt;Node3 -->
<g id="edge4" class="edge">
<title>Node4&#45;&gt;Node3</title>
<path fill="none" stroke="#63b8ff" d="M189.64,-25.84C179.85,-27.05 169.92,-28.27 160.27,-29.47"/>
<polygon fill="#63b8ff" stroke="#63b8ff" points="190.29,-29.29 199.79,-24.59 189.44,-22.34 190.29,-29.29"/>
</g>
</g>
</svg>
