<?xml version="1.0" encoding="UTF-8" standalone="no"?>
<!DOCTYPE svg PUBLIC "-//W3C//DTD SVG 1.1//EN"
 "http://www.w3.org/Graphics/SVG/1.1/DTD/svg11.dtd">
<!-- Generated by graphviz version 2.43.0 (0)
 -->
<!-- Title: ImGuiInputCommand.h Pages: 1 -->
<svg width="230pt" height="247pt"
 viewBox="0.00 0.00 229.50 247.00" xmlns="http://www.w3.org/2000/svg" xmlns:xlink="http://www.w3.org/1999/xlink">
<g id="graph0" class="graph" transform="scale(1 1) rotate(0) translate(4 243)">
<title>ImGuiInputCommand.h</title>
<!-- Node1 -->
<g id="node1" class="node">
<title>Node1</title>
<g id="a_node1"><a xlink:title=" ">
<polygon fill="#999999" stroke="#666666" points="130,-239 0,-239 0,-220 130,-220 130,-239"/>
<text text-anchor="middle" x="65" y="-227" font-family="Helvetica,sans-Serif" font-size="10.00">ImGuiInputCommand.h</text>
</a>
</g>
</g>
<!-- Node2 -->
<g id="node2" class="node">
<title>Node2</title>
<g id="a_node2"><a xlink:title=" ">
<polygon fill="#e0e0e0" stroke="#999999" points="67,-129 23,-129 23,-110 67,-110 67,-129"/>
<text text-anchor="middle" x="45" y="-117" font-family="Helvetica,sans-Serif" font-size="10.00">string</text>
</a>
</g>
</g>
<!-- Node1&#45;&gt;Node2 -->
<g id="edge1" class="edge">
<title>Node1&#45;&gt;Node2</title>
<path fill="none" stroke="#63b8ff" d="M52.22,-220C41.61,-212.1 27.28,-199.27 21,-184 14.58,-168.39 22.86,-150.37 31.4,-137.52"/>
<polygon fill="#63b8ff" stroke="#63b8ff" points="34.4,-139.34 37.45,-129.19 28.74,-135.22 34.4,-139.34"/>
</g>
<!-- Node3 -->
<g id="node3" class="node">
<title>Node3</title>
<g id="a_node3"><a xlink:title=" ">
<polygon fill="#e0e0e0" stroke="#999999" points="99.5,-184 30.5,-184 30.5,-165 99.5,-165 99.5,-184"/>
<text text-anchor="middle" x="65" y="-172" font-family="Helvetica,sans-Serif" font-size="10.00">type_traits</text>
</a>
</g>
</g>
<!-- Node1&#45;&gt;Node3 -->
<g id="edge2" class="edge">
<title>Node1&#45;&gt;Node3</title>
<path fill="none" stroke="#63b8ff" d="M65,-219.75C65,-212.8 65,-202.85 65,-194.13"/>
<polygon fill="#63b8ff" stroke="#63b8ff" points="68.5,-194.09 65,-184.09 61.5,-194.09 68.5,-194.09"/>
</g>
<!-- Node4 -->
<g id="node4" class="node">
<title>Node4</title>
<g id="a_node4"><a xlink:href="Command_8h.html" target="_top" xlink:title=" ">
<polygon fill="white" stroke="#666666" points="194,-184 118,-184 118,-165 194,-165 194,-184"/>
<text text-anchor="middle" x="156" y="-172" font-family="Helvetica,sans-Serif" font-size="10.00">Command.h</text>
</a>
</g>
</g>
<!-- Node1&#45;&gt;Node4 -->
<g id="edge3" class="edge">
<title>Node1&#45;&gt;Node4</title>
<path fill="none" stroke="#63b8ff" d="M79.62,-219.98C93.86,-211.69 115.75,-198.94 132.45,-189.22"/>
<polygon fill="#63b8ff" stroke="#63b8ff" points="134.23,-192.23 141.11,-184.17 130.71,-186.18 134.23,-192.23"/>
</g>
<!-- Node4&#45;&gt;Node2 -->
<g id="edge4" class="edge">
<title>Node4&#45;&gt;Node2</title>
<path fill="none" stroke="#63b8ff" d="M138.17,-164.98C120.39,-156.5 92.85,-143.35 72.32,-133.54"/>
<polygon fill="#63b8ff" stroke="#63b8ff" points="73.69,-130.32 63.16,-129.17 70.67,-136.64 73.69,-130.32"/>
</g>
<!-- Node5 -->
<g id="node5" class="node">
<title>Node5</title>
<g id="a_node5"><a xlink:href="cmtgb_8h.html" target="_top" xlink:title=" ">
<polygon fill="white" stroke="#666666" points="184,-129 128,-129 128,-110 184,-110 184,-129"/>
<text text-anchor="middle" x="156" y="-117" font-family="Helvetica,sans-Serif" font-size="10.00">cmtgb.h</text>
</a>
</g>
</g>
<!-- Node4&#45;&gt;Node5 -->
<g id="edge5" class="edge">
<title>Node4&#45;&gt;Node5</title>
<path fill="none" stroke="#63b8ff" d="M156,-164.75C156,-157.8 156,-147.85 156,-139.13"/>
<polygon fill="#63b8ff" stroke="#63b8ff" points="159.5,-139.09 156,-129.09 152.5,-139.09 159.5,-139.09"/>
</g>
<!-- Node6 -->
<g id="node6" class="node">
<title>Node6</title>
<g id="a_node6"><a xlink:title=" ">
<polygon fill="#e0e0e0" stroke="#999999" points="180,-19 130,-19 130,0 180,0 180,-19"/>
<text text-anchor="middle" x="155" y="-7" font-family="Helvetica,sans-Serif" font-size="10.00">cstdint</text>
</a>
</g>
</g>
<!-- Node5&#45;&gt;Node6 -->
<g id="edge6" class="edge">
<title>Node5&#45;&gt;Node6</title>
<path fill="none" stroke="#63b8ff" d="M152.66,-109.8C149.45,-100.94 144.82,-86.75 143,-74 140.81,-58.71 144.45,-41.5 148.28,-28.86"/>
<polygon fill="#63b8ff" stroke="#63b8ff" points="151.69,-29.68 151.55,-19.09 145.05,-27.46 151.69,-29.68"/>
</g>
<!-- Node7 -->
<g id="node7" class="node">
<title>Node7</title>
<g id="a_node7"><a xlink:href="Handlers_8h.html" target="_top" xlink:title=" ">
<polygon fill="white" stroke="#666666" points="221.5,-74 152.5,-74 152.5,-55 221.5,-55 221.5,-74"/>
<text text-anchor="middle" x="187" y="-62" font-family="Helvetica,sans-Serif" font-size="10.00">Handlers.h</text>
</a>
</g>
</g>
<!-- Node5&#45;&gt;Node7 -->
<g id="edge7" class="edge">
<title>Node5&#45;&gt;Node7</title>
<path fill="none" stroke="#63b8ff" d="M161.12,-109.75C165.36,-102.49 171.53,-91.95 176.78,-82.98"/>
<polygon fill="#63b8ff" stroke="#63b8ff" points="179.95,-84.49 181.98,-74.09 173.91,-80.95 179.95,-84.49"/>
</g>
<!-- Node7&#45;&gt;Node6 -->
<g id="edge8" class="edge">
<title>Node7&#45;&gt;Node6</title>
<path fill="none" stroke="#63b8ff" d="M181.72,-54.75C177.29,-47.42 170.84,-36.73 165.38,-27.7"/>
<polygon fill="#63b8ff" stroke="#63b8ff" points="168.35,-25.84 160.19,-19.09 162.36,-29.46 168.35,-25.84"/>
</g>
</g>
</svg>
