<?xml version="1.0" encoding="UTF-8" standalone="no"?>
<!DOCTYPE svg PUBLIC "-//W3C//DTD SVG 1.1//EN"
 "http://www.w3.org/Graphics/SVG/1.1/DTD/svg11.dtd">
<!-- Generated by graphviz version 2.43.0 (0)
 -->
<!-- Title: ShowDebugLogFlag Pages: 1 -->
<svg width="694pt" height="46pt"
 viewBox="0.00 0.00 694.00 46.00" xmlns="http://www.w3.org/2000/svg" xmlns:xlink="http://www.w3.org/1999/xlink">
<g id="graph0" class="graph" transform="scale(1 1) rotate(0) translate(4 42)">
<title>ShowDebugLogFlag</title>
<!-- Node1 -->
<g id="node1" class="node">
<title>Node1</title>
<g id="a_node1"><a xlink:title=" ">
<polygon fill="#999999" stroke="#666666" points="686,-38 573,-38 573,-19 686,-19 686,-38"/>
<text text-anchor="middle" x="629.5" y="-26" font-family="Helvetica,sans-Serif" font-size="10.00">ShowDebugLogFlag</text>
</a>
</g>
</g>
<!-- Node2 -->
<g id="node2" class="node">
<title>Node2</title>
<g id="a_node2"><a xlink:href="namespaceImGui.html#af1b39e70cac2e1b9e62dd3c9d154cbd6" target="_top" xlink:title=" ">
<polygon fill="white" stroke="#666666" points="537,-38 371,-38 371,-19 537,-19 537,-38"/>
<text text-anchor="middle" x="454" y="-26" font-family="Helvetica,sans-Serif" font-size="10.00">ImGui::ShowDebugLogWindow</text>
</a>
</g>
</g>
<!-- Node1&#45;&gt;Node2 -->
<g id="edge1" class="edge">
<title>Node1&#45;&gt;Node2</title>
<path fill="none" stroke="#63b8ff" d="M562.4,-28.5C554.18,-28.5 545.7,-28.5 537.28,-28.5"/>
<polygon fill="#63b8ff" stroke="#63b8ff" points="562.65,-32 572.65,-28.5 562.65,-25 562.65,-32"/>
</g>
<!-- Node3 -->
<g id="node3" class="node">
<title>Node3</title>
<g id="a_node3"><a xlink:href="namespaceImGui.html#af95643a0ce4893b9e57c12991922fb18" target="_top" xlink:title=" ">
<polygon fill="white" stroke="#666666" points="146,-38 0,-38 0,-19 146,-19 146,-38"/>
<text text-anchor="middle" x="73" y="-26" font-family="Helvetica,sans-Serif" font-size="10.00">ImGui::ShowDemoWindow</text>
</a>
</g>
</g>
<!-- Node2&#45;&gt;Node3 -->
<g id="edge2" class="edge">
<title>Node2&#45;&gt;Node3</title>
<path fill="none" stroke="#63b8ff" d="M360.37,-28.5C294.39,-28.5 206.99,-28.5 146.17,-28.5"/>
<polygon fill="#63b8ff" stroke="#63b8ff" points="360.76,-32 370.76,-28.5 360.76,-25 360.76,-32"/>
</g>
<!-- Node4 -->
<g id="node4" class="node">
<title>Node4</title>
<g id="a_node4"><a xlink:href="namespaceImGui.html#afe7a28c6eb52fff3cc27d5a698fea4ff" target="_top" xlink:title=" ">
<polygon fill="white" stroke="#666666" points="335,-19 182,-19 182,0 335,0 335,-19"/>
<text text-anchor="middle" x="258.5" y="-7" font-family="Helvetica,sans-Serif" font-size="10.00">ImGui::ShowMetricsWindow</text>
</a>
</g>
</g>
<!-- Node2&#45;&gt;Node4 -->
<g id="edge3" class="edge">
<title>Node2&#45;&gt;Node4</title>
<path fill="none" stroke="#63b8ff" d="M360.89,-19.46C352.29,-18.61 343.65,-17.76 335.23,-16.94"/>
<polygon fill="#63b8ff" stroke="#63b8ff" points="360.64,-22.95 370.94,-20.44 361.33,-15.98 360.64,-22.95"/>
</g>
<!-- Node4&#45;&gt;Node3 -->
<g id="edge4" class="edge">
<title>Node4&#45;&gt;Node3</title>
<path fill="none" stroke="#63b8ff" d="M171.82,-18.37C163.28,-19.26 154.66,-20.15 146.28,-21.02"/>
<polygon fill="#63b8ff" stroke="#63b8ff" points="172.22,-21.85 181.8,-17.34 171.5,-14.89 172.22,-21.85"/>
</g>
</g>
</svg>
