<?xml version="1.0" encoding="UTF-8" standalone="no"?>
<!DOCTYPE svg PUBLIC "-//W3C//DTD SVG 1.1//EN"
 "http://www.w3.org/Graphics/SVG/1.1/DTD/svg11.dtd">
<!-- Generated by graphviz version 2.43.0 (0)
 -->
<!-- Title: BoxSelectActivateDrag Pages: 1 -->
<svg width="933pt" height="94pt"
 viewBox="0.00 0.00 933.00 93.50" xmlns="http://www.w3.org/2000/svg" xmlns:xlink="http://www.w3.org/1999/xlink">
<g id="graph0" class="graph" transform="scale(1 1) rotate(0) translate(4 89.5)">
<title>BoxSelectActivateDrag</title>
<!-- Node1 -->
<g id="node1" class="node">
<title>Node1</title>
<g id="a_node1"><a xlink:title=" ">
<polygon fill="#999999" stroke="#666666" points="129,-45.5 0,-45.5 0,-26.5 129,-26.5 129,-45.5"/>
<text text-anchor="middle" x="64.5" y="-33.5" font-family="Helvetica,sans-Serif" font-size="10.00">BoxSelectActivateDrag</text>
</a>
</g>
</g>
<!-- Node2 -->
<g id="node2" class="node">
<title>Node2</title>
<g id="a_node2"><a xlink:href="namespaceImGui.html#a27b8ace13a8c421ee8405f0cbebe4ead" target="_top" xlink:title=" ">
<polygon fill="white" stroke="#666666" points="293.5,-67.5 184.5,-67.5 184.5,-48.5 293.5,-48.5 293.5,-67.5"/>
<text text-anchor="middle" x="239" y="-55.5" font-family="Helvetica,sans-Serif" font-size="10.00">ImGui::SetActiveID</text>
</a>
</g>
</g>
<!-- Node1&#45;&gt;Node2 -->
<g id="edge1" class="edge">
<title>Node1&#45;&gt;Node2</title>
<path fill="none" stroke="#63b8ff" d="M129.24,-44.13C143.98,-46.01 159.66,-48.01 174.39,-49.89"/>
<polygon fill="#63b8ff" stroke="#63b8ff" points="174.06,-53.37 184.42,-51.17 174.94,-46.43 174.06,-53.37"/>
</g>
<!-- Node7 -->
<g id="node7" class="node">
<title>Node7</title>
<g id="a_node7"><a xlink:href="namespaceImGui.html#a5e5b2b1969b119d6932116f28fbd4d53" target="_top" xlink:title=" ">
<polygon fill="white" stroke="#666666" points="313,-30 165,-30 165,0 313,0 313,-30"/>
<text text-anchor="start" x="173" y="-18" font-family="Helvetica,sans-Serif" font-size="10.00">ImGui::SetActiveIdUsingAll</text>
<text text-anchor="middle" x="239" y="-7" font-family="Helvetica,sans-Serif" font-size="10.00">KeyboardKeys</text>
</a>
</g>
</g>
<!-- Node1&#45;&gt;Node7 -->
<g id="edge6" class="edge">
<title>Node1&#45;&gt;Node7</title>
<path fill="none" stroke="#63b8ff" d="M129.24,-28.24C137.59,-27.22 146.24,-26.17 154.85,-25.12"/>
<polygon fill="#63b8ff" stroke="#63b8ff" points="155.41,-28.58 164.91,-23.9 154.56,-21.63 155.41,-28.58"/>
</g>
<!-- Node3 -->
<g id="node3" class="node">
<title>Node3</title>
<g id="a_node3"><a xlink:href="namespaceImGui.html#aad9419cf6e296c668807e3af4bfd62bb" target="_top" xlink:title=" ">
<polygon fill="white" stroke="#666666" points="525,-67.5 349,-67.5 349,-48.5 525,-48.5 525,-67.5"/>
<text text-anchor="middle" x="437" y="-55.5" font-family="Helvetica,sans-Serif" font-size="10.00">ImGui::InputTextDeactivateHook</text>
</a>
</g>
</g>
<!-- Node2&#45;&gt;Node3 -->
<g id="edge2" class="edge">
<title>Node2&#45;&gt;Node3</title>
<path fill="none" stroke="#63b8ff" d="M293.56,-58C307.6,-58 323.18,-58 338.74,-58"/>
<polygon fill="#63b8ff" stroke="#63b8ff" points="338.94,-61.5 348.94,-58 338.94,-54.5 338.94,-61.5"/>
</g>
<!-- Node4 -->
<g id="node4" class="node">
<title>Node4</title>
<g id="a_node4"><a xlink:href="structImVector.html#ac371dd62e56ae486b1a5038cf07eee56" target="_top" xlink:title=" ">
<polygon fill="white" stroke="#666666" points="701.5,-67.5 606.5,-67.5 606.5,-48.5 701.5,-48.5 701.5,-67.5"/>
<text text-anchor="middle" x="654" y="-55.5" font-family="Helvetica,sans-Serif" font-size="10.00">ImVector::resize</text>
</a>
</g>
</g>
<!-- Node3&#45;&gt;Node4 -->
<g id="edge3" class="edge">
<title>Node3&#45;&gt;Node4</title>
<path fill="none" stroke="#63b8ff" d="M525.14,-58C549.16,-58 574.58,-58 596.38,-58"/>
<polygon fill="#63b8ff" stroke="#63b8ff" points="596.44,-61.5 606.44,-58 596.44,-54.5 596.44,-61.5"/>
</g>
<!-- Node5 -->
<g id="node5" class="node">
<title>Node5</title>
<g id="a_node5"><a xlink:href="structImVector.html#a3a097635d464b1b70dc7d59996a88b28" target="_top" xlink:title=" ">
<polygon fill="white" stroke="#666666" points="925,-85.5 783,-85.5 783,-66.5 925,-66.5 925,-85.5"/>
<text text-anchor="middle" x="854" y="-73.5" font-family="Helvetica,sans-Serif" font-size="10.00">ImVector::_grow_capacity</text>
</a>
</g>
</g>
<!-- Node4&#45;&gt;Node5 -->
<g id="edge4" class="edge">
<title>Node4&#45;&gt;Node5</title>
<path fill="none" stroke="#63b8ff" d="M701.67,-62.24C722.88,-64.17 748.59,-66.51 772.74,-68.7"/>
<polygon fill="#63b8ff" stroke="#63b8ff" points="772.71,-72.22 782.99,-69.64 773.34,-65.24 772.71,-72.22"/>
</g>
<!-- Node6 -->
<g id="node6" class="node">
<title>Node6</title>
<g id="a_node6"><a xlink:href="structImVector.html#a0f14f5736c3372157856eebb67123b75" target="_top" xlink:title=" ">
<polygon fill="white" stroke="#666666" points="905.5,-48.5 802.5,-48.5 802.5,-29.5 905.5,-29.5 905.5,-48.5"/>
<text text-anchor="middle" x="854" y="-36.5" font-family="Helvetica,sans-Serif" font-size="10.00">ImVector::reserve</text>
</a>
</g>
</g>
<!-- Node4&#45;&gt;Node6 -->
<g id="edge5" class="edge">
<title>Node4&#45;&gt;Node6</title>
<path fill="none" stroke="#63b8ff" d="M701.67,-53.52C728.77,-50.92 763.22,-47.62 792.4,-44.82"/>
<polygon fill="#63b8ff" stroke="#63b8ff" points="792.86,-48.29 802.48,-43.85 792.19,-41.32 792.86,-48.29"/>
</g>
<!-- Node8 -->
<g id="node8" class="node">
<title>Node8</title>
<g id="a_node8"><a xlink:href="namespaceImGui.html#a43326bb080d9fa80327ed81d864d8b8d" target="_top" xlink:title=" ">
<polygon fill="white" stroke="#666666" points="522.5,-24.5 351.5,-24.5 351.5,-5.5 522.5,-5.5 522.5,-24.5"/>
<text text-anchor="middle" x="437" y="-12.5" font-family="Helvetica,sans-Serif" font-size="10.00">ImGui::NavMoveRequestCancel</text>
</a>
</g>
</g>
<!-- Node7&#45;&gt;Node8 -->
<g id="edge7" class="edge">
<title>Node7&#45;&gt;Node8</title>
<path fill="none" stroke="#63b8ff" d="M313.26,-15C322.36,-15 331.77,-15 341.14,-15"/>
<polygon fill="#63b8ff" stroke="#63b8ff" points="341.28,-18.5 351.28,-15 341.28,-11.5 341.28,-18.5"/>
</g>
<!-- Node9 -->
<g id="node9" class="node">
<title>Node9</title>
<g id="a_node9"><a xlink:href="namespaceImGui.html#a2cd868535661cdb5671214662f3c9388" target="_top" xlink:title=" ">
<polygon fill="white" stroke="#666666" points="747,-24.5 561,-24.5 561,-5.5 747,-5.5 747,-24.5"/>
<text text-anchor="middle" x="654" y="-12.5" font-family="Helvetica,sans-Serif" font-size="10.00">ImGui::NavUpdateAnyRequestFlag</text>
</a>
</g>
</g>
<!-- Node8&#45;&gt;Node9 -->
<g id="edge8" class="edge">
<title>Node8&#45;&gt;Node9</title>
<path fill="none" stroke="#63b8ff" d="M522.67,-15C531.9,-15 541.37,-15 550.78,-15"/>
<polygon fill="#63b8ff" stroke="#63b8ff" points="550.96,-18.5 560.96,-15 550.96,-11.5 550.96,-18.5"/>
</g>
</g>
</svg>
