<?xml version="1.0" encoding="UTF-8" standalone="no"?>
<!DOCTYPE svg PUBLIC "-//W3C//DTD SVG 1.1//EN"
 "http://www.w3.org/Graphics/SVG/1.1/DTD/svg11.dtd">
<!-- Generated by graphviz version 2.43.0 (0)
 -->
<!-- Title: BoxSelectScrollWithMouseDrag Pages: 1 -->
<svg width="1688pt" height="955pt"
 viewBox="0.00 0.00 1688.00 955.00" xmlns="http://www.w3.org/2000/svg" xmlns:xlink="http://www.w3.org/1999/xlink">
<g id="graph0" class="graph" transform="scale(1 1) rotate(0) translate(4 951)">
<title>BoxSelectScrollWithMouseDrag</title>
<!-- Node1 -->
<g id="node1" class="node">
<title>Node1</title>
<g id="a_node1"><a xlink:title=" ">
<polygon fill="#999999" stroke="#666666" points="1680,-876.5 1510,-876.5 1510,-857.5 1680,-857.5 1680,-876.5"/>
<text text-anchor="middle" x="1595" y="-864.5" font-family="Helvetica,sans-Serif" font-size="10.00">BoxSelectScrollWithMouseDrag</text>
</a>
</g>
</g>
<!-- Node2 -->
<g id="node2" class="node">
<title>Node2</title>
<g id="a_node2"><a xlink:href="namespaceImGui.html#a38a72601961180f4a0db8d12fa3d09eb" target="_top" xlink:title=" ">
<polygon fill="white" stroke="#666666" points="1474,-876.5 1355,-876.5 1355,-857.5 1474,-857.5 1474,-876.5"/>
<text text-anchor="middle" x="1414.5" y="-864.5" font-family="Helvetica,sans-Serif" font-size="10.00">ImGui::EndBoxSelect</text>
</a>
</g>
</g>
<!-- Node1&#45;&gt;Node2 -->
<g id="edge1" class="edge">
<title>Node1&#45;&gt;Node2</title>
<path fill="none" stroke="#63b8ff" d="M1499.74,-867C1491.03,-867 1482.39,-867 1474.14,-867"/>
<polygon fill="#63b8ff" stroke="#63b8ff" points="1499.98,-870.5 1509.98,-867 1499.98,-863.5 1499.98,-870.5"/>
</g>
<!-- Node3 -->
<g id="node3" class="node">
<title>Node3</title>
<g id="a_node3"><a xlink:href="namespaceImGui.html#a19b11a3ea8f98b43089dc13ab015ad5b" target="_top" xlink:title=" ">
<polygon fill="white" stroke="#666666" points="1319,-876.5 1194,-876.5 1194,-857.5 1319,-857.5 1319,-876.5"/>
<text text-anchor="middle" x="1256.5" y="-864.5" font-family="Helvetica,sans-Serif" font-size="10.00">ImGui::EndMultiSelect</text>
</a>
</g>
</g>
<!-- Node2&#45;&gt;Node3 -->
<g id="edge2" class="edge">
<title>Node2&#45;&gt;Node3</title>
<path fill="none" stroke="#63b8ff" d="M1344.72,-867C1336.23,-867 1327.6,-867 1319.23,-867"/>
<polygon fill="#63b8ff" stroke="#63b8ff" points="1344.97,-870.5 1354.97,-867 1344.97,-863.5 1344.97,-870.5"/>
</g>
<!-- Node4 -->
<g id="node4" class="node">
<title>Node4</title>
<g id="a_node4"><a xlink:href="imgui__demo_8cpp.html#a401c106ef9206d8dd4b4bc3271a6de6f" target="_top" xlink:title=" ">
<polygon fill="white" stroke="#666666" points="976,-947 806,-947 806,-917 976,-917 976,-947"/>
<text text-anchor="start" x="814" y="-935" font-family="Helvetica,sans-Serif" font-size="10.00">DemoWindowWidgetsSelection</text>
<text text-anchor="middle" x="891" y="-924" font-family="Helvetica,sans-Serif" font-size="10.00">AndMultiSelect</text>
</a>
</g>
</g>
<!-- Node3&#45;&gt;Node4 -->
<g id="edge3" class="edge">
<title>Node3&#45;&gt;Node4</title>
<path fill="none" stroke="#63b8ff" d="M1231.04,-881.66C1211.88,-892.36 1184.18,-906.15 1158,-913 1098.54,-928.57 1029.22,-933.1 976.26,-933.85"/>
<polygon fill="#63b8ff" stroke="#63b8ff" points="1233.03,-884.56 1239.97,-876.55 1229.56,-878.48 1233.03,-884.56"/>
</g>
<!-- Node7 -->
<g id="node7" class="node">
<title>Node7</title>
<g id="a_node7"><a xlink:href="structExampleAssetsBrowser.html#a2b36e1f9b7d764e547611baa4c7fd8d1" target="_top" xlink:title=" ">
<polygon fill="white" stroke="#666666" points="747.5,-861 616.5,-861 616.5,-831 747.5,-831 747.5,-861"/>
<text text-anchor="start" x="624.5" y="-849" font-family="Helvetica,sans-Serif" font-size="10.00">ExampleAssetsBrowser</text>
<text text-anchor="middle" x="682" y="-838" font-family="Helvetica,sans-Serif" font-size="10.00">::Draw</text>
</a>
</g>
</g>
<!-- Node3&#45;&gt;Node7 -->
<g id="edge6" class="edge">
<title>Node3&#45;&gt;Node7</title>
<path fill="none" stroke="#63b8ff" d="M1183.74,-864.37C1071.36,-860.25 855.55,-852.33 747.69,-848.37"/>
<polygon fill="#63b8ff" stroke="#63b8ff" points="1183.84,-867.87 1193.96,-864.74 1184.1,-860.88 1183.84,-867.87"/>
</g>
<!-- Node9 -->
<g id="node9" class="node">
<title>Node9</title>
<g id="a_node9"><a xlink:href="namespaceImGui.html#a9e02d2905347634105ecc057a0824e1a" target="_top" xlink:title=" ">
<polygon fill="white" stroke="#666666" points="1158,-495 1012,-495 1012,-465 1158,-465 1158,-495"/>
<text text-anchor="start" x="1020" y="-483" font-family="Helvetica,sans-Serif" font-size="10.00">ImGui::ErrorRecoveryTryTo</text>
<text text-anchor="middle" x="1085" y="-472" font-family="Helvetica,sans-Serif" font-size="10.00">RecoverWindowState</text>
</a>
</g>
</g>
<!-- Node3&#45;&gt;Node9 -->
<g id="edge9" class="edge">
<title>Node3&#45;&gt;Node9</title>
<path fill="none" stroke="#63b8ff" d="M1247.21,-848.08C1217.85,-781.04 1119.08,-555.53 1092.59,-495.04"/>
<polygon fill="#63b8ff" stroke="#63b8ff" points="1244.09,-849.68 1251.31,-857.43 1250.5,-846.87 1244.09,-849.68"/>
</g>
<!-- Node38 -->
<g id="node38" class="node">
<title>Node38</title>
<g id="a_node38"><a xlink:href="structExampleDualListBox.html#a1413fd803c568a0d4b98a8f3c59af1be" target="_top" xlink:title=" ">
<polygon fill="white" stroke="#666666" points="1144,-904 1026,-904 1026,-874 1144,-874 1144,-904"/>
<text text-anchor="start" x="1034" y="-892" font-family="Helvetica,sans-Serif" font-size="10.00">ExampleDualListBox</text>
<text text-anchor="middle" x="1085" y="-881" font-family="Helvetica,sans-Serif" font-size="10.00">::Show</text>
</a>
</g>
</g>
<!-- Node3&#45;&gt;Node38 -->
<g id="edge61" class="edge">
<title>Node3&#45;&gt;Node38</title>
<path fill="none" stroke="#63b8ff" d="M1183.84,-876.3C1170.63,-878.02 1156.99,-879.79 1144.24,-881.44"/>
<polygon fill="#63b8ff" stroke="#63b8ff" points="1184.36,-879.76 1193.83,-875 1183.46,-872.82 1184.36,-879.76"/>
</g>
<!-- Node5 -->
<g id="node5" class="node">
<title>Node5</title>
<g id="a_node5"><a xlink:href="imgui__demo_8cpp.html#a9a639caab781642cbc4f4a23bfbd11cd" target="_top" xlink:title=" ">
<polygon fill="white" stroke="#666666" points="525,-903.5 400,-903.5 400,-884.5 525,-884.5 525,-903.5"/>
<text text-anchor="middle" x="462.5" y="-891.5" font-family="Helvetica,sans-Serif" font-size="10.00">DemoWindowWidgets</text>
</a>
</g>
</g>
<!-- Node4&#45;&gt;Node5 -->
<g id="edge4" class="edge">
<title>Node4&#45;&gt;Node5</title>
<path fill="none" stroke="#63b8ff" d="M795.57,-930.77C737.31,-929.21 661.14,-925.73 594,-918 564.82,-914.64 532.34,-908.68 507.08,-903.53"/>
<polygon fill="#63b8ff" stroke="#63b8ff" points="795.78,-934.28 805.87,-931.03 795.96,-927.28 795.78,-934.28"/>
</g>
<!-- Node6 -->
<g id="node6" class="node">
<title>Node6</title>
<g id="a_node6"><a xlink:href="namespaceImGui.html#af95643a0ce4893b9e57c12991922fb18" target="_top" xlink:title=" ">
<polygon fill="white" stroke="#666666" points="322,-529.5 176,-529.5 176,-510.5 322,-510.5 322,-529.5"/>
<text text-anchor="middle" x="249" y="-517.5" font-family="Helvetica,sans-Serif" font-size="10.00">ImGui::ShowDemoWindow</text>
</a>
</g>
</g>
<!-- Node5&#45;&gt;Node6 -->
<g id="edge5" class="edge">
<title>Node5&#45;&gt;Node6</title>
<path fill="none" stroke="#63b8ff" d="M396.61,-880.88C385.7,-876.34 375.25,-870.23 367,-862 267.23,-762.54 252.47,-574.51 250.35,-529.74"/>
<polygon fill="#63b8ff" stroke="#63b8ff" points="395.68,-884.27 406.28,-884.49 398.13,-877.71 395.68,-884.27"/>
</g>
<!-- Node8 -->
<g id="node8" class="node">
<title>Node8</title>
<g id="a_node8"><a xlink:href="imgui__demo_8cpp.html#a83fdfc359b5a0432835090acd227690f" target="_top" xlink:title=" ">
<polygon fill="white" stroke="#666666" points="550.5,-853.5 374.5,-853.5 374.5,-834.5 550.5,-834.5 550.5,-853.5"/>
<text text-anchor="middle" x="462.5" y="-841.5" font-family="Helvetica,sans-Serif" font-size="10.00">ShowExampleAppAssetsBrowser</text>
</a>
</g>
</g>
<!-- Node7&#45;&gt;Node8 -->
<g id="edge7" class="edge">
<title>Node7&#45;&gt;Node8</title>
<path fill="none" stroke="#63b8ff" d="M606.04,-845.31C588.26,-845.15 569.15,-844.97 550.87,-844.8"/>
<polygon fill="#63b8ff" stroke="#63b8ff" points="606.3,-848.81 616.33,-845.41 606.36,-841.81 606.3,-848.81"/>
</g>
<!-- Node8&#45;&gt;Node6 -->
<g id="edge8" class="edge">
<title>Node8&#45;&gt;Node6</title>
<path fill="none" stroke="#63b8ff" d="M388.49,-830.74C380.65,-827.18 373.27,-822.69 367,-817 275.68,-734.14 254.72,-570.96 250.8,-529.67"/>
<polygon fill="#63b8ff" stroke="#63b8ff" points="387.27,-834.02 397.85,-834.49 389.87,-827.52 387.27,-834.02"/>
</g>
<!-- Node10 -->
<g id="node10" class="node">
<title>Node10</title>
<g id="a_node10"><a xlink:href="namespaceImGui.html#a5479d93794a004c67ceb6d13f37c8254" target="_top" xlink:title=" ">
<polygon fill="white" stroke="#666666" points="926,-489.5 856,-489.5 856,-470.5 926,-470.5 926,-489.5"/>
<text text-anchor="middle" x="891" y="-477.5" font-family="Helvetica,sans-Serif" font-size="10.00">ImGui::End</text>
</a>
</g>
</g>
<!-- Node9&#45;&gt;Node10 -->
<g id="edge10" class="edge">
<title>Node9&#45;&gt;Node10</title>
<path fill="none" stroke="#63b8ff" d="M1001.87,-480C975.33,-480 947.33,-480 926.25,-480"/>
<polygon fill="#63b8ff" stroke="#63b8ff" points="1001.96,-483.5 1011.96,-480 1001.96,-476.5 1001.96,-483.5"/>
</g>
<!-- Node34 -->
<g id="node34" class="node">
<title>Node34</title>
<g id="a_node34"><a xlink:href="namespaceImGui.html#af173cf3b924ce08bf5ba4b6a49c04cf1" target="_top" xlink:title=" ">
<polygon fill="white" stroke="#666666" points="964,-233 818,-233 818,-203 964,-203 964,-233"/>
<text text-anchor="start" x="826" y="-221" font-family="Helvetica,sans-Serif" font-size="10.00">ImGui::ErrorRecoveryTryTo</text>
<text text-anchor="middle" x="891" y="-210" font-family="Helvetica,sans-Serif" font-size="10.00">RecoverState</text>
</a>
</g>
</g>
<!-- Node9&#45;&gt;Node34 -->
<g id="edge56" class="edge">
<title>Node9&#45;&gt;Node34</title>
<path fill="none" stroke="#63b8ff" d="M1066.93,-456.71C1028.37,-404.09 935.37,-277.18 903.18,-233.26"/>
<polygon fill="#63b8ff" stroke="#63b8ff" points="1064.11,-458.78 1072.85,-464.78 1069.76,-454.65 1064.11,-458.78"/>
</g>
<!-- Node10&#45;&gt;Node6 -->
<g id="edge31" class="edge">
<title>Node10&#45;&gt;Node6</title>
<path fill="none" stroke="#63b8ff" d="M889.13,-499.75C885.48,-555.23 866.66,-712.72 770,-778 747.29,-793.34 389.66,-789.75 367,-775 276.78,-716.29 255.13,-568.91 250.9,-529.7"/>
<polygon fill="#63b8ff" stroke="#63b8ff" points="892.63,-499.71 889.7,-489.53 885.64,-499.32 892.63,-499.71"/>
</g>
<!-- Node10&#45;&gt;Node7 -->
<g id="edge20" class="edge">
<title>Node10&#45;&gt;Node7</title>
<path fill="none" stroke="#63b8ff" d="M888.79,-499.87C884.23,-557.38 863.17,-725.71 770,-817 763.63,-823.24 755.89,-828.14 747.67,-831.98"/>
<polygon fill="#63b8ff" stroke="#63b8ff" points="892.3,-499.84 889.52,-489.62 885.32,-499.35 892.3,-499.84"/>
</g>
<!-- Node11 -->
<g id="node11" class="node">
<title>Node11</title>
<g id="a_node11"><a xlink:href="namespaceIMGUIZMO__NAMESPACE.html#a7e79232f8e04ed9a9da0bda4ed3ca1c5" target="_top" xlink:title=" ">
<polygon fill="white" stroke="#666666" points="749.5,-154 614.5,-154 614.5,-124 749.5,-124 749.5,-154"/>
<text text-anchor="start" x="622.5" y="-142" font-family="Helvetica,sans-Serif" font-size="10.00">IMGUIZMO_NAMESPACE</text>
<text text-anchor="middle" x="682" y="-131" font-family="Helvetica,sans-Serif" font-size="10.00">::BeginFrame</text>
</a>
</g>
</g>
<!-- Node10&#45;&gt;Node11 -->
<g id="edge11" class="edge">
<title>Node10&#45;&gt;Node11</title>
<path fill="none" stroke="#63b8ff" d="M884.24,-460.62C866.36,-401.42 810.53,-224.39 770,-181 759.12,-169.36 744.34,-160.57 730.04,-154.13"/>
<polygon fill="#63b8ff" stroke="#63b8ff" points="880.9,-461.67 887.13,-470.24 887.61,-459.66 880.9,-461.67"/>
</g>
<!-- Node12 -->
<g id="node12" class="node">
<title>Node12</title>
<g id="a_node12"><a xlink:href="imgui__demo_8cpp.html#acdabfa47af2ef5ba0a22b98a4368cc7d" target="_top" xlink:title=" ">
<polygon fill="white" stroke="#666666" points="521.5,-766.5 403.5,-766.5 403.5,-747.5 521.5,-747.5 521.5,-766.5"/>
<text text-anchor="middle" x="462.5" y="-754.5" font-family="Helvetica,sans-Serif" font-size="10.00">DemoWindowLayout</text>
</a>
</g>
</g>
<!-- Node10&#45;&gt;Node12 -->
<g id="edge13" class="edge">
<title>Node10&#45;&gt;Node12</title>
<path fill="none" stroke="#63b8ff" d="M887.93,-499.79C881.4,-550.81 856.28,-686.93 770,-745 686.5,-801.19 559.23,-780.95 498.34,-766.51"/>
<polygon fill="#63b8ff" stroke="#63b8ff" points="891.42,-500.08 889.11,-489.74 884.46,-499.26 891.42,-500.08"/>
</g>
<!-- Node13 -->
<g id="node13" class="node">
<title>Node13</title>
<g id="a_node13"><a xlink:href="imgui__demo_8cpp.html#a5de91117986b51cfb587630d6ff46205" target="_top" xlink:title=" ">
<polygon fill="white" stroke="#666666" points="766.5,-909 597.5,-909 597.5,-879 766.5,-879 766.5,-909"/>
<text text-anchor="start" x="605.5" y="-897" font-family="Helvetica,sans-Serif" font-size="10.00">DemoWindowWidgetsQuerying</text>
<text text-anchor="middle" x="682" y="-886" font-family="Helvetica,sans-Serif" font-size="10.00">Statuses</text>
</a>
</g>
</g>
<!-- Node10&#45;&gt;Node13 -->
<g id="edge15" class="edge">
<title>Node10&#45;&gt;Node13</title>
<path fill="none" stroke="#63b8ff" d="M890.15,-499.79C889.51,-563.38 878.6,-764.53 770,-870 766.52,-873.38 762.6,-876.3 758.41,-878.81"/>
<polygon fill="#63b8ff" stroke="#63b8ff" points="893.65,-499.57 890.17,-489.57 886.65,-499.56 893.65,-499.57"/>
</g>
<!-- Node14 -->
<g id="node14" class="node">
<title>Node14</title>
<g id="a_node14"><a xlink:href="structExampleAppConsole.html#a0518a09c7e8648dd52c7c06df19ac17a" target="_top" xlink:title=" ">
<polygon fill="white" stroke="#666666" points="756.5,-736.5 607.5,-736.5 607.5,-717.5 756.5,-717.5 756.5,-736.5"/>
<text text-anchor="middle" x="682" y="-724.5" font-family="Helvetica,sans-Serif" font-size="10.00">ExampleAppConsole::Draw</text>
</a>
</g>
</g>
<!-- Node10&#45;&gt;Node14 -->
<g id="edge17" class="edge">
<title>Node10&#45;&gt;Node14</title>
<path fill="none" stroke="#63b8ff" d="M885.09,-499.72C873.19,-543.3 838.62,-648.28 770,-703 762.04,-709.35 752.51,-714.02 742.72,-717.46"/>
<polygon fill="#63b8ff" stroke="#63b8ff" points="888.54,-500.37 887.69,-489.81 881.76,-498.59 888.54,-500.37"/>
</g>
<!-- Node16 -->
<g id="node16" class="node">
<title>Node16</title>
<g id="a_node16"><a xlink:href="structExampleAppLog.html#a5ad3a4bdb89171b84aeaff96948a1f77" target="_top" xlink:title=" ">
<polygon fill="white" stroke="#666666" points="745.5,-660.5 618.5,-660.5 618.5,-641.5 745.5,-641.5 745.5,-660.5"/>
<text text-anchor="middle" x="682" y="-648.5" font-family="Helvetica,sans-Serif" font-size="10.00">ExampleAppLog::Draw</text>
</a>
</g>
</g>
<!-- Node10&#45;&gt;Node16 -->
<g id="edge21" class="edge">
<title>Node10&#45;&gt;Node16</title>
<path fill="none" stroke="#63b8ff" d="M879.99,-498.6C862.15,-529.96 821.8,-593.23 770,-627 760.29,-633.33 748.92,-638.01 737.67,-641.46"/>
<polygon fill="#63b8ff" stroke="#63b8ff" points="883.18,-500.06 884.98,-489.62 877.07,-496.66 883.18,-500.06"/>
</g>
<!-- Node17 -->
<g id="node17" class="node">
<title>Node17</title>
<g id="a_node17"><a xlink:href="imgui__demo_8cpp.html#ad0303cf1f675002eb4e68c17a47b3f88" target="_top" xlink:title=" ">
<polygon fill="white" stroke="#666666" points="523.5,-668.5 401.5,-668.5 401.5,-649.5 523.5,-649.5 523.5,-668.5"/>
<text text-anchor="middle" x="462.5" y="-656.5" font-family="Helvetica,sans-Serif" font-size="10.00">ShowExampleAppLog</text>
</a>
</g>
</g>
<!-- Node10&#45;&gt;Node17 -->
<g id="edge46" class="edge">
<title>Node10&#45;&gt;Node17</title>
<path fill="none" stroke="#63b8ff" d="M884.5,-499.65C871.97,-540.13 837.08,-632.13 770,-669 678.32,-719.39 546.8,-686.53 490.62,-668.54"/>
<polygon fill="#63b8ff" stroke="#63b8ff" points="887.9,-500.48 887.39,-489.89 881.19,-498.49 887.9,-500.48"/>
</g>
<!-- Node18 -->
<g id="node18" class="node">
<title>Node18</title>
<g id="a_node18"><a xlink:href="classmtgb_1_1ImGuiRenderer.html#a725b57c53e525ab8e63e305f7898bae4" target="_top" xlink:title=" ">
<polygon fill="white" stroke="#666666" points="755,-67.5 609,-67.5 609,-48.5 755,-48.5 755,-67.5"/>
<text text-anchor="middle" x="682" y="-55.5" font-family="Helvetica,sans-Serif" font-size="10.00">mtgb::ImGuiRenderer::End</text>
</a>
</g>
</g>
<!-- Node10&#45;&gt;Node18 -->
<g id="edge24" class="edge">
<title>Node10&#45;&gt;Node18</title>
<path fill="none" stroke="#63b8ff" d="M882.34,-460.78C866.54,-420.63 829.81,-324.72 806,-242 785.84,-171.96 820.29,-134.76 770,-82 764.05,-75.76 756.65,-71.1 748.68,-67.62"/>
<polygon fill="#63b8ff" stroke="#63b8ff" points="879.12,-462.15 886.05,-470.16 885.63,-459.57 879.12,-462.15"/>
</g>
<!-- Node19 -->
<g id="node19" class="node">
<title>Node19</title>
<g id="a_node19"><a xlink:href="classmtgb_1_1MTImGui.html#a0ebe89de7aaa854c37e842ed796efb99" target="_top" xlink:title=" ">
<polygon fill="white" stroke="#666666" points="533.5,-105.5 391.5,-105.5 391.5,-86.5 533.5,-86.5 533.5,-105.5"/>
<text text-anchor="middle" x="462.5" y="-93.5" font-family="Helvetica,sans-Serif" font-size="10.00">mtgb::MTImGui::ShowLog</text>
</a>
</g>
</g>
<!-- Node10&#45;&gt;Node19 -->
<g id="edge55" class="edge">
<title>Node10&#45;&gt;Node19</title>
<path fill="none" stroke="#63b8ff" d="M882.71,-460.67C867.6,-420.31 832.07,-324.03 806,-242 788.23,-186.09 815.68,-151.81 770,-115 734.97,-86.78 612.94,-87.51 533.83,-91.28"/>
<polygon fill="#63b8ff" stroke="#63b8ff" points="879.46,-461.97 886.25,-470.1 886.01,-459.51 879.46,-461.97"/>
</g>
<!-- Node22 -->
<g id="node22" class="node">
<title>Node22</title>
<g id="a_node22"><a xlink:href="namespaceImGui.html#ac297462e33309d0540fa459bccdc9304" target="_top" xlink:title=" ">
<polygon fill="white" stroke="#666666" points="535.5,-631.5 389.5,-631.5 389.5,-612.5 535.5,-612.5 535.5,-631.5"/>
<text text-anchor="middle" x="462.5" y="-619.5" font-family="Helvetica,sans-Serif" font-size="10.00">ImGui::ShowAboutWindow</text>
</a>
</g>
</g>
<!-- Node10&#45;&gt;Node22 -->
<g id="edge29" class="edge">
<title>Node10&#45;&gt;Node22</title>
<path fill="none" stroke="#63b8ff" d="M871.66,-496.38C849.29,-515.43 809.55,-546.39 770,-563 693.68,-595.05 599.32,-609.86 535.61,-616.59"/>
<polygon fill="#63b8ff" stroke="#63b8ff" points="874.08,-498.91 879.35,-489.71 869.5,-493.62 874.08,-498.91"/>
</g>
<!-- Node23 -->
<g id="node23" class="node">
<title>Node23</title>
<g id="a_node23"><a xlink:href="imgui__demo_8cpp.html#a38c9b50749061ff83a0ebf3137c00174" target="_top" xlink:title=" ">
<polygon fill="white" stroke="#666666" points="542,-594.5 383,-594.5 383,-575.5 542,-575.5 542,-594.5"/>
<text text-anchor="middle" x="462.5" y="-582.5" font-family="Helvetica,sans-Serif" font-size="10.00">ShowExampleAppAutoResize</text>
</a>
</g>
</g>
<!-- Node10&#45;&gt;Node23 -->
<g id="edge32" class="edge">
<title>Node10&#45;&gt;Node23</title>
<path fill="none" stroke="#63b8ff" d="M861.32,-494.03C837.4,-505.22 802.16,-520.54 770,-530 694.02,-552.36 604.63,-567.14 542.05,-575.69"/>
<polygon fill="#63b8ff" stroke="#63b8ff" points="862.98,-497.12 870.52,-489.67 859.99,-490.79 862.98,-497.12"/>
</g>
<!-- Node24 -->
<g id="node24" class="node">
<title>Node24</title>
<g id="a_node24"><a xlink:href="imgui__demo_8cpp.html#a4f7b0b016c2ffd33836c3bdcf78ed97b" target="_top" xlink:title=" ">
<polygon fill="white" stroke="#666666" points="544,-557 381,-557 381,-527 544,-527 544,-557"/>
<text text-anchor="start" x="389" y="-545" font-family="Helvetica,sans-Serif" font-size="10.00">ShowExampleAppConstrained</text>
<text text-anchor="middle" x="462.5" y="-534" font-family="Helvetica,sans-Serif" font-size="10.00">Resize</text>
</a>
</g>
</g>
<!-- Node10&#45;&gt;Node24 -->
<g id="edge34" class="edge">
<title>Node10&#45;&gt;Node24</title>
<path fill="none" stroke="#63b8ff" d="M846,-489.61C823.36,-494.35 795.28,-499.91 770,-504 693.65,-516.35 606.02,-526.85 544.08,-533.66"/>
<polygon fill="#63b8ff" stroke="#63b8ff" points="846.92,-492.99 855.98,-487.5 845.48,-486.15 846.92,-492.99"/>
</g>
<!-- Node25 -->
<g id="node25" class="node">
<title>Node25</title>
<g id="a_node25"><a xlink:href="imgui__demo_8cpp.html#a0729207a285af6ef57ce5a31d1a60348" target="_top" xlink:title=" ">
<polygon fill="white" stroke="#666666" points="558,-508.5 367,-508.5 367,-489.5 558,-489.5 558,-508.5"/>
<text text-anchor="middle" x="462.5" y="-496.5" font-family="Helvetica,sans-Serif" font-size="10.00">ShowExampleAppCustomRendering</text>
</a>
</g>
</g>
<!-- Node10&#45;&gt;Node25 -->
<g id="edge36" class="edge">
<title>Node10&#45;&gt;Node25</title>
<path fill="none" stroke="#63b8ff" d="M845.52,-481.98C777.93,-484.99 647.76,-490.79 558.31,-494.78"/>
<polygon fill="#63b8ff" stroke="#63b8ff" points="845.98,-485.46 855.82,-481.52 845.67,-478.47 845.98,-485.46"/>
</g>
<!-- Node26 -->
<g id="node26" class="node">
<title>Node26</title>
<g id="a_node26"><a xlink:href="imgui__demo_8cpp.html#ae18f1dc3d5298b314080b35f6c20d781" target="_top" xlink:title=" ">
<polygon fill="white" stroke="#666666" points="541.5,-471.5 383.5,-471.5 383.5,-452.5 541.5,-452.5 541.5,-471.5"/>
<text text-anchor="middle" x="462.5" y="-459.5" font-family="Helvetica,sans-Serif" font-size="10.00">ShowExampleAppDockSpace</text>
</a>
</g>
</g>
<!-- Node10&#45;&gt;Node26 -->
<g id="edge38" class="edge">
<title>Node10&#45;&gt;Node26</title>
<path fill="none" stroke="#63b8ff" d="M845.75,-478.13C773.93,-475.1 631.04,-469.07 541.76,-465.3"/>
<polygon fill="#63b8ff" stroke="#63b8ff" points="845.68,-481.63 855.82,-478.56 845.98,-474.64 845.68,-481.63"/>
</g>
<!-- Node27 -->
<g id="node27" class="node">
<title>Node27</title>
<g id="a_node27"><a xlink:href="imgui__demo_8cpp.html#aa9e4f5130b74080ea2d97916a91b3b3c" target="_top" xlink:title=" ">
<polygon fill="white" stroke="#666666" points="542.5,-434.5 382.5,-434.5 382.5,-415.5 542.5,-415.5 542.5,-434.5"/>
<text text-anchor="middle" x="462.5" y="-422.5" font-family="Helvetica,sans-Serif" font-size="10.00">ShowExampleAppDocuments</text>
</a>
</g>
</g>
<!-- Node10&#45;&gt;Node27 -->
<g id="edge40" class="edge">
<title>Node10&#45;&gt;Node27</title>
<path fill="none" stroke="#63b8ff" d="M845.86,-474.05C823.19,-471.01 795.12,-467.27 770,-464 691.41,-453.76 601.44,-442.35 539.41,-434.53"/>
<polygon fill="#63b8ff" stroke="#63b8ff" points="845.49,-477.53 855.87,-475.39 846.42,-470.59 845.49,-477.53"/>
</g>
<!-- Node28 -->
<g id="node28" class="node">
<title>Node28</title>
<g id="a_node28"><a xlink:href="imgui__demo_8cpp.html#a2f38052447680c83c0028e4f21f0a2e6" target="_top" xlink:title=" ">
<polygon fill="white" stroke="#666666" points="759,-394.5 605,-394.5 605,-375.5 759,-375.5 759,-394.5"/>
<text text-anchor="middle" x="682" y="-382.5" font-family="Helvetica,sans-Serif" font-size="10.00">ShowExampleAppFullscreen</text>
</a>
</g>
</g>
<!-- Node10&#45;&gt;Node28 -->
<g id="edge42" class="edge">
<title>Node10&#45;&gt;Node28</title>
<path fill="none" stroke="#63b8ff" d="M868.13,-464.64C844.77,-448.82 806.19,-424.37 770,-409 756.16,-403.12 740.46,-398.27 726.25,-394.51"/>
<polygon fill="#63b8ff" stroke="#63b8ff" points="866.36,-467.67 876.59,-470.44 870.32,-461.9 866.36,-467.67"/>
</g>
<!-- Node29 -->
<g id="node29" class="node">
<title>Node29</title>
<g id="a_node29"><a xlink:href="imgui__demo_8cpp.html#adfe8516f13b623adbf78b024efd5bb6e" target="_top" xlink:title=" ">
<polygon fill="white" stroke="#666666" points="750.5,-357.5 613.5,-357.5 613.5,-338.5 750.5,-338.5 750.5,-357.5"/>
<text text-anchor="middle" x="682" y="-345.5" font-family="Helvetica,sans-Serif" font-size="10.00">ShowExampleAppLayout</text>
</a>
</g>
</g>
<!-- Node10&#45;&gt;Node29 -->
<g id="edge44" class="edge">
<title>Node10&#45;&gt;Node29</title>
<path fill="none" stroke="#63b8ff" d="M876.6,-462.08C856.45,-436.49 815.78,-389.95 770,-366 763.44,-362.57 756.28,-359.79 748.98,-357.54"/>
<polygon fill="#63b8ff" stroke="#63b8ff" points="873.97,-464.4 882.85,-470.18 879.52,-460.12 873.97,-464.4"/>
</g>
<!-- Node30 -->
<g id="node30" class="node">
<title>Node30</title>
<g id="a_node30"><a xlink:href="imgui__demo_8cpp.html#a4dadf5e7b393795666d19af9694037cf" target="_top" xlink:title=" ">
<polygon fill="white" stroke="#666666" points="756,-320.5 608,-320.5 608,-301.5 756,-301.5 756,-320.5"/>
<text text-anchor="middle" x="682" y="-308.5" font-family="Helvetica,sans-Serif" font-size="10.00">ShowExampleAppLongText</text>
</a>
</g>
</g>
<!-- Node10&#45;&gt;Node30 -->
<g id="edge47" class="edge">
<title>Node10&#45;&gt;Node30</title>
<path fill="none" stroke="#63b8ff" d="M880.61,-460.99C863.45,-428.38 823.78,-362.1 770,-329 764.48,-325.6 758.43,-322.84 752.18,-320.59"/>
<polygon fill="#63b8ff" stroke="#63b8ff" points="877.71,-463 885.38,-470.31 883.94,-459.81 877.71,-463"/>
</g>
<!-- Node31 -->
<g id="node31" class="node">
<title>Node31</title>
<g id="a_node31"><a xlink:href="imgui__demo_8cpp.html#a746628697dff9d8d5e352436c96633c9" target="_top" xlink:title=" ">
<polygon fill="white" stroke="#666666" points="769,-283.5 595,-283.5 595,-264.5 769,-264.5 769,-283.5"/>
<text text-anchor="middle" x="682" y="-271.5" font-family="Helvetica,sans-Serif" font-size="10.00">ShowExampleAppPropertyEditor</text>
</a>
</g>
</g>
<!-- Node10&#45;&gt;Node31 -->
<g id="edge49" class="edge">
<title>Node10&#45;&gt;Node31</title>
<path fill="none" stroke="#63b8ff" d="M883.53,-460.72C869.49,-422.04 832.37,-334.98 770,-292 765.05,-288.59 759.58,-285.8 753.88,-283.52"/>
<polygon fill="#63b8ff" stroke="#63b8ff" points="880.27,-462 886.88,-470.28 886.87,-459.68 880.27,-462"/>
</g>
<!-- Node32 -->
<g id="node32" class="node">
<title>Node32</title>
<g id="a_node32"><a xlink:href="imgui__demo_8cpp.html#a41a6cb36f6ad91f80eba61b0053d17a5" target="_top" xlink:title=" ">
<polygon fill="white" stroke="#666666" points="770,-246.5 594,-246.5 594,-227.5 770,-227.5 770,-246.5"/>
<text text-anchor="middle" x="682" y="-234.5" font-family="Helvetica,sans-Serif" font-size="10.00">ShowExampleAppSimpleOverlay</text>
</a>
</g>
</g>
<!-- Node10&#45;&gt;Node32 -->
<g id="edge51" class="edge">
<title>Node10&#45;&gt;Node32</title>
<path fill="none" stroke="#63b8ff" d="M885.62,-460.67C874.58,-416.58 841.23,-308.31 770,-255 765.55,-251.67 760.64,-248.93 755.47,-246.66"/>
<polygon fill="#63b8ff" stroke="#63b8ff" points="882.23,-461.51 887.96,-470.42 889.03,-459.88 882.23,-461.51"/>
</g>
<!-- Node33 -->
<g id="node33" class="node">
<title>Node33</title>
<g id="a_node33"><a xlink:href="imgui__demo_8cpp.html#aa93cc0d732db176bbffaf106faaa0ca1" target="_top" xlink:title=" ">
<polygon fill="white" stroke="#666666" points="767,-209.5 597,-209.5 597,-190.5 767,-190.5 767,-209.5"/>
<text text-anchor="middle" x="682" y="-197.5" font-family="Helvetica,sans-Serif" font-size="10.00">ShowExampleAppWindowTitles</text>
</a>
</g>
</g>
<!-- Node10&#45;&gt;Node33 -->
<g id="edge53" class="edge">
<title>Node10&#45;&gt;Node33</title>
<path fill="none" stroke="#63b8ff" d="M887.11,-460.24C878.79,-410.92 850.05,-281.77 770,-218 765.78,-214.64 761.08,-211.86 756.13,-209.56"/>
<polygon fill="#63b8ff" stroke="#63b8ff" points="883.67,-460.92 888.7,-470.25 890.59,-459.82 883.67,-460.92"/>
</g>
<!-- Node11&#45;&gt;Node11 -->
<g id="edge12" class="edge">
<title>Node11&#45;&gt;Node11</title>
<path fill="none" stroke="#63b8ff" d="M718.41,-164.6C713.43,-168.97 701.3,-172 682,-172 649.5,-172 637.31,-163.41 645.44,-154.28"/>
<polygon fill="#63b8ff" stroke="#63b8ff" points="721.91,-164.33 718.56,-154.28 714.91,-164.22 721.91,-164.33"/>
</g>
<!-- Node12&#45;&gt;Node6 -->
<g id="edge14" class="edge">
<title>Node12&#45;&gt;Node6</title>
<path fill="none" stroke="#63b8ff" d="M393.51,-744.66C384,-740.98 374.82,-736.2 367,-730 296.36,-673.99 261.63,-563 252.5,-529.68"/>
<polygon fill="#63b8ff" stroke="#63b8ff" points="392.5,-748.01 403.1,-747.99 394.8,-741.4 392.5,-748.01"/>
</g>
<!-- Node13&#45;&gt;Node5 -->
<g id="edge16" class="edge">
<title>Node13&#45;&gt;Node5</title>
<path fill="none" stroke="#63b8ff" d="M587.04,-894C566.14,-894 544.5,-894 525.29,-894"/>
<polygon fill="#63b8ff" stroke="#63b8ff" points="587.22,-897.5 597.22,-894 587.22,-890.5 587.22,-897.5"/>
</g>
<!-- Node15 -->
<g id="node15" class="node">
<title>Node15</title>
<g id="a_node15"><a xlink:href="imgui__demo_8cpp.html#a8e5624314ae6402dd0ddf2a62aa91473" target="_top" xlink:title=" ">
<polygon fill="white" stroke="#666666" points="534,-721.5 391,-721.5 391,-702.5 534,-702.5 534,-721.5"/>
<text text-anchor="middle" x="462.5" y="-709.5" font-family="Helvetica,sans-Serif" font-size="10.00">ShowExampleAppConsole</text>
</a>
</g>
</g>
<!-- Node14&#45;&gt;Node15 -->
<g id="edge18" class="edge">
<title>Node14&#45;&gt;Node15</title>
<path fill="none" stroke="#63b8ff" d="M597.25,-721.22C576.4,-719.79 554.26,-718.26 534.12,-716.87"/>
<polygon fill="#63b8ff" stroke="#63b8ff" points="597.15,-724.73 607.36,-721.92 597.63,-717.74 597.15,-724.73"/>
</g>
<!-- Node15&#45;&gt;Node6 -->
<g id="edge19" class="edge">
<title>Node15&#45;&gt;Node6</title>
<path fill="none" stroke="#63b8ff" d="M410.65,-699.17C395.67,-693.86 379.87,-686.63 367,-677 310.12,-634.43 268.13,-556.72 254.63,-529.63"/>
<polygon fill="#63b8ff" stroke="#63b8ff" points="409.73,-702.55 420.33,-702.38 411.94,-695.91 409.73,-702.55"/>
</g>
<!-- Node16&#45;&gt;Node17 -->
<g id="edge22" class="edge">
<title>Node16&#45;&gt;Node17</title>
<path fill="none" stroke="#63b8ff" d="M608.07,-653.68C580.7,-654.69 549.91,-655.82 523.81,-656.78"/>
<polygon fill="#63b8ff" stroke="#63b8ff" points="608.52,-657.17 618.38,-653.3 608.26,-650.17 608.52,-657.17"/>
</g>
<!-- Node17&#45;&gt;Node6 -->
<g id="edge23" class="edge">
<title>Node17&#45;&gt;Node6</title>
<path fill="none" stroke="#63b8ff" d="M391.2,-649.81C382.77,-647.29 374.5,-644.08 367,-640 315.11,-611.77 271.95,-552.86 256.3,-529.67"/>
<polygon fill="#63b8ff" stroke="#63b8ff" points="390.56,-653.27 401.13,-652.47 392.37,-646.5 390.56,-653.27"/>
</g>
<!-- Node18&#45;&gt;Node19 -->
<g id="edge25" class="edge">
<title>Node18&#45;&gt;Node19</title>
<path fill="none" stroke="#63b8ff" d="M616.46,-69.28C585.17,-74.74 547.99,-81.24 518.13,-86.46"/>
<polygon fill="#63b8ff" stroke="#63b8ff" points="617.15,-72.71 626.4,-67.54 615.94,-65.81 617.15,-72.71"/>
</g>
<!-- Node21 -->
<g id="node21" class="node">
<title>Node21</title>
<g id="a_node21"><a xlink:href="classmtgb_1_1MTImGui.html#aba6310f01ca3716db9817ef459b605f6" target="_top" xlink:title="ImGuiウィンドウの表示、キュー内の表示関数の一括実行、ImGuiウィンドウのEnd()までを行う">
<polygon fill="white" stroke="#666666" points="331,-67.5 167,-67.5 167,-48.5 331,-48.5 331,-67.5"/>
<text text-anchor="middle" x="249" y="-55.5" font-family="Helvetica,sans-Serif" font-size="10.00">mtgb::MTImGui::ShowWindow</text>
</a>
</g>
</g>
<!-- Node18&#45;&gt;Node21 -->
<g id="edge27" class="edge">
<title>Node18&#45;&gt;Node21</title>
<path fill="none" stroke="#63b8ff" d="M598.74,-58C521.85,-58 407.73,-58 331.19,-58"/>
<polygon fill="#63b8ff" stroke="#63b8ff" points="598.86,-61.5 608.86,-58 598.86,-54.5 598.86,-61.5"/>
</g>
<!-- Node20 -->
<g id="node20" class="node">
<title>Node20</title>
<g id="a_node20"><a xlink:href="classmtgb_1_1RenderSystem.html#a14e39d4590efdf77c2085b12c6f3cdf5" target="_top" xlink:title=" ">
<polygon fill="white" stroke="#666666" points="131,-73 0,-73 0,-43 131,-43 131,-73"/>
<text text-anchor="start" x="8" y="-61" font-family="Helvetica,sans-Serif" font-size="10.00">mtgb::RenderSystem</text>
<text text-anchor="middle" x="65.5" y="-50" font-family="Helvetica,sans-Serif" font-size="10.00">::RenderImGuiWindows</text>
</a>
</g>
</g>
<!-- Node19&#45;&gt;Node20 -->
<g id="edge26" class="edge">
<title>Node19&#45;&gt;Node20</title>
<path fill="none" stroke="#63b8ff" d="M381.32,-92.93C321.97,-90.08 239.24,-84.9 167,-76 155.39,-74.57 143.08,-72.68 131.22,-70.67"/>
<polygon fill="#63b8ff" stroke="#63b8ff" points="381.23,-96.43 391.38,-93.4 381.55,-89.43 381.23,-96.43"/>
</g>
<!-- Node21&#45;&gt;Node20 -->
<g id="edge28" class="edge">
<title>Node21&#45;&gt;Node20</title>
<path fill="none" stroke="#63b8ff" d="M156.66,-58C148,-58 139.35,-58 131.02,-58"/>
<polygon fill="#63b8ff" stroke="#63b8ff" points="156.81,-61.5 166.81,-58 156.81,-54.5 156.81,-61.5"/>
</g>
<!-- Node22&#45;&gt;Node6 -->
<g id="edge30" class="edge">
<title>Node22&#45;&gt;Node6</title>
<path fill="none" stroke="#63b8ff" d="M385.52,-609.68C379.15,-607.76 372.9,-605.55 367,-603 323.33,-584.14 279.7,-547.22 260.35,-529.69"/>
<polygon fill="#63b8ff" stroke="#63b8ff" points="385.03,-613.17 395.6,-612.45 386.89,-606.42 385.03,-613.17"/>
</g>
<!-- Node23&#45;&gt;Node6 -->
<g id="edge33" class="edge">
<title>Node23&#45;&gt;Node6</title>
<path fill="none" stroke="#63b8ff" d="M395.63,-573.31C385.96,-571.15 376.17,-568.7 367,-566 332.66,-555.88 294.3,-539.85 271.17,-529.63"/>
<polygon fill="#63b8ff" stroke="#63b8ff" points="395.12,-576.78 405.63,-575.46 396.6,-569.94 395.12,-576.78"/>
</g>
<!-- Node24&#45;&gt;Node6 -->
<g id="edge35" class="edge">
<title>Node24&#45;&gt;Node6</title>
<path fill="none" stroke="#63b8ff" d="M370.85,-532.57C354.53,-530.87 337.72,-529.12 322.02,-527.49"/>
<polygon fill="#63b8ff" stroke="#63b8ff" points="370.63,-536.07 380.94,-533.62 371.35,-529.1 370.63,-536.07"/>
</g>
<!-- Node25&#45;&gt;Node6 -->
<g id="edge37" class="edge">
<title>Node25&#45;&gt;Node6</title>
<path fill="none" stroke="#63b8ff" d="M356.61,-509.41C344.9,-510.58 333.17,-511.74 322.01,-512.85"/>
<polygon fill="#63b8ff" stroke="#63b8ff" points="357.28,-512.87 366.88,-508.39 356.59,-505.9 357.28,-512.87"/>
</g>
<!-- Node26&#45;&gt;Node6 -->
<g id="edge39" class="edge">
<title>Node26&#45;&gt;Node6</title>
<path fill="none" stroke="#63b8ff" d="M394.49,-473.55C385.21,-475.5 375.83,-477.66 367,-480 334.63,-488.57 298.26,-501.55 274.79,-510.38"/>
<polygon fill="#63b8ff" stroke="#63b8ff" points="395.39,-476.94 404.49,-471.51 393.99,-470.08 395.39,-476.94"/>
</g>
<!-- Node27&#45;&gt;Node6 -->
<g id="edge41" class="edge">
<title>Node27&#45;&gt;Node6</title>
<path fill="none" stroke="#63b8ff" d="M383.89,-437.19C378.09,-438.88 372.4,-440.81 367,-443 324.41,-460.27 280.93,-494.01 261.1,-510.49"/>
<polygon fill="#63b8ff" stroke="#63b8ff" points="384.96,-440.52 393.7,-434.54 383.14,-433.76 384.96,-440.52"/>
</g>
<!-- Node28&#45;&gt;Node6 -->
<g id="edge43" class="edge">
<title>Node28&#45;&gt;Node6</title>
<path fill="none" stroke="#63b8ff" d="M594.6,-375.14C529.28,-371.31 438.87,-373.94 367,-406 314.42,-429.45 271.66,-487.39 256.21,-510.38"/>
<polygon fill="#63b8ff" stroke="#63b8ff" points="594.66,-378.65 604.86,-375.81 595.11,-371.67 594.66,-378.65"/>
</g>
<!-- Node29&#45;&gt;Node6 -->
<g id="edge45" class="edge">
<title>Node29&#45;&gt;Node6</title>
<path fill="none" stroke="#63b8ff" d="M611.86,-337.38C545.13,-330.56 443.28,-329.39 367,-370 305.78,-402.59 266.27,-482.65 254.05,-510.37"/>
<polygon fill="#63b8ff" stroke="#63b8ff" points="611.53,-340.87 621.85,-338.48 612.29,-333.91 611.53,-340.87"/>
</g>
<!-- Node30&#45;&gt;Node6 -->
<g id="edge48" class="edge">
<title>Node30&#45;&gt;Node6</title>
<path fill="none" stroke="#63b8ff" d="M625.36,-299.82C558.86,-289.56 446.61,-282.32 367,-330 295.55,-372.8 261.59,-477.72 252.54,-510.23"/>
<polygon fill="#63b8ff" stroke="#63b8ff" points="625.2,-303.34 635.63,-301.49 626.32,-296.43 625.2,-303.34"/>
</g>
<!-- Node31&#45;&gt;Node6 -->
<g id="edge50" class="edge">
<title>Node31&#45;&gt;Node6</title>
<path fill="none" stroke="#63b8ff" d="M632.94,-262.41C567.18,-249.42 448.09,-236.47 367,-289 284.37,-342.53 257.49,-473.53 251.45,-510.27"/>
<polygon fill="#63b8ff" stroke="#63b8ff" points="632.53,-265.89 643.03,-264.48 633.94,-259.04 632.53,-265.89"/>
</g>
<!-- Node32&#45;&gt;Node6 -->
<g id="edge52" class="edge">
<title>Node32&#45;&gt;Node6</title>
<path fill="none" stroke="#63b8ff" d="M583.82,-229.69C504.83,-225.73 401.09,-225.64 367,-249 273.15,-313.3 254.09,-469.88 250.68,-510.33"/>
<polygon fill="#63b8ff" stroke="#63b8ff" points="583.64,-233.19 593.81,-230.22 584.01,-226.2 583.64,-233.19"/>
</g>
<!-- Node33&#45;&gt;Node6 -->
<g id="edge54" class="edge">
<title>Node33&#45;&gt;Node6</title>
<path fill="none" stroke="#63b8ff" d="M629.73,-188.64C562.49,-176.86 444.02,-167.22 367,-224 267.6,-297.29 252.58,-468.22 250.37,-510.44"/>
<polygon fill="#63b8ff" stroke="#63b8ff" points="629.2,-192.1 639.67,-190.46 630.47,-185.21 629.2,-192.1"/>
</g>
<!-- Node35 -->
<g id="node35" class="node">
<title>Node35</title>
<g id="a_node35"><a xlink:href="namespaceImGui.html#a246c37da45e88a12ade440a0feacb4ee" target="_top" xlink:title=" ">
<polygon fill="white" stroke="#666666" points="732.5,-27.5 631.5,-27.5 631.5,-8.5 732.5,-8.5 732.5,-27.5"/>
<text text-anchor="middle" x="682" y="-15.5" font-family="Helvetica,sans-Serif" font-size="10.00">ImGui::EndFrame</text>
</a>
</g>
</g>
<!-- Node34&#45;&gt;Node35 -->
<g id="edge57" class="edge">
<title>Node34&#45;&gt;Node35</title>
<path fill="none" stroke="#63b8ff" d="M880.63,-193.69C864.32,-154.73 826.9,-78.65 770,-39 759.04,-31.36 745.62,-26.48 732.64,-23.38"/>
<polygon fill="#63b8ff" stroke="#63b8ff" points="877.4,-195.03 884.41,-202.98 883.88,-192.39 877.4,-195.03"/>
</g>
<!-- Node36 -->
<g id="node36" class="node">
<title>Node36</title>
<g id="a_node36"><a xlink:href="namespaceImGui.html#ab51a164f547317c16c441f1599e3946d" target="_top" xlink:title=" ">
<polygon fill="white" stroke="#666666" points="505.5,-27.5 419.5,-27.5 419.5,-8.5 505.5,-8.5 505.5,-27.5"/>
<text text-anchor="middle" x="462.5" y="-15.5" font-family="Helvetica,sans-Serif" font-size="10.00">ImGui::Render</text>
</a>
</g>
</g>
<!-- Node35&#45;&gt;Node36 -->
<g id="edge58" class="edge">
<title>Node35&#45;&gt;Node36</title>
<path fill="none" stroke="#63b8ff" d="M621.29,-18C584.6,-18 538.47,-18 505.59,-18"/>
<polygon fill="#63b8ff" stroke="#63b8ff" points="621.37,-21.5 631.37,-18 621.37,-14.5 621.37,-21.5"/>
</g>
<!-- Node37 -->
<g id="node37" class="node">
<title>Node37</title>
<g id="a_node37"><a xlink:href="classmtgb_1_1ImGuiRenderer.html#a8659d92cdaecc531688232b504e8c637" target="_top" xlink:title=" ">
<polygon fill="white" stroke="#666666" points="310,-30 188,-30 188,0 310,0 310,-30"/>
<text text-anchor="start" x="196" y="-18" font-family="Helvetica,sans-Serif" font-size="10.00">mtgb::ImGuiRenderer</text>
<text text-anchor="middle" x="249" y="-7" font-family="Helvetica,sans-Serif" font-size="10.00">::EndFrame</text>
</a>
</g>
</g>
<!-- Node36&#45;&gt;Node37 -->
<g id="edge59" class="edge">
<title>Node36&#45;&gt;Node37</title>
<path fill="none" stroke="#63b8ff" d="M409.22,-17.26C379.28,-16.83 341.58,-16.3 310.39,-15.86"/>
<polygon fill="#63b8ff" stroke="#63b8ff" points="409.41,-20.76 419.46,-17.4 409.51,-13.76 409.41,-20.76"/>
</g>
<!-- Node37&#45;&gt;Node20 -->
<g id="edge60" class="edge">
<title>Node37&#45;&gt;Node20</title>
<path fill="none" stroke="#63b8ff" d="M177.64,-31.67C161.93,-35.39 145.36,-39.32 129.95,-42.97"/>
<polygon fill="#63b8ff" stroke="#63b8ff" points="178.89,-34.97 187.82,-29.26 177.28,-28.16 178.89,-34.97"/>
</g>
<!-- Node38&#45;&gt;Node4 -->
<g id="edge62" class="edge">
<title>Node38&#45;&gt;Node4</title>
<path fill="none" stroke="#63b8ff" d="M1016.05,-904.22C997.54,-908.36 977.49,-912.85 959.02,-916.99"/>
<polygon fill="#63b8ff" stroke="#63b8ff" points="1016.88,-907.62 1025.87,-902.02 1015.35,-900.79 1016.88,-907.62"/>
</g>
</g>
</svg>
