<?xml version="1.0" encoding="UTF-8" standalone="no"?>
<!DOCTYPE svg PUBLIC "-//W3C//DTD SVG 1.1//EN"
 "http://www.w3.org/Graphics/SVG/1.1/DTD/svg11.dtd">
<!-- Generated by graphviz version 2.43.0 (0)
 -->
<!-- Title: ImFontAtlasBuildInit Pages: 1 -->
<svg width="1309pt" height="1162pt"
 viewBox="0.00 0.00 1309.00 1162.15" xmlns="http://www.w3.org/2000/svg" xmlns:xlink="http://www.w3.org/1999/xlink">
<g id="graph0" class="graph" transform="scale(1 1) rotate(0) translate(4 1158.15)">
<title>ImFontAtlasBuildInit</title>
<!-- Node1 -->
<g id="node1" class="node">
<title>Node1</title>
<g id="a_node1"><a xlink:title=" ">
<polygon fill="#999999" stroke="#666666" points="116,-252.5 0,-252.5 0,-233.5 116,-233.5 116,-252.5"/>
<text text-anchor="middle" x="58" y="-240.5" font-family="Helvetica,sans-Serif" font-size="10.00">ImFontAtlasBuildInit</text>
</a>
</g>
</g>
<!-- Node2 -->
<g id="node2" class="node">
<title>Node2</title>
<g id="a_node2"><a xlink:href="imgui__draw_8cpp.html#ab393bf8b3bb80eec2e65edae02153d8c" target="_top" xlink:title=" ">
<polygon fill="white" stroke="#666666" points="322,-942 161,-942 161,-912 322,-912 322,-942"/>
<text text-anchor="start" x="169" y="-930" font-family="Helvetica,sans-Serif" font-size="10.00">ImFontAtlasBuildUpdateBasic</text>
<text text-anchor="middle" x="241.5" y="-919" font-family="Helvetica,sans-Serif" font-size="10.00">TexData</text>
</a>
</g>
</g>
<!-- Node1&#45;&gt;Node2 -->
<g id="edge1" class="edge">
<title>Node1&#45;&gt;Node2</title>
<path fill="none" stroke="#63b8ff" d="M60.22,-252.72C66.59,-302.23 97.78,-530.94 152,-711 173.6,-782.72 210.14,-863.48 228.79,-902.83"/>
<polygon fill="#63b8ff" stroke="#63b8ff" points="225.66,-904.4 233.13,-911.92 231.98,-901.38 225.66,-904.4"/>
</g>
<!-- Node38 -->
<g id="node14" class="node">
<title>Node38</title>
<g id="a_node14"><a xlink:href="imgui__draw_8cpp.html#ae1947e9ba26126e2cd94f8772df62b88" target="_top" xlink:title=" ">
<polygon fill="white" stroke="#666666" points="322,-1004 161,-1004 161,-974 322,-974 322,-1004"/>
<text text-anchor="start" x="169" y="-992" font-family="Helvetica,sans-Serif" font-size="10.00">ImFontAtlasBuildUpdateLines</text>
<text text-anchor="middle" x="241.5" y="-981" font-family="Helvetica,sans-Serif" font-size="10.00">TexData</text>
</a>
</g>
</g>
<!-- Node1&#45;&gt;Node38 -->
<g id="edge17" class="edge">
<title>Node1&#45;&gt;Node38</title>
<path fill="none" stroke="#63b8ff" d="M59,-252.66C59.15,-328.94 63.52,-834.11 152,-951 157.56,-958.34 164.82,-964.29 172.8,-969.09"/>
<polygon fill="#63b8ff" stroke="#63b8ff" points="171.22,-972.22 181.69,-973.87 174.54,-966.05 171.22,-972.22"/>
</g>
<!-- Node56 -->
<g id="node15" class="node">
<title>Node56</title>
<g id="a_node15"><a xlink:href="imgui__draw_8cpp.html#a5bc852b30a75c2601a2bbea053210069" target="_top" xlink:title=" ">
<polygon fill="white" stroke="#666666" points="969,-383.5 794,-383.5 794,-364.5 969,-364.5 969,-383.5"/>
<text text-anchor="middle" x="881.5" y="-371.5" font-family="Helvetica,sans-Serif" font-size="10.00">ImFontAtlasBuildUpdatePointers</text>
</a>
</g>
</g>
<!-- Node1&#45;&gt;Node56 -->
<g id="edge21" class="edge">
<title>Node1&#45;&gt;Node56</title>
<path fill="none" stroke="#63b8ff" d="M116.12,-244.29C272.24,-248.07 698.49,-260.28 758,-282 801.84,-298 843.13,-335.28 864.77,-357.16"/>
<polygon fill="#63b8ff" stroke="#63b8ff" points="862.36,-359.7 871.82,-364.45 867.39,-354.83 862.36,-359.7"/>
</g>
<!-- Node57 -->
<g id="node17" class="node">
<title>Node57</title>
<g id="a_node17"><a xlink:href="imgui__draw_8cpp.html#a159e6385167812b148f32d4fb6cb6817" target="_top" xlink:title=" ">
<polygon fill="white" stroke="#666666" points="331,-196 152,-196 152,-166 331,-166 331,-196"/>
<text text-anchor="start" x="160" y="-184" font-family="Helvetica,sans-Serif" font-size="10.00">ImFontAtlasBuildUpdateRenderer</text>
<text text-anchor="middle" x="241.5" y="-173" font-family="Helvetica,sans-Serif" font-size="10.00">HasTexturesFromContext</text>
</a>
</g>
</g>
<!-- Node1&#45;&gt;Node57 -->
<g id="edge26" class="edge">
<title>Node1&#45;&gt;Node57</title>
<path fill="none" stroke="#63b8ff" d="M81.31,-233.37C100,-225.49 127.48,-214.32 152,-206 159.23,-203.55 166.85,-201.14 174.45,-198.85"/>
<polygon fill="#63b8ff" stroke="#63b8ff" points="175.45,-202.2 184.05,-196 173.47,-195.49 175.45,-202.2"/>
</g>
<!-- Node58 -->
<g id="node18" class="node">
<title>Node58</title>
<g id="a_node18"><a xlink:href="imgui__draw_8cpp.html#a2445ec6272ab6f7597ad4012e178a5d6" target="_top" xlink:title=" ">
<polygon fill="white" stroke="#666666" points="314.5,-476 168.5,-476 168.5,-446 314.5,-446 314.5,-476"/>
<text text-anchor="start" x="176.5" y="-464" font-family="Helvetica,sans-Serif" font-size="10.00">ImFontAtlasGetFontLoader</text>
<text text-anchor="middle" x="241.5" y="-453" font-family="Helvetica,sans-Serif" font-size="10.00">ForStbTruetype</text>
</a>
</g>
</g>
<!-- Node1&#45;&gt;Node58 -->
<g id="edge27" class="edge">
<title>Node1&#45;&gt;Node58</title>
<path fill="none" stroke="#63b8ff" d="M67.03,-252.65C94.09,-285.14 182.36,-391.17 221.51,-438.19"/>
<polygon fill="#63b8ff" stroke="#63b8ff" points="218.92,-440.55 228.01,-445.99 224.3,-436.07 218.92,-440.55"/>
</g>
<!-- Node40 -->
<g id="node38" class="node">
<title>Node40</title>
<g id="a_node38"><a xlink:href="imgui__draw_8cpp.html#a352dcf39de7ba575d8e1c1db1f11c45a" target="_top" xlink:title=" ">
<polygon fill="white" stroke="#666666" points="298,-147.5 185,-147.5 185,-128.5 298,-128.5 298,-147.5"/>
<text text-anchor="middle" x="241.5" y="-135.5" font-family="Helvetica,sans-Serif" font-size="10.00">ImFontAtlasPackInit</text>
</a>
</g>
</g>
<!-- Node1&#45;&gt;Node40 -->
<g id="edge54" class="edge">
<title>Node1&#45;&gt;Node40</title>
<path fill="none" stroke="#63b8ff" d="M66.28,-233.49C80.6,-215.51 114.33,-176.56 152,-157 159.14,-153.29 166.96,-150.31 174.91,-147.91"/>
<polygon fill="#63b8ff" stroke="#63b8ff" points="175.9,-151.26 184.63,-145.26 174.06,-144.51 175.9,-151.26"/>
</g>
<!-- Node42 -->
<g id="node40" class="node">
<title>Node42</title>
<g id="a_node40"><a xlink:href="imgui__draw_8cpp.html#a5279b1dafad68a1ab42121440c59ce0f" target="_top" xlink:title=" ">
<polygon fill="white" stroke="#666666" points="306.5,-233.5 176.5,-233.5 176.5,-214.5 306.5,-214.5 306.5,-233.5"/>
<text text-anchor="middle" x="241.5" y="-221.5" font-family="Helvetica,sans-Serif" font-size="10.00">ImFontAtlasTextureAdd</text>
</a>
</g>
</g>
<!-- Node1&#45;&gt;Node42 -->
<g id="edge56" class="edge">
<title>Node1&#45;&gt;Node42</title>
<path fill="none" stroke="#63b8ff" d="M116.43,-236.99C132.17,-235.34 149.46,-233.53 166,-231.8"/>
<polygon fill="#63b8ff" stroke="#63b8ff" points="166.61,-235.25 176.19,-230.73 165.88,-228.29 166.61,-235.25"/>
</g>
<!-- Node47 -->
<g id="node46" class="node">
<title>Node47</title>
<g id="a_node46"><a xlink:href="imgui__draw_8cpp.html#ad83271ddd5cf9c02c9cc72fb33299369" target="_top" xlink:title=" ">
<polygon fill="white" stroke="#666666" points="320.5,-110 162.5,-110 162.5,-80 320.5,-80 320.5,-110"/>
<text text-anchor="start" x="170.5" y="-98" font-family="Helvetica,sans-Serif" font-size="10.00">ImFontAtlasUpdateDrawLists</text>
<text text-anchor="middle" x="241.5" y="-87" font-family="Helvetica,sans-Serif" font-size="10.00">SharedData</text>
</a>
</g>
</g>
<!-- Node1&#45;&gt;Node47 -->
<g id="edge63" class="edge">
<title>Node1&#45;&gt;Node47</title>
<path fill="none" stroke="#63b8ff" d="M63.5,-233.2C74.8,-209.67 106.79,-149.67 152,-119 154.27,-117.46 156.63,-116.02 159.07,-114.67"/>
<polygon fill="#63b8ff" stroke="#63b8ff" points="160.74,-117.75 168.16,-110.18 157.65,-111.47 160.74,-117.75"/>
</g>
<!-- Node51 -->
<g id="node47" class="node">
<title>Node51</title>
<g id="a_node47"><a xlink:href="imgui__internal_8h.html#adae096c61c812293ec61ac541c146674" target="_top" xlink:title=" ">
<polygon fill="white" stroke="#666666" points="301,-61.5 182,-61.5 182,-42.5 301,-42.5 301,-61.5"/>
<text text-anchor="middle" x="241.5" y="-49.5" font-family="Helvetica,sans-Serif" font-size="10.00">ImUpperPowerOfTwo</text>
</a>
</g>
</g>
<!-- Node1&#45;&gt;Node51 -->
<g id="edge64" class="edge">
<title>Node1&#45;&gt;Node51</title>
<path fill="none" stroke="#63b8ff" d="M61.19,-233.33C68.43,-203.8 94.42,-114.17 152,-71 157.96,-66.53 164.76,-63.06 171.87,-60.38"/>
<polygon fill="#63b8ff" stroke="#63b8ff" points="173.28,-63.6 181.71,-57.19 171.12,-56.94 173.28,-63.6"/>
</g>
<!-- Node84 -->
<g id="node48" class="node">
<title>Node84</title>
<g id="a_node48"><a xlink:href="structImFontAtlas.html#abeefaa367a36b73d215b1578b5ab1c70" target="_top" xlink:title=" ">
<polygon fill="white" stroke="#666666" points="317,-24.5 166,-24.5 166,-5.5 317,-5.5 317,-24.5"/>
<text text-anchor="middle" x="241.5" y="-12.5" font-family="Helvetica,sans-Serif" font-size="10.00">ImFontAtlas::SetFontLoader</text>
</a>
</g>
</g>
<!-- Node1&#45;&gt;Node84 -->
<g id="edge65" class="edge">
<title>Node1&#45;&gt;Node84</title>
<path fill="none" stroke="#63b8ff" d="M60.19,-233.17C64.82,-199.37 84.88,-86.97 152,-33 153.56,-31.75 155.18,-30.57 156.86,-29.48"/>
<polygon fill="#63b8ff" stroke="#63b8ff" points="158.6,-32.51 165.64,-24.59 155.2,-26.39 158.6,-32.51"/>
</g>
<!-- Node3 -->
<g id="node3" class="node">
<title>Node3</title>
<g id="a_node3"><a xlink:href="structImFontAtlas.html#ab4660128958e0c30577056975ef8dc29" target="_top" xlink:title=" ">
<polygon fill="white" stroke="#666666" points="531.5,-929.5 372.5,-929.5 372.5,-910.5 531.5,-910.5 531.5,-929.5"/>
<text text-anchor="middle" x="452" y="-917.5" font-family="Helvetica,sans-Serif" font-size="10.00">ImFontAtlas::AddCustomRect</text>
</a>
</g>
</g>
<!-- Node2&#45;&gt;Node3 -->
<g id="edge2" class="edge">
<title>Node2&#45;&gt;Node3</title>
<path fill="none" stroke="#63b8ff" d="M322.22,-924.32C335.32,-923.88 348.97,-923.43 362.27,-922.98"/>
<polygon fill="#63b8ff" stroke="#63b8ff" points="362.48,-926.47 372.36,-922.64 362.25,-919.48 362.48,-926.47"/>
</g>
<!-- Node4 -->
<g id="node4" class="node">
<title>Node4</title>
<g id="a_node4"><a xlink:href="structImFontAtlas.html#a4b2f96a0b67dd06c69547e93ccd4652f" target="_top" xlink:title=" ">
<polygon fill="white" stroke="#666666" points="744.5,-1015.5 586.5,-1015.5 586.5,-996.5 744.5,-996.5 744.5,-1015.5"/>
<text text-anchor="middle" x="665.5" y="-1003.5" font-family="Helvetica,sans-Serif" font-size="10.00">ImFontAtlas::GetCustomRect</text>
</a>
</g>
</g>
<!-- Node2&#45;&gt;Node4 -->
<g id="edge14" class="edge">
<title>Node2&#45;&gt;Node4</title>
<path fill="none" stroke="#63b8ff" d="M322.37,-941.95C404.07,-957.25 529.23,-980.68 603.37,-994.56"/>
<polygon fill="#63b8ff" stroke="#63b8ff" points="603.01,-998.05 613.48,-996.45 604.3,-991.17 603.01,-998.05"/>
</g>
<!-- Node55 -->
<g id="node12" class="node">
<title>Node55</title>
<g id="a_node12"><a xlink:href="imgui__draw_8cpp.html#afb984dfe621aaf80f49b6f0af469330f" target="_top" xlink:title=" ">
<polygon fill="white" stroke="#666666" points="537,-1054 367,-1054 367,-1024 537,-1024 537,-1054"/>
<text text-anchor="start" x="375" y="-1042" font-family="Helvetica,sans-Serif" font-size="10.00">ImFontAtlasBuildRenderBitmap</text>
<text text-anchor="middle" x="452" y="-1031" font-family="Helvetica,sans-Serif" font-size="10.00">FromString</text>
</a>
</g>
</g>
<!-- Node2&#45;&gt;Node55 -->
<g id="edge15" class="edge">
<title>Node2&#45;&gt;Node55</title>
<path fill="none" stroke="#63b8ff" d="M280.97,-942.07C296.72,-948.61 314.97,-956.68 331,-965 362.2,-981.21 396.17,-1002.53 419.98,-1018.12"/>
<polygon fill="#63b8ff" stroke="#63b8ff" points="418.3,-1021.2 428.58,-1023.79 422.16,-1015.36 418.3,-1021.2"/>
</g>
<!-- Node3&#45;&gt;Node1 -->
<g id="edge6" class="edge">
<title>Node3&#45;&gt;Node1</title>
<path fill="none" stroke="#63b8ff" d="M421.88,-910.5C404.35,-903.63 382.5,-892.93 367,-878 223.64,-739.84 235.67,-665.66 152,-485 114.67,-404.39 79.62,-304.24 65.53,-262.59"/>
<polygon fill="#63b8ff" stroke="#63b8ff" points="68.77,-261.24 62.26,-252.88 62.13,-263.47 68.77,-261.24"/>
</g>
<!-- Node3&#45;&gt;Node4 -->
<g id="edge3" class="edge">
<title>Node3&#45;&gt;Node4</title>
<path fill="none" stroke="#63b8ff" d="M502.81,-929.51C514.53,-933 526.63,-937.71 537,-944 556.89,-956.07 552.98,-970.15 573,-982 580.78,-986.61 589.45,-990.34 598.27,-993.37"/>
<polygon fill="#63b8ff" stroke="#63b8ff" points="597.27,-996.72 607.85,-996.38 599.36,-990.04 597.27,-996.72"/>
</g>
<!-- Node8 -->
<g id="node6" class="node">
<title>Node8</title>
<g id="a_node6"><a xlink:href="imgui__draw_8cpp.html#a0033358c6425323b29be68b3f5af3aa9" target="_top" xlink:title=" ">
<polygon fill="#fff0f0" stroke="red" points="734.5,-865.5 596.5,-865.5 596.5,-846.5 734.5,-846.5 734.5,-865.5"/>
<text text-anchor="middle" x="665.5" y="-853.5" font-family="Helvetica,sans-Serif" font-size="10.00">ImFontAtlasPackAddRect</text>
</a>
</g>
</g>
<!-- Node3&#45;&gt;Node8 -->
<g id="edge7" class="edge">
<title>Node3&#45;&gt;Node8</title>
<path fill="none" stroke="#63b8ff" d="M475.21,-910.49C499.04,-900.57 538.16,-885.08 573,-875 582.14,-872.36 591.89,-869.92 601.49,-867.75"/>
<polygon fill="#63b8ff" stroke="#63b8ff" points="602.4,-871.14 611.42,-865.58 600.9,-864.3 602.4,-871.14"/>
</g>
<!-- Node23 -->
<g id="node10" class="node">
<title>Node23</title>
<g id="a_node10"><a xlink:href="imgui__draw_8cpp.html#a0c336a0e5d743ff3c8d40351d125d1bb" target="_top" xlink:title=" ">
<polygon fill="#fff0f0" stroke="red" points="734,-902.5 597,-902.5 597,-883.5 734,-883.5 734,-902.5"/>
<text text-anchor="middle" x="665.5" y="-890.5" font-family="Helvetica,sans-Serif" font-size="10.00">ImFontAtlasPackGetRect</text>
</a>
</g>
</g>
<!-- Node3&#45;&gt;Node23 -->
<g id="edge11" class="edge">
<title>Node3&#45;&gt;Node23</title>
<path fill="none" stroke="#63b8ff" d="M527.57,-910.48C546.81,-908.02 567.56,-905.37 586.96,-902.9"/>
<polygon fill="#63b8ff" stroke="#63b8ff" points="587.48,-906.36 596.96,-901.62 586.59,-899.42 587.48,-906.36"/>
</g>
<!-- Node53 -->
<g id="node11" class="node">
<title>Node53</title>
<g id="a_node11"><a xlink:href="imgui__draw_8cpp.html#a4361bba2b60ded70d35f43c4f4a3ac41" target="_top" xlink:title=" ">
<polygon fill="#fff0f0" stroke="red" points="966.5,-668 796.5,-668 796.5,-638 966.5,-638 966.5,-668"/>
<text text-anchor="start" x="804.5" y="-656" font-family="Helvetica,sans-Serif" font-size="10.00">ImFontAtlasTextureBlockQueue</text>
<text text-anchor="middle" x="881.5" y="-645" font-family="Helvetica,sans-Serif" font-size="10.00">Upload</text>
</a>
</g>
</g>
<!-- Node3&#45;&gt;Node53 -->
<g id="edge12" class="edge">
<title>Node3&#45;&gt;Node53</title>
<path fill="none" stroke="#63b8ff" d="M483.71,-929.56C507.74,-936.51 542.14,-945.32 573,-949 654.65,-958.73 689.64,-994.69 758,-949 851.59,-886.45 873.76,-737.78 878.95,-678.27"/>
<polygon fill="#63b8ff" stroke="#63b8ff" points="882.44,-678.47 879.73,-668.23 875.46,-677.93 882.44,-678.47"/>
</g>
<!-- Node5 -->
<g id="node5" class="node">
<title>Node5</title>
<g id="a_node5"><a xlink:href="imgui__draw_8cpp.html#ac554b588bab2aa85e6f6d6969b8224e4" target="_top" xlink:title=" ">
<polygon fill="#fff0f0" stroke="red" points="960.5,-1109.5 802.5,-1109.5 802.5,-1090.5 960.5,-1090.5 960.5,-1109.5"/>
<text text-anchor="middle" x="881.5" y="-1097.5" font-family="Helvetica,sans-Serif" font-size="10.00">ImFontAtlasPackGetRectSafe</text>
</a>
</g>
</g>
<!-- Node4&#45;&gt;Node5 -->
<g id="edge4" class="edge">
<title>Node4&#45;&gt;Node5</title>
<path fill="none" stroke="#63b8ff" d="M687.66,-1015.59C712.92,-1027 756.46,-1046.58 794,-1063 811.85,-1070.81 831.83,-1079.37 848.1,-1086.29"/>
<polygon fill="#63b8ff" stroke="#63b8ff" points="847.12,-1089.67 857.69,-1090.36 849.86,-1083.23 847.12,-1089.67"/>
</g>
<!-- Node5&#45;&gt;Node1 -->
<g id="edge5" class="edge">
<title>Node5&#45;&gt;Node1</title>
<path fill="none" stroke="#63b8ff" d="M847,-1109.55C728.25,-1141.12 325.3,-1228.33 152,-1013 55.27,-892.81 57.19,-370.84 58.66,-262.67"/>
<polygon fill="#63b8ff" stroke="#63b8ff" points="62.16,-262.58 58.82,-252.53 55.16,-262.48 62.16,-262.58"/>
</g>
<!-- Node35 -->
<g id="node7" class="node">
<title>Node35</title>
<g id="a_node7"><a xlink:href="structImVector.html#aab5df48e0711a48bd12f3206e08c4108" target="_top" xlink:title=" ">
<polygon fill="white" stroke="#666666" points="1123,-458.5 1005,-458.5 1005,-439.5 1123,-439.5 1123,-458.5"/>
<text text-anchor="middle" x="1064" y="-446.5" font-family="Helvetica,sans-Serif" font-size="10.00">ImVector::push_back</text>
</a>
</g>
</g>
<!-- Node8&#45;&gt;Node35 -->
<g id="edge8" class="edge">
<title>Node8&#45;&gt;Node35</title>
<path fill="none" stroke="#63b8ff" d="M734.72,-852.25C743.44,-849.16 751.55,-844.6 758,-838 823.86,-770.57 742.67,-708.06 794,-629 850.96,-541.27 967.3,-485.96 1026.56,-462.3"/>
<polygon fill="#63b8ff" stroke="#63b8ff" points="1027.87,-465.55 1035.9,-458.64 1025.32,-459.03 1027.87,-465.55"/>
</g>
<!-- Node12 -->
<g id="node8" class="node">
<title>Node12</title>
<g id="a_node8"><a xlink:href="structImVector.html#a3a097635d464b1b70dc7d59996a88b28" target="_top" xlink:title=" ">
<polygon fill="white" stroke="#666666" points="1301,-421.5 1159,-421.5 1159,-402.5 1301,-402.5 1301,-421.5"/>
<text text-anchor="middle" x="1230" y="-409.5" font-family="Helvetica,sans-Serif" font-size="10.00">ImVector::_grow_capacity</text>
</a>
</g>
</g>
<!-- Node35&#45;&gt;Node12 -->
<g id="edge9" class="edge">
<title>Node35&#45;&gt;Node12</title>
<path fill="none" stroke="#63b8ff" d="M1107.23,-439.47C1128.39,-434.7 1154.19,-428.88 1176.6,-423.82"/>
<polygon fill="#63b8ff" stroke="#63b8ff" points="1177.64,-427.18 1186.62,-421.56 1176.1,-420.35 1177.64,-427.18"/>
</g>
<!-- Node13 -->
<g id="node9" class="node">
<title>Node13</title>
<g id="a_node9"><a xlink:href="structImVector.html#a0f14f5736c3372157856eebb67123b75" target="_top" xlink:title=" ">
<polygon fill="white" stroke="#666666" points="1281.5,-458.5 1178.5,-458.5 1178.5,-439.5 1281.5,-439.5 1281.5,-458.5"/>
<text text-anchor="middle" x="1230" y="-446.5" font-family="Helvetica,sans-Serif" font-size="10.00">ImVector::reserve</text>
</a>
</g>
</g>
<!-- Node35&#45;&gt;Node13 -->
<g id="edge10" class="edge">
<title>Node35&#45;&gt;Node13</title>
<path fill="none" stroke="#63b8ff" d="M1123.28,-449C1137.73,-449 1153.25,-449 1167.83,-449"/>
<polygon fill="#63b8ff" stroke="#63b8ff" points="1168.25,-452.5 1178.25,-449 1168.25,-445.5 1168.25,-452.5"/>
</g>
<!-- Node53&#45;&gt;Node35 -->
<g id="edge13" class="edge">
<title>Node53&#45;&gt;Node35</title>
<path fill="none" stroke="#63b8ff" d="M897.87,-637.73C915.45,-620.09 944.93,-590.03 969,-563 998.52,-529.85 1031.08,-489.43 1049.08,-466.72"/>
<polygon fill="#63b8ff" stroke="#63b8ff" points="1051.99,-468.68 1055.44,-458.66 1046.5,-464.34 1051.99,-468.68"/>
</g>
<!-- Node39 -->
<g id="node13" class="node">
<title>Node39</title>
<g id="a_node13"><a xlink:href="structImTextureData.html#ae7e2edcf13504e8c6de654c5e4127d3b" target="_top" xlink:title=" ">
<polygon fill="white" stroke="#666666" points="957,-1053.5 806,-1053.5 806,-1034.5 957,-1034.5 957,-1053.5"/>
<text text-anchor="middle" x="881.5" y="-1041.5" font-family="Helvetica,sans-Serif" font-size="10.00">ImTextureData::GetPixelsAt</text>
</a>
</g>
</g>
<!-- Node55&#45;&gt;Node39 -->
<g id="edge16" class="edge">
<title>Node55&#45;&gt;Node39</title>
<path fill="none" stroke="#63b8ff" d="M537.21,-1039.98C611.9,-1040.86 720.47,-1042.13 795.42,-1043"/>
<polygon fill="#63b8ff" stroke="#63b8ff" points="795.73,-1046.51 805.77,-1043.13 795.81,-1039.51 795.73,-1046.51"/>
</g>
<!-- Node38&#45;&gt;Node3 -->
<g id="edge18" class="edge">
<title>Node38&#45;&gt;Node3</title>
<path fill="none" stroke="#63b8ff" d="M288,-973.94C325.19,-961.64 377.18,-944.43 412.37,-932.78"/>
<polygon fill="#63b8ff" stroke="#63b8ff" points="413.88,-935.97 422.27,-929.51 411.68,-929.33 413.88,-935.97"/>
</g>
<!-- Node38&#45;&gt;Node4 -->
<g id="edge19" class="edge">
<title>Node38&#45;&gt;Node4</title>
<path fill="none" stroke="#63b8ff" d="M322.37,-992.22C394.72,-995.13 501.13,-999.42 576.03,-1002.44"/>
<polygon fill="#63b8ff" stroke="#63b8ff" points="576.25,-1005.95 586.38,-1002.85 576.53,-998.95 576.25,-1005.95"/>
</g>
<!-- Node38&#45;&gt;Node39 -->
<g id="edge20" class="edge">
<title>Node38&#45;&gt;Node39</title>
<path fill="none" stroke="#63b8ff" d="M260.85,-1004.29C283.92,-1022.42 325.54,-1051.61 367,-1063 531.58,-1108.22 736.98,-1075.23 830.25,-1055.68"/>
<polygon fill="#63b8ff" stroke="#63b8ff" points="831.21,-1059.06 840.26,-1053.55 829.75,-1052.21 831.21,-1059.06"/>
</g>
<!-- Node56&#45;&gt;Node35 -->
<g id="edge22" class="edge">
<title>Node56&#45;&gt;Node35</title>
<path fill="none" stroke="#63b8ff" d="M901.25,-383.69C925,-395.74 967.36,-416.48 1005,-431 1009.8,-432.85 1014.87,-434.65 1019.94,-436.35"/>
<polygon fill="#63b8ff" stroke="#63b8ff" points="1019.02,-439.73 1029.61,-439.48 1021.18,-433.07 1019.02,-439.73"/>
</g>
<!-- Node11 -->
<g id="node16" class="node">
<title>Node11</title>
<g id="a_node16"><a xlink:href="structImVector.html#ac371dd62e56ae486b1a5038cf07eee56" target="_top" xlink:title=" ">
<polygon fill="white" stroke="#666666" points="1111.5,-421.5 1016.5,-421.5 1016.5,-402.5 1111.5,-402.5 1111.5,-421.5"/>
<text text-anchor="middle" x="1064" y="-409.5" font-family="Helvetica,sans-Serif" font-size="10.00">ImVector::resize</text>
</a>
</g>
</g>
<!-- Node56&#45;&gt;Node11 -->
<g id="edge23" class="edge">
<title>Node56&#45;&gt;Node11</title>
<path fill="none" stroke="#63b8ff" d="M928.05,-383.59C952.3,-388.69 982.3,-395.01 1007.86,-400.39"/>
<polygon fill="#63b8ff" stroke="#63b8ff" points="1007.27,-403.84 1017.78,-402.48 1008.72,-396.99 1007.27,-403.84"/>
</g>
<!-- Node11&#45;&gt;Node12 -->
<g id="edge24" class="edge">
<title>Node11&#45;&gt;Node12</title>
<path fill="none" stroke="#63b8ff" d="M1111.56,-412C1123.14,-412 1135.89,-412 1148.59,-412"/>
<polygon fill="#63b8ff" stroke="#63b8ff" points="1148.74,-415.5 1158.74,-412 1148.74,-408.5 1148.74,-415.5"/>
</g>
<!-- Node11&#45;&gt;Node13 -->
<g id="edge25" class="edge">
<title>Node11&#45;&gt;Node13</title>
<path fill="none" stroke="#63b8ff" d="M1107.23,-421.53C1128.39,-426.3 1154.19,-432.12 1176.6,-437.18"/>
<polygon fill="#63b8ff" stroke="#63b8ff" points="1176.1,-440.65 1186.62,-439.44 1177.64,-433.82 1176.1,-440.65"/>
</g>
<!-- Node59 -->
<g id="node19" class="node">
<title>Node59</title>
<g id="a_node19"><a xlink:href="imgui__draw_8cpp.html#a4e9378547028046be8752b029f5cb6f7" target="_top" xlink:title=" ">
<polygon fill="white" stroke="#666666" points="517.5,-352 386.5,-352 386.5,-322 517.5,-322 517.5,-352"/>
<text text-anchor="start" x="394.5" y="-340" font-family="Helvetica,sans-Serif" font-size="10.00">ImGui_ImplStbTrueType</text>
<text text-anchor="middle" x="452" y="-329" font-family="Helvetica,sans-Serif" font-size="10.00">_FontBakedInit</text>
</a>
</g>
</g>
<!-- Node58&#45;&gt;Node59 -->
<g id="edge28" class="edge">
<title>Node58&#45;&gt;Node59</title>
<path fill="none" stroke="#63b8ff" d="M268.07,-445.8C305.45,-423.56 375.1,-382.14 416.84,-357.32"/>
<polygon fill="#63b8ff" stroke="#63b8ff" points="418.75,-360.25 425.55,-352.14 415.17,-354.24 418.75,-360.25"/>
</g>
<!-- Node62 -->
<g id="node22" class="node">
<title>Node62</title>
<g id="a_node22"><a xlink:href="imgui__draw_8cpp.html#a384d25358c5821097a2a8cfc007a78a5" target="_top" xlink:title=" ">
<polygon fill="white" stroke="#666666" points="517.5,-551 386.5,-551 386.5,-521 517.5,-521 517.5,-551"/>
<text text-anchor="start" x="394.5" y="-539" font-family="Helvetica,sans-Serif" font-size="10.00">ImGui_ImplStbTrueType</text>
<text text-anchor="middle" x="452" y="-528" font-family="Helvetica,sans-Serif" font-size="10.00">_FontBakedLoadGlyph</text>
</a>
</g>
</g>
<!-- Node58&#45;&gt;Node62 -->
<g id="edge31" class="edge">
<title>Node58&#45;&gt;Node62</title>
<path fill="none" stroke="#63b8ff" d="M284.69,-476.18C317.87,-488.11 364.22,-504.79 399.57,-517.5"/>
<polygon fill="#63b8ff" stroke="#63b8ff" points="398.63,-520.88 409.23,-520.97 401,-514.3 398.63,-520.88"/>
</g>
<!-- Node74 -->
<g id="node30" class="node">
<title>Node74</title>
<g id="a_node30"><a xlink:href="imgui__draw_8cpp.html#abbc4496535a5cea3108a34e7ff50a2f6" target="_top" xlink:title=" ">
<polygon fill="white" stroke="#666666" points="517.5,-452 386.5,-452 386.5,-422 517.5,-422 517.5,-452"/>
<text text-anchor="start" x="394.5" y="-440" font-family="Helvetica,sans-Serif" font-size="10.00">ImGui_ImplStbTrueType</text>
<text text-anchor="middle" x="452" y="-429" font-family="Helvetica,sans-Serif" font-size="10.00">_FontSrcContainsGlyph</text>
</a>
</g>
</g>
<!-- Node58&#45;&gt;Node74 -->
<g id="edge44" class="edge">
<title>Node58&#45;&gt;Node74</title>
<path fill="none" stroke="#63b8ff" d="M314.55,-452.71C334.48,-450.41 356.16,-447.92 376.25,-445.6"/>
<polygon fill="#63b8ff" stroke="#63b8ff" points="376.75,-449.07 386.28,-444.45 375.95,-442.12 376.75,-449.07"/>
</g>
<!-- Node75 -->
<g id="node31" class="node">
<title>Node75</title>
<g id="a_node31"><a xlink:href="imgui__draw_8cpp.html#a1b084bce1a6d1ffc1bdf5af634dcf694" target="_top" xlink:title=" ">
<polygon fill="white" stroke="#666666" points="517.5,-869 386.5,-869 386.5,-839 517.5,-839 517.5,-869"/>
<text text-anchor="start" x="394.5" y="-857" font-family="Helvetica,sans-Serif" font-size="10.00">ImGui_ImplStbTrueType</text>
<text text-anchor="middle" x="452" y="-846" font-family="Helvetica,sans-Serif" font-size="10.00">_FontSrcDestroy</text>
</a>
</g>
</g>
<!-- Node58&#45;&gt;Node75 -->
<g id="edge46" class="edge">
<title>Node58&#45;&gt;Node75</title>
<path fill="none" stroke="#63b8ff" d="M248.83,-476.26C263.65,-512.14 301.6,-604.73 331,-683 347.9,-728 339.41,-745.63 367,-785 380.37,-804.08 400.39,-820.81 417.53,-833.01"/>
<polygon fill="#63b8ff" stroke="#63b8ff" points="415.95,-836.18 426.18,-838.97 419.93,-830.42 415.95,-836.18"/>
</g>
<!-- Node79 -->
<g id="node33" class="node">
<title>Node79</title>
<g id="a_node33"><a xlink:href="imgui__draw_8cpp.html#a5dfc4e93e89b1acd59ae482450c64b75" target="_top" xlink:title=" ">
<polygon fill="white" stroke="#666666" points="517.5,-776 386.5,-776 386.5,-746 517.5,-746 517.5,-776"/>
<text text-anchor="start" x="394.5" y="-764" font-family="Helvetica,sans-Serif" font-size="10.00">ImGui_ImplStbTrueType</text>
<text text-anchor="middle" x="452" y="-753" font-family="Helvetica,sans-Serif" font-size="10.00">_FontSrcInit</text>
</a>
</g>
</g>
<!-- Node58&#45;&gt;Node79 -->
<g id="edge48" class="edge">
<title>Node58&#45;&gt;Node79</title>
<path fill="none" stroke="#63b8ff" d="M253.13,-476.29C287.15,-525.24 393.55,-678.33 434.61,-737.41"/>
<polygon fill="#63b8ff" stroke="#63b8ff" points="431.81,-739.53 440.4,-745.74 437.56,-735.53 431.81,-739.53"/>
</g>
<!-- Node60 -->
<g id="node20" class="node">
<title>Node60</title>
<g id="a_node20"><a xlink:href="imgui__internal_8h.html#a51a84b6be21807818b857a8565d97912" target="_top" xlink:title=" ">
<polygon fill="white" stroke="#666666" points="692.5,-309.5 638.5,-309.5 638.5,-290.5 692.5,-290.5 692.5,-309.5"/>
<text text-anchor="middle" x="665.5" y="-297.5" font-family="Helvetica,sans-Serif" font-size="10.00">ImFloor</text>
</a>
</g>
</g>
<!-- Node59&#45;&gt;Node60 -->
<g id="edge29" class="edge">
<title>Node59&#45;&gt;Node60</title>
<path fill="none" stroke="#63b8ff" d="M517.61,-325.7C553.9,-319.35 597.86,-311.66 628.17,-306.35"/>
<polygon fill="#63b8ff" stroke="#63b8ff" points="629.05,-309.76 638.29,-304.58 627.84,-302.86 629.05,-309.76"/>
</g>
<!-- Node61 -->
<g id="node21" class="node">
<title>Node61</title>
<g id="a_node21"><a xlink:href="imstb__truetype_8h.html#a2784e0e55678a5980e950b1c9fbc75f0" target="_top" xlink:title=" ">
<polygon fill="white" stroke="#666666" points="728,-346.5 603,-346.5 603,-327.5 728,-327.5 728,-346.5"/>
<text text-anchor="middle" x="665.5" y="-334.5" font-family="Helvetica,sans-Serif" font-size="10.00">stbtt_GetFontVMetrics</text>
</a>
</g>
</g>
<!-- Node59&#45;&gt;Node61 -->
<g id="edge30" class="edge">
<title>Node59&#45;&gt;Node61</title>
<path fill="none" stroke="#63b8ff" d="M517.61,-337C541.31,-337 568.28,-337 592.59,-337"/>
<polygon fill="#63b8ff" stroke="#63b8ff" points="592.82,-340.5 602.82,-337 592.82,-333.5 592.82,-340.5"/>
</g>
<!-- Node62&#45;&gt;Node8 -->
<g id="edge36" class="edge">
<title>Node62&#45;&gt;Node8</title>
<path fill="none" stroke="#63b8ff" d="M459.6,-551.02C474.15,-584.29 509.85,-666.81 537,-737 554.19,-781.45 536.9,-806.89 573,-838 577.22,-841.63 581.95,-844.62 586.98,-847.06"/>
<polygon fill="#63b8ff" stroke="#63b8ff" points="585.75,-850.33 596.33,-850.89 588.4,-843.85 585.75,-850.33"/>
</g>
<!-- Node62&#45;&gt;Node23 -->
<g id="edge37" class="edge">
<title>Node62&#45;&gt;Node23</title>
<path fill="none" stroke="#63b8ff" d="M460.18,-551.1C475.71,-584.2 512.99,-665.87 537,-737 557.27,-797.06 526.83,-831.57 573,-875 577.2,-878.95 582,-882.15 587.16,-884.73"/>
<polygon fill="#63b8ff" stroke="#63b8ff" points="586.2,-888.12 596.77,-888.74 588.89,-881.66 586.2,-888.12"/>
</g>
<!-- Node62&#45;&gt;Node11 -->
<g id="edge38" class="edge">
<title>Node62&#45;&gt;Node11</title>
<path fill="none" stroke="#63b8ff" d="M470.1,-520.65C501.75,-492.32 566.82,-434.45 573,-432 650.23,-401.38 894.48,-405.82 1006.21,-409.66"/>
<polygon fill="#63b8ff" stroke="#63b8ff" points="1006.16,-413.16 1016.28,-410.02 1006.41,-406.17 1006.16,-413.16"/>
</g>
<!-- Node63 -->
<g id="node23" class="node">
<title>Node63</title>
<g id="a_node23"><a xlink:href="imgui__draw_8cpp.html#af9bb9baf259d78887086d048324b8657" target="_top" xlink:title=" ">
<polygon fill="#fff0f0" stroke="red" points="750.5,-668 580.5,-668 580.5,-638 750.5,-638 750.5,-668"/>
<text text-anchor="start" x="588.5" y="-656" font-family="Helvetica,sans-Serif" font-size="10.00">ImFontAtlasBakedSetFontGlyph</text>
<text text-anchor="middle" x="665.5" y="-645" font-family="Helvetica,sans-Serif" font-size="10.00">Bitmap</text>
</a>
</g>
</g>
<!-- Node62&#45;&gt;Node63 -->
<g id="edge32" class="edge">
<title>Node62&#45;&gt;Node63</title>
<path fill="none" stroke="#63b8ff" d="M468.27,-551.21C489.81,-571.81 531.15,-608.38 573,-629 577,-630.97 581.19,-632.8 585.47,-634.48"/>
<polygon fill="#63b8ff" stroke="#63b8ff" points="584.37,-637.81 594.96,-637.95 586.77,-631.23 584.37,-637.81"/>
</g>
<!-- Node68 -->
<g id="node24" class="node">
<title>Node68</title>
<g id="a_node24"><a xlink:href="imgui__draw_8cpp.html#a2f95da190b053827e48cbd80f1f6cdf4" target="_top" xlink:title=" ">
<polygon fill="white" stroke="#666666" points="753.5,-508 577.5,-508 577.5,-478 753.5,-478 753.5,-508"/>
<text text-anchor="start" x="585.5" y="-496" font-family="Helvetica,sans-Serif" font-size="10.00">ImFontAtlasBuildGetOversample</text>
<text text-anchor="middle" x="665.5" y="-485" font-family="Helvetica,sans-Serif" font-size="10.00">Factors</text>
</a>
</g>
</g>
<!-- Node62&#45;&gt;Node68 -->
<g id="edge35" class="edge">
<title>Node62&#45;&gt;Node68</title>
<path fill="none" stroke="#63b8ff" d="M517.61,-522.86C537.53,-518.81 559.77,-514.29 580.79,-510.02"/>
<polygon fill="#63b8ff" stroke="#63b8ff" points="581.56,-513.43 590.67,-508.01 580.17,-506.57 581.56,-513.43"/>
</g>
<!-- Node69 -->
<g id="node25" class="node">
<title>Node69</title>
<g id="a_node25"><a xlink:href="imstb__truetype_8h.html#a213d5628c6b2e5c107b99378eefc6e3a" target="_top" xlink:title=" ">
<polygon fill="white" stroke="#666666" points="725.5,-383.5 605.5,-383.5 605.5,-364.5 725.5,-364.5 725.5,-383.5"/>
<text text-anchor="middle" x="665.5" y="-371.5" font-family="Helvetica,sans-Serif" font-size="10.00">stbtt_FindGlyphIndex</text>
</a>
</g>
</g>
<!-- Node62&#45;&gt;Node69 -->
<g id="edge39" class="edge">
<title>Node62&#45;&gt;Node69</title>
<path fill="none" stroke="#63b8ff" d="M473.36,-520.91C491.51,-506.79 518.06,-484.4 537,-461 557.29,-435.94 547.41,-417.62 573,-398 579.74,-392.83 587.5,-388.77 595.59,-385.58"/>
<polygon fill="#63b8ff" stroke="#63b8ff" points="596.9,-388.83 605.19,-382.22 594.59,-382.22 596.9,-388.83"/>
</g>
<!-- Node70 -->
<g id="node26" class="node">
<title>Node70</title>
<g id="a_node26"><a xlink:href="imstb__truetype_8h.html#a7bba8bb63f534246ccd3ed5b9390cc53" target="_top" xlink:title=" ">
<polygon fill="white" stroke="#666666" points="737.5,-459.5 593.5,-459.5 593.5,-440.5 737.5,-440.5 737.5,-459.5"/>
<text text-anchor="middle" x="665.5" y="-447.5" font-family="Helvetica,sans-Serif" font-size="10.00">stbtt_GetGlyphBitmapBox</text>
</a>
</g>
</g>
<!-- Node62&#45;&gt;Node70 -->
<g id="edge40" class="edge">
<title>Node62&#45;&gt;Node70</title>
<path fill="none" stroke="#63b8ff" d="M475.01,-521C498.35,-505.75 536.78,-482.51 573,-469 580.16,-466.33 587.79,-464 595.46,-461.97"/>
<polygon fill="#63b8ff" stroke="#63b8ff" points="596.31,-465.37 605.18,-459.57 594.63,-458.57 596.31,-465.37"/>
</g>
<!-- Node71 -->
<g id="node27" class="node">
<title>Node71</title>
<g id="a_node27"><a xlink:href="imstb__truetype_8h.html#a597ef6b92ab0b5800c74478548b4782f" target="_top" xlink:title=" ">
<polygon fill="white" stroke="#666666" points="758,-619.5 573,-619.5 573,-600.5 758,-600.5 758,-619.5"/>
<text text-anchor="middle" x="665.5" y="-607.5" font-family="Helvetica,sans-Serif" font-size="10.00">stbtt_GetGlyphBitmapBoxSubpixel</text>
</a>
</g>
</g>
<!-- Node62&#45;&gt;Node71 -->
<g id="edge41" class="edge">
<title>Node62&#45;&gt;Node71</title>
<path fill="none" stroke="#63b8ff" d="M480.35,-551.1C504.18,-563.68 540,-581.23 573,-592 580.06,-594.3 587.53,-596.36 595.04,-598.19"/>
<polygon fill="#63b8ff" stroke="#63b8ff" points="594.37,-601.62 604.9,-600.45 595.93,-594.8 594.37,-601.62"/>
</g>
<!-- Node72 -->
<g id="node28" class="node">
<title>Node72</title>
<g id="a_node28"><a xlink:href="imstb__truetype_8h.html#ab593f3066f2a8a7e33e7b7011d1b1f9a" target="_top" xlink:title=" ">
<polygon fill="white" stroke="#666666" points="732.5,-582.5 598.5,-582.5 598.5,-563.5 732.5,-563.5 732.5,-582.5"/>
<text text-anchor="middle" x="665.5" y="-570.5" font-family="Helvetica,sans-Serif" font-size="10.00">stbtt_GetGlyphHMetrics</text>
</a>
</g>
</g>
<!-- Node62&#45;&gt;Node72 -->
<g id="edge42" class="edge">
<title>Node62&#45;&gt;Node72</title>
<path fill="none" stroke="#63b8ff" d="M517.61,-547.3C543.67,-551.86 573.68,-557.11 599.75,-561.67"/>
<polygon fill="#63b8ff" stroke="#63b8ff" points="599.46,-565.17 609.91,-563.45 600.66,-558.28 599.46,-565.17"/>
</g>
<!-- Node73 -->
<g id="node29" class="node">
<title>Node73</title>
<g id="a_node29"><a xlink:href="imstb__truetype_8h.html#aa82d35f758bc70bd675c48da381e7ea7" target="_top" xlink:title=" ">
<polygon fill="white" stroke="#666666" points="753.5,-545.5 577.5,-545.5 577.5,-526.5 753.5,-526.5 753.5,-545.5"/>
<text text-anchor="middle" x="665.5" y="-533.5" font-family="Helvetica,sans-Serif" font-size="10.00">stbtt_MakeGlyphBitmapSubpixel</text>
</a>
</g>
</g>
<!-- Node62&#45;&gt;Node73 -->
<g id="edge43" class="edge">
<title>Node62&#45;&gt;Node73</title>
<path fill="none" stroke="#63b8ff" d="M517.61,-536C533.2,-536 550.21,-536 566.94,-536"/>
<polygon fill="#63b8ff" stroke="#63b8ff" points="567.31,-539.5 577.31,-536 567.31,-532.5 567.31,-539.5"/>
</g>
<!-- Node63&#45;&gt;Node53 -->
<g id="edge34" class="edge">
<title>Node63&#45;&gt;Node53</title>
<path fill="none" stroke="#63b8ff" d="M750.77,-653C762.35,-653 774.3,-653 786.05,-653"/>
<polygon fill="#63b8ff" stroke="#63b8ff" points="786.31,-656.5 796.31,-653 786.31,-649.5 786.31,-656.5"/>
</g>
<!-- Node63&#45;&gt;Node39 -->
<g id="edge33" class="edge">
<title>Node63&#45;&gt;Node39</title>
<path fill="none" stroke="#63b8ff" d="M744.41,-668.12C749.33,-670.89 753.93,-674.15 758,-678 861.39,-775.73 877.54,-963.1 880.05,-1024.2"/>
<polygon fill="#63b8ff" stroke="#63b8ff" points="876.56,-1024.51 880.38,-1034.39 883.55,-1024.28 876.56,-1024.51"/>
</g>
<!-- Node74&#45;&gt;Node69 -->
<g id="edge45" class="edge">
<title>Node74&#45;&gt;Node69</title>
<path fill="none" stroke="#63b8ff" d="M497.26,-421.94C519.83,-414.43 547.78,-405.4 573,-398 586.95,-393.91 602.19,-389.78 616.16,-386.12"/>
<polygon fill="#63b8ff" stroke="#63b8ff" points="617.28,-389.45 626.08,-383.55 615.52,-382.67 617.28,-389.45"/>
</g>
<!-- Node76 -->
<g id="node32" class="node">
<title>Node76</title>
<g id="a_node32"><a xlink:href="imgui_8h.html#a3c856832c3fe1da8767a9353da3707e1" target="_top" xlink:title=" ">
<polygon fill="#fff0f0" stroke="red" points="701,-939.5 630,-939.5 630,-920.5 701,-920.5 701,-939.5"/>
<text text-anchor="middle" x="665.5" y="-927.5" font-family="Helvetica,sans-Serif" font-size="10.00">IM_DELETE</text>
</a>
</g>
</g>
<!-- Node75&#45;&gt;Node76 -->
<g id="edge47" class="edge">
<title>Node75&#45;&gt;Node76</title>
<path fill="none" stroke="#63b8ff" d="M479.34,-869.17C503.11,-882.26 539.42,-900.79 573,-912 587.85,-916.96 604.53,-920.74 619.55,-923.52"/>
<polygon fill="#63b8ff" stroke="#63b8ff" points="619.18,-927.01 629.63,-925.29 620.39,-920.12 619.18,-927.01"/>
</g>
<!-- Node79&#45;&gt;Node76 -->
<g id="edge49" class="edge">
<title>Node79&#45;&gt;Node76</title>
<path fill="none" stroke="#63b8ff" d="M476.98,-776.11C495.38,-788.68 520.36,-808.04 537,-830 561.04,-861.72 541.94,-887.11 573,-912 586.06,-922.47 603.49,-927.41 619.63,-929.6"/>
<polygon fill="#63b8ff" stroke="#63b8ff" points="619.69,-933.12 629.99,-930.66 620.4,-926.16 619.69,-933.12"/>
</g>
<!-- Node80 -->
<g id="node34" class="node">
<title>Node80</title>
<g id="a_node34"><a xlink:href="imstb__truetype_8h.html#a5ba17159df62ca39649e6f2231ac6e89" target="_top" xlink:title=" ">
<polygon fill="white" stroke="#666666" points="742.5,-828.5 588.5,-828.5 588.5,-809.5 742.5,-809.5 742.5,-828.5"/>
<text text-anchor="middle" x="665.5" y="-816.5" font-family="Helvetica,sans-Serif" font-size="10.00">stbtt_GetFontOffsetForIndex</text>
</a>
</g>
</g>
<!-- Node79&#45;&gt;Node80 -->
<g id="edge50" class="edge">
<title>Node79&#45;&gt;Node80</title>
<path fill="none" stroke="#63b8ff" d="M493.71,-776.01C516.76,-784.14 546.25,-793.94 573,-801 581.74,-803.31 591.01,-805.46 600.18,-807.42"/>
<polygon fill="#63b8ff" stroke="#63b8ff" points="599.55,-810.87 610.05,-809.47 600.97,-804.01 599.55,-810.87"/>
</g>
<!-- Node81 -->
<g id="node35" class="node">
<title>Node81</title>
<g id="a_node35"><a xlink:href="imstb__truetype_8h.html#ac3b6bda1851d0b1a4fd53f5f353668e5" target="_top" xlink:title=" ">
<polygon fill="white" stroke="#666666" points="706,-791.5 625,-791.5 625,-772.5 706,-772.5 706,-791.5"/>
<text text-anchor="middle" x="665.5" y="-779.5" font-family="Helvetica,sans-Serif" font-size="10.00">stbtt_InitFont</text>
</a>
</g>
</g>
<!-- Node79&#45;&gt;Node81 -->
<g id="edge51" class="edge">
<title>Node79&#45;&gt;Node81</title>
<path fill="none" stroke="#63b8ff" d="M517.61,-767.41C548.77,-770.51 585.57,-774.16 614.55,-777.04"/>
<polygon fill="#63b8ff" stroke="#63b8ff" points="614.55,-780.56 624.84,-778.06 615.24,-773.59 614.55,-780.56"/>
</g>
<!-- Node82 -->
<g id="node36" class="node">
<title>Node82</title>
<g id="a_node36"><a xlink:href="imstb__truetype_8h.html#a76da72e13355eae763c567ffde0b4607" target="_top" xlink:title=" ">
<polygon fill="white" stroke="#666666" points="742.5,-754 588.5,-754 588.5,-724 742.5,-724 742.5,-754"/>
<text text-anchor="start" x="596.5" y="-742" font-family="Helvetica,sans-Serif" font-size="10.00">stbtt_ScaleForMappingEmTo</text>
<text text-anchor="middle" x="665.5" y="-731" font-family="Helvetica,sans-Serif" font-size="10.00">Pixels</text>
</a>
</g>
</g>
<!-- Node79&#45;&gt;Node82 -->
<g id="edge52" class="edge">
<title>Node79&#45;&gt;Node82</title>
<path fill="none" stroke="#63b8ff" d="M517.61,-754.28C536.73,-752.29 557.98,-750.08 578.24,-747.97"/>
<polygon fill="#63b8ff" stroke="#63b8ff" points="578.82,-751.43 588.41,-746.92 578.1,-744.47 578.82,-751.43"/>
</g>
<!-- Node83 -->
<g id="node37" class="node">
<title>Node83</title>
<g id="a_node37"><a xlink:href="imstb__truetype_8h.html#aad275d7211530a3d817fcd8647690b7b" target="_top" xlink:title=" ">
<polygon fill="white" stroke="#666666" points="736,-705.5 595,-705.5 595,-686.5 736,-686.5 736,-705.5"/>
<text text-anchor="middle" x="665.5" y="-693.5" font-family="Helvetica,sans-Serif" font-size="10.00">stbtt_ScaleForPixelHeight</text>
</a>
</g>
</g>
<!-- Node79&#45;&gt;Node83 -->
<g id="edge53" class="edge">
<title>Node79&#45;&gt;Node83</title>
<path fill="none" stroke="#63b8ff" d="M487.93,-745.89C511.6,-736.08 543.78,-723.57 573,-715 582.13,-712.32 591.87,-709.87 601.48,-707.69"/>
<polygon fill="#63b8ff" stroke="#63b8ff" points="602.38,-711.08 611.4,-705.51 600.88,-704.24 602.38,-711.08"/>
</g>
<!-- Node41 -->
<g id="node39" class="node">
<title>Node41</title>
<g id="a_node39"><a xlink:href="imstb__rectpack_8h.html#a8b32f5ad458f614f5d419ef26cef5b3c" target="_top" xlink:title=" ">
<polygon fill="white" stroke="#666666" points="500.5,-111.5 403.5,-111.5 403.5,-92.5 500.5,-92.5 500.5,-111.5"/>
<text text-anchor="middle" x="452" y="-99.5" font-family="Helvetica,sans-Serif" font-size="10.00">stbrp_init_target</text>
</a>
</g>
</g>
<!-- Node40&#45;&gt;Node41 -->
<g id="edge55" class="edge">
<title>Node40&#45;&gt;Node41</title>
<path fill="none" stroke="#63b8ff" d="M297.55,-128.49C327.15,-123.38 363.6,-117.09 393.55,-111.92"/>
<polygon fill="#63b8ff" stroke="#63b8ff" points="394.18,-115.36 403.44,-110.21 392.99,-108.46 394.18,-115.36"/>
</g>
<!-- Node42&#45;&gt;Node35 -->
<g id="edge62" class="edge">
<title>Node42&#45;&gt;Node35</title>
<path fill="none" stroke="#63b8ff" d="M306.66,-222.84C429.18,-221.93 690.33,-226.76 758,-282 798.18,-314.8 755.39,-358.37 794,-393 848.63,-442.01 934.75,-452.34 994.78,-452.78"/>
<polygon fill="#63b8ff" stroke="#63b8ff" points="994.94,-456.28 1004.93,-452.76 994.92,-449.28 994.94,-456.28"/>
</g>
<!-- Node43 -->
<g id="node41" class="node">
<title>Node43</title>
<g id="a_node41"><a xlink:href="structImTextureData.html#a22fc119a6933ecbb7fc600cbf93d41aa" target="_top" xlink:title=" ">
<polygon fill="white" stroke="#666666" points="515.5,-148.5 388.5,-148.5 388.5,-129.5 515.5,-129.5 515.5,-148.5"/>
<text text-anchor="middle" x="452" y="-136.5" font-family="Helvetica,sans-Serif" font-size="10.00">ImTextureData::Create</text>
</a>
</g>
</g>
<!-- Node42&#45;&gt;Node43 -->
<g id="edge57" class="edge">
<title>Node42&#45;&gt;Node43</title>
<path fill="none" stroke="#63b8ff" d="M306.62,-215.17C315.13,-212.6 323.49,-209.28 331,-205 351.49,-193.31 347.12,-178.69 367,-166 376.19,-160.13 386.77,-155.44 397.25,-151.72"/>
<polygon fill="#63b8ff" stroke="#63b8ff" points="398.4,-155.03 406.81,-148.58 396.21,-148.38 398.4,-155.03"/>
</g>
<!-- Node30 -->
<g id="node44" class="node">
<title>Node30</title>
<g id="a_node44"><a xlink:href="imgui__draw_8cpp.html#a10edae7dc82c6255c63f3d6761f204f5" target="_top" xlink:title=" ">
<polygon fill="white" stroke="#666666" points="528,-193.5 376,-193.5 376,-174.5 528,-174.5 528,-193.5"/>
<text text-anchor="middle" x="452" y="-181.5" font-family="Helvetica,sans-Serif" font-size="10.00">ImFontAtlasBuildSetTexture</text>
</a>
</g>
</g>
<!-- Node42&#45;&gt;Node30 -->
<g id="edge60" class="edge">
<title>Node42&#45;&gt;Node30</title>
<path fill="none" stroke="#63b8ff" d="M292.18,-214.47C321.96,-208.76 360.01,-201.46 391.4,-195.43"/>
<polygon fill="#63b8ff" stroke="#63b8ff" points="392.18,-198.85 401.34,-193.53 390.86,-191.97 392.18,-198.85"/>
</g>
<!-- Node44 -->
<g id="node42" class="node">
<title>Node44</title>
<g id="a_node42"><a xlink:href="structImTextureData.html#a63aab478701f325532298d9fe0c6d0dd" target="_top" xlink:title=" ">
<polygon fill="white" stroke="#666666" points="746,-99.5 585,-99.5 585,-80.5 746,-80.5 746,-99.5"/>
<text text-anchor="middle" x="665.5" y="-87.5" font-family="Helvetica,sans-Serif" font-size="10.00">ImTextureData::DestroyPixels</text>
</a>
</g>
</g>
<!-- Node43&#45;&gt;Node44 -->
<g id="edge58" class="edge">
<title>Node43&#45;&gt;Node44</title>
<path fill="none" stroke="#63b8ff" d="M498.05,-129.46C510.7,-126.6 524.43,-123.34 537,-120 553.17,-115.71 556.79,-113.15 573,-109 583.12,-106.41 593.95,-103.92 604.47,-101.64"/>
<polygon fill="#63b8ff" stroke="#63b8ff" points="605.39,-105.03 614.45,-99.53 603.94,-98.18 605.39,-105.03"/>
</g>
<!-- Node45 -->
<g id="node43" class="node">
<title>Node45</title>
<g id="a_node43"><a xlink:href="imgui__draw_8cpp.html#ab03ee823701d6a6b8b0d95d8ff56be73" target="_top" xlink:title=" ">
<polygon fill="white" stroke="#666666" points="749.5,-148 581.5,-148 581.5,-118 749.5,-118 749.5,-148"/>
<text text-anchor="start" x="589.5" y="-136" font-family="Helvetica,sans-Serif" font-size="10.00">ImTextureDataGetFormatBytes</text>
<text text-anchor="middle" x="665.5" y="-125" font-family="Helvetica,sans-Serif" font-size="10.00">PerPixel</text>
</a>
</g>
</g>
<!-- Node43&#45;&gt;Node45 -->
<g id="edge59" class="edge">
<title>Node43&#45;&gt;Node45</title>
<path fill="none" stroke="#63b8ff" d="M515.6,-137.22C533.05,-136.73 552.39,-136.18 571.2,-135.65"/>
<polygon fill="#63b8ff" stroke="#63b8ff" points="571.38,-139.14 581.27,-135.36 571.18,-132.15 571.38,-139.14"/>
</g>
<!-- Node31 -->
<g id="node45" class="node">
<title>Node31</title>
<g id="a_node45"><a xlink:href="imgui__draw_8cpp.html#a2e42a220e1f4f691b02e9d27159a9b48" target="_top" xlink:title=" ">
<polygon fill="#fff0f0" stroke="red" points="744.5,-196 586.5,-196 586.5,-166 744.5,-166 744.5,-196"/>
<text text-anchor="start" x="594.5" y="-184" font-family="Helvetica,sans-Serif" font-size="10.00">ImFontAtlasUpdateDrawLists</text>
<text text-anchor="middle" x="665.5" y="-173" font-family="Helvetica,sans-Serif" font-size="10.00">Textures</text>
</a>
</g>
</g>
<!-- Node30&#45;&gt;Node31 -->
<g id="edge61" class="edge">
<title>Node30&#45;&gt;Node31</title>
<path fill="none" stroke="#63b8ff" d="M528.16,-182.93C543.65,-182.71 560.09,-182.48 576,-182.26"/>
<polygon fill="#63b8ff" stroke="#63b8ff" points="576.41,-185.75 586.36,-182.11 576.31,-178.75 576.41,-185.75"/>
</g>
<!-- Node85 -->
<g id="node49" class="node">
<title>Node85</title>
<g id="a_node49"><a xlink:href="imgui__draw_8cpp.html#a19d7fb37c8bf850f4996965eaf4c7986" target="_top" xlink:title=" ">
<polygon fill="#fff0f0" stroke="red" points="526.5,-30 377.5,-30 377.5,0 526.5,0 526.5,-30"/>
<text text-anchor="start" x="385.5" y="-18" font-family="Helvetica,sans-Serif" font-size="10.00">ImFontAtlasBuildSetupFont</text>
<text text-anchor="middle" x="452" y="-7" font-family="Helvetica,sans-Serif" font-size="10.00">Loader</text>
</a>
</g>
</g>
<!-- Node84&#45;&gt;Node85 -->
<g id="edge66" class="edge">
<title>Node84&#45;&gt;Node85</title>
<path fill="none" stroke="#63b8ff" d="M317.18,-15C333.34,-15 350.54,-15 367.03,-15"/>
<polygon fill="#63b8ff" stroke="#63b8ff" points="367.19,-18.5 377.19,-15 367.19,-11.5 367.19,-18.5"/>
</g>
<!-- Node86 -->
<g id="node50" class="node">
<title>Node86</title>
<g id="a_node50"><a xlink:href="imgui__draw_8cpp.html#af583742e2268ebaef124cba2fa666e6b" target="_top" xlink:title=" ">
<polygon fill="#fff0f0" stroke="red" points="749,-24.5 582,-24.5 582,-5.5 749,-5.5 749,-24.5"/>
<text text-anchor="middle" x="665.5" y="-12.5" font-family="Helvetica,sans-Serif" font-size="10.00">ImFontAtlasFontDestroyOutput</text>
</a>
</g>
</g>
<!-- Node85&#45;&gt;Node86 -->
<g id="edge67" class="edge">
<title>Node85&#45;&gt;Node86</title>
<path fill="none" stroke="#63b8ff" d="M526.68,-15C541.11,-15 556.42,-15 571.39,-15"/>
<polygon fill="#63b8ff" stroke="#63b8ff" points="571.69,-18.5 581.69,-15 571.69,-11.5 571.69,-18.5"/>
</g>
</g>
</svg>
