<?xml version="1.0" encoding="UTF-8" standalone="no"?>
<!DOCTYPE svg PUBLIC "-//W3C//DTD SVG 1.1//EN"
 "http://www.w3.org/Graphics/SVG/1.1/DTD/svg11.dtd">
<!-- Generated by graphviz version 2.43.0 (0)
 -->
<!-- Title: ImGuizmoManipulator.h Pages: 1 -->
<svg width="3035pt" height="258pt"
 viewBox="0.00 0.00 3035.00 258.00" xmlns="http://www.w3.org/2000/svg" xmlns:xlink="http://www.w3.org/1999/xlink">
<g id="graph0" class="graph" transform="scale(1 1) rotate(0) translate(4 254)">
<title>ImGuizmoManipulator.h</title>
<!-- Node1 -->
<g id="node1" class="node">
<title>Node1</title>
<g id="a_node1"><a xlink:title=" ">
<polygon fill="#999999" stroke="#666666" points="1753.5,-250 1619.5,-250 1619.5,-231 1753.5,-231 1753.5,-250"/>
<text text-anchor="middle" x="1686.5" y="-238" font-family="Helvetica,sans-Serif" font-size="10.00">ImGuizmoManipulator.h</text>
</a>
</g>
</g>
<!-- Node2 -->
<g id="node2" class="node">
<title>Node2</title>
<g id="a_node2"><a xlink:href="ImGuiShowable_8h.html" target="_top" xlink:title=" ">
<polygon fill="white" stroke="#666666" points="1737.5,-189.5 1635.5,-189.5 1635.5,-170.5 1737.5,-170.5 1737.5,-189.5"/>
<text text-anchor="middle" x="1686.5" y="-177.5" font-family="Helvetica,sans-Serif" font-size="10.00">ImGuiShowable.h</text>
</a>
</g>
</g>
<!-- Node1&#45;&gt;Node2 -->
<g id="edge1" class="edge">
<title>Node1&#45;&gt;Node2</title>
<path fill="none" stroke="#63b8ff" d="M1686.5,-230.87C1686.5,-222.75 1686.5,-210.31 1686.5,-199.89"/>
<polygon fill="#63b8ff" stroke="#63b8ff" points="1690,-199.67 1686.5,-189.67 1683,-199.67 1690,-199.67"/>
</g>
<!-- Node20 -->
<g id="node18" class="node">
<title>Node20</title>
<g id="a_node18"><a xlink:href="Matrix4x4_8h.html" target="_top" xlink:title=" ">
<polygon fill="white" stroke="#666666" points="77,-129 2,-129 2,-110 77,-110 77,-129"/>
<text text-anchor="middle" x="39.5" y="-117" font-family="Helvetica,sans-Serif" font-size="10.00">Matrix4x4.h</text>
</a>
</g>
</g>
<!-- Node1&#45;&gt;Node20 -->
<g id="edge18" class="edge">
<title>Node1&#45;&gt;Node20</title>
<path fill="none" stroke="#63b8ff" d="M1619.37,-239.69C1439.97,-239.6 934.56,-235.46 516.5,-195 358.17,-179.68 172.44,-146.13 86.95,-129.8"/>
<polygon fill="#63b8ff" stroke="#63b8ff" points="87.51,-126.34 77.03,-127.9 86.19,-133.22 87.51,-126.34"/>
</g>
<!-- Node23 -->
<g id="node21" class="node">
<title>Node23</title>
<g id="a_node21"><a xlink:href="imgui__impl__win32_8h.html" target="_top" xlink:title=" ">
<polygon fill="white" stroke="#666666" points="2524,-195 2411,-195 2411,-165 2524,-165 2524,-195"/>
<text text-anchor="start" x="2419" y="-183" font-family="Helvetica,sans-Serif" font-size="10.00">../ImGui/imgui_impl</text>
<text text-anchor="middle" x="2467.5" y="-172" font-family="Helvetica,sans-Serif" font-size="10.00">_win32.h</text>
</a>
</g>
</g>
<!-- Node1&#45;&gt;Node23 -->
<g id="edge22" class="edge">
<title>Node1&#45;&gt;Node23</title>
<path fill="none" stroke="#63b8ff" d="M1753.84,-238.24C1880.27,-235.22 2161.63,-225.38 2396.5,-195 2397.8,-194.83 2399.11,-194.66 2400.42,-194.47"/>
<polygon fill="#63b8ff" stroke="#63b8ff" points="2401.29,-197.88 2410.64,-192.9 2400.23,-190.96 2401.29,-197.88"/>
</g>
<!-- Node31 -->
<g id="node29" class="node">
<title>Node31</title>
<g id="a_node29"><a xlink:href="ImGuizmo_8h.html" target="_top" xlink:title=" ">
<polygon fill="white" stroke="#666666" points="2659,-189.5 2542,-189.5 2542,-170.5 2659,-170.5 2659,-189.5"/>
<text text-anchor="middle" x="2600.5" y="-177.5" font-family="Helvetica,sans-Serif" font-size="10.00">../ImGui/ImGuizmo.h</text>
</a>
</g>
</g>
<!-- Node1&#45;&gt;Node31 -->
<g id="edge30" class="edge">
<title>Node1&#45;&gt;Node31</title>
<path fill="none" stroke="#63b8ff" d="M1753.71,-239.39C1897.3,-238.41 2244.39,-232.02 2532.5,-195 2539.65,-194.08 2547.17,-192.83 2554.5,-191.45"/>
<polygon fill="#63b8ff" stroke="#63b8ff" points="2555.19,-194.88 2564.32,-189.5 2553.83,-188.01 2555.19,-194.88"/>
</g>
<!-- Node32 -->
<g id="node30" class="node">
<title>Node32</title>
<g id="a_node30"><a xlink:title=" ">
<polygon fill="#e0e0e0" stroke="#999999" points="2505,-129 2440,-129 2440,-110 2505,-110 2505,-129"/>
<text text-anchor="middle" x="2472.5" y="-117" font-family="Helvetica,sans-Serif" font-size="10.00">functional</text>
</a>
</g>
</g>
<!-- Node1&#45;&gt;Node32 -->
<g id="edge31" class="edge">
<title>Node1&#45;&gt;Node32</title>
<path fill="none" stroke="#63b8ff" d="M1753.59,-240C1901.76,-240.32 2252.45,-236.51 2362.5,-195 2382.96,-187.28 2383.55,-177.49 2401.5,-165 2417.08,-154.16 2435.21,-142.82 2449.25,-134.3"/>
<polygon fill="#63b8ff" stroke="#63b8ff" points="2451.06,-137.29 2457.82,-129.14 2447.45,-131.3 2451.06,-137.29"/>
</g>
<!-- Node33 -->
<g id="node31" class="node">
<title>Node33</title>
<g id="a_node31"><a xlink:href="Command_8h.html" target="_top" xlink:title=" ">
<polygon fill="white" stroke="#666666" points="883.5,-129 807.5,-129 807.5,-110 883.5,-110 883.5,-129"/>
<text text-anchor="middle" x="845.5" y="-117" font-family="Helvetica,sans-Serif" font-size="10.00">Command.h</text>
</a>
</g>
</g>
<!-- Node1&#45;&gt;Node33 -->
<g id="edge32" class="edge">
<title>Node1&#45;&gt;Node33</title>
<path fill="none" stroke="#63b8ff" d="M1619.23,-240.21C1504.61,-240.2 1264.61,-234.83 1066.5,-195 995.57,-180.74 916,-150.09 874.4,-132.88"/>
<polygon fill="#63b8ff" stroke="#63b8ff" points="875.72,-129.64 865.15,-129.02 873.02,-136.1 875.72,-129.64"/>
</g>
<!-- Node34 -->
<g id="node32" class="node">
<title>Node34</title>
<g id="a_node32"><a xlink:href="CommandHandlerRegistry_8h.html" target="_top" xlink:title=" ">
<polygon fill="white" stroke="#666666" points="2354,-189.5 2201,-189.5 2201,-170.5 2354,-170.5 2354,-189.5"/>
<text text-anchor="middle" x="2277.5" y="-177.5" font-family="Helvetica,sans-Serif" font-size="10.00">CommandHandlerRegistry.h</text>
</a>
</g>
</g>
<!-- Node1&#45;&gt;Node34 -->
<g id="edge35" class="edge">
<title>Node1&#45;&gt;Node34</title>
<path fill="none" stroke="#63b8ff" d="M1753.65,-235.16C1850.56,-228.54 2035.18,-214.58 2191.5,-195 2200.33,-193.89 2209.65,-192.56 2218.76,-191.15"/>
<polygon fill="#63b8ff" stroke="#63b8ff" points="2219.59,-194.56 2228.92,-189.55 2218.5,-187.65 2219.59,-194.56"/>
</g>
<!-- Node36 -->
<g id="node34" class="node">
<title>Node36</title>
<g id="a_node34"><a xlink:href="GameObjectSelectionEvent_8h.html" target="_top" xlink:title=" ">
<polygon fill="white" stroke="#666666" points="1061,-129 902,-129 902,-110 1061,-110 1061,-129"/>
<text text-anchor="middle" x="981.5" y="-117" font-family="Helvetica,sans-Serif" font-size="10.00">GameObjectSelectionEvent.h</text>
</a>
</g>
</g>
<!-- Node1&#45;&gt;Node36 -->
<g id="edge41" class="edge">
<title>Node1&#45;&gt;Node36</title>
<path fill="none" stroke="#63b8ff" d="M1619.04,-236.69C1495.44,-231.08 1237.38,-217.09 1150.5,-195 1096.15,-181.18 1037.18,-151.47 1005.27,-134.03"/>
<polygon fill="#63b8ff" stroke="#63b8ff" points="1006.71,-130.83 996.27,-129.04 1003.32,-136.95 1006.71,-130.83"/>
</g>
<!-- Node37 -->
<g id="node35" class="node">
<title>Node37</title>
<g id="a_node35"><a xlink:href="SelectionCommand_8h.html" target="_top" xlink:title=" ">
<polygon fill="white" stroke="#666666" points="1281,-189.5 1160,-189.5 1160,-170.5 1281,-170.5 1281,-189.5"/>
<text text-anchor="middle" x="1220.5" y="-177.5" font-family="Helvetica,sans-Serif" font-size="10.00">SelectionCommand.h</text>
</a>
</g>
</g>
<!-- Node1&#45;&gt;Node37 -->
<g id="edge43" class="edge">
<title>Node1&#45;&gt;Node37</title>
<path fill="none" stroke="#63b8ff" d="M1619.24,-231.06C1531.87,-220.09 1380.03,-201.03 1291.07,-189.86"/>
<polygon fill="#63b8ff" stroke="#63b8ff" points="1291.43,-186.38 1281.07,-188.6 1290.56,-193.32 1291.43,-186.38"/>
</g>
<!-- Node39 -->
<g id="node37" class="node">
<title>Node39</title>
<g id="a_node37"><a xlink:href="Transform_8h.html" target="_top" xlink:title=" ">
<polygon fill="white" stroke="#666666" points="599.5,-189.5 525.5,-189.5 525.5,-170.5 599.5,-170.5 599.5,-189.5"/>
<text text-anchor="middle" x="562.5" y="-177.5" font-family="Helvetica,sans-Serif" font-size="10.00">Transform.h</text>
</a>
</g>
</g>
<!-- Node1&#45;&gt;Node39 -->
<g id="edge52" class="edge">
<title>Node1&#45;&gt;Node39</title>
<path fill="none" stroke="#63b8ff" d="M1619.14,-235.99C1411.8,-225.2 786.53,-192.66 609.6,-183.45"/>
<polygon fill="#63b8ff" stroke="#63b8ff" points="609.74,-179.95 599.57,-182.93 609.38,-186.94 609.74,-179.95"/>
</g>
<!-- Node75 -->
<g id="node48" class="node">
<title>Node75</title>
<g id="a_node48"><a xlink:href="ComponentFactory_8h.html" target="_top" xlink:title=" ">
<polygon fill="white" stroke="#666666" points="2182.5,-189.5 2066.5,-189.5 2066.5,-170.5 2182.5,-170.5 2182.5,-189.5"/>
<text text-anchor="middle" x="2124.5" y="-177.5" font-family="Helvetica,sans-Serif" font-size="10.00">ComponentFactory.h</text>
</a>
</g>
</g>
<!-- Node1&#45;&gt;Node75 -->
<g id="edge76" class="edge">
<title>Node1&#45;&gt;Node75</title>
<path fill="none" stroke="#63b8ff" d="M1750.19,-230.99C1831.81,-220.09 1972.73,-201.27 2056.42,-190.09"/>
<polygon fill="#63b8ff" stroke="#63b8ff" points="2056.88,-193.56 2066.33,-188.77 2055.96,-186.62 2056.88,-193.56"/>
</g>
<!-- Node3 -->
<g id="node3" class="node">
<title>Node3</title>
<g id="a_node3"><a xlink:title=" ">
<polygon fill="#e0e0e0" stroke="#999999" points="805.5,-74 761.5,-74 761.5,-55 805.5,-55 805.5,-74"/>
<text text-anchor="middle" x="783.5" y="-62" font-family="Helvetica,sans-Serif" font-size="10.00">string</text>
</a>
</g>
</g>
<!-- Node2&#45;&gt;Node3 -->
<g id="edge2" class="edge">
<title>Node2&#45;&gt;Node3</title>
<path fill="none" stroke="#63b8ff" d="M1635.23,-175.5C1551.8,-169.31 1381.68,-154.61 1239.5,-129 1205.23,-122.83 1197.75,-116.26 1163.5,-110 1036,-86.7 882.08,-73.06 816.1,-67.9"/>
<polygon fill="#63b8ff" stroke="#63b8ff" points="816.16,-64.39 805.92,-67.11 815.62,-71.37 816.16,-64.39"/>
</g>
<!-- Node4 -->
<g id="node4" class="node">
<title>Node4</title>
<g id="a_node4"><a xlink:href="ISystem_8h.html" target="_top" xlink:title=" ">
<polygon fill="white" stroke="#666666" points="2119,-74 2054,-74 2054,-55 2119,-55 2119,-74"/>
<text text-anchor="middle" x="2086.5" y="-62" font-family="Helvetica,sans-Serif" font-size="10.00">ISystem.h</text>
</a>
</g>
</g>
<!-- Node2&#45;&gt;Node4 -->
<g id="edge3" class="edge">
<title>Node2&#45;&gt;Node4</title>
<path fill="none" stroke="#63b8ff" d="M1737.51,-174.68C1794.56,-168.75 1889.11,-155.65 1966.5,-129 2002.74,-116.52 2041.35,-94.28 2064.7,-79.71"/>
<polygon fill="#63b8ff" stroke="#63b8ff" points="2066.87,-82.48 2073.44,-74.17 2063.12,-76.57 2066.87,-82.48"/>
</g>
<!-- Node5 -->
<g id="node5" class="node">
<title>Node5</title>
<g id="a_node5"><a xlink:title=" ">
<polygon fill="#e0e0e0" stroke="#999999" points="1284,-129 1249,-129 1249,-110 1284,-110 1284,-129"/>
<text text-anchor="middle" x="1266.5" y="-117" font-family="Helvetica,sans-Serif" font-size="10.00">any</text>
</a>
</g>
</g>
<!-- Node2&#45;&gt;Node5 -->
<g id="edge4" class="edge">
<title>Node2&#45;&gt;Node5</title>
<path fill="none" stroke="#63b8ff" d="M1635.31,-174.57C1560.75,-167.62 1418.13,-152.49 1298.5,-129 1297.02,-128.71 1295.51,-128.39 1293.98,-128.05"/>
<polygon fill="#63b8ff" stroke="#63b8ff" points="1294.56,-124.58 1284.01,-125.6 1292.88,-131.38 1294.56,-124.58"/>
</g>
<!-- Node6 -->
<g id="node6" class="node">
<title>Node6</title>
<g id="a_node6"><a xlink:title=" ">
<polygon fill="#e0e0e0" stroke="#999999" points="2391,-74 2298,-74 2298,-55 2391,-55 2391,-74"/>
<text text-anchor="middle" x="2344.5" y="-62" font-family="Helvetica,sans-Serif" font-size="10.00">unordered_map</text>
</a>
</g>
</g>
<!-- Node2&#45;&gt;Node6 -->
<g id="edge5" class="edge">
<title>Node2&#45;&gt;Node6</title>
<path fill="none" stroke="#63b8ff" d="M1737.63,-178.02C1859.3,-175.13 2162.93,-164.48 2257.5,-129 2285.23,-118.6 2311.95,-96.76 2328.3,-81.62"/>
<polygon fill="#63b8ff" stroke="#63b8ff" points="2331.03,-83.84 2335.85,-74.41 2326.2,-78.78 2331.03,-83.84"/>
</g>
<!-- Node7 -->
<g id="node7" class="node">
<title>Node7</title>
<g id="a_node7"><a xlink:title=" ">
<polygon fill="#e0e0e0" stroke="#999999" points="1905,-74 1840,-74 1840,-55 1905,-55 1905,-74"/>
<text text-anchor="middle" x="1872.5" y="-62" font-family="Helvetica,sans-Serif" font-size="10.00">typeindex</text>
</a>
</g>
</g>
<!-- Node2&#45;&gt;Node7 -->
<g id="edge6" class="edge">
<title>Node2&#45;&gt;Node7</title>
<path fill="none" stroke="#63b8ff" d="M1727.47,-170.48C1756.33,-163.02 1794.79,-150.01 1823.5,-129 1840.3,-116.71 1854.19,-97.11 1862.84,-82.94"/>
<polygon fill="#63b8ff" stroke="#63b8ff" points="1865.95,-84.56 1867.96,-74.15 1859.9,-81.03 1865.95,-84.56"/>
</g>
<!-- Node8 -->
<g id="node8" class="node">
<title>Node8</title>
<g id="a_node8"><a xlink:href="WindowContext_8h.html" target="_top" xlink:title=" ">
<polygon fill="white" stroke="#666666" points="1444,-129 1341,-129 1341,-110 1444,-110 1444,-129"/>
<text text-anchor="middle" x="1392.5" y="-117" font-family="Helvetica,sans-Serif" font-size="10.00">WindowContext.h</text>
</a>
</g>
</g>
<!-- Node2&#45;&gt;Node8 -->
<g id="edge7" class="edge">
<title>Node2&#45;&gt;Node8</title>
<path fill="none" stroke="#63b8ff" d="M1643.75,-170.49C1591.17,-160.03 1501.92,-142.27 1445.16,-130.98"/>
<polygon fill="#63b8ff" stroke="#63b8ff" points="1445.79,-127.54 1435.3,-129.02 1444.43,-134.4 1445.79,-127.54"/>
</g>
<!-- Node14 -->
<g id="node14" class="node">
<title>Node14</title>
<g id="a_node14"><a xlink:href="ShowType_8h.html" target="_top" xlink:title=" ">
<polygon fill="white" stroke="#666666" points="1723.5,-129 1649.5,-129 1649.5,-110 1723.5,-110 1723.5,-129"/>
<text text-anchor="middle" x="1686.5" y="-117" font-family="Helvetica,sans-Serif" font-size="10.00">ShowType.h</text>
</a>
</g>
</g>
<!-- Node2&#45;&gt;Node14 -->
<g id="edge14" class="edge">
<title>Node2&#45;&gt;Node14</title>
<path fill="none" stroke="#63b8ff" d="M1686.5,-170.37C1686.5,-162.25 1686.5,-149.81 1686.5,-139.39"/>
<polygon fill="#63b8ff" stroke="#63b8ff" points="1690,-139.17 1686.5,-129.17 1683,-139.17 1690,-139.17"/>
</g>
<!-- Node15 -->
<g id="node15" class="node">
<title>Node15</title>
<g id="a_node15"><a xlink:href="Entity_8h.html" target="_top" xlink:title=" ">
<polygon fill="white" stroke="#666666" points="1115,-74 1062,-74 1062,-55 1115,-55 1115,-74"/>
<text text-anchor="middle" x="1088.5" y="-62" font-family="Helvetica,sans-Serif" font-size="10.00">Entity.h</text>
</a>
</g>
</g>
<!-- Node2&#45;&gt;Node15 -->
<g id="edge15" class="edge">
<title>Node2&#45;&gt;Node15</title>
<path fill="none" stroke="#63b8ff" d="M1635.45,-176.82C1565.5,-172.71 1436.56,-161.11 1331.5,-129 1313.06,-123.36 1310.72,-116.32 1292.5,-110 1235.52,-90.22 1166.42,-77.35 1125.04,-70.77"/>
<polygon fill="#63b8ff" stroke="#63b8ff" points="1125.55,-67.31 1115.14,-69.23 1124.48,-74.23 1125.55,-67.31"/>
</g>
<!-- Node19 -->
<g id="node17" class="node">
<title>Node19</title>
<g id="a_node17"><a xlink:title=" ">
<polygon fill="#e0e0e0" stroke="#999999" points="1815,-129 1742,-129 1742,-110 1815,-110 1815,-129"/>
<text text-anchor="middle" x="1778.5" y="-117" font-family="Helvetica,sans-Serif" font-size="10.00">string_view</text>
</a>
</g>
</g>
<!-- Node2&#45;&gt;Node19 -->
<g id="edge17" class="edge">
<title>Node2&#45;&gt;Node19</title>
<path fill="none" stroke="#63b8ff" d="M1700.07,-170.37C1714.89,-160.95 1738.83,-145.73 1756.36,-134.58"/>
<polygon fill="#63b8ff" stroke="#63b8ff" points="1758.31,-137.49 1764.87,-129.17 1754.55,-131.58 1758.31,-137.49"/>
</g>
<!-- Node8&#45;&gt;Node3 -->
<g id="edge8" class="edge">
<title>Node8&#45;&gt;Node3</title>
<path fill="none" stroke="#63b8ff" d="M1340.84,-114C1218.77,-103.38 915.31,-76.97 815.73,-68.3"/>
<polygon fill="#63b8ff" stroke="#63b8ff" points="815.94,-64.81 805.67,-67.43 815.33,-71.78 815.94,-64.81"/>
</g>
<!-- Node9 -->
<g id="node9" class="node">
<title>Node9</title>
<g id="a_node9"><a xlink:title=" ">
<polygon fill="#e0e0e0" stroke="#999999" points="1630.5,-74 1574.5,-74 1574.5,-55 1630.5,-55 1630.5,-74"/>
<text text-anchor="middle" x="1602.5" y="-62" font-family="Helvetica,sans-Serif" font-size="10.00">d3d11.h</text>
</a>
</g>
</g>
<!-- Node8&#45;&gt;Node9 -->
<g id="edge9" class="edge">
<title>Node8&#45;&gt;Node9</title>
<path fill="none" stroke="#63b8ff" d="M1426.24,-109.98C1464,-100.46 1525.03,-85.05 1564.45,-75.1"/>
<polygon fill="#63b8ff" stroke="#63b8ff" points="1565.39,-78.48 1574.23,-72.63 1563.68,-71.69 1565.39,-78.48"/>
</g>
<!-- Node10 -->
<g id="node10" class="node">
<title>Node10</title>
<g id="a_node10"><a xlink:title=" ">
<polygon fill="#e0e0e0" stroke="#999999" points="1318.5,-74 1248.5,-74 1248.5,-55 1318.5,-55 1318.5,-74"/>
<text text-anchor="middle" x="1283.5" y="-62" font-family="Helvetica,sans-Serif" font-size="10.00">Windows.h</text>
</a>
</g>
</g>
<!-- Node8&#45;&gt;Node10 -->
<g id="edge10" class="edge">
<title>Node8&#45;&gt;Node10</title>
<path fill="none" stroke="#63b8ff" d="M1374.99,-109.98C1357.53,-101.5 1330.49,-88.35 1310.33,-78.54"/>
<polygon fill="#63b8ff" stroke="#63b8ff" points="1311.86,-75.4 1301.33,-74.17 1308.79,-81.69 1311.86,-75.4"/>
</g>
<!-- Node11 -->
<g id="node11" class="node">
<title>Node11</title>
<g id="a_node11"><a xlink:title=" ">
<polygon fill="#e0e0e0" stroke="#999999" points="1384,-74 1337,-74 1337,-55 1384,-55 1384,-74"/>
<text text-anchor="middle" x="1360.5" y="-62" font-family="Helvetica,sans-Serif" font-size="10.00">dxgi.h</text>
</a>
</g>
</g>
<!-- Node8&#45;&gt;Node11 -->
<g id="edge11" class="edge">
<title>Node8&#45;&gt;Node11</title>
<path fill="none" stroke="#63b8ff" d="M1387.22,-109.75C1382.79,-102.42 1376.34,-91.73 1370.88,-82.7"/>
<polygon fill="#63b8ff" stroke="#63b8ff" points="1373.85,-80.84 1365.69,-74.09 1367.86,-84.46 1373.85,-80.84"/>
</g>
<!-- Node12 -->
<g id="node12" class="node">
<title>Node12</title>
<g id="a_node12"><a xlink:title=" ">
<polygon fill="#e0e0e0" stroke="#999999" points="1467,-74 1402,-74 1402,-55 1467,-55 1467,-74"/>
<text text-anchor="middle" x="1434.5" y="-62" font-family="Helvetica,sans-Serif" font-size="10.00">Dxgi1_2.h</text>
</a>
</g>
</g>
<!-- Node8&#45;&gt;Node12 -->
<g id="edge12" class="edge">
<title>Node8&#45;&gt;Node12</title>
<path fill="none" stroke="#63b8ff" d="M1399.44,-109.75C1405.37,-102.26 1414.07,-91.28 1421.32,-82.13"/>
<polygon fill="#63b8ff" stroke="#63b8ff" points="1424.23,-84.1 1427.69,-74.09 1418.74,-79.75 1424.23,-84.1"/>
</g>
<!-- Node13 -->
<g id="node13" class="node">
<title>Node13</title>
<g id="a_node13"><a xlink:title=" ">
<polygon fill="#e0e0e0" stroke="#999999" points="1556,-74 1485,-74 1485,-55 1556,-55 1556,-74"/>
<text text-anchor="middle" x="1520.5" y="-62" font-family="Helvetica,sans-Serif" font-size="10.00">wrl/client.h</text>
</a>
</g>
</g>
<!-- Node8&#45;&gt;Node13 -->
<g id="edge13" class="edge">
<title>Node8&#45;&gt;Node13</title>
<path fill="none" stroke="#63b8ff" d="M1413.07,-109.98C1433.93,-101.34 1466.47,-87.87 1490.27,-78.02"/>
<polygon fill="#63b8ff" stroke="#63b8ff" points="1491.66,-81.23 1499.56,-74.17 1488.98,-74.76 1491.66,-81.23"/>
</g>
<!-- Node16 -->
<g id="node16" class="node">
<title>Node16</title>
<g id="a_node16"><a xlink:href="cmtgb_8h.html" target="_top" xlink:title=" ">
<polygon fill="#fff0f0" stroke="red" points="792.5,-19 736.5,-19 736.5,0 792.5,0 792.5,-19"/>
<text text-anchor="middle" x="764.5" y="-7" font-family="Helvetica,sans-Serif" font-size="10.00">cmtgb.h</text>
</a>
</g>
</g>
<!-- Node15&#45;&gt;Node16 -->
<g id="edge16" class="edge">
<title>Node15&#45;&gt;Node16</title>
<path fill="none" stroke="#63b8ff" d="M1061.99,-59.16C1004.75,-49.8 869.41,-27.66 802.83,-16.77"/>
<polygon fill="#63b8ff" stroke="#63b8ff" points="803.2,-13.28 792.76,-15.12 802.07,-20.19 803.2,-13.28"/>
</g>
<!-- Node20&#45;&gt;Node3 -->
<g id="edge20" class="edge">
<title>Node20&#45;&gt;Node3</title>
<path fill="none" stroke="#63b8ff" d="M77.13,-114.4C91.89,-112.88 108.98,-111.23 124.5,-110 397.89,-88.35 468.46,-108.67 740.5,-74 744,-73.55 747.65,-72.99 751.27,-72.37"/>
<polygon fill="#63b8ff" stroke="#63b8ff" points="752.09,-75.77 761.28,-70.49 750.8,-68.89 752.09,-75.77"/>
</g>
<!-- Node21 -->
<g id="node19" class="node">
<title>Node21</title>
<g id="a_node19"><a xlink:title=" ">
<polygon fill="#e0e0e0" stroke="#999999" points="157.5,-19 71.5,-19 71.5,0 157.5,0 157.5,-19"/>
<text text-anchor="middle" x="114.5" y="-7" font-family="Helvetica,sans-Serif" font-size="10.00">DirectXMath.h</text>
</a>
</g>
</g>
<!-- Node20&#45;&gt;Node21 -->
<g id="edge19" class="edge">
<title>Node20&#45;&gt;Node21</title>
<path fill="none" stroke="#63b8ff" d="M43.45,-109.92C49.4,-97.36 61.37,-73.47 74.5,-55 81.63,-44.97 90.73,-34.69 98.45,-26.54"/>
<polygon fill="#63b8ff" stroke="#63b8ff" points="101.13,-28.8 105.58,-19.19 96.11,-23.93 101.13,-28.8"/>
</g>
<!-- Node22 -->
<g id="node20" class="node">
<title>Node22</title>
<g id="a_node20"><a xlink:title=" ">
<polygon fill="#e0e0e0" stroke="#999999" points="47,-19 0,-19 0,0 47,0 47,-19"/>
<text text-anchor="middle" x="23.5" y="-7" font-family="Helvetica,sans-Serif" font-size="10.00">cmath</text>
</a>
</g>
</g>
<!-- Node20&#45;&gt;Node22 -->
<g id="edge21" class="edge">
<title>Node20&#45;&gt;Node22</title>
<path fill="none" stroke="#63b8ff" d="M38.19,-109.66C35.6,-92.17 29.77,-52.8 26.28,-29.27"/>
<polygon fill="#63b8ff" stroke="#63b8ff" points="29.71,-28.54 24.78,-19.16 22.79,-29.56 29.71,-28.54"/>
</g>
<!-- Node24 -->
<g id="node22" class="node">
<title>Node24</title>
<g id="a_node22"><a xlink:href="imgui_8h.html" target="_top" xlink:title=" ">
<polygon fill="white" stroke="#666666" points="2801,-129 2748,-129 2748,-110 2801,-110 2801,-129"/>
<text text-anchor="middle" x="2774.5" y="-117" font-family="Helvetica,sans-Serif" font-size="10.00">imgui.h</text>
</a>
</g>
</g>
<!-- Node23&#45;&gt;Node24 -->
<g id="edge23" class="edge">
<title>Node23&#45;&gt;Node24</title>
<path fill="none" stroke="#63b8ff" d="M2524.2,-166.68C2527,-166.11 2529.78,-165.54 2532.5,-165 2605.14,-150.5 2690.39,-135.23 2737.85,-126.88"/>
<polygon fill="#63b8ff" stroke="#63b8ff" points="2738.71,-130.29 2747.95,-125.11 2737.5,-123.39 2738.71,-130.29"/>
</g>
<!-- Node25 -->
<g id="node23" class="node">
<title>Node25</title>
<g id="a_node23"><a xlink:href="imconfig_8h.html" target="_top" xlink:title=" ">
<polygon fill="white" stroke="#666666" points="2961.5,-74 2893.5,-74 2893.5,-55 2961.5,-55 2961.5,-74"/>
<text text-anchor="middle" x="2927.5" y="-62" font-family="Helvetica,sans-Serif" font-size="10.00">imconfig.h</text>
</a>
</g>
</g>
<!-- Node24&#45;&gt;Node25 -->
<g id="edge24" class="edge">
<title>Node24&#45;&gt;Node25</title>
<path fill="none" stroke="#63b8ff" d="M2799.08,-109.98C2824.55,-101.16 2864.54,-87.31 2893.13,-77.41"/>
<polygon fill="#63b8ff" stroke="#63b8ff" points="2894.42,-80.66 2902.73,-74.08 2892.13,-74.05 2894.42,-80.66"/>
</g>
<!-- Node26 -->
<g id="node24" class="node">
<title>Node26</title>
<g id="a_node24"><a xlink:title=" ">
<polygon fill="#e0e0e0" stroke="#999999" points="3027,-74 2980,-74 2980,-55 3027,-55 3027,-74"/>
<text text-anchor="middle" x="3003.5" y="-62" font-family="Helvetica,sans-Serif" font-size="10.00">float.h</text>
</a>
</g>
</g>
<!-- Node24&#45;&gt;Node26 -->
<g id="edge25" class="edge">
<title>Node24&#45;&gt;Node26</title>
<path fill="none" stroke="#63b8ff" d="M2801.19,-112.7C2837.19,-104.81 2903.54,-90.09 2969.93,-74.08"/>
<polygon fill="#63b8ff" stroke="#63b8ff" points="2970.83,-77.46 2979.73,-71.71 2969.18,-70.66 2970.83,-77.46"/>
</g>
<!-- Node27 -->
<g id="node25" class="node">
<title>Node27</title>
<g id="a_node25"><a xlink:title=" ">
<polygon fill="#e0e0e0" stroke="#999999" points="2655.5,-74 2599.5,-74 2599.5,-55 2655.5,-55 2655.5,-74"/>
<text text-anchor="middle" x="2627.5" y="-62" font-family="Helvetica,sans-Serif" font-size="10.00">stdarg.h</text>
</a>
</g>
</g>
<!-- Node24&#45;&gt;Node27 -->
<g id="edge26" class="edge">
<title>Node24&#45;&gt;Node27</title>
<path fill="none" stroke="#63b8ff" d="M2750.88,-109.98C2726.6,-101.23 2688.55,-87.51 2661.13,-77.62"/>
<polygon fill="#63b8ff" stroke="#63b8ff" points="2662.14,-74.27 2651.55,-74.17 2659.77,-80.85 2662.14,-74.27"/>
</g>
<!-- Node28 -->
<g id="node26" class="node">
<title>Node28</title>
<g id="a_node26"><a xlink:title=" ">
<polygon fill="#e0e0e0" stroke="#999999" points="2729.5,-74 2673.5,-74 2673.5,-55 2729.5,-55 2729.5,-74"/>
<text text-anchor="middle" x="2701.5" y="-62" font-family="Helvetica,sans-Serif" font-size="10.00">stddef.h</text>
</a>
</g>
</g>
<!-- Node24&#45;&gt;Node28 -->
<g id="edge27" class="edge">
<title>Node24&#45;&gt;Node28</title>
<path fill="none" stroke="#63b8ff" d="M2762.77,-109.98C2751.77,-102 2735.08,-89.88 2721.9,-80.31"/>
<polygon fill="#63b8ff" stroke="#63b8ff" points="2723.59,-77.21 2713.44,-74.17 2719.48,-82.88 2723.59,-77.21"/>
</g>
<!-- Node29 -->
<g id="node27" class="node">
<title>Node29</title>
<g id="a_node27"><a xlink:title=" ">
<polygon fill="#e0e0e0" stroke="#999999" points="2801,-74 2748,-74 2748,-55 2801,-55 2801,-74"/>
<text text-anchor="middle" x="2774.5" y="-62" font-family="Helvetica,sans-Serif" font-size="10.00">string.h</text>
</a>
</g>
</g>
<!-- Node24&#45;&gt;Node29 -->
<g id="edge28" class="edge">
<title>Node24&#45;&gt;Node29</title>
<path fill="none" stroke="#63b8ff" d="M2774.5,-109.75C2774.5,-102.8 2774.5,-92.85 2774.5,-84.13"/>
<polygon fill="#63b8ff" stroke="#63b8ff" points="2778,-84.09 2774.5,-74.09 2771,-84.09 2778,-84.09"/>
</g>
<!-- Node30 -->
<g id="node28" class="node">
<title>Node30</title>
<g id="a_node28"><a xlink:title=" ">
<polygon fill="#e0e0e0" stroke="#999999" points="2875.5,-74 2819.5,-74 2819.5,-55 2875.5,-55 2875.5,-74"/>
<text text-anchor="middle" x="2847.5" y="-62" font-family="Helvetica,sans-Serif" font-size="10.00">assert.h</text>
</a>
</g>
</g>
<!-- Node24&#45;&gt;Node30 -->
<g id="edge29" class="edge">
<title>Node24&#45;&gt;Node30</title>
<path fill="none" stroke="#63b8ff" d="M2786.23,-109.98C2797.23,-102 2813.92,-89.88 2827.1,-80.31"/>
<polygon fill="#63b8ff" stroke="#63b8ff" points="2829.52,-82.88 2835.56,-74.17 2825.41,-77.21 2829.52,-82.88"/>
</g>
<!-- Node33&#45;&gt;Node3 -->
<g id="edge33" class="edge">
<title>Node33&#45;&gt;Node3</title>
<path fill="none" stroke="#63b8ff" d="M835.54,-109.98C826.37,-102.15 812.56,-90.34 801.47,-80.86"/>
<polygon fill="#63b8ff" stroke="#63b8ff" points="803.52,-78.01 793.64,-74.17 798.97,-83.33 803.52,-78.01"/>
</g>
<!-- Node33&#45;&gt;Node16 -->
<g id="edge34" class="edge">
<title>Node33&#45;&gt;Node16</title>
<path fill="none" stroke="#63b8ff" d="M842.45,-109.69C837.75,-96.84 827.84,-72.59 814.5,-55 806.14,-43.97 794.73,-33.57 784.93,-25.6"/>
<polygon fill="#63b8ff" stroke="#63b8ff" points="786.87,-22.68 776.84,-19.27 782.55,-28.19 786.87,-22.68"/>
</g>
<!-- Node34&#45;&gt;Node6 -->
<g id="edge38" class="edge">
<title>Node34&#45;&gt;Node6</title>
<path fill="none" stroke="#63b8ff" d="M2336.3,-170.45C2402.49,-160.24 2502.33,-142.79 2513.5,-129 2546.91,-87.77 2462.19,-73.3 2400.99,-68.23"/>
<polygon fill="#63b8ff" stroke="#63b8ff" points="2401.25,-64.74 2391.01,-67.47 2400.72,-71.72 2401.25,-64.74"/>
</g>
<!-- Node34&#45;&gt;Node7 -->
<g id="edge37" class="edge">
<title>Node34&#45;&gt;Node7</title>
<path fill="none" stroke="#63b8ff" d="M2248.94,-170.45C2217.01,-160.79 2163.85,-144.41 2118.5,-129 2095.2,-121.09 2090.09,-116.99 2066.5,-110 2014.99,-94.75 1954.49,-81.61 1914.93,-73.64"/>
<polygon fill="#63b8ff" stroke="#63b8ff" points="1915.58,-70.2 1905.09,-71.68 1914.21,-77.07 1915.58,-70.2"/>
</g>
<!-- Node34&#45;&gt;Node32 -->
<g id="edge36" class="edge">
<title>Node34&#45;&gt;Node32</title>
<path fill="none" stroke="#63b8ff" d="M2305.85,-170.49C2339.79,-160.31 2396.76,-143.22 2434.49,-131.9"/>
<polygon fill="#63b8ff" stroke="#63b8ff" points="2435.54,-135.24 2444.11,-129.02 2433.53,-128.54 2435.54,-135.24"/>
</g>
<!-- Node34&#45;&gt;Node33 -->
<g id="edge39" class="edge">
<title>Node34&#45;&gt;Node33</title>
<path fill="none" stroke="#63b8ff" d="M2232.12,-170.45C2219.06,-168.3 2204.75,-166.26 2191.5,-165 1619.89,-110.8 1468.74,-187.65 893.86,-128.95"/>
<polygon fill="#63b8ff" stroke="#63b8ff" points="893.96,-125.44 883.65,-127.9 893.24,-132.4 893.96,-125.44"/>
</g>
<!-- Node35 -->
<g id="node33" class="node">
<title>Node35</title>
<g id="a_node33"><a xlink:title=" ">
<polygon fill="#e0e0e0" stroke="#999999" points="1750.5,-19 1690.5,-19 1690.5,0 1750.5,0 1750.5,-19"/>
<text text-anchor="middle" x="1720.5" y="-7" font-family="Helvetica,sans-Serif" font-size="10.00">concepts</text>
</a>
</g>
</g>
<!-- Node34&#45;&gt;Node35 -->
<g id="edge40" class="edge">
<title>Node34&#45;&gt;Node35</title>
<path fill="none" stroke="#63b8ff" d="M2342.97,-170.46C2414.18,-160.51 2519.53,-143.56 2531.5,-129 2536.86,-122.48 2536.18,-117.03 2531.5,-110 2496.25,-57.12 2461.38,-69.5 2399.5,-55 2276.86,-26.27 1887.36,-14.53 1760.71,-11.4"/>
<polygon fill="#63b8ff" stroke="#63b8ff" points="1760.75,-7.9 1750.67,-11.16 1760.58,-14.9 1760.75,-7.9"/>
</g>
<!-- Node36&#45;&gt;Node15 -->
<g id="edge42" class="edge">
<title>Node36&#45;&gt;Node15</title>
<path fill="none" stroke="#63b8ff" d="M998.69,-109.98C1015.75,-101.54 1042.13,-88.47 1061.9,-78.68"/>
<polygon fill="#63b8ff" stroke="#63b8ff" points="1063.59,-81.75 1071,-74.17 1060.48,-75.47 1063.59,-81.75"/>
</g>
<!-- Node37&#45;&gt;Node5 -->
<g id="edge49" class="edge">
<title>Node37&#45;&gt;Node5</title>
<path fill="none" stroke="#63b8ff" d="M1227.29,-170.37C1234.15,-161.64 1244.93,-147.93 1253.45,-137.09"/>
<polygon fill="#63b8ff" stroke="#63b8ff" points="1256.25,-139.19 1259.68,-129.17 1250.75,-134.86 1256.25,-139.19"/>
</g>
<!-- Node37&#45;&gt;Node7 -->
<g id="edge51" class="edge">
<title>Node37&#45;&gt;Node7</title>
<path fill="none" stroke="#63b8ff" d="M1281.15,-177.05C1357.39,-173.24 1491.61,-162.02 1601.5,-129 1619.97,-123.45 1622.21,-116.09 1640.5,-110 1704.71,-88.62 1782.54,-76.31 1829.75,-70.27"/>
<polygon fill="#63b8ff" stroke="#63b8ff" points="1830.43,-73.71 1839.92,-69 1829.56,-66.76 1830.43,-73.71"/>
</g>
<!-- Node37&#45;&gt;Node15 -->
<g id="edge47" class="edge">
<title>Node37&#45;&gt;Node15</title>
<path fill="none" stroke="#63b8ff" d="M1180.92,-170.45C1156.58,-163.25 1126.51,-150.56 1107.5,-129 1096.68,-116.73 1092.02,-98.5 1090.01,-84.71"/>
<polygon fill="#63b8ff" stroke="#63b8ff" points="1093.45,-83.97 1088.87,-74.41 1086.49,-84.74 1093.45,-83.97"/>
</g>
<!-- Node37&#45;&gt;Node32 -->
<g id="edge45" class="edge">
<title>Node37&#45;&gt;Node32</title>
<path fill="none" stroke="#63b8ff" d="M1281.33,-176.91C1489.59,-169.69 2173.16,-145.32 2392.5,-129 2404.57,-128.1 2417.63,-126.84 2429.63,-125.56"/>
<polygon fill="#63b8ff" stroke="#63b8ff" points="2430.29,-129.01 2439.85,-124.44 2429.53,-122.05 2430.29,-129.01"/>
</g>
<!-- Node37&#45;&gt;Node33 -->
<g id="edge46" class="edge">
<title>Node37&#45;&gt;Node33</title>
<path fill="none" stroke="#63b8ff" d="M1161.17,-170.46C1097.53,-161.18 993.24,-145.66 893.64,-129.15"/>
<polygon fill="#63b8ff" stroke="#63b8ff" points="894.14,-125.69 883.7,-127.5 892.99,-132.59 894.14,-125.69"/>
</g>
<!-- Node37&#45;&gt;Node35 -->
<g id="edge48" class="edge">
<title>Node37&#45;&gt;Node35</title>
<path fill="none" stroke="#63b8ff" d="M1218.65,-170.18C1214.44,-147.31 1206.84,-85.76 1239.5,-55 1271.32,-25.02 1570.44,-14.36 1680.29,-11.43"/>
<polygon fill="#63b8ff" stroke="#63b8ff" points="1680.41,-14.93 1690.31,-11.17 1680.23,-7.93 1680.41,-14.93"/>
</g>
<!-- Node37&#45;&gt;Node36 -->
<g id="edge44" class="edge">
<title>Node37&#45;&gt;Node36</title>
<path fill="none" stroke="#63b8ff" d="M1185.75,-170.49C1143.53,-160.16 1072.25,-142.71 1026.04,-131.4"/>
<polygon fill="#63b8ff" stroke="#63b8ff" points="1026.84,-127.99 1016.29,-129.02 1025.18,-134.79 1026.84,-127.99"/>
</g>
<!-- Node38 -->
<g id="node36" class="node">
<title>Node38</title>
<g id="a_node36"><a xlink:title=" ">
<polygon fill="#e0e0e0" stroke="#999999" points="1154.5,-129 1116.5,-129 1116.5,-110 1154.5,-110 1154.5,-129"/>
<text text-anchor="middle" x="1135.5" y="-117" font-family="Helvetica,sans-Serif" font-size="10.00">map</text>
</a>
</g>
</g>
<!-- Node37&#45;&gt;Node38 -->
<g id="edge50" class="edge">
<title>Node37&#45;&gt;Node38</title>
<path fill="none" stroke="#63b8ff" d="M1207.96,-170.37C1194.4,-161.04 1172.56,-146.01 1156.4,-134.88"/>
<polygon fill="#63b8ff" stroke="#63b8ff" points="1158.32,-131.95 1148.09,-129.17 1154.35,-137.72 1158.32,-131.95"/>
</g>
<!-- Node39&#45;&gt;Node16 -->
<g id="edge73" class="edge">
<title>Node39&#45;&gt;Node16</title>
<path fill="none" stroke="#63b8ff" d="M565.36,-170.4C573.22,-148.05 597.26,-87.67 637.5,-55 663.15,-34.17 699.22,-22.78 726.37,-16.75"/>
<polygon fill="#63b8ff" stroke="#63b8ff" points="727.22,-20.15 736.3,-14.69 725.8,-13.29 727.22,-20.15"/>
</g>
<!-- Node39&#45;&gt;Node20 -->
<g id="edge72" class="edge">
<title>Node39&#45;&gt;Node20</title>
<path fill="none" stroke="#63b8ff" d="M525.47,-175.78C445.88,-168.71 252.65,-150.71 91.5,-129 90.2,-128.82 88.88,-128.64 87.55,-128.45"/>
<polygon fill="#63b8ff" stroke="#63b8ff" points="87.64,-124.93 77.24,-126.92 86.61,-131.85 87.64,-124.93"/>
</g>
<!-- Node40 -->
<g id="node38" class="node">
<title>Node40</title>
<g id="a_node38"><a xlink:href="ReflectionMacro_8h.html" target="_top" xlink:title=" ">
<polygon fill="white" stroke="#666666" points="335.5,-129 231.5,-129 231.5,-110 335.5,-110 335.5,-129"/>
<text text-anchor="middle" x="283.5" y="-117" font-family="Helvetica,sans-Serif" font-size="10.00">ReflectionMacro.h</text>
</a>
</g>
</g>
<!-- Node39&#45;&gt;Node40 -->
<g id="edge53" class="edge">
<title>Node39&#45;&gt;Node40</title>
<path fill="none" stroke="#63b8ff" d="M525.45,-171.23C476.33,-160.93 389.44,-142.71 334.25,-131.14"/>
<polygon fill="#63b8ff" stroke="#63b8ff" points="334.84,-127.69 324.33,-129.06 333.4,-134.54 334.84,-127.69"/>
</g>
<!-- Node41 -->
<g id="node39" class="node">
<title>Node41</title>
<g id="a_node39"><a xlink:href="Transform_8generated_8h.html" target="_top" xlink:title=" ">
<polygon fill="#fff0f0" stroke="red" points="789,-129 662,-129 662,-110 789,-110 789,-129"/>
<text text-anchor="middle" x="725.5" y="-117" font-family="Helvetica,sans-Serif" font-size="10.00">Transform.generated.h</text>
</a>
</g>
</g>
<!-- Node39&#45;&gt;Node41 -->
<g id="edge54" class="edge">
<title>Node39&#45;&gt;Node41</title>
<path fill="none" stroke="#63b8ff" d="M586.2,-170.49C614.09,-160.49 660.57,-143.8 692.1,-132.49"/>
<polygon fill="#63b8ff" stroke="#63b8ff" points="693.54,-135.69 701.77,-129.02 691.18,-129.1 693.54,-135.69"/>
</g>
<!-- Node64 -->
<g id="node40" class="node">
<title>Node64</title>
<g id="a_node40"><a xlink:href="ISerializableObject_8h.html" target="_top" xlink:title=" ">
<polygon fill="white" stroke="#666666" points="471,-129 354,-129 354,-110 471,-110 471,-129"/>
<text text-anchor="middle" x="412.5" y="-117" font-family="Helvetica,sans-Serif" font-size="10.00">ISerializableObject.h</text>
</a>
</g>
</g>
<!-- Node39&#45;&gt;Node64 -->
<g id="edge56" class="edge">
<title>Node39&#45;&gt;Node64</title>
<path fill="none" stroke="#63b8ff" d="M540.69,-170.49C515.25,-160.57 472.99,-144.09 443.99,-132.78"/>
<polygon fill="#63b8ff" stroke="#63b8ff" points="444.93,-129.39 434.34,-129.02 442.38,-135.91 444.93,-129.39"/>
</g>
<!-- Node65 -->
<g id="node41" class="node">
<title>Node65</title>
<g id="a_node41"><a xlink:href="IComponent_8h.html" target="_top" xlink:title=" ">
<polygon fill="#fff0f0" stroke="red" points="732,-74 647,-74 647,-55 732,-55 732,-74"/>
<text text-anchor="middle" x="689.5" y="-62" font-family="Helvetica,sans-Serif" font-size="10.00">IComponent.h</text>
</a>
</g>
</g>
<!-- Node39&#45;&gt;Node65 -->
<g id="edge57" class="edge">
<title>Node39&#45;&gt;Node65</title>
<path fill="none" stroke="#63b8ff" d="M572.05,-170.47C593.38,-151.41 645.15,-105.13 672.28,-80.89"/>
<polygon fill="#63b8ff" stroke="#63b8ff" points="674.72,-83.4 679.84,-74.13 670.06,-78.18 674.72,-83.4"/>
</g>
<!-- Node62 -->
<g id="node42" class="node">
<title>Node62</title>
<g id="a_node42"><a xlink:href="IComponentMemento_8h.html" target="_top" xlink:title=" ">
<polygon fill="white" stroke="#666666" points="1593,-129 1462,-129 1462,-110 1593,-110 1593,-129"/>
<text text-anchor="middle" x="1527.5" y="-117" font-family="Helvetica,sans-Serif" font-size="10.00">IComponentMemento.h</text>
</a>
</g>
</g>
<!-- Node39&#45;&gt;Node62 -->
<g id="edge59" class="edge">
<title>Node39&#45;&gt;Node62</title>
<path fill="none" stroke="#63b8ff" d="M599.86,-177.66C721.04,-173.16 1114.32,-157.28 1451.22,-129.06"/>
<polygon fill="#63b8ff" stroke="#63b8ff" points="1452,-132.5 1461.67,-128.17 1451.41,-125.53 1452,-132.5"/>
</g>
<!-- Node59 -->
<g id="node44" class="node">
<title>Node59</title>
<g id="a_node44"><a xlink:href="Vector3_8h.html" target="_top" xlink:title=" ">
<polygon fill="white" stroke="#666666" points="145.5,-74 83.5,-74 83.5,-55 145.5,-55 145.5,-74"/>
<text text-anchor="middle" x="114.5" y="-62" font-family="Helvetica,sans-Serif" font-size="10.00">Vector3.h</text>
</a>
</g>
</g>
<!-- Node39&#45;&gt;Node59 -->
<g id="edge64" class="edge">
<title>Node39&#45;&gt;Node59</title>
<path fill="none" stroke="#63b8ff" d="M525.47,-177.31C425.08,-172.37 153.27,-156.57 124.5,-129 112.8,-117.79 111.16,-98.87 111.92,-84.59"/>
<polygon fill="#63b8ff" stroke="#63b8ff" points="115.43,-84.66 112.91,-74.37 108.47,-83.99 115.43,-84.66"/>
</g>
<!-- Node87 -->
<g id="node45" class="node">
<title>Node87</title>
<g id="a_node45"><a xlink:href="Vector3Ref_8h.html" target="_top" xlink:title=" ">
<polygon fill="white" stroke="#666666" points="567.5,-129 489.5,-129 489.5,-110 567.5,-110 567.5,-129"/>
<text text-anchor="middle" x="528.5" y="-117" font-family="Helvetica,sans-Serif" font-size="10.00">Vector3Ref.h</text>
</a>
</g>
</g>
<!-- Node39&#45;&gt;Node87 -->
<g id="edge67" class="edge">
<title>Node39&#45;&gt;Node87</title>
<path fill="none" stroke="#63b8ff" d="M557.48,-170.37C552.56,-161.9 544.91,-148.74 538.71,-138.07"/>
<polygon fill="#63b8ff" stroke="#63b8ff" points="541.59,-136.05 533.54,-129.17 535.54,-139.57 541.59,-136.05"/>
</g>
<!-- Node60 -->
<g id="node46" class="node">
<title>Node60</title>
<g id="a_node46"><a xlink:href="Quaternion_8h.html" target="_top" xlink:title=" ">
<polygon fill="white" stroke="#666666" points="213.5,-129 133.5,-129 133.5,-110 213.5,-110 213.5,-129"/>
<text text-anchor="middle" x="173.5" y="-117" font-family="Helvetica,sans-Serif" font-size="10.00">Quaternion.h</text>
</a>
</g>
</g>
<!-- Node39&#45;&gt;Node60 -->
<g id="edge68" class="edge">
<title>Node39&#45;&gt;Node60</title>
<path fill="none" stroke="#63b8ff" d="M525.47,-173.87C464.73,-165.39 339.85,-147.67 223.73,-129.16"/>
<polygon fill="#63b8ff" stroke="#63b8ff" points="224.02,-125.67 213.6,-127.54 222.92,-132.58 224.02,-125.67"/>
</g>
<!-- Node88 -->
<g id="node47" class="node">
<title>Node88</title>
<g id="a_node47"><a xlink:href="TransformCP_8h.html" target="_top" xlink:title=" ">
<polygon fill="#fff0f0" stroke="red" points="1957.5,-129 1871.5,-129 1871.5,-110 1957.5,-110 1957.5,-129"/>
<text text-anchor="middle" x="1914.5" y="-117" font-family="Helvetica,sans-Serif" font-size="10.00">TransformCP.h</text>
</a>
</g>
</g>
<!-- Node39&#45;&gt;Node88 -->
<g id="edge74" class="edge">
<title>Node39&#45;&gt;Node88</title>
<path fill="none" stroke="#63b8ff" d="M599.67,-178.25C751.63,-175.05 1340.37,-161.12 1823.5,-129 1835.75,-128.19 1848.9,-127.09 1861.29,-125.95"/>
<polygon fill="#63b8ff" stroke="#63b8ff" points="1861.86,-129.41 1871.49,-124.99 1861.2,-122.44 1861.86,-129.41"/>
</g>
<!-- Node41&#45;&gt;Node3 -->
<g id="edge55" class="edge">
<title>Node41&#45;&gt;Node3</title>
<path fill="none" stroke="#63b8ff" d="M734.82,-109.98C743.31,-102.23 756.06,-90.58 766.38,-81.14"/>
<polygon fill="#63b8ff" stroke="#63b8ff" points="768.99,-83.5 774.01,-74.17 764.27,-78.33 768.99,-83.5"/>
</g>
<!-- Node65&#45;&gt;Node16 -->
<g id="edge58" class="edge">
<title>Node65&#45;&gt;Node16</title>
<path fill="none" stroke="#63b8ff" d="M701.55,-54.98C712.96,-46.92 730.33,-34.65 743.93,-25.03"/>
<polygon fill="#63b8ff" stroke="#63b8ff" points="746.08,-27.8 752.23,-19.17 742.04,-22.08 746.08,-27.8"/>
</g>
<!-- Node62&#45;&gt;Node7 -->
<g id="edge61" class="edge">
<title>Node62&#45;&gt;Node7</title>
<path fill="none" stroke="#63b8ff" d="M1582.93,-109.98C1651.67,-99.42 1767.39,-81.65 1829.69,-72.08"/>
<polygon fill="#63b8ff" stroke="#63b8ff" points="1830.23,-75.53 1839.58,-70.56 1829.17,-68.62 1830.23,-75.53"/>
</g>
<!-- Node62&#45;&gt;Node15 -->
<g id="edge60" class="edge">
<title>Node62&#45;&gt;Node15</title>
<path fill="none" stroke="#63b8ff" d="M1461.78,-110.57C1368.31,-99.28 1200.07,-78.97 1125.64,-69.98"/>
<polygon fill="#63b8ff" stroke="#63b8ff" points="1125.71,-66.47 1115.36,-68.74 1124.87,-73.42 1125.71,-66.47"/>
</g>
<!-- Node63 -->
<g id="node43" class="node">
<title>Node63</title>
<g id="a_node43"><a xlink:href="ComponentConcept_8h.html" target="_top" xlink:title=" ">
<polygon fill="#fff0f0" stroke="red" points="1781.5,-74 1659.5,-74 1659.5,-55 1781.5,-55 1781.5,-74"/>
<text text-anchor="middle" x="1720.5" y="-62" font-family="Helvetica,sans-Serif" font-size="10.00">ComponentConcept.h</text>
</a>
</g>
</g>
<!-- Node62&#45;&gt;Node63 -->
<g id="edge62" class="edge">
<title>Node62&#45;&gt;Node63</title>
<path fill="none" stroke="#63b8ff" d="M1558.51,-109.98C1591.33,-100.97 1643.3,-86.7 1679.49,-76.76"/>
<polygon fill="#63b8ff" stroke="#63b8ff" points="1680.53,-80.11 1689.25,-74.08 1678.68,-73.36 1680.53,-80.11"/>
</g>
<!-- Node63&#45;&gt;Node35 -->
<g id="edge63" class="edge">
<title>Node63&#45;&gt;Node35</title>
<path fill="none" stroke="#63b8ff" d="M1720.5,-54.75C1720.5,-47.8 1720.5,-37.85 1720.5,-29.13"/>
<polygon fill="#63b8ff" stroke="#63b8ff" points="1724,-29.09 1720.5,-19.09 1717,-29.09 1724,-29.09"/>
</g>
<!-- Node59&#45;&gt;Node21 -->
<g id="edge65" class="edge">
<title>Node59&#45;&gt;Node21</title>
<path fill="none" stroke="#63b8ff" d="M114.5,-54.75C114.5,-47.8 114.5,-37.85 114.5,-29.13"/>
<polygon fill="#63b8ff" stroke="#63b8ff" points="118,-29.09 114.5,-19.09 111,-29.09 118,-29.09"/>
</g>
<!-- Node59&#45;&gt;Node22 -->
<g id="edge66" class="edge">
<title>Node59&#45;&gt;Node22</title>
<path fill="none" stroke="#63b8ff" d="M99.88,-54.98C85.64,-46.69 63.75,-33.94 47.05,-24.22"/>
<polygon fill="#63b8ff" stroke="#63b8ff" points="48.79,-21.18 38.39,-19.17 45.27,-27.23 48.79,-21.18"/>
</g>
<!-- Node60&#45;&gt;Node3 -->
<g id="edge70" class="edge">
<title>Node60&#45;&gt;Node3</title>
<path fill="none" stroke="#63b8ff" d="M213.56,-111.21C216.58,-110.76 219.59,-110.35 222.5,-110 451.6,-82.24 511.74,-104.44 740.5,-74 744,-73.53 747.64,-72.96 751.27,-72.33"/>
<polygon fill="#63b8ff" stroke="#63b8ff" points="752.09,-75.73 761.27,-70.45 750.8,-68.85 752.09,-75.73"/>
</g>
<!-- Node60&#45;&gt;Node21 -->
<g id="edge69" class="edge">
<title>Node60&#45;&gt;Node21</title>
<path fill="none" stroke="#63b8ff" d="M172.15,-109.81C169.91,-97.12 164.64,-73.06 154.5,-55 148.55,-44.4 139.68,-34.2 131.81,-26.24"/>
<polygon fill="#63b8ff" stroke="#63b8ff" points="134.04,-23.52 124.41,-19.1 129.18,-28.56 134.04,-23.52"/>
</g>
<!-- Node60&#45;&gt;Node59 -->
<g id="edge71" class="edge">
<title>Node60&#45;&gt;Node59</title>
<path fill="none" stroke="#63b8ff" d="M164.02,-109.98C155.3,-102.15 142.16,-90.34 131.6,-80.86"/>
<polygon fill="#63b8ff" stroke="#63b8ff" points="133.93,-78.25 124.15,-74.17 129.25,-83.46 133.93,-78.25"/>
</g>
<!-- Node88&#45;&gt;Node4 -->
<g id="edge75" class="edge">
<title>Node88&#45;&gt;Node4</title>
<path fill="none" stroke="#63b8ff" d="M1942.13,-109.98C1971.01,-101.09 2016.51,-87.07 2048.7,-77.15"/>
<polygon fill="#63b8ff" stroke="#63b8ff" points="2050.12,-80.37 2058.65,-74.08 2048.06,-73.68 2050.12,-80.37"/>
</g>
<!-- Node75&#45;&gt;Node4 -->
<g id="edge77" class="edge">
<title>Node75&#45;&gt;Node4</title>
<path fill="none" stroke="#63b8ff" d="M2160.2,-170.46C2195.58,-161.18 2246.09,-145.48 2257.5,-129 2262.31,-122.06 2262.66,-116.68 2257.5,-110 2241.92,-89.85 2174.6,-77.12 2129.22,-70.66"/>
<polygon fill="#63b8ff" stroke="#63b8ff" points="2129.43,-67.15 2119.05,-69.26 2128.48,-74.09 2129.43,-67.15"/>
</g>
<!-- Node75&#45;&gt;Node6 -->
<g id="edge79" class="edge">
<title>Node75&#45;&gt;Node6</title>
<path fill="none" stroke="#63b8ff" d="M2164.5,-170.45C2173.38,-168.6 2182.75,-166.7 2191.5,-165 2236.05,-156.36 2363.38,-163.8 2392.5,-129 2406.14,-112.7 2386.06,-93.06 2367.85,-79.98"/>
<polygon fill="#63b8ff" stroke="#63b8ff" points="2369.47,-76.84 2359.22,-74.13 2365.54,-82.64 2369.47,-76.84"/>
</g>
<!-- Node75&#45;&gt;Node7 -->
<g id="edge78" class="edge">
<title>Node75&#45;&gt;Node7</title>
<path fill="none" stroke="#63b8ff" d="M2116.2,-170.43C2101.61,-155.88 2069.86,-126.32 2037.5,-110 1998.49,-90.33 1949.76,-78.56 1915.4,-72.12"/>
<polygon fill="#63b8ff" stroke="#63b8ff" points="1915.69,-68.61 1905.22,-70.29 1914.45,-75.5 1915.69,-68.61"/>
</g>
<!-- Node75&#45;&gt;Node32 -->
<g id="edge86" class="edge">
<title>Node75&#45;&gt;Node32</title>
<path fill="none" stroke="#63b8ff" d="M2163.76,-170.43C2172.85,-168.55 2182.5,-166.63 2191.5,-165 2295.04,-146.23 2321.72,-146.36 2425.5,-129 2426.96,-128.76 2428.44,-128.51 2429.93,-128.25"/>
<polygon fill="#63b8ff" stroke="#63b8ff" points="2430.65,-131.68 2439.9,-126.51 2429.45,-124.78 2430.65,-131.68"/>
</g>
<!-- Node75&#45;&gt;Node62 -->
<g id="edge81" class="edge">
<title>Node75&#45;&gt;Node62</title>
<path fill="none" stroke="#63b8ff" d="M2066.44,-173.31C1957.97,-162.68 1724.59,-139.81 1603.65,-127.96"/>
<polygon fill="#63b8ff" stroke="#63b8ff" points="1603.66,-124.45 1593.37,-126.95 1602.98,-131.41 1603.66,-124.45"/>
</g>
<!-- Node75&#45;&gt;Node63 -->
<g id="edge80" class="edge">
<title>Node75&#45;&gt;Node63</title>
<path fill="none" stroke="#63b8ff" d="M2108.37,-170.45C2080.31,-155.91 2020.34,-126.38 1966.5,-110 1908.81,-92.45 1841.29,-80.84 1791.59,-73.9"/>
<polygon fill="#63b8ff" stroke="#63b8ff" points="1791.97,-70.41 1781.59,-72.53 1791.02,-77.35 1791.97,-70.41"/>
</g>
<!-- Node76 -->
<g id="node49" class="node">
<title>Node76</title>
<g id="a_node49"><a xlink:href="ComponentRegistry_8h.html" target="_top" xlink:title=" ">
<polygon fill="#fff0f0" stroke="red" points="2249,-129 2128,-129 2128,-110 2249,-110 2249,-129"/>
<text text-anchor="middle" x="2188.5" y="-117" font-family="Helvetica,sans-Serif" font-size="10.00">ComponentRegistry.h</text>
</a>
</g>
</g>
<!-- Node75&#45;&gt;Node76 -->
<g id="edge82" class="edge">
<title>Node75&#45;&gt;Node76</title>
<path fill="none" stroke="#63b8ff" d="M2133.94,-170.37C2143.77,-161.38 2159.39,-147.11 2171.39,-136.14"/>
<polygon fill="#63b8ff" stroke="#63b8ff" points="2174,-138.5 2179.02,-129.17 2169.28,-133.33 2174,-138.5"/>
</g>
<!-- Node79 -->
<g id="node50" class="node">
<title>Node79</title>
<g id="a_node50"><a xlink:title=" ">
<polygon fill="#e0e0e0" stroke="#999999" points="2383.5,-129 2343.5,-129 2343.5,-110 2383.5,-110 2383.5,-129"/>
<text text-anchor="middle" x="2363.5" y="-117" font-family="Helvetica,sans-Serif" font-size="10.00">span</text>
</a>
</g>
</g>
<!-- Node75&#45;&gt;Node79 -->
<g id="edge87" class="edge">
<title>Node75&#45;&gt;Node79</title>
<path fill="none" stroke="#63b8ff" d="M2159.7,-170.48C2200.55,-160.58 2269.93,-143.71 2329.5,-129 2330.76,-128.69 2332.05,-128.37 2333.35,-128.05"/>
<polygon fill="#63b8ff" stroke="#63b8ff" points="2334.51,-131.37 2343.37,-125.55 2332.82,-124.57 2334.51,-131.37"/>
</g>
<!-- Node76&#45;&gt;Node4 -->
<g id="edge83" class="edge">
<title>Node76&#45;&gt;Node4</title>
<path fill="none" stroke="#63b8ff" d="M2172.11,-109.98C2155.93,-101.57 2130.93,-88.59 2112.12,-78.81"/>
<polygon fill="#63b8ff" stroke="#63b8ff" points="2113.67,-75.68 2103.19,-74.17 2110.45,-81.89 2113.67,-75.68"/>
</g>
<!-- Node76&#45;&gt;Node6 -->
<g id="edge84" class="edge">
<title>Node76&#45;&gt;Node6</title>
<path fill="none" stroke="#63b8ff" d="M2213.56,-109.98C2239.53,-101.16 2280.31,-87.31 2309.46,-77.41"/>
<polygon fill="#63b8ff" stroke="#63b8ff" points="2310.9,-80.61 2319.24,-74.08 2308.65,-73.99 2310.9,-80.61"/>
</g>
<!-- Node76&#45;&gt;Node7 -->
<g id="edge85" class="edge">
<title>Node76&#45;&gt;Node7</title>
<path fill="none" stroke="#63b8ff" d="M2137.73,-109.98C2076.01,-99.63 1972.96,-82.35 1915.16,-72.65"/>
<polygon fill="#63b8ff" stroke="#63b8ff" points="1915.7,-69.2 1905.25,-70.99 1914.54,-76.1 1915.7,-69.2"/>
</g>
</g>
</svg>
