<?xml version="1.0" encoding="UTF-8" standalone="no"?>
<!DOCTYPE svg PUBLIC "-//W3C//DTD SVG 1.1//EN"
 "http://www.w3.org/Graphics/SVG/1.1/DTD/svg11.dtd">
<!-- Generated by graphviz version 2.43.0 (0)
 -->
<!-- Title: FormatTextureIDForDebugDisplay Pages: 1 -->
<svg width="1366pt" height="322pt"
 viewBox="0.00 0.00 1366.00 322.14" xmlns="http://www.w3.org/2000/svg" xmlns:xlink="http://www.w3.org/1999/xlink">
<g id="graph0" class="graph" transform="scale(1 1) rotate(0) translate(4 318.14)">
<title>FormatTextureIDForDebugDisplay</title>
<!-- Node1 -->
<g id="node1" class="node">
<title>Node1</title>
<g id="a_node1"><a xlink:title=" ">
<polygon fill="#999999" stroke="#666666" points="1358,-134 1177,-134 1177,-115 1358,-115 1358,-134"/>
<text text-anchor="middle" x="1267.5" y="-122" font-family="Helvetica,sans-Serif" font-size="10.00">FormatTextureIDForDebugDisplay</text>
</a>
</g>
</g>
<!-- Node2 -->
<g id="node2" class="node">
<title>Node2</title>
<g id="a_node2"><a xlink:href="namespaceImGui.html#af7b5e35566da44ac1ea8a7e1b9d9d574" target="_top" xlink:title=" ">
<polygon fill="white" stroke="#666666" points="1126.5,-236 974.5,-236 974.5,-217 1126.5,-217 1126.5,-236"/>
<text text-anchor="middle" x="1050.5" y="-224" font-family="Helvetica,sans-Serif" font-size="10.00">ImGui::DebugNodeDrawList</text>
</a>
</g>
</g>
<!-- Node1&#45;&gt;Node2 -->
<g id="edge1" class="edge">
<title>Node1&#45;&gt;Node2</title>
<path fill="none" stroke="#63b8ff" d="M1237.18,-138.41C1192.9,-159.42 1110.09,-198.71 1071.83,-216.86"/>
<polygon fill="#63b8ff" stroke="#63b8ff" points="1238.74,-141.54 1246.27,-134.1 1235.74,-135.22 1238.74,-141.54"/>
</g>
<!-- Node10 -->
<g id="node10" class="node">
<title>Node10</title>
<g id="a_node10"><a xlink:href="namespaceImGui.html#a2677c7e1858adeaf33c0e7dfcfd919af" target="_top" xlink:title=" ">
<polygon fill="white" stroke="#666666" points="1123,-134 978,-134 978,-115 1123,-115 1123,-134"/>
<text text-anchor="middle" x="1050.5" y="-122" font-family="Helvetica,sans-Serif" font-size="10.00">ImGui::DebugNodeTexture</text>
</a>
</g>
</g>
<!-- Node1&#45;&gt;Node10 -->
<g id="edge19" class="edge">
<title>Node1&#45;&gt;Node10</title>
<path fill="none" stroke="#63b8ff" d="M1166.77,-124.5C1152.12,-124.5 1137.26,-124.5 1123.31,-124.5"/>
<polygon fill="#63b8ff" stroke="#63b8ff" points="1166.88,-128 1176.88,-124.5 1166.88,-121 1166.88,-128"/>
</g>
<!-- Node15 -->
<g id="node15" class="node">
<title>Node15</title>
<g id="a_node15"><a xlink:href="imgui_8cpp.html#ace9162d76ef1d768403de28c2cc10e87" target="_top" xlink:title=" ">
<polygon fill="white" stroke="#666666" points="1141,-97 960,-97 960,-78 1141,-78 1141,-97"/>
<text text-anchor="middle" x="1050.5" y="-85" font-family="Helvetica,sans-Serif" font-size="10.00">FormatTextureIDForDebugDisplay</text>
</a>
</g>
</g>
<!-- Node1&#45;&gt;Node15 -->
<g id="edge27" class="edge">
<title>Node1&#45;&gt;Node15</title>
<path fill="none" stroke="#63b8ff" d="M1201.16,-113.25C1171.1,-108.08 1135.81,-102.01 1107.05,-97.06"/>
<polygon fill="#63b8ff" stroke="#63b8ff" points="1200.68,-116.72 1211.13,-114.97 1201.87,-109.83 1200.68,-116.72"/>
</g>
<!-- Node3 -->
<g id="node3" class="node">
<title>Node3</title>
<g id="a_node3"><a xlink:href="namespaceImGui.html#aa5e5f50f28c04a26264c0943c7281171" target="_top" xlink:title=" ">
<polygon fill="white" stroke="#666666" points="924,-302 772,-302 772,-283 924,-283 924,-302"/>
<text text-anchor="middle" x="848" y="-290" font-family="Helvetica,sans-Serif" font-size="10.00">ImGui::DebugNodeViewport</text>
</a>
</g>
</g>
<!-- Node2&#45;&gt;Node3 -->
<g id="edge2" class="edge">
<title>Node2&#45;&gt;Node3</title>
<path fill="none" stroke="#63b8ff" d="M1011.36,-239.41C986.51,-247.79 953.36,-258.89 924,-268.5 909.32,-273.31 892.98,-278.54 879.32,-282.9"/>
<polygon fill="#63b8ff" stroke="#63b8ff" points="1012.77,-242.63 1021.12,-236.12 1010.53,-236 1012.77,-242.63"/>
</g>
<!-- Node4 -->
<g id="node4" class="node">
<title>Node4</title>
<g id="a_node4"><a xlink:href="namespaceImGui.html#afe7a28c6eb52fff3cc27d5a698fea4ff" target="_top" xlink:title=" ">
<polygon fill="white" stroke="#666666" points="335,-170 182,-170 182,-151 335,-151 335,-170"/>
<text text-anchor="middle" x="258.5" y="-158" font-family="Helvetica,sans-Serif" font-size="10.00">ImGui::ShowMetricsWindow</text>
</a>
</g>
</g>
<!-- Node2&#45;&gt;Node4 -->
<g id="edge18" class="edge">
<title>Node2&#45;&gt;Node4</title>
<path fill="none" stroke="#63b8ff" d="M995.63,-238.06C878.74,-260.84 594.41,-303.65 371,-235.5 328.38,-222.5 287.29,-187.15 269.17,-170.04"/>
<polygon fill="#63b8ff" stroke="#63b8ff" points="996.62,-241.44 1005.75,-236.06 995.26,-234.57 996.62,-241.44"/>
</g>
<!-- Node6 -->
<g id="node6" class="node">
<title>Node6</title>
<g id="a_node6"><a xlink:href="namespaceImGui.html#afcb602554925c5409977f0fb39f77e5d" target="_top" xlink:title=" ">
<polygon fill="white" stroke="#666666" points="922,-189 774,-189 774,-170 922,-170 922,-189"/>
<text text-anchor="middle" x="848" y="-177" font-family="Helvetica,sans-Serif" font-size="10.00">ImGui::DebugNodeWindow</text>
</a>
</g>
</g>
<!-- Node2&#45;&gt;Node6 -->
<g id="edge5" class="edge">
<title>Node2&#45;&gt;Node6</title>
<path fill="none" stroke="#63b8ff" d="M998.8,-214.62C965.08,-206.71 921.35,-196.46 889.86,-189.08"/>
<polygon fill="#63b8ff" stroke="#63b8ff" points="998.39,-218.11 1008.93,-216.99 999.99,-211.3 998.39,-218.11"/>
</g>
<!-- Node3&#45;&gt;Node4 -->
<g id="edge3" class="edge">
<title>Node3&#45;&gt;Node4</title>
<path fill="none" stroke="#63b8ff" d="M780.16,-303.37C684.91,-315.78 506.64,-327.44 371,-268.5 321.32,-246.91 280.92,-192.65 265.85,-170.32"/>
<polygon fill="#63b8ff" stroke="#63b8ff" points="780.8,-306.81 790.24,-302.01 779.86,-299.88 780.8,-306.81"/>
</g>
<!-- Node5 -->
<g id="node5" class="node">
<title>Node5</title>
<g id="a_node5"><a xlink:href="namespaceImGui.html#af95643a0ce4893b9e57c12991922fb18" target="_top" xlink:title=" ">
<polygon fill="white" stroke="#666666" points="146,-56 0,-56 0,-37 146,-37 146,-56"/>
<text text-anchor="middle" x="73" y="-44" font-family="Helvetica,sans-Serif" font-size="10.00">ImGui::ShowDemoWindow</text>
</a>
</g>
</g>
<!-- Node4&#45;&gt;Node5 -->
<g id="edge4" class="edge">
<title>Node4&#45;&gt;Node5</title>
<path fill="none" stroke="#63b8ff" d="M233.22,-145.42C194.87,-121.59 121.33,-75.91 89.41,-56.08"/>
<polygon fill="#63b8ff" stroke="#63b8ff" points="231.83,-148.67 242.17,-150.98 235.52,-142.73 231.83,-148.67"/>
</g>
<!-- Node6&#45;&gt;Node6 -->
<g id="edge10" class="edge">
<title>Node6&#45;&gt;Node6</title>
<path fill="none" stroke="#63b8ff" d="M884.75,-196.69C884.74,-202.42 872.49,-207 848,-207 813.16,-207 803.09,-197.73 817.79,-189.08"/>
<polygon fill="#63b8ff" stroke="#63b8ff" points="887.38,-194.38 878.21,-189.08 882.07,-198.95 887.38,-194.38"/>
</g>
<!-- Node7 -->
<g id="node7" class="node">
<title>Node7</title>
<g id="a_node7"><a xlink:href="namespaceImGui.html#a8600f7b1f9b18926fb00837e56d2b3cd" target="_top" xlink:title=" ">
<polygon fill="white" stroke="#666666" points="530,-208 371,-208 371,-189 530,-189 530,-208"/>
<text text-anchor="middle" x="450.5" y="-196" font-family="Helvetica,sans-Serif" font-size="10.00">ImGui::DebugNodeDockNode</text>
</a>
</g>
</g>
<!-- Node6&#45;&gt;Node7 -->
<g id="edge6" class="edge">
<title>Node6&#45;&gt;Node7</title>
<path fill="none" stroke="#63b8ff" d="M763.62,-177.88C694.76,-179.65 597.71,-184.35 530.18,-189.2"/>
<polygon fill="#63b8ff" stroke="#63b8ff" points="764.09,-181.37 774,-177.63 763.92,-174.37 764.09,-181.37"/>
</g>
<!-- Node8 -->
<g id="node8" class="node">
<title>Node8</title>
<g id="a_node8"><a xlink:href="namespaceImGui.html#a8c2ed9f140c90d8eaca1e2cfd8f46142" target="_top" xlink:title=" ">
<polygon fill="white" stroke="#666666" points="736,-170 566,-170 566,-151 736,-151 736,-170"/>
<text text-anchor="middle" x="651" y="-158" font-family="Helvetica,sans-Serif" font-size="10.00">ImGui::DebugNodeWindowsList</text>
</a>
</g>
</g>
<!-- Node6&#45;&gt;Node8 -->
<g id="edge11" class="edge">
<title>Node6&#45;&gt;Node8</title>
<path fill="none" stroke="#63b8ff" d="M796.67,-168.6C778.22,-166.16 756.79,-163.84 736.18,-162.01"/>
<polygon fill="#63b8ff" stroke="#63b8ff" points="796.21,-172.07 806.6,-169.97 797.17,-165.14 796.21,-172.07"/>
</g>
<!-- Node9 -->
<g id="node9" class="node">
<title>Node9</title>
<g id="a_node9"><a xlink:href="namespaceImGui.html#a0fc8019faf3a1aec25b554384ad9e506" target="_top" xlink:title=" ">
<polygon fill="white" stroke="#666666" points="736,-114.5 566,-114.5 566,-84.5 736,-84.5 736,-114.5"/>
<text text-anchor="start" x="574" y="-102.5" font-family="Helvetica,sans-Serif" font-size="10.00">ImGui::DebugNodeWindowsList</text>
<text text-anchor="middle" x="651" y="-91.5" font-family="Helvetica,sans-Serif" font-size="10.00">ByBeginStackParent</text>
</a>
</g>
</g>
<!-- Node6&#45;&gt;Node9 -->
<g id="edge15" class="edge">
<title>Node6&#45;&gt;Node9</title>
<path fill="none" stroke="#63b8ff" d="M813.79,-165.88C779.02,-151.61 724.55,-129.26 688.57,-114.5"/>
<polygon fill="#63b8ff" stroke="#63b8ff" points="812.9,-169.29 823.48,-169.85 815.56,-162.82 812.9,-169.29"/>
</g>
<!-- Node7&#45;&gt;Node4 -->
<g id="edge9" class="edge">
<title>Node7&#45;&gt;Node4</title>
<path fill="none" stroke="#63b8ff" d="M391.45,-186.89C364.43,-181.49 332.68,-175.14 307.1,-170.02"/>
<polygon fill="#63b8ff" stroke="#63b8ff" points="391.06,-190.38 401.55,-188.91 392.44,-183.52 391.06,-190.38"/>
</g>
<!-- Node7&#45;&gt;Node6 -->
<g id="edge8" class="edge">
<title>Node7&#45;&gt;Node6</title>
<path fill="none" stroke="#63b8ff" d="M540.37,-199.97C610.82,-198.04 708.05,-193.25 774,-188.38"/>
<polygon fill="#63b8ff" stroke="#63b8ff" points="540.08,-196.48 530.18,-200.24 540.26,-203.48 540.08,-196.48"/>
</g>
<!-- Node7&#45;&gt;Node7 -->
<g id="edge7" class="edge">
<title>Node7&#45;&gt;Node7</title>
<path fill="none" stroke="#63b8ff" d="M486.48,-216.07C485.95,-221.62 473.96,-226 450.5,-226 416.38,-226 406.51,-216.73 420.91,-208.08"/>
<polygon fill="#63b8ff" stroke="#63b8ff" points="489.07,-213.71 480.09,-208.08 483.61,-218.08 489.07,-213.71"/>
</g>
<!-- Node8&#45;&gt;Node4 -->
<g id="edge14" class="edge">
<title>Node8&#45;&gt;Node4</title>
<path fill="none" stroke="#63b8ff" d="M555.51,-160.5C487.84,-160.5 397.92,-160.5 335.01,-160.5"/>
<polygon fill="#63b8ff" stroke="#63b8ff" points="555.75,-164 565.75,-160.5 555.75,-157 555.75,-164"/>
</g>
<!-- Node8&#45;&gt;Node6 -->
<g id="edge13" class="edge">
<title>Node8&#45;&gt;Node6</title>
<path fill="none" stroke="#63b8ff" d="M702.44,-171.41C724.19,-174.29 750.04,-176.99 773.83,-178.93"/>
<polygon fill="#63b8ff" stroke="#63b8ff" points="702.83,-167.93 692.44,-170.04 701.87,-174.87 702.83,-167.93"/>
</g>
<!-- Node8&#45;&gt;Node7 -->
<g id="edge12" class="edge">
<title>Node8&#45;&gt;Node7</title>
<path fill="none" stroke="#63b8ff" d="M589.98,-171.99C561.66,-177.41 528.26,-183.81 501.35,-188.96"/>
<polygon fill="#63b8ff" stroke="#63b8ff" points="591,-175.36 600.17,-170.04 589.69,-168.48 591,-175.36"/>
</g>
<!-- Node9&#45;&gt;Node4 -->
<g id="edge17" class="edge">
<title>Node9&#45;&gt;Node4</title>
<path fill="none" stroke="#63b8ff" d="M555.61,-114.25C482.46,-125.67 383.28,-141.16 320.33,-151"/>
<polygon fill="#63b8ff" stroke="#63b8ff" points="556.41,-117.66 565.75,-112.66 555.33,-110.75 556.41,-117.66"/>
</g>
<!-- Node9&#45;&gt;Node9 -->
<g id="edge16" class="edge">
<title>Node9&#45;&gt;Node9</title>
<path fill="none" stroke="#63b8ff" d="M685.31,-125.1C680.62,-129.47 669.18,-132.5 651,-132.5 620.38,-132.5 608.89,-123.91 616.55,-114.78"/>
<polygon fill="#63b8ff" stroke="#63b8ff" points="688.81,-124.82 685.45,-114.78 681.81,-124.72 688.81,-124.82"/>
</g>
<!-- Node11 -->
<g id="node11" class="node">
<title>Node11</title>
<g id="a_node11"><a xlink:href="namespaceImGui.html#acab51ec2b39577845309f24535381038" target="_top" xlink:title=" ">
<polygon fill="white" stroke="#666666" points="713,-61 589,-61 589,-42 713,-42 713,-61"/>
<text text-anchor="middle" x="651" y="-49" font-family="Helvetica,sans-Serif" font-size="10.00">ImGui::ShowFontAtlas</text>
</a>
</g>
</g>
<!-- Node10&#45;&gt;Node11 -->
<g id="edge20" class="edge">
<title>Node10&#45;&gt;Node11</title>
<path fill="none" stroke="#63b8ff" d="M987.36,-113.09C909.34,-98.76 776.89,-74.44 703.98,-61.05"/>
<polygon fill="#63b8ff" stroke="#63b8ff" points="987.07,-116.59 997.53,-114.96 988.33,-109.71 987.07,-116.59"/>
</g>
<!-- Node11&#45;&gt;Node4 -->
<g id="edge24" class="edge">
<title>Node11&#45;&gt;Node4</title>
<path fill="none" stroke="#63b8ff" d="M585.3,-62.89C528.22,-73.69 443.12,-91.66 371,-114.5 338.26,-124.87 301.71,-140.83 279.67,-150.96"/>
<polygon fill="#63b8ff" stroke="#63b8ff" points="586.08,-66.3 595.27,-61.02 584.79,-59.42 586.08,-66.3"/>
</g>
<!-- Node12 -->
<g id="node12" class="node">
<title>Node12</title>
<g id="a_node12"><a xlink:href="imgui__demo_8cpp.html#a163f04ccf255dede76e5e54f741ca9d5" target="_top" xlink:title=" ">
<polygon fill="white" stroke="#666666" points="526,-56 375,-56 375,-37 526,-37 526,-56"/>
<text text-anchor="middle" x="450.5" y="-44" font-family="Helvetica,sans-Serif" font-size="10.00">DemoWindowWidgetsFonts</text>
</a>
</g>
</g>
<!-- Node11&#45;&gt;Node12 -->
<g id="edge21" class="edge">
<title>Node11&#45;&gt;Node12</title>
<path fill="none" stroke="#63b8ff" d="M578.41,-49.7C561.41,-49.27 543.24,-48.81 526.11,-48.38"/>
<polygon fill="#63b8ff" stroke="#63b8ff" points="578.74,-53.21 588.82,-49.96 578.92,-46.21 578.74,-53.21"/>
</g>
<!-- Node14 -->
<g id="node14" class="node">
<title>Node14</title>
<g id="a_node14"><a xlink:href="namespaceImGui.html#ab2eb3dec78d054fe3feab1c091ec5de5" target="_top" xlink:title=" ">
<polygon fill="white" stroke="#666666" points="324,-19 193,-19 193,0 324,0 324,-19"/>
<text text-anchor="middle" x="258.5" y="-7" font-family="Helvetica,sans-Serif" font-size="10.00">ImGui::ShowStyleEditor</text>
</a>
</g>
</g>
<!-- Node11&#45;&gt;Node14 -->
<g id="edge25" class="edge">
<title>Node11&#45;&gt;Node14</title>
<path fill="none" stroke="#63b8ff" d="M599.31,-39.83C578.01,-35.33 552.91,-30.54 530,-27.5 460.01,-18.21 379.17,-13.63 324.23,-11.43"/>
<polygon fill="#63b8ff" stroke="#63b8ff" points="598.61,-43.26 609.12,-41.94 600.08,-36.42 598.61,-43.26"/>
</g>
<!-- Node13 -->
<g id="node13" class="node">
<title>Node13</title>
<g id="a_node13"><a xlink:href="imgui__demo_8cpp.html#a9a639caab781642cbc4f4a23bfbd11cd" target="_top" xlink:title=" ">
<polygon fill="white" stroke="#666666" points="321,-56 196,-56 196,-37 321,-37 321,-56"/>
<text text-anchor="middle" x="258.5" y="-44" font-family="Helvetica,sans-Serif" font-size="10.00">DemoWindowWidgets</text>
</a>
</g>
</g>
<!-- Node12&#45;&gt;Node13 -->
<g id="edge22" class="edge">
<title>Node12&#45;&gt;Node13</title>
<path fill="none" stroke="#63b8ff" d="M364.86,-46.5C350.19,-46.5 335.18,-46.5 321.26,-46.5"/>
<polygon fill="#63b8ff" stroke="#63b8ff" points="364.95,-50 374.95,-46.5 364.95,-43 364.95,-50"/>
</g>
<!-- Node13&#45;&gt;Node5 -->
<g id="edge23" class="edge">
<title>Node13&#45;&gt;Node5</title>
<path fill="none" stroke="#63b8ff" d="M185.64,-46.5C172.7,-46.5 159.2,-46.5 146.24,-46.5"/>
<polygon fill="#63b8ff" stroke="#63b8ff" points="185.89,-50 195.89,-46.5 185.89,-43 185.89,-50"/>
</g>
<!-- Node14&#45;&gt;Node5 -->
<g id="edge26" class="edge">
<title>Node14&#45;&gt;Node5</title>
<path fill="none" stroke="#63b8ff" d="M200.39,-21.02C175.03,-26.13 145.53,-32.08 121.41,-36.94"/>
<polygon fill="#63b8ff" stroke="#63b8ff" points="201.13,-24.44 210.24,-19.03 199.75,-17.57 201.13,-24.44"/>
</g>
</g>
</svg>
