<?xml version="1.0" encoding="UTF-8" standalone="no"?>
<!DOCTYPE svg PUBLIC "-//W3C//DTD SVG 1.1//EN"
 "http://www.w3.org/Graphics/SVG/1.1/DTD/svg11.dtd">
<!-- Generated by graphviz version 2.43.0 (0)
 -->
<!-- Title: ImFontAtlasGetMouseCursorTexData Pages: 1 -->
<svg width="555pt" height="64pt"
 viewBox="0.00 0.00 555.00 64.00" xmlns="http://www.w3.org/2000/svg" xmlns:xlink="http://www.w3.org/1999/xlink">
<g id="graph0" class="graph" transform="scale(1 1) rotate(0) translate(4 60)">
<title>ImFontAtlasGetMouseCursorTexData</title>
<!-- Node1 -->
<g id="node1" class="node">
<title>Node1</title>
<g id="a_node1"><a xlink:title=" ">
<polygon fill="#999999" stroke="#666666" points="156,-42.5 0,-42.5 0,-12.5 156,-12.5 156,-42.5"/>
<text text-anchor="start" x="8" y="-30.5" font-family="Helvetica,sans-Serif" font-size="10.00">ImFontAtlasGetMouseCursor</text>
<text text-anchor="middle" x="78" y="-19.5" font-family="Helvetica,sans-Serif" font-size="10.00">TexData</text>
</a>
</g>
</g>
<!-- Node2 -->
<g id="node2" class="node">
<title>Node2</title>
<g id="a_node2"><a xlink:href="imgui__draw_8cpp.html#a0c336a0e5d743ff3c8d40351d125d1bb" target="_top" xlink:title=" ">
<polygon fill="white" stroke="#666666" points="329,-37 192,-37 192,-18 329,-18 329,-37"/>
<text text-anchor="middle" x="260.5" y="-25" font-family="Helvetica,sans-Serif" font-size="10.00">ImFontAtlasPackGetRect</text>
</a>
</g>
</g>
<!-- Node1&#45;&gt;Node2 -->
<g id="edge1" class="edge">
<title>Node1&#45;&gt;Node2</title>
<path fill="none" stroke="#63b8ff" d="M156.07,-27.5C164.52,-27.5 173.12,-27.5 181.58,-27.5"/>
<polygon fill="#63b8ff" stroke="#63b8ff" points="181.8,-31 191.8,-27.5 181.8,-24 181.8,-31"/>
</g>
<!-- Node3 -->
<g id="node3" class="node">
<title>Node3</title>
<g id="a_node3"><a xlink:href="imgui__internal_8h.html#a6039a69a67990d53ef5ae5b1118c6b32" target="_top" xlink:title=" ">
<polygon fill="white" stroke="#666666" points="547,-56 365,-56 365,-37 547,-37 547,-56"/>
<text text-anchor="middle" x="456" y="-44" font-family="Helvetica,sans-Serif" font-size="10.00">ImFontAtlasRectId_GetGeneration</text>
</a>
</g>
</g>
<!-- Node2&#45;&gt;Node3 -->
<g id="edge2" class="edge">
<title>Node2&#45;&gt;Node3</title>
<path fill="none" stroke="#63b8ff" d="M329.18,-34.15C337.48,-34.96 346.1,-35.81 354.75,-36.66"/>
<polygon fill="#63b8ff" stroke="#63b8ff" points="354.62,-40.16 364.92,-37.65 355.31,-33.19 354.62,-40.16"/>
</g>
<!-- Node4 -->
<g id="node4" class="node">
<title>Node4</title>
<g id="a_node4"><a xlink:href="imgui__internal_8h.html#aa98db9ab353d51f962cc6cfe7c39a9d2" target="_top" xlink:title=" ">
<polygon fill="white" stroke="#666666" points="533.5,-19 378.5,-19 378.5,0 533.5,0 533.5,-19"/>
<text text-anchor="middle" x="456" y="-7" font-family="Helvetica,sans-Serif" font-size="10.00">ImFontAtlasRectId_GetIndex</text>
</a>
</g>
</g>
<!-- Node2&#45;&gt;Node4 -->
<g id="edge3" class="edge">
<title>Node2&#45;&gt;Node4</title>
<path fill="none" stroke="#63b8ff" d="M329.18,-21.2C341.86,-20.02 355.27,-18.78 368.43,-17.55"/>
<polygon fill="#63b8ff" stroke="#63b8ff" points="368.8,-21.03 378.43,-16.62 368.15,-14.06 368.8,-21.03"/>
</g>
</g>
</svg>
