<?xml version="1.0" encoding="UTF-8" standalone="no"?>
<!DOCTYPE svg PUBLIC "-//W3C//DTD SVG 1.1//EN"
 "http://www.w3.org/Graphics/SVG/1.1/DTD/svg11.dtd">
<!-- Generated by graphviz version 2.43.0 (0)
 -->
<!-- Title: UnpackAccumulativeOffsetsIntoRanges Pages: 1 -->
<svg width="520pt" height="86pt"
 viewBox="0.00 0.00 520.00 86.00" xmlns="http://www.w3.org/2000/svg" xmlns:xlink="http://www.w3.org/1999/xlink">
<g id="graph0" class="graph" transform="scale(1 1) rotate(0) translate(4 82)">
<title>UnpackAccumulativeOffsetsIntoRanges</title>
<!-- Node1 -->
<g id="node1" class="node">
<title>Node1</title>
<g id="a_node1"><a xlink:title=" ">
<polygon fill="#999999" stroke="#666666" points="512,-54 357,-54 357,-24 512,-24 512,-54"/>
<text text-anchor="start" x="365" y="-42" font-family="Helvetica,sans-Serif" font-size="10.00">UnpackAccumulativeOffsets</text>
<text text-anchor="middle" x="434.5" y="-31" font-family="Helvetica,sans-Serif" font-size="10.00">IntoRanges</text>
</a>
</g>
</g>
<!-- Node2 -->
<g id="node2" class="node">
<title>Node2</title>
<g id="a_node2"><a xlink:href="structImFontAtlas.html#a3a6b1a8afb01ba5e7c4d86957d6d2625" target="_top" xlink:title=" ">
<polygon fill="white" stroke="#666666" points="321,-78 158,-78 158,-48 321,-48 321,-78"/>
<text text-anchor="start" x="166" y="-66" font-family="Helvetica,sans-Serif" font-size="10.00">ImFontAtlas::GetGlyphRanges</text>
<text text-anchor="middle" x="239.5" y="-55" font-family="Helvetica,sans-Serif" font-size="10.00">ChineseSimplifiedCommon</text>
</a>
</g>
</g>
<!-- Node1&#45;&gt;Node2 -->
<g id="edge1" class="edge">
<title>Node1&#45;&gt;Node2</title>
<path fill="none" stroke="#63b8ff" d="M346.92,-49.77C338.32,-50.84 329.62,-51.92 321.08,-52.98"/>
<polygon fill="#63b8ff" stroke="#63b8ff" points="347.45,-53.23 356.94,-48.52 346.59,-46.28 347.45,-53.23"/>
</g>
<!-- Node3 -->
<g id="node3" class="node">
<title>Node3</title>
<g id="a_node3"><a xlink:href="structImFontAtlas.html#a2654afbbf73835bf08278cdc6c181a96" target="_top" xlink:title=" ">
<polygon fill="white" stroke="#666666" points="321,-30 158,-30 158,0 321,0 321,-30"/>
<text text-anchor="start" x="166" y="-18" font-family="Helvetica,sans-Serif" font-size="10.00">ImFontAtlas::GetGlyphRanges</text>
<text text-anchor="middle" x="239.5" y="-7" font-family="Helvetica,sans-Serif" font-size="10.00">Japanese</text>
</a>
</g>
</g>
<!-- Node1&#45;&gt;Node3 -->
<g id="edge2" class="edge">
<title>Node1&#45;&gt;Node3</title>
<path fill="none" stroke="#63b8ff" d="M346.92,-28.23C338.32,-27.16 329.62,-26.08 321.08,-25.02"/>
<polygon fill="#63b8ff" stroke="#63b8ff" points="346.59,-31.72 356.94,-29.48 347.45,-24.77 346.59,-31.72"/>
</g>
<!-- Node4 -->
<g id="node4" class="node">
<title>Node4</title>
<g id="a_node4"><a xlink:href="classmtgb_1_1ImGuiRenderer.html#a4db4a95a57f586a5fda30be1957f247a" target="_top" xlink:title=" ">
<polygon fill="white" stroke="#666666" points="122,-30 0,-30 0,0 122,0 122,-30"/>
<text text-anchor="start" x="8" y="-18" font-family="Helvetica,sans-Serif" font-size="10.00">mtgb::ImGuiRenderer</text>
<text text-anchor="middle" x="61" y="-7" font-family="Helvetica,sans-Serif" font-size="10.00">::Initialize</text>
</a>
</g>
</g>
<!-- Node3&#45;&gt;Node4 -->
<g id="edge3" class="edge">
<title>Node3&#45;&gt;Node4</title>
<path fill="none" stroke="#63b8ff" d="M147.77,-15C139.05,-15 130.36,-15 122.05,-15"/>
<polygon fill="#63b8ff" stroke="#63b8ff" points="148,-18.5 158,-15 148,-11.5 148,-18.5"/>
</g>
</g>
</svg>
