<?xml version="1.0" encoding="UTF-8" standalone="no"?>
<!DOCTYPE svg PUBLIC "-//W3C//DTD SVG 1.1//EN"
 "http://www.w3.org/Graphics/SVG/1.1/DTD/svg11.dtd">
<!-- Generated by graphviz version 2.43.0 (0)
 -->
<!-- Title: GetTabBarRefFromTabBar Pages: 1 -->
<svg width="286pt" height="64pt"
 viewBox="0.00 0.00 286.00 64.00" xmlns="http://www.w3.org/2000/svg" xmlns:xlink="http://www.w3.org/1999/xlink">
<g id="graph0" class="graph" transform="scale(1 1) rotate(0) translate(4 60)">
<title>GetTabBarRefFromTabBar</title>
<!-- Node1 -->
<g id="node1" class="node">
<title>Node1</title>
<g id="a_node1"><a xlink:title=" ">
<polygon fill="#999999" stroke="#666666" points="141,-37 0,-37 0,-18 141,-18 141,-37"/>
<text text-anchor="middle" x="70.5" y="-25" font-family="Helvetica,sans-Serif" font-size="10.00">GetTabBarRefFromTabBar</text>
</a>
</g>
</g>
<!-- Node2 -->
<g id="node2" class="node">
<title>Node2</title>
<g id="a_node2"><a xlink:href="structImPool.html#a2434a4efa2eab4aeca8e15ac208c18d8" target="_top" xlink:title=" ">
<polygon fill="white" stroke="#666666" points="277,-56 178,-56 178,-37 277,-37 277,-56"/>
<text text-anchor="middle" x="227.5" y="-44" font-family="Helvetica,sans-Serif" font-size="10.00">ImPool::Contains</text>
</a>
</g>
</g>
<!-- Node1&#45;&gt;Node2 -->
<g id="edge1" class="edge">
<title>Node1&#45;&gt;Node2</title>
<path fill="none" stroke="#63b8ff" d="M141.29,-36.06C150.19,-37.15 159.22,-38.25 167.91,-39.32"/>
<polygon fill="#63b8ff" stroke="#63b8ff" points="167.58,-42.8 177.93,-40.55 168.43,-35.86 167.58,-42.8"/>
</g>
<!-- Node3 -->
<g id="node3" class="node">
<title>Node3</title>
<g id="a_node3"><a xlink:href="structImPool.html#a3e683876ebd44c7f6f098851ee522870" target="_top" xlink:title=" ">
<polygon fill="white" stroke="#666666" points="278,-19 177,-19 177,0 278,0 278,-19"/>
<text text-anchor="middle" x="227.5" y="-7" font-family="Helvetica,sans-Serif" font-size="10.00">ImPool::GetIndex</text>
</a>
</g>
</g>
<!-- Node1&#45;&gt;Node3 -->
<g id="edge2" class="edge">
<title>Node1&#45;&gt;Node3</title>
<path fill="none" stroke="#63b8ff" d="M141.29,-19.4C149.75,-18.41 158.32,-17.42 166.62,-16.45"/>
<polygon fill="#63b8ff" stroke="#63b8ff" points="167.04,-19.93 176.57,-15.3 166.23,-12.98 167.04,-19.93"/>
</g>
</g>
</svg>
