<?xml version="1.0" encoding="UTF-8" standalone="no"?>
<!DOCTYPE svg PUBLIC "-//W3C//DTD SVG 1.1//EN"
 "http://www.w3.org/Graphics/SVG/1.1/DTD/svg11.dtd">
<!-- Generated by graphviz version 2.43.0 (0)
 -->
<!-- Title: ImFontAtlasTextureGrow Pages: 1 -->
<svg width="3047pt" height="986pt"
 viewBox="0.00 0.00 3047.00 986.00" xmlns="http://www.w3.org/2000/svg" xmlns:xlink="http://www.w3.org/1999/xlink">
<g id="graph0" class="graph" transform="scale(1 1) rotate(0) translate(4 982)">
<title>ImFontAtlasTextureGrow</title>
<!-- Node1 -->
<g id="node1" class="node">
<title>Node1</title>
<g id="a_node1"><a xlink:title=" ">
<polygon fill="#999999" stroke="#666666" points="3039,-41.5 2902,-41.5 2902,-22.5 3039,-22.5 3039,-41.5"/>
<text text-anchor="middle" x="2970.5" y="-29.5" font-family="Helvetica,sans-Serif" font-size="10.00">ImFontAtlasTextureGrow</text>
</a>
</g>
</g>
<!-- Node2 -->
<g id="node2" class="node">
<title>Node2</title>
<g id="a_node2"><a xlink:href="imgui__draw_8cpp.html#ab6db3feee2a9236c83a4cfa35cd8b044" target="_top" xlink:title=" ">
<polygon fill="white" stroke="#666666" points="2866,-65.5 2699,-65.5 2699,-46.5 2866,-46.5 2866,-65.5"/>
<text text-anchor="middle" x="2782.5" y="-53.5" font-family="Helvetica,sans-Serif" font-size="10.00">ImFontAtlasTextureMakeSpace</text>
</a>
</g>
</g>
<!-- Node1&#45;&gt;Node2 -->
<g id="edge1" class="edge">
<title>Node1&#45;&gt;Node2</title>
<path fill="none" stroke="#63b8ff" d="M2891.89,-42.01C2880.48,-43.49 2868.74,-45 2857.41,-46.46"/>
<polygon fill="#63b8ff" stroke="#63b8ff" points="2892.35,-45.48 2901.82,-40.73 2891.46,-38.54 2892.35,-45.48"/>
</g>
<!-- Node27 -->
<g id="node10" class="node">
<title>Node27</title>
<g id="a_node10"><a xlink:href="namespaceImGui.html#acab51ec2b39577845309f24535381038" target="_top" xlink:title=" ">
<polygon fill="white" stroke="#666666" points="696,-433.5 572,-433.5 572,-414.5 696,-414.5 696,-433.5"/>
<text text-anchor="middle" x="634" y="-421.5" font-family="Helvetica,sans-Serif" font-size="10.00">ImGui::ShowFontAtlas</text>
</a>
</g>
</g>
<!-- Node1&#45;&gt;Node27 -->
<g id="edge75" class="edge">
<title>Node1&#45;&gt;Node27</title>
<path fill="none" stroke="#63b8ff" d="M2966.24,-51.88C2943.34,-188.07 2801.61,-978 2595,-978 2595,-978 2595,-978 1013.5,-978 738.6,-978 648.88,-507.18 636.54,-433.62"/>
<polygon fill="#63b8ff" stroke="#63b8ff" points="2969.75,-52.11 2967.94,-41.67 2962.84,-50.96 2969.75,-52.11"/>
</g>
<!-- Node36 -->
<g id="node23" class="node">
<title>Node36</title>
<g id="a_node23"><a xlink:href="imgui__draw_8cpp.html#a774e74d2f6e0b33b6e6b85d4d5c5b3da" target="_top" xlink:title=" ">
<polygon fill="white" stroke="#666666" points="1275,-103.5 1128,-103.5 1128,-84.5 1275,-84.5 1275,-103.5"/>
<text text-anchor="middle" x="1201.5" y="-91.5" font-family="Helvetica,sans-Serif" font-size="10.00">ImFontAtlasTextureRepack</text>
</a>
</g>
</g>
<!-- Node1&#45;&gt;Node36 -->
<g id="edge74" class="edge">
<title>Node1&#45;&gt;Node36</title>
<path fill="none" stroke="#63b8ff" d="M2919.54,-21.04C2847.8,-11.21 2711.41,0 2595,0 2595,0 2595,0 1599.5,0 1447.96,0 1270.94,-59.95 1218.13,-84.49"/>
<polygon fill="#63b8ff" stroke="#63b8ff" points="2919.25,-24.53 2929.64,-22.48 2920.24,-17.6 2919.25,-24.53"/>
</g>
<!-- Node3 -->
<g id="node3" class="node">
<title>Node3</title>
<g id="a_node3"><a xlink:href="imgui__draw_8cpp.html#a0033358c6425323b29be68b3f5af3aa9" target="_top" xlink:title=" ">
<polygon fill="white" stroke="#666666" points="2663,-286.5 2525,-286.5 2525,-267.5 2663,-267.5 2663,-286.5"/>
<text text-anchor="middle" x="2594" y="-274.5" font-family="Helvetica,sans-Serif" font-size="10.00">ImFontAtlasPackAddRect</text>
</a>
</g>
</g>
<!-- Node2&#45;&gt;Node3 -->
<g id="edge2" class="edge">
<title>Node2&#45;&gt;Node3</title>
<path fill="none" stroke="#63b8ff" d="M2766.58,-73.67C2729.11,-118.08 2631.96,-233.21 2603.16,-267.33"/>
<polygon fill="#63b8ff" stroke="#63b8ff" points="2769.47,-75.68 2773.25,-65.78 2764.12,-71.17 2769.47,-75.68"/>
</g>
<!-- Node4 -->
<g id="node4" class="node">
<title>Node4</title>
<g id="a_node4"><a xlink:href="structImFontAtlas.html#ab4660128958e0c30577056975ef8dc29" target="_top" xlink:title=" ">
<polygon fill="white" stroke="#666666" points="2489,-255.5 2330,-255.5 2330,-236.5 2489,-236.5 2489,-255.5"/>
<text text-anchor="middle" x="2409.5" y="-243.5" font-family="Helvetica,sans-Serif" font-size="10.00">ImFontAtlas::AddCustomRect</text>
</a>
</g>
</g>
<!-- Node3&#45;&gt;Node4 -->
<g id="edge3" class="edge">
<title>Node3&#45;&gt;Node4</title>
<path fill="none" stroke="#63b8ff" d="M2526.9,-265.77C2507.12,-262.41 2485.63,-258.76 2466.56,-255.52"/>
<polygon fill="#63b8ff" stroke="#63b8ff" points="2526.31,-269.22 2536.75,-267.45 2527.48,-262.32 2526.31,-269.22"/>
</g>
<!-- Node3&#45;&gt;Node36 -->
<g id="edge69" class="edge">
<title>Node3&#45;&gt;Node36</title>
<path fill="none" stroke="#63b8ff" d="M2574.71,-260.68C2522.49,-215.82 2366.62,-94 2214,-94 2214,-94 2214,-94 1599.5,-94 1486.29,-94 1354.93,-94 1275.31,-94"/>
<polygon fill="#63b8ff" stroke="#63b8ff" points="2572.61,-263.49 2582.45,-267.42 2577.21,-258.21 2572.61,-263.49"/>
</g>
<!-- Node41 -->
<g id="node30" class="node">
<title>Node41</title>
<g id="a_node30"><a xlink:href="structImFontAtlas.html#a7b5b4e1374b9ee8ad3cdf624f6ca0ea6" target="_top" xlink:title=" ">
<polygon fill="white" stroke="#666666" points="1892,-950 1733,-950 1733,-920 1892,-920 1892,-950"/>
<text text-anchor="start" x="1741" y="-938" font-family="Helvetica,sans-Serif" font-size="10.00">ImFontAtlas::AddCustomRect</text>
<text text-anchor="middle" x="1812.5" y="-927" font-family="Helvetica,sans-Serif" font-size="10.00">FontGlyphForSize</text>
</a>
</g>
</g>
<!-- Node3&#45;&gt;Node41 -->
<g id="edge41" class="edge">
<title>Node3&#45;&gt;Node41</title>
<path fill="none" stroke="#63b8ff" d="M2589.68,-296.65C2580.8,-344.37 2552.7,-468.39 2489,-549 2319,-764.13 1993.85,-880.79 1866.51,-919.88"/>
<polygon fill="#63b8ff" stroke="#63b8ff" points="2593.15,-297.16 2591.46,-286.7 2586.25,-295.93 2593.15,-297.16"/>
</g>
<!-- Node43 -->
<g id="node32" class="node">
<title>Node43</title>
<g id="a_node32"><a xlink:href="imgui__draw_8cpp.html#af9e65faab4d4aee635252df4de8f9c20" target="_top" xlink:title=" ">
<polygon fill="white" stroke="#666666" points="2484,-540 2335,-540 2335,-510 2484,-510 2484,-540"/>
<text text-anchor="start" x="2343" y="-528" font-family="Helvetica,sans-Serif" font-size="10.00">ImFontAtlasBuildSetupFont</text>
<text text-anchor="middle" x="2409.5" y="-517" font-family="Helvetica,sans-Serif" font-size="10.00">BakedEllipsis</text>
</a>
</g>
</g>
<!-- Node3&#45;&gt;Node43 -->
<g id="edge43" class="edge">
<title>Node3&#45;&gt;Node43</title>
<path fill="none" stroke="#63b8ff" d="M2579.76,-294.99C2545.31,-341.8 2453.39,-466.72 2421.54,-510"/>
<polygon fill="#63b8ff" stroke="#63b8ff" points="2582.74,-296.85 2585.85,-286.72 2577.1,-292.7 2582.74,-296.85"/>
</g>
<!-- Node447 -->
<g id="node49" class="node">
<title>Node447</title>
<g id="a_node49"><a xlink:href="imgui__draw_8cpp.html#a384d25358c5821097a2a8cfc007a78a5" target="_top" xlink:title=" ">
<polygon fill="white" stroke="#666666" points="2475,-323 2344,-323 2344,-293 2475,-293 2475,-323"/>
<text text-anchor="start" x="2352" y="-311" font-family="Helvetica,sans-Serif" font-size="10.00">ImGui_ImplStbTrueType</text>
<text text-anchor="middle" x="2409.5" y="-300" font-family="Helvetica,sans-Serif" font-size="10.00">_FontBakedLoadGlyph</text>
</a>
</g>
</g>
<!-- Node3&#45;&gt;Node447 -->
<g id="edge70" class="edge">
<title>Node3&#45;&gt;Node447</title>
<path fill="none" stroke="#63b8ff" d="M2526.51,-288.29C2509.77,-291.14 2491.83,-294.18 2475.18,-297.01"/>
<polygon fill="#63b8ff" stroke="#63b8ff" points="2527.48,-291.68 2536.75,-286.55 2526.31,-284.78 2527.48,-291.68"/>
</g>
<!-- Node5 -->
<g id="node5" class="node">
<title>Node5</title>
<g id="a_node5"><a xlink:href="imgui__draw_8cpp.html#ab393bf8b3bb80eec2e65edae02153d8c" target="_top" xlink:title=" ">
<polygon fill="white" stroke="#666666" points="2293.5,-218 2132.5,-218 2132.5,-188 2293.5,-188 2293.5,-218"/>
<text text-anchor="start" x="2140.5" y="-206" font-family="Helvetica,sans-Serif" font-size="10.00">ImFontAtlasBuildUpdateBasic</text>
<text text-anchor="middle" x="2213" y="-195" font-family="Helvetica,sans-Serif" font-size="10.00">TexData</text>
</a>
</g>
</g>
<!-- Node4&#45;&gt;Node5 -->
<g id="edge4" class="edge">
<title>Node4&#45;&gt;Node5</title>
<path fill="none" stroke="#63b8ff" d="M2355.54,-234.29C2332.83,-229.27 2306.02,-223.34 2281.88,-218.01"/>
<polygon fill="#63b8ff" stroke="#63b8ff" points="2354.81,-237.72 2365.33,-236.46 2356.33,-230.88 2354.81,-237.72"/>
</g>
<!-- Node35 -->
<g id="node22" class="node">
<title>Node35</title>
<g id="a_node22"><a xlink:href="imgui__draw_8cpp.html#ae1947e9ba26126e2cd94f8772df62b88" target="_top" xlink:title=" ">
<polygon fill="white" stroke="#666666" points="1473,-226 1312,-226 1312,-196 1473,-196 1473,-226"/>
<text text-anchor="start" x="1320" y="-214" font-family="Helvetica,sans-Serif" font-size="10.00">ImFontAtlasBuildUpdateLines</text>
<text text-anchor="middle" x="1392.5" y="-203" font-family="Helvetica,sans-Serif" font-size="10.00">TexData</text>
</a>
</g>
</g>
<!-- Node4&#45;&gt;Node35 -->
<g id="edge40" class="edge">
<title>Node4&#45;&gt;Node35</title>
<path fill="none" stroke="#63b8ff" d="M2389.03,-230.2C2367.35,-213.71 2330.54,-188.9 2294,-179 2224.51,-160.16 2203.98,-177.44 2132,-179 1892.08,-184.2 1608.61,-198.88 1473.24,-206.41"/>
<polygon fill="#63b8ff" stroke="#63b8ff" points="2387.05,-233.09 2397.09,-236.48 2391.35,-227.57 2387.05,-233.09"/>
</g>
<!-- Node6 -->
<g id="node6" class="node">
<title>Node6</title>
<g id="a_node6"><a xlink:href="imgui__draw_8cpp.html#ac050ff181df43cec0b63d834b6039c3f" target="_top" xlink:title=" ">
<polygon fill="white" stroke="#666666" points="2073,-333.5 1957,-333.5 1957,-314.5 2073,-314.5 2073,-333.5"/>
<text text-anchor="middle" x="2015" y="-321.5" font-family="Helvetica,sans-Serif" font-size="10.00">ImFontAtlasBuildInit</text>
</a>
</g>
</g>
<!-- Node5&#45;&gt;Node6 -->
<g id="edge5" class="edge">
<title>Node5&#45;&gt;Node6</title>
<path fill="none" stroke="#63b8ff" d="M2178.91,-223.43C2136.04,-249.9 2063.05,-294.95 2031.4,-314.49"/>
<polygon fill="#63b8ff" stroke="#63b8ff" points="2180.9,-226.31 2187.57,-218.08 2177.23,-220.36 2180.9,-226.31"/>
</g>
<!-- Node5&#45;&gt;Node36 -->
<g id="edge39" class="edge">
<title>Node5&#45;&gt;Node36</title>
<path fill="none" stroke="#63b8ff" d="M2121.97,-194.21C1959.73,-178.21 1607.56,-142.76 1311,-108 1299.21,-106.62 1286.71,-105.08 1274.55,-103.54"/>
<polygon fill="#63b8ff" stroke="#63b8ff" points="2122.09,-197.74 2132.38,-195.23 2122.78,-190.77 2122.09,-197.74"/>
</g>
<!-- Node6&#45;&gt;Node4 -->
<g id="edge6" class="edge">
<title>Node6&#45;&gt;Node4</title>
<path fill="none" stroke="#63b8ff" d="M2074,-312.47C2151.68,-297.04 2288.08,-269.93 2360.37,-255.56"/>
<polygon fill="#63b8ff" stroke="#63b8ff" points="2073.03,-309.1 2063.91,-314.48 2074.4,-315.96 2073.03,-309.1"/>
</g>
<!-- Node7 -->
<g id="node7" class="node">
<title>Node7</title>
<g id="a_node7"><a xlink:href="structImFontAtlas.html#ad01c0f19a95d37a9e5ebab1e54525625" target="_top" xlink:title=" ">
<polygon fill="white" stroke="#666666" points="1873,-369.5 1752,-369.5 1752,-350.5 1873,-350.5 1873,-369.5"/>
<text text-anchor="middle" x="1812.5" y="-357.5" font-family="Helvetica,sans-Serif" font-size="10.00">ImFontAtlas::AddFont</text>
</a>
</g>
</g>
<!-- Node6&#45;&gt;Node7 -->
<g id="edge7" class="edge">
<title>Node6&#45;&gt;Node7</title>
<path fill="none" stroke="#63b8ff" d="M1950.92,-335.33C1923.86,-340.18 1892.6,-345.8 1866.74,-350.44"/>
<polygon fill="#63b8ff" stroke="#63b8ff" points="1951.83,-338.72 1961.06,-333.51 1950.6,-331.83 1951.83,-338.72"/>
</g>
<!-- Node26 -->
<g id="node9" class="node">
<title>Node26</title>
<g id="a_node9"><a xlink:href="imgui__draw_8cpp.html#a9d1efb82d7bc3af7b4ee436ea5d776a9" target="_top" xlink:title=" ">
<polygon fill="white" stroke="#666666" points="1264,-419.5 1139,-419.5 1139,-400.5 1264,-400.5 1264,-419.5"/>
<text text-anchor="middle" x="1201.5" y="-407.5" font-family="Helvetica,sans-Serif" font-size="10.00">ImFontAtlasBuildClear</text>
</a>
</g>
</g>
<!-- Node6&#45;&gt;Node26 -->
<g id="edge9" class="edge">
<title>Node6&#45;&gt;Node26</title>
<path fill="none" stroke="#63b8ff" d="M1990.36,-338.64C1967.63,-351.87 1931.82,-370.53 1898,-379 1669.96,-436.14 1386.96,-424.35 1264.15,-415.38"/>
<polygon fill="#63b8ff" stroke="#63b8ff" points="1992.16,-341.64 1998.97,-333.52 1988.59,-335.62 1992.16,-341.64"/>
</g>
<!-- Node13 -->
<g id="node16" class="node">
<title>Node13</title>
<g id="a_node16"><a xlink:href="imgui__draw_8cpp.html#a2ed1c49f29c1635abb9d187846311e43" target="_top" xlink:title=" ">
<polygon fill="white" stroke="#666666" points="1662.5,-614.5 1538.5,-614.5 1538.5,-595.5 1662.5,-595.5 1662.5,-614.5"/>
<text text-anchor="middle" x="1600.5" y="-602.5" font-family="Helvetica,sans-Serif" font-size="10.00">ImFontAtlasBuildMain</text>
</a>
</g>
</g>
<!-- Node6&#45;&gt;Node13 -->
<g id="edge18" class="edge">
<title>Node6&#45;&gt;Node13</title>
<path fill="none" stroke="#63b8ff" d="M1995.36,-340.07C1973.13,-358.77 1934.4,-389.9 1898,-412 1826.12,-455.65 1797.09,-446.53 1727,-493 1678.81,-524.95 1630.09,-574.48 1610.49,-595.28"/>
<polygon fill="#63b8ff" stroke="#63b8ff" points="1997.67,-342.7 2003.03,-333.56 1993.14,-337.36 1997.67,-342.7"/>
</g>
<!-- Node33 -->
<g id="node20" class="node">
<title>Node33</title>
<g id="a_node20"><a xlink:href="imgui__draw_8cpp.html#ac554b588bab2aa85e6f6d6969b8224e4" target="_top" xlink:title=" ">
<polygon fill="white" stroke="#666666" points="1891.5,-293.5 1733.5,-293.5 1733.5,-274.5 1891.5,-274.5 1891.5,-293.5"/>
<text text-anchor="middle" x="1812.5" y="-281.5" font-family="Helvetica,sans-Serif" font-size="10.00">ImFontAtlasPackGetRectSafe</text>
</a>
</g>
</g>
<!-- Node6&#45;&gt;Node33 -->
<g id="edge22" class="edge">
<title>Node6&#45;&gt;Node33</title>
<path fill="none" stroke="#63b8ff" d="M1956.28,-312.48C1926.16,-306.48 1889.76,-299.21 1861.25,-293.53"/>
<polygon fill="#63b8ff" stroke="#63b8ff" points="1955.74,-315.95 1966.23,-314.47 1957.11,-309.08 1955.74,-315.95"/>
</g>
<!-- Node8 -->
<g id="node8" class="node">
<title>Node8</title>
<g id="a_node8"><a xlink:href="structImFontAtlas.html#ad7e1ae24061d41f667546626dc39ef09" target="_top" xlink:title=" ">
<polygon fill="#fff0f0" stroke="red" points="1673.5,-380 1527.5,-380 1527.5,-350 1673.5,-350 1673.5,-380"/>
<text text-anchor="start" x="1535.5" y="-368" font-family="Helvetica,sans-Serif" font-size="10.00">ImFontAtlas::AddFontFrom</text>
<text text-anchor="middle" x="1600.5" y="-357" font-family="Helvetica,sans-Serif" font-size="10.00">MemoryTTF</text>
</a>
</g>
</g>
<!-- Node7&#45;&gt;Node8 -->
<g id="edge8" class="edge">
<title>Node7&#45;&gt;Node8</title>
<path fill="none" stroke="#63b8ff" d="M1741.68,-361.66C1719.8,-362.18 1695.61,-362.76 1673.57,-363.28"/>
<polygon fill="#63b8ff" stroke="#63b8ff" points="1741.97,-365.16 1751.88,-361.42 1741.8,-358.16 1741.97,-365.16"/>
</g>
<!-- Node26&#45;&gt;Node27 -->
<g id="edge10" class="edge">
<title>Node26&#45;&gt;Node27</title>
<path fill="none" stroke="#63b8ff" d="M1128.7,-411.78C1016.45,-414.56 801.37,-419.88 696.09,-422.49"/>
<polygon fill="#63b8ff" stroke="#63b8ff" points="1128.99,-415.27 1138.91,-411.52 1128.82,-408.27 1128.99,-415.27"/>
</g>
<!-- Node28 -->
<g id="node11" class="node">
<title>Node28</title>
<g id="a_node11"><a xlink:href="imgui__demo_8cpp.html#a163f04ccf255dede76e5e54f741ca9d5" target="_top" xlink:title=" ">
<polygon fill="white" stroke="#666666" points="522,-396.5 371,-396.5 371,-377.5 522,-377.5 522,-396.5"/>
<text text-anchor="middle" x="446.5" y="-384.5" font-family="Helvetica,sans-Serif" font-size="10.00">DemoWindowWidgetsFonts</text>
</a>
</g>
</g>
<!-- Node27&#45;&gt;Node28 -->
<g id="edge11" class="edge">
<title>Node27&#45;&gt;Node28</title>
<path fill="none" stroke="#63b8ff" d="M575.26,-412.48C549.63,-407.37 519.81,-401.42 495.43,-396.56"/>
<polygon fill="#63b8ff" stroke="#63b8ff" points="574.74,-415.95 585.23,-414.47 576.11,-409.08 574.74,-415.95"/>
</g>
<!-- Node31 -->
<g id="node14" class="node">
<title>Node31</title>
<g id="a_node14"><a xlink:href="namespaceImGui.html#afe7a28c6eb52fff3cc27d5a698fea4ff" target="_top" xlink:title=" ">
<polygon fill="white" stroke="#666666" points="335,-471.5 182,-471.5 182,-452.5 335,-452.5 335,-471.5"/>
<text text-anchor="middle" x="258.5" y="-459.5" font-family="Helvetica,sans-Serif" font-size="10.00">ImGui::ShowMetricsWindow</text>
</a>
</g>
</g>
<!-- Node27&#45;&gt;Node31 -->
<g id="edge14" class="edge">
<title>Node27&#45;&gt;Node31</title>
<path fill="none" stroke="#63b8ff" d="M573.32,-435.31C556.75,-438.15 538.72,-440.97 522,-443 459.29,-450.62 387.76,-455.55 335.22,-458.47"/>
<polygon fill="#63b8ff" stroke="#63b8ff" points="574.17,-438.72 583.42,-433.55 572.97,-431.82 574.17,-438.72"/>
</g>
<!-- Node32 -->
<g id="node15" class="node">
<title>Node32</title>
<g id="a_node15"><a xlink:href="namespaceImGui.html#ab2eb3dec78d054fe3feab1c091ec5de5" target="_top" xlink:title=" ">
<polygon fill="white" stroke="#666666" points="512,-433.5 381,-433.5 381,-414.5 512,-414.5 512,-433.5"/>
<text text-anchor="middle" x="446.5" y="-421.5" font-family="Helvetica,sans-Serif" font-size="10.00">ImGui::ShowStyleEditor</text>
</a>
</g>
</g>
<!-- Node27&#45;&gt;Node32 -->
<g id="edge16" class="edge">
<title>Node27&#45;&gt;Node32</title>
<path fill="none" stroke="#63b8ff" d="M561.74,-424C545.44,-424 528.2,-424 512.19,-424"/>
<polygon fill="#63b8ff" stroke="#63b8ff" points="561.75,-427.5 571.75,-424 561.75,-420.5 561.75,-427.5"/>
</g>
<!-- Node29 -->
<g id="node12" class="node">
<title>Node29</title>
<g id="a_node12"><a xlink:href="imgui__demo_8cpp.html#a9a639caab781642cbc4f4a23bfbd11cd" target="_top" xlink:title=" ">
<polygon fill="white" stroke="#666666" points="321,-395.5 196,-395.5 196,-376.5 321,-376.5 321,-395.5"/>
<text text-anchor="middle" x="258.5" y="-383.5" font-family="Helvetica,sans-Serif" font-size="10.00">DemoWindowWidgets</text>
</a>
</g>
</g>
<!-- Node28&#45;&gt;Node29 -->
<g id="edge12" class="edge">
<title>Node28&#45;&gt;Node29</title>
<path fill="none" stroke="#63b8ff" d="M360.8,-386.54C347.48,-386.47 333.94,-386.4 321.27,-386.33"/>
<polygon fill="#63b8ff" stroke="#63b8ff" points="360.9,-390.05 370.92,-386.6 360.94,-383.05 360.9,-390.05"/>
</g>
<!-- Node30 -->
<g id="node13" class="node">
<title>Node30</title>
<g id="a_node13"><a xlink:href="namespaceImGui.html#af95643a0ce4893b9e57c12991922fb18" target="_top" xlink:title=" ">
<polygon fill="white" stroke="#666666" points="146,-433.5 0,-433.5 0,-414.5 146,-414.5 146,-433.5"/>
<text text-anchor="middle" x="73" y="-421.5" font-family="Helvetica,sans-Serif" font-size="10.00">ImGui::ShowDemoWindow</text>
</a>
</g>
</g>
<!-- Node29&#45;&gt;Node30 -->
<g id="edge13" class="edge">
<title>Node29&#45;&gt;Node30</title>
<path fill="none" stroke="#63b8ff" d="M201.09,-397.68C175.07,-403.07 144.57,-409.39 119.97,-414.48"/>
<polygon fill="#63b8ff" stroke="#63b8ff" points="202.11,-401.04 211.2,-395.59 200.69,-394.19 202.11,-401.04"/>
</g>
<!-- Node31&#45;&gt;Node30 -->
<g id="edge15" class="edge">
<title>Node31&#45;&gt;Node30</title>
<path fill="none" stroke="#63b8ff" d="M201.09,-450.32C175.07,-444.93 144.57,-438.61 119.97,-433.52"/>
<polygon fill="#63b8ff" stroke="#63b8ff" points="200.69,-453.81 211.2,-452.41 202.11,-446.96 200.69,-453.81"/>
</g>
<!-- Node32&#45;&gt;Node30 -->
<g id="edge17" class="edge">
<title>Node32&#45;&gt;Node30</title>
<path fill="none" stroke="#63b8ff" d="M370.55,-424C305.13,-424 210.82,-424 146.22,-424"/>
<polygon fill="#63b8ff" stroke="#63b8ff" points="370.79,-427.5 380.79,-424 370.79,-420.5 370.79,-427.5"/>
</g>
<!-- Node14 -->
<g id="node17" class="node">
<title>Node14</title>
<g id="a_node17"><a xlink:href="structImFontAtlas.html#a81e39e30dffa4dd7e458a53297451e27" target="_top" xlink:title=" ">
<polygon fill="#fff0f0" stroke="red" points="1445.5,-614.5 1339.5,-614.5 1339.5,-595.5 1445.5,-595.5 1445.5,-614.5"/>
<text text-anchor="middle" x="1392.5" y="-602.5" font-family="Helvetica,sans-Serif" font-size="10.00">ImFontAtlas::Build</text>
</a>
</g>
</g>
<!-- Node13&#45;&gt;Node14 -->
<g id="edge19" class="edge">
<title>Node13&#45;&gt;Node14</title>
<path fill="none" stroke="#63b8ff" d="M1528.06,-605C1501.02,-605 1470.77,-605 1445.81,-605"/>
<polygon fill="#63b8ff" stroke="#63b8ff" points="1528.25,-608.5 1538.25,-605 1528.25,-601.5 1528.25,-608.5"/>
</g>
<!-- Node18 -->
<g id="node18" class="node">
<title>Node18</title>
<g id="a_node18"><a xlink:href="namespaceImGui.html#a8344798d82c6baf9d94f81e445609eb2" target="_top" xlink:title=" ">
<polygon fill="#fff0f0" stroke="red" points="1455.5,-577.5 1329.5,-577.5 1329.5,-558.5 1455.5,-558.5 1455.5,-577.5"/>
<text text-anchor="middle" x="1392.5" y="-565.5" font-family="Helvetica,sans-Serif" font-size="10.00">ImGui::GetDefaultFont</text>
</a>
</g>
</g>
<!-- Node13&#45;&gt;Node18 -->
<g id="edge20" class="edge">
<title>Node13&#45;&gt;Node18</title>
<path fill="none" stroke="#63b8ff" d="M1536.51,-593.69C1507.8,-588.53 1474.16,-582.49 1446.73,-577.56"/>
<polygon fill="#63b8ff" stroke="#63b8ff" points="1535.99,-597.15 1546.45,-595.47 1537.23,-590.26 1535.99,-597.15"/>
</g>
<!-- Node23 -->
<g id="node19" class="node">
<title>Node23</title>
<g id="a_node19"><a xlink:href="imgui__draw_8cpp.html#a3f94172dde65426b52f7e137a899afb1" target="_top" xlink:title=" ">
<polygon fill="#fff0f0" stroke="red" points="1474,-651.5 1311,-651.5 1311,-632.5 1474,-632.5 1474,-651.5"/>
<text text-anchor="middle" x="1392.5" y="-639.5" font-family="Helvetica,sans-Serif" font-size="10.00">ImFontAtlasUpdateNewFrame</text>
</a>
</g>
</g>
<!-- Node13&#45;&gt;Node23 -->
<g id="edge21" class="edge">
<title>Node13&#45;&gt;Node23</title>
<path fill="none" stroke="#63b8ff" d="M1536.51,-616.31C1507.8,-621.47 1474.16,-627.51 1446.73,-632.44"/>
<polygon fill="#63b8ff" stroke="#63b8ff" points="1537.23,-619.74 1546.45,-614.53 1535.99,-612.85 1537.23,-619.74"/>
</g>
<!-- Node34 -->
<g id="node21" class="node">
<title>Node34</title>
<g id="a_node21"><a xlink:href="structImFontAtlas.html#a4b2f96a0b67dd06c69547e93ccd4652f" target="_top" xlink:title=" ">
<polygon fill="white" stroke="#666666" points="1679.5,-255.5 1521.5,-255.5 1521.5,-236.5 1679.5,-236.5 1679.5,-255.5"/>
<text text-anchor="middle" x="1600.5" y="-243.5" font-family="Helvetica,sans-Serif" font-size="10.00">ImFontAtlas::GetCustomRect</text>
</a>
</g>
</g>
<!-- Node33&#45;&gt;Node34 -->
<g id="edge23" class="edge">
<title>Node33&#45;&gt;Node34</title>
<path fill="none" stroke="#63b8ff" d="M1748.79,-272.65C1718.66,-267.2 1682.95,-260.74 1654.24,-255.54"/>
<polygon fill="#63b8ff" stroke="#63b8ff" points="1748.32,-276.12 1758.78,-274.46 1749.56,-269.24 1748.32,-276.12"/>
</g>
<!-- Node40 -->
<g id="node29" class="node">
<title>Node40</title>
<g id="a_node29"><a xlink:href="structImFontAtlas.html#a1fd42ec0b657ff4a1447290894c331de" target="_top" xlink:title=" ">
<polygon fill="white" stroke="#666666" points="1691,-293.5 1510,-293.5 1510,-274.5 1691,-274.5 1691,-293.5"/>
<text text-anchor="middle" x="1600.5" y="-281.5" font-family="Helvetica,sans-Serif" font-size="10.00">ImFontAtlas::RemoveCustomRect</text>
</a>
</g>
</g>
<!-- Node33&#45;&gt;Node40 -->
<g id="edge38" class="edge">
<title>Node33&#45;&gt;Node40</title>
<path fill="none" stroke="#63b8ff" d="M1723.2,-284C1712.58,-284 1701.72,-284 1691.08,-284"/>
<polygon fill="#63b8ff" stroke="#63b8ff" points="1723.3,-287.5 1733.3,-284 1723.3,-280.5 1723.3,-287.5"/>
</g>
<!-- Node34&#45;&gt;Node4 -->
<g id="edge24" class="edge">
<title>Node34&#45;&gt;Node4</title>
<path fill="none" stroke="#63b8ff" d="M1689.96,-246C1848.47,-246 2178.4,-246 2329.65,-246"/>
<polygon fill="#63b8ff" stroke="#63b8ff" points="1689.78,-242.5 1679.78,-246 1689.78,-249.5 1689.78,-242.5"/>
</g>
<!-- Node34&#45;&gt;Node5 -->
<g id="edge25" class="edge">
<title>Node34&#45;&gt;Node5</title>
<path fill="none" stroke="#63b8ff" d="M1689.73,-235.58C1702.23,-234.27 1714.93,-233.03 1727,-232 1869.46,-219.8 2035.89,-211.04 2132.09,-206.52"/>
<polygon fill="#63b8ff" stroke="#63b8ff" points="1689.34,-232.1 1679.77,-236.64 1690.08,-239.06 1689.34,-232.1"/>
</g>
<!-- Node34&#45;&gt;Node27 -->
<g id="edge37" class="edge">
<title>Node34&#45;&gt;Node27</title>
<path fill="none" stroke="#63b8ff" d="M1542.54,-257.83C1531.69,-260.33 1520.46,-263.11 1510,-266 1371.23,-304.42 1346.49,-368 1202.5,-368 1202.5,-368 1202.5,-368 1013.5,-368 888.12,-368 741.87,-398.44 673.68,-414.44"/>
<polygon fill="#63b8ff" stroke="#63b8ff" points="1543.39,-261.22 1552.37,-255.6 1541.84,-254.4 1543.39,-261.22"/>
</g>
<!-- Node34&#45;&gt;Node35 -->
<g id="edge26" class="edge">
<title>Node34&#45;&gt;Node35</title>
<path fill="none" stroke="#63b8ff" d="M1533.61,-234.8C1514.35,-231.53 1493.09,-227.92 1473.08,-224.52"/>
<polygon fill="#63b8ff" stroke="#63b8ff" points="1533.04,-238.26 1543.48,-236.48 1534.21,-231.36 1533.04,-238.26"/>
</g>
<!-- Node35&#45;&gt;Node6 -->
<g id="edge27" class="edge">
<title>Node35&#45;&gt;Node6</title>
<path fill="none" stroke="#63b8ff" d="M1413.64,-233.64C1435.04,-255.9 1471.09,-288.57 1510,-303 1590.37,-332.8 1842.51,-329.3 1956.75,-326.01"/>
<polygon fill="#63b8ff" stroke="#63b8ff" points="1416.1,-231.14 1406.71,-226.25 1411,-235.93 1416.1,-231.14"/>
</g>
<!-- Node35&#45;&gt;Node36 -->
<g id="edge28" class="edge">
<title>Node35&#45;&gt;Node36</title>
<path fill="none" stroke="#63b8ff" d="M1358.58,-190.62C1317.39,-165.12 1248.53,-122.5 1217.95,-103.56"/>
<polygon fill="#63b8ff" stroke="#63b8ff" points="1356.83,-193.66 1367.18,-195.94 1360.52,-187.7 1356.83,-193.66"/>
</g>
<!-- Node36&#45;&gt;Node1 -->
<g id="edge35" class="edge">
<title>Node36&#45;&gt;Node1</title>
<path fill="none" stroke="#63b8ff" d="M1253.84,-81.64C1328.79,-59.76 1473.02,-18 1599.5,-18 2595,-18 2595,-18 2595,-18 2702.48,-18 2826.99,-27.55 2901.92,-31.94"/>
<polygon fill="#63b8ff" stroke="#63b8ff" points="1252.79,-78.3 1244.17,-84.46 1254.75,-85.02 1252.79,-78.3"/>
</g>
<!-- Node36&#45;&gt;Node2 -->
<g id="edge36" class="edge">
<title>Node36&#45;&gt;Node2</title>
<path fill="none" stroke="#63b8ff" d="M1274.24,-82.98C1353.6,-71.76 1485.36,-56 1599.5,-56 2410.5,-56 2410.5,-56 2410.5,-56 2509.69,-56 2623.8,-56 2698.98,-56"/>
<polygon fill="#63b8ff" stroke="#63b8ff" points="1273.28,-79.58 1263.87,-84.46 1274.27,-86.51 1273.28,-79.58"/>
</g>
<!-- Node37 -->
<g id="node24" class="node">
<title>Node37</title>
<g id="a_node24"><a xlink:href="imgui__draw_8cpp.html#af11c1114c44b7a339be338065a28412b" target="_top" xlink:title=" ">
<polygon fill="white" stroke="#666666" points="1092,-203.5 937,-203.5 937,-184.5 1092,-184.5 1092,-203.5"/>
<text text-anchor="middle" x="1014.5" y="-191.5" font-family="Helvetica,sans-Serif" font-size="10.00">ImFontAtlasTextureCompact</text>
</a>
</g>
</g>
<!-- Node36&#45;&gt;Node37 -->
<g id="edge29" class="edge">
<title>Node36&#45;&gt;Node37</title>
<path fill="none" stroke="#63b8ff" d="M1173.72,-108.48C1135.34,-129.22 1065.74,-166.84 1033.18,-184.44"/>
<polygon fill="#63b8ff" stroke="#63b8ff" points="1175.63,-111.42 1182.76,-103.59 1172.3,-105.26 1175.63,-111.42"/>
</g>
<!-- Node38 -->
<g id="node25" class="node">
<title>Node38</title>
<g id="a_node25"><a xlink:href="structImFontAtlas.html#a617f379b512d62e83a395516a555f3c5" target="_top" xlink:title=" ">
<polygon fill="white" stroke="#666666" points="901,-322.5 746,-322.5 746,-303.5 901,-303.5 901,-322.5"/>
<text text-anchor="middle" x="823.5" y="-310.5" font-family="Helvetica,sans-Serif" font-size="10.00">ImFontAtlas::CompactCache</text>
</a>
</g>
</g>
<!-- Node37&#45;&gt;Node38 -->
<g id="edge30" class="edge">
<title>Node37&#45;&gt;Node38</title>
<path fill="none" stroke="#63b8ff" d="M989.65,-209.02C950.22,-233.84 872.55,-282.75 839.72,-303.42"/>
<polygon fill="#63b8ff" stroke="#63b8ff" points="991.76,-211.83 998.35,-203.54 988.03,-205.9 991.76,-211.83"/>
</g>
<!-- Node38&#45;&gt;Node27 -->
<g id="edge34" class="edge">
<title>Node38&#45;&gt;Node27</title>
<path fill="none" stroke="#63b8ff" d="M794.7,-327.29C780.07,-334.97 761.92,-344.73 746,-354 710.76,-374.52 670.53,-400.57 649.52,-414.38"/>
<polygon fill="#63b8ff" stroke="#63b8ff" points="796.5,-330.3 803.75,-322.58 793.26,-324.1 796.5,-330.3"/>
</g>
<!-- Node39 -->
<g id="node26" class="node">
<title>Node39</title>
<g id="a_node26"><a xlink:href="namespaceImGui.html#aab0d052a1581fddc1cc2d9d981f487c0" target="_top" xlink:title=" ">
<polygon fill="white" stroke="#666666" points="710,-328 558,-328 558,-298 710,-298 710,-328"/>
<text text-anchor="start" x="566" y="-316" font-family="Helvetica,sans-Serif" font-size="10.00">ImGui::GcCompactTransient</text>
<text text-anchor="middle" x="634" y="-305" font-family="Helvetica,sans-Serif" font-size="10.00">MiscBuffers</text>
</a>
</g>
</g>
<!-- Node38&#45;&gt;Node39 -->
<g id="edge31" class="edge">
<title>Node38&#45;&gt;Node39</title>
<path fill="none" stroke="#63b8ff" d="M735.9,-313C727.27,-313 718.57,-313 710.08,-313"/>
<polygon fill="#63b8ff" stroke="#63b8ff" points="735.97,-316.5 745.97,-313 735.97,-309.5 735.97,-316.5"/>
</g>
<!-- Node20 -->
<g id="node27" class="node">
<title>Node20</title>
<g id="a_node27"><a xlink:href="namespaceImGui.html#ab3f1fc018f903b7ad79fd10663375774" target="_top" xlink:title=" ">
<polygon fill="white" stroke="#666666" points="498.5,-322.5 394.5,-322.5 394.5,-303.5 498.5,-303.5 498.5,-322.5"/>
<text text-anchor="middle" x="446.5" y="-310.5" font-family="Helvetica,sans-Serif" font-size="10.00">ImGui::NewFrame</text>
</a>
</g>
</g>
<!-- Node39&#45;&gt;Node20 -->
<g id="edge32" class="edge">
<title>Node39&#45;&gt;Node20</title>
<path fill="none" stroke="#63b8ff" d="M547.48,-313C530.79,-313 513.79,-313 498.65,-313"/>
<polygon fill="#63b8ff" stroke="#63b8ff" points="547.82,-316.5 557.82,-313 547.82,-309.5 547.82,-316.5"/>
</g>
<!-- Node21 -->
<g id="node28" class="node">
<title>Node21</title>
<g id="a_node28"><a xlink:href="classmtgb_1_1ImGuiRenderer.html#a4684d4374beee1f52053b4634edae2c8" target="_top" xlink:title=" ">
<polygon fill="#fff0f0" stroke="red" points="319.5,-328 197.5,-328 197.5,-298 319.5,-298 319.5,-328"/>
<text text-anchor="start" x="205.5" y="-316" font-family="Helvetica,sans-Serif" font-size="10.00">mtgb::ImGuiRenderer</text>
<text text-anchor="middle" x="258.5" y="-305" font-family="Helvetica,sans-Serif" font-size="10.00">::BeginFrame</text>
</a>
</g>
</g>
<!-- Node20&#45;&gt;Node21 -->
<g id="edge33" class="edge">
<title>Node20&#45;&gt;Node21</title>
<path fill="none" stroke="#63b8ff" d="M383.91,-313C363.2,-313 340.13,-313 319.54,-313"/>
<polygon fill="#63b8ff" stroke="#63b8ff" points="384.18,-316.5 394.18,-313 384.18,-309.5 384.18,-316.5"/>
</g>
<!-- Node42 -->
<g id="node31" class="node">
<title>Node42</title>
<g id="a_node31"><a xlink:href="structImFontAtlas.html#ab5427b1134dc2d82fefb4595054f1a04" target="_top" xlink:title=" ">
<polygon fill="white" stroke="#666666" points="1680,-950 1521,-950 1521,-920 1680,-920 1680,-950"/>
<text text-anchor="start" x="1529" y="-938" font-family="Helvetica,sans-Serif" font-size="10.00">ImFontAtlas::AddCustomRect</text>
<text text-anchor="middle" x="1600.5" y="-927" font-family="Helvetica,sans-Serif" font-size="10.00">FontGlyph</text>
</a>
</g>
</g>
<!-- Node41&#45;&gt;Node42 -->
<g id="edge42" class="edge">
<title>Node41&#45;&gt;Node42</title>
<path fill="none" stroke="#63b8ff" d="M1722.51,-935C1708.4,-935 1693.89,-935 1680.04,-935"/>
<polygon fill="#63b8ff" stroke="#63b8ff" points="1722.71,-938.5 1732.71,-935 1722.71,-931.5 1722.71,-938.5"/>
</g>
<!-- Node44 -->
<g id="node33" class="node">
<title>Node44</title>
<g id="a_node33"><a xlink:href="imgui__draw_8cpp.html#af0ee06cd161ca9d371b6466b8a145db9" target="_top" xlink:title=" ">
<polygon fill="white" stroke="#666666" points="2294,-577.5 2132,-577.5 2132,-558.5 2294,-558.5 2294,-577.5"/>
<text text-anchor="middle" x="2213" y="-565.5" font-family="Helvetica,sans-Serif" font-size="10.00">ImFontBaked_BuildLoadGlyph</text>
</a>
</g>
</g>
<!-- Node43&#45;&gt;Node44 -->
<g id="edge44" class="edge">
<title>Node43&#45;&gt;Node44</title>
<path fill="none" stroke="#63b8ff" d="M2330.6,-542.22C2305.54,-547.76 2278.68,-553.7 2257.07,-558.48"/>
<polygon fill="#63b8ff" stroke="#63b8ff" points="2331.46,-545.62 2340.47,-540.04 2329.95,-538.78 2331.46,-545.62"/>
</g>
<!-- Node45 -->
<g id="node34" class="node">
<title>Node45</title>
<g id="a_node34"><a xlink:href="structImFontBaked.html#a785a4f3372cd8258f17ede065ee3cbad" target="_top" xlink:title=" ">
<polygon fill="white" stroke="#666666" points="2082.5,-807.5 1947.5,-807.5 1947.5,-788.5 2082.5,-788.5 2082.5,-807.5"/>
<text text-anchor="middle" x="2015" y="-795.5" font-family="Helvetica,sans-Serif" font-size="10.00">ImFontBaked::FindGlyph</text>
</a>
</g>
</g>
<!-- Node44&#45;&gt;Node45 -->
<g id="edge45" class="edge">
<title>Node44&#45;&gt;Node45</title>
<path fill="none" stroke="#63b8ff" d="M2197.15,-585.42C2158.23,-631.09 2054.21,-753.16 2024.21,-788.37"/>
<polygon fill="#63b8ff" stroke="#63b8ff" points="2200.01,-587.47 2203.83,-577.59 2194.68,-582.93 2200.01,-587.47"/>
</g>
<!-- Node370 -->
<g id="node43" class="node">
<title>Node370</title>
<g id="a_node43"><a xlink:href="structImFontBaked.html#a3669f0bfbacc00ac7d4982c07f40824b" target="_top" xlink:title=" ">
<polygon fill="white" stroke="#666666" points="2089.5,-540 1940.5,-540 1940.5,-510 2089.5,-510 2089.5,-540"/>
<text text-anchor="start" x="1948.5" y="-528" font-family="Helvetica,sans-Serif" font-size="10.00">ImFontBaked::FindGlyphNo</text>
<text text-anchor="middle" x="2015" y="-517" font-family="Helvetica,sans-Serif" font-size="10.00">Fallback</text>
</a>
</g>
</g>
<!-- Node44&#45;&gt;Node370 -->
<g id="edge59" class="edge">
<title>Node44&#45;&gt;Node370</title>
<path fill="none" stroke="#63b8ff" d="M2158.63,-556.29C2135.75,-551.27 2108.73,-545.34 2084.4,-540.01"/>
<polygon fill="#63b8ff" stroke="#63b8ff" points="2157.98,-559.73 2168.5,-558.46 2159.48,-552.9 2157.98,-559.73"/>
</g>
<!-- Node441 -->
<g id="node46" class="node">
<title>Node441</title>
<g id="a_node46"><a xlink:href="imgui__draw_8cpp.html#a5f7fb7564b9bf19c317ce8572d815c80" target="_top" xlink:title=" ">
<polygon fill="white" stroke="#666666" points="2096,-628 1934,-628 1934,-598 2096,-598 2096,-628"/>
<text text-anchor="start" x="1942" y="-616" font-family="Helvetica,sans-Serif" font-size="10.00">ImFontBaked_BuildLoadGlyph</text>
<text text-anchor="middle" x="2015" y="-605" font-family="Helvetica,sans-Serif" font-size="10.00">AdvanceX</text>
</a>
</g>
</g>
<!-- Node44&#45;&gt;Node441 -->
<g id="edge64" class="edge">
<title>Node44&#45;&gt;Node441</title>
<path fill="none" stroke="#63b8ff" d="M2160.39,-579.85C2136.21,-585.4 2107.13,-592.08 2081.42,-597.98"/>
<polygon fill="#63b8ff" stroke="#63b8ff" points="2161.47,-583.19 2170.43,-577.54 2159.9,-576.37 2161.47,-583.19"/>
</g>
<!-- Node45&#45;&gt;Node41 -->
<g id="edge46" class="edge">
<title>Node45&#45;&gt;Node41</title>
<path fill="none" stroke="#63b8ff" d="M1991.72,-813.83C1975.07,-826.13 1952.14,-844.06 1934,-862 1916.04,-879.77 1918.74,-891.57 1898,-906 1889.98,-911.58 1880.79,-916.17 1871.49,-919.92"/>
<polygon fill="#63b8ff" stroke="#63b8ff" points="1994.24,-816.33 2000.26,-807.62 1990.12,-810.67 1994.24,-816.33"/>
</g>
<!-- Node46 -->
<g id="node35" class="node">
<title>Node46</title>
<g id="a_node35"><a xlink:href="namespaceImGui.html#ae0207d60728f7e6a47dbcd1d7d84e3cb" target="_top" xlink:title=" ">
<polygon fill="white" stroke="#666666" points="1457.5,-788.5 1327.5,-788.5 1327.5,-769.5 1457.5,-769.5 1457.5,-788.5"/>
<text text-anchor="middle" x="1392.5" y="-776.5" font-family="Helvetica,sans-Serif" font-size="10.00">ImGui::DebugNodeFont</text>
</a>
</g>
</g>
<!-- Node45&#45;&gt;Node46 -->
<g id="edge47" class="edge">
<title>Node45&#45;&gt;Node46</title>
<path fill="none" stroke="#63b8ff" d="M1937.17,-795.65C1813.64,-791.86 1573.11,-784.5 1457.96,-780.97"/>
<polygon fill="#63b8ff" stroke="#63b8ff" points="1937.2,-799.15 1947.3,-795.96 1937.41,-792.15 1937.2,-799.15"/>
</g>
<!-- Node47 -->
<g id="node36" class="node">
<title>Node47</title>
<g id="a_node36"><a xlink:href="namespaceImGui.html#abd7a4ef76bea8c2936225852896e49d8" target="_top" xlink:title=" ">
<polygon fill="white" stroke="#666666" points="1685.5,-869 1515.5,-869 1515.5,-839 1685.5,-839 1685.5,-869"/>
<text text-anchor="start" x="1523.5" y="-857" font-family="Helvetica,sans-Serif" font-size="10.00">ImGui::DebugNodeFontGlyphes</text>
<text text-anchor="middle" x="1600.5" y="-846" font-family="Helvetica,sans-Serif" font-size="10.00">ForSrcMask</text>
</a>
</g>
</g>
<!-- Node45&#45;&gt;Node47 -->
<g id="edge49" class="edge">
<title>Node45&#45;&gt;Node47</title>
<path fill="none" stroke="#63b8ff" d="M1996.24,-814.25C1974.8,-832.65 1936.78,-861.55 1898,-873 1817.24,-896.83 1718.91,-882.54 1658.25,-869.06"/>
<polygon fill="#63b8ff" stroke="#63b8ff" points="1998.66,-816.78 2003.86,-807.54 1994.04,-811.52 1998.66,-816.78"/>
</g>
<!-- Node48 -->
<g id="node37" class="node">
<title>Node48</title>
<g id="a_node37"><a xlink:href="imgui__draw_8cpp.html#abd1950f96c48e04b73b586942c94918d" target="_top" xlink:title=" ">
<polygon fill="white" stroke="#666666" points="1898,-676 1727,-676 1727,-646 1898,-646 1898,-676"/>
<text text-anchor="start" x="1735" y="-664" font-family="Helvetica,sans-Serif" font-size="10.00">ImFontAtlasBuildLegacyPreload</text>
<text text-anchor="middle" x="1812.5" y="-653" font-family="Helvetica,sans-Serif" font-size="10.00">AllGlyphRanges</text>
</a>
</g>
</g>
<!-- Node45&#45;&gt;Node48 -->
<g id="edge51" class="edge">
<title>Node45&#45;&gt;Node48</title>
<path fill="none" stroke="#63b8ff" d="M2000.29,-780.18C1980.37,-755.5 1941.08,-711.11 1898,-686 1891.39,-682.15 1884.14,-678.85 1876.75,-676.03"/>
<polygon fill="#63b8ff" stroke="#63b8ff" points="1997.77,-782.64 2006.72,-788.31 2003.26,-778.3 1997.77,-782.64"/>
</g>
<!-- Node49 -->
<g id="node38" class="node">
<title>Node49</title>
<g id="a_node38"><a xlink:href="namespaceImGui.html#abdca45672ba94976573c531804e76300" target="_top" xlink:title=" ">
<polygon fill="white" stroke="#666666" points="1883.5,-750.5 1741.5,-750.5 1741.5,-731.5 1883.5,-731.5 1883.5,-750.5"/>
<text text-anchor="middle" x="1812.5" y="-738.5" font-family="Helvetica,sans-Serif" font-size="10.00">ImGui::PushPasswordFont</text>
</a>
</g>
</g>
<!-- Node45&#45;&gt;Node49 -->
<g id="edge53" class="edge">
<title>Node45&#45;&gt;Node49</title>
<path fill="none" stroke="#63b8ff" d="M1970.85,-785.72C1949.02,-779.51 1922.1,-771.85 1898,-765 1881.28,-760.25 1862.69,-754.97 1847.22,-750.57"/>
<polygon fill="#63b8ff" stroke="#63b8ff" points="1969.92,-789.09 1980.5,-788.47 1971.84,-782.36 1969.92,-789.09"/>
</g>
<!-- Node158 -->
<g id="node40" class="node">
<title>Node158</title>
<g id="a_node40"><a xlink:href="structImFont.html#a8035b4eee654c1f1799ae435337936d7" target="_top" xlink:title=" ">
<polygon fill="white" stroke="#666666" points="1869,-863.5 1756,-863.5 1756,-844.5 1869,-844.5 1869,-863.5"/>
<text text-anchor="middle" x="1812.5" y="-851.5" font-family="Helvetica,sans-Serif" font-size="10.00">ImFont::RenderChar</text>
</a>
</g>
</g>
<!-- Node45&#45;&gt;Node158 -->
<g id="edge55" class="edge">
<title>Node45&#45;&gt;Node158</title>
<path fill="none" stroke="#63b8ff" d="M1977.94,-810.91C1955.19,-818.79 1925.09,-828.7 1898,-836 1886.7,-839.04 1874.45,-841.9 1862.86,-844.41"/>
<polygon fill="#63b8ff" stroke="#63b8ff" points="1979.23,-814.17 1987.52,-807.57 1976.93,-807.56 1979.23,-814.17"/>
</g>
<!-- Node368 -->
<g id="node42" class="node">
<title>Node368</title>
<g id="a_node42"><a xlink:href="structImFont.html#ad1c164345a384e750e8dc50c28467765" target="_top" xlink:title=" ">
<polygon fill="#fff0f0" stroke="red" points="1868,-826.5 1757,-826.5 1757,-807.5 1868,-807.5 1868,-826.5"/>
<text text-anchor="middle" x="1812.5" y="-814.5" font-family="Helvetica,sans-Serif" font-size="10.00">ImFont::RenderText</text>
</a>
</g>
</g>
<!-- Node45&#45;&gt;Node368 -->
<g id="edge58" class="edge">
<title>Node45&#45;&gt;Node368</title>
<path fill="none" stroke="#63b8ff" d="M1937.18,-805.28C1914.22,-807.46 1889.53,-809.8 1868.29,-811.81"/>
<polygon fill="#63b8ff" stroke="#63b8ff" points="1937.61,-808.75 1947.24,-804.33 1936.95,-801.79 1937.61,-808.75"/>
</g>
<!-- Node46&#45;&gt;Node27 -->
<g id="edge48" class="edge">
<title>Node46&#45;&gt;Node27</title>
<path fill="none" stroke="#63b8ff" d="M1358.48,-765.49C1262.46,-725.9 975.58,-605.57 746,-488 711.15,-470.16 671.76,-446.6 650.54,-433.62"/>
<polygon fill="#63b8ff" stroke="#63b8ff" points="1357.37,-768.81 1367.95,-769.38 1360.03,-762.34 1357.37,-768.81"/>
</g>
<!-- Node47&#45;&gt;Node46 -->
<g id="edge50" class="edge">
<title>Node47&#45;&gt;Node46</title>
<path fill="none" stroke="#63b8ff" d="M1548.3,-835.36C1507.51,-820.51 1452.05,-800.32 1419.78,-788.57"/>
<polygon fill="#63b8ff" stroke="#63b8ff" points="1547.22,-838.69 1557.81,-838.82 1549.61,-832.11 1547.22,-838.69"/>
</g>
<!-- Node48&#45;&gt;Node13 -->
<g id="edge52" class="edge">
<title>Node48&#45;&gt;Node13</title>
<path fill="none" stroke="#63b8ff" d="M1745.33,-643.35C1709.51,-633.8 1666.68,-622.38 1637.13,-614.5"/>
<polygon fill="#63b8ff" stroke="#63b8ff" points="1744.66,-646.8 1755.22,-645.99 1746.46,-640.03 1744.66,-646.8"/>
</g>
<!-- Node50 -->
<g id="node39" class="node">
<title>Node50</title>
<g id="a_node39"><a xlink:href="namespaceImGui.html#af89af17ecc11653f25fea1e50e195de6" target="_top" xlink:title=" ">
<polygon fill="#fff0f0" stroke="red" points="1655,-713.5 1546,-713.5 1546,-694.5 1655,-694.5 1655,-713.5"/>
<text text-anchor="middle" x="1600.5" y="-701.5" font-family="Helvetica,sans-Serif" font-size="10.00">ImGui::InputTextEx</text>
</a>
</g>
</g>
<!-- Node49&#45;&gt;Node50 -->
<g id="edge54" class="edge">
<title>Node49&#45;&gt;Node50</title>
<path fill="none" stroke="#63b8ff" d="M1747.21,-729.67C1717.7,-724.47 1683.1,-718.38 1655.03,-713.43"/>
<polygon fill="#63b8ff" stroke="#63b8ff" points="1746.96,-733.18 1757.42,-731.47 1748.18,-726.29 1746.96,-733.18"/>
</g>
<!-- Node158&#45;&gt;Node47 -->
<g id="edge56" class="edge">
<title>Node158&#45;&gt;Node47</title>
<path fill="none" stroke="#63b8ff" d="M1745.72,-854C1726.66,-854 1705.6,-854 1685.59,-854"/>
<polygon fill="#63b8ff" stroke="#63b8ff" points="1745.78,-857.5 1755.78,-854 1745.78,-850.5 1745.78,-857.5"/>
</g>
<!-- Node159 -->
<g id="node41" class="node">
<title>Node159</title>
<g id="a_node41"><a xlink:href="namespaceImGui.html#a78e79a68e7bf104b106016ea0c4293ce" target="_top" xlink:title=" ">
<polygon fill="#fff0f0" stroke="red" points="1671,-750.5 1530,-750.5 1530,-731.5 1671,-731.5 1671,-750.5"/>
<text text-anchor="middle" x="1600.5" y="-738.5" font-family="Helvetica,sans-Serif" font-size="10.00">ImGui::RenderTextEllipsis</text>
</a>
</g>
</g>
<!-- Node158&#45;&gt;Node159 -->
<g id="edge57" class="edge">
<title>Node158&#45;&gt;Node159</title>
<path fill="none" stroke="#63b8ff" d="M1746.13,-843.11C1739.54,-841.11 1733.05,-838.77 1727,-836 1678.29,-813.73 1630.6,-769.87 1610.92,-750.54"/>
<polygon fill="#63b8ff" stroke="#63b8ff" points="1745.26,-846.5 1755.83,-845.78 1747.12,-839.75 1745.26,-846.5"/>
</g>
<!-- Node370&#45;&gt;Node43 -->
<g id="edge61" class="edge">
<title>Node370&#45;&gt;Node43</title>
<path fill="none" stroke="#63b8ff" d="M2099.9,-525C2169.63,-525 2267.9,-525 2334.67,-525"/>
<polygon fill="#63b8ff" stroke="#63b8ff" points="2099.83,-521.5 2089.83,-525 2099.83,-528.5 2099.83,-521.5"/>
</g>
<!-- Node371 -->
<g id="node44" class="node">
<title>Node371</title>
<g id="a_node44"><a xlink:href="imgui__draw_8cpp.html#a8aeb6dc7169490b357dbd3cf2c5eca66" target="_top" xlink:title=" ">
<polygon fill="#fff0f0" stroke="red" points="1887,-532 1738,-532 1738,-502 1887,-502 1887,-532"/>
<text text-anchor="start" x="1746" y="-520" font-family="Helvetica,sans-Serif" font-size="10.00">ImFontAtlasBuildSetupFont</text>
<text text-anchor="middle" x="1812.5" y="-509" font-family="Helvetica,sans-Serif" font-size="10.00">BakedBlanks</text>
</a>
</g>
</g>
<!-- Node370&#45;&gt;Node371 -->
<g id="edge60" class="edge">
<title>Node370&#45;&gt;Node371</title>
<path fill="none" stroke="#63b8ff" d="M1930.15,-521.65C1915.82,-521.08 1901.04,-520.49 1887.01,-519.93"/>
<polygon fill="#63b8ff" stroke="#63b8ff" points="1930.35,-525.16 1940.48,-522.07 1930.63,-518.17 1930.35,-525.16"/>
</g>
<!-- Node440 -->
<g id="node45" class="node">
<title>Node440</title>
<g id="a_node45"><a xlink:href="imgui__draw_8cpp.html#a79103c2a11500b322b2be7b77cb061a0" target="_top" xlink:title=" ">
<polygon fill="white" stroke="#666666" points="1887,-580 1738,-580 1738,-550 1887,-550 1887,-580"/>
<text text-anchor="start" x="1746" y="-568" font-family="Helvetica,sans-Serif" font-size="10.00">ImFontAtlasBuildSetupFont</text>
<text text-anchor="middle" x="1812.5" y="-557" font-family="Helvetica,sans-Serif" font-size="10.00">BakedFallback</text>
</a>
</g>
</g>
<!-- Node370&#45;&gt;Node440 -->
<g id="edge62" class="edge">
<title>Node370&#45;&gt;Node440</title>
<path fill="none" stroke="#63b8ff" d="M1930.57,-541.65C1916.11,-544.53 1901.18,-547.51 1887.01,-550.33"/>
<polygon fill="#63b8ff" stroke="#63b8ff" points="1931.36,-545.06 1940.48,-539.67 1929.99,-538.19 1931.36,-545.06"/>
</g>
<!-- Node440&#45;&gt;Node44 -->
<g id="edge63" class="edge">
<title>Node440&#45;&gt;Node44</title>
<path fill="none" stroke="#63b8ff" d="M1897.56,-565.63C1966.64,-566.15 2063.85,-566.88 2131.84,-567.4"/>
<polygon fill="#63b8ff" stroke="#63b8ff" points="1897.18,-562.13 1887.15,-565.55 1897.12,-569.13 1897.18,-562.13"/>
</g>
<!-- Node442 -->
<g id="node47" class="node">
<title>Node442</title>
<g id="a_node47"><a xlink:href="imgui__draw_8cpp.html#a367aea34d85d56f9b58e5fb32f666c8c" target="_top" xlink:title=" ">
<polygon fill="#fff0f0" stroke="red" points="1888.5,-628 1736.5,-628 1736.5,-598 1888.5,-598 1888.5,-628"/>
<text text-anchor="start" x="1744.5" y="-616" font-family="Helvetica,sans-Serif" font-size="10.00">BuildLoadGlyphGetAdvance</text>
<text text-anchor="middle" x="1812.5" y="-605" font-family="Helvetica,sans-Serif" font-size="10.00">OrFallback</text>
</a>
</g>
</g>
<!-- Node441&#45;&gt;Node442 -->
<g id="edge65" class="edge">
<title>Node441&#45;&gt;Node442</title>
<path fill="none" stroke="#63b8ff" d="M1923.66,-613C1911.94,-613 1900.03,-613 1888.6,-613"/>
<polygon fill="#63b8ff" stroke="#63b8ff" points="1923.89,-616.5 1933.89,-613 1923.89,-609.5 1923.89,-616.5"/>
</g>
<!-- Node443 -->
<g id="node48" class="node">
<title>Node443</title>
<g id="a_node48"><a xlink:href="structImFontBaked.html#a4aa1c5f921bd4c0c90458b8613f6a51c" target="_top" xlink:title=" ">
<polygon fill="#fff0f0" stroke="red" points="1896.5,-713.5 1728.5,-713.5 1728.5,-694.5 1896.5,-694.5 1896.5,-713.5"/>
<text text-anchor="middle" x="1812.5" y="-701.5" font-family="Helvetica,sans-Serif" font-size="10.00">ImFontBaked::GetCharAdvance</text>
</a>
</g>
</g>
<!-- Node441&#45;&gt;Node443 -->
<g id="edge66" class="edge">
<title>Node441&#45;&gt;Node443</title>
<path fill="none" stroke="#63b8ff" d="M1986.04,-634.1C1963.4,-650.23 1930.1,-671.87 1898,-685 1888.68,-688.81 1878.44,-691.93 1868.42,-694.46"/>
<polygon fill="#63b8ff" stroke="#63b8ff" points="1988.12,-636.91 1994.17,-628.21 1984.02,-631.24 1988.12,-636.91"/>
</g>
<!-- Node443&#45;&gt;Node50 -->
<g id="edge67" class="edge">
<title>Node443&#45;&gt;Node50</title>
<path fill="none" stroke="#63b8ff" d="M1718.02,-704C1696.47,-704 1674.26,-704 1655.09,-704"/>
<polygon fill="#63b8ff" stroke="#63b8ff" points="1718.2,-707.5 1728.2,-704 1718.2,-700.5 1718.2,-707.5"/>
</g>
<!-- Node443&#45;&gt;Node159 -->
<g id="edge68" class="edge">
<title>Node443&#45;&gt;Node159</title>
<path fill="none" stroke="#63b8ff" d="M1747.29,-715.31C1718.01,-720.47 1683.73,-726.51 1655.76,-731.44"/>
<polygon fill="#63b8ff" stroke="#63b8ff" points="1748.18,-718.71 1757.42,-713.53 1746.96,-711.82 1748.18,-718.71"/>
</g>
<!-- Node448 -->
<g id="node50" class="node">
<title>Node448</title>
<g id="a_node50"><a xlink:href="imgui__draw_8cpp.html#a2445ec6272ab6f7597ad4012e178a5d6" target="_top" xlink:title=" ">
<polygon fill="white" stroke="#666666" points="2286,-342 2140,-342 2140,-312 2286,-312 2286,-342"/>
<text text-anchor="start" x="2148" y="-330" font-family="Helvetica,sans-Serif" font-size="10.00">ImFontAtlasGetFontLoader</text>
<text text-anchor="middle" x="2213" y="-319" font-family="Helvetica,sans-Serif" font-size="10.00">ForStbTruetype</text>
</a>
</g>
</g>
<!-- Node447&#45;&gt;Node448 -->
<g id="edge71" class="edge">
<title>Node447&#45;&gt;Node448</title>
<path fill="none" stroke="#63b8ff" d="M2333.63,-315.31C2318.06,-316.84 2301.67,-318.44 2286.19,-319.95"/>
<polygon fill="#63b8ff" stroke="#63b8ff" points="2334.12,-318.78 2343.73,-314.33 2333.44,-311.82 2334.12,-318.78"/>
</g>
<!-- Node448&#45;&gt;Node6 -->
<g id="edge72" class="edge">
<title>Node448&#45;&gt;Node6</title>
<path fill="none" stroke="#63b8ff" d="M2129.71,-325.74C2110.73,-325.45 2090.94,-325.15 2073.29,-324.88"/>
<polygon fill="#63b8ff" stroke="#63b8ff" points="2129.8,-329.24 2139.85,-325.9 2129.91,-322.24 2129.8,-329.24"/>
</g>
<!-- Node448&#45;&gt;Node27 -->
<g id="edge73" class="edge">
<title>Node448&#45;&gt;Node27</title>
<path fill="none" stroke="#63b8ff" d="M2180.2,-347.57C2114.51,-388.01 1957.88,-474 1813.5,-474 1813.5,-474 1813.5,-474 1013.5,-474 891.21,-474 748.59,-448.03 678.47,-433.52"/>
<polygon fill="#63b8ff" stroke="#63b8ff" points="2182.22,-350.44 2188.85,-342.18 2178.51,-344.49 2182.22,-350.44"/>
</g>
</g>
</svg>
