<?xml version="1.0" encoding="UTF-8" standalone="no"?>
<!DOCTYPE svg PUBLIC "-//W3C//DTD SVG 1.1//EN"
 "http://www.w3.org/Graphics/SVG/1.1/DTD/svg11.dtd">
<!-- Generated by graphviz version 2.43.0 (0)
 -->
<!-- Title: ShowExampleAppAutoResize Pages: 1 -->
<svg width="845pt" height="1794pt"
 viewBox="0.00 0.00 845.00 1794.19" xmlns="http://www.w3.org/2000/svg" xmlns:xlink="http://www.w3.org/1999/xlink">
<g id="graph0" class="graph" transform="scale(1 1) rotate(0) translate(4 1790.19)">
<title>ShowExampleAppAutoResize</title>
<!-- Node1 -->
<g id="node1" class="node">
<title>Node1</title>
<g id="a_node1"><a xlink:title=" ">
<polygon fill="#999999" stroke="#666666" points="159,-872 0,-872 0,-853 159,-853 159,-872"/>
<text text-anchor="middle" x="79.5" y="-860" font-family="Helvetica,sans-Serif" font-size="10.00">ShowExampleAppAutoResize</text>
</a>
</g>
</g>
<!-- Node2 -->
<g id="node2" class="node">
<title>Node2</title>
<g id="a_node2"><a xlink:href="namespaceImGui.html#a581e58db0bc930bafa4a5d23093a2b99" target="_top" xlink:title=" ">
<polygon fill="#fff0f0" stroke="red" points="302,-909 222,-909 222,-890 302,-890 302,-909"/>
<text text-anchor="middle" x="262" y="-897" font-family="Helvetica,sans-Serif" font-size="10.00">ImGui::Begin</text>
</a>
</g>
</g>
<!-- Node1&#45;&gt;Node2 -->
<g id="edge1" class="edge">
<title>Node1&#45;&gt;Node2</title>
<path fill="none" stroke="#63b8ff" d="M126.98,-872.03C153.1,-877.38 185.68,-884.06 212.17,-889.49"/>
<polygon fill="#63b8ff" stroke="#63b8ff" points="211.5,-892.93 222,-891.51 212.9,-886.07 211.5,-892.93"/>
</g>
<!-- Node496 -->
<g id="node47" class="node">
<title>Node496</title>
<g id="a_node47"><a xlink:href="namespaceImGui.html#a5479d93794a004c67ceb6d13f37c8254" target="_top" xlink:title=" ">
<polygon fill="#fff0f0" stroke="red" points="297,-1364 227,-1364 227,-1345 297,-1345 297,-1364"/>
<text text-anchor="middle" x="262" y="-1352" font-family="Helvetica,sans-Serif" font-size="10.00">ImGui::End</text>
</a>
</g>
</g>
<!-- Node1&#45;&gt;Node496 -->
<g id="edge59" class="edge">
<title>Node1&#45;&gt;Node496</title>
<path fill="none" stroke="#63b8ff" d="M84.11,-872.33C106.24,-932.66 223.77,-1253.02 253.94,-1335.25"/>
<polygon fill="#63b8ff" stroke="#63b8ff" points="250.66,-1336.47 257.39,-1344.65 257.23,-1334.06 250.66,-1336.47"/>
</g>
<!-- Node645 -->
<g id="node48" class="node">
<title>Node645</title>
<g id="a_node48"><a xlink:href="namespaceImGui.html#a580128c9b35d1a9fc5b7a057f6f5464a" target="_top" xlink:title=" ">
<polygon fill="#fff0f0" stroke="red" points="308,-872 216,-872 216,-853 308,-853 308,-872"/>
<text text-anchor="middle" x="262" y="-860" font-family="Helvetica,sans-Serif" font-size="10.00">ImGui::SliderInt</text>
</a>
</g>
</g>
<!-- Node1&#45;&gt;Node645 -->
<g id="edge61" class="edge">
<title>Node1&#45;&gt;Node645</title>
<path fill="none" stroke="#63b8ff" d="M159.14,-862.5C174.74,-862.5 190.81,-862.5 205.44,-862.5"/>
<polygon fill="#63b8ff" stroke="#63b8ff" points="205.81,-866 215.81,-862.5 205.81,-859 205.81,-866"/>
</g>
<!-- Node694 -->
<g id="node49" class="node">
<title>Node694</title>
<g id="a_node49"><a xlink:href="namespaceImGui.html#a9e7b83611fe441d54fad2effb4bf4965" target="_top" xlink:title=" ">
<polygon fill="#fff0f0" stroke="red" points="298,-835 226,-835 226,-816 298,-816 298,-835"/>
<text text-anchor="middle" x="262" y="-823" font-family="Helvetica,sans-Serif" font-size="10.00">ImGui::Text</text>
</a>
</g>
</g>
<!-- Node1&#45;&gt;Node694 -->
<g id="edge62" class="edge">
<title>Node1&#45;&gt;Node694</title>
<path fill="none" stroke="#63b8ff" d="M126.98,-852.97C154.31,-847.37 188.69,-840.32 215.79,-834.77"/>
<polygon fill="#63b8ff" stroke="#63b8ff" points="216.7,-838.15 225.79,-832.72 215.29,-831.3 216.7,-838.15"/>
</g>
<!-- Node695 -->
<g id="node50" class="node">
<title>Node695</title>
<g id="a_node50"><a xlink:href="namespaceImGui.html#a96a5f42789ecc419b2ae8af7b2acc28e" target="_top" xlink:title=" ">
<polygon fill="#fff0f0" stroke="red" points="329,-798 195,-798 195,-779 329,-779 329,-798"/>
<text text-anchor="middle" x="262" y="-786" font-family="Helvetica,sans-Serif" font-size="10.00">ImGui::TextUnformatted</text>
</a>
</g>
</g>
<!-- Node1&#45;&gt;Node695 -->
<g id="edge63" class="edge">
<title>Node1&#45;&gt;Node695</title>
<path fill="none" stroke="#63b8ff" d="M97.51,-852.92C119.48,-840.83 159.18,-820.01 195,-806.5 200.21,-804.54 205.72,-802.69 211.26,-800.98"/>
<polygon fill="#63b8ff" stroke="#63b8ff" points="212.57,-804.24 221.17,-798.06 210.59,-797.53 212.57,-804.24"/>
</g>
<!-- Node3 -->
<g id="node3" class="node">
<title>Node3</title>
<g id="a_node3"><a xlink:href="structImDrawList.html#a5f78fe195b2507e5926560f591141ff3" target="_top" xlink:title=" ">
<polygon fill="#fff0f0" stroke="red" points="529,-1431.5 381,-1431.5 381,-1401.5 529,-1401.5 529,-1431.5"/>
<text text-anchor="start" x="389" y="-1419.5" font-family="Helvetica,sans-Serif" font-size="10.00">ImDrawList::_ResetForNew</text>
<text text-anchor="middle" x="455" y="-1408.5" font-family="Helvetica,sans-Serif" font-size="10.00">Frame</text>
</a>
</g>
</g>
<!-- Node2&#45;&gt;Node3 -->
<g id="edge2" class="edge">
<title>Node2&#45;&gt;Node3</title>
<path fill="none" stroke="#63b8ff" d="M263.72,-909.19C268.54,-971.23 297.83,-1312.58 365,-1387.5 367.87,-1390.7 371.09,-1393.55 374.57,-1396.08"/>
<polygon fill="#63b8ff" stroke="#63b8ff" points="372.77,-1399.08 383.09,-1401.44 376.49,-1393.16 372.77,-1399.08"/>
</g>
<!-- Node16 -->
<g id="node4" class="node">
<title>Node16</title>
<g id="a_node4"><a xlink:href="namespaceImGui.html#ada58e5d3e2efc3cef60f213d771408d8" target="_top" xlink:title=" ">
<polygon fill="#fff0f0" stroke="red" points="529.5,-1249 380.5,-1249 380.5,-1230 529.5,-1230 529.5,-1249"/>
<text text-anchor="middle" x="455" y="-1237" font-family="Helvetica,sans-Serif" font-size="10.00">ImGui::AddUpdateViewport</text>
</a>
</g>
</g>
<!-- Node2&#45;&gt;Node16 -->
<g id="edge3" class="edge">
<title>Node2&#45;&gt;Node16</title>
<path fill="none" stroke="#63b8ff" d="M263,-909.19C263.56,-952.08 271.7,-1126.64 365,-1215.5 369.13,-1219.43 373.83,-1222.73 378.87,-1225.51"/>
<polygon fill="#63b8ff" stroke="#63b8ff" points="377.71,-1228.83 388.25,-1229.94 380.7,-1222.5 377.71,-1228.83"/>
</g>
<!-- Node18 -->
<g id="node5" class="node">
<title>Node18</title>
<g id="a_node5"><a xlink:href="namespaceImGui.html#a2f6bbca8b37a24999b5d04caa77ea6fd" target="_top" xlink:title=" ">
<polygon fill="white" stroke="#666666" points="743.5,-1343.5 588.5,-1343.5 588.5,-1313.5 743.5,-1313.5 743.5,-1343.5"/>
<text text-anchor="start" x="596.5" y="-1331.5" font-family="Helvetica,sans-Serif" font-size="10.00">ImGui::GetViewportPlatform</text>
<text text-anchor="middle" x="666" y="-1320.5" font-family="Helvetica,sans-Serif" font-size="10.00">Monitor</text>
</a>
</g>
</g>
<!-- Node2&#45;&gt;Node18 -->
<g id="edge51" class="edge">
<title>Node2&#45;&gt;Node18</title>
<path fill="none" stroke="#63b8ff" d="M263.59,-909.2C267.48,-969.81 291.69,-1295.81 365,-1354.5 440.11,-1414.64 562.29,-1374.86 625.03,-1347.76"/>
<polygon fill="#63b8ff" stroke="#63b8ff" points="626.48,-1350.94 634.21,-1343.7 623.65,-1344.54 626.48,-1350.94"/>
</g>
<!-- Node19 -->
<g id="node6" class="node">
<title>Node19</title>
<g id="a_node6"><a xlink:href="imgui__internal_8h.html#a7667efd95147d0422f140917c71a9226" target="_top" xlink:title=" ">
<polygon fill="white" stroke="#666666" points="837,-1230 787,-1230 787,-1211 837,-1211 837,-1230"/>
<text text-anchor="middle" x="812" y="-1218" font-family="Helvetica,sans-Serif" font-size="10.00">ImMax</text>
</a>
</g>
</g>
<!-- Node2&#45;&gt;Node19 -->
<g id="edge58" class="edge">
<title>Node2&#45;&gt;Node19</title>
<path fill="none" stroke="#63b8ff" d="M264.64,-909.01C272.6,-955.58 307.85,-1164.39 329,-1336.5 334.16,-1378.48 333.71,-1687.04 365,-1715.5 492.93,-1831.86 634.97,-1794.73 751,-1666.5 808.71,-1602.72 811.53,-1318.69 811.19,-1240.49"/>
<polygon fill="#63b8ff" stroke="#63b8ff" points="814.69,-1240.11 811.12,-1230.13 807.69,-1240.15 814.69,-1240.11"/>
</g>
<!-- Node12 -->
<g id="node7" class="node">
<title>Node12</title>
<g id="a_node7"><a xlink:href="structImVector.html#a2d80e87e81b1b01143c8d8be93e6fde1" target="_top" xlink:title=" ">
<polygon fill="white" stroke="#666666" points="710.5,-1592 621.5,-1592 621.5,-1573 710.5,-1573 710.5,-1592"/>
<text text-anchor="middle" x="666" y="-1580" font-family="Helvetica,sans-Serif" font-size="10.00">ImVector::back</text>
</a>
</g>
</g>
<!-- Node2&#45;&gt;Node12 -->
<g id="edge6" class="edge">
<title>Node2&#45;&gt;Node12</title>
<path fill="none" stroke="#63b8ff" d="M264.46,-909.12C276.8,-990.59 363.4,-1562.04 365,-1563.5 399.71,-1595.25 534.3,-1591.7 610.89,-1586.83"/>
<polygon fill="#63b8ff" stroke="#63b8ff" points="611.55,-1590.29 621.29,-1586.14 611.08,-1583.31 611.55,-1590.29"/>
</g>
<!-- Node32 -->
<g id="node8" class="node">
<title>Node32</title>
<g id="a_node8"><a xlink:href="namespaceImGui.html#a26b36756e219b7129f894e1c2feb17a8" target="_top" xlink:title=" ">
<polygon fill="#fff0f0" stroke="red" points="537,-1554.5 373,-1554.5 373,-1524.5 537,-1524.5 537,-1554.5"/>
<text text-anchor="start" x="381" y="-1542.5" font-family="Helvetica,sans-Serif" font-size="10.00">ImGui::BeginDisabledOverride</text>
<text text-anchor="middle" x="455" y="-1531.5" font-family="Helvetica,sans-Serif" font-size="10.00">Reenable</text>
</a>
</g>
</g>
<!-- Node2&#45;&gt;Node32 -->
<g id="edge7" class="edge">
<title>Node2&#45;&gt;Node32</title>
<path fill="none" stroke="#63b8ff" d="M264.5,-909.47C276.31,-987.96 354.25,-1503.62 365,-1515.5 365.78,-1516.36 366.58,-1517.19 367.42,-1517.99"/>
<polygon fill="#63b8ff" stroke="#63b8ff" points="365.52,-1520.96 375.51,-1524.47 369.89,-1515.49 365.52,-1520.96"/>
</g>
<!-- Node33 -->
<g id="node9" class="node">
<title>Node33</title>
<g id="a_node9"><a xlink:href="namespaceImGui.html#a7a435b1565d4884e42a5ee5667f21a1f" target="_top" xlink:title=" ">
<polygon fill="#fff0f0" stroke="red" points="529,-1345.5 381,-1345.5 381,-1315.5 529,-1315.5 529,-1345.5"/>
<text text-anchor="start" x="389" y="-1333.5" font-family="Helvetica,sans-Serif" font-size="10.00">ImGui::BeginDockableDrag</text>
<text text-anchor="middle" x="455" y="-1322.5" font-family="Helvetica,sans-Serif" font-size="10.00">DropSource</text>
</a>
</g>
</g>
<!-- Node2&#45;&gt;Node33 -->
<g id="edge9" class="edge">
<title>Node2&#45;&gt;Node33</title>
<path fill="none" stroke="#63b8ff" d="M264.08,-909.03C270.59,-964.61 306.17,-1246.61 365,-1306.5 367.16,-1308.69 369.49,-1310.69 371.96,-1312.52"/>
<polygon fill="#63b8ff" stroke="#63b8ff" points="370.51,-1315.74 380.85,-1318.05 374.21,-1309.79 370.51,-1315.74"/>
</g>
<!-- Node278 -->
<g id="node10" class="node">
<title>Node278</title>
<g id="a_node10"><a xlink:href="namespaceImGui.html#a1725ff3becdb963b97c16d69d4c9f308" target="_top" xlink:title=" ">
<polygon fill="#fff0f0" stroke="red" points="529,-1297.5 381,-1297.5 381,-1267.5 529,-1267.5 529,-1297.5"/>
<text text-anchor="start" x="389" y="-1285.5" font-family="Helvetica,sans-Serif" font-size="10.00">ImGui::BeginDockableDrag</text>
<text text-anchor="middle" x="455" y="-1274.5" font-family="Helvetica,sans-Serif" font-size="10.00">DropTarget</text>
</a>
</g>
</g>
<!-- Node2&#45;&gt;Node278 -->
<g id="edge10" class="edge">
<title>Node2&#45;&gt;Node278</title>
<path fill="none" stroke="#63b8ff" d="M262.57,-909.2C261.07,-955.5 260.99,-1155.88 365,-1258.5 367.14,-1260.61 369.44,-1262.53 371.87,-1264.3"/>
<polygon fill="#63b8ff" stroke="#63b8ff" points="370.22,-1267.4 380.57,-1269.68 373.9,-1261.44 370.22,-1267.4"/>
</g>
<!-- Node350 -->
<g id="node11" class="node">
<title>Node350</title>
<g id="a_node11"><a xlink:href="namespaceImGui.html#a627bb85e7c0ab597360f63719bfb1e55" target="_top" xlink:title=" ">
<polygon fill="#fff0f0" stroke="red" points="513,-1135 397,-1135 397,-1116 513,-1116 513,-1135"/>
<text text-anchor="middle" x="455" y="-1123" font-family="Helvetica,sans-Serif" font-size="10.00">ImGui::BeginDocked</text>
</a>
</g>
</g>
<!-- Node2&#45;&gt;Node350 -->
<g id="edge11" class="edge">
<title>Node2&#45;&gt;Node350</title>
<path fill="none" stroke="#63b8ff" d="M264.97,-909.28C272.07,-941.94 299.5,-1048.17 365,-1101.5 371.6,-1106.87 379.3,-1111.05 387.36,-1114.3"/>
<polygon fill="#63b8ff" stroke="#63b8ff" points="386.34,-1117.65 396.94,-1117.69 388.68,-1111.05 386.34,-1117.65"/>
</g>
<!-- Node391 -->
<g id="node12" class="node">
<title>Node391</title>
<g id="a_node12"><a xlink:href="namespaceImGui.html#ae1208499040a30ab6dfd30ca0d14fbc2" target="_top" xlink:title=" ">
<polygon fill="white" stroke="#666666" points="750,-1156.5 582,-1156.5 582,-1126.5 750,-1126.5 750,-1156.5"/>
<text text-anchor="start" x="590" y="-1144.5" font-family="Helvetica,sans-Serif" font-size="10.00">ImGui::GetWindowAlwaysWant</text>
<text text-anchor="middle" x="666" y="-1133.5" font-family="Helvetica,sans-Serif" font-size="10.00">OwnTabBar</text>
</a>
</g>
</g>
<!-- Node2&#45;&gt;Node391 -->
<g id="edge53" class="edge">
<title>Node2&#45;&gt;Node391</title>
<path fill="none" stroke="#63b8ff" d="M263.46,-909.08C265.89,-947.11 280.48,-1088.13 365,-1144.5 438.11,-1193.26 545.17,-1176.44 609.66,-1159.31"/>
<polygon fill="#63b8ff" stroke="#63b8ff" points="610.92,-1162.59 619.64,-1156.57 609.07,-1155.84 610.92,-1162.59"/>
</g>
<!-- Node393 -->
<g id="node13" class="node">
<title>Node393</title>
<g id="a_node13"><a xlink:href="imgui_8cpp.html#a07abb80a54115cb5cf9da03351e29533" target="_top" xlink:title=" ">
<polygon fill="#fff0f0" stroke="red" points="736,-1657.5 596,-1657.5 596,-1627.5 736,-1627.5 736,-1657.5"/>
<text text-anchor="start" x="604" y="-1645.5" font-family="Helvetica,sans-Serif" font-size="10.00">CalcNextScrollFromScroll</text>
<text text-anchor="middle" x="666" y="-1634.5" font-family="Helvetica,sans-Serif" font-size="10.00">TargetAndClamp</text>
</a>
</g>
</g>
<!-- Node2&#45;&gt;Node393 -->
<g id="edge13" class="edge">
<title>Node2&#45;&gt;Node393</title>
<path fill="none" stroke="#63b8ff" d="M264.55,-909.02C272.13,-955.64 305.82,-1164.65 329,-1336.5 338.06,-1403.7 314.53,-1594.22 365,-1639.5 396.35,-1667.63 507.84,-1661.41 585.68,-1653.02"/>
<polygon fill="#63b8ff" stroke="#63b8ff" points="586.4,-1656.46 595.96,-1651.88 585.63,-1649.51 586.4,-1656.46"/>
</g>
<!-- Node396 -->
<g id="node14" class="node">
<title>Node396</title>
<g id="a_node14"><a xlink:href="imgui_8cpp.html#acbe6338daf87dc6ab636f02f1367eb41" target="_top" xlink:title=" ">
<polygon fill="#fff0f0" stroke="red" points="520.5,-823 389.5,-823 389.5,-804 520.5,-804 520.5,-823"/>
<text text-anchor="middle" x="455" y="-811" font-family="Helvetica,sans-Serif" font-size="10.00">CalcWindowAutoFitSize</text>
</a>
</g>
</g>
<!-- Node2&#45;&gt;Node396 -->
<g id="edge15" class="edge">
<title>Node2&#45;&gt;Node396</title>
<path fill="none" stroke="#63b8ff" d="M302.21,-892.69C311.52,-889.9 321.05,-885.98 329,-880.5 350.95,-865.36 342.53,-846.86 365,-832.5 369.58,-829.57 374.53,-827.09 379.67,-824.99"/>
<polygon fill="#63b8ff" stroke="#63b8ff" points="380.88,-828.27 389.1,-821.59 378.51,-821.69 380.88,-828.27"/>
</g>
<!-- Node399 -->
<g id="node15" class="node">
<title>Node399</title>
<g id="a_node15"><a xlink:href="imgui_8cpp.html#a0c4618a6985c33c4936f1d9f1c7b26b4" target="_top" xlink:title=" ">
<polygon fill="#fff0f0" stroke="red" points="751,-823 581,-823 581,-804 751,-804 751,-823"/>
<text text-anchor="middle" x="666" y="-811" font-family="Helvetica,sans-Serif" font-size="10.00">CalcWindowSizeAfterConstraint</text>
</a>
</g>
</g>
<!-- Node2&#45;&gt;Node399 -->
<g id="edge21" class="edge">
<title>Node2&#45;&gt;Node399</title>
<path fill="none" stroke="#63b8ff" d="M302.08,-895.52C312.05,-892.73 321.94,-888.1 329,-880.5 381.88,-823.62 304.69,-758.44 365,-709.5 427.12,-659.09 470.05,-681.54 545,-709.5 591.44,-726.82 631.84,-771.12 651.78,-795.95"/>
<polygon fill="#63b8ff" stroke="#63b8ff" points="649.04,-798.12 657.95,-803.84 654.55,-793.81 649.04,-798.12"/>
</g>
<!-- Node400 -->
<g id="node16" class="node">
<title>Node400</title>
<g id="a_node16"><a xlink:href="namespaceImGui.html#a7bf620af1d66ee7d7b06701894d23e60" target="_top" xlink:title=" ">
<polygon fill="white" stroke="#666666" points="734.5,-941 597.5,-941 597.5,-922 734.5,-922 734.5,-941"/>
<text text-anchor="middle" x="666" y="-929" font-family="Helvetica,sans-Serif" font-size="10.00">ImGui::GetMainViewport</text>
</a>
</g>
</g>
<!-- Node2&#45;&gt;Node400 -->
<g id="edge48" class="edge">
<title>Node2&#45;&gt;Node400</title>
<path fill="none" stroke="#63b8ff" d="M269.77,-909.22C284.38,-929.25 321.15,-974.65 365,-991.5 439.67,-1020.2 467.14,-1009.88 545,-991.5 581.42,-982.9 619.4,-961.46 642.63,-946.69"/>
<polygon fill="#63b8ff" stroke="#63b8ff" points="644.58,-949.59 651.06,-941.2 640.77,-943.72 644.58,-949.59"/>
</g>
<!-- Node401 -->
<g id="node17" class="node">
<title>Node401</title>
<g id="a_node17"><a xlink:href="imgui_8cpp.html#a6eddef51b4880a9f1dca88837f71fc6e" target="_top" xlink:title=" ">
<polygon fill="#fff0f0" stroke="red" points="736,-1211 596,-1211 596,-1192 736,-1192 736,-1211"/>
<text text-anchor="middle" x="666" y="-1199" font-family="Helvetica,sans-Serif" font-size="10.00">CalcWindowContentSizes</text>
</a>
</g>
</g>
<!-- Node2&#45;&gt;Node401 -->
<g id="edge19" class="edge">
<title>Node2&#45;&gt;Node401</title>
<path fill="none" stroke="#63b8ff" d="M263.17,-909.13C264.44,-949.46 275.19,-1105.84 365,-1174.5 435.69,-1228.54 544.94,-1222.67 610.26,-1212.66"/>
<polygon fill="#63b8ff" stroke="#63b8ff" points="611.04,-1216.08 620.35,-1211.03 609.92,-1209.17 611.04,-1216.08"/>
</g>
<!-- Node403 -->
<g id="node18" class="node">
<title>Node403</title>
<g id="a_node18"><a xlink:href="structImDrawList.html#aba9e93d0bf1c3884beb726e96360d2e2" target="_top" xlink:title=" ">
<polygon fill="#fff0f0" stroke="red" points="542.5,-983 367.5,-983 367.5,-964 542.5,-964 542.5,-983"/>
<text text-anchor="middle" x="455" y="-971" font-family="Helvetica,sans-Serif" font-size="10.00">ImDrawList::ChannelsSetCurrent</text>
</a>
</g>
</g>
<!-- Node2&#45;&gt;Node403 -->
<g id="edge22" class="edge">
<title>Node2&#45;&gt;Node403</title>
<path fill="none" stroke="#63b8ff" d="M277.58,-909.09C296.83,-921.35 332.15,-942.42 365,-954.5 372.19,-957.15 379.86,-959.47 387.56,-961.5"/>
<polygon fill="#63b8ff" stroke="#63b8ff" points="386.74,-964.91 397.29,-963.92 388.43,-958.11 386.74,-964.91"/>
</g>
<!-- Node404 -->
<g id="node19" class="node">
<title>Node404</title>
<g id="a_node19"><a xlink:href="structImDrawList.html#acd7bcb6c4c5043876cfc169a98abc24a" target="_top" xlink:title=" ">
<polygon fill="#fff0f0" stroke="red" points="527.5,-946 382.5,-946 382.5,-927 527.5,-927 527.5,-946"/>
<text text-anchor="middle" x="455" y="-934" font-family="Helvetica,sans-Serif" font-size="10.00">ImDrawList::ChannelsSplit</text>
</a>
</g>
</g>
<!-- Node2&#45;&gt;Node404 -->
<g id="edge23" class="edge">
<title>Node2&#45;&gt;Node404</title>
<path fill="none" stroke="#63b8ff" d="M302.11,-907.08C328.78,-912.24 364.6,-919.18 394.75,-925.02"/>
<polygon fill="#63b8ff" stroke="#63b8ff" points="394.25,-928.49 404.74,-926.96 395.58,-921.62 394.25,-928.49"/>
</g>
<!-- Node406 -->
<g id="node20" class="node">
<title>Node406</title>
<g id="a_node20"><a xlink:href="imgui_8cpp.html#a27b88f27774c413d5578ab6a3f989872" target="_top" xlink:title=" ">
<polygon fill="#fff0f0" stroke="red" points="507,-909 403,-909 403,-890 507,-890 507,-909"/>
<text text-anchor="middle" x="455" y="-897" font-family="Helvetica,sans-Serif" font-size="10.00">ClampWindowPos</text>
</a>
</g>
</g>
<!-- Node2&#45;&gt;Node406 -->
<g id="edge24" class="edge">
<title>Node2&#45;&gt;Node406</title>
<path fill="none" stroke="#63b8ff" d="M302.11,-899.5C328.18,-899.5 362.98,-899.5 392.69,-899.5"/>
<polygon fill="#63b8ff" stroke="#63b8ff" points="392.97,-903 402.97,-899.5 392.97,-896 392.97,-903"/>
</g>
<!-- Node407 -->
<g id="node21" class="node">
<title>Node407</title>
<g id="a_node21"><a xlink:href="structImGuiNextWindowData.html#a9543431fafe3d0627fdecc5fa839487c" target="_top" xlink:title=" ">
<polygon fill="white" stroke="#666666" points="520.5,-871.5 389.5,-871.5 389.5,-841.5 520.5,-841.5 520.5,-871.5"/>
<text text-anchor="start" x="397.5" y="-859.5" font-family="Helvetica,sans-Serif" font-size="10.00">ImGuiNextWindowData</text>
<text text-anchor="middle" x="455" y="-848.5" font-family="Helvetica,sans-Serif" font-size="10.00">::ClearFlags</text>
</a>
</g>
</g>
<!-- Node2&#45;&gt;Node407 -->
<g id="edge25" class="edge">
<title>Node2&#45;&gt;Node407</title>
<path fill="none" stroke="#63b8ff" d="M302.11,-890.69C324.37,-885.68 353,-879.24 379.39,-873.3"/>
<polygon fill="#63b8ff" stroke="#63b8ff" points="380.38,-876.66 389.37,-871.05 378.85,-869.83 380.38,-876.66"/>
</g>
<!-- Node105 -->
<g id="node22" class="node">
<title>Node105</title>
<g id="a_node22"><a xlink:href="structImRect.html#ac02d5cf6ce0358aea9ed9df43d368f3f" target="_top" xlink:title=" ">
<polygon fill="#fff0f0" stroke="red" points="715,-705 617,-705 617,-686 715,-686 715,-705"/>
<text text-anchor="middle" x="666" y="-693" font-family="Helvetica,sans-Serif" font-size="10.00">ImRect::ClipWith</text>
</a>
</g>
</g>
<!-- Node2&#45;&gt;Node105 -->
<g id="edge26" class="edge">
<title>Node2&#45;&gt;Node105</title>
<path fill="none" stroke="#63b8ff" d="M302.05,-895.91C312.14,-893.12 322.1,-888.41 329,-880.5 401.95,-796.92 281.09,-706.07 365,-633.5 447.14,-562.46 589.1,-644.19 643.2,-680.18"/>
<polygon fill="#63b8ff" stroke="#63b8ff" points="641.44,-683.21 651.68,-685.93 645.37,-677.42 641.44,-683.21"/>
</g>
<!-- Node23 -->
<g id="node23" class="node">
<title>Node23</title>
<g id="a_node23"><a xlink:href="structImRect.html#a32a5aaca4161b5ffa3f352d293a449ff" target="_top" xlink:title=" ">
<polygon fill="#fff0f0" stroke="red" points="513,-786 397,-786 397,-767 513,-767 513,-786"/>
<text text-anchor="middle" x="455" y="-774" font-family="Helvetica,sans-Serif" font-size="10.00">ImRect::ClipWithFull</text>
</a>
</g>
</g>
<!-- Node2&#45;&gt;Node23 -->
<g id="edge28" class="edge">
<title>Node2&#45;&gt;Node23</title>
<path fill="none" stroke="#63b8ff" d="M302.21,-894.31C311.84,-891.49 321.52,-887.16 329,-880.5 359.95,-852.95 332.96,-820.78 365,-794.5 371.41,-789.24 378.95,-785.38 386.87,-782.57"/>
<polygon fill="#63b8ff" stroke="#63b8ff" points="388.11,-785.86 396.69,-779.64 386.1,-779.15 388.11,-785.86"/>
</g>
<!-- Node260 -->
<g id="node24" class="node">
<title>Node260</title>
<g id="a_node24"><a xlink:href="namespaceImGui.html#abe2691de0b1a71c774ab24cc91564a94" target="_top" xlink:title=" ">
<polygon fill="white" stroke="#666666" points="528,-748.5 382,-748.5 382,-718.5 528,-718.5 528,-748.5"/>
<text text-anchor="start" x="390" y="-736.5" font-family="Helvetica,sans-Serif" font-size="10.00">ImGui::ColorConvertFloat4</text>
<text text-anchor="middle" x="455" y="-725.5" font-family="Helvetica,sans-Serif" font-size="10.00">ToU32</text>
</a>
</g>
</g>
<!-- Node2&#45;&gt;Node260 -->
<g id="edge29" class="edge">
<title>Node2&#45;&gt;Node260</title>
<path fill="none" stroke="#63b8ff" d="M302.05,-895.06C311.9,-892.25 321.73,-887.73 329,-880.5 369.37,-840.31 324.3,-797.34 365,-757.5 367.54,-755.02 370.3,-752.79 373.23,-750.78"/>
<polygon fill="#63b8ff" stroke="#63b8ff" points="375.04,-753.77 381.9,-745.7 371.5,-747.74 375.04,-753.77"/>
</g>
<!-- Node25 -->
<g id="node25" class="node">
<title>Node25</title>
<g id="a_node25"><a xlink:href="structImRect.html#ac583156fd0e9306181fff5d120b262ea" target="_top" xlink:title=" ">
<polygon fill="white" stroke="#666666" points="716,-355 616,-355 616,-336 716,-336 716,-355"/>
<text text-anchor="middle" x="666" y="-343" font-family="Helvetica,sans-Serif" font-size="10.00">ImRect::Contains</text>
</a>
</g>
</g>
<!-- Node2&#45;&gt;Node25 -->
<g id="edge30" class="edge">
<title>Node2&#45;&gt;Node25</title>
<path fill="none" stroke="#63b8ff" d="M302.08,-896.31C312.3,-893.55 322.31,-888.74 329,-880.5 398.48,-794.85 289.39,-465.79 365,-385.5 381.21,-368.29 522.93,-355.51 605.65,-349.43"/>
<polygon fill="#63b8ff" stroke="#63b8ff" points="605.96,-352.92 615.68,-348.71 605.46,-345.94 605.96,-352.92"/>
</g>
<!-- Node408 -->
<g id="node26" class="node">
<title>Node408</title>
<g id="a_node26"><a xlink:href="imgui_8cpp.html#a3c92847eb67e7138e6f9af0ee66d3b33" target="_top" xlink:title=" ">
<polygon fill="#fff0f0" stroke="red" points="510,-662 400,-662 400,-643 510,-643 510,-662"/>
<text text-anchor="middle" x="455" y="-650" font-family="Helvetica,sans-Serif" font-size="10.00">CreateNewWindow</text>
</a>
</g>
</g>
<!-- Node2&#45;&gt;Node408 -->
<g id="edge31" class="edge">
<title>Node2&#45;&gt;Node408</title>
<path fill="none" stroke="#63b8ff" d="M302.24,-895.67C312.22,-892.88 322.06,-888.21 329,-880.5 390.57,-812.05 302.85,-744.42 365,-676.5 371.81,-669.06 380.65,-663.83 390.12,-660.17"/>
<polygon fill="#63b8ff" stroke="#63b8ff" points="391.34,-663.46 399.75,-657.01 389.15,-656.81 391.34,-663.46"/>
</g>
<!-- Node234 -->
<g id="node27" class="node">
<title>Node234</title>
<g id="a_node27"><a xlink:href="namespaceImGui.html#ae8ab0d7dfc90af8e82db3ed9e7829219" target="_top" xlink:title=" ">
<polygon fill="#fff0f0" stroke="red" points="543.5,-586.5 366.5,-586.5 366.5,-556.5 543.5,-556.5 543.5,-586.5"/>
<text text-anchor="start" x="374.5" y="-574.5" font-family="Helvetica,sans-Serif" font-size="10.00">ImGui::DebugLocateItemResolve</text>
<text text-anchor="middle" x="455" y="-563.5" font-family="Helvetica,sans-Serif" font-size="10.00">WithLastItem</text>
</a>
</g>
</g>
<!-- Node2&#45;&gt;Node234 -->
<g id="edge32" class="edge">
<title>Node2&#45;&gt;Node234</title>
<path fill="none" stroke="#63b8ff" d="M302.14,-895.98C312.23,-893.2 322.17,-888.46 329,-880.5 410.71,-785.28 284.96,-697.12 365,-600.5 367.48,-597.51 370.27,-594.82 373.29,-592.41"/>
<polygon fill="#63b8ff" stroke="#63b8ff" points="375.48,-595.16 381.79,-586.65 371.55,-589.37 375.48,-595.16"/>
</g>
<!-- Node236 -->
<g id="node28" class="node">
<title>Node236</title>
<g id="a_node28"><a xlink:href="structImRect.html#af33a7424c3341d08acd69da30c27c753" target="_top" xlink:title=" ">
<polygon fill="white" stroke="#666666" points="712.5,-516 619.5,-516 619.5,-497 712.5,-497 712.5,-516"/>
<text text-anchor="middle" x="666" y="-504" font-family="Helvetica,sans-Serif" font-size="10.00">ImRect::Expand</text>
</a>
</g>
</g>
<!-- Node2&#45;&gt;Node236 -->
<g id="edge36" class="edge">
<title>Node2&#45;&gt;Node236</title>
<path fill="none" stroke="#63b8ff" d="M302.01,-896.26C312.23,-893.49 322.26,-888.7 329,-880.5 388.35,-808.31 296.15,-524.69 365,-461.5 443.31,-389.63 584.61,-459.05 640.9,-491.65"/>
<polygon fill="#63b8ff" stroke="#63b8ff" points="639.4,-494.83 649.79,-496.9 642.96,-488.8 639.4,-494.83"/>
</g>
<!-- Node417 -->
<g id="node29" class="node">
<title>Node417</title>
<g id="a_node29"><a xlink:href="structImVector.html#aa53e48a5272f4bad1099368769514ff1" target="_top" xlink:title=" ">
<polygon fill="white" stroke="#666666" points="504,-538 406,-538 406,-519 504,-519 504,-538"/>
<text text-anchor="middle" x="455" y="-526" font-family="Helvetica,sans-Serif" font-size="10.00">ImVector::empty</text>
</a>
</g>
</g>
<!-- Node2&#45;&gt;Node417 -->
<g id="edge34" class="edge">
<title>Node2&#45;&gt;Node417</title>
<path fill="none" stroke="#63b8ff" d="M302.24,-896.07C312.34,-893.29 322.25,-888.53 329,-880.5 424.8,-766.56 265.28,-658.02 365,-547.5 373.1,-538.52 384.32,-533.21 396.06,-530.18"/>
<polygon fill="#63b8ff" stroke="#63b8ff" points="396.9,-533.58 406,-528.14 395.5,-526.72 396.9,-533.58"/>
</g>
<!-- Node418 -->
<g id="node30" class="node">
<title>Node418</title>
<g id="a_node30"><a xlink:href="namespaceImGui.html#ac961d81019f580ffaec6b8857635a348" target="_top" xlink:title=" ">
<polygon fill="white" stroke="#666666" points="528,-500.5 382,-500.5 382,-470.5 528,-470.5 528,-500.5"/>
<text text-anchor="start" x="390" y="-488.5" font-family="Helvetica,sans-Serif" font-size="10.00">ImGui::ErrorRecoveryStore</text>
<text text-anchor="middle" x="455" y="-477.5" font-family="Helvetica,sans-Serif" font-size="10.00">State</text>
</a>
</g>
</g>
<!-- Node2&#45;&gt;Node418 -->
<g id="edge35" class="edge">
<title>Node2&#45;&gt;Node418</title>
<path fill="none" stroke="#63b8ff" d="M302.3,-896.12C312.4,-893.33 322.29,-888.57 329,-880.5 434.91,-753.11 258.02,-635.99 365,-509.5 367.47,-506.58 370.26,-503.99 373.28,-501.71"/>
<polygon fill="#63b8ff" stroke="#63b8ff" points="375.19,-504.64 381.76,-496.33 371.44,-498.73 375.19,-504.64"/>
</g>
<!-- Node419 -->
<g id="node31" class="node">
<title>Node419</title>
<g id="a_node31"><a xlink:href="namespaceImGui.html#a310ff87cbe678e2c632bf1f5577a7fbd" target="_top" xlink:title=" ">
<polygon fill="#fff0f0" stroke="red" points="530,-338.5 380,-338.5 380,-308.5 530,-308.5 530,-338.5"/>
<text text-anchor="start" x="388" y="-326.5" font-family="Helvetica,sans-Serif" font-size="10.00">ImGui::FindBestWindowPos</text>
<text text-anchor="middle" x="455" y="-315.5" font-family="Helvetica,sans-Serif" font-size="10.00">ForPopup</text>
</a>
</g>
</g>
<!-- Node2&#45;&gt;Node419 -->
<g id="edge37" class="edge">
<title>Node2&#45;&gt;Node419</title>
<path fill="none" stroke="#63b8ff" d="M302.1,-896.33C312.32,-893.57 322.33,-888.76 329,-880.5 402.88,-789 292.71,-445.27 365,-352.5 367.27,-349.59 369.83,-346.97 372.62,-344.61"/>
<polygon fill="#63b8ff" stroke="#63b8ff" points="374.91,-347.27 381.03,-338.62 370.85,-341.57 374.91,-347.27"/>
</g>
<!-- Node229 -->
<g id="node32" class="node">
<title>Node229</title>
<g id="a_node32"><a xlink:href="namespaceImGui.html#a7671e1dbc803a31b06081b52a771d83f" target="_top" xlink:title=" ">
<polygon fill="white" stroke="#666666" points="533.5,-414 376.5,-414 376.5,-395 533.5,-395 533.5,-414"/>
<text text-anchor="middle" x="455" y="-402" font-family="Helvetica,sans-Serif" font-size="10.00">ImGui::FindRenderedTextEnd</text>
</a>
</g>
</g>
<!-- Node2&#45;&gt;Node229 -->
<g id="edge39" class="edge">
<title>Node2&#45;&gt;Node229</title>
<path fill="none" stroke="#63b8ff" d="M302.04,-896.28C312.26,-893.52 322.29,-888.72 329,-880.5 392.75,-802.47 300.59,-505.99 365,-428.5 367.96,-424.94 371.38,-421.88 375.13,-419.25"/>
<polygon fill="#63b8ff" stroke="#63b8ff" points="376.95,-422.24 383.79,-414.16 373.4,-416.21 376.95,-422.24"/>
</g>
<!-- Node427 -->
<g id="node33" class="node">
<title>Node427</title>
<g id="a_node33"><a xlink:href="namespaceImGui.html#a82204d8800dc3a072ddbcbd2aecc48ac" target="_top" xlink:title=" ">
<polygon fill="#fff0f0" stroke="red" points="733,-1075 599,-1075 599,-1056 733,-1056 733,-1075"/>
<text text-anchor="middle" x="666" y="-1063" font-family="Helvetica,sans-Serif" font-size="10.00">ImGui::FindWindowByID</text>
</a>
</g>
</g>
<!-- Node2&#45;&gt;Node427 -->
<g id="edge40" class="edge">
<title>Node2&#45;&gt;Node427</title>
<path fill="none" stroke="#63b8ff" d="M265.29,-909.17C273.03,-939.45 301.43,-1032.62 365,-1068.5 447.54,-1115.09 564.32,-1093.93 624.96,-1077.8"/>
<polygon fill="#63b8ff" stroke="#63b8ff" points="626.19,-1081.09 634.9,-1075.06 624.33,-1074.34 626.19,-1081.09"/>
</g>
<!-- Node428 -->
<g id="node34" class="node">
<title>Node428</title>
<g id="a_node34"><a xlink:href="namespaceImGui.html#abca25f22c02e73d5eb2e9c72c4557813" target="_top" xlink:title=" ">
<polygon fill="#fff0f0" stroke="red" points="531.5,-1059 378.5,-1059 378.5,-1040 531.5,-1040 531.5,-1059"/>
<text text-anchor="middle" x="455" y="-1047" font-family="Helvetica,sans-Serif" font-size="10.00">ImGui::FindWindowByName</text>
</a>
</g>
</g>
<!-- Node2&#45;&gt;Node428 -->
<g id="edge41" class="edge">
<title>Node2&#45;&gt;Node428</title>
<path fill="none" stroke="#63b8ff" d="M267.96,-909.11C280.68,-932.77 316.88,-994.19 365,-1025.5 371.87,-1029.97 379.54,-1033.61 387.44,-1036.57"/>
<polygon fill="#63b8ff" stroke="#63b8ff" points="386.53,-1039.96 397.13,-1039.87 388.79,-1033.34 386.53,-1039.96"/>
</g>
<!-- Node46 -->
<g id="node35" class="node">
<title>Node46</title>
<g id="a_node35"><a xlink:href="namespaceImGui.html#a27aa6f2f3aa11778c6d023b1b223f262" target="_top" xlink:title=" ">
<polygon fill="#fff0f0" stroke="red" points="514.5,-290 395.5,-290 395.5,-271 514.5,-271 514.5,-290"/>
<text text-anchor="middle" x="455" y="-278" font-family="Helvetica,sans-Serif" font-size="10.00">ImGui::FocusWindow</text>
</a>
</g>
</g>
<!-- Node2&#45;&gt;Node46 -->
<g id="edge43" class="edge">
<title>Node2&#45;&gt;Node46</title>
<path fill="none" stroke="#63b8ff" d="M302.14,-896.36C312.36,-893.6 322.36,-888.78 329,-880.5 409.96,-779.61 280.56,-397.5 365,-299.5 370.63,-292.96 377.91,-288.35 385.88,-285.14"/>
<polygon fill="#63b8ff" stroke="#63b8ff" points="387.09,-288.42 395.5,-281.98 384.91,-281.77 387.09,-288.42"/>
</g>
<!-- Node429 -->
<g id="node36" class="node">
<title>Node429</title>
<g id="a_node36"><a xlink:href="namespaceImGui.html#ad70feca33961fb47a8074074a8da2f80" target="_top" xlink:title=" ">
<polygon fill="#fff0f0" stroke="red" points="545,-252.5 365,-252.5 365,-222.5 545,-222.5 545,-252.5"/>
<text text-anchor="start" x="373" y="-240.5" font-family="Helvetica,sans-Serif" font-size="10.00">ImGui::GcAwakeTransientWindow</text>
<text text-anchor="middle" x="455" y="-229.5" font-family="Helvetica,sans-Serif" font-size="10.00">Buffers</text>
</a>
</g>
</g>
<!-- Node2&#45;&gt;Node429 -->
<g id="edge44" class="edge">
<title>Node2&#45;&gt;Node429</title>
<path fill="none" stroke="#63b8ff" d="M302.16,-896.38C312.38,-893.61 322.37,-888.79 329,-880.5 415.03,-772.87 278.07,-368.4 365,-261.5 365.51,-260.87 366.04,-260.26 366.58,-259.66"/>
<polygon fill="#63b8ff" stroke="#63b8ff" points="369.21,-262 374.31,-252.71 364.53,-256.79 369.21,-262"/>
</g>
<!-- Node26 -->
<g id="node37" class="node">
<title>Node26</title>
<g id="a_node37"><a xlink:href="structImRect.html#a748d8ae9cb26508951ec6e2f2df0625b" target="_top" xlink:title=" ">
<polygon fill="white" stroke="#666666" points="508.5,-204 401.5,-204 401.5,-185 508.5,-185 508.5,-204"/>
<text text-anchor="middle" x="455" y="-192" font-family="Helvetica,sans-Serif" font-size="10.00">ImRect::GetHeight</text>
</a>
</g>
</g>
<!-- Node2&#45;&gt;Node26 -->
<g id="edge45" class="edge">
<title>Node2&#45;&gt;Node26</title>
<path fill="none" stroke="#63b8ff" d="M302.18,-896.39C312.4,-893.63 322.39,-888.8 329,-880.5 421.43,-764.35 268.56,-326.34 365,-213.5 371.92,-205.4 381.38,-200.25 391.55,-197.05"/>
<polygon fill="#63b8ff" stroke="#63b8ff" points="392.61,-200.4 401.45,-194.56 390.9,-193.61 392.61,-200.4"/>
</g>
<!-- Node430 -->
<g id="node38" class="node">
<title>Node430</title>
<g id="a_node38"><a xlink:href="namespaceImGui.html#a3976abb319f95d75fe9f6866f9956701" target="_top" xlink:title=" ">
<polygon fill="#fff0f0" stroke="red" points="514.5,-167 395.5,-167 395.5,-148 514.5,-148 514.5,-167"/>
<text text-anchor="middle" x="455" y="-155" font-family="Helvetica,sans-Serif" font-size="10.00">ImGui::GetKeyOwner</text>
</a>
</g>
</g>
<!-- Node2&#45;&gt;Node430 -->
<g id="edge46" class="edge">
<title>Node2&#45;&gt;Node430</title>
<path fill="none" stroke="#63b8ff" d="M302.19,-896.41C312.42,-893.64 322.4,-888.81 329,-880.5 426.51,-757.62 262.61,-294.35 365,-175.5 370.62,-168.98 377.89,-164.42 385.86,-161.28"/>
<polygon fill="#63b8ff" stroke="#63b8ff" points="387.01,-164.59 395.47,-158.22 384.88,-157.92 387.01,-164.59"/>
</g>
<!-- Node28 -->
<g id="node39" class="node">
<title>Node28</title>
<g id="a_node39"><a xlink:href="structImGuiViewportP.html#adb4c14f0b0a42bff9c1c0ab1971027f7" target="_top" xlink:title=" ">
<polygon fill="white" stroke="#666666" points="537,-130 373,-130 373,-111 537,-111 537,-130"/>
<text text-anchor="middle" x="455" y="-118" font-family="Helvetica,sans-Serif" font-size="10.00">ImGuiViewportP::GetMainRect</text>
</a>
</g>
</g>
<!-- Node2&#45;&gt;Node28 -->
<g id="edge47" class="edge">
<title>Node2&#45;&gt;Node28</title>
<path fill="none" stroke="#63b8ff" d="M302.21,-896.42C312.43,-893.65 322.41,-888.82 329,-880.5 380.22,-815.78 311.21,-201.1 365,-138.5 365.52,-137.89 366.05,-137.31 366.6,-136.73"/>
<polygon fill="#63b8ff" stroke="#63b8ff" points="369,-139.29 374.42,-130.19 364.51,-133.93 369,-139.29"/>
</g>
<!-- Node323 -->
<g id="node40" class="node">
<title>Node323</title>
<g id="a_node40"><a xlink:href="structImRect.html#ae459d9c50003058cfb34519a571aaf33" target="_top" xlink:title=" ">
<polygon fill="white" stroke="#666666" points="502.5,-93 407.5,-93 407.5,-74 502.5,-74 502.5,-93"/>
<text text-anchor="middle" x="455" y="-81" font-family="Helvetica,sans-Serif" font-size="10.00">ImRect::GetSize</text>
</a>
</g>
</g>
<!-- Node2&#45;&gt;Node323 -->
<g id="edge49" class="edge">
<title>Node2&#45;&gt;Node323</title>
<path fill="none" stroke="#63b8ff" d="M302.22,-896.43C312.44,-893.66 322.42,-888.83 329,-880.5 382.69,-812.49 308.6,-167.28 365,-101.5 373.26,-91.87 385.12,-86.51 397.5,-83.7"/>
<polygon fill="#63b8ff" stroke="#63b8ff" points="398.24,-87.12 407.49,-81.95 397.04,-80.23 398.24,-87.12"/>
</g>
<!-- Node431 -->
<g id="node41" class="node">
<title>Node431</title>
<g id="a_node41"><a xlink:href="namespaceImGui.html#ad838e580972e2c4b3da2b0f60754b662" target="_top" xlink:title=" ">
<polygon fill="white" stroke="#666666" points="526.5,-56 383.5,-56 383.5,-37 526.5,-37 526.5,-56"/>
<text text-anchor="middle" x="455" y="-44" font-family="Helvetica,sans-Serif" font-size="10.00">ImGui::GetStyleColorVec4</text>
</a>
</g>
</g>
<!-- Node2&#45;&gt;Node431 -->
<g id="edge50" class="edge">
<title>Node2&#45;&gt;Node431</title>
<path fill="none" stroke="#63b8ff" d="M302.23,-896.43C312.45,-893.67 322.43,-888.84 329,-880.5 385.16,-809.21 306,-133.46 365,-64.5 367.75,-61.29 370.89,-58.55 374.33,-56.23"/>
<polygon fill="#63b8ff" stroke="#63b8ff" points="376.3,-59.14 383.38,-51.26 372.93,-53 376.3,-59.14"/>
</g>
<!-- Node27 -->
<g id="node42" class="node">
<title>Node27</title>
<g id="a_node42"><a xlink:href="structImRect.html#afa75cb8491f20901c96166d17dcddac4" target="_top" xlink:title=" ">
<polygon fill="white" stroke="#666666" points="506.5,-19 403.5,-19 403.5,0 506.5,0 506.5,-19"/>
<text text-anchor="middle" x="455" y="-7" font-family="Helvetica,sans-Serif" font-size="10.00">ImRect::GetWidth</text>
</a>
</g>
</g>
<!-- Node2&#45;&gt;Node27 -->
<g id="edge52" class="edge">
<title>Node2&#45;&gt;Node27</title>
<path fill="none" stroke="#63b8ff" d="M302.24,-896.44C312.46,-893.68 322.44,-888.84 329,-880.5 387.64,-805.93 303.4,-99.64 365,-27.5 372.29,-18.96 382.41,-13.78 393.22,-10.75"/>
<polygon fill="#63b8ff" stroke="#63b8ff" points="394.27,-14.11 403.28,-8.54 392.76,-7.27 394.27,-14.11"/>
</g>
<!-- Node432 -->
<g id="node43" class="node">
<title>Node432</title>
<g id="a_node43"><a xlink:href="structImGuiViewportP.html#ae5c3184b73ea080f14e03ecb344b913e" target="_top" xlink:title=" ">
<polygon fill="white" stroke="#666666" points="537.5,-1706 372.5,-1706 372.5,-1687 537.5,-1687 537.5,-1706"/>
<text text-anchor="middle" x="455" y="-1694" font-family="Helvetica,sans-Serif" font-size="10.00">ImGuiViewportP::GetWorkRect</text>
</a>
</g>
</g>
<!-- Node2&#45;&gt;Node432 -->
<g id="edge54" class="edge">
<title>Node2&#45;&gt;Node432</title>
<path fill="none" stroke="#63b8ff" d="M264.59,-909.01C272.36,-955.61 306.81,-1164.52 329,-1336.5 338.61,-1410.98 316.22,-1615.41 365,-1672.5 368.07,-1676.09 371.6,-1679.17 375.47,-1681.81"/>
<polygon fill="#63b8ff" stroke="#63b8ff" points="373.97,-1684.98 384.39,-1686.92 377.45,-1678.91 373.97,-1684.98"/>
</g>
<!-- Node433 -->
<g id="node44" class="node">
<title>Node433</title>
<g id="a_node44"><a xlink:href="imgui__internal_8h.html#aacb58e1a4fda4df9644238d9679d1173" target="_top" xlink:title=" ">
<polygon fill="white" stroke="#666666" points="501,-1630 409,-1630 409,-1611 501,-1611 501,-1630"/>
<text text-anchor="middle" x="455" y="-1618" font-family="Helvetica,sans-Serif" font-size="10.00">ImCountSetBits</text>
</a>
</g>
</g>
<!-- Node2&#45;&gt;Node433 -->
<g id="edge55" class="edge">
<title>Node2&#45;&gt;Node433</title>
<path fill="none" stroke="#63b8ff" d="M264.48,-909.03C271.74,-955.7 304.16,-1164.88 329,-1336.5 337.36,-1394.23 326.43,-1552.74 365,-1596.5 373.77,-1606.45 386.19,-1612.47 398.98,-1616.07"/>
<polygon fill="#63b8ff" stroke="#63b8ff" points="398.24,-1619.49 408.77,-1618.37 399.84,-1612.67 398.24,-1619.49"/>
</g>
<!-- Node164 -->
<g id="node45" class="node">
<title>Node164</title>
<g id="a_node45"><a xlink:href="imgui__internal_8h.html#a51a84b6be21807818b857a8565d97912" target="_top" xlink:title=" ">
<polygon fill="white" stroke="#666666" points="482,-1506 428,-1506 428,-1487 482,-1487 482,-1506"/>
<text text-anchor="middle" x="455" y="-1494" font-family="Helvetica,sans-Serif" font-size="10.00">ImFloor</text>
</a>
</g>
</g>
<!-- Node2&#45;&gt;Node164 -->
<g id="edge56" class="edge">
<title>Node2&#45;&gt;Node164</title>
<path fill="none" stroke="#63b8ff" d="M264.39,-909.15C275.03,-983.07 343.98,-1456.94 365,-1478.5 378.49,-1492.34 399.48,-1497.05 417.68,-1498.2"/>
<polygon fill="#63b8ff" stroke="#63b8ff" points="417.62,-1501.7 427.73,-1498.51 417.84,-1494.71 417.62,-1501.7"/>
</g>
<!-- Node338 -->
<g id="node46" class="node">
<title>Node338</title>
<g id="a_node46"><a xlink:href="imgui__internal_8h.html#a2fa5cb39358b9b4b5fbe3750e648e19e" target="_top" xlink:title=" ">
<polygon fill="white" stroke="#666666" points="494,-1469 416,-1469 416,-1450 494,-1450 494,-1469"/>
<text text-anchor="middle" x="455" y="-1457" font-family="Helvetica,sans-Serif" font-size="10.00">ImLengthSqr</text>
</a>
</g>
</g>
<!-- Node2&#45;&gt;Node338 -->
<g id="edge57" class="edge">
<title>Node2&#45;&gt;Node338</title>
<path fill="none" stroke="#63b8ff" d="M264.15,-909.01C272.61,-978.03 325.77,-1400.32 365,-1440.5 375.58,-1451.34 390.72,-1456.72 405.52,-1459.22"/>
<polygon fill="#63b8ff" stroke="#63b8ff" points="405.29,-1462.72 415.65,-1460.52 406.18,-1455.78 405.29,-1462.72"/>
</g>
<!-- Node16&#45;&gt;Node18 -->
<g id="edge4" class="edge">
<title>Node16&#45;&gt;Node18</title>
<path fill="none" stroke="#63b8ff" d="M513.76,-1249.03C524.33,-1251.56 535.13,-1254.68 545,-1258.5 577.71,-1271.16 611.98,-1292.02 635.48,-1307.69"/>
<polygon fill="#63b8ff" stroke="#63b8ff" points="633.69,-1310.7 643.94,-1313.41 637.62,-1304.9 633.69,-1310.7"/>
</g>
<!-- Node16&#45;&gt;Node19 -->
<g id="edge5" class="edge">
<title>Node16&#45;&gt;Node19</title>
<path fill="none" stroke="#63b8ff" d="M529.56,-1235.56C605.3,-1231.51 720.04,-1225.37 776.77,-1222.33"/>
<polygon fill="#63b8ff" stroke="#63b8ff" points="777.19,-1225.81 786.98,-1221.79 776.81,-1218.82 777.19,-1225.81"/>
</g>
<!-- Node32&#45;&gt;Node12 -->
<g id="edge8" class="edge">
<title>Node32&#45;&gt;Node12</title>
<path fill="none" stroke="#63b8ff" d="M529.1,-1554.54C556.2,-1560.12 586.42,-1566.33 611.46,-1571.48"/>
<polygon fill="#63b8ff" stroke="#63b8ff" points="611,-1574.96 621.5,-1573.55 612.41,-1568.11 611,-1574.96"/>
</g>
<!-- Node350&#45;&gt;Node391 -->
<g id="edge12" class="edge">
<title>Node350&#45;&gt;Node391</title>
<path fill="none" stroke="#63b8ff" d="M513.11,-1129.87C531.2,-1131.26 551.7,-1132.83 571.65,-1134.35"/>
<polygon fill="#63b8ff" stroke="#63b8ff" points="571.47,-1137.85 581.7,-1135.12 572,-1130.87 571.47,-1137.85"/>
</g>
<!-- Node393&#45;&gt;Node19 -->
<g id="edge14" class="edge">
<title>Node393&#45;&gt;Node19</title>
<path fill="none" stroke="#63b8ff" d="M717.52,-1627.33C730.22,-1621.23 742.61,-1612.85 751,-1601.5 794.17,-1543.09 807.26,-1310.1 810.25,-1240.34"/>
<polygon fill="#63b8ff" stroke="#63b8ff" points="813.75,-1240.4 810.66,-1230.26 806.76,-1240.11 813.75,-1240.4"/>
</g>
<!-- Node396&#45;&gt;Node399 -->
<g id="edge16" class="edge">
<title>Node396&#45;&gt;Node399</title>
<path fill="none" stroke="#63b8ff" d="M520.7,-813.5C536.48,-813.5 553.69,-813.5 570.55,-813.5"/>
<polygon fill="#63b8ff" stroke="#63b8ff" points="570.99,-817 580.99,-813.5 570.99,-810 570.99,-817"/>
</g>
<!-- Node396&#45;&gt;Node400 -->
<g id="edge18" class="edge">
<title>Node396&#45;&gt;Node400</title>
<path fill="none" stroke="#63b8ff" d="M519.5,-823.12C528.29,-825.58 537.03,-828.65 545,-832.5 587.67,-853.11 628.22,-891.97 649.51,-914.39"/>
<polygon fill="#63b8ff" stroke="#63b8ff" points="647.07,-916.91 656.45,-921.84 652.19,-912.13 647.07,-916.91"/>
</g>
<!-- Node399&#45;&gt;Node19 -->
<g id="edge17" class="edge">
<title>Node399&#45;&gt;Node19</title>
<path fill="none" stroke="#63b8ff" d="M678.33,-823.18C696.73,-839.57 732.84,-874.71 751,-912.5 799.38,-1013.17 808.75,-1150.15 810.57,-1200.71"/>
<polygon fill="#63b8ff" stroke="#63b8ff" points="807.07,-1201 810.87,-1210.89 814.07,-1200.79 807.07,-1201"/>
</g>
<!-- Node401&#45;&gt;Node19 -->
<g id="edge20" class="edge">
<title>Node401&#45;&gt;Node19</title>
<path fill="none" stroke="#63b8ff" d="M736.05,-1210.61C750.12,-1212.47 764.34,-1214.34 776.55,-1215.95"/>
<polygon fill="#63b8ff" stroke="#63b8ff" points="776.35,-1219.46 786.72,-1217.3 777.26,-1212.52 776.35,-1219.46"/>
</g>
<!-- Node105&#45;&gt;Node19 -->
<g id="edge27" class="edge">
<title>Node105&#45;&gt;Node19</title>
<path fill="none" stroke="#63b8ff" d="M678.56,-705.08C697.27,-721.32 733.84,-756.25 751,-794.5 784.45,-869.05 804.55,-1127.34 809.69,-1200.85"/>
<polygon fill="#63b8ff" stroke="#63b8ff" points="806.21,-1201.26 810.38,-1211 813.19,-1200.78 806.21,-1201.26"/>
</g>
<!-- Node234&#45;&gt;Node236 -->
<g id="edge33" class="edge">
<title>Node234&#45;&gt;Node236</title>
<path fill="none" stroke="#63b8ff" d="M511.19,-556.44C522.41,-553.26 534.11,-549.84 545,-546.5 572.92,-537.93 604.22,-527.47 627.85,-519.39"/>
<polygon fill="#63b8ff" stroke="#63b8ff" points="629.15,-522.65 637.48,-516.09 626.88,-516.03 629.15,-522.65"/>
</g>
<!-- Node419&#45;&gt;Node25 -->
<g id="edge38" class="edge">
<title>Node419&#45;&gt;Node25</title>
<path fill="none" stroke="#63b8ff" d="M530.27,-331.32C555.01,-333.92 582.21,-336.79 605.66,-339.25"/>
<polygon fill="#63b8ff" stroke="#63b8ff" points="605.49,-342.76 615.8,-340.32 606.23,-335.79 605.49,-342.76"/>
</g>
<!-- Node428&#45;&gt;Node427 -->
<g id="edge42" class="edge">
<title>Node428&#45;&gt;Node427</title>
<path fill="none" stroke="#63b8ff" d="M531.75,-1055.3C550.28,-1056.72 570.12,-1058.24 588.68,-1059.66"/>
<polygon fill="#63b8ff" stroke="#63b8ff" points="588.6,-1063.16 598.84,-1060.43 589.13,-1056.18 588.6,-1063.16"/>
</g>
<!-- Node496&#45;&gt;Node12 -->
<g id="edge60" class="edge">
<title>Node496&#45;&gt;Node12</title>
<path fill="none" stroke="#63b8ff" d="M264.18,-1364.2C270.84,-1417.14 305.53,-1670.51 365,-1715.5 428.8,-1763.77 479.32,-1761.18 545,-1715.5 582.75,-1689.24 549.3,-1651.81 581,-1618.5 590.5,-1608.52 603.22,-1601.16 615.89,-1595.81"/>
<polygon fill="#63b8ff" stroke="#63b8ff" points="617.45,-1598.96 625.51,-1592.09 614.92,-1592.43 617.45,-1598.96"/>
</g>
</g>
</svg>
