<?xml version="1.0" encoding="UTF-8" standalone="no"?>
<!DOCTYPE svg PUBLIC "-//W3C//DTD SVG 1.1//EN"
 "http://www.w3.org/Graphics/SVG/1.1/DTD/svg11.dtd">
<!-- Generated by graphviz version 2.43.0 (0)
 -->
<!-- Title: ImFontBaked_BuildLoadGlyph Pages: 1 -->
<svg width="2105pt" height="630pt"
 viewBox="0.00 0.00 2105.00 629.50" xmlns="http://www.w3.org/2000/svg" xmlns:xlink="http://www.w3.org/1999/xlink">
<g id="graph0" class="graph" transform="scale(1 1) rotate(0) translate(4 625.5)">
<title>ImFontBaked_BuildLoadGlyph</title>
<!-- Node1 -->
<g id="node1" class="node">
<title>Node1</title>
<g id="a_node1"><a xlink:title=" ">
<polygon fill="#999999" stroke="#666666" points="2097,-334 1935,-334 1935,-315 2097,-315 2097,-334"/>
<text text-anchor="middle" x="2016" y="-322" font-family="Helvetica,sans-Serif" font-size="10.00">ImFontBaked_BuildLoadGlyph</text>
</a>
</g>
</g>
<!-- Node2 -->
<g id="node2" class="node">
<title>Node2</title>
<g id="a_node2"><a xlink:href="structImFontBaked.html#a785a4f3372cd8258f17ede065ee3cbad" target="_top" xlink:title=" ">
<polygon fill="white" stroke="#666666" points="1497,-446 1362,-446 1362,-427 1497,-427 1497,-446"/>
<text text-anchor="middle" x="1429.5" y="-434" font-family="Helvetica,sans-Serif" font-size="10.00">ImFontBaked::FindGlyph</text>
</a>
</g>
</g>
<!-- Node1&#45;&gt;Node2 -->
<g id="edge1" class="edge">
<title>Node1&#45;&gt;Node2</title>
<path fill="none" stroke="#63b8ff" d="M1986.19,-338.51C1963.12,-349.14 1929.67,-363.29 1899,-371.5 1758.79,-409.01 1588.86,-425.71 1497.09,-432.45"/>
<polygon fill="#63b8ff" stroke="#63b8ff" points="1987.83,-341.6 1995.4,-334.19 1984.86,-335.27 1987.83,-341.6"/>
</g>
<!-- Node348 -->
<g id="node36" class="node">
<title>Node348</title>
<g id="a_node36"><a xlink:href="structImFontBaked.html#a3669f0bfbacc00ac7d4982c07f40824b" target="_top" xlink:title=" ">
<polygon fill="white" stroke="#666666" points="1892.5,-339.5 1743.5,-339.5 1743.5,-309.5 1892.5,-309.5 1892.5,-339.5"/>
<text text-anchor="start" x="1751.5" y="-327.5" font-family="Helvetica,sans-Serif" font-size="10.00">ImFontBaked::FindGlyphNo</text>
<text text-anchor="middle" x="1818" y="-316.5" font-family="Helvetica,sans-Serif" font-size="10.00">Fallback</text>
</a>
</g>
</g>
<!-- Node1&#45;&gt;Node348 -->
<g id="edge42" class="edge">
<title>Node1&#45;&gt;Node348</title>
<path fill="none" stroke="#63b8ff" d="M1924.77,-324.5C1914.05,-324.5 1903.21,-324.5 1892.75,-324.5"/>
<polygon fill="#63b8ff" stroke="#63b8ff" points="1925,-328 1935,-324.5 1925,-321 1925,-328"/>
</g>
<!-- Node420 -->
<g id="node42" class="node">
<title>Node420</title>
<g id="a_node42"><a xlink:href="imgui__draw_8cpp.html#a5f7fb7564b9bf19c317ce8572d815c80" target="_top" xlink:title=" ">
<polygon fill="white" stroke="#666666" points="1899,-243.5 1737,-243.5 1737,-213.5 1899,-213.5 1899,-243.5"/>
<text text-anchor="start" x="1745" y="-231.5" font-family="Helvetica,sans-Serif" font-size="10.00">ImFontBaked_BuildLoadGlyph</text>
<text text-anchor="middle" x="1818" y="-220.5" font-family="Helvetica,sans-Serif" font-size="10.00">AdvanceX</text>
</a>
</g>
</g>
<!-- Node1&#45;&gt;Node420 -->
<g id="edge50" class="edge">
<title>Node1&#45;&gt;Node420</title>
<path fill="none" stroke="#63b8ff" d="M1987.63,-310.21C1964.21,-298.08 1929.55,-280.33 1899,-265.5 1883.72,-258.08 1866.65,-250.14 1852.21,-243.53"/>
<polygon fill="#63b8ff" stroke="#63b8ff" points="1986.14,-313.38 1996.62,-314.89 1989.36,-307.17 1986.14,-313.38"/>
</g>
<!-- Node3 -->
<g id="node3" class="node">
<title>Node3</title>
<g id="a_node3"><a xlink:href="structImFontAtlas.html#a7b5b4e1374b9ee8ad3cdf624f6ca0ea6" target="_top" xlink:title=" ">
<polygon fill="white" stroke="#666666" points="1304,-411.5 1145,-411.5 1145,-381.5 1304,-381.5 1304,-411.5"/>
<text text-anchor="start" x="1153" y="-399.5" font-family="Helvetica,sans-Serif" font-size="10.00">ImFontAtlas::AddCustomRect</text>
<text text-anchor="middle" x="1224.5" y="-388.5" font-family="Helvetica,sans-Serif" font-size="10.00">FontGlyphForSize</text>
</a>
</g>
</g>
<!-- Node2&#45;&gt;Node3 -->
<g id="edge2" class="edge">
<title>Node2&#45;&gt;Node3</title>
<path fill="none" stroke="#63b8ff" d="M1370.24,-425.02C1348.87,-420.81 1324.36,-415.98 1301.65,-411.51"/>
<polygon fill="#63b8ff" stroke="#63b8ff" points="1369.65,-428.47 1380.13,-426.97 1371,-421.6 1369.65,-428.47"/>
</g>
<!-- Node5 -->
<g id="node5" class="node">
<title>Node5</title>
<g id="a_node5"><a xlink:href="namespaceImGui.html#ae0207d60728f7e6a47dbcd1d7d84e3cb" target="_top" xlink:title=" ">
<polygon fill="white" stroke="#666666" points="880.5,-487 750.5,-487 750.5,-468 880.5,-468 880.5,-487"/>
<text text-anchor="middle" x="815.5" y="-475" font-family="Helvetica,sans-Serif" font-size="10.00">ImGui::DebugNodeFont</text>
</a>
</g>
</g>
<!-- Node2&#45;&gt;Node5 -->
<g id="edge4" class="edge">
<title>Node2&#45;&gt;Node5</title>
<path fill="none" stroke="#63b8ff" d="M1397.69,-450.02C1374.13,-459.78 1340.6,-472.43 1310,-479.5 1146.46,-517.27 1099.98,-518.52 933,-501.5 905.98,-498.75 875.98,-492.49 853.19,-487.05"/>
<polygon fill="#63b8ff" stroke="#63b8ff" points="1399.28,-453.15 1407.14,-446.04 1396.56,-446.7 1399.28,-453.15"/>
</g>
<!-- Node12 -->
<g id="node12" class="node">
<title>Node12</title>
<g id="a_node12"><a xlink:href="namespaceImGui.html#abd7a4ef76bea8c2936225852896e49d8" target="_top" xlink:title=" ">
<polygon fill="white" stroke="#666666" points="1103,-492.5 933,-492.5 933,-462.5 1103,-462.5 1103,-492.5"/>
<text text-anchor="start" x="941" y="-480.5" font-family="Helvetica,sans-Serif" font-size="10.00">ImGui::DebugNodeFontGlyphes</text>
<text text-anchor="middle" x="1018" y="-469.5" font-family="Helvetica,sans-Serif" font-size="10.00">ForSrcMask</text>
</a>
</g>
</g>
<!-- Node2&#45;&gt;Node12 -->
<g id="edge13" class="edge">
<title>Node2&#45;&gt;Node12</title>
<path fill="none" stroke="#63b8ff" d="M1374.32,-447.95C1354.2,-451.84 1331.14,-455.86 1310,-458.5 1240.67,-467.17 1161.53,-472.01 1103.3,-474.64"/>
<polygon fill="#63b8ff" stroke="#63b8ff" points="1375.1,-451.37 1384.24,-446 1373.75,-444.5 1375.1,-451.37"/>
</g>
<!-- Node13 -->
<g id="node13" class="node">
<title>Node13</title>
<g id="a_node13"><a xlink:href="imgui__draw_8cpp.html#abd1950f96c48e04b73b586942c94918d" target="_top" xlink:title=" ">
<polygon fill="white" stroke="#666666" points="1310,-578.5 1139,-578.5 1139,-548.5 1310,-548.5 1310,-578.5"/>
<text text-anchor="start" x="1147" y="-566.5" font-family="Helvetica,sans-Serif" font-size="10.00">ImFontAtlasBuildLegacyPreload</text>
<text text-anchor="middle" x="1224.5" y="-555.5" font-family="Helvetica,sans-Serif" font-size="10.00">AllGlyphRanges</text>
</a>
</g>
</g>
<!-- Node2&#45;&gt;Node13 -->
<g id="edge15" class="edge">
<title>Node2&#45;&gt;Node13</title>
<path fill="none" stroke="#63b8ff" d="M1412.17,-453.35C1390.55,-474.82 1350.45,-511.83 1310,-534.5 1300.39,-539.88 1289.62,-544.51 1279.06,-548.39"/>
<polygon fill="#63b8ff" stroke="#63b8ff" points="1414.7,-455.77 1419.26,-446.21 1409.73,-450.84 1414.7,-455.77"/>
</g>
<!-- Node26 -->
<g id="node21" class="node">
<title>Node26</title>
<g id="a_node21"><a xlink:href="namespaceImGui.html#abdca45672ba94976573c531804e76300" target="_top" xlink:title=" ">
<polygon fill="white" stroke="#666666" points="1089,-207 947,-207 947,-188 1089,-188 1089,-207"/>
<text text-anchor="middle" x="1018" y="-195" font-family="Helvetica,sans-Serif" font-size="10.00">ImGui::PushPasswordFont</text>
</a>
</g>
</g>
<!-- Node2&#45;&gt;Node26 -->
<g id="edge23" class="edge">
<title>Node2&#45;&gt;Node26</title>
<path fill="none" stroke="#63b8ff" d="M1405.3,-421.51C1382.04,-407.08 1344.78,-385.58 1310,-372.5 1237.04,-345.06 1196.07,-386.6 1139,-333.5 1098.86,-296.15 1143.38,-252.59 1103,-215.5 1098.94,-211.77 1094.29,-208.74 1089.32,-206.29"/>
<polygon fill="#63b8ff" stroke="#63b8ff" points="1403.46,-424.48 1413.78,-426.84 1407.18,-418.56 1403.46,-424.48"/>
</g>
<!-- Node135 -->
<g id="node27" class="node">
<title>Node135</title>
<g id="a_node27"><a xlink:href="structImFont.html#a8035b4eee654c1f1799ae435337936d7" target="_top" xlink:title=" ">
<polygon fill="white" stroke="#666666" points="1281,-449 1168,-449 1168,-430 1281,-430 1281,-449"/>
<text text-anchor="middle" x="1224.5" y="-437" font-family="Helvetica,sans-Serif" font-size="10.00">ImFont::RenderChar</text>
</a>
</g>
</g>
<!-- Node2&#45;&gt;Node135 -->
<g id="edge31" class="edge">
<title>Node2&#45;&gt;Node135</title>
<path fill="none" stroke="#63b8ff" d="M1351.49,-437.64C1328.08,-437.98 1302.81,-438.36 1281.1,-438.68"/>
<polygon fill="#63b8ff" stroke="#63b8ff" points="1351.8,-441.13 1361.75,-437.49 1351.7,-434.13 1351.8,-441.13"/>
</g>
<!-- Node346 -->
<g id="node34" class="node">
<title>Node346</title>
<g id="a_node34"><a xlink:href="structImFont.html#ad1c164345a384e750e8dc50c28467765" target="_top" xlink:title=" ">
<polygon fill="white" stroke="#666666" points="1280,-288 1169,-288 1169,-269 1280,-269 1280,-288"/>
<text text-anchor="middle" x="1224.5" y="-276" font-family="Helvetica,sans-Serif" font-size="10.00">ImFont::RenderText</text>
</a>
</g>
</g>
<!-- Node2&#45;&gt;Node346 -->
<g id="edge40" class="edge">
<title>Node2&#45;&gt;Node346</title>
<path fill="none" stroke="#63b8ff" d="M1413.36,-419.14C1396.71,-399.99 1369.25,-368.22 1346,-340.5 1329.76,-321.14 1331.57,-309.65 1310,-296.5 1301.04,-291.03 1290.65,-287.21 1280.3,-284.54"/>
<polygon fill="#63b8ff" stroke="#63b8ff" points="1410.78,-421.51 1419.99,-426.75 1416.06,-416.91 1410.78,-421.51"/>
</g>
<!-- Node4 -->
<g id="node4" class="node">
<title>Node4</title>
<g id="a_node4"><a xlink:href="structImFontAtlas.html#ab5427b1134dc2d82fefb4595054f1a04" target="_top" xlink:title=" ">
<polygon fill="white" stroke="#666666" points="1097.5,-406.5 938.5,-406.5 938.5,-376.5 1097.5,-376.5 1097.5,-406.5"/>
<text text-anchor="start" x="946.5" y="-394.5" font-family="Helvetica,sans-Serif" font-size="10.00">ImFontAtlas::AddCustomRect</text>
<text text-anchor="middle" x="1018" y="-383.5" font-family="Helvetica,sans-Serif" font-size="10.00">FontGlyph</text>
</a>
</g>
</g>
<!-- Node3&#45;&gt;Node4 -->
<g id="edge3" class="edge">
<title>Node3&#45;&gt;Node4</title>
<path fill="none" stroke="#63b8ff" d="M1134.52,-394.32C1122.28,-394.03 1109.77,-393.72 1097.73,-393.42"/>
<polygon fill="#63b8ff" stroke="#63b8ff" points="1134.64,-397.83 1144.73,-394.57 1134.82,-390.83 1134.64,-397.83"/>
</g>
<!-- Node6 -->
<g id="node6" class="node">
<title>Node6</title>
<g id="a_node6"><a xlink:href="namespaceImGui.html#acab51ec2b39577845309f24535381038" target="_top" xlink:title=" ">
<polygon fill="white" stroke="#666666" points="677,-471 553,-471 553,-452 677,-452 677,-471"/>
<text text-anchor="middle" x="615" y="-459" font-family="Helvetica,sans-Serif" font-size="10.00">ImGui::ShowFontAtlas</text>
</a>
</g>
</g>
<!-- Node5&#45;&gt;Node6 -->
<g id="edge5" class="edge">
<title>Node5&#45;&gt;Node6</title>
<path fill="none" stroke="#63b8ff" d="M740.27,-471.52C719.51,-469.84 697.17,-468.04 677.25,-466.44"/>
<polygon fill="#63b8ff" stroke="#63b8ff" points="740.08,-475.01 750.33,-472.33 740.64,-468.04 740.08,-475.01"/>
</g>
<!-- Node7 -->
<g id="node7" class="node">
<title>Node7</title>
<g id="a_node7"><a xlink:href="imgui__demo_8cpp.html#a163f04ccf255dede76e5e54f741ca9d5" target="_top" xlink:title=" ">
<polygon fill="white" stroke="#666666" points="495,-471 344,-471 344,-452 495,-452 495,-471"/>
<text text-anchor="middle" x="419.5" y="-459" font-family="Helvetica,sans-Serif" font-size="10.00">DemoWindowWidgetsFonts</text>
</a>
</g>
</g>
<!-- Node6&#45;&gt;Node7 -->
<g id="edge6" class="edge">
<title>Node6&#45;&gt;Node7</title>
<path fill="none" stroke="#63b8ff" d="M542.76,-461.5C527.27,-461.5 510.85,-461.5 495.24,-461.5"/>
<polygon fill="#63b8ff" stroke="#63b8ff" points="542.78,-465 552.78,-461.5 542.78,-458 542.78,-465"/>
</g>
<!-- Node10 -->
<g id="node10" class="node">
<title>Node10</title>
<g id="a_node10"><a xlink:href="namespaceImGui.html#afe7a28c6eb52fff3cc27d5a698fea4ff" target="_top" xlink:title=" ">
<polygon fill="white" stroke="#666666" points="496,-187 343,-187 343,-168 496,-168 496,-187"/>
<text text-anchor="middle" x="419.5" y="-175" font-family="Helvetica,sans-Serif" font-size="10.00">ImGui::ShowMetricsWindow</text>
</a>
</g>
</g>
<!-- Node6&#45;&gt;Node10 -->
<g id="edge9" class="edge">
<title>Node6&#45;&gt;Node10</title>
<path fill="none" stroke="#63b8ff" d="M586.28,-446.68C568.98,-436.36 547.19,-421.29 532,-403.5 470.63,-331.63 433.44,-220.15 423.32,-187.06"/>
<polygon fill="#63b8ff" stroke="#63b8ff" points="584.95,-449.95 595.36,-451.91 588.44,-443.89 584.95,-449.95"/>
</g>
<!-- Node11 -->
<g id="node11" class="node">
<title>Node11</title>
<g id="a_node11"><a xlink:href="namespaceImGui.html#ab2eb3dec78d054fe3feab1c091ec5de5" target="_top" xlink:title=" ">
<polygon fill="white" stroke="#666666" points="485,-433 354,-433 354,-414 485,-414 485,-433"/>
<text text-anchor="middle" x="419.5" y="-421" font-family="Helvetica,sans-Serif" font-size="10.00">ImGui::ShowStyleEditor</text>
</a>
</g>
</g>
<!-- Node6&#45;&gt;Node11 -->
<g id="edge11" class="edge">
<title>Node6&#45;&gt;Node11</title>
<path fill="none" stroke="#63b8ff" d="M555.25,-449.96C527.65,-444.54 495.15,-438.16 468.98,-433.02"/>
<polygon fill="#63b8ff" stroke="#63b8ff" points="554.68,-453.42 565.17,-451.91 556.03,-446.55 554.68,-453.42"/>
</g>
<!-- Node8 -->
<g id="node8" class="node">
<title>Node8</title>
<g id="a_node8"><a xlink:href="imgui__demo_8cpp.html#a9a639caab781642cbc4f4a23bfbd11cd" target="_top" xlink:title=" ">
<polygon fill="white" stroke="#666666" points="307,-471 182,-471 182,-452 307,-452 307,-471"/>
<text text-anchor="middle" x="244.5" y="-459" font-family="Helvetica,sans-Serif" font-size="10.00">DemoWindowWidgets</text>
</a>
</g>
</g>
<!-- Node7&#45;&gt;Node8 -->
<g id="edge7" class="edge">
<title>Node7&#45;&gt;Node8</title>
<path fill="none" stroke="#63b8ff" d="M333.77,-461.5C324.8,-461.5 315.79,-461.5 307.15,-461.5"/>
<polygon fill="#63b8ff" stroke="#63b8ff" points="333.88,-465 343.88,-461.5 333.88,-458 333.88,-465"/>
</g>
<!-- Node9 -->
<g id="node9" class="node">
<title>Node9</title>
<g id="a_node9"><a xlink:href="namespaceImGui.html#af95643a0ce4893b9e57c12991922fb18" target="_top" xlink:title=" ">
<polygon fill="white" stroke="#666666" points="146,-433 0,-433 0,-414 146,-414 146,-433"/>
<text text-anchor="middle" x="73" y="-421" font-family="Helvetica,sans-Serif" font-size="10.00">ImGui::ShowDemoWindow</text>
</a>
</g>
</g>
<!-- Node8&#45;&gt;Node9 -->
<g id="edge8" class="edge">
<title>Node8&#45;&gt;Node9</title>
<path fill="none" stroke="#63b8ff" d="M190.76,-449.68C166.86,-444.32 138.98,-438.07 116.46,-433.02"/>
<polygon fill="#63b8ff" stroke="#63b8ff" points="190.2,-453.14 200.73,-451.91 191.74,-446.31 190.2,-453.14"/>
</g>
<!-- Node10&#45;&gt;Node9 -->
<g id="edge10" class="edge">
<title>Node10&#45;&gt;Node9</title>
<path fill="none" stroke="#63b8ff" d="M396.67,-193.09C331.55,-239.59 139.88,-376.46 87.41,-413.92"/>
<polygon fill="#63b8ff" stroke="#63b8ff" points="398.89,-195.8 405,-187.14 394.82,-190.11 398.89,-195.8"/>
</g>
<!-- Node11&#45;&gt;Node9 -->
<g id="edge12" class="edge">
<title>Node11&#45;&gt;Node9</title>
<path fill="none" stroke="#63b8ff" d="M343.41,-423.5C284.86,-423.5 204.06,-423.5 146.25,-423.5"/>
<polygon fill="#63b8ff" stroke="#63b8ff" points="343.7,-427 353.7,-423.5 343.7,-420 343.7,-427"/>
</g>
<!-- Node12&#45;&gt;Node5 -->
<g id="edge14" class="edge">
<title>Node12&#45;&gt;Node5</title>
<path fill="none" stroke="#63b8ff" d="M922.55,-477.5C908.35,-477.5 893.99,-477.5 880.63,-477.5"/>
<polygon fill="#63b8ff" stroke="#63b8ff" points="922.84,-481 932.84,-477.5 922.84,-474 922.84,-481"/>
</g>
<!-- Node14 -->
<g id="node14" class="node">
<title>Node14</title>
<g id="a_node14"><a xlink:href="imgui__draw_8cpp.html#a2ed1c49f29c1635abb9d187846311e43" target="_top" xlink:title=" ">
<polygon fill="white" stroke="#666666" points="1080,-573 956,-573 956,-554 1080,-554 1080,-573"/>
<text text-anchor="middle" x="1018" y="-561" font-family="Helvetica,sans-Serif" font-size="10.00">ImFontAtlasBuildMain</text>
</a>
</g>
</g>
<!-- Node13&#45;&gt;Node14 -->
<g id="edge16" class="edge">
<title>Node13&#45;&gt;Node14</title>
<path fill="none" stroke="#63b8ff" d="M1128.64,-563.5C1112.17,-563.5 1095.45,-563.5 1080.18,-563.5"/>
<polygon fill="#63b8ff" stroke="#63b8ff" points="1128.85,-567 1138.85,-563.5 1128.85,-560 1128.85,-567"/>
</g>
<!-- Node15 -->
<g id="node15" class="node">
<title>Node15</title>
<g id="a_node15"><a xlink:href="structImFontAtlas.html#a81e39e30dffa4dd7e458a53297451e27" target="_top" xlink:title=" ">
<polygon fill="white" stroke="#666666" points="868.5,-573 762.5,-573 762.5,-554 868.5,-554 868.5,-573"/>
<text text-anchor="middle" x="815.5" y="-561" font-family="Helvetica,sans-Serif" font-size="10.00">ImFontAtlas::Build</text>
</a>
</g>
</g>
<!-- Node14&#45;&gt;Node15 -->
<g id="edge17" class="edge">
<title>Node14&#45;&gt;Node15</title>
<path fill="none" stroke="#63b8ff" d="M945.44,-563.5C920.07,-563.5 892.02,-563.5 868.58,-563.5"/>
<polygon fill="#63b8ff" stroke="#63b8ff" points="945.75,-567 955.75,-563.5 945.75,-560 945.75,-567"/>
</g>
<!-- Node19 -->
<g id="node17" class="node">
<title>Node19</title>
<g id="a_node17"><a xlink:href="namespaceImGui.html#a8344798d82c6baf9d94f81e445609eb2" target="_top" xlink:title=" ">
<polygon fill="white" stroke="#666666" points="878.5,-536 752.5,-536 752.5,-517 878.5,-517 878.5,-536"/>
<text text-anchor="middle" x="815.5" y="-524" font-family="Helvetica,sans-Serif" font-size="10.00">ImGui::GetDefaultFont</text>
</a>
</g>
</g>
<!-- Node14&#45;&gt;Node19 -->
<g id="edge19" class="edge">
<title>Node14&#45;&gt;Node19</title>
<path fill="none" stroke="#63b8ff" d="M955.33,-552.12C927.46,-546.98 894.89,-540.97 868.31,-536.06"/>
<polygon fill="#63b8ff" stroke="#63b8ff" points="954.9,-555.6 965.37,-553.97 956.17,-548.71 954.9,-555.6"/>
</g>
<!-- Node24 -->
<g id="node19" class="node">
<title>Node24</title>
<g id="a_node19"><a xlink:href="imgui__draw_8cpp.html#a3f94172dde65426b52f7e137a899afb1" target="_top" xlink:title=" ">
<polygon fill="white" stroke="#666666" points="897,-613 734,-613 734,-594 897,-594 897,-613"/>
<text text-anchor="middle" x="815.5" y="-601" font-family="Helvetica,sans-Serif" font-size="10.00">ImFontAtlasUpdateNewFrame</text>
</a>
</g>
</g>
<!-- Node14&#45;&gt;Node24 -->
<g id="edge21" class="edge">
<title>Node14&#45;&gt;Node24</title>
<path fill="none" stroke="#63b8ff" d="M959.28,-575.02C929.16,-581.02 892.76,-588.29 864.25,-593.97"/>
<polygon fill="#63b8ff" stroke="#63b8ff" points="960.11,-578.42 969.23,-573.03 958.74,-571.55 960.11,-578.42"/>
</g>
<!-- Node16 -->
<g id="node16" class="node">
<title>Node16</title>
<g id="a_node16"><a xlink:href="imgui__draw_8cpp.html#a716f90bbbb825a71a7e17de856038d5c" target="_top" xlink:title=" ">
<polygon fill="#fff0f0" stroke="red" points="675,-573 555,-573 555,-554 675,-554 675,-573"/>
<text text-anchor="middle" x="615" y="-561" font-family="Helvetica,sans-Serif" font-size="10.00">GetTexDataAsFormat</text>
</a>
</g>
</g>
<!-- Node15&#45;&gt;Node16 -->
<g id="edge18" class="edge">
<title>Node15&#45;&gt;Node16</title>
<path fill="none" stroke="#63b8ff" d="M752.05,-563.5C727.48,-563.5 699.41,-563.5 675.17,-563.5"/>
<polygon fill="#63b8ff" stroke="#63b8ff" points="752.35,-567 762.35,-563.5 752.35,-560 752.35,-567"/>
</g>
<!-- Node20 -->
<g id="node18" class="node">
<title>Node20</title>
<g id="a_node18"><a xlink:href="namespaceImGui.html#a90f16c53af3ba22af61a6e56dcbd7281" target="_top" xlink:title=" ">
<polygon fill="#fff0f0" stroke="red" points="698,-536 532,-536 532,-517 698,-517 698,-536"/>
<text text-anchor="middle" x="615" y="-524" font-family="Helvetica,sans-Serif" font-size="10.00">ImGui::UpdateFontsNewFrame</text>
</a>
</g>
</g>
<!-- Node19&#45;&gt;Node20 -->
<g id="edge20" class="edge">
<title>Node19&#45;&gt;Node20</title>
<path fill="none" stroke="#63b8ff" d="M742,-526.5C727.72,-526.5 712.64,-526.5 698.07,-526.5"/>
<polygon fill="#63b8ff" stroke="#63b8ff" points="742.24,-530 752.24,-526.5 742.24,-523 742.24,-530"/>
</g>
<!-- Node25 -->
<g id="node20" class="node">
<title>Node25</title>
<g id="a_node20"><a xlink:href="namespaceImGui.html#a50afb067961d5c407afdabc34905a47f" target="_top" xlink:title=" ">
<polygon fill="#fff0f0" stroke="red" points="690,-621.5 540,-621.5 540,-591.5 690,-591.5 690,-621.5"/>
<text text-anchor="start" x="548" y="-609.5" font-family="Helvetica,sans-Serif" font-size="10.00">ImGui::UpdateTexturesNew</text>
<text text-anchor="middle" x="615" y="-598.5" font-family="Helvetica,sans-Serif" font-size="10.00">Frame</text>
</a>
</g>
</g>
<!-- Node24&#45;&gt;Node25 -->
<g id="edge22" class="edge">
<title>Node24&#45;&gt;Node25</title>
<path fill="none" stroke="#63b8ff" d="M723.58,-604.87C712.43,-605.04 701.13,-605.21 690.27,-605.38"/>
<polygon fill="#63b8ff" stroke="#63b8ff" points="723.82,-608.37 733.76,-604.72 723.71,-601.37 723.82,-608.37"/>
</g>
<!-- Node27 -->
<g id="node22" class="node">
<title>Node27</title>
<g id="a_node22"><a xlink:href="namespaceImGui.html#af89af17ecc11653f25fea1e50e195de6" target="_top" xlink:title=" ">
<polygon fill="white" stroke="#666666" points="870,-128 761,-128 761,-109 870,-109 870,-128"/>
<text text-anchor="middle" x="815.5" y="-116" font-family="Helvetica,sans-Serif" font-size="10.00">ImGui::InputTextEx</text>
</a>
</g>
</g>
<!-- Node26&#45;&gt;Node27 -->
<g id="edge24" class="edge">
<title>Node26&#45;&gt;Node27</title>
<path fill="none" stroke="#63b8ff" d="M961.16,-185.09C951.49,-181.95 941.75,-178.13 933,-173.5 914.59,-163.76 915.3,-153.45 897,-143.5 885.04,-137 871.15,-131.92 858.3,-128.09"/>
<polygon fill="#63b8ff" stroke="#63b8ff" points="960.18,-188.45 970.76,-188 962.2,-181.75 960.18,-188.45"/>
</g>
<!-- Node28 -->
<g id="node23" class="node">
<title>Node28</title>
<g id="a_node23"><a xlink:href="namespaceImGui.html#aa72b5760a3a206729723a587ac7c8519" target="_top" xlink:title=" ">
<polygon fill="#fff0f0" stroke="red" points="663.5,-93 566.5,-93 566.5,-74 663.5,-74 663.5,-93"/>
<text text-anchor="middle" x="615" y="-81" font-family="Helvetica,sans-Serif" font-size="10.00">ImGui::InputText</text>
</a>
</g>
</g>
<!-- Node27&#45;&gt;Node28 -->
<g id="edge25" class="edge">
<title>Node27&#45;&gt;Node28</title>
<path fill="none" stroke="#63b8ff" d="M750.6,-107.23C722.36,-102.25 689.72,-96.5 663.66,-91.9"/>
<polygon fill="#63b8ff" stroke="#63b8ff" points="750.33,-110.74 760.78,-109.03 751.54,-103.85 750.33,-110.74"/>
</g>
<!-- Node99 -->
<g id="node24" class="node">
<title>Node99</title>
<g id="a_node24"><a xlink:href="namespaceImGui.html#a0470693929ed9930cbf5b737577c2414" target="_top" xlink:title=" ">
<polygon fill="#fff0f0" stroke="red" points="685,-130 545,-130 545,-111 685,-111 685,-130"/>
<text text-anchor="middle" x="615" y="-118" font-family="Helvetica,sans-Serif" font-size="10.00">ImGui::InputTextMultiline</text>
</a>
</g>
</g>
<!-- Node27&#45;&gt;Node99 -->
<g id="edge27" class="edge">
<title>Node27&#45;&gt;Node99</title>
<path fill="none" stroke="#63b8ff" d="M750.72,-119.14C729.77,-119.35 706.4,-119.59 685.08,-119.8"/>
<polygon fill="#63b8ff" stroke="#63b8ff" points="750.82,-122.64 760.78,-119.04 750.75,-115.64 750.82,-122.64"/>
</g>
<!-- Node100 -->
<g id="node25" class="node">
<title>Node100</title>
<g id="a_node25"><a xlink:href="namespaceImGui.html#aee5a5127f494966ad16e578714e8fac2" target="_top" xlink:title=" ">
<polygon fill="#fff0f0" stroke="red" points="685,-56 545,-56 545,-37 685,-37 685,-56"/>
<text text-anchor="middle" x="615" y="-44" font-family="Helvetica,sans-Serif" font-size="10.00">ImGui::InputTextWithHint</text>
</a>
</g>
</g>
<!-- Node27&#45;&gt;Node100 -->
<g id="edge29" class="edge">
<title>Node27&#45;&gt;Node100</title>
<path fill="none" stroke="#63b8ff" d="M752.79,-105.76C746.27,-103.43 739.88,-100.7 734,-97.5 714.94,-87.12 717.26,-74.5 698,-64.5 691.4,-61.07 684.18,-58.3 676.84,-56.05"/>
<polygon fill="#63b8ff" stroke="#63b8ff" points="751.81,-109.12 762.4,-108.88 753.98,-102.46 751.81,-109.12"/>
</g>
<!-- Node101 -->
<g id="node26" class="node">
<title>Node101</title>
<g id="a_node26"><a xlink:href="namespaceImGui.html#ae85def71d2fcf5409035b583b315964e" target="_top" xlink:title=" ">
<polygon fill="#fff0f0" stroke="red" points="676.5,-19 553.5,-19 553.5,0 676.5,0 676.5,-19"/>
<text text-anchor="middle" x="615" y="-7" font-family="Helvetica,sans-Serif" font-size="10.00">ImGui::TempInputText</text>
</a>
</g>
</g>
<!-- Node27&#45;&gt;Node101 -->
<g id="edge30" class="edge">
<title>Node27&#45;&gt;Node101</title>
<path fill="none" stroke="#63b8ff" d="M751.04,-107.55C744.92,-104.89 739.1,-101.59 734,-97.5 706.7,-75.63 725.72,-48.84 698,-27.5 691.65,-22.61 684.24,-18.99 676.52,-16.32"/>
<polygon fill="#63b8ff" stroke="#63b8ff" points="750.25,-110.99 760.84,-111.23 752.71,-104.44 750.25,-110.99"/>
</g>
<!-- Node28&#45;&gt;Node10 -->
<g id="edge26" class="edge">
<title>Node28&#45;&gt;Node10</title>
<path fill="none" stroke="#63b8ff" d="M556.43,-93.2C548.07,-95.44 539.7,-98.18 532,-101.5 491.56,-118.94 450.38,-151.75 431.36,-167.95"/>
<polygon fill="#63b8ff" stroke="#63b8ff" points="557.34,-96.58 566.2,-90.78 555.65,-89.78 557.34,-96.58"/>
</g>
<!-- Node99&#45;&gt;Node10 -->
<g id="edge28" class="edge">
<title>Node99&#45;&gt;Node10</title>
<path fill="none" stroke="#63b8ff" d="M571.41,-132.94C558.73,-136.65 544.8,-140.73 532,-144.5 505.27,-152.37 474.96,-161.34 452.7,-167.94"/>
<polygon fill="#63b8ff" stroke="#63b8ff" points="572.66,-136.22 581.27,-130.05 570.69,-129.5 572.66,-136.22"/>
</g>
<!-- Node135&#45;&gt;Node12 -->
<g id="edge32" class="edge">
<title>Node135&#45;&gt;Node12</title>
<path fill="none" stroke="#63b8ff" d="M1162.16,-450.9C1142.57,-454.54 1120.59,-458.62 1099.84,-462.48"/>
<polygon fill="#63b8ff" stroke="#63b8ff" points="1162.97,-454.31 1172.16,-449.04 1161.69,-447.43 1162.97,-454.31"/>
</g>
<!-- Node136 -->
<g id="node28" class="node">
<title>Node136</title>
<g id="a_node28"><a xlink:href="namespaceImGui.html#a78e79a68e7bf104b106016ea0c4293ce" target="_top" xlink:title=" ">
<polygon fill="white" stroke="#666666" points="886,-357 745,-357 745,-338 886,-338 886,-357"/>
<text text-anchor="middle" x="815.5" y="-345" font-family="Helvetica,sans-Serif" font-size="10.00">ImGui::RenderTextEllipsis</text>
</a>
</g>
</g>
<!-- Node135&#45;&gt;Node136 -->
<g id="edge33" class="edge">
<title>Node135&#45;&gt;Node136</title>
<path fill="none" stroke="#63b8ff" d="M1157.67,-442.26C1097.73,-442.87 1007.48,-438.98 933,-415.5 891.46,-402.4 848.78,-372.44 828.55,-357.03"/>
<polygon fill="#63b8ff" stroke="#63b8ff" points="1157.81,-445.76 1167.76,-442.11 1157.71,-438.76 1157.81,-445.76"/>
</g>
<!-- Node137 -->
<g id="node29" class="node">
<title>Node137</title>
<g id="a_node29"><a xlink:href="namespaceImGui.html#a14e42bfa66f05d0ae2304e27ee1fb2b3" target="_top" xlink:title=" ">
<polygon fill="#fff0f0" stroke="red" points="680.5,-206 549.5,-206 549.5,-187 680.5,-187 680.5,-206"/>
<text text-anchor="middle" x="615" y="-194" font-family="Helvetica,sans-Serif" font-size="10.00">ImGui::SeparatorTextEx</text>
</a>
</g>
</g>
<!-- Node136&#45;&gt;Node137 -->
<g id="edge34" class="edge">
<title>Node136&#45;&gt;Node137</title>
<path fill="none" stroke="#63b8ff" d="M801.8,-329.29C782.35,-302.67 742.72,-253.21 698,-224.5 685.47,-216.45 670.37,-210.44 656.55,-206.1"/>
<polygon fill="#63b8ff" stroke="#63b8ff" points="799.14,-331.59 807.81,-337.68 804.83,-327.51 799.14,-331.59"/>
</g>
<!-- Node149 -->
<g id="node30" class="node">
<title>Node149</title>
<g id="a_node30"><a xlink:href="namespaceImGui.html#abbdb2619721c7ecaca3fb03d9d905003" target="_top" xlink:title=" ">
<polygon fill="#fff0f0" stroke="red" points="696.5,-394.5 533.5,-394.5 533.5,-364.5 696.5,-364.5 696.5,-394.5"/>
<text text-anchor="start" x="541.5" y="-382.5" font-family="Helvetica,sans-Serif" font-size="10.00">ImGui::TabItemLabelAndClose</text>
<text text-anchor="middle" x="615" y="-371.5" font-family="Helvetica,sans-Serif" font-size="10.00">Button</text>
</a>
</g>
</g>
<!-- Node136&#45;&gt;Node149 -->
<g id="edge36" class="edge">
<title>Node136&#45;&gt;Node149</title>
<path fill="none" stroke="#63b8ff" d="M745.37,-358.65C729.7,-361.17 712.94,-363.87 696.84,-366.47"/>
<polygon fill="#63b8ff" stroke="#63b8ff" points="746.17,-362.06 755.48,-357.01 745.05,-355.15 746.17,-362.06"/>
</g>
<!-- Node229 -->
<g id="node31" class="node">
<title>Node229</title>
<g id="a_node31"><a xlink:href="namespaceImGui.html#a768f1f8de0f5922c7005c952bb40cdc9" target="_top" xlink:title=" ">
<polygon fill="#fff0f0" stroke="red" points="691,-345.5 539,-345.5 539,-315.5 691,-315.5 691,-345.5"/>
<text text-anchor="start" x="547" y="-333.5" font-family="Helvetica,sans-Serif" font-size="10.00">ImGui::TableAngledHeaders</text>
<text text-anchor="middle" x="615" y="-322.5" font-family="Helvetica,sans-Serif" font-size="10.00">RowEx</text>
</a>
</g>
</g>
<!-- Node136&#45;&gt;Node229 -->
<g id="edge37" class="edge">
<title>Node136&#45;&gt;Node229</title>
<path fill="none" stroke="#63b8ff" d="M734.52,-340.65C720.24,-339.43 705.41,-338.16 691.28,-336.95"/>
<polygon fill="#63b8ff" stroke="#63b8ff" points="734.53,-344.16 744.8,-341.53 735.13,-337.19 734.53,-344.16"/>
</g>
<!-- Node260 -->
<g id="node32" class="node">
<title>Node260</title>
<g id="a_node32"><a xlink:href="namespaceImGui.html#ae51bc07bc518779f58def3c0e2d0045c" target="_top" xlink:title=" ">
<polygon fill="#fff0f0" stroke="red" points="671.5,-295 558.5,-295 558.5,-276 671.5,-276 671.5,-295"/>
<text text-anchor="middle" x="615" y="-283" font-family="Helvetica,sans-Serif" font-size="10.00">ImGui::TableHeader</text>
</a>
</g>
</g>
<!-- Node136&#45;&gt;Node260 -->
<g id="edge38" class="edge">
<title>Node136&#45;&gt;Node260</title>
<path fill="none" stroke="#63b8ff" d="M779.6,-334.32C756.59,-325.85 725.7,-314.9 698,-306.5 684.5,-302.4 669.59,-298.43 656.23,-295.06"/>
<polygon fill="#63b8ff" stroke="#63b8ff" points="778.67,-337.7 789.26,-337.9 781.1,-331.14 778.67,-337.7"/>
</g>
<!-- Node340 -->
<g id="node33" class="node">
<title>Node340</title>
<g id="a_node33"><a xlink:href="namespaceImGui.html#a4942b61c60a8ba238b3ca6b6ec472dd0" target="_top" xlink:title=" ">
<polygon fill="#fff0f0" stroke="red" points="673,-253 557,-253 557,-234 673,-234 673,-253"/>
<text text-anchor="middle" x="615" y="-241" font-family="Helvetica,sans-Serif" font-size="10.00">ImGui::TextAlignedV</text>
</a>
</g>
</g>
<!-- Node136&#45;&gt;Node340 -->
<g id="edge39" class="edge">
<title>Node136&#45;&gt;Node340</title>
<path fill="none" stroke="#63b8ff" d="M795.48,-331.25C773.38,-313.11 735.18,-284.03 698,-266.5 686.23,-260.95 672.86,-256.5 660.39,-253.05"/>
<polygon fill="#63b8ff" stroke="#63b8ff" points="793.47,-334.13 803.39,-337.84 797.95,-328.75 793.47,-334.13"/>
</g>
<!-- Node137&#45;&gt;Node10 -->
<g id="edge35" class="edge">
<title>Node137&#45;&gt;Node10</title>
<path fill="none" stroke="#63b8ff" d="M539.17,-189.15C525.07,-187.77 510.32,-186.32 496.19,-184.93"/>
<polygon fill="#63b8ff" stroke="#63b8ff" points="539,-192.65 549.3,-190.15 539.69,-185.69 539,-192.65"/>
</g>
<!-- Node347 -->
<g id="node35" class="node">
<title>Node347</title>
<g id="a_node35"><a xlink:href="structImDrawList.html#ab4845eba06cb069cf1b0afedb0d65747" target="_top" xlink:title=" ">
<polygon fill="white" stroke="#666666" points="1076.5,-358 959.5,-358 959.5,-339 1076.5,-339 1076.5,-358"/>
<text text-anchor="middle" x="1018" y="-346" font-family="Helvetica,sans-Serif" font-size="10.00">ImDrawList::AddText</text>
</a>
</g>
</g>
<!-- Node346&#45;&gt;Node347 -->
<g id="edge41" class="edge">
<title>Node346&#45;&gt;Node347</title>
<path fill="none" stroke="#63b8ff" d="M1158.69,-289.13C1151.9,-291.18 1145.21,-293.61 1139,-296.5 1120.62,-305.05 1121.07,-315.33 1103,-324.5 1090.96,-330.61 1077.14,-335.37 1064.23,-338.98"/>
<polygon fill="#63b8ff" stroke="#63b8ff" points="1159.96,-292.42 1168.68,-286.4 1158.11,-285.66 1159.96,-292.42"/>
</g>
<!-- Node349 -->
<g id="node37" class="node">
<title>Node349</title>
<g id="a_node37"><a xlink:href="imgui__draw_8cpp.html#a8aeb6dc7169490b357dbd3cf2c5eca66" target="_top" xlink:title=" ">
<polygon fill="white" stroke="#666666" points="1699.5,-339.5 1550.5,-339.5 1550.5,-309.5 1699.5,-309.5 1699.5,-339.5"/>
<text text-anchor="start" x="1558.5" y="-327.5" font-family="Helvetica,sans-Serif" font-size="10.00">ImFontAtlasBuildSetupFont</text>
<text text-anchor="middle" x="1625" y="-316.5" font-family="Helvetica,sans-Serif" font-size="10.00">BakedBlanks</text>
</a>
</g>
</g>
<!-- Node348&#45;&gt;Node349 -->
<g id="edge43" class="edge">
<title>Node348&#45;&gt;Node349</title>
<path fill="none" stroke="#63b8ff" d="M1733.21,-324.5C1721.99,-324.5 1710.56,-324.5 1699.53,-324.5"/>
<polygon fill="#63b8ff" stroke="#63b8ff" points="1733.43,-328 1743.43,-324.5 1733.43,-321 1733.43,-328"/>
</g>
<!-- Node418 -->
<g id="node40" class="node">
<title>Node418</title>
<g id="a_node40"><a xlink:href="imgui__draw_8cpp.html#af9e65faab4d4aee635252df4de8f9c20" target="_top" xlink:title=" ">
<polygon fill="white" stroke="#666666" points="1699.5,-387.5 1550.5,-387.5 1550.5,-357.5 1699.5,-357.5 1699.5,-387.5"/>
<text text-anchor="start" x="1558.5" y="-375.5" font-family="Helvetica,sans-Serif" font-size="10.00">ImFontAtlasBuildSetupFont</text>
<text text-anchor="middle" x="1625" y="-364.5" font-family="Helvetica,sans-Serif" font-size="10.00">BakedEllipsis</text>
</a>
</g>
</g>
<!-- Node348&#45;&gt;Node418 -->
<g id="edge46" class="edge">
<title>Node348&#45;&gt;Node418</title>
<path fill="none" stroke="#63b8ff" d="M1747.32,-342.01C1727.11,-347.09 1705.24,-352.59 1685.7,-357.5"/>
<polygon fill="#63b8ff" stroke="#63b8ff" points="1748.25,-345.39 1757.09,-339.56 1746.54,-338.6 1748.25,-345.39"/>
</g>
<!-- Node419 -->
<g id="node41" class="node">
<title>Node419</title>
<g id="a_node41"><a xlink:href="imgui__draw_8cpp.html#a79103c2a11500b322b2be7b77cb061a0" target="_top" xlink:title=" ">
<polygon fill="white" stroke="#666666" points="1699.5,-291.5 1550.5,-291.5 1550.5,-261.5 1699.5,-261.5 1699.5,-291.5"/>
<text text-anchor="start" x="1558.5" y="-279.5" font-family="Helvetica,sans-Serif" font-size="10.00">ImFontAtlasBuildSetupFont</text>
<text text-anchor="middle" x="1625" y="-268.5" font-family="Helvetica,sans-Serif" font-size="10.00">BakedFallback</text>
</a>
</g>
</g>
<!-- Node348&#45;&gt;Node419 -->
<g id="edge48" class="edge">
<title>Node348&#45;&gt;Node419</title>
<path fill="none" stroke="#63b8ff" d="M1747.32,-306.99C1727.11,-301.91 1705.24,-296.41 1685.7,-291.5"/>
<polygon fill="#63b8ff" stroke="#63b8ff" points="1746.54,-310.4 1757.09,-309.44 1748.25,-303.61 1746.54,-310.4"/>
</g>
<!-- Node350 -->
<g id="node38" class="node">
<title>Node350</title>
<g id="a_node38"><a xlink:href="imgui__draw_8cpp.html#a664ece5afb972dbbf75434f405adf8b8" target="_top" xlink:title=" ">
<polygon fill="white" stroke="#666666" points="1491.5,-332 1367.5,-332 1367.5,-313 1491.5,-313 1491.5,-332"/>
<text text-anchor="middle" x="1429.5" y="-320" font-family="Helvetica,sans-Serif" font-size="10.00">ImFontAtlasBakedAdd</text>
</a>
</g>
</g>
<!-- Node349&#45;&gt;Node350 -->
<g id="edge44" class="edge">
<title>Node349&#45;&gt;Node350</title>
<path fill="none" stroke="#63b8ff" d="M1540.23,-323.63C1523.93,-323.47 1507.13,-323.29 1491.73,-323.13"/>
<polygon fill="#63b8ff" stroke="#63b8ff" points="1540.26,-327.13 1550.29,-323.74 1540.33,-320.13 1540.26,-327.13"/>
</g>
<!-- Node351 -->
<g id="node39" class="node">
<title>Node351</title>
<g id="a_node39"><a xlink:href="imgui__draw_8cpp.html#a58a2aab4435ade7b1ad6ada67f0a509f" target="_top" xlink:title=" ">
<polygon fill="#fff0f0" stroke="red" points="1300.5,-325 1148.5,-325 1148.5,-306 1300.5,-306 1300.5,-325"/>
<text text-anchor="middle" x="1224.5" y="-313" font-family="Helvetica,sans-Serif" font-size="10.00">ImFontAtlasBakedGetOrAdd</text>
</a>
</g>
</g>
<!-- Node350&#45;&gt;Node351 -->
<g id="edge45" class="edge">
<title>Node350&#45;&gt;Node351</title>
<path fill="none" stroke="#63b8ff" d="M1357.28,-320.04C1338.92,-319.41 1319.1,-318.73 1300.55,-318.09"/>
<polygon fill="#63b8ff" stroke="#63b8ff" points="1357.2,-323.54 1367.32,-320.39 1357.44,-316.55 1357.2,-323.54"/>
</g>
<!-- Node418&#45;&gt;Node1 -->
<g id="edge47" class="edge">
<title>Node418&#45;&gt;Node1</title>
<path fill="none" stroke="#63b8ff" d="M1709.8,-367.67C1763.97,-363.92 1835.87,-357.77 1899,-348.5 1924.33,-344.78 1952.46,-339 1974.67,-334.05"/>
<polygon fill="#63b8ff" stroke="#63b8ff" points="1709.3,-364.19 1699.56,-368.36 1709.77,-371.18 1709.3,-364.19"/>
</g>
<!-- Node419&#45;&gt;Node1 -->
<g id="edge49" class="edge">
<title>Node419&#45;&gt;Node1</title>
<path fill="none" stroke="#63b8ff" d="M1709.8,-281.33C1763.97,-285.08 1835.87,-291.23 1899,-300.5 1924.33,-304.22 1952.46,-310 1974.67,-314.95"/>
<polygon fill="#63b8ff" stroke="#63b8ff" points="1709.77,-277.82 1699.56,-280.64 1709.3,-284.81 1709.77,-277.82"/>
</g>
<!-- Node421 -->
<g id="node43" class="node">
<title>Node421</title>
<g id="a_node43"><a xlink:href="imgui__draw_8cpp.html#a367aea34d85d56f9b58e5fb32f666c8c" target="_top" xlink:title=" ">
<polygon fill="white" stroke="#666666" points="1701,-243.5 1549,-243.5 1549,-213.5 1701,-213.5 1701,-243.5"/>
<text text-anchor="start" x="1557" y="-231.5" font-family="Helvetica,sans-Serif" font-size="10.00">BuildLoadGlyphGetAdvance</text>
<text text-anchor="middle" x="1625" y="-220.5" font-family="Helvetica,sans-Serif" font-size="10.00">OrFallback</text>
</a>
</g>
</g>
<!-- Node420&#45;&gt;Node421 -->
<g id="edge51" class="edge">
<title>Node420&#45;&gt;Node421</title>
<path fill="none" stroke="#63b8ff" d="M1726.78,-228.5C1718.18,-228.5 1709.52,-228.5 1701.09,-228.5"/>
<polygon fill="#63b8ff" stroke="#63b8ff" points="1726.83,-232 1736.83,-228.5 1726.83,-225 1726.83,-232"/>
</g>
<!-- Node422 -->
<g id="node47" class="node">
<title>Node422</title>
<g id="a_node47"><a xlink:href="structImFontBaked.html#a4aa1c5f921bd4c0c90458b8613f6a51c" target="_top" xlink:title=" ">
<polygon fill="white" stroke="#666666" points="1308.5,-169 1140.5,-169 1140.5,-150 1308.5,-150 1308.5,-169"/>
<text text-anchor="middle" x="1224.5" y="-157" font-family="Helvetica,sans-Serif" font-size="10.00">ImFontBaked::GetCharAdvance</text>
</a>
</g>
</g>
<!-- Node420&#45;&gt;Node422 -->
<g id="edge67" class="edge">
<title>Node420&#45;&gt;Node422</title>
<path fill="none" stroke="#63b8ff" d="M1740.68,-211.47C1727.49,-208.88 1713.88,-206.44 1701,-204.5 1564.27,-183.95 1403.91,-171.08 1308.73,-164.6"/>
<polygon fill="#63b8ff" stroke="#63b8ff" points="1740.18,-214.94 1750.67,-213.47 1741.55,-208.08 1740.18,-214.94"/>
</g>
<!-- Node353 -->
<g id="node44" class="node">
<title>Node353</title>
<g id="a_node44"><a xlink:href="structImFont.html#a418146c00c3dee351a411b952cce5175" target="_top" xlink:title=" ">
<polygon fill="white" stroke="#666666" points="1287,-247 1162,-247 1162,-228 1287,-228 1287,-247"/>
<text text-anchor="middle" x="1224.5" y="-235" font-family="Helvetica,sans-Serif" font-size="10.00">ImFont::CalcTextSizeA</text>
</a>
</g>
</g>
<!-- Node421&#45;&gt;Node353 -->
<g id="edge52" class="edge">
<title>Node421&#45;&gt;Node353</title>
<path fill="none" stroke="#63b8ff" d="M1538.14,-230.44C1462.61,-232.14 1354.49,-234.59 1287.22,-236.11"/>
<polygon fill="#63b8ff" stroke="#63b8ff" points="1538.66,-233.93 1548.58,-230.2 1538.5,-226.93 1538.66,-233.93"/>
</g>
<!-- Node406 -->
<g id="node46" class="node">
<title>Node406</title>
<g id="a_node46"><a xlink:href="structImFont.html#ad0d0e93b46d055601db121e298cc64d8" target="_top" xlink:title=" ">
<polygon fill="white" stroke="#666666" points="1513,-276 1346,-276 1346,-257 1513,-257 1513,-276"/>
<text text-anchor="middle" x="1429.5" y="-264" font-family="Helvetica,sans-Serif" font-size="10.00">ImFont::CalcWordWrapPosition</text>
</a>
</g>
</g>
<!-- Node421&#45;&gt;Node406 -->
<g id="edge64" class="edge">
<title>Node421&#45;&gt;Node406</title>
<path fill="none" stroke="#63b8ff" d="M1538.92,-245.21C1518.41,-249.24 1497.19,-253.4 1479.02,-256.97"/>
<polygon fill="#63b8ff" stroke="#63b8ff" points="1539.77,-248.61 1548.91,-243.25 1538.42,-241.74 1539.77,-248.61"/>
</g>
<!-- Node353&#45;&gt;Node136 -->
<g id="edge63" class="edge">
<title>Node353&#45;&gt;Node136</title>
<path fill="none" stroke="#63b8ff" d="M1163.99,-249.86C1155.41,-252.53 1146.84,-255.72 1139,-259.5 1120.98,-268.18 1121.21,-278.22 1103,-286.5 1063.19,-304.6 947.54,-325.91 875.94,-337.95"/>
<polygon fill="#63b8ff" stroke="#63b8ff" points="1165.02,-253.2 1173.65,-247.05 1163.07,-246.48 1165.02,-253.2"/>
</g>
<!-- Node354 -->
<g id="node45" class="node">
<title>Node354</title>
<g id="a_node45"><a xlink:href="namespaceImGui.html#a848b9db6cc4a186751c0ecebcaadc33b" target="_top" xlink:title=" ">
<polygon fill="#fff0f0" stroke="red" points="1074.5,-244 961.5,-244 961.5,-225 1074.5,-225 1074.5,-244"/>
<text text-anchor="middle" x="1018" y="-232" font-family="Helvetica,sans-Serif" font-size="10.00">ImGui::CalcTextSize</text>
</a>
</g>
</g>
<!-- Node353&#45;&gt;Node354 -->
<g id="edge53" class="edge">
<title>Node353&#45;&gt;Node354</title>
<path fill="none" stroke="#63b8ff" d="M1151.59,-236.45C1126.32,-236.07 1098.32,-235.66 1074.59,-235.32"/>
<polygon fill="#63b8ff" stroke="#63b8ff" points="1151.82,-239.95 1161.87,-236.6 1151.92,-232.95 1151.82,-239.95"/>
</g>
<!-- Node354&#45;&gt;Node10 -->
<g id="edge57" class="edge">
<title>Node354&#45;&gt;Node10</title>
<path fill="none" stroke="#63b8ff" d="M961.99,-222.67C952.3,-220.41 942.33,-217.98 933,-215.5 916.83,-211.21 913.34,-208.08 897,-204.5 809.81,-185.4 787.05,-183.51 698,-177.5 629.86,-172.9 552.1,-173.39 496.27,-174.75"/>
<polygon fill="#63b8ff" stroke="#63b8ff" points="961.42,-226.13 971.95,-224.96 962.98,-219.31 961.42,-226.13"/>
</g>
<!-- Node354&#45;&gt;Node11 -->
<g id="edge58" class="edge">
<title>Node354&#45;&gt;Node11</title>
<path fill="none" stroke="#63b8ff" d="M999.76,-251.71C981.88,-270.05 953.69,-300.41 933,-329.5 914.09,-356.1 924.64,-376.15 897,-393.5 830.22,-435.43 599.53,-431.61 485.44,-426.88"/>
<polygon fill="#63b8ff" stroke="#63b8ff" points="1002.66,-253.75 1007.18,-244.17 997.67,-248.84 1002.66,-253.75"/>
</g>
<!-- Node354&#45;&gt;Node27 -->
<g id="edge54" class="edge">
<title>Node354&#45;&gt;Node27</title>
<path fill="none" stroke="#63b8ff" d="M951.53,-225.86C944.87,-223.22 938.53,-219.84 933,-215.5 904.84,-193.43 924.27,-166.66 897,-143.5 888.97,-136.68 879.09,-131.72 869.03,-128.11"/>
<polygon fill="#63b8ff" stroke="#63b8ff" points="950.86,-229.33 961.45,-229.21 953.1,-222.7 950.86,-229.33"/>
</g>
<!-- Node354&#45;&gt;Node136 -->
<g id="edge55" class="edge">
<title>Node354&#45;&gt;Node136</title>
<path fill="none" stroke="#63b8ff" d="M951.8,-247.42C945.06,-250.38 938.63,-254.02 933,-258.5 907.15,-279.05 922.73,-302.8 897,-323.5 889.16,-329.81 879.7,-334.46 870.06,-337.89"/>
<polygon fill="#63b8ff" stroke="#63b8ff" points="953.08,-250.67 961.13,-243.78 950.54,-244.15 953.08,-250.67"/>
</g>
<!-- Node354&#45;&gt;Node137 -->
<g id="edge56" class="edge">
<title>Node354&#45;&gt;Node137</title>
<path fill="none" stroke="#63b8ff" d="M951,-228.25C876.13,-221.15 754.83,-209.66 680.57,-202.62"/>
<polygon fill="#63b8ff" stroke="#63b8ff" points="950.96,-231.76 961.24,-229.22 951.62,-224.79 950.96,-231.76"/>
</g>
<!-- Node354&#45;&gt;Node149 -->
<g id="edge59" class="edge">
<title>Node354&#45;&gt;Node149</title>
<path fill="none" stroke="#63b8ff" d="M1002.01,-251.68C971.37,-286.69 903.91,-363.25 897,-366.5 834.36,-395.96 754.93,-396.78 696.52,-391.65"/>
<polygon fill="#63b8ff" stroke="#63b8ff" points="1004.67,-253.96 1008.61,-244.12 999.4,-249.35 1004.67,-253.96"/>
</g>
<!-- Node354&#45;&gt;Node229 -->
<g id="edge60" class="edge">
<title>Node354&#45;&gt;Node229</title>
<path fill="none" stroke="#63b8ff" d="M967.27,-246.86C955.86,-250.21 943.89,-254.13 933,-258.5 916.21,-265.24 914.08,-271.53 897,-277.5 829.39,-301.11 748.76,-314.94 691.24,-322.52"/>
<polygon fill="#63b8ff" stroke="#63b8ff" points="968.45,-250.17 977.12,-244.08 966.54,-243.43 968.45,-250.17"/>
</g>
<!-- Node354&#45;&gt;Node260 -->
<g id="edge61" class="edge">
<title>Node354&#45;&gt;Node260</title>
<path fill="none" stroke="#63b8ff" d="M951.06,-245.47C933.52,-248.24 914.56,-251.11 897,-253.5 818.91,-264.12 728.29,-274 671.54,-279.9"/>
<polygon fill="#63b8ff" stroke="#63b8ff" points="951.89,-248.88 961.21,-243.85 950.79,-241.97 951.89,-248.88"/>
</g>
<!-- Node354&#45;&gt;Node340 -->
<g id="edge62" class="edge">
<title>Node354&#45;&gt;Node340</title>
<path fill="none" stroke="#63b8ff" d="M951.13,-235.98C873.75,-237.71 746.65,-240.57 673.23,-242.22"/>
<polygon fill="#63b8ff" stroke="#63b8ff" points="951.32,-239.48 961.24,-235.75 951.17,-232.48 951.32,-239.48"/>
</g>
<!-- Node406&#45;&gt;Node346 -->
<g id="edge66" class="edge">
<title>Node406&#45;&gt;Node346</title>
<path fill="none" stroke="#63b8ff" d="M1335.73,-271.98C1316.7,-273.11 1297.25,-274.26 1280.1,-275.27"/>
<polygon fill="#63b8ff" stroke="#63b8ff" points="1336.16,-275.46 1345.93,-271.38 1335.74,-268.48 1336.16,-275.46"/>
</g>
<!-- Node406&#45;&gt;Node353 -->
<g id="edge65" class="edge">
<title>Node406&#45;&gt;Node353</title>
<path fill="none" stroke="#63b8ff" d="M1351.74,-255.53C1330.4,-252.49 1307.5,-249.21 1287.14,-246.31"/>
<polygon fill="#63b8ff" stroke="#63b8ff" points="1351.35,-259.01 1361.75,-256.96 1352.34,-252.09 1351.35,-259.01"/>
</g>
<!-- Node422&#45;&gt;Node27 -->
<g id="edge71" class="edge">
<title>Node422&#45;&gt;Node27</title>
<path fill="none" stroke="#63b8ff" d="M1130.19,-156.28C1073.09,-153.59 998.63,-148.81 933,-140.5 908.7,-137.42 881.82,-132.45 860.01,-128.01"/>
<polygon fill="#63b8ff" stroke="#63b8ff" points="1130.14,-159.78 1140.29,-156.74 1130.46,-152.79 1130.14,-159.78"/>
</g>
<!-- Node422&#45;&gt;Node136 -->
<g id="edge72" class="edge">
<title>Node422&#45;&gt;Node136</title>
<path fill="none" stroke="#63b8ff" d="M1199.95,-174.59C1182.62,-186.01 1158.73,-202.44 1139,-218.5 1121.93,-232.39 1122.55,-242.39 1103,-252.5 1034.55,-287.88 1004.19,-257.01 933,-286.5 915.23,-293.86 913.79,-301.12 897,-310.5 878.33,-320.93 856.21,-330.94 839.88,-337.91"/>
<polygon fill="#63b8ff" stroke="#63b8ff" points="1201.9,-177.49 1208.36,-169.1 1198.08,-171.63 1201.9,-177.49"/>
</g>
<!-- Node423 -->
<g id="node48" class="node">
<title>Node423</title>
<g id="a_node48"><a xlink:href="imgui__widgets_8cpp.html#aaf5aa0f65b4ed782ca22b061f6b0d386" target="_top" xlink:title=" ">
<polygon fill="white" stroke="#666666" points="1079.5,-83 956.5,-83 956.5,-64 1079.5,-64 1079.5,-83"/>
<text text-anchor="middle" x="1018" y="-71" font-family="Helvetica,sans-Serif" font-size="10.00">InputTextCalcTextSize</text>
</a>
</g>
</g>
<!-- Node422&#45;&gt;Node423 -->
<g id="edge68" class="edge">
<title>Node422&#45;&gt;Node423</title>
<path fill="none" stroke="#63b8ff" d="M1200.76,-144.26C1177.22,-129.11 1138.93,-106.23 1103,-92.5 1093.22,-88.76 1082.51,-85.65 1072.11,-83.1"/>
<polygon fill="#63b8ff" stroke="#63b8ff" points="1199.03,-147.31 1209.32,-149.84 1202.85,-141.44 1199.03,-147.31"/>
</g>
<!-- Node425 -->
<g id="node50" class="node">
<title>Node425</title>
<g id="a_node50"><a xlink:href="namespaceImStb.html#a0f7912ed04140f7deb98a81163ca919d" target="_top" xlink:title=" ">
<polygon fill="white" stroke="#666666" points="1079,-131.5 957,-131.5 957,-101.5 1079,-101.5 1079,-131.5"/>
<text text-anchor="start" x="965" y="-119.5" font-family="Helvetica,sans-Serif" font-size="10.00">ImStb::STB_TEXTEDIT</text>
<text text-anchor="middle" x="1018" y="-108.5" font-family="Helvetica,sans-Serif" font-size="10.00">_GETWIDTH</text>
</a>
</g>
</g>
<!-- Node422&#45;&gt;Node425 -->
<g id="edge73" class="edge">
<title>Node422&#45;&gt;Node425</title>
<path fill="none" stroke="#63b8ff" d="M1168.23,-147.88C1140.65,-142.08 1107.22,-135.05 1079.01,-129.12"/>
<polygon fill="#63b8ff" stroke="#63b8ff" points="1167.61,-151.32 1178.11,-149.96 1169.05,-144.47 1167.61,-151.32"/>
</g>
<!-- Node423&#45;&gt;Node27 -->
<g id="edge69" class="edge">
<title>Node423&#45;&gt;Node27</title>
<path fill="none" stroke="#63b8ff" d="M964.58,-85.27C931.67,-92.65 889.78,-102.05 858.96,-108.97"/>
<polygon fill="#63b8ff" stroke="#63b8ff" points="965.49,-88.65 974.48,-83.04 963.96,-81.82 965.49,-88.65"/>
</g>
<!-- Node424 -->
<g id="node49" class="node">
<title>Node424</title>
<g id="a_node49"><a xlink:href="namespaceImStb.html#ab4b8a7af0c0063874a6f7ed7e6d0bec9" target="_top" xlink:title=" ">
<polygon fill="white" stroke="#666666" points="876.5,-88.5 754.5,-88.5 754.5,-58.5 876.5,-58.5 876.5,-88.5"/>
<text text-anchor="start" x="762.5" y="-76.5" font-family="Helvetica,sans-Serif" font-size="10.00">ImStb::STB_TEXTEDIT</text>
<text text-anchor="middle" x="815.5" y="-65.5" font-family="Helvetica,sans-Serif" font-size="10.00">_LAYOUTROW</text>
</a>
</g>
</g>
<!-- Node423&#45;&gt;Node424 -->
<g id="edge70" class="edge">
<title>Node423&#45;&gt;Node424</title>
<path fill="none" stroke="#63b8ff" d="M946.05,-73.5C923.37,-73.5 898.49,-73.5 876.65,-73.5"/>
<polygon fill="#63b8ff" stroke="#63b8ff" points="946.3,-77 956.3,-73.5 946.3,-70 946.3,-77"/>
</g>
</g>
</svg>
