<?xml version="1.0" encoding="UTF-8" standalone="no"?>
<!DOCTYPE svg PUBLIC "-//W3C//DTD SVG 1.1//EN"
 "http://www.w3.org/Graphics/SVG/1.1/DTD/svg11.dtd">
<!-- Generated by graphviz version 2.43.0 (0)
 -->
<!-- Title: ImGui_ImplWin32_GetDpiScaleForMonitor Pages: 1 -->
<svg width="1365pt" height="137pt"
 viewBox="0.00 0.00 1365.00 137.00" xmlns="http://www.w3.org/2000/svg" xmlns:xlink="http://www.w3.org/1999/xlink">
<g id="graph0" class="graph" transform="scale(1 1) rotate(0) translate(4 133)">
<title>ImGui_ImplWin32_GetDpiScaleForMonitor</title>
<!-- Node1 -->
<g id="node1" class="node">
<title>Node1</title>
<g id="a_node1"><a xlink:title=" ">
<polygon fill="#999999" stroke="#666666" points="1357,-89 1188,-89 1188,-59 1357,-59 1357,-89"/>
<text text-anchor="start" x="1196" y="-77" font-family="Helvetica,sans-Serif" font-size="10.00">ImGui_ImplWin32_GetDpiScale</text>
<text text-anchor="middle" x="1272.5" y="-66" font-family="Helvetica,sans-Serif" font-size="10.00">ForMonitor</text>
</a>
</g>
</g>
<!-- Node2 -->
<g id="node2" class="node">
<title>Node2</title>
<g id="a_node2"><a xlink:href="imgui__impl__win32_8cpp.html#a63408fa92e0f85dcf74b27ba6b81f7f4" target="_top" xlink:title=" ">
<polygon fill="white" stroke="#666666" points="1143,-113 974,-113 974,-83 1143,-83 1143,-113"/>
<text text-anchor="start" x="982" y="-101" font-family="Helvetica,sans-Serif" font-size="10.00">ImGui_ImplWin32_GetDpiScale</text>
<text text-anchor="middle" x="1058.5" y="-90" font-family="Helvetica,sans-Serif" font-size="10.00">ForHwnd</text>
</a>
</g>
</g>
<!-- Node1&#45;&gt;Node2 -->
<g id="edge1" class="edge">
<title>Node1&#45;&gt;Node2</title>
<path fill="none" stroke="#63b8ff" d="M1177.64,-84.63C1166.11,-85.93 1154.39,-87.26 1143.03,-88.54"/>
<polygon fill="#63b8ff" stroke="#63b8ff" points="1178.17,-88.09 1187.71,-83.49 1177.38,-81.13 1178.17,-88.09"/>
</g>
<!-- Node9 -->
<g id="node9" class="node">
<title>Node9</title>
<g id="a_node9"><a xlink:href="imgui__impl__win32_8cpp.html#a406c6a8e48cae7dcb70e768176599416" target="_top" xlink:title=" ">
<polygon fill="white" stroke="#666666" points="1152,-65 965,-65 965,-35 1152,-35 1152,-65"/>
<text text-anchor="start" x="973" y="-53" font-family="Helvetica,sans-Serif" font-size="10.00">ImGui_ImplWin32_UpdateMonitors</text>
<text text-anchor="middle" x="1058.5" y="-42" font-family="Helvetica,sans-Serif" font-size="10.00">_EnumFunc</text>
</a>
</g>
</g>
<!-- Node1&#45;&gt;Node9 -->
<g id="edge8" class="edge">
<title>Node1&#45;&gt;Node9</title>
<path fill="none" stroke="#63b8ff" d="M1177.77,-63.39C1169.25,-62.42 1160.63,-61.45 1152.12,-60.48"/>
<polygon fill="#63b8ff" stroke="#63b8ff" points="1177.38,-66.87 1187.71,-64.51 1178.17,-59.91 1177.38,-66.87"/>
</g>
<!-- Node3 -->
<g id="node3" class="node">
<title>Node3</title>
<g id="a_node3"><a xlink:href="imgui__impl__win32_8cpp.html#ad0c9d8b96ddfa493059d4c41e7db6492" target="_top" xlink:title=" ">
<polygon fill="white" stroke="#666666" points="918,-112 753,-112 753,-82 918,-82 918,-112"/>
<text text-anchor="start" x="761" y="-100" font-family="Helvetica,sans-Serif" font-size="10.00">ImGui_ImplWin32_GetWindow</text>
<text text-anchor="middle" x="835.5" y="-89" font-family="Helvetica,sans-Serif" font-size="10.00">DpiScale</text>
</a>
</g>
</g>
<!-- Node2&#45;&gt;Node3 -->
<g id="edge2" class="edge">
<title>Node2&#45;&gt;Node3</title>
<path fill="none" stroke="#63b8ff" d="M963.61,-97.58C948.56,-97.51 933.08,-97.44 918.34,-97.37"/>
<polygon fill="#63b8ff" stroke="#63b8ff" points="963.93,-101.08 973.95,-97.62 963.97,-94.08 963.93,-101.08"/>
</g>
<!-- Node4 -->
<g id="node4" class="node">
<title>Node4</title>
<g id="a_node4"><a xlink:href="imgui__impl__win32_8cpp.html#a580ea37efc232c8e76da164e876e0f54" target="_top" xlink:title=" ">
<polygon fill="white" stroke="#666666" points="700,-111 551,-111 551,-81 700,-81 700,-111"/>
<text text-anchor="start" x="559" y="-99" font-family="Helvetica,sans-Serif" font-size="10.00">ImGui_ImplWin32_InitMulti</text>
<text text-anchor="middle" x="625.5" y="-88" font-family="Helvetica,sans-Serif" font-size="10.00">ViewportSupport</text>
</a>
</g>
</g>
<!-- Node3&#45;&gt;Node4 -->
<g id="edge3" class="edge">
<title>Node3&#45;&gt;Node4</title>
<path fill="none" stroke="#63b8ff" d="M742.6,-96.56C728.38,-96.49 713.85,-96.42 700.09,-96.35"/>
<polygon fill="#63b8ff" stroke="#63b8ff" points="742.87,-100.06 752.89,-96.61 742.91,-93.06 742.87,-100.06"/>
</g>
<!-- Node5 -->
<g id="node5" class="node">
<title>Node5</title>
<g id="a_node5"><a xlink:href="imgui__impl__win32_8cpp.html#aae36e87f5370bd86a7ea10c76f742ccb" target="_top" xlink:title=" ">
<polygon fill="white" stroke="#666666" points="509,-95.5 372,-95.5 372,-76.5 509,-76.5 509,-95.5"/>
<text text-anchor="middle" x="440.5" y="-83.5" font-family="Helvetica,sans-Serif" font-size="10.00">ImGui_ImplWin32_InitEx</text>
</a>
</g>
</g>
<!-- Node4&#45;&gt;Node5 -->
<g id="edge4" class="edge">
<title>Node4&#45;&gt;Node5</title>
<path fill="none" stroke="#63b8ff" d="M540.75,-91.42C530.14,-90.84 519.39,-90.26 509.07,-89.69"/>
<polygon fill="#63b8ff" stroke="#63b8ff" points="540.68,-94.92 550.86,-91.98 541.06,-87.94 540.68,-94.92"/>
</g>
<!-- Node6 -->
<g id="node6" class="node">
<title>Node6</title>
<g id="a_node6"><a xlink:href="imgui__impl__win32_8cpp.html#a9f752412a1f6dfdf6fc00dbbd90a8428" target="_top" xlink:title=" ">
<polygon fill="white" stroke="#666666" points="309.5,-123.5 184.5,-123.5 184.5,-104.5 309.5,-104.5 309.5,-123.5"/>
<text text-anchor="middle" x="247" y="-111.5" font-family="Helvetica,sans-Serif" font-size="10.00">ImGui_ImplWin32_Init</text>
</a>
</g>
</g>
<!-- Node5&#45;&gt;Node6 -->
<g id="edge5" class="edge">
<title>Node5&#45;&gt;Node6</title>
<path fill="none" stroke="#63b8ff" d="M364.45,-96.97C346.31,-99.63 327.13,-102.43 309.69,-104.98"/>
<polygon fill="#63b8ff" stroke="#63b8ff" points="365.01,-100.43 374.4,-95.52 364,-93.5 365.01,-100.43"/>
</g>
<!-- Node8 -->
<g id="node8" class="node">
<title>Node8</title>
<g id="a_node8"><a xlink:href="imgui__impl__win32_8cpp.html#a62c65c5f453046a14119bc62234ac5b7" target="_top" xlink:title=" ">
<polygon fill="white" stroke="#666666" points="336,-86.5 158,-86.5 158,-67.5 336,-67.5 336,-86.5"/>
<text text-anchor="middle" x="247" y="-74.5" font-family="Helvetica,sans-Serif" font-size="10.00">ImGui_ImplWin32_InitForOpenGL</text>
</a>
</g>
</g>
<!-- Node5&#45;&gt;Node8 -->
<g id="edge7" class="edge">
<title>Node5&#45;&gt;Node8</title>
<path fill="none" stroke="#63b8ff" d="M361.76,-82.35C353.29,-81.95 344.62,-81.54 336.04,-81.14"/>
<polygon fill="#63b8ff" stroke="#63b8ff" points="361.83,-85.85 371.98,-82.83 362.16,-78.86 361.83,-85.85"/>
</g>
<!-- Node7 -->
<g id="node7" class="node">
<title>Node7</title>
<g id="a_node7"><a xlink:href="classmtgb_1_1ImGuiRenderer.html#a4db4a95a57f586a5fda30be1957f247a" target="_top" xlink:title=" ">
<polygon fill="white" stroke="#666666" points="122,-129 0,-129 0,-99 122,-99 122,-129"/>
<text text-anchor="start" x="8" y="-117" font-family="Helvetica,sans-Serif" font-size="10.00">mtgb::ImGuiRenderer</text>
<text text-anchor="middle" x="61" y="-106" font-family="Helvetica,sans-Serif" font-size="10.00">::Initialize</text>
</a>
</g>
</g>
<!-- Node6&#45;&gt;Node7 -->
<g id="edge6" class="edge">
<title>Node6&#45;&gt;Node7</title>
<path fill="none" stroke="#63b8ff" d="M174.45,-114C157.18,-114 138.9,-114 122.22,-114"/>
<polygon fill="#63b8ff" stroke="#63b8ff" points="174.47,-117.5 184.47,-114 174.47,-110.5 174.47,-117.5"/>
</g>
<!-- Node10 -->
<g id="node10" class="node">
<title>Node10</title>
<g id="a_node10"><a xlink:href="imgui__impl__win32_8cpp.html#a89e9a7d37283f923c83cb50573b5e1d9" target="_top" xlink:title=" ">
<polygon fill="white" stroke="#666666" points="929,-61.5 742,-61.5 742,-42.5 929,-42.5 929,-61.5"/>
<text text-anchor="middle" x="835.5" y="-49.5" font-family="Helvetica,sans-Serif" font-size="10.00">ImGui_ImplWin32_UpdateMonitors</text>
</a>
</g>
</g>
<!-- Node9&#45;&gt;Node10 -->
<g id="edge9" class="edge">
<title>Node9&#45;&gt;Node10</title>
<path fill="none" stroke="#63b8ff" d="M954.72,-50.93C946.15,-51.01 937.51,-51.09 929.03,-51.16"/>
<polygon fill="#63b8ff" stroke="#63b8ff" points="954.77,-54.43 964.74,-50.84 954.71,-47.43 954.77,-54.43"/>
</g>
<!-- Node10&#45;&gt;Node4 -->
<g id="edge11" class="edge">
<title>Node10&#45;&gt;Node4</title>
<path fill="none" stroke="#63b8ff" d="M779.32,-63.67C754.3,-68.96 724.41,-75.29 697.72,-80.93"/>
<polygon fill="#63b8ff" stroke="#63b8ff" points="780.31,-67.04 789.37,-61.55 778.86,-60.19 780.31,-67.04"/>
</g>
<!-- Node10&#45;&gt;Node5 -->
<g id="edge10" class="edge">
<title>Node10&#45;&gt;Node5</title>
<path fill="none" stroke="#63b8ff" d="M731.63,-57.46C676.25,-60.82 606.81,-65.69 545,-72 532.73,-73.25 519.68,-74.83 507.13,-76.46"/>
<polygon fill="#63b8ff" stroke="#63b8ff" points="732.03,-60.95 741.8,-56.86 731.61,-53.96 732.03,-60.95"/>
</g>
<!-- Node11 -->
<g id="node11" class="node">
<title>Node11</title>
<g id="a_node11"><a xlink:href="imgui__impl__win32_8cpp.html#ade4f55b90fdbd75a562d894d33f1909e" target="_top" xlink:title=" ">
<polygon fill="white" stroke="#666666" points="706,-24.5 545,-24.5 545,-5.5 706,-5.5 706,-24.5"/>
<text text-anchor="middle" x="625.5" y="-12.5" font-family="Helvetica,sans-Serif" font-size="10.00">ImGui_ImplWin32_NewFrame</text>
</a>
</g>
</g>
<!-- Node10&#45;&gt;Node11 -->
<g id="edge12" class="edge">
<title>Node10&#45;&gt;Node11</title>
<path fill="none" stroke="#63b8ff" d="M770.9,-40.69C741.9,-35.53 707.94,-29.49 680.24,-24.56"/>
<polygon fill="#63b8ff" stroke="#63b8ff" points="770.48,-44.17 780.93,-42.47 771.7,-37.27 770.48,-44.17"/>
</g>
<!-- Node12 -->
<g id="node12" class="node">
<title>Node12</title>
<g id="a_node12"><a xlink:href="classmtgb_1_1ImGuiRenderer.html#a4684d4374beee1f52053b4634edae2c8" target="_top" xlink:title=" ">
<polygon fill="white" stroke="#666666" points="501.5,-30 379.5,-30 379.5,0 501.5,0 501.5,-30"/>
<text text-anchor="start" x="387.5" y="-18" font-family="Helvetica,sans-Serif" font-size="10.00">mtgb::ImGuiRenderer</text>
<text text-anchor="middle" x="440.5" y="-7" font-family="Helvetica,sans-Serif" font-size="10.00">::BeginFrame</text>
</a>
</g>
</g>
<!-- Node11&#45;&gt;Node12 -->
<g id="edge13" class="edge">
<title>Node11&#45;&gt;Node12</title>
<path fill="none" stroke="#63b8ff" d="M534.56,-15C523.42,-15 512.25,-15 501.7,-15"/>
<polygon fill="#63b8ff" stroke="#63b8ff" points="534.77,-18.5 544.77,-15 534.77,-11.5 534.77,-18.5"/>
</g>
<!-- Node13 -->
<g id="node13" class="node">
<title>Node13</title>
<g id="a_node13"><a xlink:href="classmtgb_1_1RenderSystem.html#a14e39d4590efdf77c2085b12c6f3cdf5" target="_top" xlink:title=" ">
<polygon fill="white" stroke="#666666" points="312.5,-30 181.5,-30 181.5,0 312.5,0 312.5,-30"/>
<text text-anchor="start" x="189.5" y="-18" font-family="Helvetica,sans-Serif" font-size="10.00">mtgb::RenderSystem</text>
<text text-anchor="middle" x="247" y="-7" font-family="Helvetica,sans-Serif" font-size="10.00">::RenderImGuiWindows</text>
</a>
</g>
</g>
<!-- Node12&#45;&gt;Node13 -->
<g id="edge14" class="edge">
<title>Node12&#45;&gt;Node13</title>
<path fill="none" stroke="#63b8ff" d="M369.33,-15C350.86,-15 331.01,-15 312.83,-15"/>
<polygon fill="#63b8ff" stroke="#63b8ff" points="369.43,-18.5 379.43,-15 369.43,-11.5 369.43,-18.5"/>
</g>
</g>
</svg>
