<?xml version="1.0" encoding="UTF-8" standalone="no"?>
<!DOCTYPE svg PUBLIC "-//W3C//DTD SVG 1.1//EN"
 "http://www.w3.org/Graphics/SVG/1.1/DTD/svg11.dtd">
<!-- Generated by graphviz version 2.43.0 (0)
 -->
<!-- Title: WindowSettingsHandler_WriteAll Pages: 1 -->
<svg width="929pt" height="317pt"
 viewBox="0.00 0.00 929.00 317.34" xmlns="http://www.w3.org/2000/svg" xmlns:xlink="http://www.w3.org/1999/xlink">
<g id="graph0" class="graph" transform="scale(1 1) rotate(0) translate(4 313.34)">
<title>WindowSettingsHandler_WriteAll</title>
<!-- Node1 -->
<g id="node1" class="node">
<title>Node1</title>
<g id="a_node1"><a xlink:title=" ">
<polygon fill="#999999" stroke="#666666" points="134,-177.5 0,-177.5 0,-147.5 134,-147.5 134,-177.5"/>
<text text-anchor="start" x="8" y="-165.5" font-family="Helvetica,sans-Serif" font-size="10.00">WindowSettingsHandler</text>
<text text-anchor="middle" x="67" y="-154.5" font-family="Helvetica,sans-Serif" font-size="10.00">_WriteAll</text>
</a>
</g>
</g>
<!-- Node2 -->
<g id="node2" class="node">
<title>Node2</title>
<g id="a_node2"><a xlink:href="structImChunkStream.html#a10a9b29c856b3f84ce8811ebfaf2cfe8" target="_top" xlink:title=" ">
<polygon fill="white" stroke="#666666" points="907.5,-274 779.5,-274 779.5,-255 907.5,-255 907.5,-274"/>
<text text-anchor="middle" x="843.5" y="-262" font-family="Helvetica,sans-Serif" font-size="10.00">ImChunkStream::begin</text>
</a>
</g>
</g>
<!-- Node1&#45;&gt;Node2 -->
<g id="edge1" class="edge">
<title>Node1&#45;&gt;Node2</title>
<path fill="none" stroke="#63b8ff" d="M81.13,-177.75C99.08,-197.49 133.25,-231.4 170,-248.5 383.29,-347.71 677.26,-300.71 792.91,-276.16"/>
<polygon fill="#63b8ff" stroke="#63b8ff" points="793.86,-279.53 802.89,-274 792.38,-272.69 793.86,-279.53"/>
</g>
<!-- Node3 -->
<g id="node3" class="node">
<title>Node3</title>
<g id="a_node3"><a xlink:href="namespaceImGui.html#a2f325a08e833855b408f70a96d5fa064" target="_top" xlink:title=" ">
<polygon fill="white" stroke="#666666" points="355,-110 170,-110 170,-91 355,-91 355,-110"/>
<text text-anchor="middle" x="262.5" y="-98" font-family="Helvetica,sans-Serif" font-size="10.00">ImGui::CreateNewWindowSettings</text>
</a>
</g>
</g>
<!-- Node1&#45;&gt;Node3 -->
<g id="edge2" class="edge">
<title>Node1&#45;&gt;Node3</title>
<path fill="none" stroke="#63b8ff" d="M114.19,-147.49C131.67,-141.83 151.74,-135.35 170,-129.5 186.82,-124.11 205.4,-118.22 221.4,-113.15"/>
<polygon fill="#63b8ff" stroke="#63b8ff" points="222.51,-116.47 230.99,-110.12 220.4,-109.8 222.51,-116.47"/>
</g>
<!-- Node10 -->
<g id="node10" class="node">
<title>Node10</title>
<g id="a_node10"><a xlink:href="namespaceImGui.html#aa3791d9fe372fb96ae9672c88070385a" target="_top" xlink:title=" ">
<polygon fill="white" stroke="#666666" points="338,-239.5 187,-239.5 187,-209.5 338,-209.5 338,-239.5"/>
<text text-anchor="start" x="195" y="-227.5" font-family="Helvetica,sans-Serif" font-size="10.00">ImGui::FindWindowSettings</text>
<text text-anchor="middle" x="262.5" y="-216.5" font-family="Helvetica,sans-Serif" font-size="10.00">ByWindow</text>
</a>
</g>
</g>
<!-- Node1&#45;&gt;Node10 -->
<g id="edge9" class="edge">
<title>Node1&#45;&gt;Node10</title>
<path fill="none" stroke="#63b8ff" d="M114.19,-177.51C131.67,-183.17 151.74,-189.65 170,-195.5 180.92,-199 192.59,-202.71 203.81,-206.27"/>
<polygon fill="#63b8ff" stroke="#63b8ff" points="202.93,-209.67 213.52,-209.35 205.05,-202.99 202.93,-209.67"/>
</g>
<!-- Node12 -->
<g id="node12" class="node">
<title>Node12</title>
<g id="a_node12"><a xlink:href="structImChunkStream.html#a3a99f21ce1867d694104d740ac7ab133" target="_top" xlink:title=" ">
<polygon fill="white" stroke="#666666" points="727,-239.5 604,-239.5 604,-209.5 727,-209.5 727,-239.5"/>
<text text-anchor="start" x="612" y="-227.5" font-family="Helvetica,sans-Serif" font-size="10.00">ImChunkStream::next</text>
<text text-anchor="middle" x="665.5" y="-216.5" font-family="Helvetica,sans-Serif" font-size="10.00">_chunk</text>
</a>
</g>
</g>
<!-- Node1&#45;&gt;Node12 -->
<g id="edge17" class="edge">
<title>Node1&#45;&gt;Node12</title>
<path fill="none" stroke="#63b8ff" d="M134.33,-166.25C249.98,-173 483.9,-187.7 565,-200.5 576.13,-202.26 587.86,-204.62 599.19,-207.17"/>
<polygon fill="#63b8ff" stroke="#63b8ff" points="598.5,-210.6 609.03,-209.46 600.09,-203.79 598.5,-210.6"/>
</g>
<!-- Node16 -->
<g id="node16" class="node">
<title>Node16</title>
<g id="a_node16"><a xlink:href="structImChunkStream.html#ab3dccb857d0b35ae295d14ff7f9dd0ac" target="_top" xlink:title=" ">
<polygon fill="white" stroke="#666666" points="730,-191.5 601,-191.5 601,-161.5 730,-161.5 730,-191.5"/>
<text text-anchor="start" x="609" y="-179.5" font-family="Helvetica,sans-Serif" font-size="10.00">ImChunkStream::offset</text>
<text text-anchor="middle" x="665.5" y="-168.5" font-family="Helvetica,sans-Serif" font-size="10.00">_from_ptr</text>
</a>
</g>
</g>
<!-- Node1&#45;&gt;Node16 -->
<g id="edge18" class="edge">
<title>Node1&#45;&gt;Node16</title>
<path fill="none" stroke="#63b8ff" d="M134.37,-161.48C229.72,-160.4 410.95,-159.77 565,-167.5 573.34,-167.92 582.07,-168.5 590.73,-169.16"/>
<polygon fill="#63b8ff" stroke="#63b8ff" points="590.61,-172.66 600.86,-169.98 591.17,-165.69 590.61,-172.66"/>
</g>
<!-- Node17 -->
<g id="node17" class="node">
<title>Node17</title>
<g id="a_node17"><a xlink:href="structImChunkStream.html#a0454c7345104dad27a52828584765edb" target="_top" xlink:title=" ">
<polygon fill="white" stroke="#666666" points="323,-73 202,-73 202,-54 323,-54 323,-73"/>
<text text-anchor="middle" x="262.5" y="-61" font-family="Helvetica,sans-Serif" font-size="10.00">ImChunkStream::size</text>
</a>
</g>
</g>
<!-- Node1&#45;&gt;Node17 -->
<g id="edge21" class="edge">
<title>Node1&#45;&gt;Node17</title>
<path fill="none" stroke="#63b8ff" d="M82.72,-147.26C101.31,-128.96 135.1,-98.71 170,-82.5 176.85,-79.32 184.24,-76.66 191.75,-74.45"/>
<polygon fill="#63b8ff" stroke="#63b8ff" points="192.89,-77.76 201.64,-71.79 191.08,-71 192.89,-77.76"/>
</g>
<!-- Node4 -->
<g id="node4" class="node">
<title>Node4</title>
<g id="a_node4"><a xlink:href="structImChunkStream.html#a29ced7ee3e9a2ae8123a92b110b4b0bd" target="_top" xlink:title=" ">
<polygon fill="white" stroke="#666666" points="540.5,-115.5 415.5,-115.5 415.5,-85.5 540.5,-85.5 540.5,-115.5"/>
<text text-anchor="start" x="423.5" y="-103.5" font-family="Helvetica,sans-Serif" font-size="10.00">ImChunkStream::alloc</text>
<text text-anchor="middle" x="478" y="-92.5" font-family="Helvetica,sans-Serif" font-size="10.00">_chunk</text>
</a>
</g>
</g>
<!-- Node3&#45;&gt;Node4 -->
<g id="edge3" class="edge">
<title>Node3&#45;&gt;Node4</title>
<path fill="none" stroke="#63b8ff" d="M355.28,-100.5C371.97,-100.5 389.16,-100.5 405.16,-100.5"/>
<polygon fill="#63b8ff" stroke="#63b8ff" points="405.5,-104 415.5,-100.5 405.5,-97 405.5,-104"/>
</g>
<!-- Node8 -->
<g id="node8" class="node">
<title>Node8</title>
<g id="a_node8"><a xlink:href="structImGuiWindowSettings.html#a7a480e4ccc61ce5b8a4ac92d28ff5fd1" target="_top" xlink:title=" ">
<polygon fill="white" stroke="#666666" points="540.5,-67.5 415.5,-67.5 415.5,-37.5 540.5,-37.5 540.5,-67.5"/>
<text text-anchor="start" x="423.5" y="-55.5" font-family="Helvetica,sans-Serif" font-size="10.00">ImGuiWindowSettings</text>
<text text-anchor="middle" x="478" y="-44.5" font-family="Helvetica,sans-Serif" font-size="10.00">::GetName</text>
</a>
</g>
</g>
<!-- Node3&#45;&gt;Node8 -->
<g id="edge7" class="edge">
<title>Node3&#45;&gt;Node8</title>
<path fill="none" stroke="#63b8ff" d="M314.41,-90.93C327.65,-88.31 341.88,-85.4 355,-82.5 372.27,-78.68 390.84,-74.27 408.15,-70.03"/>
<polygon fill="#63b8ff" stroke="#63b8ff" points="409.31,-73.35 418.18,-67.55 407.63,-66.55 409.31,-73.35"/>
</g>
<!-- Node9 -->
<g id="node9" class="node">
<title>Node9</title>
<g id="a_node9"><a xlink:href="imgui_8cpp.html#ab6659b5d67f7a3369e099ce890e12223" target="_top" xlink:title=" ">
<polygon fill="white" stroke="#666666" points="512,-19 444,-19 444,0 512,0 512,-19"/>
<text text-anchor="middle" x="478" y="-7" font-family="Helvetica,sans-Serif" font-size="10.00">ImHashStr</text>
</a>
</g>
</g>
<!-- Node3&#45;&gt;Node9 -->
<g id="edge8" class="edge">
<title>Node3&#45;&gt;Node9</title>
<path fill="none" stroke="#63b8ff" d="M338.88,-90.82C344.56,-88.57 350.02,-85.83 355,-82.5 378.99,-66.49 367.2,-44.79 391,-28.5 403.39,-20.02 418.92,-15.25 433.37,-12.59"/>
<polygon fill="#63b8ff" stroke="#63b8ff" points="434.28,-15.99 443.63,-11.01 433.22,-9.08 434.28,-15.99"/>
</g>
<!-- Node5 -->
<g id="node5" class="node">
<title>Node5</title>
<g id="a_node5"><a xlink:href="structImVector.html#ac371dd62e56ae486b1a5038cf07eee56" target="_top" xlink:title=" ">
<polygon fill="white" stroke="#666666" points="713,-110 618,-110 618,-91 713,-91 713,-110"/>
<text text-anchor="middle" x="665.5" y="-98" font-family="Helvetica,sans-Serif" font-size="10.00">ImVector::resize</text>
</a>
</g>
</g>
<!-- Node4&#45;&gt;Node5 -->
<g id="edge4" class="edge">
<title>Node4&#45;&gt;Node5</title>
<path fill="none" stroke="#63b8ff" d="M540.51,-100.5C562.17,-100.5 586.41,-100.5 607.67,-100.5"/>
<polygon fill="#63b8ff" stroke="#63b8ff" points="607.84,-104 617.84,-100.5 607.84,-97 607.84,-104"/>
</g>
<!-- Node6 -->
<g id="node6" class="node">
<title>Node6</title>
<g id="a_node6"><a xlink:href="structImVector.html#a3a097635d464b1b70dc7d59996a88b28" target="_top" xlink:title=" ">
<polygon fill="white" stroke="#666666" points="914.5,-92 772.5,-92 772.5,-73 914.5,-73 914.5,-92"/>
<text text-anchor="middle" x="843.5" y="-80" font-family="Helvetica,sans-Serif" font-size="10.00">ImVector::_grow_capacity</text>
</a>
</g>
</g>
<!-- Node5&#45;&gt;Node6 -->
<g id="edge5" class="edge">
<title>Node5&#45;&gt;Node6</title>
<path fill="none" stroke="#63b8ff" d="M713.2,-95.72C728.21,-94.19 745.3,-92.44 762.02,-90.73"/>
<polygon fill="#63b8ff" stroke="#63b8ff" points="762.77,-94.17 772.36,-89.67 762.06,-87.21 762.77,-94.17"/>
</g>
<!-- Node7 -->
<g id="node7" class="node">
<title>Node7</title>
<g id="a_node7"><a xlink:href="structImVector.html#a0f14f5736c3372157856eebb67123b75" target="_top" xlink:title=" ">
<polygon fill="white" stroke="#666666" points="895,-129 792,-129 792,-110 895,-110 895,-129"/>
<text text-anchor="middle" x="843.5" y="-117" font-family="Helvetica,sans-Serif" font-size="10.00">ImVector::reserve</text>
</a>
</g>
</g>
<!-- Node5&#45;&gt;Node7 -->
<g id="edge6" class="edge">
<title>Node5&#45;&gt;Node7</title>
<path fill="none" stroke="#63b8ff" d="M713.2,-105.54C734.22,-107.81 759.3,-110.52 781.76,-112.94"/>
<polygon fill="#63b8ff" stroke="#63b8ff" points="781.55,-116.44 791.87,-114.03 782.3,-109.48 781.55,-116.44"/>
</g>
<!-- Node11 -->
<g id="node11" class="node">
<title>Node11</title>
<g id="a_node11"><a xlink:href="namespaceImGui.html#a186a7c51e5dc70e54843c9e9415707e2" target="_top" xlink:title=" ">
<polygon fill="white" stroke="#666666" points="565,-277 391,-277 391,-258 565,-258 565,-277"/>
<text text-anchor="middle" x="478" y="-265" font-family="Helvetica,sans-Serif" font-size="10.00">ImGui::FindWindowSettingsByID</text>
</a>
</g>
</g>
<!-- Node10&#45;&gt;Node11 -->
<g id="edge10" class="edge">
<title>Node10&#45;&gt;Node11</title>
<path fill="none" stroke="#63b8ff" d="M338.17,-239.54C364.91,-244.92 394.61,-250.91 419.65,-255.95"/>
<polygon fill="#63b8ff" stroke="#63b8ff" points="419.23,-259.43 429.72,-257.98 420.61,-252.57 419.23,-259.43"/>
</g>
<!-- Node15 -->
<g id="node15" class="node">
<title>Node15</title>
<g id="a_node15"><a xlink:href="structImChunkStream.html#a385c84c0a5eca2d402f3550530af587e" target="_top" xlink:title=" ">
<polygon fill="white" stroke="#666666" points="535.5,-239.5 420.5,-239.5 420.5,-209.5 535.5,-209.5 535.5,-239.5"/>
<text text-anchor="start" x="428.5" y="-227.5" font-family="Helvetica,sans-Serif" font-size="10.00">ImChunkStream::ptr</text>
<text text-anchor="middle" x="478" y="-216.5" font-family="Helvetica,sans-Serif" font-size="10.00">_from_offset</text>
</a>
</g>
</g>
<!-- Node10&#45;&gt;Node15 -->
<g id="edge16" class="edge">
<title>Node10&#45;&gt;Node15</title>
<path fill="none" stroke="#63b8ff" d="M338.17,-224.5C361.53,-224.5 387.15,-224.5 409.95,-224.5"/>
<polygon fill="#63b8ff" stroke="#63b8ff" points="410.21,-228 420.21,-224.5 410.21,-221 410.21,-228"/>
</g>
<!-- Node11&#45;&gt;Node2 -->
<g id="edge11" class="edge">
<title>Node11&#45;&gt;Node2</title>
<path fill="none" stroke="#63b8ff" d="M565.14,-266.79C627.23,-266.28 710.13,-265.59 769.09,-265.11"/>
<polygon fill="#63b8ff" stroke="#63b8ff" points="769.47,-268.6 779.44,-265.02 769.41,-261.6 769.47,-268.6"/>
</g>
<!-- Node11&#45;&gt;Node12 -->
<g id="edge12" class="edge">
<title>Node11&#45;&gt;Node12</title>
<path fill="none" stroke="#63b8ff" d="M522.79,-258C536.33,-255.01 551.29,-251.67 565,-248.5 574.32,-246.35 584.11,-244.04 593.77,-241.74"/>
<polygon fill="#63b8ff" stroke="#63b8ff" points="594.86,-245.08 603.77,-239.35 593.23,-238.27 594.86,-245.08"/>
</g>
<!-- Node12&#45;&gt;Node2 -->
<g id="edge13" class="edge">
<title>Node12&#45;&gt;Node2</title>
<path fill="none" stroke="#63b8ff" d="M727.07,-238.27C747.82,-242.98 770.84,-248.21 790.83,-252.76"/>
<polygon fill="#63b8ff" stroke="#63b8ff" points="790.14,-256.19 800.67,-254.99 791.7,-249.36 790.14,-256.19"/>
</g>
<!-- Node13 -->
<g id="node13" class="node">
<title>Node13</title>
<g id="a_node13"><a xlink:href="structImChunkStream.html#a1a83609aaee47cf8b59a8ae09a04a06b" target="_top" xlink:title=" ">
<polygon fill="white" stroke="#666666" points="921,-234 766,-234 766,-215 921,-215 921,-234"/>
<text text-anchor="middle" x="843.5" y="-222" font-family="Helvetica,sans-Serif" font-size="10.00">ImChunkStream::chunk_size</text>
</a>
</g>
</g>
<!-- Node12&#45;&gt;Node13 -->
<g id="edge14" class="edge">
<title>Node12&#45;&gt;Node13</title>
<path fill="none" stroke="#63b8ff" d="M727.07,-224.5C736.37,-224.5 746.12,-224.5 755.85,-224.5"/>
<polygon fill="#63b8ff" stroke="#63b8ff" points="755.96,-228 765.96,-224.5 755.96,-221 755.96,-228"/>
</g>
<!-- Node14 -->
<g id="node14" class="node">
<title>Node14</title>
<g id="a_node14"><a xlink:href="structImChunkStream.html#a5c7faa90ac7fa02140a3298dbfdd5cad" target="_top" xlink:title=" ">
<polygon fill="white" stroke="#666666" points="903,-192 784,-192 784,-173 903,-173 903,-192"/>
<text text-anchor="middle" x="843.5" y="-180" font-family="Helvetica,sans-Serif" font-size="10.00">ImChunkStream::end</text>
</a>
</g>
</g>
<!-- Node12&#45;&gt;Node14 -->
<g id="edge15" class="edge">
<title>Node12&#45;&gt;Node14</title>
<path fill="none" stroke="#63b8ff" d="M727.07,-210.05C748.52,-204.93 772.38,-199.23 792.82,-194.36"/>
<polygon fill="#63b8ff" stroke="#63b8ff" points="793.64,-197.76 802.55,-192.03 792.01,-190.95 793.64,-197.76"/>
</g>
<!-- Node16&#45;&gt;Node2 -->
<g id="edge19" class="edge">
<title>Node16&#45;&gt;Node2</title>
<path fill="none" stroke="#63b8ff" d="M714.68,-191.64C720.06,-194.21 725.29,-197.16 730,-200.5 750.32,-214.93 745.03,-230.03 766,-243.5 770.71,-246.52 775.85,-249.12 781.16,-251.34"/>
<polygon fill="#63b8ff" stroke="#63b8ff" points="780.28,-254.74 790.87,-254.95 782.72,-248.18 780.28,-254.74"/>
</g>
<!-- Node16&#45;&gt;Node14 -->
<g id="edge20" class="edge">
<title>Node16&#45;&gt;Node14</title>
<path fill="none" stroke="#63b8ff" d="M730.04,-178.67C744.14,-179.15 759.16,-179.66 773.47,-180.15"/>
<polygon fill="#63b8ff" stroke="#63b8ff" points="773.63,-183.65 783.74,-180.5 773.87,-176.66 773.63,-183.65"/>
</g>
</g>
</svg>
