<?xml version="1.0" encoding="UTF-8" standalone="no"?>
<!DOCTYPE svg PUBLIC "-//W3C//DTD SVG 1.1//EN"
 "http://www.w3.org/Graphics/SVG/1.1/DTD/svg11.dtd">
<!-- Generated by graphviz version 2.43.0 (0)
 -->
<!-- Title: DockBuilderCopyNodeRec Pages: 1 -->
<svg width="1091pt" height="227pt"
 viewBox="0.00 0.00 1091.00 226.50" xmlns="http://www.w3.org/2000/svg" xmlns:xlink="http://www.w3.org/1999/xlink">
<g id="graph0" class="graph" transform="scale(1 1) rotate(0) translate(4 222.5)">
<title>DockBuilderCopyNodeRec</title>
<!-- Node1 -->
<g id="node1" class="node">
<title>Node1</title>
<g id="a_node1"><a xlink:title=" ">
<polygon fill="#999999" stroke="#666666" points="144,-86.5 0,-86.5 0,-67.5 144,-67.5 144,-86.5"/>
<text text-anchor="middle" x="72" y="-74.5" font-family="Helvetica,sans-Serif" font-size="10.00">DockBuilderCopyNodeRec</text>
</a>
</g>
</g>
<!-- Node1&#45;&gt;Node1 -->
<g id="edge1" class="edge">
<title>Node1&#45;&gt;Node1</title>
<path fill="none" stroke="#63b8ff" d="M42.1,-86.58C27.55,-95.23 37.52,-104.5 72,-104.5 95.71,-104.5 107.82,-100.12 108.36,-94.57"/>
<polygon fill="#63b8ff" stroke="#63b8ff" points="110.91,-92.16 101.9,-86.58 105.46,-96.56 110.91,-92.16"/>
</g>
<!-- Node2 -->
<g id="node2" class="node">
<title>Node2</title>
<g id="a_node2"><a xlink:href="namespaceImGui.html#ab226cec3473d24f44fdb877b2f709c8d" target="_top" xlink:title=" ">
<polygon fill="white" stroke="#666666" points="346.5,-162.5 187.5,-162.5 187.5,-143.5 346.5,-143.5 346.5,-162.5"/>
<text text-anchor="middle" x="267" y="-150.5" font-family="Helvetica,sans-Serif" font-size="10.00">ImGui::DockContextAddNode</text>
</a>
</g>
</g>
<!-- Node1&#45;&gt;Node2 -->
<g id="edge2" class="edge">
<title>Node1&#45;&gt;Node2</title>
<path fill="none" stroke="#63b8ff" d="M97.44,-86.63C131.52,-100.05 193.46,-124.43 232.01,-139.62"/>
<polygon fill="#63b8ff" stroke="#63b8ff" points="231.17,-143.05 241.75,-143.45 233.73,-136.53 231.17,-143.05"/>
</g>
<!-- Node11 -->
<g id="node11" class="node">
<title>Node11</title>
<g id="a_node11"><a xlink:href="structImGuiDockNode.html#af861ee38a5bc618e866e3c74117689b5" target="_top" xlink:title=" ">
<polygon fill="white" stroke="#666666" points="346,-67.5 188,-67.5 188,-48.5 346,-48.5 346,-67.5"/>
<text text-anchor="middle" x="267" y="-55.5" font-family="Helvetica,sans-Serif" font-size="10.00">ImGuiDockNode::IsSplitNode</text>
</a>
</g>
</g>
<!-- Node1&#45;&gt;Node11 -->
<g id="edge13" class="edge">
<title>Node1&#45;&gt;Node11</title>
<path fill="none" stroke="#63b8ff" d="M144.04,-70.01C154.99,-68.93 166.4,-67.8 177.67,-66.7"/>
<polygon fill="#63b8ff" stroke="#63b8ff" points="178.35,-70.15 187.96,-65.68 177.66,-63.18 178.35,-70.15"/>
</g>
<!-- Node12 -->
<g id="node12" class="node">
<title>Node12</title>
<g id="a_node12"><a xlink:href="structImVector.html#aab5df48e0711a48bd12f3206e08c4108" target="_top" xlink:title=" ">
<polygon fill="white" stroke="#666666" points="747,-105.5 629,-105.5 629,-86.5 747,-86.5 747,-105.5"/>
<text text-anchor="middle" x="688" y="-93.5" font-family="Helvetica,sans-Serif" font-size="10.00">ImVector::push_back</text>
</a>
</g>
</g>
<!-- Node1&#45;&gt;Node12 -->
<g id="edge14" class="edge">
<title>Node1&#45;&gt;Node12</title>
<path fill="none" stroke="#63b8ff" d="M144.03,-79.2C263.08,-82.88 501.33,-90.25 618.59,-93.88"/>
<polygon fill="#63b8ff" stroke="#63b8ff" points="618.77,-97.39 628.87,-94.2 618.99,-90.39 618.77,-97.39"/>
</g>
<!-- Node13 -->
<g id="node13" class="node">
<title>Node13</title>
<g id="a_node13"><a xlink:href="structImGuiDockNode.html#a87a708d19b6f2e22c15d6d378c8b71e2" target="_top" xlink:title=" ">
<polygon fill="white" stroke="#666666" points="354,-30 180,-30 180,0 354,0 354,-30"/>
<text text-anchor="start" x="188" y="-18" font-family="Helvetica,sans-Serif" font-size="10.00">ImGuiDockNode::UpdateMerged</text>
<text text-anchor="middle" x="267" y="-7" font-family="Helvetica,sans-Serif" font-size="10.00">Flags</text>
</a>
</g>
</g>
<!-- Node1&#45;&gt;Node13 -->
<g id="edge17" class="edge">
<title>Node1&#45;&gt;Node13</title>
<path fill="none" stroke="#63b8ff" d="M98.34,-67.44C119.92,-59.44 151.81,-47.93 180,-39 186.45,-36.96 193.21,-34.91 199.97,-32.93"/>
<polygon fill="#63b8ff" stroke="#63b8ff" points="201.23,-36.21 209.86,-30.06 199.28,-29.48 201.23,-36.21"/>
</g>
<!-- Node3 -->
<g id="node3" class="node">
<title>Node3</title>
<g id="a_node3"><a xlink:href="namespaceImGui.html#a52be73f2abd2d0320469ba138f7c6d59" target="_top" xlink:title=" ">
<polygon fill="white" stroke="#666666" points="780,-218.5 596,-218.5 596,-199.5 780,-199.5 780,-218.5"/>
<text text-anchor="middle" x="688" y="-206.5" font-family="Helvetica,sans-Serif" font-size="10.00">ImGui::DockContextFindNodeByID</text>
</a>
</g>
</g>
<!-- Node2&#45;&gt;Node3 -->
<g id="edge3" class="edge">
<title>Node2&#45;&gt;Node3</title>
<path fill="none" stroke="#63b8ff" d="M293.28,-162.54C317.67,-171.29 355.81,-183.81 390,-190 454.39,-201.66 527.76,-206.44 585.46,-208.28"/>
<polygon fill="#63b8ff" stroke="#63b8ff" points="585.58,-211.79 595.68,-208.58 585.79,-204.79 585.58,-211.79"/>
</g>
<!-- Node6 -->
<g id="node6" class="node">
<title>Node6</title>
<g id="a_node6"><a xlink:href="namespaceImGui.html#ad16317022ea4095a886903d23e056fcb" target="_top" xlink:title=" ">
<polygon fill="white" stroke="#666666" points="560,-180.5 390,-180.5 390,-161.5 560,-161.5 560,-180.5"/>
<text text-anchor="middle" x="475" y="-168.5" font-family="Helvetica,sans-Serif" font-size="10.00">ImGui::DockContextGenNodeID</text>
</a>
</g>
</g>
<!-- Node2&#45;&gt;Node6 -->
<g id="edge6" class="edge">
<title>Node2&#45;&gt;Node6</title>
<path fill="none" stroke="#63b8ff" d="M346.76,-159.88C357.54,-160.82 368.7,-161.8 379.73,-162.76"/>
<polygon fill="#63b8ff" stroke="#63b8ff" points="379.53,-166.26 389.8,-163.64 380.14,-159.29 379.53,-166.26"/>
</g>
<!-- Node7 -->
<g id="node7" class="node">
<title>Node7</title>
<g id="a_node7"><a xlink:href="structImGuiStorage.html#a55f840086b3ec9cf63c67f02d159204a" target="_top" xlink:title=" ">
<polygon fill="white" stroke="#666666" points="545,-143.5 405,-143.5 405,-124.5 545,-124.5 545,-143.5"/>
<text text-anchor="middle" x="475" y="-131.5" font-family="Helvetica,sans-Serif" font-size="10.00">ImGuiStorage::SetVoidPtr</text>
</a>
</g>
</g>
<!-- Node2&#45;&gt;Node7 -->
<g id="edge8" class="edge">
<title>Node2&#45;&gt;Node7</title>
<path fill="none" stroke="#63b8ff" d="M346.76,-145.74C362.41,-144.29 378.86,-142.78 394.54,-141.33"/>
<polygon fill="#63b8ff" stroke="#63b8ff" points="395.07,-144.79 404.71,-140.39 394.43,-137.82 395.07,-144.79"/>
</g>
<!-- Node4 -->
<g id="node4" class="node">
<title>Node4</title>
<g id="a_node4"><a xlink:href="structImGuiStorage.html#aaf87a98ede89da09113b0189f6d878ca" target="_top" xlink:title=" ">
<polygon fill="white" stroke="#666666" points="957.5,-218.5 816.5,-218.5 816.5,-199.5 957.5,-199.5 957.5,-218.5"/>
<text text-anchor="middle" x="887" y="-206.5" font-family="Helvetica,sans-Serif" font-size="10.00">ImGuiStorage::GetVoidPtr</text>
</a>
</g>
</g>
<!-- Node3&#45;&gt;Node4 -->
<g id="edge4" class="edge">
<title>Node3&#45;&gt;Node4</title>
<path fill="none" stroke="#63b8ff" d="M780,-209C788.77,-209 797.62,-209 806.27,-209"/>
<polygon fill="#63b8ff" stroke="#63b8ff" points="806.31,-212.5 816.31,-209 806.31,-205.5 806.31,-212.5"/>
</g>
<!-- Node5 -->
<g id="node5" class="node">
<title>Node5</title>
<g id="a_node5"><a xlink:href="imgui_8cpp.html#a409bfd6de574854cd644636ea13b6a8a" target="_top" xlink:title=" ">
<polygon fill="white" stroke="#666666" points="1083,-199.5 994,-199.5 994,-180.5 1083,-180.5 1083,-199.5"/>
<text text-anchor="middle" x="1038.5" y="-187.5" font-family="Helvetica,sans-Serif" font-size="10.00">ImLowerBound</text>
</a>
</g>
</g>
<!-- Node4&#45;&gt;Node5 -->
<g id="edge5" class="edge">
<title>Node4&#45;&gt;Node5</title>
<path fill="none" stroke="#63b8ff" d="M957.94,-200.11C966.58,-199.01 975.31,-197.9 983.66,-196.84"/>
<polygon fill="#63b8ff" stroke="#63b8ff" points="984.15,-200.31 993.63,-195.58 983.27,-193.36 984.15,-200.31"/>
</g>
<!-- Node6&#45;&gt;Node3 -->
<g id="edge7" class="edge">
<title>Node6&#45;&gt;Node3</title>
<path fill="none" stroke="#63b8ff" d="M528.97,-180.54C557.82,-185.73 593.7,-192.2 623.97,-197.65"/>
<polygon fill="#63b8ff" stroke="#63b8ff" points="623.54,-201.13 634.01,-199.46 624.79,-194.24 623.54,-201.13"/>
</g>
<!-- Node7&#45;&gt;Node5 -->
<g id="edge9" class="edge">
<title>Node7&#45;&gt;Node5</title>
<path fill="none" stroke="#63b8ff" d="M534.49,-143.53C554.02,-146.51 575.92,-149.63 596,-152 735.4,-168.44 900.35,-180.75 983.63,-186.46"/>
<polygon fill="#63b8ff" stroke="#63b8ff" points="983.64,-189.97 993.86,-187.16 984.12,-182.99 983.64,-189.97"/>
</g>
<!-- Node8 -->
<g id="node8" class="node">
<title>Node8</title>
<g id="a_node8"><a xlink:href="structImVector.html#a541c8cd4b844f5276f10d160cb500533" target="_top" xlink:title=" ">
<polygon fill="white" stroke="#666666" points="735,-142.5 641,-142.5 641,-123.5 735,-123.5 735,-142.5"/>
<text text-anchor="middle" x="688" y="-130.5" font-family="Helvetica,sans-Serif" font-size="10.00">ImVector::insert</text>
</a>
</g>
</g>
<!-- Node7&#45;&gt;Node8 -->
<g id="edge10" class="edge">
<title>Node7&#45;&gt;Node8</title>
<path fill="none" stroke="#63b8ff" d="M545.09,-133.67C572.78,-133.54 604.29,-133.39 630.57,-133.27"/>
<polygon fill="#63b8ff" stroke="#63b8ff" points="630.76,-136.77 640.74,-133.22 630.72,-129.77 630.76,-136.77"/>
</g>
<!-- Node9 -->
<g id="node9" class="node">
<title>Node9</title>
<g id="a_node9"><a xlink:href="structImVector.html#a3a097635d464b1b70dc7d59996a88b28" target="_top" xlink:title=" ">
<polygon fill="white" stroke="#666666" points="958,-105.5 816,-105.5 816,-86.5 958,-86.5 958,-105.5"/>
<text text-anchor="middle" x="887" y="-93.5" font-family="Helvetica,sans-Serif" font-size="10.00">ImVector::_grow_capacity</text>
</a>
</g>
</g>
<!-- Node8&#45;&gt;Node9 -->
<g id="edge11" class="edge">
<title>Node8&#45;&gt;Node9</title>
<path fill="none" stroke="#63b8ff" d="M735.19,-124.33C762.04,-119.28 796.21,-112.86 825.23,-107.41"/>
<polygon fill="#63b8ff" stroke="#63b8ff" points="826.08,-110.82 835.26,-105.53 824.79,-103.94 826.08,-110.82"/>
</g>
<!-- Node10 -->
<g id="node10" class="node">
<title>Node10</title>
<g id="a_node10"><a xlink:href="structImVector.html#a0f14f5736c3372157856eebb67123b75" target="_top" xlink:title=" ">
<polygon fill="white" stroke="#666666" points="938.5,-142.5 835.5,-142.5 835.5,-123.5 938.5,-123.5 938.5,-142.5"/>
<text text-anchor="middle" x="887" y="-130.5" font-family="Helvetica,sans-Serif" font-size="10.00">ImVector::reserve</text>
</a>
</g>
</g>
<!-- Node8&#45;&gt;Node10 -->
<g id="edge12" class="edge">
<title>Node8&#45;&gt;Node10</title>
<path fill="none" stroke="#63b8ff" d="M735.19,-133C762.04,-133 796.21,-133 825.23,-133"/>
<polygon fill="#63b8ff" stroke="#63b8ff" points="825.26,-136.5 835.26,-133 825.26,-129.5 825.26,-136.5"/>
</g>
<!-- Node12&#45;&gt;Node9 -->
<g id="edge15" class="edge">
<title>Node12&#45;&gt;Node9</title>
<path fill="none" stroke="#63b8ff" d="M747.04,-96C765.4,-96 786.04,-96 805.67,-96"/>
<polygon fill="#63b8ff" stroke="#63b8ff" points="805.83,-99.5 815.83,-96 805.83,-92.5 805.83,-99.5"/>
</g>
<!-- Node12&#45;&gt;Node10 -->
<g id="edge16" class="edge">
<title>Node12&#45;&gt;Node10</title>
<path fill="none" stroke="#63b8ff" d="M739.73,-105.53C765.93,-110.45 798.07,-116.49 825.55,-121.65"/>
<polygon fill="#63b8ff" stroke="#63b8ff" points="824.97,-125.1 835.44,-123.5 826.26,-118.22 824.97,-125.1"/>
</g>
</g>
</svg>
