<?xml version="1.0" encoding="UTF-8" standalone="no"?>
<!DOCTYPE svg PUBLIC "-//W3C//DTD SVG 1.1//EN"
 "http://www.w3.org/Graphics/SVG/1.1/DTD/svg11.dtd">
<!-- Generated by graphviz version 2.43.0 (0)
 -->
<!-- Title: ImGui_ImplDX11_InvalidateDeviceObjects Pages: 1 -->
<svg width="865pt" height="175pt"
 viewBox="0.00 0.00 865.00 175.00" xmlns="http://www.w3.org/2000/svg" xmlns:xlink="http://www.w3.org/1999/xlink">
<g id="graph0" class="graph" transform="scale(1 1) rotate(0) translate(4 171)">
<title>ImGui_ImplDX11_InvalidateDeviceObjects</title>
<!-- Node1 -->
<g id="node1" class="node">
<title>Node1</title>
<g id="a_node1"><a xlink:title=" ">
<polygon fill="#999999" stroke="#666666" points="153,-116.5 0,-116.5 0,-86.5 153,-86.5 153,-116.5"/>
<text text-anchor="start" x="8" y="-104.5" font-family="Helvetica,sans-Serif" font-size="10.00">ImGui_ImplDX11_Invalidate</text>
<text text-anchor="middle" x="76.5" y="-93.5" font-family="Helvetica,sans-Serif" font-size="10.00">DeviceObjects</text>
</a>
</g>
</g>
<!-- Node2 -->
<g id="node2" class="node">
<title>Node2</title>
<g id="a_node2"><a xlink:href="namespaceImGui.html#a3edc2b6129cbf1e8d247c6d03c344065" target="_top" xlink:title=" ">
<polygon fill="white" stroke="#666666" points="343,-148 221,-148 221,-129 343,-129 343,-148"/>
<text text-anchor="middle" x="282" y="-136" font-family="Helvetica,sans-Serif" font-size="10.00">ImGui::GetPlatformIO</text>
</a>
</g>
</g>
<!-- Node1&#45;&gt;Node2 -->
<g id="edge1" class="edge">
<title>Node1&#45;&gt;Node2</title>
<path fill="none" stroke="#63b8ff" d="M153.28,-115.28C174.83,-119.2 198.06,-123.42 218.72,-127.18"/>
<polygon fill="#63b8ff" stroke="#63b8ff" points="218.17,-130.63 228.64,-128.98 219.42,-123.75 218.17,-130.63"/>
</g>
<!-- Node3 -->
<g id="node3" class="node">
<title>Node3</title>
<g id="a_node3"><a xlink:href="imgui__impl__dx11_8cpp.html#a71f7f9967b99744a679b890dd10d1dce" target="_top" xlink:title=" ">
<polygon fill="white" stroke="#666666" points="371.5,-111 192.5,-111 192.5,-92 371.5,-92 371.5,-111"/>
<text text-anchor="middle" x="282" y="-99" font-family="Helvetica,sans-Serif" font-size="10.00">ImGui_ImplDX11_DestroyTexture</text>
</a>
</g>
</g>
<!-- Node1&#45;&gt;Node3 -->
<g id="edge2" class="edge">
<title>Node1&#45;&gt;Node3</title>
<path fill="none" stroke="#63b8ff" d="M153.28,-101.5C162.75,-101.5 172.55,-101.5 182.31,-101.5"/>
<polygon fill="#63b8ff" stroke="#63b8ff" points="182.46,-105 192.46,-101.5 182.46,-98 182.46,-105"/>
</g>
<!-- Node9 -->
<g id="node9" class="node">
<title>Node9</title>
<g id="a_node9"><a xlink:href="imgui__impl__dx11_8cpp.html#a6f2fc0574f090854d5aac193780c5f32" target="_top" xlink:title=" ">
<polygon fill="white" stroke="#666666" points="375,-56 189,-56 189,-37 375,-37 375,-56"/>
<text text-anchor="middle" x="282" y="-44" font-family="Helvetica,sans-Serif" font-size="10.00">ImGui_ImplDX11_GetBackendData</text>
</a>
</g>
</g>
<!-- Node1&#45;&gt;Node9 -->
<g id="edge8" class="edge">
<title>Node1&#45;&gt;Node9</title>
<path fill="none" stroke="#63b8ff" d="M133.11,-86.47C165.35,-77.76 205.45,-66.92 235.75,-58.73"/>
<polygon fill="#63b8ff" stroke="#63b8ff" points="236.89,-62.05 245.63,-56.06 235.06,-55.29 236.89,-62.05"/>
</g>
<!-- Node4 -->
<g id="node4" class="node">
<title>Node4</title>
<g id="a_node4"><a xlink:href="imgui_8h.html#a3c856832c3fe1da8767a9353da3707e1" target="_top" xlink:title=" ">
<polygon fill="white" stroke="#666666" points="518,-167 447,-167 447,-148 518,-148 518,-167"/>
<text text-anchor="middle" x="482.5" y="-155" font-family="Helvetica,sans-Serif" font-size="10.00">IM_DELETE</text>
</a>
</g>
</g>
<!-- Node3&#45;&gt;Node4 -->
<g id="edge3" class="edge">
<title>Node3&#45;&gt;Node4</title>
<path fill="none" stroke="#63b8ff" d="M345.03,-111.06C355.18,-113.35 365.49,-116.14 375,-119.5 392.06,-125.52 394.16,-131.88 411,-138.5 419.31,-141.77 428.39,-144.68 437.19,-147.18"/>
<polygon fill="#63b8ff" stroke="#63b8ff" points="436.37,-150.58 446.94,-149.82 438.2,-143.82 436.37,-150.58"/>
</g>
<!-- Node7 -->
<g id="node7" class="node">
<title>Node7</title>
<g id="a_node7"><a xlink:href="structImTextureData.html#a95ba3b442e17cc2a7c9ab4b538011005" target="_top" xlink:title=" ">
<polygon fill="white" stroke="#666666" points="553,-130 412,-130 412,-111 553,-111 553,-130"/>
<text text-anchor="middle" x="482.5" y="-118" font-family="Helvetica,sans-Serif" font-size="10.00">ImTextureData::SetStatus</text>
</a>
</g>
</g>
<!-- Node3&#45;&gt;Node7 -->
<g id="edge6" class="edge">
<title>Node3&#45;&gt;Node7</title>
<path fill="none" stroke="#63b8ff" d="M371.51,-109.97C381.56,-110.93 391.76,-111.91 401.69,-112.86"/>
<polygon fill="#63b8ff" stroke="#63b8ff" points="401.64,-116.37 411.93,-113.84 402.3,-109.4 401.64,-116.37"/>
</g>
<!-- Node8 -->
<g id="node8" class="node">
<title>Node8</title>
<g id="a_node8"><a xlink:href="structImTextureData.html#ab8d44d2241e397f28649e6cc606da1ec" target="_top" xlink:title=" ">
<polygon fill="white" stroke="#666666" points="551,-93 414,-93 414,-74 551,-74 551,-93"/>
<text text-anchor="middle" x="482.5" y="-81" font-family="Helvetica,sans-Serif" font-size="10.00">ImTextureData::SetTexID</text>
</a>
</g>
</g>
<!-- Node3&#45;&gt;Node8 -->
<g id="edge7" class="edge">
<title>Node3&#45;&gt;Node8</title>
<path fill="none" stroke="#63b8ff" d="M371.51,-93.47C382.24,-92.5 393.15,-91.51 403.71,-90.55"/>
<polygon fill="#63b8ff" stroke="#63b8ff" points="404.07,-94.04 413.72,-89.65 403.44,-87.06 404.07,-94.04"/>
</g>
<!-- Node5 -->
<g id="node5" class="node">
<title>Node5</title>
<g id="a_node5"><a xlink:href="namespaceImGui.html#a269ec695c6e722ec3da85dae37f0675d" target="_top" xlink:title=" ">
<polygon fill="white" stroke="#666666" points="688,-167 590,-167 590,-148 688,-148 688,-167"/>
<text text-anchor="middle" x="639" y="-155" font-family="Helvetica,sans-Serif" font-size="10.00">ImGui::MemFree</text>
</a>
</g>
</g>
<!-- Node4&#45;&gt;Node5 -->
<g id="edge4" class="edge">
<title>Node4&#45;&gt;Node5</title>
<path fill="none" stroke="#63b8ff" d="M518.17,-157.5C536.37,-157.5 559.15,-157.5 579.95,-157.5"/>
<polygon fill="#63b8ff" stroke="#63b8ff" points="579.97,-161 589.97,-157.5 579.97,-154 579.97,-161"/>
</g>
<!-- Node6 -->
<g id="node6" class="node">
<title>Node6</title>
<g id="a_node6"><a xlink:href="namespaceImGui.html#af81dc8d88fa2e5d0996163993f90ccf8" target="_top" xlink:title=" ">
<polygon fill="white" stroke="#666666" points="857,-167 724,-167 724,-148 857,-148 857,-167"/>
<text text-anchor="middle" x="790.5" y="-155" font-family="Helvetica,sans-Serif" font-size="10.00">ImGui::DebugAllocHook</text>
</a>
</g>
</g>
<!-- Node5&#45;&gt;Node6 -->
<g id="edge5" class="edge">
<title>Node5&#45;&gt;Node6</title>
<path fill="none" stroke="#63b8ff" d="M688.13,-157.5C696.29,-157.5 704.93,-157.5 713.6,-157.5"/>
<polygon fill="#63b8ff" stroke="#63b8ff" points="713.76,-161 723.76,-157.5 713.76,-154 713.76,-161"/>
</g>
<!-- Node10 -->
<g id="node10" class="node">
<title>Node10</title>
<g id="a_node10"><a xlink:href="namespaceImGui.html#af557a6de5538099a0f6047eb994bbf42" target="_top" xlink:title=" ">
<polygon fill="white" stroke="#666666" points="554,-56 411,-56 411,-37 554,-37 554,-56"/>
<text text-anchor="middle" x="482.5" y="-44" font-family="Helvetica,sans-Serif" font-size="10.00">ImGui::GetCurrentContext</text>
</a>
</g>
</g>
<!-- Node9&#45;&gt;Node10 -->
<g id="edge9" class="edge">
<title>Node9&#45;&gt;Node10</title>
<path fill="none" stroke="#63b8ff" d="M375.28,-46.5C383.77,-46.5 392.33,-46.5 400.71,-46.5"/>
<polygon fill="#63b8ff" stroke="#63b8ff" points="400.83,-50 410.83,-46.5 400.83,-43 400.83,-50"/>
</g>
<!-- Node11 -->
<g id="node11" class="node">
<title>Node11</title>
<g id="a_node11"><a xlink:href="namespaceImGui.html#a3179e560812f878f3961ce803a5d9302" target="_top" xlink:title=" ">
<polygon fill="white" stroke="#666666" points="522.5,-19 442.5,-19 442.5,0 522.5,0 522.5,-19"/>
<text text-anchor="middle" x="482.5" y="-7" font-family="Helvetica,sans-Serif" font-size="10.00">ImGui::GetIO</text>
</a>
</g>
</g>
<!-- Node9&#45;&gt;Node11 -->
<g id="edge10" class="edge">
<title>Node9&#45;&gt;Node11</title>
<path fill="none" stroke="#63b8ff" d="M334.12,-36.97C364.33,-31.34 402.39,-24.25 432.26,-18.68"/>
<polygon fill="#63b8ff" stroke="#63b8ff" points="433.27,-22.05 442.46,-16.78 431.99,-15.17 433.27,-22.05"/>
</g>
</g>
</svg>
