<?xml version="1.0" encoding="UTF-8" standalone="no"?>
<!DOCTYPE svg PUBLIC "-//W3C//DTD SVG 1.1//EN"
 "http://www.w3.org/Graphics/SVG/1.1/DTD/svg11.dtd">
<!-- Generated by graphviz version 2.43.0 (0)
 -->
<!-- Title: ImGetDirQuadrantFromDelta Pages: 1 -->
<svg width="1272pt" height="1570pt"
 viewBox="0.00 0.00 1272.00 1570.03" xmlns="http://www.w3.org/2000/svg" xmlns:xlink="http://www.w3.org/1999/xlink">
<g id="graph0" class="graph" transform="scale(1 1) rotate(0) translate(4 1566.03)">
<title>ImGetDirQuadrantFromDelta</title>
<!-- Node1 -->
<g id="node1" class="node">
<title>Node1</title>
<g id="a_node1"><a xlink:title=" ">
<polygon fill="#999999" stroke="#666666" points="1264,-1135.53 1107,-1135.53 1107,-1116.53 1264,-1116.53 1264,-1135.53"/>
<text text-anchor="middle" x="1185.5" y="-1123.53" font-family="Helvetica,sans-Serif" font-size="10.00">ImGetDirQuadrantFromDelta</text>
</a>
</g>
</g>
<!-- Node2 -->
<g id="node2" class="node">
<title>Node2</title>
<g id="a_node2"><a xlink:href="namespaceImGui.html#ae0069cc2c5d2e92e9084f7da7ea4936c" target="_top" xlink:title=" ">
<polygon fill="white" stroke="#666666" points="1071,-1163.03 898,-1163.03 898,-1133.03 1071,-1133.03 1071,-1163.03"/>
<text text-anchor="start" x="906" y="-1151.03" font-family="Helvetica,sans-Serif" font-size="10.00">ImGui::DockNodeCalcDropRects</text>
<text text-anchor="middle" x="984.5" y="-1140.03" font-family="Helvetica,sans-Serif" font-size="10.00">AndTestMousePos</text>
</a>
</g>
</g>
<!-- Node1&#45;&gt;Node2 -->
<g id="edge1" class="edge">
<title>Node1&#45;&gt;Node2</title>
<path fill="none" stroke="#63b8ff" d="M1096.96,-1135.71C1088.35,-1136.66 1079.63,-1137.62 1071.04,-1138.57"/>
<polygon fill="#63b8ff" stroke="#63b8ff" points="1097.44,-1139.18 1106.99,-1134.6 1096.67,-1132.22 1097.44,-1139.18"/>
</g>
<!-- Node331 -->
<g id="node9" class="node">
<title>Node331</title>
<g id="a_node9"><a xlink:href="namespaceImGui.html#a3f63daa35c17837e05d2291af30cbd94" target="_top" xlink:title=" ">
<polygon fill="white" stroke="#666666" points="1045,-1114.53 924,-1114.53 924,-1095.53 1045,-1095.53 1045,-1114.53"/>
<text text-anchor="middle" x="984.5" y="-1102.53" font-family="Helvetica,sans-Serif" font-size="10.00">ImGui::NavScoreItem</text>
</a>
</g>
</g>
<!-- Node1&#45;&gt;Node331 -->
<g id="edge11" class="edge">
<title>Node1&#45;&gt;Node331</title>
<path fill="none" stroke="#63b8ff" d="M1096.8,-1116.77C1079.38,-1114.94 1061.46,-1113.04 1045.23,-1111.33"/>
<polygon fill="#63b8ff" stroke="#63b8ff" points="1096.68,-1120.28 1106.99,-1117.85 1097.41,-1113.32 1096.68,-1120.28"/>
</g>
<!-- Node3 -->
<g id="node3" class="node">
<title>Node3</title>
<g id="a_node3"><a xlink:href="namespaceImGui.html#ad24d7eec255244bfacce75b3faa053a7" target="_top" xlink:title=" ">
<polygon fill="white" stroke="#666666" points="862,-1514.03 696,-1514.03 696,-1484.03 862,-1484.03 862,-1514.03"/>
<text text-anchor="start" x="704" y="-1502.03" font-family="Helvetica,sans-Serif" font-size="10.00">ImGui::DockNodePreviewDock</text>
<text text-anchor="middle" x="779" y="-1491.03" font-family="Helvetica,sans-Serif" font-size="10.00">Setup</text>
</a>
</g>
</g>
<!-- Node2&#45;&gt;Node3 -->
<g id="edge2" class="edge">
<title>Node2&#45;&gt;Node3</title>
<path fill="none" stroke="#63b8ff" d="M969.51,-1172.16C930.36,-1239.68 820.49,-1429.19 788.71,-1484"/>
<polygon fill="#63b8ff" stroke="#63b8ff" points="972.77,-1173.52 974.76,-1163.11 966.71,-1170.01 972.77,-1173.52"/>
</g>
<!-- Node4 -->
<g id="node4" class="node">
<title>Node4</title>
<g id="a_node4"><a xlink:href="namespaceImGui.html#a1725ff3becdb963b97c16d69d4c9f308" target="_top" xlink:title=" ">
<polygon fill="white" stroke="#666666" points="654.5,-1514.03 506.5,-1514.03 506.5,-1484.03 654.5,-1484.03 654.5,-1514.03"/>
<text text-anchor="start" x="514.5" y="-1502.03" font-family="Helvetica,sans-Serif" font-size="10.00">ImGui::BeginDockableDrag</text>
<text text-anchor="middle" x="580.5" y="-1491.03" font-family="Helvetica,sans-Serif" font-size="10.00">DropTarget</text>
</a>
</g>
</g>
<!-- Node3&#45;&gt;Node4 -->
<g id="edge3" class="edge">
<title>Node3&#45;&gt;Node4</title>
<path fill="none" stroke="#63b8ff" d="M685.49,-1499.03C675.13,-1499.03 664.68,-1499.03 654.61,-1499.03"/>
<polygon fill="#63b8ff" stroke="#63b8ff" points="685.8,-1502.53 695.8,-1499.03 685.8,-1495.53 685.8,-1502.53"/>
</g>
<!-- Node330 -->
<g id="node8" class="node">
<title>Node330</title>
<g id="a_node8"><a xlink:href="namespaceImGui.html#afada51f9cda829dc4f7b65ca6818d4cd" target="_top" xlink:title=" ">
<polygon fill="white" stroke="#666666" points="660,-1562.03 501,-1562.03 501,-1532.03 660,-1532.03 660,-1562.03"/>
<text text-anchor="start" x="509" y="-1550.03" font-family="Helvetica,sans-Serif" font-size="10.00">ImGui::DockContextCalcDrop</text>
<text text-anchor="middle" x="580.5" y="-1539.03" font-family="Helvetica,sans-Serif" font-size="10.00">PosForDocking</text>
</a>
</g>
</g>
<!-- Node3&#45;&gt;Node330 -->
<g id="edge10" class="edge">
<title>Node3&#45;&gt;Node330</title>
<path fill="none" stroke="#63b8ff" d="M706.6,-1516.47C685.73,-1521.57 663.11,-1527.09 642.92,-1532.03"/>
<polygon fill="#63b8ff" stroke="#63b8ff" points="707.48,-1519.86 716.37,-1514.08 705.82,-1513.06 707.48,-1519.86"/>
</g>
<!-- Node5 -->
<g id="node5" class="node">
<title>Node5</title>
<g id="a_node5"><a xlink:href="namespaceImGui.html#a581e58db0bc930bafa4a5d23093a2b99" target="_top" xlink:title=" ">
<polygon fill="#fff0f0" stroke="red" points="430,-1508.53 350,-1508.53 350,-1489.53 430,-1489.53 430,-1508.53"/>
<text text-anchor="middle" x="390" y="-1496.53" font-family="Helvetica,sans-Serif" font-size="10.00">ImGui::Begin</text>
</a>
</g>
</g>
<!-- Node4&#45;&gt;Node5 -->
<g id="edge4" class="edge">
<title>Node4&#45;&gt;Node5</title>
<path fill="none" stroke="#63b8ff" d="M496.21,-1499.03C473.2,-1499.03 449.31,-1499.03 430.11,-1499.03"/>
<polygon fill="#63b8ff" stroke="#63b8ff" points="496.35,-1502.53 506.35,-1499.03 496.35,-1495.53 496.35,-1502.53"/>
</g>
<!-- Node165 -->
<g id="node6" class="node">
<title>Node165</title>
<g id="a_node6"><a xlink:href="namespaceImGui.html#a526230d8de99b07ff2b2992c192ce212" target="_top" xlink:title=" ">
<polygon fill="#fff0f0" stroke="red" points="279,-1527.53 142,-1527.53 142,-1508.53 279,-1508.53 279,-1527.53"/>
<text text-anchor="middle" x="210.5" y="-1515.53" font-family="Helvetica,sans-Serif" font-size="10.00">ImGui::DockNodeUpdate</text>
</a>
</g>
</g>
<!-- Node4&#45;&gt;Node165 -->
<g id="edge9" class="edge">
<title>Node4&#45;&gt;Node165</title>
<path fill="none" stroke="#63b8ff" d="M496.38,-1514.46C485.85,-1515.93 475.2,-1517.19 465,-1518.03 402.17,-1523.21 330.28,-1522.59 279.14,-1521.04"/>
<polygon fill="#63b8ff" stroke="#63b8ff" points="497.04,-1517.9 506.42,-1512.99 496.02,-1510.98 497.04,-1517.9"/>
</g>
<!-- Node5&#45;&gt;Node165 -->
<g id="edge5" class="edge">
<title>Node5&#45;&gt;Node165</title>
<path fill="none" stroke="#63b8ff" d="M339.53,-1504.32C320.8,-1506.33 299.15,-1508.65 279.04,-1510.8"/>
<polygon fill="#63b8ff" stroke="#63b8ff" points="340.04,-1507.79 349.61,-1503.25 339.29,-1500.83 340.04,-1507.79"/>
</g>
<!-- Node169 -->
<g id="node7" class="node">
<title>Node169</title>
<g id="a_node7"><a xlink:href="namespaceImGui.html#a3d9d26cbb99a95938979a3ca3e211f92" target="_top" xlink:title=" ">
<polygon fill="#fff0f0" stroke="red" points="106,-1489.53 0,-1489.53 0,-1470.53 106,-1470.53 106,-1489.53"/>
<text text-anchor="middle" x="53" y="-1477.53" font-family="Helvetica,sans-Serif" font-size="10.00">ImGui::DockSpace</text>
</a>
</g>
</g>
<!-- Node5&#45;&gt;Node169 -->
<g id="edge8" class="edge">
<title>Node5&#45;&gt;Node169</title>
<path fill="none" stroke="#63b8ff" d="M339.92,-1496.25C277.51,-1492.71 170.18,-1486.62 106.27,-1482.99"/>
<polygon fill="#63b8ff" stroke="#63b8ff" points="339.73,-1499.74 349.92,-1496.81 340.13,-1492.75 339.73,-1499.74"/>
</g>
<!-- Node165&#45;&gt;Node165 -->
<g id="edge6" class="edge">
<title>Node165&#45;&gt;Node165</title>
<path fill="none" stroke="#63b8ff" d="M239.62,-1536.35C238.4,-1541.54 228.7,-1545.53 210.5,-1545.53 182.77,-1545.53 174.76,-1536.26 186.46,-1527.61"/>
<polygon fill="#63b8ff" stroke="#63b8ff" points="242.59,-1534.5 234.54,-1527.61 236.54,-1538.02 242.59,-1534.5"/>
</g>
<!-- Node165&#45;&gt;Node169 -->
<g id="edge7" class="edge">
<title>Node165&#45;&gt;Node169</title>
<path fill="none" stroke="#63b8ff" d="M160.53,-1506.06C138.73,-1500.74 113.43,-1494.55 92.96,-1489.55"/>
<polygon fill="#63b8ff" stroke="#63b8ff" points="159.72,-1509.47 170.26,-1508.44 161.38,-1502.67 159.72,-1509.47"/>
</g>
<!-- Node332 -->
<g id="node10" class="node">
<title>Node332</title>
<g id="a_node10"><a xlink:href="namespaceImGui.html#aa217c2f0448788f3c064bf828a8f9d8f" target="_top" xlink:title=" ">
<polygon fill="white" stroke="#666666" points="844.5,-1114.53 713.5,-1114.53 713.5,-1095.53 844.5,-1095.53 844.5,-1114.53"/>
<text text-anchor="middle" x="779" y="-1102.53" font-family="Helvetica,sans-Serif" font-size="10.00">ImGui::NavProcessItem</text>
</a>
</g>
</g>
<!-- Node331&#45;&gt;Node332 -->
<g id="edge12" class="edge">
<title>Node331&#45;&gt;Node332</title>
<path fill="none" stroke="#63b8ff" d="M913.71,-1105.03C891.33,-1105.03 866.66,-1105.03 844.66,-1105.03"/>
<polygon fill="#63b8ff" stroke="#63b8ff" points="913.82,-1108.53 923.82,-1105.03 913.82,-1101.53 913.82,-1108.53"/>
</g>
<!-- Node333 -->
<g id="node11" class="node">
<title>Node333</title>
<g id="a_node11"><a xlink:href="namespaceImGui.html#a0c2ccafc8d403c02a6590ac21157b9ac" target="_top" xlink:title=" ">
<polygon fill="#fff0f0" stroke="red" points="627,-763.53 534,-763.53 534,-744.53 627,-744.53 627,-763.53"/>
<text text-anchor="middle" x="580.5" y="-751.53" font-family="Helvetica,sans-Serif" font-size="10.00">ImGui::ItemAdd</text>
</a>
</g>
</g>
<!-- Node332&#45;&gt;Node333 -->
<g id="edge13" class="edge">
<title>Node332&#45;&gt;Node333</title>
<path fill="none" stroke="#63b8ff" d="M767.48,-1086.23C731.39,-1021.77 613.4,-811.01 586.84,-763.57"/>
<polygon fill="#63b8ff" stroke="#63b8ff" points="764.6,-1088.26 772.54,-1095.27 770.71,-1084.84 764.6,-1088.26"/>
</g>
<!-- Node333&#45;&gt;Node169 -->
<g id="edge27" class="edge">
<title>Node333&#45;&gt;Node169</title>
<path fill="none" stroke="#63b8ff" d="M578.58,-773.88C573.78,-869.15 548.49,-1278.48 465,-1368.03 418.03,-1418.41 381.5,-1389.08 315,-1407.03 233,-1429.15 136.88,-1456.37 87.32,-1470.5"/>
<polygon fill="#63b8ff" stroke="#63b8ff" points="582.08,-774.02 579.07,-763.86 575.09,-773.68 582.08,-774.02"/>
</g>
<!-- Node246 -->
<g id="node12" class="node">
<title>Node246</title>
<g id="a_node12"><a xlink:href="namespaceImGui.html#ab05ee8e53f29fbb84942a494f2ac3292" target="_top" xlink:title=" ">
<polygon fill="#fff0f0" stroke="red" points="452.5,-1358.53 327.5,-1358.53 327.5,-1339.53 452.5,-1339.53 452.5,-1358.53"/>
<text text-anchor="middle" x="390" y="-1346.53" font-family="Helvetica,sans-Serif" font-size="10.00">ImGui::ArrowButtonEx</text>
</a>
</g>
</g>
<!-- Node333&#45;&gt;Node246 -->
<g id="edge14" class="edge">
<title>Node333&#45;&gt;Node246</title>
<path fill="none" stroke="#63b8ff" d="M578.36,-773.86C572.67,-865.62 544.45,-1248.11 465,-1331.03 461.43,-1334.75 457.23,-1337.76 452.68,-1340.18"/>
<polygon fill="#63b8ff" stroke="#63b8ff" points="581.86,-773.92 578.97,-763.73 574.87,-773.5 581.86,-773.92"/>
</g>
<!-- Node154 -->
<g id="node13" class="node">
<title>Node154</title>
<g id="a_node13"><a xlink:href="namespaceImGui.html#aa895095bdc7a2907375c555e245575ea" target="_top" xlink:title=" ">
<polygon fill="#fff0f0" stroke="red" points="447,-1321.53 333,-1321.53 333,-1302.53 447,-1302.53 447,-1321.53"/>
<text text-anchor="middle" x="390" y="-1309.53" font-family="Helvetica,sans-Serif" font-size="10.00">ImGui::BeginCombo</text>
</a>
</g>
</g>
<!-- Node333&#45;&gt;Node154 -->
<g id="edge15" class="edge">
<title>Node333&#45;&gt;Node154</title>
<path fill="none" stroke="#63b8ff" d="M578.03,-773.92C571.12,-861.99 539.05,-1215.8 465,-1293.03 460.04,-1298.2 453.88,-1302.03 447.25,-1304.87"/>
<polygon fill="#63b8ff" stroke="#63b8ff" points="581.52,-774.16 578.79,-763.92 574.54,-773.62 581.52,-774.16"/>
</g>
<!-- Node13 -->
<g id="node14" class="node">
<title>Node13</title>
<g id="a_node14"><a xlink:href="namespaceImGui.html#a2f37c541760a39c189ebdd86c15b60d9" target="_top" xlink:title=" ">
<polygon fill="#fff0f0" stroke="red" points="448,-1284.53 332,-1284.53 332,-1265.53 448,-1265.53 448,-1284.53"/>
<text text-anchor="middle" x="390" y="-1272.53" font-family="Helvetica,sans-Serif" font-size="10.00">ImGui::BeginListBox</text>
</a>
</g>
</g>
<!-- Node333&#45;&gt;Node13 -->
<g id="edge16" class="edge">
<title>Node333&#45;&gt;Node13</title>
<path fill="none" stroke="#63b8ff" d="M577.72,-773.61C569.73,-857.4 534.44,-1184.68 465,-1256.03 460.28,-1260.88 454.51,-1264.55 448.28,-1267.32"/>
<polygon fill="#63b8ff" stroke="#63b8ff" points="581.21,-773.93 578.65,-763.65 574.24,-773.28 581.21,-773.93"/>
</g>
<!-- Node51 -->
<g id="node15" class="node">
<title>Node51</title>
<g id="a_node15"><a xlink:href="namespaceImGui.html#a28046a30716afeb7738a82a5b19044ca" target="_top" xlink:title=" ">
<polygon fill="#fff0f0" stroke="red" points="448.5,-1247.53 331.5,-1247.53 331.5,-1228.53 448.5,-1228.53 448.5,-1247.53"/>
<text text-anchor="middle" x="390" y="-1235.53" font-family="Helvetica,sans-Serif" font-size="10.00">ImGui::BeginTableEx</text>
</a>
</g>
</g>
<!-- Node333&#45;&gt;Node51 -->
<g id="edge17" class="edge">
<title>Node333&#45;&gt;Node51</title>
<path fill="none" stroke="#63b8ff" d="M577.3,-773.93C568.05,-854.3 529.68,-1153.71 465,-1219.03 460.33,-1223.74 454.67,-1227.34 448.57,-1230.07"/>
<polygon fill="#63b8ff" stroke="#63b8ff" points="580.81,-774.05 578.46,-763.72 573.86,-773.26 580.81,-774.05"/>
</g>
<!-- Node334 -->
<g id="node16" class="node">
<title>Node334</title>
<g id="a_node16"><a xlink:href="namespaceImGui.html#ae2d22212681556d2c2398dfd152f3121" target="_top" xlink:title=" ">
<polygon fill="#fff0f0" stroke="red" points="430,-1210.53 350,-1210.53 350,-1191.53 430,-1191.53 430,-1210.53"/>
<text text-anchor="middle" x="390" y="-1198.53" font-family="Helvetica,sans-Serif" font-size="10.00">ImGui::Bullet</text>
</a>
</g>
</g>
<!-- Node333&#45;&gt;Node334 -->
<g id="edge18" class="edge">
<title>Node333&#45;&gt;Node334</title>
<path fill="none" stroke="#63b8ff" d="M576.87,-773.8C566.37,-849.89 525.05,-1122.58 465,-1182.03 455.76,-1191.17 442.75,-1196.1 430.21,-1198.7"/>
<polygon fill="#63b8ff" stroke="#63b8ff" points="580.37,-774.07 578.24,-763.69 573.43,-773.13 580.37,-774.07"/>
</g>
<!-- Node335 -->
<g id="node17" class="node">
<title>Node335</title>
<g id="a_node17"><a xlink:href="namespaceImGui.html#af8f4b5e96c745e205974857f9a584583" target="_top" xlink:title=" ">
<polygon fill="#fff0f0" stroke="red" points="443.5,-1173.53 336.5,-1173.53 336.5,-1154.53 443.5,-1154.53 443.5,-1173.53"/>
<text text-anchor="middle" x="390" y="-1161.53" font-family="Helvetica,sans-Serif" font-size="10.00">ImGui::BulletTextV</text>
</a>
</g>
</g>
<!-- Node333&#45;&gt;Node335 -->
<g id="edge19" class="edge">
<title>Node333&#45;&gt;Node335</title>
<path fill="none" stroke="#63b8ff" d="M580.05,-773.92C580.7,-837.84 573.66,-1039.95 465,-1145.03 458.99,-1150.84 451.46,-1154.94 443.52,-1157.82"/>
<polygon fill="#63b8ff" stroke="#63b8ff" points="583.55,-773.58 579.87,-763.65 576.55,-773.71 583.55,-773.58"/>
</g>
<!-- Node249 -->
<g id="node18" class="node">
<title>Node249</title>
<g id="a_node18"><a xlink:href="namespaceImGui.html#ae479220c66b039874c6e4c9e9b22849f" target="_top" xlink:title=" ">
<polygon fill="#fff0f0" stroke="red" points="438,-1136.53 342,-1136.53 342,-1117.53 438,-1117.53 438,-1136.53"/>
<text text-anchor="middle" x="390" y="-1124.53" font-family="Helvetica,sans-Serif" font-size="10.00">ImGui::ButtonEx</text>
</a>
</g>
</g>
<!-- Node333&#45;&gt;Node249 -->
<g id="edge20" class="edge">
<title>Node333&#45;&gt;Node249</title>
<path fill="none" stroke="#63b8ff" d="M579.34,-774C577.74,-834.03 564.48,-1014.48 465,-1108.03 457.56,-1115.03 447.9,-1119.53 438.03,-1122.41"/>
<polygon fill="#63b8ff" stroke="#63b8ff" points="582.85,-773.72 579.53,-763.66 575.85,-773.59 582.85,-773.72"/>
</g>
<!-- Node260 -->
<g id="node19" class="node">
<title>Node260</title>
<g id="a_node19"><a xlink:href="namespaceImGui.html#a57d73c1d0ef807fef734d91024092027" target="_top" xlink:title=" ">
<polygon fill="#fff0f0" stroke="red" points="440,-1099.53 340,-1099.53 340,-1080.53 440,-1080.53 440,-1099.53"/>
<text text-anchor="middle" x="390" y="-1087.53" font-family="Helvetica,sans-Serif" font-size="10.00">ImGui::Checkbox</text>
</a>
</g>
</g>
<!-- Node333&#45;&gt;Node260 -->
<g id="edge21" class="edge">
<title>Node333&#45;&gt;Node260</title>
<path fill="none" stroke="#63b8ff" d="M578.47,-774.12C574.48,-830.06 555.35,-988.9 465,-1071.03 458.03,-1077.36 449.24,-1081.65 440.16,-1084.53"/>
<polygon fill="#63b8ff" stroke="#63b8ff" points="581.98,-774 579.11,-763.81 575,-773.57 581.98,-774"/>
</g>
<!-- Node263 -->
<g id="node20" class="node">
<title>Node263</title>
<g id="a_node20"><a xlink:href="namespaceImGui.html#a4f6da873474094ce131edd2dcda98551" target="_top" xlink:title=" ">
<polygon fill="#fff0f0" stroke="red" points="445.5,-1062.53 334.5,-1062.53 334.5,-1043.53 445.5,-1043.53 445.5,-1062.53"/>
<text text-anchor="middle" x="390" y="-1050.53" font-family="Helvetica,sans-Serif" font-size="10.00">ImGui::CloseButton</text>
</a>
</g>
</g>
<!-- Node333&#45;&gt;Node263 -->
<g id="edge22" class="edge">
<title>Node333&#45;&gt;Node263</title>
<path fill="none" stroke="#63b8ff" d="M577.43,-773.82C570.98,-825.05 546.52,-962.96 465,-1034.03 459.4,-1038.91 452.71,-1042.56 445.67,-1045.3"/>
<polygon fill="#63b8ff" stroke="#63b8ff" points="580.92,-774.09 578.6,-763.75 573.97,-773.28 580.92,-774.09"/>
</g>
<!-- Node268 -->
<g id="node21" class="node">
<title>Node268</title>
<g id="a_node21"><a xlink:href="namespaceImGui.html#a203922bc5a7de6d291093dafafe3502c" target="_top" xlink:title=" ">
<polygon fill="#fff0f0" stroke="red" points="453,-1025.53 327,-1025.53 327,-1006.53 453,-1006.53 453,-1025.53"/>
<text text-anchor="middle" x="390" y="-1013.53" font-family="Helvetica,sans-Serif" font-size="10.00">ImGui::CollapseButton</text>
</a>
</g>
</g>
<!-- Node333&#45;&gt;Node268 -->
<g id="edge23" class="edge">
<title>Node333&#45;&gt;Node268</title>
<path fill="none" stroke="#63b8ff" d="M576.1,-773.67C567.01,-820.04 537.72,-936.9 465,-997.03 460.3,-1000.92 454.9,-1004.02 449.2,-1006.5"/>
<polygon fill="#63b8ff" stroke="#63b8ff" points="579.56,-774.18 577.95,-763.71 572.68,-772.9 579.56,-774.18"/>
</g>
<!-- Node233 -->
<g id="node22" class="node">
<title>Node233</title>
<g id="a_node22"><a xlink:href="namespaceImGui.html#ae2d7c8f37726810753d71d480f0af7f0" target="_top" xlink:title=" ">
<polygon fill="#fff0f0" stroke="red" points="265.5,-355.53 155.5,-355.53 155.5,-336.53 265.5,-336.53 265.5,-355.53"/>
<text text-anchor="middle" x="210.5" y="-343.53" font-family="Helvetica,sans-Serif" font-size="10.00">ImGui::ColorButton</text>
</a>
</g>
</g>
<!-- Node333&#45;&gt;Node233 -->
<g id="edge24" class="edge">
<title>Node333&#45;&gt;Node233</title>
<path fill="none" stroke="#63b8ff" d="M579.64,-733.97C579.94,-627.02 575.38,-125.3 465,-31.03 414.31,12.27 369,8.07 315,-31.03 210.32,-106.82 209.64,-291.93 211.06,-336.34"/>
<polygon fill="#63b8ff" stroke="#63b8ff" points="576.14,-734.27 579.59,-744.29 583.14,-734.31 576.14,-734.27"/>
</g>
<!-- Node217 -->
<g id="node23" class="node">
<title>Node217</title>
<g id="a_node23"><a xlink:href="namespaceImGui.html#ac2e737b701b4d252a54006a4c4214928" target="_top" xlink:title=" ">
<polygon fill="#fff0f0" stroke="red" points="462,-951.53 318,-951.53 318,-932.53 462,-932.53 462,-951.53"/>
<text text-anchor="middle" x="390" y="-939.53" font-family="Helvetica,sans-Serif" font-size="10.00">ImGui::DebugBreakButton</text>
</a>
</g>
</g>
<!-- Node333&#45;&gt;Node217 -->
<g id="edge26" class="edge">
<title>Node333&#45;&gt;Node217</title>
<path fill="none" stroke="#63b8ff" d="M571.86,-773.52C556.93,-809 520.42,-884.02 465,-923.03 459.47,-926.92 453.2,-930.02 446.72,-932.48"/>
<polygon fill="#63b8ff" stroke="#63b8ff" points="575.26,-774.45 575.8,-763.87 568.78,-771.81 575.26,-774.45"/>
</g>
<!-- Node123 -->
<g id="node24" class="node">
<title>Node123</title>
<g id="a_node24"><a xlink:href="namespaceImGui.html#a17d8926e8f44a6d00575b12081c51fe0" target="_top" xlink:title=" ">
<polygon fill="#fff0f0" stroke="red" points="442.5,-914.53 337.5,-914.53 337.5,-895.53 442.5,-895.53 442.5,-914.53"/>
<text text-anchor="middle" x="390" y="-902.53" font-family="Helvetica,sans-Serif" font-size="10.00">ImGui::DragScalar</text>
</a>
</g>
</g>
<!-- Node333&#45;&gt;Node123 -->
<g id="edge28" class="edge">
<title>Node333&#45;&gt;Node123</title>
<path fill="none" stroke="#63b8ff" d="M567.84,-772.14C549.28,-799.57 510.45,-851.55 465,-881.03 455.48,-887.2 444.24,-891.91 433.44,-895.45"/>
<polygon fill="#63b8ff" stroke="#63b8ff" points="570.93,-773.81 573.54,-763.54 565.1,-769.95 570.93,-773.81"/>
</g>
<!-- Node339 -->
<g id="node25" class="node">
<title>Node339</title>
<g id="a_node25"><a xlink:href="namespaceImGui.html#a8b0fb07113251301ff897b8578a53f34" target="_top" xlink:title=" ">
<polygon fill="#fff0f0" stroke="red" points="435.5,-988.53 344.5,-988.53 344.5,-969.53 435.5,-969.53 435.5,-988.53"/>
<text text-anchor="middle" x="390" y="-976.53" font-family="Helvetica,sans-Serif" font-size="10.00">ImGui::Dummy</text>
</a>
</g>
</g>
<!-- Node333&#45;&gt;Node339 -->
<g id="edge29" class="edge">
<title>Node333&#45;&gt;Node339</title>
<path fill="none" stroke="#63b8ff" d="M574.38,-773.42C562.51,-814.5 529.08,-910.56 465,-960.03 456.5,-966.59 445.96,-970.91 435.54,-973.74"/>
<polygon fill="#63b8ff" stroke="#63b8ff" points="577.81,-774.16 577.11,-763.59 571.06,-772.29 577.81,-774.16"/>
</g>
<!-- Node64 -->
<g id="node26" class="node">
<title>Node64</title>
<g id="a_node26"><a xlink:href="namespaceImGui.html#af89af17ecc11653f25fea1e50e195de6" target="_top" xlink:title=" ">
<polygon fill="#fff0f0" stroke="red" points="265,-857.53 156,-857.53 156,-838.53 265,-838.53 265,-857.53"/>
<text text-anchor="middle" x="210.5" y="-845.53" font-family="Helvetica,sans-Serif" font-size="10.00">ImGui::InputTextEx</text>
</a>
</g>
</g>
<!-- Node333&#45;&gt;Node64 -->
<g id="edge40" class="edge">
<title>Node333&#45;&gt;Node64</title>
<path fill="none" stroke="#63b8ff" d="M565.23,-771.32C545.46,-793.78 507.34,-831.91 465,-847.03 398.27,-870.86 315.21,-865.11 262.75,-857.56"/>
<polygon fill="#63b8ff" stroke="#63b8ff" points="568.04,-773.43 571.88,-763.56 562.72,-768.88 568.04,-773.43"/>
</g>
<!-- Node342 -->
<g id="node27" class="node">
<title>Node342</title>
<g id="a_node27"><a xlink:href="namespaceImGui.html#af8de559a88c1442d6df8c1b04c86e997" target="_top" xlink:title=" ">
<polygon fill="#fff0f0" stroke="red" points="437.5,-801.53 342.5,-801.53 342.5,-782.53 437.5,-782.53 437.5,-801.53"/>
<text text-anchor="middle" x="390" y="-789.53" font-family="Helvetica,sans-Serif" font-size="10.00">ImGui::EndChild</text>
</a>
</g>
</g>
<!-- Node333&#45;&gt;Node342 -->
<g id="edge31" class="edge">
<title>Node333&#45;&gt;Node342</title>
<path fill="none" stroke="#63b8ff" d="M524,-765.22C496.51,-770.76 463.68,-777.38 437.52,-782.65"/>
<polygon fill="#63b8ff" stroke="#63b8ff" points="524.76,-768.63 533.87,-763.23 523.37,-761.77 524.76,-768.63"/>
</g>
<!-- Node202 -->
<g id="node28" class="node">
<title>Node202</title>
<g id="a_node28"><a xlink:href="namespaceImGui.html#a9c70aaa6464c2e51e6f3342da133ada1" target="_top" xlink:title=" ">
<polygon fill="#fff0f0" stroke="red" points="258,-782.53 163,-782.53 163,-763.53 258,-763.53 258,-782.53"/>
<text text-anchor="middle" x="210.5" y="-770.53" font-family="Helvetica,sans-Serif" font-size="10.00">ImGui::EndTable</text>
</a>
</g>
</g>
<!-- Node333&#45;&gt;Node202 -->
<g id="edge37" class="edge">
<title>Node333&#45;&gt;Node202</title>
<path fill="none" stroke="#63b8ff" d="M523.33,-756.93C450.79,-760.67 325.85,-767.13 258.23,-770.62"/>
<polygon fill="#63b8ff" stroke="#63b8ff" points="523.83,-760.41 533.64,-756.4 523.47,-753.42 523.83,-760.41"/>
</g>
<!-- Node269 -->
<g id="node29" class="node">
<title>Node269</title>
<g id="a_node29"><a xlink:href="namespaceImGui.html#af93bed3bce5475fe4d525d744f16aa20" target="_top" xlink:title=" ">
<polygon fill="#fff0f0" stroke="red" points="446.5,-725.53 333.5,-725.53 333.5,-706.53 446.5,-706.53 446.5,-725.53"/>
<text text-anchor="middle" x="390" y="-713.53" font-family="Helvetica,sans-Serif" font-size="10.00">ImGui::EndColumns</text>
</a>
</g>
</g>
<!-- Node333&#45;&gt;Node269 -->
<g id="edge34" class="edge">
<title>Node333&#45;&gt;Node269</title>
<path fill="none" stroke="#63b8ff" d="M523.72,-742.78C496.51,-737.3 464.14,-730.77 438.18,-725.54"/>
<polygon fill="#63b8ff" stroke="#63b8ff" points="523.37,-746.28 533.87,-744.83 524.76,-739.42 523.37,-746.28"/>
</g>
<!-- Node345 -->
<g id="node30" class="node">
<title>Node345</title>
<g id="a_node30"><a xlink:href="namespaceImGui.html#a05fc97fc64f28a55486087f503d9a622" target="_top" xlink:title=" ">
<polygon fill="#fff0f0" stroke="red" points="439.5,-838.53 340.5,-838.53 340.5,-819.53 439.5,-819.53 439.5,-838.53"/>
<text text-anchor="middle" x="390" y="-826.53" font-family="Helvetica,sans-Serif" font-size="10.00">ImGui::EndGroup</text>
</a>
</g>
</g>
<!-- Node333&#45;&gt;Node345 -->
<g id="edge35" class="edge">
<title>Node333&#45;&gt;Node345</title>
<path fill="none" stroke="#63b8ff" d="M553.51,-768.64C530.73,-780.98 496.43,-798.45 465,-810.03 455.29,-813.61 444.63,-816.77 434.5,-819.43"/>
<polygon fill="#63b8ff" stroke="#63b8ff" points="555.44,-771.57 562.52,-763.7 552.07,-765.43 555.44,-771.57"/>
</g>
<!-- Node277 -->
<g id="node31" class="node">
<title>Node277</title>
<g id="a_node31"><a xlink:href="namespaceImGui.html#a59c33b3ea5bc1e5ce9d82a059a47352a" target="_top" xlink:title=" ">
<polygon fill="#fff0f0" stroke="red" points="453.5,-651.53 326.5,-651.53 326.5,-632.53 453.5,-632.53 453.5,-651.53"/>
<text text-anchor="middle" x="390" y="-639.53" font-family="Helvetica,sans-Serif" font-size="10.00">ImGui::ImageButtonEx</text>
</a>
</g>
</g>
<!-- Node333&#45;&gt;Node277 -->
<g id="edge38" class="edge">
<title>Node333&#45;&gt;Node277</title>
<path fill="none" stroke="#63b8ff" d="M563.72,-737.03C543.06,-715.81 504.79,-679.89 465,-660.03 458.14,-656.6 450.59,-653.81 443.01,-651.53"/>
<polygon fill="#63b8ff" stroke="#63b8ff" points="561.3,-739.56 570.74,-744.38 566.36,-734.73 561.3,-739.56"/>
</g>
<!-- Node348 -->
<g id="node32" class="node">
<title>Node348</title>
<g id="a_node32"><a xlink:href="namespaceImGui.html#a347dcf67ee8c3a5e12e3b05a11e5cf31" target="_top" xlink:title=" ">
<polygon fill="#fff0f0" stroke="red" points="449,-614.53 331,-614.53 331,-595.53 449,-595.53 449,-614.53"/>
<text text-anchor="middle" x="390" y="-602.53" font-family="Helvetica,sans-Serif" font-size="10.00">ImGui::ImageWithBg</text>
</a>
</g>
</g>
<!-- Node333&#45;&gt;Node348 -->
<g id="edge39" class="edge">
<title>Node333&#45;&gt;Node348</title>
<path fill="none" stroke="#63b8ff" d="M568.75,-735.7C550.95,-707.03 512.56,-651.9 465,-623.03 459.35,-619.6 453.08,-616.82 446.66,-614.57"/>
<polygon fill="#63b8ff" stroke="#63b8ff" points="565.8,-737.59 573.98,-744.33 571.79,-733.96 565.8,-737.59"/>
</g>
<!-- Node279 -->
<g id="node33" class="node">
<title>Node279</title>
<g id="a_node33"><a xlink:href="namespaceImGui.html#a1f61951b9d3a38083bd77b1dbe3ea895" target="_top" xlink:title=" ">
<polygon fill="#fff0f0" stroke="red" points="452.5,-577.53 327.5,-577.53 327.5,-558.53 452.5,-558.53 452.5,-577.53"/>
<text text-anchor="middle" x="390" y="-565.53" font-family="Helvetica,sans-Serif" font-size="10.00">ImGui::InvisibleButton</text>
</a>
</g>
</g>
<!-- Node333&#45;&gt;Node279 -->
<g id="edge41" class="edge">
<title>Node333&#45;&gt;Node279</title>
<path fill="none" stroke="#63b8ff" d="M571.87,-734.58C556.97,-699.21 520.49,-624.45 465,-586.03 460.11,-582.64 454.65,-579.89 448.97,-577.65"/>
<polygon fill="#63b8ff" stroke="#63b8ff" points="568.79,-736.28 575.81,-744.21 575.27,-733.63 568.79,-736.28"/>
</g>
<!-- Node351 -->
<g id="node34" class="node">
<title>Node351</title>
<g id="a_node34"><a xlink:href="namespaceImGui.html#a55e5a7edb676a8f5cd7f65443138a8a0" target="_top" xlink:title=" ">
<polygon fill="#fff0f0" stroke="red" points="442.5,-540.53 337.5,-540.53 337.5,-521.53 442.5,-521.53 442.5,-540.53"/>
<text text-anchor="middle" x="390" y="-528.53" font-family="Helvetica,sans-Serif" font-size="10.00">ImGui::LabelTextV</text>
</a>
</g>
</g>
<!-- Node333&#45;&gt;Node351 -->
<g id="edge42" class="edge">
<title>Node333&#45;&gt;Node351</title>
<path fill="none" stroke="#63b8ff" d="M574.4,-734.66C562.56,-693.66 529.21,-597.84 465,-549.03 458.47,-544.07 450.77,-540.45 442.84,-537.83"/>
<polygon fill="#63b8ff" stroke="#63b8ff" points="571.08,-735.78 577.12,-744.48 577.82,-733.91 571.08,-735.78"/>
</g>
<!-- Node282 -->
<g id="node35" class="node">
<title>Node282</title>
<g id="a_node35"><a xlink:href="namespaceImGui.html#afb3147b9a00e396e0b11a1bfe24b8f42" target="_top" xlink:title=" ">
<polygon fill="#fff0f0" stroke="red" points="431.5,-503.53 348.5,-503.53 348.5,-484.53 431.5,-484.53 431.5,-503.53"/>
<text text-anchor="middle" x="390" y="-491.53" font-family="Helvetica,sans-Serif" font-size="10.00">ImGui::PlotEx</text>
</a>
</g>
</g>
<!-- Node333&#45;&gt;Node282 -->
<g id="edge43" class="edge">
<title>Node333&#45;&gt;Node282</title>
<path fill="none" stroke="#63b8ff" d="M576.12,-734.4C567.09,-688.09 537.9,-571.43 465,-512.03 455.57,-504.34 443.36,-499.86 431.59,-497.27"/>
<polygon fill="#63b8ff" stroke="#63b8ff" points="572.7,-735.16 577.96,-744.35 579.59,-733.88 572.7,-735.16"/>
</g>
<!-- Node354 -->
<g id="node36" class="node">
<title>Node354</title>
<g id="a_node36"><a xlink:href="namespaceImGui.html#a412b0416ad68c0ac46e5d66805d911ff" target="_top" xlink:title=" ">
<polygon fill="#fff0f0" stroke="red" points="445,-466.53 335,-466.53 335,-447.53 445,-447.53 445,-466.53"/>
<text text-anchor="middle" x="390" y="-454.53" font-family="Helvetica,sans-Serif" font-size="10.00">ImGui::ProgressBar</text>
</a>
</g>
</g>
<!-- Node333&#45;&gt;Node354 -->
<g id="edge44" class="edge">
<title>Node333&#45;&gt;Node354</title>
<path fill="none" stroke="#63b8ff" d="M577.46,-734.25C571.08,-683.05 546.77,-545.31 465,-475.03 459.28,-470.12 452.45,-466.5 445.27,-463.84"/>
<polygon fill="#63b8ff" stroke="#63b8ff" points="573.99,-734.78 578.61,-744.31 580.95,-733.98 573.99,-734.78"/>
</g>
<!-- Node285 -->
<g id="node37" class="node">
<title>Node285</title>
<g id="a_node37"><a xlink:href="namespaceImGui.html#a6b146763845cbad5a4144772279631bc" target="_top" xlink:title=" ">
<polygon fill="#fff0f0" stroke="red" points="446,-429.53 334,-429.53 334,-410.53 446,-410.53 446,-429.53"/>
<text text-anchor="middle" x="390" y="-417.53" font-family="Helvetica,sans-Serif" font-size="10.00">ImGui::RadioButton</text>
</a>
</g>
</g>
<!-- Node333&#45;&gt;Node285 -->
<g id="edge45" class="edge">
<title>Node333&#45;&gt;Node285</title>
<path fill="none" stroke="#63b8ff" d="M578.5,-733.94C574.6,-678.02 555.66,-519.3 465,-438.03 459.59,-433.17 453.08,-429.58 446.21,-426.92"/>
<polygon fill="#63b8ff" stroke="#63b8ff" points="575.03,-734.48 579.13,-744.25 582.02,-734.06 575.03,-734.48"/>
</g>
<!-- Node289 -->
<g id="node38" class="node">
<title>Node289</title>
<g id="a_node38"><a xlink:href="namespaceImGui.html#a48ccf19746c1f9679c394b1445c3ab29" target="_top" xlink:title=" ">
<polygon fill="#fff0f0" stroke="red" points="443.5,-392.53 336.5,-392.53 336.5,-373.53 443.5,-373.53 443.5,-392.53"/>
<text text-anchor="middle" x="390" y="-380.53" font-family="Helvetica,sans-Serif" font-size="10.00">ImGui::ScrollbarEx</text>
</a>
</g>
</g>
<!-- Node333&#45;&gt;Node289 -->
<g id="edge46" class="edge">
<title>Node333&#45;&gt;Node289</title>
<path fill="none" stroke="#63b8ff" d="M579.38,-734.06C577.87,-674.03 564.86,-493.66 465,-401.03 458.99,-395.45 451.55,-391.52 443.73,-388.77"/>
<polygon fill="#63b8ff" stroke="#63b8ff" points="575.88,-734.46 579.55,-744.4 582.88,-734.34 575.88,-734.46"/>
</g>
<!-- Node291 -->
<g id="node39" class="node">
<title>Node291</title>
<g id="a_node39"><a xlink:href="namespaceImGui.html#af98575238bda183a523df19fb447af60" target="_top" xlink:title=" ">
<polygon fill="#fff0f0" stroke="red" points="441.5,-355.53 338.5,-355.53 338.5,-336.53 441.5,-336.53 441.5,-355.53"/>
<text text-anchor="middle" x="390" y="-343.53" font-family="Helvetica,sans-Serif" font-size="10.00">ImGui::Selectable</text>
</a>
</g>
</g>
<!-- Node333&#45;&gt;Node291 -->
<g id="edge47" class="edge">
<title>Node333&#45;&gt;Node291</title>
<path fill="none" stroke="#63b8ff" d="M580.09,-734.13C580.84,-670.19 574.1,-468.13 465,-364.03 458.5,-357.82 450.22,-353.64 441.59,-350.85"/>
<polygon fill="#63b8ff" stroke="#63b8ff" points="576.59,-734.34 579.89,-744.41 583.59,-734.48 576.59,-734.34"/>
</g>
<!-- Node355 -->
<g id="node40" class="node">
<title>Node355</title>
<g id="a_node40"><a xlink:href="namespaceImGui.html#acd77978447d71b3113ad084dfde1fe18" target="_top" xlink:title=" ">
<polygon fill="#fff0f0" stroke="red" points="445.5,-318.53 334.5,-318.53 334.5,-299.53 445.5,-299.53 445.5,-318.53"/>
<text text-anchor="middle" x="390" y="-306.53" font-family="Helvetica,sans-Serif" font-size="10.00">ImGui::SeparatorEx</text>
</a>
</g>
</g>
<!-- Node333&#45;&gt;Node355 -->
<g id="edge48" class="edge">
<title>Node333&#45;&gt;Node355</title>
<path fill="none" stroke="#63b8ff" d="M576.89,-734.28C566.44,-658.28 525.32,-385.95 465,-327.03 459.61,-321.76 452.95,-317.95 445.86,-315.2"/>
<polygon fill="#63b8ff" stroke="#63b8ff" points="573.44,-734.94 578.25,-744.38 580.38,-734 573.44,-734.94"/>
</g>
<!-- Node358 -->
<g id="node41" class="node">
<title>Node358</title>
<g id="a_node41"><a xlink:href="namespaceImGui.html#a14e42bfa66f05d0ae2304e27ee1fb2b3" target="_top" xlink:title=" ">
<polygon fill="#fff0f0" stroke="red" points="455.5,-281.53 324.5,-281.53 324.5,-262.53 455.5,-262.53 455.5,-281.53"/>
<text text-anchor="middle" x="390" y="-269.53" font-family="Helvetica,sans-Serif" font-size="10.00">ImGui::SeparatorTextEx</text>
</a>
</g>
</g>
<!-- Node333&#45;&gt;Node358 -->
<g id="edge49" class="edge">
<title>Node333&#45;&gt;Node358</title>
<path fill="none" stroke="#63b8ff" d="M577.32,-734.15C568.13,-653.86 529.97,-354.79 465,-290.03 461.63,-286.67 457.74,-283.9 453.55,-281.62"/>
<polygon fill="#63b8ff" stroke="#63b8ff" points="573.87,-734.8 578.47,-744.35 580.83,-734.02 573.87,-734.8"/>
</g>
<!-- Node137 -->
<g id="node42" class="node">
<title>Node137</title>
<g id="a_node42"><a xlink:href="namespaceImGui.html#afdd7faa9a69f75b8d674cdc207441bea" target="_top" xlink:title=" ">
<polygon fill="#fff0f0" stroke="red" points="445,-244.53 335,-244.53 335,-225.53 445,-225.53 445,-244.53"/>
<text text-anchor="middle" x="390" y="-232.53" font-family="Helvetica,sans-Serif" font-size="10.00">ImGui::SliderScalar</text>
</a>
</g>
</g>
<!-- Node333&#45;&gt;Node137 -->
<g id="edge50" class="edge">
<title>Node333&#45;&gt;Node137</title>
<path fill="none" stroke="#63b8ff" d="M577.72,-734.2C569.75,-650.08 534.71,-323.71 465,-253.03 459.52,-247.47 452.64,-243.52 445.29,-240.73"/>
<polygon fill="#63b8ff" stroke="#63b8ff" points="574.25,-734.78 578.66,-744.42 581.22,-734.14 574.25,-734.78"/>
</g>
<!-- Node304 -->
<g id="node43" class="node">
<title>Node304</title>
<g id="a_node43"><a xlink:href="namespaceImGui.html#a285913cd915ee715cd6a804e1b83814c" target="_top" xlink:title=" ">
<polygon fill="#fff0f0" stroke="red" points="455.5,-207.53 324.5,-207.53 324.5,-188.53 455.5,-188.53 455.5,-207.53"/>
<text text-anchor="middle" x="390" y="-195.53" font-family="Helvetica,sans-Serif" font-size="10.00">ImGui::SplitterBehavior</text>
</a>
</g>
</g>
<!-- Node333&#45;&gt;Node304 -->
<g id="edge51" class="edge">
<title>Node333&#45;&gt;Node304</title>
<path fill="none" stroke="#63b8ff" d="M578.05,-734.15C571.21,-646.15 539.43,-292.64 465,-216.03 461.78,-212.71 458.05,-209.96 454.02,-207.69"/>
<polygon fill="#63b8ff" stroke="#63b8ff" points="574.56,-734.44 578.8,-744.14 581.54,-733.91 574.56,-734.44"/>
</g>
<!-- Node184 -->
<g id="node44" class="node">
<title>Node184</title>
<g id="a_node44"><a xlink:href="namespaceImGui.html#a4e0986fc689e7855cd9a9099dc87dac5" target="_top" xlink:title=" ">
<polygon fill="#fff0f0" stroke="red" points="441.5,-170.53 338.5,-170.53 338.5,-151.53 441.5,-151.53 441.5,-170.53"/>
<text text-anchor="middle" x="390" y="-158.53" font-family="Helvetica,sans-Serif" font-size="10.00">ImGui::TabItemEx</text>
</a>
</g>
</g>
<!-- Node333&#45;&gt;Node184 -->
<g id="edge52" class="edge">
<title>Node333&#45;&gt;Node184</title>
<path fill="none" stroke="#63b8ff" d="M578.35,-734.27C572.61,-642.82 544.21,-261.64 465,-179.03 458.69,-172.44 450.4,-168.1 441.66,-165.27"/>
<polygon fill="#63b8ff" stroke="#63b8ff" points="574.86,-734.6 578.96,-744.37 581.85,-734.17 574.86,-734.6"/>
</g>
<!-- Node240 -->
<g id="node45" class="node">
<title>Node240</title>
<g id="a_node45"><a xlink:href="namespaceImGui.html#ae51bc07bc518779f58def3c0e2d0045c" target="_top" xlink:title=" ">
<polygon fill="#fff0f0" stroke="red" points="446.5,-133.53 333.5,-133.53 333.5,-114.53 446.5,-114.53 446.5,-133.53"/>
<text text-anchor="middle" x="390" y="-121.53" font-family="Helvetica,sans-Serif" font-size="10.00">ImGui::TableHeader</text>
</a>
</g>
</g>
<!-- Node333&#45;&gt;Node240 -->
<g id="edge53" class="edge">
<title>Node333&#45;&gt;Node240</title>
<path fill="none" stroke="#63b8ff" d="M578.6,-734.21C573.89,-639.12 548.96,-230.61 465,-142.03 459.91,-136.65 453.5,-132.77 446.6,-129.98"/>
<polygon fill="#63b8ff" stroke="#63b8ff" points="575.11,-734.39 579.08,-744.21 582.1,-734.06 575.11,-734.39"/>
</g>
<!-- Node306 -->
<g id="node46" class="node">
<title>Node306</title>
<g id="a_node46"><a xlink:href="namespaceImGui.html#a339483446800bd4c7d2e4f5683e21de0" target="_top" xlink:title=" ">
<polygon fill="#fff0f0" stroke="red" points="465,-96.53 315,-96.53 315,-77.53 465,-77.53 465,-96.53"/>
<text text-anchor="middle" x="390" y="-84.53" font-family="Helvetica,sans-Serif" font-size="10.00">ImGui::TableUpdateBorders</text>
</a>
</g>
</g>
<!-- Node333&#45;&gt;Node306 -->
<g id="edge54" class="edge">
<title>Node333&#45;&gt;Node306</title>
<path fill="none" stroke="#63b8ff" d="M578.82,-733.97C575.07,-634.97 553.66,-199.55 465,-105.03 461.83,-101.65 458.15,-98.86 454.15,-96.57"/>
<polygon fill="#63b8ff" stroke="#63b8ff" points="575.33,-734.23 579.19,-744.1 582.32,-733.98 575.33,-734.23"/>
</g>
<!-- Node324 -->
<g id="node47" class="node">
<title>Node324</title>
<g id="a_node47"><a xlink:href="namespaceImGui.html#a4942b61c60a8ba238b3ca6b6ec472dd0" target="_top" xlink:title=" ">
<polygon fill="#fff0f0" stroke="red" points="448,-59.53 332,-59.53 332,-40.53 448,-40.53 448,-59.53"/>
<text text-anchor="middle" x="390" y="-47.53" font-family="Helvetica,sans-Serif" font-size="10.00">ImGui::TextAlignedV</text>
</a>
</g>
</g>
<!-- Node333&#45;&gt;Node324 -->
<g id="edge55" class="edge">
<title>Node333&#45;&gt;Node324</title>
<path fill="none" stroke="#63b8ff" d="M579.04,-734.46C576.28,-633.1 558.59,-168.74 465,-68.03 460.32,-62.99 454.49,-59.26 448.16,-56.51"/>
<polygon fill="#63b8ff" stroke="#63b8ff" points="575.55,-734.61 579.3,-744.51 582.54,-734.43 575.55,-734.61"/>
</g>
<!-- Node360 -->
<g id="node48" class="node">
<title>Node360</title>
<g id="a_node48"><a xlink:href="namespaceImGui.html#aae6420fec03511fd478d9108f31e6b5f" target="_top" xlink:title=" ">
<polygon fill="#fff0f0" stroke="red" points="432,-688.53 348,-688.53 348,-669.53 432,-669.53 432,-688.53"/>
<text text-anchor="middle" x="390" y="-676.53" font-family="Helvetica,sans-Serif" font-size="10.00">ImGui::TextEx</text>
</a>
</g>
</g>
<!-- Node333&#45;&gt;Node360 -->
<g id="edge56" class="edge">
<title>Node333&#45;&gt;Node360</title>
<path fill="none" stroke="#63b8ff" d="M554.36,-739.46C531.63,-726.8 496.94,-708.7 465,-697.03 454.57,-693.22 443.01,-689.97 432.2,-687.33"/>
<polygon fill="#63b8ff" stroke="#63b8ff" points="552.9,-742.66 563.33,-744.53 556.34,-736.56 552.9,-742.66"/>
</g>
<!-- Node307 -->
<g id="node49" class="node">
<title>Node307</title>
<g id="a_node49"><a xlink:href="namespaceImGui.html#a88194dfe3ccaa0c498ae88f47220e796" target="_top" xlink:title=" ">
<polygon fill="#fff0f0" stroke="red" points="436,-1471.53 344,-1471.53 344,-1452.53 436,-1452.53 436,-1471.53"/>
<text text-anchor="middle" x="390" y="-1459.53" font-family="Helvetica,sans-Serif" font-size="10.00">ImGui::TextLink</text>
</a>
</g>
</g>
<!-- Node333&#45;&gt;Node307 -->
<g id="edge58" class="edge">
<title>Node333&#45;&gt;Node307</title>
<path fill="none" stroke="#63b8ff" d="M579.06,-773.72C576.38,-875.65 559.07,-1342.71 465,-1444.03 457.44,-1452.17 446.88,-1456.9 436.09,-1459.59"/>
<polygon fill="#63b8ff" stroke="#63b8ff" points="582.56,-773.68 579.31,-763.6 575.56,-773.51 582.56,-773.68"/>
</g>
<!-- Node308 -->
<g id="node50" class="node">
<title>Node308</title>
<g id="a_node50"><a xlink:href="namespaceImGui.html#a918eabf70d288e93b2519ee1eac2c0b4" target="_top" xlink:title=" ">
<polygon fill="#fff0f0" stroke="red" points="460.5,-1434.53 319.5,-1434.53 319.5,-1415.53 460.5,-1415.53 460.5,-1434.53"/>
<text text-anchor="middle" x="390" y="-1422.53" font-family="Helvetica,sans-Serif" font-size="10.00">ImGui::TreeNodeBehavior</text>
</a>
</g>
</g>
<!-- Node333&#45;&gt;Node308 -->
<g id="edge59" class="edge">
<title>Node333&#45;&gt;Node308</title>
<path fill="none" stroke="#63b8ff" d="M578.67,-773.9C574.18,-871.97 549.82,-1303.57 465,-1401.03 459.5,-1407.35 452.33,-1412.01 444.61,-1415.45"/>
<polygon fill="#63b8ff" stroke="#63b8ff" points="582.17,-774.01 579.11,-763.86 575.17,-773.7 582.17,-774.01"/>
</g>
<!-- Node233&#45;&gt;Node233 -->
<g id="edge25" class="edge">
<title>Node233&#45;&gt;Node233</title>
<path fill="none" stroke="#63b8ff" d="M239.62,-364.35C238.4,-369.54 228.7,-373.53 210.5,-373.53 182.77,-373.53 174.76,-364.26 186.46,-355.61"/>
<polygon fill="#63b8ff" stroke="#63b8ff" points="242.59,-362.5 234.54,-355.61 236.54,-366.02 242.59,-362.5"/>
</g>
<!-- Node339&#45;&gt;Node64 -->
<g id="edge30" class="edge">
<title>Node339&#45;&gt;Node64</title>
<path fill="none" stroke="#63b8ff" d="M334.36,-968.85C327.6,-966.49 320.97,-963.59 315,-960.03 269.3,-932.76 231.56,-879.27 217.45,-857.54"/>
<polygon fill="#63b8ff" stroke="#63b8ff" points="333.72,-972.32 344.31,-971.94 335.79,-965.63 333.72,-972.32"/>
</g>
<!-- Node342&#45;&gt;Node64 -->
<g id="edge33" class="edge">
<title>Node342&#45;&gt;Node64</title>
<path fill="none" stroke="#63b8ff" d="M336.37,-804.05C329.16,-805.93 321.87,-807.94 315,-810.03 287.16,-818.49 255.9,-830.3 235.08,-838.5"/>
<polygon fill="#63b8ff" stroke="#63b8ff" points="337.29,-807.43 346.12,-801.59 335.57,-800.64 337.29,-807.43"/>
</g>
<!-- Node342&#45;&gt;Node202 -->
<g id="edge32" class="edge">
<title>Node342&#45;&gt;Node202</title>
<path fill="none" stroke="#63b8ff" d="M332.35,-785.96C308.41,-783.4 280.87,-780.45 258.13,-778.02"/>
<polygon fill="#63b8ff" stroke="#63b8ff" points="332.05,-789.45 342.36,-787.04 332.79,-782.49 332.05,-789.45"/>
</g>
<!-- Node345&#45;&gt;Node64 -->
<g id="edge36" class="edge">
<title>Node345&#45;&gt;Node64</title>
<path fill="none" stroke="#63b8ff" d="M330.41,-835.3C309.4,-837.55 285.83,-840.07 265.25,-842.28"/>
<polygon fill="#63b8ff" stroke="#63b8ff" points="330.93,-838.77 340.5,-834.22 330.18,-831.81 330.93,-838.77"/>
</g>
<!-- Node360&#45;&gt;Node233 -->
<g id="edge57" class="edge">
<title>Node360&#45;&gt;Node233</title>
<path fill="none" stroke="#63b8ff" d="M338.11,-673.16C329.62,-670.27 321.48,-666.08 315,-660.03 221.3,-572.41 212.32,-398.45 211.55,-355.69"/>
<polygon fill="#63b8ff" stroke="#63b8ff" points="337.2,-676.54 347.78,-675.89 339.1,-669.8 337.2,-676.54"/>
</g>
</g>
</svg>
