<?xml version="1.0" encoding="UTF-8" standalone="no"?>
<!DOCTYPE svg PUBLIC "-//W3C//DTD SVG 1.1//EN"
 "http://www.w3.org/Graphics/SVG/1.1/DTD/svg11.dtd">
<!-- Generated by graphviz version 2.43.0 (0)
 -->
<!-- Title: DebugPrintInputEvent Pages: 1 -->
<svg width="493pt" height="113pt"
 viewBox="0.00 0.00 493.00 112.50" xmlns="http://www.w3.org/2000/svg" xmlns:xlink="http://www.w3.org/1999/xlink">
<g id="graph0" class="graph" transform="scale(1 1) rotate(0) translate(4 108.5)">
<title>DebugPrintInputEvent</title>
<!-- Node1 -->
<g id="node1" class="node">
<title>Node1</title>
<g id="a_node1"><a xlink:title=" ">
<polygon fill="#999999" stroke="#666666" points="123,-37 0,-37 0,-18 123,-18 123,-37"/>
<text text-anchor="middle" x="61.5" y="-25" font-family="Helvetica,sans-Serif" font-size="10.00">DebugPrintInputEvent</text>
</a>
</g>
</g>
<!-- Node2 -->
<g id="node2" class="node">
<title>Node2</title>
<g id="a_node2"><a xlink:href="namespaceImGui.html#a1d631e0e344472fb2da1a53a6bf55448" target="_top" xlink:title=" ">
<polygon fill="white" stroke="#666666" points="281,-56 165,-56 165,-37 281,-37 281,-56"/>
<text text-anchor="middle" x="223" y="-44" font-family="Helvetica,sans-Serif" font-size="10.00">ImGui::GetKeyName</text>
</a>
</g>
</g>
<!-- Node1&#45;&gt;Node2 -->
<g id="edge1" class="edge">
<title>Node1&#45;&gt;Node2</title>
<path fill="none" stroke="#63b8ff" d="M123.26,-34.74C133.6,-35.97 144.39,-37.25 154.88,-38.5"/>
<polygon fill="#63b8ff" stroke="#63b8ff" points="154.48,-41.98 164.83,-39.69 155.31,-35.03 154.48,-41.98"/>
</g>
<!-- Node6 -->
<g id="node6" class="node">
<title>Node6</title>
<g id="a_node6"><a xlink:href="imgui_8cpp.html#a06481235eb859e3ad05ad1c719a71c50" target="_top" xlink:title=" ">
<polygon fill="white" stroke="#666666" points="287,-19 159,-19 159,0 287,0 287,-19"/>
<text text-anchor="middle" x="223" y="-7" font-family="Helvetica,sans-Serif" font-size="10.00">GetMouseSourceName</text>
</a>
</g>
</g>
<!-- Node1&#45;&gt;Node6 -->
<g id="edge5" class="edge">
<title>Node1&#45;&gt;Node6</title>
<path fill="none" stroke="#63b8ff" d="M123.26,-20.64C131.61,-19.7 140.26,-18.73 148.8,-17.76"/>
<polygon fill="#63b8ff" stroke="#63b8ff" points="149.22,-21.24 158.76,-16.64 148.44,-14.28 149.22,-21.24"/>
</g>
<!-- Node3 -->
<g id="node3" class="node">
<title>Node3</title>
<g id="a_node3"><a xlink:href="namespaceImGui.html#ad540a8f07e5834f77f76a84626cdc70e" target="_top" xlink:title=" ">
<polygon fill="white" stroke="#666666" points="485,-104.5 323,-104.5 323,-74.5 485,-74.5 485,-104.5"/>
<text text-anchor="start" x="331" y="-92.5" font-family="Helvetica,sans-Serif" font-size="10.00">ImGui::ConvertSingleModFlag</text>
<text text-anchor="middle" x="404" y="-81.5" font-family="Helvetica,sans-Serif" font-size="10.00">ToKey</text>
</a>
</g>
</g>
<!-- Node2&#45;&gt;Node3 -->
<g id="edge2" class="edge">
<title>Node2&#45;&gt;Node3</title>
<path fill="none" stroke="#63b8ff" d="M263.73,-56.04C283.37,-60.76 307.72,-66.61 330.53,-72.09"/>
<polygon fill="#63b8ff" stroke="#63b8ff" points="329.99,-75.56 340.53,-74.49 331.63,-68.75 329.99,-75.56"/>
</g>
<!-- Node4 -->
<g id="node4" class="node">
<title>Node4</title>
<g id="a_node4"><a xlink:href="namespaceImGui.html#a1e6a2ce7696a25d0dd0cf318e3b48a33" target="_top" xlink:title=" ">
<polygon fill="white" stroke="#666666" points="460.5,-56 347.5,-56 347.5,-37 460.5,-37 460.5,-56"/>
<text text-anchor="middle" x="404" y="-44" font-family="Helvetica,sans-Serif" font-size="10.00">ImGui::IsNamedKey</text>
</a>
</g>
</g>
<!-- Node2&#45;&gt;Node4 -->
<g id="edge3" class="edge">
<title>Node2&#45;&gt;Node4</title>
<path fill="none" stroke="#63b8ff" d="M281.13,-46.5C299,-46.5 318.86,-46.5 337.27,-46.5"/>
<polygon fill="#63b8ff" stroke="#63b8ff" points="337.33,-50 347.33,-46.5 337.33,-43 337.33,-50"/>
</g>
<!-- Node5 -->
<g id="node5" class="node">
<title>Node5</title>
<g id="a_node5"><a xlink:href="namespaceImGui.html#ad97807fb804a4d11866e5bca7d08d59c" target="_top" xlink:title=" ">
<polygon fill="white" stroke="#666666" points="477,-19 331,-19 331,0 477,0 477,-19"/>
<text text-anchor="middle" x="404" y="-7" font-family="Helvetica,sans-Serif" font-size="10.00">ImGui::IsNamedKeyOrMod</text>
</a>
</g>
</g>
<!-- Node2&#45;&gt;Node5 -->
<g id="edge4" class="edge">
<title>Node2&#45;&gt;Node5</title>
<path fill="none" stroke="#63b8ff" d="M270.1,-36.97C293.5,-32.14 322.12,-26.22 346.8,-21.12"/>
<polygon fill="#63b8ff" stroke="#63b8ff" points="347.66,-24.51 356.75,-19.06 346.25,-17.66 347.66,-24.51"/>
</g>
</g>
</svg>
