<?xml version="1.0" encoding="UTF-8" standalone="no"?>
<!DOCTYPE svg PUBLIC "-//W3C//DTD SVG 1.1//EN"
 "http://www.w3.org/Graphics/SVG/1.1/DTD/svg11.dtd">
<!-- Generated by graphviz version 2.43.0 (0)
 -->
<!-- Title: ImFontAtlasPackGetRect Pages: 1 -->
<svg width="363pt" height="64pt"
 viewBox="0.00 0.00 363.00 64.00" xmlns="http://www.w3.org/2000/svg" xmlns:xlink="http://www.w3.org/1999/xlink">
<g id="graph0" class="graph" transform="scale(1 1) rotate(0) translate(4 60)">
<title>ImFontAtlasPackGetRect</title>
<!-- Node1 -->
<g id="node1" class="node">
<title>Node1</title>
<g id="a_node1"><a xlink:title=" ">
<polygon fill="#999999" stroke="#666666" points="137,-37 0,-37 0,-18 137,-18 137,-37"/>
<text text-anchor="middle" x="68.5" y="-25" font-family="Helvetica,sans-Serif" font-size="10.00">ImFontAtlasPackGetRect</text>
</a>
</g>
</g>
<!-- Node2 -->
<g id="node2" class="node">
<title>Node2</title>
<g id="a_node2"><a xlink:href="imgui__internal_8h.html#a6039a69a67990d53ef5ae5b1118c6b32" target="_top" xlink:title=" ">
<polygon fill="white" stroke="#666666" points="355,-56 173,-56 173,-37 355,-37 355,-56"/>
<text text-anchor="middle" x="264" y="-44" font-family="Helvetica,sans-Serif" font-size="10.00">ImFontAtlasRectId_GetGeneration</text>
</a>
</g>
</g>
<!-- Node1&#45;&gt;Node2 -->
<g id="edge1" class="edge">
<title>Node1&#45;&gt;Node2</title>
<path fill="none" stroke="#63b8ff" d="M137.18,-34.15C145.48,-34.96 154.1,-35.81 162.75,-36.66"/>
<polygon fill="#63b8ff" stroke="#63b8ff" points="162.62,-40.16 172.92,-37.65 163.31,-33.19 162.62,-40.16"/>
</g>
<!-- Node3 -->
<g id="node3" class="node">
<title>Node3</title>
<g id="a_node3"><a xlink:href="imgui__internal_8h.html#aa98db9ab353d51f962cc6cfe7c39a9d2" target="_top" xlink:title=" ">
<polygon fill="white" stroke="#666666" points="341.5,-19 186.5,-19 186.5,0 341.5,0 341.5,-19"/>
<text text-anchor="middle" x="264" y="-7" font-family="Helvetica,sans-Serif" font-size="10.00">ImFontAtlasRectId_GetIndex</text>
</a>
</g>
</g>
<!-- Node1&#45;&gt;Node3 -->
<g id="edge2" class="edge">
<title>Node1&#45;&gt;Node3</title>
<path fill="none" stroke="#63b8ff" d="M137.18,-21.2C149.86,-20.02 163.27,-18.78 176.43,-17.55"/>
<polygon fill="#63b8ff" stroke="#63b8ff" points="176.8,-21.03 186.43,-16.62 176.15,-14.06 176.8,-21.03"/>
</g>
</g>
</svg>
