<?xml version="1.0" encoding="UTF-8" standalone="no"?>
<!DOCTYPE svg PUBLIC "-//W3C//DTD SVG 1.1//EN"
 "http://www.w3.org/Graphics/SVG/1.1/DTD/svg11.dtd">
<!-- Generated by graphviz version 2.43.0 (0)
 -->
<!-- Title: RenderArrowsForVerticalBar Pages: 1 -->
<svg width="1077pt" height="82pt"
 viewBox="0.00 0.00 1077.00 82.00" xmlns="http://www.w3.org/2000/svg" xmlns:xlink="http://www.w3.org/1999/xlink">
<g id="graph0" class="graph" transform="scale(1 1) rotate(0) translate(4 78)">
<title>RenderArrowsForVerticalBar</title>
<!-- Node1 -->
<g id="node1" class="node">
<title>Node1</title>
<g id="a_node1"><a xlink:title=" ">
<polygon fill="#999999" stroke="#666666" points="153,-55 0,-55 0,-36 153,-36 153,-55"/>
<text text-anchor="middle" x="76.5" y="-43" font-family="Helvetica,sans-Serif" font-size="10.00">RenderArrowsForVerticalBar</text>
</a>
</g>
</g>
<!-- Node2 -->
<g id="node2" class="node">
<title>Node2</title>
<g id="a_node2"><a xlink:href="namespaceImGui.html#af1ea568bffa58ec26100de3bf60af5f2" target="_top" xlink:title=" ">
<polygon fill="white" stroke="#666666" points="354,-55 189,-55 189,-36 354,-36 354,-55"/>
<text text-anchor="middle" x="271.5" y="-43" font-family="Helvetica,sans-Serif" font-size="10.00">ImGui::RenderArrowPointingAt</text>
</a>
</g>
</g>
<!-- Node1&#45;&gt;Node2 -->
<g id="edge1" class="edge">
<title>Node1&#45;&gt;Node2</title>
<path fill="none" stroke="#63b8ff" d="M153.22,-45.5C161.65,-45.5 170.3,-45.5 178.89,-45.5"/>
<polygon fill="#63b8ff" stroke="#63b8ff" points="178.94,-49 188.94,-45.5 178.94,-42 178.94,-49"/>
</g>
<!-- Node3 -->
<g id="node3" class="node">
<title>Node3</title>
<g id="a_node3"><a xlink:href="structImDrawList.html#af1dd4a3888034c5f71b66a38e44edf31" target="_top" xlink:title=" ">
<polygon fill="white" stroke="#666666" points="551,-55 390,-55 390,-36 551,-36 551,-55"/>
<text text-anchor="middle" x="470.5" y="-43" font-family="Helvetica,sans-Serif" font-size="10.00">ImDrawList::AddTriangleFilled</text>
</a>
</g>
</g>
<!-- Node2&#45;&gt;Node3 -->
<g id="edge2" class="edge">
<title>Node2&#45;&gt;Node3</title>
<path fill="none" stroke="#63b8ff" d="M354.05,-45.5C362.57,-45.5 371.27,-45.5 379.87,-45.5"/>
<polygon fill="#63b8ff" stroke="#63b8ff" points="379.91,-49 389.91,-45.5 379.91,-42 379.91,-49"/>
</g>
<!-- Node4 -->
<g id="node4" class="node">
<title>Node4</title>
<g id="a_node4"><a xlink:href="structImDrawList.html#aea9301cb99ebf4b27f5d3959017567c9" target="_top" xlink:title=" ">
<polygon fill="white" stroke="#666666" points="737,-74 587,-74 587,-55 737,-55 737,-74"/>
<text text-anchor="middle" x="662" y="-62" font-family="Helvetica,sans-Serif" font-size="10.00">ImDrawList::PathFillConvex</text>
</a>
</g>
</g>
<!-- Node3&#45;&gt;Node4 -->
<g id="edge3" class="edge">
<title>Node3&#45;&gt;Node4</title>
<path fill="none" stroke="#63b8ff" d="M551.04,-53.48C559.56,-54.33 568.24,-55.2 576.81,-56.06"/>
<polygon fill="#63b8ff" stroke="#63b8ff" points="576.5,-59.55 586.8,-57.06 577.2,-52.58 576.5,-59.55"/>
</g>
<!-- Node5 -->
<g id="node5" class="node">
<title>Node5</title>
<g id="a_node5"><a xlink:href="structImDrawList.html#a828d944325ed58d8b57abd3647bffaaf" target="_top" xlink:title=" ">
<polygon fill="white" stroke="#666666" points="727,-37 597,-37 597,-18 727,-18 727,-37"/>
<text text-anchor="middle" x="662" y="-25" font-family="Helvetica,sans-Serif" font-size="10.00">ImDrawList::PathLineTo</text>
</a>
</g>
</g>
<!-- Node3&#45;&gt;Node5 -->
<g id="edge4" class="edge">
<title>Node3&#45;&gt;Node5</title>
<path fill="none" stroke="#63b8ff" d="M551.04,-37.94C562.87,-36.82 575.02,-35.67 586.74,-34.55"/>
<polygon fill="#63b8ff" stroke="#63b8ff" points="587.28,-38.02 596.9,-33.59 586.62,-31.05 587.28,-38.02"/>
</g>
<!-- Node6 -->
<g id="node6" class="node">
<title>Node6</title>
<g id="a_node6"><a xlink:href="structImVector.html#aab5df48e0711a48bd12f3206e08c4108" target="_top" xlink:title=" ">
<polygon fill="white" stroke="#666666" points="891,-37 773,-37 773,-18 891,-18 891,-37"/>
<text text-anchor="middle" x="832" y="-25" font-family="Helvetica,sans-Serif" font-size="10.00">ImVector::push_back</text>
</a>
</g>
</g>
<!-- Node5&#45;&gt;Node6 -->
<g id="edge5" class="edge">
<title>Node5&#45;&gt;Node6</title>
<path fill="none" stroke="#63b8ff" d="M727.47,-27.5C739,-27.5 751.04,-27.5 762.66,-27.5"/>
<polygon fill="#63b8ff" stroke="#63b8ff" points="762.75,-31 772.75,-27.5 762.75,-24 762.75,-31"/>
</g>
<!-- Node7 -->
<g id="node7" class="node">
<title>Node7</title>
<g id="a_node7"><a xlink:href="structImVector.html#a3a097635d464b1b70dc7d59996a88b28" target="_top" xlink:title=" ">
<polygon fill="white" stroke="#666666" points="1069,-56 927,-56 927,-37 1069,-37 1069,-56"/>
<text text-anchor="middle" x="998" y="-44" font-family="Helvetica,sans-Serif" font-size="10.00">ImVector::_grow_capacity</text>
</a>
</g>
</g>
<!-- Node6&#45;&gt;Node7 -->
<g id="edge6" class="edge">
<title>Node6&#45;&gt;Node7</title>
<path fill="none" stroke="#63b8ff" d="M891.28,-34.25C899.55,-35.21 908.18,-36.21 916.78,-37.21"/>
<polygon fill="#63b8ff" stroke="#63b8ff" points="916.5,-40.7 926.83,-38.37 917.3,-33.74 916.5,-40.7"/>
</g>
<!-- Node8 -->
<g id="node8" class="node">
<title>Node8</title>
<g id="a_node8"><a xlink:href="structImVector.html#a0f14f5736c3372157856eebb67123b75" target="_top" xlink:title=" ">
<polygon fill="white" stroke="#666666" points="1049.5,-19 946.5,-19 946.5,0 1049.5,0 1049.5,-19"/>
<text text-anchor="middle" x="998" y="-7" font-family="Helvetica,sans-Serif" font-size="10.00">ImVector::reserve</text>
</a>
</g>
</g>
<!-- Node6&#45;&gt;Node8 -->
<g id="edge7" class="edge">
<title>Node6&#45;&gt;Node8</title>
<path fill="none" stroke="#63b8ff" d="M891.28,-21.1C905.87,-19.5 921.55,-17.78 936.25,-16.17"/>
<polygon fill="#63b8ff" stroke="#63b8ff" points="936.69,-19.64 946.25,-15.07 935.93,-12.68 936.69,-19.64"/>
</g>
</g>
</svg>
