<?xml version="1.0" encoding="UTF-8" standalone="no"?>
<!DOCTYPE svg PUBLIC "-//W3C//DTD SVG 1.1//EN"
 "http://www.w3.org/Graphics/SVG/1.1/DTD/svg11.dtd">
<!-- Generated by graphviz version 2.43.0 (0)
 -->
<!-- Title: ScaleWindow Pages: 1 -->
<svg width="181pt" height="64pt"
 viewBox="0.00 0.00 181.00 64.00" xmlns="http://www.w3.org/2000/svg" xmlns:xlink="http://www.w3.org/1999/xlink">
<g id="graph0" class="graph" transform="scale(1 1) rotate(0) translate(4 60)">
<title>ScaleWindow</title>
<!-- Node1 -->
<g id="node1" class="node">
<title>Node1</title>
<g id="a_node1"><a xlink:title=" ">
<polygon fill="#999999" stroke="#666666" points="82,-37 0,-37 0,-18 82,-18 82,-37"/>
<text text-anchor="middle" x="41" y="-25" font-family="Helvetica,sans-Serif" font-size="10.00">ScaleWindow</text>
</a>
</g>
</g>
<!-- Node2 -->
<g id="node2" class="node">
<title>Node2</title>
<g id="a_node2"><a xlink:href="imgui__internal_8h.html#a51a84b6be21807818b857a8565d97912" target="_top" xlink:title=" ">
<polygon fill="white" stroke="#666666" points="172.5,-56 118.5,-56 118.5,-37 172.5,-37 172.5,-56"/>
<text text-anchor="middle" x="145.5" y="-44" font-family="Helvetica,sans-Serif" font-size="10.00">ImFloor</text>
</a>
</g>
</g>
<!-- Node1&#45;&gt;Node2 -->
<g id="edge1" class="edge">
<title>Node1&#45;&gt;Node2</title>
<path fill="none" stroke="#63b8ff" d="M82.22,-34.95C90.83,-36.55 99.88,-38.23 108.33,-39.79"/>
<polygon fill="#63b8ff" stroke="#63b8ff" points="107.8,-43.26 118.27,-41.64 109.07,-36.37 107.8,-43.26"/>
</g>
<!-- Node3 -->
<g id="node3" class="node">
<title>Node3</title>
<g id="a_node3"><a xlink:href="imgui__internal_8h.html#a34870cae27ccd450c17ec3d3910b2da4" target="_top" xlink:title=" ">
<polygon fill="white" stroke="#666666" points="173,-19 118,-19 118,0 173,0 173,-19"/>
<text text-anchor="middle" x="145.5" y="-7" font-family="Helvetica,sans-Serif" font-size="10.00">ImTrunc</text>
</a>
</g>
</g>
<!-- Node1&#45;&gt;Node3 -->
<g id="edge2" class="edge">
<title>Node1&#45;&gt;Node3</title>
<path fill="none" stroke="#63b8ff" d="M82.22,-20.44C90.75,-18.94 99.71,-17.37 108.09,-15.89"/>
<polygon fill="#63b8ff" stroke="#63b8ff" points="108.72,-19.34 117.96,-14.16 107.51,-12.44 108.72,-19.34"/>
</g>
</g>
</svg>
