<?xml version="1.0" encoding="UTF-8" standalone="no"?>
<!DOCTYPE svg PUBLIC "-//W3C//DTD SVG 1.1//EN"
 "http://www.w3.org/Graphics/SVG/1.1/DTD/svg11.dtd">
<!-- Generated by graphviz version 2.43.0 (0)
 -->
<!-- Title: ImFormatStringToTempBuffer Pages: 1 -->
<svg width="502pt" height="64pt"
 viewBox="0.00 0.00 502.00 64.00" xmlns="http://www.w3.org/2000/svg" xmlns:xlink="http://www.w3.org/1999/xlink">
<g id="graph0" class="graph" transform="scale(1 1) rotate(0) translate(4 60)">
<title>ImFormatStringToTempBuffer</title>
<!-- Node1 -->
<g id="node1" class="node">
<title>Node1</title>
<g id="a_node1"><a xlink:title=" ">
<polygon fill="#999999" stroke="#666666" points="158,-37 0,-37 0,-18 158,-18 158,-37"/>
<text text-anchor="middle" x="79" y="-25" font-family="Helvetica,sans-Serif" font-size="10.00">ImFormatStringToTempBuffer</text>
</a>
</g>
</g>
<!-- Node2 -->
<g id="node2" class="node">
<title>Node2</title>
<g id="a_node2"><a xlink:href="imgui_8cpp.html#a7d2a77b9735185891f885970b1e54626" target="_top" xlink:title=" ">
<polygon fill="white" stroke="#666666" points="359,-37 194,-37 194,-18 359,-18 359,-37"/>
<text text-anchor="middle" x="276.5" y="-25" font-family="Helvetica,sans-Serif" font-size="10.00">ImFormatStringToTempBufferV</text>
</a>
</g>
</g>
<!-- Node1&#45;&gt;Node2 -->
<g id="edge1" class="edge">
<title>Node1&#45;&gt;Node2</title>
<path fill="none" stroke="#63b8ff" d="M158.11,-27.5C166.59,-27.5 175.29,-27.5 183.91,-27.5"/>
<polygon fill="#63b8ff" stroke="#63b8ff" points="183.99,-31 193.99,-27.5 183.99,-24 183.99,-31"/>
</g>
<!-- Node3 -->
<g id="node3" class="node">
<title>Node3</title>
<g id="a_node3"><a xlink:href="imgui_8cpp.html#a2e0022a073d369645a0daab17f823779" target="_top" xlink:title=" ">
<polygon fill="white" stroke="#666666" points="494,-56 395,-56 395,-37 494,-37 494,-56"/>
<text text-anchor="middle" x="444.5" y="-44" font-family="Helvetica,sans-Serif" font-size="10.00">ImFormatStringV</text>
</a>
</g>
</g>
<!-- Node2&#45;&gt;Node3 -->
<g id="edge2" class="edge">
<title>Node2&#45;&gt;Node3</title>
<path fill="none" stroke="#63b8ff" d="M359.04,-36.83C367.78,-37.83 376.55,-38.84 384.95,-39.8"/>
<polygon fill="#63b8ff" stroke="#63b8ff" points="384.65,-43.29 394.99,-40.95 385.45,-36.33 384.65,-43.29"/>
</g>
<!-- Node4 -->
<g id="node4" class="node">
<title>Node4</title>
<g id="a_node4"><a xlink:href="imgui__internal_8h.html#a7f9d7828066a9d61b5630adcdf4655d3" target="_top" xlink:title=" ">
<polygon fill="white" stroke="#666666" points="468,-19 421,-19 421,0 468,0 468,-19"/>
<text text-anchor="middle" x="444.5" y="-7" font-family="Helvetica,sans-Serif" font-size="10.00">ImMin</text>
</a>
</g>
</g>
<!-- Node2&#45;&gt;Node4 -->
<g id="edge3" class="edge">
<title>Node2&#45;&gt;Node4</title>
<path fill="none" stroke="#63b8ff" d="M359.04,-18.66C377.38,-16.67 395.82,-14.67 410.77,-13.05"/>
<polygon fill="#63b8ff" stroke="#63b8ff" points="411.42,-16.5 420.98,-11.94 410.67,-9.54 411.42,-16.5"/>
</g>
</g>
</svg>
