<?xml version="1.0" encoding="UTF-8" standalone="no"?>
<!DOCTYPE svg PUBLIC "-//W3C//DTD SVG 1.1//EN"
 "http://www.w3.org/Graphics/SVG/1.1/DTD/svg11.dtd">
<!-- Generated by graphviz version 2.43.0 (0)
 -->
<!-- Title: ExampleTree_DestroyNode Pages: 1 -->
<svg width="567pt" height="45pt"
 viewBox="0.00 0.00 567.00 45.00" xmlns="http://www.w3.org/2000/svg" xmlns:xlink="http://www.w3.org/1999/xlink">
<g id="graph0" class="graph" transform="scale(1 1) rotate(0) translate(4 41)">
<title>ExampleTree_DestroyNode</title>
<!-- Node1 -->
<g id="node1" class="node">
<title>Node1</title>
<g id="a_node1"><a xlink:title=" ">
<polygon fill="#999999" stroke="#666666" points="149,-19 0,-19 0,0 149,0 149,-19"/>
<text text-anchor="middle" x="74.5" y="-7" font-family="Helvetica,sans-Serif" font-size="10.00">ExampleTree_DestroyNode</text>
</a>
</g>
</g>
<!-- Node1&#45;&gt;Node1 -->
<g id="edge1" class="edge">
<title>Node1&#45;&gt;Node1</title>
<path fill="none" stroke="#63b8ff" d="M52,-19.08C41.05,-27.73 48.55,-37 74.5,-37 91.12,-37 100.18,-33.2 101.66,-28.19"/>
<polygon fill="#63b8ff" stroke="#63b8ff" points="104.67,-26.39 97,-19.08 98.44,-29.58 104.67,-26.39"/>
</g>
<!-- Node2 -->
<g id="node2" class="node">
<title>Node2</title>
<g id="a_node2"><a xlink:href="imgui_8h.html#a3c856832c3fe1da8767a9353da3707e1" target="_top" xlink:title=" ">
<polygon fill="white" stroke="#666666" points="256,-19 185,-19 185,0 256,0 256,-19"/>
<text text-anchor="middle" x="220.5" y="-7" font-family="Helvetica,sans-Serif" font-size="10.00">IM_DELETE</text>
</a>
</g>
</g>
<!-- Node1&#45;&gt;Node2 -->
<g id="edge2" class="edge">
<title>Node1&#45;&gt;Node2</title>
<path fill="none" stroke="#63b8ff" d="M149.19,-9.5C157.95,-9.5 166.67,-9.5 174.84,-9.5"/>
<polygon fill="#63b8ff" stroke="#63b8ff" points="174.86,-13 184.86,-9.5 174.86,-6 174.86,-13"/>
</g>
<!-- Node3 -->
<g id="node3" class="node">
<title>Node3</title>
<g id="a_node3"><a xlink:href="namespaceImGui.html#a269ec695c6e722ec3da85dae37f0675d" target="_top" xlink:title=" ">
<polygon fill="white" stroke="#666666" points="390,-19 292,-19 292,0 390,0 390,-19"/>
<text text-anchor="middle" x="341" y="-7" font-family="Helvetica,sans-Serif" font-size="10.00">ImGui::MemFree</text>
</a>
</g>
</g>
<!-- Node2&#45;&gt;Node3 -->
<g id="edge3" class="edge">
<title>Node2&#45;&gt;Node3</title>
<path fill="none" stroke="#63b8ff" d="M256.09,-9.5C264.15,-9.5 272.94,-9.5 281.7,-9.5"/>
<polygon fill="#63b8ff" stroke="#63b8ff" points="281.93,-13 291.93,-9.5 281.93,-6 281.93,-13"/>
</g>
<!-- Node4 -->
<g id="node4" class="node">
<title>Node4</title>
<g id="a_node4"><a xlink:href="namespaceImGui.html#af81dc8d88fa2e5d0996163993f90ccf8" target="_top" xlink:title=" ">
<polygon fill="white" stroke="#666666" points="559,-19 426,-19 426,0 559,0 559,-19"/>
<text text-anchor="middle" x="492.5" y="-7" font-family="Helvetica,sans-Serif" font-size="10.00">ImGui::DebugAllocHook</text>
</a>
</g>
</g>
<!-- Node3&#45;&gt;Node4 -->
<g id="edge4" class="edge">
<title>Node3&#45;&gt;Node4</title>
<path fill="none" stroke="#63b8ff" d="M390.13,-9.5C398.29,-9.5 406.93,-9.5 415.6,-9.5"/>
<polygon fill="#63b8ff" stroke="#63b8ff" points="415.76,-13 425.76,-9.5 415.76,-6 415.76,-13"/>
</g>
</g>
</svg>
