<?xml version="1.0" encoding="UTF-8" standalone="no"?>
<!DOCTYPE svg PUBLIC "-//W3C//DTD SVG 1.1//EN"
 "http://www.w3.org/Graphics/SVG/1.1/DTD/svg11.dtd">
<!-- Generated by graphviz version 2.43.0 (0)
 -->
<!-- Title: ImGuiListClipper_SortAndFuseRanges Pages: 1 -->
<svg width="1700pt" height="523pt"
 viewBox="0.00 0.00 1700.00 523.37" xmlns="http://www.w3.org/2000/svg" xmlns:xlink="http://www.w3.org/1999/xlink">
<g id="graph0" class="graph" transform="scale(1 1) rotate(0) translate(4 519.37)">
<title>ImGuiListClipper_SortAndFuseRanges</title>
<!-- Node1 -->
<g id="node1" class="node">
<title>Node1</title>
<g id="a_node1"><a xlink:title=" ">
<polygon fill="#999999" stroke="#666666" points="1692,-212.5 1551,-212.5 1551,-182.5 1692,-182.5 1692,-212.5"/>
<text text-anchor="start" x="1559" y="-200.5" font-family="Helvetica,sans-Serif" font-size="10.00">ImGuiListClipper_SortAnd</text>
<text text-anchor="middle" x="1621.5" y="-189.5" font-family="Helvetica,sans-Serif" font-size="10.00">FuseRanges</text>
</a>
</g>
</g>
<!-- Node2 -->
<g id="node2" class="node">
<title>Node2</title>
<g id="a_node2"><a xlink:href="imgui_8cpp.html#a39e46fb2d1c766ea6b5292ecefc17575" target="_top" xlink:title=" ">
<polygon fill="white" stroke="#666666" points="1515,-207 1353,-207 1353,-188 1515,-188 1515,-207"/>
<text text-anchor="middle" x="1434" y="-195" font-family="Helvetica,sans-Serif" font-size="10.00">ImGuiListClipper_StepInternal</text>
</a>
</g>
</g>
<!-- Node1&#45;&gt;Node2 -->
<g id="edge1" class="edge">
<title>Node1&#45;&gt;Node2</title>
<path fill="none" stroke="#63b8ff" d="M1540.71,-197.5C1532.29,-197.5 1523.72,-197.5 1515.29,-197.5"/>
<polygon fill="#63b8ff" stroke="#63b8ff" points="1540.9,-201 1550.9,-197.5 1540.9,-194 1540.9,-201"/>
</g>
<!-- Node3 -->
<g id="node3" class="node">
<title>Node3</title>
<g id="a_node3"><a xlink:href="structImGuiListClipper.html#ac3e115812c3c4e5a39578a7aa955379a" target="_top" xlink:title=" ">
<polygon fill="white" stroke="#666666" points="1317,-207 1192,-207 1192,-188 1317,-188 1317,-207"/>
<text text-anchor="middle" x="1254.5" y="-195" font-family="Helvetica,sans-Serif" font-size="10.00">ImGuiListClipper::Step</text>
</a>
</g>
</g>
<!-- Node2&#45;&gt;Node3 -->
<g id="edge2" class="edge">
<title>Node2&#45;&gt;Node3</title>
<path fill="none" stroke="#63b8ff" d="M1342.71,-197.5C1334.09,-197.5 1325.49,-197.5 1317.24,-197.5"/>
<polygon fill="#63b8ff" stroke="#63b8ff" points="1342.82,-201 1352.82,-197.5 1342.82,-194 1342.82,-201"/>
</g>
<!-- Node4 -->
<g id="node4" class="node">
<title>Node4</title>
<g id="a_node4"><a xlink:href="namespaceImGui.html#ad530c65e7cdfaf03f4e9b2f4e3fed8fc" target="_top" xlink:title=" ">
<polygon fill="white" stroke="#666666" points="1114,-425 1028,-425 1028,-406 1114,-406 1114,-425"/>
<text text-anchor="middle" x="1071" y="-413" font-family="Helvetica,sans-Serif" font-size="10.00">ImGui::Combo</text>
</a>
</g>
</g>
<!-- Node3&#45;&gt;Node4 -->
<g id="edge3" class="edge">
<title>Node3&#45;&gt;Node4</title>
<path fill="none" stroke="#63b8ff" d="M1249.84,-217.29C1241.23,-257.89 1215.78,-350.71 1156,-397.5 1144.14,-406.78 1128.56,-411.55 1114.05,-413.91"/>
<polygon fill="#63b8ff" stroke="#63b8ff" points="1253.3,-217.8 1251.83,-207.31 1246.44,-216.43 1253.3,-217.8"/>
</g>
<!-- Node5 -->
<g id="node5" class="node">
<title>Node5</title>
<g id="a_node5"><a xlink:href="namespaceImGui.html#af7b5e35566da44ac1ea8a7e1b9d9d574" target="_top" xlink:title=" ">
<polygon fill="white" stroke="#666666" points="1147,-388 995,-388 995,-369 1147,-369 1147,-388"/>
<text text-anchor="middle" x="1071" y="-376" font-family="Helvetica,sans-Serif" font-size="10.00">ImGui::DebugNodeDrawList</text>
</a>
</g>
</g>
<!-- Node3&#45;&gt;Node5 -->
<g id="edge4" class="edge">
<title>Node3&#45;&gt;Node5</title>
<path fill="none" stroke="#63b8ff" d="M1239.5,-215.37C1221.28,-238.18 1187.99,-278.41 1156,-309.5 1132.45,-332.39 1102.11,-356.04 1085.09,-368.84"/>
<polygon fill="#63b8ff" stroke="#63b8ff" points="1242.45,-217.28 1245.91,-207.27 1236.96,-212.93 1242.45,-217.28"/>
</g>
<!-- Node13 -->
<g id="node13" class="node">
<title>Node13</title>
<g id="a_node13"><a xlink:href="imgui__demo_8cpp.html#a44073de6c693fc18ca337f9c198cc1e8" target="_top" xlink:title=" ">
<polygon fill="white" stroke="#666666" points="1135,-229 1007,-229 1007,-210 1135,-210 1135,-229"/>
<text text-anchor="middle" x="1071" y="-217" font-family="Helvetica,sans-Serif" font-size="10.00">DemoWindowColumns</text>
</a>
</g>
</g>
<!-- Node3&#45;&gt;Node13 -->
<g id="edge22" class="edge">
<title>Node3&#45;&gt;Node13</title>
<path fill="none" stroke="#63b8ff" d="M1181.79,-206.19C1166.35,-208.06 1150.15,-210.03 1135.07,-211.85"/>
<polygon fill="#63b8ff" stroke="#63b8ff" points="1182.29,-209.66 1191.8,-204.98 1181.45,-202.71 1182.29,-209.66"/>
</g>
<!-- Node14 -->
<g id="node14" class="node">
<title>Node14</title>
<g id="a_node14"><a xlink:href="imgui__demo_8cpp.html#a7ea459383a527c89e210e578e85ef5c8" target="_top" xlink:title=" ">
<polygon fill="white" stroke="#666666" points="934,-229 818,-229 818,-210 934,-210 934,-229"/>
<text text-anchor="middle" x="876" y="-217" font-family="Helvetica,sans-Serif" font-size="10.00">DemoWindowTables</text>
</a>
</g>
</g>
<!-- Node3&#45;&gt;Node14 -->
<g id="edge25" class="edge">
<title>Node3&#45;&gt;Node14</title>
<path fill="none" stroke="#63b8ff" d="M1227.19,-211.58C1208.05,-221 1181.18,-232.53 1156,-237.5 1073.61,-253.74 975.16,-239.81 919.99,-229.07"/>
<polygon fill="#63b8ff" stroke="#63b8ff" points="1228.84,-214.67 1236.18,-207.04 1225.68,-208.43 1228.84,-214.67"/>
</g>
<!-- Node15 -->
<g id="node15" class="node">
<title>Node15</title>
<g id="a_node15"><a xlink:href="imgui__demo_8cpp.html#a401c106ef9206d8dd4b4bc3271a6de6f" target="_top" xlink:title=" ">
<polygon fill="white" stroke="#666666" points="1156,-191.5 986,-191.5 986,-161.5 1156,-161.5 1156,-191.5"/>
<text text-anchor="start" x="994" y="-179.5" font-family="Helvetica,sans-Serif" font-size="10.00">DemoWindowWidgetsSelection</text>
<text text-anchor="middle" x="1071" y="-168.5" font-family="Helvetica,sans-Serif" font-size="10.00">AndMultiSelect</text>
</a>
</g>
</g>
<!-- Node3&#45;&gt;Node15 -->
<g id="edge26" class="edge">
<title>Node3&#45;&gt;Node15</title>
<path fill="none" stroke="#63b8ff" d="M1181.66,-189.19C1173.25,-188.21 1164.6,-187.21 1156.03,-186.22"/>
<polygon fill="#63b8ff" stroke="#63b8ff" points="1181.46,-192.69 1191.8,-190.36 1182.27,-185.73 1181.46,-192.69"/>
</g>
<!-- Node17 -->
<g id="node17" class="node">
<title>Node17</title>
<g id="a_node17"><a xlink:href="structExampleAssetsBrowser.html#a2b36e1f9b7d764e547611baa4c7fd8d1" target="_top" xlink:title=" ">
<polygon fill="white" stroke="#666666" points="1136.5,-143.5 1005.5,-143.5 1005.5,-113.5 1136.5,-113.5 1136.5,-143.5"/>
<text text-anchor="start" x="1013.5" y="-131.5" font-family="Helvetica,sans-Serif" font-size="10.00">ExampleAssetsBrowser</text>
<text text-anchor="middle" x="1071" y="-120.5" font-family="Helvetica,sans-Serif" font-size="10.00">::Draw</text>
</a>
</g>
</g>
<!-- Node3&#45;&gt;Node17 -->
<g id="edge29" class="edge">
<title>Node3&#45;&gt;Node17</title>
<path fill="none" stroke="#63b8ff" d="M1225.71,-183.28C1206.46,-173.78 1180.07,-161.43 1156,-152.5 1147.47,-149.33 1138.32,-146.33 1129.32,-143.6"/>
<polygon fill="#63b8ff" stroke="#63b8ff" points="1224.3,-186.49 1234.81,-187.82 1227.43,-180.22 1224.3,-186.49"/>
</g>
<!-- Node19 -->
<g id="node19" class="node">
<title>Node19</title>
<g id="a_node19"><a xlink:href="structExampleAppLog.html#a5ad3a4bdb89171b84aeaff96948a1f77" target="_top" xlink:title=" ">
<polygon fill="white" stroke="#666666" points="1134.5,-95 1007.5,-95 1007.5,-76 1134.5,-76 1134.5,-95"/>
<text text-anchor="middle" x="1071" y="-83" font-family="Helvetica,sans-Serif" font-size="10.00">ExampleAppLog::Draw</text>
</a>
</g>
</g>
<!-- Node3&#45;&gt;Node19 -->
<g id="edge32" class="edge">
<title>Node3&#45;&gt;Node19</title>
<path fill="none" stroke="#63b8ff" d="M1240.17,-179.95C1223.06,-158.7 1191.33,-123.44 1156,-104.5 1148.75,-100.61 1140.74,-97.52 1132.63,-95.06"/>
<polygon fill="#63b8ff" stroke="#63b8ff" points="1237.45,-182.15 1246.38,-187.85 1242.95,-177.82 1237.45,-182.15"/>
</g>
<!-- Node21 -->
<g id="node21" class="node">
<title>Node21</title>
<g id="a_node21"><a xlink:href="namespaceImGui.html#a94c78076bd40ff548ecd124f95af8710" target="_top" xlink:title=" ">
<polygon fill="white" stroke="#666666" points="1115,-19 1027,-19 1027,0 1115,0 1115,-19"/>
<text text-anchor="middle" x="1071" y="-7" font-family="Helvetica,sans-Serif" font-size="10.00">ImGui::ListBox</text>
</a>
</g>
</g>
<!-- Node3&#45;&gt;Node21 -->
<g id="edge35" class="edge">
<title>Node3&#45;&gt;Node21</title>
<path fill="none" stroke="#63b8ff" d="M1247.25,-177.8C1235.26,-143.26 1205.73,-71.8 1156,-33.5 1144.22,-24.43 1129.16,-18.79 1115.04,-15.28"/>
<polygon fill="#63b8ff" stroke="#63b8ff" points="1244.04,-179.25 1250.53,-187.63 1250.68,-177.04 1244.04,-179.25"/>
</g>
<!-- Node22 -->
<g id="node22" class="node">
<title>Node22</title>
<g id="a_node22"><a xlink:href="namespaceImGui.html#af1b39e70cac2e1b9e62dd3c9d154cbd6" target="_top" xlink:title=" ">
<polygon fill="white" stroke="#666666" points="560,-284 394,-284 394,-265 560,-265 560,-284"/>
<text text-anchor="middle" x="477" y="-272" font-family="Helvetica,sans-Serif" font-size="10.00">ImGui::ShowDebugLogWindow</text>
</a>
</g>
</g>
<!-- Node3&#45;&gt;Node22 -->
<g id="edge36" class="edge">
<title>Node3&#45;&gt;Node22</title>
<path fill="none" stroke="#63b8ff" d="M1233.78,-213.38C1215.03,-227.43 1185.39,-246.97 1156,-255.5 1046.65,-287.22 715.64,-281.86 560.24,-277.34"/>
<polygon fill="#63b8ff" stroke="#63b8ff" points="1236.04,-216.06 1241.83,-207.19 1231.77,-210.52 1236.04,-216.06"/>
</g>
<!-- Node23 -->
<g id="node23" class="node">
<title>Node23</title>
<g id="a_node23"><a xlink:href="imgui__demo_8cpp.html#a4dadf5e7b393795666d19af9694037cf" target="_top" xlink:title=" ">
<polygon fill="white" stroke="#666666" points="344,-64 196,-64 196,-45 344,-45 344,-64"/>
<text text-anchor="middle" x="270" y="-52" font-family="Helvetica,sans-Serif" font-size="10.00">ShowExampleAppLongText</text>
</a>
</g>
</g>
<!-- Node3&#45;&gt;Node23 -->
<g id="edge39" class="edge">
<title>Node3&#45;&gt;Node23</title>
<path fill="none" stroke="#63b8ff" d="M1245.63,-178.3C1232.22,-148.4 1201.86,-91.52 1156,-66.5 1046.9,-6.97 1001.29,-47.5 877,-47.5 877,-47.5 877,-47.5 680,-47.5 562.47,-47.5 425.96,-50.43 344.14,-52.49"/>
<polygon fill="#63b8ff" stroke="#63b8ff" points="1242.49,-179.86 1249.66,-187.66 1248.92,-177.09 1242.49,-179.86"/>
</g>
<!-- Node6 -->
<g id="node6" class="node">
<title>Node6</title>
<g id="a_node6"><a xlink:href="namespaceImGui.html#aa5e5f50f28c04a26264c0943c7281171" target="_top" xlink:title=" ">
<polygon fill="white" stroke="#666666" points="757,-482 605,-482 605,-463 757,-463 757,-482"/>
<text text-anchor="middle" x="681" y="-470" font-family="Helvetica,sans-Serif" font-size="10.00">ImGui::DebugNodeViewport</text>
</a>
</g>
</g>
<!-- Node5&#45;&gt;Node6 -->
<g id="edge5" class="edge">
<title>Node5&#45;&gt;Node6</title>
<path fill="none" stroke="#63b8ff" d="M1008.95,-390.48C1001.14,-392.55 993.33,-394.88 986,-397.5 969.15,-403.52 966.88,-409.59 950,-415.5 883.66,-438.71 804.63,-454.12 749.65,-463"/>
<polygon fill="#63b8ff" stroke="#63b8ff" points="1009.95,-393.84 1018.8,-388.01 1008.25,-387.05 1009.95,-393.84"/>
</g>
<!-- Node7 -->
<g id="node7" class="node">
<title>Node7</title>
<g id="a_node7"><a xlink:href="namespaceImGui.html#afe7a28c6eb52fff3cc27d5a698fea4ff" target="_top" xlink:title=" ">
<polygon fill="white" stroke="#666666" points="346.5,-388 193.5,-388 193.5,-369 346.5,-369 346.5,-388"/>
<text text-anchor="middle" x="270" y="-376" font-family="Helvetica,sans-Serif" font-size="10.00">ImGui::ShowMetricsWindow</text>
</a>
</g>
</g>
<!-- Node5&#45;&gt;Node7 -->
<g id="edge21" class="edge">
<title>Node5&#45;&gt;Node7</title>
<path fill="none" stroke="#63b8ff" d="M995.85,-391.96C992.42,-393.6 989.11,-395.44 986,-397.5 963.16,-412.61 972.74,-432.25 950,-447.5 880.17,-494.33 849.51,-481.65 766,-491.5 601.7,-510.87 548.03,-538.85 394,-478.5 343.01,-458.52 296.97,-409.18 278.99,-388.19"/>
<polygon fill="#63b8ff" stroke="#63b8ff" points="997.3,-395.15 1005.17,-388.06 994.6,-388.69 997.3,-395.15"/>
</g>
<!-- Node9 -->
<g id="node9" class="node">
<title>Node9</title>
<g id="a_node9"><a xlink:href="namespaceImGui.html#afcb602554925c5409977f0fb39f77e5d" target="_top" xlink:title=" ">
<polygon fill="white" stroke="#666666" points="950,-388 802,-388 802,-369 950,-369 950,-388"/>
<text text-anchor="middle" x="876" y="-376" font-family="Helvetica,sans-Serif" font-size="10.00">ImGui::DebugNodeWindow</text>
</a>
</g>
</g>
<!-- Node5&#45;&gt;Node9 -->
<g id="edge8" class="edge">
<title>Node5&#45;&gt;Node9</title>
<path fill="none" stroke="#63b8ff" d="M984.74,-378.5C973.17,-378.5 961.39,-378.5 950.07,-378.5"/>
<polygon fill="#63b8ff" stroke="#63b8ff" points="984.83,-382 994.83,-378.5 984.83,-375 984.83,-382"/>
</g>
<!-- Node6&#45;&gt;Node7 -->
<g id="edge6" class="edge">
<title>Node6&#45;&gt;Node7</title>
<path fill="none" stroke="#63b8ff" d="M594.51,-477.35C536.62,-478.11 459.11,-474.14 394,-453.5 348.7,-439.14 302.89,-404.78 282.28,-388.02"/>
<polygon fill="#63b8ff" stroke="#63b8ff" points="594.79,-480.84 604.72,-477.16 594.66,-473.85 594.79,-480.84"/>
</g>
<!-- Node8 -->
<g id="node8" class="node">
<title>Node8</title>
<g id="a_node8"><a xlink:href="namespaceImGui.html#af95643a0ce4893b9e57c12991922fb18" target="_top" xlink:title=" ">
<polygon fill="white" stroke="#666666" points="146,-186 0,-186 0,-167 146,-167 146,-186"/>
<text text-anchor="middle" x="73" y="-174" font-family="Helvetica,sans-Serif" font-size="10.00">ImGui::ShowDemoWindow</text>
</a>
</g>
</g>
<!-- Node7&#45;&gt;Node8 -->
<g id="edge7" class="edge">
<title>Node7&#45;&gt;Node8</title>
<path fill="none" stroke="#63b8ff" d="M252.53,-361.44C213.08,-320.57 114.13,-218.07 83.31,-186.15"/>
<polygon fill="#63b8ff" stroke="#63b8ff" points="250.13,-363.99 259.59,-368.76 255.17,-359.13 250.13,-363.99"/>
</g>
<!-- Node9&#45;&gt;Node9 -->
<g id="edge13" class="edge">
<title>Node9&#45;&gt;Node9</title>
<path fill="none" stroke="#63b8ff" d="M912.36,-396.07C911.82,-401.62 899.71,-406 876,-406 841.52,-406 831.55,-396.73 846.1,-388.08"/>
<polygon fill="#63b8ff" stroke="#63b8ff" points="914.91,-393.66 905.9,-388.08 909.46,-398.06 914.91,-393.66"/>
</g>
<!-- Node10 -->
<g id="node10" class="node">
<title>Node10</title>
<g id="a_node10"><a xlink:href="namespaceImGui.html#a8600f7b1f9b18926fb00837e56d2b3cd" target="_top" xlink:title=" ">
<polygon fill="white" stroke="#666666" points="556.5,-426 397.5,-426 397.5,-407 556.5,-407 556.5,-426"/>
<text text-anchor="middle" x="477" y="-414" font-family="Helvetica,sans-Serif" font-size="10.00">ImGui::DebugNodeDockNode</text>
</a>
</g>
</g>
<!-- Node9&#45;&gt;Node10 -->
<g id="edge9" class="edge">
<title>Node9&#45;&gt;Node10</title>
<path fill="none" stroke="#63b8ff" d="M791.73,-385C783.06,-386.28 774.36,-387.5 766,-388.5 690.5,-397.54 603.31,-402.54 544.82,-406.99"/>
<polygon fill="#63b8ff" stroke="#63b8ff" points="792.5,-388.42 801.87,-383.47 791.46,-381.5 792.5,-388.42"/>
</g>
<!-- Node11 -->
<g id="node11" class="node">
<title>Node11</title>
<g id="a_node11"><a xlink:href="namespaceImGui.html#a8c2ed9f140c90d8eaca1e2cfd8f46142" target="_top" xlink:title=" ">
<polygon fill="white" stroke="#666666" points="766,-388 596,-388 596,-369 766,-369 766,-388"/>
<text text-anchor="middle" x="681" y="-376" font-family="Helvetica,sans-Serif" font-size="10.00">ImGui::DebugNodeWindowsList</text>
</a>
</g>
</g>
<!-- Node9&#45;&gt;Node11 -->
<g id="edge14" class="edge">
<title>Node9&#45;&gt;Node11</title>
<path fill="none" stroke="#63b8ff" d="M791.58,-371.81C783.16,-371.73 774.61,-371.73 766.18,-371.8"/>
<polygon fill="#63b8ff" stroke="#63b8ff" points="791.72,-375.31 801.76,-371.93 791.8,-368.31 791.72,-375.31"/>
</g>
<!-- Node12 -->
<g id="node12" class="node">
<title>Node12</title>
<g id="a_node12"><a xlink:href="namespaceImGui.html#a0fc8019faf3a1aec25b554384ad9e506" target="_top" xlink:title=" ">
<polygon fill="white" stroke="#666666" points="766,-332.5 596,-332.5 596,-302.5 766,-302.5 766,-332.5"/>
<text text-anchor="start" x="604" y="-320.5" font-family="Helvetica,sans-Serif" font-size="10.00">ImGui::DebugNodeWindowsList</text>
<text text-anchor="middle" x="681" y="-309.5" font-family="Helvetica,sans-Serif" font-size="10.00">ByBeginStackParent</text>
</a>
</g>
</g>
<!-- Node9&#45;&gt;Node12 -->
<g id="edge18" class="edge">
<title>Node9&#45;&gt;Node12</title>
<path fill="none" stroke="#63b8ff" d="M834.93,-365.84C804.29,-356.15 761.95,-342.77 729.58,-332.54"/>
<polygon fill="#63b8ff" stroke="#63b8ff" points="834.25,-369.29 844.84,-368.97 836.36,-362.62 834.25,-369.29"/>
</g>
<!-- Node10&#45;&gt;Node7 -->
<g id="edge12" class="edge">
<title>Node10&#45;&gt;Node7</title>
<path fill="none" stroke="#63b8ff" d="M414.4,-405.08C385.07,-399.64 350.39,-393.22 322.49,-388.04"/>
<polygon fill="#63b8ff" stroke="#63b8ff" points="414.06,-408.58 424.53,-406.96 415.34,-401.7 414.06,-408.58"/>
</g>
<!-- Node10&#45;&gt;Node9 -->
<g id="edge11" class="edge">
<title>Node10&#45;&gt;Node9</title>
<path fill="none" stroke="#63b8ff" d="M566.82,-420.81C623.86,-419.3 699.47,-414.47 766,-406.5 799.19,-402.52 837.62,-395.18 858.83,-388.05"/>
<polygon fill="#63b8ff" stroke="#63b8ff" points="566.66,-417.31 556.75,-421.05 566.83,-424.31 566.66,-417.31"/>
</g>
<!-- Node10&#45;&gt;Node10 -->
<g id="edge10" class="edge">
<title>Node10&#45;&gt;Node10</title>
<path fill="none" stroke="#63b8ff" d="M515.25,-433.69C515.24,-439.42 502.49,-444 477,-444 440.74,-444 430.26,-434.73 445.56,-426.08"/>
<polygon fill="#63b8ff" stroke="#63b8ff" points="517.72,-431.2 508.44,-426.08 512.5,-435.87 517.72,-431.2"/>
</g>
<!-- Node11&#45;&gt;Node7 -->
<g id="edge17" class="edge">
<title>Node11&#45;&gt;Node7</title>
<path fill="none" stroke="#63b8ff" d="M585.68,-378.5C513.05,-378.5 413.98,-378.5 346.53,-378.5"/>
<polygon fill="#63b8ff" stroke="#63b8ff" points="585.75,-382 595.75,-378.5 585.75,-375 585.75,-382"/>
</g>
<!-- Node11&#45;&gt;Node9 -->
<g id="edge16" class="edge">
<title>Node11&#45;&gt;Node9</title>
<path fill="none" stroke="#63b8ff" d="M776.23,-385.25C784.8,-385.26 793.41,-385.2 801.76,-385.07"/>
<polygon fill="#63b8ff" stroke="#63b8ff" points="776.2,-381.75 766.18,-385.2 776.17,-388.75 776.2,-381.75"/>
</g>
<!-- Node11&#45;&gt;Node10 -->
<g id="edge15" class="edge">
<title>Node11&#45;&gt;Node10</title>
<path fill="none" stroke="#63b8ff" d="M619.3,-389.92C590.4,-395.36 556.23,-401.78 528.73,-406.96"/>
<polygon fill="#63b8ff" stroke="#63b8ff" points="620.11,-393.33 629.29,-388.04 618.81,-386.45 620.11,-393.33"/>
</g>
<!-- Node12&#45;&gt;Node7 -->
<g id="edge20" class="edge">
<title>Node12&#45;&gt;Node7</title>
<path fill="none" stroke="#63b8ff" d="M585.57,-331.58C508.58,-343.07 401.94,-358.97 334.72,-369"/>
<polygon fill="#63b8ff" stroke="#63b8ff" points="586.38,-335 595.75,-330.07 585.34,-328.08 586.38,-335"/>
</g>
<!-- Node12&#45;&gt;Node12 -->
<g id="edge19" class="edge">
<title>Node12&#45;&gt;Node12</title>
<path fill="none" stroke="#63b8ff" d="M714.96,-343.1C710.32,-347.47 699,-350.5 681,-350.5 650.69,-350.5 639.32,-341.91 646.9,-332.78"/>
<polygon fill="#63b8ff" stroke="#63b8ff" points="718.46,-342.82 715.1,-332.78 711.46,-342.73 718.46,-342.82"/>
</g>
<!-- Node13&#45;&gt;Node14 -->
<g id="edge23" class="edge">
<title>Node13&#45;&gt;Node14</title>
<path fill="none" stroke="#63b8ff" d="M996.77,-219.5C976.03,-219.5 953.78,-219.5 934.14,-219.5"/>
<polygon fill="#63b8ff" stroke="#63b8ff" points="996.8,-223 1006.8,-219.5 996.8,-216 996.8,-223"/>
</g>
<!-- Node14&#45;&gt;Node8 -->
<g id="edge24" class="edge">
<title>Node14&#45;&gt;Node8</title>
<path fill="none" stroke="#63b8ff" d="M807.75,-218.63C683.8,-216.59 411.02,-210.1 182,-190.5 168.44,-189.34 153.96,-187.72 140.16,-186"/>
<polygon fill="#63b8ff" stroke="#63b8ff" points="807.79,-222.13 817.85,-218.79 807.91,-215.13 807.79,-222.13"/>
</g>
<!-- Node16 -->
<g id="node16" class="node">
<title>Node16</title>
<g id="a_node16"><a xlink:href="imgui__demo_8cpp.html#a9a639caab781642cbc4f4a23bfbd11cd" target="_top" xlink:title=" ">
<polygon fill="white" stroke="#666666" points="539.5,-186 414.5,-186 414.5,-167 539.5,-167 539.5,-186"/>
<text text-anchor="middle" x="477" y="-174" font-family="Helvetica,sans-Serif" font-size="10.00">DemoWindowWidgets</text>
</a>
</g>
</g>
<!-- Node15&#45;&gt;Node16 -->
<g id="edge27" class="edge">
<title>Node15&#45;&gt;Node16</title>
<path fill="none" stroke="#63b8ff" d="M975.71,-176.5C853.42,-176.5 643.53,-176.5 539.77,-176.5"/>
<polygon fill="#63b8ff" stroke="#63b8ff" points="975.81,-180 985.81,-176.5 975.81,-173 975.81,-180"/>
</g>
<!-- Node16&#45;&gt;Node8 -->
<g id="edge28" class="edge">
<title>Node16&#45;&gt;Node8</title>
<path fill="none" stroke="#63b8ff" d="M404.06,-176.5C331.2,-176.5 219.15,-176.5 146.2,-176.5"/>
<polygon fill="#63b8ff" stroke="#63b8ff" points="404.07,-180 414.07,-176.5 404.07,-173 404.07,-180"/>
</g>
<!-- Node18 -->
<g id="node18" class="node">
<title>Node18</title>
<g id="a_node18"><a xlink:href="imgui__demo_8cpp.html#a83fdfc359b5a0432835090acd227690f" target="_top" xlink:title=" ">
<polygon fill="white" stroke="#666666" points="358,-143 182,-143 182,-124 358,-124 358,-143"/>
<text text-anchor="middle" x="270" y="-131" font-family="Helvetica,sans-Serif" font-size="10.00">ShowExampleAppAssetsBrowser</text>
</a>
</g>
</g>
<!-- Node17&#45;&gt;Node18 -->
<g id="edge30" class="edge">
<title>Node17&#45;&gt;Node18</title>
<path fill="none" stroke="#63b8ff" d="M994.92,-128.97C846.38,-129.9 515.8,-131.97 358.04,-132.96"/>
<polygon fill="#63b8ff" stroke="#63b8ff" points="995.31,-132.47 1005.29,-128.9 995.27,-125.47 995.31,-132.47"/>
</g>
<!-- Node18&#45;&gt;Node8 -->
<g id="edge31" class="edge">
<title>Node18&#45;&gt;Node8</title>
<path fill="none" stroke="#63b8ff" d="M215.94,-145.2C184.93,-152.04 146.29,-160.56 117.16,-166.98"/>
<polygon fill="#63b8ff" stroke="#63b8ff" points="216.71,-148.61 225.72,-143.04 215.2,-141.78 216.71,-148.61"/>
</g>
<!-- Node20 -->
<g id="node20" class="node">
<title>Node20</title>
<g id="a_node20"><a xlink:href="imgui__demo_8cpp.html#ad0303cf1f675002eb4e68c17a47b3f88" target="_top" xlink:title=" ">
<polygon fill="white" stroke="#666666" points="937,-100 815,-100 815,-81 937,-81 937,-100"/>
<text text-anchor="middle" x="876" y="-88" font-family="Helvetica,sans-Serif" font-size="10.00">ShowExampleAppLog</text>
</a>
</g>
</g>
<!-- Node19&#45;&gt;Node20 -->
<g id="edge33" class="edge">
<title>Node19&#45;&gt;Node20</title>
<path fill="none" stroke="#63b8ff" d="M997.12,-87.39C977.3,-87.9 956.07,-88.45 937.05,-88.94"/>
<polygon fill="#63b8ff" stroke="#63b8ff" points="997.43,-90.88 1007.34,-87.12 997.25,-83.88 997.43,-90.88"/>
</g>
<!-- Node20&#45;&gt;Node8 -->
<g id="edge34" class="edge">
<title>Node20&#45;&gt;Node8</title>
<path fill="none" stroke="#63b8ff" d="M804.63,-81.97C677.44,-68.95 402.07,-51.72 182,-114.5 143.95,-125.35 105.11,-152.37 86.06,-166.9"/>
<polygon fill="#63b8ff" stroke="#63b8ff" points="804.32,-85.46 814.63,-83.02 805.05,-78.5 804.32,-85.46"/>
</g>
<!-- Node22&#45;&gt;Node7 -->
<g id="edge38" class="edge">
<title>Node22&#45;&gt;Node7</title>
<path fill="none" stroke="#63b8ff" d="M446.84,-288.5C431.13,-296.09 411.45,-305.7 394,-314.5 356.6,-333.35 313.22,-356.14 289.26,-368.81"/>
<polygon fill="#63b8ff" stroke="#63b8ff" points="448.56,-291.55 456.05,-284.06 445.52,-285.25 448.56,-291.55"/>
</g>
<!-- Node22&#45;&gt;Node8 -->
<g id="edge37" class="edge">
<title>Node22&#45;&gt;Node8</title>
<path fill="none" stroke="#63b8ff" d="M383.94,-268.21C325.13,-262.38 247.83,-251.3 182,-230.5 147.22,-219.51 109.83,-198.51 89.44,-186.19"/>
<polygon fill="#63b8ff" stroke="#63b8ff" points="383.67,-271.7 393.96,-269.17 384.34,-264.74 383.67,-271.7"/>
</g>
<!-- Node23&#45;&gt;Node8 -->
<g id="edge40" class="edge">
<title>Node23&#45;&gt;Node8</title>
<path fill="none" stroke="#63b8ff" d="M214.11,-66.93C203.11,-70.51 191.9,-74.98 182,-80.5 139.27,-104.32 98.97,-147.55 82.2,-166.8"/>
<polygon fill="#63b8ff" stroke="#63b8ff" points="215.13,-70.28 223.68,-64.02 213.09,-63.58 215.13,-70.28"/>
</g>
</g>
</svg>
