<?xml version="1.0" encoding="UTF-8" standalone="no"?>
<!DOCTYPE svg PUBLIC "-//W3C//DTD SVG 1.1//EN"
 "http://www.w3.org/Graphics/SVG/1.1/DTD/svg11.dtd">
<!-- Generated by graphviz version 2.43.0 (0)
 -->
<!-- Title: imgui_impl_dx11.h Pages: 1 -->
<svg width="677pt" height="82pt"
 viewBox="0.00 0.00 676.50 82.00" xmlns="http://www.w3.org/2000/svg" xmlns:xlink="http://www.w3.org/1999/xlink">
<g id="graph0" class="graph" transform="scale(1 1) rotate(0) translate(4 78)">
<title>imgui_impl_dx11.h</title>
<!-- Node1 -->
<g id="node1" class="node">
<title>Node1</title>
<g id="a_node1"><a xlink:title=" ">
<polygon fill="#999999" stroke="#666666" points="396,-74 286,-74 286,-55 396,-55 396,-74"/>
<text text-anchor="middle" x="341" y="-62" font-family="Helvetica,sans-Serif" font-size="10.00">imgui_impl_dx11.h</text>
</a>
</g>
</g>
<!-- Node2 -->
<g id="node2" class="node">
<title>Node2</title>
<g id="a_node2"><a xlink:href="ImGuiRenderer_8cpp.html" target="_top" xlink:title=" ">
<polygon fill="white" stroke="#666666" points="110,-19 0,-19 0,0 110,0 110,-19"/>
<text text-anchor="middle" x="55" y="-7" font-family="Helvetica,sans-Serif" font-size="10.00">ImGuiRenderer.cpp</text>
</a>
</g>
</g>
<!-- Node1&#45;&gt;Node2 -->
<g id="edge1" class="edge">
<title>Node1&#45;&gt;Node2</title>
<path fill="none" stroke="#63b8ff" d="M285.03,-53.13C231.41,-43.19 151.45,-28.37 101.31,-19.08"/>
<polygon fill="#63b8ff" stroke="#63b8ff" points="284.58,-56.6 295.05,-54.98 285.85,-49.72 284.58,-56.6"/>
</g>
<!-- Node3 -->
<g id="node3" class="node">
<title>Node3</title>
<g id="a_node3"><a xlink:href="ImGuizmoManipulator_8cpp.html" target="_top" xlink:title=" ">
<polygon fill="white" stroke="#666666" points="273.5,-19 128.5,-19 128.5,0 273.5,0 273.5,-19"/>
<text text-anchor="middle" x="201" y="-7" font-family="Helvetica,sans-Serif" font-size="10.00">ImGuizmoManipulator.cpp</text>
</a>
</g>
</g>
<!-- Node1&#45;&gt;Node3 -->
<g id="edge2" class="edge">
<title>Node1&#45;&gt;Node3</title>
<path fill="none" stroke="#63b8ff" d="M309.09,-51.42C283.12,-41.59 247.08,-27.95 223.9,-19.17"/>
<polygon fill="#63b8ff" stroke="#63b8ff" points="307.92,-54.72 318.51,-54.98 310.39,-48.17 307.92,-54.72"/>
</g>
<!-- Node4 -->
<g id="node4" class="node">
<title>Node4</title>
<g id="a_node4"><a xlink:href="MainWindow_8cpp.html" target="_top" xlink:title=" ">
<polygon fill="white" stroke="#666666" points="390.5,-19 291.5,-19 291.5,0 390.5,0 390.5,-19"/>
<text text-anchor="middle" x="341" y="-7" font-family="Helvetica,sans-Serif" font-size="10.00">MainWindow.cpp</text>
</a>
</g>
</g>
<!-- Node1&#45;&gt;Node4 -->
<g id="edge3" class="edge">
<title>Node1&#45;&gt;Node4</title>
<path fill="none" stroke="#63b8ff" d="M341,-44.66C341,-35.93 341,-25.99 341,-19.09"/>
<polygon fill="#63b8ff" stroke="#63b8ff" points="337.5,-44.75 341,-54.75 344.5,-44.75 337.5,-44.75"/>
</g>
<!-- Node5 -->
<g id="node5" class="node">
<title>Node5</title>
<g id="a_node5"><a xlink:href="WindowResource_8cpp.html" target="_top" xlink:title=" ">
<polygon fill="white" stroke="#666666" points="529.5,-19 408.5,-19 408.5,0 529.5,0 529.5,-19"/>
<text text-anchor="middle" x="469" y="-7" font-family="Helvetica,sans-Serif" font-size="10.00">WindowResource.cpp</text>
</a>
</g>
</g>
<!-- Node1&#45;&gt;Node5 -->
<g id="edge4" class="edge">
<title>Node1&#45;&gt;Node5</title>
<path fill="none" stroke="#63b8ff" d="M371.12,-51.03C394.79,-41.23 427.15,-27.83 448.06,-19.17"/>
<polygon fill="#63b8ff" stroke="#63b8ff" points="369.47,-47.93 361.57,-54.98 372.14,-54.39 369.47,-47.93"/>
</g>
<!-- Node6 -->
<g id="node6" class="node">
<title>Node6</title>
<g id="a_node6"><a xlink:href="imgui__impl__dx11_8cpp.html" target="_top" xlink:title=" ">
<polygon fill="white" stroke="#666666" points="668.5,-19 547.5,-19 547.5,0 668.5,0 668.5,-19"/>
<text text-anchor="middle" x="608" y="-7" font-family="Helvetica,sans-Serif" font-size="10.00">imgui_impl_dx11.cpp</text>
</a>
</g>
</g>
<!-- Node1&#45;&gt;Node6 -->
<g id="edge5" class="edge">
<title>Node1&#45;&gt;Node6</title>
<path fill="none" stroke="#63b8ff" d="M393.88,-53C443.93,-43.07 518.16,-28.33 564.77,-19.08"/>
<polygon fill="#63b8ff" stroke="#63b8ff" points="393.03,-49.6 383.9,-54.98 394.39,-56.47 393.03,-49.6"/>
</g>
</g>
</svg>
