<?xml version="1.0" encoding="UTF-8" standalone="no"?>
<!DOCTYPE svg PUBLIC "-//W3C//DTD SVG 1.1//EN"
 "http://www.w3.org/Graphics/SVG/1.1/DTD/svg11.dtd">
<!-- Generated by graphviz version 2.43.0 (0)
 -->
<!-- Title: IncludingInput.h Pages: 1 -->
<svg width="1952pt" height="368pt"
 viewBox="0.00 0.00 1951.97 368.00" xmlns="http://www.w3.org/2000/svg" xmlns:xlink="http://www.w3.org/1999/xlink">
<g id="graph0" class="graph" transform="scale(1 1) rotate(0) translate(4 364)">
<title>IncludingInput.h</title>
<!-- Node1 -->
<g id="node1" class="node">
<title>Node1</title>
<g id="a_node1"><a xlink:title=" ">
<polygon fill="#999999" stroke="#666666" points="1099.5,-360 1004.5,-360 1004.5,-341 1099.5,-341 1099.5,-360"/>
<text text-anchor="middle" x="1052" y="-348" font-family="Helvetica,sans-Serif" font-size="10.00">IncludingInput.h</text>
</a>
</g>
</g>
<!-- Node2 -->
<g id="node2" class="node">
<title>Node2</title>
<g id="a_node2"><a xlink:href="Input_8cpp.html" target="_top" xlink:title=" ">
<polygon fill="white" stroke="#666666" points="959,-195 897,-195 897,-176 959,-176 959,-195"/>
<text text-anchor="middle" x="928" y="-183" font-family="Helvetica,sans-Serif" font-size="10.00">Input.cpp</text>
</a>
</g>
</g>
<!-- Node1&#45;&gt;Node2 -->
<g id="edge1" class="edge">
<title>Node1&#45;&gt;Node2</title>
<path fill="none" stroke="#63b8ff" d="M1039.16,-332.62C1013.03,-298.28 954.51,-221.34 934.7,-195.31"/>
<polygon fill="#63b8ff" stroke="#63b8ff" points="1036.49,-334.9 1045.33,-340.74 1042.06,-330.66 1036.49,-334.9"/>
</g>
<!-- Node3 -->
<g id="node3" class="node">
<title>Node3</title>
<g id="a_node3"><a xlink:href="Input_8h.html" target="_top" xlink:title=" ">
<polygon fill="white" stroke="#666666" points="1111,-305 1061,-305 1061,-286 1111,-286 1111,-305"/>
<text text-anchor="middle" x="1086" y="-293" font-family="Helvetica,sans-Serif" font-size="10.00">Input.h</text>
</a>
</g>
</g>
<!-- Node1&#45;&gt;Node3 -->
<g id="edge2" class="edge">
<title>Node1&#45;&gt;Node3</title>
<path fill="none" stroke="#63b8ff" d="M1063.16,-332.1C1068.97,-323.04 1075.82,-312.37 1080.49,-305.09"/>
<polygon fill="#63b8ff" stroke="#63b8ff" points="1060.07,-330.44 1057.61,-340.75 1065.96,-334.22 1060.07,-330.44"/>
</g>
<!-- Node5 -->
<g id="node5" class="node">
<title>Node5</title>
<g id="a_node5"><a xlink:href="InputData_8h.html" target="_top" xlink:title=" ">
<polygon fill="white" stroke="#666666" points="925,-250 851,-250 851,-231 925,-231 925,-250"/>
<text text-anchor="middle" x="888" y="-238" font-family="Helvetica,sans-Serif" font-size="10.00">InputData.h</text>
</a>
</g>
</g>
<!-- Node1&#45;&gt;Node5 -->
<g id="edge57" class="edge">
<title>Node1&#45;&gt;Node5</title>
<path fill="none" stroke="#63b8ff" d="M1030.43,-335.3C995.96,-312.59 929.45,-268.8 901.21,-250.2"/>
<polygon fill="#63b8ff" stroke="#63b8ff" points="1028.58,-338.27 1038.86,-340.84 1032.43,-332.42 1028.58,-338.27"/>
</g>
<!-- Node10 -->
<g id="node10" class="node">
<title>Node10</title>
<g id="a_node10"><a xlink:href="InputResource_8cpp.html" target="_top" xlink:title=" ">
<polygon fill="white" stroke="#666666" points="1724.5,-195 1617.5,-195 1617.5,-176 1724.5,-176 1724.5,-195"/>
<text text-anchor="middle" x="1671" y="-183" font-family="Helvetica,sans-Serif" font-size="10.00">InputResource.cpp</text>
</a>
</g>
</g>
<!-- Node1&#45;&gt;Node10 -->
<g id="edge62" class="edge">
<title>Node1&#45;&gt;Node10</title>
<path fill="none" stroke="#63b8ff" d="M1109.74,-347.86C1257.59,-343.37 1647.11,-329.5 1774,-305 1850.31,-290.26 1894.5,-313.01 1940,-250 1944.94,-243.15 1945.46,-237.44 1940,-231 1936.52,-226.89 1802.03,-206.13 1724.56,-194.48"/>
<polygon fill="#63b8ff" stroke="#63b8ff" points="1109.41,-344.37 1099.52,-348.17 1109.62,-351.37 1109.41,-344.37"/>
</g>
<!-- Node57 -->
<g id="node43" class="node">
<title>Node57</title>
<g id="a_node43"><a xlink:href="InputMouseCode_8h.html" target="_top" xlink:title=" ">
<polygon fill="white" stroke="#666666" points="823.5,-305 716.5,-305 716.5,-286 823.5,-286 823.5,-305"/>
<text text-anchor="middle" x="770" y="-293" font-family="Helvetica,sans-Serif" font-size="10.00">InputMouseCode.h</text>
</a>
</g>
</g>
<!-- Node1&#45;&gt;Node57 -->
<g id="edge58" class="edge">
<title>Node1&#45;&gt;Node57</title>
<path fill="none" stroke="#63b8ff" d="M996.81,-339.13C943.94,-329.19 865.1,-314.37 815.66,-305.08"/>
<polygon fill="#63b8ff" stroke="#63b8ff" points="996.22,-342.58 1006.69,-340.98 997.51,-335.7 996.22,-342.58"/>
</g>
<!-- Node58 -->
<g id="node44" class="node">
<title>Node58</title>
<g id="a_node44"><a xlink:href="InputPadCode_8h.html" target="_top" xlink:title=" ">
<polygon fill="white" stroke="#666666" points="934,-305 842,-305 842,-286 934,-286 934,-305"/>
<text text-anchor="middle" x="888" y="-293" font-family="Helvetica,sans-Serif" font-size="10.00">InputPadCode.h</text>
</a>
</g>
</g>
<!-- Node1&#45;&gt;Node58 -->
<g id="edge60" class="edge">
<title>Node1&#45;&gt;Node58</title>
<path fill="none" stroke="#63b8ff" d="M1015.79,-337.8C985.18,-327.91 942.05,-313.97 914.56,-305.08"/>
<polygon fill="#63b8ff" stroke="#63b8ff" points="1015.06,-341.24 1025.65,-340.98 1017.21,-334.58 1015.06,-341.24"/>
</g>
<!-- Node59 -->
<g id="node45" class="node">
<title>Node59</title>
<g id="a_node45"><a xlink:href="JoystickProxy_8h.html" target="_top" xlink:title=" ">
<polygon fill="white" stroke="#666666" points="1619,-305 1529,-305 1529,-286 1619,-286 1619,-305"/>
<text text-anchor="middle" x="1574" y="-293" font-family="Helvetica,sans-Serif" font-size="10.00">JoystickProxy.h</text>
</a>
</g>
</g>
<!-- Node1&#45;&gt;Node59 -->
<g id="edge63" class="edge">
<title>Node1&#45;&gt;Node59</title>
<path fill="none" stroke="#63b8ff" d="M1109.79,-343.63C1214.63,-332.99 1434.07,-310.71 1528.83,-301.09"/>
<polygon fill="#63b8ff" stroke="#63b8ff" points="1109.3,-340.16 1099.71,-344.66 1110.01,-347.13 1109.3,-340.16"/>
</g>
<!-- Node75 -->
<g id="node49" class="node">
<title>Node75</title>
<g id="a_node49"><a xlink:href="MouseStateProxy_8h.html" target="_top" xlink:title=" ">
<polygon fill="white" stroke="#666666" points="1765,-305 1655,-305 1655,-286 1765,-286 1765,-305"/>
<text text-anchor="middle" x="1710" y="-293" font-family="Helvetica,sans-Serif" font-size="10.00">MouseStateProxy.h</text>
</a>
</g>
</g>
<!-- Node1&#45;&gt;Node75 -->
<g id="edge74" class="edge">
<title>Node1&#45;&gt;Node75</title>
<path fill="none" stroke="#63b8ff" d="M1110.1,-345.52C1214.06,-338.28 1438.72,-322.12 1628,-305 1636.7,-304.21 1645.9,-303.32 1654.88,-302.41"/>
<polygon fill="#63b8ff" stroke="#63b8ff" points="1109.56,-342.05 1099.83,-346.23 1110.04,-349.03 1109.56,-342.05"/>
</g>
<!-- Node3&#45;&gt;Node2 -->
<g id="edge3" class="edge">
<title>Node3&#45;&gt;Node2</title>
<path fill="none" stroke="#63b8ff" d="M1064.8,-280.01C1031.46,-257.22 967.82,-213.72 940.72,-195.2"/>
<polygon fill="#63b8ff" stroke="#63b8ff" points="1063.11,-283.09 1073.34,-285.84 1067.06,-277.31 1063.11,-283.09"/>
</g>
<!-- Node4 -->
<g id="node4" class="node">
<title>Node4</title>
<g id="a_node4"><a xlink:href="InputData_8cpp.html" target="_top" xlink:title=" ">
<polygon fill="white" stroke="#666666" points="1407.5,-195 1322.5,-195 1322.5,-176 1407.5,-176 1407.5,-195"/>
<text text-anchor="middle" x="1365" y="-183" font-family="Helvetica,sans-Serif" font-size="10.00">InputData.cpp</text>
</a>
</g>
</g>
<!-- Node3&#45;&gt;Node4 -->
<g id="edge4" class="edge">
<title>Node3&#45;&gt;Node4</title>
<path fill="none" stroke="#63b8ff" d="M1092.33,-276.41C1098.41,-261.81 1109.04,-241.96 1125,-231 1156.44,-209.41 1262.32,-196.18 1322.42,-190.23"/>
<polygon fill="#63b8ff" stroke="#63b8ff" points="1089,-275.32 1088.7,-285.91 1095.54,-277.82 1089,-275.32"/>
</g>
<!-- Node3&#45;&gt;Node5 -->
<g id="edge5" class="edge">
<title>Node3&#45;&gt;Node5</title>
<path fill="none" stroke="#63b8ff" d="M1051.07,-285.15C1014.02,-275.23 955.99,-259.7 920.07,-250.09"/>
<polygon fill="#63b8ff" stroke="#63b8ff" points="1050.36,-288.58 1060.92,-287.79 1052.17,-281.82 1050.36,-288.58"/>
</g>
<!-- Node11 -->
<g id="node11" class="node">
<title>Node11</title>
<g id="a_node11"><a xlink:href="SceneSystem_8cpp.html" target="_top" xlink:title=" ">
<polygon fill="white" stroke="#666666" points="1080.5,-195 977.5,-195 977.5,-176 1080.5,-176 1080.5,-195"/>
<text text-anchor="middle" x="1029" y="-183" font-family="Helvetica,sans-Serif" font-size="10.00">SceneSystem.cpp</text>
</a>
</g>
</g>
<!-- Node3&#45;&gt;Node11 -->
<g id="edge54" class="edge">
<title>Node3&#45;&gt;Node11</title>
<path fill="none" stroke="#63b8ff" d="M1076.64,-276.76C1064.25,-253.28 1042.89,-212.81 1033.57,-195.16"/>
<polygon fill="#63b8ff" stroke="#63b8ff" points="1073.57,-278.45 1081.34,-285.66 1079.76,-275.18 1073.57,-278.45"/>
</g>
<!-- Node12 -->
<g id="node12" class="node">
<title>Node12</title>
<g id="a_node12"><a xlink:href="mtgb_8h.html" target="_top" xlink:title=" ">
<polygon fill="white" stroke="#666666" points="1149.5,-195 1098.5,-195 1098.5,-176 1149.5,-176 1149.5,-195"/>
<text text-anchor="middle" x="1124" y="-183" font-family="Helvetica,sans-Serif" font-size="10.00">mtgb.h</text>
</a>
</g>
</g>
<!-- Node3&#45;&gt;Node12 -->
<g id="edge56" class="edge">
<title>Node3&#45;&gt;Node12</title>
<path fill="none" stroke="#63b8ff" d="M1084.8,-275.91C1084.6,-262.93 1085.6,-245.42 1091,-231 1096.26,-216.95 1107.37,-203.5 1115.24,-195.13"/>
<polygon fill="#63b8ff" stroke="#63b8ff" points="1081.31,-276.11 1085.21,-285.96 1088.3,-275.83 1081.31,-276.11"/>
</g>
<!-- Node53 -->
<g id="node39" class="node">
<title>Node53</title>
<g id="a_node39"><a xlink:href="InputResource_8h.html" target="_top" xlink:title=" ">
<polygon fill="white" stroke="#666666" points="1603.5,-250 1508.5,-250 1508.5,-231 1603.5,-231 1603.5,-250"/>
<text text-anchor="middle" x="1556" y="-238" font-family="Helvetica,sans-Serif" font-size="10.00">InputResource.h</text>
</a>
</g>
</g>
<!-- Node3&#45;&gt;Node53 -->
<g id="edge45" class="edge">
<title>Node3&#45;&gt;Node53</title>
<path fill="none" stroke="#63b8ff" d="M1121.52,-291.21C1193.19,-284.45 1360.21,-268.11 1500,-250 1502.73,-249.65 1505.53,-249.27 1508.36,-248.88"/>
<polygon fill="#63b8ff" stroke="#63b8ff" points="1120.88,-287.75 1111.25,-292.17 1121.53,-294.72 1120.88,-287.75"/>
</g>
<!-- Node54 -->
<g id="node40" class="node">
<title>Node54</title>
<g id="a_node40"><a xlink:href="JoystickProxy_8cpp.html" target="_top" xlink:title=" ">
<polygon fill="white" stroke="#666666" points="1490.5,-250 1389.5,-250 1389.5,-231 1490.5,-231 1490.5,-250"/>
<text text-anchor="middle" x="1440" y="-238" font-family="Helvetica,sans-Serif" font-size="10.00">JoystickProxy.cpp</text>
</a>
</g>
</g>
<!-- Node3&#45;&gt;Node54 -->
<g id="edge52" class="edge">
<title>Node3&#45;&gt;Node54</title>
<path fill="none" stroke="#63b8ff" d="M1121.42,-289.2C1184.56,-279.74 1316.77,-259.95 1389.45,-249.07"/>
<polygon fill="#63b8ff" stroke="#63b8ff" points="1120.55,-285.79 1111.18,-290.73 1121.58,-292.71 1120.55,-285.79"/>
</g>
<!-- Node55 -->
<g id="node41" class="node">
<title>Node55</title>
<g id="a_node41"><a xlink:href="MainWindow_8cpp.html" target="_top" xlink:title=" ">
<polygon fill="white" stroke="#666666" points="1232.5,-250 1133.5,-250 1133.5,-231 1232.5,-231 1232.5,-250"/>
<text text-anchor="middle" x="1183" y="-238" font-family="Helvetica,sans-Serif" font-size="10.00">MainWindow.cpp</text>
</a>
</g>
</g>
<!-- Node3&#45;&gt;Node55 -->
<g id="edge53" class="edge">
<title>Node3&#45;&gt;Node55</title>
<path fill="none" stroke="#63b8ff" d="M1110.77,-280.97C1128.5,-271.28 1151.85,-258.52 1167.13,-250.17"/>
<polygon fill="#63b8ff" stroke="#63b8ff" points="1108.68,-278.12 1101.58,-285.98 1112.04,-284.26 1108.68,-278.12"/>
</g>
<!-- Node56 -->
<g id="node42" class="node">
<title>Node56</title>
<g id="a_node42"><a xlink:href="WindowResource_8cpp.html" target="_top" xlink:title=" ">
<polygon fill="white" stroke="#666666" points="1371.5,-250 1250.5,-250 1250.5,-231 1371.5,-231 1371.5,-250"/>
<text text-anchor="middle" x="1311" y="-238" font-family="Helvetica,sans-Serif" font-size="10.00">WindowResource.cpp</text>
</a>
</g>
</g>
<!-- Node3&#45;&gt;Node56 -->
<g id="edge55" class="edge">
<title>Node3&#45;&gt;Node56</title>
<path fill="none" stroke="#63b8ff" d="M1121.11,-286.23C1162.88,-276.39 1232.26,-260.05 1274.59,-250.08"/>
<polygon fill="#63b8ff" stroke="#63b8ff" points="1120.3,-282.82 1111.37,-288.52 1121.91,-289.64 1120.3,-282.82"/>
</g>
<!-- Node5&#45;&gt;Node2 -->
<g id="edge10" class="edge">
<title>Node5&#45;&gt;Node2</title>
<path fill="none" stroke="#63b8ff" d="M900.7,-222.67C907.63,-213.5 915.91,-202.52 921.52,-195.09"/>
<polygon fill="#63b8ff" stroke="#63b8ff" points="897.84,-220.66 894.61,-230.75 903.42,-224.87 897.84,-220.66"/>
</g>
<!-- Node5&#45;&gt;Node4 -->
<g id="edge11" class="edge">
<title>Node5&#45;&gt;Node4</title>
<path fill="none" stroke="#63b8ff" d="M934.97,-234.28C1027.71,-223.98 1233.03,-201.16 1322.23,-191.25"/>
<polygon fill="#63b8ff" stroke="#63b8ff" points="934.58,-230.8 925.03,-235.39 935.36,-237.76 934.58,-230.8"/>
</g>
<!-- Node6 -->
<g id="node6" class="node">
<title>Node6</title>
<g id="a_node6"><a xlink:href="ICamera_8cpp.html" target="_top" xlink:title=" ">
<polygon fill="white" stroke="#666666" points="615,-195 537,-195 537,-176 615,-176 615,-195"/>
<text text-anchor="middle" x="576" y="-183" font-family="Helvetica,sans-Serif" font-size="10.00">ICamera.cpp</text>
</a>
</g>
</g>
<!-- Node5&#45;&gt;Node6 -->
<g id="edge6" class="edge">
<title>Node5&#45;&gt;Node6</title>
<path fill="none" stroke="#63b8ff" d="M840.74,-231.65C787.9,-222.85 699.79,-208.1 624,-195 621.08,-194.5 618.06,-193.97 615.03,-193.44"/>
<polygon fill="#63b8ff" stroke="#63b8ff" points="840.38,-235.14 850.82,-233.33 841.53,-228.24 840.38,-235.14"/>
</g>
<!-- Node7 -->
<g id="node7" class="node">
<title>Node7</title>
<g id="a_node7"><a xlink:href="ImGuiEditor_8cpp.html" target="_top" xlink:title=" ">
<polygon fill="white" stroke="#666666" points="727,-195 633,-195 633,-176 727,-176 727,-195"/>
<text text-anchor="middle" x="680" y="-183" font-family="Helvetica,sans-Serif" font-size="10.00">ImGuiEditor.cpp</text>
</a>
</g>
</g>
<!-- Node5&#45;&gt;Node7 -->
<g id="edge7" class="edge">
<title>Node5&#45;&gt;Node7</title>
<path fill="none" stroke="#63b8ff" d="M844.59,-228.44C805.65,-218.52 749.31,-204.16 713.68,-195.08"/>
<polygon fill="#63b8ff" stroke="#63b8ff" points="844.03,-231.91 854.58,-230.98 845.76,-225.12 844.03,-231.91"/>
</g>
<!-- Node8 -->
<g id="node8" class="node">
<title>Node8</title>
<g id="a_node8"><a xlink:href="ImGuiEditorCamera_8cpp.html" target="_top" xlink:title=" ">
<polygon fill="white" stroke="#666666" points="878.5,-195 745.5,-195 745.5,-176 878.5,-176 878.5,-195"/>
<text text-anchor="middle" x="812" y="-183" font-family="Helvetica,sans-Serif" font-size="10.00">ImGuiEditorCamera.cpp</text>
</a>
</g>
</g>
<!-- Node5&#45;&gt;Node8 -->
<g id="edge8" class="edge">
<title>Node5&#45;&gt;Node8</title>
<path fill="none" stroke="#63b8ff" d="M867.42,-225.15C853.69,-215.57 836.07,-203.29 824.43,-195.17"/>
<polygon fill="#63b8ff" stroke="#63b8ff" points="865.58,-228.14 875.79,-230.98 869.59,-222.39 865.58,-228.14"/>
</g>
<!-- Node9 -->
<g id="node9" class="node">
<title>Node9</title>
<g id="a_node9"><a xlink:href="ImGuizmoManipulator_8cpp.html" target="_top" xlink:title=" ">
<polygon fill="white" stroke="#666666" points="518.5,-195 373.5,-195 373.5,-176 518.5,-176 518.5,-195"/>
<text text-anchor="middle" x="446" y="-183" font-family="Helvetica,sans-Serif" font-size="10.00">ImGuizmoManipulator.cpp</text>
</a>
</g>
</g>
<!-- Node5&#45;&gt;Node9 -->
<g id="edge9" class="edge">
<title>Node5&#45;&gt;Node9</title>
<path fill="none" stroke="#63b8ff" d="M840.72,-233.83C763.08,-224.52 608.14,-205.94 517.19,-195.04"/>
<polygon fill="#63b8ff" stroke="#63b8ff" points="840.35,-237.31 850.7,-235.03 841.18,-230.36 840.35,-237.31"/>
</g>
<!-- Node5&#45;&gt;Node10 -->
<g id="edge12" class="edge">
<title>Node5&#45;&gt;Node10</title>
<path fill="none" stroke="#63b8ff" d="M935.46,-236.29C1073.17,-226.97 1472.23,-199.95 1617.4,-190.13"/>
<polygon fill="#63b8ff" stroke="#63b8ff" points="934.98,-232.81 925.24,-236.98 935.45,-239.8 934.98,-232.81"/>
</g>
<!-- Node5&#45;&gt;Node11 -->
<g id="edge13" class="edge">
<title>Node5&#45;&gt;Node11</title>
<path fill="none" stroke="#63b8ff" d="M920.14,-227.42C946.29,-217.59 982.59,-203.95 1005.93,-195.17"/>
<polygon fill="#63b8ff" stroke="#63b8ff" points="918.78,-224.19 910.65,-230.98 921.25,-230.74 918.78,-224.19"/>
</g>
<!-- Node5&#45;&gt;Node12 -->
<g id="edge14" class="edge">
<title>Node5&#45;&gt;Node12</title>
<path fill="none" stroke="#63b8ff" d="M935.28,-229.48C976.27,-220.7 1037.15,-207.43 1090,-195 1092.72,-194.36 1095.57,-193.67 1098.4,-192.98"/>
<polygon fill="#63b8ff" stroke="#63b8ff" points="934.35,-226.1 925.3,-231.61 935.81,-232.94 934.35,-226.1"/>
</g>
<!-- Node13 -->
<g id="node13" class="node">
<title>Node13</title>
<g id="a_node13"><a xlink:href="Box3D_8h.html" target="_top" xlink:title=" ">
<polygon fill="white" stroke="#666666" points="1036,-140 978,-140 978,-121 1036,-121 1036,-140"/>
<text text-anchor="middle" x="1007" y="-128" font-family="Helvetica,sans-Serif" font-size="10.00">Box3D.h</text>
</a>
</g>
</g>
<!-- Node12&#45;&gt;Node13 -->
<g id="edge15" class="edge">
<title>Node12&#45;&gt;Node13</title>
<path fill="none" stroke="#63b8ff" d="M1095.89,-171.77C1074.31,-161.99 1045.09,-148.75 1026.14,-140.17"/>
<polygon fill="#63b8ff" stroke="#63b8ff" points="1094.65,-175.05 1105.2,-175.98 1097.54,-168.67 1094.65,-175.05"/>
</g>
<!-- Node17 -->
<g id="node17" class="node">
<title>Node17</title>
<g id="a_node17"><a xlink:href="Camera_8h.html" target="_top" xlink:title=" ">
<polygon fill="#fff0f0" stroke="red" points="1156,-140 1092,-140 1092,-121 1156,-121 1156,-140"/>
<text text-anchor="middle" x="1124" y="-128" font-family="Helvetica,sans-Serif" font-size="10.00">Camera.h</text>
</a>
</g>
</g>
<!-- Node12&#45;&gt;Node17 -->
<g id="edge19" class="edge">
<title>Node12&#45;&gt;Node17</title>
<path fill="none" stroke="#63b8ff" d="M1124,-165.66C1124,-156.93 1124,-146.99 1124,-140.09"/>
<polygon fill="#63b8ff" stroke="#63b8ff" points="1120.5,-165.75 1124,-175.75 1127.5,-165.75 1120.5,-165.75"/>
</g>
<!-- Node20 -->
<g id="node20" class="node">
<title>Node20</title>
<g id="a_node20"><a xlink:href="Player_8h.html" target="_top" xlink:title=" ">
<polygon fill="#fff0f0" stroke="red" points="1152,-79.5 1096,-79.5 1096,-60.5 1152,-60.5 1152,-79.5"/>
<text text-anchor="middle" x="1124" y="-67.5" font-family="Helvetica,sans-Serif" font-size="10.00">Player.h</text>
</a>
</g>
</g>
<!-- Node12&#45;&gt;Node20 -->
<g id="edge32" class="edge">
<title>Node12&#45;&gt;Node20</title>
<path fill="none" stroke="#63b8ff" d="M1104.3,-169.47C1090.85,-157.23 1076.54,-139.08 1083,-121 1089.05,-104.09 1103.55,-88.78 1113.58,-79.69"/>
<polygon fill="#63b8ff" stroke="#63b8ff" points="1102.07,-172.16 1111.96,-175.95 1106.59,-166.82 1102.07,-172.16"/>
</g>
<!-- Node23 -->
<g id="node21" class="node">
<title>Node23</title>
<g id="a_node21"><a xlink:href="TitleScene_8cpp.html" target="_top" xlink:title=" ">
<polygon fill="white" stroke="#666666" points="1390,-79.5 1302,-79.5 1302,-60.5 1390,-60.5 1390,-79.5"/>
<text text-anchor="middle" x="1346" y="-67.5" font-family="Helvetica,sans-Serif" font-size="10.00">TitleScene.cpp</text>
</a>
</g>
</g>
<!-- Node12&#45;&gt;Node23 -->
<g id="edge43" class="edge">
<title>Node12&#45;&gt;Node23</title>
<path fill="none" stroke="#63b8ff" d="M1139.98,-168.9C1155.14,-154.79 1179.11,-134.26 1203,-121 1237.84,-101.66 1281.52,-87.7 1311.38,-79.53"/>
<polygon fill="#63b8ff" stroke="#63b8ff" points="1137.35,-166.56 1132.51,-175.99 1142.18,-171.64 1137.35,-166.56"/>
</g>
<!-- Node24 -->
<g id="node22" class="node">
<title>Node24</title>
<g id="a_node22"><a xlink:href="GameOverZone_8h.html" target="_top" xlink:title=" ">
<polygon fill="#fff0f0" stroke="red" points="1419.5,-140 1316.5,-140 1316.5,-121 1419.5,-121 1419.5,-140"/>
<text text-anchor="middle" x="1368" y="-128" font-family="Helvetica,sans-Serif" font-size="10.00">GameOverZone.h</text>
</a>
</g>
</g>
<!-- Node12&#45;&gt;Node24 -->
<g id="edge25" class="edge">
<title>Node12&#45;&gt;Node24</title>
<path fill="none" stroke="#63b8ff" d="M1159.56,-176.78C1204.59,-167 1281.93,-150.19 1328.68,-140.04"/>
<polygon fill="#63b8ff" stroke="#63b8ff" points="1158.68,-173.39 1149.65,-178.93 1160.17,-180.23 1158.68,-173.39"/>
</g>
<!-- Node26 -->
<g id="node23" class="node">
<title>Node26</title>
<g id="a_node23"><a xlink:href="Goal_8h.html" target="_top" xlink:title=" ">
<polygon fill="#fff0f0" stroke="red" points="1486,-140 1438,-140 1438,-121 1486,-121 1486,-140"/>
<text text-anchor="middle" x="1462" y="-128" font-family="Helvetica,sans-Serif" font-size="10.00">Goal.h</text>
</a>
</g>
</g>
<!-- Node12&#45;&gt;Node26 -->
<g id="edge26" class="edge">
<title>Node12&#45;&gt;Node26</title>
<path fill="none" stroke="#63b8ff" d="M1159.86,-180.53C1217.08,-173.92 1332.45,-159.42 1429,-140 1431.9,-139.42 1434.93,-138.74 1437.92,-138.02"/>
<polygon fill="#63b8ff" stroke="#63b8ff" points="1159.4,-177.06 1149.87,-181.68 1160.2,-184.02 1159.4,-177.06"/>
</g>
<!-- Node28 -->
<g id="node24" class="node">
<title>Node28</title>
<g id="a_node24"><a xlink:href="HighlightEnemy_8h.html" target="_top" xlink:title=" ">
<polygon fill="#fff0f0" stroke="red" points="1606,-140 1504,-140 1504,-121 1606,-121 1606,-140"/>
<text text-anchor="middle" x="1555" y="-128" font-family="Helvetica,sans-Serif" font-size="10.00">HighlightEnemy.h</text>
</a>
</g>
</g>
<!-- Node12&#45;&gt;Node28 -->
<g id="edge27" class="edge">
<title>Node12&#45;&gt;Node28</title>
<path fill="none" stroke="#63b8ff" d="M1159.98,-180.44C1226.28,-172.91 1372.22,-156.06 1495,-140 1497.92,-139.62 1500.92,-139.22 1503.95,-138.81"/>
<polygon fill="#63b8ff" stroke="#63b8ff" points="1159.2,-177.01 1149.66,-181.61 1159.99,-183.96 1159.2,-177.01"/>
</g>
<!-- Node30 -->
<g id="node25" class="node">
<title>Node30</title>
<g id="a_node25"><a xlink:href="Model_8cpp.html" target="_top" xlink:title=" ">
<polygon fill="white" stroke="#666666" points="1691.5,-140 1624.5,-140 1624.5,-121 1691.5,-121 1691.5,-140"/>
<text text-anchor="middle" x="1658" y="-128" font-family="Helvetica,sans-Serif" font-size="10.00">Model.cpp</text>
</a>
</g>
</g>
<!-- Node12&#45;&gt;Node30 -->
<g id="edge28" class="edge">
<title>Node12&#45;&gt;Node30</title>
<path fill="none" stroke="#63b8ff" d="M1159.86,-182.54C1241.15,-177.82 1445.54,-164.36 1615,-140 1618.01,-139.57 1621.13,-139.06 1624.26,-138.52"/>
<polygon fill="#63b8ff" stroke="#63b8ff" points="1159.45,-179.06 1149.67,-183.12 1159.85,-186.05 1159.45,-179.06"/>
</g>
<!-- Node31 -->
<g id="node26" class="node">
<title>Node31</title>
<g id="a_node26"><a xlink:href="MovingFloor_8h.html" target="_top" xlink:title=" ">
<polygon fill="#fff0f0" stroke="red" points="1298,-140 1212,-140 1212,-121 1298,-121 1298,-140"/>
<text text-anchor="middle" x="1255" y="-128" font-family="Helvetica,sans-Serif" font-size="10.00">MovingFloor.h</text>
</a>
</g>
</g>
<!-- Node12&#45;&gt;Node31 -->
<g id="edge29" class="edge">
<title>Node12&#45;&gt;Node31</title>
<path fill="none" stroke="#63b8ff" d="M1154.5,-172.16C1178.75,-162.35 1212.07,-148.87 1233.57,-140.17"/>
<polygon fill="#63b8ff" stroke="#63b8ff" points="1153,-168.99 1145.05,-175.98 1155.63,-175.48 1153,-168.99"/>
</g>
<!-- Node35 -->
<g id="node28" class="node">
<title>Node35</title>
<g id="a_node28"><a xlink:href="PatrolChargerEnemy_8h.html" target="_top" xlink:title=" ">
<polygon fill="#fff0f0" stroke="red" points="234,-140 110,-140 110,-121 234,-121 234,-140"/>
<text text-anchor="middle" x="172" y="-128" font-family="Helvetica,sans-Serif" font-size="10.00">PatrolChargerEnemy.h</text>
</a>
</g>
</g>
<!-- Node12&#45;&gt;Node35 -->
<g id="edge31" class="edge">
<title>Node12&#45;&gt;Node35</title>
<path fill="none" stroke="#63b8ff" d="M1088.56,-176.1C717.56,-123.12 618.17,-168.58 248,-140 243.5,-139.65 238.85,-139.25 234.18,-138.81"/>
<polygon fill="#63b8ff" stroke="#63b8ff" points="1088.09,-179.57 1098.49,-177.53 1089.09,-172.64 1088.09,-179.57"/>
</g>
<!-- Node37 -->
<g id="node29" class="node">
<title>Node37</title>
<g id="a_node29"><a xlink:href="SampleGame_8h.html" target="_top" xlink:title=" ">
<polygon fill="#fff0f0" stroke="red" points="92,-140 0,-140 0,-121 92,-121 92,-140"/>
<text text-anchor="middle" x="46" y="-128" font-family="Helvetica,sans-Serif" font-size="10.00">SampleGame.h</text>
</a>
</g>
</g>
<!-- Node12&#45;&gt;Node37 -->
<g id="edge33" class="edge">
<title>Node12&#45;&gt;Node37</title>
<path fill="none" stroke="#63b8ff" d="M1088.47,-176.1C652.73,-115.34 535.56,-181.35 101,-140 98.11,-139.73 95.15,-139.4 92.16,-139.04"/>
<polygon fill="#63b8ff" stroke="#63b8ff" points="1088.1,-179.59 1098.49,-177.52 1089.08,-172.66 1088.1,-179.59"/>
</g>
<!-- Node39 -->
<g id="node30" class="node">
<title>Node39</title>
<g id="a_node30"><a xlink:href="Source_2TheMain_8cpp.html" target="_top" xlink:title=" ">
<polygon fill="white" stroke="#666666" points="193.5,-79.5 114.5,-79.5 114.5,-60.5 193.5,-60.5 193.5,-79.5"/>
<text text-anchor="middle" x="154" y="-67.5" font-family="Helvetica,sans-Serif" font-size="10.00">TheMain.cpp</text>
</a>
</g>
</g>
<!-- Node12&#45;&gt;Node39 -->
<g id="edge41" class="edge">
<title>Node12&#45;&gt;Node39</title>
<path fill="none" stroke="#63b8ff" d="M1088.4,-176.15C895.93,-151.36 451.34,-187.34 281,-140 275.02,-138.34 202.32,-97.97 169.68,-79.76"/>
<polygon fill="#63b8ff" stroke="#63b8ff" points="1088.11,-179.64 1098.49,-177.54 1089.06,-172.71 1088.11,-179.64"/>
</g>
<!-- Node40 -->
<g id="node31" class="node">
<title>Node40</title>
<g id="a_node31"><a xlink:href="SampleScene_8cpp.html" target="_top" xlink:title=" ">
<polygon fill="white" stroke="#666666" points="393.5,-140 290.5,-140 290.5,-121 393.5,-121 393.5,-140"/>
<text text-anchor="middle" x="342" y="-128" font-family="Helvetica,sans-Serif" font-size="10.00">SampleScene.cpp</text>
</a>
</g>
</g>
<!-- Node12&#45;&gt;Node40 -->
<g id="edge35" class="edge">
<title>Node12&#45;&gt;Node40</title>
<path fill="none" stroke="#63b8ff" d="M1088.53,-176.08C785.43,-131.48 703.5,-169.19 402,-140 399.28,-139.74 396.49,-139.44 393.68,-139.12"/>
<polygon fill="#63b8ff" stroke="#63b8ff" points="1088.08,-179.55 1098.49,-177.56 1089.11,-172.63 1088.08,-179.55"/>
</g>
<!-- Node41 -->
<g id="node32" class="node">
<title>Node41</title>
<g id="a_node32"><a xlink:href="ScoreItem_8h.html" target="_top" xlink:title=" ">
<polygon fill="#fff0f0" stroke="red" points="486.5,-140 411.5,-140 411.5,-121 486.5,-121 486.5,-140"/>
<text text-anchor="middle" x="449" y="-128" font-family="Helvetica,sans-Serif" font-size="10.00">ScoreItem.h</text>
</a>
</g>
</g>
<!-- Node12&#45;&gt;Node41 -->
<g id="edge36" class="edge">
<title>Node12&#45;&gt;Node41</title>
<path fill="none" stroke="#63b8ff" d="M1088.3,-176.03C826.79,-136.65 755.26,-171.19 496,-140 492.95,-139.63 489.81,-139.2 486.65,-138.71"/>
<polygon fill="#63b8ff" stroke="#63b8ff" points="1088.07,-179.53 1098.48,-177.58 1089.13,-172.61 1088.07,-179.53"/>
</g>
<!-- Node43 -->
<g id="node33" class="node">
<title>Node43</title>
<g id="a_node33"><a xlink:href="ScoreViewer_8h.html" target="_top" xlink:title=" ">
<polygon fill="#fff0f0" stroke="red" points="591,-140 505,-140 505,-121 591,-121 591,-140"/>
<text text-anchor="middle" x="548" y="-128" font-family="Helvetica,sans-Serif" font-size="10.00">ScoreViewer.h</text>
</a>
</g>
</g>
<!-- Node12&#45;&gt;Node43 -->
<g id="edge37" class="edge">
<title>Node12&#45;&gt;Node43</title>
<path fill="none" stroke="#63b8ff" d="M1088.42,-176.02C872.62,-142.11 813.57,-165.25 600,-140 597.09,-139.66 594.1,-139.27 591.09,-138.85"/>
<polygon fill="#63b8ff" stroke="#63b8ff" points="1088.05,-179.5 1098.48,-177.62 1089.15,-172.59 1088.05,-179.5"/>
</g>
<!-- Node45 -->
<g id="node34" class="node">
<title>Node45</title>
<g id="a_node34"><a xlink:href="StageEditScene_8cpp.html" target="_top" xlink:title=" ">
<polygon fill="white" stroke="#666666" points="1861.5,-140 1748.5,-140 1748.5,-121 1861.5,-121 1861.5,-140"/>
<text text-anchor="middle" x="1805" y="-128" font-family="Helvetica,sans-Serif" font-size="10.00">StageEditScene.cpp</text>
</a>
</g>
</g>
<!-- Node12&#45;&gt;Node45 -->
<g id="edge38" class="edge">
<title>Node12&#45;&gt;Node45</title>
<path fill="none" stroke="#63b8ff" d="M1159.6,-181.81C1250.04,-174.97 1496.03,-156.28 1701,-140 1716.35,-138.78 1732.97,-137.43 1748.33,-136.18"/>
<polygon fill="#63b8ff" stroke="#63b8ff" points="1159.3,-178.32 1149.6,-182.57 1159.83,-185.3 1159.3,-178.32"/>
</g>
<!-- Node46 -->
<g id="node35" class="node">
<title>Node46</title>
<g id="a_node35"><a xlink:href="StageManager_8h.html" target="_top" xlink:title=" ">
<polygon fill="#fff0f0" stroke="red" points="704.5,-140 609.5,-140 609.5,-121 704.5,-121 704.5,-140"/>
<text text-anchor="middle" x="657" y="-128" font-family="Helvetica,sans-Serif" font-size="10.00">StageManager.h</text>
</a>
</g>
</g>
<!-- Node12&#45;&gt;Node46 -->
<g id="edge39" class="edge">
<title>Node12&#45;&gt;Node46</title>
<path fill="none" stroke="#63b8ff" d="M1088.4,-175.96C922.34,-148.01 876.79,-160.23 713,-140 710.27,-139.66 707.46,-139.3 704.63,-138.91"/>
<polygon fill="#63b8ff" stroke="#63b8ff" points="1088.02,-179.45 1098.47,-177.68 1089.2,-172.55 1088.02,-179.45"/>
</g>
<!-- Node48 -->
<g id="node36" class="node">
<title>Node48</title>
<g id="a_node36"><a xlink:href="TextBox_8h.html" target="_top" xlink:title=" ">
<polygon fill="#fff0f0" stroke="red" points="787.5,-140 722.5,-140 722.5,-121 787.5,-121 787.5,-140"/>
<text text-anchor="middle" x="755" y="-128" font-family="Helvetica,sans-Serif" font-size="10.00">TextBox.h</text>
</a>
</g>
</g>
<!-- Node12&#45;&gt;Node48 -->
<g id="edge40" class="edge">
<title>Node12&#45;&gt;Node48</title>
<path fill="none" stroke="#63b8ff" d="M1088.54,-175.93C958.82,-152.43 922.72,-160.86 796,-140 793.27,-139.55 790.45,-139.05 787.63,-138.52"/>
<polygon fill="#63b8ff" stroke="#63b8ff" points="1087.99,-179.39 1098.45,-177.76 1089.25,-172.5 1087.99,-179.39"/>
</g>
<!-- Node50 -->
<g id="node37" class="node">
<title>Node50</title>
<g id="a_node37"><a xlink:href="TimeLimit_8h.html" target="_top" xlink:title=" ">
<polygon fill="#fff0f0" stroke="red" points="880.5,-140 805.5,-140 805.5,-121 880.5,-121 880.5,-140"/>
<text text-anchor="middle" x="843" y="-128" font-family="Helvetica,sans-Serif" font-size="10.00">TimeLimit.h</text>
</a>
</g>
</g>
<!-- Node12&#45;&gt;Node50 -->
<g id="edge42" class="edge">
<title>Node12&#45;&gt;Node50</title>
<path fill="none" stroke="#63b8ff" d="M1088.44,-175.77C999.56,-156.91 975.15,-155.67 889,-140 886.28,-139.51 883.48,-138.99 880.65,-138.47"/>
<polygon fill="#63b8ff" stroke="#63b8ff" points="1087.91,-179.24 1098.42,-177.91 1089.38,-172.39 1087.91,-179.24"/>
</g>
<!-- Node52 -->
<g id="node38" class="node">
<title>Node52</title>
<g id="a_node38"><a xlink:href="mtgb_8cpp.html" target="_top" xlink:title=" ">
<polygon fill="white" stroke="#666666" points="960,-140 898,-140 898,-121 960,-121 960,-140"/>
<text text-anchor="middle" x="929" y="-128" font-family="Helvetica,sans-Serif" font-size="10.00">mtgb.cpp</text>
</a>
</g>
</g>
<!-- Node12&#45;&gt;Node52 -->
<g id="edge44" class="edge">
<title>Node12&#45;&gt;Node52</title>
<path fill="none" stroke="#63b8ff" d="M1088.32,-174.8C1051.64,-164.83 995.1,-149.46 960.16,-139.97"/>
<polygon fill="#63b8ff" stroke="#63b8ff" points="1087.54,-178.22 1098.11,-177.46 1089.37,-171.46 1087.54,-178.22"/>
</g>
<!-- Node14 -->
<g id="node14" class="node">
<title>Node14</title>
<g id="a_node14"><a xlink:href="Box3D_8cpp.html" target="_top" xlink:title=" ">
<polygon fill="white" stroke="#666666" points="913.5,-79.5 844.5,-79.5 844.5,-60.5 913.5,-60.5 913.5,-79.5"/>
<text text-anchor="middle" x="879" y="-67.5" font-family="Helvetica,sans-Serif" font-size="10.00">Box3D.cpp</text>
</a>
</g>
</g>
<!-- Node13&#45;&gt;Node14 -->
<g id="edge16" class="edge">
<title>Node13&#45;&gt;Node14</title>
<path fill="none" stroke="#63b8ff" d="M979.17,-116.78C954.47,-105.49 919.07,-89.31 897.63,-79.52"/>
<polygon fill="#63b8ff" stroke="#63b8ff" points="977.84,-120.02 988.39,-120.99 980.75,-113.65 977.84,-120.02"/>
</g>
<!-- Node15 -->
<g id="node15" class="node">
<title>Node15</title>
<g id="a_node15"><a xlink:href="GameObjectGenerator_8cpp.html" target="_top" xlink:title=" ">
<polygon fill="white" stroke="#666666" points="1078,-79.5 932,-79.5 932,-60.5 1078,-60.5 1078,-79.5"/>
<text text-anchor="middle" x="1005" y="-67.5" font-family="Helvetica,sans-Serif" font-size="10.00">GameObjectGenerator.cpp</text>
</a>
</g>
</g>
<!-- Node13&#45;&gt;Node15 -->
<g id="edge17" class="edge">
<title>Node13&#45;&gt;Node15</title>
<path fill="none" stroke="#63b8ff" d="M1006.36,-110.66C1006,-100.24 1005.57,-87.8 1005.3,-79.67"/>
<polygon fill="#63b8ff" stroke="#63b8ff" points="1002.87,-110.99 1006.7,-120.87 1009.86,-110.75 1002.87,-110.99"/>
</g>
<!-- Node16 -->
<g id="node16" class="node">
<title>Node16</title>
<g id="a_node16"><a xlink:href="RegisterCommonGameObjectType_8cpp.html" target="_top" xlink:title=" ">
<polygon fill="white" stroke="#666666" points="826,-85 664,-85 664,-55 826,-55 826,-85"/>
<text text-anchor="start" x="672" y="-73" font-family="Helvetica,sans-Serif" font-size="10.00">RegisterCommonGameObject</text>
<text text-anchor="middle" x="745" y="-62" font-family="Helvetica,sans-Serif" font-size="10.00">Type.cpp</text>
</a>
</g>
</g>
<!-- Node13&#45;&gt;Node16 -->
<g id="edge18" class="edge">
<title>Node13&#45;&gt;Node16</title>
<path fill="none" stroke="#63b8ff" d="M967.94,-120.76C908.08,-107.39 850.3,-94.49 807.76,-85"/>
<polygon fill="#63b8ff" stroke="#63b8ff" points="967.43,-124.24 977.95,-123 968.96,-117.4 967.43,-124.24"/>
</g>
<!-- Node18 -->
<g id="node18" class="node">
<title>Node18</title>
<g id="a_node18"><a xlink:href="Camera_8cpp.html" target="_top" xlink:title=" ">
<polygon fill="white" stroke="#666666" points="1245.5,-79.5 1170.5,-79.5 1170.5,-60.5 1245.5,-60.5 1245.5,-79.5"/>
<text text-anchor="middle" x="1208" y="-67.5" font-family="Helvetica,sans-Serif" font-size="10.00">Camera.cpp</text>
</a>
</g>
</g>
<!-- Node17&#45;&gt;Node18 -->
<g id="edge20" class="edge">
<title>Node17&#45;&gt;Node18</title>
<path fill="none" stroke="#63b8ff" d="M1145.04,-114.85C1160.95,-103.77 1182.26,-88.93 1195.55,-79.67"/>
<polygon fill="#63b8ff" stroke="#63b8ff" points="1142.6,-112.28 1136.39,-120.87 1146.6,-118.03 1142.6,-112.28"/>
</g>
<!-- Node19 -->
<g id="node19" class="node">
<title>Node19</title>
<g id="a_node19"><a xlink:href="Player_8cpp.html" target="_top" xlink:title=" ">
<polygon fill="white" stroke="#666666" points="1307.5,-19 1240.5,-19 1240.5,0 1307.5,0 1307.5,-19"/>
<text text-anchor="middle" x="1274" y="-7" font-family="Helvetica,sans-Serif" font-size="10.00">Player.cpp</text>
</a>
</g>
</g>
<!-- Node17&#45;&gt;Node19 -->
<g id="edge21" class="edge">
<title>Node17&#45;&gt;Node19</title>
<path fill="none" stroke="#63b8ff" d="M1166.2,-119.81C1199.64,-111.3 1242.73,-98.26 1255,-85 1272.22,-66.38 1274.35,-34.36 1274.3,-19.09"/>
<polygon fill="#63b8ff" stroke="#63b8ff" points="1165.03,-116.49 1156.17,-122.29 1166.72,-123.28 1165.03,-116.49"/>
</g>
<!-- Node17&#45;&gt;Node20 -->
<g id="edge22" class="edge">
<title>Node17&#45;&gt;Node20</title>
<path fill="none" stroke="#63b8ff" d="M1124,-110.66C1124,-100.24 1124,-87.8 1124,-79.67"/>
<polygon fill="#63b8ff" stroke="#63b8ff" points="1120.5,-110.87 1124,-120.87 1127.5,-110.87 1120.5,-110.87"/>
</g>
<!-- Node17&#45;&gt;Node23 -->
<g id="edge24" class="edge">
<title>Node17&#45;&gt;Node23</title>
<path fill="none" stroke="#63b8ff" d="M1166.14,-118.4C1209.06,-107.08 1274.7,-89.79 1313.68,-79.52"/>
<polygon fill="#63b8ff" stroke="#63b8ff" points="1165.06,-115.06 1156.28,-120.99 1166.84,-121.83 1165.06,-115.06"/>
</g>
<!-- Node20&#45;&gt;Node19 -->
<g id="edge23" class="edge">
<title>Node20&#45;&gt;Node19</title>
<path fill="none" stroke="#63b8ff" d="M1155.46,-56.73C1184.45,-45.42 1226.71,-28.94 1252.16,-19.02"/>
<polygon fill="#63b8ff" stroke="#63b8ff" points="1153.86,-53.6 1145.81,-60.49 1156.4,-60.12 1153.86,-53.6"/>
</g>
<!-- Node32 -->
<g id="node27" class="node">
<title>Node32</title>
<g id="a_node27"><a xlink:href="MTImGui_8cpp.html" target="_top" xlink:title=" ">
<polygon fill="white" stroke="#666666" points="1625.5,-79.5 1544.5,-79.5 1544.5,-60.5 1625.5,-60.5 1625.5,-79.5"/>
<text text-anchor="middle" x="1585" y="-67.5" font-family="Helvetica,sans-Serif" font-size="10.00">MTImGui.cpp</text>
</a>
</g>
</g>
<!-- Node31&#45;&gt;Node32 -->
<g id="edge30" class="edge">
<title>Node31&#45;&gt;Node32</title>
<path fill="none" stroke="#63b8ff" d="M1308.32,-120.05C1374.26,-108.36 1485.02,-88.72 1544.44,-78.19"/>
<polygon fill="#63b8ff" stroke="#63b8ff" points="1307.38,-116.66 1298.14,-121.85 1308.6,-123.55 1307.38,-116.66"/>
</g>
<!-- Node37&#45;&gt;Node39 -->
<g id="edge34" class="edge">
<title>Node37&#45;&gt;Node39</title>
<path fill="none" stroke="#63b8ff" d="M70.78,-116.08C91.44,-104.88 120.26,-89.27 138,-79.67"/>
<polygon fill="#63b8ff" stroke="#63b8ff" points="69.06,-113.03 61.94,-120.87 72.4,-119.18 69.06,-113.03"/>
</g>
<!-- Node53&#45;&gt;Node2 -->
<g id="edge46" class="edge">
<title>Node53&#45;&gt;Node2</title>
<path fill="none" stroke="#63b8ff" d="M1498.12,-230.89C1262.64,-205.82 1199.39,-227.25 968,-195 965.19,-194.61 962.28,-194.13 959.37,-193.61"/>
<polygon fill="#63b8ff" stroke="#63b8ff" points="1498.06,-234.4 1508.38,-232 1498.81,-227.44 1498.06,-234.4"/>
</g>
<!-- Node53&#45;&gt;Node4 -->
<g id="edge47" class="edge">
<title>Node53&#45;&gt;Node4</title>
<path fill="none" stroke="#63b8ff" d="M1515.22,-228.18C1479.5,-218.27 1428.37,-204.08 1395.93,-195.08"/>
<polygon fill="#63b8ff" stroke="#63b8ff" points="1514.74,-231.68 1525.31,-230.98 1516.61,-224.94 1514.74,-231.68"/>
</g>
<!-- Node53&#45;&gt;Node10 -->
<g id="edge48" class="edge">
<title>Node53&#45;&gt;Node10</title>
<path fill="none" stroke="#63b8ff" d="M1583.63,-226.77C1604.84,-216.99 1633.56,-203.75 1652.19,-195.17"/>
<polygon fill="#63b8ff" stroke="#63b8ff" points="1582.09,-223.62 1574.48,-230.98 1585.02,-229.98 1582.09,-223.62"/>
</g>
<!-- Node53&#45;&gt;Node11 -->
<g id="edge50" class="edge">
<title>Node53&#45;&gt;Node11</title>
<path fill="none" stroke="#63b8ff" d="M1498.21,-230.85C1316.64,-209.49 1268.47,-215.26 1090,-195 1086.92,-194.65 1083.75,-194.27 1080.56,-193.87"/>
<polygon fill="#63b8ff" stroke="#63b8ff" points="1498.03,-234.36 1508.37,-232.06 1498.85,-227.41 1498.03,-234.36"/>
</g>
<!-- Node53&#45;&gt;Node12 -->
<g id="edge51" class="edge">
<title>Node53&#45;&gt;Node12</title>
<path fill="none" stroke="#63b8ff" d="M1498.08,-230.78C1360.75,-212.39 1208.9,-195.64 1149.57,-189.23"/>
<polygon fill="#63b8ff" stroke="#63b8ff" points="1497.98,-234.29 1508.36,-232.16 1498.91,-227.36 1497.98,-234.29"/>
</g>
<!-- Node53&#45;&gt;Node32 -->
<g id="edge49" class="edge">
<title>Node53&#45;&gt;Node32</title>
<path fill="none" stroke="#63b8ff" d="M1566.84,-222.19C1576.43,-208.09 1591.58,-188.55 1609,-176 1644.63,-150.34 1676.25,-176.27 1701,-140 1722.99,-107.78 1667.31,-88.28 1625.69,-78.59"/>
<polygon fill="#63b8ff" stroke="#63b8ff" points="1563.67,-220.64 1561.13,-230.92 1569.53,-224.47 1563.67,-220.64"/>
</g>
<!-- Node57&#45;&gt;Node5 -->
<g id="edge59" class="edge">
<title>Node57&#45;&gt;Node5</title>
<path fill="none" stroke="#63b8ff" d="M798.35,-281.77C820.12,-271.99 849.59,-258.75 868.7,-250.17"/>
<polygon fill="#63b8ff" stroke="#63b8ff" points="796.65,-278.69 788.96,-285.98 799.51,-285.08 796.65,-278.69"/>
</g>
<!-- Node58&#45;&gt;Node5 -->
<g id="edge61" class="edge">
<title>Node58&#45;&gt;Node5</title>
<path fill="none" stroke="#63b8ff" d="M888,-275.66C888,-266.93 888,-256.99 888,-250.09"/>
<polygon fill="#63b8ff" stroke="#63b8ff" points="884.5,-275.75 888,-285.75 891.5,-275.75 884.5,-275.75"/>
</g>
<!-- Node59&#45;&gt;Node4 -->
<g id="edge64" class="edge">
<title>Node59&#45;&gt;Node4</title>
<path fill="none" stroke="#63b8ff" d="M1593.69,-279.6C1609.04,-266.19 1625.79,-246.29 1613,-231 1587.32,-200.3 1471.63,-190.75 1407.73,-187.8"/>
<polygon fill="#63b8ff" stroke="#63b8ff" points="1591.45,-276.91 1585.95,-285.97 1595.9,-282.32 1591.45,-276.91"/>
</g>
<!-- Node59&#45;&gt;Node10 -->
<g id="edge65" class="edge">
<title>Node59&#45;&gt;Node10</title>
<path fill="none" stroke="#63b8ff" d="M1604.18,-281.43C1618.46,-273.97 1634.79,-263.41 1646,-250 1659.83,-233.45 1666.63,-208.34 1669.41,-195.2"/>
<polygon fill="#63b8ff" stroke="#63b8ff" points="1602.58,-278.31 1595.16,-285.88 1605.68,-284.59 1602.58,-278.31"/>
</g>
<!-- Node59&#45;&gt;Node53 -->
<g id="edge66" class="edge">
<title>Node59&#45;&gt;Node53</title>
<path fill="none" stroke="#63b8ff" d="M1567.8,-276.24C1564.79,-267.37 1561.31,-257.14 1558.92,-250.09"/>
<polygon fill="#63b8ff" stroke="#63b8ff" points="1564.5,-277.4 1571.03,-285.75 1571.13,-275.15 1564.5,-277.4"/>
</g>
<!-- Node59&#45;&gt;Node54 -->
<g id="edge67" class="edge">
<title>Node59&#45;&gt;Node54</title>
<path fill="none" stroke="#63b8ff" d="M1543.13,-282.29C1518.3,-272.47 1484.01,-258.91 1461.92,-250.17"/>
<polygon fill="#63b8ff" stroke="#63b8ff" points="1541.88,-285.56 1552.47,-285.98 1544.46,-279.05 1541.88,-285.56"/>
</g>
<!-- Node60 -->
<g id="node46" class="node">
<title>Node60</title>
<g id="a_node46"><a xlink:href="ReflectionInfo_8h.html" target="_top" xlink:title=" ">
<polygon fill="white" stroke="#666666" points="1791.5,-250 1698.5,-250 1698.5,-231 1791.5,-231 1791.5,-250"/>
<text text-anchor="middle" x="1745" y="-238" font-family="Helvetica,sans-Serif" font-size="10.00">ReflectionInfo.h</text>
</a>
</g>
</g>
<!-- Node59&#45;&gt;Node60 -->
<g id="edge68" class="edge">
<title>Node59&#45;&gt;Node60</title>
<path fill="none" stroke="#63b8ff" d="M1611.34,-282.93C1643.28,-273.03 1688.52,-259.01 1717.31,-250.08"/>
<polygon fill="#63b8ff" stroke="#63b8ff" points="1609.99,-279.68 1601.47,-285.98 1612.06,-286.37 1609.99,-279.68"/>
</g>
<!-- Node61 -->
<g id="node47" class="node">
<title>Node61</title>
<g id="a_node47"><a xlink:href="TypeRegistry_8cpp.html" target="_top" xlink:title=" ">
<polygon fill="white" stroke="#666666" points="1841,-195 1743,-195 1743,-176 1841,-176 1841,-195"/>
<text text-anchor="middle" x="1792" y="-183" font-family="Helvetica,sans-Serif" font-size="10.00">TypeRegistry.cpp</text>
</a>
</g>
</g>
<!-- Node60&#45;&gt;Node61 -->
<g id="edge69" class="edge">
<title>Node60&#45;&gt;Node61</title>
<path fill="none" stroke="#63b8ff" d="M1759.42,-223.24C1767.66,-213.95 1777.65,-202.68 1784.38,-195.09"/>
<polygon fill="#63b8ff" stroke="#63b8ff" points="1756.78,-220.94 1752.76,-230.75 1762.01,-225.59 1756.78,-220.94"/>
</g>
<!-- Node62 -->
<g id="node48" class="node">
<title>Node62</title>
<g id="a_node48"><a xlink:href="stdafx_8h.html" target="_top" xlink:title=" ">
<polygon fill="#fff0f0" stroke="red" points="1917,-195 1861,-195 1861,-176 1917,-176 1917,-195"/>
<text text-anchor="middle" x="1889" y="-183" font-family="Helvetica,sans-Serif" font-size="10.00">stdafx.h</text>
</a>
</g>
</g>
<!-- Node60&#45;&gt;Node62 -->
<g id="edge70" class="edge">
<title>Node60&#45;&gt;Node62</title>
<path fill="none" stroke="#63b8ff" d="M1777.82,-227.42C1804.53,-217.59 1841.6,-203.95 1865.44,-195.17"/>
<polygon fill="#63b8ff" stroke="#63b8ff" points="1776.31,-224.25 1768.14,-230.98 1778.73,-230.82 1776.31,-224.25"/>
</g>
<!-- Node62&#45;&gt;Node19 -->
<g id="edge71" class="edge">
<title>Node62&#45;&gt;Node19</title>
<path fill="none" stroke="#63b8ff" d="M1895.43,-165.77C1898.89,-151.98 1900.7,-133.52 1891,-121 1818.68,-27.67 1425.64,-13.17 1307.56,-10.91"/>
<polygon fill="#63b8ff" stroke="#63b8ff" points="1891.99,-165.04 1892.49,-175.63 1898.7,-167.05 1891.99,-165.04"/>
</g>
<!-- Node62&#45;&gt;Node23 -->
<g id="edge73" class="edge">
<title>Node62&#45;&gt;Node23</title>
<path fill="none" stroke="#63b8ff" d="M1889.02,-165.56C1887.94,-151.06 1883.92,-131.77 1871,-121 1861.78,-113.32 1515.23,-84.66 1390.31,-74.55"/>
<polygon fill="#63b8ff" stroke="#63b8ff" points="1885.54,-166.04 1889.37,-175.91 1892.53,-165.8 1885.54,-166.04"/>
</g>
<!-- Node62&#45;&gt;Node45 -->
<g id="edge72" class="edge">
<title>Node62&#45;&gt;Node45</title>
<path fill="none" stroke="#63b8ff" d="M1866.69,-170.42C1851.45,-160.81 1831.73,-148.37 1818.74,-140.17"/>
<polygon fill="#63b8ff" stroke="#63b8ff" points="1865.18,-173.61 1875.5,-175.98 1868.91,-167.69 1865.18,-173.61"/>
</g>
<!-- Node75&#45;&gt;Node53 -->
<g id="edge75" class="edge">
<title>Node75&#45;&gt;Node53</title>
<path fill="none" stroke="#63b8ff" d="M1675.62,-282.67C1646.91,-272.79 1606.64,-258.93 1580.94,-250.08"/>
<polygon fill="#63b8ff" stroke="#63b8ff" points="1674.66,-286.04 1685.26,-285.98 1676.94,-279.42 1674.66,-286.04"/>
</g>
<!-- Node75&#45;&gt;Node60 -->
<g id="edge77" class="edge">
<title>Node75&#45;&gt;Node60</title>
<path fill="none" stroke="#63b8ff" d="M1721.3,-277.39C1727.32,-268.27 1734.47,-257.45 1739.33,-250.09"/>
<polygon fill="#63b8ff" stroke="#63b8ff" points="1718.37,-275.47 1715.78,-285.75 1724.21,-279.33 1718.37,-275.47"/>
</g>
<!-- Node76 -->
<g id="node50" class="node">
<title>Node76</title>
<g id="a_node50"><a xlink:href="MouseStateProxy_8cpp.html" target="_top" xlink:title=" ">
<polygon fill="white" stroke="#666666" points="1930.5,-250 1809.5,-250 1809.5,-231 1930.5,-231 1930.5,-250"/>
<text text-anchor="middle" x="1870" y="-238" font-family="Helvetica,sans-Serif" font-size="10.00">MouseStateProxy.cpp</text>
</a>
</g>
</g>
<!-- Node75&#45;&gt;Node76 -->
<g id="edge76" class="edge">
<title>Node75&#45;&gt;Node76</title>
<path fill="none" stroke="#63b8ff" d="M1745.33,-282.8C1775.19,-272.91 1817.27,-258.97 1844.09,-250.08"/>
<polygon fill="#63b8ff" stroke="#63b8ff" points="1744.1,-279.52 1735.71,-285.98 1746.3,-286.16 1744.1,-279.52"/>
</g>
</g>
</svg>
