<?xml version="1.0" encoding="UTF-8" standalone="no"?>
<!DOCTYPE svg PUBLIC "-//W3C//DTD SVG 1.1//EN"
 "http://www.w3.org/Graphics/SVG/1.1/DTD/svg11.dtd">
<!-- Generated by graphviz version 2.43.0 (0)
 -->
<!-- Title: クラス階層図 Pages: 1 -->
<svg width="315pt" height="157pt"
 viewBox="0.00 0.00 315.00 156.50" xmlns="http://www.w3.org/2000/svg" xmlns:xlink="http://www.w3.org/1999/xlink">
<g id="graph0" class="graph" transform="scale(1 1) rotate(0) translate(4 152.5)">
<title>クラス階層図</title>
<!-- Node0 -->
<g id="node1" class="node">
<title>Node0</title>
<g id="a_node1"><a xlink:title=" ">
<polygon fill="#e0e0e0" stroke="#999999" points="122,-89 0,-89 0,-70 122,-70 122,-89"/>
<text text-anchor="middle" x="61" y="-77" font-family="Helvetica,sans-Serif" font-size="10.00">std::integral_constant</text>
</a>
</g>
</g>
<!-- Node1 -->
<g id="node2" class="node">
<title>Node1</title>
<g id="a_node2"><a xlink:href="structrefl_1_1trait_1_1index__of_3_01T_00_01type__list_3_01Ts_8_8_8_01_4_01_4.html" target="_top" xlink:title=" ">
<polygon fill="white" stroke="#666666" points="307,-148.5 158,-148.5 158,-118.5 307,-118.5 307,-148.5"/>
<text text-anchor="start" x="166" y="-136.5" font-family="Helvetica,sans-Serif" font-size="10.00">refl::trait::index</text>
<text text-anchor="middle" x="232.5" y="-125.5" font-family="Helvetica,sans-Serif" font-size="10.00">_of&lt; T, type_list&lt; Ts... &gt; &gt;</text>
</a>
</g>
</g>
<!-- Node0&#45;&gt;Node1 -->
<g id="edge1" class="edge">
<title>Node0&#45;&gt;Node1</title>
<path fill="none" stroke="#63b8ff" d="M101.68,-92.14C126.38,-100.01 158.29,-110.18 184.29,-118.46"/>
<polygon fill="#63b8ff" stroke="#63b8ff" points="102.5,-88.73 91.91,-89.03 100.38,-95.4 102.5,-88.73"/>
</g>
<!-- Node2 -->
<g id="node3" class="node">
<title>Node2</title>
<g id="a_node3"><a xlink:href="structrefl_1_1trait_1_1index__of__base_3_01T_00_01type__list_3_01Ts_8_8_8_01_4_01_4.html" target="_top" xlink:title=" ">
<polygon fill="white" stroke="#666666" points="295,-100 170,-100 170,-59 295,-59 295,-100"/>
<text text-anchor="start" x="178" y="-88" font-family="Helvetica,sans-Serif" font-size="10.00">refl::trait::index</text>
<text text-anchor="start" x="178" y="-77" font-family="Helvetica,sans-Serif" font-size="10.00">_of_base&lt; T, type_list</text>
<text text-anchor="middle" x="232.5" y="-66" font-family="Helvetica,sans-Serif" font-size="10.00">&lt; Ts... &gt; &gt;</text>
</a>
</g>
</g>
<!-- Node0&#45;&gt;Node2 -->
<g id="edge2" class="edge">
<title>Node0&#45;&gt;Node2</title>
<path fill="none" stroke="#63b8ff" d="M132.5,-79.5C144.86,-79.5 157.64,-79.5 169.74,-79.5"/>
<polygon fill="#63b8ff" stroke="#63b8ff" points="132.24,-76 122.24,-79.5 132.24,-83 132.24,-76"/>
</g>
<!-- Node3 -->
<g id="node4" class="node">
<title>Node3</title>
<g id="a_node4"><a xlink:href="structrefl_1_1trait_1_1index__of__instance_3_01T_00_01type__list_3_01Ts_8_8_8_01_4_01_4.html" target="_top" xlink:title=" ">
<polygon fill="white" stroke="#666666" points="294,-41 171,-41 171,0 294,0 294,-41"/>
<text text-anchor="start" x="179" y="-29" font-family="Helvetica,sans-Serif" font-size="10.00">refl::trait::index</text>
<text text-anchor="start" x="179" y="-18" font-family="Helvetica,sans-Serif" font-size="10.00">_of_instance&lt; T, type</text>
<text text-anchor="middle" x="232.5" y="-7" font-family="Helvetica,sans-Serif" font-size="10.00">_list&lt; Ts... &gt; &gt;</text>
</a>
</g>
</g>
<!-- Node0&#45;&gt;Node3 -->
<g id="edge3" class="edge">
<title>Node0&#45;&gt;Node3</title>
<path fill="none" stroke="#63b8ff" d="M99.29,-66.52C120.67,-59.08 148.01,-49.56 172.27,-41.12"/>
<polygon fill="#63b8ff" stroke="#63b8ff" points="97.9,-63.3 89.61,-69.89 100.21,-69.91 97.9,-63.3"/>
</g>
</g>
</svg>
