<?xml version="1.0" encoding="UTF-8" standalone="no"?>
<!DOCTYPE svg PUBLIC "-//W3C//DTD SVG 1.1//EN"
 "http://www.w3.org/Graphics/SVG/1.1/DTD/svg11.dtd">
<!-- Generated by graphviz version 2.43.0 (0)
 -->
<!-- Title: クラス階層図 Pages: 1 -->
<svg width="318pt" height="86pt"
 viewBox="0.00 0.00 318.00 86.00" xmlns="http://www.w3.org/2000/svg" xmlns:xlink="http://www.w3.org/1999/xlink">
<g id="graph0" class="graph" transform="scale(1 1) rotate(0) translate(4 82)">
<title>クラス階層図</title>
<!-- Node0 -->
<g id="node1" class="node">
<title>Node0</title>
<g id="a_node1"><a xlink:href="classrefl_1_1descriptor_1_1member__descriptor__base.html" target="_top" xlink:title="The base type for member descriptors.">
<polygon fill="white" stroke="#666666" points="141,-54 0,-54 0,-24 141,-24 141,-54"/>
<text text-anchor="start" x="8" y="-42" font-family="Helvetica,sans-Serif" font-size="10.00">refl::descriptor::member</text>
<text text-anchor="middle" x="70.5" y="-31" font-family="Helvetica,sans-Serif" font-size="10.00">_descriptor_base&lt; T, N &gt;</text>
</a>
</g>
</g>
<!-- Node1 -->
<g id="node2" class="node">
<title>Node1</title>
<g id="a_node2"><a xlink:href="classrefl_1_1descriptor_1_1field__descriptor.html" target="_top" xlink:title="Represents a reflected field.">
<polygon fill="white" stroke="#666666" points="300.5,-78 186.5,-78 186.5,-48 300.5,-48 300.5,-78"/>
<text text-anchor="start" x="194.5" y="-66" font-family="Helvetica,sans-Serif" font-size="10.00">refl::descriptor::field</text>
<text text-anchor="middle" x="243.5" y="-55" font-family="Helvetica,sans-Serif" font-size="10.00">_descriptor&lt; T, N &gt;</text>
</a>
</g>
</g>
<!-- Node0&#45;&gt;Node1 -->
<g id="edge1" class="edge">
<title>Node0&#45;&gt;Node1</title>
<path fill="none" stroke="#63b8ff" d="M151.02,-50.16C162.96,-51.84 175.05,-53.53 186.36,-55.12"/>
<polygon fill="#63b8ff" stroke="#63b8ff" points="151.44,-46.69 141.05,-48.76 150.47,-53.62 151.44,-46.69"/>
</g>
<!-- Node2 -->
<g id="node3" class="node">
<title>Node2</title>
<g id="a_node3"><a xlink:href="classrefl_1_1descriptor_1_1function__descriptor.html" target="_top" xlink:title="Represents a reflected function.">
<polygon fill="white" stroke="#666666" points="310,-30 177,-30 177,0 310,0 310,-30"/>
<text text-anchor="start" x="185" y="-18" font-family="Helvetica,sans-Serif" font-size="10.00">refl::descriptor::function</text>
<text text-anchor="middle" x="243.5" y="-7" font-family="Helvetica,sans-Serif" font-size="10.00">_descriptor&lt; T, N &gt;</text>
</a>
</g>
</g>
<!-- Node0&#45;&gt;Node2 -->
<g id="edge2" class="edge">
<title>Node0&#45;&gt;Node2</title>
<path fill="none" stroke="#63b8ff" d="M151.12,-27.83C159.74,-26.62 168.45,-25.39 176.88,-24.21"/>
<polygon fill="#63b8ff" stroke="#63b8ff" points="150.47,-24.38 141.05,-29.24 151.44,-31.31 150.47,-24.38"/>
</g>
</g>
</svg>
