<?xml version="1.0" encoding="UTF-8" standalone="no"?>
<!DOCTYPE svg PUBLIC "-//W3C//DTD SVG 1.1//EN"
 "http://www.w3.org/Graphics/SVG/1.1/DTD/svg11.dtd">
<!-- Generated by graphviz version 2.43.0 (0)
 -->
<!-- Title: InputKeyCode.h Pages: 1 -->
<svg width="2862pt" height="313pt"
 viewBox="0.00 0.00 2862.00 313.00" xmlns="http://www.w3.org/2000/svg" xmlns:xlink="http://www.w3.org/1999/xlink">
<g id="graph0" class="graph" transform="scale(1 1) rotate(0) translate(4 309)">
<title>InputKeyCode.h</title>
<!-- Node1 -->
<g id="node1" class="node">
<title>Node1</title>
<g id="a_node1"><a xlink:title=" ">
<polygon fill="#999999" stroke="#666666" points="1518.5,-305 1425.5,-305 1425.5,-286 1518.5,-286 1518.5,-305"/>
<text text-anchor="middle" x="1472" y="-293" font-family="Helvetica,sans-Serif" font-size="10.00">InputKeyCode.h</text>
</a>
</g>
</g>
<!-- Node2 -->
<g id="node2" class="node">
<title>Node2</title>
<g id="a_node2"><a xlink:href="InputData_8h.html" target="_top" xlink:title=" ">
<polygon fill="white" stroke="#666666" points="1509,-250 1435,-250 1435,-231 1509,-231 1509,-250"/>
<text text-anchor="middle" x="1472" y="-238" font-family="Helvetica,sans-Serif" font-size="10.00">InputData.h</text>
</a>
</g>
</g>
<!-- Node1&#45;&gt;Node2 -->
<g id="edge1" class="edge">
<title>Node1&#45;&gt;Node2</title>
<path fill="none" stroke="#63b8ff" d="M1472,-275.66C1472,-266.93 1472,-256.99 1472,-250.09"/>
<polygon fill="#63b8ff" stroke="#63b8ff" points="1468.5,-275.75 1472,-285.75 1475.5,-275.75 1468.5,-275.75"/>
</g>
<!-- Node3 -->
<g id="node3" class="node">
<title>Node3</title>
<g id="a_node3"><a xlink:href="ICamera_8cpp.html" target="_top" xlink:title=" ">
<polygon fill="white" stroke="#666666" points="996,-195 918,-195 918,-176 996,-176 996,-195"/>
<text text-anchor="middle" x="957" y="-183" font-family="Helvetica,sans-Serif" font-size="10.00">ICamera.cpp</text>
</a>
</g>
</g>
<!-- Node2&#45;&gt;Node3 -->
<g id="edge2" class="edge">
<title>Node2&#45;&gt;Node3</title>
<path fill="none" stroke="#63b8ff" d="M1424.92,-236.27C1340.52,-230.2 1158,-215.8 1005,-195 1002.15,-194.61 999.21,-194.18 996.25,-193.72"/>
<polygon fill="#63b8ff" stroke="#63b8ff" points="1424.73,-239.77 1434.95,-236.99 1425.23,-232.78 1424.73,-239.77"/>
</g>
<!-- Node4 -->
<g id="node4" class="node">
<title>Node4</title>
<g id="a_node4"><a xlink:href="ImGuiEditor_8cpp.html" target="_top" xlink:title=" ">
<polygon fill="white" stroke="#666666" points="1108,-195 1014,-195 1014,-176 1108,-176 1108,-195"/>
<text text-anchor="middle" x="1061" y="-183" font-family="Helvetica,sans-Serif" font-size="10.00">ImGuiEditor.cpp</text>
</a>
</g>
</g>
<!-- Node2&#45;&gt;Node4 -->
<g id="edge3" class="edge">
<title>Node2&#45;&gt;Node4</title>
<path fill="none" stroke="#63b8ff" d="M1424.93,-233.99C1356.9,-225.95 1227.17,-210.26 1117,-195 1114.08,-194.6 1111.07,-194.17 1108.04,-193.73"/>
<polygon fill="#63b8ff" stroke="#63b8ff" points="1424.56,-237.47 1434.91,-235.17 1425.38,-230.52 1424.56,-237.47"/>
</g>
<!-- Node5 -->
<g id="node5" class="node">
<title>Node5</title>
<g id="a_node5"><a xlink:href="ImGuiEditorCamera_8cpp.html" target="_top" xlink:title=" ">
<polygon fill="white" stroke="#666666" points="1259.5,-195 1126.5,-195 1126.5,-176 1259.5,-176 1259.5,-195"/>
<text text-anchor="middle" x="1193" y="-183" font-family="Helvetica,sans-Serif" font-size="10.00">ImGuiEditorCamera.cpp</text>
</a>
</g>
</g>
<!-- Node2&#45;&gt;Node5 -->
<g id="edge4" class="edge">
<title>Node2&#45;&gt;Node5</title>
<path fill="none" stroke="#63b8ff" d="M1424.96,-230.56C1372.84,-220.66 1289.38,-204.81 1238.06,-195.06"/>
<polygon fill="#63b8ff" stroke="#63b8ff" points="1424.47,-234.03 1434.95,-232.46 1425.78,-227.16 1424.47,-234.03"/>
</g>
<!-- Node6 -->
<g id="node6" class="node">
<title>Node6</title>
<g id="a_node6"><a xlink:href="ImGuizmoManipulator_8cpp.html" target="_top" xlink:title=" ">
<polygon fill="white" stroke="#666666" points="1422.5,-195 1277.5,-195 1277.5,-176 1422.5,-176 1422.5,-195"/>
<text text-anchor="middle" x="1350" y="-183" font-family="Helvetica,sans-Serif" font-size="10.00">ImGuizmoManipulator.cpp</text>
</a>
</g>
</g>
<!-- Node2&#45;&gt;Node6 -->
<g id="edge5" class="edge">
<title>Node2&#45;&gt;Node6</title>
<path fill="none" stroke="#63b8ff" d="M1442.99,-226.9C1420.46,-217.11 1389.8,-203.79 1369.96,-195.17"/>
<polygon fill="#63b8ff" stroke="#63b8ff" points="1441.83,-230.21 1452.4,-230.98 1444.62,-223.79 1441.83,-230.21"/>
</g>
<!-- Node7 -->
<g id="node7" class="node">
<title>Node7</title>
<g id="a_node7"><a xlink:href="Input_8cpp.html" target="_top" xlink:title=" ">
<polygon fill="white" stroke="#666666" points="1503,-195 1441,-195 1441,-176 1503,-176 1503,-195"/>
<text text-anchor="middle" x="1472" y="-183" font-family="Helvetica,sans-Serif" font-size="10.00">Input.cpp</text>
</a>
</g>
</g>
<!-- Node2&#45;&gt;Node7 -->
<g id="edge6" class="edge">
<title>Node2&#45;&gt;Node7</title>
<path fill="none" stroke="#63b8ff" d="M1472,-220.66C1472,-211.93 1472,-201.99 1472,-195.09"/>
<polygon fill="#63b8ff" stroke="#63b8ff" points="1468.5,-220.75 1472,-230.75 1475.5,-220.75 1468.5,-220.75"/>
</g>
<!-- Node8 -->
<g id="node8" class="node">
<title>Node8</title>
<g id="a_node8"><a xlink:href="InputData_8cpp.html" target="_top" xlink:title=" ">
<polygon fill="white" stroke="#666666" points="1606.5,-195 1521.5,-195 1521.5,-176 1606.5,-176 1606.5,-195"/>
<text text-anchor="middle" x="1564" y="-183" font-family="Helvetica,sans-Serif" font-size="10.00">InputData.cpp</text>
</a>
</g>
</g>
<!-- Node2&#45;&gt;Node8 -->
<g id="edge7" class="edge">
<title>Node2&#45;&gt;Node8</title>
<path fill="none" stroke="#63b8ff" d="M1495.49,-225.97C1512.31,-216.28 1534.45,-203.52 1548.95,-195.17"/>
<polygon fill="#63b8ff" stroke="#63b8ff" points="1493.7,-222.96 1486.78,-230.98 1497.19,-229.03 1493.7,-222.96"/>
</g>
<!-- Node9 -->
<g id="node9" class="node">
<title>Node9</title>
<g id="a_node9"><a xlink:href="InputResource_8cpp.html" target="_top" xlink:title=" ">
<polygon fill="white" stroke="#666666" points="1731.5,-195 1624.5,-195 1624.5,-176 1731.5,-176 1731.5,-195"/>
<text text-anchor="middle" x="1678" y="-183" font-family="Helvetica,sans-Serif" font-size="10.00">InputResource.cpp</text>
</a>
</g>
</g>
<!-- Node2&#45;&gt;Node9 -->
<g id="edge8" class="edge">
<title>Node2&#45;&gt;Node9</title>
<path fill="none" stroke="#63b8ff" d="M1515,-228.44C1553.56,-218.52 1609.36,-204.16 1644.64,-195.08"/>
<polygon fill="#63b8ff" stroke="#63b8ff" points="1513.91,-225.1 1505.1,-230.98 1515.65,-231.88 1513.91,-225.1"/>
</g>
<!-- Node10 -->
<g id="node10" class="node">
<title>Node10</title>
<g id="a_node10"><a xlink:href="SceneSystem_8cpp.html" target="_top" xlink:title=" ">
<polygon fill="white" stroke="#666666" points="1852.5,-195 1749.5,-195 1749.5,-176 1852.5,-176 1852.5,-195"/>
<text text-anchor="middle" x="1801" y="-183" font-family="Helvetica,sans-Serif" font-size="10.00">SceneSystem.cpp</text>
</a>
</g>
</g>
<!-- Node2&#45;&gt;Node10 -->
<g id="edge9" class="edge">
<title>Node2&#45;&gt;Node10</title>
<path fill="none" stroke="#63b8ff" d="M1519.24,-231.89C1580.33,-222.05 1686.38,-204.97 1749.49,-194.8"/>
<polygon fill="#63b8ff" stroke="#63b8ff" points="1518.42,-228.48 1509.1,-233.52 1519.53,-235.39 1518.42,-228.48"/>
</g>
<!-- Node11 -->
<g id="node11" class="node">
<title>Node11</title>
<g id="a_node11"><a xlink:href="mtgb_8h.html" target="_top" xlink:title=" ">
<polygon fill="white" stroke="#666666" points="1921.5,-195 1870.5,-195 1870.5,-176 1921.5,-176 1921.5,-195"/>
<text text-anchor="middle" x="1896" y="-183" font-family="Helvetica,sans-Serif" font-size="10.00">mtgb.h</text>
</a>
</g>
</g>
<!-- Node2&#45;&gt;Node11 -->
<g id="edge10" class="edge">
<title>Node2&#45;&gt;Node11</title>
<path fill="none" stroke="#63b8ff" d="M1519.55,-235.98C1593.13,-230.1 1738.85,-216.73 1861,-195 1864.08,-194.45 1867.29,-193.79 1870.46,-193.09"/>
<polygon fill="#63b8ff" stroke="#63b8ff" points="1518.93,-232.52 1509.23,-236.79 1519.48,-239.49 1518.93,-232.52"/>
</g>
<!-- Node12 -->
<g id="node12" class="node">
<title>Node12</title>
<g id="a_node12"><a xlink:href="Box3D_8h.html" target="_top" xlink:title=" ">
<polygon fill="white" stroke="#666666" points="341,-140 283,-140 283,-121 341,-121 341,-140"/>
<text text-anchor="middle" x="312" y="-128" font-family="Helvetica,sans-Serif" font-size="10.00">Box3D.h</text>
</a>
</g>
</g>
<!-- Node11&#45;&gt;Node12 -->
<g id="edge11" class="edge">
<title>Node11&#45;&gt;Node12</title>
<path fill="none" stroke="#63b8ff" d="M1859.94,-176.24C1542.75,-136.17 792.07,-151.1 491,-140 438.15,-138.05 376.55,-134.94 341.14,-133.07"/>
<polygon fill="#63b8ff" stroke="#63b8ff" points="1859.75,-179.75 1870.12,-177.57 1860.66,-172.81 1859.75,-179.75"/>
</g>
<!-- Node16 -->
<g id="node16" class="node">
<title>Node16</title>
<g id="a_node16"><a xlink:href="Camera_8h.html" target="_top" xlink:title=" ">
<polygon fill="white" stroke="#666666" points="678,-140 614,-140 614,-121 678,-121 678,-140"/>
<text text-anchor="middle" x="646" y="-128" font-family="Helvetica,sans-Serif" font-size="10.00">Camera.h</text>
</a>
</g>
</g>
<!-- Node11&#45;&gt;Node16 -->
<g id="edge15" class="edge">
<title>Node11&#45;&gt;Node16</title>
<path fill="none" stroke="#63b8ff" d="M1860.2,-176.23C1414.31,-115.3 1296.55,-157.18 851,-140 789.96,-137.65 718.7,-134.63 678.31,-132.9"/>
<polygon fill="#63b8ff" stroke="#63b8ff" points="1859.73,-179.7 1870.12,-177.6 1860.69,-172.77 1859.73,-179.7"/>
</g>
<!-- Node19 -->
<g id="node19" class="node">
<title>Node19</title>
<g id="a_node19"><a xlink:href="Player_8h.html" target="_top" xlink:title=" ">
<polygon fill="white" stroke="#666666" points="488,-79.5 432,-79.5 432,-60.5 488,-60.5 488,-79.5"/>
<text text-anchor="middle" x="460" y="-67.5" font-family="Helvetica,sans-Serif" font-size="10.00">Player.h</text>
</a>
</g>
</g>
<!-- Node11&#45;&gt;Node19 -->
<g id="edge40" class="edge">
<title>Node11&#45;&gt;Node19</title>
<path fill="none" stroke="#63b8ff" d="M1859.9,-176.26C1567.73,-140.39 873.28,-204.63 605,-140 553.23,-127.53 498,-95.26 473.28,-79.67"/>
<polygon fill="#63b8ff" stroke="#63b8ff" points="1859.76,-179.77 1870.12,-177.58 1860.65,-172.82 1859.76,-179.77"/>
</g>
<!-- Node22 -->
<g id="node22" class="node">
<title>Node22</title>
<g id="a_node22"><a xlink:href="TitleScene_8cpp.html" target="_top" xlink:title=" ">
<polygon fill="white" stroke="#666666" points="726,-79.5 638,-79.5 638,-60.5 726,-60.5 726,-79.5"/>
<text text-anchor="middle" x="682" y="-67.5" font-family="Helvetica,sans-Serif" font-size="10.00">TitleScene.cpp</text>
</a>
</g>
</g>
<!-- Node11&#45;&gt;Node22 -->
<g id="edge60" class="edge">
<title>Node11&#45;&gt;Node22</title>
<path fill="none" stroke="#63b8ff" d="M1860.38,-176.28C1482.6,-123.96 1380.25,-185.43 1006,-140 896.95,-126.76 770.27,-94.87 712.97,-79.53"/>
<polygon fill="#63b8ff" stroke="#63b8ff" points="1860.11,-179.77 1870.5,-177.69 1861.08,-172.84 1860.11,-179.77"/>
</g>
<!-- Node23 -->
<g id="node23" class="node">
<title>Node23</title>
<g id="a_node23"><a xlink:href="GameOverZone_8h.html" target="_top" xlink:title=" ">
<polygon fill="white" stroke="#666666" points="1425.5,-140 1322.5,-140 1322.5,-121 1425.5,-121 1425.5,-140"/>
<text text-anchor="middle" x="1374" y="-128" font-family="Helvetica,sans-Serif" font-size="10.00">GameOverZone.h</text>
</a>
</g>
</g>
<!-- Node11&#45;&gt;Node23 -->
<g id="edge23" class="edge">
<title>Node11&#45;&gt;Node23</title>
<path fill="none" stroke="#63b8ff" d="M1860.49,-176.32C1790.11,-166.56 1535.86,-144.99 1425.52,-135.77"/>
<polygon fill="#63b8ff" stroke="#63b8ff" points="1860.06,-179.8 1870.48,-177.84 1861.11,-172.88 1860.06,-179.8"/>
</g>
<!-- Node25 -->
<g id="node25" class="node">
<title>Node25</title>
<g id="a_node25"><a xlink:href="Goal_8h.html" target="_top" xlink:title=" ">
<polygon fill="white" stroke="#666666" points="1681,-140 1633,-140 1633,-121 1681,-121 1681,-140"/>
<text text-anchor="middle" x="1657" y="-128" font-family="Helvetica,sans-Serif" font-size="10.00">Goal.h</text>
</a>
</g>
</g>
<!-- Node11&#45;&gt;Node25 -->
<g id="edge26" class="edge">
<title>Node11&#45;&gt;Node25</title>
<path fill="none" stroke="#63b8ff" d="M1860.25,-175.9C1783.55,-158.71 1762.52,-156.97 1690,-140 1687.12,-139.33 1684.11,-138.59 1681.12,-137.85"/>
<polygon fill="#63b8ff" stroke="#63b8ff" points="1859.88,-179.4 1870.41,-178.19 1861.42,-172.57 1859.88,-179.4"/>
</g>
<!-- Node27 -->
<g id="node27" class="node">
<title>Node27</title>
<g id="a_node27"><a xlink:href="HighlightEnemy_8h.html" target="_top" xlink:title=" ">
<polygon fill="white" stroke="#666666" points="2156,-140 2054,-140 2054,-121 2156,-121 2156,-140"/>
<text text-anchor="middle" x="2105" y="-128" font-family="Helvetica,sans-Serif" font-size="10.00">HighlightEnemy.h</text>
</a>
</g>
</g>
<!-- Node11&#45;&gt;Node27 -->
<g id="edge29" class="edge">
<title>Node11&#45;&gt;Node27</title>
<path fill="none" stroke="#63b8ff" d="M1931.51,-175.5C1970.56,-165.59 2032.85,-149.8 2071.2,-140.07"/>
<polygon fill="#63b8ff" stroke="#63b8ff" points="1930.46,-172.15 1921.63,-178 1932.18,-178.94 1930.46,-172.15"/>
</g>
<!-- Node29 -->
<g id="node29" class="node">
<title>Node29</title>
<g id="a_node29"><a xlink:href="Model_8cpp.html" target="_top" xlink:title=" ">
<polygon fill="white" stroke="#666666" points="2241.5,-140 2174.5,-140 2174.5,-121 2241.5,-121 2241.5,-140"/>
<text text-anchor="middle" x="2208" y="-128" font-family="Helvetica,sans-Serif" font-size="10.00">Model.cpp</text>
</a>
</g>
</g>
<!-- Node11&#45;&gt;Node29 -->
<g id="edge31" class="edge">
<title>Node11&#45;&gt;Node29</title>
<path fill="none" stroke="#63b8ff" d="M1931.61,-178.97C1983.16,-170.89 2081.56,-155.15 2165,-140 2167.99,-139.46 2171.1,-138.88 2174.22,-138.28"/>
<polygon fill="#63b8ff" stroke="#63b8ff" points="1930.98,-175.53 1921.64,-180.53 1932.06,-182.44 1930.98,-175.53"/>
</g>
<!-- Node30 -->
<g id="node30" class="node">
<title>Node30</title>
<g id="a_node30"><a xlink:href="MovingFloor_8h.html" target="_top" xlink:title=" ">
<polygon fill="white" stroke="#666666" points="1101,-140 1015,-140 1015,-121 1101,-121 1101,-140"/>
<text text-anchor="middle" x="1058" y="-128" font-family="Helvetica,sans-Serif" font-size="10.00">MovingFloor.h</text>
</a>
</g>
</g>
<!-- Node11&#45;&gt;Node30 -->
<g id="edge32" class="edge">
<title>Node11&#45;&gt;Node30</title>
<path fill="none" stroke="#63b8ff" d="M1860.37,-176.28C1693.25,-153.34 1242.47,-137.43 1101.01,-132.84"/>
<polygon fill="#63b8ff" stroke="#63b8ff" points="1860.1,-179.78 1870.49,-177.73 1861.09,-172.85 1860.1,-179.78"/>
</g>
<!-- Node34 -->
<g id="node34" class="node">
<title>Node34</title>
<g id="a_node34"><a xlink:href="PatrolChargerEnemy_8h.html" target="_top" xlink:title=" ">
<polygon fill="white" stroke="#666666" points="1615,-140 1491,-140 1491,-121 1615,-121 1615,-140"/>
<text text-anchor="middle" x="1553" y="-128" font-family="Helvetica,sans-Serif" font-size="10.00">PatrolChargerEnemy.h</text>
</a>
</g>
</g>
<!-- Node11&#45;&gt;Node34 -->
<g id="edge37" class="edge">
<title>Node11&#45;&gt;Node34</title>
<path fill="none" stroke="#63b8ff" d="M1860.43,-176.1C1801.36,-165.24 1687,-149.45 1615.32,-139.79"/>
<polygon fill="#63b8ff" stroke="#63b8ff" points="1859.97,-179.57 1870.45,-178 1861.27,-172.7 1859.97,-179.57"/>
</g>
<!-- Node36 -->
<g id="node36" class="node">
<title>Node36</title>
<g id="a_node36"><a xlink:href="SampleGame_8h.html" target="_top" xlink:title=" ">
<polygon fill="white" stroke="#666666" points="1905,-140 1813,-140 1813,-121 1905,-121 1905,-140"/>
<text text-anchor="middle" x="1859" y="-128" font-family="Helvetica,sans-Serif" font-size="10.00">SampleGame.h</text>
</a>
</g>
</g>
<!-- Node11&#45;&gt;Node36 -->
<g id="edge41" class="edge">
<title>Node11&#45;&gt;Node36</title>
<path fill="none" stroke="#63b8ff" d="M1884.05,-167.39C1877.69,-158.27 1870.13,-147.45 1865,-140.09"/>
<polygon fill="#63b8ff" stroke="#63b8ff" points="1881.3,-169.55 1889.89,-175.75 1887.04,-165.55 1881.3,-169.55"/>
</g>
<!-- Node38 -->
<g id="node38" class="node">
<title>Node38</title>
<g id="a_node38"><a xlink:href="Source_2TheMain_8cpp.html" target="_top" xlink:title=" ">
<polygon fill="white" stroke="#666666" points="2081.5,-79.5 2002.5,-79.5 2002.5,-60.5 2081.5,-60.5 2081.5,-79.5"/>
<text text-anchor="middle" x="2042" y="-67.5" font-family="Helvetica,sans-Serif" font-size="10.00">TheMain.cpp</text>
</a>
</g>
</g>
<!-- Node11&#45;&gt;Node38 -->
<g id="edge58" class="edge">
<title>Node11&#45;&gt;Node38</title>
<path fill="none" stroke="#63b8ff" d="M1908.17,-167.77C1918.7,-154.07 1934.9,-134.76 1952,-121 1974,-103.29 2003.13,-88.4 2022.2,-79.59"/>
<polygon fill="#63b8ff" stroke="#63b8ff" points="1905.3,-165.75 1902.11,-175.85 1910.91,-169.95 1905.3,-165.75"/>
</g>
<!-- Node39 -->
<g id="node39" class="node">
<title>Node39</title>
<g id="a_node39"><a xlink:href="SampleScene_8cpp.html" target="_top" xlink:title=" ">
<polygon fill="white" stroke="#666666" points="2362.5,-140 2259.5,-140 2259.5,-121 2362.5,-121 2362.5,-140"/>
<text text-anchor="middle" x="2311" y="-128" font-family="Helvetica,sans-Serif" font-size="10.00">SampleScene.cpp</text>
</a>
</g>
</g>
<!-- Node11&#45;&gt;Node39 -->
<g id="edge44" class="edge">
<title>Node11&#45;&gt;Node39</title>
<path fill="none" stroke="#63b8ff" d="M1931.74,-180.17C1995.64,-172.39 2133.67,-155.42 2250,-140 2253.07,-139.59 2256.23,-139.17 2259.42,-138.74"/>
<polygon fill="#63b8ff" stroke="#63b8ff" points="1931.28,-176.7 1921.78,-181.38 1932.13,-183.65 1931.28,-176.7"/>
</g>
<!-- Node40 -->
<g id="node40" class="node">
<title>Node40</title>
<g id="a_node40"><a xlink:href="ScoreItem_8h.html" target="_top" xlink:title=" ">
<polygon fill="white" stroke="#666666" points="2036.5,-140 1961.5,-140 1961.5,-121 2036.5,-121 2036.5,-140"/>
<text text-anchor="middle" x="1999" y="-128" font-family="Helvetica,sans-Serif" font-size="10.00">ScoreItem.h</text>
</a>
</g>
</g>
<!-- Node11&#45;&gt;Node40 -->
<g id="edge45" class="edge">
<title>Node11&#45;&gt;Node40</title>
<path fill="none" stroke="#63b8ff" d="M1921.52,-171.37C1940.44,-161.63 1965.7,-148.64 1982.15,-140.17"/>
<polygon fill="#63b8ff" stroke="#63b8ff" points="1919.84,-168.3 1912.55,-175.98 1923.04,-174.52 1919.84,-168.3"/>
</g>
<!-- Node42 -->
<g id="node42" class="node">
<title>Node42</title>
<g id="a_node42"><a xlink:href="ScoreViewer_8h.html" target="_top" xlink:title=" ">
<polygon fill="white" stroke="#666666" points="2467,-140 2381,-140 2381,-121 2467,-121 2467,-140"/>
<text text-anchor="middle" x="2424" y="-128" font-family="Helvetica,sans-Serif" font-size="10.00">ScoreViewer.h</text>
</a>
</g>
</g>
<!-- Node11&#45;&gt;Node42 -->
<g id="edge48" class="edge">
<title>Node11&#45;&gt;Node42</title>
<path fill="none" stroke="#63b8ff" d="M1931.97,-181.94C2011.37,-176.11 2207.57,-160.74 2371,-140 2374.24,-139.59 2377.58,-139.13 2380.94,-138.65"/>
<polygon fill="#63b8ff" stroke="#63b8ff" points="1931.27,-178.48 1921.55,-182.7 1931.78,-185.46 1931.27,-178.48"/>
</g>
<!-- Node44 -->
<g id="node44" class="node">
<title>Node44</title>
<g id="a_node44"><a xlink:href="StageEditScene_8cpp.html" target="_top" xlink:title=" ">
<polygon fill="white" stroke="#666666" points="2598.5,-140 2485.5,-140 2485.5,-121 2598.5,-121 2598.5,-140"/>
<text text-anchor="middle" x="2542" y="-128" font-family="Helvetica,sans-Serif" font-size="10.00">StageEditScene.cpp</text>
</a>
</g>
</g>
<!-- Node11&#45;&gt;Node44 -->
<g id="edge50" class="edge">
<title>Node11&#45;&gt;Node44</title>
<path fill="none" stroke="#63b8ff" d="M1931.83,-182.4C2022.87,-176.91 2270.41,-161.11 2476,-140 2479.1,-139.68 2482.29,-139.34 2485.5,-138.97"/>
<polygon fill="#63b8ff" stroke="#63b8ff" points="1931.54,-178.91 1921.77,-183 1931.96,-185.89 1931.54,-178.91"/>
</g>
<!-- Node45 -->
<g id="node45" class="node">
<title>Node45</title>
<g id="a_node45"><a xlink:href="StageManager_8h.html" target="_top" xlink:title=" ">
<polygon fill="white" stroke="#666666" points="1794.5,-140 1699.5,-140 1699.5,-121 1794.5,-121 1794.5,-140"/>
<text text-anchor="middle" x="1747" y="-128" font-family="Helvetica,sans-Serif" font-size="10.00">StageManager.h</text>
</a>
</g>
</g>
<!-- Node11&#45;&gt;Node45 -->
<g id="edge51" class="edge">
<title>Node11&#45;&gt;Node45</title>
<path fill="none" stroke="#63b8ff" d="M1862.41,-172.55C1834.74,-162.71 1796.16,-148.98 1771.38,-140.17"/>
<polygon fill="#63b8ff" stroke="#63b8ff" points="1861.47,-175.93 1872.06,-175.98 1863.81,-169.34 1861.47,-175.93"/>
</g>
<!-- Node47 -->
<g id="node47" class="node">
<title>Node47</title>
<g id="a_node47"><a xlink:href="TextBox_8h.html" target="_top" xlink:title=" ">
<polygon fill="white" stroke="#666666" points="2681.5,-140 2616.5,-140 2616.5,-121 2681.5,-121 2681.5,-140"/>
<text text-anchor="middle" x="2649" y="-128" font-family="Helvetica,sans-Serif" font-size="10.00">TextBox.h</text>
</a>
</g>
</g>
<!-- Node11&#45;&gt;Node47 -->
<g id="edge56" class="edge">
<title>Node11&#45;&gt;Node47</title>
<path fill="none" stroke="#63b8ff" d="M1931.68,-184.06C2036.14,-182.38 2350.18,-174.6 2608,-140 2610.74,-139.63 2613.57,-139.19 2616.4,-138.69"/>
<polygon fill="#63b8ff" stroke="#63b8ff" points="1931.62,-180.56 1921.67,-184.21 1931.72,-187.56 1931.62,-180.56"/>
</g>
<!-- Node49 -->
<g id="node49" class="node">
<title>Node49</title>
<g id="a_node49"><a xlink:href="TimeLimit_8h.html" target="_top" xlink:title=" ">
<polygon fill="#fff0f0" stroke="red" points="2774.5,-140 2699.5,-140 2699.5,-121 2774.5,-121 2774.5,-140"/>
<text text-anchor="middle" x="2737" y="-128" font-family="Helvetica,sans-Serif" font-size="10.00">TimeLimit.h</text>
</a>
</g>
</g>
<!-- Node11&#45;&gt;Node49 -->
<g id="edge59" class="edge">
<title>Node11&#45;&gt;Node49</title>
<path fill="none" stroke="#63b8ff" d="M1931.58,-184.11C2043.63,-182.56 2399.14,-174.99 2691,-140 2693.74,-139.67 2696.57,-139.28 2699.4,-138.85"/>
<polygon fill="#63b8ff" stroke="#63b8ff" points="1931.45,-180.62 1921.5,-184.25 1931.55,-187.61 1931.45,-180.62"/>
</g>
<!-- Node51 -->
<g id="node50" class="node">
<title>Node51</title>
<g id="a_node50"><a xlink:href="mtgb_8cpp.html" target="_top" xlink:title=" ">
<polygon fill="white" stroke="#666666" points="2854,-140 2792,-140 2792,-121 2854,-121 2854,-140"/>
<text text-anchor="middle" x="2823" y="-128" font-family="Helvetica,sans-Serif" font-size="10.00">mtgb.cpp</text>
</a>
</g>
</g>
<!-- Node11&#45;&gt;Node51 -->
<g id="edge61" class="edge">
<title>Node11&#45;&gt;Node51</title>
<path fill="none" stroke="#63b8ff" d="M1931.7,-184.81C2052.25,-185.41 2455.01,-183.79 2784,-140 2786.47,-139.67 2789.02,-139.27 2791.58,-138.81"/>
<polygon fill="#63b8ff" stroke="#63b8ff" points="1931.59,-181.31 1921.57,-184.75 1931.55,-188.31 1931.59,-181.31"/>
</g>
<!-- Node13 -->
<g id="node13" class="node">
<title>Node13</title>
<g id="a_node13"><a xlink:href="Box3D_8cpp.html" target="_top" xlink:title=" ">
<polygon fill="white" stroke="#666666" points="413.5,-79.5 344.5,-79.5 344.5,-60.5 413.5,-60.5 413.5,-79.5"/>
<text text-anchor="middle" x="379" y="-67.5" font-family="Helvetica,sans-Serif" font-size="10.00">Box3D.cpp</text>
</a>
</g>
</g>
<!-- Node12&#45;&gt;Node13 -->
<g id="edge12" class="edge">
<title>Node12&#45;&gt;Node13</title>
<path fill="none" stroke="#63b8ff" d="M329.5,-114.22C342.1,-103.21 358.67,-88.75 369.07,-79.67"/>
<polygon fill="#63b8ff" stroke="#63b8ff" points="327.12,-111.65 321.89,-120.87 331.72,-116.93 327.12,-111.65"/>
</g>
<!-- Node14 -->
<g id="node14" class="node">
<title>Node14</title>
<g id="a_node14"><a xlink:href="GameObjectGenerator_8cpp.html" target="_top" xlink:title=" ">
<polygon fill="white" stroke="#666666" points="146,-79.5 0,-79.5 0,-60.5 146,-60.5 146,-79.5"/>
<text text-anchor="middle" x="73" y="-67.5" font-family="Helvetica,sans-Serif" font-size="10.00">GameObjectGenerator.cpp</text>
</a>
</g>
</g>
<!-- Node12&#45;&gt;Node14 -->
<g id="edge13" class="edge">
<title>Node12&#45;&gt;Node14</title>
<path fill="none" stroke="#63b8ff" d="M272.83,-119.91C227.03,-108.7 151.9,-90.31 107.98,-79.56"/>
<polygon fill="#63b8ff" stroke="#63b8ff" points="272.15,-123.35 282.69,-122.33 273.81,-116.55 272.15,-123.35"/>
</g>
<!-- Node15 -->
<g id="node15" class="node">
<title>Node15</title>
<g id="a_node15"><a xlink:href="RegisterCommonGameObjectType_8cpp.html" target="_top" xlink:title=" ">
<polygon fill="white" stroke="#666666" points="326,-85 164,-85 164,-55 326,-55 326,-85"/>
<text text-anchor="start" x="172" y="-73" font-family="Helvetica,sans-Serif" font-size="10.00">RegisterCommonGameObject</text>
<text text-anchor="middle" x="245" y="-62" font-family="Helvetica,sans-Serif" font-size="10.00">Type.cpp</text>
</a>
</g>
</g>
<!-- Node12&#45;&gt;Node15 -->
<g id="edge14" class="edge">
<title>Node12&#45;&gt;Node15</title>
<path fill="none" stroke="#63b8ff" d="M294.52,-114.23C284.2,-105.23 271.24,-93.91 261.17,-85.11"/>
<polygon fill="#63b8ff" stroke="#63b8ff" points="292.28,-116.93 302.11,-120.87 296.88,-111.65 292.28,-116.93"/>
</g>
<!-- Node17 -->
<g id="node17" class="node">
<title>Node17</title>
<g id="a_node17"><a xlink:href="Camera_8cpp.html" target="_top" xlink:title=" ">
<polygon fill="white" stroke="#666666" points="581.5,-79.5 506.5,-79.5 506.5,-60.5 581.5,-60.5 581.5,-79.5"/>
<text text-anchor="middle" x="544" y="-67.5" font-family="Helvetica,sans-Serif" font-size="10.00">Camera.cpp</text>
</a>
</g>
</g>
<!-- Node16&#45;&gt;Node17 -->
<g id="edge16" class="edge">
<title>Node16&#45;&gt;Node17</title>
<path fill="none" stroke="#63b8ff" d="M622.06,-115.77C602.59,-104.6 575.71,-89.19 559.11,-79.67"/>
<polygon fill="#63b8ff" stroke="#63b8ff" points="620.53,-118.93 630.95,-120.87 624.02,-112.86 620.53,-118.93"/>
</g>
<!-- Node18 -->
<g id="node18" class="node">
<title>Node18</title>
<g id="a_node18"><a xlink:href="Player_8cpp.html" target="_top" xlink:title=" ">
<polygon fill="white" stroke="#666666" points="568.5,-19 501.5,-19 501.5,0 568.5,0 568.5,-19"/>
<text text-anchor="middle" x="535" y="-7" font-family="Helvetica,sans-Serif" font-size="10.00">Player.cpp</text>
</a>
</g>
</g>
<!-- Node16&#45;&gt;Node18 -->
<g id="edge17" class="edge">
<title>Node16&#45;&gt;Node18</title>
<path fill="none" stroke="#63b8ff" d="M634.66,-111.99C624.06,-96.26 607.31,-72.93 590,-55 576.7,-41.21 559.18,-27.7 547.53,-19.25"/>
<polygon fill="#63b8ff" stroke="#63b8ff" points="631.98,-114.28 640.42,-120.69 637.82,-110.42 631.98,-114.28"/>
</g>
<!-- Node16&#45;&gt;Node19 -->
<g id="edge18" class="edge">
<title>Node16&#45;&gt;Node19</title>
<path fill="none" stroke="#63b8ff" d="M605.25,-118.18C575.16,-109.62 533.31,-97.27 497,-85 492.06,-83.33 486.79,-81.42 481.82,-79.55"/>
<polygon fill="#63b8ff" stroke="#63b8ff" points="604.4,-121.58 614.98,-120.93 606.31,-114.84 604.4,-121.58"/>
</g>
<!-- Node21 -->
<g id="node21" class="node">
<title>Node21</title>
<g id="a_node21"><a xlink:href="ResultScene_8cpp.html" target="_top" xlink:title=" ">
<polygon fill="white" stroke="#666666" points="1298.5,-79.5 1201.5,-79.5 1201.5,-60.5 1298.5,-60.5 1298.5,-79.5"/>
<text text-anchor="middle" x="1250" y="-67.5" font-family="Helvetica,sans-Serif" font-size="10.00">ResultScene.cpp</text>
</a>
</g>
</g>
<!-- Node16&#45;&gt;Node21 -->
<g id="edge21" class="edge">
<title>Node16&#45;&gt;Node21</title>
<path fill="none" stroke="#63b8ff" d="M688.34,-125.61C770.58,-118.02 957.69,-100.62 1115,-85 1143.61,-82.16 1175.61,-78.85 1201.27,-76.16"/>
<polygon fill="#63b8ff" stroke="#63b8ff" points="687.77,-122.14 678.14,-126.55 688.42,-129.12 687.77,-122.14"/>
</g>
<!-- Node16&#45;&gt;Node22 -->
<g id="edge22" class="edge">
<title>Node16&#45;&gt;Node22</title>
<path fill="none" stroke="#63b8ff" d="M656.58,-112.3C663.18,-101.58 671.39,-88.23 676.67,-79.67"/>
<polygon fill="#63b8ff" stroke="#63b8ff" points="653.57,-110.52 651.31,-120.87 659.53,-114.19 653.57,-110.52"/>
</g>
<!-- Node19&#45;&gt;Node18 -->
<g id="edge19" class="edge">
<title>Node19&#45;&gt;Node18</title>
<path fill="none" stroke="#63b8ff" d="M479.18,-54.04C493.35,-42.99 512.13,-28.34 523.89,-19.17"/>
<polygon fill="#63b8ff" stroke="#63b8ff" points="476.8,-51.46 471.07,-60.37 481.1,-56.98 476.8,-51.46"/>
</g>
<!-- Node20 -->
<g id="node20" class="node">
<title>Node20</title>
<g id="a_node20"><a xlink:href="RegisterGameObjectType_8cpp.html" target="_top" xlink:title=" ">
<polygon fill="white" stroke="#666666" points="1396.5,-19 1235.5,-19 1235.5,0 1396.5,0 1396.5,-19"/>
<text text-anchor="middle" x="1316" y="-7" font-family="Helvetica,sans-Serif" font-size="10.00">RegisterGameObjectType.cpp</text>
</a>
</g>
</g>
<!-- Node19&#45;&gt;Node20 -->
<g id="edge20" class="edge">
<title>Node19&#45;&gt;Node20</title>
<path fill="none" stroke="#63b8ff" d="M488.86,-57.12C491.58,-56.29 494.32,-55.57 497,-55 636.24,-25.61 1057.31,-14.99 1235.24,-11.74"/>
<polygon fill="#63b8ff" stroke="#63b8ff" points="487.56,-53.87 479.25,-60.44 489.84,-60.48 487.56,-53.87"/>
</g>
<!-- Node23&#45;&gt;Node20 -->
<g id="edge25" class="edge">
<title>Node23&#45;&gt;Node20</title>
<path fill="none" stroke="#63b8ff" d="M1312.21,-122.55C1265.47,-115.87 1206.88,-103.95 1192,-85 1165.95,-51.81 1227.49,-30.1 1272.88,-19.09"/>
<polygon fill="#63b8ff" stroke="#63b8ff" points="1311.91,-126.04 1322.29,-123.94 1312.86,-119.11 1311.91,-126.04"/>
</g>
<!-- Node24 -->
<g id="node24" class="node">
<title>Node24</title>
<g id="a_node24"><a xlink:href="GameOverZone_8cpp.html" target="_top" xlink:title=" ">
<polygon fill="white" stroke="#666666" points="1431,-79.5 1317,-79.5 1317,-60.5 1431,-60.5 1431,-79.5"/>
<text text-anchor="middle" x="1374" y="-67.5" font-family="Helvetica,sans-Serif" font-size="10.00">GameOverZone.cpp</text>
</a>
</g>
</g>
<!-- Node23&#45;&gt;Node24 -->
<g id="edge24" class="edge">
<title>Node23&#45;&gt;Node24</title>
<path fill="none" stroke="#63b8ff" d="M1374,-110.66C1374,-100.24 1374,-87.8 1374,-79.67"/>
<polygon fill="#63b8ff" stroke="#63b8ff" points="1370.5,-110.87 1374,-120.87 1377.5,-110.87 1370.5,-110.87"/>
</g>
<!-- Node25&#45;&gt;Node20 -->
<g id="edge28" class="edge">
<title>Node25&#45;&gt;Node20</title>
<path fill="none" stroke="#63b8ff" d="M1655.82,-110.98C1653.67,-93.74 1647.67,-68.7 1631,-55 1596.22,-26.43 1478.02,-16.2 1396.74,-12.54"/>
<polygon fill="#63b8ff" stroke="#63b8ff" points="1652.34,-111.36 1656.75,-120.99 1659.31,-110.71 1652.34,-111.36"/>
</g>
<!-- Node26 -->
<g id="node26" class="node">
<title>Node26</title>
<g id="a_node26"><a xlink:href="Goal_8cpp.html" target="_top" xlink:title=" ">
<polygon fill="white" stroke="#666666" points="1738.5,-79.5 1679.5,-79.5 1679.5,-60.5 1738.5,-60.5 1738.5,-79.5"/>
<text text-anchor="middle" x="1709" y="-67.5" font-family="Helvetica,sans-Serif" font-size="10.00">Goal.cpp</text>
</a>
</g>
</g>
<!-- Node25&#45;&gt;Node26 -->
<g id="edge27" class="edge">
<title>Node25&#45;&gt;Node26</title>
<path fill="none" stroke="#63b8ff" d="M1671.43,-113.27C1681.1,-102.39 1693.45,-88.49 1701.3,-79.67"/>
<polygon fill="#63b8ff" stroke="#63b8ff" points="1668.7,-111.07 1664.67,-120.87 1673.93,-115.72 1668.7,-111.07"/>
</g>
<!-- Node28 -->
<g id="node28" class="node">
<title>Node28</title>
<g id="a_node28"><a xlink:href="HighlightEnemy_8cpp.html" target="_top" xlink:title=" ">
<polygon fill="white" stroke="#666666" points="2355.5,-79.5 2242.5,-79.5 2242.5,-60.5 2355.5,-60.5 2355.5,-79.5"/>
<text text-anchor="middle" x="2299" y="-67.5" font-family="Helvetica,sans-Serif" font-size="10.00">HighlightEnemy.cpp</text>
</a>
</g>
</g>
<!-- Node27&#45;&gt;Node28 -->
<g id="edge30" class="edge">
<title>Node27&#45;&gt;Node28</title>
<path fill="none" stroke="#63b8ff" d="M2143.26,-117.96C2180.78,-106.65 2237.12,-89.66 2270.76,-79.52"/>
<polygon fill="#63b8ff" stroke="#63b8ff" points="2141.77,-114.76 2133.21,-120.99 2143.79,-121.46 2141.77,-114.76"/>
</g>
<!-- Node30&#45;&gt;Node20 -->
<g id="edge36" class="edge">
<title>Node30&#45;&gt;Node20</title>
<path fill="none" stroke="#63b8ff" d="M1078.47,-115.27C1102.44,-99.07 1143.76,-72.58 1182,-55 1215.63,-39.54 1256.21,-26.84 1283.84,-19.02"/>
<polygon fill="#63b8ff" stroke="#63b8ff" points="1076.46,-112.41 1070.17,-120.94 1080.4,-118.19 1076.46,-112.41"/>
</g>
<!-- Node31 -->
<g id="node31" class="node">
<title>Node31</title>
<g id="a_node31"><a xlink:href="MTImGui_8cpp.html" target="_top" xlink:title=" ">
<polygon fill="white" stroke="#666666" points="991.5,-79.5 910.5,-79.5 910.5,-60.5 991.5,-60.5 991.5,-79.5"/>
<text text-anchor="middle" x="951" y="-67.5" font-family="Helvetica,sans-Serif" font-size="10.00">MTImGui.cpp</text>
</a>
</g>
</g>
<!-- Node30&#45;&gt;Node31 -->
<g id="edge33" class="edge">
<title>Node30&#45;&gt;Node31</title>
<path fill="none" stroke="#63b8ff" d="M1033.17,-115.92C1012.72,-104.74 984.34,-89.23 966.85,-79.67"/>
<polygon fill="#63b8ff" stroke="#63b8ff" points="1031.76,-119.14 1042.21,-120.87 1035.12,-113 1031.76,-119.14"/>
</g>
<!-- Node32 -->
<g id="node32" class="node">
<title>Node32</title>
<g id="a_node32"><a xlink:href="MovingFloor_8cpp.html" target="_top" xlink:title=" ">
<polygon fill="white" stroke="#666666" points="1106.5,-79.5 1009.5,-79.5 1009.5,-60.5 1106.5,-60.5 1106.5,-79.5"/>
<text text-anchor="middle" x="1058" y="-67.5" font-family="Helvetica,sans-Serif" font-size="10.00">MovingFloor.cpp</text>
</a>
</g>
</g>
<!-- Node30&#45;&gt;Node32 -->
<g id="edge34" class="edge">
<title>Node30&#45;&gt;Node32</title>
<path fill="none" stroke="#63b8ff" d="M1058,-110.66C1058,-100.24 1058,-87.8 1058,-79.67"/>
<polygon fill="#63b8ff" stroke="#63b8ff" points="1054.5,-110.87 1058,-120.87 1061.5,-110.87 1054.5,-110.87"/>
</g>
<!-- Node33 -->
<g id="node33" class="node">
<title>Node33</title>
<g id="a_node33"><a xlink:href="MovingFloor_8generated_8cpp.html" target="_top" xlink:title=" ">
<polygon fill="white" stroke="#666666" points="892.5,-79.5 743.5,-79.5 743.5,-60.5 892.5,-60.5 892.5,-79.5"/>
<text text-anchor="middle" x="818" y="-67.5" font-family="Helvetica,sans-Serif" font-size="10.00">MovingFloor.generated.cpp</text>
</a>
</g>
</g>
<!-- Node30&#45;&gt;Node33 -->
<g id="edge35" class="edge">
<title>Node30&#45;&gt;Node33</title>
<path fill="none" stroke="#63b8ff" d="M1013.32,-118.61C966.94,-107.3 895.35,-89.85 852.94,-79.52"/>
<polygon fill="#63b8ff" stroke="#63b8ff" points="1012.56,-122.03 1023.1,-120.99 1014.22,-115.22 1012.56,-122.03"/>
</g>
<!-- Node34&#45;&gt;Node20 -->
<g id="edge39" class="edge">
<title>Node34&#45;&gt;Node20</title>
<path fill="none" stroke="#63b8ff" d="M1528.04,-115.79C1513.2,-107.38 1494.17,-96.11 1478,-85 1460.26,-72.82 1458.82,-65.44 1440,-55 1410.7,-38.75 1374.32,-26.52 1348.57,-19.04"/>
<polygon fill="#63b8ff" stroke="#63b8ff" points="1526.68,-119.05 1537.11,-120.88 1530.1,-112.94 1526.68,-119.05"/>
</g>
<!-- Node35 -->
<g id="node35" class="node">
<title>Node35</title>
<g id="a_node35"><a xlink:href="PatrolChargerEnemy_8cpp.html" target="_top" xlink:title=" ">
<polygon fill="white" stroke="#666666" points="1622.5,-79.5 1487.5,-79.5 1487.5,-60.5 1622.5,-60.5 1622.5,-79.5"/>
<text text-anchor="middle" x="1555" y="-67.5" font-family="Helvetica,sans-Serif" font-size="10.00">PatrolChargerEnemy.cpp</text>
</a>
</g>
</g>
<!-- Node34&#45;&gt;Node35 -->
<g id="edge38" class="edge">
<title>Node34&#45;&gt;Node35</title>
<path fill="none" stroke="#63b8ff" d="M1553.64,-110.66C1554,-100.24 1554.43,-87.8 1554.7,-79.67"/>
<polygon fill="#63b8ff" stroke="#63b8ff" points="1550.14,-110.75 1553.3,-120.87 1557.13,-110.99 1550.14,-110.75"/>
</g>
<!-- Node37 -->
<g id="node37" class="node">
<title>Node37</title>
<g id="a_node37"><a xlink:href="SampleGame_8cpp.html" target="_top" xlink:title=" ">
<polygon fill="white" stroke="#666666" points="1984.5,-79.5 1881.5,-79.5 1881.5,-60.5 1984.5,-60.5 1984.5,-79.5"/>
<text text-anchor="middle" x="1933" y="-67.5" font-family="Helvetica,sans-Serif" font-size="10.00">SampleGame.cpp</text>
</a>
</g>
</g>
<!-- Node36&#45;&gt;Node37 -->
<g id="edge42" class="edge">
<title>Node36&#45;&gt;Node37</title>
<path fill="none" stroke="#63b8ff" d="M1877.93,-114.54C1891.9,-103.49 1910.43,-88.84 1922.04,-79.67"/>
<polygon fill="#63b8ff" stroke="#63b8ff" points="1875.59,-111.92 1869.92,-120.87 1879.93,-117.41 1875.59,-111.92"/>
</g>
<!-- Node36&#45;&gt;Node38 -->
<g id="edge43" class="edge">
<title>Node36&#45;&gt;Node38</title>
<path fill="none" stroke="#63b8ff" d="M1895.55,-117.82C1930.94,-106.5 1983.77,-89.62 2015.36,-79.52"/>
<polygon fill="#63b8ff" stroke="#63b8ff" points="1894.07,-114.61 1885.61,-120.99 1896.2,-121.28 1894.07,-114.61"/>
</g>
<!-- Node40&#45;&gt;Node20 -->
<g id="edge46" class="edge">
<title>Node40&#45;&gt;Node20</title>
<path fill="none" stroke="#63b8ff" d="M2046.67,-117.57C2063.32,-110.87 2080.27,-100.59 2090,-85 2097.06,-73.69 2099.15,-64.69 2090,-55 2066.47,-30.07 1590.1,-16.64 1396.63,-12.19"/>
<polygon fill="#63b8ff" stroke="#63b8ff" points="2045.15,-114.4 2036.96,-121.12 2047.55,-120.97 2045.15,-114.4"/>
</g>
<!-- Node41 -->
<g id="node41" class="node">
<title>Node41</title>
<g id="a_node41"><a xlink:href="ScoreItem_8cpp.html" target="_top" xlink:title=" ">
<polygon fill="white" stroke="#666666" points="2224,-79.5 2138,-79.5 2138,-60.5 2224,-60.5 2224,-79.5"/>
<text text-anchor="middle" x="2181" y="-67.5" font-family="Helvetica,sans-Serif" font-size="10.00">ScoreItem.cpp</text>
</a>
</g>
</g>
<!-- Node40&#45;&gt;Node41 -->
<g id="edge47" class="edge">
<title>Node40&#45;&gt;Node41</title>
<path fill="none" stroke="#63b8ff" d="M2035.35,-117.82C2070.55,-106.5 2123.08,-89.62 2154.5,-79.52"/>
<polygon fill="#63b8ff" stroke="#63b8ff" points="2033.91,-114.6 2025.46,-120.99 2036.06,-121.27 2033.91,-114.6"/>
</g>
<!-- Node43 -->
<g id="node43" class="node">
<title>Node43</title>
<g id="a_node43"><a xlink:href="ScoreViewer_8cpp.html" target="_top" xlink:title=" ">
<polygon fill="white" stroke="#666666" points="2472.5,-79.5 2375.5,-79.5 2375.5,-60.5 2472.5,-60.5 2472.5,-79.5"/>
<text text-anchor="middle" x="2424" y="-67.5" font-family="Helvetica,sans-Serif" font-size="10.00">ScoreViewer.cpp</text>
</a>
</g>
</g>
<!-- Node42&#45;&gt;Node43 -->
<g id="edge49" class="edge">
<title>Node42&#45;&gt;Node43</title>
<path fill="none" stroke="#63b8ff" d="M2424,-110.66C2424,-100.24 2424,-87.8 2424,-79.67"/>
<polygon fill="#63b8ff" stroke="#63b8ff" points="2420.5,-110.87 2424,-120.87 2427.5,-110.87 2420.5,-110.87"/>
</g>
<!-- Node45&#45;&gt;Node21 -->
<g id="edge53" class="edge">
<title>Node45&#45;&gt;Node21</title>
<path fill="none" stroke="#63b8ff" d="M1689.37,-121C1518.98,-100.88 1473,-112.54 1308,-85 1299.42,-83.57 1290.22,-81.57 1281.74,-79.53"/>
<polygon fill="#63b8ff" stroke="#63b8ff" points="1689.09,-124.49 1699.44,-122.21 1689.93,-117.54 1689.09,-124.49"/>
</g>
<!-- Node45&#45;&gt;Node26 -->
<g id="edge52" class="edge">
<title>Node45&#45;&gt;Node26</title>
<path fill="none" stroke="#63b8ff" d="M1735.83,-112.3C1728.86,-101.58 1720.2,-88.23 1714.63,-79.67"/>
<polygon fill="#63b8ff" stroke="#63b8ff" points="1733.01,-114.39 1741.39,-120.87 1738.88,-110.58 1733.01,-114.39"/>
</g>
<!-- Node45&#45;&gt;Node37 -->
<g id="edge54" class="edge">
<title>Node45&#45;&gt;Node37</title>
<path fill="none" stroke="#63b8ff" d="M1783.68,-117.96C1819.66,-106.65 1873.67,-89.66 1905.92,-79.52"/>
<polygon fill="#63b8ff" stroke="#63b8ff" points="1782.54,-114.65 1774.05,-120.99 1784.64,-121.33 1782.54,-114.65"/>
</g>
<!-- Node46 -->
<g id="node46" class="node">
<title>Node46</title>
<g id="a_node46"><a xlink:href="StageManager_8cpp.html" target="_top" xlink:title=" ">
<polygon fill="white" stroke="#666666" points="1863.5,-79.5 1756.5,-79.5 1756.5,-60.5 1863.5,-60.5 1863.5,-79.5"/>
<text text-anchor="middle" x="1810" y="-67.5" font-family="Helvetica,sans-Serif" font-size="10.00">StageManager.cpp</text>
</a>
</g>
</g>
<!-- Node45&#45;&gt;Node46 -->
<g id="edge55" class="edge">
<title>Node45&#45;&gt;Node46</title>
<path fill="none" stroke="#63b8ff" d="M1763.79,-113.91C1775.6,-102.94 1790.97,-88.67 1800.67,-79.67"/>
<polygon fill="#63b8ff" stroke="#63b8ff" points="1761.24,-111.5 1756.3,-120.87 1766.01,-116.63 1761.24,-111.5"/>
</g>
<!-- Node48 -->
<g id="node48" class="node">
<title>Node48</title>
<g id="a_node48"><a xlink:href="TextBox_8cpp.html" target="_top" xlink:title=" ">
<polygon fill="white" stroke="#666666" points="2687,-79.5 2611,-79.5 2611,-60.5 2687,-60.5 2687,-79.5"/>
<text text-anchor="middle" x="2649" y="-67.5" font-family="Helvetica,sans-Serif" font-size="10.00">TextBox.cpp</text>
</a>
</g>
</g>
<!-- Node47&#45;&gt;Node48 -->
<g id="edge57" class="edge">
<title>Node47&#45;&gt;Node48</title>
<path fill="none" stroke="#63b8ff" d="M2649,-110.66C2649,-100.24 2649,-87.8 2649,-79.67"/>
<polygon fill="#63b8ff" stroke="#63b8ff" points="2645.5,-110.87 2649,-120.87 2652.5,-110.87 2645.5,-110.87"/>
</g>
</g>
</svg>
