<?xml version="1.0" encoding="UTF-8" standalone="no"?>
<!DOCTYPE svg PUBLIC "-//W3C//DTD SVG 1.1//EN"
 "http://www.w3.org/Graphics/SVG/1.1/DTD/svg11.dtd">
<!-- Generated by graphviz version 2.43.0 (0)
 -->
<!-- Title: InputConfig.h Pages: 1 -->
<svg width="2171pt" height="368pt"
 viewBox="0.00 0.00 2170.50 368.00" xmlns="http://www.w3.org/2000/svg" xmlns:xlink="http://www.w3.org/1999/xlink">
<g id="graph0" class="graph" transform="scale(1 1) rotate(0) translate(4 364)">
<title>InputConfig.h</title>
<!-- Node1 -->
<g id="node1" class="node">
<title>Node1</title>
<g id="a_node1"><a xlink:title=" ">
<polygon fill="#999999" stroke="#666666" points="1183.5,-360 1102.5,-360 1102.5,-341 1183.5,-341 1183.5,-360"/>
<text text-anchor="middle" x="1143" y="-348" font-family="Helvetica,sans-Serif" font-size="10.00">InputConfig.h</text>
</a>
</g>
</g>
<!-- Node2 -->
<g id="node2" class="node">
<title>Node2</title>
<g id="a_node2"><a xlink:href="Input_8h.html" target="_top" xlink:title=" ">
<polygon fill="white" stroke="#666666" points="1142,-305 1092,-305 1092,-286 1142,-286 1142,-305"/>
<text text-anchor="middle" x="1117" y="-293" font-family="Helvetica,sans-Serif" font-size="10.00">Input.h</text>
</a>
</g>
</g>
<!-- Node1&#45;&gt;Node2 -->
<g id="edge1" class="edge">
<title>Node1&#45;&gt;Node2</title>
<path fill="none" stroke="#63b8ff" d="M1134.18,-331.53C1129.8,-322.6 1124.71,-312.22 1121.21,-305.09"/>
<polygon fill="#63b8ff" stroke="#63b8ff" points="1131.16,-333.31 1138.71,-340.75 1137.44,-330.23 1131.16,-333.31"/>
</g>
<!-- Node5 -->
<g id="node5" class="node">
<title>Node5</title>
<g id="a_node5"><a xlink:href="InputData_8h.html" target="_top" xlink:title=" ">
<polygon fill="white" stroke="#666666" points="1384,-250 1310,-250 1310,-231 1384,-231 1384,-250"/>
<text text-anchor="middle" x="1347" y="-238" font-family="Helvetica,sans-Serif" font-size="10.00">InputData.h</text>
</a>
</g>
</g>
<!-- Node1&#45;&gt;Node5 -->
<g id="edge71" class="edge">
<title>Node1&#45;&gt;Node5</title>
<path fill="none" stroke="#63b8ff" d="M1151.59,-331.72C1159.43,-317.35 1172.31,-297.65 1189,-286 1225.34,-260.64 1275.83,-249.67 1309.87,-244.97"/>
<polygon fill="#63b8ff" stroke="#63b8ff" points="1148.46,-330.16 1146.99,-340.66 1154.68,-333.37 1148.46,-330.16"/>
</g>
<!-- Node53 -->
<g id="node46" class="node">
<title>Node53</title>
<g id="a_node46"><a xlink:href="InputResource_8h.html" target="_top" xlink:title=" ">
<polygon fill="white" stroke="#666666" points="802.5,-250 707.5,-250 707.5,-231 802.5,-231 802.5,-250"/>
<text text-anchor="middle" x="755" y="-238" font-family="Helvetica,sans-Serif" font-size="10.00">InputResource.h</text>
</a>
</g>
</g>
<!-- Node1&#45;&gt;Node53 -->
<g id="edge72" class="edge">
<title>Node1&#45;&gt;Node53</title>
<path fill="none" stroke="#63b8ff" d="M1102.29,-338.17C1024.26,-316.45 855.25,-269.4 785.77,-250.07"/>
<polygon fill="#63b8ff" stroke="#63b8ff" points="1101.66,-341.63 1112.23,-340.94 1103.53,-334.88 1101.66,-341.63"/>
</g>
<!-- Node57 -->
<g id="node50" class="node">
<title>Node57</title>
<g id="a_node50"><a xlink:href="InputConfig_8cpp.html" target="_top" xlink:title=" ">
<polygon fill="white" stroke="#666666" points="1290,-305 1198,-305 1198,-286 1290,-286 1290,-305"/>
<text text-anchor="middle" x="1244" y="-293" font-family="Helvetica,sans-Serif" font-size="10.00">InputConfig.cpp</text>
</a>
</g>
</g>
<!-- Node1&#45;&gt;Node57 -->
<g id="edge70" class="edge">
<title>Node1&#45;&gt;Node57</title>
<path fill="none" stroke="#63b8ff" d="M1168.28,-336.23C1186.8,-326.51 1211.42,-313.6 1227.48,-305.17"/>
<polygon fill="#63b8ff" stroke="#63b8ff" points="1166.46,-333.24 1159.23,-340.98 1169.71,-339.44 1166.46,-333.24"/>
</g>
<!-- Node3 -->
<g id="node3" class="node">
<title>Node3</title>
<g id="a_node3"><a xlink:href="Input_8cpp.html" target="_top" xlink:title=" ">
<polygon fill="white" stroke="#666666" points="762,-195 700,-195 700,-176 762,-176 762,-195"/>
<text text-anchor="middle" x="731" y="-183" font-family="Helvetica,sans-Serif" font-size="10.00">Input.cpp</text>
</a>
</g>
</g>
<!-- Node2&#45;&gt;Node3 -->
<g id="edge2" class="edge">
<title>Node2&#45;&gt;Node3</title>
<path fill="none" stroke="#63b8ff" d="M1081.62,-293.4C985.24,-290.03 723.49,-278.34 698,-250 682.88,-233.19 705.94,-208.19 720.53,-195.14"/>
<polygon fill="#63b8ff" stroke="#63b8ff" points="1081.63,-296.9 1091.74,-293.74 1081.87,-289.9 1081.63,-296.9"/>
</g>
<!-- Node4 -->
<g id="node4" class="node">
<title>Node4</title>
<g id="a_node4"><a xlink:href="InputData_8cpp.html" target="_top" xlink:title=" ">
<polygon fill="white" stroke="#666666" points="947.5,-195 862.5,-195 862.5,-176 947.5,-176 947.5,-195"/>
<text text-anchor="middle" x="905" y="-183" font-family="Helvetica,sans-Serif" font-size="10.00">InputData.cpp</text>
</a>
</g>
</g>
<!-- Node2&#45;&gt;Node4 -->
<g id="edge3" class="edge">
<title>Node2&#45;&gt;Node4</title>
<path fill="none" stroke="#63b8ff" d="M1148.83,-281.66C1174.4,-269.51 1203.54,-250.31 1187,-231 1153.21,-191.54 1007.29,-203.27 956,-195 953.25,-194.56 950.42,-194.1 947.57,-193.63"/>
<polygon fill="#63b8ff" stroke="#63b8ff" points="1147.33,-278.5 1139.66,-285.8 1150.21,-284.88 1147.33,-278.5"/>
</g>
<!-- Node2&#45;&gt;Node5 -->
<g id="edge4" class="edge">
<title>Node2&#45;&gt;Node5</title>
<path fill="none" stroke="#63b8ff" d="M1151.97,-286.44C1194.58,-276.62 1266.28,-260.1 1309.86,-250.06"/>
<polygon fill="#63b8ff" stroke="#63b8ff" points="1151.01,-283.07 1142.05,-288.73 1152.58,-289.89 1151.01,-283.07"/>
</g>
<!-- Node11 -->
<g id="node11" class="node">
<title>Node11</title>
<g id="a_node11"><a xlink:href="SceneSystem_8cpp.html" target="_top" xlink:title=" ">
<polygon fill="white" stroke="#666666" points="1068.5,-195 965.5,-195 965.5,-176 1068.5,-176 1068.5,-195"/>
<text text-anchor="middle" x="1017" y="-183" font-family="Helvetica,sans-Serif" font-size="10.00">SceneSystem.cpp</text>
</a>
</g>
</g>
<!-- Node2&#45;&gt;Node11 -->
<g id="edge67" class="edge">
<title>Node2&#45;&gt;Node11</title>
<path fill="none" stroke="#63b8ff" d="M1152.26,-283.87C1178.86,-275.05 1212.08,-262.05 1220,-250 1224.64,-242.94 1225.29,-237.58 1220,-231 1210.47,-219.16 1125.54,-203.63 1068.6,-194.39"/>
<polygon fill="#63b8ff" stroke="#63b8ff" points="1150.89,-280.63 1142.45,-287.03 1153.04,-287.29 1150.89,-280.63"/>
</g>
<!-- Node12 -->
<g id="node12" class="node">
<title>Node12</title>
<g id="a_node12"><a xlink:href="mtgb_8h.html" target="_top" xlink:title=" ">
<polygon fill="white" stroke="#666666" points="1137.5,-195 1086.5,-195 1086.5,-176 1137.5,-176 1137.5,-195"/>
<text text-anchor="middle" x="1112" y="-183" font-family="Helvetica,sans-Serif" font-size="10.00">mtgb.h</text>
</a>
</g>
</g>
<!-- Node2&#45;&gt;Node12 -->
<g id="edge69" class="edge">
<title>Node2&#45;&gt;Node12</title>
<path fill="none" stroke="#63b8ff" d="M1152.05,-285.74C1191.68,-275.48 1251.56,-258.78 1258,-250 1262.99,-243.19 1263.03,-237.79 1258,-231 1254.32,-226.04 1178.52,-204.69 1137.63,-193.46"/>
<polygon fill="#63b8ff" stroke="#63b8ff" points="1151.03,-282.39 1142.21,-288.26 1152.77,-289.17 1151.03,-282.39"/>
</g>
<!-- Node2&#45;&gt;Node53 -->
<g id="edge58" class="edge">
<title>Node2&#45;&gt;Node53</title>
<path fill="none" stroke="#63b8ff" d="M1081.67,-289.43C1024.69,-281.25 908.98,-264.56 811,-250 808.28,-249.6 805.48,-249.18 802.66,-248.75"/>
<polygon fill="#63b8ff" stroke="#63b8ff" points="1081.21,-292.9 1091.6,-290.86 1082.2,-285.98 1081.21,-292.9"/>
</g>
<!-- Node54 -->
<g id="node47" class="node">
<title>Node54</title>
<g id="a_node47"><a xlink:href="JoystickProxy_8cpp.html" target="_top" xlink:title=" ">
<polygon fill="white" stroke="#666666" points="921.5,-250 820.5,-250 820.5,-231 921.5,-231 921.5,-250"/>
<text text-anchor="middle" x="871" y="-238" font-family="Helvetica,sans-Serif" font-size="10.00">JoystickProxy.cpp</text>
</a>
</g>
</g>
<!-- Node2&#45;&gt;Node54 -->
<g id="edge65" class="edge">
<title>Node2&#45;&gt;Node54</title>
<path fill="none" stroke="#63b8ff" d="M1081.65,-286.88C1036.38,-277.13 958.14,-260.27 910.81,-250.08"/>
<polygon fill="#63b8ff" stroke="#63b8ff" points="1081.09,-290.34 1091.6,-289.03 1082.56,-283.5 1081.09,-290.34"/>
</g>
<!-- Node55 -->
<g id="node48" class="node">
<title>Node55</title>
<g id="a_node48"><a xlink:href="MainWindow_8cpp.html" target="_top" xlink:title=" ">
<polygon fill="white" stroke="#666666" points="1038.5,-250 939.5,-250 939.5,-231 1038.5,-231 1038.5,-250"/>
<text text-anchor="middle" x="989" y="-238" font-family="Helvetica,sans-Serif" font-size="10.00">MainWindow.cpp</text>
</a>
</g>
</g>
<!-- Node2&#45;&gt;Node55 -->
<g id="edge66" class="edge">
<title>Node2&#45;&gt;Node55</title>
<path fill="none" stroke="#63b8ff" d="M1086.88,-282.03C1063.21,-272.23 1030.85,-258.83 1009.94,-250.17"/>
<polygon fill="#63b8ff" stroke="#63b8ff" points="1085.86,-285.39 1096.43,-285.98 1088.53,-278.93 1085.86,-285.39"/>
</g>
<!-- Node56 -->
<g id="node49" class="node">
<title>Node56</title>
<g id="a_node49"><a xlink:href="WindowResource_8cpp.html" target="_top" xlink:title=" ">
<polygon fill="white" stroke="#666666" points="1177.5,-250 1056.5,-250 1056.5,-231 1177.5,-231 1177.5,-250"/>
<text text-anchor="middle" x="1117" y="-238" font-family="Helvetica,sans-Serif" font-size="10.00">WindowResource.cpp</text>
</a>
</g>
</g>
<!-- Node2&#45;&gt;Node56 -->
<g id="edge68" class="edge">
<title>Node2&#45;&gt;Node56</title>
<path fill="none" stroke="#63b8ff" d="M1117,-275.66C1117,-266.93 1117,-256.99 1117,-250.09"/>
<polygon fill="#63b8ff" stroke="#63b8ff" points="1113.5,-275.75 1117,-285.75 1120.5,-275.75 1113.5,-275.75"/>
</g>
<!-- Node5&#45;&gt;Node3 -->
<g id="edge9" class="edge">
<title>Node5&#45;&gt;Node3</title>
<path fill="none" stroke="#63b8ff" d="M1299.83,-235.44C1179.37,-225.08 862.81,-197.84 762.18,-189.18"/>
<polygon fill="#63b8ff" stroke="#63b8ff" points="1299.59,-238.93 1309.85,-236.3 1300.19,-231.96 1299.59,-238.93"/>
</g>
<!-- Node5&#45;&gt;Node4 -->
<g id="edge10" class="edge">
<title>Node5&#45;&gt;Node4</title>
<path fill="none" stroke="#63b8ff" d="M1299.67,-234.91C1226.03,-227.6 1079.65,-212.33 956,-195 953.24,-194.61 950.41,-194.2 947.55,-193.76"/>
<polygon fill="#63b8ff" stroke="#63b8ff" points="1299.7,-238.43 1309.99,-235.93 1300.39,-231.47 1299.7,-238.43"/>
</g>
<!-- Node6 -->
<g id="node6" class="node">
<title>Node6</title>
<g id="a_node6"><a xlink:href="ICamera_8cpp.html" target="_top" xlink:title=" ">
<polygon fill="white" stroke="#666666" points="1673,-195 1595,-195 1595,-176 1673,-176 1673,-195"/>
<text text-anchor="middle" x="1634" y="-183" font-family="Helvetica,sans-Serif" font-size="10.00">ICamera.cpp</text>
</a>
</g>
</g>
<!-- Node5&#45;&gt;Node6 -->
<g id="edge5" class="edge">
<title>Node5&#45;&gt;Node6</title>
<path fill="none" stroke="#63b8ff" d="M1394.23,-230.78C1450.14,-220.45 1542.26,-203.44 1594.54,-193.79"/>
<polygon fill="#63b8ff" stroke="#63b8ff" points="1393.42,-227.37 1384.23,-232.63 1394.7,-234.25 1393.42,-227.37"/>
</g>
<!-- Node7 -->
<g id="node7" class="node">
<title>Node7</title>
<g id="a_node7"><a xlink:href="ImGuiEditor_8cpp.html" target="_top" xlink:title=" ">
<polygon fill="white" stroke="#666666" points="1785,-195 1691,-195 1691,-176 1785,-176 1785,-195"/>
<text text-anchor="middle" x="1738" y="-183" font-family="Helvetica,sans-Serif" font-size="10.00">ImGuiEditor.cpp</text>
</a>
</g>
</g>
<!-- Node5&#45;&gt;Node7 -->
<g id="edge6" class="edge">
<title>Node5&#45;&gt;Node7</title>
<path fill="none" stroke="#63b8ff" d="M1394.13,-233.52C1459.01,-225.22 1579.45,-209.59 1682,-195 1684.92,-194.58 1687.93,-194.15 1690.96,-193.71"/>
<polygon fill="#63b8ff" stroke="#63b8ff" points="1393.69,-230.05 1384.21,-234.79 1394.57,-236.99 1393.69,-230.05"/>
</g>
<!-- Node8 -->
<g id="node8" class="node">
<title>Node8</title>
<g id="a_node8"><a xlink:href="ImGuiEditorCamera_8cpp.html" target="_top" xlink:title=" ">
<polygon fill="white" stroke="#666666" points="1413.5,-195 1280.5,-195 1280.5,-176 1413.5,-176 1413.5,-195"/>
<text text-anchor="middle" x="1347" y="-183" font-family="Helvetica,sans-Serif" font-size="10.00">ImGuiEditorCamera.cpp</text>
</a>
</g>
</g>
<!-- Node5&#45;&gt;Node8 -->
<g id="edge7" class="edge">
<title>Node5&#45;&gt;Node8</title>
<path fill="none" stroke="#63b8ff" d="M1347,-220.66C1347,-211.93 1347,-201.99 1347,-195.09"/>
<polygon fill="#63b8ff" stroke="#63b8ff" points="1343.5,-220.75 1347,-230.75 1350.5,-220.75 1343.5,-220.75"/>
</g>
<!-- Node9 -->
<g id="node9" class="node">
<title>Node9</title>
<g id="a_node9"><a xlink:href="ImGuizmoManipulator_8cpp.html" target="_top" xlink:title=" ">
<polygon fill="white" stroke="#666666" points="1576.5,-195 1431.5,-195 1431.5,-176 1576.5,-176 1576.5,-195"/>
<text text-anchor="middle" x="1504" y="-183" font-family="Helvetica,sans-Serif" font-size="10.00">ImGuizmoManipulator.cpp</text>
</a>
</g>
</g>
<!-- Node5&#45;&gt;Node9 -->
<g id="edge8" class="edge">
<title>Node5&#45;&gt;Node9</title>
<path fill="none" stroke="#63b8ff" d="M1382.05,-227.67C1411.32,-217.79 1452.37,-203.93 1478.58,-195.08"/>
<polygon fill="#63b8ff" stroke="#63b8ff" points="1380.58,-224.47 1372.22,-230.98 1382.82,-231.1 1380.58,-224.47"/>
</g>
<!-- Node10 -->
<g id="node10" class="node">
<title>Node10</title>
<g id="a_node10"><a xlink:href="InputResource_8cpp.html" target="_top" xlink:title=" ">
<polygon fill="white" stroke="#666666" points="1262.5,-195 1155.5,-195 1155.5,-176 1262.5,-176 1262.5,-195"/>
<text text-anchor="middle" x="1209" y="-183" font-family="Helvetica,sans-Serif" font-size="10.00">InputResource.cpp</text>
</a>
</g>
</g>
<!-- Node5&#45;&gt;Node10 -->
<g id="edge11" class="edge">
<title>Node5&#45;&gt;Node10</title>
<path fill="none" stroke="#63b8ff" d="M1315.21,-227.29C1289.63,-217.47 1254.33,-203.91 1231.58,-195.17"/>
<polygon fill="#63b8ff" stroke="#63b8ff" points="1314.24,-230.67 1324.83,-230.98 1316.75,-224.13 1314.24,-230.67"/>
</g>
<!-- Node5&#45;&gt;Node11 -->
<g id="edge12" class="edge">
<title>Node5&#45;&gt;Node11</title>
<path fill="none" stroke="#63b8ff" d="M1299.62,-231.89C1238.34,-222.05 1131.97,-204.97 1068.67,-194.8"/>
<polygon fill="#63b8ff" stroke="#63b8ff" points="1299.36,-235.39 1309.79,-233.52 1300.47,-228.48 1299.36,-235.39"/>
</g>
<!-- Node5&#45;&gt;Node12 -->
<g id="edge13" class="edge">
<title>Node5&#45;&gt;Node12</title>
<path fill="none" stroke="#63b8ff" d="M1299.85,-229.28C1259.28,-220.42 1199.22,-207.15 1147,-195 1143.95,-194.29 1140.76,-193.54 1137.6,-192.78"/>
<polygon fill="#63b8ff" stroke="#63b8ff" points="1299.21,-232.72 1309.72,-231.43 1300.7,-225.88 1299.21,-232.72"/>
</g>
<!-- Node13 -->
<g id="node13" class="node">
<title>Node13</title>
<g id="a_node13"><a xlink:href="Box3D_8h.html" target="_top" xlink:title=" ">
<polygon fill="white" stroke="#666666" points="2023,-140 1965,-140 1965,-121 2023,-121 2023,-140"/>
<text text-anchor="middle" x="1994" y="-128" font-family="Helvetica,sans-Serif" font-size="10.00">Box3D.h</text>
</a>
</g>
</g>
<!-- Node12&#45;&gt;Node13 -->
<g id="edge14" class="edge">
<title>Node12&#45;&gt;Node13</title>
<path fill="none" stroke="#63b8ff" d="M1147.62,-176.27C1505.12,-126.44 1602.54,-187.02 1956,-140 1958.81,-139.63 1961.73,-139.15 1964.63,-138.6"/>
<polygon fill="#63b8ff" stroke="#63b8ff" points="1146.91,-172.84 1137.5,-177.7 1147.89,-179.77 1146.91,-172.84"/>
</g>
<!-- Node17 -->
<g id="node17" class="node">
<title>Node17</title>
<g id="a_node17"><a xlink:href="Camera_8h.html" target="_top" xlink:title=" ">
<polygon fill="white" stroke="#666666" points="261,-140 197,-140 197,-121 261,-121 261,-140"/>
<text text-anchor="middle" x="229" y="-128" font-family="Helvetica,sans-Serif" font-size="10.00">Camera.h</text>
</a>
</g>
</g>
<!-- Node12&#45;&gt;Node17 -->
<g id="edge18" class="edge">
<title>Node12&#45;&gt;Node17</title>
<path fill="none" stroke="#63b8ff" d="M1076.42,-176.07C738.6,-127.13 647.98,-165.35 311,-140 294.59,-138.77 276.37,-136.92 261.29,-135.27"/>
<polygon fill="#63b8ff" stroke="#63b8ff" points="1076.09,-179.56 1086.49,-177.55 1077.1,-172.63 1076.09,-179.56"/>
</g>
<!-- Node20 -->
<g id="node20" class="node">
<title>Node20</title>
<g id="a_node20"><a xlink:href="Player_8h.html" target="_top" xlink:title=" ">
<polygon fill="white" stroke="#666666" points="293,-79.5 237,-79.5 237,-60.5 293,-60.5 293,-79.5"/>
<text text-anchor="middle" x="265" y="-67.5" font-family="Helvetica,sans-Serif" font-size="10.00">Player.h</text>
</a>
</g>
</g>
<!-- Node12&#45;&gt;Node20 -->
<g id="edge42" class="edge">
<title>Node12&#45;&gt;Node20</title>
<path fill="none" stroke="#63b8ff" d="M1076.52,-176.16C909.38,-154.36 528.21,-183.4 383,-140 339.57,-127.02 295.26,-95 275.56,-79.58"/>
<polygon fill="#63b8ff" stroke="#63b8ff" points="1076.1,-179.63 1086.49,-177.56 1077.07,-172.7 1076.1,-179.63"/>
</g>
<!-- Node23 -->
<g id="node23" class="node">
<title>Node23</title>
<g id="a_node23"><a xlink:href="TitleScene_8cpp.html" target="_top" xlink:title=" ">
<polygon fill="white" stroke="#666666" points="88,-79.5 0,-79.5 0,-60.5 88,-60.5 88,-79.5"/>
<text text-anchor="middle" x="44" y="-67.5" font-family="Helvetica,sans-Serif" font-size="10.00">TitleScene.cpp</text>
</a>
</g>
</g>
<!-- Node12&#45;&gt;Node23 -->
<g id="edge56" class="edge">
<title>Node12&#45;&gt;Node23</title>
<path fill="none" stroke="#63b8ff" d="M1076.38,-176.15C865.98,-149.11 377,-186.98 188,-140 136.61,-127.23 81.75,-95.1 57.2,-79.62"/>
<polygon fill="#63b8ff" stroke="#63b8ff" points="1076.11,-179.64 1086.49,-177.53 1077.06,-172.71 1076.11,-179.64"/>
</g>
<!-- Node24 -->
<g id="node24" class="node">
<title>Node24</title>
<g id="a_node24"><a xlink:href="GameOverZone_8h.html" target="_top" xlink:title=" ">
<polygon fill="white" stroke="#666666" points="735.5,-140 632.5,-140 632.5,-121 735.5,-121 735.5,-140"/>
<text text-anchor="middle" x="684" y="-128" font-family="Helvetica,sans-Serif" font-size="10.00">GameOverZone.h</text>
</a>
</g>
</g>
<!-- Node12&#45;&gt;Node24 -->
<g id="edge26" class="edge">
<title>Node12&#45;&gt;Node24</title>
<path fill="none" stroke="#63b8ff" d="M1076.51,-175.94C948.92,-153.35 809.3,-140.81 735.63,-135.14"/>
<polygon fill="#63b8ff" stroke="#63b8ff" points="1076,-179.41 1086.46,-177.73 1077.24,-172.52 1076,-179.41"/>
</g>
<!-- Node26 -->
<g id="node26" class="node">
<title>Node26</title>
<g id="a_node26"><a xlink:href="Goal_8h.html" target="_top" xlink:title=" ">
<polygon fill="white" stroke="#666666" points="554,-140 506,-140 506,-121 554,-121 554,-140"/>
<text text-anchor="middle" x="530" y="-128" font-family="Helvetica,sans-Serif" font-size="10.00">Goal.h</text>
</a>
</g>
</g>
<!-- Node12&#45;&gt;Node26 -->
<g id="edge29" class="edge">
<title>Node12&#45;&gt;Node26</title>
<path fill="none" stroke="#63b8ff" d="M1076.51,-176.01C876.06,-143.73 821.86,-156.95 623,-140 599.58,-138 572.85,-135.54 554.08,-133.78"/>
<polygon fill="#63b8ff" stroke="#63b8ff" points="1076.04,-179.48 1086.48,-177.64 1077.17,-172.57 1076.04,-179.48"/>
</g>
<!-- Node28 -->
<g id="node28" class="node">
<title>Node28</title>
<g id="a_node28"><a xlink:href="HighlightEnemy_8h.html" target="_top" xlink:title=" ">
<polygon fill="white" stroke="#666666" points="1186,-140 1084,-140 1084,-121 1186,-121 1186,-140"/>
<text text-anchor="middle" x="1135" y="-128" font-family="Helvetica,sans-Serif" font-size="10.00">HighlightEnemy.h</text>
</a>
</g>
</g>
<!-- Node12&#45;&gt;Node28 -->
<g id="edge32" class="edge">
<title>Node12&#45;&gt;Node28</title>
<path fill="none" stroke="#63b8ff" d="M1119.8,-166.53C1123.68,-157.6 1128.18,-147.22 1131.27,-140.09"/>
<polygon fill="#63b8ff" stroke="#63b8ff" points="1116.57,-165.18 1115.8,-175.75 1122.99,-167.97 1116.57,-165.18"/>
</g>
<!-- Node30 -->
<g id="node30" class="node">
<title>Node30</title>
<g id="a_node30"><a xlink:href="Model_8cpp.html" target="_top" xlink:title=" ">
<polygon fill="white" stroke="#666666" points="1065.5,-140 998.5,-140 998.5,-121 1065.5,-121 1065.5,-140"/>
<text text-anchor="middle" x="1032" y="-128" font-family="Helvetica,sans-Serif" font-size="10.00">Model.cpp</text>
</a>
</g>
</g>
<!-- Node12&#45;&gt;Node30 -->
<g id="edge34" class="edge">
<title>Node12&#45;&gt;Node30</title>
<path fill="none" stroke="#63b8ff" d="M1090.75,-170.42C1076.24,-160.81 1057.46,-148.37 1045.09,-140.17"/>
<polygon fill="#63b8ff" stroke="#63b8ff" points="1088.88,-173.38 1099.15,-175.98 1092.74,-167.54 1088.88,-173.38"/>
</g>
<!-- Node31 -->
<g id="node31" class="node">
<title>Node31</title>
<g id="a_node31"><a xlink:href="MovingFloor_8h.html" target="_top" xlink:title=" ">
<polygon fill="white" stroke="#666666" points="980,-140 894,-140 894,-121 980,-121 980,-140"/>
<text text-anchor="middle" x="937" y="-128" font-family="Helvetica,sans-Serif" font-size="10.00">MovingFloor.h</text>
</a>
</g>
</g>
<!-- Node12&#45;&gt;Node31 -->
<g id="edge35" class="edge">
<title>Node12&#45;&gt;Node31</title>
<path fill="none" stroke="#63b8ff" d="M1076.52,-173.75C1043.7,-163.81 995.54,-149.23 965.25,-140.06"/>
<polygon fill="#63b8ff" stroke="#63b8ff" points="1075.59,-177.13 1086.18,-176.68 1077.62,-170.43 1075.59,-177.13"/>
</g>
<!-- Node35 -->
<g id="node35" class="node">
<title>Node35</title>
<g id="a_node35"><a xlink:href="PatrolChargerEnemy_8h.html" target="_top" xlink:title=" ">
<polygon fill="#fff0f0" stroke="red" points="836,-79.5 712,-79.5 712,-60.5 836,-60.5 836,-79.5"/>
<text text-anchor="middle" x="774" y="-67.5" font-family="Helvetica,sans-Serif" font-size="10.00">PatrolChargerEnemy.h</text>
</a>
</g>
</g>
<!-- Node12&#45;&gt;Node35 -->
<g id="edge40" class="edge">
<title>Node12&#45;&gt;Node35</title>
<path fill="none" stroke="#63b8ff" d="M1076.57,-175.87C985.92,-158 956.27,-173.75 874,-140 837.12,-124.87 800.19,-94.47 783.38,-79.6"/>
<polygon fill="#63b8ff" stroke="#63b8ff" points="1075.92,-179.32 1086.43,-177.9 1077.34,-172.46 1075.92,-179.32"/>
</g>
<!-- Node37 -->
<g id="node36" class="node">
<title>Node37</title>
<g id="a_node36"><a xlink:href="SampleGame_8h.html" target="_top" xlink:title=" ">
<polygon fill="#fff0f0" stroke="red" points="1947,-140 1855,-140 1855,-121 1947,-121 1947,-140"/>
<text text-anchor="middle" x="1901" y="-128" font-family="Helvetica,sans-Serif" font-size="10.00">SampleGame.h</text>
</a>
</g>
</g>
<!-- Node12&#45;&gt;Node37 -->
<g id="edge43" class="edge">
<title>Node12&#45;&gt;Node37</title>
<path fill="none" stroke="#63b8ff" d="M1147.65,-176.25C1456.6,-131.96 1539.88,-171.46 1846,-140 1848.88,-139.7 1851.85,-139.36 1854.83,-138.98"/>
<polygon fill="#63b8ff" stroke="#63b8ff" points="1146.9,-172.82 1137.51,-177.72 1147.91,-179.75 1146.9,-172.82"/>
</g>
<!-- Node39 -->
<g id="node37" class="node">
<title>Node39</title>
<g id="a_node37"><a xlink:href="Source_2TheMain_8cpp.html" target="_top" xlink:title=" ">
<polygon fill="white" stroke="#666666" points="1653.5,-79.5 1574.5,-79.5 1574.5,-60.5 1653.5,-60.5 1653.5,-79.5"/>
<text text-anchor="middle" x="1614" y="-67.5" font-family="Helvetica,sans-Serif" font-size="10.00">TheMain.cpp</text>
</a>
</g>
</g>
<!-- Node12&#45;&gt;Node39 -->
<g id="edge54" class="edge">
<title>Node12&#45;&gt;Node39</title>
<path fill="none" stroke="#63b8ff" d="M1137,-171.2C1171.19,-153.06 1228.9,-122.61 1234,-121 1266.01,-110.91 1483.58,-85.67 1574.35,-75.43"/>
<polygon fill="#63b8ff" stroke="#63b8ff" points="1135.23,-168.18 1128.04,-175.96 1138.52,-174.36 1135.23,-168.18"/>
</g>
<!-- Node40 -->
<g id="node38" class="node">
<title>Node40</title>
<g id="a_node38"><a xlink:href="SampleScene_8cpp.html" target="_top" xlink:title=" ">
<polygon fill="white" stroke="#666666" points="1345.5,-140 1242.5,-140 1242.5,-121 1345.5,-121 1345.5,-140"/>
<text text-anchor="middle" x="1294" y="-128" font-family="Helvetica,sans-Serif" font-size="10.00">SampleScene.cpp</text>
</a>
</g>
</g>
<!-- Node12&#45;&gt;Node40 -->
<g id="edge45" class="edge">
<title>Node12&#45;&gt;Node40</title>
<path fill="none" stroke="#63b8ff" d="M1147.7,-174.1C1181.82,-164.17 1232.64,-149.37 1264.52,-140.08"/>
<polygon fill="#63b8ff" stroke="#63b8ff" points="1146.31,-170.86 1137.69,-177.02 1148.27,-177.58 1146.31,-170.86"/>
</g>
<!-- Node41 -->
<g id="node39" class="node">
<title>Node41</title>
<g id="a_node39"><a xlink:href="ScoreItem_8h.html" target="_top" xlink:title=" ">
<polygon fill="#fff0f0" stroke="red" points="929.5,-79.5 854.5,-79.5 854.5,-60.5 929.5,-60.5 929.5,-79.5"/>
<text text-anchor="middle" x="892" y="-67.5" font-family="Helvetica,sans-Serif" font-size="10.00">ScoreItem.h</text>
</a>
</g>
</g>
<!-- Node12&#45;&gt;Node41 -->
<g id="edge46" class="edge">
<title>Node12&#45;&gt;Node41</title>
<path fill="none" stroke="#63b8ff" d="M1076.4,-176.08C1020.89,-167.39 911.19,-171.53 885,-140 870.69,-122.77 880.87,-94.15 887.51,-79.79"/>
<polygon fill="#63b8ff" stroke="#63b8ff" points="1075.95,-179.55 1086.42,-177.93 1077.22,-172.67 1075.95,-179.55"/>
</g>
<!-- Node43 -->
<g id="node40" class="node">
<title>Node43</title>
<g id="a_node40"><a xlink:href="ScoreViewer_8h.html" target="_top" xlink:title=" ">
<polygon fill="#fff0f0" stroke="red" points="1450,-140 1364,-140 1364,-121 1450,-121 1450,-140"/>
<text text-anchor="middle" x="1407" y="-128" font-family="Helvetica,sans-Serif" font-size="10.00">ScoreViewer.h</text>
</a>
</g>
</g>
<!-- Node12&#45;&gt;Node43 -->
<g id="edge48" class="edge">
<title>Node12&#45;&gt;Node43</title>
<path fill="none" stroke="#63b8ff" d="M1147.44,-176.11C1189.38,-168.06 1301.53,-149.17 1363.99,-138.69"/>
<polygon fill="#63b8ff" stroke="#63b8ff" points="1146.69,-172.69 1137.57,-178.08 1148.06,-179.55 1146.69,-172.69"/>
</g>
<!-- Node45 -->
<g id="node41" class="node">
<title>Node45</title>
<g id="a_node41"><a xlink:href="StageEditScene_8cpp.html" target="_top" xlink:title=" ">
<polygon fill="white" stroke="#666666" points="1581.5,-140 1468.5,-140 1468.5,-121 1581.5,-121 1581.5,-140"/>
<text text-anchor="middle" x="1525" y="-128" font-family="Helvetica,sans-Serif" font-size="10.00">StageEditScene.cpp</text>
</a>
</g>
</g>
<!-- Node12&#45;&gt;Node45 -->
<g id="edge49" class="edge">
<title>Node12&#45;&gt;Node45</title>
<path fill="none" stroke="#63b8ff" d="M1147.68,-176.11C1286.16,-151.72 1323.69,-156.52 1459,-140 1462.1,-139.62 1465.27,-139.23 1468.48,-138.83"/>
<polygon fill="#63b8ff" stroke="#63b8ff" points="1146.77,-172.71 1137.54,-177.91 1148,-179.61 1146.77,-172.71"/>
</g>
<!-- Node46 -->
<g id="node42" class="node">
<title>Node46</title>
<g id="a_node42"><a xlink:href="StageManager_8h.html" target="_top" xlink:title=" ">
<polygon fill="#fff0f0" stroke="red" points="487.5,-140 392.5,-140 392.5,-121 487.5,-121 487.5,-140"/>
<text text-anchor="middle" x="440" y="-128" font-family="Helvetica,sans-Serif" font-size="10.00">StageManager.h</text>
</a>
</g>
</g>
<!-- Node12&#45;&gt;Node46 -->
<g id="edge50" class="edge">
<title>Node12&#45;&gt;Node46</title>
<path fill="none" stroke="#63b8ff" d="M1076.52,-176.06C820.56,-137.23 751.03,-166.76 497,-140 493.92,-139.68 490.74,-139.3 487.55,-138.9"/>
<polygon fill="#63b8ff" stroke="#63b8ff" points="1076.07,-179.53 1086.48,-177.59 1077.13,-172.61 1076.07,-179.53"/>
</g>
<!-- Node48 -->
<g id="node43" class="node">
<title>Node48</title>
<g id="a_node43"><a xlink:href="TextBox_8h.html" target="_top" xlink:title=" ">
<polygon fill="#fff0f0" stroke="red" points="1664.5,-140 1599.5,-140 1599.5,-121 1664.5,-121 1664.5,-140"/>
<text text-anchor="middle" x="1632" y="-128" font-family="Helvetica,sans-Serif" font-size="10.00">TextBox.h</text>
</a>
</g>
</g>
<!-- Node12&#45;&gt;Node48 -->
<g id="edge53" class="edge">
<title>Node12&#45;&gt;Node48</title>
<path fill="none" stroke="#63b8ff" d="M1147.6,-176.2C1344.25,-145.31 1398.28,-167.68 1591,-140 1593.73,-139.61 1596.56,-139.14 1599.39,-138.64"/>
<polygon fill="#63b8ff" stroke="#63b8ff" points="1146.84,-172.78 1137.52,-177.81 1147.95,-179.69 1146.84,-172.78"/>
</g>
<!-- Node50 -->
<g id="node44" class="node">
<title>Node50</title>
<g id="a_node44"><a xlink:href="TimeLimit_8h.html" target="_top" xlink:title=" ">
<polygon fill="#fff0f0" stroke="red" points="1757.5,-140 1682.5,-140 1682.5,-121 1757.5,-121 1757.5,-140"/>
<text text-anchor="middle" x="1720" y="-128" font-family="Helvetica,sans-Serif" font-size="10.00">TimeLimit.h</text>
</a>
</g>
</g>
<!-- Node12&#45;&gt;Node50 -->
<g id="edge55" class="edge">
<title>Node12&#45;&gt;Node50</title>
<path fill="none" stroke="#63b8ff" d="M1147.67,-176.22C1380.81,-140.98 1444.38,-168.96 1674,-140 1676.74,-139.65 1679.56,-139.25 1682.4,-138.81"/>
<polygon fill="#63b8ff" stroke="#63b8ff" points="1146.87,-172.8 1137.51,-177.77 1147.93,-179.72 1146.87,-172.8"/>
</g>
<!-- Node52 -->
<g id="node45" class="node">
<title>Node52</title>
<g id="a_node45"><a xlink:href="mtgb_8cpp.html" target="_top" xlink:title=" ">
<polygon fill="white" stroke="#666666" points="1837,-140 1775,-140 1775,-121 1837,-121 1837,-140"/>
<text text-anchor="middle" x="1806" y="-128" font-family="Helvetica,sans-Serif" font-size="10.00">mtgb.cpp</text>
</a>
</g>
</g>
<!-- Node12&#45;&gt;Node52 -->
<g id="edge57" class="edge">
<title>Node12&#45;&gt;Node52</title>
<path fill="none" stroke="#63b8ff" d="M1147.76,-176.22C1421.82,-136.28 1496.88,-177.05 1767,-140 1769.61,-139.64 1772.3,-139.2 1775,-138.72"/>
<polygon fill="#63b8ff" stroke="#63b8ff" points="1146.89,-172.82 1137.51,-177.74 1147.91,-179.74 1146.89,-172.82"/>
</g>
<!-- Node14 -->
<g id="node14" class="node">
<title>Node14</title>
<g id="a_node14"><a xlink:href="Box3D_8cpp.html" target="_top" xlink:title=" ">
<polygon fill="white" stroke="#666666" points="2162.5,-79.5 2093.5,-79.5 2093.5,-60.5 2162.5,-60.5 2162.5,-79.5"/>
<text text-anchor="middle" x="2128" y="-67.5" font-family="Helvetica,sans-Serif" font-size="10.00">Box3D.cpp</text>
</a>
</g>
</g>
<!-- Node13&#45;&gt;Node14 -->
<g id="edge15" class="edge">
<title>Node13&#45;&gt;Node14</title>
<path fill="none" stroke="#63b8ff" d="M2022.79,-116.93C2048.66,-105.64 2085.95,-89.36 2108.49,-79.52"/>
<polygon fill="#63b8ff" stroke="#63b8ff" points="2021.25,-113.78 2013.48,-120.99 2024.05,-120.2 2021.25,-113.78"/>
</g>
<!-- Node15 -->
<g id="node15" class="node">
<title>Node15</title>
<g id="a_node15"><a xlink:href="GameObjectGenerator_8cpp.html" target="_top" xlink:title=" ">
<polygon fill="white" stroke="#666666" points="1895,-79.5 1749,-79.5 1749,-60.5 1895,-60.5 1895,-79.5"/>
<text text-anchor="middle" x="1822" y="-67.5" font-family="Helvetica,sans-Serif" font-size="10.00">GameObjectGenerator.cpp</text>
</a>
</g>
</g>
<!-- Node13&#45;&gt;Node15 -->
<g id="edge16" class="edge">
<title>Node13&#45;&gt;Node15</title>
<path fill="none" stroke="#63b8ff" d="M1959.22,-117.67C1925.96,-106.36 1876.61,-89.57 1847.04,-79.52"/>
<polygon fill="#63b8ff" stroke="#63b8ff" points="1958.4,-121.09 1968.99,-120.99 1960.65,-114.46 1958.4,-121.09"/>
</g>
<!-- Node16 -->
<g id="node16" class="node">
<title>Node16</title>
<g id="a_node16"><a xlink:href="RegisterCommonGameObjectType_8cpp.html" target="_top" xlink:title=" ">
<polygon fill="white" stroke="#666666" points="2075,-85 1913,-85 1913,-55 2075,-55 2075,-85"/>
<text text-anchor="start" x="1921" y="-73" font-family="Helvetica,sans-Serif" font-size="10.00">RegisterCommonGameObject</text>
<text text-anchor="middle" x="1994" y="-62" font-family="Helvetica,sans-Serif" font-size="10.00">Type.cpp</text>
</a>
</g>
</g>
<!-- Node13&#45;&gt;Node16 -->
<g id="edge17" class="edge">
<title>Node13&#45;&gt;Node16</title>
<path fill="none" stroke="#63b8ff" d="M1994,-110.65C1994,-102.36 1994,-92.78 1994,-85.11"/>
<polygon fill="#63b8ff" stroke="#63b8ff" points="1990.5,-110.87 1994,-120.87 1997.5,-110.87 1990.5,-110.87"/>
</g>
<!-- Node18 -->
<g id="node18" class="node">
<title>Node18</title>
<g id="a_node18"><a xlink:href="Camera_8cpp.html" target="_top" xlink:title=" ">
<polygon fill="white" stroke="#666666" points="180.5,-79.5 105.5,-79.5 105.5,-60.5 180.5,-60.5 180.5,-79.5"/>
<text text-anchor="middle" x="143" y="-67.5" font-family="Helvetica,sans-Serif" font-size="10.00">Camera.cpp</text>
</a>
</g>
</g>
<!-- Node17&#45;&gt;Node18 -->
<g id="edge19" class="edge">
<title>Node17&#45;&gt;Node18</title>
<path fill="none" stroke="#63b8ff" d="M207.92,-115.16C191.58,-104.05 169.48,-89.01 155.74,-79.67"/>
<polygon fill="#63b8ff" stroke="#63b8ff" points="206.07,-118.14 216.31,-120.87 210.01,-112.35 206.07,-118.14"/>
</g>
<!-- Node19 -->
<g id="node19" class="node">
<title>Node19</title>
<g id="a_node19"><a xlink:href="Player_8cpp.html" target="_top" xlink:title=" ">
<polygon fill="white" stroke="#666666" points="270.5,-19 203.5,-19 203.5,0 270.5,0 270.5,-19"/>
<text text-anchor="middle" x="237" y="-7" font-family="Helvetica,sans-Serif" font-size="10.00">Player.cpp</text>
</a>
</g>
</g>
<!-- Node17&#45;&gt;Node19 -->
<g id="edge20" class="edge">
<title>Node17&#45;&gt;Node19</title>
<path fill="none" stroke="#63b8ff" d="M227.57,-110.66C226.71,-95.57 226.11,-73.87 228,-55 229.26,-42.45 232.46,-28.21 234.68,-19.29"/>
<polygon fill="#63b8ff" stroke="#63b8ff" points="224.09,-111.01 228.24,-120.76 231.07,-110.55 224.09,-111.01"/>
</g>
<!-- Node17&#45;&gt;Node20 -->
<g id="edge21" class="edge">
<title>Node17&#45;&gt;Node20</title>
<path fill="none" stroke="#63b8ff" d="M239.58,-112.3C246.18,-101.58 254.39,-88.23 259.67,-79.67"/>
<polygon fill="#63b8ff" stroke="#63b8ff" points="236.57,-110.52 234.31,-120.87 242.53,-114.19 236.57,-110.52"/>
</g>
<!-- Node22 -->
<g id="node22" class="node">
<title>Node22</title>
<g id="a_node22"><a xlink:href="ResultScene_8cpp.html" target="_top" xlink:title=" ">
<polygon fill="white" stroke="#666666" points="408.5,-79.5 311.5,-79.5 311.5,-60.5 408.5,-60.5 408.5,-79.5"/>
<text text-anchor="middle" x="360" y="-67.5" font-family="Helvetica,sans-Serif" font-size="10.00">ResultScene.cpp</text>
</a>
</g>
</g>
<!-- Node17&#45;&gt;Node22 -->
<g id="edge24" class="edge">
<title>Node17&#45;&gt;Node22</title>
<path fill="none" stroke="#63b8ff" d="M257.48,-116.78C282.76,-105.49 318.99,-89.31 340.93,-79.52"/>
<polygon fill="#63b8ff" stroke="#63b8ff" points="255.75,-113.72 248.05,-120.99 258.61,-120.11 255.75,-113.72"/>
</g>
<!-- Node17&#45;&gt;Node23 -->
<g id="edge25" class="edge">
<title>Node17&#45;&gt;Node23</title>
<path fill="none" stroke="#63b8ff" d="M192.52,-117.96C156.73,-106.65 103.01,-89.66 70.93,-79.52"/>
<polygon fill="#63b8ff" stroke="#63b8ff" points="191.51,-121.32 202.1,-120.99 193.62,-114.64 191.51,-121.32"/>
</g>
<!-- Node20&#45;&gt;Node19 -->
<g id="edge22" class="edge">
<title>Node20&#45;&gt;Node19</title>
<path fill="none" stroke="#63b8ff" d="M256.46,-51.15C251.38,-40.54 245.17,-27.56 241.15,-19.17"/>
<polygon fill="#63b8ff" stroke="#63b8ff" points="253.39,-52.86 260.87,-60.37 259.71,-49.84 253.39,-52.86"/>
</g>
<!-- Node21 -->
<g id="node21" class="node">
<title>Node21</title>
<g id="a_node21"><a xlink:href="RegisterGameObjectType_8cpp.html" target="_top" xlink:title=" ">
<polygon fill="white" stroke="#666666" points="809.5,-19 648.5,-19 648.5,0 809.5,0 809.5,-19"/>
<text text-anchor="middle" x="729" y="-7" font-family="Helvetica,sans-Serif" font-size="10.00">RegisterGameObjectType.cpp</text>
</a>
</g>
</g>
<!-- Node20&#45;&gt;Node21 -->
<g id="edge23" class="edge">
<title>Node20&#45;&gt;Node21</title>
<path fill="none" stroke="#63b8ff" d="M294.35,-57.12C296.91,-56.32 299.49,-55.6 302,-55 420.58,-26.89 561.86,-16.53 648.48,-12.72"/>
<polygon fill="#63b8ff" stroke="#63b8ff" points="292.97,-53.89 284.68,-60.48 295.27,-60.5 292.97,-53.89"/>
</g>
<!-- Node24&#45;&gt;Node21 -->
<g id="edge28" class="edge">
<title>Node24&#45;&gt;Node21</title>
<path fill="none" stroke="#63b8ff" d="M687.28,-110.74C690.31,-95.39 695.49,-73.3 703,-55 708.36,-41.92 717.01,-28.03 722.85,-19.32"/>
<polygon fill="#63b8ff" stroke="#63b8ff" points="683.76,-110.52 685.37,-120.99 690.64,-111.8 683.76,-110.52"/>
</g>
<!-- Node25 -->
<g id="node25" class="node">
<title>Node25</title>
<g id="a_node25"><a xlink:href="GameOverZone_8cpp.html" target="_top" xlink:title=" ">
<polygon fill="white" stroke="#666666" points="656,-79.5 542,-79.5 542,-60.5 656,-60.5 656,-79.5"/>
<text text-anchor="middle" x="599" y="-67.5" font-family="Helvetica,sans-Serif" font-size="10.00">GameOverZone.cpp</text>
</a>
</g>
</g>
<!-- Node24&#45;&gt;Node25 -->
<g id="edge27" class="edge">
<title>Node24&#45;&gt;Node25</title>
<path fill="none" stroke="#63b8ff" d="M663.16,-115.16C647.01,-104.05 625.17,-89.01 611.59,-79.67"/>
<polygon fill="#63b8ff" stroke="#63b8ff" points="661.24,-118.08 671.46,-120.87 665.2,-112.32 661.24,-118.08"/>
</g>
<!-- Node26&#45;&gt;Node21 -->
<g id="edge31" class="edge">
<title>Node26&#45;&gt;Node21</title>
<path fill="none" stroke="#63b8ff" d="M525,-110.86C521.76,-94.29 520.22,-70.36 533,-55 547.98,-36.99 601.15,-25.63 648.34,-18.9"/>
<polygon fill="#63b8ff" stroke="#63b8ff" points="521.68,-112.02 527.36,-120.97 528.49,-110.43 521.68,-112.02"/>
</g>
<!-- Node27 -->
<g id="node27" class="node">
<title>Node27</title>
<g id="a_node27"><a xlink:href="Goal_8cpp.html" target="_top" xlink:title=" ">
<polygon fill="white" stroke="#666666" points="485.5,-79.5 426.5,-79.5 426.5,-60.5 485.5,-60.5 485.5,-79.5"/>
<text text-anchor="middle" x="456" y="-67.5" font-family="Helvetica,sans-Serif" font-size="10.00">Goal.cpp</text>
</a>
</g>
</g>
<!-- Node26&#45;&gt;Node27 -->
<g id="edge30" class="edge">
<title>Node26&#45;&gt;Node27</title>
<path fill="none" stroke="#63b8ff" d="M511.07,-114.54C497.1,-103.49 478.57,-88.84 466.96,-79.67"/>
<polygon fill="#63b8ff" stroke="#63b8ff" points="509.07,-117.41 519.08,-120.87 513.41,-111.92 509.07,-117.41"/>
</g>
<!-- Node29 -->
<g id="node29" class="node">
<title>Node29</title>
<g id="a_node29"><a xlink:href="HighlightEnemy_8cpp.html" target="_top" xlink:title=" ">
<polygon fill="white" stroke="#666666" points="1479.5,-79.5 1366.5,-79.5 1366.5,-60.5 1479.5,-60.5 1479.5,-79.5"/>
<text text-anchor="middle" x="1423" y="-67.5" font-family="Helvetica,sans-Serif" font-size="10.00">HighlightEnemy.cpp</text>
</a>
</g>
</g>
<!-- Node28&#45;&gt;Node29 -->
<g id="edge33" class="edge">
<title>Node28&#45;&gt;Node29</title>
<path fill="none" stroke="#63b8ff" d="M1186.88,-118.96C1242.47,-107.67 1329.64,-89.96 1381.07,-79.52"/>
<polygon fill="#63b8ff" stroke="#63b8ff" points="1185.98,-115.57 1176.88,-120.99 1187.37,-122.43 1185.98,-115.57"/>
</g>
<!-- Node31&#45;&gt;Node21 -->
<g id="edge39" class="edge">
<title>Node31&#45;&gt;Node21</title>
<path fill="none" stroke="#63b8ff" d="M990.3,-121.13C1078.34,-113.17 1272.52,-137.92 1320,-85 1328.9,-75.08 1329.07,-64.78 1320,-55 1286.02,-18.36 963.33,-11.7 809.64,-10.62"/>
<polygon fill="#63b8ff" stroke="#63b8ff" points="989.65,-117.68 980.1,-122.27 990.43,-124.64 989.65,-117.68"/>
</g>
<!-- Node32 -->
<g id="node32" class="node">
<title>Node32</title>
<g id="a_node32"><a xlink:href="MTImGui_8cpp.html" target="_top" xlink:title=" ">
<polygon fill="white" stroke="#666666" points="1028.5,-79.5 947.5,-79.5 947.5,-60.5 1028.5,-60.5 1028.5,-79.5"/>
<text text-anchor="middle" x="988" y="-67.5" font-family="Helvetica,sans-Serif" font-size="10.00">MTImGui.cpp</text>
</a>
</g>
</g>
<!-- Node31&#45;&gt;Node32 -->
<g id="edge36" class="edge">
<title>Node31&#45;&gt;Node32</title>
<path fill="none" stroke="#63b8ff" d="M951.15,-113.27C960.63,-102.39 972.75,-88.49 980.44,-79.67"/>
<polygon fill="#63b8ff" stroke="#63b8ff" points="948.46,-111.03 944.53,-120.87 953.73,-115.63 948.46,-111.03"/>
</g>
<!-- Node33 -->
<g id="node33" class="node">
<title>Node33</title>
<g id="a_node33"><a xlink:href="MovingFloor_8cpp.html" target="_top" xlink:title=" ">
<polygon fill="white" stroke="#666666" points="1143.5,-79.5 1046.5,-79.5 1046.5,-60.5 1143.5,-60.5 1143.5,-79.5"/>
<text text-anchor="middle" x="1095" y="-67.5" font-family="Helvetica,sans-Serif" font-size="10.00">MovingFloor.cpp</text>
</a>
</g>
</g>
<!-- Node31&#45;&gt;Node33 -->
<g id="edge37" class="edge">
<title>Node31&#45;&gt;Node33</title>
<path fill="none" stroke="#63b8ff" d="M969.74,-117.38C1000.28,-106.07 1045.07,-89.49 1072,-79.52"/>
<polygon fill="#63b8ff" stroke="#63b8ff" points="968.14,-114.24 959.97,-120.99 970.57,-120.8 968.14,-114.24"/>
</g>
<!-- Node34 -->
<g id="node34" class="node">
<title>Node34</title>
<g id="a_node34"><a xlink:href="MovingFloor_8generated_8cpp.html" target="_top" xlink:title=" ">
<polygon fill="white" stroke="#666666" points="1310.5,-79.5 1161.5,-79.5 1161.5,-60.5 1310.5,-60.5 1310.5,-79.5"/>
<text text-anchor="middle" x="1236" y="-67.5" font-family="Helvetica,sans-Serif" font-size="10.00">MovingFloor.generated.cpp</text>
</a>
</g>
</g>
<!-- Node31&#45;&gt;Node34 -->
<g id="edge38" class="edge">
<title>Node31&#45;&gt;Node34</title>
<path fill="none" stroke="#63b8ff" d="M990.17,-119.1C1047.82,-107.82 1138.75,-90.03 1192.37,-79.54"/>
<polygon fill="#63b8ff" stroke="#63b8ff" points="989.3,-115.7 980.16,-121.06 990.64,-122.57 989.3,-115.7"/>
</g>
<!-- Node35&#45;&gt;Node21 -->
<g id="edge41" class="edge">
<title>Node35&#45;&gt;Node21</title>
<path fill="none" stroke="#63b8ff" d="M761.02,-52.13C752.73,-41.35 742.32,-27.82 735.67,-19.17"/>
<polygon fill="#63b8ff" stroke="#63b8ff" points="758.49,-54.58 767.36,-60.37 764.04,-50.31 758.49,-54.58"/>
</g>
<!-- Node37&#45;&gt;Node39 -->
<g id="edge44" class="edge">
<title>Node37&#45;&gt;Node39</title>
<path fill="none" stroke="#63b8ff" d="M1849.19,-118.94C1793.11,-107.51 1704.88,-89.52 1653.93,-79.14"/>
<polygon fill="#63b8ff" stroke="#63b8ff" points="1848.77,-122.43 1859.27,-120.99 1850.17,-115.57 1848.77,-122.43"/>
</g>
<!-- Node41&#45;&gt;Node21 -->
<g id="edge47" class="edge">
<title>Node41&#45;&gt;Node21</title>
<path fill="none" stroke="#63b8ff" d="M858.63,-57.02C827.12,-45.71 780.63,-29.03 752.73,-19.02"/>
<polygon fill="#63b8ff" stroke="#63b8ff" points="857.7,-60.41 868.3,-60.49 860.07,-53.82 857.7,-60.41"/>
</g>
<!-- Node46&#45;&gt;Node22 -->
<g id="edge52" class="edge">
<title>Node46&#45;&gt;Node22</title>
<path fill="none" stroke="#63b8ff" d="M419.96,-114.85C404.81,-103.77 384.52,-88.93 371.85,-79.67"/>
<polygon fill="#63b8ff" stroke="#63b8ff" points="418.06,-117.79 428.2,-120.87 422.19,-112.14 418.06,-117.79"/>
</g>
<!-- Node46&#45;&gt;Node27 -->
<g id="edge51" class="edge">
<title>Node46&#45;&gt;Node27</title>
<path fill="none" stroke="#63b8ff" d="M445.06,-110.99C447.93,-100.51 451.38,-87.89 453.63,-79.67"/>
<polygon fill="#63b8ff" stroke="#63b8ff" points="441.62,-110.3 442.36,-120.87 448.38,-112.15 441.62,-110.3"/>
</g>
<!-- Node53&#45;&gt;Node3 -->
<g id="edge59" class="edge">
<title>Node53&#45;&gt;Node3</title>
<path fill="none" stroke="#63b8ff" d="M746.86,-221.53C742.82,-212.6 738.12,-202.22 734.89,-195.09"/>
<polygon fill="#63b8ff" stroke="#63b8ff" points="743.72,-223.08 751.04,-230.75 750.1,-220.19 743.72,-223.08"/>
</g>
<!-- Node53&#45;&gt;Node4 -->
<g id="edge60" class="edge">
<title>Node53&#45;&gt;Node4</title>
<path fill="none" stroke="#63b8ff" d="M788.82,-227.55C816.68,-217.71 855.51,-203.98 880.46,-195.17"/>
<polygon fill="#63b8ff" stroke="#63b8ff" points="787.36,-224.35 779.1,-230.98 789.69,-230.95 787.36,-224.35"/>
</g>
<!-- Node53&#45;&gt;Node10 -->
<g id="edge61" class="edge">
<title>Node53&#45;&gt;Node10</title>
<path fill="none" stroke="#63b8ff" d="M812.61,-230.84C961.63,-211.78 1001.12,-212.81 1147,-195 1149.7,-194.67 1152.46,-194.32 1155.24,-193.97"/>
<polygon fill="#63b8ff" stroke="#63b8ff" points="812.11,-227.37 802.64,-232.12 813,-234.32 812.11,-227.37"/>
</g>
<!-- Node53&#45;&gt;Node11 -->
<g id="edge63" class="edge">
<title>Node53&#45;&gt;Node11</title>
<path fill="none" stroke="#63b8ff" d="M807.2,-228.94C856.31,-219.01 928.93,-204.31 974.58,-195.08"/>
<polygon fill="#63b8ff" stroke="#63b8ff" points="806.2,-225.57 797.09,-230.98 807.59,-232.43 806.2,-225.57"/>
</g>
<!-- Node53&#45;&gt;Node12 -->
<g id="edge64" class="edge">
<title>Node53&#45;&gt;Node12</title>
<path fill="none" stroke="#63b8ff" d="M812.85,-230.77C931.28,-214.19 963.62,-216.94 1078,-195 1080.75,-194.47 1083.61,-193.86 1086.45,-193.21"/>
<polygon fill="#63b8ff" stroke="#63b8ff" points="812.06,-227.34 802.65,-232.21 813.04,-234.27 812.06,-227.34"/>
</g>
<!-- Node53&#45;&gt;Node32 -->
<g id="edge62" class="edge">
<title>Node53&#45;&gt;Node32</title>
<path fill="none" stroke="#63b8ff" d="M769.63,-223.49C792.5,-199.12 838.89,-152.24 885,-121 911,-103.38 944.14,-88.47 965.7,-79.63"/>
<polygon fill="#63b8ff" stroke="#63b8ff" points="767.05,-221.13 762.81,-230.84 772.18,-225.89 767.05,-221.13"/>
</g>
</g>
</svg>
