<?xml version="1.0" encoding="UTF-8" standalone="no"?>
<!DOCTYPE svg PUBLIC "-//W3C//DTD SVG 1.1//EN"
 "http://www.w3.org/Graphics/SVG/1.1/DTD/svg11.dtd">
<!-- Generated by graphviz version 2.43.0 (0)
 -->
<!-- Title: EffekseerMaterialCompilerDX12.h Pages: 1 -->
<svg width="278pt" height="104pt"
 viewBox="0.00 0.00 277.50 104.00" xmlns="http://www.w3.org/2000/svg" xmlns:xlink="http://www.w3.org/1999/xlink">
<g id="graph0" class="graph" transform="scale(1 1) rotate(0) translate(4 100)">
<title>EffekseerMaterialCompilerDX12.h</title>
<!-- Node1 -->
<g id="node1" class="node">
<title>Node1</title>
<g id="a_node1"><a xlink:title=" ">
<polygon fill="#999999" stroke="#666666" points="247.5,-96 100.5,-96 100.5,-66 247.5,-66 247.5,-96"/>
<text text-anchor="start" x="108.5" y="-84" font-family="Helvetica,sans-Serif" font-size="10.00">EffekseerMaterialCompiler</text>
<text text-anchor="middle" x="174" y="-73" font-family="Helvetica,sans-Serif" font-size="10.00">DX12.h</text>
</a>
</g>
</g>
<!-- Node2 -->
<g id="node2" class="node">
<title>Node2</title>
<g id="a_node2"><a xlink:title=" ">
<polygon fill="#e0e0e0" stroke="#999999" points="204,-30 0,-30 0,0 204,0 204,-30"/>
<text text-anchor="start" x="8" y="-18" font-family="Helvetica,sans-Serif" font-size="10.00">../../Effekseer/Effekseer</text>
<text text-anchor="middle" x="102" y="-7" font-family="Helvetica,sans-Serif" font-size="10.00">/Material/Effekseer.MaterialCompiler.h</text>
</a>
</g>
</g>
<!-- Node1&#45;&gt;Node2 -->
<g id="edge1" class="edge">
<title>Node1&#45;&gt;Node2</title>
<path fill="none" stroke="#63b8ff" d="M158.02,-65.8C148.51,-57.34 136.27,-46.46 125.66,-37.03"/>
<polygon fill="#63b8ff" stroke="#63b8ff" points="127.73,-34.19 117.93,-30.16 123.08,-39.42 127.73,-34.19"/>
</g>
<!-- Node3 -->
<g id="node3" class="node">
<title>Node3</title>
<g id="a_node3"><a xlink:title=" ">
<polygon fill="#e0e0e0" stroke="#999999" points="269.5,-24.5 222.5,-24.5 222.5,-5.5 269.5,-5.5 269.5,-24.5"/>
<text text-anchor="middle" x="246" y="-12.5" font-family="Helvetica,sans-Serif" font-size="10.00">vector</text>
</a>
</g>
</g>
<!-- Node1&#45;&gt;Node3 -->
<g id="edge2" class="edge">
<title>Node1&#45;&gt;Node3</title>
<path fill="none" stroke="#63b8ff" d="M189.98,-65.8C201.31,-55.72 216.53,-42.19 228.25,-31.78"/>
<polygon fill="#63b8ff" stroke="#63b8ff" points="230.9,-34.1 236.05,-24.84 226.25,-28.87 230.9,-34.1"/>
</g>
</g>
</svg>
