<?xml version="1.0" encoding="UTF-8" standalone="no"?>
<!DOCTYPE svg PUBLIC "-//W3C//DTD SVG 1.1//EN"
 "http://www.w3.org/Graphics/SVG/1.1/DTD/svg11.dtd">
<!-- Generated by graphviz version 2.43.0 (0)
 -->
<!-- Title: fold_right.hpp Pages: 1 -->
<svg width="644pt" height="357pt"
 viewBox="0.00 0.00 644.00 357.00" xmlns="http://www.w3.org/2000/svg" xmlns:xlink="http://www.w3.org/1999/xlink">
<g id="graph0" class="graph" transform="scale(1 1) rotate(0) translate(4 353)">
<title>fold_right.hpp</title>
<!-- Node1 -->
<g id="node1" class="node">
<title>Node1</title>
<g id="a_node1"><a xlink:title=" ">
<polygon fill="#999999" stroke="#666666" points="332,-349 248,-349 248,-330 332,-330 332,-349"/>
<text text-anchor="middle" x="290" y="-337" font-family="Helvetica,sans-Serif" font-size="10.00">fold_right.hpp</text>
</a>
</g>
</g>
<!-- Node2 -->
<g id="node2" class="node">
<title>Node2</title>
<g id="a_node2"><a xlink:href="preprocessor_2config_2config_8hpp.html" target="_top" xlink:title=" ">
<polygon fill="white" stroke="#666666" points="297,-30 187,-30 187,0 297,0 297,-30"/>
<text text-anchor="start" x="195" y="-18" font-family="Helvetica,sans-Serif" font-size="10.00">boost/preprocessor</text>
<text text-anchor="middle" x="242" y="-7" font-family="Helvetica,sans-Serif" font-size="10.00">/config/config.hpp</text>
</a>
</g>
</g>
<!-- Node1&#45;&gt;Node2 -->
<g id="edge1" class="edge">
<title>Node1&#45;&gt;Node2</title>
<path fill="none" stroke="#63b8ff" d="M247.83,-338.85C167.4,-337.07 0,-320.57 0,-214 0,-214 0,-214 0,-146 0,-65.66 104.8,-34.76 176.47,-23.02"/>
<polygon fill="#63b8ff" stroke="#63b8ff" points="177.44,-26.41 186.78,-21.43 176.37,-19.5 177.44,-26.41"/>
</g>
<!-- Node3 -->
<g id="node3" class="node">
<title>Node3</title>
<g id="a_node3"><a xlink:href="iif_8hpp.html" target="_top" xlink:title=" ">
<polygon fill="white" stroke="#666666" points="138,-162 28,-162 28,-132 138,-132 138,-162"/>
<text text-anchor="start" x="36" y="-150" font-family="Helvetica,sans-Serif" font-size="10.00">boost/preprocessor</text>
<text text-anchor="middle" x="83" y="-139" font-family="Helvetica,sans-Serif" font-size="10.00">/control/iif.hpp</text>
</a>
</g>
</g>
<!-- Node1&#45;&gt;Node3 -->
<g id="edge2" class="edge">
<title>Node1&#45;&gt;Node3</title>
<path fill="none" stroke="#63b8ff" d="M276.67,-329.92C263.49,-321.27 242.89,-307.33 226,-294 191.4,-266.7 182.9,-259.42 152,-228 133.6,-209.29 114.22,-186.51 100.7,-170.05"/>
<polygon fill="#63b8ff" stroke="#63b8ff" points="103.23,-167.61 94.2,-162.07 97.8,-172.04 103.23,-167.61"/>
</g>
<!-- Node4 -->
<g id="node4" class="node">
<title>Node4</title>
<g id="a_node4"><a xlink:href="preprocessor_2list_2adt_8hpp.html" target="_top" xlink:title=" ">
<polygon fill="white" stroke="#666666" points="345,-294 235,-294 235,-264 345,-264 345,-294"/>
<text text-anchor="start" x="243" y="-282" font-family="Helvetica,sans-Serif" font-size="10.00">boost/preprocessor</text>
<text text-anchor="middle" x="290" y="-271" font-family="Helvetica,sans-Serif" font-size="10.00">/list/adt.hpp</text>
</a>
</g>
</g>
<!-- Node1&#45;&gt;Node4 -->
<g id="edge4" class="edge">
<title>Node1&#45;&gt;Node4</title>
<path fill="none" stroke="#63b8ff" d="M290,-329.87C290,-323.11 290,-313.35 290,-304.26"/>
<polygon fill="#63b8ff" stroke="#63b8ff" points="293.5,-304.11 290,-294.11 286.5,-304.11 293.5,-304.11"/>
</g>
<!-- Node9 -->
<g id="node9" class="node">
<title>Node9</title>
<g id="a_node9"><a xlink:href="eat_8hpp.html" target="_top" xlink:title=" ">
<polygon fill="white" stroke="#666666" points="492,-228 382,-228 382,-198 492,-198 492,-228"/>
<text text-anchor="start" x="390" y="-216" font-family="Helvetica,sans-Serif" font-size="10.00">boost/preprocessor</text>
<text text-anchor="middle" x="437" y="-205" font-family="Helvetica,sans-Serif" font-size="10.00">/tuple/eat.hpp</text>
</a>
</g>
</g>
<!-- Node1&#45;&gt;Node9 -->
<g id="edge16" class="edge">
<title>Node1&#45;&gt;Node9</title>
<path fill="none" stroke="#63b8ff" d="M303.69,-329.89C316.97,-321.34 337.47,-307.57 354,-294 376.47,-275.56 400.16,-252.29 416.45,-235.61"/>
<polygon fill="#63b8ff" stroke="#63b8ff" points="419.38,-237.62 423.82,-228 414.35,-232.75 419.38,-237.62"/>
</g>
<!-- Node10 -->
<g id="node10" class="node">
<title>Node10</title>
<g id="a_node10"><a xlink:href="preprocessor_2config_2limits_8hpp.html" target="_top" xlink:title=" ">
<polygon fill="white" stroke="#666666" points="636,-96 526,-96 526,-66 636,-66 636,-96"/>
<text text-anchor="start" x="534" y="-84" font-family="Helvetica,sans-Serif" font-size="10.00">boost/preprocessor</text>
<text text-anchor="middle" x="581" y="-73" font-family="Helvetica,sans-Serif" font-size="10.00">/config/limits.hpp</text>
</a>
</g>
</g>
<!-- Node1&#45;&gt;Node10 -->
<g id="edge17" class="edge">
<title>Node1&#45;&gt;Node10</title>
<path fill="none" stroke="#63b8ff" d="M318.35,-329.92C362.39,-315.35 447.68,-281.99 501,-228 536.58,-191.97 560.93,-136.88 572.76,-105.69"/>
<polygon fill="#63b8ff" stroke="#63b8ff" points="576.12,-106.68 576.28,-96.09 569.55,-104.27 576.12,-106.68"/>
</g>
<!-- Node3&#45;&gt;Node2 -->
<g id="edge3" class="edge">
<title>Node3&#45;&gt;Node2</title>
<path fill="none" stroke="#63b8ff" d="M92.72,-131.95C105.06,-114.84 127.67,-85.8 152,-66 166.83,-53.93 184.99,-43.21 201.1,-34.83"/>
<polygon fill="#63b8ff" stroke="#63b8ff" points="202.97,-37.81 210.31,-30.17 199.81,-31.56 202.97,-37.81"/>
</g>
<!-- Node4&#45;&gt;Node2 -->
<g id="edge5" class="edge">
<title>Node4&#45;&gt;Node2</title>
<path fill="none" stroke="#63b8ff" d="M246.75,-263.95C230.01,-256.15 212.6,-244.59 203,-228 189.46,-204.6 169.98,-209.92 214,-66 216.88,-56.6 221.7,-47.01 226.55,-38.77"/>
<polygon fill="#63b8ff" stroke="#63b8ff" points="229.61,-40.47 231.92,-30.13 223.67,-36.77 229.61,-40.47"/>
</g>
<!-- Node5 -->
<g id="node5" class="node">
<title>Node5</title>
<g id="a_node5"><a xlink:href="is__binary_8hpp.html" target="_top" xlink:title=" ">
<polygon fill="white" stroke="#666666" points="326,-228 212,-228 212,-198 326,-198 326,-228"/>
<text text-anchor="start" x="220" y="-216" font-family="Helvetica,sans-Serif" font-size="10.00">boost/preprocessor</text>
<text text-anchor="middle" x="269" y="-205" font-family="Helvetica,sans-Serif" font-size="10.00">/detail/is_binary.hpp</text>
</a>
</g>
</g>
<!-- Node4&#45;&gt;Node5 -->
<g id="edge6" class="edge">
<title>Node4&#45;&gt;Node5</title>
<path fill="none" stroke="#63b8ff" d="M285.34,-263.8C282.84,-256.17 279.69,-246.57 276.82,-237.84"/>
<polygon fill="#63b8ff" stroke="#63b8ff" points="280.09,-236.57 273.65,-228.16 273.44,-238.76 280.09,-236.57"/>
</g>
<!-- Node8 -->
<g id="node8" class="node">
<title>Node8</title>
<g id="a_node8"><a xlink:href="compl_8hpp.html" target="_top" xlink:title=" ">
<polygon fill="white" stroke="#666666" points="470,-162 360,-162 360,-132 470,-132 470,-162"/>
<text text-anchor="start" x="368" y="-150" font-family="Helvetica,sans-Serif" font-size="10.00">boost/preprocessor</text>
<text text-anchor="middle" x="415" y="-139" font-family="Helvetica,sans-Serif" font-size="10.00">/logical/compl.hpp</text>
</a>
</g>
</g>
<!-- Node4&#45;&gt;Node8 -->
<g id="edge12" class="edge">
<title>Node4&#45;&gt;Node8</title>
<path fill="none" stroke="#63b8ff" d="M303.62,-263.84C325.5,-241.08 368.64,-196.21 394.34,-169.49"/>
<polygon fill="#63b8ff" stroke="#63b8ff" points="396.99,-171.78 401.4,-162.14 391.95,-166.92 396.99,-171.78"/>
</g>
<!-- Node4&#45;&gt;Node9 -->
<g id="edge14" class="edge">
<title>Node4&#45;&gt;Node9</title>
<path fill="none" stroke="#63b8ff" d="M322.26,-263.95C343.8,-254.58 372.33,-242.16 395.55,-232.05"/>
<polygon fill="#63b8ff" stroke="#63b8ff" points="397.04,-235.21 404.82,-228.01 394.25,-228.8 397.04,-235.21"/>
</g>
<!-- Node5&#45;&gt;Node2 -->
<g id="edge7" class="edge">
<title>Node5&#45;&gt;Node2</title>
<path fill="none" stroke="#63b8ff" d="M250.59,-197.97C240.35,-188.96 228.57,-176.29 223,-162 207.05,-121.1 221.05,-69.36 232,-39.74"/>
<polygon fill="#63b8ff" stroke="#63b8ff" points="235.33,-40.83 235.69,-30.24 228.8,-38.29 235.33,-40.83"/>
</g>
<!-- Node6 -->
<g id="node6" class="node">
<title>Node6</title>
<g id="a_node6"><a xlink:href="check_8hpp.html" target="_top" xlink:title=" ">
<polygon fill="white" stroke="#666666" points="342,-162 232,-162 232,-132 342,-132 342,-162"/>
<text text-anchor="start" x="240" y="-150" font-family="Helvetica,sans-Serif" font-size="10.00">boost/preprocessor</text>
<text text-anchor="middle" x="287" y="-139" font-family="Helvetica,sans-Serif" font-size="10.00">/detail/check.hpp</text>
</a>
</g>
</g>
<!-- Node5&#45;&gt;Node6 -->
<g id="edge8" class="edge">
<title>Node5&#45;&gt;Node6</title>
<path fill="none" stroke="#63b8ff" d="M272.99,-197.8C275.14,-190.17 277.84,-180.57 280.29,-171.84"/>
<polygon fill="#63b8ff" stroke="#63b8ff" points="283.68,-172.74 283.02,-162.16 276.94,-170.84 283.68,-172.74"/>
</g>
<!-- Node6&#45;&gt;Node2 -->
<g id="edge11" class="edge">
<title>Node6&#45;&gt;Node2</title>
<path fill="none" stroke="#63b8ff" d="M278.52,-131.99C272.9,-122.19 265.71,-108.65 261,-96 254.24,-77.85 249.31,-56.46 246.17,-40.37"/>
<polygon fill="#63b8ff" stroke="#63b8ff" points="249.54,-39.38 244.28,-30.18 242.66,-40.65 249.54,-39.38"/>
</g>
<!-- Node7 -->
<g id="node7" class="node">
<title>Node7</title>
<g id="a_node7"><a xlink:href="cat_8hpp.html" target="_top" xlink:title=" ">
<polygon fill="white" stroke="#666666" points="380,-96 270,-96 270,-66 380,-66 380,-96"/>
<text text-anchor="start" x="278" y="-84" font-family="Helvetica,sans-Serif" font-size="10.00">boost/preprocessor</text>
<text text-anchor="middle" x="325" y="-73" font-family="Helvetica,sans-Serif" font-size="10.00">/cat.hpp</text>
</a>
</g>
</g>
<!-- Node6&#45;&gt;Node7 -->
<g id="edge9" class="edge">
<title>Node6&#45;&gt;Node7</title>
<path fill="none" stroke="#63b8ff" d="M295.43,-131.8C300.11,-123.92 306.03,-113.95 311.35,-104.99"/>
<polygon fill="#63b8ff" stroke="#63b8ff" points="314.49,-106.55 316.59,-96.16 308.48,-102.98 314.49,-106.55"/>
</g>
<!-- Node7&#45;&gt;Node2 -->
<g id="edge10" class="edge">
<title>Node7&#45;&gt;Node2</title>
<path fill="none" stroke="#63b8ff" d="M306.58,-65.8C295.4,-57.18 280.95,-46.04 268.56,-36.48"/>
<polygon fill="#63b8ff" stroke="#63b8ff" points="270.43,-33.5 260.37,-30.16 266.15,-39.04 270.43,-33.5"/>
</g>
<!-- Node8&#45;&gt;Node2 -->
<g id="edge13" class="edge">
<title>Node8&#45;&gt;Node2</title>
<path fill="none" stroke="#63b8ff" d="M414.17,-131.9C412.38,-114.2 406.74,-83.99 389,-66 367.32,-44.03 335.63,-31.71 307.22,-24.8"/>
<polygon fill="#63b8ff" stroke="#63b8ff" points="307.85,-21.36 297.33,-22.58 306.31,-28.19 307.85,-21.36"/>
</g>
<!-- Node9&#45;&gt;Node2 -->
<g id="edge15" class="edge">
<title>Node9&#45;&gt;Node2</title>
<path fill="none" stroke="#63b8ff" d="M453.84,-197.65C463.2,-188.52 473.96,-175.85 479,-162 483.56,-149.47 484.19,-144.28 479,-132 450.83,-65.39 367.27,-36.82 307.36,-24.71"/>
<polygon fill="#63b8ff" stroke="#63b8ff" points="307.69,-21.21 297.21,-22.76 306.38,-28.08 307.69,-21.21"/>
</g>
<!-- Node10&#45;&gt;Node2 -->
<g id="edge18" class="edge">
<title>Node10&#45;&gt;Node2</title>
<path fill="none" stroke="#63b8ff" d="M525.65,-68.68C521.04,-67.77 516.44,-66.86 512,-66 442.06,-52.43 361.76,-37.66 307.04,-27.72"/>
<polygon fill="#63b8ff" stroke="#63b8ff" points="307.59,-24.27 297.12,-25.92 306.34,-31.15 307.59,-24.27"/>
</g>
</g>
</svg>
