<?xml version="1.0" encoding="UTF-8" standalone="no"?>
<!DOCTYPE svg PUBLIC "-//W3C//DTD SVG 1.1//EN"
 "http://www.w3.org/Graphics/SVG/1.1/DTD/svg11.dtd">
<!-- Generated by graphviz version 2.43.0 (0)
 -->
<!-- Title: Matrix4x4.h Pages: 1 -->
<svg width="2633pt" height="302pt"
 viewBox="0.00 0.00 2632.50 302.00" xmlns="http://www.w3.org/2000/svg" xmlns:xlink="http://www.w3.org/1999/xlink">
<g id="graph0" class="graph" transform="scale(1 1) rotate(0) translate(4 298)">
<title>Matrix4x4.h</title>
<!-- Node1 -->
<g id="node1" class="node">
<title>Node1</title>
<g id="a_node1"><a xlink:title=" ">
<polygon fill="#999999" stroke="#666666" points="1386.5,-294 1311.5,-294 1311.5,-275 1386.5,-275 1386.5,-294"/>
<text text-anchor="middle" x="1349" y="-282" font-family="Helvetica,sans-Serif" font-size="10.00">Matrix4x4.h</text>
</a>
</g>
</g>
<!-- Node2 -->
<g id="node2" class="node">
<title>Node2</title>
<g id="a_node2"><a xlink:href="CameraSystem_8h.html" target="_top" xlink:title=" ">
<polygon fill="white" stroke="#666666" points="974.5,-184 873.5,-184 873.5,-165 974.5,-165 974.5,-184"/>
<text text-anchor="middle" x="924" y="-172" font-family="Helvetica,sans-Serif" font-size="10.00">CameraSystem.h</text>
</a>
</g>
</g>
<!-- Node1&#45;&gt;Node2 -->
<g id="edge1" class="edge">
<title>Node1&#45;&gt;Node2</title>
<path fill="none" stroke="#63b8ff" d="M1301.23,-282.78C1183.11,-280.5 884.75,-271.55 855,-239 835.67,-217.85 875.53,-195.77 902.33,-184.03"/>
<polygon fill="#63b8ff" stroke="#63b8ff" points="1301.35,-286.28 1311.41,-282.97 1301.48,-279.28 1301.35,-286.28"/>
</g>
<!-- Node12 -->
<g id="node12" class="node">
<title>Node12</title>
<g id="a_node12"><a xlink:href="Intersection_8cpp.html" target="_top" xlink:title=" ">
<polygon fill="white" stroke="#666666" points="425.5,-129 330.5,-129 330.5,-110 425.5,-110 425.5,-129"/>
<text text-anchor="middle" x="378" y="-117" font-family="Helvetica,sans-Serif" font-size="10.00">Intersection.cpp</text>
</a>
</g>
</g>
<!-- Node1&#45;&gt;Node12 -->
<g id="edge51" class="edge">
<title>Node1&#45;&gt;Node12</title>
<path fill="none" stroke="#63b8ff" d="M1301.22,-282.57C1164.98,-279.58 776.5,-268.62 653,-239 548.35,-213.91 433.14,-151.92 392.87,-129.1"/>
<polygon fill="#63b8ff" stroke="#63b8ff" points="1301.27,-286.07 1311.34,-282.79 1301.42,-279.07 1301.27,-286.07"/>
</g>
<!-- Node14 -->
<g id="node14" class="node">
<title>Node14</title>
<g id="a_node14"><a xlink:href="OBJ_8cpp.html" target="_top" xlink:title=" ">
<polygon fill="white" stroke="#666666" points="1373,-129 1319,-129 1319,-110 1373,-110 1373,-129"/>
<text text-anchor="middle" x="1346" y="-117" font-family="Helvetica,sans-Serif" font-size="10.00">OBJ.cpp</text>
</a>
</g>
</g>
<!-- Node1&#45;&gt;Node14 -->
<g id="edge53" class="edge">
<title>Node1&#45;&gt;Node14</title>
<path fill="none" stroke="#63b8ff" d="M1301.1,-282.14C1192.16,-277.46 941.33,-256.67 1022,-165 1063.59,-117.74 1240.86,-139.11 1303,-129 1308.11,-128.17 1313.54,-127.18 1318.75,-126.17"/>
<polygon fill="#63b8ff" stroke="#63b8ff" points="1301.05,-285.65 1311.18,-282.55 1301.33,-278.65 1301.05,-285.65"/>
</g>
<!-- Node74 -->
<g id="node21" class="node">
<title>Node74</title>
<g id="a_node21"><a xlink:href="Collider_8cpp.html" target="_top" xlink:title=" ">
<polygon fill="white" stroke="#666666" points="1105,-184 1031,-184 1031,-165 1105,-165 1105,-184"/>
<text text-anchor="middle" x="1068" y="-172" font-family="Helvetica,sans-Serif" font-size="10.00">Collider.cpp</text>
</a>
</g>
</g>
<!-- Node1&#45;&gt;Node74 -->
<g id="edge20" class="edge">
<title>Node1&#45;&gt;Node74</title>
<path fill="none" stroke="#63b8ff" d="M1316.79,-271.12C1259.14,-248.96 1139.73,-203.07 1090.24,-184.05"/>
<polygon fill="#63b8ff" stroke="#63b8ff" points="1315.89,-274.52 1326.48,-274.84 1318.4,-267.99 1315.89,-274.52"/>
</g>
<!-- Node75 -->
<g id="node22" class="node">
<title>Node75</title>
<g id="a_node22"><a xlink:href="EffekseerVFX_8h.html" target="_top" xlink:title=" ">
<polygon fill="white" stroke="#666666" points="289.5,-184 198.5,-184 198.5,-165 289.5,-165 289.5,-184"/>
<text text-anchor="middle" x="244" y="-172" font-family="Helvetica,sans-Serif" font-size="10.00">EffekseerVFX.h</text>
</a>
</g>
</g>
<!-- Node1&#45;&gt;Node75 -->
<g id="edge21" class="edge">
<title>Node1&#45;&gt;Node75</title>
<path fill="none" stroke="#63b8ff" d="M1301.13,-282.95C1137.24,-280.79 599.46,-271.36 430,-239 366.99,-226.97 296.21,-198.36 263.06,-184.01"/>
<polygon fill="#63b8ff" stroke="#63b8ff" points="1301.33,-286.45 1311.38,-283.08 1301.42,-279.45 1301.33,-286.45"/>
</g>
<!-- Node77 -->
<g id="node24" class="node">
<title>Node77</title>
<g id="a_node24"><a xlink:href="FbxParts_8h.html" target="_top" xlink:title=" ">
<polygon fill="white" stroke="#666666" points="730,-239 662,-239 662,-220 730,-220 730,-239"/>
<text text-anchor="middle" x="696" y="-227" font-family="Helvetica,sans-Serif" font-size="10.00">FbxParts.h</text>
</a>
</g>
</g>
<!-- Node1&#45;&gt;Node77 -->
<g id="edge25" class="edge">
<title>Node1&#45;&gt;Node77</title>
<path fill="none" stroke="#63b8ff" d="M1300.97,-279.6C1175.18,-269.39 838.35,-242.05 730.04,-233.26"/>
<polygon fill="#63b8ff" stroke="#63b8ff" points="1300.82,-283.1 1311.07,-280.42 1301.39,-276.12 1300.82,-283.1"/>
</g>
<!-- Node80 -->
<g id="node27" class="node">
<title>Node80</title>
<g id="a_node27"><a xlink:href="Figure_8h.html" target="_top" xlink:title=" ">
<polygon fill="white" stroke="#666666" points="2557,-239 2501,-239 2501,-220 2557,-220 2557,-239"/>
<text text-anchor="middle" x="2529" y="-227" font-family="Helvetica,sans-Serif" font-size="10.00">Figure.h</text>
</a>
</g>
</g>
<!-- Node1&#45;&gt;Node80 -->
<g id="edge29" class="edge">
<title>Node1&#45;&gt;Node80</title>
<path fill="none" stroke="#63b8ff" d="M1397.01,-281.9C1546.21,-276.85 2015.02,-260.27 2403,-239 2436.71,-237.15 2475.46,-234.45 2500.99,-232.59"/>
<polygon fill="#63b8ff" stroke="#63b8ff" points="1396.7,-278.41 1386.83,-282.25 1396.94,-285.41 1396.7,-278.41"/>
</g>
<!-- Node82 -->
<g id="node29" class="node">
<title>Node82</title>
<g id="a_node29"><a xlink:href="ImGuiUtil_8h.html" target="_top" xlink:title=" ">
<polygon fill="white" stroke="#666666" points="154,-129 82,-129 82,-110 154,-110 154,-129"/>
<text text-anchor="middle" x="118" y="-117" font-family="Helvetica,sans-Serif" font-size="10.00">ImGuiUtil.h</text>
</a>
</g>
</g>
<!-- Node1&#45;&gt;Node82 -->
<g id="edge32" class="edge">
<title>Node1&#45;&gt;Node82</title>
<path fill="none" stroke="#63b8ff" d="M1301.22,-283.04C1129.37,-281.14 543.18,-272.31 359,-239 280.86,-224.87 257.86,-223.55 189,-184 162.61,-168.85 137.48,-142.67 125.43,-129.15"/>
<polygon fill="#63b8ff" stroke="#63b8ff" points="1301.42,-286.55 1311.46,-283.15 1301.5,-279.55 1301.42,-286.55"/>
</g>
<!-- Node85 -->
<g id="node32" class="node">
<title>Node85</title>
<g id="a_node32"><a xlink:href="ImGuizmoManipulator_8h.html" target="_top" xlink:title=" ">
<polygon fill="white" stroke="#666666" points="1915,-184 1781,-184 1781,-165 1915,-165 1915,-184"/>
<text text-anchor="middle" x="1848" y="-172" font-family="Helvetica,sans-Serif" font-size="10.00">ImGuizmoManipulator.h</text>
</a>
</g>
</g>
<!-- Node1&#45;&gt;Node85 -->
<g id="edge37" class="edge">
<title>Node1&#45;&gt;Node85</title>
<path fill="none" stroke="#63b8ff" d="M1396.74,-278.7C1446.63,-272.78 1526.72,-260.73 1593,-239 1611.32,-232.99 1613.75,-226.22 1632,-220 1682.56,-202.78 1742.16,-191.11 1785.93,-184.06"/>
<polygon fill="#63b8ff" stroke="#63b8ff" points="1396.11,-275.25 1386.57,-279.87 1396.91,-282.2 1396.11,-275.25"/>
</g>
<!-- Node93 -->
<g id="node36" class="node">
<title>Node93</title>
<g id="a_node36"><a xlink:href="Matrix4x4_8cpp.html" target="_top" xlink:title=" ">
<polygon fill="white" stroke="#666666" points="1584,-239 1498,-239 1498,-220 1584,-220 1584,-239"/>
<text text-anchor="middle" x="1541" y="-227" font-family="Helvetica,sans-Serif" font-size="10.00">Matrix4x4.cpp</text>
</a>
</g>
</g>
<!-- Node1&#45;&gt;Node93 -->
<g id="edge52" class="edge">
<title>Node1&#45;&gt;Node93</title>
<path fill="none" stroke="#63b8ff" d="M1389.53,-272.31C1425.46,-262.39 1477.16,-248.12 1509.91,-239.08"/>
<polygon fill="#63b8ff" stroke="#63b8ff" points="1388.56,-268.95 1379.85,-274.98 1390.42,-275.7 1388.56,-268.95"/>
</g>
<!-- Node94 -->
<g id="node37" class="node">
<title>Node94</title>
<g id="a_node37"><a xlink:href="PlaneUVScroll_8h.html" target="_top" xlink:title=" ">
<polygon fill="white" stroke="#666666" points="2377,-184 2283,-184 2283,-165 2377,-165 2377,-184"/>
<text text-anchor="middle" x="2330" y="-172" font-family="Helvetica,sans-Serif" font-size="10.00">PlaneUVScroll.h</text>
</a>
</g>
</g>
<!-- Node1&#45;&gt;Node94 -->
<g id="edge54" class="edge">
<title>Node1&#45;&gt;Node94</title>
<path fill="none" stroke="#63b8ff" d="M1396.99,-283.46C1553.03,-282.95 2044.76,-278.19 2198,-239 2244.32,-227.15 2293.8,-198.46 2316.81,-184.05"/>
<polygon fill="#63b8ff" stroke="#63b8ff" points="1396.76,-279.96 1386.77,-283.49 1396.78,-286.96 1396.76,-279.96"/>
</g>
<!-- Node95 -->
<g id="node38" class="node">
<title>Node95</title>
<g id="a_node38"><a xlink:href="Quaternion_8cpp.html" target="_top" xlink:title=" ">
<polygon fill="white" stroke="#666666" points="1731.5,-239 1640.5,-239 1640.5,-220 1731.5,-220 1731.5,-239"/>
<text text-anchor="middle" x="1686" y="-227" font-family="Helvetica,sans-Serif" font-size="10.00">Quaternion.cpp</text>
</a>
</g>
</g>
<!-- Node1&#45;&gt;Node95 -->
<g id="edge58" class="edge">
<title>Node1&#45;&gt;Node95</title>
<path fill="none" stroke="#63b8ff" d="M1396.63,-276.01C1461.4,-265.82 1576.49,-247.72 1640.27,-237.69"/>
<polygon fill="#63b8ff" stroke="#63b8ff" points="1396.01,-272.56 1386.68,-277.57 1397.1,-279.48 1396.01,-272.56"/>
</g>
<!-- Node96 -->
<g id="node39" class="node">
<title>Node96</title>
<g id="a_node39"><a xlink:href="ReflectionInfo_8h.html" target="_top" xlink:title=" ">
<polygon fill="white" stroke="#666666" points="2188.5,-239 2095.5,-239 2095.5,-220 2188.5,-220 2188.5,-239"/>
<text text-anchor="middle" x="2142" y="-227" font-family="Helvetica,sans-Serif" font-size="10.00">ReflectionInfo.h</text>
</a>
</g>
</g>
<!-- Node1&#45;&gt;Node96 -->
<g id="edge59" class="edge">
<title>Node1&#45;&gt;Node96</title>
<path fill="none" stroke="#63b8ff" d="M1396.83,-280.3C1538.55,-270.83 1955.09,-242.99 2095.32,-233.62"/>
<polygon fill="#63b8ff" stroke="#63b8ff" points="1396.46,-276.82 1386.71,-280.98 1396.93,-283.8 1396.46,-276.82"/>
</g>
<!-- Node117 -->
<g id="node42" class="node">
<title>Node117</title>
<g id="a_node42"><a xlink:href="Sprite_8h.html" target="_top" xlink:title=" ">
<polygon fill="white" stroke="#666666" points="2394,-239 2340,-239 2340,-220 2394,-220 2394,-239"/>
<text text-anchor="middle" x="2367" y="-227" font-family="Helvetica,sans-Serif" font-size="10.00">Sprite.h</text>
</a>
</g>
</g>
<!-- Node1&#45;&gt;Node117 -->
<g id="edge63" class="edge">
<title>Node1&#45;&gt;Node117</title>
<path fill="none" stroke="#63b8ff" d="M1396.86,-282.24C1535.14,-278.4 1947.04,-265.4 2288,-239 2305.33,-237.66 2324.74,-235.58 2339.98,-233.81"/>
<polygon fill="#63b8ff" stroke="#63b8ff" points="1396.52,-278.75 1386.62,-282.53 1396.71,-285.75 1396.52,-278.75"/>
</g>
<!-- Node120 -->
<g id="node45" class="node">
<title>Node120</title>
<g id="a_node45"><a xlink:href="Transform_8h.html" target="_top" xlink:title=" ">
<polygon fill="#fff0f0" stroke="red" points="1480,-239 1406,-239 1406,-220 1480,-220 1480,-239"/>
<text text-anchor="middle" x="1443" y="-227" font-family="Helvetica,sans-Serif" font-size="10.00">Transform.h</text>
</a>
</g>
</g>
<!-- Node1&#45;&gt;Node120 -->
<g id="edge67" class="edge">
<title>Node1&#45;&gt;Node120</title>
<path fill="none" stroke="#63b8ff" d="M1373,-269.97C1390.19,-260.28 1412.81,-247.52 1427.62,-239.17"/>
<polygon fill="#63b8ff" stroke="#63b8ff" points="1371.09,-267.02 1364.1,-274.98 1374.53,-273.12 1371.09,-267.02"/>
</g>
<!-- Node171 -->
<g id="node50" class="node">
<title>Node171</title>
<g id="a_node50"><a xlink:href="WorldToScreenData_8h.html" target="_top" xlink:title=" ">
<polygon fill="white" stroke="#666666" points="984,-239 864,-239 864,-220 984,-220 984,-239"/>
<text text-anchor="middle" x="924" y="-227" font-family="Helvetica,sans-Serif" font-size="10.00">WorldToScreenData.h</text>
</a>
</g>
</g>
<!-- Node1&#45;&gt;Node171 -->
<g id="edge84" class="edge">
<title>Node1&#45;&gt;Node171</title>
<path fill="none" stroke="#63b8ff" d="M1301.28,-277.55C1223.47,-267.85 1069.41,-248.63 984.2,-238.01"/>
<polygon fill="#63b8ff" stroke="#63b8ff" points="1300.93,-281.03 1311.28,-278.8 1301.79,-274.09 1300.93,-281.03"/>
</g>
<!-- Node3 -->
<g id="node3" class="node">
<title>Node3</title>
<g id="a_node3"><a xlink:href="CameraResource_8cpp.html" target="_top" xlink:title=" ">
<polygon fill="white" stroke="#666666" points="861,-129 741,-129 741,-110 861,-110 861,-129"/>
<text text-anchor="middle" x="801" y="-117" font-family="Helvetica,sans-Serif" font-size="10.00">CameraResource.cpp</text>
</a>
</g>
</g>
<!-- Node2&#45;&gt;Node3 -->
<g id="edge2" class="edge">
<title>Node2&#45;&gt;Node3</title>
<path fill="none" stroke="#63b8ff" d="M894.75,-160.9C872.03,-151.11 841.13,-137.79 821.12,-129.17"/>
<polygon fill="#63b8ff" stroke="#63b8ff" points="893.67,-164.24 904.24,-164.98 896.44,-157.81 893.67,-164.24"/>
</g>
<!-- Node4 -->
<g id="node4" class="node">
<title>Node4</title>
<g id="a_node4"><a xlink:href="CameraSystem_8cpp.html" target="_top" xlink:title=" ">
<polygon fill="white" stroke="#666666" points="1225,-129 1113,-129 1113,-110 1225,-110 1225,-129"/>
<text text-anchor="middle" x="1169" y="-117" font-family="Helvetica,sans-Serif" font-size="10.00">CameraSystem.cpp</text>
</a>
</g>
</g>
<!-- Node2&#45;&gt;Node4 -->
<g id="edge3" class="edge">
<title>Node2&#45;&gt;Node4</title>
<path fill="none" stroke="#63b8ff" d="M973.39,-162.82C1019.3,-152.88 1086.83,-138.28 1129.33,-129.08"/>
<polygon fill="#63b8ff" stroke="#63b8ff" points="972.4,-159.45 963.36,-164.98 973.88,-166.29 972.4,-159.45"/>
</g>
<!-- Node5 -->
<g id="node5" class="node">
<title>Node5</title>
<g id="a_node5"><a xlink:href="CircleDetector_8cpp.html" target="_top" xlink:title=" ">
<polygon fill="white" stroke="#666666" points="550,-129 444,-129 444,-110 550,-110 550,-129"/>
<text text-anchor="middle" x="497" y="-117" font-family="Helvetica,sans-Serif" font-size="10.00">CircleDetector.cpp</text>
</a>
</g>
</g>
<!-- Node2&#45;&gt;Node5 -->
<g id="edge4" class="edge">
<title>Node2&#45;&gt;Node5</title>
<path fill="none" stroke="#63b8ff" d="M863.13,-166.04C791.54,-157.24 669.12,-142.17 564,-129 559.46,-128.43 554.75,-127.84 550.03,-127.24"/>
<polygon fill="#63b8ff" stroke="#63b8ff" points="862.97,-169.54 873.32,-167.29 863.82,-162.59 862.97,-169.54"/>
</g>
<!-- Node6 -->
<g id="node6" class="node">
<title>Node6</title>
<g id="a_node6"><a xlink:href="Draw_8cpp.html" target="_top" xlink:title=" ">
<polygon fill="white" stroke="#666666" points="2236,-74 2174,-74 2174,-55 2236,-55 2236,-74"/>
<text text-anchor="middle" x="2205" y="-62" font-family="Helvetica,sans-Serif" font-size="10.00">Draw.cpp</text>
</a>
</g>
</g>
<!-- Node2&#45;&gt;Node6 -->
<g id="edge5" class="edge">
<title>Node2&#45;&gt;Node6</title>
<path fill="none" stroke="#63b8ff" d="M985.06,-165.51C986.38,-165.34 987.7,-165.17 989,-165 1113.43,-148.87 1148.45,-163.78 1269,-129 1288.3,-123.43 1290.49,-114.75 1310,-110 1489.6,-66.31 1956.87,-90.18 2141,-74 2151.72,-73.06 2163.4,-71.63 2173.81,-70.21"/>
<polygon fill="#63b8ff" stroke="#63b8ff" points="984.21,-162.09 974.74,-166.85 985.11,-169.03 984.21,-162.09"/>
</g>
<!-- Node7 -->
<g id="node7" class="node">
<title>Node7</title>
<g id="a_node7"><a xlink:href="EffekseerVFX_8cpp.html" target="_top" xlink:title=" ">
<polygon fill="white" stroke="#666666" points="312,-129 210,-129 210,-110 312,-110 312,-129"/>
<text text-anchor="middle" x="261" y="-117" font-family="Helvetica,sans-Serif" font-size="10.00">EffekseerVFX.cpp</text>
</a>
</g>
</g>
<!-- Node2&#45;&gt;Node7 -->
<g id="edge6" class="edge">
<title>Node2&#45;&gt;Node7</title>
<path fill="none" stroke="#63b8ff" d="M863.34,-170.37C754.5,-164.46 518.92,-150.3 321,-129 318.07,-128.68 315.07,-128.34 312.03,-127.97"/>
<polygon fill="#63b8ff" stroke="#63b8ff" points="863.3,-173.88 873.47,-170.92 863.67,-166.89 863.3,-173.88"/>
</g>
<!-- Node8 -->
<g id="node8" class="node">
<title>Node8</title>
<g id="a_node8"><a xlink:href="FbxParts_8cpp.html" target="_top" xlink:title=" ">
<polygon fill="white" stroke="#666666" points="723.5,-129 644.5,-129 644.5,-110 723.5,-110 723.5,-129"/>
<text text-anchor="middle" x="684" y="-117" font-family="Helvetica,sans-Serif" font-size="10.00">FbxParts.cpp</text>
</a>
</g>
</g>
<!-- Node2&#45;&gt;Node8 -->
<g id="edge7" class="edge">
<title>Node2&#45;&gt;Node8</title>
<path fill="none" stroke="#63b8ff" d="M875.62,-162.82C830.64,-152.88 764.5,-138.28 722.86,-129.08"/>
<polygon fill="#63b8ff" stroke="#63b8ff" points="874.92,-166.25 885.44,-164.98 876.43,-159.41 874.92,-166.25"/>
</g>
<!-- Node9 -->
<g id="node9" class="node">
<title>Node9</title>
<g id="a_node9"><a xlink:href="GameScene_8cpp.html" target="_top" xlink:title=" ">
<polygon fill="white" stroke="#666666" points="1524.5,-129 1429.5,-129 1429.5,-110 1524.5,-110 1524.5,-129"/>
<text text-anchor="middle" x="1477" y="-117" font-family="Helvetica,sans-Serif" font-size="10.00">GameScene.cpp</text>
</a>
</g>
</g>
<!-- Node2&#45;&gt;Node9 -->
<g id="edge8" class="edge">
<title>Node2&#45;&gt;Node9</title>
<path fill="none" stroke="#63b8ff" d="M984.55,-167.7C1095.35,-157.08 1328.55,-134.73 1429.15,-125.09"/>
<polygon fill="#63b8ff" stroke="#63b8ff" points="984.16,-164.22 974.54,-168.66 984.83,-171.19 984.16,-164.22"/>
</g>
<!-- Node10 -->
<g id="node10" class="node">
<title>Node10</title>
<g id="a_node10"><a xlink:href="ImGuiEditorCamera_8cpp.html" target="_top" xlink:title=" ">
<polygon fill="white" stroke="#666666" points="1249.5,-74 1116.5,-74 1116.5,-55 1249.5,-55 1249.5,-74"/>
<text text-anchor="middle" x="1183" y="-62" font-family="Helvetica,sans-Serif" font-size="10.00">ImGuiEditorCamera.cpp</text>
</a>
</g>
</g>
<!-- Node2&#45;&gt;Node10 -->
<g id="edge9" class="edge">
<title>Node2&#45;&gt;Node10</title>
<path fill="none" stroke="#63b8ff" d="M862.97,-173.05C787.02,-171.04 663.77,-162.53 635,-129 629.5,-122.59 629.28,-116.21 635,-110 651.11,-92.53 973.71,-75.32 1116.26,-68.53"/>
<polygon fill="#63b8ff" stroke="#63b8ff" points="863.28,-176.56 873.36,-173.29 863.45,-169.56 863.28,-176.56"/>
</g>
<!-- Node11 -->
<g id="node11" class="node">
<title>Node11</title>
<g id="a_node11"><a xlink:href="ImGuizmoManipulator_8cpp.html" target="_top" xlink:title=" ">
<polygon fill="white" stroke="#666666" points="1836.5,-129 1691.5,-129 1691.5,-110 1836.5,-110 1836.5,-129"/>
<text text-anchor="middle" x="1764" y="-117" font-family="Helvetica,sans-Serif" font-size="10.00">ImGuizmoManipulator.cpp</text>
</a>
</g>
</g>
<!-- Node2&#45;&gt;Node11 -->
<g id="edge10" class="edge">
<title>Node2&#45;&gt;Node11</title>
<path fill="none" stroke="#63b8ff" d="M984.77,-167.96C997.09,-166.91 1009.96,-165.87 1022,-165 1298.19,-145.03 1367.66,-146.78 1644,-129 1659.32,-128.01 1675.73,-126.89 1691.35,-125.8"/>
<polygon fill="#63b8ff" stroke="#63b8ff" points="984.25,-164.49 974.59,-168.83 984.85,-171.46 984.25,-164.49"/>
</g>
<!-- Node2&#45;&gt;Node12 -->
<g id="edge11" class="edge">
<title>Node2&#45;&gt;Node12</title>
<path fill="none" stroke="#63b8ff" d="M863.18,-169.09C770.59,-162.12 588.78,-147.45 435,-129 431.92,-128.63 428.75,-128.23 425.56,-127.8"/>
<polygon fill="#63b8ff" stroke="#63b8ff" points="862.98,-172.59 873.21,-169.84 863.5,-165.61 862.98,-172.59"/>
</g>
<!-- Node13 -->
<g id="node13" class="node">
<title>Node13</title>
<g id="a_node13"><a xlink:href="MTImGui_8cpp.html" target="_top" xlink:title=" ">
<polygon fill="white" stroke="#666666" points="858.5,-74 777.5,-74 777.5,-55 858.5,-55 858.5,-74"/>
<text text-anchor="middle" x="818" y="-62" font-family="Helvetica,sans-Serif" font-size="10.00">MTImGui.cpp</text>
</a>
</g>
</g>
<!-- Node2&#45;&gt;Node13 -->
<g id="edge12" class="edge">
<title>Node2&#45;&gt;Node13</title>
<path fill="none" stroke="#63b8ff" d="M863.18,-174.18C779.44,-173.67 635.19,-167.09 602,-129 596.45,-122.63 596.67,-116.55 602,-110 623.71,-83.36 721.17,-72.2 777.48,-67.91"/>
<polygon fill="#63b8ff" stroke="#63b8ff" points="863.32,-177.68 873.33,-174.21 863.34,-170.68 863.32,-177.68"/>
</g>
<!-- Node2&#45;&gt;Node14 -->
<g id="edge13" class="edge">
<title>Node2&#45;&gt;Node14</title>
<path fill="none" stroke="#63b8ff" d="M985.05,-165.49C986.38,-165.32 987.7,-165.16 989,-165 1129.31,-147.84 1165.43,-151.37 1305,-129 1309.45,-128.29 1314.15,-127.42 1318.72,-126.52"/>
<polygon fill="#63b8ff" stroke="#63b8ff" points="984.22,-162.06 974.73,-166.78 985.09,-169.01 984.22,-162.06"/>
</g>
<!-- Node15 -->
<g id="node15" class="node">
<title>Node15</title>
<g id="a_node15"><a xlink:href="PlaneUVScroll_8cpp.html" target="_top" xlink:title=" ">
<polygon fill="white" stroke="#666666" points="2292.5,-129 2187.5,-129 2187.5,-110 2292.5,-110 2292.5,-129"/>
<text text-anchor="middle" x="2240" y="-117" font-family="Helvetica,sans-Serif" font-size="10.00">PlaneUVScroll.cpp</text>
</a>
</g>
</g>
<!-- Node2&#45;&gt;Node15 -->
<g id="edge14" class="edge">
<title>Node2&#45;&gt;Node15</title>
<path fill="none" stroke="#63b8ff" d="M984.76,-167.73C997.08,-166.71 1009.95,-165.73 1022,-165 1484.54,-136.97 1601.01,-148.18 2064,-129 2105.42,-127.28 2152.3,-125 2187.25,-123.24"/>
<polygon fill="#63b8ff" stroke="#63b8ff" points="984.24,-164.27 974.57,-168.61 984.84,-171.24 984.24,-164.27"/>
</g>
<!-- Node16 -->
<g id="node16" class="node">
<title>Node16</title>
<g id="a_node16"><a xlink:href="RayDetector_8cpp.html" target="_top" xlink:title=" ">
<polygon fill="white" stroke="#666666" points="976.5,-129 879.5,-129 879.5,-110 976.5,-110 976.5,-129"/>
<text text-anchor="middle" x="928" y="-117" font-family="Helvetica,sans-Serif" font-size="10.00">RayDetector.cpp</text>
</a>
</g>
</g>
<!-- Node2&#45;&gt;Node16 -->
<g id="edge15" class="edge">
<title>Node2&#45;&gt;Node16</title>
<path fill="none" stroke="#63b8ff" d="M925.42,-154.66C926.08,-145.93 926.83,-135.99 927.35,-129.09"/>
<polygon fill="#63b8ff" stroke="#63b8ff" points="921.92,-154.51 924.66,-164.75 928.9,-155.04 921.92,-154.51"/>
</g>
<!-- Node17 -->
<g id="node17" class="node">
<title>Node17</title>
<g id="a_node17"><a xlink:href="RectDetector_8cpp.html" target="_top" xlink:title=" ">
<polygon fill="white" stroke="#666666" points="1095,-129 995,-129 995,-110 1095,-110 1095,-129"/>
<text text-anchor="middle" x="1045" y="-117" font-family="Helvetica,sans-Serif" font-size="10.00">RectDetector.cpp</text>
</a>
</g>
</g>
<!-- Node2&#45;&gt;Node17 -->
<g id="edge16" class="edge">
<title>Node2&#45;&gt;Node17</title>
<path fill="none" stroke="#63b8ff" d="M952.77,-160.9C975.12,-151.11 1005.52,-137.79 1025.21,-129.17"/>
<polygon fill="#63b8ff" stroke="#63b8ff" points="951.2,-157.77 943.44,-164.98 954,-164.18 951.2,-157.77"/>
</g>
<!-- Node18 -->
<g id="node18" class="node">
<title>Node18</title>
<g id="a_node18"><a xlink:href="TerrainReader_8h.html" target="_top" xlink:title=" ">
<polygon fill="#fff0f0" stroke="red" points="1635,-129 1543,-129 1543,-110 1635,-110 1635,-129"/>
<text text-anchor="middle" x="1589" y="-117" font-family="Helvetica,sans-Serif" font-size="10.00">TerrainReader.h</text>
</a>
</g>
</g>
<!-- Node2&#45;&gt;Node18 -->
<g id="edge17" class="edge">
<title>Node2&#45;&gt;Node18</title>
<path fill="none" stroke="#63b8ff" d="M984.78,-168.07C997.1,-167.02 1009.96,-165.95 1022,-165 1249.42,-147.14 1307.31,-154.44 1534,-129 1536.88,-128.68 1539.84,-128.31 1542.82,-127.92"/>
<polygon fill="#63b8ff" stroke="#63b8ff" points="984.26,-164.6 974.6,-168.95 984.86,-171.58 984.26,-164.6"/>
</g>
<!-- Node20 -->
<g id="node19" class="node">
<title>Node20</title>
<g id="a_node19"><a xlink:href="mtgb_8h.html" target="_top" xlink:title=" ">
<polygon fill="#fff0f0" stroke="red" points="1941.5,-74 1890.5,-74 1890.5,-55 1941.5,-55 1941.5,-74"/>
<text text-anchor="middle" x="1916" y="-62" font-family="Helvetica,sans-Serif" font-size="10.00">mtgb.h</text>
</a>
</g>
</g>
<!-- Node2&#45;&gt;Node20 -->
<g id="edge18" class="edge">
<title>Node2&#45;&gt;Node20</title>
<path fill="none" stroke="#63b8ff" d="M984.73,-165.22C1071.57,-153.31 1222.15,-132.4 1234,-129 1254.08,-123.24 1256.72,-115.02 1277,-110 1396.41,-80.42 1786.71,-68.73 1890.47,-66.1"/>
<polygon fill="#63b8ff" stroke="#63b8ff" points="984.15,-161.76 974.72,-166.59 985.11,-168.7 984.15,-161.76"/>
</g>
<!-- Node60 -->
<g id="node20" class="node">
<title>Node60</title>
<g id="a_node20"><a xlink:href="SeaPlane_8h.html" target="_top" xlink:title=" ">
<polygon fill="#fff0f0" stroke="red" points="2281.5,-19 2210.5,-19 2210.5,0 2281.5,0 2281.5,-19"/>
<text text-anchor="middle" x="2246" y="-7" font-family="Helvetica,sans-Serif" font-size="10.00">SeaPlane.h</text>
</a>
</g>
</g>
<!-- Node20&#45;&gt;Node60 -->
<g id="edge19" class="edge">
<title>Node20&#45;&gt;Node60</title>
<path fill="none" stroke="#63b8ff" d="M1951.55,-57.79C2014.98,-47.6 2146.93,-26.41 2210.39,-16.22"/>
<polygon fill="#63b8ff" stroke="#63b8ff" points="1950.94,-54.34 1941.62,-59.39 1952.05,-61.26 1950.94,-54.34"/>
</g>
<!-- Node75&#45;&gt;Node7 -->
<g id="edge22" class="edge">
<title>Node75&#45;&gt;Node7</title>
<path fill="none" stroke="#63b8ff" d="M249.95,-154.95C252.77,-146.15 256.01,-136.06 258.25,-129.09"/>
<polygon fill="#63b8ff" stroke="#63b8ff" points="246.53,-154.16 246.81,-164.75 253.19,-156.29 246.53,-154.16"/>
</g>
<!-- Node75&#45;&gt;Node20 -->
<g id="edge24" class="edge">
<title>Node75&#45;&gt;Node20</title>
<path fill="none" stroke="#63b8ff" d="M222.66,-158.69C205.53,-145.08 186.55,-124.83 201,-110 216.42,-94.18 1677.78,-69.44 1890.33,-65.92"/>
<polygon fill="#63b8ff" stroke="#63b8ff" points="220.66,-161.57 230.76,-164.79 224.87,-155.98 220.66,-161.57"/>
</g>
<!-- Node76 -->
<g id="node23" class="node">
<title>Node76</title>
<g id="a_node23"><a xlink:href="RenderSystem_8cpp.html" target="_top" xlink:title=" ">
<polygon fill="white" stroke="#666666" points="108,-74 0,-74 0,-55 108,-55 108,-74"/>
<text text-anchor="middle" x="54" y="-62" font-family="Helvetica,sans-Serif" font-size="10.00">RenderSystem.cpp</text>
</a>
</g>
</g>
<!-- Node75&#45;&gt;Node76 -->
<g id="edge23" class="edge">
<title>Node75&#45;&gt;Node76</title>
<path fill="none" stroke="#63b8ff" d="M187.94,-172.59C150.8,-169.03 103.48,-158.39 73,-129 57.76,-114.3 54.61,-87.93 54.05,-74.26"/>
<polygon fill="#63b8ff" stroke="#63b8ff" points="187.87,-176.09 198.12,-173.41 188.44,-169.11 187.87,-176.09"/>
</g>
<!-- Node77&#45;&gt;Node8 -->
<g id="edge28" class="edge">
<title>Node77&#45;&gt;Node8</title>
<path fill="none" stroke="#63b8ff" d="M701.6,-209.93C704.65,-197.19 707.21,-179.96 704,-165 701.19,-151.91 694.23,-138.03 689.32,-129.32"/>
<polygon fill="#63b8ff" stroke="#63b8ff" points="698.17,-209.23 698.93,-219.79 704.92,-211.06 698.17,-209.23"/>
</g>
<!-- Node78 -->
<g id="node25" class="node">
<title>Node78</title>
<g id="a_node25"><a xlink:href="Fbx_8cpp.html" target="_top" xlink:title=" ">
<polygon fill="white" stroke="#666666" points="695.5,-184 640.5,-184 640.5,-165 695.5,-165 695.5,-184"/>
<text text-anchor="middle" x="668" y="-172" font-family="Helvetica,sans-Serif" font-size="10.00">Fbx.cpp</text>
</a>
</g>
</g>
<!-- Node77&#45;&gt;Node78 -->
<g id="edge26" class="edge">
<title>Node77&#45;&gt;Node78</title>
<path fill="none" stroke="#63b8ff" d="M686.66,-210.82C681.91,-201.82 676.34,-191.29 672.54,-184.09"/>
<polygon fill="#63b8ff" stroke="#63b8ff" points="683.61,-212.54 691.38,-219.75 689.8,-209.27 683.61,-212.54"/>
</g>
<!-- Node79 -->
<g id="node26" class="node">
<title>Node79</title>
<g id="a_node26"><a xlink:href="FbxModel_8cpp.html" target="_top" xlink:title=" ">
<polygon fill="white" stroke="#666666" points="622.5,-184 537.5,-184 537.5,-165 622.5,-165 622.5,-184"/>
<text text-anchor="middle" x="580" y="-172" font-family="Helvetica,sans-Serif" font-size="10.00">FbxModel.cpp</text>
</a>
</g>
</g>
<!-- Node77&#45;&gt;Node79 -->
<g id="edge27" class="edge">
<title>Node77&#45;&gt;Node79</title>
<path fill="none" stroke="#63b8ff" d="M668.13,-215.77C646.73,-205.99 617.76,-192.75 598.98,-184.17"/>
<polygon fill="#63b8ff" stroke="#63b8ff" points="666.81,-219.01 677.36,-219.98 669.72,-212.65 666.81,-219.01"/>
</g>
<!-- Node80&#45;&gt;Node6 -->
<g id="edge30" class="edge">
<title>Node80&#45;&gt;Node6</title>
<path fill="none" stroke="#63b8ff" d="M2527.83,-209.95C2526.01,-195.97 2521.44,-177.18 2510,-165 2435.65,-85.82 2297.6,-69.54 2236.04,-66.27"/>
<polygon fill="#63b8ff" stroke="#63b8ff" points="2524.35,-210.29 2528.78,-219.92 2531.32,-209.63 2524.35,-210.29"/>
</g>
<!-- Node81 -->
<g id="node28" class="node">
<title>Node81</title>
<g id="a_node28"><a xlink:href="Figure_8cpp.html" target="_top" xlink:title=" ">
<polygon fill="white" stroke="#666666" points="2624.5,-184 2557.5,-184 2557.5,-165 2624.5,-165 2624.5,-184"/>
<text text-anchor="middle" x="2591" y="-172" font-family="Helvetica,sans-Serif" font-size="10.00">Figure.cpp</text>
</a>
</g>
</g>
<!-- Node80&#45;&gt;Node81 -->
<g id="edge31" class="edge">
<title>Node80&#45;&gt;Node81</title>
<path fill="none" stroke="#63b8ff" d="M2546.75,-213.32C2557.81,-203.87 2571.63,-192.06 2580.86,-184.17"/>
<polygon fill="#63b8ff" stroke="#63b8ff" points="2544.29,-210.83 2538.96,-219.98 2548.84,-216.15 2544.29,-210.83"/>
</g>
<!-- Node82&#45;&gt;Node10 -->
<g id="edge33" class="edge">
<title>Node82&#45;&gt;Node10</title>
<path fill="none" stroke="#63b8ff" d="M164.19,-110.43C165.47,-110.28 166.74,-110.13 168,-110 352.82,-90.32 921.23,-72.88 1116.4,-67.33"/>
<polygon fill="#63b8ff" stroke="#63b8ff" points="163.68,-106.97 154.25,-111.79 164.63,-113.91 163.68,-106.97"/>
</g>
<!-- Node82&#45;&gt;Node13 -->
<g id="edge36" class="edge">
<title>Node82&#45;&gt;Node13</title>
<path fill="none" stroke="#63b8ff" d="M164.19,-110.48C165.48,-110.31 166.75,-110.15 168,-110 228.23,-102.84 643.87,-76.44 777.04,-68.06"/>
<polygon fill="#63b8ff" stroke="#63b8ff" points="163.66,-107.02 154.26,-111.9 164.65,-113.95 163.66,-107.02"/>
</g>
<!-- Node83 -->
<g id="node30" class="node">
<title>Node83</title>
<g id="a_node30"><a xlink:href="ImGuiRenderer_8cpp.html" target="_top" xlink:title=" ">
<polygon fill="white" stroke="#666666" points="669,-74 559,-74 559,-55 669,-55 669,-74"/>
<text text-anchor="middle" x="614" y="-62" font-family="Helvetica,sans-Serif" font-size="10.00">ImGuiRenderer.cpp</text>
</a>
</g>
</g>
<!-- Node82&#45;&gt;Node83 -->
<g id="edge34" class="edge">
<title>Node82&#45;&gt;Node83</title>
<path fill="none" stroke="#63b8ff" d="M164.13,-110.54C165.43,-110.35 166.72,-110.17 168,-110 308.36,-91.09 474.57,-76.58 558.93,-69.77"/>
<polygon fill="#63b8ff" stroke="#63b8ff" points="163.37,-107.11 154,-112.07 164.42,-114.03 163.37,-107.11"/>
</g>
<!-- Node84 -->
<g id="node31" class="node">
<title>Node84</title>
<g id="a_node31"><a xlink:href="ImGuiUtil_8cpp.html" target="_top" xlink:title=" ">
<polygon fill="white" stroke="#666666" points="209.5,-74 126.5,-74 126.5,-55 209.5,-55 209.5,-74"/>
<text text-anchor="middle" x="168" y="-62" font-family="Helvetica,sans-Serif" font-size="10.00">ImGuiUtil.cpp</text>
</a>
</g>
</g>
<!-- Node82&#45;&gt;Node84 -->
<g id="edge35" class="edge">
<title>Node82&#45;&gt;Node84</title>
<path fill="none" stroke="#63b8ff" d="M133.34,-102.24C142.1,-92.95 152.74,-81.68 159.9,-74.09"/>
<polygon fill="#63b8ff" stroke="#63b8ff" points="130.57,-100.07 126.26,-109.75 135.66,-104.88 130.57,-100.07"/>
</g>
<!-- Node85&#45;&gt;Node11 -->
<g id="edge49" class="edge">
<title>Node85&#45;&gt;Node11</title>
<path fill="none" stroke="#63b8ff" d="M1825.69,-159.42C1810.45,-149.81 1790.73,-137.37 1777.74,-129.17"/>
<polygon fill="#63b8ff" stroke="#63b8ff" points="1824.18,-162.61 1834.5,-164.98 1827.91,-156.69 1824.18,-162.61"/>
</g>
<!-- Node85&#45;&gt;Node20 -->
<g id="edge50" class="edge">
<title>Node85&#45;&gt;Node20</title>
<path fill="none" stroke="#63b8ff" d="M1918.74,-163.44C1978.09,-154.27 2054.67,-140.45 2064,-129 2098.8,-86.3 1992.4,-71.72 1941.5,-67.26"/>
<polygon fill="#63b8ff" stroke="#63b8ff" points="1917.98,-160.01 1908.63,-164.98 1919.04,-166.93 1917.98,-160.01"/>
</g>
<!-- Node86 -->
<g id="node33" class="node">
<title>Node86</title>
<g id="a_node33"><a xlink:href="ImGuiEditor_8h.html" target="_top" xlink:title=" ">
<polygon fill="#fff0f0" stroke="red" points="2054.5,-129 1971.5,-129 1971.5,-110 2054.5,-110 2054.5,-129"/>
<text text-anchor="middle" x="2013" y="-117" font-family="Helvetica,sans-Serif" font-size="10.00">ImGuiEditor.h</text>
</a>
</g>
</g>
<!-- Node85&#45;&gt;Node86 -->
<g id="edge38" class="edge">
<title>Node85&#45;&gt;Node86</title>
<path fill="none" stroke="#63b8ff" d="M1884.43,-161.8C1915.22,-151.91 1958.62,-137.97 1986.28,-129.08"/>
<polygon fill="#63b8ff" stroke="#63b8ff" points="1882.96,-158.59 1874.51,-164.98 1885.1,-165.26 1882.96,-158.59"/>
</g>
<!-- Node88 -->
<g id="node34" class="node">
<title>Node88</title>
<g id="a_node34"><a xlink:href="ImGuiRenderer_8h.html" target="_top" xlink:title=" ">
<polygon fill="#fff0f0" stroke="red" points="1953,-129 1855,-129 1855,-110 1953,-110 1953,-129"/>
<text text-anchor="middle" x="1904" y="-117" font-family="Helvetica,sans-Serif" font-size="10.00">ImGuiRenderer.h</text>
</a>
</g>
</g>
<!-- Node85&#45;&gt;Node88 -->
<g id="edge40" class="edge">
<title>Node85&#45;&gt;Node88</title>
<path fill="none" stroke="#63b8ff" d="M1864.33,-158.04C1874.26,-148.64 1886.59,-136.98 1894.84,-129.17"/>
<polygon fill="#63b8ff" stroke="#63b8ff" points="1861.85,-155.57 1857,-164.98 1866.67,-160.65 1861.85,-155.57"/>
</g>
<!-- Node90 -->
<g id="node35" class="node">
<title>Node90</title>
<g id="a_node35"><a xlink:href="ImGuiShowable_8cpp.html" target="_top" xlink:title=" ">
<polygon fill="white" stroke="#666666" points="2131.5,-74 2018.5,-74 2018.5,-55 2131.5,-55 2131.5,-74"/>
<text text-anchor="middle" x="2075" y="-62" font-family="Helvetica,sans-Serif" font-size="10.00">ImGuiShowable.cpp</text>
</a>
</g>
</g>
<!-- Node85&#45;&gt;Node90 -->
<g id="edge48" class="edge">
<title>Node85&#45;&gt;Node90</title>
<path fill="none" stroke="#63b8ff" d="M1925.26,-163.67C1989.12,-154.76 2070.93,-141.18 2081,-129 2093.99,-113.3 2085.2,-87.36 2079.24,-74.02"/>
<polygon fill="#63b8ff" stroke="#63b8ff" points="1924.6,-160.23 1915.18,-165.06 1925.56,-167.17 1924.6,-160.23"/>
</g>
<!-- Node86&#45;&gt;Node20 -->
<g id="edge39" class="edge">
<title>Node86&#45;&gt;Node20</title>
<path fill="none" stroke="#63b8ff" d="M1988.23,-104.97C1970.5,-95.28 1947.15,-82.52 1931.87,-74.17"/>
<polygon fill="#63b8ff" stroke="#63b8ff" points="1986.96,-108.26 1997.42,-109.98 1990.32,-102.12 1986.96,-108.26"/>
</g>
<!-- Node88&#45;&gt;Node6 -->
<g id="edge41" class="edge">
<title>Node88&#45;&gt;Node6</title>
<path fill="none" stroke="#63b8ff" d="M1962.57,-108.19C2025.77,-97.06 2124.01,-79.76 2173.8,-70.99"/>
<polygon fill="#63b8ff" stroke="#63b8ff" points="1961.6,-104.8 1952.36,-109.98 1962.82,-111.7 1961.6,-104.8"/>
</g>
<!-- Node88&#45;&gt;Node10 -->
<g id="edge42" class="edge">
<title>Node88&#45;&gt;Node10</title>
<path fill="none" stroke="#63b8ff" d="M1845.02,-109.98C1621.07,-86.43 1368.02,-73.49 1249.97,-68.25"/>
<polygon fill="#63b8ff" stroke="#63b8ff" points="1844.67,-113.47 1854.99,-111.04 1845.41,-106.51 1844.67,-113.47"/>
</g>
<!-- Node88&#45;&gt;Node13 -->
<g id="edge45" class="edge">
<title>Node88&#45;&gt;Node13</title>
<path fill="none" stroke="#63b8ff" d="M1844.72,-110.01C1629.12,-90.73 1021.36,-71.6 858.53,-66.7"/>
<polygon fill="#63b8ff" stroke="#63b8ff" points="1844.72,-113.53 1854.99,-110.96 1845.36,-106.56 1844.72,-113.53"/>
</g>
<!-- Node88&#45;&gt;Node20 -->
<g id="edge47" class="edge">
<title>Node88&#45;&gt;Node20</title>
<path fill="none" stroke="#63b8ff" d="M1908.2,-99.95C1910.19,-91.15 1912.48,-81.06 1914.06,-74.09"/>
<polygon fill="#63b8ff" stroke="#63b8ff" points="1904.78,-99.22 1905.98,-109.75 1911.6,-100.77 1904.78,-99.22"/>
</g>
<!-- Node88&#45;&gt;Node76 -->
<g id="edge46" class="edge">
<title>Node88&#45;&gt;Node76</title>
<path fill="none" stroke="#63b8ff" d="M1844.51,-110C1078.31,-46.92 879.94,-133.22 117,-74 114.14,-73.78 111.21,-73.51 108.25,-73.22"/>
<polygon fill="#63b8ff" stroke="#63b8ff" points="1844.43,-113.51 1854.69,-110.85 1845.01,-106.53 1844.43,-113.51"/>
</g>
<!-- Node88&#45;&gt;Node83 -->
<g id="edge43" class="edge">
<title>Node88&#45;&gt;Node83</title>
<path fill="none" stroke="#63b8ff" d="M1844.73,-110.01C1367.24,-67.6 1244.08,-94.96 769,-74 735.88,-72.54 698.81,-70.52 669.22,-68.82"/>
<polygon fill="#63b8ff" stroke="#63b8ff" points="1844.73,-113.52 1855,-110.92 1845.35,-106.55 1844.73,-113.52"/>
</g>
<!-- Node88&#45;&gt;Node90 -->
<g id="edge44" class="edge">
<title>Node88&#45;&gt;Node90</title>
<path fill="none" stroke="#63b8ff" d="M1941.34,-106.93C1973.28,-97.03 2018.52,-83.01 2047.31,-74.08"/>
<polygon fill="#63b8ff" stroke="#63b8ff" points="1939.99,-103.68 1931.47,-109.98 1942.06,-110.37 1939.99,-103.68"/>
</g>
<!-- Node94&#45;&gt;Node6 -->
<g id="edge55" class="edge">
<title>Node94&#45;&gt;Node6</title>
<path fill="none" stroke="#63b8ff" d="M2325.57,-154.66C2321.47,-140.81 2314.14,-122.33 2302,-110 2284.05,-91.79 2257.27,-80.28 2236.39,-73.54"/>
<polygon fill="#63b8ff" stroke="#63b8ff" points="2322.25,-155.79 2328.19,-164.57 2329.02,-154 2322.25,-155.79"/>
</g>
<!-- Node94&#45;&gt;Node15 -->
<g id="edge56" class="edge">
<title>Node94&#45;&gt;Node15</title>
<path fill="none" stroke="#63b8ff" d="M2306.56,-159.7C2290.16,-150.04 2268.77,-137.44 2254.72,-129.17"/>
<polygon fill="#63b8ff" stroke="#63b8ff" points="2305.15,-162.93 2315.54,-164.98 2308.7,-156.89 2305.15,-162.93"/>
</g>
<!-- Node94&#45;&gt;Node60 -->
<g id="edge57" class="edge">
<title>Node94&#45;&gt;Node60</title>
<path fill="none" stroke="#63b8ff" d="M2330.19,-154.85C2329.72,-141.84 2327.86,-124.31 2322,-110 2306.26,-71.58 2271.7,-35.1 2255.17,-19.06"/>
<polygon fill="#63b8ff" stroke="#63b8ff" points="2326.69,-154.97 2330.31,-164.93 2333.69,-154.88 2326.69,-154.97"/>
</g>
<!-- Node97 -->
<g id="node40" class="node">
<title>Node97</title>
<g id="a_node40"><a xlink:href="TypeRegistry_8cpp.html" target="_top" xlink:title=" ">
<polygon fill="white" stroke="#666666" points="2191,-184 2093,-184 2093,-165 2191,-165 2191,-184"/>
<text text-anchor="middle" x="2142" y="-172" font-family="Helvetica,sans-Serif" font-size="10.00">TypeRegistry.cpp</text>
</a>
</g>
</g>
<!-- Node96&#45;&gt;Node97 -->
<g id="edge60" class="edge">
<title>Node96&#45;&gt;Node97</title>
<path fill="none" stroke="#63b8ff" d="M2142,-209.66C2142,-200.93 2142,-190.99 2142,-184.09"/>
<polygon fill="#63b8ff" stroke="#63b8ff" points="2138.5,-209.75 2142,-219.75 2145.5,-209.75 2138.5,-209.75"/>
</g>
<!-- Node98 -->
<g id="node41" class="node">
<title>Node98</title>
<g id="a_node41"><a xlink:href="stdafx_8h.html" target="_top" xlink:title=" ">
<polygon fill="#fff0f0" stroke="red" points="2265,-184 2209,-184 2209,-165 2265,-165 2265,-184"/>
<text text-anchor="middle" x="2237" y="-172" font-family="Helvetica,sans-Serif" font-size="10.00">stdafx.h</text>
</a>
</g>
</g>
<!-- Node96&#45;&gt;Node98 -->
<g id="edge61" class="edge">
<title>Node96&#45;&gt;Node98</title>
<path fill="none" stroke="#63b8ff" d="M2166.26,-214.97C2183.63,-205.28 2206.49,-192.52 2221.46,-184.17"/>
<polygon fill="#63b8ff" stroke="#63b8ff" points="2164.29,-212.06 2157.26,-219.98 2167.7,-218.17 2164.29,-212.06"/>
</g>
<!-- Node98&#45;&gt;Node15 -->
<g id="edge62" class="edge">
<title>Node98&#45;&gt;Node15</title>
<path fill="none" stroke="#63b8ff" d="M2238.07,-154.66C2238.56,-145.93 2239.12,-135.99 2239.51,-129.09"/>
<polygon fill="#63b8ff" stroke="#63b8ff" points="2234.57,-154.57 2237.5,-164.75 2241.56,-154.96 2234.57,-154.57"/>
</g>
<!-- Node117&#45;&gt;Node6 -->
<g id="edge64" class="edge">
<title>Node117&#45;&gt;Node6</title>
<path fill="none" stroke="#63b8ff" d="M2379.03,-210.73C2386.24,-197.72 2392.81,-179.83 2386,-165 2359.07,-106.34 2280.52,-80.98 2236.26,-71.09"/>
<polygon fill="#63b8ff" stroke="#63b8ff" points="2375.84,-209.24 2373.6,-219.59 2381.81,-212.89 2375.84,-209.24"/>
</g>
<!-- Node118 -->
<g id="node43" class="node">
<title>Node118</title>
<g id="a_node43"><a xlink:href="Image_8cpp.html" target="_top" xlink:title=" ">
<polygon fill="white" stroke="#666666" points="2501,-184 2433,-184 2433,-165 2501,-165 2501,-184"/>
<text text-anchor="middle" x="2467" y="-172" font-family="Helvetica,sans-Serif" font-size="10.00">Image.cpp</text>
</a>
</g>
</g>
<!-- Node117&#45;&gt;Node118 -->
<g id="edge65" class="edge">
<title>Node117&#45;&gt;Node118</title>
<path fill="none" stroke="#63b8ff" d="M2392.03,-215.23C2410.37,-205.51 2434.74,-192.6 2450.64,-184.17"/>
<polygon fill="#63b8ff" stroke="#63b8ff" points="2390.26,-212.21 2383.07,-219.98 2393.54,-218.39 2390.26,-212.21"/>
</g>
<!-- Node119 -->
<g id="node44" class="node">
<title>Node119</title>
<g id="a_node44"><a xlink:href="Sprite_8cpp.html" target="_top" xlink:title=" ">
<polygon fill="white" stroke="#666666" points="2074.5,-184 2009.5,-184 2009.5,-165 2074.5,-165 2074.5,-184"/>
<text text-anchor="middle" x="2042" y="-172" font-family="Helvetica,sans-Serif" font-size="10.00">Sprite.cpp</text>
</a>
</g>
</g>
<!-- Node117&#45;&gt;Node119 -->
<g id="edge66" class="edge">
<title>Node117&#45;&gt;Node119</title>
<path fill="none" stroke="#63b8ff" d="M2329.43,-223.13C2275.14,-215.24 2171.65,-199.75 2084,-184 2080.92,-183.45 2077.73,-182.85 2074.53,-182.23"/>
<polygon fill="#63b8ff" stroke="#63b8ff" points="2329.22,-226.63 2339.61,-224.6 2330.22,-219.7 2329.22,-226.63"/>
</g>
<!-- Node120&#45;&gt;Node2 -->
<g id="edge69" class="edge">
<title>Node120&#45;&gt;Node2</title>
<path fill="none" stroke="#63b8ff" d="M1395.51,-223.65C1297.83,-213.67 1075.17,-190.94 974.76,-180.68"/>
<polygon fill="#63b8ff" stroke="#63b8ff" points="1395.37,-227.15 1405.67,-224.69 1396.08,-220.19 1395.37,-227.15"/>
</g>
<!-- Node120&#45;&gt;Node6 -->
<g id="edge73" class="edge">
<title>Node120&#45;&gt;Node6</title>
<path fill="none" stroke="#63b8ff" d="M1490.3,-220C1683.29,-195.93 1741.98,-240.8 1924,-184 1940.16,-178.96 1941.32,-171.37 1957,-165 2016.91,-140.64 2038.25,-153.76 2098,-129 2134.72,-113.79 2173.93,-87.64 2193.08,-74.13"/>
<polygon fill="#63b8ff" stroke="#63b8ff" points="1489.57,-216.56 1480.11,-221.31 1490.47,-223.5 1489.57,-216.56"/>
</g>
<!-- Node120&#45;&gt;Node8 -->
<g id="edge74" class="edge">
<title>Node120&#45;&gt;Node8</title>
<path fill="none" stroke="#63b8ff" d="M1395.53,-224.94C1338.11,-219.76 1238.94,-208.02 1157,-184 1136.95,-178.12 1134.22,-170.27 1114,-165 948.98,-121.98 900.99,-151.89 732,-129 729.23,-128.63 726.38,-128.21 723.51,-127.76"/>
<polygon fill="#63b8ff" stroke="#63b8ff" points="1395.49,-228.45 1405.76,-225.83 1396.1,-221.47 1395.49,-228.45"/>
</g>
<!-- Node120&#45;&gt;Node9 -->
<g id="edge76" class="edge">
<title>Node120&#45;&gt;Node9</title>
<path fill="none" stroke="#63b8ff" d="M1490.26,-219.25C1551.38,-207.17 1650.41,-187.2 1653,-184 1658.32,-177.44 1658.19,-171.66 1653,-165 1644.89,-154.59 1572.05,-138.75 1522.65,-129.04"/>
<polygon fill="#63b8ff" stroke="#63b8ff" points="1489.56,-215.82 1480.42,-221.19 1490.91,-222.69 1489.56,-215.82"/>
</g>
<!-- Node120&#45;&gt;Node10 -->
<g id="edge77" class="edge">
<title>Node120&#45;&gt;Node10</title>
<path fill="none" stroke="#63b8ff" d="M1490.26,-220.01C1586.54,-206.7 1710.9,-247.71 1684,-165 1674.65,-136.26 1670.24,-125 1644,-110 1578.46,-72.55 1361.1,-66.1 1249.85,-65.32"/>
<polygon fill="#63b8ff" stroke="#63b8ff" points="1489.47,-216.59 1480.16,-221.63 1490.59,-223.5 1489.47,-216.59"/>
</g>
<!-- Node120&#45;&gt;Node13 -->
<g id="edge79" class="edge">
<title>Node120&#45;&gt;Node13</title>
<path fill="none" stroke="#63b8ff" d="M1395.7,-227.13C1330.09,-224.12 1216.61,-214.53 1191,-184 1132.49,-114.25 1443.79,-176.86 1382,-110 1364.25,-90.79 985.59,-72.74 858.89,-67.22"/>
<polygon fill="#63b8ff" stroke="#63b8ff" points="1395.66,-230.63 1405.8,-227.56 1395.95,-223.64 1395.66,-230.63"/>
</g>
<!-- Node120&#45;&gt;Node14 -->
<g id="edge80" class="edge">
<title>Node120&#45;&gt;Node14</title>
<path fill="none" stroke="#63b8ff" d="M1490.2,-219.72C1539.84,-210.01 1611.91,-194.37 1620,-184 1625.19,-177.34 1625.47,-171.43 1620,-165 1612,-155.59 1441.11,-132.72 1373.34,-123.97"/>
<polygon fill="#63b8ff" stroke="#63b8ff" points="1489.44,-216.3 1480.28,-221.64 1490.77,-223.18 1489.44,-216.3"/>
</g>
<!-- Node120&#45;&gt;Node15 -->
<g id="edge81" class="edge">
<title>Node120&#45;&gt;Node15</title>
<path fill="none" stroke="#63b8ff" d="M1490.1,-220.02C1697.73,-194.27 1757.64,-233.25 1957,-184 1977.68,-178.89 1980.62,-171.21 2001,-165 2035.01,-154.63 2127.79,-138.63 2187.24,-128.91"/>
<polygon fill="#63b8ff" stroke="#63b8ff" points="1489.58,-216.56 1480.1,-221.3 1490.47,-223.5 1489.58,-216.56"/>
</g>
<!-- Node120&#45;&gt;Node18 -->
<g id="edge83" class="edge">
<title>Node120&#45;&gt;Node18</title>
<path fill="none" stroke="#63b8ff" d="M1490.22,-219.54C1555.78,-207.05 1666.58,-185.73 1668,-184 1687.16,-160.68 1645.19,-140.11 1615.4,-129.07"/>
<polygon fill="#63b8ff" stroke="#63b8ff" points="1489.27,-216.16 1480.11,-221.47 1490.58,-223.04 1489.27,-216.16"/>
</g>
<!-- Node120&#45;&gt;Node74 -->
<g id="edge70" class="edge">
<title>Node120&#45;&gt;Node74</title>
<path fill="none" stroke="#63b8ff" d="M1395.47,-222.41C1332.27,-214.2 1217.1,-198.91 1119,-184 1114.47,-183.31 1109.73,-182.56 1105.03,-181.8"/>
<polygon fill="#63b8ff" stroke="#63b8ff" points="1395.17,-225.9 1405.53,-223.71 1396.06,-218.95 1395.17,-225.9"/>
</g>
<!-- Node120&#45;&gt;Node85 -->
<g id="edge78" class="edge">
<title>Node120&#45;&gt;Node85</title>
<path fill="none" stroke="#63b8ff" d="M1490.15,-219.9C1597.44,-203.54 1710.6,-190.34 1780.68,-182.64"/>
<polygon fill="#63b8ff" stroke="#63b8ff" points="1489.48,-216.47 1480.12,-221.44 1490.54,-223.38 1489.48,-216.47"/>
</g>
<!-- Node120&#45;&gt;Node119 -->
<g id="edge82" class="edge">
<title>Node120&#45;&gt;Node119</title>
<path fill="none" stroke="#63b8ff" d="M1490.21,-220C1714.4,-192.07 1774.58,-211.69 1995,-184 1999.69,-183.41 2004.62,-182.66 2009.45,-181.86"/>
<polygon fill="#63b8ff" stroke="#63b8ff" points="1489.58,-216.55 1480.1,-221.28 1490.46,-223.49 1489.58,-216.55"/>
</g>
<!-- Node22 -->
<g id="node46" class="node">
<title>Node22</title>
<g id="a_node46"><a xlink:href="Box3D_8cpp.html" target="_top" xlink:title=" ">
<polygon fill="white" stroke="#666666" points="1268.5,-184 1199.5,-184 1199.5,-165 1268.5,-165 1268.5,-184"/>
<text text-anchor="middle" x="1234" y="-172" font-family="Helvetica,sans-Serif" font-size="10.00">Box3D.cpp</text>
</a>
</g>
</g>
<!-- Node120&#45;&gt;Node22 -->
<g id="edge68" class="edge">
<title>Node120&#45;&gt;Node22</title>
<path fill="none" stroke="#63b8ff" d="M1399.63,-217.5C1360.49,-207.58 1303.72,-193.18 1267.84,-184.08"/>
<polygon fill="#63b8ff" stroke="#63b8ff" points="1398.87,-220.92 1409.42,-219.98 1400.59,-214.13 1398.87,-220.92"/>
</g>
<!-- Node121 -->
<g id="node47" class="node">
<title>Node121</title>
<g id="a_node47"><a xlink:href="ColliderCP_8cpp.html" target="_top" xlink:title=" ">
<polygon fill="white" stroke="#666666" points="1373,-184 1287,-184 1287,-165 1373,-165 1373,-184"/>
<text text-anchor="middle" x="1330" y="-172" font-family="Helvetica,sans-Serif" font-size="10.00">ColliderCP.cpp</text>
</a>
</g>
</g>
<!-- Node120&#45;&gt;Node121 -->
<g id="edge71" class="edge">
<title>Node120&#45;&gt;Node121</title>
<path fill="none" stroke="#63b8ff" d="M1415.57,-215.63C1394.75,-205.87 1366.7,-192.71 1348.49,-184.17"/>
<polygon fill="#63b8ff" stroke="#63b8ff" points="1414.3,-218.91 1424.84,-219.98 1417.28,-212.57 1414.3,-218.91"/>
</g>
<!-- Node122 -->
<g id="node48" class="node">
<title>Node122</title>
<g id="a_node48"><a xlink:href="DetectorConfigs_8h.html" target="_top" xlink:title=" ">
<polygon fill="#fff0f0" stroke="red" points="1495,-184 1391,-184 1391,-165 1495,-165 1495,-184"/>
<text text-anchor="middle" x="1443" y="-172" font-family="Helvetica,sans-Serif" font-size="10.00">DetectorConfigs.h</text>
</a>
</g>
</g>
<!-- Node120&#45;&gt;Node122 -->
<g id="edge72" class="edge">
<title>Node120&#45;&gt;Node122</title>
<path fill="none" stroke="#63b8ff" d="M1443,-209.66C1443,-200.93 1443,-190.99 1443,-184.09"/>
<polygon fill="#63b8ff" stroke="#63b8ff" points="1439.5,-209.75 1443,-219.75 1446.5,-209.75 1439.5,-209.75"/>
</g>
<!-- Node126 -->
<g id="node49" class="node">
<title>Node126</title>
<g id="a_node49"><a xlink:href="GameObject_8cpp.html" target="_top" xlink:title=" ">
<polygon fill="white" stroke="#666666" points="1611,-184 1513,-184 1513,-165 1611,-165 1611,-184"/>
<text text-anchor="middle" x="1562" y="-172" font-family="Helvetica,sans-Serif" font-size="10.00">GameObject.cpp</text>
</a>
</g>
</g>
<!-- Node120&#45;&gt;Node126 -->
<g id="edge75" class="edge">
<title>Node120&#45;&gt;Node126</title>
<path fill="none" stroke="#63b8ff" d="M1471.3,-215.9C1493.28,-206.11 1523.18,-192.79 1542.53,-184.17"/>
<polygon fill="#63b8ff" stroke="#63b8ff" points="1469.83,-212.72 1462.12,-219.98 1472.68,-219.11 1469.83,-212.72"/>
</g>
<!-- Node171&#45;&gt;Node2 -->
<g id="edge85" class="edge">
<title>Node171&#45;&gt;Node2</title>
<path fill="none" stroke="#63b8ff" d="M924,-209.66C924,-200.93 924,-190.99 924,-184.09"/>
<polygon fill="#63b8ff" stroke="#63b8ff" points="920.5,-209.75 924,-219.75 927.5,-209.75 920.5,-209.75"/>
</g>
</g>
</svg>
