<?xml version="1.0" encoding="UTF-8" standalone="no"?>
<!DOCTYPE svg PUBLIC "-//W3C//DTD SVG 1.1//EN"
 "http://www.w3.org/Graphics/SVG/1.1/DTD/svg11.dtd">
<!-- Generated by graphviz version 2.43.0 (0)
 -->
<!-- Title: MeshRendererState.h Pages: 1 -->
<svg width="726pt" height="302pt"
 viewBox="0.00 0.00 725.77 302.00" xmlns="http://www.w3.org/2000/svg" xmlns:xlink="http://www.w3.org/1999/xlink">
<g id="graph0" class="graph" transform="scale(1 1) rotate(0) translate(4 298)">
<title>MeshRendererState.h</title>
<!-- Node1 -->
<g id="node1" class="node">
<title>Node1</title>
<g id="a_node1"><a xlink:title=" ">
<polygon fill="#999999" stroke="#666666" points="280.27,-294 158.27,-294 158.27,-275 280.27,-275 280.27,-294"/>
<text text-anchor="middle" x="219.27" y="-282" font-family="Helvetica,sans-Serif" font-size="10.00">MeshRendererState.h</text>
</a>
</g>
</g>
<!-- Node2 -->
<g id="node2" class="node">
<title>Node2</title>
<g id="a_node2"><a xlink:href="Entity_8h.html" target="_top" xlink:title=" ">
<polygon fill="white" stroke="#666666" points="245.77,-239 192.77,-239 192.77,-220 245.77,-220 245.77,-239"/>
<text text-anchor="middle" x="219.27" y="-227" font-family="Helvetica,sans-Serif" font-size="10.00">Entity.h</text>
</a>
</g>
</g>
<!-- Node1&#45;&gt;Node2 -->
<g id="edge1" class="edge">
<title>Node1&#45;&gt;Node2</title>
<path fill="none" stroke="#63b8ff" d="M219.27,-274.75C219.27,-267.8 219.27,-257.85 219.27,-249.13"/>
<polygon fill="#63b8ff" stroke="#63b8ff" points="222.77,-249.09 219.27,-239.09 215.77,-249.09 222.77,-249.09"/>
</g>
<!-- Node5 -->
<g id="node5" class="node">
<title>Node5</title>
<g id="a_node5"><a xlink:href="Handlers_8h.html" target="_top" xlink:title=" ">
<polygon fill="white" stroke="#666666" points="253.77,-74 184.77,-74 184.77,-55 253.77,-55 253.77,-74"/>
<text text-anchor="middle" x="219.27" y="-62" font-family="Helvetica,sans-Serif" font-size="10.00">Handlers.h</text>
</a>
</g>
</g>
<!-- Node1&#45;&gt;Node5 -->
<g id="edge11" class="edge">
<title>Node1&#45;&gt;Node5</title>
<path fill="none" stroke="#63b8ff" d="M158.24,-281.33C123.12,-276.97 80.5,-265.92 52.27,-239 9.27,-198.01 -19.95,-156.31 17.27,-110 36.56,-85.99 120.72,-74.17 174.13,-68.99"/>
<polygon fill="#63b8ff" stroke="#63b8ff" points="174.75,-72.45 184.38,-68.04 174.1,-65.48 174.75,-72.45"/>
</g>
<!-- Node6 -->
<g id="node6" class="node">
<title>Node6</title>
<g id="a_node6"><a xlink:href="GameObjectLayer_8h.html" target="_top" xlink:title=" ">
<polygon fill="white" stroke="#666666" points="174.77,-239 61.77,-239 61.77,-220 174.77,-220 174.77,-239"/>
<text text-anchor="middle" x="118.27" y="-227" font-family="Helvetica,sans-Serif" font-size="10.00">GameObjectLayer.h</text>
</a>
</g>
</g>
<!-- Node1&#45;&gt;Node6 -->
<g id="edge6" class="edge">
<title>Node1&#45;&gt;Node6</title>
<path fill="none" stroke="#63b8ff" d="M203.04,-274.98C187.08,-266.61 162.49,-253.7 143.89,-243.95"/>
<polygon fill="#63b8ff" stroke="#63b8ff" points="145.27,-240.72 134.79,-239.17 142.02,-246.92 145.27,-240.72"/>
</g>
<!-- Node11 -->
<g id="node11" class="node">
<title>Node11</title>
<g id="a_node11"><a xlink:href="DirectX11Draw_8h.html" target="_top" xlink:title=" ">
<polygon fill="white" stroke="#666666" points="449.27,-239 351.27,-239 351.27,-220 449.27,-220 449.27,-239"/>
<text text-anchor="middle" x="400.27" y="-227" font-family="Helvetica,sans-Serif" font-size="10.00">DirectX11Draw.h</text>
</a>
</g>
</g>
<!-- Node1&#45;&gt;Node11 -->
<g id="edge12" class="edge">
<title>Node1&#45;&gt;Node11</title>
<path fill="none" stroke="#63b8ff" d="M248.35,-274.98C278.87,-266.05 327.03,-251.94 360.93,-242.02"/>
<polygon fill="#63b8ff" stroke="#63b8ff" points="362.34,-245.25 370.96,-239.08 360.38,-238.53 362.34,-245.25"/>
</g>
<!-- Node21 -->
<g id="node21" class="node">
<title>Node21</title>
<g id="a_node21"><a xlink:title=" ">
<polygon fill="#e0e0e0" stroke="#999999" points="511.27,-239 467.27,-239 467.27,-220 511.27,-220 511.27,-239"/>
<text text-anchor="middle" x="489.27" y="-227" font-family="Helvetica,sans-Serif" font-size="10.00">string</text>
</a>
</g>
</g>
<!-- Node1&#45;&gt;Node21 -->
<g id="edge26" class="edge">
<title>Node1&#45;&gt;Node21</title>
<path fill="none" stroke="#63b8ff" d="M272.22,-274.95C318.54,-267.17 387.84,-254.83 456.8,-239.18"/>
<polygon fill="#63b8ff" stroke="#63b8ff" points="458.01,-242.5 466.97,-236.85 456.44,-235.68 458.01,-242.5"/>
</g>
<!-- Node3 -->
<g id="node3" class="node">
<title>Node3</title>
<g id="a_node3"><a xlink:href="cmtgb_8h.html" target="_top" xlink:title=" ">
<polygon fill="white" stroke="#666666" points="310.27,-129 254.27,-129 254.27,-110 310.27,-110 310.27,-129"/>
<text text-anchor="middle" x="282.27" y="-117" font-family="Helvetica,sans-Serif" font-size="10.00">cmtgb.h</text>
</a>
</g>
</g>
<!-- Node2&#45;&gt;Node3 -->
<g id="edge2" class="edge">
<title>Node2&#45;&gt;Node3</title>
<path fill="none" stroke="#63b8ff" d="M217.24,-219.67C214.77,-206.82 211.99,-182.55 221.27,-165 228.29,-151.7 241.28,-141.38 253.47,-134.05"/>
<polygon fill="#63b8ff" stroke="#63b8ff" points="255.48,-136.93 262.52,-129.02 252.08,-130.81 255.48,-136.93"/>
</g>
<!-- Node4 -->
<g id="node4" class="node">
<title>Node4</title>
<g id="a_node4"><a xlink:title=" ">
<polygon fill="#e0e0e0" stroke="#999999" points="275.27,-19 225.27,-19 225.27,0 275.27,0 275.27,-19"/>
<text text-anchor="middle" x="250.27" y="-7" font-family="Helvetica,sans-Serif" font-size="10.00">cstdint</text>
</a>
</g>
</g>
<!-- Node3&#45;&gt;Node4 -->
<g id="edge3" class="edge">
<title>Node3&#45;&gt;Node4</title>
<path fill="none" stroke="#63b8ff" d="M279.65,-109.66C274.44,-92.09 262.7,-52.45 255.73,-28.95"/>
<polygon fill="#63b8ff" stroke="#63b8ff" points="259.03,-27.75 252.83,-19.16 252.32,-29.74 259.03,-27.75"/>
</g>
<!-- Node3&#45;&gt;Node5 -->
<g id="edge4" class="edge">
<title>Node3&#45;&gt;Node5</title>
<path fill="none" stroke="#63b8ff" d="M272.15,-109.98C262.83,-102.15 248.8,-90.34 237.53,-80.86"/>
<polygon fill="#63b8ff" stroke="#63b8ff" points="239.48,-77.93 229.57,-74.17 234.97,-83.29 239.48,-77.93"/>
</g>
<!-- Node5&#45;&gt;Node4 -->
<g id="edge5" class="edge">
<title>Node5&#45;&gt;Node4</title>
<path fill="none" stroke="#63b8ff" d="M224.39,-54.75C228.63,-47.49 234.79,-36.95 240.04,-27.98"/>
<polygon fill="#63b8ff" stroke="#63b8ff" points="243.22,-29.49 245.24,-19.09 237.17,-25.95 243.22,-29.49"/>
</g>
<!-- Node7 -->
<g id="node7" class="node">
<title>Node7</title>
<g id="a_node7"><a xlink:href="BitFlag_8h.html" target="_top" xlink:title=" ">
<polygon fill="white" stroke="#666666" points="164.27,-184 72.27,-184 72.27,-165 164.27,-165 164.27,-184"/>
<text text-anchor="middle" x="118.27" y="-172" font-family="Helvetica,sans-Serif" font-size="10.00">MTBit/BitFlag.h</text>
</a>
</g>
</g>
<!-- Node6&#45;&gt;Node7 -->
<g id="edge7" class="edge">
<title>Node6&#45;&gt;Node7</title>
<path fill="none" stroke="#63b8ff" d="M118.27,-219.75C118.27,-212.8 118.27,-202.85 118.27,-194.13"/>
<polygon fill="#63b8ff" stroke="#63b8ff" points="121.77,-194.09 118.27,-184.09 114.77,-194.09 121.77,-194.09"/>
</g>
<!-- Node8 -->
<g id="node8" class="node">
<title>Node8</title>
<g id="a_node8"><a xlink:title=" ">
<polygon fill="#e0e0e0" stroke="#999999" points="235.77,-129 166.77,-129 166.77,-110 235.77,-110 235.77,-129"/>
<text text-anchor="middle" x="201.27" y="-117" font-family="Helvetica,sans-Serif" font-size="10.00">type_traits</text>
</a>
</g>
</g>
<!-- Node7&#45;&gt;Node8 -->
<g id="edge8" class="edge">
<title>Node7&#45;&gt;Node8</title>
<path fill="none" stroke="#63b8ff" d="M131.6,-164.98C144.35,-156.84 163.82,-144.41 178.94,-134.76"/>
<polygon fill="#63b8ff" stroke="#63b8ff" points="181.14,-137.5 187.69,-129.17 177.38,-131.6 181.14,-137.5"/>
</g>
<!-- Node9 -->
<g id="node9" class="node">
<title>Node9</title>
<g id="a_node9"><a xlink:title=" ">
<polygon fill="#e0e0e0" stroke="#999999" points="70.27,-129 26.27,-129 26.27,-110 70.27,-110 70.27,-129"/>
<text text-anchor="middle" x="48.27" y="-117" font-family="Helvetica,sans-Serif" font-size="10.00">bitset</text>
</a>
</g>
</g>
<!-- Node7&#45;&gt;Node9 -->
<g id="edge9" class="edge">
<title>Node7&#45;&gt;Node9</title>
<path fill="none" stroke="#63b8ff" d="M107.02,-164.98C96.47,-157 80.47,-144.88 67.82,-135.31"/>
<polygon fill="#63b8ff" stroke="#63b8ff" points="69.8,-132.42 59.72,-129.17 65.58,-138 69.8,-132.42"/>
</g>
<!-- Node10 -->
<g id="node10" class="node">
<title>Node10</title>
<g id="a_node10"><a xlink:title=" ">
<polygon fill="#e0e0e0" stroke="#999999" points="148.27,-129 88.27,-129 88.27,-110 148.27,-110 148.27,-129"/>
<text text-anchor="middle" x="118.27" y="-117" font-family="Helvetica,sans-Serif" font-size="10.00">concepts</text>
</a>
</g>
</g>
<!-- Node7&#45;&gt;Node10 -->
<g id="edge10" class="edge">
<title>Node7&#45;&gt;Node10</title>
<path fill="none" stroke="#63b8ff" d="M118.27,-164.75C118.27,-157.8 118.27,-147.85 118.27,-139.13"/>
<polygon fill="#63b8ff" stroke="#63b8ff" points="121.77,-139.09 118.27,-129.09 114.77,-139.09 121.77,-139.09"/>
</g>
<!-- Node11&#45;&gt;Node3 -->
<g id="edge13" class="edge">
<title>Node11&#45;&gt;Node3</title>
<path fill="none" stroke="#63b8ff" d="M399.88,-219.6C398.85,-206.2 395.07,-180.75 381.27,-165 365.47,-146.97 340.93,-135.88 320.24,-129.27"/>
<polygon fill="#63b8ff" stroke="#63b8ff" points="321.03,-125.85 310.45,-126.38 319.05,-132.57 321.03,-125.85"/>
</g>
<!-- Node12 -->
<g id="node12" class="node">
<title>Node12</title>
<g id="a_node12"><a xlink:href="Vector4_8h.html" target="_top" xlink:title=" ">
<polygon fill="white" stroke="#666666" points="628.27,-184 566.27,-184 566.27,-165 628.27,-165 628.27,-184"/>
<text text-anchor="middle" x="597.27" y="-172" font-family="Helvetica,sans-Serif" font-size="10.00">Vector4.h</text>
</a>
</g>
</g>
<!-- Node11&#45;&gt;Node12 -->
<g id="edge14" class="edge">
<title>Node11&#45;&gt;Node12</title>
<path fill="none" stroke="#63b8ff" d="M431.92,-219.98C465.62,-210.92 519.09,-196.53 556.06,-186.59"/>
<polygon fill="#63b8ff" stroke="#63b8ff" points="557.27,-189.88 566.02,-183.91 555.45,-183.12 557.27,-189.88"/>
</g>
<!-- Node16 -->
<g id="node16" class="node">
<title>Node16</title>
<g id="a_node16"><a xlink:title=" ">
<polygon fill="#e0e0e0" stroke="#999999" points="717.77,-184 646.77,-184 646.77,-165 717.77,-165 717.77,-184"/>
<text text-anchor="middle" x="682.27" y="-172" font-family="Helvetica,sans-Serif" font-size="10.00">wrl/client.h</text>
</a>
</g>
</g>
<!-- Node11&#45;&gt;Node16 -->
<g id="edge19" class="edge">
<title>Node11&#45;&gt;Node16</title>
<path fill="none" stroke="#63b8ff" d="M445.7,-219.98C491.27,-211.44 563.74,-197.84 636.19,-184.2"/>
<polygon fill="#63b8ff" stroke="#63b8ff" points="637.23,-187.57 646.41,-182.28 635.93,-180.69 637.23,-187.57"/>
</g>
<!-- Node17 -->
<g id="node17" class="node">
<title>Node17</title>
<g id="a_node17"><a xlink:title=" ">
<polygon fill="#e0e0e0" stroke="#999999" points="372.27,-184 330.27,-184 330.27,-165 372.27,-165 372.27,-184"/>
<text text-anchor="middle" x="351.27" y="-172" font-family="Helvetica,sans-Serif" font-size="10.00">array</text>
</a>
</g>
</g>
<!-- Node11&#45;&gt;Node17 -->
<g id="edge20" class="edge">
<title>Node11&#45;&gt;Node17</title>
<path fill="none" stroke="#63b8ff" d="M392.18,-219.75C385.11,-212.11 374.68,-200.82 366.12,-191.56"/>
<polygon fill="#63b8ff" stroke="#63b8ff" points="368.57,-189.06 359.21,-184.09 363.43,-193.81 368.57,-189.06"/>
</g>
<!-- Node18 -->
<g id="node18" class="node">
<title>Node18</title>
<g id="a_node18"><a xlink:href="ShaderType_8h.html" target="_top" xlink:title=" ">
<polygon fill="white" stroke="#666666" points="312.27,-184 230.27,-184 230.27,-165 312.27,-165 312.27,-184"/>
<text text-anchor="middle" x="271.27" y="-172" font-family="Helvetica,sans-Serif" font-size="10.00">ShaderType.h</text>
</a>
</g>
</g>
<!-- Node11&#45;&gt;Node18 -->
<g id="edge21" class="edge">
<title>Node11&#45;&gt;Node18</title>
<path fill="none" stroke="#63b8ff" d="M379.54,-219.98C358.51,-211.34 325.72,-197.87 301.73,-188.02"/>
<polygon fill="#63b8ff" stroke="#63b8ff" points="302.95,-184.73 292.37,-184.17 300.29,-191.21 302.95,-184.73"/>
</g>
<!-- Node19 -->
<g id="node19" class="node">
<title>Node19</title>
<g id="a_node19"><a xlink:title=" ">
<polygon fill="#e0e0e0" stroke="#999999" points="495.77,-129 448.77,-129 448.77,-110 495.77,-110 495.77,-129"/>
<text text-anchor="middle" x="472.27" y="-117" font-family="Helvetica,sans-Serif" font-size="10.00">dxgi.h</text>
</a>
</g>
</g>
<!-- Node11&#45;&gt;Node19 -->
<g id="edge23" class="edge">
<title>Node11&#45;&gt;Node19</title>
<path fill="none" stroke="#63b8ff" d="M406.16,-219.66C418.08,-201.77 445.26,-161 460.8,-137.69"/>
<polygon fill="#63b8ff" stroke="#63b8ff" points="463.86,-139.42 466.49,-129.16 458.04,-135.54 463.86,-139.42"/>
</g>
<!-- Node20 -->
<g id="node20" class="node">
<title>Node20</title>
<g id="a_node20"><a xlink:href="MonitorInfo_8h.html" target="_top" xlink:title=" ">
<polygon fill="white" stroke="#666666" points="548.27,-184 466.27,-184 466.27,-165 548.27,-165 548.27,-184"/>
<text text-anchor="middle" x="507.27" y="-172" font-family="Helvetica,sans-Serif" font-size="10.00">MonitorInfo.h</text>
</a>
</g>
</g>
<!-- Node11&#45;&gt;Node20 -->
<g id="edge24" class="edge">
<title>Node11&#45;&gt;Node20</title>
<path fill="none" stroke="#63b8ff" d="M417.46,-219.98C434.52,-211.54 460.9,-198.47 480.66,-188.68"/>
<polygon fill="#63b8ff" stroke="#63b8ff" points="482.36,-191.75 489.76,-184.17 479.25,-185.47 482.36,-191.75"/>
</g>
<!-- Node13 -->
<g id="node13" class="node">
<title>Node13</title>
<g id="a_node13"><a xlink:title=" ">
<polygon fill="#e0e0e0" stroke="#999999" points="610.27,-74 524.27,-74 524.27,-55 610.27,-55 610.27,-74"/>
<text text-anchor="middle" x="567.27" y="-62" font-family="Helvetica,sans-Serif" font-size="10.00">DirectXMath.h</text>
</a>
</g>
</g>
<!-- Node12&#45;&gt;Node13 -->
<g id="edge15" class="edge">
<title>Node12&#45;&gt;Node13</title>
<path fill="none" stroke="#63b8ff" d="M594.81,-164.66C589.93,-147.09 578.92,-107.45 572.39,-83.95"/>
<polygon fill="#63b8ff" stroke="#63b8ff" points="575.72,-82.86 569.67,-74.16 568.98,-84.73 575.72,-82.86"/>
</g>
<!-- Node14 -->
<g id="node14" class="node">
<title>Node14</title>
<g id="a_node14"><a xlink:href="Vector3_8h.html" target="_top" xlink:title=" ">
<polygon fill="white" stroke="#666666" points="657.27,-129 595.27,-129 595.27,-110 657.27,-110 657.27,-129"/>
<text text-anchor="middle" x="626.27" y="-117" font-family="Helvetica,sans-Serif" font-size="10.00">Vector3.h</text>
</a>
</g>
</g>
<!-- Node12&#45;&gt;Node14 -->
<g id="edge16" class="edge">
<title>Node12&#45;&gt;Node14</title>
<path fill="none" stroke="#63b8ff" d="M602.06,-164.75C606.03,-157.49 611.79,-146.95 616.7,-137.98"/>
<polygon fill="#63b8ff" stroke="#63b8ff" points="619.84,-139.54 621.57,-129.09 613.7,-136.18 619.84,-139.54"/>
</g>
<!-- Node14&#45;&gt;Node13 -->
<g id="edge17" class="edge">
<title>Node14&#45;&gt;Node13</title>
<path fill="none" stroke="#63b8ff" d="M616.79,-109.98C608.07,-102.15 594.92,-90.34 584.37,-80.86"/>
<polygon fill="#63b8ff" stroke="#63b8ff" points="586.7,-78.25 576.92,-74.17 582.02,-83.46 586.7,-78.25"/>
</g>
<!-- Node15 -->
<g id="node15" class="node">
<title>Node15</title>
<g id="a_node15"><a xlink:title=" ">
<polygon fill="#e0e0e0" stroke="#999999" points="675.77,-74 628.77,-74 628.77,-55 675.77,-55 675.77,-74"/>
<text text-anchor="middle" x="652.27" y="-62" font-family="Helvetica,sans-Serif" font-size="10.00">cmath</text>
</a>
</g>
</g>
<!-- Node14&#45;&gt;Node15 -->
<g id="edge18" class="edge">
<title>Node14&#45;&gt;Node15</title>
<path fill="none" stroke="#63b8ff" d="M630.56,-109.75C634.08,-102.57 639.18,-92.18 643.55,-83.27"/>
<polygon fill="#63b8ff" stroke="#63b8ff" points="646.79,-84.61 648.05,-74.09 640.51,-81.53 646.79,-84.61"/>
</g>
<!-- Node18&#45;&gt;Node3 -->
<g id="edge22" class="edge">
<title>Node18&#45;&gt;Node3</title>
<path fill="none" stroke="#63b8ff" d="M273.08,-164.75C274.53,-157.8 276.59,-147.85 278.4,-139.13"/>
<polygon fill="#63b8ff" stroke="#63b8ff" points="281.88,-139.59 280.48,-129.09 275.03,-138.17 281.88,-139.59"/>
</g>
<!-- Node20&#45;&gt;Node19 -->
<g id="edge25" class="edge">
<title>Node20&#45;&gt;Node19</title>
<path fill="none" stroke="#63b8ff" d="M501.49,-164.75C496.65,-157.42 489.59,-146.73 483.62,-137.7"/>
<polygon fill="#63b8ff" stroke="#63b8ff" points="486.37,-135.5 477.94,-129.09 480.53,-139.36 486.37,-135.5"/>
</g>
</g>
</svg>
