<?xml version="1.0" encoding="UTF-8" standalone="no"?>
<!DOCTYPE svg PUBLIC "-//W3C//DTD SVG 1.1//EN"
 "http://www.w3.org/Graphics/SVG/1.1/DTD/svg11.dtd">
<!-- Generated by graphviz version 2.43.0 (0)
 -->
<!-- Title: pop_back.hpp Pages: 1 -->
<svg width="266pt" height="159pt"
 viewBox="0.00 0.00 265.50 159.00" xmlns="http://www.w3.org/2000/svg" xmlns:xlink="http://www.w3.org/1999/xlink">
<g id="graph0" class="graph" transform="scale(1 1) rotate(0) translate(4 155)">
<title>pop_back.hpp</title>
<!-- Node1 -->
<g id="node1" class="node">
<title>Node1</title>
<g id="a_node1"><a xlink:title=" ">
<polygon fill="#999999" stroke="#666666" points="168.5,-151 84.5,-151 84.5,-132 168.5,-132 168.5,-151"/>
<text text-anchor="middle" x="126.5" y="-139" font-family="Helvetica,sans-Serif" font-size="10.00">pop_back.hpp</text>
</a>
</g>
</g>
<!-- Node2 -->
<g id="node2" class="node">
<title>Node2</title>
<g id="a_node2"><a xlink:href="pop__back__fwd_8hpp.html" target="_top" xlink:title=" ">
<polygon fill="white" stroke="#666666" points="115,-96 0,-96 0,-66 115,-66 115,-96"/>
<text text-anchor="start" x="8" y="-84" font-family="Helvetica,sans-Serif" font-size="10.00">boost/mpl/pop_back</text>
<text text-anchor="middle" x="57.5" y="-73" font-family="Helvetica,sans-Serif" font-size="10.00">_fwd.hpp</text>
</a>
</g>
</g>
<!-- Node1&#45;&gt;Node2 -->
<g id="edge1" class="edge">
<title>Node1&#45;&gt;Node2</title>
<path fill="none" stroke="#63b8ff" d="M116.32,-131.87C107.3,-124.22 93.78,-112.76 81.97,-102.75"/>
<polygon fill="#63b8ff" stroke="#63b8ff" points="84.04,-99.91 74.15,-96.11 79.51,-105.25 84.04,-99.91"/>
</g>
<!-- Node3 -->
<g id="node3" class="node">
<title>Node3</title>
<g id="a_node3"><a xlink:href="mpl_2aux___2config_2typeof_8hpp.html" target="_top" xlink:title=" ">
<polygon fill="white" stroke="#666666" points="257.5,-96 133.5,-96 133.5,-66 257.5,-66 257.5,-96"/>
<text text-anchor="start" x="141.5" y="-84" font-family="Helvetica,sans-Serif" font-size="10.00">boost/mpl/aux_/config</text>
<text text-anchor="middle" x="195.5" y="-73" font-family="Helvetica,sans-Serif" font-size="10.00">/typeof.hpp</text>
</a>
</g>
</g>
<!-- Node1&#45;&gt;Node3 -->
<g id="edge2" class="edge">
<title>Node1&#45;&gt;Node3</title>
<path fill="none" stroke="#63b8ff" d="M136.68,-131.87C145.7,-124.22 159.22,-112.76 171.03,-102.75"/>
<polygon fill="#63b8ff" stroke="#63b8ff" points="173.49,-105.25 178.85,-96.11 168.96,-99.91 173.49,-105.25"/>
</g>
<!-- Node4 -->
<g id="node4" class="node">
<title>Node4</title>
<g id="a_node4"><a xlink:href="mpl_2aux___2config_2gcc_8hpp.html" target="_top" xlink:title=" ">
<polygon fill="white" stroke="#666666" points="257.5,-30 133.5,-30 133.5,0 257.5,0 257.5,-30"/>
<text text-anchor="start" x="141.5" y="-18" font-family="Helvetica,sans-Serif" font-size="10.00">boost/mpl/aux_/config</text>
<text text-anchor="middle" x="195.5" y="-7" font-family="Helvetica,sans-Serif" font-size="10.00">/gcc.hpp</text>
</a>
</g>
</g>
<!-- Node3&#45;&gt;Node4 -->
<g id="edge3" class="edge">
<title>Node3&#45;&gt;Node4</title>
<path fill="none" stroke="#63b8ff" d="M195.5,-65.8C195.5,-58.34 195.5,-48.99 195.5,-40.41"/>
<polygon fill="#63b8ff" stroke="#63b8ff" points="199,-40.16 195.5,-30.16 192,-40.16 199,-40.16"/>
</g>
</g>
</svg>
