<?xml version="1.0" encoding="UTF-8" standalone="no"?>
<!DOCTYPE svg PUBLIC "-//W3C//DTD SVG 1.1//EN"
 "http://www.w3.org/Graphics/SVG/1.1/DTD/svg11.dtd">
<!-- Generated by graphviz version 2.43.0 (0)
 -->
<!-- Title: MTImGui.h Pages: 1 -->
<svg width="2887pt" height="412pt"
 viewBox="0.00 0.00 2886.96 412.00" xmlns="http://www.w3.org/2000/svg" xmlns:xlink="http://www.w3.org/1999/xlink">
<g id="graph0" class="graph" transform="scale(1 1) rotate(0) translate(4 408)">
<title>MTImGui.h</title>
<!-- Node1 -->
<g id="node1" class="node">
<title>Node1</title>
<g id="a_node1"><a xlink:title=" ">
<polygon fill="#999999" stroke="#666666" points="802.96,-404 732.96,-404 732.96,-385 802.96,-385 802.96,-404"/>
<text text-anchor="middle" x="767.96" y="-392" font-family="Helvetica,sans-Serif" font-size="10.00">MTImGui.h</text>
</a>
</g>
</g>
<!-- Node2 -->
<g id="node2" class="node">
<title>Node2</title>
<g id="a_node2"><a xlink:title=" ">
<polygon fill="#e0e0e0" stroke="#999999" points="1209.46,-239 1162.46,-239 1162.46,-220 1209.46,-220 1209.46,-239"/>
<text text-anchor="middle" x="1185.96" y="-227" font-family="Helvetica,sans-Serif" font-size="10.00">vector</text>
</a>
</g>
</g>
<!-- Node1&#45;&gt;Node2 -->
<g id="edge1" class="edge">
<title>Node1&#45;&gt;Node2</title>
<path fill="none" stroke="#63b8ff" d="M791.92,-384.88C838.67,-367.99 945.25,-329.11 1033.96,-294 1076.91,-277 1126.17,-256.18 1156.68,-243.12"/>
<polygon fill="#63b8ff" stroke="#63b8ff" points="1158.08,-246.32 1165.89,-239.17 1155.32,-239.89 1158.08,-246.32"/>
</g>
<!-- Node3 -->
<g id="node3" class="node">
<title>Node3</title>
<g id="a_node3"><a xlink:title=" ">
<polygon fill="#e0e0e0" stroke="#999999" points="333.46,-349 286.46,-349 286.46,-330 333.46,-330 333.46,-349"/>
<text text-anchor="middle" x="309.96" y="-337" font-family="Helvetica,sans-Serif" font-size="10.00">queue</text>
</a>
</g>
</g>
<!-- Node1&#45;&gt;Node3 -->
<g id="edge2" class="edge">
<title>Node1&#45;&gt;Node3</title>
<path fill="none" stroke="#63b8ff" d="M732.93,-391.15C660.63,-386 489.77,-372.3 347.96,-349 346.5,-348.76 345.01,-348.5 343.51,-348.22"/>
<polygon fill="#63b8ff" stroke="#63b8ff" points="344.09,-344.77 333.59,-346.23 342.7,-351.63 344.09,-344.77"/>
</g>
<!-- Node4 -->
<g id="node4" class="node">
<title>Node4</title>
<g id="a_node4"><a xlink:title=" ">
<polygon fill="#e0e0e0" stroke="#999999" points="557.46,-129 488.46,-129 488.46,-110 557.46,-110 557.46,-129"/>
<text text-anchor="middle" x="522.96" y="-117" font-family="Helvetica,sans-Serif" font-size="10.00">type_traits</text>
</a>
</g>
</g>
<!-- Node1&#45;&gt;Node4 -->
<g id="edge3" class="edge">
<title>Node1&#45;&gt;Node4</title>
<path fill="none" stroke="#63b8ff" d="M732.76,-392.31C582.31,-386.75 0.96,-360.43 0.96,-285.5 0.96,-285.5 0.96,-285.5 0.96,-228.5 0.96,-199.04 -2.87,-183.62 19.96,-165 55.07,-136.36 361.58,-124.95 478.19,-121.63"/>
<polygon fill="#63b8ff" stroke="#63b8ff" points="478.31,-125.12 488.21,-121.35 478.12,-118.13 478.31,-125.12"/>
</g>
<!-- Node5 -->
<g id="node5" class="node">
<title>Node5</title>
<g id="a_node5"><a xlink:title=" ">
<polygon fill="#e0e0e0" stroke="#999999" points="494.46,-184 429.46,-184 429.46,-165 494.46,-165 494.46,-184"/>
<text text-anchor="middle" x="461.96" y="-172" font-family="Helvetica,sans-Serif" font-size="10.00">typeindex</text>
</a>
</g>
</g>
<!-- Node1&#45;&gt;Node5 -->
<g id="edge4" class="edge">
<title>Node1&#45;&gt;Node5</title>
<path fill="none" stroke="#63b8ff" d="M732.94,-388.94C652.1,-377.62 456.52,-345.36 418.96,-294 395.5,-261.92 426.95,-215.73 447.22,-191.58"/>
<polygon fill="#63b8ff" stroke="#63b8ff" points="449.88,-193.86 453.82,-184.02 444.61,-189.26 449.88,-193.86"/>
</g>
<!-- Node6 -->
<g id="node6" class="node">
<title>Node6</title>
<g id="a_node6"><a xlink:title=" ">
<polygon fill="#e0e0e0" stroke="#999999" points="493.46,-294 428.46,-294 428.46,-275 493.46,-275 493.46,-294"/>
<text text-anchor="middle" x="460.96" y="-282" font-family="Helvetica,sans-Serif" font-size="10.00">functional</text>
</a>
</g>
</g>
<!-- Node1&#45;&gt;Node6 -->
<g id="edge5" class="edge">
<title>Node1&#45;&gt;Node6</title>
<path fill="none" stroke="#63b8ff" d="M743.61,-384.94C689.2,-365.79 557.63,-319.51 495.09,-297.51"/>
<polygon fill="#63b8ff" stroke="#63b8ff" points="495.9,-294.08 485.31,-294.07 493.58,-300.69 495.9,-294.08"/>
</g>
<!-- Node7 -->
<g id="node7" class="node">
<title>Node7</title>
<g id="a_node7"><a xlink:href="ShowType_8h.html" target="_top" xlink:title=" ">
<polygon fill="white" stroke="#666666" points="249.96,-239 175.96,-239 175.96,-220 249.96,-220 249.96,-239"/>
<text text-anchor="middle" x="212.96" y="-227" font-family="Helvetica,sans-Serif" font-size="10.00">ShowType.h</text>
</a>
</g>
</g>
<!-- Node1&#45;&gt;Node7 -->
<g id="edge6" class="edge">
<title>Node1&#45;&gt;Node7</title>
<path fill="none" stroke="#63b8ff" d="M732.87,-391.57C650.94,-386.72 449.19,-372.68 385.96,-349 322.03,-325.07 258.95,-272.63 229.76,-246.27"/>
<polygon fill="#63b8ff" stroke="#63b8ff" points="231.88,-243.47 222.14,-239.29 227.14,-248.62 231.88,-243.47"/>
</g>
<!-- Node8 -->
<g id="node8" class="node">
<title>Node8</title>
<g id="a_node8"><a xlink:href="ImGuiShowable_8h.html" target="_top" xlink:title=" ">
<polygon fill="white" stroke="#666666" points="759.96,-294 657.96,-294 657.96,-275 759.96,-275 759.96,-294"/>
<text text-anchor="middle" x="708.96" y="-282" font-family="Helvetica,sans-Serif" font-size="10.00">ImGuiShowable.h</text>
</a>
</g>
</g>
<!-- Node1&#45;&gt;Node8 -->
<g id="edge7" class="edge">
<title>Node1&#45;&gt;Node8</title>
<path fill="none" stroke="#63b8ff" d="M760.43,-384.75C753.24,-376.09 742.42,-362.24 734.96,-349 726.73,-334.41 719.7,-316.69 715.03,-303.68"/>
<polygon fill="#63b8ff" stroke="#63b8ff" points="718.27,-302.33 711.69,-294.03 711.65,-304.62 718.27,-302.33"/>
</g>
<!-- Node20 -->
<g id="node20" class="node">
<title>Node20</title>
<g id="a_node20"><a xlink:href="cmtgb_8h.html" target="_top" xlink:title=" ">
<polygon fill="white" stroke="#666666" points="2350.96,-129 2294.96,-129 2294.96,-110 2350.96,-110 2350.96,-129"/>
<text text-anchor="middle" x="2322.96" y="-117" font-family="Helvetica,sans-Serif" font-size="10.00">cmtgb.h</text>
</a>
</g>
</g>
<!-- Node1&#45;&gt;Node20 -->
<g id="edge45" class="edge">
<title>Node1&#45;&gt;Node20</title>
<path fill="none" stroke="#63b8ff" d="M803.27,-393.6C1079.21,-394.2 2878.96,-393.93 2878.96,-285.5 2878.96,-285.5 2878.96,-285.5 2878.96,-228.5 2878.96,-122.92 2487.73,-118.47 2361.63,-119.78"/>
<polygon fill="#63b8ff" stroke="#63b8ff" points="2361.25,-116.29 2351.29,-119.91 2361.34,-123.29 2361.25,-116.29"/>
</g>
<!-- Node24 -->
<g id="node24" class="node">
<title>Node24</title>
<g id="a_node24"><a xlink:href="TypeRegistry_8h.html" target="_top" xlink:title=" ">
<polygon fill="white" stroke="#666666" points="830.46,-349 743.46,-349 743.46,-330 830.46,-330 830.46,-349"/>
<text text-anchor="middle" x="786.96" y="-337" font-family="Helvetica,sans-Serif" font-size="10.00">TypeRegistry.h</text>
</a>
</g>
</g>
<!-- Node1&#45;&gt;Node24 -->
<g id="edge27" class="edge">
<title>Node1&#45;&gt;Node24</title>
<path fill="none" stroke="#63b8ff" d="M771.09,-384.75C773.64,-377.65 777.31,-367.4 780.48,-358.56"/>
<polygon fill="#63b8ff" stroke="#63b8ff" points="783.8,-359.68 783.88,-349.09 777.21,-357.32 783.8,-359.68"/>
</g>
<!-- Node37 -->
<g id="node32" class="node">
<title>Node37</title>
<g id="a_node32"><a xlink:title=" ">
<polygon fill="#e0e0e0" stroke="#999999" points="1498.96,-349 1460.96,-349 1460.96,-330 1498.96,-330 1498.96,-349"/>
<text text-anchor="middle" x="1479.96" y="-337" font-family="Helvetica,sans-Serif" font-size="10.00">map</text>
</a>
</g>
</g>
<!-- Node1&#45;&gt;Node37 -->
<g id="edge44" class="edge">
<title>Node1&#45;&gt;Node37</title>
<path fill="none" stroke="#63b8ff" d="M803.18,-394.04C903.43,-394.99 1198.75,-393.63 1450.74,-348.76"/>
<polygon fill="#63b8ff" stroke="#63b8ff" points="1451.6,-352.17 1460.82,-346.94 1450.36,-345.28 1451.6,-352.17"/>
</g>
<!-- Node38 -->
<g id="node33" class="node">
<title>Node38</title>
<g id="a_node33"><a xlink:href="GameObject_8h.html" target="_top" xlink:title=" ">
<polygon fill="white" stroke="#666666" points="1442.96,-349 1356.96,-349 1356.96,-330 1442.96,-330 1442.96,-349"/>
<text text-anchor="middle" x="1399.96" y="-337" font-family="Helvetica,sans-Serif" font-size="10.00">GameObject.h</text>
</a>
</g>
</g>
<!-- Node1&#45;&gt;Node38 -->
<g id="edge46" class="edge">
<title>Node1&#45;&gt;Node38</title>
<path fill="none" stroke="#63b8ff" d="M803.29,-390.54C908.6,-381.71 1220.8,-355.52 1346.57,-344.98"/>
<polygon fill="#63b8ff" stroke="#63b8ff" points="1347.05,-348.45 1356.73,-344.13 1346.47,-341.47 1347.05,-348.45"/>
</g>
<!-- Node8&#45;&gt;Node5 -->
<g id="edge12" class="edge">
<title>Node8&#45;&gt;Node5</title>
<path fill="none" stroke="#63b8ff" d="M657.55,-283.74C612.2,-281.52 546.28,-272.12 499.96,-239 484.31,-227.82 473.97,-208 468.08,-193.48"/>
<polygon fill="#63b8ff" stroke="#63b8ff" points="471.33,-192.18 464.57,-184.03 464.77,-194.62 471.33,-192.18"/>
</g>
<!-- Node8&#45;&gt;Node7 -->
<g id="edge20" class="edge">
<title>Node8&#45;&gt;Node7</title>
<path fill="none" stroke="#63b8ff" d="M657.84,-279.85C576.07,-273.71 410.6,-260.02 260.4,-239.09"/>
<polygon fill="#63b8ff" stroke="#63b8ff" points="260.46,-235.56 250.07,-237.63 259.48,-242.5 260.46,-235.56"/>
</g>
<!-- Node9 -->
<g id="node9" class="node">
<title>Node9</title>
<g id="a_node9"><a xlink:title=" ">
<polygon fill="#e0e0e0" stroke="#999999" points="1626.96,-184 1582.96,-184 1582.96,-165 1626.96,-165 1626.96,-184"/>
<text text-anchor="middle" x="1604.96" y="-172" font-family="Helvetica,sans-Serif" font-size="10.00">string</text>
</a>
</g>
</g>
<!-- Node8&#45;&gt;Node9 -->
<g id="edge8" class="edge">
<title>Node8&#45;&gt;Node9</title>
<path fill="none" stroke="#63b8ff" d="M760.24,-281.33C894,-275.46 1251.16,-258.4 1367.96,-239 1388.27,-235.63 1513.05,-201.14 1572.94,-184.45"/>
<polygon fill="#63b8ff" stroke="#63b8ff" points="1573.96,-187.8 1582.65,-181.74 1572.08,-181.06 1573.96,-187.8"/>
</g>
<!-- Node10 -->
<g id="node10" class="node">
<title>Node10</title>
<g id="a_node10"><a xlink:href="ISystem_8h.html" target="_top" xlink:title=" ">
<polygon fill="white" stroke="#666666" points="1513.46,-184 1448.46,-184 1448.46,-165 1513.46,-165 1513.46,-184"/>
<text text-anchor="middle" x="1480.96" y="-172" font-family="Helvetica,sans-Serif" font-size="10.00">ISystem.h</text>
</a>
</g>
</g>
<!-- Node8&#45;&gt;Node10 -->
<g id="edge9" class="edge">
<title>Node8&#45;&gt;Node10</title>
<path fill="none" stroke="#63b8ff" d="M713.32,-274.54C720.93,-260.08 738.09,-231.99 761.96,-220 826.4,-187.64 1338.12,-190.29 1409.96,-184 1419.03,-183.21 1428.74,-182.17 1437.97,-181.09"/>
<polygon fill="#63b8ff" stroke="#63b8ff" points="1438.62,-184.54 1448.13,-179.87 1437.78,-177.59 1438.62,-184.54"/>
</g>
<!-- Node11 -->
<g id="node11" class="node">
<title>Node11</title>
<g id="a_node11"><a xlink:title=" ">
<polygon fill="#e0e0e0" stroke="#999999" points="916.46,-239 881.46,-239 881.46,-220 916.46,-220 916.46,-239"/>
<text text-anchor="middle" x="898.96" y="-227" font-family="Helvetica,sans-Serif" font-size="10.00">any</text>
</a>
</g>
</g>
<!-- Node8&#45;&gt;Node11 -->
<g id="edge10" class="edge">
<title>Node8&#45;&gt;Node11</title>
<path fill="none" stroke="#63b8ff" d="M742.39,-274.96C773.62,-266.87 821.74,-254.1 871.7,-239.27"/>
<polygon fill="#63b8ff" stroke="#63b8ff" points="872.79,-242.6 881.37,-236.38 870.79,-235.89 872.79,-242.6"/>
</g>
<!-- Node12 -->
<g id="node12" class="node">
<title>Node12</title>
<g id="a_node12"><a xlink:title=" ">
<polygon fill="#e0e0e0" stroke="#999999" points="863.46,-239 770.46,-239 770.46,-220 863.46,-220 863.46,-239"/>
<text text-anchor="middle" x="816.96" y="-227" font-family="Helvetica,sans-Serif" font-size="10.00">unordered_map</text>
</a>
</g>
</g>
<!-- Node8&#45;&gt;Node12 -->
<g id="edge11" class="edge">
<title>Node8&#45;&gt;Node12</title>
<path fill="none" stroke="#63b8ff" d="M726.31,-274.98C743.53,-266.54 770.16,-253.47 790.1,-243.68"/>
<polygon fill="#63b8ff" stroke="#63b8ff" points="791.85,-246.72 799.29,-239.17 788.77,-240.43 791.85,-246.72"/>
</g>
<!-- Node13 -->
<g id="node13" class="node">
<title>Node13</title>
<g id="a_node13"><a xlink:href="WindowContext_8h.html" target="_top" xlink:title=" ">
<polygon fill="white" stroke="#666666" points="371.46,-239 268.46,-239 268.46,-220 371.46,-220 371.46,-239"/>
<text text-anchor="middle" x="319.96" y="-227" font-family="Helvetica,sans-Serif" font-size="10.00">WindowContext.h</text>
</a>
</g>
</g>
<!-- Node8&#45;&gt;Node13 -->
<g id="edge13" class="edge">
<title>Node8&#45;&gt;Node13</title>
<path fill="none" stroke="#63b8ff" d="M657.7,-276.52C586.52,-266.82 457.91,-249.3 381.59,-238.9"/>
<polygon fill="#63b8ff" stroke="#63b8ff" points="382.02,-235.42 371.64,-237.54 381.07,-242.36 382.02,-235.42"/>
</g>
<!-- Node19 -->
<g id="node19" class="node">
<title>Node19</title>
<g id="a_node19"><a xlink:href="Entity_8h.html" target="_top" xlink:title=" ">
<polygon fill="white" stroke="#666666" points="1400.46,-184 1347.46,-184 1347.46,-165 1400.46,-165 1400.46,-184"/>
<text text-anchor="middle" x="1373.96" y="-172" font-family="Helvetica,sans-Serif" font-size="10.00">Entity.h</text>
</a>
</g>
</g>
<!-- Node8&#45;&gt;Node19 -->
<g id="edge21" class="edge">
<title>Node8&#45;&gt;Node19</title>
<path fill="none" stroke="#63b8ff" d="M708.68,-274.84C708.75,-260.79 711.18,-233.3 727.96,-220 779.77,-178.92 1256.25,-191.34 1321.96,-184 1326.87,-183.45 1332.02,-182.76 1337.1,-182"/>
<polygon fill="#63b8ff" stroke="#63b8ff" points="1337.98,-185.4 1347.31,-180.39 1336.88,-178.49 1337.98,-185.4"/>
</g>
<!-- Node23 -->
<g id="node23" class="node">
<title>Node23</title>
<g id="a_node23"><a xlink:title=" ">
<polygon fill="#e0e0e0" stroke="#999999" points="995.46,-184 922.46,-184 922.46,-165 995.46,-165 995.46,-184"/>
<text text-anchor="middle" x="958.96" y="-172" font-family="Helvetica,sans-Serif" font-size="10.00">string_view</text>
</a>
</g>
</g>
<!-- Node8&#45;&gt;Node23 -->
<g id="edge26" class="edge">
<title>Node8&#45;&gt;Node23</title>
<path fill="none" stroke="#63b8ff" d="M701.72,-274.65C691.73,-261.33 676.41,-235.97 689.96,-220 717.92,-187.04 842.88,-178.46 912.22,-176.25"/>
<polygon fill="#63b8ff" stroke="#63b8ff" points="912.54,-179.74 922.44,-175.96 912.34,-172.74 912.54,-179.74"/>
</g>
<!-- Node13&#45;&gt;Node9 -->
<g id="edge14" class="edge">
<title>Node13&#45;&gt;Node9</title>
<path fill="none" stroke="#63b8ff" d="M371.6,-226.39C414.74,-224.64 477.85,-222.1 532.96,-220 972.93,-203.22 1083.74,-214.72 1522.96,-184 1539.27,-182.86 1557.36,-181.04 1572.39,-179.38"/>
<polygon fill="#63b8ff" stroke="#63b8ff" points="1573.18,-182.82 1582.72,-178.21 1572.39,-175.86 1573.18,-182.82"/>
</g>
<!-- Node14 -->
<g id="node14" class="node">
<title>Node14</title>
<g id="a_node14"><a xlink:title=" ">
<polygon fill="#e0e0e0" stroke="#999999" points="257.96,-184 201.96,-184 201.96,-165 257.96,-165 257.96,-184"/>
<text text-anchor="middle" x="229.96" y="-172" font-family="Helvetica,sans-Serif" font-size="10.00">d3d11.h</text>
</a>
</g>
</g>
<!-- Node13&#45;&gt;Node14 -->
<g id="edge15" class="edge">
<title>Node13&#45;&gt;Node14</title>
<path fill="none" stroke="#63b8ff" d="M305.5,-219.98C291.54,-211.77 270.16,-199.18 253.71,-189.49"/>
<polygon fill="#63b8ff" stroke="#63b8ff" points="255.07,-186.23 244.68,-184.17 251.52,-192.26 255.07,-186.23"/>
</g>
<!-- Node15 -->
<g id="node15" class="node">
<title>Node15</title>
<g id="a_node15"><a xlink:title=" ">
<polygon fill="#e0e0e0" stroke="#999999" points="345.96,-184 275.96,-184 275.96,-165 345.96,-165 345.96,-184"/>
<text text-anchor="middle" x="310.96" y="-172" font-family="Helvetica,sans-Serif" font-size="10.00">Windows.h</text>
</a>
</g>
</g>
<!-- Node13&#45;&gt;Node15 -->
<g id="edge16" class="edge">
<title>Node13&#45;&gt;Node15</title>
<path fill="none" stroke="#63b8ff" d="M318.47,-219.75C317.29,-212.8 315.6,-202.85 314.12,-194.13"/>
<polygon fill="#63b8ff" stroke="#63b8ff" points="317.54,-193.36 312.42,-184.09 310.64,-194.53 317.54,-193.36"/>
</g>
<!-- Node16 -->
<g id="node16" class="node">
<title>Node16</title>
<g id="a_node16"><a xlink:title=" ">
<polygon fill="#e0e0e0" stroke="#999999" points="411.46,-184 364.46,-184 364.46,-165 411.46,-165 411.46,-184"/>
<text text-anchor="middle" x="387.96" y="-172" font-family="Helvetica,sans-Serif" font-size="10.00">dxgi.h</text>
</a>
</g>
</g>
<!-- Node13&#45;&gt;Node16 -->
<g id="edge17" class="edge">
<title>Node13&#45;&gt;Node16</title>
<path fill="none" stroke="#63b8ff" d="M330.88,-219.98C341.03,-212.07 356.38,-200.11 368.6,-190.58"/>
<polygon fill="#63b8ff" stroke="#63b8ff" points="371.1,-193.08 376.83,-184.17 366.79,-187.56 371.1,-193.08"/>
</g>
<!-- Node17 -->
<g id="node17" class="node">
<title>Node17</title>
<g id="a_node17"><a xlink:title=" ">
<polygon fill="#e0e0e0" stroke="#999999" points="94.46,-184 29.46,-184 29.46,-165 94.46,-165 94.46,-184"/>
<text text-anchor="middle" x="61.96" y="-172" font-family="Helvetica,sans-Serif" font-size="10.00">Dxgi1_2.h</text>
</a>
</g>
</g>
<!-- Node13&#45;&gt;Node17 -->
<g id="edge18" class="edge">
<title>Node13&#45;&gt;Node17</title>
<path fill="none" stroke="#63b8ff" d="M278.35,-220C236.8,-211.5 170.81,-197.98 104.79,-184.38"/>
<polygon fill="#63b8ff" stroke="#63b8ff" points="105.13,-180.87 94.63,-182.28 103.72,-187.73 105.13,-180.87"/>
</g>
<!-- Node18 -->
<g id="node18" class="node">
<title>Node18</title>
<g id="a_node18"><a xlink:title=" ">
<polygon fill="#e0e0e0" stroke="#999999" points="183.46,-184 112.46,-184 112.46,-165 183.46,-165 183.46,-184"/>
<text text-anchor="middle" x="147.96" y="-172" font-family="Helvetica,sans-Serif" font-size="10.00">wrl/client.h</text>
</a>
</g>
</g>
<!-- Node13&#45;&gt;Node18 -->
<g id="edge19" class="edge">
<title>Node13&#45;&gt;Node18</title>
<path fill="none" stroke="#63b8ff" d="M292.32,-219.98C263.45,-211.09 217.95,-197.07 185.75,-187.15"/>
<polygon fill="#63b8ff" stroke="#63b8ff" points="186.4,-183.68 175.81,-184.08 184.33,-190.37 186.4,-183.68"/>
</g>
<!-- Node19&#45;&gt;Node20 -->
<g id="edge22" class="edge">
<title>Node19&#45;&gt;Node20</title>
<path fill="none" stroke="#63b8ff" d="M1400.56,-169.6C1412.57,-167.96 1426.95,-166.16 1439.96,-165 1766.03,-135.83 2161.68,-124.38 2284.64,-121.37"/>
<polygon fill="#63b8ff" stroke="#63b8ff" points="2284.78,-124.86 2294.69,-121.13 2284.61,-117.87 2284.78,-124.86"/>
</g>
<!-- Node21 -->
<g id="node21" class="node">
<title>Node21</title>
<g id="a_node21"><a xlink:title=" ">
<polygon fill="#e0e0e0" stroke="#999999" points="2347.96,-19 2297.96,-19 2297.96,0 2347.96,0 2347.96,-19"/>
<text text-anchor="middle" x="2322.96" y="-7" font-family="Helvetica,sans-Serif" font-size="10.00">cstdint</text>
</a>
</g>
</g>
<!-- Node20&#45;&gt;Node21 -->
<g id="edge23" class="edge">
<title>Node20&#45;&gt;Node21</title>
<path fill="none" stroke="#63b8ff" d="M2320.13,-109.75C2317.41,-100.86 2313.5,-86.64 2311.96,-74 2310.1,-58.71 2313.42,-41.5 2316.89,-28.86"/>
<polygon fill="#63b8ff" stroke="#63b8ff" points="2320.3,-29.67 2319.85,-19.09 2313.6,-27.64 2320.3,-29.67"/>
</g>
<!-- Node22 -->
<g id="node22" class="node">
<title>Node22</title>
<g id="a_node22"><a xlink:href="Handlers_8h.html" target="_top" xlink:title=" ">
<polygon fill="white" stroke="#666666" points="2389.46,-74 2320.46,-74 2320.46,-55 2389.46,-55 2389.46,-74"/>
<text text-anchor="middle" x="2354.96" y="-62" font-family="Helvetica,sans-Serif" font-size="10.00">Handlers.h</text>
</a>
</g>
</g>
<!-- Node20&#45;&gt;Node22 -->
<g id="edge24" class="edge">
<title>Node20&#45;&gt;Node22</title>
<path fill="none" stroke="#63b8ff" d="M2328.24,-109.75C2332.67,-102.42 2339.12,-91.73 2344.58,-82.7"/>
<polygon fill="#63b8ff" stroke="#63b8ff" points="2347.6,-84.46 2349.77,-74.09 2341.61,-80.84 2347.6,-84.46"/>
</g>
<!-- Node22&#45;&gt;Node21 -->
<g id="edge25" class="edge">
<title>Node22&#45;&gt;Node21</title>
<path fill="none" stroke="#63b8ff" d="M2349.67,-54.75C2345.25,-47.42 2338.79,-36.73 2333.34,-27.7"/>
<polygon fill="#63b8ff" stroke="#63b8ff" points="2336.31,-25.84 2328.14,-19.09 2330.32,-29.46 2336.31,-25.84"/>
</g>
<!-- Node24&#45;&gt;Node5 -->
<g id="edge28" class="edge">
<title>Node24&#45;&gt;Node5</title>
<path fill="none" stroke="#63b8ff" d="M743.38,-337.03C676.74,-332.36 549.78,-313.56 478.96,-239 467.55,-226.99 463.61,-208.18 462.34,-194.14"/>
<polygon fill="#63b8ff" stroke="#63b8ff" points="465.83,-193.93 461.8,-184.13 458.84,-194.3 465.83,-193.93"/>
</g>
<!-- Node24&#45;&gt;Node6 -->
<g id="edge29" class="edge">
<title>Node24&#45;&gt;Node6</title>
<path fill="none" stroke="#63b8ff" d="M743.42,-331.84C688.48,-323.38 591.13,-308.15 507.96,-294 506.5,-293.75 505.02,-293.5 503.52,-293.24"/>
<polygon fill="#63b8ff" stroke="#63b8ff" points="504.01,-289.77 493.56,-291.49 502.8,-296.67 504.01,-289.77"/>
</g>
<!-- Node24&#45;&gt;Node11 -->
<g id="edge31" class="edge">
<title>Node24&#45;&gt;Node11</title>
<path fill="none" stroke="#63b8ff" d="M796.12,-329.66C815.09,-311.38 858.84,-269.18 882.71,-246.17"/>
<polygon fill="#63b8ff" stroke="#63b8ff" points="885.21,-248.62 889.98,-239.16 880.35,-243.58 885.21,-248.62"/>
</g>
<!-- Node24&#45;&gt;Node12 -->
<g id="edge30" class="edge">
<title>Node24&#45;&gt;Node12</title>
<path fill="none" stroke="#63b8ff" d="M789.41,-329.66C794.29,-312.09 805.31,-272.45 811.83,-248.95"/>
<polygon fill="#63b8ff" stroke="#63b8ff" points="815.25,-249.73 814.55,-239.16 808.5,-247.86 815.25,-249.73"/>
</g>
<!-- Node25 -->
<g id="node25" class="node">
<title>Node25</title>
<g id="a_node25"><a xlink:href="DefaultShow_8h.html" target="_top" xlink:title=" ">
<polygon fill="white" stroke="#666666" points="1024.46,-294 937.46,-294 937.46,-275 1024.46,-275 1024.46,-294"/>
<text text-anchor="middle" x="980.96" y="-282" font-family="Helvetica,sans-Serif" font-size="10.00">DefaultShow.h</text>
</a>
</g>
</g>
<!-- Node24&#45;&gt;Node25 -->
<g id="edge32" class="edge">
<title>Node24&#45;&gt;Node25</title>
<path fill="none" stroke="#63b8ff" d="M818.13,-329.98C851.12,-320.97 903.35,-306.7 939.73,-296.76"/>
<polygon fill="#63b8ff" stroke="#63b8ff" points="940.82,-300.09 949.54,-294.08 938.97,-293.34 940.82,-300.09"/>
</g>
<!-- Node25&#45;&gt;Node2 -->
<g id="edge35" class="edge">
<title>Node25&#45;&gt;Node2</title>
<path fill="none" stroke="#63b8ff" d="M1013.89,-274.98C1051.86,-265.17 1113.94,-249.12 1152.24,-239.22"/>
<polygon fill="#63b8ff" stroke="#63b8ff" points="1153.56,-242.49 1162.37,-236.6 1151.81,-235.71 1153.56,-242.49"/>
</g>
<!-- Node25&#45;&gt;Node4 -->
<g id="edge33" class="edge">
<title>Node25&#45;&gt;Node4</title>
<path fill="none" stroke="#63b8ff" d="M937.27,-282.28C830.12,-278.85 561,-267.46 532.96,-239 506.97,-212.62 512.49,-165.03 518.12,-138.9"/>
<polygon fill="#63b8ff" stroke="#63b8ff" points="521.53,-139.69 520.45,-129.15 514.73,-138.06 521.53,-139.69"/>
</g>
<!-- Node25&#45;&gt;Node9 -->
<g id="edge34" class="edge">
<title>Node25&#45;&gt;Node9</title>
<path fill="none" stroke="#63b8ff" d="M1024.8,-281.93C1149.71,-277.2 1501.48,-261.96 1547.96,-239 1568.22,-228.99 1584.58,-208.35 1594.49,-193.32"/>
<polygon fill="#63b8ff" stroke="#63b8ff" points="1597.72,-194.75 1600.04,-184.41 1591.78,-191.04 1597.72,-194.75"/>
</g>
<!-- Node26 -->
<g id="node26" class="node">
<title>Node26</title>
<g id="a_node26"><a xlink:href="imgui_8h.html" target="_top" xlink:title=" ">
<polygon fill="#fff0f0" stroke="red" points="637.46,-239 542.46,-239 542.46,-220 637.46,-220 637.46,-239"/>
<text text-anchor="middle" x="589.96" y="-227" font-family="Helvetica,sans-Serif" font-size="10.00">../ImGui/imgui.h</text>
</a>
</g>
</g>
<!-- Node25&#45;&gt;Node26 -->
<g id="edge36" class="edge">
<title>Node25&#45;&gt;Node26</title>
<path fill="none" stroke="#63b8ff" d="M937.24,-277.57C866.49,-267.98 726.85,-249.06 647.9,-238.35"/>
<polygon fill="#63b8ff" stroke="#63b8ff" points="648.02,-234.84 637.64,-236.96 647.08,-241.78 648.02,-234.84"/>
</g>
<!-- Node33 -->
<g id="node30" class="node">
<title>Node33</title>
<g id="a_node30"><a xlink:href="MTStringUtility_8h.html" target="_top" xlink:title=" ">
<polygon fill="white" stroke="#666666" points="1143.96,-239 1045.96,-239 1045.96,-220 1143.96,-220 1143.96,-239"/>
<text text-anchor="middle" x="1094.96" y="-227" font-family="Helvetica,sans-Serif" font-size="10.00">MTStringUtility.h</text>
</a>
</g>
</g>
<!-- Node25&#45;&gt;Node33 -->
<g id="edge40" class="edge">
<title>Node25&#45;&gt;Node33</title>
<path fill="none" stroke="#63b8ff" d="M999.27,-274.98C1017.61,-266.46 1046.07,-253.23 1067.18,-243.41"/>
<polygon fill="#63b8ff" stroke="#63b8ff" points="1068.72,-246.56 1076.31,-239.17 1065.76,-240.21 1068.72,-246.56"/>
</g>
<!-- Node34 -->
<g id="node31" class="node">
<title>Node34</title>
<g id="a_node31"><a xlink:href="DefaultShow_8inl.html" target="_top" xlink:title=" ">
<polygon fill="#fff0f0" stroke="red" points="1027.46,-239 934.46,-239 934.46,-220 1027.46,-220 1027.46,-239"/>
<text text-anchor="middle" x="980.96" y="-227" font-family="Helvetica,sans-Serif" font-size="10.00">DefaultShow.inl</text>
</a>
</g>
</g>
<!-- Node25&#45;&gt;Node34 -->
<g id="edge43" class="edge">
<title>Node25&#45;&gt;Node34</title>
<path fill="none" stroke="#63b8ff" d="M980.96,-274.75C980.96,-267.8 980.96,-257.85 980.96,-249.13"/>
<polygon fill="#63b8ff" stroke="#63b8ff" points="984.46,-249.09 980.96,-239.09 977.46,-249.09 984.46,-249.09"/>
</g>
<!-- Node27 -->
<g id="node27" class="node">
<title>Node27</title>
<g id="a_node27"><a xlink:href="imconfig_8h.html" target="_top" xlink:title=" ">
<polygon fill="white" stroke="#666666" points="692.96,-184 624.96,-184 624.96,-165 692.96,-165 692.96,-184"/>
<text text-anchor="middle" x="658.96" y="-172" font-family="Helvetica,sans-Serif" font-size="10.00">imconfig.h</text>
</a>
</g>
</g>
<!-- Node26&#45;&gt;Node27 -->
<g id="edge37" class="edge">
<title>Node26&#45;&gt;Node27</title>
<path fill="none" stroke="#63b8ff" d="M601.04,-219.98C611.44,-212 627.22,-199.88 639.68,-190.31"/>
<polygon fill="#63b8ff" stroke="#63b8ff" points="641.87,-193.04 647.67,-184.17 637.61,-187.49 641.87,-193.04"/>
</g>
<!-- Node28 -->
<g id="node28" class="node">
<title>Node28</title>
<g id="a_node28"><a xlink:title=" ">
<polygon fill="#e0e0e0" stroke="#999999" points="758.46,-184 711.46,-184 711.46,-165 758.46,-165 758.46,-184"/>
<text text-anchor="middle" x="734.96" y="-172" font-family="Helvetica,sans-Serif" font-size="10.00">float.h</text>
</a>
</g>
</g>
<!-- Node26&#45;&gt;Node28 -->
<g id="edge38" class="edge">
<title>Node26&#45;&gt;Node28</title>
<path fill="none" stroke="#63b8ff" d="M613.25,-219.98C637.21,-211.23 674.74,-197.51 701.79,-187.62"/>
<polygon fill="#63b8ff" stroke="#63b8ff" points="703.05,-190.89 711.24,-184.17 700.64,-184.32 703.05,-190.89"/>
</g>
<!-- Node29 -->
<g id="node29" class="node">
<title>Node29</title>
<g id="a_node29"><a xlink:title=" ">
<polygon fill="#e0e0e0" stroke="#999999" points="606.96,-184 550.96,-184 550.96,-165 606.96,-165 606.96,-184"/>
<text text-anchor="middle" x="578.96" y="-172" font-family="Helvetica,sans-Serif" font-size="10.00">stdarg.h</text>
</a>
</g>
</g>
<!-- Node26&#45;&gt;Node29 -->
<g id="edge39" class="edge">
<title>Node26&#45;&gt;Node29</title>
<path fill="none" stroke="#63b8ff" d="M588.14,-219.75C586.7,-212.8 584.63,-202.85 582.82,-194.13"/>
<polygon fill="#63b8ff" stroke="#63b8ff" points="586.2,-193.17 580.74,-184.09 579.35,-194.59 586.2,-193.17"/>
</g>
<!-- Node33&#45;&gt;Node9 -->
<g id="edge41" class="edge">
<title>Node33&#45;&gt;Node9</title>
<path fill="none" stroke="#63b8ff" d="M1144.19,-221.23C1147.49,-220.8 1150.77,-220.38 1153.96,-220 1317.55,-200.25 1359.01,-200.49 1522.96,-184 1539.23,-182.36 1557.31,-180.49 1572.35,-178.93"/>
<polygon fill="#63b8ff" stroke="#63b8ff" points="1573.11,-182.37 1582.69,-177.85 1572.38,-175.4 1573.11,-182.37"/>
</g>
<!-- Node33&#45;&gt;Node23 -->
<g id="edge42" class="edge">
<title>Node33&#45;&gt;Node23</title>
<path fill="none" stroke="#63b8ff" d="M1073.11,-219.98C1050.83,-211.3 1016.06,-197.75 990.74,-187.88"/>
<polygon fill="#63b8ff" stroke="#63b8ff" points="991.79,-184.54 981.21,-184.17 989.25,-191.06 991.79,-184.54"/>
</g>
<!-- Node38&#45;&gt;Node2 -->
<g id="edge58" class="edge">
<title>Node38&#45;&gt;Node2</title>
<path fill="none" stroke="#63b8ff" d="M1382.81,-329.84C1345.38,-310.96 1256.21,-265.96 1211.89,-243.59"/>
<polygon fill="#63b8ff" stroke="#63b8ff" points="1213.4,-240.43 1202.89,-239.05 1210.24,-246.68 1213.4,-240.43"/>
</g>
<!-- Node38&#45;&gt;Node9 -->
<g id="edge48" class="edge">
<title>Node38&#45;&gt;Node9</title>
<path fill="none" stroke="#63b8ff" d="M1424.32,-329.95C1460.98,-316.01 1530.66,-285.22 1573.96,-239 1586,-226.14 1594.29,-207.73 1599.24,-194.04"/>
<polygon fill="#63b8ff" stroke="#63b8ff" points="1602.66,-194.86 1602.51,-184.27 1596.02,-192.64 1602.66,-194.86"/>
</g>
<!-- Node38&#45;&gt;Node19 -->
<g id="edge47" class="edge">
<title>Node38&#45;&gt;Node19</title>
<path fill="none" stroke="#63b8ff" d="M1401.5,-329.67C1402.99,-320.72 1405.12,-306.44 1405.96,-294 1406.52,-285.57 1407.27,-283.34 1405.96,-275 1401.35,-245.66 1389.56,-213.16 1381.64,-193.54"/>
<polygon fill="#63b8ff" stroke="#63b8ff" points="1384.78,-191.96 1377.72,-184.06 1378.31,-194.64 1384.78,-191.96"/>
</g>
<!-- Node39 -->
<g id="node34" class="node">
<title>Node39</title>
<g id="a_node34"><a xlink:href="GameObjectBuilder_8h.html" target="_top" xlink:title=" ">
<polygon fill="white" stroke="#666666" points="2311.96,-294 2191.96,-294 2191.96,-275 2311.96,-275 2311.96,-294"/>
<text text-anchor="middle" x="2251.96" y="-282" font-family="Helvetica,sans-Serif" font-size="10.00">GameObjectBuilder.h</text>
</a>
</g>
</g>
<!-- Node38&#45;&gt;Node39 -->
<g id="edge49" class="edge">
<title>Node38&#45;&gt;Node39</title>
<path fill="none" stroke="#63b8ff" d="M1443.04,-331.1C1446.05,-330.69 1449.05,-330.32 1451.96,-330 1592.4,-314.66 2013.62,-295.65 2181.64,-288.45"/>
<polygon fill="#63b8ff" stroke="#63b8ff" points="2182.01,-291.94 2191.85,-288.01 2181.71,-284.94 2182.01,-291.94"/>
</g>
<!-- Node46 -->
<g id="node39" class="node">
<title>Node46</title>
<g id="a_node39"><a xlink:title=" ">
<polygon fill="#e0e0e0" stroke="#999999" points="1396.96,-294 1352.96,-294 1352.96,-275 1396.96,-275 1396.96,-294"/>
<text text-anchor="middle" x="1374.96" y="-282" font-family="Helvetica,sans-Serif" font-size="10.00">bitset</text>
</a>
</g>
</g>
<!-- Node38&#45;&gt;Node46 -->
<g id="edge57" class="edge">
<title>Node38&#45;&gt;Node46</title>
<path fill="none" stroke="#63b8ff" d="M1395.83,-329.75C1392.44,-322.57 1387.54,-312.18 1383.34,-303.27"/>
<polygon fill="#63b8ff" stroke="#63b8ff" points="1386.44,-301.64 1379.01,-294.09 1380.11,-304.63 1386.44,-301.64"/>
</g>
<!-- Node49 -->
<g id="node40" class="node">
<title>Node49</title>
<g id="a_node40"><a xlink:href="Transform_8h.html" target="_top" xlink:title=" ">
<polygon fill="white" stroke="#666666" points="2003.96,-294 1929.96,-294 1929.96,-275 2003.96,-275 2003.96,-294"/>
<text text-anchor="middle" x="1966.96" y="-282" font-family="Helvetica,sans-Serif" font-size="10.00">Transform.h</text>
</a>
</g>
</g>
<!-- Node38&#45;&gt;Node49 -->
<g id="edge59" class="edge">
<title>Node38&#45;&gt;Node49</title>
<path fill="none" stroke="#63b8ff" d="M1443.05,-331.2C1446.06,-330.77 1449.05,-330.36 1451.96,-330 1623.67,-308.58 1828.88,-294.18 1919.71,-288.38"/>
<polygon fill="#63b8ff" stroke="#63b8ff" points="1919.94,-291.87 1929.69,-287.75 1919.49,-284.89 1919.94,-291.87"/>
</g>
<!-- Node52 -->
<g id="node43" class="node">
<title>Node52</title>
<g id="a_node43"><a xlink:title=" ">
<polygon fill="#e0e0e0" stroke="#999999" points="2489.96,-184 2379.96,-184 2379.96,-165 2489.96,-165 2489.96,-184"/>
<text text-anchor="middle" x="2434.96" y="-172" font-family="Helvetica,sans-Serif" font-size="10.00">nlohmann/json.hpp</text>
</a>
</g>
</g>
<!-- Node38&#45;&gt;Node52 -->
<g id="edge83" class="edge">
<title>Node38&#45;&gt;Node52</title>
<path fill="none" stroke="#63b8ff" d="M1443.03,-331.05C1446.05,-330.65 1449.05,-330.3 1451.96,-330 1836.51,-290.75 1935.5,-323.11 2320.96,-294 2544.33,-277.13 2672.45,-405.81 2821.96,-239 2865.95,-189.92 2622.05,-178.76 2500.55,-176.23"/>
<polygon fill="#63b8ff" stroke="#63b8ff" points="2500.32,-172.73 2490.25,-176.03 2500.18,-179.72 2500.32,-172.73"/>
</g>
<!-- Node65 -->
<g id="node46" class="node">
<title>Node65</title>
<g id="a_node46"><a xlink:href="IComponentMemento_8h.html" target="_top" xlink:title=" ">
<polygon fill="white" stroke="#666666" points="1358.46,-239 1227.46,-239 1227.46,-220 1358.46,-220 1358.46,-239"/>
<text text-anchor="middle" x="1292.96" y="-227" font-family="Helvetica,sans-Serif" font-size="10.00">IComponentMemento.h</text>
</a>
</g>
</g>
<!-- Node38&#45;&gt;Node65 -->
<g id="edge82" class="edge">
<title>Node38&#45;&gt;Node65</title>
<path fill="none" stroke="#63b8ff" d="M1387.29,-329.69C1375.48,-321.2 1357.69,-307.66 1343.96,-294 1329.3,-279.42 1314.74,-260.77 1304.96,-247.46"/>
<polygon fill="#63b8ff" stroke="#63b8ff" points="1307.7,-245.28 1299,-239.22 1302.02,-249.38 1307.7,-245.28"/>
</g>
<!-- Node39&#45;&gt;Node9 -->
<g id="edge50" class="edge">
<title>Node39&#45;&gt;Node9</title>
<path fill="none" stroke="#63b8ff" d="M2232.59,-274.95C2199.96,-260.94 2131.62,-233.33 2070.96,-220 1910.94,-184.84 1713.98,-177.46 1637.48,-175.91"/>
<polygon fill="#63b8ff" stroke="#63b8ff" points="1637.15,-172.4 1627.09,-175.72 1637.02,-179.4 1637.15,-172.4"/>
</g>
<!-- Node40 -->
<g id="node35" class="node">
<title>Node40</title>
<g id="a_node35"><a xlink:href="Vector3_8h.html" target="_top" xlink:title=" ">
<polygon fill="#fff0f0" stroke="red" points="2264.96,-184 2202.96,-184 2202.96,-165 2264.96,-165 2264.96,-184"/>
<text text-anchor="middle" x="2233.96" y="-172" font-family="Helvetica,sans-Serif" font-size="10.00">Vector3.h</text>
</a>
</g>
</g>
<!-- Node39&#45;&gt;Node40 -->
<g id="edge51" class="edge">
<title>Node39&#45;&gt;Node40</title>
<path fill="none" stroke="#63b8ff" d="M2261.3,-274.97C2273.36,-262.87 2291.8,-239.97 2282.96,-220 2277.63,-207.97 2267.27,-197.8 2257.45,-190.24"/>
<polygon fill="#63b8ff" stroke="#63b8ff" points="2259.26,-187.23 2249.09,-184.27 2255.2,-192.93 2259.26,-187.23"/>
</g>
<!-- Node43 -->
<g id="node36" class="node">
<title>Node43</title>
<g id="a_node36"><a xlink:href="Quaternion_8h.html" target="_top" xlink:title=" ">
<polygon fill="#fff0f0" stroke="red" points="2273.96,-239 2193.96,-239 2193.96,-220 2273.96,-220 2273.96,-239"/>
<text text-anchor="middle" x="2233.96" y="-227" font-family="Helvetica,sans-Serif" font-size="10.00">Quaternion.h</text>
</a>
</g>
</g>
<!-- Node39&#45;&gt;Node43 -->
<g id="edge52" class="edge">
<title>Node39&#45;&gt;Node43</title>
<path fill="none" stroke="#63b8ff" d="M2248.98,-274.75C2246.6,-267.72 2243.17,-257.62 2240.19,-248.84"/>
<polygon fill="#63b8ff" stroke="#63b8ff" points="2243.4,-247.43 2236.87,-239.09 2236.78,-249.68 2243.4,-247.43"/>
</g>
<!-- Node44 -->
<g id="node37" class="node">
<title>Node44</title>
<g id="a_node37"><a xlink:href="GameObjectLayer_8h.html" target="_top" xlink:title=" ">
<polygon fill="#fff0f0" stroke="red" points="2691.46,-239 2578.46,-239 2578.46,-220 2691.46,-220 2691.46,-239"/>
<text text-anchor="middle" x="2634.96" y="-227" font-family="Helvetica,sans-Serif" font-size="10.00">GameObjectLayer.h</text>
</a>
</g>
</g>
<!-- Node39&#45;&gt;Node44 -->
<g id="edge55" class="edge">
<title>Node39&#45;&gt;Node44</title>
<path fill="none" stroke="#63b8ff" d="M2312.22,-275.16C2381.69,-265.55 2495.56,-249.79 2567.82,-239.79"/>
<polygon fill="#63b8ff" stroke="#63b8ff" points="2568.74,-243.2 2578.17,-238.36 2567.78,-236.26 2568.74,-243.2"/>
</g>
<!-- Node48 -->
<g id="node38" class="node">
<title>Node48</title>
<g id="a_node38"><a xlink:href="GameObjectTag_8h.html" target="_top" xlink:title=" ">
<polygon fill="white" stroke="#666666" points="2812.46,-239 2709.46,-239 2709.46,-220 2812.46,-220 2812.46,-239"/>
<text text-anchor="middle" x="2760.96" y="-227" font-family="Helvetica,sans-Serif" font-size="10.00">GameObjectTag.h</text>
</a>
</g>
</g>
<!-- Node39&#45;&gt;Node48 -->
<g id="edge56" class="edge">
<title>Node39&#45;&gt;Node48</title>
<path fill="none" stroke="#63b8ff" d="M2311.96,-278.36C2396.22,-270.96 2554.62,-256.4 2699.31,-239.16"/>
<polygon fill="#63b8ff" stroke="#63b8ff" points="2699.75,-242.63 2709.26,-237.96 2698.92,-235.68 2699.75,-242.63"/>
</g>
<!-- Node43&#45;&gt;Node9 -->
<g id="edge53" class="edge">
<title>Node43&#45;&gt;Node9</title>
<path fill="none" stroke="#63b8ff" d="M2193.65,-225.1C2077.26,-215.3 1742.24,-187.07 1636.99,-178.2"/>
<polygon fill="#63b8ff" stroke="#63b8ff" points="1637.24,-174.71 1626.98,-177.36 1636.65,-181.68 1637.24,-174.71"/>
</g>
<!-- Node43&#45;&gt;Node40 -->
<g id="edge54" class="edge">
<title>Node43&#45;&gt;Node40</title>
<path fill="none" stroke="#63b8ff" d="M2233.96,-219.75C2233.96,-212.8 2233.96,-202.85 2233.96,-194.13"/>
<polygon fill="#63b8ff" stroke="#63b8ff" points="2237.46,-194.09 2233.96,-184.09 2230.46,-194.09 2237.46,-194.09"/>
</g>
<!-- Node49&#45;&gt;Node20 -->
<g id="edge79" class="edge">
<title>Node49&#45;&gt;Node20</title>
<path fill="none" stroke="#63b8ff" d="M1989.27,-274.98C2010.61,-266.6 2043.51,-253.05 2070.96,-239 2127.75,-209.94 2136.15,-191.99 2193.96,-165 2223.61,-151.15 2258.83,-139.29 2284.97,-131.3"/>
<polygon fill="#63b8ff" stroke="#63b8ff" points="2286.3,-134.56 2294.87,-128.33 2284.28,-127.86 2286.3,-134.56"/>
</g>
<!-- Node49&#45;&gt;Node40 -->
<g id="edge74" class="edge">
<title>Node49&#45;&gt;Node40</title>
<path fill="none" stroke="#63b8ff" d="M2004.09,-278C2040.42,-271.72 2096.72,-259.56 2141.96,-239 2170.05,-226.23 2198.73,-204.83 2216.44,-190.45"/>
<polygon fill="#63b8ff" stroke="#63b8ff" points="2218.73,-193.09 2224.2,-184.02 2214.26,-187.7 2218.73,-193.09"/>
</g>
<!-- Node49&#45;&gt;Node43 -->
<g id="edge76" class="edge">
<title>Node49&#45;&gt;Node43</title>
<path fill="none" stroke="#63b8ff" d="M2004.08,-276.13C2050.83,-266.85 2131.34,-250.87 2183.6,-240.5"/>
<polygon fill="#63b8ff" stroke="#63b8ff" points="2184.53,-243.88 2193.66,-238.5 2183.17,-237.01 2184.53,-243.88"/>
</g>
<!-- Node50 -->
<g id="node41" class="node">
<title>Node50</title>
<g id="a_node41"><a xlink:href="ReflectionMacro_8h.html" target="_top" xlink:title=" ">
<polygon fill="white" stroke="#666666" points="1832.96,-239 1728.96,-239 1728.96,-220 1832.96,-220 1832.96,-239"/>
<text text-anchor="middle" x="1780.96" y="-227" font-family="Helvetica,sans-Serif" font-size="10.00">ReflectionMacro.h</text>
</a>
</g>
</g>
<!-- Node49&#45;&gt;Node50 -->
<g id="edge60" class="edge">
<title>Node49&#45;&gt;Node50</title>
<path fill="none" stroke="#63b8ff" d="M1937.07,-274.98C1905.58,-266.01 1855.79,-251.82 1820.93,-241.89"/>
<polygon fill="#63b8ff" stroke="#63b8ff" points="1821.65,-238.46 1811.08,-239.08 1819.73,-245.19 1821.65,-238.46"/>
</g>
<!-- Node51 -->
<g id="node42" class="node">
<title>Node51</title>
<g id="a_node42"><a xlink:href="Transform_8generated_8h.html" target="_top" xlink:title=" ">
<polygon fill="#fff0f0" stroke="red" points="2457.46,-239 2330.46,-239 2330.46,-220 2457.46,-220 2457.46,-239"/>
<text text-anchor="middle" x="2393.96" y="-227" font-family="Helvetica,sans-Serif" font-size="10.00">Transform.generated.h</text>
</a>
</g>
</g>
<!-- Node49&#45;&gt;Node51 -->
<g id="edge61" class="edge">
<title>Node49&#45;&gt;Node51</title>
<path fill="none" stroke="#63b8ff" d="M2004.1,-278.89C2074.41,-270.16 2228.12,-251.08 2320.14,-239.66"/>
<polygon fill="#63b8ff" stroke="#63b8ff" points="2320.72,-243.12 2330.22,-238.41 2319.86,-236.17 2320.72,-243.12"/>
</g>
<!-- Node55 -->
<g id="node44" class="node">
<title>Node55</title>
<g id="a_node44"><a xlink:href="ISerializableObject_8h.html" target="_top" xlink:title=" ">
<polygon fill="white" stroke="#666666" points="1968.46,-239 1851.46,-239 1851.46,-220 1968.46,-220 1968.46,-239"/>
<text text-anchor="middle" x="1909.96" y="-227" font-family="Helvetica,sans-Serif" font-size="10.00">ISerializableObject.h</text>
</a>
</g>
</g>
<!-- Node49&#45;&gt;Node55 -->
<g id="edge65" class="edge">
<title>Node49&#45;&gt;Node55</title>
<path fill="none" stroke="#63b8ff" d="M1957.8,-274.98C1949.46,-267.23 1936.92,-255.58 1926.78,-246.14"/>
<polygon fill="#63b8ff" stroke="#63b8ff" points="1928.99,-243.42 1919.28,-239.17 1924.22,-248.54 1928.99,-243.42"/>
</g>
<!-- Node56 -->
<g id="node45" class="node">
<title>Node56</title>
<g id="a_node45"><a xlink:href="IComponent_8h.html" target="_top" xlink:title=" ">
<polygon fill="#fff0f0" stroke="red" points="2560.46,-239 2475.46,-239 2475.46,-220 2560.46,-220 2560.46,-239"/>
<text text-anchor="middle" x="2517.96" y="-227" font-family="Helvetica,sans-Serif" font-size="10.00">IComponent.h</text>
</a>
</g>
</g>
<!-- Node49&#45;&gt;Node56 -->
<g id="edge66" class="edge">
<title>Node49&#45;&gt;Node56</title>
<path fill="none" stroke="#63b8ff" d="M2004.07,-281.17C2085.64,-275.84 2286.84,-261.56 2465.32,-239.12"/>
<polygon fill="#63b8ff" stroke="#63b8ff" points="2465.94,-242.57 2475.42,-237.84 2465.06,-235.63 2465.94,-242.57"/>
</g>
<!-- Node49&#45;&gt;Node65 -->
<g id="edge69" class="edge">
<title>Node49&#45;&gt;Node65</title>
<path fill="none" stroke="#63b8ff" d="M1929.76,-280.57C1822.84,-272.17 1513.07,-247.81 1368.69,-236.46"/>
<polygon fill="#63b8ff" stroke="#63b8ff" points="1368.83,-232.96 1358.59,-235.66 1368.28,-239.93 1368.83,-232.96"/>
</g>
<!-- Node80 -->
<g id="node48" class="node">
<title>Node80</title>
<g id="a_node48"><a xlink:href="Vector3Ref_8h.html" target="_top" xlink:title=" ">
<polygon fill="white" stroke="#666666" points="1710.96,-239 1632.96,-239 1632.96,-220 1710.96,-220 1710.96,-239"/>
<text text-anchor="middle" x="1671.96" y="-227" font-family="Helvetica,sans-Serif" font-size="10.00">Vector3Ref.h</text>
</a>
</g>
</g>
<!-- Node49&#45;&gt;Node80 -->
<g id="edge75" class="edge">
<title>Node49&#45;&gt;Node80</title>
<path fill="none" stroke="#63b8ff" d="M1929.89,-276.84C1877.05,-267.35 1779.95,-249.9 1721.14,-239.34"/>
<polygon fill="#63b8ff" stroke="#63b8ff" points="1721.44,-235.83 1710.98,-237.51 1720.2,-242.72 1721.44,-235.83"/>
</g>
<!-- Node81 -->
<g id="node49" class="node">
<title>Node81</title>
<g id="a_node49"><a xlink:href="Matrix4x4_8h.html" target="_top" xlink:title=" ">
<polygon fill="#fff0f0" stroke="red" points="2061.46,-239 1986.46,-239 1986.46,-220 2061.46,-220 2061.46,-239"/>
<text text-anchor="middle" x="2023.96" y="-227" font-family="Helvetica,sans-Serif" font-size="10.00">Matrix4x4.h</text>
</a>
</g>
</g>
<!-- Node49&#45;&gt;Node81 -->
<g id="edge77" class="edge">
<title>Node49&#45;&gt;Node81</title>
<path fill="none" stroke="#63b8ff" d="M1976.12,-274.98C1984.46,-267.23 1996.99,-255.58 2007.13,-246.14"/>
<polygon fill="#63b8ff" stroke="#63b8ff" points="2009.69,-248.54 2014.63,-239.17 2004.93,-243.42 2009.69,-248.54"/>
</g>
<!-- Node82 -->
<g id="node50" class="node">
<title>Node82</title>
<g id="a_node50"><a xlink:href="TransformCP_8h.html" target="_top" xlink:title=" ">
<polygon fill="#fff0f0" stroke="red" points="1538.96,-239 1452.96,-239 1452.96,-220 1538.96,-220 1538.96,-239"/>
<text text-anchor="middle" x="1495.96" y="-227" font-family="Helvetica,sans-Serif" font-size="10.00">TransformCP.h</text>
</a>
</g>
</g>
<!-- Node49&#45;&gt;Node82 -->
<g id="edge80" class="edge">
<title>Node49&#45;&gt;Node82</title>
<path fill="none" stroke="#63b8ff" d="M1929.6,-279.3C1846.37,-269.93 1645.42,-247.32 1549.13,-236.48"/>
<polygon fill="#63b8ff" stroke="#63b8ff" points="1549.36,-232.99 1539.03,-235.35 1548.58,-239.94 1549.36,-232.99"/>
</g>
<!-- Node51&#45;&gt;Node1 -->
<g id="edge63" class="edge">
<title>Node51&#45;&gt;Node1</title>
<path fill="none" stroke="#63b8ff" d="M2387.42,-239.01C2375.83,-253.35 2350.14,-281.94 2320.96,-294 2178.4,-352.89 1054.47,-385.89 813.39,-392.33"/>
<polygon fill="#63b8ff" stroke="#63b8ff" points="813.13,-388.84 803.23,-392.6 813.32,-395.83 813.13,-388.84"/>
</g>
<!-- Node51&#45;&gt;Node9 -->
<g id="edge64" class="edge">
<title>Node51&#45;&gt;Node9</title>
<path fill="none" stroke="#63b8ff" d="M2330.28,-223.5C2314.8,-222.32 2298.28,-221.09 2282.96,-220 2034.58,-202.34 1734.84,-183.55 1637.31,-177.5"/>
<polygon fill="#63b8ff" stroke="#63b8ff" points="1637.4,-174 1627.2,-176.87 1636.97,-180.98 1637.4,-174"/>
</g>
<!-- Node51&#45;&gt;Node52 -->
<g id="edge62" class="edge">
<title>Node51&#45;&gt;Node52</title>
<path fill="none" stroke="#63b8ff" d="M2400.73,-219.75C2406.52,-212.26 2415.02,-201.28 2422.09,-192.13"/>
<polygon fill="#63b8ff" stroke="#63b8ff" points="2424.96,-194.14 2428.31,-184.09 2419.43,-189.86 2424.96,-194.14"/>
</g>
<!-- Node56&#45;&gt;Node20 -->
<g id="edge67" class="edge">
<title>Node56&#45;&gt;Node20</title>
<path fill="none" stroke="#63b8ff" d="M2517.92,-219.73C2517.37,-206.04 2514.25,-179.65 2498.96,-165 2461.87,-129.48 2400.69,-121.15 2361.12,-119.78"/>
<polygon fill="#63b8ff" stroke="#63b8ff" points="2361.13,-116.28 2351.06,-119.57 2360.98,-123.28 2361.13,-116.28"/>
</g>
<!-- Node56&#45;&gt;Node52 -->
<g id="edge68" class="edge">
<title>Node56&#45;&gt;Node52</title>
<path fill="none" stroke="#63b8ff" d="M2504.62,-219.98C2491.87,-211.84 2472.4,-199.41 2457.29,-189.76"/>
<polygon fill="#63b8ff" stroke="#63b8ff" points="2458.85,-186.6 2448.54,-184.17 2455.08,-192.5 2458.85,-186.6"/>
</g>
<!-- Node65&#45;&gt;Node5 -->
<g id="edge71" class="edge">
<title>Node65&#45;&gt;Node5</title>
<path fill="none" stroke="#63b8ff" d="M1227.21,-220.74C1224.42,-220.47 1221.66,-220.23 1218.96,-220 918.7,-194.8 842.32,-207.93 541.96,-184 529.9,-183.04 516.84,-181.76 504.84,-180.48"/>
<polygon fill="#63b8ff" stroke="#63b8ff" points="504.94,-176.97 494.62,-179.36 504.18,-183.93 504.94,-176.97"/>
</g>
<!-- Node65&#45;&gt;Node19 -->
<g id="edge70" class="edge">
<title>Node65&#45;&gt;Node19</title>
<path fill="none" stroke="#63b8ff" d="M1305.97,-219.98C1318.41,-211.84 1337.41,-199.41 1352.17,-189.76"/>
<polygon fill="#63b8ff" stroke="#63b8ff" points="1354.25,-192.57 1360.71,-184.17 1350.42,-186.72 1354.25,-192.57"/>
</g>
<!-- Node66 -->
<g id="node47" class="node">
<title>Node66</title>
<g id="a_node47"><a xlink:href="ComponentConcept_8h.html" target="_top" xlink:title=" ">
<polygon fill="#fff0f0" stroke="red" points="1312.96,-184 1190.96,-184 1190.96,-165 1312.96,-165 1312.96,-184"/>
<text text-anchor="middle" x="1251.96" y="-172" font-family="Helvetica,sans-Serif" font-size="10.00">ComponentConcept.h</text>
</a>
</g>
</g>
<!-- Node65&#45;&gt;Node66 -->
<g id="edge72" class="edge">
<title>Node65&#45;&gt;Node66</title>
<path fill="none" stroke="#63b8ff" d="M1286.19,-219.75C1280.4,-212.26 1271.9,-201.28 1264.82,-192.13"/>
<polygon fill="#63b8ff" stroke="#63b8ff" points="1267.49,-189.86 1258.6,-184.09 1261.95,-194.14 1267.49,-189.86"/>
</g>
<!-- Node66&#45;&gt;Node4 -->
<g id="edge73" class="edge">
<title>Node66&#45;&gt;Node4</title>
<path fill="none" stroke="#63b8ff" d="M1190.74,-169.05C1047.4,-158.63 692.64,-132.84 567.51,-123.74"/>
<polygon fill="#63b8ff" stroke="#63b8ff" points="567.74,-120.25 557.52,-123.01 567.24,-127.23 567.74,-120.25"/>
</g>
<!-- Node81&#45;&gt;Node9 -->
<g id="edge78" class="edge">
<title>Node81&#45;&gt;Node9</title>
<path fill="none" stroke="#63b8ff" d="M1986.33,-221.35C1983.5,-220.87 1980.69,-220.41 1977.96,-220 1852.44,-200.94 1702.14,-185.13 1637.32,-178.66"/>
<polygon fill="#63b8ff" stroke="#63b8ff" points="1637.6,-175.17 1627.31,-177.66 1636.91,-182.13 1637.6,-175.17"/>
</g>
<!-- Node82&#45;&gt;Node10 -->
<g id="edge81" class="edge">
<title>Node82&#45;&gt;Node10</title>
<path fill="none" stroke="#63b8ff" d="M1493.48,-219.75C1491.49,-212.72 1488.63,-202.62 1486.15,-193.84"/>
<polygon fill="#63b8ff" stroke="#63b8ff" points="1489.48,-192.76 1483.39,-184.09 1482.74,-194.66 1489.48,-192.76"/>
</g>
</g>
</svg>
