<?xml version="1.0" encoding="UTF-8" standalone="no"?>
<!DOCTYPE svg PUBLIC "-//W3C//DTD SVG 1.1//EN"
 "http://www.w3.org/Graphics/SVG/1.1/DTD/svg11.dtd">
<!-- Generated by graphviz version 2.43.0 (0)
 -->
<!-- Title: MTStringUtility.h Pages: 1 -->
<svg width="3236pt" height="302pt"
 viewBox="0.00 0.00 3236.15 302.00" xmlns="http://www.w3.org/2000/svg" xmlns:xlink="http://www.w3.org/1999/xlink">
<g id="graph0" class="graph" transform="scale(1 1) rotate(0) translate(4 298)">
<title>MTStringUtility.h</title>
<!-- Node1 -->
<g id="node1" class="node">
<title>Node1</title>
<g id="a_node1"><a xlink:title=" ">
<polygon fill="#999999" stroke="#666666" points="2662.15,-294 2564.15,-294 2564.15,-275 2662.15,-275 2662.15,-294"/>
<text text-anchor="middle" x="2613.15" y="-282" font-family="Helvetica,sans-Serif" font-size="10.00">MTStringUtility.h</text>
</a>
</g>
</g>
<!-- Node2 -->
<g id="node2" class="node">
<title>Node2</title>
<g id="a_node2"><a xlink:href="Debug_8h.html" target="_top" xlink:title=" ">
<polygon fill="white" stroke="#666666" points="1304.65,-184 1247.65,-184 1247.65,-165 1304.65,-165 1304.65,-184"/>
<text text-anchor="middle" x="1276.15" y="-172" font-family="Helvetica,sans-Serif" font-size="10.00">Debug.h</text>
</a>
</g>
</g>
<!-- Node1&#45;&gt;Node2 -->
<g id="edge1" class="edge">
<title>Node1&#45;&gt;Node2</title>
<path fill="none" stroke="#63b8ff" d="M2554.01,-278.72C2321.17,-259.91 1472.29,-191.34 1304.92,-177.82"/>
<polygon fill="#63b8ff" stroke="#63b8ff" points="2553.73,-282.21 2563.98,-279.53 2554.3,-275.23 2553.73,-282.21"/>
</g>
<!-- Node11 -->
<g id="node11" class="node">
<title>Node11</title>
<g id="a_node11"><a xlink:href="FbxParts_8cpp.html" target="_top" xlink:title=" ">
<polygon fill="white" stroke="#666666" points="211.65,-129 132.65,-129 132.65,-110 211.65,-110 211.65,-129"/>
<text text-anchor="middle" x="172.15" y="-117" font-family="Helvetica,sans-Serif" font-size="10.00">FbxParts.cpp</text>
</a>
</g>
</g>
<!-- Node1&#45;&gt;Node11 -->
<g id="edge53" class="edge">
<title>Node1&#45;&gt;Node11</title>
<path fill="none" stroke="#63b8ff" d="M2553.58,-280.13C2426.39,-272.91 2118.87,-255.26 1861.15,-239 1131.63,-192.97 945.77,-217.3 220.15,-129 217.38,-128.66 214.53,-128.27 211.65,-127.84"/>
<polygon fill="#63b8ff" stroke="#63b8ff" points="2553.69,-283.65 2563.87,-280.72 2554.09,-276.66 2553.69,-283.65"/>
</g>
<!-- Node62 -->
<g id="node37" class="node">
<title>Node62</title>
<g id="a_node37"><a xlink:href="DefaultShow_8h.html" target="_top" xlink:title=" ">
<polygon fill="white" stroke="#666666" points="2465.65,-239 2378.65,-239 2378.65,-220 2465.65,-220 2465.65,-239"/>
<text text-anchor="middle" x="2422.15" y="-227" font-family="Helvetica,sans-Serif" font-size="10.00">DefaultShow.h</text>
</a>
</g>
</g>
<!-- Node1&#45;&gt;Node62 -->
<g id="edge40" class="edge">
<title>Node1&#45;&gt;Node62</title>
<path fill="none" stroke="#63b8ff" d="M2572.37,-272.18C2536.65,-262.27 2485.52,-248.08 2453.08,-239.08"/>
<polygon fill="#63b8ff" stroke="#63b8ff" points="2571.89,-275.68 2582.47,-274.98 2573.77,-268.94 2571.89,-275.68"/>
</g>
<!-- Node160 -->
<g id="node41" class="node">
<title>Node160</title>
<g id="a_node41"><a xlink:href="TypeRegistryImpl_8h.html" target="_top" xlink:title=" ">
<polygon fill="white" stroke="#666666" points="2460.15,-129 2350.15,-129 2350.15,-110 2460.15,-110 2460.15,-129"/>
<text text-anchor="middle" x="2405.15" y="-117" font-family="Helvetica,sans-Serif" font-size="10.00">TypeRegistryImpl.h</text>
</a>
</g>
</g>
<!-- Node1&#45;&gt;Node160 -->
<g id="edge60" class="edge">
<title>Node1&#45;&gt;Node160</title>
<path fill="none" stroke="#63b8ff" d="M2553.88,-281.14C2489.35,-277.17 2392.22,-266.66 2369.15,-239 2341.06,-205.32 2380.6,-150.07 2397.82,-129.01"/>
<polygon fill="#63b8ff" stroke="#63b8ff" points="2553.76,-284.64 2563.94,-281.72 2554.16,-277.65 2553.76,-284.64"/>
</g>
<!-- Node119 -->
<g id="node43" class="node">
<title>Node119</title>
<g id="a_node43"><a xlink:href="Draw_8cpp.html" target="_top" xlink:title=" ">
<polygon fill="white" stroke="#666666" points="2546.15,-239 2484.15,-239 2484.15,-220 2546.15,-220 2546.15,-239"/>
<text text-anchor="middle" x="2515.15" y="-227" font-family="Helvetica,sans-Serif" font-size="10.00">Draw.cpp</text>
</a>
</g>
</g>
<!-- Node1&#45;&gt;Node119 -->
<g id="edge52" class="edge">
<title>Node1&#45;&gt;Node119</title>
<path fill="none" stroke="#63b8ff" d="M2588.13,-269.97C2570.21,-260.28 2546.63,-247.52 2531.18,-239.17"/>
<polygon fill="#63b8ff" stroke="#63b8ff" points="2586.95,-273.31 2597.41,-274.98 2590.28,-267.15 2586.95,-273.31"/>
</g>
<!-- Node128 -->
<g id="node44" class="node">
<title>Node128</title>
<g id="a_node44"><a xlink:href="GameObject_8cpp.html" target="_top" xlink:title=" ">
<polygon fill="white" stroke="#666666" points="2662.15,-239 2564.15,-239 2564.15,-220 2662.15,-220 2662.15,-239"/>
<text text-anchor="middle" x="2613.15" y="-227" font-family="Helvetica,sans-Serif" font-size="10.00">GameObject.cpp</text>
</a>
</g>
</g>
<!-- Node1&#45;&gt;Node128 -->
<g id="edge54" class="edge">
<title>Node1&#45;&gt;Node128</title>
<path fill="none" stroke="#63b8ff" d="M2613.15,-264.66C2613.15,-255.93 2613.15,-245.99 2613.15,-239.09"/>
<polygon fill="#63b8ff" stroke="#63b8ff" points="2609.65,-264.75 2613.15,-274.75 2616.65,-264.75 2609.65,-264.75"/>
</g>
<!-- Node151 -->
<g id="node45" class="node">
<title>Node151</title>
<g id="a_node45"><a xlink:href="Image_8cpp.html" target="_top" xlink:title=" ">
<polygon fill="white" stroke="#666666" points="2748.15,-239 2680.15,-239 2680.15,-220 2748.15,-220 2748.15,-239"/>
<text text-anchor="middle" x="2714.15" y="-227" font-family="Helvetica,sans-Serif" font-size="10.00">Image.cpp</text>
</a>
</g>
</g>
<!-- Node1&#45;&gt;Node151 -->
<g id="edge55" class="edge">
<title>Node1&#45;&gt;Node151</title>
<path fill="none" stroke="#63b8ff" d="M2638.43,-270.23C2656.96,-260.51 2681.57,-247.6 2697.63,-239.17"/>
<polygon fill="#63b8ff" stroke="#63b8ff" points="2636.61,-267.24 2629.38,-274.98 2639.86,-273.44 2636.61,-267.24"/>
</g>
<!-- Node161 -->
<g id="node46" class="node">
<title>Node161</title>
<g id="a_node46"><a xlink:href="MTStringUtility_8cpp.html" target="_top" xlink:title=" ">
<polygon fill="white" stroke="#666666" points="2875.65,-239 2766.65,-239 2766.65,-220 2875.65,-220 2875.65,-239"/>
<text text-anchor="middle" x="2821.15" y="-227" font-family="Helvetica,sans-Serif" font-size="10.00">MTStringUtility.cpp</text>
</a>
</g>
</g>
<!-- Node1&#45;&gt;Node161 -->
<g id="edge56" class="edge">
<title>Node1&#45;&gt;Node161</title>
<path fill="none" stroke="#63b8ff" d="M2656.57,-272.44C2695.51,-262.52 2751.84,-248.16 2787.47,-239.08"/>
<polygon fill="#63b8ff" stroke="#63b8ff" points="2655.4,-269.12 2646.57,-274.98 2657.13,-275.91 2655.4,-269.12"/>
</g>
<!-- Node78 -->
<g id="node47" class="node">
<title>Node78</title>
<g id="a_node47"><a xlink:href="TerrainReader_8h.html" target="_top" xlink:title=" ">
<polygon fill="white" stroke="#666666" points="2986.15,-239 2894.15,-239 2894.15,-220 2986.15,-220 2986.15,-239"/>
<text text-anchor="middle" x="2940.15" y="-227" font-family="Helvetica,sans-Serif" font-size="10.00">TerrainReader.h</text>
</a>
</g>
</g>
<!-- Node1&#45;&gt;Node78 -->
<g id="edge57" class="edge">
<title>Node1&#45;&gt;Node78</title>
<path fill="none" stroke="#63b8ff" d="M2672.37,-273.9C2736.08,-263.58 2836.07,-247.37 2894.15,-237.96"/>
<polygon fill="#63b8ff" stroke="#63b8ff" points="2671.77,-270.45 2662.46,-275.51 2672.89,-277.36 2671.77,-270.45"/>
</g>
<!-- Node162 -->
<g id="node49" class="node">
<title>Node162</title>
<g id="a_node49"><a xlink:href="TextCache_8cpp.html" target="_top" xlink:title=" ">
<polygon fill="white" stroke="#666666" points="3091.65,-239 3004.65,-239 3004.65,-220 3091.65,-220 3091.65,-239"/>
<text text-anchor="middle" x="3048.15" y="-227" font-family="Helvetica,sans-Serif" font-size="10.00">TextCache.cpp</text>
</a>
</g>
</g>
<!-- Node1&#45;&gt;Node162 -->
<g id="edge59" class="edge">
<title>Node1&#45;&gt;Node162</title>
<path fill="none" stroke="#63b8ff" d="M2672.6,-277.38C2747.82,-269.44 2881.29,-254.75 2995.15,-239 2998.2,-238.58 3001.34,-238.12 3004.5,-237.65"/>
<polygon fill="#63b8ff" stroke="#63b8ff" points="2671.96,-273.92 2662.38,-278.45 2672.7,-280.89 2671.96,-273.92"/>
</g>
<!-- Node156 -->
<g id="node50" class="node">
<title>Node156</title>
<g id="a_node50"><a xlink:href="WindowManager_8cpp.html" target="_top" xlink:title=" ">
<polygon fill="white" stroke="#666666" points="3228.15,-239 3110.15,-239 3110.15,-220 3228.15,-220 3228.15,-239"/>
<text text-anchor="middle" x="3169.15" y="-227" font-family="Helvetica,sans-Serif" font-size="10.00">WindowManager.cpp</text>
</a>
</g>
</g>
<!-- Node1&#45;&gt;Node156 -->
<g id="edge61" class="edge">
<title>Node1&#45;&gt;Node156</title>
<path fill="none" stroke="#63b8ff" d="M2672.61,-278.72C2764.57,-271.19 2946.82,-255.68 3101.15,-239 3103.99,-238.69 3106.9,-238.37 3109.83,-238.03"/>
<polygon fill="#63b8ff" stroke="#63b8ff" points="2672.07,-275.26 2662.39,-279.56 2672.64,-282.23 2672.07,-275.26"/>
</g>
<!-- Node3 -->
<g id="node3" class="node">
<title>Node3</title>
<g id="a_node3"><a xlink:href="Audio_8cpp.html" target="_top" xlink:title=" ">
<polygon fill="white" stroke="#666666" points="2181.65,-129 2116.65,-129 2116.65,-110 2181.65,-110 2181.65,-129"/>
<text text-anchor="middle" x="2149.15" y="-117" font-family="Helvetica,sans-Serif" font-size="10.00">Audio.cpp</text>
</a>
</g>
</g>
<!-- Node2&#45;&gt;Node3 -->
<g id="edge2" class="edge">
<title>Node2&#45;&gt;Node3</title>
<path fill="none" stroke="#63b8ff" d="M1315.08,-173.43C1434.17,-172.79 1803.87,-167.6 2107.15,-129 2110.1,-128.62 2113.16,-128.16 2116.21,-127.64"/>
<polygon fill="#63b8ff" stroke="#63b8ff" points="1314.98,-169.93 1304.99,-173.48 1315.01,-176.93 1314.98,-169.93"/>
</g>
<!-- Node4 -->
<g id="node4" class="node">
<title>Node4</title>
<g id="a_node4"><a xlink:href="CameraSystem_8cpp.html" target="_top" xlink:title=" ">
<polygon fill="white" stroke="#666666" points="341.15,-129 229.15,-129 229.15,-110 341.15,-110 341.15,-129"/>
<text text-anchor="middle" x="285.15" y="-117" font-family="Helvetica,sans-Serif" font-size="10.00">CameraSystem.cpp</text>
</a>
</g>
</g>
<!-- Node2&#45;&gt;Node4 -->
<g id="edge3" class="edge">
<title>Node2&#45;&gt;Node4</title>
<path fill="none" stroke="#63b8ff" d="M1237.23,-172.77C1109.74,-170.14 693.2,-159.62 350.15,-129 347.32,-128.75 344.42,-128.46 341.49,-128.15"/>
<polygon fill="#63b8ff" stroke="#63b8ff" points="1237.22,-176.27 1247.29,-172.98 1237.36,-169.27 1237.22,-176.27"/>
</g>
<!-- Node5 -->
<g id="node5" class="node">
<title>Node5</title>
<g id="a_node5"><a xlink:href="Collider_8cpp.html" target="_top" xlink:title=" ">
<polygon fill="white" stroke="#666666" points="433.15,-129 359.15,-129 359.15,-110 433.15,-110 433.15,-129"/>
<text text-anchor="middle" x="396.15" y="-117" font-family="Helvetica,sans-Serif" font-size="10.00">Collider.cpp</text>
</a>
</g>
</g>
<!-- Node2&#45;&gt;Node5 -->
<g id="edge4" class="edge">
<title>Node2&#45;&gt;Node5</title>
<path fill="none" stroke="#63b8ff" d="M1237.37,-172.95C1118.73,-170.95 750.33,-162.3 447.15,-129 442.69,-128.51 438.03,-127.89 433.41,-127.2"/>
<polygon fill="#63b8ff" stroke="#63b8ff" points="1237.37,-176.45 1247.42,-173.12 1237.48,-169.45 1237.37,-176.45"/>
</g>
<!-- Node6 -->
<g id="node6" class="node">
<title>Node6</title>
<g id="a_node6"><a xlink:href="ColliderCP_8cpp.html" target="_top" xlink:title=" ">
<polygon fill="white" stroke="#666666" points="645.15,-129 559.15,-129 559.15,-110 645.15,-110 645.15,-129"/>
<text text-anchor="middle" x="602.15" y="-117" font-family="Helvetica,sans-Serif" font-size="10.00">ColliderCP.cpp</text>
</a>
</g>
</g>
<!-- Node2&#45;&gt;Node6 -->
<g id="edge5" class="edge">
<title>Node2&#45;&gt;Node6</title>
<path fill="none" stroke="#63b8ff" d="M1237.22,-171.72C1139.67,-167.04 877.02,-153.07 659.15,-129 654.68,-128.51 650.01,-127.92 645.37,-127.3"/>
<polygon fill="#63b8ff" stroke="#63b8ff" points="1237.33,-175.23 1247.48,-172.21 1237.66,-168.24 1237.33,-175.23"/>
</g>
<!-- Node7 -->
<g id="node7" class="node">
<title>Node7</title>
<g id="a_node7"><a xlink:href="DXGIResource_8cpp.html" target="_top" xlink:title=" ">
<polygon fill="white" stroke="#666666" points="1654.65,-129 1547.65,-129 1547.65,-110 1654.65,-110 1654.65,-129"/>
<text text-anchor="middle" x="1601.15" y="-117" font-family="Helvetica,sans-Serif" font-size="10.00">DXGIResource.cpp</text>
</a>
</g>
</g>
<!-- Node2&#45;&gt;Node7 -->
<g id="edge6" class="edge">
<title>Node2&#45;&gt;Node7</title>
<path fill="none" stroke="#63b8ff" d="M1314.61,-167.23C1372.84,-157.73 1483.51,-139.68 1548.96,-129.01"/>
<polygon fill="#63b8ff" stroke="#63b8ff" points="1314.02,-163.78 1304.71,-168.84 1315.14,-170.69 1314.02,-163.78"/>
</g>
<!-- Node8 -->
<g id="node8" class="node">
<title>Node8</title>
<g id="a_node8"><a xlink:href="Debug_8cpp.html" target="_top" xlink:title=" ">
<polygon fill="white" stroke="#666666" points="1741.15,-129 1673.15,-129 1673.15,-110 1741.15,-110 1741.15,-129"/>
<text text-anchor="middle" x="1707.15" y="-117" font-family="Helvetica,sans-Serif" font-size="10.00">Debug.cpp</text>
</a>
</g>
</g>
<!-- Node2&#45;&gt;Node8 -->
<g id="edge7" class="edge">
<title>Node2&#45;&gt;Node8</title>
<path fill="none" stroke="#63b8ff" d="M1315,-170.02C1384.88,-163.55 1536.31,-148.52 1663.15,-129 1666.38,-128.5 1669.74,-127.94 1673.09,-127.35"/>
<polygon fill="#63b8ff" stroke="#63b8ff" points="1314.53,-166.55 1304.9,-170.95 1315.18,-173.52 1314.53,-166.55"/>
</g>
<!-- Node9 -->
<g id="node9" class="node">
<title>Node9</title>
<g id="a_node9"><a xlink:href="DirectX11Draw_8cpp.html" target="_top" xlink:title=" ">
<polygon fill="white" stroke="#666666" points="1869.15,-129 1759.15,-129 1759.15,-110 1869.15,-110 1869.15,-129"/>
<text text-anchor="middle" x="1814.15" y="-117" font-family="Helvetica,sans-Serif" font-size="10.00">DirectX11Draw.cpp</text>
</a>
</g>
</g>
<!-- Node2&#45;&gt;Node9 -->
<g id="edge8" class="edge">
<title>Node2&#45;&gt;Node9</title>
<path fill="none" stroke="#63b8ff" d="M1315,-170.36C1396,-163.71 1588.83,-147.28 1750.15,-129 1753.05,-128.67 1756.02,-128.32 1759.01,-127.96"/>
<polygon fill="#63b8ff" stroke="#63b8ff" points="1314.46,-166.89 1304.78,-171.2 1315.03,-173.87 1314.46,-166.89"/>
</g>
<!-- Node10 -->
<g id="node10" class="node">
<title>Node10</title>
<g id="a_node10"><a xlink:href="EffekseerVFX_8cpp.html" target="_top" xlink:title=" ">
<polygon fill="white" stroke="#666666" points="1989.15,-129 1887.15,-129 1887.15,-110 1989.15,-110 1989.15,-129"/>
<text text-anchor="middle" x="1938.15" y="-117" font-family="Helvetica,sans-Serif" font-size="10.00">EffekseerVFX.cpp</text>
</a>
</g>
</g>
<!-- Node2&#45;&gt;Node10 -->
<g id="edge9" class="edge">
<title>Node2&#45;&gt;Node10</title>
<path fill="none" stroke="#63b8ff" d="M1314.8,-171.54C1410.49,-166.5 1665.99,-151.84 1878.15,-129 1881.08,-128.68 1884.09,-128.34 1887.12,-127.97"/>
<polygon fill="#63b8ff" stroke="#63b8ff" points="1314.53,-168.05 1304.73,-172.07 1314.9,-175.04 1314.53,-168.05"/>
</g>
<!-- Node2&#45;&gt;Node11 -->
<g id="edge10" class="edge">
<title>Node2&#45;&gt;Node11</title>
<path fill="none" stroke="#63b8ff" d="M1237.37,-173.72C1098.85,-174.13 615.72,-172.16 220.15,-129 217.46,-128.71 214.69,-128.35 211.91,-127.96"/>
<polygon fill="#63b8ff" stroke="#63b8ff" points="1237.5,-177.22 1247.49,-173.69 1237.47,-170.22 1237.5,-177.22"/>
</g>
<!-- Node12 -->
<g id="node12" class="node">
<title>Node12</title>
<g id="a_node12"><a xlink:href="GameTime_8cpp.html" target="_top" xlink:title=" ">
<polygon fill="white" stroke="#666666" points="2098.65,-129 2007.65,-129 2007.65,-110 2098.65,-110 2098.65,-129"/>
<text text-anchor="middle" x="2053.15" y="-117" font-family="Helvetica,sans-Serif" font-size="10.00">GameTime.cpp</text>
</a>
</g>
</g>
<!-- Node2&#45;&gt;Node12 -->
<g id="edge11" class="edge">
<title>Node2&#45;&gt;Node12</title>
<path fill="none" stroke="#63b8ff" d="M1314.9,-172.36C1423.18,-168.92 1738.05,-157.05 1998.15,-129 2001.23,-128.67 2004.39,-128.29 2007.58,-127.87"/>
<polygon fill="#63b8ff" stroke="#63b8ff" points="1314.67,-168.87 1304.78,-172.68 1314.89,-175.87 1314.67,-168.87"/>
</g>
<!-- Node13 -->
<g id="node13" class="node">
<title>Node13</title>
<g id="a_node13"><a xlink:href="ImGuiEditor_8cpp.html" target="_top" xlink:title=" ">
<polygon fill="white" stroke="#666666" points="2332.15,-129 2238.15,-129 2238.15,-110 2332.15,-110 2332.15,-129"/>
<text text-anchor="middle" x="2285.15" y="-117" font-family="Helvetica,sans-Serif" font-size="10.00">ImGuiEditor.cpp</text>
</a>
</g>
</g>
<!-- Node2&#45;&gt;Node13 -->
<g id="edge12" class="edge">
<title>Node2&#45;&gt;Node13</title>
<path fill="none" stroke="#63b8ff" d="M1315.12,-172.95C1444.62,-170.84 1872.3,-161.7 2224.15,-129 2228.62,-128.58 2233.27,-128.08 2237.91,-127.52"/>
<polygon fill="#63b8ff" stroke="#63b8ff" points="1314.86,-169.45 1304.92,-173.11 1314.97,-176.45 1314.86,-169.45"/>
</g>
<!-- Node14 -->
<g id="node14" class="node">
<title>Node14</title>
<g id="a_node14"><a xlink:href="ImGuiEditorCamera_8cpp.html" target="_top" xlink:title=" ">
<polygon fill="white" stroke="#666666" points="834.65,-129 701.65,-129 701.65,-110 834.65,-110 834.65,-129"/>
<text text-anchor="middle" x="768.15" y="-117" font-family="Helvetica,sans-Serif" font-size="10.00">ImGuiEditorCamera.cpp</text>
</a>
</g>
</g>
<!-- Node2&#45;&gt;Node14 -->
<g id="edge13" class="edge">
<title>Node2&#45;&gt;Node14</title>
<path fill="none" stroke="#63b8ff" d="M1237.49,-169.66C1161.78,-162.12 988.64,-144.72 843.15,-129 840.42,-128.7 837.63,-128.4 834.81,-128.09"/>
<polygon fill="#63b8ff" stroke="#63b8ff" points="1237.22,-173.15 1247.52,-170.66 1237.91,-166.19 1237.22,-173.15"/>
</g>
<!-- Node15 -->
<g id="node15" class="node">
<title>Node15</title>
<g id="a_node15"><a xlink:href="ImGuizmoManipulator_8cpp.html" target="_top" xlink:title=" ">
<polygon fill="white" stroke="#666666" points="997.65,-129 852.65,-129 852.65,-110 997.65,-110 997.65,-129"/>
<text text-anchor="middle" x="925.15" y="-117" font-family="Helvetica,sans-Serif" font-size="10.00">ImGuizmoManipulator.cpp</text>
</a>
</g>
</g>
<!-- Node2&#45;&gt;Node15 -->
<g id="edge14" class="edge">
<title>Node2&#45;&gt;Node15</title>
<path fill="none" stroke="#63b8ff" d="M1237.28,-167.63C1175.21,-158.26 1053.45,-139.87 981.72,-129.04"/>
<polygon fill="#63b8ff" stroke="#63b8ff" points="1237.02,-171.13 1247.43,-169.16 1238.06,-164.21 1237.02,-171.13"/>
</g>
<!-- Node16 -->
<g id="node16" class="node">
<title>Node16</title>
<g id="a_node16"><a xlink:href="Input_8cpp.html" target="_top" xlink:title=" ">
<polygon fill="white" stroke="#666666" points="1078.15,-129 1016.15,-129 1016.15,-110 1078.15,-110 1078.15,-129"/>
<text text-anchor="middle" x="1047.15" y="-117" font-family="Helvetica,sans-Serif" font-size="10.00">Input.cpp</text>
</a>
</g>
</g>
<!-- Node2&#45;&gt;Node16 -->
<g id="edge15" class="edge">
<title>Node2&#45;&gt;Node16</title>
<path fill="none" stroke="#63b8ff" d="M1237.68,-164.6C1192.85,-154.22 1119.66,-137.28 1078.25,-127.7"/>
<polygon fill="#63b8ff" stroke="#63b8ff" points="1237.08,-168.05 1247.61,-166.89 1238.66,-161.23 1237.08,-168.05"/>
</g>
<!-- Node17 -->
<g id="node17" class="node">
<title>Node17</title>
<g id="a_node17"><a xlink:href="InputResource_8cpp.html" target="_top" xlink:title=" ">
<polygon fill="white" stroke="#666666" points="1203.65,-129 1096.65,-129 1096.65,-110 1203.65,-110 1203.65,-129"/>
<text text-anchor="middle" x="1150.15" y="-117" font-family="Helvetica,sans-Serif" font-size="10.00">InputResource.cpp</text>
</a>
</g>
</g>
<!-- Node2&#45;&gt;Node17 -->
<g id="edge16" class="edge">
<title>Node2&#45;&gt;Node17</title>
<path fill="none" stroke="#63b8ff" d="M1246.5,-161.03C1223.2,-151.23 1191.35,-137.83 1170.77,-129.17"/>
<polygon fill="#63b8ff" stroke="#63b8ff" points="1245.33,-164.33 1255.91,-164.98 1248.05,-157.88 1245.33,-164.33"/>
</g>
<!-- Node18 -->
<g id="node18" class="node">
<title>Node18</title>
<g id="a_node18"><a xlink:href="MTImGui_8cpp.html" target="_top" xlink:title=" ">
<polygon fill="white" stroke="#666666" points="105.65,-19 24.65,-19 24.65,0 105.65,0 105.65,-19"/>
<text text-anchor="middle" x="65.15" y="-7" font-family="Helvetica,sans-Serif" font-size="10.00">MTImGui.cpp</text>
</a>
</g>
</g>
<!-- Node2&#45;&gt;Node18 -->
<g id="edge17" class="edge">
<title>Node2&#45;&gt;Node18</title>
<path fill="none" stroke="#63b8ff" d="M1237.12,-173.4C1097.78,-172.74 625.52,-167.63 480.15,-129 461.9,-124.15 460.34,-115.09 442.15,-110 395.24,-96.87 38.16,-109.84 5.15,-74 -13.14,-54.14 23.02,-31.2 46.74,-19.06"/>
<polygon fill="#63b8ff" stroke="#63b8ff" points="1237.3,-176.91 1247.32,-173.45 1237.33,-169.91 1237.3,-176.91"/>
</g>
<!-- Node19 -->
<g id="node19" class="node">
<title>Node19</title>
<g id="a_node19"><a xlink:href="MovingFloor_8cpp.html" target="_top" xlink:title=" ">
<polygon fill="white" stroke="#666666" points="1090.65,-19 993.65,-19 993.65,0 1090.65,0 1090.65,-19"/>
<text text-anchor="middle" x="1042.15" y="-7" font-family="Helvetica,sans-Serif" font-size="10.00">MovingFloor.cpp</text>
</a>
</g>
</g>
<!-- Node2&#45;&gt;Node19 -->
<g id="edge18" class="edge">
<title>Node2&#45;&gt;Node19</title>
<path fill="none" stroke="#63b8ff" d="M1237.16,-173.52C1112.42,-173.19 729.13,-168.9 692.15,-129 686.41,-122.81 686.51,-116.29 692.15,-110 741.56,-54.93 966.29,-121.34 1023.15,-74 1039.6,-60.31 1042.18,-32.99 1042.36,-19.08"/>
<polygon fill="#63b8ff" stroke="#63b8ff" points="1237.39,-177.02 1247.39,-173.54 1237.4,-170.02 1237.39,-177.02"/>
</g>
<!-- Node20 -->
<g id="node20" class="node">
<title>Node20</title>
<g id="a_node20"><a xlink:href="PatrolChargerEnemy_8cpp.html" target="_top" xlink:title=" ">
<polygon fill="white" stroke="#666666" points="1709.65,-19 1574.65,-19 1574.65,0 1709.65,0 1709.65,-19"/>
<text text-anchor="middle" x="1642.15" y="-7" font-family="Helvetica,sans-Serif" font-size="10.00">PatrolChargerEnemy.cpp</text>
</a>
</g>
</g>
<!-- Node2&#45;&gt;Node20 -->
<g id="edge19" class="edge">
<title>Node2&#45;&gt;Node20</title>
<path fill="none" stroke="#63b8ff" d="M1314.97,-173.09C1485.3,-171.08 2159.53,-161.15 2190.15,-129 2258.55,-57.2 1870.94,-24.63 1709.87,-14.32"/>
<polygon fill="#63b8ff" stroke="#63b8ff" points="1314.9,-169.59 1304.94,-173.2 1314.98,-176.59 1314.9,-169.59"/>
</g>
<!-- Node21 -->
<g id="node21" class="node">
<title>Node21</title>
<g id="a_node21"><a xlink:href="RenderSystem_8cpp.html" target="_top" xlink:title=" ">
<polygon fill="white" stroke="#666666" points="1330.15,-129 1222.15,-129 1222.15,-110 1330.15,-110 1330.15,-129"/>
<text text-anchor="middle" x="1276.15" y="-117" font-family="Helvetica,sans-Serif" font-size="10.00">RenderSystem.cpp</text>
</a>
</g>
</g>
<!-- Node2&#45;&gt;Node21 -->
<g id="edge20" class="edge">
<title>Node2&#45;&gt;Node21</title>
<path fill="none" stroke="#63b8ff" d="M1276.15,-154.66C1276.15,-145.93 1276.15,-135.99 1276.15,-129.09"/>
<polygon fill="#63b8ff" stroke="#63b8ff" points="1272.65,-154.75 1276.15,-164.75 1279.65,-154.75 1272.65,-154.75"/>
</g>
<!-- Node22 -->
<g id="node22" class="node">
<title>Node22</title>
<g id="a_node22"><a xlink:href="RigidBodyCP_8cpp.html" target="_top" xlink:title=" ">
<polygon fill="white" stroke="#666666" points="1446.15,-129 1348.15,-129 1348.15,-110 1446.15,-110 1446.15,-129"/>
<text text-anchor="middle" x="1397.15" y="-117" font-family="Helvetica,sans-Serif" font-size="10.00">RigidBodyCP.cpp</text>
</a>
</g>
</g>
<!-- Node2&#45;&gt;Node22 -->
<g id="edge21" class="edge">
<title>Node2&#45;&gt;Node22</title>
<path fill="none" stroke="#63b8ff" d="M1304.92,-160.9C1327.27,-151.11 1357.68,-137.79 1377.36,-129.17"/>
<polygon fill="#63b8ff" stroke="#63b8ff" points="1303.35,-157.77 1295.59,-164.98 1306.16,-164.18 1303.35,-157.77"/>
</g>
<!-- Node23 -->
<g id="node23" class="node">
<title>Node23</title>
<g id="a_node23"><a xlink:href="Sprite_8cpp.html" target="_top" xlink:title=" ">
<polygon fill="white" stroke="#666666" points="1529.65,-129 1464.65,-129 1464.65,-110 1529.65,-110 1529.65,-129"/>
<text text-anchor="middle" x="1497.15" y="-117" font-family="Helvetica,sans-Serif" font-size="10.00">Sprite.cpp</text>
</a>
</g>
</g>
<!-- Node2&#45;&gt;Node23 -->
<g id="edge22" class="edge">
<title>Node2&#45;&gt;Node23</title>
<path fill="none" stroke="#63b8ff" d="M1314.99,-164.19C1357.36,-154.03 1424.44,-137.94 1464.29,-128.38"/>
<polygon fill="#63b8ff" stroke="#63b8ff" points="1313.95,-160.84 1305.04,-166.57 1315.59,-167.64 1313.95,-160.84"/>
</g>
<!-- Node24 -->
<g id="node24" class="node">
<title>Node24</title>
<g id="a_node24"><a xlink:href="mtgb_8h.html" target="_top" xlink:title=" ">
<polygon fill="#fff0f0" stroke="red" points="540.65,-129 489.65,-129 489.65,-110 540.65,-110 540.65,-129"/>
<text text-anchor="middle" x="515.15" y="-117" font-family="Helvetica,sans-Serif" font-size="10.00">mtgb.h</text>
</a>
</g>
</g>
<!-- Node2&#45;&gt;Node24 -->
<g id="edge23" class="edge">
<title>Node2&#45;&gt;Node24</title>
<path fill="none" stroke="#63b8ff" d="M1237.42,-173.53C1128.51,-173.1 810.57,-168.29 550.15,-129 547.06,-128.53 543.84,-127.93 540.66,-127.25"/>
<polygon fill="#63b8ff" stroke="#63b8ff" points="1237.58,-177.03 1247.59,-173.56 1237.61,-170.03 1237.58,-177.03"/>
</g>
<!-- Node25 -->
<g id="node25" class="node">
<title>Node25</title>
<g id="a_node25"><a xlink:href="Box3D_8h.html" target="_top" xlink:title=" ">
<polygon fill="#fff0f0" stroke="red" points="586.15,-74 528.15,-74 528.15,-55 586.15,-55 586.15,-74"/>
<text text-anchor="middle" x="557.15" y="-62" font-family="Helvetica,sans-Serif" font-size="10.00">Box3D.h</text>
</a>
</g>
</g>
<!-- Node24&#45;&gt;Node25 -->
<g id="edge24" class="edge">
<title>Node24&#45;&gt;Node25</title>
<path fill="none" stroke="#63b8ff" d="M528.49,-101.67C535.76,-92.5 544.45,-81.52 550.35,-74.09"/>
<polygon fill="#63b8ff" stroke="#63b8ff" points="525.56,-99.74 522.09,-109.75 531.04,-104.08 525.56,-99.74"/>
</g>
<!-- Node29 -->
<g id="node26" class="node">
<title>Node29</title>
<g id="a_node26"><a xlink:href="Camera_8h.html" target="_top" xlink:title=" ">
<polygon fill="#fff0f0" stroke="red" points="706.15,-74 642.15,-74 642.15,-55 706.15,-55 706.15,-74"/>
<text text-anchor="middle" x="674.15" y="-62" font-family="Helvetica,sans-Serif" font-size="10.00">Camera.h</text>
</a>
</g>
</g>
<!-- Node24&#45;&gt;Node29 -->
<g id="edge25" class="edge">
<title>Node24&#45;&gt;Node29</title>
<path fill="none" stroke="#63b8ff" d="M550.26,-106.8C579.93,-96.91 621.75,-82.97 648.41,-74.08"/>
<polygon fill="#63b8ff" stroke="#63b8ff" points="549.08,-103.5 540.7,-109.98 551.29,-110.14 549.08,-103.5"/>
</g>
<!-- Node32 -->
<g id="node27" class="node">
<title>Node32</title>
<g id="a_node27"><a xlink:href="Player_8h.html" target="_top" xlink:title=" ">
<polygon fill="#fff0f0" stroke="red" points="672.15,-19 616.15,-19 616.15,0 672.15,0 672.15,-19"/>
<text text-anchor="middle" x="644.15" y="-7" font-family="Helvetica,sans-Serif" font-size="10.00">Player.h</text>
</a>
</g>
</g>
<!-- Node24&#45;&gt;Node32 -->
<g id="edge36" class="edge">
<title>Node24&#45;&gt;Node32</title>
<path fill="none" stroke="#63b8ff" d="M545.03,-105.5C560.91,-97.74 580.19,-86.88 595.15,-74 614.36,-57.47 631.02,-32.35 639.05,-19.21"/>
<polygon fill="#63b8ff" stroke="#63b8ff" points="543.2,-102.5 535.65,-109.93 546.19,-108.83 543.2,-102.5"/>
</g>
<!-- Node36 -->
<g id="node28" class="node">
<title>Node36</title>
<g id="a_node28"><a xlink:href="GameOverZone_8h.html" target="_top" xlink:title=" ">
<polygon fill="#fff0f0" stroke="red" points="827.65,-74 724.65,-74 724.65,-55 827.65,-55 827.65,-74"/>
<text text-anchor="middle" x="776.15" y="-62" font-family="Helvetica,sans-Serif" font-size="10.00">GameOverZone.h</text>
</a>
</g>
</g>
<!-- Node24&#45;&gt;Node36 -->
<g id="edge27" class="edge">
<title>Node24&#45;&gt;Node36</title>
<path fill="none" stroke="#63b8ff" d="M550.77,-109.95C618.74,-95.11 686.09,-82.18 729.72,-74.03"/>
<polygon fill="#63b8ff" stroke="#63b8ff" points="549.75,-106.59 540.74,-112.15 551.25,-113.42 549.75,-106.59"/>
</g>
<!-- Node38 -->
<g id="node29" class="node">
<title>Node38</title>
<g id="a_node29"><a xlink:href="Goal_8h.html" target="_top" xlink:title=" ">
<polygon fill="#fff0f0" stroke="red" points="894.15,-74 846.15,-74 846.15,-55 894.15,-55 894.15,-74"/>
<text text-anchor="middle" x="870.15" y="-62" font-family="Helvetica,sans-Serif" font-size="10.00">Goal.h</text>
</a>
</g>
</g>
<!-- Node24&#45;&gt;Node38 -->
<g id="edge28" class="edge">
<title>Node24&#45;&gt;Node38</title>
<path fill="none" stroke="#63b8ff" d="M550.82,-110.1C677.95,-87.37 713.42,-96.98 836.15,-74 839.38,-73.4 842.76,-72.67 846.09,-71.9"/>
<polygon fill="#63b8ff" stroke="#63b8ff" points="549.91,-106.71 540.7,-111.94 551.16,-113.6 549.91,-106.71"/>
</g>
<!-- Node40 -->
<g id="node30" class="node">
<title>Node40</title>
<g id="a_node30"><a xlink:href="HighlightEnemy_8h.html" target="_top" xlink:title=" ">
<polygon fill="#fff0f0" stroke="red" points="1014.15,-74 912.15,-74 912.15,-55 1014.15,-55 1014.15,-74"/>
<text text-anchor="middle" x="963.15" y="-62" font-family="Helvetica,sans-Serif" font-size="10.00">HighlightEnemy.h</text>
</a>
</g>
</g>
<!-- Node24&#45;&gt;Node40 -->
<g id="edge29" class="edge">
<title>Node24&#45;&gt;Node40</title>
<path fill="none" stroke="#63b8ff" d="M550.67,-110.16C707.31,-83.72 749.82,-92.67 903.15,-74 906.08,-73.64 909.08,-73.26 912.11,-72.87"/>
<polygon fill="#63b8ff" stroke="#63b8ff" points="549.95,-106.74 540.68,-111.87 551.13,-113.64 549.95,-106.74"/>
</g>
<!-- Node42 -->
<g id="node31" class="node">
<title>Node42</title>
<g id="a_node31"><a xlink:href="Model_8cpp.html" target="_top" xlink:title=" ">
<polygon fill="white" stroke="#666666" points="81.65,-74 14.65,-74 14.65,-55 81.65,-55 81.65,-74"/>
<text text-anchor="middle" x="48.15" y="-62" font-family="Helvetica,sans-Serif" font-size="10.00">Model.cpp</text>
</a>
</g>
</g>
<!-- Node24&#45;&gt;Node42 -->
<g id="edge30" class="edge">
<title>Node24&#45;&gt;Node42</title>
<path fill="none" stroke="#63b8ff" d="M479.56,-110.72C478.07,-110.46 476.6,-110.22 475.15,-110 305.7,-84.14 260.79,-98.65 91.15,-74 88.14,-73.56 85.02,-73.05 81.9,-72.51"/>
<polygon fill="#63b8ff" stroke="#63b8ff" points="478.94,-114.16 489.41,-112.57 480.23,-107.28 478.94,-114.16"/>
</g>
<!-- Node43 -->
<g id="node32" class="node">
<title>Node43</title>
<g id="a_node32"><a xlink:href="MovingFloor_8h.html" target="_top" xlink:title=" ">
<polygon fill="#fff0f0" stroke="red" points="186.15,-74 100.15,-74 100.15,-55 186.15,-55 186.15,-74"/>
<text text-anchor="middle" x="143.15" y="-62" font-family="Helvetica,sans-Serif" font-size="10.00">MovingFloor.h</text>
</a>
</g>
</g>
<!-- Node24&#45;&gt;Node43 -->
<g id="edge31" class="edge">
<title>Node24&#45;&gt;Node43</title>
<path fill="none" stroke="#63b8ff" d="M479.55,-110.78C478.07,-110.51 476.6,-110.25 475.15,-110 351.46,-88.94 319.31,-92.12 195.15,-74 192.26,-73.58 189.27,-73.13 186.27,-72.66"/>
<polygon fill="#63b8ff" stroke="#63b8ff" points="478.91,-114.22 489.39,-112.7 480.25,-107.35 478.91,-114.22"/>
</g>
<!-- Node45 -->
<g id="node33" class="node">
<title>Node45</title>
<g id="a_node33"><a xlink:href="PatrolChargerEnemy_8h.html" target="_top" xlink:title=" ">
<polygon fill="#fff0f0" stroke="red" points="1704.15,-74 1580.15,-74 1580.15,-55 1704.15,-55 1704.15,-74"/>
<text text-anchor="middle" x="1642.15" y="-62" font-family="Helvetica,sans-Serif" font-size="10.00">PatrolChargerEnemy.h</text>
</a>
</g>
</g>
<!-- Node24&#45;&gt;Node45 -->
<g id="edge34" class="edge">
<title>Node24&#45;&gt;Node45</title>
<path fill="none" stroke="#63b8ff" d="M551.06,-110.22C1001.73,-48.99 1121.76,-108.76 1571.15,-74 1574,-73.78 1576.91,-73.53 1579.84,-73.26"/>
<polygon fill="#63b8ff" stroke="#63b8ff" points="550.47,-106.77 541.03,-111.59 551.42,-113.7 550.47,-106.77"/>
</g>
<!-- Node46 -->
<g id="node34" class="node">
<title>Node46</title>
<g id="a_node34"><a xlink:href="SampleGame_8h.html" target="_top" xlink:title=" ">
<polygon fill="#fff0f0" stroke="red" points="296.15,-74 204.15,-74 204.15,-55 296.15,-55 296.15,-74"/>
<text text-anchor="middle" x="250.15" y="-62" font-family="Helvetica,sans-Serif" font-size="10.00">SampleGame.h</text>
</a>
</g>
</g>
<!-- Node24&#45;&gt;Node46 -->
<g id="edge37" class="edge">
<title>Node24&#45;&gt;Node46</title>
<path fill="none" stroke="#63b8ff" d="M479.53,-110.9C478.05,-110.6 476.59,-110.29 475.15,-110 412.35,-97.12 339.55,-82.84 294.17,-74.01"/>
<polygon fill="#63b8ff" stroke="#63b8ff" points="478.84,-114.33 489.34,-112.96 480.27,-107.48 478.84,-114.33"/>
</g>
<!-- Node49 -->
<g id="node35" class="node">
<title>Node49</title>
<g id="a_node35"><a xlink:href="SampleScene_8cpp.html" target="_top" xlink:title=" ">
<polygon fill="white" stroke="#666666" points="417.65,-74 314.65,-74 314.65,-55 417.65,-55 417.65,-74"/>
<text text-anchor="middle" x="366.15" y="-62" font-family="Helvetica,sans-Serif" font-size="10.00">SampleScene.cpp</text>
</a>
</g>
</g>
<!-- Node24&#45;&gt;Node49 -->
<g id="edge38" class="edge">
<title>Node24&#45;&gt;Node49</title>
<path fill="none" stroke="#63b8ff" d="M481.56,-106.55C453.89,-96.71 415.31,-82.98 390.53,-74.17"/>
<polygon fill="#63b8ff" stroke="#63b8ff" points="480.62,-109.93 491.21,-109.98 482.96,-103.34 480.62,-109.93"/>
</g>
<!-- Node50 -->
<g id="node36" class="node">
<title>Node50</title>
<g id="a_node36"><a xlink:href="ScoreItem_8h.html" target="_top" xlink:title=" ">
<polygon fill="#fff0f0" stroke="red" points="510.65,-74 435.65,-74 435.65,-55 510.65,-55 510.65,-74"/>
<text text-anchor="middle" x="473.15" y="-62" font-family="Helvetica,sans-Serif" font-size="10.00">ScoreItem.h</text>
</a>
</g>
</g>
<!-- Node24&#45;&gt;Node50 -->
<g id="edge39" class="edge">
<title>Node24&#45;&gt;Node50</title>
<path fill="none" stroke="#63b8ff" d="M501.82,-101.67C494.55,-92.5 485.85,-81.52 479.96,-74.09"/>
<polygon fill="#63b8ff" stroke="#63b8ff" points="499.26,-104.08 508.22,-109.75 504.75,-99.74 499.26,-104.08"/>
</g>
<!-- Node29&#45;&gt;Node32 -->
<g id="edge26" class="edge">
<title>Node29&#45;&gt;Node32</title>
<path fill="none" stroke="#63b8ff" d="M664.14,-45.82C659.05,-36.82 653.09,-26.29 649.01,-19.09"/>
<polygon fill="#63b8ff" stroke="#63b8ff" points="661.23,-47.77 669.2,-54.75 667.32,-44.32 661.23,-47.77"/>
</g>
<!-- Node43&#45;&gt;Node18 -->
<g id="edge32" class="edge">
<title>Node43&#45;&gt;Node18</title>
<path fill="none" stroke="#63b8ff" d="M122.04,-49.15C107.94,-39.57 89.86,-27.29 77.91,-19.17"/>
<polygon fill="#63b8ff" stroke="#63b8ff" points="120.38,-52.26 130.62,-54.98 124.32,-46.47 120.38,-52.26"/>
</g>
<!-- Node43&#45;&gt;Node19 -->
<g id="edge33" class="edge">
<title>Node43&#45;&gt;Node19</title>
<path fill="none" stroke="#63b8ff" d="M196.28,-55.01C505.31,-22.26 864.58,-13.43 993.31,-11.2"/>
<polygon fill="#63b8ff" stroke="#63b8ff" points="195.8,-51.54 186.23,-56.09 196.55,-58.5 195.8,-51.54"/>
</g>
<!-- Node45&#45;&gt;Node20 -->
<g id="edge35" class="edge">
<title>Node45&#45;&gt;Node20</title>
<path fill="none" stroke="#63b8ff" d="M1642.15,-44.66C1642.15,-35.93 1642.15,-25.99 1642.15,-19.09"/>
<polygon fill="#63b8ff" stroke="#63b8ff" points="1638.65,-44.75 1642.15,-54.75 1645.65,-44.75 1638.65,-44.75"/>
</g>
<!-- Node63 -->
<g id="node38" class="node">
<title>Node63</title>
<g id="a_node38"><a xlink:href="Inspector_8h.html" target="_top" xlink:title=" ">
<polygon fill="#fff0f0" stroke="red" points="2586.15,-129 2516.15,-129 2516.15,-110 2586.15,-110 2586.15,-129"/>
<text text-anchor="middle" x="2551.15" y="-117" font-family="Helvetica,sans-Serif" font-size="10.00">Inspector.h</text>
</a>
</g>
</g>
<!-- Node62&#45;&gt;Node63 -->
<g id="edge41" class="edge">
<title>Node62&#45;&gt;Node63</title>
<path fill="none" stroke="#63b8ff" d="M2473.51,-216.82C2493.14,-210.09 2514.35,-199.73 2529.15,-184 2543.87,-168.37 2548.79,-142.4 2550.4,-129.03"/>
<polygon fill="#63b8ff" stroke="#63b8ff" points="2472.2,-213.57 2463.73,-219.93 2474.32,-220.24 2472.2,-213.57"/>
</g>
<!-- Node65 -->
<g id="node39" class="node">
<title>Node65</title>
<g id="a_node39"><a xlink:href="TypeRegistry_8h.html" target="_top" xlink:title=" ">
<polygon fill="#fff0f0" stroke="red" points="2520.65,-184 2433.65,-184 2433.65,-165 2520.65,-165 2520.65,-184"/>
<text text-anchor="middle" x="2477.15" y="-172" font-family="Helvetica,sans-Serif" font-size="10.00">TypeRegistry.h</text>
</a>
</g>
</g>
<!-- Node62&#45;&gt;Node65 -->
<g id="edge42" class="edge">
<title>Node62&#45;&gt;Node65</title>
<path fill="none" stroke="#63b8ff" d="M2438.45,-212.8C2448.19,-203.41 2460.21,-191.83 2468.24,-184.09"/>
<polygon fill="#63b8ff" stroke="#63b8ff" points="2436.01,-210.29 2431.23,-219.75 2440.86,-215.33 2436.01,-210.29"/>
</g>
<!-- Node62&#45;&gt;Node160 -->
<g id="edge51" class="edge">
<title>Node62&#45;&gt;Node160</title>
<path fill="none" stroke="#63b8ff" d="M2419.16,-209.48C2415.44,-185.84 2409.25,-146.5 2406.52,-129.16"/>
<polygon fill="#63b8ff" stroke="#63b8ff" points="2415.75,-210.33 2420.76,-219.66 2422.66,-209.24 2415.75,-210.33"/>
</g>
<!-- Node65&#45;&gt;Node13 -->
<g id="edge43" class="edge">
<title>Node65&#45;&gt;Node13</title>
<path fill="none" stroke="#63b8ff" d="M2436.62,-162.31C2400.69,-152.39 2348.99,-138.12 2316.24,-129.08"/>
<polygon fill="#63b8ff" stroke="#63b8ff" points="2435.73,-165.7 2446.3,-164.98 2437.6,-158.95 2435.73,-165.7"/>
</g>
<!-- Node65&#45;&gt;Node63 -->
<g id="edge44" class="edge">
<title>Node65&#45;&gt;Node63</title>
<path fill="none" stroke="#63b8ff" d="M2497.19,-159.15C2510.56,-149.57 2527.71,-137.29 2539.05,-129.17"/>
<polygon fill="#63b8ff" stroke="#63b8ff" points="2495.13,-156.32 2489.04,-164.98 2499.21,-162.01 2495.13,-156.32"/>
</g>
<!-- Node84 -->
<g id="node40" class="node">
<title>Node84</title>
<g id="a_node40"><a xlink:href="TypeRegistry_8cpp.html" target="_top" xlink:title=" ">
<polygon fill="white" stroke="#666666" points="2495.15,-74 2397.15,-74 2397.15,-55 2495.15,-55 2495.15,-74"/>
<text text-anchor="middle" x="2446.15" y="-62" font-family="Helvetica,sans-Serif" font-size="10.00">TypeRegistry.cpp</text>
</a>
</g>
</g>
<!-- Node65&#45;&gt;Node84 -->
<g id="edge45" class="edge">
<title>Node65&#45;&gt;Node84</title>
<path fill="none" stroke="#63b8ff" d="M2476.49,-154.31C2475.62,-141.52 2473.64,-124.46 2469.15,-110 2465.08,-96.88 2457.27,-83 2451.89,-74.3"/>
<polygon fill="#63b8ff" stroke="#63b8ff" points="2473.01,-154.86 2477.01,-164.67 2480,-154.5 2473.01,-154.86"/>
</g>
<!-- Node65&#45;&gt;Node160 -->
<g id="edge46" class="edge">
<title>Node65&#45;&gt;Node160</title>
<path fill="none" stroke="#63b8ff" d="M2457.29,-158.88C2444.33,-149.34 2427.86,-137.21 2416.93,-129.17"/>
<polygon fill="#63b8ff" stroke="#63b8ff" points="2455.46,-161.88 2465.58,-164.98 2459.61,-156.24 2455.46,-161.88"/>
</g>
<!-- Node160&#45;&gt;Node84 -->
<g id="edge47" class="edge">
<title>Node160&#45;&gt;Node84</title>
<path fill="none" stroke="#63b8ff" d="M2418.17,-101.67C2425.27,-92.5 2433.76,-81.52 2439.51,-74.09"/>
<polygon fill="#63b8ff" stroke="#63b8ff" points="2415.27,-99.7 2411.92,-109.75 2420.81,-103.98 2415.27,-99.7"/>
</g>
<!-- Node85 -->
<g id="node42" class="node">
<title>Node85</title>
<g id="a_node42"><a xlink:href="stdafx_8h.html" target="_top" xlink:title=" ">
<polygon fill="#fff0f0" stroke="red" points="1562.15,-74 1506.15,-74 1506.15,-55 1562.15,-55 1562.15,-74"/>
<text text-anchor="middle" x="1534.15" y="-62" font-family="Helvetica,sans-Serif" font-size="10.00">stdafx.h</text>
</a>
</g>
</g>
<!-- Node160&#45;&gt;Node85 -->
<g id="edge48" class="edge">
<title>Node160&#45;&gt;Node85</title>
<path fill="none" stroke="#63b8ff" d="M2339.85,-109.97C1998.16,-80.21 1907.26,-120.09 1571.15,-74 1568.28,-73.61 1565.3,-73.1 1562.34,-72.52"/>
<polygon fill="#63b8ff" stroke="#63b8ff" points="2339.76,-113.48 2350.03,-110.88 2340.38,-106.51 2339.76,-113.48"/>
</g>
<!-- Node85&#45;&gt;Node19 -->
<g id="edge49" class="edge">
<title>Node85&#45;&gt;Node19</title>
<path fill="none" stroke="#63b8ff" d="M1495.79,-59.37C1407.2,-49.82 1188.47,-26.26 1090.72,-15.73"/>
<polygon fill="#63b8ff" stroke="#63b8ff" points="1495.62,-62.87 1505.93,-60.46 1496.37,-55.91 1495.62,-62.87"/>
</g>
<!-- Node85&#45;&gt;Node20 -->
<g id="edge50" class="edge">
<title>Node85&#45;&gt;Node20</title>
<path fill="none" stroke="#63b8ff" d="M1560.64,-50.5C1580.51,-40.75 1607.15,-27.68 1624.48,-19.17"/>
<polygon fill="#63b8ff" stroke="#63b8ff" points="1558.94,-47.44 1551.5,-54.98 1562.02,-53.72 1558.94,-47.44"/>
</g>
<!-- Node79 -->
<g id="node48" class="node">
<title>Node79</title>
<g id="a_node48"><a xlink:href="TerrainReader_8cpp.html" target="_top" xlink:title=" ">
<polygon fill="white" stroke="#666666" points="2992.15,-184 2888.15,-184 2888.15,-165 2992.15,-165 2992.15,-184"/>
<text text-anchor="middle" x="2940.15" y="-172" font-family="Helvetica,sans-Serif" font-size="10.00">TerrainReader.cpp</text>
</a>
</g>
</g>
<!-- Node78&#45;&gt;Node79 -->
<g id="edge58" class="edge">
<title>Node78&#45;&gt;Node79</title>
<path fill="none" stroke="#63b8ff" d="M2940.15,-209.66C2940.15,-200.93 2940.15,-190.99 2940.15,-184.09"/>
<polygon fill="#63b8ff" stroke="#63b8ff" points="2936.65,-209.75 2940.15,-219.75 2943.65,-209.75 2936.65,-209.75"/>
</g>
</g>
</svg>
