<?xml version="1.0" encoding="UTF-8" standalone="no"?>
<!DOCTYPE svg PUBLIC "-//W3C//DTD SVG 1.1//EN"
 "http://www.w3.org/Graphics/SVG/1.1/DTD/svg11.dtd">
<!-- Generated by graphviz version 2.43.0 (0)
 -->
<!-- Title: ImGui::FocusTopMostWindowUnderOne Pages: 1 -->
<svg width="1347pt" height="462pt"
 viewBox="0.00 0.00 1347.00 462.08" xmlns="http://www.w3.org/2000/svg" xmlns:xlink="http://www.w3.org/1999/xlink">
<g id="graph0" class="graph" transform="scale(1 1) rotate(0) translate(4 458.08)">
<title>ImGui::FocusTopMostWindowUnderOne</title>
<!-- Node1 -->
<g id="node1" class="node">
<title>Node1</title>
<g id="a_node1"><a xlink:title=" ">
<polygon fill="#999999" stroke="#666666" points="159,-212.08 0,-212.08 0,-182.08 159,-182.08 159,-212.08"/>
<text text-anchor="start" x="8" y="-200.08" font-family="Helvetica,sans-Serif" font-size="10.00">ImGui::FocusTopMostWindow</text>
<text text-anchor="middle" x="79.5" y="-189.08" font-family="Helvetica,sans-Serif" font-size="10.00">UnderOne</text>
</a>
</g>
</g>
<!-- Node2 -->
<g id="node2" class="node">
<title>Node2</title>
<g id="a_node2"><a xlink:href="namespaceImGui.html#a861004d5a1476e954abd68d6f9deaa06" target="_top" xlink:title=" ">
<polygon fill="white" stroke="#666666" points="361,-243.58 195,-243.58 195,-224.58 361,-224.58 361,-243.58"/>
<text text-anchor="middle" x="278" y="-231.58" font-family="Helvetica,sans-Serif" font-size="10.00">ImGui::FindWindowFocusIndex</text>
</a>
</g>
</g>
<!-- Node1&#45;&gt;Node2 -->
<g id="edge1" class="edge">
<title>Node1&#45;&gt;Node2</title>
<path fill="none" stroke="#63b8ff" d="M159.01,-211.86C178.13,-215.46 198.29,-219.26 216.44,-222.68"/>
<polygon fill="#63b8ff" stroke="#63b8ff" points="215.81,-226.12 226.29,-224.53 217.11,-219.24 215.81,-226.12"/>
</g>
<!-- Node3 -->
<g id="node3" class="node">
<title>Node3</title>
<g id="a_node3"><a xlink:href="namespaceImGui.html#a27aa6f2f3aa11778c6d023b1b223f262" target="_top" xlink:title=" ">
<polygon fill="white" stroke="#666666" points="337.5,-206.58 218.5,-206.58 218.5,-187.58 337.5,-187.58 337.5,-206.58"/>
<text text-anchor="middle" x="278" y="-194.58" font-family="Helvetica,sans-Serif" font-size="10.00">ImGui::FocusWindow</text>
</a>
</g>
</g>
<!-- Node1&#45;&gt;Node3 -->
<g id="edge2" class="edge">
<title>Node1&#45;&gt;Node3</title>
<path fill="none" stroke="#63b8ff" d="M159.01,-197.08C175.23,-197.08 192.2,-197.08 208.06,-197.08"/>
<polygon fill="#63b8ff" stroke="#63b8ff" points="208.29,-200.58 218.29,-197.08 208.29,-193.58 208.29,-200.58"/>
</g>
<!-- Node4 -->
<g id="node4" class="node">
<title>Node4</title>
<g id="a_node4"><a xlink:href="namespaceImGui.html#a8cae2f7a08f820a8d5349d1964603b20" target="_top" xlink:title=" ">
<polygon fill="white" stroke="#666666" points="567,-330.08 403,-330.08 403,-300.08 567,-300.08 567,-330.08"/>
<text text-anchor="start" x="411" y="-318.08" font-family="Helvetica,sans-Serif" font-size="10.00">ImGui::BringWindowToDisplay</text>
<text text-anchor="middle" x="485" y="-307.08" font-family="Helvetica,sans-Serif" font-size="10.00">Behind</text>
</a>
</g>
</g>
<!-- Node3&#45;&gt;Node4 -->
<g id="edge3" class="edge">
<title>Node3&#45;&gt;Node4</title>
<path fill="none" stroke="#63b8ff" d="M337.57,-203C346.02,-205.75 354.16,-209.63 361,-215.08 390.24,-238.36 368.38,-267.04 397,-291.08 398.53,-292.37 400.12,-293.58 401.77,-294.73"/>
<polygon fill="#63b8ff" stroke="#63b8ff" points="400.03,-297.77 410.4,-299.97 403.66,-291.79 400.03,-297.77"/>
</g>
<!-- Node8 -->
<g id="node8" class="node">
<title>Node8</title>
<g id="a_node8"><a xlink:href="namespaceImGui.html#a1f7b95f36d03751c928af7b1b745e959" target="_top" xlink:title=" ">
<polygon fill="white" stroke="#666666" points="567,-282.08 403,-282.08 403,-252.08 567,-252.08 567,-282.08"/>
<text text-anchor="start" x="411" y="-270.08" font-family="Helvetica,sans-Serif" font-size="10.00">ImGui::BringWindowToDisplay</text>
<text text-anchor="middle" x="485" y="-259.08" font-family="Helvetica,sans-Serif" font-size="10.00">Front</text>
</a>
</g>
</g>
<!-- Node3&#45;&gt;Node8 -->
<g id="edge7" class="edge">
<title>Node3&#45;&gt;Node8</title>
<path fill="none" stroke="#63b8ff" d="M337.85,-206.65C345.82,-208.9 353.74,-211.68 361,-215.08 379.35,-223.69 378.88,-233.99 397,-243.08 400.78,-244.98 404.73,-246.74 408.78,-248.38"/>
<polygon fill="#63b8ff" stroke="#63b8ff" points="407.75,-251.73 418.34,-251.98 410.21,-245.18 407.75,-251.73"/>
</g>
<!-- Node10 -->
<g id="node10" class="node">
<title>Node10</title>
<g id="a_node10"><a xlink:href="namespaceImGui.html#affe95a2dc969f0d15fbd4b588c94ac1a" target="_top" xlink:title=" ">
<polygon fill="white" stroke="#666666" points="562.5,-234.08 407.5,-234.08 407.5,-204.08 562.5,-204.08 562.5,-234.08"/>
<text text-anchor="start" x="415.5" y="-222.08" font-family="Helvetica,sans-Serif" font-size="10.00">ImGui::BringWindowToFocus</text>
<text text-anchor="middle" x="485" y="-211.08" font-family="Helvetica,sans-Serif" font-size="10.00">Front</text>
</a>
</g>
</g>
<!-- Node3&#45;&gt;Node10 -->
<g id="edge9" class="edge">
<title>Node3&#45;&gt;Node10</title>
<path fill="none" stroke="#63b8ff" d="M337.74,-203.39C356.27,-205.37 377.14,-207.61 397.18,-209.76"/>
<polygon fill="#63b8ff" stroke="#63b8ff" points="396.94,-213.26 407.26,-210.85 397.69,-206.3 396.94,-213.26"/>
</g>
<!-- Node11 -->
<g id="node11" class="node">
<title>Node11</title>
<g id="a_node11"><a xlink:href="namespaceImGui.html#a17ff60ad1e2669130ac38a04d16eb354" target="_top" xlink:title=" ">
<polygon fill="white" stroke="#666666" points="544.5,-185.58 425.5,-185.58 425.5,-166.58 544.5,-166.58 544.5,-185.58"/>
<text text-anchor="middle" x="485" y="-173.58" font-family="Helvetica,sans-Serif" font-size="10.00">ImGui::ClearActiveID</text>
</a>
</g>
</g>
<!-- Node3&#45;&gt;Node11 -->
<g id="edge11" class="edge">
<title>Node3&#45;&gt;Node11</title>
<path fill="none" stroke="#63b8ff" d="M337.74,-191.06C361.87,-188.59 389.98,-185.71 415.07,-183.14"/>
<polygon fill="#63b8ff" stroke="#63b8ff" points="415.66,-186.6 425.25,-182.1 414.94,-179.64 415.66,-186.6"/>
</g>
<!-- Node17 -->
<g id="node17" class="node">
<title>Node17</title>
<g id="a_node17"><a xlink:href="namespaceImGui.html#a0076b153c697cb85e263fcbd59340bce" target="_top" xlink:title=" ">
<polygon fill="white" stroke="#666666" points="573,-74.58 397,-74.58 397,-55.58 573,-55.58 573,-74.58"/>
<text text-anchor="middle" x="485" y="-62.58" font-family="Helvetica,sans-Serif" font-size="10.00">ImGui::ClosePopupsOverWindow</text>
</a>
</g>
</g>
<!-- Node3&#45;&gt;Node17 -->
<g id="edge17" class="edge">
<title>Node3&#45;&gt;Node17</title>
<path fill="none" stroke="#63b8ff" d="M285.99,-187.26C302.5,-164.85 346.38,-109.83 397,-83.08 400.51,-81.23 404.18,-79.57 407.97,-78.08"/>
<polygon fill="#63b8ff" stroke="#63b8ff" points="409.26,-81.33 417.54,-74.71 406.94,-74.73 409.26,-81.33"/>
</g>
<!-- Node20 -->
<g id="node20" class="node">
<title>Node20</title>
<g id="a_node20"><a xlink:href="namespaceImGui.html#a196705a4195b41a57470ef6553cb440c" target="_top" xlink:title=" ">
<polygon fill="white" stroke="#666666" points="557,-111.58 413,-111.58 413,-92.58 557,-92.58 557,-111.58"/>
<text text-anchor="middle" x="485" y="-99.58" font-family="Helvetica,sans-Serif" font-size="10.00">ImGui::FindBlockingModal</text>
</a>
</g>
</g>
<!-- Node3&#45;&gt;Node20 -->
<g id="edge23" class="edge">
<title>Node3&#45;&gt;Node20</title>
<path fill="none" stroke="#63b8ff" d="M290.55,-187.38C310.78,-170.92 354.48,-137.61 397,-120.08 402.17,-117.95 407.62,-116.06 413.17,-114.39"/>
<polygon fill="#63b8ff" stroke="#63b8ff" points="414.51,-117.65 423.22,-111.61 412.64,-110.9 414.51,-117.65"/>
</g>
<!-- Node21 -->
<g id="node21" class="node">
<title>Node21</title>
<g id="a_node21"><a xlink:href="namespaceImGui.html#a6b905269b079f5e07755db52cc6e52df" target="_top" xlink:title=" ">
<polygon fill="white" stroke="#666666" points="570,-148.58 400,-148.58 400,-129.58 570,-129.58 570,-148.58"/>
<text text-anchor="middle" x="485" y="-136.58" font-family="Helvetica,sans-Serif" font-size="10.00">ImGui::GetTopMostPopupModal</text>
</a>
</g>
</g>
<!-- Node3&#45;&gt;Node21 -->
<g id="edge25" class="edge">
<title>Node3&#45;&gt;Node21</title>
<path fill="none" stroke="#63b8ff" d="M304.5,-187.42C328.21,-178.68 364.65,-165.88 397,-157.08 405.33,-154.82 414.17,-152.68 422.9,-150.73"/>
<polygon fill="#63b8ff" stroke="#63b8ff" points="423.66,-154.15 432.69,-148.61 422.17,-147.31 423.66,-154.15"/>
</g>
<!-- Node22 -->
<g id="node22" class="node">
<title>Node22</title>
<g id="a_node22"><a xlink:href="namespaceImGui.html#ae9ed208c0b64e4919e5de1cb83b2db2a" target="_top" xlink:title=" ">
<polygon fill="white" stroke="#666666" points="562,-454.08 408,-454.08 408,-424.08 562,-424.08 562,-454.08"/>
<text text-anchor="start" x="416" y="-442.08" font-family="Helvetica,sans-Serif" font-size="10.00">ImGui::NavRestoreLastChild</text>
<text text-anchor="middle" x="485" y="-431.08" font-family="Helvetica,sans-Serif" font-size="10.00">NavWindow</text>
</a>
</g>
</g>
<!-- Node3&#45;&gt;Node22 -->
<g id="edge26" class="edge">
<title>Node3&#45;&gt;Node22</title>
<path fill="none" stroke="#63b8ff" d="M337.66,-201.09C346.41,-204.04 354.62,-208.48 361,-215.08 422.26,-278.43 339.17,-343.58 397,-410.08 399.69,-413.17 402.71,-415.93 405.97,-418.4"/>
<polygon fill="#63b8ff" stroke="#63b8ff" points="404.24,-421.44 414.54,-423.94 408.05,-415.57 404.24,-421.44"/>
</g>
<!-- Node24 -->
<g id="node24" class="node">
<title>Node24</title>
<g id="a_node24"><a xlink:href="namespaceImGui.html#ada2736a9b034b93ba877f46577bc5e8b" target="_top" xlink:title=" ">
<polygon fill="white" stroke="#666666" points="991,-347.58 847,-347.58 847,-328.58 991,-328.58 991,-347.58"/>
<text text-anchor="middle" x="919" y="-335.58" font-family="Helvetica,sans-Serif" font-size="10.00">ImGui::SetNavFocusScope</text>
</a>
</g>
</g>
<!-- Node3&#45;&gt;Node24 -->
<g id="edge28" class="edge">
<title>Node3&#45;&gt;Node24</title>
<path fill="none" stroke="#63b8ff" d="M337.87,-201.44C346.49,-204.36 354.6,-208.7 361,-215.08 412.95,-266.83 339.78,-330.24 397,-376.08 466.03,-431.38 707.55,-389.28 795,-376.08 826.27,-371.36 860.55,-360.25 884.96,-351.25"/>
<polygon fill="#63b8ff" stroke="#63b8ff" points="886.33,-354.48 894.46,-347.68 883.86,-347.93 886.33,-354.48"/>
</g>
<!-- Node26 -->
<g id="node26" class="node">
<title>Node26</title>
<g id="a_node26"><a xlink:href="namespaceImGui.html#aa422c756f467e650d67b4fb1b74ff5a1" target="_top" xlink:title=" ">
<polygon fill="white" stroke="#666666" points="548,-367.58 422,-367.58 422,-348.58 548,-348.58 548,-367.58"/>
<text text-anchor="middle" x="485" y="-355.58" font-family="Helvetica,sans-Serif" font-size="10.00">ImGui::SetNavWindow</text>
</a>
</g>
</g>
<!-- Node3&#45;&gt;Node26 -->
<g id="edge33" class="edge">
<title>Node3&#45;&gt;Node26</title>
<path fill="none" stroke="#63b8ff" d="M337.53,-201.79C346.19,-204.67 354.4,-208.91 361,-215.08 402.9,-254.29 355.07,-299.9 397,-339.08 401.49,-343.27 406.67,-346.62 412.24,-349.29"/>
<polygon fill="#63b8ff" stroke="#63b8ff" points="411.32,-352.69 421.9,-353.16 413.92,-346.19 411.32,-352.69"/>
</g>
<!-- Node5 -->
<g id="node5" class="node">
<title>Node5</title>
<g id="a_node5"><a xlink:href="namespaceImGui.html#acc8dfbe9f52370fe2b95f6c948ba113e" target="_top" xlink:title=" ">
<polygon fill="white" stroke="#666666" points="776,-316.08 628,-316.08 628,-286.08 776,-286.08 776,-316.08"/>
<text text-anchor="start" x="636" y="-304.08" font-family="Helvetica,sans-Serif" font-size="10.00">ImGui::FindWindowDisplay</text>
<text text-anchor="middle" x="702" y="-293.08" font-family="Helvetica,sans-Serif" font-size="10.00">Index</text>
</a>
</g>
</g>
<!-- Node4&#45;&gt;Node5 -->
<g id="edge4" class="edge">
<title>Node4&#45;&gt;Node5</title>
<path fill="none" stroke="#63b8ff" d="M567.28,-309.79C583.73,-308.72 601.05,-307.59 617.56,-306.51"/>
<polygon fill="#63b8ff" stroke="#63b8ff" points="617.98,-309.99 627.73,-305.85 617.52,-303.01 617.98,-309.99"/>
</g>
<!-- Node6 -->
<g id="node6" class="node">
<title>Node6</title>
<g id="a_node6"><a xlink:href="structImVector.html#a406417c3efef769d4bee47df2188831a" target="_top" xlink:title=" ">
<polygon fill="white" stroke="#666666" points="961,-310.58 877,-310.58 877,-291.58 961,-291.58 961,-310.58"/>
<text text-anchor="middle" x="919" y="-298.58" font-family="Helvetica,sans-Serif" font-size="10.00">ImVector::find</text>
</a>
</g>
</g>
<!-- Node5&#45;&gt;Node6 -->
<g id="edge5" class="edge">
<title>Node5&#45;&gt;Node6</title>
<path fill="none" stroke="#63b8ff" d="M776.09,-301.08C805.88,-301.08 839.62,-301.08 866.72,-301.08"/>
<polygon fill="#63b8ff" stroke="#63b8ff" points="866.76,-304.58 876.76,-301.08 866.76,-297.58 866.76,-304.58"/>
</g>
<!-- Node7 -->
<g id="node7" class="node">
<title>Node7</title>
<g id="a_node7"><a xlink:href="structImVector.html#a3fd48379f807eeb01fb9da39afa30dc7" target="_top" xlink:title=" ">
<polygon fill="white" stroke="#666666" points="989,-273.58 849,-273.58 849,-254.58 989,-254.58 989,-273.58"/>
<text text-anchor="middle" x="919" y="-261.58" font-family="Helvetica,sans-Serif" font-size="10.00">ImVector::index_from_ptr</text>
</a>
</g>
</g>
<!-- Node5&#45;&gt;Node7 -->
<g id="edge6" class="edge">
<title>Node5&#45;&gt;Node7</title>
<path fill="none" stroke="#63b8ff" d="M776.09,-288.5C800.91,-284.23 828.46,-279.49 852.64,-275.33"/>
<polygon fill="#63b8ff" stroke="#63b8ff" points="853.51,-278.73 862.78,-273.58 852.33,-271.83 853.51,-278.73"/>
</g>
<!-- Node9 -->
<g id="node9" class="node">
<title>Node9</title>
<g id="a_node9"><a xlink:href="structImVector.html#a2d80e87e81b1b01143c8d8be93e6fde1" target="_top" xlink:title=" ">
<polygon fill="white" stroke="#666666" points="746.5,-241.58 657.5,-241.58 657.5,-222.58 746.5,-222.58 746.5,-241.58"/>
<text text-anchor="middle" x="702" y="-229.58" font-family="Helvetica,sans-Serif" font-size="10.00">ImVector::back</text>
</a>
</g>
</g>
<!-- Node8&#45;&gt;Node9 -->
<g id="edge8" class="edge">
<title>Node8&#45;&gt;Node9</title>
<path fill="none" stroke="#63b8ff" d="M567.28,-253.85C594.02,-249.5 623.07,-244.77 647.24,-240.83"/>
<polygon fill="#63b8ff" stroke="#63b8ff" points="647.97,-244.26 657.27,-239.2 646.84,-237.35 647.97,-244.26"/>
</g>
<!-- Node10&#45;&gt;Node9 -->
<g id="edge10" class="edge">
<title>Node10&#45;&gt;Node9</title>
<path fill="none" stroke="#63b8ff" d="M562.71,-223.72C590.59,-225.4 621.48,-227.27 646.98,-228.81"/>
<polygon fill="#63b8ff" stroke="#63b8ff" points="647,-232.32 657.19,-229.43 647.42,-225.33 647,-232.32"/>
</g>
<!-- Node12 -->
<g id="node12" class="node">
<title>Node12</title>
<g id="a_node12"><a xlink:href="namespaceImGui.html#a27b8ace13a8c421ee8405f0cbebe4ead" target="_top" xlink:title=" ">
<polygon fill="white" stroke="#666666" points="756.5,-194.58 647.5,-194.58 647.5,-175.58 756.5,-175.58 756.5,-194.58"/>
<text text-anchor="middle" x="702" y="-182.58" font-family="Helvetica,sans-Serif" font-size="10.00">ImGui::SetActiveID</text>
</a>
</g>
</g>
<!-- Node11&#45;&gt;Node12 -->
<g id="edge12" class="edge">
<title>Node11&#45;&gt;Node12</title>
<path fill="none" stroke="#63b8ff" d="M544.75,-178.54C573.44,-179.74 608.02,-181.19 637.34,-182.42"/>
<polygon fill="#63b8ff" stroke="#63b8ff" points="637.34,-185.92 647.47,-182.84 637.63,-178.92 637.34,-185.92"/>
</g>
<!-- Node13 -->
<g id="node13" class="node">
<title>Node13</title>
<g id="a_node13"><a xlink:href="namespaceImGui.html#aad9419cf6e296c668807e3af4bfd62bb" target="_top" xlink:title=" ">
<polygon fill="white" stroke="#666666" points="1007,-215.58 831,-215.58 831,-196.58 1007,-196.58 1007,-215.58"/>
<text text-anchor="middle" x="919" y="-203.58" font-family="Helvetica,sans-Serif" font-size="10.00">ImGui::InputTextDeactivateHook</text>
</a>
</g>
</g>
<!-- Node12&#45;&gt;Node13 -->
<g id="edge13" class="edge">
<title>Node12&#45;&gt;Node13</title>
<path fill="none" stroke="#63b8ff" d="M756.7,-190.33C776.11,-192.22 798.68,-194.43 820.68,-196.57"/>
<polygon fill="#63b8ff" stroke="#63b8ff" points="820.44,-200.07 830.73,-197.56 821.12,-193.1 820.44,-200.07"/>
</g>
<!-- Node14 -->
<g id="node14" class="node">
<title>Node14</title>
<g id="a_node14"><a xlink:href="structImVector.html#ac371dd62e56ae486b1a5038cf07eee56" target="_top" xlink:title=" ">
<polygon fill="white" stroke="#666666" points="1149.5,-258.58 1054.5,-258.58 1054.5,-239.58 1149.5,-239.58 1149.5,-258.58"/>
<text text-anchor="middle" x="1102" y="-246.58" font-family="Helvetica,sans-Serif" font-size="10.00">ImVector::resize</text>
</a>
</g>
</g>
<!-- Node13&#45;&gt;Node14 -->
<g id="edge14" class="edge">
<title>Node13&#45;&gt;Node14</title>
<path fill="none" stroke="#63b8ff" d="M960.17,-215.62C987,-222 1022.49,-230.43 1051.12,-237.23"/>
<polygon fill="#63b8ff" stroke="#63b8ff" points="1050.4,-240.66 1060.94,-239.56 1052.02,-233.85 1050.4,-240.66"/>
</g>
<!-- Node15 -->
<g id="node15" class="node">
<title>Node15</title>
<g id="a_node15"><a xlink:href="structImVector.html#a3a097635d464b1b70dc7d59996a88b28" target="_top" xlink:title=" ">
<polygon fill="white" stroke="#666666" points="1339,-258.58 1197,-258.58 1197,-239.58 1339,-239.58 1339,-258.58"/>
<text text-anchor="middle" x="1268" y="-246.58" font-family="Helvetica,sans-Serif" font-size="10.00">ImVector::_grow_capacity</text>
</a>
</g>
</g>
<!-- Node14&#45;&gt;Node15 -->
<g id="edge15" class="edge">
<title>Node14&#45;&gt;Node15</title>
<path fill="none" stroke="#63b8ff" d="M1149.56,-249.08C1161.14,-249.08 1173.89,-249.08 1186.59,-249.08"/>
<polygon fill="#63b8ff" stroke="#63b8ff" points="1186.74,-252.58 1196.74,-249.08 1186.74,-245.58 1186.74,-252.58"/>
</g>
<!-- Node16 -->
<g id="node16" class="node">
<title>Node16</title>
<g id="a_node16"><a xlink:href="structImVector.html#a0f14f5736c3372157856eebb67123b75" target="_top" xlink:title=" ">
<polygon fill="white" stroke="#666666" points="1319.5,-295.58 1216.5,-295.58 1216.5,-276.58 1319.5,-276.58 1319.5,-295.58"/>
<text text-anchor="middle" x="1268" y="-283.58" font-family="Helvetica,sans-Serif" font-size="10.00">ImVector::reserve</text>
</a>
</g>
</g>
<!-- Node14&#45;&gt;Node16 -->
<g id="edge16" class="edge">
<title>Node14&#45;&gt;Node16</title>
<path fill="none" stroke="#63b8ff" d="M1145.23,-258.61C1166.39,-263.38 1192.19,-269.2 1214.6,-274.26"/>
<polygon fill="#63b8ff" stroke="#63b8ff" points="1214.1,-277.73 1224.62,-276.52 1215.64,-270.91 1214.1,-277.73"/>
</g>
<!-- Node18 -->
<g id="node18" class="node">
<title>Node18</title>
<g id="a_node18"><a xlink:href="namespaceImGui.html#a0be705dc533a62387dc39ec5c276d2a0" target="_top" xlink:title=" ">
<polygon fill="white" stroke="#666666" points="775,-44.58 629,-44.58 629,-25.58 775,-25.58 775,-44.58"/>
<text text-anchor="middle" x="702" y="-32.58" font-family="Helvetica,sans-Serif" font-size="10.00">ImGui::ClosePopupToLevel</text>
</a>
</g>
</g>
<!-- Node17&#45;&gt;Node18 -->
<g id="edge18" class="edge">
<title>Node17&#45;&gt;Node18</title>
<path fill="none" stroke="#63b8ff" d="M554.32,-55.55C576.08,-52.51 600.31,-49.13 622.71,-46.01"/>
<polygon fill="#63b8ff" stroke="#63b8ff" points="623.43,-49.44 632.85,-44.59 622.47,-42.51 623.43,-49.44"/>
</g>
<!-- Node19 -->
<g id="node19" class="node">
<title>Node19</title>
<g id="a_node19"><a xlink:href="namespaceImGui.html#a48de6990762aa67d7da5c3264b92d44f" target="_top" xlink:title=" ">
<polygon fill="white" stroke="#666666" points="781,-101.08 623,-101.08 623,-71.08 781,-71.08 781,-101.08"/>
<text text-anchor="start" x="631" y="-89.08" font-family="Helvetica,sans-Serif" font-size="10.00">ImGui::IsWindowWithinBegin</text>
<text text-anchor="middle" x="702" y="-78.08" font-family="Helvetica,sans-Serif" font-size="10.00">StackOf</text>
</a>
</g>
</g>
<!-- Node17&#45;&gt;Node19 -->
<g id="edge22" class="edge">
<title>Node17&#45;&gt;Node19</title>
<path fill="none" stroke="#63b8ff" d="M573.14,-73.59C586.09,-74.86 599.45,-76.16 612.43,-77.43"/>
<polygon fill="#63b8ff" stroke="#63b8ff" points="612.45,-80.95 622.74,-78.44 613.13,-73.98 612.45,-80.95"/>
</g>
<!-- Node18&#45;&gt;Node1 -->
<g id="edge19" class="edge">
<title>Node18&#45;&gt;Node1</title>
<path fill="none" stroke="#63b8ff" d="M668.38,-25.57C611.97,-10.67 493.05,13.93 397,-12.08 277.7,-44.39 157.28,-134.13 106.08,-175.58"/>
<polygon fill="#63b8ff" stroke="#63b8ff" points="103.71,-173 98.18,-182.04 108.14,-178.42 103.71,-173"/>
</g>
<!-- Node18&#45;&gt;Node3 -->
<g id="edge20" class="edge">
<title>Node18&#45;&gt;Node3</title>
<path fill="none" stroke="#63b8ff" d="M656.59,-25.58C594.68,-14.69 480.62,-3.41 397,-46.08 340.6,-74.86 302.84,-144.3 287.18,-178.04"/>
<polygon fill="#63b8ff" stroke="#63b8ff" points="283.93,-176.73 283.03,-187.28 290.32,-179.59 283.93,-176.73"/>
</g>
<!-- Node18&#45;&gt;Node14 -->
<g id="edge21" class="edge">
<title>Node18&#45;&gt;Node14</title>
<path fill="none" stroke="#63b8ff" d="M743.61,-44.67C759.91,-49.12 778.66,-55 795,-62.08 909.54,-111.74 1032.39,-198.34 1080.25,-233.54"/>
<polygon fill="#63b8ff" stroke="#63b8ff" points="1078.18,-236.36 1088.3,-239.49 1082.34,-230.73 1078.18,-236.36"/>
</g>
<!-- Node20&#45;&gt;Node19 -->
<g id="edge24" class="edge">
<title>Node20&#45;&gt;Node19</title>
<path fill="none" stroke="#63b8ff" d="M557.29,-96.78C575.03,-95.46 594.26,-94.02 612.71,-92.65"/>
<polygon fill="#63b8ff" stroke="#63b8ff" points="613.15,-96.13 622.86,-91.9 612.63,-89.15 613.15,-96.13"/>
</g>
<!-- Node23 -->
<g id="node23" class="node">
<title>Node23</title>
<g id="a_node23"><a xlink:href="namespaceImGui.html#a5e1bfc506e7bd0f71ec85d8c69672d3d" target="_top" xlink:title=" ">
<polygon fill="white" stroke="#666666" points="788,-454.08 616,-454.08 616,-424.08 788,-424.08 788,-454.08"/>
<text text-anchor="start" x="624" y="-442.08" font-family="Helvetica,sans-Serif" font-size="10.00">ImGui::TabBarFindMostRecently</text>
<text text-anchor="middle" x="702" y="-431.08" font-family="Helvetica,sans-Serif" font-size="10.00">SelectedTabForActiveWindow</text>
</a>
</g>
</g>
<!-- Node22&#45;&gt;Node23 -->
<g id="edge27" class="edge">
<title>Node22&#45;&gt;Node23</title>
<path fill="none" stroke="#63b8ff" d="M562.1,-439.08C576.24,-439.08 591.16,-439.08 605.78,-439.08"/>
<polygon fill="#63b8ff" stroke="#63b8ff" points="605.84,-442.58 615.84,-439.08 605.84,-435.58 605.84,-442.58"/>
</g>
<!-- Node24&#45;&gt;Node14 -->
<g id="edge32" class="edge">
<title>Node24&#45;&gt;Node14</title>
<path fill="none" stroke="#63b8ff" d="M988.1,-328.53C994.78,-326.05 1001.22,-322.95 1007,-319.08 1030.35,-303.44 1020.34,-283.71 1043,-267.08 1045.05,-265.58 1047.22,-264.2 1049.48,-262.94"/>
<polygon fill="#63b8ff" stroke="#63b8ff" points="1051.02,-266.08 1058.53,-258.6 1048,-259.77 1051.02,-266.08"/>
</g>
<!-- Node25 -->
<g id="node25" class="node">
<title>Node25</title>
<g id="a_node25"><a xlink:href="structImVector.html#aab5df48e0711a48bd12f3206e08c4108" target="_top" xlink:title=" ">
<polygon fill="white" stroke="#666666" points="1161,-295.58 1043,-295.58 1043,-276.58 1161,-276.58 1161,-295.58"/>
<text text-anchor="middle" x="1102" y="-283.58" font-family="Helvetica,sans-Serif" font-size="10.00">ImVector::push_back</text>
</a>
</g>
</g>
<!-- Node24&#45;&gt;Node25 -->
<g id="edge29" class="edge">
<title>Node24&#45;&gt;Node25</title>
<path fill="none" stroke="#63b8ff" d="M968.58,-328.57C981.17,-325.81 994.65,-322.58 1007,-319.08 1027.03,-313.4 1049.01,-305.77 1066.67,-299.27"/>
<polygon fill="#63b8ff" stroke="#63b8ff" points="1068.38,-302.37 1076.53,-295.6 1065.93,-295.81 1068.38,-302.37"/>
</g>
<!-- Node25&#45;&gt;Node15 -->
<g id="edge30" class="edge">
<title>Node25&#45;&gt;Node15</title>
<path fill="none" stroke="#63b8ff" d="M1145.23,-276.55C1166.39,-271.78 1192.19,-265.96 1214.6,-260.9"/>
<polygon fill="#63b8ff" stroke="#63b8ff" points="1215.64,-264.26 1224.62,-258.64 1214.1,-257.43 1215.64,-264.26"/>
</g>
<!-- Node25&#45;&gt;Node16 -->
<g id="edge31" class="edge">
<title>Node25&#45;&gt;Node16</title>
<path fill="none" stroke="#63b8ff" d="M1161.28,-286.08C1175.73,-286.08 1191.25,-286.08 1205.83,-286.08"/>
<polygon fill="#63b8ff" stroke="#63b8ff" points="1206.25,-289.58 1216.25,-286.08 1206.25,-282.58 1206.25,-289.58"/>
</g>
<!-- Node27 -->
<g id="node27" class="node">
<title>Node27</title>
<g id="a_node27"><a xlink:href="namespaceImGui.html#a2cd868535661cdb5671214662f3c9388" target="_top" xlink:title=" ">
<polygon fill="white" stroke="#666666" points="795,-367.58 609,-367.58 609,-348.58 795,-348.58 795,-367.58"/>
<text text-anchor="middle" x="702" y="-355.58" font-family="Helvetica,sans-Serif" font-size="10.00">ImGui::NavUpdateAnyRequestFlag</text>
</a>
</g>
</g>
<!-- Node26&#45;&gt;Node27 -->
<g id="edge34" class="edge">
<title>Node26&#45;&gt;Node27</title>
<path fill="none" stroke="#63b8ff" d="M548.19,-358.08C564.05,-358.08 581.52,-358.08 598.81,-358.08"/>
<polygon fill="#63b8ff" stroke="#63b8ff" points="598.96,-361.58 608.96,-358.08 598.96,-354.58 598.96,-361.58"/>
</g>
</g>
</svg>
