<?xml version="1.0" encoding="UTF-8" standalone="no"?>
<!DOCTYPE svg PUBLIC "-//W3C//DTD SVG 1.1//EN"
 "http://www.w3.org/Graphics/SVG/1.1/DTD/svg11.dtd">
<!-- Generated by graphviz version 2.43.0 (0)
 -->
<!-- Title: ImGui::DockNodeUpdateFlagsAndCollapse Pages: 1 -->
<svg width="1866pt" height="954pt"
 viewBox="0.00 0.00 1866.00 954.23" xmlns="http://www.w3.org/2000/svg" xmlns:xlink="http://www.w3.org/1999/xlink">
<g id="graph0" class="graph" transform="scale(1 1) rotate(0) translate(4 950.23)">
<title>ImGui::DockNodeUpdateFlagsAndCollapse</title>
<!-- Node1 -->
<g id="node1" class="node">
<title>Node1</title>
<g id="a_node1"><a xlink:title=" ">
<polygon fill="#999999" stroke="#666666" points="164,-137.5 0,-137.5 0,-107.5 164,-107.5 164,-137.5"/>
<text text-anchor="start" x="8" y="-125.5" font-family="Helvetica,sans-Serif" font-size="10.00">ImGui::DockNodeUpdateFlags</text>
<text text-anchor="middle" x="82" y="-114.5" font-family="Helvetica,sans-Serif" font-size="10.00">AndCollapse</text>
</a>
</g>
</g>
<!-- Node1&#45;&gt;Node1 -->
<g id="edge64" class="edge">
<title>Node1&#45;&gt;Node1</title>
<path fill="none" stroke="#63b8ff" d="M45.44,-137.78C37.31,-146.91 49.5,-155.5 82,-155.5 101.3,-155.5 113.43,-152.47 118.41,-148.1"/>
<polygon fill="#63b8ff" stroke="#63b8ff" points="121.91,-147.83 118.56,-137.78 114.91,-147.72 121.91,-147.83"/>
</g>
<!-- Node2 -->
<g id="node2" class="node">
<title>Node2</title>
<g id="a_node2"><a xlink:href="namespaceImGui.html#ad0904dbbb719da0d03296bb8c944127d" target="_top" xlink:title=" ">
<polygon fill="white" stroke="#666666" points="604,-930 418,-930 418,-911 604,-911 604,-930"/>
<text text-anchor="middle" x="511" y="-918" font-family="Helvetica,sans-Serif" font-size="10.00">ImGui::DockNodeHideHostWindow</text>
</a>
</g>
</g>
<!-- Node1&#45;&gt;Node2 -->
<g id="edge1" class="edge">
<title>Node1&#45;&gt;Node2</title>
<path fill="none" stroke="#63b8ff" d="M84.72,-137.76C95.51,-226.23 162.06,-677.06 418,-896.5 422.85,-900.66 428.34,-904.11 434.16,-906.97"/>
<polygon fill="#63b8ff" stroke="#63b8ff" points="432.97,-910.27 443.54,-911 435.73,-903.84 432.97,-910.27"/>
</g>
<!-- Node7 -->
<g id="node7" class="node">
<title>Node7</title>
<g id="a_node7"><a xlink:href="namespaceImGui.html#a7707fcf2071bef8bb8681ed58b87c56e" target="_top" xlink:title=" ">
<polygon fill="white" stroke="#666666" points="382,-360 200,-360 200,-341 382,-341 382,-360"/>
<text text-anchor="middle" x="291" y="-348" font-family="Helvetica,sans-Serif" font-size="10.00">ImGui::DockNodeRemoveWindow</text>
</a>
</g>
</g>
<!-- Node1&#45;&gt;Node7 -->
<g id="edge6" class="edge">
<title>Node1&#45;&gt;Node7</title>
<path fill="none" stroke="#63b8ff" d="M96.9,-137.81C134.03,-178.71 235.34,-290.29 274.37,-333.29"/>
<polygon fill="#63b8ff" stroke="#63b8ff" points="271.8,-335.66 281.11,-340.71 276.98,-330.95 271.8,-335.66"/>
</g>
<!-- Node23 -->
<g id="node23" class="node">
<title>Node23</title>
<g id="a_node23"><a xlink:href="namespaceImGui.html#a42a888a71f6295199994f5c3aa65f9d6" target="_top" xlink:title=" ">
<polygon fill="white" stroke="#666666" points="1473,-208 1282,-208 1282,-189 1473,-189 1473,-208"/>
<text text-anchor="middle" x="1377.5" y="-196" font-family="Helvetica,sans-Serif" font-size="10.00">ImGui::DockNodeUpdateVisibleFlag</text>
</a>
</g>
</g>
<!-- Node1&#45;&gt;Node23 -->
<g id="edge65" class="edge">
<title>Node1&#45;&gt;Node23</title>
<path fill="none" stroke="#63b8ff" d="M164.06,-122.5C249.95,-122.5 389.54,-122.5 510,-122.5 510,-122.5 510,-122.5 733,-122.5 950.36,-122.5 1206.19,-165.79 1318.59,-187.03"/>
<polygon fill="#63b8ff" stroke="#63b8ff" points="1318.22,-190.52 1328.7,-188.95 1319.53,-183.64 1318.22,-190.52"/>
</g>
<!-- Node24 -->
<g id="node24" class="node">
<title>Node24</title>
<g id="a_node24"><a xlink:href="structImGuiDockNode.html#a65a6bb0809083aef0edbf937c90b83f6" target="_top" xlink:title=" ">
<polygon fill="white" stroke="#666666" points="1680,-132 1509,-132 1509,-113 1680,-113 1680,-132"/>
<text text-anchor="middle" x="1594.5" y="-120" font-family="Helvetica,sans-Serif" font-size="10.00">ImGuiDockNode::IsCentralNode</text>
</a>
</g>
</g>
<!-- Node1&#45;&gt;Node24 -->
<g id="edge66" class="edge">
<title>Node1&#45;&gt;Node24</title>
<path fill="none" stroke="#63b8ff" d="M164.27,-110.94C250.04,-99.76 389.25,-84.5 510,-84.5 510,-84.5 510,-84.5 1159,-84.5 1284.46,-84.5 1429.53,-100.42 1516.27,-111.65"/>
<polygon fill="#63b8ff" stroke="#63b8ff" points="1515.93,-115.13 1526.3,-112.96 1516.83,-108.19 1515.93,-115.13"/>
</g>
<!-- Node40 -->
<g id="node40" class="node">
<title>Node40</title>
<g id="a_node40"><a xlink:href="structImGuiDockNode.html#a87a708d19b6f2e22c15d6d378c8b71e2" target="_top" xlink:title=" ">
<polygon fill="white" stroke="#666666" points="1034,-408.5 860,-408.5 860,-378.5 1034,-378.5 1034,-408.5"/>
<text text-anchor="start" x="868" y="-396.5" font-family="Helvetica,sans-Serif" font-size="10.00">ImGuiDockNode::UpdateMerged</text>
<text text-anchor="middle" x="947" y="-385.5" font-family="Helvetica,sans-Serif" font-size="10.00">Flags</text>
</a>
</g>
</g>
<!-- Node1&#45;&gt;Node40 -->
<g id="edge69" class="edge">
<title>Node1&#45;&gt;Node40</title>
<path fill="none" stroke="#63b8ff" d="M130.94,-137.55C278.89,-184.01 728.02,-325.05 888.35,-375.4"/>
<polygon fill="#63b8ff" stroke="#63b8ff" points="887.45,-378.78 898.04,-378.44 889.55,-372.1 887.45,-378.78"/>
</g>
<!-- Node45 -->
<g id="node45" class="node">
<title>Node45</title>
<g id="a_node45"><a xlink:href="structImGuiDockNode.html#aa558bdb7d207e4043c6027cf670109d8" target="_top" xlink:title=" ">
<polygon fill="white" stroke="#666666" points="380,-56 202,-56 202,-37 380,-37 380,-56"/>
<text text-anchor="middle" x="291" y="-44" font-family="Helvetica,sans-Serif" font-size="10.00">ImGuiDockNode::IsHiddenTabBar</text>
</a>
</g>
</g>
<!-- Node1&#45;&gt;Node45 -->
<g id="edge67" class="edge">
<title>Node1&#45;&gt;Node45</title>
<path fill="none" stroke="#63b8ff" d="M113.26,-107.47C136.57,-96.28 169.82,-81.16 200,-70.5 212.39,-66.12 225.99,-62.11 238.77,-58.66"/>
<polygon fill="#63b8ff" stroke="#63b8ff" points="240.03,-61.95 248.81,-56.03 238.25,-55.18 240.03,-61.95"/>
</g>
<!-- Node46 -->
<g id="node46" class="node">
<title>Node46</title>
<g id="a_node46"><a xlink:href="structImGuiDockNode.html#affa7ac110122432f2b73d82b64e932b3" target="_top" xlink:title=" ">
<polygon fill="white" stroke="#666666" points="376,-19 206,-19 206,0 376,0 376,-19"/>
<text text-anchor="middle" x="291" y="-7" font-family="Helvetica,sans-Serif" font-size="10.00">ImGuiDockNode::SetLocalFlags</text>
</a>
</g>
</g>
<!-- Node1&#45;&gt;Node46 -->
<g id="edge68" class="edge">
<title>Node1&#45;&gt;Node46</title>
<path fill="none" stroke="#63b8ff" d="M96.88,-107.3C117.3,-85.94 157.62,-47.44 200,-27.5 204.28,-25.49 208.78,-23.7 213.39,-22.11"/>
<polygon fill="#63b8ff" stroke="#63b8ff" points="214.46,-25.44 222.96,-19.12 212.37,-18.76 214.46,-25.44"/>
</g>
<!-- Node3 -->
<g id="node3" class="node">
<title>Node3</title>
<g id="a_node3"><a xlink:href="namespaceImGui.html#ad0e39bff5ef1bbdd6ba22c133f211da7" target="_top" xlink:title=" ">
<polygon fill="white" stroke="#666666" points="1246,-780 1070,-780 1070,-761 1246,-761 1246,-780"/>
<text text-anchor="middle" x="1158" y="-768" font-family="Helvetica,sans-Serif" font-size="10.00">ImGui::DockNodeRemoveTabBar</text>
</a>
</g>
</g>
<!-- Node2&#45;&gt;Node3 -->
<g id="edge2" class="edge">
<title>Node2&#45;&gt;Node3</title>
<path fill="none" stroke="#63b8ff" d="M563.39,-930.06C660.35,-945.59 874.87,-967.89 1034,-896.5 1085.62,-873.34 1126.89,-817.81 1145.8,-788.82"/>
<polygon fill="#63b8ff" stroke="#63b8ff" points="1148.93,-790.41 1151.33,-780.09 1143.02,-786.66 1148.93,-790.41"/>
</g>
<!-- Node4 -->
<g id="node4" class="node">
<title>Node4</title>
<g id="a_node4"><a xlink:href="imgui_8h.html#a3c856832c3fe1da8767a9353da3707e1" target="_top" xlink:title=" ">
<polygon fill="white" stroke="#666666" points="1413,-742 1342,-742 1342,-723 1413,-723 1413,-742"/>
<text text-anchor="middle" x="1377.5" y="-730" font-family="Helvetica,sans-Serif" font-size="10.00">IM_DELETE</text>
</a>
</g>
</g>
<!-- Node3&#45;&gt;Node4 -->
<g id="edge3" class="edge">
<title>Node3&#45;&gt;Node4</title>
<path fill="none" stroke="#63b8ff" d="M1213.6,-760.96C1250.1,-754.58 1297.51,-746.3 1331.76,-740.32"/>
<polygon fill="#63b8ff" stroke="#63b8ff" points="1332.7,-743.71 1341.95,-738.54 1331.49,-736.81 1332.7,-743.71"/>
</g>
<!-- Node5 -->
<g id="node5" class="node">
<title>Node5</title>
<g id="a_node5"><a xlink:href="namespaceImGui.html#a269ec695c6e722ec3da85dae37f0675d" target="_top" xlink:title=" ">
<polygon fill="white" stroke="#666666" points="1643.5,-742 1545.5,-742 1545.5,-723 1643.5,-723 1643.5,-742"/>
<text text-anchor="middle" x="1594.5" y="-730" font-family="Helvetica,sans-Serif" font-size="10.00">ImGui::MemFree</text>
</a>
</g>
</g>
<!-- Node4&#45;&gt;Node5 -->
<g id="edge4" class="edge">
<title>Node4&#45;&gt;Node5</title>
<path fill="none" stroke="#63b8ff" d="M1413.04,-732.5C1445.95,-732.5 1496.13,-732.5 1535.23,-732.5"/>
<polygon fill="#63b8ff" stroke="#63b8ff" points="1535.42,-736 1545.42,-732.5 1535.42,-729 1535.42,-736"/>
</g>
<!-- Node6 -->
<g id="node6" class="node">
<title>Node6</title>
<g id="a_node6"><a xlink:href="namespaceImGui.html#af81dc8d88fa2e5d0996163993f90ccf8" target="_top" xlink:title=" ">
<polygon fill="white" stroke="#666666" points="1853.5,-742 1720.5,-742 1720.5,-723 1853.5,-723 1853.5,-742"/>
<text text-anchor="middle" x="1787" y="-730" font-family="Helvetica,sans-Serif" font-size="10.00">ImGui::DebugAllocHook</text>
</a>
</g>
</g>
<!-- Node5&#45;&gt;Node6 -->
<g id="edge5" class="edge">
<title>Node5&#45;&gt;Node6</title>
<path fill="none" stroke="#63b8ff" d="M1643.57,-732.5C1663.74,-732.5 1687.68,-732.5 1710.13,-732.5"/>
<polygon fill="#63b8ff" stroke="#63b8ff" points="1710.32,-736 1720.32,-732.5 1710.32,-729 1710.32,-736"/>
</g>
<!-- Node7&#45;&gt;Node3 -->
<g id="edge52" class="edge">
<title>Node7&#45;&gt;Node3</title>
<path fill="none" stroke="#63b8ff" d="M296.84,-360.12C312.04,-390.81 359.22,-489.48 382,-576.5 397.27,-634.85 374.26,-803.98 418,-845.5 483.5,-907.67 734.53,-875.76 824,-863.5 935.59,-848.21 1062.5,-805.37 1122.32,-783.58"/>
<polygon fill="#63b8ff" stroke="#63b8ff" points="1123.83,-786.75 1132.01,-780.02 1121.42,-780.18 1123.83,-786.75"/>
</g>
<!-- Node8 -->
<g id="node8" class="node">
<title>Node8</title>
<g id="a_node8"><a xlink:href="namespaceImGui.html#a69ff368895db4bdc84de9ff21b52fddc" target="_top" xlink:title=" ">
<polygon fill="white" stroke="#666666" points="601.5,-665 420.5,-665 420.5,-646 601.5,-646 601.5,-665"/>
<text text-anchor="middle" x="511" y="-653" font-family="Helvetica,sans-Serif" font-size="10.00">ImGui::DockContextRemoveNode</text>
</a>
</g>
</g>
<!-- Node7&#45;&gt;Node8 -->
<g id="edge7" class="edge">
<title>Node7&#45;&gt;Node8</title>
<path fill="none" stroke="#63b8ff" d="M299.01,-360.3C330.14,-403.86 456.22,-580.26 497.12,-637.48"/>
<polygon fill="#63b8ff" stroke="#63b8ff" points="494.47,-639.79 503.13,-645.89 500.16,-635.72 494.47,-639.79"/>
</g>
<!-- Node7&#45;&gt;Node23 -->
<g id="edge53" class="edge">
<title>Node7&#45;&gt;Node23</title>
<path fill="none" stroke="#63b8ff" d="M301.34,-340.9C320.88,-321.55 368.37,-278.19 418,-260.5 572.72,-205.35 1056.91,-198.36 1271.88,-198.07"/>
<polygon fill="#63b8ff" stroke="#63b8ff" points="1271.91,-201.57 1281.91,-198.06 1271.91,-194.57 1271.91,-201.57"/>
</g>
<!-- Node7&#45;&gt;Node24 -->
<g id="edge58" class="edge">
<title>Node7&#45;&gt;Node24</title>
<path fill="none" stroke="#63b8ff" d="M297.91,-340.96C313.77,-316.32 360.05,-250.61 418,-223.5 609.14,-134.09 1254.07,-123.18 1498.51,-122.32"/>
<polygon fill="#63b8ff" stroke="#63b8ff" points="1498.8,-125.82 1508.79,-122.29 1498.78,-118.82 1498.8,-125.82"/>
</g>
<!-- Node25 -->
<g id="node25" class="node">
<title>Node25</title>
<g id="a_node25"><a xlink:href="structImGuiDockNode.html#a2f06798d0770e6894d27ec776b5d7538" target="_top" xlink:title=" ">
<polygon fill="white" stroke="#666666" points="1676.5,-227 1512.5,-227 1512.5,-208 1676.5,-208 1676.5,-227"/>
<text text-anchor="middle" x="1594.5" y="-215" font-family="Helvetica,sans-Serif" font-size="10.00">ImGuiDockNode::IsDockSpace</text>
</a>
</g>
</g>
<!-- Node7&#45;&gt;Node25 -->
<g id="edge59" class="edge">
<title>Node7&#45;&gt;Node25</title>
<path fill="none" stroke="#63b8ff" d="M345.24,-340.99C367.66,-337.16 394.06,-332.85 418,-329.5 706.82,-289.07 779.61,-282.51 1070,-255.5 1221.25,-241.43 1397.5,-229.57 1502.05,-223.01"/>
<polygon fill="#63b8ff" stroke="#63b8ff" points="1502.49,-226.49 1512.26,-222.37 1502.06,-219.5 1502.49,-226.49"/>
</g>
<!-- Node32 -->
<g id="node32" class="node">
<title>Node32</title>
<g id="a_node32"><a xlink:href="namespaceImGui.html#a85d7262320ed7ce8e40863b99f8db4a3" target="_top" xlink:title=" ">
<polygon fill="white" stroke="#666666" points="1456,-332.5 1299,-332.5 1299,-302.5 1456,-302.5 1456,-332.5"/>
<text text-anchor="start" x="1307" y="-320.5" font-family="Helvetica,sans-Serif" font-size="10.00">ImGui::UpdateWindowParent</text>
<text text-anchor="middle" x="1377.5" y="-309.5" font-family="Helvetica,sans-Serif" font-size="10.00">AndRootLinks</text>
</a>
</g>
</g>
<!-- Node7&#45;&gt;Node32 -->
<g id="edge63" class="edge">
<title>Node7&#45;&gt;Node32</title>
<path fill="none" stroke="#63b8ff" d="M382.12,-342.74C394.18,-341.88 406.39,-341.1 418,-340.5 738.52,-323.95 1119.95,-319.28 1288.72,-317.99"/>
<polygon fill="#63b8ff" stroke="#63b8ff" points="1288.82,-321.49 1298.79,-317.91 1288.77,-314.49 1288.82,-321.49"/>
</g>
<!-- Node41 -->
<g id="node41" class="node">
<title>Node41</title>
<g id="a_node41"><a xlink:href="structImVector.html#a2f88ac70791f2da6d4168d7b29f38f1e" target="_top" xlink:title=" ">
<polygon fill="white" stroke="#666666" points="778.5,-817 685.5,-817 685.5,-798 778.5,-798 778.5,-817"/>
<text text-anchor="middle" x="732" y="-805" font-family="Helvetica,sans-Serif" font-size="10.00">ImVector::erase</text>
</a>
</g>
</g>
<!-- Node7&#45;&gt;Node41 -->
<g id="edge54" class="edge">
<title>Node7&#45;&gt;Node41</title>
<path fill="none" stroke="#63b8ff" d="M295.13,-360.23C306.9,-396.87 349.45,-530.01 382,-640.5 398.82,-697.6 372.85,-730.71 418,-769.5 455.45,-801.67 595.55,-807.37 675.03,-807.93"/>
<polygon fill="#63b8ff" stroke="#63b8ff" points="675.34,-811.43 685.36,-807.98 675.37,-804.43 675.34,-811.43"/>
</g>
<!-- Node42 -->
<g id="node42" class="node">
<title>Node42</title>
<g id="a_node42"><a xlink:href="structImVector.html#a4e9214ecaa413240f76223500dbed912" target="_top" xlink:title=" ">
<polygon fill="white" stroke="#666666" points="569,-836 453,-836 453,-817 569,-817 569,-836"/>
<text text-anchor="middle" x="511" y="-824" font-family="Helvetica,sans-Serif" font-size="10.00">ImVector::find_erase</text>
</a>
</g>
</g>
<!-- Node7&#45;&gt;Node42 -->
<g id="edge55" class="edge">
<title>Node7&#45;&gt;Node42</title>
<path fill="none" stroke="#63b8ff" d="M295.32,-360.18C307.77,-396.63 352.41,-529.18 382,-640.5 400.95,-711.78 366.81,-749.4 418,-802.5 424.96,-809.72 433.8,-814.86 443.23,-818.51"/>
<polygon fill="#63b8ff" stroke="#63b8ff" points="442.22,-821.86 452.81,-821.68 444.42,-815.22 442.22,-821.86"/>
</g>
<!-- Node44 -->
<g id="node44" class="node">
<title>Node44</title>
<g id="a_node44"><a xlink:href="namespaceImGui.html#a3340d8c07dca35527b618288f091a0f7" target="_top" xlink:title=" ">
<polygon fill="white" stroke="#666666" points="582,-760 440,-760 440,-741 582,-741 582,-760"/>
<text text-anchor="middle" x="511" y="-748" font-family="Helvetica,sans-Serif" font-size="10.00">ImGui::TabBarRemoveTab</text>
</a>
</g>
</g>
<!-- Node7&#45;&gt;Node44 -->
<g id="edge60" class="edge">
<title>Node7&#45;&gt;Node44</title>
<path fill="none" stroke="#63b8ff" d="M293.87,-360.1C302.24,-401.26 339.36,-565.65 418,-674.5 436.28,-699.81 464.92,-721.66 485.39,-735.35"/>
<polygon fill="#63b8ff" stroke="#63b8ff" points="483.59,-738.35 493.88,-740.88 487.41,-732.49 483.59,-738.35"/>
</g>
<!-- Node8&#45;&gt;Node4 -->
<g id="edge50" class="edge">
<title>Node8&#45;&gt;Node4</title>
<path fill="none" stroke="#63b8ff" d="M537.58,-665.07C563.13,-674.2 603.72,-687.57 640,-694.5 898.24,-743.81 1216.05,-738.47 1331.73,-734.42"/>
<polygon fill="#63b8ff" stroke="#63b8ff" points="1332.1,-737.91 1341.96,-734.04 1331.84,-730.91 1332.1,-737.91"/>
</g>
<!-- Node9 -->
<g id="node9" class="node">
<title>Node9</title>
<g id="a_node9"><a xlink:href="namespaceImGui.html#a52be73f2abd2d0320469ba138f7c6d59" target="_top" xlink:title=" ">
<polygon fill="white" stroke="#666666" points="824,-665 640,-665 640,-646 824,-646 824,-665"/>
<text text-anchor="middle" x="732" y="-653" font-family="Helvetica,sans-Serif" font-size="10.00">ImGui::DockContextFindNodeByID</text>
</a>
</g>
</g>
<!-- Node8&#45;&gt;Node9 -->
<g id="edge8" class="edge">
<title>Node8&#45;&gt;Node9</title>
<path fill="none" stroke="#63b8ff" d="M601.71,-655.5C610.9,-655.5 620.29,-655.5 629.6,-655.5"/>
<polygon fill="#63b8ff" stroke="#63b8ff" points="629.66,-659 639.66,-655.5 629.66,-652 629.66,-659"/>
</g>
<!-- Node12 -->
<g id="node12" class="node">
<title>Node12</title>
<g id="a_node12"><a xlink:href="namespaceImGui.html#a973b84ddd0e62151719cb562847b1291" target="_top" xlink:title=" ">
<polygon fill="white" stroke="#666666" points="808.5,-569 655.5,-569 655.5,-550 808.5,-550 808.5,-569"/>
<text text-anchor="middle" x="732" y="-557" font-family="Helvetica,sans-Serif" font-size="10.00">ImGui::DockNodeTreeMerge</text>
</a>
</g>
</g>
<!-- Node8&#45;&gt;Node12 -->
<g id="edge11" class="edge">
<title>Node8&#45;&gt;Node12</title>
<path fill="none" stroke="#63b8ff" d="M533.8,-645.94C572.91,-628.8 655.09,-592.78 700.03,-573.08"/>
<polygon fill="#63b8ff" stroke="#63b8ff" points="701.54,-576.24 709.29,-569.02 698.73,-569.83 701.54,-576.24"/>
</g>
<!-- Node38 -->
<g id="node38" class="node">
<title>Node38</title>
<g id="a_node38"><a xlink:href="structImGuiStorage.html#a55f840086b3ec9cf63c67f02d159204a" target="_top" xlink:title=" ">
<polygon fill="white" stroke="#666666" points="1017,-703 877,-703 877,-684 1017,-684 1017,-703"/>
<text text-anchor="middle" x="947" y="-691" font-family="Helvetica,sans-Serif" font-size="10.00">ImGuiStorage::SetVoidPtr</text>
</a>
</g>
</g>
<!-- Node8&#45;&gt;Node38 -->
<g id="edge51" class="edge">
<title>Node8&#45;&gt;Node38</title>
<path fill="none" stroke="#63b8ff" d="M568.9,-665.01C591.04,-668.43 616.65,-672.05 640,-674.5 716.85,-682.57 804.94,-687.6 866.81,-690.44"/>
<polygon fill="#63b8ff" stroke="#63b8ff" points="866.74,-693.94 876.89,-690.89 867.06,-686.95 866.74,-693.94"/>
</g>
<!-- Node10 -->
<g id="node10" class="node">
<title>Node10</title>
<g id="a_node10"><a xlink:href="structImGuiStorage.html#aaf87a98ede89da09113b0189f6d878ca" target="_top" xlink:title=" ">
<polygon fill="white" stroke="#666666" points="1017.5,-666 876.5,-666 876.5,-647 1017.5,-647 1017.5,-666"/>
<text text-anchor="middle" x="947" y="-654" font-family="Helvetica,sans-Serif" font-size="10.00">ImGuiStorage::GetVoidPtr</text>
</a>
</g>
</g>
<!-- Node9&#45;&gt;Node10 -->
<g id="edge9" class="edge">
<title>Node9&#45;&gt;Node10</title>
<path fill="none" stroke="#63b8ff" d="M824.26,-655.93C838.11,-655.99 852.32,-656.06 865.92,-656.12"/>
<polygon fill="#63b8ff" stroke="#63b8ff" points="866.16,-659.63 876.18,-656.17 866.2,-652.63 866.16,-659.63"/>
</g>
<!-- Node11 -->
<g id="node11" class="node">
<title>Node11</title>
<g id="a_node11"><a xlink:href="imgui_8cpp.html#a409bfd6de574854cd644636ea13b6a8a" target="_top" xlink:title=" ">
<polygon fill="white" stroke="#666666" points="1202.5,-666 1113.5,-666 1113.5,-647 1202.5,-647 1202.5,-666"/>
<text text-anchor="middle" x="1158" y="-654" font-family="Helvetica,sans-Serif" font-size="10.00">ImLowerBound</text>
</a>
</g>
</g>
<!-- Node10&#45;&gt;Node11 -->
<g id="edge10" class="edge">
<title>Node10&#45;&gt;Node11</title>
<path fill="none" stroke="#63b8ff" d="M1017.59,-656.5C1045.48,-656.5 1077.11,-656.5 1103.19,-656.5"/>
<polygon fill="#63b8ff" stroke="#63b8ff" points="1103.25,-660 1113.25,-656.5 1103.25,-653 1103.25,-660"/>
</g>
<!-- Node12&#45;&gt;Node4 -->
<g id="edge43" class="edge">
<title>Node12&#45;&gt;Node4</title>
<path fill="none" stroke="#63b8ff" d="M757.9,-569.01C783.22,-578.28 823.77,-592.05 860,-599.5 1028.89,-634.25 1084.77,-577.36 1246,-638.5 1292.01,-655.95 1336.51,-693.92 1359.78,-715.89"/>
<polygon fill="#63b8ff" stroke="#63b8ff" points="1357.47,-718.51 1367.1,-722.93 1362.32,-713.47 1357.47,-718.51"/>
</g>
<!-- Node13 -->
<g id="node13" class="node">
<title>Node13</title>
<g id="a_node13"><a xlink:href="namespaceImGui.html#af879255fe0be69945ceff4b832026a71" target="_top" xlink:title=" ">
<polygon fill="white" stroke="#666666" points="1030.5,-456.5 863.5,-456.5 863.5,-426.5 1030.5,-426.5 1030.5,-456.5"/>
<text text-anchor="start" x="871.5" y="-444.5" font-family="Helvetica,sans-Serif" font-size="10.00">ImGui::DockNodeApplyPosSize</text>
<text text-anchor="middle" x="947" y="-433.5" font-family="Helvetica,sans-Serif" font-size="10.00">ToWindows</text>
</a>
</g>
</g>
<!-- Node12&#45;&gt;Node13 -->
<g id="edge12" class="edge">
<title>Node12&#45;&gt;Node13</title>
<path fill="none" stroke="#63b8ff" d="M743.33,-549.74C763.91,-530.8 812.19,-488.87 860,-465.5 863.84,-463.62 867.85,-461.87 871.95,-460.24"/>
<polygon fill="#63b8ff" stroke="#63b8ff" points="873.47,-463.41 881.63,-456.66 871.04,-456.85 873.47,-463.41"/>
</g>
<!-- Node17 -->
<g id="node17" class="node">
<title>Node17</title>
<g id="a_node17"><a xlink:href="namespaceImGui.html#a7b90f51f0d3548a567fdc90a69035e0d" target="_top" xlink:title=" ">
<polygon fill="white" stroke="#666666" points="1024,-504.5 870,-504.5 870,-474.5 1024,-474.5 1024,-504.5"/>
<text text-anchor="start" x="878" y="-492.5" font-family="Helvetica,sans-Serif" font-size="10.00">ImGui::DockNodeMoveChild</text>
<text text-anchor="middle" x="947" y="-481.5" font-family="Helvetica,sans-Serif" font-size="10.00">Nodes</text>
</a>
</g>
</g>
<!-- Node12&#45;&gt;Node17 -->
<g id="edge18" class="edge">
<title>Node12&#45;&gt;Node17</title>
<path fill="none" stroke="#63b8ff" d="M757.63,-549.95C783.08,-540.24 824.04,-525.01 860,-513.5 866.45,-511.44 873.2,-509.38 879.96,-507.38"/>
<polygon fill="#63b8ff" stroke="#63b8ff" points="881.21,-510.66 889.84,-504.51 879.26,-503.94 881.21,-510.66"/>
</g>
<!-- Node18 -->
<g id="node18" class="node">
<title>Node18</title>
<g id="a_node18"><a xlink:href="namespaceImGui.html#a8f314ce935f9160d4bdde3ba8fe8d24f" target="_top" xlink:title=" ">
<polygon fill="white" stroke="#666666" points="1033.5,-590 860.5,-590 860.5,-571 1033.5,-571 1033.5,-590"/>
<text text-anchor="middle" x="947" y="-578" font-family="Helvetica,sans-Serif" font-size="10.00">ImGui::DockNodeMoveWindows</text>
</a>
</g>
</g>
<!-- Node12&#45;&gt;Node18 -->
<g id="edge19" class="edge">
<title>Node12&#45;&gt;Node18</title>
<path fill="none" stroke="#63b8ff" d="M808.7,-566.96C822.17,-568.29 836.36,-569.69 850.3,-571.06"/>
<polygon fill="#63b8ff" stroke="#63b8ff" points="850.1,-574.56 860.39,-572.06 850.78,-567.6 850.1,-574.56"/>
</g>
<!-- Node33 -->
<g id="node33" class="node">
<title>Node33</title>
<g id="a_node33"><a xlink:href="namespaceImGui.html#a62a4dbebb5015352589459596f16b26c" target="_top" xlink:title=" ">
<polygon fill="white" stroke="#666666" points="1025.5,-552.5 868.5,-552.5 868.5,-522.5 1025.5,-522.5 1025.5,-552.5"/>
<text text-anchor="start" x="876.5" y="-540.5" font-family="Helvetica,sans-Serif" font-size="10.00">ImGui::DockSettingsRename</text>
<text text-anchor="middle" x="947" y="-529.5" font-family="Helvetica,sans-Serif" font-size="10.00">NodeReferences</text>
</a>
</g>
</g>
<!-- Node12&#45;&gt;Node33 -->
<g id="edge37" class="edge">
<title>Node12&#45;&gt;Node33</title>
<path fill="none" stroke="#63b8ff" d="M808.7,-551.68C824.74,-550.02 841.8,-548.26 858.25,-546.56"/>
<polygon fill="#63b8ff" stroke="#63b8ff" points="858.8,-550.02 868.39,-545.52 858.08,-543.06 858.8,-550.02"/>
</g>
<!-- Node12&#45;&gt;Node38 -->
<g id="edge44" class="edge">
<title>Node12&#45;&gt;Node38</title>
<path fill="none" stroke="#63b8ff" d="M745.12,-569.22C762.9,-583.61 796.87,-611.68 824,-637.5 840.85,-653.54 839.69,-664.16 860,-675.5 863.25,-677.32 866.67,-678.95 870.19,-680.42"/>
<polygon fill="#63b8ff" stroke="#63b8ff" points="869.11,-683.75 879.7,-683.94 871.54,-677.19 869.11,-683.75"/>
</g>
<!-- Node12&#45;&gt;Node40 -->
<g id="edge49" class="edge">
<title>Node12&#45;&gt;Node40</title>
<path fill="none" stroke="#63b8ff" d="M738.79,-549.86C754.71,-524.19 801.87,-453.67 860,-417.5 862.76,-415.78 865.65,-414.18 868.63,-412.69"/>
<polygon fill="#63b8ff" stroke="#63b8ff" points="870.1,-415.87 877.77,-408.56 867.22,-409.49 870.1,-415.87"/>
</g>
<!-- Node14 -->
<g id="node14" class="node">
<title>Node14</title>
<g id="a_node14"><a xlink:href="namespaceImGui.html#aaa81e004de4c0a5cedb836e92e8aa0e5" target="_top" xlink:title=" ">
<polygon fill="white" stroke="#666666" points="1220,-284 1096,-284 1096,-265 1220,-265 1220,-284"/>
<text text-anchor="middle" x="1158" y="-272" font-family="Helvetica,sans-Serif" font-size="10.00">ImGui::SetWindowPos</text>
</a>
</g>
</g>
<!-- Node13&#45;&gt;Node14 -->
<g id="edge13" class="edge">
<title>Node13&#45;&gt;Node14</title>
<path fill="none" stroke="#63b8ff" d="M1016.74,-426.36C1022.79,-423.84 1028.64,-420.91 1034,-417.5 1040.84,-413.15 1110.76,-329.89 1142.03,-292.46"/>
<polygon fill="#63b8ff" stroke="#63b8ff" points="1145.03,-294.32 1148.75,-284.4 1139.66,-289.84 1145.03,-294.32"/>
</g>
<!-- Node16 -->
<g id="node16" class="node">
<title>Node16</title>
<g id="a_node16"><a xlink:href="namespaceImGui.html#a657c6cc2246485332f608a5204447ea1" target="_top" xlink:title=" ">
<polygon fill="white" stroke="#666666" points="1221.5,-448 1094.5,-448 1094.5,-429 1221.5,-429 1221.5,-448"/>
<text text-anchor="middle" x="1158" y="-436" font-family="Helvetica,sans-Serif" font-size="10.00">ImGui::SetWindowSize</text>
</a>
</g>
</g>
<!-- Node13&#45;&gt;Node16 -->
<g id="edge16" class="edge">
<title>Node13&#45;&gt;Node16</title>
<path fill="none" stroke="#63b8ff" d="M1030.6,-440.31C1048.34,-440.06 1066.97,-439.79 1084.3,-439.54"/>
<polygon fill="#63b8ff" stroke="#63b8ff" points="1084.39,-443.04 1094.34,-439.4 1084.29,-436.04 1084.39,-443.04"/>
</g>
<!-- Node14&#45;&gt;Node14 -->
<g id="edge15" class="edge">
<title>Node14&#45;&gt;Node14</title>
<path fill="none" stroke="#63b8ff" d="M1125.63,-284.08C1109.89,-292.73 1120.68,-302 1158,-302 1184.83,-302 1197.95,-297.21 1197.36,-291.31"/>
<polygon fill="#63b8ff" stroke="#63b8ff" points="1199.84,-288.84 1190.37,-284.08 1194.8,-293.7 1199.84,-288.84"/>
</g>
<!-- Node15 -->
<g id="node15" class="node">
<title>Node15</title>
<g id="a_node15"><a xlink:href="namespaceImGui.html#a055af7d6b7b4ae977a9c3c25a98e0d2f" target="_top" xlink:title=" ">
<polygon fill="white" stroke="#666666" points="1462,-284 1293,-284 1293,-265 1462,-265 1462,-284"/>
<text text-anchor="middle" x="1377.5" y="-272" font-family="Helvetica,sans-Serif" font-size="10.00">ImGui::GetCurrentWindowRead</text>
</a>
</g>
</g>
<!-- Node14&#45;&gt;Node15 -->
<g id="edge14" class="edge">
<title>Node14&#45;&gt;Node15</title>
<path fill="none" stroke="#63b8ff" d="M1220.16,-274.5C1239.49,-274.5 1261.32,-274.5 1282.4,-274.5"/>
<polygon fill="#63b8ff" stroke="#63b8ff" points="1282.67,-278 1292.67,-274.5 1282.67,-271 1282.67,-278"/>
</g>
<!-- Node16&#45;&gt;Node16 -->
<g id="edge17" class="edge">
<title>Node16&#45;&gt;Node16</title>
<path fill="none" stroke="#63b8ff" d="M1125.63,-448.08C1109.89,-456.73 1120.68,-466 1158,-466 1184.83,-466 1197.95,-461.21 1197.36,-455.31"/>
<polygon fill="#63b8ff" stroke="#63b8ff" points="1199.84,-452.84 1190.37,-448.08 1194.8,-457.7 1199.84,-452.84"/>
</g>
<!-- Node18&#45;&gt;Node3 -->
<g id="edge36" class="edge">
<title>Node18&#45;&gt;Node3</title>
<path fill="none" stroke="#63b8ff" d="M964.64,-590.16C982.57,-600.91 1011.54,-619.32 1034,-638.5 1045.58,-648.39 1110.58,-719.46 1141.13,-753.03"/>
<polygon fill="#63b8ff" stroke="#63b8ff" points="1138.78,-755.65 1148.1,-760.69 1143.96,-750.94 1138.78,-755.65"/>
</g>
<!-- Node19 -->
<g id="node19" class="node">
<title>Node19</title>
<g id="a_node19"><a xlink:href="structImVector.html#ae2d401b4ec5f1113cdb8edb5a61a38f7" target="_top" xlink:title=" ">
<polygon fill="white" stroke="#666666" points="1203,-590 1113,-590 1113,-571 1203,-571 1203,-590"/>
<text text-anchor="middle" x="1158" y="-578" font-family="Helvetica,sans-Serif" font-size="10.00">ImVector::clear</text>
</a>
</g>
</g>
<!-- Node18&#45;&gt;Node19 -->
<g id="edge20" class="edge">
<title>Node18&#45;&gt;Node19</title>
<path fill="none" stroke="#63b8ff" d="M1033.61,-580.5C1056.96,-580.5 1081.61,-580.5 1102.68,-580.5"/>
<polygon fill="#63b8ff" stroke="#63b8ff" points="1102.72,-584 1112.72,-580.5 1102.72,-577 1102.72,-584"/>
</g>
<!-- Node20 -->
<g id="node20" class="node">
<title>Node20</title>
<g id="a_node20"><a xlink:href="namespaceImGui.html#a9ddcb5d005e4d92cbce85de08deae665" target="_top" xlink:title=" ">
<polygon fill="white" stroke="#666666" points="1238,-408 1078,-408 1078,-389 1238,-389 1238,-408"/>
<text text-anchor="middle" x="1158" y="-396" font-family="Helvetica,sans-Serif" font-size="10.00">ImGui::DockNodeAddWindow</text>
</a>
</g>
</g>
<!-- Node18&#45;&gt;Node20 -->
<g id="edge21" class="edge">
<title>Node18&#45;&gt;Node20</title>
<path fill="none" stroke="#63b8ff" d="M1021.02,-570.79C1025.75,-568.28 1030.15,-565.22 1034,-561.5 1080.47,-516.52 1024.21,-466.18 1070,-420.5 1072.9,-417.61 1076.11,-415.08 1079.55,-412.87"/>
<polygon fill="#63b8ff" stroke="#63b8ff" points="1081.39,-415.86 1088.51,-408.01 1078.05,-409.7 1081.39,-415.86"/>
</g>
<!-- Node20&#45;&gt;Node7 -->
<g id="edge24" class="edge">
<title>Node20&#45;&gt;Node7</title>
<path fill="none" stroke="#63b8ff" d="M1124.71,-388.96C1100.09,-382.16 1065.22,-373.54 1034,-369.5 805.92,-340.01 535.24,-342.4 392.19,-346.56"/>
<polygon fill="#63b8ff" stroke="#63b8ff" points="392.01,-343.06 382.12,-346.86 392.22,-350.06 392.01,-343.06"/>
</g>
<!-- Node21 -->
<g id="node21" class="node">
<title>Node21</title>
<g id="a_node21"><a xlink:href="namespaceImGui.html#ac621689d25d2aeeb45ee8a007080498d" target="_top" xlink:title=" ">
<polygon fill="white" stroke="#666666" points="1454.5,-531 1300.5,-531 1300.5,-512 1454.5,-512 1454.5,-531"/>
<text text-anchor="middle" x="1377.5" y="-519" font-family="Helvetica,sans-Serif" font-size="10.00">ImGui::DockNodeAddTabBar</text>
</a>
</g>
</g>
<!-- Node20&#45;&gt;Node21 -->
<g id="edge22" class="edge">
<title>Node20&#45;&gt;Node21</title>
<path fill="none" stroke="#63b8ff" d="M1224.91,-408.17C1232.56,-411.25 1239.82,-415.27 1246,-420.5 1276.38,-446.21 1251,-477.54 1282,-502.5 1284.82,-504.77 1287.84,-506.8 1291.01,-508.6"/>
<polygon fill="#63b8ff" stroke="#63b8ff" points="1289.75,-511.88 1300.27,-513.11 1292.81,-505.58 1289.75,-511.88"/>
</g>
<!-- Node22 -->
<g id="node22" class="node">
<title>Node22</title>
<g id="a_node22"><a xlink:href="imgui_8cpp.html#a4fbdea00c388b92d697a9c15b033d221" target="_top" xlink:title=" ">
<polygon fill="white" stroke="#666666" points="1458,-493.5 1297,-493.5 1297,-463.5 1458,-463.5 1458,-493.5"/>
<text text-anchor="start" x="1305" y="-481.5" font-family="Helvetica,sans-Serif" font-size="10.00">DockNodeHideWindowDuring</text>
<text text-anchor="middle" x="1377.5" y="-470.5" font-family="Helvetica,sans-Serif" font-size="10.00">HostWindowCreation</text>
</a>
</g>
</g>
<!-- Node20&#45;&gt;Node22 -->
<g id="edge23" class="edge">
<title>Node20&#45;&gt;Node22</title>
<path fill="none" stroke="#63b8ff" d="M1214.45,-408.02C1225.3,-411.11 1236.3,-415.17 1246,-420.5 1265.29,-431.09 1262.72,-443.9 1282,-454.5 1285.31,-456.32 1288.76,-458 1292.3,-459.56"/>
<polygon fill="#63b8ff" stroke="#63b8ff" points="1291.27,-462.92 1301.86,-463.41 1293.88,-456.43 1291.27,-462.92"/>
</g>
<!-- Node20&#45;&gt;Node23 -->
<g id="edge25" class="edge">
<title>Node20&#45;&gt;Node23</title>
<path fill="none" stroke="#63b8ff" d="M1169.88,-388.83C1187.08,-373.26 1221.16,-341.25 1246,-310.5 1264.36,-287.78 1260.96,-275.77 1282,-255.5 1300.61,-237.56 1325.86,-222.7 1345.57,-212.65"/>
<polygon fill="#63b8ff" stroke="#63b8ff" points="1347.34,-215.68 1354.75,-208.11 1344.23,-209.41 1347.34,-215.68"/>
</g>
<!-- Node26 -->
<g id="node26" class="node">
<title>Node26</title>
<g id="a_node26"><a xlink:href="structImGuiDockNode.html#a65218fbb8d4629246096dd8fe5d1f219" target="_top" xlink:title=" ">
<polygon fill="white" stroke="#666666" points="1465.5,-445 1289.5,-445 1289.5,-426 1465.5,-426 1465.5,-445"/>
<text text-anchor="middle" x="1377.5" y="-433" font-family="Helvetica,sans-Serif" font-size="10.00">ImGuiDockNode::IsFloatingNode</text>
</a>
</g>
</g>
<!-- Node20&#45;&gt;Node26 -->
<g id="edge28" class="edge">
<title>Node20&#45;&gt;Node26</title>
<path fill="none" stroke="#63b8ff" d="M1215.01,-408.03C1244.07,-412.97 1279.77,-419.04 1310.2,-424.22"/>
<polygon fill="#63b8ff" stroke="#63b8ff" points="1309.86,-427.71 1320.3,-425.94 1311.03,-420.81 1309.86,-427.71"/>
</g>
<!-- Node27 -->
<g id="node27" class="node">
<title>Node27</title>
<g id="a_node27"><a xlink:href="structImVector.html#aab5df48e0711a48bd12f3206e08c4108" target="_top" xlink:title=" ">
<polygon fill="white" stroke="#666666" points="1653.5,-408 1535.5,-408 1535.5,-389 1653.5,-389 1653.5,-408"/>
<text text-anchor="middle" x="1594.5" y="-396" font-family="Helvetica,sans-Serif" font-size="10.00">ImVector::push_back</text>
</a>
</g>
</g>
<!-- Node20&#45;&gt;Node27 -->
<g id="edge29" class="edge">
<title>Node20&#45;&gt;Node27</title>
<path fill="none" stroke="#63b8ff" d="M1209.07,-388.99C1231.31,-385.22 1257.87,-381.35 1282,-379.5 1366.64,-373 1388.37,-372.87 1473,-379.5 1493.14,-381.08 1515,-384.12 1534.5,-387.31"/>
<polygon fill="#63b8ff" stroke="#63b8ff" points="1534.02,-390.78 1544.46,-388.99 1535.18,-383.88 1534.02,-390.78"/>
</g>
<!-- Node30 -->
<g id="node30" class="node">
<title>Node30</title>
<g id="a_node30"><a xlink:href="namespaceImGui.html#ad351241dc857097a48c74669249b3c04" target="_top" xlink:title=" ">
<polygon fill="white" stroke="#666666" points="1437.5,-408 1317.5,-408 1317.5,-389 1437.5,-389 1437.5,-408"/>
<text text-anchor="middle" x="1377.5" y="-396" font-family="Helvetica,sans-Serif" font-size="10.00">ImGui::TabBarAddTab</text>
</a>
</g>
</g>
<!-- Node20&#45;&gt;Node30 -->
<g id="edge32" class="edge">
<title>Node20&#45;&gt;Node30</title>
<path fill="none" stroke="#63b8ff" d="M1238.14,-398.5C1260.68,-398.5 1285.06,-398.5 1306.99,-398.5"/>
<polygon fill="#63b8ff" stroke="#63b8ff" points="1307.2,-402 1317.2,-398.5 1307.2,-395 1307.2,-402"/>
</g>
<!-- Node20&#45;&gt;Node32 -->
<g id="edge35" class="edge">
<title>Node20&#45;&gt;Node32</title>
<path fill="none" stroke="#63b8ff" d="M1180.07,-388.81C1204.36,-377.83 1245.61,-359.73 1282,-346.5 1292.37,-342.73 1303.5,-339.02 1314.34,-335.58"/>
<polygon fill="#63b8ff" stroke="#63b8ff" points="1315.69,-338.83 1324.19,-332.51 1313.6,-332.15 1315.69,-338.83"/>
</g>
<!-- Node23&#45;&gt;Node24 -->
<g id="edge26" class="edge">
<title>Node23&#45;&gt;Node24</title>
<path fill="none" stroke="#63b8ff" d="M1405.73,-188.87C1444.1,-175.31 1514.16,-150.55 1557,-135.4"/>
<polygon fill="#63b8ff" stroke="#63b8ff" points="1558.23,-138.68 1566.49,-132.05 1555.9,-132.08 1558.23,-138.68"/>
</g>
<!-- Node23&#45;&gt;Node25 -->
<g id="edge27" class="edge">
<title>Node23&#45;&gt;Node25</title>
<path fill="none" stroke="#63b8ff" d="M1473.12,-206.86C1482.81,-207.72 1492.66,-208.59 1502.32,-209.44"/>
<polygon fill="#63b8ff" stroke="#63b8ff" points="1502.04,-212.93 1512.31,-210.32 1502.65,-205.96 1502.04,-212.93"/>
</g>
<!-- Node28 -->
<g id="node28" class="node">
<title>Node28</title>
<g id="a_node28"><a xlink:href="structImVector.html#a3a097635d464b1b70dc7d59996a88b28" target="_top" xlink:title=" ">
<polygon fill="white" stroke="#666666" points="1858,-445 1716,-445 1716,-426 1858,-426 1858,-445"/>
<text text-anchor="middle" x="1787" y="-433" font-family="Helvetica,sans-Serif" font-size="10.00">ImVector::_grow_capacity</text>
</a>
</g>
</g>
<!-- Node27&#45;&gt;Node28 -->
<g id="edge30" class="edge">
<title>Node27&#45;&gt;Node28</title>
<path fill="none" stroke="#63b8ff" d="M1644.56,-408.03C1669.68,-412.91 1700.46,-418.89 1726.88,-424.02"/>
<polygon fill="#63b8ff" stroke="#63b8ff" points="1726.29,-427.47 1736.78,-425.94 1727.63,-420.6 1726.29,-427.47"/>
</g>
<!-- Node29 -->
<g id="node29" class="node">
<title>Node29</title>
<g id="a_node29"><a xlink:href="structImVector.html#a0f14f5736c3372157856eebb67123b75" target="_top" xlink:title=" ">
<polygon fill="white" stroke="#666666" points="1838.5,-408 1735.5,-408 1735.5,-389 1838.5,-389 1838.5,-408"/>
<text text-anchor="middle" x="1787" y="-396" font-family="Helvetica,sans-Serif" font-size="10.00">ImVector::reserve</text>
</a>
</g>
</g>
<!-- Node27&#45;&gt;Node29 -->
<g id="edge31" class="edge">
<title>Node27&#45;&gt;Node29</title>
<path fill="none" stroke="#63b8ff" d="M1653.69,-398.5C1676.27,-398.5 1702.15,-398.5 1724.99,-398.5"/>
<polygon fill="#63b8ff" stroke="#63b8ff" points="1725.25,-402 1735.25,-398.5 1725.25,-395 1725.25,-402"/>
</g>
<!-- Node30&#45;&gt;Node27 -->
<g id="edge33" class="edge">
<title>Node30&#45;&gt;Node27</title>
<path fill="none" stroke="#63b8ff" d="M1437.53,-398.5C1464.66,-398.5 1496.99,-398.5 1525.17,-398.5"/>
<polygon fill="#63b8ff" stroke="#63b8ff" points="1525.34,-402 1535.34,-398.5 1525.34,-395 1525.34,-402"/>
</g>
<!-- Node31 -->
<g id="node31" class="node">
<title>Node31</title>
<g id="a_node31"><a xlink:href="namespaceImGui.html#a892525a74a6206eabbeb851071b3119a" target="_top" xlink:title=" ">
<polygon fill="white" stroke="#666666" points="1667,-798 1522,-798 1522,-779 1667,-779 1667,-798"/>
<text text-anchor="middle" x="1594.5" y="-786" font-family="Helvetica,sans-Serif" font-size="10.00">ImGui::TabBarFindTabByID</text>
</a>
</g>
</g>
<!-- Node30&#45;&gt;Node31 -->
<g id="edge34" class="edge">
<title>Node30&#45;&gt;Node31</title>
<path fill="none" stroke="#63b8ff" d="M1437.79,-398.96C1451.04,-401.91 1463.86,-407.49 1473,-417.5 1573.66,-527.77 1420.71,-631.1 1509,-751.5 1516.7,-762 1528.02,-769.56 1539.9,-774.99"/>
<polygon fill="#63b8ff" stroke="#63b8ff" points="1538.9,-778.36 1549.48,-778.9 1541.55,-771.88 1538.9,-778.36"/>
</g>
<!-- Node34 -->
<g id="node34" class="node">
<title>Node34</title>
<g id="a_node34"><a xlink:href="structImChunkStream.html#a10a9b29c856b3f84ce8811ebfaf2cfe8" target="_top" xlink:title=" ">
<polygon fill="white" stroke="#666666" points="1441.5,-642 1313.5,-642 1313.5,-623 1441.5,-623 1441.5,-642"/>
<text text-anchor="middle" x="1377.5" y="-630" font-family="Helvetica,sans-Serif" font-size="10.00">ImChunkStream::begin</text>
</a>
</g>
</g>
<!-- Node33&#45;&gt;Node34 -->
<g id="edge38" class="edge">
<title>Node33&#45;&gt;Node34</title>
<path fill="none" stroke="#63b8ff" d="M1025.57,-526.65C1089.08,-521.65 1179.04,-523.76 1246,-562.5 1270.33,-576.58 1258.44,-599.17 1282,-614.5 1288.6,-618.79 1295.96,-622.11 1303.6,-624.67"/>
<polygon fill="#63b8ff" stroke="#63b8ff" points="1302.79,-628.08 1313.37,-627.53 1304.75,-621.37 1302.79,-628.08"/>
</g>
<!-- Node35 -->
<g id="node35" class="node">
<title>Node35</title>
<g id="a_node35"><a xlink:href="structImChunkStream.html#a3a99f21ce1867d694104d740ac7ab133" target="_top" xlink:title=" ">
<polygon fill="white" stroke="#666666" points="1219.5,-514.5 1096.5,-514.5 1096.5,-484.5 1219.5,-484.5 1219.5,-514.5"/>
<text text-anchor="start" x="1104.5" y="-502.5" font-family="Helvetica,sans-Serif" font-size="10.00">ImChunkStream::next</text>
<text text-anchor="middle" x="1158" y="-491.5" font-family="Helvetica,sans-Serif" font-size="10.00">_chunk</text>
</a>
</g>
</g>
<!-- Node33&#45;&gt;Node35 -->
<g id="edge39" class="edge">
<title>Node33&#45;&gt;Node35</title>
<path fill="none" stroke="#63b8ff" d="M1025.53,-523.4C1045.41,-519.79 1066.69,-515.92 1086.22,-512.37"/>
<polygon fill="#63b8ff" stroke="#63b8ff" points="1087.04,-515.78 1096.25,-510.55 1085.79,-508.89 1087.04,-515.78"/>
</g>
<!-- Node35&#45;&gt;Node34 -->
<g id="edge40" class="edge">
<title>Node35&#45;&gt;Node34</title>
<path fill="none" stroke="#63b8ff" d="M1219.8,-512.27C1229.36,-516.29 1238.53,-521.57 1246,-528.5 1276.37,-556.69 1249.81,-588.4 1282,-614.5 1288.36,-619.66 1295.76,-623.5 1303.56,-626.34"/>
<polygon fill="#63b8ff" stroke="#63b8ff" points="1302.64,-629.72 1313.22,-629.34 1304.7,-623.04 1302.64,-629.72"/>
</g>
<!-- Node36 -->
<g id="node36" class="node">
<title>Node36</title>
<g id="a_node36"><a xlink:href="structImChunkStream.html#a1a83609aaee47cf8b59a8ae09a04a06b" target="_top" xlink:title=" ">
<polygon fill="white" stroke="#666666" points="1455,-568 1300,-568 1300,-549 1455,-549 1455,-568"/>
<text text-anchor="middle" x="1377.5" y="-556" font-family="Helvetica,sans-Serif" font-size="10.00">ImChunkStream::chunk_size</text>
</a>
</g>
</g>
<!-- Node35&#45;&gt;Node36 -->
<g id="edge41" class="edge">
<title>Node35&#45;&gt;Node36</title>
<path fill="none" stroke="#63b8ff" d="M1204.04,-514.52C1239.1,-526.21 1281.87,-540.47 1282,-540.5 1290.9,-542.82 1300.35,-544.98 1309.69,-546.93"/>
<polygon fill="#63b8ff" stroke="#63b8ff" points="1309.26,-550.41 1319.76,-548.97 1310.65,-543.55 1309.26,-550.41"/>
</g>
<!-- Node37 -->
<g id="node37" class="node">
<title>Node37</title>
<g id="a_node37"><a xlink:href="structImChunkStream.html#a5c7faa90ac7fa02140a3298dbfdd5cad" target="_top" xlink:title=" ">
<polygon fill="white" stroke="#666666" points="1437,-605 1318,-605 1318,-586 1437,-586 1437,-605"/>
<text text-anchor="middle" x="1377.5" y="-593" font-family="Helvetica,sans-Serif" font-size="10.00">ImChunkStream::end</text>
</a>
</g>
</g>
<!-- Node35&#45;&gt;Node37 -->
<g id="edge42" class="edge">
<title>Node35&#45;&gt;Node37</title>
<path fill="none" stroke="#63b8ff" d="M1219.87,-514.39C1229.1,-518.14 1238.15,-522.78 1246,-528.5 1267.84,-544.41 1259.14,-563.08 1282,-577.5 1289.88,-582.47 1298.82,-586.13 1307.98,-588.82"/>
<polygon fill="#63b8ff" stroke="#63b8ff" points="1307.41,-592.28 1317.96,-591.36 1309.14,-585.5 1307.41,-592.28"/>
</g>
<!-- Node38&#45;&gt;Node11 -->
<g id="edge45" class="edge">
<title>Node38&#45;&gt;Node11</title>
<path fill="none" stroke="#63b8ff" d="M1001.82,-683.97C1032.9,-678.47 1071.87,-671.57 1102.98,-666.06"/>
<polygon fill="#63b8ff" stroke="#63b8ff" points="1103.97,-669.44 1113.21,-664.25 1102.75,-662.55 1103.97,-669.44"/>
</g>
<!-- Node39 -->
<g id="node39" class="node">
<title>Node39</title>
<g id="a_node39"><a xlink:href="structImVector.html#a541c8cd4b844f5276f10d160cb500533" target="_top" xlink:title=" ">
<polygon fill="white" stroke="#666666" points="1641.5,-445 1547.5,-445 1547.5,-426 1641.5,-426 1641.5,-445"/>
<text text-anchor="middle" x="1594.5" y="-433" font-family="Helvetica,sans-Serif" font-size="10.00">ImVector::insert</text>
</a>
</g>
</g>
<!-- Node38&#45;&gt;Node39 -->
<g id="edge46" class="edge">
<title>Node38&#45;&gt;Node39</title>
<path fill="none" stroke="#63b8ff" d="M1017.27,-696.03C1142.41,-699.31 1399.94,-699.75 1473,-651.5 1544.68,-604.16 1577.92,-498.91 1589.02,-455.16"/>
<polygon fill="#63b8ff" stroke="#63b8ff" points="1592.42,-455.98 1591.38,-445.44 1585.62,-454.33 1592.42,-455.98"/>
</g>
<!-- Node39&#45;&gt;Node28 -->
<g id="edge47" class="edge">
<title>Node39&#45;&gt;Node28</title>
<path fill="none" stroke="#63b8ff" d="M1641.61,-435.5C1660.82,-435.5 1683.69,-435.5 1705.5,-435.5"/>
<polygon fill="#63b8ff" stroke="#63b8ff" points="1705.77,-439 1715.77,-435.5 1705.77,-432 1705.77,-439"/>
</g>
<!-- Node39&#45;&gt;Node29 -->
<g id="edge48" class="edge">
<title>Node39&#45;&gt;Node29</title>
<path fill="none" stroke="#63b8ff" d="M1641.61,-426.54C1667.31,-421.55 1699.57,-415.29 1727.08,-409.94"/>
<polygon fill="#63b8ff" stroke="#63b8ff" points="1727.83,-413.36 1736.98,-408.02 1726.5,-406.49 1727.83,-413.36"/>
</g>
<!-- Node42&#45;&gt;Node41 -->
<g id="edge56" class="edge">
<title>Node42&#45;&gt;Node41</title>
<path fill="none" stroke="#63b8ff" d="M569.25,-821.53C601.96,-818.7 642.79,-815.15 675.24,-812.34"/>
<polygon fill="#63b8ff" stroke="#63b8ff" points="675.8,-815.8 685.46,-811.45 675.2,-808.83 675.8,-815.8"/>
</g>
<!-- Node43 -->
<g id="node43" class="node">
<title>Node43</title>
<g id="a_node43"><a xlink:href="structImVector.html#a406417c3efef769d4bee47df2188831a" target="_top" xlink:title=" ">
<polygon fill="white" stroke="#666666" points="774,-854 690,-854 690,-835 774,-835 774,-854"/>
<text text-anchor="middle" x="732" y="-842" font-family="Helvetica,sans-Serif" font-size="10.00">ImVector::find</text>
</a>
</g>
</g>
<!-- Node42&#45;&gt;Node43 -->
<g id="edge57" class="edge">
<title>Node42&#45;&gt;Node43</title>
<path fill="none" stroke="#63b8ff" d="M569.25,-831.21C603.45,-834.02 646.52,-837.56 679.61,-840.28"/>
<polygon fill="#63b8ff" stroke="#63b8ff" points="679.73,-843.8 689.99,-841.13 680.31,-836.82 679.73,-843.8"/>
</g>
<!-- Node44&#45;&gt;Node31 -->
<g id="edge62" class="edge">
<title>Node44&#45;&gt;Node31</title>
<path fill="none" stroke="#63b8ff" d="M582.39,-757C688.13,-766.41 894.34,-783.37 1070,-789.5 1148.17,-792.23 1167.78,-789.61 1246,-789.5 1337,-789.37 1441.4,-789.05 1511.82,-788.8"/>
<polygon fill="#63b8ff" stroke="#63b8ff" points="1511.97,-792.3 1521.96,-788.77 1511.94,-785.3 1511.97,-792.3"/>
</g>
<!-- Node44&#45;&gt;Node41 -->
<g id="edge61" class="edge">
<title>Node44&#45;&gt;Node41</title>
<path fill="none" stroke="#63b8ff" d="M548.66,-760.04C585.92,-769.74 643.79,-784.8 684.32,-795.35"/>
<polygon fill="#63b8ff" stroke="#63b8ff" points="683.67,-798.8 694.22,-797.93 685.43,-792.02 683.67,-798.8"/>
</g>
</g>
</svg>
