<?xml version="1.0" encoding="UTF-8" standalone="no"?>
<!DOCTYPE svg PUBLIC "-//W3C//DTD SVG 1.1//EN"
 "http://www.w3.org/Graphics/SVG/1.1/DTD/svg11.dtd">
<!-- Generated by graphviz version 2.43.0 (0)
 -->
<!-- Title: ImStb::STB_TEXTEDIT_INSERTCHARS Pages: 1 -->
<svg width="439pt" height="119pt"
 viewBox="0.00 0.00 439.00 119.00" xmlns="http://www.w3.org/2000/svg" xmlns:xlink="http://www.w3.org/1999/xlink">
<g id="graph0" class="graph" transform="scale(1 1) rotate(0) translate(4 115)">
<title>ImStb::STB_TEXTEDIT_INSERTCHARS</title>
<!-- Node1 -->
<g id="node1" class="node">
<title>Node1</title>
<g id="a_node1"><a xlink:title=" ">
<polygon fill="#999999" stroke="#666666" points="122,-79.5 0,-79.5 0,-49.5 122,-49.5 122,-79.5"/>
<text text-anchor="start" x="8" y="-67.5" font-family="Helvetica,sans-Serif" font-size="10.00">ImStb::STB_TEXTEDIT</text>
<text text-anchor="middle" x="61" y="-56.5" font-family="Helvetica,sans-Serif" font-size="10.00">_INSERTCHARS</text>
</a>
</g>
</g>
<!-- Node2 -->
<g id="node2" class="node">
<title>Node2</title>
<g id="a_node2"><a xlink:href="imgui__internal_8h.html#a6e61ede308bfd68c7434e17905a29fc8" target="_top" xlink:title=" ">
<polygon fill="white" stroke="#666666" points="236,-111 175,-111 175,-92 236,-92 236,-111"/>
<text text-anchor="middle" x="205.5" y="-99" font-family="Helvetica,sans-Serif" font-size="10.00">ImClamp</text>
</a>
</g>
</g>
<!-- Node1&#45;&gt;Node2 -->
<g id="edge1" class="edge">
<title>Node1&#45;&gt;Node2</title>
<path fill="none" stroke="#63b8ff" d="M119.96,-79.55C135.09,-83.48 151.05,-87.62 164.97,-91.24"/>
<polygon fill="#63b8ff" stroke="#63b8ff" points="164.16,-94.64 174.71,-93.77 165.91,-87.87 164.16,-94.64"/>
</g>
<!-- Node3 -->
<g id="node3" class="node">
<title>Node3</title>
<g id="a_node3"><a xlink:href="imgui__internal_8h.html#a7667efd95147d0422f140917c71a9226" target="_top" xlink:title=" ">
<polygon fill="white" stroke="#666666" points="230.5,-74 180.5,-74 180.5,-55 230.5,-55 230.5,-74"/>
<text text-anchor="middle" x="205.5" y="-62" font-family="Helvetica,sans-Serif" font-size="10.00">ImMax</text>
</a>
</g>
</g>
<!-- Node1&#45;&gt;Node3 -->
<g id="edge2" class="edge">
<title>Node1&#45;&gt;Node3</title>
<path fill="none" stroke="#63b8ff" d="M122.02,-64.5C138.55,-64.5 155.9,-64.5 170.4,-64.5"/>
<polygon fill="#63b8ff" stroke="#63b8ff" points="170.4,-68 180.4,-64.5 170.4,-61 170.4,-68"/>
</g>
<!-- Node4 -->
<g id="node4" class="node">
<title>Node4</title>
<g id="a_node4"><a xlink:href="structImVector.html#ac371dd62e56ae486b1a5038cf07eee56" target="_top" xlink:title=" ">
<polygon fill="white" stroke="#666666" points="253,-37 158,-37 158,-18 253,-18 253,-37"/>
<text text-anchor="middle" x="205.5" y="-25" font-family="Helvetica,sans-Serif" font-size="10.00">ImVector::resize</text>
</a>
</g>
</g>
<!-- Node1&#45;&gt;Node4 -->
<g id="edge3" class="edge">
<title>Node1&#45;&gt;Node4</title>
<path fill="none" stroke="#63b8ff" d="M119.96,-49.45C132.6,-46.17 145.82,-42.74 157.95,-39.59"/>
<polygon fill="#63b8ff" stroke="#63b8ff" points="159.05,-42.92 167.85,-37.02 157.29,-36.14 159.05,-42.92"/>
</g>
<!-- Node5 -->
<g id="node5" class="node">
<title>Node5</title>
<g id="a_node5"><a xlink:href="structImVector.html#a3a097635d464b1b70dc7d59996a88b28" target="_top" xlink:title=" ">
<polygon fill="white" stroke="#666666" points="431,-56 289,-56 289,-37 431,-37 431,-56"/>
<text text-anchor="middle" x="360" y="-44" font-family="Helvetica,sans-Serif" font-size="10.00">ImVector::_grow_capacity</text>
</a>
</g>
</g>
<!-- Node4&#45;&gt;Node5 -->
<g id="edge4" class="edge">
<title>Node4&#45;&gt;Node5</title>
<path fill="none" stroke="#63b8ff" d="M253.08,-33.3C261.29,-34.33 270.05,-35.42 278.87,-36.52"/>
<polygon fill="#63b8ff" stroke="#63b8ff" points="278.48,-39.99 288.84,-37.76 279.34,-33.05 278.48,-39.99"/>
</g>
<!-- Node6 -->
<g id="node6" class="node">
<title>Node6</title>
<g id="a_node6"><a xlink:href="structImVector.html#a0f14f5736c3372157856eebb67123b75" target="_top" xlink:title=" ">
<polygon fill="white" stroke="#666666" points="411.5,-19 308.5,-19 308.5,0 411.5,0 411.5,-19"/>
<text text-anchor="middle" x="360" y="-7" font-family="Helvetica,sans-Serif" font-size="10.00">ImVector::reserve</text>
</a>
</g>
</g>
<!-- Node4&#45;&gt;Node6 -->
<g id="edge5" class="edge">
<title>Node4&#45;&gt;Node6</title>
<path fill="none" stroke="#63b8ff" d="M253.08,-22C267.32,-20.32 283.19,-18.45 298.22,-16.67"/>
<polygon fill="#63b8ff" stroke="#63b8ff" points="298.94,-20.11 308.46,-15.47 298.12,-13.16 298.94,-20.11"/>
</g>
</g>
</svg>
