<?xml version="1.0" encoding="UTF-8" standalone="no"?>
<!DOCTYPE svg PUBLIC "-//W3C//DTD SVG 1.1//EN"
 "http://www.w3.org/Graphics/SVG/1.1/DTD/svg11.dtd">
<!-- Generated by graphviz version 2.43.0 (0)
 -->
<!-- Title: ImGui::DockBuilderDockWindow Pages: 1 -->
<svg width="2084pt" height="944pt"
 viewBox="0.00 0.00 2084.00 943.96" xmlns="http://www.w3.org/2000/svg" xmlns:xlink="http://www.w3.org/1999/xlink">
<g id="graph0" class="graph" transform="scale(1 1) rotate(0) translate(4 939.96)">
<title>ImGui::DockBuilderDockWindow</title>
<!-- Node1 -->
<g id="node1" class="node">
<title>Node1</title>
<g id="a_node1"><a xlink:title=" ">
<polygon fill="#999999" stroke="#666666" points="175,-834.5 0,-834.5 0,-815.5 175,-815.5 175,-834.5"/>
<text text-anchor="middle" x="87.5" y="-822.5" font-family="Helvetica,sans-Serif" font-size="10.00">ImGui::DockBuilderDockWindow</text>
</a>
</g>
</g>
<!-- Node2 -->
<g id="node2" class="node">
<title>Node2</title>
<g id="a_node2"><a xlink:href="namespaceImGui.html#a2f325a08e833855b408f70a96d5fa064" target="_top" xlink:title=" ">
<polygon fill="white" stroke="#666666" points="396,-912.5 211,-912.5 211,-893.5 396,-893.5 396,-912.5"/>
<text text-anchor="middle" x="303.5" y="-900.5" font-family="Helvetica,sans-Serif" font-size="10.00">ImGui::CreateNewWindowSettings</text>
</a>
</g>
</g>
<!-- Node1&#45;&gt;Node2 -->
<g id="edge1" class="edge">
<title>Node1&#45;&gt;Node2</title>
<path fill="none" stroke="#63b8ff" d="M109,-834.63C133.08,-845.73 174.4,-864.09 211,-877 225.17,-882 240.83,-886.73 255.13,-890.75"/>
<polygon fill="#63b8ff" stroke="#63b8ff" points="254.2,-894.13 264.77,-893.42 256.07,-887.38 254.2,-894.13"/>
</g>
<!-- Node8 -->
<g id="node8" class="node">
<title>Node8</title>
<g id="a_node8"><a xlink:href="imgui_8cpp.html#ab6659b5d67f7a3369e099ce890e12223" target="_top" xlink:title=" ">
<polygon fill="white" stroke="#666666" points="557,-872.5 489,-872.5 489,-853.5 557,-853.5 557,-872.5"/>
<text text-anchor="middle" x="523" y="-860.5" font-family="Helvetica,sans-Serif" font-size="10.00">ImHashStr</text>
</a>
</g>
</g>
<!-- Node1&#45;&gt;Node8 -->
<g id="edge17" class="edge">
<title>Node1&#45;&gt;Node8</title>
<path fill="none" stroke="#63b8ff" d="M146.64,-834.53C166.96,-837.6 189.94,-840.78 211,-843 306.17,-853.04 418.3,-858.75 478.52,-861.33"/>
<polygon fill="#63b8ff" stroke="#63b8ff" points="478.65,-864.83 488.79,-861.76 478.94,-857.84 478.65,-864.83"/>
</g>
<!-- Node9 -->
<g id="node9" class="node">
<title>Node9</title>
<g id="a_node9"><a xlink:href="namespaceImGui.html#a82204d8800dc3a072ddbcbd2aecc48ac" target="_top" xlink:title=" ">
<polygon fill="white" stroke="#666666" points="370.5,-834.5 236.5,-834.5 236.5,-815.5 370.5,-815.5 370.5,-834.5"/>
<text text-anchor="middle" x="303.5" y="-822.5" font-family="Helvetica,sans-Serif" font-size="10.00">ImGui::FindWindowByID</text>
</a>
</g>
</g>
<!-- Node1&#45;&gt;Node9 -->
<g id="edge8" class="edge">
<title>Node1&#45;&gt;Node9</title>
<path fill="none" stroke="#63b8ff" d="M175.23,-825C192.12,-825 209.71,-825 226.22,-825"/>
<polygon fill="#63b8ff" stroke="#63b8ff" points="226.36,-828.5 236.36,-825 226.36,-821.5 226.36,-828.5"/>
</g>
<!-- Node12 -->
<g id="node12" class="node">
<title>Node12</title>
<g id="a_node12"><a xlink:href="namespaceImGui.html#a186a7c51e5dc70e54843c9e9415707e2" target="_top" xlink:title=" ">
<polygon fill="white" stroke="#666666" points="1261,-85.5 1087,-85.5 1087,-66.5 1261,-66.5 1261,-85.5"/>
<text text-anchor="middle" x="1174" y="-73.5" font-family="Helvetica,sans-Serif" font-size="10.00">ImGui::FindWindowSettingsByID</text>
</a>
</g>
</g>
<!-- Node1&#45;&gt;Node12 -->
<g id="edge11" class="edge">
<title>Node1&#45;&gt;Node12</title>
<path fill="none" stroke="#63b8ff" d="M88.83,-815.45C92.54,-723.59 134.09,0 522,0 522,0 522,0 741.5,0 886.55,0 1054.93,-42.17 1131.4,-63.68"/>
<polygon fill="#63b8ff" stroke="#63b8ff" points="1130.56,-67.08 1141.13,-66.45 1132.47,-60.35 1130.56,-67.08"/>
</g>
<!-- Node17 -->
<g id="node17" class="node">
<title>Node17</title>
<g id="a_node17"><a xlink:href="namespaceImGui.html#ac0bc045c65761e287ab5ef99833dcbbc" target="_top" xlink:title=" ">
<polygon fill="white" stroke="#666666" points="369,-741.5 238,-741.5 238,-722.5 369,-722.5 369,-741.5"/>
<text text-anchor="middle" x="303.5" y="-729.5" font-family="Helvetica,sans-Serif" font-size="10.00">ImGui::SetWindowDock</text>
</a>
</g>
</g>
<!-- Node1&#45;&gt;Node17 -->
<g id="edge18" class="edge">
<title>Node1&#45;&gt;Node17</title>
<path fill="none" stroke="#63b8ff" d="M110.6,-815.4C148.82,-798.79 227.39,-764.64 271.21,-745.6"/>
<polygon fill="#63b8ff" stroke="#63b8ff" points="272.75,-748.75 280.52,-741.55 269.96,-742.33 272.75,-748.75"/>
</g>
<!-- Node3 -->
<g id="node3" class="node">
<title>Node3</title>
<g id="a_node3"><a xlink:href="structImChunkStream.html#a29ced7ee3e9a2ae8123a92b110b4b0bd" target="_top" xlink:title=" ">
<polygon fill="white" stroke="#666666" points="803,-923 678,-923 678,-893 803,-893 803,-923"/>
<text text-anchor="start" x="686" y="-911" font-family="Helvetica,sans-Serif" font-size="10.00">ImChunkStream::alloc</text>
<text text-anchor="middle" x="740.5" y="-900" font-family="Helvetica,sans-Serif" font-size="10.00">_chunk</text>
</a>
</g>
</g>
<!-- Node2&#45;&gt;Node3 -->
<g id="edge2" class="edge">
<title>Node2&#45;&gt;Node3</title>
<path fill="none" stroke="#63b8ff" d="M339.63,-912.51C365.07,-918.88 400.38,-926.69 432,-930 512.45,-938.42 533.42,-937.01 614,-930 631.5,-928.48 650.22,-925.78 667.72,-922.79"/>
<polygon fill="#63b8ff" stroke="#63b8ff" points="668.62,-926.18 677.86,-921 667.41,-919.29 668.62,-926.18"/>
</g>
<!-- Node7 -->
<g id="node7" class="node">
<title>Node7</title>
<g id="a_node7"><a xlink:href="structImGuiWindowSettings.html#a7a480e4ccc61ce5b8a4ac92d28ff5fd1" target="_top" xlink:title=" ">
<polygon fill="white" stroke="#666666" points="585.5,-921 460.5,-921 460.5,-891 585.5,-891 585.5,-921"/>
<text text-anchor="start" x="468.5" y="-909" font-family="Helvetica,sans-Serif" font-size="10.00">ImGuiWindowSettings</text>
<text text-anchor="middle" x="523" y="-898" font-family="Helvetica,sans-Serif" font-size="10.00">::GetName</text>
</a>
</g>
</g>
<!-- Node2&#45;&gt;Node7 -->
<g id="edge6" class="edge">
<title>Node2&#45;&gt;Node7</title>
<path fill="none" stroke="#63b8ff" d="M396.11,-904.26C414.26,-904.51 433.06,-904.77 450.42,-905.01"/>
<polygon fill="#63b8ff" stroke="#63b8ff" points="450.42,-908.51 460.46,-905.15 450.51,-901.51 450.42,-908.51"/>
</g>
<!-- Node2&#45;&gt;Node8 -->
<g id="edge7" class="edge">
<title>Node2&#45;&gt;Node8</title>
<path fill="none" stroke="#63b8ff" d="M356.32,-893.47C393.72,-886.59 443.62,-877.41 478.85,-870.94"/>
<polygon fill="#63b8ff" stroke="#63b8ff" points="479.63,-874.35 488.83,-869.1 478.36,-867.47 479.63,-874.35"/>
</g>
<!-- Node4 -->
<g id="node4" class="node">
<title>Node4</title>
<g id="a_node4"><a xlink:href="structImVector.html#ac371dd62e56ae486b1a5038cf07eee56" target="_top" xlink:title=" ">
<polygon fill="white" stroke="#666666" points="1432.5,-777.5 1337.5,-777.5 1337.5,-758.5 1432.5,-758.5 1432.5,-777.5"/>
<text text-anchor="middle" x="1385" y="-765.5" font-family="Helvetica,sans-Serif" font-size="10.00">ImVector::resize</text>
</a>
</g>
</g>
<!-- Node3&#45;&gt;Node4 -->
<g id="edge3" class="edge">
<title>Node3&#45;&gt;Node4</title>
<path fill="none" stroke="#63b8ff" d="M803.11,-894.58C928.54,-867.24 1211.71,-805.54 1330.24,-779.71"/>
<polygon fill="#63b8ff" stroke="#63b8ff" points="1331.15,-783.1 1340.17,-777.55 1329.66,-776.26 1331.15,-783.1"/>
</g>
<!-- Node5 -->
<g id="node5" class="node">
<title>Node5</title>
<g id="a_node5"><a xlink:href="structImVector.html#a3a097635d464b1b70dc7d59996a88b28" target="_top" xlink:title=" ">
<polygon fill="white" stroke="#666666" points="1675.5,-712.5 1533.5,-712.5 1533.5,-693.5 1675.5,-693.5 1675.5,-712.5"/>
<text text-anchor="middle" x="1604.5" y="-700.5" font-family="Helvetica,sans-Serif" font-size="10.00">ImVector::_grow_capacity</text>
</a>
</g>
</g>
<!-- Node4&#45;&gt;Node5 -->
<g id="edge4" class="edge">
<title>Node4&#45;&gt;Node5</title>
<path fill="none" stroke="#63b8ff" d="M1432.77,-758.9C1445.87,-756.05 1460.06,-752.68 1473,-749 1506.4,-739.51 1543.68,-726.07 1569.82,-716.17"/>
<polygon fill="#63b8ff" stroke="#63b8ff" points="1571.17,-719.4 1579.26,-712.56 1568.67,-712.86 1571.17,-719.4"/>
</g>
<!-- Node6 -->
<g id="node6" class="node">
<title>Node6</title>
<g id="a_node6"><a xlink:href="structImVector.html#a0f14f5736c3372157856eebb67123b75" target="_top" xlink:title=" ">
<polygon fill="white" stroke="#666666" points="1656,-767.5 1553,-767.5 1553,-748.5 1656,-748.5 1656,-767.5"/>
<text text-anchor="middle" x="1604.5" y="-755.5" font-family="Helvetica,sans-Serif" font-size="10.00">ImVector::reserve</text>
</a>
</g>
</g>
<!-- Node4&#45;&gt;Node6 -->
<g id="edge5" class="edge">
<title>Node4&#45;&gt;Node6</title>
<path fill="none" stroke="#63b8ff" d="M1432.66,-765.85C1464.81,-764.38 1507.85,-762.4 1542.68,-760.8"/>
<polygon fill="#63b8ff" stroke="#63b8ff" points="1542.91,-764.29 1552.74,-760.33 1542.59,-757.3 1542.91,-764.29"/>
</g>
<!-- Node10 -->
<g id="node10" class="node">
<title>Node10</title>
<g id="a_node10"><a xlink:href="structImGuiStorage.html#aaf87a98ede89da09113b0189f6d878ca" target="_top" xlink:title=" ">
<polygon fill="white" stroke="#666666" points="1244.5,-759.5 1103.5,-759.5 1103.5,-740.5 1244.5,-740.5 1244.5,-759.5"/>
<text text-anchor="middle" x="1174" y="-747.5" font-family="Helvetica,sans-Serif" font-size="10.00">ImGuiStorage::GetVoidPtr</text>
</a>
</g>
</g>
<!-- Node9&#45;&gt;Node10 -->
<g id="edge9" class="edge">
<title>Node9&#45;&gt;Node10</title>
<path fill="none" stroke="#63b8ff" d="M370.74,-831.86C502.38,-843.62 805.36,-861.26 1051,-805 1069.7,-800.72 1115.04,-779.08 1144.86,-764.25"/>
<polygon fill="#63b8ff" stroke="#63b8ff" points="1146.57,-767.31 1153.95,-759.71 1143.44,-761.05 1146.57,-767.31"/>
</g>
<!-- Node11 -->
<g id="node11" class="node">
<title>Node11</title>
<g id="a_node11"><a xlink:href="imgui_8cpp.html#a409bfd6de574854cd644636ea13b6a8a" target="_top" xlink:title=" ">
<polygon fill="white" stroke="#666666" points="1429.5,-740.5 1340.5,-740.5 1340.5,-721.5 1429.5,-721.5 1429.5,-740.5"/>
<text text-anchor="middle" x="1385" y="-728.5" font-family="Helvetica,sans-Serif" font-size="10.00">ImLowerBound</text>
</a>
</g>
</g>
<!-- Node10&#45;&gt;Node11 -->
<g id="edge10" class="edge">
<title>Node10&#45;&gt;Node11</title>
<path fill="none" stroke="#63b8ff" d="M1244.59,-743.67C1272.48,-741.14 1304.11,-738.26 1330.19,-735.89"/>
<polygon fill="#63b8ff" stroke="#63b8ff" points="1330.61,-739.37 1340.25,-734.98 1329.98,-732.4 1330.61,-739.37"/>
</g>
<!-- Node13 -->
<g id="node13" class="node">
<title>Node13</title>
<g id="a_node13"><a xlink:href="structImChunkStream.html#a10a9b29c856b3f84ce8811ebfaf2cfe8" target="_top" xlink:title=" ">
<polygon fill="white" stroke="#666666" points="1668.5,-87.5 1540.5,-87.5 1540.5,-68.5 1668.5,-68.5 1668.5,-87.5"/>
<text text-anchor="middle" x="1604.5" y="-75.5" font-family="Helvetica,sans-Serif" font-size="10.00">ImChunkStream::begin</text>
</a>
</g>
</g>
<!-- Node12&#45;&gt;Node13 -->
<g id="edge12" class="edge">
<title>Node12&#45;&gt;Node13</title>
<path fill="none" stroke="#63b8ff" d="M1261.2,-76.4C1340.09,-76.77 1455.58,-77.31 1530.15,-77.66"/>
<polygon fill="#63b8ff" stroke="#63b8ff" points="1530.37,-81.16 1540.39,-77.71 1530.41,-74.16 1530.37,-81.16"/>
</g>
<!-- Node14 -->
<g id="node14" class="node">
<title>Node14</title>
<g id="a_node14"><a xlink:href="structImChunkStream.html#a3a99f21ce1867d694104d740ac7ab133" target="_top" xlink:title=" ">
<polygon fill="white" stroke="#666666" points="1446.5,-172 1323.5,-172 1323.5,-142 1446.5,-142 1446.5,-172"/>
<text text-anchor="start" x="1331.5" y="-160" font-family="Helvetica,sans-Serif" font-size="10.00">ImChunkStream::next</text>
<text text-anchor="middle" x="1385" y="-149" font-family="Helvetica,sans-Serif" font-size="10.00">_chunk</text>
</a>
</g>
</g>
<!-- Node12&#45;&gt;Node14 -->
<g id="edge13" class="edge">
<title>Node12&#45;&gt;Node14</title>
<path fill="none" stroke="#63b8ff" d="M1199.8,-85.61C1233.1,-98.52 1293,-121.73 1335.44,-138.18"/>
<polygon fill="#63b8ff" stroke="#63b8ff" points="1334.43,-141.54 1345.02,-141.89 1336.96,-135.01 1334.43,-141.54"/>
</g>
<!-- Node14&#45;&gt;Node13 -->
<g id="edge14" class="edge">
<title>Node14&#45;&gt;Node13</title>
<path fill="none" stroke="#63b8ff" d="M1442.22,-141.99C1452.79,-138.14 1463.49,-133.5 1473,-128 1491.53,-117.29 1489.79,-105.45 1509,-96 1515.77,-92.67 1523.1,-89.95 1530.57,-87.73"/>
<polygon fill="#63b8ff" stroke="#63b8ff" points="1531.69,-91.06 1540.45,-85.1 1529.88,-84.29 1531.69,-91.06"/>
</g>
<!-- Node15 -->
<g id="node15" class="node">
<title>Node15</title>
<g id="a_node15"><a xlink:href="structImChunkStream.html#a1a83609aaee47cf8b59a8ae09a04a06b" target="_top" xlink:title=" ">
<polygon fill="white" stroke="#666666" points="1682,-161.5 1527,-161.5 1527,-142.5 1682,-142.5 1682,-161.5"/>
<text text-anchor="middle" x="1604.5" y="-149.5" font-family="Helvetica,sans-Serif" font-size="10.00">ImChunkStream::chunk_size</text>
</a>
</g>
</g>
<!-- Node14&#45;&gt;Node15 -->
<g id="edge15" class="edge">
<title>Node14&#45;&gt;Node15</title>
<path fill="none" stroke="#63b8ff" d="M1446.59,-155.61C1468.27,-155.11 1493.15,-154.54 1516.61,-154"/>
<polygon fill="#63b8ff" stroke="#63b8ff" points="1517,-157.49 1526.92,-153.76 1516.84,-150.49 1517,-157.49"/>
</g>
<!-- Node16 -->
<g id="node16" class="node">
<title>Node16</title>
<g id="a_node16"><a xlink:href="structImChunkStream.html#a5c7faa90ac7fa02140a3298dbfdd5cad" target="_top" xlink:title=" ">
<polygon fill="white" stroke="#666666" points="1664,-124.5 1545,-124.5 1545,-105.5 1664,-105.5 1664,-124.5"/>
<text text-anchor="middle" x="1604.5" y="-112.5" font-family="Helvetica,sans-Serif" font-size="10.00">ImChunkStream::end</text>
</a>
</g>
</g>
<!-- Node14&#45;&gt;Node16 -->
<g id="edge16" class="edge">
<title>Node14&#45;&gt;Node16</title>
<path fill="none" stroke="#63b8ff" d="M1446.67,-145.11C1466.53,-141.23 1488.7,-136.91 1509,-133 1520.03,-130.87 1531.8,-128.62 1543.14,-126.45"/>
<polygon fill="#63b8ff" stroke="#63b8ff" points="1543.81,-129.89 1552.98,-124.58 1542.5,-123.01 1543.81,-129.89"/>
</g>
<!-- Node18 -->
<g id="node18" class="node">
<title>Node18</title>
<g id="a_node18"><a xlink:href="namespaceImGui.html#a52be73f2abd2d0320469ba138f7c6d59" target="_top" xlink:title=" ">
<polygon fill="white" stroke="#666666" points="1051,-759.5 867,-759.5 867,-740.5 1051,-740.5 1051,-759.5"/>
<text text-anchor="middle" x="959" y="-747.5" font-family="Helvetica,sans-Serif" font-size="10.00">ImGui::DockContextFindNodeByID</text>
</a>
</g>
</g>
<!-- Node17&#45;&gt;Node18 -->
<g id="edge19" class="edge">
<title>Node17&#45;&gt;Node18</title>
<path fill="none" stroke="#63b8ff" d="M369.25,-733.78C483.35,-736.93 721,-743.47 856.89,-747.22"/>
<polygon fill="#63b8ff" stroke="#63b8ff" points="856.8,-750.71 866.9,-747.49 857,-743.72 856.8,-750.71"/>
</g>
<!-- Node19 -->
<g id="node19" class="node">
<title>Node19</title>
<g id="a_node19"><a xlink:href="namespaceImGui.html#ab52284ace3da5320ccc6e29ea8781aaa" target="_top" xlink:title=" ">
<polygon fill="white" stroke="#666666" points="606.5,-722.5 439.5,-722.5 439.5,-703.5 606.5,-703.5 606.5,-722.5"/>
<text text-anchor="middle" x="523" y="-710.5" font-family="Helvetica,sans-Serif" font-size="10.00">ImGui::DockNodeGetRootNode</text>
</a>
</g>
</g>
<!-- Node17&#45;&gt;Node19 -->
<g id="edge21" class="edge">
<title>Node17&#45;&gt;Node19</title>
<path fill="none" stroke="#63b8ff" d="M369.17,-726.35C388.02,-724.7 409,-722.87 429.23,-721.1"/>
<polygon fill="#63b8ff" stroke="#63b8ff" points="429.75,-724.57 439.4,-720.22 429.14,-717.6 429.75,-724.57"/>
</g>
<!-- Node20 -->
<g id="node20" class="node">
<title>Node20</title>
<g id="a_node20"><a xlink:href="namespaceImGui.html#a7707fcf2071bef8bb8681ed58b87c56e" target="_top" xlink:title=" ">
<polygon fill="white" stroke="#666666" points="614,-571.5 432,-571.5 432,-552.5 614,-552.5 614,-571.5"/>
<text text-anchor="middle" x="523" y="-559.5" font-family="Helvetica,sans-Serif" font-size="10.00">ImGui::DockNodeRemoveWindow</text>
</a>
</g>
</g>
<!-- Node17&#45;&gt;Node20 -->
<g id="edge22" class="edge">
<title>Node17&#45;&gt;Node20</title>
<path fill="none" stroke="#63b8ff" d="M316.82,-722.37C352.71,-694.32 457.45,-612.45 501.79,-577.79"/>
<polygon fill="#63b8ff" stroke="#63b8ff" points="504.09,-580.44 509.82,-571.52 499.78,-574.92 504.09,-580.44"/>
</g>
<!-- Node18&#45;&gt;Node10 -->
<g id="edge20" class="edge">
<title>Node18&#45;&gt;Node10</title>
<path fill="none" stroke="#63b8ff" d="M1051.26,-750C1065.11,-750 1079.32,-750 1092.92,-750"/>
<polygon fill="#63b8ff" stroke="#63b8ff" points="1093.18,-753.5 1103.18,-750 1093.18,-746.5 1093.18,-753.5"/>
</g>
<!-- Node21 -->
<g id="node21" class="node">
<title>Node21</title>
<g id="a_node21"><a xlink:href="namespaceImGui.html#a69ff368895db4bdc84de9ff21b52fddc" target="_top" xlink:title=" ">
<polygon fill="white" stroke="#666666" points="831,-609.5 650,-609.5 650,-590.5 831,-590.5 831,-609.5"/>
<text text-anchor="middle" x="740.5" y="-597.5" font-family="Helvetica,sans-Serif" font-size="10.00">ImGui::DockContextRemoveNode</text>
</a>
</g>
</g>
<!-- Node20&#45;&gt;Node21 -->
<g id="edge23" class="edge">
<title>Node20&#45;&gt;Node21</title>
<path fill="none" stroke="#63b8ff" d="M578.1,-571.54C607.56,-576.73 644.21,-583.2 675.13,-588.65"/>
<polygon fill="#63b8ff" stroke="#63b8ff" points="674.92,-592.17 685.38,-590.46 676.14,-585.27 674.92,-592.17"/>
</g>
<!-- Node33 -->
<g id="node33" class="node">
<title>Node33</title>
<g id="a_node33"><a xlink:href="namespaceImGui.html#a42a888a71f6295199994f5c3aa65f9d6" target="_top" xlink:title=" ">
<polygon fill="white" stroke="#666666" points="1700,-247.5 1509,-247.5 1509,-228.5 1700,-228.5 1700,-247.5"/>
<text text-anchor="middle" x="1604.5" y="-235.5" font-family="Helvetica,sans-Serif" font-size="10.00">ImGui::DockNodeUpdateVisibleFlag</text>
</a>
</g>
</g>
<!-- Node20&#45;&gt;Node33 -->
<g id="edge61" class="edge">
<title>Node20&#45;&gt;Node33</title>
<path fill="none" stroke="#63b8ff" d="M524.63,-552.3C527.97,-509.43 547.65,-335.92 650,-262 761.31,-181.61 820.7,-238 958,-238 958,-238 958,-238 1175,-238 1285.38,-238 1411.75,-238 1498.5,-238"/>
<polygon fill="#63b8ff" stroke="#63b8ff" points="1498.62,-241.5 1508.62,-238 1498.62,-234.5 1498.62,-241.5"/>
</g>
<!-- Node34 -->
<g id="node34" class="node">
<title>Node34</title>
<g id="a_node34"><a xlink:href="structImGuiDockNode.html#a65a6bb0809083aef0edbf937c90b83f6" target="_top" xlink:title=" ">
<polygon fill="white" stroke="#666666" points="1907,-266.5 1736,-266.5 1736,-247.5 1907,-247.5 1907,-266.5"/>
<text text-anchor="middle" x="1821.5" y="-254.5" font-family="Helvetica,sans-Serif" font-size="10.00">ImGuiDockNode::IsCentralNode</text>
</a>
</g>
</g>
<!-- Node20&#45;&gt;Node34 -->
<g id="edge66" class="edge">
<title>Node20&#45;&gt;Node34</title>
<path fill="none" stroke="#63b8ff" d="M530.22,-552.2C546.85,-526.69 594.79,-457.34 650,-416 770.36,-325.87 807.63,-276 958,-276 958,-276 958,-276 1386,-276 1502.93,-276 1637.4,-269.05 1725.4,-263.55"/>
<polygon fill="#63b8ff" stroke="#63b8ff" points="1725.87,-267.03 1735.63,-262.91 1725.43,-260.04 1725.87,-267.03"/>
</g>
<!-- Node35 -->
<g id="node35" class="node">
<title>Node35</title>
<g id="a_node35"><a xlink:href="structImGuiDockNode.html#a2f06798d0770e6894d27ec776b5d7538" target="_top" xlink:title=" ">
<polygon fill="white" stroke="#666666" points="1903.5,-148.5 1739.5,-148.5 1739.5,-129.5 1903.5,-129.5 1903.5,-148.5"/>
<text text-anchor="middle" x="1821.5" y="-136.5" font-family="Helvetica,sans-Serif" font-size="10.00">ImGuiDockNode::IsDockSpace</text>
</a>
</g>
</g>
<!-- Node20&#45;&gt;Node35 -->
<g id="edge67" class="edge">
<title>Node20&#45;&gt;Node35</title>
<path fill="none" stroke="#63b8ff" d="M524.31,-552.38C526.33,-504.64 541.38,-290.57 650,-171 750.26,-60.63 808.89,-38 958,-38 958,-38 958,-38 1386,-38 1525.87,-38 1567.52,-14.15 1700,-59 1740.49,-72.71 1780.42,-103.57 1802.63,-122.7"/>
<polygon fill="#63b8ff" stroke="#63b8ff" points="1800.42,-125.42 1810.23,-129.4 1805.04,-120.16 1800.42,-125.42"/>
</g>
<!-- Node40 -->
<g id="node37" class="node">
<title>Node40</title>
<g id="a_node37"><a xlink:href="namespaceImGui.html#a85d7262320ed7ce8e40863b99f8db4a3" target="_top" xlink:title=" ">
<polygon fill="white" stroke="#666666" points="1683,-210 1526,-210 1526,-180 1683,-180 1683,-210"/>
<text text-anchor="start" x="1534" y="-198" font-family="Helvetica,sans-Serif" font-size="10.00">ImGui::UpdateWindowParent</text>
<text text-anchor="middle" x="1604.5" y="-187" font-family="Helvetica,sans-Serif" font-size="10.00">AndRootLinks</text>
</a>
</g>
</g>
<!-- Node20&#45;&gt;Node40 -->
<g id="edge71" class="edge">
<title>Node20&#45;&gt;Node40</title>
<path fill="none" stroke="#63b8ff" d="M523.98,-552.36C524.48,-505.59 533.44,-300.99 650,-215 760.29,-133.64 820.95,-200 958,-200 958,-200 958,-200 1175,-200 1292.9,-200 1429.04,-198.08 1515.65,-196.62"/>
<polygon fill="#63b8ff" stroke="#63b8ff" points="1515.76,-200.12 1525.7,-196.45 1515.64,-193.12 1515.76,-200.12"/>
</g>
<!-- Node41 -->
<g id="node38" class="node">
<title>Node41</title>
<g id="a_node38"><a xlink:href="namespaceImGui.html#ad0e39bff5ef1bbdd6ba22c133f211da7" target="_top" xlink:title=" ">
<polygon fill="white" stroke="#666666" points="1473,-452.5 1297,-452.5 1297,-433.5 1473,-433.5 1473,-452.5"/>
<text text-anchor="middle" x="1385" y="-440.5" font-family="Helvetica,sans-Serif" font-size="10.00">ImGui::DockNodeRemoveTabBar</text>
</a>
</g>
</g>
<!-- Node20&#45;&gt;Node41 -->
<g id="edge60" class="edge">
<title>Node20&#45;&gt;Node41</title>
<path fill="none" stroke="#63b8ff" d="M614.12,-566.01C786.05,-572.1 1153.34,-577.1 1261,-515 1285.99,-500.59 1273.09,-477.13 1297,-461 1299.26,-459.48 1301.62,-458.08 1304.06,-456.79"/>
<polygon fill="#63b8ff" stroke="#63b8ff" points="1305.55,-459.96 1313.19,-452.62 1302.64,-453.59 1305.55,-459.96"/>
</g>
<!-- Node49 -->
<g id="node46" class="node">
<title>Node49</title>
<g id="a_node46"><a xlink:href="structImVector.html#a2f88ac70791f2da6d4168d7b29f38f1e" target="_top" xlink:title=" ">
<polygon fill="white" stroke="#666666" points="1005.5,-722.5 912.5,-722.5 912.5,-703.5 1005.5,-703.5 1005.5,-722.5"/>
<text text-anchor="middle" x="959" y="-710.5" font-family="Helvetica,sans-Serif" font-size="10.00">ImVector::erase</text>
</a>
</g>
</g>
<!-- Node20&#45;&gt;Node49 -->
<g id="edge62" class="edge">
<title>Node20&#45;&gt;Node49</title>
<path fill="none" stroke="#63b8ff" d="M533.77,-571.72C553.73,-590.95 601.4,-633.82 650,-655 672.8,-664.94 820.2,-690.27 902.54,-703.94"/>
<polygon fill="#63b8ff" stroke="#63b8ff" points="902.06,-707.41 912.49,-705.59 903.2,-700.5 902.06,-707.41"/>
</g>
<!-- Node50 -->
<g id="node47" class="node">
<title>Node50</title>
<g id="a_node47"><a xlink:href="structImVector.html#a4e9214ecaa413240f76223500dbed912" target="_top" xlink:title=" ">
<polygon fill="white" stroke="#666666" points="798.5,-722.5 682.5,-722.5 682.5,-703.5 798.5,-703.5 798.5,-722.5"/>
<text text-anchor="middle" x="740.5" y="-710.5" font-family="Helvetica,sans-Serif" font-size="10.00">ImVector::find_erase</text>
</a>
</g>
</g>
<!-- Node20&#45;&gt;Node50 -->
<g id="edge63" class="edge">
<title>Node20&#45;&gt;Node50</title>
<path fill="none" stroke="#63b8ff" d="M530.7,-571.66C547.72,-595.44 595.19,-657.21 650,-689 657.97,-693.62 666.86,-697.38 675.85,-700.43"/>
<polygon fill="#63b8ff" stroke="#63b8ff" points="675.02,-703.83 685.61,-703.46 677.09,-697.15 675.02,-703.83"/>
</g>
<!-- Node52 -->
<g id="node49" class="node">
<title>Node52</title>
<g id="a_node49"><a xlink:href="namespaceImGui.html#a3340d8c07dca35527b618288f091a0f7" target="_top" xlink:title=" ">
<polygon fill="white" stroke="#666666" points="811.5,-646.5 669.5,-646.5 669.5,-627.5 811.5,-627.5 811.5,-646.5"/>
<text text-anchor="middle" x="740.5" y="-634.5" font-family="Helvetica,sans-Serif" font-size="10.00">ImGui::TabBarRemoveTab</text>
</a>
</g>
</g>
<!-- Node20&#45;&gt;Node52 -->
<g id="edge68" class="edge">
<title>Node20&#45;&gt;Node52</title>
<path fill="none" stroke="#63b8ff" d="M542.31,-571.6C566.41,-583.9 610.38,-605.15 650,-618 658.23,-620.67 667.02,-623.07 675.74,-625.18"/>
<polygon fill="#63b8ff" stroke="#63b8ff" points="675.01,-628.6 685.54,-627.45 676.59,-621.78 675.01,-628.6"/>
</g>
<!-- Node21&#45;&gt;Node18 -->
<g id="edge24" class="edge">
<title>Node21&#45;&gt;Node18</title>
<path fill="none" stroke="#63b8ff" d="M818.9,-609.68C823.25,-611.97 827.34,-614.72 831,-618 870.26,-653.17 827.87,-695.69 867,-731 868.7,-732.54 870.5,-733.96 872.37,-735.28"/>
<polygon fill="#63b8ff" stroke="#63b8ff" points="870.63,-738.32 881.01,-740.43 874.21,-732.31 870.63,-738.32"/>
</g>
<!-- Node22 -->
<g id="node22" class="node">
<title>Node22</title>
<g id="a_node22"><a xlink:href="namespaceImGui.html#a973b84ddd0e62151719cb562847b1291" target="_top" xlink:title=" ">
<polygon fill="white" stroke="#666666" points="1035.5,-476.5 882.5,-476.5 882.5,-457.5 1035.5,-457.5 1035.5,-476.5"/>
<text text-anchor="middle" x="959" y="-464.5" font-family="Helvetica,sans-Serif" font-size="10.00">ImGui::DockNodeTreeMerge</text>
</a>
</g>
</g>
<!-- Node21&#45;&gt;Node22 -->
<g id="edge25" class="edge">
<title>Node21&#45;&gt;Node22</title>
<path fill="none" stroke="#63b8ff" d="M757.07,-590.43C794.27,-567.58 888.56,-509.66 933.48,-482.06"/>
<polygon fill="#63b8ff" stroke="#63b8ff" points="935.59,-484.87 942.28,-476.66 931.93,-478.91 935.59,-484.87"/>
</g>
<!-- Node42 -->
<g id="node39" class="node">
<title>Node42</title>
<g id="a_node39"><a xlink:href="imgui_8h.html#a3c856832c3fe1da8767a9353da3707e1" target="_top" xlink:title=" ">
<polygon fill="white" stroke="#666666" points="1640,-545.5 1569,-545.5 1569,-526.5 1640,-526.5 1640,-545.5"/>
<text text-anchor="middle" x="1604.5" y="-533.5" font-family="Helvetica,sans-Serif" font-size="10.00">IM_DELETE</text>
</a>
</g>
</g>
<!-- Node21&#45;&gt;Node42 -->
<g id="edge58" class="edge">
<title>Node21&#45;&gt;Node42</title>
<path fill="none" stroke="#63b8ff" d="M831.3,-600.67C935,-600.73 1110.63,-598.62 1261,-586 1355.83,-578.04 1378.86,-569.87 1473,-556 1501.6,-551.79 1533.69,-546.87 1558.9,-542.97"/>
<polygon fill="#63b8ff" stroke="#63b8ff" points="1559.55,-546.41 1568.9,-541.41 1558.48,-539.49 1559.55,-546.41"/>
</g>
<!-- Node46 -->
<g id="node43" class="node">
<title>Node46</title>
<g id="a_node43"><a xlink:href="structImGuiStorage.html#a55f840086b3ec9cf63c67f02d159204a" target="_top" xlink:title=" ">
<polygon fill="white" stroke="#666666" points="1244,-694.5 1104,-694.5 1104,-675.5 1244,-675.5 1244,-694.5"/>
<text text-anchor="middle" x="1174" y="-682.5" font-family="Helvetica,sans-Serif" font-size="10.00">ImGuiStorage::SetVoidPtr</text>
</a>
</g>
</g>
<!-- Node21&#45;&gt;Node46 -->
<g id="edge59" class="edge">
<title>Node21&#45;&gt;Node46</title>
<path fill="none" stroke="#63b8ff" d="M797.27,-609.52C859.35,-620.29 962.58,-638.72 1051,-657 1074.99,-661.96 1101.51,-667.98 1123.68,-673.17"/>
<polygon fill="#63b8ff" stroke="#63b8ff" points="1123,-676.6 1133.54,-675.48 1124.6,-669.79 1123,-676.6"/>
</g>
<!-- Node23 -->
<g id="node23" class="node">
<title>Node23</title>
<g id="a_node23"><a xlink:href="namespaceImGui.html#af879255fe0be69945ceff4b832026a71" target="_top" xlink:title=" ">
<polygon fill="white" stroke="#666666" points="1257.5,-458 1090.5,-458 1090.5,-428 1257.5,-428 1257.5,-458"/>
<text text-anchor="start" x="1098.5" y="-446" font-family="Helvetica,sans-Serif" font-size="10.00">ImGui::DockNodeApplyPosSize</text>
<text text-anchor="middle" x="1174" y="-435" font-family="Helvetica,sans-Serif" font-size="10.00">ToWindows</text>
</a>
</g>
</g>
<!-- Node22&#45;&gt;Node23 -->
<g id="edge26" class="edge">
<title>Node22&#45;&gt;Node23</title>
<path fill="none" stroke="#63b8ff" d="M1035.7,-458.47C1050.07,-456.85 1065.27,-455.14 1080.11,-453.47"/>
<polygon fill="#63b8ff" stroke="#63b8ff" points="1080.77,-456.91 1090.32,-452.32 1079.99,-449.96 1080.77,-456.91"/>
</g>
<!-- Node27 -->
<g id="node27" class="node">
<title>Node27</title>
<g id="a_node27"><a xlink:href="namespaceImGui.html#a7b90f51f0d3548a567fdc90a69035e0d" target="_top" xlink:title=" ">
<polygon fill="white" stroke="#666666" points="1251,-410 1097,-410 1097,-380 1251,-380 1251,-410"/>
<text text-anchor="start" x="1105" y="-398" font-family="Helvetica,sans-Serif" font-size="10.00">ImGui::DockNodeMoveChild</text>
<text text-anchor="middle" x="1174" y="-387" font-family="Helvetica,sans-Serif" font-size="10.00">Nodes</text>
</a>
</g>
</g>
<!-- Node22&#45;&gt;Node27 -->
<g id="edge32" class="edge">
<title>Node22&#45;&gt;Node27</title>
<path fill="none" stroke="#63b8ff" d="M983.65,-457.34C1008.99,-447.15 1050.49,-430.97 1087,-419 1093.33,-416.92 1099.97,-414.87 1106.62,-412.88"/>
<polygon fill="#63b8ff" stroke="#63b8ff" points="1107.73,-416.21 1116.35,-410.04 1105.77,-409.49 1107.73,-416.21"/>
</g>
<!-- Node28 -->
<g id="node28" class="node">
<title>Node28</title>
<g id="a_node28"><a xlink:href="namespaceImGui.html#a8f314ce935f9160d4bdde3ba8fe8d24f" target="_top" xlink:title=" ">
<polygon fill="white" stroke="#666666" points="1260.5,-361.5 1087.5,-361.5 1087.5,-342.5 1260.5,-342.5 1260.5,-361.5"/>
<text text-anchor="middle" x="1174" y="-349.5" font-family="Helvetica,sans-Serif" font-size="10.00">ImGui::DockNodeMoveWindows</text>
</a>
</g>
</g>
<!-- Node22&#45;&gt;Node28 -->
<g id="edge33" class="edge">
<title>Node22&#45;&gt;Node28</title>
<path fill="none" stroke="#63b8ff" d="M969.55,-457.39C989.5,-437.91 1037.81,-393.7 1087,-371 1092.34,-368.54 1098.01,-366.39 1103.8,-364.51"/>
<polygon fill="#63b8ff" stroke="#63b8ff" points="1105.01,-367.8 1113.61,-361.6 1103.02,-361.09 1105.01,-367.8"/>
</g>
<!-- Node22&#45;&gt;Node42 -->
<g id="edge51" class="edge">
<title>Node22&#45;&gt;Node42</title>
<path fill="none" stroke="#63b8ff" d="M979.64,-476.7C1004.11,-488.24 1047.51,-506.95 1087,-515 1258.5,-549.94 1468.46,-543.83 1558.75,-538.94"/>
<polygon fill="#63b8ff" stroke="#63b8ff" points="1559.11,-542.43 1568.9,-538.37 1558.72,-535.44 1559.11,-542.43"/>
</g>
<!-- Node45 -->
<g id="node42" class="node">
<title>Node45</title>
<g id="a_node42"><a xlink:href="namespaceImGui.html#a62a4dbebb5015352589459596f16b26c" target="_top" xlink:title=" ">
<polygon fill="white" stroke="#666666" points="1252.5,-172 1095.5,-172 1095.5,-142 1252.5,-142 1252.5,-172"/>
<text text-anchor="start" x="1103.5" y="-160" font-family="Helvetica,sans-Serif" font-size="10.00">ImGui::DockSettingsRename</text>
<text text-anchor="middle" x="1174" y="-149" font-family="Helvetica,sans-Serif" font-size="10.00">NodeReferences</text>
</a>
</g>
</g>
<!-- Node22&#45;&gt;Node45 -->
<g id="edge48" class="edge">
<title>Node22&#45;&gt;Node45</title>
<path fill="none" stroke="#63b8ff" d="M966.61,-457.38C995.72,-415.01 1113.03,-244.29 1156.6,-180.87"/>
<polygon fill="#63b8ff" stroke="#63b8ff" points="1159.69,-182.55 1162.47,-172.32 1153.92,-178.58 1159.69,-182.55"/>
</g>
<!-- Node22&#45;&gt;Node46 -->
<g id="edge52" class="edge">
<title>Node22&#45;&gt;Node46</title>
<path fill="none" stroke="#63b8ff" d="M969.43,-476.65C1002.62,-510.63 1114.38,-625.01 1156.64,-668.25"/>
<polygon fill="#63b8ff" stroke="#63b8ff" points="1154.19,-670.76 1163.68,-675.46 1159.2,-665.86 1154.19,-670.76"/>
</g>
<!-- Node48 -->
<g id="node45" class="node">
<title>Node48</title>
<g id="a_node45"><a xlink:href="structImGuiDockNode.html#a87a708d19b6f2e22c15d6d378c8b71e2" target="_top" xlink:title=" ">
<polygon fill="white" stroke="#666666" points="1261,-506 1087,-506 1087,-476 1261,-476 1261,-506"/>
<text text-anchor="start" x="1095" y="-494" font-family="Helvetica,sans-Serif" font-size="10.00">ImGuiDockNode::UpdateMerged</text>
<text text-anchor="middle" x="1174" y="-483" font-family="Helvetica,sans-Serif" font-size="10.00">Flags</text>
</a>
</g>
</g>
<!-- Node22&#45;&gt;Node48 -->
<g id="edge57" class="edge">
<title>Node22&#45;&gt;Node48</title>
<path fill="none" stroke="#63b8ff" d="M1035.7,-475.53C1048.97,-477.03 1062.95,-478.6 1076.7,-480.15"/>
<polygon fill="#63b8ff" stroke="#63b8ff" points="1076.33,-483.63 1086.66,-481.27 1077.11,-476.67 1076.33,-483.63"/>
</g>
<!-- Node24 -->
<g id="node24" class="node">
<title>Node24</title>
<g id="a_node24"><a xlink:href="namespaceImGui.html#aaa81e004de4c0a5cedb836e92e8aa0e5" target="_top" xlink:title=" ">
<polygon fill="white" stroke="#666666" points="1447,-397.5 1323,-397.5 1323,-378.5 1447,-378.5 1447,-397.5"/>
<text text-anchor="middle" x="1385" y="-385.5" font-family="Helvetica,sans-Serif" font-size="10.00">ImGui::SetWindowPos</text>
</a>
</g>
</g>
<!-- Node23&#45;&gt;Node24 -->
<g id="edge27" class="edge">
<title>Node23&#45;&gt;Node24</title>
<path fill="none" stroke="#63b8ff" d="M1232.11,-427.97C1265.37,-419.22 1306.76,-408.33 1337.93,-400.12"/>
<polygon fill="#63b8ff" stroke="#63b8ff" points="1338.89,-403.49 1347.67,-397.56 1337.11,-396.72 1338.89,-403.49"/>
</g>
<!-- Node26 -->
<g id="node26" class="node">
<title>Node26</title>
<g id="a_node26"><a xlink:href="namespaceImGui.html#a657c6cc2246485332f608a5204447ea1" target="_top" xlink:title=" ">
<polygon fill="white" stroke="#666666" points="1448.5,-489.5 1321.5,-489.5 1321.5,-470.5 1448.5,-470.5 1448.5,-489.5"/>
<text text-anchor="middle" x="1385" y="-477.5" font-family="Helvetica,sans-Serif" font-size="10.00">ImGui::SetWindowSize</text>
</a>
</g>
</g>
<!-- Node23&#45;&gt;Node26 -->
<g id="edge30" class="edge">
<title>Node23&#45;&gt;Node26</title>
<path fill="none" stroke="#63b8ff" d="M1257.6,-457.62C1278.4,-461.3 1300.4,-465.2 1320.12,-468.69"/>
<polygon fill="#63b8ff" stroke="#63b8ff" points="1319.75,-472.18 1330.2,-470.48 1320.97,-465.29 1319.75,-472.18"/>
</g>
<!-- Node24&#45;&gt;Node24 -->
<g id="edge29" class="edge">
<title>Node24&#45;&gt;Node24</title>
<path fill="none" stroke="#63b8ff" d="M1352.63,-397.58C1336.89,-406.23 1347.68,-415.5 1385,-415.5 1411.83,-415.5 1424.95,-410.71 1424.36,-404.81"/>
<polygon fill="#63b8ff" stroke="#63b8ff" points="1426.84,-402.34 1417.37,-397.58 1421.8,-407.2 1426.84,-402.34"/>
</g>
<!-- Node25 -->
<g id="node25" class="node">
<title>Node25</title>
<g id="a_node25"><a xlink:href="namespaceImGui.html#a055af7d6b7b4ae977a9c3c25a98e0d2f" target="_top" xlink:title=" ">
<polygon fill="white" stroke="#666666" points="1689,-445.5 1520,-445.5 1520,-426.5 1689,-426.5 1689,-445.5"/>
<text text-anchor="middle" x="1604.5" y="-433.5" font-family="Helvetica,sans-Serif" font-size="10.00">ImGui::GetCurrentWindowRead</text>
</a>
</g>
</g>
<!-- Node24&#45;&gt;Node25 -->
<g id="edge28" class="edge">
<title>Node24&#45;&gt;Node25</title>
<path fill="none" stroke="#63b8ff" d="M1424.98,-397.54C1449.13,-403.36 1480.81,-410.85 1509,-417 1520.38,-419.49 1532.56,-422.02 1544.26,-424.4"/>
<polygon fill="#63b8ff" stroke="#63b8ff" points="1543.89,-427.9 1554.39,-426.45 1545.28,-421.04 1543.89,-427.9"/>
</g>
<!-- Node26&#45;&gt;Node26 -->
<g id="edge31" class="edge">
<title>Node26&#45;&gt;Node26</title>
<path fill="none" stroke="#63b8ff" d="M1352.63,-489.58C1336.89,-498.23 1347.68,-507.5 1385,-507.5 1411.83,-507.5 1424.95,-502.71 1424.36,-496.81"/>
<polygon fill="#63b8ff" stroke="#63b8ff" points="1426.84,-494.34 1417.37,-489.58 1421.8,-499.2 1426.84,-494.34"/>
</g>
<!-- Node29 -->
<g id="node29" class="node">
<title>Node29</title>
<g id="a_node29"><a xlink:href="structImVector.html#ae2d401b4ec5f1113cdb8edb5a61a38f7" target="_top" xlink:title=" ">
<polygon fill="white" stroke="#666666" points="1430,-360.5 1340,-360.5 1340,-341.5 1430,-341.5 1430,-360.5"/>
<text text-anchor="middle" x="1385" y="-348.5" font-family="Helvetica,sans-Serif" font-size="10.00">ImVector::clear</text>
</a>
</g>
</g>
<!-- Node28&#45;&gt;Node29 -->
<g id="edge34" class="edge">
<title>Node28&#45;&gt;Node29</title>
<path fill="none" stroke="#63b8ff" d="M1260.61,-351.59C1283.96,-351.48 1308.61,-351.36 1329.68,-351.26"/>
<polygon fill="#63b8ff" stroke="#63b8ff" points="1329.74,-354.76 1339.72,-351.21 1329.71,-347.76 1329.74,-354.76"/>
</g>
<!-- Node30 -->
<g id="node30" class="node">
<title>Node30</title>
<g id="a_node30"><a xlink:href="namespaceImGui.html#a9ddcb5d005e4d92cbce85de08deae665" target="_top" xlink:title=" ">
<polygon fill="#fff0f0" stroke="red" points="1465,-323.5 1305,-323.5 1305,-304.5 1465,-304.5 1465,-323.5"/>
<text text-anchor="middle" x="1385" y="-311.5" font-family="Helvetica,sans-Serif" font-size="10.00">ImGui::DockNodeAddWindow</text>
</a>
</g>
</g>
<!-- Node28&#45;&gt;Node30 -->
<g id="edge35" class="edge">
<title>Node28&#45;&gt;Node30</title>
<path fill="none" stroke="#63b8ff" d="M1227.47,-342.46C1256.04,-337.27 1291.58,-330.8 1321.57,-325.35"/>
<polygon fill="#63b8ff" stroke="#63b8ff" points="1322.3,-328.78 1331.51,-323.54 1321.04,-321.89 1322.3,-328.78"/>
</g>
<!-- Node28&#45;&gt;Node41 -->
<g id="edge44" class="edge">
<title>Node28&#45;&gt;Node41</title>
<path fill="none" stroke="#63b8ff" d="M1242.36,-361.58C1248.95,-364.05 1255.3,-367.14 1261,-371 1284.57,-386.98 1273.41,-408.05 1297,-424 1299.97,-426.01 1303.12,-427.81 1306.39,-429.42"/>
<polygon fill="#63b8ff" stroke="#63b8ff" points="1305.3,-432.77 1315.86,-433.5 1308.06,-426.33 1305.3,-432.77"/>
</g>
<!-- Node30&#45;&gt;Node20 -->
<g id="edge38" class="edge">
<title>Node30&#45;&gt;Node20</title>
<path fill="none" stroke="#63b8ff" d="M1304.84,-312.19C1244.43,-312.46 1159.52,-316.39 1087,-333 870.98,-382.46 630.48,-504.89 551.06,-547.28"/>
<polygon fill="#63b8ff" stroke="#63b8ff" points="548.92,-544.45 541.77,-552.26 552.23,-550.62 548.92,-544.45"/>
</g>
<!-- Node31 -->
<g id="node31" class="node">
<title>Node31</title>
<g id="a_node31"><a xlink:href="namespaceImGui.html#ac621689d25d2aeeb45ee8a007080498d" target="_top" xlink:title=" ">
<polygon fill="white" stroke="#666666" points="1681.5,-371.5 1527.5,-371.5 1527.5,-352.5 1681.5,-352.5 1681.5,-371.5"/>
<text text-anchor="middle" x="1604.5" y="-359.5" font-family="Helvetica,sans-Serif" font-size="10.00">ImGui::DockNodeAddTabBar</text>
</a>
</g>
</g>
<!-- Node30&#45;&gt;Node31 -->
<g id="edge36" class="edge">
<title>Node30&#45;&gt;Node31</title>
<path fill="none" stroke="#63b8ff" d="M1436.33,-323.59C1448.39,-326.11 1461.19,-328.98 1473,-332 1489.21,-336.14 1492.78,-338.9 1509,-343 1519.43,-345.64 1530.59,-348.15 1541.45,-350.43"/>
<polygon fill="#63b8ff" stroke="#63b8ff" points="1540.8,-353.87 1551.3,-352.46 1542.21,-347.01 1540.8,-353.87"/>
</g>
<!-- Node32 -->
<g id="node32" class="node">
<title>Node32</title>
<g id="a_node32"><a xlink:href="imgui_8cpp.html#a4fbdea00c388b92d697a9c15b033d221" target="_top" xlink:title=" ">
<polygon fill="white" stroke="#666666" points="1685,-334 1524,-334 1524,-304 1685,-304 1685,-334"/>
<text text-anchor="start" x="1532" y="-322" font-family="Helvetica,sans-Serif" font-size="10.00">DockNodeHideWindowDuring</text>
<text text-anchor="middle" x="1604.5" y="-311" font-family="Helvetica,sans-Serif" font-size="10.00">HostWindowCreation</text>
</a>
</g>
</g>
<!-- Node30&#45;&gt;Node32 -->
<g id="edge37" class="edge">
<title>Node30&#45;&gt;Node32</title>
<path fill="none" stroke="#63b8ff" d="M1465.14,-315.82C1480.78,-316.18 1497.31,-316.56 1513.29,-316.93"/>
<polygon fill="#63b8ff" stroke="#63b8ff" points="1513.61,-320.43 1523.69,-317.17 1513.77,-313.44 1513.61,-320.43"/>
</g>
<!-- Node30&#45;&gt;Node33 -->
<g id="edge39" class="edge">
<title>Node30&#45;&gt;Node33</title>
<path fill="none" stroke="#63b8ff" d="M1413.55,-304.37C1452.36,-290.81 1523.24,-266.05 1566.58,-250.9"/>
<polygon fill="#63b8ff" stroke="#63b8ff" points="1567.89,-254.15 1576.18,-247.55 1565.58,-247.54 1567.89,-254.15"/>
</g>
<!-- Node36 -->
<g id="node36" class="node">
<title>Node36</title>
<g id="a_node36"><a xlink:href="structImGuiDockNode.html#a65218fbb8d4629246096dd8fe5d1f219" target="_top" xlink:title=" ">
<polygon fill="white" stroke="#666666" points="1692.5,-408.5 1516.5,-408.5 1516.5,-389.5 1692.5,-389.5 1692.5,-408.5"/>
<text text-anchor="middle" x="1604.5" y="-396.5" font-family="Helvetica,sans-Serif" font-size="10.00">ImGuiDockNode::IsFloatingNode</text>
</a>
</g>
</g>
<!-- Node30&#45;&gt;Node36 -->
<g id="edge42" class="edge">
<title>Node30&#45;&gt;Node36</title>
<path fill="none" stroke="#63b8ff" d="M1455.72,-323.59C1461.8,-325.85 1467.66,-328.61 1473,-332 1495.51,-346.29 1486.45,-365.77 1509,-380 1512.23,-382.04 1515.64,-383.87 1519.17,-385.5"/>
<polygon fill="#63b8ff" stroke="#63b8ff" points="1518.16,-388.87 1528.74,-389.4 1520.8,-382.39 1518.16,-388.87"/>
</g>
<!-- Node30&#45;&gt;Node40 -->
<g id="edge43" class="edge">
<title>Node30&#45;&gt;Node40</title>
<path fill="none" stroke="#63b8ff" d="M1395.57,-304.31C1415.09,-285.1 1461.7,-242.04 1509,-219 1513.05,-217.03 1517.27,-215.21 1521.6,-213.53"/>
<polygon fill="#63b8ff" stroke="#63b8ff" points="1522.97,-216.76 1531.19,-210.07 1520.59,-210.17 1522.97,-216.76"/>
</g>
<!-- Node33&#45;&gt;Node34 -->
<g id="edge40" class="edge">
<title>Node33&#45;&gt;Node34</title>
<path fill="none" stroke="#63b8ff" d="M1700.12,-246.36C1708.7,-247.12 1717.39,-247.89 1725.98,-248.65"/>
<polygon fill="#63b8ff" stroke="#63b8ff" points="1725.72,-252.14 1735.99,-249.53 1726.33,-245.16 1725.72,-252.14"/>
</g>
<!-- Node33&#45;&gt;Node35 -->
<g id="edge41" class="edge">
<title>Node33&#45;&gt;Node35</title>
<path fill="none" stroke="#63b8ff" d="M1670.29,-228.45C1680.43,-225.97 1690.64,-222.87 1700,-219 1739.09,-202.83 1778.92,-173.29 1801.58,-154.99"/>
<polygon fill="#63b8ff" stroke="#63b8ff" points="1803.89,-157.63 1809.39,-148.57 1799.44,-152.22 1803.89,-157.63"/>
</g>
<!-- Node41&#45;&gt;Node42 -->
<g id="edge45" class="edge">
<title>Node41&#45;&gt;Node42</title>
<path fill="none" stroke="#63b8ff" d="M1445.22,-452.61C1454.66,-454.89 1464.2,-457.66 1473,-461 1513.69,-476.45 1556.67,-503.54 1581.74,-520.59"/>
<polygon fill="#63b8ff" stroke="#63b8ff" points="1579.91,-523.57 1590.13,-526.37 1583.88,-517.81 1579.91,-523.57"/>
</g>
<!-- Node43 -->
<g id="node40" class="node">
<title>Node43</title>
<g id="a_node40"><a xlink:href="namespaceImGui.html#a269ec695c6e722ec3da85dae37f0675d" target="_top" xlink:title=" ">
<polygon fill="white" stroke="#666666" points="1870.5,-545.5 1772.5,-545.5 1772.5,-526.5 1870.5,-526.5 1870.5,-545.5"/>
<text text-anchor="middle" x="1821.5" y="-533.5" font-family="Helvetica,sans-Serif" font-size="10.00">ImGui::MemFree</text>
</a>
</g>
</g>
<!-- Node42&#45;&gt;Node43 -->
<g id="edge46" class="edge">
<title>Node42&#45;&gt;Node43</title>
<path fill="none" stroke="#63b8ff" d="M1640.04,-536C1672.95,-536 1723.13,-536 1762.23,-536"/>
<polygon fill="#63b8ff" stroke="#63b8ff" points="1762.42,-539.5 1772.42,-536 1762.42,-532.5 1762.42,-539.5"/>
</g>
<!-- Node44 -->
<g id="node41" class="node">
<title>Node44</title>
<g id="a_node41"><a xlink:href="namespaceImGui.html#af81dc8d88fa2e5d0996163993f90ccf8" target="_top" xlink:title=" ">
<polygon fill="white" stroke="#666666" points="2076,-545.5 1943,-545.5 1943,-526.5 2076,-526.5 2076,-545.5"/>
<text text-anchor="middle" x="2009.5" y="-533.5" font-family="Helvetica,sans-Serif" font-size="10.00">ImGui::DebugAllocHook</text>
</a>
</g>
</g>
<!-- Node43&#45;&gt;Node44 -->
<g id="edge47" class="edge">
<title>Node43&#45;&gt;Node44</title>
<path fill="none" stroke="#63b8ff" d="M1870.88,-536C1889.75,-536 1911.84,-536 1932.72,-536"/>
<polygon fill="#63b8ff" stroke="#63b8ff" points="1932.85,-539.5 1942.85,-536 1932.85,-532.5 1932.85,-539.5"/>
</g>
<!-- Node45&#45;&gt;Node13 -->
<g id="edge49" class="edge">
<title>Node45&#45;&gt;Node13</title>
<path fill="none" stroke="#63b8ff" d="M1250.45,-141.95C1265.85,-138.94 1281.94,-135.83 1297,-133 1380.42,-117.31 1476.81,-100.18 1538.88,-89.27"/>
<polygon fill="#63b8ff" stroke="#63b8ff" points="1539.67,-92.69 1548.91,-87.51 1538.46,-85.79 1539.67,-92.69"/>
</g>
<!-- Node45&#45;&gt;Node14 -->
<g id="edge50" class="edge">
<title>Node45&#45;&gt;Node14</title>
<path fill="none" stroke="#63b8ff" d="M1252.53,-157C1272.41,-157 1293.69,-157 1313.22,-157"/>
<polygon fill="#63b8ff" stroke="#63b8ff" points="1313.25,-160.5 1323.25,-157 1313.25,-153.5 1313.25,-160.5"/>
</g>
<!-- Node46&#45;&gt;Node11 -->
<g id="edge53" class="edge">
<title>Node46&#45;&gt;Node11</title>
<path fill="none" stroke="#63b8ff" d="M1217.9,-694.53C1241.28,-699.71 1270.73,-706.22 1297,-712 1307.75,-714.36 1319.25,-716.88 1330.25,-719.29"/>
<polygon fill="#63b8ff" stroke="#63b8ff" points="1329.67,-722.74 1340.18,-721.46 1331.16,-715.9 1329.67,-722.74"/>
</g>
<!-- Node47 -->
<g id="node44" class="node">
<title>Node47</title>
<g id="a_node44"><a xlink:href="structImVector.html#a541c8cd4b844f5276f10d160cb500533" target="_top" xlink:title=" ">
<polygon fill="white" stroke="#666666" points="1432,-703.5 1338,-703.5 1338,-684.5 1432,-684.5 1432,-703.5"/>
<text text-anchor="middle" x="1385" y="-691.5" font-family="Helvetica,sans-Serif" font-size="10.00">ImVector::insert</text>
</a>
</g>
</g>
<!-- Node46&#45;&gt;Node47 -->
<g id="edge54" class="edge">
<title>Node46&#45;&gt;Node47</title>
<path fill="none" stroke="#63b8ff" d="M1244.01,-687.97C1271.08,-689.14 1301.75,-690.46 1327.47,-691.57"/>
<polygon fill="#63b8ff" stroke="#63b8ff" points="1327.65,-695.08 1337.8,-692.01 1327.96,-688.08 1327.65,-695.08"/>
</g>
<!-- Node47&#45;&gt;Node5 -->
<g id="edge55" class="edge">
<title>Node47&#45;&gt;Node5</title>
<path fill="none" stroke="#63b8ff" d="M1432.13,-695.91C1458.57,-697 1492.5,-698.41 1523.18,-699.68"/>
<polygon fill="#63b8ff" stroke="#63b8ff" points="1523.31,-703.18 1533.45,-700.1 1523.6,-696.19 1523.31,-703.18"/>
</g>
<!-- Node47&#45;&gt;Node6 -->
<g id="edge56" class="edge">
<title>Node47&#45;&gt;Node6</title>
<path fill="none" stroke="#63b8ff" d="M1432.33,-702.38C1445.56,-705.1 1459.92,-708.36 1473,-712 1506.45,-721.31 1543.73,-734.77 1569.85,-744.73"/>
<polygon fill="#63b8ff" stroke="#63b8ff" points="1568.69,-748.03 1579.28,-748.36 1571.2,-741.5 1568.69,-748.03"/>
</g>
<!-- Node50&#45;&gt;Node49 -->
<g id="edge64" class="edge">
<title>Node50&#45;&gt;Node49</title>
<path fill="none" stroke="#63b8ff" d="M798.67,-713C830.66,-713 870.37,-713 902.15,-713"/>
<polygon fill="#63b8ff" stroke="#63b8ff" points="902.17,-716.5 912.17,-713 902.17,-709.5 902.17,-716.5"/>
</g>
<!-- Node51 -->
<g id="node48" class="node">
<title>Node51</title>
<g id="a_node48"><a xlink:href="structImVector.html#a406417c3efef769d4bee47df2188831a" target="_top" xlink:title=" ">
<polygon fill="white" stroke="#666666" points="1001,-796.5 917,-796.5 917,-777.5 1001,-777.5 1001,-796.5"/>
<text text-anchor="middle" x="959" y="-784.5" font-family="Helvetica,sans-Serif" font-size="10.00">ImVector::find</text>
</a>
</g>
</g>
<!-- Node50&#45;&gt;Node51 -->
<g id="edge65" class="edge">
<title>Node50&#45;&gt;Node51</title>
<path fill="none" stroke="#63b8ff" d="M760.16,-722.64C784.27,-734.76 827.8,-755.47 867,-768 879.74,-772.07 893.77,-775.5 906.92,-778.27"/>
<polygon fill="#63b8ff" stroke="#63b8ff" points="906.27,-781.71 916.76,-780.27 907.65,-774.85 906.27,-781.71"/>
</g>
<!-- Node52&#45;&gt;Node49 -->
<g id="edge69" class="edge">
<title>Node52&#45;&gt;Node49</title>
<path fill="none" stroke="#63b8ff" d="M793.78,-646.52C806.42,-650.03 819.58,-654.73 831,-661 850.03,-671.44 847.69,-684.09 867,-694 877.88,-699.58 890.3,-703.52 902.38,-706.31"/>
<polygon fill="#63b8ff" stroke="#63b8ff" points="901.91,-709.78 912.41,-708.38 903.33,-702.93 901.91,-709.78"/>
</g>
<!-- Node39 -->
<g id="node50" class="node">
<title>Node39</title>
<g id="a_node50"><a xlink:href="namespaceImGui.html#a892525a74a6206eabbeb851071b3119a" target="_top" xlink:title=" ">
<polygon fill="white" stroke="#666666" points="1031.5,-685.5 886.5,-685.5 886.5,-666.5 1031.5,-666.5 1031.5,-685.5"/>
<text text-anchor="middle" x="959" y="-673.5" font-family="Helvetica,sans-Serif" font-size="10.00">ImGui::TabBarFindTabByID</text>
</a>
</g>
</g>
<!-- Node52&#45;&gt;Node39 -->
<g id="edge70" class="edge">
<title>Node52&#45;&gt;Node39</title>
<path fill="none" stroke="#63b8ff" d="M794.46,-646.54C824.85,-652.01 863.18,-658.92 895.09,-664.67"/>
<polygon fill="#63b8ff" stroke="#63b8ff" points="894.75,-668.16 905.21,-666.49 895.99,-661.27 894.75,-668.16"/>
</g>
</g>
</svg>
