<?xml version="1.0" encoding="UTF-8" standalone="no"?>
<!DOCTYPE svg PUBLIC "-//W3C//DTD SVG 1.1//EN"
 "http://www.w3.org/Graphics/SVG/1.1/DTD/svg11.dtd">
<!-- Generated by graphviz version 2.43.0 (0)
 -->
<!-- Title: GraphEditor::HandleQuadSelection Pages: 1 -->
<svg width="1319pt" height="557pt"
 viewBox="0.00 0.00 1319.00 557.00" xmlns="http://www.w3.org/2000/svg" xmlns:xlink="http://www.w3.org/1999/xlink">
<g id="graph0" class="graph" transform="scale(1 1) rotate(0) translate(4 553)">
<title>GraphEditor::HandleQuadSelection</title>
<!-- Node1 -->
<g id="node1" class="node">
<title>Node1</title>
<g id="a_node1"><a xlink:title=" ">
<polygon fill="#999999" stroke="#666666" points="185,-232.5 0,-232.5 0,-213.5 185,-213.5 185,-232.5"/>
<text text-anchor="middle" x="92.5" y="-220.5" font-family="Helvetica,sans-Serif" font-size="10.00">GraphEditor::HandleQuadSelection</text>
</a>
</g>
</g>
<!-- Node2 -->
<g id="node2" class="node">
<title>Node2</title>
<g id="a_node2"><a xlink:href="structImDrawList.html#ad96f10a3e954fe0c5b7c96d4e205af7b" target="_top" xlink:title=" ">
<polygon fill="white" stroke="#666666" points="353,-425.5 234,-425.5 234,-406.5 353,-406.5 353,-425.5"/>
<text text-anchor="middle" x="293.5" y="-413.5" font-family="Helvetica,sans-Serif" font-size="10.00">ImDrawList::AddRect</text>
</a>
</g>
</g>
<!-- Node1&#45;&gt;Node2 -->
<g id="edge1" class="edge">
<title>Node1&#45;&gt;Node2</title>
<path fill="none" stroke="#63b8ff" d="M98.1,-232.63C112.26,-261.26 158.07,-346.68 221,-392 226.92,-396.26 233.64,-399.8 240.55,-402.74"/>
<polygon fill="#63b8ff" stroke="#63b8ff" points="239.42,-406.06 250.01,-406.38 241.93,-399.52 239.42,-406.06"/>
</g>
<!-- Node5 -->
<g id="node5" class="node">
<title>Node5</title>
<g id="a_node5"><a xlink:href="imgui__internal_8h.html#a7f9d7828066a9d61b5630adcdf4655d3" target="_top" xlink:title=" ">
<polygon fill="white" stroke="#666666" points="689.5,-387.5 642.5,-387.5 642.5,-368.5 689.5,-368.5 689.5,-387.5"/>
<text text-anchor="middle" x="666" y="-375.5" font-family="Helvetica,sans-Serif" font-size="10.00">ImMin</text>
</a>
</g>
</g>
<!-- Node1&#45;&gt;Node5 -->
<g id="edge34" class="edge">
<title>Node1&#45;&gt;Node5</title>
<path fill="none" stroke="#63b8ff" d="M98.81,-232.59C113.89,-258.69 159.82,-330.92 221,-359 294.03,-392.51 542.13,-384.07 632.08,-379.76"/>
<polygon fill="#63b8ff" stroke="#63b8ff" points="632.43,-383.25 642.25,-379.26 632.09,-376.25 632.43,-383.25"/>
</g>
<!-- Node17 -->
<g id="node17" class="node">
<title>Node17</title>
<g id="a_node17"><a xlink:href="structImDrawList.html#a6b16ab764160b0251d2e7b3bd08c1ffc" target="_top" xlink:title=" ">
<polygon fill="white" stroke="#666666" points="366,-349.5 221,-349.5 221,-330.5 366,-330.5 366,-349.5"/>
<text text-anchor="middle" x="293.5" y="-337.5" font-family="Helvetica,sans-Serif" font-size="10.00">ImDrawList::AddRectFilled</text>
</a>
</g>
</g>
<!-- Node1&#45;&gt;Node17 -->
<g id="edge20" class="edge">
<title>Node1&#45;&gt;Node17</title>
<path fill="none" stroke="#63b8ff" d="M103.09,-232.8C123.12,-252.69 171.62,-297.94 221,-322 224.99,-323.95 229.21,-325.69 233.53,-327.26"/>
<polygon fill="#63b8ff" stroke="#63b8ff" points="232.49,-330.6 243.08,-330.42 234.69,-323.96 232.49,-330.6"/>
</g>
<!-- Node23 -->
<g id="node23" class="node">
<title>Node23</title>
<g id="a_node23"><a xlink:href="structImRect.html#ac583156fd0e9306181fff5d120b262ea" target="_top" xlink:title=" ">
<polygon fill="white" stroke="#666666" points="343.5,-312.5 243.5,-312.5 243.5,-293.5 343.5,-293.5 343.5,-312.5"/>
<text text-anchor="middle" x="293.5" y="-300.5" font-family="Helvetica,sans-Serif" font-size="10.00">ImRect::Contains</text>
</a>
</g>
</g>
<!-- Node1&#45;&gt;Node23 -->
<g id="edge29" class="edge">
<title>Node1&#45;&gt;Node23</title>
<path fill="none" stroke="#63b8ff" d="M110.33,-232.58C134.28,-245.88 179.84,-269.99 221,-285 226.62,-287.05 232.58,-288.95 238.56,-290.69"/>
<polygon fill="#63b8ff" stroke="#63b8ff" points="238.01,-294.17 248.58,-293.46 239.88,-287.43 238.01,-294.17"/>
</g>
<!-- Node24 -->
<g id="node24" class="node">
<title>Node24</title>
<g id="a_node24"><a xlink:href="namespaceImGui.html#a3179e560812f878f3961ce803a5d9302" target="_top" xlink:title=" ">
<polygon fill="white" stroke="#666666" points="333.5,-275.5 253.5,-275.5 253.5,-256.5 333.5,-256.5 333.5,-275.5"/>
<text text-anchor="middle" x="293.5" y="-263.5" font-family="Helvetica,sans-Serif" font-size="10.00">ImGui::GetIO</text>
</a>
</g>
</g>
<!-- Node1&#45;&gt;Node24 -->
<g id="edge30" class="edge">
<title>Node1&#45;&gt;Node24</title>
<path fill="none" stroke="#63b8ff" d="M137.66,-232.54C168.87,-239.29 210.72,-248.33 243.04,-255.31"/>
<polygon fill="#63b8ff" stroke="#63b8ff" points="242.66,-258.81 253.18,-257.5 244.14,-251.97 242.66,-258.81"/>
</g>
<!-- Node25 -->
<g id="node25" class="node">
<title>Node25</title>
<g id="a_node25"><a xlink:href="structGraphEditor_1_1Delegate.html#a323250ea15c43e1674050f6f57185ebd" target="_top" xlink:title=" ">
<polygon fill="white" stroke="#666666" points="356,-238 231,-238 231,-208 356,-208 356,-238"/>
<text text-anchor="start" x="239" y="-226" font-family="Helvetica,sans-Serif" font-size="10.00">GraphEditor::Delegate</text>
<text text-anchor="middle" x="293.5" y="-215" font-family="Helvetica,sans-Serif" font-size="10.00">::GetNode</text>
</a>
</g>
</g>
<!-- Node1&#45;&gt;Node25 -->
<g id="edge31" class="edge">
<title>Node1&#45;&gt;Node25</title>
<path fill="none" stroke="#63b8ff" d="M185.14,-223C197.13,-223 209.27,-223 220.87,-223"/>
<polygon fill="#63b8ff" stroke="#63b8ff" points="220.9,-226.5 230.9,-223 220.9,-219.5 220.9,-226.5"/>
</g>
<!-- Node26 -->
<g id="node26" class="node">
<title>Node26</title>
<g id="a_node26"><a xlink:href="structGraphEditor_1_1Delegate.html#a7341cdef22ec5c1ce8ab5f35f7b48b7d" target="_top" xlink:title=" ">
<polygon fill="white" stroke="#666666" points="356,-190 231,-190 231,-160 356,-160 356,-190"/>
<text text-anchor="start" x="239" y="-178" font-family="Helvetica,sans-Serif" font-size="10.00">GraphEditor::Delegate</text>
<text text-anchor="middle" x="293.5" y="-167" font-family="Helvetica,sans-Serif" font-size="10.00">::GetNodeCount</text>
</a>
</g>
</g>
<!-- Node1&#45;&gt;Node26 -->
<g id="edge32" class="edge">
<title>Node1&#45;&gt;Node26</title>
<path fill="none" stroke="#63b8ff" d="M133.29,-213.4C158.36,-207.36 191.45,-199.37 220.97,-192.25"/>
<polygon fill="#63b8ff" stroke="#63b8ff" points="221.93,-195.62 230.83,-189.88 220.29,-188.82 221.93,-195.62"/>
</g>
<!-- Node27 -->
<g id="node27" class="node">
<title>Node27</title>
<g id="a_node27"><a xlink:href="imgui__internal_8h.html#a7667efd95147d0422f140917c71a9226" target="_top" xlink:title=" ">
<polygon fill="white" stroke="#666666" points="318.5,-141.5 268.5,-141.5 268.5,-122.5 318.5,-122.5 318.5,-141.5"/>
<text text-anchor="middle" x="293.5" y="-129.5" font-family="Helvetica,sans-Serif" font-size="10.00">ImMax</text>
</a>
</g>
</g>
<!-- Node1&#45;&gt;Node27 -->
<g id="edge33" class="edge">
<title>Node1&#45;&gt;Node27</title>
<path fill="none" stroke="#63b8ff" d="M107.8,-213.31C130.77,-198.12 177.68,-168.65 221,-151 232.99,-146.12 246.62,-142.13 258.74,-139.1"/>
<polygon fill="#63b8ff" stroke="#63b8ff" points="259.58,-142.5 268.5,-136.77 257.96,-135.69 259.58,-142.5"/>
</g>
<!-- Node28 -->
<g id="node28" class="node">
<title>Node28</title>
<g id="a_node28"><a xlink:href="namespaceImGui.html#a51ed119ab4be7fcf47a34644e262c87e" target="_top" xlink:title=" ">
<polygon fill="white" stroke="#666666" points="363,-104.5 224,-104.5 224,-85.5 363,-85.5 363,-104.5"/>
<text text-anchor="middle" x="293.5" y="-92.5" font-family="Helvetica,sans-Serif" font-size="10.00">ImGui::IsWindowFocused</text>
</a>
</g>
</g>
<!-- Node1&#45;&gt;Node28 -->
<g id="edge35" class="edge">
<title>Node1&#45;&gt;Node28</title>
<path fill="none" stroke="#63b8ff" d="M102.02,-213.2C121.11,-191.86 169.69,-140.94 221,-114 225.32,-111.73 229.93,-109.72 234.66,-107.93"/>
<polygon fill="#63b8ff" stroke="#63b8ff" points="236.12,-111.13 244.45,-104.58 233.86,-104.51 236.12,-111.13"/>
</g>
<!-- Node31 -->
<g id="node31" class="node">
<title>Node31</title>
<g id="a_node31"><a xlink:href="structImRect.html#a0af3bade3781e5e7c6afdf71ccfb0d43" target="_top" xlink:title=" ">
<polygon fill="white" stroke="#666666" points="344,-67.5 243,-67.5 243,-48.5 344,-48.5 344,-67.5"/>
<text text-anchor="middle" x="293.5" y="-55.5" font-family="Helvetica,sans-Serif" font-size="10.00">ImRect::Overlaps</text>
</a>
</g>
</g>
<!-- Node1&#45;&gt;Node31 -->
<g id="edge39" class="edge">
<title>Node1&#45;&gt;Node31</title>
<path fill="none" stroke="#63b8ff" d="M98.95,-213.32C114.39,-186.85 161.15,-112.82 221,-76 224.84,-73.63 228.99,-71.58 233.27,-69.79"/>
<polygon fill="#63b8ff" stroke="#63b8ff" points="234.63,-73.02 242.82,-66.3 232.23,-66.45 234.63,-73.02"/>
</g>
<!-- Node32 -->
<g id="node32" class="node">
<title>Node32</title>
<g id="a_node32"><a xlink:href="structGraphEditor_1_1Delegate.html#a0fb43eabe5eb2e237e5d2c45d3efa547" target="_top" xlink:title=" ">
<polygon fill="white" stroke="#666666" points="356,-30 231,-30 231,0 356,0 356,-30"/>
<text text-anchor="start" x="239" y="-18" font-family="Helvetica,sans-Serif" font-size="10.00">GraphEditor::Delegate</text>
<text text-anchor="middle" x="293.5" y="-7" font-family="Helvetica,sans-Serif" font-size="10.00">::SelectNode</text>
</a>
</g>
</g>
<!-- Node1&#45;&gt;Node32 -->
<g id="edge40" class="edge">
<title>Node1&#45;&gt;Node32</title>
<path fill="none" stroke="#63b8ff" d="M97.48,-213.38C110.5,-183.08 154.82,-88.72 221,-39 222.83,-37.63 224.74,-36.33 226.72,-35.1"/>
<polygon fill="#63b8ff" stroke="#63b8ff" points="228.63,-38.04 235.72,-30.17 225.27,-31.9 228.63,-38.04"/>
</g>
<!-- Node3 -->
<g id="node3" class="node">
<title>Node3</title>
<g id="a_node3"><a xlink:href="structImDrawList.html#a2251eb264ed8b17a253c409787375053" target="_top" xlink:title=" ">
<polygon fill="white" stroke="#666666" points="537.5,-425.5 416.5,-425.5 416.5,-406.5 537.5,-406.5 537.5,-425.5"/>
<text text-anchor="middle" x="477" y="-413.5" font-family="Helvetica,sans-Serif" font-size="10.00">ImDrawList::PathRect</text>
</a>
</g>
</g>
<!-- Node2&#45;&gt;Node3 -->
<g id="edge2" class="edge">
<title>Node2&#45;&gt;Node3</title>
<path fill="none" stroke="#63b8ff" d="M353.18,-416C370.06,-416 388.64,-416 406.13,-416"/>
<polygon fill="#63b8ff" stroke="#63b8ff" points="406.28,-419.5 416.28,-416 406.28,-412.5 406.28,-419.5"/>
</g>
<!-- Node16 -->
<g id="node16" class="node">
<title>Node16</title>
<g id="a_node16"><a xlink:href="structImDrawList.html#a60bf9040ef3d09b39c4ba8f5a2a68ae9" target="_top" xlink:title=" ">
<polygon fill="white" stroke="#666666" points="542,-462.5 412,-462.5 412,-443.5 542,-443.5 542,-462.5"/>
<text text-anchor="middle" x="477" y="-450.5" font-family="Helvetica,sans-Serif" font-size="10.00">ImDrawList::PathStroke</text>
</a>
</g>
</g>
<!-- Node2&#45;&gt;Node16 -->
<g id="edge19" class="edge">
<title>Node2&#45;&gt;Node16</title>
<path fill="none" stroke="#63b8ff" d="M341.24,-425.53C364.97,-430.36 393.99,-436.28 419.01,-441.38"/>
<polygon fill="#63b8ff" stroke="#63b8ff" points="418.6,-444.87 429.1,-443.44 420,-438.01 418.6,-444.87"/>
</g>
<!-- Node4 -->
<g id="node4" class="node">
<title>Node4</title>
<g id="a_node4"><a xlink:href="imgui__draw_8cpp.html#abc26563004ba48126f2e8b70ea0067af" target="_top" xlink:title=" ">
<polygon fill="white" stroke="#666666" points="721.5,-463.5 610.5,-463.5 610.5,-444.5 721.5,-444.5 721.5,-463.5"/>
<text text-anchor="middle" x="666" y="-451.5" font-family="Helvetica,sans-Serif" font-size="10.00">FixRectCornerFlags</text>
</a>
</g>
</g>
<!-- Node3&#45;&gt;Node4 -->
<g id="edge3" class="edge">
<title>Node3&#45;&gt;Node4</title>
<path fill="none" stroke="#63b8ff" d="M525.19,-425.59C550.42,-430.72 581.67,-437.07 608.23,-442.46"/>
<polygon fill="#63b8ff" stroke="#63b8ff" points="607.65,-445.92 618.15,-444.48 609.05,-439.06 607.65,-445.92"/>
</g>
<!-- Node3&#45;&gt;Node5 -->
<g id="edge4" class="edge">
<title>Node3&#45;&gt;Node5</title>
<path fill="none" stroke="#63b8ff" d="M525.19,-406.41C558.68,-399.61 602.77,-390.65 632.41,-384.62"/>
<polygon fill="#63b8ff" stroke="#63b8ff" points="633.14,-388.05 642.25,-382.62 631.75,-381.19 633.14,-388.05"/>
</g>
<!-- Node6 -->
<g id="node6" class="node">
<title>Node6</title>
<g id="a_node6"><a xlink:href="structImDrawList.html#a6d307c6de1a6522e76fa410e8fe96fcc" target="_top" xlink:title=" ">
<polygon fill="white" stroke="#666666" points="738.5,-500.5 593.5,-500.5 593.5,-481.5 738.5,-481.5 738.5,-500.5"/>
<text text-anchor="middle" x="666" y="-488.5" font-family="Helvetica,sans-Serif" font-size="10.00">ImDrawList::PathArcToFast</text>
</a>
</g>
</g>
<!-- Node3&#45;&gt;Node6 -->
<g id="edge5" class="edge">
<title>Node3&#45;&gt;Node6</title>
<path fill="none" stroke="#63b8ff" d="M530.43,-425.51C537.95,-427.99 545.37,-431.1 552,-435 572.05,-446.8 567.82,-461.42 588,-473 591.07,-474.76 594.3,-476.35 597.63,-477.79"/>
<polygon fill="#63b8ff" stroke="#63b8ff" points="596.64,-481.15 607.23,-481.43 599.12,-474.61 596.64,-481.15"/>
</g>
<!-- Node15 -->
<g id="node15" class="node">
<title>Node15</title>
<g id="a_node15"><a xlink:href="structImDrawList.html#a828d944325ed58d8b57abd3647bffaaf" target="_top" xlink:title=" ">
<polygon fill="white" stroke="#666666" points="926,-424.5 796,-424.5 796,-405.5 926,-405.5 926,-424.5"/>
<text text-anchor="middle" x="861" y="-412.5" font-family="Helvetica,sans-Serif" font-size="10.00">ImDrawList::PathLineTo</text>
</a>
</g>
</g>
<!-- Node3&#45;&gt;Node15 -->
<g id="edge17" class="edge">
<title>Node3&#45;&gt;Node15</title>
<path fill="none" stroke="#63b8ff" d="M537.69,-415.84C604.59,-415.67 713.15,-415.38 785.54,-415.19"/>
<polygon fill="#63b8ff" stroke="#63b8ff" points="785.96,-418.69 795.95,-415.17 785.94,-411.69 785.96,-418.69"/>
</g>
<!-- Node7 -->
<g id="node7" class="node">
<title>Node7</title>
<g id="a_node7"><a xlink:href="structImDrawList.html#ac25f3a7693ed13ba2dac455675be8654" target="_top" xlink:title=" ">
<polygon fill="white" stroke="#666666" points="942,-500.5 780,-500.5 780,-481.5 942,-481.5 942,-500.5"/>
<text text-anchor="middle" x="861" y="-488.5" font-family="Helvetica,sans-Serif" font-size="10.00">ImDrawList::_PathArcToFastEx</text>
</a>
</g>
</g>
<!-- Node6&#45;&gt;Node7 -->
<g id="edge6" class="edge">
<title>Node6&#45;&gt;Node7</title>
<path fill="none" stroke="#63b8ff" d="M738.59,-491C748.65,-491 759.09,-491 769.45,-491"/>
<polygon fill="#63b8ff" stroke="#63b8ff" points="769.75,-494.5 779.75,-491 769.75,-487.5 769.75,-494.5"/>
</g>
<!-- Node11 -->
<g id="node11" class="node">
<title>Node11</title>
<g id="a_node11"><a xlink:href="structImVector.html#aab5df48e0711a48bd12f3206e08c4108" target="_top" xlink:title=" ">
<polygon fill="white" stroke="#666666" points="1114.5,-425.5 996.5,-425.5 996.5,-406.5 1114.5,-406.5 1114.5,-425.5"/>
<text text-anchor="middle" x="1055.5" y="-413.5" font-family="Helvetica,sans-Serif" font-size="10.00">ImVector::push_back</text>
</a>
</g>
</g>
<!-- Node6&#45;&gt;Node11 -->
<g id="edge16" class="edge">
<title>Node6&#45;&gt;Node11</title>
<path fill="none" stroke="#63b8ff" d="M716.47,-481.43C787.74,-467.63 919.11,-442.2 995.39,-427.44"/>
<polygon fill="#63b8ff" stroke="#63b8ff" points="996.17,-430.85 1005.32,-425.52 994.84,-423.98 996.17,-430.85"/>
</g>
<!-- Node8 -->
<g id="node8" class="node">
<title>Node8</title>
<g id="a_node8"><a xlink:href="structImDrawList.html#a52afa32aaab6d581cda90dc5d8726ed6" target="_top" xlink:title=" ">
<polygon fill="white" stroke="#666666" points="1133,-549 978,-549 978,-519 1133,-519 1133,-549"/>
<text text-anchor="start" x="986" y="-537" font-family="Helvetica,sans-Serif" font-size="10.00">ImDrawList::_CalcCircleAuto</text>
<text text-anchor="middle" x="1055.5" y="-526" font-family="Helvetica,sans-Serif" font-size="10.00">SegmentCount</text>
</a>
</g>
</g>
<!-- Node7&#45;&gt;Node8 -->
<g id="edge7" class="edge">
<title>Node7&#45;&gt;Node8</title>
<path fill="none" stroke="#63b8ff" d="M904.72,-500.54C926.14,-505.33 952.74,-511.27 977.55,-516.81"/>
<polygon fill="#63b8ff" stroke="#63b8ff" points="976.8,-520.23 987.32,-518.99 978.32,-513.4 976.8,-520.23"/>
</g>
<!-- Node9 -->
<g id="node9" class="node">
<title>Node9</title>
<g id="a_node9"><a xlink:href="imgui__internal_8h.html#aab329ad3ecb3ffc0bf9183d9edb144bb" target="_top" xlink:title=" ">
<polygon fill="white" stroke="#666666" points="1079,-500.5 1032,-500.5 1032,-481.5 1079,-481.5 1079,-500.5"/>
<text text-anchor="middle" x="1055.5" y="-488.5" font-family="Helvetica,sans-Serif" font-size="10.00">ImAbs</text>
</a>
</g>
</g>
<!-- Node7&#45;&gt;Node9 -->
<g id="edge8" class="edge">
<title>Node7&#45;&gt;Node9</title>
<path fill="none" stroke="#63b8ff" d="M942.24,-491C970.08,-491 999.76,-491 1021.6,-491"/>
<polygon fill="#63b8ff" stroke="#63b8ff" points="1021.65,-494.5 1031.65,-491 1021.65,-487.5 1021.65,-494.5"/>
</g>
<!-- Node10 -->
<g id="node10" class="node">
<title>Node10</title>
<g id="a_node10"><a xlink:href="imgui__internal_8h.html#a6e61ede308bfd68c7434e17905a29fc8" target="_top" xlink:title=" ">
<polygon fill="white" stroke="#666666" points="1086,-463.5 1025,-463.5 1025,-444.5 1086,-444.5 1086,-463.5"/>
<text text-anchor="middle" x="1055.5" y="-451.5" font-family="Helvetica,sans-Serif" font-size="10.00">ImClamp</text>
</a>
</g>
</g>
<!-- Node7&#45;&gt;Node10 -->
<g id="edge9" class="edge">
<title>Node7&#45;&gt;Node10</title>
<path fill="none" stroke="#63b8ff" d="M911.57,-481.47C943.66,-475.3 984.88,-467.38 1014.8,-461.63"/>
<polygon fill="#63b8ff" stroke="#63b8ff" points="1015.72,-465.02 1024.88,-459.69 1014.4,-458.14 1015.72,-465.02"/>
</g>
<!-- Node7&#45;&gt;Node11 -->
<g id="edge10" class="edge">
<title>Node7&#45;&gt;Node11</title>
<path fill="none" stroke="#63b8ff" d="M905.68,-481.48C917.86,-477.88 930.81,-473.13 942,-467 960.52,-456.86 959.3,-445.81 978,-436 983.22,-433.26 988.84,-430.88 994.57,-428.81"/>
<polygon fill="#63b8ff" stroke="#63b8ff" points="995.89,-432.06 1004.29,-425.62 993.7,-425.41 995.89,-432.06"/>
</g>
<!-- Node14 -->
<g id="node14" class="node">
<title>Node14</title>
<g id="a_node14"><a xlink:href="structImVector.html#ac371dd62e56ae486b1a5038cf07eee56" target="_top" xlink:title=" ">
<polygon fill="white" stroke="#666666" points="1103,-388.5 1008,-388.5 1008,-369.5 1103,-369.5 1103,-388.5"/>
<text text-anchor="middle" x="1055.5" y="-376.5" font-family="Helvetica,sans-Serif" font-size="10.00">ImVector::resize</text>
</a>
</g>
</g>
<!-- Node7&#45;&gt;Node14 -->
<g id="edge13" class="edge">
<title>Node7&#45;&gt;Node14</title>
<path fill="none" stroke="#63b8ff" d="M877,-481.4C893.49,-470.6 920.52,-452.18 942,-434 959.27,-419.38 958.3,-409.13 978,-398 984.08,-394.56 990.78,-391.74 997.61,-389.42"/>
<polygon fill="#63b8ff" stroke="#63b8ff" points="999.1,-392.63 1007.65,-386.38 997.07,-385.93 999.1,-392.63"/>
</g>
<!-- Node12 -->
<g id="node12" class="node">
<title>Node12</title>
<g id="a_node12"><a xlink:href="structImVector.html#a3a097635d464b1b70dc7d59996a88b28" target="_top" xlink:title=" ">
<polygon fill="white" stroke="#666666" points="1311,-425.5 1169,-425.5 1169,-406.5 1311,-406.5 1311,-425.5"/>
<text text-anchor="middle" x="1240" y="-413.5" font-family="Helvetica,sans-Serif" font-size="10.00">ImVector::_grow_capacity</text>
</a>
</g>
</g>
<!-- Node11&#45;&gt;Node12 -->
<g id="edge11" class="edge">
<title>Node11&#45;&gt;Node12</title>
<path fill="none" stroke="#63b8ff" d="M1114.75,-416C1128.73,-416 1143.91,-416 1158.7,-416"/>
<polygon fill="#63b8ff" stroke="#63b8ff" points="1158.86,-419.5 1168.86,-416 1158.86,-412.5 1158.86,-419.5"/>
</g>
<!-- Node13 -->
<g id="node13" class="node">
<title>Node13</title>
<g id="a_node13"><a xlink:href="structImVector.html#a0f14f5736c3372157856eebb67123b75" target="_top" xlink:title=" ">
<polygon fill="white" stroke="#666666" points="1291.5,-388.5 1188.5,-388.5 1188.5,-369.5 1291.5,-369.5 1291.5,-388.5"/>
<text text-anchor="middle" x="1240" y="-376.5" font-family="Helvetica,sans-Serif" font-size="10.00">ImVector::reserve</text>
</a>
</g>
</g>
<!-- Node11&#45;&gt;Node13 -->
<g id="edge12" class="edge">
<title>Node11&#45;&gt;Node13</title>
<path fill="none" stroke="#63b8ff" d="M1103.5,-406.47C1127.46,-401.61 1156.79,-395.67 1182.03,-390.55"/>
<polygon fill="#63b8ff" stroke="#63b8ff" points="1182.74,-393.98 1191.84,-388.56 1181.35,-387.12 1182.74,-393.98"/>
</g>
<!-- Node14&#45;&gt;Node12 -->
<g id="edge14" class="edge">
<title>Node14&#45;&gt;Node12</title>
<path fill="none" stroke="#63b8ff" d="M1103.02,-388.43C1127.08,-393.31 1156.64,-399.3 1182.05,-404.45"/>
<polygon fill="#63b8ff" stroke="#63b8ff" points="1181.43,-407.9 1191.93,-406.46 1182.82,-401.04 1181.43,-407.9"/>
</g>
<!-- Node14&#45;&gt;Node13 -->
<g id="edge15" class="edge">
<title>Node14&#45;&gt;Node13</title>
<path fill="none" stroke="#63b8ff" d="M1103.02,-379C1125.85,-379 1153.63,-379 1178.12,-379"/>
<polygon fill="#63b8ff" stroke="#63b8ff" points="1178.39,-382.5 1188.39,-379 1178.39,-375.5 1178.39,-382.5"/>
</g>
<!-- Node15&#45;&gt;Node11 -->
<g id="edge18" class="edge">
<title>Node15&#45;&gt;Node11</title>
<path fill="none" stroke="#63b8ff" d="M926.1,-415.33C945.38,-415.43 966.6,-415.54 986.15,-415.64"/>
<polygon fill="#63b8ff" stroke="#63b8ff" points="986.18,-419.15 996.19,-415.7 986.21,-412.15 986.18,-419.15"/>
</g>
<!-- Node17&#45;&gt;Node3 -->
<g id="edge22" class="edge">
<title>Node17&#45;&gt;Node3</title>
<path fill="none" stroke="#63b8ff" d="M317.49,-349.63C349.4,-362.99 407.28,-387.23 443.58,-402.42"/>
<polygon fill="#63b8ff" stroke="#63b8ff" points="442.62,-405.82 453.2,-406.45 445.33,-399.36 442.62,-405.82"/>
</g>
<!-- Node18 -->
<g id="node18" class="node">
<title>Node18</title>
<g id="a_node18"><a xlink:href="structImDrawList.html#aea9301cb99ebf4b27f5d3959017567c9" target="_top" xlink:title=" ">
<polygon fill="white" stroke="#666666" points="552,-312.5 402,-312.5 402,-293.5 552,-293.5 552,-312.5"/>
<text text-anchor="middle" x="477" y="-300.5" font-family="Helvetica,sans-Serif" font-size="10.00">ImDrawList::PathFillConvex</text>
</a>
</g>
</g>
<!-- Node17&#45;&gt;Node18 -->
<g id="edge21" class="edge">
<title>Node17&#45;&gt;Node18</title>
<path fill="none" stroke="#63b8ff" d="M341.24,-330.47C364.97,-325.64 393.99,-319.72 419.01,-314.62"/>
<polygon fill="#63b8ff" stroke="#63b8ff" points="420,-317.99 429.1,-312.56 418.6,-311.13 420,-317.99"/>
</g>
<!-- Node19 -->
<g id="node19" class="node">
<title>Node19</title>
<g id="a_node19"><a xlink:href="structImDrawList.html#ae2be093563f1d20b8190b7c423113925" target="_top" xlink:title=" ">
<polygon fill="white" stroke="#666666" points="538,-275.5 416,-275.5 416,-256.5 538,-256.5 538,-275.5"/>
<text text-anchor="middle" x="477" y="-263.5" font-family="Helvetica,sans-Serif" font-size="10.00">ImDrawList::PrimRect</text>
</a>
</g>
</g>
<!-- Node17&#45;&gt;Node19 -->
<g id="edge23" class="edge">
<title>Node17&#45;&gt;Node19</title>
<path fill="none" stroke="#63b8ff" d="M346.99,-330.39C353.61,-328.14 360.12,-325.39 366,-322 385.88,-310.54 382.15,-296.5 402,-285 405.85,-282.77 409.96,-280.8 414.19,-279.06"/>
<polygon fill="#63b8ff" stroke="#63b8ff" points="415.44,-282.33 423.62,-275.59 413.03,-275.76 415.44,-282.33"/>
</g>
<!-- Node20 -->
<g id="node20" class="node">
<title>Node20</title>
<g id="a_node20"><a xlink:href="structImDrawList.html#a879aa38dbfb0344e3e023d65c002c7d7" target="_top" xlink:title=" ">
<polygon fill="white" stroke="#666666" points="547,-349.5 407,-349.5 407,-330.5 547,-330.5 547,-349.5"/>
<text text-anchor="middle" x="477" y="-337.5" font-family="Helvetica,sans-Serif" font-size="10.00">ImDrawList::PrimReserve</text>
</a>
</g>
</g>
<!-- Node17&#45;&gt;Node20 -->
<g id="edge24" class="edge">
<title>Node17&#45;&gt;Node20</title>
<path fill="none" stroke="#63b8ff" d="M366.23,-340C376.27,-340 386.62,-340 396.78,-340"/>
<polygon fill="#63b8ff" stroke="#63b8ff" points="396.86,-343.5 406.86,-340 396.86,-336.5 396.86,-343.5"/>
</g>
<!-- Node20&#45;&gt;Node14 -->
<g id="edge28" class="edge">
<title>Node20&#45;&gt;Node14</title>
<path fill="none" stroke="#63b8ff" d="M519.21,-330.42C529.92,-327.81 541.42,-324.9 552,-322 568.13,-317.58 571.45,-313.47 588,-311 744.06,-287.69 788.83,-300.11 942,-338 970.13,-344.96 1000.97,-356.49 1023.24,-365.56"/>
<polygon fill="#63b8ff" stroke="#63b8ff" points="1021.95,-368.81 1032.53,-369.4 1024.62,-362.34 1021.95,-368.81"/>
</g>
<!-- Node21 -->
<g id="node21" class="node">
<title>Node21</title>
<g id="a_node21"><a xlink:href="structImDrawList.html#a7f2e315f147acd8b555d86d1557659cc" target="_top" xlink:title=" ">
<polygon fill="white" stroke="#666666" points="744,-350 588,-350 588,-320 744,-320 744,-350"/>
<text text-anchor="start" x="596" y="-338" font-family="Helvetica,sans-Serif" font-size="10.00">ImDrawList::_OnChangedVtx</text>
<text text-anchor="middle" x="666" y="-327" font-family="Helvetica,sans-Serif" font-size="10.00">Offset</text>
</a>
</g>
</g>
<!-- Node20&#45;&gt;Node21 -->
<g id="edge25" class="edge">
<title>Node20&#45;&gt;Node21</title>
<path fill="none" stroke="#63b8ff" d="M547.1,-338.15C557.09,-337.89 567.48,-337.61 577.76,-337.33"/>
<polygon fill="#63b8ff" stroke="#63b8ff" points="578.09,-340.83 588,-337.06 577.91,-333.83 578.09,-340.83"/>
</g>
<!-- Node22 -->
<g id="node22" class="node">
<title>Node22</title>
<g id="a_node22"><a xlink:href="structImDrawList.html#a846714bb0321c6f1f908767abc8559e6" target="_top" xlink:title=" ">
<polygon fill="white" stroke="#666666" points="933.5,-365.5 788.5,-365.5 788.5,-346.5 933.5,-346.5 933.5,-365.5"/>
<text text-anchor="middle" x="861" y="-353.5" font-family="Helvetica,sans-Serif" font-size="10.00">ImDrawList::AddDrawCmd</text>
</a>
</g>
</g>
<!-- Node21&#45;&gt;Node22 -->
<g id="edge26" class="edge">
<title>Node21&#45;&gt;Node22</title>
<path fill="none" stroke="#63b8ff" d="M744.11,-343.39C755.28,-344.61 766.82,-345.86 778.08,-347.09"/>
<polygon fill="#63b8ff" stroke="#63b8ff" points="778.01,-350.6 788.33,-348.2 778.77,-343.64 778.01,-350.6"/>
</g>
<!-- Node22&#45;&gt;Node11 -->
<g id="edge27" class="edge">
<title>Node22&#45;&gt;Node11</title>
<path fill="none" stroke="#63b8ff" d="M885.72,-365.51C908.98,-374.61 945.56,-388.35 978,-398 985.18,-400.14 992.81,-402.19 1000.35,-404.09"/>
<polygon fill="#63b8ff" stroke="#63b8ff" points="999.63,-407.51 1010.17,-406.49 1001.29,-400.71 999.63,-407.51"/>
</g>
<!-- Node29 -->
<g id="node29" class="node">
<title>Node29</title>
<g id="a_node29"><a xlink:href="imgui_8cpp.html#a2e83689d96690f83f8eb8373bc00e18c" target="_top" xlink:title=" ">
<polygon fill="white" stroke="#666666" points="738.5,-104.5 593.5,-104.5 593.5,-85.5 738.5,-85.5 738.5,-104.5"/>
<text text-anchor="middle" x="666" y="-92.5" font-family="Helvetica,sans-Serif" font-size="10.00">GetCombinedRootWindow</text>
</a>
</g>
</g>
<!-- Node28&#45;&gt;Node29 -->
<g id="edge36" class="edge">
<title>Node28&#45;&gt;Node29</title>
<path fill="none" stroke="#63b8ff" d="M363.32,-95C425.49,-95 517.1,-95 583.04,-95"/>
<polygon fill="#63b8ff" stroke="#63b8ff" points="583.39,-98.5 593.39,-95 583.39,-91.5 583.39,-98.5"/>
</g>
<!-- Node30 -->
<g id="node30" class="node">
<title>Node30</title>
<g id="a_node30"><a xlink:href="namespaceImGui.html#a9ac223b9e17540da02c233d29914689d" target="_top" xlink:title=" ">
<polygon fill="white" stroke="#666666" points="544.5,-85.5 409.5,-85.5 409.5,-66.5 544.5,-66.5 544.5,-85.5"/>
<text text-anchor="middle" x="477" y="-73.5" font-family="Helvetica,sans-Serif" font-size="10.00">ImGui::IsWindowChildOf</text>
</a>
</g>
</g>
<!-- Node28&#45;&gt;Node30 -->
<g id="edge37" class="edge">
<title>Node28&#45;&gt;Node30</title>
<path fill="none" stroke="#63b8ff" d="M363.12,-87.82C374.96,-86.58 387.34,-85.28 399.38,-84.02"/>
<polygon fill="#63b8ff" stroke="#63b8ff" points="399.81,-87.5 409.39,-82.97 399.08,-80.53 399.81,-87.5"/>
</g>
<!-- Node30&#45;&gt;Node29 -->
<g id="edge38" class="edge">
<title>Node30&#45;&gt;Node29</title>
<path fill="none" stroke="#63b8ff" d="M544.72,-82.78C557.13,-84.04 570.24,-85.37 583.05,-86.67"/>
<polygon fill="#63b8ff" stroke="#63b8ff" points="582.93,-90.18 593.24,-87.71 583.64,-83.22 582.93,-90.18"/>
</g>
</g>
</svg>
