<?xml version="1.0" encoding="UTF-8" standalone="no"?>
<!DOCTYPE svg PUBLIC "-//W3C//DTD SVG 1.1//EN"
 "http://www.w3.org/Graphics/SVG/1.1/DTD/svg11.dtd">
<!-- Generated by graphviz version 2.43.0 (0)
 -->
<!-- Title: ImGui::TreePushOverrideID Pages: 1 -->
<svg width="832pt" height="102pt"
 viewBox="0.00 0.00 832.00 102.00" xmlns="http://www.w3.org/2000/svg" xmlns:xlink="http://www.w3.org/1999/xlink">
<g id="graph0" class="graph" transform="scale(1 1) rotate(0) translate(4 98)">
<title>ImGui::TreePushOverrideID</title>
<!-- Node1 -->
<g id="node1" class="node">
<title>Node1</title>
<g id="a_node1"><a xlink:title=" ">
<polygon fill="#999999" stroke="#666666" points="148,-75 0,-75 0,-56 148,-56 148,-75"/>
<text text-anchor="middle" x="74" y="-63" font-family="Helvetica,sans-Serif" font-size="10.00">ImGui::TreePushOverrideID</text>
</a>
</g>
</g>
<!-- Node2 -->
<g id="node2" class="node">
<title>Node2</title>
<g id="a_node2"><a xlink:href="namespaceImGui.html#a6c7b9f2d60951462eeebad80154a8926" target="_top" xlink:title=" ">
<polygon fill="white" stroke="#666666" points="289.5,-94 206.5,-94 206.5,-75 289.5,-75 289.5,-94"/>
<text text-anchor="middle" x="248" y="-82" font-family="Helvetica,sans-Serif" font-size="10.00">ImGui::Indent</text>
</a>
</g>
</g>
<!-- Node1&#45;&gt;Node2 -->
<g id="edge1" class="edge">
<title>Node1&#45;&gt;Node2</title>
<path fill="none" stroke="#63b8ff" d="M148.44,-73.61C164.47,-75.38 181.09,-77.22 196.01,-78.87"/>
<polygon fill="#63b8ff" stroke="#63b8ff" points="195.72,-82.36 206.04,-79.98 196.49,-75.4 195.72,-82.36"/>
</g>
<!-- Node4 -->
<g id="node4" class="node">
<title>Node4</title>
<g id="a_node4"><a xlink:href="namespaceImGui.html#acff64eb876d279cfe1cc6129ccd19930" target="_top" xlink:title=" ">
<polygon fill="white" stroke="#666666" points="312,-57 184,-57 184,-38 312,-38 312,-57"/>
<text text-anchor="middle" x="248" y="-45" font-family="Helvetica,sans-Serif" font-size="10.00">ImGui::PushOverrideID</text>
</a>
</g>
</g>
<!-- Node1&#45;&gt;Node4 -->
<g id="edge3" class="edge">
<title>Node1&#45;&gt;Node4</title>
<path fill="none" stroke="#63b8ff" d="M148.44,-57.81C156.82,-56.94 165.35,-56.04 173.72,-55.17"/>
<polygon fill="#63b8ff" stroke="#63b8ff" points="174.25,-58.63 183.83,-54.11 173.52,-51.67 174.25,-58.63"/>
</g>
<!-- Node3 -->
<g id="node3" class="node">
<title>Node3</title>
<g id="a_node3"><a xlink:href="namespaceImGui.html#ac452417b5004ca16a814a72cff153526" target="_top" xlink:title=" ">
<polygon fill="white" stroke="#666666" points="492,-94 348,-94 348,-75 492,-75 492,-94"/>
<text text-anchor="middle" x="420" y="-82" font-family="Helvetica,sans-Serif" font-size="10.00">ImGui::GetCurrentWindow</text>
</a>
</g>
</g>
<!-- Node2&#45;&gt;Node3 -->
<g id="edge2" class="edge">
<title>Node2&#45;&gt;Node3</title>
<path fill="none" stroke="#63b8ff" d="M289.72,-84.5C304.12,-84.5 320.87,-84.5 337.44,-84.5"/>
<polygon fill="#63b8ff" stroke="#63b8ff" points="337.72,-88 347.72,-84.5 337.72,-81 337.72,-88"/>
</g>
<!-- Node5 -->
<g id="node5" class="node">
<title>Node5</title>
<g id="a_node5"><a xlink:href="namespaceImGui.html#a5487269f4cb9fb809fd3e797411ed2d7" target="_top" xlink:title=" ">
<polygon fill="white" stroke="#666666" points="488.5,-57 351.5,-57 351.5,-38 488.5,-38 488.5,-57"/>
<text text-anchor="middle" x="420" y="-45" font-family="Helvetica,sans-Serif" font-size="10.00">ImGui::DebugHookIdInfo</text>
</a>
</g>
</g>
<!-- Node4&#45;&gt;Node5 -->
<g id="edge4" class="edge">
<title>Node4&#45;&gt;Node5</title>
<path fill="none" stroke="#63b8ff" d="M312.3,-47.5C321.76,-47.5 331.6,-47.5 341.32,-47.5"/>
<polygon fill="#63b8ff" stroke="#63b8ff" points="341.37,-51 351.37,-47.5 341.37,-44 341.37,-51"/>
</g>
<!-- Node10 -->
<g id="node10" class="node">
<title>Node10</title>
<g id="a_node10"><a xlink:href="structImVector.html#aab5df48e0711a48bd12f3206e08c4108" target="_top" xlink:title=" ">
<polygon fill="white" stroke="#666666" points="646,-19 528,-19 528,0 646,0 646,-19"/>
<text text-anchor="middle" x="587" y="-7" font-family="Helvetica,sans-Serif" font-size="10.00">ImVector::push_back</text>
</a>
</g>
</g>
<!-- Node4&#45;&gt;Node10 -->
<g id="edge9" class="edge">
<title>Node4&#45;&gt;Node10</title>
<path fill="none" stroke="#63b8ff" d="M293.18,-37.94C310.24,-34.54 329.96,-30.94 348,-28.5 404.83,-20.8 469.74,-15.88 517.41,-12.97"/>
<polygon fill="#63b8ff" stroke="#63b8ff" points="517.84,-16.45 527.61,-12.37 517.42,-9.47 517.84,-16.45"/>
</g>
<!-- Node6 -->
<g id="node6" class="node">
<title>Node6</title>
<g id="a_node6"><a xlink:href="imgui_8cpp.html#a75ccaf7d676b1f567ba888ae42ac3809" target="_top" xlink:title=" ">
<polygon fill="white" stroke="#666666" points="633,-56 541,-56 541,-37 633,-37 633,-56"/>
<text text-anchor="middle" x="587" y="-44" font-family="Helvetica,sans-Serif" font-size="10.00">ImFormatString</text>
</a>
</g>
</g>
<!-- Node5&#45;&gt;Node6 -->
<g id="edge5" class="edge">
<title>Node5&#45;&gt;Node6</title>
<path fill="none" stroke="#63b8ff" d="M488.59,-47.09C502.63,-47.01 517.27,-46.92 530.8,-46.83"/>
<polygon fill="#63b8ff" stroke="#63b8ff" points="530.93,-50.33 540.91,-46.77 530.89,-43.33 530.93,-50.33"/>
</g>
<!-- Node7 -->
<g id="node7" class="node">
<title>Node7</title>
<g id="a_node7"><a xlink:href="structImVector.html#ac371dd62e56ae486b1a5038cf07eee56" target="_top" xlink:title=" ">
<polygon fill="white" stroke="#666666" points="634.5,-93 539.5,-93 539.5,-74 634.5,-74 634.5,-93"/>
<text text-anchor="middle" x="587" y="-81" font-family="Helvetica,sans-Serif" font-size="10.00">ImVector::resize</text>
</a>
</g>
</g>
<!-- Node5&#45;&gt;Node7 -->
<g id="edge6" class="edge">
<title>Node5&#45;&gt;Node7</title>
<path fill="none" stroke="#63b8ff" d="M464.78,-57.05C485.56,-61.59 510.58,-67.05 532.48,-71.82"/>
<polygon fill="#63b8ff" stroke="#63b8ff" points="531.78,-75.25 542.3,-73.97 533.27,-68.41 531.78,-75.25"/>
</g>
<!-- Node8 -->
<g id="node8" class="node">
<title>Node8</title>
<g id="a_node8"><a xlink:href="structImVector.html#a3a097635d464b1b70dc7d59996a88b28" target="_top" xlink:title=" ">
<polygon fill="white" stroke="#666666" points="824,-83 682,-83 682,-64 824,-64 824,-83"/>
<text text-anchor="middle" x="753" y="-71" font-family="Helvetica,sans-Serif" font-size="10.00">ImVector::_grow_capacity</text>
</a>
</g>
</g>
<!-- Node7&#45;&gt;Node8 -->
<g id="edge7" class="edge">
<title>Node7&#45;&gt;Node8</title>
<path fill="none" stroke="#63b8ff" d="M634.56,-80.66C646.14,-79.95 658.89,-79.18 671.59,-78.4"/>
<polygon fill="#63b8ff" stroke="#63b8ff" points="671.97,-81.89 681.74,-77.78 671.54,-74.9 671.97,-81.89"/>
</g>
<!-- Node9 -->
<g id="node9" class="node">
<title>Node9</title>
<g id="a_node9"><a xlink:href="structImVector.html#a0f14f5736c3372157856eebb67123b75" target="_top" xlink:title=" ">
<polygon fill="white" stroke="#666666" points="804.5,-37 701.5,-37 701.5,-18 804.5,-18 804.5,-37"/>
<text text-anchor="middle" x="753" y="-25" font-family="Helvetica,sans-Serif" font-size="10.00">ImVector::reserve</text>
</a>
</g>
</g>
<!-- Node7&#45;&gt;Node9 -->
<g id="edge8" class="edge">
<title>Node7&#45;&gt;Node9</title>
<path fill="none" stroke="#63b8ff" d="M619.69,-73.94C628.25,-71.28 637.5,-68.34 646,-65.5 669.74,-57.56 696.25,-48.06 716.82,-40.54"/>
<polygon fill="#63b8ff" stroke="#63b8ff" points="718.22,-43.76 726.4,-37.03 715.81,-37.19 718.22,-43.76"/>
</g>
<!-- Node10&#45;&gt;Node8 -->
<g id="edge10" class="edge">
<title>Node10&#45;&gt;Node8</title>
<path fill="none" stroke="#63b8ff" d="M622.42,-19.03C630.27,-21.52 638.5,-24.39 646,-27.5 662.71,-34.43 665.53,-39.01 682,-46.5 692.71,-51.37 704.58,-56.17 715.46,-60.33"/>
<polygon fill="#63b8ff" stroke="#63b8ff" points="714.51,-63.72 725.1,-63.97 716.98,-57.17 714.51,-63.72"/>
</g>
<!-- Node10&#45;&gt;Node9 -->
<g id="edge11" class="edge">
<title>Node10&#45;&gt;Node9</title>
<path fill="none" stroke="#63b8ff" d="M646.28,-15.9C660.87,-17.5 676.55,-19.22 691.25,-20.83"/>
<polygon fill="#63b8ff" stroke="#63b8ff" points="690.93,-24.32 701.25,-21.93 691.69,-17.36 690.93,-24.32"/>
</g>
</g>
</svg>
