<?xml version="1.0" encoding="UTF-8" standalone="no"?>
<!DOCTYPE svg PUBLIC "-//W3C//DTD SVG 1.1//EN"
 "http://www.w3.org/Graphics/SVG/1.1/DTD/svg11.dtd">
<!-- Generated by graphviz version 2.43.0 (0)
 -->
<!-- Title: ImGui::PushColumnsBackground Pages: 1 -->
<svg width="902pt" height="124pt"
 viewBox="0.00 0.00 902.00 123.50" xmlns="http://www.w3.org/2000/svg" xmlns:xlink="http://www.w3.org/1999/xlink">
<g id="graph0" class="graph" transform="scale(1 1) rotate(0) translate(4 119.5)">
<title>ImGui::PushColumnsBackground</title>
<!-- Node1 -->
<g id="node1" class="node">
<title>Node1</title>
<g id="a_node1"><a xlink:title=" ">
<polygon fill="#999999" stroke="#666666" points="176,-72.5 0,-72.5 0,-53.5 176,-53.5 176,-72.5"/>
<text text-anchor="middle" x="88" y="-60.5" font-family="Helvetica,sans-Serif" font-size="10.00">ImGui::PushColumnsBackground</text>
</a>
</g>
</g>
<!-- Node2 -->
<g id="node2" class="node">
<title>Node2</title>
<g id="a_node2"><a xlink:href="namespaceImGui.html#a055af7d6b7b4ae977a9c3c25a98e0d2f" target="_top" xlink:title=" ">
<polygon fill="white" stroke="#666666" points="381,-115.5 212,-115.5 212,-96.5 381,-96.5 381,-115.5"/>
<text text-anchor="middle" x="296.5" y="-103.5" font-family="Helvetica,sans-Serif" font-size="10.00">ImGui::GetCurrentWindowRead</text>
</a>
</g>
</g>
<!-- Node1&#45;&gt;Node2 -->
<g id="edge1" class="edge">
<title>Node1&#45;&gt;Node2</title>
<path fill="none" stroke="#63b8ff" d="M134.83,-72.54C165.84,-79 206.99,-87.57 239.88,-94.42"/>
<polygon fill="#63b8ff" stroke="#63b8ff" points="239.3,-97.87 249.8,-96.48 240.72,-91.02 239.3,-97.87"/>
</g>
<!-- Node3 -->
<g id="node3" class="node">
<title>Node3</title>
<g id="a_node3"><a xlink:href="structImDrawListSplitter.html#ad3797b0755caa07f3d69a9e3566eb0e5" target="_top" xlink:title=" ">
<polygon fill="white" stroke="#666666" points="353.5,-78 239.5,-78 239.5,-48 353.5,-48 353.5,-78"/>
<text text-anchor="start" x="247.5" y="-66" font-family="Helvetica,sans-Serif" font-size="10.00">ImDrawListSplitter</text>
<text text-anchor="middle" x="296.5" y="-55" font-family="Helvetica,sans-Serif" font-size="10.00">::SetCurrentChannel</text>
</a>
</g>
</g>
<!-- Node1&#45;&gt;Node3 -->
<g id="edge2" class="edge">
<title>Node1&#45;&gt;Node3</title>
<path fill="none" stroke="#63b8ff" d="M176.28,-63C193.96,-63 212.28,-63 229.11,-63"/>
<polygon fill="#63b8ff" stroke="#63b8ff" points="229.37,-66.5 239.37,-63 229.37,-59.5 229.37,-66.5"/>
</g>
<!-- Node8 -->
<g id="node8" class="node">
<title>Node8</title>
<g id="a_node8"><a xlink:href="namespaceImGui.html#a2451c5a6301b6c1234efc8054b70980b" target="_top" xlink:title=" ">
<polygon fill="white" stroke="#666666" points="370,-30 223,-30 223,0 370,0 370,-30"/>
<text text-anchor="start" x="231" y="-18" font-family="Helvetica,sans-Serif" font-size="10.00">ImGui::SetWindowClipRect</text>
<text text-anchor="middle" x="296.5" y="-7" font-family="Helvetica,sans-Serif" font-size="10.00">BeforeSetChannel</text>
</a>
</g>
</g>
<!-- Node1&#45;&gt;Node8 -->
<g id="edge7" class="edge">
<title>Node1&#45;&gt;Node8</title>
<path fill="none" stroke="#63b8ff" d="M130.29,-53.4C156.21,-47.38 190.38,-39.43 220.92,-32.33"/>
<polygon fill="#63b8ff" stroke="#63b8ff" points="221.75,-35.74 230.7,-30.06 220.16,-28.92 221.75,-35.74"/>
</g>
<!-- Node4 -->
<g id="node4" class="node">
<title>Node4</title>
<g id="a_node4"><a xlink:href="structImDrawList.html#a846714bb0321c6f1f908767abc8559e6" target="_top" xlink:title=" ">
<polygon fill="white" stroke="#666666" points="562,-72.5 417,-72.5 417,-53.5 562,-53.5 562,-72.5"/>
<text text-anchor="middle" x="489.5" y="-60.5" font-family="Helvetica,sans-Serif" font-size="10.00">ImDrawList::AddDrawCmd</text>
</a>
</g>
</g>
<!-- Node3&#45;&gt;Node4 -->
<g id="edge3" class="edge">
<title>Node3&#45;&gt;Node4</title>
<path fill="none" stroke="#63b8ff" d="M353.52,-63C370.16,-63 388.74,-63 406.66,-63"/>
<polygon fill="#63b8ff" stroke="#63b8ff" points="406.83,-66.5 416.83,-63 406.83,-59.5 406.83,-66.5"/>
</g>
<!-- Node5 -->
<g id="node5" class="node">
<title>Node5</title>
<g id="a_node5"><a xlink:href="structImVector.html#aab5df48e0711a48bd12f3206e08c4108" target="_top" xlink:title=" ">
<polygon fill="white" stroke="#666666" points="716,-72.5 598,-72.5 598,-53.5 716,-53.5 716,-72.5"/>
<text text-anchor="middle" x="657" y="-60.5" font-family="Helvetica,sans-Serif" font-size="10.00">ImVector::push_back</text>
</a>
</g>
</g>
<!-- Node4&#45;&gt;Node5 -->
<g id="edge4" class="edge">
<title>Node4&#45;&gt;Node5</title>
<path fill="none" stroke="#63b8ff" d="M562.13,-63C570.64,-63 579.31,-63 587.76,-63"/>
<polygon fill="#63b8ff" stroke="#63b8ff" points="587.96,-66.5 597.96,-63 587.96,-59.5 587.96,-66.5"/>
</g>
<!-- Node6 -->
<g id="node6" class="node">
<title>Node6</title>
<g id="a_node6"><a xlink:href="structImVector.html#a3a097635d464b1b70dc7d59996a88b28" target="_top" xlink:title=" ">
<polygon fill="white" stroke="#666666" points="894,-91.5 752,-91.5 752,-72.5 894,-72.5 894,-91.5"/>
<text text-anchor="middle" x="823" y="-79.5" font-family="Helvetica,sans-Serif" font-size="10.00">ImVector::_grow_capacity</text>
</a>
</g>
</g>
<!-- Node5&#45;&gt;Node6 -->
<g id="edge5" class="edge">
<title>Node5&#45;&gt;Node6</title>
<path fill="none" stroke="#63b8ff" d="M716.28,-69.75C724.55,-70.71 733.18,-71.71 741.78,-72.71"/>
<polygon fill="#63b8ff" stroke="#63b8ff" points="741.5,-76.2 751.83,-73.87 742.3,-69.24 741.5,-76.2"/>
</g>
<!-- Node7 -->
<g id="node7" class="node">
<title>Node7</title>
<g id="a_node7"><a xlink:href="structImVector.html#a0f14f5736c3372157856eebb67123b75" target="_top" xlink:title=" ">
<polygon fill="white" stroke="#666666" points="874.5,-54.5 771.5,-54.5 771.5,-35.5 874.5,-35.5 874.5,-54.5"/>
<text text-anchor="middle" x="823" y="-42.5" font-family="Helvetica,sans-Serif" font-size="10.00">ImVector::reserve</text>
</a>
</g>
</g>
<!-- Node5&#45;&gt;Node7 -->
<g id="edge6" class="edge">
<title>Node5&#45;&gt;Node7</title>
<path fill="none" stroke="#63b8ff" d="M716.28,-56.6C730.87,-55 746.55,-53.28 761.25,-51.67"/>
<polygon fill="#63b8ff" stroke="#63b8ff" points="761.69,-55.14 771.25,-50.57 760.93,-48.18 761.69,-55.14"/>
</g>
<!-- Node9 -->
<g id="node9" class="node">
<title>Node9</title>
<g id="a_node9"><a xlink:href="structImRect.html#a2afeb24632fae3848977ff2772036200" target="_top" xlink:title=" ">
<polygon fill="white" stroke="#666666" points="535,-24.5 444,-24.5 444,-5.5 535,-5.5 535,-24.5"/>
<text text-anchor="middle" x="489.5" y="-12.5" font-family="Helvetica,sans-Serif" font-size="10.00">ImRect::ToVec4</text>
</a>
</g>
</g>
<!-- Node8&#45;&gt;Node9 -->
<g id="edge8" class="edge">
<title>Node8&#45;&gt;Node9</title>
<path fill="none" stroke="#63b8ff" d="M370.25,-15C391.35,-15 414.02,-15 433.81,-15"/>
<polygon fill="#63b8ff" stroke="#63b8ff" points="433.87,-18.5 443.87,-15 433.87,-11.5 433.87,-18.5"/>
</g>
</g>
</svg>
