<?xml version="1.0" encoding="UTF-8" standalone="no"?>
<!DOCTYPE svg PUBLIC "-//W3C//DTD SVG 1.1//EN"
 "http://www.w3.org/Graphics/SVG/1.1/DTD/svg11.dtd">
<!-- Generated by graphviz version 2.43.0 (0)
 -->
<!-- Title: ImGui::PushFont Pages: 1 -->
<svg width="1009pt" height="160pt"
 viewBox="0.00 0.00 1009.00 160.00" xmlns="http://www.w3.org/2000/svg" xmlns:xlink="http://www.w3.org/1999/xlink">
<g id="graph0" class="graph" transform="scale(1 1) rotate(0) translate(4 156)">
<title>ImGui::PushFont</title>
<!-- Node1 -->
<g id="node1" class="node">
<title>Node1</title>
<g id="a_node1"><a xlink:title=" ">
<polygon fill="#999999" stroke="#666666" points="1001,-57 905,-57 905,-38 1001,-38 1001,-57"/>
<text text-anchor="middle" x="953" y="-45" font-family="Helvetica,sans-Serif" font-size="10.00">ImGui::PushFont</text>
</a>
</g>
</g>
<!-- Node2 -->
<g id="node2" class="node">
<title>Node2</title>
<g id="a_node2"><a xlink:href="namespaceImGui.html#ae0207d60728f7e6a47dbcd1d7d84e3cb" target="_top" xlink:title=" ">
<polygon fill="white" stroke="#666666" points="869,-95 739,-95 739,-76 869,-76 869,-95"/>
<text text-anchor="middle" x="804" y="-83" font-family="Helvetica,sans-Serif" font-size="10.00">ImGui::DebugNodeFont</text>
</a>
</g>
</g>
<!-- Node1&#45;&gt;Node2 -->
<g id="edge1" class="edge">
<title>Node1&#45;&gt;Node2</title>
<path fill="none" stroke="#63b8ff" d="M905.15,-59.61C884.67,-64.9 861.01,-71.02 841.83,-75.98"/>
<polygon fill="#63b8ff" stroke="#63b8ff" points="906.1,-62.98 914.91,-57.09 904.35,-56.2 906.1,-62.98"/>
</g>
<!-- Node9 -->
<g id="node9" class="node">
<title>Node9</title>
<g id="a_node9"><a xlink:href="imgui__demo_8cpp.html#a2de9cc18bdde537b21814421101c13ba" target="_top" xlink:title=" ">
<polygon fill="white" stroke="#666666" points="703,-57 558,-57 558,-38 703,-38 703,-57"/>
<text text-anchor="middle" x="630.5" y="-45" font-family="Helvetica,sans-Serif" font-size="10.00">DemoWindowWidgetsText</text>
</a>
</g>
</g>
<!-- Node1&#45;&gt;Node9 -->
<g id="edge10" class="edge">
<title>Node1&#45;&gt;Node9</title>
<path fill="none" stroke="#63b8ff" d="M894.69,-47.5C841.07,-47.5 760.81,-47.5 703.02,-47.5"/>
<polygon fill="#63b8ff" stroke="#63b8ff" points="894.71,-51 904.71,-47.5 894.71,-44 894.71,-51"/>
</g>
<!-- Node10 -->
<g id="node10" class="node">
<title>Node10</title>
<g id="a_node10"><a xlink:href="namespaceImGui.html#aa14d662ba9e8ece3045974eaeb11b50d" target="_top" xlink:title=" ">
<polygon fill="white" stroke="#666666" points="852,-19 756,-19 756,0 852,0 852,-19"/>
<text text-anchor="middle" x="804" y="-7" font-family="Helvetica,sans-Serif" font-size="10.00">ImGui::PushFont</text>
</a>
</g>
</g>
<!-- Node1&#45;&gt;Node10 -->
<g id="edge12" class="edge">
<title>Node1&#45;&gt;Node10</title>
<path fill="none" stroke="#63b8ff" d="M905.15,-35.39C884.67,-30.1 861.01,-23.98 841.83,-19.02"/>
<polygon fill="#63b8ff" stroke="#63b8ff" points="904.35,-38.8 914.91,-37.91 906.1,-32.02 904.35,-38.8"/>
</g>
<!-- Node3 -->
<g id="node3" class="node">
<title>Node3</title>
<g id="a_node3"><a xlink:href="namespaceImGui.html#acab51ec2b39577845309f24535381038" target="_top" xlink:title=" ">
<polygon fill="white" stroke="#666666" points="692.5,-95 568.5,-95 568.5,-76 692.5,-76 692.5,-95"/>
<text text-anchor="middle" x="630.5" y="-83" font-family="Helvetica,sans-Serif" font-size="10.00">ImGui::ShowFontAtlas</text>
</a>
</g>
</g>
<!-- Node2&#45;&gt;Node3 -->
<g id="edge2" class="edge">
<title>Node2&#45;&gt;Node3</title>
<path fill="none" stroke="#63b8ff" d="M728.62,-85.5C716.57,-85.5 704.21,-85.5 692.52,-85.5"/>
<polygon fill="#63b8ff" stroke="#63b8ff" points="728.65,-89 738.65,-85.5 728.65,-82 728.65,-89"/>
</g>
<!-- Node4 -->
<g id="node4" class="node">
<title>Node4</title>
<g id="a_node4"><a xlink:href="imgui__demo_8cpp.html#a163f04ccf255dede76e5e54f741ca9d5" target="_top" xlink:title=" ">
<polygon fill="white" stroke="#666666" points="522,-77 371,-77 371,-58 522,-58 522,-77"/>
<text text-anchor="middle" x="446.5" y="-65" font-family="Helvetica,sans-Serif" font-size="10.00">DemoWindowWidgetsFonts</text>
</a>
</g>
</g>
<!-- Node3&#45;&gt;Node4 -->
<g id="edge3" class="edge">
<title>Node3&#45;&gt;Node4</title>
<path fill="none" stroke="#63b8ff" d="M558.12,-78.44C546.27,-77.27 533.96,-76.05 522.04,-74.87"/>
<polygon fill="#63b8ff" stroke="#63b8ff" points="558.09,-81.95 568.39,-79.46 558.78,-74.99 558.09,-81.95"/>
</g>
<!-- Node7 -->
<g id="node7" class="node">
<title>Node7</title>
<g id="a_node7"><a xlink:href="namespaceImGui.html#afe7a28c6eb52fff3cc27d5a698fea4ff" target="_top" xlink:title=" ">
<polygon fill="white" stroke="#666666" points="335,-152 182,-152 182,-133 335,-133 335,-152"/>
<text text-anchor="middle" x="258.5" y="-140" font-family="Helvetica,sans-Serif" font-size="10.00">ImGui::ShowMetricsWindow</text>
</a>
</g>
</g>
<!-- Node3&#45;&gt;Node7 -->
<g id="edge6" class="edge">
<title>Node3&#45;&gt;Node7</title>
<path fill="none" stroke="#63b8ff" d="M598.34,-99.02C577.21,-107.55 548.43,-117.98 522,-123.5 459.94,-136.47 388.04,-140.96 335.2,-142.36"/>
<polygon fill="#63b8ff" stroke="#63b8ff" points="599.85,-102.18 607.76,-95.13 597.18,-95.71 599.85,-102.18"/>
</g>
<!-- Node8 -->
<g id="node8" class="node">
<title>Node8</title>
<g id="a_node8"><a xlink:href="namespaceImGui.html#ab2eb3dec78d054fe3feab1c091ec5de5" target="_top" xlink:title=" ">
<polygon fill="white" stroke="#666666" points="512,-114 381,-114 381,-95 512,-95 512,-114"/>
<text text-anchor="middle" x="446.5" y="-102" font-family="Helvetica,sans-Serif" font-size="10.00">ImGui::ShowStyleEditor</text>
</a>
</g>
</g>
<!-- Node3&#45;&gt;Node8 -->
<g id="edge8" class="edge">
<title>Node3&#45;&gt;Node8</title>
<path fill="none" stroke="#63b8ff" d="M558.06,-92.96C542.93,-94.54 527.05,-96.2 512.19,-97.75"/>
<polygon fill="#63b8ff" stroke="#63b8ff" points="558.81,-96.4 568.39,-91.88 558.08,-89.44 558.81,-96.4"/>
</g>
<!-- Node5 -->
<g id="node5" class="node">
<title>Node5</title>
<g id="a_node5"><a xlink:href="imgui__demo_8cpp.html#a9a639caab781642cbc4f4a23bfbd11cd" target="_top" xlink:title=" ">
<polygon fill="white" stroke="#666666" points="321,-76 196,-76 196,-57 321,-57 321,-76"/>
<text text-anchor="middle" x="258.5" y="-64" font-family="Helvetica,sans-Serif" font-size="10.00">DemoWindowWidgets</text>
</a>
</g>
</g>
<!-- Node4&#45;&gt;Node5 -->
<g id="edge4" class="edge">
<title>Node4&#45;&gt;Node5</title>
<path fill="none" stroke="#63b8ff" d="M360.8,-67.04C347.48,-66.97 333.94,-66.9 321.27,-66.83"/>
<polygon fill="#63b8ff" stroke="#63b8ff" points="360.9,-70.55 370.92,-67.1 360.94,-63.55 360.9,-70.55"/>
</g>
<!-- Node6 -->
<g id="node6" class="node">
<title>Node6</title>
<g id="a_node6"><a xlink:href="namespaceImGui.html#af95643a0ce4893b9e57c12991922fb18" target="_top" xlink:title=" ">
<polygon fill="white" stroke="#666666" points="146,-114 0,-114 0,-95 146,-95 146,-114"/>
<text text-anchor="middle" x="73" y="-102" font-family="Helvetica,sans-Serif" font-size="10.00">ImGui::ShowDemoWindow</text>
</a>
</g>
</g>
<!-- Node5&#45;&gt;Node6 -->
<g id="edge5" class="edge">
<title>Node5&#45;&gt;Node6</title>
<path fill="none" stroke="#63b8ff" d="M201.09,-78.18C175.07,-83.57 144.57,-89.89 119.97,-94.98"/>
<polygon fill="#63b8ff" stroke="#63b8ff" points="202.11,-81.54 211.2,-76.09 200.69,-74.69 202.11,-81.54"/>
</g>
<!-- Node7&#45;&gt;Node6 -->
<g id="edge7" class="edge">
<title>Node7&#45;&gt;Node6</title>
<path fill="none" stroke="#63b8ff" d="M201.09,-130.82C175.07,-125.43 144.57,-119.11 119.97,-114.02"/>
<polygon fill="#63b8ff" stroke="#63b8ff" points="200.69,-134.31 211.2,-132.91 202.11,-127.46 200.69,-134.31"/>
</g>
<!-- Node8&#45;&gt;Node6 -->
<g id="edge9" class="edge">
<title>Node8&#45;&gt;Node6</title>
<path fill="none" stroke="#63b8ff" d="M370.55,-104.5C305.13,-104.5 210.82,-104.5 146.22,-104.5"/>
<polygon fill="#63b8ff" stroke="#63b8ff" points="370.79,-108 380.79,-104.5 370.79,-101 370.79,-108"/>
</g>
<!-- Node9&#45;&gt;Node5 -->
<g id="edge11" class="edge">
<title>Node9&#45;&gt;Node5</title>
<path fill="none" stroke="#63b8ff" d="M547.49,-44.56C496.6,-43.54 429.9,-43.66 371,-48.5 350.29,-50.2 327.61,-53.58 308.15,-56.96"/>
<polygon fill="#63b8ff" stroke="#63b8ff" points="547.7,-48.06 557.78,-44.78 547.86,-41.06 547.7,-48.06"/>
</g>
</g>
</svg>
