<?xml version="1.0" encoding="UTF-8" standalone="no"?>
<!DOCTYPE svg PUBLIC "-//W3C//DTD SVG 1.1//EN"
 "http://www.w3.org/Graphics/SVG/1.1/DTD/svg11.dtd">
<!-- Generated by graphviz version 2.43.0 (0)
 -->
<!-- Title: boost::alloc_construct_n Pages: 1 -->
<svg width="511pt" height="76pt"
 viewBox="0.00 0.00 511.00 75.50" xmlns="http://www.w3.org/2000/svg" xmlns:xlink="http://www.w3.org/1999/xlink">
<g id="graph0" class="graph" transform="scale(1 1) rotate(0) translate(4 71.5)">
<title>boost::alloc_construct_n</title>
<!-- Node1 -->
<g id="node1" class="node">
<title>Node1</title>
<g id="a_node1"><a xlink:title=" ">
<polygon fill="#999999" stroke="#666666" points="134,-45.5 0,-45.5 0,-26.5 134,-26.5 134,-45.5"/>
<text text-anchor="middle" x="67" y="-33.5" font-family="Helvetica,sans-Serif" font-size="10.00">boost::alloc_construct_n</text>
</a>
</g>
</g>
<!-- Node2 -->
<g id="node2" class="node">
<title>Node2</title>
<g id="a_node2"><a xlink:href="namespaceboost.html#ab54ac00496acd41a7a9136dd38aceb91" target="_top" xlink:title=" ">
<polygon fill="white" stroke="#666666" points="324,-45.5 170,-45.5 170,-26.5 324,-26.5 324,-45.5"/>
<text text-anchor="middle" x="247" y="-33.5" font-family="Helvetica,sans-Serif" font-size="10.00">boost::allocator_construct_n</text>
</a>
</g>
</g>
<!-- Node1&#45;&gt;Node2 -->
<g id="edge1" class="edge">
<title>Node1&#45;&gt;Node2</title>
<path fill="none" stroke="#63b8ff" d="M134.03,-36C142.42,-36 151.1,-36 159.75,-36"/>
<polygon fill="#63b8ff" stroke="#63b8ff" points="159.87,-39.5 169.87,-36 159.87,-32.5 159.87,-39.5"/>
</g>
<!-- Node3 -->
<g id="node3" class="node">
<title>Node3</title>
<g id="a_node3"><a xlink:href="namespaceboost.html#a2925261847ea4344c77da6ed5298bce7" target="_top" xlink:title=" ">
<polygon fill="white" stroke="#666666" points="503,-67.5 360,-67.5 360,-48.5 503,-48.5 503,-67.5"/>
<text text-anchor="middle" x="431.5" y="-55.5" font-family="Helvetica,sans-Serif" font-size="10.00">boost::allocator_construct</text>
</a>
</g>
</g>
<!-- Node2&#45;&gt;Node3 -->
<g id="edge2" class="edge">
<title>Node2&#45;&gt;Node3</title>
<path fill="none" stroke="#63b8ff" d="M324.07,-45.17C332.58,-46.2 341.27,-47.24 349.83,-48.28"/>
<polygon fill="#63b8ff" stroke="#63b8ff" points="349.46,-51.76 359.8,-49.48 350.29,-44.81 349.46,-51.76"/>
</g>
<!-- Node4 -->
<g id="node4" class="node">
<title>Node4</title>
<g id="a_node4"><a xlink:href="classboost_1_1detail_1_1alloc__destroyer.html#a6e0f822ca214daca7ba1f8309b6faab3" target="_top" xlink:title=" ">
<polygon fill="white" stroke="#666666" points="485,-30 378,-30 378,0 485,0 485,-30"/>
<text text-anchor="start" x="386" y="-18" font-family="Helvetica,sans-Serif" font-size="10.00">boost::detail::alloc</text>
<text text-anchor="middle" x="431.5" y="-7" font-family="Helvetica,sans-Serif" font-size="10.00">_destroyer::size</text>
</a>
</g>
</g>
<!-- Node2&#45;&gt;Node4 -->
<g id="edge3" class="edge">
<title>Node2&#45;&gt;Node4</title>
<path fill="none" stroke="#63b8ff" d="M324.07,-27.25C338.63,-25.57 353.73,-23.83 367.81,-22.21"/>
<polygon fill="#63b8ff" stroke="#63b8ff" points="368.33,-25.68 377.86,-21.06 367.52,-18.72 368.33,-25.68"/>
</g>
</g>
</svg>
