<?xml version="1.0" encoding="UTF-8" standalone="no"?>
<!DOCTYPE svg PUBLIC "-//W3C//DTD SVG 1.1//EN"
 "http://www.w3.org/Graphics/SVG/1.1/DTD/svg11.dtd">
<!-- Generated by graphviz version 2.43.0 (0)
 -->
<!-- Title: refl::runtime::debug Pages: 1 -->
<svg width="437pt" height="70pt"
 viewBox="0.00 0.00 437.00 69.50" xmlns="http://www.w3.org/2000/svg" xmlns:xlink="http://www.w3.org/1999/xlink">
<g id="graph0" class="graph" transform="scale(1 1) rotate(0) translate(4 65.5)">
<title>refl::runtime::debug</title>
<!-- Node1 -->
<g id="node1" class="node">
<title>Node1</title>
<g id="a_node1"><a xlink:title=" ">
<polygon fill="#999999" stroke="#666666" points="429,-42.5 316,-42.5 316,-23.5 429,-23.5 429,-42.5"/>
<text text-anchor="middle" x="372.5" y="-30.5" font-family="Helvetica,sans-Serif" font-size="10.00">refl::runtime::debug</text>
</a>
</g>
</g>
<!-- Node2 -->
<g id="node2" class="node">
<title>Node2</title>
<g id="a_node2"><a xlink:href="namespacerefl_1_1runtime.html#ab63a0044074e3c5a78f8e8a2662783aa" target="_top" xlink:title=" ">
<polygon fill="white" stroke="#666666" points="279.5,-61.5 149.5,-61.5 149.5,-42.5 279.5,-42.5 279.5,-61.5"/>
<text text-anchor="middle" x="214.5" y="-49.5" font-family="Helvetica,sans-Serif" font-size="10.00">refl::runtime::debug_all</text>
</a>
</g>
</g>
<!-- Node1&#45;&gt;Node2 -->
<g id="edge1" class="edge">
<title>Node1&#45;&gt;Node2</title>
<path fill="none" stroke="#63b8ff" d="M305.67,-41.02C297.09,-42.06 288.3,-43.13 279.75,-44.17"/>
<polygon fill="#63b8ff" stroke="#63b8ff" points="306.12,-44.49 315.62,-39.81 305.27,-37.54 306.12,-44.49"/>
</g>
<!-- Node3 -->
<g id="node3" class="node">
<title>Node3</title>
<g id="a_node3"><a xlink:href="namespacerefl_1_1runtime.html#aff5576066ff5e77faf8768de1beb9ef6" target="_top" xlink:title=" ">
<polygon fill="white" stroke="#666666" points="280,-24.5 149,-24.5 149,-5.5 280,-5.5 280,-24.5"/>
<text text-anchor="middle" x="214.5" y="-12.5" font-family="Helvetica,sans-Serif" font-size="10.00">refl::runtime::debug_str</text>
</a>
</g>
</g>
<!-- Node1&#45;&gt;Node3 -->
<g id="edge2" class="edge">
<title>Node1&#45;&gt;Node3</title>
<path fill="none" stroke="#63b8ff" d="M305.46,-25.38C297.04,-24.41 288.42,-23.41 280.02,-22.44"/>
<polygon fill="#63b8ff" stroke="#63b8ff" points="305.29,-28.88 315.62,-26.55 306.09,-21.93 305.29,-28.88"/>
</g>
<!-- Node4 -->
<g id="node4" class="node">
<title>Node4</title>
<g id="a_node4"><a xlink:href="namespacerefl_1_1runtime.html#a3244ba8392ebba58658f4e8a5ea92c3f" target="_top" xlink:title=" ">
<polygon fill="white" stroke="#666666" points="113,-30 0,-30 0,0 113,0 113,-30"/>
<text text-anchor="start" x="8" y="-18" font-family="Helvetica,sans-Serif" font-size="10.00">refl::runtime::debug</text>
<text text-anchor="middle" x="56.5" y="-7" font-family="Helvetica,sans-Serif" font-size="10.00">_all_str</text>
</a>
</g>
</g>
<!-- Node3&#45;&gt;Node4 -->
<g id="edge3" class="edge">
<title>Node3&#45;&gt;Node4</title>
<path fill="none" stroke="#63b8ff" d="M138.46,-15C130.02,-15 121.54,-15 113.41,-15"/>
<polygon fill="#63b8ff" stroke="#63b8ff" points="138.7,-18.5 148.7,-15 138.7,-11.5 138.7,-18.5"/>
</g>
</g>
</svg>
