<?xml version="1.0" encoding="UTF-8" standalone="no"?>
<!DOCTYPE svg PUBLIC "-//W3C//DTD SVG 1.1//EN"
 "http://www.w3.org/Graphics/SVG/1.1/DTD/svg11.dtd">
<!-- Generated by graphviz version 2.43.0 (0)
 -->
<!-- Title: ImGui::GetKeyPressedAmount Pages: 1 -->
<svg width="564pt" height="97pt"
 viewBox="0.00 0.00 564.00 96.50" xmlns="http://www.w3.org/2000/svg" xmlns:xlink="http://www.w3.org/1999/xlink">
<g id="graph0" class="graph" transform="scale(1 1) rotate(0) translate(4 92.5)">
<title>ImGui::GetKeyPressedAmount</title>
<!-- Node1 -->
<g id="node1" class="node">
<title>Node1</title>
<g id="a_node1"><a xlink:title=" ">
<polygon fill="#999999" stroke="#666666" points="164,-61 0,-61 0,-42 164,-42 164,-61"/>
<text text-anchor="middle" x="82" y="-49" font-family="Helvetica,sans-Serif" font-size="10.00">ImGui::GetKeyPressedAmount</text>
</a>
</g>
</g>
<!-- Node2 -->
<g id="node2" class="node">
<title>Node2</title>
<g id="a_node2"><a xlink:href="namespaceImGui.html#ab9804506fa0fe8823f63eadb3043916f" target="_top" xlink:title=" ">
<polygon fill="white" stroke="#666666" points="358,-88.5 200,-88.5 200,-58.5 358,-58.5 358,-88.5"/>
<text text-anchor="start" x="208" y="-76.5" font-family="Helvetica,sans-Serif" font-size="10.00">ImGui::CalcTypematicRepeat</text>
<text text-anchor="middle" x="279" y="-65.5" font-family="Helvetica,sans-Serif" font-size="10.00">Amount</text>
</a>
</g>
</g>
<!-- Node1&#45;&gt;Node2 -->
<g id="edge1" class="edge">
<title>Node1&#45;&gt;Node2</title>
<path fill="none" stroke="#63b8ff" d="M164,-60.64C172.5,-61.6 181.17,-62.58 189.75,-63.54"/>
<polygon fill="#63b8ff" stroke="#63b8ff" points="189.42,-67.03 199.75,-64.67 190.21,-60.07 189.42,-67.03"/>
</g>
<!-- Node3 -->
<g id="node3" class="node">
<title>Node3</title>
<g id="a_node3"><a xlink:href="namespaceImGui.html#a6d32d70d6beb45537b605508b78216c3" target="_top" xlink:title=" ">
<polygon fill="white" stroke="#666666" points="334,-40 224,-40 224,-21 334,-21 334,-40"/>
<text text-anchor="middle" x="279" y="-28" font-family="Helvetica,sans-Serif" font-size="10.00">ImGui::GetKeyData</text>
</a>
</g>
</g>
<!-- Node1&#45;&gt;Node3 -->
<g id="edge2" class="edge">
<title>Node1&#45;&gt;Node3</title>
<path fill="none" stroke="#63b8ff" d="M164,-42.78C180.57,-40.99 197.79,-39.14 213.68,-37.43"/>
<polygon fill="#63b8ff" stroke="#63b8ff" points="214.34,-40.88 223.91,-36.33 213.59,-33.92 214.34,-40.88"/>
</g>
<!-- Node4 -->
<g id="node4" class="node">
<title>Node4</title>
<g id="a_node4"><a xlink:href="namespaceImGui.html#ad540a8f07e5834f77f76a84626cdc70e" target="_top" xlink:title=" ">
<polygon fill="white" stroke="#666666" points="556,-67.5 394,-67.5 394,-37.5 556,-37.5 556,-67.5"/>
<text text-anchor="start" x="402" y="-55.5" font-family="Helvetica,sans-Serif" font-size="10.00">ImGui::ConvertSingleModFlag</text>
<text text-anchor="middle" x="475" y="-44.5" font-family="Helvetica,sans-Serif" font-size="10.00">ToKey</text>
</a>
</g>
</g>
<!-- Node3&#45;&gt;Node4 -->
<g id="edge3" class="edge">
<title>Node3&#45;&gt;Node4</title>
<path fill="none" stroke="#63b8ff" d="M334.04,-36.63C349.5,-38.38 366.79,-40.34 383.8,-42.27"/>
<polygon fill="#63b8ff" stroke="#63b8ff" points="383.44,-45.75 393.77,-43.4 384.23,-38.8 383.44,-45.75"/>
</g>
<!-- Node5 -->
<g id="node5" class="node">
<title>Node5</title>
<g id="a_node5"><a xlink:href="namespaceImGui.html#a1e6a2ce7696a25d0dd0cf318e3b48a33" target="_top" xlink:title=" ">
<polygon fill="white" stroke="#666666" points="531.5,-19 418.5,-19 418.5,0 531.5,0 531.5,-19"/>
<text text-anchor="middle" x="475" y="-7" font-family="Helvetica,sans-Serif" font-size="10.00">ImGui::IsNamedKey</text>
</a>
</g>
</g>
<!-- Node3&#45;&gt;Node5 -->
<g id="edge4" class="edge">
<title>Node3&#45;&gt;Node5</title>
<path fill="none" stroke="#63b8ff" d="M334.04,-24.65C357,-22.17 383.97,-19.25 408.09,-16.63"/>
<polygon fill="#63b8ff" stroke="#63b8ff" points="408.66,-20.09 418.22,-15.54 407.91,-13.13 408.66,-20.09"/>
</g>
</g>
</svg>
