<?xml version="1.0" encoding="UTF-8" standalone="no"?>
<!DOCTYPE svg PUBLIC "-//W3C//DTD SVG 1.1//EN"
 "http://www.w3.org/Graphics/SVG/1.1/DTD/svg11.dtd">
<!-- Generated by graphviz version 2.43.0 (0)
 -->
<!-- Title: IMGUIZMO_NAMESPACE::ComputeCameraRay Pages: 1 -->
<svg width="485pt" height="137pt"
 viewBox="0.00 0.00 485.00 137.00" xmlns="http://www.w3.org/2000/svg" xmlns:xlink="http://www.w3.org/1999/xlink">
<g id="graph0" class="graph" transform="scale(1 1) rotate(0) translate(4 133)">
<title>IMGUIZMO_NAMESPACE::ComputeCameraRay</title>
<!-- Node1 -->
<g id="node1" class="node">
<title>Node1</title>
<g id="a_node1"><a xlink:title=" ">
<polygon fill="#999999" stroke="#666666" points="477,-54 342,-54 342,-24 477,-24 477,-54"/>
<text text-anchor="start" x="350" y="-42" font-family="Helvetica,sans-Serif" font-size="10.00">IMGUIZMO_NAMESPACE</text>
<text text-anchor="middle" x="409.5" y="-31" font-family="Helvetica,sans-Serif" font-size="10.00">::ComputeCameraRay</text>
</a>
</g>
</g>
<!-- Node1&#45;&gt;Node1 -->
<g id="edge1" class="edge">
<title>Node1&#45;&gt;Node1</title>
<path fill="none" stroke="#63b8ff" d="M439.26,-64.6C435.19,-68.97 425.27,-72 409.5,-72 382.94,-72 372.98,-63.41 379.62,-54.28"/>
<polygon fill="#63b8ff" stroke="#63b8ff" points="442.76,-64.32 439.38,-54.28 435.76,-64.23 442.76,-64.32"/>
</g>
<!-- Node2 -->
<g id="node2" class="node">
<title>Node2</title>
<g id="a_node2"><a xlink:href="namespaceIMGUIZMO__NAMESPACE.html#a7cc7533ff750257db246ff8b9d161295" target="_top" xlink:title=" ">
<polygon fill="white" stroke="#666666" points="306,-78 171,-78 171,-48 306,-48 306,-78"/>
<text text-anchor="start" x="179" y="-66" font-family="Helvetica,sans-Serif" font-size="10.00">IMGUIZMO_NAMESPACE</text>
<text text-anchor="middle" x="238.5" y="-55" font-family="Helvetica,sans-Serif" font-size="10.00">::ComputeContext</text>
</a>
</g>
</g>
<!-- Node1&#45;&gt;Node2 -->
<g id="edge2" class="edge">
<title>Node1&#45;&gt;Node2</title>
<path fill="none" stroke="#63b8ff" d="M331.73,-49.9C323.17,-51.12 314.5,-52.35 306.08,-53.54"/>
<polygon fill="#63b8ff" stroke="#63b8ff" points="332.3,-53.36 341.71,-48.49 331.31,-46.43 332.3,-53.36"/>
</g>
<!-- Node5 -->
<g id="node5" class="node">
<title>Node5</title>
<g id="a_node5"><a xlink:href="namespaceIMGUIZMO__NAMESPACE.html#a9c42aaf6b344a4c0c55e77cbac87eb42" target="_top" xlink:title=" ">
<polygon fill="white" stroke="#666666" points="306,-30 171,-30 171,0 306,0 306,-30"/>
<text text-anchor="start" x="179" y="-18" font-family="Helvetica,sans-Serif" font-size="10.00">IMGUIZMO_NAMESPACE</text>
<text text-anchor="middle" x="238.5" y="-7" font-family="Helvetica,sans-Serif" font-size="10.00">::ViewManipulate</text>
</a>
</g>
</g>
<!-- Node1&#45;&gt;Node5 -->
<g id="edge8" class="edge">
<title>Node1&#45;&gt;Node5</title>
<path fill="none" stroke="#63b8ff" d="M331.73,-28.1C323.17,-26.88 314.5,-25.65 306.08,-24.46"/>
<polygon fill="#63b8ff" stroke="#63b8ff" points="331.31,-31.57 341.71,-29.51 332.3,-24.64 331.31,-31.57"/>
</g>
<!-- Node2&#45;&gt;Node2 -->
<g id="edge3" class="edge">
<title>Node2&#45;&gt;Node2</title>
<path fill="none" stroke="#63b8ff" d="M268.26,-88.6C264.19,-92.97 254.27,-96 238.5,-96 211.94,-96 201.98,-87.41 208.62,-78.28"/>
<polygon fill="#63b8ff" stroke="#63b8ff" points="271.76,-88.32 268.38,-78.28 264.76,-88.23 271.76,-88.32"/>
</g>
<!-- Node3 -->
<g id="node3" class="node">
<title>Node3</title>
<g id="a_node3"><a xlink:href="namespaceIMGUIZMO__NAMESPACE.html#a77d9f13c118607e6ae36dfbc8904482d" target="_top" xlink:title=" ">
<polygon fill="white" stroke="#666666" points="135,-111 0,-111 0,-81 135,-81 135,-111"/>
<text text-anchor="start" x="8" y="-99" font-family="Helvetica,sans-Serif" font-size="10.00">IMGUIZMO_NAMESPACE</text>
<text text-anchor="middle" x="67.5" y="-88" font-family="Helvetica,sans-Serif" font-size="10.00">::Manipulate</text>
</a>
</g>
</g>
<!-- Node2&#45;&gt;Node3 -->
<g id="edge4" class="edge">
<title>Node2&#45;&gt;Node3</title>
<path fill="none" stroke="#63b8ff" d="M160.73,-77.99C152.17,-79.66 143.5,-81.35 135.08,-83"/>
<polygon fill="#63b8ff" stroke="#63b8ff" points="161.56,-81.39 170.71,-76.04 160.22,-74.52 161.56,-81.39"/>
</g>
<!-- Node4 -->
<g id="node4" class="node">
<title>Node4</title>
<g id="a_node4"><a xlink:href="namespaceIMGUIZMO__NAMESPACE.html#a6464b670b0b83ef0265842921c13d4b0" target="_top" xlink:title=" ">
<polygon fill="white" stroke="#666666" points="135,-45 0,-45 0,-15 135,-15 135,-45"/>
<text text-anchor="start" x="8" y="-33" font-family="Helvetica,sans-Serif" font-size="10.00">IMGUIZMO_NAMESPACE</text>
<text text-anchor="middle" x="67.5" y="-22" font-family="Helvetica,sans-Serif" font-size="10.00">::ViewManipulate</text>
</a>
</g>
</g>
<!-- Node2&#45;&gt;Node4 -->
<g id="edge6" class="edge">
<title>Node2&#45;&gt;Node4</title>
<path fill="none" stroke="#63b8ff" d="M160.73,-48.01C152.17,-46.34 143.5,-44.65 135.08,-43"/>
<polygon fill="#63b8ff" stroke="#63b8ff" points="160.22,-51.48 170.71,-49.96 161.56,-44.61 160.22,-51.48"/>
</g>
<!-- Node3&#45;&gt;Node3 -->
<g id="edge5" class="edge">
<title>Node3&#45;&gt;Node3</title>
<path fill="none" stroke="#63b8ff" d="M97.26,-121.6C93.19,-125.97 83.27,-129 67.5,-129 40.94,-129 30.98,-120.41 37.62,-111.28"/>
<polygon fill="#63b8ff" stroke="#63b8ff" points="100.76,-121.32 97.38,-111.28 93.76,-121.23 100.76,-121.32"/>
</g>
<!-- Node4&#45;&gt;Node4 -->
<g id="edge7" class="edge">
<title>Node4&#45;&gt;Node4</title>
<path fill="none" stroke="#63b8ff" d="M97.26,-55.6C93.19,-59.97 83.27,-63 67.5,-63 40.94,-63 30.98,-54.41 37.62,-45.28"/>
<polygon fill="#63b8ff" stroke="#63b8ff" points="100.76,-55.32 97.38,-45.28 93.76,-55.23 100.76,-55.32"/>
</g>
</g>
</svg>
