<?xml version="1.0" encoding="UTF-8" standalone="no"?>
<!DOCTYPE svg PUBLIC "-//W3C//DTD SVG 1.1//EN"
 "http://www.w3.org/Graphics/SVG/1.1/DTD/svg11.dtd">
<!-- Generated by graphviz version 2.43.0 (0)
 -->
<!-- Title: ImGui::IsMouseHoveringRect Pages: 1 -->
<svg width="452pt" height="156pt"
 viewBox="0.00 0.00 452.00 156.00" xmlns="http://www.w3.org/2000/svg" xmlns:xlink="http://www.w3.org/1999/xlink">
<g id="graph0" class="graph" transform="scale(1 1) rotate(0) translate(4 152)">
<title>ImGui::IsMouseHoveringRect</title>
<!-- Node1 -->
<g id="node1" class="node">
<title>Node1</title>
<g id="a_node1"><a xlink:title=" ">
<polygon fill="#999999" stroke="#666666" points="158,-74 0,-74 0,-55 158,-55 158,-74"/>
<text text-anchor="middle" x="79" y="-62" font-family="Helvetica,sans-Serif" font-size="10.00">ImGui::IsMouseHoveringRect</text>
</a>
</g>
</g>
<!-- Node2 -->
<g id="node2" class="node">
<title>Node2</title>
<g id="a_node2"><a xlink:href="structImRect.html#ac02d5cf6ce0358aea9ed9df43d368f3f" target="_top" xlink:title=" ">
<polygon fill="white" stroke="#666666" points="325,-130 227,-130 227,-111 325,-111 325,-130"/>
<text text-anchor="middle" x="276" y="-118" font-family="Helvetica,sans-Serif" font-size="10.00">ImRect::ClipWith</text>
</a>
</g>
</g>
<!-- Node1&#45;&gt;Node2 -->
<g id="edge1" class="edge">
<title>Node1&#45;&gt;Node2</title>
<path fill="none" stroke="#63b8ff" d="M106.03,-74.03C128.98,-82.23 163.44,-94.04 194,-102.5 201.8,-104.66 210.07,-106.74 218.24,-108.67"/>
<polygon fill="#63b8ff" stroke="#63b8ff" points="217.58,-112.11 228.11,-110.94 219.15,-105.29 217.58,-112.11"/>
</g>
<!-- Node5 -->
<g id="node5" class="node">
<title>Node5</title>
<g id="a_node5"><a xlink:href="structImRect.html#a8dbab244f4e5b786faa9684eb85110fc" target="_top" xlink:title=" ">
<polygon fill="white" stroke="#666666" points="346,-93 206,-93 206,-74 346,-74 346,-93"/>
<text text-anchor="middle" x="276" y="-81" font-family="Helvetica,sans-Serif" font-size="10.00">ImRect::ContainsWithPad</text>
</a>
</g>
</g>
<!-- Node1&#45;&gt;Node5 -->
<g id="edge4" class="edge">
<title>Node1&#45;&gt;Node5</title>
<path fill="none" stroke="#63b8ff" d="M158.19,-72.12C170.52,-73.32 183.29,-74.56 195.65,-75.77"/>
<polygon fill="#63b8ff" stroke="#63b8ff" points="195.63,-79.28 205.92,-76.77 196.3,-72.32 195.63,-79.28"/>
</g>
<!-- Node6 -->
<g id="node6" class="node">
<title>Node6</title>
<g id="a_node6"><a xlink:href="structImGuiViewportP.html#adb4c14f0b0a42bff9c1c0ab1971027f7" target="_top" xlink:title=" ">
<polygon fill="white" stroke="#666666" points="358,-56 194,-56 194,-37 358,-37 358,-56"/>
<text text-anchor="middle" x="276" y="-44" font-family="Helvetica,sans-Serif" font-size="10.00">ImGuiViewportP::GetMainRect</text>
</a>
</g>
</g>
<!-- Node1&#45;&gt;Node6 -->
<g id="edge5" class="edge">
<title>Node1&#45;&gt;Node6</title>
<path fill="none" stroke="#63b8ff" d="M158.19,-57.28C166.64,-56.5 175.3,-55.7 183.89,-54.91"/>
<polygon fill="#63b8ff" stroke="#63b8ff" points="184.29,-58.39 193.92,-53.98 183.64,-51.42 184.29,-58.39"/>
</g>
<!-- Node7 -->
<g id="node7" class="node">
<title>Node7</title>
<g id="a_node7"><a xlink:href="structImRect.html#a0af3bade3781e5e7c6afdf71ccfb0d43" target="_top" xlink:title=" ">
<polygon fill="white" stroke="#666666" points="326.5,-19 225.5,-19 225.5,0 326.5,0 326.5,-19"/>
<text text-anchor="middle" x="276" y="-7" font-family="Helvetica,sans-Serif" font-size="10.00">ImRect::Overlaps</text>
</a>
</g>
</g>
<!-- Node1&#45;&gt;Node7 -->
<g id="edge6" class="edge">
<title>Node1&#45;&gt;Node7</title>
<path fill="none" stroke="#63b8ff" d="M108.4,-54.87C131.36,-47.25 164.58,-36.58 194,-28.5 202.9,-26.06 212.4,-23.65 221.65,-21.41"/>
<polygon fill="#63b8ff" stroke="#63b8ff" points="222.63,-24.77 231.55,-19.06 221.01,-17.96 222.63,-24.77"/>
</g>
<!-- Node3 -->
<g id="node3" class="node">
<title>Node3</title>
<g id="a_node3"><a xlink:href="imgui__internal_8h.html#a7667efd95147d0422f140917c71a9226" target="_top" xlink:title=" ">
<polygon fill="white" stroke="#666666" points="444,-148 394,-148 394,-129 444,-129 444,-148"/>
<text text-anchor="middle" x="419" y="-136" font-family="Helvetica,sans-Serif" font-size="10.00">ImMax</text>
</a>
</g>
</g>
<!-- Node2&#45;&gt;Node3 -->
<g id="edge2" class="edge">
<title>Node2&#45;&gt;Node3</title>
<path fill="none" stroke="#63b8ff" d="M325.13,-126.64C344.29,-129.09 365.91,-131.85 383.46,-134.09"/>
<polygon fill="#63b8ff" stroke="#63b8ff" points="383.45,-137.62 393.81,-135.41 384.33,-130.67 383.45,-137.62"/>
</g>
<!-- Node4 -->
<g id="node4" class="node">
<title>Node4</title>
<g id="a_node4"><a xlink:href="imgui__internal_8h.html#a7f9d7828066a9d61b5630adcdf4655d3" target="_top" xlink:title=" ">
<polygon fill="white" stroke="#666666" points="442.5,-111 395.5,-111 395.5,-92 442.5,-92 442.5,-111"/>
<text text-anchor="middle" x="419" y="-99" font-family="Helvetica,sans-Serif" font-size="10.00">ImMin</text>
</a>
</g>
</g>
<!-- Node2&#45;&gt;Node4 -->
<g id="edge3" class="edge">
<title>Node2&#45;&gt;Node4</title>
<path fill="none" stroke="#63b8ff" d="M325.13,-114.01C345,-111.34 367.52,-108.3 385.41,-105.89"/>
<polygon fill="#63b8ff" stroke="#63b8ff" points="385.91,-109.36 395.35,-104.55 384.97,-102.42 385.91,-109.36"/>
</g>
</g>
</svg>
