<?xml version="1.0" encoding="UTF-8" standalone="no"?>
<!DOCTYPE svg PUBLIC "-//W3C//DTD SVG 1.1//EN"
 "http://www.w3.org/Graphics/SVG/1.1/DTD/svg11.dtd">
<!-- Generated by graphviz version 2.43.0 (0)
 -->
<!-- Title: ImGui::TabBarQueueReorderFromMousePos Pages: 1 -->
<svg width="354pt" height="64pt"
 viewBox="0.00 0.00 354.00 64.00" xmlns="http://www.w3.org/2000/svg" xmlns:xlink="http://www.w3.org/1999/xlink">
<g id="graph0" class="graph" transform="scale(1 1) rotate(0) translate(4 60)">
<title>ImGui::TabBarQueueReorderFromMousePos</title>
<!-- Node1 -->
<g id="node1" class="node">
<title>Node1</title>
<g id="a_node1"><a xlink:title=" ">
<polygon fill="#999999" stroke="#666666" points="155,-42.5 0,-42.5 0,-12.5 155,-12.5 155,-42.5"/>
<text text-anchor="start" x="8" y="-30.5" font-family="Helvetica,sans-Serif" font-size="10.00">ImGui::TabBarQueueReorder</text>
<text text-anchor="middle" x="77.5" y="-19.5" font-family="Helvetica,sans-Serif" font-size="10.00">FromMousePos</text>
</a>
</g>
</g>
<!-- Node2 -->
<g id="node2" class="node">
<title>Node2</title>
<g id="a_node2"><a xlink:href="structImVector.html#a3fd48379f807eeb01fb9da39afa30dc7" target="_top" xlink:title=" ">
<polygon fill="white" stroke="#666666" points="338.5,-56 198.5,-56 198.5,-37 338.5,-37 338.5,-56"/>
<text text-anchor="middle" x="268.5" y="-44" font-family="Helvetica,sans-Serif" font-size="10.00">ImVector::index_from_ptr</text>
</a>
</g>
</g>
<!-- Node1&#45;&gt;Node2 -->
<g id="edge1" class="edge">
<title>Node1&#45;&gt;Node2</title>
<path fill="none" stroke="#63b8ff" d="M155.1,-35.2C166.07,-36.3 177.37,-37.44 188.39,-38.55"/>
<polygon fill="#63b8ff" stroke="#63b8ff" points="188.1,-42.04 198.4,-39.55 188.8,-35.07 188.1,-42.04"/>
</g>
<!-- Node3 -->
<g id="node3" class="node">
<title>Node3</title>
<g id="a_node3"><a xlink:href="namespaceImGui.html#afe20b51ba36c0404fa50edff0d039739" target="_top" xlink:title=" ">
<polygon fill="white" stroke="#666666" points="346,-19 191,-19 191,0 346,0 346,-19"/>
<text text-anchor="middle" x="268.5" y="-7" font-family="Helvetica,sans-Serif" font-size="10.00">ImGui::TabBarQueueReorder</text>
</a>
</g>
</g>
<!-- Node1&#45;&gt;Node3 -->
<g id="edge2" class="edge">
<title>Node1&#45;&gt;Node3</title>
<path fill="none" stroke="#63b8ff" d="M155.1,-20.2C163.56,-19.4 172.22,-18.57 180.79,-17.76"/>
<polygon fill="#63b8ff" stroke="#63b8ff" points="181.17,-21.24 190.79,-16.81 180.5,-14.27 181.17,-21.24"/>
</g>
</g>
</svg>
