<?xml version="1.0" encoding="UTF-8" standalone="no"?>
<!DOCTYPE svg PUBLIC "-//W3C//DTD SVG 1.1//EN"
 "http://www.w3.org/Graphics/SVG/1.1/DTD/svg11.dtd">
<!-- Generated by graphviz version 2.43.0 (0)
 -->
<!-- Title: GraphEditor::HandleZoomScroll Pages: 1 -->
<svg width="570pt" height="212pt"
 viewBox="0.00 0.00 570.00 212.00" xmlns="http://www.w3.org/2000/svg" xmlns:xlink="http://www.w3.org/1999/xlink">
<g id="graph0" class="graph" transform="scale(1 1) rotate(0) translate(4 208)">
<title>GraphEditor::HandleZoomScroll</title>
<!-- Node1 -->
<g id="node1" class="node">
<title>Node1</title>
<g id="a_node1"><a xlink:title=" ">
<polygon fill="#999999" stroke="#666666" points="170,-111 0,-111 0,-92 170,-92 170,-111"/>
<text text-anchor="middle" x="85" y="-99" font-family="Helvetica,sans-Serif" font-size="10.00">GraphEditor::HandleZoomScroll</text>
</a>
</g>
</g>
<!-- Node2 -->
<g id="node2" class="node">
<title>Node2</title>
<g id="a_node2"><a xlink:href="structImRect.html#ac583156fd0e9306181fff5d120b262ea" target="_top" xlink:title=" ">
<polygon fill="white" stroke="#666666" points="331.5,-204 231.5,-204 231.5,-185 331.5,-185 331.5,-204"/>
<text text-anchor="middle" x="281.5" y="-192" font-family="Helvetica,sans-Serif" font-size="10.00">ImRect::Contains</text>
</a>
</g>
</g>
<!-- Node1&#45;&gt;Node2 -->
<g id="edge1" class="edge">
<title>Node1&#45;&gt;Node2</title>
<path fill="none" stroke="#63b8ff" d="M98.22,-111.03C119.14,-126.89 163.65,-158.7 206,-176.5 210.98,-178.59 216.26,-180.48 221.61,-182.16"/>
<polygon fill="#63b8ff" stroke="#63b8ff" points="220.71,-185.54 231.29,-184.99 222.67,-178.82 220.71,-185.54"/>
</g>
<!-- Node3 -->
<g id="node3" class="node">
<title>Node3</title>
<g id="a_node3"><a xlink:href="namespaceImGui.html#adb0db3c1ee36f5085f35890a4229ae75" target="_top" xlink:title=" ">
<polygon fill="white" stroke="#666666" points="357,-167 206,-167 206,-148 357,-148 357,-167"/>
<text text-anchor="middle" x="281.5" y="-155" font-family="Helvetica,sans-Serif" font-size="10.00">ImGui::GetCursorScreenPos</text>
</a>
</g>
</g>
<!-- Node1&#45;&gt;Node3 -->
<g id="edge2" class="edge">
<title>Node1&#45;&gt;Node3</title>
<path fill="none" stroke="#63b8ff" d="M114.44,-111.12C138.65,-119.16 174.42,-130.7 206,-139.5 213.31,-141.54 221.06,-143.56 228.69,-145.47"/>
<polygon fill="#63b8ff" stroke="#63b8ff" points="228.05,-148.92 238.6,-147.92 229.73,-142.13 228.05,-148.92"/>
</g>
<!-- Node5 -->
<g id="node5" class="node">
<title>Node5</title>
<g id="a_node5"><a xlink:href="namespaceImGui.html#a3179e560812f878f3961ce803a5d9302" target="_top" xlink:title=" ">
<polygon fill="white" stroke="#666666" points="321.5,-130 241.5,-130 241.5,-111 321.5,-111 321.5,-130"/>
<text text-anchor="middle" x="281.5" y="-118" font-family="Helvetica,sans-Serif" font-size="10.00">ImGui::GetIO</text>
</a>
</g>
</g>
<!-- Node1&#45;&gt;Node5 -->
<g id="edge4" class="edge">
<title>Node1&#45;&gt;Node5</title>
<path fill="none" stroke="#63b8ff" d="M170.18,-109.72C191.06,-111.76 212.75,-113.88 231.32,-115.7"/>
<polygon fill="#63b8ff" stroke="#63b8ff" points="231,-119.18 241.29,-116.67 231.68,-112.21 231,-119.18"/>
</g>
<!-- Node6 -->
<g id="node6" class="node">
<title>Node6</title>
<g id="a_node6"><a xlink:href="imgui__internal_8h.html#a6e61ede308bfd68c7434e17905a29fc8" target="_top" xlink:title=" ">
<polygon fill="white" stroke="#666666" points="312,-93 251,-93 251,-74 312,-74 312,-93"/>
<text text-anchor="middle" x="281.5" y="-81" font-family="Helvetica,sans-Serif" font-size="10.00">ImClamp</text>
</a>
</g>
</g>
<!-- Node1&#45;&gt;Node6 -->
<g id="edge5" class="edge">
<title>Node1&#45;&gt;Node6</title>
<path fill="none" stroke="#63b8ff" d="M170.18,-93.71C194.66,-91.44 220.26,-89.07 240.64,-87.19"/>
<polygon fill="#63b8ff" stroke="#63b8ff" points="241.15,-90.66 250.78,-86.25 240.5,-83.69 241.15,-90.66"/>
</g>
<!-- Node7 -->
<g id="node7" class="node">
<title>Node7</title>
<g id="a_node7"><a xlink:href="imgui__internal_8h.html#a1d7813429922346e44eebd82d13f777c" target="_top" xlink:title=" ">
<polygon fill="white" stroke="#666666" points="306.5,-56 256.5,-56 256.5,-37 306.5,-37 306.5,-56"/>
<text text-anchor="middle" x="281.5" y="-44" font-family="Helvetica,sans-Serif" font-size="10.00">ImLerp</text>
</a>
</g>
</g>
<!-- Node1&#45;&gt;Node7 -->
<g id="edge6" class="edge">
<title>Node1&#45;&gt;Node7</title>
<path fill="none" stroke="#63b8ff" d="M116.48,-91.97C140.67,-84.5 175.4,-73.99 206,-65.5 219.19,-61.84 233.78,-58.06 246.52,-54.85"/>
<polygon fill="#63b8ff" stroke="#63b8ff" points="247.42,-58.23 256.27,-52.41 245.72,-51.44 247.42,-58.23"/>
</g>
<!-- Node8 -->
<g id="node8" class="node">
<title>Node8</title>
<g id="a_node8"><a xlink:href="namespaceImGui.html#a22d482190e8f549d5904aded1c6f7778" target="_top" xlink:title=" ">
<polygon fill="white" stroke="#666666" points="348.5,-19 214.5,-19 214.5,0 348.5,0 348.5,-19"/>
<text text-anchor="middle" x="281.5" y="-7" font-family="Helvetica,sans-Serif" font-size="10.00">ImGui::IsMousePosValid</text>
</a>
</g>
</g>
<!-- Node1&#45;&gt;Node8 -->
<g id="edge7" class="edge">
<title>Node1&#45;&gt;Node8</title>
<path fill="none" stroke="#63b8ff" d="M98.98,-91.81C120.27,-76.32 164.42,-45.99 206,-28.5 211.81,-26.05 218.02,-23.87 224.27,-21.92"/>
<polygon fill="#63b8ff" stroke="#63b8ff" points="225.47,-25.22 234.09,-19.06 223.51,-18.5 225.47,-25.22"/>
</g>
<!-- Node4 -->
<g id="node4" class="node">
<title>Node4</title>
<g id="a_node4"><a xlink:href="namespaceImGui.html#a055af7d6b7b4ae977a9c3c25a98e0d2f" target="_top" xlink:title=" ">
<polygon fill="white" stroke="#666666" points="562,-167 393,-167 393,-148 562,-148 562,-167"/>
<text text-anchor="middle" x="477.5" y="-155" font-family="Helvetica,sans-Serif" font-size="10.00">ImGui::GetCurrentWindowRead</text>
</a>
</g>
</g>
<!-- Node3&#45;&gt;Node4 -->
<g id="edge3" class="edge">
<title>Node3&#45;&gt;Node4</title>
<path fill="none" stroke="#63b8ff" d="M357.23,-157.5C365.59,-157.5 374.19,-157.5 382.75,-157.5"/>
<polygon fill="#63b8ff" stroke="#63b8ff" points="382.77,-161 392.77,-157.5 382.77,-154 382.77,-161"/>
</g>
</g>
</svg>
