<?xml version="1.0" encoding="UTF-8" standalone="no"?>
<!DOCTYPE svg PUBLIC "-//W3C//DTD SVG 1.1//EN"
 "http://www.w3.org/Graphics/SVG/1.1/DTD/svg11.dtd">
<!-- Generated by graphviz version 2.43.0 (0)
 -->
<!-- Title: ImGui::NavInitRequestApplyResult Pages: 1 -->
<svg width="863pt" height="115pt"
 viewBox="0.00 0.00 863.00 114.50" xmlns="http://www.w3.org/2000/svg" xmlns:xlink="http://www.w3.org/1999/xlink">
<g id="graph0" class="graph" transform="scale(1 1) rotate(0) translate(4 110.5)">
<title>ImGui::NavInitRequestApplyResult</title>
<!-- Node1 -->
<g id="node1" class="node">
<title>Node1</title>
<g id="a_node1"><a xlink:title=" ">
<polygon fill="#999999" stroke="#666666" points="155,-84.5 0,-84.5 0,-54.5 155,-54.5 155,-84.5"/>
<text text-anchor="start" x="8" y="-72.5" font-family="Helvetica,sans-Serif" font-size="10.00">ImGui::NavInitRequestApply</text>
<text text-anchor="middle" x="77.5" y="-61.5" font-family="Helvetica,sans-Serif" font-size="10.00">Result</text>
</a>
</g>
</g>
<!-- Node2 -->
<g id="node2" class="node">
<title>Node2</title>
<g id="a_node2"><a xlink:href="namespaceImGui.html#a570df642d8c9d5c20545160205aea3ca" target="_top" xlink:title=" ">
<polygon fill="white" stroke="#666666" points="343,-106.5 191,-106.5 191,-76.5 343,-76.5 343,-106.5"/>
<text text-anchor="start" x="199" y="-94.5" font-family="Helvetica,sans-Serif" font-size="10.00">ImGui::SetNavCursorVisible</text>
<text text-anchor="middle" x="267" y="-83.5" font-family="Helvetica,sans-Serif" font-size="10.00">AfterMove</text>
</a>
</g>
</g>
<!-- Node1&#45;&gt;Node2 -->
<g id="edge1" class="edge">
<title>Node1&#45;&gt;Node2</title>
<path fill="none" stroke="#63b8ff" d="M155.03,-78.48C163.55,-79.48 172.26,-80.5 180.87,-81.51"/>
<polygon fill="#63b8ff" stroke="#63b8ff" points="180.58,-85 190.92,-82.69 181.4,-78.05 180.58,-85"/>
</g>
<!-- Node3 -->
<g id="node3" class="node">
<title>Node3</title>
<g id="a_node3"><a xlink:href="namespaceImGui.html#a101d94ec7f8e0a219bbaee58558316eb" target="_top" xlink:title=" ">
<polygon fill="white" stroke="#666666" points="316,-58 218,-58 218,-39 316,-39 316,-58"/>
<text text-anchor="middle" x="267" y="-46" font-family="Helvetica,sans-Serif" font-size="10.00">ImGui::SetNavID</text>
</a>
</g>
</g>
<!-- Node1&#45;&gt;Node3 -->
<g id="edge2" class="edge">
<title>Node1&#45;&gt;Node3</title>
<path fill="none" stroke="#63b8ff" d="M155.03,-60.93C172.64,-58.96 191.09,-56.89 207.78,-55.02"/>
<polygon fill="#63b8ff" stroke="#63b8ff" points="208.37,-58.48 217.92,-53.89 207.59,-51.52 208.37,-58.48"/>
</g>
<!-- Node4 -->
<g id="node4" class="node">
<title>Node4</title>
<g id="a_node4"><a xlink:href="namespaceImGui.html#a16348f6e2db5310142fff74eeb315929" target="_top" xlink:title=" ">
<polygon fill="white" stroke="#666666" points="522,-85.5 380,-85.5 380,-55.5 522,-55.5 522,-85.5"/>
<text text-anchor="start" x="388" y="-73.5" font-family="Helvetica,sans-Serif" font-size="10.00">ImGui::NavClearPreferred</text>
<text text-anchor="middle" x="451" y="-62.5" font-family="Helvetica,sans-Serif" font-size="10.00">PosForAxis</text>
</a>
</g>
</g>
<!-- Node3&#45;&gt;Node4 -->
<g id="edge3" class="edge">
<title>Node3&#45;&gt;Node4</title>
<path fill="none" stroke="#63b8ff" d="M316.29,-54.34C332.73,-56.32 351.58,-58.6 369.83,-60.81"/>
<polygon fill="#63b8ff" stroke="#63b8ff" points="369.54,-64.3 379.89,-62.03 370.38,-57.35 369.54,-64.3"/>
</g>
<!-- Node5 -->
<g id="node5" class="node">
<title>Node5</title>
<g id="a_node5"><a xlink:href="namespaceImGui.html#ada2736a9b034b93ba877f46577bc5e8b" target="_top" xlink:title=" ">
<polygon fill="white" stroke="#666666" points="523,-37 379,-37 379,-18 523,-18 523,-37"/>
<text text-anchor="middle" x="451" y="-25" font-family="Helvetica,sans-Serif" font-size="10.00">ImGui::SetNavFocusScope</text>
</a>
</g>
</g>
<!-- Node3&#45;&gt;Node5 -->
<g id="edge4" class="edge">
<title>Node3&#45;&gt;Node5</title>
<path fill="none" stroke="#63b8ff" d="M316.29,-42.93C332.32,-41.08 350.62,-38.97 368.44,-36.91"/>
<polygon fill="#63b8ff" stroke="#63b8ff" points="369.32,-40.33 378.85,-35.71 368.52,-33.38 369.32,-40.33"/>
</g>
<!-- Node6 -->
<g id="node6" class="node">
<title>Node6</title>
<g id="a_node6"><a xlink:href="structImVector.html#aab5df48e0711a48bd12f3206e08c4108" target="_top" xlink:title=" ">
<polygon fill="white" stroke="#666666" points="677,-56 559,-56 559,-37 677,-37 677,-56"/>
<text text-anchor="middle" x="618" y="-44" font-family="Helvetica,sans-Serif" font-size="10.00">ImVector::push_back</text>
</a>
</g>
</g>
<!-- Node5&#45;&gt;Node6 -->
<g id="edge5" class="edge">
<title>Node5&#45;&gt;Node6</title>
<path fill="none" stroke="#63b8ff" d="M523.41,-35.72C531.83,-36.69 540.41,-37.68 548.79,-38.65"/>
<polygon fill="#63b8ff" stroke="#63b8ff" points="548.54,-42.14 558.88,-39.81 549.34,-35.19 548.54,-42.14"/>
</g>
<!-- Node9 -->
<g id="node9" class="node">
<title>Node9</title>
<g id="a_node9"><a xlink:href="structImVector.html#ac371dd62e56ae486b1a5038cf07eee56" target="_top" xlink:title=" ">
<polygon fill="white" stroke="#666666" points="665.5,-19 570.5,-19 570.5,0 665.5,0 665.5,-19"/>
<text text-anchor="middle" x="618" y="-7" font-family="Helvetica,sans-Serif" font-size="10.00">ImVector::resize</text>
</a>
</g>
</g>
<!-- Node5&#45;&gt;Node9 -->
<g id="edge8" class="edge">
<title>Node5&#45;&gt;Node9</title>
<path fill="none" stroke="#63b8ff" d="M523.41,-19.71C535.67,-18.37 548.26,-17 560.08,-15.71"/>
<polygon fill="#63b8ff" stroke="#63b8ff" points="560.68,-19.17 570.24,-14.6 559.92,-12.21 560.68,-19.17"/>
</g>
<!-- Node7 -->
<g id="node7" class="node">
<title>Node7</title>
<g id="a_node7"><a xlink:href="structImVector.html#a3a097635d464b1b70dc7d59996a88b28" target="_top" xlink:title=" ">
<polygon fill="white" stroke="#666666" points="855,-56 713,-56 713,-37 855,-37 855,-56"/>
<text text-anchor="middle" x="784" y="-44" font-family="Helvetica,sans-Serif" font-size="10.00">ImVector::_grow_capacity</text>
</a>
</g>
</g>
<!-- Node6&#45;&gt;Node7 -->
<g id="edge6" class="edge">
<title>Node6&#45;&gt;Node7</title>
<path fill="none" stroke="#63b8ff" d="M677.28,-46.5C685.55,-46.5 694.18,-46.5 702.78,-46.5"/>
<polygon fill="#63b8ff" stroke="#63b8ff" points="702.83,-50 712.83,-46.5 702.83,-43 702.83,-50"/>
</g>
<!-- Node8 -->
<g id="node8" class="node">
<title>Node8</title>
<g id="a_node8"><a xlink:href="structImVector.html#a0f14f5736c3372157856eebb67123b75" target="_top" xlink:title=" ">
<polygon fill="white" stroke="#666666" points="835.5,-19 732.5,-19 732.5,0 835.5,0 835.5,-19"/>
<text text-anchor="middle" x="784" y="-7" font-family="Helvetica,sans-Serif" font-size="10.00">ImVector::reserve</text>
</a>
</g>
</g>
<!-- Node6&#45;&gt;Node8 -->
<g id="edge7" class="edge">
<title>Node6&#45;&gt;Node8</title>
<path fill="none" stroke="#63b8ff" d="M661.23,-36.97C682.39,-32.2 708.19,-26.38 730.6,-21.32"/>
<polygon fill="#63b8ff" stroke="#63b8ff" points="731.64,-24.68 740.62,-19.06 730.1,-17.85 731.64,-24.68"/>
</g>
<!-- Node9&#45;&gt;Node7 -->
<g id="edge9" class="edge">
<title>Node9&#45;&gt;Node7</title>
<path fill="none" stroke="#63b8ff" d="M661.23,-19.03C682.39,-23.8 708.19,-29.62 730.6,-34.68"/>
<polygon fill="#63b8ff" stroke="#63b8ff" points="730.1,-38.15 740.62,-36.94 731.64,-31.32 730.1,-38.15"/>
</g>
<!-- Node9&#45;&gt;Node8 -->
<g id="edge10" class="edge">
<title>Node9&#45;&gt;Node8</title>
<path fill="none" stroke="#63b8ff" d="M665.56,-9.5C683.14,-9.5 703.4,-9.5 722.1,-9.5"/>
<polygon fill="#63b8ff" stroke="#63b8ff" points="722.3,-13 732.3,-9.5 722.3,-6 722.3,-13"/>
</g>
</g>
</svg>
