<?xml version="1.0" encoding="UTF-8" standalone="no"?>
<!DOCTYPE svg PUBLIC "-//W3C//DTD SVG 1.1//EN"
 "http://www.w3.org/Graphics/SVG/1.1/DTD/svg11.dtd">
<!-- Generated by graphviz version 2.43.0 (0)
 -->
<!-- Title: ImGui::DockBuilderGetNode Pages: 1 -->
<svg width="387pt" height="76pt"
 viewBox="0.00 0.00 387.00 75.50" xmlns="http://www.w3.org/2000/svg" xmlns:xlink="http://www.w3.org/1999/xlink">
<g id="graph0" class="graph" transform="scale(1 1) rotate(0) translate(4 71.5)">
<title>ImGui::DockBuilderGetNode</title>
<!-- Node1 -->
<g id="node1" class="node">
<title>Node1</title>
<g id="a_node1"><a xlink:title=" ">
<polygon fill="#999999" stroke="#666666" points="379,-40 225,-40 225,-21 379,-21 379,-40"/>
<text text-anchor="middle" x="302" y="-28" font-family="Helvetica,sans-Serif" font-size="10.00">ImGui::DockBuilderGetNode</text>
</a>
</g>
</g>
<!-- Node2 -->
<g id="node2" class="node">
<title>Node2</title>
<g id="a_node2"><a xlink:href="namespaceImGui.html#adf707304b4d0759f566bdf584b913815" target="_top" xlink:title=" ">
<polygon fill="white" stroke="#666666" points="175,-67.5 14,-67.5 14,-37.5 175,-37.5 175,-67.5"/>
<text text-anchor="start" x="22" y="-55.5" font-family="Helvetica,sans-Serif" font-size="10.00">ImGui::DockBuilderCopyDock</text>
<text text-anchor="middle" x="94.5" y="-44.5" font-family="Helvetica,sans-Serif" font-size="10.00">Space</text>
</a>
</g>
</g>
<!-- Node1&#45;&gt;Node2 -->
<g id="edge1" class="edge">
<title>Node1&#45;&gt;Node2</title>
<path fill="none" stroke="#63b8ff" d="M214.79,-39.73C201.61,-41.14 188.07,-42.59 175.04,-43.98"/>
<polygon fill="#63b8ff" stroke="#63b8ff" points="215.2,-43.21 224.77,-38.66 214.46,-36.25 215.2,-43.21"/>
</g>
<!-- Node3 -->
<g id="node3" class="node">
<title>Node3</title>
<g id="a_node3"><a xlink:href="namespaceImGui.html#acc707e98b3ac6d215576e384a3a0713c" target="_top" xlink:title=" ">
<polygon fill="white" stroke="#666666" points="189,-19 0,-19 0,0 189,0 189,-19"/>
<text text-anchor="middle" x="94.5" y="-7" font-family="Helvetica,sans-Serif" font-size="10.00">ImGui::DockBuilderGetCentralNode</text>
</a>
</g>
</g>
<!-- Node1&#45;&gt;Node3 -->
<g id="edge2" class="edge">
<title>Node1&#45;&gt;Node3</title>
<path fill="none" stroke="#63b8ff" d="M214.74,-21.69C206.12,-20.8 197.34,-19.91 188.66,-19.02"/>
<polygon fill="#63b8ff" stroke="#63b8ff" points="214.47,-25.18 224.77,-22.71 215.18,-18.21 214.47,-25.18"/>
</g>
</g>
</svg>
