<?xml version="1.0" encoding="UTF-8" standalone="no"?>
<!DOCTYPE svg PUBLIC "-//W3C//DTD SVG 1.1//EN"
 "http://www.w3.org/Graphics/SVG/1.1/DTD/svg11.dtd">
<!-- Generated by graphviz version 2.43.0 (0)
 -->
<!-- Title: ImGui::NavMoveRequestResolveWithLastItem Pages: 1 -->
<svg width="600pt" height="64pt"
 viewBox="0.00 0.00 600.00 64.00" xmlns="http://www.w3.org/2000/svg" xmlns:xlink="http://www.w3.org/1999/xlink">
<g id="graph0" class="graph" transform="scale(1 1) rotate(0) translate(4 60)">
<title>ImGui::NavMoveRequestResolveWithLastItem</title>
<!-- Node1 -->
<g id="node1" class="node">
<title>Node1</title>
<g id="a_node1"><a xlink:title=" ">
<polygon fill="#999999" stroke="#666666" points="177,-42.5 0,-42.5 0,-12.5 177,-12.5 177,-42.5"/>
<text text-anchor="start" x="8" y="-30.5" font-family="Helvetica,sans-Serif" font-size="10.00">ImGui::NavMoveRequestResolve</text>
<text text-anchor="middle" x="88.5" y="-19.5" font-family="Helvetica,sans-Serif" font-size="10.00">WithLastItem</text>
</a>
</g>
</g>
<!-- Node2 -->
<g id="node2" class="node">
<title>Node2</title>
<g id="a_node2"><a xlink:href="namespaceImGui.html#afc3f5b074b158526cfe8531de843aa5f" target="_top" xlink:title=" ">
<polygon fill="white" stroke="#666666" points="387.5,-56 224.5,-56 224.5,-37 387.5,-37 387.5,-56"/>
<text text-anchor="middle" x="306" y="-44" font-family="Helvetica,sans-Serif" font-size="10.00">ImGui::NavApplyItemToResult</text>
</a>
</g>
</g>
<!-- Node1&#45;&gt;Node2 -->
<g id="edge1" class="edge">
<title>Node1&#45;&gt;Node2</title>
<path fill="none" stroke="#63b8ff" d="M177.15,-35.23C189.35,-36.3 201.91,-37.41 214.16,-38.49"/>
<polygon fill="#63b8ff" stroke="#63b8ff" points="214.1,-42 224.37,-39.39 214.72,-35.03 214.1,-42"/>
</g>
<!-- Node4 -->
<g id="node4" class="node">
<title>Node4</title>
<g id="a_node4"><a xlink:href="namespaceImGui.html#a2cd868535661cdb5671214662f3c9388" target="_top" xlink:title=" ">
<polygon fill="white" stroke="#666666" points="399,-19 213,-19 213,0 399,0 399,-19"/>
<text text-anchor="middle" x="306" y="-7" font-family="Helvetica,sans-Serif" font-size="10.00">ImGui::NavUpdateAnyRequestFlag</text>
</a>
</g>
</g>
<!-- Node1&#45;&gt;Node4 -->
<g id="edge3" class="edge">
<title>Node1&#45;&gt;Node4</title>
<path fill="none" stroke="#63b8ff" d="M177.15,-20.18C185.61,-19.47 194.24,-18.75 202.83,-18.03"/>
<polygon fill="#63b8ff" stroke="#63b8ff" points="203.19,-21.52 212.87,-17.2 202.61,-14.54 203.19,-21.52"/>
</g>
<!-- Node3 -->
<g id="node3" class="node">
<title>Node3</title>
<g id="a_node3"><a xlink:href="namespaceImGui.html#a06d8e9fae450c785dc8f61f6e03462a7" target="_top" xlink:title=" ">
<polygon fill="white" stroke="#666666" points="592,-56 435,-56 435,-37 592,-37 592,-56"/>
<text text-anchor="middle" x="513.5" y="-44" font-family="Helvetica,sans-Serif" font-size="10.00">ImGui::WindowRectAbsToRel</text>
</a>
</g>
</g>
<!-- Node2&#45;&gt;Node3 -->
<g id="edge2" class="edge">
<title>Node2&#45;&gt;Node3</title>
<path fill="none" stroke="#63b8ff" d="M387.63,-46.5C399.75,-46.5 412.31,-46.5 424.57,-46.5"/>
<polygon fill="#63b8ff" stroke="#63b8ff" points="424.79,-50 434.79,-46.5 424.79,-43 424.79,-50"/>
</g>
</g>
</svg>
