<?xml version="1.0" encoding="UTF-8" standalone="no"?>
<!DOCTYPE svg PUBLIC "-//W3C//DTD SVG 1.1//EN"
 "http://www.w3.org/Graphics/SVG/1.1/DTD/svg11.dtd">
<!-- Generated by graphviz version 2.43.0 (0)
 -->
<!-- Title: ImGui::CloseCurrentPopup Pages: 1 -->
<svg width="1710pt" height="449pt"
 viewBox="0.00 0.00 1710.00 448.50" xmlns="http://www.w3.org/2000/svg" xmlns:xlink="http://www.w3.org/1999/xlink">
<g id="graph0" class="graph" transform="scale(1 1) rotate(0) translate(4 444.5)">
<title>ImGui::CloseCurrentPopup</title>
<!-- Node1 -->
<g id="node1" class="node">
<title>Node1</title>
<g id="a_node1"><a xlink:title=" ">
<polygon fill="#999999" stroke="#666666" points="145,-364 0,-364 0,-345 145,-345 145,-364"/>
<text text-anchor="middle" x="72.5" y="-352" font-family="Helvetica,sans-Serif" font-size="10.00">ImGui::CloseCurrentPopup</text>
</a>
</g>
</g>
<!-- Node2 -->
<g id="node2" class="node">
<title>Node2</title>
<g id="a_node2"><a xlink:href="namespaceImGui.html#a0be705dc533a62387dc39ec5c276d2a0" target="_top" xlink:title=" ">
<polygon fill="white" stroke="#666666" points="327,-364 181,-364 181,-345 327,-345 327,-364"/>
<text text-anchor="middle" x="254" y="-352" font-family="Helvetica,sans-Serif" font-size="10.00">ImGui::ClosePopupToLevel</text>
</a>
</g>
</g>
<!-- Node1&#45;&gt;Node2 -->
<g id="edge1" class="edge">
<title>Node1&#45;&gt;Node2</title>
<path fill="none" stroke="#63b8ff" d="M145.22,-354.5C153.55,-354.5 162.1,-354.5 170.56,-354.5"/>
<polygon fill="#63b8ff" stroke="#63b8ff" points="170.81,-358 180.81,-354.5 170.81,-351 170.81,-358"/>
</g>
<!-- Node3 -->
<g id="node3" class="node">
<title>Node3</title>
<g id="a_node3"><a xlink:href="namespaceImGui.html#aa97e87e96c05eb3e91aa96fa68b13a2a" target="_top" xlink:title=" ">
<polygon fill="white" stroke="#666666" points="522,-348.5 363,-348.5 363,-318.5 522,-318.5 522,-348.5"/>
<text text-anchor="start" x="371" y="-336.5" font-family="Helvetica,sans-Serif" font-size="10.00">ImGui::FocusTopMostWindow</text>
<text text-anchor="middle" x="442.5" y="-325.5" font-family="Helvetica,sans-Serif" font-size="10.00">UnderOne</text>
</a>
</g>
</g>
<!-- Node2&#45;&gt;Node3 -->
<g id="edge2" class="edge">
<title>Node2&#45;&gt;Node3</title>
<path fill="none" stroke="#63b8ff" d="M327.11,-346.38C335.5,-345.44 344.14,-344.46 352.73,-343.5"/>
<polygon fill="#63b8ff" stroke="#63b8ff" points="353.23,-346.96 362.78,-342.36 352.45,-340.01 353.23,-346.96"/>
</g>
<!-- Node5 -->
<g id="node5" class="node">
<title>Node5</title>
<g id="a_node5"><a xlink:href="namespaceImGui.html#a27aa6f2f3aa11778c6d023b1b223f262" target="_top" xlink:title=" ">
<polygon fill="white" stroke="#666666" points="700.5,-252 581.5,-252 581.5,-233 700.5,-233 700.5,-252"/>
<text text-anchor="middle" x="641" y="-240" font-family="Helvetica,sans-Serif" font-size="10.00">ImGui::FocusWindow</text>
</a>
</g>
</g>
<!-- Node2&#45;&gt;Node5 -->
<g id="edge34" class="edge">
<title>Node2&#45;&gt;Node5</title>
<path fill="none" stroke="#63b8ff" d="M275.34,-344.89C296.78,-335.03 331.72,-319.73 363,-309.5 436.75,-285.38 524.1,-265.67 580.71,-254.01"/>
<polygon fill="#63b8ff" stroke="#63b8ff" points="581.46,-257.43 590.56,-252 580.06,-250.57 581.46,-257.43"/>
</g>
<!-- Node16 -->
<g id="node16" class="node">
<title>Node16</title>
<g id="a_node16"><a xlink:href="structImVector.html#ac371dd62e56ae486b1a5038cf07eee56" target="_top" xlink:title=" ">
<polygon fill="white" stroke="#666666" points="1512.5,-241 1417.5,-241 1417.5,-222 1512.5,-222 1512.5,-241"/>
<text text-anchor="middle" x="1465" y="-229" font-family="Helvetica,sans-Serif" font-size="10.00">ImVector::resize</text>
</a>
</g>
</g>
<!-- Node2&#45;&gt;Node16 -->
<g id="edge35" class="edge">
<title>Node2&#45;&gt;Node16</title>
<path fill="none" stroke="#63b8ff" d="M279.8,-364.03C340.35,-386.42 500.97,-440.5 640,-440.5 640,-440.5 640,-440.5 1066,-440.5 1231.2,-440.5 1395.32,-297.61 1447.2,-248.13"/>
<polygon fill="#63b8ff" stroke="#63b8ff" points="1449.78,-250.49 1454.54,-241.02 1444.92,-245.46 1449.78,-250.49"/>
</g>
<!-- Node4 -->
<g id="node4" class="node">
<title>Node4</title>
<g id="a_node4"><a xlink:href="namespaceImGui.html#a861004d5a1476e954abd68d6f9deaa06" target="_top" xlink:title=" ">
<polygon fill="white" stroke="#666666" points="724,-343 558,-343 558,-324 724,-324 724,-343"/>
<text text-anchor="middle" x="641" y="-331" font-family="Helvetica,sans-Serif" font-size="10.00">ImGui::FindWindowFocusIndex</text>
</a>
</g>
</g>
<!-- Node3&#45;&gt;Node4 -->
<g id="edge3" class="edge">
<title>Node3&#45;&gt;Node4</title>
<path fill="none" stroke="#63b8ff" d="M522.01,-333.5C530.46,-333.5 539.12,-333.5 547.71,-333.5"/>
<polygon fill="#63b8ff" stroke="#63b8ff" points="547.75,-337 557.75,-333.5 547.75,-330 547.75,-337"/>
</g>
<!-- Node3&#45;&gt;Node5 -->
<g id="edge4" class="edge">
<title>Node3&#45;&gt;Node5</title>
<path fill="none" stroke="#63b8ff" d="M475.95,-318.47C513.11,-301.26 573.53,-273.28 609.75,-256.51"/>
<polygon fill="#63b8ff" stroke="#63b8ff" points="611.68,-259.47 619.28,-252.09 608.74,-253.12 611.68,-259.47"/>
</g>
<!-- Node6 -->
<g id="node6" class="node">
<title>Node6</title>
<g id="a_node6"><a xlink:href="namespaceImGui.html#a8cae2f7a08f820a8d5349d1964603b20" target="_top" xlink:title=" ">
<polygon fill="white" stroke="#666666" points="930,-42.5 766,-42.5 766,-12.5 930,-12.5 930,-42.5"/>
<text text-anchor="start" x="774" y="-30.5" font-family="Helvetica,sans-Serif" font-size="10.00">ImGui::BringWindowToDisplay</text>
<text text-anchor="middle" x="848" y="-19.5" font-family="Helvetica,sans-Serif" font-size="10.00">Behind</text>
</a>
</g>
</g>
<!-- Node5&#45;&gt;Node6 -->
<g id="edge5" class="edge">
<title>Node5&#45;&gt;Node6</title>
<path fill="none" stroke="#63b8ff" d="M645.1,-232.8C655.64,-201.39 693.26,-101.53 760,-51.5 761.88,-50.09 763.85,-48.76 765.87,-47.51"/>
<polygon fill="#63b8ff" stroke="#63b8ff" points="767.98,-50.34 775.11,-42.51 764.65,-44.19 767.98,-50.34"/>
</g>
<!-- Node10 -->
<g id="node10" class="node">
<title>Node10</title>
<g id="a_node10"><a xlink:href="namespaceImGui.html#a1f7b95f36d03751c928af7b1b745e959" target="_top" xlink:title=" ">
<polygon fill="white" stroke="#666666" points="930,-337.5 766,-337.5 766,-307.5 930,-307.5 930,-337.5"/>
<text text-anchor="start" x="774" y="-325.5" font-family="Helvetica,sans-Serif" font-size="10.00">ImGui::BringWindowToDisplay</text>
<text text-anchor="middle" x="848" y="-314.5" font-family="Helvetica,sans-Serif" font-size="10.00">Front</text>
</a>
</g>
</g>
<!-- Node5&#45;&gt;Node10 -->
<g id="edge9" class="edge">
<title>Node5&#45;&gt;Node10</title>
<path fill="none" stroke="#63b8ff" d="M659.57,-252.03C682.27,-264.06 723.23,-284.82 760,-298.5 765.55,-300.56 771.36,-302.54 777.23,-304.42"/>
<polygon fill="#63b8ff" stroke="#63b8ff" points="776.54,-307.87 787.13,-307.46 778.6,-301.18 776.54,-307.87"/>
</g>
<!-- Node12 -->
<g id="node12" class="node">
<title>Node12</title>
<g id="a_node12"><a xlink:href="namespaceImGui.html#affe95a2dc969f0d15fbd4b588c94ac1a" target="_top" xlink:title=" ">
<polygon fill="white" stroke="#666666" points="925.5,-289.5 770.5,-289.5 770.5,-259.5 925.5,-259.5 925.5,-289.5"/>
<text text-anchor="start" x="778.5" y="-277.5" font-family="Helvetica,sans-Serif" font-size="10.00">ImGui::BringWindowToFocus</text>
<text text-anchor="middle" x="848" y="-266.5" font-family="Helvetica,sans-Serif" font-size="10.00">Front</text>
</a>
</g>
</g>
<!-- Node5&#45;&gt;Node12 -->
<g id="edge11" class="edge">
<title>Node5&#45;&gt;Node12</title>
<path fill="none" stroke="#63b8ff" d="M700.74,-251.67C719.27,-254.56 740.14,-257.82 760.18,-260.95"/>
<polygon fill="#63b8ff" stroke="#63b8ff" points="759.84,-264.44 770.26,-262.52 760.92,-257.52 759.84,-264.44"/>
</g>
<!-- Node13 -->
<g id="node13" class="node">
<title>Node13</title>
<g id="a_node13"><a xlink:href="namespaceImGui.html#a17ff60ad1e2669130ac38a04d16eb354" target="_top" xlink:title=" ">
<polygon fill="white" stroke="#666666" points="907.5,-241 788.5,-241 788.5,-222 907.5,-222 907.5,-241"/>
<text text-anchor="middle" x="848" y="-229" font-family="Helvetica,sans-Serif" font-size="10.00">ImGui::ClearActiveID</text>
</a>
</g>
</g>
<!-- Node5&#45;&gt;Node13 -->
<g id="edge13" class="edge">
<title>Node5&#45;&gt;Node13</title>
<path fill="none" stroke="#63b8ff" d="M700.74,-239.35C724.87,-238.05 752.98,-236.55 778.07,-235.2"/>
<polygon fill="#63b8ff" stroke="#63b8ff" points="778.45,-238.68 788.25,-234.65 778.07,-231.69 778.45,-238.68"/>
</g>
<!-- Node19 -->
<g id="node19" class="node">
<title>Node19</title>
<g id="a_node19"><a xlink:href="namespaceImGui.html#a0076b153c697cb85e263fcbd59340bce" target="_top" xlink:title=" ">
<polygon fill="white" stroke="#666666" points="936,-412 760,-412 760,-393 936,-393 936,-412"/>
<text text-anchor="middle" x="848" y="-400" font-family="Helvetica,sans-Serif" font-size="10.00">ImGui::ClosePopupsOverWindow</text>
</a>
</g>
</g>
<!-- Node5&#45;&gt;Node19 -->
<g id="edge19" class="edge">
<title>Node5&#45;&gt;Node19</title>
<path fill="none" stroke="#63b8ff" d="M655.91,-252.15C673.48,-264.86 703.84,-288.66 724,-314.5 745.52,-342.08 732.15,-363.33 760,-384.5 761.66,-385.76 763.38,-386.94 765.16,-388.04"/>
<polygon fill="#63b8ff" stroke="#63b8ff" points="763.99,-391.37 774.47,-392.91 767.24,-385.17 763.99,-391.37"/>
</g>
<!-- Node21 -->
<g id="node21" class="node">
<title>Node21</title>
<g id="a_node21"><a xlink:href="namespaceImGui.html#a196705a4195b41a57470ef6553cb440c" target="_top" xlink:title=" ">
<polygon fill="white" stroke="#666666" points="920,-375 776,-375 776,-356 920,-356 920,-375"/>
<text text-anchor="middle" x="848" y="-363" font-family="Helvetica,sans-Serif" font-size="10.00">ImGui::FindBlockingModal</text>
</a>
</g>
</g>
<!-- Node5&#45;&gt;Node21 -->
<g id="edge22" class="edge">
<title>Node5&#45;&gt;Node21</title>
<path fill="none" stroke="#63b8ff" d="M652.9,-252.03C668.62,-265.79 698.59,-292.05 724,-314.5 740.04,-328.67 740.92,-336.79 760,-346.5 764.62,-348.85 769.52,-350.91 774.55,-352.72"/>
<polygon fill="#63b8ff" stroke="#63b8ff" points="773.74,-356.14 784.34,-355.89 775.9,-349.48 773.74,-356.14"/>
</g>
<!-- Node22 -->
<g id="node22" class="node">
<title>Node22</title>
<g id="a_node22"><a xlink:href="namespaceImGui.html#a6b905269b079f5e07755db52cc6e52df" target="_top" xlink:title=" ">
<polygon fill="white" stroke="#666666" points="933,-80 763,-80 763,-61 933,-61 933,-80"/>
<text text-anchor="middle" x="848" y="-68" font-family="Helvetica,sans-Serif" font-size="10.00">ImGui::GetTopMostPopupModal</text>
</a>
</g>
</g>
<!-- Node5&#45;&gt;Node22 -->
<g id="edge24" class="edge">
<title>Node5&#45;&gt;Node22</title>
<path fill="none" stroke="#63b8ff" d="M646.48,-232.71C659.6,-205.25 700.77,-127 760,-89.5 763.36,-87.37 766.92,-85.48 770.61,-83.8"/>
<polygon fill="#63b8ff" stroke="#63b8ff" points="772.01,-87.01 780,-80.04 769.41,-80.51 772.01,-87.01"/>
</g>
<!-- Node23 -->
<g id="node23" class="node">
<title>Node23</title>
<g id="a_node23"><a xlink:href="namespaceImGui.html#ae9ed208c0b64e4919e5de1cb83b2db2a" target="_top" xlink:title=" ">
<polygon fill="white" stroke="#666666" points="925,-128.5 771,-128.5 771,-98.5 925,-98.5 925,-128.5"/>
<text text-anchor="start" x="779" y="-116.5" font-family="Helvetica,sans-Serif" font-size="10.00">ImGui::NavRestoreLastChild</text>
<text text-anchor="middle" x="848" y="-105.5" font-family="Helvetica,sans-Serif" font-size="10.00">NavWindow</text>
</a>
</g>
</g>
<!-- Node5&#45;&gt;Node23 -->
<g id="edge25" class="edge">
<title>Node5&#45;&gt;Node23</title>
<path fill="none" stroke="#63b8ff" d="M650.85,-232.85C669.33,-213.21 714.13,-168.3 760,-142.5 766.83,-138.66 774.25,-135.22 781.78,-132.18"/>
<polygon fill="#63b8ff" stroke="#63b8ff" points="783.25,-135.36 791.34,-128.53 780.75,-128.82 783.25,-135.36"/>
</g>
<!-- Node25 -->
<g id="node25" class="node">
<title>Node25</title>
<g id="a_node25"><a xlink:href="namespaceImGui.html#ada2736a9b034b93ba877f46577bc5e8b" target="_top" xlink:title=" ">
<polygon fill="white" stroke="#666666" points="1354,-204 1210,-204 1210,-185 1354,-185 1354,-204"/>
<text text-anchor="middle" x="1282" y="-192" font-family="Helvetica,sans-Serif" font-size="10.00">ImGui::SetNavFocusScope</text>
</a>
</g>
</g>
<!-- Node5&#45;&gt;Node25 -->
<g id="edge27" class="edge">
<title>Node5&#45;&gt;Node25</title>
<path fill="none" stroke="#63b8ff" d="M653.81,-232.97C674.08,-217.31 717.41,-186.75 760,-175.5 927.18,-131.35 1134.98,-163.67 1229.68,-182.92"/>
<polygon fill="#63b8ff" stroke="#63b8ff" points="1229.07,-186.37 1239.57,-184.97 1230.49,-179.52 1229.07,-186.37"/>
</g>
<!-- Node27 -->
<g id="node27" class="node">
<title>Node27</title>
<g id="a_node27"><a xlink:href="namespaceImGui.html#aa422c756f467e650d67b4fb1b74ff5a1" target="_top" xlink:title=" ">
<polygon fill="white" stroke="#666666" points="911,-204 785,-204 785,-185 911,-185 911,-204"/>
<text text-anchor="middle" x="848" y="-192" font-family="Helvetica,sans-Serif" font-size="10.00">ImGui::SetNavWindow</text>
</a>
</g>
</g>
<!-- Node5&#45;&gt;Node27 -->
<g id="edge32" class="edge">
<title>Node5&#45;&gt;Node27</title>
<path fill="none" stroke="#63b8ff" d="M677.79,-232.96C701.13,-226.84 732.3,-218.88 760,-212.5 769.37,-210.34 779.34,-208.17 789.05,-206.11"/>
<polygon fill="#63b8ff" stroke="#63b8ff" points="789.98,-209.49 799.05,-204.02 788.55,-202.64 789.98,-209.49"/>
</g>
<!-- Node7 -->
<g id="node7" class="node">
<title>Node7</title>
<g id="a_node7"><a xlink:href="namespaceImGui.html#acc8dfbe9f52370fe2b95f6c948ba113e" target="_top" xlink:title=" ">
<polygon fill="white" stroke="#666666" points="1139,-42.5 991,-42.5 991,-12.5 1139,-12.5 1139,-42.5"/>
<text text-anchor="start" x="999" y="-30.5" font-family="Helvetica,sans-Serif" font-size="10.00">ImGui::FindWindowDisplay</text>
<text text-anchor="middle" x="1065" y="-19.5" font-family="Helvetica,sans-Serif" font-size="10.00">Index</text>
</a>
</g>
</g>
<!-- Node6&#45;&gt;Node7 -->
<g id="edge6" class="edge">
<title>Node6&#45;&gt;Node7</title>
<path fill="none" stroke="#63b8ff" d="M930.28,-27.5C946.73,-27.5 964.05,-27.5 980.56,-27.5"/>
<polygon fill="#63b8ff" stroke="#63b8ff" points="980.73,-31 990.73,-27.5 980.73,-24 980.73,-31"/>
</g>
<!-- Node8 -->
<g id="node8" class="node">
<title>Node8</title>
<g id="a_node8"><a xlink:href="structImVector.html#a406417c3efef769d4bee47df2188831a" target="_top" xlink:title=" ">
<polygon fill="white" stroke="#666666" points="1324,-56 1240,-56 1240,-37 1324,-37 1324,-56"/>
<text text-anchor="middle" x="1282" y="-44" font-family="Helvetica,sans-Serif" font-size="10.00">ImVector::find</text>
</a>
</g>
</g>
<!-- Node7&#45;&gt;Node8 -->
<g id="edge7" class="edge">
<title>Node7&#45;&gt;Node8</title>
<path fill="none" stroke="#63b8ff" d="M1139.09,-33.96C1168.88,-36.59 1202.62,-39.57 1229.72,-41.97"/>
<polygon fill="#63b8ff" stroke="#63b8ff" points="1229.49,-45.46 1239.76,-42.86 1230.11,-38.49 1229.49,-45.46"/>
</g>
<!-- Node9 -->
<g id="node9" class="node">
<title>Node9</title>
<g id="a_node9"><a xlink:href="structImVector.html#a3fd48379f807eeb01fb9da39afa30dc7" target="_top" xlink:title=" ">
<polygon fill="white" stroke="#666666" points="1352,-19 1212,-19 1212,0 1352,0 1352,-19"/>
<text text-anchor="middle" x="1282" y="-7" font-family="Helvetica,sans-Serif" font-size="10.00">ImVector::index_from_ptr</text>
</a>
</g>
</g>
<!-- Node7&#45;&gt;Node9 -->
<g id="edge8" class="edge">
<title>Node7&#45;&gt;Node9</title>
<path fill="none" stroke="#63b8ff" d="M1139.09,-21.38C1159.19,-19.7 1181.08,-17.87 1201.52,-16.15"/>
<polygon fill="#63b8ff" stroke="#63b8ff" points="1202.07,-19.62 1211.74,-15.3 1201.49,-12.64 1202.07,-19.62"/>
</g>
<!-- Node11 -->
<g id="node11" class="node">
<title>Node11</title>
<g id="a_node11"><a xlink:href="structImVector.html#a2d80e87e81b1b01143c8d8be93e6fde1" target="_top" xlink:title=" ">
<polygon fill="white" stroke="#666666" points="1109.5,-308 1020.5,-308 1020.5,-289 1109.5,-289 1109.5,-308"/>
<text text-anchor="middle" x="1065" y="-296" font-family="Helvetica,sans-Serif" font-size="10.00">ImVector::back</text>
</a>
</g>
</g>
<!-- Node10&#45;&gt;Node11 -->
<g id="edge10" class="edge">
<title>Node10&#45;&gt;Node11</title>
<path fill="none" stroke="#63b8ff" d="M930.28,-313.43C957.02,-310.44 986.07,-307.2 1010.24,-304.5"/>
<polygon fill="#63b8ff" stroke="#63b8ff" points="1010.72,-307.97 1020.27,-303.38 1009.95,-301.01 1010.72,-307.97"/>
</g>
<!-- Node12&#45;&gt;Node11 -->
<g id="edge12" class="edge">
<title>Node12&#45;&gt;Node11</title>
<path fill="none" stroke="#63b8ff" d="M925.71,-283.06C953.59,-286.17 984.48,-289.62 1009.98,-292.47"/>
<polygon fill="#63b8ff" stroke="#63b8ff" points="1009.87,-295.98 1020.19,-293.61 1010.64,-289.02 1009.87,-295.98"/>
</g>
<!-- Node14 -->
<g id="node14" class="node">
<title>Node14</title>
<g id="a_node14"><a xlink:href="namespaceImGui.html#a27b8ace13a8c421ee8405f0cbebe4ead" target="_top" xlink:title=" ">
<polygon fill="white" stroke="#666666" points="1119.5,-241 1010.5,-241 1010.5,-222 1119.5,-222 1119.5,-241"/>
<text text-anchor="middle" x="1065" y="-229" font-family="Helvetica,sans-Serif" font-size="10.00">ImGui::SetActiveID</text>
</a>
</g>
</g>
<!-- Node13&#45;&gt;Node14 -->
<g id="edge14" class="edge">
<title>Node13&#45;&gt;Node14</title>
<path fill="none" stroke="#63b8ff" d="M907.75,-231.5C936.44,-231.5 971.02,-231.5 1000.34,-231.5"/>
<polygon fill="#63b8ff" stroke="#63b8ff" points="1000.47,-235 1010.47,-231.5 1000.47,-228 1000.47,-235"/>
</g>
<!-- Node15 -->
<g id="node15" class="node">
<title>Node15</title>
<g id="a_node15"><a xlink:href="namespaceImGui.html#aad9419cf6e296c668807e3af4bfd62bb" target="_top" xlink:title=" ">
<polygon fill="white" stroke="#666666" points="1370,-241 1194,-241 1194,-222 1370,-222 1370,-241"/>
<text text-anchor="middle" x="1282" y="-229" font-family="Helvetica,sans-Serif" font-size="10.00">ImGui::InputTextDeactivateHook</text>
</a>
</g>
</g>
<!-- Node14&#45;&gt;Node15 -->
<g id="edge15" class="edge">
<title>Node14&#45;&gt;Node15</title>
<path fill="none" stroke="#63b8ff" d="M1119.7,-231.5C1139.11,-231.5 1161.68,-231.5 1183.68,-231.5"/>
<polygon fill="#63b8ff" stroke="#63b8ff" points="1183.73,-235 1193.73,-231.5 1183.73,-228 1183.73,-235"/>
</g>
<!-- Node15&#45;&gt;Node16 -->
<g id="edge16" class="edge">
<title>Node15&#45;&gt;Node16</title>
<path fill="none" stroke="#63b8ff" d="M1370.05,-231.5C1382.66,-231.5 1395.36,-231.5 1407.17,-231.5"/>
<polygon fill="#63b8ff" stroke="#63b8ff" points="1407.29,-235 1417.29,-231.5 1407.29,-228 1407.29,-235"/>
</g>
<!-- Node17 -->
<g id="node17" class="node">
<title>Node17</title>
<g id="a_node17"><a xlink:href="structImVector.html#a3a097635d464b1b70dc7d59996a88b28" target="_top" xlink:title=" ">
<polygon fill="white" stroke="#666666" points="1702,-204 1560,-204 1560,-185 1702,-185 1702,-204"/>
<text text-anchor="middle" x="1631" y="-192" font-family="Helvetica,sans-Serif" font-size="10.00">ImVector::_grow_capacity</text>
</a>
</g>
</g>
<!-- Node16&#45;&gt;Node17 -->
<g id="edge17" class="edge">
<title>Node16&#45;&gt;Node17</title>
<path fill="none" stroke="#63b8ff" d="M1508.23,-221.97C1529.39,-217.2 1555.19,-211.38 1577.6,-206.32"/>
<polygon fill="#63b8ff" stroke="#63b8ff" points="1578.64,-209.68 1587.62,-204.06 1577.1,-202.85 1578.64,-209.68"/>
</g>
<!-- Node18 -->
<g id="node18" class="node">
<title>Node18</title>
<g id="a_node18"><a xlink:href="structImVector.html#a0f14f5736c3372157856eebb67123b75" target="_top" xlink:title=" ">
<polygon fill="white" stroke="#666666" points="1682.5,-241 1579.5,-241 1579.5,-222 1682.5,-222 1682.5,-241"/>
<text text-anchor="middle" x="1631" y="-229" font-family="Helvetica,sans-Serif" font-size="10.00">ImVector::reserve</text>
</a>
</g>
</g>
<!-- Node16&#45;&gt;Node18 -->
<g id="edge18" class="edge">
<title>Node16&#45;&gt;Node18</title>
<path fill="none" stroke="#63b8ff" d="M1512.56,-231.5C1530.14,-231.5 1550.4,-231.5 1569.1,-231.5"/>
<polygon fill="#63b8ff" stroke="#63b8ff" points="1569.3,-235 1579.3,-231.5 1569.3,-228 1569.3,-235"/>
</g>
<!-- Node19&#45;&gt;Node2 -->
<g id="edge20" class="edge">
<title>Node19&#45;&gt;Node2</title>
<path fill="none" stroke="#63b8ff" d="M759.77,-395.43C646.09,-386.21 448.74,-370.21 337.46,-361.19"/>
<polygon fill="#63b8ff" stroke="#63b8ff" points="337.54,-357.68 327.29,-360.36 336.98,-364.66 337.54,-357.68"/>
</g>
<!-- Node20 -->
<g id="node20" class="node">
<title>Node20</title>
<g id="a_node20"><a xlink:href="namespaceImGui.html#a48de6990762aa67d7da5c3264b92d44f" target="_top" xlink:title=" ">
<polygon fill="white" stroke="#666666" points="1144,-396.5 986,-396.5 986,-366.5 1144,-366.5 1144,-396.5"/>
<text text-anchor="start" x="994" y="-384.5" font-family="Helvetica,sans-Serif" font-size="10.00">ImGui::IsWindowWithinBegin</text>
<text text-anchor="middle" x="1065" y="-373.5" font-family="Helvetica,sans-Serif" font-size="10.00">StackOf</text>
</a>
</g>
</g>
<!-- Node19&#45;&gt;Node20 -->
<g id="edge21" class="edge">
<title>Node19&#45;&gt;Node20</title>
<path fill="none" stroke="#63b8ff" d="M936.14,-393.99C949.09,-392.72 962.45,-391.42 975.43,-390.15"/>
<polygon fill="#63b8ff" stroke="#63b8ff" points="976.13,-393.6 985.74,-389.14 975.45,-386.63 976.13,-393.6"/>
</g>
<!-- Node21&#45;&gt;Node20 -->
<g id="edge23" class="edge">
<title>Node21&#45;&gt;Node20</title>
<path fill="none" stroke="#63b8ff" d="M920.29,-370.81C938.03,-372.13 957.26,-373.56 975.71,-374.93"/>
<polygon fill="#63b8ff" stroke="#63b8ff" points="975.63,-378.43 985.86,-375.69 976.15,-371.45 975.63,-378.43"/>
</g>
<!-- Node24 -->
<g id="node24" class="node">
<title>Node24</title>
<g id="a_node24"><a xlink:href="namespaceImGui.html#a5e1bfc506e7bd0f71ec85d8c69672d3d" target="_top" xlink:title=" ">
<polygon fill="white" stroke="#666666" points="1151,-128.5 979,-128.5 979,-98.5 1151,-98.5 1151,-128.5"/>
<text text-anchor="start" x="987" y="-116.5" font-family="Helvetica,sans-Serif" font-size="10.00">ImGui::TabBarFindMostRecently</text>
<text text-anchor="middle" x="1065" y="-105.5" font-family="Helvetica,sans-Serif" font-size="10.00">SelectedTabForActiveWindow</text>
</a>
</g>
</g>
<!-- Node23&#45;&gt;Node24 -->
<g id="edge26" class="edge">
<title>Node23&#45;&gt;Node24</title>
<path fill="none" stroke="#63b8ff" d="M925.1,-113.5C939.24,-113.5 954.16,-113.5 968.78,-113.5"/>
<polygon fill="#63b8ff" stroke="#63b8ff" points="968.84,-117 978.84,-113.5 968.84,-110 968.84,-117"/>
</g>
<!-- Node25&#45;&gt;Node16 -->
<g id="edge31" class="edge">
<title>Node25&#45;&gt;Node16</title>
<path fill="none" stroke="#63b8ff" d="M1329.61,-204.03C1353.27,-208.86 1382.21,-214.78 1407.17,-219.88"/>
<polygon fill="#63b8ff" stroke="#63b8ff" points="1406.73,-223.37 1417.23,-221.94 1408.14,-216.51 1406.73,-223.37"/>
</g>
<!-- Node26 -->
<g id="node26" class="node">
<title>Node26</title>
<g id="a_node26"><a xlink:href="structImVector.html#aab5df48e0711a48bd12f3206e08c4108" target="_top" xlink:title=" ">
<polygon fill="white" stroke="#666666" points="1524,-204 1406,-204 1406,-185 1524,-185 1524,-204"/>
<text text-anchor="middle" x="1465" y="-192" font-family="Helvetica,sans-Serif" font-size="10.00">ImVector::push_back</text>
</a>
</g>
</g>
<!-- Node25&#45;&gt;Node26 -->
<g id="edge28" class="edge">
<title>Node25&#45;&gt;Node26</title>
<path fill="none" stroke="#63b8ff" d="M1354.02,-194.5C1367.67,-194.5 1381.94,-194.5 1395.52,-194.5"/>
<polygon fill="#63b8ff" stroke="#63b8ff" points="1395.74,-198 1405.74,-194.5 1395.74,-191 1395.74,-198"/>
</g>
<!-- Node26&#45;&gt;Node17 -->
<g id="edge29" class="edge">
<title>Node26&#45;&gt;Node17</title>
<path fill="none" stroke="#63b8ff" d="M1524.28,-194.5C1532.55,-194.5 1541.18,-194.5 1549.78,-194.5"/>
<polygon fill="#63b8ff" stroke="#63b8ff" points="1549.83,-198 1559.83,-194.5 1549.83,-191 1549.83,-198"/>
</g>
<!-- Node26&#45;&gt;Node18 -->
<g id="edge30" class="edge">
<title>Node26&#45;&gt;Node18</title>
<path fill="none" stroke="#63b8ff" d="M1508.23,-204.03C1529.39,-208.8 1555.19,-214.62 1577.6,-219.68"/>
<polygon fill="#63b8ff" stroke="#63b8ff" points="1577.1,-223.15 1587.62,-221.94 1578.64,-216.32 1577.1,-223.15"/>
</g>
<!-- Node28 -->
<g id="node28" class="node">
<title>Node28</title>
<g id="a_node28"><a xlink:href="namespaceImGui.html#a2cd868535661cdb5671214662f3c9388" target="_top" xlink:title=" ">
<polygon fill="white" stroke="#666666" points="1158,-204 972,-204 972,-185 1158,-185 1158,-204"/>
<text text-anchor="middle" x="1065" y="-192" font-family="Helvetica,sans-Serif" font-size="10.00">ImGui::NavUpdateAnyRequestFlag</text>
</a>
</g>
</g>
<!-- Node27&#45;&gt;Node28 -->
<g id="edge33" class="edge">
<title>Node27&#45;&gt;Node28</title>
<path fill="none" stroke="#63b8ff" d="M911.19,-194.5C927.05,-194.5 944.52,-194.5 961.81,-194.5"/>
<polygon fill="#63b8ff" stroke="#63b8ff" points="961.96,-198 971.96,-194.5 961.96,-191 961.96,-198"/>
</g>
</g>
</svg>
