<?xml version="1.0" encoding="UTF-8" standalone="no"?>
<!DOCTYPE svg PUBLIC "-//W3C//DTD SVG 1.1//EN"
 "http://www.w3.org/Graphics/SVG/1.1/DTD/svg11.dtd">
<!-- Generated by graphviz version 2.43.0 (0)
 -->
<!-- Title: IMGUIZMO_NAMESPACE::LookAt Pages: 1 -->
<svg width="508pt" height="86pt"
 viewBox="0.00 0.00 508.00 86.00" xmlns="http://www.w3.org/2000/svg" xmlns:xlink="http://www.w3.org/1999/xlink">
<g id="graph0" class="graph" transform="scale(1 1) rotate(0) translate(4 82)">
<title>IMGUIZMO_NAMESPACE::LookAt</title>
<!-- Node1 -->
<g id="node1" class="node">
<title>Node1</title>
<g id="a_node1"><a xlink:title=" ">
<polygon fill="#999999" stroke="#666666" points="135,-60 0,-60 0,-30 135,-30 135,-60"/>
<text text-anchor="start" x="8" y="-48" font-family="Helvetica,sans-Serif" font-size="10.00">IMGUIZMO_NAMESPACE</text>
<text text-anchor="middle" x="67.5" y="-37" font-family="Helvetica,sans-Serif" font-size="10.00">::LookAt</text>
</a>
</g>
</g>
<!-- Node1&#45;&gt;Node1 -->
<g id="edge3" class="edge">
<title>Node1&#45;&gt;Node1</title>
<path fill="none" stroke="#63b8ff" d="M37.62,-60.28C30.98,-69.41 40.94,-78 67.5,-78 83.27,-78 93.19,-74.97 97.26,-70.6"/>
<polygon fill="#63b8ff" stroke="#63b8ff" points="100.76,-70.32 97.38,-60.28 93.76,-70.23 100.76,-70.32"/>
</g>
<!-- Node2 -->
<g id="node2" class="node">
<title>Node2</title>
<g id="a_node2"><a xlink:href="namespaceIMGUIZMO__NAMESPACE.html#a6b7c40a8b2cbd7f587baa57f07293201" target="_top" xlink:title=" ">
<polygon fill="white" stroke="#666666" points="500,-54.5 342,-54.5 342,-35.5 500,-35.5 500,-54.5"/>
<text text-anchor="middle" x="421" y="-42.5" font-family="Helvetica,sans-Serif" font-size="10.00">IMGUIZMO_NAMESPACE::Dot</text>
</a>
</g>
</g>
<!-- Node1&#45;&gt;Node2 -->
<g id="edge1" class="edge">
<title>Node1&#45;&gt;Node2</title>
<path fill="none" stroke="#63b8ff" d="M135.12,-53.94C147.04,-55.21 159.37,-56.32 171,-57 230.9,-60.49 246.08,-60.14 306,-57 314.36,-56.56 323.04,-55.94 331.73,-55.22"/>
<polygon fill="#63b8ff" stroke="#63b8ff" points="332.24,-58.68 341.9,-54.32 331.63,-51.71 332.24,-58.68"/>
</g>
<!-- Node3 -->
<g id="node3" class="node">
<title>Node3</title>
<g id="a_node3"><a xlink:href="namespaceIMGUIZMO__NAMESPACE.html#a7183df1fcf4e6efe5260cac0cf59b245" target="_top" xlink:title=" ">
<polygon fill="white" stroke="#666666" points="306,-30 171,-30 171,0 306,0 306,-30"/>
<text text-anchor="start" x="179" y="-18" font-family="Helvetica,sans-Serif" font-size="10.00">IMGUIZMO_NAMESPACE</text>
<text text-anchor="middle" x="238.5" y="-7" font-family="Helvetica,sans-Serif" font-size="10.00">::Normalize</text>
</a>
</g>
</g>
<!-- Node1&#45;&gt;Node3 -->
<g id="edge4" class="edge">
<title>Node1&#45;&gt;Node3</title>
<path fill="none" stroke="#63b8ff" d="M135.29,-33.14C143.72,-31.65 152.38,-30.11 160.94,-28.59"/>
<polygon fill="#63b8ff" stroke="#63b8ff" points="161.68,-32.01 170.92,-26.82 160.46,-25.12 161.68,-32.01"/>
</g>
<!-- Node2&#45;&gt;Node2 -->
<g id="edge2" class="edge">
<title>Node2&#45;&gt;Node2</title>
<path fill="none" stroke="#63b8ff" d="M392.95,-54.58C379.3,-63.23 388.65,-72.5 421,-72.5 443.24,-72.5 454.61,-68.12 455.11,-62.57"/>
<polygon fill="#63b8ff" stroke="#63b8ff" points="457.88,-60.44 449.05,-54.58 452.3,-64.67 457.88,-60.44"/>
</g>
<!-- Node3&#45;&gt;Node2 -->
<g id="edge5" class="edge">
<title>Node3&#45;&gt;Node2</title>
<path fill="none" stroke="#63b8ff" d="M306.2,-26.09C321.44,-28.62 337.64,-31.31 352.9,-33.85"/>
<polygon fill="#63b8ff" stroke="#63b8ff" points="352.33,-37.3 362.77,-35.49 353.48,-30.4 352.33,-37.3"/>
</g>
<!-- Node3&#45;&gt;Node3 -->
<g id="edge6" class="edge">
<title>Node3&#45;&gt;Node3</title>
<path fill="none" stroke="#63b8ff" d="M208.62,-30.28C201.98,-39.41 211.94,-48 238.5,-48 254.27,-48 264.19,-44.97 268.26,-40.6"/>
<polygon fill="#63b8ff" stroke="#63b8ff" points="271.76,-40.32 268.38,-30.28 264.76,-40.23 271.76,-40.32"/>
</g>
</g>
</svg>
