<?xml version="1.0" encoding="UTF-8" standalone="no"?>
<!DOCTYPE svg PUBLIC "-//W3C//DTD SVG 1.1//EN"
 "http://www.w3.org/Graphics/SVG/1.1/DTD/svg11.dtd">
<!-- Generated by graphviz version 2.43.0 (0)
 -->
<!-- Title: ImGui::UpdateFontsNewFrame Pages: 1 -->
<svg width="1307pt" height="1034pt"
 viewBox="0.00 0.00 1307.00 1033.97" xmlns="http://www.w3.org/2000/svg" xmlns:xlink="http://www.w3.org/1999/xlink">
<g id="graph0" class="graph" transform="scale(1 1) rotate(0) translate(4 1029.97)">
<title>ImGui::UpdateFontsNewFrame</title>
<!-- Node1 -->
<g id="node1" class="node">
<title>Node1</title>
<g id="a_node1"><a xlink:title=" ">
<polygon fill="#999999" stroke="#666666" points="166,-220.47 0,-220.47 0,-201.47 166,-201.47 166,-220.47"/>
<text text-anchor="middle" x="83" y="-208.47" font-family="Helvetica,sans-Serif" font-size="10.00">ImGui::UpdateFontsNewFrame</text>
</a>
</g>
</g>
<!-- Node2 -->
<g id="node2" class="node">
<title>Node2</title>
<g id="a_node2"><a xlink:href="namespaceImGui.html#a8344798d82c6baf9d94f81e445609eb2" target="_top" xlink:title=" ">
<polygon fill="white" stroke="#666666" points="328,-418.47 202,-418.47 202,-399.47 328,-399.47 328,-418.47"/>
<text text-anchor="middle" x="265" y="-406.47" font-family="Helvetica,sans-Serif" font-size="10.00">ImGui::GetDefaultFont</text>
</a>
</g>
</g>
<!-- Node1&#45;&gt;Node2 -->
<g id="edge1" class="edge">
<title>Node1&#45;&gt;Node2</title>
<path fill="none" stroke="#63b8ff" d="M92.68,-220.52C121.06,-251.74 211.39,-351.1 248.18,-391.57"/>
<polygon fill="#63b8ff" stroke="#63b8ff" points="245.66,-394.01 254.98,-399.05 250.84,-389.3 245.66,-394.01"/>
</g>
<!-- Node46 -->
<g id="node22" class="node">
<title>Node46</title>
<g id="a_node22"><a xlink:href="structImVector.html#aab5df48e0711a48bd12f3206e08c4108" target="_top" xlink:title=" ">
<polygon fill="white" stroke="#666666" points="1100.5,-664.47 982.5,-664.47 982.5,-645.47 1100.5,-645.47 1100.5,-664.47"/>
<text text-anchor="middle" x="1041.5" y="-652.47" font-family="Helvetica,sans-Serif" font-size="10.00">ImVector::push_back</text>
</a>
</g>
</g>
<!-- Node1&#45;&gt;Node46 -->
<g id="edge50" class="edge">
<title>Node1&#45;&gt;Node46</title>
<path fill="none" stroke="#63b8ff" d="M166.19,-218.02C236.36,-223.43 339.98,-229.97 430.5,-229.97 430.5,-229.97 430.5,-229.97 624,-229.97 691.24,-229.97 877.57,-202.32 926,-248.97 983.59,-304.44 919.45,-539.28 962,-606.97 971.57,-622.21 987.92,-633.33 1003.22,-641"/>
<polygon fill="#63b8ff" stroke="#63b8ff" points="1002,-644.3 1012.55,-645.35 1004.96,-637.95 1002,-644.3"/>
</g>
<!-- Node139 -->
<g id="node42" class="node">
<title>Node139</title>
<g id="a_node42"><a xlink:href="structImFont.html#a97dafa61cc94e84be396d69b0d42b1ce" target="_top" xlink:title=" ">
<polygon fill="white" stroke="#666666" points="481.5,-125.47 381.5,-125.47 381.5,-106.47 481.5,-106.47 481.5,-125.47"/>
<text text-anchor="middle" x="431.5" y="-113.47" font-family="Helvetica,sans-Serif" font-size="10.00">ImFont::IsLoaded</text>
</a>
</g>
</g>
<!-- Node1&#45;&gt;Node139 -->
<g id="edge49" class="edge">
<title>Node1&#45;&gt;Node139</title>
<path fill="none" stroke="#63b8ff" d="M111.97,-201.38C135.78,-193.36 170.96,-181.83 202,-172.97 262.25,-155.78 332.26,-138.74 378.74,-127.84"/>
<polygon fill="#63b8ff" stroke="#63b8ff" points="379.64,-131.22 388.58,-125.54 378.05,-124.41 379.64,-131.22"/>
</g>
<!-- Node140 -->
<g id="node43" class="node">
<title>Node140</title>
<g id="a_node43"><a xlink:href="namespaceImGui.html#ac100278dd529c567fcdf5332d1abe80b" target="_top" xlink:title=" ">
<polygon fill="white" stroke="#666666" points="327.5,-201.47 202.5,-201.47 202.5,-182.47 327.5,-182.47 327.5,-201.47"/>
<text text-anchor="middle" x="265" y="-189.47" font-family="Helvetica,sans-Serif" font-size="10.00">ImGui::SetCurrentFont</text>
</a>
</g>
</g>
<!-- Node1&#45;&gt;Node140 -->
<g id="edge51" class="edge">
<title>Node1&#45;&gt;Node140</title>
<path fill="none" stroke="#63b8ff" d="M166.1,-202.31C174.9,-201.38 183.79,-200.44 192.45,-199.53"/>
<polygon fill="#63b8ff" stroke="#63b8ff" points="192.91,-203 202.49,-198.47 192.18,-196.04 192.91,-203"/>
</g>
<!-- Node3 -->
<g id="node3" class="node">
<title>Node3</title>
<g id="a_node3"><a xlink:href="imgui__draw_8cpp.html#a2ed1c49f29c1635abb9d187846311e43" target="_top" xlink:title=" ">
<polygon fill="white" stroke="#666666" points="493.5,-523.47 369.5,-523.47 369.5,-504.47 493.5,-504.47 493.5,-523.47"/>
<text text-anchor="middle" x="431.5" y="-511.47" font-family="Helvetica,sans-Serif" font-size="10.00">ImFontAtlasBuildMain</text>
</a>
</g>
</g>
<!-- Node2&#45;&gt;Node3 -->
<g id="edge2" class="edge">
<title>Node2&#45;&gt;Node3</title>
<path fill="none" stroke="#63b8ff" d="M280.89,-418.48C309.49,-436.74 372.34,-476.85 406.78,-498.83"/>
<polygon fill="#63b8ff" stroke="#63b8ff" points="404.98,-501.83 415.29,-504.26 408.74,-495.93 404.98,-501.83"/>
</g>
<!-- Node4 -->
<g id="node4" class="node">
<title>Node4</title>
<g id="a_node4"><a xlink:href="structImFontAtlas.html#a9d2b4a94579bf603a0d2662cd8348cbd" target="_top" xlink:title=" ">
<polygon fill="white" stroke="#666666" points="701.5,-363.47 544.5,-363.47 544.5,-344.47 701.5,-344.47 701.5,-363.47"/>
<text text-anchor="middle" x="623" y="-351.47" font-family="Helvetica,sans-Serif" font-size="10.00">ImFontAtlas::AddFontDefault</text>
</a>
</g>
</g>
<!-- Node3&#45;&gt;Node4 -->
<g id="edge3" class="edge">
<title>Node3&#45;&gt;Node4</title>
<path fill="none" stroke="#63b8ff" d="M443.79,-504.44C475.05,-478.05 563.04,-403.75 602.47,-370.47"/>
<polygon fill="#63b8ff" stroke="#63b8ff" points="605.15,-372.78 610.53,-363.66 600.63,-367.43 605.15,-372.78"/>
</g>
<!-- Node115 -->
<g id="node12" class="node">
<title>Node115</title>
<g id="a_node12"><a xlink:href="imgui__draw_8cpp.html#a3feab149778d739a3fb681a0c9c16f7a" target="_top" xlink:title=" ">
<polygon fill="white" stroke="#666666" points="692,-560.47 554,-560.47 554,-541.47 692,-541.47 692,-560.47"/>
<text text-anchor="middle" x="623" y="-548.47" font-family="Helvetica,sans-Serif" font-size="10.00">ImFontAtlasBuildDestroy</text>
</a>
</g>
</g>
<!-- Node3&#45;&gt;Node115 -->
<g id="edge12" class="edge">
<title>Node3&#45;&gt;Node115</title>
<path fill="none" stroke="#63b8ff" d="M481.3,-523.5C506.29,-528.38 536.91,-534.36 563.19,-539.49"/>
<polygon fill="#63b8ff" stroke="#63b8ff" points="562.55,-542.93 573.04,-541.41 563.89,-536.06 562.55,-542.93"/>
</g>
<!-- Node12 -->
<g id="node17" class="node">
<title>Node12</title>
<g id="a_node17"><a xlink:href="imgui__draw_8cpp.html#ac050ff181df43cec0b63d834b6039c3f" target="_top" xlink:title=" ">
<polygon fill="white" stroke="#666666" points="681,-789.47 565,-789.47 565,-770.47 681,-770.47 681,-789.47"/>
<text text-anchor="middle" x="623" y="-777.47" font-family="Helvetica,sans-Serif" font-size="10.00">ImFontAtlasBuildInit</text>
</a>
</g>
</g>
<!-- Node3&#45;&gt;Node12 -->
<g id="edge17" class="edge">
<title>Node3&#45;&gt;Node12</title>
<path fill="none" stroke="#63b8ff" d="M434.11,-523.89C440.32,-559.14 465.98,-679.89 535,-745.97 544.61,-755.18 557.01,-761.98 569.41,-766.96"/>
<polygon fill="#63b8ff" stroke="#63b8ff" points="568.25,-770.27 578.85,-770.43 570.67,-763.7 568.25,-770.27"/>
</g>
<!-- Node67 -->
<g id="node25" class="node">
<title>Node67</title>
<g id="a_node25"><a xlink:href="imgui__draw_8cpp.html#a159e6385167812b148f32d4fb6cb6817" target="_top" xlink:title=" ">
<polygon fill="white" stroke="#666666" points="926,-645.97 747,-645.97 747,-615.97 926,-615.97 926,-645.97"/>
<text text-anchor="start" x="755" y="-633.97" font-family="Helvetica,sans-Serif" font-size="10.00">ImFontAtlasBuildUpdateRenderer</text>
<text text-anchor="middle" x="836.5" y="-622.97" font-family="Helvetica,sans-Serif" font-size="10.00">HasTexturesFromContext</text>
</a>
</g>
</g>
<!-- Node3&#45;&gt;Node67 -->
<g id="edge43" class="edge">
<title>Node3&#45;&gt;Node67</title>
<path fill="none" stroke="#63b8ff" d="M447.14,-523.6C466.49,-535.89 501.97,-556.99 535,-568.97 600.33,-592.67 677.11,-608.32 736.7,-617.96"/>
<polygon fill="#63b8ff" stroke="#63b8ff" points="736.44,-621.46 746.87,-619.58 737.54,-614.55 736.44,-621.46"/>
</g>
<!-- Node52 -->
<g id="node28" class="node">
<title>Node52</title>
<g id="a_node28"><a xlink:href="imgui__draw_8cpp.html#a5279b1dafad68a1ab42121440c59ce0f" target="_top" xlink:title=" ">
<polygon fill="white" stroke="#666666" points="901.5,-768.47 771.5,-768.47 771.5,-749.47 901.5,-749.47 901.5,-768.47"/>
<text text-anchor="middle" x="836.5" y="-756.47" font-family="Helvetica,sans-Serif" font-size="10.00">ImFontAtlasTextureAdd</text>
</a>
</g>
</g>
<!-- Node3&#45;&gt;Node52 -->
<g id="edge44" class="edge">
<title>Node3&#45;&gt;Node52</title>
<path fill="none" stroke="#63b8ff" d="M442.25,-523.83C478.58,-559.91 611.07,-685.55 747,-740.97 752.17,-743.08 757.62,-744.95 763.16,-746.61"/>
<polygon fill="#63b8ff" stroke="#63b8ff" points="762.64,-750.1 773.21,-749.37 764.49,-743.35 762.64,-750.1"/>
</g>
<!-- Node116 -->
<g id="node34" class="node">
<title>Node116</title>
<g id="a_node34"><a xlink:href="imgui__draw_8cpp.html#abd1950f96c48e04b73b586942c94918d" target="_top" xlink:title=" ">
<polygon fill="white" stroke="#666666" points="708.5,-306.97 537.5,-306.97 537.5,-276.97 708.5,-276.97 708.5,-306.97"/>
<text text-anchor="start" x="545.5" y="-294.97" font-family="Helvetica,sans-Serif" font-size="10.00">ImFontAtlasBuildLegacyPreload</text>
<text text-anchor="middle" x="623" y="-283.97" font-family="Helvetica,sans-Serif" font-size="10.00">AllGlyphRanges</text>
</a>
</g>
</g>
<!-- Node3&#45;&gt;Node116 -->
<g id="edge37" class="edge">
<title>Node3&#45;&gt;Node116</title>
<path fill="none" stroke="#63b8ff" d="M435.79,-504.12C446.02,-474.78 479.97,-386.75 535,-334.97 544.97,-325.59 557.39,-317.83 569.68,-311.61"/>
<polygon fill="#63b8ff" stroke="#63b8ff" points="571.5,-314.62 579.02,-307.15 568.48,-308.3 571.5,-314.62"/>
</g>
<!-- Node138 -->
<g id="node39" class="node">
<title>Node138</title>
<g id="a_node39"><a xlink:href="imgui__draw_8cpp.html#ac1de9fff83244136935700a8ae67a7c9" target="_top" xlink:title=" ">
<polygon fill="white" stroke="#666666" points="697.5,-506.97 548.5,-506.97 548.5,-476.97 697.5,-476.97 697.5,-506.97"/>
<text text-anchor="start" x="556.5" y="-494.97" font-family="Helvetica,sans-Serif" font-size="10.00">ImFontAtlasTextureGetSize</text>
<text text-anchor="middle" x="623" y="-483.97" font-family="Helvetica,sans-Serif" font-size="10.00">Estimate</text>
</a>
</g>
</g>
<!-- Node3&#45;&gt;Node138 -->
<g id="edge45" class="edge">
<title>Node3&#45;&gt;Node138</title>
<path fill="none" stroke="#63b8ff" d="M493.5,-506.89C507.66,-505.25 522.96,-503.47 537.92,-501.74"/>
<polygon fill="#63b8ff" stroke="#63b8ff" points="538.66,-505.17 548.19,-500.54 537.85,-498.22 538.66,-505.17"/>
</g>
<!-- Node5 -->
<g id="node5" class="node">
<title>Node5</title>
<g id="a_node5"><a xlink:href="structImFontAtlas.html#a7da214e3b090724bbc43e77ee254870d" target="_top" xlink:title=" ">
<polygon fill="white" stroke="#666666" points="909.5,-163.97 763.5,-163.97 763.5,-133.97 909.5,-133.97 909.5,-163.97"/>
<text text-anchor="start" x="771.5" y="-151.97" font-family="Helvetica,sans-Serif" font-size="10.00">ImFontAtlas::AddFontFrom</text>
<text text-anchor="middle" x="836.5" y="-140.97" font-family="Helvetica,sans-Serif" font-size="10.00">MemoryCompressedTTF</text>
</a>
</g>
</g>
<!-- Node4&#45;&gt;Node5 -->
<g id="edge4" class="edge">
<title>Node4&#45;&gt;Node5</title>
<path fill="none" stroke="#63b8ff" d="M665.63,-344.33C681.89,-338.61 699.39,-329.68 711,-315.97 753.36,-265.97 701.08,-219.74 747,-172.97 749.34,-170.59 751.9,-168.43 754.61,-166.49"/>
<polygon fill="#63b8ff" stroke="#63b8ff" points="756.48,-169.45 763.19,-161.25 752.83,-163.47 756.48,-169.45"/>
</g>
<!-- Node112 -->
<g id="node9" class="node">
<title>Node112</title>
<g id="a_node9"><a xlink:href="imgui__draw_8cpp.html#abc3b462ef2c5ef511d4f7231e3d9b853" target="_top" xlink:title=" ">
<polygon fill="white" stroke="#666666" points="912.5,-411.97 760.5,-411.97 760.5,-381.97 912.5,-381.97 912.5,-411.97"/>
<text text-anchor="start" x="768.5" y="-399.97" font-family="Helvetica,sans-Serif" font-size="10.00">GetDefaultCompressedFont</text>
<text text-anchor="middle" x="836.5" y="-388.97" font-family="Helvetica,sans-Serif" font-size="10.00">DataTTF</text>
</a>
</g>
</g>
<!-- Node4&#45;&gt;Node112 -->
<g id="edge9" class="edge">
<title>Node4&#45;&gt;Node112</title>
<path fill="none" stroke="#63b8ff" d="M670.94,-363.52C694.68,-368.34 724.21,-374.35 751.68,-379.93"/>
<polygon fill="#63b8ff" stroke="#63b8ff" points="751.19,-383.4 761.69,-381.97 752.59,-376.54 751.19,-383.4"/>
</g>
<!-- Node113 -->
<g id="node10" class="node">
<title>Node113</title>
<g id="a_node10"><a xlink:href="structImFontAtlas.html#adec0df140eb1dc01c2a22a5253d62820" target="_top" xlink:title=" ">
<polygon fill="white" stroke="#666666" points="918,-325.97 755,-325.97 755,-295.97 918,-295.97 918,-325.97"/>
<text text-anchor="start" x="763" y="-313.97" font-family="Helvetica,sans-Serif" font-size="10.00">ImFontAtlas::GetGlyphRanges</text>
<text text-anchor="middle" x="836.5" y="-302.97" font-family="Helvetica,sans-Serif" font-size="10.00">Default</text>
</a>
</g>
</g>
<!-- Node4&#45;&gt;Node113 -->
<g id="edge10" class="edge">
<title>Node4&#45;&gt;Node113</title>
<path fill="none" stroke="#63b8ff" d="M670.94,-344.43C694.68,-339.6 724.21,-333.6 751.68,-328.02"/>
<polygon fill="#63b8ff" stroke="#63b8ff" points="752.59,-331.4 761.69,-325.98 751.19,-324.54 752.59,-331.4"/>
</g>
<!-- Node114 -->
<g id="node11" class="node">
<title>Node114</title>
<g id="a_node11"><a xlink:href="imgui_8cpp.html#a75ccaf7d676b1f567ba888ae42ac3809" target="_top" xlink:title=" ">
<polygon fill="white" stroke="#666666" points="882.5,-363.47 790.5,-363.47 790.5,-344.47 882.5,-344.47 882.5,-363.47"/>
<text text-anchor="middle" x="836.5" y="-351.47" font-family="Helvetica,sans-Serif" font-size="10.00">ImFormatString</text>
</a>
</g>
</g>
<!-- Node4&#45;&gt;Node114 -->
<g id="edge11" class="edge">
<title>Node4&#45;&gt;Node114</title>
<path fill="none" stroke="#63b8ff" d="M701.55,-353.97C727.54,-353.97 755.97,-353.97 779.93,-353.97"/>
<polygon fill="#63b8ff" stroke="#63b8ff" points="780.25,-357.47 790.25,-353.97 780.25,-350.47 780.25,-357.47"/>
</g>
<!-- Node6 -->
<g id="node6" class="node">
<title>Node6</title>
<g id="a_node6"><a xlink:href="structImFontAtlas.html#ad7e1ae24061d41f667546626dc39ef09" target="_top" xlink:title=" ">
<polygon fill="#fff0f0" stroke="red" points="1114.5,-144.97 968.5,-144.97 968.5,-114.97 1114.5,-114.97 1114.5,-144.97"/>
<text text-anchor="start" x="976.5" y="-132.97" font-family="Helvetica,sans-Serif" font-size="10.00">ImFontAtlas::AddFontFrom</text>
<text text-anchor="middle" x="1041.5" y="-121.97" font-family="Helvetica,sans-Serif" font-size="10.00">MemoryTTF</text>
</a>
</g>
</g>
<!-- Node5&#45;&gt;Node6 -->
<g id="edge5" class="edge">
<title>Node5&#45;&gt;Node6</title>
<path fill="none" stroke="#63b8ff" d="M909.64,-142.22C925.25,-140.76 941.88,-139.2 957.86,-137.71"/>
<polygon fill="#63b8ff" stroke="#63b8ff" points="958.62,-141.15 968.25,-136.74 957.97,-134.18 958.62,-141.15"/>
</g>
<!-- Node106 -->
<g id="node7" class="node">
<title>Node106</title>
<g id="a_node7"><a xlink:href="imgui__draw_8cpp.html#a23f899d930c93d351569ee83cf920570" target="_top" xlink:title=" ">
<polygon fill="#fff0f0" stroke="red" points="1089.5,-220.47 993.5,-220.47 993.5,-201.47 1089.5,-201.47 1089.5,-220.47"/>
<text text-anchor="middle" x="1041.5" y="-208.47" font-family="Helvetica,sans-Serif" font-size="10.00">stb_decompress</text>
</a>
</g>
</g>
<!-- Node5&#45;&gt;Node106 -->
<g id="edge6" class="edge">
<title>Node5&#45;&gt;Node106</title>
<path fill="none" stroke="#63b8ff" d="M896.31,-163.98C906.28,-166.79 916.47,-169.84 926,-172.97 942.31,-178.34 945.78,-181.35 962,-186.97 973.46,-190.95 985.97,-194.93 997.57,-198.48"/>
<polygon fill="#63b8ff" stroke="#63b8ff" points="996.89,-201.93 1007.48,-201.47 998.92,-195.23 996.89,-201.93"/>
</g>
<!-- Node108 -->
<g id="node8" class="node">
<title>Node108</title>
<g id="a_node8"><a xlink:href="imgui__draw_8cpp.html#a5a5301def23b33e2156ac79a8b65c69b" target="_top" xlink:title=" ">
<polygon fill="white" stroke="#666666" points="1294,-201.47 1162,-201.47 1162,-182.47 1294,-182.47 1294,-201.47"/>
<text text-anchor="middle" x="1228" y="-189.47" font-family="Helvetica,sans-Serif" font-size="10.00">stb_decompress_length</text>
</a>
</g>
</g>
<!-- Node5&#45;&gt;Node108 -->
<g id="edge8" class="edge">
<title>Node5&#45;&gt;Node108</title>
<path fill="none" stroke="#63b8ff" d="M909.85,-156.96C978.73,-164.57 1081.97,-175.96 1151.79,-183.67"/>
<polygon fill="#63b8ff" stroke="#63b8ff" points="1151.51,-187.16 1161.84,-184.78 1152.28,-180.2 1151.51,-187.16"/>
</g>
<!-- Node106&#45;&gt;Node108 -->
<g id="edge7" class="edge">
<title>Node106&#45;&gt;Node108</title>
<path fill="none" stroke="#63b8ff" d="M1089.53,-206.13C1108.43,-204.18 1130.7,-201.89 1151.74,-199.72"/>
<polygon fill="#63b8ff" stroke="#63b8ff" points="1152.37,-203.18 1161.95,-198.67 1151.65,-196.21 1152.37,-203.18"/>
</g>
<!-- Node9 -->
<g id="node13" class="node">
<title>Node9</title>
<g id="a_node13"><a xlink:href="imgui_8h.html#a3c856832c3fe1da8767a9353da3707e1" target="_top" xlink:title=" ">
<polygon fill="white" stroke="#666666" points="872,-597.47 801,-597.47 801,-578.47 872,-578.47 872,-597.47"/>
<text text-anchor="middle" x="836.5" y="-585.47" font-family="Helvetica,sans-Serif" font-size="10.00">IM_DELETE</text>
</a>
</g>
</g>
<!-- Node115&#45;&gt;Node9 -->
<g id="edge13" class="edge">
<title>Node115&#45;&gt;Node9</title>
<path fill="none" stroke="#63b8ff" d="M678.47,-560.5C713.26,-566.59 757.82,-574.38 790.58,-580.11"/>
<polygon fill="#63b8ff" stroke="#63b8ff" points="790.32,-583.62 800.77,-581.9 791.52,-576.73 790.32,-583.62"/>
</g>
<!-- Node93 -->
<g id="node15" class="node">
<title>Node93</title>
<g id="a_node15"><a xlink:href="imgui__draw_8cpp.html#af583742e2268ebaef124cba2fa666e6b" target="_top" xlink:title=" ">
<polygon fill="white" stroke="#666666" points="920,-560.47 753,-560.47 753,-541.47 920,-541.47 920,-560.47"/>
<text text-anchor="middle" x="836.5" y="-548.47" font-family="Helvetica,sans-Serif" font-size="10.00">ImFontAtlasFontDestroyOutput</text>
</a>
</g>
</g>
<!-- Node115&#45;&gt;Node93 -->
<g id="edge15" class="edge">
<title>Node115&#45;&gt;Node93</title>
<path fill="none" stroke="#63b8ff" d="M692.08,-550.97C708.08,-550.97 725.41,-550.97 742.3,-550.97"/>
<polygon fill="#63b8ff" stroke="#63b8ff" points="742.74,-554.47 752.74,-550.97 742.74,-547.47 742.74,-554.47"/>
</g>
<!-- Node10 -->
<g id="node14" class="node">
<title>Node10</title>
<g id="a_node14"><a xlink:href="namespaceImGui.html#a269ec695c6e722ec3da85dae37f0675d" target="_top" xlink:title=" ">
<polygon fill="#fff0f0" stroke="red" points="1090.5,-597.47 992.5,-597.47 992.5,-578.47 1090.5,-578.47 1090.5,-597.47"/>
<text text-anchor="middle" x="1041.5" y="-585.47" font-family="Helvetica,sans-Serif" font-size="10.00">ImGui::MemFree</text>
</a>
</g>
</g>
<!-- Node9&#45;&gt;Node10 -->
<g id="edge14" class="edge">
<title>Node9&#45;&gt;Node10</title>
<path fill="none" stroke="#63b8ff" d="M872.4,-587.97C902.52,-587.97 946.67,-587.97 982.16,-587.97"/>
<polygon fill="#63b8ff" stroke="#63b8ff" points="982.4,-591.47 992.4,-587.97 982.4,-584.47 982.4,-591.47"/>
</g>
<!-- Node94 -->
<g id="node16" class="node">
<title>Node94</title>
<g id="a_node16"><a xlink:href="structImFont.html#aecf7773b1c40b433f91ee245f463de12" target="_top" xlink:title=" ">
<polygon fill="#fff0f0" stroke="red" points="1110.5,-560.47 972.5,-560.47 972.5,-541.47 1110.5,-541.47 1110.5,-560.47"/>
<text text-anchor="middle" x="1041.5" y="-548.47" font-family="Helvetica,sans-Serif" font-size="10.00">ImFont::ClearOutputData</text>
</a>
</g>
</g>
<!-- Node93&#45;&gt;Node94 -->
<g id="edge16" class="edge">
<title>Node93&#45;&gt;Node94</title>
<path fill="none" stroke="#63b8ff" d="M920.07,-550.97C933.89,-550.97 948.19,-550.97 961.91,-550.97"/>
<polygon fill="#63b8ff" stroke="#63b8ff" points="962.27,-554.47 972.27,-550.97 962.27,-547.47 962.27,-554.47"/>
</g>
<!-- Node13 -->
<g id="node18" class="node">
<title>Node13</title>
<g id="a_node18"><a xlink:href="imgui__draw_8cpp.html#ab393bf8b3bb80eec2e65edae02153d8c" target="_top" xlink:title=" ">
<polygon fill="#fff0f0" stroke="red" points="917,-1025.97 756,-1025.97 756,-995.97 917,-995.97 917,-1025.97"/>
<text text-anchor="start" x="764" y="-1013.97" font-family="Helvetica,sans-Serif" font-size="10.00">ImFontAtlasBuildUpdateBasic</text>
<text text-anchor="middle" x="836.5" y="-1002.97" font-family="Helvetica,sans-Serif" font-size="10.00">TexData</text>
</a>
</g>
</g>
<!-- Node12&#45;&gt;Node13 -->
<g id="edge18" class="edge">
<title>Node12&#45;&gt;Node13</title>
<path fill="none" stroke="#63b8ff" d="M627.13,-789.64C638.08,-821.93 677.82,-927.14 747,-981.97 751.55,-985.58 756.56,-988.74 761.81,-991.51"/>
<polygon fill="#63b8ff" stroke="#63b8ff" points="760.31,-994.68 770.84,-995.83 763.33,-988.36 760.31,-994.68"/>
</g>
<!-- Node48 -->
<g id="node20" class="node">
<title>Node48</title>
<g id="a_node20"><a xlink:href="imgui__draw_8cpp.html#ae1947e9ba26126e2cd94f8772df62b88" target="_top" xlink:title=" ">
<polygon fill="#fff0f0" stroke="red" points="917,-816.97 756,-816.97 756,-786.97 917,-786.97 917,-816.97"/>
<text text-anchor="start" x="764" y="-804.97" font-family="Helvetica,sans-Serif" font-size="10.00">ImFontAtlasBuildUpdateLines</text>
<text text-anchor="middle" x="836.5" y="-793.97" font-family="Helvetica,sans-Serif" font-size="10.00">TexData</text>
</a>
</g>
</g>
<!-- Node12&#45;&gt;Node48 -->
<g id="edge21" class="edge">
<title>Node12&#45;&gt;Node48</title>
<path fill="none" stroke="#63b8ff" d="M681.23,-785.93C701.18,-788 724.06,-790.38 745.99,-792.66"/>
<polygon fill="#63b8ff" stroke="#63b8ff" points="745.68,-796.15 755.99,-793.7 746.4,-789.19 745.68,-796.15"/>
</g>
<!-- Node66 -->
<g id="node21" class="node">
<title>Node66</title>
<g id="a_node21"><a xlink:href="imgui__draw_8cpp.html#a5bc852b30a75c2601a2bbea053210069" target="_top" xlink:title=" ">
<polygon fill="#fff0f0" stroke="red" points="924,-731.47 749,-731.47 749,-712.47 924,-712.47 924,-731.47"/>
<text text-anchor="middle" x="836.5" y="-719.47" font-family="Helvetica,sans-Serif" font-size="10.00">ImFontAtlasBuildUpdatePointers</text>
</a>
</g>
</g>
<!-- Node12&#45;&gt;Node66 -->
<g id="edge23" class="edge">
<title>Node12&#45;&gt;Node66</title>
<path fill="none" stroke="#63b8ff" d="M651.62,-770.38C676.41,-761.97 713.87,-749.76 747,-740.97 756.68,-738.41 767.03,-735.94 777.11,-733.68"/>
<polygon fill="#63b8ff" stroke="#63b8ff" points="778.05,-737.06 787.07,-731.5 776.56,-730.22 778.05,-737.06"/>
</g>
<!-- Node12&#45;&gt;Node67 -->
<g id="edge27" class="edge">
<title>Node12&#45;&gt;Node67</title>
<path fill="none" stroke="#63b8ff" d="M630.77,-770.13C647.57,-746.49 693.65,-686.17 747,-654.97 750.05,-653.19 753.23,-651.54 756.5,-650.01"/>
<polygon fill="#63b8ff" stroke="#63b8ff" points="758.1,-653.13 765.92,-645.99 755.35,-646.69 758.1,-653.13"/>
</g>
<!-- Node68 -->
<g id="node26" class="node">
<title>Node68</title>
<g id="a_node26"><a xlink:href="imgui__draw_8cpp.html#a2445ec6272ab6f7597ad4012e178a5d6" target="_top" xlink:title=" ">
<polygon fill="#fff0f0" stroke="red" points="909.5,-939.97 763.5,-939.97 763.5,-909.97 909.5,-909.97 909.5,-939.97"/>
<text text-anchor="start" x="771.5" y="-927.97" font-family="Helvetica,sans-Serif" font-size="10.00">ImFontAtlasGetFontLoader</text>
<text text-anchor="middle" x="836.5" y="-916.97" font-family="Helvetica,sans-Serif" font-size="10.00">ForStbTruetype</text>
</a>
</g>
</g>
<!-- Node12&#45;&gt;Node68 -->
<g id="edge28" class="edge">
<title>Node12&#45;&gt;Node68</title>
<path fill="none" stroke="#63b8ff" d="M630.85,-789.49C647.82,-812.36 694.26,-870.71 747,-900.97 750.06,-902.73 753.26,-904.36 756.54,-905.88"/>
<polygon fill="#63b8ff" stroke="#63b8ff" points="755.41,-909.2 765.98,-909.85 758.12,-902.75 755.41,-909.2"/>
</g>
<!-- Node50 -->
<g id="node27" class="node">
<title>Node50</title>
<g id="a_node27"><a xlink:href="imgui__draw_8cpp.html#a352dcf39de7ba575d8e1c1db1f11c45a" target="_top" xlink:title=" ">
<polygon fill="#fff0f0" stroke="red" points="893,-891.47 780,-891.47 780,-872.47 893,-872.47 893,-891.47"/>
<text text-anchor="middle" x="836.5" y="-879.47" font-family="Helvetica,sans-Serif" font-size="10.00">ImFontAtlasPackInit</text>
</a>
</g>
</g>
<!-- Node12&#45;&gt;Node50 -->
<g id="edge29" class="edge">
<title>Node12&#45;&gt;Node50</title>
<path fill="none" stroke="#63b8ff" d="M634.64,-789.47C654.95,-807.06 701.27,-844.64 747,-863.97 754.21,-867.02 761.97,-869.56 769.8,-871.68"/>
<polygon fill="#63b8ff" stroke="#63b8ff" points="769.16,-875.13 779.71,-874.15 770.85,-868.34 769.16,-875.13"/>
</g>
<!-- Node12&#45;&gt;Node52 -->
<g id="edge30" class="edge">
<title>Node12&#45;&gt;Node52</title>
<path fill="none" stroke="#63b8ff" d="M681.23,-774.29C705.75,-771.86 734.71,-768.98 760.88,-766.38"/>
<polygon fill="#63b8ff" stroke="#63b8ff" points="761.53,-769.84 771.13,-765.36 760.83,-762.87 761.53,-769.84"/>
</g>
<!-- Node57 -->
<g id="node31" class="node">
<title>Node57</title>
<g id="a_node31"><a xlink:href="imgui__draw_8cpp.html#ad83271ddd5cf9c02c9cc72fb33299369" target="_top" xlink:title=" ">
<polygon fill="white" stroke="#666666" points="915.5,-693.97 757.5,-693.97 757.5,-663.97 915.5,-663.97 915.5,-693.97"/>
<text text-anchor="start" x="765.5" y="-681.97" font-family="Helvetica,sans-Serif" font-size="10.00">ImFontAtlasUpdateDrawLists</text>
<text text-anchor="middle" x="836.5" y="-670.97" font-family="Helvetica,sans-Serif" font-size="10.00">SharedData</text>
</a>
</g>
</g>
<!-- Node12&#45;&gt;Node57 -->
<g id="edge34" class="edge">
<title>Node12&#45;&gt;Node57</title>
<path fill="none" stroke="#63b8ff" d="M636.97,-770.25C658.7,-754.37 704.26,-722.77 747,-703.97 752.43,-701.58 758.15,-699.36 763.96,-697.31"/>
<polygon fill="#63b8ff" stroke="#63b8ff" points="765.41,-700.51 773.78,-694.01 763.19,-693.88 765.41,-700.51"/>
</g>
<!-- Node61 -->
<g id="node32" class="node">
<title>Node61</title>
<g id="a_node32"><a xlink:href="imgui__internal_8h.html#adae096c61c812293ec61ac541c146674" target="_top" xlink:title=" ">
<polygon fill="white" stroke="#666666" points="896,-523.47 777,-523.47 777,-504.47 896,-504.47 896,-523.47"/>
<text text-anchor="middle" x="836.5" y="-511.47" font-family="Helvetica,sans-Serif" font-size="10.00">ImUpperPowerOfTwo</text>
</a>
</g>
</g>
<!-- Node12&#45;&gt;Node61 -->
<g id="edge35" class="edge">
<title>Node12&#45;&gt;Node61</title>
<path fill="none" stroke="#63b8ff" d="M627.49,-770.3C642.72,-728.58 704.52,-564.64 747,-531.97 752.9,-527.44 759.65,-523.97 766.73,-521.32"/>
<polygon fill="#63b8ff" stroke="#63b8ff" points="768.08,-524.56 776.55,-518.2 765.96,-517.89 768.08,-524.56"/>
</g>
<!-- Node91 -->
<g id="node33" class="node">
<title>Node91</title>
<g id="a_node33"><a xlink:href="structImFontAtlas.html#abeefaa367a36b73d215b1578b5ab1c70" target="_top" xlink:title=" ">
<polygon fill="#fff0f0" stroke="red" points="912,-854.47 761,-854.47 761,-835.47 912,-835.47 912,-854.47"/>
<text text-anchor="middle" x="836.5" y="-842.47" font-family="Helvetica,sans-Serif" font-size="10.00">ImFontAtlas::SetFontLoader</text>
</a>
</g>
</g>
<!-- Node12&#45;&gt;Node91 -->
<g id="edge36" class="edge">
<title>Node12&#45;&gt;Node91</title>
<path fill="none" stroke="#63b8ff" d="M646.78,-789.64C671.22,-799.74 711.33,-815.54 747,-825.97 755.86,-828.57 765.32,-830.97 774.63,-833.13"/>
<polygon fill="#63b8ff" stroke="#63b8ff" points="774.11,-836.61 784.63,-835.39 775.65,-829.78 774.11,-836.61"/>
</g>
<!-- Node14 -->
<g id="node19" class="node">
<title>Node14</title>
<g id="a_node19"><a xlink:href="structImFontAtlas.html#ab4660128958e0c30577056975ef8dc29" target="_top" xlink:title=" ">
<polygon fill="#fff0f0" stroke="red" points="1121,-977.47 962,-977.47 962,-958.47 1121,-958.47 1121,-977.47"/>
<text text-anchor="middle" x="1041.5" y="-965.47" font-family="Helvetica,sans-Serif" font-size="10.00">ImFontAtlas::AddCustomRect</text>
</a>
</g>
</g>
<!-- Node13&#45;&gt;Node14 -->
<g id="edge19" class="edge">
<title>Node13&#45;&gt;Node14</title>
<path fill="none" stroke="#63b8ff" d="M908.5,-995.93C933.81,-990.57 961.91,-984.62 985.66,-979.59"/>
<polygon fill="#63b8ff" stroke="#63b8ff" points="986.49,-982.99 995.55,-977.5 985.04,-976.14 986.49,-982.99"/>
</g>
<!-- Node14&#45;&gt;Node12 -->
<g id="edge20" class="edge">
<title>Node14&#45;&gt;Node12</title>
<path fill="none" stroke="#63b8ff" d="M986.66,-977.48C924.76,-985.61 822.04,-990.28 747,-948.97 685.37,-915.05 646.54,-835.59 631.33,-799.01"/>
<polygon fill="#63b8ff" stroke="#63b8ff" points="634.49,-797.49 627.51,-789.52 628,-800.11 634.49,-797.49"/>
</g>
<!-- Node48&#45;&gt;Node14 -->
<g id="edge22" class="edge">
<title>Node48&#45;&gt;Node14</title>
<path fill="none" stroke="#63b8ff" d="M906.98,-817.07C913.67,-819.84 920.13,-823.11 926,-826.97 974.99,-859.21 1013.23,-919.02 1030.48,-949.33"/>
<polygon fill="#63b8ff" stroke="#63b8ff" points="1027.6,-951.35 1035.51,-958.4 1033.72,-947.96 1027.6,-951.35"/>
</g>
<!-- Node66&#45;&gt;Node46 -->
<g id="edge24" class="edge">
<title>Node66&#45;&gt;Node46</title>
<path fill="none" stroke="#63b8ff" d="M889.86,-712.41C901.85,-709.76 914.46,-706.6 926,-702.97 955.87,-693.6 988.71,-679.41 1011.52,-668.89"/>
<polygon fill="#63b8ff" stroke="#63b8ff" points="1013.07,-672.03 1020.65,-664.63 1010.11,-665.68 1013.07,-672.03"/>
</g>
<!-- Node23 -->
<g id="node23" class="node">
<title>Node23</title>
<g id="a_node23"><a xlink:href="structImVector.html#a3a097635d464b1b70dc7d59996a88b28" target="_top" xlink:title=" ">
<polygon fill="white" stroke="#666666" points="1299,-645.47 1157,-645.47 1157,-626.47 1299,-626.47 1299,-645.47"/>
<text text-anchor="middle" x="1228" y="-633.47" font-family="Helvetica,sans-Serif" font-size="10.00">ImVector::_grow_capacity</text>
</a>
</g>
</g>
<!-- Node46&#45;&gt;Node23 -->
<g id="edge25" class="edge">
<title>Node46&#45;&gt;Node23</title>
<path fill="none" stroke="#63b8ff" d="M1100.62,-648.99C1115.27,-647.48 1131.25,-645.83 1146.76,-644.24"/>
<polygon fill="#63b8ff" stroke="#63b8ff" points="1147.29,-647.7 1156.87,-643.2 1146.57,-640.74 1147.29,-647.7"/>
</g>
<!-- Node24 -->
<g id="node24" class="node">
<title>Node24</title>
<g id="a_node24"><a xlink:href="structImVector.html#a0f14f5736c3372157856eebb67123b75" target="_top" xlink:title=" ">
<polygon fill="white" stroke="#666666" points="1279.5,-682.47 1176.5,-682.47 1176.5,-663.47 1279.5,-663.47 1279.5,-682.47"/>
<text text-anchor="middle" x="1228" y="-670.47" font-family="Helvetica,sans-Serif" font-size="10.00">ImVector::reserve</text>
</a>
</g>
</g>
<!-- Node46&#45;&gt;Node24 -->
<g id="edge26" class="edge">
<title>Node46&#45;&gt;Node24</title>
<path fill="none" stroke="#63b8ff" d="M1100.62,-660.64C1121.5,-662.68 1145.09,-664.98 1166.19,-667.04"/>
<polygon fill="#63b8ff" stroke="#63b8ff" points="1166.04,-670.54 1176.33,-668.03 1166.72,-663.58 1166.04,-670.54"/>
</g>
<!-- Node52&#45;&gt;Node46 -->
<g id="edge33" class="edge">
<title>Node52&#45;&gt;Node46</title>
<path fill="none" stroke="#63b8ff" d="M901.89,-749.4C910.19,-747.15 918.42,-744.38 926,-740.97 964.44,-723.7 1002.17,-691.6 1023.28,-671.88"/>
<polygon fill="#63b8ff" stroke="#63b8ff" points="1025.95,-674.17 1030.77,-664.74 1021.12,-669.1 1025.95,-674.17"/>
</g>
<!-- Node53 -->
<g id="node29" class="node">
<title>Node53</title>
<g id="a_node29"><a xlink:href="structImTextureData.html#a22fc119a6933ecbb7fc600cbf93d41aa" target="_top" xlink:title=" ">
<polygon fill="#fff0f0" stroke="red" points="1105,-749.47 978,-749.47 978,-730.47 1105,-730.47 1105,-749.47"/>
<text text-anchor="middle" x="1041.5" y="-737.47" font-family="Helvetica,sans-Serif" font-size="10.00">ImTextureData::Create</text>
</a>
</g>
</g>
<!-- Node52&#45;&gt;Node53 -->
<g id="edge31" class="edge">
<title>Node52&#45;&gt;Node53</title>
<path fill="none" stroke="#63b8ff" d="M901.73,-752.96C922.69,-751 946.11,-748.81 967.65,-746.79"/>
<polygon fill="#63b8ff" stroke="#63b8ff" points="968.1,-750.27 977.73,-745.85 967.45,-743.3 968.1,-750.27"/>
</g>
<!-- Node41 -->
<g id="node30" class="node">
<title>Node41</title>
<g id="a_node30"><a xlink:href="imgui__draw_8cpp.html#a10edae7dc82c6255c63f3d6761f204f5" target="_top" xlink:title=" ">
<polygon fill="#fff0f0" stroke="red" points="1117.5,-786.47 965.5,-786.47 965.5,-767.47 1117.5,-767.47 1117.5,-786.47"/>
<text text-anchor="middle" x="1041.5" y="-774.47" font-family="Helvetica,sans-Serif" font-size="10.00">ImFontAtlasBuildSetTexture</text>
</a>
</g>
</g>
<!-- Node52&#45;&gt;Node41 -->
<g id="edge32" class="edge">
<title>Node52&#45;&gt;Node41</title>
<path fill="none" stroke="#63b8ff" d="M901.73,-764.67C918.63,-766.17 937.12,-767.81 954.94,-769.39"/>
<polygon fill="#63b8ff" stroke="#63b8ff" points="955.07,-772.91 965.34,-770.31 955.69,-765.94 955.07,-772.91"/>
</g>
<!-- Node116&#45;&gt;Node113 -->
<g id="edge42" class="edge">
<title>Node116&#45;&gt;Node113</title>
<path fill="none" stroke="#63b8ff" d="M708.5,-299.56C720.46,-300.64 732.79,-301.75 744.86,-302.83"/>
<polygon fill="#63b8ff" stroke="#63b8ff" points="744.64,-306.33 754.91,-303.73 745.27,-299.35 744.64,-306.33"/>
</g>
<!-- Node117 -->
<g id="node35" class="node">
<title>Node117</title>
<g id="a_node35"><a xlink:href="structImFontBaked.html#a785a4f3372cd8258f17ede065ee3cbad" target="_top" xlink:title=" ">
<polygon fill="#fff0f0" stroke="red" points="904,-277.47 769,-277.47 769,-258.47 904,-258.47 904,-277.47"/>
<text text-anchor="middle" x="836.5" y="-265.47" font-family="Helvetica,sans-Serif" font-size="10.00">ImFontBaked::FindGlyph</text>
</a>
</g>
</g>
<!-- Node116&#45;&gt;Node117 -->
<g id="edge38" class="edge">
<title>Node116&#45;&gt;Node117</title>
<path fill="none" stroke="#63b8ff" d="M708.5,-282.38C725.08,-280.5 742.39,-278.54 758.7,-276.69"/>
<polygon fill="#63b8ff" stroke="#63b8ff" points="759.17,-280.16 768.71,-275.55 758.38,-273.2 759.17,-280.16"/>
</g>
<!-- Node127 -->
<g id="node36" class="node">
<title>Node127</title>
<g id="a_node36"><a xlink:href="structImFont.html#a8adbf587ae41bedc3084d9924733b4c3" target="_top" xlink:title=" ">
<polygon fill="white" stroke="#666666" points="899,-115.47 774,-115.47 774,-96.47 899,-96.47 899,-115.47"/>
<text text-anchor="middle" x="836.5" y="-103.47" font-family="Helvetica,sans-Serif" font-size="10.00">ImFont::GetFontBaked</text>
</a>
</g>
</g>
<!-- Node116&#45;&gt;Node127 -->
<g id="edge39" class="edge">
<title>Node116&#45;&gt;Node127</title>
<path fill="none" stroke="#63b8ff" d="M644.25,-276.96C663.52,-261.82 692.27,-236.89 711,-209.97 734.43,-176.29 715.38,-151.11 747,-124.97 752.21,-120.67 758.16,-117.27 764.47,-114.6"/>
<polygon fill="#63b8ff" stroke="#63b8ff" points="765.69,-117.88 773.91,-111.19 763.31,-111.3 765.69,-117.88"/>
</g>
<!-- Node128 -->
<g id="node37" class="node">
<title>Node128</title>
<g id="a_node37"><a xlink:href="namespaceImGui.html#a1eeda2689723ce71d2ca769c313cba9b" target="_top" xlink:title=" ">
<polygon fill="white" stroke="#666666" points="1118,-22.47 965,-22.47 965,-3.47 1118,-3.47 1118,-22.47"/>
<text text-anchor="middle" x="1041.5" y="-10.47" font-family="Helvetica,sans-Serif" font-size="10.00">ImGui::GetRoundedFontSize</text>
</a>
</g>
</g>
<!-- Node127&#45;&gt;Node128 -->
<g id="edge40" class="edge">
<title>Node127&#45;&gt;Node128</title>
<path fill="none" stroke="#63b8ff" d="M896.49,-96.44C906.53,-93.93 916.71,-90.82 926,-86.97 945.04,-79.09 991.16,-47.69 1018.71,-28.41"/>
<polygon fill="#63b8ff" stroke="#63b8ff" points="1020.78,-31.24 1026.94,-22.62 1016.75,-25.51 1020.78,-31.24"/>
</g>
<!-- Node129 -->
<g id="node38" class="node">
<title>Node129</title>
<g id="a_node38"><a xlink:href="imgui__draw_8cpp.html#a58a2aab4435ade7b1ad6ada67f0a509f" target="_top" xlink:title=" ">
<polygon fill="#fff0f0" stroke="red" points="1117.5,-96.47 965.5,-96.47 965.5,-77.47 1117.5,-77.47 1117.5,-96.47"/>
<text text-anchor="middle" x="1041.5" y="-84.47" font-family="Helvetica,sans-Serif" font-size="10.00">ImFontAtlasBakedGetOrAdd</text>
</a>
</g>
</g>
<!-- Node127&#45;&gt;Node129 -->
<g id="edge41" class="edge">
<title>Node127&#45;&gt;Node129</title>
<path fill="none" stroke="#63b8ff" d="M899.23,-100.2C916.93,-98.54 936.55,-96.7 955.39,-94.94"/>
<polygon fill="#63b8ff" stroke="#63b8ff" points="955.83,-98.41 965.46,-94 955.17,-91.44 955.83,-98.41"/>
</g>
<!-- Node138&#45;&gt;Node61 -->
<g id="edge48" class="edge">
<title>Node138&#45;&gt;Node61</title>
<path fill="none" stroke="#63b8ff" d="M697.68,-499.64C720.11,-501.97 744.67,-504.53 766.77,-506.82"/>
<polygon fill="#63b8ff" stroke="#63b8ff" points="766.42,-510.31 776.73,-507.86 767.14,-503.34 766.42,-510.31"/>
</g>
<!-- Node59 -->
<g id="node40" class="node">
<title>Node59</title>
<g id="a_node40"><a xlink:href="imgui__internal_8h.html#a3cc719adb48b1aed8ab1196ecea7e828" target="_top" xlink:title=" ">
<polygon fill="white" stroke="#666666" points="885.5,-486.47 787.5,-486.47 787.5,-467.47 885.5,-467.47 885.5,-486.47"/>
<text text-anchor="middle" x="836.5" y="-474.47" font-family="Helvetica,sans-Serif" font-size="10.00">ImIsPowerOfTwo</text>
</a>
</g>
</g>
<!-- Node138&#45;&gt;Node59 -->
<g id="edge46" class="edge">
<title>Node138&#45;&gt;Node59</title>
<path fill="none" stroke="#63b8ff" d="M697.68,-486.75C723.65,-484.91 752.48,-482.86 777.02,-481.12"/>
<polygon fill="#63b8ff" stroke="#63b8ff" points="777.53,-484.59 787.26,-480.39 777.04,-477.61 777.53,-484.59"/>
</g>
<!-- Node60 -->
<g id="node41" class="node">
<title>Node60</title>
<g id="a_node41"><a xlink:href="imgui__internal_8h.html#a7667efd95147d0422f140917c71a9226" target="_top" xlink:title=" ">
<polygon fill="white" stroke="#666666" points="861.5,-449.47 811.5,-449.47 811.5,-430.47 861.5,-430.47 861.5,-449.47"/>
<text text-anchor="middle" x="836.5" y="-437.47" font-family="Helvetica,sans-Serif" font-size="10.00">ImMax</text>
</a>
</g>
</g>
<!-- Node138&#45;&gt;Node60 -->
<g id="edge47" class="edge">
<title>Node138&#45;&gt;Node60</title>
<path fill="none" stroke="#63b8ff" d="M675.26,-476.95C697.26,-470.73 723.3,-463.65 747,-457.97 764.76,-453.72 784.68,-449.61 801.12,-446.39"/>
<polygon fill="#63b8ff" stroke="#63b8ff" points="802.21,-449.75 811.36,-444.42 800.88,-442.87 802.21,-449.75"/>
</g>
<!-- Node140&#45;&gt;Node57 -->
<g id="edge58" class="edge">
<title>Node140&#45;&gt;Node57</title>
<path fill="none" stroke="#63b8ff" d="M269.29,-201.8C278.87,-230.58 307.4,-317.19 328,-389.97 345.73,-452.62 321.55,-482.61 364,-531.97 460,-643.6 639.35,-671.62 747.04,-677.96"/>
<polygon fill="#63b8ff" stroke="#63b8ff" points="747.06,-681.47 757.23,-678.51 747.43,-674.48 747.06,-681.47"/>
</g>
<!-- Node140&#45;&gt;Node139 -->
<g id="edge59" class="edge">
<title>Node140&#45;&gt;Node139</title>
<path fill="none" stroke="#63b8ff" d="M282.29,-182.41C301.46,-171.38 334.42,-153.08 364,-139.97 372.82,-136.07 382.49,-132.3 391.66,-128.95"/>
<polygon fill="#63b8ff" stroke="#63b8ff" points="393.1,-132.15 401.34,-125.49 390.75,-125.56 393.1,-132.15"/>
</g>
<!-- Node43 -->
<g id="node44" class="node">
<title>Node43</title>
<g id="a_node44"><a xlink:href="structImDrawList.html#a0eb5ff5835be140335cdb15c37408e97" target="_top" xlink:title=" ">
<polygon fill="white" stroke="#666666" points="499,-201.47 364,-201.47 364,-182.47 499,-182.47 499,-201.47"/>
<text text-anchor="middle" x="431.5" y="-189.47" font-family="Helvetica,sans-Serif" font-size="10.00">ImDrawList::_SetTexture</text>
</a>
</g>
</g>
<!-- Node140&#45;&gt;Node43 -->
<g id="edge52" class="edge">
<title>Node140&#45;&gt;Node43</title>
<path fill="none" stroke="#63b8ff" d="M327.72,-191.97C336.17,-191.97 344.94,-191.97 353.62,-191.97"/>
<polygon fill="#63b8ff" stroke="#63b8ff" points="353.75,-195.47 363.75,-191.97 353.75,-188.47 353.75,-195.47"/>
</g>
<!-- Node141 -->
<g id="node49" class="node">
<title>Node141</title>
<g id="a_node49"><a xlink:href="namespaceImGui.html#aa52a89f7c9fdb4f2d3ea1168e68c3313" target="_top" xlink:title=" ">
<polygon fill="white" stroke="#666666" points="705,-78.47 541,-78.47 541,-59.47 705,-59.47 705,-78.47"/>
<text text-anchor="middle" x="623" y="-66.47" font-family="Helvetica,sans-Serif" font-size="10.00">ImGui::UpdateCurrentFontSize</text>
</a>
</g>
</g>
<!-- Node140&#45;&gt;Node141 -->
<g id="edge60" class="edge">
<title>Node140&#45;&gt;Node141</title>
<path fill="none" stroke="#63b8ff" d="M309.51,-182.47C366.9,-169.7 464.64,-147.11 499,-133.97 534.85,-120.27 573.59,-98.54 597.81,-84.02"/>
<polygon fill="#63b8ff" stroke="#63b8ff" points="599.92,-86.83 606.65,-78.65 596.29,-80.85 599.92,-86.83"/>
</g>
<!-- Node44 -->
<g id="node45" class="node">
<title>Node44</title>
<g id="a_node45"><a xlink:href="structImDrawList.html#aceba6d030d32c39618d4af49dead068f" target="_top" xlink:title=" ">
<polygon fill="white" stroke="#666666" points="711,-164.47 535,-164.47 535,-145.47 711,-145.47 711,-164.47"/>
<text text-anchor="middle" x="623" y="-152.47" font-family="Helvetica,sans-Serif" font-size="10.00">ImDrawList::_OnChangedTexture</text>
</a>
</g>
</g>
<!-- Node43&#45;&gt;Node44 -->
<g id="edge53" class="edge">
<title>Node43&#45;&gt;Node44</title>
<path fill="none" stroke="#63b8ff" d="M481.3,-182.45C506.29,-177.57 536.91,-171.59 563.19,-166.46"/>
<polygon fill="#63b8ff" stroke="#63b8ff" points="563.89,-169.89 573.04,-164.53 562.55,-163.02 563.89,-169.89"/>
</g>
<!-- Node8 -->
<g id="node48" class="node">
<title>Node8</title>
<g id="a_node48"><a xlink:href="structImVector.html#a2d80e87e81b1b01143c8d8be93e6fde1" target="_top" xlink:title=" ">
<polygon fill="white" stroke="#666666" points="667.5,-201.47 578.5,-201.47 578.5,-182.47 667.5,-182.47 667.5,-201.47"/>
<text text-anchor="middle" x="623" y="-189.47" font-family="Helvetica,sans-Serif" font-size="10.00">ImVector::back</text>
</a>
</g>
</g>
<!-- Node43&#45;&gt;Node8 -->
<g id="edge57" class="edge">
<title>Node43&#45;&gt;Node8</title>
<path fill="none" stroke="#63b8ff" d="M499.04,-191.97C521.68,-191.97 546.68,-191.97 568.2,-191.97"/>
<polygon fill="#63b8ff" stroke="#63b8ff" points="568.45,-195.47 578.45,-191.97 568.45,-188.47 568.45,-195.47"/>
</g>
<!-- Node45 -->
<g id="node46" class="node">
<title>Node45</title>
<g id="a_node46"><a xlink:href="structImDrawList.html#a846714bb0321c6f1f908767abc8559e6" target="_top" xlink:title=" ">
<polygon fill="white" stroke="#666666" points="909,-201.47 764,-201.47 764,-182.47 909,-182.47 909,-201.47"/>
<text text-anchor="middle" x="836.5" y="-189.47" font-family="Helvetica,sans-Serif" font-size="10.00">ImDrawList::AddDrawCmd</text>
</a>
</g>
</g>
<!-- Node44&#45;&gt;Node45 -->
<g id="edge54" class="edge">
<title>Node44&#45;&gt;Node45</title>
<path fill="none" stroke="#63b8ff" d="M678.47,-164.5C706.6,-169.42 741.13,-175.46 770.64,-180.63"/>
<polygon fill="#63b8ff" stroke="#63b8ff" points="770.4,-184.14 780.85,-182.41 771.6,-177.24 770.4,-184.14"/>
</g>
<!-- Node47 -->
<g id="node47" class="node">
<title>Node47</title>
<g id="a_node47"><a xlink:href="structImVector.html#a3db7ce62d3c429effdb893fbf7148c1c" target="_top" xlink:title=" ">
<polygon fill="white" stroke="#666666" points="893,-78.47 780,-78.47 780,-59.47 893,-59.47 893,-78.47"/>
<text text-anchor="middle" x="836.5" y="-66.47" font-family="Helvetica,sans-Serif" font-size="10.00">ImVector::pop_back</text>
</a>
</g>
</g>
<!-- Node44&#45;&gt;Node47 -->
<g id="edge56" class="edge">
<title>Node44&#45;&gt;Node47</title>
<path fill="none" stroke="#63b8ff" d="M638.08,-145.3C660.25,-130.52 705.1,-102.4 747,-86.97 754.24,-84.31 761.97,-82 769.73,-80.01"/>
<polygon fill="#63b8ff" stroke="#63b8ff" points="770.63,-83.4 779.54,-77.67 769,-76.59 770.63,-83.4"/>
</g>
<!-- Node45&#45;&gt;Node46 -->
<g id="edge55" class="edge">
<title>Node45&#45;&gt;Node46</title>
<path fill="none" stroke="#63b8ff" d="M906.81,-201.54C914.12,-205.07 920.78,-209.76 926,-215.97 982.14,-282.77 915.88,-532.9 962,-606.97 971.51,-622.25 987.85,-633.37 1003.16,-641.04"/>
<polygon fill="#63b8ff" stroke="#63b8ff" points="1001.95,-644.34 1012.49,-645.38 1004.9,-637.99 1001.95,-644.34"/>
</g>
<!-- Node141&#45;&gt;Node127 -->
<g id="edge61" class="edge">
<title>Node141&#45;&gt;Node127</title>
<path fill="none" stroke="#63b8ff" d="M678.47,-78.5C706.6,-83.42 741.13,-89.46 770.64,-94.63"/>
<polygon fill="#63b8ff" stroke="#63b8ff" points="770.4,-98.14 780.85,-96.41 771.6,-91.24 770.4,-98.14"/>
</g>
<!-- Node141&#45;&gt;Node128 -->
<g id="edge62" class="edge">
<title>Node141&#45;&gt;Node128</title>
<path fill="none" stroke="#63b8ff" d="M639.17,-59.46C661.68,-45.98 705.73,-21.93 747,-12.97 815.73,1.94 895.66,0.77 954.73,-3.47"/>
<polygon fill="#63b8ff" stroke="#63b8ff" points="954.53,-6.97 964.77,-4.24 955.07,0.01 954.53,-6.97"/>
</g>
<!-- Node39 -->
<g id="node50" class="node">
<title>Node39</title>
<g id="a_node50"><a xlink:href="imgui__internal_8h.html#a6e61ede308bfd68c7434e17905a29fc8" target="_top" xlink:title=" ">
<polygon fill="white" stroke="#666666" points="867,-41.47 806,-41.47 806,-22.47 867,-22.47 867,-41.47"/>
<text text-anchor="middle" x="836.5" y="-29.47" font-family="Helvetica,sans-Serif" font-size="10.00">ImClamp</text>
</a>
</g>
</g>
<!-- Node141&#45;&gt;Node39 -->
<g id="edge63" class="edge">
<title>Node141&#45;&gt;Node39</title>
<path fill="none" stroke="#63b8ff" d="M678.47,-59.45C715.13,-53.03 762.65,-44.72 795.77,-38.92"/>
<polygon fill="#63b8ff" stroke="#63b8ff" points="796.74,-42.31 805.99,-37.14 795.53,-35.41 796.74,-42.31"/>
</g>
</g>
</svg>
