<?xml version="1.0" encoding="UTF-8" standalone="no"?>
<!DOCTYPE svg PUBLIC "-//W3C//DTD SVG 1.1//EN"
 "http://www.w3.org/Graphics/SVG/1.1/DTD/svg11.dtd">
<!-- Generated by graphviz version 2.43.0 (0)
 -->
<!-- Title: LLGI::SafeAddRef Pages: 1 -->
<svg width="268pt" height="64pt"
 viewBox="0.00 0.00 268.00 64.00" xmlns="http://www.w3.org/2000/svg" xmlns:xlink="http://www.w3.org/1999/xlink">
<g id="graph0" class="graph" transform="scale(1 1) rotate(0) translate(4 60)">
<title>LLGI::SafeAddRef</title>
<!-- Node1 -->
<g id="node1" class="node">
<title>Node1</title>
<g id="a_node1"><a xlink:title=" ">
<polygon fill="#999999" stroke="#666666" points="260,-37 159,-37 159,-18 260,-18 260,-37"/>
<text text-anchor="middle" x="209.5" y="-25" font-family="Helvetica,sans-Serif" font-size="10.00">LLGI::SafeAddRef</text>
</a>
</g>
</g>
<!-- Node2 -->
<g id="node2" class="node">
<title>Node2</title>
<g id="a_node2"><a xlink:href="namespaceLLGI.html#a9f38233e255c70ee8b0e35d15d4dfc56" target="_top" xlink:title=" ">
<polygon fill="white" stroke="#666666" points="123,-56 0,-56 0,-37 123,-37 123,-56"/>
<text text-anchor="middle" x="61.5" y="-44" font-family="Helvetica,sans-Serif" font-size="10.00">LLGI::CreateSharedPtr</text>
</a>
</g>
</g>
<!-- Node1&#45;&gt;Node2 -->
<g id="edge1" class="edge">
<title>Node1&#45;&gt;Node2</title>
<path fill="none" stroke="#63b8ff" d="M148.6,-35.3C140.22,-36.39 131.61,-37.51 123.22,-38.6"/>
<polygon fill="#63b8ff" stroke="#63b8ff" points="149.2,-38.75 158.66,-33.99 148.3,-31.81 149.2,-38.75"/>
</g>
<!-- Node3 -->
<g id="node3" class="node">
<title>Node3</title>
<g id="a_node3"><a xlink:href="namespaceLLGI.html#a75b0a49031d0f32b5a7a419a4296e6ce" target="_top" xlink:title=" ">
<polygon fill="white" stroke="#666666" points="110.5,-19 12.5,-19 12.5,0 110.5,0 110.5,-19"/>
<text text-anchor="middle" x="61.5" y="-7" font-family="Helvetica,sans-Serif" font-size="10.00">LLGI::SafeAssign</text>
</a>
</g>
</g>
<!-- Node1&#45;&gt;Node3 -->
<g id="edge2" class="edge">
<title>Node1&#45;&gt;Node3</title>
<path fill="none" stroke="#63b8ff" d="M148.66,-20.12C136,-18.56 122.79,-16.93 110.63,-15.43"/>
<polygon fill="#63b8ff" stroke="#63b8ff" points="148.31,-23.61 158.66,-21.36 149.17,-16.66 148.31,-23.61"/>
</g>
</g>
</svg>
