<?xml version="1.0" encoding="UTF-8" standalone="no"?>
<!DOCTYPE svg PUBLIC "-//W3C//DTD SVG 1.1//EN"
 "http://www.w3.org/Graphics/SVG/1.1/DTD/svg11.dtd">
<!-- Generated by graphviz version 2.43.0 (0)
 -->
<!-- Title: ImGui::NavProcessItem Pages: 1 -->
<svg width="1325pt" height="991pt"
 viewBox="0.00 0.00 1325.00 991.20" xmlns="http://www.w3.org/2000/svg" xmlns:xlink="http://www.w3.org/1999/xlink">
<g id="graph0" class="graph" transform="scale(1 1) rotate(0) translate(4 987.2)">
<title>ImGui::NavProcessItem</title>
<!-- Node1 -->
<g id="node1" class="node">
<title>Node1</title>
<g id="a_node1"><a xlink:title=" ">
<polygon fill="#999999" stroke="#666666" points="131,-729 0,-729 0,-710 131,-710 131,-729"/>
<text text-anchor="middle" x="65.5" y="-717" font-family="Helvetica,sans-Serif" font-size="10.00">ImGui::NavProcessItem</text>
</a>
</g>
</g>
<!-- Node2 -->
<g id="node2" class="node">
<title>Node2</title>
<g id="a_node2"><a xlink:href="imgui__internal_8h.html#a6e61ede308bfd68c7434e17905a29fc8" target="_top" xlink:title=" ">
<polygon fill="white" stroke="#666666" points="685.5,-672 624.5,-672 624.5,-653 685.5,-653 685.5,-672"/>
<text text-anchor="middle" x="655" y="-660" font-family="Helvetica,sans-Serif" font-size="10.00">ImClamp</text>
</a>
</g>
</g>
<!-- Node1&#45;&gt;Node2 -->
<g id="edge1" class="edge">
<title>Node1&#45;&gt;Node2</title>
<path fill="none" stroke="#63b8ff" d="M131.04,-710.02C142.99,-708.4 155.36,-706.82 167,-705.5 332.79,-686.64 531.15,-671.39 614.28,-665.33"/>
<polygon fill="#63b8ff" stroke="#63b8ff" points="614.58,-668.81 624.3,-664.6 614.07,-661.83 614.58,-668.81"/>
</g>
<!-- Node3 -->
<g id="node3" class="node">
<title>Node3</title>
<g id="a_node3"><a xlink:href="namespaceImGui.html#afc3f5b074b158526cfe8531de843aa5f" target="_top" xlink:title=" ">
<polygon fill="white" stroke="#666666" points="736.5,-910 573.5,-910 573.5,-891 736.5,-891 736.5,-910"/>
<text text-anchor="middle" x="655" y="-898" font-family="Helvetica,sans-Serif" font-size="10.00">ImGui::NavApplyItemToResult</text>
</a>
</g>
</g>
<!-- Node1&#45;&gt;Node3 -->
<g id="edge2" class="edge">
<title>Node1&#45;&gt;Node3</title>
<path fill="none" stroke="#63b8ff" d="M71.56,-729.32C84.24,-752.89 119.76,-812.97 167,-843.5 292.97,-924.92 476.24,-921.26 578.26,-911.07"/>
<polygon fill="#63b8ff" stroke="#63b8ff" points="578.89,-914.52 588.48,-910 578.17,-907.56 578.89,-914.52"/>
</g>
<!-- Node4 -->
<g id="node4" class="node">
<title>Node4</title>
<g id="a_node4"><a xlink:href="namespaceImGui.html#a06d8e9fae450c785dc8f61f6e03462a7" target="_top" xlink:title=" ">
<polygon fill="white" stroke="#666666" points="946,-948 789,-948 789,-929 946,-929 946,-948"/>
<text text-anchor="middle" x="867.5" y="-936" font-family="Helvetica,sans-Serif" font-size="10.00">ImGui::WindowRectAbsToRel</text>
</a>
</g>
</g>
<!-- Node1&#45;&gt;Node4 -->
<g id="edge74" class="edge">
<title>Node1&#45;&gt;Node4</title>
<path fill="none" stroke="#63b8ff" d="M69.38,-729.23C78.45,-758.13 109.31,-843.97 167,-885.5 369.85,-1031.54 697.02,-977.49 818.81,-950.3"/>
<polygon fill="#63b8ff" stroke="#63b8ff" points="819.61,-953.71 828.59,-948.08 818.06,-946.89 819.61,-953.71"/>
</g>
<!-- Node5 -->
<g id="node5" class="node">
<title>Node5</title>
<g id="a_node5"><a xlink:href="namespaceImGui.html#a6a225bee464b9da701c6554e3fd2e5ef" target="_top" xlink:title=" ">
<polygon fill="white" stroke="#666666" points="313,-834.5 167,-834.5 167,-804.5 313,-804.5 313,-834.5"/>
<text text-anchor="start" x="175" y="-822.5" font-family="Helvetica,sans-Serif" font-size="10.00">ImGui::NavProcessItemFor</text>
<text text-anchor="middle" x="240" y="-811.5" font-family="Helvetica,sans-Serif" font-size="10.00">TabbingRequest</text>
</a>
</g>
</g>
<!-- Node1&#45;&gt;Node5 -->
<g id="edge4" class="edge">
<title>Node1&#45;&gt;Node5</title>
<path fill="none" stroke="#63b8ff" d="M83.04,-729.09C110.79,-745.18 167.31,-777.94 204.14,-799.29"/>
<polygon fill="#63b8ff" stroke="#63b8ff" points="202.64,-802.47 213.05,-804.46 206.15,-796.41 202.64,-802.47"/>
</g>
<!-- Node7 -->
<g id="node7" class="node">
<title>Node7</title>
<g id="a_node7"><a xlink:href="namespaceImGui.html#a2cd868535661cdb5671214662f3c9388" target="_top" xlink:title=" ">
<polygon fill="white" stroke="#666666" points="748,-786 562,-786 562,-767 748,-767 748,-786"/>
<text text-anchor="middle" x="655" y="-774" font-family="Helvetica,sans-Serif" font-size="10.00">ImGui::NavUpdateAnyRequestFlag</text>
</a>
</g>
</g>
<!-- Node1&#45;&gt;Node7 -->
<g id="edge67" class="edge">
<title>Node1&#45;&gt;Node7</title>
<path fill="none" stroke="#63b8ff" d="M131.3,-723.98C220.38,-730.4 385.6,-743.26 526,-759.5 542.04,-761.36 559.2,-763.51 575.56,-765.66"/>
<polygon fill="#63b8ff" stroke="#63b8ff" points="575.26,-769.15 585.63,-766.99 576.18,-762.21 575.26,-769.15"/>
</g>
<!-- Node8 -->
<g id="node8" class="node">
<title>Node8</title>
<g id="a_node8"><a xlink:href="namespaceImGui.html#a3f63daa35c17837e05d2291af30cbd94" target="_top" xlink:title=" ">
<polygon fill="white" stroke="#666666" points="300.5,-432 179.5,-432 179.5,-413 300.5,-413 300.5,-432"/>
<text text-anchor="middle" x="240" y="-420" font-family="Helvetica,sans-Serif" font-size="10.00">ImGui::NavScoreItem</text>
</a>
</g>
</g>
<!-- Node1&#45;&gt;Node8 -->
<g id="edge10" class="edge">
<title>Node1&#45;&gt;Node8</title>
<path fill="none" stroke="#63b8ff" d="M72.04,-709.95C96.52,-667.81 195.18,-497.94 228.19,-441.12"/>
<polygon fill="#63b8ff" stroke="#63b8ff" points="231.39,-442.56 233.39,-432.16 225.34,-439.05 231.39,-442.56"/>
</g>
<!-- Node170 -->
<g id="node47" class="node">
<title>Node170</title>
<g id="a_node47"><a xlink:href="structImRect.html#a0af3bade3781e5e7c6afdf71ccfb0d43" target="_top" xlink:title=" ">
<polygon fill="white" stroke="#666666" points="705.5,-338 604.5,-338 604.5,-319 705.5,-319 705.5,-338"/>
<text text-anchor="middle" x="655" y="-326" font-family="Helvetica,sans-Serif" font-size="10.00">ImRect::Overlaps</text>
</a>
</g>
</g>
<!-- Node1&#45;&gt;Node170 -->
<g id="edge68" class="edge">
<title>Node1&#45;&gt;Node170</title>
<path fill="none" stroke="#63b8ff" d="M67.56,-709.86C72.4,-669.26 95.4,-509.36 167,-403.5 225.73,-316.68 250.34,-288.92 349,-253.5 423.04,-226.92 450.08,-232.9 526,-253.5 568.28,-264.98 610.89,-294.32 634.72,-312.71"/>
<polygon fill="#63b8ff" stroke="#63b8ff" points="632.6,-315.5 642.62,-318.94 636.93,-310 632.6,-315.5"/>
</g>
<!-- Node172 -->
<g id="node49" class="node">
<title>Node172</title>
<g id="a_node49"><a xlink:href="namespaceImGui.html#ada2736a9b034b93ba877f46577bc5e8b" target="_top" xlink:title=" ">
<polygon fill="white" stroke="#666666" points="939.5,-113 795.5,-113 795.5,-94 939.5,-94 939.5,-113"/>
<text text-anchor="middle" x="867.5" y="-101" font-family="Helvetica,sans-Serif" font-size="10.00">ImGui::SetNavFocusScope</text>
</a>
</g>
</g>
<!-- Node1&#45;&gt;Node172 -->
<g id="edge69" class="edge">
<title>Node1&#45;&gt;Node172</title>
<path fill="none" stroke="#63b8ff" d="M66.13,-709.84C64.67,-658.82 63.61,-417.24 167,-264.5 221.87,-183.44 256.55,-172.65 349,-140.5 427.2,-113.3 659.94,-106.09 784.95,-104.18"/>
<polygon fill="#63b8ff" stroke="#63b8ff" points="785.29,-107.67 795.23,-104.03 785.18,-100.68 785.29,-107.67"/>
</g>
<!-- Node173 -->
<g id="node50" class="node">
<title>Node173</title>
<g id="a_node50"><a xlink:href="namespaceImGui.html#aa422c756f467e650d67b4fb1b74ff5a1" target="_top" xlink:title=" ">
<polygon fill="white" stroke="#666666" points="303,-767 177,-767 177,-748 303,-748 303,-767"/>
<text text-anchor="middle" x="240" y="-755" font-family="Helvetica,sans-Serif" font-size="10.00">ImGui::SetNavWindow</text>
</a>
</g>
</g>
<!-- Node1&#45;&gt;Node173 -->
<g id="edge72" class="edge">
<title>Node1&#45;&gt;Node173</title>
<path fill="none" stroke="#63b8ff" d="M110.03,-729.09C133.1,-734.17 161.63,-740.46 185.98,-745.82"/>
<polygon fill="#63b8ff" stroke="#63b8ff" points="185.27,-749.25 195.78,-747.98 186.77,-742.41 185.27,-749.25"/>
</g>
<!-- Node3&#45;&gt;Node4 -->
<g id="edge3" class="edge">
<title>Node3&#45;&gt;Node4</title>
<path fill="none" stroke="#63b8ff" d="M708.85,-910.04C737.62,-915.23 773.42,-921.7 803.62,-927.15"/>
<polygon fill="#63b8ff" stroke="#63b8ff" points="803.17,-930.62 813.63,-928.96 804.41,-923.74 803.17,-930.62"/>
</g>
<!-- Node5&#45;&gt;Node3 -->
<g id="edge5" class="edge">
<title>Node5&#45;&gt;Node3</title>
<path fill="none" stroke="#63b8ff" d="M272.89,-834.7C294.02,-844.13 322.61,-855.72 349,-862.5 419.74,-880.67 502.03,-890.27 563.3,-895.28"/>
<polygon fill="#63b8ff" stroke="#63b8ff" points="563.08,-898.77 573.33,-896.07 563.63,-891.79 563.08,-898.77"/>
</g>
<!-- Node6 -->
<g id="node6" class="node">
<title>Node6</title>
<g id="a_node6"><a xlink:href="namespaceImGui.html#ad71eb039682bb8e3bb950c67eeec4ed8" target="_top" xlink:title=" ">
<polygon fill="white" stroke="#666666" points="526,-853.5 349,-853.5 349,-823.5 526,-823.5 526,-853.5"/>
<text text-anchor="start" x="357" y="-841.5" font-family="Helvetica,sans-Serif" font-size="10.00">ImGui::NavMoveRequestResolve</text>
<text text-anchor="middle" x="437.5" y="-830.5" font-family="Helvetica,sans-Serif" font-size="10.00">WithLastItem</text>
</a>
</g>
</g>
<!-- Node5&#45;&gt;Node6 -->
<g id="edge6" class="edge">
<title>Node5&#45;&gt;Node6</title>
<path fill="none" stroke="#63b8ff" d="M313.24,-826.52C321.61,-827.33 330.24,-828.17 338.87,-829.01"/>
<polygon fill="#63b8ff" stroke="#63b8ff" points="338.7,-832.51 348.99,-830 339.37,-825.54 338.7,-832.51"/>
</g>
<!-- Node5&#45;&gt;Node7 -->
<g id="edge9" class="edge">
<title>Node5&#45;&gt;Node7</title>
<path fill="none" stroke="#63b8ff" d="M313.41,-811.96C379.59,-805.07 478.13,-794.81 552.21,-787.1"/>
<polygon fill="#63b8ff" stroke="#63b8ff" points="552.91,-790.54 562.5,-786.03 552.19,-783.58 552.91,-790.54"/>
</g>
<!-- Node6&#45;&gt;Node3 -->
<g id="edge7" class="edge">
<title>Node6&#45;&gt;Node3</title>
<path fill="none" stroke="#63b8ff" d="M490.67,-853.51C527.51,-864.11 576.3,-878.15 610.94,-888.11"/>
<polygon fill="#63b8ff" stroke="#63b8ff" points="610.17,-891.53 620.75,-890.93 612.11,-884.81 610.17,-891.53"/>
</g>
<!-- Node6&#45;&gt;Node7 -->
<g id="edge8" class="edge">
<title>Node6&#45;&gt;Node7</title>
<path fill="none" stroke="#63b8ff" d="M490.67,-823.49C527.51,-812.89 576.3,-798.85 610.94,-788.89"/>
<polygon fill="#63b8ff" stroke="#63b8ff" points="612.11,-792.19 620.75,-786.07 610.17,-785.47 612.11,-792.19"/>
</g>
<!-- Node9 -->
<g id="node9" class="node">
<title>Node9</title>
<g id="a_node9"><a xlink:href="structImDrawList.html#ad96f10a3e954fe0c5b7c96d4e205af7b" target="_top" xlink:title=" ">
<polygon fill="white" stroke="#666666" points="497,-206 378,-206 378,-187 497,-187 497,-206"/>
<text text-anchor="middle" x="437.5" y="-194" font-family="Helvetica,sans-Serif" font-size="10.00">ImDrawList::AddRect</text>
</a>
</g>
</g>
<!-- Node8&#45;&gt;Node9 -->
<g id="edge11" class="edge">
<title>Node8&#45;&gt;Node9</title>
<path fill="none" stroke="#63b8ff" d="M245.4,-412.73C258.2,-385.12 297.77,-305.18 349,-253.5 366.28,-236.07 389.76,-221.13 408.05,-210.92"/>
<polygon fill="#63b8ff" stroke="#63b8ff" points="409.95,-213.87 417.07,-206.03 406.61,-207.72 409.95,-213.87"/>
</g>
<!-- Node23 -->
<g id="node19" class="node">
<title>Node23</title>
<g id="a_node19"><a xlink:href="structImDrawList.html#a6b16ab764160b0251d2e7b3bd08c1ffc" target="_top" xlink:title=" ">
<polygon fill="white" stroke="#666666" points="510,-93 365,-93 365,-74 510,-74 510,-93"/>
<text text-anchor="middle" x="437.5" y="-81" font-family="Helvetica,sans-Serif" font-size="10.00">ImDrawList::AddRectFilled</text>
</a>
</g>
</g>
<!-- Node8&#45;&gt;Node23 -->
<g id="edge22" class="edge">
<title>Node8&#45;&gt;Node23</title>
<path fill="none" stroke="#63b8ff" d="M242.46,-412.92C248.73,-374.65 276.35,-230.42 349,-140.5 364.01,-121.92 386.74,-107.37 405.28,-97.62"/>
<polygon fill="#63b8ff" stroke="#63b8ff" points="406.9,-100.72 414.25,-93.09 403.75,-94.47 406.9,-100.72"/>
</g>
<!-- Node29 -->
<g id="node25" class="node">
<title>Node29</title>
<g id="a_node25"><a xlink:href="structImDrawList.html#ac5221bd86b3429f6d5b6e6ffe454942d" target="_top" xlink:title=" ">
<polygon fill="white" stroke="#666666" points="496,-282 379,-282 379,-263 496,-263 496,-282"/>
<text text-anchor="middle" x="437.5" y="-270" font-family="Helvetica,sans-Serif" font-size="10.00">ImDrawList::AddText</text>
</a>
</g>
</g>
<!-- Node8&#45;&gt;Node29 -->
<g id="edge31" class="edge">
<title>Node8&#45;&gt;Node29</title>
<path fill="none" stroke="#63b8ff" d="M248.77,-412.75C265.4,-392.38 306.38,-344.7 349,-314.5 365.09,-303.1 384.76,-293.34 401.36,-286.11"/>
<polygon fill="#63b8ff" stroke="#63b8ff" points="402.89,-289.27 410.74,-282.15 400.17,-282.82 402.89,-289.27"/>
</g>
<!-- Node30 -->
<g id="node26" class="node">
<title>Node30</title>
<g id="a_node26"><a xlink:href="namespaceImGui.html#a848b9db6cc4a186751c0ecebcaadc33b" target="_top" xlink:title=" ">
<polygon fill="white" stroke="#666666" points="494,-616 381,-616 381,-597 494,-597 494,-616"/>
<text text-anchor="middle" x="437.5" y="-604" font-family="Helvetica,sans-Serif" font-size="10.00">ImGui::CalcTextSize</text>
</a>
</g>
</g>
<!-- Node8&#45;&gt;Node30 -->
<g id="edge33" class="edge">
<title>Node8&#45;&gt;Node30</title>
<path fill="none" stroke="#63b8ff" d="M244.32,-432.21C254.71,-461.02 289.48,-546.56 349,-587.5 355.65,-592.07 363.19,-595.57 371.01,-598.24"/>
<polygon fill="#63b8ff" stroke="#63b8ff" points="370.04,-601.61 380.62,-601.11 372.04,-594.9 370.04,-601.61"/>
</g>
<!-- Node150 -->
<g id="node35" class="node">
<title>Node150</title>
<g id="a_node35"><a xlink:href="structImRect.html#a32a5aaca4161b5ffa3f352d293a449ff" target="_top" xlink:title=" ">
<polygon fill="white" stroke="#666666" points="495.5,-653 379.5,-653 379.5,-634 495.5,-634 495.5,-653"/>
<text text-anchor="middle" x="437.5" y="-641" font-family="Helvetica,sans-Serif" font-size="10.00">ImRect::ClipWithFull</text>
</a>
</g>
</g>
<!-- Node8&#45;&gt;Node150 -->
<g id="edge46" class="edge">
<title>Node8&#45;&gt;Node150</title>
<path fill="none" stroke="#63b8ff" d="M243.17,-432.42C250.97,-465.52 280.77,-572.97 349,-624.5 355.06,-629.07 361.98,-632.59 369.23,-635.29"/>
<polygon fill="#63b8ff" stroke="#63b8ff" points="368.67,-638.79 379.26,-638.49 370.79,-632.12 368.67,-638.79"/>
</g>
<!-- Node151 -->
<g id="node36" class="node">
<title>Node151</title>
<g id="a_node36"><a xlink:href="namespaceImGui.html#a77e1a981b472415e6613a2bd0966d817" target="_top" xlink:title=" ">
<polygon fill="white" stroke="#666666" points="521,-169 354,-169 354,-150 521,-150 521,-169"/>
<text text-anchor="middle" x="437.5" y="-157" font-family="Helvetica,sans-Serif" font-size="10.00">ImGui::GetForegroundDrawList</text>
</a>
</g>
</g>
<!-- Node8&#45;&gt;Node151 -->
<g id="edge48" class="edge">
<title>Node8&#45;&gt;Node151</title>
<path fill="none" stroke="#63b8ff" d="M242.12,-412.89C246.96,-375.89 269.61,-241.6 349,-177.5 350.41,-176.36 351.87,-175.29 353.38,-174.28"/>
<polygon fill="#63b8ff" stroke="#63b8ff" points="355.48,-177.12 362.48,-169.16 352.05,-171.02 355.48,-177.12"/>
</g>
<!-- Node162 -->
<g id="node39" class="node">
<title>Node162</title>
<g id="a_node39"><a xlink:href="imgui_8cpp.html#a75ccaf7d676b1f567ba888ae42ac3809" target="_top" xlink:title=" ">
<polygon fill="white" stroke="#666666" points="483.5,-579 391.5,-579 391.5,-560 483.5,-560 483.5,-579"/>
<text text-anchor="middle" x="437.5" y="-567" font-family="Helvetica,sans-Serif" font-size="10.00">ImFormatString</text>
</a>
</g>
</g>
<!-- Node8&#45;&gt;Node162 -->
<g id="edge53" class="edge">
<title>Node8&#45;&gt;Node162</title>
<path fill="none" stroke="#63b8ff" d="M246.07,-432.06C259.4,-456.17 297.93,-519.76 349,-550.5 358.79,-556.39 370.16,-560.47 381.41,-563.28"/>
<polygon fill="#63b8ff" stroke="#63b8ff" points="380.7,-566.71 391.22,-565.45 382.21,-559.87 380.7,-566.71"/>
</g>
<!-- Node163 -->
<g id="node40" class="node">
<title>Node163</title>
<g id="a_node40"><a xlink:href="imgui_8cpp.html#a250b0867d875c4c76b4fad89e7aaf498" target="_top" xlink:title=" ">
<polygon fill="white" stroke="#666666" points="516,-542 359,-542 359,-523 516,-523 516,-542"/>
<text text-anchor="middle" x="437.5" y="-530" font-family="Helvetica,sans-Serif" font-size="10.00">ImGetDirQuadrantFromDelta</text>
</a>
</g>
</g>
<!-- Node8&#45;&gt;Node163 -->
<g id="edge54" class="edge">
<title>Node8&#45;&gt;Node163</title>
<path fill="none" stroke="#63b8ff" d="M249.42,-432.23C266.3,-451.07 306.32,-492.51 349,-513.5 353.97,-515.94 359.25,-518.08 364.66,-519.93"/>
<polygon fill="#63b8ff" stroke="#63b8ff" points="363.91,-523.37 374.5,-522.99 365.99,-516.68 363.91,-523.37"/>
</g>
<!-- Node164 -->
<g id="node41" class="node">
<title>Node164</title>
<g id="a_node41"><a xlink:href="imgui__internal_8h.html#a1d7813429922346e44eebd82d13f777c" target="_top" xlink:title=" ">
<polygon fill="white" stroke="#666666" points="462.5,-505 412.5,-505 412.5,-486 462.5,-486 462.5,-505"/>
<text text-anchor="middle" x="437.5" y="-493" font-family="Helvetica,sans-Serif" font-size="10.00">ImLerp</text>
</a>
</g>
</g>
<!-- Node8&#45;&gt;Node164 -->
<g id="edge55" class="edge">
<title>Node8&#45;&gt;Node164</title>
<path fill="none" stroke="#63b8ff" d="M256.91,-432.05C277.5,-444.02 314.79,-464.45 349,-476.5 366.08,-482.52 385.73,-486.99 402.08,-490.08"/>
<polygon fill="#63b8ff" stroke="#63b8ff" points="401.82,-493.59 412.28,-491.92 403.06,-486.7 401.82,-493.59"/>
</g>
<!-- Node165 -->
<g id="node42" class="node">
<title>Node165</title>
<g id="a_node42"><a xlink:href="namespaceImGui.html#a477c2ef31c9641b158d78879780bd108" target="_top" xlink:title=" ">
<polygon fill="white" stroke="#666666" points="495.5,-450 379.5,-450 379.5,-431 495.5,-431 495.5,-450"/>
<text text-anchor="middle" x="437.5" y="-438" font-family="Helvetica,sans-Serif" font-size="10.00">ImGui::IsKeyPressed</text>
</a>
</g>
</g>
<!-- Node8&#45;&gt;Node165 -->
<g id="edge56" class="edge">
<title>Node8&#45;&gt;Node165</title>
<path fill="none" stroke="#63b8ff" d="M300.72,-428C322.43,-430 347.12,-432.27 369.43,-434.32"/>
<polygon fill="#63b8ff" stroke="#63b8ff" points="369.21,-437.82 379.49,-435.25 369.85,-430.85 369.21,-437.82"/>
</g>
<!-- Node166 -->
<g id="node43" class="node">
<title>Node166</title>
<g id="a_node43"><a xlink:href="namespaceImGui.html#ae0b8ea0e06c457316d6aed6c5b2a1c25" target="_top" xlink:title=" ">
<polygon fill="white" stroke="#666666" points="516.5,-413 358.5,-413 358.5,-394 516.5,-394 516.5,-413"/>
<text text-anchor="middle" x="437.5" y="-401" font-family="Helvetica,sans-Serif" font-size="10.00">ImGui::IsMouseHoveringRect</text>
</a>
</g>
</g>
<!-- Node8&#45;&gt;Node166 -->
<g id="edge58" class="edge">
<title>Node8&#45;&gt;Node166</title>
<path fill="none" stroke="#63b8ff" d="M300.72,-416.7C315.78,-415.23 332.28,-413.63 348.41,-412.06"/>
<polygon fill="#63b8ff" stroke="#63b8ff" points="348.78,-415.54 358.4,-411.09 348.11,-408.57 348.78,-415.54"/>
</g>
<!-- Node8&#45;&gt;Node170 -->
<g id="edge66" class="edge">
<title>Node8&#45;&gt;Node170</title>
<path fill="none" stroke="#63b8ff" d="M250.67,-412.96C268.39,-396.16 308.03,-361.74 349,-347.5 430.41,-319.2 531.32,-319.16 594.2,-322.92"/>
<polygon fill="#63b8ff" stroke="#63b8ff" points="594.13,-326.42 604.34,-323.58 594.58,-319.44 594.13,-326.42"/>
</g>
<!-- Node171 -->
<g id="node48" class="node">
<title>Node171</title>
<g id="a_node48"><a xlink:href="imgui_8cpp.html#a1bb7b58bee2ba15da988fb4c56f4cc89" target="_top" xlink:title=" ">
<polygon fill="white" stroke="#666666" points="509,-376 366,-376 366,-357 509,-357 509,-376"/>
<text text-anchor="middle" x="437.5" y="-364" font-family="Helvetica,sans-Serif" font-size="10.00">NavScoreItemDistInterval</text>
</a>
</g>
</g>
<!-- Node8&#45;&gt;Node171 -->
<g id="edge65" class="edge">
<title>Node8&#45;&gt;Node171</title>
<path fill="none" stroke="#63b8ff" d="M265.15,-412.94C286.84,-404.61 319.7,-392.63 349,-384.5 357.16,-382.24 365.83,-380.12 374.41,-378.19"/>
<polygon fill="#63b8ff" stroke="#63b8ff" points="375.38,-381.56 384.4,-376.01 373.89,-374.72 375.38,-381.56"/>
</g>
<!-- Node10 -->
<g id="node10" class="node">
<title>Node10</title>
<g id="a_node10"><a xlink:href="structImDrawList.html#a2251eb264ed8b17a253c409787375053" target="_top" xlink:title=" ">
<polygon fill="white" stroke="#666666" points="715.5,-206 594.5,-206 594.5,-187 715.5,-187 715.5,-206"/>
<text text-anchor="middle" x="655" y="-194" font-family="Helvetica,sans-Serif" font-size="10.00">ImDrawList::PathRect</text>
</a>
</g>
</g>
<!-- Node9&#45;&gt;Node10 -->
<g id="edge12" class="edge">
<title>Node9&#45;&gt;Node10</title>
<path fill="none" stroke="#63b8ff" d="M497.1,-196.5C523.96,-196.5 556.01,-196.5 584.12,-196.5"/>
<polygon fill="#63b8ff" stroke="#63b8ff" points="584.29,-200 594.29,-196.5 584.29,-193 584.29,-200"/>
</g>
<!-- Node22 -->
<g id="node18" class="node">
<title>Node22</title>
<g id="a_node18"><a xlink:href="structImDrawList.html#a60bf9040ef3d09b39c4ba8f5a2a68ae9" target="_top" xlink:title=" ">
<polygon fill="white" stroke="#666666" points="720,-243 590,-243 590,-224 720,-224 720,-243"/>
<text text-anchor="middle" x="655" y="-231" font-family="Helvetica,sans-Serif" font-size="10.00">ImDrawList::PathStroke</text>
</a>
</g>
</g>
<!-- Node9&#45;&gt;Node22 -->
<g id="edge21" class="edge">
<title>Node9&#45;&gt;Node22</title>
<path fill="none" stroke="#63b8ff" d="M494,-206.03C522.79,-210.97 558.16,-217.04 588.31,-222.22"/>
<polygon fill="#63b8ff" stroke="#63b8ff" points="587.87,-225.7 598.32,-223.94 589.05,-218.8 587.87,-225.7"/>
</g>
<!-- Node11 -->
<g id="node11" class="node">
<title>Node11</title>
<g id="a_node11"><a xlink:href="imgui__draw_8cpp.html#abc26563004ba48126f2e8b70ea0067af" target="_top" xlink:title=" ">
<polygon fill="white" stroke="#666666" points="923,-236 812,-236 812,-217 923,-217 923,-236"/>
<text text-anchor="middle" x="867.5" y="-224" font-family="Helvetica,sans-Serif" font-size="10.00">FixRectCornerFlags</text>
</a>
</g>
</g>
<!-- Node10&#45;&gt;Node11 -->
<g id="edge13" class="edge">
<title>Node10&#45;&gt;Node11</title>
<path fill="none" stroke="#63b8ff" d="M715.76,-205.02C742.71,-208.86 774.6,-213.4 802.09,-217.32"/>
<polygon fill="#63b8ff" stroke="#63b8ff" points="801.6,-220.79 812,-218.73 802.59,-213.86 801.6,-220.79"/>
</g>
<!-- Node12 -->
<g id="node12" class="node">
<title>Node12</title>
<g id="a_node12"><a xlink:href="imgui__internal_8h.html#a7f9d7828066a9d61b5630adcdf4655d3" target="_top" xlink:title=" ">
<polygon fill="white" stroke="#666666" points="1269.5,-419 1222.5,-419 1222.5,-400 1269.5,-400 1269.5,-419"/>
<text text-anchor="middle" x="1246" y="-407" font-family="Helvetica,sans-Serif" font-size="10.00">ImMin</text>
</a>
</g>
</g>
<!-- Node10&#45;&gt;Node12 -->
<g id="edge14" class="edge">
<title>Node10&#45;&gt;Node12</title>
<path fill="none" stroke="#63b8ff" d="M715.65,-200.25C727.17,-203.08 738.57,-207.54 748,-214.5 775.21,-234.56 757.59,-260.39 784,-281.5 916.42,-387.34 1130.69,-405.78 1212.15,-408.9"/>
<polygon fill="#63b8ff" stroke="#63b8ff" points="1212.19,-412.4 1222.3,-409.24 1212.42,-405.41 1212.19,-412.4"/>
</g>
<!-- Node13 -->
<g id="node13" class="node">
<title>Node13</title>
<g id="a_node13"><a xlink:href="structImDrawList.html#a6d307c6de1a6522e76fa410e8fe96fcc" target="_top" xlink:title=" ">
<polygon fill="#fff0f0" stroke="red" points="940,-273 795,-273 795,-254 940,-254 940,-273"/>
<text text-anchor="middle" x="867.5" y="-261" font-family="Helvetica,sans-Serif" font-size="10.00">ImDrawList::PathArcToFast</text>
</a>
</g>
</g>
<!-- Node10&#45;&gt;Node13 -->
<g id="edge15" class="edge">
<title>Node10&#45;&gt;Node13</title>
<path fill="none" stroke="#63b8ff" d="M715.81,-203.67C726.83,-206.25 738.01,-209.75 748,-214.5 766.81,-223.45 765.34,-235.24 784,-244.5 788.86,-246.91 794.02,-249.02 799.31,-250.86"/>
<polygon fill="#63b8ff" stroke="#63b8ff" points="798.34,-254.23 808.93,-253.91 800.45,-247.55 798.34,-254.23"/>
</g>
<!-- Node21 -->
<g id="node17" class="node">
<title>Node21</title>
<g id="a_node17"><a xlink:href="structImDrawList.html#a828d944325ed58d8b57abd3647bffaaf" target="_top" xlink:title=" ">
<polygon fill="white" stroke="#666666" points="932.5,-199 802.5,-199 802.5,-180 932.5,-180 932.5,-199"/>
<text text-anchor="middle" x="867.5" y="-187" font-family="Helvetica,sans-Serif" font-size="10.00">ImDrawList::PathLineTo</text>
</a>
</g>
</g>
<!-- Node10&#45;&gt;Node21 -->
<g id="edge19" class="edge">
<title>Node10&#45;&gt;Node21</title>
<path fill="none" stroke="#63b8ff" d="M715.76,-194.51C739.47,-193.72 767.01,-192.81 792,-191.98"/>
<polygon fill="#63b8ff" stroke="#63b8ff" points="792.29,-195.47 802.17,-191.64 792.06,-188.47 792.29,-195.47"/>
</g>
<!-- Node17 -->
<g id="node14" class="node">
<title>Node17</title>
<g id="a_node14"><a xlink:href="structImVector.html#aab5df48e0711a48bd12f3206e08c4108" target="_top" xlink:title=" ">
<polygon fill="white" stroke="#666666" points="1122,-156 1004,-156 1004,-137 1122,-137 1122,-156"/>
<text text-anchor="middle" x="1063" y="-144" font-family="Helvetica,sans-Serif" font-size="10.00">ImVector::push_back</text>
</a>
</g>
</g>
<!-- Node13&#45;&gt;Node17 -->
<g id="edge16" class="edge">
<title>Node13&#45;&gt;Node17</title>
<path fill="none" stroke="#63b8ff" d="M926.61,-253.98C935.04,-251.5 943.42,-248.4 951,-244.5 990.94,-223.97 1028.05,-185.83 1047.61,-163.67"/>
<polygon fill="#63b8ff" stroke="#63b8ff" points="1050.32,-165.88 1054.21,-156.03 1045.02,-161.31 1050.32,-165.88"/>
</g>
<!-- Node18 -->
<g id="node15" class="node">
<title>Node18</title>
<g id="a_node15"><a xlink:href="structImVector.html#a3a097635d464b1b70dc7d59996a88b28" target="_top" xlink:title=" ">
<polygon fill="white" stroke="#666666" points="1317,-156 1175,-156 1175,-137 1317,-137 1317,-156"/>
<text text-anchor="middle" x="1246" y="-144" font-family="Helvetica,sans-Serif" font-size="10.00">ImVector::_grow_capacity</text>
</a>
</g>
</g>
<!-- Node17&#45;&gt;Node18 -->
<g id="edge17" class="edge">
<title>Node17&#45;&gt;Node18</title>
<path fill="none" stroke="#63b8ff" d="M1122.27,-146.5C1135.74,-146.5 1150.31,-146.5 1164.54,-146.5"/>
<polygon fill="#63b8ff" stroke="#63b8ff" points="1164.82,-150 1174.82,-146.5 1164.82,-143 1164.82,-150"/>
</g>
<!-- Node19 -->
<g id="node16" class="node">
<title>Node19</title>
<g id="a_node16"><a xlink:href="structImVector.html#a0f14f5736c3372157856eebb67123b75" target="_top" xlink:title=" ">
<polygon fill="white" stroke="#666666" points="1297.5,-119 1194.5,-119 1194.5,-100 1297.5,-100 1297.5,-119"/>
<text text-anchor="middle" x="1246" y="-107" font-family="Helvetica,sans-Serif" font-size="10.00">ImVector::reserve</text>
</a>
</g>
</g>
<!-- Node17&#45;&gt;Node19 -->
<g id="edge18" class="edge">
<title>Node17&#45;&gt;Node19</title>
<path fill="none" stroke="#63b8ff" d="M1110.61,-136.97C1134.27,-132.14 1163.21,-126.22 1188.17,-121.12"/>
<polygon fill="#63b8ff" stroke="#63b8ff" points="1189.14,-124.49 1198.23,-119.06 1187.73,-117.63 1189.14,-124.49"/>
</g>
<!-- Node21&#45;&gt;Node17 -->
<g id="edge20" class="edge">
<title>Node21&#45;&gt;Node17</title>
<path fill="none" stroke="#63b8ff" d="M911.44,-179.96C940.25,-173.55 978.4,-165.08 1009.08,-158.26"/>
<polygon fill="#63b8ff" stroke="#63b8ff" points="1010.17,-161.6 1019.18,-156.02 1008.65,-154.77 1010.17,-161.6"/>
</g>
<!-- Node23&#45;&gt;Node10 -->
<g id="edge24" class="edge">
<title>Node23&#45;&gt;Node10</title>
<path fill="none" stroke="#63b8ff" d="M455.72,-93.17C473.94,-103.75 503.18,-121.73 526,-140.5 543.72,-155.07 541.88,-166.47 562,-177.5 569.02,-181.35 576.72,-184.41 584.59,-186.86"/>
<polygon fill="#63b8ff" stroke="#63b8ff" points="583.67,-190.24 594.24,-189.55 585.55,-183.5 583.67,-190.24"/>
</g>
<!-- Node24 -->
<g id="node20" class="node">
<title>Node24</title>
<g id="a_node20"><a xlink:href="structImDrawList.html#aea9301cb99ebf4b27f5d3959017567c9" target="_top" xlink:title=" ">
<polygon fill="white" stroke="#666666" points="730,-93 580,-93 580,-74 730,-74 730,-93"/>
<text text-anchor="middle" x="655" y="-81" font-family="Helvetica,sans-Serif" font-size="10.00">ImDrawList::PathFillConvex</text>
</a>
</g>
</g>
<!-- Node23&#45;&gt;Node24 -->
<g id="edge23" class="edge">
<title>Node23&#45;&gt;Node24</title>
<path fill="none" stroke="#63b8ff" d="M510.26,-83.5C529.34,-83.5 550.12,-83.5 569.8,-83.5"/>
<polygon fill="#63b8ff" stroke="#63b8ff" points="569.98,-87 579.98,-83.5 569.98,-80 569.98,-87"/>
</g>
<!-- Node25 -->
<g id="node21" class="node">
<title>Node25</title>
<g id="a_node21"><a xlink:href="structImDrawList.html#ae2be093563f1d20b8190b7c423113925" target="_top" xlink:title=" ">
<polygon fill="white" stroke="#666666" points="716,-56 594,-56 594,-37 716,-37 716,-56"/>
<text text-anchor="middle" x="655" y="-44" font-family="Helvetica,sans-Serif" font-size="10.00">ImDrawList::PrimRect</text>
</a>
</g>
</g>
<!-- Node23&#45;&gt;Node25 -->
<g id="edge25" class="edge">
<title>Node23&#45;&gt;Node25</title>
<path fill="none" stroke="#63b8ff" d="M494,-73.97C522.79,-69.03 558.16,-62.96 588.31,-57.78"/>
<polygon fill="#63b8ff" stroke="#63b8ff" points="589.05,-61.2 598.32,-56.06 587.87,-54.3 589.05,-61.2"/>
</g>
<!-- Node26 -->
<g id="node22" class="node">
<title>Node26</title>
<g id="a_node22"><a xlink:href="structImDrawList.html#a879aa38dbfb0344e3e023d65c002c7d7" target="_top" xlink:title=" ">
<polygon fill="white" stroke="#666666" points="725,-19 585,-19 585,0 725,0 725,-19"/>
<text text-anchor="middle" x="655" y="-7" font-family="Helvetica,sans-Serif" font-size="10.00">ImDrawList::PrimReserve</text>
</a>
</g>
</g>
<!-- Node23&#45;&gt;Node26 -->
<g id="edge26" class="edge">
<title>Node23&#45;&gt;Node26</title>
<path fill="none" stroke="#63b8ff" d="M455.98,-74C479.46,-61.61 522.76,-40.05 562,-27.5 569.3,-25.17 577.03,-23.08 584.79,-21.23"/>
<polygon fill="#63b8ff" stroke="#63b8ff" points="585.61,-24.63 594.59,-19.02 584.06,-17.81 585.61,-24.63"/>
</g>
<!-- Node27 -->
<g id="node23" class="node">
<title>Node27</title>
<g id="a_node23"><a xlink:href="structImDrawList.html#a7f2e315f147acd8b555d86d1557659cc" target="_top" xlink:title=" ">
<polygon fill="#fff0f0" stroke="red" points="945.5,-67.5 789.5,-67.5 789.5,-37.5 945.5,-37.5 945.5,-67.5"/>
<text text-anchor="start" x="797.5" y="-55.5" font-family="Helvetica,sans-Serif" font-size="10.00">ImDrawList::_OnChangedVtx</text>
<text text-anchor="middle" x="867.5" y="-44.5" font-family="Helvetica,sans-Serif" font-size="10.00">Offset</text>
</a>
</g>
</g>
<!-- Node26&#45;&gt;Node27 -->
<g id="edge27" class="edge">
<title>Node26&#45;&gt;Node27</title>
<path fill="none" stroke="#63b8ff" d="M705.68,-19.08C719.4,-21.77 734.28,-24.71 748,-27.5 760.27,-30 773.25,-32.68 785.94,-35.34"/>
<polygon fill="#63b8ff" stroke="#63b8ff" points="785.54,-38.83 796.04,-37.46 786.97,-31.98 785.54,-38.83"/>
</g>
<!-- Node20 -->
<g id="node24" class="node">
<title>Node20</title>
<g id="a_node24"><a xlink:href="structImVector.html#ac371dd62e56ae486b1a5038cf07eee56" target="_top" xlink:title=" ">
<polygon fill="white" stroke="#666666" points="1110.5,-119 1015.5,-119 1015.5,-100 1110.5,-100 1110.5,-119"/>
<text text-anchor="middle" x="1063" y="-107" font-family="Helvetica,sans-Serif" font-size="10.00">ImVector::resize</text>
</a>
</g>
</g>
<!-- Node26&#45;&gt;Node20 -->
<g id="edge28" class="edge">
<title>Node26&#45;&gt;Node20</title>
<path fill="none" stroke="#63b8ff" d="M725.28,-3.26C786.51,-0.21 877.29,-1.81 951,-28.5 989.02,-42.27 1025.36,-73.31 1045.57,-92.72"/>
<polygon fill="#63b8ff" stroke="#63b8ff" points="1043.15,-95.25 1052.73,-99.77 1048.06,-90.26 1043.15,-95.25"/>
</g>
<!-- Node20&#45;&gt;Node18 -->
<g id="edge29" class="edge">
<title>Node20&#45;&gt;Node18</title>
<path fill="none" stroke="#63b8ff" d="M1110.61,-119.03C1134.27,-123.86 1163.21,-129.78 1188.17,-134.88"/>
<polygon fill="#63b8ff" stroke="#63b8ff" points="1187.73,-138.37 1198.23,-136.94 1189.14,-131.51 1187.73,-138.37"/>
</g>
<!-- Node20&#45;&gt;Node19 -->
<g id="edge30" class="edge">
<title>Node20&#45;&gt;Node19</title>
<path fill="none" stroke="#63b8ff" d="M1110.61,-109.5C1133.07,-109.5 1160.28,-109.5 1184.32,-109.5"/>
<polygon fill="#63b8ff" stroke="#63b8ff" points="1184.41,-113 1194.41,-109.5 1184.41,-106 1184.41,-113"/>
</g>
<!-- Node29&#45;&gt;Node29 -->
<g id="edge32" class="edge">
<title>Node29&#45;&gt;Node29</title>
<path fill="none" stroke="#63b8ff" d="M407.29,-282.08C392.59,-290.73 402.66,-300 437.5,-300 461.99,-300 474.24,-295.42 474.25,-289.69"/>
<polygon fill="#63b8ff" stroke="#63b8ff" points="476.88,-287.38 467.71,-282.08 471.57,-291.95 476.88,-287.38"/>
</g>
<!-- Node31 -->
<g id="node27" class="node">
<title>Node31</title>
<g id="a_node27"><a xlink:href="structImFont.html#a418146c00c3dee351a411b952cce5175" target="_top" xlink:title=" ">
<polygon fill="white" stroke="#666666" points="717.5,-571 592.5,-571 592.5,-552 717.5,-552 717.5,-571"/>
<text text-anchor="middle" x="655" y="-559" font-family="Helvetica,sans-Serif" font-size="10.00">ImFont::CalcTextSizeA</text>
</a>
</g>
</g>
<!-- Node30&#45;&gt;Node31 -->
<g id="edge34" class="edge">
<title>Node30&#45;&gt;Node31</title>
<path fill="none" stroke="#63b8ff" d="M484.2,-596.96C517.49,-590.01 562.76,-580.55 598.18,-573.16"/>
<polygon fill="#63b8ff" stroke="#63b8ff" points="599.29,-576.5 608.36,-571.03 597.86,-569.65 599.29,-576.5"/>
</g>
<!-- Node149 -->
<g id="node34" class="node">
<title>Node149</title>
<g id="a_node34"><a xlink:href="namespaceImGui.html#a7671e1dbc803a31b06081b52a771d83f" target="_top" xlink:title=" ">
<polygon fill="white" stroke="#666666" points="733.5,-616 576.5,-616 576.5,-597 733.5,-597 733.5,-616"/>
<text text-anchor="middle" x="655" y="-604" font-family="Helvetica,sans-Serif" font-size="10.00">ImGui::FindRenderedTextEnd</text>
</a>
</g>
</g>
<!-- Node30&#45;&gt;Node149 -->
<g id="edge45" class="edge">
<title>Node30&#45;&gt;Node149</title>
<path fill="none" stroke="#63b8ff" d="M494.28,-606.5C516.1,-606.5 541.67,-606.5 565.87,-606.5"/>
<polygon fill="#63b8ff" stroke="#63b8ff" points="566.14,-610 576.14,-606.5 566.14,-603 566.14,-610"/>
</g>
<!-- Node32 -->
<g id="node28" class="node">
<title>Node32</title>
<g id="a_node28"><a xlink:href="imgui__draw_8cpp.html#a367aea34d85d56f9b58e5fb32f666c8c" target="_top" xlink:title=" ">
<polygon fill="#fff0f0" stroke="red" points="1139,-634.5 987,-634.5 987,-604.5 1139,-604.5 1139,-634.5"/>
<text text-anchor="start" x="995" y="-622.5" font-family="Helvetica,sans-Serif" font-size="10.00">BuildLoadGlyphGetAdvance</text>
<text text-anchor="middle" x="1063" y="-611.5" font-family="Helvetica,sans-Serif" font-size="10.00">OrFallback</text>
</a>
</g>
</g>
<!-- Node31&#45;&gt;Node32 -->
<g id="edge35" class="edge">
<title>Node31&#45;&gt;Node32</title>
<path fill="none" stroke="#63b8ff" d="M704.26,-571.07C718.81,-575.02 734.49,-580.38 748,-587.5 766.42,-597.21 764.44,-610.34 784,-617.5 845.78,-640.12 920.59,-639.22 977.04,-633.43"/>
<polygon fill="#63b8ff" stroke="#63b8ff" points="977.44,-636.91 987,-632.34 976.68,-629.95 977.44,-636.91"/>
</g>
<!-- Node132 -->
<g id="node29" class="node">
<title>Node132</title>
<g id="a_node29"><a xlink:href="imgui__draw_8cpp.html#a9feb6cd3fa078effc2e7953a37426eb9" target="_top" xlink:title=" ">
<polygon fill="#fff0f0" stroke="red" points="948,-609 787,-609 787,-590 948,-590 948,-609"/>
<text text-anchor="middle" x="867.5" y="-597" font-family="Helvetica,sans-Serif" font-size="10.00">CalcWordWrapNextLineStartA</text>
</a>
</g>
</g>
<!-- Node31&#45;&gt;Node132 -->
<g id="edge36" class="edge">
<title>Node31&#45;&gt;Node132</title>
<path fill="none" stroke="#63b8ff" d="M708.85,-571.04C737.62,-576.23 773.42,-582.7 803.62,-588.15"/>
<polygon fill="#63b8ff" stroke="#63b8ff" points="803.17,-591.62 813.63,-589.96 804.41,-584.74 803.17,-591.62"/>
</g>
<!-- Node134 -->
<g id="node30" class="node">
<title>Node134</title>
<g id="a_node30"><a xlink:href="structImFont.html#ad0d0e93b46d055601db121e298cc64d8" target="_top" xlink:title=" ">
<polygon fill="#fff0f0" stroke="red" points="951,-533 784,-533 784,-514 951,-514 951,-533"/>
<text text-anchor="middle" x="867.5" y="-521" font-family="Helvetica,sans-Serif" font-size="10.00">ImFont::CalcWordWrapPosition</text>
</a>
</g>
</g>
<!-- Node31&#45;&gt;Node134 -->
<g id="edge37" class="edge">
<title>Node31&#45;&gt;Node134</title>
<path fill="none" stroke="#63b8ff" d="M708.85,-551.96C737.62,-546.77 773.42,-540.3 803.62,-534.85"/>
<polygon fill="#63b8ff" stroke="#63b8ff" points="804.41,-538.26 813.63,-533.04 803.17,-531.38 804.41,-538.26"/>
</g>
<!-- Node135 -->
<g id="node31" class="node">
<title>Node135</title>
<g id="a_node31"><a xlink:href="structImFont.html#a8adbf587ae41bedc3084d9924733b4c3" target="_top" xlink:title=" ">
<polygon fill="#fff0f0" stroke="red" points="1125.5,-551 1000.5,-551 1000.5,-532 1125.5,-532 1125.5,-551"/>
<text text-anchor="middle" x="1063" y="-539" font-family="Helvetica,sans-Serif" font-size="10.00">ImFont::GetFontBaked</text>
</a>
</g>
</g>
<!-- Node31&#45;&gt;Node135 -->
<g id="edge42" class="edge">
<title>Node31&#45;&gt;Node135</title>
<path fill="none" stroke="#63b8ff" d="M717.66,-558.46C790.91,-554.85 912.88,-548.85 990.28,-545.03"/>
<polygon fill="#63b8ff" stroke="#63b8ff" points="990.61,-548.52 1000.42,-544.53 990.26,-541.53 990.61,-548.52"/>
</g>
<!-- Node147 -->
<g id="node32" class="node">
<title>Node147</title>
<g id="a_node32"><a xlink:href="imgui_8cpp.html#abee86973b9888938f748a7850c2c0ff3" target="_top" xlink:title=" ">
<polygon fill="white" stroke="#666666" points="1122,-495 1004,-495 1004,-476 1122,-476 1122,-495"/>
<text text-anchor="middle" x="1063" y="-483" font-family="Helvetica,sans-Serif" font-size="10.00">ImTextCharFromUtf8</text>
</a>
</g>
</g>
<!-- Node31&#45;&gt;Node147 -->
<g id="edge44" class="edge">
<title>Node31&#45;&gt;Node147</title>
<path fill="none" stroke="#63b8ff" d="M672.3,-551.98C696,-538.69 741.74,-515 784,-504.5 853.94,-487.12 936.63,-483.53 993.54,-483.57"/>
<polygon fill="#63b8ff" stroke="#63b8ff" points="993.84,-487.07 1003.85,-483.62 993.87,-480.07 993.84,-487.07"/>
</g>
<!-- Node91 -->
<g id="node33" class="node">
<title>Node91</title>
<g id="a_node33"><a xlink:href="imgui__internal_8h.html#a7667efd95147d0422f140917c71a9226" target="_top" xlink:title=" ">
<polygon fill="white" stroke="#666666" points="892.5,-457 842.5,-457 842.5,-438 892.5,-438 892.5,-457"/>
<text text-anchor="middle" x="867.5" y="-445" font-family="Helvetica,sans-Serif" font-size="10.00">ImMax</text>
</a>
</g>
</g>
<!-- Node31&#45;&gt;Node91 -->
<g id="edge43" class="edge">
<title>Node31&#45;&gt;Node91</title>
<path fill="none" stroke="#63b8ff" d="M666.85,-551.96C687.99,-533.83 736.74,-494.21 784,-471.5 799.18,-464.2 817.03,-458.67 832.23,-454.77"/>
<polygon fill="#63b8ff" stroke="#63b8ff" points="833.38,-458.1 842.27,-452.33 831.72,-451.29 833.38,-458.1"/>
</g>
<!-- Node134&#45;&gt;Node32 -->
<g id="edge38" class="edge">
<title>Node134&#45;&gt;Node32</title>
<path fill="none" stroke="#63b8ff" d="M887.76,-533.06C918.98,-548.54 981.26,-579.44 1022.27,-599.79"/>
<polygon fill="#63b8ff" stroke="#63b8ff" points="1020.93,-603.03 1031.45,-604.34 1024.04,-596.76 1020.93,-603.03"/>
</g>
<!-- Node134&#45;&gt;Node135 -->
<g id="edge39" class="edge">
<title>Node134&#45;&gt;Node135</title>
<path fill="none" stroke="#63b8ff" d="M951.12,-531.19C964.17,-532.4 977.57,-533.65 990.35,-534.83"/>
<polygon fill="#63b8ff" stroke="#63b8ff" points="990.15,-538.33 1000.44,-535.77 990.8,-531.36 990.15,-538.33"/>
</g>
<!-- Node134&#45;&gt;Node147 -->
<g id="edge40" class="edge">
<title>Node134&#45;&gt;Node147</title>
<path fill="none" stroke="#63b8ff" d="M917.33,-513.91C943.55,-508.76 976.06,-502.38 1003.62,-496.97"/>
<polygon fill="#63b8ff" stroke="#63b8ff" points="1004.38,-500.38 1013.52,-495.02 1003.04,-493.51 1004.38,-500.38"/>
</g>
<!-- Node147&#45;&gt;Node12 -->
<g id="edge41" class="edge">
<title>Node147&#45;&gt;Node12</title>
<path fill="none" stroke="#63b8ff" d="M1086.92,-475.87C1118.75,-462.51 1176.47,-438.27 1212.67,-423.08"/>
<polygon fill="#63b8ff" stroke="#63b8ff" points="1214.4,-426.15 1222.26,-419.05 1211.69,-419.69 1214.4,-426.15"/>
</g>
<!-- Node150&#45;&gt;Node2 -->
<g id="edge47" class="edge">
<title>Node150&#45;&gt;Node2</title>
<path fill="none" stroke="#63b8ff" d="M495.68,-648.54C533.04,-651.84 580.88,-656.05 614.15,-658.99"/>
<polygon fill="#63b8ff" stroke="#63b8ff" points="614.14,-662.5 624.41,-659.89 614.75,-655.53 614.14,-662.5"/>
</g>
<!-- Node152 -->
<g id="node37" class="node">
<title>Node152</title>
<g id="a_node37"><a xlink:href="imgui_8cpp.html#a86964372ace3c5efb9325a2162f04efd" target="_top" xlink:title=" ">
<polygon fill="#fff0f0" stroke="red" points="727.5,-169 582.5,-169 582.5,-150 727.5,-150 727.5,-169"/>
<text text-anchor="middle" x="655" y="-157" font-family="Helvetica,sans-Serif" font-size="10.00">GetViewportBgFgDrawList</text>
</a>
</g>
</g>
<!-- Node151&#45;&gt;Node152 -->
<g id="edge49" class="edge">
<title>Node151&#45;&gt;Node152</title>
<path fill="none" stroke="#63b8ff" d="M521.2,-159.5C537.91,-159.5 555.47,-159.5 572.15,-159.5"/>
<polygon fill="#63b8ff" stroke="#63b8ff" points="572.41,-163 582.41,-159.5 572.41,-156 572.41,-163"/>
</g>
<!-- Node153 -->
<g id="node38" class="node">
<title>Node153</title>
<g id="a_node38"><a xlink:href="structImDrawList.html#a5f78fe195b2507e5926560f591141ff3" target="_top" xlink:title=" ">
<polygon fill="#fff0f0" stroke="red" points="941.5,-161.5 793.5,-161.5 793.5,-131.5 941.5,-131.5 941.5,-161.5"/>
<text text-anchor="start" x="801.5" y="-149.5" font-family="Helvetica,sans-Serif" font-size="10.00">ImDrawList::_ResetForNew</text>
<text text-anchor="middle" x="867.5" y="-138.5" font-family="Helvetica,sans-Serif" font-size="10.00">Frame</text>
</a>
</g>
</g>
<!-- Node152&#45;&gt;Node153 -->
<g id="edge50" class="edge">
<title>Node152&#45;&gt;Node153</title>
<path fill="none" stroke="#63b8ff" d="M727.56,-155.08C745.46,-153.98 764.81,-152.78 783.23,-151.64"/>
<polygon fill="#63b8ff" stroke="#63b8ff" points="783.58,-155.13 793.35,-151.02 783.15,-148.14 783.58,-155.13"/>
</g>
<!-- Node153&#45;&gt;Node17 -->
<g id="edge51" class="edge">
<title>Node153&#45;&gt;Node17</title>
<path fill="none" stroke="#63b8ff" d="M941.65,-146.5C958.67,-146.5 976.72,-146.5 993.53,-146.5"/>
<polygon fill="#63b8ff" stroke="#63b8ff" points="993.81,-150 1003.81,-146.5 993.81,-143 993.81,-150"/>
</g>
<!-- Node153&#45;&gt;Node20 -->
<g id="edge52" class="edge">
<title>Node153&#45;&gt;Node20</title>
<path fill="none" stroke="#63b8ff" d="M941.65,-132.51C962.8,-128.47 985.55,-124.12 1005.52,-120.3"/>
<polygon fill="#63b8ff" stroke="#63b8ff" points="1006.22,-123.73 1015.38,-118.41 1004.9,-116.85 1006.22,-123.73"/>
</g>
<!-- Node165&#45;&gt;Node165 -->
<g id="edge57" class="edge">
<title>Node165&#45;&gt;Node165</title>
<path fill="none" stroke="#63b8ff" d="M407.29,-450.08C392.59,-458.73 402.66,-468 437.5,-468 461.99,-468 474.24,-463.42 474.25,-457.69"/>
<polygon fill="#63b8ff" stroke="#63b8ff" points="476.88,-455.38 467.71,-450.08 471.57,-459.95 476.88,-455.38"/>
</g>
<!-- Node167 -->
<g id="node44" class="node">
<title>Node167</title>
<g id="a_node44"><a xlink:href="structImRect.html#ac02d5cf6ce0358aea9ed9df43d368f3f" target="_top" xlink:title=" ">
<polygon fill="white" stroke="#666666" points="704,-450 606,-450 606,-431 704,-431 704,-450"/>
<text text-anchor="middle" x="655" y="-438" font-family="Helvetica,sans-Serif" font-size="10.00">ImRect::ClipWith</text>
</a>
</g>
</g>
<!-- Node166&#45;&gt;Node167 -->
<g id="edge59" class="edge">
<title>Node166&#45;&gt;Node167</title>
<path fill="none" stroke="#63b8ff" d="M494,-413.03C525.17,-418.38 564.04,-425.05 595.66,-430.48"/>
<polygon fill="#63b8ff" stroke="#63b8ff" points="595.2,-433.96 605.65,-432.2 596.39,-427.06 595.2,-433.96"/>
</g>
<!-- Node168 -->
<g id="node45" class="node">
<title>Node168</title>
<g id="a_node45"><a xlink:href="structImRect.html#a8dbab244f4e5b786faa9684eb85110fc" target="_top" xlink:title=" ">
<polygon fill="white" stroke="#666666" points="725,-413 585,-413 585,-394 725,-394 725,-413"/>
<text text-anchor="middle" x="655" y="-401" font-family="Helvetica,sans-Serif" font-size="10.00">ImRect::ContainsWithPad</text>
</a>
</g>
</g>
<!-- Node166&#45;&gt;Node168 -->
<g id="edge62" class="edge">
<title>Node166&#45;&gt;Node168</title>
<path fill="none" stroke="#63b8ff" d="M516.61,-403.5C535.49,-403.5 555.7,-403.5 574.65,-403.5"/>
<polygon fill="#63b8ff" stroke="#63b8ff" points="574.73,-407 584.73,-403.5 574.73,-400 574.73,-407"/>
</g>
<!-- Node169 -->
<g id="node46" class="node">
<title>Node169</title>
<g id="a_node46"><a xlink:href="structImGuiViewportP.html#adb4c14f0b0a42bff9c1c0ab1971027f7" target="_top" xlink:title=" ">
<polygon fill="white" stroke="#666666" points="737,-376 573,-376 573,-357 737,-357 737,-376"/>
<text text-anchor="middle" x="655" y="-364" font-family="Helvetica,sans-Serif" font-size="10.00">ImGuiViewportP::GetMainRect</text>
</a>
</g>
</g>
<!-- Node166&#45;&gt;Node169 -->
<g id="edge63" class="edge">
<title>Node166&#45;&gt;Node169</title>
<path fill="none" stroke="#63b8ff" d="M494,-393.97C522.79,-389.03 558.16,-382.96 588.31,-377.78"/>
<polygon fill="#63b8ff" stroke="#63b8ff" points="589.05,-381.2 598.32,-376.06 587.87,-374.3 589.05,-381.2"/>
</g>
<!-- Node166&#45;&gt;Node170 -->
<g id="edge64" class="edge">
<title>Node166&#45;&gt;Node170</title>
<path fill="none" stroke="#63b8ff" d="M503.63,-393.86C511.42,-391.41 519.07,-388.35 526,-384.5 546.06,-373.37 541.88,-358.53 562,-347.5 571.96,-342.04 583.3,-338.15 594.54,-335.37"/>
<polygon fill="#63b8ff" stroke="#63b8ff" points="595.34,-338.78 604.35,-333.21 593.83,-331.94 595.34,-338.78"/>
</g>
<!-- Node167&#45;&gt;Node12 -->
<g id="edge61" class="edge">
<title>Node167&#45;&gt;Node12</title>
<path fill="none" stroke="#63b8ff" d="M704.27,-435.37C728.23,-432.98 757.61,-430.28 784,-428.5 944.35,-417.69 1136.51,-412.15 1212.14,-410.26"/>
<polygon fill="#63b8ff" stroke="#63b8ff" points="1212.52,-413.76 1222.43,-410.01 1212.35,-406.76 1212.52,-413.76"/>
</g>
<!-- Node167&#45;&gt;Node91 -->
<g id="edge60" class="edge">
<title>Node167&#45;&gt;Node91</title>
<path fill="none" stroke="#63b8ff" d="M704.03,-442.1C743.18,-443.4 797.5,-445.21 832.33,-446.36"/>
<polygon fill="#63b8ff" stroke="#63b8ff" points="832.36,-449.87 842.47,-446.7 832.6,-442.87 832.36,-449.87"/>
</g>
<!-- Node172&#45;&gt;Node17 -->
<g id="edge70" class="edge">
<title>Node172&#45;&gt;Node17</title>
<path fill="none" stroke="#63b8ff" d="M911.44,-113.04C940.25,-119.45 978.4,-127.92 1009.08,-134.74"/>
<polygon fill="#63b8ff" stroke="#63b8ff" points="1008.65,-138.23 1019.18,-136.98 1010.17,-131.4 1008.65,-138.23"/>
</g>
<!-- Node172&#45;&gt;Node20 -->
<g id="edge71" class="edge">
<title>Node172&#45;&gt;Node20</title>
<path fill="none" stroke="#63b8ff" d="M939.73,-105.71C961.3,-106.38 984.69,-107.1 1005.19,-107.74"/>
<polygon fill="#63b8ff" stroke="#63b8ff" points="1005.2,-111.24 1015.3,-108.05 1005.42,-104.24 1005.2,-111.24"/>
</g>
<!-- Node173&#45;&gt;Node7 -->
<g id="edge73" class="edge">
<title>Node173&#45;&gt;Node7</title>
<path fill="none" stroke="#63b8ff" d="M303.28,-760.37C368.95,-763.39 473.48,-768.2 551.36,-771.78"/>
<polygon fill="#63b8ff" stroke="#63b8ff" points="551.54,-775.29 561.69,-772.25 551.86,-768.3 551.54,-775.29"/>
</g>
</g>
</svg>
