<?xml version="1.0" encoding="UTF-8" standalone="no"?>
<!DOCTYPE svg PUBLIC "-//W3C//DTD SVG 1.1//EN"
 "http://www.w3.org/Graphics/SVG/1.1/DTD/svg11.dtd">
<!-- Generated by graphviz version 2.43.0 (0)
 -->
<!-- Title: ImGui::IsWindowHovered Pages: 1 -->
<svg width="1547pt" height="944pt"
 viewBox="0.00 0.00 1547.00 943.50" xmlns="http://www.w3.org/2000/svg" xmlns:xlink="http://www.w3.org/1999/xlink">
<g id="graph0" class="graph" transform="scale(1 1) rotate(0) translate(4 939.5)">
<title>ImGui::IsWindowHovered</title>
<!-- Node1 -->
<g id="node1" class="node">
<title>Node1</title>
<g id="a_node1"><a xlink:title=" ">
<polygon fill="#999999" stroke="#666666" points="1539,-340.5 1399,-340.5 1399,-321.5 1539,-321.5 1539,-340.5"/>
<text text-anchor="middle" x="1469" y="-328.5" font-family="Helvetica,sans-Serif" font-size="10.00">ImGui::IsWindowHovered</text>
</a>
</g>
</g>
<!-- Node2 -->
<g id="node2" class="node">
<title>Node2</title>
<g id="a_node2"><a xlink:href="namespaceImGui.html#a6758a456204101a9c4a660da4cfba2c9" target="_top" xlink:title=" ">
<polygon fill="white" stroke="#666666" points="1363,-455.5 1194,-455.5 1194,-436.5 1363,-436.5 1363,-455.5"/>
<text text-anchor="middle" x="1278.5" y="-443.5" font-family="Helvetica,sans-Serif" font-size="10.00">ImGui::BeginPopupContextVoid</text>
</a>
</g>
</g>
<!-- Node1&#45;&gt;Node2 -->
<g id="edge1" class="edge">
<title>Node1&#45;&gt;Node2</title>
<path fill="none" stroke="#63b8ff" d="M1454.07,-348.72C1435.67,-370.86 1401.11,-408.21 1363,-428 1356.42,-431.42 1349.22,-434.19 1341.91,-436.43"/>
<polygon fill="#63b8ff" stroke="#63b8ff" points="1456.93,-350.76 1460.51,-340.79 1451.49,-346.35 1456.93,-350.76"/>
</g>
<!-- Node3 -->
<g id="node3" class="node">
<title>Node3</title>
<g id="a_node3"><a xlink:href="namespaceImGui.html#aef8b2c0baa27bd5c68f676aaf14ed946" target="_top" xlink:title=" ">
<polygon fill="white" stroke="#666666" points="965,-332 817,-332 817,-302 965,-302 965,-332"/>
<text text-anchor="start" x="825" y="-320" font-family="Helvetica,sans-Serif" font-size="10.00">ImGui::BeginPopupContext</text>
<text text-anchor="middle" x="891" y="-309" font-family="Helvetica,sans-Serif" font-size="10.00">Window</text>
</a>
</g>
</g>
<!-- Node1&#45;&gt;Node3 -->
<g id="edge2" class="edge">
<title>Node1&#45;&gt;Node3</title>
<path fill="none" stroke="#63b8ff" d="M1388.59,-329.07C1276.66,-326.35 1074.04,-321.42 965.44,-318.79"/>
<polygon fill="#63b8ff" stroke="#63b8ff" points="1388.73,-332.57 1398.81,-329.32 1388.9,-325.58 1388.73,-332.57"/>
</g>
<!-- Node7 -->
<g id="node7" class="node">
<title>Node7</title>
<g id="a_node7"><a xlink:href="structExampleAssetsBrowser.html#a2b36e1f9b7d764e547611baa4c7fd8d1" target="_top" xlink:title=" ">
<polygon fill="white" stroke="#666666" points="747.5,-30 616.5,-30 616.5,0 747.5,0 747.5,-30"/>
<text text-anchor="start" x="624.5" y="-18" font-family="Helvetica,sans-Serif" font-size="10.00">ExampleAssetsBrowser</text>
<text text-anchor="middle" x="682" y="-7" font-family="Helvetica,sans-Serif" font-size="10.00">::Draw</text>
</a>
</g>
</g>
<!-- Node1&#45;&gt;Node7 -->
<g id="edge14" class="edge">
<title>Node1&#45;&gt;Node7</title>
<path fill="none" stroke="#63b8ff" d="M1435.83,-317.64C1317.1,-268.35 903.5,-97.01 770,-46 755.92,-40.62 740.45,-35.01 726.51,-30.07"/>
<polygon fill="#63b8ff" stroke="#63b8ff" points="1434.55,-320.9 1445.13,-321.5 1437.24,-314.43 1434.55,-320.9"/>
</g>
<!-- Node10 -->
<g id="node10" class="node">
<title>Node10</title>
<g id="a_node10"><a xlink:href="imgui__demo_8cpp.html#a5de91117986b51cfb587630d6ff46205" target="_top" xlink:title=" ">
<polygon fill="white" stroke="#666666" points="766.5,-860 597.5,-860 597.5,-830 766.5,-830 766.5,-860"/>
<text text-anchor="start" x="605.5" y="-848" font-family="Helvetica,sans-Serif" font-size="10.00">DemoWindowWidgetsQuerying</text>
<text text-anchor="middle" x="682" y="-837" font-family="Helvetica,sans-Serif" font-size="10.00">Statuses</text>
</a>
</g>
</g>
<!-- Node1&#45;&gt;Node10 -->
<g id="edge11" class="edge">
<title>Node1&#45;&gt;Node10</title>
<path fill="none" stroke="#63b8ff" d="M1388.77,-341.55C1217.37,-364.74 825.84,-419.75 806,-441 749.02,-502.03 821.68,-749.42 770,-815 765.15,-821.15 758.98,-826.04 752.15,-829.94"/>
<polygon fill="#63b8ff" stroke="#63b8ff" points="1389.31,-345.01 1398.75,-340.21 1388.37,-338.08 1389.31,-345.01"/>
</g>
<!-- Node12 -->
<g id="node12" class="node">
<title>Node12</title>
<g id="a_node12"><a xlink:href="namespaceImGui.html#a19b11a3ea8f98b43089dc13ab015ad5b" target="_top" xlink:title=" ">
<polygon fill="white" stroke="#666666" points="1341,-418.5 1216,-418.5 1216,-399.5 1341,-399.5 1341,-418.5"/>
<text text-anchor="middle" x="1278.5" y="-406.5" font-family="Helvetica,sans-Serif" font-size="10.00">ImGui::EndMultiSelect</text>
</a>
</g>
</g>
<!-- Node1&#45;&gt;Node12 -->
<g id="edge15" class="edge">
<title>Node1&#45;&gt;Node12</title>
<path fill="none" stroke="#63b8ff" d="M1435.32,-344.52C1397.37,-360.23 1335.75,-385.72 1302.51,-399.48"/>
<polygon fill="#63b8ff" stroke="#63b8ff" points="1436.98,-347.62 1444.89,-340.56 1434.31,-341.15 1436.98,-347.62"/>
</g>
<!-- Node40 -->
<g id="node40" class="node">
<title>Node40</title>
<g id="a_node40"><a xlink:href="namespaceGraphEditor.html#a16454192c474c475c0f4b532fa840960" target="_top" xlink:title=" ">
<polygon fill="white" stroke="#666666" points="1332,-207.5 1225,-207.5 1225,-188.5 1332,-188.5 1332,-207.5"/>
<text text-anchor="middle" x="1278.5" y="-195.5" font-family="Helvetica,sans-Serif" font-size="10.00">GraphEditor::Show</text>
</a>
</g>
</g>
<!-- Node1&#45;&gt;Node40 -->
<g id="edge69" class="edge">
<title>Node1&#45;&gt;Node40</title>
<path fill="none" stroke="#63b8ff" d="M1455.39,-312.9C1437.57,-288.65 1402.72,-245.92 1363,-222 1352.66,-215.78 1340.63,-211.1 1328.98,-207.61"/>
<polygon fill="#63b8ff" stroke="#63b8ff" points="1452.69,-315.13 1461.36,-321.21 1458.37,-311.04 1452.69,-315.13"/>
</g>
<!-- Node4 -->
<g id="node4" class="node">
<title>Node4</title>
<g id="a_node4"><a xlink:href="structExampleAppConsole.html#a0518a09c7e8648dd52c7c06df19ac17a" target="_top" xlink:title=" ">
<polygon fill="white" stroke="#666666" points="756.5,-179.5 607.5,-179.5 607.5,-160.5 756.5,-160.5 756.5,-179.5"/>
<text text-anchor="middle" x="682" y="-167.5" font-family="Helvetica,sans-Serif" font-size="10.00">ExampleAppConsole::Draw</text>
</a>
</g>
</g>
<!-- Node3&#45;&gt;Node4 -->
<g id="edge3" class="edge">
<title>Node3&#45;&gt;Node4</title>
<path fill="none" stroke="#63b8ff" d="M817.55,-297C813.39,-294.36 809.49,-291.38 806,-288 773.84,-256.9 803.12,-224.07 770,-194 763.04,-187.68 754.56,-183.01 745.66,-179.55"/>
<polygon fill="#63b8ff" stroke="#63b8ff" points="815.96,-300.12 826.4,-301.94 819.37,-294.01 815.96,-300.12"/>
</g>
<!-- Node3&#45;&gt;Node7 -->
<g id="edge6" class="edge">
<title>Node3&#45;&gt;Node7</title>
<path fill="none" stroke="#63b8ff" d="M814.72,-296.38C811.52,-293.9 808.59,-291.12 806,-288 736.02,-203.63 840.43,-128 770,-44 763.96,-36.8 756.09,-31.38 747.54,-27.3"/>
<polygon fill="#63b8ff" stroke="#63b8ff" points="812.85,-299.35 823.11,-301.96 816.72,-293.52 812.85,-299.35"/>
</g>
<!-- Node9 -->
<g id="node9" class="node">
<title>Node9</title>
<g id="a_node9"><a xlink:href="imgui__demo_8cpp.html#a41a6cb36f6ad91f80eba61b0053d17a5" target="_top" xlink:title=" ">
<polygon fill="white" stroke="#666666" points="770,-142.5 594,-142.5 594,-123.5 770,-123.5 770,-142.5"/>
<text text-anchor="middle" x="682" y="-130.5" font-family="Helvetica,sans-Serif" font-size="10.00">ShowExampleAppSimpleOverlay</text>
</a>
</g>
</g>
<!-- Node3&#45;&gt;Node9 -->
<g id="edge9" class="edge">
<title>Node3&#45;&gt;Node9</title>
<path fill="none" stroke="#63b8ff" d="M815.83,-296.54C812.27,-294.01 808.95,-291.18 806,-288 763.19,-241.84 815.68,-194.32 770,-151 766.53,-147.71 762.63,-144.95 758.44,-142.65"/>
<polygon fill="#63b8ff" stroke="#63b8ff" points="814.19,-299.64 824.55,-301.87 817.85,-293.67 814.19,-299.64"/>
</g>
<!-- Node5 -->
<g id="node5" class="node">
<title>Node5</title>
<g id="a_node5"><a xlink:href="imgui__demo_8cpp.html#a8e5624314ae6402dd0ddf2a62aa91473" target="_top" xlink:title=" ">
<polygon fill="white" stroke="#666666" points="534,-180.5 391,-180.5 391,-161.5 534,-161.5 534,-180.5"/>
<text text-anchor="middle" x="462.5" y="-168.5" font-family="Helvetica,sans-Serif" font-size="10.00">ShowExampleAppConsole</text>
</a>
</g>
</g>
<!-- Node4&#45;&gt;Node5 -->
<g id="edge4" class="edge">
<title>Node4&#45;&gt;Node5</title>
<path fill="none" stroke="#63b8ff" d="M597.25,-170.39C576.4,-170.48 554.26,-170.58 534.12,-170.68"/>
<polygon fill="#63b8ff" stroke="#63b8ff" points="597.38,-173.88 607.36,-170.34 597.35,-166.88 597.38,-173.88"/>
</g>
<!-- Node6 -->
<g id="node6" class="node">
<title>Node6</title>
<g id="a_node6"><a xlink:href="namespaceImGui.html#af95643a0ce4893b9e57c12991922fb18" target="_top" xlink:title=" ">
<polygon fill="white" stroke="#666666" points="322,-426.5 176,-426.5 176,-407.5 322,-407.5 322,-426.5"/>
<text text-anchor="middle" x="249" y="-414.5" font-family="Helvetica,sans-Serif" font-size="10.00">ImGui::ShowDemoWindow</text>
</a>
</g>
</g>
<!-- Node5&#45;&gt;Node6 -->
<g id="edge5" class="edge">
<title>Node5&#45;&gt;Node6</title>
<path fill="none" stroke="#63b8ff" d="M381.41,-180.64C376.29,-182.93 371.43,-185.69 367,-189 289.35,-247.11 259.1,-371.59 251.84,-407.26"/>
<polygon fill="#63b8ff" stroke="#63b8ff" points="382.77,-183.86 390.84,-177 380.25,-177.33 382.77,-183.86"/>
</g>
<!-- Node8 -->
<g id="node8" class="node">
<title>Node8</title>
<g id="a_node8"><a xlink:href="imgui__demo_8cpp.html#a83fdfc359b5a0432835090acd227690f" target="_top" xlink:title=" ">
<polygon fill="white" stroke="#666666" points="550.5,-27.5 374.5,-27.5 374.5,-8.5 550.5,-8.5 550.5,-27.5"/>
<text text-anchor="middle" x="462.5" y="-15.5" font-family="Helvetica,sans-Serif" font-size="10.00">ShowExampleAppAssetsBrowser</text>
</a>
</g>
</g>
<!-- Node7&#45;&gt;Node8 -->
<g id="edge7" class="edge">
<title>Node7&#45;&gt;Node8</title>
<path fill="none" stroke="#63b8ff" d="M606.04,-16.03C588.26,-16.28 569.15,-16.54 550.87,-16.79"/>
<polygon fill="#63b8ff" stroke="#63b8ff" points="606.38,-19.53 616.33,-15.89 606.28,-12.53 606.38,-19.53"/>
</g>
<!-- Node8&#45;&gt;Node6 -->
<g id="edge8" class="edge">
<title>Node8&#45;&gt;Node6</title>
<path fill="none" stroke="#63b8ff" d="M373.36,-32.95C371.13,-34.49 369,-36.17 367,-38 337.7,-64.76 266.31,-350.59 252.38,-407.26"/>
<polygon fill="#63b8ff" stroke="#63b8ff" points="375.53,-35.74 382.41,-27.68 372.01,-29.69 375.53,-35.74"/>
</g>
<!-- Node9&#45;&gt;Node6 -->
<g id="edge10" class="edge">
<title>Node9&#45;&gt;Node6</title>
<path fill="none" stroke="#63b8ff" d="M631.92,-121.45C565.48,-108.79 446.16,-96.94 367,-152 275.55,-215.61 254.76,-367.53 250.82,-407.32"/>
<polygon fill="#63b8ff" stroke="#63b8ff" points="631.62,-124.96 642.11,-123.47 632.99,-118.09 631.62,-124.96"/>
</g>
<!-- Node11 -->
<g id="node11" class="node">
<title>Node11</title>
<g id="a_node11"><a xlink:href="imgui__demo_8cpp.html#a9a639caab781642cbc4f4a23bfbd11cd" target="_top" xlink:title=" ">
<polygon fill="white" stroke="#666666" points="525,-854.5 400,-854.5 400,-835.5 525,-835.5 525,-854.5"/>
<text text-anchor="middle" x="462.5" y="-842.5" font-family="Helvetica,sans-Serif" font-size="10.00">DemoWindowWidgets</text>
</a>
</g>
</g>
<!-- Node10&#45;&gt;Node11 -->
<g id="edge12" class="edge">
<title>Node10&#45;&gt;Node11</title>
<path fill="none" stroke="#63b8ff" d="M587.04,-845C566.14,-845 544.5,-845 525.29,-845"/>
<polygon fill="#63b8ff" stroke="#63b8ff" points="587.22,-848.5 597.22,-845 587.22,-841.5 587.22,-848.5"/>
</g>
<!-- Node11&#45;&gt;Node6 -->
<g id="edge13" class="edge">
<title>Node11&#45;&gt;Node6</title>
<path fill="none" stroke="#63b8ff" d="M429.15,-831.12C408.53,-820.7 382.81,-804.54 367,-783 332.28,-735.7 348.42,-712.02 331,-656 303.03,-566.05 264.91,-458.61 253.42,-426.51"/>
<polygon fill="#63b8ff" stroke="#63b8ff" points="427.68,-834.3 438.21,-835.5 430.73,-827.99 427.68,-834.3"/>
</g>
<!-- Node12&#45;&gt;Node7 -->
<g id="edge18" class="edge">
<title>Node12&#45;&gt;Node7</title>
<path fill="none" stroke="#63b8ff" d="M1246.09,-395.48C1191.75,-372.42 1076.39,-324.88 976,-293 901.72,-269.41 859.06,-307.08 806,-250 743.32,-182.56 829.42,-116.32 770,-46 764,-38.9 756.25,-33.42 747.85,-29.2"/>
<polygon fill="#63b8ff" stroke="#63b8ff" points="1244.94,-398.79 1255.51,-399.49 1247.68,-392.35 1244.94,-398.79"/>
</g>
<!-- Node13 -->
<g id="node13" class="node">
<title>Node13</title>
<g id="a_node13"><a xlink:href="imgui__demo_8cpp.html#a401c106ef9206d8dd4b4bc3271a6de6f" target="_top" xlink:title=" ">
<polygon fill="white" stroke="#666666" points="976,-532 806,-532 806,-502 976,-502 976,-532"/>
<text text-anchor="start" x="814" y="-520" font-family="Helvetica,sans-Serif" font-size="10.00">DemoWindowWidgetsSelection</text>
<text text-anchor="middle" x="891" y="-509" font-family="Helvetica,sans-Serif" font-size="10.00">AndMultiSelect</text>
</a>
</g>
</g>
<!-- Node12&#45;&gt;Node13 -->
<g id="edge16" class="edge">
<title>Node12&#45;&gt;Node13</title>
<path fill="none" stroke="#63b8ff" d="M1210.88,-421.46C1205.06,-423.35 1199.36,-425.52 1194,-428 1175.85,-436.4 1176.13,-446.55 1158,-455 1140.35,-463.23 1035.85,-486.42 963.21,-501.99"/>
<polygon fill="#63b8ff" stroke="#63b8ff" points="1212.15,-424.73 1220.73,-418.52 1210.15,-418.02 1212.15,-424.73"/>
</g>
<!-- Node14 -->
<g id="node14" class="node">
<title>Node14</title>
<g id="a_node14"><a xlink:href="namespaceImGui.html#a9e02d2905347634105ecc057a0824e1a" target="_top" xlink:title=" ">
<polygon fill="white" stroke="#666666" points="1158,-446 1012,-446 1012,-416 1158,-416 1158,-446"/>
<text text-anchor="start" x="1020" y="-434" font-family="Helvetica,sans-Serif" font-size="10.00">ImGui::ErrorRecoveryTryTo</text>
<text text-anchor="middle" x="1085" y="-423" font-family="Helvetica,sans-Serif" font-size="10.00">RecoverWindowState</text>
</a>
</g>
</g>
<!-- Node12&#45;&gt;Node14 -->
<g id="edge19" class="edge">
<title>Node12&#45;&gt;Node14</title>
<path fill="none" stroke="#63b8ff" d="M1205.78,-417.24C1190.23,-419.03 1173.78,-420.92 1158.21,-422.7"/>
<polygon fill="#63b8ff" stroke="#63b8ff" points="1206.32,-420.7 1215.85,-416.08 1205.52,-413.75 1206.32,-420.7"/>
</g>
<!-- Node39 -->
<g id="node39" class="node">
<title>Node39</title>
<g id="a_node39"><a xlink:href="structExampleDualListBox.html#a1413fd803c568a0d4b98a8f3c59af1be" target="_top" xlink:title=" ">
<polygon fill="white" stroke="#666666" points="1144,-532 1026,-532 1026,-502 1144,-502 1144,-532"/>
<text text-anchor="start" x="1034" y="-520" font-family="Helvetica,sans-Serif" font-size="10.00">ExampleDualListBox</text>
<text text-anchor="middle" x="1085" y="-509" font-family="Helvetica,sans-Serif" font-size="10.00">::Show</text>
</a>
</g>
</g>
<!-- Node12&#45;&gt;Node39 -->
<g id="edge67" class="edge">
<title>Node12&#45;&gt;Node39</title>
<path fill="none" stroke="#63b8ff" d="M1206.12,-420.92C1201.84,-422.93 1197.76,-425.28 1194,-428 1168.82,-446.25 1181.65,-467.81 1158,-488 1151.44,-493.6 1143.66,-498.21 1135.68,-501.98"/>
<polygon fill="#63b8ff" stroke="#63b8ff" points="1207.77,-424.03 1215.72,-417.02 1205.14,-417.54 1207.77,-424.03"/>
</g>
<!-- Node13&#45;&gt;Node11 -->
<g id="edge17" class="edge">
<title>Node13&#45;&gt;Node11</title>
<path fill="none" stroke="#63b8ff" d="M890.44,-542.22C890.06,-609.12 878.67,-791.23 770,-869 680.37,-933.14 535.91,-878.19 483.39,-854.54"/>
<polygon fill="#63b8ff" stroke="#63b8ff" points="893.94,-542.15 890.41,-532.16 886.94,-542.17 893.94,-542.15"/>
</g>
<!-- Node15 -->
<g id="node15" class="node">
<title>Node15</title>
<g id="a_node15"><a xlink:href="namespaceImGui.html#a5479d93794a004c67ceb6d13f37c8254" target="_top" xlink:title=" ">
<polygon fill="white" stroke="#666666" points="926,-385.5 856,-385.5 856,-366.5 926,-366.5 926,-385.5"/>
<text text-anchor="middle" x="891" y="-373.5" font-family="Helvetica,sans-Serif" font-size="10.00">ImGui::End</text>
</a>
</g>
</g>
<!-- Node14&#45;&gt;Node15 -->
<g id="edge20" class="edge">
<title>Node14&#45;&gt;Node15</title>
<path fill="none" stroke="#63b8ff" d="M1021.79,-413.18C989.72,-403.99 951.89,-393.16 925.38,-385.56"/>
<polygon fill="#63b8ff" stroke="#63b8ff" points="1020.96,-416.58 1031.54,-415.97 1022.89,-409.85 1020.96,-416.58"/>
</g>
<!-- Node35 -->
<g id="node35" class="node">
<title>Node35</title>
<g id="a_node35"><a xlink:href="namespaceImGui.html#af173cf3b924ce08bf5ba4b6a49c04cf1" target="_top" xlink:title=" ">
<polygon fill="white" stroke="#666666" points="964,-480 818,-480 818,-450 964,-450 964,-480"/>
<text text-anchor="start" x="826" y="-468" font-family="Helvetica,sans-Serif" font-size="10.00">ImGui::ErrorRecoveryTryTo</text>
<text text-anchor="middle" x="891" y="-457" font-family="Helvetica,sans-Serif" font-size="10.00">RecoverState</text>
</a>
</g>
</g>
<!-- Node14&#45;&gt;Node35 -->
<g id="edge62" class="edge">
<title>Node14&#45;&gt;Node35</title>
<path fill="none" stroke="#63b8ff" d="M1001.96,-445.53C989.38,-447.76 976.47,-450.04 964.12,-452.23"/>
<polygon fill="#63b8ff" stroke="#63b8ff" points="1002.72,-448.95 1011.96,-443.76 1001.5,-442.05 1002.72,-448.95"/>
</g>
<!-- Node15&#45;&gt;Node4 -->
<g id="edge26" class="edge">
<title>Node15&#45;&gt;Node4</title>
<path fill="none" stroke="#63b8ff" d="M845.86,-366.21C831.32,-360.96 816.27,-352.99 806,-341 762.25,-289.91 816.87,-242.25 770,-194 763.89,-187.71 756.28,-183.02 748.14,-179.53"/>
<polygon fill="#63b8ff" stroke="#63b8ff" points="845.18,-369.67 855.77,-369.43 847.34,-363.01 845.18,-369.67"/>
</g>
<!-- Node15&#45;&gt;Node6 -->
<g id="edge38" class="edge">
<title>Node15&#45;&gt;Node6</title>
<path fill="none" stroke="#63b8ff" d="M846.09,-364.59C831.99,-359.24 817.15,-351.63 806,-341 778.95,-315.21 801.58,-284.99 770,-265 703.9,-223.17 672.15,-261.56 594,-265 492.82,-269.45 457.45,-239.43 367,-285 310.39,-313.52 268.83,-382.22 255,-407.48"/>
<polygon fill="#63b8ff" stroke="#63b8ff" points="845.09,-367.94 855.68,-367.94 847.4,-361.34 845.09,-367.94"/>
</g>
<!-- Node15&#45;&gt;Node7 -->
<g id="edge27" class="edge">
<title>Node15&#45;&gt;Node7</title>
<path fill="none" stroke="#63b8ff" d="M846.18,-367.27C831.2,-362.1 815.78,-353.91 806,-341 725.71,-235.01 854.11,-146.99 770,-44 764.06,-36.72 756.23,-31.26 747.71,-27.16"/>
<polygon fill="#63b8ff" stroke="#63b8ff" points="845.3,-370.66 855.89,-370.25 847.36,-363.97 845.3,-370.66"/>
</g>
<!-- Node15&#45;&gt;Node9 -->
<g id="edge58" class="edge">
<title>Node15&#45;&gt;Node9</title>
<path fill="none" stroke="#63b8ff" d="M846.28,-366.78C831.47,-361.57 816.13,-353.48 806,-341 751.85,-274.26 830.26,-212.28 770,-151 766.76,-147.7 763.08,-144.93 759.11,-142.6"/>
<polygon fill="#63b8ff" stroke="#63b8ff" points="845.29,-370.14 855.88,-369.81 847.39,-363.47 845.29,-370.14"/>
</g>
<!-- Node15&#45;&gt;Node10 -->
<g id="edge25" class="edge">
<title>Node15&#45;&gt;Node10</title>
<path fill="none" stroke="#63b8ff" d="M845.87,-378.69C831.04,-381.88 815.8,-388.11 806,-400 746.98,-471.6 827.45,-743.14 770,-816 765.56,-821.63 760,-826.17 753.84,-829.84"/>
<polygon fill="#63b8ff" stroke="#63b8ff" points="846.74,-382.09 856,-376.93 845.55,-375.19 846.74,-382.09"/>
</g>
<!-- Node16 -->
<g id="node16" class="node">
<title>Node16</title>
<g id="a_node16"><a xlink:href="namespaceIMGUIZMO__NAMESPACE.html#a7e79232f8e04ed9a9da0bda4ed3ca1c5" target="_top" xlink:title=" ">
<polygon fill="white" stroke="#666666" points="749.5,-566 614.5,-566 614.5,-536 749.5,-536 749.5,-566"/>
<text text-anchor="start" x="622.5" y="-554" font-family="Helvetica,sans-Serif" font-size="10.00">IMGUIZMO_NAMESPACE</text>
<text text-anchor="middle" x="682" y="-543" font-family="Helvetica,sans-Serif" font-size="10.00">::BeginFrame</text>
</a>
</g>
</g>
<!-- Node15&#45;&gt;Node16 -->
<g id="edge21" class="edge">
<title>Node15&#45;&gt;Node16</title>
<path fill="none" stroke="#63b8ff" d="M845.64,-380.17C831.39,-383.54 816.57,-389.52 806,-400 765.85,-439.8 809.27,-481.33 770,-522 764.25,-527.96 757.24,-532.69 749.73,-536.45"/>
<polygon fill="#63b8ff" stroke="#63b8ff" points="846.72,-383.52 855.85,-378.14 845.36,-376.65 846.72,-383.52"/>
</g>
<!-- Node17 -->
<g id="node17" class="node">
<title>Node17</title>
<g id="a_node17"><a xlink:href="imgui__demo_8cpp.html#acdabfa47af2ef5ba0a22b98a4368cc7d" target="_top" xlink:title=" ">
<polygon fill="white" stroke="#666666" points="521.5,-217.5 403.5,-217.5 403.5,-198.5 521.5,-198.5 521.5,-217.5"/>
<text text-anchor="middle" x="462.5" y="-205.5" font-family="Helvetica,sans-Serif" font-size="10.00">DemoWindowLayout</text>
</a>
</g>
</g>
<!-- Node15&#45;&gt;Node17 -->
<g id="edge23" class="edge">
<title>Node15&#45;&gt;Node17</title>
<path fill="none" stroke="#63b8ff" d="M846.02,-365.62C831.64,-360.32 816.65,-352.49 806,-341 771.32,-303.58 810.15,-263.48 770,-232 732.72,-202.77 599.79,-202.54 521.77,-205.14"/>
<polygon fill="#63b8ff" stroke="#63b8ff" points="845.23,-369.04 855.82,-368.89 847.44,-362.4 845.23,-369.04"/>
</g>
<!-- Node18 -->
<g id="node18" class="node">
<title>Node18</title>
<g id="a_node18"><a xlink:href="structExampleAppLog.html#a5ad3a4bdb89171b84aeaff96948a1f77" target="_top" xlink:title=" ">
<polygon fill="white" stroke="#666666" points="745.5,-773.5 618.5,-773.5 618.5,-754.5 745.5,-754.5 745.5,-773.5"/>
<text text-anchor="middle" x="682" y="-761.5" font-family="Helvetica,sans-Serif" font-size="10.00">ExampleAppLog::Draw</text>
</a>
</g>
</g>
<!-- Node15&#45;&gt;Node18 -->
<g id="edge28" class="edge">
<title>Node15&#45;&gt;Node18</title>
<path fill="none" stroke="#63b8ff" d="M845.64,-378.87C830.94,-382.1 815.83,-388.3 806,-400 708.22,-516.32 868.31,-624.13 770,-740 763.61,-747.53 755.1,-752.8 745.9,-756.48"/>
<polygon fill="#63b8ff" stroke="#63b8ff" points="846.45,-382.28 855.68,-377.08 845.23,-375.39 846.45,-382.28"/>
</g>
<!-- Node19 -->
<g id="node19" class="node">
<title>Node19</title>
<g id="a_node19"><a xlink:href="imgui__demo_8cpp.html#ad0303cf1f675002eb4e68c17a47b3f88" target="_top" xlink:title=" ">
<polygon fill="white" stroke="#666666" points="523.5,-773.5 401.5,-773.5 401.5,-754.5 523.5,-754.5 523.5,-773.5"/>
<text text-anchor="middle" x="462.5" y="-761.5" font-family="Helvetica,sans-Serif" font-size="10.00">ShowExampleAppLog</text>
</a>
</g>
</g>
<!-- Node15&#45;&gt;Node19 -->
<g id="edge53" class="edge">
<title>Node15&#45;&gt;Node19</title>
<path fill="none" stroke="#63b8ff" d="M845.56,-378.8C830.85,-382.03 815.76,-388.25 806,-400 751.38,-465.76 833.21,-725.45 770,-783 688,-857.65 536.91,-798.45 483.14,-773.63"/>
<polygon fill="#63b8ff" stroke="#63b8ff" points="846.38,-382.21 855.62,-377.02 845.16,-375.32 846.38,-382.21"/>
</g>
<!-- Node20 -->
<g id="node20" class="node">
<title>Node20</title>
<g id="a_node20"><a xlink:href="classmtgb_1_1ImGuiRenderer.html#a725b57c53e525ab8e63e305f7898bae4" target="_top" xlink:title=" ">
<polygon fill="white" stroke="#666666" points="755,-105.5 609,-105.5 609,-86.5 755,-86.5 755,-105.5"/>
<text text-anchor="middle" x="682" y="-93.5" font-family="Helvetica,sans-Serif" font-size="10.00">mtgb::ImGuiRenderer::End</text>
</a>
</g>
</g>
<!-- Node15&#45;&gt;Node20 -->
<g id="edge31" class="edge">
<title>Node15&#45;&gt;Node20</title>
<path fill="none" stroke="#63b8ff" d="M846.07,-366.95C831.24,-361.75 815.94,-353.63 806,-341 742.84,-260.72 840.52,-187.9 770,-114 765.74,-109.54 760.69,-106.03 755.19,-103.29"/>
<polygon fill="#63b8ff" stroke="#63b8ff" points="845.1,-370.31 855.69,-369.96 847.2,-363.63 845.1,-370.31"/>
</g>
<!-- Node21 -->
<g id="node21" class="node">
<title>Node21</title>
<g id="a_node21"><a xlink:href="classmtgb_1_1MTImGui.html#a0ebe89de7aaa854c37e842ed796efb99" target="_top" xlink:title=" ">
<polygon fill="white" stroke="#666666" points="533.5,-66.5 391.5,-66.5 391.5,-47.5 533.5,-47.5 533.5,-66.5"/>
<text text-anchor="middle" x="462.5" y="-54.5" font-family="Helvetica,sans-Serif" font-size="10.00">mtgb::MTImGui::ShowLog</text>
</a>
</g>
</g>
<!-- Node15&#45;&gt;Node21 -->
<g id="edge61" class="edge">
<title>Node15&#45;&gt;Node21</title>
<path fill="none" stroke="#63b8ff" d="M846.28,-367.19C831.32,-362.01 815.88,-353.84 806,-341 733.79,-247.14 856.63,-157.74 770,-77 736.94,-46.19 613.29,-47.41 533.51,-51.75"/>
<polygon fill="#63b8ff" stroke="#63b8ff" points="845.4,-370.58 855.98,-370.18 847.46,-363.89 845.4,-370.58"/>
</g>
<!-- Node24 -->
<g id="node24" class="node">
<title>Node24</title>
<g id="a_node24"><a xlink:href="namespaceImGui.html#ac297462e33309d0540fa459bccdc9304" target="_top" xlink:title=" ">
<polygon fill="white" stroke="#666666" points="535.5,-721.5 389.5,-721.5 389.5,-702.5 535.5,-702.5 535.5,-721.5"/>
<text text-anchor="middle" x="462.5" y="-709.5" font-family="Helvetica,sans-Serif" font-size="10.00">ImGui::ShowAboutWindow</text>
</a>
</g>
</g>
<!-- Node15&#45;&gt;Node24 -->
<g id="edge36" class="edge">
<title>Node15&#45;&gt;Node24</title>
<path fill="none" stroke="#63b8ff" d="M845.79,-379C831.1,-382.24 815.97,-388.42 806,-400 724.73,-494.43 858.9,-590.71 770,-678 699.14,-747.58 570.04,-734.18 504.31,-721.52"/>
<polygon fill="#63b8ff" stroke="#63b8ff" points="846.59,-382.41 855.82,-377.19 845.36,-375.52 846.59,-382.41"/>
</g>
<!-- Node25 -->
<g id="node25" class="node">
<title>Node25</title>
<g id="a_node25"><a xlink:href="imgui__demo_8cpp.html#a38c9b50749061ff83a0ebf3137c00174" target="_top" xlink:title=" ">
<polygon fill="white" stroke="#666666" points="542,-670.5 383,-670.5 383,-651.5 542,-651.5 542,-670.5"/>
<text text-anchor="middle" x="462.5" y="-658.5" font-family="Helvetica,sans-Serif" font-size="10.00">ShowExampleAppAutoResize</text>
</a>
</g>
</g>
<!-- Node15&#45;&gt;Node25 -->
<g id="edge39" class="edge">
<title>Node15&#45;&gt;Node25</title>
<path fill="none" stroke="#63b8ff" d="M845.91,-379.1C831.24,-382.35 816.08,-388.52 806,-400 734.56,-481.39 849.69,-567.67 770,-641 694.27,-710.69 558.52,-686.67 496.29,-670.62"/>
<polygon fill="#63b8ff" stroke="#63b8ff" points="846.71,-382.52 855.93,-377.29 845.46,-375.63 846.71,-382.52"/>
</g>
<!-- Node26 -->
<g id="node26" class="node">
<title>Node26</title>
<g id="a_node26"><a xlink:href="imgui__demo_8cpp.html#a4f7b0b016c2ffd33836c3bdcf78ed97b" target="_top" xlink:title=" ">
<polygon fill="white" stroke="#666666" points="544,-626 381,-626 381,-596 544,-596 544,-626"/>
<text text-anchor="start" x="389" y="-614" font-family="Helvetica,sans-Serif" font-size="10.00">ShowExampleAppConstrained</text>
<text text-anchor="middle" x="462.5" y="-603" font-family="Helvetica,sans-Serif" font-size="10.00">Resize</text>
</a>
</g>
</g>
<!-- Node15&#45;&gt;Node26 -->
<g id="edge41" class="edge">
<title>Node15&#45;&gt;Node26</title>
<path fill="none" stroke="#63b8ff" d="M845.65,-379.26C831.09,-382.54 816.08,-388.68 806,-400 740.39,-473.65 845.19,-555.16 770,-619 737.18,-646.86 623.48,-636.32 544.2,-624.78"/>
<polygon fill="#63b8ff" stroke="#63b8ff" points="846.39,-382.69 855.59,-377.42 845.12,-375.8 846.39,-382.69"/>
</g>
<!-- Node27 -->
<g id="node27" class="node">
<title>Node27</title>
<g id="a_node27"><a xlink:href="imgui__demo_8cpp.html#a0729207a285af6ef57ce5a31d1a60348" target="_top" xlink:title=" ">
<polygon fill="white" stroke="#666666" points="558,-564.5 367,-564.5 367,-545.5 558,-545.5 558,-564.5"/>
<text text-anchor="middle" x="462.5" y="-552.5" font-family="Helvetica,sans-Serif" font-size="10.00">ShowExampleAppCustomRendering</text>
</a>
</g>
</g>
<!-- Node15&#45;&gt;Node27 -->
<g id="edge43" class="edge">
<title>Node15&#45;&gt;Node27</title>
<path fill="none" stroke="#63b8ff" d="M845.78,-379.39C831.24,-382.68 816.2,-388.79 806,-400 747.26,-464.53 837.12,-537.24 770,-593 709.83,-642.98 671.44,-604.05 594,-593 556.39,-587.64 514.47,-573.99 488.54,-564.6"/>
<polygon fill="#63b8ff" stroke="#63b8ff" points="846.52,-382.81 855.71,-377.53 845.24,-375.93 846.52,-382.81"/>
</g>
<!-- Node28 -->
<g id="node28" class="node">
<title>Node28</title>
<g id="a_node28"><a xlink:href="imgui__demo_8cpp.html#ae18f1dc3d5298b314080b35f6c20d781" target="_top" xlink:title=" ">
<polygon fill="white" stroke="#666666" points="541.5,-520.5 383.5,-520.5 383.5,-501.5 541.5,-501.5 541.5,-520.5"/>
<text text-anchor="middle" x="462.5" y="-508.5" font-family="Helvetica,sans-Serif" font-size="10.00">ShowExampleAppDockSpace</text>
</a>
</g>
</g>
<!-- Node15&#45;&gt;Node28 -->
<g id="edge45" class="edge">
<title>Node15&#45;&gt;Node28</title>
<path fill="none" stroke="#63b8ff" d="M845.65,-381.1C831.67,-384.56 817.01,-390.34 806,-400 775.77,-426.51 802.58,-459.43 770,-483 734.77,-508.49 620.46,-512.88 541.85,-512.71"/>
<polygon fill="#63b8ff" stroke="#63b8ff" points="846.6,-384.47 855.65,-378.96 845.14,-377.63 846.6,-384.47"/>
</g>
<!-- Node29 -->
<g id="node29" class="node">
<title>Node29</title>
<g id="a_node29"><a xlink:href="imgui__demo_8cpp.html#aa9e4f5130b74080ea2d97916a91b3b3c" target="_top" xlink:title=" ">
<polygon fill="white" stroke="#666666" points="542.5,-483.5 382.5,-483.5 382.5,-464.5 542.5,-464.5 542.5,-483.5"/>
<text text-anchor="middle" x="462.5" y="-471.5" font-family="Helvetica,sans-Serif" font-size="10.00">ShowExampleAppDocuments</text>
</a>
</g>
</g>
<!-- Node15&#45;&gt;Node29 -->
<g id="edge47" class="edge">
<title>Node15&#45;&gt;Node29</title>
<path fill="none" stroke="#63b8ff" d="M846.04,-382.65C832.33,-386.21 817.74,-391.66 806,-400 783.37,-416.06 794.14,-437.32 770,-451 692.47,-494.93 585.66,-491.33 520.76,-483.52"/>
<polygon fill="#63b8ff" stroke="#63b8ff" points="846.87,-386.05 855.81,-380.37 845.28,-379.23 846.87,-386.05"/>
</g>
<!-- Node30 -->
<g id="node30" class="node">
<title>Node30</title>
<g id="a_node30"><a xlink:href="imgui__demo_8cpp.html#a2f38052447680c83c0028e4f21f0a2e6" target="_top" xlink:title=" ">
<polygon fill="white" stroke="#666666" points="759,-441.5 605,-441.5 605,-422.5 759,-422.5 759,-441.5"/>
<text text-anchor="middle" x="682" y="-429.5" font-family="Helvetica,sans-Serif" font-size="10.00">ShowExampleAppFullscreen</text>
</a>
</g>
</g>
<!-- Node15&#45;&gt;Node30 -->
<g id="edge49" class="edge">
<title>Node15&#45;&gt;Node30</title>
<path fill="none" stroke="#63b8ff" d="M846.19,-387.69C833.18,-391.38 818.94,-395.64 806,-400 789.73,-405.48 786.46,-409.13 770,-414 759.2,-417.19 747.49,-420.03 736.26,-422.45"/>
<polygon fill="#63b8ff" stroke="#63b8ff" points="847.17,-391.05 855.86,-384.98 845.28,-384.31 847.17,-391.05"/>
</g>
<!-- Node31 -->
<g id="node31" class="node">
<title>Node31</title>
<g id="a_node31"><a xlink:href="imgui__demo_8cpp.html#adfe8516f13b623adbf78b024efd5bb6e" target="_top" xlink:title=" ">
<polygon fill="white" stroke="#666666" points="750.5,-330.5 613.5,-330.5 613.5,-311.5 750.5,-311.5 750.5,-330.5"/>
<text text-anchor="middle" x="682" y="-318.5" font-family="Helvetica,sans-Serif" font-size="10.00">ShowExampleAppLayout</text>
</a>
</g>
</g>
<!-- Node15&#45;&gt;Node31 -->
<g id="edge51" class="edge">
<title>Node15&#45;&gt;Node31</title>
<path fill="none" stroke="#63b8ff" d="M852.03,-363.28C828.55,-355.67 797.71,-346.12 770,-339 758.2,-335.97 745.4,-333.09 733.33,-330.57"/>
<polygon fill="#63b8ff" stroke="#63b8ff" points="851.01,-366.63 861.61,-366.41 853.19,-359.98 851.01,-366.63"/>
</g>
<!-- Node32 -->
<g id="node32" class="node">
<title>Node32</title>
<g id="a_node32"><a xlink:href="imgui__demo_8cpp.html#a4dadf5e7b393795666d19af9694037cf" target="_top" xlink:title=" ">
<polygon fill="white" stroke="#666666" points="756,-293.5 608,-293.5 608,-274.5 756,-274.5 756,-293.5"/>
<text text-anchor="middle" x="682" y="-281.5" font-family="Helvetica,sans-Serif" font-size="10.00">ShowExampleAppLongText</text>
</a>
</g>
</g>
<!-- Node15&#45;&gt;Node32 -->
<g id="edge54" class="edge">
<title>Node15&#45;&gt;Node32</title>
<path fill="none" stroke="#63b8ff" d="M848.84,-362.92C834.58,-357.36 818.94,-350.05 806,-341 786.67,-327.48 790.53,-313.61 770,-302 763.96,-298.58 757.35,-295.81 750.57,-293.56"/>
<polygon fill="#63b8ff" stroke="#63b8ff" points="847.84,-366.29 858.44,-366.49 850.28,-359.73 847.84,-366.29"/>
</g>
<!-- Node33 -->
<g id="node33" class="node">
<title>Node33</title>
<g id="a_node33"><a xlink:href="imgui__demo_8cpp.html#a746628697dff9d8d5e352436c96633c9" target="_top" xlink:title=" ">
<polygon fill="white" stroke="#666666" points="769,-404.5 595,-404.5 595,-385.5 769,-385.5 769,-404.5"/>
<text text-anchor="middle" x="682" y="-392.5" font-family="Helvetica,sans-Serif" font-size="10.00">ShowExampleAppPropertyEditor</text>
</a>
</g>
</g>
<!-- Node15&#45;&gt;Node33 -->
<g id="edge56" class="edge">
<title>Node15&#45;&gt;Node33</title>
<path fill="none" stroke="#63b8ff" d="M845.64,-380.07C823.29,-382.12 795.4,-384.68 769.05,-387.1"/>
<polygon fill="#63b8ff" stroke="#63b8ff" points="846.18,-383.54 855.82,-379.14 845.54,-376.57 846.18,-383.54"/>
</g>
<!-- Node34 -->
<g id="node34" class="node">
<title>Node34</title>
<g id="a_node34"><a xlink:href="imgui__demo_8cpp.html#aa93cc0d732db176bbffaf106faaa0ca1" target="_top" xlink:title=" ">
<polygon fill="white" stroke="#666666" points="767,-367.5 597,-367.5 597,-348.5 767,-348.5 767,-367.5"/>
<text text-anchor="middle" x="682" y="-355.5" font-family="Helvetica,sans-Serif" font-size="10.00">ShowExampleAppWindowTitles</text>
</a>
</g>
</g>
<!-- Node15&#45;&gt;Node34 -->
<g id="edge59" class="edge">
<title>Node15&#45;&gt;Node34</title>
<path fill="none" stroke="#63b8ff" d="M845.75,-372.15C822.87,-370.16 794.18,-367.67 767.28,-365.33"/>
<polygon fill="#63b8ff" stroke="#63b8ff" points="845.55,-375.65 855.82,-373.03 846.16,-368.67 845.55,-375.65"/>
</g>
<!-- Node16&#45;&gt;Node16 -->
<g id="edge22" class="edge">
<title>Node16&#45;&gt;Node16</title>
<path fill="none" stroke="#63b8ff" d="M718.41,-576.6C713.43,-580.97 701.3,-584 682,-584 649.5,-584 637.31,-575.41 645.44,-566.28"/>
<polygon fill="#63b8ff" stroke="#63b8ff" points="721.91,-576.33 718.56,-566.28 714.91,-576.22 721.91,-576.33"/>
</g>
<!-- Node17&#45;&gt;Node6 -->
<g id="edge24" class="edge">
<title>Node17&#45;&gt;Node6</title>
<path fill="none" stroke="#63b8ff" d="M393.86,-218.43C384.3,-221.77 375.01,-226.18 367,-232 301.49,-279.54 264,-376.04 253.25,-407.12"/>
<polygon fill="#63b8ff" stroke="#63b8ff" points="394.97,-221.75 403.47,-215.43 392.88,-215.07 394.97,-221.75"/>
</g>
<!-- Node18&#45;&gt;Node19 -->
<g id="edge29" class="edge">
<title>Node18&#45;&gt;Node19</title>
<path fill="none" stroke="#63b8ff" d="M608.07,-764C580.7,-764 549.91,-764 523.81,-764"/>
<polygon fill="#63b8ff" stroke="#63b8ff" points="608.38,-767.5 618.38,-764 608.38,-760.5 608.38,-767.5"/>
</g>
<!-- Node19&#45;&gt;Node6 -->
<g id="edge30" class="edge">
<title>Node19&#45;&gt;Node6</title>
<path fill="none" stroke="#63b8ff" d="M399.36,-751.05C387.51,-746.3 376.01,-739.83 367,-731 343.31,-707.8 269.01,-476.86 253.04,-426.61"/>
<polygon fill="#63b8ff" stroke="#63b8ff" points="398.31,-754.39 408.9,-754.5 400.69,-747.81 398.31,-754.39"/>
</g>
<!-- Node20&#45;&gt;Node21 -->
<g id="edge32" class="edge">
<title>Node20&#45;&gt;Node21</title>
<path fill="none" stroke="#63b8ff" d="M617.62,-84.64C585.54,-78.88 547.03,-71.98 516.53,-66.51"/>
<polygon fill="#63b8ff" stroke="#63b8ff" points="617.33,-88.14 627.79,-86.46 618.57,-81.25 617.33,-88.14"/>
</g>
<!-- Node23 -->
<g id="node23" class="node">
<title>Node23</title>
<g id="a_node23"><a xlink:href="classmtgb_1_1MTImGui.html#aba6310f01ca3716db9817ef459b605f6" target="_top" xlink:title="ImGuiウィンドウの表示、キュー内の表示関数の一括実行、ImGuiウィンドウのEnd()までを行う">
<polygon fill="white" stroke="#666666" points="331,-104.5 167,-104.5 167,-85.5 331,-85.5 331,-104.5"/>
<text text-anchor="middle" x="249" y="-92.5" font-family="Helvetica,sans-Serif" font-size="10.00">mtgb::MTImGui::ShowWindow</text>
</a>
</g>
</g>
<!-- Node20&#45;&gt;Node23 -->
<g id="edge34" class="edge">
<title>Node20&#45;&gt;Node23</title>
<path fill="none" stroke="#63b8ff" d="M598.74,-95.81C521.85,-95.63 407.73,-95.37 331.19,-95.19"/>
<polygon fill="#63b8ff" stroke="#63b8ff" points="598.85,-99.31 608.86,-95.83 598.87,-92.31 598.85,-99.31"/>
</g>
<!-- Node22 -->
<g id="node22" class="node">
<title>Node22</title>
<g id="a_node22"><a xlink:href="classmtgb_1_1RenderSystem.html#a14e39d4590efdf77c2085b12c6f3cdf5" target="_top" xlink:title=" ">
<polygon fill="white" stroke="#666666" points="131,-110 0,-110 0,-80 131,-80 131,-110"/>
<text text-anchor="start" x="8" y="-98" font-family="Helvetica,sans-Serif" font-size="10.00">mtgb::RenderSystem</text>
<text text-anchor="middle" x="65.5" y="-87" font-family="Helvetica,sans-Serif" font-size="10.00">::RenderImGuiWindows</text>
</a>
</g>
</g>
<!-- Node21&#45;&gt;Node22 -->
<g id="edge33" class="edge">
<title>Node21&#45;&gt;Node22</title>
<path fill="none" stroke="#63b8ff" d="M381.29,-59.52C321.94,-62.03 239.2,-66.88 167,-76 155.37,-77.47 143.06,-79.44 131.19,-81.56"/>
<polygon fill="#63b8ff" stroke="#63b8ff" points="381.51,-63.02 391.35,-59.11 381.22,-56.02 381.51,-63.02"/>
</g>
<!-- Node23&#45;&gt;Node22 -->
<g id="edge35" class="edge">
<title>Node23&#45;&gt;Node22</title>
<path fill="none" stroke="#63b8ff" d="M156.66,-95C148,-95 139.35,-95 131.02,-95"/>
<polygon fill="#63b8ff" stroke="#63b8ff" points="156.81,-98.5 166.81,-95 156.81,-91.5 156.81,-98.5"/>
</g>
<!-- Node24&#45;&gt;Node6 -->
<g id="edge37" class="edge">
<title>Node24&#45;&gt;Node6</title>
<path fill="none" stroke="#63b8ff" d="M399.41,-699.16C387.66,-694.58 376.19,-688.38 367,-680 285.76,-605.92 257.74,-464.93 251.47,-426.75"/>
<polygon fill="#63b8ff" stroke="#63b8ff" points="398.25,-702.46 408.85,-702.49 400.59,-695.86 398.25,-702.46"/>
</g>
<!-- Node25&#45;&gt;Node6 -->
<g id="edge40" class="edge">
<title>Node25&#45;&gt;Node6</title>
<path fill="none" stroke="#63b8ff" d="M389.13,-647.81C381.18,-644.46 373.6,-640.26 367,-635 294.14,-576.87 260.73,-460.65 252.25,-426.59"/>
<polygon fill="#63b8ff" stroke="#63b8ff" points="387.99,-651.12 398.59,-651.37 390.46,-644.57 387.99,-651.12"/>
</g>
<!-- Node26&#45;&gt;Node6 -->
<g id="edge42" class="edge">
<title>Node26&#45;&gt;Node6</title>
<path fill="none" stroke="#63b8ff" d="M398.47,-592.03C387.39,-587.14 376.41,-581.18 367,-574 310.52,-530.9 268.28,-453.53 254.67,-426.57"/>
<polygon fill="#63b8ff" stroke="#63b8ff" points="397.19,-595.28 407.77,-595.88 399.87,-588.82 397.19,-595.28"/>
</g>
<!-- Node27&#45;&gt;Node6 -->
<g id="edge44" class="edge">
<title>Node27&#45;&gt;Node6</title>
<path fill="none" stroke="#63b8ff" d="M396.43,-542.49C386.23,-539.22 376.07,-535.12 367,-530 317.55,-502.13 273.63,-448.36 257.03,-426.55"/>
<polygon fill="#63b8ff" stroke="#63b8ff" points="395.6,-545.9 406.18,-545.39 397.59,-539.19 395.6,-545.9"/>
</g>
<!-- Node28&#45;&gt;Node6 -->
<g id="edge46" class="edge">
<title>Node28&#45;&gt;Node6</title>
<path fill="none" stroke="#63b8ff" d="M384.06,-498.82C378.21,-497.13 372.46,-495.19 367,-493 324.75,-476.02 281.45,-442.99 261.44,-426.64"/>
<polygon fill="#63b8ff" stroke="#63b8ff" points="383.41,-502.27 393.97,-501.47 385.21,-495.51 383.41,-502.27"/>
</g>
<!-- Node29&#45;&gt;Node6 -->
<g id="edge48" class="edge">
<title>Node29&#45;&gt;Node6</title>
<path fill="none" stroke="#63b8ff" d="M412.88,-461.91C398.12,-458.17 381.88,-453.99 367,-450 338.56,-442.38 306.37,-433.27 282.97,-426.55"/>
<polygon fill="#63b8ff" stroke="#63b8ff" points="412.27,-465.37 422.82,-464.42 413.98,-458.58 412.27,-465.37"/>
</g>
<!-- Node30&#45;&gt;Node6 -->
<g id="edge50" class="edge">
<title>Node30&#45;&gt;Node6</title>
<path fill="none" stroke="#63b8ff" d="M594.89,-429C514.92,-426.22 397.2,-422.12 322.08,-419.51"/>
<polygon fill="#63b8ff" stroke="#63b8ff" points="594.82,-432.5 604.94,-429.35 595.07,-425.51 594.82,-432.5"/>
</g>
<!-- Node31&#45;&gt;Node6 -->
<g id="edge52" class="edge">
<title>Node31&#45;&gt;Node6</title>
<path fill="none" stroke="#63b8ff" d="M603.21,-327.7C539,-334.46 445.94,-347.11 367,-369 331.46,-378.86 292.18,-396.45 269.37,-407.38"/>
<polygon fill="#63b8ff" stroke="#63b8ff" points="603.67,-331.17 613.26,-326.67 602.95,-324.21 603.67,-331.17"/>
</g>
<!-- Node32&#45;&gt;Node6 -->
<g id="edge55" class="edge">
<title>Node32&#45;&gt;Node6</title>
<path fill="none" stroke="#63b8ff" d="M597.67,-285.16C532.63,-288.64 441.18,-299.3 367,-330 321.63,-348.78 277.83,-389.06 259.28,-407.47"/>
<polygon fill="#63b8ff" stroke="#63b8ff" points="598.06,-288.65 607.88,-284.66 597.72,-281.66 598.06,-288.65"/>
</g>
<!-- Node33&#45;&gt;Node6 -->
<g id="edge57" class="edge">
<title>Node33&#45;&gt;Node6</title>
<path fill="none" stroke="#63b8ff" d="M584.79,-399.91C505.28,-403.97 394.12,-409.64 322.1,-413.32"/>
<polygon fill="#63b8ff" stroke="#63b8ff" points="585.01,-403.4 594.82,-399.4 584.65,-396.41 585.01,-403.4"/>
</g>
<!-- Node34&#45;&gt;Node6 -->
<g id="edge60" class="edge">
<title>Node34&#45;&gt;Node6</title>
<path fill="none" stroke="#63b8ff" d="M586.67,-368.58C524.24,-375.86 440.61,-386.14 367,-397 345.9,-400.11 322.74,-403.98 302.63,-407.48"/>
<polygon fill="#63b8ff" stroke="#63b8ff" points="587.37,-372.02 596.9,-367.39 586.56,-365.07 587.37,-372.02"/>
</g>
<!-- Node36 -->
<g id="node36" class="node">
<title>Node36</title>
<g id="a_node36"><a xlink:href="namespaceImGui.html#a246c37da45e88a12ade440a0feacb4ee" target="_top" xlink:title=" ">
<polygon fill="white" stroke="#666666" points="732.5,-935.5 631.5,-935.5 631.5,-916.5 732.5,-916.5 732.5,-935.5"/>
<text text-anchor="middle" x="682" y="-923.5" font-family="Helvetica,sans-Serif" font-size="10.00">ImGui::EndFrame</text>
</a>
</g>
</g>
<!-- Node35&#45;&gt;Node36 -->
<g id="edge63" class="edge">
<title>Node35&#45;&gt;Node36</title>
<path fill="none" stroke="#63b8ff" d="M812.39,-486.33C810.08,-488.36 807.93,-490.58 806,-493 753.73,-558.67 813.38,-797.14 770,-869 756.19,-891.88 729.27,-907.36 709.01,-916.34"/>
<polygon fill="#63b8ff" stroke="#63b8ff" points="814.85,-488.88 820.86,-480.15 810.72,-483.22 814.85,-488.88"/>
</g>
<!-- Node37 -->
<g id="node37" class="node">
<title>Node37</title>
<g id="a_node37"><a xlink:href="namespaceImGui.html#ab51a164f547317c16c441f1599e3946d" target="_top" xlink:title=" ">
<polygon fill="white" stroke="#666666" points="505.5,-913.5 419.5,-913.5 419.5,-894.5 505.5,-894.5 505.5,-913.5"/>
<text text-anchor="middle" x="462.5" y="-901.5" font-family="Helvetica,sans-Serif" font-size="10.00">ImGui::Render</text>
</a>
</g>
</g>
<!-- Node36&#45;&gt;Node37 -->
<g id="edge64" class="edge">
<title>Node36&#45;&gt;Node37</title>
<path fill="none" stroke="#63b8ff" d="M621.29,-919.96C584.6,-916.25 538.47,-911.58 505.59,-908.26"/>
<polygon fill="#63b8ff" stroke="#63b8ff" points="621.07,-923.46 631.37,-920.98 621.78,-916.49 621.07,-923.46"/>
</g>
<!-- Node38 -->
<g id="node38" class="node">
<title>Node38</title>
<g id="a_node38"><a xlink:href="classmtgb_1_1ImGuiRenderer.html#a8659d92cdaecc531688232b504e8c637" target="_top" xlink:title=" ">
<polygon fill="white" stroke="#666666" points="310,-695 188,-695 188,-665 310,-665 310,-695"/>
<text text-anchor="start" x="196" y="-683" font-family="Helvetica,sans-Serif" font-size="10.00">mtgb::ImGuiRenderer</text>
<text text-anchor="middle" x="249" y="-672" font-family="Helvetica,sans-Serif" font-size="10.00">::EndFrame</text>
</a>
</g>
</g>
<!-- Node37&#45;&gt;Node38 -->
<g id="edge65" class="edge">
<title>Node37&#45;&gt;Node38</title>
<path fill="none" stroke="#63b8ff" d="M415.91,-891.04C399.27,-884.76 381.1,-875.93 367,-864 308.92,-814.84 269.92,-729.45 255.84,-695.02"/>
<polygon fill="#63b8ff" stroke="#63b8ff" points="414.89,-894.39 425.48,-894.45 417.24,-887.8 414.89,-894.39"/>
</g>
<!-- Node38&#45;&gt;Node22 -->
<g id="edge66" class="edge">
<title>Node38&#45;&gt;Node22</title>
<path fill="none" stroke="#63b8ff" d="M239.52,-655.38C224.46,-611.45 192.26,-516.64 167,-436 127.7,-310.55 84.22,-157.79 70.73,-110.01"/>
<polygon fill="#63b8ff" stroke="#63b8ff" points="236.24,-656.6 242.8,-664.92 242.86,-654.33 236.24,-656.6"/>
</g>
<!-- Node39&#45;&gt;Node13 -->
<g id="edge68" class="edge">
<title>Node39&#45;&gt;Node13</title>
<path fill="none" stroke="#63b8ff" d="M1015.76,-517C1002.93,-517 989.38,-517 976.14,-517"/>
<polygon fill="#63b8ff" stroke="#63b8ff" points="1015.87,-520.5 1025.87,-517 1015.87,-513.5 1015.87,-520.5"/>
</g>
</g>
</svg>
