<?xml version="1.0" encoding="UTF-8" standalone="no"?>
<!DOCTYPE svg PUBLIC "-//W3C//DTD SVG 1.1//EN"
 "http://www.w3.org/Graphics/SVG/1.1/DTD/svg11.dtd">
<!-- Generated by graphviz version 2.43.0 (0)
 -->
<!-- Title: ImGui::StyleColorsLight Pages: 1 -->
<svg width="269pt" height="64pt"
 viewBox="0.00 0.00 269.00 64.00" xmlns="http://www.w3.org/2000/svg" xmlns:xlink="http://www.w3.org/1999/xlink">
<g id="graph0" class="graph" transform="scale(1 1) rotate(0) translate(4 60)">
<title>ImGui::StyleColorsLight</title>
<!-- Node1 -->
<g id="node1" class="node">
<title>Node1</title>
<g id="a_node1"><a xlink:title=" ">
<polygon fill="#999999" stroke="#666666" points="131,-37 0,-37 0,-18 131,-18 131,-37"/>
<text text-anchor="middle" x="65.5" y="-25" font-family="Helvetica,sans-Serif" font-size="10.00">ImGui::StyleColorsLight</text>
</a>
</g>
</g>
<!-- Node2 -->
<g id="node2" class="node">
<title>Node2</title>
<g id="a_node2"><a xlink:href="namespaceImGui.html#abafef4bb3e3654efd96a47b2e22870a7" target="_top" xlink:title=" ">
<polygon fill="white" stroke="#666666" points="261,-56 167,-56 167,-37 261,-37 261,-56"/>
<text text-anchor="middle" x="214" y="-44" font-family="Helvetica,sans-Serif" font-size="10.00">ImGui::GetStyle</text>
</a>
</g>
</g>
<!-- Node1&#45;&gt;Node2 -->
<g id="edge1" class="edge">
<title>Node1&#45;&gt;Node2</title>
<path fill="none" stroke="#63b8ff" d="M131.18,-35.89C139.68,-36.99 148.34,-38.11 156.69,-39.2"/>
<polygon fill="#63b8ff" stroke="#63b8ff" points="156.32,-42.68 166.68,-40.49 157.22,-35.74 156.32,-42.68"/>
</g>
<!-- Node3 -->
<g id="node3" class="node">
<title>Node3</title>
<g id="a_node3"><a xlink:href="imgui__internal_8h.html#a1d7813429922346e44eebd82d13f777c" target="_top" xlink:title=" ">
<polygon fill="white" stroke="#666666" points="239,-19 189,-19 189,0 239,0 239,-19"/>
<text text-anchor="middle" x="214" y="-7" font-family="Helvetica,sans-Serif" font-size="10.00">ImLerp</text>
</a>
</g>
</g>
<!-- Node1&#45;&gt;Node3 -->
<g id="edge2" class="edge">
<title>Node1&#45;&gt;Node3</title>
<path fill="none" stroke="#63b8ff" d="M131.18,-19.55C147.55,-17.54 164.5,-15.46 178.7,-13.71"/>
<polygon fill="#63b8ff" stroke="#63b8ff" points="179.46,-17.15 188.96,-12.45 178.61,-10.2 179.46,-17.15"/>
</g>
</g>
</svg>
