<?xml version="1.0" encoding="UTF-8" standalone="no"?>
<!DOCTYPE svg PUBLIC "-//W3C//DTD SVG 1.1//EN"
 "http://www.w3.org/Graphics/SVG/1.1/DTD/svg11.dtd">
<!-- Generated by graphviz version 2.43.0 (0)
 -->
<!-- Title: IMGUIZMO_NAMESPACE::ComputeTripodAxisAndVisibility Pages: 1 -->
<svg width="736pt" height="312pt"
 viewBox="0.00 0.00 736.00 311.50" xmlns="http://www.w3.org/2000/svg" xmlns:xlink="http://www.w3.org/1999/xlink">
<g id="graph0" class="graph" transform="scale(1 1) rotate(0) translate(4 307.5)">
<title>IMGUIZMO_NAMESPACE::ComputeTripodAxisAndVisibility</title>
<!-- Node1 -->
<g id="node1" class="node">
<title>Node1</title>
<g id="a_node1"><a xlink:title=" ">
<polygon fill="#999999" stroke="#666666" points="179,-143 0,-143 0,-113 179,-113 179,-143"/>
<text text-anchor="start" x="8" y="-131" font-family="Helvetica,sans-Serif" font-size="10.00">IMGUIZMO_NAMESPACE</text>
<text text-anchor="middle" x="89.5" y="-120" font-family="Helvetica,sans-Serif" font-size="10.00">::ComputeTripodAxisAndVisibility</text>
</a>
</g>
</g>
<!-- Node1&#45;&gt;Node1 -->
<g id="edge1" class="edge">
<title>Node1&#45;&gt;Node1</title>
<path fill="none" stroke="#63b8ff" d="M53.29,-143.28C45.24,-152.41 57.31,-161 89.5,-161 108.61,-161 120.63,-157.97 125.56,-153.6"/>
<polygon fill="#63b8ff" stroke="#63b8ff" points="129.06,-153.33 125.71,-143.28 122.06,-153.22 129.06,-153.33"/>
</g>
<!-- Node2 -->
<g id="node2" class="node">
<title>Node2</title>
<g id="a_node2"><a xlink:href="structIMGUIZMO__NAMESPACE_1_1Context.html#a8591d37169b211009ed2bccc5abae69f" target="_top" xlink:title=" ">
<polygon fill="white" stroke="#666666" points="364.5,-253 229.5,-253 229.5,-223 364.5,-223 364.5,-253"/>
<text text-anchor="start" x="237.5" y="-241" font-family="Helvetica,sans-Serif" font-size="10.00">IMGUIZMO_NAMESPACE</text>
<text text-anchor="middle" x="297" y="-230" font-family="Helvetica,sans-Serif" font-size="10.00">::Context::GetCurrentID</text>
</a>
</g>
</g>
<!-- Node1&#45;&gt;Node2 -->
<g id="edge2" class="edge">
<title>Node1&#45;&gt;Node2</title>
<path fill="none" stroke="#63b8ff" d="M118.64,-143.06C155.05,-162.55 218.57,-196.55 258.89,-218.14"/>
<polygon fill="#63b8ff" stroke="#63b8ff" points="257.4,-221.31 267.87,-222.94 260.7,-215.14 257.4,-221.31"/>
</g>
<!-- Node8 -->
<g id="node8" class="node">
<title>Node8</title>
<g id="a_node8"><a xlink:href="namespaceIMGUIZMO__NAMESPACE.html#a3aaa59607812d70293d9534a06412e99" target="_top" xlink:title=" ">
<polygon fill="white" stroke="#666666" points="364.5,-113 229.5,-113 229.5,-83 364.5,-83 364.5,-113"/>
<text text-anchor="start" x="237.5" y="-101" font-family="Helvetica,sans-Serif" font-size="10.00">IMGUIZMO_NAMESPACE</text>
<text text-anchor="middle" x="297" y="-90" font-family="Helvetica,sans-Serif" font-size="10.00">::GetParallelogram</text>
</a>
</g>
</g>
<!-- Node1&#45;&gt;Node8 -->
<g id="edge8" class="edge">
<title>Node1&#45;&gt;Node8</title>
<path fill="none" stroke="#63b8ff" d="M179.14,-115.06C192.56,-113.1 206.3,-111.09 219.44,-109.18"/>
<polygon fill="#63b8ff" stroke="#63b8ff" points="219.96,-112.64 229.34,-107.73 218.94,-105.71 219.96,-112.64"/>
</g>
<!-- Node10 -->
<g id="node10" class="node">
<title>Node10</title>
<g id="a_node10"><a xlink:href="namespaceIMGUIZMO__NAMESPACE.html#a76324649a802fbc72ff34c3256822518" target="_top" xlink:title=" ">
<polygon fill="white" stroke="#666666" points="550,-174 415,-174 415,-144 550,-144 550,-174"/>
<text text-anchor="start" x="423" y="-162" font-family="Helvetica,sans-Serif" font-size="10.00">IMGUIZMO_NAMESPACE</text>
<text text-anchor="middle" x="482.5" y="-151" font-family="Helvetica,sans-Serif" font-size="10.00">::makeVect</text>
</a>
</g>
</g>
<!-- Node1&#45;&gt;Node10 -->
<g id="edge19" class="edge">
<title>Node1&#45;&gt;Node10</title>
<path fill="none" stroke="#63b8ff" d="M179.23,-136.83C191.25,-137.94 203.42,-139.03 215,-140 278.94,-145.36 351.6,-150.48 404.88,-154.05"/>
<polygon fill="#63b8ff" stroke="#63b8ff" points="404.72,-157.54 414.93,-154.72 405.19,-150.56 404.72,-157.54"/>
</g>
<!-- Node14 -->
<g id="node14" class="node">
<title>Node14</title>
<g id="a_node14"><a xlink:href="namespaceIMGUIZMO__NAMESPACE.html#a1f1f0d318a148c1247edd11ac9dfc7ec" target="_top" xlink:title=" ">
<polygon fill="white" stroke="#666666" points="379,-39 215,-39 215,-9 379,-9 379,-39"/>
<text text-anchor="start" x="223" y="-27" font-family="Helvetica,sans-Serif" font-size="10.00">IMGUIZMO_NAMESPACE</text>
<text text-anchor="middle" x="297" y="-16" font-family="Helvetica,sans-Serif" font-size="10.00">::GetSegmentLengthClipSpace</text>
</a>
</g>
</g>
<!-- Node1&#45;&gt;Node14 -->
<g id="edge16" class="edge">
<title>Node1&#45;&gt;Node14</title>
<path fill="none" stroke="#63b8ff" d="M120.38,-112.88C156.45,-94.62 217.2,-63.88 256.95,-43.76"/>
<polygon fill="#63b8ff" stroke="#63b8ff" points="258.74,-46.78 266.08,-39.14 255.58,-40.53 258.74,-46.78"/>
</g>
<!-- Node3 -->
<g id="node3" class="node">
<title>Node3</title>
<g id="a_node3"><a xlink:href="structImVector.html#a2d80e87e81b1b01143c8d8be93e6fde1" target="_top" xlink:title=" ">
<polygon fill="white" stroke="#666666" points="527,-303.5 438,-303.5 438,-284.5 527,-284.5 527,-303.5"/>
<text text-anchor="middle" x="482.5" y="-291.5" font-family="Helvetica,sans-Serif" font-size="10.00">ImVector::back</text>
</a>
</g>
</g>
<!-- Node2&#45;&gt;Node3 -->
<g id="edge3" class="edge">
<title>Node2&#45;&gt;Node3</title>
<path fill="none" stroke="#63b8ff" d="M342.56,-253.05C364.33,-260.25 390.95,-268.84 415,-276 421.47,-277.93 428.32,-279.88 435.07,-281.75"/>
<polygon fill="#63b8ff" stroke="#63b8ff" points="434.25,-285.15 444.82,-284.42 436.1,-278.4 434.25,-285.15"/>
</g>
<!-- Node4 -->
<g id="node4" class="node">
<title>Node4</title>
<g id="a_node4"><a xlink:href="structImVector.html#aa53e48a5272f4bad1099368769514ff1" target="_top" xlink:title=" ">
<polygon fill="white" stroke="#666666" points="531.5,-266.5 433.5,-266.5 433.5,-247.5 531.5,-247.5 531.5,-266.5"/>
<text text-anchor="middle" x="482.5" y="-254.5" font-family="Helvetica,sans-Serif" font-size="10.00">ImVector::empty</text>
</a>
</g>
</g>
<!-- Node2&#45;&gt;Node4 -->
<g id="edge4" class="edge">
<title>Node2&#45;&gt;Node4</title>
<path fill="none" stroke="#63b8ff" d="M364.51,-244.89C383.72,-246.88 404.53,-249.03 423.2,-250.96"/>
<polygon fill="#63b8ff" stroke="#63b8ff" points="423.03,-254.46 433.33,-252.01 423.75,-247.5 423.03,-254.46"/>
</g>
<!-- Node5 -->
<g id="node5" class="node">
<title>Node5</title>
<g id="a_node5"><a xlink:href="structImVector.html#aab5df48e0711a48bd12f3206e08c4108" target="_top" xlink:title=" ">
<polygon fill="white" stroke="#666666" points="541.5,-229.5 423.5,-229.5 423.5,-210.5 541.5,-210.5 541.5,-229.5"/>
<text text-anchor="middle" x="482.5" y="-217.5" font-family="Helvetica,sans-Serif" font-size="10.00">ImVector::push_back</text>
</a>
</g>
</g>
<!-- Node2&#45;&gt;Node5 -->
<g id="edge5" class="edge">
<title>Node2&#45;&gt;Node5</title>
<path fill="none" stroke="#63b8ff" d="M364.51,-231.48C380.32,-229.92 397.23,-228.27 413.13,-226.71"/>
<polygon fill="#63b8ff" stroke="#63b8ff" points="413.8,-230.16 423.41,-225.7 413.12,-223.19 413.8,-230.16"/>
</g>
<!-- Node6 -->
<g id="node6" class="node">
<title>Node6</title>
<g id="a_node6"><a xlink:href="structImVector.html#a3a097635d464b1b70dc7d59996a88b28" target="_top" xlink:title=" ">
<polygon fill="white" stroke="#666666" points="728,-247.5 586,-247.5 586,-228.5 728,-228.5 728,-247.5"/>
<text text-anchor="middle" x="657" y="-235.5" font-family="Helvetica,sans-Serif" font-size="10.00">ImVector::_grow_capacity</text>
</a>
</g>
</g>
<!-- Node5&#45;&gt;Node6 -->
<g id="edge6" class="edge">
<title>Node5&#45;&gt;Node6</title>
<path fill="none" stroke="#63b8ff" d="M541.9,-226.09C552.79,-227.23 564.34,-228.44 575.74,-229.63"/>
<polygon fill="#63b8ff" stroke="#63b8ff" points="575.4,-233.11 585.71,-230.67 576.13,-226.15 575.4,-233.11"/>
</g>
<!-- Node7 -->
<g id="node7" class="node">
<title>Node7</title>
<g id="a_node7"><a xlink:href="structImVector.html#a0f14f5736c3372157856eebb67123b75" target="_top" xlink:title=" ">
<polygon fill="white" stroke="#666666" points="708.5,-210.5 605.5,-210.5 605.5,-191.5 708.5,-191.5 708.5,-210.5"/>
<text text-anchor="middle" x="657" y="-198.5" font-family="Helvetica,sans-Serif" font-size="10.00">ImVector::reserve</text>
</a>
</g>
</g>
<!-- Node5&#45;&gt;Node7 -->
<g id="edge7" class="edge">
<title>Node5&#45;&gt;Node7</title>
<path fill="none" stroke="#63b8ff" d="M541.9,-213.57C559.14,-211.67 578.04,-209.59 595.42,-207.67"/>
<polygon fill="#63b8ff" stroke="#63b8ff" points="595.89,-211.14 605.45,-206.57 595.12,-204.18 595.89,-211.14"/>
</g>
<!-- Node8&#45;&gt;Node8 -->
<g id="edge10" class="edge">
<title>Node8&#45;&gt;Node8</title>
<path fill="none" stroke="#63b8ff" d="M264.66,-113.28C257.47,-122.41 268.25,-131 297,-131 314.07,-131 324.81,-127.97 329.21,-123.6"/>
<polygon fill="#63b8ff" stroke="#63b8ff" points="332.71,-123.32 329.34,-113.28 325.71,-123.23 332.71,-123.32"/>
</g>
<!-- Node9 -->
<g id="node9" class="node">
<title>Node9</title>
<g id="a_node9"><a xlink:href="structIMGUIZMO__NAMESPACE_1_1vec__t.html#ae78d8d568c3de60c572a5fa74fe8b38b" target="_top" xlink:title=" ">
<polygon fill="white" stroke="#666666" points="550,-126 415,-126 415,-96 550,-96 550,-126"/>
<text text-anchor="start" x="423" y="-114" font-family="Helvetica,sans-Serif" font-size="10.00">IMGUIZMO_NAMESPACE</text>
<text text-anchor="middle" x="482.5" y="-103" font-family="Helvetica,sans-Serif" font-size="10.00">::vec_t::Dot3</text>
</a>
</g>
</g>
<!-- Node8&#45;&gt;Node9 -->
<g id="edge9" class="edge">
<title>Node8&#45;&gt;Node9</title>
<path fill="none" stroke="#63b8ff" d="M364.51,-102.71C377.58,-103.64 391.4,-104.62 404.78,-105.57"/>
<polygon fill="#63b8ff" stroke="#63b8ff" points="404.69,-109.07 414.91,-106.28 405.18,-102.08 404.69,-109.07"/>
</g>
<!-- Node8&#45;&gt;Node10 -->
<g id="edge11" class="edge">
<title>Node8&#45;&gt;Node10</title>
<path fill="none" stroke="#63b8ff" d="M343.36,-113.08C368.6,-121.47 400.19,-131.97 426.79,-140.81"/>
<polygon fill="#63b8ff" stroke="#63b8ff" points="425.75,-144.16 436.34,-143.99 427.96,-137.51 425.75,-144.16"/>
</g>
<!-- Node11 -->
<g id="node11" class="node">
<title>Node11</title>
<g id="a_node11"><a xlink:href="structIMGUIZMO__NAMESPACE_1_1vec__t.html#a2e18e8518186c392795c4cd17a4efd62" target="_top" xlink:title=" ">
<polygon fill="white" stroke="#666666" points="550,-78 415,-78 415,-48 550,-48 550,-78"/>
<text text-anchor="start" x="423" y="-66" font-family="Helvetica,sans-Serif" font-size="10.00">IMGUIZMO_NAMESPACE</text>
<text text-anchor="middle" x="482.5" y="-55" font-family="Helvetica,sans-Serif" font-size="10.00">::vec_t::Normalize</text>
</a>
</g>
</g>
<!-- Node8&#45;&gt;Node11 -->
<g id="edge13" class="edge">
<title>Node8&#45;&gt;Node11</title>
<path fill="none" stroke="#63b8ff" d="M364.51,-85.31C377.58,-82.82 391.4,-80.18 404.78,-77.63"/>
<polygon fill="#63b8ff" stroke="#63b8ff" points="405.74,-81.01 414.91,-75.7 404.43,-74.14 405.74,-81.01"/>
</g>
<!-- Node13 -->
<g id="node13" class="node">
<title>Node13</title>
<g id="a_node13"><a xlink:href="structIMGUIZMO__NAMESPACE_1_1vec__t.html#a4061572fc192949bfc7a7b166feee3ad" target="_top" xlink:title=" ">
<polygon fill="white" stroke="#666666" points="550,-30 415,-30 415,0 550,0 550,-30"/>
<text text-anchor="start" x="423" y="-18" font-family="Helvetica,sans-Serif" font-size="10.00">IMGUIZMO_NAMESPACE</text>
<text text-anchor="middle" x="482.5" y="-7" font-family="Helvetica,sans-Serif" font-size="10.00">::vec_t::TransformPoint</text>
</a>
</g>
</g>
<!-- Node8&#45;&gt;Node13 -->
<g id="edge15" class="edge">
<title>Node8&#45;&gt;Node13</title>
<path fill="none" stroke="#63b8ff" d="M342.28,-82.97C354.49,-78.17 367.52,-72.42 379,-66 396.46,-56.24 397.4,-48.5 415,-39 418.21,-37.27 421.58,-35.61 425.02,-34.04"/>
<polygon fill="#63b8ff" stroke="#63b8ff" points="426.42,-37.24 434.23,-30.08 423.66,-30.81 426.42,-37.24"/>
</g>
<!-- Node10&#45;&gt;Node10 -->
<g id="edge12" class="edge">
<title>Node10&#45;&gt;Node10</title>
<path fill="none" stroke="#63b8ff" d="M451.91,-174.28C445.12,-183.41 455.31,-192 482.5,-192 498.64,-192 508.79,-188.97 512.96,-184.6"/>
<polygon fill="#63b8ff" stroke="#63b8ff" points="516.46,-184.32 513.09,-174.28 509.46,-184.23 516.46,-184.32"/>
</g>
<!-- Node12 -->
<g id="node12" class="node">
<title>Node12</title>
<g id="a_node12"><a xlink:href="structIMGUIZMO__NAMESPACE_1_1vec__t.html#a16d93d6902554c6136645acca3237f3e" target="_top" xlink:title=" ">
<polygon fill="white" stroke="#666666" points="724.5,-78 589.5,-78 589.5,-48 724.5,-48 724.5,-78"/>
<text text-anchor="start" x="597.5" y="-66" font-family="Helvetica,sans-Serif" font-size="10.00">IMGUIZMO_NAMESPACE</text>
<text text-anchor="middle" x="657" y="-55" font-family="Helvetica,sans-Serif" font-size="10.00">::vec_t::Length</text>
</a>
</g>
</g>
<!-- Node11&#45;&gt;Node12 -->
<g id="edge14" class="edge">
<title>Node11&#45;&gt;Node12</title>
<path fill="none" stroke="#63b8ff" d="M550.19,-63C559.76,-63 569.67,-63 579.41,-63"/>
<polygon fill="#63b8ff" stroke="#63b8ff" points="579.48,-66.5 589.48,-63 579.48,-59.5 579.48,-66.5"/>
</g>
<!-- Node14&#45;&gt;Node13 -->
<g id="edge18" class="edge">
<title>Node14&#45;&gt;Node13</title>
<path fill="none" stroke="#63b8ff" d="M379.02,-20.03C387.55,-19.61 396.21,-19.18 404.69,-18.77"/>
<polygon fill="#63b8ff" stroke="#63b8ff" points="405.12,-22.25 414.93,-18.26 404.77,-15.26 405.12,-22.25"/>
</g>
<!-- Node14&#45;&gt;Node14 -->
<g id="edge17" class="edge">
<title>Node14&#45;&gt;Node14</title>
<path fill="none" stroke="#63b8ff" d="M264.66,-39.28C257.47,-48.41 268.25,-57 297,-57 314.07,-57 324.81,-53.97 329.21,-49.6"/>
<polygon fill="#63b8ff" stroke="#63b8ff" points="332.71,-49.32 329.34,-39.28 325.71,-49.23 332.71,-49.32"/>
</g>
</g>
</svg>
