<?xml version="1.0" encoding="UTF-8" standalone="no"?>
<!DOCTYPE svg PUBLIC "-//W3C//DTD SVG 1.1//EN"
 "http://www.w3.org/Graphics/SVG/1.1/DTD/svg11.dtd">
<!-- Generated by graphviz version 2.43.0 (0)
 -->
<!-- Title: ImGui::GetKeyMagnitude2d Pages: 1 -->
<svg width="503pt" height="76pt"
 viewBox="0.00 0.00 503.00 75.50" xmlns="http://www.w3.org/2000/svg" xmlns:xlink="http://www.w3.org/1999/xlink">
<g id="graph0" class="graph" transform="scale(1 1) rotate(0) translate(4 71.5)">
<title>ImGui::GetKeyMagnitude2d</title>
<!-- Node1 -->
<g id="node1" class="node">
<title>Node1</title>
<g id="a_node1"><a xlink:title=" ">
<polygon fill="#999999" stroke="#666666" points="151,-40 0,-40 0,-21 151,-21 151,-40"/>
<text text-anchor="middle" x="75.5" y="-28" font-family="Helvetica,sans-Serif" font-size="10.00">ImGui::GetKeyMagnitude2d</text>
</a>
</g>
</g>
<!-- Node2 -->
<g id="node2" class="node">
<title>Node2</title>
<g id="a_node2"><a xlink:href="namespaceImGui.html#a6d32d70d6beb45537b605508b78216c3" target="_top" xlink:title=" ">
<polygon fill="white" stroke="#666666" points="297,-40 187,-40 187,-21 297,-21 297,-40"/>
<text text-anchor="middle" x="242" y="-28" font-family="Helvetica,sans-Serif" font-size="10.00">ImGui::GetKeyData</text>
</a>
</g>
</g>
<!-- Node1&#45;&gt;Node2 -->
<g id="edge1" class="edge">
<title>Node1&#45;&gt;Node2</title>
<path fill="none" stroke="#63b8ff" d="M151.05,-30.5C159.63,-30.5 168.33,-30.5 176.76,-30.5"/>
<polygon fill="#63b8ff" stroke="#63b8ff" points="176.88,-34 186.88,-30.5 176.88,-27 176.88,-34"/>
</g>
<!-- Node3 -->
<g id="node3" class="node">
<title>Node3</title>
<g id="a_node3"><a xlink:href="namespaceImGui.html#ad540a8f07e5834f77f76a84626cdc70e" target="_top" xlink:title=" ">
<polygon fill="white" stroke="#666666" points="495,-67.5 333,-67.5 333,-37.5 495,-37.5 495,-67.5"/>
<text text-anchor="start" x="341" y="-55.5" font-family="Helvetica,sans-Serif" font-size="10.00">ImGui::ConvertSingleModFlag</text>
<text text-anchor="middle" x="414" y="-44.5" font-family="Helvetica,sans-Serif" font-size="10.00">ToKey</text>
</a>
</g>
</g>
<!-- Node2&#45;&gt;Node3 -->
<g id="edge2" class="edge">
<title>Node2&#45;&gt;Node3</title>
<path fill="none" stroke="#63b8ff" d="M297.26,-37.52C305.52,-38.59 314.22,-39.72 323,-40.85"/>
<polygon fill="#63b8ff" stroke="#63b8ff" points="322.56,-44.33 332.93,-42.14 323.46,-37.38 322.56,-44.33"/>
</g>
<!-- Node4 -->
<g id="node4" class="node">
<title>Node4</title>
<g id="a_node4"><a xlink:href="namespaceImGui.html#a1e6a2ce7696a25d0dd0cf318e3b48a33" target="_top" xlink:title=" ">
<polygon fill="white" stroke="#666666" points="470.5,-19 357.5,-19 357.5,0 470.5,0 470.5,-19"/>
<text text-anchor="middle" x="414" y="-7" font-family="Helvetica,sans-Serif" font-size="10.00">ImGui::IsNamedKey</text>
</a>
</g>
</g>
<!-- Node2&#45;&gt;Node4 -->
<g id="edge3" class="edge">
<title>Node2&#45;&gt;Node4</title>
<path fill="none" stroke="#63b8ff" d="M297.26,-23.8C313.11,-21.84 330.61,-19.68 347.1,-17.64"/>
<polygon fill="#63b8ff" stroke="#63b8ff" points="347.72,-21.09 357.21,-16.39 346.86,-14.14 347.72,-21.09"/>
</g>
</g>
</svg>
