<?xml version="1.0" encoding="UTF-8" standalone="no"?>
<!DOCTYPE svg PUBLIC "-//W3C//DTD SVG 1.1//EN"
 "http://www.w3.org/Graphics/SVG/1.1/DTD/svg11.dtd">
<!-- Generated by graphviz version 2.43.0 (0)
 -->
<!-- Title: ImGui::SetWindowFocus Pages: 1 -->
<svg width="1357pt" height="559pt"
 viewBox="0.00 0.00 1357.00 559.00" xmlns="http://www.w3.org/2000/svg" xmlns:xlink="http://www.w3.org/1999/xlink">
<g id="graph0" class="graph" transform="scale(1 1) rotate(0) translate(4 555)">
<title>ImGui::SetWindowFocus</title>
<!-- Node1 -->
<g id="node1" class="node">
<title>Node1</title>
<g id="a_node1"><a xlink:title=" ">
<polygon fill="#999999" stroke="#666666" points="134,-380 0,-380 0,-361 134,-361 134,-380"/>
<text text-anchor="middle" x="67" y="-368" font-family="Helvetica,sans-Serif" font-size="10.00">ImGui::SetWindowFocus</text>
</a>
</g>
</g>
<!-- Node2 -->
<g id="node2" class="node">
<title>Node2</title>
<g id="a_node2"><a xlink:href="namespaceImGui.html#abca25f22c02e73d5eb2e9c72c4557813" target="_top" xlink:title=" ">
<polygon fill="white" stroke="#666666" points="323,-514 170,-514 170,-495 323,-495 323,-514"/>
<text text-anchor="middle" x="246.5" y="-502" font-family="Helvetica,sans-Serif" font-size="10.00">ImGui::FindWindowByName</text>
</a>
</g>
</g>
<!-- Node1&#45;&gt;Node2 -->
<g id="edge1" class="edge">
<title>Node1&#45;&gt;Node2</title>
<path fill="none" stroke="#63b8ff" d="M80.77,-380.14C111.08,-403.03 187.65,-460.83 224.74,-488.83"/>
<polygon fill="#63b8ff" stroke="#63b8ff" points="222.76,-491.72 232.85,-494.95 226.98,-486.13 222.76,-491.72"/>
</g>
<!-- Node7 -->
<g id="node7" class="node">
<title>Node7</title>
<g id="a_node7"><a xlink:href="namespaceImGui.html#a27aa6f2f3aa11778c6d023b1b223f262" target="_top" xlink:title=" ">
<polygon fill="white" stroke="#666666" points="306,-246 187,-246 187,-227 306,-227 306,-246"/>
<text text-anchor="middle" x="246.5" y="-234" font-family="Helvetica,sans-Serif" font-size="10.00">ImGui::FocusWindow</text>
</a>
</g>
</g>
<!-- Node1&#45;&gt;Node7 -->
<g id="edge6" class="edge">
<title>Node1&#45;&gt;Node7</title>
<path fill="none" stroke="#63b8ff" d="M80.77,-360.86C111.08,-337.97 187.65,-280.17 224.74,-252.17"/>
<polygon fill="#63b8ff" stroke="#63b8ff" points="226.98,-254.87 232.85,-246.05 222.76,-249.28 226.98,-254.87"/>
</g>
<!-- Node3 -->
<g id="node3" class="node">
<title>Node3</title>
<g id="a_node3"><a xlink:href="namespaceImGui.html#a82204d8800dc3a072ddbcbd2aecc48ac" target="_top" xlink:title=" ">
<polygon fill="white" stroke="#666666" points="514,-551 380,-551 380,-532 514,-532 514,-551"/>
<text text-anchor="middle" x="447" y="-539" font-family="Helvetica,sans-Serif" font-size="10.00">ImGui::FindWindowByID</text>
</a>
</g>
</g>
<!-- Node2&#45;&gt;Node3 -->
<g id="edge2" class="edge">
<title>Node2&#45;&gt;Node3</title>
<path fill="none" stroke="#63b8ff" d="M298.62,-514.03C324.91,-518.93 357.15,-524.94 384.77,-530.09"/>
<polygon fill="#63b8ff" stroke="#63b8ff" points="384.24,-533.55 394.71,-531.94 385.52,-526.67 384.24,-533.55"/>
</g>
<!-- Node6 -->
<g id="node6" class="node">
<title>Node6</title>
<g id="a_node6"><a xlink:href="imgui_8cpp.html#ab6659b5d67f7a3369e099ce890e12223" target="_top" xlink:title=" ">
<polygon fill="white" stroke="#666666" points="481,-514 413,-514 413,-495 481,-495 481,-514"/>
<text text-anchor="middle" x="447" y="-502" font-family="Helvetica,sans-Serif" font-size="10.00">ImHashStr</text>
</a>
</g>
</g>
<!-- Node2&#45;&gt;Node6 -->
<g id="edge5" class="edge">
<title>Node2&#45;&gt;Node6</title>
<path fill="none" stroke="#63b8ff" d="M323.11,-504.5C350,-504.5 379.34,-504.5 402.61,-504.5"/>
<polygon fill="#63b8ff" stroke="#63b8ff" points="402.85,-508 412.85,-504.5 402.85,-501 402.85,-508"/>
</g>
<!-- Node4 -->
<g id="node4" class="node">
<title>Node4</title>
<g id="a_node4"><a xlink:href="structImGuiStorage.html#aaf87a98ede89da09113b0189f6d878ca" target="_top" xlink:title=" ">
<polygon fill="white" stroke="#666666" points="734.5,-551 593.5,-551 593.5,-532 734.5,-532 734.5,-551"/>
<text text-anchor="middle" x="664" y="-539" font-family="Helvetica,sans-Serif" font-size="10.00">ImGuiStorage::GetVoidPtr</text>
</a>
</g>
</g>
<!-- Node3&#45;&gt;Node4 -->
<g id="edge3" class="edge">
<title>Node3&#45;&gt;Node4</title>
<path fill="none" stroke="#63b8ff" d="M514.26,-541.5C535.98,-541.5 560.35,-541.5 582.98,-541.5"/>
<polygon fill="#63b8ff" stroke="#63b8ff" points="583.23,-545 593.23,-541.5 583.23,-538 583.23,-545"/>
</g>
<!-- Node5 -->
<g id="node5" class="node">
<title>Node5</title>
<g id="a_node5"><a xlink:href="imgui_8cpp.html#a409bfd6de574854cd644636ea13b6a8a" target="_top" xlink:title=" ">
<polygon fill="white" stroke="#666666" points="925.5,-551 836.5,-551 836.5,-532 925.5,-532 925.5,-551"/>
<text text-anchor="middle" x="881" y="-539" font-family="Helvetica,sans-Serif" font-size="10.00">ImLowerBound</text>
</a>
</g>
</g>
<!-- Node4&#45;&gt;Node5 -->
<g id="edge4" class="edge">
<title>Node4&#45;&gt;Node5</title>
<path fill="none" stroke="#63b8ff" d="M734.51,-541.5C764.21,-541.5 798.35,-541.5 826.09,-541.5"/>
<polygon fill="#63b8ff" stroke="#63b8ff" points="826.38,-545 836.38,-541.5 826.38,-538 826.38,-545"/>
</g>
<!-- Node8 -->
<g id="node8" class="node">
<title>Node8</title>
<g id="a_node8"><a xlink:href="namespaceImGui.html#a8cae2f7a08f820a8d5349d1964603b20" target="_top" xlink:title=" ">
<polygon fill="white" stroke="#666666" points="529,-390.5 365,-390.5 365,-360.5 529,-360.5 529,-390.5"/>
<text text-anchor="start" x="373" y="-378.5" font-family="Helvetica,sans-Serif" font-size="10.00">ImGui::BringWindowToDisplay</text>
<text text-anchor="middle" x="447" y="-367.5" font-family="Helvetica,sans-Serif" font-size="10.00">Behind</text>
</a>
</g>
</g>
<!-- Node7&#45;&gt;Node8 -->
<g id="edge7" class="edge">
<title>Node7&#45;&gt;Node8</title>
<path fill="none" stroke="#63b8ff" d="M254.07,-246.2C269.6,-268.36 310.91,-323 359,-351.5 361.99,-353.27 365.11,-354.92 368.32,-356.44"/>
<polygon fill="#63b8ff" stroke="#63b8ff" points="367.01,-359.69 377.58,-360.44 369.78,-353.26 367.01,-359.69"/>
</g>
<!-- Node12 -->
<g id="node12" class="node">
<title>Node12</title>
<g id="a_node12"><a xlink:href="namespaceImGui.html#a1f7b95f36d03751c928af7b1b745e959" target="_top" xlink:title=" ">
<polygon fill="white" stroke="#666666" points="529,-342.5 365,-342.5 365,-312.5 529,-312.5 529,-342.5"/>
<text text-anchor="start" x="373" y="-330.5" font-family="Helvetica,sans-Serif" font-size="10.00">ImGui::BringWindowToDisplay</text>
<text text-anchor="middle" x="447" y="-319.5" font-family="Helvetica,sans-Serif" font-size="10.00">Front</text>
</a>
</g>
</g>
<!-- Node7&#45;&gt;Node12 -->
<g id="edge11" class="edge">
<title>Node7&#45;&gt;Node12</title>
<path fill="none" stroke="#63b8ff" d="M260.93,-246.23C281.25,-260.57 321.43,-287.39 359,-303.5 363.74,-305.53 368.7,-307.44 373.74,-309.22"/>
<polygon fill="#63b8ff" stroke="#63b8ff" points="372.91,-312.63 383.5,-312.48 375.13,-305.99 372.91,-312.63"/>
</g>
<!-- Node14 -->
<g id="node14" class="node">
<title>Node14</title>
<g id="a_node14"><a xlink:href="namespaceImGui.html#affe95a2dc969f0d15fbd4b588c94ac1a" target="_top" xlink:title=" ">
<polygon fill="white" stroke="#666666" points="524.5,-294.5 369.5,-294.5 369.5,-264.5 524.5,-264.5 524.5,-294.5"/>
<text text-anchor="start" x="377.5" y="-282.5" font-family="Helvetica,sans-Serif" font-size="10.00">ImGui::BringWindowToFocus</text>
<text text-anchor="middle" x="447" y="-271.5" font-family="Helvetica,sans-Serif" font-size="10.00">Front</text>
</a>
</g>
</g>
<!-- Node7&#45;&gt;Node14 -->
<g id="edge13" class="edge">
<title>Node7&#45;&gt;Node14</title>
<path fill="none" stroke="#63b8ff" d="M291.55,-246.04C313.64,-250.83 341.06,-256.77 366.65,-262.31"/>
<polygon fill="#63b8ff" stroke="#63b8ff" points="366.21,-265.8 376.73,-264.49 367.69,-258.96 366.21,-265.8"/>
</g>
<!-- Node15 -->
<g id="node15" class="node">
<title>Node15</title>
<g id="a_node15"><a xlink:href="namespaceImGui.html#a17ff60ad1e2669130ac38a04d16eb354" target="_top" xlink:title=" ">
<polygon fill="white" stroke="#666666" points="506.5,-208 387.5,-208 387.5,-189 506.5,-189 506.5,-208"/>
<text text-anchor="middle" x="447" y="-196" font-family="Helvetica,sans-Serif" font-size="10.00">ImGui::ClearActiveID</text>
</a>
</g>
</g>
<!-- Node7&#45;&gt;Node15 -->
<g id="edge15" class="edge">
<title>Node7&#45;&gt;Node15</title>
<path fill="none" stroke="#63b8ff" d="M297.33,-226.96C324.23,-221.81 357.64,-215.42 385.96,-209.99"/>
<polygon fill="#63b8ff" stroke="#63b8ff" points="386.98,-213.36 396.15,-208.04 385.67,-206.49 386.98,-213.36"/>
</g>
<!-- Node21 -->
<g id="node21" class="node">
<title>Node21</title>
<g id="a_node21"><a xlink:href="namespaceImGui.html#a0076b153c697cb85e263fcbd59340bce" target="_top" xlink:title=" ">
<polygon fill="white" stroke="#666666" points="535,-132 359,-132 359,-113 535,-113 535,-132"/>
<text text-anchor="middle" x="447" y="-120" font-family="Helvetica,sans-Serif" font-size="10.00">ImGui::ClosePopupsOverWindow</text>
</a>
</g>
</g>
<!-- Node7&#45;&gt;Node21 -->
<g id="edge21" class="edge">
<title>Node7&#45;&gt;Node21</title>
<path fill="none" stroke="#63b8ff" d="M256.67,-226.81C274.6,-208.44 316.28,-168.42 359,-146.5 367.99,-141.89 377.97,-138.07 387.88,-134.95"/>
<polygon fill="#63b8ff" stroke="#63b8ff" points="389.11,-138.24 397.72,-132.06 387.14,-131.52 389.11,-138.24"/>
</g>
<!-- Node26 -->
<g id="node26" class="node">
<title>Node26</title>
<g id="a_node26"><a xlink:href="namespaceImGui.html#a196705a4195b41a57470ef6553cb440c" target="_top" xlink:title=" ">
<polygon fill="white" stroke="#666666" points="519,-95 375,-95 375,-76 519,-76 519,-95"/>
<text text-anchor="middle" x="447" y="-83" font-family="Helvetica,sans-Serif" font-size="10.00">ImGui::FindBlockingModal</text>
</a>
</g>
</g>
<!-- Node7&#45;&gt;Node26 -->
<g id="edge29" class="edge">
<title>Node7&#45;&gt;Node26</title>
<path fill="none" stroke="#63b8ff" d="M252.5,-226.9C265.99,-202.06 305.72,-135.34 359,-103.5 361.85,-101.8 364.83,-100.26 367.9,-98.86"/>
<polygon fill="#63b8ff" stroke="#63b8ff" points="369.37,-102.04 377.36,-95.08 366.78,-95.54 369.37,-102.04"/>
</g>
<!-- Node27 -->
<g id="node27" class="node">
<title>Node27</title>
<g id="a_node27"><a xlink:href="namespaceImGui.html#a6b905269b079f5e07755db52cc6e52df" target="_top" xlink:title=" ">
<polygon fill="white" stroke="#666666" points="532,-19 362,-19 362,0 532,0 532,-19"/>
<text text-anchor="middle" x="447" y="-7" font-family="Helvetica,sans-Serif" font-size="10.00">ImGui::GetTopMostPopupModal</text>
</a>
</g>
</g>
<!-- Node7&#45;&gt;Node27 -->
<g id="edge31" class="edge">
<title>Node7&#45;&gt;Node27</title>
<path fill="none" stroke="#63b8ff" d="M249.94,-226.67C258.63,-193.85 291.18,-87.11 359,-33.5 364.37,-29.26 370.44,-25.76 376.81,-22.89"/>
<polygon fill="#63b8ff" stroke="#63b8ff" points="378.33,-26.05 386.32,-19.1 375.74,-19.55 378.33,-26.05"/>
</g>
<!-- Node28 -->
<g id="node28" class="node">
<title>Node28</title>
<g id="a_node28"><a xlink:href="namespaceImGui.html#ae9ed208c0b64e4919e5de1cb83b2db2a" target="_top" xlink:title=" ">
<polygon fill="white" stroke="#666666" points="524,-476.5 370,-476.5 370,-446.5 524,-446.5 524,-476.5"/>
<text text-anchor="start" x="378" y="-464.5" font-family="Helvetica,sans-Serif" font-size="10.00">ImGui::NavRestoreLastChild</text>
<text text-anchor="middle" x="447" y="-453.5" font-family="Helvetica,sans-Serif" font-size="10.00">NavWindow</text>
</a>
</g>
</g>
<!-- Node7&#45;&gt;Node28 -->
<g id="edge32" class="edge">
<title>Node7&#45;&gt;Node28</title>
<path fill="none" stroke="#63b8ff" d="M250.01,-246.16C258.91,-278.41 292.06,-383.36 359,-436.5 361.31,-438.33 363.74,-440.03 366.28,-441.6"/>
<polygon fill="#63b8ff" stroke="#63b8ff" points="364.77,-444.77 375.22,-446.49 368.12,-438.62 364.77,-444.77"/>
</g>
<!-- Node30 -->
<g id="node30" class="node">
<title>Node30</title>
<g id="a_node30"><a xlink:href="namespaceImGui.html#ada2736a9b034b93ba877f46577bc5e8b" target="_top" xlink:title=" ">
<polygon fill="white" stroke="#666666" points="953,-245 809,-245 809,-226 953,-226 953,-245"/>
<text text-anchor="middle" x="881" y="-233" font-family="Helvetica,sans-Serif" font-size="10.00">ImGui::SetNavFocusScope</text>
</a>
</g>
</g>
<!-- Node7&#45;&gt;Node30 -->
<g id="edge34" class="edge">
<title>Node7&#45;&gt;Node30</title>
<path fill="none" stroke="#63b8ff" d="M306.15,-236.41C419.61,-236.23 669.32,-235.83 798.7,-235.63"/>
<polygon fill="#63b8ff" stroke="#63b8ff" points="798.95,-239.13 808.94,-235.61 798.94,-232.13 798.95,-239.13"/>
</g>
<!-- Node32 -->
<g id="node32" class="node">
<title>Node32</title>
<g id="a_node32"><a xlink:href="namespaceImGui.html#aa422c756f467e650d67b4fb1b74ff5a1" target="_top" xlink:title=" ">
<polygon fill="white" stroke="#666666" points="510,-428 384,-428 384,-409 510,-409 510,-428"/>
<text text-anchor="middle" x="447" y="-416" font-family="Helvetica,sans-Serif" font-size="10.00">ImGui::SetNavWindow</text>
</a>
</g>
</g>
<!-- Node7&#45;&gt;Node32 -->
<g id="edge39" class="edge">
<title>Node7&#45;&gt;Node32</title>
<path fill="none" stroke="#63b8ff" d="M251.06,-246.09C262.16,-274.56 299.01,-359.07 359,-399.5 363.65,-402.63 368.72,-405.26 374.01,-407.46"/>
<polygon fill="#63b8ff" stroke="#63b8ff" points="373.12,-410.86 383.72,-410.98 375.51,-404.28 373.12,-410.86"/>
</g>
<!-- Node9 -->
<g id="node9" class="node">
<title>Node9</title>
<g id="a_node9"><a xlink:href="namespaceImGui.html#acc8dfbe9f52370fe2b95f6c948ba113e" target="_top" xlink:title=" ">
<polygon fill="white" stroke="#666666" points="738,-390.5 590,-390.5 590,-360.5 738,-360.5 738,-390.5"/>
<text text-anchor="start" x="598" y="-378.5" font-family="Helvetica,sans-Serif" font-size="10.00">ImGui::FindWindowDisplay</text>
<text text-anchor="middle" x="664" y="-367.5" font-family="Helvetica,sans-Serif" font-size="10.00">Index</text>
</a>
</g>
</g>
<!-- Node8&#45;&gt;Node9 -->
<g id="edge8" class="edge">
<title>Node8&#45;&gt;Node9</title>
<path fill="none" stroke="#63b8ff" d="M529.28,-375.5C545.73,-375.5 563.05,-375.5 579.56,-375.5"/>
<polygon fill="#63b8ff" stroke="#63b8ff" points="579.73,-379 589.73,-375.5 579.73,-372 579.73,-379"/>
</g>
<!-- Node10 -->
<g id="node10" class="node">
<title>Node10</title>
<g id="a_node10"><a xlink:href="structImVector.html#a406417c3efef769d4bee47df2188831a" target="_top" xlink:title=" ">
<polygon fill="white" stroke="#666666" points="923,-366 839,-366 839,-347 923,-347 923,-366"/>
<text text-anchor="middle" x="881" y="-354" font-family="Helvetica,sans-Serif" font-size="10.00">ImVector::find</text>
</a>
</g>
</g>
<!-- Node9&#45;&gt;Node10 -->
<g id="edge9" class="edge">
<title>Node9&#45;&gt;Node10</title>
<path fill="none" stroke="#63b8ff" d="M738.09,-369.04C767.88,-366.41 801.62,-363.43 828.72,-361.03"/>
<polygon fill="#63b8ff" stroke="#63b8ff" points="829.11,-364.51 838.76,-360.14 828.49,-357.54 829.11,-364.51"/>
</g>
<!-- Node11 -->
<g id="node11" class="node">
<title>Node11</title>
<g id="a_node11"><a xlink:href="structImVector.html#a3fd48379f807eeb01fb9da39afa30dc7" target="_top" xlink:title=" ">
<polygon fill="white" stroke="#666666" points="951,-403 811,-403 811,-384 951,-384 951,-403"/>
<text text-anchor="middle" x="881" y="-391" font-family="Helvetica,sans-Serif" font-size="10.00">ImVector::index_from_ptr</text>
</a>
</g>
</g>
<!-- Node9&#45;&gt;Node11 -->
<g id="edge10" class="edge">
<title>Node9&#45;&gt;Node11</title>
<path fill="none" stroke="#63b8ff" d="M738.09,-381.62C758.19,-383.3 780.08,-385.13 800.52,-386.85"/>
<polygon fill="#63b8ff" stroke="#63b8ff" points="800.49,-390.36 810.74,-387.7 801.07,-383.38 800.49,-390.36"/>
</g>
<!-- Node13 -->
<g id="node13" class="node">
<title>Node13</title>
<g id="a_node13"><a xlink:href="structImVector.html#a2d80e87e81b1b01143c8d8be93e6fde1" target="_top" xlink:title=" ">
<polygon fill="white" stroke="#666666" points="708.5,-313 619.5,-313 619.5,-294 708.5,-294 708.5,-313"/>
<text text-anchor="middle" x="664" y="-301" font-family="Helvetica,sans-Serif" font-size="10.00">ImVector::back</text>
</a>
</g>
</g>
<!-- Node12&#45;&gt;Node13 -->
<g id="edge12" class="edge">
<title>Node12&#45;&gt;Node13</title>
<path fill="none" stroke="#63b8ff" d="M529.28,-318.43C556.02,-315.44 585.07,-312.2 609.24,-309.5"/>
<polygon fill="#63b8ff" stroke="#63b8ff" points="609.72,-312.97 619.27,-308.38 608.95,-306.01 609.72,-312.97"/>
</g>
<!-- Node14&#45;&gt;Node13 -->
<g id="edge14" class="edge">
<title>Node14&#45;&gt;Node13</title>
<path fill="none" stroke="#63b8ff" d="M524.71,-288.06C552.59,-291.17 583.48,-294.62 608.98,-297.47"/>
<polygon fill="#63b8ff" stroke="#63b8ff" points="608.87,-300.98 619.19,-298.61 609.64,-294.02 608.87,-300.98"/>
</g>
<!-- Node16 -->
<g id="node16" class="node">
<title>Node16</title>
<g id="a_node16"><a xlink:href="namespaceImGui.html#a27b8ace13a8c421ee8405f0cbebe4ead" target="_top" xlink:title=" ">
<polygon fill="white" stroke="#666666" points="718.5,-208 609.5,-208 609.5,-189 718.5,-189 718.5,-208"/>
<text text-anchor="middle" x="664" y="-196" font-family="Helvetica,sans-Serif" font-size="10.00">ImGui::SetActiveID</text>
</a>
</g>
</g>
<!-- Node15&#45;&gt;Node16 -->
<g id="edge16" class="edge">
<title>Node15&#45;&gt;Node16</title>
<path fill="none" stroke="#63b8ff" d="M506.75,-198.5C535.44,-198.5 570.02,-198.5 599.34,-198.5"/>
<polygon fill="#63b8ff" stroke="#63b8ff" points="599.47,-202 609.47,-198.5 599.47,-195 599.47,-202"/>
</g>
<!-- Node17 -->
<g id="node17" class="node">
<title>Node17</title>
<g id="a_node17"><a xlink:href="namespaceImGui.html#aad9419cf6e296c668807e3af4bfd62bb" target="_top" xlink:title=" ">
<polygon fill="white" stroke="#666666" points="969,-208 793,-208 793,-189 969,-189 969,-208"/>
<text text-anchor="middle" x="881" y="-196" font-family="Helvetica,sans-Serif" font-size="10.00">ImGui::InputTextDeactivateHook</text>
</a>
</g>
</g>
<!-- Node16&#45;&gt;Node17 -->
<g id="edge17" class="edge">
<title>Node16&#45;&gt;Node17</title>
<path fill="none" stroke="#63b8ff" d="M718.7,-198.5C738.11,-198.5 760.68,-198.5 782.68,-198.5"/>
<polygon fill="#63b8ff" stroke="#63b8ff" points="782.73,-202 792.73,-198.5 782.73,-195 782.73,-202"/>
</g>
<!-- Node18 -->
<g id="node18" class="node">
<title>Node18</title>
<g id="a_node18"><a xlink:href="structImVector.html#ac371dd62e56ae486b1a5038cf07eee56" target="_top" xlink:title=" ">
<polygon fill="white" stroke="#666666" points="1135.5,-208 1040.5,-208 1040.5,-189 1135.5,-189 1135.5,-208"/>
<text text-anchor="middle" x="1088" y="-196" font-family="Helvetica,sans-Serif" font-size="10.00">ImVector::resize</text>
</a>
</g>
</g>
<!-- Node17&#45;&gt;Node18 -->
<g id="edge18" class="edge">
<title>Node17&#45;&gt;Node18</title>
<path fill="none" stroke="#63b8ff" d="M969.24,-198.5C989.83,-198.5 1011.27,-198.5 1030.12,-198.5"/>
<polygon fill="#63b8ff" stroke="#63b8ff" points="1030.31,-202 1040.31,-198.5 1030.31,-195 1030.31,-202"/>
</g>
<!-- Node19 -->
<g id="node19" class="node">
<title>Node19</title>
<g id="a_node19"><a xlink:href="structImVector.html#a3a097635d464b1b70dc7d59996a88b28" target="_top" xlink:title=" ">
<polygon fill="white" stroke="#666666" points="1349,-245 1207,-245 1207,-226 1349,-226 1349,-245"/>
<text text-anchor="middle" x="1278" y="-233" font-family="Helvetica,sans-Serif" font-size="10.00">ImVector::_grow_capacity</text>
</a>
</g>
</g>
<!-- Node18&#45;&gt;Node19 -->
<g id="edge19" class="edge">
<title>Node18&#45;&gt;Node19</title>
<path fill="none" stroke="#63b8ff" d="M1135.96,-207.74C1161.03,-212.68 1192.12,-218.79 1218.73,-224.03"/>
<polygon fill="#63b8ff" stroke="#63b8ff" points="1218.19,-227.49 1228.68,-225.99 1219.54,-220.63 1218.19,-227.49"/>
</g>
<!-- Node20 -->
<g id="node20" class="node">
<title>Node20</title>
<g id="a_node20"><a xlink:href="structImVector.html#a0f14f5736c3372157856eebb67123b75" target="_top" xlink:title=" ">
<polygon fill="white" stroke="#666666" points="1329.5,-208 1226.5,-208 1226.5,-189 1329.5,-189 1329.5,-208"/>
<text text-anchor="middle" x="1278" y="-196" font-family="Helvetica,sans-Serif" font-size="10.00">ImVector::reserve</text>
</a>
</g>
</g>
<!-- Node18&#45;&gt;Node20 -->
<g id="edge20" class="edge">
<title>Node18&#45;&gt;Node20</title>
<path fill="none" stroke="#63b8ff" d="M1135.96,-198.5C1160.25,-198.5 1190.19,-198.5 1216.22,-198.5"/>
<polygon fill="#63b8ff" stroke="#63b8ff" points="1216.36,-202 1226.36,-198.5 1216.36,-195 1216.36,-202"/>
</g>
<!-- Node22 -->
<g id="node22" class="node">
<title>Node22</title>
<g id="a_node22"><a xlink:href="namespaceImGui.html#a0be705dc533a62387dc39ec5c276d2a0" target="_top" xlink:title=" ">
<polygon fill="white" stroke="#666666" points="737,-153 591,-153 591,-134 737,-134 737,-153"/>
<text text-anchor="middle" x="664" y="-141" font-family="Helvetica,sans-Serif" font-size="10.00">ImGui::ClosePopupToLevel</text>
</a>
</g>
</g>
<!-- Node21&#45;&gt;Node22 -->
<g id="edge22" class="edge">
<title>Node21&#45;&gt;Node22</title>
<path fill="none" stroke="#63b8ff" d="M535.14,-131.01C550.18,-132.48 565.77,-134 580.67,-135.46"/>
<polygon fill="#63b8ff" stroke="#63b8ff" points="580.57,-138.97 590.87,-136.45 581.25,-132 580.57,-138.97"/>
</g>
<!-- Node25 -->
<g id="node25" class="node">
<title>Node25</title>
<g id="a_node25"><a xlink:href="namespaceImGui.html#a48de6990762aa67d7da5c3264b92d44f" target="_top" xlink:title=" ">
<polygon fill="white" stroke="#666666" points="743,-112.5 585,-112.5 585,-82.5 743,-82.5 743,-112.5"/>
<text text-anchor="start" x="593" y="-100.5" font-family="Helvetica,sans-Serif" font-size="10.00">ImGui::IsWindowWithinBegin</text>
<text text-anchor="middle" x="664" y="-89.5" font-family="Helvetica,sans-Serif" font-size="10.00">StackOf</text>
</a>
</g>
</g>
<!-- Node21&#45;&gt;Node25 -->
<g id="edge28" class="edge">
<title>Node21&#45;&gt;Node25</title>
<path fill="none" stroke="#63b8ff" d="M529.9,-112.98C544.55,-111.27 559.88,-109.49 574.71,-107.77"/>
<polygon fill="#63b8ff" stroke="#63b8ff" points="575.35,-111.22 584.88,-106.58 574.54,-104.26 575.35,-111.22"/>
</g>
<!-- Node22&#45;&gt;Node7 -->
<g id="edge26" class="edge">
<title>Node22&#45;&gt;Node7</title>
<path fill="none" stroke="#63b8ff" d="M590.9,-144.89C528.36,-147.77 436.03,-156.07 359,-179.5 326.6,-189.35 292.36,-208.31 270.5,-221.66"/>
<polygon fill="#63b8ff" stroke="#63b8ff" points="268.58,-218.73 261.93,-226.99 272.27,-224.67 268.58,-218.73"/>
</g>
<!-- Node22&#45;&gt;Node18 -->
<g id="edge27" class="edge">
<title>Node22&#45;&gt;Node18</title>
<path fill="none" stroke="#63b8ff" d="M737.28,-151.2C798.94,-157.97 889.91,-168.46 969,-179.5 989.04,-182.3 1010.93,-185.72 1030.36,-188.89"/>
<polygon fill="#63b8ff" stroke="#63b8ff" points="1029.83,-192.35 1040.27,-190.51 1030.97,-185.44 1029.83,-192.35"/>
</g>
<!-- Node23 -->
<g id="node23" class="node">
<title>Node23</title>
<g id="a_node23"><a xlink:href="namespaceImGui.html#aa97e87e96c05eb3e91aa96fa68b13a2a" target="_top" xlink:title=" ">
<polygon fill="white" stroke="#666666" points="960.5,-84.5 801.5,-84.5 801.5,-54.5 960.5,-54.5 960.5,-84.5"/>
<text text-anchor="start" x="809.5" y="-72.5" font-family="Helvetica,sans-Serif" font-size="10.00">ImGui::FocusTopMostWindow</text>
<text text-anchor="middle" x="881" y="-61.5" font-family="Helvetica,sans-Serif" font-size="10.00">UnderOne</text>
</a>
</g>
</g>
<!-- Node22&#45;&gt;Node23 -->
<g id="edge23" class="edge">
<title>Node22&#45;&gt;Node23</title>
<path fill="none" stroke="#63b8ff" d="M711.75,-133.9C726.38,-130.47 742.49,-126.27 757,-121.5 784.97,-112.31 815.46,-99.44 839.09,-88.81"/>
<polygon fill="#63b8ff" stroke="#63b8ff" points="840.79,-91.88 848.44,-84.55 837.89,-85.51 840.79,-91.88"/>
</g>
<!-- Node23&#45;&gt;Node7 -->
<g id="edge25" class="edge">
<title>Node23&#45;&gt;Node7</title>
<path fill="none" stroke="#63b8ff" d="M801.3,-60.01C674.84,-46.25 433.07,-26.5 359,-66.5 298.79,-99.01 265.83,-179.77 253.38,-217.06"/>
<polygon fill="#63b8ff" stroke="#63b8ff" points="249.99,-216.16 250.28,-226.75 256.66,-218.29 249.99,-216.16"/>
</g>
<!-- Node24 -->
<g id="node24" class="node">
<title>Node24</title>
<g id="a_node24"><a xlink:href="namespaceImGui.html#a861004d5a1476e954abd68d6f9deaa06" target="_top" xlink:title=" ">
<polygon fill="white" stroke="#666666" points="1171,-79 1005,-79 1005,-60 1171,-60 1171,-79"/>
<text text-anchor="middle" x="1088" y="-67" font-family="Helvetica,sans-Serif" font-size="10.00">ImGui::FindWindowFocusIndex</text>
</a>
</g>
</g>
<!-- Node23&#45;&gt;Node24 -->
<g id="edge24" class="edge">
<title>Node23&#45;&gt;Node24</title>
<path fill="none" stroke="#63b8ff" d="M960.67,-69.5C971.74,-69.5 983.2,-69.5 994.49,-69.5"/>
<polygon fill="#63b8ff" stroke="#63b8ff" points="994.8,-73 1004.8,-69.5 994.8,-66 994.8,-73"/>
</g>
<!-- Node26&#45;&gt;Node25 -->
<g id="edge30" class="edge">
<title>Node26&#45;&gt;Node25</title>
<path fill="none" stroke="#63b8ff" d="M519.29,-89.48C537.03,-90.47 556.26,-91.54 574.71,-92.57"/>
<polygon fill="#63b8ff" stroke="#63b8ff" points="574.69,-96.08 584.86,-93.14 575.08,-89.09 574.69,-96.08"/>
</g>
<!-- Node29 -->
<g id="node29" class="node">
<title>Node29</title>
<g id="a_node29"><a xlink:href="namespaceImGui.html#a5e1bfc506e7bd0f71ec85d8c69672d3d" target="_top" xlink:title=" ">
<polygon fill="white" stroke="#666666" points="750,-476.5 578,-476.5 578,-446.5 750,-446.5 750,-476.5"/>
<text text-anchor="start" x="586" y="-464.5" font-family="Helvetica,sans-Serif" font-size="10.00">ImGui::TabBarFindMostRecently</text>
<text text-anchor="middle" x="664" y="-453.5" font-family="Helvetica,sans-Serif" font-size="10.00">SelectedTabForActiveWindow</text>
</a>
</g>
</g>
<!-- Node28&#45;&gt;Node29 -->
<g id="edge33" class="edge">
<title>Node28&#45;&gt;Node29</title>
<path fill="none" stroke="#63b8ff" d="M524.1,-461.5C538.24,-461.5 553.16,-461.5 567.78,-461.5"/>
<polygon fill="#63b8ff" stroke="#63b8ff" points="567.84,-465 577.84,-461.5 567.84,-458 567.84,-465"/>
</g>
<!-- Node30&#45;&gt;Node18 -->
<g id="edge38" class="edge">
<title>Node30&#45;&gt;Node18</title>
<path fill="none" stroke="#63b8ff" d="M934.79,-225.97C964.1,-220.68 1000.57,-214.1 1030.46,-208.7"/>
<polygon fill="#63b8ff" stroke="#63b8ff" points="1031.1,-212.15 1040.32,-206.92 1029.86,-205.26 1031.1,-212.15"/>
</g>
<!-- Node31 -->
<g id="node31" class="node">
<title>Node31</title>
<g id="a_node31"><a xlink:href="structImVector.html#aab5df48e0711a48bd12f3206e08c4108" target="_top" xlink:title=" ">
<polygon fill="white" stroke="#666666" points="1147,-245 1029,-245 1029,-226 1147,-226 1147,-245"/>
<text text-anchor="middle" x="1088" y="-233" font-family="Helvetica,sans-Serif" font-size="10.00">ImVector::push_back</text>
</a>
</g>
</g>
<!-- Node30&#45;&gt;Node31 -->
<g id="edge35" class="edge">
<title>Node30&#45;&gt;Node31</title>
<path fill="none" stroke="#63b8ff" d="M953.12,-235.5C974.39,-235.5 997.65,-235.5 1018.73,-235.5"/>
<polygon fill="#63b8ff" stroke="#63b8ff" points="1018.89,-239 1028.89,-235.5 1018.89,-232 1018.89,-239"/>
</g>
<!-- Node31&#45;&gt;Node19 -->
<g id="edge36" class="edge">
<title>Node31&#45;&gt;Node19</title>
<path fill="none" stroke="#63b8ff" d="M1147.2,-235.5C1162.83,-235.5 1180.01,-235.5 1196.61,-235.5"/>
<polygon fill="#63b8ff" stroke="#63b8ff" points="1196.85,-239 1206.85,-235.5 1196.85,-232 1196.85,-239"/>
</g>
<!-- Node31&#45;&gt;Node20 -->
<g id="edge37" class="edge">
<title>Node31&#45;&gt;Node20</title>
<path fill="none" stroke="#63b8ff" d="M1137.41,-225.97C1162.1,-221.11 1192.32,-215.17 1218.31,-210.05"/>
<polygon fill="#63b8ff" stroke="#63b8ff" points="1219.29,-213.43 1228.42,-208.06 1217.94,-206.56 1219.29,-213.43"/>
</g>
<!-- Node33 -->
<g id="node33" class="node">
<title>Node33</title>
<g id="a_node33"><a xlink:href="namespaceImGui.html#a2cd868535661cdb5671214662f3c9388" target="_top" xlink:title=" ">
<polygon fill="white" stroke="#666666" points="757,-428 571,-428 571,-409 757,-409 757,-428"/>
<text text-anchor="middle" x="664" y="-416" font-family="Helvetica,sans-Serif" font-size="10.00">ImGui::NavUpdateAnyRequestFlag</text>
</a>
</g>
</g>
<!-- Node32&#45;&gt;Node33 -->
<g id="edge40" class="edge">
<title>Node32&#45;&gt;Node33</title>
<path fill="none" stroke="#63b8ff" d="M510.19,-418.5C526.05,-418.5 543.52,-418.5 560.81,-418.5"/>
<polygon fill="#63b8ff" stroke="#63b8ff" points="560.96,-422 570.96,-418.5 560.96,-415 560.96,-422"/>
</g>
</g>
</svg>
