<?xml version="1.0" encoding="UTF-8" standalone="no"?>
<!DOCTYPE svg PUBLIC "-//W3C//DTD SVG 1.1//EN"
 "http://www.w3.org/Graphics/SVG/1.1/DTD/svg11.dtd">
<!-- Generated by graphviz version 2.43.0 (0)
 -->
<!-- Title: ImGui::DockContextPruneUnusedSettingsNodes Pages: 1 -->
<svg width="938pt" height="295pt"
 viewBox="0.00 0.00 938.00 295.44" xmlns="http://www.w3.org/2000/svg" xmlns:xlink="http://www.w3.org/1999/xlink">
<g id="graph0" class="graph" transform="scale(1 1) rotate(0) translate(4 291.44)">
<title>ImGui::DockContextPruneUnusedSettingsNodes</title>
<!-- Node1 -->
<g id="node1" class="node">
<title>Node1</title>
<g id="a_node1"><a xlink:title=" ">
<polygon fill="#999999" stroke="#666666" points="179,-173.5 0,-173.5 0,-143.5 179,-143.5 179,-173.5"/>
<text text-anchor="start" x="8" y="-161.5" font-family="Helvetica,sans-Serif" font-size="10.00">ImGui::DockContextPruneUnused</text>
<text text-anchor="middle" x="89.5" y="-150.5" font-family="Helvetica,sans-Serif" font-size="10.00">SettingsNodes</text>
</a>
</g>
</g>
<!-- Node2 -->
<g id="node2" class="node">
<title>Node2</title>
<g id="a_node2"><a xlink:href="structImChunkStream.html#a10a9b29c856b3f84ce8811ebfaf2cfe8" target="_top" xlink:title=" ">
<polygon fill="white" stroke="#666666" points="738.5,-235 610.5,-235 610.5,-216 738.5,-216 738.5,-235"/>
<text text-anchor="middle" x="674.5" y="-223" font-family="Helvetica,sans-Serif" font-size="10.00">ImChunkStream::begin</text>
</a>
</g>
</g>
<!-- Node1&#45;&gt;Node2 -->
<g id="edge1" class="edge">
<title>Node1&#45;&gt;Node2</title>
<path fill="none" stroke="#63b8ff" d="M102.26,-173.71C122.26,-198.2 165.6,-245.45 215,-263.5 364.34,-318.07 558.66,-264.8 637.71,-238.4"/>
<polygon fill="#63b8ff" stroke="#63b8ff" points="639.31,-241.55 647.65,-235.02 637.05,-234.93 639.31,-241.55"/>
</g>
<!-- Node3 -->
<g id="node3" class="node">
<title>Node3</title>
<g id="a_node3"><a xlink:href="namespaceImGui.html#a7644c22d2e315b2b1753fc79a8c187ab" target="_top" xlink:title=" ">
<polygon fill="white" stroke="#666666" points="380.5,-254.5 223.5,-254.5 223.5,-224.5 380.5,-224.5 380.5,-254.5"/>
<text text-anchor="start" x="231.5" y="-242.5" font-family="Helvetica,sans-Serif" font-size="10.00">ImGui::DockSettingsRemove</text>
<text text-anchor="middle" x="302" y="-231.5" font-family="Helvetica,sans-Serif" font-size="10.00">NodeReferences</text>
</a>
</g>
</g>
<!-- Node1&#45;&gt;Node3 -->
<g id="edge2" class="edge">
<title>Node1&#45;&gt;Node3</title>
<path fill="none" stroke="#63b8ff" d="M120.13,-173.67C145.02,-186.02 181.74,-203.33 215,-215.5 220.6,-217.55 226.45,-219.52 232.36,-221.4"/>
<polygon fill="#63b8ff" stroke="#63b8ff" points="231.73,-224.87 242.32,-224.46 233.79,-218.17 231.73,-224.87"/>
</g>
<!-- Node4 -->
<g id="node4" class="node">
<title>Node4</title>
<g id="a_node4"><a xlink:href="structImChunkStream.html#a3a99f21ce1867d694104d740ac7ab133" target="_top" xlink:title=" ">
<polygon fill="white" stroke="#666666" points="554.5,-178.5 431.5,-178.5 431.5,-148.5 554.5,-148.5 554.5,-178.5"/>
<text text-anchor="start" x="439.5" y="-166.5" font-family="Helvetica,sans-Serif" font-size="10.00">ImChunkStream::next</text>
<text text-anchor="middle" x="493" y="-155.5" font-family="Helvetica,sans-Serif" font-size="10.00">_chunk</text>
</a>
</g>
</g>
<!-- Node1&#45;&gt;Node4 -->
<g id="edge21" class="edge">
<title>Node1&#45;&gt;Node4</title>
<path fill="none" stroke="#63b8ff" d="M179.11,-159.6C251.92,-160.51 353.72,-161.78 421.19,-162.62"/>
<polygon fill="#63b8ff" stroke="#63b8ff" points="421.26,-166.12 431.3,-162.74 421.34,-159.12 421.26,-166.12"/>
</g>
<!-- Node7 -->
<g id="node7" class="node">
<title>Node7</title>
<g id="a_node7"><a xlink:href="namespaceImGui.html#a186a7c51e5dc70e54843c9e9415707e2" target="_top" xlink:title=" ">
<polygon fill="white" stroke="#666666" points="389,-206 215,-206 215,-187 389,-187 389,-206"/>
<text text-anchor="middle" x="302" y="-194" font-family="Helvetica,sans-Serif" font-size="10.00">ImGui::FindWindowSettingsByID</text>
</a>
</g>
</g>
<!-- Node1&#45;&gt;Node7 -->
<g id="edge8" class="edge">
<title>Node1&#45;&gt;Node7</title>
<path fill="none" stroke="#63b8ff" d="M173.7,-173.52C195.22,-177.41 218.04,-181.52 238.33,-185.19"/>
<polygon fill="#63b8ff" stroke="#63b8ff" points="237.91,-188.67 248.37,-187 239.15,-181.78 237.91,-188.67"/>
</g>
<!-- Node8 -->
<g id="node8" class="node">
<title>Node8</title>
<g id="a_node8"><a xlink:href="structImPool.html#ae53033af46a5df28084f1d946c9face3" target="_top" xlink:title=" ">
<polygon fill="white" stroke="#666666" points="354,-130 250,-130 250,-111 354,-111 354,-130"/>
<text text-anchor="middle" x="302" y="-118" font-family="Helvetica,sans-Serif" font-size="10.00">ImPool::GetByKey</text>
</a>
</g>
</g>
<!-- Node1&#45;&gt;Node8 -->
<g id="edge11" class="edge">
<title>Node1&#45;&gt;Node8</title>
<path fill="none" stroke="#63b8ff" d="M173.7,-143.48C195.82,-139.49 219.3,-135.25 239.99,-131.51"/>
<polygon fill="#63b8ff" stroke="#63b8ff" points="240.69,-134.94 249.91,-129.72 239.45,-128.06 240.69,-134.94"/>
</g>
<!-- Node11 -->
<g id="node11" class="node">
<title>Node11</title>
<g id="a_node11"><a xlink:href="structImPool.html#a47973a2eac8e4c06ef369ac02d23f4e5" target="_top" xlink:title=" ">
<polygon fill="white" stroke="#666666" points="369,-93 235,-93 235,-74 369,-74 369,-93"/>
<text text-anchor="middle" x="302" y="-81" font-family="Helvetica,sans-Serif" font-size="10.00">ImPool::GetOrAddByKey</text>
</a>
</g>
</g>
<!-- Node1&#45;&gt;Node11 -->
<g id="edge14" class="edge">
<title>Node1&#45;&gt;Node11</title>
<path fill="none" stroke="#63b8ff" d="M119.5,-143.4C144.31,-130.99 181.25,-113.69 215,-102.5 222.93,-99.87 231.39,-97.5 239.79,-95.4"/>
<polygon fill="#63b8ff" stroke="#63b8ff" points="240.69,-98.78 249.6,-93.05 239.06,-91.97 240.69,-98.78"/>
</g>
<!-- Node17 -->
<g id="node17" class="node">
<title>Node17</title>
<g id="a_node17"><a xlink:href="structImPool.html#a62a34bcb3efcaaa3f4402c0c3cc1d600" target="_top" xlink:title=" ">
<polygon fill="white" stroke="#666666" points="541,-19 445,-19 445,0 541,0 541,-19"/>
<text text-anchor="middle" x="493" y="-7" font-family="Helvetica,sans-Serif" font-size="10.00">ImPool::Reserve</text>
</a>
</g>
</g>
<!-- Node1&#45;&gt;Node17 -->
<g id="edge22" class="edge">
<title>Node1&#45;&gt;Node17</title>
<path fill="none" stroke="#63b8ff" d="M105.51,-143.48C127.52,-122.39 170.76,-84.33 215,-64.5 286.75,-32.34 377.31,-18.89 434.96,-13.33"/>
<polygon fill="#63b8ff" stroke="#63b8ff" points="435.33,-16.81 444.97,-12.41 434.69,-9.84 435.33,-16.81"/>
</g>
<!-- Node3&#45;&gt;Node2 -->
<g id="edge3" class="edge">
<title>Node3&#45;&gt;Node2</title>
<path fill="none" stroke="#63b8ff" d="M380.67,-236.57C445.29,-234.12 536.64,-230.67 600.06,-228.28"/>
<polygon fill="#63b8ff" stroke="#63b8ff" points="600.52,-231.76 610.38,-227.88 600.26,-224.77 600.52,-231.76"/>
</g>
<!-- Node3&#45;&gt;Node4 -->
<g id="edge4" class="edge">
<title>Node3&#45;&gt;Node4</title>
<path fill="none" stroke="#63b8ff" d="M362.71,-224.47C371.62,-221.76 380.62,-218.75 389,-215.5 412.22,-206.5 437.17,-193.98 456.71,-183.48"/>
<polygon fill="#63b8ff" stroke="#63b8ff" points="458.44,-186.52 465.55,-178.66 455.09,-180.37 458.44,-186.52"/>
</g>
<!-- Node4&#45;&gt;Node2 -->
<g id="edge5" class="edge">
<title>Node4&#45;&gt;Node2</title>
<path fill="none" stroke="#63b8ff" d="M537.45,-178.51C567.62,-188.93 607.39,-202.67 636.13,-212.59"/>
<polygon fill="#63b8ff" stroke="#63b8ff" points="635.21,-215.98 645.81,-215.93 637.5,-209.36 635.21,-215.98"/>
</g>
<!-- Node5 -->
<g id="node5" class="node">
<title>Node5</title>
<g id="a_node5"><a xlink:href="structImChunkStream.html#a1a83609aaee47cf8b59a8ae09a04a06b" target="_top" xlink:title=" ">
<polygon fill="white" stroke="#666666" points="752,-176 597,-176 597,-157 752,-157 752,-176"/>
<text text-anchor="middle" x="674.5" y="-164" font-family="Helvetica,sans-Serif" font-size="10.00">ImChunkStream::chunk_size</text>
</a>
</g>
</g>
<!-- Node4&#45;&gt;Node5 -->
<g id="edge6" class="edge">
<title>Node4&#45;&gt;Node5</title>
<path fill="none" stroke="#63b8ff" d="M554.77,-164.52C565.02,-164.69 575.84,-164.87 586.6,-165.05"/>
<polygon fill="#63b8ff" stroke="#63b8ff" points="586.82,-168.55 596.88,-165.22 586.94,-161.55 586.82,-168.55"/>
</g>
<!-- Node6 -->
<g id="node6" class="node">
<title>Node6</title>
<g id="a_node6"><a xlink:href="structImChunkStream.html#a5c7faa90ac7fa02140a3298dbfdd5cad" target="_top" xlink:title=" ">
<polygon fill="white" stroke="#666666" points="734,-139 615,-139 615,-120 734,-120 734,-139"/>
<text text-anchor="middle" x="674.5" y="-127" font-family="Helvetica,sans-Serif" font-size="10.00">ImChunkStream::end</text>
</a>
</g>
</g>
<!-- Node4&#45;&gt;Node6 -->
<g id="edge7" class="edge">
<title>Node4&#45;&gt;Node6</title>
<path fill="none" stroke="#63b8ff" d="M554.77,-151.99C573.65,-148.41 594.45,-144.47 613.29,-140.9"/>
<polygon fill="#63b8ff" stroke="#63b8ff" points="614.06,-144.32 623.24,-139.02 612.76,-137.44 614.06,-144.32"/>
</g>
<!-- Node7&#45;&gt;Node2 -->
<g id="edge9" class="edge">
<title>Node7&#45;&gt;Node2</title>
<path fill="none" stroke="#63b8ff" d="M389.4,-203.26C453.37,-208.27 539.59,-215.02 600.21,-219.76"/>
<polygon fill="#63b8ff" stroke="#63b8ff" points="600.23,-223.28 610.47,-220.57 600.77,-216.3 600.23,-223.28"/>
</g>
<!-- Node7&#45;&gt;Node4 -->
<g id="edge10" class="edge">
<title>Node7&#45;&gt;Node4</title>
<path fill="none" stroke="#63b8ff" d="M357.41,-187C377.37,-183.51 400.26,-179.52 421.43,-175.82"/>
<polygon fill="#63b8ff" stroke="#63b8ff" points="422.09,-179.26 431.34,-174.09 420.89,-172.36 422.09,-179.26"/>
</g>
<!-- Node9 -->
<g id="node9" class="node">
<title>Node9</title>
<g id="a_node9"><a xlink:href="structImGuiStorage.html#ac86b64f5c69a15de6c6c326963eca64a" target="_top" xlink:title=" ">
<polygon fill="white" stroke="#666666" points="552.5,-130 433.5,-130 433.5,-111 552.5,-111 552.5,-130"/>
<text text-anchor="middle" x="493" y="-118" font-family="Helvetica,sans-Serif" font-size="10.00">ImGuiStorage::GetInt</text>
</a>
</g>
</g>
<!-- Node8&#45;&gt;Node9 -->
<g id="edge12" class="edge">
<title>Node8&#45;&gt;Node9</title>
<path fill="none" stroke="#63b8ff" d="M354.15,-120.5C375.38,-120.5 400.35,-120.5 423.15,-120.5"/>
<polygon fill="#63b8ff" stroke="#63b8ff" points="423.46,-124 433.46,-120.5 423.46,-117 423.46,-124"/>
</g>
<!-- Node10 -->
<g id="node10" class="node">
<title>Node10</title>
<g id="a_node10"><a xlink:href="imgui_8cpp.html#a409bfd6de574854cd644636ea13b6a8a" target="_top" xlink:title=" ">
<polygon fill="white" stroke="#666666" points="719,-101 630,-101 630,-82 719,-82 719,-101"/>
<text text-anchor="middle" x="674.5" y="-89" font-family="Helvetica,sans-Serif" font-size="10.00">ImLowerBound</text>
</a>
</g>
</g>
<!-- Node9&#45;&gt;Node10 -->
<g id="edge13" class="edge">
<title>Node9&#45;&gt;Node10</title>
<path fill="none" stroke="#63b8ff" d="M552.78,-111C574.39,-107.51 598.74,-103.58 619.88,-100.16"/>
<polygon fill="#63b8ff" stroke="#63b8ff" points="620.66,-103.58 629.97,-98.53 619.54,-96.67 620.66,-103.58"/>
</g>
<!-- Node12 -->
<g id="node12" class="node">
<title>Node12</title>
<g id="a_node12"><a xlink:href="structImPool.html#a39f9b742304d164c4298031537c1b09c" target="_top" xlink:title=" ">
<polygon fill="white" stroke="#666666" points="530.5,-56 455.5,-56 455.5,-37 530.5,-37 530.5,-56"/>
<text text-anchor="middle" x="493" y="-44" font-family="Helvetica,sans-Serif" font-size="10.00">ImPool::Add</text>
</a>
</g>
</g>
<!-- Node11&#45;&gt;Node12 -->
<g id="edge15" class="edge">
<title>Node11&#45;&gt;Node12</title>
<path fill="none" stroke="#63b8ff" d="M351.67,-73.97C380.51,-68.33 416.85,-61.21 445.33,-55.64"/>
<polygon fill="#63b8ff" stroke="#63b8ff" points="446.29,-59.01 455.43,-53.66 444.95,-52.15 446.29,-59.01"/>
</g>
<!-- Node13 -->
<g id="node13" class="node">
<title>Node13</title>
<g id="a_node13"><a xlink:href="structImGuiStorage.html#a28673fa7839263f3066ccb8e93e748a9" target="_top" xlink:title=" ">
<polygon fill="white" stroke="#666666" points="561,-93 425,-93 425,-74 561,-74 561,-93"/>
<text text-anchor="middle" x="493" y="-81" font-family="Helvetica,sans-Serif" font-size="10.00">ImGuiStorage::GetIntRef</text>
</a>
</g>
</g>
<!-- Node11&#45;&gt;Node13 -->
<g id="edge16" class="edge">
<title>Node11&#45;&gt;Node13</title>
<path fill="none" stroke="#63b8ff" d="M369.1,-83.5C383.81,-83.5 399.52,-83.5 414.63,-83.5"/>
<polygon fill="#63b8ff" stroke="#63b8ff" points="414.97,-87 424.97,-83.5 414.97,-80 414.97,-87"/>
</g>
<!-- Node13&#45;&gt;Node10 -->
<g id="edge17" class="edge">
<title>Node13&#45;&gt;Node10</title>
<path fill="none" stroke="#63b8ff" d="M561.09,-86.49C580.41,-87.35 601.23,-88.28 619.64,-89.1"/>
<polygon fill="#63b8ff" stroke="#63b8ff" points="619.73,-92.61 629.88,-89.56 620.04,-85.61 619.73,-92.61"/>
</g>
<!-- Node14 -->
<g id="node14" class="node">
<title>Node14</title>
<g id="a_node14"><a xlink:href="structImVector.html#a541c8cd4b844f5276f10d160cb500533" target="_top" xlink:title=" ">
<polygon fill="white" stroke="#666666" points="721.5,-63 627.5,-63 627.5,-44 721.5,-44 721.5,-63"/>
<text text-anchor="middle" x="674.5" y="-51" font-family="Helvetica,sans-Serif" font-size="10.00">ImVector::insert</text>
</a>
</g>
</g>
<!-- Node13&#45;&gt;Node14 -->
<g id="edge18" class="edge">
<title>Node13&#45;&gt;Node14</title>
<path fill="none" stroke="#63b8ff" d="M551.29,-73.93C572.36,-70.4 596.19,-66.42 617.18,-62.91"/>
<polygon fill="#63b8ff" stroke="#63b8ff" points="617.95,-66.33 627.23,-61.23 616.79,-59.43 617.95,-66.33"/>
</g>
<!-- Node15 -->
<g id="node15" class="node">
<title>Node15</title>
<g id="a_node15"><a xlink:href="structImVector.html#a3a097635d464b1b70dc7d59996a88b28" target="_top" xlink:title=" ">
<polygon fill="white" stroke="#666666" points="930,-63 788,-63 788,-44 930,-44 930,-63"/>
<text text-anchor="middle" x="859" y="-51" font-family="Helvetica,sans-Serif" font-size="10.00">ImVector::_grow_capacity</text>
</a>
</g>
</g>
<!-- Node14&#45;&gt;Node15 -->
<g id="edge19" class="edge">
<title>Node14&#45;&gt;Node15</title>
<path fill="none" stroke="#63b8ff" d="M721.55,-53.5C738.56,-53.5 758.37,-53.5 777.53,-53.5"/>
<polygon fill="#63b8ff" stroke="#63b8ff" points="777.78,-57 787.78,-53.5 777.78,-50 777.78,-57"/>
</g>
<!-- Node16 -->
<g id="node16" class="node">
<title>Node16</title>
<g id="a_node16"><a xlink:href="structImVector.html#a0f14f5736c3372157856eebb67123b75" target="_top" xlink:title=" ">
<polygon fill="white" stroke="#666666" points="910.5,-26 807.5,-26 807.5,-7 910.5,-7 910.5,-26"/>
<text text-anchor="middle" x="859" y="-14" font-family="Helvetica,sans-Serif" font-size="10.00">ImVector::reserve</text>
</a>
</g>
</g>
<!-- Node14&#45;&gt;Node16 -->
<g id="edge20" class="edge">
<title>Node14&#45;&gt;Node16</title>
<path fill="none" stroke="#63b8ff" d="M721.55,-44.16C745.7,-39.27 775.49,-33.23 801.07,-28.04"/>
<polygon fill="#63b8ff" stroke="#63b8ff" points="801.9,-31.44 811.01,-26.03 800.51,-24.58 801.9,-31.44"/>
</g>
<!-- Node17&#45;&gt;Node16 -->
<g id="edge23" class="edge">
<title>Node17&#45;&gt;Node16</title>
<path fill="none" stroke="#63b8ff" d="M541.21,-10.41C606.67,-11.67 725.04,-13.94 797.08,-15.33"/>
<polygon fill="#63b8ff" stroke="#63b8ff" points="797.3,-18.83 807.36,-15.53 797.43,-11.83 797.3,-18.83"/>
</g>
</g>
</svg>
