<?xml version="1.0" encoding="UTF-8" standalone="no"?>
<!DOCTYPE svg PUBLIC "-//W3C//DTD SVG 1.1//EN"
 "http://www.w3.org/Graphics/SVG/1.1/DTD/svg11.dtd">
<!-- Generated by graphviz version 2.43.0 (0)
 -->
<!-- Title: IMGUIZMO_NAMESPACE::DrawCubes Pages: 1 -->
<svg width="1224pt" height="355pt"
 viewBox="0.00 0.00 1224.00 354.50" xmlns="http://www.w3.org/2000/svg" xmlns:xlink="http://www.w3.org/1999/xlink">
<g id="graph0" class="graph" transform="scale(1 1) rotate(0) translate(4 350.5)">
<title>IMGUIZMO_NAMESPACE::DrawCubes</title>
<!-- Node1 -->
<g id="node1" class="node">
<title>Node1</title>
<g id="a_node1"><a xlink:title=" ">
<polygon fill="#999999" stroke="#666666" points="135,-168 0,-168 0,-138 135,-138 135,-168"/>
<text text-anchor="start" x="8" y="-156" font-family="Helvetica,sans-Serif" font-size="10.00">IMGUIZMO_NAMESPACE</text>
<text text-anchor="middle" x="67.5" y="-145" font-family="Helvetica,sans-Serif" font-size="10.00">::DrawCubes</text>
</a>
</g>
</g>
<!-- Node1&#45;&gt;Node1 -->
<g id="edge19" class="edge">
<title>Node1&#45;&gt;Node1</title>
<path fill="none" stroke="#63b8ff" d="M35.86,-168.28C28.83,-177.41 39.38,-186 67.5,-186 84.2,-186 94.7,-182.97 99.01,-178.6"/>
<polygon fill="#63b8ff" stroke="#63b8ff" points="102.51,-178.32 99.14,-168.28 95.51,-178.23 102.51,-178.32"/>
</g>
<!-- Node2 -->
<g id="node2" class="node">
<title>Node2</title>
<g id="a_node2"><a xlink:href="structImDrawList.html#ad2accc0a74845b08bd0e6fae6183d6d0" target="_top" xlink:title=" ">
<polygon fill="white" stroke="#666666" points="326,-324 171,-324 171,-294 326,-294 326,-324"/>
<text text-anchor="start" x="179" y="-312" font-family="Helvetica,sans-Serif" font-size="10.00">ImDrawList::AddConvexPoly</text>
<text text-anchor="middle" x="248.5" y="-301" font-family="Helvetica,sans-Serif" font-size="10.00">Filled</text>
</a>
</g>
</g>
<!-- Node1&#45;&gt;Node2 -->
<g id="edge1" class="edge">
<title>Node1&#45;&gt;Node2</title>
<path fill="none" stroke="#63b8ff" d="M76.17,-168.09C90.83,-195.46 125.49,-253.38 171,-285 173.15,-286.49 175.4,-287.9 177.72,-289.22"/>
<polygon fill="#63b8ff" stroke="#63b8ff" points="176.46,-292.5 186.96,-293.9 179.62,-286.26 176.46,-292.5"/>
</g>
<!-- Node11 -->
<g id="node11" class="node">
<title>Node11</title>
<g id="a_node11"><a xlink:href="namespaceIMGUIZMO__NAMESPACE.html#ac474fcbb3031ecc3cb25604749f0dfc3" target="_top" xlink:title=" ">
<polygon fill="white" stroke="#666666" points="318,-258 179,-258 179,-228 318,-228 318,-258"/>
<text text-anchor="start" x="187" y="-246" font-family="Helvetica,sans-Serif" font-size="10.00">IMGUIZMO_NAMESPACE</text>
<text text-anchor="middle" x="248.5" y="-235" font-family="Helvetica,sans-Serif" font-size="10.00">::ComputeFrustumPlanes</text>
</a>
</g>
</g>
<!-- Node1&#45;&gt;Node11 -->
<g id="edge12" class="edge">
<title>Node1&#45;&gt;Node11</title>
<path fill="none" stroke="#63b8ff" d="M88.37,-168.1C108.37,-182.72 140.52,-204.73 171,-219 175.08,-220.91 179.35,-222.72 183.7,-224.43"/>
<polygon fill="#63b8ff" stroke="#63b8ff" points="182.71,-227.8 193.31,-228 185.15,-221.23 182.71,-227.8"/>
</g>
<!-- Node14 -->
<g id="node14" class="node">
<title>Node14</title>
<g id="a_node14"><a xlink:href="namespaceIMGUIZMO__NAMESPACE.html#a55f0ec14eb479a210ee24149c9acb511" target="_top" xlink:title=" ">
<polygon fill="white" stroke="#666666" points="316,-192 181,-192 181,-162 316,-162 316,-192"/>
<text text-anchor="start" x="189" y="-180" font-family="Helvetica,sans-Serif" font-size="10.00">IMGUIZMO_NAMESPACE</text>
<text text-anchor="middle" x="248.5" y="-169" font-family="Helvetica,sans-Serif" font-size="10.00">::DistanceToPlane</text>
</a>
</g>
</g>
<!-- Node1&#45;&gt;Node14 -->
<g id="edge16" class="edge">
<title>Node1&#45;&gt;Node14</title>
<path fill="none" stroke="#63b8ff" d="M135.15,-161.94C146.68,-163.48 158.76,-165.1 170.54,-166.68"/>
<polygon fill="#63b8ff" stroke="#63b8ff" points="170.41,-170.2 180.79,-168.06 171.35,-163.26 170.41,-170.2"/>
</g>
<!-- Node16 -->
<g id="node16" class="node">
<title>Node16</title>
<g id="a_node16"><a xlink:href="structIMGUIZMO__NAMESPACE_1_1matrix__t.html#a56153c34b2b81d85c45009fcbb3d5edf" target="_top" xlink:title=" ">
<polygon fill="white" stroke="#666666" points="316,-144 181,-144 181,-114 316,-114 316,-144"/>
<text text-anchor="start" x="189" y="-132" font-family="Helvetica,sans-Serif" font-size="10.00">IMGUIZMO_NAMESPACE</text>
<text text-anchor="middle" x="248.5" y="-121" font-family="Helvetica,sans-Serif" font-size="10.00">::matrix_t::Inverse</text>
</a>
</g>
</g>
<!-- Node1&#45;&gt;Node16 -->
<g id="edge20" class="edge">
<title>Node1&#45;&gt;Node16</title>
<path fill="none" stroke="#63b8ff" d="M135.15,-144.06C146.68,-142.52 158.76,-140.9 170.54,-139.32"/>
<polygon fill="#63b8ff" stroke="#63b8ff" points="171.35,-142.74 180.79,-137.94 170.41,-135.8 171.35,-142.74"/>
</g>
<!-- Node18 -->
<g id="node18" class="node">
<title>Node18</title>
<g id="a_node18"><a xlink:href="structIMGUIZMO__NAMESPACE_1_1vec__t.html#a4061572fc192949bfc7a7b166feee3ad" target="_top" xlink:title=" ">
<polygon fill="white" stroke="#666666" points="504,-96 369,-96 369,-66 504,-66 504,-96"/>
<text text-anchor="start" x="377" y="-84" font-family="Helvetica,sans-Serif" font-size="10.00">IMGUIZMO_NAMESPACE</text>
<text text-anchor="middle" x="436.5" y="-73" font-family="Helvetica,sans-Serif" font-size="10.00">::vec_t::TransformPoint</text>
</a>
</g>
</g>
<!-- Node1&#45;&gt;Node18 -->
<g id="edge22" class="edge">
<title>Node1&#45;&gt;Node18</title>
<path fill="none" stroke="#63b8ff" d="M94.09,-137.95C114.27,-126.85 143.5,-112.44 171,-105 232.78,-88.29 305.32,-82.64 358.8,-80.98"/>
<polygon fill="#63b8ff" stroke="#63b8ff" points="358.99,-84.47 368.89,-80.7 358.8,-77.47 358.99,-84.47"/>
</g>
<!-- Node19 -->
<g id="node19" class="node">
<title>Node19</title>
<g id="a_node19"><a xlink:href="namespaceIMGUIZMO__NAMESPACE.html#a9da1a3b77a0d6c9def26bb7fcd98214b" target="_top" xlink:title=" ">
<polygon fill="white" stroke="#666666" points="316,-40 181,-40 181,-10 316,-10 316,-40"/>
<text text-anchor="start" x="189" y="-28" font-family="Helvetica,sans-Serif" font-size="10.00">IMGUIZMO_NAMESPACE</text>
<text text-anchor="middle" x="248.5" y="-17" font-family="Helvetica,sans-Serif" font-size="10.00">::worldToPos</text>
</a>
</g>
</g>
<!-- Node1&#45;&gt;Node19 -->
<g id="edge23" class="edge">
<title>Node1&#45;&gt;Node19</title>
<path fill="none" stroke="#63b8ff" d="M86.52,-137.7C106.61,-120.89 140.32,-93.43 171,-72 184.19,-62.79 199.17,-53.37 212.36,-45.4"/>
<polygon fill="#63b8ff" stroke="#63b8ff" points="214.38,-48.27 221.16,-40.14 210.78,-42.27 214.38,-48.27"/>
</g>
<!-- Node3 -->
<g id="node3" class="node">
<title>Node3</title>
<g id="a_node3"><a xlink:href="structImDrawList.html#a879aa38dbfb0344e3e023d65c002c7d7" target="_top" xlink:title=" ">
<polygon fill="white" stroke="#666666" points="506.5,-309.5 366.5,-309.5 366.5,-290.5 506.5,-290.5 506.5,-309.5"/>
<text text-anchor="middle" x="436.5" y="-297.5" font-family="Helvetica,sans-Serif" font-size="10.00">ImDrawList::PrimReserve</text>
</a>
</g>
</g>
<!-- Node2&#45;&gt;Node3 -->
<g id="edge2" class="edge">
<title>Node2&#45;&gt;Node3</title>
<path fill="none" stroke="#63b8ff" d="M326.23,-305.29C336.11,-304.81 346.24,-304.32 356.15,-303.84"/>
<polygon fill="#63b8ff" stroke="#63b8ff" points="356.58,-307.32 366.4,-303.34 356.24,-300.33 356.58,-307.32"/>
</g>
<!-- Node10 -->
<g id="node10" class="node">
<title>Node10</title>
<g id="a_node10"><a xlink:href="structImVector.html#a4120d4da7804ae0a34aa521dbb8e1994" target="_top" xlink:title=" ">
<polygon fill="white" stroke="#666666" points="508,-346.5 365,-346.5 365,-327.5 508,-327.5 508,-346.5"/>
<text text-anchor="middle" x="436.5" y="-334.5" font-family="Helvetica,sans-Serif" font-size="10.00">ImVector::reserve_discard</text>
</a>
</g>
</g>
<!-- Node2&#45;&gt;Node10 -->
<g id="edge11" class="edge">
<title>Node2&#45;&gt;Node10</title>
<path fill="none" stroke="#63b8ff" d="M326.23,-320.55C338.07,-322.33 350.27,-324.17 362.04,-325.94"/>
<polygon fill="#63b8ff" stroke="#63b8ff" points="361.84,-329.45 372.25,-327.48 362.88,-322.53 361.84,-329.45"/>
</g>
<!-- Node4 -->
<g id="node4" class="node">
<title>Node4</title>
<g id="a_node4"><a xlink:href="structImDrawList.html#a7f2e315f147acd8b555d86d1557659cc" target="_top" xlink:title=" ">
<polygon fill="white" stroke="#666666" points="703,-310 547,-310 547,-280 703,-280 703,-310"/>
<text text-anchor="start" x="555" y="-298" font-family="Helvetica,sans-Serif" font-size="10.00">ImDrawList::_OnChangedVtx</text>
<text text-anchor="middle" x="625" y="-287" font-family="Helvetica,sans-Serif" font-size="10.00">Offset</text>
</a>
</g>
</g>
<!-- Node3&#45;&gt;Node4 -->
<g id="edge3" class="edge">
<title>Node3&#45;&gt;Node4</title>
<path fill="none" stroke="#63b8ff" d="M506.68,-298.15C516.48,-297.88 526.65,-297.61 536.74,-297.34"/>
<polygon fill="#63b8ff" stroke="#63b8ff" points="536.87,-300.84 546.77,-297.07 536.68,-293.84 536.87,-300.84"/>
</g>
<!-- Node9 -->
<g id="node9" class="node">
<title>Node9</title>
<g id="a_node9"><a xlink:href="structImVector.html#ac371dd62e56ae486b1a5038cf07eee56" target="_top" xlink:title=" ">
<polygon fill="white" stroke="#666666" points="1026.5,-344.5 931.5,-344.5 931.5,-325.5 1026.5,-325.5 1026.5,-344.5"/>
<text text-anchor="middle" x="979" y="-332.5" font-family="Helvetica,sans-Serif" font-size="10.00">ImVector::resize</text>
</a>
</g>
</g>
<!-- Node3&#45;&gt;Node9 -->
<g id="edge8" class="edge">
<title>Node3&#45;&gt;Node9</title>
<path fill="none" stroke="#63b8ff" d="M484.2,-309.53C503.55,-313.11 526.28,-316.83 547,-319 680.55,-333 838.49,-335.24 921.12,-335.32"/>
<polygon fill="#63b8ff" stroke="#63b8ff" points="921.3,-338.82 931.3,-335.32 921.3,-331.82 921.3,-338.82"/>
</g>
<!-- Node5 -->
<g id="node5" class="node">
<title>Node5</title>
<g id="a_node5"><a xlink:href="structImDrawList.html#a846714bb0321c6f1f908767abc8559e6" target="_top" xlink:title=" ">
<polygon fill="white" stroke="#666666" points="884,-307.5 739,-307.5 739,-288.5 884,-288.5 884,-307.5"/>
<text text-anchor="middle" x="811.5" y="-295.5" font-family="Helvetica,sans-Serif" font-size="10.00">ImDrawList::AddDrawCmd</text>
</a>
</g>
</g>
<!-- Node4&#45;&gt;Node5 -->
<g id="edge4" class="edge">
<title>Node4&#45;&gt;Node5</title>
<path fill="none" stroke="#63b8ff" d="M703.18,-296.25C711.6,-296.39 720.2,-296.53 728.67,-296.67"/>
<polygon fill="#63b8ff" stroke="#63b8ff" points="728.88,-300.17 738.94,-296.84 728.99,-293.17 728.88,-300.17"/>
</g>
<!-- Node6 -->
<g id="node6" class="node">
<title>Node6</title>
<g id="a_node6"><a xlink:href="structImVector.html#aab5df48e0711a48bd12f3206e08c4108" target="_top" xlink:title=" ">
<polygon fill="white" stroke="#666666" points="1038,-307.5 920,-307.5 920,-288.5 1038,-288.5 1038,-307.5"/>
<text text-anchor="middle" x="979" y="-295.5" font-family="Helvetica,sans-Serif" font-size="10.00">ImVector::push_back</text>
</a>
</g>
</g>
<!-- Node5&#45;&gt;Node6 -->
<g id="edge5" class="edge">
<title>Node5&#45;&gt;Node6</title>
<path fill="none" stroke="#63b8ff" d="M884.13,-298C892.64,-298 901.31,-298 909.76,-298"/>
<polygon fill="#63b8ff" stroke="#63b8ff" points="909.96,-301.5 919.96,-298 909.96,-294.5 909.96,-301.5"/>
</g>
<!-- Node7 -->
<g id="node7" class="node">
<title>Node7</title>
<g id="a_node7"><a xlink:href="structImVector.html#a3a097635d464b1b70dc7d59996a88b28" target="_top" xlink:title=" ">
<polygon fill="white" stroke="#666666" points="1216,-344.5 1074,-344.5 1074,-325.5 1216,-325.5 1216,-344.5"/>
<text text-anchor="middle" x="1145" y="-332.5" font-family="Helvetica,sans-Serif" font-size="10.00">ImVector::_grow_capacity</text>
</a>
</g>
</g>
<!-- Node6&#45;&gt;Node7 -->
<g id="edge6" class="edge">
<title>Node6&#45;&gt;Node7</title>
<path fill="none" stroke="#63b8ff" d="M1022.23,-307.53C1043.39,-312.3 1069.19,-318.12 1091.6,-323.18"/>
<polygon fill="#63b8ff" stroke="#63b8ff" points="1091.1,-326.65 1101.62,-325.44 1092.64,-319.82 1091.1,-326.65"/>
</g>
<!-- Node8 -->
<g id="node8" class="node">
<title>Node8</title>
<g id="a_node8"><a xlink:href="structImVector.html#a0f14f5736c3372157856eebb67123b75" target="_top" xlink:title=" ">
<polygon fill="white" stroke="#666666" points="1196.5,-307.5 1093.5,-307.5 1093.5,-288.5 1196.5,-288.5 1196.5,-307.5"/>
<text text-anchor="middle" x="1145" y="-295.5" font-family="Helvetica,sans-Serif" font-size="10.00">ImVector::reserve</text>
</a>
</g>
</g>
<!-- Node6&#45;&gt;Node8 -->
<g id="edge7" class="edge">
<title>Node6&#45;&gt;Node8</title>
<path fill="none" stroke="#63b8ff" d="M1038.28,-298C1052.73,-298 1068.25,-298 1082.83,-298"/>
<polygon fill="#63b8ff" stroke="#63b8ff" points="1083.25,-301.5 1093.25,-298 1083.25,-294.5 1083.25,-301.5"/>
</g>
<!-- Node9&#45;&gt;Node7 -->
<g id="edge9" class="edge">
<title>Node9&#45;&gt;Node7</title>
<path fill="none" stroke="#63b8ff" d="M1026.56,-335C1038.14,-335 1050.89,-335 1063.59,-335"/>
<polygon fill="#63b8ff" stroke="#63b8ff" points="1063.74,-338.5 1073.74,-335 1063.74,-331.5 1063.74,-338.5"/>
</g>
<!-- Node9&#45;&gt;Node8 -->
<g id="edge10" class="edge">
<title>Node9&#45;&gt;Node8</title>
<path fill="none" stroke="#63b8ff" d="M1022.23,-325.47C1043.39,-320.7 1069.19,-314.88 1091.6,-309.82"/>
<polygon fill="#63b8ff" stroke="#63b8ff" points="1092.64,-313.18 1101.62,-307.56 1091.1,-306.35 1092.64,-313.18"/>
</g>
<!-- Node11&#45;&gt;Node11 -->
<g id="edge13" class="edge">
<title>Node11&#45;&gt;Node11</title>
<path fill="none" stroke="#63b8ff" d="M216.86,-258.28C209.83,-267.41 220.38,-276 248.5,-276 265.2,-276 275.7,-272.97 280.01,-268.6"/>
<polygon fill="#63b8ff" stroke="#63b8ff" points="283.51,-268.32 280.14,-258.28 276.51,-268.23 283.51,-268.32"/>
</g>
<!-- Node12 -->
<g id="node12" class="node">
<title>Node12</title>
<g id="a_node12"><a xlink:href="structIMGUIZMO__NAMESPACE_1_1vec__t.html#a2e18e8518186c392795c4cd17a4efd62" target="_top" xlink:title=" ">
<polygon fill="white" stroke="#666666" points="504,-258 369,-258 369,-228 504,-228 504,-258"/>
<text text-anchor="start" x="377" y="-246" font-family="Helvetica,sans-Serif" font-size="10.00">IMGUIZMO_NAMESPACE</text>
<text text-anchor="middle" x="436.5" y="-235" font-family="Helvetica,sans-Serif" font-size="10.00">::vec_t::Normalize</text>
</a>
</g>
</g>
<!-- Node11&#45;&gt;Node12 -->
<g id="edge14" class="edge">
<title>Node11&#45;&gt;Node12</title>
<path fill="none" stroke="#63b8ff" d="M318.23,-243C331.43,-243 345.32,-243 358.75,-243"/>
<polygon fill="#63b8ff" stroke="#63b8ff" points="358.91,-246.5 368.91,-243 358.91,-239.5 358.91,-246.5"/>
</g>
<!-- Node13 -->
<g id="node13" class="node">
<title>Node13</title>
<g id="a_node13"><a xlink:href="structIMGUIZMO__NAMESPACE_1_1vec__t.html#a16d93d6902554c6136645acca3237f3e" target="_top" xlink:title=" ">
<polygon fill="white" stroke="#666666" points="692.5,-258 557.5,-258 557.5,-228 692.5,-228 692.5,-258"/>
<text text-anchor="start" x="565.5" y="-246" font-family="Helvetica,sans-Serif" font-size="10.00">IMGUIZMO_NAMESPACE</text>
<text text-anchor="middle" x="625" y="-235" font-family="Helvetica,sans-Serif" font-size="10.00">::vec_t::Length</text>
</a>
</g>
</g>
<!-- Node12&#45;&gt;Node13 -->
<g id="edge15" class="edge">
<title>Node12&#45;&gt;Node13</title>
<path fill="none" stroke="#63b8ff" d="M504.04,-243C518.01,-243 532.86,-243 547.18,-243"/>
<polygon fill="#63b8ff" stroke="#63b8ff" points="547.48,-246.5 557.48,-243 547.48,-239.5 547.48,-246.5"/>
</g>
<!-- Node14&#45;&gt;Node14 -->
<g id="edge17" class="edge">
<title>Node14&#45;&gt;Node14</title>
<path fill="none" stroke="#63b8ff" d="M216.86,-192.28C209.83,-201.41 220.38,-210 248.5,-210 265.2,-210 275.7,-206.97 280.01,-202.6"/>
<polygon fill="#63b8ff" stroke="#63b8ff" points="283.51,-202.32 280.14,-192.28 276.51,-202.23 283.51,-202.32"/>
</g>
<!-- Node15 -->
<g id="node15" class="node">
<title>Node15</title>
<g id="a_node15"><a xlink:href="structIMGUIZMO__NAMESPACE_1_1vec__t.html#ae78d8d568c3de60c572a5fa74fe8b38b" target="_top" xlink:title=" ">
<polygon fill="white" stroke="#666666" points="504,-192 369,-192 369,-162 504,-162 504,-192"/>
<text text-anchor="start" x="377" y="-180" font-family="Helvetica,sans-Serif" font-size="10.00">IMGUIZMO_NAMESPACE</text>
<text text-anchor="middle" x="436.5" y="-169" font-family="Helvetica,sans-Serif" font-size="10.00">::vec_t::Dot3</text>
</a>
</g>
</g>
<!-- Node14&#45;&gt;Node15 -->
<g id="edge18" class="edge">
<title>Node14&#45;&gt;Node15</title>
<path fill="none" stroke="#63b8ff" d="M316.12,-177C329.88,-177 344.48,-177 358.57,-177"/>
<polygon fill="#63b8ff" stroke="#63b8ff" points="358.72,-180.5 368.72,-177 358.72,-173.5 358.72,-180.5"/>
</g>
<!-- Node17 -->
<g id="node17" class="node">
<title>Node17</title>
<g id="a_node17"><a xlink:href="structIMGUIZMO__NAMESPACE_1_1matrix__t.html#aaee954cef92bba7853147b3e75feff25" target="_top" xlink:title=" ">
<polygon fill="white" stroke="#666666" points="511,-144 362,-144 362,-114 511,-114 511,-144"/>
<text text-anchor="start" x="370" y="-132" font-family="Helvetica,sans-Serif" font-size="10.00">IMGUIZMO_NAMESPACE</text>
<text text-anchor="middle" x="436.5" y="-121" font-family="Helvetica,sans-Serif" font-size="10.00">::matrix_t::GetDeterminant</text>
</a>
</g>
</g>
<!-- Node16&#45;&gt;Node17 -->
<g id="edge21" class="edge">
<title>Node16&#45;&gt;Node17</title>
<path fill="none" stroke="#63b8ff" d="M316.12,-129C327.57,-129 339.6,-129 351.44,-129"/>
<polygon fill="#63b8ff" stroke="#63b8ff" points="351.77,-132.5 361.77,-129 351.77,-125.5 351.77,-132.5"/>
</g>
<!-- Node19&#45;&gt;Node18 -->
<g id="edge26" class="edge">
<title>Node19&#45;&gt;Node18</title>
<path fill="none" stroke="#63b8ff" d="M299.34,-40.01C322.9,-47.1 351.21,-55.62 375.9,-63.06"/>
<polygon fill="#63b8ff" stroke="#63b8ff" points="374.93,-66.42 385.52,-65.95 376.95,-59.72 374.93,-66.42"/>
</g>
<!-- Node19&#45;&gt;Node19 -->
<g id="edge27" class="edge">
<title>Node19&#45;&gt;Node19</title>
<path fill="none" stroke="#63b8ff" d="M216.86,-40.28C209.83,-49.41 220.38,-58 248.5,-58 265.2,-58 275.7,-54.97 280.01,-50.6"/>
<polygon fill="#63b8ff" stroke="#63b8ff" points="283.51,-50.32 280.14,-40.28 276.51,-50.23 283.51,-50.32"/>
</g>
<!-- Node20 -->
<g id="node20" class="node">
<title>Node20</title>
<g id="a_node20"><a xlink:href="namespaceIMGUIZMO__NAMESPACE.html#a76324649a802fbc72ff34c3256822518" target="_top" xlink:title=" ">
<polygon fill="white" stroke="#666666" points="504,-30 369,-30 369,0 504,0 504,-30"/>
<text text-anchor="start" x="377" y="-18" font-family="Helvetica,sans-Serif" font-size="10.00">IMGUIZMO_NAMESPACE</text>
<text text-anchor="middle" x="436.5" y="-7" font-family="Helvetica,sans-Serif" font-size="10.00">::makeVect</text>
</a>
</g>
</g>
<!-- Node19&#45;&gt;Node20 -->
<g id="edge24" class="edge">
<title>Node19&#45;&gt;Node20</title>
<path fill="none" stroke="#63b8ff" d="M316.12,-21.42C329.88,-20.68 344.48,-19.89 358.57,-19.14"/>
<polygon fill="#63b8ff" stroke="#63b8ff" points="358.92,-22.62 368.72,-18.59 358.54,-15.63 358.92,-22.62"/>
</g>
<!-- Node20&#45;&gt;Node20 -->
<g id="edge25" class="edge">
<title>Node20&#45;&gt;Node20</title>
<path fill="none" stroke="#63b8ff" d="M403.45,-30.28C396.11,-39.41 407.12,-48 436.5,-48 453.94,-48 464.91,-44.97 469.41,-40.6"/>
<polygon fill="#63b8ff" stroke="#63b8ff" points="472.91,-40.32 469.55,-30.28 465.91,-40.23 472.91,-40.32"/>
</g>
</g>
</svg>
