<?xml version="1.0" encoding="UTF-8" standalone="no"?>
<!DOCTYPE svg PUBLIC "-//W3C//DTD SVG 1.1//EN"
 "http://www.w3.org/Graphics/SVG/1.1/DTD/svg11.dtd">
<!-- Generated by graphviz version 2.43.0 (0)
 -->
<!-- Title: ImGui::BeginMultiSelect Pages: 1 -->
<svg width="1519pt" height="791pt"
 viewBox="0.00 0.00 1519.00 791.03" xmlns="http://www.w3.org/2000/svg" xmlns:xlink="http://www.w3.org/1999/xlink">
<g id="graph0" class="graph" transform="scale(1 1) rotate(0) translate(4 787.03)">
<title>ImGui::BeginMultiSelect</title>
<!-- Node1 -->
<g id="node1" class="node">
<title>Node1</title>
<g id="a_node1"><a xlink:title=" ">
<polygon fill="#999999" stroke="#666666" points="134,-370 0,-370 0,-351 134,-351 134,-370"/>
<text text-anchor="middle" x="67" y="-358" font-family="Helvetica,sans-Serif" font-size="10.00">ImGui::BeginMultiSelect</text>
</a>
</g>
</g>
<!-- Node2 -->
<g id="node2" class="node">
<title>Node2</title>
<g id="a_node2"><a xlink:href="structImVector.html#a2d80e87e81b1b01143c8d8be93e6fde1" target="_top" xlink:title=" ">
<polygon fill="white" stroke="#666666" points="720.5,-706 631.5,-706 631.5,-687 720.5,-687 720.5,-706"/>
<text text-anchor="middle" x="676" y="-694" font-family="Helvetica,sans-Serif" font-size="10.00">ImVector::back</text>
</a>
</g>
</g>
<!-- Node1&#45;&gt;Node2 -->
<g id="edge1" class="edge">
<title>Node1&#45;&gt;Node2</title>
<path fill="none" stroke="#63b8ff" d="M67.97,-370.07C68.39,-411.59 76.1,-577.37 170,-650.5 239.11,-704.32 505.91,-702.27 621.31,-698.68"/>
<polygon fill="#63b8ff" stroke="#63b8ff" points="621.45,-702.18 631.33,-698.35 621.23,-695.18 621.45,-702.18"/>
</g>
<!-- Node3 -->
<g id="node3" class="node">
<title>Node3</title>
<g id="a_node3"><a xlink:href="namespaceImGui.html#a84a0b1a5b8f5c4ecd102ea009926c96f" target="_top" xlink:title=" ">
<polygon fill="white" stroke="#666666" points="316.5,-370 188.5,-370 188.5,-351 316.5,-351 316.5,-370"/>
<text text-anchor="middle" x="252.5" y="-358" font-family="Helvetica,sans-Serif" font-size="10.00">ImGui::BeginBoxSelect</text>
</a>
</g>
</g>
<!-- Node1&#45;&gt;Node3 -->
<g id="edge2" class="edge">
<title>Node1&#45;&gt;Node3</title>
<path fill="none" stroke="#63b8ff" d="M134.25,-360.5C148.46,-360.5 163.55,-360.5 178.02,-360.5"/>
<polygon fill="#63b8ff" stroke="#63b8ff" points="178.41,-364 188.41,-360.5 178.41,-357 178.41,-364"/>
</g>
<!-- Node8 -->
<g id="node8" class="node">
<title>Node8</title>
<g id="a_node8"><a xlink:href="structImVector.html#ac371dd62e56ae486b1a5038cf07eee56" target="_top" xlink:title=" ">
<polygon fill="white" stroke="#666666" points="1321.5,-557 1226.5,-557 1226.5,-538 1321.5,-538 1321.5,-557"/>
<text text-anchor="middle" x="1274" y="-545" font-family="Helvetica,sans-Serif" font-size="10.00">ImVector::resize</text>
</a>
</g>
</g>
<!-- Node1&#45;&gt;Node8 -->
<g id="edge49" class="edge">
<title>Node1&#45;&gt;Node8</title>
<path fill="none" stroke="#63b8ff" d="M75.65,-370.29C91.34,-389.75 129.13,-433.55 170,-458.5 287.69,-530.34 329.61,-546.5 467.5,-546.5 467.5,-546.5 467.5,-546.5 872.5,-546.5 995.11,-546.5 1138.83,-546.97 1216.4,-547.27"/>
<polygon fill="#63b8ff" stroke="#63b8ff" points="1216.43,-550.77 1226.44,-547.31 1216.46,-543.77 1216.43,-550.77"/>
</g>
<!-- Node14 -->
<g id="node14" class="node">
<title>Node14</title>
<g id="a_node14"><a xlink:href="imgui__widgets_8cpp.html#accd8005e99d8b82d357441e068f46393" target="_top" xlink:title=" ">
<polygon fill="white" stroke="#666666" points="539.5,-518 397.5,-518 397.5,-499 539.5,-499 539.5,-518"/>
<text text-anchor="middle" x="468.5" y="-506" font-family="Helvetica,sans-Serif" font-size="10.00">BoxSelectDeactivateDrag</text>
</a>
</g>
</g>
<!-- Node1&#45;&gt;Node14 -->
<g id="edge22" class="edge">
<title>Node1&#45;&gt;Node14</title>
<path fill="none" stroke="#63b8ff" d="M86.25,-370.04C132.58,-393.86 258.99,-456.48 371,-490.5 378.77,-492.86 386.99,-494.96 395.22,-496.83"/>
<polygon fill="#63b8ff" stroke="#63b8ff" points="394.72,-500.3 405.24,-498.98 396.19,-493.46 394.72,-500.3"/>
</g>
<!-- Node22 -->
<g id="node22" class="node">
<title>Node22</title>
<g id="a_node22"><a xlink:href="imgui__widgets_8cpp.html#ac9b0e445a514615821a5f2c815a00717" target="_top" xlink:title=" ">
<polygon fill="white" stroke="#666666" points="297,-259 208,-259 208,-240 297,-240 297,-259"/>
<text text-anchor="middle" x="252.5" y="-247" font-family="Helvetica,sans-Serif" font-size="10.00">CalcScopeRect</text>
</a>
</g>
</g>
<!-- Node1&#45;&gt;Node22 -->
<g id="edge23" class="edge">
<title>Node1&#45;&gt;Node22</title>
<path fill="none" stroke="#63b8ff" d="M83.96,-350.84C116.04,-331.44 188.49,-287.61 226.76,-264.47"/>
<polygon fill="#63b8ff" stroke="#63b8ff" points="228.96,-267.23 235.7,-259.05 225.34,-261.24 228.96,-267.23"/>
</g>
<!-- Node23 -->
<g id="node23" class="node">
<title>Node23</title>
<g id="a_node23"><a xlink:href="structImGuiMultiSelectTempData.html#ac5c33d16dd86731d0de5f72ae0fff899" target="_top" xlink:title=" ">
<polygon fill="white" stroke="#666666" points="327.5,-122.5 177.5,-122.5 177.5,-92.5 327.5,-92.5 327.5,-122.5"/>
<text text-anchor="start" x="185.5" y="-110.5" font-family="Helvetica,sans-Serif" font-size="10.00">ImGuiMultiSelectTempData</text>
<text text-anchor="middle" x="252.5" y="-99.5" font-family="Helvetica,sans-Serif" font-size="10.00">::Clear</text>
</a>
</g>
</g>
<!-- Node1&#45;&gt;Node23 -->
<g id="edge26" class="edge">
<title>Node1&#45;&gt;Node23</title>
<path fill="none" stroke="#63b8ff" d="M69.62,-350.85C75.9,-316.55 101.69,-199.21 170,-136.5 173.78,-133.03 177.99,-129.98 182.47,-127.28"/>
<polygon fill="#63b8ff" stroke="#63b8ff" points="184.17,-130.34 191.34,-122.53 180.87,-124.17 184.17,-130.34"/>
</g>
<!-- Node24 -->
<g id="node24" class="node">
<title>Node24</title>
<g id="a_node24"><a xlink:href="imgui__widgets_8cpp.html#a9ae4f75e7860b31344c979fb2d3e2e68" target="_top" xlink:title=" ">
<polygon fill="white" stroke="#666666" points="335,-74 170,-74 170,-55 335,-55 335,-74"/>
<text text-anchor="middle" x="252.5" y="-62" font-family="Helvetica,sans-Serif" font-size="10.00">DebugLogMultiSelectRequests</text>
</a>
</g>
</g>
<!-- Node1&#45;&gt;Node24 -->
<g id="edge27" class="edge">
<title>Node1&#45;&gt;Node24</title>
<path fill="none" stroke="#63b8ff" d="M68.42,-350.86C70.71,-311.13 84.92,-158.65 170,-83.5 171.77,-81.94 173.64,-80.5 175.6,-79.17"/>
<polygon fill="#63b8ff" stroke="#63b8ff" points="177.68,-82.01 184.65,-74.04 174.22,-75.92 177.68,-82.01"/>
</g>
<!-- Node25 -->
<g id="node25" class="node">
<title>Node25</title>
<g id="a_node25"><a xlink:href="namespaceImGui.html#a3329b04bd4235e90ad9deb00ffb38ae4" target="_top" xlink:title=" ">
<polygon fill="white" stroke="#666666" points="292.5,-641 212.5,-641 212.5,-622 292.5,-622 292.5,-641"/>
<text text-anchor="middle" x="252.5" y="-629" font-family="Helvetica,sans-Serif" font-size="10.00">ImGui::GetID</text>
</a>
</g>
</g>
<!-- Node1&#45;&gt;Node25 -->
<g id="edge28" class="edge">
<title>Node1&#45;&gt;Node25</title>
<path fill="none" stroke="#63b8ff" d="M69.45,-370.14C75.26,-405.55 100.01,-529.91 170,-598.5 179.12,-607.44 190.98,-614.06 202.82,-618.92"/>
<polygon fill="#63b8ff" stroke="#63b8ff" points="201.66,-622.22 212.25,-622.45 204.11,-615.67 201.66,-622.22"/>
</g>
<!-- Node30 -->
<g id="node30" class="node">
<title>Node30</title>
<g id="a_node30"><a xlink:href="structImPool.html#a47973a2eac8e4c06ef369ac02d23f4e5" target="_top" xlink:title=" ">
<polygon fill="white" stroke="#666666" points="938.5,-198 804.5,-198 804.5,-179 938.5,-179 938.5,-198"/>
<text text-anchor="middle" x="871.5" y="-186" font-family="Helvetica,sans-Serif" font-size="10.00">ImPool::GetOrAddByKey</text>
</a>
</g>
</g>
<!-- Node1&#45;&gt;Node30 -->
<g id="edge35" class="edge">
<title>Node1&#45;&gt;Node30</title>
<path fill="none" stroke="#63b8ff" d="M71,-350.81C80.43,-322.04 112.31,-236.52 170,-194.5 244.33,-140.37 279.71,-156.47 371,-145.5 533.63,-125.96 727.09,-158.39 818.17,-176.94"/>
<polygon fill="#63b8ff" stroke="#63b8ff" points="817.47,-180.37 827.97,-178.96 818.88,-173.51 817.47,-180.37"/>
</g>
<!-- Node35 -->
<g id="node35" class="node">
<title>Node35</title>
<g id="a_node35"><a xlink:href="namespaceImGui.html#a51e29bae6ffe6afa11810a05d8aef616" target="_top" xlink:title=" ">
<polygon fill="white" stroke="#666666" points="1163,-594 1009,-594 1009,-575 1163,-575 1163,-594"/>
<text text-anchor="middle" x="1086" y="-582" font-family="Helvetica,sans-Serif" font-size="10.00">ImGui::MultiSelectAddSetAll</text>
</a>
</g>
</g>
<!-- Node1&#45;&gt;Node35 -->
<g id="edge42" class="edge">
<title>Node1&#45;&gt;Node35</title>
<path fill="none" stroke="#63b8ff" d="M69.57,-370.19C75.52,-403.48 100.04,-513.67 170,-560.5 280.24,-634.28 334.85,-584.5 467.5,-584.5 467.5,-584.5 467.5,-584.5 677,-584.5 788.01,-584.5 916,-584.5 998.58,-584.5"/>
<polygon fill="#63b8ff" stroke="#63b8ff" points="998.68,-588 1008.68,-584.5 998.68,-581 998.68,-588"/>
</g>
<!-- Node37 -->
<g id="node37" class="node">
<title>Node37</title>
<g id="a_node37"><a xlink:href="namespaceImGui.html#ad10256d914b625cea7494b26c77b84ec" target="_top" xlink:title=" ">
<polygon fill="white" stroke="#666666" points="937.5,-725 805.5,-725 805.5,-706 937.5,-706 937.5,-725"/>
<text text-anchor="middle" x="871.5" y="-713" font-family="Helvetica,sans-Serif" font-size="10.00">ImGui::PushFocusScope</text>
</a>
</g>
</g>
<!-- Node1&#45;&gt;Node37 -->
<g id="edge47" class="edge">
<title>Node1&#45;&gt;Node37</title>
<path fill="none" stroke="#63b8ff" d="M67.65,-370.14C66.63,-414.35 68.71,-599.25 170,-684.5 366.86,-850.2 716.19,-763.41 832,-728.11"/>
<polygon fill="#63b8ff" stroke="#63b8ff" points="833.32,-731.36 841.84,-725.06 831.25,-724.68 833.32,-731.36"/>
</g>
<!-- Node38 -->
<g id="node38" class="node">
<title>Node38</title>
<g id="a_node38"><a xlink:href="namespaceImGui.html#a5a7ca2346e4eb2dfe08a396349df7995" target="_top" xlink:title=" ">
<polygon fill="white" stroke="#666666" points="298.5,-19 206.5,-19 206.5,0 298.5,0 298.5,-19"/>
<text text-anchor="middle" x="252.5" y="-7" font-family="Helvetica,sans-Serif" font-size="10.00">ImGui::Shortcut</text>
</a>
</g>
</g>
<!-- Node1&#45;&gt;Node38 -->
<g id="edge50" class="edge">
<title>Node1&#45;&gt;Node38</title>
<path fill="none" stroke="#63b8ff" d="M68.37,-350.89C70.46,-309.06 84.13,-140.68 170,-45.5 179,-35.52 191.27,-28.17 203.57,-22.81"/>
<polygon fill="#63b8ff" stroke="#63b8ff" points="204.92,-26.04 212.92,-19.1 202.33,-19.54 204.92,-26.04"/>
</g>
<!-- Node39 -->
<g id="node39" class="node">
<title>Node39</title>
<g id="a_node39"><a xlink:href="namespaceImGui.html#ae2058909b56d7169e34a6cfefb1ac2f3" target="_top" xlink:title=" ">
<polygon fill="white" stroke="#666666" points="309.5,-222 195.5,-222 195.5,-203 309.5,-203 309.5,-222"/>
<text text-anchor="middle" x="252.5" y="-210" font-family="Helvetica,sans-Serif" font-size="10.00">ImGui::TableEndCell</text>
</a>
</g>
</g>
<!-- Node1&#45;&gt;Node39 -->
<g id="edge52" class="edge">
<title>Node1&#45;&gt;Node39</title>
<path fill="none" stroke="#63b8ff" d="M72.65,-350.91C84.9,-326.72 120.58,-262.86 170,-231.5 174.75,-228.48 179.94,-225.95 185.31,-223.81"/>
<polygon fill="#63b8ff" stroke="#63b8ff" points="186.84,-226.98 195.13,-220.38 184.53,-220.37 186.84,-226.98"/>
</g>
<!-- Node4 -->
<g id="node4" class="node">
<title>Node4</title>
<g id="a_node4"><a xlink:href="structImRect.html#a68996cb6b16a023f0a051981cd5be89e" target="_top" xlink:title=" ">
<polygon fill="white" stroke="#666666" points="506.5,-444 430.5,-444 430.5,-425 506.5,-425 506.5,-444"/>
<text text-anchor="middle" x="468.5" y="-432" font-family="Helvetica,sans-Serif" font-size="10.00">ImRect::Add</text>
</a>
</g>
</g>
<!-- Node3&#45;&gt;Node4 -->
<g id="edge3" class="edge">
<title>Node3&#45;&gt;Node4</title>
<path fill="none" stroke="#63b8ff" d="M270.05,-370.1C292.3,-382.59 333.39,-404.26 371,-416.5 386.69,-421.6 404.31,-425.42 420.16,-428.2"/>
<polygon fill="#63b8ff" stroke="#63b8ff" points="419.84,-431.69 430.28,-429.87 420.98,-424.79 419.84,-431.69"/>
</g>
<!-- Node5 -->
<g id="node5" class="node">
<title>Node5</title>
<g id="a_node5"><a xlink:href="imgui__widgets_8cpp.html#a1371d58fed38c77d5b82f82c4ec9ff05" target="_top" xlink:title=" ">
<polygon fill="white" stroke="#666666" points="533,-333 404,-333 404,-314 533,-314 533,-333"/>
<text text-anchor="middle" x="468.5" y="-321" font-family="Helvetica,sans-Serif" font-size="10.00">BoxSelectActivateDrag</text>
</a>
</g>
</g>
<!-- Node3&#45;&gt;Node5 -->
<g id="edge4" class="edge">
<title>Node3&#45;&gt;Node5</title>
<path fill="none" stroke="#63b8ff" d="M308.61,-350.97C337.21,-346.03 372.32,-339.96 402.27,-334.78"/>
<polygon fill="#63b8ff" stroke="#63b8ff" points="402.95,-338.21 412.2,-333.06 401.75,-331.32 402.95,-338.21"/>
</g>
<!-- Node3&#45;&gt;Node14 -->
<g id="edge13" class="edge">
<title>Node3&#45;&gt;Node14</title>
<path fill="none" stroke="#63b8ff" d="M264.69,-370.13C281.01,-384.44 311.94,-412.55 335,-439.5 353.04,-460.58 347.65,-475.52 371,-490.5 376.1,-493.77 381.65,-496.48 387.41,-498.72"/>
<polygon fill="#63b8ff" stroke="#63b8ff" points="386.7,-502.17 397.29,-502.07 388.94,-495.54 386.7,-502.17"/>
</g>
<!-- Node16 -->
<g id="node16" class="node">
<title>Node16</title>
<g id="a_node16"><a xlink:href="imgui__internal_8h.html#a6e61ede308bfd68c7434e17905a29fc8" target="_top" xlink:title=" ">
<polygon fill="white" stroke="#666666" points="499,-407 438,-407 438,-388 499,-388 499,-407"/>
<text text-anchor="middle" x="468.5" y="-395" font-family="Helvetica,sans-Serif" font-size="10.00">ImClamp</text>
</a>
</g>
</g>
<!-- Node3&#45;&gt;Node16 -->
<g id="edge16" class="edge">
<title>Node3&#45;&gt;Node16</title>
<path fill="none" stroke="#63b8ff" d="M308.61,-370.03C345.98,-376.49 394.5,-384.88 428.04,-390.68"/>
<polygon fill="#63b8ff" stroke="#63b8ff" points="427.49,-394.13 437.94,-392.39 428.68,-387.24 427.49,-394.13"/>
</g>
<!-- Node17 -->
<g id="node17" class="node">
<title>Node17</title>
<g id="a_node17"><a xlink:href="imgui__internal_8h.html#a7667efd95147d0422f140917c71a9226" target="_top" xlink:title=" ">
<polygon fill="white" stroke="#666666" points="493.5,-222 443.5,-222 443.5,-203 493.5,-203 493.5,-222"/>
<text text-anchor="middle" x="468.5" y="-210" font-family="Helvetica,sans-Serif" font-size="10.00">ImMax</text>
</a>
</g>
</g>
<!-- Node3&#45;&gt;Node17 -->
<g id="edge17" class="edge">
<title>Node3&#45;&gt;Node17</title>
<path fill="none" stroke="#63b8ff" d="M262.1,-350.73C288.02,-321.32 364.01,-235.44 371,-231.5 389.95,-220.82 413.94,-216.06 433.26,-213.98"/>
<polygon fill="#63b8ff" stroke="#63b8ff" points="433.8,-217.45 443.45,-213.08 433.18,-210.47 433.8,-217.45"/>
</g>
<!-- Node18 -->
<g id="node18" class="node">
<title>Node18</title>
<g id="a_node18"><a xlink:href="imgui__internal_8h.html#a7f9d7828066a9d61b5630adcdf4655d3" target="_top" xlink:title=" ">
<polygon fill="white" stroke="#666666" points="492,-259 445,-259 445,-240 492,-240 492,-259"/>
<text text-anchor="middle" x="468.5" y="-247" font-family="Helvetica,sans-Serif" font-size="10.00">ImMin</text>
</a>
</g>
</g>
<!-- Node3&#45;&gt;Node18 -->
<g id="edge18" class="edge">
<title>Node3&#45;&gt;Node18</title>
<path fill="none" stroke="#63b8ff" d="M262.51,-350.9C280.93,-331.9 325.06,-289.53 371,-268.5 391.04,-259.32 415.41,-254.57 434.64,-252.11"/>
<polygon fill="#63b8ff" stroke="#63b8ff" points="435.2,-255.57 444.74,-250.97 434.41,-248.62 435.2,-255.57"/>
</g>
<!-- Node19 -->
<g id="node19" class="node">
<title>Node19</title>
<g id="a_node19"><a xlink:href="namespaceImGui.html#ad1b3473eaad344022a022acfd45b0f5c" target="_top" xlink:title=" ">
<polygon fill="white" stroke="#666666" points="560.5,-370 376.5,-370 376.5,-351 560.5,-351 560.5,-370"/>
<text text-anchor="middle" x="468.5" y="-358" font-family="Helvetica,sans-Serif" font-size="10.00">ImGui::IsMouseDragPastThreshold</text>
</a>
</g>
</g>
<!-- Node3&#45;&gt;Node19 -->
<g id="edge19" class="edge">
<title>Node3&#45;&gt;Node19</title>
<path fill="none" stroke="#63b8ff" d="M316.55,-360.5C332.07,-360.5 349.08,-360.5 365.91,-360.5"/>
<polygon fill="#63b8ff" stroke="#63b8ff" points="366.36,-364 376.36,-360.5 366.36,-357 366.36,-364"/>
</g>
<!-- Node20 -->
<g id="node20" class="node">
<title>Node20</title>
<g id="a_node20"><a xlink:href="namespaceImGui.html#a85a245c78a9f7c351636bdad6e60c488" target="_top" xlink:title=" ">
<polygon fill="white" stroke="#666666" points="524,-296 413,-296 413,-277 524,-277 524,-296"/>
<text text-anchor="middle" x="468.5" y="-284" font-family="Helvetica,sans-Serif" font-size="10.00">ImGui::KeepAliveID</text>
</a>
</g>
</g>
<!-- Node3&#45;&gt;Node20 -->
<g id="edge20" class="edge">
<title>Node3&#45;&gt;Node20</title>
<path fill="none" stroke="#63b8ff" d="M270.48,-350.94C292.86,-338.71 333.75,-317.68 371,-305.5 381.19,-302.17 392.18,-299.33 402.98,-296.94"/>
<polygon fill="#63b8ff" stroke="#63b8ff" points="403.74,-300.35 412.8,-294.87 402.3,-293.5 403.74,-300.35"/>
</g>
<!-- Node21 -->
<g id="node21" class="node">
<title>Node21</title>
<g id="a_node21"><a xlink:href="namespaceImGui.html#a7e0c722c925ab942261618abd18b1dc9" target="_top" xlink:title=" ">
<polygon fill="white" stroke="#666666" points="544.5,-481 392.5,-481 392.5,-462 544.5,-462 544.5,-481"/>
<text text-anchor="middle" x="468.5" y="-469" font-family="Helvetica,sans-Serif" font-size="10.00">ImGui::WindowPosRelToAbs</text>
</a>
</g>
</g>
<!-- Node3&#45;&gt;Node21 -->
<g id="edge21" class="edge">
<title>Node3&#45;&gt;Node21</title>
<path fill="none" stroke="#63b8ff" d="M262.47,-370.25C280.82,-389.53 324.82,-432.49 371,-453.5 375.58,-455.59 380.4,-457.43 385.32,-459.06"/>
<polygon fill="#63b8ff" stroke="#63b8ff" points="384.32,-462.41 394.91,-461.94 386.34,-455.71 384.32,-462.41"/>
</g>
<!-- Node6 -->
<g id="node6" class="node">
<title>Node6</title>
<g id="a_node6"><a xlink:href="namespaceImGui.html#a27b8ace13a8c421ee8405f0cbebe4ead" target="_top" xlink:title=" ">
<polygon fill="white" stroke="#666666" points="926,-518 817,-518 817,-499 926,-499 926,-518"/>
<text text-anchor="middle" x="871.5" y="-506" font-family="Helvetica,sans-Serif" font-size="10.00">ImGui::SetActiveID</text>
</a>
</g>
</g>
<!-- Node5&#45;&gt;Node6 -->
<g id="edge5" class="edge">
<title>Node5&#45;&gt;Node6</title>
<path fill="none" stroke="#63b8ff" d="M532.55,-333.03C543.85,-335.55 555.4,-338.67 566,-342.5 678.25,-383.06 799.23,-460.34 848.12,-493.15"/>
<polygon fill="#63b8ff" stroke="#63b8ff" points="846.41,-496.22 856.66,-498.92 850.33,-490.42 846.41,-496.22"/>
</g>
<!-- Node11 -->
<g id="node11" class="node">
<title>Node11</title>
<g id="a_node11"><a xlink:href="namespaceImGui.html#a5e5b2b1969b119d6932116f28fbd4d53" target="_top" xlink:title=" ">
<polygon fill="white" stroke="#666666" points="750,-338.5 602,-338.5 602,-308.5 750,-308.5 750,-338.5"/>
<text text-anchor="start" x="610" y="-326.5" font-family="Helvetica,sans-Serif" font-size="10.00">ImGui::SetActiveIdUsingAll</text>
<text text-anchor="middle" x="676" y="-315.5" font-family="Helvetica,sans-Serif" font-size="10.00">KeyboardKeys</text>
</a>
</g>
</g>
<!-- Node5&#45;&gt;Node11 -->
<g id="edge10" class="edge">
<title>Node5&#45;&gt;Node11</title>
<path fill="none" stroke="#63b8ff" d="M533.11,-323.5C551.68,-323.5 572.26,-323.5 591.85,-323.5"/>
<polygon fill="#63b8ff" stroke="#63b8ff" points="591.99,-327 601.99,-323.5 591.99,-320 591.99,-327"/>
</g>
<!-- Node7 -->
<g id="node7" class="node">
<title>Node7</title>
<g id="a_node7"><a xlink:href="namespaceImGui.html#aad9419cf6e296c668807e3af4bfd62bb" target="_top" xlink:title=" ">
<polygon fill="white" stroke="#666666" points="1174,-518 998,-518 998,-499 1174,-499 1174,-518"/>
<text text-anchor="middle" x="1086" y="-506" font-family="Helvetica,sans-Serif" font-size="10.00">ImGui::InputTextDeactivateHook</text>
</a>
</g>
</g>
<!-- Node6&#45;&gt;Node7 -->
<g id="edge6" class="edge">
<title>Node6&#45;&gt;Node7</title>
<path fill="none" stroke="#63b8ff" d="M926.12,-508.5C944.91,-508.5 966.63,-508.5 987.87,-508.5"/>
<polygon fill="#63b8ff" stroke="#63b8ff" points="987.91,-512 997.91,-508.5 987.91,-505 987.91,-512"/>
</g>
<!-- Node7&#45;&gt;Node8 -->
<g id="edge7" class="edge">
<title>Node7&#45;&gt;Node8</title>
<path fill="none" stroke="#63b8ff" d="M1132.5,-518.04C1158.15,-523.42 1190.4,-530.18 1217.53,-535.87"/>
<polygon fill="#63b8ff" stroke="#63b8ff" points="1217.14,-539.36 1227.65,-537.99 1218.58,-532.51 1217.14,-539.36"/>
</g>
<!-- Node9 -->
<g id="node9" class="node">
<title>Node9</title>
<g id="a_node9"><a xlink:href="structImVector.html#a3a097635d464b1b70dc7d59996a88b28" target="_top" xlink:title=" ">
<polygon fill="white" stroke="#666666" points="1511,-538 1369,-538 1369,-519 1511,-519 1511,-538"/>
<text text-anchor="middle" x="1440" y="-526" font-family="Helvetica,sans-Serif" font-size="10.00">ImVector::_grow_capacity</text>
</a>
</g>
</g>
<!-- Node8&#45;&gt;Node9 -->
<g id="edge8" class="edge">
<title>Node8&#45;&gt;Node9</title>
<path fill="none" stroke="#63b8ff" d="M1321.56,-542.11C1333.14,-540.76 1345.89,-539.29 1358.59,-537.82"/>
<polygon fill="#63b8ff" stroke="#63b8ff" points="1359.21,-541.27 1368.74,-536.64 1358.4,-534.31 1359.21,-541.27"/>
</g>
<!-- Node10 -->
<g id="node10" class="node">
<title>Node10</title>
<g id="a_node10"><a xlink:href="structImVector.html#a0f14f5736c3372157856eebb67123b75" target="_top" xlink:title=" ">
<polygon fill="white" stroke="#666666" points="1491.5,-575 1388.5,-575 1388.5,-556 1491.5,-556 1491.5,-575"/>
<text text-anchor="middle" x="1440" y="-563" font-family="Helvetica,sans-Serif" font-size="10.00">ImVector::reserve</text>
</a>
</g>
</g>
<!-- Node8&#45;&gt;Node10 -->
<g id="edge9" class="edge">
<title>Node8&#45;&gt;Node10</title>
<path fill="none" stroke="#63b8ff" d="M1321.56,-552.61C1339.14,-554.54 1359.4,-556.76 1378.1,-558.82"/>
<polygon fill="#63b8ff" stroke="#63b8ff" points="1377.98,-562.32 1388.3,-559.94 1378.74,-555.37 1377.98,-562.32"/>
</g>
<!-- Node12 -->
<g id="node12" class="node">
<title>Node12</title>
<g id="a_node12"><a xlink:href="namespaceImGui.html#a43326bb080d9fa80327ed81d864d8b8d" target="_top" xlink:title=" ">
<polygon fill="white" stroke="#666666" points="957,-333 786,-333 786,-314 957,-314 957,-333"/>
<text text-anchor="middle" x="871.5" y="-321" font-family="Helvetica,sans-Serif" font-size="10.00">ImGui::NavMoveRequestCancel</text>
</a>
</g>
</g>
<!-- Node11&#45;&gt;Node12 -->
<g id="edge11" class="edge">
<title>Node11&#45;&gt;Node12</title>
<path fill="none" stroke="#63b8ff" d="M750.15,-323.5C758.54,-323.5 767.18,-323.5 775.79,-323.5"/>
<polygon fill="#63b8ff" stroke="#63b8ff" points="775.88,-327 785.88,-323.5 775.88,-320 775.88,-327"/>
</g>
<!-- Node13 -->
<g id="node13" class="node">
<title>Node13</title>
<g id="a_node13"><a xlink:href="namespaceImGui.html#a2cd868535661cdb5671214662f3c9388" target="_top" xlink:title=" ">
<polygon fill="white" stroke="#666666" points="1179,-333 993,-333 993,-314 1179,-314 1179,-333"/>
<text text-anchor="middle" x="1086" y="-321" font-family="Helvetica,sans-Serif" font-size="10.00">ImGui::NavUpdateAnyRequestFlag</text>
</a>
</g>
</g>
<!-- Node12&#45;&gt;Node13 -->
<g id="edge12" class="edge">
<title>Node12&#45;&gt;Node13</title>
<path fill="none" stroke="#63b8ff" d="M957.1,-323.5C965.5,-323.5 974.09,-323.5 982.65,-323.5"/>
<polygon fill="#63b8ff" stroke="#63b8ff" points="982.66,-327 992.66,-323.5 982.66,-320 982.66,-327"/>
</g>
<!-- Node15 -->
<g id="node15" class="node">
<title>Node15</title>
<g id="a_node15"><a xlink:href="namespaceImGui.html#a17ff60ad1e2669130ac38a04d16eb354" target="_top" xlink:title=" ">
<polygon fill="white" stroke="#666666" points="735.5,-518 616.5,-518 616.5,-499 735.5,-499 735.5,-518"/>
<text text-anchor="middle" x="676" y="-506" font-family="Helvetica,sans-Serif" font-size="10.00">ImGui::ClearActiveID</text>
</a>
</g>
</g>
<!-- Node14&#45;&gt;Node15 -->
<g id="edge14" class="edge">
<title>Node14&#45;&gt;Node15</title>
<path fill="none" stroke="#63b8ff" d="M539.65,-508.5C561.23,-508.5 584.95,-508.5 606.42,-508.5"/>
<polygon fill="#63b8ff" stroke="#63b8ff" points="606.44,-512 616.44,-508.5 606.44,-505 606.44,-512"/>
</g>
<!-- Node15&#45;&gt;Node6 -->
<g id="edge15" class="edge">
<title>Node15&#45;&gt;Node6</title>
<path fill="none" stroke="#63b8ff" d="M735.58,-508.5C757.96,-508.5 783.58,-508.5 806.45,-508.5"/>
<polygon fill="#63b8ff" stroke="#63b8ff" points="806.74,-512 816.74,-508.5 806.74,-505 806.74,-512"/>
</g>
<!-- Node22&#45;&gt;Node17 -->
<g id="edge24" class="edge">
<title>Node22&#45;&gt;Node17</title>
<path fill="none" stroke="#63b8ff" d="M297.06,-241.97C337.22,-235.03 396.02,-224.86 433.01,-218.46"/>
<polygon fill="#63b8ff" stroke="#63b8ff" points="434.03,-221.84 443.28,-216.69 432.83,-214.94 434.03,-221.84"/>
</g>
<!-- Node22&#45;&gt;Node18 -->
<g id="edge25" class="edge">
<title>Node22&#45;&gt;Node18</title>
<path fill="none" stroke="#63b8ff" d="M297.06,-249.5C337.77,-249.5 397.66,-249.5 434.53,-249.5"/>
<polygon fill="#63b8ff" stroke="#63b8ff" points="434.74,-253 444.74,-249.5 434.74,-246 434.74,-253"/>
</g>
<!-- Node26 -->
<g id="node26" class="node">
<title>Node26</title>
<g id="a_node26"><a xlink:href="structImGuiWindow.html#afe084e59f7cd4da393ae30f0b4410b16" target="_top" xlink:title=" ">
<polygon fill="white" stroke="#666666" points="527.5,-650 409.5,-650 409.5,-631 527.5,-631 527.5,-650"/>
<text text-anchor="middle" x="468.5" y="-638" font-family="Helvetica,sans-Serif" font-size="10.00">ImGuiWindow::GetID</text>
</a>
</g>
</g>
<!-- Node25&#45;&gt;Node26 -->
<g id="edge29" class="edge">
<title>Node25&#45;&gt;Node26</title>
<path fill="none" stroke="#63b8ff" d="M292.75,-633.15C322.4,-634.4 363.85,-636.14 398.93,-637.62"/>
<polygon fill="#63b8ff" stroke="#63b8ff" points="398.98,-641.12 409.12,-638.04 399.28,-634.13 398.98,-641.12"/>
</g>
<!-- Node26&#45;&gt;Node2 -->
<g id="edge30" class="edge">
<title>Node26&#45;&gt;Node2</title>
<path fill="none" stroke="#63b8ff" d="M501.54,-650.05C528.31,-657.95 567.55,-669.32 602,-678.5 609.54,-680.51 617.54,-682.56 625.37,-684.53"/>
<polygon fill="#63b8ff" stroke="#63b8ff" points="624.6,-687.94 635.15,-686.96 626.29,-681.15 624.6,-687.94"/>
</g>
<!-- Node27 -->
<g id="node27" class="node">
<title>Node27</title>
<g id="a_node27"><a xlink:href="namespaceImGui.html#a5487269f4cb9fb809fd3e797411ed2d7" target="_top" xlink:title=" ">
<polygon fill="white" stroke="#666666" points="744.5,-632 607.5,-632 607.5,-613 744.5,-613 744.5,-632"/>
<text text-anchor="middle" x="676" y="-620" font-family="Helvetica,sans-Serif" font-size="10.00">ImGui::DebugHookIdInfo</text>
</a>
</g>
</g>
<!-- Node26&#45;&gt;Node27 -->
<g id="edge31" class="edge">
<title>Node26&#45;&gt;Node27</title>
<path fill="none" stroke="#63b8ff" d="M527.56,-635.41C549.17,-633.52 574.06,-631.34 597.15,-629.32"/>
<polygon fill="#63b8ff" stroke="#63b8ff" points="597.62,-632.79 607.27,-628.43 597,-625.82 597.62,-632.79"/>
</g>
<!-- Node29 -->
<g id="node29" class="node">
<title>Node29</title>
<g id="a_node29"><a xlink:href="imgui_8cpp.html#ab6659b5d67f7a3369e099ce890e12223" target="_top" xlink:title=" ">
<polygon fill="white" stroke="#666666" points="710,-669 642,-669 642,-650 710,-650 710,-669"/>
<text text-anchor="middle" x="676" y="-657" font-family="Helvetica,sans-Serif" font-size="10.00">ImHashStr</text>
</a>
</g>
</g>
<!-- Node26&#45;&gt;Node29 -->
<g id="edge34" class="edge">
<title>Node26&#45;&gt;Node29</title>
<path fill="none" stroke="#63b8ff" d="M527.56,-645.87C560.58,-648.92 601.25,-652.68 631.5,-655.48"/>
<polygon fill="#63b8ff" stroke="#63b8ff" points="631.46,-658.99 641.74,-656.42 632.1,-652.02 631.46,-658.99"/>
</g>
<!-- Node27&#45;&gt;Node8 -->
<g id="edge33" class="edge">
<title>Node27&#45;&gt;Node8</title>
<path fill="none" stroke="#63b8ff" d="M744.8,-626.08C863.44,-631.33 1103.29,-637.17 1179,-603.5 1199.96,-594.18 1195.53,-578.65 1215,-566.5 1218.34,-564.41 1221.94,-562.53 1225.64,-560.84"/>
<polygon fill="#63b8ff" stroke="#63b8ff" points="1227.06,-564.04 1234.99,-557.02 1224.41,-557.56 1227.06,-564.04"/>
</g>
<!-- Node28 -->
<g id="node28" class="node">
<title>Node28</title>
<g id="a_node28"><a xlink:href="imgui_8cpp.html#a75ccaf7d676b1f567ba888ae42ac3809" target="_top" xlink:title=" ">
<polygon fill="white" stroke="#666666" points="917.5,-670 825.5,-670 825.5,-651 917.5,-651 917.5,-670"/>
<text text-anchor="middle" x="871.5" y="-658" font-family="Helvetica,sans-Serif" font-size="10.00">ImFormatString</text>
</a>
</g>
</g>
<!-- Node27&#45;&gt;Node28 -->
<g id="edge32" class="edge">
<title>Node27&#45;&gt;Node28</title>
<path fill="none" stroke="#63b8ff" d="M725.83,-632.09C753.05,-637.43 787.04,-644.11 815.24,-649.65"/>
<polygon fill="#63b8ff" stroke="#63b8ff" points="814.85,-653.14 825.34,-651.63 816.2,-646.27 814.85,-653.14"/>
</g>
<!-- Node31 -->
<g id="node31" class="node">
<title>Node31</title>
<g id="a_node31"><a xlink:href="structImPool.html#a39f9b742304d164c4298031537c1b09c" target="_top" xlink:title=" ">
<polygon fill="white" stroke="#666666" points="1123.5,-235 1048.5,-235 1048.5,-216 1123.5,-216 1123.5,-235"/>
<text text-anchor="middle" x="1086" y="-223" font-family="Helvetica,sans-Serif" font-size="10.00">ImPool::Add</text>
</a>
</g>
</g>
<!-- Node30&#45;&gt;Node31 -->
<g id="edge36" class="edge">
<title>Node30&#45;&gt;Node31</title>
<path fill="none" stroke="#63b8ff" d="M927.22,-198.03C961.51,-204 1005.25,-211.61 1037.97,-217.31"/>
<polygon fill="#63b8ff" stroke="#63b8ff" points="1037.73,-220.82 1048.18,-219.09 1038.93,-213.93 1037.73,-220.82"/>
</g>
<!-- Node32 -->
<g id="node32" class="node">
<title>Node32</title>
<g id="a_node32"><a xlink:href="structImGuiStorage.html#a28673fa7839263f3066ccb8e93e748a9" target="_top" xlink:title=" ">
<polygon fill="white" stroke="#666666" points="1154,-198 1018,-198 1018,-179 1154,-179 1154,-198"/>
<text text-anchor="middle" x="1086" y="-186" font-family="Helvetica,sans-Serif" font-size="10.00">ImGuiStorage::GetIntRef</text>
</a>
</g>
</g>
<!-- Node30&#45;&gt;Node32 -->
<g id="edge37" class="edge">
<title>Node30&#45;&gt;Node32</title>
<path fill="none" stroke="#63b8ff" d="M938.57,-188.5C960.44,-188.5 984.98,-188.5 1007.62,-188.5"/>
<polygon fill="#63b8ff" stroke="#63b8ff" points="1007.87,-192 1017.87,-188.5 1007.87,-185 1007.87,-192"/>
</g>
<!-- Node33 -->
<g id="node33" class="node">
<title>Node33</title>
<g id="a_node33"><a xlink:href="imgui_8cpp.html#a409bfd6de574854cd644636ea13b6a8a" target="_top" xlink:title=" ">
<polygon fill="white" stroke="#666666" points="1318.5,-198 1229.5,-198 1229.5,-179 1318.5,-179 1318.5,-198"/>
<text text-anchor="middle" x="1274" y="-186" font-family="Helvetica,sans-Serif" font-size="10.00">ImLowerBound</text>
</a>
</g>
</g>
<!-- Node32&#45;&gt;Node33 -->
<g id="edge38" class="edge">
<title>Node32&#45;&gt;Node33</title>
<path fill="none" stroke="#63b8ff" d="M1154.15,-188.5C1175.6,-188.5 1199.05,-188.5 1219.41,-188.5"/>
<polygon fill="#63b8ff" stroke="#63b8ff" points="1219.44,-192 1229.44,-188.5 1219.44,-185 1219.44,-192"/>
</g>
<!-- Node34 -->
<g id="node34" class="node">
<title>Node34</title>
<g id="a_node34"><a xlink:href="structImVector.html#a541c8cd4b844f5276f10d160cb500533" target="_top" xlink:title=" ">
<polygon fill="white" stroke="#666666" points="1321,-520 1227,-520 1227,-501 1321,-501 1321,-520"/>
<text text-anchor="middle" x="1274" y="-508" font-family="Helvetica,sans-Serif" font-size="10.00">ImVector::insert</text>
</a>
</g>
</g>
<!-- Node32&#45;&gt;Node34 -->
<g id="edge39" class="edge">
<title>Node32&#45;&gt;Node34</title>
<path fill="none" stroke="#63b8ff" d="M1154.4,-193.61C1163.44,-196.69 1171.99,-201.14 1179,-207.5 1263.92,-284.55 1272.89,-436.67 1273.27,-490.81"/>
<polygon fill="#63b8ff" stroke="#63b8ff" points="1269.77,-490.8 1273.25,-500.81 1276.77,-490.82 1269.77,-490.8"/>
</g>
<!-- Node34&#45;&gt;Node9 -->
<g id="edge40" class="edge">
<title>Node34&#45;&gt;Node9</title>
<path fill="none" stroke="#63b8ff" d="M1321.12,-515.56C1332.78,-516.84 1345.65,-518.25 1358.47,-519.66"/>
<polygon fill="#63b8ff" stroke="#63b8ff" points="1358.39,-523.17 1368.72,-520.79 1359.16,-516.22 1358.39,-523.17"/>
</g>
<!-- Node34&#45;&gt;Node10 -->
<g id="edge41" class="edge">
<title>Node34&#45;&gt;Node10</title>
<path fill="none" stroke="#63b8ff" d="M1306.91,-520.02C1315.48,-522.83 1324.67,-526.07 1333,-529.5 1349.54,-536.3 1352.24,-541.24 1369,-547.5 1374.5,-549.55 1380.32,-551.46 1386.17,-553.2"/>
<polygon fill="#63b8ff" stroke="#63b8ff" points="1385.41,-556.62 1395.98,-555.97 1387.31,-549.89 1385.41,-556.62"/>
</g>
<!-- Node35&#45;&gt;Node8 -->
<g id="edge46" class="edge">
<title>Node35&#45;&gt;Node8</title>
<path fill="none" stroke="#63b8ff" d="M1134.9,-574.97C1159.7,-570.04 1190.15,-563.98 1216.14,-558.81"/>
<polygon fill="#63b8ff" stroke="#63b8ff" points="1217.1,-562.19 1226.23,-556.8 1215.74,-555.32 1217.1,-562.19"/>
</g>
<!-- Node36 -->
<g id="node36" class="node">
<title>Node36</title>
<g id="a_node36"><a xlink:href="structImVector.html#aab5df48e0711a48bd12f3206e08c4108" target="_top" xlink:title=" ">
<polygon fill="white" stroke="#666666" points="1333,-594 1215,-594 1215,-575 1333,-575 1333,-594"/>
<text text-anchor="middle" x="1274" y="-582" font-family="Helvetica,sans-Serif" font-size="10.00">ImVector::push_back</text>
</a>
</g>
</g>
<!-- Node35&#45;&gt;Node36 -->
<g id="edge43" class="edge">
<title>Node35&#45;&gt;Node36</title>
<path fill="none" stroke="#63b8ff" d="M1163.19,-584.5C1176.94,-584.5 1191.2,-584.5 1204.71,-584.5"/>
<polygon fill="#63b8ff" stroke="#63b8ff" points="1204.87,-588 1214.87,-584.5 1204.87,-581 1204.87,-588"/>
</g>
<!-- Node36&#45;&gt;Node9 -->
<g id="edge44" class="edge">
<title>Node36&#45;&gt;Node9</title>
<path fill="none" stroke="#63b8ff" d="M1309.42,-574.97C1317.27,-572.48 1325.5,-569.61 1333,-566.5 1349.71,-559.57 1352.17,-554.13 1369,-547.5 1375,-545.14 1381.39,-542.96 1387.79,-540.99"/>
<polygon fill="#63b8ff" stroke="#63b8ff" points="1389.18,-544.23 1397.79,-538.06 1387.21,-537.51 1389.18,-544.23"/>
</g>
<!-- Node36&#45;&gt;Node10 -->
<g id="edge45" class="edge">
<title>Node36&#45;&gt;Node10</title>
<path fill="none" stroke="#63b8ff" d="M1333.28,-577.75C1347.87,-576.06 1363.55,-574.24 1378.25,-572.54"/>
<polygon fill="#63b8ff" stroke="#63b8ff" points="1378.72,-576.01 1388.25,-571.38 1377.92,-569.05 1378.72,-576.01"/>
</g>
<!-- Node37&#45;&gt;Node36 -->
<g id="edge48" class="edge">
<title>Node37&#45;&gt;Node36</title>
<path fill="none" stroke="#63b8ff" d="M926.12,-705.96C988.34,-693.92 1093.35,-670.59 1179,-636.5 1204.2,-626.47 1231.1,-611.05 1249.64,-599.61"/>
<polygon fill="#63b8ff" stroke="#63b8ff" points="1251.67,-602.47 1258.28,-594.19 1247.95,-596.54 1251.67,-602.47"/>
</g>
<!-- Node38&#45;&gt;Node38 -->
<g id="edge51" class="edge">
<title>Node38&#45;&gt;Node38</title>
<path fill="none" stroke="#63b8ff" d="M224.14,-19.08C210.34,-27.73 219.8,-37 252.5,-37 274.98,-37 286.48,-32.62 286.98,-27.07"/>
<polygon fill="#63b8ff" stroke="#63b8ff" points="289.72,-24.89 280.86,-19.08 284.16,-29.15 289.72,-24.89"/>
</g>
<!-- Node39&#45;&gt;Node17 -->
<g id="edge54" class="edge">
<title>Node39&#45;&gt;Node17</title>
<path fill="none" stroke="#63b8ff" d="M309.73,-212.5C348.95,-212.5 400.02,-212.5 433.27,-212.5"/>
<polygon fill="#63b8ff" stroke="#63b8ff" points="433.4,-216 443.4,-212.5 433.4,-209 433.4,-216"/>
</g>
<!-- Node40 -->
<g id="node40" class="node">
<title>Node40</title>
<g id="a_node40"><a xlink:href="namespaceImGui.html#ad5832500c14abd9e76e376b82701385b" target="_top" xlink:title=" ">
<polygon fill="white" stroke="#666666" points="566,-184.5 371,-184.5 371,-154.5 566,-154.5 566,-184.5"/>
<text text-anchor="start" x="379" y="-172.5" font-family="Helvetica,sans-Serif" font-size="10.00">ImGui::ErrorCheckUsingSet</text>
<text text-anchor="middle" x="468.5" y="-161.5" font-family="Helvetica,sans-Serif" font-size="10.00">CursorPosToExtendParentBoundaries</text>
</a>
</g>
</g>
<!-- Node39&#45;&gt;Node40 -->
<g id="edge53" class="edge">
<title>Node39&#45;&gt;Node40</title>
<path fill="none" stroke="#63b8ff" d="M300.99,-202.96C325.01,-198.13 354.89,-192.13 382.69,-186.54"/>
<polygon fill="#63b8ff" stroke="#63b8ff" points="383.7,-189.91 392.82,-184.51 382.32,-183.04 383.7,-189.91"/>
</g>
</g>
</svg>
