<?xml version="1.0" encoding="UTF-8" standalone="no"?>
<!DOCTYPE svg PUBLIC "-//W3C//DTD SVG 1.1//EN"
 "http://www.w3.org/Graphics/SVG/1.1/DTD/svg11.dtd">
<!-- Generated by graphviz version 2.43.0 (0)
 -->
<!-- Title: ImGui::SaveIniSettingsToDisk Pages: 1 -->
<svg width="681pt" height="175pt"
 viewBox="0.00 0.00 681.00 175.00" xmlns="http://www.w3.org/2000/svg" xmlns:xlink="http://www.w3.org/1999/xlink">
<g id="graph0" class="graph" transform="scale(1 1) rotate(0) translate(4 171)">
<title>ImGui::SaveIniSettingsToDisk</title>
<!-- Node1 -->
<g id="node1" class="node">
<title>Node1</title>
<g id="a_node1"><a xlink:title=" ">
<polygon fill="#999999" stroke="#666666" points="160,-108 0,-108 0,-89 160,-89 160,-108"/>
<text text-anchor="middle" x="80" y="-96" font-family="Helvetica,sans-Serif" font-size="10.00">ImGui::SaveIniSettingsToDisk</text>
</a>
</g>
</g>
<!-- Node2 -->
<g id="node2" class="node">
<title>Node2</title>
<g id="a_node2"><a xlink:href="imgui_8cpp.html#ac4a6194720e9d693bc9d34e97d9465aa" target="_top" xlink:title=" ">
<polygon fill="white" stroke="#666666" points="302,-167 228,-167 228,-148 302,-148 302,-167"/>
<text text-anchor="middle" x="265" y="-155" font-family="Helvetica,sans-Serif" font-size="10.00">ImFileClose</text>
</a>
</g>
</g>
<!-- Node1&#45;&gt;Node2 -->
<g id="edge1" class="edge">
<title>Node1&#45;&gt;Node2</title>
<path fill="none" stroke="#63b8ff" d="M105.92,-108.07C129.08,-116.79 164.62,-129.77 196,-139.5 203.06,-141.69 210.58,-143.85 217.95,-145.87"/>
<polygon fill="#63b8ff" stroke="#63b8ff" points="217.28,-149.31 227.84,-148.53 219.1,-142.55 217.28,-149.31"/>
</g>
<!-- Node3 -->
<g id="node3" class="node">
<title>Node3</title>
<g id="a_node3"><a xlink:href="imgui_8cpp.html#ae6a61623537c5a5de071fade1f0e8acd" target="_top" xlink:title=" ">
<polygon fill="white" stroke="#666666" points="301,-130 229,-130 229,-111 301,-111 301,-130"/>
<text text-anchor="middle" x="265" y="-118" font-family="Helvetica,sans-Serif" font-size="10.00">ImFileOpen</text>
</a>
</g>
</g>
<!-- Node1&#45;&gt;Node3 -->
<g id="edge2" class="edge">
<title>Node1&#45;&gt;Node3</title>
<path fill="none" stroke="#63b8ff" d="M160.2,-108.02C180.23,-110.43 201.05,-112.93 218.75,-115.06"/>
<polygon fill="#63b8ff" stroke="#63b8ff" points="218.43,-118.55 228.78,-116.27 219.27,-111.6 218.43,-118.55"/>
</g>
<!-- Node7 -->
<g id="node7" class="node">
<title>Node7</title>
<g id="a_node7"><a xlink:href="imgui_8cpp.html#aab6460bf5ebaa4975159cf0cd4324820" target="_top" xlink:title=" ">
<polygon fill="white" stroke="#666666" points="301.5,-44 228.5,-44 228.5,-25 301.5,-25 301.5,-44"/>
<text text-anchor="middle" x="265" y="-32" font-family="Helvetica,sans-Serif" font-size="10.00">ImFileWrite</text>
</a>
</g>
</g>
<!-- Node1&#45;&gt;Node7 -->
<g id="edge6" class="edge">
<title>Node1&#45;&gt;Node7</title>
<path fill="none" stroke="#63b8ff" d="M103.66,-88.85C126.68,-79.24 163.47,-64.38 196,-53.5 203.19,-51.09 210.88,-48.74 218.41,-46.56"/>
<polygon fill="#63b8ff" stroke="#63b8ff" points="219.49,-49.89 228.15,-43.79 217.57,-43.15 219.49,-49.89"/>
</g>
<!-- Node8 -->
<g id="node8" class="node">
<title>Node8</title>
<g id="a_node8"><a xlink:href="namespaceImGui.html#a27043a530e0e842e01c279dd4207f9eb" target="_top" xlink:title=" ">
<polygon fill="white" stroke="#666666" points="334,-92.5 196,-92.5 196,-62.5 334,-62.5 334,-92.5"/>
<text text-anchor="start" x="204" y="-80.5" font-family="Helvetica,sans-Serif" font-size="10.00">ImGui::SaveIniSettingsTo</text>
<text text-anchor="middle" x="265" y="-69.5" font-family="Helvetica,sans-Serif" font-size="10.00">Memory</text>
</a>
</g>
</g>
<!-- Node1&#45;&gt;Node8 -->
<g id="edge7" class="edge">
<title>Node1&#45;&gt;Node8</title>
<path fill="none" stroke="#63b8ff" d="M160.2,-89.41C168.65,-88.44 177.24,-87.46 185.68,-86.49"/>
<polygon fill="#63b8ff" stroke="#63b8ff" points="186.34,-89.94 195.87,-85.32 185.54,-82.98 186.34,-89.94"/>
</g>
<!-- Node4 -->
<g id="node4" class="node">
<title>Node4</title>
<g id="a_node4"><a xlink:href="structImVector.html#ac371dd62e56ae486b1a5038cf07eee56" target="_top" xlink:title=" ">
<polygon fill="white" stroke="#666666" points="480,-130 385,-130 385,-111 480,-111 480,-130"/>
<text text-anchor="middle" x="432.5" y="-118" font-family="Helvetica,sans-Serif" font-size="10.00">ImVector::resize</text>
</a>
</g>
</g>
<!-- Node3&#45;&gt;Node4 -->
<g id="edge3" class="edge">
<title>Node3&#45;&gt;Node4</title>
<path fill="none" stroke="#63b8ff" d="M301.1,-120.5C322.44,-120.5 350.18,-120.5 374.6,-120.5"/>
<polygon fill="#63b8ff" stroke="#63b8ff" points="374.83,-124 384.83,-120.5 374.83,-117 374.83,-124"/>
</g>
<!-- Node5 -->
<g id="node5" class="node">
<title>Node5</title>
<g id="a_node5"><a xlink:href="structImVector.html#a3a097635d464b1b70dc7d59996a88b28" target="_top" xlink:title=" ">
<polygon fill="white" stroke="#666666" points="673,-130 531,-130 531,-111 673,-111 673,-130"/>
<text text-anchor="middle" x="602" y="-118" font-family="Helvetica,sans-Serif" font-size="10.00">ImVector::_grow_capacity</text>
</a>
</g>
</g>
<!-- Node4&#45;&gt;Node5 -->
<g id="edge4" class="edge">
<title>Node4&#45;&gt;Node5</title>
<path fill="none" stroke="#63b8ff" d="M480.16,-120.5C492.78,-120.5 506.8,-120.5 520.7,-120.5"/>
<polygon fill="#63b8ff" stroke="#63b8ff" points="520.78,-124 530.78,-120.5 520.78,-117 520.78,-124"/>
</g>
<!-- Node6 -->
<g id="node6" class="node">
<title>Node6</title>
<g id="a_node6"><a xlink:href="structImVector.html#a0f14f5736c3372157856eebb67123b75" target="_top" xlink:title=" ">
<polygon fill="white" stroke="#666666" points="653.5,-93 550.5,-93 550.5,-74 653.5,-74 653.5,-93"/>
<text text-anchor="middle" x="602" y="-81" font-family="Helvetica,sans-Serif" font-size="10.00">ImVector::reserve</text>
</a>
</g>
</g>
<!-- Node4&#45;&gt;Node6 -->
<g id="edge5" class="edge">
<title>Node4&#45;&gt;Node6</title>
<path fill="none" stroke="#63b8ff" d="M476.64,-110.97C498.34,-106.18 524.84,-100.32 547.79,-95.25"/>
<polygon fill="#63b8ff" stroke="#63b8ff" points="548.71,-98.64 557.72,-93.06 547.2,-91.8 548.71,-98.64"/>
</g>
<!-- Node8&#45;&gt;Node4 -->
<g id="edge12" class="edge">
<title>Node8&#45;&gt;Node4</title>
<path fill="none" stroke="#63b8ff" d="M323.88,-92.54C343.8,-97.71 365.82,-103.44 384.74,-108.35"/>
<polygon fill="#63b8ff" stroke="#63b8ff" points="384.04,-111.79 394.6,-110.91 385.8,-105.01 384.04,-111.79"/>
</g>
<!-- Node9 -->
<g id="node9" class="node">
<title>Node9</title>
<g id="a_node9"><a xlink:href="structImGuiTextBuffer.html#ac78a076eb21b9c4ec532eb5109c84a64" target="_top" xlink:title=" ">
<polygon fill="white" stroke="#666666" points="495,-56 370,-56 370,-37 495,-37 495,-56"/>
<text text-anchor="middle" x="432.5" y="-44" font-family="Helvetica,sans-Serif" font-size="10.00">ImGuiTextBuffer::c_str</text>
</a>
</g>
</g>
<!-- Node8&#45;&gt;Node9 -->
<g id="edge8" class="edge">
<title>Node8&#45;&gt;Node9</title>
<path fill="none" stroke="#63b8ff" d="M334.27,-64.71C346.25,-62.47 358.65,-60.14 370.43,-57.94"/>
<polygon fill="#63b8ff" stroke="#63b8ff" points="371.4,-61.32 380.58,-56.04 370.11,-54.44 371.4,-61.32"/>
</g>
<!-- Node10 -->
<g id="node10" class="node">
<title>Node10</title>
<g id="a_node10"><a xlink:href="structImVector.html#aab5df48e0711a48bd12f3206e08c4108" target="_top" xlink:title=" ">
<polygon fill="white" stroke="#666666" points="491.5,-93 373.5,-93 373.5,-74 491.5,-74 491.5,-93"/>
<text text-anchor="middle" x="432.5" y="-81" font-family="Helvetica,sans-Serif" font-size="10.00">ImVector::push_back</text>
</a>
</g>
</g>
<!-- Node8&#45;&gt;Node10 -->
<g id="edge9" class="edge">
<title>Node8&#45;&gt;Node10</title>
<path fill="none" stroke="#63b8ff" d="M334.27,-79.98C343.82,-80.32 353.63,-80.68 363.18,-81.02"/>
<polygon fill="#63b8ff" stroke="#63b8ff" points="363.29,-84.53 373.41,-81.39 363.54,-77.53 363.29,-84.53"/>
</g>
<!-- Node11 -->
<g id="node11" class="node">
<title>Node11</title>
<g id="a_node11"><a xlink:href="structImGuiTextBuffer.html#a2811fcd43e0224eb3bd0f3464b634289" target="_top" xlink:title=" ">
<polygon fill="white" stroke="#666666" points="493,-19 372,-19 372,0 493,0 493,-19"/>
<text text-anchor="middle" x="432.5" y="-7" font-family="Helvetica,sans-Serif" font-size="10.00">ImGuiTextBuffer::size</text>
</a>
</g>
</g>
<!-- Node8&#45;&gt;Node11 -->
<g id="edge13" class="edge">
<title>Node8&#45;&gt;Node11</title>
<path fill="none" stroke="#63b8ff" d="M314.29,-62.4C321.04,-59.73 327.79,-56.75 334,-53.5 351.48,-44.34 352.27,-36.18 370,-27.5 373.77,-25.66 377.76,-23.97 381.82,-22.42"/>
<polygon fill="#63b8ff" stroke="#63b8ff" points="383.09,-25.69 391.38,-19.09 380.79,-19.08 383.09,-25.69"/>
</g>
<!-- Node10&#45;&gt;Node5 -->
<g id="edge10" class="edge">
<title>Node10&#45;&gt;Node5</title>
<path fill="none" stroke="#63b8ff" d="M476.64,-93.03C498.34,-97.82 524.84,-103.68 547.79,-108.75"/>
<polygon fill="#63b8ff" stroke="#63b8ff" points="547.2,-112.2 557.72,-110.94 548.71,-105.36 547.2,-112.2"/>
</g>
<!-- Node10&#45;&gt;Node6 -->
<g id="edge11" class="edge">
<title>Node10&#45;&gt;Node6</title>
<path fill="none" stroke="#63b8ff" d="M491.61,-83.5C507.27,-83.5 524.25,-83.5 540.06,-83.5"/>
<polygon fill="#63b8ff" stroke="#63b8ff" points="540.25,-87 550.25,-83.5 540.25,-80 540.25,-87"/>
</g>
</g>
</svg>
