<?xml version="1.0" encoding="UTF-8" standalone="no"?>
<!DOCTYPE svg PUBLIC "-//W3C//DTD SVG 1.1//EN"
 "http://www.w3.org/Graphics/SVG/1.1/DTD/svg11.dtd">
<!-- Generated by graphviz version 2.43.0 (0)
 -->
<!-- Title: ImGui::Spacing Pages: 1 -->
<svg width="414pt" height="82pt"
 viewBox="0.00 0.00 414.00 82.00" xmlns="http://www.w3.org/2000/svg" xmlns:xlink="http://www.w3.org/1999/xlink">
<g id="graph0" class="graph" transform="scale(1 1) rotate(0) translate(4 78)">
<title>ImGui::Spacing</title>
<!-- Node1 -->
<g id="node1" class="node">
<title>Node1</title>
<g id="a_node1"><a xlink:title=" ">
<polygon fill="#999999" stroke="#666666" points="90,-55 0,-55 0,-36 90,-36 90,-55"/>
<text text-anchor="middle" x="45" y="-43" font-family="Helvetica,sans-Serif" font-size="10.00">ImGui::Spacing</text>
</a>
</g>
</g>
<!-- Node2 -->
<g id="node2" class="node">
<title>Node2</title>
<g id="a_node2"><a xlink:href="namespaceImGui.html#ac452417b5004ca16a814a72cff153526" target="_top" xlink:title=" ">
<polygon fill="white" stroke="#666666" points="270,-74 126,-74 126,-55 270,-55 270,-74"/>
<text text-anchor="middle" x="198" y="-62" font-family="Helvetica,sans-Serif" font-size="10.00">ImGui::GetCurrentWindow</text>
</a>
</g>
</g>
<!-- Node1&#45;&gt;Node2 -->
<g id="edge1" class="edge">
<title>Node1&#45;&gt;Node2</title>
<path fill="none" stroke="#63b8ff" d="M90.08,-51.05C98.24,-52.07 107,-53.17 115.85,-54.29"/>
<polygon fill="#63b8ff" stroke="#63b8ff" points="115.52,-57.77 125.87,-55.55 116.39,-50.83 115.52,-57.77"/>
</g>
<!-- Node3 -->
<g id="node3" class="node">
<title>Node3</title>
<g id="a_node3"><a xlink:href="namespaceImGui.html#a4b5818a652d943ea54e0cec9fb3943d7" target="_top" xlink:title=" ">
<polygon fill="white" stroke="#666666" points="245.5,-37 150.5,-37 150.5,-18 245.5,-18 245.5,-37"/>
<text text-anchor="middle" x="198" y="-25" font-family="Helvetica,sans-Serif" font-size="10.00">ImGui::ItemSize</text>
</a>
</g>
</g>
<!-- Node1&#45;&gt;Node3 -->
<g id="edge2" class="edge">
<title>Node1&#45;&gt;Node3</title>
<path fill="none" stroke="#63b8ff" d="M90.08,-40.25C105.8,-38.37 123.72,-36.24 140.35,-34.25"/>
<polygon fill="#63b8ff" stroke="#63b8ff" points="140.98,-37.7 150.5,-33.04 140.15,-30.75 140.98,-37.7"/>
</g>
<!-- Node4 -->
<g id="node4" class="node">
<title>Node4</title>
<g id="a_node4"><a xlink:href="imgui__internal_8h.html#a7667efd95147d0422f140917c71a9226" target="_top" xlink:title=" ">
<polygon fill="white" stroke="#666666" points="381,-56 331,-56 331,-37 381,-37 381,-56"/>
<text text-anchor="middle" x="356" y="-44" font-family="Helvetica,sans-Serif" font-size="10.00">ImMax</text>
</a>
</g>
</g>
<!-- Node3&#45;&gt;Node4 -->
<g id="edge3" class="edge">
<title>Node3&#45;&gt;Node4</title>
<path fill="none" stroke="#63b8ff" d="M245.81,-33.2C269.87,-36.13 298.67,-39.64 320.66,-42.32"/>
<polygon fill="#63b8ff" stroke="#63b8ff" points="320.5,-45.82 330.85,-43.56 321.35,-38.88 320.5,-45.82"/>
</g>
<!-- Node5 -->
<g id="node5" class="node">
<title>Node5</title>
<g id="a_node5"><a xlink:href="namespaceImGui.html#addd433eb3aae59119e341e80db474f66" target="_top" xlink:title=" ">
<polygon fill="white" stroke="#666666" points="406,-19 306,-19 306,0 406,0 406,-19"/>
<text text-anchor="middle" x="356" y="-7" font-family="Helvetica,sans-Serif" font-size="10.00">ImGui::SameLine</text>
</a>
</g>
</g>
<!-- Node3&#45;&gt;Node5 -->
<g id="edge4" class="edge">
<title>Node3&#45;&gt;Node5</title>
<path fill="none" stroke="#63b8ff" d="M245.81,-22.1C261.49,-20.29 279.18,-18.25 295.69,-16.34"/>
<polygon fill="#63b8ff" stroke="#63b8ff" points="296.26,-19.8 305.79,-15.18 295.45,-12.85 296.26,-19.8"/>
</g>
</g>
</svg>
