<?xml version="1.0" encoding="UTF-8" standalone="no"?>
<!DOCTYPE svg PUBLIC "-//W3C//DTD SVG 1.1//EN"
 "http://www.w3.org/Graphics/SVG/1.1/DTD/svg11.dtd">
<!-- Generated by graphviz version 2.43.0 (0)
 -->
<!-- Title: IMGUIZMO_NAMESPACE::ViewManipulate Pages: 1 -->
<svg width="1210pt" height="674pt"
 viewBox="0.00 0.00 1210.00 674.00" xmlns="http://www.w3.org/2000/svg" xmlns:xlink="http://www.w3.org/1999/xlink">
<g id="graph0" class="graph" transform="scale(1 1) rotate(0) translate(4 670)">
<title>IMGUIZMO_NAMESPACE::ViewManipulate</title>
<!-- Node1 -->
<g id="node1" class="node">
<title>Node1</title>
<g id="a_node1"><a xlink:title=" ">
<polygon fill="#999999" stroke="#666666" points="135,-344 0,-344 0,-314 135,-314 135,-344"/>
<text text-anchor="start" x="8" y="-332" font-family="Helvetica,sans-Serif" font-size="10.00">IMGUIZMO_NAMESPACE</text>
<text text-anchor="middle" x="67.5" y="-321" font-family="Helvetica,sans-Serif" font-size="10.00">::ViewManipulate</text>
</a>
</g>
</g>
<!-- Node1&#45;&gt;Node1 -->
<g id="edge48" class="edge">
<title>Node1&#45;&gt;Node1</title>
<path fill="none" stroke="#63b8ff" d="M37.62,-344.28C30.98,-353.41 40.94,-362 67.5,-362 83.27,-362 93.19,-358.97 97.26,-354.6"/>
<polygon fill="#63b8ff" stroke="#63b8ff" points="100.76,-354.32 97.38,-344.28 93.76,-354.23 100.76,-354.32"/>
</g>
<!-- Node2 -->
<g id="node2" class="node">
<title>Node2</title>
<g id="a_node2"><a xlink:href="namespaceIMGUIZMO__NAMESPACE.html#a7cc7533ff750257db246ff8b9d161295" target="_top" xlink:title=" ">
<polygon fill="white" stroke="#666666" points="306,-344 171,-344 171,-314 306,-314 306,-344"/>
<text text-anchor="start" x="179" y="-332" font-family="Helvetica,sans-Serif" font-size="10.00">IMGUIZMO_NAMESPACE</text>
<text text-anchor="middle" x="238.5" y="-321" font-family="Helvetica,sans-Serif" font-size="10.00">::ComputeContext</text>
</a>
</g>
</g>
<!-- Node1&#45;&gt;Node2 -->
<g id="edge1" class="edge">
<title>Node1&#45;&gt;Node2</title>
<path fill="none" stroke="#63b8ff" d="M135.29,-329C143.62,-329 152.19,-329 160.66,-329"/>
<polygon fill="#63b8ff" stroke="#63b8ff" points="160.92,-332.5 170.92,-329 160.92,-325.5 160.92,-332.5"/>
</g>
<!-- Node2&#45;&gt;Node2 -->
<g id="edge14" class="edge">
<title>Node2&#45;&gt;Node2</title>
<path fill="none" stroke="#63b8ff" d="M208.62,-344.28C201.98,-353.41 211.94,-362 238.5,-362 254.27,-362 264.19,-358.97 268.26,-354.6"/>
<polygon fill="#63b8ff" stroke="#63b8ff" points="271.76,-354.32 268.38,-344.28 264.76,-354.23 271.76,-354.32"/>
</g>
<!-- Node3 -->
<g id="node3" class="node">
<title>Node3</title>
<g id="a_node3"><a xlink:href="namespaceIMGUIZMO__NAMESPACE.html#a7a66153038f229a0456937db4c9f6002" target="_top" xlink:title=" ">
<polygon fill="white" stroke="#666666" points="491.5,-552 356.5,-552 356.5,-522 491.5,-522 491.5,-552"/>
<text text-anchor="start" x="364.5" y="-540" font-family="Helvetica,sans-Serif" font-size="10.00">IMGUIZMO_NAMESPACE</text>
<text text-anchor="middle" x="424" y="-529" font-family="Helvetica,sans-Serif" font-size="10.00">::ComputeCameraRay</text>
</a>
</g>
</g>
<!-- Node2&#45;&gt;Node3 -->
<g id="edge2" class="edge">
<title>Node2&#45;&gt;Node3</title>
<path fill="none" stroke="#63b8ff" d="M244.1,-344.09C255.26,-378.21 286.96,-461.89 342,-508 346.22,-511.54 350.91,-514.66 355.84,-517.41"/>
<polygon fill="#63b8ff" stroke="#63b8ff" points="354.42,-520.61 364.93,-521.96 357.56,-514.35 354.42,-520.61"/>
</g>
<!-- Node5 -->
<g id="node5" class="node">
<title>Node5</title>
<g id="a_node5"><a xlink:href="structIMGUIZMO__NAMESPACE_1_1matrix__t.html#a56153c34b2b81d85c45009fcbb3d5edf" target="_top" xlink:title=" ">
<polygon fill="white" stroke="#666666" points="688.5,-666 553.5,-666 553.5,-636 688.5,-636 688.5,-666"/>
<text text-anchor="start" x="561.5" y="-654" font-family="Helvetica,sans-Serif" font-size="10.00">IMGUIZMO_NAMESPACE</text>
<text text-anchor="middle" x="621" y="-643" font-family="Helvetica,sans-Serif" font-size="10.00">::matrix_t::Inverse</text>
</a>
</g>
</g>
<!-- Node2&#45;&gt;Node5 -->
<g id="edge18" class="edge">
<title>Node2&#45;&gt;Node5</title>
<path fill="none" stroke="#63b8ff" d="M239.57,-344.3C240.69,-393.78 251.54,-550.46 342,-622 398.34,-666.55 482.46,-669.28 543.4,-663.66"/>
<polygon fill="#63b8ff" stroke="#63b8ff" points="543.76,-667.14 553.36,-662.64 543.06,-660.17 543.76,-667.14"/>
</g>
<!-- Node7 -->
<g id="node7" class="node">
<title>Node7</title>
<g id="a_node7"><a xlink:href="namespaceIMGUIZMO__NAMESPACE.html#a76324649a802fbc72ff34c3256822518" target="_top" xlink:title=" ">
<polygon fill="white" stroke="#666666" points="688.5,-410 553.5,-410 553.5,-380 688.5,-380 688.5,-410"/>
<text text-anchor="start" x="561.5" y="-398" font-family="Helvetica,sans-Serif" font-size="10.00">IMGUIZMO_NAMESPACE</text>
<text text-anchor="middle" x="621" y="-387" font-family="Helvetica,sans-Serif" font-size="10.00">::makeVect</text>
</a>
</g>
</g>
<!-- Node2&#45;&gt;Node7 -->
<g id="edge35" class="edge">
<title>Node2&#45;&gt;Node7</title>
<path fill="none" stroke="#63b8ff" d="M248.15,-344.15C263.37,-369.09 297.59,-417.92 342,-437 421.49,-471.15 524.17,-437.88 579.83,-414.17"/>
<polygon fill="#63b8ff" stroke="#63b8ff" points="581.24,-417.38 589,-410.17 578.44,-410.96 581.24,-417.38"/>
</g>
<!-- Node10 -->
<g id="node10" class="node">
<title>Node10</title>
<g id="a_node10"><a xlink:href="structIMGUIZMO__NAMESPACE_1_1vec__t.html#a16d93d6902554c6136645acca3237f3e" target="_top" xlink:title=" ">
<polygon fill="white" stroke="#666666" points="1074,-587 939,-587 939,-557 1074,-557 1074,-587"/>
<text text-anchor="start" x="947" y="-575" font-family="Helvetica,sans-Serif" font-size="10.00">IMGUIZMO_NAMESPACE</text>
<text text-anchor="middle" x="1006.5" y="-564" font-family="Helvetica,sans-Serif" font-size="10.00">::vec_t::Length</text>
</a>
</g>
</g>
<!-- Node2&#45;&gt;Node10 -->
<g id="edge34" class="edge">
<title>Node2&#45;&gt;Node10</title>
<path fill="none" stroke="#63b8ff" d="M240.4,-344.16C243.96,-389.07 261.2,-521.83 342,-579 434.15,-644.21 774.12,-605.47 928.42,-583.72"/>
<polygon fill="#63b8ff" stroke="#63b8ff" points="929.35,-587.12 938.76,-582.25 928.37,-580.19 929.35,-587.12"/>
</g>
<!-- Node11 -->
<g id="node11" class="node">
<title>Node11</title>
<g id="a_node11"><a xlink:href="structIMGUIZMO__NAMESPACE_1_1vec__t.html#a3c8a96ddee077ba073462d00b2dc98e3" target="_top" xlink:title=" ">
<polygon fill="white" stroke="#666666" points="688.5,-476 553.5,-476 553.5,-446 688.5,-446 688.5,-476"/>
<text text-anchor="start" x="561.5" y="-464" font-family="Helvetica,sans-Serif" font-size="10.00">IMGUIZMO_NAMESPACE</text>
<text text-anchor="middle" x="621" y="-453" font-family="Helvetica,sans-Serif" font-size="10.00">::vec_t::Transform</text>
</a>
</g>
</g>
<!-- Node2&#45;&gt;Node11 -->
<g id="edge38" class="edge">
<title>Node2&#45;&gt;Node11</title>
<path fill="none" stroke="#63b8ff" d="M246.06,-344.18C259.33,-372.74 292.41,-433.73 342,-458 404.58,-488.62 484.96,-485.67 543.18,-477.26"/>
<polygon fill="#63b8ff" stroke="#63b8ff" points="544.06,-480.67 553.42,-475.7 543,-473.75 544.06,-480.67"/>
</g>
<!-- Node12 -->
<g id="node12" class="node">
<title>Node12</title>
<g id="a_node12"><a xlink:href="namespaceIMGUIZMO__NAMESPACE.html#a1f1f0d318a148c1247edd11ac9dfc7ec" target="_top" xlink:title=" ">
<polygon fill="white" stroke="#666666" points="506,-240 342,-240 342,-210 506,-210 506,-240"/>
<text text-anchor="start" x="350" y="-228" font-family="Helvetica,sans-Serif" font-size="10.00">IMGUIZMO_NAMESPACE</text>
<text text-anchor="middle" x="424" y="-217" font-family="Helvetica,sans-Serif" font-size="10.00">::GetSegmentLengthClipSpace</text>
</a>
</g>
</g>
<!-- Node2&#45;&gt;Node12 -->
<g id="edge15" class="edge">
<title>Node2&#45;&gt;Node12</title>
<path fill="none" stroke="#63b8ff" d="M266.18,-313.88C298.12,-295.78 351.73,-265.4 387.23,-245.27"/>
<polygon fill="#63b8ff" stroke="#63b8ff" points="389.31,-248.12 396.29,-240.14 385.86,-242.03 389.31,-248.12"/>
</g>
<!-- Node13 -->
<g id="node13" class="node">
<title>Node13</title>
<g id="a_node13"><a xlink:href="structIMGUIZMO__NAMESPACE_1_1vec__t.html#a4061572fc192949bfc7a7b166feee3ad" target="_top" xlink:title=" ">
<polygon fill="white" stroke="#666666" points="688.5,-301 553.5,-301 553.5,-271 688.5,-271 688.5,-301"/>
<text text-anchor="start" x="561.5" y="-289" font-family="Helvetica,sans-Serif" font-size="10.00">IMGUIZMO_NAMESPACE</text>
<text text-anchor="middle" x="621" y="-278" font-family="Helvetica,sans-Serif" font-size="10.00">::vec_t::TransformPoint</text>
</a>
</g>
</g>
<!-- Node2&#45;&gt;Node13 -->
<g id="edge39" class="edge">
<title>Node2&#45;&gt;Node13</title>
<path fill="none" stroke="#63b8ff" d="M296.38,-313.96C311.14,-310.53 327.09,-307.24 342,-305 409.55,-294.85 487.17,-290.12 543.19,-287.91"/>
<polygon fill="#63b8ff" stroke="#63b8ff" points="543.53,-291.4 553.39,-287.53 543.27,-284.41 543.53,-291.4"/>
</g>
<!-- Node14 -->
<g id="node14" class="node">
<title>Node14</title>
<g id="a_node14"><a xlink:href="namespaceIMGUIZMO__NAMESPACE.html#a9e503dcf56e8b94b2f58ae5a50e68d9d" target="_top" xlink:title=" ">
<polygon fill="white" stroke="#666666" points="491.5,-174 356.5,-174 356.5,-144 491.5,-144 491.5,-174"/>
<text text-anchor="start" x="364.5" y="-162" font-family="Helvetica,sans-Serif" font-size="10.00">IMGUIZMO_NAMESPACE</text>
<text text-anchor="middle" x="424" y="-151" font-family="Helvetica,sans-Serif" font-size="10.00">::IsHoveringWindow</text>
</a>
</g>
</g>
<!-- Node2&#45;&gt;Node14 -->
<g id="edge19" class="edge">
<title>Node2&#45;&gt;Node14</title>
<path fill="none" stroke="#63b8ff" d="M248.59,-313.89C264.74,-288.06 300.62,-234.94 342,-201 352.54,-192.35 365.15,-184.77 377.24,-178.52"/>
<polygon fill="#63b8ff" stroke="#63b8ff" points="378.95,-181.58 386.35,-174 375.83,-175.31 378.95,-181.58"/>
</g>
<!-- Node28 -->
<g id="node28" class="node">
<title>Node28</title>
<g id="a_node28"><a xlink:href="structIMGUIZMO__NAMESPACE_1_1matrix__t.html#a84ccaf5f7b800f79b9da1e4b243677b9" target="_top" xlink:title=" ">
<polygon fill="white" stroke="#666666" points="497.5,-126 350.5,-126 350.5,-96 497.5,-96 497.5,-126"/>
<text text-anchor="start" x="358.5" y="-114" font-family="Helvetica,sans-Serif" font-size="10.00">IMGUIZMO_NAMESPACE</text>
<text text-anchor="middle" x="424" y="-103" font-family="Helvetica,sans-Serif" font-size="10.00">::matrix_t::OrthoNormalize</text>
</a>
</g>
</g>
<!-- Node2&#45;&gt;Node28 -->
<g id="edge36" class="edge">
<title>Node2&#45;&gt;Node28</title>
<path fill="none" stroke="#63b8ff" d="M243.17,-313.8C252.78,-277.28 282.18,-184.01 342,-135 343.57,-133.71 345.22,-132.49 346.91,-131.34"/>
<polygon fill="#63b8ff" stroke="#63b8ff" points="348.97,-134.19 355.8,-126.09 345.41,-128.16 348.97,-134.19"/>
</g>
<!-- Node29 -->
<g id="node29" class="node">
<title>Node29</title>
<g id="a_node29"><a xlink:href="structIMGUIZMO__NAMESPACE_1_1vec__t.html#aec6a50b8ea93081cf25d99339b03853e" target="_top" xlink:title=" ">
<polygon fill="white" stroke="#666666" points="491.5,-78 356.5,-78 356.5,-48 491.5,-48 491.5,-78"/>
<text text-anchor="start" x="364.5" y="-66" font-family="Helvetica,sans-Serif" font-size="10.00">IMGUIZMO_NAMESPACE</text>
<text text-anchor="middle" x="424" y="-55" font-family="Helvetica,sans-Serif" font-size="10.00">::vec_t::Set</text>
</a>
</g>
</g>
<!-- Node2&#45;&gt;Node29 -->
<g id="edge37" class="edge">
<title>Node2&#45;&gt;Node29</title>
<path fill="none" stroke="#63b8ff" d="M241.4,-313.95C247.57,-271.62 270.88,-150.53 342,-87 343.73,-85.45 345.56,-84 347.47,-82.65"/>
<polygon fill="#63b8ff" stroke="#63b8ff" points="349.55,-85.48 356.26,-77.28 345.9,-79.5 349.55,-85.48"/>
</g>
<!-- Node30 -->
<g id="node30" class="node">
<title>Node30</title>
<g id="a_node30"><a xlink:href="structIMGUIZMO__NAMESPACE_1_1vec__t.html#a1a9bd14cdd0a36f19a2cdc012a4372c8" target="_top" xlink:title=" ">
<polygon fill="white" stroke="#666666" points="491.5,-30 356.5,-30 356.5,0 491.5,0 491.5,-30"/>
<text text-anchor="start" x="364.5" y="-18" font-family="Helvetica,sans-Serif" font-size="10.00">IMGUIZMO_NAMESPACE</text>
<text text-anchor="middle" x="424" y="-7" font-family="Helvetica,sans-Serif" font-size="10.00">::vec_t::TransformVector</text>
</a>
</g>
</g>
<!-- Node2&#45;&gt;Node30 -->
<g id="edge40" class="edge">
<title>Node2&#45;&gt;Node30</title>
<path fill="none" stroke="#63b8ff" d="M240.22,-313.83C243.33,-266.07 259.52,-117.32 342,-39 343.73,-37.36 345.56,-35.83 347.49,-34.4"/>
<polygon fill="#63b8ff" stroke="#63b8ff" points="349.8,-37.08 356.4,-28.8 346.07,-31.16 349.8,-37.08"/>
</g>
<!-- Node31 -->
<g id="node31" class="node">
<title>Node31</title>
<g id="a_node31"><a xlink:href="structIMGUIZMO__NAMESPACE_1_1matrix__t.html#a378336ac8e5a6a720694f1a3b48fc850" target="_top" xlink:title=" ">
<polygon fill="white" stroke="#666666" points="491.5,-410 356.5,-410 356.5,-380 491.5,-380 491.5,-410"/>
<text text-anchor="start" x="364.5" y="-398" font-family="Helvetica,sans-Serif" font-size="10.00">IMGUIZMO_NAMESPACE</text>
<text text-anchor="middle" x="424" y="-387" font-family="Helvetica,sans-Serif" font-size="10.00">::matrix_t::Translation</text>
</a>
</g>
</g>
<!-- Node2&#45;&gt;Node31 -->
<g id="edge41" class="edge">
<title>Node2&#45;&gt;Node31</title>
<path fill="none" stroke="#63b8ff" d="M273.8,-344.07C293.56,-352.49 318.96,-362.89 342,-371 347.58,-372.97 353.42,-374.91 359.29,-376.79"/>
<polygon fill="#63b8ff" stroke="#63b8ff" points="358.57,-380.23 369.16,-379.88 360.67,-373.55 358.57,-380.23"/>
</g>
<!-- Node32 -->
<g id="node32" class="node">
<title>Node32</title>
<g id="a_node32"><a xlink:href="namespaceIMGUIZMO__NAMESPACE.html#a9da1a3b77a0d6c9def26bb7fcd98214b" target="_top" xlink:title=" ">
<polygon fill="white" stroke="#666666" points="491.5,-344 356.5,-344 356.5,-314 491.5,-314 491.5,-344"/>
<text text-anchor="start" x="364.5" y="-332" font-family="Helvetica,sans-Serif" font-size="10.00">IMGUIZMO_NAMESPACE</text>
<text text-anchor="middle" x="424" y="-321" font-family="Helvetica,sans-Serif" font-size="10.00">::worldToPos</text>
</a>
</g>
</g>
<!-- Node2&#45;&gt;Node32 -->
<g id="edge44" class="edge">
<title>Node2&#45;&gt;Node32</title>
<path fill="none" stroke="#63b8ff" d="M306.01,-329C319.08,-329 332.9,-329 346.28,-329"/>
<polygon fill="#63b8ff" stroke="#63b8ff" points="346.41,-332.5 356.41,-329 346.41,-325.5 346.41,-332.5"/>
</g>
<!-- Node3&#45;&gt;Node3 -->
<g id="edge3" class="edge">
<title>Node3&#45;&gt;Node3</title>
<path fill="none" stroke="#63b8ff" d="M391.66,-552.28C384.47,-561.41 395.25,-570 424,-570 441.07,-570 451.81,-566.97 456.21,-562.6"/>
<polygon fill="#63b8ff" stroke="#63b8ff" points="459.71,-562.32 456.34,-552.28 452.71,-562.23 459.71,-562.32"/>
</g>
<!-- Node4 -->
<g id="node4" class="node">
<title>Node4</title>
<g id="a_node4"><a xlink:href="namespaceImGui.html#a3179e560812f878f3961ce803a5d9302" target="_top" xlink:title=" ">
<polygon fill="white" stroke="#666666" points="661,-579.5 581,-579.5 581,-560.5 661,-560.5 661,-579.5"/>
<text text-anchor="middle" x="621" y="-567.5" font-family="Helvetica,sans-Serif" font-size="10.00">ImGui::GetIO</text>
</a>
</g>
</g>
<!-- Node3&#45;&gt;Node4 -->
<g id="edge4" class="edge">
<title>Node3&#45;&gt;Node4</title>
<path fill="none" stroke="#63b8ff" d="M491.56,-548.26C517.53,-552.66 546.77,-557.61 570.78,-561.67"/>
<polygon fill="#63b8ff" stroke="#63b8ff" points="570.28,-565.14 580.72,-563.35 571.45,-558.23 570.28,-565.14"/>
</g>
<!-- Node3&#45;&gt;Node5 -->
<g id="edge5" class="edge">
<title>Node3&#45;&gt;Node5</title>
<path fill="none" stroke="#63b8ff" d="M450.89,-552.14C485.52,-572.38 546.99,-608.32 585.51,-630.84"/>
<polygon fill="#63b8ff" stroke="#63b8ff" points="583.91,-633.96 594.31,-635.98 587.44,-627.91 583.91,-633.96"/>
</g>
<!-- Node3&#45;&gt;Node7 -->
<g id="edge7" class="edge">
<title>Node3&#45;&gt;Node7</title>
<path fill="none" stroke="#63b8ff" d="M443.89,-521.83C460.45,-508.42 485.08,-488.22 506,-470 522.37,-455.74 524.31,-449.58 542,-437 553.39,-428.91 566.52,-421.27 578.71,-414.78"/>
<polygon fill="#63b8ff" stroke="#63b8ff" points="580.55,-417.77 587.82,-410.06 577.33,-411.56 580.55,-417.77"/>
</g>
<!-- Node8 -->
<g id="node8" class="node">
<title>Node8</title>
<g id="a_node8"><a xlink:href="namespaceIMGUIZMO__NAMESPACE.html#a9d9d75f9cfb5de40c04c3d28ee040022" target="_top" xlink:title=" ">
<polygon fill="white" stroke="#666666" points="688.5,-524 553.5,-524 553.5,-494 688.5,-494 688.5,-524"/>
<text text-anchor="start" x="561.5" y="-512" font-family="Helvetica,sans-Serif" font-size="10.00">IMGUIZMO_NAMESPACE</text>
<text text-anchor="middle" x="621" y="-501" font-family="Helvetica,sans-Serif" font-size="10.00">::Normalized</text>
</a>
</g>
</g>
<!-- Node3&#45;&gt;Node8 -->
<g id="edge9" class="edge">
<title>Node3&#45;&gt;Node8</title>
<path fill="none" stroke="#63b8ff" d="M491.56,-527.44C508.26,-525.05 526.3,-522.45 543.44,-519.99"/>
<polygon fill="#63b8ff" stroke="#63b8ff" points="544.01,-523.45 553.41,-518.56 543.01,-516.52 544.01,-523.45"/>
</g>
<!-- Node3&#45;&gt;Node11 -->
<g id="edge13" class="edge">
<title>Node3&#45;&gt;Node11</title>
<path fill="none" stroke="#63b8ff" d="M472.85,-521.88C483.94,-517.83 495.54,-513.13 506,-508 523.05,-499.64 524.77,-492.98 542,-485 546.09,-483.11 550.36,-481.32 554.72,-479.63"/>
<polygon fill="#63b8ff" stroke="#63b8ff" points="556.15,-482.83 564.33,-476.1 553.74,-476.26 556.15,-482.83"/>
</g>
<!-- Node6 -->
<g id="node6" class="node">
<title>Node6</title>
<g id="a_node6"><a xlink:href="structIMGUIZMO__NAMESPACE_1_1matrix__t.html#aaee954cef92bba7853147b3e75feff25" target="_top" xlink:title=" ">
<polygon fill="white" stroke="#666666" points="892.5,-666 743.5,-666 743.5,-636 892.5,-636 892.5,-666"/>
<text text-anchor="start" x="751.5" y="-654" font-family="Helvetica,sans-Serif" font-size="10.00">IMGUIZMO_NAMESPACE</text>
<text text-anchor="middle" x="818" y="-643" font-family="Helvetica,sans-Serif" font-size="10.00">::matrix_t::GetDeterminant</text>
</a>
</g>
</g>
<!-- Node5&#45;&gt;Node6 -->
<g id="edge6" class="edge">
<title>Node5&#45;&gt;Node6</title>
<path fill="none" stroke="#63b8ff" d="M688.56,-651C702.91,-651 718.25,-651 733.15,-651"/>
<polygon fill="#63b8ff" stroke="#63b8ff" points="733.38,-654.5 743.38,-651 733.38,-647.5 733.38,-654.5"/>
</g>
<!-- Node7&#45;&gt;Node7 -->
<g id="edge8" class="edge">
<title>Node7&#45;&gt;Node7</title>
<path fill="none" stroke="#63b8ff" d="M586.55,-410.28C578.89,-419.41 590.38,-428 621,-428 639.18,-428 650.62,-424.97 655.31,-420.6"/>
<polygon fill="#63b8ff" stroke="#63b8ff" points="658.81,-420.32 655.45,-410.28 651.81,-420.22 658.81,-420.32"/>
</g>
<!-- Node8&#45;&gt;Node8 -->
<g id="edge12" class="edge">
<title>Node8&#45;&gt;Node8</title>
<path fill="none" stroke="#63b8ff" d="M586.55,-524.28C578.89,-533.41 590.38,-542 621,-542 639.18,-542 650.62,-538.97 655.31,-534.6"/>
<polygon fill="#63b8ff" stroke="#63b8ff" points="658.81,-534.32 655.45,-524.28 651.81,-534.22 658.81,-534.32"/>
</g>
<!-- Node9 -->
<g id="node9" class="node">
<title>Node9</title>
<g id="a_node9"><a xlink:href="structIMGUIZMO__NAMESPACE_1_1vec__t.html#a2e18e8518186c392795c4cd17a4efd62" target="_top" xlink:title=" ">
<polygon fill="white" stroke="#666666" points="885.5,-552 750.5,-552 750.5,-522 885.5,-522 885.5,-552"/>
<text text-anchor="start" x="758.5" y="-540" font-family="Helvetica,sans-Serif" font-size="10.00">IMGUIZMO_NAMESPACE</text>
<text text-anchor="middle" x="818" y="-529" font-family="Helvetica,sans-Serif" font-size="10.00">::vec_t::Normalize</text>
</a>
</g>
</g>
<!-- Node8&#45;&gt;Node9 -->
<g id="edge10" class="edge">
<title>Node8&#45;&gt;Node9</title>
<path fill="none" stroke="#63b8ff" d="M688.56,-518.56C705.26,-520.95 723.3,-523.55 740.44,-526.01"/>
<polygon fill="#63b8ff" stroke="#63b8ff" points="740.01,-529.48 750.41,-527.44 741.01,-522.55 740.01,-529.48"/>
</g>
<!-- Node9&#45;&gt;Node10 -->
<g id="edge11" class="edge">
<title>Node9&#45;&gt;Node10</title>
<path fill="none" stroke="#63b8ff" d="M885.54,-549.49C899.65,-552.14 914.65,-554.95 929.09,-557.66"/>
<polygon fill="#63b8ff" stroke="#63b8ff" points="928.51,-561.11 938.98,-559.52 929.8,-554.23 928.51,-561.11"/>
</g>
<!-- Node12&#45;&gt;Node12 -->
<g id="edge16" class="edge">
<title>Node12&#45;&gt;Node12</title>
<path fill="none" stroke="#63b8ff" d="M391.66,-240.28C384.47,-249.41 395.25,-258 424,-258 441.07,-258 451.81,-254.97 456.21,-250.6"/>
<polygon fill="#63b8ff" stroke="#63b8ff" points="459.71,-250.32 456.34,-240.28 452.71,-250.23 459.71,-250.32"/>
</g>
<!-- Node12&#45;&gt;Node13 -->
<g id="edge17" class="edge">
<title>Node12&#45;&gt;Node13</title>
<path fill="none" stroke="#63b8ff" d="M473.2,-240.08C500.14,-248.51 533.89,-259.06 562.23,-267.93"/>
<polygon fill="#63b8ff" stroke="#63b8ff" points="561.43,-271.34 572.01,-270.99 563.52,-264.66 561.43,-271.34"/>
</g>
<!-- Node14&#45;&gt;Node14 -->
<g id="edge26" class="edge">
<title>Node14&#45;&gt;Node14</title>
<path fill="none" stroke="#63b8ff" d="M391.66,-174.28C384.47,-183.41 395.25,-192 424,-192 441.07,-192 451.81,-188.97 456.21,-184.6"/>
<polygon fill="#63b8ff" stroke="#63b8ff" points="459.71,-184.32 456.34,-174.28 452.71,-184.23 459.71,-184.32"/>
</g>
<!-- Node15 -->
<g id="node15" class="node">
<title>Node15</title>
<g id="a_node15"><a xlink:href="namespaceImGui.html#abca25f22c02e73d5eb2e9c72c4557813" target="_top" xlink:title=" ">
<polygon fill="white" stroke="#666666" points="697.5,-205.5 544.5,-205.5 544.5,-186.5 697.5,-186.5 697.5,-205.5"/>
<text text-anchor="middle" x="621" y="-193.5" font-family="Helvetica,sans-Serif" font-size="10.00">ImGui::FindWindowByName</text>
</a>
</g>
</g>
<!-- Node14&#45;&gt;Node15 -->
<g id="edge20" class="edge">
<title>Node14&#45;&gt;Node15</title>
<path fill="none" stroke="#63b8ff" d="M491.56,-171.63C513.66,-175.82 538.12,-180.46 559.72,-184.56"/>
<polygon fill="#63b8ff" stroke="#63b8ff" points="559.27,-188.04 569.74,-186.46 560.57,-181.16 559.27,-188.04"/>
</g>
<!-- Node20 -->
<g id="node20" class="node">
<title>Node20</title>
<g id="a_node20"><a xlink:href="namespaceImGui.html#af557a6de5538099a0f6047eb994bbf42" target="_top" xlink:title=" ">
<polygon fill="white" stroke="#666666" points="692.5,-168.5 549.5,-168.5 549.5,-149.5 692.5,-149.5 692.5,-168.5"/>
<text text-anchor="middle" x="621" y="-156.5" font-family="Helvetica,sans-Serif" font-size="10.00">ImGui::GetCurrentContext</text>
</a>
</g>
</g>
<!-- Node14&#45;&gt;Node20 -->
<g id="edge25" class="edge">
<title>Node14&#45;&gt;Node20</title>
<path fill="none" stroke="#63b8ff" d="M491.56,-159C506.86,-159 523.29,-159 539.11,-159"/>
<polygon fill="#63b8ff" stroke="#63b8ff" points="539.41,-162.5 549.41,-159 539.41,-155.5 539.41,-162.5"/>
</g>
<!-- Node21 -->
<g id="node21" class="node">
<title>Node21</title>
<g id="a_node21"><a xlink:href="namespaceImGui.html#ae0b8ea0e06c457316d6aed6c5b2a1c25" target="_top" xlink:title=" ">
<polygon fill="white" stroke="#666666" points="700,-131.5 542,-131.5 542,-112.5 700,-112.5 700,-131.5"/>
<text text-anchor="middle" x="621" y="-119.5" font-family="Helvetica,sans-Serif" font-size="10.00">ImGui::IsMouseHoveringRect</text>
</a>
</g>
</g>
<!-- Node14&#45;&gt;Node21 -->
<g id="edge27" class="edge">
<title>Node14&#45;&gt;Node21</title>
<path fill="none" stroke="#63b8ff" d="M491.56,-146.37C513.66,-142.18 538.12,-137.54 559.72,-133.44"/>
<polygon fill="#63b8ff" stroke="#63b8ff" points="560.57,-136.84 569.74,-131.54 559.27,-129.96 560.57,-136.84"/>
</g>
<!-- Node16 -->
<g id="node16" class="node">
<title>Node16</title>
<g id="a_node16"><a xlink:href="namespaceImGui.html#a82204d8800dc3a072ddbcbd2aecc48ac" target="_top" xlink:title=" ">
<polygon fill="white" stroke="#666666" points="885,-205.5 751,-205.5 751,-186.5 885,-186.5 885,-205.5"/>
<text text-anchor="middle" x="818" y="-193.5" font-family="Helvetica,sans-Serif" font-size="10.00">ImGui::FindWindowByID</text>
</a>
</g>
</g>
<!-- Node15&#45;&gt;Node16 -->
<g id="edge21" class="edge">
<title>Node15&#45;&gt;Node16</title>
<path fill="none" stroke="#63b8ff" d="M697.67,-196C711.8,-196 726.57,-196 740.72,-196"/>
<polygon fill="#63b8ff" stroke="#63b8ff" points="740.89,-199.5 750.89,-196 740.89,-192.5 740.89,-199.5"/>
</g>
<!-- Node19 -->
<g id="node19" class="node">
<title>Node19</title>
<g id="a_node19"><a xlink:href="imgui_8cpp.html#ab6659b5d67f7a3369e099ce890e12223" target="_top" xlink:title=" ">
<polygon fill="white" stroke="#666666" points="852,-242.5 784,-242.5 784,-223.5 852,-223.5 852,-242.5"/>
<text text-anchor="middle" x="818" y="-230.5" font-family="Helvetica,sans-Serif" font-size="10.00">ImHashStr</text>
</a>
</g>
</g>
<!-- Node15&#45;&gt;Node19 -->
<g id="edge24" class="edge">
<title>Node15&#45;&gt;Node19</title>
<path fill="none" stroke="#63b8ff" d="M672.22,-205.53C703.61,-211.49 743.63,-219.08 773.64,-224.77"/>
<polygon fill="#63b8ff" stroke="#63b8ff" points="773.33,-228.28 783.81,-226.7 774.63,-221.4 773.33,-228.28"/>
</g>
<!-- Node17 -->
<g id="node17" class="node">
<title>Node17</title>
<g id="a_node17"><a xlink:href="structImGuiStorage.html#aaf87a98ede89da09113b0189f6d878ca" target="_top" xlink:title=" ">
<polygon fill="white" stroke="#666666" points="1077,-205.5 936,-205.5 936,-186.5 1077,-186.5 1077,-205.5"/>
<text text-anchor="middle" x="1006.5" y="-193.5" font-family="Helvetica,sans-Serif" font-size="10.00">ImGuiStorage::GetVoidPtr</text>
</a>
</g>
</g>
<!-- Node16&#45;&gt;Node17 -->
<g id="edge22" class="edge">
<title>Node16&#45;&gt;Node17</title>
<path fill="none" stroke="#63b8ff" d="M885.02,-196C898.13,-196 912.02,-196 925.54,-196"/>
<polygon fill="#63b8ff" stroke="#63b8ff" points="925.78,-199.5 935.78,-196 925.78,-192.5 925.78,-199.5"/>
</g>
<!-- Node18 -->
<g id="node18" class="node">
<title>Node18</title>
<g id="a_node18"><a xlink:href="imgui_8cpp.html#a409bfd6de574854cd644636ea13b6a8a" target="_top" xlink:title=" ">
<polygon fill="white" stroke="#666666" points="1202,-205.5 1113,-205.5 1113,-186.5 1202,-186.5 1202,-205.5"/>
<text text-anchor="middle" x="1157.5" y="-193.5" font-family="Helvetica,sans-Serif" font-size="10.00">ImLowerBound</text>
</a>
</g>
</g>
<!-- Node17&#45;&gt;Node18 -->
<g id="edge23" class="edge">
<title>Node17&#45;&gt;Node18</title>
<path fill="none" stroke="#63b8ff" d="M1077.2,-196C1085.72,-196 1094.33,-196 1102.57,-196"/>
<polygon fill="#63b8ff" stroke="#63b8ff" points="1102.78,-199.5 1112.78,-196 1102.78,-192.5 1102.78,-199.5"/>
</g>
<!-- Node22 -->
<g id="node22" class="node">
<title>Node22</title>
<g id="a_node22"><a xlink:href="structImRect.html#ac02d5cf6ce0358aea9ed9df43d368f3f" target="_top" xlink:title=" ">
<polygon fill="white" stroke="#666666" points="867,-131.5 769,-131.5 769,-112.5 867,-112.5 867,-131.5"/>
<text text-anchor="middle" x="818" y="-119.5" font-family="Helvetica,sans-Serif" font-size="10.00">ImRect::ClipWith</text>
</a>
</g>
</g>
<!-- Node21&#45;&gt;Node22 -->
<g id="edge28" class="edge">
<title>Node21&#45;&gt;Node22</title>
<path fill="none" stroke="#63b8ff" d="M700.19,-122C719.68,-122 740.24,-122 758.59,-122"/>
<polygon fill="#63b8ff" stroke="#63b8ff" points="758.82,-125.5 768.82,-122 758.82,-118.5 758.82,-125.5"/>
</g>
<!-- Node25 -->
<g id="node25" class="node">
<title>Node25</title>
<g id="a_node25"><a xlink:href="structImRect.html#a8dbab244f4e5b786faa9684eb85110fc" target="_top" xlink:title=" ">
<polygon fill="white" stroke="#666666" points="888,-94.5 748,-94.5 748,-75.5 888,-75.5 888,-94.5"/>
<text text-anchor="middle" x="818" y="-82.5" font-family="Helvetica,sans-Serif" font-size="10.00">ImRect::ContainsWithPad</text>
</a>
</g>
</g>
<!-- Node21&#45;&gt;Node25 -->
<g id="edge31" class="edge">
<title>Node21&#45;&gt;Node25</title>
<path fill="none" stroke="#63b8ff" d="M672.22,-112.47C697.93,-107.59 729.44,-101.61 756.49,-96.48"/>
<polygon fill="#63b8ff" stroke="#63b8ff" points="757.44,-99.86 766.61,-94.56 756.14,-92.99 757.44,-99.86"/>
</g>
<!-- Node26 -->
<g id="node26" class="node">
<title>Node26</title>
<g id="a_node26"><a xlink:href="structImGuiViewportP.html#adb4c14f0b0a42bff9c1c0ab1971027f7" target="_top" xlink:title=" ">
<polygon fill="white" stroke="#666666" points="900,-57.5 736,-57.5 736,-38.5 900,-38.5 900,-57.5"/>
<text text-anchor="middle" x="818" y="-45.5" font-family="Helvetica,sans-Serif" font-size="10.00">ImGuiViewportP::GetMainRect</text>
</a>
</g>
</g>
<!-- Node21&#45;&gt;Node26 -->
<g id="edge32" class="edge">
<title>Node21&#45;&gt;Node26</title>
<path fill="none" stroke="#63b8ff" d="M638.45,-112.36C660.14,-100.01 699.8,-78.71 736,-66 742.3,-63.79 748.98,-61.79 755.68,-59.99"/>
<polygon fill="#63b8ff" stroke="#63b8ff" points="756.66,-63.36 765.49,-57.51 754.94,-56.57 756.66,-63.36"/>
</g>
<!-- Node27 -->
<g id="node27" class="node">
<title>Node27</title>
<g id="a_node27"><a xlink:href="structImRect.html#a0af3bade3781e5e7c6afdf71ccfb0d43" target="_top" xlink:title=" ">
<polygon fill="white" stroke="#666666" points="868.5,-168.5 767.5,-168.5 767.5,-149.5 868.5,-149.5 868.5,-168.5"/>
<text text-anchor="middle" x="818" y="-156.5" font-family="Helvetica,sans-Serif" font-size="10.00">ImRect::Overlaps</text>
</a>
</g>
</g>
<!-- Node21&#45;&gt;Node27 -->
<g id="edge33" class="edge">
<title>Node21&#45;&gt;Node27</title>
<path fill="none" stroke="#63b8ff" d="M672.22,-131.53C698.13,-136.45 729.93,-142.48 757.12,-147.64"/>
<polygon fill="#63b8ff" stroke="#63b8ff" points="756.81,-151.14 767.29,-149.57 758.12,-144.27 756.81,-151.14"/>
</g>
<!-- Node23 -->
<g id="node23" class="node">
<title>Node23</title>
<g id="a_node23"><a xlink:href="imgui__internal_8h.html#a7667efd95147d0422f140917c71a9226" target="_top" xlink:title=" ">
<polygon fill="white" stroke="#666666" points="1031.5,-112.5 981.5,-112.5 981.5,-93.5 1031.5,-93.5 1031.5,-112.5"/>
<text text-anchor="middle" x="1006.5" y="-100.5" font-family="Helvetica,sans-Serif" font-size="10.00">ImMax</text>
</a>
</g>
</g>
<!-- Node22&#45;&gt;Node23 -->
<g id="edge29" class="edge">
<title>Node22&#45;&gt;Node23</title>
<path fill="none" stroke="#63b8ff" d="M867.03,-117.11C899.61,-113.79 941.92,-109.48 971.15,-106.5"/>
<polygon fill="#63b8ff" stroke="#63b8ff" points="971.69,-109.96 981.29,-105.47 970.98,-103 971.69,-109.96"/>
</g>
<!-- Node24 -->
<g id="node24" class="node">
<title>Node24</title>
<g id="a_node24"><a xlink:href="imgui__internal_8h.html#a7f9d7828066a9d61b5630adcdf4655d3" target="_top" xlink:title=" ">
<polygon fill="white" stroke="#666666" points="1030,-149.5 983,-149.5 983,-130.5 1030,-130.5 1030,-149.5"/>
<text text-anchor="middle" x="1006.5" y="-137.5" font-family="Helvetica,sans-Serif" font-size="10.00">ImMin</text>
</a>
</g>
</g>
<!-- Node22&#45;&gt;Node24 -->
<g id="edge30" class="edge">
<title>Node22&#45;&gt;Node24</title>
<path fill="none" stroke="#63b8ff" d="M867.03,-126.64C900.09,-129.83 943.17,-133.98 972.44,-136.81"/>
<polygon fill="#63b8ff" stroke="#63b8ff" points="972.26,-140.31 982.55,-137.78 972.93,-133.34 972.26,-140.31"/>
</g>
<!-- Node31&#45;&gt;Node7 -->
<g id="edge42" class="edge">
<title>Node31&#45;&gt;Node7</title>
<path fill="none" stroke="#63b8ff" d="M491.56,-395C508.1,-395 525.96,-395 542.96,-395"/>
<polygon fill="#63b8ff" stroke="#63b8ff" points="543.41,-398.5 553.41,-395 543.41,-391.5 543.41,-398.5"/>
</g>
<!-- Node31&#45;&gt;Node31 -->
<g id="edge43" class="edge">
<title>Node31&#45;&gt;Node31</title>
<path fill="none" stroke="#63b8ff" d="M391.66,-410.28C384.47,-419.41 395.25,-428 424,-428 441.07,-428 451.81,-424.97 456.21,-420.6"/>
<polygon fill="#63b8ff" stroke="#63b8ff" points="459.71,-420.32 456.34,-410.28 452.71,-420.23 459.71,-420.32"/>
</g>
<!-- Node32&#45;&gt;Node7 -->
<g id="edge45" class="edge">
<title>Node32&#45;&gt;Node7</title>
<path fill="none" stroke="#63b8ff" d="M469.74,-344.14C498.35,-353.83 535.64,-366.45 565.91,-376.69"/>
<polygon fill="#63b8ff" stroke="#63b8ff" points="564.88,-380.04 575.47,-379.93 567.12,-373.41 564.88,-380.04"/>
</g>
<!-- Node32&#45;&gt;Node13 -->
<g id="edge46" class="edge">
<title>Node32&#45;&gt;Node13</title>
<path fill="none" stroke="#63b8ff" d="M491.56,-314.32C508.26,-310.64 526.3,-306.66 543.44,-302.88"/>
<polygon fill="#63b8ff" stroke="#63b8ff" points="544.39,-306.26 553.41,-300.68 542.89,-299.42 544.39,-306.26"/>
</g>
<!-- Node32&#45;&gt;Node32 -->
<g id="edge47" class="edge">
<title>Node32&#45;&gt;Node32</title>
<path fill="none" stroke="#63b8ff" d="M391.66,-344.28C384.47,-353.41 395.25,-362 424,-362 441.07,-362 451.81,-358.97 456.21,-354.6"/>
<polygon fill="#63b8ff" stroke="#63b8ff" points="459.71,-354.32 456.34,-344.28 452.71,-354.23 459.71,-354.32"/>
</g>
</g>
</svg>
