<?xml version="1.0" encoding="UTF-8" standalone="no"?>
<!DOCTYPE svg PUBLIC "-//W3C//DTD SVG 1.1//EN"
 "http://www.w3.org/Graphics/SVG/1.1/DTD/svg11.dtd">
<!-- Generated by graphviz version 2.43.0 (0)
 -->
<!-- Title: ImGui::InputTextMultiline Pages: 1 -->
<svg width="725pt" height="113pt"
 viewBox="0.00 0.00 725.00 112.50" xmlns="http://www.w3.org/2000/svg" xmlns:xlink="http://www.w3.org/1999/xlink">
<g id="graph0" class="graph" transform="scale(1 1) rotate(0) translate(4 108.5)">
<title>ImGui::InputTextMultiline</title>
<!-- Node1 -->
<g id="node1" class="node">
<title>Node1</title>
<g id="a_node1"><a xlink:title=" ">
<polygon fill="#999999" stroke="#666666" points="717,-56 577,-56 577,-37 717,-37 717,-56"/>
<text text-anchor="middle" x="647" y="-44" font-family="Helvetica,sans-Serif" font-size="10.00">ImGui::InputTextMultiline</text>
</a>
</g>
</g>
<!-- Node2 -->
<g id="node2" class="node">
<title>Node2</title>
<g id="a_node2"><a xlink:href="imgui__demo_8cpp.html#a5de91117986b51cfb587630d6ff46205" target="_top" xlink:title=" ">
<polygon fill="white" stroke="#666666" points="540.5,-104.5 371.5,-104.5 371.5,-74.5 540.5,-74.5 540.5,-104.5"/>
<text text-anchor="start" x="379.5" y="-92.5" font-family="Helvetica,sans-Serif" font-size="10.00">DemoWindowWidgetsQuerying</text>
<text text-anchor="middle" x="456" y="-81.5" font-family="Helvetica,sans-Serif" font-size="10.00">Statuses</text>
</a>
</g>
</g>
<!-- Node1&#45;&gt;Node2 -->
<g id="edge1" class="edge">
<title>Node1&#45;&gt;Node2</title>
<path fill="none" stroke="#63b8ff" d="M594.24,-58.28C572.24,-63.28 546.31,-69.18 522.96,-74.49"/>
<polygon fill="#63b8ff" stroke="#63b8ff" points="595.08,-61.67 604.05,-56.04 593.53,-54.85 595.08,-61.67"/>
</g>
<!-- Node5 -->
<g id="node5" class="node">
<title>Node5</title>
<g id="a_node5"><a xlink:href="imgui__demo_8cpp.html#a31d551eee605af9d19c3c2fbbbf01aed" target="_top" xlink:title=" ">
<polygon fill="white" stroke="#666666" points="541,-56 371,-56 371,-37 541,-37 541,-56"/>
<text text-anchor="middle" x="456" y="-44" font-family="Helvetica,sans-Serif" font-size="10.00">DemoWindowWidgetsTextInput</text>
</a>
</g>
</g>
<!-- Node1&#45;&gt;Node5 -->
<g id="edge4" class="edge">
<title>Node1&#45;&gt;Node5</title>
<path fill="none" stroke="#63b8ff" d="M566.79,-46.5C558.36,-46.5 549.76,-46.5 541.28,-46.5"/>
<polygon fill="#63b8ff" stroke="#63b8ff" points="566.96,-50 576.96,-46.5 566.96,-43 566.96,-50"/>
</g>
<!-- Node6 -->
<g id="node6" class="node">
<title>Node6</title>
<g id="a_node6"><a xlink:href="namespaceImGui.html#afe7a28c6eb52fff3cc27d5a698fea4ff" target="_top" xlink:title=" ">
<polygon fill="white" stroke="#666666" points="335,-19 182,-19 182,0 335,0 335,-19"/>
<text text-anchor="middle" x="258.5" y="-7" font-family="Helvetica,sans-Serif" font-size="10.00">ImGui::ShowMetricsWindow</text>
</a>
</g>
</g>
<!-- Node1&#45;&gt;Node6 -->
<g id="edge6" class="edge">
<title>Node1&#45;&gt;Node6</title>
<path fill="none" stroke="#63b8ff" d="M586.65,-35.24C571.79,-32.72 555.85,-30.27 541,-28.5 471.57,-20.23 392.04,-15.27 335.26,-12.51"/>
<polygon fill="#63b8ff" stroke="#63b8ff" points="586.29,-38.73 596.74,-36.98 587.49,-31.83 586.29,-38.73"/>
</g>
<!-- Node3 -->
<g id="node3" class="node">
<title>Node3</title>
<g id="a_node3"><a xlink:href="imgui__demo_8cpp.html#a9a639caab781642cbc4f4a23bfbd11cd" target="_top" xlink:title=" ">
<polygon fill="white" stroke="#666666" points="321,-56 196,-56 196,-37 321,-37 321,-56"/>
<text text-anchor="middle" x="258.5" y="-44" font-family="Helvetica,sans-Serif" font-size="10.00">DemoWindowWidgets</text>
</a>
</g>
</g>
<!-- Node2&#45;&gt;Node3 -->
<g id="edge2" class="edge">
<title>Node2&#45;&gt;Node3</title>
<path fill="none" stroke="#63b8ff" d="M376.7,-72.28C351.51,-66.74 324.52,-60.8 302.79,-56.02"/>
<polygon fill="#63b8ff" stroke="#63b8ff" points="376.11,-75.73 386.62,-74.46 377.61,-68.89 376.11,-75.73"/>
</g>
<!-- Node4 -->
<g id="node4" class="node">
<title>Node4</title>
<g id="a_node4"><a xlink:href="namespaceImGui.html#af95643a0ce4893b9e57c12991922fb18" target="_top" xlink:title=" ">
<polygon fill="white" stroke="#666666" points="146,-37 0,-37 0,-18 146,-18 146,-37"/>
<text text-anchor="middle" x="73" y="-25" font-family="Helvetica,sans-Serif" font-size="10.00">ImGui::ShowDemoWindow</text>
</a>
</g>
</g>
<!-- Node3&#45;&gt;Node4 -->
<g id="edge3" class="edge">
<title>Node3&#45;&gt;Node4</title>
<path fill="none" stroke="#63b8ff" d="M185.64,-39.06C172.7,-37.72 159.2,-36.32 146.24,-34.98"/>
<polygon fill="#63b8ff" stroke="#63b8ff" points="185.58,-42.57 195.89,-40.12 186.3,-35.61 185.58,-42.57"/>
</g>
<!-- Node5&#45;&gt;Node3 -->
<g id="edge5" class="edge">
<title>Node5&#45;&gt;Node3</title>
<path fill="none" stroke="#63b8ff" d="M360.69,-46.5C347.22,-46.5 333.66,-46.5 321.04,-46.5"/>
<polygon fill="#63b8ff" stroke="#63b8ff" points="360.96,-50 370.96,-46.5 360.96,-43 360.96,-50"/>
</g>
<!-- Node6&#45;&gt;Node4 -->
<g id="edge7" class="edge">
<title>Node6&#45;&gt;Node4</title>
<path fill="none" stroke="#63b8ff" d="M171.82,-17.9C163.28,-18.74 154.66,-19.59 146.28,-20.41"/>
<polygon fill="#63b8ff" stroke="#63b8ff" points="172.19,-21.38 181.8,-16.93 171.51,-14.42 172.19,-21.38"/>
</g>
</g>
</svg>
