<?xml version="1.0" encoding="UTF-8" standalone="no"?>
<!DOCTYPE svg PUBLIC "-//W3C//DTD SVG 1.1//EN"
 "http://www.w3.org/Graphics/SVG/1.1/DTD/svg11.dtd">
<!-- Generated by graphviz version 2.43.0 (0)
 -->
<!-- Title: ImGui::DebugLogV Pages: 1 -->
<svg width="433pt" height="212pt"
 viewBox="0.00 0.00 433.00 212.00" xmlns="http://www.w3.org/2000/svg" xmlns:xlink="http://www.w3.org/1999/xlink">
<g id="graph0" class="graph" transform="scale(1 1) rotate(0) translate(4 208)">
<title>ImGui::DebugLogV</title>
<!-- Node1 -->
<g id="node1" class="node">
<title>Node1</title>
<g id="a_node1"><a xlink:title=" ">
<polygon fill="#999999" stroke="#666666" points="107,-111 0,-111 0,-92 107,-92 107,-111"/>
<text text-anchor="middle" x="53.5" y="-99" font-family="Helvetica,sans-Serif" font-size="10.00">ImGui::DebugLogV</text>
</a>
</g>
</g>
<!-- Node2 -->
<g id="node2" class="node">
<title>Node2</title>
<g id="a_node2"><a xlink:href="structImGuiTextIndex.html#aa1dd7404a8097a902f1dd83ba988bd95" target="_top" xlink:title=" ">
<polygon fill="white" stroke="#666666" points="284,-204 149,-204 149,-185 284,-185 284,-204"/>
<text text-anchor="middle" x="216.5" y="-192" font-family="Helvetica,sans-Serif" font-size="10.00">ImGuiTextIndex::append</text>
</a>
</g>
</g>
<!-- Node1&#45;&gt;Node2 -->
<g id="edge1" class="edge">
<title>Node1&#45;&gt;Node2</title>
<path fill="none" stroke="#63b8ff" d="M63.02,-111.17C77.71,-127.23 109.48,-159.34 143,-176.5 146.7,-178.39 150.61,-180.1 154.62,-181.63"/>
<polygon fill="#63b8ff" stroke="#63b8ff" points="153.52,-184.95 164.11,-184.89 155.79,-178.33 153.52,-184.95"/>
</g>
<!-- Node4 -->
<g id="node4" class="node">
<title>Node4</title>
<g id="a_node4"><a xlink:href="structImGuiTextBuffer.html#a1c5892db030c5364823793f472754c9e" target="_top" xlink:title=" ">
<polygon fill="white" stroke="#666666" points="287,-167 146,-167 146,-148 287,-148 287,-167"/>
<text text-anchor="middle" x="216.5" y="-155" font-family="Helvetica,sans-Serif" font-size="10.00">ImGuiTextBuffer::appendf</text>
</a>
</g>
</g>
<!-- Node1&#45;&gt;Node4 -->
<g id="edge3" class="edge">
<title>Node1&#45;&gt;Node4</title>
<path fill="none" stroke="#63b8ff" d="M74.17,-111.04C91.88,-119.36 118.75,-131.34 143,-139.5 149.13,-141.56 155.62,-143.5 162.11,-145.29"/>
<polygon fill="#63b8ff" stroke="#63b8ff" points="161.67,-148.8 172.23,-147.98 163.46,-142.03 161.67,-148.8"/>
</g>
<!-- Node5 -->
<g id="node5" class="node">
<title>Node5</title>
<g id="a_node5"><a xlink:href="structImGuiTextBuffer.html#ac8a6b11834c4cee8113bf6950e66112e" target="_top" xlink:title=" ">
<polygon fill="white" stroke="#666666" points="290,-130 143,-130 143,-111 290,-111 290,-130"/>
<text text-anchor="middle" x="216.5" y="-118" font-family="Helvetica,sans-Serif" font-size="10.00">ImGuiTextBuffer::appendfv</text>
</a>
</g>
</g>
<!-- Node1&#45;&gt;Node5 -->
<g id="edge4" class="edge">
<title>Node1&#45;&gt;Node5</title>
<path fill="none" stroke="#63b8ff" d="M107.22,-107.72C115.39,-108.69 124,-109.7 132.65,-110.72"/>
<polygon fill="#63b8ff" stroke="#63b8ff" points="132.45,-114.22 142.79,-111.92 133.27,-107.27 132.45,-114.22"/>
</g>
<!-- Node7 -->
<g id="node7" class="node">
<title>Node7</title>
<g id="a_node7"><a xlink:href="structImGuiTextBuffer.html#ad971435d81bc0b957cdb59f5d58eaacd" target="_top" xlink:title=" ">
<polygon fill="white" stroke="#666666" points="280.5,-93 152.5,-93 152.5,-74 280.5,-74 280.5,-93"/>
<text text-anchor="middle" x="216.5" y="-81" font-family="Helvetica,sans-Serif" font-size="10.00">ImGuiTextBuffer::begin</text>
</a>
</g>
</g>
<!-- Node1&#45;&gt;Node7 -->
<g id="edge6" class="edge">
<title>Node1&#45;&gt;Node7</title>
<path fill="none" stroke="#63b8ff" d="M107.22,-95.61C118.35,-94.36 130.3,-93.03 142.04,-91.71"/>
<polygon fill="#63b8ff" stroke="#63b8ff" points="142.73,-95.16 152.28,-90.57 141.96,-88.2 142.73,-95.16"/>
</g>
<!-- Node9 -->
<g id="node9" class="node">
<title>Node9</title>
<g id="a_node9"><a xlink:href="structImGuiTextBuffer.html#ac78a076eb21b9c4ec532eb5109c84a64" target="_top" xlink:title=" ">
<polygon fill="white" stroke="#666666" points="279,-56 154,-56 154,-37 279,-37 279,-56"/>
<text text-anchor="middle" x="216.5" y="-44" font-family="Helvetica,sans-Serif" font-size="10.00">ImGuiTextBuffer::c_str</text>
</a>
</g>
</g>
<!-- Node1&#45;&gt;Node9 -->
<g id="edge8" class="edge">
<title>Node1&#45;&gt;Node9</title>
<path fill="none" stroke="#63b8ff" d="M75.67,-91.98C93.42,-84.22 119.55,-73.31 143,-65.5 150.21,-63.1 157.91,-60.81 165.49,-58.69"/>
<polygon fill="#63b8ff" stroke="#63b8ff" points="166.6,-62.02 175.34,-56.03 164.77,-55.26 166.6,-62.02"/>
</g>
<!-- Node10 -->
<g id="node10" class="node">
<title>Node10</title>
<g id="a_node10"><a xlink:href="structImGuiTextBuffer.html#a2811fcd43e0224eb3bd0f3464b634289" target="_top" xlink:title=" ">
<polygon fill="white" stroke="#666666" points="277,-19 156,-19 156,0 277,0 277,-19"/>
<text text-anchor="middle" x="216.5" y="-7" font-family="Helvetica,sans-Serif" font-size="10.00">ImGuiTextBuffer::size</text>
</a>
</g>
</g>
<!-- Node1&#45;&gt;Node10 -->
<g id="edge9" class="edge">
<title>Node1&#45;&gt;Node10</title>
<path fill="none" stroke="#63b8ff" d="M63.34,-91.9C78.25,-76.27 110.02,-45.38 143,-28.5 147.59,-26.15 152.49,-24.08 157.5,-22.24"/>
<polygon fill="#63b8ff" stroke="#63b8ff" points="158.84,-25.49 167.22,-19.01 156.63,-18.85 158.84,-25.49"/>
</g>
<!-- Node3 -->
<g id="node3" class="node">
<title>Node3</title>
<g id="a_node3"><a xlink:href="imgui__internal_8h.html#a7667efd95147d0422f140917c71a9226" target="_top" xlink:title=" ">
<polygon fill="white" stroke="#666666" points="400.5,-204 350.5,-204 350.5,-185 400.5,-185 400.5,-204"/>
<text text-anchor="middle" x="375.5" y="-192" font-family="Helvetica,sans-Serif" font-size="10.00">ImMax</text>
</a>
</g>
</g>
<!-- Node2&#45;&gt;Node3 -->
<g id="edge2" class="edge">
<title>Node2&#45;&gt;Node3</title>
<path fill="none" stroke="#63b8ff" d="M284.08,-194.5C303.42,-194.5 323.74,-194.5 340.21,-194.5"/>
<polygon fill="#63b8ff" stroke="#63b8ff" points="340.42,-198 350.42,-194.5 340.42,-191 340.42,-198"/>
</g>
<!-- Node6 -->
<g id="node6" class="node">
<title>Node6</title>
<g id="a_node6"><a xlink:href="imgui_8cpp.html#a2e0022a073d369645a0daab17f823779" target="_top" xlink:title=" ">
<polygon fill="white" stroke="#666666" points="425,-130 326,-130 326,-111 425,-111 425,-130"/>
<text text-anchor="middle" x="375.5" y="-118" font-family="Helvetica,sans-Serif" font-size="10.00">ImFormatStringV</text>
</a>
</g>
</g>
<!-- Node5&#45;&gt;Node6 -->
<g id="edge5" class="edge">
<title>Node5&#45;&gt;Node6</title>
<path fill="none" stroke="#63b8ff" d="M290.03,-120.5C298.5,-120.5 307.07,-120.5 315.33,-120.5"/>
<polygon fill="#63b8ff" stroke="#63b8ff" points="315.6,-124 325.6,-120.5 315.6,-117 315.6,-124"/>
</g>
<!-- Node8 -->
<g id="node8" class="node">
<title>Node8</title>
<g id="a_node8"><a xlink:href="structImVector.html#a5a21f508086337de2f6739701d22f721" target="_top" xlink:title=" ">
<polygon fill="white" stroke="#666666" points="420,-93 331,-93 331,-74 420,-74 420,-93"/>
<text text-anchor="middle" x="375.5" y="-81" font-family="Helvetica,sans-Serif" font-size="10.00">ImVector::front</text>
</a>
</g>
</g>
<!-- Node7&#45;&gt;Node8 -->
<g id="edge7" class="edge">
<title>Node7&#45;&gt;Node8</title>
<path fill="none" stroke="#63b8ff" d="M280.91,-83.5C294.07,-83.5 307.82,-83.5 320.6,-83.5"/>
<polygon fill="#63b8ff" stroke="#63b8ff" points="320.61,-87 330.61,-83.5 320.61,-80 320.61,-87"/>
</g>
</g>
</svg>
