<?xml version="1.0" encoding="UTF-8" standalone="no"?>
<!DOCTYPE svg PUBLIC "-//W3C//DTD SVG 1.1//EN"
 "http://www.w3.org/Graphics/SVG/1.1/DTD/svg11.dtd">
<!-- Generated by graphviz version 2.43.0 (0)
 -->
<!-- Title: ImGui::LoadIniSettingsFromDisk Pages: 1 -->
<svg width="864pt" height="251pt"
 viewBox="0.00 0.00 864.00 251.00" xmlns="http://www.w3.org/2000/svg" xmlns:xlink="http://www.w3.org/1999/xlink">
<g id="graph0" class="graph" transform="scale(1 1) rotate(0) translate(4 247)">
<title>ImGui::LoadIniSettingsFromDisk</title>
<!-- Node1 -->
<g id="node1" class="node">
<title>Node1</title>
<g id="a_node1"><a xlink:title=" ">
<polygon fill="#999999" stroke="#666666" points="173,-112 0,-112 0,-93 173,-93 173,-112"/>
<text text-anchor="middle" x="86.5" y="-100" font-family="Helvetica,sans-Serif" font-size="10.00">ImGui::LoadIniSettingsFromDisk</text>
</a>
</g>
</g>
<!-- Node2 -->
<g id="node2" class="node">
<title>Node2</title>
<g id="a_node2"><a xlink:href="imgui_8cpp.html#acdc4b377b19c5dbd32e76bd0066c8476" target="_top" xlink:title=" ">
<polygon fill="white" stroke="#666666" points="345.5,-169 224.5,-169 224.5,-150 345.5,-150 345.5,-169"/>
<text text-anchor="middle" x="285" y="-157" font-family="Helvetica,sans-Serif" font-size="10.00">ImFileLoadToMemory</text>
</a>
</g>
</g>
<!-- Node1&#45;&gt;Node2 -->
<g id="edge1" class="edge">
<title>Node1&#45;&gt;Node2</title>
<path fill="none" stroke="#63b8ff" d="M120.39,-112.04C153.55,-121.66 204.88,-136.55 241.19,-147.08"/>
<polygon fill="#63b8ff" stroke="#63b8ff" points="240.42,-150.5 251,-149.93 242.37,-143.78 240.42,-150.5"/>
</g>
<!-- Node10 -->
<g id="node10" class="node">
<title>Node10</title>
<g id="a_node10"><a xlink:href="namespaceImGui.html#a8e37b6a0b2feb6cd6ac61a4259392861" target="_top" xlink:title=" ">
<polygon fill="white" stroke="#666666" points="361,-80.5 209,-80.5 209,-50.5 361,-50.5 361,-80.5"/>
<text text-anchor="start" x="217" y="-68.5" font-family="Helvetica,sans-Serif" font-size="10.00">ImGui::LoadIniSettingsFrom</text>
<text text-anchor="middle" x="285" y="-57.5" font-family="Helvetica,sans-Serif" font-size="10.00">Memory</text>
</a>
</g>
</g>
<!-- Node1&#45;&gt;Node10 -->
<g id="edge9" class="edge">
<title>Node1&#45;&gt;Node10</title>
<path fill="none" stroke="#63b8ff" d="M138.1,-92.97C156.57,-89.49 178.01,-85.46 198.67,-81.57"/>
<polygon fill="#63b8ff" stroke="#63b8ff" points="199.55,-84.96 208.73,-79.67 198.25,-78.08 199.55,-84.96"/>
</g>
<!-- Node3 -->
<g id="node3" class="node">
<title>Node3</title>
<g id="a_node3"><a xlink:href="imgui_8cpp.html#ac4a6194720e9d693bc9d34e97d9465aa" target="_top" xlink:title=" ">
<polygon fill="white" stroke="#666666" points="509,-243 435,-243 435,-224 509,-224 509,-243"/>
<text text-anchor="middle" x="472" y="-231" font-family="Helvetica,sans-Serif" font-size="10.00">ImFileClose</text>
</a>
</g>
</g>
<!-- Node2&#45;&gt;Node3 -->
<g id="edge2" class="edge">
<title>Node2&#45;&gt;Node3</title>
<path fill="none" stroke="#63b8ff" d="M302.02,-169.06C323.14,-181.31 361.76,-202.52 397,-215.5 405.84,-218.76 415.49,-221.59 424.81,-223.99"/>
<polygon fill="#63b8ff" stroke="#63b8ff" points="424.2,-227.45 434.75,-226.42 425.87,-220.65 424.2,-227.45"/>
</g>
<!-- Node4 -->
<g id="node4" class="node">
<title>Node4</title>
<g id="a_node4"><a xlink:href="imgui_8cpp.html#addef8c2a01c9daaa3546469f01682c98" target="_top" xlink:title=" ">
<polygon fill="white" stroke="#666666" points="514,-206 430,-206 430,-187 514,-187 514,-206"/>
<text text-anchor="middle" x="472" y="-194" font-family="Helvetica,sans-Serif" font-size="10.00">ImFileGetSize</text>
</a>
</g>
</g>
<!-- Node2&#45;&gt;Node4 -->
<g id="edge3" class="edge">
<title>Node2&#45;&gt;Node4</title>
<path fill="none" stroke="#63b8ff" d="M333.64,-169.03C360.03,-174.31 392.85,-180.87 419.79,-186.26"/>
<polygon fill="#63b8ff" stroke="#63b8ff" points="419.31,-189.73 429.8,-188.26 420.68,-182.87 419.31,-189.73"/>
</g>
<!-- Node5 -->
<g id="node5" class="node">
<title>Node5</title>
<g id="a_node5"><a xlink:href="imgui_8cpp.html#ae6a61623537c5a5de071fade1f0e8acd" target="_top" xlink:title=" ">
<polygon fill="white" stroke="#666666" points="508,-169 436,-169 436,-150 508,-150 508,-169"/>
<text text-anchor="middle" x="472" y="-157" font-family="Helvetica,sans-Serif" font-size="10.00">ImFileOpen</text>
</a>
</g>
</g>
<!-- Node2&#45;&gt;Node5 -->
<g id="edge4" class="edge">
<title>Node2&#45;&gt;Node5</title>
<path fill="none" stroke="#63b8ff" d="M345.55,-159.5C371.5,-159.5 401.43,-159.5 425.54,-159.5"/>
<polygon fill="#63b8ff" stroke="#63b8ff" points="425.83,-163 435.83,-159.5 425.83,-156 425.83,-163"/>
</g>
<!-- Node9 -->
<g id="node9" class="node">
<title>Node9</title>
<g id="a_node9"><a xlink:href="imgui_8cpp.html#ab3b6f7a9c730b3701e7e3bbc4158c43f" target="_top" xlink:title=" ">
<polygon fill="white" stroke="#666666" points="507.5,-132 436.5,-132 436.5,-113 507.5,-113 507.5,-132"/>
<text text-anchor="middle" x="472" y="-120" font-family="Helvetica,sans-Serif" font-size="10.00">ImFileRead</text>
</a>
</g>
</g>
<!-- Node2&#45;&gt;Node9 -->
<g id="edge8" class="edge">
<title>Node2&#45;&gt;Node9</title>
<path fill="none" stroke="#63b8ff" d="M333.64,-149.97C362.25,-144.25 398.4,-137.02 426.44,-131.41"/>
<polygon fill="#63b8ff" stroke="#63b8ff" points="427.25,-134.82 436.37,-129.43 425.88,-127.95 427.25,-134.82"/>
</g>
<!-- Node6 -->
<g id="node6" class="node">
<title>Node6</title>
<g id="a_node6"><a xlink:href="structImVector.html#ac371dd62e56ae486b1a5038cf07eee56" target="_top" xlink:title=" ">
<polygon fill="white" stroke="#666666" points="678,-131 583,-131 583,-112 678,-112 678,-131"/>
<text text-anchor="middle" x="630.5" y="-119" font-family="Helvetica,sans-Serif" font-size="10.00">ImVector::resize</text>
</a>
</g>
</g>
<!-- Node5&#45;&gt;Node6 -->
<g id="edge5" class="edge">
<title>Node5&#45;&gt;Node6</title>
<path fill="none" stroke="#63b8ff" d="M508.12,-150.97C529.49,-145.78 557.1,-139.08 580.59,-133.38"/>
<polygon fill="#63b8ff" stroke="#63b8ff" points="581.48,-136.76 590.37,-131 579.83,-129.96 581.48,-136.76"/>
</g>
<!-- Node7 -->
<g id="node7" class="node">
<title>Node7</title>
<g id="a_node7"><a xlink:href="structImVector.html#a3a097635d464b1b70dc7d59996a88b28" target="_top" xlink:title=" ">
<polygon fill="white" stroke="#666666" points="856,-150 714,-150 714,-131 856,-131 856,-150"/>
<text text-anchor="middle" x="785" y="-138" font-family="Helvetica,sans-Serif" font-size="10.00">ImVector::_grow_capacity</text>
</a>
</g>
</g>
<!-- Node6&#45;&gt;Node7 -->
<g id="edge6" class="edge">
<title>Node6&#45;&gt;Node7</title>
<path fill="none" stroke="#63b8ff" d="M678.08,-127.3C686.29,-128.33 695.05,-129.42 703.87,-130.52"/>
<polygon fill="#63b8ff" stroke="#63b8ff" points="703.48,-133.99 713.84,-131.76 704.34,-127.05 703.48,-133.99"/>
</g>
<!-- Node8 -->
<g id="node8" class="node">
<title>Node8</title>
<g id="a_node8"><a xlink:href="structImVector.html#a0f14f5736c3372157856eebb67123b75" target="_top" xlink:title=" ">
<polygon fill="white" stroke="#666666" points="836.5,-113 733.5,-113 733.5,-94 836.5,-94 836.5,-113"/>
<text text-anchor="middle" x="785" y="-101" font-family="Helvetica,sans-Serif" font-size="10.00">ImVector::reserve</text>
</a>
</g>
</g>
<!-- Node6&#45;&gt;Node8 -->
<g id="edge7" class="edge">
<title>Node6&#45;&gt;Node8</title>
<path fill="none" stroke="#63b8ff" d="M678.08,-116C692.32,-114.32 708.19,-112.45 723.22,-110.67"/>
<polygon fill="#63b8ff" stroke="#63b8ff" points="723.94,-114.11 733.46,-109.47 723.12,-107.16 723.94,-114.11"/>
</g>
<!-- Node10&#45;&gt;Node6 -->
<g id="edge13" class="edge">
<title>Node10&#45;&gt;Node6</title>
<path fill="none" stroke="#63b8ff" d="M361.28,-75.63C413.51,-82.94 484.64,-93.42 547,-104.5 556.2,-106.13 565.95,-108.01 575.39,-109.91"/>
<polygon fill="#63b8ff" stroke="#63b8ff" points="574.99,-113.4 585.49,-111.96 576.39,-106.54 574.99,-113.4"/>
</g>
<!-- Node11 -->
<g id="node11" class="node">
<title>Node11</title>
<g id="a_node11"><a xlink:href="namespaceImGui.html#ad9e15440c52f63aa96ef3b3938d566f8" target="_top" xlink:title=" ">
<polygon fill="white" stroke="#666666" points="547,-56 397,-56 397,-37 547,-37 547,-56"/>
<text text-anchor="middle" x="472" y="-44" font-family="Helvetica,sans-Serif" font-size="10.00">ImGui::FindSettingsHandler</text>
</a>
</g>
</g>
<!-- Node10&#45;&gt;Node11 -->
<g id="edge10" class="edge">
<title>Node10&#45;&gt;Node11</title>
<path fill="none" stroke="#63b8ff" d="M361.25,-57.77C369.57,-56.92 378.08,-56.04 386.51,-55.18"/>
<polygon fill="#63b8ff" stroke="#63b8ff" points="387.13,-58.63 396.72,-54.13 386.41,-51.67 387.13,-58.63"/>
</g>
<!-- Node13 -->
<g id="node13" class="node">
<title>Node13</title>
<g id="a_node13"><a xlink:href="imgui_8cpp.html#a6b9f6424362cc6b8dbf531635626e8d0" target="_top" xlink:title=" ">
<polygon fill="white" stroke="#666666" points="516.5,-19 427.5,-19 427.5,0 516.5,0 516.5,-19"/>
<text text-anchor="middle" x="472" y="-7" font-family="Helvetica,sans-Serif" font-size="10.00">ImStrchrRange</text>
</a>
</g>
</g>
<!-- Node10&#45;&gt;Node13 -->
<g id="edge12" class="edge">
<title>Node10&#45;&gt;Node13</title>
<path fill="none" stroke="#63b8ff" d="M327.09,-50.43C347.9,-43.06 373.64,-34.33 397,-27.5 404.15,-25.41 411.73,-23.37 419.22,-21.46"/>
<polygon fill="#63b8ff" stroke="#63b8ff" points="420.1,-24.85 428.95,-19.02 418.4,-18.06 420.1,-24.85"/>
</g>
<!-- Node12 -->
<g id="node12" class="node">
<title>Node12</title>
<g id="a_node12"><a xlink:href="imgui_8cpp.html#ab6659b5d67f7a3369e099ce890e12223" target="_top" xlink:title=" ">
<polygon fill="white" stroke="#666666" points="664.5,-56 596.5,-56 596.5,-37 664.5,-37 664.5,-56"/>
<text text-anchor="middle" x="630.5" y="-44" font-family="Helvetica,sans-Serif" font-size="10.00">ImHashStr</text>
</a>
</g>
</g>
<!-- Node11&#45;&gt;Node12 -->
<g id="edge11" class="edge">
<title>Node11&#45;&gt;Node12</title>
<path fill="none" stroke="#63b8ff" d="M547.13,-46.5C560.45,-46.5 573.93,-46.5 586.02,-46.5"/>
<polygon fill="#63b8ff" stroke="#63b8ff" points="586.25,-50 596.25,-46.5 586.25,-43 586.25,-50"/>
</g>
</g>
</svg>
