<?xml version="1.0" encoding="UTF-8" standalone="no"?>
<!DOCTYPE svg PUBLIC "-//W3C//DTD SVG 1.1//EN"
 "http://www.w3.org/Graphics/SVG/1.1/DTD/svg11.dtd">
<!-- Generated by graphviz version 2.43.0 (0)
 -->
<!-- Title: IMGUIZMO_NAMESPACE::DrawScaleUniveralGizmo Pages: 1 -->
<svg width="326pt" height="56pt"
 viewBox="0.00 0.00 326.00 56.00" xmlns="http://www.w3.org/2000/svg" xmlns:xlink="http://www.w3.org/1999/xlink">
<g id="graph0" class="graph" transform="scale(1 1) rotate(0) translate(4 52)">
<title>IMGUIZMO_NAMESPACE::DrawScaleUniveralGizmo</title>
<!-- Node1 -->
<g id="node1" class="node">
<title>Node1</title>
<g id="a_node1"><a xlink:title=" ">
<polygon fill="#999999" stroke="#666666" points="318,-30 171,-30 171,0 318,0 318,-30"/>
<text text-anchor="start" x="179" y="-18" font-family="Helvetica,sans-Serif" font-size="10.00">IMGUIZMO_NAMESPACE</text>
<text text-anchor="middle" x="244.5" y="-7" font-family="Helvetica,sans-Serif" font-size="10.00">::DrawScaleUniveralGizmo</text>
</a>
</g>
</g>
<!-- Node1&#45;&gt;Node1 -->
<g id="edge1" class="edge">
<title>Node1&#45;&gt;Node1</title>
<path fill="none" stroke="#63b8ff" d="M275.31,-40.6C271.1,-44.97 260.83,-48 244.5,-48 217,-48 206.69,-39.41 213.56,-30.28"/>
<polygon fill="#63b8ff" stroke="#63b8ff" points="278.81,-40.32 275.44,-30.28 271.81,-40.23 278.81,-40.32"/>
</g>
<!-- Node2 -->
<g id="node2" class="node">
<title>Node2</title>
<g id="a_node2"><a xlink:href="namespaceIMGUIZMO__NAMESPACE.html#a77d9f13c118607e6ae36dfbc8904482d" target="_top" xlink:title=" ">
<polygon fill="white" stroke="#666666" points="135,-30 0,-30 0,0 135,0 135,-30"/>
<text text-anchor="start" x="8" y="-18" font-family="Helvetica,sans-Serif" font-size="10.00">IMGUIZMO_NAMESPACE</text>
<text text-anchor="middle" x="67.5" y="-7" font-family="Helvetica,sans-Serif" font-size="10.00">::Manipulate</text>
</a>
</g>
</g>
<!-- Node1&#45;&gt;Node2 -->
<g id="edge2" class="edge">
<title>Node1&#45;&gt;Node2</title>
<path fill="none" stroke="#63b8ff" d="M160.75,-15C152.15,-15 143.48,-15 135.09,-15"/>
<polygon fill="#63b8ff" stroke="#63b8ff" points="160.8,-18.5 170.8,-15 160.8,-11.5 160.8,-18.5"/>
</g>
<!-- Node2&#45;&gt;Node2 -->
<g id="edge3" class="edge">
<title>Node2&#45;&gt;Node2</title>
<path fill="none" stroke="#63b8ff" d="M98.31,-40.6C94.1,-44.97 83.83,-48 67.5,-48 40,-48 29.69,-39.41 36.56,-30.28"/>
<polygon fill="#63b8ff" stroke="#63b8ff" points="101.81,-40.32 98.44,-30.28 94.81,-40.23 101.81,-40.32"/>
</g>
</g>
</svg>
