<?xml version="1.0" encoding="UTF-8" standalone="no"?>
<!DOCTYPE svg PUBLIC "-//W3C//DTD SVG 1.1//EN"
 "http://www.w3.org/Graphics/SVG/1.1/DTD/svg11.dtd">
<!-- Generated by graphviz version 2.43.0 (0)
 -->
<!-- Title: ImGui::NavProcessItemForTabbingRequest Pages: 1 -->
<svg width="782pt" height="68pt"
 viewBox="0.00 0.00 782.00 67.77" xmlns="http://www.w3.org/2000/svg" xmlns:xlink="http://www.w3.org/1999/xlink">
<g id="graph0" class="graph" transform="scale(1 1) rotate(0) translate(4 63.77)">
<title>ImGui::NavProcessItemForTabbingRequest</title>
<!-- Node1 -->
<g id="node1" class="node">
<title>Node1</title>
<g id="a_node1"><a xlink:title=" ">
<polygon fill="#999999" stroke="#666666" points="146,-44.94 0,-44.94 0,-14.94 146,-14.94 146,-44.94"/>
<text text-anchor="start" x="8" y="-32.94" font-family="Helvetica,sans-Serif" font-size="10.00">ImGui::NavProcessItemFor</text>
<text text-anchor="middle" x="73" y="-21.94" font-family="Helvetica,sans-Serif" font-size="10.00">TabbingRequest</text>
</a>
</g>
</g>
<!-- Node2 -->
<g id="node2" class="node">
<title>Node2</title>
<g id="a_node2"><a xlink:href="namespaceImGui.html#afc3f5b074b158526cfe8531de843aa5f" target="_top" xlink:title=" ">
<polygon fill="white" stroke="#666666" points="569.5,-59.44 406.5,-59.44 406.5,-40.44 569.5,-40.44 569.5,-59.44"/>
<text text-anchor="middle" x="488" y="-47.44" font-family="Helvetica,sans-Serif" font-size="10.00">ImGui::NavApplyItemToResult</text>
</a>
</g>
</g>
<!-- Node1&#45;&gt;Node2 -->
<g id="edge1" class="edge">
<title>Node1&#45;&gt;Node2</title>
<path fill="none" stroke="#63b8ff" d="M130.78,-44.99C147.19,-48.68 165.2,-52.09 182,-53.94 253.66,-61.8 335.34,-60.17 396.14,-56.92"/>
<polygon fill="#63b8ff" stroke="#63b8ff" points="396.68,-60.39 406.47,-56.34 396.29,-53.41 396.68,-60.39"/>
</g>
<!-- Node4 -->
<g id="node4" class="node">
<title>Node4</title>
<g id="a_node4"><a xlink:href="namespaceImGui.html#ad71eb039682bb8e3bb950c67eeec4ed8" target="_top" xlink:title=" ">
<polygon fill="white" stroke="#666666" points="359,-44.94 182,-44.94 182,-14.94 359,-14.94 359,-44.94"/>
<text text-anchor="start" x="190" y="-32.94" font-family="Helvetica,sans-Serif" font-size="10.00">ImGui::NavMoveRequestResolve</text>
<text text-anchor="middle" x="270.5" y="-21.94" font-family="Helvetica,sans-Serif" font-size="10.00">WithLastItem</text>
</a>
</g>
</g>
<!-- Node1&#45;&gt;Node4 -->
<g id="edge3" class="edge">
<title>Node1&#45;&gt;Node4</title>
<path fill="none" stroke="#63b8ff" d="M146.24,-29.94C154.61,-29.94 163.24,-29.94 171.87,-29.94"/>
<polygon fill="#63b8ff" stroke="#63b8ff" points="171.99,-33.44 181.99,-29.94 171.99,-26.44 171.99,-33.44"/>
</g>
<!-- Node5 -->
<g id="node5" class="node">
<title>Node5</title>
<g id="a_node5"><a xlink:href="namespaceImGui.html#a2cd868535661cdb5671214662f3c9388" target="_top" xlink:title=" ">
<polygon fill="white" stroke="#666666" points="581,-19.44 395,-19.44 395,-0.44 581,-0.44 581,-19.44"/>
<text text-anchor="middle" x="488" y="-7.44" font-family="Helvetica,sans-Serif" font-size="10.00">ImGui::NavUpdateAnyRequestFlag</text>
</a>
</g>
</g>
<!-- Node1&#45;&gt;Node5 -->
<g id="edge6" class="edge">
<title>Node1&#45;&gt;Node5</title>
<path fill="none" stroke="#63b8ff" d="M130.78,-14.88C147.19,-11.19 165.2,-7.78 182,-5.94 249.3,1.45 325.45,0.46 384.83,-2.38"/>
<polygon fill="#63b8ff" stroke="#63b8ff" points="384.8,-5.88 394.96,-2.89 385.15,1.11 384.8,-5.88"/>
</g>
<!-- Node3 -->
<g id="node3" class="node">
<title>Node3</title>
<g id="a_node3"><a xlink:href="namespaceImGui.html#a06d8e9fae450c785dc8f61f6e03462a7" target="_top" xlink:title=" ">
<polygon fill="white" stroke="#666666" points="774,-59.44 617,-59.44 617,-40.44 774,-40.44 774,-59.44"/>
<text text-anchor="middle" x="695.5" y="-47.44" font-family="Helvetica,sans-Serif" font-size="10.00">ImGui::WindowRectAbsToRel</text>
</a>
</g>
</g>
<!-- Node2&#45;&gt;Node3 -->
<g id="edge2" class="edge">
<title>Node2&#45;&gt;Node3</title>
<path fill="none" stroke="#63b8ff" d="M569.63,-49.94C581.75,-49.94 594.31,-49.94 606.57,-49.94"/>
<polygon fill="#63b8ff" stroke="#63b8ff" points="606.79,-53.44 616.79,-49.94 606.79,-46.44 606.79,-53.44"/>
</g>
<!-- Node4&#45;&gt;Node2 -->
<g id="edge4" class="edge">
<title>Node4&#45;&gt;Node2</title>
<path fill="none" stroke="#63b8ff" d="M359.15,-38.07C371.35,-39.2 383.91,-40.37 396.16,-41.51"/>
<polygon fill="#63b8ff" stroke="#63b8ff" points="396.09,-45.01 406.37,-42.45 396.74,-38.04 396.09,-45.01"/>
</g>
<!-- Node4&#45;&gt;Node5 -->
<g id="edge5" class="edge">
<title>Node4&#45;&gt;Node5</title>
<path fill="none" stroke="#63b8ff" d="M359.15,-21.8C367.61,-21.02 376.24,-20.21 384.83,-19.42"/>
<polygon fill="#63b8ff" stroke="#63b8ff" points="385.23,-22.9 394.87,-18.49 384.59,-15.93 385.23,-22.9"/>
</g>
</g>
</svg>
