<?xml version="1.0" encoding="UTF-8" standalone="no"?>
<!DOCTYPE svg PUBLIC "-//W3C//DTD SVG 1.1//EN"
 "http://www.w3.org/Graphics/SVG/1.1/DTD/svg11.dtd">
<!-- Generated by graphviz version 2.43.0 (0)
 -->
<!-- Title: ImGui::TableUpdateLayout Pages: 1 -->
<svg width="1022pt" height="1415pt"
 viewBox="0.00 0.00 1022.00 1414.64" xmlns="http://www.w3.org/2000/svg" xmlns:xlink="http://www.w3.org/1999/xlink">
<g id="graph0" class="graph" transform="scale(1 1) rotate(0) translate(4 1410.64)">
<title>ImGui::TableUpdateLayout</title>
<!-- Node1 -->
<g id="node1" class="node">
<title>Node1</title>
<g id="a_node1"><a xlink:title=" ">
<polygon fill="#999999" stroke="#666666" points="146,-1010 0,-1010 0,-991 146,-991 146,-1010"/>
<text text-anchor="middle" x="73" y="-998" font-family="Helvetica,sans-Serif" font-size="10.00">ImGui::TableUpdateLayout</text>
</a>
</g>
</g>
<!-- Node2 -->
<g id="node2" class="node">
<title>Node2</title>
<g id="a_node2"><a xlink:href="structImRect.html#a32a5aaca4161b5ffa3f352d293a449ff" target="_top" xlink:title=" ">
<polygon fill="white" stroke="#666666" points="342,-1358 226,-1358 226,-1339 342,-1339 342,-1358"/>
<text text-anchor="middle" x="284" y="-1346" font-family="Helvetica,sans-Serif" font-size="10.00">ImRect::ClipWithFull</text>
</a>
</g>
</g>
<!-- Node1&#45;&gt;Node2 -->
<g id="edge1" class="edge">
<title>Node1&#45;&gt;Node2</title>
<path fill="none" stroke="#63b8ff" d="M74.05,-1010.22C74.82,-1054.02 84.02,-1234.83 182,-1324.5 191.44,-1333.14 203.42,-1338.84 215.79,-1342.55"/>
<polygon fill="#63b8ff" stroke="#63b8ff" points="215.21,-1346.02 225.77,-1345.13 216.96,-1339.24 215.21,-1346.02"/>
</g>
<!-- Node3 -->
<g id="node3" class="node">
<title>Node3</title>
<g id="a_node3"><a xlink:href="imgui__internal_8h.html#a6e61ede308bfd68c7434e17905a29fc8" target="_top" xlink:title=" ">
<polygon fill="white" stroke="#666666" points="542.5,-1377 481.5,-1377 481.5,-1358 542.5,-1358 542.5,-1377"/>
<text text-anchor="middle" x="512" y="-1365" font-family="Helvetica,sans-Serif" font-size="10.00">ImClamp</text>
</a>
</g>
</g>
<!-- Node1&#45;&gt;Node3 -->
<g id="edge9" class="edge">
<title>Node1&#45;&gt;Node3</title>
<path fill="none" stroke="#63b8ff" d="M75.27,-1010.02C82.57,-1063.1 120.97,-1321.85 182,-1367.5 269.26,-1432.78 409.2,-1400.76 474.82,-1380.21"/>
<polygon fill="#63b8ff" stroke="#63b8ff" points="476.25,-1383.42 484.7,-1377.02 474.11,-1376.76 476.25,-1383.42"/>
</g>
<!-- Node4 -->
<g id="node4" class="node">
<title>Node4</title>
<g id="a_node4"><a xlink:href="namespaceImGui.html#aa6a9b5696f2ea7eed7683425fc77b8f2" target="_top" xlink:title=" ">
<polygon fill="white" stroke="#666666" points="782,-1301 682,-1301 682,-1282 782,-1282 782,-1301"/>
<text text-anchor="middle" x="732" y="-1289" font-family="Helvetica,sans-Serif" font-size="10.00">ImGui::EndPopup</text>
</a>
</g>
</g>
<!-- Node1&#45;&gt;Node4 -->
<g id="edge3" class="edge">
<title>Node1&#45;&gt;Node4</title>
<path fill="none" stroke="#63b8ff" d="M74,-1010.05C74.58,-1052.24 83.12,-1222.73 182,-1291.5 259.53,-1345.43 546.03,-1315.86 671.5,-1299.75"/>
<polygon fill="#63b8ff" stroke="#63b8ff" points="672.22,-1303.19 681.69,-1298.43 671.32,-1296.25 672.22,-1303.19"/>
</g>
<!-- Node6 -->
<g id="node6" class="node">
<title>Node6</title>
<g id="a_node6"><a xlink:href="structImRect.html#afa75cb8491f20901c96166d17dcddac4" target="_top" xlink:title=" ">
<polygon fill="white" stroke="#666666" points="335.5,-1234 232.5,-1234 232.5,-1215 335.5,-1215 335.5,-1234"/>
<text text-anchor="middle" x="284" y="-1222" font-family="Helvetica,sans-Serif" font-size="10.00">ImRect::GetWidth</text>
</a>
</g>
</g>
<!-- Node1&#45;&gt;Node6 -->
<g id="edge5" class="edge">
<title>Node1&#45;&gt;Node6</title>
<path fill="none" stroke="#63b8ff" d="M75.93,-1010.24C83.12,-1043.74 111.63,-1154.96 182,-1206.5 193.62,-1215.01 207.98,-1219.94 222.18,-1222.7"/>
<polygon fill="#63b8ff" stroke="#63b8ff" points="222.03,-1226.22 232.46,-1224.35 223.14,-1219.31 222.03,-1226.22"/>
</g>
<!-- Node7 -->
<g id="node7" class="node">
<title>Node7</title>
<g id="a_node7"><a xlink:href="imgui__internal_8h.html#a588b9a9472e2ba9d051f16b2c7c73f44" target="_top" xlink:title=" ">
<polygon fill="white" stroke="#666666" points="347,-1197 221,-1197 221,-1178 347,-1178 347,-1197"/>
<text text-anchor="middle" x="284" y="-1185" font-family="Helvetica,sans-Serif" font-size="10.00">ImBitArrayClearAllBits</text>
</a>
</g>
</g>
<!-- Node1&#45;&gt;Node7 -->
<g id="edge6" class="edge">
<title>Node1&#45;&gt;Node7</title>
<path fill="none" stroke="#63b8ff" d="M77.04,-1010.13C86.84,-1039.5 120.63,-1128.48 182,-1169.5 190.7,-1175.31 200.72,-1179.41 211,-1182.26"/>
<polygon fill="#63b8ff" stroke="#63b8ff" points="210.36,-1185.71 220.9,-1184.64 211.99,-1178.9 210.36,-1185.71"/>
</g>
<!-- Node9 -->
<g id="node9" class="node">
<title>Node9</title>
<g id="a_node9"><a xlink:href="imgui__internal_8h.html#a1ae2766a00f274b81a06cc5f0b5bd3ab" target="_top" xlink:title=" ">
<polygon fill="white" stroke="#666666" points="333,-1123 235,-1123 235,-1104 333,-1104 333,-1123"/>
<text text-anchor="middle" x="284" y="-1111" font-family="Helvetica,sans-Serif" font-size="10.00">ImBitArraySetBit</text>
</a>
</g>
</g>
<!-- Node1&#45;&gt;Node9 -->
<g id="edge8" class="edge">
<title>Node1&#45;&gt;Node9</title>
<path fill="none" stroke="#63b8ff" d="M82.77,-1010.23C99.95,-1028.64 140.01,-1068.63 182,-1089.5 195.31,-1096.12 210.53,-1100.96 225.04,-1104.49"/>
<polygon fill="#63b8ff" stroke="#63b8ff" points="224.42,-1107.93 234.94,-1106.72 225.96,-1101.11 224.42,-1107.93"/>
</g>
<!-- Node10 -->
<g id="node10" class="node">
<title>Node10</title>
<g id="a_node10"><a xlink:href="imgui__internal_8h.html#a7667efd95147d0422f140917c71a9226" target="_top" xlink:title=" ">
<polygon fill="white" stroke="#666666" points="757,-1082 707,-1082 707,-1063 757,-1063 757,-1082"/>
<text text-anchor="middle" x="732" y="-1070" font-family="Helvetica,sans-Serif" font-size="10.00">ImMax</text>
</a>
</g>
</g>
<!-- Node1&#45;&gt;Node10 -->
<g id="edge10" class="edge">
<title>Node1&#45;&gt;Node10</title>
<path fill="none" stroke="#63b8ff" d="M89.48,-1010.16C109.92,-1022.49 147.36,-1043.64 182,-1055.5 269.33,-1085.41 297.28,-1069 386,-1094.5 402.5,-1099.24 405.13,-1105.33 422,-1108.5 500.63,-1123.25 522.74,-1119.35 602,-1108.5 634.95,-1103.99 671.34,-1093.28 697.05,-1084.71"/>
<polygon fill="#63b8ff" stroke="#63b8ff" points="698.35,-1087.97 706.69,-1081.43 696.1,-1081.34 698.35,-1087.97"/>
</g>
<!-- Node11 -->
<g id="node11" class="node">
<title>Node11</title>
<g id="a_node11"><a xlink:href="imgui__internal_8h.html#a7f9d7828066a9d61b5630adcdf4655d3" target="_top" xlink:title=" ">
<polygon fill="white" stroke="#666666" points="307.5,-204 260.5,-204 260.5,-185 307.5,-185 307.5,-204"/>
<text text-anchor="middle" x="284" y="-192" font-family="Helvetica,sans-Serif" font-size="10.00">ImMin</text>
</a>
</g>
</g>
<!-- Node1&#45;&gt;Node11 -->
<g id="edge11" class="edge">
<title>Node1&#45;&gt;Node11</title>
<path fill="none" stroke="#63b8ff" d="M73.83,-990.86C72.64,-909.03 68.28,-330.88 182,-212.5 199.26,-194.54 227.8,-190.83 250.15,-191.16"/>
<polygon fill="#63b8ff" stroke="#63b8ff" points="250.1,-194.66 260.23,-191.58 250.39,-187.67 250.1,-194.66"/>
</g>
<!-- Node12 -->
<g id="node12" class="node">
<title>Node12</title>
<g id="a_node12"><a xlink:href="imgui__internal_8h.html#a34870cae27ccd450c17ec3d3910b2da4" target="_top" xlink:title=" ">
<polygon fill="white" stroke="#666666" points="539.5,-391 484.5,-391 484.5,-372 539.5,-372 539.5,-391"/>
<text text-anchor="middle" x="512" y="-379" font-family="Helvetica,sans-Serif" font-size="10.00">ImTrunc</text>
</a>
</g>
</g>
<!-- Node1&#45;&gt;Node12 -->
<g id="edge12" class="edge">
<title>Node1&#45;&gt;Node12</title>
<path fill="none" stroke="#63b8ff" d="M74.19,-990.73C75.77,-919.79 89.19,-483.98 182,-401.5 224.28,-363.92 397.47,-372.46 474.16,-378.29"/>
<polygon fill="#63b8ff" stroke="#63b8ff" points="474.08,-381.8 484.32,-379.09 474.63,-374.82 474.08,-381.8"/>
</g>
<!-- Node13 -->
<g id="node13" class="node">
<title>Node13</title>
<g id="a_node13"><a xlink:href="namespaceImGui.html#a1d7304e335dbe35c4d97b67854111ed2" target="_top" xlink:title=" ">
<polygon fill="white" stroke="#666666" points="346.5,-241 221.5,-241 221.5,-222 346.5,-222 346.5,-241"/>
<text text-anchor="middle" x="284" y="-229" font-family="Helvetica,sans-Serif" font-size="10.00">ImGui::ItemHoverable</text>
</a>
</g>
</g>
<!-- Node1&#45;&gt;Node13 -->
<g id="edge13" class="edge">
<title>Node1&#45;&gt;Node13</title>
<path fill="none" stroke="#63b8ff" d="M74.74,-990.67C80.39,-917.22 118.23,-453.71 182,-330.5 200.41,-294.92 236.38,-264.48 260.05,-247.08"/>
<polygon fill="#63b8ff" stroke="#63b8ff" points="262.36,-249.73 268.45,-241.07 258.28,-244.04 262.36,-249.73"/>
</g>
<!-- Node41 -->
<g id="node23" class="node">
<title>Node41</title>
<g id="a_node23"><a xlink:href="structImDrawList.html#a608a9d9a83715ba87dced8321ed64329" target="_top" xlink:title=" ">
<polygon fill="white" stroke="#666666" points="355,-1010 213,-1010 213,-991 355,-991 355,-1010"/>
<text text-anchor="middle" x="284" y="-998" font-family="Helvetica,sans-Serif" font-size="10.00">ImDrawList::PushClipRect</text>
</a>
</g>
</g>
<!-- Node1&#45;&gt;Node41 -->
<g id="edge24" class="edge">
<title>Node1&#45;&gt;Node41</title>
<path fill="none" stroke="#63b8ff" d="M146.22,-1000.5C164.44,-1000.5 184.11,-1000.5 202.7,-1000.5"/>
<polygon fill="#63b8ff" stroke="#63b8ff" points="202.9,-1004 212.9,-1000.5 202.9,-997 202.9,-1004"/>
</g>
<!-- Node40 -->
<g id="node27" class="node">
<title>Node40</title>
<g id="a_node27"><a xlink:href="structImDrawListSplitter.html#ad3797b0755caa07f3d69a9e3566eb0e5" target="_top" xlink:title=" ">
<polygon fill="white" stroke="#666666" points="341,-972.5 227,-972.5 227,-942.5 341,-942.5 341,-972.5"/>
<text text-anchor="start" x="235" y="-960.5" font-family="Helvetica,sans-Serif" font-size="10.00">ImDrawListSplitter</text>
<text text-anchor="middle" x="284" y="-949.5" font-family="Helvetica,sans-Serif" font-size="10.00">::SetCurrentChannel</text>
</a>
</g>
</g>
<!-- Node1&#45;&gt;Node40 -->
<g id="edge30" class="edge">
<title>Node1&#45;&gt;Node40</title>
<path fill="none" stroke="#63b8ff" d="M120.38,-990.96C148.71,-985.13 185.38,-977.58 216.73,-971.13"/>
<polygon fill="#63b8ff" stroke="#63b8ff" points="217.61,-974.53 226.7,-969.08 216.2,-967.67 217.61,-974.53"/>
</g>
<!-- Node501 -->
<g id="node28" class="node">
<title>Node501</title>
<g id="a_node28"><a xlink:href="namespaceImGui.html#ac5ffd2621218c244f701317f9086e6ff" target="_top" xlink:title=" ">
<polygon fill="white" stroke="#666666" points="355.5,-1282.5 212.5,-1282.5 212.5,-1252.5 355.5,-1252.5 355.5,-1282.5"/>
<text text-anchor="start" x="220.5" y="-1270.5" font-family="Helvetica,sans-Serif" font-size="10.00">ImGui::TableBeginContext</text>
<text text-anchor="middle" x="284" y="-1259.5" font-family="Helvetica,sans-Serif" font-size="10.00">MenuPopup</text>
</a>
</g>
</g>
<!-- Node1&#45;&gt;Node501 -->
<g id="edge32" class="edge">
<title>Node1&#45;&gt;Node501</title>
<path fill="none" stroke="#63b8ff" d="M75.24,-1010.21C80.48,-1047 104.21,-1178.91 182,-1243.5 188.26,-1248.7 195.45,-1252.81 203.06,-1256.05"/>
<polygon fill="#63b8ff" stroke="#63b8ff" points="201.9,-1259.36 212.5,-1259.6 204.36,-1252.81 201.9,-1259.36"/>
</g>
<!-- Node504 -->
<g id="node31" class="node">
<title>Node504</title>
<g id="a_node31"><a xlink:href="namespaceImGui.html#a429621f66b18b0a92ab060c2b22d2ee6" target="_top" xlink:title=" ">
<polygon fill="white" stroke="#666666" points="362.5,-166.5 205.5,-166.5 205.5,-136.5 362.5,-136.5 362.5,-166.5"/>
<text text-anchor="start" x="213.5" y="-154.5" font-family="Helvetica,sans-Serif" font-size="10.00">ImGui::TableCalcMaxColumn</text>
<text text-anchor="middle" x="284" y="-143.5" font-family="Helvetica,sans-Serif" font-size="10.00">Width</text>
</a>
</g>
</g>
<!-- Node1&#45;&gt;Node504 -->
<g id="edge36" class="edge">
<title>Node1&#45;&gt;Node504</title>
<path fill="none" stroke="#63b8ff" d="M73.82,-990.99C72.48,-907.78 66.76,-303.29 182,-175.5 186.1,-170.96 190.89,-167.19 196.11,-164.09"/>
<polygon fill="#63b8ff" stroke="#63b8ff" points="197.92,-167.1 205.26,-159.46 194.76,-160.85 197.92,-167.1"/>
</g>
<!-- Node505 -->
<g id="node32" class="node">
<title>Node505</title>
<g id="a_node32"><a xlink:href="namespaceImGui.html#affbabc4a2c721b20ab7106d62be19385" target="_top" xlink:title=" ">
<polygon fill="white" stroke="#666666" points="386,-791 182,-791 182,-772 386,-772 386,-791"/>
<text text-anchor="middle" x="284" y="-779" font-family="Helvetica,sans-Serif" font-size="10.00">ImGui::TableDrawDefaultContextMenu</text>
</a>
</g>
</g>
<!-- Node1&#45;&gt;Node505 -->
<g id="edge37" class="edge">
<title>Node1&#45;&gt;Node505</title>
<path fill="none" stroke="#63b8ff" d="M83.25,-990.81C115.82,-956.67 225.49,-841.77 266.94,-798.33"/>
<polygon fill="#63b8ff" stroke="#63b8ff" points="269.48,-800.73 273.86,-791.08 264.42,-795.9 269.48,-800.73"/>
</g>
<!-- Node543 -->
<g id="node43" class="node">
<title>Node543</title>
<g id="a_node43"><a xlink:href="namespaceImGui.html#adb37a5d79b71507de590924cd53e1e62" target="_top" xlink:title=" ">
<polygon fill="white" stroke="#666666" points="375.5,-1047 192.5,-1047 192.5,-1028 375.5,-1028 375.5,-1047"/>
<text text-anchor="middle" x="284" y="-1035" font-family="Helvetica,sans-Serif" font-size="10.00">ImGui::TableGetColumnWidthAuto</text>
</a>
</g>
</g>
<!-- Node1&#45;&gt;Node543 -->
<g id="edge51" class="edge">
<title>Node1&#45;&gt;Node543</title>
<path fill="none" stroke="#63b8ff" d="M127.82,-1010.03C155.63,-1014.95 189.75,-1020.99 218.91,-1026.15"/>
<polygon fill="#63b8ff" stroke="#63b8ff" points="218.54,-1029.64 229,-1027.94 219.76,-1022.75 218.54,-1029.64"/>
</g>
<!-- Node544 -->
<g id="node44" class="node">
<title>Node544</title>
<g id="a_node44"><a xlink:href="namespaceImGui.html#aaf5b122b1f088db308b44508c240b05f" target="_top" xlink:title=" ">
<polygon fill="white" stroke="#666666" points="591.5,-354 432.5,-354 432.5,-335 591.5,-335 591.5,-354"/>
<text text-anchor="middle" x="512" y="-342" font-family="Helvetica,sans-Serif" font-size="10.00">ImGui::TableGetInstanceData</text>
</a>
</g>
</g>
<!-- Node1&#45;&gt;Node544 -->
<g id="edge53" class="edge">
<title>Node1&#45;&gt;Node544</title>
<path fill="none" stroke="#63b8ff" d="M74.11,-990.7C75.11,-917.6 85.23,-457.6 182,-369.5 215.99,-338.56 336.65,-336.58 421.96,-339.42"/>
<polygon fill="#63b8ff" stroke="#63b8ff" points="422.06,-342.93 432.18,-339.79 422.31,-335.93 422.06,-342.93"/>
</g>
<!-- Node545 -->
<g id="node45" class="node">
<title>Node545</title>
<g id="a_node45"><a xlink:href="imgui__tables_8cpp.html#a69b63d98a1335539e1b8fd4f2f911272" target="_top" xlink:title=" ">
<polygon fill="white" stroke="#666666" points="351,-548 217,-548 217,-529 351,-529 351,-548"/>
<text text-anchor="middle" x="284" y="-536" font-family="Helvetica,sans-Serif" font-size="10.00">TableSetupColumnFlags</text>
</a>
</g>
</g>
<!-- Node1&#45;&gt;Node545 -->
<g id="edge54" class="edge">
<title>Node1&#45;&gt;Node545</title>
<path fill="none" stroke="#63b8ff" d="M78.37,-990.85C104.4,-933.31 239.2,-635.31 274.52,-557.24"/>
<polygon fill="#63b8ff" stroke="#63b8ff" points="277.73,-558.65 278.66,-548.1 271.35,-555.76 277.73,-558.65"/>
</g>
<!-- Node547 -->
<g id="node48" class="node">
<title>Node547</title>
<g id="a_node48"><a xlink:href="namespaceImGui.html#aa15ef562cd5d5166e9774472fc6d10c6" target="_top" xlink:title=" ">
<polygon fill="#fff0f0" stroke="red" points="372,-1160 196,-1160 196,-1141 372,-1141 372,-1160"/>
<text text-anchor="middle" x="284" y="-1148" font-family="Helvetica,sans-Serif" font-size="10.00">ImGui::TableSetupDrawChannels</text>
</a>
</g>
</g>
<!-- Node1&#45;&gt;Node547 -->
<g id="edge58" class="edge">
<title>Node1&#45;&gt;Node547</title>
<path fill="none" stroke="#63b8ff" d="M78.77,-1010.01C91.65,-1034.61 129.72,-1100.61 182,-1131.5 185.67,-1133.67 189.54,-1135.6 193.53,-1137.32"/>
<polygon fill="#63b8ff" stroke="#63b8ff" points="192.46,-1140.65 203.05,-1140.95 194.95,-1134.11 192.46,-1140.65"/>
</g>
<!-- Node548 -->
<g id="node49" class="node">
<title>Node548</title>
<g id="a_node49"><a xlink:href="namespaceImGui.html#a045bb5e3e5947c10260a4889b50e3e35" target="_top" xlink:title=" ">
<polygon fill="#fff0f0" stroke="red" points="359,-118 209,-118 209,-99 359,-99 359,-118"/>
<text text-anchor="middle" x="284" y="-106" font-family="Helvetica,sans-Serif" font-size="10.00">ImGui::TableSortSpecsBuild</text>
</a>
</g>
</g>
<!-- Node1&#45;&gt;Node548 -->
<g id="edge60" class="edge">
<title>Node1&#45;&gt;Node548</title>
<path fill="none" stroke="#63b8ff" d="M74.51,-990.92C79.4,-900.18 119.41,-194.16 182,-127.5 186.92,-122.26 192.8,-118.19 199.21,-115.07"/>
<polygon fill="#63b8ff" stroke="#63b8ff" points="200.97,-118.13 208.93,-111.13 198.35,-111.64 200.97,-118.13"/>
</g>
<!-- Node550 -->
<g id="node50" class="node">
<title>Node550</title>
<g id="a_node50"><a xlink:href="namespaceImGui.html#a339483446800bd4c7d2e4f5683e21de0" target="_top" xlink:title=" ">
<polygon fill="#fff0f0" stroke="red" points="359,-430 209,-430 209,-411 359,-411 359,-430"/>
<text text-anchor="middle" x="284" y="-418" font-family="Helvetica,sans-Serif" font-size="10.00">ImGui::TableUpdateBorders</text>
</a>
</g>
</g>
<!-- Node1&#45;&gt;Node550 -->
<g id="edge61" class="edge">
<title>Node1&#45;&gt;Node550</title>
<path fill="none" stroke="#63b8ff" d="M74.18,-990.96C75.51,-939.42 86.85,-690.36 182,-519.5 201.49,-484.5 237.16,-453.9 260.47,-436.31"/>
<polygon fill="#63b8ff" stroke="#63b8ff" points="262.76,-438.97 268.74,-430.22 258.61,-433.33 262.76,-438.97"/>
</g>
<!-- Node2&#45;&gt;Node3 -->
<g id="edge2" class="edge">
<title>Node2&#45;&gt;Node3</title>
<path fill="none" stroke="#63b8ff" d="M342.03,-1353.29C382.38,-1356.69 435.46,-1361.15 471.27,-1364.16"/>
<polygon fill="#63b8ff" stroke="#63b8ff" points="471.09,-1367.66 481.35,-1365.01 471.67,-1360.68 471.09,-1367.66"/>
</g>
<!-- Node5 -->
<g id="node5" class="node">
<title>Node5</title>
<g id="a_node5"><a xlink:href="namespaceImGui.html#a95a9a1a5411cccb918fc29a0b0d3f953" target="_top" xlink:title=" ">
<polygon fill="white" stroke="#666666" points="1014,-1306.5 862,-1306.5 862,-1276.5 1014,-1276.5 1014,-1306.5"/>
<text text-anchor="start" x="870" y="-1294.5" font-family="Helvetica,sans-Serif" font-size="10.00">ImGui::NavMoveRequestTry</text>
<text text-anchor="middle" x="938" y="-1283.5" font-family="Helvetica,sans-Serif" font-size="10.00">Wrapping</text>
</a>
</g>
</g>
<!-- Node4&#45;&gt;Node5 -->
<g id="edge4" class="edge">
<title>Node4&#45;&gt;Node5</title>
<path fill="none" stroke="#63b8ff" d="M782.12,-1291.5C802.96,-1291.5 827.87,-1291.5 851.55,-1291.5"/>
<polygon fill="#63b8ff" stroke="#63b8ff" points="851.61,-1295 861.61,-1291.5 851.61,-1288 851.61,-1295"/>
</g>
<!-- Node8 -->
<g id="node8" class="node">
<title>Node8</title>
<g id="a_node8"><a xlink:href="imgui__internal_8h.html#afa514da2ff9ab03ce4fa8c390d99bb63" target="_top" xlink:title=" ">
<polygon fill="white" stroke="#666666" points="584,-1206.5 440,-1206.5 440,-1176.5 584,-1176.5 584,-1206.5"/>
<text text-anchor="start" x="448" y="-1194.5" font-family="Helvetica,sans-Serif" font-size="10.00">ImBitArrayGetStorageSize</text>
<text text-anchor="middle" x="512" y="-1183.5" font-family="Helvetica,sans-Serif" font-size="10.00">InBytes</text>
</a>
</g>
</g>
<!-- Node7&#45;&gt;Node8 -->
<g id="edge7" class="edge">
<title>Node7&#45;&gt;Node8</title>
<path fill="none" stroke="#63b8ff" d="M347.05,-1188.6C372.55,-1189.05 402.41,-1189.58 429.62,-1190.06"/>
<polygon fill="#63b8ff" stroke="#63b8ff" points="429.84,-1193.56 439.9,-1190.24 429.97,-1186.57 429.84,-1193.56"/>
</g>
<!-- Node14 -->
<g id="node14" class="node">
<title>Node14</title>
<g id="a_node14"><a xlink:href="structImDrawList.html#ad96f10a3e954fe0c5b7c96d4e205af7b" target="_top" xlink:title=" ">
<polygon fill="#fff0f0" stroke="red" points="571.5,-93 452.5,-93 452.5,-74 571.5,-74 571.5,-93"/>
<text text-anchor="middle" x="512" y="-81" font-family="Helvetica,sans-Serif" font-size="10.00">ImDrawList::AddRect</text>
</a>
</g>
</g>
<!-- Node13&#45;&gt;Node14 -->
<g id="edge14" class="edge">
<title>Node13&#45;&gt;Node14</title>
<path fill="none" stroke="#63b8ff" d="M346.59,-230.44C360.88,-227.52 375.08,-222.11 386,-212.5 424.94,-178.24 383.3,-136.02 422,-101.5 427.96,-96.19 435.04,-92.27 442.56,-89.41"/>
<polygon fill="#63b8ff" stroke="#63b8ff" points="443.82,-92.68 452.29,-86.32 441.7,-86.01 443.82,-92.68"/>
</g>
<!-- Node27 -->
<g id="node15" class="node">
<title>Node27</title>
<g id="a_node15"><a xlink:href="namespaceImGui.html#a17ff60ad1e2669130ac38a04d16eb354" target="_top" xlink:title=" ">
<polygon fill="#fff0f0" stroke="red" points="571.5,-317 452.5,-317 452.5,-298 571.5,-298 571.5,-317"/>
<text text-anchor="middle" x="512" y="-305" font-family="Helvetica,sans-Serif" font-size="10.00">ImGui::ClearActiveID</text>
</a>
</g>
</g>
<!-- Node13&#45;&gt;Node27 -->
<g id="edge15" class="edge">
<title>Node13&#45;&gt;Node27</title>
<path fill="none" stroke="#63b8ff" d="M308.02,-241.04C335.04,-252.06 381.34,-270.34 422,-283.5 434.98,-287.7 449.19,-291.77 462.37,-295.32"/>
<polygon fill="#63b8ff" stroke="#63b8ff" points="461.64,-298.75 472.2,-297.93 463.44,-291.98 461.64,-298.75"/>
</g>
<!-- Node30 -->
<g id="node16" class="node">
<title>Node30</title>
<g id="a_node16"><a xlink:href="namespaceImGui.html#a77e1a981b472415e6613a2bd0966d817" target="_top" xlink:title=" ">
<polygon fill="#fff0f0" stroke="red" points="595.5,-56 428.5,-56 428.5,-37 595.5,-37 595.5,-56"/>
<text text-anchor="middle" x="512" y="-44" font-family="Helvetica,sans-Serif" font-size="10.00">ImGui::GetForegroundDrawList</text>
</a>
</g>
</g>
<!-- Node13&#45;&gt;Node30 -->
<g id="edge16" class="edge">
<title>Node13&#45;&gt;Node30</title>
<path fill="none" stroke="#63b8ff" d="M346.58,-231.11C361.04,-228.21 375.32,-222.63 386,-212.5 435.11,-165.91 373.21,-111.42 422,-64.5 422.96,-63.58 423.95,-62.7 424.97,-61.86"/>
<polygon fill="#63b8ff" stroke="#63b8ff" points="427.05,-64.67 433.35,-56.15 423.11,-58.89 427.05,-64.67"/>
</g>
<!-- Node45 -->
<g id="node17" class="node">
<title>Node45</title>
<g id="a_node17"><a xlink:href="namespaceImGui.html#a4711f04593c21dee2ecb1f736c4da981" target="_top" xlink:title=" ">
<polygon fill="#fff0f0" stroke="red" points="584.5,-19 439.5,-19 439.5,0 584.5,0 584.5,-19"/>
<text text-anchor="middle" x="512" y="-7" font-family="Helvetica,sans-Serif" font-size="10.00">ImGui::GetKeyChordName</text>
</a>
</g>
</g>
<!-- Node13&#45;&gt;Node45 -->
<g id="edge17" class="edge">
<title>Node13&#45;&gt;Node45</title>
<path fill="none" stroke="#63b8ff" d="M346.64,-231.5C361.19,-228.61 375.5,-222.94 386,-212.5 445.42,-153.45 362.99,-86.95 422,-27.5 424.58,-24.9 427.42,-22.63 430.45,-20.64"/>
<polygon fill="#63b8ff" stroke="#63b8ff" points="432.34,-23.6 439.47,-15.77 429.01,-17.45 432.34,-23.6"/>
</g>
<!-- Node53 -->
<g id="node18" class="node">
<title>Node53</title>
<g id="a_node18"><a xlink:href="namespaceImGui.html#ac9a400eff3a9561d95e80486c52a660b" target="_top" xlink:title=" ">
<polygon fill="#fff0f0" stroke="red" points="574,-241 450,-241 450,-222 574,-222 574,-241"/>
<text text-anchor="middle" x="512" y="-229" font-family="Helvetica,sans-Serif" font-size="10.00">ImGui::IsItemHovered</text>
</a>
</g>
</g>
<!-- Node13&#45;&gt;Node53 -->
<g id="edge18" class="edge">
<title>Node13&#45;&gt;Node53</title>
<path fill="none" stroke="#63b8ff" d="M346.76,-231.5C375.4,-231.5 409.61,-231.5 439.38,-231.5"/>
<polygon fill="#63b8ff" stroke="#63b8ff" points="439.71,-235 449.71,-231.5 439.71,-228 439.71,-235"/>
</g>
<!-- Node60 -->
<g id="node19" class="node">
<title>Node60</title>
<g id="a_node19"><a xlink:href="namespaceImGui.html#ab3095c274afa3c3d73e1d5cae190f469" target="_top" xlink:title=" ">
<polygon fill="#fff0f0" stroke="red" points="826,-260 638,-260 638,-241 826,-241 826,-260"/>
<text text-anchor="middle" x="732" y="-248" font-family="Helvetica,sans-Serif" font-size="10.00">ImGui::IsWindowContentHoverable</text>
</a>
</g>
</g>
<!-- Node13&#45;&gt;Node60 -->
<g id="edge21" class="edge">
<title>Node13&#45;&gt;Node60</title>
<path fill="none" stroke="#63b8ff" d="M344.85,-241.05C368.78,-244.42 396.63,-247.8 422,-249.5 490.43,-254.09 567.59,-254.34 627.68,-253.45"/>
<polygon fill="#63b8ff" stroke="#63b8ff" points="627.99,-256.94 637.93,-253.28 627.88,-249.94 627.99,-256.94"/>
</g>
<!-- Node62 -->
<g id="node20" class="node">
<title>Node62</title>
<g id="a_node20"><a xlink:href="namespaceImGui.html#ae0b8ea0e06c457316d6aed6c5b2a1c25" target="_top" xlink:title=" ">
<polygon fill="#fff0f0" stroke="red" points="591,-204 433,-204 433,-185 591,-185 591,-204"/>
<text text-anchor="middle" x="512" y="-192" font-family="Helvetica,sans-Serif" font-size="10.00">ImGui::IsMouseHoveringRect</text>
</a>
</g>
</g>
<!-- Node13&#45;&gt;Node62 -->
<g id="edge20" class="edge">
<title>Node13&#45;&gt;Node62</title>
<path fill="none" stroke="#63b8ff" d="M343.2,-221.97C373.53,-217.01 410.81,-210.9 442.52,-205.71"/>
<polygon fill="#63b8ff" stroke="#63b8ff" points="443.3,-209.13 452.6,-204.06 442.17,-202.22 443.3,-209.13"/>
</g>
<!-- Node67 -->
<g id="node21" class="node">
<title>Node67</title>
<g id="a_node21"><a xlink:href="namespaceImGui.html#aba1f0c75d6f98702e6b02eb1bc30d915" target="_top" xlink:title=" ">
<polygon fill="white" stroke="#666666" points="571.5,-167 452.5,-167 452.5,-148 571.5,-148 571.5,-167"/>
<text text-anchor="middle" x="512" y="-155" font-family="Helvetica,sans-Serif" font-size="10.00">ImGui::SetHoveredID</text>
</a>
</g>
</g>
<!-- Node13&#45;&gt;Node67 -->
<g id="edge22" class="edge">
<title>Node13&#45;&gt;Node67</title>
<path fill="none" stroke="#63b8ff" d="M346.59,-226.1C360.11,-223.25 373.97,-218.95 386,-212.5 406.22,-201.65 401.86,-186.49 422,-175.5 428.37,-172.02 435.34,-169.21 442.47,-166.95"/>
<polygon fill="#63b8ff" stroke="#63b8ff" points="443.59,-170.27 452.26,-164.18 441.68,-163.53 443.59,-170.27"/>
</g>
<!-- Node68 -->
<g id="node22" class="node">
<title>Node68</title>
<g id="a_node22"><a xlink:href="namespaceImGui.html#a313073fa01b8a9791f241ef93091ce92" target="_top" xlink:title=" ">
<polygon fill="#fff0f0" stroke="red" points="562,-130 462,-130 462,-111 562,-111 562,-130"/>
<text text-anchor="middle" x="512" y="-118" font-family="Helvetica,sans-Serif" font-size="10.00">ImGui::SetTooltip</text>
</a>
</g>
</g>
<!-- Node13&#45;&gt;Node68 -->
<g id="edge23" class="edge">
<title>Node13&#45;&gt;Node68</title>
<path fill="none" stroke="#63b8ff" d="M346.75,-229.13C360.71,-226.2 374.72,-221.11 386,-212.5 415.07,-190.31 393.08,-160.89 422,-138.5 430.68,-131.78 441.23,-127.38 451.99,-124.54"/>
<polygon fill="#63b8ff" stroke="#63b8ff" points="452.87,-127.93 461.88,-122.35 451.36,-121.1 452.87,-127.93"/>
</g>
<!-- Node53&#45;&gt;Node60 -->
<g id="edge19" class="edge">
<title>Node53&#45;&gt;Node60</title>
<path fill="none" stroke="#63b8ff" d="M574.02,-236.82C590.7,-238.27 609.26,-239.89 627.61,-241.49"/>
<polygon fill="#63b8ff" stroke="#63b8ff" points="627.5,-244.99 637.77,-242.37 628.11,-238.02 627.5,-244.99"/>
</g>
<!-- Node41&#45;&gt;Node10 -->
<g id="edge28" class="edge">
<title>Node41&#45;&gt;Node10</title>
<path fill="none" stroke="#63b8ff" d="M355.19,-1008.13C365.79,-1010.66 376.39,-1014.03 386,-1018.5 404.88,-1027.29 402.71,-1040.66 422,-1048.5 515.38,-1086.46 637.57,-1081.72 696.39,-1076.44"/>
<polygon fill="#63b8ff" stroke="#63b8ff" points="697,-1079.9 706.62,-1075.46 696.33,-1072.93 697,-1079.9"/>
</g>
<!-- Node42 -->
<g id="node24" class="node">
<title>Node42</title>
<g id="a_node24"><a xlink:href="structImDrawList.html#a8e51ddbe1f9732bc271ce807bec23f54" target="_top" xlink:title=" ">
<polygon fill="#fff0f0" stroke="red" points="602,-1006 422,-1006 422,-987 602,-987 602,-1006"/>
<text text-anchor="middle" x="512" y="-994" font-family="Helvetica,sans-Serif" font-size="10.00">ImDrawList::_OnChangedClipRect</text>
</a>
</g>
</g>
<!-- Node41&#45;&gt;Node42 -->
<g id="edge25" class="edge">
<title>Node41&#45;&gt;Node42</title>
<path fill="none" stroke="#63b8ff" d="M355.27,-999.26C373.06,-998.94 392.51,-998.6 411.45,-998.26"/>
<polygon fill="#63b8ff" stroke="#63b8ff" points="411.67,-1001.76 421.6,-998.08 411.54,-994.76 411.67,-1001.76"/>
</g>
<!-- Node21 -->
<g id="node26" class="node">
<title>Node21</title>
<g id="a_node26"><a xlink:href="structImVector.html#aab5df48e0711a48bd12f3206e08c4108" target="_top" xlink:title=" ">
<polygon fill="#fff0f0" stroke="red" points="997,-987 879,-987 879,-968 997,-968 997,-987"/>
<text text-anchor="middle" x="938" y="-975" font-family="Helvetica,sans-Serif" font-size="10.00">ImVector::push_back</text>
</a>
</g>
</g>
<!-- Node41&#45;&gt;Node21 -->
<g id="edge29" class="edge">
<title>Node41&#45;&gt;Node21</title>
<path fill="none" stroke="#63b8ff" d="M355.29,-1009.07C376.68,-1011.3 400.27,-1013.39 422,-1014.5 601.52,-1023.65 647.6,-1017.5 826,-995.5 841.42,-993.6 857.97,-991.14 873.47,-988.66"/>
<polygon fill="#63b8ff" stroke="#63b8ff" points="874.18,-992.09 883.48,-987.02 873.05,-985.18 874.18,-992.09"/>
</g>
<!-- Node37 -->
<g id="node25" class="node">
<title>Node37</title>
<g id="a_node25"><a xlink:href="structImDrawList.html#a846714bb0321c6f1f908767abc8559e6" target="_top" xlink:title=" ">
<polygon fill="white" stroke="#666666" points="804.5,-987 659.5,-987 659.5,-968 804.5,-968 804.5,-987"/>
<text text-anchor="middle" x="732" y="-975" font-family="Helvetica,sans-Serif" font-size="10.00">ImDrawList::AddDrawCmd</text>
</a>
</g>
</g>
<!-- Node42&#45;&gt;Node37 -->
<g id="edge26" class="edge">
<title>Node42&#45;&gt;Node37</title>
<path fill="none" stroke="#63b8ff" d="M602.3,-988.72C617.68,-987.38 633.6,-985.99 648.79,-984.67"/>
<polygon fill="#63b8ff" stroke="#63b8ff" points="649.51,-988.12 659.16,-983.76 648.9,-981.14 649.51,-988.12"/>
</g>
<!-- Node37&#45;&gt;Node21 -->
<g id="edge27" class="edge">
<title>Node37&#45;&gt;Node21</title>
<path fill="none" stroke="#63b8ff" d="M804.64,-977.5C825.46,-977.5 848.14,-977.5 868.74,-977.5"/>
<polygon fill="#63b8ff" stroke="#63b8ff" points="868.99,-981 878.99,-977.5 868.99,-974 868.99,-981"/>
</g>
<!-- Node40&#45;&gt;Node37 -->
<g id="edge31" class="edge">
<title>Node40&#45;&gt;Node37</title>
<path fill="none" stroke="#63b8ff" d="M341.03,-960.01C418.75,-963.5 559.79,-969.82 649.25,-973.83"/>
<polygon fill="#63b8ff" stroke="#63b8ff" points="649.22,-977.34 659.36,-974.29 649.53,-970.34 649.22,-977.34"/>
</g>
<!-- Node502 -->
<g id="node29" class="node">
<title>Node502</title>
<g id="a_node29"><a xlink:href="namespaceImGui.html#a9bb87665314f24d473daefd570d43db1" target="_top" xlink:title=" ">
<polygon fill="#fff0f0" stroke="red" points="573,-1282 451,-1282 451,-1263 573,-1263 573,-1282"/>
<text text-anchor="middle" x="512" y="-1270" font-family="Helvetica,sans-Serif" font-size="10.00">ImGui::BeginPopupEx</text>
</a>
</g>
</g>
<!-- Node501&#45;&gt;Node502 -->
<g id="edge33" class="edge">
<title>Node501&#45;&gt;Node502</title>
<path fill="none" stroke="#63b8ff" d="M355.58,-1269.06C382.68,-1269.66 413.59,-1270.34 440.67,-1270.94"/>
<polygon fill="#63b8ff" stroke="#63b8ff" points="440.77,-1274.45 450.85,-1271.17 440.93,-1267.45 440.77,-1274.45"/>
</g>
<!-- Node111 -->
<g id="node30" class="node">
<title>Node111</title>
<g id="a_node30"><a xlink:href="imgui_8cpp.html#ab6659b5d67f7a3369e099ce890e12223" target="_top" xlink:title=" ">
<polygon fill="white" stroke="#666666" points="546,-1245 478,-1245 478,-1226 546,-1226 546,-1245"/>
<text text-anchor="middle" x="512" y="-1233" font-family="Helvetica,sans-Serif" font-size="10.00">ImHashStr</text>
</a>
</g>
</g>
<!-- Node501&#45;&gt;Node111 -->
<g id="edge35" class="edge">
<title>Node501&#45;&gt;Node111</title>
<path fill="none" stroke="#63b8ff" d="M355.58,-1257.51C392.23,-1252.32 435.85,-1246.14 467.54,-1241.65"/>
<polygon fill="#63b8ff" stroke="#63b8ff" points="468.39,-1245.07 477.8,-1240.2 467.41,-1238.14 468.39,-1245.07"/>
</g>
<!-- Node502&#45;&gt;Node4 -->
<g id="edge34" class="edge">
<title>Node502&#45;&gt;Node4</title>
<path fill="none" stroke="#63b8ff" d="M573.15,-1277.74C603.83,-1280.42 641.03,-1283.66 671.61,-1286.32"/>
<polygon fill="#63b8ff" stroke="#63b8ff" points="671.44,-1289.82 681.7,-1287.2 672.05,-1282.85 671.44,-1289.82"/>
</g>
<!-- Node121 -->
<g id="node33" class="node">
<title>Node121</title>
<g id="a_node33"><a xlink:href="namespaceImGui.html#a0560d8edbeb9985eda5334d2f01a6fad" target="_top" xlink:title=" ">
<polygon fill="white" stroke="#666666" points="576.5,-930 447.5,-930 447.5,-911 576.5,-911 576.5,-930"/>
<text text-anchor="middle" x="512" y="-918" font-family="Helvetica,sans-Serif" font-size="10.00">ImGui::LocalizeGetMsg</text>
</a>
</g>
</g>
<!-- Node505&#45;&gt;Node121 -->
<g id="edge38" class="edge">
<title>Node505&#45;&gt;Node121</title>
<path fill="none" stroke="#63b8ff" d="M292.81,-791.1C312.1,-814.13 364.62,-872.73 422,-901.5 426.94,-903.98 432.2,-906.14 437.59,-908.01"/>
<polygon fill="#63b8ff" stroke="#63b8ff" points="436.81,-911.43 447.39,-911.09 438.9,-904.76 436.81,-911.43"/>
</g>
<!-- Node506 -->
<g id="node34" class="node">
<title>Node506</title>
<g id="a_node34"><a xlink:href="namespaceImGui.html#aa1bae511ca47478998693a9d8c84f2e6" target="_top" xlink:title=" ">
<polygon fill="#fff0f0" stroke="red" points="562.5,-893 461.5,-893 461.5,-874 562.5,-874 562.5,-893"/>
<text text-anchor="middle" x="512" y="-881" font-family="Helvetica,sans-Serif" font-size="10.00">ImGui::MenuItem</text>
</a>
</g>
</g>
<!-- Node505&#45;&gt;Node506 -->
<g id="edge39" class="edge">
<title>Node505&#45;&gt;Node506</title>
<path fill="none" stroke="#63b8ff" d="M297.46,-791.05C320.66,-808.36 372.62,-844.92 422,-864.5 431.25,-868.17 441.34,-871.18 451.29,-873.64"/>
<polygon fill="#63b8ff" stroke="#63b8ff" points="450.64,-877.08 461.17,-875.92 452.21,-870.26 450.64,-877.08"/>
</g>
<!-- Node513 -->
<g id="node35" class="node">
<title>Node513</title>
<g id="a_node35"><a xlink:href="namespaceImGui.html#aa93281155e1dd23715dbd384e91edc6b" target="_top" xlink:title=" ">
<polygon fill="#fff0f0" stroke="red" points="568.5,-856 455.5,-856 455.5,-837 568.5,-837 568.5,-856"/>
<text text-anchor="middle" x="512" y="-844" font-family="Helvetica,sans-Serif" font-size="10.00">ImGui::PopItemFlag</text>
</a>
</g>
</g>
<!-- Node505&#45;&gt;Node513 -->
<g id="edge40" class="edge">
<title>Node505&#45;&gt;Node513</title>
<path fill="none" stroke="#63b8ff" d="M310.49,-791.03C337.8,-801.01 382.55,-816.7 422,-827.5 431.49,-830.1 441.62,-832.55 451.53,-834.79"/>
<polygon fill="#63b8ff" stroke="#63b8ff" points="450.81,-838.21 461.33,-836.94 452.31,-831.37 450.81,-838.21"/>
</g>
<!-- Node517 -->
<g id="node36" class="node">
<title>Node517</title>
<g id="a_node36"><a xlink:href="namespaceImGui.html#ac7301f6378333f6d17f47823eed9e00a" target="_top" xlink:title=" ">
<polygon fill="#fff0f0" stroke="red" points="791.5,-665 672.5,-665 672.5,-646 791.5,-646 791.5,-665"/>
<text text-anchor="middle" x="732" y="-653" font-family="Helvetica,sans-Serif" font-size="10.00">ImGui::PushItemFlag</text>
</a>
</g>
</g>
<!-- Node505&#45;&gt;Node517 -->
<g id="edge41" class="edge">
<title>Node505&#45;&gt;Node517</title>
<path fill="none" stroke="#63b8ff" d="M290.47,-771.66C306.42,-744.17 355.91,-666.71 422,-638.5 512.85,-599.72 632.6,-625.41 692.86,-642.97"/>
<polygon fill="#63b8ff" stroke="#63b8ff" points="692.13,-646.41 702.71,-645.93 694.14,-639.7 692.13,-646.41"/>
</g>
<!-- Node535 -->
<g id="node37" class="node">
<title>Node535</title>
<g id="a_node37"><a xlink:href="namespaceImGui.html#a191123597a5084d003c8beac7eeb029e" target="_top" xlink:title=" ">
<polygon fill="#fff0f0" stroke="red" points="561.5,-770 462.5,-770 462.5,-751 561.5,-751 561.5,-770"/>
<text text-anchor="middle" x="512" y="-758" font-family="Helvetica,sans-Serif" font-size="10.00">ImGui::Separator</text>
</a>
</g>
</g>
<!-- Node505&#45;&gt;Node535 -->
<g id="edge43" class="edge">
<title>Node505&#45;&gt;Node535</title>
<path fill="none" stroke="#63b8ff" d="M386.1,-772.11C408.82,-769.99 432.19,-767.82 452.48,-765.94"/>
<polygon fill="#63b8ff" stroke="#63b8ff" points="452.85,-769.42 462.49,-765.01 452.21,-762.45 452.85,-769.42"/>
</g>
<!-- Node537 -->
<g id="node38" class="node">
<title>Node537</title>
<g id="a_node38"><a xlink:href="namespaceImGui.html#a38ddf97e72be7278e6661d7db3055526" target="_top" xlink:title=" ">
<polygon fill="white" stroke="#666666" points="592.5,-715 431.5,-715 431.5,-696 592.5,-696 592.5,-715"/>
<text text-anchor="middle" x="512" y="-703" font-family="Helvetica,sans-Serif" font-size="10.00">ImGui::TableGetColumnName</text>
</a>
</g>
</g>
<!-- Node505&#45;&gt;Node537 -->
<g id="edge44" class="edge">
<title>Node505&#45;&gt;Node537</title>
<path fill="none" stroke="#63b8ff" d="M313.62,-771.87C354.04,-758.28 427.91,-733.44 472.92,-718.31"/>
<polygon fill="#63b8ff" stroke="#63b8ff" points="474.25,-721.55 482.61,-715.05 472.02,-714.92 474.25,-721.55"/>
</g>
<!-- Node538 -->
<g id="node39" class="node">
<title>Node538</title>
<g id="a_node39"><a xlink:href="namespaceImGui.html#a5db8b6e07ea254b0a63e064a64847b99" target="_top" xlink:title=" ">
<polygon fill="white" stroke="#666666" points="587,-818.5 437,-818.5 437,-788.5 587,-788.5 587,-818.5"/>
<text text-anchor="start" x="445" y="-806.5" font-family="Helvetica,sans-Serif" font-size="10.00">ImGui::TableSetColumnSort</text>
<text text-anchor="middle" x="512" y="-795.5" font-family="Helvetica,sans-Serif" font-size="10.00">Direction</text>
</a>
</g>
</g>
<!-- Node505&#45;&gt;Node538 -->
<g id="edge46" class="edge">
<title>Node505&#45;&gt;Node538</title>
<path fill="none" stroke="#63b8ff" d="M382.81,-791.02C397.4,-792.44 412.34,-793.9 426.62,-795.29"/>
<polygon fill="#63b8ff" stroke="#63b8ff" points="426.6,-798.8 436.89,-796.29 427.28,-791.83 426.6,-798.8"/>
</g>
<!-- Node541 -->
<g id="node41" class="node">
<title>Node541</title>
<g id="a_node41"><a xlink:href="namespaceImGui.html#a772b157564e3624de66e0f86b0ed3f37" target="_top" xlink:title=" ">
<polygon fill="white" stroke="#666666" points="591.5,-677.5 432.5,-677.5 432.5,-647.5 591.5,-647.5 591.5,-677.5"/>
<text text-anchor="start" x="440.5" y="-665.5" font-family="Helvetica,sans-Serif" font-size="10.00">ImGui::TableSetColumnWidth</text>
<text text-anchor="middle" x="512" y="-654.5" font-family="Helvetica,sans-Serif" font-size="10.00">AutoAll</text>
</a>
</g>
</g>
<!-- Node505&#45;&gt;Node541 -->
<g id="edge49" class="edge">
<title>Node505&#45;&gt;Node541</title>
<path fill="none" stroke="#63b8ff" d="M295.91,-771.94C318.12,-752.95 370.81,-710.28 422,-686.5 426.31,-684.5 430.82,-682.64 435.42,-680.91"/>
<polygon fill="#63b8ff" stroke="#63b8ff" points="436.68,-684.18 444.96,-677.56 434.36,-677.57 436.68,-684.18"/>
</g>
<!-- Node542 -->
<g id="node42" class="node">
<title>Node542</title>
<g id="a_node42"><a xlink:href="namespaceImGui.html#a7db13485f1945070e9de98facafe7e1d" target="_top" xlink:title=" ">
<polygon fill="white" stroke="#666666" points="591.5,-553.5 432.5,-553.5 432.5,-523.5 591.5,-523.5 591.5,-553.5"/>
<text text-anchor="start" x="440.5" y="-541.5" font-family="Helvetica,sans-Serif" font-size="10.00">ImGui::TableSetColumnWidth</text>
<text text-anchor="middle" x="512" y="-530.5" font-family="Helvetica,sans-Serif" font-size="10.00">AutoSingle</text>
</a>
</g>
</g>
<!-- Node505&#45;&gt;Node542 -->
<g id="edge50" class="edge">
<title>Node505&#45;&gt;Node542</title>
<path fill="none" stroke="#63b8ff" d="M288.13,-771.83C299.74,-737.51 343.8,-620.43 422,-562.5 423.88,-561.11 425.84,-559.79 427.85,-558.56"/>
<polygon fill="#63b8ff" stroke="#63b8ff" points="429.9,-561.43 437.04,-553.61 426.58,-555.27 429.9,-561.43"/>
</g>
<!-- Node517&#45;&gt;Node21 -->
<g id="edge42" class="edge">
<title>Node517&#45;&gt;Node21</title>
<path fill="none" stroke="#63b8ff" d="M745.85,-665.25C765.22,-680.46 802.17,-711.54 826,-744.5 878.05,-816.5 916.06,-916.74 930.55,-958.29"/>
<polygon fill="#63b8ff" stroke="#63b8ff" points="927.32,-959.63 933.87,-967.96 933.94,-957.36 927.32,-959.63"/>
</g>
<!-- Node537&#45;&gt;Node537 -->
<g id="edge45" class="edge">
<title>Node537&#45;&gt;Node537</title>
<path fill="none" stroke="#63b8ff" d="M478.09,-715.08C461.6,-723.73 472.9,-733 512,-733 540.1,-733 553.85,-728.21 553.23,-722.31"/>
<polygon fill="#63b8ff" stroke="#63b8ff" points="555.48,-719.62 545.91,-715.08 550.57,-724.6 555.48,-719.62"/>
</g>
<!-- Node538&#45;&gt;Node10 -->
<g id="edge47" class="edge">
<title>Node538&#45;&gt;Node10</title>
<path fill="none" stroke="#63b8ff" d="M587.17,-816.24C592.65,-819.27 597.7,-822.97 602,-827.5 654.57,-882.89 598.4,-930.21 638,-995.5 654.26,-1022.32 683.29,-1044.09 704.6,-1057.55"/>
<polygon fill="#63b8ff" stroke="#63b8ff" points="702.84,-1060.58 713.2,-1062.81 706.49,-1054.61 702.84,-1060.58"/>
</g>
<!-- Node539 -->
<g id="node40" class="node">
<title>Node539</title>
<g id="a_node40"><a xlink:href="namespaceImGui.html#a6eb757220d4d7276577cfadfd056c9fe" target="_top" xlink:title=" ">
<polygon fill="#fff0f0" stroke="red" points="806.5,-783.5 657.5,-783.5 657.5,-753.5 806.5,-753.5 806.5,-783.5"/>
<text text-anchor="start" x="665.5" y="-771.5" font-family="Helvetica,sans-Serif" font-size="10.00">ImGui::TableFixColumnSort</text>
<text text-anchor="middle" x="732" y="-760.5" font-family="Helvetica,sans-Serif" font-size="10.00">Direction</text>
</a>
</g>
</g>
<!-- Node538&#45;&gt;Node539 -->
<g id="edge48" class="edge">
<title>Node538&#45;&gt;Node539</title>
<path fill="none" stroke="#63b8ff" d="M587.11,-791.6C606.54,-788.48 627.62,-785.1 647.5,-781.91"/>
<polygon fill="#63b8ff" stroke="#63b8ff" points="648.15,-785.35 657.47,-780.31 647.04,-778.44 648.15,-785.35"/>
</g>
<!-- Node543&#45;&gt;Node10 -->
<g id="edge52" class="edge">
<title>Node543&#45;&gt;Node10</title>
<path fill="none" stroke="#63b8ff" d="M341.53,-1047.02C356.37,-1050.56 372.1,-1055.29 386,-1061.5 403.79,-1069.45 403.41,-1080.68 422,-1086.5 517.96,-1116.55 638.87,-1095.15 696.88,-1081.49"/>
<polygon fill="#63b8ff" stroke="#63b8ff" points="697.74,-1084.88 706.63,-1079.12 696.09,-1078.08 697.74,-1084.88"/>
</g>
<!-- Node545&#45;&gt;Node539 -->
<g id="edge57" class="edge">
<title>Node545&#45;&gt;Node539</title>
<path fill="none" stroke="#63b8ff" d="M304.4,-528.91C358.36,-503.77 512.09,-442.67 602,-514.5 658.61,-559.72 603.35,-609.87 638,-673.5 653.98,-702.85 681.63,-729.38 702.64,-746.9"/>
<polygon fill="#63b8ff" stroke="#63b8ff" points="700.65,-749.79 710.61,-753.39 705.07,-744.36 700.65,-749.79"/>
</g>
<!-- Node260 -->
<g id="node46" class="node">
<title>Node260</title>
<g id="a_node46"><a xlink:href="imgui__internal_8h.html#a3cc719adb48b1aed8ab1196ecea7e828" target="_top" xlink:title=" ">
<polygon fill="white" stroke="#666666" points="561,-467 463,-467 463,-448 561,-448 561,-467"/>
<text text-anchor="middle" x="512" y="-455" font-family="Helvetica,sans-Serif" font-size="10.00">ImIsPowerOfTwo</text>
</a>
</g>
</g>
<!-- Node545&#45;&gt;Node260 -->
<g id="edge55" class="edge">
<title>Node545&#45;&gt;Node260</title>
<path fill="none" stroke="#63b8ff" d="M305.56,-528.95C332.08,-516.86 379.82,-495.89 422,-481.5 434.67,-477.18 448.57,-473.11 461.54,-469.61"/>
<polygon fill="#63b8ff" stroke="#63b8ff" points="462.46,-472.98 471.23,-467.04 460.67,-466.21 462.46,-472.98"/>
</g>
<!-- Node546 -->
<g id="node47" class="node">
<title>Node546</title>
<g id="a_node47"><a xlink:href="structImSpan.html#a7e80a5146acbfac4bb952f80daf3c305" target="_top" xlink:title=" ">
<polygon fill="white" stroke="#666666" points="579,-591 445,-591 445,-572 579,-572 579,-591"/>
<text text-anchor="middle" x="512" y="-579" font-family="Helvetica,sans-Serif" font-size="10.00">ImSpan::index_from_ptr</text>
</a>
</g>
</g>
<!-- Node545&#45;&gt;Node546 -->
<g id="edge56" class="edge">
<title>Node545&#45;&gt;Node546</title>
<path fill="none" stroke="#63b8ff" d="M335.16,-548.04C369.39,-554.56 414.91,-563.22 451.05,-570.09"/>
<polygon fill="#63b8ff" stroke="#63b8ff" points="450.51,-573.55 460.98,-571.98 451.81,-566.68 450.51,-573.55"/>
</g>
<!-- Node547&#45;&gt;Node8 -->
<g id="edge59" class="edge">
<title>Node547&#45;&gt;Node8</title>
<path fill="none" stroke="#63b8ff" d="M337.42,-1160.01C364.83,-1164.98 399,-1171.18 429.76,-1176.76"/>
<polygon fill="#63b8ff" stroke="#63b8ff" points="429.14,-1180.21 439.61,-1178.55 430.39,-1173.32 429.14,-1180.21"/>
</g>
<!-- Node550&#45;&gt;Node10 -->
<g id="edge63" class="edge">
<title>Node550&#45;&gt;Node10</title>
<path fill="none" stroke="#63b8ff" d="M359.23,-413.91C442.13,-408.34 569.03,-405.79 602,-438.5 646.02,-482.18 609.81,-940.26 638,-995.5 652.09,-1023.11 680.93,-1044.51 702.78,-1057.67"/>
<polygon fill="#63b8ff" stroke="#63b8ff" points="701.25,-1060.83 711.66,-1062.8 704.75,-1054.76 701.25,-1060.83"/>
</g>
<!-- Node550&#45;&gt;Node12 -->
<g id="edge64" class="edge">
<title>Node550&#45;&gt;Node12</title>
<path fill="none" stroke="#63b8ff" d="M340.29,-410.96C381.91,-403.78 437.83,-394.13 474.13,-387.86"/>
<polygon fill="#63b8ff" stroke="#63b8ff" points="475.02,-391.26 484.28,-386.11 473.83,-384.36 475.02,-391.26"/>
</g>
<!-- Node550&#45;&gt;Node27 -->
<g id="edge62" class="edge">
<title>Node550&#45;&gt;Node27</title>
<path fill="none" stroke="#63b8ff" d="M295.45,-410.96C317.23,-391.61 369.81,-347.74 422,-325.5 428.33,-322.8 435.1,-320.5 441.96,-318.54"/>
<polygon fill="#63b8ff" stroke="#63b8ff" points="443.25,-321.82 452.04,-315.9 441.48,-315.04 443.25,-321.82"/>
</g>
<!-- Node550&#45;&gt;Node542 -->
<g id="edge66" class="edge">
<title>Node550&#45;&gt;Node542</title>
<path fill="none" stroke="#63b8ff" d="M303.49,-430.16C340.44,-449.44 424.01,-493.08 473.08,-518.7"/>
<polygon fill="#63b8ff" stroke="#63b8ff" points="471.63,-521.89 482.12,-523.42 474.87,-515.69 471.63,-521.89"/>
</g>
<!-- Node550&#45;&gt;Node544 -->
<g id="edge65" class="edge">
<title>Node550&#45;&gt;Node544</title>
<path fill="none" stroke="#63b8ff" d="M304.05,-410.98C330.1,-398.31 378.57,-375.93 422,-362.5 429.41,-360.21 437.26,-358.13 445.11,-356.27"/>
<polygon fill="#63b8ff" stroke="#63b8ff" points="446.04,-359.65 455.02,-354.03 444.49,-352.82 446.04,-359.65"/>
</g>
</g>
</svg>
