<?xml version="1.0" encoding="UTF-8" standalone="no"?>
<!DOCTYPE svg PUBLIC "-//W3C//DTD SVG 1.1//EN"
 "http://www.w3.org/Graphics/SVG/1.1/DTD/svg11.dtd">
<!-- Generated by graphviz version 2.43.0 (0)
 -->
<!-- Title: ImGui::Combo Pages: 1 -->
<svg width="412pt" height="82pt"
 viewBox="0.00 0.00 412.00 82.00" xmlns="http://www.w3.org/2000/svg" xmlns:xlink="http://www.w3.org/1999/xlink">
<g id="graph0" class="graph" transform="scale(1 1) rotate(0) translate(4 78)">
<title>ImGui::Combo</title>
<!-- Node1 -->
<g id="node1" class="node">
<title>Node1</title>
<g id="a_node1"><a xlink:title=" ">
<polygon fill="#999999" stroke="#666666" points="86,-37 0,-37 0,-18 86,-18 86,-37"/>
<text text-anchor="middle" x="43" y="-25" font-family="Helvetica,sans-Serif" font-size="10.00">ImGui::Combo</text>
</a>
</g>
</g>
<!-- Node2 -->
<g id="node2" class="node">
<title>Node2</title>
<g id="a_node2"><a xlink:href="namespaceImGui.html#aa2979368da5b9e98d368449b36d166b2" target="_top" xlink:title=" ">
<polygon fill="white" stroke="#666666" points="234.5,-56 148.5,-56 148.5,-37 234.5,-37 234.5,-56"/>
<text text-anchor="middle" x="191.5" y="-44" font-family="Helvetica,sans-Serif" font-size="10.00">ImGui::Combo</text>
</a>
</g>
</g>
<!-- Node1&#45;&gt;Node2 -->
<g id="edge1" class="edge">
<title>Node1&#45;&gt;Node2</title>
<path fill="none" stroke="#63b8ff" d="M86.37,-33C102.54,-35.09 121.16,-37.51 138.15,-39.71"/>
<polygon fill="#63b8ff" stroke="#63b8ff" points="138.11,-43.23 148.47,-41.05 139.01,-36.29 138.11,-43.23"/>
</g>
<!-- Node4 -->
<g id="node4" class="node">
<title>Node4</title>
<g id="a_node4"><a xlink:href="imgui__widgets_8cpp.html#ac22bdf13b13f297ab791ac9306b7371a" target="_top" xlink:title=" ">
<polygon fill="white" stroke="#666666" points="261,-19 122,-19 122,0 261,0 261,-19"/>
<text text-anchor="middle" x="191.5" y="-7" font-family="Helvetica,sans-Serif" font-size="10.00">Items_SingleStringGetter</text>
</a>
</g>
</g>
<!-- Node1&#45;&gt;Node4 -->
<g id="edge4" class="edge">
<title>Node1&#45;&gt;Node4</title>
<path fill="none" stroke="#63b8ff" d="M86.37,-22.29C94.33,-21.32 102.88,-20.27 111.54,-19.2"/>
<polygon fill="#63b8ff" stroke="#63b8ff" points="112.23,-22.64 121.73,-17.95 111.37,-15.7 112.23,-22.64"/>
</g>
<!-- Node2&#45;&gt;Node2 -->
<g id="edge2" class="edge">
<title>Node2&#45;&gt;Node2</title>
<path fill="none" stroke="#63b8ff" d="M168.69,-56.08C157.59,-64.73 165.2,-74 191.5,-74 208.35,-74 217.53,-70.2 219.03,-65.19"/>
<polygon fill="#63b8ff" stroke="#63b8ff" points="222.02,-63.35 214.31,-56.08 215.8,-66.57 222.02,-63.35"/>
</g>
<!-- Node3 -->
<g id="node3" class="node">
<title>Node3</title>
<g id="a_node3"><a xlink:href="imgui__widgets_8cpp.html#ad8f314afb60770d322bd454ec21e6c15" target="_top" xlink:title=" ">
<polygon fill="white" stroke="#666666" points="404,-56 297,-56 297,-37 404,-37 404,-56"/>
<text text-anchor="middle" x="350.5" y="-44" font-family="Helvetica,sans-Serif" font-size="10.00">Items_ArrayGetter</text>
</a>
</g>
</g>
<!-- Node2&#45;&gt;Node3 -->
<g id="edge3" class="edge">
<title>Node2&#45;&gt;Node3</title>
<path fill="none" stroke="#63b8ff" d="M234.57,-46.5C250.59,-46.5 269.22,-46.5 286.75,-46.5"/>
<polygon fill="#63b8ff" stroke="#63b8ff" points="286.91,-50 296.91,-46.5 286.91,-43 286.91,-50"/>
</g>
</g>
</svg>
