<?xml version="1.0" encoding="UTF-8" standalone="no"?>
<!DOCTYPE svg PUBLIC "-//W3C//DTD SVG 1.1//EN"
 "http://www.w3.org/Graphics/SVG/1.1/DTD/svg11.dtd">
<!-- Generated by graphviz version 2.43.0 (0)
 -->
<!-- Title: ImStb::STB_TEXTEDIT_MOVEWORDRIGHT_IMPL Pages: 1 -->
<svg width="804pt" height="138pt"
 viewBox="0.00 0.00 804.00 138.00" xmlns="http://www.w3.org/2000/svg" xmlns:xlink="http://www.w3.org/1999/xlink">
<g id="graph0" class="graph" transform="scale(1 1) rotate(0) translate(4 134)">
<title>ImStb::STB_TEXTEDIT_MOVEWORDRIGHT_IMPL</title>
<!-- Node1 -->
<g id="node1" class="node">
<title>Node1</title>
<g id="a_node1"><a xlink:title=" ">
<polygon fill="#999999" stroke="#666666" points="142,-79.5 0,-79.5 0,-49.5 142,-49.5 142,-79.5"/>
<text text-anchor="start" x="8" y="-67.5" font-family="Helvetica,sans-Serif" font-size="10.00">ImStb::STB_TEXTEDIT</text>
<text text-anchor="middle" x="71" y="-56.5" font-family="Helvetica,sans-Serif" font-size="10.00">_MOVEWORDRIGHT_IMPL</text>
</a>
</g>
</g>
<!-- Node2 -->
<g id="node2" class="node">
<title>Node2</title>
<g id="a_node2"><a xlink:href="namespaceImStb.html#a1c32d6fc2251c9168d5ce133104110d4" target="_top" xlink:title=" ">
<polygon fill="white" stroke="#666666" points="319,-103.5 178,-103.5 178,-73.5 319,-73.5 319,-103.5"/>
<text text-anchor="start" x="186" y="-91.5" font-family="Helvetica,sans-Serif" font-size="10.00">ImStb::STB_TEXTEDIT</text>
<text text-anchor="middle" x="248.5" y="-80.5" font-family="Helvetica,sans-Serif" font-size="10.00">_MOVEWORDRIGHT_MAC</text>
</a>
</g>
</g>
<!-- Node1&#45;&gt;Node2 -->
<g id="edge1" class="edge">
<title>Node1&#45;&gt;Node2</title>
<path fill="none" stroke="#63b8ff" d="M142.12,-74.09C150.56,-75.24 159.23,-76.43 167.79,-77.6"/>
<polygon fill="#63b8ff" stroke="#63b8ff" points="167.4,-81.08 177.78,-78.97 168.35,-74.14 167.4,-81.08"/>
</g>
<!-- Node9 -->
<g id="node9" class="node">
<title>Node9</title>
<g id="a_node9"><a xlink:href="namespaceImStb.html#aaadd38b7c62661755d9205493a834f1e" target="_top" xlink:title=" ">
<polygon fill="white" stroke="#666666" points="318,-55.5 179,-55.5 179,-25.5 318,-25.5 318,-55.5"/>
<text text-anchor="start" x="187" y="-43.5" font-family="Helvetica,sans-Serif" font-size="10.00">ImStb::STB_TEXTEDIT</text>
<text text-anchor="middle" x="248.5" y="-32.5" font-family="Helvetica,sans-Serif" font-size="10.00">_MOVEWORDRIGHT_WIN</text>
</a>
</g>
</g>
<!-- Node1&#45;&gt;Node9 -->
<g id="edge8" class="edge">
<title>Node1&#45;&gt;Node9</title>
<path fill="none" stroke="#63b8ff" d="M142.12,-54.91C150.93,-53.71 159.99,-52.47 168.92,-51.25"/>
<polygon fill="#63b8ff" stroke="#63b8ff" points="169.49,-54.7 178.92,-49.88 168.54,-47.77 169.49,-54.7"/>
</g>
<!-- Node3 -->
<g id="node3" class="node">
<title>Node3</title>
<g id="a_node3"><a xlink:href="namespaceImStb.html#a6625118253ca25ee5849aae59cd47c88" target="_top" xlink:title=" ">
<polygon fill="white" stroke="#666666" points="495,-103.5 355,-103.5 355,-73.5 495,-73.5 495,-103.5"/>
<text text-anchor="start" x="363" y="-91.5" font-family="Helvetica,sans-Serif" font-size="10.00">ImStb::is_word_boundary</text>
<text text-anchor="middle" x="425" y="-80.5" font-family="Helvetica,sans-Serif" font-size="10.00">_from_left</text>
</a>
</g>
</g>
<!-- Node2&#45;&gt;Node3 -->
<g id="edge2" class="edge">
<title>Node2&#45;&gt;Node3</title>
<path fill="none" stroke="#63b8ff" d="M319.22,-88.5C327.68,-88.5 336.37,-88.5 344.95,-88.5"/>
<polygon fill="#63b8ff" stroke="#63b8ff" points="344.96,-92 354.96,-88.5 344.96,-85 344.96,-92"/>
</g>
<!-- Node4 -->
<g id="node4" class="node">
<title>Node4</title>
<g id="a_node4"><a xlink:href="imgui__internal_8h.html#a28a0d11512ebeb664af106f145a37ddd" target="_top" xlink:title=" ">
<polygon fill="white" stroke="#666666" points="671,-56 573,-56 573,-37 671,-37 671,-56"/>
<text text-anchor="middle" x="622" y="-44" font-family="Helvetica,sans-Serif" font-size="10.00">ImCharIsBlankW</text>
</a>
</g>
</g>
<!-- Node3&#45;&gt;Node4 -->
<g id="edge3" class="edge">
<title>Node3&#45;&gt;Node4</title>
<path fill="none" stroke="#63b8ff" d="M490.35,-73.5C503.77,-70.45 517.84,-67.32 531,-64.5 541.27,-62.3 552.22,-60.04 562.82,-57.89"/>
<polygon fill="#63b8ff" stroke="#63b8ff" points="563.73,-61.28 572.84,-55.88 562.35,-54.42 563.73,-61.28"/>
</g>
<!-- Node5 -->
<g id="node5" class="node">
<title>Node5</title>
<g id="a_node5"><a xlink:href="namespaceImStb.html#a83e389662fe9b33435229a9ed61e8aaf" target="_top" xlink:title=" ">
<polygon fill="white" stroke="#666666" points="698,-19 546,-19 546,0 698,0 698,-19"/>
<text text-anchor="middle" x="622" y="-7" font-family="Helvetica,sans-Serif" font-size="10.00">ImStb::ImCharIsSeparatorW</text>
</a>
</g>
</g>
<!-- Node3&#45;&gt;Node5 -->
<g id="edge4" class="edge">
<title>Node3&#45;&gt;Node5</title>
<path fill="none" stroke="#63b8ff" d="M478.1,-73.35C483.99,-70.78 489.76,-67.84 495,-64.5 514.35,-52.18 510.85,-38.46 531,-27.5 534.44,-25.63 538.06,-23.95 541.78,-22.44"/>
<polygon fill="#63b8ff" stroke="#63b8ff" points="542.98,-25.73 551.2,-19.04 540.61,-19.14 542.98,-25.73"/>
</g>
<!-- Node6 -->
<g id="node6" class="node">
<title>Node6</title>
<g id="a_node6"><a xlink:href="imgui_8cpp.html#abee86973b9888938f748a7850c2c0ff3" target="_top" xlink:title=" ">
<polygon fill="white" stroke="#666666" points="681,-130 563,-130 563,-111 681,-111 681,-130"/>
<text text-anchor="middle" x="622" y="-118" font-family="Helvetica,sans-Serif" font-size="10.00">ImTextCharFromUtf8</text>
</a>
</g>
</g>
<!-- Node3&#45;&gt;Node6 -->
<g id="edge5" class="edge">
<title>Node3&#45;&gt;Node6</title>
<path fill="none" stroke="#63b8ff" d="M495.02,-99.83C513.88,-102.92 534.29,-106.27 553.08,-109.35"/>
<polygon fill="#63b8ff" stroke="#63b8ff" points="552.6,-112.82 563.03,-110.99 553.73,-105.91 552.6,-112.82"/>
</g>
<!-- Node8 -->
<g id="node8" class="node">
<title>Node8</title>
<g id="a_node8"><a xlink:href="imgui_8cpp.html#ab969e1ebe01b7c2f6e0126c532a534d5" target="_top" xlink:title=" ">
<polygon fill="white" stroke="#666666" points="713,-93 531,-93 531,-74 713,-74 713,-93"/>
<text text-anchor="middle" x="622" y="-81" font-family="Helvetica,sans-Serif" font-size="10.00">ImTextFindPreviousUtf8Codepoint</text>
</a>
</g>
</g>
<!-- Node3&#45;&gt;Node8 -->
<g id="edge7" class="edge">
<title>Node3&#45;&gt;Node8</title>
<path fill="none" stroke="#63b8ff" d="M495.02,-86.73C503.37,-86.52 512.02,-86.29 520.71,-86.07"/>
<polygon fill="#63b8ff" stroke="#63b8ff" points="520.99,-89.57 530.89,-85.81 520.81,-82.57 520.99,-89.57"/>
</g>
<!-- Node7 -->
<g id="node7" class="node">
<title>Node7</title>
<g id="a_node7"><a xlink:href="imgui__internal_8h.html#a7f9d7828066a9d61b5630adcdf4655d3" target="_top" xlink:title=" ">
<polygon fill="white" stroke="#666666" points="796,-130 749,-130 749,-111 796,-111 796,-130"/>
<text text-anchor="middle" x="772.5" y="-118" font-family="Helvetica,sans-Serif" font-size="10.00">ImMin</text>
</a>
</g>
</g>
<!-- Node6&#45;&gt;Node7 -->
<g id="edge6" class="edge">
<title>Node6&#45;&gt;Node7</title>
<path fill="none" stroke="#63b8ff" d="M681.26,-120.5C700.73,-120.5 721.73,-120.5 738.57,-120.5"/>
<polygon fill="#63b8ff" stroke="#63b8ff" points="738.98,-124 748.98,-120.5 738.98,-117 738.98,-124"/>
</g>
<!-- Node10 -->
<g id="node10" class="node">
<title>Node10</title>
<g id="a_node10"><a xlink:href="namespaceImStb.html#ab7f998a5fc7a1f6cab073a2392e786c3" target="_top" xlink:title=" ">
<polygon fill="white" stroke="#666666" points="495,-55.5 355,-55.5 355,-25.5 495,-25.5 495,-55.5"/>
<text text-anchor="start" x="363" y="-43.5" font-family="Helvetica,sans-Serif" font-size="10.00">ImStb::is_word_boundary</text>
<text text-anchor="middle" x="425" y="-32.5" font-family="Helvetica,sans-Serif" font-size="10.00">_from_right</text>
</a>
</g>
</g>
<!-- Node9&#45;&gt;Node10 -->
<g id="edge9" class="edge">
<title>Node9&#45;&gt;Node10</title>
<path fill="none" stroke="#63b8ff" d="M318.22,-40.5C326.85,-40.5 335.75,-40.5 344.53,-40.5"/>
<polygon fill="#63b8ff" stroke="#63b8ff" points="344.77,-44 354.77,-40.5 344.77,-37 344.77,-44"/>
</g>
<!-- Node10&#45;&gt;Node4 -->
<g id="edge10" class="edge">
<title>Node10&#45;&gt;Node4</title>
<path fill="none" stroke="#63b8ff" d="M495.02,-42.62C517.15,-43.3 541.42,-44.05 562.7,-44.71"/>
<polygon fill="#63b8ff" stroke="#63b8ff" points="562.78,-48.21 572.89,-45.02 563,-41.21 562.78,-48.21"/>
</g>
<!-- Node10&#45;&gt;Node5 -->
<g id="edge11" class="edge">
<title>Node10&#45;&gt;Node5</title>
<path fill="none" stroke="#63b8ff" d="M495.02,-29.53C513.24,-26.63 532.9,-23.51 551.15,-20.6"/>
<polygon fill="#63b8ff" stroke="#63b8ff" points="551.81,-24.04 561.13,-19.02 550.71,-17.13 551.81,-24.04"/>
</g>
<!-- Node10&#45;&gt;Node6 -->
<g id="edge12" class="edge">
<title>Node10&#45;&gt;Node6</title>
<path fill="none" stroke="#63b8ff" d="M478.1,-55.65C483.99,-58.22 489.76,-61.16 495,-64.5 514.35,-76.82 510.9,-90.43 531,-101.5 537.79,-105.24 545.23,-108.24 552.84,-110.66"/>
<polygon fill="#63b8ff" stroke="#63b8ff" points="551.96,-114.04 562.54,-113.41 553.88,-107.31 551.96,-114.04"/>
</g>
<!-- Node10&#45;&gt;Node8 -->
<g id="edge13" class="edge">
<title>Node10&#45;&gt;Node8</title>
<path fill="none" stroke="#63b8ff" d="M490.94,-55.52C504.18,-58.53 518.03,-61.65 531,-64.5 542.1,-66.94 553.98,-69.49 565.35,-71.9"/>
<polygon fill="#63b8ff" stroke="#63b8ff" points="564.68,-75.34 575.18,-73.98 566.12,-68.49 564.68,-75.34"/>
</g>
</g>
</svg>
