<?xml version="1.0" encoding="UTF-8" standalone="no"?>
<!DOCTYPE svg PUBLIC "-//W3C//DTD SVG 1.1//EN"
 "http://www.w3.org/Graphics/SVG/1.1/DTD/svg11.dtd">
<!-- Generated by graphviz version 2.43.0 (0)
 -->
<!-- Title: ImGui::DebugBreakButton Pages: 1 -->
<svg width="1004pt" height="1282pt"
 viewBox="0.00 0.00 1004.00 1282.00" xmlns="http://www.w3.org/2000/svg" xmlns:xlink="http://www.w3.org/1999/xlink">
<g id="graph0" class="graph" transform="scale(1 1) rotate(0) translate(4 1278)">
<title>ImGui::DebugBreakButton</title>
<!-- Node1 -->
<g id="node1" class="node">
<title>Node1</title>
<g id="a_node1"><a xlink:title=" ">
<polygon fill="#999999" stroke="#666666" points="144,-334 0,-334 0,-315 144,-315 144,-334"/>
<text text-anchor="middle" x="72" y="-322" font-family="Helvetica,sans-Serif" font-size="10.00">ImGui::DebugBreakButton</text>
</a>
</g>
</g>
<!-- Node2 -->
<g id="node2" class="node">
<title>Node2</title>
<g id="a_node2"><a xlink:href="namespaceImGui.html#a848b9db6cc4a186751c0ecebcaadc33b" target="_top" xlink:title=" ">
<polygon fill="white" stroke="#666666" points="324.5,-529 211.5,-529 211.5,-510 324.5,-510 324.5,-529"/>
<text text-anchor="middle" x="268" y="-517" font-family="Helvetica,sans-Serif" font-size="10.00">ImGui::CalcTextSize</text>
</a>
</g>
</g>
<!-- Node1&#45;&gt;Node2 -->
<g id="edge1" class="edge">
<title>Node1&#45;&gt;Node2</title>
<path fill="none" stroke="#63b8ff" d="M77.05,-334.16C88.91,-361.36 126.16,-439.48 180,-483.5 192.03,-493.34 207.12,-500.83 221.34,-506.37"/>
<polygon fill="#63b8ff" stroke="#63b8ff" points="220.41,-509.75 231,-509.89 222.81,-503.18 220.41,-509.75"/>
</g>
<!-- Node129 -->
<g id="node6" class="node">
<title>Node129</title>
<g id="a_node6"><a xlink:href="namespaceImGui.html#a074427678b3e56378b7dcdefa4c8b5c7" target="_top" xlink:title=" ">
<polygon fill="white" stroke="#666666" points="351.5,-277 184.5,-277 184.5,-258 351.5,-258 351.5,-277"/>
<text text-anchor="middle" x="268" y="-265" font-family="Helvetica,sans-Serif" font-size="10.00">ImGui::ColorConvertHSVtoRGB</text>
</a>
</g>
</g>
<!-- Node1&#45;&gt;Node129 -->
<g id="edge5" class="edge">
<title>Node1&#45;&gt;Node129</title>
<path fill="none" stroke="#63b8ff" d="M103.37,-314.87C124.75,-308.15 154.06,-299.08 180,-291.5 193.42,-287.58 208.06,-283.48 221.44,-279.79"/>
<polygon fill="#63b8ff" stroke="#63b8ff" points="222.66,-283.09 231.38,-277.07 220.81,-276.34 222.66,-283.09"/>
</g>
<!-- Node130 -->
<g id="node7" class="node">
<title>Node130</title>
<g id="a_node7"><a xlink:href="namespaceImGui.html#aaed5ed34aaaa02b61cbb67598c0ad9ca" target="_top" xlink:title=" ">
<polygon fill="white" stroke="#666666" points="351.5,-240 184.5,-240 184.5,-221 351.5,-221 351.5,-240"/>
<text text-anchor="middle" x="268" y="-228" font-family="Helvetica,sans-Serif" font-size="10.00">ImGui::ColorConvertRGBtoHSV</text>
</a>
</g>
</g>
<!-- Node1&#45;&gt;Node130 -->
<g id="edge6" class="edge">
<title>Node1&#45;&gt;Node130</title>
<path fill="none" stroke="#63b8ff" d="M83.66,-314.8C101.96,-298.7 141.15,-266.53 180,-249.5 185.76,-246.97 191.89,-244.77 198.12,-242.85"/>
<polygon fill="#63b8ff" stroke="#63b8ff" points="199.29,-246.16 207.96,-240.07 197.39,-239.42 199.29,-246.16"/>
</g>
<!-- Node132 -->
<g id="node9" class="node">
<title>Node132</title>
<g id="a_node9"><a xlink:href="namespaceImGui.html#a6f2a211be11756216a881936bc6d9aab" target="_top" xlink:title=" ">
<polygon fill="white" stroke="#666666" points="356,-409 180,-409 180,-390 356,-390 356,-409"/>
<text text-anchor="middle" x="268" y="-397" font-family="Helvetica,sans-Serif" font-size="10.00">ImGui::DebugBreakButtonTooltip</text>
</a>
</g>
</g>
<!-- Node1&#45;&gt;Node132 -->
<g id="edge8" class="edge">
<title>Node1&#45;&gt;Node132</title>
<path fill="none" stroke="#63b8ff" d="M97.96,-334.15C132.16,-347.37 193.72,-371.17 232.36,-386.11"/>
<polygon fill="#63b8ff" stroke="#63b8ff" points="231.54,-389.54 242.13,-389.89 234.07,-383.02 231.54,-389.54"/>
</g>
<!-- Node262 -->
<g id="node17" class="node">
<title>Node262</title>
<g id="a_node17"><a xlink:href="namespaceImGui.html#a0de2d9bd347d9866511eb8d014e62556" target="_top" xlink:title=" ">
<polygon fill="white" stroke="#666666" points="745.5,-325 631.5,-325 631.5,-306 745.5,-306 745.5,-325"/>
<text text-anchor="middle" x="688.5" y="-313" font-family="Helvetica,sans-Serif" font-size="10.00">ImGui::GetColorU32</text>
</a>
</g>
</g>
<!-- Node1&#45;&gt;Node262 -->
<g id="edge16" class="edge">
<title>Node1&#45;&gt;Node262</title>
<path fill="none" stroke="#63b8ff" d="M144.12,-316.12C201.45,-309.09 284.09,-298.31 356,-286.5 372.08,-283.86 375.78,-281.06 392,-279.5 470.3,-271.96 492.44,-261.43 569,-279.5 586.41,-283.61 588.13,-291.55 605,-297.5 611.22,-299.7 617.81,-301.68 624.44,-303.45"/>
<polygon fill="#63b8ff" stroke="#63b8ff" points="623.59,-306.84 634.14,-305.9 625.3,-300.06 623.59,-306.84"/>
</g>
<!-- Node229 -->
<g id="node19" class="node">
<title>Node229</title>
<g id="a_node19"><a xlink:href="namespaceImGui.html#ac452417b5004ca16a814a72cff153526" target="_top" xlink:title=" ">
<polygon fill="white" stroke="#666666" points="340,-203 196,-203 196,-184 340,-184 340,-203"/>
<text text-anchor="middle" x="268" y="-191" font-family="Helvetica,sans-Serif" font-size="10.00">ImGui::GetCurrentWindow</text>
</a>
</g>
</g>
<!-- Node1&#45;&gt;Node229 -->
<g id="edge18" class="edge">
<title>Node1&#45;&gt;Node229</title>
<path fill="none" stroke="#63b8ff" d="M79.17,-314.88C93.79,-292.92 132.87,-238.96 180,-212.5 183.97,-210.27 188.19,-208.3 192.53,-206.56"/>
<polygon fill="#63b8ff" stroke="#63b8ff" points="193.96,-209.77 202.21,-203.11 191.61,-203.17 193.96,-209.77"/>
</g>
<!-- Node392 -->
<g id="node20" class="node">
<title>Node392</title>
<g id="a_node20"><a xlink:href="structImGuiWindow.html#afe084e59f7cd4da393ae30f0b4410b16" target="_top" xlink:title=" ">
<polygon fill="white" stroke="#666666" points="327,-166 209,-166 209,-147 327,-147 327,-166"/>
<text text-anchor="middle" x="268" y="-154" font-family="Helvetica,sans-Serif" font-size="10.00">ImGuiWindow::GetID</text>
</a>
</g>
</g>
<!-- Node1&#45;&gt;Node392 -->
<g id="edge19" class="edge">
<title>Node1&#45;&gt;Node392</title>
<path fill="none" stroke="#63b8ff" d="M76.87,-314.97C88.26,-288.24 124.38,-212.06 180,-175.5 185.82,-171.68 192.28,-168.61 198.97,-166.15"/>
<polygon fill="#63b8ff" stroke="#63b8ff" points="200.46,-169.36 208.91,-162.97 198.32,-162.69 200.46,-169.36"/>
</g>
<!-- Node435 -->
<g id="node24" class="node">
<title>Node435</title>
<g id="a_node24"><a xlink:href="namespaceImGui.html#ad838e580972e2c4b3da2b0f60754b662" target="_top" xlink:title=" ">
<polygon fill="white" stroke="#666666" points="339.5,-129 196.5,-129 196.5,-110 339.5,-110 339.5,-129"/>
<text text-anchor="middle" x="268" y="-117" font-family="Helvetica,sans-Serif" font-size="10.00">ImGui::GetStyleColorVec4</text>
</a>
</g>
</g>
<!-- Node1&#45;&gt;Node435 -->
<g id="edge23" class="edge">
<title>Node1&#45;&gt;Node435</title>
<path fill="none" stroke="#63b8ff" d="M75.5,-314.93C84.12,-283.93 115.67,-185.59 180,-138.5 182.54,-136.64 185.22,-134.96 188.01,-133.44"/>
<polygon fill="#63b8ff" stroke="#63b8ff" points="189.68,-136.52 197.24,-129.09 186.7,-130.18 189.68,-136.52"/>
</g>
<!-- Node508 -->
<g id="node25" class="node">
<title>Node508</title>
<g id="a_node25"><a xlink:href="namespaceImGui.html#ab3e095e7757d000686cfa2aff76534d2" target="_top" xlink:title=" ">
<polygon fill="white" stroke="#666666" points="340.5,-74 195.5,-74 195.5,-55 340.5,-55 340.5,-74"/>
<text text-anchor="middle" x="268" y="-62" font-family="Helvetica,sans-Serif" font-size="10.00">ImGui::IsKeyChordPressed</text>
</a>
</g>
</g>
<!-- Node1&#45;&gt;Node508 -->
<g id="edge24" class="edge">
<title>Node1&#45;&gt;Node508</title>
<path fill="none" stroke="#63b8ff" d="M75.11,-314.56C82.87,-280.28 112.95,-165.59 180,-101.5 190.99,-91 205.42,-83.25 219.35,-77.64"/>
<polygon fill="#63b8ff" stroke="#63b8ff" points="220.73,-80.86 228.88,-74.09 218.28,-74.3 220.73,-80.86"/>
</g>
<!-- Node320 -->
<g id="node26" class="node">
<title>Node320</title>
<g id="a_node26"><a xlink:href="namespaceImGui.html#a2d430db9485d0b3d86d51d5436225495" target="_top" xlink:title=" ">
<polygon fill="white" stroke="#666666" points="332,-19 204,-19 204,0 332,0 332,-19"/>
<text text-anchor="middle" x="268" y="-7" font-family="Helvetica,sans-Serif" font-size="10.00">ImGui::IsMouseClicked</text>
</a>
</g>
</g>
<!-- Node1&#45;&gt;Node320 -->
<g id="edge26" class="edge">
<title>Node1&#45;&gt;Node320</title>
<path fill="none" stroke="#63b8ff" d="M73.97,-314.89C78.38,-275.88 100,-127.62 180,-45.5 189.91,-35.32 203.12,-27.91 216.25,-22.55"/>
<polygon fill="#63b8ff" stroke="#63b8ff" points="217.6,-25.78 225.74,-19.01 215.15,-19.23 217.6,-25.78"/>
</g>
<!-- Node236 -->
<g id="node27" class="node">
<title>Node236</title>
<g id="a_node27"><a xlink:href="namespaceImGui.html#a0c2ccafc8d403c02a6590ac21157b9ac" target="_top" xlink:title=" ">
<polygon fill="white" stroke="#666666" points="314.5,-1086 221.5,-1086 221.5,-1067 314.5,-1067 314.5,-1086"/>
<text text-anchor="middle" x="268" y="-1074" font-family="Helvetica,sans-Serif" font-size="10.00">ImGui::ItemAdd</text>
</a>
</g>
</g>
<!-- Node1&#45;&gt;Node236 -->
<g id="edge28" class="edge">
<title>Node1&#45;&gt;Node236</title>
<path fill="none" stroke="#63b8ff" d="M73.61,-334.17C77.41,-391.19 100.47,-688.69 180,-915.5 199.27,-970.45 235.54,-1029.24 254.59,-1058.21"/>
<polygon fill="#63b8ff" stroke="#63b8ff" points="251.89,-1060.46 260.34,-1066.84 257.71,-1056.58 251.89,-1060.46"/>
</g>
<!-- Node189 -->
<g id="node37" class="node">
<title>Node189</title>
<g id="a_node37"><a xlink:href="namespaceImGui.html#a1d7304e335dbe35c4d97b67854111ed2" target="_top" xlink:title=" ">
<polygon fill="white" stroke="#666666" points="330.5,-736 205.5,-736 205.5,-717 330.5,-717 330.5,-736"/>
<text text-anchor="middle" x="268" y="-724" font-family="Helvetica,sans-Serif" font-size="10.00">ImGui::ItemHoverable</text>
</a>
</g>
</g>
<!-- Node1&#45;&gt;Node189 -->
<g id="edge42" class="edge">
<title>Node1&#45;&gt;Node189</title>
<path fill="none" stroke="#63b8ff" d="M77.6,-334.04C102.76,-386.17 223.72,-636.81 257.95,-707.75"/>
<polygon fill="#63b8ff" stroke="#63b8ff" points="254.85,-709.39 262.35,-716.87 261.16,-706.34 254.85,-709.39"/>
</g>
<!-- Node259 -->
<g id="node42" class="node">
<title>Node259</title>
<g id="a_node42"><a xlink:href="namespaceImGui.html#a4b5818a652d943ea54e0cec9fb3943d7" target="_top" xlink:title=" ">
<polygon fill="white" stroke="#666666" points="315.5,-906 220.5,-906 220.5,-887 315.5,-887 315.5,-906"/>
<text text-anchor="middle" x="268" y="-894" font-family="Helvetica,sans-Serif" font-size="10.00">ImGui::ItemSize</text>
</a>
</g>
</g>
<!-- Node1&#45;&gt;Node259 -->
<g id="edge52" class="edge">
<title>Node1&#45;&gt;Node259</title>
<path fill="none" stroke="#63b8ff" d="M74.47,-334.29C81.73,-381.3 116.01,-587.94 180,-745.5 200.57,-796.15 235.45,-850.53 254.18,-878.14"/>
<polygon fill="#63b8ff" stroke="#63b8ff" points="251.54,-880.47 260.09,-886.74 257.31,-876.51 251.54,-880.47"/>
</g>
<!-- Node451 -->
<g id="node44" class="node">
<title>Node451</title>
<g id="a_node44"><a xlink:href="namespaceImGui.html#a6eb97ff501764c37df4ffd99ebadeba7" target="_top" xlink:title=" ">
<polygon fill="white" stroke="#666666" points="539,-307 422,-307 422,-288 539,-288 539,-307"/>
<text text-anchor="middle" x="480.5" y="-295" font-family="Helvetica,sans-Serif" font-size="10.00">ImGui::RenderFrame</text>
</a>
</g>
</g>
<!-- Node1&#45;&gt;Node451 -->
<g id="edge55" class="edge">
<title>Node1&#45;&gt;Node451</title>
<path fill="none" stroke="#63b8ff" d="M144.12,-326.36C201.46,-327.1 284.1,-326.49 356,-319.5 379.02,-317.26 404.19,-313.09 425.76,-308.98"/>
<polygon fill="#63b8ff" stroke="#63b8ff" points="426.58,-312.39 435.72,-307.04 425.24,-305.52 426.58,-312.39"/>
</g>
<!-- Node327 -->
<g id="node46" class="node">
<title>Node327</title>
<g id="a_node46"><a xlink:href="namespaceImGui.html#a2722dcfe26c7f6e8cd522102ef5b7df2" target="_top" xlink:title=" ">
<polygon fill="white" stroke="#666666" points="549,-1256 412,-1256 412,-1237 549,-1237 549,-1256"/>
<text text-anchor="middle" x="480.5" y="-1244" font-family="Helvetica,sans-Serif" font-size="10.00">ImGui::RenderNavCursor</text>
</a>
</g>
</g>
<!-- Node1&#45;&gt;Node327 -->
<g id="edge59" class="edge">
<title>Node1&#45;&gt;Node327</title>
<path fill="none" stroke="#63b8ff" d="M73.24,-334.14C75.35,-413.59 92.93,-960.9 180,-1095.5 240.42,-1188.89 288.77,-1187.08 392,-1228.5 397.44,-1230.68 403.18,-1232.61 409.02,-1234.32"/>
<polygon fill="#63b8ff" stroke="#63b8ff" points="408.32,-1237.76 418.89,-1236.98 410.14,-1231 408.32,-1237.76"/>
</g>
<!-- Node468 -->
<g id="node50" class="node">
<title>Node468</title>
<g id="a_node50"><a xlink:href="namespaceImGui.html#ab362eafae794c7364a6b96ea06f38eb9" target="_top" xlink:title=" ">
<polygon fill="#fff0f0" stroke="red" points="339.5,-474 196.5,-474 196.5,-455 339.5,-455 339.5,-474"/>
<text text-anchor="middle" x="268" y="-462" font-family="Helvetica,sans-Serif" font-size="10.00">ImGui::RenderTextClipped</text>
</a>
</g>
</g>
<!-- Node1&#45;&gt;Node468 -->
<g id="edge67" class="edge">
<title>Node1&#45;&gt;Node468</title>
<path fill="none" stroke="#63b8ff" d="M82.39,-334.13C100.27,-352.15 140.91,-391.55 180,-418.5 197.8,-430.77 219.27,-442.15 236.42,-450.53"/>
<polygon fill="#63b8ff" stroke="#63b8ff" points="234.93,-453.69 245.46,-454.85 237.95,-447.38 234.93,-453.69"/>
</g>
<!-- Node3 -->
<g id="node3" class="node">
<title>Node3</title>
<g id="a_node3"><a xlink:href="structImFont.html#a418146c00c3dee351a411b952cce5175" target="_top" xlink:title=" ">
<polygon fill="#fff0f0" stroke="red" points="751,-605 626,-605 626,-586 751,-586 751,-605"/>
<text text-anchor="middle" x="688.5" y="-593" font-family="Helvetica,sans-Serif" font-size="10.00">ImFont::CalcTextSizeA</text>
</a>
</g>
</g>
<!-- Node2&#45;&gt;Node3 -->
<g id="edge2" class="edge">
<title>Node2&#45;&gt;Node3</title>
<path fill="none" stroke="#63b8ff" d="M321.58,-529.05C398.82,-543.07 542.69,-569.2 625.15,-584.18"/>
<polygon fill="#63b8ff" stroke="#63b8ff" points="624.67,-587.65 635.14,-585.99 625.92,-580.76 624.67,-587.65"/>
</g>
<!-- Node128 -->
<g id="node5" class="node">
<title>Node128</title>
<g id="a_node5"><a xlink:href="namespaceImGui.html#a7671e1dbc803a31b06081b52a771d83f" target="_top" xlink:title=" ">
<polygon fill="white" stroke="#666666" points="559,-529 402,-529 402,-510 559,-510 559,-529"/>
<text text-anchor="middle" x="480.5" y="-517" font-family="Helvetica,sans-Serif" font-size="10.00">ImGui::FindRenderedTextEnd</text>
</a>
</g>
</g>
<!-- Node2&#45;&gt;Node128 -->
<g id="edge4" class="edge">
<title>Node2&#45;&gt;Node128</title>
<path fill="none" stroke="#63b8ff" d="M324.58,-519.5C345.17,-519.5 369.04,-519.5 391.79,-519.5"/>
<polygon fill="#63b8ff" stroke="#63b8ff" points="391.8,-523 401.8,-519.5 391.8,-516 391.8,-523"/>
</g>
<!-- Node70 -->
<g id="node4" class="node">
<title>Node70</title>
<g id="a_node4"><a xlink:href="imgui__internal_8h.html#a7667efd95147d0422f140917c71a9226" target="_top" xlink:title=" ">
<polygon fill="white" stroke="#666666" points="927,-1015 877,-1015 877,-996 927,-996 927,-1015"/>
<text text-anchor="middle" x="902" y="-1003" font-family="Helvetica,sans-Serif" font-size="10.00">ImMax</text>
</a>
</g>
</g>
<!-- Node3&#45;&gt;Node70 -->
<g id="edge3" class="edge">
<title>Node3&#45;&gt;Node70</title>
<path fill="none" stroke="#63b8ff" d="M694.52,-605.23C721.95,-658.4 853.81,-914.02 891.14,-986.38"/>
<polygon fill="#63b8ff" stroke="#63b8ff" points="888.24,-988.4 895.93,-995.68 894.46,-985.19 888.24,-988.4"/>
</g>
<!-- Node131 -->
<g id="node8" class="node">
<title>Node131</title>
<g id="a_node8"><a xlink:href="imgui__internal_8h.html#a026ee5118396c67803e2c0e072cbf9eb" target="_top" xlink:title=" ">
<polygon fill="white" stroke="#666666" points="508.5,-231 452.5,-231 452.5,-212 508.5,-212 508.5,-231"/>
<text text-anchor="middle" x="480.5" y="-219" font-family="Helvetica,sans-Serif" font-size="10.00">ImSwap</text>
</a>
</g>
</g>
<!-- Node130&#45;&gt;Node131 -->
<g id="edge7" class="edge">
<title>Node130&#45;&gt;Node131</title>
<path fill="none" stroke="#63b8ff" d="M351.59,-226.97C382.83,-225.63 416.87,-224.18 441.98,-223.1"/>
<polygon fill="#63b8ff" stroke="#63b8ff" points="442.31,-226.59 452.15,-222.67 442.01,-219.6 442.31,-226.59"/>
</g>
<!-- Node133 -->
<g id="node10" class="node">
<title>Node133</title>
<g id="a_node10"><a xlink:href="namespaceImGui.html#a0557ed1d3f89dcb5d25311bf3099ddf5" target="_top" xlink:title=" ">
<polygon fill="#fff0f0" stroke="red" points="547.5,-492 413.5,-492 413.5,-473 547.5,-473 547.5,-492"/>
<text text-anchor="middle" x="480.5" y="-480" font-family="Helvetica,sans-Serif" font-size="10.00">ImGui::BeginItemTooltip</text>
</a>
</g>
</g>
<!-- Node132&#45;&gt;Node133 -->
<g id="edge9" class="edge">
<title>Node132&#45;&gt;Node133</title>
<path fill="none" stroke="#63b8ff" d="M286.68,-409.01C319.39,-426.59 386.52,-462.53 392,-464.5 398.28,-466.75 404.91,-468.76 411.61,-470.53"/>
<polygon fill="#63b8ff" stroke="#63b8ff" points="410.89,-473.96 421.44,-472.97 412.58,-467.16 410.89,-473.96"/>
</g>
<!-- Node226 -->
<g id="node13" class="node">
<title>Node226</title>
<g id="a_node13"><a xlink:href="namespaceImGui.html#ac8d75c160cfdf43d512f773ca133a1c6" target="_top" xlink:title=" ">
<polygon fill="#fff0f0" stroke="red" points="531.5,-381 429.5,-381 429.5,-362 531.5,-362 531.5,-381"/>
<text text-anchor="middle" x="480.5" y="-369" font-family="Helvetica,sans-Serif" font-size="10.00">ImGui::EndTooltip</text>
</a>
</g>
</g>
<!-- Node132&#45;&gt;Node226 -->
<g id="edge12" class="edge">
<title>Node132&#45;&gt;Node226</title>
<path fill="none" stroke="#63b8ff" d="M340.56,-389.98C366.22,-386.57 394.88,-382.76 419.47,-379.49"/>
<polygon fill="#63b8ff" stroke="#63b8ff" points="419.93,-382.96 429.38,-378.17 419,-376.02 419.93,-382.96"/>
</g>
<!-- Node500 -->
<g id="node14" class="node">
<title>Node500</title>
<g id="a_node14"><a xlink:href="namespaceImGui.html#a191123597a5084d003c8beac7eeb029e" target="_top" xlink:title=" ">
<polygon fill="#fff0f0" stroke="red" points="530,-344 431,-344 431,-325 530,-325 530,-344"/>
<text text-anchor="middle" x="480.5" y="-332" font-family="Helvetica,sans-Serif" font-size="10.00">ImGui::Separator</text>
</a>
</g>
</g>
<!-- Node132&#45;&gt;Node500 -->
<g id="edge13" class="edge">
<title>Node132&#45;&gt;Node500</title>
<path fill="none" stroke="#63b8ff" d="M291.79,-389.85C316.23,-379.76 356.35,-363.98 392,-353.5 401.19,-350.8 411.02,-348.3 420.65,-346.06"/>
<polygon fill="#63b8ff" stroke="#63b8ff" points="421.6,-349.43 430.59,-343.82 420.06,-342.6 421.6,-349.43"/>
</g>
<!-- Node506 -->
<g id="node15" class="node">
<title>Node506</title>
<g id="a_node15"><a xlink:href="namespaceImGui.html#a9e7b83611fe441d54fad2effb4bf4965" target="_top" xlink:title=" ">
<polygon fill="#fff0f0" stroke="red" points="516.5,-455 444.5,-455 444.5,-436 516.5,-436 516.5,-455"/>
<text text-anchor="middle" x="480.5" y="-443" font-family="Helvetica,sans-Serif" font-size="10.00">ImGui::Text</text>
</a>
</g>
</g>
<!-- Node132&#45;&gt;Node506 -->
<g id="edge14" class="edge">
<title>Node132&#45;&gt;Node506</title>
<path fill="none" stroke="#63b8ff" d="M309.95,-409.05C333.85,-414.56 364.6,-421.56 392,-427.5 405.65,-430.46 420.52,-433.56 434.07,-436.34"/>
<polygon fill="#63b8ff" stroke="#63b8ff" points="433.63,-439.82 444.13,-438.4 435.03,-432.97 433.63,-439.82"/>
</g>
<!-- Node507 -->
<g id="node16" class="node">
<title>Node507</title>
<g id="a_node16"><a xlink:href="namespaceImGui.html#a96a5f42789ecc419b2ae8af7b2acc28e" target="_top" xlink:title=" ">
<polygon fill="#fff0f0" stroke="red" points="547.5,-418 413.5,-418 413.5,-399 547.5,-399 547.5,-418"/>
<text text-anchor="middle" x="480.5" y="-406" font-family="Helvetica,sans-Serif" font-size="10.00">ImGui::TextUnformatted</text>
</a>
</g>
</g>
<!-- Node132&#45;&gt;Node507 -->
<g id="edge15" class="edge">
<title>Node132&#45;&gt;Node507</title>
<path fill="none" stroke="#63b8ff" d="M356.14,-403.23C371.67,-403.89 387.74,-404.58 402.95,-405.23"/>
<polygon fill="#63b8ff" stroke="#63b8ff" points="403.18,-408.74 413.32,-405.67 403.48,-401.75 403.18,-408.74"/>
</g>
<!-- Node212 -->
<g id="node11" class="node">
<title>Node212</title>
<g id="a_node11"><a xlink:href="namespaceImGui.html#ac9a400eff3a9561d95e80486c52a660b" target="_top" xlink:title=" ">
<polygon fill="#fff0f0" stroke="red" points="750.5,-567 626.5,-567 626.5,-548 750.5,-548 750.5,-567"/>
<text text-anchor="middle" x="688.5" y="-555" font-family="Helvetica,sans-Serif" font-size="10.00">ImGui::IsItemHovered</text>
</a>
</g>
</g>
<!-- Node133&#45;&gt;Node212 -->
<g id="edge10" class="edge">
<title>Node133&#45;&gt;Node212</title>
<path fill="none" stroke="#63b8ff" d="M534.78,-492.04C546.2,-494.65 558.11,-497.8 569,-501.5 601.95,-512.7 637.82,-530.5 661.36,-543.02"/>
<polygon fill="#63b8ff" stroke="#63b8ff" points="659.89,-546.2 670.35,-547.87 663.21,-540.04 659.89,-546.2"/>
</g>
<!-- Node218 -->
<g id="node12" class="node">
<title>Node218</title>
<g id="a_node12"><a xlink:href="namespaceImGui.html#ab3095c274afa3c3d73e1d5cae190f469" target="_top" xlink:title=" ">
<polygon fill="#fff0f0" stroke="red" points="996,-605 808,-605 808,-586 996,-586 996,-605"/>
<text text-anchor="middle" x="902" y="-593" font-family="Helvetica,sans-Serif" font-size="10.00">ImGui::IsWindowContentHoverable</text>
</a>
</g>
</g>
<!-- Node212&#45;&gt;Node218 -->
<g id="edge11" class="edge">
<title>Node212&#45;&gt;Node218</title>
<path fill="none" stroke="#63b8ff" d="M742.6,-567.04C771.51,-572.23 807.47,-578.7 837.82,-584.15"/>
<polygon fill="#63b8ff" stroke="#63b8ff" points="837.42,-587.63 847.88,-585.96 838.66,-580.74 837.42,-587.63"/>
</g>
<!-- Node263 -->
<g id="node18" class="node">
<title>Node263</title>
<g id="a_node18"><a xlink:href="namespaceImGui.html#abe2691de0b1a71c774ab24cc91564a94" target="_top" xlink:title=" ">
<polygon fill="white" stroke="#666666" points="975,-330.5 829,-330.5 829,-300.5 975,-300.5 975,-330.5"/>
<text text-anchor="start" x="837" y="-318.5" font-family="Helvetica,sans-Serif" font-size="10.00">ImGui::ColorConvertFloat4</text>
<text text-anchor="middle" x="902" y="-307.5" font-family="Helvetica,sans-Serif" font-size="10.00">ToU32</text>
</a>
</g>
</g>
<!-- Node262&#45;&gt;Node263 -->
<g id="edge17" class="edge">
<title>Node262&#45;&gt;Node263</title>
<path fill="none" stroke="#63b8ff" d="M745.62,-315.5C767.9,-315.5 793.97,-315.5 818.32,-315.5"/>
<polygon fill="#63b8ff" stroke="#63b8ff" points="818.64,-319 828.64,-315.5 818.64,-312 818.64,-319"/>
</g>
<!-- Node47 -->
<g id="node21" class="node">
<title>Node47</title>
<g id="a_node21"><a xlink:href="structImVector.html#a2d80e87e81b1b01143c8d8be93e6fde1" target="_top" xlink:title=" ">
<polygon fill="white" stroke="#666666" points="525,-157 436,-157 436,-138 525,-138 525,-157"/>
<text text-anchor="middle" x="480.5" y="-145" font-family="Helvetica,sans-Serif" font-size="10.00">ImVector::back</text>
</a>
</g>
</g>
<!-- Node392&#45;&gt;Node47 -->
<g id="edge20" class="edge">
<title>Node392&#45;&gt;Node47</title>
<path fill="none" stroke="#63b8ff" d="M327.08,-154.02C357.88,-152.7 395.49,-151.09 425.64,-149.8"/>
<polygon fill="#63b8ff" stroke="#63b8ff" points="426.13,-153.29 435.97,-149.36 425.83,-146.29 426.13,-153.29"/>
</g>
<!-- Node393 -->
<g id="node22" class="node">
<title>Node393</title>
<g id="a_node22"><a xlink:href="namespaceImGui.html#a5487269f4cb9fb809fd3e797411ed2d7" target="_top" xlink:title=" ">
<polygon fill="#fff0f0" stroke="red" points="549,-120 412,-120 412,-101 549,-101 549,-120"/>
<text text-anchor="middle" x="480.5" y="-108" font-family="Helvetica,sans-Serif" font-size="10.00">ImGui::DebugHookIdInfo</text>
</a>
</g>
</g>
<!-- Node392&#45;&gt;Node393 -->
<g id="edge21" class="edge">
<title>Node392&#45;&gt;Node393</title>
<path fill="none" stroke="#63b8ff" d="M316.94,-146.95C329.66,-144.31 343.37,-141.38 356,-138.5 372.08,-134.83 375.94,-133.25 392,-129.5 402.32,-127.09 413.36,-124.61 423.99,-122.28"/>
<polygon fill="#63b8ff" stroke="#63b8ff" points="425,-125.64 434.03,-120.09 423.51,-118.8 425,-125.64"/>
</g>
<!-- Node186 -->
<g id="node23" class="node">
<title>Node186</title>
<g id="a_node23"><a xlink:href="imgui_8cpp.html#ab6659b5d67f7a3369e099ce890e12223" target="_top" xlink:title=" ">
<polygon fill="white" stroke="#666666" points="514.5,-194 446.5,-194 446.5,-175 514.5,-175 514.5,-194"/>
<text text-anchor="middle" x="480.5" y="-182" font-family="Helvetica,sans-Serif" font-size="10.00">ImHashStr</text>
</a>
</g>
</g>
<!-- Node392&#45;&gt;Node186 -->
<g id="edge22" class="edge">
<title>Node392&#45;&gt;Node186</title>
<path fill="none" stroke="#63b8ff" d="M327.08,-164.23C361.63,-168.82 404.73,-174.55 436.27,-178.75"/>
<polygon fill="#63b8ff" stroke="#63b8ff" points="436.12,-182.26 446.5,-180.11 437.05,-175.32 436.12,-182.26"/>
</g>
<!-- Node508&#45;&gt;Node508 -->
<g id="edge25" class="edge">
<title>Node508&#45;&gt;Node508</title>
<path fill="none" stroke="#63b8ff" d="M237.79,-74.08C223.09,-82.73 233.16,-92 268,-92 292.49,-92 304.74,-87.42 304.75,-81.69"/>
<polygon fill="#63b8ff" stroke="#63b8ff" points="307.38,-79.38 298.21,-74.08 302.07,-83.95 307.38,-79.38"/>
</g>
<!-- Node320&#45;&gt;Node320 -->
<g id="edge27" class="edge">
<title>Node320&#45;&gt;Node320</title>
<path fill="none" stroke="#63b8ff" d="M237.79,-19.08C223.09,-27.73 233.16,-37 268,-37 292.49,-37 304.74,-32.42 304.75,-26.69"/>
<polygon fill="#63b8ff" stroke="#63b8ff" points="307.38,-24.38 298.21,-19.08 302.07,-28.95 307.38,-24.38"/>
</g>
<!-- Node190 -->
<g id="node28" class="node">
<title>Node190</title>
<g id="a_node28"><a xlink:href="structImDrawList.html#ad96f10a3e954fe0c5b7c96d4e205af7b" target="_top" xlink:title=" ">
<polygon fill="#fff0f0" stroke="red" points="748,-987 629,-987 629,-968 748,-968 748,-987"/>
<text text-anchor="middle" x="688.5" y="-975" font-family="Helvetica,sans-Serif" font-size="10.00">ImDrawList::AddRect</text>
</a>
</g>
</g>
<!-- Node236&#45;&gt;Node190 -->
<g id="edge29" class="edge">
<title>Node236&#45;&gt;Node190</title>
<path fill="none" stroke="#63b8ff" d="M301.64,-1086C359.51,-1100.89 482.18,-1123.44 569,-1076.5 594.7,-1062.61 583.44,-1041.21 605,-1021.5 618.79,-1008.89 636.86,-998.73 652.57,-991.36"/>
<polygon fill="#63b8ff" stroke="#63b8ff" points="654.3,-994.42 661.99,-987.13 651.43,-988.03 654.3,-994.42"/>
</g>
<!-- Node237 -->
<g id="node29" class="node">
<title>Node237</title>
<g id="a_node29"><a xlink:href="namespaceImGui.html#ae8ab0d7dfc90af8e82db3ed9e7829219" target="_top" xlink:title=" ">
<polygon fill="#fff0f0" stroke="red" points="569,-992.5 392,-992.5 392,-962.5 569,-962.5 569,-992.5"/>
<text text-anchor="start" x="400" y="-980.5" font-family="Helvetica,sans-Serif" font-size="10.00">ImGui::DebugLocateItemResolve</text>
<text text-anchor="middle" x="480.5" y="-969.5" font-family="Helvetica,sans-Serif" font-size="10.00">WithLastItem</text>
</a>
</g>
</g>
<!-- Node236&#45;&gt;Node237 -->
<g id="edge30" class="edge">
<title>Node236&#45;&gt;Node237</title>
<path fill="none" stroke="#63b8ff" d="M282.38,-1066.82C304.31,-1051.34 349.72,-1020.88 392,-1002.5 397.48,-1000.12 403.24,-997.9 409.1,-995.84"/>
<polygon fill="#63b8ff" stroke="#63b8ff" points="410.62,-999.02 418.99,-992.53 408.39,-992.38 410.62,-999.02"/>
</g>
<!-- Node219 -->
<g id="node31" class="node">
<title>Node219</title>
<g id="a_node31"><a xlink:href="namespaceImGui.html#ae0b8ea0e06c457316d6aed6c5b2a1c25" target="_top" xlink:title=" ">
<polygon fill="#fff0f0" stroke="red" points="559.5,-1030 401.5,-1030 401.5,-1011 559.5,-1011 559.5,-1030"/>
<text text-anchor="middle" x="480.5" y="-1018" font-family="Helvetica,sans-Serif" font-size="10.00">ImGui::IsMouseHoveringRect</text>
</a>
</g>
</g>
<!-- Node236&#45;&gt;Node219 -->
<g id="edge33" class="edge">
<title>Node236&#45;&gt;Node219</title>
<path fill="none" stroke="#63b8ff" d="M298.64,-1066.87C323.44,-1058.99 359.83,-1047.82 392,-1039.5 401.71,-1036.99 412.08,-1034.54 422.16,-1032.28"/>
<polygon fill="#63b8ff" stroke="#63b8ff" points="423.1,-1035.65 432.11,-1030.08 421.59,-1028.82 423.1,-1035.65"/>
</g>
<!-- Node222 -->
<g id="node33" class="node">
<title>Node222</title>
<g id="a_node33"><a xlink:href="structImRect.html#a0af3bade3781e5e7c6afdf71ccfb0d43" target="_top" xlink:title=" ">
<polygon fill="white" stroke="#666666" points="739,-1049 638,-1049 638,-1030 739,-1030 739,-1049"/>
<text text-anchor="middle" x="688.5" y="-1037" font-family="Helvetica,sans-Serif" font-size="10.00">ImRect::Overlaps</text>
</a>
</g>
</g>
<!-- Node236&#45;&gt;Node222 -->
<g id="edge41" class="edge">
<title>Node236&#45;&gt;Node222</title>
<path fill="none" stroke="#63b8ff" d="M279.84,-1086.18C300.11,-1103.54 345.88,-1139.4 392,-1152.5 467.67,-1173.99 504.19,-1197.08 569,-1152.5 605.86,-1127.15 571.24,-1087.85 605,-1058.5 611.54,-1052.82 619.44,-1048.74 627.73,-1045.84"/>
<polygon fill="#63b8ff" stroke="#63b8ff" points="628.97,-1049.12 637.58,-1042.94 626.99,-1042.41 628.97,-1049.12"/>
</g>
<!-- Node240 -->
<g id="node34" class="node">
<title>Node240</title>
<g id="a_node34"><a xlink:href="namespaceImGui.html#a338deb537666a886cf3ece08c07e9fa9" target="_top" xlink:title=" ">
<polygon fill="#fff0f0" stroke="red" points="555,-1067 406,-1067 406,-1048 555,-1048 555,-1067"/>
<text text-anchor="middle" x="480.5" y="-1055" font-family="Helvetica,sans-Serif" font-size="10.00">ImGui::ItemHandleShortcut</text>
</a>
</g>
</g>
<!-- Node236&#45;&gt;Node240 -->
<g id="edge37" class="edge">
<title>Node236&#45;&gt;Node240</title>
<path fill="none" stroke="#63b8ff" d="M314.68,-1072.38C338.37,-1070.24 368.07,-1067.56 395.7,-1065.06"/>
<polygon fill="#63b8ff" stroke="#63b8ff" points="396.13,-1068.54 405.78,-1064.15 395.5,-1061.57 396.13,-1068.54"/>
</g>
<!-- Node243 -->
<g id="node35" class="node">
<title>Node243</title>
<g id="a_node35"><a xlink:href="namespaceImGui.html#a85a245c78a9f7c351636bdad6e60c488" target="_top" xlink:title=" ">
<polygon fill="white" stroke="#666666" points="536,-1219 425,-1219 425,-1200 536,-1200 536,-1219"/>
<text text-anchor="middle" x="480.5" y="-1207" font-family="Helvetica,sans-Serif" font-size="10.00">ImGui::KeepAliveID</text>
</a>
</g>
</g>
<!-- Node236&#45;&gt;Node243 -->
<g id="edge38" class="edge">
<title>Node236&#45;&gt;Node243</title>
<path fill="none" stroke="#63b8ff" d="M277.15,-1086.28C295.44,-1107.59 342.07,-1158.46 392,-1185.5 400.53,-1190.12 410.02,-1193.91 419.52,-1197"/>
<polygon fill="#63b8ff" stroke="#63b8ff" points="418.79,-1200.43 429.38,-1199.96 420.81,-1193.73 418.79,-1200.43"/>
</g>
<!-- Node244 -->
<g id="node36" class="node">
<title>Node244</title>
<g id="a_node36"><a xlink:href="namespaceImGui.html#aa217c2f0448788f3c064bf828a8f9d8f" target="_top" xlink:title=" ">
<polygon fill="#fff0f0" stroke="red" points="546,-1143 415,-1143 415,-1124 546,-1124 546,-1143"/>
<text text-anchor="middle" x="480.5" y="-1131" font-family="Helvetica,sans-Serif" font-size="10.00">ImGui::NavProcessItem</text>
</a>
</g>
</g>
<!-- Node236&#45;&gt;Node244 -->
<g id="edge39" class="edge">
<title>Node236&#45;&gt;Node244</title>
<path fill="none" stroke="#63b8ff" d="M304.23,-1086.04C339.9,-1095.7 395.21,-1110.68 434.13,-1121.22"/>
<polygon fill="#63b8ff" stroke="#63b8ff" points="433.58,-1124.69 444.15,-1123.93 435.41,-1117.94 433.58,-1124.69"/>
</g>
<!-- Node237&#45;&gt;Node190 -->
<g id="edge31" class="edge">
<title>Node237&#45;&gt;Node190</title>
<path fill="none" stroke="#63b8ff" d="M569.16,-977.5C585.69,-977.5 602.76,-977.5 618.61,-977.5"/>
<polygon fill="#63b8ff" stroke="#63b8ff" points="618.83,-981 628.83,-977.5 618.83,-974 618.83,-981"/>
</g>
<!-- Node199 -->
<g id="node30" class="node">
<title>Node199</title>
<g id="a_node30"><a xlink:href="namespaceImGui.html#a77e1a981b472415e6613a2bd0966d817" target="_top" xlink:title=" ">
<polygon fill="#fff0f0" stroke="red" points="772,-868 605,-868 605,-849 772,-849 772,-868"/>
<text text-anchor="middle" x="688.5" y="-856" font-family="Helvetica,sans-Serif" font-size="10.00">ImGui::GetForegroundDrawList</text>
</a>
</g>
</g>
<!-- Node237&#45;&gt;Node199 -->
<g id="edge32" class="edge">
<title>Node237&#45;&gt;Node199</title>
<path fill="none" stroke="#63b8ff" d="M507.59,-962.43C547.38,-939.44 622.75,-895.9 662.12,-873.16"/>
<polygon fill="#63b8ff" stroke="#63b8ff" points="663.95,-876.15 670.85,-868.12 660.44,-870.09 663.95,-876.15"/>
</g>
<!-- Node220 -->
<g id="node32" class="node">
<title>Node220</title>
<g id="a_node32"><a xlink:href="structImRect.html#ac02d5cf6ce0358aea9ed9df43d368f3f" target="_top" xlink:title=" ">
<polygon fill="#fff0f0" stroke="red" points="737.5,-1086 639.5,-1086 639.5,-1067 737.5,-1067 737.5,-1086"/>
<text text-anchor="middle" x="688.5" y="-1074" font-family="Helvetica,sans-Serif" font-size="10.00">ImRect::ClipWith</text>
</a>
</g>
</g>
<!-- Node219&#45;&gt;Node220 -->
<g id="edge34" class="edge">
<title>Node219&#45;&gt;Node220</title>
<path fill="none" stroke="#63b8ff" d="M536.3,-1030C547.28,-1032.57 558.63,-1035.72 569,-1039.5 586,-1045.7 588.01,-1052.29 605,-1058.5 612.82,-1061.36 621.23,-1063.83 629.58,-1065.95"/>
<polygon fill="#63b8ff" stroke="#63b8ff" points="628.78,-1069.36 639.32,-1068.28 630.41,-1062.55 628.78,-1069.36"/>
</g>
<!-- Node219&#45;&gt;Node222 -->
<g id="edge36" class="edge">
<title>Node219&#45;&gt;Node222</title>
<path fill="none" stroke="#63b8ff" d="M559.67,-1027.71C582.17,-1029.79 606.35,-1032.02 627.56,-1033.97"/>
<polygon fill="#63b8ff" stroke="#63b8ff" points="627.43,-1037.47 637.71,-1034.91 628.07,-1030.5 627.43,-1037.47"/>
</g>
<!-- Node220&#45;&gt;Node70 -->
<g id="edge35" class="edge">
<title>Node220&#45;&gt;Node70</title>
<path fill="none" stroke="#63b8ff" d="M737.86,-1067.43C749.16,-1064.91 761.08,-1061.9 772,-1058.5 807.05,-1047.57 845.83,-1030.99 871.63,-1019.29"/>
<polygon fill="#63b8ff" stroke="#63b8ff" points="873.22,-1022.42 880.85,-1015.07 870.3,-1016.06 873.22,-1022.42"/>
</g>
<!-- Node244&#45;&gt;Node222 -->
<g id="edge40" class="edge">
<title>Node244&#45;&gt;Node222</title>
<path fill="none" stroke="#63b8ff" d="M538.66,-1123.93C549.34,-1120.5 559.97,-1115.83 569,-1109.5 591.71,-1093.56 581.96,-1073.96 605,-1058.5 612.02,-1053.79 620.04,-1050.24 628.27,-1047.56"/>
<polygon fill="#63b8ff" stroke="#63b8ff" points="629.32,-1050.9 637.98,-1044.8 627.4,-1044.17 629.32,-1050.9"/>
</g>
<!-- Node189&#45;&gt;Node212 -->
<g id="edge47" class="edge">
<title>Node189&#45;&gt;Node212</title>
<path fill="none" stroke="#63b8ff" d="M276.81,-717C294.75,-695.83 341.31,-644.7 392,-619.5 463.36,-584.02 554.19,-568.82 616.19,-562.32"/>
<polygon fill="#63b8ff" stroke="#63b8ff" points="616.66,-565.79 626.26,-561.31 615.97,-558.82 616.66,-565.79"/>
</g>
<!-- Node189&#45;&gt;Node218 -->
<g id="edge49" class="edge">
<title>Node189&#45;&gt;Node218</title>
<path fill="none" stroke="#63b8ff" d="M281.04,-716.88C302.12,-700.65 347.67,-668.14 392,-653.5 553.21,-600.26 603.53,-635.54 772,-614.5 790.85,-612.15 811.2,-609.29 830.05,-606.52"/>
<polygon fill="#63b8ff" stroke="#63b8ff" points="830.67,-609.97 840.05,-605.04 829.64,-603.04 830.67,-609.97"/>
</g>
<!-- Node189&#45;&gt;Node190 -->
<g id="edge43" class="edge">
<title>Node189&#45;&gt;Node190</title>
<path fill="none" stroke="#63b8ff" d="M277.16,-736.17C295.46,-757.21 342.11,-807.37 392,-833.5 463.9,-871.16 496.72,-841.56 569,-878.5 610.88,-899.91 651.02,-938.47 672.13,-960.62"/>
<polygon fill="#63b8ff" stroke="#63b8ff" points="669.62,-963.07 679.01,-967.98 674.73,-958.29 669.62,-963.07"/>
</g>
<!-- Node189&#45;&gt;Node199 -->
<g id="edge45" class="edge">
<title>Node189&#45;&gt;Node199</title>
<path fill="none" stroke="#63b8ff" d="M281.48,-736.23C302.85,-752.39 348.38,-784.63 392,-801.5 431.62,-816.82 540.12,-835.68 614.02,-847.39"/>
<polygon fill="#63b8ff" stroke="#63b8ff" points="613.79,-850.9 624.21,-849 614.88,-843.99 613.79,-850.9"/>
</g>
<!-- Node189&#45;&gt;Node219 -->
<g id="edge48" class="edge">
<title>Node189&#45;&gt;Node219</title>
<path fill="none" stroke="#63b8ff" d="M275.54,-736.04C291.29,-759.41 331.83,-821.7 356,-878.5 378.3,-930.91 350.32,-962.68 392,-1001.5 393.54,-1002.93 395.15,-1004.26 396.84,-1005.5"/>
<polygon fill="#63b8ff" stroke="#63b8ff" points="395.42,-1008.74 405.78,-1010.97 399.07,-1002.77 395.42,-1008.74"/>
</g>
<!-- Node169 -->
<g id="node38" class="node">
<title>Node169</title>
<g id="a_node38"><a xlink:href="namespaceImGui.html#a17ff60ad1e2669130ac38a04d16eb354" target="_top" xlink:title=" ">
<polygon fill="#fff0f0" stroke="red" points="540,-792 421,-792 421,-773 540,-773 540,-792"/>
<text text-anchor="middle" x="480.5" y="-780" font-family="Helvetica,sans-Serif" font-size="10.00">ImGui::ClearActiveID</text>
</a>
</g>
</g>
<!-- Node189&#45;&gt;Node169 -->
<g id="edge44" class="edge">
<title>Node189&#45;&gt;Node169</title>
<path fill="none" stroke="#63b8ff" d="M297.11,-736.04C321.9,-744.24 359.09,-756.05 392,-764.5 400.72,-766.74 409.97,-768.88 419.08,-770.87"/>
<polygon fill="#63b8ff" stroke="#63b8ff" points="418.36,-774.29 428.87,-772.95 419.82,-767.45 418.36,-774.29"/>
</g>
<!-- Node204 -->
<g id="node39" class="node">
<title>Node204</title>
<g id="a_node39"><a xlink:href="namespaceImGui.html#a4711f04593c21dee2ecb1f736c4da981" target="_top" xlink:title=" ">
<polygon fill="#fff0f0" stroke="red" points="553,-755 408,-755 408,-736 553,-736 553,-755"/>
<text text-anchor="middle" x="480.5" y="-743" font-family="Helvetica,sans-Serif" font-size="10.00">ImGui::GetKeyChordName</text>
</a>
</g>
</g>
<!-- Node189&#45;&gt;Node204 -->
<g id="edge46" class="edge">
<title>Node189&#45;&gt;Node204</title>
<path fill="none" stroke="#63b8ff" d="M330.73,-732.07C351.67,-733.96 375.39,-736.1 397.65,-738.11"/>
<polygon fill="#63b8ff" stroke="#63b8ff" points="397.48,-741.61 407.75,-739.02 398.11,-734.64 397.48,-741.61"/>
</g>
<!-- Node223 -->
<g id="node40" class="node">
<title>Node223</title>
<g id="a_node40"><a xlink:href="namespaceImGui.html#aba1f0c75d6f98702e6b02eb1bc30d915" target="_top" xlink:title=" ">
<polygon fill="white" stroke="#666666" points="540,-718 421,-718 421,-699 540,-699 540,-718"/>
<text text-anchor="middle" x="480.5" y="-706" font-family="Helvetica,sans-Serif" font-size="10.00">ImGui::SetHoveredID</text>
</a>
</g>
</g>
<!-- Node189&#45;&gt;Node223 -->
<g id="edge50" class="edge">
<title>Node189&#45;&gt;Node223</title>
<path fill="none" stroke="#63b8ff" d="M330.73,-721.22C355.8,-719.08 384.85,-716.59 410.6,-714.39"/>
<polygon fill="#63b8ff" stroke="#63b8ff" points="410.99,-717.87 420.66,-713.53 410.4,-710.9 410.99,-717.87"/>
</g>
<!-- Node224 -->
<g id="node41" class="node">
<title>Node224</title>
<g id="a_node41"><a xlink:href="namespaceImGui.html#a313073fa01b8a9791f241ef93091ce92" target="_top" xlink:title=" ">
<polygon fill="#fff0f0" stroke="red" points="530.5,-681 430.5,-681 430.5,-662 530.5,-662 530.5,-681"/>
<text text-anchor="middle" x="480.5" y="-669" font-family="Helvetica,sans-Serif" font-size="10.00">ImGui::SetTooltip</text>
</a>
</g>
</g>
<!-- Node189&#45;&gt;Node224 -->
<g id="edge51" class="edge">
<title>Node189&#45;&gt;Node224</title>
<path fill="none" stroke="#63b8ff" d="M299.42,-716.94C324.21,-709.31 360.2,-698.6 392,-690.5 401.83,-688 412.33,-685.54 422.53,-683.26"/>
<polygon fill="#63b8ff" stroke="#63b8ff" points="423.57,-686.61 432.58,-681.05 422.07,-679.78 423.57,-686.61"/>
</g>
<!-- Node259&#45;&gt;Node70 -->
<g id="edge53" class="edge">
<title>Node259&#45;&gt;Node70</title>
<path fill="none" stroke="#63b8ff" d="M315.67,-904.14C338.63,-907.78 366.73,-912.09 392,-915.5 560.49,-938.26 606.42,-920.92 772,-959.5 806.29,-967.49 844.07,-981.63 869.84,-992.13"/>
<polygon fill="#63b8ff" stroke="#63b8ff" points="868.51,-995.37 879.09,-995.95 871.18,-988.9 868.51,-995.37"/>
</g>
<!-- Node260 -->
<g id="node43" class="node">
<title>Node260</title>
<g id="a_node43"><a xlink:href="namespaceImGui.html#addd433eb3aae59119e341e80db474f66" target="_top" xlink:title=" ">
<polygon fill="white" stroke="#666666" points="530.5,-906 430.5,-906 430.5,-887 530.5,-887 530.5,-906"/>
<text text-anchor="middle" x="480.5" y="-894" font-family="Helvetica,sans-Serif" font-size="10.00">ImGui::SameLine</text>
</a>
</g>
</g>
<!-- Node259&#45;&gt;Node260 -->
<g id="edge54" class="edge">
<title>Node259&#45;&gt;Node260</title>
<path fill="none" stroke="#63b8ff" d="M315.72,-896.5C346.56,-896.5 387.24,-896.5 420.34,-896.5"/>
<polygon fill="#63b8ff" stroke="#63b8ff" points="420.35,-900 430.35,-896.5 420.35,-893 420.35,-900"/>
</g>
<!-- Node451&#45;&gt;Node262 -->
<g id="edge58" class="edge">
<title>Node451&#45;&gt;Node262</title>
<path fill="none" stroke="#63b8ff" d="M539.16,-302.54C564.59,-304.76 594.62,-307.38 620.99,-309.69"/>
<polygon fill="#63b8ff" stroke="#63b8ff" points="621.01,-313.2 631.28,-310.59 621.62,-306.23 621.01,-313.2"/>
</g>
<!-- Node451&#45;&gt;Node190 -->
<g id="edge56" class="edge">
<title>Node451&#45;&gt;Node190</title>
<path fill="none" stroke="#63b8ff" d="M539.01,-299.19C550.45,-302.23 561.29,-307.54 569,-316.5 650.48,-411.19 559.02,-761.35 605,-877.5 618.54,-911.71 648.43,-943.01 668.27,-961.16"/>
<polygon fill="#63b8ff" stroke="#63b8ff" points="666.03,-963.85 675.82,-967.89 670.68,-958.63 666.03,-963.85"/>
</g>
<!-- Node249 -->
<g id="node45" class="node">
<title>Node249</title>
<g id="a_node45"><a xlink:href="structImDrawList.html#a6b16ab764160b0251d2e7b3bd08c1ffc" target="_top" xlink:title=" ">
<polygon fill="#fff0f0" stroke="red" points="761,-288 616,-288 616,-269 761,-269 761,-288"/>
<text text-anchor="middle" x="688.5" y="-276" font-family="Helvetica,sans-Serif" font-size="10.00">ImDrawList::AddRectFilled</text>
</a>
</g>
</g>
<!-- Node451&#45;&gt;Node249 -->
<g id="edge57" class="edge">
<title>Node451&#45;&gt;Node249</title>
<path fill="none" stroke="#63b8ff" d="M539.16,-292.18C559.8,-290.28 583.48,-288.09 605.77,-286.04"/>
<polygon fill="#63b8ff" stroke="#63b8ff" points="606.26,-289.51 615.9,-285.1 605.62,-282.54 606.26,-289.51"/>
</g>
<!-- Node327&#45;&gt;Node262 -->
<g id="edge63" class="edge">
<title>Node327&#45;&gt;Node262</title>
<path fill="none" stroke="#63b8ff" d="M549.19,-1242.25C556.75,-1239.16 563.64,-1234.73 569,-1228.5 618.97,-1170.37 589.58,-614.59 605,-539.5 621.23,-460.46 660.49,-372.08 678.37,-334.29"/>
<polygon fill="#63b8ff" stroke="#63b8ff" points="681.64,-335.55 682.8,-325.02 675.33,-332.53 681.64,-335.55"/>
</g>
<!-- Node327&#45;&gt;Node190 -->
<g id="edge60" class="edge">
<title>Node327&#45;&gt;Node190</title>
<path fill="none" stroke="#63b8ff" d="M549.37,-1241.28C556.71,-1238.31 563.49,-1234.18 569,-1228.5 634.01,-1161.46 550.25,-1097.15 605,-1021.5 615.01,-1007.67 630.72,-997.78 645.76,-990.92"/>
<polygon fill="#63b8ff" stroke="#63b8ff" points="647.12,-994.15 654.97,-987.04 644.4,-987.69 647.12,-994.15"/>
</g>
<!-- Node327&#45;&gt;Node220 -->
<g id="edge61" class="edge">
<title>Node327&#45;&gt;Node220</title>
<path fill="none" stroke="#63b8ff" d="M549.26,-1239.89C556.44,-1237.13 563.22,-1233.43 569,-1228.5 603.37,-1199.21 577.17,-1169.05 605,-1133.5 619.13,-1115.46 640.54,-1100.9 658,-1091.01"/>
<polygon fill="#63b8ff" stroke="#63b8ff" points="660.11,-1093.85 667.23,-1086.01 656.77,-1087.7 660.11,-1093.85"/>
</g>
<!-- Node148 -->
<g id="node47" class="node">
<title>Node148</title>
<g id="a_node47"><a xlink:href="structImRect.html#ac583156fd0e9306181fff5d120b262ea" target="_top" xlink:title=" ">
<polygon fill="white" stroke="#666666" points="738.5,-1237 638.5,-1237 638.5,-1218 738.5,-1218 738.5,-1237"/>
<text text-anchor="middle" x="688.5" y="-1225" font-family="Helvetica,sans-Serif" font-size="10.00">ImRect::Contains</text>
</a>
</g>
</g>
<!-- Node327&#45;&gt;Node148 -->
<g id="edge62" class="edge">
<title>Node327&#45;&gt;Node148</title>
<path fill="none" stroke="#63b8ff" d="M549.24,-1240.25C574.8,-1237.89 603.65,-1235.23 628.37,-1232.95"/>
<polygon fill="#63b8ff" stroke="#63b8ff" points="628.69,-1236.44 638.33,-1232.04 628.05,-1229.47 628.69,-1236.44"/>
</g>
<!-- Node290 -->
<g id="node48" class="node">
<title>Node290</title>
<g id="a_node48"><a xlink:href="structImDrawList.html#a44f40c59ca755f559020f5a7fa81103a" target="_top" xlink:title=" ">
<polygon fill="#fff0f0" stroke="red" points="757,-1274 620,-1274 620,-1255 757,-1255 757,-1274"/>
<text text-anchor="middle" x="688.5" y="-1262" font-family="Helvetica,sans-Serif" font-size="10.00">ImDrawList::PopClipRect</text>
</a>
</g>
</g>
<!-- Node327&#45;&gt;Node290 -->
<g id="edge64" class="edge">
<title>Node327&#45;&gt;Node290</title>
<path fill="none" stroke="#63b8ff" d="M549.24,-1252.42C568.51,-1254.1 589.66,-1255.95 609.49,-1257.68"/>
<polygon fill="#63b8ff" stroke="#63b8ff" points="609.46,-1261.19 619.72,-1258.58 610.06,-1254.22 609.46,-1261.19"/>
</g>
<!-- Node201 -->
<g id="node49" class="node">
<title>Node201</title>
<g id="a_node49"><a xlink:href="structImDrawList.html#a608a9d9a83715ba87dced8321ed64329" target="_top" xlink:title=" ">
<polygon fill="#fff0f0" stroke="red" points="759.5,-1161 617.5,-1161 617.5,-1142 759.5,-1142 759.5,-1161"/>
<text text-anchor="middle" x="688.5" y="-1149" font-family="Helvetica,sans-Serif" font-size="10.00">ImDrawList::PushClipRect</text>
</a>
</g>
</g>
<!-- Node327&#45;&gt;Node201 -->
<g id="edge65" class="edge">
<title>Node327&#45;&gt;Node201</title>
<path fill="none" stroke="#63b8ff" d="M542.63,-1236.98C551.64,-1234.71 560.68,-1231.92 569,-1228.5 588.87,-1220.34 636.97,-1187.34 665.41,-1167.28"/>
<polygon fill="#63b8ff" stroke="#63b8ff" points="667.75,-1169.91 673.89,-1161.27 663.71,-1164.2 667.75,-1169.91"/>
</g>
<!-- Node201&#45;&gt;Node70 -->
<g id="edge66" class="edge">
<title>Node201&#45;&gt;Node70</title>
<path fill="none" stroke="#63b8ff" d="M703.85,-1141.84C720.33,-1130.73 748.19,-1111.89 772,-1095.5 809.83,-1069.47 853.63,-1038.8 879.23,-1020.82"/>
<polygon fill="#63b8ff" stroke="#63b8ff" points="881.31,-1023.63 887.48,-1015.02 877.29,-1017.9 881.31,-1023.63"/>
</g>
<!-- Node468&#45;&gt;Node128 -->
<g id="edge68" class="edge">
<title>Node468&#45;&gt;Node128</title>
<path fill="none" stroke="#63b8ff" d="M298.12,-474.06C322.92,-482.01 359.57,-493.3 392,-501.5 400.83,-503.73 410.22,-505.89 419.44,-507.89"/>
<polygon fill="#63b8ff" stroke="#63b8ff" points="418.84,-511.34 429.35,-509.99 420.29,-504.49 418.84,-511.34"/>
</g>
</g>
</svg>
