<?xml version="1.0" encoding="UTF-8" standalone="no"?>
<!DOCTYPE svg PUBLIC "-//W3C//DTD SVG 1.1//EN"
 "http://www.w3.org/Graphics/SVG/1.1/DTD/svg11.dtd">
<!-- Generated by graphviz version 2.43.0 (0)
 -->
<!-- Title: ImGui::Combo Pages: 1 -->
<svg width="359pt" height="45pt"
 viewBox="0.00 0.00 359.00 45.00" xmlns="http://www.w3.org/2000/svg" xmlns:xlink="http://www.w3.org/1999/xlink">
<g id="graph0" class="graph" transform="scale(1 1) rotate(0) translate(4 41)">
<title>ImGui::Combo</title>
<!-- Node1 -->
<g id="node1" class="node">
<title>Node1</title>
<g id="a_node1"><a xlink:title=" ">
<polygon fill="#999999" stroke="#666666" points="86,-19 0,-19 0,0 86,0 86,-19"/>
<text text-anchor="middle" x="43" y="-7" font-family="Helvetica,sans-Serif" font-size="10.00">ImGui::Combo</text>
</a>
</g>
</g>
<!-- Node2 -->
<g id="node2" class="node">
<title>Node2</title>
<g id="a_node2"><a xlink:href="namespaceImGui.html#aa2979368da5b9e98d368449b36d166b2" target="_top" xlink:title=" ">
<polygon fill="white" stroke="#666666" points="208,-19 122,-19 122,0 208,0 208,-19"/>
<text text-anchor="middle" x="165" y="-7" font-family="Helvetica,sans-Serif" font-size="10.00">ImGui::Combo</text>
</a>
</g>
</g>
<!-- Node1&#45;&gt;Node2 -->
<g id="edge1" class="edge">
<title>Node1&#45;&gt;Node2</title>
<path fill="none" stroke="#63b8ff" d="M86.31,-9.5C94.46,-9.5 103.1,-9.5 111.53,-9.5"/>
<polygon fill="#63b8ff" stroke="#63b8ff" points="111.67,-13 121.67,-9.5 111.67,-6 111.67,-13"/>
</g>
<!-- Node2&#45;&gt;Node2 -->
<g id="edge2" class="edge">
<title>Node2&#45;&gt;Node2</title>
<path fill="none" stroke="#63b8ff" d="M146.2,-19.08C137.05,-27.73 143.32,-37 165,-37 178.55,-37 186.08,-33.38 187.59,-28.55"/>
<polygon fill="#63b8ff" stroke="#63b8ff" points="190.77,-27.07 183.8,-19.08 184.27,-29.67 190.77,-27.07"/>
</g>
<!-- Node3 -->
<g id="node3" class="node">
<title>Node3</title>
<g id="a_node3"><a xlink:href="imgui__widgets_8cpp.html#ad8f314afb60770d322bd454ec21e6c15" target="_top" xlink:title=" ">
<polygon fill="white" stroke="#666666" points="351,-19 244,-19 244,0 351,0 351,-19"/>
<text text-anchor="middle" x="297.5" y="-7" font-family="Helvetica,sans-Serif" font-size="10.00">Items_ArrayGetter</text>
</a>
</g>
</g>
<!-- Node2&#45;&gt;Node3 -->
<g id="edge3" class="edge">
<title>Node2&#45;&gt;Node3</title>
<path fill="none" stroke="#63b8ff" d="M208.01,-9.5C216.15,-9.5 224.84,-9.5 233.49,-9.5"/>
<polygon fill="#63b8ff" stroke="#63b8ff" points="233.57,-13 243.57,-9.5 233.57,-6 233.57,-13"/>
</g>
</g>
</svg>
