<?xml version="1.0" encoding="UTF-8" standalone="no"?>
<!DOCTYPE svg PUBLIC "-//W3C//DTD SVG 1.1//EN"
 "http://www.w3.org/Graphics/SVG/1.1/DTD/svg11.dtd">
<!-- Generated by graphviz version 2.43.0 (0)
 -->
<!-- Title: ImGui::IsMouseDown Pages: 1 -->
<svg width="689pt" height="92pt"
 viewBox="0.00 0.00 689.00 91.50" xmlns="http://www.w3.org/2000/svg" xmlns:xlink="http://www.w3.org/1999/xlink">
<g id="graph0" class="graph" transform="scale(1 1) rotate(0) translate(4 87.5)">
<title>ImGui::IsMouseDown</title>
<!-- Node1 -->
<g id="node1" class="node">
<title>Node1</title>
<g id="a_node1"><a xlink:title=" ">
<polygon fill="#999999" stroke="#666666" points="120,-55 0,-55 0,-36 120,-36 120,-55"/>
<text text-anchor="middle" x="60" y="-43" font-family="Helvetica,sans-Serif" font-size="10.00">ImGui::IsMouseDown</text>
</a>
</g>
</g>
<!-- Node2 -->
<g id="node2" class="node">
<title>Node2</title>
<g id="a_node2"><a xlink:href="namespaceImGui.html#a25689086f813c9714c4bbd4e3d5e669c" target="_top" xlink:title=" ">
<polygon fill="white" stroke="#666666" points="301,-74 156,-74 156,-55 301,-55 301,-74"/>
<text text-anchor="middle" x="228.5" y="-62" font-family="Helvetica,sans-Serif" font-size="10.00">ImGui::MouseButtonToKey</text>
</a>
</g>
</g>
<!-- Node1&#45;&gt;Node2 -->
<g id="edge1" class="edge">
<title>Node1&#45;&gt;Node2</title>
<path fill="none" stroke="#63b8ff" d="M120.17,-52.25C128.5,-53.2 137.18,-54.19 145.84,-55.18"/>
<polygon fill="#63b8ff" stroke="#63b8ff" points="145.64,-58.68 155.98,-56.34 146.44,-51.73 145.64,-58.68"/>
</g>
<!-- Node3 -->
<g id="node3" class="node">
<title>Node3</title>
<g id="a_node3"><a xlink:href="namespaceImGui.html#ad12c5be2f1c691e4e6656524248824fb" target="_top" xlink:title=" ">
<polygon fill="white" stroke="#666666" points="289,-37 168,-37 168,-18 289,-18 289,-37"/>
<text text-anchor="middle" x="228.5" y="-25" font-family="Helvetica,sans-Serif" font-size="10.00">ImGui::TestKeyOwner</text>
</a>
</g>
</g>
<!-- Node1&#45;&gt;Node3 -->
<g id="edge2" class="edge">
<title>Node1&#45;&gt;Node3</title>
<path fill="none" stroke="#63b8ff" d="M120.17,-39.1C132.41,-37.78 145.42,-36.37 157.99,-35.01"/>
<polygon fill="#63b8ff" stroke="#63b8ff" points="158.39,-38.49 167.96,-33.94 157.64,-31.53 158.39,-38.49"/>
</g>
<!-- Node4 -->
<g id="node4" class="node">
<title>Node4</title>
<g id="a_node4"><a xlink:href="namespaceImGui.html#a05ada04953ac91c563334fb0fe934e03" target="_top" xlink:title=" ">
<polygon fill="white" stroke="#666666" points="481,-56 339,-56 339,-37 481,-37 481,-56"/>
<text text-anchor="middle" x="410" y="-44" font-family="Helvetica,sans-Serif" font-size="10.00">ImGui::GetKeyOwnerData</text>
</a>
</g>
</g>
<!-- Node3&#45;&gt;Node4 -->
<g id="edge3" class="edge">
<title>Node3&#45;&gt;Node4</title>
<path fill="none" stroke="#63b8ff" d="M289.27,-33.83C301.95,-35.17 315.53,-36.61 328.83,-38.01"/>
<polygon fill="#63b8ff" stroke="#63b8ff" points="328.6,-41.51 338.92,-39.08 329.34,-34.55 328.6,-41.51"/>
</g>
<!-- Node7 -->
<g id="node7" class="node">
<title>Node7</title>
<g id="a_node7"><a xlink:href="namespaceImGui.html#ad97807fb804a4d11866e5bca7d08d59c" target="_top" xlink:title=" ">
<polygon fill="white" stroke="#666666" points="483,-19 337,-19 337,0 483,0 483,-19"/>
<text text-anchor="middle" x="410" y="-7" font-family="Helvetica,sans-Serif" font-size="10.00">ImGui::IsNamedKeyOrMod</text>
</a>
</g>
</g>
<!-- Node3&#45;&gt;Node7 -->
<g id="edge6" class="edge">
<title>Node3&#45;&gt;Node7</title>
<path fill="none" stroke="#63b8ff" d="M289.27,-21.51C301.26,-20.3 314.06,-19.02 326.66,-17.76"/>
<polygon fill="#63b8ff" stroke="#63b8ff" points="327.1,-21.23 336.7,-16.75 326.4,-14.27 327.1,-21.23"/>
</g>
<!-- Node5 -->
<g id="node5" class="node">
<title>Node5</title>
<g id="a_node5"><a xlink:href="namespaceImGui.html#ad540a8f07e5834f77f76a84626cdc70e" target="_top" xlink:title=" ">
<polygon fill="white" stroke="#666666" points="681,-83.5 519,-83.5 519,-53.5 681,-53.5 681,-83.5"/>
<text text-anchor="start" x="527" y="-71.5" font-family="Helvetica,sans-Serif" font-size="10.00">ImGui::ConvertSingleModFlag</text>
<text text-anchor="middle" x="600" y="-60.5" font-family="Helvetica,sans-Serif" font-size="10.00">ToKey</text>
</a>
</g>
</g>
<!-- Node4&#45;&gt;Node5 -->
<g id="edge4" class="edge">
<title>Node4&#45;&gt;Node5</title>
<path fill="none" stroke="#63b8ff" d="M481,-54.69C490.05,-55.75 499.42,-56.85 508.73,-57.94"/>
<polygon fill="#63b8ff" stroke="#63b8ff" points="508.46,-61.43 518.8,-59.12 509.28,-54.48 508.46,-61.43"/>
</g>
<!-- Node6 -->
<g id="node6" class="node">
<title>Node6</title>
<g id="a_node6"><a xlink:href="namespaceImGui.html#a1e6a2ce7696a25d0dd0cf318e3b48a33" target="_top" xlink:title=" ">
<polygon fill="white" stroke="#666666" points="656.5,-35 543.5,-35 543.5,-16 656.5,-16 656.5,-35"/>
<text text-anchor="middle" x="600" y="-23" font-family="Helvetica,sans-Serif" font-size="10.00">ImGui::IsNamedKey</text>
</a>
</g>
</g>
<!-- Node4&#45;&gt;Node6 -->
<g id="edge5" class="edge">
<title>Node4&#45;&gt;Node6</title>
<path fill="none" stroke="#63b8ff" d="M481,-38.68C498.04,-36.78 516.19,-34.75 533.03,-32.87"/>
<polygon fill="#63b8ff" stroke="#63b8ff" points="533.77,-36.31 543.32,-31.72 532.99,-29.35 533.77,-36.31"/>
</g>
</g>
</svg>
