<?xml version="1.0" encoding="UTF-8" standalone="no"?>
<!DOCTYPE svg PUBLIC "-//W3C//DTD SVG 1.1//EN"
 "http://www.w3.org/Graphics/SVG/1.1/DTD/svg11.dtd">
<!-- Generated by graphviz version 2.43.0 (0)
 -->
<!-- Title: ImGui::BeginMenuBar Pages: 1 -->
<svg width="1252pt" height="403pt"
 viewBox="0.00 0.00 1252.00 403.00" xmlns="http://www.w3.org/2000/svg" xmlns:xlink="http://www.w3.org/1999/xlink">
<g id="graph0" class="graph" transform="scale(1 1) rotate(0) translate(4 399)">
<title>ImGui::BeginMenuBar</title>
<!-- Node1 -->
<g id="node1" class="node">
<title>Node1</title>
<g id="a_node1"><a xlink:title=" ">
<polygon fill="#999999" stroke="#666666" points="123,-169 0,-169 0,-150 123,-150 123,-169"/>
<text text-anchor="middle" x="61.5" y="-157" font-family="Helvetica,sans-Serif" font-size="10.00">ImGui::BeginMenuBar</text>
</a>
</g>
</g>
<!-- Node2 -->
<g id="node2" class="node">
<title>Node2</title>
<g id="a_node2"><a xlink:href="namespaceImGui.html#ae14be3a3bec106de7c91aaa2a9a558a1" target="_top" xlink:title=" ">
<polygon fill="white" stroke="#666666" points="335,-169 159,-169 159,-150 335,-150 335,-169"/>
<text text-anchor="middle" x="247" y="-157" font-family="Helvetica,sans-Serif" font-size="10.00">ImGui::AlignTextToFramePadding</text>
</a>
</g>
</g>
<!-- Node1&#45;&gt;Node2 -->
<g id="edge1" class="edge">
<title>Node1&#45;&gt;Node2</title>
<path fill="none" stroke="#63b8ff" d="M123.09,-159.5C131.35,-159.5 139.98,-159.5 148.68,-159.5"/>
<polygon fill="#63b8ff" stroke="#63b8ff" points="148.91,-163 158.91,-159.5 148.91,-156 148.91,-163"/>
</g>
<!-- Node3 -->
<g id="node3" class="node">
<title>Node3</title>
<g id="a_node3"><a xlink:href="namespaceImGui.html#ac452417b5004ca16a814a72cff153526" target="_top" xlink:title=" ">
<polygon fill="white" stroke="#666666" points="515,-319 371,-319 371,-300 515,-300 515,-319"/>
<text text-anchor="middle" x="443" y="-307" font-family="Helvetica,sans-Serif" font-size="10.00">ImGui::GetCurrentWindow</text>
</a>
</g>
</g>
<!-- Node1&#45;&gt;Node3 -->
<g id="edge12" class="edge">
<title>Node1&#45;&gt;Node3</title>
<path fill="none" stroke="#63b8ff" d="M68.3,-169.23C81.45,-190.35 115.8,-240.35 159,-263.5 221.32,-296.9 301.6,-307.39 360.73,-310.12"/>
<polygon fill="#63b8ff" stroke="#63b8ff" points="360.64,-313.62 370.77,-310.52 360.92,-306.63 360.64,-313.62"/>
</g>
<!-- Node4 -->
<g id="node4" class="node">
<title>Node4</title>
<g id="a_node4"><a xlink:href="imgui__internal_8h.html#a7667efd95147d0422f140917c71a9226" target="_top" xlink:title=" ">
<polygon fill="white" stroke="#666666" points="666,-150 616,-150 616,-131 666,-131 666,-150"/>
<text text-anchor="middle" x="641" y="-138" font-family="Helvetica,sans-Serif" font-size="10.00">ImMax</text>
</a>
</g>
</g>
<!-- Node1&#45;&gt;Node4 -->
<g id="edge14" class="edge">
<title>Node1&#45;&gt;Node4</title>
<path fill="none" stroke="#63b8ff" d="M104.54,-149.93C121.38,-146.56 141.01,-143.18 159,-141.5 325.76,-125.91 526.46,-134.13 605.56,-138.43"/>
<polygon fill="#63b8ff" stroke="#63b8ff" points="605.72,-141.94 615.9,-139 606.11,-134.95 605.72,-141.94"/>
</g>
<!-- Node5 -->
<g id="node5" class="node">
<title>Node5</title>
<g id="a_node5"><a xlink:href="namespaceImGui.html#a42407e196b7ed2a8755bff28aae9805f" target="_top" xlink:title=" ">
<polygon fill="white" stroke="#666666" points="497.5,-395 388.5,-395 388.5,-376 497.5,-376 497.5,-395"/>
<text text-anchor="middle" x="443" y="-383" font-family="Helvetica,sans-Serif" font-size="10.00">ImGui::BeginGroup</text>
</a>
</g>
</g>
<!-- Node1&#45;&gt;Node5 -->
<g id="edge4" class="edge">
<title>Node1&#45;&gt;Node5</title>
<path fill="none" stroke="#63b8ff" d="M66.49,-169.33C77.34,-194.83 109.9,-263.62 159,-299.5 224.58,-347.43 317.18,-368.97 378.36,-378.42"/>
<polygon fill="#63b8ff" stroke="#63b8ff" points="377.87,-381.89 388.27,-379.89 378.89,-374.96 377.87,-381.89"/>
</g>
<!-- Node10 -->
<g id="node10" class="node">
<title>Node10</title>
<g id="a_node10"><a xlink:href="structImRect.html#ac02d5cf6ce0358aea9ed9df43d368f3f" target="_top" xlink:title=" ">
<polygon fill="white" stroke="#666666" points="296,-93 198,-93 198,-74 296,-74 296,-93"/>
<text text-anchor="middle" x="247" y="-81" font-family="Helvetica,sans-Serif" font-size="10.00">ImRect::ClipWith</text>
</a>
</g>
</g>
<!-- Node1&#45;&gt;Node10 -->
<g id="edge9" class="edge">
<title>Node1&#45;&gt;Node10</title>
<path fill="none" stroke="#63b8ff" d="M77.69,-149.92C96.27,-138.53 128.98,-119.55 159,-107.5 170.13,-103.03 182.39,-99.09 194.1,-95.76"/>
<polygon fill="#63b8ff" stroke="#63b8ff" points="195.05,-99.13 203.77,-93.11 193.2,-92.37 195.05,-99.13"/>
</g>
<!-- Node12 -->
<g id="node12" class="node">
<title>Node12</title>
<g id="a_node12"><a xlink:href="imgui__internal_8h.html#a51a84b6be21807818b857a8565d97912" target="_top" xlink:title=" ">
<polygon fill="white" stroke="#666666" points="274,-56 220,-56 220,-37 274,-37 274,-56"/>
<text text-anchor="middle" x="247" y="-44" font-family="Helvetica,sans-Serif" font-size="10.00">ImFloor</text>
</a>
</g>
</g>
<!-- Node1&#45;&gt;Node12 -->
<g id="edge13" class="edge">
<title>Node1&#45;&gt;Node12</title>
<path fill="none" stroke="#63b8ff" d="M69.22,-149.87C83.38,-130.37 118.36,-86.22 159,-64.5 174.51,-56.21 193.46,-51.73 209.72,-49.32"/>
<polygon fill="#63b8ff" stroke="#63b8ff" points="210.47,-52.75 219.94,-48.01 209.58,-45.81 210.47,-52.75"/>
</g>
<!-- Node13 -->
<g id="node13" class="node">
<title>Node13</title>
<g id="a_node13"><a xlink:href="structImGuiWindow.html#a59df76c1445aaaf0b43456c83c1a88e5" target="_top" xlink:title=" ">
<polygon fill="white" stroke="#666666" points="324.5,-19 169.5,-19 169.5,0 324.5,0 324.5,-19"/>
<text text-anchor="middle" x="247" y="-7" font-family="Helvetica,sans-Serif" font-size="10.00">ImGuiWindow::MenuBarRect</text>
</a>
</g>
</g>
<!-- Node1&#45;&gt;Node13 -->
<g id="edge15" class="edge">
<title>Node1&#45;&gt;Node13</title>
<path fill="none" stroke="#63b8ff" d="M66.48,-149.98C77.3,-125.33 109.82,-59.14 159,-27.5 161.49,-25.9 164.1,-24.43 166.8,-23.09"/>
<polygon fill="#63b8ff" stroke="#63b8ff" points="168.44,-26.2 176.23,-19.02 165.66,-19.77 168.44,-26.2"/>
</g>
<!-- Node14 -->
<g id="node14" class="node">
<title>Node14</title>
<g id="a_node14"><a xlink:href="namespaceImGui.html#a11c8bd8676e1281e15b24c9615b6904a" target="_top" xlink:title=" ">
<polygon fill="white" stroke="#666666" points="305,-254 189,-254 189,-235 305,-235 305,-254"/>
<text text-anchor="middle" x="247" y="-242" font-family="Helvetica,sans-Serif" font-size="10.00">ImGui::PushClipRect</text>
</a>
</g>
</g>
<!-- Node1&#45;&gt;Node14 -->
<g id="edge16" class="edge">
<title>Node1&#45;&gt;Node14</title>
<path fill="none" stroke="#63b8ff" d="M76.36,-169.03C94.64,-181.27 128.12,-202.62 159,-216.5 172.16,-222.42 186.95,-227.66 200.55,-231.97"/>
<polygon fill="#63b8ff" stroke="#63b8ff" points="199.61,-235.34 210.2,-234.93 201.67,-228.65 199.61,-235.34"/>
</g>
<!-- Node20 -->
<g id="node20" class="node">
<title>Node20</title>
<g id="a_node20"><a xlink:href="namespaceImGui.html#a27a8533605dc5b8cabf161bf7715bbde" target="_top" xlink:title=" ">
<polygon fill="white" stroke="#666666" points="290,-207 204,-207 204,-188 290,-188 290,-207"/>
<text text-anchor="middle" x="247" y="-195" font-family="Helvetica,sans-Serif" font-size="10.00">ImGui::PushID</text>
</a>
</g>
</g>
<!-- Node1&#45;&gt;Node20 -->
<g id="edge28" class="edge">
<title>Node1&#45;&gt;Node20</title>
<path fill="none" stroke="#63b8ff" d="M108.8,-169.09C134.69,-174.45 167.04,-181.15 193.83,-186.7"/>
<polygon fill="#63b8ff" stroke="#63b8ff" points="193.29,-190.16 203.79,-188.76 194.71,-183.3 193.29,-190.16"/>
</g>
<!-- Node2&#45;&gt;Node3 -->
<g id="edge2" class="edge">
<title>Node2&#45;&gt;Node3</title>
<path fill="none" stroke="#63b8ff" d="M319.12,-169.03C324.91,-171.77 330.32,-175.2 335,-179.5 373.51,-214.87 332.89,-255.71 371,-291.5 372.13,-292.56 373.31,-293.56 374.54,-294.51"/>
<polygon fill="#63b8ff" stroke="#63b8ff" points="372.9,-297.61 383.23,-299.94 376.61,-291.67 372.9,-297.61"/>
</g>
<!-- Node2&#45;&gt;Node4 -->
<g id="edge3" class="edge">
<title>Node2&#45;&gt;Node4</title>
<path fill="none" stroke="#63b8ff" d="M335.48,-155.26C420.63,-151.13 545.67,-145.07 605.56,-142.17"/>
<polygon fill="#63b8ff" stroke="#63b8ff" points="605.8,-145.66 615.62,-141.68 605.46,-138.67 605.8,-145.66"/>
</g>
<!-- Node6 -->
<g id="node6" class="node">
<title>Node6</title>
<g id="a_node6"><a xlink:href="structImVector.html#a2d80e87e81b1b01143c8d8be93e6fde1" target="_top" xlink:title=" ">
<polygon fill="white" stroke="#666666" points="685.5,-375 596.5,-375 596.5,-356 685.5,-356 685.5,-375"/>
<text text-anchor="middle" x="641" y="-363" font-family="Helvetica,sans-Serif" font-size="10.00">ImVector::back</text>
</a>
</g>
</g>
<!-- Node5&#45;&gt;Node6 -->
<g id="edge5" class="edge">
<title>Node5&#45;&gt;Node6</title>
<path fill="none" stroke="#63b8ff" d="M497.56,-380.03C525.1,-377.22 558.57,-373.81 586.15,-370.99"/>
<polygon fill="#63b8ff" stroke="#63b8ff" points="586.82,-374.45 596.41,-369.95 586.11,-367.48 586.82,-374.45"/>
</g>
<!-- Node7 -->
<g id="node7" class="node">
<title>Node7</title>
<g id="a_node7"><a xlink:href="structImVector.html#ac371dd62e56ae486b1a5038cf07eee56" target="_top" xlink:title=" ">
<polygon fill="white" stroke="#666666" points="1054.5,-366 959.5,-366 959.5,-347 1054.5,-347 1054.5,-366"/>
<text text-anchor="middle" x="1007" y="-354" font-family="Helvetica,sans-Serif" font-size="10.00">ImVector::resize</text>
</a>
</g>
</g>
<!-- Node5&#45;&gt;Node7 -->
<g id="edge6" class="edge">
<title>Node5&#45;&gt;Node7</title>
<path fill="none" stroke="#63b8ff" d="M497.73,-386.88C555.43,-388 649.77,-388.77 731,-384.5 806.79,-380.52 893.9,-370.77 949.41,-363.9"/>
<polygon fill="#63b8ff" stroke="#63b8ff" points="949.91,-367.36 959.4,-362.65 949.04,-360.42 949.91,-367.36"/>
</g>
<!-- Node8 -->
<g id="node8" class="node">
<title>Node8</title>
<g id="a_node8"><a xlink:href="structImVector.html#a3a097635d464b1b70dc7d59996a88b28" target="_top" xlink:title=" ">
<polygon fill="white" stroke="#666666" points="1244,-357 1102,-357 1102,-338 1244,-338 1244,-357"/>
<text text-anchor="middle" x="1173" y="-345" font-family="Helvetica,sans-Serif" font-size="10.00">ImVector::_grow_capacity</text>
</a>
</g>
</g>
<!-- Node7&#45;&gt;Node8 -->
<g id="edge7" class="edge">
<title>Node7&#45;&gt;Node8</title>
<path fill="none" stroke="#63b8ff" d="M1054.56,-353.95C1066.14,-353.31 1078.89,-352.61 1091.59,-351.91"/>
<polygon fill="#63b8ff" stroke="#63b8ff" points="1091.95,-355.4 1101.74,-351.36 1091.56,-348.41 1091.95,-355.4"/>
</g>
<!-- Node9 -->
<g id="node9" class="node">
<title>Node9</title>
<g id="a_node9"><a xlink:href="structImVector.html#a0f14f5736c3372157856eebb67123b75" target="_top" xlink:title=" ">
<polygon fill="white" stroke="#666666" points="1224.5,-301 1121.5,-301 1121.5,-282 1224.5,-282 1224.5,-301"/>
<text text-anchor="middle" x="1173" y="-289" font-family="Helvetica,sans-Serif" font-size="10.00">ImVector::reserve</text>
</a>
</g>
</g>
<!-- Node7&#45;&gt;Node9 -->
<g id="edge8" class="edge">
<title>Node7&#45;&gt;Node9</title>
<path fill="none" stroke="#63b8ff" d="M1032.2,-346.91C1060.26,-335.79 1106.69,-317.39 1138.28,-304.87"/>
<polygon fill="#63b8ff" stroke="#63b8ff" points="1139.96,-307.96 1147.97,-301.02 1137.38,-301.46 1139.96,-307.96"/>
</g>
<!-- Node10&#45;&gt;Node4 -->
<g id="edge10" class="edge">
<title>Node10&#45;&gt;Node4</title>
<path fill="none" stroke="#63b8ff" d="M296.29,-74.29C318.89,-70.43 346.22,-66.4 371,-64.5 434.81,-59.6 453.37,-47.24 515,-64.5 556.42,-76.1 597.75,-105.62 620.97,-124.27"/>
<polygon fill="#63b8ff" stroke="#63b8ff" points="619,-127.18 628.95,-130.82 623.45,-121.77 619,-127.18"/>
</g>
<!-- Node11 -->
<g id="node11" class="node">
<title>Node11</title>
<g id="a_node11"><a xlink:href="imgui__internal_8h.html#a7f9d7828066a9d61b5630adcdf4655d3" target="_top" xlink:title=" ">
<polygon fill="white" stroke="#666666" points="466.5,-93 419.5,-93 419.5,-74 466.5,-74 466.5,-93"/>
<text text-anchor="middle" x="443" y="-81" font-family="Helvetica,sans-Serif" font-size="10.00">ImMin</text>
</a>
</g>
</g>
<!-- Node10&#45;&gt;Node11 -->
<g id="edge11" class="edge">
<title>Node10&#45;&gt;Node11</title>
<path fill="none" stroke="#63b8ff" d="M296.45,-83.5C331.59,-83.5 378.18,-83.5 409.08,-83.5"/>
<polygon fill="#63b8ff" stroke="#63b8ff" points="409.31,-87 419.31,-83.5 409.3,-80 409.31,-87"/>
</g>
<!-- Node14&#45;&gt;Node3 -->
<g id="edge18" class="edge">
<title>Node14&#45;&gt;Node3</title>
<path fill="none" stroke="#63b8ff" d="M270.84,-254.15C295.32,-264.27 335.48,-280.25 371,-291.5 377.43,-293.54 384.25,-295.5 391.02,-297.34"/>
<polygon fill="#63b8ff" stroke="#63b8ff" points="390.28,-300.77 400.85,-299.93 392.07,-294 390.28,-300.77"/>
</g>
<!-- Node14&#45;&gt;Node6 -->
<g id="edge17" class="edge">
<title>Node14&#45;&gt;Node6</title>
<path fill="none" stroke="#63b8ff" d="M258.53,-254.28C278.65,-272.32 324.67,-310.64 371,-328.5 441.87,-355.82 530.08,-363.41 585.74,-365.28"/>
<polygon fill="#63b8ff" stroke="#63b8ff" points="585.99,-368.79 596.08,-365.57 586.18,-361.79 585.99,-368.79"/>
</g>
<!-- Node15 -->
<g id="node15" class="node">
<title>Node15</title>
<g id="a_node15"><a xlink:href="structImDrawList.html#a608a9d9a83715ba87dced8321ed64329" target="_top" xlink:title=" ">
<polygon fill="white" stroke="#666666" points="514,-245 372,-245 372,-226 514,-226 514,-245"/>
<text text-anchor="middle" x="443" y="-233" font-family="Helvetica,sans-Serif" font-size="10.00">ImDrawList::PushClipRect</text>
</a>
</g>
</g>
<!-- Node14&#45;&gt;Node15 -->
<g id="edge19" class="edge">
<title>Node14&#45;&gt;Node15</title>
<path fill="none" stroke="#63b8ff" d="M305.16,-241.85C322.87,-241.03 342.74,-240.11 361.72,-239.22"/>
<polygon fill="#63b8ff" stroke="#63b8ff" points="362.02,-242.71 371.85,-238.75 361.7,-235.72 362.02,-242.71"/>
</g>
<!-- Node15&#45;&gt;Node4 -->
<g id="edge26" class="edge">
<title>Node15&#45;&gt;Node4</title>
<path fill="none" stroke="#63b8ff" d="M463.87,-225.87C498.74,-208.97 571.05,-173.92 611.33,-154.39"/>
<polygon fill="#63b8ff" stroke="#63b8ff" points="612.89,-157.53 620.37,-150.02 609.84,-151.23 612.89,-157.53"/>
</g>
<!-- Node16 -->
<g id="node16" class="node">
<title>Node16</title>
<g id="a_node16"><a xlink:href="structImDrawList.html#a8e51ddbe1f9732bc271ce807bec23f54" target="_top" xlink:title=" ">
<polygon fill="white" stroke="#666666" points="731,-264 551,-264 551,-245 731,-245 731,-264"/>
<text text-anchor="middle" x="641" y="-252" font-family="Helvetica,sans-Serif" font-size="10.00">ImDrawList::_OnChangedClipRect</text>
</a>
</g>
</g>
<!-- Node15&#45;&gt;Node16 -->
<g id="edge20" class="edge">
<title>Node15&#45;&gt;Node16</title>
<path fill="none" stroke="#63b8ff" d="M514.21,-242.31C522.83,-243.14 531.76,-244.01 540.7,-244.87"/>
<polygon fill="#63b8ff" stroke="#63b8ff" points="540.5,-248.37 550.8,-245.85 541.18,-241.4 540.5,-248.37"/>
</g>
<!-- Node18 -->
<g id="node18" class="node">
<title>Node18</title>
<g id="a_node18"><a xlink:href="structImVector.html#aab5df48e0711a48bd12f3206e08c4108" target="_top" xlink:title=" ">
<polygon fill="white" stroke="#666666" points="1066,-264 948,-264 948,-245 1066,-245 1066,-264"/>
<text text-anchor="middle" x="1007" y="-252" font-family="Helvetica,sans-Serif" font-size="10.00">ImVector::push_back</text>
</a>
</g>
</g>
<!-- Node15&#45;&gt;Node18 -->
<g id="edge27" class="edge">
<title>Node15&#45;&gt;Node18</title>
<path fill="none" stroke="#63b8ff" d="M514.37,-231.57C606.12,-227.37 771.47,-223.01 912,-236.5 926.11,-237.85 941.25,-240.3 955.17,-242.97"/>
<polygon fill="#63b8ff" stroke="#63b8ff" points="954.57,-246.42 965.06,-244.94 955.93,-239.55 954.57,-246.42"/>
</g>
<!-- Node17 -->
<g id="node17" class="node">
<title>Node17</title>
<g id="a_node17"><a xlink:href="structImDrawList.html#a846714bb0321c6f1f908767abc8559e6" target="_top" xlink:title=" ">
<polygon fill="white" stroke="#666666" points="912,-264 767,-264 767,-245 912,-245 912,-264"/>
<text text-anchor="middle" x="839.5" y="-252" font-family="Helvetica,sans-Serif" font-size="10.00">ImDrawList::AddDrawCmd</text>
</a>
</g>
</g>
<!-- Node16&#45;&gt;Node17 -->
<g id="edge21" class="edge">
<title>Node16&#45;&gt;Node17</title>
<path fill="none" stroke="#63b8ff" d="M731.05,-254.5C739.57,-254.5 748.18,-254.5 756.63,-254.5"/>
<polygon fill="#63b8ff" stroke="#63b8ff" points="756.83,-258 766.83,-254.5 756.83,-251 756.83,-258"/>
</g>
<!-- Node19 -->
<g id="node19" class="node">
<title>Node19</title>
<g id="a_node19"><a xlink:href="structImVector.html#a3db7ce62d3c429effdb893fbf7148c1c" target="_top" xlink:title=" ">
<polygon fill="white" stroke="#666666" points="896,-301 783,-301 783,-282 896,-282 896,-301"/>
<text text-anchor="middle" x="839.5" y="-289" font-family="Helvetica,sans-Serif" font-size="10.00">ImVector::pop_back</text>
</a>
</g>
</g>
<!-- Node16&#45;&gt;Node19 -->
<g id="edge25" class="edge">
<title>Node16&#45;&gt;Node19</title>
<path fill="none" stroke="#63b8ff" d="M692.6,-264.03C718.63,-268.93 750.55,-274.94 777.88,-280.09"/>
<polygon fill="#63b8ff" stroke="#63b8ff" points="777.25,-283.53 787.73,-281.94 778.55,-276.65 777.25,-283.53"/>
</g>
<!-- Node17&#45;&gt;Node18 -->
<g id="edge22" class="edge">
<title>Node17&#45;&gt;Node18</title>
<path fill="none" stroke="#63b8ff" d="M912.13,-254.5C920.64,-254.5 929.31,-254.5 937.76,-254.5"/>
<polygon fill="#63b8ff" stroke="#63b8ff" points="937.96,-258 947.96,-254.5 937.96,-251 937.96,-258"/>
</g>
<!-- Node18&#45;&gt;Node8 -->
<g id="edge23" class="edge">
<title>Node18&#45;&gt;Node8</title>
<path fill="none" stroke="#63b8ff" d="M1023.49,-264.06C1042.01,-275.41 1074.01,-294.78 1102,-310.5 1115.79,-318.25 1131.33,-326.5 1144.25,-333.25"/>
<polygon fill="#63b8ff" stroke="#63b8ff" points="1142.65,-336.36 1153.14,-337.86 1145.88,-330.15 1142.65,-336.36"/>
</g>
<!-- Node18&#45;&gt;Node9 -->
<g id="edge24" class="edge">
<title>Node18&#45;&gt;Node9</title>
<path fill="none" stroke="#63b8ff" d="M1050.23,-264.03C1071.39,-268.8 1097.19,-274.62 1119.6,-279.68"/>
<polygon fill="#63b8ff" stroke="#63b8ff" points="1119.1,-283.15 1129.62,-281.94 1120.64,-276.32 1119.1,-283.15"/>
</g>
<!-- Node20&#45;&gt;Node18 -->
<g id="edge35" class="edge">
<title>Node20&#45;&gt;Node18</title>
<path fill="none" stroke="#63b8ff" d="M290,-195.12C395.57,-190 680.12,-181.58 912,-223.5 932.97,-227.29 955.69,-234.69 973.54,-241.3"/>
<polygon fill="#63b8ff" stroke="#63b8ff" points="972.32,-244.58 982.91,-244.87 974.81,-238.04 972.32,-244.58"/>
</g>
<!-- Node21 -->
<g id="node21" class="node">
<title>Node21</title>
<g id="a_node21"><a xlink:href="structImGuiWindow.html#afe084e59f7cd4da393ae30f0b4410b16" target="_top" xlink:title=" ">
<polygon fill="white" stroke="#666666" points="502,-282 384,-282 384,-263 502,-263 502,-282"/>
<text text-anchor="middle" x="443" y="-270" font-family="Helvetica,sans-Serif" font-size="10.00">ImGuiWindow::GetID</text>
</a>
</g>
</g>
<!-- Node20&#45;&gt;Node21 -->
<g id="edge29" class="edge">
<title>Node20&#45;&gt;Node21</title>
<path fill="none" stroke="#63b8ff" d="M285.98,-207.1C301.66,-211.84 319.7,-218.31 335,-226.5 352.87,-236.06 352.79,-245.6 371,-254.5 374.86,-256.38 378.93,-258.09 383.1,-259.62"/>
<polygon fill="#63b8ff" stroke="#63b8ff" points="382.33,-263.05 392.93,-262.9 384.55,-256.41 382.33,-263.05"/>
</g>
<!-- Node21&#45;&gt;Node6 -->
<g id="edge30" class="edge">
<title>Node21&#45;&gt;Node6</title>
<path fill="none" stroke="#63b8ff" d="M497.19,-282.01C503.53,-284.48 509.64,-287.59 515,-291.5 538.9,-308.94 526.57,-330.81 551,-347.5 561.27,-354.52 573.66,-358.92 585.9,-361.65"/>
<polygon fill="#63b8ff" stroke="#63b8ff" points="585.61,-365.16 596.09,-363.57 586.91,-358.28 585.61,-365.16"/>
</g>
<!-- Node22 -->
<g id="node22" class="node">
<title>Node22</title>
<g id="a_node22"><a xlink:href="namespaceImGui.html#a5487269f4cb9fb809fd3e797411ed2d7" target="_top" xlink:title=" ">
<polygon fill="white" stroke="#666666" points="709.5,-338 572.5,-338 572.5,-319 709.5,-319 709.5,-338"/>
<text text-anchor="middle" x="641" y="-326" font-family="Helvetica,sans-Serif" font-size="10.00">ImGui::DebugHookIdInfo</text>
</a>
</g>
</g>
<!-- Node21&#45;&gt;Node22 -->
<g id="edge31" class="edge">
<title>Node21&#45;&gt;Node22</title>
<path fill="none" stroke="#63b8ff" d="M485.8,-282.02C495.52,-284.69 505.73,-287.87 515,-291.5 531.84,-298.1 533.96,-304.42 551,-310.5 557.28,-312.74 563.92,-314.73 570.63,-316.5"/>
<polygon fill="#63b8ff" stroke="#63b8ff" points="569.92,-319.93 580.47,-318.92 571.6,-313.13 569.92,-319.93"/>
</g>
<!-- Node24 -->
<g id="node24" class="node">
<title>Node24</title>
<g id="a_node24"><a xlink:href="imgui_8cpp.html#ab6659b5d67f7a3369e099ce890e12223" target="_top" xlink:title=" ">
<polygon fill="white" stroke="#666666" points="675,-301 607,-301 607,-282 675,-282 675,-301"/>
<text text-anchor="middle" x="641" y="-289" font-family="Helvetica,sans-Serif" font-size="10.00">ImHashStr</text>
</a>
</g>
</g>
<!-- Node21&#45;&gt;Node24 -->
<g id="edge34" class="edge">
<title>Node21&#45;&gt;Node24</title>
<path fill="none" stroke="#63b8ff" d="M502.01,-278.12C532.34,-281.06 568.84,-284.6 596.68,-287.3"/>
<polygon fill="#63b8ff" stroke="#63b8ff" points="596.6,-290.81 606.89,-288.29 597.27,-283.84 596.6,-290.81"/>
</g>
<!-- Node22&#45;&gt;Node7 -->
<g id="edge33" class="edge">
<title>Node22&#45;&gt;Node7</title>
<path fill="none" stroke="#63b8ff" d="M695.67,-338.02C717.7,-341.57 743.51,-345.28 767,-347.5 829,-353.36 900.4,-355.44 948.89,-356.16"/>
<polygon fill="#63b8ff" stroke="#63b8ff" points="949.14,-359.67 959.18,-356.3 949.23,-352.67 949.14,-359.67"/>
</g>
<!-- Node23 -->
<g id="node23" class="node">
<title>Node23</title>
<g id="a_node23"><a xlink:href="imgui_8cpp.html#a75ccaf7d676b1f567ba888ae42ac3809" target="_top" xlink:title=" ">
<polygon fill="white" stroke="#666666" points="885.5,-338 793.5,-338 793.5,-319 885.5,-319 885.5,-338"/>
<text text-anchor="middle" x="839.5" y="-326" font-family="Helvetica,sans-Serif" font-size="10.00">ImFormatString</text>
</a>
</g>
</g>
<!-- Node22&#45;&gt;Node23 -->
<g id="edge32" class="edge">
<title>Node22&#45;&gt;Node23</title>
<path fill="none" stroke="#63b8ff" d="M709.62,-328.5C733.6,-328.5 760.27,-328.5 783.1,-328.5"/>
<polygon fill="#63b8ff" stroke="#63b8ff" points="783.3,-332 793.3,-328.5 783.3,-325 783.3,-332"/>
</g>
</g>
</svg>
