<?xml version="1.0" encoding="UTF-8" standalone="no"?>
<!DOCTYPE svg PUBLIC "-//W3C//DTD SVG 1.1//EN"
 "http://www.w3.org/Graphics/SVG/1.1/DTD/svg11.dtd">
<!-- Generated by graphviz version 2.43.0 (0)
 -->
<!-- Title: ImGui::SetItemDefaultFocus Pages: 1 -->
<svg width="1149pt" height="341pt"
 viewBox="0.00 0.00 1149.00 340.50" xmlns="http://www.w3.org/2000/svg" xmlns:xlink="http://www.w3.org/1999/xlink">
<g id="graph0" class="graph" transform="scale(1 1) rotate(0) translate(4 336.5)">
<title>ImGui::SetItemDefaultFocus</title>
<!-- Node1 -->
<g id="node1" class="node">
<title>Node1</title>
<g id="a_node1"><a xlink:title=" ">
<polygon fill="#999999" stroke="#666666" points="1141,-175.5 987,-175.5 987,-156.5 1141,-156.5 1141,-175.5"/>
<text text-anchor="middle" x="1064" y="-163.5" font-family="Helvetica,sans-Serif" font-size="10.00">ImGui::SetItemDefaultFocus</text>
</a>
</g>
</g>
<!-- Node2 -->
<g id="node2" class="node">
<title>Node2</title>
<g id="a_node2"><a xlink:href="namespaceImGui.html#ad530c65e7cdfaf03f4e9b2f4e3fed8fc" target="_top" xlink:title=" ">
<polygon fill="white" stroke="#666666" points="919.5,-332.5 833.5,-332.5 833.5,-313.5 919.5,-313.5 919.5,-332.5"/>
<text text-anchor="middle" x="876.5" y="-320.5" font-family="Helvetica,sans-Serif" font-size="10.00">ImGui::Combo</text>
</a>
</g>
</g>
<!-- Node1&#45;&gt;Node2 -->
<g id="edge1" class="edge">
<title>Node1&#45;&gt;Node2</title>
<path fill="none" stroke="#63b8ff" d="M1052.39,-184.19C1034.84,-212.72 997.1,-267.92 951,-299 941.65,-305.3 930.52,-310.05 919.79,-313.59"/>
<polygon fill="#63b8ff" stroke="#63b8ff" points="1055.39,-185.99 1057.54,-175.61 1049.39,-182.38 1055.39,-185.99"/>
</g>
<!-- Node3 -->
<g id="node3" class="node">
<title>Node3</title>
<g id="a_node3"><a xlink:href="imgui__demo_8cpp.html#ada26445b1805241717bae1ad5eabf99b" target="_top" xlink:title=" ">
<polygon fill="white" stroke="#666666" points="318.5,-274.5 198.5,-274.5 198.5,-255.5 318.5,-255.5 318.5,-274.5"/>
<text text-anchor="middle" x="258.5" y="-262.5" font-family="Helvetica,sans-Serif" font-size="10.00">DemoWindowPopups</text>
</a>
</g>
</g>
<!-- Node1&#45;&gt;Node3 -->
<g id="edge2" class="edge">
<title>Node1&#45;&gt;Node3</title>
<path fill="none" stroke="#63b8ff" d="M1040.65,-181.38C1018.75,-195.76 983.95,-216.79 951,-229 729.78,-310.98 441.36,-288.42 318.77,-273.43"/>
<polygon fill="#63b8ff" stroke="#63b8ff" points="1042.83,-184.13 1049.2,-175.67 1038.94,-178.31 1042.83,-184.13"/>
</g>
<!-- Node5 -->
<g id="node5" class="node">
<title>Node5</title>
<g id="a_node5"><a xlink:href="imgui__demo_8cpp.html#a572c94dc58f448cf4346f7fdf4459b46" target="_top" xlink:title=" ">
<polygon fill="white" stroke="#666666" points="766,-256.5 578,-256.5 578,-237.5 766,-237.5 766,-256.5"/>
<text text-anchor="middle" x="672" y="-244.5" font-family="Helvetica,sans-Serif" font-size="10.00">DemoWindowWidgetsComboBoxes</text>
</a>
</g>
</g>
<!-- Node1&#45;&gt;Node5 -->
<g id="edge4" class="edge">
<title>Node1&#45;&gt;Node5</title>
<path fill="none" stroke="#63b8ff" d="M1027.55,-178.91C1005.71,-186.48 977,-195.75 951,-202 884.56,-217.96 807.82,-229.9 751.81,-237.46"/>
<polygon fill="#63b8ff" stroke="#63b8ff" points="1028.79,-182.18 1037.07,-175.57 1026.47,-175.58 1028.79,-182.18"/>
</g>
<!-- Node7 -->
<g id="node7" class="node">
<title>Node7</title>
<g id="a_node7"><a xlink:href="imgui__demo_8cpp.html#ac618a758c39bda31b916279690ade07b" target="_top" xlink:title=" ">
<polygon fill="white" stroke="#666666" points="542,-218.5 371,-218.5 371,-199.5 542,-199.5 542,-218.5"/>
<text text-anchor="middle" x="456.5" y="-206.5" font-family="Helvetica,sans-Serif" font-size="10.00">DemoWindowWidgetsListBoxes</text>
</a>
</g>
</g>
<!-- Node1&#45;&gt;Node7 -->
<g id="edge7" class="edge">
<title>Node1&#45;&gt;Node7</title>
<path fill="none" stroke="#63b8ff" d="M976.69,-172.13C860.97,-180.35 656.81,-194.85 542.01,-203"/>
<polygon fill="#63b8ff" stroke="#63b8ff" points="977.2,-175.6 986.93,-171.4 976.7,-168.62 977.2,-175.6"/>
</g>
<!-- Node8 -->
<g id="node8" class="node">
<title>Node8</title>
<g id="a_node8"><a xlink:href="structExampleAppConsole.html#a0518a09c7e8648dd52c7c06df19ac17a" target="_top" xlink:title=" ">
<polygon fill="white" stroke="#666666" points="951,-119.5 802,-119.5 802,-100.5 951,-100.5 951,-119.5"/>
<text text-anchor="middle" x="876.5" y="-107.5" font-family="Helvetica,sans-Serif" font-size="10.00">ExampleAppConsole::Draw</text>
</a>
</g>
</g>
<!-- Node1&#45;&gt;Node8 -->
<g id="edge9" class="edge">
<title>Node1&#45;&gt;Node8</title>
<path fill="none" stroke="#63b8ff" d="M1026.04,-153.11C1004.3,-145.69 976.21,-136.42 951,-129 939.87,-125.73 927.71,-122.46 916.54,-119.58"/>
<polygon fill="#63b8ff" stroke="#63b8ff" points="1024.95,-156.43 1035.54,-156.37 1027.22,-149.81 1024.95,-156.43"/>
</g>
<!-- Node10 -->
<g id="node10" class="node">
<title>Node10</title>
<g id="a_node10"><a xlink:href="namespaceImGui.html#a94c78076bd40ff548ecd124f95af8710" target="_top" xlink:title=" ">
<polygon fill="white" stroke="#666666" points="920.5,-82.5 832.5,-82.5 832.5,-63.5 920.5,-63.5 920.5,-82.5"/>
<text text-anchor="middle" x="876.5" y="-70.5" font-family="Helvetica,sans-Serif" font-size="10.00">ImGui::ListBox</text>
</a>
</g>
</g>
<!-- Node1&#45;&gt;Node10 -->
<g id="edge12" class="edge">
<title>Node1&#45;&gt;Node10</title>
<path fill="none" stroke="#63b8ff" d="M1043.33,-150.05C1021.84,-133.37 985.81,-107.48 951,-92 941.49,-87.77 930.84,-84.34 920.68,-81.62"/>
<polygon fill="#63b8ff" stroke="#63b8ff" points="1041.32,-152.93 1051.34,-156.38 1045.66,-147.44 1041.32,-152.93"/>
</g>
<!-- Node11 -->
<g id="node11" class="node">
<title>Node11</title>
<g id="a_node11"><a xlink:href="namespaceImGui.html#a0bdce99eef17ef1e1fef40a18bd811ab" target="_top" xlink:title=" ">
<polygon fill="white" stroke="#666666" points="946,-156.5 807,-156.5 807,-137.5 946,-137.5 946,-156.5"/>
<text text-anchor="middle" x="876.5" y="-144.5" font-family="Helvetica,sans-Serif" font-size="10.00">ImGui::ShowFontSelector</text>
</a>
</g>
</g>
<!-- Node1&#45;&gt;Node11 -->
<g id="edge13" class="edge">
<title>Node1&#45;&gt;Node11</title>
<path fill="none" stroke="#63b8ff" d="M976.56,-157.15C966.32,-156.1 955.97,-155.04 946.02,-154.02"/>
<polygon fill="#63b8ff" stroke="#63b8ff" points="976.44,-160.65 986.75,-158.19 977.16,-153.69 976.44,-160.65"/>
</g>
<!-- Node16 -->
<g id="node16" class="node">
<title>Node16</title>
<g id="a_node16"><a xlink:href="classmtgb_1_1MTImGui.html#a0ebe89de7aaa854c37e842ed796efb99" target="_top" xlink:title=" ">
<polygon fill="white" stroke="#666666" points="947.5,-41.5 805.5,-41.5 805.5,-22.5 947.5,-22.5 947.5,-41.5"/>
<text text-anchor="middle" x="876.5" y="-29.5" font-family="Helvetica,sans-Serif" font-size="10.00">mtgb::MTImGui::ShowLog</text>
</a>
</g>
</g>
<!-- Node1&#45;&gt;Node16 -->
<g id="edge22" class="edge">
<title>Node1&#45;&gt;Node16</title>
<path fill="none" stroke="#63b8ff" d="M1049.89,-148.18C1030.81,-123.5 993.06,-79.1 951,-54 942.19,-48.74 932.03,-44.66 922.13,-41.52"/>
<polygon fill="#63b8ff" stroke="#63b8ff" points="1047.22,-150.45 1056.05,-156.31 1052.8,-146.23 1047.22,-150.45"/>
</g>
<!-- Node4 -->
<g id="node4" class="node">
<title>Node4</title>
<g id="a_node4"><a xlink:href="namespaceImGui.html#af95643a0ce4893b9e57c12991922fb18" target="_top" xlink:title=" ">
<polygon fill="white" stroke="#666666" points="146,-143.5 0,-143.5 0,-124.5 146,-124.5 146,-143.5"/>
<text text-anchor="middle" x="73" y="-131.5" font-family="Helvetica,sans-Serif" font-size="10.00">ImGui::ShowDemoWindow</text>
</a>
</g>
</g>
<!-- Node3&#45;&gt;Node4 -->
<g id="edge3" class="edge">
<title>Node3&#45;&gt;Node4</title>
<path fill="none" stroke="#63b8ff" d="M235.59,-249.36C197.22,-221.97 118.95,-166.09 87.51,-143.65"/>
<polygon fill="#63b8ff" stroke="#63b8ff" points="233.83,-252.41 244.01,-255.37 237.9,-246.71 233.83,-252.41"/>
</g>
<!-- Node6 -->
<g id="node6" class="node">
<title>Node6</title>
<g id="a_node6"><a xlink:href="imgui__demo_8cpp.html#a9a639caab781642cbc4f4a23bfbd11cd" target="_top" xlink:title=" ">
<polygon fill="white" stroke="#666666" points="321,-199.5 196,-199.5 196,-180.5 321,-180.5 321,-199.5"/>
<text text-anchor="middle" x="258.5" y="-187.5" font-family="Helvetica,sans-Serif" font-size="10.00">DemoWindowWidgets</text>
</a>
</g>
</g>
<!-- Node5&#45;&gt;Node6 -->
<g id="edge5" class="edge">
<title>Node5&#45;&gt;Node6</title>
<path fill="none" stroke="#63b8ff" d="M567.62,-247.18C509.39,-245.61 435.59,-240.81 371,-228 339.1,-221.67 303.82,-208.55 281.66,-199.51"/>
<polygon fill="#63b8ff" stroke="#63b8ff" points="567.86,-250.69 577.94,-247.43 568.03,-243.69 567.86,-250.69"/>
</g>
<!-- Node6&#45;&gt;Node4 -->
<g id="edge6" class="edge">
<title>Node6&#45;&gt;Node4</title>
<path fill="none" stroke="#63b8ff" d="M215.96,-177.32C182.31,-167.05 135.63,-152.81 105.13,-143.5"/>
<polygon fill="#63b8ff" stroke="#63b8ff" points="215.37,-180.8 225.96,-180.37 217.41,-174.11 215.37,-180.8"/>
</g>
<!-- Node7&#45;&gt;Node6 -->
<g id="edge8" class="edge">
<title>Node7&#45;&gt;Node6</title>
<path fill="none" stroke="#63b8ff" d="M360.68,-199.81C347.2,-198.5 333.63,-197.19 321.01,-195.96"/>
<polygon fill="#63b8ff" stroke="#63b8ff" points="360.67,-203.32 370.96,-200.8 361.34,-196.36 360.67,-203.32"/>
</g>
<!-- Node9 -->
<g id="node9" class="node">
<title>Node9</title>
<g id="a_node9"><a xlink:href="imgui__demo_8cpp.html#a8e5624314ae6402dd0ddf2a62aa91473" target="_top" xlink:title=" ">
<polygon fill="white" stroke="#666666" points="330,-67.5 187,-67.5 187,-48.5 330,-48.5 330,-67.5"/>
<text text-anchor="middle" x="258.5" y="-55.5" font-family="Helvetica,sans-Serif" font-size="10.00">ShowExampleAppConsole</text>
</a>
</g>
</g>
<!-- Node8&#45;&gt;Node9 -->
<g id="edge10" class="edge">
<title>Node8&#45;&gt;Node9</title>
<path fill="none" stroke="#63b8ff" d="M791.56,-101.36C724.15,-94.56 627.04,-85.09 542,-78 469.85,-71.99 387.24,-66.27 330.07,-62.51"/>
<polygon fill="#63b8ff" stroke="#63b8ff" points="791.4,-104.86 801.7,-102.39 792.1,-97.9 791.4,-104.86"/>
</g>
<!-- Node9&#45;&gt;Node4 -->
<g id="edge11" class="edge">
<title>Node9&#45;&gt;Node4</title>
<path fill="none" stroke="#63b8ff" d="M214.47,-70.52C203.76,-73.96 192.37,-77.88 182,-82 149.51,-94.91 113.15,-113.27 91.99,-124.37"/>
<polygon fill="#63b8ff" stroke="#63b8ff" points="215.57,-73.85 224.07,-67.52 213.48,-67.17 215.57,-73.85"/>
</g>
<!-- Node12 -->
<g id="node12" class="node">
<title>Node12</title>
<g id="a_node12"><a xlink:href="namespaceImGui.html#acab51ec2b39577845309f24535381038" target="_top" xlink:title=" ">
<polygon fill="white" stroke="#666666" points="734,-154.5 610,-154.5 610,-135.5 734,-135.5 734,-154.5"/>
<text text-anchor="middle" x="672" y="-142.5" font-family="Helvetica,sans-Serif" font-size="10.00">ImGui::ShowFontAtlas</text>
</a>
</g>
</g>
<!-- Node11&#45;&gt;Node12 -->
<g id="edge14" class="edge">
<title>Node11&#45;&gt;Node12</title>
<path fill="none" stroke="#63b8ff" d="M796.83,-146.22C775.98,-146.02 753.77,-145.8 734.01,-145.6"/>
<polygon fill="#63b8ff" stroke="#63b8ff" points="796.91,-149.72 806.94,-146.32 796.98,-142.72 796.91,-149.72"/>
</g>
<!-- Node15 -->
<g id="node15" class="node">
<title>Node15</title>
<g id="a_node15"><a xlink:href="namespaceImGui.html#ab2eb3dec78d054fe3feab1c091ec5de5" target="_top" xlink:title=" ">
<polygon fill="white" stroke="#666666" points="522,-105.5 391,-105.5 391,-86.5 522,-86.5 522,-105.5"/>
<text text-anchor="middle" x="456.5" y="-93.5" font-family="Helvetica,sans-Serif" font-size="10.00">ImGui::ShowStyleEditor</text>
</a>
</g>
</g>
<!-- Node11&#45;&gt;Node15 -->
<g id="edge21" class="edge">
<title>Node11&#45;&gt;Node15</title>
<path fill="none" stroke="#63b8ff" d="M817.79,-135.56C801.12,-132.5 782.88,-129.39 766,-127 682.05,-115.14 584.63,-106.14 522.09,-100.97"/>
<polygon fill="#63b8ff" stroke="#63b8ff" points="817.46,-139.06 827.93,-137.45 818.75,-132.18 817.46,-139.06"/>
</g>
<!-- Node13 -->
<g id="node13" class="node">
<title>Node13</title>
<g id="a_node13"><a xlink:href="imgui__demo_8cpp.html#a163f04ccf255dede76e5e54f741ca9d5" target="_top" xlink:title=" ">
<polygon fill="white" stroke="#666666" points="532,-181.5 381,-181.5 381,-162.5 532,-162.5 532,-181.5"/>
<text text-anchor="middle" x="456.5" y="-169.5" font-family="Helvetica,sans-Serif" font-size="10.00">DemoWindowWidgetsFonts</text>
</a>
</g>
</g>
<!-- Node12&#45;&gt;Node13 -->
<g id="edge15" class="edge">
<title>Node12&#45;&gt;Node13</title>
<path fill="none" stroke="#63b8ff" d="M599.72,-154.01C578.07,-156.75 554.22,-159.77 532.35,-162.53"/>
<polygon fill="#63b8ff" stroke="#63b8ff" points="600.34,-157.46 609.82,-152.74 599.46,-150.52 600.34,-157.46"/>
</g>
<!-- Node14 -->
<g id="node14" class="node">
<title>Node14</title>
<g id="a_node14"><a xlink:href="namespaceImGui.html#afe7a28c6eb52fff3cc27d5a698fea4ff" target="_top" xlink:title=" ">
<polygon fill="white" stroke="#666666" points="335,-143.5 182,-143.5 182,-124.5 335,-124.5 335,-143.5"/>
<text text-anchor="middle" x="258.5" y="-131.5" font-family="Helvetica,sans-Serif" font-size="10.00">ImGui::ShowMetricsWindow</text>
</a>
</g>
</g>
<!-- Node12&#45;&gt;Node14 -->
<g id="edge17" class="edge">
<title>Node12&#45;&gt;Node14</title>
<path fill="none" stroke="#63b8ff" d="M599.7,-143.09C525.84,-141.12 410.85,-138.05 335.35,-136.03"/>
<polygon fill="#63b8ff" stroke="#63b8ff" points="599.75,-146.6 609.84,-143.37 599.94,-139.6 599.75,-146.6"/>
</g>
<!-- Node12&#45;&gt;Node15 -->
<g id="edge19" class="edge">
<title>Node12&#45;&gt;Node15</title>
<path fill="none" stroke="#63b8ff" d="M619.52,-133.19C582.64,-124.72 533.6,-113.47 499.17,-105.56"/>
<polygon fill="#63b8ff" stroke="#63b8ff" points="619.05,-136.67 629.58,-135.49 620.62,-129.85 619.05,-136.67"/>
</g>
<!-- Node13&#45;&gt;Node6 -->
<g id="edge16" class="edge">
<title>Node13&#45;&gt;Node6</title>
<path fill="none" stroke="#63b8ff" d="M370.59,-179.8C353.99,-181.32 336.88,-182.89 321.21,-184.33"/>
<polygon fill="#63b8ff" stroke="#63b8ff" points="371.2,-183.26 380.84,-178.86 370.56,-176.29 371.2,-183.26"/>
</g>
<!-- Node14&#45;&gt;Node4 -->
<g id="edge18" class="edge">
<title>Node14&#45;&gt;Node4</title>
<path fill="none" stroke="#63b8ff" d="M171.54,-134C163.09,-134 154.57,-134 146.28,-134"/>
<polygon fill="#63b8ff" stroke="#63b8ff" points="171.8,-137.5 181.8,-134 171.8,-130.5 171.8,-137.5"/>
</g>
<!-- Node15&#45;&gt;Node4 -->
<g id="edge20" class="edge">
<title>Node15&#45;&gt;Node4</title>
<path fill="none" stroke="#63b8ff" d="M380.93,-99.59C325.84,-102.7 249.09,-107.97 182,-116 163.41,-118.22 143.14,-121.4 125.23,-124.47"/>
<polygon fill="#63b8ff" stroke="#63b8ff" points="381.17,-103.09 390.96,-99.04 380.78,-96.1 381.17,-103.09"/>
</g>
<!-- Node17 -->
<g id="node17" class="node">
<title>Node17</title>
<g id="a_node17"><a xlink:href="classmtgb_1_1RenderSystem.html#a14e39d4590efdf77c2085b12c6f3cdf5" target="_top" xlink:title=" ">
<polygon fill="white" stroke="#666666" points="737.5,-30 606.5,-30 606.5,0 737.5,0 737.5,-30"/>
<text text-anchor="start" x="614.5" y="-18" font-family="Helvetica,sans-Serif" font-size="10.00">mtgb::RenderSystem</text>
<text text-anchor="middle" x="672" y="-7" font-family="Helvetica,sans-Serif" font-size="10.00">::RenderImGuiWindows</text>
</a>
</g>
</g>
<!-- Node16&#45;&gt;Node17 -->
<g id="edge23" class="edge">
<title>Node16&#45;&gt;Node17</title>
<path fill="none" stroke="#63b8ff" d="M795.09,-25.25C776.03,-23.65 755.95,-21.96 737.7,-20.43"/>
<polygon fill="#63b8ff" stroke="#63b8ff" points="794.99,-28.75 805.24,-26.1 795.57,-21.78 794.99,-28.75"/>
</g>
</g>
</svg>
