<?xml version="1.0" encoding="UTF-8" standalone="no"?>
<!DOCTYPE svg PUBLIC "-//W3C//DTD SVG 1.1//EN"
 "http://www.w3.org/Graphics/SVG/1.1/DTD/svg11.dtd">
<!-- Generated by graphviz version 2.43.0 (0)
 -->
<!-- Title: ImGui::TableGcCompactTransientBuffers Pages: 1 -->
<svg width="458pt" height="38pt"
 viewBox="0.00 0.00 458.00 38.00" xmlns="http://www.w3.org/2000/svg" xmlns:xlink="http://www.w3.org/1999/xlink">
<g id="graph0" class="graph" transform="scale(1 1) rotate(0) translate(4 34)">
<title>ImGui::TableGcCompactTransientBuffers</title>
<!-- Node1 -->
<g id="node1" class="node">
<title>Node1</title>
<g id="a_node1"><a xlink:title=" ">
<polygon fill="#999999" stroke="#666666" points="178,-30 0,-30 0,0 178,0 178,-30"/>
<text text-anchor="start" x="8" y="-18" font-family="Helvetica,sans-Serif" font-size="10.00">ImGui::TableGcCompactTransient</text>
<text text-anchor="middle" x="89" y="-7" font-family="Helvetica,sans-Serif" font-size="10.00">Buffers</text>
</a>
</g>
</g>
<!-- Node2 -->
<g id="node2" class="node">
<title>Node2</title>
<g id="a_node2"><a xlink:href="structImDrawListSplitter.html#a95dbdaa7ea2a0328a85732ed210a549b" target="_top" xlink:title=" ">
<polygon fill="white" stroke="#666666" points="324,-30 214,-30 214,0 324,0 324,-30"/>
<text text-anchor="start" x="222" y="-18" font-family="Helvetica,sans-Serif" font-size="10.00">ImDrawListSplitter</text>
<text text-anchor="middle" x="269" y="-7" font-family="Helvetica,sans-Serif" font-size="10.00">::ClearFreeMemory</text>
</a>
</g>
</g>
<!-- Node1&#45;&gt;Node2 -->
<g id="edge1" class="edge">
<title>Node1&#45;&gt;Node2</title>
<path fill="none" stroke="#63b8ff" d="M178.22,-15C186.7,-15 195.19,-15 203.39,-15"/>
<polygon fill="#63b8ff" stroke="#63b8ff" points="203.58,-18.5 213.58,-15 203.58,-11.5 203.58,-18.5"/>
</g>
<!-- Node3 -->
<g id="node3" class="node">
<title>Node3</title>
<g id="a_node3"><a xlink:href="structImVector.html#ae2d401b4ec5f1113cdb8edb5a61a38f7" target="_top" xlink:title=" ">
<polygon fill="white" stroke="#666666" points="450,-24.5 360,-24.5 360,-5.5 450,-5.5 450,-24.5"/>
<text text-anchor="middle" x="405" y="-12.5" font-family="Helvetica,sans-Serif" font-size="10.00">ImVector::clear</text>
</a>
</g>
</g>
<!-- Node2&#45;&gt;Node3 -->
<g id="edge2" class="edge">
<title>Node2&#45;&gt;Node3</title>
<path fill="none" stroke="#63b8ff" d="M324.12,-15C332.59,-15 341.34,-15 349.81,-15"/>
<polygon fill="#63b8ff" stroke="#63b8ff" points="349.96,-18.5 359.96,-15 349.96,-11.5 349.96,-18.5"/>
</g>
</g>
</svg>
