<?xml version="1.0" encoding="UTF-8" standalone="no"?>
<!DOCTYPE svg PUBLIC "-//W3C//DTD SVG 1.1//EN"
 "http://www.w3.org/Graphics/SVG/1.1/DTD/svg11.dtd">
<!-- Generated by graphviz version 2.43.0 (0)
 -->
<!-- Title: ImGui::SetWindowSize Pages: 1 -->
<svg width="323pt" height="64pt"
 viewBox="0.00 0.00 323.00 64.00" xmlns="http://www.w3.org/2000/svg" xmlns:xlink="http://www.w3.org/1999/xlink">
<g id="graph0" class="graph" transform="scale(1 1) rotate(0) translate(4 60)">
<title>ImGui::SetWindowSize</title>
<!-- Node1 -->
<g id="node1" class="node">
<title>Node1</title>
<g id="a_node1"><a xlink:title=" ">
<polygon fill="#999999" stroke="#666666" points="127,-37 0,-37 0,-18 127,-18 127,-37"/>
<text text-anchor="middle" x="63.5" y="-25" font-family="Helvetica,sans-Serif" font-size="10.00">ImGui::SetWindowSize</text>
</a>
</g>
</g>
<!-- Node2 -->
<g id="node2" class="node">
<title>Node2</title>
<g id="a_node2"><a xlink:href="imgui__internal_8h.html#a3cc719adb48b1aed8ab1196ecea7e828" target="_top" xlink:title=" ">
<polygon fill="white" stroke="#666666" points="288,-56 190,-56 190,-37 288,-37 288,-56"/>
<text text-anchor="middle" x="239" y="-44" font-family="Helvetica,sans-Serif" font-size="10.00">ImIsPowerOfTwo</text>
</a>
</g>
</g>
<!-- Node1&#45;&gt;Node2 -->
<g id="edge1" class="edge">
<title>Node1&#45;&gt;Node2</title>
<path fill="none" stroke="#63b8ff" d="M127.14,-34.36C144.26,-36.23 162.74,-38.26 179.61,-40.11"/>
<polygon fill="#63b8ff" stroke="#63b8ff" points="179.56,-43.62 189.89,-41.23 180.33,-36.66 179.56,-43.62"/>
</g>
<!-- Node3 -->
<g id="node3" class="node">
<title>Node3</title>
<g id="a_node3"><a xlink:href="namespaceImGui.html#aee9b660c1d6786c00fc47c71c66eb1eb" target="_top" xlink:title=" ">
<polygon fill="white" stroke="#666666" points="315,-19 163,-19 163,0 315,0 315,-19"/>
<text text-anchor="middle" x="239" y="-7" font-family="Helvetica,sans-Serif" font-size="10.00">ImGui::MarkIniSettingsDirty</text>
</a>
</g>
</g>
<!-- Node1&#45;&gt;Node3 -->
<g id="edge2" class="edge">
<title>Node1&#45;&gt;Node3</title>
<path fill="none" stroke="#63b8ff" d="M127.14,-21C135.44,-20.14 144.06,-19.25 152.67,-18.35"/>
<polygon fill="#63b8ff" stroke="#63b8ff" points="153.15,-21.82 162.74,-17.31 152.43,-14.86 153.15,-21.82"/>
</g>
</g>
</svg>
