<?xml version="1.0" encoding="UTF-8" standalone="no"?>
<!DOCTYPE svg PUBLIC "-//W3C//DTD SVG 1.1//EN"
 "http://www.w3.org/Graphics/SVG/1.1/DTD/svg11.dtd">
<!-- Generated by graphviz version 2.43.0 (0)
 -->
<!-- Title: ImGui::BeginDisabledOverrideReenable Pages: 1 -->
<svg width="504pt" height="82pt"
 viewBox="0.00 0.00 504.00 82.00" xmlns="http://www.w3.org/2000/svg" xmlns:xlink="http://www.w3.org/1999/xlink">
<g id="graph0" class="graph" transform="scale(1 1) rotate(0) translate(4 78)">
<title>ImGui::BeginDisabledOverrideReenable</title>
<!-- Node1 -->
<g id="node1" class="node">
<title>Node1</title>
<g id="a_node1"><a xlink:title=" ">
<polygon fill="#999999" stroke="#666666" points="164,-60.5 0,-60.5 0,-30.5 164,-30.5 164,-60.5"/>
<text text-anchor="start" x="8" y="-48.5" font-family="Helvetica,sans-Serif" font-size="10.00">ImGui::BeginDisabledOverride</text>
<text text-anchor="middle" x="82" y="-37.5" font-family="Helvetica,sans-Serif" font-size="10.00">Reenable</text>
</a>
</g>
</g>
<!-- Node2 -->
<g id="node2" class="node">
<title>Node2</title>
<g id="a_node2"><a xlink:href="structImVector.html#a2d80e87e81b1b01143c8d8be93e6fde1" target="_top" xlink:title=" ">
<polygon fill="white" stroke="#666666" points="303.5,-74 214.5,-74 214.5,-55 303.5,-55 303.5,-74"/>
<text text-anchor="middle" x="259" y="-62" font-family="Helvetica,sans-Serif" font-size="10.00">ImVector::back</text>
</a>
</g>
</g>
<!-- Node1&#45;&gt;Node2 -->
<g id="edge1" class="edge">
<title>Node1&#45;&gt;Node2</title>
<path fill="none" stroke="#63b8ff" d="M164.1,-54.3C177.78,-55.79 191.68,-57.3 204.44,-58.68"/>
<polygon fill="#63b8ff" stroke="#63b8ff" points="204.08,-62.17 214.4,-59.77 204.83,-55.21 204.08,-62.17"/>
</g>
<!-- Node3 -->
<g id="node3" class="node">
<title>Node3</title>
<g id="a_node3"><a xlink:href="structImVector.html#aab5df48e0711a48bd12f3206e08c4108" target="_top" xlink:title=" ">
<polygon fill="white" stroke="#666666" points="318,-37 200,-37 200,-18 318,-18 318,-37"/>
<text text-anchor="middle" x="259" y="-25" font-family="Helvetica,sans-Serif" font-size="10.00">ImVector::push_back</text>
</a>
</g>
</g>
<!-- Node1&#45;&gt;Node3 -->
<g id="edge2" class="edge">
<title>Node1&#45;&gt;Node3</title>
<path fill="none" stroke="#63b8ff" d="M164.1,-37.16C172.68,-36.28 181.34,-35.38 189.75,-34.52"/>
<polygon fill="#63b8ff" stroke="#63b8ff" points="190.28,-37.98 199.87,-33.48 189.57,-31.02 190.28,-37.98"/>
</g>
<!-- Node4 -->
<g id="node4" class="node">
<title>Node4</title>
<g id="a_node4"><a xlink:href="structImVector.html#a3a097635d464b1b70dc7d59996a88b28" target="_top" xlink:title=" ">
<polygon fill="white" stroke="#666666" points="496,-56 354,-56 354,-37 496,-37 496,-56"/>
<text text-anchor="middle" x="425" y="-44" font-family="Helvetica,sans-Serif" font-size="10.00">ImVector::_grow_capacity</text>
</a>
</g>
</g>
<!-- Node3&#45;&gt;Node4 -->
<g id="edge3" class="edge">
<title>Node3&#45;&gt;Node4</title>
<path fill="none" stroke="#63b8ff" d="M318.28,-34.25C326.55,-35.21 335.18,-36.21 343.78,-37.21"/>
<polygon fill="#63b8ff" stroke="#63b8ff" points="343.5,-40.7 353.83,-38.37 344.3,-33.74 343.5,-40.7"/>
</g>
<!-- Node5 -->
<g id="node5" class="node">
<title>Node5</title>
<g id="a_node5"><a xlink:href="structImVector.html#a0f14f5736c3372157856eebb67123b75" target="_top" xlink:title=" ">
<polygon fill="white" stroke="#666666" points="476.5,-19 373.5,-19 373.5,0 476.5,0 476.5,-19"/>
<text text-anchor="middle" x="425" y="-7" font-family="Helvetica,sans-Serif" font-size="10.00">ImVector::reserve</text>
</a>
</g>
</g>
<!-- Node3&#45;&gt;Node5 -->
<g id="edge4" class="edge">
<title>Node3&#45;&gt;Node5</title>
<path fill="none" stroke="#63b8ff" d="M318.28,-21.1C332.87,-19.5 348.55,-17.78 363.25,-16.17"/>
<polygon fill="#63b8ff" stroke="#63b8ff" points="363.69,-19.64 373.25,-15.07 362.93,-12.68 363.69,-19.64"/>
</g>
</g>
</svg>
