<?xml version="1.0" encoding="UTF-8" standalone="no"?>
<!DOCTYPE svg PUBLIC "-//W3C//DTD SVG 1.1//EN"
 "http://www.w3.org/Graphics/SVG/1.1/DTD/svg11.dtd">
<!-- Generated by graphviz version 2.43.0 (0)
 -->
<!-- Title: refl::descriptor::get_display_name Pages: 1 -->
<svg width="286pt" height="51pt"
 viewBox="0.00 0.00 286.00 50.50" xmlns="http://www.w3.org/2000/svg" xmlns:xlink="http://www.w3.org/1999/xlink">
<g id="graph0" class="graph" transform="scale(1 1) rotate(0) translate(4 46.5)">
<title>refl::descriptor::get_display_name</title>
<!-- Node1 -->
<g id="node1" class="node">
<title>Node1</title>
<g id="a_node1"><a xlink:title=" ">
<polygon fill="#999999" stroke="#666666" points="278,-30 169,-30 169,0 278,0 278,-30"/>
<text text-anchor="start" x="177" y="-18" font-family="Helvetica,sans-Serif" font-size="10.00">refl::descriptor::get</text>
<text text-anchor="middle" x="223.5" y="-7" font-family="Helvetica,sans-Serif" font-size="10.00">_display_name</text>
</a>
</g>
</g>
<!-- Node2 -->
<g id="node2" class="node">
<title>Node2</title>
<g id="a_node2"><a xlink:href="namespaceJsonConverter.html#a135a6a26c079859d8ec54e81f54d5632" target="_top" xlink:title=" ">
<polygon fill="white" stroke="#666666" points="133,-24.5 0,-24.5 0,-5.5 133,-5.5 133,-24.5"/>
<text text-anchor="middle" x="66.5" y="-12.5" font-family="Helvetica,sans-Serif" font-size="10.00">JsonConverter::Serialize</text>
</a>
</g>
</g>
<!-- Node1&#45;&gt;Node2 -->
<g id="edge1" class="edge">
<title>Node1&#45;&gt;Node2</title>
<path fill="none" stroke="#63b8ff" d="M158.63,-15C150.24,-15 141.63,-15 133.21,-15"/>
<polygon fill="#63b8ff" stroke="#63b8ff" points="158.72,-18.5 168.72,-15 158.72,-11.5 158.72,-18.5"/>
</g>
<!-- Node2&#45;&gt;Node2 -->
<g id="edge2" class="edge">
<title>Node2&#45;&gt;Node2</title>
<path fill="none" stroke="#63b8ff" d="M95.62,-33.32C94.4,-38.51 84.7,-42.5 66.5,-42.5 38.77,-42.5 30.76,-33.23 42.46,-24.58"/>
<polygon fill="#63b8ff" stroke="#63b8ff" points="98.59,-31.47 90.54,-24.58 92.54,-34.99 98.59,-31.47"/>
</g>
</g>
</svg>
