<?xml version="1.0" encoding="UTF-8" standalone="no"?>
<!DOCTYPE svg PUBLIC "-//W3C//DTD SVG 1.1//EN"
 "http://www.w3.org/Graphics/SVG/1.1/DTD/svg11.dtd">
<!-- Generated by graphviz version 2.43.0 (0)
 -->
<!-- Title: refl::runtime::detail::debug_reflectable Pages: 1 -->
<svg width="729pt" height="142pt"
 viewBox="0.00 0.00 729.00 141.50" xmlns="http://www.w3.org/2000/svg" xmlns:xlink="http://www.w3.org/1999/xlink">
<g id="graph0" class="graph" transform="scale(1 1) rotate(0) translate(4 137.5)">
<title>refl::runtime::detail::debug_reflectable</title>
<!-- Node1 -->
<g id="node1" class="node">
<title>Node1</title>
<g id="a_node1"><a xlink:title=" ">
<polygon fill="#999999" stroke="#666666" points="721,-54 611,-54 611,-24 721,-24 721,-54"/>
<text text-anchor="start" x="619" y="-42" font-family="Helvetica,sans-Serif" font-size="10.00">refl::runtime::detail</text>
<text text-anchor="middle" x="666" y="-31" font-family="Helvetica,sans-Serif" font-size="10.00">::debug_reflectable</text>
</a>
</g>
</g>
<!-- Node2 -->
<g id="node2" class="node">
<title>Node2</title>
<g id="a_node2"><a xlink:href="namespacerefl_1_1runtime_1_1detail.html#ac48d7999a4409a81d7c2d2123328479c" target="_top" xlink:title=" ">
<polygon fill="white" stroke="#666666" points="575,-78 465,-78 465,-48 575,-48 575,-78"/>
<text text-anchor="start" x="473" y="-66" font-family="Helvetica,sans-Serif" font-size="10.00">refl::runtime::detail</text>
<text text-anchor="middle" x="520" y="-55" font-family="Helvetica,sans-Serif" font-size="10.00">::debug_impl</text>
</a>
</g>
</g>
<!-- Node1&#45;&gt;Node2 -->
<g id="edge1" class="edge">
<title>Node1&#45;&gt;Node2</title>
<path fill="none" stroke="#63b8ff" d="M601.01,-49.67C592.44,-51.09 583.72,-52.55 575.33,-53.94"/>
<polygon fill="#63b8ff" stroke="#63b8ff" points="601.68,-53.1 610.97,-48 600.53,-46.2 601.68,-53.1"/>
</g>
<!-- Node2&#45;&gt;Node2 -->
<g id="edge10" class="edge">
<title>Node2&#45;&gt;Node2</title>
<path fill="none" stroke="#63b8ff" d="M545.56,-88.6C542.06,-92.97 533.54,-96 520,-96 497.19,-96 488.63,-87.41 494.34,-78.28"/>
<polygon fill="#63b8ff" stroke="#63b8ff" points="549.06,-88.31 545.66,-78.28 542.06,-88.24 549.06,-88.31"/>
</g>
<!-- Node3 -->
<g id="node3" class="node">
<title>Node3</title>
<g id="a_node3"><a xlink:href="namespacerefl_1_1runtime.html#a06e1996b05966eac4f282b6656169d6a" target="_top" xlink:title=" ">
<polygon fill="white" stroke="#666666" points="429,-115.5 316,-115.5 316,-96.5 429,-96.5 429,-115.5"/>
<text text-anchor="middle" x="372.5" y="-103.5" font-family="Helvetica,sans-Serif" font-size="10.00">refl::runtime::debug</text>
</a>
</g>
</g>
<!-- Node2&#45;&gt;Node3 -->
<g id="edge2" class="edge">
<title>Node2&#45;&gt;Node3</title>
<path fill="none" stroke="#63b8ff" d="M458.27,-80.95C440.32,-86.25 421.36,-91.86 405.94,-96.41"/>
<polygon fill="#63b8ff" stroke="#63b8ff" points="459.51,-84.23 468.11,-78.04 457.53,-77.52 459.51,-84.23"/>
</g>
<!-- Node7 -->
<g id="node7" class="node">
<title>Node7</title>
<g id="a_node7"><a xlink:href="namespacerefl_1_1runtime_1_1detail.html#a5662a03dbcc0bec21ca77532f51a08a3" target="_top" xlink:title=" ">
<polygon fill="white" stroke="#666666" points="427.5,-78 317.5,-78 317.5,-48 427.5,-48 427.5,-78"/>
<text text-anchor="start" x="325.5" y="-66" font-family="Helvetica,sans-Serif" font-size="10.00">refl::runtime::detail</text>
<text text-anchor="middle" x="372.5" y="-55" font-family="Helvetica,sans-Serif" font-size="10.00">::debug_container</text>
</a>
</g>
</g>
<!-- Node2&#45;&gt;Node7 -->
<g id="edge6" class="edge">
<title>Node2&#45;&gt;Node7</title>
<path fill="none" stroke="#63b8ff" d="M454.74,-56.29C445.73,-56.2 436.53,-56.26 427.72,-56.45"/>
<polygon fill="#63b8ff" stroke="#63b8ff" points="454.77,-59.79 464.82,-56.45 454.88,-52.79 454.77,-59.79"/>
</g>
<!-- Node8 -->
<g id="node8" class="node">
<title>Node8</title>
<g id="a_node8"><a xlink:href="namespacerefl_1_1runtime_1_1detail.html#a2ca0a37e2a2bc64dcbe4c2283cfa2bc8" target="_top" xlink:title=" ">
<polygon fill="white" stroke="#666666" points="427.5,-30 317.5,-30 317.5,0 427.5,0 427.5,-30"/>
<text text-anchor="start" x="325.5" y="-18" font-family="Helvetica,sans-Serif" font-size="10.00">refl::runtime::detail</text>
<text text-anchor="middle" x="372.5" y="-7" font-family="Helvetica,sans-Serif" font-size="10.00">::debug_detailed</text>
</a>
</g>
</g>
<!-- Node2&#45;&gt;Node8 -->
<g id="edge8" class="edge">
<title>Node2&#45;&gt;Node8</title>
<path fill="none" stroke="#63b8ff" d="M463.81,-44.79C449.01,-39.91 433.18,-34.69 418.98,-30"/>
<polygon fill="#63b8ff" stroke="#63b8ff" points="462.77,-48.14 473.36,-47.94 464.96,-41.49 462.77,-48.14"/>
</g>
<!-- Node4 -->
<g id="node4" class="node">
<title>Node4</title>
<g id="a_node4"><a xlink:href="namespacerefl_1_1runtime.html#ab63a0044074e3c5a78f8e8a2662783aa" target="_top" xlink:title=" ">
<polygon fill="white" stroke="#666666" points="279.5,-133.5 149.5,-133.5 149.5,-114.5 279.5,-114.5 279.5,-133.5"/>
<text text-anchor="middle" x="214.5" y="-121.5" font-family="Helvetica,sans-Serif" font-size="10.00">refl::runtime::debug_all</text>
</a>
</g>
</g>
<!-- Node3&#45;&gt;Node4 -->
<g id="edge3" class="edge">
<title>Node3&#45;&gt;Node4</title>
<path fill="none" stroke="#63b8ff" d="M305.67,-113.6C297.09,-114.59 288.3,-115.6 279.75,-116.59"/>
<polygon fill="#63b8ff" stroke="#63b8ff" points="306.09,-117.07 315.62,-112.45 305.29,-110.12 306.09,-117.07"/>
</g>
<!-- Node5 -->
<g id="node5" class="node">
<title>Node5</title>
<g id="a_node5"><a xlink:href="namespacerefl_1_1runtime.html#aff5576066ff5e77faf8768de1beb9ef6" target="_top" xlink:title=" ">
<polygon fill="white" stroke="#666666" points="280,-96.5 149,-96.5 149,-77.5 280,-77.5 280,-96.5"/>
<text text-anchor="middle" x="214.5" y="-84.5" font-family="Helvetica,sans-Serif" font-size="10.00">refl::runtime::debug_str</text>
</a>
</g>
</g>
<!-- Node3&#45;&gt;Node5 -->
<g id="edge4" class="edge">
<title>Node3&#45;&gt;Node5</title>
<path fill="none" stroke="#63b8ff" d="M305.46,-97.96C297.04,-96.93 288.42,-95.88 280.02,-94.86"/>
<polygon fill="#63b8ff" stroke="#63b8ff" points="305.27,-101.46 315.62,-99.19 306.12,-94.51 305.27,-101.46"/>
</g>
<!-- Node6 -->
<g id="node6" class="node">
<title>Node6</title>
<g id="a_node6"><a xlink:href="namespacerefl_1_1runtime.html#a3244ba8392ebba58658f4e8a5ea92c3f" target="_top" xlink:title=" ">
<polygon fill="white" stroke="#666666" points="113,-102 0,-102 0,-72 113,-72 113,-102"/>
<text text-anchor="start" x="8" y="-90" font-family="Helvetica,sans-Serif" font-size="10.00">refl::runtime::debug</text>
<text text-anchor="middle" x="56.5" y="-79" font-family="Helvetica,sans-Serif" font-size="10.00">_all_str</text>
</a>
</g>
</g>
<!-- Node5&#45;&gt;Node6 -->
<g id="edge5" class="edge">
<title>Node5&#45;&gt;Node6</title>
<path fill="none" stroke="#63b8ff" d="M138.46,-87C130.02,-87 121.54,-87 113.41,-87"/>
<polygon fill="#63b8ff" stroke="#63b8ff" points="138.7,-90.5 148.7,-87 138.7,-83.5 138.7,-90.5"/>
</g>
<!-- Node7&#45;&gt;Node2 -->
<g id="edge7" class="edge">
<title>Node7&#45;&gt;Node2</title>
<path fill="none" stroke="#63b8ff" d="M437.8,-69.71C446.82,-69.8 456.02,-69.74 464.82,-69.55"/>
<polygon fill="#63b8ff" stroke="#63b8ff" points="437.78,-66.21 427.72,-69.55 437.67,-73.21 437.78,-66.21"/>
</g>
<!-- Node8&#45;&gt;Node1 -->
<g id="edge9" class="edge">
<title>Node8&#45;&gt;Node1</title>
<path fill="none" stroke="#63b8ff" d="M437.94,-20.31C489.83,-24.58 561.92,-30.51 610.85,-34.54"/>
<polygon fill="#63b8ff" stroke="#63b8ff" points="438.1,-16.81 427.85,-19.47 437.53,-23.78 438.1,-16.81"/>
</g>
</g>
</svg>
