<?xml version="1.0" encoding="UTF-8" standalone="no"?>
<!DOCTYPE svg PUBLIC "-//W3C//DTD SVG 1.1//EN"
 "http://www.w3.org/Graphics/SVG/1.1/DTD/svg11.dtd">
<!-- Generated by graphviz version 2.43.0 (0)
 -->
<!-- Title: ImGui::GetMousePos Pages: 1 -->
<svg width="936pt" height="301pt"
 viewBox="0.00 0.00 936.00 301.00" xmlns="http://www.w3.org/2000/svg" xmlns:xlink="http://www.w3.org/1999/xlink">
<g id="graph0" class="graph" transform="scale(1 1) rotate(0) translate(4 297)">
<title>ImGui::GetMousePos</title>
<!-- Node1 -->
<g id="node1" class="node">
<title>Node1</title>
<g id="a_node1"><a xlink:title=" ">
<polygon fill="#999999" stroke="#666666" points="928,-182.5 809,-182.5 809,-163.5 928,-163.5 928,-182.5"/>
<text text-anchor="middle" x="868.5" y="-170.5" font-family="Helvetica,sans-Serif" font-size="10.00">ImGui::GetMousePos</text>
</a>
</g>
</g>
<!-- Node2 -->
<g id="node2" class="node">
<title>Node2</title>
<g id="a_node2"><a xlink:href="namespacemtgb_1_1ImGuiUtil.html#adf7de16d75832fd676b25e91fcae9801" target="_top" xlink:title=" ">
<polygon fill="white" stroke="#666666" points="773,-229.5 604,-229.5 604,-210.5 773,-210.5 773,-229.5"/>
<text text-anchor="middle" x="688.5" y="-217.5" font-family="Helvetica,sans-Serif" font-size="10.00">mtgb::ImGuiUtil::GetMouseRay</text>
</a>
</g>
</g>
<!-- Node1&#45;&gt;Node2 -->
<g id="edge1" class="edge">
<title>Node1&#45;&gt;Node2</title>
<path fill="none" stroke="#63b8ff" d="M821.72,-185.09C791.88,-192.97 753.49,-203.1 725.77,-210.42"/>
<polygon fill="#63b8ff" stroke="#63b8ff" points="822.7,-188.45 831.48,-182.51 820.92,-181.68 822.7,-188.45"/>
</g>
<!-- Node5 -->
<g id="node5" class="node">
<title>Node5</title>
<g id="a_node5"><a xlink:href="classmtgb_1_1ImGuiEditorCamera.html#a4e39bb6938c95ae886e836c13d2d8a15" target="_top" xlink:title="指定した表示キューに積まれる">
<polygon fill="white" stroke="#666666" points="760.5,-188 616.5,-188 616.5,-158 760.5,-158 760.5,-188"/>
<text text-anchor="start" x="624.5" y="-176" font-family="Helvetica,sans-Serif" font-size="10.00">mtgb::ImGuiEditorCamera</text>
<text text-anchor="middle" x="688.5" y="-165" font-family="Helvetica,sans-Serif" font-size="10.00">::ShowImGui</text>
</a>
</g>
</g>
<!-- Node1&#45;&gt;Node5 -->
<g id="edge4" class="edge">
<title>Node1&#45;&gt;Node5</title>
<path fill="none" stroke="#63b8ff" d="M798.45,-173C786.04,-173 773.08,-173 760.61,-173"/>
<polygon fill="#63b8ff" stroke="#63b8ff" points="798.72,-176.5 808.72,-173 798.72,-169.5 798.72,-176.5"/>
</g>
<!-- Node6 -->
<g id="node6" class="node">
<title>Node6</title>
<g id="a_node6"><a xlink:href="namespaceImGui.html#a0c16791f4620e8db38511553d5d63335" target="_top" xlink:title=" ">
<polygon fill="white" stroke="#666666" points="758,-131.5 619,-131.5 619,-112.5 758,-112.5 758,-131.5"/>
<text text-anchor="middle" x="688.5" y="-119.5" font-family="Helvetica,sans-Serif" font-size="10.00">ImGui::TableHeadersRow</text>
</a>
</g>
</g>
<!-- Node1&#45;&gt;Node6 -->
<g id="edge5" class="edge">
<title>Node1&#45;&gt;Node6</title>
<path fill="none" stroke="#63b8ff" d="M824.27,-160.62C793.05,-151.67 751.5,-139.76 722.83,-131.55"/>
<polygon fill="#63b8ff" stroke="#63b8ff" points="823.44,-164.02 834.02,-163.41 825.37,-157.29 823.44,-164.02"/>
</g>
<!-- Node3 -->
<g id="node3" class="node">
<title>Node3</title>
<g id="a_node3"><a xlink:href="classmtgb_1_1ImGuiEditorCamera.html#af7c200997535135cd0f38310730829c7" target="_top" xlink:title=" ">
<polygon fill="white" stroke="#666666" points="553,-264 409,-264 409,-234 553,-234 553,-264"/>
<text text-anchor="start" x="417" y="-252" font-family="Helvetica,sans-Serif" font-size="10.00">mtgb::ImGuiEditorCamera</text>
<text text-anchor="middle" x="481" y="-241" font-family="Helvetica,sans-Serif" font-size="10.00">::SelectTransform</text>
</a>
</g>
</g>
<!-- Node2&#45;&gt;Node3 -->
<g id="edge2" class="edge">
<title>Node2&#45;&gt;Node3</title>
<path fill="none" stroke="#63b8ff" d="M610,-230.94C591.34,-233.57 571.5,-236.37 553.14,-238.96"/>
<polygon fill="#63b8ff" stroke="#63b8ff" points="610.51,-234.4 619.93,-229.54 609.54,-227.47 610.51,-234.4"/>
</g>
<!-- Node4 -->
<g id="node4" class="node">
<title>Node4</title>
<g id="a_node4"><a xlink:href="classmtgb_1_1ImGuiEditorCamera.html#ae593d5e8b81e1fe8d6efc3ddb8ecb9a2" target="_top" xlink:title=" ">
<polygon fill="white" stroke="#666666" points="342,-293 198,-293 198,-263 342,-263 342,-293"/>
<text text-anchor="start" x="206" y="-281" font-family="Helvetica,sans-Serif" font-size="10.00">mtgb::ImGuiEditorCamera</text>
<text text-anchor="middle" x="270" y="-270" font-family="Helvetica,sans-Serif" font-size="10.00">::ImGuiEditorCamera</text>
</a>
</g>
</g>
<!-- Node3&#45;&gt;Node4 -->
<g id="edge3" class="edge">
<title>Node3&#45;&gt;Node4</title>
<path fill="none" stroke="#63b8ff" d="M398.97,-260.24C380.25,-262.84 360.47,-265.59 342.21,-268.12"/>
<polygon fill="#63b8ff" stroke="#63b8ff" points="399.53,-263.7 408.95,-258.86 398.56,-256.77 399.53,-263.7"/>
</g>
<!-- Node7 -->
<g id="node7" class="node">
<title>Node7</title>
<g id="a_node7"><a xlink:href="namespaceImGui.html#a326f0badd138d1dea078a31b0e8dd685" target="_top" xlink:title=" ">
<polygon fill="white" stroke="#666666" points="555,-153.5 407,-153.5 407,-134.5 555,-134.5 555,-153.5"/>
<text text-anchor="middle" x="481" y="-141.5" font-family="Helvetica,sans-Serif" font-size="10.00">ImGui::DebugTextEncoding</text>
</a>
</g>
</g>
<!-- Node6&#45;&gt;Node7 -->
<g id="edge6" class="edge">
<title>Node6&#45;&gt;Node7</title>
<path fill="none" stroke="#63b8ff" d="M608.59,-130.45C591.05,-132.33 572.53,-134.31 555.23,-136.16"/>
<polygon fill="#63b8ff" stroke="#63b8ff" points="609.22,-133.9 618.79,-129.36 608.47,-126.94 609.22,-133.9"/>
</g>
<!-- Node10 -->
<g id="node10" class="node">
<title>Node10</title>
<g id="a_node10"><a xlink:href="imgui__demo_8cpp.html#a7ea459383a527c89e210e578e85ef5c8" target="_top" xlink:title=" ">
<polygon fill="white" stroke="#666666" points="328,-113.5 212,-113.5 212,-94.5 328,-94.5 328,-113.5"/>
<text text-anchor="middle" x="270" y="-101.5" font-family="Helvetica,sans-Serif" font-size="10.00">DemoWindowTables</text>
</a>
</g>
</g>
<!-- Node6&#45;&gt;Node10 -->
<g id="edge9" class="edge">
<title>Node6&#45;&gt;Node10</title>
<path fill="none" stroke="#63b8ff" d="M608.72,-118.6C526.9,-115.06 400.89,-109.61 328.14,-106.47"/>
<polygon fill="#63b8ff" stroke="#63b8ff" points="608.58,-122.09 618.72,-119.03 608.88,-115.1 608.58,-122.09"/>
</g>
<!-- Node11 -->
<g id="node11" class="node">
<title>Node11</title>
<g id="a_node11"><a xlink:href="imgui__demo_8cpp.html#a401c106ef9206d8dd4b4bc3271a6de6f" target="_top" xlink:title=" ">
<polygon fill="white" stroke="#666666" points="566,-78 396,-78 396,-48 566,-48 566,-78"/>
<text text-anchor="start" x="404" y="-66" font-family="Helvetica,sans-Serif" font-size="10.00">DemoWindowWidgetsSelection</text>
<text text-anchor="middle" x="481" y="-55" font-family="Helvetica,sans-Serif" font-size="10.00">AndMultiSelect</text>
</a>
</g>
</g>
<!-- Node6&#45;&gt;Node11 -->
<g id="edge11" class="edge">
<title>Node6&#45;&gt;Node11</title>
<path fill="none" stroke="#63b8ff" d="M644.06,-109.53C612.03,-100.33 568.31,-87.78 534.35,-78.03"/>
<polygon fill="#63b8ff" stroke="#63b8ff" points="643.45,-112.99 654.03,-112.39 645.38,-106.27 643.45,-112.99"/>
</g>
<!-- Node13 -->
<g id="node13" class="node">
<title>Node13</title>
<g id="a_node13"><a xlink:href="structExampleAssetsBrowser.html#a2b36e1f9b7d764e547611baa4c7fd8d1" target="_top" xlink:title=" ">
<polygon fill="white" stroke="#666666" points="546.5,-30 415.5,-30 415.5,0 546.5,0 546.5,-30"/>
<text text-anchor="start" x="423.5" y="-18" font-family="Helvetica,sans-Serif" font-size="10.00">ExampleAssetsBrowser</text>
<text text-anchor="middle" x="481" y="-7" font-family="Helvetica,sans-Serif" font-size="10.00">::Draw</text>
</a>
</g>
</g>
<!-- Node6&#45;&gt;Node13 -->
<g id="edge14" class="edge">
<title>Node6&#45;&gt;Node13</title>
<path fill="none" stroke="#63b8ff" d="M668.65,-105.88C646.09,-87.33 606.51,-57.11 568,-39 560.85,-35.64 553.13,-32.66 545.36,-30.05"/>
<polygon fill="#63b8ff" stroke="#63b8ff" points="666.51,-108.65 676.43,-112.37 670.99,-103.27 666.51,-108.65"/>
</g>
<!-- Node15 -->
<g id="node15" class="node">
<title>Node15</title>
<g id="a_node15"><a xlink:href="namespaceImGui.html#ab4a87bf4a874a8e5872b60b4a9b1d99e" target="_top" xlink:title=" ">
<polygon fill="white" stroke="#666666" points="568,-190.5 394,-190.5 394,-171.5 568,-171.5 568,-190.5"/>
<text text-anchor="middle" x="481" y="-178.5" font-family="Helvetica,sans-Serif" font-size="10.00">ImGui::ShowIDStackToolWindow</text>
</a>
</g>
</g>
<!-- Node6&#45;&gt;Node15 -->
<g id="edge17" class="edge">
<title>Node6&#45;&gt;Node15</title>
<path fill="none" stroke="#63b8ff" d="M647.56,-134.61C633.73,-139.06 618.15,-144.16 604,-149 587.9,-154.51 584.34,-157.27 568,-162 555.96,-165.49 542.81,-168.69 530.49,-171.43"/>
<polygon fill="#63b8ff" stroke="#63b8ff" points="648.82,-137.89 657.27,-131.5 646.68,-131.22 648.82,-137.89"/>
</g>
<!-- Node8 -->
<g id="node8" class="node">
<title>Node8</title>
<g id="a_node8"><a xlink:href="namespaceImGui.html#afe7a28c6eb52fff3cc27d5a698fea4ff" target="_top" xlink:title=" ">
<polygon fill="white" stroke="#666666" points="346.5,-150.5 193.5,-150.5 193.5,-131.5 346.5,-131.5 346.5,-150.5"/>
<text text-anchor="middle" x="270" y="-138.5" font-family="Helvetica,sans-Serif" font-size="10.00">ImGui::ShowMetricsWindow</text>
</a>
</g>
</g>
<!-- Node7&#45;&gt;Node8 -->
<g id="edge7" class="edge">
<title>Node7&#45;&gt;Node8</title>
<path fill="none" stroke="#63b8ff" d="M396.7,-142.8C380.13,-142.57 362.83,-142.32 346.54,-142.08"/>
<polygon fill="#63b8ff" stroke="#63b8ff" points="396.85,-146.31 406.9,-142.95 396.95,-139.31 396.85,-146.31"/>
</g>
<!-- Node9 -->
<g id="node9" class="node">
<title>Node9</title>
<g id="a_node9"><a xlink:href="namespaceImGui.html#af95643a0ce4893b9e57c12991922fb18" target="_top" xlink:title=" ">
<polygon fill="white" stroke="#666666" points="146,-113.5 0,-113.5 0,-94.5 146,-94.5 146,-113.5"/>
<text text-anchor="middle" x="73" y="-101.5" font-family="Helvetica,sans-Serif" font-size="10.00">ImGui::ShowDemoWindow</text>
</a>
</g>
</g>
<!-- Node8&#45;&gt;Node9 -->
<g id="edge8" class="edge">
<title>Node8&#45;&gt;Node9</title>
<path fill="none" stroke="#63b8ff" d="M208.66,-129.55C181.64,-124.42 150.13,-118.44 124.39,-113.56"/>
<polygon fill="#63b8ff" stroke="#63b8ff" points="208.31,-133.05 218.78,-131.47 209.61,-126.17 208.31,-133.05"/>
</g>
<!-- Node10&#45;&gt;Node9 -->
<g id="edge10" class="edge">
<title>Node10&#45;&gt;Node9</title>
<path fill="none" stroke="#63b8ff" d="M201.73,-104C183.77,-104 164.3,-104 146.1,-104"/>
<polygon fill="#63b8ff" stroke="#63b8ff" points="201.81,-107.5 211.81,-104 201.81,-100.5 201.81,-107.5"/>
</g>
<!-- Node12 -->
<g id="node12" class="node">
<title>Node12</title>
<g id="a_node12"><a xlink:href="imgui__demo_8cpp.html#a9a639caab781642cbc4f4a23bfbd11cd" target="_top" xlink:title=" ">
<polygon fill="white" stroke="#666666" points="332.5,-73.5 207.5,-73.5 207.5,-54.5 332.5,-54.5 332.5,-73.5"/>
<text text-anchor="middle" x="270" y="-61.5" font-family="Helvetica,sans-Serif" font-size="10.00">DemoWindowWidgets</text>
</a>
</g>
</g>
<!-- Node11&#45;&gt;Node12 -->
<g id="edge12" class="edge">
<title>Node11&#45;&gt;Node12</title>
<path fill="none" stroke="#63b8ff" d="M385.68,-63.45C367.73,-63.54 349.38,-63.62 332.76,-63.7"/>
<polygon fill="#63b8ff" stroke="#63b8ff" points="385.91,-66.95 395.9,-63.4 385.88,-59.95 385.91,-66.95"/>
</g>
<!-- Node12&#45;&gt;Node9 -->
<g id="edge13" class="edge">
<title>Node12&#45;&gt;Node9</title>
<path fill="none" stroke="#63b8ff" d="M212.23,-75.64C183.03,-81.64 147.87,-88.85 120.33,-94.5"/>
<polygon fill="#63b8ff" stroke="#63b8ff" points="213.2,-79.02 222.29,-73.58 211.79,-72.16 213.2,-79.02"/>
</g>
<!-- Node14 -->
<g id="node14" class="node">
<title>Node14</title>
<g id="a_node14"><a xlink:href="imgui__demo_8cpp.html#a83fdfc359b5a0432835090acd227690f" target="_top" xlink:title=" ">
<polygon fill="white" stroke="#666666" points="358,-31.5 182,-31.5 182,-12.5 358,-12.5 358,-31.5"/>
<text text-anchor="middle" x="270" y="-19.5" font-family="Helvetica,sans-Serif" font-size="10.00">ShowExampleAppAssetsBrowser</text>
</a>
</g>
</g>
<!-- Node13&#45;&gt;Node14 -->
<g id="edge15" class="edge">
<title>Node13&#45;&gt;Node14</title>
<path fill="none" stroke="#63b8ff" d="M404.94,-17.51C389.74,-18.02 373.63,-18.56 358.05,-19.08"/>
<polygon fill="#63b8ff" stroke="#63b8ff" points="405.43,-21 415.3,-17.17 405.19,-14 405.43,-21"/>
</g>
<!-- Node14&#45;&gt;Node9 -->
<g id="edge16" class="edge">
<title>Node14&#45;&gt;Node9</title>
<path fill="none" stroke="#63b8ff" d="M214.6,-34.21C203.65,-37.28 192.33,-40.88 182,-45 147.07,-58.92 109.12,-81.59 88.81,-94.39"/>
<polygon fill="#63b8ff" stroke="#63b8ff" points="215.76,-37.53 224.52,-31.56 213.95,-30.76 215.76,-37.53"/>
</g>
<!-- Node15&#45;&gt;Node8 -->
<g id="edge19" class="edge">
<title>Node15&#45;&gt;Node8</title>
<path fill="none" stroke="#63b8ff" d="M420.24,-169.56C388.77,-163.54 350.62,-156.24 320.78,-150.53"/>
<polygon fill="#63b8ff" stroke="#63b8ff" points="419.73,-173.03 430.2,-171.47 421.04,-166.15 419.73,-173.03"/>
</g>
<!-- Node15&#45;&gt;Node9 -->
<g id="edge18" class="edge">
<title>Node15&#45;&gt;Node9</title>
<path fill="none" stroke="#63b8ff" d="M383.59,-183.47C324.42,-182.65 247.65,-177.34 182,-159 146.13,-148.98 108.23,-126.52 88.26,-113.62"/>
<polygon fill="#63b8ff" stroke="#63b8ff" points="383.65,-186.97 393.68,-183.57 383.72,-179.97 383.65,-186.97"/>
</g>
<!-- Node16 -->
<g id="node16" class="node">
<title>Node16</title>
<g id="a_node16"><a xlink:href="namespaceImGui.html#a1b6e100d30894c9379908efc540e5486" target="_top" xlink:title=" ">
<polygon fill="white" stroke="#666666" points="352,-226.5 188,-226.5 188,-207.5 352,-207.5 352,-226.5"/>
<text text-anchor="middle" x="270" y="-214.5" font-family="Helvetica,sans-Serif" font-size="10.00">ImGui::ShowStackToolWindow</text>
</a>
</g>
</g>
<!-- Node15&#45;&gt;Node16 -->
<g id="edge20" class="edge">
<title>Node15&#45;&gt;Node16</title>
<path fill="none" stroke="#63b8ff" d="M414.61,-192.26C386.33,-197.13 353.57,-202.78 326.5,-207.44"/>
<polygon fill="#63b8ff" stroke="#63b8ff" points="415.55,-195.65 424.81,-190.51 414.37,-188.75 415.55,-195.65"/>
</g>
<!-- Node16&#45;&gt;Node16 -->
<g id="edge21" class="edge">
<title>Node16&#45;&gt;Node16</title>
<path fill="none" stroke="#63b8ff" d="M306.75,-234.19C306.74,-239.92 294.49,-244.5 270,-244.5 235.16,-244.5 225.09,-235.23 239.79,-226.58"/>
<polygon fill="#63b8ff" stroke="#63b8ff" points="309.38,-231.88 300.21,-226.58 304.07,-236.45 309.38,-231.88"/>
</g>
</g>
</svg>
