<?xml version="1.0" encoding="UTF-8" standalone="no"?>
<!DOCTYPE svg PUBLIC "-//W3C//DTD SVG 1.1//EN"
 "http://www.w3.org/Graphics/SVG/1.1/DTD/svg11.dtd">
<!-- Generated by graphviz version 2.43.0 (0)
 -->
<!-- Title: GraphEditor::DrawNode Pages: 1 -->
<svg width="1280pt" height="910pt"
 viewBox="0.00 0.00 1280.00 909.78" xmlns="http://www.w3.org/2000/svg" xmlns:xlink="http://www.w3.org/1999/xlink">
<g id="graph0" class="graph" transform="scale(1 1) rotate(0) translate(4 905.78)">
<title>GraphEditor::DrawNode</title>
<!-- Node1 -->
<g id="node1" class="node">
<title>Node1</title>
<g id="a_node1"><a xlink:title=" ">
<polygon fill="#999999" stroke="#666666" points="131,-409.5 0,-409.5 0,-390.5 131,-390.5 131,-409.5"/>
<text text-anchor="middle" x="65.5" y="-397.5" font-family="Helvetica,sans-Serif" font-size="10.00">GraphEditor::DrawNode</text>
</a>
</g>
</g>
<!-- Node2 -->
<g id="node2" class="node">
<title>Node2</title>
<g id="a_node2"><a xlink:href="structImDrawList.html#ad96f10a3e954fe0c5b7c96d4e205af7b" target="_top" xlink:title=" ">
<polygon fill="white" stroke="#666666" points="697.5,-672.5 578.5,-672.5 578.5,-653.5 697.5,-653.5 697.5,-672.5"/>
<text text-anchor="middle" x="638" y="-660.5" font-family="Helvetica,sans-Serif" font-size="10.00">ImDrawList::AddRect</text>
</a>
</g>
</g>
<!-- Node1&#45;&gt;Node2 -->
<g id="edge1" class="edge">
<title>Node1&#45;&gt;Node2</title>
<path fill="none" stroke="#63b8ff" d="M67.64,-409.94C72.38,-446.42 93.76,-574.17 167,-640 287.8,-748.59 370.2,-745.39 527,-703 544.88,-698.17 545.87,-689.04 563,-682 568.96,-679.55 575.32,-677.35 581.71,-675.39"/>
<polygon fill="#63b8ff" stroke="#63b8ff" points="583.1,-678.63 591.74,-672.5 581.16,-671.9 583.1,-678.63"/>
</g>
<!-- Node5 -->
<g id="node5" class="node">
<title>Node5</title>
<g id="a_node5"><a xlink:href="imgui__internal_8h.html#a7f9d7828066a9d61b5630adcdf4655d3" target="_top" xlink:title=" ">
<polygon fill="white" stroke="#666666" points="1069,-891.5 1022,-891.5 1022,-872.5 1069,-872.5 1069,-891.5"/>
<text text-anchor="middle" x="1045.5" y="-879.5" font-family="Helvetica,sans-Serif" font-size="10.00">ImMin</text>
</a>
</g>
</g>
<!-- Node1&#45;&gt;Node5 -->
<g id="edge29" class="edge">
<title>Node1&#45;&gt;Node5</title>
<path fill="none" stroke="#63b8ff" d="M67.4,-409.7C72.99,-467.6 104.65,-767.13 167,-830 258.62,-922.38 321.39,-899 451.5,-899 451.5,-899 451.5,-899 639,-899 777.45,-899 942.25,-888.99 1011.39,-884.33"/>
<polygon fill="#63b8ff" stroke="#63b8ff" points="1011.91,-887.8 1021.65,-883.63 1011.43,-880.82 1011.91,-887.8"/>
</g>
<!-- Node17 -->
<g id="node10" class="node">
<title>Node17</title>
<g id="a_node10"><a xlink:href="structImDrawList.html#a6b16ab764160b0251d2e7b3bd08c1ffc" target="_top" xlink:title=" ">
<polygon fill="white" stroke="#666666" points="525,-824.5 380,-824.5 380,-805.5 525,-805.5 525,-824.5"/>
<text text-anchor="middle" x="452.5" y="-812.5" font-family="Helvetica,sans-Serif" font-size="10.00">ImDrawList::AddRectFilled</text>
</a>
</g>
</g>
<!-- Node1&#45;&gt;Node17 -->
<g id="edge10" class="edge">
<title>Node1&#45;&gt;Node17</title>
<path fill="none" stroke="#63b8ff" d="M67.46,-409.81C73.15,-465.75 104.32,-743.8 167,-796 234.38,-852.12 344.73,-839.67 406.32,-826.68"/>
<polygon fill="#63b8ff" stroke="#63b8ff" points="407.13,-830.08 416.14,-824.51 405.62,-823.25 407.13,-830.08"/>
</g>
<!-- Node23 -->
<g id="node17" class="node">
<title>Node23</title>
<g id="a_node17"><a xlink:href="structImDrawList.html#ac5221bd86b3429f6d5b6e6ffe454942d" target="_top" xlink:title=" ">
<polygon fill="white" stroke="#666666" points="313,-409.5 196,-409.5 196,-390.5 313,-390.5 313,-409.5"/>
<text text-anchor="middle" x="254.5" y="-397.5" font-family="Helvetica,sans-Serif" font-size="10.00">ImDrawList::AddText</text>
</a>
</g>
</g>
<!-- Node1&#45;&gt;Node23 -->
<g id="edge19" class="edge">
<title>Node1&#45;&gt;Node23</title>
<path fill="none" stroke="#63b8ff" d="M131.12,-400C148.68,-400 167.75,-400 185.49,-400"/>
<polygon fill="#63b8ff" stroke="#63b8ff" points="185.76,-403.5 195.76,-400 185.76,-396.5 185.76,-403.5"/>
</g>
<!-- Node24 -->
<g id="node18" class="node">
<title>Node24</title>
<g id="a_node18"><a xlink:href="structImDrawList.html#aba9e93d0bf1c3884beb726e96360d2e2" target="_top" xlink:title=" ">
<polygon fill="white" stroke="#666666" points="342,-786.5 167,-786.5 167,-767.5 342,-767.5 342,-786.5"/>
<text text-anchor="middle" x="254.5" y="-774.5" font-family="Helvetica,sans-Serif" font-size="10.00">ImDrawList::ChannelsSetCurrent</text>
</a>
</g>
</g>
<!-- Node1&#45;&gt;Node24 -->
<g id="edge21" class="edge">
<title>Node1&#45;&gt;Node24</title>
<path fill="none" stroke="#63b8ff" d="M66.1,-409.53C64.73,-454.97 65.06,-651.74 167,-753 170.94,-756.91 175.46,-760.2 180.32,-762.96"/>
<polygon fill="#63b8ff" stroke="#63b8ff" points="178.86,-766.15 189.38,-767.39 181.93,-759.86 178.86,-766.15"/>
</g>
<!-- Node26 -->
<g id="node20" class="node">
<title>Node26</title>
<g id="a_node20"><a xlink:href="structGraphEditor_1_1Delegate.html#a5605e4ff314a2bcd6cfd17f7c1c291b9" target="_top" xlink:title=" ">
<polygon fill="white" stroke="#666666" points="317,-372 192,-372 192,-342 317,-342 317,-372"/>
<text text-anchor="start" x="200" y="-360" font-family="Helvetica,sans-Serif" font-size="10.00">GraphEditor::Delegate</text>
<text text-anchor="middle" x="254.5" y="-349" font-family="Helvetica,sans-Serif" font-size="10.00">::CustomDraw</text>
</a>
</g>
</g>
<!-- Node1&#45;&gt;Node26 -->
<g id="edge24" class="edge">
<title>Node1&#45;&gt;Node26</title>
<path fill="none" stroke="#63b8ff" d="M108,-390.46C129.75,-385.45 157.01,-379.19 182.04,-373.43"/>
<polygon fill="#63b8ff" stroke="#63b8ff" points="182.91,-376.82 191.87,-371.17 181.34,-370 182.91,-376.82"/>
</g>
<!-- Node27 -->
<g id="node21" class="node">
<title>Node27</title>
<g id="a_node21"><a xlink:href="namespaceImGui.html#a3179e560812f878f3961ce803a5d9302" target="_top" xlink:title=" ">
<polygon fill="white" stroke="#666666" points="294.5,-323.5 214.5,-323.5 214.5,-304.5 294.5,-304.5 294.5,-323.5"/>
<text text-anchor="middle" x="254.5" y="-311.5" font-family="Helvetica,sans-Serif" font-size="10.00">ImGui::GetIO</text>
</a>
</g>
</g>
<!-- Node1&#45;&gt;Node27 -->
<g id="edge25" class="edge">
<title>Node1&#45;&gt;Node27</title>
<path fill="none" stroke="#63b8ff" d="M77.74,-390.43C95.5,-375.8 131.69,-348.02 167,-333 178.72,-328.01 191.92,-324.27 204.4,-321.48"/>
<polygon fill="#63b8ff" stroke="#63b8ff" points="205.14,-324.9 214.22,-319.44 203.72,-318.04 205.14,-324.9"/>
</g>
<!-- Node28 -->
<g id="node22" class="node">
<title>Node28</title>
<g id="a_node22"><a xlink:href="structGraphEditor_1_1Delegate.html#a323250ea15c43e1674050f6f57185ebd" target="_top" xlink:title=" ">
<polygon fill="white" stroke="#666666" points="317,-286 192,-286 192,-256 317,-256 317,-286"/>
<text text-anchor="start" x="200" y="-274" font-family="Helvetica,sans-Serif" font-size="10.00">GraphEditor::Delegate</text>
<text text-anchor="middle" x="254.5" y="-263" font-family="Helvetica,sans-Serif" font-size="10.00">::GetNode</text>
</a>
</g>
</g>
<!-- Node1&#45;&gt;Node28 -->
<g id="edge26" class="edge">
<title>Node1&#45;&gt;Node28</title>
<path fill="none" stroke="#63b8ff" d="M73.08,-390.35C87.58,-369.83 124.41,-321.64 167,-296 171.77,-293.13 176.89,-290.57 182.17,-288.3"/>
<polygon fill="#63b8ff" stroke="#63b8ff" points="183.77,-291.43 191.79,-284.5 181.21,-284.91 183.77,-291.43"/>
</g>
<!-- Node29 -->
<g id="node23" class="node">
<title>Node29</title>
<g id="a_node23"><a xlink:href="structGraphEditor_1_1Delegate.html#a7341cdef22ec5c1ce8ab5f35f7b48b7d" target="_top" xlink:title=" ">
<polygon fill="white" stroke="#666666" points="317,-238 192,-238 192,-208 317,-208 317,-238"/>
<text text-anchor="start" x="200" y="-226" font-family="Helvetica,sans-Serif" font-size="10.00">GraphEditor::Delegate</text>
<text text-anchor="middle" x="254.5" y="-215" font-family="Helvetica,sans-Serif" font-size="10.00">::GetNodeCount</text>
</a>
</g>
</g>
<!-- Node1&#45;&gt;Node29 -->
<g id="edge27" class="edge">
<title>Node1&#45;&gt;Node29</title>
<path fill="none" stroke="#63b8ff" d="M69.99,-390.38C80.31,-363.35 113.34,-286.14 167,-247 171.76,-243.53 177,-240.56 182.47,-238.02"/>
<polygon fill="#63b8ff" stroke="#63b8ff" points="183.96,-241.19 191.86,-234.14 181.29,-234.72 183.96,-241.19"/>
</g>
<!-- Node30 -->
<g id="node24" class="node">
<title>Node30</title>
<g id="a_node24"><a xlink:href="structGraphEditor_1_1Delegate.html#a44f30f6586c93fc625dd5bea334439a4" target="_top" xlink:title=" ">
<polygon fill="white" stroke="#666666" points="317,-190 192,-190 192,-160 317,-160 317,-190"/>
<text text-anchor="start" x="200" y="-178" font-family="Helvetica,sans-Serif" font-size="10.00">GraphEditor::Delegate</text>
<text text-anchor="middle" x="254.5" y="-167" font-family="Helvetica,sans-Serif" font-size="10.00">::GetTemplate</text>
</a>
</g>
</g>
<!-- Node1&#45;&gt;Node30 -->
<g id="edge28" class="edge">
<title>Node1&#45;&gt;Node30</title>
<path fill="none" stroke="#63b8ff" d="M68.43,-390.29C75.37,-357.85 102.25,-252.32 167,-199 171.62,-195.19 176.81,-191.99 182.28,-189.29"/>
<polygon fill="#63b8ff" stroke="#63b8ff" points="183.93,-192.39 191.72,-185.21 181.15,-185.96 183.93,-192.39"/>
</g>
<!-- Node31 -->
<g id="node25" class="node">
<title>Node31</title>
<g id="a_node25"><a xlink:href="namespaceImGui.html#a1f61951b9d3a38083bd77b1dbe3ea895" target="_top" xlink:title=" ">
<polygon fill="white" stroke="#666666" points="317,-503.5 192,-503.5 192,-484.5 317,-484.5 317,-503.5"/>
<text text-anchor="middle" x="254.5" y="-491.5" font-family="Helvetica,sans-Serif" font-size="10.00">ImGui::InvisibleButton</text>
</a>
</g>
</g>
<!-- Node1&#45;&gt;Node31 -->
<g id="edge30" class="edge">
<title>Node1&#45;&gt;Node31</title>
<path fill="none" stroke="#63b8ff" d="M77.48,-409.55C95.17,-424.47 131.59,-453.35 167,-470 176.83,-474.62 187.71,-478.5 198.35,-481.71"/>
<polygon fill="#63b8ff" stroke="#63b8ff" points="197.44,-485.09 208.01,-484.46 199.36,-478.36 197.44,-485.09"/>
</g>
<!-- Node62 -->
<g id="node29" class="node">
<title>Node62</title>
<g id="a_node29"><a xlink:href="namespaceImGui.html#ac9a400eff3a9561d95e80486c52a660b" target="_top" xlink:title=" ">
<polygon fill="white" stroke="#666666" points="700,-334.5 576,-334.5 576,-315.5 700,-315.5 700,-334.5"/>
<text text-anchor="middle" x="638" y="-322.5" font-family="Helvetica,sans-Serif" font-size="10.00">ImGui::IsItemHovered</text>
</a>
</g>
</g>
<!-- Node1&#45;&gt;Node62 -->
<g id="edge61" class="edge">
<title>Node1&#45;&gt;Node62</title>
<path fill="none" stroke="#63b8ff" d="M83.51,-409.56C129.66,-434.08 259.29,-493.45 342,-437 378.27,-412.25 342.71,-371.13 378,-345 437.37,-301.03 526.8,-305.14 583.52,-313.81"/>
<polygon fill="#63b8ff" stroke="#63b8ff" points="583.28,-317.31 593.71,-315.47 584.41,-310.4 583.28,-317.31"/>
</g>
<!-- Node150 -->
<g id="node40" class="node">
<title>Node150</title>
<g id="a_node40"><a xlink:href="structImDrawList.html#a44f40c59ca755f559020f5a7fa81103a" target="_top" xlink:title=" ">
<polygon fill="white" stroke="#666666" points="706.5,-635.5 569.5,-635.5 569.5,-616.5 706.5,-616.5 706.5,-635.5"/>
<text text-anchor="middle" x="638" y="-623.5" font-family="Helvetica,sans-Serif" font-size="10.00">ImDrawList::PopClipRect</text>
</a>
</g>
</g>
<!-- Node1&#45;&gt;Node150 -->
<g id="edge66" class="edge">
<title>Node1&#45;&gt;Node150</title>
<path fill="none" stroke="#63b8ff" d="M69.49,-409.51C79.1,-438.67 111.79,-527.95 167,-580 242.79,-651.45 276.47,-658.75 378,-682 442.55,-696.78 465.99,-707.76 527,-682 548.14,-673.07 543.15,-656.5 563,-645 566.85,-642.77 570.96,-640.8 575.19,-639.06"/>
<polygon fill="#63b8ff" stroke="#63b8ff" points="576.44,-642.33 584.62,-635.59 574.03,-635.76 576.44,-642.33"/>
</g>
<!-- Node86 -->
<g id="node43" class="node">
<title>Node86</title>
<g id="a_node43"><a xlink:href="structImDrawList.html#a608a9d9a83715ba87dced8321ed64329" target="_top" xlink:title=" ">
<polygon fill="white" stroke="#666666" points="709,-597.5 567,-597.5 567,-578.5 709,-578.5 709,-597.5"/>
<text text-anchor="middle" x="638" y="-585.5" font-family="Helvetica,sans-Serif" font-size="10.00">ImDrawList::PushClipRect</text>
</a>
</g>
</g>
<!-- Node1&#45;&gt;Node86 -->
<g id="edge67" class="edge">
<title>Node1&#45;&gt;Node86</title>
<path fill="none" stroke="#63b8ff" d="M70.37,-409.74C81.19,-435.62 114.49,-506.27 167,-538 289.43,-611.99 463.07,-608.4 561.4,-598.57"/>
<polygon fill="#63b8ff" stroke="#63b8ff" points="561.97,-602.03 571.55,-597.51 561.24,-595.07 561.97,-602.03"/>
</g>
<!-- Node504 -->
<g id="node44" class="node">
<title>Node504</title>
<g id="a_node44"><a xlink:href="namespaceImGui.html#acdc18199d50d26919312db5f9707b8dc" target="_top" xlink:title=" ">
<polygon fill="white" stroke="#666666" points="320.5,-141.5 188.5,-141.5 188.5,-122.5 320.5,-122.5 320.5,-141.5"/>
<text text-anchor="middle" x="254.5" y="-129.5" font-family="Helvetica,sans-Serif" font-size="10.00">ImGui::IsAnyItemActive</text>
</a>
</g>
</g>
<!-- Node1&#45;&gt;Node504 -->
<g id="edge59" class="edge">
<title>Node1&#45;&gt;Node504</title>
<path fill="none" stroke="#63b8ff" d="M67.28,-390.29C70.83,-352.89 88.85,-217.05 167,-151 170.7,-147.88 174.79,-145.23 179.13,-143"/>
<polygon fill="#63b8ff" stroke="#63b8ff" points="180.57,-146.19 188.33,-138.97 177.76,-139.78 180.57,-146.19"/>
</g>
<!-- Node453 -->
<g id="node45" class="node">
<title>Node453</title>
<g id="a_node45"><a xlink:href="namespaceImGui.html#a2d8ac4569456a8003e4dddd39caf771c" target="_top" xlink:title=" ">
<polygon fill="white" stroke="#666666" points="311,-104.5 198,-104.5 198,-85.5 311,-85.5 311,-104.5"/>
<text text-anchor="middle" x="254.5" y="-92.5" font-family="Helvetica,sans-Serif" font-size="10.00">ImGui::IsItemActive</text>
</a>
</g>
</g>
<!-- Node1&#45;&gt;Node453 -->
<g id="edge60" class="edge">
<title>Node1&#45;&gt;Node453</title>
<path fill="none" stroke="#63b8ff" d="M66.72,-390.3C68.18,-349.65 79.51,-191.44 167,-114 173.14,-108.57 180.47,-104.57 188.24,-101.65"/>
<polygon fill="#63b8ff" stroke="#63b8ff" points="189.4,-104.96 197.87,-98.6 187.28,-98.28 189.4,-104.96"/>
</g>
<!-- Node505 -->
<g id="node46" class="node">
<title>Node505</title>
<g id="a_node46"><a xlink:href="namespaceImGui.html#a51ed119ab4be7fcf47a34644e262c87e" target="_top" xlink:title=" ">
<polygon fill="white" stroke="#666666" points="324,-67.5 185,-67.5 185,-48.5 324,-48.5 324,-67.5"/>
<text text-anchor="middle" x="254.5" y="-55.5" font-family="Helvetica,sans-Serif" font-size="10.00">ImGui::IsWindowFocused</text>
</a>
</g>
</g>
<!-- Node1&#45;&gt;Node505 -->
<g id="edge62" class="edge">
<title>Node1&#45;&gt;Node505</title>
<path fill="none" stroke="#63b8ff" d="M66.28,-390.29C65.83,-346.54 70.09,-165.96 167,-77 169.69,-74.53 172.62,-72.36 175.73,-70.45"/>
<polygon fill="#63b8ff" stroke="#63b8ff" points="177.61,-73.42 184.89,-65.72 174.4,-67.19 177.61,-73.42"/>
</g>
<!-- Node506 -->
<g id="node49" class="node">
<title>Node506</title>
<g id="a_node49"><a xlink:href="structGraphEditor_1_1Delegate.html#a0fb43eabe5eb2e237e5d2c45d3efa547" target="_top" xlink:title=" ">
<polygon fill="white" stroke="#666666" points="317,-30 192,-30 192,0 317,0 317,-30"/>
<text text-anchor="start" x="200" y="-18" font-family="Helvetica,sans-Serif" font-size="10.00">GraphEditor::Delegate</text>
<text text-anchor="middle" x="254.5" y="-7" font-family="Helvetica,sans-Serif" font-size="10.00">::SelectNode</text>
</a>
</g>
</g>
<!-- Node1&#45;&gt;Node506 -->
<g id="edge68" class="edge">
<title>Node1&#45;&gt;Node506</title>
<path fill="none" stroke="#63b8ff" d="M66.02,-390.26C64.29,-343.81 63.22,-142.69 167,-39 171.56,-34.45 176.9,-30.74 182.65,-27.72"/>
<polygon fill="#63b8ff" stroke="#63b8ff" points="184.3,-30.82 191.98,-23.52 181.43,-24.43 184.3,-30.82"/>
</g>
<!-- Node507 -->
<g id="node50" class="node">
<title>Node507</title>
<g id="a_node50"><a xlink:href="namespaceImGui.html#a632bc7e15b8258f95ab0bc9b2efd5537" target="_top" xlink:title=" ">
<polygon fill="white" stroke="#666666" points="527,-522.5 378,-522.5 378,-503.5 527,-503.5 527,-522.5"/>
<text text-anchor="middle" x="452.5" y="-510.5" font-family="Helvetica,sans-Serif" font-size="10.00">ImGui::SetCursorScreenPos</text>
</a>
</g>
</g>
<!-- Node1&#45;&gt;Node507 -->
<g id="edge69" class="edge">
<title>Node1&#45;&gt;Node507</title>
<path fill="none" stroke="#63b8ff" d="M71.39,-409.72C83.67,-432.91 118.38,-491.17 167,-513 243.73,-547.44 344.25,-536.07 402.97,-524.59"/>
<polygon fill="#63b8ff" stroke="#63b8ff" points="403.98,-527.95 413.08,-522.53 402.59,-521.09 403.98,-527.95"/>
</g>
<!-- Node3 -->
<g id="node3" class="node">
<title>Node3</title>
<g id="a_node3"><a xlink:href="structImDrawList.html#a2251eb264ed8b17a253c409787375053" target="_top" xlink:title=" ">
<polygon fill="white" stroke="#666666" points="903.5,-838.5 782.5,-838.5 782.5,-819.5 903.5,-819.5 903.5,-838.5"/>
<text text-anchor="middle" x="843" y="-826.5" font-family="Helvetica,sans-Serif" font-size="10.00">ImDrawList::PathRect</text>
</a>
</g>
</g>
<!-- Node2&#45;&gt;Node3 -->
<g id="edge2" class="edge">
<title>Node2&#45;&gt;Node3</title>
<path fill="none" stroke="#63b8ff" d="M697.53,-671.59C703.23,-674.24 708.55,-677.64 713,-682 755.53,-723.65 705.24,-770.65 749,-811 755.75,-817.22 763.97,-821.59 772.71,-824.61"/>
<polygon fill="#63b8ff" stroke="#63b8ff" points="771.77,-827.98 782.35,-827.38 773.71,-821.25 771.77,-827.98"/>
</g>
<!-- Node16 -->
<g id="node9" class="node">
<title>Node16</title>
<g id="a_node9"><a xlink:href="structImDrawList.html#a60bf9040ef3d09b39c4ba8f5a2a68ae9" target="_top" xlink:title=" ">
<polygon fill="white" stroke="#666666" points="908,-677.5 778,-677.5 778,-658.5 908,-658.5 908,-677.5"/>
<text text-anchor="middle" x="843" y="-665.5" font-family="Helvetica,sans-Serif" font-size="10.00">ImDrawList::PathStroke</text>
</a>
</g>
</g>
<!-- Node2&#45;&gt;Node16 -->
<g id="edge9" class="edge">
<title>Node2&#45;&gt;Node16</title>
<path fill="none" stroke="#63b8ff" d="M697.72,-664.45C719.54,-664.98 744.6,-665.6 767.65,-666.17"/>
<polygon fill="#63b8ff" stroke="#63b8ff" points="767.65,-669.67 777.73,-666.42 767.82,-662.67 767.65,-669.67"/>
</g>
<!-- Node4 -->
<g id="node4" class="node">
<title>Node4</title>
<g id="a_node4"><a xlink:href="imgui__draw_8cpp.html#abc26563004ba48126f2e8b70ea0067af" target="_top" xlink:title=" ">
<polygon fill="white" stroke="#666666" points="1101,-764.5 990,-764.5 990,-745.5 1101,-745.5 1101,-764.5"/>
<text text-anchor="middle" x="1045.5" y="-752.5" font-family="Helvetica,sans-Serif" font-size="10.00">FixRectCornerFlags</text>
</a>
</g>
</g>
<!-- Node3&#45;&gt;Node4 -->
<g id="edge3" class="edge">
<title>Node3&#45;&gt;Node4</title>
<path fill="none" stroke="#63b8ff" d="M903.9,-822.96C915.33,-820.29 926.87,-816.47 937,-811 957.19,-800.1 953.2,-785.59 973,-774 976.85,-771.75 980.96,-769.76 985.2,-768"/>
<polygon fill="#63b8ff" stroke="#63b8ff" points="986.47,-771.27 994.64,-764.51 984.05,-764.7 986.47,-771.27"/>
</g>
<!-- Node3&#45;&gt;Node5 -->
<g id="edge4" class="edge">
<title>Node3&#45;&gt;Node5</title>
<path fill="none" stroke="#63b8ff" d="M880.31,-838.6C917.8,-848.51 975.76,-863.83 1011.85,-873.37"/>
<polygon fill="#63b8ff" stroke="#63b8ff" points="1011.29,-876.84 1021.85,-876.01 1013.08,-870.07 1011.29,-876.84"/>
</g>
<!-- Node6 -->
<g id="node6" class="node">
<title>Node6</title>
<g id="a_node6"><a xlink:href="structImDrawList.html#a6d307c6de1a6522e76fa410e8fe96fcc" target="_top" xlink:title=" ">
<polygon fill="#fff0f0" stroke="red" points="1118,-838.5 973,-838.5 973,-819.5 1118,-819.5 1118,-838.5"/>
<text text-anchor="middle" x="1045.5" y="-826.5" font-family="Helvetica,sans-Serif" font-size="10.00">ImDrawList::PathArcToFast</text>
</a>
</g>
</g>
<!-- Node3&#45;&gt;Node6 -->
<g id="edge5" class="edge">
<title>Node3&#45;&gt;Node6</title>
<path fill="none" stroke="#63b8ff" d="M903.61,-829C922.09,-829 942.79,-829 962.51,-829"/>
<polygon fill="#63b8ff" stroke="#63b8ff" points="962.72,-832.5 972.72,-829 962.72,-825.5 962.72,-832.5"/>
</g>
<!-- Node15 -->
<g id="node8" class="node">
<title>Node15</title>
<g id="a_node8"><a xlink:href="structImDrawList.html#a828d944325ed58d8b57abd3647bffaaf" target="_top" xlink:title=" ">
<polygon fill="white" stroke="#666666" points="1110.5,-801.5 980.5,-801.5 980.5,-782.5 1110.5,-782.5 1110.5,-801.5"/>
<text text-anchor="middle" x="1045.5" y="-789.5" font-family="Helvetica,sans-Serif" font-size="10.00">ImDrawList::PathLineTo</text>
</a>
</g>
</g>
<!-- Node3&#45;&gt;Node15 -->
<g id="edge7" class="edge">
<title>Node3&#45;&gt;Node15</title>
<path fill="none" stroke="#63b8ff" d="M895.63,-819.47C922.19,-814.57 954.76,-808.56 982.65,-803.41"/>
<polygon fill="#63b8ff" stroke="#63b8ff" points="983.49,-806.82 992.69,-801.56 982.22,-799.93 983.49,-806.82"/>
</g>
<!-- Node11 -->
<g id="node7" class="node">
<title>Node11</title>
<g id="a_node7"><a xlink:href="structImVector.html#aab5df48e0711a48bd12f3206e08c4108" target="_top" xlink:title=" ">
<polygon fill="#fff0f0" stroke="red" points="1272,-764.5 1154,-764.5 1154,-745.5 1272,-745.5 1272,-764.5"/>
<text text-anchor="middle" x="1213" y="-752.5" font-family="Helvetica,sans-Serif" font-size="10.00">ImVector::push_back</text>
</a>
</g>
</g>
<!-- Node6&#45;&gt;Node11 -->
<g id="edge6" class="edge">
<title>Node6&#45;&gt;Node11</title>
<path fill="none" stroke="#63b8ff" d="M1092.91,-819.41C1101.4,-817.07 1110.07,-814.28 1118,-811 1144.25,-800.15 1171.91,-782.87 1190.37,-770.37"/>
<polygon fill="#63b8ff" stroke="#63b8ff" points="1192.4,-773.22 1198.65,-764.67 1188.43,-767.46 1192.4,-773.22"/>
</g>
<!-- Node15&#45;&gt;Node11 -->
<g id="edge8" class="edge">
<title>Node15&#45;&gt;Node11</title>
<path fill="none" stroke="#63b8ff" d="M1089.12,-782.47C1110.56,-777.68 1136.75,-771.82 1159.43,-766.75"/>
<polygon fill="#63b8ff" stroke="#63b8ff" points="1160.24,-770.16 1169.24,-764.56 1158.71,-763.33 1160.24,-770.16"/>
</g>
<!-- Node17&#45;&gt;Node3 -->
<g id="edge12" class="edge">
<title>Node17&#45;&gt;Node3</title>
<path fill="none" stroke="#63b8ff" d="M483.81,-824.57C505.59,-830.93 535.79,-838.69 563,-842 633.92,-850.61 715.62,-845.01 772.2,-838.7"/>
<polygon fill="#63b8ff" stroke="#63b8ff" points="772.93,-842.13 782.46,-837.51 772.13,-835.18 772.93,-842.13"/>
</g>
<!-- Node18 -->
<g id="node11" class="node">
<title>Node18</title>
<g id="a_node11"><a xlink:href="structImDrawList.html#aea9301cb99ebf4b27f5d3959017567c9" target="_top" xlink:title=" ">
<polygon fill="white" stroke="#666666" points="713,-832.5 563,-832.5 563,-813.5 713,-813.5 713,-832.5"/>
<text text-anchor="middle" x="638" y="-820.5" font-family="Helvetica,sans-Serif" font-size="10.00">ImDrawList::PathFillConvex</text>
</a>
</g>
</g>
<!-- Node17&#45;&gt;Node18 -->
<g id="edge11" class="edge">
<title>Node17&#45;&gt;Node18</title>
<path fill="none" stroke="#63b8ff" d="M525.23,-818.13C534.22,-818.52 543.47,-818.92 552.62,-819.32"/>
<polygon fill="#63b8ff" stroke="#63b8ff" points="552.75,-822.83 562.9,-819.77 553.06,-815.84 552.75,-822.83"/>
</g>
<!-- Node19 -->
<g id="node12" class="node">
<title>Node19</title>
<g id="a_node12"><a xlink:href="structImDrawList.html#ae2be093563f1d20b8190b7c423113925" target="_top" xlink:title=" ">
<polygon fill="white" stroke="#666666" points="699,-795.5 577,-795.5 577,-776.5 699,-776.5 699,-795.5"/>
<text text-anchor="middle" x="638" y="-783.5" font-family="Helvetica,sans-Serif" font-size="10.00">ImDrawList::PrimRect</text>
</a>
</g>
</g>
<!-- Node17&#45;&gt;Node19 -->
<g id="edge13" class="edge">
<title>Node17&#45;&gt;Node19</title>
<path fill="none" stroke="#63b8ff" d="M513.84,-805.46C530.78,-802.79 549.34,-799.85 566.81,-797.09"/>
<polygon fill="#63b8ff" stroke="#63b8ff" points="567.61,-800.51 576.94,-795.49 566.51,-793.6 567.61,-800.51"/>
</g>
<!-- Node20 -->
<g id="node13" class="node">
<title>Node20</title>
<g id="a_node13"><a xlink:href="structImDrawList.html#a879aa38dbfb0344e3e023d65c002c7d7" target="_top" xlink:title=" ">
<polygon fill="white" stroke="#666666" points="708,-758.5 568,-758.5 568,-739.5 708,-739.5 708,-758.5"/>
<text text-anchor="middle" x="638" y="-746.5" font-family="Helvetica,sans-Serif" font-size="10.00">ImDrawList::PrimReserve</text>
</a>
</g>
</g>
<!-- Node17&#45;&gt;Node20 -->
<g id="edge14" class="edge">
<title>Node17&#45;&gt;Node20</title>
<path fill="none" stroke="#63b8ff" d="M488.97,-805.41C501.27,-801.56 514.99,-796.69 527,-791 544.16,-782.88 545.59,-775.57 563,-768 568.67,-765.54 574.72,-763.34 580.84,-761.4"/>
<polygon fill="#63b8ff" stroke="#63b8ff" points="581.86,-764.75 590.45,-758.55 579.87,-758.03 581.86,-764.75"/>
</g>
<!-- Node21 -->
<g id="node14" class="node">
<title>Node21</title>
<g id="a_node14"><a xlink:href="structImDrawList.html#a7f2e315f147acd8b555d86d1557659cc" target="_top" xlink:title=" ">
<polygon fill="white" stroke="#666666" points="921,-764 765,-764 765,-734 921,-734 921,-764"/>
<text text-anchor="start" x="773" y="-752" font-family="Helvetica,sans-Serif" font-size="10.00">ImDrawList::_OnChangedVtx</text>
<text text-anchor="middle" x="843" y="-741" font-family="Helvetica,sans-Serif" font-size="10.00">Offset</text>
</a>
</g>
</g>
<!-- Node20&#45;&gt;Node21 -->
<g id="edge15" class="edge">
<title>Node20&#45;&gt;Node21</title>
<path fill="none" stroke="#63b8ff" d="M708.01,-749C723,-749 739.05,-749 754.65,-749"/>
<polygon fill="#63b8ff" stroke="#63b8ff" points="754.81,-752.5 764.81,-749 754.81,-745.5 754.81,-752.5"/>
</g>
<!-- Node14 -->
<g id="node16" class="node">
<title>Node14</title>
<g id="a_node16"><a xlink:href="structImVector.html#ac371dd62e56ae486b1a5038cf07eee56" target="_top" xlink:title=" ">
<polygon fill="#fff0f0" stroke="red" points="890.5,-801.5 795.5,-801.5 795.5,-782.5 890.5,-782.5 890.5,-801.5"/>
<text text-anchor="middle" x="843" y="-789.5" font-family="Helvetica,sans-Serif" font-size="10.00">ImVector::resize</text>
</a>
</g>
</g>
<!-- Node20&#45;&gt;Node14 -->
<g id="edge18" class="edge">
<title>Node20&#45;&gt;Node14</title>
<path fill="none" stroke="#63b8ff" d="M682.07,-758.54C702.36,-762.99 726.91,-768.33 749,-773 760.71,-775.47 773.27,-778.07 785.25,-780.53"/>
<polygon fill="#63b8ff" stroke="#63b8ff" points="784.64,-783.98 795.14,-782.55 786.04,-777.12 784.64,-783.98"/>
</g>
<!-- Node22 -->
<g id="node15" class="node">
<title>Node22</title>
<g id="a_node15"><a xlink:href="structImDrawList.html#a846714bb0321c6f1f908767abc8559e6" target="_top" xlink:title=" ">
<polygon fill="white" stroke="#666666" points="1118,-721.5 973,-721.5 973,-702.5 1118,-702.5 1118,-721.5"/>
<text text-anchor="middle" x="1045.5" y="-709.5" font-family="Helvetica,sans-Serif" font-size="10.00">ImDrawList::AddDrawCmd</text>
</a>
</g>
</g>
<!-- Node21&#45;&gt;Node22 -->
<g id="edge16" class="edge">
<title>Node21&#45;&gt;Node22</title>
<path fill="none" stroke="#63b8ff" d="M921.23,-734.75C941.62,-730.99 963.34,-726.98 982.79,-723.39"/>
<polygon fill="#63b8ff" stroke="#63b8ff" points="983.53,-726.81 992.73,-721.55 982.26,-719.93 983.53,-726.81"/>
</g>
<!-- Node22&#45;&gt;Node11 -->
<g id="edge17" class="edge">
<title>Node22&#45;&gt;Node11</title>
<path fill="none" stroke="#63b8ff" d="M1083.23,-721.54C1107.44,-727.83 1139.36,-736.13 1165.36,-742.88"/>
<polygon fill="#63b8ff" stroke="#63b8ff" points="1164.81,-746.36 1175.37,-745.48 1166.57,-739.58 1164.81,-746.36"/>
</g>
<!-- Node23&#45;&gt;Node23 -->
<g id="edge20" class="edge">
<title>Node23&#45;&gt;Node23</title>
<path fill="none" stroke="#63b8ff" d="M225.52,-409.58C211.43,-418.23 221.09,-427.5 254.5,-427.5 277.47,-427.5 289.22,-423.12 289.73,-417.57"/>
<polygon fill="#63b8ff" stroke="#63b8ff" points="292.4,-415.3 283.48,-409.58 286.89,-419.61 292.4,-415.3"/>
</g>
<!-- Node25 -->
<g id="node19" class="node">
<title>Node25</title>
<g id="a_node19"><a xlink:href="structImDrawListSplitter.html#ad3797b0755caa07f3d69a9e3566eb0e5" target="_top" xlink:title=" ">
<polygon fill="white" stroke="#666666" points="695,-721 581,-721 581,-691 695,-691 695,-721"/>
<text text-anchor="start" x="589" y="-709" font-family="Helvetica,sans-Serif" font-size="10.00">ImDrawListSplitter</text>
<text text-anchor="middle" x="638" y="-698" font-family="Helvetica,sans-Serif" font-size="10.00">::SetCurrentChannel</text>
</a>
</g>
</g>
<!-- Node24&#45;&gt;Node25 -->
<g id="edge22" class="edge">
<title>Node24&#45;&gt;Node25</title>
<path fill="none" stroke="#63b8ff" d="M342.21,-779.34C396.55,-778.39 467.34,-772.66 527,-753 544.81,-747.13 546.01,-738.94 563,-731 567.72,-728.8 572.68,-726.69 577.72,-724.7"/>
<polygon fill="#63b8ff" stroke="#63b8ff" points="579.32,-727.84 587.44,-721.04 576.84,-721.29 579.32,-727.84"/>
</g>
<!-- Node25&#45;&gt;Node22 -->
<g id="edge23" class="edge">
<title>Node25&#45;&gt;Node22</title>
<path fill="none" stroke="#63b8ff" d="M695.38,-706.83C764.74,-707.86 883.01,-709.61 962.44,-710.79"/>
<polygon fill="#63b8ff" stroke="#63b8ff" points="962.84,-714.29 972.89,-710.94 962.95,-707.29 962.84,-714.29"/>
</g>
<!-- Node32 -->
<g id="node26" class="node">
<title>Node32</title>
<g id="a_node26"><a xlink:href="namespaceImGui.html#a65a4f18b1bc8ce0f351687922089f374" target="_top" xlink:title=" ">
<polygon fill="#fff0f0" stroke="red" points="516.5,-409.5 388.5,-409.5 388.5,-390.5 516.5,-390.5 516.5,-409.5"/>
<text text-anchor="middle" x="452.5" y="-397.5" font-family="Helvetica,sans-Serif" font-size="10.00">ImGui::ButtonBehavior</text>
</a>
</g>
</g>
<!-- Node31&#45;&gt;Node32 -->
<g id="edge31" class="edge">
<title>Node31&#45;&gt;Node32</title>
<path fill="none" stroke="#63b8ff" d="M310.41,-484.43C321.44,-480.98 332.54,-476.32 342,-470 363.59,-455.58 356.74,-438.9 378,-424 384.12,-419.71 391.06,-416.15 398.17,-413.21"/>
<polygon fill="#63b8ff" stroke="#63b8ff" points="399.76,-416.35 407.9,-409.57 397.31,-409.79 399.76,-416.35"/>
</g>
<!-- Node57 -->
<g id="node27" class="node">
<title>Node57</title>
<g id="a_node27"><a xlink:href="namespaceImGui.html#ac452417b5004ca16a814a72cff153526" target="_top" xlink:title=" ">
<polygon fill="white" stroke="#666666" points="710,-448.5 566,-448.5 566,-429.5 710,-429.5 710,-448.5"/>
<text text-anchor="middle" x="638" y="-436.5" font-family="Helvetica,sans-Serif" font-size="10.00">ImGui::GetCurrentWindow</text>
</a>
</g>
</g>
<!-- Node31&#45;&gt;Node57 -->
<g id="edge42" class="edge">
<title>Node31&#45;&gt;Node57</title>
<path fill="none" stroke="#63b8ff" d="M291.39,-484.48C306.99,-480.23 325.45,-475.05 342,-470 358.13,-465.08 361.46,-461.31 378,-458 436.75,-446.24 504.3,-441.57 555.68,-439.8"/>
<polygon fill="#63b8ff" stroke="#63b8ff" points="555.85,-443.3 565.73,-439.48 555.63,-436.3 555.85,-443.3"/>
</g>
<!-- Node502 -->
<g id="node35" class="node">
<title>Node502</title>
<g id="a_node35"><a xlink:href="namespaceImGui.html#acaef0497f7982dd98bf215e50129cd9b" target="_top" xlink:title=" ">
<polygon fill="#fff0f0" stroke="red" points="510.5,-372.5 394.5,-372.5 394.5,-353.5 510.5,-353.5 510.5,-372.5"/>
<text text-anchor="middle" x="452.5" y="-360.5" font-family="Helvetica,sans-Serif" font-size="10.00">ImGui::CalcItemSize</text>
</a>
</g>
</g>
<!-- Node31&#45;&gt;Node502 -->
<g id="edge40" class="edge">
<title>Node31&#45;&gt;Node502</title>
<path fill="none" stroke="#63b8ff" d="M317.24,-484.43C326.26,-480.98 334.89,-476.32 342,-470 373.59,-441.93 346.17,-409.79 378,-382 380.23,-380.05 382.64,-378.3 385.18,-376.72"/>
<polygon fill="#63b8ff" stroke="#63b8ff" points="386.97,-379.73 394.22,-372.01 383.74,-373.52 386.97,-379.73"/>
</g>
<!-- Node381 -->
<g id="node36" class="node">
<title>Node381</title>
<g id="a_node36"><a xlink:href="structImGuiWindow.html#afe084e59f7cd4da393ae30f0b4410b16" target="_top" xlink:title=" ">
<polygon fill="#fff0f0" stroke="red" points="511.5,-485.5 393.5,-485.5 393.5,-466.5 511.5,-466.5 511.5,-485.5"/>
<text text-anchor="middle" x="452.5" y="-473.5" font-family="Helvetica,sans-Serif" font-size="10.00">ImGuiWindow::GetID</text>
</a>
</g>
</g>
<!-- Node31&#45;&gt;Node381 -->
<g id="edge43" class="edge">
<title>Node31&#45;&gt;Node381</title>
<path fill="none" stroke="#63b8ff" d="M317.25,-488.33C338.27,-486.4 361.88,-484.23 383.37,-482.26"/>
<polygon fill="#63b8ff" stroke="#63b8ff" points="383.76,-485.74 393.4,-481.34 383.12,-478.76 383.76,-485.74"/>
</g>
<!-- Node293 -->
<g id="node37" class="node">
<title>Node293</title>
<g id="a_node37"><a xlink:href="namespaceImGui.html#a0c2ccafc8d403c02a6590ac21157b9ac" target="_top" xlink:title=" ">
<polygon fill="#fff0f0" stroke="red" points="499,-672.5 406,-672.5 406,-653.5 499,-653.5 499,-672.5"/>
<text text-anchor="middle" x="452.5" y="-660.5" font-family="Helvetica,sans-Serif" font-size="10.00">ImGui::ItemAdd</text>
</a>
</g>
</g>
<!-- Node31&#45;&gt;Node293 -->
<g id="edge44" class="edge">
<title>Node31&#45;&gt;Node293</title>
<path fill="none" stroke="#63b8ff" d="M260.34,-503.58C274.47,-530.49 318.4,-607.24 378,-645 383.46,-648.46 389.54,-651.26 395.8,-653.51"/>
<polygon fill="#63b8ff" stroke="#63b8ff" points="395.12,-656.97 405.71,-656.64 397.23,-650.29 395.12,-656.97"/>
</g>
<!-- Node496 -->
<g id="node38" class="node">
<title>Node496</title>
<g id="a_node38"><a xlink:href="namespaceImGui.html#a4b5818a652d943ea54e0cec9fb3943d7" target="_top" xlink:title=" ">
<polygon fill="#fff0f0" stroke="red" points="500,-559.5 405,-559.5 405,-540.5 500,-540.5 500,-559.5"/>
<text text-anchor="middle" x="452.5" y="-547.5" font-family="Helvetica,sans-Serif" font-size="10.00">ImGui::ItemSize</text>
</a>
</g>
</g>
<!-- Node31&#45;&gt;Node496 -->
<g id="edge46" class="edge">
<title>Node31&#45;&gt;Node496</title>
<path fill="none" stroke="#63b8ff" d="M284.56,-503.56C309.29,-511.56 345.81,-523.08 378,-532 385.31,-534.03 393.05,-536.05 400.67,-537.98"/>
<polygon fill="#63b8ff" stroke="#63b8ff" points="400.02,-541.42 410.56,-540.44 401.71,-534.63 400.02,-541.42"/>
</g>
<!-- Node307 -->
<g id="node39" class="node">
<title>Node307</title>
<g id="a_node39"><a xlink:href="namespaceImGui.html#a2722dcfe26c7f6e8cd522102ef5b7df2" target="_top" xlink:title=" ">
<polygon fill="#fff0f0" stroke="red" points="521,-635.5 384,-635.5 384,-616.5 521,-616.5 521,-635.5"/>
<text text-anchor="middle" x="452.5" y="-623.5" font-family="Helvetica,sans-Serif" font-size="10.00">ImGui::RenderNavCursor</text>
</a>
</g>
</g>
<!-- Node31&#45;&gt;Node307 -->
<g id="edge48" class="edge">
<title>Node31&#45;&gt;Node307</title>
<path fill="none" stroke="#63b8ff" d="M269.91,-503.71C303.69,-526.46 388.19,-583.36 428.89,-610.77"/>
<polygon fill="#63b8ff" stroke="#63b8ff" points="427.08,-613.77 437.33,-616.46 430.99,-607.97 427.08,-613.77"/>
</g>
<!-- Node32&#45;&gt;Node57 -->
<g id="edge32" class="edge">
<title>Node32&#45;&gt;Node57</title>
<path fill="none" stroke="#63b8ff" d="M498.39,-409.54C523.7,-414.92 555.51,-421.68 582.27,-427.37"/>
<polygon fill="#63b8ff" stroke="#63b8ff" points="581.75,-430.84 592.26,-429.49 583.2,-423.99 581.75,-430.84"/>
</g>
<!-- Node61 -->
<g id="node28" class="node">
<title>Node61</title>
<g id="a_node28"><a xlink:href="imgui__internal_8h.html#a7667efd95147d0422f140917c71a9226" target="_top" xlink:title=" ">
<polygon fill="white" stroke="#666666" points="868,-486.5 818,-486.5 818,-467.5 868,-467.5 868,-486.5"/>
<text text-anchor="middle" x="843" y="-474.5" font-family="Helvetica,sans-Serif" font-size="10.00">ImMax</text>
</a>
</g>
</g>
<!-- Node32&#45;&gt;Node61 -->
<g id="edge33" class="edge">
<title>Node32&#45;&gt;Node61</title>
<path fill="none" stroke="#63b8ff" d="M516.56,-399.36C569.7,-400.18 647.34,-404.57 713,-421 750.17,-430.3 790.25,-449.25 815.7,-462.51"/>
<polygon fill="#63b8ff" stroke="#63b8ff" points="814.23,-465.69 824.7,-467.29 817.51,-459.51 814.23,-465.69"/>
</g>
<!-- Node32&#45;&gt;Node62 -->
<g id="edge34" class="edge">
<title>Node32&#45;&gt;Node62</title>
<path fill="none" stroke="#63b8ff" d="M499.88,-390.42C508.99,-388.04 518.39,-385.23 527,-382 557.7,-370.48 590.84,-352.47 612.63,-339.78"/>
<polygon fill="#63b8ff" stroke="#63b8ff" points="614.68,-342.63 621.52,-334.53 611.12,-336.6 614.68,-342.63"/>
</g>
<!-- Node63 -->
<g id="node30" class="node">
<title>Node63</title>
<g id="a_node30"><a xlink:href="imgui_8cpp.html#a989cfbd85e6f3d725efd883c4275872e" target="_top" xlink:title=" ">
<polygon fill="white" stroke="#666666" points="916.5,-408.5 769.5,-408.5 769.5,-389.5 916.5,-389.5 916.5,-408.5"/>
<text text-anchor="middle" x="843" y="-396.5" font-family="Helvetica,sans-Serif" font-size="10.00">ApplyHoverFlagsForTooltip</text>
</a>
</g>
</g>
<!-- Node62&#45;&gt;Node63 -->
<g id="edge35" class="edge">
<title>Node62&#45;&gt;Node63</title>
<path fill="none" stroke="#63b8ff" d="M678.69,-334.57C690.17,-338.2 702.45,-342.96 713,-349 731.58,-359.64 729.81,-371.52 749,-381 753.01,-382.98 757.21,-384.74 761.52,-386.31"/>
<polygon fill="#63b8ff" stroke="#63b8ff" points="760.52,-389.66 771.11,-389.44 762.69,-383.01 760.52,-389.66"/>
</g>
<!-- Node64 -->
<g id="node31" class="node">
<title>Node64</title>
<g id="a_node31"><a xlink:href="imgui_8cpp.html#a486a2f0ac6b8bc3c18f14d08b3c808d6" target="_top" xlink:title=" ">
<polygon fill="white" stroke="#666666" points="922,-371.5 764,-371.5 764,-352.5 922,-352.5 922,-371.5"/>
<text text-anchor="middle" x="843" y="-359.5" font-family="Helvetica,sans-Serif" font-size="10.00">CalcDelayFromHoveredFlags</text>
</a>
</g>
</g>
<!-- Node62&#45;&gt;Node64 -->
<g id="edge36" class="edge">
<title>Node62&#45;&gt;Node64</title>
<path fill="none" stroke="#63b8ff" d="M691.28,-334.53C718.17,-339.43 751.14,-345.44 779.38,-350.59"/>
<polygon fill="#63b8ff" stroke="#63b8ff" points="779.08,-354.09 789.55,-352.44 780.34,-347.2 779.08,-354.09"/>
</g>
<!-- Node65 -->
<g id="node32" class="node">
<title>Node65</title>
<g id="a_node32"><a xlink:href="structImGuiWindow.html#a462f82a6567ca87a689a2aec87468083" target="_top" xlink:title=" ">
<polygon fill="#fff0f0" stroke="red" points="923,-334.5 763,-334.5 763,-315.5 923,-315.5 923,-334.5"/>
<text text-anchor="middle" x="843" y="-322.5" font-family="Helvetica,sans-Serif" font-size="10.00">ImGuiWindow::GetIDFromPos</text>
</a>
</g>
</g>
<!-- Node62&#45;&gt;Node65 -->
<g id="edge37" class="edge">
<title>Node62&#45;&gt;Node65</title>
<path fill="none" stroke="#63b8ff" d="M700.18,-325C716.67,-325 734.86,-325 752.56,-325"/>
<polygon fill="#63b8ff" stroke="#63b8ff" points="752.9,-328.5 762.9,-325 752.9,-321.5 752.9,-328.5"/>
</g>
<!-- Node68 -->
<g id="node33" class="node">
<title>Node68</title>
<g id="a_node33"><a xlink:href="namespaceImGui.html#add3290865a67327258c3a32b695adb28" target="_top" xlink:title=" ">
<polygon fill="white" stroke="#666666" points="904,-297.5 782,-297.5 782,-278.5 904,-278.5 904,-297.5"/>
<text text-anchor="middle" x="843" y="-285.5" font-family="Helvetica,sans-Serif" font-size="10.00">ImGui::IsItemFocused</text>
</a>
</g>
</g>
<!-- Node62&#45;&gt;Node68 -->
<g id="edge38" class="edge">
<title>Node62&#45;&gt;Node68</title>
<path fill="none" stroke="#63b8ff" d="M691.28,-315.47C718.17,-310.57 751.14,-304.56 779.38,-299.41"/>
<polygon fill="#63b8ff" stroke="#63b8ff" points="780.34,-302.8 789.55,-297.56 779.08,-295.91 780.34,-302.8"/>
</g>
<!-- Node69 -->
<g id="node34" class="node">
<title>Node69</title>
<g id="a_node34"><a xlink:href="namespaceImGui.html#ab3095c274afa3c3d73e1d5cae190f469" target="_top" xlink:title=" ">
<polygon fill="#fff0f0" stroke="red" points="937,-260.5 749,-260.5 749,-241.5 937,-241.5 937,-260.5"/>
<text text-anchor="middle" x="843" y="-248.5" font-family="Helvetica,sans-Serif" font-size="10.00">ImGui::IsWindowContentHoverable</text>
</a>
</g>
</g>
<!-- Node62&#45;&gt;Node69 -->
<g id="edge39" class="edge">
<title>Node62&#45;&gt;Node69</title>
<path fill="none" stroke="#63b8ff" d="M654.82,-315.42C675.69,-303.18 713.88,-282.13 749,-270 756.84,-267.29 765.19,-264.92 773.54,-262.84"/>
<polygon fill="#63b8ff" stroke="#63b8ff" points="774.39,-266.24 783.33,-260.55 772.79,-259.43 774.39,-266.24"/>
</g>
<!-- Node502&#45;&gt;Node61 -->
<g id="edge41" class="edge">
<title>Node502&#45;&gt;Node61</title>
<path fill="none" stroke="#63b8ff" d="M510.54,-363.6C564.22,-365.74 646.13,-373.14 713,-397 718.67,-399.02 781.93,-438.89 817.71,-461.57"/>
<polygon fill="#63b8ff" stroke="#63b8ff" points="816.26,-464.79 826.58,-467.2 820.01,-458.88 816.26,-464.79"/>
</g>
<!-- Node293&#45;&gt;Node2 -->
<g id="edge45" class="edge">
<title>Node293&#45;&gt;Node2</title>
<path fill="none" stroke="#63b8ff" d="M499.33,-663C520.14,-663 545.19,-663 568.18,-663"/>
<polygon fill="#63b8ff" stroke="#63b8ff" points="568.24,-666.5 578.24,-663 568.24,-659.5 568.24,-666.5"/>
</g>
<!-- Node496&#45;&gt;Node61 -->
<g id="edge47" class="edge">
<title>Node496&#45;&gt;Node61</title>
<path fill="none" stroke="#63b8ff" d="M500.36,-541.19C579.64,-526.3 738.38,-496.47 807.98,-483.39"/>
<polygon fill="#63b8ff" stroke="#63b8ff" points="808.79,-486.8 817.97,-481.52 807.49,-479.92 808.79,-486.8"/>
</g>
<!-- Node307&#45;&gt;Node2 -->
<g id="edge49" class="edge">
<title>Node307&#45;&gt;Node2</title>
<path fill="none" stroke="#63b8ff" d="M500.76,-635.53C524.85,-640.39 554.34,-646.33 579.72,-651.45"/>
<polygon fill="#63b8ff" stroke="#63b8ff" points="579.09,-654.89 589.59,-653.44 580.47,-648.03 579.09,-654.89"/>
</g>
<!-- Node307&#45;&gt;Node150 -->
<g id="edge50" class="edge">
<title>Node307&#45;&gt;Node150</title>
<path fill="none" stroke="#63b8ff" d="M521.05,-626C533.46,-626 546.52,-626 559.21,-626"/>
<polygon fill="#63b8ff" stroke="#63b8ff" points="559.29,-629.5 569.29,-626 559.29,-622.5 559.29,-629.5"/>
</g>
<!-- Node307&#45;&gt;Node86 -->
<g id="edge55" class="edge">
<title>Node307&#45;&gt;Node86</title>
<path fill="none" stroke="#63b8ff" d="M499.8,-616.41C524.46,-611.31 554.96,-604.99 580.94,-599.61"/>
<polygon fill="#63b8ff" stroke="#63b8ff" points="581.95,-602.98 591.03,-597.52 580.53,-596.12 581.95,-602.98"/>
</g>
<!-- Node87 -->
<g id="node41" class="node">
<title>Node87</title>
<g id="a_node41"><a xlink:href="structImDrawList.html#a8e51ddbe1f9732bc271ce807bec23f54" target="_top" xlink:title=" ">
<polygon fill="white" stroke="#666666" points="933,-640.5 753,-640.5 753,-621.5 933,-621.5 933,-640.5"/>
<text text-anchor="middle" x="843" y="-628.5" font-family="Helvetica,sans-Serif" font-size="10.00">ImDrawList::_OnChangedClipRect</text>
</a>
</g>
</g>
<!-- Node150&#45;&gt;Node87 -->
<g id="edge51" class="edge">
<title>Node150&#45;&gt;Node87</title>
<path fill="none" stroke="#63b8ff" d="M706.6,-627.66C718.13,-627.95 730.32,-628.25 742.48,-628.55"/>
<polygon fill="#63b8ff" stroke="#63b8ff" points="742.58,-632.05 752.67,-628.8 742.76,-625.05 742.58,-632.05"/>
</g>
<!-- Node84 -->
<g id="node42" class="node">
<title>Node84</title>
<g id="a_node42"><a xlink:href="structImVector.html#a3db7ce62d3c429effdb893fbf7148c1c" target="_top" xlink:title=" ">
<polygon fill="white" stroke="#666666" points="1102,-621.5 989,-621.5 989,-602.5 1102,-602.5 1102,-621.5"/>
<text text-anchor="middle" x="1045.5" y="-609.5" font-family="Helvetica,sans-Serif" font-size="10.00">ImVector::pop_back</text>
</a>
</g>
</g>
<!-- Node150&#45;&gt;Node84 -->
<g id="edge54" class="edge">
<title>Node150&#45;&gt;Node84</title>
<path fill="none" stroke="#63b8ff" d="M706.67,-616.77C720.64,-615.21 735.28,-613.83 749,-613 827.91,-608.22 918.88,-608.83 978.81,-610.08"/>
<polygon fill="#63b8ff" stroke="#63b8ff" points="978.81,-613.58 988.89,-610.3 978.97,-606.58 978.81,-613.58"/>
</g>
<!-- Node87&#45;&gt;Node22 -->
<g id="edge52" class="edge">
<title>Node87&#45;&gt;Node22</title>
<path fill="none" stroke="#63b8ff" d="M905.33,-640.61C916.06,-643.11 926.98,-646.2 937,-650 968.59,-661.97 1001.81,-682.54 1022.81,-696.68"/>
<polygon fill="#63b8ff" stroke="#63b8ff" points="1021.06,-699.72 1031.29,-702.49 1025.02,-693.95 1021.06,-699.72"/>
</g>
<!-- Node87&#45;&gt;Node84 -->
<g id="edge53" class="edge">
<title>Node87&#45;&gt;Node84</title>
<path fill="none" stroke="#63b8ff" d="M933.11,-622.56C948.34,-621.11 963.92,-619.64 978.42,-618.26"/>
<polygon fill="#63b8ff" stroke="#63b8ff" points="979.14,-621.71 988.77,-617.28 978.48,-614.74 979.14,-621.71"/>
</g>
<!-- Node86&#45;&gt;Node11 -->
<g id="edge58" class="edge">
<title>Node86&#45;&gt;Node11</title>
<path fill="none" stroke="#63b8ff" d="M670.62,-578.48C751.61,-556.08 970.5,-508.08 1118,-594 1171.5,-625.16 1197.53,-699.65 1207.27,-735.32"/>
<polygon fill="#63b8ff" stroke="#63b8ff" points="1203.99,-736.62 1209.88,-745.43 1210.77,-734.87 1203.99,-736.62"/>
</g>
<!-- Node86&#45;&gt;Node61 -->
<g id="edge57" class="edge">
<title>Node86&#45;&gt;Node61</title>
<path fill="none" stroke="#63b8ff" d="M656.96,-578.34C671.96,-570.26 693.9,-558.42 713,-548 748.58,-528.59 789.56,-506 815.61,-491.6"/>
<polygon fill="#63b8ff" stroke="#63b8ff" points="817.44,-494.59 824.5,-486.69 814.05,-488.46 817.44,-494.59"/>
</g>
<!-- Node86&#45;&gt;Node87 -->
<g id="edge56" class="edge">
<title>Node86&#45;&gt;Node87</title>
<path fill="none" stroke="#63b8ff" d="M684.05,-597.54C714.41,-603.97 754.64,-612.5 786.9,-619.33"/>
<polygon fill="#63b8ff" stroke="#63b8ff" points="786.57,-622.84 797.07,-621.48 788.02,-615.99 786.57,-622.84"/>
</g>
<!-- Node477 -->
<g id="node47" class="node">
<title>Node477</title>
<g id="a_node47"><a xlink:href="imgui_8cpp.html#a2e83689d96690f83f8eb8373bc00e18c" target="_top" xlink:title=" ">
<polygon fill="white" stroke="#666666" points="710.5,-67.5 565.5,-67.5 565.5,-48.5 710.5,-48.5 710.5,-67.5"/>
<text text-anchor="middle" x="638" y="-55.5" font-family="Helvetica,sans-Serif" font-size="10.00">GetCombinedRootWindow</text>
</a>
</g>
</g>
<!-- Node505&#45;&gt;Node477 -->
<g id="edge63" class="edge">
<title>Node505&#45;&gt;Node477</title>
<path fill="none" stroke="#63b8ff" d="M324.15,-58C388.93,-58 486.14,-58 554.98,-58"/>
<polygon fill="#63b8ff" stroke="#63b8ff" points="555.34,-61.5 565.34,-58 555.34,-54.5 555.34,-61.5"/>
</g>
<!-- Node476 -->
<g id="node48" class="node">
<title>Node476</title>
<g id="a_node48"><a xlink:href="namespaceImGui.html#a9ac223b9e17540da02c233d29914689d" target="_top" xlink:title=" ">
<polygon fill="white" stroke="#666666" points="520,-48.5 385,-48.5 385,-29.5 520,-29.5 520,-48.5"/>
<text text-anchor="middle" x="452.5" y="-36.5" font-family="Helvetica,sans-Serif" font-size="10.00">ImGui::IsWindowChildOf</text>
</a>
</g>
</g>
<!-- Node505&#45;&gt;Node476 -->
<g id="edge64" class="edge">
<title>Node505&#45;&gt;Node476</title>
<path fill="none" stroke="#63b8ff" d="M324.05,-51.35C340.42,-49.77 357.99,-48.07 374.69,-46.45"/>
<polygon fill="#63b8ff" stroke="#63b8ff" points="375.35,-49.9 384.97,-45.45 374.68,-42.93 375.35,-49.9"/>
</g>
<!-- Node476&#45;&gt;Node477 -->
<g id="edge65" class="edge">
<title>Node476&#45;&gt;Node477</title>
<path fill="none" stroke="#63b8ff" d="M520.01,-45.89C531.43,-47.07 543.42,-48.31 555.19,-49.53"/>
<polygon fill="#63b8ff" stroke="#63b8ff" points="555.15,-53.04 565.45,-50.59 555.87,-46.08 555.15,-53.04"/>
</g>
<!-- Node507&#45;&gt;Node57 -->
<g id="edge70" class="edge">
<title>Node507&#45;&gt;Node57</title>
<path fill="none" stroke="#63b8ff" d="M499.48,-503.47C508.71,-501.08 518.26,-498.25 527,-495 557.45,-483.69 590.4,-466.14 612.22,-453.71"/>
<polygon fill="#63b8ff" stroke="#63b8ff" points="614.22,-456.59 621.13,-448.56 610.72,-450.53 614.22,-456.59"/>
</g>
</g>
</svg>
