<?xml version="1.0" encoding="UTF-8" standalone="no"?>
<!DOCTYPE svg PUBLIC "-//W3C//DTD SVG 1.1//EN"
 "http://www.w3.org/Graphics/SVG/1.1/DTD/svg11.dtd">
<!-- Generated by graphviz version 2.43.0 (0)
 -->
<!-- Title: mtgb::WinCtxRes::ChangeResource Pages: 1 -->
<svg width="370pt" height="134pt"
 viewBox="0.00 0.00 370.00 134.00" xmlns="http://www.w3.org/2000/svg" xmlns:xlink="http://www.w3.org/1999/xlink">
<g id="graph0" class="graph" transform="scale(1 1) rotate(0) translate(4 130)">
<title>mtgb::WinCtxRes::ChangeResource</title>
<!-- Node1 -->
<g id="node1" class="node">
<title>Node1</title>
<g id="a_node1"><a xlink:title="リソースを切り替える">
<polygon fill="#999999" stroke="#666666" points="362,-72.5 173,-72.5 173,-53.5 362,-53.5 362,-72.5"/>
<text text-anchor="middle" x="267.5" y="-60.5" font-family="Helvetica,sans-Serif" font-size="10.00">mtgb::WinCtxRes::ChangeResource</text>
</a>
</g>
</g>
<!-- Node2 -->
<g id="node2" class="node">
<title>Node2</title>
<g id="a_node2"><a xlink:href="classmtgb_1_1RenderSystem.html#a42c56c98a3b5cb6855cc83a2a4285836" target="_top" xlink:title=" ">
<polygon fill="white" stroke="#666666" points="137,-126 0,-126 0,-96 137,-96 137,-126"/>
<text text-anchor="start" x="8" y="-114" font-family="Helvetica,sans-Serif" font-size="10.00">mtgb::RenderSystem</text>
<text text-anchor="middle" x="68.5" y="-103" font-family="Helvetica,sans-Serif" font-size="10.00">::RenderDirectXWindows</text>
</a>
</g>
</g>
<!-- Node1&#45;&gt;Node2 -->
<g id="edge1" class="edge">
<title>Node1&#45;&gt;Node2</title>
<path fill="none" stroke="#63b8ff" d="M217.1,-75.04C191.1,-81.37 158.96,-89.2 131.32,-95.94"/>
<polygon fill="#63b8ff" stroke="#63b8ff" points="218.22,-78.37 227.11,-72.6 216.56,-71.57 218.22,-78.37"/>
</g>
<!-- Node3 -->
<g id="node3" class="node">
<title>Node3</title>
<g id="a_node3"><a xlink:href="classmtgb_1_1RenderSystem.html#a14e39d4590efdf77c2085b12c6f3cdf5" target="_top" xlink:title=" ">
<polygon fill="white" stroke="#666666" points="134,-78 3,-78 3,-48 134,-48 134,-78"/>
<text text-anchor="start" x="11" y="-66" font-family="Helvetica,sans-Serif" font-size="10.00">mtgb::RenderSystem</text>
<text text-anchor="middle" x="68.5" y="-55" font-family="Helvetica,sans-Serif" font-size="10.00">::RenderImGuiWindows</text>
</a>
</g>
</g>
<!-- Node1&#45;&gt;Node3 -->
<g id="edge2" class="edge">
<title>Node1&#45;&gt;Node3</title>
<path fill="none" stroke="#63b8ff" d="M162.76,-63C153.04,-63 143.38,-63 134.17,-63"/>
<polygon fill="#63b8ff" stroke="#63b8ff" points="162.9,-66.5 172.9,-63 162.9,-59.5 162.9,-66.5"/>
</g>
<!-- Node4 -->
<g id="node4" class="node">
<title>Node4</title>
<g id="a_node4"><a xlink:href="classmtgb_1_1SceneSystem.html#ab3dbe7c990e9f3f537d144ff839af07f" target="_top" xlink:title=" ">
<polygon fill="white" stroke="#666666" points="128.5,-30 8.5,-30 8.5,0 128.5,0 128.5,-30"/>
<text text-anchor="start" x="16.5" y="-18" font-family="Helvetica,sans-Serif" font-size="10.00">mtgb::SceneSystem::</text>
<text text-anchor="middle" x="68.5" y="-7" font-family="Helvetica,sans-Serif" font-size="10.00">Update</text>
</a>
</g>
</g>
<!-- Node1&#45;&gt;Node4 -->
<g id="edge3" class="edge">
<title>Node1&#45;&gt;Node4</title>
<path fill="none" stroke="#63b8ff" d="M217.16,-50.98C190.3,-44.43 156.89,-36.29 128.64,-29.41"/>
<polygon fill="#63b8ff" stroke="#63b8ff" points="216.56,-54.43 227.11,-53.4 218.22,-47.63 216.56,-54.43"/>
</g>
</g>
</svg>
