<?xml version="1.0" encoding="UTF-8" standalone="no"?>
<!DOCTYPE svg PUBLIC "-//W3C//DTD SVG 1.1//EN"
 "http://www.w3.org/Graphics/SVG/1.1/DTD/svg11.dtd">
<!-- Generated by graphviz version 2.43.0 (0)
 -->
<!-- Title: ImGui::TabBarQueueFocus Pages: 1 -->
<svg width="1713pt" height="371pt"
 viewBox="0.00 0.00 1713.00 370.50" xmlns="http://www.w3.org/2000/svg" xmlns:xlink="http://www.w3.org/1999/xlink">
<g id="graph0" class="graph" transform="scale(1 1) rotate(0) translate(4 366.5)">
<title>ImGui::TabBarQueueFocus</title>
<!-- Node1 -->
<g id="node1" class="node">
<title>Node1</title>
<g id="a_node1"><a xlink:title=" ">
<polygon fill="#999999" stroke="#666666" points="1705,-218 1561,-218 1561,-199 1705,-199 1705,-218"/>
<text text-anchor="middle" x="1633" y="-206" font-family="Helvetica,sans-Serif" font-size="10.00">ImGui::TabBarQueueFocus</text>
</a>
</g>
</g>
<!-- Node2 -->
<g id="node2" class="node">
<title>Node2</title>
<g id="a_node2"><a xlink:href="namespaceImGui.html#a46592395e19aa3aacfccc2222693bec8" target="_top" xlink:title=" ">
<polygon fill="white" stroke="#666666" points="1525,-272.5 1357,-272.5 1357,-242.5 1525,-242.5 1525,-272.5"/>
<text text-anchor="start" x="1365" y="-260.5" font-family="Helvetica,sans-Serif" font-size="10.00">ImGui::DockNodeWindowMenu</text>
<text text-anchor="middle" x="1441" y="-249.5" font-family="Helvetica,sans-Serif" font-size="10.00">Handler_Default</text>
</a>
</g>
</g>
<!-- Node1&#45;&gt;Node2 -->
<g id="edge1" class="edge">
<title>Node1&#45;&gt;Node2</title>
<path fill="none" stroke="#63b8ff" d="M1585.07,-220.6C1559.46,-227.21 1527.51,-235.45 1500.31,-242.46"/>
<polygon fill="#63b8ff" stroke="#63b8ff" points="1586.11,-223.95 1594.92,-218.06 1584.36,-217.17 1586.11,-223.95"/>
</g>
<!-- Node7 -->
<g id="node7" class="node">
<title>Node7</title>
<g id="a_node7"><a xlink:href="namespaceImGui.html#ac2d6de29959e0be692d15e4cefce5929" target="_top" xlink:title=" ">
<polygon fill="white" stroke="#666666" points="1505,-218 1377,-218 1377,-199 1505,-199 1505,-218"/>
<text text-anchor="middle" x="1441" y="-206" font-family="Helvetica,sans-Serif" font-size="10.00">ImGui::TabBarCloseTab</text>
</a>
</g>
</g>
<!-- Node1&#45;&gt;Node7 -->
<g id="edge6" class="edge">
<title>Node1&#45;&gt;Node7</title>
<path fill="none" stroke="#63b8ff" d="M1550.55,-208.5C1535.34,-208.5 1519.67,-208.5 1505.12,-208.5"/>
<polygon fill="#63b8ff" stroke="#63b8ff" points="1550.98,-212 1560.98,-208.5 1550.98,-205 1550.98,-212"/>
</g>
<!-- Node20 -->
<g id="node20" class="node">
<title>Node20</title>
<g id="a_node20"><a xlink:href="namespaceImGui.html#a4e0986fc689e7855cd9a9099dc87dac5" target="_top" xlink:title=" ">
<polygon fill="white" stroke="#666666" points="1294,-180 1191,-180 1191,-161 1294,-161 1294,-180"/>
<text text-anchor="middle" x="1242.5" y="-168" font-family="Helvetica,sans-Serif" font-size="10.00">ImGui::TabItemEx</text>
</a>
</g>
</g>
<!-- Node1&#45;&gt;Node20 -->
<g id="edge39" class="edge">
<title>Node1&#45;&gt;Node20</title>
<path fill="none" stroke="#63b8ff" d="M1571.28,-197.25C1556.2,-194.74 1540.05,-192.3 1525,-190.5 1444.61,-180.9 1350.71,-175.36 1294.24,-172.64"/>
<polygon fill="#63b8ff" stroke="#63b8ff" points="1571.08,-200.76 1581.52,-198.99 1572.25,-193.86 1571.08,-200.76"/>
</g>
<!-- Node3 -->
<g id="node3" class="node">
<title>Node3</title>
<g id="a_node3"><a xlink:href="namespaceImGui.html#a3b7bcf876b64c28c4eb3868f79728499" target="_top" xlink:title=" ">
<polygon fill="white" stroke="#666666" points="1321,-279 1164,-279 1164,-260 1321,-260 1321,-279"/>
<text text-anchor="middle" x="1242.5" y="-267" font-family="Helvetica,sans-Serif" font-size="10.00">ImGui::DockContextInitialize</text>
</a>
</g>
</g>
<!-- Node2&#45;&gt;Node3 -->
<g id="edge2" class="edge">
<title>Node2&#45;&gt;Node3</title>
<path fill="none" stroke="#63b8ff" d="M1346.91,-263.18C1338.32,-263.71 1329.68,-264.24 1321.25,-264.75"/>
<polygon fill="#63b8ff" stroke="#63b8ff" points="1347.18,-266.67 1356.95,-262.57 1346.76,-259.69 1347.18,-266.67"/>
</g>
<!-- Node4 -->
<g id="node4" class="node">
<title>Node4</title>
<g id="a_node4"><a xlink:href="namespaceImGui.html#a1a611da38fae18a3d1dafcb3228259da" target="_top" xlink:title=" ">
<polygon fill="white" stroke="#666666" points="1090,-313 996,-313 996,-294 1090,-294 1090,-313"/>
<text text-anchor="middle" x="1043" y="-301" font-family="Helvetica,sans-Serif" font-size="10.00">ImGui::Initialize</text>
</a>
</g>
</g>
<!-- Node3&#45;&gt;Node4 -->
<g id="edge3" class="edge">
<title>Node3&#45;&gt;Node4</title>
<path fill="none" stroke="#63b8ff" d="M1176.08,-280.76C1147.98,-285.6 1115.81,-291.14 1090.25,-295.54"/>
<polygon fill="#63b8ff" stroke="#63b8ff" points="1176.96,-284.16 1186.22,-279.02 1175.77,-277.26 1176.96,-284.16"/>
</g>
<!-- Node5 -->
<g id="node5" class="node">
<title>Node5</title>
<g id="a_node5"><a xlink:href="namespaceImGui.html#a4ff6c9ad05a0eba37ce1b5ff1607810a" target="_top" xlink:title=" ">
<polygon fill="white" stroke="#666666" points="914.5,-319 792.5,-319 792.5,-300 914.5,-300 914.5,-319"/>
<text text-anchor="middle" x="853.5" y="-307" font-family="Helvetica,sans-Serif" font-size="10.00">ImGui::CreateContext</text>
</a>
</g>
</g>
<!-- Node4&#45;&gt;Node5 -->
<g id="edge4" class="edge">
<title>Node4&#45;&gt;Node5</title>
<path fill="none" stroke="#63b8ff" d="M985.65,-305.3C963.3,-306.02 937.56,-306.84 914.83,-307.57"/>
<polygon fill="#63b8ff" stroke="#63b8ff" points="985.77,-308.8 995.65,-304.98 985.54,-301.8 985.77,-308.8"/>
</g>
<!-- Node6 -->
<g id="node6" class="node">
<title>Node6</title>
<g id="a_node6"><a xlink:href="classmtgb_1_1ImGuiRenderer.html#a4db4a95a57f586a5fda30be1957f247a" target="_top" xlink:title=" ">
<polygon fill="white" stroke="#666666" points="714.5,-342.5 592.5,-342.5 592.5,-312.5 714.5,-312.5 714.5,-342.5"/>
<text text-anchor="start" x="600.5" y="-330.5" font-family="Helvetica,sans-Serif" font-size="10.00">mtgb::ImGuiRenderer</text>
<text text-anchor="middle" x="653.5" y="-319.5" font-family="Helvetica,sans-Serif" font-size="10.00">::Initialize</text>
</a>
</g>
</g>
<!-- Node5&#45;&gt;Node6 -->
<g id="edge5" class="edge">
<title>Node5&#45;&gt;Node6</title>
<path fill="none" stroke="#63b8ff" d="M782.31,-315.88C760.24,-317.89 736.08,-320.08 714.77,-322.02"/>
<polygon fill="#63b8ff" stroke="#63b8ff" points="782.65,-319.36 792.29,-314.97 782.01,-312.39 782.65,-319.36"/>
</g>
<!-- Node8 -->
<g id="node8" class="node">
<title>Node8</title>
<g id="a_node8"><a xlink:href="namespaceImGui.html#a4b4e1fb0487e571a4a04fb5b2274189e" target="_top" xlink:title=" ">
<polygon fill="white" stroke="#666666" points="1128,-218 958,-218 958,-199 1128,-199 1128,-218"/>
<text text-anchor="middle" x="1043" y="-206" font-family="Helvetica,sans-Serif" font-size="10.00">ImGui::DockNodeUpdateTabBar</text>
</a>
</g>
</g>
<!-- Node7&#45;&gt;Node8 -->
<g id="edge7" class="edge">
<title>Node7&#45;&gt;Node8</title>
<path fill="none" stroke="#63b8ff" d="M1366.67,-208.5C1299.08,-208.5 1198.8,-208.5 1128.01,-208.5"/>
<polygon fill="#63b8ff" stroke="#63b8ff" points="1366.81,-212 1376.81,-208.5 1366.81,-205 1366.81,-212"/>
</g>
<!-- Node7&#45;&gt;Node20 -->
<g id="edge21" class="edge">
<title>Node7&#45;&gt;Node20</title>
<path fill="none" stroke="#63b8ff" d="M1380.59,-197.01C1352.55,-191.59 1319.48,-185.19 1292.85,-180.04"/>
<polygon fill="#63b8ff" stroke="#63b8ff" points="1380.19,-200.5 1390.67,-198.96 1381.51,-193.62 1380.19,-200.5"/>
</g>
<!-- Node9 -->
<g id="node9" class="node">
<title>Node9</title>
<g id="a_node9"><a xlink:href="namespaceImGui.html#a526230d8de99b07ff2b2992c192ce212" target="_top" xlink:title=" ">
<polygon fill="white" stroke="#666666" points="922,-246 785,-246 785,-227 922,-227 922,-246"/>
<text text-anchor="middle" x="853.5" y="-234" font-family="Helvetica,sans-Serif" font-size="10.00">ImGui::DockNodeUpdate</text>
</a>
</g>
</g>
<!-- Node8&#45;&gt;Node9 -->
<g id="edge8" class="edge">
<title>Node8&#45;&gt;Node9</title>
<path fill="none" stroke="#63b8ff" d="M968.15,-219.53C951.7,-221.99 934.39,-224.57 918.38,-226.96"/>
<polygon fill="#63b8ff" stroke="#63b8ff" points="968.89,-222.96 978.26,-218.02 967.85,-216.03 968.89,-222.96"/>
</g>
<!-- Node9&#45;&gt;Node9 -->
<g id="edge13" class="edge">
<title>Node9&#45;&gt;Node9</title>
<path fill="none" stroke="#63b8ff" d="M888.73,-254.07C888.22,-259.62 876.47,-264 853.5,-264 820.09,-264 810.43,-254.73 824.52,-246.08"/>
<polygon fill="#63b8ff" stroke="#63b8ff" points="891.4,-251.8 882.48,-246.08 885.89,-256.11 891.4,-251.8"/>
</g>
<!-- Node10 -->
<g id="node10" class="node">
<title>Node10</title>
<g id="a_node10"><a xlink:href="namespaceImGui.html#a3fd836d2bd3163537d1c36607e93ed6d" target="_top" xlink:title=" ">
<polygon fill="white" stroke="#666666" points="737,-294.5 570,-294.5 570,-264.5 737,-264.5 737,-294.5"/>
<text text-anchor="start" x="578" y="-282.5" font-family="Helvetica,sans-Serif" font-size="10.00">ImGui::DockContextNewFrame</text>
<text text-anchor="middle" x="653.5" y="-271.5" font-family="Helvetica,sans-Serif" font-size="10.00">UpdateDocking</text>
</a>
</g>
</g>
<!-- Node9&#45;&gt;Node10 -->
<g id="edge9" class="edge">
<title>Node9&#45;&gt;Node10</title>
<path fill="none" stroke="#63b8ff" d="M798.59,-248.21C775.47,-253.23 748.18,-259.16 723.6,-264.49"/>
<polygon fill="#63b8ff" stroke="#63b8ff" points="799.53,-251.59 808.56,-246.04 798.04,-244.75 799.53,-251.59"/>
</g>
<!-- Node14 -->
<g id="node14" class="node">
<title>Node14</title>
<g id="a_node14"><a xlink:href="namespaceImGui.html#a3d9d26cbb99a95938979a3ca3e211f92" target="_top" xlink:title=" ">
<polygon fill="white" stroke="#666666" points="706.5,-246 600.5,-246 600.5,-227 706.5,-227 706.5,-246"/>
<text text-anchor="middle" x="653.5" y="-234" font-family="Helvetica,sans-Serif" font-size="10.00">ImGui::DockSpace</text>
</a>
</g>
</g>
<!-- Node9&#45;&gt;Node14 -->
<g id="edge14" class="edge">
<title>Node9&#45;&gt;Node14</title>
<path fill="none" stroke="#63b8ff" d="M774.9,-236.5C752.06,-236.5 727.63,-236.5 706.79,-236.5"/>
<polygon fill="#63b8ff" stroke="#63b8ff" points="774.91,-240 784.91,-236.5 774.91,-233 774.91,-240"/>
</g>
<!-- Node11 -->
<g id="node11" class="node">
<title>Node11</title>
<g id="a_node11"><a xlink:href="namespaceImGui.html#ab3f1fc018f903b7ad79fd10663375774" target="_top" xlink:title=" ">
<polygon fill="white" stroke="#666666" points="487.5,-357 383.5,-357 383.5,-338 487.5,-338 487.5,-357"/>
<text text-anchor="middle" x="435.5" y="-345" font-family="Helvetica,sans-Serif" font-size="10.00">ImGui::NewFrame</text>
</a>
</g>
</g>
<!-- Node10&#45;&gt;Node11 -->
<g id="edge10" class="edge">
<title>Node10&#45;&gt;Node11</title>
<path fill="none" stroke="#63b8ff" d="M571.46,-297.89C566.84,-299.61 562.33,-301.48 558,-303.5 540.12,-311.85 540.05,-321.52 522,-329.5 511.32,-334.23 499.33,-337.74 487.78,-340.34"/>
<polygon fill="#63b8ff" stroke="#63b8ff" points="572.75,-301.15 581.05,-294.55 570.45,-294.53 572.75,-301.15"/>
</g>
<!-- Node12 -->
<g id="node12" class="node">
<title>Node12</title>
<g id="a_node12"><a xlink:href="classmtgb_1_1ImGuiRenderer.html#a4684d4374beee1f52053b4634edae2c8" target="_top" xlink:title=" ">
<polygon fill="white" stroke="#666666" points="301,-362.5 179,-362.5 179,-332.5 301,-332.5 301,-362.5"/>
<text text-anchor="start" x="187" y="-350.5" font-family="Helvetica,sans-Serif" font-size="10.00">mtgb::ImGuiRenderer</text>
<text text-anchor="middle" x="240" y="-339.5" font-family="Helvetica,sans-Serif" font-size="10.00">::BeginFrame</text>
</a>
</g>
</g>
<!-- Node11&#45;&gt;Node12 -->
<g id="edge11" class="edge">
<title>Node11&#45;&gt;Node12</title>
<path fill="none" stroke="#63b8ff" d="M373.11,-347.5C350.17,-347.5 324.16,-347.5 301.33,-347.5"/>
<polygon fill="#63b8ff" stroke="#63b8ff" points="373.41,-351 383.41,-347.5 373.41,-344 373.41,-351"/>
</g>
<!-- Node13 -->
<g id="node13" class="node">
<title>Node13</title>
<g id="a_node13"><a xlink:href="classmtgb_1_1RenderSystem.html#a14e39d4590efdf77c2085b12c6f3cdf5" target="_top" xlink:title=" ">
<polygon fill="white" stroke="#666666" points="131,-362.5 0,-362.5 0,-332.5 131,-332.5 131,-362.5"/>
<text text-anchor="start" x="8" y="-350.5" font-family="Helvetica,sans-Serif" font-size="10.00">mtgb::RenderSystem</text>
<text text-anchor="middle" x="65.5" y="-339.5" font-family="Helvetica,sans-Serif" font-size="10.00">::RenderImGuiWindows</text>
</a>
</g>
</g>
<!-- Node12&#45;&gt;Node13 -->
<g id="edge12" class="edge">
<title>Node12&#45;&gt;Node13</title>
<path fill="none" stroke="#63b8ff" d="M168.44,-347.5C156.12,-347.5 143.36,-347.5 131.2,-347.5"/>
<polygon fill="#63b8ff" stroke="#63b8ff" points="168.67,-351 178.67,-347.5 168.67,-344 168.67,-351"/>
</g>
<!-- Node15 -->
<g id="node15" class="node">
<title>Node15</title>
<g id="a_node15"><a xlink:href="namespaceImGui.html#a941b7d9d1f491f778796221031b5e439" target="_top" xlink:title=" ">
<polygon fill="white" stroke="#666666" points="513,-320 358,-320 358,-301 513,-301 513,-320"/>
<text text-anchor="middle" x="435.5" y="-308" font-family="Helvetica,sans-Serif" font-size="10.00">ImGui::DockBuilderAddNode</text>
</a>
</g>
</g>
<!-- Node14&#45;&gt;Node15 -->
<g id="edge15" class="edge">
<title>Node14&#45;&gt;Node15</title>
<path fill="none" stroke="#63b8ff" d="M590.27,-243.47C579.11,-246.25 567.89,-250.11 558,-255.5 537.85,-266.47 542.1,-281.43 522,-292.5 515.75,-295.94 508.92,-298.72 501.92,-300.97"/>
<polygon fill="#63b8ff" stroke="#63b8ff" points="591.04,-246.89 600.04,-241.3 589.52,-240.05 591.04,-246.89"/>
</g>
<!-- Node16 -->
<g id="node16" class="node">
<title>Node16</title>
<g id="a_node16"><a xlink:href="namespaceImGui.html#a29b58b0887b599185dfe677eb3ef6cdc" target="_top" xlink:title=" ">
<polygon fill="white" stroke="#666666" points="522,-283 349,-283 349,-264 522,-264 522,-283"/>
<text text-anchor="middle" x="435.5" y="-271" font-family="Helvetica,sans-Serif" font-size="10.00">ImGui::DockSpaceOverViewport</text>
</a>
</g>
</g>
<!-- Node14&#45;&gt;Node16 -->
<g id="edge16" class="edge">
<title>Node14&#45;&gt;Node16</title>
<path fill="none" stroke="#63b8ff" d="M590.25,-247.16C559.31,-252.46 522.22,-258.82 492.22,-263.96"/>
<polygon fill="#63b8ff" stroke="#63b8ff" points="591.22,-250.55 600.49,-245.41 590.04,-243.65 591.22,-250.55"/>
</g>
<!-- Node17 -->
<g id="node17" class="node">
<title>Node17</title>
<g id="a_node17"><a xlink:href="imgui__demo_8cpp.html#ae18f1dc3d5298b314080b35f6c20d781" target="_top" xlink:title=" ">
<polygon fill="white" stroke="#666666" points="514.5,-246 356.5,-246 356.5,-227 514.5,-227 514.5,-246"/>
<text text-anchor="middle" x="435.5" y="-234" font-family="Helvetica,sans-Serif" font-size="10.00">ShowExampleAppDockSpace</text>
</a>
</g>
</g>
<!-- Node14&#45;&gt;Node17 -->
<g id="edge17" class="edge">
<title>Node14&#45;&gt;Node17</title>
<path fill="none" stroke="#63b8ff" d="M590.27,-236.5C566.68,-236.5 539.52,-236.5 514.65,-236.5"/>
<polygon fill="#63b8ff" stroke="#63b8ff" points="590.49,-240 600.49,-236.5 590.49,-233 590.49,-240"/>
</g>
<!-- Node19 -->
<g id="node19" class="node">
<title>Node19</title>
<g id="a_node19"><a xlink:href="imgui__demo_8cpp.html#aa9e4f5130b74080ea2d97916a91b3b3c" target="_top" xlink:title=" ">
<polygon fill="white" stroke="#666666" points="515.5,-209 355.5,-209 355.5,-190 515.5,-190 515.5,-209"/>
<text text-anchor="middle" x="435.5" y="-197" font-family="Helvetica,sans-Serif" font-size="10.00">ShowExampleAppDocuments</text>
</a>
</g>
</g>
<!-- Node14&#45;&gt;Node19 -->
<g id="edge19" class="edge">
<title>Node14&#45;&gt;Node19</title>
<path fill="none" stroke="#63b8ff" d="M590.25,-225.84C559.31,-220.54 522.22,-214.18 492.22,-209.04"/>
<polygon fill="#63b8ff" stroke="#63b8ff" points="590.04,-229.35 600.49,-227.59 591.22,-222.45 590.04,-229.35"/>
</g>
<!-- Node18 -->
<g id="node18" class="node">
<title>Node18</title>
<g id="a_node18"><a xlink:href="namespaceImGui.html#af95643a0ce4893b9e57c12991922fb18" target="_top" xlink:title=" ">
<polygon fill="white" stroke="#666666" points="313,-133 167,-133 167,-114 313,-114 313,-133"/>
<text text-anchor="middle" x="240" y="-121" font-family="Helvetica,sans-Serif" font-size="10.00">ImGui::ShowDemoWindow</text>
</a>
</g>
</g>
<!-- Node17&#45;&gt;Node18 -->
<g id="edge18" class="edge">
<title>Node17&#45;&gt;Node18</title>
<path fill="none" stroke="#63b8ff" d="M360.94,-223.65C356.82,-222.12 352.81,-220.41 349,-218.5 305.24,-196.58 265.18,-152.54 248.81,-133.1"/>
<polygon fill="#63b8ff" stroke="#63b8ff" points="360.09,-227.05 370.68,-226.89 362.3,-220.41 360.09,-227.05"/>
</g>
<!-- Node19&#45;&gt;Node18 -->
<g id="edge20" class="edge">
<title>Node19&#45;&gt;Node18</title>
<path fill="none" stroke="#63b8ff" d="M385.05,-187.21C373.12,-183.81 360.49,-179.84 349,-175.5 316.1,-163.07 279.57,-144.39 258.54,-133.13"/>
<polygon fill="#63b8ff" stroke="#63b8ff" points="384.3,-190.63 394.87,-189.93 386.17,-183.89 384.3,-190.63"/>
</g>
<!-- Node20&#45;&gt;Node8 -->
<g id="edge35" class="edge">
<title>Node20&#45;&gt;Node8</title>
<path fill="none" stroke="#63b8ff" d="M1181.79,-181.99C1153.61,-187.41 1120.37,-193.81 1093.6,-198.96"/>
<polygon fill="#63b8ff" stroke="#63b8ff" points="1182.76,-185.37 1191.92,-180.04 1181.44,-178.49 1182.76,-185.37"/>
</g>
<!-- Node21 -->
<g id="node21" class="node">
<title>Node21</title>
<g id="a_node21"><a xlink:href="namespaceImGui.html#a4cee1ccc9018a298cfff90a704bde8ca" target="_top" xlink:title=" ">
<polygon fill="white" stroke="#666666" points="913,-133 794,-133 794,-114 913,-114 913,-133"/>
<text text-anchor="middle" x="853.5" y="-121" font-family="Helvetica,sans-Serif" font-size="10.00">ImGui::BeginTabItem</text>
</a>
</g>
</g>
<!-- Node20&#45;&gt;Node21 -->
<g id="edge22" class="edge">
<title>Node20&#45;&gt;Node21</title>
<path fill="none" stroke="#63b8ff" d="M1180.93,-169.89C1123.25,-168.5 1034.19,-164.23 958,-151.5 932.48,-147.24 904.16,-139.35 883.6,-133.03"/>
<polygon fill="#63b8ff" stroke="#63b8ff" points="1180.89,-173.39 1190.97,-170.11 1181.05,-166.39 1180.89,-173.39"/>
</g>
<!-- Node28 -->
<g id="node28" class="node">
<title>Node28</title>
<g id="a_node28"><a xlink:href="namespaceImGui.html#a1dbc539ac5b49e9445c4573607e6d60d" target="_top" xlink:title=" ">
<polygon fill="white" stroke="#666666" points="1104.5,-86 981.5,-86 981.5,-67 1104.5,-67 1104.5,-86"/>
<text text-anchor="middle" x="1043" y="-74" font-family="Helvetica,sans-Serif" font-size="10.00">ImGui::TabItemButton</text>
</a>
</g>
</g>
<!-- Node20&#45;&gt;Node28 -->
<g id="edge36" class="edge">
<title>Node20&#45;&gt;Node28</title>
<path fill="none" stroke="#63b8ff" d="M1213.58,-156.4C1190.69,-144.92 1157.38,-128.39 1128,-114.5 1107.02,-104.58 1082.86,-93.71 1065.85,-86.14"/>
<polygon fill="#63b8ff" stroke="#63b8ff" points="1212.21,-159.63 1222.72,-160.99 1215.35,-153.37 1212.21,-159.63"/>
</g>
<!-- Node29 -->
<g id="node29" class="node">
<title>Node29</title>
<g id="a_node29"><a xlink:href="namespaceImGui.html#a6790b1228d7557b5476bc5186773edbd" target="_top" xlink:title=" ">
<polygon fill="white" stroke="#666666" points="1107.5,-142 978.5,-142 978.5,-123 1107.5,-123 1107.5,-142"/>
<text text-anchor="middle" x="1043" y="-130" font-family="Helvetica,sans-Serif" font-size="10.00">ImGui::TabItemSpacing</text>
</a>
</g>
</g>
<!-- Node20&#45;&gt;Node29 -->
<g id="edge38" class="edge">
<title>Node20&#45;&gt;Node29</title>
<path fill="none" stroke="#63b8ff" d="M1181.79,-159.01C1153.61,-153.59 1120.37,-147.19 1093.6,-142.04"/>
<polygon fill="#63b8ff" stroke="#63b8ff" points="1181.44,-162.51 1191.92,-160.96 1182.76,-155.63 1181.44,-162.51"/>
</g>
<!-- Node21&#45;&gt;Node19 -->
<g id="edge30" class="edge">
<title>Node21&#45;&gt;Node19</title>
<path fill="none" stroke="#63b8ff" d="M830.84,-138.85C810.7,-152.22 779.31,-170.79 749,-179.5 671.93,-201.66 579.93,-204.92 515.79,-203.71"/>
<polygon fill="#63b8ff" stroke="#63b8ff" points="832.96,-141.65 839.26,-133.13 829.03,-135.86 832.96,-141.65"/>
</g>
<!-- Node22 -->
<g id="node22" class="node">
<title>Node22</title>
<g id="a_node22"><a xlink:href="imgui__demo_8cpp.html#acdabfa47af2ef5ba0a22b98a4368cc7d" target="_top" xlink:title=" ">
<polygon fill="white" stroke="#666666" points="494.5,-95 376.5,-95 376.5,-76 494.5,-76 494.5,-95"/>
<text text-anchor="middle" x="435.5" y="-83" font-family="Helvetica,sans-Serif" font-size="10.00">DemoWindowLayout</text>
</a>
</g>
</g>
<!-- Node21&#45;&gt;Node22 -->
<g id="edge23" class="edge">
<title>Node21&#45;&gt;Node22</title>
<path fill="none" stroke="#63b8ff" d="M794.23,-112.23C779.52,-109.7 763.72,-107.25 749,-105.5 660.6,-95.02 557.43,-89.76 494.55,-87.34"/>
<polygon fill="#63b8ff" stroke="#63b8ff" points="793.76,-115.7 804.22,-113.99 794.98,-108.81 793.76,-115.7"/>
</g>
<!-- Node23 -->
<g id="node23" class="node">
<title>Node23</title>
<g id="a_node23"><a xlink:href="imgui__demo_8cpp.html#a4a8b43c9807a5eba9ab2ad96226e032e" target="_top" xlink:title=" ">
<polygon fill="white" stroke="#666666" points="726.5,-20 580.5,-20 580.5,-1 726.5,-1 726.5,-20"/>
<text text-anchor="middle" x="653.5" y="-8" font-family="Helvetica,sans-Serif" font-size="10.00">DemoWindowWidgetsTabs</text>
</a>
</g>
</g>
<!-- Node21&#45;&gt;Node23 -->
<g id="edge25" class="edge">
<title>Node21&#45;&gt;Node23</title>
<path fill="none" stroke="#63b8ff" d="M833.71,-106.72C820.12,-94.53 801.33,-77.59 785,-62.5 768.83,-47.57 768.6,-38.52 749,-28.5 742.01,-24.93 734.4,-22.06 726.64,-19.76"/>
<polygon fill="#63b8ff" stroke="#63b8ff" points="831.66,-109.58 841.44,-113.64 836.33,-104.36 831.66,-109.58"/>
</g>
<!-- Node25 -->
<g id="node25" class="node">
<title>Node25</title>
<g id="a_node25"><a xlink:href="imgui__demo_8cpp.html#a0729207a285af6ef57ce5a31d1a60348" target="_top" xlink:title=" ">
<polygon fill="white" stroke="#666666" points="749,-170 558,-170 558,-151 749,-151 749,-170"/>
<text text-anchor="middle" x="653.5" y="-158" font-family="Helvetica,sans-Serif" font-size="10.00">ShowExampleAppCustomRendering</text>
</a>
</g>
</g>
<!-- Node21&#45;&gt;Node25 -->
<g id="edge28" class="edge">
<title>Node21&#45;&gt;Node25</title>
<path fill="none" stroke="#63b8ff" d="M791.6,-134.88C764.07,-140.02 731.91,-146.03 705.66,-150.94"/>
<polygon fill="#63b8ff" stroke="#63b8ff" points="792.32,-138.31 801.51,-133.03 791.04,-131.42 792.32,-138.31"/>
</g>
<!-- Node26 -->
<g id="node26" class="node">
<title>Node26</title>
<g id="a_node26"><a xlink:href="imgui__demo_8cpp.html#adfe8516f13b623adbf78b024efd5bb6e" target="_top" xlink:title=" ">
<polygon fill="white" stroke="#666666" points="722,-133 585,-133 585,-114 722,-114 722,-133"/>
<text text-anchor="middle" x="653.5" y="-121" font-family="Helvetica,sans-Serif" font-size="10.00">ShowExampleAppLayout</text>
</a>
</g>
</g>
<!-- Node21&#45;&gt;Node26 -->
<g id="edge31" class="edge">
<title>Node21&#45;&gt;Node26</title>
<path fill="none" stroke="#63b8ff" d="M783.64,-123.5C763.67,-123.5 741.89,-123.5 722,-123.5"/>
<polygon fill="#63b8ff" stroke="#63b8ff" points="783.9,-127 793.9,-123.5 783.9,-120 783.9,-127"/>
</g>
<!-- Node27 -->
<g id="node27" class="node">
<title>Node27</title>
<g id="a_node27"><a xlink:href="namespaceImGui.html#ab2eb3dec78d054fe3feab1c091ec5de5" target="_top" xlink:title=" ">
<polygon fill="white" stroke="#666666" points="719,-57 588,-57 588,-38 719,-38 719,-57"/>
<text text-anchor="middle" x="653.5" y="-45" font-family="Helvetica,sans-Serif" font-size="10.00">ImGui::ShowStyleEditor</text>
</a>
</g>
</g>
<!-- Node21&#45;&gt;Node27 -->
<g id="edge33" class="edge">
<title>Node21&#45;&gt;Node27</title>
<path fill="none" stroke="#63b8ff" d="M827.43,-108.97C806.88,-97.54 776.77,-81.86 749,-71.5 733.46,-65.7 715.97,-60.82 700.3,-57.01"/>
<polygon fill="#63b8ff" stroke="#63b8ff" points="825.72,-112.02 836.15,-113.88 829.16,-105.92 825.72,-112.02"/>
</g>
<!-- Node22&#45;&gt;Node18 -->
<g id="edge24" class="edge">
<title>Node22&#45;&gt;Node18</title>
<path fill="none" stroke="#63b8ff" d="M375.75,-97.04C348.15,-102.46 315.65,-108.84 289.48,-113.98"/>
<polygon fill="#63b8ff" stroke="#63b8ff" points="376.53,-100.45 385.67,-95.09 375.18,-93.58 376.53,-100.45"/>
</g>
<!-- Node24 -->
<g id="node24" class="node">
<title>Node24</title>
<g id="a_node24"><a xlink:href="imgui__demo_8cpp.html#a9a639caab781642cbc4f4a23bfbd11cd" target="_top" xlink:title=" ">
<polygon fill="white" stroke="#666666" points="498,-19 373,-19 373,0 498,0 498,-19"/>
<text text-anchor="middle" x="435.5" y="-7" font-family="Helvetica,sans-Serif" font-size="10.00">DemoWindowWidgets</text>
</a>
</g>
</g>
<!-- Node23&#45;&gt;Node24 -->
<g id="edge26" class="edge">
<title>Node23&#45;&gt;Node24</title>
<path fill="none" stroke="#63b8ff" d="M570.16,-10.12C546.26,-10.01 520.58,-9.89 498.18,-9.79"/>
<polygon fill="#63b8ff" stroke="#63b8ff" points="570.26,-13.62 580.27,-10.17 570.29,-6.62 570.26,-13.62"/>
</g>
<!-- Node24&#45;&gt;Node18 -->
<g id="edge27" class="edge">
<title>Node24&#45;&gt;Node18</title>
<path fill="none" stroke="#63b8ff" d="M377.32,-21.93C367.59,-25.05 357.8,-28.87 349,-33.5 307.31,-55.43 267.1,-95.45 249.83,-113.81"/>
<polygon fill="#63b8ff" stroke="#63b8ff" points="378.41,-25.25 386.99,-19.03 376.4,-18.55 378.41,-25.25"/>
</g>
<!-- Node25&#45;&gt;Node18 -->
<g id="edge29" class="edge">
<title>Node25&#45;&gt;Node18</title>
<path fill="none" stroke="#63b8ff" d="M547.72,-153.94C489.19,-149.93 414.97,-144.27 349,-137.5 336.4,-136.21 323,-134.63 310.07,-133.01"/>
<polygon fill="#63b8ff" stroke="#63b8ff" points="547.5,-157.43 557.72,-154.62 547.98,-150.45 547.5,-157.43"/>
</g>
<!-- Node26&#45;&gt;Node18 -->
<g id="edge32" class="edge">
<title>Node26&#45;&gt;Node18</title>
<path fill="none" stroke="#63b8ff" d="M574.19,-123.5C498.99,-123.5 386.3,-123.5 313.21,-123.5"/>
<polygon fill="#63b8ff" stroke="#63b8ff" points="574.55,-127 584.55,-123.5 574.55,-120 574.55,-127"/>
</g>
<!-- Node27&#45;&gt;Node18 -->
<g id="edge34" class="edge">
<title>Node27&#45;&gt;Node18</title>
<path fill="none" stroke="#63b8ff" d="M577.69,-43.53C515.35,-42.26 424.83,-45.18 349,-66.5 312.47,-76.77 274.22,-100.55 254.52,-113.92"/>
<polygon fill="#63b8ff" stroke="#63b8ff" points="577.75,-47.03 587.83,-43.78 577.92,-40.03 577.75,-47.03"/>
</g>
<!-- Node28&#45;&gt;Node23 -->
<g id="edge37" class="edge">
<title>Node28&#45;&gt;Node23</title>
<path fill="none" stroke="#63b8ff" d="M975.83,-65.23C901.06,-52.5 780.67,-31.99 710.42,-20.02"/>
<polygon fill="#63b8ff" stroke="#63b8ff" points="975.62,-68.74 986.07,-66.97 976.8,-61.84 975.62,-68.74"/>
</g>
</g>
</svg>
