<?xml version="1.0" encoding="UTF-8" standalone="no"?>
<!DOCTYPE svg PUBLIC "-//W3C//DTD SVG 1.1//EN"
 "http://www.w3.org/Graphics/SVG/1.1/DTD/svg11.dtd">
<!-- Generated by graphviz version 2.43.0 (0)
 -->
<!-- Title: ImGui::SetNavCursorVisibleAfterMove Pages: 1 -->
<svg width="1334pt" height="505pt"
 viewBox="0.00 0.00 1334.00 504.50" xmlns="http://www.w3.org/2000/svg" xmlns:xlink="http://www.w3.org/1999/xlink">
<g id="graph0" class="graph" transform="scale(1 1) rotate(0) translate(4 500.5)">
<title>ImGui::SetNavCursorVisibleAfterMove</title>
<!-- Node1 -->
<g id="node1" class="node">
<title>Node1</title>
<g id="a_node1"><a xlink:title=" ">
<polygon fill="#999999" stroke="#666666" points="1326,-143.5 1174,-143.5 1174,-113.5 1326,-113.5 1326,-143.5"/>
<text text-anchor="start" x="1182" y="-131.5" font-family="Helvetica,sans-Serif" font-size="10.00">ImGui::SetNavCursorVisible</text>
<text text-anchor="middle" x="1250" y="-120.5" font-family="Helvetica,sans-Serif" font-size="10.00">AfterMove</text>
</a>
</g>
</g>
<!-- Node2 -->
<g id="node2" class="node">
<title>Node2</title>
<g id="a_node2"><a xlink:href="namespaceImGui.html#a8dc671f87ed281b6445ce6ae4ab25183" target="_top" xlink:title=" ">
<polygon fill="white" stroke="#666666" points="1108,-297 989,-297 989,-278 1108,-278 1108,-297"/>
<text text-anchor="middle" x="1048.5" y="-285" font-family="Helvetica,sans-Serif" font-size="10.00">ImGui::BeginMenuEx</text>
</a>
</g>
</g>
<!-- Node1&#45;&gt;Node2 -->
<g id="edge1" class="edge">
<title>Node1&#45;&gt;Node2</title>
<path fill="none" stroke="#63b8ff" d="M1224.44,-150.53C1202.27,-170.18 1168.53,-199.46 1138,-223.5 1112.38,-243.68 1081.23,-265.63 1063.56,-277.87"/>
<polygon fill="#63b8ff" stroke="#63b8ff" points="1226.91,-153.02 1232.06,-143.75 1222.26,-147.78 1226.91,-153.02"/>
</g>
<!-- Node15 -->
<g id="node15" class="node">
<title>Node15</title>
<g id="a_node15"><a xlink:href="namespaceImGui.html#a51e560cdb17a961810d557df80a4eaaa" target="_top" xlink:title=" ">
<polygon fill="white" stroke="#666666" points="917.5,-81.5 762.5,-81.5 762.5,-51.5 917.5,-51.5 917.5,-81.5"/>
<text text-anchor="start" x="770.5" y="-69.5" font-family="Helvetica,sans-Serif" font-size="10.00">ImGui::NavInitRequestApply</text>
<text text-anchor="middle" x="840" y="-58.5" font-family="Helvetica,sans-Serif" font-size="10.00">Result</text>
</a>
</g>
</g>
<!-- Node1&#45;&gt;Node15 -->
<g id="edge26" class="edge">
<title>Node1&#45;&gt;Node15</title>
<path fill="none" stroke="#63b8ff" d="M1195.91,-110.46C1177.73,-104.89 1157.15,-99.25 1138,-95.5 1063.89,-81.01 977.9,-73.62 917.58,-69.94"/>
<polygon fill="#63b8ff" stroke="#63b8ff" points="1194.87,-113.81 1205.46,-113.45 1196.96,-107.12 1194.87,-113.81"/>
</g>
<!-- Node20 -->
<g id="node20" class="node">
<title>Node20</title>
<g id="a_node20"><a xlink:href="namespaceImGui.html#a87c0b18dc173341304a700b096681c51" target="_top" xlink:title=" ">
<polygon fill="white" stroke="#666666" points="923,-222.5 757,-222.5 757,-192.5 923,-192.5 923,-222.5"/>
<text text-anchor="start" x="765" y="-210.5" font-family="Helvetica,sans-Serif" font-size="10.00">ImGui::NavMoveRequestApply</text>
<text text-anchor="middle" x="840" y="-199.5" font-family="Helvetica,sans-Serif" font-size="10.00">Result</text>
</a>
</g>
</g>
<!-- Node1&#45;&gt;Node20 -->
<g id="edge31" class="edge">
<title>Node1&#45;&gt;Node20</title>
<path fill="none" stroke="#63b8ff" d="M1220.25,-149.37C1198.74,-163.75 1167.99,-181.77 1138,-190.5 1067.46,-211.03 983.61,-214 923.02,-212.58"/>
<polygon fill="#63b8ff" stroke="#63b8ff" points="1222.3,-152.21 1228.58,-143.67 1218.35,-146.43 1222.3,-152.21"/>
</g>
<!-- Node21 -->
<g id="node21" class="node">
<title>Node21</title>
<g id="a_node21"><a xlink:href="namespaceImGui.html#a4f72273a6c1d8873fe60e9dbbb61ff2c" target="_top" xlink:title=" ">
<polygon fill="white" stroke="#666666" points="1138,-181 959,-181 959,-162 1138,-162 1138,-181"/>
<text text-anchor="middle" x="1048.5" y="-169" font-family="Helvetica,sans-Serif" font-size="10.00">ImGui::NavUpdateCancelRequest</text>
</a>
</g>
</g>
<!-- Node1&#45;&gt;Node21 -->
<g id="edge33" class="edge">
<title>Node1&#45;&gt;Node21</title>
<path fill="none" stroke="#63b8ff" d="M1169.37,-145.73C1158.82,-148.01 1148.15,-150.31 1138,-152.5 1123.71,-155.58 1108.13,-158.93 1094.07,-161.94"/>
<polygon fill="#63b8ff" stroke="#63b8ff" points="1170.39,-149.09 1179.43,-143.56 1168.92,-142.25 1170.39,-149.09"/>
</g>
<!-- Node22 -->
<g id="node22" class="node">
<title>Node22</title>
<g id="a_node22"><a xlink:href="namespaceImGui.html#ad00213b916de0bc1519d6d20259391cf" target="_top" xlink:title=" ">
<polygon fill="white" stroke="#666666" points="920.5,-128 759.5,-128 759.5,-109 920.5,-109 920.5,-128"/>
<text text-anchor="middle" x="840" y="-116" font-family="Helvetica,sans-Serif" font-size="10.00">ImGui::NavUpdateWindowing</text>
</a>
</g>
</g>
<!-- Node1&#45;&gt;Node22 -->
<g id="edge35" class="edge">
<title>Node1&#45;&gt;Node22</title>
<path fill="none" stroke="#63b8ff" d="M1180.57,-111.32C1166.58,-108.48 1151.88,-105.98 1138,-104.5 1058.89,-96.05 1038.42,-99.81 959,-104.5 942.94,-105.45 925.71,-107.12 909.51,-108.98"/>
<polygon fill="#63b8ff" stroke="#63b8ff" points="1180.11,-114.8 1190.62,-113.44 1181.56,-107.95 1180.11,-114.8"/>
</g>
<!-- Node23 -->
<g id="node23" class="node">
<title>Node23</title>
<g id="a_node23"><a xlink:href="namespaceImGui.html#ad3235e1174c0c824c32e469c2bb827d8" target="_top" xlink:title=" ">
<polygon fill="white" stroke="#666666" points="1129,-143.5 968,-143.5 968,-113.5 1129,-113.5 1129,-143.5"/>
<text text-anchor="start" x="976" y="-131.5" font-family="Helvetica,sans-Serif" font-size="10.00">ImGui::NavUpdateWindowing</text>
<text text-anchor="middle" x="1048.5" y="-120.5" font-family="Helvetica,sans-Serif" font-size="10.00">ApplyFocus</text>
</a>
</g>
</g>
<!-- Node1&#45;&gt;Node23 -->
<g id="edge37" class="edge">
<title>Node1&#45;&gt;Node23</title>
<path fill="none" stroke="#63b8ff" d="M1163.85,-128.5C1152.37,-128.5 1140.62,-128.5 1129.23,-128.5"/>
<polygon fill="#63b8ff" stroke="#63b8ff" points="1163.86,-132 1173.86,-128.5 1163.86,-125 1163.86,-132"/>
</g>
<!-- Node24 -->
<g id="node24" class="node">
<title>Node24</title>
<g id="a_node24"><a xlink:href="namespaceImGui.html#a8650c2ec1a532a5b7d67975716c5a90b" target="_top" xlink:title=" ">
<polygon fill="white" stroke="#666666" points="1130.5,-19 966.5,-19 966.5,0 1130.5,0 1130.5,-19"/>
<text text-anchor="middle" x="1048.5" y="-7" font-family="Helvetica,sans-Serif" font-size="10.00">ImGui::TypingSelectFindMatch</text>
</a>
</g>
</g>
<!-- Node1&#45;&gt;Node24 -->
<g id="edge39" class="edge">
<title>Node1&#45;&gt;Node24</title>
<path fill="none" stroke="#63b8ff" d="M1228.44,-105.85C1207.64,-84.24 1173.55,-52.29 1138,-33.5 1126.32,-27.32 1112.91,-22.63 1100.12,-19.11"/>
<polygon fill="#63b8ff" stroke="#63b8ff" points="1226.07,-108.43 1235.48,-113.29 1231.15,-103.62 1226.07,-108.43"/>
</g>
<!-- Node3 -->
<g id="node3" class="node">
<title>Node3</title>
<g id="a_node3"><a xlink:href="namespaceImGui.html#a1e55711a21f97d5dff919d697d3a7201" target="_top" xlink:title=" ">
<polygon fill="white" stroke="#666666" points="893.5,-317 786.5,-317 786.5,-298 893.5,-298 893.5,-317"/>
<text text-anchor="middle" x="840" y="-305" font-family="Helvetica,sans-Serif" font-size="10.00">ImGui::BeginMenu</text>
</a>
</g>
</g>
<!-- Node2&#45;&gt;Node3 -->
<g id="edge2" class="edge">
<title>Node2&#45;&gt;Node3</title>
<path fill="none" stroke="#63b8ff" d="M978.85,-294.15C951.13,-296.83 919.65,-299.88 893.77,-302.39"/>
<polygon fill="#63b8ff" stroke="#63b8ff" points="979.26,-297.63 988.88,-293.18 978.59,-290.66 979.26,-297.63"/>
</g>
<!-- Node4 -->
<g id="node4" class="node">
<title>Node4</title>
<g id="a_node4"><a xlink:href="imgui__demo_8cpp.html#acdabfa47af2ef5ba0a22b98a4368cc7d" target="_top" xlink:title=" ">
<polygon fill="white" stroke="#666666" points="496,-251 378,-251 378,-232 496,-232 496,-251"/>
<text text-anchor="middle" x="437" y="-239" font-family="Helvetica,sans-Serif" font-size="10.00">DemoWindowLayout</text>
</a>
</g>
</g>
<!-- Node3&#45;&gt;Node4 -->
<g id="edge3" class="edge">
<title>Node3&#45;&gt;Node4</title>
<path fill="none" stroke="#63b8ff" d="M824.19,-290.17C803.69,-267.67 764.27,-229.5 721,-214.5 653.81,-191.21 631.58,-205.81 561,-214.5 544.63,-216.52 541.08,-219.83 525,-223.5 512.37,-226.38 498.66,-229.31 485.94,-231.95"/>
<polygon fill="#63b8ff" stroke="#63b8ff" points="821.83,-292.79 831.09,-297.95 827.07,-288.14 821.83,-292.79"/>
</g>
<!-- Node6 -->
<g id="node6" class="node">
<title>Node6</title>
<g id="a_node6"><a xlink:href="imgui__demo_8cpp.html#a55948ca4a5ab0245cf8c786dd7082458" target="_top" xlink:title=" ">
<polygon fill="white" stroke="#666666" points="501,-214 373,-214 373,-195 501,-195 501,-214"/>
<text text-anchor="middle" x="437" y="-202" font-family="Helvetica,sans-Serif" font-size="10.00">DemoWindowMenuBar</text>
</a>
</g>
</g>
<!-- Node3&#45;&gt;Node6 -->
<g id="edge5" class="edge">
<title>Node3&#45;&gt;Node6</title>
<path fill="none" stroke="#63b8ff" d="M821.22,-291.11C804.58,-275.75 779.05,-252.13 757,-231.5 740.93,-216.46 741.45,-205.63 721,-197.5 637.65,-164.36 529.32,-182.03 473.98,-194.91"/>
<polygon fill="#63b8ff" stroke="#63b8ff" points="818.89,-293.72 828.62,-297.93 823.64,-288.58 818.89,-293.72"/>
</g>
<!-- Node7 -->
<g id="node7" class="node">
<title>Node7</title>
<g id="a_node7"><a xlink:href="imgui__demo_8cpp.html#ada26445b1805241717bae1ad5eabf99b" target="_top" xlink:title=" ">
<polygon fill="white" stroke="#666666" points="497,-334 377,-334 377,-315 497,-315 497,-334"/>
<text text-anchor="middle" x="437" y="-322" font-family="Helvetica,sans-Serif" font-size="10.00">DemoWindowPopups</text>
</a>
</g>
</g>
<!-- Node3&#45;&gt;Node7 -->
<g id="edge7" class="edge">
<title>Node3&#45;&gt;Node7</title>
<path fill="none" stroke="#63b8ff" d="M775.73,-310.18C699.29,-313.42 571.7,-318.83 497.15,-321.99"/>
<polygon fill="#63b8ff" stroke="#63b8ff" points="776.32,-313.66 786.16,-309.74 776.02,-306.67 776.32,-313.66"/>
</g>
<!-- Node8 -->
<g id="node8" class="node">
<title>Node8</title>
<g id="a_node8"><a xlink:href="structExampleAssetsBrowser.html#a2b36e1f9b7d764e547611baa4c7fd8d1" target="_top" xlink:title=" ">
<polygon fill="white" stroke="#666666" points="706.5,-496.5 575.5,-496.5 575.5,-466.5 706.5,-466.5 706.5,-496.5"/>
<text text-anchor="start" x="583.5" y="-484.5" font-family="Helvetica,sans-Serif" font-size="10.00">ExampleAssetsBrowser</text>
<text text-anchor="middle" x="641" y="-473.5" font-family="Helvetica,sans-Serif" font-size="10.00">::Draw</text>
</a>
</g>
</g>
<!-- Node3&#45;&gt;Node8 -->
<g id="edge9" class="edge">
<title>Node3&#45;&gt;Node8</title>
<path fill="none" stroke="#63b8ff" d="M829.24,-326.35C811.83,-358.14 772.34,-422.41 721,-457.5 716.03,-460.9 710.56,-463.83 704.9,-466.35"/>
<polygon fill="#63b8ff" stroke="#63b8ff" points="832.48,-327.71 834.11,-317.24 826.31,-324.41 832.48,-327.71"/>
</g>
<!-- Node10 -->
<g id="node10" class="node">
<title>Node10</title>
<g id="a_node10"><a xlink:href="imgui__demo_8cpp.html#ae18f1dc3d5298b314080b35f6c20d781" target="_top" xlink:title=" ">
<polygon fill="white" stroke="#666666" points="720,-448 562,-448 562,-429 720,-429 720,-448"/>
<text text-anchor="middle" x="641" y="-436" font-family="Helvetica,sans-Serif" font-size="10.00">ShowExampleAppDockSpace</text>
</a>
</g>
</g>
<!-- Node3&#45;&gt;Node10 -->
<g id="edge12" class="edge">
<title>Node3&#45;&gt;Node10</title>
<path fill="none" stroke="#63b8ff" d="M825.8,-325.15C805.94,-350.37 765.91,-396.32 721,-420.5 714.68,-423.9 707.75,-426.66 700.69,-428.9"/>
<polygon fill="#63b8ff" stroke="#63b8ff" points="828.62,-327.22 831.95,-317.16 823.07,-322.95 828.62,-327.22"/>
</g>
<!-- Node11 -->
<g id="node11" class="node">
<title>Node11</title>
<g id="a_node11"><a xlink:href="imgui__demo_8cpp.html#aa9e4f5130b74080ea2d97916a91b3b3c" target="_top" xlink:title=" ">
<polygon fill="white" stroke="#666666" points="721,-411 561,-411 561,-392 721,-392 721,-411"/>
<text text-anchor="middle" x="641" y="-399" font-family="Helvetica,sans-Serif" font-size="10.00">ShowExampleAppDocuments</text>
</a>
</g>
</g>
<!-- Node3&#45;&gt;Node11 -->
<g id="edge14" class="edge">
<title>Node3&#45;&gt;Node11</title>
<path fill="none" stroke="#63b8ff" d="M818.95,-323.55C796.41,-340.82 758.08,-367.9 721,-383.5 712.96,-386.88 704.18,-389.68 695.49,-391.98"/>
<polygon fill="#63b8ff" stroke="#63b8ff" points="821.32,-326.14 827.06,-317.24 817.02,-320.62 821.32,-326.14"/>
</g>
<!-- Node12 -->
<g id="node12" class="node">
<title>Node12</title>
<g id="a_node12"><a xlink:href="imgui__demo_8cpp.html#adfe8516f13b623adbf78b024efd5bb6e" target="_top" xlink:title=" ">
<polygon fill="white" stroke="#666666" points="709.5,-374 572.5,-374 572.5,-355 709.5,-355 709.5,-374"/>
<text text-anchor="middle" x="641" y="-362" font-family="Helvetica,sans-Serif" font-size="10.00">ShowExampleAppLayout</text>
</a>
</g>
</g>
<!-- Node3&#45;&gt;Node12 -->
<g id="edge16" class="edge">
<title>Node3&#45;&gt;Node12</title>
<path fill="none" stroke="#63b8ff" d="M796.2,-319.88C759.82,-330.41 708.36,-345.3 675.08,-354.93"/>
<polygon fill="#63b8ff" stroke="#63b8ff" points="797.39,-323.18 806.03,-317.04 795.45,-316.46 797.39,-323.18"/>
</g>
<!-- Node13 -->
<g id="node13" class="node">
<title>Node13</title>
<g id="a_node13"><a xlink:href="imgui__demo_8cpp.html#a41fc5e36f317b1e9f66bdd2d7bca7764" target="_top" xlink:title=" ">
<polygon fill="white" stroke="#666666" points="523,-297 351,-297 351,-278 523,-278 523,-297"/>
<text text-anchor="middle" x="437" y="-285" font-family="Helvetica,sans-Serif" font-size="10.00">ShowExampleAppMainMenuBar</text>
</a>
</g>
</g>
<!-- Node3&#45;&gt;Node13 -->
<g id="edge18" class="edge">
<title>Node3&#45;&gt;Node13</title>
<path fill="none" stroke="#63b8ff" d="M776.01,-304.36C707.9,-300.96 598.94,-295.53 523.21,-291.75"/>
<polygon fill="#63b8ff" stroke="#63b8ff" points="776,-307.86 786.16,-304.86 776.35,-300.87 776,-307.86"/>
</g>
<!-- Node14 -->
<g id="node14" class="node">
<title>Node14</title>
<g id="a_node14"><a xlink:href="imgui__demo_8cpp.html#af6ff107f662e23ad39345a8192d782eb" target="_top" xlink:title=" ">
<polygon fill="white" stroke="#666666" points="706,-242 576,-242 576,-223 706,-223 706,-242"/>
<text text-anchor="middle" x="641" y="-230" font-family="Helvetica,sans-Serif" font-size="10.00">ShowExampleMenuFile</text>
</a>
</g>
</g>
<!-- Node3&#45;&gt;Node14 -->
<g id="edge20" class="edge">
<title>Node3&#45;&gt;Node14</title>
<path fill="none" stroke="#63b8ff" d="M804.21,-294.26C764.96,-279.31 702.07,-255.37 667.25,-242.11"/>
<polygon fill="#63b8ff" stroke="#63b8ff" points="803.06,-297.56 813.65,-297.85 805.55,-291.02 803.06,-297.56"/>
</g>
<!-- Node5 -->
<g id="node5" class="node">
<title>Node5</title>
<g id="a_node5"><a xlink:href="namespaceImGui.html#af95643a0ce4893b9e57c12991922fb18" target="_top" xlink:title=" ">
<polygon fill="white" stroke="#666666" points="313,-353 167,-353 167,-334 313,-334 313,-353"/>
<text text-anchor="middle" x="240" y="-341" font-family="Helvetica,sans-Serif" font-size="10.00">ImGui::ShowDemoWindow</text>
</a>
</g>
</g>
<!-- Node4&#45;&gt;Node5 -->
<g id="edge4" class="edge">
<title>Node4&#45;&gt;Node5</title>
<path fill="none" stroke="#63b8ff" d="M388.45,-254.07C375.37,-258.26 361.37,-263.43 349,-269.5 311.25,-288.02 271.66,-318.42 252.6,-333.85"/>
<polygon fill="#63b8ff" stroke="#63b8ff" points="389.71,-257.34 398.25,-251.06 387.66,-250.65 389.71,-257.34"/>
</g>
<!-- Node6&#45;&gt;Node5 -->
<g id="edge6" class="edge">
<title>Node6&#45;&gt;Node5</title>
<path fill="none" stroke="#63b8ff" d="M363.23,-216.71C358.28,-218.65 353.48,-220.9 349,-223.5 299.81,-252.09 260.72,-310.79 246.65,-333.88"/>
<polygon fill="#63b8ff" stroke="#63b8ff" points="364.62,-219.93 372.92,-213.34 362.32,-213.32 364.62,-219.93"/>
</g>
<!-- Node7&#45;&gt;Node5 -->
<g id="edge8" class="edge">
<title>Node7&#45;&gt;Node5</title>
<path fill="none" stroke="#63b8ff" d="M366.9,-331.23C349.51,-332.93 330.8,-334.75 313.27,-336.46"/>
<polygon fill="#63b8ff" stroke="#63b8ff" points="367.35,-334.71 376.96,-330.25 366.67,-327.74 367.35,-334.71"/>
</g>
<!-- Node9 -->
<g id="node9" class="node">
<title>Node9</title>
<g id="a_node9"><a xlink:href="imgui__demo_8cpp.html#a83fdfc359b5a0432835090acd227690f" target="_top" xlink:title=" ">
<polygon fill="white" stroke="#666666" points="525,-488 349,-488 349,-469 525,-469 525,-488"/>
<text text-anchor="middle" x="437" y="-476" font-family="Helvetica,sans-Serif" font-size="10.00">ShowExampleAppAssetsBrowser</text>
</a>
</g>
</g>
<!-- Node8&#45;&gt;Node9 -->
<g id="edge10" class="edge">
<title>Node8&#45;&gt;Node9</title>
<path fill="none" stroke="#63b8ff" d="M565.01,-480.39C552.05,-480.19 538.47,-479.99 525.22,-479.8"/>
<polygon fill="#63b8ff" stroke="#63b8ff" points="565.2,-483.89 575.25,-480.54 565.31,-476.89 565.2,-483.89"/>
</g>
<!-- Node9&#45;&gt;Node5 -->
<g id="edge11" class="edge">
<title>Node9&#45;&gt;Node5</title>
<path fill="none" stroke="#63b8ff" d="M378.77,-465.86C368.47,-462.36 358.12,-457.97 349,-452.5 303.54,-425.23 263.49,-374.49 247.92,-353.25"/>
<polygon fill="#63b8ff" stroke="#63b8ff" points="378.01,-469.29 388.6,-468.95 380.11,-462.61 378.01,-469.29"/>
</g>
<!-- Node10&#45;&gt;Node5 -->
<g id="edge13" class="edge">
<title>Node10&#45;&gt;Node5</title>
<path fill="none" stroke="#63b8ff" d="M551.9,-430.81C493.47,-424.2 415.58,-412.47 349,-392.5 315.67,-382.5 279.28,-364.35 258.39,-353.17"/>
<polygon fill="#63b8ff" stroke="#63b8ff" points="551.52,-434.29 561.84,-431.91 552.28,-427.33 551.52,-434.29"/>
</g>
<!-- Node11&#45;&gt;Node5 -->
<g id="edge15" class="edge">
<title>Node11&#45;&gt;Node5</title>
<path fill="none" stroke="#63b8ff" d="M550.76,-393.46C493.01,-387.67 416.3,-378.88 349,-367.5 325.71,-363.56 299.86,-357.87 279.3,-353.01"/>
<polygon fill="#63b8ff" stroke="#63b8ff" points="550.66,-396.97 560.95,-394.47 551.35,-390 550.66,-396.97"/>
</g>
<!-- Node12&#45;&gt;Node5 -->
<g id="edge17" class="edge">
<title>Node12&#45;&gt;Node5</title>
<path fill="none" stroke="#63b8ff" d="M561.92,-360.39C489.72,-356.59 383.28,-350.99 313.07,-347.29"/>
<polygon fill="#63b8ff" stroke="#63b8ff" points="562.14,-363.91 572.32,-360.94 562.51,-356.92 562.14,-363.91"/>
</g>
<!-- Node13&#45;&gt;Node5 -->
<g id="edge19" class="edge">
<title>Node13&#45;&gt;Node5</title>
<path fill="none" stroke="#63b8ff" d="M377.56,-299.29C367.97,-301.51 358.17,-303.94 349,-306.5 320.18,-314.56 287.78,-325.98 266.06,-334"/>
<polygon fill="#63b8ff" stroke="#63b8ff" points="378.45,-302.68 387.44,-297.07 376.91,-295.85 378.45,-302.68"/>
</g>
<!-- Node14&#45;&gt;Node4 -->
<g id="edge21" class="edge">
<title>Node14&#45;&gt;Node4</title>
<path fill="none" stroke="#63b8ff" d="M565.77,-235.81C542.83,-236.83 517.9,-237.94 496.2,-238.91"/>
<polygon fill="#63b8ff" stroke="#63b8ff" points="565.97,-239.3 575.81,-235.36 565.66,-232.31 565.97,-239.3"/>
</g>
<!-- Node14&#45;&gt;Node6 -->
<g id="edge22" class="edge">
<title>Node14&#45;&gt;Node6</title>
<path fill="none" stroke="#63b8ff" d="M565.89,-222.23C544.7,-219.29 521.81,-216.12 501.33,-213.28"/>
<polygon fill="#63b8ff" stroke="#63b8ff" points="565.42,-225.7 575.81,-223.6 566.38,-218.76 565.42,-225.7"/>
</g>
<!-- Node14&#45;&gt;Node7 -->
<g id="edge23" class="edge">
<title>Node14&#45;&gt;Node7</title>
<path fill="none" stroke="#63b8ff" d="M620.52,-248.26C598.59,-265.2 561.28,-291.68 525,-306.5 516.29,-310.06 506.79,-312.94 497.37,-315.27"/>
<polygon fill="#63b8ff" stroke="#63b8ff" points="622.7,-251 628.4,-242.07 618.37,-245.5 622.7,-251"/>
</g>
<!-- Node14&#45;&gt;Node13 -->
<g id="edge24" class="edge">
<title>Node14&#45;&gt;Node13</title>
<path fill="none" stroke="#63b8ff" d="M594.85,-244.79C558.07,-254.81 506.88,-268.74 473.12,-277.94"/>
<polygon fill="#63b8ff" stroke="#63b8ff" points="596.09,-248.08 604.81,-242.08 594.25,-241.33 596.09,-248.08"/>
</g>
<!-- Node14&#45;&gt;Node14 -->
<g id="edge25" class="edge">
<title>Node14&#45;&gt;Node14</title>
<path fill="none" stroke="#63b8ff" d="M678.12,-249.69C678.12,-255.42 665.74,-260 641,-260 605.81,-260 595.64,-250.73 610.48,-242.08"/>
<polygon fill="#63b8ff" stroke="#63b8ff" points="680.72,-247.34 671.52,-242.08 675.43,-251.93 680.72,-247.34"/>
</g>
<!-- Node16 -->
<g id="node16" class="node">
<title>Node16</title>
<g id="a_node16"><a xlink:href="namespaceImGui.html#aab7d3ffa460af6604421e8c2d8bdef19" target="_top" xlink:title=" ">
<polygon fill="white" stroke="#666666" points="694.5,-128 587.5,-128 587.5,-109 694.5,-109 694.5,-128"/>
<text text-anchor="middle" x="641" y="-116" font-family="Helvetica,sans-Serif" font-size="10.00">ImGui::NavUpdate</text>
</a>
</g>
</g>
<!-- Node15&#45;&gt;Node16 -->
<g id="edge27" class="edge">
<title>Node15&#45;&gt;Node16</title>
<path fill="none" stroke="#63b8ff" d="M771.99,-84.19C740.53,-92.49 704.28,-102.06 678.07,-108.98"/>
<polygon fill="#63b8ff" stroke="#63b8ff" points="773.24,-87.48 782.02,-81.54 771.46,-80.71 773.24,-87.48"/>
</g>
<!-- Node17 -->
<g id="node17" class="node">
<title>Node17</title>
<g id="a_node17"><a xlink:href="namespaceImGui.html#ab3f1fc018f903b7ad79fd10663375774" target="_top" xlink:title=" ">
<polygon fill="white" stroke="#666666" points="489,-128 385,-128 385,-109 489,-109 489,-128"/>
<text text-anchor="middle" x="437" y="-116" font-family="Helvetica,sans-Serif" font-size="10.00">ImGui::NewFrame</text>
</a>
</g>
</g>
<!-- Node16&#45;&gt;Node17 -->
<g id="edge28" class="edge">
<title>Node16&#45;&gt;Node17</title>
<path fill="none" stroke="#63b8ff" d="M577.27,-118.5C548.98,-118.5 516,-118.5 489.24,-118.5"/>
<polygon fill="#63b8ff" stroke="#63b8ff" points="577.45,-122 587.45,-118.5 577.45,-115 577.45,-122"/>
</g>
<!-- Node18 -->
<g id="node18" class="node">
<title>Node18</title>
<g id="a_node18"><a xlink:href="classmtgb_1_1ImGuiRenderer.html#a4684d4374beee1f52053b4634edae2c8" target="_top" xlink:title=" ">
<polygon fill="white" stroke="#666666" points="301,-133.5 179,-133.5 179,-103.5 301,-103.5 301,-133.5"/>
<text text-anchor="start" x="187" y="-121.5" font-family="Helvetica,sans-Serif" font-size="10.00">mtgb::ImGuiRenderer</text>
<text text-anchor="middle" x="240" y="-110.5" font-family="Helvetica,sans-Serif" font-size="10.00">::BeginFrame</text>
</a>
</g>
</g>
<!-- Node17&#45;&gt;Node18 -->
<g id="edge29" class="edge">
<title>Node17&#45;&gt;Node18</title>
<path fill="none" stroke="#63b8ff" d="M374.61,-118.5C351.19,-118.5 324.54,-118.5 301.23,-118.5"/>
<polygon fill="#63b8ff" stroke="#63b8ff" points="374.77,-122 384.77,-118.5 374.77,-115 374.77,-122"/>
</g>
<!-- Node19 -->
<g id="node19" class="node">
<title>Node19</title>
<g id="a_node19"><a xlink:href="classmtgb_1_1RenderSystem.html#a14e39d4590efdf77c2085b12c6f3cdf5" target="_top" xlink:title=" ">
<polygon fill="white" stroke="#666666" points="131,-133.5 0,-133.5 0,-103.5 131,-103.5 131,-133.5"/>
<text text-anchor="start" x="8" y="-121.5" font-family="Helvetica,sans-Serif" font-size="10.00">mtgb::RenderSystem</text>
<text text-anchor="middle" x="65.5" y="-110.5" font-family="Helvetica,sans-Serif" font-size="10.00">::RenderImGuiWindows</text>
</a>
</g>
</g>
<!-- Node18&#45;&gt;Node19 -->
<g id="edge30" class="edge">
<title>Node18&#45;&gt;Node19</title>
<path fill="none" stroke="#63b8ff" d="M168.44,-118.5C156.12,-118.5 143.36,-118.5 131.2,-118.5"/>
<polygon fill="#63b8ff" stroke="#63b8ff" points="168.67,-122 178.67,-118.5 168.67,-115 168.67,-122"/>
</g>
<!-- Node20&#45;&gt;Node16 -->
<g id="edge32" class="edge">
<title>Node20&#45;&gt;Node16</title>
<path fill="none" stroke="#63b8ff" d="M786.14,-188.5C776.17,-184.11 766.05,-179.07 757,-173.5 739.02,-162.43 739.5,-152.68 721,-142.5 709.95,-136.42 697.16,-131.68 685.13,-128.09"/>
<polygon fill="#63b8ff" stroke="#63b8ff" points="785.03,-191.83 795.6,-192.5 787.75,-185.38 785.03,-191.83"/>
</g>
<!-- Node21&#45;&gt;Node16 -->
<g id="edge34" class="edge">
<title>Node21&#45;&gt;Node16</title>
<path fill="none" stroke="#63b8ff" d="M948.72,-161.11C892.45,-154.9 820.68,-146.48 757,-137.5 736.56,-134.62 714.15,-131.02 694.59,-127.73"/>
<polygon fill="#63b8ff" stroke="#63b8ff" points="948.36,-164.59 958.68,-162.2 949.13,-157.63 948.36,-164.59"/>
</g>
<!-- Node22&#45;&gt;Node16 -->
<g id="edge36" class="edge">
<title>Node22&#45;&gt;Node16</title>
<path fill="none" stroke="#63b8ff" d="M749.41,-118.5C730.7,-118.5 711.56,-118.5 694.72,-118.5"/>
<polygon fill="#63b8ff" stroke="#63b8ff" points="749.44,-122 759.44,-118.5 749.44,-115 749.44,-122"/>
</g>
<!-- Node23&#45;&gt;Node22 -->
<g id="edge38" class="edge">
<title>Node23&#45;&gt;Node22</title>
<path fill="none" stroke="#63b8ff" d="M957.65,-124.15C945.29,-123.55 932.66,-122.94 920.5,-122.35"/>
<polygon fill="#63b8ff" stroke="#63b8ff" points="957.8,-127.66 967.96,-124.65 958.14,-120.67 957.8,-127.66"/>
</g>
</g>
</svg>
