<?xml version="1.0" encoding="UTF-8" standalone="no"?>
<!DOCTYPE svg PUBLIC "-//W3C//DTD SVG 1.1//EN"
 "http://www.w3.org/Graphics/SVG/1.1/DTD/svg11.dtd">
<!-- Generated by graphviz version 2.43.0 (0)
 -->
<!-- Title: ImGui::RenderArrowPointingAt Pages: 1 -->
<svg width="888pt" height="82pt"
 viewBox="0.00 0.00 888.00 82.00" xmlns="http://www.w3.org/2000/svg" xmlns:xlink="http://www.w3.org/1999/xlink">
<g id="graph0" class="graph" transform="scale(1 1) rotate(0) translate(4 78)">
<title>ImGui::RenderArrowPointingAt</title>
<!-- Node1 -->
<g id="node1" class="node">
<title>Node1</title>
<g id="a_node1"><a xlink:title=" ">
<polygon fill="#999999" stroke="#666666" points="165,-55 0,-55 0,-36 165,-36 165,-55"/>
<text text-anchor="middle" x="82.5" y="-43" font-family="Helvetica,sans-Serif" font-size="10.00">ImGui::RenderArrowPointingAt</text>
</a>
</g>
</g>
<!-- Node2 -->
<g id="node2" class="node">
<title>Node2</title>
<g id="a_node2"><a xlink:href="structImDrawList.html#af1dd4a3888034c5f71b66a38e44edf31" target="_top" xlink:title=" ">
<polygon fill="white" stroke="#666666" points="362,-55 201,-55 201,-36 362,-36 362,-55"/>
<text text-anchor="middle" x="281.5" y="-43" font-family="Helvetica,sans-Serif" font-size="10.00">ImDrawList::AddTriangleFilled</text>
</a>
</g>
</g>
<!-- Node1&#45;&gt;Node2 -->
<g id="edge1" class="edge">
<title>Node1&#45;&gt;Node2</title>
<path fill="none" stroke="#63b8ff" d="M165.05,-45.5C173.57,-45.5 182.27,-45.5 190.87,-45.5"/>
<polygon fill="#63b8ff" stroke="#63b8ff" points="190.91,-49 200.91,-45.5 190.91,-42 190.91,-49"/>
</g>
<!-- Node3 -->
<g id="node3" class="node">
<title>Node3</title>
<g id="a_node3"><a xlink:href="structImDrawList.html#aea9301cb99ebf4b27f5d3959017567c9" target="_top" xlink:title=" ">
<polygon fill="white" stroke="#666666" points="548,-74 398,-74 398,-55 548,-55 548,-74"/>
<text text-anchor="middle" x="473" y="-62" font-family="Helvetica,sans-Serif" font-size="10.00">ImDrawList::PathFillConvex</text>
</a>
</g>
</g>
<!-- Node2&#45;&gt;Node3 -->
<g id="edge2" class="edge">
<title>Node2&#45;&gt;Node3</title>
<path fill="none" stroke="#63b8ff" d="M362.04,-53.48C370.56,-54.33 379.24,-55.2 387.81,-56.06"/>
<polygon fill="#63b8ff" stroke="#63b8ff" points="387.5,-59.55 397.8,-57.06 388.2,-52.58 387.5,-59.55"/>
</g>
<!-- Node4 -->
<g id="node4" class="node">
<title>Node4</title>
<g id="a_node4"><a xlink:href="structImDrawList.html#a828d944325ed58d8b57abd3647bffaaf" target="_top" xlink:title=" ">
<polygon fill="white" stroke="#666666" points="538,-37 408,-37 408,-18 538,-18 538,-37"/>
<text text-anchor="middle" x="473" y="-25" font-family="Helvetica,sans-Serif" font-size="10.00">ImDrawList::PathLineTo</text>
</a>
</g>
</g>
<!-- Node2&#45;&gt;Node4 -->
<g id="edge3" class="edge">
<title>Node2&#45;&gt;Node4</title>
<path fill="none" stroke="#63b8ff" d="M362.04,-37.94C373.87,-36.82 386.02,-35.67 397.74,-34.55"/>
<polygon fill="#63b8ff" stroke="#63b8ff" points="398.28,-38.02 407.9,-33.59 397.62,-31.05 398.28,-38.02"/>
</g>
<!-- Node5 -->
<g id="node5" class="node">
<title>Node5</title>
<g id="a_node5"><a xlink:href="structImVector.html#aab5df48e0711a48bd12f3206e08c4108" target="_top" xlink:title=" ">
<polygon fill="white" stroke="#666666" points="702,-37 584,-37 584,-18 702,-18 702,-37"/>
<text text-anchor="middle" x="643" y="-25" font-family="Helvetica,sans-Serif" font-size="10.00">ImVector::push_back</text>
</a>
</g>
</g>
<!-- Node4&#45;&gt;Node5 -->
<g id="edge4" class="edge">
<title>Node4&#45;&gt;Node5</title>
<path fill="none" stroke="#63b8ff" d="M538.47,-27.5C550,-27.5 562.04,-27.5 573.66,-27.5"/>
<polygon fill="#63b8ff" stroke="#63b8ff" points="573.75,-31 583.75,-27.5 573.75,-24 573.75,-31"/>
</g>
<!-- Node6 -->
<g id="node6" class="node">
<title>Node6</title>
<g id="a_node6"><a xlink:href="structImVector.html#a3a097635d464b1b70dc7d59996a88b28" target="_top" xlink:title=" ">
<polygon fill="white" stroke="#666666" points="880,-56 738,-56 738,-37 880,-37 880,-56"/>
<text text-anchor="middle" x="809" y="-44" font-family="Helvetica,sans-Serif" font-size="10.00">ImVector::_grow_capacity</text>
</a>
</g>
</g>
<!-- Node5&#45;&gt;Node6 -->
<g id="edge5" class="edge">
<title>Node5&#45;&gt;Node6</title>
<path fill="none" stroke="#63b8ff" d="M702.28,-34.25C710.55,-35.21 719.18,-36.21 727.78,-37.21"/>
<polygon fill="#63b8ff" stroke="#63b8ff" points="727.5,-40.7 737.83,-38.37 728.3,-33.74 727.5,-40.7"/>
</g>
<!-- Node7 -->
<g id="node7" class="node">
<title>Node7</title>
<g id="a_node7"><a xlink:href="structImVector.html#a0f14f5736c3372157856eebb67123b75" target="_top" xlink:title=" ">
<polygon fill="white" stroke="#666666" points="860.5,-19 757.5,-19 757.5,0 860.5,0 860.5,-19"/>
<text text-anchor="middle" x="809" y="-7" font-family="Helvetica,sans-Serif" font-size="10.00">ImVector::reserve</text>
</a>
</g>
</g>
<!-- Node5&#45;&gt;Node7 -->
<g id="edge6" class="edge">
<title>Node5&#45;&gt;Node7</title>
<path fill="none" stroke="#63b8ff" d="M702.28,-21.1C716.87,-19.5 732.55,-17.78 747.25,-16.17"/>
<polygon fill="#63b8ff" stroke="#63b8ff" points="747.69,-19.64 757.25,-15.07 746.93,-12.68 747.69,-19.64"/>
</g>
</g>
</svg>
