<?xml version="1.0" encoding="UTF-8" standalone="no"?>
<!DOCTYPE svg PUBLIC "-//W3C//DTD SVG 1.1//EN"
 "http://www.w3.org/Graphics/SVG/1.1/DTD/svg11.dtd">
<!-- Generated by graphviz version 2.43.0 (0)
 -->
<!-- Title: ImGui::ShrinkWidths Pages: 1 -->
<svg width="306pt" height="175pt"
 viewBox="0.00 0.00 306.00 175.00" xmlns="http://www.w3.org/2000/svg" xmlns:xlink="http://www.w3.org/1999/xlink">
<g id="graph0" class="graph" transform="scale(1 1) rotate(0) translate(4 171)">
<title>ImGui::ShrinkWidths</title>
<!-- Node1 -->
<g id="node1" class="node">
<title>Node1</title>
<g id="a_node1"><a xlink:title=" ">
<polygon fill="#999999" stroke="#666666" points="116,-93 0,-93 0,-74 116,-74 116,-93"/>
<text text-anchor="middle" x="58" y="-81" font-family="Helvetica,sans-Serif" font-size="10.00">ImGui::ShrinkWidths</text>
</a>
</g>
</g>
<!-- Node2 -->
<g id="node2" class="node">
<title>Node2</title>
<g id="a_node2"><a xlink:href="imgui__internal_8h.html#a7667efd95147d0422f140917c71a9226" target="_top" xlink:title=" ">
<polygon fill="white" stroke="#666666" points="250,-167 200,-167 200,-148 250,-148 250,-167"/>
<text text-anchor="middle" x="225" y="-155" font-family="Helvetica,sans-Serif" font-size="10.00">ImMax</text>
</a>
</g>
</g>
<!-- Node1&#45;&gt;Node2 -->
<g id="edge1" class="edge">
<title>Node1&#45;&gt;Node2</title>
<path fill="none" stroke="#63b8ff" d="M72.19,-93.19C89.63,-105.57 121.71,-126.93 152,-139.5 163.99,-144.48 177.7,-148.33 189.92,-151.16"/>
<polygon fill="#63b8ff" stroke="#63b8ff" points="189.24,-154.6 199.76,-153.31 190.73,-147.76 189.24,-154.6"/>
</g>
<!-- Node3 -->
<g id="node3" class="node">
<title>Node3</title>
<g id="a_node3"><a xlink:href="imgui__internal_8h.html#a7f9d7828066a9d61b5630adcdf4655d3" target="_top" xlink:title=" ">
<polygon fill="white" stroke="#666666" points="248.5,-130 201.5,-130 201.5,-111 248.5,-111 248.5,-130"/>
<text text-anchor="middle" x="225" y="-118" font-family="Helvetica,sans-Serif" font-size="10.00">ImMin</text>
</a>
</g>
</g>
<!-- Node1&#45;&gt;Node3 -->
<g id="edge2" class="edge">
<title>Node1&#45;&gt;Node3</title>
<path fill="none" stroke="#63b8ff" d="M101.49,-93.03C129.52,-99.31 165.68,-107.42 191.43,-113.2"/>
<polygon fill="#63b8ff" stroke="#63b8ff" points="190.91,-116.67 201.44,-115.44 192.45,-109.84 190.91,-116.67"/>
</g>
<!-- Node4 -->
<g id="node4" class="node">
<title>Node4</title>
<g id="a_node4"><a xlink:href="imgui__internal_8h.html#a75cd0ec18686a171e74b1726b5ddf893" target="_top" xlink:title=" ">
<polygon fill="white" stroke="#666666" points="253,-93 197,-93 197,-74 253,-74 253,-93"/>
<text text-anchor="middle" x="225" y="-81" font-family="Helvetica,sans-Serif" font-size="10.00">ImQsort</text>
</a>
</g>
</g>
<!-- Node1&#45;&gt;Node4 -->
<g id="edge3" class="edge">
<title>Node1&#45;&gt;Node4</title>
<path fill="none" stroke="#63b8ff" d="M116.25,-83.5C139.66,-83.5 166.07,-83.5 186.88,-83.5"/>
<polygon fill="#63b8ff" stroke="#63b8ff" points="186.91,-87 196.91,-83.5 186.91,-80 186.91,-87"/>
</g>
<!-- Node5 -->
<g id="node5" class="node">
<title>Node5</title>
<g id="a_node5"><a xlink:href="imgui__internal_8h.html#a34870cae27ccd450c17ec3d3910b2da4" target="_top" xlink:title=" ">
<polygon fill="white" stroke="#666666" points="252.5,-56 197.5,-56 197.5,-37 252.5,-37 252.5,-56"/>
<text text-anchor="middle" x="225" y="-44" font-family="Helvetica,sans-Serif" font-size="10.00">ImTrunc</text>
</a>
</g>
</g>
<!-- Node1&#45;&gt;Node5 -->
<g id="edge4" class="edge">
<title>Node1&#45;&gt;Node5</title>
<path fill="none" stroke="#63b8ff" d="M101.49,-73.97C128.01,-68.02 161.81,-60.45 187.18,-54.76"/>
<polygon fill="#63b8ff" stroke="#63b8ff" points="188.16,-58.12 197.15,-52.52 186.63,-51.29 188.16,-58.12"/>
</g>
<!-- Node6 -->
<g id="node6" class="node">
<title>Node6</title>
<g id="a_node6"><a xlink:href="imgui__widgets_8cpp.html#a56b30ec768c46c2abdd27ae66073c3e8" target="_top" xlink:title=" ">
<polygon fill="white" stroke="#666666" points="298,-19 152,-19 152,0 298,0 298,-19"/>
<text text-anchor="middle" x="225" y="-7" font-family="Helvetica,sans-Serif" font-size="10.00">ShrinkWidthItemComparer</text>
</a>
</g>
</g>
<!-- Node1&#45;&gt;Node6 -->
<g id="edge5" class="edge">
<title>Node1&#45;&gt;Node6</title>
<path fill="none" stroke="#63b8ff" d="M72.55,-73.85C90.11,-61.73 122.06,-41.02 152,-28.5 157.79,-26.08 163.98,-23.89 170.2,-21.94"/>
<polygon fill="#63b8ff" stroke="#63b8ff" points="171.35,-25.25 179.95,-19.06 169.37,-18.53 171.35,-25.25"/>
</g>
</g>
</svg>
