<?xml version="1.0" encoding="UTF-8" standalone="no"?>
<!DOCTYPE svg PUBLIC "-//W3C//DTD SVG 1.1//EN"
 "http://www.w3.org/Graphics/SVG/1.1/DTD/svg11.dtd">
<!-- Generated by graphviz version 2.43.0 (0)
 -->
<!-- Title: ImGui::VSliderInt Pages: 1 -->
<svg width="647pt" height="38pt"
 viewBox="0.00 0.00 647.00 38.00" xmlns="http://www.w3.org/2000/svg" xmlns:xlink="http://www.w3.org/1999/xlink">
<g id="graph0" class="graph" transform="scale(1 1) rotate(0) translate(4 34)">
<title>ImGui::VSliderInt</title>
<!-- Node1 -->
<g id="node1" class="node">
<title>Node1</title>
<g id="a_node1"><a xlink:title=" ">
<polygon fill="#999999" stroke="#666666" points="639,-24.5 540,-24.5 540,-5.5 639,-5.5 639,-24.5"/>
<text text-anchor="middle" x="589.5" y="-12.5" font-family="Helvetica,sans-Serif" font-size="10.00">ImGui::VSliderInt</text>
</a>
</g>
</g>
<!-- Node2 -->
<g id="node2" class="node">
<title>Node2</title>
<g id="a_node2"><a xlink:href="imgui__demo_8cpp.html#a1626099f5d9236510b164e8418a3677b" target="_top" xlink:title=" ">
<polygon fill="white" stroke="#666666" points="504,-30 343,-30 343,0 504,0 504,-30"/>
<text text-anchor="start" x="351" y="-18" font-family="Helvetica,sans-Serif" font-size="10.00">DemoWindowWidgetsVertical</text>
<text text-anchor="middle" x="423.5" y="-7" font-family="Helvetica,sans-Serif" font-size="10.00">Sliders</text>
</a>
</g>
</g>
<!-- Node1&#45;&gt;Node2 -->
<g id="edge1" class="edge">
<title>Node1&#45;&gt;Node2</title>
<path fill="none" stroke="#63b8ff" d="M529.49,-15C521.24,-15 512.65,-15 504.1,-15"/>
<polygon fill="#63b8ff" stroke="#63b8ff" points="529.74,-18.5 539.74,-15 529.74,-11.5 529.74,-18.5"/>
</g>
<!-- Node3 -->
<g id="node3" class="node">
<title>Node3</title>
<g id="a_node3"><a xlink:href="imgui__demo_8cpp.html#a9a639caab781642cbc4f4a23bfbd11cd" target="_top" xlink:title=" ">
<polygon fill="white" stroke="#666666" points="307,-24.5 182,-24.5 182,-5.5 307,-5.5 307,-24.5"/>
<text text-anchor="middle" x="244.5" y="-12.5" font-family="Helvetica,sans-Serif" font-size="10.00">DemoWindowWidgets</text>
</a>
</g>
</g>
<!-- Node2&#45;&gt;Node3 -->
<g id="edge2" class="edge">
<title>Node2&#45;&gt;Node3</title>
<path fill="none" stroke="#63b8ff" d="M332.71,-15C324.1,-15 315.5,-15 307.25,-15"/>
<polygon fill="#63b8ff" stroke="#63b8ff" points="332.8,-18.5 342.8,-15 332.8,-11.5 332.8,-18.5"/>
</g>
<!-- Node4 -->
<g id="node4" class="node">
<title>Node4</title>
<g id="a_node4"><a xlink:href="namespaceImGui.html#af95643a0ce4893b9e57c12991922fb18" target="_top" xlink:title=" ">
<polygon fill="white" stroke="#666666" points="146,-24.5 0,-24.5 0,-5.5 146,-5.5 146,-24.5"/>
<text text-anchor="middle" x="73" y="-12.5" font-family="Helvetica,sans-Serif" font-size="10.00">ImGui::ShowDemoWindow</text>
</a>
</g>
</g>
<!-- Node3&#45;&gt;Node4 -->
<g id="edge3" class="edge">
<title>Node3&#45;&gt;Node4</title>
<path fill="none" stroke="#63b8ff" d="M171.68,-15C163.27,-15 154.69,-15 146.28,-15"/>
<polygon fill="#63b8ff" stroke="#63b8ff" points="171.83,-18.5 181.83,-15 171.83,-11.5 171.83,-18.5"/>
</g>
</g>
</svg>
