<?xml version="1.0" encoding="UTF-8" standalone="no"?>
<!DOCTYPE svg PUBLIC "-//W3C//DTD SVG 1.1//EN"
 "http://www.w3.org/Graphics/SVG/1.1/DTD/svg11.dtd">
<!-- Generated by graphviz version 2.43.0 (0)
 -->
<!-- Title: ImGui::GetForegroundDrawList Pages: 1 -->
<svg width="1453pt" height="540pt"
 viewBox="0.00 0.00 1453.00 539.82" xmlns="http://www.w3.org/2000/svg" xmlns:xlink="http://www.w3.org/1999/xlink">
<g id="graph0" class="graph" transform="scale(1 1) rotate(0) translate(4 535.82)">
<title>ImGui::GetForegroundDrawList</title>
<!-- Node1 -->
<g id="node1" class="node">
<title>Node1</title>
<g id="a_node1"><a xlink:title=" ">
<polygon fill="#999999" stroke="#666666" points="167,-124.13 0,-124.13 0,-105.13 167,-105.13 167,-124.13"/>
<text text-anchor="middle" x="83.5" y="-112.13" font-family="Helvetica,sans-Serif" font-size="10.00">ImGui::GetForegroundDrawList</text>
</a>
</g>
</g>
<!-- Node2 -->
<g id="node2" class="node">
<title>Node2</title>
<g id="a_node2"><a xlink:href="imgui_8cpp.html#a86964372ace3c5efb9325a2162f04efd" target="_top" xlink:title=" ">
<polygon fill="white" stroke="#666666" points="348,-124.13 203,-124.13 203,-105.13 348,-105.13 348,-124.13"/>
<text text-anchor="middle" x="275.5" y="-112.13" font-family="Helvetica,sans-Serif" font-size="10.00">GetViewportBgFgDrawList</text>
</a>
</g>
</g>
<!-- Node1&#45;&gt;Node2 -->
<g id="edge1" class="edge">
<title>Node1&#45;&gt;Node2</title>
<path fill="none" stroke="#63b8ff" d="M167.01,-114.63C175.48,-114.63 184.09,-114.63 192.55,-114.63"/>
<polygon fill="#63b8ff" stroke="#63b8ff" points="192.79,-118.13 202.79,-114.63 192.79,-111.13 192.79,-118.13"/>
</g>
<!-- Node3 -->
<g id="node3" class="node">
<title>Node3</title>
<g id="a_node3"><a xlink:href="structImDrawList.html#a5f78fe195b2507e5926560f591141ff3" target="_top" xlink:title=" ">
<polygon fill="white" stroke="#666666" points="532,-420.63 384,-420.63 384,-390.63 532,-390.63 532,-420.63"/>
<text text-anchor="start" x="392" y="-408.63" font-family="Helvetica,sans-Serif" font-size="10.00">ImDrawList::_ResetForNew</text>
<text text-anchor="middle" x="458" y="-397.63" font-family="Helvetica,sans-Serif" font-size="10.00">Frame</text>
</a>
</g>
</g>
<!-- Node2&#45;&gt;Node3 -->
<g id="edge2" class="edge">
<title>Node2&#45;&gt;Node3</title>
<path fill="none" stroke="#63b8ff" d="M282.51,-124.31C307.59,-164.75 404.42,-320.86 441.99,-381.43"/>
<polygon fill="#63b8ff" stroke="#63b8ff" points="439.24,-383.64 447.49,-390.29 445.19,-379.95 439.24,-383.64"/>
</g>
<!-- Node16 -->
<g id="node16" class="node">
<title>Node16</title>
<g id="a_node16"><a xlink:href="structImDrawList.html#a608a9d9a83715ba87dced8321ed64329" target="_top" xlink:title=" ">
<polygon fill="white" stroke="#666666" points="710,-123.13 568,-123.13 568,-104.13 710,-104.13 710,-123.13"/>
<text text-anchor="middle" x="639" y="-111.13" font-family="Helvetica,sans-Serif" font-size="10.00">ImDrawList::PushClipRect</text>
</a>
</g>
</g>
<!-- Node2&#45;&gt;Node16 -->
<g id="edge21" class="edge">
<title>Node2&#45;&gt;Node16</title>
<path fill="none" stroke="#63b8ff" d="M348.35,-114.43C408.72,-114.26 494.93,-114.03 557.58,-113.85"/>
<polygon fill="#63b8ff" stroke="#63b8ff" points="557.83,-117.35 567.82,-113.82 557.81,-110.35 557.83,-117.35"/>
</g>
<!-- Node19 -->
<g id="node19" class="node">
<title>Node19</title>
<g id="a_node19"><a xlink:href="structImDrawList.html#a3956fefe0213286efffc5d8a9f5e012e" target="_top" xlink:title=" ">
<polygon fill="white" stroke="#666666" points="707.5,-86.13 570.5,-86.13 570.5,-67.13 707.5,-67.13 707.5,-86.13"/>
<text text-anchor="middle" x="639" y="-74.13" font-family="Helvetica,sans-Serif" font-size="10.00">ImDrawList::PushTexture</text>
</a>
</g>
</g>
<!-- Node2&#45;&gt;Node19 -->
<g id="edge27" class="edge">
<title>Node2&#45;&gt;Node19</title>
<path fill="none" stroke="#63b8ff" d="M348.35,-107.08C409.5,-100.65 497.16,-91.43 560,-84.83"/>
<polygon fill="#63b8ff" stroke="#63b8ff" points="560.68,-88.28 570.26,-83.75 559.95,-81.32 560.68,-88.28"/>
</g>
<!-- Node4 -->
<g id="node4" class="node">
<title>Node4</title>
<g id="a_node4"><a xlink:href="structImDrawListSplitter.html#ac6865e5a2f180419fa282b681bf08c9c" target="_top" xlink:title=" ">
<polygon fill="white" stroke="#666666" points="692.5,-420.63 585.5,-420.63 585.5,-390.63 692.5,-390.63 692.5,-420.63"/>
<text text-anchor="start" x="593.5" y="-408.63" font-family="Helvetica,sans-Serif" font-size="10.00">ImDrawListSplitter</text>
<text text-anchor="middle" x="639" y="-397.63" font-family="Helvetica,sans-Serif" font-size="10.00">::Clear</text>
</a>
</g>
</g>
<!-- Node3&#45;&gt;Node4 -->
<g id="edge3" class="edge">
<title>Node3&#45;&gt;Node4</title>
<path fill="none" stroke="#63b8ff" d="M532.06,-405.63C546.46,-405.63 561.43,-405.63 575.44,-405.63"/>
<polygon fill="#63b8ff" stroke="#63b8ff" points="575.45,-409.13 585.45,-405.63 575.45,-402.13 575.45,-409.13"/>
</g>
<!-- Node5 -->
<g id="node5" class="node">
<title>Node5</title>
<g id="a_node5"><a xlink:href="structImDrawListSplitter.html#af3fc4bad2abca9e481d476d1877ba5be" target="_top" xlink:title=" ">
<polygon fill="white" stroke="#666666" points="692.5,-342.63 585.5,-342.63 585.5,-312.63 692.5,-312.63 692.5,-342.63"/>
<text text-anchor="start" x="593.5" y="-330.63" font-family="Helvetica,sans-Serif" font-size="10.00">ImDrawListSplitter</text>
<text text-anchor="middle" x="639" y="-319.63" font-family="Helvetica,sans-Serif" font-size="10.00">::Merge</text>
</a>
</g>
</g>
<!-- Node3&#45;&gt;Node5 -->
<g id="edge4" class="edge">
<title>Node3&#45;&gt;Node5</title>
<path fill="none" stroke="#63b8ff" d="M493.51,-390.59C522.15,-378.11 563.04,-360.29 594.02,-346.8"/>
<polygon fill="#63b8ff" stroke="#63b8ff" points="595.52,-349.96 603.29,-342.76 592.72,-343.54 595.52,-349.96"/>
</g>
<!-- Node9 -->
<g id="node9" class="node">
<title>Node9</title>
<g id="a_node9"><a xlink:href="structImVector.html#aab5df48e0711a48bd12f3206e08c4108" target="_top" xlink:title=" ">
<polygon fill="white" stroke="#666666" points="1267,-304.13 1149,-304.13 1149,-285.13 1267,-285.13 1267,-304.13"/>
<text text-anchor="middle" x="1208" y="-292.13" font-family="Helvetica,sans-Serif" font-size="10.00">ImVector::push_back</text>
</a>
</g>
</g>
<!-- Node3&#45;&gt;Node9 -->
<g id="edge19" class="edge">
<title>Node3&#45;&gt;Node9</title>
<path fill="none" stroke="#63b8ff" d="M516.31,-420.69C532.87,-424.37 551.05,-427.79 568,-429.63 729.12,-447.16 774.74,-446.84 932,-407.63 1026.65,-384.03 1131.42,-333.7 1179.79,-308.96"/>
<polygon fill="#63b8ff" stroke="#63b8ff" points="1181.68,-311.92 1188.96,-304.23 1178.47,-305.7 1181.68,-311.92"/>
</g>
<!-- Node14 -->
<g id="node14" class="node">
<title>Node14</title>
<g id="a_node14"><a xlink:href="structImVector.html#ac371dd62e56ae486b1a5038cf07eee56" target="_top" xlink:title=" ">
<polygon fill="white" stroke="#666666" points="1255.5,-424.13 1160.5,-424.13 1160.5,-405.13 1255.5,-405.13 1255.5,-424.13"/>
<text text-anchor="middle" x="1208" y="-412.13" font-family="Helvetica,sans-Serif" font-size="10.00">ImVector::resize</text>
</a>
</g>
</g>
<!-- Node3&#45;&gt;Node14 -->
<g id="edge20" class="edge">
<title>Node3&#45;&gt;Node14</title>
<path fill="none" stroke="#63b8ff" d="M474.75,-420.68C494.62,-438.54 530.74,-467.3 568,-478.63 799.75,-549.07 881.52,-549.95 1113,-478.63 1143,-469.39 1171.99,-446.94 1189.66,-431.26"/>
<polygon fill="#63b8ff" stroke="#63b8ff" points="1192.36,-433.52 1197.37,-424.19 1187.64,-428.36 1192.36,-433.52"/>
</g>
<!-- Node6 -->
<g id="node6" class="node">
<title>Node6</title>
<g id="a_node6"><a xlink:href="structImDrawList.html#a2cb0295fcd3062bfedbebbad55865455" target="_top" xlink:title=" ">
<polygon fill="white" stroke="#666666" points="932,-398.13 746,-398.13 746,-379.13 932,-379.13 932,-398.13"/>
<text text-anchor="middle" x="839" y="-386.13" font-family="Helvetica,sans-Serif" font-size="10.00">ImDrawList::_PopUnusedDrawCmd</text>
</a>
</g>
</g>
<!-- Node5&#45;&gt;Node6 -->
<g id="edge5" class="edge">
<title>Node5&#45;&gt;Node6</title>
<path fill="none" stroke="#63b8ff" d="M680.52,-342.63C700.17,-349.69 724.18,-357.99 746,-364.63 759.72,-368.81 774.73,-372.91 788.57,-376.52"/>
<polygon fill="#63b8ff" stroke="#63b8ff" points="787.85,-379.95 798.41,-379.05 789.59,-373.17 787.85,-379.95"/>
</g>
<!-- Node7 -->
<g id="node7" class="node">
<title>Node7</title>
<g id="a_node7"><a xlink:href="structImVector.html#a3db7ce62d3c429effdb893fbf7148c1c" target="_top" xlink:title=" ">
<polygon fill="white" stroke="#666666" points="1097,-303.13 984,-303.13 984,-284.13 1097,-284.13 1097,-303.13"/>
<text text-anchor="middle" x="1040.5" y="-291.13" font-family="Helvetica,sans-Serif" font-size="10.00">ImVector::pop_back</text>
</a>
</g>
</g>
<!-- Node5&#45;&gt;Node7 -->
<g id="edge13" class="edge">
<title>Node5&#45;&gt;Node7</title>
<path fill="none" stroke="#63b8ff" d="M692.67,-334.09C751.49,-339.99 849.3,-345.82 932,-331.63 959.12,-326.98 988.48,-316.18 1009.65,-307.27"/>
<polygon fill="#63b8ff" stroke="#63b8ff" points="1011.26,-310.39 1019.05,-303.22 1008.48,-303.96 1011.26,-310.39"/>
</g>
<!-- Node8 -->
<g id="node8" class="node">
<title>Node8</title>
<g id="a_node8"><a xlink:href="structImDrawList.html#a846714bb0321c6f1f908767abc8559e6" target="_top" xlink:title=" ">
<polygon fill="white" stroke="#666666" points="1113,-209.13 968,-209.13 968,-190.13 1113,-190.13 1113,-209.13"/>
<text text-anchor="middle" x="1040.5" y="-197.13" font-family="Helvetica,sans-Serif" font-size="10.00">ImDrawList::AddDrawCmd</text>
</a>
</g>
</g>
<!-- Node5&#45;&gt;Node8 -->
<g id="edge7" class="edge">
<title>Node5&#45;&gt;Node8</title>
<path fill="none" stroke="#63b8ff" d="M657.9,-312.62C678.03,-296.53 712.34,-271.44 746,-257.63 766.94,-249.04 895.42,-225.26 975.29,-210.96"/>
<polygon fill="#63b8ff" stroke="#63b8ff" points="976.03,-214.38 985.26,-209.18 974.8,-207.49 976.03,-214.38"/>
</g>
<!-- Node12 -->
<g id="node12" class="node">
<title>Node12</title>
<g id="a_node12"><a xlink:href="structImVector.html#a2d80e87e81b1b01143c8d8be93e6fde1" target="_top" xlink:title=" ">
<polygon fill="white" stroke="#666666" points="883.5,-322.13 794.5,-322.13 794.5,-303.13 883.5,-303.13 883.5,-322.13"/>
<text text-anchor="middle" x="839" y="-310.13" font-family="Helvetica,sans-Serif" font-size="10.00">ImVector::back</text>
</a>
</g>
</g>
<!-- Node5&#45;&gt;Node12 -->
<g id="edge11" class="edge">
<title>Node5&#45;&gt;Node12</title>
<path fill="none" stroke="#63b8ff" d="M692.54,-323.65C720.8,-321.51 755.6,-318.87 784.08,-316.71"/>
<polygon fill="#63b8ff" stroke="#63b8ff" points="784.55,-320.19 794.26,-315.94 784.02,-313.21 784.55,-320.19"/>
</g>
<!-- Node13 -->
<g id="node13" class="node">
<title>Node13</title>
<g id="a_node13"><a xlink:href="structImVector.html#a2f88ac70791f2da6d4168d7b29f38f1e" target="_top" xlink:title=" ">
<polygon fill="white" stroke="#666666" points="885.5,-285.13 792.5,-285.13 792.5,-266.13 885.5,-266.13 885.5,-285.13"/>
<text text-anchor="middle" x="839" y="-273.13" font-family="Helvetica,sans-Serif" font-size="10.00">ImVector::erase</text>
</a>
</g>
</g>
<!-- Node5&#45;&gt;Node13 -->
<g id="edge12" class="edge">
<title>Node5&#45;&gt;Node13</title>
<path fill="none" stroke="#63b8ff" d="M684.85,-312.6C703.63,-306.58 725.75,-299.86 746,-294.63 757.72,-291.6 770.38,-288.73 782.44,-286.19"/>
<polygon fill="#63b8ff" stroke="#63b8ff" points="783.32,-289.58 792.41,-284.12 781.9,-282.72 783.32,-289.58"/>
</g>
<!-- Node5&#45;&gt;Node14 -->
<g id="edge14" class="edge">
<title>Node5&#45;&gt;Node14</title>
<path fill="none" stroke="#63b8ff" d="M659.84,-342.85C689.83,-365.82 743.49,-406.77 746,-407.63 884.86,-455.32 1061.41,-438.26 1150.34,-424.76"/>
<polygon fill="#63b8ff" stroke="#63b8ff" points="1150.89,-428.22 1160.23,-423.22 1149.81,-421.3 1150.89,-428.22"/>
</g>
<!-- Node15 -->
<g id="node15" class="node">
<title>Node15</title>
<g id="a_node15"><a xlink:href="structImDrawListSplitter.html#ad3797b0755caa07f3d69a9e3566eb0e5" target="_top" xlink:title=" ">
<polygon fill="white" stroke="#666666" points="896,-171.63 782,-171.63 782,-141.63 896,-141.63 896,-171.63"/>
<text text-anchor="start" x="790" y="-159.63" font-family="Helvetica,sans-Serif" font-size="10.00">ImDrawListSplitter</text>
<text text-anchor="middle" x="839" y="-148.63" font-family="Helvetica,sans-Serif" font-size="10.00">::SetCurrentChannel</text>
</a>
</g>
</g>
<!-- Node5&#45;&gt;Node15 -->
<g id="edge17" class="edge">
<title>Node5&#45;&gt;Node15</title>
<path fill="none" stroke="#63b8ff" d="M646.62,-312.62C660.54,-282.87 695.73,-216.32 746,-181.63 753.89,-176.19 762.91,-171.93 772.15,-168.59"/>
<polygon fill="#63b8ff" stroke="#63b8ff" points="773.4,-171.87 781.83,-165.45 771.24,-165.21 773.4,-171.87"/>
</g>
<!-- Node6&#45;&gt;Node7 -->
<g id="edge6" class="edge">
<title>Node6&#45;&gt;Node7</title>
<path fill="none" stroke="#63b8ff" d="M888.77,-379.07C903.03,-375.44 918.43,-370.68 932,-364.63 964.89,-349.96 998.93,-325.66 1019.66,-309.65"/>
<polygon fill="#63b8ff" stroke="#63b8ff" points="1021.99,-312.27 1027.69,-303.34 1017.67,-306.76 1021.99,-312.27"/>
</g>
<!-- Node8&#45;&gt;Node9 -->
<g id="edge8" class="edge">
<title>Node8&#45;&gt;Node9</title>
<path fill="none" stroke="#63b8ff" d="M1058.28,-209.26C1087.27,-225.9 1146.93,-260.15 1181.22,-279.83"/>
<polygon fill="#63b8ff" stroke="#63b8ff" points="1179.76,-283.03 1190.18,-284.97 1183.25,-276.96 1179.76,-283.03"/>
</g>
<!-- Node10 -->
<g id="node10" class="node">
<title>Node10</title>
<g id="a_node10"><a xlink:href="structImVector.html#a3a097635d464b1b70dc7d59996a88b28" target="_top" xlink:title=" ">
<polygon fill="white" stroke="#666666" points="1445,-412.13 1303,-412.13 1303,-393.13 1445,-393.13 1445,-412.13"/>
<text text-anchor="middle" x="1374" y="-400.13" font-family="Helvetica,sans-Serif" font-size="10.00">ImVector::_grow_capacity</text>
</a>
</g>
</g>
<!-- Node9&#45;&gt;Node10 -->
<g id="edge9" class="edge">
<title>Node9&#45;&gt;Node10</title>
<path fill="none" stroke="#63b8ff" d="M1222.18,-304.33C1240.18,-317.48 1273.57,-341.51 1303,-360.63 1317.58,-370.1 1334.26,-380.14 1347.68,-388.03"/>
<polygon fill="#63b8ff" stroke="#63b8ff" points="1345.99,-391.09 1356.39,-393.11 1349.52,-385.05 1345.99,-391.09"/>
</g>
<!-- Node11 -->
<g id="node11" class="node">
<title>Node11</title>
<g id="a_node11"><a xlink:href="structImVector.html#a0f14f5736c3372157856eebb67123b75" target="_top" xlink:title=" ">
<polygon fill="white" stroke="#666666" points="1425.5,-351.13 1322.5,-351.13 1322.5,-332.13 1425.5,-332.13 1425.5,-351.13"/>
<text text-anchor="middle" x="1374" y="-339.13" font-family="Helvetica,sans-Serif" font-size="10.00">ImVector::reserve</text>
</a>
</g>
</g>
<!-- Node9&#45;&gt;Node11 -->
<g id="edge10" class="edge">
<title>Node9&#45;&gt;Node11</title>
<path fill="none" stroke="#63b8ff" d="M1242.19,-304.14C1267.45,-311.38 1302.42,-321.4 1329.85,-329.26"/>
<polygon fill="#63b8ff" stroke="#63b8ff" points="1329,-332.66 1339.58,-332.05 1330.93,-325.93 1329,-332.66"/>
</g>
<!-- Node14&#45;&gt;Node10 -->
<g id="edge15" class="edge">
<title>Node14&#45;&gt;Node10</title>
<path fill="none" stroke="#63b8ff" d="M1255.56,-411.22C1267.14,-410.38 1279.89,-409.44 1292.59,-408.51"/>
<polygon fill="#63b8ff" stroke="#63b8ff" points="1293.02,-411.99 1302.74,-407.77 1292.51,-405.01 1293.02,-411.99"/>
</g>
<!-- Node14&#45;&gt;Node11 -->
<g id="edge16" class="edge">
<title>Node14&#45;&gt;Node11</title>
<path fill="none" stroke="#63b8ff" d="M1230.44,-405.09C1258.92,-392.41 1309.43,-369.92 1342.05,-355.41"/>
<polygon fill="#63b8ff" stroke="#63b8ff" points="1343.84,-358.44 1351.55,-351.18 1341,-352.04 1343.84,-358.44"/>
</g>
<!-- Node15&#45;&gt;Node8 -->
<g id="edge18" class="edge">
<title>Node15&#45;&gt;Node8</title>
<path fill="none" stroke="#63b8ff" d="M896.1,-168.72C924.02,-174.74 957.62,-181.98 985.28,-187.94"/>
<polygon fill="#63b8ff" stroke="#63b8ff" points="984.67,-191.39 995.18,-190.08 986.14,-184.55 984.67,-191.39"/>
</g>
<!-- Node16&#45;&gt;Node9 -->
<g id="edge26" class="edge">
<title>Node16&#45;&gt;Node9</title>
<path fill="none" stroke="#63b8ff" d="M688.82,-104.01C696.18,-101.54 703.49,-98.46 710,-94.63 729.77,-82.99 724.86,-66.55 746,-57.63 822.16,-25.47 853.03,-33.17 932,-57.63 1057.28,-96.43 1160.59,-228.74 1194.87,-276.91"/>
<polygon fill="#63b8ff" stroke="#63b8ff" points="1192.02,-278.94 1200.63,-285.13 1197.76,-274.93 1192.02,-278.94"/>
</g>
<!-- Node17 -->
<g id="node17" class="node">
<title>Node17</title>
<g id="a_node17"><a xlink:href="structImDrawList.html#a8e51ddbe1f9732bc271ce807bec23f54" target="_top" xlink:title=" ">
<polygon fill="white" stroke="#666666" points="929,-209.13 749,-209.13 749,-190.13 929,-190.13 929,-209.13"/>
<text text-anchor="middle" x="839" y="-197.13" font-family="Helvetica,sans-Serif" font-size="10.00">ImDrawList::_OnChangedClipRect</text>
</a>
</g>
</g>
<!-- Node16&#45;&gt;Node17 -->
<g id="edge22" class="edge">
<title>Node16&#45;&gt;Node17</title>
<path fill="none" stroke="#63b8ff" d="M651.93,-123.23C670.76,-137.89 709.06,-165.72 746,-180.63 752.4,-183.21 759.2,-185.46 766.09,-187.42"/>
<polygon fill="#63b8ff" stroke="#63b8ff" points="765.66,-190.92 776.22,-190.07 767.43,-184.15 765.66,-190.92"/>
</g>
<!-- Node18 -->
<g id="node18" class="node">
<title>Node18</title>
<g id="a_node18"><a xlink:href="imgui__internal_8h.html#a7667efd95147d0422f140917c71a9226" target="_top" xlink:title=" ">
<polygon fill="white" stroke="#666666" points="864,-123.13 814,-123.13 814,-104.13 864,-104.13 864,-123.13"/>
<text text-anchor="middle" x="839" y="-111.13" font-family="Helvetica,sans-Serif" font-size="10.00">ImMax</text>
</a>
</g>
</g>
<!-- Node16&#45;&gt;Node18 -->
<g id="edge25" class="edge">
<title>Node16&#45;&gt;Node18</title>
<path fill="none" stroke="#63b8ff" d="M710.09,-113.63C741.96,-113.63 778.22,-113.63 803.97,-113.63"/>
<polygon fill="#63b8ff" stroke="#63b8ff" points="803.98,-117.13 813.98,-113.63 803.98,-110.13 803.98,-117.13"/>
</g>
<!-- Node17&#45;&gt;Node7 -->
<g id="edge24" class="edge">
<title>Node17&#45;&gt;Node7</title>
<path fill="none" stroke="#63b8ff" d="M860.23,-209.16C895.63,-225.84 968.94,-260.38 1010,-279.73"/>
<polygon fill="#63b8ff" stroke="#63b8ff" points="1008.68,-282.98 1019.22,-284.07 1011.67,-276.65 1008.68,-282.98"/>
</g>
<!-- Node17&#45;&gt;Node8 -->
<g id="edge23" class="edge">
<title>Node17&#45;&gt;Node8</title>
<path fill="none" stroke="#63b8ff" d="M929.25,-199.63C938.77,-199.63 948.42,-199.63 957.85,-199.63"/>
<polygon fill="#63b8ff" stroke="#63b8ff" points="957.98,-203.13 967.98,-199.63 957.98,-196.13 957.98,-203.13"/>
</g>
<!-- Node19&#45;&gt;Node9 -->
<g id="edge31" class="edge">
<title>Node19&#45;&gt;Node9</title>
<path fill="none" stroke="#63b8ff" d="M656.96,-67.12C677.36,-56.28 712.98,-39.21 746,-32.63 906.78,-0.59 986.39,34.51 1113,-69.63 1178.57,-123.56 1199.09,-231.07 1204.91,-275.12"/>
<polygon fill="#63b8ff" stroke="#63b8ff" points="1201.44,-275.6 1206.11,-285.1 1208.39,-274.76 1201.44,-275.6"/>
</g>
<!-- Node20 -->
<g id="node20" class="node">
<title>Node20</title>
<g id="a_node20"><a xlink:href="structImDrawList.html#aceba6d030d32c39618d4af49dead068f" target="_top" xlink:title=" ">
<polygon fill="white" stroke="#666666" points="927,-86.13 751,-86.13 751,-67.13 927,-67.13 927,-86.13"/>
<text text-anchor="middle" x="839" y="-74.13" font-family="Helvetica,sans-Serif" font-size="10.00">ImDrawList::_OnChangedTexture</text>
</a>
</g>
</g>
<!-- Node19&#45;&gt;Node20 -->
<g id="edge28" class="edge">
<title>Node19&#45;&gt;Node20</title>
<path fill="none" stroke="#63b8ff" d="M707.59,-76.63C718.22,-76.63 729.4,-76.63 740.55,-76.63"/>
<polygon fill="#63b8ff" stroke="#63b8ff" points="740.76,-80.13 750.76,-76.63 740.76,-73.13 740.76,-80.13"/>
</g>
<!-- Node20&#45;&gt;Node7 -->
<g id="edge30" class="edge">
<title>Node20&#45;&gt;Node7</title>
<path fill="none" stroke="#63b8ff" d="M920.08,-86.24C924.37,-88.56 928.4,-91.33 932,-94.63 974.35,-133.36 939.38,-168.89 968,-218.63 981.37,-241.87 1003.4,-263.47 1019.48,-277.46"/>
<polygon fill="#63b8ff" stroke="#63b8ff" points="1017.38,-280.26 1027.27,-284.05 1021.9,-274.92 1017.38,-280.26"/>
</g>
<!-- Node20&#45;&gt;Node8 -->
<g id="edge29" class="edge">
<title>Node20&#45;&gt;Node8</title>
<path fill="none" stroke="#63b8ff" d="M911.26,-86.22C918.47,-88.46 925.52,-91.23 932,-94.63 972.76,-116.03 1008.4,-157.81 1026.62,-181.72"/>
<polygon fill="#63b8ff" stroke="#63b8ff" points="1023.95,-183.98 1032.72,-189.92 1029.56,-179.81 1023.95,-183.98"/>
</g>
</g>
</svg>
