<?xml version="1.0" encoding="UTF-8" standalone="no"?>
<!DOCTYPE svg PUBLIC "-//W3C//DTD SVG 1.1//EN"
 "http://www.w3.org/Graphics/SVG/1.1/DTD/svg11.dtd">
<!-- Generated by graphviz version 2.43.0 (0)
 -->
<!-- Title: ImGui::EndChild Pages: 1 -->
<svg width="1679pt" height="1004pt"
 viewBox="0.00 0.00 1679.00 1003.97" xmlns="http://www.w3.org/2000/svg" xmlns:xlink="http://www.w3.org/1999/xlink">
<g id="graph0" class="graph" transform="scale(1 1) rotate(0) translate(4 999.97)">
<title>ImGui::EndChild</title>
<!-- Node1 -->
<g id="node1" class="node">
<title>Node1</title>
<g id="a_node1"><a xlink:title=" ">
<polygon fill="#999999" stroke="#666666" points="95,-120.97 0,-120.97 0,-101.97 95,-101.97 95,-120.97"/>
<text text-anchor="middle" x="47.5" y="-108.97" font-family="Helvetica,sans-Serif" font-size="10.00">ImGui::EndChild</text>
</a>
</g>
</g>
<!-- Node2 -->
<g id="node2" class="node">
<title>Node2</title>
<g id="a_node2"><a xlink:href="namespaceImGui.html#a0c2ccafc8d403c02a6590ac21157b9ac" target="_top" xlink:title=" ">
<polygon fill="white" stroke="#666666" points="252,-531.97 159,-531.97 159,-512.97 252,-512.97 252,-531.97"/>
<text text-anchor="middle" x="205.5" y="-519.97" font-family="Helvetica,sans-Serif" font-size="10.00">ImGui::ItemAdd</text>
</a>
</g>
</g>
<!-- Node1&#45;&gt;Node2 -->
<g id="edge1" class="edge">
<title>Node1&#45;&gt;Node2</title>
<path fill="none" stroke="#63b8ff" d="M52.2,-121.23C72.39,-174.41 169.3,-429.72 197.05,-502.86"/>
<polygon fill="#63b8ff" stroke="#63b8ff" points="193.94,-504.52 200.76,-512.63 200.49,-502.04 193.94,-504.52"/>
</g>
<!-- Node183 -->
<g id="node41" class="node">
<title>Node183</title>
<g id="a_node41"><a xlink:href="namespaceImGui.html#a4b5818a652d943ea54e0cec9fb3943d7" target="_top" xlink:title=" ">
<polygon fill="white" stroke="#666666" points="253,-157.97 158,-157.97 158,-138.97 253,-138.97 253,-157.97"/>
<text text-anchor="middle" x="205.5" y="-145.97" font-family="Helvetica,sans-Serif" font-size="10.00">ImGui::ItemSize</text>
</a>
</g>
</g>
<!-- Node1&#45;&gt;Node183 -->
<g id="edge63" class="edge">
<title>Node1&#45;&gt;Node183</title>
<path fill="none" stroke="#63b8ff" d="M88.67,-121C108.7,-125.75 133.12,-131.54 154.37,-136.58"/>
<polygon fill="#63b8ff" stroke="#63b8ff" points="153.65,-140.01 164.19,-138.91 155.27,-133.2 153.65,-140.01"/>
</g>
<!-- Node185 -->
<g id="node43" class="node">
<title>Node185</title>
<g id="a_node43"><a xlink:href="structImGuiWindow.html#a147da28bf5d167cbe0a363c4a578dea1" target="_top" xlink:title=" ">
<polygon fill="white" stroke="#666666" points="261.5,-120.97 149.5,-120.97 149.5,-101.97 261.5,-101.97 261.5,-120.97"/>
<text text-anchor="middle" x="205.5" y="-108.97" font-family="Helvetica,sans-Serif" font-size="10.00">ImGuiWindow::Rect</text>
</a>
</g>
</g>
<!-- Node1&#45;&gt;Node185 -->
<g id="edge66" class="edge">
<title>Node1&#45;&gt;Node185</title>
<path fill="none" stroke="#63b8ff" d="M95.31,-111.47C109.16,-111.47 124.59,-111.47 139.38,-111.47"/>
<polygon fill="#63b8ff" stroke="#63b8ff" points="139.49,-114.97 149.49,-111.47 139.49,-107.97 139.49,-114.97"/>
</g>
<!-- Node186 -->
<g id="node44" class="node">
<title>Node186</title>
<g id="a_node44"><a xlink:href="namespaceImGui.html#a2722dcfe26c7f6e8cd522102ef5b7df2" target="_top" xlink:title=" ">
<polygon fill="white" stroke="#666666" points="658,-82.97 521,-82.97 521,-63.97 658,-63.97 658,-82.97"/>
<text text-anchor="middle" x="589.5" y="-70.97" font-family="Helvetica,sans-Serif" font-size="10.00">ImGui::RenderNavCursor</text>
</a>
</g>
</g>
<!-- Node1&#45;&gt;Node186 -->
<g id="edge67" class="edge">
<title>Node1&#45;&gt;Node186</title>
<path fill="none" stroke="#63b8ff" d="M83.57,-101.89C98.13,-98.31 115.27,-94.59 131,-92.47 263.38,-74.64 419.07,-72.03 510.45,-72.34"/>
<polygon fill="#63b8ff" stroke="#63b8ff" points="510.7,-75.84 520.72,-72.39 510.74,-68.84 510.7,-75.84"/>
</g>
<!-- Node191 -->
<g id="node49" class="node">
<title>Node191</title>
<g id="a_node49"><a xlink:href="namespaceImGui.html#a7985325468909a376a84128c5f968372" target="_top" xlink:title=" ">
<polygon fill="white" stroke="#666666" points="280,-45.47 131,-45.47 131,-15.47 280,-15.47 280,-45.47"/>
<text text-anchor="start" x="139" y="-33.47" font-family="Helvetica,sans-Serif" font-size="10.00">ImGui::SetLastItemDataFor</text>
<text text-anchor="middle" x="205.5" y="-22.47" font-family="Helvetica,sans-Serif" font-size="10.00">ChildWindowItem</text>
</a>
</g>
</g>
<!-- Node1&#45;&gt;Node191 -->
<g id="edge77" class="edge">
<title>Node1&#45;&gt;Node191</title>
<path fill="none" stroke="#63b8ff" d="M62.05,-101.82C78.03,-90.71 105.63,-72.33 131,-59.47 137.97,-55.94 145.47,-52.55 152.93,-49.4"/>
<polygon fill="#63b8ff" stroke="#63b8ff" points="154.39,-52.59 162.31,-45.56 151.73,-46.11 154.39,-52.59"/>
</g>
<!-- Node3 -->
<g id="node3" class="node">
<title>Node3</title>
<g id="a_node3"><a xlink:href="structImDrawList.html#ad96f10a3e954fe0c5b7c96d4e205af7b" target="_top" xlink:title=" ">
<polygon fill="white" stroke="#666666" points="862,-345.97 743,-345.97 743,-326.97 862,-326.97 862,-345.97"/>
<text text-anchor="middle" x="802.5" y="-333.97" font-family="Helvetica,sans-Serif" font-size="10.00">ImDrawList::AddRect</text>
</a>
</g>
</g>
<!-- Node2&#45;&gt;Node3 -->
<g id="edge2" class="edge">
<title>Node2&#45;&gt;Node3</title>
<path fill="none" stroke="#63b8ff" d="M224.19,-512.8C269.08,-488.66 391.67,-425.27 501,-391.47 578.76,-367.44 671.27,-352.45 732.91,-344.31"/>
<polygon fill="#63b8ff" stroke="#63b8ff" points="733.44,-347.77 742.91,-343.01 732.54,-340.83 733.44,-347.77"/>
</g>
<!-- Node18 -->
<g id="node11" class="node">
<title>Node18</title>
<g id="a_node11"><a xlink:href="namespaceImGui.html#ae8ab0d7dfc90af8e82db3ed9e7829219" target="_top" xlink:title=" ">
<polygon fill="white" stroke="#666666" points="678,-314.47 501,-314.47 501,-284.47 678,-284.47 678,-314.47"/>
<text text-anchor="start" x="509" y="-302.47" font-family="Helvetica,sans-Serif" font-size="10.00">ImGui::DebugLocateItemResolve</text>
<text text-anchor="middle" x="589.5" y="-291.47" font-family="Helvetica,sans-Serif" font-size="10.00">WithLastItem</text>
</a>
</g>
</g>
<!-- Node2&#45;&gt;Node18 -->
<g id="edge11" class="edge">
<title>Node2&#45;&gt;Node18</title>
<path fill="none" stroke="#63b8ff" d="M209.56,-512.64C219.44,-482.61 253.55,-391.65 316,-349.47 367.03,-315.01 435.18,-302.51 490.56,-298.63"/>
<polygon fill="#63b8ff" stroke="#63b8ff" points="490.98,-302.11 500.74,-298 490.54,-295.12 490.98,-302.11"/>
</g>
<!-- Node37 -->
<g id="node20" class="node">
<title>Node37</title>
<g id="a_node20"><a xlink:href="namespaceImGui.html#ae0b8ea0e06c457316d6aed6c5b2a1c25" target="_top" xlink:title=" ">
<polygon fill="white" stroke="#666666" points="881.5,-474.97 723.5,-474.97 723.5,-455.97 881.5,-455.97 881.5,-474.97"/>
<text text-anchor="middle" x="802.5" y="-462.97" font-family="Helvetica,sans-Serif" font-size="10.00">ImGui::IsMouseHoveringRect</text>
</a>
</g>
</g>
<!-- Node2&#45;&gt;Node37 -->
<g id="edge24" class="edge">
<title>Node2&#45;&gt;Node37</title>
<path fill="none" stroke="#63b8ff" d="M252.2,-518.09C350.76,-508.65 584.76,-486.24 713.25,-473.93"/>
<polygon fill="#63b8ff" stroke="#63b8ff" points="713.84,-477.39 723.46,-472.95 713.17,-470.42 713.84,-477.39"/>
</g>
<!-- Node41 -->
<g id="node24" class="node">
<title>Node41</title>
<g id="a_node24"><a xlink:href="structImRect.html#a0af3bade3781e5e7c6afdf71ccfb0d43" target="_top" xlink:title=" ">
<polygon fill="white" stroke="#666666" points="1070.5,-540.97 969.5,-540.97 969.5,-521.97 1070.5,-521.97 1070.5,-540.97"/>
<text text-anchor="middle" x="1020" y="-528.97" font-family="Helvetica,sans-Serif" font-size="10.00">ImRect::Overlaps</text>
</a>
</g>
</g>
<!-- Node2&#45;&gt;Node41 -->
<g id="edge62" class="edge">
<title>Node2&#45;&gt;Node41</title>
<path fill="none" stroke="#63b8ff" d="M252.22,-522.98C390.39,-524.51 803.68,-529.09 959.06,-530.81"/>
<polygon fill="#63b8ff" stroke="#63b8ff" points="959.32,-534.31 969.35,-530.92 959.39,-527.31 959.32,-534.31"/>
</g>
<!-- Node42 -->
<g id="node25" class="node">
<title>Node42</title>
<g id="a_node25"><a xlink:href="namespaceImGui.html#a338deb537666a886cf3ece08c07e9fa9" target="_top" xlink:title=" ">
<polygon fill="white" stroke="#666666" points="465,-940.97 316,-940.97 316,-921.97 465,-921.97 465,-940.97"/>
<text text-anchor="middle" x="390.5" y="-928.97" font-family="Helvetica,sans-Serif" font-size="10.00">ImGui::ItemHandleShortcut</text>
</a>
</g>
</g>
<!-- Node2&#45;&gt;Node42 -->
<g id="edge31" class="edge">
<title>Node2&#45;&gt;Node42</title>
<path fill="none" stroke="#63b8ff" d="M210.84,-532.18C234.57,-585.22 348.67,-840.22 380.97,-912.4"/>
<polygon fill="#63b8ff" stroke="#63b8ff" points="377.84,-913.98 385.12,-921.68 384.23,-911.12 377.84,-913.98"/>
</g>
<!-- Node45 -->
<g id="node28" class="node">
<title>Node45</title>
<g id="a_node28"><a xlink:href="namespaceImGui.html#a85a245c78a9f7c351636bdad6e60c488" target="_top" xlink:title=" ">
<polygon fill="white" stroke="#666666" points="446,-588.97 335,-588.97 335,-569.97 446,-569.97 446,-588.97"/>
<text text-anchor="middle" x="390.5" y="-576.97" font-family="Helvetica,sans-Serif" font-size="10.00">ImGui::KeepAliveID</text>
</a>
</g>
</g>
<!-- Node2&#45;&gt;Node45 -->
<g id="edge35" class="edge">
<title>Node2&#45;&gt;Node45</title>
<path fill="none" stroke="#63b8ff" d="M237.13,-532.01C267.88,-541.59 315.4,-556.39 349.19,-566.92"/>
<polygon fill="#63b8ff" stroke="#63b8ff" points="348.18,-570.27 358.77,-569.9 350.26,-563.59 348.18,-570.27"/>
</g>
<!-- Node46 -->
<g id="node29" class="node">
<title>Node46</title>
<g id="a_node29"><a xlink:href="namespaceImGui.html#aa217c2f0448788f3c064bf828a8f9d8f" target="_top" xlink:title=" ">
<polygon fill="white" stroke="#666666" points="456,-683.97 325,-683.97 325,-664.97 456,-664.97 456,-683.97"/>
<text text-anchor="middle" x="390.5" y="-671.97" font-family="Helvetica,sans-Serif" font-size="10.00">ImGui::NavProcessItem</text>
</a>
</g>
</g>
<!-- Node2&#45;&gt;Node46 -->
<g id="edge36" class="edge">
<title>Node2&#45;&gt;Node46</title>
<path fill="none" stroke="#63b8ff" d="M217.95,-531.98C248.5,-557.36 332.23,-626.9 370.26,-658.49"/>
<polygon fill="#63b8ff" stroke="#63b8ff" points="368.13,-661.27 378.06,-664.97 372.6,-655.89 368.13,-661.27"/>
</g>
<!-- Node4 -->
<g id="node4" class="node">
<title>Node4</title>
<g id="a_node4"><a xlink:href="structImDrawList.html#a2251eb264ed8b17a253c409787375053" target="_top" xlink:title=" ">
<polygon fill="white" stroke="#666666" points="1080.5,-377.97 959.5,-377.97 959.5,-358.97 1080.5,-358.97 1080.5,-377.97"/>
<text text-anchor="middle" x="1020" y="-365.97" font-family="Helvetica,sans-Serif" font-size="10.00">ImDrawList::PathRect</text>
</a>
</g>
</g>
<!-- Node3&#45;&gt;Node4 -->
<g id="edge3" class="edge">
<title>Node3&#45;&gt;Node4</title>
<path fill="none" stroke="#63b8ff" d="M862.1,-345.17C888.96,-349.16 921.01,-353.92 949.12,-358.1"/>
<polygon fill="#63b8ff" stroke="#63b8ff" points="948.88,-361.6 959.29,-359.61 949.91,-354.67 948.88,-361.6"/>
</g>
<!-- Node17 -->
<g id="node10" class="node">
<title>Node17</title>
<g id="a_node10"><a xlink:href="structImDrawList.html#a60bf9040ef3d09b39c4ba8f5a2a68ae9" target="_top" xlink:title=" ">
<polygon fill="white" stroke="#666666" points="1085,-340.97 955,-340.97 955,-321.97 1085,-321.97 1085,-340.97"/>
<text text-anchor="middle" x="1020" y="-328.97" font-family="Helvetica,sans-Serif" font-size="10.00">ImDrawList::PathStroke</text>
</a>
</g>
</g>
<!-- Node3&#45;&gt;Node17 -->
<g id="edge10" class="edge">
<title>Node3&#45;&gt;Node17</title>
<path fill="none" stroke="#63b8ff" d="M862.1,-335.11C887.52,-334.52 917.58,-333.83 944.56,-333.2"/>
<polygon fill="#63b8ff" stroke="#63b8ff" points="944.81,-336.7 954.73,-332.96 944.65,-329.7 944.81,-336.7"/>
</g>
<!-- Node5 -->
<g id="node5" class="node">
<title>Node5</title>
<g id="a_node5"><a xlink:href="imgui__draw_8cpp.html#abc26563004ba48126f2e8b70ea0067af" target="_top" xlink:title=" ">
<polygon fill="white" stroke="#666666" points="1283,-390.97 1172,-390.97 1172,-371.97 1283,-371.97 1283,-390.97"/>
<text text-anchor="middle" x="1227.5" y="-378.97" font-family="Helvetica,sans-Serif" font-size="10.00">FixRectCornerFlags</text>
</a>
</g>
</g>
<!-- Node4&#45;&gt;Node5 -->
<g id="edge4" class="edge">
<title>Node4&#45;&gt;Node5</title>
<path fill="none" stroke="#63b8ff" d="M1080.72,-372.25C1106.14,-373.86 1135.85,-375.74 1161.79,-377.38"/>
<polygon fill="#63b8ff" stroke="#63b8ff" points="1161.71,-380.88 1171.91,-378.02 1162.15,-373.89 1161.71,-380.88"/>
</g>
<!-- Node6 -->
<g id="node6" class="node">
<title>Node6</title>
<g id="a_node6"><a xlink:href="imgui__internal_8h.html#a7f9d7828066a9d61b5630adcdf4655d3" target="_top" xlink:title=" ">
<polygon fill="white" stroke="#666666" points="1251,-279.97 1204,-279.97 1204,-260.97 1251,-260.97 1251,-279.97"/>
<text text-anchor="middle" x="1227.5" y="-267.97" font-family="Helvetica,sans-Serif" font-size="10.00">ImMin</text>
</a>
</g>
</g>
<!-- Node4&#45;&gt;Node6 -->
<g id="edge5" class="edge">
<title>Node4&#45;&gt;Node6</title>
<path fill="none" stroke="#63b8ff" d="M1080.94,-363.6C1092.31,-360.67 1103.58,-356.21 1113,-349.47 1138.61,-331.16 1123.62,-307.09 1149,-288.47 1161.82,-279.07 1178.77,-274.48 1193.55,-272.28"/>
<polygon fill="#63b8ff" stroke="#63b8ff" points="1194.32,-275.72 1203.84,-271.07 1193.5,-268.77 1194.32,-275.72"/>
</g>
<!-- Node7 -->
<g id="node7" class="node">
<title>Node7</title>
<g id="a_node7"><a xlink:href="structImDrawList.html#a6d307c6de1a6522e76fa410e8fe96fcc" target="_top" xlink:title=" ">
<polygon fill="#fff0f0" stroke="red" points="1300,-353.97 1155,-353.97 1155,-334.97 1300,-334.97 1300,-353.97"/>
<text text-anchor="middle" x="1227.5" y="-341.97" font-family="Helvetica,sans-Serif" font-size="10.00">ImDrawList::PathArcToFast</text>
</a>
</g>
</g>
<!-- Node4&#45;&gt;Node7 -->
<g id="edge6" class="edge">
<title>Node4&#45;&gt;Node7</title>
<path fill="none" stroke="#63b8ff" d="M1080.72,-361.5C1100.77,-359.16 1123.49,-356.5 1144.92,-354"/>
<polygon fill="#63b8ff" stroke="#63b8ff" points="1145.47,-357.46 1154.99,-352.82 1144.65,-350.51 1145.47,-357.46"/>
</g>
<!-- Node16 -->
<g id="node9" class="node">
<title>Node16</title>
<g id="a_node9"><a xlink:href="structImDrawList.html#a828d944325ed58d8b57abd3647bffaaf" target="_top" xlink:title=" ">
<polygon fill="white" stroke="#666666" points="1292.5,-316.97 1162.5,-316.97 1162.5,-297.97 1292.5,-297.97 1292.5,-316.97"/>
<text text-anchor="middle" x="1227.5" y="-304.97" font-family="Helvetica,sans-Serif" font-size="10.00">ImDrawList::PathLineTo</text>
</a>
</g>
</g>
<!-- Node4&#45;&gt;Node16 -->
<g id="edge8" class="edge">
<title>Node4&#45;&gt;Node16</title>
<path fill="none" stroke="#63b8ff" d="M1080.91,-359.59C1091.81,-357 1102.92,-353.69 1113,-349.47 1130.74,-342.06 1131.35,-333.1 1149,-325.47 1153.71,-323.44 1158.69,-321.61 1163.76,-319.98"/>
<polygon fill="#63b8ff" stroke="#63b8ff" points="1164.97,-323.27 1173.57,-317.07 1162.98,-316.56 1164.97,-323.27"/>
</g>
<!-- Node12 -->
<g id="node8" class="node">
<title>Node12</title>
<g id="a_node8"><a xlink:href="structImVector.html#aab5df48e0711a48bd12f3206e08c4108" target="_top" xlink:title=" ">
<polygon fill="#fff0f0" stroke="red" points="1491,-334.97 1373,-334.97 1373,-315.97 1491,-315.97 1491,-334.97"/>
<text text-anchor="middle" x="1432" y="-322.97" font-family="Helvetica,sans-Serif" font-size="10.00">ImVector::push_back</text>
</a>
</g>
</g>
<!-- Node7&#45;&gt;Node12 -->
<g id="edge7" class="edge">
<title>Node7&#45;&gt;Node12</title>
<path fill="none" stroke="#63b8ff" d="M1300.18,-337.75C1320.52,-335.84 1342.61,-333.77 1362.74,-331.88"/>
<polygon fill="#63b8ff" stroke="#63b8ff" points="1363.13,-335.36 1372.76,-330.94 1362.48,-328.39 1363.13,-335.36"/>
</g>
<!-- Node16&#45;&gt;Node12 -->
<g id="edge9" class="edge">
<title>Node16&#45;&gt;Node12</title>
<path fill="none" stroke="#63b8ff" d="M1292.57,-313.17C1314.88,-315.15 1339.98,-317.38 1362.62,-319.4"/>
<polygon fill="#63b8ff" stroke="#63b8ff" points="1362.57,-322.9 1372.84,-320.3 1363.19,-315.93 1362.57,-322.9"/>
</g>
<!-- Node18&#45;&gt;Node3 -->
<g id="edge15" class="edge">
<title>Node18&#45;&gt;Node3</title>
<path fill="none" stroke="#63b8ff" d="M676.32,-314.52C696.63,-318.08 717.95,-321.82 737.12,-325.18"/>
<polygon fill="#63b8ff" stroke="#63b8ff" points="736.78,-328.68 747.23,-326.96 737.99,-321.78 736.78,-328.68"/>
</g>
<!-- Node19 -->
<g id="node12" class="node">
<title>Node19</title>
<g id="a_node12"><a xlink:href="structImDrawList.html#aa21e5a1c6e00239581f97d344fc0db61" target="_top" xlink:title=" ">
<polygon fill="white" stroke="#666666" points="861,-308.97 744,-308.97 744,-289.97 861,-289.97 861,-308.97"/>
<text text-anchor="middle" x="802.5" y="-296.97" font-family="Helvetica,sans-Serif" font-size="10.00">ImDrawList::AddLine</text>
</a>
</g>
</g>
<!-- Node18&#45;&gt;Node19 -->
<g id="edge12" class="edge">
<title>Node18&#45;&gt;Node19</title>
<path fill="none" stroke="#63b8ff" d="M678.15,-299.47C696.7,-299.47 716.01,-299.47 733.69,-299.47"/>
<polygon fill="#63b8ff" stroke="#63b8ff" points="733.9,-302.97 743.9,-299.47 733.9,-295.97 733.9,-302.97"/>
</g>
<!-- Node20 -->
<g id="node13" class="node">
<title>Node20</title>
<g id="a_node13"><a xlink:href="structImRect.html#af33a7424c3341d08acd69da30c27c753" target="_top" xlink:title=" ">
<polygon fill="white" stroke="#666666" points="849,-234.97 756,-234.97 756,-215.97 849,-215.97 849,-234.97"/>
<text text-anchor="middle" x="802.5" y="-222.97" font-family="Helvetica,sans-Serif" font-size="10.00">ImRect::Expand</text>
</a>
</g>
</g>
<!-- Node18&#45;&gt;Node20 -->
<g id="edge16" class="edge">
<title>Node18&#45;&gt;Node20</title>
<path fill="none" stroke="#63b8ff" d="M619.21,-284.24C643.79,-271.74 680.42,-254.39 714,-243.47 724.06,-240.2 734.97,-237.4 745.56,-235.04"/>
<polygon fill="#63b8ff" stroke="#63b8ff" points="746.53,-238.42 755.58,-232.92 745.08,-231.57 746.53,-238.42"/>
</g>
<!-- Node21 -->
<g id="node14" class="node">
<title>Node21</title>
<g id="a_node14"><a xlink:href="namespaceImGui.html#a77e1a981b472415e6613a2bd0966d817" target="_top" xlink:title=" ">
<polygon fill="white" stroke="#666666" points="886,-271.97 719,-271.97 719,-252.97 886,-252.97 886,-271.97"/>
<text text-anchor="middle" x="802.5" y="-259.97" font-family="Helvetica,sans-Serif" font-size="10.00">ImGui::GetForegroundDrawList</text>
</a>
</g>
</g>
<!-- Node18&#45;&gt;Node21 -->
<g id="edge17" class="edge">
<title>Node18&#45;&gt;Node21</title>
<path fill="none" stroke="#63b8ff" d="M676.32,-284.42C696.63,-280.86 717.95,-277.12 737.12,-273.76"/>
<polygon fill="#63b8ff" stroke="#63b8ff" points="737.99,-277.16 747.23,-271.99 736.78,-270.27 737.99,-277.16"/>
</g>
<!-- Node19&#45;&gt;Node16 -->
<g id="edge13" class="edge">
<title>Node19&#45;&gt;Node16</title>
<path fill="none" stroke="#63b8ff" d="M861.43,-300.57C937.02,-302 1069.39,-304.5 1152.26,-306.07"/>
<polygon fill="#63b8ff" stroke="#63b8ff" points="1152.3,-309.57 1162.36,-306.26 1152.43,-302.57 1152.3,-309.57"/>
</g>
<!-- Node19&#45;&gt;Node17 -->
<g id="edge14" class="edge">
<title>Node19&#45;&gt;Node17</title>
<path fill="none" stroke="#63b8ff" d="M861.25,-308.05C887.01,-311.87 917.67,-316.43 945.08,-320.5"/>
<polygon fill="#63b8ff" stroke="#63b8ff" points="944.61,-323.97 955.02,-321.97 945.64,-317.04 944.61,-323.97"/>
</g>
<!-- Node22 -->
<g id="node15" class="node">
<title>Node22</title>
<g id="a_node15"><a xlink:href="imgui_8cpp.html#a86964372ace3c5efb9325a2162f04efd" target="_top" xlink:title=" ">
<polygon fill="#fff0f0" stroke="red" points="1092.5,-200.97 947.5,-200.97 947.5,-181.97 1092.5,-181.97 1092.5,-200.97"/>
<text text-anchor="middle" x="1020" y="-188.97" font-family="Helvetica,sans-Serif" font-size="10.00">GetViewportBgFgDrawList</text>
</a>
</g>
</g>
<!-- Node21&#45;&gt;Node22 -->
<g id="edge18" class="edge">
<title>Node21&#45;&gt;Node22</title>
<path fill="none" stroke="#63b8ff" d="M855.79,-252.95C867.5,-250.31 879.77,-247.14 891,-243.47 907.64,-238.03 910.84,-234.22 927,-227.47 945.65,-219.68 966.63,-211.43 983.84,-204.8"/>
<polygon fill="#63b8ff" stroke="#63b8ff" points="985.41,-207.95 993.49,-201.1 982.9,-201.41 985.41,-207.95"/>
</g>
<!-- Node32 -->
<g id="node16" class="node">
<title>Node32</title>
<g id="a_node16"><a xlink:href="structImDrawList.html#a608a9d9a83715ba87dced8321ed64329" target="_top" xlink:title=" ">
<polygon fill="white" stroke="#666666" points="1298.5,-179.97 1156.5,-179.97 1156.5,-160.97 1298.5,-160.97 1298.5,-179.97"/>
<text text-anchor="middle" x="1227.5" y="-167.97" font-family="Helvetica,sans-Serif" font-size="10.00">ImDrawList::PushClipRect</text>
</a>
</g>
</g>
<!-- Node22&#45;&gt;Node32 -->
<g id="edge19" class="edge">
<title>Node22&#45;&gt;Node32</title>
<path fill="none" stroke="#63b8ff" d="M1092.59,-184.16C1109.82,-182.4 1128.35,-180.5 1145.96,-178.7"/>
<polygon fill="#63b8ff" stroke="#63b8ff" points="1146.62,-182.15 1156.21,-177.66 1145.91,-175.19 1146.62,-182.15"/>
</g>
<!-- Node32&#45;&gt;Node12 -->
<g id="edge23" class="edge">
<title>Node32&#45;&gt;Node12</title>
<path fill="none" stroke="#63b8ff" d="M1241.17,-180.17C1275.12,-206.16 1368.41,-277.56 1410.23,-309.58"/>
<polygon fill="#63b8ff" stroke="#63b8ff" points="1408.27,-312.48 1418.34,-315.78 1412.52,-306.92 1408.27,-312.48"/>
</g>
<!-- Node33 -->
<g id="node17" class="node">
<title>Node33</title>
<g id="a_node17"><a xlink:href="structImDrawList.html#a8e51ddbe1f9732bc271ce807bec23f54" target="_top" xlink:title=" ">
<polygon fill="#fff0f0" stroke="red" points="1522,-83.97 1342,-83.97 1342,-64.97 1522,-64.97 1522,-83.97"/>
<text text-anchor="middle" x="1432" y="-71.97" font-family="Helvetica,sans-Serif" font-size="10.00">ImDrawList::_OnChangedClipRect</text>
</a>
</g>
</g>
<!-- Node32&#45;&gt;Node33 -->
<g id="edge20" class="edge">
<title>Node32&#45;&gt;Node33</title>
<path fill="none" stroke="#63b8ff" d="M1248.66,-160.92C1284.67,-143.85 1360.17,-108.05 1401.84,-88.3"/>
<polygon fill="#63b8ff" stroke="#63b8ff" points="1403.39,-91.44 1410.92,-83.99 1400.39,-85.11 1403.39,-91.44"/>
</g>
<!-- Node34 -->
<g id="node19" class="node">
<title>Node34</title>
<g id="a_node19"><a xlink:href="imgui__internal_8h.html#a7667efd95147d0422f140917c71a9226" target="_top" xlink:title=" ">
<polygon fill="white" stroke="#666666" points="1457,-179.97 1407,-179.97 1407,-160.97 1457,-160.97 1457,-179.97"/>
<text text-anchor="middle" x="1432" y="-167.97" font-family="Helvetica,sans-Serif" font-size="10.00">ImMax</text>
</a>
</g>
</g>
<!-- Node32&#45;&gt;Node34 -->
<g id="edge22" class="edge">
<title>Node32&#45;&gt;Node34</title>
<path fill="none" stroke="#63b8ff" d="M1298.76,-170.47C1331.83,-170.47 1369.8,-170.47 1396.54,-170.47"/>
<polygon fill="#63b8ff" stroke="#63b8ff" points="1396.55,-173.97 1406.55,-170.47 1396.55,-166.97 1396.55,-173.97"/>
</g>
<!-- Node27 -->
<g id="node18" class="node">
<title>Node27</title>
<g id="a_node18"><a xlink:href="structImVector.html#a3db7ce62d3c429effdb893fbf7148c1c" target="_top" xlink:title=" ">
<polygon fill="white" stroke="#666666" points="1671,-64.97 1558,-64.97 1558,-45.97 1671,-45.97 1671,-64.97"/>
<text text-anchor="middle" x="1614.5" y="-52.97" font-family="Helvetica,sans-Serif" font-size="10.00">ImVector::pop_back</text>
</a>
</g>
</g>
<!-- Node33&#45;&gt;Node27 -->
<g id="edge21" class="edge">
<title>Node33&#45;&gt;Node27</title>
<path fill="none" stroke="#63b8ff" d="M1522.19,-65.08C1530.78,-64.18 1539.38,-63.27 1547.68,-62.4"/>
<polygon fill="#63b8ff" stroke="#63b8ff" points="1548.06,-65.88 1557.64,-61.35 1547.33,-58.92 1548.06,-65.88"/>
</g>
<!-- Node38 -->
<g id="node21" class="node">
<title>Node38</title>
<g id="a_node21"><a xlink:href="structImRect.html#ac02d5cf6ce0358aea9ed9df43d368f3f" target="_top" xlink:title=" ">
<polygon fill="white" stroke="#666666" points="1069,-255.97 971,-255.97 971,-236.97 1069,-236.97 1069,-255.97"/>
<text text-anchor="middle" x="1020" y="-243.97" font-family="Helvetica,sans-Serif" font-size="10.00">ImRect::ClipWith</text>
</a>
</g>
</g>
<!-- Node37&#45;&gt;Node38 -->
<g id="edge25" class="edge">
<title>Node37&#45;&gt;Node38</title>
<path fill="none" stroke="#63b8ff" d="M879.36,-455.85C883.57,-453.54 887.5,-450.77 891,-447.47 936.16,-404.85 891.7,-363.56 927,-312.47 942.7,-289.75 968.87,-272.09 989.3,-260.78"/>
<polygon fill="#63b8ff" stroke="#63b8ff" points="991.03,-263.82 998.22,-256.04 987.75,-257.64 991.03,-263.82"/>
</g>
<!-- Node39 -->
<g id="node22" class="node">
<title>Node39</title>
<g id="a_node22"><a xlink:href="structImRect.html#a8dbab244f4e5b786faa9684eb85110fc" target="_top" xlink:title=" ">
<polygon fill="white" stroke="#666666" points="1090,-455.97 950,-455.97 950,-436.97 1090,-436.97 1090,-455.97"/>
<text text-anchor="middle" x="1020" y="-443.97" font-family="Helvetica,sans-Serif" font-size="10.00">ImRect::ContainsWithPad</text>
</a>
</g>
</g>
<!-- Node37&#45;&gt;Node39 -->
<g id="edge28" class="edge">
<title>Node37&#45;&gt;Node39</title>
<path fill="none" stroke="#63b8ff" d="M881.61,-458.59C900.49,-456.92 920.7,-455.14 939.65,-453.47"/>
<polygon fill="#63b8ff" stroke="#63b8ff" points="940.07,-456.95 949.73,-452.58 939.46,-449.97 940.07,-456.95"/>
</g>
<!-- Node40 -->
<g id="node23" class="node">
<title>Node40</title>
<g id="a_node23"><a xlink:href="structImGuiViewportP.html#adb4c14f0b0a42bff9c1c0ab1971027f7" target="_top" xlink:title=" ">
<polygon fill="white" stroke="#666666" points="1102,-492.97 938,-492.97 938,-473.97 1102,-473.97 1102,-492.97"/>
<text text-anchor="middle" x="1020" y="-480.97" font-family="Helvetica,sans-Serif" font-size="10.00">ImGuiViewportP::GetMainRect</text>
</a>
</g>
</g>
<!-- Node37&#45;&gt;Node40 -->
<g id="edge29" class="edge">
<title>Node37&#45;&gt;Node40</title>
<path fill="none" stroke="#63b8ff" d="M881.61,-472C896.62,-473.25 912.48,-474.58 927.87,-475.86"/>
<polygon fill="#63b8ff" stroke="#63b8ff" points="927.64,-479.35 937.9,-476.7 928.22,-472.38 927.64,-479.35"/>
</g>
<!-- Node37&#45;&gt;Node41 -->
<g id="edge30" class="edge">
<title>Node37&#45;&gt;Node41</title>
<path fill="none" stroke="#63b8ff" d="M840.73,-474.99C856.34,-479.16 874.63,-484.28 891,-489.47 907.22,-494.62 910.88,-497.03 927,-502.47 943.55,-508.07 961.9,-513.92 977.82,-518.89"/>
<polygon fill="#63b8ff" stroke="#63b8ff" points="976.8,-522.24 987.39,-521.86 978.87,-515.55 976.8,-522.24"/>
</g>
<!-- Node38&#45;&gt;Node6 -->
<g id="edge27" class="edge">
<title>Node38&#45;&gt;Node6</title>
<path fill="none" stroke="#63b8ff" d="M1069.18,-252.1C1107.5,-256.58 1160.09,-262.72 1193.69,-266.64"/>
<polygon fill="#63b8ff" stroke="#63b8ff" points="1193.55,-270.15 1203.89,-267.83 1194.36,-263.2 1193.55,-270.15"/>
</g>
<!-- Node38&#45;&gt;Node34 -->
<g id="edge26" class="edge">
<title>Node38&#45;&gt;Node34</title>
<path fill="none" stroke="#63b8ff" d="M1069.24,-237.53C1153.17,-221.97 1324.06,-190.3 1396.89,-176.8"/>
<polygon fill="#63b8ff" stroke="#63b8ff" points="1397.71,-180.2 1406.9,-174.94 1396.43,-173.32 1397.71,-180.2"/>
</g>
<!-- Node43 -->
<g id="node26" class="node">
<title>Node43</title>
<g id="a_node26"><a xlink:href="namespaceImGui.html#a3ea169ace83f149ae2b8c1a6d0f6d457" target="_top" xlink:title=" ">
<polygon fill="white" stroke="#666666" points="670.5,-940.97 508.5,-940.97 508.5,-921.97 670.5,-921.97 670.5,-940.97"/>
<text text-anchor="middle" x="589.5" y="-928.97" font-family="Helvetica,sans-Serif" font-size="10.00">ImGui::NavHighlightActivated</text>
</a>
</g>
</g>
<!-- Node42&#45;&gt;Node43 -->
<g id="edge32" class="edge">
<title>Node42&#45;&gt;Node43</title>
<path fill="none" stroke="#63b8ff" d="M465.14,-931.47C475.93,-931.47 487.15,-931.47 498.23,-931.47"/>
<polygon fill="#63b8ff" stroke="#63b8ff" points="498.35,-934.97 508.35,-931.47 498.35,-927.97 498.35,-934.97"/>
</g>
<!-- Node44 -->
<g id="node27" class="node">
<title>Node44</title>
<g id="a_node27"><a xlink:href="namespaceImGui.html#a5a7ca2346e4eb2dfe08a396349df7995" target="_top" xlink:title=" ">
<polygon fill="white" stroke="#666666" points="635.5,-977.97 543.5,-977.97 543.5,-958.97 635.5,-958.97 635.5,-977.97"/>
<text text-anchor="middle" x="589.5" y="-965.97" font-family="Helvetica,sans-Serif" font-size="10.00">ImGui::Shortcut</text>
</a>
</g>
</g>
<!-- Node42&#45;&gt;Node44 -->
<g id="edge33" class="edge">
<title>Node42&#45;&gt;Node44</title>
<path fill="none" stroke="#63b8ff" d="M442.23,-941C470.17,-946.25 504.88,-952.77 533.48,-958.14"/>
<polygon fill="#63b8ff" stroke="#63b8ff" points="532.84,-961.58 543.32,-959.99 534.13,-954.7 532.84,-961.58"/>
</g>
<!-- Node44&#45;&gt;Node44 -->
<g id="edge34" class="edge">
<title>Node44&#45;&gt;Node44</title>
<path fill="none" stroke="#63b8ff" d="M558.98,-978.06C544.14,-986.71 554.31,-995.97 589.5,-995.97 614.24,-995.97 626.62,-991.39 626.62,-985.66"/>
<polygon fill="#63b8ff" stroke="#63b8ff" points="629.22,-983.31 620.02,-978.06 623.93,-987.9 629.22,-983.31"/>
</g>
<!-- Node46&#45;&gt;Node41 -->
<g id="edge56" class="edge">
<title>Node46&#45;&gt;Node41</title>
<path fill="none" stroke="#63b8ff" d="M402.4,-664.94C421.11,-649.16 461.18,-617.96 501,-603.47 665.12,-543.78 718.42,-582.24 891,-555.47 914.35,-551.85 939.96,-547.19 962.1,-542.94"/>
<polygon fill="#63b8ff" stroke="#63b8ff" points="962.86,-546.35 972.01,-541.02 961.53,-539.48 962.86,-546.35"/>
</g>
<!-- Node11 -->
<g id="node30" class="node">
<title>Node11</title>
<g id="a_node30"><a xlink:href="imgui__internal_8h.html#a6e61ede308bfd68c7434e17905a29fc8" target="_top" xlink:title=" ">
<polygon fill="white" stroke="#666666" points="620,-864.97 559,-864.97 559,-845.97 620,-845.97 620,-864.97"/>
<text text-anchor="middle" x="589.5" y="-852.97" font-family="Helvetica,sans-Serif" font-size="10.00">ImClamp</text>
</a>
</g>
</g>
<!-- Node46&#45;&gt;Node11 -->
<g id="edge37" class="edge">
<title>Node46&#45;&gt;Node11</title>
<path fill="none" stroke="#63b8ff" d="M395.48,-684.35C407.18,-712.12 444.26,-791.42 501,-831.47 514.93,-841.31 532.73,-847.12 548.64,-850.55"/>
<polygon fill="#63b8ff" stroke="#63b8ff" points="548.28,-854.04 558.76,-852.48 549.59,-847.17 548.28,-854.04"/>
</g>
<!-- Node47 -->
<g id="node31" class="node">
<title>Node47</title>
<g id="a_node31"><a xlink:href="namespaceImGui.html#afc3f5b074b158526cfe8531de843aa5f" target="_top" xlink:title=" ">
<polygon fill="white" stroke="#666666" points="1101.5,-845.97 938.5,-845.97 938.5,-826.97 1101.5,-826.97 1101.5,-845.97"/>
<text text-anchor="middle" x="1020" y="-833.97" font-family="Helvetica,sans-Serif" font-size="10.00">ImGui::NavApplyItemToResult</text>
</a>
</g>
</g>
<!-- Node46&#45;&gt;Node47 -->
<g id="edge38" class="edge">
<title>Node46&#45;&gt;Node47</title>
<path fill="none" stroke="#63b8ff" d="M398.48,-684.11C414.22,-705.07 454.72,-754.87 501,-779.47 636.44,-851.46 819.66,-853.1 927.99,-846"/>
<polygon fill="#63b8ff" stroke="#63b8ff" points="928.5,-849.47 938.23,-845.28 928.01,-842.49 928.5,-849.47"/>
</g>
<!-- Node48 -->
<g id="node32" class="node">
<title>Node48</title>
<g id="a_node32"><a xlink:href="namespaceImGui.html#a06d8e9fae450c785dc8f61f6e03462a7" target="_top" xlink:title=" ">
<polygon fill="white" stroke="#666666" points="1306,-883.97 1149,-883.97 1149,-864.97 1306,-864.97 1306,-883.97"/>
<text text-anchor="middle" x="1227.5" y="-871.97" font-family="Helvetica,sans-Serif" font-size="10.00">ImGui::WindowRectAbsToRel</text>
</a>
</g>
</g>
<!-- Node46&#45;&gt;Node48 -->
<g id="edge61" class="edge">
<title>Node46&#45;&gt;Node48</title>
<path fill="none" stroke="#63b8ff" d="M393.3,-684.4C400.06,-718.47 427.44,-830.88 501,-874.47 606.66,-937.08 972.36,-904.3 1140.59,-885.13"/>
<polygon fill="#63b8ff" stroke="#63b8ff" points="1141.12,-888.59 1150.65,-883.97 1140.32,-881.64 1141.12,-888.59"/>
</g>
<!-- Node49 -->
<g id="node33" class="node">
<title>Node49</title>
<g id="a_node33"><a xlink:href="namespaceImGui.html#a6a225bee464b9da701c6554e3fd2e5ef" target="_top" xlink:title=" ">
<polygon fill="white" stroke="#666666" points="662.5,-770.47 516.5,-770.47 516.5,-740.47 662.5,-740.47 662.5,-770.47"/>
<text text-anchor="start" x="524.5" y="-758.47" font-family="Helvetica,sans-Serif" font-size="10.00">ImGui::NavProcessItemFor</text>
<text text-anchor="middle" x="589.5" y="-747.47" font-family="Helvetica,sans-Serif" font-size="10.00">TabbingRequest</text>
</a>
</g>
</g>
<!-- Node46&#45;&gt;Node49 -->
<g id="edge40" class="edge">
<title>Node46&#45;&gt;Node49</title>
<path fill="none" stroke="#63b8ff" d="M414.87,-684.08C446.2,-696.96 502.48,-720.11 542.47,-736.55"/>
<polygon fill="#63b8ff" stroke="#63b8ff" points="541.18,-739.8 551.76,-740.36 543.84,-733.33 541.18,-739.8"/>
</g>
<!-- Node51 -->
<g id="node35" class="node">
<title>Node51</title>
<g id="a_node35"><a xlink:href="namespaceImGui.html#a2cd868535661cdb5671214662f3c9388" target="_top" xlink:title=" ">
<polygon fill="white" stroke="#666666" points="1113,-721.97 927,-721.97 927,-702.97 1113,-702.97 1113,-721.97"/>
<text text-anchor="middle" x="1020" y="-709.97" font-family="Helvetica,sans-Serif" font-size="10.00">ImGui::NavUpdateAnyRequestFlag</text>
</a>
</g>
</g>
<!-- Node46&#45;&gt;Node51 -->
<g id="edge55" class="edge">
<title>Node46&#45;&gt;Node51</title>
<path fill="none" stroke="#63b8ff" d="M456.29,-678.4C565.39,-685 786.59,-698.4 916.8,-706.28"/>
<polygon fill="#63b8ff" stroke="#63b8ff" points="916.59,-709.78 926.79,-706.89 917.02,-702.79 916.59,-709.78"/>
</g>
<!-- Node52 -->
<g id="node36" class="node">
<title>Node52</title>
<g id="a_node36"><a xlink:href="namespaceImGui.html#a3f63daa35c17837e05d2291af30cbd94" target="_top" xlink:title=" ">
<polygon fill="#fff0f0" stroke="red" points="650,-419.97 529,-419.97 529,-400.97 650,-400.97 650,-419.97"/>
<text text-anchor="middle" x="589.5" y="-407.97" font-family="Helvetica,sans-Serif" font-size="10.00">ImGui::NavScoreItem</text>
</a>
</g>
</g>
<!-- Node46&#45;&gt;Node52 -->
<g id="edge46" class="edge">
<title>Node46&#45;&gt;Node52</title>
<path fill="none" stroke="#63b8ff" d="M402.13,-664.71C417.02,-650.76 444.58,-623.98 465,-598.47 511.64,-540.2 557.48,-464.14 577.71,-429.34"/>
<polygon fill="#63b8ff" stroke="#63b8ff" points="580.97,-430.71 582.93,-420.3 574.9,-427.21 580.97,-430.71"/>
</g>
<!-- Node181 -->
<g id="node39" class="node">
<title>Node181</title>
<g id="a_node39"><a xlink:href="namespaceImGui.html#ada2736a9b034b93ba877f46577bc5e8b" target="_top" xlink:title=" ">
<polygon fill="#fff0f0" stroke="red" points="1299.5,-505.97 1155.5,-505.97 1155.5,-486.97 1299.5,-486.97 1299.5,-505.97"/>
<text text-anchor="middle" x="1227.5" y="-493.97" font-family="Helvetica,sans-Serif" font-size="10.00">ImGui::SetNavFocusScope</text>
</a>
</g>
</g>
<!-- Node46&#45;&gt;Node181 -->
<g id="edge57" class="edge">
<title>Node46&#45;&gt;Node181</title>
<path fill="none" stroke="#63b8ff" d="M415.48,-664.94C437.42,-656.56 470.94,-644.62 501,-637.47 768.28,-573.89 849.95,-629.73 1113,-550.47 1144.81,-540.89 1178.93,-523.6 1201.36,-511.17"/>
<polygon fill="#63b8ff" stroke="#63b8ff" points="1203.22,-514.13 1210.21,-506.17 1199.79,-508.04 1203.22,-514.13"/>
</g>
<!-- Node182 -->
<g id="node40" class="node">
<title>Node182</title>
<g id="a_node40"><a xlink:href="namespaceImGui.html#aa422c756f467e650d67b4fb1b74ff5a1" target="_top" xlink:title=" ">
<polygon fill="white" stroke="#666666" points="652.5,-664.97 526.5,-664.97 526.5,-645.97 652.5,-645.97 652.5,-664.97"/>
<text text-anchor="middle" x="589.5" y="-652.97" font-family="Helvetica,sans-Serif" font-size="10.00">ImGui::SetNavWindow</text>
</a>
</g>
</g>
<!-- Node46&#45;&gt;Node182 -->
<g id="edge59" class="edge">
<title>Node46&#45;&gt;Node182</title>
<path fill="none" stroke="#63b8ff" d="M456.01,-668.25C475.21,-666.4 496.38,-664.36 516.06,-662.46"/>
<polygon fill="#63b8ff" stroke="#63b8ff" points="516.58,-665.93 526.2,-661.48 515.91,-658.96 516.58,-665.93"/>
</g>
<!-- Node47&#45;&gt;Node48 -->
<g id="edge39" class="edge">
<title>Node47&#45;&gt;Node48</title>
<path fill="none" stroke="#63b8ff" d="M1072.59,-846.01C1100.56,-851.19 1135.32,-857.61 1164.73,-863.05"/>
<polygon fill="#63b8ff" stroke="#63b8ff" points="1164.42,-866.55 1174.89,-864.93 1165.69,-859.67 1164.42,-866.55"/>
</g>
<!-- Node49&#45;&gt;Node47 -->
<g id="edge41" class="edge">
<title>Node49&#45;&gt;Node47</title>
<path fill="none" stroke="#63b8ff" d="M627.19,-770.54C651.44,-779.92 684.15,-791.5 714,-798.47 785,-815.06 867.1,-824.77 928.23,-830.21"/>
<polygon fill="#63b8ff" stroke="#63b8ff" points="927.97,-833.7 938.23,-831.08 928.57,-826.73 927.97,-833.7"/>
</g>
<!-- Node50 -->
<g id="node34" class="node">
<title>Node50</title>
<g id="a_node34"><a xlink:href="namespaceImGui.html#ad71eb039682bb8e3bb950c67eeec4ed8" target="_top" xlink:title=" ">
<polygon fill="white" stroke="#666666" points="891,-789.47 714,-789.47 714,-759.47 891,-759.47 891,-789.47"/>
<text text-anchor="start" x="722" y="-777.47" font-family="Helvetica,sans-Serif" font-size="10.00">ImGui::NavMoveRequestResolve</text>
<text text-anchor="middle" x="802.5" y="-766.47" font-family="Helvetica,sans-Serif" font-size="10.00">WithLastItem</text>
</a>
</g>
</g>
<!-- Node49&#45;&gt;Node50 -->
<g id="edge42" class="edge">
<title>Node49&#45;&gt;Node50</title>
<path fill="none" stroke="#63b8ff" d="M662.52,-761.96C675.78,-763.15 689.83,-764.42 703.69,-765.67"/>
<polygon fill="#63b8ff" stroke="#63b8ff" points="703.47,-769.16 713.74,-766.57 704.1,-762.19 703.47,-769.16"/>
</g>
<!-- Node49&#45;&gt;Node51 -->
<g id="edge45" class="edge">
<title>Node49&#45;&gt;Node51</title>
<path fill="none" stroke="#63b8ff" d="M662.7,-748.23C732.21,-741.25 838.02,-730.63 916.29,-722.78"/>
<polygon fill="#63b8ff" stroke="#63b8ff" points="917.06,-726.22 926.66,-721.74 916.36,-719.26 917.06,-726.22"/>
</g>
<!-- Node50&#45;&gt;Node47 -->
<g id="edge43" class="edge">
<title>Node50&#45;&gt;Node47</title>
<path fill="none" stroke="#63b8ff" d="M855.67,-789.48C892.51,-800.08 941.3,-814.12 975.94,-824.08"/>
<polygon fill="#63b8ff" stroke="#63b8ff" points="975.17,-827.51 985.75,-826.91 977.11,-820.78 975.17,-827.51"/>
</g>
<!-- Node50&#45;&gt;Node51 -->
<g id="edge44" class="edge">
<title>Node50&#45;&gt;Node51</title>
<path fill="none" stroke="#63b8ff" d="M855.67,-759.46C892.51,-748.86 941.3,-734.83 975.94,-724.86"/>
<polygon fill="#63b8ff" stroke="#63b8ff" points="977.11,-728.17 985.75,-722.04 975.17,-721.44 977.11,-728.17"/>
</g>
<!-- Node52&#45;&gt;Node3 -->
<g id="edge47" class="edge">
<title>Node52&#45;&gt;Node3</title>
<path fill="none" stroke="#63b8ff" d="M620.32,-400.96C637.55,-395.03 659.42,-386.78 678,-377.47 694.97,-368.97 696.41,-361.62 714,-354.47 719.94,-352.06 726.25,-349.96 732.64,-348.13"/>
<polygon fill="#63b8ff" stroke="#63b8ff" points="733.95,-351.4 742.73,-345.47 732.16,-344.63 733.95,-351.4"/>
</g>
<!-- Node52&#45;&gt;Node21 -->
<g id="edge52" class="edge">
<title>Node52&#45;&gt;Node21</title>
<path fill="none" stroke="#63b8ff" d="M600.77,-400.85C617.44,-385.1 651.2,-352.67 678,-323.47 694.85,-305.11 692.6,-293.25 714,-280.47 716.86,-278.76 719.86,-277.21 722.95,-275.81"/>
<polygon fill="#63b8ff" stroke="#63b8ff" points="724.47,-278.97 732.47,-272.02 721.88,-272.47 724.47,-278.97"/>
</g>
<!-- Node52&#45;&gt;Node37 -->
<g id="edge53" class="edge">
<title>Node52&#45;&gt;Node37</title>
<path fill="none" stroke="#63b8ff" d="M619.74,-420.03C644.64,-427.97 681.45,-439.26 714,-447.47 722.84,-449.7 732.22,-451.85 741.45,-453.85"/>
<polygon fill="#63b8ff" stroke="#63b8ff" points="740.85,-457.3 751.35,-455.95 742.3,-450.45 740.85,-457.3"/>
</g>
<!-- Node52&#45;&gt;Node41 -->
<g id="edge54" class="edge">
<title>Node52&#45;&gt;Node41</title>
<path fill="none" stroke="#63b8ff" d="M602.66,-419.99C623.91,-436.09 669.8,-468.52 714,-484.47 795.87,-514.02 896.66,-524.99 959.38,-529.07"/>
<polygon fill="#63b8ff" stroke="#63b8ff" points="959.3,-532.57 969.5,-529.69 959.73,-525.58 959.3,-532.57"/>
</g>
<!-- Node53 -->
<g id="node37" class="node">
<title>Node53</title>
<g id="a_node37"><a xlink:href="structImDrawList.html#a6b16ab764160b0251d2e7b3bd08c1ffc" target="_top" xlink:title=" ">
<polygon fill="#fff0f0" stroke="red" points="875,-382.97 730,-382.97 730,-363.97 875,-363.97 875,-382.97"/>
<text text-anchor="middle" x="802.5" y="-370.97" font-family="Helvetica,sans-Serif" font-size="10.00">ImDrawList::AddRectFilled</text>
</a>
</g>
</g>
<!-- Node52&#45;&gt;Node53 -->
<g id="edge48" class="edge">
<title>Node52&#45;&gt;Node53</title>
<path fill="none" stroke="#63b8ff" d="M644.84,-400.94C672.91,-396.02 707.36,-389.98 736.79,-384.82"/>
<polygon fill="#63b8ff" stroke="#63b8ff" points="737.73,-388.21 746.98,-383.03 736.53,-381.31 737.73,-388.21"/>
</g>
<!-- Node58 -->
<g id="node38" class="node">
<title>Node58</title>
<g id="a_node38"><a xlink:href="structImDrawList.html#ac5221bd86b3429f6d5b6e6ffe454942d" target="_top" xlink:title=" ">
<polygon fill="white" stroke="#666666" points="861,-419.97 744,-419.97 744,-400.97 861,-400.97 861,-419.97"/>
<text text-anchor="middle" x="802.5" y="-407.97" font-family="Helvetica,sans-Serif" font-size="10.00">ImDrawList::AddText</text>
</a>
</g>
</g>
<!-- Node52&#45;&gt;Node58 -->
<g id="edge50" class="edge">
<title>Node52&#45;&gt;Node58</title>
<path fill="none" stroke="#63b8ff" d="M650.12,-410.47C676.16,-410.47 706.84,-410.47 733.74,-410.47"/>
<polygon fill="#63b8ff" stroke="#63b8ff" points="733.85,-413.97 743.85,-410.47 733.85,-406.97 733.85,-413.97"/>
</g>
<!-- Node53&#45;&gt;Node4 -->
<g id="edge49" class="edge">
<title>Node53&#45;&gt;Node4</title>
<path fill="none" stroke="#63b8ff" d="M875.26,-371.81C899.04,-371.26 925.47,-370.64 949.11,-370.09"/>
<polygon fill="#63b8ff" stroke="#63b8ff" points="949.49,-373.59 959.41,-369.86 949.33,-366.59 949.49,-373.59"/>
</g>
<!-- Node58&#45;&gt;Node58 -->
<g id="edge51" class="edge">
<title>Node58&#45;&gt;Node58</title>
<path fill="none" stroke="#63b8ff" d="M769.82,-420.06C753.93,-428.71 764.82,-437.97 802.5,-437.97 829.58,-437.97 842.83,-433.19 842.23,-427.28"/>
<polygon fill="#63b8ff" stroke="#63b8ff" points="844.67,-424.77 835.18,-420.06 839.66,-429.66 844.67,-424.77"/>
</g>
<!-- Node181&#45;&gt;Node12 -->
<g id="edge58" class="edge">
<title>Node181&#45;&gt;Node12</title>
<path fill="none" stroke="#63b8ff" d="M1239.97,-486.79C1273.31,-458.63 1370.49,-376.57 1411.93,-341.58"/>
<polygon fill="#63b8ff" stroke="#63b8ff" points="1414.28,-344.18 1419.66,-335.05 1409.76,-338.83 1414.28,-344.18"/>
</g>
<!-- Node182&#45;&gt;Node51 -->
<g id="edge60" class="edge">
<title>Node182&#45;&gt;Node51</title>
<path fill="none" stroke="#63b8ff" d="M652.75,-657.31C713.79,-659.85 809.32,-665.79 891,-679.47 920.64,-684.44 953.45,-692.96 978.43,-700.1"/>
<polygon fill="#63b8ff" stroke="#63b8ff" points="977.7,-703.53 988.28,-702.96 979.66,-696.81 977.7,-703.53"/>
</g>
<!-- Node183&#45;&gt;Node34 -->
<g id="edge64" class="edge">
<title>Node183&#45;&gt;Node34</title>
<path fill="none" stroke="#63b8ff" d="M253.26,-139.8C272.62,-136.47 295.33,-132.89 316,-130.47 436.59,-116.39 467.09,-111.47 588.5,-111.47 588.5,-111.47 588.5,-111.47 1021,-111.47 1161.57,-111.47 1326.5,-145.87 1396.65,-162.14"/>
<polygon fill="#63b8ff" stroke="#63b8ff" points="1396.15,-165.61 1406.68,-164.49 1397.75,-158.8 1396.15,-165.61"/>
</g>
<!-- Node184 -->
<g id="node42" class="node">
<title>Node184</title>
<g id="a_node42"><a xlink:href="namespaceImGui.html#addd433eb3aae59119e341e80db474f66" target="_top" xlink:title=" ">
<polygon fill="white" stroke="#666666" points="440.5,-158.97 340.5,-158.97 340.5,-139.97 440.5,-139.97 440.5,-158.97"/>
<text text-anchor="middle" x="390.5" y="-146.97" font-family="Helvetica,sans-Serif" font-size="10.00">ImGui::SameLine</text>
</a>
</g>
</g>
<!-- Node183&#45;&gt;Node184 -->
<g id="edge65" class="edge">
<title>Node183&#45;&gt;Node184</title>
<path fill="none" stroke="#63b8ff" d="M253.15,-148.73C276.61,-148.86 305.28,-149.01 330.28,-149.15"/>
<polygon fill="#63b8ff" stroke="#63b8ff" points="330.35,-152.65 340.37,-149.2 330.39,-145.65 330.35,-152.65"/>
</g>
<!-- Node186&#45;&gt;Node3 -->
<g id="edge68" class="edge">
<title>Node186&#45;&gt;Node3</title>
<path fill="none" stroke="#63b8ff" d="M594.04,-82.98C609.49,-123.98 672.12,-285.1 714,-317.47 719.75,-321.92 726.32,-325.37 733.21,-328.05"/>
<polygon fill="#63b8ff" stroke="#63b8ff" points="732.18,-331.39 742.77,-331.24 734.4,-324.76 732.18,-331.39"/>
</g>
<!-- Node186&#45;&gt;Node32 -->
<g id="edge76" class="edge">
<title>Node186&#45;&gt;Node32</title>
<path fill="none" stroke="#63b8ff" d="M652.93,-82.99C771.47,-101.07 1028.49,-140.27 1154.25,-159.45"/>
<polygon fill="#63b8ff" stroke="#63b8ff" points="1153.76,-162.92 1164.18,-160.97 1154.82,-156 1153.76,-162.92"/>
</g>
<!-- Node186&#45;&gt;Node38 -->
<g id="edge69" class="edge">
<title>Node186&#45;&gt;Node38</title>
<path fill="none" stroke="#63b8ff" d="M600.82,-83.23C620.94,-101.72 667.54,-141.94 714,-163.47 787.45,-197.52 812.99,-184.83 891,-206.47 921.4,-214.91 955.48,-225.62 980.83,-233.84"/>
<polygon fill="#63b8ff" stroke="#63b8ff" points="979.84,-237.19 990.43,-236.96 982.01,-230.54 979.84,-237.19"/>
</g>
<!-- Node187 -->
<g id="node45" class="node">
<title>Node187</title>
<g id="a_node45"><a xlink:href="structImRect.html#ac583156fd0e9306181fff5d120b262ea" target="_top" xlink:title=" ">
<polygon fill="white" stroke="#666666" points="852.5,-82.97 752.5,-82.97 752.5,-63.97 852.5,-63.97 852.5,-82.97"/>
<text text-anchor="middle" x="802.5" y="-70.97" font-family="Helvetica,sans-Serif" font-size="10.00">ImRect::Contains</text>
</a>
</g>
</g>
<!-- Node186&#45;&gt;Node187 -->
<g id="edge70" class="edge">
<title>Node186&#45;&gt;Node187</title>
<path fill="none" stroke="#63b8ff" d="M658.13,-73.47C685.16,-73.47 716.01,-73.47 742.16,-73.47"/>
<polygon fill="#63b8ff" stroke="#63b8ff" points="742.3,-76.97 752.3,-73.47 742.3,-69.97 742.3,-76.97"/>
</g>
<!-- Node188 -->
<g id="node46" class="node">
<title>Node188</title>
<g id="a_node46"><a xlink:href="namespaceImGui.html#a0de2d9bd347d9866511eb8d014e62556" target="_top" xlink:title=" ">
<polygon fill="white" stroke="#666666" points="859.5,-45.97 745.5,-45.97 745.5,-26.97 859.5,-26.97 859.5,-45.97"/>
<text text-anchor="middle" x="802.5" y="-33.97" font-family="Helvetica,sans-Serif" font-size="10.00">ImGui::GetColorU32</text>
</a>
</g>
</g>
<!-- Node186&#45;&gt;Node188 -->
<g id="edge71" class="edge">
<title>Node186&#45;&gt;Node188</title>
<path fill="none" stroke="#63b8ff" d="M644.84,-63.94C672.91,-59.02 707.36,-52.98 736.79,-47.82"/>
<polygon fill="#63b8ff" stroke="#63b8ff" points="737.73,-51.21 746.98,-46.03 736.53,-44.31 737.73,-51.21"/>
</g>
<!-- Node190 -->
<g id="node48" class="node">
<title>Node190</title>
<g id="a_node48"><a xlink:href="structImDrawList.html#a44f40c59ca755f559020f5a7fa81103a" target="_top" xlink:title=" ">
<polygon fill="white" stroke="#666666" points="1296,-45.97 1159,-45.97 1159,-26.97 1296,-26.97 1296,-45.97"/>
<text text-anchor="middle" x="1227.5" y="-33.97" font-family="Helvetica,sans-Serif" font-size="10.00">ImDrawList::PopClipRect</text>
</a>
</g>
</g>
<!-- Node186&#45;&gt;Node190 -->
<g id="edge73" class="edge">
<title>Node186&#45;&gt;Node190</title>
<path fill="none" stroke="#63b8ff" d="M605.74,-63.96C628.35,-50.47 672.58,-26.42 714,-17.47 875.85,17.51 1073.01,-8.36 1168.77,-25.13"/>
<polygon fill="#63b8ff" stroke="#63b8ff" points="1168.36,-28.62 1178.82,-26.93 1169.59,-21.73 1168.36,-28.62"/>
</g>
<!-- Node189 -->
<g id="node47" class="node">
<title>Node189</title>
<g id="a_node47"><a xlink:href="namespaceImGui.html#abe2691de0b1a71c774ab24cc91564a94" target="_top" xlink:title=" ">
<polygon fill="white" stroke="#666666" points="1093,-56.47 947,-56.47 947,-26.47 1093,-26.47 1093,-56.47"/>
<text text-anchor="start" x="955" y="-44.47" font-family="Helvetica,sans-Serif" font-size="10.00">ImGui::ColorConvertFloat4</text>
<text text-anchor="middle" x="1020" y="-33.47" font-family="Helvetica,sans-Serif" font-size="10.00">ToU32</text>
</a>
</g>
</g>
<!-- Node188&#45;&gt;Node189 -->
<g id="edge72" class="edge">
<title>Node188&#45;&gt;Node189</title>
<path fill="none" stroke="#63b8ff" d="M859.56,-37.77C883.12,-38.32 911,-38.97 936.81,-39.57"/>
<polygon fill="#63b8ff" stroke="#63b8ff" points="936.88,-43.07 946.96,-39.8 937.04,-36.07 936.88,-43.07"/>
</g>
<!-- Node190&#45;&gt;Node33 -->
<g id="edge74" class="edge">
<title>Node190&#45;&gt;Node33</title>
<path fill="none" stroke="#63b8ff" d="M1279.34,-46.01C1306.9,-51.19 1341.15,-57.61 1370.13,-63.05"/>
<polygon fill="#63b8ff" stroke="#63b8ff" points="1369.67,-66.52 1380.14,-64.93 1370.96,-59.64 1369.67,-66.52"/>
</g>
<!-- Node190&#45;&gt;Node27 -->
<g id="edge75" class="edge">
<title>Node190&#45;&gt;Node27</title>
<path fill="none" stroke="#63b8ff" d="M1296,-39.8C1366.92,-43.3 1477.7,-48.77 1547.9,-52.24"/>
<polygon fill="#63b8ff" stroke="#63b8ff" points="1547.79,-55.73 1557.95,-52.73 1548.13,-48.74 1547.79,-55.73"/>
</g>
<!-- Node192 -->
<g id="node50" class="node">
<title>Node192</title>
<g id="a_node50"><a xlink:href="namespaceImGui.html#abec584e4a04b0a2c7681263511f348b0" target="_top" xlink:title=" ">
<polygon fill="white" stroke="#666666" points="457.5,-39.97 323.5,-39.97 323.5,-20.97 457.5,-20.97 457.5,-39.97"/>
<text text-anchor="middle" x="390.5" y="-27.97" font-family="Helvetica,sans-Serif" font-size="10.00">ImGui::SetLastItemData</text>
</a>
</g>
</g>
<!-- Node191&#45;&gt;Node192 -->
<g id="edge78" class="edge">
<title>Node191&#45;&gt;Node192</title>
<path fill="none" stroke="#63b8ff" d="M280.14,-30.47C290.98,-30.47 302.17,-30.47 313.06,-30.47"/>
<polygon fill="#63b8ff" stroke="#63b8ff" points="313.39,-33.97 323.39,-30.47 313.39,-26.97 313.39,-33.97"/>
</g>
</g>
</svg>
