<?xml version="1.0" encoding="UTF-8" standalone="no"?>
<!DOCTYPE svg PUBLIC "-//W3C//DTD SVG 1.1//EN"
 "http://www.w3.org/Graphics/SVG/1.1/DTD/svg11.dtd">
<!-- Generated by graphviz version 2.43.0 (0)
 -->
<!-- Title: ImGui::DockBuilderRemoveNode Pages: 1 -->
<svg width="579pt" height="70pt"
 viewBox="0.00 0.00 579.00 69.50" xmlns="http://www.w3.org/2000/svg" xmlns:xlink="http://www.w3.org/1999/xlink">
<g id="graph0" class="graph" transform="scale(1 1) rotate(0) translate(4 65.5)">
<title>ImGui::DockBuilderRemoveNode</title>
<!-- Node1 -->
<g id="node1" class="node">
<title>Node1</title>
<g id="a_node1"><a xlink:title=" ">
<polygon fill="#999999" stroke="#666666" points="571,-42.5 394,-42.5 394,-23.5 571,-23.5 571,-42.5"/>
<text text-anchor="middle" x="482.5" y="-30.5" font-family="Helvetica,sans-Serif" font-size="10.00">ImGui::DockBuilderRemoveNode</text>
</a>
</g>
</g>
<!-- Node2 -->
<g id="node2" class="node">
<title>Node2</title>
<g id="a_node2"><a xlink:href="namespaceImGui.html#a941b7d9d1f491f778796221031b5e439" target="_top" xlink:title=" ">
<polygon fill="white" stroke="#666666" points="355,-61.5 200,-61.5 200,-42.5 355,-42.5 355,-61.5"/>
<text text-anchor="middle" x="277.5" y="-49.5" font-family="Helvetica,sans-Serif" font-size="10.00">ImGui::DockBuilderAddNode</text>
</a>
</g>
</g>
<!-- Node1&#45;&gt;Node2 -->
<g id="edge1" class="edge">
<title>Node1&#45;&gt;Node2</title>
<path fill="none" stroke="#63b8ff" d="M383.93,-42.13C374.3,-43.03 364.62,-43.94 355.24,-44.82"/>
<polygon fill="#63b8ff" stroke="#63b8ff" points="384.31,-45.61 393.94,-41.2 383.65,-38.64 384.31,-45.61"/>
</g>
<!-- Node3 -->
<g id="node3" class="node">
<title>Node3</title>
<g id="a_node3"><a xlink:href="namespaceImGui.html#a938077e82ec2d3c8c020058896a050d0" target="_top" xlink:title=" ">
<polygon fill="white" stroke="#666666" points="358,-24.5 197,-24.5 197,-5.5 358,-5.5 358,-24.5"/>
<text text-anchor="middle" x="277.5" y="-12.5" font-family="Helvetica,sans-Serif" font-size="10.00">ImGui::DockBuilderCopyNode</text>
</a>
</g>
</g>
<!-- Node1&#45;&gt;Node3 -->
<g id="edge2" class="edge">
<title>Node1&#45;&gt;Node3</title>
<path fill="none" stroke="#63b8ff" d="M383.84,-24.34C375.21,-23.58 366.55,-22.81 358.09,-22.06"/>
<polygon fill="#63b8ff" stroke="#63b8ff" points="383.67,-27.84 393.94,-25.24 384.29,-20.87 383.67,-27.84"/>
</g>
<!-- Node4 -->
<g id="node4" class="node">
<title>Node4</title>
<g id="a_node4"><a xlink:href="namespaceImGui.html#adf707304b4d0759f566bdf584b913815" target="_top" xlink:title=" ">
<polygon fill="white" stroke="#666666" points="161,-30 0,-30 0,0 161,0 161,-30"/>
<text text-anchor="start" x="8" y="-18" font-family="Helvetica,sans-Serif" font-size="10.00">ImGui::DockBuilderCopyDock</text>
<text text-anchor="middle" x="80.5" y="-7" font-family="Helvetica,sans-Serif" font-size="10.00">Space</text>
</a>
</g>
</g>
<!-- Node3&#45;&gt;Node4 -->
<g id="edge3" class="edge">
<title>Node3&#45;&gt;Node4</title>
<path fill="none" stroke="#63b8ff" d="M186.88,-15C178.3,-15 169.64,-15 161.16,-15"/>
<polygon fill="#63b8ff" stroke="#63b8ff" points="186.9,-18.5 196.9,-15 186.9,-11.5 186.9,-18.5"/>
</g>
</g>
</svg>
