<?xml version="1.0" encoding="UTF-8" standalone="no"?>
<!DOCTYPE svg PUBLIC "-//W3C//DTD SVG 1.1//EN"
 "http://www.w3.org/Graphics/SVG/1.1/DTD/svg11.dtd">
<!-- Generated by graphviz version 2.43.0 (0)
 -->
<!-- Title: boost::addressof Pages: 1 -->
<svg width="445pt" height="27pt"
 viewBox="0.00 0.00 445.00 27.00" xmlns="http://www.w3.org/2000/svg" xmlns:xlink="http://www.w3.org/1999/xlink">
<g id="graph0" class="graph" transform="scale(1 1) rotate(0) translate(4 23)">
<title>boost::addressof</title>
<!-- Node1 -->
<g id="node1" class="node">
<title>Node1</title>
<g id="a_node1"><a xlink:title=" ">
<polygon fill="#999999" stroke="#666666" points="98,-19 0,-19 0,0 98,0 98,-19"/>
<text text-anchor="middle" x="49" y="-7" font-family="Helvetica,sans-Serif" font-size="10.00">boost::addressof</text>
</a>
</g>
</g>
<!-- Node2 -->
<g id="node2" class="node">
<title>Node2</title>
<g id="a_node2"><a xlink:href="namespaceboost_1_1detail.html#a2c00bac013eef2486f96ae01db05bbfb" target="_top" xlink:title=" ">
<polygon fill="white" stroke="#666666" points="265,-19 134,-19 134,0 265,0 265,-19"/>
<text text-anchor="middle" x="199.5" y="-7" font-family="Helvetica,sans-Serif" font-size="10.00">boost::detail::addressof</text>
</a>
</g>
</g>
<!-- Node1&#45;&gt;Node2 -->
<g id="edge1" class="edge">
<title>Node1&#45;&gt;Node2</title>
<path fill="none" stroke="#63b8ff" d="M98.21,-9.5C106.37,-9.5 115.01,-9.5 123.65,-9.5"/>
<polygon fill="#63b8ff" stroke="#63b8ff" points="123.78,-13 133.78,-9.5 123.78,-6 123.78,-13"/>
</g>
<!-- Node3 -->
<g id="node3" class="node">
<title>Node3</title>
<g id="a_node3"><a xlink:href="structboost_1_1detail_1_1addrof.html#a1ce1090516b11392f958ca5c5e562ac3" target="_top" xlink:title=" ">
<polygon fill="white" stroke="#666666" points="437,-19 301,-19 301,0 437,0 437,-19"/>
<text text-anchor="middle" x="369" y="-7" font-family="Helvetica,sans-Serif" font-size="10.00">boost::detail::addrof::get</text>
</a>
</g>
</g>
<!-- Node2&#45;&gt;Node3 -->
<g id="edge2" class="edge">
<title>Node2&#45;&gt;Node3</title>
<path fill="none" stroke="#63b8ff" d="M265.26,-9.5C273.66,-9.5 282.34,-9.5 290.91,-9.5"/>
<polygon fill="#63b8ff" stroke="#63b8ff" points="290.92,-13 300.92,-9.5 290.92,-6 290.92,-13"/>
</g>
</g>
</svg>
