<?xml version="1.0" encoding="UTF-8" standalone="no"?>
<!DOCTYPE svg PUBLIC "-//W3C//DTD SVG 1.1//EN"
 "http://www.w3.org/Graphics/SVG/1.1/DTD/svg11.dtd">
<!-- Generated by graphviz version 2.43.0 (0)
 -->
<!-- Title: IMGUIZMO_NAMESPACE::HandleRotation Pages: 1 -->
<svg width="907pt" height="1193pt"
 viewBox="0.00 0.00 907.00 1193.18" xmlns="http://www.w3.org/2000/svg" xmlns:xlink="http://www.w3.org/1999/xlink">
<g id="graph0" class="graph" transform="scale(1 1) rotate(0) translate(4 1189.18)">
<title>IMGUIZMO_NAMESPACE::HandleRotation</title>
<!-- Node1 -->
<g id="node1" class="node">
<title>Node1</title>
<g id="a_node1"><a xlink:title=" ">
<polygon fill="#999999" stroke="#666666" points="135,-482 0,-482 0,-452 135,-452 135,-482"/>
<text text-anchor="start" x="8" y="-470" font-family="Helvetica,sans-Serif" font-size="10.00">IMGUIZMO_NAMESPACE</text>
<text text-anchor="middle" x="67.5" y="-459" font-family="Helvetica,sans-Serif" font-size="10.00">::HandleRotation</text>
</a>
</g>
</g>
<!-- Node1&#45;&gt;Node1 -->
<g id="edge51" class="edge">
<title>Node1&#45;&gt;Node1</title>
<path fill="none" stroke="#63b8ff" d="M33.05,-482.28C25.39,-491.41 36.88,-500 67.5,-500 85.68,-500 97.12,-496.97 101.81,-492.6"/>
<polygon fill="#63b8ff" stroke="#63b8ff" points="105.31,-492.32 101.95,-482.28 98.31,-492.22 105.31,-492.32"/>
</g>
<!-- Node2 -->
<g id="node2" class="node">
<title>Node2</title>
<g id="a_node2"><a xlink:href="namespaceIMGUIZMO__NAMESPACE.html#afba093f474d6e3e926e16c4d9f90a802" target="_top" xlink:title=" ">
<polygon fill="white" stroke="#666666" points="538.5,-857 403.5,-857 403.5,-827 538.5,-827 538.5,-857"/>
<text text-anchor="start" x="411.5" y="-845" font-family="Helvetica,sans-Serif" font-size="10.00">IMGUIZMO_NAMESPACE</text>
<text text-anchor="middle" x="471" y="-834" font-family="Helvetica,sans-Serif" font-size="10.00">::BuildPlan</text>
</a>
</g>
</g>
<!-- Node1&#45;&gt;Node2 -->
<g id="edge1" class="edge">
<title>Node1&#45;&gt;Node2</title>
<path fill="none" stroke="#63b8ff" d="M70.73,-482.16C80.01,-543.1 117.6,-768.95 171,-813 232.51,-863.74 327.21,-864.22 393.51,-856.37"/>
<polygon fill="#63b8ff" stroke="#63b8ff" points="394,-859.83 403.48,-855.1 393.12,-852.89 394,-859.83"/>
</g>
<!-- Node4 -->
<g id="node4" class="node">
<title>Node4</title>
<g id="a_node4"><a xlink:href="structIMGUIZMO__NAMESPACE_1_1vec__t.html#a2e18e8518186c392795c4cd17a4efd62" target="_top" xlink:title=" ">
<polygon fill="white" stroke="#666666" points="724.5,-989 589.5,-989 589.5,-959 724.5,-959 724.5,-989"/>
<text text-anchor="start" x="597.5" y="-977" font-family="Helvetica,sans-Serif" font-size="10.00">IMGUIZMO_NAMESPACE</text>
<text text-anchor="middle" x="657" y="-966" font-family="Helvetica,sans-Serif" font-size="10.00">::vec_t::Normalize</text>
</a>
</g>
</g>
<!-- Node1&#45;&gt;Node4 -->
<g id="edge57" class="edge">
<title>Node1&#45;&gt;Node4</title>
<path fill="none" stroke="#63b8ff" d="M69.49,-482.16C74.98,-562.47 103.96,-937.8 171,-1029 275.34,-1170.93 396.08,-1230.68 550,-1145 606.59,-1113.5 636.81,-1037.92 649.18,-998.64"/>
<polygon fill="#63b8ff" stroke="#63b8ff" points="652.54,-999.62 652.07,-989.04 645.83,-997.6 652.54,-999.62"/>
</g>
<!-- Node6 -->
<g id="node6" class="node">
<title>Node6</title>
<g id="a_node6"><a xlink:href="namespaceIMGUIZMO__NAMESPACE.html#a1414465e1bacda1b149bbf0a550f1615" target="_top" xlink:title=" ">
<polygon fill="white" stroke="#666666" points="331,-402 196,-402 196,-372 331,-372 331,-402"/>
<text text-anchor="start" x="204" y="-390" font-family="Helvetica,sans-Serif" font-size="10.00">IMGUIZMO_NAMESPACE</text>
<text text-anchor="middle" x="263.5" y="-379" font-family="Helvetica,sans-Serif" font-size="10.00">::CanActivate</text>
</a>
</g>
</g>
<!-- Node1&#45;&gt;Node6 -->
<g id="edge6" class="edge">
<title>Node1&#45;&gt;Node6</title>
<path fill="none" stroke="#63b8ff" d="M104.99,-451.95C136.59,-438.92 182.46,-420 216.56,-405.94"/>
<polygon fill="#63b8ff" stroke="#63b8ff" points="217.93,-409.16 225.84,-402.12 215.27,-402.69 217.93,-409.16"/>
</g>
<!-- Node10 -->
<g id="node10" class="node">
<title>Node10</title>
<g id="a_node10"><a xlink:href="namespaceIMGUIZMO__NAMESPACE.html#a6eee44e97434c9dddca71511e93caf7e" target="_top" xlink:title=" ">
<polygon fill="white" stroke="#666666" points="331,-1002 196,-1002 196,-972 331,-972 331,-1002"/>
<text text-anchor="start" x="204" y="-990" font-family="Helvetica,sans-Serif" font-size="10.00">IMGUIZMO_NAMESPACE</text>
<text text-anchor="middle" x="263.5" y="-979" font-family="Helvetica,sans-Serif" font-size="10.00">::ComputeAngleOnPlan</text>
</a>
</g>
</g>
<!-- Node1&#45;&gt;Node10 -->
<g id="edge12" class="edge">
<title>Node1&#45;&gt;Node10</title>
<path fill="none" stroke="#63b8ff" d="M69.75,-482.46C76.1,-557.19 106.91,-880.35 171,-954 175.54,-959.22 180.98,-963.62 186.9,-967.32"/>
<polygon fill="#63b8ff" stroke="#63b8ff" points="185.43,-970.5 195.88,-972.25 188.8,-964.37 185.43,-970.5"/>
</g>
<!-- Node13 -->
<g id="node13" class="node">
<title>Node13</title>
<g id="a_node13"><a xlink:href="namespaceIMGUIZMO__NAMESPACE.html#a608bec3302e96d95be93767a07d9d11a" target="_top" xlink:title=" ">
<polygon fill="white" stroke="#666666" points="538.5,-923 403.5,-923 403.5,-893 538.5,-893 538.5,-923"/>
<text text-anchor="start" x="411.5" y="-911" font-family="Helvetica,sans-Serif" font-size="10.00">IMGUIZMO_NAMESPACE</text>
<text text-anchor="middle" x="471" y="-900" font-family="Helvetica,sans-Serif" font-size="10.00">::IntersectRayPlane</text>
</a>
</g>
</g>
<!-- Node1&#45;&gt;Node13 -->
<g id="edge52" class="edge">
<title>Node1&#45;&gt;Node13</title>
<path fill="none" stroke="#63b8ff" d="M70.43,-482.28C78.91,-547.01 114.99,-797.78 171,-850 230.41,-905.39 326.18,-915.19 393.28,-914.17"/>
<polygon fill="#63b8ff" stroke="#63b8ff" points="393.47,-917.67 403.38,-913.93 393.3,-910.67 393.47,-917.67"/>
</g>
<!-- Node15 -->
<g id="node15" class="node">
<title>Node15</title>
<g id="a_node15"><a xlink:href="namespaceIMGUIZMO__NAMESPACE.html#a9d9d75f9cfb5de40c04c3d28ee040022" target="_top" xlink:title=" ">
<polygon fill="white" stroke="#666666" points="538.5,-989 403.5,-989 403.5,-959 538.5,-959 538.5,-989"/>
<text text-anchor="start" x="411.5" y="-977" font-family="Helvetica,sans-Serif" font-size="10.00">IMGUIZMO_NAMESPACE</text>
<text text-anchor="middle" x="471" y="-966" font-family="Helvetica,sans-Serif" font-size="10.00">::Normalized</text>
</a>
</g>
</g>
<!-- Node1&#45;&gt;Node15 -->
<g id="edge58" class="edge">
<title>Node1&#45;&gt;Node15</title>
<path fill="none" stroke="#63b8ff" d="M70.05,-482.06C77.42,-550.75 111.06,-833.65 171,-895 201.66,-926.38 315.01,-949.89 392.99,-962.79"/>
<polygon fill="#63b8ff" stroke="#63b8ff" points="392.84,-966.31 403.27,-964.46 393.96,-959.4 392.84,-966.31"/>
</g>
<!-- Node16 -->
<g id="node16" class="node">
<title>Node16</title>
<g id="a_node16"><a xlink:href="namespaceIMGUIZMO__NAMESPACE.html#a5106c0292861175fdf76d5f0273ff9f6" target="_top" xlink:title=" ">
<polygon fill="white" stroke="#666666" points="331,-336 196,-336 196,-306 331,-306 331,-336"/>
<text text-anchor="start" x="204" y="-324" font-family="Helvetica,sans-Serif" font-size="10.00">IMGUIZMO_NAMESPACE</text>
<text text-anchor="middle" x="263.5" y="-313" font-family="Helvetica,sans-Serif" font-size="10.00">::ComputeSnap</text>
</a>
</g>
</g>
<!-- Node1&#45;&gt;Node16 -->
<g id="edge24" class="edge">
<title>Node1&#45;&gt;Node16</title>
<path fill="none" stroke="#63b8ff" d="M80.36,-451.87C98.14,-429.97 133.64,-389.2 171,-363 183.56,-354.19 198.26,-346.49 212.16,-340.17"/>
<polygon fill="#63b8ff" stroke="#63b8ff" points="213.86,-343.24 221.61,-336.02 211.05,-336.83 213.86,-343.24"/>
</g>
<!-- Node17 -->
<g id="node17" class="node">
<title>Node17</title>
<g id="a_node17"><a xlink:href="structIMGUIZMO__NAMESPACE_1_1Context.html#a8591d37169b211009ed2bccc5abae69f" target="_top" xlink:title=" ">
<polygon fill="white" stroke="#666666" points="331,-288 196,-288 196,-258 331,-258 331,-288"/>
<text text-anchor="start" x="204" y="-276" font-family="Helvetica,sans-Serif" font-size="10.00">IMGUIZMO_NAMESPACE</text>
<text text-anchor="middle" x="263.5" y="-265" font-family="Helvetica,sans-Serif" font-size="10.00">::Context::GetCurrentID</text>
</a>
</g>
</g>
<!-- Node1&#45;&gt;Node17 -->
<g id="edge26" class="edge">
<title>Node1&#45;&gt;Node17</title>
<path fill="none" stroke="#63b8ff" d="M73.23,-451.83C84.45,-418.42 115.95,-338.19 171,-297 175.72,-293.47 180.91,-290.46 186.35,-287.89"/>
<polygon fill="#63b8ff" stroke="#63b8ff" points="187.83,-291.06 195.7,-283.97 185.13,-284.61 187.83,-291.06"/>
</g>
<!-- Node23 -->
<g id="node23" class="node">
<title>Node23</title>
<g id="a_node23"><a xlink:href="namespaceImGui.html#a3179e560812f878f3961ce803a5d9302" target="_top" xlink:title=" ">
<polygon fill="white" stroke="#666666" points="511,-552.5 431,-552.5 431,-533.5 511,-533.5 511,-552.5"/>
<text text-anchor="middle" x="471" y="-540.5" font-family="Helvetica,sans-Serif" font-size="10.00">ImGui::GetIO</text>
</a>
</g>
</g>
<!-- Node1&#45;&gt;Node23 -->
<g id="edge32" class="edge">
<title>Node1&#45;&gt;Node23</title>
<path fill="none" stroke="#63b8ff" d="M135.18,-480.86C147.1,-483.28 159.41,-485.75 171,-488 258.73,-505.05 361.22,-523.61 420.56,-534.22"/>
<polygon fill="#63b8ff" stroke="#63b8ff" points="420.31,-537.73 430.77,-536.04 421.54,-530.84 420.31,-537.73"/>
</g>
<!-- Node24 -->
<g id="node24" class="node">
<title>Node24</title>
<g id="a_node24"><a xlink:href="namespaceIMGUIZMO__NAMESPACE.html#abfb9915cdd8a71c7f58b5298dd28bd23" target="_top" xlink:title=" ">
<polygon fill="white" stroke="#666666" points="331,-653 196,-653 196,-623 331,-623 331,-653"/>
<text text-anchor="start" x="204" y="-641" font-family="Helvetica,sans-Serif" font-size="10.00">IMGUIZMO_NAMESPACE</text>
<text text-anchor="middle" x="263.5" y="-630" font-family="Helvetica,sans-Serif" font-size="10.00">::GetRotateType</text>
</a>
</g>
</g>
<!-- Node1&#45;&gt;Node24 -->
<g id="edge33" class="edge">
<title>Node1&#45;&gt;Node24</title>
<path fill="none" stroke="#63b8ff" d="M85.72,-482.18C120.16,-512.53 197.66,-580.85 237.62,-616.07"/>
<polygon fill="#63b8ff" stroke="#63b8ff" points="235.51,-618.87 245.32,-622.86 240.13,-613.62 235.51,-618.87"/>
</g>
<!-- Node26 -->
<g id="node26" class="node">
<title>Node26</title>
<g id="a_node26"><a xlink:href="namespaceIMGUIZMO__NAMESPACE.html#a0e246612ef192a30c592842f0767dfe4" target="_top" xlink:title=" ">
<polygon fill="white" stroke="#666666" points="538.5,-497 403.5,-497 403.5,-467 538.5,-467 538.5,-497"/>
<text text-anchor="start" x="411.5" y="-485" font-family="Helvetica,sans-Serif" font-size="10.00">IMGUIZMO_NAMESPACE</text>
<text text-anchor="middle" x="471" y="-474" font-family="Helvetica,sans-Serif" font-size="10.00">::Intersects</text>
</a>
</g>
</g>
<!-- Node1&#45;&gt;Node26 -->
<g id="edge53" class="edge">
<title>Node1&#45;&gt;Node26</title>
<path fill="none" stroke="#63b8ff" d="M135.25,-469.49C206.28,-472.15 318.48,-476.34 393.15,-479.13"/>
<polygon fill="#63b8ff" stroke="#63b8ff" points="393.3,-482.64 403.42,-479.51 393.56,-475.64 393.3,-482.64"/>
</g>
<!-- Node27 -->
<g id="node27" class="node">
<title>Node27</title>
<g id="a_node27"><a xlink:href="namespaceIMGUIZMO__NAMESPACE.html#a76324649a802fbc72ff34c3256822518" target="_top" xlink:title=" ">
<polygon fill="white" stroke="#666666" points="724.5,-776 589.5,-776 589.5,-746 724.5,-746 724.5,-776"/>
<text text-anchor="start" x="597.5" y="-764" font-family="Helvetica,sans-Serif" font-size="10.00">IMGUIZMO_NAMESPACE</text>
<text text-anchor="middle" x="657" y="-753" font-family="Helvetica,sans-Serif" font-size="10.00">::makeVect</text>
</a>
</g>
</g>
<!-- Node1&#45;&gt;Node27 -->
<g id="edge56" class="edge">
<title>Node1&#45;&gt;Node27</title>
<path fill="none" stroke="#63b8ff" d="M71.76,-482.16C80.76,-520.55 109.48,-622.62 171,-680 282.12,-783.65 473.21,-782.32 579.32,-771.89"/>
<polygon fill="#63b8ff" stroke="#63b8ff" points="579.74,-775.36 589.32,-770.85 579.02,-768.4 579.74,-775.36"/>
</g>
<!-- Node29 -->
<g id="node29" class="node">
<title>Node29</title>
<g id="a_node29"><a xlink:href="structIMGUIZMO__NAMESPACE_1_1vec__t.html#a1a9bd14cdd0a36f19a2cdc012a4372c8" target="_top" xlink:title=" ">
<polygon fill="white" stroke="#666666" points="538.5,-449 403.5,-449 403.5,-419 538.5,-419 538.5,-449"/>
<text text-anchor="start" x="411.5" y="-437" font-family="Helvetica,sans-Serif" font-size="10.00">IMGUIZMO_NAMESPACE</text>
<text text-anchor="middle" x="471" y="-426" font-family="Helvetica,sans-Serif" font-size="10.00">::vec_t::TransformVector</text>
</a>
</g>
</g>
<!-- Node1&#45;&gt;Node29 -->
<g id="edge65" class="edge">
<title>Node1&#45;&gt;Node29</title>
<path fill="none" stroke="#63b8ff" d="M135.25,-461.51C206.28,-455.68 318.48,-446.45 393.15,-440.32"/>
<polygon fill="#63b8ff" stroke="#63b8ff" points="393.74,-443.78 403.42,-439.47 393.17,-436.8 393.74,-443.78"/>
</g>
<!-- Node31 -->
<g id="node31" class="node">
<title>Node31</title>
<g id="a_node31"><a xlink:href="namespaceIMGUIZMO__NAMESPACE.html#a4e1c9dc0594ebc034b106710a84aa25b" target="_top" xlink:title=" ">
<polygon fill="white" stroke="#666666" points="331,-222 196,-222 196,-192 331,-192 331,-222"/>
<text text-anchor="start" x="204" y="-210" font-family="Helvetica,sans-Serif" font-size="10.00">IMGUIZMO_NAMESPACE</text>
<text text-anchor="middle" x="263.5" y="-199" font-family="Helvetica,sans-Serif" font-size="10.00">::IsRotateType</text>
</a>
</g>
</g>
<!-- Node1&#45;&gt;Node31 -->
<g id="edge54" class="edge">
<title>Node1&#45;&gt;Node31</title>
<path fill="none" stroke="#63b8ff" d="M71.77,-451.96C80.86,-413.34 109.95,-309.49 171,-249 180.4,-239.69 192.24,-232.21 204.26,-226.29"/>
<polygon fill="#63b8ff" stroke="#63b8ff" points="205.82,-229.43 213.45,-222.07 202.9,-223.07 205.82,-229.43"/>
</g>
<!-- Node32 -->
<g id="node32" class="node">
<title>Node32</title>
<g id="a_node32"><a xlink:href="structIMGUIZMO__NAMESPACE_1_1matrix__t.html#a30fd11a39eb33398cc5b33ef86892e84" target="_top" xlink:title=" ">
<polygon fill="white" stroke="#666666" points="331,-174 196,-174 196,-144 331,-144 331,-174"/>
<text text-anchor="start" x="204" y="-162" font-family="Helvetica,sans-Serif" font-size="10.00">IMGUIZMO_NAMESPACE</text>
<text text-anchor="middle" x="263.5" y="-151" font-family="Helvetica,sans-Serif" font-size="10.00">::matrix_t::RotationAxis</text>
</a>
</g>
</g>
<!-- Node1&#45;&gt;Node32 -->
<g id="edge59" class="edge">
<title>Node1&#45;&gt;Node32</title>
<path fill="none" stroke="#63b8ff" d="M69.25,-451.7C72.43,-404.22 88.78,-258.15 171,-183 175.5,-178.88 180.63,-175.46 186.1,-172.6"/>
<polygon fill="#63b8ff" stroke="#63b8ff" points="187.9,-175.63 195.58,-168.33 185.03,-169.25 187.9,-175.63"/>
</g>
<!-- Node35 -->
<g id="node35" class="node">
<title>Node35</title>
<g id="a_node35"><a xlink:href="structIMGUIZMO__NAMESPACE_1_1matrix__t.html#aa60416e54107eb4b0ceb6fd22b36e3c9" target="_top" xlink:title=" ">
<polygon fill="white" stroke="#666666" points="331,-126 196,-126 196,-96 331,-96 331,-126"/>
<text text-anchor="start" x="204" y="-114" font-family="Helvetica,sans-Serif" font-size="10.00">IMGUIZMO_NAMESPACE</text>
<text text-anchor="middle" x="263.5" y="-103" font-family="Helvetica,sans-Serif" font-size="10.00">::matrix_t::Scale</text>
</a>
</g>
</g>
<!-- Node1&#45;&gt;Node35 -->
<g id="edge62" class="edge">
<title>Node1&#45;&gt;Node35</title>
<path fill="none" stroke="#63b8ff" d="M68.33,-451.82C68.63,-399.52 76.91,-225.14 171,-135 175.59,-130.6 180.89,-126.98 186.57,-124.01"/>
<polygon fill="#63b8ff" stroke="#63b8ff" points="188.1,-127.16 195.77,-119.86 185.22,-120.78 188.1,-127.16"/>
</g>
<!-- Node36 -->
<g id="node36" class="node">
<title>Node36</title>
<g id="a_node36"><a xlink:href="structIMGUIZMO__NAMESPACE_1_1vec__t.html#aec6a50b8ea93081cf25d99339b03853e" target="_top" xlink:title=" ">
<polygon fill="white" stroke="#666666" points="331,-78 196,-78 196,-48 331,-48 331,-78"/>
<text text-anchor="start" x="204" y="-66" font-family="Helvetica,sans-Serif" font-size="10.00">IMGUIZMO_NAMESPACE</text>
<text text-anchor="middle" x="263.5" y="-55" font-family="Helvetica,sans-Serif" font-size="10.00">::vec_t::Set</text>
</a>
</g>
</g>
<!-- Node1&#45;&gt;Node36 -->
<g id="edge63" class="edge">
<title>Node1&#45;&gt;Node36</title>
<path fill="none" stroke="#63b8ff" d="M70.54,-451.93C79.45,-388.07 117.06,-140.57 171,-87 175.51,-82.52 180.75,-78.85 186.4,-75.84"/>
<polygon fill="#63b8ff" stroke="#63b8ff" points="187.93,-78.99 195.55,-71.63 185.01,-72.62 187.93,-78.99"/>
</g>
<!-- Node37 -->
<g id="node37" class="node">
<title>Node37</title>
<g id="a_node37"><a xlink:href="namespaceImGui.html#affc347668060a3dfbfae50247eaac7d2" target="_top" xlink:title=" ">
<polygon fill="white" stroke="#666666" points="356,-30 171,-30 171,0 356,0 356,-30"/>
<text text-anchor="start" x="179" y="-18" font-family="Helvetica,sans-Serif" font-size="10.00">ImGui::SetNextFrameWantCapture</text>
<text text-anchor="middle" x="263.5" y="-7" font-family="Helvetica,sans-Serif" font-size="10.00">Mouse</text>
</a>
</g>
</g>
<!-- Node1&#45;&gt;Node37 -->
<g id="edge64" class="edge">
<title>Node1&#45;&gt;Node37</title>
<path fill="none" stroke="#63b8ff" d="M70.05,-451.94C77.41,-383.24 111.01,-100.29 171,-39 171.94,-38.04 172.91,-37.12 173.91,-36.24"/>
<polygon fill="#63b8ff" stroke="#63b8ff" points="176.19,-38.9 182.11,-30.12 172.01,-33.29 176.19,-38.9"/>
</g>
<!-- Node2&#45;&gt;Node2 -->
<g id="edge2" class="edge">
<title>Node2&#45;&gt;Node2</title>
<path fill="none" stroke="#63b8ff" d="M438.3,-857.28C431.04,-866.41 441.94,-875 471,-875 488.26,-875 499.11,-871.97 503.56,-867.6"/>
<polygon fill="#63b8ff" stroke="#63b8ff" points="507.06,-867.32 503.7,-857.28 500.06,-867.23 507.06,-867.32"/>
</g>
<!-- Node3 -->
<g id="node3" class="node">
<title>Node3</title>
<g id="a_node3"><a xlink:href="structIMGUIZMO__NAMESPACE_1_1vec__t.html#a4455ccac755e53125b39959ffb61f319" target="_top" xlink:title=" ">
<polygon fill="white" stroke="#666666" points="724.5,-857 589.5,-857 589.5,-827 724.5,-827 724.5,-857"/>
<text text-anchor="start" x="597.5" y="-845" font-family="Helvetica,sans-Serif" font-size="10.00">IMGUIZMO_NAMESPACE</text>
<text text-anchor="middle" x="657" y="-834" font-family="Helvetica,sans-Serif" font-size="10.00">::vec_t::Dot</text>
</a>
</g>
</g>
<!-- Node2&#45;&gt;Node3 -->
<g id="edge3" class="edge">
<title>Node2&#45;&gt;Node3</title>
<path fill="none" stroke="#63b8ff" d="M538.69,-842C551.8,-842 565.66,-842 579.08,-842"/>
<polygon fill="#63b8ff" stroke="#63b8ff" points="579.23,-845.5 589.23,-842 579.23,-838.5 579.23,-845.5"/>
</g>
<!-- Node2&#45;&gt;Node4 -->
<g id="edge4" class="edge">
<title>Node2&#45;&gt;Node4</title>
<path fill="none" stroke="#63b8ff" d="M507.44,-857.02C521.56,-864 537.41,-873.16 550,-884 570.21,-901.39 566.2,-914.14 586,-932 595.13,-940.23 606.1,-947.71 616.63,-953.99"/>
<polygon fill="#63b8ff" stroke="#63b8ff" points="614.9,-957.03 625.31,-958.98 618.39,-950.96 614.9,-957.03"/>
</g>
<!-- Node5 -->
<g id="node5" class="node">
<title>Node5</title>
<g id="a_node5"><a xlink:href="structIMGUIZMO__NAMESPACE_1_1vec__t.html#a16d93d6902554c6136645acca3237f3e" target="_top" xlink:title=" ">
<polygon fill="white" stroke="#666666" points="899,-792 764,-792 764,-762 899,-762 899,-792"/>
<text text-anchor="start" x="772" y="-780" font-family="Helvetica,sans-Serif" font-size="10.00">IMGUIZMO_NAMESPACE</text>
<text text-anchor="middle" x="831.5" y="-769" font-family="Helvetica,sans-Serif" font-size="10.00">::vec_t::Length</text>
</a>
</g>
</g>
<!-- Node4&#45;&gt;Node5 -->
<g id="edge5" class="edge">
<title>Node4&#45;&gt;Node5</title>
<path fill="none" stroke="#63b8ff" d="M689.7,-958.92C702.49,-951.88 716.84,-942.68 728,-932 768.98,-892.78 802.01,-834.33 818.69,-801.55"/>
<polygon fill="#63b8ff" stroke="#63b8ff" points="822,-802.77 823.33,-792.26 815.73,-799.64 822,-802.77"/>
</g>
<!-- Node6&#45;&gt;Node6 -->
<g id="edge7" class="edge">
<title>Node6&#45;&gt;Node6</title>
<path fill="none" stroke="#63b8ff" d="M229.05,-402.28C221.39,-411.41 232.88,-420 263.5,-420 281.68,-420 293.12,-416.97 297.81,-412.6"/>
<polygon fill="#63b8ff" stroke="#63b8ff" points="301.31,-412.32 297.95,-402.28 294.31,-412.22 301.31,-412.32"/>
</g>
<!-- Node7 -->
<g id="node7" class="node">
<title>Node7</title>
<g id="a_node7"><a xlink:href="namespaceImGui.html#acdc18199d50d26919312db5f9707b8dc" target="_top" xlink:title=" ">
<polygon fill="white" stroke="#666666" points="537,-400.5 405,-400.5 405,-381.5 537,-381.5 537,-400.5"/>
<text text-anchor="middle" x="471" y="-388.5" font-family="Helvetica,sans-Serif" font-size="10.00">ImGui::IsAnyItemActive</text>
</a>
</g>
</g>
<!-- Node6&#45;&gt;Node7 -->
<g id="edge8" class="edge">
<title>Node6&#45;&gt;Node7</title>
<path fill="none" stroke="#63b8ff" d="M331.22,-388.3C351.46,-388.69 373.84,-389.13 394.62,-389.53"/>
<polygon fill="#63b8ff" stroke="#63b8ff" points="394.6,-393.03 404.67,-389.73 394.74,-386.03 394.6,-393.03"/>
</g>
<!-- Node8 -->
<g id="node8" class="node">
<title>Node8</title>
<g id="a_node8"><a xlink:href="namespaceImGui.html#a0512146617bb55e24ebcfbe3ce6553d5" target="_top" xlink:title=" ">
<polygon fill="white" stroke="#666666" points="542.5,-363.5 399.5,-363.5 399.5,-344.5 542.5,-344.5 542.5,-363.5"/>
<text text-anchor="middle" x="471" y="-351.5" font-family="Helvetica,sans-Serif" font-size="10.00">ImGui::IsAnyItemHovered</text>
</a>
</g>
</g>
<!-- Node6&#45;&gt;Node8 -->
<g id="edge9" class="edge">
<title>Node6&#45;&gt;Node8</title>
<path fill="none" stroke="#63b8ff" d="M331.22,-376.29C353.38,-372.73 378.09,-368.76 400.45,-365.17"/>
<polygon fill="#63b8ff" stroke="#63b8ff" points="401.23,-368.59 410.55,-363.55 400.12,-361.68 401.23,-368.59"/>
</g>
<!-- Node9 -->
<g id="node9" class="node">
<title>Node9</title>
<g id="a_node9"><a xlink:href="namespaceImGui.html#a2d430db9485d0b3d86d51d5436225495" target="_top" xlink:title=" ">
<polygon fill="white" stroke="#666666" points="535,-308.5 407,-308.5 407,-289.5 535,-289.5 535,-308.5"/>
<text text-anchor="middle" x="471" y="-296.5" font-family="Helvetica,sans-Serif" font-size="10.00">ImGui::IsMouseClicked</text>
</a>
</g>
</g>
<!-- Node6&#45;&gt;Node9 -->
<g id="edge10" class="edge">
<title>Node6&#45;&gt;Node9</title>
<path fill="none" stroke="#63b8ff" d="M331.07,-372.8C339.65,-370.03 348.16,-366.79 356,-363 374.01,-354.3 374.88,-346.34 392,-336 406.39,-327.31 423.13,-319.14 437.41,-312.69"/>
<polygon fill="#63b8ff" stroke="#63b8ff" points="439.12,-315.77 446.85,-308.52 436.29,-309.37 439.12,-315.77"/>
</g>
<!-- Node9&#45;&gt;Node9 -->
<g id="edge11" class="edge">
<title>Node9&#45;&gt;Node9</title>
<path fill="none" stroke="#63b8ff" d="M442.33,-308.58C428.39,-317.23 437.94,-326.5 471,-326.5 493.73,-326.5 505.35,-322.12 505.86,-316.57"/>
<polygon fill="#63b8ff" stroke="#63b8ff" points="508.56,-314.34 499.67,-308.58 503.03,-318.63 508.56,-314.34"/>
</g>
<!-- Node10&#45;&gt;Node4 -->
<g id="edge20" class="edge">
<title>Node10&#45;&gt;Node4</title>
<path fill="none" stroke="#63b8ff" d="M273.27,-1002.34C291.13,-1031.83 334.92,-1095.65 392,-1120 456.59,-1147.56 487.44,-1151.89 550,-1120 600.04,-1094.49 631.98,-1033.1 646.63,-998.6"/>
<polygon fill="#63b8ff" stroke="#63b8ff" points="649.92,-999.81 650.46,-989.22 643.44,-997.15 649.92,-999.81"/>
</g>
<!-- Node10&#45;&gt;Node10 -->
<g id="edge13" class="edge">
<title>Node10&#45;&gt;Node10</title>
<path fill="none" stroke="#63b8ff" d="M229.05,-1002.28C221.39,-1011.41 232.88,-1020 263.5,-1020 281.68,-1020 293.12,-1016.97 297.81,-1012.6"/>
<polygon fill="#63b8ff" stroke="#63b8ff" points="301.31,-1012.32 297.95,-1002.28 294.31,-1012.22 301.31,-1012.32"/>
</g>
<!-- Node11 -->
<g id="node11" class="node">
<title>Node11</title>
<g id="a_node11"><a xlink:href="structIMGUIZMO__NAMESPACE_1_1vec__t.html#a052c801e5646f277cab3044bcf763c84" target="_top" xlink:title=" ">
<polygon fill="white" stroke="#666666" points="538.5,-1111 403.5,-1111 403.5,-1081 538.5,-1081 538.5,-1111"/>
<text text-anchor="start" x="411.5" y="-1099" font-family="Helvetica,sans-Serif" font-size="10.00">IMGUIZMO_NAMESPACE</text>
<text text-anchor="middle" x="471" y="-1088" font-family="Helvetica,sans-Serif" font-size="10.00">::vec_t::Cross</text>
</a>
</g>
</g>
<!-- Node10&#45;&gt;Node11 -->
<g id="edge14" class="edge">
<title>Node10&#45;&gt;Node11</title>
<path fill="none" stroke="#63b8ff" d="M283.32,-1002.11C307.32,-1020.75 350.66,-1052.38 392,-1072 396,-1073.9 400.18,-1075.69 404.44,-1077.37"/>
<polygon fill="#63b8ff" stroke="#63b8ff" points="403.26,-1080.67 413.86,-1080.88 405.71,-1074.11 403.26,-1080.67"/>
</g>
<!-- Node12 -->
<g id="node12" class="node">
<title>Node12</title>
<g id="a_node12"><a xlink:href="namespaceIMGUIZMO__NAMESPACE.html#a6b7c40a8b2cbd7f587baa57f07293201" target="_top" xlink:title=" ">
<polygon fill="white" stroke="#666666" points="550,-1044.5 392,-1044.5 392,-1025.5 550,-1025.5 550,-1044.5"/>
<text text-anchor="middle" x="471" y="-1032.5" font-family="Helvetica,sans-Serif" font-size="10.00">IMGUIZMO_NAMESPACE::Dot</text>
</a>
</g>
</g>
<!-- Node10&#45;&gt;Node12 -->
<g id="edge15" class="edge">
<title>Node10&#45;&gt;Node12</title>
<path fill="none" stroke="#63b8ff" d="M328.96,-1002.06C357.97,-1008.83 391.74,-1016.72 418.96,-1023.08"/>
<polygon fill="#63b8ff" stroke="#63b8ff" points="418.52,-1026.57 429.05,-1025.44 420.11,-1019.75 418.52,-1026.57"/>
</g>
<!-- Node10&#45;&gt;Node13 -->
<g id="edge17" class="edge">
<title>Node10&#45;&gt;Node13</title>
<path fill="none" stroke="#63b8ff" d="M303.64,-971.95C336.95,-959.15 384.98,-940.68 420.88,-926.88"/>
<polygon fill="#63b8ff" stroke="#63b8ff" points="422.58,-929.98 430.66,-923.12 420.07,-923.44 422.58,-929.98"/>
</g>
<!-- Node10&#45;&gt;Node15 -->
<g id="edge21" class="edge">
<title>Node10&#45;&gt;Node15</title>
<path fill="none" stroke="#63b8ff" d="M331.22,-982.78C350.97,-981.53 372.76,-980.15 393.09,-978.87"/>
<polygon fill="#63b8ff" stroke="#63b8ff" points="393.5,-982.35 403.26,-978.22 393.06,-975.36 393.5,-982.35"/>
</g>
<!-- Node12&#45;&gt;Node12 -->
<g id="edge16" class="edge">
<title>Node12&#45;&gt;Node12</title>
<path fill="none" stroke="#63b8ff" d="M442.33,-1044.58C428.39,-1053.23 437.94,-1062.5 471,-1062.5 493.73,-1062.5 505.35,-1058.12 505.86,-1052.57"/>
<polygon fill="#63b8ff" stroke="#63b8ff" points="508.56,-1050.34 499.67,-1044.58 503.03,-1054.63 508.56,-1050.34"/>
</g>
<!-- Node13&#45;&gt;Node13 -->
<g id="edge19" class="edge">
<title>Node13&#45;&gt;Node13</title>
<path fill="none" stroke="#63b8ff" d="M438.3,-923.28C431.04,-932.41 441.94,-941 471,-941 488.26,-941 499.11,-937.97 503.56,-933.6"/>
<polygon fill="#63b8ff" stroke="#63b8ff" points="507.06,-933.32 503.7,-923.28 500.06,-933.23 507.06,-933.32"/>
</g>
<!-- Node14 -->
<g id="node14" class="node">
<title>Node14</title>
<g id="a_node14"><a xlink:href="structIMGUIZMO__NAMESPACE_1_1vec__t.html#ae78d8d568c3de60c572a5fa74fe8b38b" target="_top" xlink:title=" ">
<polygon fill="white" stroke="#666666" points="724.5,-923 589.5,-923 589.5,-893 724.5,-893 724.5,-923"/>
<text text-anchor="start" x="597.5" y="-911" font-family="Helvetica,sans-Serif" font-size="10.00">IMGUIZMO_NAMESPACE</text>
<text text-anchor="middle" x="657" y="-900" font-family="Helvetica,sans-Serif" font-size="10.00">::vec_t::Dot3</text>
</a>
</g>
</g>
<!-- Node13&#45;&gt;Node14 -->
<g id="edge18" class="edge">
<title>Node13&#45;&gt;Node14</title>
<path fill="none" stroke="#63b8ff" d="M538.69,-908C551.8,-908 565.66,-908 579.08,-908"/>
<polygon fill="#63b8ff" stroke="#63b8ff" points="579.23,-911.5 589.23,-908 579.23,-904.5 579.23,-911.5"/>
</g>
<!-- Node15&#45;&gt;Node4 -->
<g id="edge22" class="edge">
<title>Node15&#45;&gt;Node4</title>
<path fill="none" stroke="#63b8ff" d="M538.69,-974C551.8,-974 565.66,-974 579.08,-974"/>
<polygon fill="#63b8ff" stroke="#63b8ff" points="579.23,-977.5 589.23,-974 579.23,-970.5 579.23,-977.5"/>
</g>
<!-- Node15&#45;&gt;Node15 -->
<g id="edge23" class="edge">
<title>Node15&#45;&gt;Node15</title>
<path fill="none" stroke="#63b8ff" d="M438.3,-989.28C431.04,-998.41 441.94,-1007 471,-1007 488.26,-1007 499.11,-1003.97 503.56,-999.6"/>
<polygon fill="#63b8ff" stroke="#63b8ff" points="507.06,-999.32 503.7,-989.28 500.06,-999.23 507.06,-999.32"/>
</g>
<!-- Node16&#45;&gt;Node16 -->
<g id="edge25" class="edge">
<title>Node16&#45;&gt;Node16</title>
<path fill="none" stroke="#63b8ff" d="M229.05,-336.28C221.39,-345.41 232.88,-354 263.5,-354 281.68,-354 293.12,-350.97 297.81,-346.6"/>
<polygon fill="#63b8ff" stroke="#63b8ff" points="301.31,-346.32 297.95,-336.28 294.31,-346.22 301.31,-346.32"/>
</g>
<!-- Node18 -->
<g id="node18" class="node">
<title>Node18</title>
<g id="a_node18"><a xlink:href="structImVector.html#a2d80e87e81b1b01143c8d8be93e6fde1" target="_top" xlink:title=" ">
<polygon fill="white" stroke="#666666" points="515.5,-271.5 426.5,-271.5 426.5,-252.5 515.5,-252.5 515.5,-271.5"/>
<text text-anchor="middle" x="471" y="-259.5" font-family="Helvetica,sans-Serif" font-size="10.00">ImVector::back</text>
</a>
</g>
</g>
<!-- Node17&#45;&gt;Node18 -->
<g id="edge27" class="edge">
<title>Node17&#45;&gt;Node18</title>
<path fill="none" stroke="#63b8ff" d="M331.22,-269.43C358.74,-267.96 390.21,-266.27 416.22,-264.88"/>
<polygon fill="#63b8ff" stroke="#63b8ff" points="416.46,-268.37 426.26,-264.34 416.09,-261.38 416.46,-268.37"/>
</g>
<!-- Node19 -->
<g id="node19" class="node">
<title>Node19</title>
<g id="a_node19"><a xlink:href="structImVector.html#aa53e48a5272f4bad1099368769514ff1" target="_top" xlink:title=" ">
<polygon fill="white" stroke="#666666" points="520,-234.5 422,-234.5 422,-215.5 520,-215.5 520,-234.5"/>
<text text-anchor="middle" x="471" y="-222.5" font-family="Helvetica,sans-Serif" font-size="10.00">ImVector::empty</text>
</a>
</g>
</g>
<!-- Node17&#45;&gt;Node19 -->
<g id="edge28" class="edge">
<title>Node17&#45;&gt;Node19</title>
<path fill="none" stroke="#63b8ff" d="M328.96,-257.94C357.97,-251.17 391.74,-243.28 418.96,-236.92"/>
<polygon fill="#63b8ff" stroke="#63b8ff" points="420.11,-240.25 429.05,-234.56 418.52,-233.43 420.11,-240.25"/>
</g>
<!-- Node20 -->
<g id="node20" class="node">
<title>Node20</title>
<g id="a_node20"><a xlink:href="structImVector.html#aab5df48e0711a48bd12f3206e08c4108" target="_top" xlink:title=" ">
<polygon fill="white" stroke="#666666" points="530,-197.5 412,-197.5 412,-178.5 530,-178.5 530,-197.5"/>
<text text-anchor="middle" x="471" y="-185.5" font-family="Helvetica,sans-Serif" font-size="10.00">ImVector::push_back</text>
</a>
</g>
</g>
<!-- Node17&#45;&gt;Node20 -->
<g id="edge29" class="edge">
<title>Node17&#45;&gt;Node20</title>
<path fill="none" stroke="#63b8ff" d="M331.46,-260.54C340.07,-257.49 348.48,-253.71 356,-249 376.84,-235.95 371.05,-219.86 392,-207 395.44,-204.89 399.11,-203.01 402.9,-201.34"/>
<polygon fill="#63b8ff" stroke="#63b8ff" points="404.46,-204.48 412.52,-197.6 401.93,-197.96 404.46,-204.48"/>
</g>
<!-- Node21 -->
<g id="node21" class="node">
<title>Node21</title>
<g id="a_node21"><a xlink:href="structImVector.html#a3a097635d464b1b70dc7d59996a88b28" target="_top" xlink:title=" ">
<polygon fill="white" stroke="#666666" points="728,-215.5 586,-215.5 586,-196.5 728,-196.5 728,-215.5"/>
<text text-anchor="middle" x="657" y="-203.5" font-family="Helvetica,sans-Serif" font-size="10.00">ImVector::_grow_capacity</text>
</a>
</g>
</g>
<!-- Node20&#45;&gt;Node21 -->
<g id="edge30" class="edge">
<title>Node20&#45;&gt;Node21</title>
<path fill="none" stroke="#63b8ff" d="M530.22,-193.7C544.73,-195.11 560.54,-196.66 575.9,-198.16"/>
<polygon fill="#63b8ff" stroke="#63b8ff" points="575.62,-201.65 585.91,-199.14 576.3,-194.69 575.62,-201.65"/>
</g>
<!-- Node22 -->
<g id="node22" class="node">
<title>Node22</title>
<g id="a_node22"><a xlink:href="structImVector.html#a0f14f5736c3372157856eebb67123b75" target="_top" xlink:title=" ">
<polygon fill="white" stroke="#666666" points="708.5,-178.5 605.5,-178.5 605.5,-159.5 708.5,-159.5 708.5,-178.5"/>
<text text-anchor="middle" x="657" y="-166.5" font-family="Helvetica,sans-Serif" font-size="10.00">ImVector::reserve</text>
</a>
</g>
</g>
<!-- Node20&#45;&gt;Node22 -->
<g id="edge31" class="edge">
<title>Node20&#45;&gt;Node22</title>
<path fill="none" stroke="#63b8ff" d="M530.22,-181.99C550.94,-179.85 574.31,-177.44 595.24,-175.27"/>
<polygon fill="#63b8ff" stroke="#63b8ff" points="595.71,-178.74 605.3,-174.24 594.99,-171.78 595.71,-178.74"/>
</g>
<!-- Node24&#45;&gt;Node2 -->
<g id="edge34" class="edge">
<title>Node24&#45;&gt;Node2</title>
<path fill="none" stroke="#63b8ff" d="M277.75,-653.32C300.35,-679.2 348.19,-732.9 392,-775 408.4,-790.76 427.79,-807.43 443.14,-820.2"/>
<polygon fill="#63b8ff" stroke="#63b8ff" points="441.27,-823.19 451.21,-826.86 445.73,-817.79 441.27,-823.19"/>
</g>
<!-- Node24&#45;&gt;Node5 -->
<g id="edge41" class="edge">
<title>Node24&#45;&gt;Node5</title>
<path fill="none" stroke="#63b8ff" d="M316.35,-622.95C406.34,-599.95 594.58,-565.84 728,-638 774.61,-663.21 805.71,-719.85 820.51,-752.52"/>
<polygon fill="#63b8ff" stroke="#63b8ff" points="817.36,-754.06 824.57,-761.82 823.78,-751.26 817.36,-754.06"/>
</g>
<!-- Node24&#45;&gt;Node13 -->
<g id="edge38" class="edge">
<title>Node24&#45;&gt;Node13</title>
<path fill="none" stroke="#63b8ff" d="M267.93,-653.01C278.51,-695.79 314.63,-819.42 392,-884 393.55,-885.29 395.17,-886.52 396.84,-887.68"/>
<polygon fill="#63b8ff" stroke="#63b8ff" points="395.26,-890.81 405.64,-892.94 398.85,-884.8 395.26,-890.81"/>
</g>
<!-- Node24&#45;&gt;Node15 -->
<g id="edge44" class="edge">
<title>Node24&#45;&gt;Node15</title>
<path fill="none" stroke="#63b8ff" d="M266.16,-653.26C272.45,-703.5 299.37,-865.3 392,-950 393.29,-951.18 394.65,-952.31 396.04,-953.38"/>
<polygon fill="#63b8ff" stroke="#63b8ff" points="394.25,-956.38 404.53,-958.92 398.07,-950.52 394.25,-956.38"/>
</g>
<!-- Node24&#45;&gt;Node23 -->
<g id="edge35" class="edge">
<title>Node24&#45;&gt;Node23</title>
<path fill="none" stroke="#63b8ff" d="M288.18,-622.83C313.22,-607.26 354.25,-583.11 392,-567 401.97,-562.74 412.96,-558.89 423.45,-555.57"/>
<polygon fill="#63b8ff" stroke="#63b8ff" points="424.77,-558.83 433.32,-552.56 422.73,-552.13 424.77,-558.83"/>
</g>
<!-- Node24&#45;&gt;Node24 -->
<g id="edge36" class="edge">
<title>Node24&#45;&gt;Node24</title>
<path fill="none" stroke="#63b8ff" d="M229.05,-653.28C221.39,-662.41 232.88,-671 263.5,-671 281.68,-671 293.12,-667.97 297.81,-663.6"/>
<polygon fill="#63b8ff" stroke="#63b8ff" points="301.31,-663.32 297.95,-653.28 294.31,-663.22 301.31,-663.32"/>
</g>
<!-- Node25 -->
<g id="node25" class="node">
<title>Node25</title>
<g id="a_node25"><a xlink:href="imgui__internal_8h.html#aab329ad3ecb3ffc0bf9183d9edb144bb" target="_top" xlink:title=" ">
<polygon fill="white" stroke="#666666" points="494.5,-666.5 447.5,-666.5 447.5,-647.5 494.5,-647.5 494.5,-666.5"/>
<text text-anchor="middle" x="471" y="-654.5" font-family="Helvetica,sans-Serif" font-size="10.00">ImAbs</text>
</a>
</g>
</g>
<!-- Node24&#45;&gt;Node25 -->
<g id="edge37" class="edge">
<title>Node24&#45;&gt;Node25</title>
<path fill="none" stroke="#63b8ff" d="M331.22,-644.17C366.55,-647.44 408.39,-651.3 436.83,-653.93"/>
<polygon fill="#63b8ff" stroke="#63b8ff" points="436.75,-657.44 447.03,-654.88 437.39,-650.47 436.75,-657.44"/>
</g>
<!-- Node24&#45;&gt;Node26 -->
<g id="edge39" class="edge">
<title>Node24&#45;&gt;Node26</title>
<path fill="none" stroke="#63b8ff" d="M279.28,-622.91C302.13,-600.06 348.02,-556.04 392,-525 403.89,-516.61 417.59,-508.57 430.15,-501.76"/>
<polygon fill="#63b8ff" stroke="#63b8ff" points="431.87,-504.82 439.06,-497.04 428.59,-498.63 431.87,-504.82"/>
</g>
<!-- Node24&#45;&gt;Node27 -->
<g id="edge42" class="edge">
<title>Node24&#45;&gt;Node27</title>
<path fill="none" stroke="#63b8ff" d="M277.15,-653.06C298.17,-676.87 342.89,-722.49 392,-742 451.68,-765.7 524.87,-769.19 579.04,-767.47"/>
<polygon fill="#63b8ff" stroke="#63b8ff" points="579.41,-770.96 589.27,-767.07 579.14,-763.96 579.41,-770.96"/>
</g>
<!-- Node28 -->
<g id="node28" class="node">
<title>Node28</title>
<g id="a_node28"><a xlink:href="structIMGUIZMO__NAMESPACE_1_1vec__t.html#a4061572fc192949bfc7a7b166feee3ad" target="_top" xlink:title=" ">
<polygon fill="white" stroke="#666666" points="724.5,-677 589.5,-677 589.5,-647 724.5,-647 724.5,-677"/>
<text text-anchor="start" x="597.5" y="-665" font-family="Helvetica,sans-Serif" font-size="10.00">IMGUIZMO_NAMESPACE</text>
<text text-anchor="middle" x="657" y="-654" font-family="Helvetica,sans-Serif" font-size="10.00">::vec_t::TransformPoint</text>
</a>
</g>
</g>
<!-- Node24&#45;&gt;Node28 -->
<g id="edge45" class="edge">
<title>Node24&#45;&gt;Node28</title>
<path fill="none" stroke="#63b8ff" d="M331.06,-634.3C389.07,-632.01 475.35,-630.86 550,-639 562.19,-640.33 575.03,-642.47 587.41,-644.92"/>
<polygon fill="#63b8ff" stroke="#63b8ff" points="586.71,-648.35 597.21,-646.95 588.13,-641.5 586.71,-648.35"/>
</g>
<!-- Node24&#45;&gt;Node29 -->
<g id="edge46" class="edge">
<title>Node24&#45;&gt;Node29</title>
<path fill="none" stroke="#63b8ff" d="M270.99,-622.89C286.61,-588.36 329.64,-503.13 392,-458 394.06,-456.51 396.21,-455.11 398.44,-453.8"/>
<polygon fill="#63b8ff" stroke="#63b8ff" points="400.09,-456.88 407.32,-449.14 396.84,-450.68 400.09,-456.88"/>
</g>
<!-- Node30 -->
<g id="node30" class="node">
<title>Node30</title>
<g id="a_node30"><a xlink:href="namespaceIMGUIZMO__NAMESPACE.html#a9da1a3b77a0d6c9def26bb7fcd98214b" target="_top" xlink:title=" ">
<polygon fill="white" stroke="#666666" points="538.5,-715 403.5,-715 403.5,-685 538.5,-685 538.5,-715"/>
<text text-anchor="start" x="411.5" y="-703" font-family="Helvetica,sans-Serif" font-size="10.00">IMGUIZMO_NAMESPACE</text>
<text text-anchor="middle" x="471" y="-692" font-family="Helvetica,sans-Serif" font-size="10.00">::worldToPos</text>
</a>
</g>
</g>
<!-- Node24&#45;&gt;Node30 -->
<g id="edge47" class="edge">
<title>Node24&#45;&gt;Node30</title>
<path fill="none" stroke="#63b8ff" d="M314.25,-653.01C343.19,-661.74 379.85,-672.8 410.34,-682"/>
<polygon fill="#63b8ff" stroke="#63b8ff" points="409.42,-685.38 420,-684.91 411.44,-678.68 409.42,-685.38"/>
</g>
<!-- Node26&#45;&gt;Node26 -->
<g id="edge40" class="edge">
<title>Node26&#45;&gt;Node26</title>
<path fill="none" stroke="#63b8ff" d="M438.3,-497.28C431.04,-506.41 441.94,-515 471,-515 488.26,-515 499.11,-511.97 503.56,-507.6"/>
<polygon fill="#63b8ff" stroke="#63b8ff" points="507.06,-507.32 503.7,-497.28 500.06,-507.23 507.06,-507.32"/>
</g>
<!-- Node27&#45;&gt;Node27 -->
<g id="edge43" class="edge">
<title>Node27&#45;&gt;Node27</title>
<path fill="none" stroke="#63b8ff" d="M626.41,-776.28C619.62,-785.41 629.81,-794 657,-794 673.14,-794 683.29,-790.97 687.46,-786.6"/>
<polygon fill="#63b8ff" stroke="#63b8ff" points="690.96,-786.32 687.59,-776.28 683.96,-786.23 690.96,-786.32"/>
</g>
<!-- Node30&#45;&gt;Node27 -->
<g id="edge48" class="edge">
<title>Node30&#45;&gt;Node27</title>
<path fill="none" stroke="#63b8ff" d="M517.48,-715.08C542.79,-723.47 574.47,-733.97 601.14,-742.81"/>
<polygon fill="#63b8ff" stroke="#63b8ff" points="600.13,-746.16 610.72,-745.99 602.33,-739.52 600.13,-746.16"/>
</g>
<!-- Node30&#45;&gt;Node28 -->
<g id="edge49" class="edge">
<title>Node30&#45;&gt;Node28</title>
<path fill="none" stroke="#63b8ff" d="M538.69,-686.23C551.8,-683.52 565.66,-680.66 579.08,-677.89"/>
<polygon fill="#63b8ff" stroke="#63b8ff" points="580.14,-681.24 589.23,-675.79 578.73,-674.38 580.14,-681.24"/>
</g>
<!-- Node30&#45;&gt;Node30 -->
<g id="edge50" class="edge">
<title>Node30&#45;&gt;Node30</title>
<path fill="none" stroke="#63b8ff" d="M438.3,-715.28C431.04,-724.41 441.94,-733 471,-733 488.26,-733 499.11,-729.97 503.56,-725.6"/>
<polygon fill="#63b8ff" stroke="#63b8ff" points="507.06,-725.32 503.7,-715.28 500.06,-725.23 507.06,-725.32"/>
</g>
<!-- Node31&#45;&gt;Node31 -->
<g id="edge55" class="edge">
<title>Node31&#45;&gt;Node31</title>
<path fill="none" stroke="#63b8ff" d="M229.05,-222.28C221.39,-231.41 232.88,-240 263.5,-240 281.68,-240 293.12,-236.97 297.81,-232.6"/>
<polygon fill="#63b8ff" stroke="#63b8ff" points="301.31,-232.32 297.95,-222.28 294.31,-232.22 301.31,-232.32"/>
</g>
<!-- Node33 -->
<g id="node33" class="node">
<title>Node33</title>
<g id="a_node33"><a xlink:href="structIMGUIZMO__NAMESPACE_1_1vec__t.html#ae8b75fe6b2813130ae046031f520b847" target="_top" xlink:title=" ">
<polygon fill="white" stroke="#666666" points="538.5,-160 403.5,-160 403.5,-130 538.5,-130 538.5,-160"/>
<text text-anchor="start" x="411.5" y="-148" font-family="Helvetica,sans-Serif" font-size="10.00">IMGUIZMO_NAMESPACE</text>
<text text-anchor="middle" x="471" y="-137" font-family="Helvetica,sans-Serif" font-size="10.00">::vec_t::LengthSq</text>
</a>
</g>
</g>
<!-- Node32&#45;&gt;Node33 -->
<g id="edge60" class="edge">
<title>Node32&#45;&gt;Node33</title>
<path fill="none" stroke="#63b8ff" d="M331.22,-154.45C350.97,-153.11 372.76,-151.62 393.09,-150.24"/>
<polygon fill="#63b8ff" stroke="#63b8ff" points="393.52,-153.72 403.26,-149.55 393.05,-146.73 393.52,-153.72"/>
</g>
<!-- Node34 -->
<g id="node34" class="node">
<title>Node34</title>
<g id="a_node34"><a xlink:href="structIMGUIZMO__NAMESPACE_1_1matrix__t.html#a68739452519849799d8e099bfd73ba24" target="_top" xlink:title=" ">
<polygon fill="white" stroke="#666666" points="538.5,-112 403.5,-112 403.5,-82 538.5,-82 538.5,-112"/>
<text text-anchor="start" x="411.5" y="-100" font-family="Helvetica,sans-Serif" font-size="10.00">IMGUIZMO_NAMESPACE</text>
<text text-anchor="middle" x="471" y="-89" font-family="Helvetica,sans-Serif" font-size="10.00">::matrix_t::SetToIdentity</text>
</a>
</g>
</g>
<!-- Node32&#45;&gt;Node34 -->
<g id="edge61" class="edge">
<title>Node32&#45;&gt;Node34</title>
<path fill="none" stroke="#63b8ff" d="M325.81,-143.95C335.95,-141.17 346.31,-138.14 356,-135 372.33,-129.7 375.79,-126.64 392,-121 397.57,-119.06 403.4,-117.12 409.24,-115.23"/>
<polygon fill="#63b8ff" stroke="#63b8ff" points="410.6,-118.47 419.06,-112.09 408.47,-111.8 410.6,-118.47"/>
</g>
</g>
</svg>
