<?xml version="1.0" encoding="UTF-8" standalone="no"?>
<!DOCTYPE svg PUBLIC "-//W3C//DTD SVG 1.1//EN"
 "http://www.w3.org/Graphics/SVG/1.1/DTD/svg11.dtd">
<!-- Generated by graphviz version 2.43.0 (0)
 -->
<!-- Title: refl::descriptor::is_property Pages: 1 -->
<svg width="400pt" height="140pt"
 viewBox="0.00 0.00 400.00 140.48" xmlns="http://www.w3.org/2000/svg" xmlns:xlink="http://www.w3.org/1999/xlink">
<g id="graph0" class="graph" transform="scale(1 1) rotate(0) translate(4 136.48)">
<title>refl::descriptor::is_property</title>
<!-- Node1 -->
<g id="node1" class="node">
<title>Node1</title>
<g id="a_node1"><a xlink:title=" ">
<polygon fill="#999999" stroke="#666666" points="392,-94 291,-94 291,-64 392,-64 392,-94"/>
<text text-anchor="start" x="299" y="-82" font-family="Helvetica,sans-Serif" font-size="10.00">refl::descriptor::is</text>
<text text-anchor="middle" x="341.5" y="-71" font-family="Helvetica,sans-Serif" font-size="10.00">_property</text>
</a>
</g>
</g>
<!-- Node2 -->
<g id="node2" class="node">
<title>Node2</title>
<g id="a_node2"><a xlink:href="namespacerefl_1_1descriptor.html#a3690f579517cc28e9d2eacb3d095fdbb" target="_top" xlink:title=" ">
<polygon fill="white" stroke="#666666" points="109,-128 0,-128 0,-98 109,-98 109,-128"/>
<text text-anchor="start" x="8" y="-116" font-family="Helvetica,sans-Serif" font-size="10.00">refl::descriptor::get</text>
<text text-anchor="middle" x="54.5" y="-105" font-family="Helvetica,sans-Serif" font-size="10.00">_reader</text>
</a>
</g>
</g>
<!-- Node1&#45;&gt;Node2 -->
<g id="edge1" class="edge">
<title>Node1&#45;&gt;Node2</title>
<path fill="none" stroke="#63b8ff" d="M310.83,-99.68C295.03,-109.43 274.81,-120.01 255,-125 206.72,-137.16 149.88,-131.92 109.25,-124.96"/>
<polygon fill="#63b8ff" stroke="#63b8ff" points="313.05,-102.41 319.58,-94.08 309.27,-96.52 313.05,-102.41"/>
</g>
<!-- Node3 -->
<g id="node3" class="node">
<title>Node3</title>
<g id="a_node3"><a xlink:href="namespacerefl_1_1descriptor.html#ad4cc337624b45bd2d5f9b27d6811fafd" target="_top" xlink:title=" ">
<polygon fill="white" stroke="#666666" points="109,-61 0,-61 0,-31 109,-31 109,-61"/>
<text text-anchor="start" x="8" y="-49" font-family="Helvetica,sans-Serif" font-size="10.00">refl::descriptor::get</text>
<text text-anchor="middle" x="54.5" y="-38" font-family="Helvetica,sans-Serif" font-size="10.00">_writer</text>
</a>
</g>
</g>
<!-- Node1&#45;&gt;Node3 -->
<g id="edge2" class="edge">
<title>Node1&#45;&gt;Node3</title>
<path fill="none" stroke="#63b8ff" d="M280.72,-72.08C230.13,-66.22 158.27,-57.9 109.42,-52.24"/>
<polygon fill="#63b8ff" stroke="#63b8ff" points="280.52,-75.58 290.86,-73.25 281.33,-68.62 280.52,-75.58"/>
</g>
<!-- Node4 -->
<g id="node4" class="node">
<title>Node4</title>
<g id="a_node4"><a xlink:href="namespacerefl_1_1descriptor.html#a3d943ef351c700532badfa3c5d4ba953" target="_top" xlink:title=" ">
<polygon fill="white" stroke="#666666" points="255,-116 145,-116 145,-86 255,-86 255,-116"/>
<text text-anchor="start" x="153" y="-104" font-family="Helvetica,sans-Serif" font-size="10.00">refl::descriptor::has</text>
<text text-anchor="middle" x="200" y="-93" font-family="Helvetica,sans-Serif" font-size="10.00">_reader</text>
</a>
</g>
</g>
<!-- Node1&#45;&gt;Node4 -->
<g id="edge3" class="edge">
<title>Node1&#45;&gt;Node4</title>
<path fill="none" stroke="#63b8ff" d="M280.98,-88.39C272.41,-89.74 263.62,-91.12 255.15,-92.46"/>
<polygon fill="#63b8ff" stroke="#63b8ff" points="281.59,-91.83 290.92,-86.82 280.5,-84.92 281.59,-91.83"/>
</g>
<!-- Node5 -->
<g id="node5" class="node">
<title>Node5</title>
<g id="a_node5"><a xlink:href="namespacerefl_1_1descriptor.html#a3677023906e7fb31d6267d4afdaeffde" target="_top" xlink:title=" ">
<polygon fill="white" stroke="#666666" points="255,-30 145,-30 145,0 255,0 255,-30"/>
<text text-anchor="start" x="153" y="-18" font-family="Helvetica,sans-Serif" font-size="10.00">refl::descriptor::has</text>
<text text-anchor="middle" x="200" y="-7" font-family="Helvetica,sans-Serif" font-size="10.00">_writer</text>
</a>
</g>
</g>
<!-- Node1&#45;&gt;Node5 -->
<g id="edge5" class="edge">
<title>Node1&#45;&gt;Node5</title>
<path fill="none" stroke="#63b8ff" d="M298.6,-59.78C277.91,-50.28 253.31,-39 233.98,-30.13"/>
<polygon fill="#63b8ff" stroke="#63b8ff" points="297.24,-63.01 307.79,-63.99 300.16,-56.64 297.24,-63.01"/>
</g>
<!-- Node4&#45;&gt;Node2 -->
<g id="edge4" class="edge">
<title>Node4&#45;&gt;Node2</title>
<path fill="none" stroke="#63b8ff" d="M134.57,-106.39C126.14,-107.09 117.58,-107.81 109.35,-108.5"/>
<polygon fill="#63b8ff" stroke="#63b8ff" points="135.08,-109.86 144.75,-105.54 134.49,-102.88 135.08,-109.86"/>
</g>
<!-- Node5&#45;&gt;Node3 -->
<g id="edge6" class="edge">
<title>Node5&#45;&gt;Node3</title>
<path fill="none" stroke="#63b8ff" d="M134.85,-28.86C126.33,-30.7 117.67,-32.57 109.35,-34.37"/>
<polygon fill="#63b8ff" stroke="#63b8ff" points="135.71,-32.25 144.75,-26.72 134.24,-25.41 135.71,-32.25"/>
</g>
</g>
</svg>
