<?xml version="1.0" encoding="UTF-8" standalone="no"?>
<!DOCTYPE svg PUBLIC "-//W3C//DTD SVG 1.1//EN"
 "http://www.w3.org/Graphics/SVG/1.1/DTD/svg11.dtd">
<!-- Generated by graphviz version 2.43.0 (0)
 -->
<!-- Title: ImGui::ScrollToBringRectIntoView Pages: 1 -->
<svg width="865pt" height="397pt"
 viewBox="0.00 0.00 865.00 397.00" xmlns="http://www.w3.org/2000/svg" xmlns:xlink="http://www.w3.org/1999/xlink">
<g id="graph0" class="graph" transform="scale(1 1) rotate(0) translate(4 393)">
<title>ImGui::ScrollToBringRectIntoView</title>
<!-- Node1 -->
<g id="node1" class="node">
<title>Node1</title>
<g id="a_node1"><a xlink:title=" ">
<polygon fill="#999999" stroke="#666666" points="137,-189.5 0,-189.5 0,-159.5 137,-159.5 137,-189.5"/>
<text text-anchor="start" x="8" y="-177.5" font-family="Helvetica,sans-Serif" font-size="10.00">ImGui::ScrollToBringRect</text>
<text text-anchor="middle" x="68.5" y="-166.5" font-family="Helvetica,sans-Serif" font-size="10.00">IntoView</text>
</a>
</g>
</g>
<!-- Node2 -->
<g id="node2" class="node">
<title>Node2</title>
<g id="a_node2"><a xlink:href="namespaceImGui.html#a980dbb73c1e2a1c349b99ab56bca06d9" target="_top" xlink:title=" ">
<polygon fill="white" stroke="#666666" points="284,-184 173,-184 173,-165 284,-165 284,-184"/>
<text text-anchor="middle" x="228.5" y="-172" font-family="Helvetica,sans-Serif" font-size="10.00">ImGui::ScrollToRect</text>
</a>
</g>
</g>
<!-- Node1&#45;&gt;Node2 -->
<g id="edge1" class="edge">
<title>Node1&#45;&gt;Node2</title>
<path fill="none" stroke="#63b8ff" d="M137.42,-174.5C145.87,-174.5 154.48,-174.5 162.87,-174.5"/>
<polygon fill="#63b8ff" stroke="#63b8ff" points="162.97,-178 172.97,-174.5 162.97,-171 162.97,-178"/>
</g>
<!-- Node3 -->
<g id="node3" class="node">
<title>Node3</title>
<g id="a_node3"><a xlink:href="namespaceImGui.html#a0c9e3a1d81ef0a0c530311beb1d88f7f" target="_top" xlink:title=" ">
<polygon fill="white" stroke="#666666" points="443,-184 320,-184 320,-165 443,-165 443,-184"/>
<text text-anchor="middle" x="381.5" y="-172" font-family="Helvetica,sans-Serif" font-size="10.00">ImGui::ScrollToRectEx</text>
</a>
</g>
</g>
<!-- Node2&#45;&gt;Node3 -->
<g id="edge2" class="edge">
<title>Node2&#45;&gt;Node3</title>
<path fill="none" stroke="#63b8ff" d="M284.01,-174.5C292.39,-174.5 301.15,-174.5 309.82,-174.5"/>
<polygon fill="#63b8ff" stroke="#63b8ff" points="309.93,-178 319.93,-174.5 309.93,-171 309.93,-178"/>
</g>
<!-- Node3&#45;&gt;Node3 -->
<g id="edge14" class="edge">
<title>Node3&#45;&gt;Node3</title>
<path fill="none" stroke="#63b8ff" d="M358.07,-184.08C346.68,-192.73 354.48,-202 381.5,-202 399.23,-202 408.69,-198.01 409.87,-192.82"/>
<polygon fill="#63b8ff" stroke="#63b8ff" points="412.9,-191.06 404.93,-184.08 406.81,-194.51 412.9,-191.06"/>
</g>
<!-- Node4 -->
<g id="node4" class="node">
<title>Node4</title>
<g id="a_node4"><a xlink:href="imgui_8cpp.html#a07abb80a54115cb5cf9da03351e29533" target="_top" xlink:title=" ">
<polygon fill="white" stroke="#666666" points="620.5,-326.5 480.5,-326.5 480.5,-296.5 620.5,-296.5 620.5,-326.5"/>
<text text-anchor="start" x="488.5" y="-314.5" font-family="Helvetica,sans-Serif" font-size="10.00">CalcNextScrollFromScroll</text>
<text text-anchor="middle" x="550.5" y="-303.5" font-family="Helvetica,sans-Serif" font-size="10.00">TargetAndClamp</text>
</a>
</g>
</g>
<!-- Node3&#45;&gt;Node4 -->
<g id="edge3" class="edge">
<title>Node3&#45;&gt;Node4</title>
<path fill="none" stroke="#63b8ff" d="M388.86,-184.19C402.86,-204.86 438.36,-253.74 479,-282.5 483.91,-285.98 489.31,-289.13 494.85,-291.98"/>
<polygon fill="#63b8ff" stroke="#63b8ff" points="493.74,-295.32 504.28,-296.46 496.75,-289 493.74,-295.32"/>
</g>
<!-- Node8 -->
<g id="node8" class="node">
<title>Node8</title>
<g id="a_node8"><a xlink:href="imgui__internal_8h.html#a7f9d7828066a9d61b5630adcdf4655d3" target="_top" xlink:title=" ">
<polygon fill="white" stroke="#666666" points="738,-278 691,-278 691,-259 738,-259 738,-278"/>
<text text-anchor="middle" x="714.5" y="-266" font-family="Helvetica,sans-Serif" font-size="10.00">ImMin</text>
</a>
</g>
</g>
<!-- Node3&#45;&gt;Node8 -->
<g id="edge12" class="edge">
<title>Node3&#45;&gt;Node8</title>
<path fill="none" stroke="#63b8ff" d="M391.22,-184.09C406.93,-200.62 441.79,-234.08 479,-248.5 547.04,-274.86 634.27,-274.18 680.81,-271.35"/>
<polygon fill="#63b8ff" stroke="#63b8ff" points="681.17,-274.83 690.91,-270.66 680.7,-267.85 681.17,-274.83"/>
</g>
<!-- Node10 -->
<g id="node10" class="node">
<title>Node10</title>
<g id="a_node10"><a xlink:href="structImRect.html#a748d8ae9cb26508951ec6e2f2df0625b" target="_top" xlink:title=" ">
<polygon fill="white" stroke="#666666" points="604,-240 497,-240 497,-221 604,-221 604,-240"/>
<text text-anchor="middle" x="550.5" y="-228" font-family="Helvetica,sans-Serif" font-size="10.00">ImRect::GetHeight</text>
</a>
</g>
</g>
<!-- Node3&#45;&gt;Node10 -->
<g id="edge9" class="edge">
<title>Node3&#45;&gt;Node10</title>
<path fill="none" stroke="#63b8ff" d="M405.66,-184.15C425.06,-192.05 453.58,-203.23 479,-211.5 486.21,-213.85 493.89,-216.13 501.44,-218.26"/>
<polygon fill="#63b8ff" stroke="#63b8ff" points="500.67,-221.68 511.24,-220.96 502.52,-214.93 500.67,-221.68"/>
</g>
<!-- Node11 -->
<g id="node11" class="node">
<title>Node11</title>
<g id="a_node11"><a xlink:href="structImRect.html#afa75cb8491f20901c96166d17dcddac4" target="_top" xlink:title=" ">
<polygon fill="white" stroke="#666666" points="602,-203 499,-203 499,-184 602,-184 602,-203"/>
<text text-anchor="middle" x="550.5" y="-191" font-family="Helvetica,sans-Serif" font-size="10.00">ImRect::GetWidth</text>
</a>
</g>
</g>
<!-- Node3&#45;&gt;Node11 -->
<g id="edge10" class="edge">
<title>Node3&#45;&gt;Node11</title>
<path fill="none" stroke="#63b8ff" d="M443.26,-181.41C458.11,-183.1 474.01,-184.91 488.85,-186.6"/>
<polygon fill="#63b8ff" stroke="#63b8ff" points="488.61,-190.09 498.94,-187.75 489.4,-183.14 488.61,-190.09"/>
</g>
<!-- Node12 -->
<g id="node12" class="node">
<title>Node12</title>
<g id="a_node12"><a xlink:href="imgui__internal_8h.html#a3cc719adb48b1aed8ab1196ecea7e828" target="_top" xlink:title=" ">
<polygon fill="white" stroke="#666666" points="599.5,-166 501.5,-166 501.5,-147 599.5,-147 599.5,-166"/>
<text text-anchor="middle" x="550.5" y="-154" font-family="Helvetica,sans-Serif" font-size="10.00">ImIsPowerOfTwo</text>
</a>
</g>
</g>
<!-- Node3&#45;&gt;Node12 -->
<g id="edge11" class="edge">
<title>Node3&#45;&gt;Node12</title>
<path fill="none" stroke="#63b8ff" d="M443.26,-167.95C458.95,-166.26 475.79,-164.45 491.33,-162.77"/>
<polygon fill="#63b8ff" stroke="#63b8ff" points="491.77,-166.24 501.34,-161.69 491.02,-159.28 491.77,-166.24"/>
</g>
<!-- Node13 -->
<g id="node13" class="node">
<title>Node13</title>
<g id="a_node13"><a xlink:href="imgui__internal_8h.html#a34870cae27ccd450c17ec3d3910b2da4" target="_top" xlink:title=" ">
<polygon fill="white" stroke="#666666" points="578,-129 523,-129 523,-110 578,-110 578,-129"/>
<text text-anchor="middle" x="550.5" y="-117" font-family="Helvetica,sans-Serif" font-size="10.00">ImTrunc</text>
</a>
</g>
</g>
<!-- Node3&#45;&gt;Node13 -->
<g id="edge13" class="edge">
<title>Node3&#45;&gt;Node13</title>
<path fill="none" stroke="#63b8ff" d="M405.24,-164.92C424.63,-156.96 453.35,-145.66 479,-137.5 489.97,-134.01 502.06,-130.72 513.08,-127.94"/>
<polygon fill="#63b8ff" stroke="#63b8ff" points="513.98,-131.32 522.85,-125.53 512.3,-124.53 513.98,-131.32"/>
</g>
<!-- Node14 -->
<g id="node14" class="node">
<title>Node14</title>
<g id="a_node14"><a xlink:href="namespaceImGui.html#ad244660a2f3f2999f645feb9fbdfe0ec" target="_top" xlink:title=" ">
<polygon fill="white" stroke="#666666" points="622,-74 479,-74 479,-55 622,-55 622,-74"/>
<text text-anchor="middle" x="550.5" y="-62" font-family="Helvetica,sans-Serif" font-size="10.00">ImGui::SetScrollFromPosX</text>
</a>
</g>
</g>
<!-- Node3&#45;&gt;Node14 -->
<g id="edge15" class="edge">
<title>Node3&#45;&gt;Node14</title>
<path fill="none" stroke="#63b8ff" d="M393.6,-164.91C411.06,-150.08 446.33,-121.13 479,-100.5 491.69,-92.49 506.37,-84.77 519.05,-78.54"/>
<polygon fill="#63b8ff" stroke="#63b8ff" points="520.79,-81.58 528.28,-74.09 517.75,-75.28 520.79,-81.58"/>
</g>
<!-- Node15 -->
<g id="node15" class="node">
<title>Node15</title>
<g id="a_node15"><a xlink:href="namespaceImGui.html#a670d32573369e7ece9330d73f47e4d8b" target="_top" xlink:title=" ">
<polygon fill="white" stroke="#666666" points="622,-19 479,-19 479,0 622,0 622,-19"/>
<text text-anchor="middle" x="550.5" y="-7" font-family="Helvetica,sans-Serif" font-size="10.00">ImGui::SetScrollFromPosY</text>
</a>
</g>
</g>
<!-- Node3&#45;&gt;Node15 -->
<g id="edge17" class="edge">
<title>Node3&#45;&gt;Node15</title>
<path fill="none" stroke="#63b8ff" d="M387.61,-164.91C400.35,-141.77 435.59,-82.09 479,-45.5 489.53,-36.62 502.62,-29.18 514.65,-23.41"/>
<polygon fill="#63b8ff" stroke="#63b8ff" points="516.36,-26.48 524,-19.14 513.45,-20.11 516.36,-26.48"/>
</g>
<!-- Node5 -->
<g id="node5" class="node">
<title>Node5</title>
<g id="a_node5"><a xlink:href="imgui_8cpp.html#a603ad6ffdfa404dd9057cdba7324f6b0" target="_top" xlink:title=" ">
<polygon fill="white" stroke="#666666" points="771,-389 658,-389 658,-370 771,-370 771,-389"/>
<text text-anchor="middle" x="714.5" y="-377" font-family="Helvetica,sans-Serif" font-size="10.00">CalcScrollEdgeSnap</text>
</a>
</g>
</g>
<!-- Node4&#45;&gt;Node5 -->
<g id="edge4" class="edge">
<title>Node4&#45;&gt;Node5</title>
<path fill="none" stroke="#63b8ff" d="M582.36,-326.71C603.43,-336.84 632.11,-350.14 658,-360.5 663.2,-362.58 668.73,-364.64 674.2,-366.6"/>
<polygon fill="#63b8ff" stroke="#63b8ff" points="673.32,-370 683.92,-369.99 675.63,-363.39 673.32,-370"/>
</g>
<!-- Node7 -->
<g id="node7" class="node">
<title>Node7</title>
<g id="a_node7"><a xlink:href="imgui__internal_8h.html#a7667efd95147d0422f140917c71a9226" target="_top" xlink:title=" ">
<polygon fill="white" stroke="#666666" points="739.5,-352 689.5,-352 689.5,-333 739.5,-333 739.5,-352"/>
<text text-anchor="middle" x="714.5" y="-340" font-family="Helvetica,sans-Serif" font-size="10.00">ImMax</text>
</a>
</g>
</g>
<!-- Node4&#45;&gt;Node7 -->
<g id="edge6" class="edge">
<title>Node4&#45;&gt;Node7</title>
<path fill="none" stroke="#63b8ff" d="M620.67,-324.74C640.9,-328.61 662.13,-332.67 679.17,-335.93"/>
<polygon fill="#63b8ff" stroke="#63b8ff" points="678.72,-339.41 689.2,-337.85 680.04,-332.53 678.72,-339.41"/>
</g>
<!-- Node4&#45;&gt;Node8 -->
<g id="edge7" class="edge">
<title>Node4&#45;&gt;Node8</title>
<path fill="none" stroke="#63b8ff" d="M608.16,-296.46C632.51,-290 660.1,-282.67 680.94,-277.14"/>
<polygon fill="#63b8ff" stroke="#63b8ff" points="682.1,-280.46 690.87,-274.51 680.3,-273.69 682.1,-280.46"/>
</g>
<!-- Node9 -->
<g id="node9" class="node">
<title>Node9</title>
<g id="a_node9"><a xlink:href="imgui__internal_8h.html#a832507c9665feacd632ddfb49694085f" target="_top" xlink:title=" ">
<polygon fill="white" stroke="#666666" points="750.5,-315 678.5,-315 678.5,-296 750.5,-296 750.5,-315"/>
<text text-anchor="middle" x="714.5" y="-303" font-family="Helvetica,sans-Serif" font-size="10.00">ImRound64</text>
</a>
</g>
</g>
<!-- Node4&#45;&gt;Node9 -->
<g id="edge8" class="edge">
<title>Node4&#45;&gt;Node9</title>
<path fill="none" stroke="#63b8ff" d="M620.67,-308.94C636.73,-308.34 653.42,-307.73 668.14,-307.18"/>
<polygon fill="#63b8ff" stroke="#63b8ff" points="668.62,-310.66 678.48,-306.8 668.36,-303.67 668.62,-310.66"/>
</g>
<!-- Node6 -->
<g id="node6" class="node">
<title>Node6</title>
<g id="a_node6"><a xlink:href="imgui__internal_8h.html#a1d7813429922346e44eebd82d13f777c" target="_top" xlink:title=" ">
<polygon fill="white" stroke="#666666" points="857,-389 807,-389 807,-370 857,-370 857,-389"/>
<text text-anchor="middle" x="832" y="-377" font-family="Helvetica,sans-Serif" font-size="10.00">ImLerp</text>
</a>
</g>
</g>
<!-- Node5&#45;&gt;Node6 -->
<g id="edge5" class="edge">
<title>Node5&#45;&gt;Node6</title>
<path fill="none" stroke="#63b8ff" d="M771.22,-379.5C779.96,-379.5 788.77,-379.5 796.84,-379.5"/>
<polygon fill="#63b8ff" stroke="#63b8ff" points="796.94,-383 806.94,-379.5 796.94,-376 796.94,-383"/>
</g>
<!-- Node14&#45;&gt;Node14 -->
<g id="edge16" class="edge">
<title>Node14&#45;&gt;Node14</title>
<path fill="none" stroke="#63b8ff" d="M525.22,-74.08C512.93,-82.73 521.35,-92 550.5,-92 569.63,-92 579.83,-88.01 581.11,-82.82"/>
<polygon fill="#63b8ff" stroke="#63b8ff" points="583.98,-80.79 575.78,-74.08 578,-84.44 583.98,-80.79"/>
</g>
<!-- Node15&#45;&gt;Node15 -->
<g id="edge18" class="edge">
<title>Node15&#45;&gt;Node15</title>
<path fill="none" stroke="#63b8ff" d="M525.22,-19.08C512.93,-27.73 521.35,-37 550.5,-37 569.63,-37 579.83,-33.01 581.11,-27.82"/>
<polygon fill="#63b8ff" stroke="#63b8ff" points="583.98,-25.79 575.78,-19.08 578,-29.44 583.98,-25.79"/>
</g>
</g>
</svg>
