<?xml version="1.0" encoding="UTF-8" standalone="no"?>
<!DOCTYPE svg PUBLIC "-//W3C//DTD SVG 1.1//EN"
 "http://www.w3.org/Graphics/SVG/1.1/DTD/svg11.dtd">
<!-- Generated by graphviz version 2.43.0 (0)
 -->
<!-- Title: ImGui::SetNavFocusScope Pages: 1 -->
<svg width="484pt" height="64pt"
 viewBox="0.00 0.00 484.00 64.00" xmlns="http://www.w3.org/2000/svg" xmlns:xlink="http://www.w3.org/1999/xlink">
<g id="graph0" class="graph" transform="scale(1 1) rotate(0) translate(4 60)">
<title>ImGui::SetNavFocusScope</title>
<!-- Node1 -->
<g id="node1" class="node">
<title>Node1</title>
<g id="a_node1"><a xlink:title=" ">
<polygon fill="#999999" stroke="#666666" points="144,-37 0,-37 0,-18 144,-18 144,-37"/>
<text text-anchor="middle" x="72" y="-25" font-family="Helvetica,sans-Serif" font-size="10.00">ImGui::SetNavFocusScope</text>
</a>
</g>
</g>
<!-- Node2 -->
<g id="node2" class="node">
<title>Node2</title>
<g id="a_node2"><a xlink:href="structImVector.html#aab5df48e0711a48bd12f3206e08c4108" target="_top" xlink:title=" ">
<polygon fill="white" stroke="#666666" points="298,-56 180,-56 180,-37 298,-37 298,-56"/>
<text text-anchor="middle" x="239" y="-44" font-family="Helvetica,sans-Serif" font-size="10.00">ImVector::push_back</text>
</a>
</g>
</g>
<!-- Node1&#45;&gt;Node2 -->
<g id="edge1" class="edge">
<title>Node1&#45;&gt;Node2</title>
<path fill="none" stroke="#63b8ff" d="M144.41,-35.72C152.83,-36.69 161.41,-37.68 169.79,-38.65"/>
<polygon fill="#63b8ff" stroke="#63b8ff" points="169.54,-42.14 179.88,-39.81 170.34,-35.19 169.54,-42.14"/>
</g>
<!-- Node5 -->
<g id="node5" class="node">
<title>Node5</title>
<g id="a_node5"><a xlink:href="structImVector.html#ac371dd62e56ae486b1a5038cf07eee56" target="_top" xlink:title=" ">
<polygon fill="white" stroke="#666666" points="286.5,-19 191.5,-19 191.5,0 286.5,0 286.5,-19"/>
<text text-anchor="middle" x="239" y="-7" font-family="Helvetica,sans-Serif" font-size="10.00">ImVector::resize</text>
</a>
</g>
</g>
<!-- Node1&#45;&gt;Node5 -->
<g id="edge4" class="edge">
<title>Node1&#45;&gt;Node5</title>
<path fill="none" stroke="#63b8ff" d="M144.41,-19.71C156.67,-18.37 169.26,-17 181.08,-15.71"/>
<polygon fill="#63b8ff" stroke="#63b8ff" points="181.68,-19.17 191.24,-14.6 180.92,-12.21 181.68,-19.17"/>
</g>
<!-- Node3 -->
<g id="node3" class="node">
<title>Node3</title>
<g id="a_node3"><a xlink:href="structImVector.html#a3a097635d464b1b70dc7d59996a88b28" target="_top" xlink:title=" ">
<polygon fill="white" stroke="#666666" points="476,-56 334,-56 334,-37 476,-37 476,-56"/>
<text text-anchor="middle" x="405" y="-44" font-family="Helvetica,sans-Serif" font-size="10.00">ImVector::_grow_capacity</text>
</a>
</g>
</g>
<!-- Node2&#45;&gt;Node3 -->
<g id="edge2" class="edge">
<title>Node2&#45;&gt;Node3</title>
<path fill="none" stroke="#63b8ff" d="M298.28,-46.5C306.55,-46.5 315.18,-46.5 323.78,-46.5"/>
<polygon fill="#63b8ff" stroke="#63b8ff" points="323.83,-50 333.83,-46.5 323.83,-43 323.83,-50"/>
</g>
<!-- Node4 -->
<g id="node4" class="node">
<title>Node4</title>
<g id="a_node4"><a xlink:href="structImVector.html#a0f14f5736c3372157856eebb67123b75" target="_top" xlink:title=" ">
<polygon fill="white" stroke="#666666" points="456.5,-19 353.5,-19 353.5,0 456.5,0 456.5,-19"/>
<text text-anchor="middle" x="405" y="-7" font-family="Helvetica,sans-Serif" font-size="10.00">ImVector::reserve</text>
</a>
</g>
</g>
<!-- Node2&#45;&gt;Node4 -->
<g id="edge3" class="edge">
<title>Node2&#45;&gt;Node4</title>
<path fill="none" stroke="#63b8ff" d="M282.23,-36.97C303.39,-32.2 329.19,-26.38 351.6,-21.32"/>
<polygon fill="#63b8ff" stroke="#63b8ff" points="352.64,-24.68 361.62,-19.06 351.1,-17.85 352.64,-24.68"/>
</g>
<!-- Node5&#45;&gt;Node3 -->
<g id="edge5" class="edge">
<title>Node5&#45;&gt;Node3</title>
<path fill="none" stroke="#63b8ff" d="M282.23,-19.03C303.39,-23.8 329.19,-29.62 351.6,-34.68"/>
<polygon fill="#63b8ff" stroke="#63b8ff" points="351.1,-38.15 361.62,-36.94 352.64,-31.32 351.1,-38.15"/>
</g>
<!-- Node5&#45;&gt;Node4 -->
<g id="edge6" class="edge">
<title>Node5&#45;&gt;Node4</title>
<path fill="none" stroke="#63b8ff" d="M286.56,-9.5C304.14,-9.5 324.4,-9.5 343.1,-9.5"/>
<polygon fill="#63b8ff" stroke="#63b8ff" points="343.3,-13 353.3,-9.5 343.3,-6 343.3,-13"/>
</g>
</g>
</svg>
