<?xml version="1.0" encoding="UTF-8" standalone="no"?>
<!DOCTYPE svg PUBLIC "-//W3C//DTD SVG 1.1//EN"
 "http://www.w3.org/Graphics/SVG/1.1/DTD/svg11.dtd">
<!-- Generated by graphviz version 2.43.0 (0)
 -->
<!-- Title: ImGui::CreateNewWindowSettings Pages: 1 -->
<svg width="917pt" height="172pt"
 viewBox="0.00 0.00 917.00 172.00" xmlns="http://www.w3.org/2000/svg" xmlns:xlink="http://www.w3.org/1999/xlink">
<g id="graph0" class="graph" transform="scale(1 1) rotate(0) translate(4 168)">
<title>ImGui::CreateNewWindowSettings</title>
<!-- Node1 -->
<g id="node1" class="node">
<title>Node1</title>
<g id="a_node1"><a xlink:title=" ">
<polygon fill="#999999" stroke="#666666" points="909,-93.5 724,-93.5 724,-74.5 909,-74.5 909,-93.5"/>
<text text-anchor="middle" x="816.5" y="-81.5" font-family="Helvetica,sans-Serif" font-size="10.00">ImGui::CreateNewWindowSettings</text>
</a>
</g>
</g>
<!-- Node2 -->
<g id="node2" class="node">
<title>Node2</title>
<g id="a_node2"><a xlink:href="namespaceImGui.html#ad4262ab8fa2967373913cf5eed4c19f3" target="_top" xlink:title=" ">
<polygon fill="white" stroke="#666666" points="688,-164 513,-164 513,-134 688,-134 688,-164"/>
<text text-anchor="start" x="521" y="-152" font-family="Helvetica,sans-Serif" font-size="10.00">ImGui::DockBuilderCopyWindow</text>
<text text-anchor="middle" x="600.5" y="-141" font-family="Helvetica,sans-Serif" font-size="10.00">Settings</text>
</a>
</g>
</g>
<!-- Node1&#45;&gt;Node2 -->
<g id="edge1" class="edge">
<title>Node1&#45;&gt;Node2</title>
<path fill="none" stroke="#63b8ff" d="M777.42,-96.69C752.14,-105.01 718.19,-115.96 688,-125 678,-127.99 667.3,-131.07 656.97,-133.97"/>
<polygon fill="#63b8ff" stroke="#63b8ff" points="778.59,-99.99 786.99,-93.53 776.4,-93.34 778.59,-99.99"/>
</g>
<!-- Node4 -->
<g id="node4" class="node">
<title>Node4</title>
<g id="a_node4"><a xlink:href="namespaceImGui.html#a8d41ed7aa329857c1834cace2eca60ea" target="_top" xlink:title=" ">
<polygon fill="white" stroke="#666666" points="688,-115.5 513,-115.5 513,-96.5 688,-96.5 688,-115.5"/>
<text text-anchor="middle" x="600.5" y="-103.5" font-family="Helvetica,sans-Serif" font-size="10.00">ImGui::DockBuilderDockWindow</text>
</a>
</g>
</g>
<!-- Node1&#45;&gt;Node4 -->
<g id="edge3" class="edge">
<title>Node1&#45;&gt;Node4</title>
<path fill="none" stroke="#63b8ff" d="M713.81,-94.45C705.26,-95.33 696.67,-96.22 688.25,-97.08"/>
<polygon fill="#63b8ff" stroke="#63b8ff" points="714.22,-97.93 723.81,-93.43 713.51,-90.97 714.22,-97.93"/>
</g>
<!-- Node5 -->
<g id="node5" class="node">
<title>Node5</title>
<g id="a_node5"><a xlink:href="imgui_8cpp.html#a96167b8831eaf55d73bfd79411b01fd6" target="_top" xlink:title=" ">
<polygon fill="white" stroke="#666666" points="667.5,-78 533.5,-78 533.5,-48 667.5,-48 667.5,-78"/>
<text text-anchor="start" x="541.5" y="-66" font-family="Helvetica,sans-Serif" font-size="10.00">WindowSettingsHandler</text>
<text text-anchor="middle" x="600.5" y="-55" font-family="Helvetica,sans-Serif" font-size="10.00">_ReadOpen</text>
</a>
</g>
</g>
<!-- Node1&#45;&gt;Node5 -->
<g id="edge5" class="edge">
<title>Node1&#45;&gt;Node5</title>
<path fill="none" stroke="#63b8ff" d="M713.61,-74C698.04,-72.47 682.32,-70.93 667.78,-69.5"/>
<polygon fill="#63b8ff" stroke="#63b8ff" points="713.52,-77.51 723.81,-75 714.2,-70.54 713.52,-77.51"/>
</g>
<!-- Node9 -->
<g id="node9" class="node">
<title>Node9</title>
<g id="a_node9"><a xlink:href="imgui_8cpp.html#a24623093a2b9a7babcc73f502bfabad0" target="_top" xlink:title=" ">
<polygon fill="white" stroke="#666666" points="667.5,-30 533.5,-30 533.5,0 667.5,0 667.5,-30"/>
<text text-anchor="start" x="541.5" y="-18" font-family="Helvetica,sans-Serif" font-size="10.00">WindowSettingsHandler</text>
<text text-anchor="middle" x="600.5" y="-7" font-family="Helvetica,sans-Serif" font-size="10.00">_WriteAll</text>
</a>
</g>
</g>
<!-- Node1&#45;&gt;Node9 -->
<g id="edge9" class="edge">
<title>Node1&#45;&gt;Node9</title>
<path fill="none" stroke="#63b8ff" d="M780.2,-70.81C754.72,-61.47 719.43,-48.89 688,-39 678.34,-35.96 668.01,-32.91 657.97,-30.06"/>
<polygon fill="#63b8ff" stroke="#63b8ff" points="779.2,-74.17 789.79,-74.34 781.62,-67.6 779.2,-74.17"/>
</g>
<!-- Node3 -->
<g id="node3" class="node">
<title>Node3</title>
<g id="a_node3"><a xlink:href="namespaceImGui.html#adf707304b4d0759f566bdf584b913815" target="_top" xlink:title=" ">
<polygon fill="white" stroke="#666666" points="477,-133 316,-133 316,-103 477,-103 477,-133"/>
<text text-anchor="start" x="324" y="-121" font-family="Helvetica,sans-Serif" font-size="10.00">ImGui::DockBuilderCopyDock</text>
<text text-anchor="middle" x="396.5" y="-110" font-family="Helvetica,sans-Serif" font-size="10.00">Space</text>
</a>
</g>
</g>
<!-- Node2&#45;&gt;Node3 -->
<g id="edge2" class="edge">
<title>Node2&#45;&gt;Node3</title>
<path fill="none" stroke="#63b8ff" d="M502.88,-134.17C494.26,-132.85 485.6,-131.52 477.16,-130.22"/>
<polygon fill="#63b8ff" stroke="#63b8ff" points="502.54,-137.66 512.95,-135.72 503.6,-130.74 502.54,-137.66"/>
</g>
<!-- Node4&#45;&gt;Node3 -->
<g id="edge4" class="edge">
<title>Node4&#45;&gt;Node3</title>
<path fill="none" stroke="#63b8ff" d="M502.88,-111.74C494.26,-112.25 485.6,-112.77 477.16,-113.27"/>
<polygon fill="#63b8ff" stroke="#63b8ff" points="503.18,-115.23 512.95,-111.14 502.76,-108.24 503.18,-115.23"/>
</g>
<!-- Node6 -->
<g id="node6" class="node">
<title>Node6</title>
<g id="a_node6"><a xlink:href="namespaceImGui.html#a1a611da38fae18a3d1dafcb3228259da" target="_top" xlink:title=" ">
<polygon fill="white" stroke="#666666" points="443.5,-60.5 349.5,-60.5 349.5,-41.5 443.5,-41.5 443.5,-60.5"/>
<text text-anchor="middle" x="396.5" y="-48.5" font-family="Helvetica,sans-Serif" font-size="10.00">ImGui::Initialize</text>
</a>
</g>
</g>
<!-- Node5&#45;&gt;Node6 -->
<g id="edge6" class="edge">
<title>Node5&#45;&gt;Node6</title>
<path fill="none" stroke="#63b8ff" d="M523.23,-58.47C496.45,-56.88 467.19,-55.14 443.65,-53.74"/>
<polygon fill="#63b8ff" stroke="#63b8ff" points="523.17,-61.97 533.36,-59.07 523.58,-54.98 523.17,-61.97"/>
</g>
<!-- Node7 -->
<g id="node7" class="node">
<title>Node7</title>
<g id="a_node7"><a xlink:href="namespaceImGui.html#a4ff6c9ad05a0eba37ce1b5ff1607810a" target="_top" xlink:title=" ">
<polygon fill="white" stroke="#666666" points="280,-60.5 158,-60.5 158,-41.5 280,-41.5 280,-60.5"/>
<text text-anchor="middle" x="219" y="-48.5" font-family="Helvetica,sans-Serif" font-size="10.00">ImGui::CreateContext</text>
</a>
</g>
</g>
<!-- Node6&#45;&gt;Node7 -->
<g id="edge7" class="edge">
<title>Node6&#45;&gt;Node7</title>
<path fill="none" stroke="#63b8ff" d="M339.16,-51C320.28,-51 299.16,-51 280.01,-51"/>
<polygon fill="#63b8ff" stroke="#63b8ff" points="339.39,-54.5 349.39,-51 339.39,-47.5 339.39,-54.5"/>
</g>
<!-- Node8 -->
<g id="node8" class="node">
<title>Node8</title>
<g id="a_node8"><a xlink:href="classmtgb_1_1ImGuiRenderer.html#a4db4a95a57f586a5fda30be1957f247a" target="_top" xlink:title=" ">
<polygon fill="white" stroke="#666666" points="122,-66 0,-66 0,-36 122,-36 122,-66"/>
<text text-anchor="start" x="8" y="-54" font-family="Helvetica,sans-Serif" font-size="10.00">mtgb::ImGuiRenderer</text>
<text text-anchor="middle" x="61" y="-43" font-family="Helvetica,sans-Serif" font-size="10.00">::Initialize</text>
</a>
</g>
</g>
<!-- Node7&#45;&gt;Node8 -->
<g id="edge8" class="edge">
<title>Node7&#45;&gt;Node8</title>
<path fill="none" stroke="#63b8ff" d="M147.46,-51C139.01,-51 130.44,-51 122.15,-51"/>
<polygon fill="#63b8ff" stroke="#63b8ff" points="147.69,-54.5 157.69,-51 147.69,-47.5 147.69,-54.5"/>
</g>
<!-- Node9&#45;&gt;Node6 -->
<g id="edge10" class="edge">
<title>Node9&#45;&gt;Node6</title>
<path fill="none" stroke="#63b8ff" d="M523.23,-28.59C496.45,-33.37 467.19,-38.58 443.65,-42.78"/>
<polygon fill="#63b8ff" stroke="#63b8ff" points="524.13,-31.99 533.36,-26.79 522.9,-25.1 524.13,-31.99"/>
</g>
</g>
</svg>
