<?xml version="1.0" encoding="UTF-8" standalone="no"?>
<!DOCTYPE svg PUBLIC "-//W3C//DTD SVG 1.1//EN"
 "http://www.w3.org/Graphics/SVG/1.1/DTD/svg11.dtd">
<!-- Generated by graphviz version 2.43.0 (0)
 -->
<!-- Title: ImGradient::DrawPoint Pages: 1 -->
<svg width="1262pt" height="271pt"
 viewBox="0.00 0.00 1262.00 271.00" xmlns="http://www.w3.org/2000/svg" xmlns:xlink="http://www.w3.org/1999/xlink">
<g id="graph0" class="graph" transform="scale(1 1) rotate(0) translate(4 267)">
<title>ImGradient::DrawPoint</title>
<!-- Node1 -->
<g id="node1" class="node">
<title>Node1</title>
<g id="a_node1"><a xlink:title=" ">
<polygon fill="#999999" stroke="#666666" points="128,-93 0,-93 0,-74 128,-74 128,-93"/>
<text text-anchor="middle" x="64" y="-81" font-family="Helvetica,sans-Serif" font-size="10.00">ImGradient::DrawPoint</text>
</a>
</g>
</g>
<!-- Node2 -->
<g id="node2" class="node">
<title>Node2</title>
<g id="a_node2"><a xlink:href="structImDrawList.html#ad96f10a3e954fe0c5b7c96d4e205af7b" target="_top" xlink:title=" ">
<polygon fill="white" stroke="#666666" points="296,-130 177,-130 177,-111 296,-111 296,-130"/>
<text text-anchor="middle" x="236.5" y="-118" font-family="Helvetica,sans-Serif" font-size="10.00">ImDrawList::AddRect</text>
</a>
</g>
</g>
<!-- Node1&#45;&gt;Node2 -->
<g id="edge1" class="edge">
<title>Node1&#45;&gt;Node2</title>
<path fill="none" stroke="#63b8ff" d="M108.91,-93.03C131.1,-97.84 158.21,-103.73 181.65,-108.81"/>
<polygon fill="#63b8ff" stroke="#63b8ff" points="180.93,-112.24 191.44,-110.94 182.41,-105.4 180.93,-112.24"/>
</g>
<!-- Node17 -->
<g id="node17" class="node">
<title>Node17</title>
<g id="a_node17"><a xlink:href="structImDrawList.html#a6b16ab764160b0251d2e7b3bd08c1ffc" target="_top" xlink:title=" ">
<polygon fill="white" stroke="#666666" points="309,-189 164,-189 164,-170 309,-170 309,-189"/>
<text text-anchor="middle" x="236.5" y="-177" font-family="Helvetica,sans-Serif" font-size="10.00">ImDrawList::AddRectFilled</text>
</a>
</g>
</g>
<!-- Node1&#45;&gt;Node17 -->
<g id="edge20" class="edge">
<title>Node1&#45;&gt;Node17</title>
<path fill="none" stroke="#63b8ff" d="M81.97,-93.06C111.97,-109.95 174.53,-145.17 209.83,-165.05"/>
<polygon fill="#63b8ff" stroke="#63b8ff" points="208.17,-168.13 218.6,-169.98 211.6,-162.03 208.17,-168.13"/>
</g>
<!-- Node23 -->
<g id="node23" class="node">
<title>Node23</title>
<g id="a_node23"><a xlink:href="structImRect.html#ac583156fd0e9306181fff5d120b262ea" target="_top" xlink:title=" ">
<polygon fill="white" stroke="#666666" points="286.5,-93 186.5,-93 186.5,-74 286.5,-74 286.5,-93"/>
<text text-anchor="middle" x="236.5" y="-81" font-family="Helvetica,sans-Serif" font-size="10.00">ImRect::Contains</text>
</a>
</g>
</g>
<!-- Node1&#45;&gt;Node23 -->
<g id="edge29" class="edge">
<title>Node1&#45;&gt;Node23</title>
<path fill="none" stroke="#63b8ff" d="M128,-83.5C143.8,-83.5 160.69,-83.5 176.3,-83.5"/>
<polygon fill="#63b8ff" stroke="#63b8ff" points="176.34,-87 186.34,-83.5 176.34,-80 176.34,-87"/>
</g>
<!-- Node24 -->
<g id="node24" class="node">
<title>Node24</title>
<g id="a_node24"><a xlink:href="namespaceImGui.html#a3179e560812f878f3961ce803a5d9302" target="_top" xlink:title=" ">
<polygon fill="white" stroke="#666666" points="276.5,-56 196.5,-56 196.5,-37 276.5,-37 276.5,-56"/>
<text text-anchor="middle" x="236.5" y="-44" font-family="Helvetica,sans-Serif" font-size="10.00">ImGui::GetIO</text>
</a>
</g>
</g>
<!-- Node1&#45;&gt;Node24 -->
<g id="edge30" class="edge">
<title>Node1&#45;&gt;Node24</title>
<path fill="none" stroke="#63b8ff" d="M108.91,-73.97C132.67,-68.82 162.08,-62.43 186.58,-57.12"/>
<polygon fill="#63b8ff" stroke="#63b8ff" points="187.36,-60.53 196.39,-54.99 185.88,-53.69 187.36,-60.53"/>
</g>
<!-- Node25 -->
<g id="node25" class="node">
<title>Node25</title>
<g id="a_node25"><a xlink:href="imgui__internal_8h.html#a1d7813429922346e44eebd82d13f777c" target="_top" xlink:title=" ">
<polygon fill="white" stroke="#666666" points="261.5,-19 211.5,-19 211.5,0 261.5,0 261.5,-19"/>
<text text-anchor="middle" x="236.5" y="-7" font-family="Helvetica,sans-Serif" font-size="10.00">ImLerp</text>
</a>
</g>
</g>
<!-- Node1&#45;&gt;Node25 -->
<g id="edge31" class="edge">
<title>Node1&#45;&gt;Node25</title>
<path fill="none" stroke="#63b8ff" d="M79.15,-73.87C97.83,-61.55 132.1,-40.27 164,-27.5 175.86,-22.75 189.33,-18.97 201.36,-16.13"/>
<polygon fill="#63b8ff" stroke="#63b8ff" points="202.49,-19.46 211.49,-13.86 200.97,-12.63 202.49,-19.46"/>
</g>
<!-- Node3 -->
<g id="node3" class="node">
<title>Node3</title>
<g id="a_node3"><a xlink:href="structImDrawList.html#a2251eb264ed8b17a253c409787375053" target="_top" xlink:title=" ">
<polygon fill="white" stroke="#666666" points="480.5,-130 359.5,-130 359.5,-111 480.5,-111 480.5,-130"/>
<text text-anchor="middle" x="420" y="-118" font-family="Helvetica,sans-Serif" font-size="10.00">ImDrawList::PathRect</text>
</a>
</g>
</g>
<!-- Node2&#45;&gt;Node3 -->
<g id="edge2" class="edge">
<title>Node2&#45;&gt;Node3</title>
<path fill="none" stroke="#63b8ff" d="M296.18,-120.5C313.06,-120.5 331.64,-120.5 349.13,-120.5"/>
<polygon fill="#63b8ff" stroke="#63b8ff" points="349.28,-124 359.28,-120.5 349.28,-117 349.28,-124"/>
</g>
<!-- Node16 -->
<g id="node16" class="node">
<title>Node16</title>
<g id="a_node16"><a xlink:href="structImDrawList.html#a60bf9040ef3d09b39c4ba8f5a2a68ae9" target="_top" xlink:title=" ">
<polygon fill="white" stroke="#666666" points="485,-93 355,-93 355,-74 485,-74 485,-93"/>
<text text-anchor="middle" x="420" y="-81" font-family="Helvetica,sans-Serif" font-size="10.00">ImDrawList::PathStroke</text>
</a>
</g>
</g>
<!-- Node2&#45;&gt;Node16 -->
<g id="edge19" class="edge">
<title>Node2&#45;&gt;Node16</title>
<path fill="none" stroke="#63b8ff" d="M284.24,-110.97C307.97,-106.14 336.99,-100.22 362.01,-95.12"/>
<polygon fill="#63b8ff" stroke="#63b8ff" points="363,-98.49 372.1,-93.06 361.6,-91.63 363,-98.49"/>
</g>
<!-- Node4 -->
<g id="node4" class="node">
<title>Node4</title>
<g id="a_node4"><a xlink:href="imgui__draw_8cpp.html#abc26563004ba48126f2e8b70ea0067af" target="_top" xlink:title=" ">
<polygon fill="white" stroke="#666666" points="664.5,-119 553.5,-119 553.5,-100 664.5,-100 664.5,-119"/>
<text text-anchor="middle" x="609" y="-107" font-family="Helvetica,sans-Serif" font-size="10.00">FixRectCornerFlags</text>
</a>
</g>
</g>
<!-- Node3&#45;&gt;Node4 -->
<g id="edge3" class="edge">
<title>Node3&#45;&gt;Node4</title>
<path fill="none" stroke="#63b8ff" d="M480.68,-116.99C500.62,-115.82 522.92,-114.5 543.22,-113.31"/>
<polygon fill="#63b8ff" stroke="#63b8ff" points="543.54,-116.8 553.32,-112.72 543.13,-109.81 543.54,-116.8"/>
</g>
<!-- Node5 -->
<g id="node5" class="node">
<title>Node5</title>
<g id="a_node5"><a xlink:href="imgui__internal_8h.html#a7f9d7828066a9d61b5630adcdf4655d3" target="_top" xlink:title=" ">
<polygon fill="white" stroke="#666666" points="632.5,-82 585.5,-82 585.5,-63 632.5,-63 632.5,-82"/>
<text text-anchor="middle" x="609" y="-70" font-family="Helvetica,sans-Serif" font-size="10.00">ImMin</text>
</a>
</g>
</g>
<!-- Node3&#45;&gt;Node5 -->
<g id="edge4" class="edge">
<title>Node3&#45;&gt;Node5</title>
<path fill="none" stroke="#63b8ff" d="M459.5,-110.97C470.95,-108.04 483.51,-104.73 495,-101.5 511.11,-96.97 514.85,-94.85 531,-90.5 545.47,-86.6 561.6,-82.76 575.35,-79.62"/>
<polygon fill="#63b8ff" stroke="#63b8ff" points="576.34,-82.99 585.33,-77.38 574.8,-76.16 576.34,-82.99"/>
</g>
<!-- Node6 -->
<g id="node6" class="node">
<title>Node6</title>
<g id="a_node6"><a xlink:href="structImDrawList.html#a6d307c6de1a6522e76fa410e8fe96fcc" target="_top" xlink:title=" ">
<polygon fill="white" stroke="#666666" points="681.5,-45 536.5,-45 536.5,-26 681.5,-26 681.5,-45"/>
<text text-anchor="middle" x="609" y="-33" font-family="Helvetica,sans-Serif" font-size="10.00">ImDrawList::PathArcToFast</text>
</a>
</g>
</g>
<!-- Node3&#45;&gt;Node6 -->
<g id="edge5" class="edge">
<title>Node3&#45;&gt;Node6</title>
<path fill="none" stroke="#63b8ff" d="M475.77,-110.98C482.56,-108.51 489.16,-105.41 495,-101.5 517.17,-86.68 508.67,-68.08 531,-53.5 533.42,-51.92 535.97,-50.47 538.61,-49.15"/>
<polygon fill="#63b8ff" stroke="#63b8ff" points="540.06,-52.34 547.84,-45.14 537.28,-45.92 540.06,-52.34"/>
</g>
<!-- Node15 -->
<g id="node15" class="node">
<title>Node15</title>
<g id="a_node15"><a xlink:href="structImDrawList.html#a828d944325ed58d8b57abd3647bffaaf" target="_top" xlink:title=" ">
<polygon fill="white" stroke="#666666" points="869,-157 739,-157 739,-138 869,-138 869,-157"/>
<text text-anchor="middle" x="804" y="-145" font-family="Helvetica,sans-Serif" font-size="10.00">ImDrawList::PathLineTo</text>
</a>
</g>
</g>
<!-- Node3&#45;&gt;Node15 -->
<g id="edge17" class="edge">
<title>Node3&#45;&gt;Node15</title>
<path fill="none" stroke="#63b8ff" d="M480.69,-124.72C547.59,-129.45 656.15,-137.12 728.54,-142.24"/>
<polygon fill="#63b8ff" stroke="#63b8ff" points="728.73,-145.76 738.95,-142.97 729.23,-138.78 728.73,-145.76"/>
</g>
<!-- Node7 -->
<g id="node7" class="node">
<title>Node7</title>
<g id="a_node7"><a xlink:href="structImDrawList.html#ac25f3a7693ed13ba2dac455675be8654" target="_top" xlink:title=" ">
<polygon fill="white" stroke="#666666" points="885,-79 723,-79 723,-60 885,-60 885,-79"/>
<text text-anchor="middle" x="804" y="-67" font-family="Helvetica,sans-Serif" font-size="10.00">ImDrawList::_PathArcToFastEx</text>
</a>
</g>
</g>
<!-- Node6&#45;&gt;Node7 -->
<g id="edge6" class="edge">
<title>Node6&#45;&gt;Node7</title>
<path fill="none" stroke="#63b8ff" d="M664.02,-45.02C687.34,-49.13 714.81,-53.96 739.14,-58.25"/>
<polygon fill="#63b8ff" stroke="#63b8ff" points="738.54,-61.7 749,-59.99 739.75,-54.8 738.54,-61.7"/>
</g>
<!-- Node11 -->
<g id="node11" class="node">
<title>Node11</title>
<g id="a_node11"><a xlink:href="structImVector.html#aab5df48e0711a48bd12f3206e08c4108" target="_top" xlink:title=" ">
<polygon fill="white" stroke="#666666" points="1057.5,-157 939.5,-157 939.5,-138 1057.5,-138 1057.5,-157"/>
<text text-anchor="middle" x="998.5" y="-145" font-family="Helvetica,sans-Serif" font-size="10.00">ImVector::push_back</text>
</a>
</g>
</g>
<!-- Node6&#45;&gt;Node11 -->
<g id="edge16" class="edge">
<title>Node6&#45;&gt;Node11</title>
<path fill="none" stroke="#63b8ff" d="M666.38,-45.01C673.54,-47.26 680.59,-50.05 687,-53.5 706.38,-63.92 703.54,-77.22 723,-87.5 741.74,-97.4 861.59,-121.52 936.6,-135.98"/>
<polygon fill="#63b8ff" stroke="#63b8ff" points="936.39,-139.51 946.87,-137.96 937.71,-132.63 936.39,-139.51"/>
</g>
<!-- Node8 -->
<g id="node8" class="node">
<title>Node8</title>
<g id="a_node8"><a xlink:href="structImDrawList.html#a52afa32aaab6d581cda90dc5d8726ed6" target="_top" xlink:title=" ">
<polygon fill="white" stroke="#666666" points="1076,-82.5 921,-82.5 921,-52.5 1076,-52.5 1076,-82.5"/>
<text text-anchor="start" x="929" y="-70.5" font-family="Helvetica,sans-Serif" font-size="10.00">ImDrawList::_CalcCircleAuto</text>
<text text-anchor="middle" x="998.5" y="-59.5" font-family="Helvetica,sans-Serif" font-size="10.00">SegmentCount</text>
</a>
</g>
</g>
<!-- Node7&#45;&gt;Node8 -->
<g id="edge7" class="edge">
<title>Node7&#45;&gt;Node8</title>
<path fill="none" stroke="#63b8ff" d="M885.24,-68.67C893.6,-68.58 902.13,-68.49 910.56,-68.4"/>
<polygon fill="#63b8ff" stroke="#63b8ff" points="910.82,-71.9 920.78,-68.3 910.74,-64.9 910.82,-71.9"/>
</g>
<!-- Node9 -->
<g id="node9" class="node">
<title>Node9</title>
<g id="a_node9"><a xlink:href="imgui__internal_8h.html#aab329ad3ecb3ffc0bf9183d9edb144bb" target="_top" xlink:title=" ">
<polygon fill="white" stroke="#666666" points="1022,-34 975,-34 975,-15 1022,-15 1022,-34"/>
<text text-anchor="middle" x="998.5" y="-22" font-family="Helvetica,sans-Serif" font-size="10.00">ImAbs</text>
</a>
</g>
</g>
<!-- Node7&#45;&gt;Node9 -->
<g id="edge8" class="edge">
<title>Node7&#45;&gt;Node9</title>
<path fill="none" stroke="#63b8ff" d="M845.82,-59.96C881.28,-51.67 931.95,-39.82 964.79,-32.15"/>
<polygon fill="#63b8ff" stroke="#63b8ff" points="965.84,-35.5 974.78,-29.81 964.25,-28.68 965.84,-35.5"/>
</g>
<!-- Node10 -->
<g id="node10" class="node">
<title>Node10</title>
<g id="a_node10"><a xlink:href="imgui__internal_8h.html#a6e61ede308bfd68c7434e17905a29fc8" target="_top" xlink:title=" ">
<polygon fill="white" stroke="#666666" points="1029,-120 968,-120 968,-101 1029,-101 1029,-120"/>
<text text-anchor="middle" x="998.5" y="-108" font-family="Helvetica,sans-Serif" font-size="10.00">ImClamp</text>
</a>
</g>
</g>
<!-- Node7&#45;&gt;Node10 -->
<g id="edge9" class="edge">
<title>Node7&#45;&gt;Node10</title>
<path fill="none" stroke="#63b8ff" d="M849.65,-79.01C882.28,-85.96 926.14,-95.3 957.6,-102"/>
<polygon fill="#63b8ff" stroke="#63b8ff" points="957.26,-105.51 967.76,-104.17 958.71,-98.66 957.26,-105.51"/>
</g>
<!-- Node7&#45;&gt;Node11 -->
<g id="edge10" class="edge">
<title>Node7&#45;&gt;Node11</title>
<path fill="none" stroke="#63b8ff" d="M848.03,-79.05C860.46,-82.83 873.7,-87.88 885,-94.5 903.99,-105.62 901.69,-117.95 921,-128.5 925.21,-130.8 929.69,-132.82 934.31,-134.61"/>
<polygon fill="#63b8ff" stroke="#63b8ff" points="933.31,-137.97 943.9,-137.94 935.61,-131.35 933.31,-137.97"/>
</g>
<!-- Node14 -->
<g id="node14" class="node">
<title>Node14</title>
<g id="a_node14"><a xlink:href="structImVector.html#ac371dd62e56ae486b1a5038cf07eee56" target="_top" xlink:title=" ">
<polygon fill="white" stroke="#666666" points="1046,-194 951,-194 951,-175 1046,-175 1046,-194"/>
<text text-anchor="middle" x="998.5" y="-182" font-family="Helvetica,sans-Serif" font-size="10.00">ImVector::resize</text>
</a>
</g>
</g>
<!-- Node7&#45;&gt;Node14 -->
<g id="edge13" class="edge">
<title>Node7&#45;&gt;Node14</title>
<path fill="none" stroke="#63b8ff" d="M819.46,-79.01C835.94,-90.12 863.41,-109.41 885,-128.5 902.43,-143.91 900.83,-154.9 921,-166.5 927.26,-170.1 934.21,-172.98 941.28,-175.29"/>
<polygon fill="#63b8ff" stroke="#63b8ff" points="940.38,-178.67 950.96,-178.09 942.32,-171.94 940.38,-178.67"/>
</g>
<!-- Node12 -->
<g id="node12" class="node">
<title>Node12</title>
<g id="a_node12"><a xlink:href="structImVector.html#a3a097635d464b1b70dc7d59996a88b28" target="_top" xlink:title=" ">
<polygon fill="white" stroke="#666666" points="1254,-194 1112,-194 1112,-175 1254,-175 1254,-194"/>
<text text-anchor="middle" x="1183" y="-182" font-family="Helvetica,sans-Serif" font-size="10.00">ImVector::_grow_capacity</text>
</a>
</g>
</g>
<!-- Node11&#45;&gt;Node12 -->
<g id="edge11" class="edge">
<title>Node11&#45;&gt;Node12</title>
<path fill="none" stroke="#63b8ff" d="M1046.5,-157.03C1070.46,-161.89 1099.79,-167.83 1125.03,-172.95"/>
<polygon fill="#63b8ff" stroke="#63b8ff" points="1124.35,-176.38 1134.84,-174.94 1125.74,-169.52 1124.35,-176.38"/>
</g>
<!-- Node13 -->
<g id="node13" class="node">
<title>Node13</title>
<g id="a_node13"><a xlink:href="structImVector.html#a0f14f5736c3372157856eebb67123b75" target="_top" xlink:title=" ">
<polygon fill="white" stroke="#666666" points="1234.5,-157 1131.5,-157 1131.5,-138 1234.5,-138 1234.5,-157"/>
<text text-anchor="middle" x="1183" y="-145" font-family="Helvetica,sans-Serif" font-size="10.00">ImVector::reserve</text>
</a>
</g>
</g>
<!-- Node11&#45;&gt;Node13 -->
<g id="edge12" class="edge">
<title>Node11&#45;&gt;Node13</title>
<path fill="none" stroke="#63b8ff" d="M1057.75,-147.5C1078,-147.5 1100.77,-147.5 1121.23,-147.5"/>
<polygon fill="#63b8ff" stroke="#63b8ff" points="1121.37,-151 1131.37,-147.5 1121.37,-144 1121.37,-151"/>
</g>
<!-- Node14&#45;&gt;Node12 -->
<g id="edge14" class="edge">
<title>Node14&#45;&gt;Node12</title>
<path fill="none" stroke="#63b8ff" d="M1046.02,-184.5C1062.94,-184.5 1082.59,-184.5 1101.59,-184.5"/>
<polygon fill="#63b8ff" stroke="#63b8ff" points="1101.76,-188 1111.76,-184.5 1101.76,-181 1101.76,-188"/>
</g>
<!-- Node14&#45;&gt;Node13 -->
<g id="edge15" class="edge">
<title>Node14&#45;&gt;Node13</title>
<path fill="none" stroke="#63b8ff" d="M1046.02,-175.07C1070.08,-170.19 1099.64,-164.2 1125.05,-159.05"/>
<polygon fill="#63b8ff" stroke="#63b8ff" points="1125.82,-162.46 1134.93,-157.04 1124.43,-155.6 1125.82,-162.46"/>
</g>
<!-- Node15&#45;&gt;Node11 -->
<g id="edge18" class="edge">
<title>Node15&#45;&gt;Node11</title>
<path fill="none" stroke="#63b8ff" d="M869.1,-147.5C888.38,-147.5 909.6,-147.5 929.15,-147.5"/>
<polygon fill="#63b8ff" stroke="#63b8ff" points="929.19,-151 939.19,-147.5 929.19,-144 929.19,-151"/>
</g>
<!-- Node17&#45;&gt;Node3 -->
<g id="edge22" class="edge">
<title>Node17&#45;&gt;Node3</title>
<path fill="none" stroke="#63b8ff" d="M267.07,-169.89C297.88,-159.87 346.3,-144.13 380.17,-133.12"/>
<polygon fill="#63b8ff" stroke="#63b8ff" points="381.32,-136.43 389.75,-130.01 379.16,-129.77 381.32,-136.43"/>
</g>
<!-- Node18 -->
<g id="node18" class="node">
<title>Node18</title>
<g id="a_node18"><a xlink:href="structImDrawList.html#aea9301cb99ebf4b27f5d3959017567c9" target="_top" xlink:title=" ">
<polygon fill="white" stroke="#666666" points="495,-263 345,-263 345,-244 495,-244 495,-263"/>
<text text-anchor="middle" x="420" y="-251" font-family="Helvetica,sans-Serif" font-size="10.00">ImDrawList::PathFillConvex</text>
</a>
</g>
</g>
<!-- Node17&#45;&gt;Node18 -->
<g id="edge21" class="edge">
<title>Node17&#45;&gt;Node18</title>
<path fill="none" stroke="#63b8ff" d="M252.97,-189.09C273.38,-201.38 310.72,-222.62 345,-235.5 350.55,-237.59 356.43,-239.49 362.34,-241.22"/>
<polygon fill="#63b8ff" stroke="#63b8ff" points="361.72,-244.68 372.29,-243.96 363.58,-237.93 361.72,-244.68"/>
</g>
<!-- Node19 -->
<g id="node19" class="node">
<title>Node19</title>
<g id="a_node19"><a xlink:href="structImDrawList.html#ae2be093563f1d20b8190b7c423113925" target="_top" xlink:title=" ">
<polygon fill="white" stroke="#666666" points="481,-226 359,-226 359,-207 481,-207 481,-226"/>
<text text-anchor="middle" x="420" y="-214" font-family="Helvetica,sans-Serif" font-size="10.00">ImDrawList::PrimRect</text>
</a>
</g>
</g>
<!-- Node17&#45;&gt;Node19 -->
<g id="edge23" class="edge">
<title>Node17&#45;&gt;Node19</title>
<path fill="none" stroke="#63b8ff" d="M284.24,-189.03C307.97,-193.86 336.99,-199.78 362.01,-204.88"/>
<polygon fill="#63b8ff" stroke="#63b8ff" points="361.6,-208.37 372.1,-206.94 363,-201.51 361.6,-208.37"/>
</g>
<!-- Node20 -->
<g id="node20" class="node">
<title>Node20</title>
<g id="a_node20"><a xlink:href="structImDrawList.html#a879aa38dbfb0344e3e023d65c002c7d7" target="_top" xlink:title=" ">
<polygon fill="white" stroke="#666666" points="490,-189 350,-189 350,-170 490,-170 490,-189"/>
<text text-anchor="middle" x="420" y="-177" font-family="Helvetica,sans-Serif" font-size="10.00">ImDrawList::PrimReserve</text>
</a>
</g>
</g>
<!-- Node17&#45;&gt;Node20 -->
<g id="edge24" class="edge">
<title>Node17&#45;&gt;Node20</title>
<path fill="none" stroke="#63b8ff" d="M309.23,-179.5C319.27,-179.5 329.62,-179.5 339.78,-179.5"/>
<polygon fill="#63b8ff" stroke="#63b8ff" points="339.86,-183 349.86,-179.5 339.86,-176 339.86,-183"/>
</g>
<!-- Node20&#45;&gt;Node14 -->
<g id="edge28" class="edge">
<title>Node20&#45;&gt;Node14</title>
<path fill="none" stroke="#63b8ff" d="M463.24,-189.05C473.72,-191.77 484.85,-194.97 495,-198.5 511.54,-204.25 513.87,-210.87 531,-214.5 680.71,-246.27 863,-214.95 948.63,-196.26"/>
<polygon fill="#63b8ff" stroke="#63b8ff" points="949.58,-199.63 958.59,-194.04 948.07,-192.8 949.58,-199.63"/>
</g>
<!-- Node21 -->
<g id="node21" class="node">
<title>Node21</title>
<g id="a_node21"><a xlink:href="structImDrawList.html#a7f2e315f147acd8b555d86d1557659cc" target="_top" xlink:title=" ">
<polygon fill="white" stroke="#666666" points="687,-205.5 531,-205.5 531,-175.5 687,-175.5 687,-205.5"/>
<text text-anchor="start" x="539" y="-193.5" font-family="Helvetica,sans-Serif" font-size="10.00">ImDrawList::_OnChangedVtx</text>
<text text-anchor="middle" x="609" y="-182.5" font-family="Helvetica,sans-Serif" font-size="10.00">Offset</text>
</a>
</g>
</g>
<!-- Node20&#45;&gt;Node21 -->
<g id="edge25" class="edge">
<title>Node20&#45;&gt;Node21</title>
<path fill="none" stroke="#63b8ff" d="M490.1,-183.56C500.09,-184.15 510.48,-184.76 520.76,-185.37"/>
<polygon fill="#63b8ff" stroke="#63b8ff" points="520.81,-188.88 531,-185.97 521.22,-181.89 520.81,-188.88"/>
</g>
<!-- Node22 -->
<g id="node22" class="node">
<title>Node22</title>
<g id="a_node22"><a xlink:href="structImDrawList.html#a846714bb0321c6f1f908767abc8559e6" target="_top" xlink:title=" ">
<polygon fill="white" stroke="#666666" points="876.5,-197 731.5,-197 731.5,-178 876.5,-178 876.5,-197"/>
<text text-anchor="middle" x="804" y="-185" font-family="Helvetica,sans-Serif" font-size="10.00">ImDrawList::AddDrawCmd</text>
</a>
</g>
</g>
<!-- Node21&#45;&gt;Node22 -->
<g id="edge26" class="edge">
<title>Node21&#45;&gt;Node22</title>
<path fill="none" stroke="#63b8ff" d="M687.11,-189.3C698.28,-189.13 709.82,-188.95 721.08,-188.77"/>
<polygon fill="#63b8ff" stroke="#63b8ff" points="721.39,-192.27 731.33,-188.61 721.28,-185.27 721.39,-192.27"/>
</g>
<!-- Node22&#45;&gt;Node11 -->
<g id="edge27" class="edge">
<title>Node22&#45;&gt;Node11</title>
<path fill="none" stroke="#63b8ff" d="M851.11,-177.92C878.37,-172.25 913.08,-165.04 941.86,-159.06"/>
<polygon fill="#63b8ff" stroke="#63b8ff" points="942.69,-162.46 951.77,-157 941.26,-155.61 942.69,-162.46"/>
</g>
</g>
</svg>
