<?xml version="1.0" encoding="UTF-8" standalone="no"?>
<!DOCTYPE svg PUBLIC "-//W3C//DTD SVG 1.1//EN"
 "http://www.w3.org/Graphics/SVG/1.1/DTD/svg11.dtd">
<!-- Generated by graphviz version 2.43.0 (0)
 -->
<!-- Title: ImGui::BeginCombo Pages: 1 -->
<svg width="916pt" height="1587pt"
 viewBox="0.00 0.00 916.00 1587.00" xmlns="http://www.w3.org/2000/svg" xmlns:xlink="http://www.w3.org/1999/xlink">
<g id="graph0" class="graph" transform="scale(1 1) rotate(0) translate(4 1583)">
<title>ImGui::BeginCombo</title>
<!-- Node1 -->
<g id="node1" class="node">
<title>Node1</title>
<g id="a_node1"><a xlink:title=" ">
<polygon fill="#999999" stroke="#666666" points="114,-411 0,-411 0,-392 114,-392 114,-411"/>
<text text-anchor="middle" x="57" y="-399" font-family="Helvetica,sans-Serif" font-size="10.00">ImGui::BeginCombo</text>
</a>
</g>
</g>
<!-- Node2 -->
<g id="node2" class="node">
<title>Node2</title>
<g id="a_node2"><a xlink:href="structImDrawList.html#a6b16ab764160b0251d2e7b3bd08c1ffc" target="_top" xlink:title=" ">
<polygon fill="white" stroke="#666666" points="313.5,-1482 168.5,-1482 168.5,-1463 313.5,-1463 313.5,-1482"/>
<text text-anchor="middle" x="241" y="-1470" font-family="Helvetica,sans-Serif" font-size="10.00">ImDrawList::AddRectFilled</text>
</a>
</g>
</g>
<!-- Node1&#45;&gt;Node2 -->
<g id="edge1" class="edge">
<title>Node1&#45;&gt;Node2</title>
<path fill="none" stroke="#63b8ff" d="M58.38,-411.17C62.24,-509.19 95.81,-1321.43 150,-1412.5 162.6,-1433.68 185.93,-1448.91 205.68,-1458.72"/>
<polygon fill="#63b8ff" stroke="#63b8ff" points="204.2,-1461.9 214.73,-1462.98 207.18,-1455.56 204.2,-1461.9"/>
</g>
<!-- Node21 -->
<g id="node7" class="node">
<title>Node21</title>
<g id="a_node7"><a xlink:href="namespaceImGui.html#a6ecb51142fcb72cd19ff002c3a7d8e25" target="_top" xlink:title=" ">
<polygon fill="white" stroke="#666666" points="313,-868 169,-868 169,-849 313,-849 313,-868"/>
<text text-anchor="middle" x="241" y="-856" font-family="Helvetica,sans-Serif" font-size="10.00">ImGui::BeginComboPopup</text>
</a>
</g>
</g>
<!-- Node1&#45;&gt;Node21 -->
<g id="edge6" class="edge">
<title>Node1&#45;&gt;Node21</title>
<path fill="none" stroke="#63b8ff" d="M61.8,-411.05C84.37,-467.73 200.88,-760.27 232.23,-838.98"/>
<polygon fill="#63b8ff" stroke="#63b8ff" points="229.11,-840.62 236.07,-848.62 235.62,-838.03 229.11,-840.62"/>
</g>
<!-- Node408 -->
<g id="node9" class="node">
<title>Node408</title>
<g id="a_node9"><a xlink:href="structImGuiNextWindowData.html#a9543431fafe3d0627fdecc5fa839487c" target="_top" xlink:title=" ">
<polygon fill="white" stroke="#666666" points="739.5,-797.5 608.5,-797.5 608.5,-767.5 739.5,-767.5 739.5,-797.5"/>
<text text-anchor="start" x="616.5" y="-785.5" font-family="Helvetica,sans-Serif" font-size="10.00">ImGuiNextWindowData</text>
<text text-anchor="middle" x="674" y="-774.5" font-family="Helvetica,sans-Serif" font-size="10.00">::ClearFlags</text>
</a>
</g>
</g>
<!-- Node1&#45;&gt;Node408 -->
<g id="edge53" class="edge">
<title>Node1&#45;&gt;Node408</title>
<path fill="none" stroke="#63b8ff" d="M65.08,-411.15C79.04,-429.35 112.07,-468.54 150,-486.5 232.94,-525.77 492.81,-479.94 559,-543.5 623.83,-605.75 541.47,-670.3 595,-742.5 600.98,-750.57 609.06,-757.14 617.77,-762.44"/>
<polygon fill="#63b8ff" stroke="#63b8ff" points="616.17,-765.56 626.62,-767.33 619.56,-759.43 616.17,-765.56"/>
</g>
<!-- Node84 -->
<g id="node11" class="node">
<title>Node84</title>
<g id="a_node11"><a xlink:href="imgui_8cpp.html#ab6659b5d67f7a3369e099ce890e12223" target="_top" xlink:title=" ">
<polygon fill="white" stroke="#666666" points="882.5,-468 814.5,-468 814.5,-449 882.5,-449 882.5,-468"/>
<text text-anchor="middle" x="848.5" y="-456" font-family="Helvetica,sans-Serif" font-size="10.00">ImHashStr</text>
</a>
</g>
</g>
<!-- Node1&#45;&gt;Node84 -->
<g id="edge58" class="edge">
<title>Node1&#45;&gt;Node84</title>
<path fill="none" stroke="#63b8ff" d="M114.16,-401.04C169.55,-400.75 256.62,-400.7 332,-402.5 432.96,-404.91 458.46,-403.05 559,-412.5 645.73,-420.65 667.08,-426.12 753,-440.5 769.76,-443.3 788.12,-446.72 804.16,-449.82"/>
<polygon fill="#63b8ff" stroke="#63b8ff" points="803.84,-453.33 814.33,-451.8 805.18,-446.46 803.84,-453.33"/>
</g>
<!-- Node34 -->
<g id="node15" class="node">
<title>Node34</title>
<g id="a_node15"><a xlink:href="imgui__internal_8h.html#a7667efd95147d0422f140917c71a9226" target="_top" xlink:title=" ">
<polygon fill="white" stroke="#666666" points="699,-1252 649,-1252 649,-1233 699,-1233 699,-1252"/>
<text text-anchor="middle" x="674" y="-1240" font-family="Helvetica,sans-Serif" font-size="10.00">ImMax</text>
</a>
</g>
</g>
<!-- Node1&#45;&gt;Node34 -->
<g id="edge59" class="edge">
<title>Node1&#45;&gt;Node34</title>
<path fill="none" stroke="#63b8ff" d="M58.45,-411.2C62.62,-498.75 95.39,-1150.51 150,-1215.5 268.37,-1356.35 379.93,-1321.77 559,-1279.5 576.41,-1275.39 578.2,-1267.66 595,-1261.5 608.97,-1256.38 624.86,-1252.22 638.63,-1249.12"/>
<polygon fill="#63b8ff" stroke="#63b8ff" points="639.65,-1252.48 648.69,-1246.95 638.17,-1245.64 639.65,-1252.48"/>
</g>
<!-- Node501 -->
<g id="node24" class="node">
<title>Node501</title>
<g id="a_node24"><a xlink:href="namespaceImGui.html#a0e351145d0936e79948094166757712e" target="_top" xlink:title=" ">
<polygon fill="white" stroke="#666666" points="521.5,-440 405.5,-440 405.5,-421 521.5,-421 521.5,-440"/>
<text text-anchor="middle" x="463.5" y="-428" font-family="Helvetica,sans-Serif" font-size="10.00">ImGui::IsPopupOpen</text>
</a>
</g>
</g>
<!-- Node1&#45;&gt;Node501 -->
<g id="edge60" class="edge">
<title>Node1&#45;&gt;Node501</title>
<path fill="none" stroke="#63b8ff" d="M75.33,-411.08C93.36,-420.45 122.71,-434.09 150,-439.5 233.38,-456.04 331.71,-448.97 395.48,-440.99"/>
<polygon fill="#63b8ff" stroke="#63b8ff" points="395.94,-444.46 405.41,-439.71 395.04,-437.52 395.94,-444.46"/>
</g>
<!-- Node390 -->
<g id="node25" class="node">
<title>Node390</title>
<g id="a_node25"><a xlink:href="structImGuiWindow.html#afe084e59f7cd4da393ae30f0b4410b16" target="_top" xlink:title=" ">
<polygon fill="#fff0f0" stroke="red" points="733,-468 615,-468 615,-449 733,-449 733,-468"/>
<text text-anchor="middle" x="674" y="-456" font-family="Helvetica,sans-Serif" font-size="10.00">ImGuiWindow::GetID</text>
</a>
</g>
</g>
<!-- Node1&#45;&gt;Node390 -->
<g id="edge57" class="edge">
<title>Node1&#45;&gt;Node390</title>
<path fill="none" stroke="#63b8ff" d="M69.24,-411.19C85.68,-424.69 117.85,-448.63 150,-458.5 311.16,-508 513.68,-485.69 612.77,-469.7"/>
<polygon fill="#63b8ff" stroke="#63b8ff" points="613.6,-473.11 622.9,-468.03 612.46,-466.21 613.6,-473.11"/>
</g>
<!-- Node315 -->
<g id="node30" class="node">
<title>Node315</title>
<g id="a_node30"><a xlink:href="namespaceImGui.html#a65a4f18b1bc8ce0f351687922089f374" target="_top" xlink:title=" ">
<polygon fill="#fff0f0" stroke="red" points="527.5,-1408 399.5,-1408 399.5,-1389 527.5,-1389 527.5,-1408"/>
<text text-anchor="middle" x="463.5" y="-1396" font-family="Helvetica,sans-Serif" font-size="10.00">ImGui::ButtonBehavior</text>
</a>
</g>
</g>
<!-- Node1&#45;&gt;Node315 -->
<g id="edge38" class="edge">
<title>Node1&#45;&gt;Node315</title>
<path fill="none" stroke="#63b8ff" d="M58.18,-411.28C60.03,-508.75 77.3,-1303.07 150,-1374.5 182.66,-1406.59 307.44,-1406.86 389.11,-1403.28"/>
<polygon fill="#63b8ff" stroke="#63b8ff" points="389.51,-1406.76 399.34,-1402.8 389.18,-1399.77 389.51,-1406.76"/>
</g>
<!-- Node120 -->
<g id="node32" class="node">
<title>Node120</title>
<g id="a_node32"><a xlink:href="namespaceImGui.html#ac452417b5004ca16a814a72cff153526" target="_top" xlink:title=" ">
<polygon fill="white" stroke="#666666" points="746,-1289 602,-1289 602,-1270 746,-1270 746,-1289"/>
<text text-anchor="middle" x="674" y="-1277" font-family="Helvetica,sans-Serif" font-size="10.00">ImGui::GetCurrentWindow</text>
</a>
</g>
</g>
<!-- Node1&#45;&gt;Node120 -->
<g id="edge55" class="edge">
<title>Node1&#45;&gt;Node120</title>
<path fill="none" stroke="#63b8ff" d="M58.31,-411.15C61.29,-502.5 86.47,-1213.28 150,-1279.5 276.24,-1411.07 379.4,-1342.93 559,-1311.5 575.76,-1308.57 578.71,-1303.41 595,-1298.5 603.15,-1296.04 611.86,-1293.68 620.38,-1291.5"/>
<polygon fill="#63b8ff" stroke="#63b8ff" points="621.41,-1294.85 630.27,-1289.03 619.72,-1288.06 621.41,-1294.85"/>
</g>
<!-- Node507 -->
<g id="node38" class="node">
<title>Node507</title>
<g id="a_node38"><a xlink:href="namespaceImGui.html#ab3b3ba92ebd8bca4a552dd93321a1994" target="_top" xlink:title=" ">
<polygon fill="#fff0f0" stroke="red" points="303,-1206 179,-1206 179,-1187 303,-1187 303,-1206"/>
<text text-anchor="middle" x="241" y="-1194" font-family="Helvetica,sans-Serif" font-size="10.00">ImGui::CalcItemWidth</text>
</a>
</g>
</g>
<!-- Node1&#45;&gt;Node507 -->
<g id="edge50" class="edge">
<title>Node1&#45;&gt;Node507</title>
<path fill="none" stroke="#63b8ff" d="M58.54,-411.08C62.77,-484.62 92.15,-960.38 150,-1090.5 166.28,-1127.11 199.28,-1160.8 220.47,-1179.98"/>
<polygon fill="#63b8ff" stroke="#63b8ff" points="218.41,-1182.82 228.23,-1186.81 223.04,-1177.57 218.41,-1182.82"/>
</g>
<!-- Node124 -->
<g id="node39" class="node">
<title>Node124</title>
<g id="a_node39"><a xlink:href="namespaceImGui.html#a848b9db6cc4a186751c0ecebcaadc33b" target="_top" xlink:title=" ">
<polygon fill="#fff0f0" stroke="red" points="297.5,-354 184.5,-354 184.5,-335 297.5,-335 297.5,-354"/>
<text text-anchor="middle" x="241" y="-342" font-family="Helvetica,sans-Serif" font-size="10.00">ImGui::CalcTextSize</text>
</a>
</g>
</g>
<!-- Node1&#45;&gt;Node124 -->
<g id="edge52" class="edge">
<title>Node1&#45;&gt;Node124</title>
<path fill="none" stroke="#63b8ff" d="M82.8,-391.97C101.21,-385.05 127,-375.68 150,-368.5 163.29,-364.35 177.81,-360.28 191.24,-356.71"/>
<polygon fill="#63b8ff" stroke="#63b8ff" points="192.47,-360 201.26,-354.07 190.69,-353.23 192.47,-360"/>
</g>
<!-- Node260 -->
<g id="node40" class="node">
<title>Node260</title>
<g id="a_node40"><a xlink:href="namespaceImGui.html#a0de2d9bd347d9866511eb8d014e62556" target="_top" xlink:title=" ">
<polygon fill="#fff0f0" stroke="red" points="520.5,-260 406.5,-260 406.5,-241 520.5,-241 520.5,-260"/>
<text text-anchor="middle" x="463.5" y="-248" font-family="Helvetica,sans-Serif" font-size="10.00">ImGui::GetColorU32</text>
</a>
</g>
</g>
<!-- Node1&#45;&gt;Node260 -->
<g id="edge54" class="edge">
<title>Node1&#45;&gt;Node260</title>
<path fill="none" stroke="#63b8ff" d="M66.89,-391.75C82.21,-375.56 115.3,-343.27 150,-326.5 224.57,-290.47 251.61,-306.41 332,-286.5 361.61,-279.17 394.73,-270.02 420.2,-262.78"/>
<polygon fill="#63b8ff" stroke="#63b8ff" points="421.26,-266.12 429.91,-260 419.33,-259.39 421.26,-266.12"/>
</g>
<!-- Node274 -->
<g id="node41" class="node">
<title>Node274</title>
<g id="a_node41"><a xlink:href="namespaceImGui.html#ae560f17cf3262017cee888d1eb77f294" target="_top" xlink:title=" ">
<polygon fill="white" stroke="#666666" points="307,-167 175,-167 175,-148 307,-148 307,-167"/>
<text text-anchor="middle" x="241" y="-155" font-family="Helvetica,sans-Serif" font-size="10.00">ImGui::GetFrameHeight</text>
</a>
</g>
</g>
<!-- Node1&#45;&gt;Node274 -->
<g id="edge56" class="edge">
<title>Node1&#45;&gt;Node274</title>
<path fill="none" stroke="#63b8ff" d="M58.77,-391.93C62.15,-356.85 78.82,-234.34 150,-175.5 154.56,-171.73 159.7,-168.67 165.14,-166.2"/>
<polygon fill="#63b8ff" stroke="#63b8ff" points="166.48,-169.44 174.55,-162.58 163.96,-162.91 166.48,-169.44"/>
</g>
<!-- Node239 -->
<g id="node42" class="node">
<title>Node239</title>
<g id="a_node42"><a xlink:href="namespaceImGui.html#a0c2ccafc8d403c02a6590ac21157b9ac" target="_top" xlink:title=" ">
<polygon fill="#fff0f0" stroke="red" points="287.5,-130 194.5,-130 194.5,-111 287.5,-111 287.5,-130"/>
<text text-anchor="middle" x="241" y="-118" font-family="Helvetica,sans-Serif" font-size="10.00">ImGui::ItemAdd</text>
</a>
</g>
</g>
<!-- Node1&#45;&gt;Node239 -->
<g id="edge61" class="edge">
<title>Node1&#45;&gt;Node239</title>
<path fill="none" stroke="#63b8ff" d="M58.17,-391.77C59.43,-353.03 69.52,-208.5 150,-138.5 159.58,-130.17 171.92,-125.28 184.37,-122.49"/>
<polygon fill="#63b8ff" stroke="#63b8ff" points="185.11,-125.92 194.33,-120.69 183.86,-119.03 185.11,-125.92"/>
</g>
<!-- Node257 -->
<g id="node43" class="node">
<title>Node257</title>
<g id="a_node43"><a xlink:href="namespaceImGui.html#a4b5818a652d943ea54e0cec9fb3943d7" target="_top" xlink:title=" ">
<polygon fill="#fff0f0" stroke="red" points="288.5,-1081 193.5,-1081 193.5,-1062 288.5,-1062 288.5,-1081"/>
<text text-anchor="middle" x="241" y="-1069" font-family="Helvetica,sans-Serif" font-size="10.00">ImGui::ItemSize</text>
</a>
</g>
</g>
<!-- Node1&#45;&gt;Node257 -->
<g id="edge62" class="edge">
<title>Node1&#45;&gt;Node257</title>
<path fill="none" stroke="#63b8ff" d="M58.98,-411.11C64.23,-461.02 91.1,-695.3 150,-877.5 171.72,-944.7 210.86,-1019.15 229.53,-1052.97"/>
<polygon fill="#63b8ff" stroke="#63b8ff" points="226.5,-1054.72 234.43,-1061.75 232.61,-1051.31 226.5,-1054.72"/>
</g>
<!-- Node326 -->
<g id="node44" class="node">
<title>Node326</title>
<g id="a_node44"><a xlink:href="namespaceImGui.html#a66bc1e61bff5f2170bcd2d7d071eaa22" target="_top" xlink:title=" ">
<polygon fill="white" stroke="#666666" points="332,-93 150,-93 150,-74 332,-74 332,-93"/>
<text text-anchor="middle" x="241" y="-81" font-family="Helvetica,sans-Serif" font-size="10.00">ImGui::LogSetNextTextDecoration</text>
</a>
</g>
</g>
<!-- Node1&#45;&gt;Node326 -->
<g id="edge64" class="edge">
<title>Node1&#45;&gt;Node326</title>
<path fill="none" stroke="#63b8ff" d="M57.7,-391.89C56.96,-350.15 59.9,-182.99 150,-101.5 151.14,-100.46 152.33,-99.48 153.56,-98.55"/>
<polygon fill="#63b8ff" stroke="#63b8ff" points="155.57,-101.41 162.13,-93.09 151.81,-95.51 155.57,-101.41"/>
</g>
<!-- Node509 -->
<g id="node45" class="node">
<title>Node509</title>
<g id="a_node45"><a xlink:href="namespaceImGui.html#ac1570338b44e1f1311055db7ae41c47b" target="_top" xlink:title=" ">
<polygon fill="#fff0f0" stroke="red" points="300.5,-430 181.5,-430 181.5,-411 300.5,-411 300.5,-430"/>
<text text-anchor="middle" x="241" y="-418" font-family="Helvetica,sans-Serif" font-size="10.00">ImGui::OpenPopupEx</text>
</a>
</g>
</g>
<!-- Node1&#45;&gt;Node509 -->
<g id="edge65" class="edge">
<title>Node1&#45;&gt;Node509</title>
<path fill="none" stroke="#63b8ff" d="M114.09,-407.36C132.15,-409.24 152.38,-411.35 171.24,-413.32"/>
<polygon fill="#63b8ff" stroke="#63b8ff" points="170.95,-416.81 181.26,-414.37 171.68,-409.85 170.95,-416.81"/>
</g>
<!-- Node462 -->
<g id="node46" class="node">
<title>Node462</title>
<g id="a_node46"><a xlink:href="namespaceImGui.html#a7ec12551caa737505087c80e38b94937" target="_top" xlink:title=" ">
<polygon fill="#fff0f0" stroke="red" points="298.5,-56 183.5,-56 183.5,-37 298.5,-37 298.5,-56"/>
<text text-anchor="middle" x="241" y="-44" font-family="Helvetica,sans-Serif" font-size="10.00">ImGui::RenderArrow</text>
</a>
</g>
</g>
<!-- Node1&#45;&gt;Node462 -->
<g id="edge67" class="edge">
<title>Node1&#45;&gt;Node462</title>
<path fill="none" stroke="#63b8ff" d="M59.25,-391.98C65.97,-342.13 99.45,-111.67 150,-64.5 156.6,-58.34 164.69,-54.02 173.29,-51.04"/>
<polygon fill="#63b8ff" stroke="#63b8ff" points="174.51,-54.33 183.15,-48.21 172.58,-47.6 174.51,-54.33"/>
</g>
<!-- Node510 -->
<g id="node47" class="node">
<title>Node510</title>
<g id="a_node47"><a xlink:href="namespaceImGui.html#adc76239c2006e66f8dab7638529a763d" target="_top" xlink:title=" ">
<polygon fill="#fff0f0" stroke="red" points="315.5,-278 166.5,-278 166.5,-259 315.5,-259 315.5,-278"/>
<text text-anchor="middle" x="241" y="-266" font-family="Helvetica,sans-Serif" font-size="10.00">ImGui::RenderFrameBorder</text>
</a>
</g>
</g>
<!-- Node1&#45;&gt;Node510 -->
<g id="edge68" class="edge">
<title>Node1&#45;&gt;Node510</title>
<path fill="none" stroke="#63b8ff" d="M63.28,-391.94C75.55,-370.63 108.18,-319.03 150,-292.5 157.17,-287.96 165.17,-284.27 173.38,-281.27"/>
<polygon fill="#63b8ff" stroke="#63b8ff" points="174.67,-284.53 183.06,-278.07 172.47,-277.89 174.67,-284.53"/>
</g>
<!-- Node325 -->
<g id="node48" class="node">
<title>Node325</title>
<g id="a_node48"><a xlink:href="namespaceImGui.html#a2722dcfe26c7f6e8cd522102ef5b7df2" target="_top" xlink:title=" ">
<polygon fill="#fff0f0" stroke="red" points="309.5,-241 172.5,-241 172.5,-222 309.5,-222 309.5,-241"/>
<text text-anchor="middle" x="241" y="-229" font-family="Helvetica,sans-Serif" font-size="10.00">ImGui::RenderNavCursor</text>
</a>
</g>
</g>
<!-- Node1&#45;&gt;Node325 -->
<g id="edge70" class="edge">
<title>Node1&#45;&gt;Node325</title>
<path fill="none" stroke="#63b8ff" d="M60.83,-391.76C69.3,-364.41 97.23,-286.54 150,-249.5 153.95,-246.73 158.22,-244.36 162.69,-242.34"/>
<polygon fill="#63b8ff" stroke="#63b8ff" points="164.05,-245.56 172.09,-238.66 161.5,-239.05 164.05,-245.56"/>
</g>
<!-- Node259 -->
<g id="node49" class="node">
<title>Node259</title>
<g id="a_node49"><a xlink:href="namespaceImGui.html#a9971ce57f2a288ac3a12df886c5550d1" target="_top" xlink:title=" ">
<polygon fill="#fff0f0" stroke="red" points="294.5,-204 187.5,-204 187.5,-185 294.5,-185 294.5,-204"/>
<text text-anchor="middle" x="241" y="-192" font-family="Helvetica,sans-Serif" font-size="10.00">ImGui::RenderText</text>
</a>
</g>
</g>
<!-- Node1&#45;&gt;Node259 -->
<g id="edge72" class="edge">
<title>Node1&#45;&gt;Node259</title>
<path fill="none" stroke="#63b8ff" d="M59.63,-391.76C65.43,-360.23 88.19,-260.23 150,-212.5 157.95,-206.36 167.43,-202.16 177.22,-199.3"/>
<polygon fill="#63b8ff" stroke="#63b8ff" points="178.19,-202.67 187.06,-196.88 176.51,-195.87 178.19,-202.67"/>
</g>
<!-- Node465 -->
<g id="node50" class="node">
<title>Node465</title>
<g id="a_node50"><a xlink:href="namespaceImGui.html#ab362eafae794c7364a6b96ea06f38eb9" target="_top" xlink:title=" ">
<polygon fill="#fff0f0" stroke="red" points="312.5,-19 169.5,-19 169.5,0 312.5,0 312.5,-19"/>
<text text-anchor="middle" x="241" y="-7" font-family="Helvetica,sans-Serif" font-size="10.00">ImGui::RenderTextClipped</text>
</a>
</g>
</g>
<!-- Node1&#45;&gt;Node465 -->
<g id="edge74" class="edge">
<title>Node1&#45;&gt;Node465</title>
<path fill="none" stroke="#63b8ff" d="M59.01,-391.66C64.72,-337.94 94.69,-80.44 150,-27.5 153.11,-24.53 156.56,-21.98 160.25,-19.8"/>
<polygon fill="#63b8ff" stroke="#63b8ff" points="161.83,-22.93 169.25,-15.36 158.73,-16.65 161.83,-22.93"/>
</g>
<!-- Node3 -->
<g id="node3" class="node">
<title>Node3</title>
<g id="a_node3"><a xlink:href="structImDrawList.html#aea9301cb99ebf4b27f5d3959017567c9" target="_top" xlink:title=" ">
<polygon fill="white" stroke="#666666" points="538.5,-1445 388.5,-1445 388.5,-1426 538.5,-1426 538.5,-1445"/>
<text text-anchor="middle" x="463.5" y="-1433" font-family="Helvetica,sans-Serif" font-size="10.00">ImDrawList::PathFillConvex</text>
</a>
</g>
</g>
<!-- Node2&#45;&gt;Node3 -->
<g id="edge2" class="edge">
<title>Node2&#45;&gt;Node3</title>
<path fill="none" stroke="#63b8ff" d="M298.78,-1462.97C328.25,-1458.03 364.43,-1451.96 395.28,-1446.78"/>
<polygon fill="#63b8ff" stroke="#63b8ff" points="396.24,-1450.17 405.53,-1445.06 395.08,-1443.26 396.24,-1450.17"/>
</g>
<!-- Node4 -->
<g id="node4" class="node">
<title>Node4</title>
<g id="a_node4"><a xlink:href="structImDrawList.html#a2251eb264ed8b17a253c409787375053" target="_top" xlink:title=" ">
<polygon fill="#fff0f0" stroke="red" points="524,-1556 403,-1556 403,-1537 524,-1537 524,-1556"/>
<text text-anchor="middle" x="463.5" y="-1544" font-family="Helvetica,sans-Serif" font-size="10.00">ImDrawList::PathRect</text>
</a>
</g>
</g>
<!-- Node2&#45;&gt;Node4 -->
<g id="edge3" class="edge">
<title>Node2&#45;&gt;Node4</title>
<path fill="none" stroke="#63b8ff" d="M259.85,-1482.01C283.82,-1494.42 328.02,-1515.99 368,-1528.5 375.96,-1530.99 384.42,-1533.2 392.86,-1535.13"/>
<polygon fill="#63b8ff" stroke="#63b8ff" points="392.24,-1538.58 402.75,-1537.28 393.72,-1531.73 392.24,-1538.58"/>
</g>
<!-- Node17 -->
<g id="node5" class="node">
<title>Node17</title>
<g id="a_node5"><a xlink:href="structImDrawList.html#ae2be093563f1d20b8190b7c423113925" target="_top" xlink:title=" ">
<polygon fill="white" stroke="#666666" points="524.5,-1519 402.5,-1519 402.5,-1500 524.5,-1500 524.5,-1519"/>
<text text-anchor="middle" x="463.5" y="-1507" font-family="Helvetica,sans-Serif" font-size="10.00">ImDrawList::PrimRect</text>
</a>
</g>
</g>
<!-- Node2&#45;&gt;Node17 -->
<g id="edge4" class="edge">
<title>Node2&#45;&gt;Node17</title>
<path fill="none" stroke="#63b8ff" d="M298.78,-1482.03C328.25,-1486.97 364.43,-1493.04 395.28,-1498.22"/>
<polygon fill="#63b8ff" stroke="#63b8ff" points="395.08,-1501.74 405.53,-1499.94 396.24,-1494.83 395.08,-1501.74"/>
</g>
<!-- Node18 -->
<g id="node6" class="node">
<title>Node18</title>
<g id="a_node6"><a xlink:href="structImDrawList.html#a879aa38dbfb0344e3e023d65c002c7d7" target="_top" xlink:title=" ">
<polygon fill="#fff0f0" stroke="red" points="533.5,-1482 393.5,-1482 393.5,-1463 533.5,-1463 533.5,-1482"/>
<text text-anchor="middle" x="463.5" y="-1470" font-family="Helvetica,sans-Serif" font-size="10.00">ImDrawList::PrimReserve</text>
</a>
</g>
</g>
<!-- Node2&#45;&gt;Node18 -->
<g id="edge5" class="edge">
<title>Node2&#45;&gt;Node18</title>
<path fill="none" stroke="#63b8ff" d="M313.59,-1472.5C335.73,-1472.5 360.25,-1472.5 382.89,-1472.5"/>
<polygon fill="#63b8ff" stroke="#63b8ff" points="383.15,-1476 393.15,-1472.5 383.15,-1469 383.15,-1476"/>
</g>
<!-- Node22 -->
<g id="node8" class="node">
<title>Node22</title>
<g id="a_node8"><a xlink:href="namespaceImGui.html#a581e58db0bc930bafa4a5d23093a2b99" target="_top" xlink:title=" ">
<polygon fill="#fff0f0" stroke="red" points="503.5,-906 423.5,-906 423.5,-887 503.5,-887 503.5,-906"/>
<text text-anchor="middle" x="463.5" y="-894" font-family="Helvetica,sans-Serif" font-size="10.00">ImGui::Begin</text>
</a>
</g>
</g>
<!-- Node21&#45;&gt;Node22 -->
<g id="edge7" class="edge">
<title>Node21&#45;&gt;Node22</title>
<path fill="none" stroke="#63b8ff" d="M297.36,-868.04C332.97,-874.18 378.83,-882.08 413.19,-888"/>
<polygon fill="#63b8ff" stroke="#63b8ff" points="413,-891.52 423.45,-889.77 414.19,-884.62 413,-891.52"/>
</g>
<!-- Node21&#45;&gt;Node408 -->
<g id="edge17" class="edge">
<title>Node21&#45;&gt;Node408</title>
<path fill="none" stroke="#63b8ff" d="M258.44,-848.91C281.87,-835.79 326.63,-812.71 368,-802.5 444.87,-783.54 535.73,-779.89 598.17,-780.14"/>
<polygon fill="#63b8ff" stroke="#63b8ff" points="598.3,-783.64 608.33,-780.21 598.35,-776.64 598.3,-783.64"/>
</g>
<!-- Node429 -->
<g id="node10" class="node">
<title>Node429</title>
<g id="a_node10"><a xlink:href="namespaceImGui.html#abca25f22c02e73d5eb2e9c72c4557813" target="_top" xlink:title=" ">
<polygon fill="#fff0f0" stroke="red" points="750.5,-868 597.5,-868 597.5,-849 750.5,-849 750.5,-868"/>
<text text-anchor="middle" x="674" y="-856" font-family="Helvetica,sans-Serif" font-size="10.00">ImGui::FindWindowByName</text>
</a>
</g>
</g>
<!-- Node21&#45;&gt;Node429 -->
<g id="edge21" class="edge">
<title>Node21&#45;&gt;Node429</title>
<path fill="none" stroke="#63b8ff" d="M313.17,-858.5C388.38,-858.5 506.99,-858.5 587.28,-858.5"/>
<polygon fill="#63b8ff" stroke="#63b8ff" points="587.37,-862 597.37,-858.5 587.37,-855 587.37,-862"/>
</g>
<!-- Node40 -->
<g id="node14" class="node">
<title>Node40</title>
<g id="a_node14"><a xlink:href="structImRect.html#afa75cb8491f20901c96166d17dcddac4" target="_top" xlink:title=" ">
<polygon fill="white" stroke="#666666" points="725.5,-944 622.5,-944 622.5,-925 725.5,-925 725.5,-944"/>
<text text-anchor="middle" x="674" y="-932" font-family="Helvetica,sans-Serif" font-size="10.00">ImRect::GetWidth</text>
</a>
</g>
</g>
<!-- Node21&#45;&gt;Node40 -->
<g id="edge25" class="edge">
<title>Node21&#45;&gt;Node40</title>
<path fill="none" stroke="#63b8ff" d="M258.02,-868.06C281.31,-881.4 326.29,-905.14 368,-915.5 450.91,-936.1 550.2,-938.3 612.46,-937.1"/>
<polygon fill="#63b8ff" stroke="#63b8ff" points="612.58,-940.6 622.5,-936.87 612.42,-933.6 612.58,-940.6"/>
</g>
<!-- Node21&#45;&gt;Node34 -->
<g id="edge28" class="edge">
<title>Node21&#45;&gt;Node34</title>
<path fill="none" stroke="#63b8ff" d="M247.99,-868.1C264.04,-892.95 310.72,-959.69 368,-991.5 443.74,-1033.56 498.29,-968.69 559,-1030.5 620.45,-1093.06 534.35,-1161.16 595,-1224.5 606.17,-1236.16 623.27,-1240.95 638.61,-1242.69"/>
<polygon fill="#63b8ff" stroke="#63b8ff" points="638.62,-1246.2 648.86,-1243.46 639.15,-1239.22 638.62,-1246.2"/>
</g>
<!-- Node497 -->
<g id="node16" class="node">
<title>Node497</title>
<g id="a_node16"><a xlink:href="imgui__widgets_8cpp.html#a295cb58de3f221694160b173529ca4d7" target="_top" xlink:title=" ">
<polygon fill="white" stroke="#666666" points="547.5,-630.5 379.5,-630.5 379.5,-600.5 547.5,-600.5 547.5,-630.5"/>
<text text-anchor="start" x="387.5" y="-618.5" font-family="Helvetica,sans-Serif" font-size="10.00">CalcMaxPopupHeightFromItem</text>
<text text-anchor="middle" x="463.5" y="-607.5" font-family="Helvetica,sans-Serif" font-size="10.00">Count</text>
</a>
</g>
</g>
<!-- Node21&#45;&gt;Node497 -->
<g id="edge15" class="edge">
<title>Node21&#45;&gt;Node497</title>
<path fill="none" stroke="#63b8ff" d="M244.6,-848.8C254.36,-814.38 292.15,-697.01 368,-639.5 369.81,-638.13 371.69,-636.84 373.62,-635.62"/>
<polygon fill="#63b8ff" stroke="#63b8ff" points="375.39,-638.64 382.44,-630.72 372,-632.52 375.39,-638.64"/>
</g>
<!-- Node498 -->
<g id="node17" class="node">
<title>Node498</title>
<g id="a_node17"><a xlink:href="namespaceImGui.html#aa306c009063e86091ed61d80d4d231f6" target="_top" xlink:title=" ">
<polygon fill="#fff0f0" stroke="red" points="542.5,-582.5 384.5,-582.5 384.5,-552.5 542.5,-552.5 542.5,-582.5"/>
<text text-anchor="start" x="392.5" y="-570.5" font-family="Helvetica,sans-Serif" font-size="10.00">ImGui::CalcWindowNextAuto</text>
<text text-anchor="middle" x="463.5" y="-559.5" font-family="Helvetica,sans-Serif" font-size="10.00">FitSize</text>
</a>
</g>
</g>
<!-- Node21&#45;&gt;Node498 -->
<g id="edge16" class="edge">
<title>Node21&#45;&gt;Node498</title>
<path fill="none" stroke="#63b8ff" d="M243.52,-848.93C250.2,-810.18 280.58,-663.54 368,-591.5 370.4,-589.52 372.95,-587.7 375.61,-586.03"/>
<polygon fill="#63b8ff" stroke="#63b8ff" points="377.35,-589.06 384.43,-581.17 373.98,-582.93 377.35,-589.06"/>
</g>
<!-- Node499 -->
<g id="node18" class="node">
<title>Node499</title>
<g id="a_node18"><a xlink:href="namespaceImGui.html#aa6a9b5696f2ea7eed7683425fc77b8f2" target="_top" xlink:title=" ">
<polygon fill="#fff0f0" stroke="red" points="513.5,-1218 413.5,-1218 413.5,-1199 513.5,-1199 513.5,-1218"/>
<text text-anchor="middle" x="463.5" y="-1206" font-family="Helvetica,sans-Serif" font-size="10.00">ImGui::EndPopup</text>
</a>
</g>
</g>
<!-- Node21&#45;&gt;Node499 -->
<g id="edge18" class="edge">
<title>Node21&#45;&gt;Node499</title>
<path fill="none" stroke="#63b8ff" d="M247.32,-868.39C262.34,-896.6 305.67,-980.16 332,-1053.5 353.27,-1112.75 321.98,-1147.54 368,-1190.5 377.63,-1199.49 390.3,-1204.65 403.22,-1207.48"/>
<polygon fill="#63b8ff" stroke="#63b8ff" points="402.65,-1210.94 413.1,-1209.22 403.86,-1204.04 402.65,-1210.94"/>
</g>
<!-- Node421 -->
<g id="node19" class="node">
<title>Node421</title>
<g id="a_node19"><a xlink:href="namespaceImGui.html#ab4a820eead6cd418d7be66e142bf3478" target="_top" xlink:title=" ">
<polygon fill="#fff0f0" stroke="red" points="538.5,-1106.5 388.5,-1106.5 388.5,-1076.5 538.5,-1076.5 538.5,-1106.5"/>
<text text-anchor="start" x="396.5" y="-1094.5" font-family="Helvetica,sans-Serif" font-size="10.00">ImGui::FindBestWindowPos</text>
<text text-anchor="middle" x="463.5" y="-1083.5" font-family="Helvetica,sans-Serif" font-size="10.00">ForPopupEx</text>
</a>
</g>
</g>
<!-- Node21&#45;&gt;Node421 -->
<g id="edge19" class="edge">
<title>Node21&#45;&gt;Node421</title>
<path fill="none" stroke="#63b8ff" d="M244.88,-868.22C255.33,-901.67 294.51,-1012.96 368,-1067.5 371.44,-1070.05 375.12,-1072.34 378.97,-1074.38"/>
<polygon fill="#63b8ff" stroke="#63b8ff" points="377.66,-1077.63 388.2,-1078.72 380.64,-1071.29 377.66,-1077.63"/>
</g>
<!-- Node444 -->
<g id="node20" class="node">
<title>Node444</title>
<g id="a_node20"><a xlink:href="structImRect.html#a59d9751bc7be6745dddf5b83b9155669" target="_top" xlink:title=" ">
<polygon fill="white" stroke="#666666" points="506.5,-1181 420.5,-1181 420.5,-1162 506.5,-1162 506.5,-1181"/>
<text text-anchor="middle" x="463.5" y="-1169" font-family="Helvetica,sans-Serif" font-size="10.00">ImRect::GetBL</text>
</a>
</g>
</g>
<!-- Node21&#45;&gt;Node444 -->
<g id="edge22" class="edge">
<title>Node21&#45;&gt;Node444</title>
<path fill="none" stroke="#63b8ff" d="M246.8,-868.11C260.77,-896.24 302.3,-981.05 332,-1053.5 349.91,-1097.21 332.08,-1122.83 368,-1153.5 379.66,-1163.46 395.11,-1168.59 410.14,-1171.07"/>
<polygon fill="#63b8ff" stroke="#63b8ff" points="410.05,-1174.59 420.42,-1172.4 410.95,-1167.65 410.05,-1174.59"/>
</g>
<!-- Node422 -->
<g id="node21" class="node">
<title>Node422</title>
<g id="a_node21"><a xlink:href="namespaceImGui.html#a7204f5be9c8656e604ab88aa9158513c" target="_top" xlink:title=" ">
<polygon fill="#fff0f0" stroke="red" points="559,-982 368,-982 368,-963 559,-963 559,-982"/>
<text text-anchor="middle" x="463.5" y="-970" font-family="Helvetica,sans-Serif" font-size="10.00">ImGui::GetPopupAllowedExtentRect</text>
</a>
</g>
</g>
<!-- Node21&#45;&gt;Node422 -->
<g id="edge23" class="edge">
<title>Node21&#45;&gt;Node422</title>
<path fill="none" stroke="#63b8ff" d="M252.59,-868.2C273.22,-886.6 320.94,-926.66 368,-948.5 378.21,-953.24 389.5,-957.14 400.61,-960.31"/>
<polygon fill="#63b8ff" stroke="#63b8ff" points="399.73,-963.7 410.3,-962.91 401.55,-956.94 399.73,-963.7"/>
</g>
<!-- Node50 -->
<g id="node22" class="node">
<title>Node50</title>
<g id="a_node22"><a xlink:href="imgui_8cpp.html#a75ccaf7d676b1f567ba888ae42ac3809" target="_top" xlink:title=" ">
<polygon fill="white" stroke="#666666" points="509.5,-1144 417.5,-1144 417.5,-1125 509.5,-1125 509.5,-1144"/>
<text text-anchor="middle" x="463.5" y="-1132" font-family="Helvetica,sans-Serif" font-size="10.00">ImFormatString</text>
</a>
</g>
</g>
<!-- Node21&#45;&gt;Node50 -->
<g id="edge26" class="edge">
<title>Node21&#45;&gt;Node50</title>
<path fill="none" stroke="#63b8ff" d="M246.47,-868.21C267.59,-914.05 356.91,-1106.95 368,-1115.5 379.2,-1124.13 393.3,-1129.14 407.17,-1131.97"/>
<polygon fill="#63b8ff" stroke="#63b8ff" points="406.73,-1135.44 417.18,-1133.66 407.9,-1128.54 406.73,-1135.44"/>
</g>
<!-- Node53 -->
<g id="node23" class="node">
<title>Node53</title>
<g id="a_node23"><a xlink:href="imgui__internal_8h.html#a3cc719adb48b1aed8ab1196ecea7e828" target="_top" xlink:title=" ">
<polygon fill="white" stroke="#666666" points="723,-733 625,-733 625,-714 723,-714 723,-733"/>
<text text-anchor="middle" x="674" y="-721" font-family="Helvetica,sans-Serif" font-size="10.00">ImIsPowerOfTwo</text>
</a>
</g>
</g>
<!-- Node21&#45;&gt;Node53 -->
<g id="edge27" class="edge">
<title>Node21&#45;&gt;Node53</title>
<path fill="none" stroke="#63b8ff" d="M253.27,-848.85C274.3,-831.41 321.6,-794.74 368,-776.5 449.97,-744.28 551.98,-731.59 614.78,-726.63"/>
<polygon fill="#63b8ff" stroke="#63b8ff" points="615.19,-730.11 624.9,-725.88 614.66,-723.13 615.19,-730.11"/>
</g>
<!-- Node21&#45;&gt;Node501 -->
<g id="edge29" class="edge">
<title>Node21&#45;&gt;Node501</title>
<path fill="none" stroke="#63b8ff" d="M244.6,-848.98C255.64,-809.51 301.09,-655.5 368,-543.5 390.33,-506.12 424.75,-468.48 445.31,-447.46"/>
<polygon fill="#63b8ff" stroke="#63b8ff" points="447.9,-449.82 452.46,-440.25 442.93,-444.89 447.9,-449.82"/>
</g>
<!-- Node502 -->
<g id="node26" class="node">
<title>Node502</title>
<g id="a_node26"><a xlink:href="namespaceImGui.html#a14116e57d81e326adef2a702e65781d4" target="_top" xlink:title=" ">
<polygon fill="#fff0f0" stroke="red" points="518.5,-1058 408.5,-1058 408.5,-1039 518.5,-1039 518.5,-1058"/>
<text text-anchor="middle" x="463.5" y="-1046" font-family="Helvetica,sans-Serif" font-size="10.00">ImGui::PopStyleVar</text>
</a>
</g>
</g>
<!-- Node21&#45;&gt;Node502 -->
<g id="edge33" class="edge">
<title>Node21&#45;&gt;Node502</title>
<path fill="none" stroke="#63b8ff" d="M246.41,-868.18C260.03,-896.91 304.36,-982.34 368,-1024.5 377.18,-1030.58 387.8,-1035.13 398.54,-1038.52"/>
<polygon fill="#63b8ff" stroke="#63b8ff" points="397.82,-1041.95 408.39,-1041.32 399.73,-1035.22 397.82,-1041.95"/>
</g>
<!-- Node505 -->
<g id="node27" class="node">
<title>Node505</title>
<g id="a_node27"><a xlink:href="namespaceImGui.html#acf4ee3d6294b5e93fc1c79353d2a2748" target="_top" xlink:title=" ">
<polygon fill="#fff0f0" stroke="red" points="524.5,-830 402.5,-830 402.5,-811 524.5,-811 524.5,-830"/>
<text text-anchor="middle" x="463.5" y="-818" font-family="Helvetica,sans-Serif" font-size="10.00">ImGui::PushStyleVarX</text>
</a>
</g>
</g>
<!-- Node21&#45;&gt;Node505 -->
<g id="edge34" class="edge">
<title>Node21&#45;&gt;Node505</title>
<path fill="none" stroke="#63b8ff" d="M297.36,-848.96C327.63,-843.74 365.32,-837.25 397.05,-831.78"/>
<polygon fill="#63b8ff" stroke="#63b8ff" points="397.86,-835.19 407.12,-830.04 396.67,-828.29 397.86,-835.19"/>
</g>
<!-- Node52 -->
<g id="node28" class="node">
<title>Node52</title>
<g id="a_node28"><a xlink:href="namespaceImGui.html#afbccd31113430670b5ab2bf0d6f509bf" target="_top" xlink:title=" ">
<polygon fill="white" stroke="#666666" points="537,-716 390,-716 390,-697 537,-697 537,-716"/>
<text text-anchor="middle" x="463.5" y="-704" font-family="Helvetica,sans-Serif" font-size="10.00">ImGui::SetNextWindowPos</text>
</a>
</g>
</g>
<!-- Node21&#45;&gt;Node52 -->
<g id="edge35" class="edge">
<title>Node21&#45;&gt;Node52</title>
<path fill="none" stroke="#63b8ff" d="M248.65,-848.72C265.57,-824.64 312.83,-762.16 368,-730.5 376.17,-725.81 385.26,-722.03 394.47,-718.97"/>
<polygon fill="#63b8ff" stroke="#63b8ff" points="395.54,-722.31 404.09,-716.05 393.51,-715.61 395.54,-722.31"/>
</g>
<!-- Node506 -->
<g id="node29" class="node">
<title>Node506</title>
<g id="a_node29"><a xlink:href="namespaceImGui.html#a157d5bcc362951e77eb3236864e879ce" target="_top" xlink:title=" ">
<polygon fill="white" stroke="#666666" points="538.5,-678.5 388.5,-678.5 388.5,-648.5 538.5,-648.5 538.5,-678.5"/>
<text text-anchor="start" x="396.5" y="-666.5" font-family="Helvetica,sans-Serif" font-size="10.00">ImGui::SetNextWindowSize</text>
<text text-anchor="middle" x="463.5" y="-655.5" font-family="Helvetica,sans-Serif" font-size="10.00">Constraints</text>
</a>
</g>
</g>
<!-- Node21&#45;&gt;Node506 -->
<g id="edge37" class="edge">
<title>Node21&#45;&gt;Node506</title>
<path fill="none" stroke="#63b8ff" d="M246.36,-848.62C259.85,-819.28 303.84,-732 368,-688.5 371.48,-686.14 375.16,-684.01 378.99,-682.07"/>
<polygon fill="#63b8ff" stroke="#63b8ff" points="380.48,-685.24 388.13,-677.92 377.58,-678.87 380.48,-685.24"/>
</g>
<!-- Node22&#45;&gt;Node408 -->
<g id="edge8" class="edge">
<title>Node22&#45;&gt;Node408</title>
<path fill="none" stroke="#63b8ff" d="M481.92,-886.98C515.8,-868.45 591.21,-827.22 636.51,-802.45"/>
<polygon fill="#63b8ff" stroke="#63b8ff" points="638.32,-805.45 645.42,-797.58 634.96,-799.31 638.32,-805.45"/>
</g>
<!-- Node22&#45;&gt;Node429 -->
<g id="edge9" class="edge">
<title>Node22&#45;&gt;Node429</title>
<path fill="none" stroke="#63b8ff" d="M503.72,-889.35C533.78,-883.87 575.85,-876.21 610.54,-869.88"/>
<polygon fill="#63b8ff" stroke="#63b8ff" points="611.36,-873.29 620.57,-868.06 610.11,-866.41 611.36,-873.29"/>
</g>
<!-- Node59 -->
<g id="node12" class="node">
<title>Node59</title>
<g id="a_node12"><a xlink:href="namespaceImGui.html#a27aa6f2f3aa11778c6d023b1b223f262" target="_top" xlink:title=" ">
<polygon fill="#fff0f0" stroke="red" points="733.5,-1215 614.5,-1215 614.5,-1196 733.5,-1196 733.5,-1215"/>
<text text-anchor="middle" x="674" y="-1203" font-family="Helvetica,sans-Serif" font-size="10.00">ImGui::FocusWindow</text>
</a>
</g>
</g>
<!-- Node22&#45;&gt;Node59 -->
<g id="edge11" class="edge">
<title>Node22&#45;&gt;Node59</title>
<path fill="none" stroke="#63b8ff" d="M487.8,-906.02C508.77,-915.59 539.25,-932.13 559,-954.5 622.8,-1026.75 656.77,-1140.67 668.36,-1185.97"/>
<polygon fill="#63b8ff" stroke="#63b8ff" points="664.97,-1186.86 670.77,-1195.72 671.77,-1185.17 664.97,-1186.86"/>
</g>
<!-- Node22&#45;&gt;Node40 -->
<g id="edge13" class="edge">
<title>Node22&#45;&gt;Node40</title>
<path fill="none" stroke="#63b8ff" d="M503.72,-903.65C534.21,-909.2 577.06,-917.01 612.02,-923.39"/>
<polygon fill="#63b8ff" stroke="#63b8ff" points="611.65,-926.88 622.12,-925.23 612.91,-919.99 611.65,-926.88"/>
</g>
<!-- Node22&#45;&gt;Node34 -->
<g id="edge14" class="edge">
<title>Node22&#45;&gt;Node34</title>
<path fill="none" stroke="#63b8ff" d="M492.47,-906C514.31,-914.96 543.47,-930.61 559,-954.5 624.98,-1056 513.52,-1134.96 595,-1224.5 605.87,-1236.44 622.94,-1241.25 638.34,-1242.94"/>
<polygon fill="#63b8ff" stroke="#63b8ff" points="638.42,-1246.46 648.64,-1243.67 638.91,-1239.48 638.42,-1246.46"/>
</g>
<!-- Node429&#45;&gt;Node84 -->
<g id="edge10" class="edge">
<title>Node429&#45;&gt;Node84</title>
<path fill="none" stroke="#63b8ff" d="M697.42,-848.98C715.06,-840.37 738.93,-826.05 753,-806.5 829.65,-700.03 844.13,-534.67 846.87,-478.19"/>
<polygon fill="#63b8ff" stroke="#63b8ff" points="850.37,-478.25 847.28,-468.12 843.37,-477.97 850.37,-478.25"/>
</g>
<!-- Node66 -->
<g id="node13" class="node">
<title>Node66</title>
<g id="a_node13"><a xlink:href="namespaceImGui.html#a17ff60ad1e2669130ac38a04d16eb354" target="_top" xlink:title=" ">
<polygon fill="#fff0f0" stroke="red" points="908,-1313 789,-1313 789,-1294 908,-1294 908,-1313"/>
<text text-anchor="middle" x="848.5" y="-1301" font-family="Helvetica,sans-Serif" font-size="10.00">ImGui::ClearActiveID</text>
</a>
</g>
</g>
<!-- Node59&#45;&gt;Node66 -->
<g id="edge12" class="edge">
<title>Node59&#45;&gt;Node66</title>
<path fill="none" stroke="#63b8ff" d="M728.61,-1215.11C737.01,-1217.58 745.41,-1220.67 753,-1224.5 784.29,-1240.3 814.25,-1268.25 831.75,-1286.32"/>
<polygon fill="#63b8ff" stroke="#63b8ff" points="829.47,-1288.99 838.88,-1293.84 834.55,-1284.18 829.47,-1288.99"/>
</g>
<!-- Node421&#45;&gt;Node34 -->
<g id="edge20" class="edge">
<title>Node421&#45;&gt;Node34</title>
<path fill="none" stroke="#63b8ff" d="M538.52,-1103.15C546.03,-1106.56 553.06,-1110.92 559,-1116.5 595.89,-1151.13 557.57,-1190.46 595,-1224.5 606.78,-1235.21 623.64,-1239.94 638.67,-1241.9"/>
<polygon fill="#63b8ff" stroke="#63b8ff" points="638.41,-1245.39 648.7,-1242.85 639.07,-1238.42 638.41,-1245.39"/>
</g>
<!-- Node422&#45;&gt;Node40 -->
<g id="edge24" class="edge">
<title>Node422&#45;&gt;Node40</title>
<path fill="none" stroke="#63b8ff" d="M516.84,-962.96C545.89,-957.67 582.15,-951.06 612.42,-945.54"/>
<polygon fill="#63b8ff" stroke="#63b8ff" points="613.22,-948.95 622.43,-943.72 611.97,-942.07 613.22,-948.95"/>
</g>
<!-- Node501&#45;&gt;Node501 -->
<g id="edge32" class="edge">
<title>Node501&#45;&gt;Node501</title>
<path fill="none" stroke="#63b8ff" d="M431.13,-440.08C415.39,-448.73 426.18,-458 463.5,-458 490.33,-458 503.45,-453.21 502.86,-447.31"/>
<polygon fill="#63b8ff" stroke="#63b8ff" points="505.34,-444.84 495.87,-440.08 500.3,-449.7 505.34,-444.84"/>
</g>
<!-- Node501&#45;&gt;Node390 -->
<g id="edge30" class="edge">
<title>Node501&#45;&gt;Node390</title>
<path fill="none" stroke="#63b8ff" d="M521.75,-438.19C547.4,-441.63 577.86,-445.72 604.7,-449.33"/>
<polygon fill="#63b8ff" stroke="#63b8ff" points="604.41,-452.82 614.79,-450.68 605.35,-445.88 604.41,-452.82"/>
</g>
<!-- Node390&#45;&gt;Node84 -->
<g id="edge31" class="edge">
<title>Node390&#45;&gt;Node84</title>
<path fill="none" stroke="#63b8ff" d="M733.4,-458.5C756.58,-458.5 782.77,-458.5 804.21,-458.5"/>
<polygon fill="#63b8ff" stroke="#63b8ff" points="804.32,-462 814.32,-458.5 804.32,-455 804.32,-462"/>
</g>
<!-- Node52&#45;&gt;Node53 -->
<g id="edge36" class="edge">
<title>Node52&#45;&gt;Node53</title>
<path fill="none" stroke="#63b8ff" d="M537.13,-712.42C562.53,-714.49 590.7,-716.79 614.77,-718.75"/>
<polygon fill="#63b8ff" stroke="#63b8ff" points="614.56,-722.25 624.81,-719.57 615.13,-715.27 614.56,-722.25"/>
</g>
<!-- Node315&#45;&gt;Node59 -->
<g id="edge41" class="edge">
<title>Node315&#45;&gt;Node59</title>
<path fill="none" stroke="#63b8ff" d="M468.82,-1388.75C482.53,-1358.98 528.18,-1268.58 595,-1224.5 598.15,-1222.42 601.51,-1220.57 605,-1218.92"/>
<polygon fill="#63b8ff" stroke="#63b8ff" points="606.56,-1222.06 614.47,-1215.01 603.89,-1215.59 606.56,-1222.06"/>
</g>
<!-- Node315&#45;&gt;Node66 -->
<g id="edge40" class="edge">
<title>Node315&#45;&gt;Node66</title>
<path fill="none" stroke="#63b8ff" d="M527.72,-1406.52C587.87,-1411.57 679.79,-1412.5 753,-1383.5 786.42,-1370.26 816.51,-1340.17 833.35,-1320.9"/>
<polygon fill="#63b8ff" stroke="#63b8ff" points="836.13,-1323.04 839.93,-1313.15 830.79,-1318.51 836.13,-1323.04"/>
</g>
<!-- Node315&#45;&gt;Node34 -->
<g id="edge44" class="edge">
<title>Node315&#45;&gt;Node34</title>
<path fill="none" stroke="#63b8ff" d="M485.68,-1388.85C506.58,-1378.44 538.33,-1360.13 559,-1336.5 583.35,-1308.67 566.28,-1284.78 595,-1261.5 607.2,-1251.61 623.77,-1246.75 638.49,-1244.4"/>
<polygon fill="#63b8ff" stroke="#63b8ff" points="639.32,-1247.82 648.81,-1243.1 638.45,-1240.88 639.32,-1247.82"/>
</g>
<!-- Node316 -->
<g id="node31" class="node">
<title>Node316</title>
<g id="a_node31"><a xlink:href="namespaceImGui.html#ab9804506fa0fe8823f63eadb3043916f" target="_top" xlink:title=" ">
<polygon fill="white" stroke="#666666" points="753,-1374.5 595,-1374.5 595,-1344.5 753,-1344.5 753,-1374.5"/>
<text text-anchor="start" x="603" y="-1362.5" font-family="Helvetica,sans-Serif" font-size="10.00">ImGui::CalcTypematicRepeat</text>
<text text-anchor="middle" x="674" y="-1351.5" font-family="Helvetica,sans-Serif" font-size="10.00">Amount</text>
</a>
</g>
</g>
<!-- Node315&#45;&gt;Node316 -->
<g id="edge39" class="edge">
<title>Node315&#45;&gt;Node316</title>
<path fill="none" stroke="#63b8ff" d="M515.5,-1388.96C536.39,-1385.05 561.18,-1380.42 584.83,-1375.99"/>
<polygon fill="#63b8ff" stroke="#63b8ff" points="585.7,-1379.39 594.88,-1374.11 584.41,-1372.51 585.7,-1379.39"/>
</g>
<!-- Node315&#45;&gt;Node120 -->
<g id="edge42" class="edge">
<title>Node315&#45;&gt;Node120</title>
<path fill="none" stroke="#63b8ff" d="M527.67,-1390.67C538.96,-1387.09 549.98,-1381.92 559,-1374.5 587.86,-1350.75 566.02,-1322.11 595,-1298.5 597.08,-1296.81 599.29,-1295.26 601.59,-1293.85"/>
<polygon fill="#63b8ff" stroke="#63b8ff" points="603.62,-1296.74 610.9,-1289.04 600.41,-1290.52 603.62,-1296.74"/>
</g>
<!-- Node317 -->
<g id="node33" class="node">
<title>Node317</title>
<g id="a_node33"><a xlink:href="namespaceImGui.html#a6d32d70d6beb45537b605508b78216c3" target="_top" xlink:title=" ">
<polygon fill="#fff0f0" stroke="red" points="729,-1326 619,-1326 619,-1307 729,-1307 729,-1326"/>
<text text-anchor="middle" x="674" y="-1314" font-family="Helvetica,sans-Serif" font-size="10.00">ImGui::GetKeyData</text>
</a>
</g>
</g>
<!-- Node315&#45;&gt;Node317 -->
<g id="edge43" class="edge">
<title>Node315&#45;&gt;Node317</title>
<path fill="none" stroke="#63b8ff" d="M524.05,-1388.93C536.14,-1385.49 548.38,-1380.82 559,-1374.5 579.27,-1362.43 574.67,-1347.47 595,-1335.5 599.46,-1332.87 604.28,-1330.61 609.24,-1328.65"/>
<polygon fill="#63b8ff" stroke="#63b8ff" points="610.64,-1331.87 618.93,-1325.27 608.33,-1325.26 610.64,-1331.87"/>
</g>
<!-- Node103 -->
<g id="node34" class="node">
<title>Node103</title>
<g id="a_node34"><a xlink:href="namespaceImGui.html#ac9a400eff3a9561d95e80486c52a660b" target="_top" xlink:title=" ">
<polygon fill="#fff0f0" stroke="red" points="736,-1579 612,-1579 612,-1560 736,-1560 736,-1579"/>
<text text-anchor="middle" x="674" y="-1567" font-family="Helvetica,sans-Serif" font-size="10.00">ImGui::IsItemHovered</text>
</a>
</g>
</g>
<!-- Node315&#45;&gt;Node103 -->
<g id="edge45" class="edge">
<title>Node315&#45;&gt;Node103</title>
<path fill="none" stroke="#63b8ff" d="M527.65,-1401.19C539.21,-1404.29 550.33,-1409.37 559,-1417.5 603.98,-1459.69 550.62,-1508.68 595,-1551.5 597.4,-1553.82 600.04,-1555.86 602.84,-1557.65"/>
<polygon fill="#63b8ff" stroke="#63b8ff" points="601.23,-1560.76 611.71,-1562.33 604.5,-1554.57 601.23,-1560.76"/>
</g>
<!-- Node318 -->
<g id="node35" class="node">
<title>Node318</title>
<g id="a_node35"><a xlink:href="namespaceImGui.html#a2d430db9485d0b3d86d51d5436225495" target="_top" xlink:title=" ">
<polygon fill="white" stroke="#666666" points="738,-1524 610,-1524 610,-1505 738,-1505 738,-1524"/>
<text text-anchor="middle" x="674" y="-1512" font-family="Helvetica,sans-Serif" font-size="10.00">ImGui::IsMouseClicked</text>
</a>
</g>
</g>
<!-- Node315&#45;&gt;Node318 -->
<g id="edge46" class="edge">
<title>Node315&#45;&gt;Node318</title>
<path fill="none" stroke="#63b8ff" d="M527.63,-1402.61C538.92,-1405.63 549.96,-1410.32 559,-1417.5 589.22,-1441.49 565.12,-1472.09 595,-1496.5 596.79,-1497.96 598.68,-1499.31 600.65,-1500.56"/>
<polygon fill="#63b8ff" stroke="#63b8ff" points="599.22,-1503.77 609.7,-1505.37 602.51,-1497.58 599.22,-1503.77"/>
</g>
<!-- Node283 -->
<g id="node36" class="node">
<title>Node283</title>
<g id="a_node36"><a xlink:href="namespaceImGui.html#aed7dae248aa865bf06c1d60c0e809537" target="_top" xlink:title=" ">
<polygon fill="#fff0f0" stroke="red" points="734,-1487 614,-1487 614,-1468 734,-1468 734,-1487"/>
<text text-anchor="middle" x="674" y="-1475" font-family="Helvetica,sans-Serif" font-size="10.00">ImGui::IsMouseDown</text>
</a>
</g>
</g>
<!-- Node315&#45;&gt;Node283 -->
<g id="edge48" class="edge">
<title>Node315&#45;&gt;Node283</title>
<path fill="none" stroke="#63b8ff" d="M527.65,-1405.13C538.58,-1407.94 549.47,-1411.91 559,-1417.5 580.21,-1429.93 573.97,-1446.77 595,-1459.5 598,-1461.32 601.17,-1462.95 604.45,-1464.42"/>
<polygon fill="#63b8ff" stroke="#63b8ff" points="603.32,-1467.74 613.9,-1468.14 605.88,-1461.23 603.32,-1467.74"/>
</g>
<!-- Node319 -->
<g id="node37" class="node">
<title>Node319</title>
<g id="a_node37"><a xlink:href="namespaceImGui.html#ae53a0c1818d2804e3b1331f0c1777434" target="_top" xlink:title=" ">
<polygon fill="#fff0f0" stroke="red" points="742.5,-1450 605.5,-1450 605.5,-1431 742.5,-1431 742.5,-1450"/>
<text text-anchor="middle" x="674" y="-1438" font-family="Helvetica,sans-Serif" font-size="10.00">ImGui::IsMouseReleased</text>
</a>
</g>
</g>
<!-- Node315&#45;&gt;Node319 -->
<g id="edge49" class="edge">
<title>Node315&#45;&gt;Node319</title>
<path fill="none" stroke="#63b8ff" d="M512.09,-1408.06C527.1,-1411.08 543.74,-1414.43 559,-1417.5 577.54,-1421.23 597.77,-1425.31 615.97,-1428.99"/>
<polygon fill="#63b8ff" stroke="#63b8ff" points="615.36,-1432.43 625.86,-1430.98 616.75,-1425.57 615.36,-1432.43"/>
</g>
<!-- Node318&#45;&gt;Node318 -->
<g id="edge47" class="edge">
<title>Node318&#45;&gt;Node318</title>
<path fill="none" stroke="#63b8ff" d="M647.18,-1524.08C634.13,-1532.73 643.07,-1542 674,-1542 694.78,-1542 705.63,-1537.82 706.56,-1532.45"/>
<polygon fill="#63b8ff" stroke="#63b8ff" points="709.36,-1530.35 700.82,-1524.08 703.59,-1534.31 709.36,-1530.35"/>
</g>
<!-- Node507&#45;&gt;Node34 -->
<g id="edge51" class="edge">
<title>Node507&#45;&gt;Node34</title>
<path fill="none" stroke="#63b8ff" d="M255.51,-1206.1C277.71,-1221.22 323.86,-1249.93 368,-1260.5 464.15,-1283.52 581.98,-1263.47 638.95,-1250.87"/>
<polygon fill="#63b8ff" stroke="#63b8ff" points="639.88,-1254.25 648.86,-1248.62 638.33,-1247.42 639.88,-1254.25"/>
</g>
<!-- Node257&#45;&gt;Node34 -->
<g id="edge63" class="edge">
<title>Node257&#45;&gt;Node34</title>
<path fill="none" stroke="#63b8ff" d="M250.41,-1081.06C266.59,-1099.56 303.04,-1141.68 332,-1178.5 348.71,-1199.74 344.2,-1214.71 368,-1227.5 413.86,-1252.15 568.9,-1247.8 638.58,-1244.45"/>
<polygon fill="#63b8ff" stroke="#63b8ff" points="638.8,-1247.94 648.61,-1243.94 638.44,-1240.95 638.8,-1247.94"/>
</g>
<!-- Node509&#45;&gt;Node501 -->
<g id="edge66" class="edge">
<title>Node509&#45;&gt;Node501</title>
<path fill="none" stroke="#63b8ff" d="M300.51,-423.15C329.63,-424.47 364.97,-426.08 395.2,-427.45"/>
<polygon fill="#63b8ff" stroke="#63b8ff" points="395.09,-430.95 405.24,-427.9 395.41,-423.95 395.09,-430.95"/>
</g>
<!-- Node510&#45;&gt;Node260 -->
<g id="edge69" class="edge">
<title>Node510&#45;&gt;Node260</title>
<path fill="none" stroke="#63b8ff" d="M315.73,-262.48C341.7,-260.36 370.71,-257.99 396.05,-255.92"/>
<polygon fill="#63b8ff" stroke="#63b8ff" points="396.61,-259.39 406.29,-255.09 396.04,-252.41 396.61,-259.39"/>
</g>
<!-- Node325&#45;&gt;Node260 -->
<g id="edge71" class="edge">
<title>Node325&#45;&gt;Node260</title>
<path fill="none" stroke="#63b8ff" d="M309.66,-237.33C337.16,-239.7 368.84,-242.43 396.2,-244.79"/>
<polygon fill="#63b8ff" stroke="#63b8ff" points="396.2,-248.3 406.46,-245.67 396.8,-241.33 396.2,-248.3"/>
</g>
<!-- Node259&#45;&gt;Node260 -->
<g id="edge73" class="edge">
<title>Node259&#45;&gt;Node260</title>
<path fill="none" stroke="#63b8ff" d="M293.57,-204.02C306.19,-206.57 319.62,-209.47 332,-212.5 362.65,-220.01 396.9,-230.05 422.61,-237.92"/>
<polygon fill="#63b8ff" stroke="#63b8ff" points="421.79,-241.33 432.37,-240.93 423.85,-234.64 421.79,-241.33"/>
</g>
</g>
</svg>
