<?xml version="1.0" encoding="UTF-8" standalone="no"?>
<!DOCTYPE svg PUBLIC "-//W3C//DTD SVG 1.1//EN"
 "http://www.w3.org/Graphics/SVG/1.1/DTD/svg11.dtd">
<!-- Generated by graphviz version 2.43.0 (0)
 -->
<!-- Title: mtgb::UTF8ToMulti Pages: 1 -->
<svg width="262pt" height="100pt"
 viewBox="0.00 0.00 262.00 100.00" xmlns="http://www.w3.org/2000/svg" xmlns:xlink="http://www.w3.org/1999/xlink">
<g id="graph0" class="graph" transform="scale(1 1) rotate(0) translate(4 96)">
<title>mtgb::UTF8ToMulti</title>
<!-- Node1 -->
<g id="node1" class="node">
<title>Node1</title>
<g id="a_node1"><a xlink:title=" ">
<polygon fill="#999999" stroke="#666666" points="109,-46 0,-46 0,-27 109,-27 109,-46"/>
<text text-anchor="middle" x="54.5" y="-34" font-family="Helvetica,sans-Serif" font-size="10.00">mtgb::UTF8ToMulti</text>
</a>
</g>
</g>
<!-- Node2 -->
<g id="node2" class="node">
<title>Node2</title>
<g id="a_node2"><a xlink:href="namespacemtgb.html#a91dcf894b121fab17af7182528469d05" target="_top" xlink:title=" ">
<polygon fill="white" stroke="#666666" points="254,-74 145,-74 145,-55 254,-55 254,-74"/>
<text text-anchor="middle" x="199.5" y="-62" font-family="Helvetica,sans-Serif" font-size="10.00">mtgb::UTF8ToWide</text>
</a>
</g>
</g>
<!-- Node1&#45;&gt;Node2 -->
<g id="edge1" class="edge">
<title>Node1&#45;&gt;Node2</title>
<path fill="none" stroke="#63b8ff" d="M104.31,-46.06C115.82,-48.31 128.2,-50.73 140.08,-53.06"/>
<polygon fill="#63b8ff" stroke="#63b8ff" points="139.42,-56.5 149.91,-54.99 140.77,-49.63 139.42,-56.5"/>
</g>
<!-- Node3 -->
<g id="node3" class="node">
<title>Node3</title>
<g id="a_node3"><a xlink:href="namespacemtgb.html#a08e91c468d83ddc1eb6ce734d3900d0f" target="_top" xlink:title=" ">
<polygon fill="white" stroke="#666666" points="253.5,-19 145.5,-19 145.5,0 253.5,0 253.5,-19"/>
<text text-anchor="middle" x="199.5" y="-7" font-family="Helvetica,sans-Serif" font-size="10.00">mtgb::WideToMulti</text>
</a>
</g>
</g>
<!-- Node1&#45;&gt;Node3 -->
<g id="edge3" class="edge">
<title>Node1&#45;&gt;Node3</title>
<path fill="none" stroke="#63b8ff" d="M105.92,-26.98C116.28,-25.02 127.28,-22.95 137.96,-20.93"/>
<polygon fill="#63b8ff" stroke="#63b8ff" points="138.88,-24.32 148.06,-19.02 137.58,-17.44 138.88,-24.32"/>
</g>
<!-- Node2&#45;&gt;Node2 -->
<g id="edge2" class="edge">
<title>Node2&#45;&gt;Node2</title>
<path fill="none" stroke="#63b8ff" d="M177.31,-74.08C166.51,-82.73 173.91,-92 199.5,-92 215.9,-92 224.82,-88.2 226.29,-83.19"/>
<polygon fill="#63b8ff" stroke="#63b8ff" points="229.32,-81.44 221.69,-74.08 223.07,-84.59 229.32,-81.44"/>
</g>
<!-- Node3&#45;&gt;Node3 -->
<g id="edge4" class="edge">
<title>Node3&#45;&gt;Node3</title>
<path fill="none" stroke="#63b8ff" d="M177.31,-19.08C166.51,-27.73 173.91,-37 199.5,-37 215.9,-37 224.82,-33.2 226.29,-28.19"/>
<polygon fill="#63b8ff" stroke="#63b8ff" points="229.32,-26.44 221.69,-19.08 223.07,-29.59 229.32,-26.44"/>
</g>
</g>
</svg>
