<?xml version="1.0" encoding="UTF-8" standalone="no"?>
<!DOCTYPE svg PUBLIC "-//W3C//DTD SVG 1.1//EN"
 "http://www.w3.org/Graphics/SVG/1.1/DTD/svg11.dtd">
<!-- Generated by graphviz version 2.43.0 (0)
 -->
<!-- Title: ImGui::GetID Pages: 1 -->
<svg width="1313pt" height="978pt"
 viewBox="0.00 0.00 1313.00 977.77" xmlns="http://www.w3.org/2000/svg" xmlns:xlink="http://www.w3.org/1999/xlink">
<g id="graph0" class="graph" transform="scale(1 1) rotate(0) translate(4 973.77)">
<title>ImGui::GetID</title>
<!-- Node1 -->
<g id="node1" class="node">
<title>Node1</title>
<g id="a_node1"><a xlink:title=" ">
<polygon fill="#999999" stroke="#666666" points="1305,-404 1225,-404 1225,-385 1305,-385 1305,-404"/>
<text text-anchor="middle" x="1265" y="-392" font-family="Helvetica,sans-Serif" font-size="10.00">ImGui::GetID</text>
</a>
</g>
</g>
<!-- Node2 -->
<g id="node2" class="node">
<title>Node2</title>
<g id="a_node2"><a xlink:href="namespaceImGui.html#a2f37c541760a39c189ebdd86c15b60d9" target="_top" xlink:title=" ">
<polygon fill="white" stroke="#666666" points="1160.5,-862 1044.5,-862 1044.5,-843 1160.5,-843 1160.5,-862"/>
<text text-anchor="middle" x="1102.5" y="-850" font-family="Helvetica,sans-Serif" font-size="10.00">ImGui::BeginListBox</text>
</a>
</g>
</g>
<!-- Node1&#45;&gt;Node2 -->
<g id="edge1" class="edge">
<title>Node1&#45;&gt;Node2</title>
<path fill="none" stroke="#63b8ff" d="M1262.77,-414.24C1257.84,-488 1237.35,-746.41 1189,-810.5 1177.05,-826.34 1157.51,-836.56 1140.13,-842.95"/>
<polygon fill="#63b8ff" stroke="#63b8ff" points="1266.28,-414.26 1263.43,-404.05 1259.29,-413.8 1266.28,-414.26"/>
</g>
<!-- Node3 -->
<g id="node3" class="node">
<title>Node3</title>
<g id="a_node3"><a xlink:href="imgui__demo_8cpp.html#acdabfa47af2ef5ba0a22b98a4368cc7d" target="_top" xlink:title=" ">
<polygon fill="white" stroke="#666666" points="959.5,-900 841.5,-900 841.5,-881 959.5,-881 959.5,-900"/>
<text text-anchor="middle" x="900.5" y="-888" font-family="Helvetica,sans-Serif" font-size="10.00">DemoWindowLayout</text>
</a>
</g>
</g>
<!-- Node1&#45;&gt;Node3 -->
<g id="edge58" class="edge">
<title>Node1&#45;&gt;Node3</title>
<path fill="none" stroke="#63b8ff" d="M1264,-414.58C1263.56,-496.99 1257.33,-807.86 1189,-870.5 1156.68,-900.13 1033.88,-898.56 959.62,-894.63"/>
<polygon fill="#63b8ff" stroke="#63b8ff" points="1267.5,-414.15 1264.03,-404.14 1260.5,-414.13 1267.5,-414.15"/>
</g>
<!-- Node8 -->
<g id="node8" class="node">
<title>Node8</title>
<g id="a_node8"><a xlink:href="namespaceImGui.html#a1024700da3902b084e0f37d4abecc723" target="_top" xlink:title=" ">
<polygon fill="white" stroke="#666666" points="1169.5,-719 1035.5,-719 1035.5,-700 1169.5,-700 1169.5,-719"/>
<text text-anchor="middle" x="1102.5" y="-707" font-family="Helvetica,sans-Serif" font-size="10.00">ImGui::BeginMultiSelect</text>
</a>
</g>
</g>
<!-- Node1&#45;&gt;Node8 -->
<g id="edge8" class="edge">
<title>Node1&#45;&gt;Node8</title>
<path fill="none" stroke="#63b8ff" d="M1255.81,-413.81C1242.56,-444.73 1215.23,-507.12 1189,-558.5 1161.19,-612.97 1123.72,-676 1109.4,-699.77"/>
<polygon fill="#63b8ff" stroke="#63b8ff" points="1259.19,-414.82 1259.89,-404.25 1252.75,-412.08 1259.19,-414.82"/>
</g>
<!-- Node13 -->
<g id="node13" class="node">
<title>Node13</title>
<g id="a_node13"><a xlink:href="namespaceImGui.html#a7ab019bafef9850ab97375a6b52670d3" target="_top" xlink:title=" ">
<polygon fill="white" stroke="#666666" points="1155,-550 1050,-550 1050,-531 1155,-531 1155,-550"/>
<text text-anchor="middle" x="1102.5" y="-538" font-family="Helvetica,sans-Serif" font-size="10.00">ImGui::BeginTable</text>
</a>
</g>
</g>
<!-- Node1&#45;&gt;Node13 -->
<g id="edge16" class="edge">
<title>Node1&#45;&gt;Node13</title>
<path fill="none" stroke="#63b8ff" d="M1245.77,-411.08C1212.14,-441.68 1141.3,-506.12 1114.28,-530.69"/>
<polygon fill="#63b8ff" stroke="#63b8ff" points="1248.43,-413.4 1253.47,-404.08 1243.72,-408.22 1248.43,-413.4"/>
</g>
<!-- Node30 -->
<g id="node30" class="node">
<title>Node30</title>
<g id="a_node30"><a xlink:href="namespaceImGui.html#a4a29111ecf7a42189ce11cb734e5f4a2" target="_top" xlink:title=" ">
<polygon fill="white" stroke="#666666" points="1181.5,-67.5 1023.5,-67.5 1023.5,-37.5 1181.5,-37.5 1181.5,-67.5"/>
<text text-anchor="start" x="1031.5" y="-55.5" font-family="Helvetica,sans-Serif" font-size="10.00">ImGui::DockNodeTreeUpdate</text>
<text text-anchor="middle" x="1102.5" y="-44.5" font-family="Helvetica,sans-Serif" font-size="10.00">Splitter</text>
</a>
</g>
</g>
<!-- Node1&#45;&gt;Node30 -->
<g id="edge59" class="edge">
<title>Node1&#45;&gt;Node30</title>
<path fill="none" stroke="#63b8ff" d="M1264.49,-374.78C1264.74,-322.9 1258.64,-180.69 1189,-94.5 1179.44,-82.67 1165.71,-73.91 1152.04,-67.55"/>
<polygon fill="#63b8ff" stroke="#63b8ff" points="1260.99,-374.89 1264.35,-384.94 1267.98,-374.99 1260.99,-374.89"/>
</g>
<!-- Node38 -->
<g id="node38" class="node">
<title>Node38</title>
<g id="a_node38"><a xlink:href="namespaceImGui.html#a29b58b0887b599185dfe677eb3ef6cdc" target="_top" xlink:title=" ">
<polygon fill="white" stroke="#666666" points="567.5,-116 394.5,-116 394.5,-97 567.5,-97 567.5,-116"/>
<text text-anchor="middle" x="481" y="-104" font-family="Helvetica,sans-Serif" font-size="10.00">ImGui::DockSpaceOverViewport</text>
</a>
</g>
</g>
<!-- Node1&#45;&gt;Node38 -->
<g id="edge76" class="edge">
<title>Node1&#45;&gt;Node38</title>
<path fill="none" stroke="#63b8ff" d="M1261.57,-374.55C1255.95,-337.53 1238.51,-258.25 1189,-217.5 1095.53,-140.56 734.68,-116.44 567.69,-109.3"/>
<polygon fill="#63b8ff" stroke="#63b8ff" points="1258.12,-375.17 1262.96,-384.6 1265.05,-374.21 1258.12,-375.17"/>
</g>
<!-- Node39 -->
<g id="node39" class="node">
<title>Node39</title>
<g id="a_node39"><a xlink:href="imgui__demo_8cpp.html#ae18f1dc3d5298b314080b35f6c20d781" target="_top" xlink:title=" ">
<polygon fill="white" stroke="#666666" points="560,-227 402,-227 402,-208 560,-208 560,-227"/>
<text text-anchor="middle" x="481" y="-215" font-family="Helvetica,sans-Serif" font-size="10.00">ShowExampleAppDockSpace</text>
</a>
</g>
</g>
<!-- Node1&#45;&gt;Node39 -->
<g id="edge80" class="edge">
<title>Node1&#45;&gt;Node39</title>
<path fill="none" stroke="#63b8ff" d="M1239.3,-379.88C1191.25,-352.21 1081.02,-292.56 980,-265.5 835.27,-226.73 659.47,-218.41 560.19,-217.11"/>
<polygon fill="#63b8ff" stroke="#63b8ff" points="1237.66,-382.97 1248.06,-384.96 1241.17,-376.91 1237.66,-382.97"/>
</g>
<!-- Node40 -->
<g id="node40" class="node">
<title>Node40</title>
<g id="a_node40"><a xlink:href="imgui__demo_8cpp.html#aa9e4f5130b74080ea2d97916a91b3b3c" target="_top" xlink:title=" ">
<polygon fill="white" stroke="#666666" points="561,-190 401,-190 401,-171 561,-171 561,-190"/>
<text text-anchor="middle" x="481" y="-178" font-family="Helvetica,sans-Serif" font-size="10.00">ShowExampleAppDocuments</text>
</a>
</g>
</g>
<!-- Node1&#45;&gt;Node40 -->
<g id="edge81" class="edge">
<title>Node1&#45;&gt;Node40</title>
<path fill="none" stroke="#63b8ff" d="M1257.56,-375.37C1247.44,-348.39 1225.15,-299.63 1189,-274.5 1088.8,-204.83 723.71,-186.72 561.08,-182.07"/>
<polygon fill="#63b8ff" stroke="#63b8ff" points="1254.29,-376.62 1260.95,-384.86 1260.88,-374.27 1254.29,-376.62"/>
</g>
<!-- Node41 -->
<g id="node41" class="node">
<title>Node41</title>
<g id="a_node41"><a xlink:href="namespaceImGui.html#a4b4e1fb0487e571a4a04fb5b2274189e" target="_top" xlink:title=" ">
<polygon fill="white" stroke="#666666" points="1187.5,-19 1017.5,-19 1017.5,0 1187.5,0 1187.5,-19"/>
<text text-anchor="middle" x="1102.5" y="-7" font-family="Helvetica,sans-Serif" font-size="10.00">ImGui::DockNodeUpdateTabBar</text>
</a>
</g>
</g>
<!-- Node1&#45;&gt;Node41 -->
<g id="edge74" class="edge">
<title>Node1&#45;&gt;Node41</title>
<path fill="none" stroke="#63b8ff" d="M1262.71,-374.6C1257.83,-305.67 1238.23,-78.55 1189,-28.5 1185.27,-24.71 1180.96,-21.59 1176.3,-19.05"/>
<polygon fill="#63b8ff" stroke="#63b8ff" points="1259.24,-375.17 1263.41,-384.91 1266.22,-374.7 1259.24,-375.17"/>
</g>
<!-- Node42 -->
<g id="node42" class="node">
<title>Node42</title>
<g id="a_node42"><a xlink:href="namespaceImZoomSlider.html#a4329f2d0ce76f938a34e0d84ebe4c2db" target="_top" xlink:title=" ">
<polygon fill="white" stroke="#666666" points="1183,-123 1022,-123 1022,-104 1183,-104 1183,-123"/>
<text text-anchor="middle" x="1102.5" y="-111" font-family="Helvetica,sans-Serif" font-size="10.00">ImZoomSlider::ImZoomSlider</text>
</a>
</g>
</g>
<!-- Node1&#45;&gt;Node42 -->
<g id="edge77" class="edge">
<title>Node1&#45;&gt;Node42</title>
<path fill="none" stroke="#63b8ff" d="M1264.31,-374.72C1263.95,-326.88 1256.14,-203.95 1189,-137.5 1182.64,-131.21 1174.78,-126.54 1166.42,-123.07"/>
<polygon fill="#63b8ff" stroke="#63b8ff" points="1260.81,-374.94 1264.28,-384.95 1267.81,-374.96 1260.81,-374.94"/>
</g>
<!-- Node43 -->
<g id="node43" class="node">
<title>Node43</title>
<g id="a_node43"><a xlink:href="namespaceImGui.html#ac297462e33309d0540fa459bccdc9304" target="_top" xlink:title=" ">
<polygon fill="white" stroke="#666666" points="343,-956 197,-956 197,-937 343,-937 343,-956"/>
<text text-anchor="middle" x="270" y="-944" font-family="Helvetica,sans-Serif" font-size="10.00">ImGui::ShowAboutWindow</text>
</a>
</g>
</g>
<!-- Node1&#45;&gt;Node43 -->
<g id="edge78" class="edge">
<title>Node1&#45;&gt;Node43</title>
<path fill="none" stroke="#63b8ff" d="M1263.91,-414.38C1263.12,-498.74 1255.72,-826.13 1189,-898.5 1100.07,-994.96 1032.7,-965.5 901.5,-965.5 901.5,-965.5 901.5,-965.5 693.5,-965.5 570.33,-965.5 427.17,-957.34 343.1,-951.72"/>
<polygon fill="#63b8ff" stroke="#63b8ff" points="1267.41,-414.16 1263.98,-404.14 1260.41,-414.11 1267.41,-414.16"/>
</g>
<!-- Node44 -->
<g id="node44" class="node">
<title>Node44</title>
<g id="a_node44"><a xlink:href="namespaceImGui.html#a17eb2b71b2aff472d9d56c838586b73b" target="_top" xlink:title=" ">
<polygon fill="white" stroke="#666666" points="1189,-802 1016,-802 1016,-783 1189,-783 1189,-802"/>
<text text-anchor="middle" x="1102.5" y="-790" font-family="Helvetica,sans-Serif" font-size="10.00">ImGui::TableAngledHeadersRow</text>
</a>
</g>
</g>
<!-- Node1&#45;&gt;Node44 -->
<g id="edge82" class="edge">
<title>Node1&#45;&gt;Node44</title>
<path fill="none" stroke="#63b8ff" d="M1264.11,-414.14C1263.51,-468.5 1255.7,-623.71 1189,-727.5 1172.67,-752.91 1142.77,-772.19 1123.01,-782.92"/>
<polygon fill="#63b8ff" stroke="#63b8ff" points="1267.61,-414.14 1264.14,-404.13 1260.61,-414.12 1267.61,-414.14"/>
</g>
<!-- Node2&#45;&gt;Node3 -->
<g id="edge2" class="edge">
<title>Node2&#45;&gt;Node3</title>
<path fill="none" stroke="#63b8ff" d="M1041.4,-863.92C1012.79,-869.36 978.96,-875.78 951.73,-880.96"/>
<polygon fill="#63b8ff" stroke="#63b8ff" points="1042.12,-867.35 1051.29,-862.04 1040.81,-860.47 1042.12,-867.35"/>
</g>
<!-- Node5 -->
<g id="node5" class="node">
<title>Node5</title>
<g id="a_node5"><a xlink:href="imgui__demo_8cpp.html#ac618a758c39bda31b916279690ade07b" target="_top" xlink:title=" ">
<polygon fill="white" stroke="#666666" points="780,-862 609,-862 609,-843 780,-843 780,-862"/>
<text text-anchor="middle" x="694.5" y="-850" font-family="Helvetica,sans-Serif" font-size="10.00">DemoWindowWidgetsListBoxes</text>
</a>
</g>
</g>
<!-- Node2&#45;&gt;Node5 -->
<g id="edge4" class="edge">
<title>Node2&#45;&gt;Node5</title>
<path fill="none" stroke="#63b8ff" d="M1033.78,-852.5C964.09,-852.5 855.36,-852.5 780.06,-852.5"/>
<polygon fill="#63b8ff" stroke="#63b8ff" points="1034.19,-856 1044.19,-852.5 1034.19,-849 1034.19,-856"/>
</g>
<!-- Node7 -->
<g id="node7" class="node">
<title>Node7</title>
<g id="a_node7"><a xlink:href="namespaceImGui.html#a94c78076bd40ff548ecd124f95af8710" target="_top" xlink:title=" ">
<polygon fill="white" stroke="#666666" points="944.5,-937 856.5,-937 856.5,-918 944.5,-918 944.5,-937"/>
<text text-anchor="middle" x="900.5" y="-925" font-family="Helvetica,sans-Serif" font-size="10.00">ImGui::ListBox</text>
</a>
</g>
</g>
<!-- Node2&#45;&gt;Node7 -->
<g id="edge7" class="edge">
<title>Node2&#45;&gt;Node7</title>
<path fill="none" stroke="#63b8ff" d="M1074.49,-866.8C1050.28,-879.17 1013.5,-896.85 980,-908.5 968.74,-912.41 956.31,-915.82 944.72,-918.63"/>
<polygon fill="#63b8ff" stroke="#63b8ff" points="1076.16,-869.88 1083.43,-862.18 1072.94,-863.66 1076.16,-869.88"/>
</g>
<!-- Node4 -->
<g id="node4" class="node">
<title>Node4</title>
<g id="a_node4"><a xlink:href="namespaceImGui.html#af95643a0ce4893b9e57c12991922fb18" target="_top" xlink:title=" ">
<polygon fill="white" stroke="#666666" points="146,-615 0,-615 0,-596 146,-596 146,-615"/>
<text text-anchor="middle" x="73" y="-603" font-family="Helvetica,sans-Serif" font-size="10.00">ImGui::ShowDemoWindow</text>
</a>
</g>
</g>
<!-- Node3&#45;&gt;Node4 -->
<g id="edge3" class="edge">
<title>Node3&#45;&gt;Node4</title>
<path fill="none" stroke="#63b8ff" d="M831.21,-899.94C693.88,-915.08 380.48,-929.82 182,-784.5 119.62,-738.83 86.28,-645.24 76.84,-615.09"/>
<polygon fill="#63b8ff" stroke="#63b8ff" points="831.64,-903.41 841.18,-898.8 830.85,-896.45 831.64,-903.41"/>
</g>
<!-- Node6 -->
<g id="node6" class="node">
<title>Node6</title>
<g id="a_node6"><a xlink:href="imgui__demo_8cpp.html#a9a639caab781642cbc4f4a23bfbd11cd" target="_top" xlink:title=" ">
<polygon fill="white" stroke="#666666" points="332.5,-672 207.5,-672 207.5,-653 332.5,-653 332.5,-672"/>
<text text-anchor="middle" x="270" y="-660" font-family="Helvetica,sans-Serif" font-size="10.00">DemoWindowWidgets</text>
</a>
</g>
</g>
<!-- Node5&#45;&gt;Node6 -->
<g id="edge5" class="edge">
<title>Node5&#45;&gt;Node6</title>
<path fill="none" stroke="#63b8ff" d="M663.32,-838.66C604.63,-811.78 470.94,-750.75 358,-700.5 336.01,-690.72 310.81,-679.73 293.21,-672.1"/>
<polygon fill="#63b8ff" stroke="#63b8ff" points="662.19,-841.99 672.74,-842.97 665.1,-835.63 662.19,-841.99"/>
</g>
<!-- Node6&#45;&gt;Node4 -->
<g id="edge6" class="edge">
<title>Node6&#45;&gt;Node4</title>
<path fill="none" stroke="#63b8ff" d="M213.29,-650.6C202.85,-648.11 192.05,-645.37 182,-642.5 153.41,-634.34 121.25,-623.04 99.51,-615.08"/>
<polygon fill="#63b8ff" stroke="#63b8ff" points="212.63,-654.04 223.17,-652.9 214.22,-647.22 212.63,-654.04"/>
</g>
<!-- Node9 -->
<g id="node9" class="node">
<title>Node9</title>
<g id="a_node9"><a xlink:href="imgui__demo_8cpp.html#a401c106ef9206d8dd4b4bc3271a6de6f" target="_top" xlink:title=" ">
<polygon fill="white" stroke="#666666" points="779.5,-710.5 609.5,-710.5 609.5,-680.5 779.5,-680.5 779.5,-710.5"/>
<text text-anchor="start" x="617.5" y="-698.5" font-family="Helvetica,sans-Serif" font-size="10.00">DemoWindowWidgetsSelection</text>
<text text-anchor="middle" x="694.5" y="-687.5" font-family="Helvetica,sans-Serif" font-size="10.00">AndMultiSelect</text>
</a>
</g>
</g>
<!-- Node8&#45;&gt;Node9 -->
<g id="edge9" class="edge">
<title>Node8&#45;&gt;Node9</title>
<path fill="none" stroke="#63b8ff" d="M1074.43,-723.63C1050.37,-735.33 1013.88,-751.05 980,-757.5 910.58,-770.72 889.81,-773.57 821,-757.5 782.43,-748.49 742.09,-725.82 717.88,-710.54"/>
<polygon fill="#63b8ff" stroke="#63b8ff" points="1076.23,-726.64 1083.62,-719.05 1073.11,-720.37 1076.23,-726.64"/>
</g>
<!-- Node10 -->
<g id="node10" class="node">
<title>Node10</title>
<g id="a_node10"><a xlink:href="structExampleAssetsBrowser.html#a2b36e1f9b7d764e547611baa4c7fd8d1" target="_top" xlink:title=" ">
<polygon fill="white" stroke="#666666" points="966,-748.5 835,-748.5 835,-718.5 966,-718.5 966,-748.5"/>
<text text-anchor="start" x="843" y="-736.5" font-family="Helvetica,sans-Serif" font-size="10.00">ExampleAssetsBrowser</text>
<text text-anchor="middle" x="900.5" y="-725.5" font-family="Helvetica,sans-Serif" font-size="10.00">::Draw</text>
</a>
</g>
</g>
<!-- Node8&#45;&gt;Node10 -->
<g id="edge11" class="edge">
<title>Node8&#45;&gt;Node10</title>
<path fill="none" stroke="#63b8ff" d="M1025.38,-718.63C1005.84,-720.98 985.01,-723.48 966.11,-725.75"/>
<polygon fill="#63b8ff" stroke="#63b8ff" points="1025.95,-722.09 1035.46,-717.43 1025.11,-715.14 1025.95,-722.09"/>
</g>
<!-- Node12 -->
<g id="node12" class="node">
<title>Node12</title>
<g id="a_node12"><a xlink:href="structExampleDualListBox.html#a1413fd803c568a0d4b98a8f3c59af1be" target="_top" xlink:title=" ">
<polygon fill="white" stroke="#666666" points="959.5,-700.5 841.5,-700.5 841.5,-670.5 959.5,-670.5 959.5,-700.5"/>
<text text-anchor="start" x="849.5" y="-688.5" font-family="Helvetica,sans-Serif" font-size="10.00">ExampleDualListBox</text>
<text text-anchor="middle" x="900.5" y="-677.5" font-family="Helvetica,sans-Serif" font-size="10.00">::Show</text>
</a>
</g>
</g>
<!-- Node8&#45;&gt;Node12 -->
<g id="edge14" class="edge">
<title>Node8&#45;&gt;Node12</title>
<path fill="none" stroke="#63b8ff" d="M1025.27,-700.35C1003.54,-697.74 980.21,-694.95 959.74,-692.49"/>
<polygon fill="#63b8ff" stroke="#63b8ff" points="1025.11,-703.86 1035.46,-701.57 1025.95,-696.91 1025.11,-703.86"/>
</g>
<!-- Node9&#45;&gt;Node6 -->
<g id="edge10" class="edge">
<title>Node9&#45;&gt;Node6</title>
<path fill="none" stroke="#63b8ff" d="M599.21,-688.37C540.23,-683.88 462.68,-677.93 394,-672.5 374.03,-670.92 352.24,-669.16 332.62,-667.56"/>
<polygon fill="#63b8ff" stroke="#63b8ff" points="599.02,-691.86 609.26,-689.13 599.55,-684.88 599.02,-691.86"/>
</g>
<!-- Node11 -->
<g id="node11" class="node">
<title>Node11</title>
<g id="a_node11"><a xlink:href="imgui__demo_8cpp.html#a83fdfc359b5a0432835090acd227690f" target="_top" xlink:title=" ">
<polygon fill="white" stroke="#666666" points="358,-729 182,-729 182,-710 358,-710 358,-729"/>
<text text-anchor="middle" x="270" y="-717" font-family="Helvetica,sans-Serif" font-size="10.00">ShowExampleAppAssetsBrowser</text>
</a>
</g>
</g>
<!-- Node10&#45;&gt;Node11 -->
<g id="edge12" class="edge">
<title>Node10&#45;&gt;Node11</title>
<path fill="none" stroke="#63b8ff" d="M824.61,-731.83C707.65,-729.23 482.17,-724.2 358.11,-721.44"/>
<polygon fill="#63b8ff" stroke="#63b8ff" points="824.82,-735.34 834.9,-732.06 824.98,-728.34 824.82,-735.34"/>
</g>
<!-- Node11&#45;&gt;Node4 -->
<g id="edge13" class="edge">
<title>Node11&#45;&gt;Node4</title>
<path fill="none" stroke="#63b8ff" d="M234.72,-705.88C218.4,-698.95 198.83,-690.01 182,-680.5 145.43,-659.84 105.64,-630.13 86.14,-615.06"/>
<polygon fill="#63b8ff" stroke="#63b8ff" points="233.83,-709.3 244.41,-709.91 236.52,-702.83 233.83,-709.3"/>
</g>
<!-- Node12&#45;&gt;Node9 -->
<g id="edge15" class="edge">
<title>Node12&#45;&gt;Node9</title>
<path fill="none" stroke="#63b8ff" d="M831.21,-688.85C814.67,-689.66 796.8,-690.53 779.63,-691.38"/>
<polygon fill="#63b8ff" stroke="#63b8ff" points="831.5,-692.34 841.31,-688.35 831.16,-685.35 831.5,-692.34"/>
</g>
<!-- Node13&#45;&gt;Node3 -->
<g id="edge40" class="edge">
<title>Node13&#45;&gt;Node3</title>
<path fill="none" stroke="#63b8ff" d="M1088.91,-558.76C1070.51,-586.21 1036.25,-640.26 1016,-690.5 991.66,-750.89 1016.3,-778.45 980,-832.5 965.26,-854.44 939.34,-871.18 921.33,-880.91"/>
<polygon fill="#63b8ff" stroke="#63b8ff" points="1092,-560.45 1094.71,-550.21 1086.2,-556.52 1092,-560.45"/>
</g>
<!-- Node13&#45;&gt;Node4 -->
<g id="edge51" class="edge">
<title>Node13&#45;&gt;Node4</title>
<path fill="none" stroke="#63b8ff" d="M1039.49,-537.43C982.61,-535.19 896.07,-533.21 821,-537.5 708,-543.95 680.65,-555.6 568,-566.5 418.15,-581 242.32,-593.9 146.06,-600.61"/>
<polygon fill="#63b8ff" stroke="#63b8ff" points="1039.62,-540.94 1049.75,-537.85 1039.9,-533.94 1039.62,-540.94"/>
</g>
<!-- Node13&#45;&gt;Node9 -->
<g id="edge45" class="edge">
<title>Node13&#45;&gt;Node9</title>
<path fill="none" stroke="#63b8ff" d="M1081.46,-556.42C1058.27,-574.14 1018.34,-602.5 980,-619.5 913.18,-649.13 891.61,-642.61 821,-661.5 797.99,-667.65 772.64,-674.51 750.77,-680.45"/>
<polygon fill="#63b8ff" stroke="#63b8ff" points="1083.73,-559.09 1089.49,-550.2 1079.44,-553.56 1083.73,-559.09"/>
</g>
<!-- Node13&#45;&gt;Node10 -->
<g id="edge46" class="edge">
<title>Node13&#45;&gt;Node10</title>
<path fill="none" stroke="#63b8ff" d="M1093.1,-559.3C1076.55,-594.19 1036.4,-669.06 980,-709.5 975.25,-712.9 970.01,-715.83 964.56,-718.35"/>
<polygon fill="#63b8ff" stroke="#63b8ff" points="1096.28,-560.76 1097.3,-550.21 1089.93,-557.82 1096.28,-560.76"/>
</g>
<!-- Node13&#45;&gt;Node12 -->
<g id="edge50" class="edge">
<title>Node13&#45;&gt;Node12</title>
<path fill="none" stroke="#63b8ff" d="M1087.12,-558.21C1066,-583.21 1024.26,-628.87 980,-656.5 971.37,-661.89 961.59,-666.49 951.94,-670.35"/>
<polygon fill="#63b8ff" stroke="#63b8ff" points="1090,-560.22 1093.7,-550.29 1084.62,-555.74 1090,-560.22"/>
</g>
<!-- Node14 -->
<g id="node14" class="node">
<title>Node14</title>
<g id="a_node14"><a xlink:href="namespaceImGui.html#a8600f7b1f9b18926fb00837e56d2b3cd" target="_top" xlink:title=" ">
<polygon fill="white" stroke="#666666" points="980,-351 821,-351 821,-332 980,-332 980,-351"/>
<text text-anchor="middle" x="900.5" y="-339" font-family="Helvetica,sans-Serif" font-size="10.00">ImGui::DebugNodeDockNode</text>
</a>
</g>
</g>
<!-- Node13&#45;&gt;Node14 -->
<g id="edge17" class="edge">
<title>Node13&#45;&gt;Node14</title>
<path fill="none" stroke="#63b8ff" d="M1090.54,-522.15C1071.27,-491.03 1028.71,-427.23 980,-385.5 963.03,-370.96 940.53,-358.94 923.97,-351.15"/>
<polygon fill="#63b8ff" stroke="#63b8ff" points="1087.56,-523.98 1095.76,-530.7 1093.54,-520.34 1087.56,-523.98"/>
</g>
<!-- Node19 -->
<g id="node19" class="node">
<title>Node19</title>
<g id="a_node19"><a xlink:href="namespaceImGui.html#ae0207d60728f7e6a47dbcd1d7d84e3cb" target="_top" xlink:title=" ">
<polygon fill="white" stroke="#666666" points="965.5,-414 835.5,-414 835.5,-395 965.5,-395 965.5,-414"/>
<text text-anchor="middle" x="900.5" y="-402" font-family="Helvetica,sans-Serif" font-size="10.00">ImGui::DebugNodeFont</text>
</a>
</g>
</g>
<!-- Node13&#45;&gt;Node19 -->
<g id="edge31" class="edge">
<title>Node13&#45;&gt;Node19</title>
<path fill="none" stroke="#63b8ff" d="M1087.19,-523.09C1066.16,-498.58 1024.52,-454.03 980,-428.5 969.24,-422.33 956.73,-417.58 944.9,-414"/>
<polygon fill="#63b8ff" stroke="#63b8ff" points="1084.62,-525.48 1093.75,-530.86 1089.98,-520.96 1084.62,-525.48"/>
</g>
<!-- Node20 -->
<g id="node20" class="node">
<title>Node20</title>
<g id="a_node20"><a xlink:href="namespaceImGui.html#acab51ec2b39577845309f24535381038" target="_top" xlink:title=" ">
<polygon fill="white" stroke="#666666" points="756.5,-452 632.5,-452 632.5,-433 756.5,-433 756.5,-452"/>
<text text-anchor="middle" x="694.5" y="-440" font-family="Helvetica,sans-Serif" font-size="10.00">ImGui::ShowFontAtlas</text>
</a>
</g>
</g>
<!-- Node13&#45;&gt;Node20 -->
<g id="edge52" class="edge">
<title>Node13&#45;&gt;Node20</title>
<path fill="none" stroke="#63b8ff" d="M1082.11,-524.72C1059.25,-507.09 1019.35,-479.35 980,-466.5 905.9,-442.31 815.49,-438.78 756.76,-439.66"/>
<polygon fill="#63b8ff" stroke="#63b8ff" points="1079.98,-527.49 1090.01,-530.92 1084.31,-521.99 1079.98,-527.49"/>
</g>
<!-- Node23 -->
<g id="node23" class="node">
<title>Node23</title>
<g id="a_node23"><a xlink:href="namespaceImGui.html#a326f0badd138d1dea078a31b0e8dd685" target="_top" xlink:title=" ">
<polygon fill="white" stroke="#666666" points="768.5,-275 620.5,-275 620.5,-256 768.5,-256 768.5,-275"/>
<text text-anchor="middle" x="694.5" y="-263" font-family="Helvetica,sans-Serif" font-size="10.00">ImGui::DebugTextEncoding</text>
</a>
</g>
</g>
<!-- Node13&#45;&gt;Node23 -->
<g id="edge38" class="edge">
<title>Node13&#45;&gt;Node23</title>
<path fill="none" stroke="#63b8ff" d="M1096.59,-520.85C1084.66,-477.5 1049.89,-373.46 980,-322.5 918.54,-277.68 830.6,-265.91 768.8,-263.78"/>
<polygon fill="#63b8ff" stroke="#63b8ff" points="1093.25,-521.94 1099.19,-530.72 1100.02,-520.16 1093.25,-521.94"/>
</g>
<!-- Node24 -->
<g id="node24" class="node">
<title>Node24</title>
<g id="a_node24"><a xlink:href="imgui__demo_8cpp.html#a7ea459383a527c89e210e578e85ef5c8" target="_top" xlink:title=" ">
<polygon fill="white" stroke="#666666" points="958.5,-824 842.5,-824 842.5,-805 958.5,-805 958.5,-824"/>
<text text-anchor="middle" x="900.5" y="-812" font-family="Helvetica,sans-Serif" font-size="10.00">DemoWindowTables</text>
</a>
</g>
</g>
<!-- Node13&#45;&gt;Node24 -->
<g id="edge41" class="edge">
<title>Node13&#45;&gt;Node24</title>
<path fill="none" stroke="#63b8ff" d="M1090.71,-559.08C1074.34,-587.34 1042.36,-642.88 1016,-690.5 999.63,-720.08 1002.24,-732.04 980,-757.5 962.38,-777.67 936.37,-794.77 919.18,-804.84"/>
<polygon fill="#63b8ff" stroke="#63b8ff" points="1093.82,-560.69 1095.81,-550.28 1087.77,-557.18 1093.82,-560.69"/>
</g>
<!-- Node25 -->
<g id="node25" class="node">
<title>Node25</title>
<g id="a_node25"><a xlink:href="imgui__demo_8cpp.html#afe48fcb0ff7fc424c6fd5052e2d0e2a8" target="_top" xlink:title=" ">
<polygon fill="white" stroke="#666666" points="785,-662 604,-662 604,-643 785,-643 785,-662"/>
<text text-anchor="middle" x="694.5" y="-650" font-family="Helvetica,sans-Serif" font-size="10.00">DemoWindowWidgetsSelectables</text>
</a>
</g>
</g>
<!-- Node13&#45;&gt;Node25 -->
<g id="edge43" class="edge">
<title>Node13&#45;&gt;Node25</title>
<path fill="none" stroke="#63b8ff" d="M1068.62,-553.94C1044.38,-563.53 1010.47,-576.31 980,-585.5 898.26,-610.16 801.08,-631.34 744.05,-642.97"/>
<polygon fill="#63b8ff" stroke="#63b8ff" points="1070.06,-557.13 1078.05,-550.17 1067.46,-550.63 1070.06,-557.13"/>
</g>
<!-- Node26 -->
<g id="node26" class="node">
<title>Node26</title>
<g id="a_node26"><a xlink:href="structExampleAppPropertyEditor.html#adfdfd135c8e210849d5ecbe4d4969813" target="_top" xlink:title=" ">
<polygon fill="white" stroke="#666666" points="974.5,-576.5 826.5,-576.5 826.5,-546.5 974.5,-546.5 974.5,-576.5"/>
<text text-anchor="start" x="834.5" y="-564.5" font-family="Helvetica,sans-Serif" font-size="10.00">ExampleAppPropertyEditor</text>
<text text-anchor="middle" x="900.5" y="-553.5" font-family="Helvetica,sans-Serif" font-size="10.00">::Draw</text>
</a>
</g>
</g>
<!-- Node13&#45;&gt;Node26 -->
<g id="edge47" class="edge">
<title>Node13&#45;&gt;Node26</title>
<path fill="none" stroke="#63b8ff" d="M1039.8,-546.98C1019.21,-549.14 996.07,-551.57 974.69,-553.81"/>
<polygon fill="#63b8ff" stroke="#63b8ff" points="1040.42,-550.43 1050,-545.91 1039.68,-543.47 1040.42,-550.43"/>
</g>
<!-- Node28 -->
<g id="node28" class="node">
<title>Node28</title>
<g id="a_node28"><a xlink:href="namespaceImGui.html#ab4a87bf4a874a8e5872b60b4a9b1d99e" target="_top" xlink:title=" ">
<polygon fill="white" stroke="#666666" points="568,-521 394,-521 394,-502 568,-502 568,-521"/>
<text text-anchor="middle" x="481" y="-509" font-family="Helvetica,sans-Serif" font-size="10.00">ImGui::ShowIDStackToolWindow</text>
</a>
</g>
</g>
<!-- Node13&#45;&gt;Node28 -->
<g id="edge53" class="edge">
<title>Node13&#45;&gt;Node28</title>
<path fill="none" stroke="#63b8ff" d="M1067.14,-527.43C1043.12,-519.02 1010.1,-508.87 980,-504.5 836.67,-483.71 667.7,-493.12 568.01,-502.12"/>
<polygon fill="#63b8ff" stroke="#63b8ff" points="1066.25,-530.83 1076.84,-530.91 1068.61,-524.24 1066.25,-530.83"/>
</g>
<!-- Node14&#45;&gt;Node14 -->
<g id="edge18" class="edge">
<title>Node14&#45;&gt;Node14</title>
<path fill="none" stroke="#63b8ff" d="M938.37,-358.69C938.37,-364.42 925.74,-369 900.5,-369 864.6,-369 854.22,-359.73 869.37,-351.08"/>
<polygon fill="#63b8ff" stroke="#63b8ff" points="940.89,-356.25 931.63,-351.08 935.65,-360.89 940.89,-356.25"/>
</g>
<!-- Node15 -->
<g id="node15" class="node">
<title>Node15</title>
<g id="a_node15"><a xlink:href="namespaceImGui.html#afcb602554925c5409977f0fb39f77e5d" target="_top" xlink:title=" ">
<polygon fill="white" stroke="#666666" points="768.5,-351 620.5,-351 620.5,-332 768.5,-332 768.5,-351"/>
<text text-anchor="middle" x="694.5" y="-339" font-family="Helvetica,sans-Serif" font-size="10.00">ImGui::DebugNodeWindow</text>
</a>
</g>
</g>
<!-- Node14&#45;&gt;Node15 -->
<g id="edge19" class="edge">
<title>Node14&#45;&gt;Node15</title>
<path fill="none" stroke="#63b8ff" d="M810.77,-334.8C796.72,-334.69 782.33,-334.76 768.69,-335"/>
<polygon fill="#63b8ff" stroke="#63b8ff" points="810.88,-338.3 820.92,-334.91 810.96,-331.3 810.88,-338.3"/>
</g>
<!-- Node17 -->
<g id="node17" class="node">
<title>Node17</title>
<g id="a_node17"><a xlink:href="namespaceImGui.html#afe7a28c6eb52fff3cc27d5a698fea4ff" target="_top" xlink:title=" ">
<polygon fill="white" stroke="#666666" points="346.5,-407 193.5,-407 193.5,-388 346.5,-388 346.5,-407"/>
<text text-anchor="middle" x="270" y="-395" font-family="Helvetica,sans-Serif" font-size="10.00">ImGui::ShowMetricsWindow</text>
</a>
</g>
</g>
<!-- Node14&#45;&gt;Node17 -->
<g id="edge30" class="edge">
<title>Node14&#45;&gt;Node17</title>
<path fill="none" stroke="#63b8ff" d="M865.96,-354.64C843.44,-362.81 812.9,-372.66 785,-377.5 631.02,-404.21 447.37,-403.75 346.56,-400.78"/>
<polygon fill="#63b8ff" stroke="#63b8ff" points="867.24,-357.9 875.4,-351.14 864.8,-351.34 867.24,-357.9"/>
</g>
<!-- Node15&#45;&gt;Node14 -->
<g id="edge20" class="edge">
<title>Node15&#45;&gt;Node14</title>
<path fill="none" stroke="#63b8ff" d="M778.74,-348.15C792.68,-348.3 807.1,-348.28 820.92,-348.09"/>
<polygon fill="#63b8ff" stroke="#63b8ff" points="778.73,-344.65 768.69,-348 778.63,-351.65 778.73,-344.65"/>
</g>
<!-- Node15&#45;&gt;Node15 -->
<g id="edge21" class="edge">
<title>Node15&#45;&gt;Node15</title>
<path fill="none" stroke="#63b8ff" d="M733.12,-358.69C733.12,-364.42 720.24,-369 694.5,-369 657.89,-369 647.3,-359.73 662.75,-351.08"/>
<polygon fill="#63b8ff" stroke="#63b8ff" points="735.55,-356.16 726.25,-351.08 730.36,-360.85 735.55,-356.16"/>
</g>
<!-- Node16 -->
<g id="node16" class="node">
<title>Node16</title>
<g id="a_node16"><a xlink:href="namespaceImGui.html#a8c2ed9f140c90d8eaca1e2cfd8f46142" target="_top" xlink:title=" ">
<polygon fill="white" stroke="#666666" points="566,-303 396,-303 396,-284 566,-284 566,-303"/>
<text text-anchor="middle" x="481" y="-291" font-family="Helvetica,sans-Serif" font-size="10.00">ImGui::DebugNodeWindowsList</text>
</a>
</g>
</g>
<!-- Node15&#45;&gt;Node16 -->
<g id="edge22" class="edge">
<title>Node15&#45;&gt;Node16</title>
<path fill="none" stroke="#63b8ff" d="M668.08,-328.71C642.74,-320.64 602.7,-311.34 568,-303.5 567.4,-303.37 566.8,-303.23 566.2,-303.09"/>
<polygon fill="#63b8ff" stroke="#63b8ff" points="667.07,-332.06 677.66,-331.97 669.32,-325.44 667.07,-332.06"/>
</g>
<!-- Node18 -->
<g id="node18" class="node">
<title>Node18</title>
<g id="a_node18"><a xlink:href="namespaceImGui.html#a0fc8019faf3a1aec25b554384ad9e506" target="_top" xlink:title=" ">
<polygon fill="white" stroke="#666666" points="566,-351.5 396,-351.5 396,-321.5 566,-321.5 566,-351.5"/>
<text text-anchor="start" x="404" y="-339.5" font-family="Helvetica,sans-Serif" font-size="10.00">ImGui::DebugNodeWindowsList</text>
<text text-anchor="middle" x="481" y="-328.5" font-family="Helvetica,sans-Serif" font-size="10.00">ByBeginStackParent</text>
</a>
</g>
</g>
<!-- Node15&#45;&gt;Node18 -->
<g id="edge27" class="edge">
<title>Node15&#45;&gt;Node18</title>
<path fill="none" stroke="#63b8ff" d="M610.07,-339.53C595.69,-339.19 580.74,-338.83 566.35,-338.49"/>
<polygon fill="#63b8ff" stroke="#63b8ff" points="610.34,-343.03 620.42,-339.77 610.5,-336.04 610.34,-343.03"/>
</g>
<!-- Node16&#45;&gt;Node14 -->
<g id="edge23" class="edge">
<title>Node16&#45;&gt;Node14</title>
<path fill="none" stroke="#63b8ff" d="M576.29,-300.84C636.19,-305.92 715.28,-313.39 785,-322.5 805.28,-325.15 827.48,-328.69 846.89,-331.99"/>
<polygon fill="#63b8ff" stroke="#63b8ff" points="576.35,-297.33 566.1,-299.98 575.77,-304.31 576.35,-297.33"/>
</g>
<!-- Node16&#45;&gt;Node15 -->
<g id="edge24" class="edge">
<title>Node16&#45;&gt;Node15</title>
<path fill="none" stroke="#63b8ff" d="M506.13,-306.29C523.37,-311.54 547.13,-316.78 568,-321.5 584.9,-325.32 603.08,-329.49 620.2,-333.19"/>
<polygon fill="#63b8ff" stroke="#63b8ff" points="506.91,-302.87 496.31,-303.03 504.7,-309.51 506.91,-302.87"/>
</g>
<!-- Node16&#45;&gt;Node17 -->
<g id="edge25" class="edge">
<title>Node16&#45;&gt;Node17</title>
<path fill="none" stroke="#63b8ff" d="M411.87,-305.81C405.72,-307.74 399.68,-309.95 394,-312.5 375.99,-320.57 374.17,-327.18 358,-338.5 332.73,-356.19 302.91,-376.23 285.56,-387.82"/>
<polygon fill="#63b8ff" stroke="#63b8ff" points="412.95,-309.14 421.59,-303.01 411.02,-302.42 412.95,-309.14"/>
</g>
<!-- Node17&#45;&gt;Node4 -->
<g id="edge26" class="edge">
<title>Node17&#45;&gt;Node4</title>
<path fill="none" stroke="#63b8ff" d="M226.55,-410.79C211.37,-416.95 194.85,-425.41 182,-436.5 126.63,-484.26 89.43,-567.39 77.84,-595.72"/>
<polygon fill="#63b8ff" stroke="#63b8ff" points="228.19,-413.91 236.28,-407.07 225.69,-407.37 228.19,-413.91"/>
</g>
<!-- Node18&#45;&gt;Node17 -->
<g id="edge29" class="edge">
<title>Node18&#45;&gt;Node17</title>
<path fill="none" stroke="#63b8ff" d="M418.74,-354.38C381.08,-365.37 334.32,-379.02 303.61,-387.98"/>
<polygon fill="#63b8ff" stroke="#63b8ff" points="419.99,-357.66 428.61,-351.5 418.03,-350.94 419.99,-357.66"/>
</g>
<!-- Node18&#45;&gt;Node18 -->
<g id="edge28" class="edge">
<title>Node18&#45;&gt;Node18</title>
<path fill="none" stroke="#63b8ff" d="M517.76,-362.1C512.74,-366.47 500.48,-369.5 481,-369.5 448.19,-369.5 435.88,-360.91 444.09,-351.78"/>
<polygon fill="#63b8ff" stroke="#63b8ff" points="521.26,-361.83 517.91,-351.78 514.26,-361.72 521.26,-361.83"/>
</g>
<!-- Node19&#45;&gt;Node20 -->
<g id="edge32" class="edge">
<title>Node19&#45;&gt;Node20</title>
<path fill="none" stroke="#63b8ff" d="M838.2,-415.92C809.01,-421.36 774.51,-427.78 746.74,-432.96"/>
<polygon fill="#63b8ff" stroke="#63b8ff" points="839.1,-419.31 848.29,-414.04 837.81,-412.43 839.1,-419.31"/>
</g>
<!-- Node20&#45;&gt;Node17 -->
<g id="edge35" class="edge">
<title>Node20&#45;&gt;Node17</title>
<path fill="none" stroke="#63b8ff" d="M622.15,-435.32C561.46,-429.17 471.99,-419.97 394,-411.5 378.72,-409.84 362.38,-408.02 346.77,-406.25"/>
<polygon fill="#63b8ff" stroke="#63b8ff" points="622.09,-438.83 632.39,-436.36 622.8,-431.87 622.09,-438.83"/>
</g>
<!-- Node21 -->
<g id="node21" class="node">
<title>Node21</title>
<g id="a_node21"><a xlink:href="imgui__demo_8cpp.html#a163f04ccf255dede76e5e54f741ca9d5" target="_top" xlink:title=" ">
<polygon fill="white" stroke="#666666" points="556.5,-558 405.5,-558 405.5,-539 556.5,-539 556.5,-558"/>
<text text-anchor="middle" x="481" y="-546" font-family="Helvetica,sans-Serif" font-size="10.00">DemoWindowWidgetsFonts</text>
</a>
</g>
</g>
<!-- Node20&#45;&gt;Node21 -->
<g id="edge33" class="edge">
<title>Node20&#45;&gt;Node21</title>
<path fill="none" stroke="#63b8ff" d="M674.92,-458.9C651.58,-478.63 609.54,-511.35 568,-529.5 559.17,-533.36 549.48,-536.46 539.89,-538.96"/>
<polygon fill="#63b8ff" stroke="#63b8ff" points="677.33,-461.45 682.64,-452.27 672.77,-456.14 677.33,-461.45"/>
</g>
<!-- Node22 -->
<g id="node22" class="node">
<title>Node22</title>
<g id="a_node22"><a xlink:href="namespaceImGui.html#ab2eb3dec78d054fe3feab1c091ec5de5" target="_top" xlink:title=" ">
<polygon fill="white" stroke="#666666" points="335.5,-465 204.5,-465 204.5,-446 335.5,-446 335.5,-465"/>
<text text-anchor="middle" x="270" y="-453" font-family="Helvetica,sans-Serif" font-size="10.00">ImGui::ShowStyleEditor</text>
</a>
</g>
</g>
<!-- Node20&#45;&gt;Node22 -->
<g id="edge36" class="edge">
<title>Node20&#45;&gt;Node22</title>
<path fill="none" stroke="#63b8ff" d="M622.01,-446.93C604.36,-447.9 585.5,-448.84 568,-449.5 487.99,-452.54 395.79,-454.1 335.62,-454.86"/>
<polygon fill="#63b8ff" stroke="#63b8ff" points="622.45,-450.41 632.24,-446.35 622.06,-443.42 622.45,-450.41"/>
</g>
<!-- Node21&#45;&gt;Node6 -->
<g id="edge34" class="edge">
<title>Node21&#45;&gt;Node6</title>
<path fill="none" stroke="#63b8ff" d="M463.29,-565.26C441.16,-586.48 399.99,-622.67 358,-642.5 348.89,-646.8 338.8,-650.21 328.81,-652.9"/>
<polygon fill="#63b8ff" stroke="#63b8ff" points="465.84,-567.66 470.55,-558.18 460.95,-562.65 465.84,-567.66"/>
</g>
<!-- Node22&#45;&gt;Node4 -->
<g id="edge37" class="edge">
<title>Node22&#45;&gt;Node4</title>
<path fill="none" stroke="#63b8ff" d="M194.94,-467.05C190.43,-468.9 186.07,-471.03 182,-473.5 129.83,-505.1 91.69,-571.32 78.78,-595.98"/>
<polygon fill="#63b8ff" stroke="#63b8ff" points="196.16,-470.34 204.38,-463.66 193.79,-463.75 196.16,-470.34"/>
</g>
<!-- Node23&#45;&gt;Node17 -->
<g id="edge39" class="edge">
<title>Node23&#45;&gt;Node17</title>
<path fill="none" stroke="#63b8ff" d="M647.19,-253.74C584.76,-240.65 472.41,-227.05 394,-274.5 366.08,-291.4 380.09,-314.48 358,-338.5 338.23,-359.99 309.19,-377.67 290.19,-387.9"/>
<polygon fill="#63b8ff" stroke="#63b8ff" points="646.62,-257.2 657.13,-255.91 648.11,-250.36 646.62,-257.2"/>
</g>
<!-- Node24&#45;&gt;Node4 -->
<g id="edge42" class="edge">
<title>Node24&#45;&gt;Node4</title>
<path fill="none" stroke="#63b8ff" d="M832.14,-823.4C698.94,-837.68 396.24,-853.42 182,-737.5 128.35,-708.47 91.11,-640.69 78.61,-615.32"/>
<polygon fill="#63b8ff" stroke="#63b8ff" points="832.65,-826.86 842.2,-822.28 831.88,-819.9 832.65,-826.86"/>
</g>
<!-- Node25&#45;&gt;Node6 -->
<g id="edge44" class="edge">
<title>Node25&#45;&gt;Node6</title>
<path fill="none" stroke="#63b8ff" d="M593.69,-654.86C512.77,-656.78 401.3,-659.42 332.8,-661.04"/>
<polygon fill="#63b8ff" stroke="#63b8ff" points="593.98,-658.36 603.9,-654.62 593.82,-651.36 593.98,-658.36"/>
</g>
<!-- Node27 -->
<g id="node27" class="node">
<title>Node27</title>
<g id="a_node27"><a xlink:href="imgui__demo_8cpp.html#a746628697dff9d8d5e352436c96633c9" target="_top" xlink:title=" ">
<polygon fill="white" stroke="#666666" points="357,-634 183,-634 183,-615 357,-615 357,-634"/>
<text text-anchor="middle" x="270" y="-622" font-family="Helvetica,sans-Serif" font-size="10.00">ShowExampleAppPropertyEditor</text>
</a>
</g>
</g>
<!-- Node26&#45;&gt;Node27 -->
<g id="edge48" class="edge">
<title>Node26&#45;&gt;Node27</title>
<path fill="none" stroke="#63b8ff" d="M816.1,-572.17C749.12,-580.52 652.61,-592.11 568,-600.5 497.09,-607.53 416.5,-613.95 357.18,-618.37"/>
<polygon fill="#63b8ff" stroke="#63b8ff" points="816.69,-575.62 826.18,-570.9 815.82,-568.67 816.69,-575.62"/>
</g>
<!-- Node27&#45;&gt;Node4 -->
<g id="edge49" class="edge">
<title>Node27&#45;&gt;Node4</title>
<path fill="none" stroke="#63b8ff" d="M172.82,-615.13C163.87,-614.26 154.91,-613.38 146.23,-612.54"/>
<polygon fill="#63b8ff" stroke="#63b8ff" points="172.61,-618.62 182.9,-616.11 173.29,-611.66 172.61,-618.62"/>
</g>
<!-- Node28&#45;&gt;Node4 -->
<g id="edge54" class="edge">
<title>Node28&#45;&gt;Node4</title>
<path fill="none" stroke="#63b8ff" d="M415.35,-522.91C354.72,-534.03 261.7,-552.21 182,-572.5 154.83,-579.42 124.32,-588.9 102.67,-595.93"/>
<polygon fill="#63b8ff" stroke="#63b8ff" points="416.33,-526.28 425.54,-521.05 415.08,-519.4 416.33,-526.28"/>
</g>
<!-- Node28&#45;&gt;Node17 -->
<g id="edge55" class="edge">
<title>Node28&#45;&gt;Node17</title>
<path fill="none" stroke="#63b8ff" d="M457.26,-496.28C433.14,-480.44 393.67,-455.36 358,-436.5 337.07,-425.44 312.38,-414.56 294.66,-407.12"/>
<polygon fill="#63b8ff" stroke="#63b8ff" points="455.44,-499.28 465.71,-501.87 459.3,-493.44 455.44,-499.28"/>
</g>
<!-- Node29 -->
<g id="node29" class="node">
<title>Node29</title>
<g id="a_node29"><a xlink:href="namespaceImGui.html#a1b6e100d30894c9379908efc540e5486" target="_top" xlink:title=" ">
<polygon fill="white" stroke="#666666" points="352,-502 188,-502 188,-483 352,-483 352,-502"/>
<text text-anchor="middle" x="270" y="-490" font-family="Helvetica,sans-Serif" font-size="10.00">ImGui::ShowStackToolWindow</text>
</a>
</g>
</g>
<!-- Node28&#45;&gt;Node29 -->
<g id="edge56" class="edge">
<title>Node28&#45;&gt;Node29</title>
<path fill="none" stroke="#63b8ff" d="M383.76,-502.75C373.24,-501.79 362.62,-500.83 352.31,-499.89"/>
<polygon fill="#63b8ff" stroke="#63b8ff" points="383.51,-506.24 393.79,-503.66 384.14,-499.27 383.51,-506.24"/>
</g>
<!-- Node29&#45;&gt;Node29 -->
<g id="edge57" class="edge">
<title>Node29&#45;&gt;Node29</title>
<path fill="none" stroke="#63b8ff" d="M306.75,-509.69C306.74,-515.42 294.49,-520 270,-520 235.16,-520 225.09,-510.73 239.79,-502.08"/>
<polygon fill="#63b8ff" stroke="#63b8ff" points="309.38,-507.38 300.21,-502.08 304.07,-511.95 309.38,-507.38"/>
</g>
<!-- Node30&#45;&gt;Node30 -->
<g id="edge60" class="edge">
<title>Node30&#45;&gt;Node30</title>
<path fill="none" stroke="#63b8ff" d="M1130.86,-78.1C1126.98,-82.47 1117.53,-85.5 1102.5,-85.5 1077.19,-85.5 1067.7,-76.91 1074.02,-67.78"/>
<polygon fill="#63b8ff" stroke="#63b8ff" points="1134.36,-77.82 1130.98,-67.78 1127.36,-77.73 1134.36,-77.82"/>
</g>
<!-- Node31 -->
<g id="node31" class="node">
<title>Node31</title>
<g id="a_node31"><a xlink:href="namespaceImGui.html#a526230d8de99b07ff2b2992c192ce212" target="_top" xlink:title=" ">
<polygon fill="white" stroke="#666666" points="969,-62 832,-62 832,-43 969,-43 969,-62"/>
<text text-anchor="middle" x="900.5" y="-50" font-family="Helvetica,sans-Serif" font-size="10.00">ImGui::DockNodeUpdate</text>
</a>
</g>
</g>
<!-- Node30&#45;&gt;Node31 -->
<g id="edge61" class="edge">
<title>Node30&#45;&gt;Node31</title>
<path fill="none" stroke="#63b8ff" d="M1013.18,-52.5C998.45,-52.5 983.37,-52.5 969.25,-52.5"/>
<polygon fill="#63b8ff" stroke="#63b8ff" points="1013.32,-56 1023.32,-52.5 1013.32,-49 1013.32,-56"/>
</g>
<!-- Node31&#45;&gt;Node31 -->
<g id="edge66" class="edge">
<title>Node31&#45;&gt;Node31</title>
<path fill="none" stroke="#63b8ff" d="M938.37,-69.69C938.37,-75.42 925.74,-80 900.5,-80 864.6,-80 854.22,-70.73 869.37,-62.08"/>
<polygon fill="#63b8ff" stroke="#63b8ff" points="940.89,-67.25 931.63,-62.08 935.65,-71.89 940.89,-67.25"/>
</g>
<!-- Node32 -->
<g id="node32" class="node">
<title>Node32</title>
<g id="a_node32"><a xlink:href="namespaceImGui.html#a3fd836d2bd3163537d1c36607e93ed6d" target="_top" xlink:title=" ">
<polygon fill="white" stroke="#666666" points="778,-67.5 611,-67.5 611,-37.5 778,-37.5 778,-67.5"/>
<text text-anchor="start" x="619" y="-55.5" font-family="Helvetica,sans-Serif" font-size="10.00">ImGui::DockContextNewFrame</text>
<text text-anchor="middle" x="694.5" y="-44.5" font-family="Helvetica,sans-Serif" font-size="10.00">UpdateDocking</text>
</a>
</g>
</g>
<!-- Node31&#45;&gt;Node32 -->
<g id="edge62" class="edge">
<title>Node31&#45;&gt;Node32</title>
<path fill="none" stroke="#63b8ff" d="M821.65,-52.5C807.44,-52.5 792.57,-52.5 778.23,-52.5"/>
<polygon fill="#63b8ff" stroke="#63b8ff" points="821.85,-56 831.85,-52.5 821.85,-49 821.85,-56"/>
</g>
<!-- Node36 -->
<g id="node36" class="node">
<title>Node36</title>
<g id="a_node36"><a xlink:href="namespaceImGui.html#a3d9d26cbb99a95938979a3ca3e211f92" target="_top" xlink:title=" ">
<polygon fill="white" stroke="#666666" points="747.5,-161 641.5,-161 641.5,-142 747.5,-142 747.5,-161"/>
<text text-anchor="middle" x="694.5" y="-149" font-family="Helvetica,sans-Serif" font-size="10.00">ImGui::DockSpace</text>
</a>
</g>
</g>
<!-- Node31&#45;&gt;Node36 -->
<g id="edge67" class="edge">
<title>Node31&#45;&gt;Node36</title>
<path fill="none" stroke="#63b8ff" d="M870.39,-66.63C828.24,-87.08 751.32,-124.41 715.21,-141.93"/>
<polygon fill="#63b8ff" stroke="#63b8ff" points="872.1,-69.69 879.57,-62.17 869.04,-63.39 872.1,-69.69"/>
</g>
<!-- Node33 -->
<g id="node33" class="node">
<title>Node33</title>
<g id="a_node33"><a xlink:href="namespaceImGui.html#ab3f1fc018f903b7ad79fd10663375774" target="_top" xlink:title=" ">
<polygon fill="white" stroke="#666666" points="533,-62 429,-62 429,-43 533,-43 533,-62"/>
<text text-anchor="middle" x="481" y="-50" font-family="Helvetica,sans-Serif" font-size="10.00">ImGui::NewFrame</text>
</a>
</g>
</g>
<!-- Node32&#45;&gt;Node33 -->
<g id="edge63" class="edge">
<title>Node32&#45;&gt;Node33</title>
<path fill="none" stroke="#63b8ff" d="M600.61,-52.5C577.45,-52.5 553.46,-52.5 533.17,-52.5"/>
<polygon fill="#63b8ff" stroke="#63b8ff" points="600.82,-56 610.82,-52.5 600.82,-49 600.82,-56"/>
</g>
<!-- Node34 -->
<g id="node34" class="node">
<title>Node34</title>
<g id="a_node34"><a xlink:href="classmtgb_1_1ImGuiRenderer.html#a4684d4374beee1f52053b4634edae2c8" target="_top" xlink:title=" ">
<polygon fill="white" stroke="#666666" points="331,-67.5 209,-67.5 209,-37.5 331,-37.5 331,-67.5"/>
<text text-anchor="start" x="217" y="-55.5" font-family="Helvetica,sans-Serif" font-size="10.00">mtgb::ImGuiRenderer</text>
<text text-anchor="middle" x="270" y="-44.5" font-family="Helvetica,sans-Serif" font-size="10.00">::BeginFrame</text>
</a>
</g>
</g>
<!-- Node33&#45;&gt;Node34 -->
<g id="edge64" class="edge">
<title>Node33&#45;&gt;Node34</title>
<path fill="none" stroke="#63b8ff" d="M418.57,-52.5C391.03,-52.5 358.65,-52.5 331.25,-52.5"/>
<polygon fill="#63b8ff" stroke="#63b8ff" points="418.87,-56 428.87,-52.5 418.87,-49 418.87,-56"/>
</g>
<!-- Node35 -->
<g id="node35" class="node">
<title>Node35</title>
<g id="a_node35"><a xlink:href="classmtgb_1_1RenderSystem.html#a14e39d4590efdf77c2085b12c6f3cdf5" target="_top" xlink:title=" ">
<polygon fill="white" stroke="#666666" points="138.5,-67.5 7.5,-67.5 7.5,-37.5 138.5,-37.5 138.5,-67.5"/>
<text text-anchor="start" x="15.5" y="-55.5" font-family="Helvetica,sans-Serif" font-size="10.00">mtgb::RenderSystem</text>
<text text-anchor="middle" x="73" y="-44.5" font-family="Helvetica,sans-Serif" font-size="10.00">::RenderImGuiWindows</text>
</a>
</g>
</g>
<!-- Node34&#45;&gt;Node35 -->
<g id="edge65" class="edge">
<title>Node34&#45;&gt;Node35</title>
<path fill="none" stroke="#63b8ff" d="M198.8,-52.5C179.17,-52.5 157.93,-52.5 138.64,-52.5"/>
<polygon fill="#63b8ff" stroke="#63b8ff" points="198.9,-56 208.9,-52.5 198.9,-49 198.9,-56"/>
</g>
<!-- Node37 -->
<g id="node37" class="node">
<title>Node37</title>
<g id="a_node37"><a xlink:href="namespaceImGui.html#a941b7d9d1f491f778796221031b5e439" target="_top" xlink:title=" ">
<polygon fill="white" stroke="#666666" points="558.5,-153 403.5,-153 403.5,-134 558.5,-134 558.5,-153"/>
<text text-anchor="middle" x="481" y="-141" font-family="Helvetica,sans-Serif" font-size="10.00">ImGui::DockBuilderAddNode</text>
</a>
</g>
</g>
<!-- Node36&#45;&gt;Node37 -->
<g id="edge68" class="edge">
<title>Node36&#45;&gt;Node37</title>
<path fill="none" stroke="#63b8ff" d="M631.28,-149.15C608.52,-148.29 582.49,-147.3 558.62,-146.4"/>
<polygon fill="#63b8ff" stroke="#63b8ff" points="631.37,-152.65 641.49,-149.53 631.63,-145.66 631.37,-152.65"/>
</g>
<!-- Node36&#45;&gt;Node38 -->
<g id="edge69" class="edge">
<title>Node36&#45;&gt;Node38</title>
<path fill="none" stroke="#63b8ff" d="M639.48,-139.81C617.33,-135.03 591.44,-129.48 568,-124.5 555.02,-121.74 540.93,-118.78 527.98,-116.07"/>
<polygon fill="#63b8ff" stroke="#63b8ff" points="638.86,-143.26 649.37,-141.94 640.33,-136.41 638.86,-143.26"/>
</g>
<!-- Node36&#45;&gt;Node39 -->
<g id="edge70" class="edge">
<title>Node36&#45;&gt;Node39</title>
<path fill="none" stroke="#63b8ff" d="M661.31,-164.99C636.21,-175.16 600.3,-188.94 568,-198.5 556.12,-202.02 543.15,-205.21 530.97,-207.93"/>
<polygon fill="#63b8ff" stroke="#63b8ff" points="662.77,-168.17 670.7,-161.15 660.12,-161.69 662.77,-168.17"/>
</g>
<!-- Node36&#45;&gt;Node40 -->
<g id="edge72" class="edge">
<title>Node36&#45;&gt;Node40</title>
<path fill="none" stroke="#63b8ff" d="M631.36,-160.02C606.26,-163.46 577.19,-167.45 551.41,-170.98"/>
<polygon fill="#63b8ff" stroke="#63b8ff" points="632.06,-163.46 641.49,-158.63 631.11,-156.52 632.06,-163.46"/>
</g>
<!-- Node39&#45;&gt;Node4 -->
<g id="edge71" class="edge">
<title>Node39&#45;&gt;Node4</title>
<path fill="none" stroke="#63b8ff" d="M415.62,-229.79C408.2,-231.99 400.85,-234.54 394,-237.5 290.12,-282.37 256.1,-292.98 182,-378.5 120.27,-449.74 85.82,-562.37 76.56,-595.82"/>
<polygon fill="#63b8ff" stroke="#63b8ff" points="416.67,-233.13 425.37,-227.09 414.8,-226.38 416.67,-233.13"/>
</g>
<!-- Node40&#45;&gt;Node4 -->
<g id="edge73" class="edge">
<title>Node40&#45;&gt;Node4</title>
<path fill="none" stroke="#63b8ff" d="M390.41,-179.1C324.64,-182.92 237.45,-198.82 182,-251.5 76.96,-351.3 73.17,-549.95 73.76,-595.87"/>
<polygon fill="#63b8ff" stroke="#63b8ff" points="390.96,-182.58 400.77,-178.59 390.61,-175.59 390.96,-182.58"/>
</g>
<!-- Node41&#45;&gt;Node31 -->
<g id="edge75" class="edge">
<title>Node41&#45;&gt;Node31</title>
<path fill="none" stroke="#63b8ff" d="M1047.08,-21.2C1015.28,-28.04 975.64,-36.56 945.76,-42.98"/>
<polygon fill="#63b8ff" stroke="#63b8ff" points="1048.07,-24.57 1057.11,-19.04 1046.6,-17.72 1048.07,-24.57"/>
</g>
<!-- Node43&#45;&gt;Node4 -->
<g id="edge79" class="edge">
<title>Node43&#45;&gt;Node4</title>
<path fill="none" stroke="#63b8ff" d="M225.55,-933.27C210.08,-926.73 193.63,-917.39 182,-904.5 99.94,-813.51 78.99,-655.48 74.87,-615.11"/>
<polygon fill="#63b8ff" stroke="#63b8ff" points="224.41,-936.59 235,-936.99 226.98,-930.07 224.41,-936.59"/>
</g>
<!-- Node44&#45;&gt;Node24 -->
<g id="edge83" class="edge">
<title>Node44&#45;&gt;Node24</title>
<path fill="none" stroke="#63b8ff" d="M1005.81,-803.03C989.7,-804.8 973.44,-806.59 958.7,-808.21"/>
<polygon fill="#63b8ff" stroke="#63b8ff" points="1006.25,-806.5 1015.81,-801.93 1005.49,-799.54 1006.25,-806.5"/>
</g>
</g>
</svg>
