<?xml version="1.0" encoding="UTF-8" standalone="no"?>
<!DOCTYPE svg PUBLIC "-//W3C//DTD SVG 1.1//EN"
 "http://www.w3.org/Graphics/SVG/1.1/DTD/svg11.dtd">
<!-- Generated by graphviz version 2.43.0 (0)
 -->
<!-- Title: ImGui::DebugDrawLineExtents Pages: 1 -->
<svg width="825pt" height="83pt"
 viewBox="0.00 0.00 825.00 83.00" xmlns="http://www.w3.org/2000/svg" xmlns:xlink="http://www.w3.org/1999/xlink">
<g id="graph0" class="graph" transform="scale(1 1) rotate(0) translate(4 79)">
<title>ImGui::DebugDrawLineExtents</title>
<!-- Node1 -->
<g id="node1" class="node">
<title>Node1</title>
<g id="a_node1"><a xlink:title=" ">
<polygon fill="#999999" stroke="#666666" points="166,-37 0,-37 0,-18 166,-18 166,-37"/>
<text text-anchor="middle" x="83" y="-25" font-family="Helvetica,sans-Serif" font-size="10.00">ImGui::DebugDrawLineExtents</text>
</a>
</g>
</g>
<!-- Node2 -->
<g id="node2" class="node">
<title>Node2</title>
<g id="a_node2"><a xlink:href="structImDrawList.html#aa21e5a1c6e00239581f97d344fc0db61" target="_top" xlink:title=" ">
<polygon fill="white" stroke="#666666" points="319,-37 202,-37 202,-18 319,-18 319,-37"/>
<text text-anchor="middle" x="260.5" y="-25" font-family="Helvetica,sans-Serif" font-size="10.00">ImDrawList::AddLine</text>
</a>
</g>
</g>
<!-- Node1&#45;&gt;Node2 -->
<g id="edge1" class="edge">
<title>Node1&#45;&gt;Node2</title>
<path fill="none" stroke="#63b8ff" d="M166.1,-27.5C174.72,-27.5 183.42,-27.5 191.86,-27.5"/>
<polygon fill="#63b8ff" stroke="#63b8ff" points="192,-31 202,-27.5 192,-24 192,-31"/>
</g>
<!-- Node3 -->
<g id="node3" class="node">
<title>Node3</title>
<g id="a_node3"><a xlink:href="structImDrawList.html#a828d944325ed58d8b57abd3647bffaaf" target="_top" xlink:title=" ">
<polygon fill="white" stroke="#666666" points="485,-56 355,-56 355,-37 485,-37 485,-56"/>
<text text-anchor="middle" x="420" y="-44" font-family="Helvetica,sans-Serif" font-size="10.00">ImDrawList::PathLineTo</text>
</a>
</g>
</g>
<!-- Node2&#45;&gt;Node3 -->
<g id="edge2" class="edge">
<title>Node2&#45;&gt;Node3</title>
<path fill="none" stroke="#63b8ff" d="M319.25,-34.47C327.58,-35.47 336.25,-36.52 344.84,-37.55"/>
<polygon fill="#63b8ff" stroke="#63b8ff" points="344.53,-41.04 354.87,-38.76 345.37,-34.09 344.53,-41.04"/>
</g>
<!-- Node7 -->
<g id="node7" class="node">
<title>Node7</title>
<g id="a_node7"><a xlink:href="structImDrawList.html#a60bf9040ef3d09b39c4ba8f5a2a68ae9" target="_top" xlink:title=" ">
<polygon fill="white" stroke="#666666" points="485,-19 355,-19 355,0 485,0 485,-19"/>
<text text-anchor="middle" x="420" y="-7" font-family="Helvetica,sans-Serif" font-size="10.00">ImDrawList::PathStroke</text>
</a>
</g>
</g>
<!-- Node2&#45;&gt;Node7 -->
<g id="edge6" class="edge">
<title>Node2&#45;&gt;Node7</title>
<path fill="none" stroke="#63b8ff" d="M319.25,-20.9C327.58,-19.95 336.25,-18.96 344.84,-17.97"/>
<polygon fill="#63b8ff" stroke="#63b8ff" points="345.34,-21.44 354.87,-16.83 344.54,-14.49 345.34,-21.44"/>
</g>
<!-- Node4 -->
<g id="node4" class="node">
<title>Node4</title>
<g id="a_node4"><a xlink:href="structImVector.html#aab5df48e0711a48bd12f3206e08c4108" target="_top" xlink:title=" ">
<polygon fill="white" stroke="#666666" points="639,-56 521,-56 521,-37 639,-37 639,-56"/>
<text text-anchor="middle" x="580" y="-44" font-family="Helvetica,sans-Serif" font-size="10.00">ImVector::push_back</text>
</a>
</g>
</g>
<!-- Node3&#45;&gt;Node4 -->
<g id="edge3" class="edge">
<title>Node3&#45;&gt;Node4</title>
<path fill="none" stroke="#63b8ff" d="M485.26,-46.5C493.65,-46.5 502.26,-46.5 510.7,-46.5"/>
<polygon fill="#63b8ff" stroke="#63b8ff" points="510.9,-50 520.9,-46.5 510.9,-43 510.9,-50"/>
</g>
<!-- Node5 -->
<g id="node5" class="node">
<title>Node5</title>
<g id="a_node5"><a xlink:href="structImVector.html#a3a097635d464b1b70dc7d59996a88b28" target="_top" xlink:title=" ">
<polygon fill="white" stroke="#666666" points="817,-75 675,-75 675,-56 817,-56 817,-75"/>
<text text-anchor="middle" x="746" y="-63" font-family="Helvetica,sans-Serif" font-size="10.00">ImVector::_grow_capacity</text>
</a>
</g>
</g>
<!-- Node4&#45;&gt;Node5 -->
<g id="edge4" class="edge">
<title>Node4&#45;&gt;Node5</title>
<path fill="none" stroke="#63b8ff" d="M639.28,-53.25C647.55,-54.21 656.18,-55.21 664.78,-56.21"/>
<polygon fill="#63b8ff" stroke="#63b8ff" points="664.5,-59.7 674.83,-57.37 665.3,-52.74 664.5,-59.7"/>
</g>
<!-- Node6 -->
<g id="node6" class="node">
<title>Node6</title>
<g id="a_node6"><a xlink:href="structImVector.html#a0f14f5736c3372157856eebb67123b75" target="_top" xlink:title=" ">
<polygon fill="white" stroke="#666666" points="797.5,-38 694.5,-38 694.5,-19 797.5,-19 797.5,-38"/>
<text text-anchor="middle" x="746" y="-26" font-family="Helvetica,sans-Serif" font-size="10.00">ImVector::reserve</text>
</a>
</g>
</g>
<!-- Node4&#45;&gt;Node6 -->
<g id="edge5" class="edge">
<title>Node4&#45;&gt;Node6</title>
<path fill="none" stroke="#63b8ff" d="M639.28,-40.1C653.87,-38.5 669.55,-36.78 684.25,-35.17"/>
<polygon fill="#63b8ff" stroke="#63b8ff" points="684.69,-38.64 694.25,-34.07 683.93,-31.68 684.69,-38.64"/>
</g>
</g>
</svg>
