<?xml version="1.0" encoding="UTF-8" standalone="no"?>
<!DOCTYPE svg PUBLIC "-//W3C//DTD SVG 1.1//EN"
 "http://www.w3.org/Graphics/SVG/1.1/DTD/svg11.dtd">
<!-- Generated by graphviz version 2.43.0 (0)
 -->
<!-- Title: ImGui::PushStyleVarY Pages: 1 -->
<svg width="722pt" height="207pt"
 viewBox="0.00 0.00 722.00 206.83" xmlns="http://www.w3.org/2000/svg" xmlns:xlink="http://www.w3.org/1999/xlink">
<g id="graph0" class="graph" transform="scale(1 1) rotate(0) translate(4 202.83)">
<title>ImGui::PushStyleVarY</title>
<!-- Node1 -->
<g id="node1" class="node">
<title>Node1</title>
<g id="a_node1"><a xlink:title=" ">
<polygon fill="#999999" stroke="#666666" points="714,-158 592,-158 592,-139 714,-139 714,-158"/>
<text text-anchor="middle" x="653" y="-146" font-family="Helvetica,sans-Serif" font-size="10.00">ImGui::PushStyleVarY</text>
</a>
</g>
</g>
<!-- Node2 -->
<g id="node2" class="node">
<title>Node2</title>
<g id="a_node2"><a xlink:href="imgui__demo_8cpp.html#a7ea459383a527c89e210e578e85ef5c8" target="_top" xlink:title=" ">
<polygon fill="white" stroke="#666666" points="322,-187 206,-187 206,-168 322,-168 322,-187"/>
<text text-anchor="middle" x="264" y="-175" font-family="Helvetica,sans-Serif" font-size="10.00">DemoWindowTables</text>
</a>
</g>
</g>
<!-- Node1&#45;&gt;Node2 -->
<g id="edge1" class="edge">
<title>Node1&#45;&gt;Node2</title>
<path fill="none" stroke="#63b8ff" d="M626.25,-162.89C607.43,-172.54 580.95,-184.4 556,-189.5 473.4,-206.4 374.94,-196.19 316.33,-187.02"/>
<polygon fill="#63b8ff" stroke="#63b8ff" points="628.13,-165.85 635.34,-158.09 624.86,-159.66 628.13,-165.85"/>
</g>
<!-- Node4 -->
<g id="node4" class="node">
<title>Node4</title>
<g id="a_node4"><a xlink:href="imgui__demo_8cpp.html#a401c106ef9206d8dd4b4bc3271a6de6f" target="_top" xlink:title=" ">
<polygon fill="white" stroke="#666666" points="554,-142.5 384,-142.5 384,-112.5 554,-112.5 554,-142.5"/>
<text text-anchor="start" x="392" y="-130.5" font-family="Helvetica,sans-Serif" font-size="10.00">DemoWindowWidgetsSelection</text>
<text text-anchor="middle" x="469" y="-119.5" font-family="Helvetica,sans-Serif" font-size="10.00">AndMultiSelect</text>
</a>
</g>
</g>
<!-- Node1&#45;&gt;Node4 -->
<g id="edge3" class="edge">
<title>Node1&#45;&gt;Node4</title>
<path fill="none" stroke="#63b8ff" d="M581.8,-140.4C572.72,-139.35 563.36,-138.27 554.08,-137.2"/>
<polygon fill="#63b8ff" stroke="#63b8ff" points="581.57,-143.9 591.9,-141.57 582.37,-136.94 581.57,-143.9"/>
</g>
<!-- Node6 -->
<g id="node6" class="node">
<title>Node6</title>
<g id="a_node6"><a xlink:href="imgui__demo_8cpp.html#a7bf86e72af534f0820ceedbaee604136" target="_top" xlink:title=" ">
<polygon fill="white" stroke="#666666" points="523,-180 415,-180 415,-161 523,-161 523,-180"/>
<text text-anchor="middle" x="469" y="-168" font-family="Helvetica,sans-Serif" font-size="10.00">PushStyleCompact</text>
</a>
</g>
</g>
<!-- Node1&#45;&gt;Node6 -->
<g id="edge6" class="edge">
<title>Node1&#45;&gt;Node6</title>
<path fill="none" stroke="#63b8ff" d="M581.87,-156.98C562.42,-159.33 541.62,-161.84 523.3,-164.06"/>
<polygon fill="#63b8ff" stroke="#63b8ff" points="582.39,-160.44 591.9,-155.76 581.55,-153.49 582.39,-160.44"/>
</g>
<!-- Node7 -->
<g id="node7" class="node">
<title>Node7</title>
<g id="a_node7"><a xlink:href="namespaceImGui.html#ab4a87bf4a874a8e5872b60b4a9b1d99e" target="_top" xlink:title=" ">
<polygon fill="white" stroke="#666666" points="556,-87 382,-87 382,-68 556,-68 556,-87"/>
<text text-anchor="middle" x="469" y="-75" font-family="Helvetica,sans-Serif" font-size="10.00">ImGui::ShowIDStackToolWindow</text>
</a>
</g>
</g>
<!-- Node1&#45;&gt;Node7 -->
<g id="edge8" class="edge">
<title>Node1&#45;&gt;Node7</title>
<path fill="none" stroke="#63b8ff" d="M624.62,-134.37C605.66,-124.91 579.67,-112.57 556,-103.5 539.83,-97.3 521.52,-91.59 505.96,-87.11"/>
<polygon fill="#63b8ff" stroke="#63b8ff" points="623.08,-137.51 633.58,-138.89 626.23,-131.26 623.08,-137.51"/>
</g>
<!-- Node3 -->
<g id="node3" class="node">
<title>Node3</title>
<g id="a_node3"><a xlink:href="namespaceImGui.html#af95643a0ce4893b9e57c12991922fb18" target="_top" xlink:title=" ">
<polygon fill="white" stroke="#666666" points="146,-131 0,-131 0,-112 146,-112 146,-131"/>
<text text-anchor="middle" x="73" y="-119" font-family="Helvetica,sans-Serif" font-size="10.00">ImGui::ShowDemoWindow</text>
</a>
</g>
</g>
<!-- Node2&#45;&gt;Node3 -->
<g id="edge2" class="edge">
<title>Node2&#45;&gt;Node3</title>
<path fill="none" stroke="#63b8ff" d="M205.9,-165.71C197.83,-163.79 189.68,-161.7 182,-159.5 152.95,-151.19 120.32,-139.36 98.61,-131.11"/>
<polygon fill="#63b8ff" stroke="#63b8ff" points="205.11,-169.12 215.65,-167.97 206.7,-162.3 205.11,-169.12"/>
</g>
<!-- Node5 -->
<g id="node5" class="node">
<title>Node5</title>
<g id="a_node5"><a xlink:href="imgui__demo_8cpp.html#a9a639caab781642cbc4f4a23bfbd11cd" target="_top" xlink:title=" ">
<polygon fill="white" stroke="#666666" points="326.5,-150 201.5,-150 201.5,-131 326.5,-131 326.5,-150"/>
<text text-anchor="middle" x="264" y="-138" font-family="Helvetica,sans-Serif" font-size="10.00">DemoWindowWidgets</text>
</a>
</g>
</g>
<!-- Node4&#45;&gt;Node5 -->
<g id="edge4" class="edge">
<title>Node4&#45;&gt;Node5</title>
<path fill="none" stroke="#63b8ff" d="M373.55,-133.55C357.63,-134.57 341.47,-135.6 326.66,-136.55"/>
<polygon fill="#63b8ff" stroke="#63b8ff" points="374.21,-137.01 383.97,-132.88 373.76,-130.03 374.21,-137.01"/>
</g>
<!-- Node5&#45;&gt;Node3 -->
<g id="edge5" class="edge">
<title>Node5&#45;&gt;Node3</title>
<path fill="none" stroke="#63b8ff" d="M191.27,-133.29C176.47,-131.8 160.87,-130.23 146.06,-128.74"/>
<polygon fill="#63b8ff" stroke="#63b8ff" points="191.08,-136.79 201.38,-134.3 191.78,-129.82 191.08,-136.79"/>
</g>
<!-- Node6&#45;&gt;Node2 -->
<g id="edge7" class="edge">
<title>Node6&#45;&gt;Node2</title>
<path fill="none" stroke="#63b8ff" d="M404.64,-172.68C378.21,-173.6 347.75,-174.65 322.03,-175.53"/>
<polygon fill="#63b8ff" stroke="#63b8ff" points="405.06,-176.17 414.93,-172.33 404.81,-169.18 405.06,-176.17"/>
</g>
<!-- Node7&#45;&gt;Node3 -->
<g id="edge9" class="edge">
<title>Node7&#45;&gt;Node3</title>
<path fill="none" stroke="#63b8ff" d="M372.4,-88.18C302.67,-95.96 209.66,-106.35 146.12,-113.45"/>
<polygon fill="#63b8ff" stroke="#63b8ff" points="372.96,-91.64 382.51,-87.05 372.18,-84.68 372.96,-91.64"/>
</g>
<!-- Node8 -->
<g id="node8" class="node">
<title>Node8</title>
<g id="a_node8"><a xlink:href="namespaceImGui.html#afe7a28c6eb52fff3cc27d5a698fea4ff" target="_top" xlink:title=" ">
<polygon fill="white" stroke="#666666" points="340.5,-74 187.5,-74 187.5,-55 340.5,-55 340.5,-74"/>
<text text-anchor="middle" x="264" y="-62" font-family="Helvetica,sans-Serif" font-size="10.00">ImGui::ShowMetricsWindow</text>
</a>
</g>
</g>
<!-- Node7&#45;&gt;Node8 -->
<g id="edge10" class="edge">
<title>Node7&#45;&gt;Node8</title>
<path fill="none" stroke="#63b8ff" d="M371.89,-71.34C361.39,-70.67 350.82,-70 340.62,-69.34"/>
<polygon fill="#63b8ff" stroke="#63b8ff" points="371.71,-74.84 381.91,-71.99 372.15,-67.85 371.71,-74.84"/>
</g>
<!-- Node9 -->
<g id="node9" class="node">
<title>Node9</title>
<g id="a_node9"><a xlink:href="namespaceImGui.html#a1b6e100d30894c9379908efc540e5486" target="_top" xlink:title=" ">
<polygon fill="white" stroke="#666666" points="346,-19 182,-19 182,0 346,0 346,-19"/>
<text text-anchor="middle" x="264" y="-7" font-family="Helvetica,sans-Serif" font-size="10.00">ImGui::ShowStackToolWindow</text>
</a>
</g>
</g>
<!-- Node7&#45;&gt;Node9 -->
<g id="edge12" class="edge">
<title>Node7&#45;&gt;Node9</title>
<path fill="none" stroke="#63b8ff" d="M429.76,-64.69C390.13,-51.42 329.11,-30.97 293.51,-19.05"/>
<polygon fill="#63b8ff" stroke="#63b8ff" points="428.75,-68.04 439.35,-67.9 430.98,-61.41 428.75,-68.04"/>
</g>
<!-- Node8&#45;&gt;Node3 -->
<g id="edge11" class="edge">
<title>Node8&#45;&gt;Node3</title>
<path fill="none" stroke="#63b8ff" d="M220.92,-76.89C208.39,-80.61 194.63,-84.7 182,-88.5 156.09,-96.3 126.73,-105.28 105.17,-111.9"/>
<polygon fill="#63b8ff" stroke="#63b8ff" points="222.06,-80.21 230.66,-74.01 220.08,-73.49 222.06,-80.21"/>
</g>
<!-- Node9&#45;&gt;Node9 -->
<g id="edge13" class="edge">
<title>Node9&#45;&gt;Node9</title>
<path fill="none" stroke="#63b8ff" d="M299.61,-27.07C299.09,-32.62 287.22,-37 264,-37 230.23,-37 220.47,-27.73 234.72,-19.08"/>
<polygon fill="#63b8ff" stroke="#63b8ff" points="302.23,-24.75 293.28,-19.08 296.75,-29.1 302.23,-24.75"/>
</g>
</g>
</svg>
