<?xml version="1.0" encoding="UTF-8" standalone="no"?>
<!DOCTYPE svg PUBLIC "-//W3C//DTD SVG 1.1//EN"
 "http://www.w3.org/Graphics/SVG/1.1/DTD/svg11.dtd">
<!-- Generated by graphviz version 2.43.0 (0)
 -->
<!-- Title: ImStb::is_word_boundary_from_right Pages: 1 -->
<svg width="501pt" height="86pt"
 viewBox="0.00 0.00 501.00 86.00" xmlns="http://www.w3.org/2000/svg" xmlns:xlink="http://www.w3.org/1999/xlink">
<g id="graph0" class="graph" transform="scale(1 1) rotate(0) translate(4 82)">
<title>ImStb::is_word_boundary_from_right</title>
<!-- Node1 -->
<g id="node1" class="node">
<title>Node1</title>
<g id="a_node1"><a xlink:title=" ">
<polygon fill="#999999" stroke="#666666" points="493,-54 353,-54 353,-24 493,-24 493,-54"/>
<text text-anchor="start" x="361" y="-42" font-family="Helvetica,sans-Serif" font-size="10.00">ImStb::is_word_boundary</text>
<text text-anchor="middle" x="423" y="-31" font-family="Helvetica,sans-Serif" font-size="10.00">_from_right</text>
</a>
</g>
</g>
<!-- Node2 -->
<g id="node2" class="node">
<title>Node2</title>
<g id="a_node2"><a xlink:href="namespaceImStb.html#aa17450e2c20f846067d1aee8dbaaf976" target="_top" xlink:title=" ">
<polygon fill="white" stroke="#666666" points="314.5,-78 180.5,-78 180.5,-48 314.5,-48 314.5,-78"/>
<text text-anchor="start" x="188.5" y="-66" font-family="Helvetica,sans-Serif" font-size="10.00">ImStb::STB_TEXTEDIT</text>
<text text-anchor="middle" x="247.5" y="-55" font-family="Helvetica,sans-Serif" font-size="10.00">_MOVEWORDLEFT_IMPL</text>
</a>
</g>
</g>
<!-- Node1&#45;&gt;Node2 -->
<g id="edge1" class="edge">
<title>Node1&#45;&gt;Node2</title>
<path fill="none" stroke="#63b8ff" d="M342.75,-49.96C333.3,-51.27 323.74,-52.59 314.51,-53.87"/>
<polygon fill="#63b8ff" stroke="#63b8ff" points="343.5,-53.39 352.93,-48.55 342.54,-46.46 343.5,-53.39"/>
</g>
<!-- Node3 -->
<g id="node3" class="node">
<title>Node3</title>
<g id="a_node3"><a xlink:href="namespaceImStb.html#aaadd38b7c62661755d9205493a834f1e" target="_top" xlink:title=" ">
<polygon fill="white" stroke="#666666" points="317,-30 178,-30 178,0 317,0 317,-30"/>
<text text-anchor="start" x="186" y="-18" font-family="Helvetica,sans-Serif" font-size="10.00">ImStb::STB_TEXTEDIT</text>
<text text-anchor="middle" x="247.5" y="-7" font-family="Helvetica,sans-Serif" font-size="10.00">_MOVEWORDRIGHT_WIN</text>
</a>
</g>
</g>
<!-- Node1&#45;&gt;Node3 -->
<g id="edge2" class="edge">
<title>Node1&#45;&gt;Node3</title>
<path fill="none" stroke="#63b8ff" d="M342.88,-28.05C334.25,-26.86 325.53,-25.66 317.05,-24.48"/>
<polygon fill="#63b8ff" stroke="#63b8ff" points="342.54,-31.54 352.93,-29.45 343.5,-24.61 342.54,-31.54"/>
</g>
<!-- Node4 -->
<g id="node4" class="node">
<title>Node4</title>
<g id="a_node4"><a xlink:href="namespaceImStb.html#a591af6c724a8088d03687aba81098ae9" target="_top" xlink:title=" ">
<polygon fill="white" stroke="#666666" points="142,-30 0,-30 0,0 142,0 142,-30"/>
<text text-anchor="start" x="8" y="-18" font-family="Helvetica,sans-Serif" font-size="10.00">ImStb::STB_TEXTEDIT</text>
<text text-anchor="middle" x="71" y="-7" font-family="Helvetica,sans-Serif" font-size="10.00">_MOVEWORDRIGHT_IMPL</text>
</a>
</g>
</g>
<!-- Node3&#45;&gt;Node4 -->
<g id="edge3" class="edge">
<title>Node3&#45;&gt;Node4</title>
<path fill="none" stroke="#63b8ff" d="M167.51,-15C159.04,-15 150.45,-15 142.09,-15"/>
<polygon fill="#63b8ff" stroke="#63b8ff" points="167.78,-18.5 177.78,-15 167.78,-11.5 167.78,-18.5"/>
</g>
</g>
</svg>
