<?xml version="1.0" encoding="UTF-8" standalone="no"?>
<!DOCTYPE svg PUBLIC "-//W3C//DTD SVG 1.1//EN"
 "http://www.w3.org/Graphics/SVG/1.1/DTD/svg11.dtd">
<!-- Generated by graphviz version 2.43.0 (0)
 -->
<!-- Title: ImGui::TreePush Pages: 1 -->
<svg width="910pt" height="138pt"
 viewBox="0.00 0.00 910.00 138.00" xmlns="http://www.w3.org/2000/svg" xmlns:xlink="http://www.w3.org/1999/xlink">
<g id="graph0" class="graph" transform="scale(1 1) rotate(0) translate(4 134)">
<title>ImGui::TreePush</title>
<!-- Node1 -->
<g id="node1" class="node">
<title>Node1</title>
<g id="a_node1"><a xlink:title=" ">
<polygon fill="#999999" stroke="#666666" points="95,-74 0,-74 0,-55 95,-55 95,-74"/>
<text text-anchor="middle" x="47.5" y="-62" font-family="Helvetica,sans-Serif" font-size="10.00">ImGui::TreePush</text>
</a>
</g>
</g>
<!-- Node2 -->
<g id="node2" class="node">
<title>Node2</title>
<g id="a_node2"><a xlink:href="namespaceImGui.html#ac452417b5004ca16a814a72cff153526" target="_top" xlink:title=" ">
<polygon fill="white" stroke="#666666" points="397,-107 253,-107 253,-88 397,-88 397,-107"/>
<text text-anchor="middle" x="325" y="-95" font-family="Helvetica,sans-Serif" font-size="10.00">ImGui::GetCurrentWindow</text>
</a>
</g>
</g>
<!-- Node1&#45;&gt;Node2 -->
<g id="edge1" class="edge">
<title>Node1&#45;&gt;Node2</title>
<path fill="none" stroke="#63b8ff" d="M95.35,-70.03C129.16,-74.02 175.91,-79.56 217,-84.5 225.35,-85.5 234.06,-86.55 242.75,-87.6"/>
<polygon fill="#63b8ff" stroke="#63b8ff" points="242.57,-91.11 252.92,-88.84 243.42,-84.16 242.57,-91.11"/>
</g>
<!-- Node3 -->
<g id="node3" class="node">
<title>Node3</title>
<g id="a_node3"><a xlink:href="namespaceImGui.html#a6c7b9f2d60951462eeebad80154a8926" target="_top" xlink:title=" ">
<polygon fill="white" stroke="#666666" points="215.5,-112 132.5,-112 132.5,-93 215.5,-93 215.5,-112"/>
<text text-anchor="middle" x="174" y="-100" font-family="Helvetica,sans-Serif" font-size="10.00">ImGui::Indent</text>
</a>
</g>
</g>
<!-- Node1&#45;&gt;Node3 -->
<g id="edge2" class="edge">
<title>Node1&#45;&gt;Node3</title>
<path fill="none" stroke="#63b8ff" d="M79.92,-74.09C95.69,-78.9 115.01,-84.8 131.94,-89.97"/>
<polygon fill="#63b8ff" stroke="#63b8ff" points="131.01,-93.34 141.59,-92.91 133.05,-86.65 131.01,-93.34"/>
</g>
<!-- Node4 -->
<g id="node4" class="node">
<title>Node4</title>
<g id="a_node4"><a xlink:href="namespaceImGui.html#a27a8533605dc5b8cabf161bf7715bbde" target="_top" xlink:title=" ">
<polygon fill="white" stroke="#666666" points="217,-36 131,-36 131,-17 217,-17 217,-36"/>
<text text-anchor="middle" x="174" y="-24" font-family="Helvetica,sans-Serif" font-size="10.00">ImGui::PushID</text>
</a>
</g>
</g>
<!-- Node1&#45;&gt;Node4 -->
<g id="edge4" class="edge">
<title>Node1&#45;&gt;Node4</title>
<path fill="none" stroke="#63b8ff" d="M79.92,-54.91C95.69,-50.1 115.01,-44.2 131.94,-39.03"/>
<polygon fill="#63b8ff" stroke="#63b8ff" points="133.05,-42.35 141.59,-36.09 131.01,-35.66 133.05,-42.35"/>
</g>
<!-- Node3&#45;&gt;Node2 -->
<g id="edge3" class="edge">
<title>Node3&#45;&gt;Node2</title>
<path fill="none" stroke="#63b8ff" d="M215.71,-101.13C224.19,-100.85 233.41,-100.54 242.78,-100.23"/>
<polygon fill="#63b8ff" stroke="#63b8ff" points="243.09,-103.72 252.96,-99.88 242.85,-96.72 243.09,-103.72"/>
</g>
<!-- Node5 -->
<g id="node5" class="node">
<title>Node5</title>
<g id="a_node5"><a xlink:href="structImGuiWindow.html#afe084e59f7cd4da393ae30f0b4410b16" target="_top" xlink:title=" ">
<polygon fill="white" stroke="#666666" points="384,-61 266,-61 266,-42 384,-42 384,-61"/>
<text text-anchor="middle" x="325" y="-49" font-family="Helvetica,sans-Serif" font-size="10.00">ImGuiWindow::GetID</text>
</a>
</g>
</g>
<!-- Node4&#45;&gt;Node5 -->
<g id="edge5" class="edge">
<title>Node4&#45;&gt;Node5</title>
<path fill="none" stroke="#63b8ff" d="M217.3,-33.6C229.64,-35.67 243.44,-37.98 256.91,-40.24"/>
<polygon fill="#63b8ff" stroke="#63b8ff" points="256.68,-43.75 267.12,-41.96 257.84,-36.85 256.68,-43.75"/>
</g>
<!-- Node13 -->
<g id="node13" class="node">
<title>Node13</title>
<g id="a_node13"><a xlink:href="structImVector.html#aab5df48e0711a48bd12f3206e08c4108" target="_top" xlink:title=" ">
<polygon fill="white" stroke="#666666" points="724,-19 606,-19 606,0 724,0 724,-19"/>
<text text-anchor="middle" x="665" y="-7" font-family="Helvetica,sans-Serif" font-size="10.00">ImVector::push_back</text>
</a>
</g>
</g>
<!-- Node4&#45;&gt;Node13 -->
<g id="edge13" class="edge">
<title>Node4&#45;&gt;Node13</title>
<path fill="none" stroke="#63b8ff" d="M217.12,-25.04C301.67,-22.1 492.75,-15.45 595.52,-11.88"/>
<polygon fill="#63b8ff" stroke="#63b8ff" points="595.92,-15.37 605.79,-11.52 595.68,-8.37 595.92,-15.37"/>
</g>
<!-- Node6 -->
<g id="node6" class="node">
<title>Node6</title>
<g id="a_node6"><a xlink:href="structImVector.html#a2d80e87e81b1b01143c8d8be93e6fde1" target="_top" xlink:title=" ">
<polygon fill="white" stroke="#666666" points="546,-56 457,-56 457,-37 546,-37 546,-56"/>
<text text-anchor="middle" x="501.5" y="-44" font-family="Helvetica,sans-Serif" font-size="10.00">ImVector::back</text>
</a>
</g>
</g>
<!-- Node5&#45;&gt;Node6 -->
<g id="edge6" class="edge">
<title>Node5&#45;&gt;Node6</title>
<path fill="none" stroke="#63b8ff" d="M384.11,-49.84C404.28,-49.26 426.81,-48.61 446.63,-48.04"/>
<polygon fill="#63b8ff" stroke="#63b8ff" points="446.83,-51.54 456.72,-47.75 446.63,-44.54 446.83,-51.54"/>
</g>
<!-- Node7 -->
<g id="node7" class="node">
<title>Node7</title>
<g id="a_node7"><a xlink:href="namespaceImGui.html#a5487269f4cb9fb809fd3e797411ed2d7" target="_top" xlink:title=" ">
<polygon fill="white" stroke="#666666" points="570,-93 433,-93 433,-74 570,-74 570,-93"/>
<text text-anchor="middle" x="501.5" y="-81" font-family="Helvetica,sans-Serif" font-size="10.00">ImGui::DebugHookIdInfo</text>
</a>
</g>
</g>
<!-- Node5&#45;&gt;Node7 -->
<g id="edge7" class="edge">
<title>Node5&#45;&gt;Node7</title>
<path fill="none" stroke="#63b8ff" d="M377.88,-61.01C396.96,-64.51 418.76,-68.51 438.63,-72.15"/>
<polygon fill="#63b8ff" stroke="#63b8ff" points="438.05,-75.61 448.52,-73.97 439.31,-68.72 438.05,-75.61"/>
</g>
<!-- Node12 -->
<g id="node12" class="node">
<title>Node12</title>
<g id="a_node12"><a xlink:href="imgui_8cpp.html#ab6659b5d67f7a3369e099ce890e12223" target="_top" xlink:title=" ">
<polygon fill="white" stroke="#666666" points="535.5,-130 467.5,-130 467.5,-111 535.5,-111 535.5,-130"/>
<text text-anchor="middle" x="501.5" y="-118" font-family="Helvetica,sans-Serif" font-size="10.00">ImHashStr</text>
</a>
</g>
</g>
<!-- Node5&#45;&gt;Node12 -->
<g id="edge12" class="edge">
<title>Node5&#45;&gt;Node12</title>
<path fill="none" stroke="#63b8ff" d="M353.85,-61.07C367.18,-66 383.19,-72.45 397,-79.5 413.91,-88.13 415.62,-94.85 433,-102.5 440.66,-105.87 449.08,-108.73 457.31,-111.11"/>
<polygon fill="#63b8ff" stroke="#63b8ff" points="456.62,-114.55 467.19,-113.78 458.45,-107.79 456.62,-114.55"/>
</g>
<!-- Node8 -->
<g id="node8" class="node">
<title>Node8</title>
<g id="a_node8"><a xlink:href="imgui_8cpp.html#a75ccaf7d676b1f567ba888ae42ac3809" target="_top" xlink:title=" ">
<polygon fill="white" stroke="#666666" points="711,-93 619,-93 619,-74 711,-74 711,-93"/>
<text text-anchor="middle" x="665" y="-81" font-family="Helvetica,sans-Serif" font-size="10.00">ImFormatString</text>
</a>
</g>
</g>
<!-- Node7&#45;&gt;Node8 -->
<g id="edge8" class="edge">
<title>Node7&#45;&gt;Node8</title>
<path fill="none" stroke="#63b8ff" d="M570.05,-83.5C582.89,-83.5 596.17,-83.5 608.57,-83.5"/>
<polygon fill="#63b8ff" stroke="#63b8ff" points="608.75,-87 618.75,-83.5 608.75,-80 608.75,-87"/>
</g>
<!-- Node9 -->
<g id="node9" class="node">
<title>Node9</title>
<g id="a_node9"><a xlink:href="structImVector.html#ac371dd62e56ae486b1a5038cf07eee56" target="_top" xlink:title=" ">
<polygon fill="white" stroke="#666666" points="712.5,-56 617.5,-56 617.5,-37 712.5,-37 712.5,-56"/>
<text text-anchor="middle" x="665" y="-44" font-family="Helvetica,sans-Serif" font-size="10.00">ImVector::resize</text>
</a>
</g>
</g>
<!-- Node7&#45;&gt;Node9 -->
<g id="edge9" class="edge">
<title>Node7&#45;&gt;Node9</title>
<path fill="none" stroke="#63b8ff" d="M544.09,-73.97C564.92,-69.2 590.34,-63.38 612.4,-58.32"/>
<polygon fill="#63b8ff" stroke="#63b8ff" points="613.3,-61.71 622.27,-56.06 611.74,-54.88 613.3,-61.71"/>
</g>
<!-- Node10 -->
<g id="node10" class="node">
<title>Node10</title>
<g id="a_node10"><a xlink:href="structImVector.html#a3a097635d464b1b70dc7d59996a88b28" target="_top" xlink:title=" ">
<polygon fill="white" stroke="#666666" points="902,-56 760,-56 760,-37 902,-37 902,-56"/>
<text text-anchor="middle" x="831" y="-44" font-family="Helvetica,sans-Serif" font-size="10.00">ImVector::_grow_capacity</text>
</a>
</g>
</g>
<!-- Node9&#45;&gt;Node10 -->
<g id="edge10" class="edge">
<title>Node9&#45;&gt;Node10</title>
<path fill="none" stroke="#63b8ff" d="M712.56,-46.5C724.14,-46.5 736.89,-46.5 749.59,-46.5"/>
<polygon fill="#63b8ff" stroke="#63b8ff" points="749.74,-50 759.74,-46.5 749.74,-43 749.74,-50"/>
</g>
<!-- Node11 -->
<g id="node11" class="node">
<title>Node11</title>
<g id="a_node11"><a xlink:href="structImVector.html#a0f14f5736c3372157856eebb67123b75" target="_top" xlink:title=" ">
<polygon fill="white" stroke="#666666" points="882.5,-19 779.5,-19 779.5,0 882.5,0 882.5,-19"/>
<text text-anchor="middle" x="831" y="-7" font-family="Helvetica,sans-Serif" font-size="10.00">ImVector::reserve</text>
</a>
</g>
</g>
<!-- Node9&#45;&gt;Node11 -->
<g id="edge11" class="edge">
<title>Node9&#45;&gt;Node11</title>
<path fill="none" stroke="#63b8ff" d="M708.23,-36.97C729.39,-32.2 755.19,-26.38 777.6,-21.32"/>
<polygon fill="#63b8ff" stroke="#63b8ff" points="778.64,-24.68 787.62,-19.06 777.1,-17.85 778.64,-24.68"/>
</g>
<!-- Node13&#45;&gt;Node10 -->
<g id="edge14" class="edge">
<title>Node13&#45;&gt;Node10</title>
<path fill="none" stroke="#63b8ff" d="M708.23,-19.03C729.39,-23.8 755.19,-29.62 777.6,-34.68"/>
<polygon fill="#63b8ff" stroke="#63b8ff" points="777.1,-38.15 787.62,-36.94 778.64,-31.32 777.1,-38.15"/>
</g>
<!-- Node13&#45;&gt;Node11 -->
<g id="edge15" class="edge">
<title>Node13&#45;&gt;Node11</title>
<path fill="none" stroke="#63b8ff" d="M724.28,-9.5C738.73,-9.5 754.25,-9.5 768.83,-9.5"/>
<polygon fill="#63b8ff" stroke="#63b8ff" points="769.25,-13 779.25,-9.5 769.25,-6 769.25,-13"/>
</g>
</g>
</svg>
