<?xml version="1.0" encoding="UTF-8" standalone="no"?>
<!DOCTYPE svg PUBLIC "-//W3C//DTD SVG 1.1//EN"
 "http://www.w3.org/Graphics/SVG/1.1/DTD/svg11.dtd">
<!-- Generated by graphviz version 2.43.0 (0)
 -->
<!-- Title: ImGui::PlotEx Pages: 1 -->
<svg width="823pt" height="1412pt"
 viewBox="0.00 0.00 823.00 1411.69" xmlns="http://www.w3.org/2000/svg" xmlns:xlink="http://www.w3.org/1999/xlink">
<g id="graph0" class="graph" transform="scale(1 1) rotate(0) translate(4 1407.69)">
<title>ImGui::PlotEx</title>
<!-- Node1 -->
<g id="node1" class="node">
<title>Node1</title>
<g id="a_node1"><a xlink:title=" ">
<polygon fill="#999999" stroke="#666666" points="83,-391.69 0,-391.69 0,-372.69 83,-372.69 83,-391.69"/>
<text text-anchor="middle" x="41.5" y="-379.69" font-family="Helvetica,sans-Serif" font-size="10.00">ImGui::PlotEx</text>
</a>
</g>
</g>
<!-- Node2 -->
<g id="node2" class="node">
<title>Node2</title>
<g id="a_node2"><a xlink:href="structImDrawList.html#aa21e5a1c6e00239581f97d344fc0db61" target="_top" xlink:title=" ">
<polygon fill="white" stroke="#666666" points="249,-1365.69 132,-1365.69 132,-1346.69 249,-1346.69 249,-1365.69"/>
<text text-anchor="middle" x="190.5" y="-1353.69" font-family="Helvetica,sans-Serif" font-size="10.00">ImDrawList::AddLine</text>
</a>
</g>
</g>
<!-- Node1&#45;&gt;Node2 -->
<g id="edge1" class="edge">
<title>Node1&#45;&gt;Node2</title>
<path fill="none" stroke="#63b8ff" d="M42.43,-391.79C42.13,-458.62 43.65,-861.02 119,-1176.19 133.58,-1237.16 164.41,-1304.98 180.02,-1337.2"/>
<polygon fill="#63b8ff" stroke="#63b8ff" points="176.97,-1338.92 184.52,-1346.36 183.25,-1335.84 176.97,-1338.92"/>
</g>
<!-- Node8 -->
<g id="node5" class="node">
<title>Node8</title>
<g id="a_node5"><a xlink:href="structImDrawList.html#a6b16ab764160b0251d2e7b3bd08c1ffc" target="_top" xlink:title=" ">
<polygon fill="white" stroke="#666666" points="453,-354.69 308,-354.69 308,-335.69 453,-335.69 453,-354.69"/>
<text text-anchor="middle" x="380.5" y="-342.69" font-family="Helvetica,sans-Serif" font-size="10.00">ImDrawList::AddRectFilled</text>
</a>
</g>
</g>
<!-- Node1&#45;&gt;Node8 -->
<g id="edge4" class="edge">
<title>Node1&#45;&gt;Node8</title>
<path fill="none" stroke="#63b8ff" d="M51.72,-392.08C65.05,-405.57 91.15,-429.09 119,-438.19 179.41,-457.94 208.21,-472.04 262,-438.19 293.29,-418.5 269.03,-386.16 298,-363.19 299.58,-361.94 301.22,-360.77 302.92,-359.68"/>
<polygon fill="#63b8ff" stroke="#63b8ff" points="304.71,-362.7 311.84,-354.86 301.38,-356.54 304.71,-362.7"/>
</g>
<!-- Node12 -->
<g id="node8" class="node">
<title>Node12</title>
<g id="a_node8"><a xlink:href="imgui__internal_8h.html#a7f9d7828066a9d61b5630adcdf4655d3" target="_top" xlink:title=" ">
<polygon fill="white" stroke="#666666" points="773.5,-261.69 726.5,-261.69 726.5,-242.69 773.5,-242.69 773.5,-261.69"/>
<text text-anchor="middle" x="750" y="-249.69" font-family="Helvetica,sans-Serif" font-size="10.00">ImMin</text>
</a>
</g>
</g>
<!-- Node1&#45;&gt;Node12 -->
<g id="edge61" class="edge">
<title>Node1&#45;&gt;Node12</title>
<path fill="none" stroke="#63b8ff" d="M41.99,-372.62C40.58,-335.21 41.06,-198.22 119,-141.19 216.33,-69.97 601.99,-199.5 716.67,-240.4"/>
<polygon fill="#63b8ff" stroke="#63b8ff" points="715.7,-243.77 726.3,-243.86 718.07,-237.18 715.7,-243.77"/>
</g>
<!-- Node23 -->
<g id="node11" class="node">
<title>Node23</title>
<g id="a_node11"><a xlink:href="namespaceImGui.html#a65a4f18b1bc8ce0f351687922089f374" target="_top" xlink:title=" ">
<polygon fill="white" stroke="#666666" points="254.5,-998.69 126.5,-998.69 126.5,-979.69 254.5,-979.69 254.5,-998.69"/>
<text text-anchor="middle" x="190.5" y="-986.69" font-family="Helvetica,sans-Serif" font-size="10.00">ImGui::ButtonBehavior</text>
</a>
</g>
</g>
<!-- Node1&#45;&gt;Node23 -->
<g id="edge11" class="edge">
<title>Node1&#45;&gt;Node23</title>
<path fill="none" stroke="#63b8ff" d="M44.81,-391.72C61.34,-459.99 161.71,-874.44 184.78,-969.69"/>
<polygon fill="#63b8ff" stroke="#63b8ff" points="181.44,-970.78 187.2,-979.68 188.24,-969.13 181.44,-970.78"/>
</g>
<!-- Node48 -->
<g id="node16" class="node">
<title>Node48</title>
<g id="a_node16"><a xlink:href="namespaceImGui.html#ac452417b5004ca16a814a72cff153526" target="_top" xlink:title=" ">
<polygon fill="white" stroke="#666666" points="452.5,-1327.69 308.5,-1327.69 308.5,-1308.69 452.5,-1308.69 452.5,-1327.69"/>
<text text-anchor="middle" x="380.5" y="-1315.69" font-family="Helvetica,sans-Serif" font-size="10.00">ImGui::GetCurrentWindow</text>
</a>
</g>
</g>
<!-- Node1&#45;&gt;Node48 -->
<g id="edge53" class="edge">
<title>Node1&#45;&gt;Node48</title>
<path fill="none" stroke="#63b8ff" d="M43.12,-392.13C47.61,-462.6 76.14,-887.18 119,-1008.19 169.07,-1149.54 178.53,-1203.56 298,-1294.19 303.74,-1298.54 310.25,-1302.11 317.03,-1305.02"/>
<polygon fill="#63b8ff" stroke="#63b8ff" points="315.81,-1308.31 326.4,-1308.62 318.32,-1301.77 315.81,-1308.31"/>
</g>
<!-- Node52 -->
<g id="node18" class="node">
<title>Node52</title>
<g id="a_node18"><a xlink:href="imgui__internal_8h.html#a7667efd95147d0422f140917c71a9226" target="_top" xlink:title=" ">
<polygon fill="white" stroke="#666666" points="599,-542.69 549,-542.69 549,-523.69 599,-523.69 599,-542.69"/>
<text text-anchor="middle" x="574" y="-530.69" font-family="Helvetica,sans-Serif" font-size="10.00">ImMax</text>
</a>
</g>
</g>
<!-- Node1&#45;&gt;Node52 -->
<g id="edge60" class="edge">
<title>Node1&#45;&gt;Node52</title>
<path fill="none" stroke="#63b8ff" d="M48.45,-391.84C59.78,-409.26 86.23,-445.65 119,-462.19 256.6,-531.65 311.47,-477.99 463,-506.19 488.7,-510.97 517.37,-518.07 539,-523.79"/>
<polygon fill="#63b8ff" stroke="#63b8ff" points="538.14,-527.18 548.71,-526.38 539.95,-520.42 538.14,-527.18"/>
</g>
<!-- Node94 -->
<g id="node27" class="node">
<title>Node94</title>
<g id="a_node27"><a xlink:href="namespaceImGui.html#a313073fa01b8a9791f241ef93091ce92" target="_top" xlink:title=" ">
<polygon fill="#fff0f0" stroke="red" points="624,-713.69 524,-713.69 524,-694.69 624,-694.69 624,-713.69"/>
<text text-anchor="middle" x="574" y="-701.69" font-family="Helvetica,sans-Serif" font-size="10.00">ImGui::SetTooltip</text>
</a>
</g>
</g>
<!-- Node1&#45;&gt;Node94 -->
<g id="edge74" class="edge">
<title>Node1&#45;&gt;Node94</title>
<path fill="none" stroke="#63b8ff" d="M42.23,-391.79C41.76,-428.72 45.34,-562.84 119,-627.19 176.89,-677.76 403.97,-695.8 513.41,-701.65"/>
<polygon fill="#63b8ff" stroke="#63b8ff" points="513.45,-705.16 523.62,-702.18 513.81,-698.17 513.45,-705.16"/>
</g>
<!-- Node496 -->
<g id="node30" class="node">
<title>Node496</title>
<g id="a_node30"><a xlink:href="namespaceImGui.html#acaef0497f7982dd98bf215e50129cd9b" target="_top" xlink:title=" ">
<polygon fill="white" stroke="#666666" points="248.5,-579.69 132.5,-579.69 132.5,-560.69 248.5,-560.69 248.5,-579.69"/>
<text text-anchor="middle" x="190.5" y="-567.69" font-family="Helvetica,sans-Serif" font-size="10.00">ImGui::CalcItemSize</text>
</a>
</g>
</g>
<!-- Node1&#45;&gt;Node496 -->
<g id="edge40" class="edge">
<title>Node1&#45;&gt;Node496</title>
<path fill="none" stroke="#63b8ff" d="M43.91,-392.03C48.65,-421.25 66.72,-508.25 119,-552.19 120.52,-553.47 122.13,-554.66 123.79,-555.77"/>
<polygon fill="#63b8ff" stroke="#63b8ff" points="122.14,-558.85 132.58,-560.64 125.53,-552.73 122.14,-558.85"/>
</g>
<!-- Node498 -->
<g id="node32" class="node">
<title>Node498</title>
<g id="a_node32"><a xlink:href="namespaceImGui.html#ab3b3ba92ebd8bca4a552dd93321a1994" target="_top" xlink:title=" ">
<polygon fill="white" stroke="#666666" points="252.5,-542.69 128.5,-542.69 128.5,-523.69 252.5,-523.69 252.5,-542.69"/>
<text text-anchor="middle" x="190.5" y="-530.69" font-family="Helvetica,sans-Serif" font-size="10.00">ImGui::CalcItemWidth</text>
</a>
</g>
</g>
<!-- Node1&#45;&gt;Node498 -->
<g id="edge43" class="edge">
<title>Node1&#45;&gt;Node498</title>
<path fill="none" stroke="#63b8ff" d="M45.63,-391.7C53.81,-415.16 78.12,-476.24 119,-509.19 124.09,-513.29 129.91,-516.71 135.99,-519.55"/>
<polygon fill="#63b8ff" stroke="#63b8ff" points="135.09,-522.96 145.67,-523.56 137.77,-516.5 135.09,-522.96"/>
</g>
<!-- Node168 -->
<g id="node33" class="node">
<title>Node168</title>
<g id="a_node33"><a xlink:href="namespaceImGui.html#a848b9db6cc4a186751c0ecebcaadc33b" target="_top" xlink:title=" ">
<polygon fill="white" stroke="#666666" points="247,-428.69 134,-428.69 134,-409.69 247,-409.69 247,-428.69"/>
<text text-anchor="middle" x="190.5" y="-416.69" font-family="Helvetica,sans-Serif" font-size="10.00">ImGui::CalcTextSize</text>
</a>
</g>
</g>
<!-- Node1&#45;&gt;Node168 -->
<g id="edge46" class="edge">
<title>Node1&#45;&gt;Node168</title>
<path fill="none" stroke="#63b8ff" d="M80.36,-391.72C99.06,-396.43 121.82,-402.16 141.72,-407.16"/>
<polygon fill="#63b8ff" stroke="#63b8ff" points="140.97,-410.58 151.52,-409.63 142.67,-403.79 140.97,-410.58"/>
</g>
<!-- Node104 -->
<g id="node36" class="node">
<title>Node104</title>
<g id="a_node36"><a xlink:href="structImRect.html#ac583156fd0e9306181fff5d120b262ea" target="_top" xlink:title=" ">
<polygon fill="white" stroke="#666666" points="240.5,-391.69 140.5,-391.69 140.5,-372.69 240.5,-372.69 240.5,-391.69"/>
<text text-anchor="middle" x="190.5" y="-379.69" font-family="Helvetica,sans-Serif" font-size="10.00">ImRect::Contains</text>
</a>
</g>
</g>
<!-- Node1&#45;&gt;Node104 -->
<g id="edge50" class="edge">
<title>Node1&#45;&gt;Node104</title>
<path fill="none" stroke="#63b8ff" d="M83.06,-382.19C97.63,-382.19 114.37,-382.19 130.21,-382.19"/>
<polygon fill="#63b8ff" stroke="#63b8ff" points="130.45,-385.69 140.45,-382.19 130.45,-378.69 130.45,-385.69"/>
</g>
<!-- Node142 -->
<g id="node37" class="node">
<title>Node142</title>
<g id="a_node37"><a xlink:href="namespaceImGui.html#a0de2d9bd347d9866511eb8d014e62556" target="_top" xlink:title=" ">
<polygon fill="white" stroke="#666666" points="437.5,-56.69 323.5,-56.69 323.5,-37.69 437.5,-37.69 437.5,-56.69"/>
<text text-anchor="middle" x="380.5" y="-44.69" font-family="Helvetica,sans-Serif" font-size="10.00">ImGui::GetColorU32</text>
</a>
</g>
</g>
<!-- Node1&#45;&gt;Node142 -->
<g id="edge51" class="edge">
<title>Node1&#45;&gt;Node142</title>
<path fill="none" stroke="#63b8ff" d="M43.02,-372.37C46.04,-319.91 63.1,-73.3 119,-28.19 186.3,26.12 297.9,-11.03 350.44,-33.51"/>
<polygon fill="#63b8ff" stroke="#63b8ff" points="349.28,-36.82 359.84,-37.65 352.1,-30.42 349.28,-36.82"/>
</g>
<!-- Node374 -->
<g id="node39" class="node">
<title>Node374</title>
<g id="a_node39"><a xlink:href="structImGuiWindow.html#afe084e59f7cd4da393ae30f0b4410b16" target="_top" xlink:title=" ">
<polygon fill="white" stroke="#666666" points="249.5,-354.69 131.5,-354.69 131.5,-335.69 249.5,-335.69 249.5,-354.69"/>
<text text-anchor="middle" x="190.5" y="-342.69" font-family="Helvetica,sans-Serif" font-size="10.00">ImGuiWindow::GetID</text>
</a>
</g>
</g>
<!-- Node1&#45;&gt;Node374 -->
<g id="edge54" class="edge">
<title>Node1&#45;&gt;Node374</title>
<path fill="none" stroke="#63b8ff" d="M80.36,-372.66C99.06,-367.95 121.82,-362.22 141.72,-357.22"/>
<polygon fill="#63b8ff" stroke="#63b8ff" points="142.67,-360.58 151.52,-354.75 140.97,-353.8 142.67,-360.58"/>
</g>
<!-- Node17 -->
<g id="node43" class="node">
<title>Node17</title>
<g id="a_node43"><a xlink:href="imgui__internal_8h.html#a6e61ede308bfd68c7434e17905a29fc8" target="_top" xlink:title=" ">
<polygon fill="white" stroke="#666666" points="221,-280.69 160,-280.69 160,-261.69 221,-261.69 221,-280.69"/>
<text text-anchor="middle" x="190.5" y="-268.69" font-family="Helvetica,sans-Serif" font-size="10.00">ImClamp</text>
</a>
</g>
</g>
<!-- Node1&#45;&gt;Node17 -->
<g id="edge58" class="edge">
<title>Node1&#45;&gt;Node17</title>
<path fill="none" stroke="#63b8ff" d="M47.6,-372.59C58.22,-353.57 84.59,-311.06 119,-289.19 128.21,-283.34 139.23,-279.38 149.8,-276.71"/>
<polygon fill="#63b8ff" stroke="#63b8ff" points="150.7,-280.1 159.71,-274.53 149.19,-273.26 150.7,-280.1"/>
</g>
<!-- Node297 -->
<g id="node44" class="node">
<title>Node297</title>
<g id="a_node44"><a xlink:href="imgui__internal_8h.html#a1d7813429922346e44eebd82d13f777c" target="_top" xlink:title=" ">
<polygon fill="white" stroke="#666666" points="215.5,-243.69 165.5,-243.69 165.5,-224.69 215.5,-224.69 215.5,-243.69"/>
<text text-anchor="middle" x="190.5" y="-231.69" font-family="Helvetica,sans-Serif" font-size="10.00">ImLerp</text>
</a>
</g>
</g>
<!-- Node1&#45;&gt;Node297 -->
<g id="edge59" class="edge">
<title>Node1&#45;&gt;Node297</title>
<path fill="none" stroke="#63b8ff" d="M45.29,-372.61C52.84,-348.4 76.08,-284.44 119,-252.19 129.41,-244.36 142.88,-239.92 155.25,-237.41"/>
<polygon fill="#63b8ff" stroke="#63b8ff" points="156,-240.83 165.28,-235.72 154.84,-233.93 156,-240.83"/>
</g>
<!-- Node325 -->
<g id="node45" class="node">
<title>Node325</title>
<g id="a_node45"><a xlink:href="imgui__internal_8h.html#acab424daf09fa4cb151b56403d8afcae" target="_top" xlink:title=" ">
<polygon fill="white" stroke="#666666" points="226,-206.69 155,-206.69 155,-187.69 226,-187.69 226,-206.69"/>
<text text-anchor="middle" x="190.5" y="-194.69" font-family="Helvetica,sans-Serif" font-size="10.00">ImSaturate</text>
</a>
</g>
</g>
<!-- Node1&#45;&gt;Node325 -->
<g id="edge62" class="edge">
<title>Node1&#45;&gt;Node325</title>
<path fill="none" stroke="#63b8ff" d="M43.97,-372.52C48.87,-343.8 67.35,-258.31 119,-215.19 126.34,-209.07 135.49,-204.99 144.75,-202.29"/>
<polygon fill="#63b8ff" stroke="#63b8ff" points="145.86,-205.62 154.76,-199.86 144.21,-198.81 145.86,-205.62"/>
</g>
<!-- Node285 -->
<g id="node46" class="node">
<title>Node285</title>
<g id="a_node46"><a xlink:href="namespaceImGui.html#a0c2ccafc8d403c02a6590ac21157b9ac" target="_top" xlink:title=" ">
<polygon fill="#fff0f0" stroke="red" points="237,-169.69 144,-169.69 144,-150.69 237,-150.69 237,-169.69"/>
<text text-anchor="middle" x="190.5" y="-157.69" font-family="Helvetica,sans-Serif" font-size="10.00">ImGui::ItemAdd</text>
</a>
</g>
</g>
<!-- Node1&#45;&gt;Node285 -->
<g id="edge63" class="edge">
<title>Node1&#45;&gt;Node285</title>
<path fill="none" stroke="#63b8ff" d="M43.1,-372.35C45.65,-339.47 58.45,-232.48 119,-178.19 123.46,-174.19 128.68,-171.06 134.24,-168.6"/>
<polygon fill="#63b8ff" stroke="#63b8ff" points="135.64,-171.82 143.82,-165.08 133.23,-165.25 135.64,-171.82"/>
</g>
<!-- Node490 -->
<g id="node47" class="node">
<title>Node490</title>
<g id="a_node47"><a xlink:href="namespaceImGui.html#a4b5818a652d943ea54e0cec9fb3943d7" target="_top" xlink:title=" ">
<polygon fill="#fff0f0" stroke="red" points="238,-617.69 143,-617.69 143,-598.69 238,-598.69 238,-617.69"/>
<text text-anchor="middle" x="190.5" y="-605.69" font-family="Helvetica,sans-Serif" font-size="10.00">ImGui::ItemSize</text>
</a>
</g>
</g>
<!-- Node1&#45;&gt;Node490 -->
<g id="edge64" class="edge">
<title>Node1&#45;&gt;Node490</title>
<path fill="none" stroke="#63b8ff" d="M43.08,-392.14C45.56,-425.39 58.17,-533.64 119,-589.19 123.15,-592.98 127.99,-596.03 133.14,-598.48"/>
<polygon fill="#63b8ff" stroke="#63b8ff" points="132.09,-601.83 142.67,-602.27 134.67,-595.32 132.09,-601.83"/>
</g>
<!-- Node434 -->
<g id="node48" class="node">
<title>Node434</title>
<g id="a_node48"><a xlink:href="namespaceImGui.html#a6eb97ff501764c37df4ffd99ebadeba7" target="_top" xlink:title=" ">
<polygon fill="#fff0f0" stroke="red" points="249,-317.69 132,-317.69 132,-298.69 249,-298.69 249,-317.69"/>
<text text-anchor="middle" x="190.5" y="-305.69" font-family="Helvetica,sans-Serif" font-size="10.00">ImGui::RenderFrame</text>
</a>
</g>
</g>
<!-- Node1&#45;&gt;Node434 -->
<g id="edge66" class="edge">
<title>Node1&#45;&gt;Node434</title>
<path fill="none" stroke="#63b8ff" d="M53.05,-372.4C67.07,-359.89 93.1,-338.41 119,-326.19 123.09,-324.26 127.42,-322.51 131.84,-320.94"/>
<polygon fill="#63b8ff" stroke="#63b8ff" points="133.17,-324.19 141.61,-317.77 131.01,-317.53 133.17,-324.19"/>
</g>
<!-- Node492 -->
<g id="node49" class="node">
<title>Node492</title>
<g id="a_node49"><a xlink:href="namespaceImGui.html#a9971ce57f2a288ac3a12df886c5550d1" target="_top" xlink:title=" ">
<polygon fill="#fff0f0" stroke="red" points="244,-56.69 137,-56.69 137,-37.69 244,-37.69 244,-56.69"/>
<text text-anchor="middle" x="190.5" y="-44.69" font-family="Helvetica,sans-Serif" font-size="10.00">ImGui::RenderText</text>
</a>
</g>
</g>
<!-- Node1&#45;&gt;Node492 -->
<g id="edge69" class="edge">
<title>Node1&#45;&gt;Node492</title>
<path fill="none" stroke="#63b8ff" d="M43.49,-372.67C48.62,-324.8 73.86,-110.92 119,-65.19 121.56,-62.59 124.44,-60.35 127.54,-58.42"/>
<polygon fill="#63b8ff" stroke="#63b8ff" points="129.4,-61.4 136.74,-53.76 126.24,-55.16 129.4,-61.4"/>
</g>
<!-- Node451 -->
<g id="node50" class="node">
<title>Node451</title>
<g id="a_node50"><a xlink:href="namespaceImGui.html#ab362eafae794c7364a6b96ea06f38eb9" target="_top" xlink:title=" ">
<polygon fill="#fff0f0" stroke="red" points="262,-93.69 119,-93.69 119,-74.69 262,-74.69 262,-93.69"/>
<text text-anchor="middle" x="190.5" y="-81.69" font-family="Helvetica,sans-Serif" font-size="10.00">ImGui::RenderTextClipped</text>
</a>
</g>
</g>
<!-- Node1&#45;&gt;Node451 -->
<g id="edge72" class="edge">
<title>Node1&#45;&gt;Node451</title>
<path fill="none" stroke="#63b8ff" d="M42.19,-372.67C41.48,-334.07 44.01,-187.49 119,-108.19 122.63,-104.35 126.89,-101.13 131.49,-98.42"/>
<polygon fill="#63b8ff" stroke="#63b8ff" points="133.31,-101.43 140.69,-93.83 130.18,-95.17 133.31,-101.43"/>
</g>
<!-- Node3 -->
<g id="node3" class="node">
<title>Node3</title>
<g id="a_node3"><a xlink:href="structImDrawList.html#a828d944325ed58d8b57abd3647bffaaf" target="_top" xlink:title=" ">
<polygon fill="#fff0f0" stroke="red" points="815,-1350.69 685,-1350.69 685,-1331.69 815,-1331.69 815,-1350.69"/>
<text text-anchor="middle" x="750" y="-1338.69" font-family="Helvetica,sans-Serif" font-size="10.00">ImDrawList::PathLineTo</text>
</a>
</g>
</g>
<!-- Node2&#45;&gt;Node3 -->
<g id="edge2" class="edge">
<title>Node2&#45;&gt;Node3</title>
<path fill="none" stroke="#63b8ff" d="M249.06,-1354.64C350.77,-1351.9 562.12,-1346.22 674.69,-1343.19"/>
<polygon fill="#63b8ff" stroke="#63b8ff" points="675.03,-1346.68 684.93,-1342.91 674.84,-1339.68 675.03,-1346.68"/>
</g>
<!-- Node7 -->
<g id="node4" class="node">
<title>Node7</title>
<g id="a_node4"><a xlink:href="structImDrawList.html#a60bf9040ef3d09b39c4ba8f5a2a68ae9" target="_top" xlink:title=" ">
<polygon fill="white" stroke="#666666" points="445.5,-1403.69 315.5,-1403.69 315.5,-1384.69 445.5,-1384.69 445.5,-1403.69"/>
<text text-anchor="middle" x="380.5" y="-1391.69" font-family="Helvetica,sans-Serif" font-size="10.00">ImDrawList::PathStroke</text>
</a>
</g>
</g>
<!-- Node2&#45;&gt;Node7 -->
<g id="edge3" class="edge">
<title>Node2&#45;&gt;Node7</title>
<path fill="none" stroke="#63b8ff" d="M238.94,-1365.78C264.31,-1370.91 295.73,-1377.26 322.42,-1382.65"/>
<polygon fill="#63b8ff" stroke="#63b8ff" points="321.91,-1386.12 332.4,-1384.67 323.29,-1379.26 321.91,-1386.12"/>
</g>
<!-- Node9 -->
<g id="node6" class="node">
<title>Node9</title>
<g id="a_node6"><a xlink:href="structImDrawList.html#aea9301cb99ebf4b27f5d3959017567c9" target="_top" xlink:title=" ">
<polygon fill="white" stroke="#666666" points="649,-409.69 499,-409.69 499,-390.69 649,-390.69 649,-409.69"/>
<text text-anchor="middle" x="574" y="-397.69" font-family="Helvetica,sans-Serif" font-size="10.00">ImDrawList::PathFillConvex</text>
</a>
</g>
</g>
<!-- Node8&#45;&gt;Node9 -->
<g id="edge5" class="edge">
<title>Node8&#45;&gt;Node9</title>
<path fill="none" stroke="#63b8ff" d="M434.7,-354.78C444.25,-357.11 454.02,-359.9 463,-363.19 479.99,-369.42 482.08,-375.78 499,-382.19 504.54,-384.29 510.42,-386.21 516.33,-387.94"/>
<polygon fill="#63b8ff" stroke="#63b8ff" points="515.71,-391.4 526.28,-390.68 517.57,-384.65 515.71,-391.4"/>
</g>
<!-- Node10 -->
<g id="node7" class="node">
<title>Node10</title>
<g id="a_node7"><a xlink:href="structImDrawList.html#a2251eb264ed8b17a253c409787375053" target="_top" xlink:title=" ">
<polygon fill="#fff0f0" stroke="red" points="634.5,-372.69 513.5,-372.69 513.5,-353.69 634.5,-353.69 634.5,-372.69"/>
<text text-anchor="middle" x="574" y="-360.69" font-family="Helvetica,sans-Serif" font-size="10.00">ImDrawList::PathRect</text>
</a>
</g>
</g>
<!-- Node8&#45;&gt;Node10 -->
<g id="edge6" class="edge">
<title>Node8&#45;&gt;Node10</title>
<path fill="none" stroke="#63b8ff" d="M453.08,-351.92C469.53,-353.46 487,-355.11 503.37,-356.64"/>
<polygon fill="#63b8ff" stroke="#63b8ff" points="503.12,-360.14 513.4,-357.59 503.77,-353.17 503.12,-360.14"/>
</g>
<!-- Node19 -->
<g id="node9" class="node">
<title>Node19</title>
<g id="a_node9"><a xlink:href="structImDrawList.html#ae2be093563f1d20b8190b7c423113925" target="_top" xlink:title=" ">
<polygon fill="white" stroke="#666666" points="635,-335.69 513,-335.69 513,-316.69 635,-316.69 635,-335.69"/>
<text text-anchor="middle" x="574" y="-323.69" font-family="Helvetica,sans-Serif" font-size="10.00">ImDrawList::PrimRect</text>
</a>
</g>
</g>
<!-- Node8&#45;&gt;Node19 -->
<g id="edge9" class="edge">
<title>Node8&#45;&gt;Node19</title>
<path fill="none" stroke="#63b8ff" d="M453.08,-338.09C469.2,-336.49 486.3,-334.79 502.38,-333.2"/>
<polygon fill="#63b8ff" stroke="#63b8ff" points="503.18,-336.63 512.79,-332.16 502.49,-329.67 503.18,-336.63"/>
</g>
<!-- Node20 -->
<g id="node10" class="node">
<title>Node20</title>
<g id="a_node10"><a xlink:href="structImDrawList.html#a879aa38dbfb0344e3e023d65c002c7d7" target="_top" xlink:title=" ">
<polygon fill="#fff0f0" stroke="red" points="644,-298.69 504,-298.69 504,-279.69 644,-279.69 644,-298.69"/>
<text text-anchor="middle" x="574" y="-286.69" font-family="Helvetica,sans-Serif" font-size="10.00">ImDrawList::PrimReserve</text>
</a>
</g>
</g>
<!-- Node8&#45;&gt;Node20 -->
<g id="edge10" class="edge">
<title>Node8&#45;&gt;Node20</title>
<path fill="none" stroke="#63b8ff" d="M431.67,-335.63C442.17,-333.04 453.06,-329.9 463,-326.19 479.95,-319.86 482.08,-313.6 499,-307.19 504.54,-305.09 510.42,-303.17 516.33,-301.44"/>
<polygon fill="#63b8ff" stroke="#63b8ff" points="517.57,-304.73 526.28,-298.7 515.71,-297.98 517.57,-304.73"/>
</g>
<!-- Node10&#45;&gt;Node3 -->
<g id="edge8" class="edge">
<title>Node10&#45;&gt;Node3</title>
<path fill="none" stroke="#63b8ff" d="M634.59,-370.81C640.1,-373.63 645.08,-377.34 649,-382.19 710.82,-458.62 649.13,-1174.67 685,-1266.19 694.17,-1289.59 713.87,-1310.81 729.01,-1324.67"/>
<polygon fill="#63b8ff" stroke="#63b8ff" points="727.03,-1327.59 736.85,-1331.57 731.66,-1322.33 727.03,-1327.59"/>
</g>
<!-- Node10&#45;&gt;Node12 -->
<g id="edge7" class="edge">
<title>Node10&#45;&gt;Node12</title>
<path fill="none" stroke="#63b8ff" d="M626.02,-353.63C633.97,-351.15 641.89,-348.05 649,-344.19 684.35,-324.99 716.97,-290.55 734.82,-269.69"/>
<polygon fill="#63b8ff" stroke="#63b8ff" points="737.59,-271.84 741.32,-261.92 732.22,-267.34 737.59,-271.84"/>
</g>
<!-- Node24 -->
<g id="node12" class="node">
<title>Node24</title>
<g id="a_node12"><a xlink:href="namespaceImGui.html#ab9804506fa0fe8823f63eadb3043916f" target="_top" xlink:title=" ">
<polygon fill="white" stroke="#666666" points="459.5,-1026.19 301.5,-1026.19 301.5,-996.19 459.5,-996.19 459.5,-1026.19"/>
<text text-anchor="start" x="309.5" y="-1014.19" font-family="Helvetica,sans-Serif" font-size="10.00">ImGui::CalcTypematicRepeat</text>
<text text-anchor="middle" x="380.5" y="-1003.19" font-family="Helvetica,sans-Serif" font-size="10.00">Amount</text>
</a>
</g>
</g>
<!-- Node23&#45;&gt;Node24 -->
<g id="edge12" class="edge">
<title>Node23&#45;&gt;Node24</title>
<path fill="none" stroke="#63b8ff" d="M254.62,-996.58C266.29,-997.94 278.67,-999.39 290.93,-1000.82"/>
<polygon fill="#63b8ff" stroke="#63b8ff" points="290.84,-1004.34 301.18,-1002.02 291.65,-997.39 290.84,-1004.34"/>
</g>
<!-- Node25 -->
<g id="node13" class="node">
<title>Node25</title>
<g id="a_node13"><a xlink:href="namespaceImGui.html#a17ff60ad1e2669130ac38a04d16eb354" target="_top" xlink:title=" ">
<polygon fill="white" stroke="#666666" points="633.5,-1227.69 514.5,-1227.69 514.5,-1208.69 633.5,-1208.69 633.5,-1227.69"/>
<text text-anchor="middle" x="574" y="-1215.69" font-family="Helvetica,sans-Serif" font-size="10.00">ImGui::ClearActiveID</text>
</a>
</g>
</g>
<!-- Node23&#45;&gt;Node25 -->
<g id="edge13" class="edge">
<title>Node23&#45;&gt;Node25</title>
<path fill="none" stroke="#63b8ff" d="M195.7,-998.79C214.8,-1042.4 292.73,-1219.8 298,-1223.19 371.33,-1270.39 480,-1247.7 536.26,-1230.82"/>
<polygon fill="#63b8ff" stroke="#63b8ff" points="537.62,-1234.06 546.13,-1227.75 535.54,-1227.37 537.62,-1234.06"/>
</g>
<!-- Node26 -->
<g id="node14" class="node">
<title>Node26</title>
<g id="a_node14"><a xlink:href="namespaceImGui.html#a27b8ace13a8c421ee8405f0cbebe4ead" target="_top" xlink:title=" ">
<polygon fill="#fff0f0" stroke="red" points="804.5,-1256.69 695.5,-1256.69 695.5,-1237.69 804.5,-1237.69 804.5,-1256.69"/>
<text text-anchor="middle" x="750" y="-1244.69" font-family="Helvetica,sans-Serif" font-size="10.00">ImGui::SetActiveID</text>
</a>
</g>
</g>
<!-- Node23&#45;&gt;Node26 -->
<g id="edge35" class="edge">
<title>Node23&#45;&gt;Node26</title>
<path fill="none" stroke="#63b8ff" d="M254.58,-998.01C257.28,-999.77 259.78,-1001.82 262,-1004.19 337.86,-1085.14 214.09,-1178.62 298,-1251.19 354.21,-1299.8 575.03,-1274.12 685.44,-1257.6"/>
<polygon fill="#63b8ff" stroke="#63b8ff" points="686.09,-1261.04 695.45,-1256.08 685.04,-1254.12 686.09,-1261.04"/>
</g>
<!-- Node28 -->
<g id="node15" class="node">
<title>Node28</title>
<g id="a_node15"><a xlink:href="namespaceImGui.html#a27aa6f2f3aa11778c6d023b1b223f262" target="_top" xlink:title=" ">
<polygon fill="#fff0f0" stroke="red" points="440,-1213.69 321,-1213.69 321,-1194.69 440,-1194.69 440,-1213.69"/>
<text text-anchor="middle" x="380.5" y="-1201.69" font-family="Helvetica,sans-Serif" font-size="10.00">ImGui::FocusWindow</text>
</a>
</g>
</g>
<!-- Node23&#45;&gt;Node28 -->
<g id="edge15" class="edge">
<title>Node23&#45;&gt;Node28</title>
<path fill="none" stroke="#63b8ff" d="M194.03,-998.83C202.75,-1030.08 234.53,-1129.46 298,-1180.19 303.34,-1184.46 309.42,-1187.97 315.8,-1190.85"/>
<polygon fill="#63b8ff" stroke="#63b8ff" points="314.71,-1194.19 325.3,-1194.65 317.31,-1187.69 314.71,-1194.19"/>
</g>
<!-- Node23&#45;&gt;Node48 -->
<g id="edge17" class="edge">
<title>Node23&#45;&gt;Node48</title>
<path fill="none" stroke="#63b8ff" d="M196.58,-998.99C209.13,-1023.54 242.07,-1089.9 262,-1148.19 283.63,-1211.43 251.81,-1245.89 298,-1294.19 301.67,-1298.02 305.91,-1301.25 310.5,-1303.97"/>
<polygon fill="#63b8ff" stroke="#63b8ff" points="309.17,-1307.22 319.68,-1308.6 312.32,-1300.97 309.17,-1307.22"/>
</g>
<!-- Node49 -->
<g id="node17" class="node">
<title>Node49</title>
<g id="a_node17"><a xlink:href="namespaceImGui.html#a6d32d70d6beb45537b605508b78216c3" target="_top" xlink:title=" ">
<polygon fill="#fff0f0" stroke="red" points="435.5,-939.69 325.5,-939.69 325.5,-920.69 435.5,-920.69 435.5,-939.69"/>
<text text-anchor="middle" x="380.5" y="-927.69" font-family="Helvetica,sans-Serif" font-size="10.00">ImGui::GetKeyData</text>
</a>
</g>
</g>
<!-- Node23&#45;&gt;Node49 -->
<g id="edge18" class="edge">
<title>Node23&#45;&gt;Node49</title>
<path fill="none" stroke="#63b8ff" d="M219.9,-979.59C241.31,-972.42 271.43,-962.47 298,-954.19 310.45,-950.31 324.01,-946.25 336.44,-942.6"/>
<polygon fill="#63b8ff" stroke="#63b8ff" points="337.51,-945.93 346.12,-939.76 335.54,-939.21 337.51,-945.93"/>
</g>
<!-- Node23&#45;&gt;Node52 -->
<g id="edge19" class="edge">
<title>Node23&#45;&gt;Node52</title>
<path fill="none" stroke="#63b8ff" d="M192.84,-979.51C198.61,-940.82 224.51,-795.08 298,-705.19 307.24,-693.89 481.84,-588.1 547.94,-548.27"/>
<polygon fill="#63b8ff" stroke="#63b8ff" points="550.11,-551.04 556.87,-542.89 546.5,-545.05 550.11,-551.04"/>
</g>
<!-- Node53 -->
<g id="node19" class="node">
<title>Node53</title>
<g id="a_node19"><a xlink:href="namespaceImGui.html#ac9a400eff3a9561d95e80486c52a660b" target="_top" xlink:title=" ">
<polygon fill="#fff0f0" stroke="red" points="636,-882.69 512,-882.69 512,-863.69 636,-863.69 636,-882.69"/>
<text text-anchor="middle" x="574" y="-870.69" font-family="Helvetica,sans-Serif" font-size="10.00">ImGui::IsItemHovered</text>
</a>
</g>
</g>
<!-- Node23&#45;&gt;Node53 -->
<g id="edge20" class="edge">
<title>Node23&#45;&gt;Node53</title>
<path fill="none" stroke="#63b8ff" d="M201.35,-979.44C219.02,-962.6 258.01,-928.32 298,-912.19 363.81,-885.64 444.83,-876.73 501.83,-873.95"/>
<polygon fill="#63b8ff" stroke="#63b8ff" points="501.99,-877.44 511.83,-873.51 501.69,-870.45 501.99,-877.44"/>
</g>
<!-- Node61 -->
<g id="node20" class="node">
<title>Node61</title>
<g id="a_node20"><a xlink:href="namespaceImGui.html#a2d430db9485d0b3d86d51d5436225495" target="_top" xlink:title=" ">
<polygon fill="white" stroke="#666666" points="444.5,-808.69 316.5,-808.69 316.5,-789.69 444.5,-789.69 444.5,-808.69"/>
<text text-anchor="middle" x="380.5" y="-796.69" font-family="Helvetica,sans-Serif" font-size="10.00">ImGui::IsMouseClicked</text>
</a>
</g>
</g>
<!-- Node23&#45;&gt;Node61 -->
<g id="edge21" class="edge">
<title>Node23&#45;&gt;Node61</title>
<path fill="none" stroke="#63b8ff" d="M195.87,-979.61C208.3,-953.35 246.27,-879.27 298,-836.19 310.03,-826.17 325.21,-818.31 339.21,-812.45"/>
<polygon fill="#63b8ff" stroke="#63b8ff" points="340.64,-815.65 348.65,-808.72 338.06,-809.14 340.64,-815.65"/>
</g>
<!-- Node62 -->
<g id="node21" class="node">
<title>Node62</title>
<g id="a_node21"><a xlink:href="namespaceImGui.html#aed7dae248aa865bf06c1d60c0e809537" target="_top" xlink:title=" ">
<polygon fill="white" stroke="#666666" points="440.5,-1137.69 320.5,-1137.69 320.5,-1118.69 440.5,-1118.69 440.5,-1137.69"/>
<text text-anchor="middle" x="380.5" y="-1125.69" font-family="Helvetica,sans-Serif" font-size="10.00">ImGui::IsMouseDown</text>
</a>
</g>
</g>
<!-- Node23&#45;&gt;Node62 -->
<g id="edge23" class="edge">
<title>Node23&#45;&gt;Node62</title>
<path fill="none" stroke="#63b8ff" d="M197.01,-998.89C210.78,-1022.15 249.08,-1081.31 298,-1110.19 301.97,-1112.53 306.21,-1114.57 310.59,-1116.34"/>
<polygon fill="#63b8ff" stroke="#63b8ff" points="309.77,-1119.76 320.36,-1119.82 312.11,-1113.17 309.77,-1119.76"/>
</g>
<!-- Node63 -->
<g id="node22" class="node">
<title>Node63</title>
<g id="a_node22"><a xlink:href="namespaceImGui.html#a25689086f813c9714c4bbd4e3d5e669c" target="_top" xlink:title=" ">
<polygon fill="white" stroke="#666666" points="646.5,-1137.69 501.5,-1137.69 501.5,-1118.69 646.5,-1118.69 646.5,-1137.69"/>
<text text-anchor="middle" x="574" y="-1125.69" font-family="Helvetica,sans-Serif" font-size="10.00">ImGui::MouseButtonToKey</text>
</a>
</g>
</g>
<!-- Node23&#45;&gt;Node63 -->
<g id="edge34" class="edge">
<title>Node23&#45;&gt;Node63</title>
<path fill="none" stroke="#63b8ff" d="M194.5,-999.08C203.99,-1028.33 236.38,-1114.41 298,-1147.19 376.36,-1188.87 485.51,-1160.19 539.71,-1141.22"/>
<polygon fill="#63b8ff" stroke="#63b8ff" points="540.95,-1144.49 549.18,-1137.81 538.58,-1137.9 540.95,-1144.49"/>
</g>
<!-- Node64 -->
<g id="node23" class="node">
<title>Node64</title>
<g id="a_node23"><a xlink:href="namespaceImGui.html#ad12c5be2f1c691e4e6656524248824fb" target="_top" xlink:title=" ">
<polygon fill="#fff0f0" stroke="red" points="634.5,-1100.69 513.5,-1100.69 513.5,-1081.69 634.5,-1081.69 634.5,-1100.69"/>
<text text-anchor="middle" x="574" y="-1088.69" font-family="Helvetica,sans-Serif" font-size="10.00">ImGui::TestKeyOwner</text>
</a>
</g>
</g>
<!-- Node23&#45;&gt;Node64 -->
<g id="edge39" class="edge">
<title>Node23&#45;&gt;Node64</title>
<path fill="none" stroke="#63b8ff" d="M232.35,-979.65C287.06,-968.9 386.14,-956.61 463,-987.19 506.71,-1004.58 543.08,-1048.51 561,-1073.35"/>
<polygon fill="#63b8ff" stroke="#63b8ff" points="558.14,-1075.37 566.75,-1081.55 563.88,-1071.36 558.14,-1075.37"/>
</g>
<!-- Node67 -->
<g id="node24" class="node">
<title>Node67</title>
<g id="a_node24"><a xlink:href="namespaceImGui.html#ae53a0c1818d2804e3b1331f0c1777434" target="_top" xlink:title=" ">
<polygon fill="white" stroke="#666666" points="449,-1100.69 312,-1100.69 312,-1081.69 449,-1081.69 449,-1100.69"/>
<text text-anchor="middle" x="380.5" y="-1088.69" font-family="Helvetica,sans-Serif" font-size="10.00">ImGui::IsMouseReleased</text>
</a>
</g>
</g>
<!-- Node23&#45;&gt;Node67 -->
<g id="edge26" class="edge">
<title>Node23&#45;&gt;Node67</title>
<path fill="none" stroke="#63b8ff" d="M200.75,-998.96C218.08,-1016.65 257.36,-1053.93 298,-1073.19 302.28,-1075.22 306.79,-1077.02 311.4,-1078.62"/>
<polygon fill="#63b8ff" stroke="#63b8ff" points="310.4,-1081.97 320.99,-1081.64 312.5,-1075.3 310.4,-1081.97"/>
</g>
<!-- Node68 -->
<g id="node25" class="node">
<title>Node68</title>
<g id="a_node25"><a xlink:href="namespaceImGui.html#a1d7304e335dbe35c4d97b67854111ed2" target="_top" xlink:title=" ">
<polygon fill="#fff0f0" stroke="red" points="443,-863.69 318,-863.69 318,-844.69 443,-844.69 443,-863.69"/>
<text text-anchor="middle" x="380.5" y="-851.69" font-family="Helvetica,sans-Serif" font-size="10.00">ImGui::ItemHoverable</text>
</a>
</g>
</g>
<!-- Node23&#45;&gt;Node68 -->
<g id="edge29" class="edge">
<title>Node23&#45;&gt;Node68</title>
<path fill="none" stroke="#63b8ff" d="M198.01,-979.56C213.03,-958.08 252.36,-905.94 298,-878.19 305.34,-873.73 313.55,-870.06 321.87,-867.04"/>
<polygon fill="#63b8ff" stroke="#63b8ff" points="323.24,-870.27 331.63,-863.8 321.03,-863.63 323.24,-870.27"/>
</g>
<!-- Node93 -->
<g id="node26" class="node">
<title>Node93</title>
<g id="a_node26"><a xlink:href="namespaceImGui.html#aba1f0c75d6f98702e6b02eb1bc30d915" target="_top" xlink:title=" ">
<polygon fill="white" stroke="#666666" points="633.5,-807.69 514.5,-807.69 514.5,-788.69 633.5,-788.69 633.5,-807.69"/>
<text text-anchor="middle" x="574" y="-795.69" font-family="Helvetica,sans-Serif" font-size="10.00">ImGui::SetHoveredID</text>
</a>
</g>
</g>
<!-- Node23&#45;&gt;Node93 -->
<g id="edge37" class="edge">
<title>Node23&#45;&gt;Node93</title>
<path fill="none" stroke="#63b8ff" d="M192.93,-979.38C198.59,-944.63 222.89,-827.11 298,-781.19 374.45,-734.44 486.28,-765.22 540.76,-785.09"/>
<polygon fill="#63b8ff" stroke="#63b8ff" points="539.66,-788.41 550.25,-788.65 542.12,-781.86 539.66,-788.41"/>
</g>
<!-- Node494 -->
<g id="node28" class="node">
<title>Node494</title>
<g id="a_node28"><a xlink:href="namespaceImGui.html#a8ad578d7141486ff12b59b0c251234e6" target="_top" xlink:title=" ">
<polygon fill="#fff0f0" stroke="red" points="433.5,-732.69 327.5,-732.69 327.5,-713.69 433.5,-713.69 433.5,-732.69"/>
<text text-anchor="middle" x="380.5" y="-720.69" font-family="Helvetica,sans-Serif" font-size="10.00">ImGui::SetFocusID</text>
</a>
</g>
</g>
<!-- Node23&#45;&gt;Node494 -->
<g id="edge36" class="edge">
<title>Node23&#45;&gt;Node494</title>
<path fill="none" stroke="#63b8ff" d="M192.8,-979.64C198.24,-943.48 222.51,-813.57 298,-747.19 303.84,-742.05 310.73,-738.01 318,-734.84"/>
<polygon fill="#63b8ff" stroke="#63b8ff" points="319.26,-738.1 327.35,-731.26 316.75,-731.57 319.26,-738.1"/>
</g>
<!-- Node495 -->
<g id="node29" class="node">
<title>Node495</title>
<g id="a_node29"><a xlink:href="namespaceImGui.html#ac415798dd69ab045cda84dd14a52c3ea" target="_top" xlink:title=" ">
<polygon fill="#fff0f0" stroke="red" points="439,-1063.69 322,-1063.69 322,-1044.69 439,-1044.69 439,-1063.69"/>
<text text-anchor="middle" x="380.5" y="-1051.69" font-family="Helvetica,sans-Serif" font-size="10.00">ImGui::SetKeyOwner</text>
</a>
</g>
</g>
<!-- Node23&#45;&gt;Node495 -->
<g id="edge38" class="edge">
<title>Node23&#45;&gt;Node495</title>
<path fill="none" stroke="#63b8ff" d="M210.72,-998.74C231.74,-1008.88 266.63,-1024.85 298,-1035.19 305.75,-1037.74 314.02,-1040.09 322.21,-1042.2"/>
<polygon fill="#63b8ff" stroke="#63b8ff" points="321.58,-1045.65 332.13,-1044.65 323.26,-1038.85 321.58,-1045.65"/>
</g>
<!-- Node25&#45;&gt;Node26 -->
<g id="edge14" class="edge">
<title>Node25&#45;&gt;Node26</title>
<path fill="none" stroke="#63b8ff" d="M632.46,-1227.77C649.42,-1230.59 668.08,-1233.7 685.41,-1236.59"/>
<polygon fill="#63b8ff" stroke="#63b8ff" points="684.99,-1240.07 695.43,-1238.26 686.14,-1233.16 684.99,-1240.07"/>
</g>
<!-- Node28&#45;&gt;Node25 -->
<g id="edge16" class="edge">
<title>Node28&#45;&gt;Node25</title>
<path fill="none" stroke="#63b8ff" d="M440.26,-1208.48C460.48,-1209.96 483.3,-1211.63 504.24,-1213.16"/>
<polygon fill="#63b8ff" stroke="#63b8ff" points="504.12,-1216.66 514.35,-1213.9 504.64,-1209.68 504.12,-1216.66"/>
</g>
<!-- Node61&#45;&gt;Node61 -->
<g id="edge22" class="edge">
<title>Node61&#45;&gt;Node61</title>
<path fill="none" stroke="#63b8ff" d="M351.22,-808.77C336.97,-817.42 346.73,-826.69 380.5,-826.69 403.72,-826.69 415.59,-822.31 416.11,-816.76"/>
<polygon fill="#63b8ff" stroke="#63b8ff" points="418.73,-814.44 409.78,-808.77 413.25,-818.79 418.73,-814.44"/>
</g>
<!-- Node62&#45;&gt;Node63 -->
<g id="edge24" class="edge">
<title>Node62&#45;&gt;Node63</title>
<path fill="none" stroke="#63b8ff" d="M440.52,-1128.19C456.45,-1128.19 473.97,-1128.19 490.91,-1128.19"/>
<polygon fill="#63b8ff" stroke="#63b8ff" points="491.37,-1131.69 501.37,-1128.19 491.37,-1124.69 491.37,-1131.69"/>
</g>
<!-- Node62&#45;&gt;Node64 -->
<g id="edge25" class="edge">
<title>Node62&#45;&gt;Node64</title>
<path fill="none" stroke="#63b8ff" d="M430.82,-1118.66C456.07,-1113.78 487.01,-1107.8 513.57,-1102.67"/>
<polygon fill="#63b8ff" stroke="#63b8ff" points="514.36,-1106.08 523.52,-1100.75 513.04,-1099.21 514.36,-1106.08"/>
</g>
<!-- Node67&#45;&gt;Node63 -->
<g id="edge27" class="edge">
<title>Node67&#45;&gt;Node63</title>
<path fill="none" stroke="#63b8ff" d="M430.82,-1100.72C456.07,-1105.6 487.01,-1111.58 513.57,-1116.71"/>
<polygon fill="#63b8ff" stroke="#63b8ff" points="513.04,-1120.17 523.52,-1118.63 514.36,-1113.3 513.04,-1120.17"/>
</g>
<!-- Node67&#45;&gt;Node64 -->
<g id="edge28" class="edge">
<title>Node67&#45;&gt;Node64</title>
<path fill="none" stroke="#63b8ff" d="M449.02,-1091.19C466.57,-1091.19 485.51,-1091.19 503.18,-1091.19"/>
<polygon fill="#63b8ff" stroke="#63b8ff" points="503.42,-1094.69 513.42,-1091.19 503.42,-1087.69 503.42,-1094.69"/>
</g>
<!-- Node68&#45;&gt;Node25 -->
<g id="edge30" class="edge">
<title>Node68&#45;&gt;Node25</title>
<path fill="none" stroke="#63b8ff" d="M403.69,-863.81C422.67,-873.27 449.06,-889.57 463,-912.19 518.42,-1002.15 450.3,-1053.42 499,-1147.19 510.88,-1170.06 532.99,-1189.77 549.96,-1202.58"/>
<polygon fill="#63b8ff" stroke="#63b8ff" points="548.13,-1205.58 558.28,-1208.63 552.25,-1199.92 548.13,-1205.58"/>
</g>
<!-- Node68&#45;&gt;Node53 -->
<g id="edge31" class="edge">
<title>Node68&#45;&gt;Node53</title>
<path fill="none" stroke="#63b8ff" d="M443.15,-860.31C461.77,-862.15 482.39,-864.2 501.6,-866.1"/>
<polygon fill="#63b8ff" stroke="#63b8ff" points="501.5,-869.61 511.8,-867.12 502.19,-862.65 501.5,-869.61"/>
</g>
<!-- Node68&#45;&gt;Node93 -->
<g id="edge32" class="edge">
<title>Node68&#45;&gt;Node93</title>
<path fill="none" stroke="#63b8ff" d="M429.14,-844.64C440.31,-842.13 452.12,-839.26 463,-836.19 488.52,-828.99 516.77,-819.19 538.26,-811.34"/>
<polygon fill="#63b8ff" stroke="#63b8ff" points="539.75,-814.52 547.92,-807.78 537.33,-807.95 539.75,-814.52"/>
</g>
<!-- Node68&#45;&gt;Node94 -->
<g id="edge33" class="edge">
<title>Node68&#45;&gt;Node94</title>
<path fill="none" stroke="#63b8ff" d="M443.34,-846.03C450.32,-843.54 457.05,-840.33 463,-836.19 487.28,-819.28 480.59,-803.35 499,-780.19 516.37,-758.34 539.12,-735.72 554.78,-720.9"/>
<polygon fill="#63b8ff" stroke="#63b8ff" points="557.34,-723.3 562.26,-713.91 552.56,-718.18 557.34,-723.3"/>
</g>
<!-- Node496&#45;&gt;Node52 -->
<g id="edge42" class="edge">
<title>Node496&#45;&gt;Node52</title>
<path fill="none" stroke="#63b8ff" d="M248.6,-568.14C303.65,-565.76 389.24,-560.98 463,-552.19 488.47,-549.15 517,-544.18 538.63,-540.08"/>
<polygon fill="#63b8ff" stroke="#63b8ff" points="539.48,-543.48 548.64,-538.15 538.16,-536.61 539.48,-543.48"/>
</g>
<!-- Node497 -->
<g id="node31" class="node">
<title>Node497</title>
<g id="a_node31"><a xlink:href="namespaceImGui.html#a410c8e19b2fea8b52746ca11b3930301" target="_top" xlink:title=" ">
<polygon fill="white" stroke="#666666" points="463,-542.69 298,-542.69 298,-523.69 463,-523.69 463,-542.69"/>
<text text-anchor="middle" x="380.5" y="-530.69" font-family="Helvetica,sans-Serif" font-size="10.00">ImGui::GetContentRegionAvail</text>
</a>
</g>
</g>
<!-- Node496&#45;&gt;Node497 -->
<g id="edge41" class="edge">
<title>Node496&#45;&gt;Node497</title>
<path fill="none" stroke="#63b8ff" d="M239.91,-560.66C264.6,-555.8 294.82,-549.86 320.81,-544.74"/>
<polygon fill="#63b8ff" stroke="#63b8ff" points="321.79,-548.11 330.92,-542.75 320.44,-541.25 321.79,-548.11"/>
</g>
<!-- Node498&#45;&gt;Node52 -->
<g id="edge45" class="edge">
<title>Node498&#45;&gt;Node52</title>
<path fill="none" stroke="#63b8ff" d="M237.68,-523.65C256.32,-520.25 278.1,-516.86 298,-515.19 371.08,-509.06 389.91,-509.25 463,-515.19 488.53,-517.26 517.06,-522 538.67,-526.1"/>
<polygon fill="#63b8ff" stroke="#63b8ff" points="538.19,-529.57 548.67,-528.04 539.52,-522.7 538.19,-529.57"/>
</g>
<!-- Node498&#45;&gt;Node497 -->
<g id="edge44" class="edge">
<title>Node498&#45;&gt;Node497</title>
<path fill="none" stroke="#63b8ff" d="M252.54,-533.19C263.85,-533.19 275.88,-533.19 287.87,-533.19"/>
<polygon fill="#63b8ff" stroke="#63b8ff" points="287.91,-536.69 297.91,-533.19 287.91,-529.69 287.91,-536.69"/>
</g>
<!-- Node169 -->
<g id="node34" class="node">
<title>Node169</title>
<g id="a_node34"><a xlink:href="structImFont.html#a418146c00c3dee351a411b952cce5175" target="_top" xlink:title=" ">
<polygon fill="#fff0f0" stroke="red" points="443,-428.69 318,-428.69 318,-409.69 443,-409.69 443,-428.69"/>
<text text-anchor="middle" x="380.5" y="-416.69" font-family="Helvetica,sans-Serif" font-size="10.00">ImFont::CalcTextSizeA</text>
</a>
</g>
</g>
<!-- Node168&#45;&gt;Node169 -->
<g id="edge47" class="edge">
<title>Node168&#45;&gt;Node169</title>
<path fill="none" stroke="#63b8ff" d="M247.14,-419.19C266.13,-419.19 287.64,-419.19 307.71,-419.19"/>
<polygon fill="#63b8ff" stroke="#63b8ff" points="307.75,-422.69 317.75,-419.19 307.75,-415.69 307.75,-422.69"/>
</g>
<!-- Node279 -->
<g id="node35" class="node">
<title>Node279</title>
<g id="a_node35"><a xlink:href="namespaceImGui.html#a7671e1dbc803a31b06081b52a771d83f" target="_top" xlink:title=" ">
<polygon fill="white" stroke="#666666" points="459,-93.69 302,-93.69 302,-74.69 459,-74.69 459,-93.69"/>
<text text-anchor="middle" x="380.5" y="-81.69" font-family="Helvetica,sans-Serif" font-size="10.00">ImGui::FindRenderedTextEnd</text>
</a>
</g>
</g>
<!-- Node168&#45;&gt;Node279 -->
<g id="edge49" class="edge">
<title>Node168&#45;&gt;Node279</title>
<path fill="none" stroke="#63b8ff" d="M247.06,-411.4C252.6,-408.83 257.74,-405.5 262,-401.19 309.86,-352.71 275,-316.32 298,-252.19 318.26,-195.71 351.82,-133.09 368.86,-102.72"/>
<polygon fill="#63b8ff" stroke="#63b8ff" points="372.08,-104.14 373.97,-93.72 365.99,-100.69 372.08,-104.14"/>
</g>
<!-- Node169&#45;&gt;Node52 -->
<g id="edge48" class="edge">
<title>Node169&#45;&gt;Node52</title>
<path fill="none" stroke="#63b8ff" d="M425.9,-428.8C438.31,-432.39 451.52,-437.13 463,-443.19 500.17,-462.83 536.59,-496.19 556.79,-516.31"/>
<polygon fill="#63b8ff" stroke="#63b8ff" points="554.43,-518.9 563.94,-523.56 559.41,-513.99 554.43,-518.9"/>
</g>
<!-- Node135 -->
<g id="node38" class="node">
<title>Node135</title>
<g id="a_node38"><a xlink:href="namespaceImGui.html#abe2691de0b1a71c774ab24cc91564a94" target="_top" xlink:title=" ">
<polygon fill="white" stroke="#666666" points="647,-62.19 501,-62.19 501,-32.19 647,-32.19 647,-62.19"/>
<text text-anchor="start" x="509" y="-50.19" font-family="Helvetica,sans-Serif" font-size="10.00">ImGui::ColorConvertFloat4</text>
<text text-anchor="middle" x="574" y="-39.19" font-family="Helvetica,sans-Serif" font-size="10.00">ToU32</text>
</a>
</g>
</g>
<!-- Node142&#45;&gt;Node135 -->
<g id="edge52" class="edge">
<title>Node142&#45;&gt;Node135</title>
<path fill="none" stroke="#63b8ff" d="M437.66,-47.19C454.18,-47.19 472.6,-47.19 490.4,-47.19"/>
<polygon fill="#63b8ff" stroke="#63b8ff" points="490.79,-50.69 500.79,-47.19 490.79,-43.69 490.79,-50.69"/>
</g>
<!-- Node34 -->
<g id="node40" class="node">
<title>Node34</title>
<g id="a_node40"><a xlink:href="structImVector.html#a2d80e87e81b1b01143c8d8be93e6fde1" target="_top" xlink:title=" ">
<polygon fill="white" stroke="#666666" points="425,-280.69 336,-280.69 336,-261.69 425,-261.69 425,-280.69"/>
<text text-anchor="middle" x="380.5" y="-268.69" font-family="Helvetica,sans-Serif" font-size="10.00">ImVector::back</text>
</a>
</g>
</g>
<!-- Node374&#45;&gt;Node34 -->
<g id="edge55" class="edge">
<title>Node374&#45;&gt;Node34</title>
<path fill="none" stroke="#63b8ff" d="M240.67,-335.61C248.09,-333.13 255.44,-330.04 262,-326.19 281.78,-314.57 277.96,-300.35 298,-289.19 306.55,-284.43 316.26,-280.92 325.93,-278.35"/>
<polygon fill="#63b8ff" stroke="#63b8ff" points="327,-281.69 335.93,-275.99 325.39,-274.88 327,-281.69"/>
</g>
<!-- Node375 -->
<g id="node41" class="node">
<title>Node375</title>
<g id="a_node41"><a xlink:href="namespaceImGui.html#a5487269f4cb9fb809fd3e797411ed2d7" target="_top" xlink:title=" ">
<polygon fill="#fff0f0" stroke="red" points="449,-391.69 312,-391.69 312,-372.69 449,-372.69 449,-391.69"/>
<text text-anchor="middle" x="380.5" y="-379.69" font-family="Helvetica,sans-Serif" font-size="10.00">ImGui::DebugHookIdInfo</text>
</a>
</g>
</g>
<!-- Node374&#45;&gt;Node375 -->
<g id="edge56" class="edge">
<title>Node374&#45;&gt;Node375</title>
<path fill="none" stroke="#63b8ff" d="M239.91,-354.72C264.6,-359.58 294.82,-365.52 320.81,-370.64"/>
<polygon fill="#63b8ff" stroke="#63b8ff" points="320.44,-374.13 330.92,-372.63 321.79,-367.26 320.44,-374.13"/>
</g>
<!-- Node121 -->
<g id="node42" class="node">
<title>Node121</title>
<g id="a_node42"><a xlink:href="imgui_8cpp.html#ab6659b5d67f7a3369e099ce890e12223" target="_top" xlink:title=" ">
<polygon fill="white" stroke="#666666" points="414.5,-317.69 346.5,-317.69 346.5,-298.69 414.5,-298.69 414.5,-317.69"/>
<text text-anchor="middle" x="380.5" y="-305.69" font-family="Helvetica,sans-Serif" font-size="10.00">ImHashStr</text>
</a>
</g>
</g>
<!-- Node374&#45;&gt;Node121 -->
<g id="edge57" class="edge">
<title>Node374&#45;&gt;Node121</title>
<path fill="none" stroke="#63b8ff" d="M239.91,-335.66C269.66,-329.81 307.44,-322.37 336.2,-316.71"/>
<polygon fill="#63b8ff" stroke="#63b8ff" points="337.21,-320.08 346.35,-314.71 335.86,-313.21 337.21,-320.08"/>
</g>
<!-- Node490&#45;&gt;Node52 -->
<g id="edge65" class="edge">
<title>Node490&#45;&gt;Node52</title>
<path fill="none" stroke="#63b8ff" d="M238.16,-604.98C292.68,-600.55 385.34,-590.89 463,-572.19 489.82,-565.73 519.23,-555.11 540.88,-546.58"/>
<polygon fill="#63b8ff" stroke="#63b8ff" points="542.26,-549.8 550.25,-542.83 539.66,-543.3 542.26,-549.8"/>
</g>
<!-- Node434&#45;&gt;Node8 -->
<g id="edge67" class="edge">
<title>Node434&#45;&gt;Node8</title>
<path fill="none" stroke="#63b8ff" d="M239.91,-317.72C264.6,-322.58 294.82,-328.52 320.81,-333.64"/>
<polygon fill="#63b8ff" stroke="#63b8ff" points="320.44,-337.13 330.92,-335.63 321.79,-330.26 320.44,-337.13"/>
</g>
<!-- Node434&#45;&gt;Node142 -->
<g id="edge68" class="edge">
<title>Node434&#45;&gt;Node142</title>
<path fill="none" stroke="#63b8ff" d="M249.12,-299.03C253.94,-296.46 258.35,-293.24 262,-289.19 329.5,-214.28 228.8,-138.53 298,-65.19 302.44,-60.49 307.8,-56.88 313.64,-54.12"/>
<polygon fill="#63b8ff" stroke="#63b8ff" points="315.07,-57.32 323.14,-50.46 312.55,-50.79 315.07,-57.32"/>
</g>
<!-- Node492&#45;&gt;Node279 -->
<g id="edge70" class="edge">
<title>Node492&#45;&gt;Node279</title>
<path fill="none" stroke="#63b8ff" d="M239.91,-56.72C264.6,-61.58 294.82,-67.52 320.81,-72.64"/>
<polygon fill="#63b8ff" stroke="#63b8ff" points="320.44,-76.13 330.92,-74.63 321.79,-69.26 320.44,-76.13"/>
</g>
<!-- Node492&#45;&gt;Node142 -->
<g id="edge71" class="edge">
<title>Node492&#45;&gt;Node142</title>
<path fill="none" stroke="#63b8ff" d="M244.12,-47.19C265.5,-47.19 290.45,-47.19 313.07,-47.19"/>
<polygon fill="#63b8ff" stroke="#63b8ff" points="313.28,-50.69 323.28,-47.19 313.28,-43.69 313.28,-50.69"/>
</g>
<!-- Node451&#45;&gt;Node279 -->
<g id="edge73" class="edge">
<title>Node451&#45;&gt;Node279</title>
<path fill="none" stroke="#63b8ff" d="M262.04,-84.19C271.71,-84.19 281.73,-84.19 291.65,-84.19"/>
<polygon fill="#63b8ff" stroke="#63b8ff" points="291.95,-87.69 301.95,-84.19 291.95,-80.69 291.95,-87.69"/>
</g>
</g>
</svg>
