<?xml version="1.0" encoding="UTF-8" standalone="no"?>
<!DOCTYPE svg PUBLIC "-//W3C//DTD SVG 1.1//EN"
 "http://www.w3.org/Graphics/SVG/1.1/DTD/svg11.dtd">
<!-- Generated by graphviz version 2.43.0 (0)
 -->
<!-- Title: ImGui::GetColumnsID Pages: 1 -->
<svg width="969pt" height="158pt"
 viewBox="0.00 0.00 969.00 158.00" xmlns="http://www.w3.org/2000/svg" xmlns:xlink="http://www.w3.org/1999/xlink">
<g id="graph0" class="graph" transform="scale(1 1) rotate(0) translate(4 154)">
<title>ImGui::GetColumnsID</title>
<!-- Node1 -->
<g id="node1" class="node">
<title>Node1</title>
<g id="a_node1"><a xlink:title=" ">
<polygon fill="#999999" stroke="#666666" points="122,-94 0,-94 0,-75 122,-75 122,-94"/>
<text text-anchor="middle" x="61" y="-82" font-family="Helvetica,sans-Serif" font-size="10.00">ImGui::GetColumnsID</text>
</a>
</g>
</g>
<!-- Node2 -->
<g id="node2" class="node">
<title>Node2</title>
<g id="a_node2"><a xlink:href="namespaceImGui.html#ac452417b5004ca16a814a72cff153526" target="_top" xlink:title=" ">
<polygon fill="white" stroke="#666666" points="302,-150 158,-150 158,-131 302,-131 302,-150"/>
<text text-anchor="middle" x="230" y="-138" font-family="Helvetica,sans-Serif" font-size="10.00">ImGui::GetCurrentWindow</text>
</a>
</g>
</g>
<!-- Node1&#45;&gt;Node2 -->
<g id="edge1" class="edge">
<title>Node1&#45;&gt;Node2</title>
<path fill="none" stroke="#63b8ff" d="M83.82,-94.07C103.09,-102.3 132.07,-114.12 158,-122.5 164.34,-124.55 171.06,-126.51 177.74,-128.34"/>
<polygon fill="#63b8ff" stroke="#63b8ff" points="176.88,-131.74 187.45,-130.92 178.68,-124.97 176.88,-131.74"/>
</g>
<!-- Node3 -->
<g id="node3" class="node">
<title>Node3</title>
<g id="a_node3"><a xlink:href="structImGuiWindow.html#afe084e59f7cd4da393ae30f0b4410b16" target="_top" xlink:title=" ">
<polygon fill="white" stroke="#666666" points="456,-75 338,-75 338,-56 456,-56 456,-75"/>
<text text-anchor="middle" x="397" y="-63" font-family="Helvetica,sans-Serif" font-size="10.00">ImGuiWindow::GetID</text>
</a>
</g>
</g>
<!-- Node1&#45;&gt;Node3 -->
<g id="edge2" class="edge">
<title>Node1&#45;&gt;Node3</title>
<path fill="none" stroke="#63b8ff" d="M122.1,-81.08C179.89,-77.79 267.14,-72.83 327.58,-69.39"/>
<polygon fill="#63b8ff" stroke="#63b8ff" points="328,-72.87 337.78,-68.81 327.6,-65.89 328,-72.87"/>
</g>
<!-- Node11 -->
<g id="node11" class="node">
<title>Node11</title>
<g id="a_node11"><a xlink:href="namespaceImGui.html#aba0b2d8f890a5d435ae43d0c4a2d4dd1" target="_top" xlink:title=" ">
<polygon fill="white" stroke="#666666" points="270,-37 190,-37 190,-18 270,-18 270,-37"/>
<text text-anchor="middle" x="230" y="-25" font-family="Helvetica,sans-Serif" font-size="10.00">ImGui::PopID</text>
</a>
</g>
</g>
<!-- Node1&#45;&gt;Node11 -->
<g id="edge10" class="edge">
<title>Node1&#45;&gt;Node11</title>
<path fill="none" stroke="#63b8ff" d="M89.71,-74.93C108.88,-68.32 134.98,-59.35 158,-51.5 168.75,-47.84 180.42,-43.88 191.14,-40.26"/>
<polygon fill="#63b8ff" stroke="#63b8ff" points="192.3,-43.56 200.66,-37.04 190.06,-36.93 192.3,-43.56"/>
</g>
<!-- Node13 -->
<g id="node13" class="node">
<title>Node13</title>
<g id="a_node13"><a xlink:href="namespaceImGui.html#a27a8533605dc5b8cabf161bf7715bbde" target="_top" xlink:title=" ">
<polygon fill="white" stroke="#666666" points="273,-113 187,-113 187,-94 273,-94 273,-113"/>
<text text-anchor="middle" x="230" y="-101" font-family="Helvetica,sans-Serif" font-size="10.00">ImGui::PushID</text>
</a>
</g>
</g>
<!-- Node1&#45;&gt;Node13 -->
<g id="edge12" class="edge">
<title>Node1&#45;&gt;Node13</title>
<path fill="none" stroke="#63b8ff" d="M122.29,-91.36C140.01,-93.38 159.24,-95.56 176.43,-97.52"/>
<polygon fill="#63b8ff" stroke="#63b8ff" points="176.51,-101.05 186.85,-98.7 177.31,-94.1 176.51,-101.05"/>
</g>
<!-- Node4 -->
<g id="node4" class="node">
<title>Node4</title>
<g id="a_node4"><a xlink:href="structImVector.html#a2d80e87e81b1b01143c8d8be93e6fde1" target="_top" xlink:title=" ">
<polygon fill="white" stroke="#666666" points="605,-19 516,-19 516,0 605,0 605,-19"/>
<text text-anchor="middle" x="560.5" y="-7" font-family="Helvetica,sans-Serif" font-size="10.00">ImVector::back</text>
</a>
</g>
</g>
<!-- Node3&#45;&gt;Node4 -->
<g id="edge3" class="edge">
<title>Node3&#45;&gt;Node4</title>
<path fill="none" stroke="#63b8ff" d="M428.09,-55.96C437.15,-52.87 447.06,-49.26 456,-45.5 472.49,-38.57 475.27,-33.84 492,-27.5 497.25,-25.51 502.8,-23.66 508.38,-21.95"/>
<polygon fill="#63b8ff" stroke="#63b8ff" points="509.76,-25.19 518.39,-19.04 507.81,-18.47 509.76,-25.19"/>
</g>
<!-- Node5 -->
<g id="node5" class="node">
<title>Node5</title>
<g id="a_node5"><a xlink:href="namespaceImGui.html#a5487269f4cb9fb809fd3e797411ed2d7" target="_top" xlink:title=" ">
<polygon fill="white" stroke="#666666" points="629,-93 492,-93 492,-74 629,-74 629,-93"/>
<text text-anchor="middle" x="560.5" y="-81" font-family="Helvetica,sans-Serif" font-size="10.00">ImGui::DebugHookIdInfo</text>
</a>
</g>
</g>
<!-- Node3&#45;&gt;Node5 -->
<g id="edge4" class="edge">
<title>Node3&#45;&gt;Node5</title>
<path fill="none" stroke="#63b8ff" d="M456.31,-72C464.62,-72.92 473.27,-73.89 481.88,-74.85"/>
<polygon fill="#63b8ff" stroke="#63b8ff" points="481.62,-78.34 491.95,-75.97 482.39,-71.38 481.62,-78.34"/>
</g>
<!-- Node10 -->
<g id="node10" class="node">
<title>Node10</title>
<g id="a_node10"><a xlink:href="imgui_8cpp.html#ab6659b5d67f7a3369e099ce890e12223" target="_top" xlink:title=" ">
<polygon fill="white" stroke="#666666" points="594.5,-56 526.5,-56 526.5,-37 594.5,-37 594.5,-56"/>
<text text-anchor="middle" x="560.5" y="-44" font-family="Helvetica,sans-Serif" font-size="10.00">ImHashStr</text>
</a>
</g>
</g>
<!-- Node3&#45;&gt;Node10 -->
<g id="edge9" class="edge">
<title>Node3&#45;&gt;Node10</title>
<path fill="none" stroke="#63b8ff" d="M456.31,-58.64C476.03,-56.32 497.7,-53.77 516.07,-51.61"/>
<polygon fill="#63b8ff" stroke="#63b8ff" points="516.66,-55.06 526.18,-50.42 515.84,-48.11 516.66,-55.06"/>
</g>
<!-- Node6 -->
<g id="node6" class="node">
<title>Node6</title>
<g id="a_node6"><a xlink:href="imgui_8cpp.html#a75ccaf7d676b1f567ba888ae42ac3809" target="_top" xlink:title=" ">
<polygon fill="white" stroke="#666666" points="770,-57 678,-57 678,-38 770,-38 770,-57"/>
<text text-anchor="middle" x="724" y="-45" font-family="Helvetica,sans-Serif" font-size="10.00">ImFormatString</text>
</a>
</g>
</g>
<!-- Node5&#45;&gt;Node6 -->
<g id="edge5" class="edge">
<title>Node5&#45;&gt;Node6</title>
<path fill="none" stroke="#63b8ff" d="M604.36,-73.95C624.6,-69.43 648.96,-64 670.33,-59.24"/>
<polygon fill="#63b8ff" stroke="#63b8ff" points="671.23,-62.63 680.23,-57.03 669.7,-55.79 671.23,-62.63"/>
</g>
<!-- Node7 -->
<g id="node7" class="node">
<title>Node7</title>
<g id="a_node7"><a xlink:href="structImVector.html#ac371dd62e56ae486b1a5038cf07eee56" target="_top" xlink:title=" ">
<polygon fill="white" stroke="#666666" points="771.5,-94 676.5,-94 676.5,-75 771.5,-75 771.5,-94"/>
<text text-anchor="middle" x="724" y="-82" font-family="Helvetica,sans-Serif" font-size="10.00">ImVector::resize</text>
</a>
</g>
</g>
<!-- Node5&#45;&gt;Node7 -->
<g id="edge6" class="edge">
<title>Node5&#45;&gt;Node7</title>
<path fill="none" stroke="#63b8ff" d="M629.05,-83.92C641.36,-83.99 654.08,-84.07 666.03,-84.15"/>
<polygon fill="#63b8ff" stroke="#63b8ff" points="666.29,-87.65 676.31,-84.21 666.34,-80.65 666.29,-87.65"/>
</g>
<!-- Node8 -->
<g id="node8" class="node">
<title>Node8</title>
<g id="a_node8"><a xlink:href="structImVector.html#a3a097635d464b1b70dc7d59996a88b28" target="_top" xlink:title=" ">
<polygon fill="white" stroke="#666666" points="961,-131 819,-131 819,-112 961,-112 961,-131"/>
<text text-anchor="middle" x="890" y="-119" font-family="Helvetica,sans-Serif" font-size="10.00">ImVector::_grow_capacity</text>
</a>
</g>
</g>
<!-- Node7&#45;&gt;Node8 -->
<g id="edge7" class="edge">
<title>Node7&#45;&gt;Node8</title>
<path fill="none" stroke="#63b8ff" d="M767.23,-94.03C788.39,-98.8 814.19,-104.62 836.6,-109.68"/>
<polygon fill="#63b8ff" stroke="#63b8ff" points="836.1,-113.15 846.62,-111.94 837.64,-106.32 836.1,-113.15"/>
</g>
<!-- Node9 -->
<g id="node9" class="node">
<title>Node9</title>
<g id="a_node9"><a xlink:href="structImVector.html#a0f14f5736c3372157856eebb67123b75" target="_top" xlink:title=" ">
<polygon fill="white" stroke="#666666" points="941.5,-94 838.5,-94 838.5,-75 941.5,-75 941.5,-94"/>
<text text-anchor="middle" x="890" y="-82" font-family="Helvetica,sans-Serif" font-size="10.00">ImVector::reserve</text>
</a>
</g>
</g>
<!-- Node7&#45;&gt;Node9 -->
<g id="edge8" class="edge">
<title>Node7&#45;&gt;Node9</title>
<path fill="none" stroke="#63b8ff" d="M771.56,-84.5C789.14,-84.5 809.4,-84.5 828.1,-84.5"/>
<polygon fill="#63b8ff" stroke="#63b8ff" points="828.3,-88 838.3,-84.5 828.3,-81 828.3,-88"/>
</g>
<!-- Node12 -->
<g id="node12" class="node">
<title>Node12</title>
<g id="a_node12"><a xlink:href="structImVector.html#a3db7ce62d3c429effdb893fbf7148c1c" target="_top" xlink:title=" ">
<polygon fill="white" stroke="#666666" points="453.5,-37 340.5,-37 340.5,-18 453.5,-18 453.5,-37"/>
<text text-anchor="middle" x="397" y="-25" font-family="Helvetica,sans-Serif" font-size="10.00">ImVector::pop_back</text>
</a>
</g>
</g>
<!-- Node11&#45;&gt;Node12 -->
<g id="edge11" class="edge">
<title>Node11&#45;&gt;Node12</title>
<path fill="none" stroke="#63b8ff" d="M270.1,-27.5C288.04,-27.5 309.8,-27.5 330.15,-27.5"/>
<polygon fill="#63b8ff" stroke="#63b8ff" points="330.32,-31 340.32,-27.5 330.32,-24 330.32,-31"/>
</g>
<!-- Node13&#45;&gt;Node3 -->
<g id="edge13" class="edge">
<title>Node13&#45;&gt;Node3</title>
<path fill="none" stroke="#63b8ff" d="M272.64,-93.91C294.51,-88.87 321.51,-82.66 344.66,-77.32"/>
<polygon fill="#63b8ff" stroke="#63b8ff" points="345.7,-80.68 354.66,-75.02 344.13,-73.85 345.7,-80.68"/>
</g>
<!-- Node14 -->
<g id="node14" class="node">
<title>Node14</title>
<g id="a_node14"><a xlink:href="structImVector.html#aab5df48e0711a48bd12f3206e08c4108" target="_top" xlink:title=" ">
<polygon fill="white" stroke="#666666" points="783,-131 665,-131 665,-112 783,-112 783,-131"/>
<text text-anchor="middle" x="724" y="-119" font-family="Helvetica,sans-Serif" font-size="10.00">ImVector::push_back</text>
</a>
</g>
</g>
<!-- Node13&#45;&gt;Node14 -->
<g id="edge14" class="edge">
<title>Node13&#45;&gt;Node14</title>
<path fill="none" stroke="#63b8ff" d="M273.37,-105.05C358.64,-108.17 551.6,-115.23 654.83,-119.01"/>
<polygon fill="#63b8ff" stroke="#63b8ff" points="654.71,-122.5 664.83,-119.37 654.97,-115.51 654.71,-122.5"/>
</g>
<!-- Node14&#45;&gt;Node8 -->
<g id="edge15" class="edge">
<title>Node14&#45;&gt;Node8</title>
<path fill="none" stroke="#63b8ff" d="M783.28,-121.5C791.55,-121.5 800.18,-121.5 808.78,-121.5"/>
<polygon fill="#63b8ff" stroke="#63b8ff" points="808.83,-125 818.83,-121.5 808.83,-118 808.83,-125"/>
</g>
<!-- Node14&#45;&gt;Node9 -->
<g id="edge16" class="edge">
<title>Node14&#45;&gt;Node9</title>
<path fill="none" stroke="#63b8ff" d="M767.23,-111.97C788.39,-107.2 814.19,-101.38 836.6,-96.32"/>
<polygon fill="#63b8ff" stroke="#63b8ff" points="837.64,-99.68 846.62,-94.06 836.1,-92.85 837.64,-99.68"/>
</g>
</g>
</svg>
