<?xml version="1.0" encoding="UTF-8" standalone="no"?>
<!DOCTYPE svg PUBLIC "-//W3C//DTD SVG 1.1//EN"
 "http://www.w3.org/Graphics/SVG/1.1/DTD/svg11.dtd">
<!-- Generated by graphviz version 2.43.0 (0)
 -->
<!-- Title: ImGui::ColorEdit3 Pages: 1 -->
<svg width="714pt" height="162pt"
 viewBox="0.00 0.00 714.00 161.50" xmlns="http://www.w3.org/2000/svg" xmlns:xlink="http://www.w3.org/1999/xlink">
<g id="graph0" class="graph" transform="scale(1 1) rotate(0) translate(4 157.5)">
<title>ImGui::ColorEdit3</title>
<!-- Node1 -->
<g id="node1" class="node">
<title>Node1</title>
<g id="a_node1"><a xlink:title=" ">
<polygon fill="#999999" stroke="#666666" points="706,-88.5 604,-88.5 604,-69.5 706,-69.5 706,-88.5"/>
<text text-anchor="middle" x="655" y="-76.5" font-family="Helvetica,sans-Serif" font-size="10.00">ImGui::ColorEdit3</text>
</a>
</g>
</g>
<!-- Node2 -->
<g id="node2" class="node">
<title>Node2</title>
<g id="a_node2"><a xlink:href="imgui__demo_8cpp.html#a89786289048f1a477095224630738f3a" target="_top" xlink:title=" ">
<polygon fill="white" stroke="#666666" points="548.5,-153.5 397.5,-153.5 397.5,-134.5 548.5,-134.5 548.5,-153.5"/>
<text text-anchor="middle" x="473" y="-141.5" font-family="Helvetica,sans-Serif" font-size="10.00">DemoWindowWidgetsBasic</text>
</a>
</g>
</g>
<!-- Node1&#45;&gt;Node2 -->
<g id="edge1" class="edge">
<title>Node1&#45;&gt;Node2</title>
<path fill="none" stroke="#63b8ff" d="M630.79,-93.82C613.96,-103.96 590.32,-116.97 568,-125 557.42,-128.8 545.89,-131.92 534.64,-134.45"/>
<polygon fill="#63b8ff" stroke="#63b8ff" points="632.71,-96.75 639.39,-88.53 629.04,-90.79 632.71,-96.75"/>
</g>
<!-- Node5 -->
<g id="node5" class="node">
<title>Node5</title>
<g id="a_node5"><a xlink:href="imgui__demo_8cpp.html#a9180ea582cf916de587f175b1a8aad03" target="_top" xlink:title=" ">
<polygon fill="white" stroke="#666666" points="557.5,-116 388.5,-116 388.5,-86 557.5,-86 557.5,-116"/>
<text text-anchor="start" x="396.5" y="-104" font-family="Helvetica,sans-Serif" font-size="10.00">DemoWindowWidgetsColorAnd</text>
<text text-anchor="middle" x="473" y="-93" font-family="Helvetica,sans-Serif" font-size="10.00">Pickers</text>
</a>
</g>
</g>
<!-- Node1&#45;&gt;Node5 -->
<g id="edge4" class="edge">
<title>Node1&#45;&gt;Node5</title>
<path fill="none" stroke="#63b8ff" d="M593.86,-86.35C582.24,-87.77 569.88,-89.28 557.66,-90.77"/>
<polygon fill="#63b8ff" stroke="#63b8ff" points="594.36,-89.82 603.86,-85.13 593.51,-82.87 594.36,-89.82"/>
</g>
<!-- Node6 -->
<g id="node6" class="node">
<title>Node6</title>
<g id="a_node6"><a xlink:href="imgui__demo_8cpp.html#a7a0698f1d728b2cb85f0be86b7e9521d" target="_top" xlink:title=" ">
<polygon fill="white" stroke="#666666" points="568,-67.5 378,-67.5 378,-48.5 568,-48.5 568,-67.5"/>
<text text-anchor="middle" x="473" y="-55.5" font-family="Helvetica,sans-Serif" font-size="10.00">DemoWindowWidgetsDragAndDrop</text>
</a>
</g>
</g>
<!-- Node1&#45;&gt;Node6 -->
<g id="edge6" class="edge">
<title>Node1&#45;&gt;Node6</title>
<path fill="none" stroke="#63b8ff" d="M593.79,-71.98C581.54,-70.55 568.46,-69.02 555.61,-67.52"/>
<polygon fill="#63b8ff" stroke="#63b8ff" points="593.52,-75.47 603.86,-73.15 594.33,-68.52 593.52,-75.47"/>
</g>
<!-- Node7 -->
<g id="node7" class="node">
<title>Node7</title>
<g id="a_node7"><a xlink:href="structExampleAppDocuments.html#a007a1a59693a3c7fc7d87815e022dbe4" target="_top" xlink:title=" ">
<polygon fill="white" stroke="#666666" points="540,-30 406,-30 406,0 540,0 540,-30"/>
<text text-anchor="start" x="414" y="-18" font-family="Helvetica,sans-Serif" font-size="10.00">ExampleAppDocuments</text>
<text text-anchor="middle" x="473" y="-7" font-family="Helvetica,sans-Serif" font-size="10.00">::DisplayDocContents</text>
</a>
</g>
</g>
<!-- Node1&#45;&gt;Node7 -->
<g id="edge8" class="edge">
<title>Node1&#45;&gt;Node7</title>
<path fill="none" stroke="#63b8ff" d="M626.82,-64.77C610.16,-56.46 588.22,-46.22 568,-39 558.88,-35.75 549.11,-32.74 539.45,-30.04"/>
<polygon fill="#63b8ff" stroke="#63b8ff" points="625.46,-68.01 635.96,-69.41 628.62,-61.77 625.46,-68.01"/>
</g>
<!-- Node3 -->
<g id="node3" class="node">
<title>Node3</title>
<g id="a_node3"><a xlink:href="imgui__demo_8cpp.html#a9a639caab781642cbc4f4a23bfbd11cd" target="_top" xlink:title=" ">
<polygon fill="white" stroke="#666666" points="324.5,-88.5 199.5,-88.5 199.5,-69.5 324.5,-69.5 324.5,-88.5"/>
<text text-anchor="middle" x="262" y="-76.5" font-family="Helvetica,sans-Serif" font-size="10.00">DemoWindowWidgets</text>
</a>
</g>
</g>
<!-- Node2&#45;&gt;Node3 -->
<g id="edge2" class="edge">
<title>Node2&#45;&gt;Node3</title>
<path fill="none" stroke="#63b8ff" d="M406.47,-132.34C396.85,-130.17 387.12,-127.72 378,-125 344.21,-114.92 306.52,-98.87 283.79,-88.65"/>
<polygon fill="#63b8ff" stroke="#63b8ff" points="405.9,-135.8 416.42,-134.5 407.38,-128.96 405.9,-135.8"/>
</g>
<!-- Node4 -->
<g id="node4" class="node">
<title>Node4</title>
<g id="a_node4"><a xlink:href="namespaceImGui.html#af95643a0ce4893b9e57c12991922fb18" target="_top" xlink:title=" ">
<polygon fill="white" stroke="#666666" points="146,-66.5 0,-66.5 0,-47.5 146,-47.5 146,-66.5"/>
<text text-anchor="middle" x="73" y="-54.5" font-family="Helvetica,sans-Serif" font-size="10.00">ImGui::ShowDemoWindow</text>
</a>
</g>
</g>
<!-- Node3&#45;&gt;Node4 -->
<g id="edge3" class="edge">
<title>Node3&#45;&gt;Node4</title>
<path fill="none" stroke="#63b8ff" d="M189.11,-70.54C175,-68.88 160.19,-67.14 146.07,-65.48"/>
<polygon fill="#63b8ff" stroke="#63b8ff" points="188.91,-74.04 199.25,-71.74 189.73,-67.09 188.91,-74.04"/>
</g>
<!-- Node5&#45;&gt;Node3 -->
<g id="edge5" class="edge">
<title>Node5&#45;&gt;Node3</title>
<path fill="none" stroke="#63b8ff" d="M378.46,-91.15C360.27,-89.24 341.64,-87.28 324.8,-85.51"/>
<polygon fill="#63b8ff" stroke="#63b8ff" points="378.19,-94.64 388.5,-92.21 378.92,-87.68 378.19,-94.64"/>
</g>
<!-- Node6&#45;&gt;Node3 -->
<g id="edge7" class="edge">
<title>Node6&#45;&gt;Node3</title>
<path fill="none" stroke="#63b8ff" d="M367.69,-68.48C352.92,-69.97 338.15,-71.45 324.55,-72.82"/>
<polygon fill="#63b8ff" stroke="#63b8ff" points="368.29,-71.94 377.89,-67.46 367.59,-64.97 368.29,-71.94"/>
</g>
<!-- Node8 -->
<g id="node8" class="node">
<title>Node8</title>
<g id="a_node8"><a xlink:href="imgui__demo_8cpp.html#aa9e4f5130b74080ea2d97916a91b3b3c" target="_top" xlink:title=" ">
<polygon fill="white" stroke="#666666" points="342,-48.5 182,-48.5 182,-29.5 342,-29.5 342,-48.5"/>
<text text-anchor="middle" x="262" y="-36.5" font-family="Helvetica,sans-Serif" font-size="10.00">ShowExampleAppDocuments</text>
</a>
</g>
</g>
<!-- Node7&#45;&gt;Node8 -->
<g id="edge9" class="edge">
<title>Node7&#45;&gt;Node8</title>
<path fill="none" stroke="#63b8ff" d="M395.76,-23.75C378.34,-25.76 359.78,-27.89 342.24,-29.9"/>
<polygon fill="#63b8ff" stroke="#63b8ff" points="396.34,-27.21 405.87,-22.59 395.54,-20.26 396.34,-27.21"/>
</g>
<!-- Node8&#45;&gt;Node4 -->
<g id="edge10" class="edge">
<title>Node8&#45;&gt;Node4</title>
<path fill="none" stroke="#63b8ff" d="M171.9,-47.58C163.29,-48.41 154.63,-49.24 146.21,-50.05"/>
<polygon fill="#63b8ff" stroke="#63b8ff" points="172.35,-51.05 181.97,-46.61 171.68,-44.08 172.35,-51.05"/>
</g>
</g>
</svg>
