<?xml version="1.0" encoding="UTF-8" standalone="no"?>
<!DOCTYPE svg PUBLIC "-//W3C//DTD SVG 1.1//EN"
 "http://www.w3.org/Graphics/SVG/1.1/DTD/svg11.dtd">
<!-- Generated by graphviz version 2.43.0 (0)
 -->
<!-- Title: ImGui::TabBarCloseTab Pages: 1 -->
<svg width="1439pt" height="371pt"
 viewBox="0.00 0.00 1439.00 370.79" xmlns="http://www.w3.org/2000/svg" xmlns:xlink="http://www.w3.org/1999/xlink">
<g id="graph0" class="graph" transform="scale(1 1) rotate(0) translate(4 366.79)">
<title>ImGui::TabBarCloseTab</title>
<!-- Node1 -->
<g id="node1" class="node">
<title>Node1</title>
<g id="a_node1"><a xlink:title=" ">
<polygon fill="#999999" stroke="#666666" points="1431,-228.29 1303,-228.29 1303,-209.29 1431,-209.29 1431,-228.29"/>
<text text-anchor="middle" x="1367" y="-216.29" font-family="Helvetica,sans-Serif" font-size="10.00">ImGui::TabBarCloseTab</text>
</a>
</g>
</g>
<!-- Node2 -->
<g id="node2" class="node">
<title>Node2</title>
<g id="a_node2"><a xlink:href="namespaceImGui.html#a4b4e1fb0487e571a4a04fb5b2274189e" target="_top" xlink:title=" ">
<polygon fill="white" stroke="#666666" points="1128,-247.29 958,-247.29 958,-228.29 1128,-228.29 1128,-247.29"/>
<text text-anchor="middle" x="1043" y="-235.29" font-family="Helvetica,sans-Serif" font-size="10.00">ImGui::DockNodeUpdateTabBar</text>
</a>
</g>
</g>
<!-- Node1&#45;&gt;Node2 -->
<g id="edge1" class="edge">
<title>Node1&#45;&gt;Node2</title>
<path fill="none" stroke="#63b8ff" d="M1292.57,-223.13C1243.62,-226.01 1179.15,-229.82 1128.13,-232.83"/>
<polygon fill="#63b8ff" stroke="#63b8ff" points="1292.99,-226.61 1302.77,-222.52 1292.58,-219.62 1292.99,-226.61"/>
</g>
<!-- Node14 -->
<g id="node14" class="node">
<title>Node14</title>
<g id="a_node14"><a xlink:href="namespaceImGui.html#a4e0986fc689e7855cd9a9099dc87dac5" target="_top" xlink:title=" ">
<polygon fill="white" stroke="#666666" points="1267,-209.29 1164,-209.29 1164,-190.29 1267,-190.29 1267,-209.29"/>
<text text-anchor="middle" x="1215.5" y="-197.29" font-family="Helvetica,sans-Serif" font-size="10.00">ImGui::TabItemEx</text>
</a>
</g>
</g>
<!-- Node1&#45;&gt;Node14 -->
<g id="edge15" class="edge">
<title>Node1&#45;&gt;Node14</title>
<path fill="none" stroke="#63b8ff" d="M1292.6,-209.46C1284.04,-208.38 1275.47,-207.29 1267.32,-206.25"/>
<polygon fill="#63b8ff" stroke="#63b8ff" points="1292.24,-212.95 1302.6,-210.74 1293.12,-206 1292.24,-212.95"/>
</g>
<!-- Node3 -->
<g id="node3" class="node">
<title>Node3</title>
<g id="a_node3"><a xlink:href="namespaceImGui.html#a526230d8de99b07ff2b2992c192ce212" target="_top" xlink:title=" ">
<polygon fill="white" stroke="#666666" points="922,-247.29 785,-247.29 785,-228.29 922,-228.29 922,-247.29"/>
<text text-anchor="middle" x="853.5" y="-235.29" font-family="Helvetica,sans-Serif" font-size="10.00">ImGui::DockNodeUpdate</text>
</a>
</g>
</g>
<!-- Node2&#45;&gt;Node3 -->
<g id="edge2" class="edge">
<title>Node2&#45;&gt;Node3</title>
<path fill="none" stroke="#63b8ff" d="M947.71,-237.79C939.07,-237.79 930.42,-237.79 922.08,-237.79"/>
<polygon fill="#63b8ff" stroke="#63b8ff" points="947.85,-241.29 957.85,-237.79 947.85,-234.29 947.85,-241.29"/>
</g>
<!-- Node3&#45;&gt;Node3 -->
<g id="edge7" class="edge">
<title>Node3&#45;&gt;Node3</title>
<path fill="none" stroke="#63b8ff" d="M888.73,-255.36C888.22,-260.91 876.47,-265.29 853.5,-265.29 820.09,-265.29 810.43,-256.03 824.52,-247.38"/>
<polygon fill="#63b8ff" stroke="#63b8ff" points="891.4,-253.09 882.48,-247.38 885.89,-257.41 891.4,-253.09"/>
</g>
<!-- Node4 -->
<g id="node4" class="node">
<title>Node4</title>
<g id="a_node4"><a xlink:href="namespaceImGui.html#a3fd836d2bd3163537d1c36607e93ed6d" target="_top" xlink:title=" ">
<polygon fill="white" stroke="#666666" points="737,-328.79 570,-328.79 570,-298.79 737,-298.79 737,-328.79"/>
<text text-anchor="start" x="578" y="-316.79" font-family="Helvetica,sans-Serif" font-size="10.00">ImGui::DockContextNewFrame</text>
<text text-anchor="middle" x="653.5" y="-305.79" font-family="Helvetica,sans-Serif" font-size="10.00">UpdateDocking</text>
</a>
</g>
</g>
<!-- Node3&#45;&gt;Node4 -->
<g id="edge3" class="edge">
<title>Node3&#45;&gt;Node4</title>
<path fill="none" stroke="#63b8ff" d="M817.73,-251.14C783.04,-264.45 729.85,-284.87 693.68,-298.75"/>
<polygon fill="#63b8ff" stroke="#63b8ff" points="819.34,-254.27 827.42,-247.42 816.83,-247.73 819.34,-254.27"/>
</g>
<!-- Node8 -->
<g id="node8" class="node">
<title>Node8</title>
<g id="a_node8"><a xlink:href="namespaceImGui.html#a3d9d26cbb99a95938979a3ca3e211f92" target="_top" xlink:title=" ">
<polygon fill="white" stroke="#666666" points="706.5,-247.29 600.5,-247.29 600.5,-228.29 706.5,-228.29 706.5,-247.29"/>
<text text-anchor="middle" x="653.5" y="-235.29" font-family="Helvetica,sans-Serif" font-size="10.00">ImGui::DockSpace</text>
</a>
</g>
</g>
<!-- Node3&#45;&gt;Node8 -->
<g id="edge8" class="edge">
<title>Node3&#45;&gt;Node8</title>
<path fill="none" stroke="#63b8ff" d="M774.9,-237.79C752.06,-237.79 727.63,-237.79 706.79,-237.79"/>
<polygon fill="#63b8ff" stroke="#63b8ff" points="774.91,-241.29 784.91,-237.79 774.91,-234.29 774.91,-241.29"/>
</g>
<!-- Node5 -->
<g id="node5" class="node">
<title>Node5</title>
<g id="a_node5"><a xlink:href="namespaceImGui.html#ab3f1fc018f903b7ad79fd10663375774" target="_top" xlink:title=" ">
<polygon fill="white" stroke="#666666" points="487.5,-357.29 383.5,-357.29 383.5,-338.29 487.5,-338.29 487.5,-357.29"/>
<text text-anchor="middle" x="435.5" y="-345.29" font-family="Helvetica,sans-Serif" font-size="10.00">ImGui::NewFrame</text>
</a>
</g>
</g>
<!-- Node4&#45;&gt;Node5 -->
<g id="edge4" class="edge">
<title>Node4&#45;&gt;Node5</title>
<path fill="none" stroke="#63b8ff" d="M559.79,-328.39C535.1,-332.27 509.33,-336.33 487.77,-339.72"/>
<polygon fill="#63b8ff" stroke="#63b8ff" points="560.58,-331.81 569.92,-326.79 559.49,-324.89 560.58,-331.81"/>
</g>
<!-- Node6 -->
<g id="node6" class="node">
<title>Node6</title>
<g id="a_node6"><a xlink:href="classmtgb_1_1ImGuiRenderer.html#a4684d4374beee1f52053b4634edae2c8" target="_top" xlink:title=" ">
<polygon fill="white" stroke="#666666" points="301,-362.79 179,-362.79 179,-332.79 301,-332.79 301,-362.79"/>
<text text-anchor="start" x="187" y="-350.79" font-family="Helvetica,sans-Serif" font-size="10.00">mtgb::ImGuiRenderer</text>
<text text-anchor="middle" x="240" y="-339.79" font-family="Helvetica,sans-Serif" font-size="10.00">::BeginFrame</text>
</a>
</g>
</g>
<!-- Node5&#45;&gt;Node6 -->
<g id="edge5" class="edge">
<title>Node5&#45;&gt;Node6</title>
<path fill="none" stroke="#63b8ff" d="M373.11,-347.79C350.17,-347.79 324.16,-347.79 301.33,-347.79"/>
<polygon fill="#63b8ff" stroke="#63b8ff" points="373.41,-351.29 383.41,-347.79 373.41,-344.29 373.41,-351.29"/>
</g>
<!-- Node7 -->
<g id="node7" class="node">
<title>Node7</title>
<g id="a_node7"><a xlink:href="classmtgb_1_1RenderSystem.html#a14e39d4590efdf77c2085b12c6f3cdf5" target="_top" xlink:title=" ">
<polygon fill="white" stroke="#666666" points="131,-362.79 0,-362.79 0,-332.79 131,-332.79 131,-362.79"/>
<text text-anchor="start" x="8" y="-350.79" font-family="Helvetica,sans-Serif" font-size="10.00">mtgb::RenderSystem</text>
<text text-anchor="middle" x="65.5" y="-339.79" font-family="Helvetica,sans-Serif" font-size="10.00">::RenderImGuiWindows</text>
</a>
</g>
</g>
<!-- Node6&#45;&gt;Node7 -->
<g id="edge6" class="edge">
<title>Node6&#45;&gt;Node7</title>
<path fill="none" stroke="#63b8ff" d="M168.44,-347.79C156.12,-347.79 143.36,-347.79 131.2,-347.79"/>
<polygon fill="#63b8ff" stroke="#63b8ff" points="168.67,-351.29 178.67,-347.79 168.67,-344.29 168.67,-351.29"/>
</g>
<!-- Node9 -->
<g id="node9" class="node">
<title>Node9</title>
<g id="a_node9"><a xlink:href="namespaceImGui.html#a941b7d9d1f491f778796221031b5e439" target="_top" xlink:title=" ">
<polygon fill="white" stroke="#666666" points="513,-320.29 358,-320.29 358,-301.29 513,-301.29 513,-320.29"/>
<text text-anchor="middle" x="435.5" y="-308.29" font-family="Helvetica,sans-Serif" font-size="10.00">ImGui::DockBuilderAddNode</text>
</a>
</g>
</g>
<!-- Node8&#45;&gt;Node9 -->
<g id="edge9" class="edge">
<title>Node8&#45;&gt;Node9</title>
<path fill="none" stroke="#63b8ff" d="M623.76,-251.79C597.71,-264.02 558,-281.53 522,-292.79 511.72,-296.01 500.57,-298.83 489.81,-301.22"/>
<polygon fill="#63b8ff" stroke="#63b8ff" points="625.51,-254.83 633.04,-247.38 622.51,-248.51 625.51,-254.83"/>
</g>
<!-- Node10 -->
<g id="node10" class="node">
<title>Node10</title>
<g id="a_node10"><a xlink:href="namespaceImGui.html#a29b58b0887b599185dfe677eb3ef6cdc" target="_top" xlink:title=" ">
<polygon fill="white" stroke="#666666" points="522,-283.29 349,-283.29 349,-264.29 522,-264.29 522,-283.29"/>
<text text-anchor="middle" x="435.5" y="-271.29" font-family="Helvetica,sans-Serif" font-size="10.00">ImGui::DockSpaceOverViewport</text>
</a>
</g>
</g>
<!-- Node8&#45;&gt;Node10 -->
<g id="edge10" class="edge">
<title>Node8&#45;&gt;Node10</title>
<path fill="none" stroke="#63b8ff" d="M590.41,-248.14C559.96,-253.22 523.53,-259.29 493.75,-264.25"/>
<polygon fill="#63b8ff" stroke="#63b8ff" points="591.2,-251.56 600.49,-246.46 590.05,-244.65 591.2,-251.56"/>
</g>
<!-- Node11 -->
<g id="node11" class="node">
<title>Node11</title>
<g id="a_node11"><a xlink:href="imgui__demo_8cpp.html#ae18f1dc3d5298b314080b35f6c20d781" target="_top" xlink:title=" ">
<polygon fill="white" stroke="#666666" points="514.5,-246.29 356.5,-246.29 356.5,-227.29 514.5,-227.29 514.5,-246.29"/>
<text text-anchor="middle" x="435.5" y="-234.29" font-family="Helvetica,sans-Serif" font-size="10.00">ShowExampleAppDockSpace</text>
</a>
</g>
</g>
<!-- Node8&#45;&gt;Node11 -->
<g id="edge11" class="edge">
<title>Node8&#45;&gt;Node11</title>
<path fill="none" stroke="#63b8ff" d="M590.27,-237.51C566.68,-237.4 539.52,-237.27 514.65,-237.16"/>
<polygon fill="#63b8ff" stroke="#63b8ff" points="590.47,-241.01 600.49,-237.55 590.5,-234.01 590.47,-241.01"/>
</g>
<!-- Node13 -->
<g id="node13" class="node">
<title>Node13</title>
<g id="a_node13"><a xlink:href="imgui__demo_8cpp.html#aa9e4f5130b74080ea2d97916a91b3b3c" target="_top" xlink:title=" ">
<polygon fill="white" stroke="#666666" points="515.5,-209.29 355.5,-209.29 355.5,-190.29 515.5,-190.29 515.5,-209.29"/>
<text text-anchor="middle" x="435.5" y="-197.29" font-family="Helvetica,sans-Serif" font-size="10.00">ShowExampleAppDocuments</text>
</a>
</g>
</g>
<!-- Node8&#45;&gt;Node13 -->
<g id="edge13" class="edge">
<title>Node8&#45;&gt;Node13</title>
<path fill="none" stroke="#63b8ff" d="M590.5,-226.89C558.98,-221.34 521.03,-214.66 490.7,-209.33"/>
<polygon fill="#63b8ff" stroke="#63b8ff" points="590.03,-230.36 600.49,-228.64 591.25,-223.46 590.03,-230.36"/>
</g>
<!-- Node12 -->
<g id="node12" class="node">
<title>Node12</title>
<g id="a_node12"><a xlink:href="namespaceImGui.html#af95643a0ce4893b9e57c12991922fb18" target="_top" xlink:title=" ">
<polygon fill="white" stroke="#666666" points="313,-134.29 167,-134.29 167,-115.29 313,-115.29 313,-134.29"/>
<text text-anchor="middle" x="240" y="-122.29" font-family="Helvetica,sans-Serif" font-size="10.00">ImGui::ShowDemoWindow</text>
</a>
</g>
</g>
<!-- Node11&#45;&gt;Node12 -->
<g id="edge12" class="edge">
<title>Node11&#45;&gt;Node12</title>
<path fill="none" stroke="#63b8ff" d="M361.55,-224.14C357.22,-222.56 353,-220.79 349,-218.79 305.61,-197.19 265.66,-153.96 249.08,-134.58"/>
<polygon fill="#63b8ff" stroke="#63b8ff" points="360.56,-227.5 371.15,-227.28 362.74,-220.84 360.56,-227.5"/>
</g>
<!-- Node13&#45;&gt;Node12 -->
<g id="edge14" class="edge">
<title>Node13&#45;&gt;Node12</title>
<path fill="none" stroke="#63b8ff" d="M368.47,-187.83C361.82,-186.05 355.23,-184.04 349,-181.79 313.9,-169.12 276.02,-146.93 255.77,-134.3"/>
<polygon fill="#63b8ff" stroke="#63b8ff" points="367.67,-191.24 378.22,-190.28 369.38,-184.45 367.67,-191.24"/>
</g>
<!-- Node14&#45;&gt;Node2 -->
<g id="edge29" class="edge">
<title>Node14&#45;&gt;Node2</title>
<path fill="none" stroke="#63b8ff" d="M1161.45,-211.62C1137.41,-216.97 1109.37,-223.22 1086.71,-228.27"/>
<polygon fill="#63b8ff" stroke="#63b8ff" points="1162.48,-214.97 1171.48,-209.38 1160.95,-208.14 1162.48,-214.97"/>
</g>
<!-- Node15 -->
<g id="node15" class="node">
<title>Node15</title>
<g id="a_node15"><a xlink:href="namespaceImGui.html#a4cee1ccc9018a298cfff90a704bde8ca" target="_top" xlink:title=" ">
<polygon fill="white" stroke="#666666" points="913,-133.29 794,-133.29 794,-114.29 913,-114.29 913,-133.29"/>
<text text-anchor="middle" x="853.5" y="-121.29" font-family="Helvetica,sans-Serif" font-size="10.00">ImGui::BeginTabItem</text>
</a>
</g>
</g>
<!-- Node14&#45;&gt;Node15 -->
<g id="edge16" class="edge">
<title>Node14&#45;&gt;Node15</title>
<path fill="none" stroke="#63b8ff" d="M1159.14,-188.11C1087.88,-173.06 965.41,-147.21 899.54,-133.3"/>
<polygon fill="#63b8ff" stroke="#63b8ff" points="1158.76,-191.6 1169.27,-190.24 1160.21,-184.75 1158.76,-191.6"/>
</g>
<!-- Node22 -->
<g id="node22" class="node">
<title>Node22</title>
<g id="a_node22"><a xlink:href="namespaceImGui.html#a1dbc539ac5b49e9445c4573607e6d60d" target="_top" xlink:title=" ">
<polygon fill="white" stroke="#666666" points="1104.5,-209.29 981.5,-209.29 981.5,-190.29 1104.5,-190.29 1104.5,-209.29"/>
<text text-anchor="middle" x="1043" y="-197.29" font-family="Helvetica,sans-Serif" font-size="10.00">ImGui::TabItemButton</text>
</a>
</g>
</g>
<!-- Node14&#45;&gt;Node22 -->
<g id="edge30" class="edge">
<title>Node14&#45;&gt;Node22</title>
<path fill="none" stroke="#63b8ff" d="M1153.58,-199.79C1137.7,-199.79 1120.6,-199.79 1104.73,-199.79"/>
<polygon fill="#63b8ff" stroke="#63b8ff" points="1153.81,-203.29 1163.81,-199.79 1153.81,-196.29 1153.81,-203.29"/>
</g>
<!-- Node23 -->
<g id="node23" class="node">
<title>Node23</title>
<g id="a_node23"><a xlink:href="namespaceImGui.html#a6790b1228d7557b5476bc5186773edbd" target="_top" xlink:title=" ">
<polygon fill="white" stroke="#666666" points="1107.5,-133.29 978.5,-133.29 978.5,-114.29 1107.5,-114.29 1107.5,-133.29"/>
<text text-anchor="middle" x="1043" y="-121.29" font-family="Helvetica,sans-Serif" font-size="10.00">ImGui::TabItemSpacing</text>
</a>
</g>
</g>
<!-- Node14&#45;&gt;Node23 -->
<g id="edge32" class="edge">
<title>Node14&#45;&gt;Node23</title>
<path fill="none" stroke="#63b8ff" d="M1192.41,-184.28C1175.43,-172.92 1151.05,-157.81 1128,-147.79 1114.65,-141.99 1099.49,-137.17 1085.77,-133.4"/>
<polygon fill="#63b8ff" stroke="#63b8ff" points="1190.79,-187.41 1201.02,-190.15 1194.73,-181.63 1190.79,-187.41"/>
</g>
<!-- Node15&#45;&gt;Node13 -->
<g id="edge24" class="edge">
<title>Node15&#45;&gt;Node13</title>
<path fill="none" stroke="#63b8ff" d="M790.79,-135.13C777.03,-137.66 762.52,-140.32 749,-142.79 657.46,-159.54 550.81,-178.98 488.75,-190.28"/>
<polygon fill="#63b8ff" stroke="#63b8ff" points="791.44,-138.57 800.64,-133.32 790.18,-131.69 791.44,-138.57"/>
</g>
<!-- Node16 -->
<g id="node16" class="node">
<title>Node16</title>
<g id="a_node16"><a xlink:href="imgui__demo_8cpp.html#acdabfa47af2ef5ba0a22b98a4368cc7d" target="_top" xlink:title=" ">
<polygon fill="white" stroke="#666666" points="494.5,-20.29 376.5,-20.29 376.5,-1.29 494.5,-1.29 494.5,-20.29"/>
<text text-anchor="middle" x="435.5" y="-8.29" font-family="Helvetica,sans-Serif" font-size="10.00">DemoWindowLayout</text>
</a>
</g>
</g>
<!-- Node15&#45;&gt;Node16 -->
<g id="edge17" class="edge">
<title>Node15&#45;&gt;Node16</title>
<path fill="none" stroke="#63b8ff" d="M839.35,-106.26C821.6,-84.16 787.73,-47.07 749,-30.79 665.93,4.13 559.43,2.21 494.66,-3.48"/>
<polygon fill="#63b8ff" stroke="#63b8ff" points="836.62,-108.46 845.53,-114.19 842.14,-104.15 836.62,-108.46"/>
</g>
<!-- Node17 -->
<g id="node17" class="node">
<title>Node17</title>
<g id="a_node17"><a xlink:href="imgui__demo_8cpp.html#a4a8b43c9807a5eba9ab2ad96226e032e" target="_top" xlink:title=" ">
<polygon fill="white" stroke="#666666" points="726.5,-209.29 580.5,-209.29 580.5,-190.29 726.5,-190.29 726.5,-209.29"/>
<text text-anchor="middle" x="653.5" y="-197.29" font-family="Helvetica,sans-Serif" font-size="10.00">DemoWindowWidgetsTabs</text>
</a>
</g>
</g>
<!-- Node15&#45;&gt;Node17 -->
<g id="edge19" class="edge">
<title>Node15&#45;&gt;Node17</title>
<path fill="none" stroke="#63b8ff" d="M827.43,-138.33C806.88,-149.76 776.77,-165.43 749,-175.79 733.46,-181.59 715.97,-186.47 700.3,-190.28"/>
<polygon fill="#63b8ff" stroke="#63b8ff" points="829.16,-141.37 836.15,-133.41 825.72,-135.27 829.16,-141.37"/>
</g>
<!-- Node19 -->
<g id="node19" class="node">
<title>Node19</title>
<g id="a_node19"><a xlink:href="imgui__demo_8cpp.html#a0729207a285af6ef57ce5a31d1a60348" target="_top" xlink:title=" ">
<polygon fill="white" stroke="#666666" points="749,-133.29 558,-133.29 558,-114.29 749,-114.29 749,-133.29"/>
<text text-anchor="middle" x="653.5" y="-121.29" font-family="Helvetica,sans-Serif" font-size="10.00">ShowExampleAppCustomRendering</text>
</a>
</g>
</g>
<!-- Node15&#45;&gt;Node19 -->
<g id="edge22" class="edge">
<title>Node15&#45;&gt;Node19</title>
<path fill="none" stroke="#63b8ff" d="M783.84,-123.79C772.69,-123.79 760.98,-123.79 749.34,-123.79"/>
<polygon fill="#63b8ff" stroke="#63b8ff" points="783.9,-127.29 793.9,-123.79 783.9,-120.29 783.9,-127.29"/>
</g>
<!-- Node20 -->
<g id="node20" class="node">
<title>Node20</title>
<g id="a_node20"><a xlink:href="imgui__demo_8cpp.html#adfe8516f13b623adbf78b024efd5bb6e" target="_top" xlink:title=" ">
<polygon fill="white" stroke="#666666" points="722,-96.29 585,-96.29 585,-77.29 722,-77.29 722,-96.29"/>
<text text-anchor="middle" x="653.5" y="-84.29" font-family="Helvetica,sans-Serif" font-size="10.00">ShowExampleAppLayout</text>
</a>
</g>
</g>
<!-- Node15&#45;&gt;Node20 -->
<g id="edge25" class="edge">
<title>Node15&#45;&gt;Node20</title>
<path fill="none" stroke="#63b8ff" d="M791.6,-112.41C764.07,-107.27 731.91,-101.26 705.66,-96.35"/>
<polygon fill="#63b8ff" stroke="#63b8ff" points="791.04,-115.87 801.51,-114.26 792.32,-108.99 791.04,-115.87"/>
</g>
<!-- Node21 -->
<g id="node21" class="node">
<title>Node21</title>
<g id="a_node21"><a xlink:href="namespaceImGui.html#ab2eb3dec78d054fe3feab1c091ec5de5" target="_top" xlink:title=" ">
<polygon fill="white" stroke="#666666" points="719,-59.29 588,-59.29 588,-40.29 719,-40.29 719,-59.29"/>
<text text-anchor="middle" x="653.5" y="-47.29" font-family="Helvetica,sans-Serif" font-size="10.00">ImGui::ShowStyleEditor</text>
</a>
</g>
</g>
<!-- Node15&#45;&gt;Node21 -->
<g id="edge27" class="edge">
<title>Node15&#45;&gt;Node21</title>
<path fill="none" stroke="#63b8ff" d="M829.52,-108.67C809.16,-95.94 778.21,-78.19 749,-67.79 739.48,-64.4 729.18,-61.61 719.01,-59.32"/>
<polygon fill="#63b8ff" stroke="#63b8ff" points="827.77,-111.71 838.09,-114.12 831.53,-105.8 827.77,-111.71"/>
</g>
<!-- Node16&#45;&gt;Node12 -->
<g id="edge18" class="edge">
<title>Node16&#45;&gt;Node12</title>
<path fill="none" stroke="#63b8ff" d="M377.32,-23.22C367.59,-26.34 357.8,-30.16 349,-34.79 307.31,-56.72 267.1,-96.74 249.83,-115.11"/>
<polygon fill="#63b8ff" stroke="#63b8ff" points="378.41,-26.55 386.99,-20.32 376.4,-19.84 378.41,-26.55"/>
</g>
<!-- Node18 -->
<g id="node18" class="node">
<title>Node18</title>
<g id="a_node18"><a xlink:href="imgui__demo_8cpp.html#a9a639caab781642cbc4f4a23bfbd11cd" target="_top" xlink:title=" ">
<polygon fill="white" stroke="#666666" points="498,-172.29 373,-172.29 373,-153.29 498,-153.29 498,-172.29"/>
<text text-anchor="middle" x="435.5" y="-160.29" font-family="Helvetica,sans-Serif" font-size="10.00">DemoWindowWidgets</text>
</a>
</g>
</g>
<!-- Node17&#45;&gt;Node18 -->
<g id="edge20" class="edge">
<title>Node17&#45;&gt;Node18</title>
<path fill="none" stroke="#63b8ff" d="M586.85,-188.55C556.65,-183.37 521.2,-177.3 492.31,-172.35"/>
<polygon fill="#63b8ff" stroke="#63b8ff" points="586.43,-192.03 596.87,-190.26 587.61,-185.13 586.43,-192.03"/>
</g>
<!-- Node18&#45;&gt;Node12 -->
<g id="edge21" class="edge">
<title>Node18&#45;&gt;Node12</title>
<path fill="none" stroke="#63b8ff" d="M375.75,-151.26C348.15,-145.84 315.65,-139.45 289.48,-134.31"/>
<polygon fill="#63b8ff" stroke="#63b8ff" points="375.18,-154.71 385.67,-153.2 376.53,-147.84 375.18,-154.71"/>
</g>
<!-- Node19&#45;&gt;Node12 -->
<g id="edge23" class="edge">
<title>Node19&#45;&gt;Node12</title>
<path fill="none" stroke="#63b8ff" d="M547.63,-124.05C474.2,-124.23 377.98,-124.46 313.07,-124.62"/>
<polygon fill="#63b8ff" stroke="#63b8ff" points="547.84,-127.55 557.84,-124.02 547.83,-120.55 547.84,-127.55"/>
</g>
<!-- Node20&#45;&gt;Node12 -->
<g id="edge26" class="edge">
<title>Node20&#45;&gt;Node12</title>
<path fill="none" stroke="#63b8ff" d="M574.19,-94.02C498.99,-100.97 386.3,-111.38 313.21,-118.13"/>
<polygon fill="#63b8ff" stroke="#63b8ff" points="574.91,-97.47 584.55,-93.07 574.27,-90.5 574.91,-97.47"/>
</g>
<!-- Node21&#45;&gt;Node12 -->
<g id="edge28" class="edge">
<title>Node21&#45;&gt;Node12</title>
<path fill="none" stroke="#63b8ff" d="M577.81,-58.25C516.09,-65.87 426.37,-78.38 349,-94.79 322.54,-100.41 292.97,-108.77 271.48,-115.24"/>
<polygon fill="#63b8ff" stroke="#63b8ff" points="578.35,-61.71 587.85,-57.03 577.5,-54.76 578.35,-61.71"/>
</g>
<!-- Node22&#45;&gt;Node17 -->
<g id="edge31" class="edge">
<title>Node22&#45;&gt;Node17</title>
<path fill="none" stroke="#63b8ff" d="M971.06,-199.79C901.71,-199.79 796.64,-199.79 726.82,-199.79"/>
<polygon fill="#63b8ff" stroke="#63b8ff" points="971.45,-203.29 981.45,-199.79 971.45,-196.29 971.45,-203.29"/>
</g>
</g>
</svg>
