<?xml version="1.0" encoding="UTF-8" standalone="no"?>
<!DOCTYPE svg PUBLIC "-//W3C//DTD SVG 1.1//EN"
 "http://www.w3.org/Graphics/SVG/1.1/DTD/svg11.dtd">
<!-- Generated by graphviz version 2.43.0 (0)
 -->
<!-- Title: ImGui::BeginDragDropTarget Pages: 1 -->
<svg width="584pt" height="101pt"
 viewBox="0.00 0.00 584.00 101.00" xmlns="http://www.w3.org/2000/svg" xmlns:xlink="http://www.w3.org/1999/xlink">
<g id="graph0" class="graph" transform="scale(1 1) rotate(0) translate(4 97)">
<title>ImGui::BeginDragDropTarget</title>
<!-- Node1 -->
<g id="node1" class="node">
<title>Node1</title>
<g id="a_node1"><a xlink:title=" ">
<polygon fill="#999999" stroke="#666666" points="156,-37 0,-37 0,-18 156,-18 156,-37"/>
<text text-anchor="middle" x="78" y="-25" font-family="Helvetica,sans-Serif" font-size="10.00">ImGui::BeginDragDropTarget</text>
</a>
</g>
</g>
<!-- Node2 -->
<g id="node2" class="node">
<title>Node2</title>
<g id="a_node2"><a xlink:href="structImGuiWindow.html#a44931b6e73248930490d2c89377a8233" target="_top" xlink:title=" ">
<polygon fill="white" stroke="#666666" points="383,-56 192,-56 192,-37 383,-37 383,-56"/>
<text text-anchor="middle" x="287.5" y="-44" font-family="Helvetica,sans-Serif" font-size="10.00">ImGuiWindow::GetIDFromRectangle</text>
</a>
</g>
</g>
<!-- Node1&#45;&gt;Node2 -->
<g id="edge1" class="edge">
<title>Node1&#45;&gt;Node2</title>
<path fill="none" stroke="#63b8ff" d="M156.27,-34.57C164.63,-35.34 173.24,-36.13 181.86,-36.92"/>
<polygon fill="#63b8ff" stroke="#63b8ff" points="181.69,-40.42 191.97,-37.84 182.33,-33.45 181.69,-40.42"/>
</g>
<!-- Node6 -->
<g id="node6" class="node">
<title>Node6</title>
<g id="a_node6"><a xlink:href="namespaceImGui.html#a85a245c78a9f7c351636bdad6e60c488" target="_top" xlink:title=" ">
<polygon fill="white" stroke="#666666" points="343,-19 232,-19 232,0 343,0 343,-19"/>
<text text-anchor="middle" x="287.5" y="-7" font-family="Helvetica,sans-Serif" font-size="10.00">ImGui::KeepAliveID</text>
</a>
</g>
</g>
<!-- Node1&#45;&gt;Node6 -->
<g id="edge5" class="edge">
<title>Node1&#45;&gt;Node6</title>
<path fill="none" stroke="#63b8ff" d="M156.27,-20.8C177.85,-18.92 201.08,-16.91 221.85,-15.11"/>
<polygon fill="#63b8ff" stroke="#63b8ff" points="222.18,-18.59 231.84,-14.24 221.57,-11.62 222.18,-18.59"/>
</g>
<!-- Node3 -->
<g id="node3" class="node">
<title>Node3</title>
<g id="a_node3"><a xlink:href="structImVector.html#a2d80e87e81b1b01143c8d8be93e6fde1" target="_top" xlink:title=" ">
<polygon fill="white" stroke="#666666" points="542,-93 453,-93 453,-74 542,-74 542,-93"/>
<text text-anchor="middle" x="497.5" y="-81" font-family="Helvetica,sans-Serif" font-size="10.00">ImVector::back</text>
</a>
</g>
</g>
<!-- Node2&#45;&gt;Node3 -->
<g id="edge2" class="edge">
<title>Node2&#45;&gt;Node3</title>
<path fill="none" stroke="#63b8ff" d="M342.07,-56.03C372.99,-61.53 411.78,-68.43 442.74,-73.94"/>
<polygon fill="#63b8ff" stroke="#63b8ff" points="442.46,-77.44 452.92,-75.75 443.68,-70.55 442.46,-77.44"/>
</g>
<!-- Node4 -->
<g id="node4" class="node">
<title>Node4</title>
<g id="a_node4"><a xlink:href="imgui_8cpp.html#adcff81c770c78d6427764e29369dd254" target="_top" xlink:title=" ">
<polygon fill="white" stroke="#666666" points="536,-56 459,-56 459,-37 536,-37 536,-56"/>
<text text-anchor="middle" x="497.5" y="-44" font-family="Helvetica,sans-Serif" font-size="10.00">ImHashData</text>
</a>
</g>
</g>
<!-- Node2&#45;&gt;Node4 -->
<g id="edge3" class="edge">
<title>Node2&#45;&gt;Node4</title>
<path fill="none" stroke="#63b8ff" d="M383.07,-46.5C405.81,-46.5 429.16,-46.5 448.71,-46.5"/>
<polygon fill="#63b8ff" stroke="#63b8ff" points="448.87,-50 458.87,-46.5 448.87,-43 448.87,-50"/>
</g>
<!-- Node5 -->
<g id="node5" class="node">
<title>Node5</title>
<g id="a_node5"><a xlink:href="namespaceImGui.html#a06d8e9fae450c785dc8f61f6e03462a7" target="_top" xlink:title=" ">
<polygon fill="white" stroke="#666666" points="576,-19 419,-19 419,0 576,0 576,-19"/>
<text text-anchor="middle" x="497.5" y="-7" font-family="Helvetica,sans-Serif" font-size="10.00">ImGui::WindowRectAbsToRel</text>
</a>
</g>
</g>
<!-- Node2&#45;&gt;Node5 -->
<g id="edge4" class="edge">
<title>Node2&#45;&gt;Node5</title>
<path fill="none" stroke="#63b8ff" d="M342.07,-36.97C369.74,-32.05 403.7,-26.01 432.71,-20.85"/>
<polygon fill="#63b8ff" stroke="#63b8ff" points="433.52,-24.26 442.76,-19.06 432.3,-17.37 433.52,-24.26"/>
</g>
</g>
</svg>
