<?xml version="1.0" encoding="UTF-8" standalone="no"?>
<!DOCTYPE svg PUBLIC "-//W3C//DTD SVG 1.1//EN"
 "http://www.w3.org/Graphics/SVG/1.1/DTD/svg11.dtd">
<!-- Generated by graphviz version 2.43.0 (0)
 -->
<!-- Title: ImGui::UnregisterFontAtlas Pages: 1 -->
<svg width="615pt" height="38pt"
 viewBox="0.00 0.00 615.00 38.00" xmlns="http://www.w3.org/2000/svg" xmlns:xlink="http://www.w3.org/1999/xlink">
<g id="graph0" class="graph" transform="scale(1 1) rotate(0) translate(4 34)">
<title>ImGui::UnregisterFontAtlas</title>
<!-- Node1 -->
<g id="node1" class="node">
<title>Node1</title>
<g id="a_node1"><a xlink:title=" ">
<polygon fill="#999999" stroke="#666666" points="607,-24.5 458,-24.5 458,-5.5 607,-5.5 607,-24.5"/>
<text text-anchor="middle" x="532.5" y="-12.5" font-family="Helvetica,sans-Serif" font-size="10.00">ImGui::UnregisterFontAtlas</text>
</a>
</g>
</g>
<!-- Node2 -->
<g id="node2" class="node">
<title>Node2</title>
<g id="a_node2"><a xlink:href="namespaceImGui.html#aeba34069558d4fbcf734a9c92ce3b773" target="_top" xlink:title=" ">
<polygon fill="white" stroke="#666666" points="422,-24.5 322,-24.5 322,-5.5 422,-5.5 422,-24.5"/>
<text text-anchor="middle" x="372" y="-12.5" font-family="Helvetica,sans-Serif" font-size="10.00">ImGui::Shutdown</text>
</a>
</g>
</g>
<!-- Node1&#45;&gt;Node2 -->
<g id="edge1" class="edge">
<title>Node1&#45;&gt;Node2</title>
<path fill="none" stroke="#63b8ff" d="M447.57,-15C438.85,-15 430.2,-15 422.06,-15"/>
<polygon fill="#63b8ff" stroke="#63b8ff" points="447.82,-18.5 457.82,-15 447.82,-11.5 447.82,-18.5"/>
</g>
<!-- Node3 -->
<g id="node3" class="node">
<title>Node3</title>
<g id="a_node3"><a xlink:href="namespaceImGui.html#ab9132deece575023170cd8e681d0581d" target="_top" xlink:title=" ">
<polygon fill="white" stroke="#666666" points="286,-24.5 158,-24.5 158,-5.5 286,-5.5 286,-24.5"/>
<text text-anchor="middle" x="222" y="-12.5" font-family="Helvetica,sans-Serif" font-size="10.00">ImGui::DestroyContext</text>
</a>
</g>
</g>
<!-- Node2&#45;&gt;Node3 -->
<g id="edge2" class="edge">
<title>Node2&#45;&gt;Node3</title>
<path fill="none" stroke="#63b8ff" d="M311.61,-15C303.19,-15 294.51,-15 286.02,-15"/>
<polygon fill="#63b8ff" stroke="#63b8ff" points="311.72,-18.5 321.72,-15 311.72,-11.5 311.72,-18.5"/>
</g>
<!-- Node4 -->
<g id="node4" class="node">
<title>Node4</title>
<g id="a_node4"><a xlink:href="classmtgb_1_1ImGuiRenderer.html#a9ef4f353cce28e09af4b18d95f4a253b" target="_top" xlink:title="開放処理">
<polygon fill="white" stroke="#666666" points="122,-30 0,-30 0,0 122,0 122,-30"/>
<text text-anchor="start" x="8" y="-18" font-family="Helvetica,sans-Serif" font-size="10.00">mtgb::ImGuiRenderer</text>
<text text-anchor="middle" x="61" y="-7" font-family="Helvetica,sans-Serif" font-size="10.00">::Release</text>
</a>
</g>
</g>
<!-- Node3&#45;&gt;Node4 -->
<g id="edge3" class="edge">
<title>Node3&#45;&gt;Node4</title>
<path fill="none" stroke="#63b8ff" d="M147.47,-15C139.02,-15 130.48,-15 122.23,-15"/>
<polygon fill="#63b8ff" stroke="#63b8ff" points="147.7,-18.5 157.7,-15 147.7,-11.5 147.7,-18.5"/>
</g>
</g>
</svg>
