<?xml version="1.0" encoding="UTF-8" standalone="no"?>
<!DOCTYPE svg PUBLIC "-//W3C//DTD SVG 1.1//EN"
 "http://www.w3.org/Graphics/SVG/1.1/DTD/svg11.dtd">
<!-- Generated by graphviz version 2.43.0 (0)
 -->
<!-- Title: ImGui::UpdateWindowInFocusOrderList Pages: 1 -->
<svg width="503pt" height="119pt"
 viewBox="0.00 0.00 503.00 119.00" xmlns="http://www.w3.org/2000/svg" xmlns:xlink="http://www.w3.org/1999/xlink">
<g id="graph0" class="graph" transform="scale(1 1) rotate(0) translate(4 115)">
<title>ImGui::UpdateWindowInFocusOrderList</title>
<!-- Node1 -->
<g id="node1" class="node">
<title>Node1</title>
<g id="a_node1"><a xlink:title=" ">
<polygon fill="#999999" stroke="#666666" points="163,-79.5 0,-79.5 0,-49.5 163,-49.5 163,-79.5"/>
<text text-anchor="start" x="8" y="-67.5" font-family="Helvetica,sans-Serif" font-size="10.00">ImGui::UpdateWindowInFocus</text>
<text text-anchor="middle" x="81.5" y="-56.5" font-family="Helvetica,sans-Serif" font-size="10.00">OrderList</text>
</a>
</g>
</g>
<!-- Node2 -->
<g id="node2" class="node">
<title>Node2</title>
<g id="a_node2"><a xlink:href="structImVector.html#a2e7860fbde1c721f168b6262d8f14aec" target="_top" xlink:title=" ">
<polygon fill="white" stroke="#666666" points="311.5,-111 204.5,-111 204.5,-92 311.5,-92 311.5,-111"/>
<text text-anchor="middle" x="258" y="-99" font-family="Helvetica,sans-Serif" font-size="10.00">ImVector::contains</text>
</a>
</g>
</g>
<!-- Node1&#45;&gt;Node2 -->
<g id="edge1" class="edge">
<title>Node1&#45;&gt;Node2</title>
<path fill="none" stroke="#63b8ff" d="M153.48,-79.55C169.73,-83 186.77,-86.61 202.22,-89.88"/>
<polygon fill="#63b8ff" stroke="#63b8ff" points="201.61,-93.33 212.12,-91.98 203.06,-86.49 201.61,-93.33"/>
</g>
<!-- Node3 -->
<g id="node3" class="node">
<title>Node3</title>
<g id="a_node3"><a xlink:href="structImVector.html#a2f88ac70791f2da6d4168d7b29f38f1e" target="_top" xlink:title=" ">
<polygon fill="white" stroke="#666666" points="304.5,-74 211.5,-74 211.5,-55 304.5,-55 304.5,-74"/>
<text text-anchor="middle" x="258" y="-62" font-family="Helvetica,sans-Serif" font-size="10.00">ImVector::erase</text>
</a>
</g>
</g>
<!-- Node1&#45;&gt;Node3 -->
<g id="edge2" class="edge">
<title>Node1&#45;&gt;Node3</title>
<path fill="none" stroke="#63b8ff" d="M163.11,-64.5C176.09,-64.5 189.26,-64.5 201.47,-64.5"/>
<polygon fill="#63b8ff" stroke="#63b8ff" points="201.48,-68 211.48,-64.5 201.48,-61 201.48,-68"/>
</g>
<!-- Node4 -->
<g id="node4" class="node">
<title>Node4</title>
<g id="a_node4"><a xlink:href="structImVector.html#aab5df48e0711a48bd12f3206e08c4108" target="_top" xlink:title=" ">
<polygon fill="white" stroke="#666666" points="317,-37 199,-37 199,-18 317,-18 317,-37"/>
<text text-anchor="middle" x="258" y="-25" font-family="Helvetica,sans-Serif" font-size="10.00">ImVector::push_back</text>
</a>
</g>
</g>
<!-- Node1&#45;&gt;Node4 -->
<g id="edge3" class="edge">
<title>Node1&#45;&gt;Node4</title>
<path fill="none" stroke="#63b8ff" d="M153.48,-49.45C169.73,-46 186.77,-42.39 202.22,-39.12"/>
<polygon fill="#63b8ff" stroke="#63b8ff" points="203.06,-42.51 212.12,-37.02 201.61,-35.67 203.06,-42.51"/>
</g>
<!-- Node5 -->
<g id="node5" class="node">
<title>Node5</title>
<g id="a_node5"><a xlink:href="structImVector.html#a3a097635d464b1b70dc7d59996a88b28" target="_top" xlink:title=" ">
<polygon fill="white" stroke="#666666" points="495,-56 353,-56 353,-37 495,-37 495,-56"/>
<text text-anchor="middle" x="424" y="-44" font-family="Helvetica,sans-Serif" font-size="10.00">ImVector::_grow_capacity</text>
</a>
</g>
</g>
<!-- Node4&#45;&gt;Node5 -->
<g id="edge4" class="edge">
<title>Node4&#45;&gt;Node5</title>
<path fill="none" stroke="#63b8ff" d="M317.28,-34.25C325.55,-35.21 334.18,-36.21 342.78,-37.21"/>
<polygon fill="#63b8ff" stroke="#63b8ff" points="342.5,-40.7 352.83,-38.37 343.3,-33.74 342.5,-40.7"/>
</g>
<!-- Node6 -->
<g id="node6" class="node">
<title>Node6</title>
<g id="a_node6"><a xlink:href="structImVector.html#a0f14f5736c3372157856eebb67123b75" target="_top" xlink:title=" ">
<polygon fill="white" stroke="#666666" points="475.5,-19 372.5,-19 372.5,0 475.5,0 475.5,-19"/>
<text text-anchor="middle" x="424" y="-7" font-family="Helvetica,sans-Serif" font-size="10.00">ImVector::reserve</text>
</a>
</g>
</g>
<!-- Node4&#45;&gt;Node6 -->
<g id="edge5" class="edge">
<title>Node4&#45;&gt;Node6</title>
<path fill="none" stroke="#63b8ff" d="M317.28,-21.1C331.87,-19.5 347.55,-17.78 362.25,-16.17"/>
<polygon fill="#63b8ff" stroke="#63b8ff" points="362.69,-19.64 372.25,-15.07 361.93,-12.68 362.69,-19.64"/>
</g>
</g>
</svg>
