<?xml version="1.0" encoding="UTF-8" standalone="no"?>
<!DOCTYPE svg PUBLIC "-//W3C//DTD SVG 1.1//EN"
 "http://www.w3.org/Graphics/SVG/1.1/DTD/svg11.dtd">
<!-- Generated by graphviz version 2.43.0 (0)
 -->
<!-- Title: ImGui::RenderNavCursor Pages: 1 -->
<svg width="1287pt" height="420pt"
 viewBox="0.00 0.00 1287.00 419.50" xmlns="http://www.w3.org/2000/svg" xmlns:xlink="http://www.w3.org/1999/xlink">
<g id="graph0" class="graph" transform="scale(1 1) rotate(0) translate(4 415.5)">
<title>ImGui::RenderNavCursor</title>
<!-- Node1 -->
<g id="node1" class="node">
<title>Node1</title>
<g id="a_node1"><a xlink:title=" ">
<polygon fill="#999999" stroke="#666666" points="137,-124.5 0,-124.5 0,-105.5 137,-105.5 137,-124.5"/>
<text text-anchor="middle" x="68.5" y="-112.5" font-family="Helvetica,sans-Serif" font-size="10.00">ImGui::RenderNavCursor</text>
</a>
</g>
</g>
<!-- Node2 -->
<g id="node2" class="node">
<title>Node2</title>
<g id="a_node2"><a xlink:href="structImDrawList.html#ad96f10a3e954fe0c5b7c96d4e205af7b" target="_top" xlink:title=" ">
<polygon fill="white" stroke="#666666" points="303.5,-257.5 184.5,-257.5 184.5,-238.5 303.5,-238.5 303.5,-257.5"/>
<text text-anchor="middle" x="244" y="-245.5" font-family="Helvetica,sans-Serif" font-size="10.00">ImDrawList::AddRect</text>
</a>
</g>
</g>
<!-- Node1&#45;&gt;Node2 -->
<g id="edge1" class="edge">
<title>Node1&#45;&gt;Node2</title>
<path fill="none" stroke="#63b8ff" d="M81.98,-124.57C111.47,-147.17 185.73,-204.1 222.17,-232.04"/>
<polygon fill="#63b8ff" stroke="#63b8ff" points="220.1,-234.86 230.17,-238.16 224.36,-229.3 220.1,-234.86"/>
</g>
<!-- Node17 -->
<g id="node17" class="node">
<title>Node17</title>
<g id="a_node17"><a xlink:href="structImRect.html#ac02d5cf6ce0358aea9ed9df43d368f3f" target="_top" xlink:title=" ">
<polygon fill="white" stroke="#666666" points="293,-181.5 195,-181.5 195,-162.5 293,-162.5 293,-181.5"/>
<text text-anchor="middle" x="244" y="-169.5" font-family="Helvetica,sans-Serif" font-size="10.00">ImRect::ClipWith</text>
</a>
</g>
</g>
<!-- Node1&#45;&gt;Node17 -->
<g id="edge20" class="edge">
<title>Node1&#45;&gt;Node17</title>
<path fill="none" stroke="#63b8ff" d="M93.55,-124.51C114.4,-132.58 145.46,-144.23 173,-153 180.26,-155.31 187.99,-157.59 195.58,-159.73"/>
<polygon fill="#63b8ff" stroke="#63b8ff" points="194.84,-163.15 205.41,-162.44 196.7,-156.41 194.84,-163.15"/>
</g>
<!-- Node19 -->
<g id="node19" class="node">
<title>Node19</title>
<g id="a_node19"><a xlink:href="structImRect.html#ac583156fd0e9306181fff5d120b262ea" target="_top" xlink:title=" ">
<polygon fill="white" stroke="#666666" points="294,-68.5 194,-68.5 194,-49.5 294,-49.5 294,-68.5"/>
<text text-anchor="middle" x="244" y="-56.5" font-family="Helvetica,sans-Serif" font-size="10.00">ImRect::Contains</text>
</a>
</g>
</g>
<!-- Node1&#45;&gt;Node19 -->
<g id="edge23" class="edge">
<title>Node1&#45;&gt;Node19</title>
<path fill="none" stroke="#63b8ff" d="M94.41,-105.48C115.26,-97.65 145.87,-86.52 173,-78 180.43,-75.67 188.36,-73.35 196.12,-71.18"/>
<polygon fill="#63b8ff" stroke="#63b8ff" points="197.07,-74.55 205.79,-68.52 195.22,-67.8 197.07,-74.55"/>
</g>
<!-- Node20 -->
<g id="node20" class="node">
<title>Node20</title>
<g id="a_node20"><a xlink:href="namespaceImGui.html#a0de2d9bd347d9866511eb8d014e62556" target="_top" xlink:title=" ">
<polygon fill="white" stroke="#666666" points="301,-28.5 187,-28.5 187,-9.5 301,-9.5 301,-28.5"/>
<text text-anchor="middle" x="244" y="-16.5" font-family="Helvetica,sans-Serif" font-size="10.00">ImGui::GetColorU32</text>
</a>
</g>
</g>
<!-- Node1&#45;&gt;Node20 -->
<g id="edge24" class="edge">
<title>Node1&#45;&gt;Node20</title>
<path fill="none" stroke="#63b8ff" d="M80.18,-105.35C98.13,-89.6 136,-58.3 173,-40 179.27,-36.9 186.08,-34.16 192.91,-31.78"/>
<polygon fill="#63b8ff" stroke="#63b8ff" points="194.45,-34.95 202.87,-28.52 192.28,-28.3 194.45,-34.95"/>
</g>
<!-- Node22 -->
<g id="node22" class="node">
<title>Node22</title>
<g id="a_node22"><a xlink:href="structImDrawList.html#a44f40c59ca755f559020f5a7fa81103a" target="_top" xlink:title=" ">
<polygon fill="white" stroke="#666666" points="312.5,-105.5 175.5,-105.5 175.5,-86.5 312.5,-86.5 312.5,-105.5"/>
<text text-anchor="middle" x="244" y="-93.5" font-family="Helvetica,sans-Serif" font-size="10.00">ImDrawList::PopClipRect</text>
</a>
</g>
</g>
<!-- Node1&#45;&gt;Node22 -->
<g id="edge26" class="edge">
<title>Node1&#45;&gt;Node22</title>
<path fill="none" stroke="#63b8ff" d="M137.08,-107.6C146.3,-106.59 155.83,-105.55 165.21,-104.52"/>
<polygon fill="#63b8ff" stroke="#63b8ff" points="165.76,-107.98 175.32,-103.41 165,-101.02 165.76,-107.98"/>
</g>
<!-- Node26 -->
<g id="node26" class="node">
<title>Node26</title>
<g id="a_node26"><a xlink:href="structImDrawList.html#a608a9d9a83715ba87dced8321ed64329" target="_top" xlink:title=" ">
<polygon fill="white" stroke="#666666" points="315,-143.5 173,-143.5 173,-124.5 315,-124.5 315,-143.5"/>
<text text-anchor="middle" x="244" y="-131.5" font-family="Helvetica,sans-Serif" font-size="10.00">ImDrawList::PushClipRect</text>
</a>
</g>
</g>
<!-- Node1&#45;&gt;Node26 -->
<g id="edge32" class="edge">
<title>Node1&#45;&gt;Node26</title>
<path fill="none" stroke="#63b8ff" d="M137.08,-122.4C145.49,-123.32 154.15,-124.27 162.73,-125.21"/>
<polygon fill="#63b8ff" stroke="#63b8ff" points="162.42,-128.7 172.75,-126.31 163.19,-121.74 162.42,-128.7"/>
</g>
<!-- Node3 -->
<g id="node3" class="node">
<title>Node3</title>
<g id="a_node3"><a xlink:href="structImDrawList.html#a2251eb264ed8b17a253c409787375053" target="_top" xlink:title=" ">
<polygon fill="white" stroke="#666666" points="501.5,-294.5 380.5,-294.5 380.5,-275.5 501.5,-275.5 501.5,-294.5"/>
<text text-anchor="middle" x="441" y="-282.5" font-family="Helvetica,sans-Serif" font-size="10.00">ImDrawList::PathRect</text>
</a>
</g>
</g>
<!-- Node2&#45;&gt;Node3 -->
<g id="edge2" class="edge">
<title>Node2&#45;&gt;Node3</title>
<path fill="none" stroke="#63b8ff" d="M295.22,-257.53C320.93,-262.41 352.44,-268.39 379.49,-273.52"/>
<polygon fill="#63b8ff" stroke="#63b8ff" points="379.14,-277.01 389.61,-275.44 380.44,-270.14 379.14,-277.01"/>
</g>
<!-- Node16 -->
<g id="node16" class="node">
<title>Node16</title>
<g id="a_node16"><a xlink:href="structImDrawList.html#a60bf9040ef3d09b39c4ba8f5a2a68ae9" target="_top" xlink:title=" ">
<polygon fill="white" stroke="#666666" points="506,-257.5 376,-257.5 376,-238.5 506,-238.5 506,-257.5"/>
<text text-anchor="middle" x="441" y="-245.5" font-family="Helvetica,sans-Serif" font-size="10.00">ImDrawList::PathStroke</text>
</a>
</g>
</g>
<!-- Node2&#45;&gt;Node16 -->
<g id="edge19" class="edge">
<title>Node2&#45;&gt;Node16</title>
<path fill="none" stroke="#63b8ff" d="M303.51,-248C322.99,-248 344.96,-248 365.48,-248"/>
<polygon fill="#63b8ff" stroke="#63b8ff" points="365.75,-251.5 375.75,-248 365.75,-244.5 365.75,-251.5"/>
</g>
<!-- Node4 -->
<g id="node4" class="node">
<title>Node4</title>
<g id="a_node4"><a xlink:href="imgui__draw_8cpp.html#abc26563004ba48126f2e8b70ea0067af" target="_top" xlink:title=" ">
<polygon fill="white" stroke="#666666" points="695,-294.5 584,-294.5 584,-275.5 695,-275.5 695,-294.5"/>
<text text-anchor="middle" x="639.5" y="-282.5" font-family="Helvetica,sans-Serif" font-size="10.00">FixRectCornerFlags</text>
</a>
</g>
</g>
<!-- Node3&#45;&gt;Node4 -->
<g id="edge3" class="edge">
<title>Node3&#45;&gt;Node4</title>
<path fill="none" stroke="#63b8ff" d="M501.76,-285C524.48,-285 550.46,-285 573.63,-285"/>
<polygon fill="#63b8ff" stroke="#63b8ff" points="573.71,-288.5 583.71,-285 573.71,-281.5 573.71,-288.5"/>
</g>
<!-- Node5 -->
<g id="node5" class="node">
<title>Node5</title>
<g id="a_node5"><a xlink:href="imgui__internal_8h.html#a7f9d7828066a9d61b5630adcdf4655d3" target="_top" xlink:title=" ">
<polygon fill="white" stroke="#666666" points="663,-218.5 616,-218.5 616,-199.5 663,-199.5 663,-218.5"/>
<text text-anchor="middle" x="639.5" y="-206.5" font-family="Helvetica,sans-Serif" font-size="10.00">ImMin</text>
</a>
</g>
</g>
<!-- Node3&#45;&gt;Node5 -->
<g id="edge4" class="edge">
<title>Node3&#45;&gt;Node5</title>
<path fill="none" stroke="#63b8ff" d="M501.51,-277.77C511.69,-275.2 521.9,-271.72 531,-267 550.54,-256.87 548.13,-244.32 567,-233 578.96,-225.82 593.35,-220.47 606.07,-216.65"/>
<polygon fill="#63b8ff" stroke="#63b8ff" points="607.15,-219.99 615.84,-213.92 605.27,-213.24 607.15,-219.99"/>
</g>
<!-- Node6 -->
<g id="node6" class="node">
<title>Node6</title>
<g id="a_node6"><a xlink:href="structImDrawList.html#a6d307c6de1a6522e76fa410e8fe96fcc" target="_top" xlink:title=" ">
<polygon fill="white" stroke="#666666" points="712,-331.5 567,-331.5 567,-312.5 712,-312.5 712,-331.5"/>
<text text-anchor="middle" x="639.5" y="-319.5" font-family="Helvetica,sans-Serif" font-size="10.00">ImDrawList::PathArcToFast</text>
</a>
</g>
</g>
<!-- Node3&#45;&gt;Node6 -->
<g id="edge5" class="edge">
<title>Node3&#45;&gt;Node6</title>
<path fill="none" stroke="#63b8ff" d="M492.6,-294.53C518.63,-299.43 550.55,-305.44 577.88,-310.59"/>
<polygon fill="#63b8ff" stroke="#63b8ff" points="577.25,-314.03 587.73,-312.44 578.55,-307.15 577.25,-314.03"/>
</g>
<!-- Node15 -->
<g id="node15" class="node">
<title>Node15</title>
<g id="a_node15"><a xlink:href="structImDrawList.html#a828d944325ed58d8b57abd3647bffaaf" target="_top" xlink:title=" ">
<polygon fill="white" stroke="#666666" points="894,-252.5 764,-252.5 764,-233.5 894,-233.5 894,-252.5"/>
<text text-anchor="middle" x="829" y="-240.5" font-family="Helvetica,sans-Serif" font-size="10.00">ImDrawList::PathLineTo</text>
</a>
</g>
</g>
<!-- Node3&#45;&gt;Node15 -->
<g id="edge17" class="edge">
<title>Node3&#45;&gt;Node15</title>
<path fill="none" stroke="#63b8ff" d="M501.69,-275.77C522.34,-272.74 545.66,-269.52 567,-267 629.81,-259.6 701.35,-253.16 753.63,-248.82"/>
<polygon fill="#63b8ff" stroke="#63b8ff" points="754.14,-252.29 763.82,-247.98 753.56,-245.31 754.14,-252.29"/>
</g>
<!-- Node7 -->
<g id="node7" class="node">
<title>Node7</title>
<g id="a_node7"><a xlink:href="structImDrawList.html#ac25f3a7693ed13ba2dac455675be8654" target="_top" xlink:title=" ">
<polygon fill="white" stroke="#666666" points="910,-331.5 748,-331.5 748,-312.5 910,-312.5 910,-331.5"/>
<text text-anchor="middle" x="829" y="-319.5" font-family="Helvetica,sans-Serif" font-size="10.00">ImDrawList::_PathArcToFastEx</text>
</a>
</g>
</g>
<!-- Node6&#45;&gt;Node7 -->
<g id="edge6" class="edge">
<title>Node6&#45;&gt;Node7</title>
<path fill="none" stroke="#63b8ff" d="M712.19,-322C720.58,-322 729.23,-322 737.84,-322"/>
<polygon fill="#63b8ff" stroke="#63b8ff" points="737.91,-325.5 747.91,-322 737.91,-318.5 737.91,-325.5"/>
</g>
<!-- Node11 -->
<g id="node11" class="node">
<title>Node11</title>
<g id="a_node11"><a xlink:href="structImVector.html#aab5df48e0711a48bd12f3206e08c4108" target="_top" xlink:title=" ">
<polygon fill="white" stroke="#666666" points="1082.5,-251.5 964.5,-251.5 964.5,-232.5 1082.5,-232.5 1082.5,-251.5"/>
<text text-anchor="middle" x="1023.5" y="-239.5" font-family="Helvetica,sans-Serif" font-size="10.00">ImVector::push_back</text>
</a>
</g>
</g>
<!-- Node6&#45;&gt;Node11 -->
<g id="edge16" class="edge">
<title>Node6&#45;&gt;Node11</title>
<path fill="none" stroke="#63b8ff" d="M686.2,-312.43C756.61,-297.68 891.4,-269.46 967.2,-253.58"/>
<polygon fill="#63b8ff" stroke="#63b8ff" points="967.98,-256.99 977.05,-251.52 966.54,-250.14 967.98,-256.99"/>
</g>
<!-- Node8 -->
<g id="node8" class="node">
<title>Node8</title>
<g id="a_node8"><a xlink:href="structImDrawList.html#a52afa32aaab6d581cda90dc5d8726ed6" target="_top" xlink:title=" ">
<polygon fill="white" stroke="#666666" points="1101,-337 946,-337 946,-307 1101,-307 1101,-337"/>
<text text-anchor="start" x="954" y="-325" font-family="Helvetica,sans-Serif" font-size="10.00">ImDrawList::_CalcCircleAuto</text>
<text text-anchor="middle" x="1023.5" y="-314" font-family="Helvetica,sans-Serif" font-size="10.00">SegmentCount</text>
</a>
</g>
</g>
<!-- Node7&#45;&gt;Node8 -->
<g id="edge7" class="edge">
<title>Node7&#45;&gt;Node8</title>
<path fill="none" stroke="#63b8ff" d="M910.24,-322C918.6,-322 927.13,-322 935.56,-322"/>
<polygon fill="#63b8ff" stroke="#63b8ff" points="935.78,-325.5 945.78,-322 935.78,-318.5 935.78,-325.5"/>
</g>
<!-- Node9 -->
<g id="node9" class="node">
<title>Node9</title>
<g id="a_node9"><a xlink:href="imgui__internal_8h.html#aab329ad3ecb3ffc0bf9183d9edb144bb" target="_top" xlink:title=" ">
<polygon fill="white" stroke="#666666" points="1047,-288.5 1000,-288.5 1000,-269.5 1047,-269.5 1047,-288.5"/>
<text text-anchor="middle" x="1023.5" y="-276.5" font-family="Helvetica,sans-Serif" font-size="10.00">ImAbs</text>
</a>
</g>
</g>
<!-- Node7&#45;&gt;Node9 -->
<g id="edge8" class="edge">
<title>Node7&#45;&gt;Node9</title>
<path fill="none" stroke="#63b8ff" d="M872.72,-312.46C908.2,-304.53 957.92,-293.43 990.16,-286.22"/>
<polygon fill="#63b8ff" stroke="#63b8ff" points="990.98,-289.63 999.98,-284.03 989.46,-282.79 990.98,-289.63"/>
</g>
<!-- Node10 -->
<g id="node10" class="node">
<title>Node10</title>
<g id="a_node10"><a xlink:href="imgui__internal_8h.html#a6e61ede308bfd68c7434e17905a29fc8" target="_top" xlink:title=" ">
<polygon fill="white" stroke="#666666" points="1054,-411.5 993,-411.5 993,-392.5 1054,-392.5 1054,-411.5"/>
<text text-anchor="middle" x="1023.5" y="-399.5" font-family="Helvetica,sans-Serif" font-size="10.00">ImClamp</text>
</a>
</g>
</g>
<!-- Node7&#45;&gt;Node10 -->
<g id="edge9" class="edge">
<title>Node7&#45;&gt;Node10</title>
<path fill="none" stroke="#63b8ff" d="M844.79,-331.53C866.28,-345 907.76,-369.56 946,-384 957.77,-388.44 970.98,-392.02 983.07,-394.78"/>
<polygon fill="#63b8ff" stroke="#63b8ff" points="982.39,-398.21 992.91,-396.9 983.87,-391.37 982.39,-398.21"/>
</g>
<!-- Node7&#45;&gt;Node11 -->
<g id="edge10" class="edge">
<title>Node7&#45;&gt;Node11</title>
<path fill="none" stroke="#63b8ff" d="M873.98,-312.4C886.17,-308.65 899.04,-303.63 910,-297 929.36,-285.29 926.3,-272.13 946,-261 949.99,-258.74 954.26,-256.75 958.64,-254.99"/>
<polygon fill="#63b8ff" stroke="#63b8ff" points="960.16,-258.17 968.4,-251.51 957.81,-251.57 960.16,-258.17"/>
</g>
<!-- Node14 -->
<g id="node14" class="node">
<title>Node14</title>
<g id="a_node14"><a xlink:href="structImVector.html#ac371dd62e56ae486b1a5038cf07eee56" target="_top" xlink:title=" ">
<polygon fill="white" stroke="#666666" points="1071,-374.5 976,-374.5 976,-355.5 1071,-355.5 1071,-374.5"/>
<text text-anchor="middle" x="1023.5" y="-362.5" font-family="Helvetica,sans-Serif" font-size="10.00">ImVector::resize</text>
</a>
</g>
</g>
<!-- Node7&#45;&gt;Node14 -->
<g id="edge13" class="edge">
<title>Node7&#45;&gt;Node14</title>
<path fill="none" stroke="#63b8ff" d="M872.72,-331.54C901.38,-337.95 939.33,-346.42 969.85,-353.24"/>
<polygon fill="#63b8ff" stroke="#63b8ff" points="969.37,-356.72 979.9,-355.48 970.9,-349.89 969.37,-356.72"/>
</g>
<!-- Node12 -->
<g id="node12" class="node">
<title>Node12</title>
<g id="a_node12"><a xlink:href="structImVector.html#a3a097635d464b1b70dc7d59996a88b28" target="_top" xlink:title=" ">
<polygon fill="white" stroke="#666666" points="1279,-294.5 1137,-294.5 1137,-275.5 1279,-275.5 1279,-294.5"/>
<text text-anchor="middle" x="1208" y="-282.5" font-family="Helvetica,sans-Serif" font-size="10.00">ImVector::_grow_capacity</text>
</a>
</g>
</g>
<!-- Node11&#45;&gt;Node12 -->
<g id="edge11" class="edge">
<title>Node11&#45;&gt;Node12</title>
<path fill="none" stroke="#63b8ff" d="M1065,-251.54C1092.06,-257.92 1127.84,-266.35 1156.71,-273.15"/>
<polygon fill="#63b8ff" stroke="#63b8ff" points="1156.07,-276.6 1166.61,-275.48 1157.68,-269.78 1156.07,-276.6"/>
</g>
<!-- Node13 -->
<g id="node13" class="node">
<title>Node13</title>
<g id="a_node13"><a xlink:href="structImVector.html#a0f14f5736c3372157856eebb67123b75" target="_top" xlink:title=" ">
<polygon fill="white" stroke="#666666" points="1259.5,-352.5 1156.5,-352.5 1156.5,-333.5 1259.5,-333.5 1259.5,-352.5"/>
<text text-anchor="middle" x="1208" y="-340.5" font-family="Helvetica,sans-Serif" font-size="10.00">ImVector::reserve</text>
</a>
</g>
</g>
<!-- Node11&#45;&gt;Node13 -->
<g id="edge12" class="edge">
<title>Node11&#45;&gt;Node13</title>
<path fill="none" stroke="#63b8ff" d="M1080.52,-251.5C1087.71,-253.97 1094.73,-257.08 1101,-261 1122.14,-274.21 1117.79,-288.11 1137,-304 1148.7,-313.68 1163.16,-322.2 1175.88,-328.78"/>
<polygon fill="#63b8ff" stroke="#63b8ff" points="1174.69,-332.1 1185.21,-333.43 1177.82,-325.83 1174.69,-332.1"/>
</g>
<!-- Node14&#45;&gt;Node12 -->
<g id="edge14" class="edge">
<title>Node14&#45;&gt;Node12</title>
<path fill="none" stroke="#63b8ff" d="M1071.29,-355.62C1081.27,-353.01 1091.62,-349.81 1101,-346 1118.16,-339.03 1120.96,-334.26 1137,-325 1151.53,-316.61 1167.81,-307.3 1181.01,-299.78"/>
<polygon fill="#63b8ff" stroke="#63b8ff" points="1183.04,-302.65 1190,-294.66 1179.58,-296.56 1183.04,-302.65"/>
</g>
<!-- Node14&#45;&gt;Node13 -->
<g id="edge15" class="edge">
<title>Node14&#45;&gt;Node13</title>
<path fill="none" stroke="#63b8ff" d="M1071.02,-359.39C1093.95,-356.63 1121.88,-353.26 1146.45,-350.3"/>
<polygon fill="#63b8ff" stroke="#63b8ff" points="1146.88,-353.77 1156.39,-349.1 1146.04,-346.82 1146.88,-353.77"/>
</g>
<!-- Node15&#45;&gt;Node11 -->
<g id="edge18" class="edge">
<title>Node15&#45;&gt;Node11</title>
<path fill="none" stroke="#63b8ff" d="M894.1,-242.67C913.38,-242.57 934.6,-242.46 954.15,-242.36"/>
<polygon fill="#63b8ff" stroke="#63b8ff" points="954.21,-245.85 964.19,-242.3 954.18,-238.85 954.21,-245.85"/>
</g>
<!-- Node17&#45;&gt;Node5 -->
<g id="edge22" class="edge">
<title>Node17&#45;&gt;Node5</title>
<path fill="none" stroke="#63b8ff" d="M291.53,-181.53C309.97,-185 331.42,-188.64 351,-191 442.74,-202.06 551.82,-206.53 605.42,-208.16"/>
<polygon fill="#63b8ff" stroke="#63b8ff" points="605.59,-211.67 615.68,-208.46 605.79,-204.67 605.59,-211.67"/>
</g>
<!-- Node18 -->
<g id="node18" class="node">
<title>Node18</title>
<g id="a_node18"><a xlink:href="imgui__internal_8h.html#a7667efd95147d0422f140917c71a9226" target="_top" xlink:title=" ">
<polygon fill="white" stroke="#666666" points="466,-181.5 416,-181.5 416,-162.5 466,-162.5 466,-181.5"/>
<text text-anchor="middle" x="441" y="-169.5" font-family="Helvetica,sans-Serif" font-size="10.00">ImMax</text>
</a>
</g>
</g>
<!-- Node17&#45;&gt;Node18 -->
<g id="edge21" class="edge">
<title>Node17&#45;&gt;Node18</title>
<path fill="none" stroke="#63b8ff" d="M293.2,-172C328.01,-172 374.19,-172 405.39,-172"/>
<polygon fill="#63b8ff" stroke="#63b8ff" points="405.75,-175.5 415.75,-172 405.75,-168.5 405.75,-175.5"/>
</g>
<!-- Node21 -->
<g id="node21" class="node">
<title>Node21</title>
<g id="a_node21"><a xlink:href="namespaceImGui.html#abe2691de0b1a71c774ab24cc91564a94" target="_top" xlink:title=" ">
<polygon fill="white" stroke="#666666" points="514,-30 368,-30 368,0 514,0 514,-30"/>
<text text-anchor="start" x="376" y="-18" font-family="Helvetica,sans-Serif" font-size="10.00">ImGui::ColorConvertFloat4</text>
<text text-anchor="middle" x="441" y="-7" font-family="Helvetica,sans-Serif" font-size="10.00">ToU32</text>
</a>
</g>
</g>
<!-- Node20&#45;&gt;Node21 -->
<g id="edge25" class="edge">
<title>Node20&#45;&gt;Node21</title>
<path fill="none" stroke="#63b8ff" d="M301.14,-17.85C318.78,-17.49 338.65,-17.08 357.71,-16.69"/>
<polygon fill="#63b8ff" stroke="#63b8ff" points="357.97,-20.18 367.9,-16.48 357.83,-13.18 357.97,-20.18"/>
</g>
<!-- Node23 -->
<g id="node23" class="node">
<title>Node23</title>
<g id="a_node23"><a xlink:href="structImDrawList.html#a8e51ddbe1f9732bc271ce807bec23f54" target="_top" xlink:title=" ">
<polygon fill="white" stroke="#666666" points="531,-105.5 351,-105.5 351,-86.5 531,-86.5 531,-105.5"/>
<text text-anchor="middle" x="441" y="-93.5" font-family="Helvetica,sans-Serif" font-size="10.00">ImDrawList::_OnChangedClipRect</text>
</a>
</g>
</g>
<!-- Node22&#45;&gt;Node23 -->
<g id="edge27" class="edge">
<title>Node22&#45;&gt;Node23</title>
<path fill="none" stroke="#63b8ff" d="M312.65,-96C321.7,-96 331.13,-96 340.58,-96"/>
<polygon fill="#63b8ff" stroke="#63b8ff" points="340.83,-99.5 350.83,-96 340.83,-92.5 340.83,-99.5"/>
</g>
<!-- Node25 -->
<g id="node25" class="node">
<title>Node25</title>
<g id="a_node25"><a xlink:href="structImVector.html#a3db7ce62d3c429effdb893fbf7148c1c" target="_top" xlink:title=" ">
<polygon fill="white" stroke="#666666" points="696,-67.5 583,-67.5 583,-48.5 696,-48.5 696,-67.5"/>
<text text-anchor="middle" x="639.5" y="-55.5" font-family="Helvetica,sans-Serif" font-size="10.00">ImVector::pop_back</text>
</a>
</g>
</g>
<!-- Node22&#45;&gt;Node25 -->
<g id="edge31" class="edge">
<title>Node22&#45;&gt;Node25</title>
<path fill="none" stroke="#63b8ff" d="M295,-86.47C312.64,-83.38 332.65,-80.19 351,-78 426.81,-68.95 514.39,-63.58 572.77,-60.72"/>
<polygon fill="#63b8ff" stroke="#63b8ff" points="573.14,-64.21 582.96,-60.24 572.81,-57.22 573.14,-64.21"/>
</g>
<!-- Node24 -->
<g id="node24" class="node">
<title>Node24</title>
<g id="a_node24"><a xlink:href="structImDrawList.html#a846714bb0321c6f1f908767abc8559e6" target="_top" xlink:title=" ">
<polygon fill="white" stroke="#666666" points="901.5,-105.5 756.5,-105.5 756.5,-86.5 901.5,-86.5 901.5,-105.5"/>
<text text-anchor="middle" x="829" y="-93.5" font-family="Helvetica,sans-Serif" font-size="10.00">ImDrawList::AddDrawCmd</text>
</a>
</g>
</g>
<!-- Node23&#45;&gt;Node24 -->
<g id="edge28" class="edge">
<title>Node23&#45;&gt;Node24</title>
<path fill="none" stroke="#63b8ff" d="M531.04,-96C595.89,-96 683.07,-96 746.18,-96"/>
<polygon fill="#63b8ff" stroke="#63b8ff" points="746.49,-99.5 756.49,-96 746.49,-92.5 746.49,-99.5"/>
</g>
<!-- Node23&#45;&gt;Node25 -->
<g id="edge30" class="edge">
<title>Node23&#45;&gt;Node25</title>
<path fill="none" stroke="#63b8ff" d="M491.33,-86.46C517.96,-81.31 551.03,-74.92 579.07,-69.49"/>
<polygon fill="#63b8ff" stroke="#63b8ff" points="579.99,-72.88 589.15,-67.54 578.67,-66.01 579.99,-72.88"/>
</g>
<!-- Node24&#45;&gt;Node11 -->
<g id="edge29" class="edge">
<title>Node24&#45;&gt;Node11</title>
<path fill="none" stroke="#63b8ff" d="M877.08,-105.58C888.37,-109.09 900.04,-113.77 910,-120 954.36,-147.73 992.4,-197.51 1010.76,-224.1"/>
<polygon fill="#63b8ff" stroke="#63b8ff" points="1007.91,-226.14 1016.41,-232.46 1013.71,-222.22 1007.91,-226.14"/>
</g>
<!-- Node26&#45;&gt;Node11 -->
<g id="edge35" class="edge">
<title>Node26&#45;&gt;Node11</title>
<path fill="none" stroke="#63b8ff" d="M315.14,-136.8C373.16,-139.62 457.65,-144.9 531,-154 691.08,-173.87 878.12,-211.35 968.36,-230.34"/>
<polygon fill="#63b8ff" stroke="#63b8ff" points="967.84,-233.81 978.35,-232.45 969.29,-226.96 967.84,-233.81"/>
</g>
<!-- Node26&#45;&gt;Node18 -->
<g id="edge34" class="edge">
<title>Node26&#45;&gt;Node18</title>
<path fill="none" stroke="#63b8ff" d="M293.96,-143.54C328.92,-150.35 375.08,-159.35 406.06,-165.39"/>
<polygon fill="#63b8ff" stroke="#63b8ff" points="405.46,-168.84 415.95,-167.31 406.8,-161.96 405.46,-168.84"/>
</g>
<!-- Node26&#45;&gt;Node23 -->
<g id="edge33" class="edge">
<title>Node26&#45;&gt;Node23</title>
<path fill="none" stroke="#63b8ff" d="M293.96,-124.46C320.38,-119.31 353.19,-112.92 381.02,-107.49"/>
<polygon fill="#63b8ff" stroke="#63b8ff" points="381.88,-110.89 391.02,-105.54 380.54,-104.02 381.88,-110.89"/>
</g>
</g>
</svg>
