<?xml version="1.0" encoding="UTF-8" standalone="no"?>
<!DOCTYPE svg PUBLIC "-//W3C//DTD SVG 1.1//EN"
 "http://www.w3.org/Graphics/SVG/1.1/DTD/svg11.dtd">
<!-- Generated by graphviz version 2.43.0 (0)
 -->
<!-- Title: IMGUIZMO_NAMESPACE::DrawRotationGizmo Pages: 1 -->
<svg width="1278pt" height="1107pt"
 viewBox="0.00 0.00 1278.00 1107.29" xmlns="http://www.w3.org/2000/svg" xmlns:xlink="http://www.w3.org/1999/xlink">
<g id="graph0" class="graph" transform="scale(1 1) rotate(0) translate(4 1103.29)">
<title>IMGUIZMO_NAMESPACE::DrawRotationGizmo</title>
<!-- Node1 -->
<g id="node1" class="node">
<title>Node1</title>
<g id="a_node1"><a xlink:title=" ">
<polygon fill="#999999" stroke="#666666" points="135,-440 0,-440 0,-410 135,-410 135,-440"/>
<text text-anchor="start" x="8" y="-428" font-family="Helvetica,sans-Serif" font-size="10.00">IMGUIZMO_NAMESPACE</text>
<text text-anchor="middle" x="67.5" y="-417" font-family="Helvetica,sans-Serif" font-size="10.00">::DrawRotationGizmo</text>
</a>
</g>
</g>
<!-- Node1&#45;&gt;Node1 -->
<g id="edge40" class="edge">
<title>Node1&#45;&gt;Node1</title>
<path fill="none" stroke="#63b8ff" d="M35.86,-440.28C28.83,-449.41 39.38,-458 67.5,-458 84.2,-458 94.7,-454.97 99.01,-450.6"/>
<polygon fill="#63b8ff" stroke="#63b8ff" points="102.51,-450.32 99.14,-440.28 95.51,-450.23 102.51,-450.32"/>
</g>
<!-- Node2 -->
<g id="node2" class="node">
<title>Node2</title>
<g id="a_node2"><a xlink:href="structImDrawList.html#a9b73eea0ebf7a9f02bc8a104deb7de9d" target="_top" xlink:title=" ">
<polygon fill="white" stroke="#666666" points="499,-942.5 374,-942.5 374,-923.5 499,-923.5 499,-942.5"/>
<text text-anchor="middle" x="436.5" y="-930.5" font-family="Helvetica,sans-Serif" font-size="10.00">ImDrawList::AddCircle</text>
</a>
</g>
</g>
<!-- Node1&#45;&gt;Node2 -->
<g id="edge1" class="edge">
<title>Node1&#45;&gt;Node2</title>
<path fill="none" stroke="#63b8ff" d="M69.28,-440.04C72.66,-491.25 89.76,-661.52 171,-768 231.36,-847.12 341.45,-897.7 398.71,-919.93"/>
<polygon fill="#63b8ff" stroke="#63b8ff" points="397.5,-923.21 408.09,-923.5 399.99,-916.67 397.5,-923.21"/>
</g>
<!-- Node16 -->
<g id="node16" class="node">
<title>Node16</title>
<g id="a_node16"><a xlink:href="structImDrawList.html#ad2accc0a74845b08bd0e6fae6183d6d0" target="_top" xlink:title=" ">
<polygon fill="white" stroke="#666666" points="326,-721 171,-721 171,-691 326,-691 326,-721"/>
<text text-anchor="start" x="179" y="-709" font-family="Helvetica,sans-Serif" font-size="10.00">ImDrawList::AddConvexPoly</text>
<text text-anchor="middle" x="248.5" y="-698" font-family="Helvetica,sans-Serif" font-size="10.00">Filled</text>
</a>
</g>
</g>
<!-- Node1&#45;&gt;Node16 -->
<g id="edge25" class="edge">
<title>Node1&#45;&gt;Node16</title>
<path fill="none" stroke="#63b8ff" d="M70.07,-440.27C75.44,-484.41 97.03,-613.41 171,-682 172.15,-683.06 173.34,-684.08 174.58,-685.05"/>
<polygon fill="#63b8ff" stroke="#63b8ff" points="172.99,-688.2 183.25,-690.84 176.88,-682.38 172.99,-688.2"/>
</g>
<!-- Node21 -->
<g id="node21" class="node">
<title>Node21</title>
<g id="a_node21"><a xlink:href="structImDrawList.html#abc568847b1113e624456436bfab1b307" target="_top" xlink:title=" ">
<polygon fill="white" stroke="#666666" points="316.5,-758.5 180.5,-758.5 180.5,-739.5 316.5,-739.5 316.5,-758.5"/>
<text text-anchor="middle" x="248.5" y="-746.5" font-family="Helvetica,sans-Serif" font-size="10.00">ImDrawList::AddPolyline</text>
</a>
</g>
</g>
<!-- Node1&#45;&gt;Node21 -->
<g id="edge32" class="edge">
<title>Node1&#45;&gt;Node21</title>
<path fill="none" stroke="#63b8ff" d="M68.76,-440.04C70.48,-489.53 82.92,-648.76 171,-730 172.68,-731.55 174.46,-732.97 176.32,-734.28"/>
<polygon fill="#63b8ff" stroke="#63b8ff" points="174.59,-737.32 184.99,-739.36 178.12,-731.28 174.59,-737.32"/>
</g>
<!-- Node22 -->
<g id="node22" class="node">
<title>Node22</title>
<g id="a_node22"><a xlink:href="structImDrawList.html#ac5221bd86b3429f6d5b6e6ffe454942d" target="_top" xlink:title=" ">
<polygon fill="white" stroke="#666666" points="307,-606.5 190,-606.5 190,-587.5 307,-587.5 307,-606.5"/>
<text text-anchor="middle" x="248.5" y="-594.5" font-family="Helvetica,sans-Serif" font-size="10.00">ImDrawList::AddText</text>
</a>
</g>
</g>
<!-- Node1&#45;&gt;Node22 -->
<g id="edge36" class="edge">
<title>Node1&#45;&gt;Node22</title>
<path fill="none" stroke="#63b8ff" d="M74.3,-440.34C86.87,-471.44 119.71,-542 171,-578 174.03,-580.13 177.28,-582.02 180.67,-583.7"/>
<polygon fill="#63b8ff" stroke="#63b8ff" points="179.32,-586.93 189.89,-587.68 182.09,-580.5 179.32,-586.93"/>
</g>
<!-- Node23 -->
<g id="node23" class="node">
<title>Node23</title>
<g id="a_node23"><a xlink:href="namespaceIMGUIZMO__NAMESPACE.html#a1d548687810e9bb93dafcf38995b19b5" target="_top" xlink:title=" ">
<polygon fill="white" stroke="#666666" points="316,-551 181,-551 181,-521 316,-521 316,-551"/>
<text text-anchor="start" x="189" y="-539" font-family="Helvetica,sans-Serif" font-size="10.00">IMGUIZMO_NAMESPACE</text>
<text text-anchor="middle" x="248.5" y="-528" font-family="Helvetica,sans-Serif" font-size="10.00">::ComputeColors</text>
</a>
</g>
</g>
<!-- Node1&#45;&gt;Node23 -->
<g id="edge38" class="edge">
<title>Node1&#45;&gt;Node23</title>
<path fill="none" stroke="#63b8ff" d="M82.37,-440.02C100.86,-459.25 135.43,-492.39 171,-512 174.24,-513.79 177.63,-515.46 181.1,-517.02"/>
<polygon fill="#63b8ff" stroke="#63b8ff" points="179.88,-520.3 190.45,-520.92 182.57,-513.84 179.88,-520.3"/>
</g>
<!-- Node24 -->
<g id="node24" class="node">
<title>Node24</title>
<g id="a_node24"><a xlink:href="structIMGUIZMO__NAMESPACE_1_1Context.html#a8591d37169b211009ed2bccc5abae69f" target="_top" xlink:title=" ">
<polygon fill="white" stroke="#666666" points="316,-673 181,-673 181,-643 316,-643 316,-673"/>
<text text-anchor="start" x="189" y="-661" font-family="Helvetica,sans-Serif" font-size="10.00">IMGUIZMO_NAMESPACE</text>
<text text-anchor="middle" x="248.5" y="-650" font-family="Helvetica,sans-Serif" font-size="10.00">::Context::GetCurrentID</text>
</a>
</g>
</g>
<!-- Node1&#45;&gt;Node24 -->
<g id="edge41" class="edge">
<title>Node1&#45;&gt;Node24</title>
<path fill="none" stroke="#63b8ff" d="M71.6,-440.15C80.23,-478.48 108.14,-580.03 171,-634 172.5,-635.29 174.08,-636.51 175.71,-637.67"/>
<polygon fill="#63b8ff" stroke="#63b8ff" points="173.93,-640.69 184.29,-642.92 177.59,-634.72 173.93,-640.69"/>
</g>
<!-- Node27 -->
<g id="node27" class="node">
<title>Node27</title>
<g id="a_node27"><a xlink:href="imgui_8cpp.html#a75ccaf7d676b1f567ba888ae42ac3809" target="_top" xlink:title=" ">
<polygon fill="white" stroke="#666666" points="294.5,-502.5 202.5,-502.5 202.5,-483.5 294.5,-483.5 294.5,-502.5"/>
<text text-anchor="middle" x="248.5" y="-490.5" font-family="Helvetica,sans-Serif" font-size="10.00">ImFormatString</text>
</a>
</g>
</g>
<!-- Node1&#45;&gt;Node27 -->
<g id="edge45" class="edge">
<title>Node1&#45;&gt;Node27</title>
<path fill="none" stroke="#63b8ff" d="M95.19,-440.07C115.47,-451 144.33,-465.49 171,-475 177.8,-477.43 185.06,-479.62 192.3,-481.57"/>
<polygon fill="#63b8ff" stroke="#63b8ff" points="191.56,-484.99 202.11,-484.08 193.29,-478.21 191.56,-484.99"/>
</g>
<!-- Node28 -->
<g id="node28" class="node">
<title>Node28</title>
<g id="a_node28"><a xlink:href="imgui__internal_8h.html#a2fa5cb39358b9b4b5fbe3750e648e19e" target="_top" xlink:title=" ">
<polygon fill="white" stroke="#666666" points="287.5,-465.5 209.5,-465.5 209.5,-446.5 287.5,-446.5 287.5,-465.5"/>
<text text-anchor="middle" x="248.5" y="-453.5" font-family="Helvetica,sans-Serif" font-size="10.00">ImLengthSqr</text>
</a>
</g>
</g>
<!-- Node1&#45;&gt;Node28 -->
<g id="edge46" class="edge">
<title>Node1&#45;&gt;Node28</title>
<path fill="none" stroke="#63b8ff" d="M135.15,-436.54C156.48,-440.24 179.67,-444.25 199.41,-447.67"/>
<polygon fill="#63b8ff" stroke="#63b8ff" points="198.94,-451.14 209.39,-449.4 200.13,-444.24 198.94,-451.14"/>
</g>
<!-- Node29 -->
<g id="node29" class="node">
<title>Node29</title>
<g id="a_node29"><a xlink:href="namespaceIMGUIZMO__NAMESPACE.html#a0e246612ef192a30c592842f0767dfe4" target="_top" xlink:title=" ">
<polygon fill="white" stroke="#666666" points="316,-410 181,-410 181,-380 316,-380 316,-410"/>
<text text-anchor="start" x="189" y="-398" font-family="Helvetica,sans-Serif" font-size="10.00">IMGUIZMO_NAMESPACE</text>
<text text-anchor="middle" x="248.5" y="-387" font-family="Helvetica,sans-Serif" font-size="10.00">::Intersects</text>
</a>
</g>
</g>
<!-- Node1&#45;&gt;Node29 -->
<g id="edge47" class="edge">
<title>Node1&#45;&gt;Node29</title>
<path fill="none" stroke="#63b8ff" d="M135.15,-413.83C146.8,-411.88 159,-409.83 170.89,-407.84"/>
<polygon fill="#63b8ff" stroke="#63b8ff" points="171.51,-411.29 180.79,-406.18 170.35,-404.38 171.51,-411.29"/>
</g>
<!-- Node30 -->
<g id="node30" class="node">
<title>Node30</title>
<g id="a_node30"><a xlink:href="structIMGUIZMO__NAMESPACE_1_1matrix__t.html#a56153c34b2b81d85c45009fcbb3d5edf" target="_top" xlink:title=" ">
<polygon fill="white" stroke="#666666" points="316,-362 181,-362 181,-332 316,-332 316,-362"/>
<text text-anchor="start" x="189" y="-350" font-family="Helvetica,sans-Serif" font-size="10.00">IMGUIZMO_NAMESPACE</text>
<text text-anchor="middle" x="248.5" y="-339" font-family="Helvetica,sans-Serif" font-size="10.00">::matrix_t::Inverse</text>
</a>
</g>
</g>
<!-- Node1&#45;&gt;Node30 -->
<g id="edge49" class="edge">
<title>Node1&#45;&gt;Node30</title>
<path fill="none" stroke="#63b8ff" d="M93.99,-409.91C114.36,-398.26 143.89,-382.29 171,-371 175.7,-369.04 180.62,-367.16 185.59,-365.36"/>
<polygon fill="#63b8ff" stroke="#63b8ff" points="186.9,-368.61 195.2,-362.02 184.6,-362 186.9,-368.61"/>
</g>
<!-- Node32 -->
<g id="node32" class="node">
<title>Node32</title>
<g id="a_node32"><a xlink:href="namespaceIMGUIZMO__NAMESPACE.html#a4e1c9dc0594ebc034b106710a84aa25b" target="_top" xlink:title=" ">
<polygon fill="white" stroke="#666666" points="316,-296 181,-296 181,-266 316,-266 316,-296"/>
<text text-anchor="start" x="189" y="-284" font-family="Helvetica,sans-Serif" font-size="10.00">IMGUIZMO_NAMESPACE</text>
<text text-anchor="middle" x="248.5" y="-273" font-family="Helvetica,sans-Serif" font-size="10.00">::IsRotateType</text>
</a>
</g>
</g>
<!-- Node1&#45;&gt;Node32 -->
<g id="edge51" class="edge">
<title>Node1&#45;&gt;Node32</title>
<path fill="none" stroke="#63b8ff" d="M81.28,-409.82C99.64,-388.63 135.22,-349.78 171,-323 181.92,-314.82 194.63,-307.2 206.51,-300.76"/>
<polygon fill="#63b8ff" stroke="#63b8ff" points="208.18,-303.83 215.39,-296.07 204.91,-297.64 208.18,-303.83"/>
</g>
<!-- Node33 -->
<g id="node33" class="node">
<title>Node33</title>
<g id="a_node33"><a xlink:href="namespaceIMGUIZMO__NAMESPACE.html#a76324649a802fbc72ff34c3256822518" target="_top" xlink:title=" ">
<polygon fill="white" stroke="#666666" points="504,-247 369,-247 369,-217 504,-217 504,-247"/>
<text text-anchor="start" x="377" y="-235" font-family="Helvetica,sans-Serif" font-size="10.00">IMGUIZMO_NAMESPACE</text>
<text text-anchor="middle" x="436.5" y="-224" font-family="Helvetica,sans-Serif" font-size="10.00">::makeVect</text>
</a>
</g>
</g>
<!-- Node1&#45;&gt;Node33 -->
<g id="edge53" class="edge">
<title>Node1&#45;&gt;Node33</title>
<path fill="none" stroke="#63b8ff" d="M72.67,-409.85C82.94,-375.8 112.91,-293.31 171,-257 226.79,-222.13 302.51,-218.36 358.64,-221.85"/>
<polygon fill="#63b8ff" stroke="#63b8ff" points="358.66,-225.36 368.88,-222.58 359.16,-218.38 358.66,-225.36"/>
</g>
<!-- Node34 -->
<g id="node34" class="node">
<title>Node34</title>
<g id="a_node34"><a xlink:href="namespaceIMGUIZMO__NAMESPACE.html#a9d9d75f9cfb5de40c04c3d28ee040022" target="_top" xlink:title=" ">
<polygon fill="white" stroke="#666666" points="316,-126 181,-126 181,-96 316,-96 316,-126"/>
<text text-anchor="start" x="189" y="-114" font-family="Helvetica,sans-Serif" font-size="10.00">IMGUIZMO_NAMESPACE</text>
<text text-anchor="middle" x="248.5" y="-103" font-family="Helvetica,sans-Serif" font-size="10.00">::Normalized</text>
</a>
</g>
</g>
<!-- Node1&#45;&gt;Node34 -->
<g id="edge55" class="edge">
<title>Node1&#45;&gt;Node34</title>
<path fill="none" stroke="#63b8ff" d="M70.47,-409.88C76.95,-365.43 101.39,-233.24 171,-153 178.68,-144.15 188.7,-136.81 198.95,-130.88"/>
<polygon fill="#63b8ff" stroke="#63b8ff" points="200.81,-133.85 207.96,-126.03 197.5,-127.69 200.81,-133.85"/>
</g>
<!-- Node37 -->
<g id="node37" class="node">
<title>Node37</title>
<g id="a_node37"><a xlink:href="structIMGUIZMO__NAMESPACE_1_1matrix__t.html#a30fd11a39eb33398cc5b33ef86892e84" target="_top" xlink:title=" ">
<polygon fill="white" stroke="#666666" points="316,-78 181,-78 181,-48 316,-48 316,-78"/>
<text text-anchor="start" x="189" y="-66" font-family="Helvetica,sans-Serif" font-size="10.00">IMGUIZMO_NAMESPACE</text>
<text text-anchor="middle" x="248.5" y="-55" font-family="Helvetica,sans-Serif" font-size="10.00">::matrix_t::RotationAxis</text>
</a>
</g>
</g>
<!-- Node1&#45;&gt;Node37 -->
<g id="edge59" class="edge">
<title>Node1&#45;&gt;Node37</title>
<path fill="none" stroke="#63b8ff" d="M68.4,-409.72C68.9,-357.03 77.79,-181.1 171,-87 172.07,-85.92 173.19,-84.89 174.35,-83.9"/>
<polygon fill="#63b8ff" stroke="#63b8ff" points="176.46,-86.7 182.56,-78.04 172.39,-81 176.46,-86.7"/>
</g>
<!-- Node40 -->
<g id="node40" class="node">
<title>Node40</title>
<g id="a_node40"><a xlink:href="structIMGUIZMO__NAMESPACE_1_1vec__t.html#a1a9bd14cdd0a36f19a2cdc012a4372c8" target="_top" xlink:title=" ">
<polygon fill="white" stroke="#666666" points="316,-30 181,-30 181,0 316,0 316,-30"/>
<text text-anchor="start" x="189" y="-18" font-family="Helvetica,sans-Serif" font-size="10.00">IMGUIZMO_NAMESPACE</text>
<text text-anchor="middle" x="248.5" y="-7" font-family="Helvetica,sans-Serif" font-size="10.00">::vec_t::TransformVector</text>
</a>
</g>
</g>
<!-- Node1&#45;&gt;Node40 -->
<g id="edge62" class="edge">
<title>Node1&#45;&gt;Node40</title>
<path fill="none" stroke="#63b8ff" d="M70.57,-409.76C79.62,-345.18 117.68,-94.74 171,-39 171.92,-38.04 172.88,-37.11 173.87,-36.23"/>
<polygon fill="#63b8ff" stroke="#63b8ff" points="176.14,-38.9 182.07,-30.13 171.96,-33.29 176.14,-38.9"/>
</g>
<!-- Node41 -->
<g id="node41" class="node">
<title>Node41</title>
<g id="a_node41"><a xlink:href="namespaceIMGUIZMO__NAMESPACE.html#a9da1a3b77a0d6c9def26bb7fcd98214b" target="_top" xlink:title=" ">
<polygon fill="white" stroke="#666666" points="316,-192 181,-192 181,-162 316,-162 316,-192"/>
<text text-anchor="start" x="189" y="-180" font-family="Helvetica,sans-Serif" font-size="10.00">IMGUIZMO_NAMESPACE</text>
<text text-anchor="middle" x="248.5" y="-169" font-family="Helvetica,sans-Serif" font-size="10.00">::worldToPos</text>
</a>
</g>
</g>
<!-- Node1&#45;&gt;Node41 -->
<g id="edge63" class="edge">
<title>Node1&#45;&gt;Node41</title>
<path fill="none" stroke="#63b8ff" d="M73.01,-409.97C84.37,-374.12 117.18,-282.27 171,-224 180.79,-213.4 193.49,-204.33 205.73,-197.06"/>
<polygon fill="#63b8ff" stroke="#63b8ff" points="207.53,-200.06 214.51,-192.08 204.09,-193.97 207.53,-200.06"/>
</g>
<!-- Node3 -->
<g id="node3" class="node">
<title>Node3</title>
<g id="a_node3"><a xlink:href="structImDrawList.html#ac25f3a7693ed13ba2dac455675be8654" target="_top" xlink:title=" ">
<polygon fill="white" stroke="#666666" points="901,-1017.5 739,-1017.5 739,-998.5 901,-998.5 901,-1017.5"/>
<text text-anchor="middle" x="820" y="-1005.5" font-family="Helvetica,sans-Serif" font-size="10.00">ImDrawList::_PathArcToFastEx</text>
</a>
</g>
</g>
<!-- Node2&#45;&gt;Node3 -->
<g id="edge2" class="edge">
<title>Node2&#45;&gt;Node3</title>
<path fill="none" stroke="#63b8ff" d="M486.2,-942.57C556.23,-956.34 685.18,-981.69 760.35,-996.47"/>
<polygon fill="#63b8ff" stroke="#63b8ff" points="760.1,-999.99 770.59,-998.48 761.45,-993.12 760.1,-999.99"/>
</g>
<!-- Node6 -->
<g id="node6" class="node">
<title>Node6</title>
<g id="a_node6"><a xlink:href="imgui__internal_8h.html#a6e61ede308bfd68c7434e17905a29fc8" target="_top" xlink:title=" ">
<polygon fill="white" stroke="#666666" points="1045,-1048.5 984,-1048.5 984,-1029.5 1045,-1029.5 1045,-1048.5"/>
<text text-anchor="middle" x="1014.5" y="-1036.5" font-family="Helvetica,sans-Serif" font-size="10.00">ImClamp</text>
</a>
</g>
</g>
<!-- Node2&#45;&gt;Node6 -->
<g id="edge12" class="edge">
<title>Node2&#45;&gt;Node6</title>
<path fill="none" stroke="#63b8ff" d="M455.63,-942.67C476.98,-953.72 513.75,-971.73 547,-983 629.91,-1011.1 652.25,-1015.26 739,-1027 821.87,-1038.21 919.97,-1039.7 973.58,-1039.52"/>
<polygon fill="#63b8ff" stroke="#63b8ff" points="973.71,-1043.02 983.69,-1039.46 973.67,-1036.02 973.71,-1043.02"/>
</g>
<!-- Node11 -->
<g id="node11" class="node">
<title>Node11</title>
<g id="a_node11"><a xlink:href="structImDrawList.html#af86073403f1557cccb4ff45dfad0a74a" target="_top" xlink:title=" ">
<polygon fill="white" stroke="#666666" points="687.5,-942.5 562.5,-942.5 562.5,-923.5 687.5,-923.5 687.5,-942.5"/>
<text text-anchor="middle" x="625" y="-930.5" font-family="Helvetica,sans-Serif" font-size="10.00">ImDrawList::PathArcTo</text>
</a>
</g>
</g>
<!-- Node2&#45;&gt;Node11 -->
<g id="edge13" class="edge">
<title>Node2&#45;&gt;Node11</title>
<path fill="none" stroke="#63b8ff" d="M499.08,-933C516.11,-933 534.74,-933 552.29,-933"/>
<polygon fill="#63b8ff" stroke="#63b8ff" points="552.48,-936.5 562.48,-933 552.48,-929.5 552.48,-936.5"/>
</g>
<!-- Node15 -->
<g id="node15" class="node">
<title>Node15</title>
<g id="a_node15"><a xlink:href="structImDrawList.html#a60bf9040ef3d09b39c4ba8f5a2a68ae9" target="_top" xlink:title=" ">
<polygon fill="white" stroke="#666666" points="690,-905.5 560,-905.5 560,-886.5 690,-886.5 690,-905.5"/>
<text text-anchor="middle" x="625" y="-893.5" font-family="Helvetica,sans-Serif" font-size="10.00">ImDrawList::PathStroke</text>
</a>
</g>
</g>
<!-- Node2&#45;&gt;Node15 -->
<g id="edge24" class="edge">
<title>Node2&#45;&gt;Node15</title>
<path fill="none" stroke="#63b8ff" d="M485.53,-923.47C510.02,-918.61 539.99,-912.67 565.78,-907.55"/>
<polygon fill="#63b8ff" stroke="#63b8ff" points="566.68,-910.94 575.81,-905.56 565.32,-904.07 566.68,-910.94"/>
</g>
<!-- Node4 -->
<g id="node4" class="node">
<title>Node4</title>
<g id="a_node4"><a xlink:href="structImDrawList.html#a52afa32aaab6d581cda90dc5d8726ed6" target="_top" xlink:title=" ">
<polygon fill="white" stroke="#666666" points="1092,-959 937,-959 937,-929 1092,-929 1092,-959"/>
<text text-anchor="start" x="945" y="-947" font-family="Helvetica,sans-Serif" font-size="10.00">ImDrawList::_CalcCircleAuto</text>
<text text-anchor="middle" x="1014.5" y="-936" font-family="Helvetica,sans-Serif" font-size="10.00">SegmentCount</text>
</a>
</g>
</g>
<!-- Node3&#45;&gt;Node4 -->
<g id="edge3" class="edge">
<title>Node3&#45;&gt;Node4</title>
<path fill="none" stroke="#63b8ff" d="M869.57,-998.44C880.03,-996 890.95,-993.16 901,-990 907.94,-987.82 940.05,-974.64 968.2,-962.94"/>
<polygon fill="#63b8ff" stroke="#63b8ff" points="969.66,-966.12 977.55,-959.05 966.97,-959.66 969.66,-966.12"/>
</g>
<!-- Node5 -->
<g id="node5" class="node">
<title>Node5</title>
<g id="a_node5"><a xlink:href="imgui__internal_8h.html#aab329ad3ecb3ffc0bf9183d9edb144bb" target="_top" xlink:title=" ">
<polygon fill="white" stroke="#666666" points="1038,-1003.5 991,-1003.5 991,-984.5 1038,-984.5 1038,-1003.5"/>
<text text-anchor="middle" x="1014.5" y="-991.5" font-family="Helvetica,sans-Serif" font-size="10.00">ImAbs</text>
</a>
</g>
</g>
<!-- Node3&#45;&gt;Node5 -->
<g id="edge4" class="edge">
<title>Node3&#45;&gt;Node5</title>
<path fill="none" stroke="#63b8ff" d="M901.24,-1002.16C929.08,-1000.14 958.76,-997.98 980.6,-996.39"/>
<polygon fill="#63b8ff" stroke="#63b8ff" points="980.93,-999.88 990.65,-995.66 980.43,-992.9 980.93,-999.88"/>
</g>
<!-- Node3&#45;&gt;Node6 -->
<g id="edge5" class="edge">
<title>Node3&#45;&gt;Node6</title>
<path fill="none" stroke="#63b8ff" d="M880.06,-1017.51C910.54,-1022.42 946.9,-1028.27 973.96,-1032.63"/>
<polygon fill="#63b8ff" stroke="#63b8ff" points="973.41,-1036.09 983.84,-1034.22 974.53,-1029.18 973.41,-1036.09"/>
</g>
<!-- Node7 -->
<g id="node7" class="node">
<title>Node7</title>
<g id="a_node7"><a xlink:href="structImVector.html#aab5df48e0711a48bd12f3206e08c4108" target="_top" xlink:title=" ">
<polygon fill="white" stroke="#666666" points="1073.5,-828.5 955.5,-828.5 955.5,-809.5 1073.5,-809.5 1073.5,-828.5"/>
<text text-anchor="middle" x="1014.5" y="-816.5" font-family="Helvetica,sans-Serif" font-size="10.00">ImVector::push_back</text>
</a>
</g>
</g>
<!-- Node3&#45;&gt;Node7 -->
<g id="edge6" class="edge">
<title>Node3&#45;&gt;Node7</title>
<path fill="none" stroke="#63b8ff" d="M889.75,-998.34C893.85,-996.05 897.66,-993.3 901,-990 950.37,-941.19 888.18,-887.36 937,-838 939.84,-835.13 943.05,-832.66 946.49,-830.55"/>
<polygon fill="#63b8ff" stroke="#63b8ff" points="948.14,-833.64 955.48,-826.01 944.98,-827.4 948.14,-833.64"/>
</g>
<!-- Node10 -->
<g id="node10" class="node">
<title>Node10</title>
<g id="a_node10"><a xlink:href="structImVector.html#ac371dd62e56ae486b1a5038cf07eee56" target="_top" xlink:title=" ">
<polygon fill="white" stroke="#666666" points="1062,-865.5 967,-865.5 967,-846.5 1062,-846.5 1062,-865.5"/>
<text text-anchor="middle" x="1014.5" y="-853.5" font-family="Helvetica,sans-Serif" font-size="10.00">ImVector::resize</text>
</a>
</g>
</g>
<!-- Node3&#45;&gt;Node10 -->
<g id="edge9" class="edge">
<title>Node3&#45;&gt;Node10</title>
<path fill="none" stroke="#63b8ff" d="M886.53,-998.45C891.7,-996.18 896.61,-993.4 901,-990 928.67,-968.59 915.15,-947.32 937,-920 952.24,-900.94 973.88,-883.48 990.26,-871.62"/>
<polygon fill="#63b8ff" stroke="#63b8ff" points="992.58,-874.26 998.74,-865.64 988.55,-868.54 992.58,-874.26"/>
</g>
<!-- Node8 -->
<g id="node8" class="node">
<title>Node8</title>
<g id="a_node8"><a xlink:href="structImVector.html#a3a097635d464b1b70dc7d59996a88b28" target="_top" xlink:title=" ">
<polygon fill="white" stroke="#666666" points="1270,-846.5 1128,-846.5 1128,-827.5 1270,-827.5 1270,-846.5"/>
<text text-anchor="middle" x="1199" y="-834.5" font-family="Helvetica,sans-Serif" font-size="10.00">ImVector::_grow_capacity</text>
</a>
</g>
</g>
<!-- Node7&#45;&gt;Node8 -->
<g id="edge7" class="edge">
<title>Node7&#45;&gt;Node8</title>
<path fill="none" stroke="#63b8ff" d="M1073.75,-824.74C1087.73,-826.12 1102.91,-827.62 1117.7,-829.08"/>
<polygon fill="#63b8ff" stroke="#63b8ff" points="1117.56,-832.58 1127.86,-830.08 1118.25,-825.62 1117.56,-832.58"/>
</g>
<!-- Node9 -->
<g id="node9" class="node">
<title>Node9</title>
<g id="a_node9"><a xlink:href="structImVector.html#a0f14f5736c3372157856eebb67123b75" target="_top" xlink:title=" ">
<polygon fill="white" stroke="#666666" points="1250.5,-893.5 1147.5,-893.5 1147.5,-874.5 1250.5,-874.5 1250.5,-893.5"/>
<text text-anchor="middle" x="1199" y="-881.5" font-family="Helvetica,sans-Serif" font-size="10.00">ImVector::reserve</text>
</a>
</g>
</g>
<!-- Node7&#45;&gt;Node9 -->
<g id="edge8" class="edge">
<title>Node7&#45;&gt;Node9</title>
<path fill="none" stroke="#63b8ff" d="M1060.9,-828.53C1071.25,-831.18 1082.11,-834.35 1092,-838 1108.78,-844.19 1111.68,-848.67 1128,-856 1139.27,-861.06 1151.74,-866.19 1163,-870.66"/>
<polygon fill="#63b8ff" stroke="#63b8ff" points="1161.93,-874 1172.51,-874.39 1164.48,-867.48 1161.93,-874"/>
</g>
<!-- Node10&#45;&gt;Node8 -->
<g id="edge10" class="edge">
<title>Node10&#45;&gt;Node8</title>
<path fill="none" stroke="#63b8ff" d="M1062.02,-851.16C1078.94,-849.39 1098.59,-847.35 1117.59,-845.37"/>
<polygon fill="#63b8ff" stroke="#63b8ff" points="1118.18,-848.83 1127.76,-844.31 1117.45,-841.87 1118.18,-848.83"/>
</g>
<!-- Node10&#45;&gt;Node9 -->
<g id="edge11" class="edge">
<title>Node10&#45;&gt;Node9</title>
<path fill="none" stroke="#63b8ff" d="M1062.02,-863.14C1084.95,-866.66 1112.88,-870.94 1137.45,-874.71"/>
<polygon fill="#63b8ff" stroke="#63b8ff" points="1136.98,-878.18 1147.39,-876.24 1138.04,-871.26 1136.98,-878.18"/>
</g>
<!-- Node11&#45;&gt;Node3 -->
<g id="edge15" class="edge">
<title>Node11&#45;&gt;Node3</title>
<path fill="none" stroke="#63b8ff" d="M641.91,-942.61C663.29,-955.15 702.8,-977.02 739,-990 744.98,-992.14 751.31,-994.09 757.68,-995.84"/>
<polygon fill="#63b8ff" stroke="#63b8ff" points="757.12,-999.31 767.68,-998.42 758.87,-992.53 757.12,-999.31"/>
</g>
<!-- Node11&#45;&gt;Node4 -->
<g id="edge14" class="edge">
<title>Node11&#45;&gt;Node4</title>
<path fill="none" stroke="#63b8ff" d="M687.75,-923.95C704.35,-921.9 722.33,-920.03 739,-919 810.86,-914.57 829.43,-911.14 901,-919 916.17,-920.67 932.29,-923.56 947.45,-926.8"/>
<polygon fill="#63b8ff" stroke="#63b8ff" points="946.73,-930.22 957.25,-928.97 948.24,-923.39 946.73,-930.22"/>
</g>
<!-- Node11&#45;&gt;Node5 -->
<g id="edge19" class="edge">
<title>Node11&#45;&gt;Node5</title>
<path fill="none" stroke="#63b8ff" d="M687.75,-931.86C744.06,-932.15 829.17,-935.9 901,-953 917.86,-957.01 920.79,-961.87 937,-968 951.47,-973.47 967.66,-979.04 981.41,-983.63"/>
<polygon fill="#63b8ff" stroke="#63b8ff" points="980.34,-986.96 990.93,-986.77 982.53,-980.31 980.34,-986.96"/>
</g>
<!-- Node11&#45;&gt;Node7 -->
<g id="edge22" class="edge">
<title>Node11&#45;&gt;Node7</title>
<path fill="none" stroke="#63b8ff" d="M687.67,-924.05C693.18,-921.68 698.41,-918.71 703,-915 732.09,-891.53 708.16,-860.12 739,-839 804.03,-794.46 899.23,-799.01 958.71,-807.89"/>
<polygon fill="#63b8ff" stroke="#63b8ff" points="958.24,-811.36 968.67,-809.46 959.34,-804.44 958.24,-811.36"/>
</g>
<!-- Node11&#45;&gt;Node9 -->
<g id="edge23" class="edge">
<title>Node11&#45;&gt;Node9</title>
<path fill="none" stroke="#63b8ff" d="M634.2,-942.67C651.4,-962.24 693.42,-1006.4 739,-1027 882.51,-1091.88 954.69,-1135.13 1092,-1058 1152.07,-1024.26 1182.09,-941.14 1193.02,-903.31"/>
<polygon fill="#63b8ff" stroke="#63b8ff" points="1196.43,-904.09 1195.71,-893.52 1189.68,-902.24 1196.43,-904.09"/>
</g>
<!-- Node12 -->
<g id="node12" class="node">
<title>Node12</title>
<g id="a_node12"><a xlink:href="structImDrawList.html#a855fcd28cd12b81975e8a61ea2e80e96" target="_top" xlink:title=" ">
<polygon fill="white" stroke="#666666" points="889,-866.5 751,-866.5 751,-847.5 889,-847.5 889,-866.5"/>
<text text-anchor="middle" x="820" y="-854.5" font-family="Helvetica,sans-Serif" font-size="10.00">ImDrawList::_PathArcToN</text>
</a>
</g>
</g>
<!-- Node11&#45;&gt;Node12 -->
<g id="edge16" class="edge">
<title>Node11&#45;&gt;Node12</title>
<path fill="none" stroke="#63b8ff" d="M682.38,-923.49C689.54,-921.24 696.59,-918.45 703,-915 722.38,-904.58 719.95,-892.01 739,-881 746.75,-876.52 755.42,-872.8 764.11,-869.74"/>
<polygon fill="#63b8ff" stroke="#63b8ff" points="765.46,-872.99 773.89,-866.56 763.29,-866.33 765.46,-872.99"/>
</g>
<!-- Node13 -->
<g id="node13" class="node">
<title>Node13</title>
<g id="a_node13"><a xlink:href="imgui__internal_8h.html#a51a84b6be21807818b857a8565d97912" target="_top" xlink:title=" ">
<polygon fill="white" stroke="#666666" points="847,-980.5 793,-980.5 793,-961.5 847,-961.5 847,-980.5"/>
<text text-anchor="middle" x="820" y="-968.5" font-family="Helvetica,sans-Serif" font-size="10.00">ImFloor</text>
</a>
</g>
</g>
<!-- Node11&#45;&gt;Node13 -->
<g id="edge20" class="edge">
<title>Node11&#45;&gt;Node13</title>
<path fill="none" stroke="#63b8ff" d="M674.7,-942.59C708.27,-949.2 752.15,-957.84 782.67,-963.85"/>
<polygon fill="#63b8ff" stroke="#63b8ff" points="782.38,-967.36 792.87,-965.86 783.74,-960.49 782.38,-967.36"/>
</g>
<!-- Node14 -->
<g id="node14" class="node">
<title>Node14</title>
<g id="a_node14"><a xlink:href="imgui__internal_8h.html#a7667efd95147d0422f140917c71a9226" target="_top" xlink:title=" ">
<polygon fill="white" stroke="#666666" points="845,-790.5 795,-790.5 795,-771.5 845,-771.5 845,-790.5"/>
<text text-anchor="middle" x="820" y="-778.5" font-family="Helvetica,sans-Serif" font-size="10.00">ImMax</text>
</a>
</g>
</g>
<!-- Node11&#45;&gt;Node14 -->
<g id="edge21" class="edge">
<title>Node11&#45;&gt;Node14</title>
<path fill="none" stroke="#63b8ff" d="M687.8,-924.81C693.35,-922.29 698.55,-919.08 703,-915 740.92,-880.24 702.18,-840.92 739,-805 751.18,-793.12 768.99,-787.09 784.72,-784.04"/>
<polygon fill="#63b8ff" stroke="#63b8ff" points="785.36,-787.48 794.68,-782.44 784.25,-780.57 785.36,-787.48"/>
</g>
<!-- Node12&#45;&gt;Node7 -->
<g id="edge17" class="edge">
<title>Node12&#45;&gt;Node7</title>
<path fill="none" stroke="#63b8ff" d="M869.58,-847.41C895.66,-842.26 928.01,-835.88 955.42,-830.47"/>
<polygon fill="#63b8ff" stroke="#63b8ff" points="956.14,-833.89 965.27,-828.52 954.78,-827.02 956.14,-833.89"/>
</g>
<!-- Node12&#45;&gt;Node9 -->
<g id="edge18" class="edge">
<title>Node12&#45;&gt;Node9</title>
<path fill="none" stroke="#63b8ff" d="M873.67,-866.53C893.46,-869.76 916.2,-873.03 937,-875 1005.34,-881.46 1084.14,-883.42 1137.12,-883.95"/>
<polygon fill="#63b8ff" stroke="#63b8ff" points="1137.33,-887.46 1147.36,-884.04 1137.39,-880.46 1137.33,-887.46"/>
</g>
<!-- Node17 -->
<g id="node17" class="node">
<title>Node17</title>
<g id="a_node17"><a xlink:href="structImDrawList.html#a879aa38dbfb0344e3e023d65c002c7d7" target="_top" xlink:title=" ">
<polygon fill="white" stroke="#666666" points="506.5,-752.5 366.5,-752.5 366.5,-733.5 506.5,-733.5 506.5,-752.5"/>
<text text-anchor="middle" x="436.5" y="-740.5" font-family="Helvetica,sans-Serif" font-size="10.00">ImDrawList::PrimReserve</text>
</a>
</g>
</g>
<!-- Node16&#45;&gt;Node17 -->
<g id="edge26" class="edge">
<title>Node16&#45;&gt;Node17</title>
<path fill="none" stroke="#63b8ff" d="M325.15,-721.05C342.64,-724.53 360.98,-728.18 377.58,-731.48"/>
<polygon fill="#63b8ff" stroke="#63b8ff" points="377.17,-734.97 387.66,-733.48 378.54,-728.1 377.17,-734.97"/>
</g>
<!-- Node20 -->
<g id="node20" class="node">
<title>Node20</title>
<g id="a_node20"><a xlink:href="structImVector.html#a4120d4da7804ae0a34aa521dbb8e1994" target="_top" xlink:title=" ">
<polygon fill="white" stroke="#666666" points="508,-715.5 365,-715.5 365,-696.5 508,-696.5 508,-715.5"/>
<text text-anchor="middle" x="436.5" y="-703.5" font-family="Helvetica,sans-Serif" font-size="10.00">ImVector::reserve_discard</text>
</a>
</g>
</g>
<!-- Node16&#45;&gt;Node20 -->
<g id="edge31" class="edge">
<title>Node16&#45;&gt;Node20</title>
<path fill="none" stroke="#63b8ff" d="M326.23,-706C335.63,-706 345.27,-706 354.73,-706"/>
<polygon fill="#63b8ff" stroke="#63b8ff" points="354.92,-709.5 364.92,-706 354.92,-702.5 354.92,-709.5"/>
</g>
<!-- Node17&#45;&gt;Node10 -->
<g id="edge30" class="edge">
<title>Node17&#45;&gt;Node10</title>
<path fill="none" stroke="#63b8ff" d="M506.66,-737.54C619.8,-729.97 838.14,-721.53 901,-763 931.86,-783.36 908.18,-814.83 937,-838 942.85,-842.7 949.71,-846.21 956.89,-848.83"/>
<polygon fill="#63b8ff" stroke="#63b8ff" points="956.22,-852.29 966.81,-851.87 958.27,-845.59 956.22,-852.29"/>
</g>
<!-- Node18 -->
<g id="node18" class="node">
<title>Node18</title>
<g id="a_node18"><a xlink:href="structImDrawList.html#a7f2e315f147acd8b555d86d1557659cc" target="_top" xlink:title=" ">
<polygon fill="white" stroke="#666666" points="703,-715 547,-715 547,-685 703,-685 703,-715"/>
<text text-anchor="start" x="555" y="-703" font-family="Helvetica,sans-Serif" font-size="10.00">ImDrawList::_OnChangedVtx</text>
<text text-anchor="middle" x="625" y="-692" font-family="Helvetica,sans-Serif" font-size="10.00">Offset</text>
</a>
</g>
</g>
<!-- Node17&#45;&gt;Node18 -->
<g id="edge27" class="edge">
<title>Node17&#45;&gt;Node18</title>
<path fill="none" stroke="#63b8ff" d="M478.89,-733.46C499.55,-728.69 525.18,-722.78 549.13,-717.26"/>
<polygon fill="#63b8ff" stroke="#63b8ff" points="549.96,-720.66 558.91,-715.01 548.38,-713.84 549.96,-720.66"/>
</g>
<!-- Node19 -->
<g id="node19" class="node">
<title>Node19</title>
<g id="a_node19"><a xlink:href="structImDrawList.html#a846714bb0321c6f1f908767abc8559e6" target="_top" xlink:title=" ">
<polygon fill="white" stroke="#666666" points="892.5,-711.5 747.5,-711.5 747.5,-692.5 892.5,-692.5 892.5,-711.5"/>
<text text-anchor="middle" x="820" y="-699.5" font-family="Helvetica,sans-Serif" font-size="10.00">ImDrawList::AddDrawCmd</text>
</a>
</g>
</g>
<!-- Node18&#45;&gt;Node19 -->
<g id="edge28" class="edge">
<title>Node18&#45;&gt;Node19</title>
<path fill="none" stroke="#63b8ff" d="M703.11,-700.8C714.28,-700.91 725.82,-701.03 737.08,-701.15"/>
<polygon fill="#63b8ff" stroke="#63b8ff" points="737.3,-704.65 747.33,-701.26 737.37,-697.65 737.3,-704.65"/>
</g>
<!-- Node19&#45;&gt;Node7 -->
<g id="edge29" class="edge">
<title>Node19&#45;&gt;Node7</title>
<path fill="none" stroke="#63b8ff" d="M857.97,-711.52C871.91,-715.86 887.62,-721.69 901,-729 938.2,-749.33 975.46,-782.19 996.39,-802.08"/>
<polygon fill="#63b8ff" stroke="#63b8ff" points="994.2,-804.83 1003.82,-809.26 999.06,-799.79 994.2,-804.83"/>
</g>
<!-- Node21&#45;&gt;Node14 -->
<g id="edge33" class="edge">
<title>Node21&#45;&gt;Node14</title>
<path fill="none" stroke="#63b8ff" d="M316.64,-757.58C331.56,-759.25 347.3,-760.85 362,-762 519.32,-774.34 707.78,-778.97 784.24,-780.43"/>
<polygon fill="#63b8ff" stroke="#63b8ff" points="784.62,-783.93 794.69,-780.62 784.75,-776.93 784.62,-783.93"/>
</g>
<!-- Node21&#45;&gt;Node17 -->
<g id="edge34" class="edge">
<title>Node21&#45;&gt;Node17</title>
<path fill="none" stroke="#63b8ff" d="M316.65,-746.83C329.5,-746.42 343.07,-745.98 356.26,-745.56"/>
<polygon fill="#63b8ff" stroke="#63b8ff" points="356.38,-749.05 366.26,-745.23 356.15,-742.06 356.38,-749.05"/>
</g>
<!-- Node21&#45;&gt;Node20 -->
<g id="edge35" class="edge">
<title>Node21&#45;&gt;Node20</title>
<path fill="none" stroke="#63b8ff" d="M290.78,-739.46C318.35,-733.08 354.82,-724.65 384.25,-717.85"/>
<polygon fill="#63b8ff" stroke="#63b8ff" points="385.38,-721.18 394.34,-715.52 383.8,-714.36 385.38,-721.18"/>
</g>
<!-- Node22&#45;&gt;Node22 -->
<g id="edge37" class="edge">
<title>Node22&#45;&gt;Node22</title>
<path fill="none" stroke="#63b8ff" d="M220.76,-606.58C207.26,-615.23 216.51,-624.5 248.5,-624.5 269.99,-624.5 281.22,-620.32 282.18,-614.95"/>
<polygon fill="#63b8ff" stroke="#63b8ff" points="284.89,-612.71 276.24,-606.58 279.18,-616.76 284.89,-612.71"/>
</g>
<!-- Node23&#45;&gt;Node23 -->
<g id="edge39" class="edge">
<title>Node23&#45;&gt;Node23</title>
<path fill="none" stroke="#63b8ff" d="M216.86,-551.28C209.83,-560.41 220.38,-569 248.5,-569 265.2,-569 275.7,-565.97 280.01,-561.6"/>
<polygon fill="#63b8ff" stroke="#63b8ff" points="283.51,-561.32 280.14,-551.28 276.51,-561.23 283.51,-561.32"/>
</g>
<!-- Node24&#45;&gt;Node7 -->
<g id="edge44" class="edge">
<title>Node24&#45;&gt;Node7</title>
<path fill="none" stroke="#63b8ff" d="M302.28,-642.99C310.32,-640.26 318.45,-637.24 326,-634 342.82,-626.78 344.28,-618.59 362,-614 516.01,-574.09 899.12,-682.91 901,-684 949.81,-712.39 986.84,-770.29 1003.62,-800.19"/>
<polygon fill="#63b8ff" stroke="#63b8ff" points="1000.66,-802.07 1008.52,-809.18 1006.8,-798.72 1000.66,-802.07"/>
</g>
<!-- Node25 -->
<g id="node25" class="node">
<title>Node25</title>
<g id="a_node25"><a xlink:href="structImVector.html#a2d80e87e81b1b01143c8d8be93e6fde1" target="_top" xlink:title=" ">
<polygon fill="white" stroke="#666666" points="481,-641.5 392,-641.5 392,-622.5 481,-622.5 481,-641.5"/>
<text text-anchor="middle" x="436.5" y="-629.5" font-family="Helvetica,sans-Serif" font-size="10.00">ImVector::back</text>
</a>
</g>
</g>
<!-- Node24&#45;&gt;Node25 -->
<g id="edge42" class="edge">
<title>Node24&#45;&gt;Node25</title>
<path fill="none" stroke="#63b8ff" d="M316.12,-648.69C337.7,-645.67 361.35,-642.36 381.86,-639.5"/>
<polygon fill="#63b8ff" stroke="#63b8ff" points="382.55,-642.94 391.97,-638.09 381.58,-636 382.55,-642.94"/>
</g>
<!-- Node26 -->
<g id="node26" class="node">
<title>Node26</title>
<g id="a_node26"><a xlink:href="structImVector.html#aa53e48a5272f4bad1099368769514ff1" target="_top" xlink:title=" ">
<polygon fill="white" stroke="#666666" points="485.5,-678.5 387.5,-678.5 387.5,-659.5 485.5,-659.5 485.5,-678.5"/>
<text text-anchor="middle" x="436.5" y="-666.5" font-family="Helvetica,sans-Serif" font-size="10.00">ImVector::empty</text>
</a>
</g>
</g>
<!-- Node24&#45;&gt;Node26 -->
<g id="edge43" class="edge">
<title>Node24&#45;&gt;Node26</title>
<path fill="none" stroke="#63b8ff" d="M316.12,-661.94C336.09,-663.12 357.83,-664.41 377.22,-665.55"/>
<polygon fill="#63b8ff" stroke="#63b8ff" points="377.23,-669.06 387.42,-666.16 377.64,-662.07 377.23,-669.06"/>
</g>
<!-- Node29&#45;&gt;Node29 -->
<g id="edge48" class="edge">
<title>Node29&#45;&gt;Node29</title>
<path fill="none" stroke="#63b8ff" d="M216.86,-410.28C209.83,-419.41 220.38,-428 248.5,-428 265.2,-428 275.7,-424.97 280.01,-420.6"/>
<polygon fill="#63b8ff" stroke="#63b8ff" points="283.51,-420.32 280.14,-410.28 276.51,-420.23 283.51,-420.32"/>
</g>
<!-- Node31 -->
<g id="node31" class="node">
<title>Node31</title>
<g id="a_node31"><a xlink:href="structIMGUIZMO__NAMESPACE_1_1matrix__t.html#aaee954cef92bba7853147b3e75feff25" target="_top" xlink:title=" ">
<polygon fill="white" stroke="#666666" points="511,-362 362,-362 362,-332 511,-332 511,-362"/>
<text text-anchor="start" x="370" y="-350" font-family="Helvetica,sans-Serif" font-size="10.00">IMGUIZMO_NAMESPACE</text>
<text text-anchor="middle" x="436.5" y="-339" font-family="Helvetica,sans-Serif" font-size="10.00">::matrix_t::GetDeterminant</text>
</a>
</g>
</g>
<!-- Node30&#45;&gt;Node31 -->
<g id="edge50" class="edge">
<title>Node30&#45;&gt;Node31</title>
<path fill="none" stroke="#63b8ff" d="M316.12,-347C327.57,-347 339.6,-347 351.44,-347"/>
<polygon fill="#63b8ff" stroke="#63b8ff" points="351.77,-350.5 361.77,-347 351.77,-343.5 351.77,-350.5"/>
</g>
<!-- Node32&#45;&gt;Node32 -->
<g id="edge52" class="edge">
<title>Node32&#45;&gt;Node32</title>
<path fill="none" stroke="#63b8ff" d="M216.86,-296.28C209.83,-305.41 220.38,-314 248.5,-314 265.2,-314 275.7,-310.97 280.01,-306.6"/>
<polygon fill="#63b8ff" stroke="#63b8ff" points="283.51,-306.32 280.14,-296.28 276.51,-306.23 283.51,-306.32"/>
</g>
<!-- Node33&#45;&gt;Node33 -->
<g id="edge54" class="edge">
<title>Node33&#45;&gt;Node33</title>
<path fill="none" stroke="#63b8ff" d="M403.45,-247.28C396.11,-256.41 407.12,-265 436.5,-265 453.94,-265 464.91,-261.97 469.41,-257.6"/>
<polygon fill="#63b8ff" stroke="#63b8ff" points="472.91,-257.32 469.55,-247.28 465.91,-257.23 472.91,-257.32"/>
</g>
<!-- Node34&#45;&gt;Node34 -->
<g id="edge58" class="edge">
<title>Node34&#45;&gt;Node34</title>
<path fill="none" stroke="#63b8ff" d="M216.86,-126.28C209.83,-135.41 220.38,-144 248.5,-144 265.2,-144 275.7,-140.97 280.01,-136.6"/>
<polygon fill="#63b8ff" stroke="#63b8ff" points="283.51,-136.32 280.14,-126.28 276.51,-136.23 283.51,-136.32"/>
</g>
<!-- Node35 -->
<g id="node35" class="node">
<title>Node35</title>
<g id="a_node35"><a xlink:href="structIMGUIZMO__NAMESPACE_1_1vec__t.html#a2e18e8518186c392795c4cd17a4efd62" target="_top" xlink:title=" ">
<polygon fill="white" stroke="#666666" points="504,-126 369,-126 369,-96 504,-96 504,-126"/>
<text text-anchor="start" x="377" y="-114" font-family="Helvetica,sans-Serif" font-size="10.00">IMGUIZMO_NAMESPACE</text>
<text text-anchor="middle" x="436.5" y="-103" font-family="Helvetica,sans-Serif" font-size="10.00">::vec_t::Normalize</text>
</a>
</g>
</g>
<!-- Node34&#45;&gt;Node35 -->
<g id="edge56" class="edge">
<title>Node34&#45;&gt;Node35</title>
<path fill="none" stroke="#63b8ff" d="M316.12,-111C329.88,-111 344.48,-111 358.57,-111"/>
<polygon fill="#63b8ff" stroke="#63b8ff" points="358.72,-114.5 368.72,-111 358.72,-107.5 358.72,-114.5"/>
</g>
<!-- Node36 -->
<g id="node36" class="node">
<title>Node36</title>
<g id="a_node36"><a xlink:href="structIMGUIZMO__NAMESPACE_1_1vec__t.html#a16d93d6902554c6136645acca3237f3e" target="_top" xlink:title=" ">
<polygon fill="white" stroke="#666666" points="692.5,-126 557.5,-126 557.5,-96 692.5,-96 692.5,-126"/>
<text text-anchor="start" x="565.5" y="-114" font-family="Helvetica,sans-Serif" font-size="10.00">IMGUIZMO_NAMESPACE</text>
<text text-anchor="middle" x="625" y="-103" font-family="Helvetica,sans-Serif" font-size="10.00">::vec_t::Length</text>
</a>
</g>
</g>
<!-- Node35&#45;&gt;Node36 -->
<g id="edge57" class="edge">
<title>Node35&#45;&gt;Node36</title>
<path fill="none" stroke="#63b8ff" d="M504.04,-111C518.01,-111 532.86,-111 547.18,-111"/>
<polygon fill="#63b8ff" stroke="#63b8ff" points="547.48,-114.5 557.48,-111 547.48,-107.5 547.48,-114.5"/>
</g>
<!-- Node38 -->
<g id="node38" class="node">
<title>Node38</title>
<g id="a_node38"><a xlink:href="structIMGUIZMO__NAMESPACE_1_1vec__t.html#ae8b75fe6b2813130ae046031f520b847" target="_top" xlink:title=" ">
<polygon fill="white" stroke="#666666" points="504,-30 369,-30 369,0 504,0 504,-30"/>
<text text-anchor="start" x="377" y="-18" font-family="Helvetica,sans-Serif" font-size="10.00">IMGUIZMO_NAMESPACE</text>
<text text-anchor="middle" x="436.5" y="-7" font-family="Helvetica,sans-Serif" font-size="10.00">::vec_t::LengthSq</text>
</a>
</g>
</g>
<!-- Node37&#45;&gt;Node38 -->
<g id="edge60" class="edge">
<title>Node37&#45;&gt;Node38</title>
<path fill="none" stroke="#63b8ff" d="M307.84,-47.94C326.8,-43.05 348,-37.58 367.59,-32.52"/>
<polygon fill="#63b8ff" stroke="#63b8ff" points="368.56,-35.89 377.37,-30 366.81,-29.11 368.56,-35.89"/>
</g>
<!-- Node39 -->
<g id="node39" class="node">
<title>Node39</title>
<g id="a_node39"><a xlink:href="structIMGUIZMO__NAMESPACE_1_1matrix__t.html#a68739452519849799d8e099bfd73ba24" target="_top" xlink:title=" ">
<polygon fill="white" stroke="#666666" points="504,-78 369,-78 369,-48 504,-48 504,-78"/>
<text text-anchor="start" x="377" y="-66" font-family="Helvetica,sans-Serif" font-size="10.00">IMGUIZMO_NAMESPACE</text>
<text text-anchor="middle" x="436.5" y="-55" font-family="Helvetica,sans-Serif" font-size="10.00">::matrix_t::SetToIdentity</text>
</a>
</g>
</g>
<!-- Node37&#45;&gt;Node39 -->
<g id="edge61" class="edge">
<title>Node37&#45;&gt;Node39</title>
<path fill="none" stroke="#63b8ff" d="M316.12,-63C329.88,-63 344.48,-63 358.57,-63"/>
<polygon fill="#63b8ff" stroke="#63b8ff" points="358.72,-66.5 368.72,-63 358.72,-59.5 358.72,-66.5"/>
</g>
<!-- Node41&#45;&gt;Node33 -->
<g id="edge64" class="edge">
<title>Node41&#45;&gt;Node33</title>
<path fill="none" stroke="#63b8ff" d="M300.33,-192.03C323.39,-198.85 350.85,-206.97 374.97,-214.1"/>
<polygon fill="#63b8ff" stroke="#63b8ff" points="374.15,-217.51 384.74,-216.99 376.14,-210.8 374.15,-217.51"/>
</g>
<!-- Node41&#45;&gt;Node41 -->
<g id="edge66" class="edge">
<title>Node41&#45;&gt;Node41</title>
<path fill="none" stroke="#63b8ff" d="M216.86,-192.28C209.83,-201.41 220.38,-210 248.5,-210 265.2,-210 275.7,-206.97 280.01,-202.6"/>
<polygon fill="#63b8ff" stroke="#63b8ff" points="283.51,-202.32 280.14,-192.28 276.51,-202.23 283.51,-202.32"/>
</g>
<!-- Node42 -->
<g id="node42" class="node">
<title>Node42</title>
<g id="a_node42"><a xlink:href="structIMGUIZMO__NAMESPACE_1_1vec__t.html#a4061572fc192949bfc7a7b166feee3ad" target="_top" xlink:title=" ">
<polygon fill="white" stroke="#666666" points="504,-192 369,-192 369,-162 504,-162 504,-192"/>
<text text-anchor="start" x="377" y="-180" font-family="Helvetica,sans-Serif" font-size="10.00">IMGUIZMO_NAMESPACE</text>
<text text-anchor="middle" x="436.5" y="-169" font-family="Helvetica,sans-Serif" font-size="10.00">::vec_t::TransformPoint</text>
</a>
</g>
</g>
<!-- Node41&#45;&gt;Node42 -->
<g id="edge65" class="edge">
<title>Node41&#45;&gt;Node42</title>
<path fill="none" stroke="#63b8ff" d="M316.12,-177C329.88,-177 344.48,-177 358.57,-177"/>
<polygon fill="#63b8ff" stroke="#63b8ff" points="358.72,-180.5 368.72,-177 358.72,-173.5 358.72,-180.5"/>
</g>
</g>
</svg>
