<?xml version="1.0" encoding="UTF-8" standalone="no"?>
<!DOCTYPE svg PUBLIC "-//W3C//DTD SVG 1.1//EN"
 "http://www.w3.org/Graphics/SVG/1.1/DTD/svg11.dtd">
<!-- Generated by graphviz version 2.43.0 (0)
 -->
<!-- Title: ImGui::FindBottomMostVisibleWindowWithinBeginStack Pages: 1 -->
<svg width="543pt" height="174pt"
 viewBox="0.00 0.00 543.00 173.50" xmlns="http://www.w3.org/2000/svg" xmlns:xlink="http://www.w3.org/1999/xlink">
<g id="graph0" class="graph" transform="scale(1 1) rotate(0) translate(4 169.5)">
<title>ImGui::FindBottomMostVisibleWindowWithinBeginStack</title>
<!-- Node1 -->
<g id="node1" class="node">
<title>Node1</title>
<g id="a_node1"><a xlink:title=" ">
<polygon fill="#999999" stroke="#666666" points="165,-91 0,-91 0,-61 165,-61 165,-91"/>
<text text-anchor="start" x="8" y="-79" font-family="Helvetica,sans-Serif" font-size="10.00">ImGui::FindBottomMostVisible</text>
<text text-anchor="middle" x="82.5" y="-68" font-family="Helvetica,sans-Serif" font-size="10.00">WindowWithinBeginStack</text>
</a>
</g>
</g>
<!-- Node2 -->
<g id="node2" class="node">
<title>Node2</title>
<g id="a_node2"><a xlink:href="namespaceImGui.html#acc8dfbe9f52370fe2b95f6c948ba113e" target="_top" xlink:title=" ">
<polygon fill="white" stroke="#666666" points="354,-153 206,-153 206,-123 354,-123 354,-153"/>
<text text-anchor="start" x="214" y="-141" font-family="Helvetica,sans-Serif" font-size="10.00">ImGui::FindWindowDisplay</text>
<text text-anchor="middle" x="280" y="-130" font-family="Helvetica,sans-Serif" font-size="10.00">Index</text>
</a>
</g>
</g>
<!-- Node1&#45;&gt;Node2 -->
<g id="edge1" class="edge">
<title>Node1&#45;&gt;Node2</title>
<path fill="none" stroke="#63b8ff" d="M130.83,-91.01C158.24,-99.7 192.94,-110.71 221.86,-119.88"/>
<polygon fill="#63b8ff" stroke="#63b8ff" points="220.84,-123.23 231.43,-122.91 222.96,-116.56 220.84,-123.23"/>
</g>
<!-- Node5 -->
<g id="node5" class="node">
<title>Node5</title>
<g id="a_node5"><a xlink:href="imgui_8cpp.html#a088ffc0a5ef8ac04dd17caed97a9aeb4" target="_top" xlink:title=" ">
<polygon fill="white" stroke="#666666" points="348.5,-104.5 211.5,-104.5 211.5,-85.5 348.5,-85.5 348.5,-104.5"/>
<text text-anchor="middle" x="280" y="-92.5" font-family="Helvetica,sans-Serif" font-size="10.00">GetWindowDisplayLayer</text>
</a>
</g>
</g>
<!-- Node1&#45;&gt;Node5 -->
<g id="edge4" class="edge">
<title>Node1&#45;&gt;Node5</title>
<path fill="none" stroke="#63b8ff" d="M165.28,-83.95C177.17,-85.1 189.39,-86.29 201.21,-87.44"/>
<polygon fill="#63b8ff" stroke="#63b8ff" points="201.18,-90.95 211.47,-88.44 201.85,-83.99 201.18,-90.95"/>
</g>
<!-- Node6 -->
<g id="node6" class="node">
<title>Node6</title>
<g id="a_node6"><a xlink:href="imgui_8cpp.html#a0d4bfbfc89237377e7ac93b9a59fb121" target="_top" xlink:title=" ">
<polygon fill="white" stroke="#666666" points="353,-67.5 207,-67.5 207,-48.5 353,-48.5 353,-67.5"/>
<text text-anchor="middle" x="280" y="-55.5" font-family="Helvetica,sans-Serif" font-size="10.00">IsWindowActiveAndVisible</text>
</a>
</g>
</g>
<!-- Node1&#45;&gt;Node6 -->
<g id="edge5" class="edge">
<title>Node1&#45;&gt;Node6</title>
<path fill="none" stroke="#63b8ff" d="M165.28,-68.47C175.64,-67.52 186.24,-66.54 196.61,-65.59"/>
<polygon fill="#63b8ff" stroke="#63b8ff" points="197.24,-69.04 206.88,-64.64 196.6,-62.07 197.24,-69.04"/>
</g>
<!-- Node7 -->
<g id="node7" class="node">
<title>Node7</title>
<g id="a_node7"><a xlink:href="namespaceImGui.html#a48de6990762aa67d7da5c3264b92d44f" target="_top" xlink:title=" ">
<polygon fill="white" stroke="#666666" points="359,-30 201,-30 201,0 359,0 359,-30"/>
<text text-anchor="start" x="209" y="-18" font-family="Helvetica,sans-Serif" font-size="10.00">ImGui::IsWindowWithinBegin</text>
<text text-anchor="middle" x="280" y="-7" font-family="Helvetica,sans-Serif" font-size="10.00">StackOf</text>
</a>
</g>
</g>
<!-- Node1&#45;&gt;Node7 -->
<g id="edge6" class="edge">
<title>Node1&#45;&gt;Node7</title>
<path fill="none" stroke="#63b8ff" d="M130.93,-60.99C152.33,-54.23 177.93,-46.18 201,-39 207.13,-37.09 213.52,-35.11 219.91,-33.14"/>
<polygon fill="#63b8ff" stroke="#63b8ff" points="221.36,-36.35 229.89,-30.06 219.3,-29.66 221.36,-36.35"/>
</g>
<!-- Node3 -->
<g id="node3" class="node">
<title>Node3</title>
<g id="a_node3"><a xlink:href="structImVector.html#a406417c3efef769d4bee47df2188831a" target="_top" xlink:title=" ">
<polygon fill="white" stroke="#666666" points="507,-165.5 423,-165.5 423,-146.5 507,-146.5 507,-165.5"/>
<text text-anchor="middle" x="465" y="-153.5" font-family="Helvetica,sans-Serif" font-size="10.00">ImVector::find</text>
</a>
</g>
</g>
<!-- Node2&#45;&gt;Node3 -->
<g id="edge2" class="edge">
<title>Node2&#45;&gt;Node3</title>
<path fill="none" stroke="#63b8ff" d="M354.12,-145.19C373.76,-147.12 394.59,-149.17 412.77,-150.96"/>
<polygon fill="#63b8ff" stroke="#63b8ff" points="412.56,-154.46 422.86,-151.95 413.25,-147.49 412.56,-154.46"/>
</g>
<!-- Node4 -->
<g id="node4" class="node">
<title>Node4</title>
<g id="a_node4"><a xlink:href="structImVector.html#a3fd48379f807eeb01fb9da39afa30dc7" target="_top" xlink:title=" ">
<polygon fill="white" stroke="#666666" points="535,-128.5 395,-128.5 395,-109.5 535,-109.5 535,-128.5"/>
<text text-anchor="middle" x="465" y="-116.5" font-family="Helvetica,sans-Serif" font-size="10.00">ImVector::index_from_ptr</text>
</a>
</g>
</g>
<!-- Node2&#45;&gt;Node4 -->
<g id="edge3" class="edge">
<title>Node2&#45;&gt;Node4</title>
<path fill="none" stroke="#63b8ff" d="M354.12,-130.41C364.2,-129.36 374.59,-128.28 384.77,-127.23"/>
<polygon fill="#63b8ff" stroke="#63b8ff" points="385.28,-130.69 394.87,-126.18 384.56,-123.73 385.28,-130.69"/>
</g>
</g>
</svg>
