<?xml version="1.0" encoding="UTF-8" standalone="no"?>
<!DOCTYPE svg PUBLIC "-//W3C//DTD SVG 1.1//EN"
 "http://www.w3.org/Graphics/SVG/1.1/DTD/svg11.dtd">
<!-- Generated by graphviz version 2.43.0 (0)
 -->
<!-- Title: ImStb::STB_TEXTEDIT_MOVEWORDRIGHT_WIN Pages: 1 -->
<svg width="624pt" height="138pt"
 viewBox="0.00 0.00 624.00 138.00" xmlns="http://www.w3.org/2000/svg" xmlns:xlink="http://www.w3.org/1999/xlink">
<g id="graph0" class="graph" transform="scale(1 1) rotate(0) translate(4 134)">
<title>ImStb::STB_TEXTEDIT_MOVEWORDRIGHT_WIN</title>
<!-- Node1 -->
<g id="node1" class="node">
<title>Node1</title>
<g id="a_node1"><a xlink:title=" ">
<polygon fill="#999999" stroke="#666666" points="139,-79.5 0,-79.5 0,-49.5 139,-49.5 139,-79.5"/>
<text text-anchor="start" x="8" y="-67.5" font-family="Helvetica,sans-Serif" font-size="10.00">ImStb::STB_TEXTEDIT</text>
<text text-anchor="middle" x="69.5" y="-56.5" font-family="Helvetica,sans-Serif" font-size="10.00">_MOVEWORDRIGHT_WIN</text>
</a>
</g>
</g>
<!-- Node2 -->
<g id="node2" class="node">
<title>Node2</title>
<g id="a_node2"><a xlink:href="namespaceImStb.html#ab7f998a5fc7a1f6cab073a2392e786c3" target="_top" xlink:title=" ">
<polygon fill="white" stroke="#666666" points="315,-79.5 175,-79.5 175,-49.5 315,-49.5 315,-79.5"/>
<text text-anchor="start" x="183" y="-67.5" font-family="Helvetica,sans-Serif" font-size="10.00">ImStb::is_word_boundary</text>
<text text-anchor="middle" x="245" y="-56.5" font-family="Helvetica,sans-Serif" font-size="10.00">_from_right</text>
</a>
</g>
</g>
<!-- Node1&#45;&gt;Node2 -->
<g id="edge1" class="edge">
<title>Node1&#45;&gt;Node2</title>
<path fill="none" stroke="#63b8ff" d="M139.07,-64.5C147.51,-64.5 156.2,-64.5 164.78,-64.5"/>
<polygon fill="#63b8ff" stroke="#63b8ff" points="164.79,-68 174.79,-64.5 164.79,-61 164.79,-68"/>
</g>
<!-- Node3 -->
<g id="node3" class="node">
<title>Node3</title>
<g id="a_node3"><a xlink:href="imgui__internal_8h.html#a28a0d11512ebeb664af106f145a37ddd" target="_top" xlink:title=" ">
<polygon fill="white" stroke="#666666" points="491,-130 393,-130 393,-111 491,-111 491,-130"/>
<text text-anchor="middle" x="442" y="-118" font-family="Helvetica,sans-Serif" font-size="10.00">ImCharIsBlankW</text>
</a>
</g>
</g>
<!-- Node2&#45;&gt;Node3 -->
<g id="edge2" class="edge">
<title>Node2&#45;&gt;Node3</title>
<path fill="none" stroke="#63b8ff" d="M283.46,-79.61C303.31,-87.21 328.22,-96.14 351,-102.5 361.12,-105.33 371.99,-107.89 382.57,-110.14"/>
<polygon fill="#63b8ff" stroke="#63b8ff" points="382.07,-113.61 392.58,-112.2 383.49,-106.76 382.07,-113.61"/>
</g>
<!-- Node4 -->
<g id="node4" class="node">
<title>Node4</title>
<g id="a_node4"><a xlink:href="namespaceImStb.html#a83e389662fe9b33435229a9ed61e8aaf" target="_top" xlink:title=" ">
<polygon fill="white" stroke="#666666" points="518,-93 366,-93 366,-74 518,-74 518,-93"/>
<text text-anchor="middle" x="442" y="-81" font-family="Helvetica,sans-Serif" font-size="10.00">ImStb::ImCharIsSeparatorW</text>
</a>
</g>
</g>
<!-- Node2&#45;&gt;Node4 -->
<g id="edge3" class="edge">
<title>Node2&#45;&gt;Node4</title>
<path fill="none" stroke="#63b8ff" d="M315.02,-71.23C328.12,-72.5 341.97,-73.85 355.5,-75.17"/>
<polygon fill="#63b8ff" stroke="#63b8ff" points="355.48,-78.68 365.77,-76.17 356.16,-71.72 355.48,-78.68"/>
</g>
<!-- Node5 -->
<g id="node5" class="node">
<title>Node5</title>
<g id="a_node5"><a xlink:href="imgui_8cpp.html#abee86973b9888938f748a7850c2c0ff3" target="_top" xlink:title=" ">
<polygon fill="white" stroke="#666666" points="501,-56 383,-56 383,-37 501,-37 501,-56"/>
<text text-anchor="middle" x="442" y="-44" font-family="Helvetica,sans-Serif" font-size="10.00">ImTextCharFromUtf8</text>
</a>
</g>
</g>
<!-- Node2&#45;&gt;Node5 -->
<g id="edge4" class="edge">
<title>Node2&#45;&gt;Node5</title>
<path fill="none" stroke="#63b8ff" d="M315.02,-58.13C333.7,-56.4 353.9,-54.54 372.54,-52.82"/>
<polygon fill="#63b8ff" stroke="#63b8ff" points="373.08,-56.28 382.72,-51.88 372.44,-49.31 373.08,-56.28"/>
</g>
<!-- Node7 -->
<g id="node7" class="node">
<title>Node7</title>
<g id="a_node7"><a xlink:href="imgui_8cpp.html#ab969e1ebe01b7c2f6e0126c532a534d5" target="_top" xlink:title=" ">
<polygon fill="white" stroke="#666666" points="533,-19 351,-19 351,0 533,0 533,-19"/>
<text text-anchor="middle" x="442" y="-7" font-family="Helvetica,sans-Serif" font-size="10.00">ImTextFindPreviousUtf8Codepoint</text>
</a>
</g>
</g>
<!-- Node2&#45;&gt;Node7 -->
<g id="edge6" class="edge">
<title>Node2&#45;&gt;Node7</title>
<path fill="none" stroke="#63b8ff" d="M286.03,-49.49C305.47,-42.53 329.27,-34.5 351,-28.5 360.47,-25.89 370.58,-23.43 380.48,-21.21"/>
<polygon fill="#63b8ff" stroke="#63b8ff" points="381.26,-24.63 390.28,-19.07 379.77,-17.79 381.26,-24.63"/>
</g>
<!-- Node6 -->
<g id="node6" class="node">
<title>Node6</title>
<g id="a_node6"><a xlink:href="imgui__internal_8h.html#a7f9d7828066a9d61b5630adcdf4655d3" target="_top" xlink:title=" ">
<polygon fill="white" stroke="#666666" points="616,-56 569,-56 569,-37 616,-37 616,-56"/>
<text text-anchor="middle" x="592.5" y="-44" font-family="Helvetica,sans-Serif" font-size="10.00">ImMin</text>
</a>
</g>
</g>
<!-- Node5&#45;&gt;Node6 -->
<g id="edge5" class="edge">
<title>Node5&#45;&gt;Node6</title>
<path fill="none" stroke="#63b8ff" d="M501.26,-46.5C520.73,-46.5 541.73,-46.5 558.57,-46.5"/>
<polygon fill="#63b8ff" stroke="#63b8ff" points="558.98,-50 568.98,-46.5 558.98,-43 558.98,-50"/>
</g>
</g>
</svg>
