<?xml version="1.0" encoding="UTF-8" standalone="no"?>
<!DOCTYPE svg PUBLIC "-//W3C//DTD SVG 1.1//EN"
 "http://www.w3.org/Graphics/SVG/1.1/DTD/svg11.dtd">
<!-- Generated by graphviz version 2.43.0 (0)
 -->
<!-- Title: ImGui::DockSettingsRenameNodeReferences Pages: 1 -->
<svg width="515pt" height="102pt"
 viewBox="0.00 0.00 515.00 102.00" xmlns="http://www.w3.org/2000/svg" xmlns:xlink="http://www.w3.org/1999/xlink">
<g id="graph0" class="graph" transform="scale(1 1) rotate(0) translate(4 98)">
<title>ImGui::DockSettingsRenameNodeReferences</title>
<!-- Node1 -->
<g id="node1" class="node">
<title>Node1</title>
<g id="a_node1"><a xlink:title=" ">
<polygon fill="#999999" stroke="#666666" points="157,-80.5 0,-80.5 0,-50.5 157,-50.5 157,-80.5"/>
<text text-anchor="start" x="8" y="-68.5" font-family="Helvetica,sans-Serif" font-size="10.00">ImGui::DockSettingsRename</text>
<text text-anchor="middle" x="78.5" y="-57.5" font-family="Helvetica,sans-Serif" font-size="10.00">NodeReferences</text>
</a>
</g>
</g>
<!-- Node2 -->
<g id="node2" class="node">
<title>Node2</title>
<g id="a_node2"><a xlink:href="structImChunkStream.html#a10a9b29c856b3f84ce8811ebfaf2cfe8" target="_top" xlink:title=" ">
<polygon fill="white" stroke="#666666" points="493.5,-94 365.5,-94 365.5,-75 493.5,-75 493.5,-94"/>
<text text-anchor="middle" x="429.5" y="-82" font-family="Helvetica,sans-Serif" font-size="10.00">ImChunkStream::begin</text>
</a>
</g>
</g>
<!-- Node1&#45;&gt;Node2 -->
<g id="edge1" class="edge">
<title>Node1&#45;&gt;Node2</title>
<path fill="none" stroke="#63b8ff" d="M157.39,-69.74C216.52,-72.96 297.26,-77.35 355.22,-80.51"/>
<polygon fill="#63b8ff" stroke="#63b8ff" points="355.23,-84.02 365.41,-81.07 355.61,-77.03 355.23,-84.02"/>
</g>
<!-- Node3 -->
<g id="node3" class="node">
<title>Node3</title>
<g id="a_node3"><a xlink:href="structImChunkStream.html#a3a99f21ce1867d694104d740ac7ab133" target="_top" xlink:title=" ">
<polygon fill="white" stroke="#666666" points="316,-59.5 193,-59.5 193,-29.5 316,-29.5 316,-59.5"/>
<text text-anchor="start" x="201" y="-47.5" font-family="Helvetica,sans-Serif" font-size="10.00">ImChunkStream::next</text>
<text text-anchor="middle" x="254.5" y="-36.5" font-family="Helvetica,sans-Serif" font-size="10.00">_chunk</text>
</a>
</g>
</g>
<!-- Node1&#45;&gt;Node3 -->
<g id="edge2" class="edge">
<title>Node1&#45;&gt;Node3</title>
<path fill="none" stroke="#63b8ff" d="M157.09,-56.14C165.59,-55.11 174.22,-54.07 182.63,-53.05"/>
<polygon fill="#63b8ff" stroke="#63b8ff" points="183.27,-56.5 192.77,-51.83 182.43,-49.55 183.27,-56.5"/>
</g>
<!-- Node3&#45;&gt;Node2 -->
<g id="edge3" class="edge">
<title>Node3&#45;&gt;Node2</title>
<path fill="none" stroke="#63b8ff" d="M316.01,-58.49C336.09,-63.13 358.23,-68.25 377.52,-72.71"/>
<polygon fill="#63b8ff" stroke="#63b8ff" points="376.78,-76.14 387.32,-74.98 378.36,-69.31 376.78,-76.14"/>
</g>
<!-- Node4 -->
<g id="node4" class="node">
<title>Node4</title>
<g id="a_node4"><a xlink:href="structImChunkStream.html#a1a83609aaee47cf8b59a8ae09a04a06b" target="_top" xlink:title=" ">
<polygon fill="white" stroke="#666666" points="507,-56 352,-56 352,-37 507,-37 507,-56"/>
<text text-anchor="middle" x="429.5" y="-44" font-family="Helvetica,sans-Serif" font-size="10.00">ImChunkStream::chunk_size</text>
</a>
</g>
</g>
<!-- Node3&#45;&gt;Node4 -->
<g id="edge4" class="edge">
<title>Node3&#45;&gt;Node4</title>
<path fill="none" stroke="#63b8ff" d="M316.01,-45.2C324.34,-45.3 333.03,-45.4 341.72,-45.5"/>
<polygon fill="#63b8ff" stroke="#63b8ff" points="341.87,-49 351.91,-45.61 341.95,-42 341.87,-49"/>
</g>
<!-- Node5 -->
<g id="node5" class="node">
<title>Node5</title>
<g id="a_node5"><a xlink:href="structImChunkStream.html#a5c7faa90ac7fa02140a3298dbfdd5cad" target="_top" xlink:title=" ">
<polygon fill="white" stroke="#666666" points="489,-19 370,-19 370,0 489,0 489,-19"/>
<text text-anchor="middle" x="429.5" y="-7" font-family="Helvetica,sans-Serif" font-size="10.00">ImChunkStream::end</text>
</a>
</g>
</g>
<!-- Node3&#45;&gt;Node5 -->
<g id="edge5" class="edge">
<title>Node3&#45;&gt;Node5</title>
<path fill="none" stroke="#63b8ff" d="M316.01,-32.26C333.93,-28.63 353.49,-24.68 371.2,-21.09"/>
<polygon fill="#63b8ff" stroke="#63b8ff" points="372.28,-24.45 381.38,-19.03 370.89,-17.58 372.28,-24.45"/>
</g>
</g>
</svg>
