<?xml version="1.0" encoding="UTF-8" standalone="no"?>
<!DOCTYPE svg PUBLIC "-//W3C//DTD SVG 1.1//EN"
 "http://www.w3.org/Graphics/SVG/1.1/DTD/svg11.dtd">
<!-- Generated by graphviz version 2.43.0 (0)
 -->
<!-- Title: ImGui::SetWindowPos Pages: 1 -->
<svg width="828pt" height="110pt"
 viewBox="0.00 0.00 828.00 110.00" xmlns="http://www.w3.org/2000/svg" xmlns:xlink="http://www.w3.org/1999/xlink">
<g id="graph0" class="graph" transform="scale(1 1) rotate(0) translate(4 106)">
<title>ImGui::SetWindowPos</title>
<!-- Node1 -->
<g id="node1" class="node">
<title>Node1</title>
<g id="a_node1"><a xlink:title=" ">
<polygon fill="#999999" stroke="#666666" points="124,-46 0,-46 0,-27 124,-27 124,-46"/>
<text text-anchor="middle" x="62" y="-34" font-family="Helvetica,sans-Serif" font-size="10.00">ImGui::SetWindowPos</text>
</a>
</g>
</g>
<!-- Node2 -->
<g id="node2" class="node">
<title>Node2</title>
<g id="a_node2"><a xlink:href="namespaceImGui.html#abca25f22c02e73d5eb2e9c72c4557813" target="_top" xlink:title=" ">
<polygon fill="white" stroke="#666666" points="313,-74 160,-74 160,-55 313,-55 313,-74"/>
<text text-anchor="middle" x="236.5" y="-62" font-family="Helvetica,sans-Serif" font-size="10.00">ImGui::FindWindowByName</text>
</a>
</g>
</g>
<!-- Node1&#45;&gt;Node2 -->
<g id="edge1" class="edge">
<title>Node1&#45;&gt;Node2</title>
<path fill="none" stroke="#63b8ff" d="M121.88,-46.06C136.32,-48.4 151.89,-50.93 166.74,-53.34"/>
<polygon fill="#63b8ff" stroke="#63b8ff" points="166.45,-56.84 176.88,-54.99 167.57,-49.93 166.45,-56.84"/>
</g>
<!-- Node7 -->
<g id="node7" class="node">
<title>Node7</title>
<g id="a_node7"><a xlink:href="namespaceImGui.html#aaa81e004de4c0a5cedb836e92e8aa0e5" target="_top" xlink:title=" ">
<polygon fill="white" stroke="#666666" points="298.5,-19 174.5,-19 174.5,0 298.5,0 298.5,-19"/>
<text text-anchor="middle" x="236.5" y="-7" font-family="Helvetica,sans-Serif" font-size="10.00">ImGui::SetWindowPos</text>
</a>
</g>
</g>
<!-- Node1&#45;&gt;Node7 -->
<g id="edge6" class="edge">
<title>Node1&#45;&gt;Node7</title>
<path fill="none" stroke="#63b8ff" d="M123.82,-26.98C136.96,-24.92 150.96,-22.73 164.46,-20.62"/>
<polygon fill="#63b8ff" stroke="#63b8ff" points="165.31,-24.03 174.65,-19.02 164.23,-17.11 165.31,-24.03"/>
</g>
<!-- Node3 -->
<g id="node3" class="node">
<title>Node3</title>
<g id="a_node3"><a xlink:href="namespaceImGui.html#a82204d8800dc3a072ddbcbd2aecc48ac" target="_top" xlink:title=" ">
<polygon fill="white" stroke="#666666" points="500.5,-102 366.5,-102 366.5,-83 500.5,-83 500.5,-102"/>
<text text-anchor="middle" x="433.5" y="-90" font-family="Helvetica,sans-Serif" font-size="10.00">ImGui::FindWindowByID</text>
</a>
</g>
</g>
<!-- Node2&#45;&gt;Node3 -->
<g id="edge2" class="edge">
<title>Node2&#45;&gt;Node3</title>
<path fill="none" stroke="#63b8ff" d="M303.79,-74.02C320.68,-76.44 338.97,-79.07 356.31,-81.56"/>
<polygon fill="#63b8ff" stroke="#63b8ff" points="356,-85.05 366.39,-83.01 356.99,-78.12 356,-85.05"/>
</g>
<!-- Node6 -->
<g id="node6" class="node">
<title>Node6</title>
<g id="a_node6"><a xlink:href="imgui_8cpp.html#ab6659b5d67f7a3369e099ce890e12223" target="_top" xlink:title=" ">
<polygon fill="white" stroke="#666666" points="467.5,-65 399.5,-65 399.5,-46 467.5,-46 467.5,-65"/>
<text text-anchor="middle" x="433.5" y="-53" font-family="Helvetica,sans-Serif" font-size="10.00">ImHashStr</text>
</a>
</g>
</g>
<!-- Node2&#45;&gt;Node6 -->
<g id="edge5" class="edge">
<title>Node2&#45;&gt;Node6</title>
<path fill="none" stroke="#63b8ff" d="M313.17,-61.01C338.96,-59.82 366.89,-58.53 389.24,-57.5"/>
<polygon fill="#63b8ff" stroke="#63b8ff" points="389.58,-60.98 399.41,-57.03 389.26,-53.99 389.58,-60.98"/>
</g>
<!-- Node4 -->
<g id="node4" class="node">
<title>Node4</title>
<g id="a_node4"><a xlink:href="structImGuiStorage.html#aaf87a98ede89da09113b0189f6d878ca" target="_top" xlink:title=" ">
<polygon fill="white" stroke="#666666" points="695,-102 554,-102 554,-83 695,-83 695,-102"/>
<text text-anchor="middle" x="624.5" y="-90" font-family="Helvetica,sans-Serif" font-size="10.00">ImGuiStorage::GetVoidPtr</text>
</a>
</g>
</g>
<!-- Node3&#45;&gt;Node4 -->
<g id="edge3" class="edge">
<title>Node3&#45;&gt;Node4</title>
<path fill="none" stroke="#63b8ff" d="M500.6,-92.5C514.48,-92.5 529.26,-92.5 543.58,-92.5"/>
<polygon fill="#63b8ff" stroke="#63b8ff" points="543.9,-96 553.9,-92.5 543.9,-89 543.9,-96"/>
</g>
<!-- Node5 -->
<g id="node5" class="node">
<title>Node5</title>
<g id="a_node5"><a xlink:href="imgui_8cpp.html#a409bfd6de574854cd644636ea13b6a8a" target="_top" xlink:title=" ">
<polygon fill="white" stroke="#666666" points="820,-102 731,-102 731,-83 820,-83 820,-102"/>
<text text-anchor="middle" x="775.5" y="-90" font-family="Helvetica,sans-Serif" font-size="10.00">ImLowerBound</text>
</a>
</g>
</g>
<!-- Node4&#45;&gt;Node5 -->
<g id="edge4" class="edge">
<title>Node4&#45;&gt;Node5</title>
<path fill="none" stroke="#63b8ff" d="M695.2,-92.5C703.72,-92.5 712.33,-92.5 720.57,-92.5"/>
<polygon fill="#63b8ff" stroke="#63b8ff" points="720.78,-96 730.78,-92.5 720.78,-89 720.78,-96"/>
</g>
<!-- Node7&#45;&gt;Node7 -->
<g id="edge8" class="edge">
<title>Node7&#45;&gt;Node7</title>
<path fill="none" stroke="#63b8ff" d="M209.68,-19.08C196.63,-27.73 205.57,-37 236.5,-37 257.28,-37 268.13,-32.82 269.06,-27.45"/>
<polygon fill="#63b8ff" stroke="#63b8ff" points="271.86,-25.35 263.32,-19.08 266.09,-29.31 271.86,-25.35"/>
</g>
<!-- Node8 -->
<g id="node8" class="node">
<title>Node8</title>
<g id="a_node8"><a xlink:href="namespaceImGui.html#a055af7d6b7b4ae977a9c3c25a98e0d2f" target="_top" xlink:title=" ">
<polygon fill="white" stroke="#666666" points="518,-19 349,-19 349,0 518,0 518,-19"/>
<text text-anchor="middle" x="433.5" y="-7" font-family="Helvetica,sans-Serif" font-size="10.00">ImGui::GetCurrentWindowRead</text>
</a>
</g>
</g>
<!-- Node7&#45;&gt;Node8 -->
<g id="edge7" class="edge">
<title>Node7&#45;&gt;Node8</title>
<path fill="none" stroke="#63b8ff" d="M298.66,-9.5C311.3,-9.5 324.89,-9.5 338.39,-9.5"/>
<polygon fill="#63b8ff" stroke="#63b8ff" points="338.69,-13 348.69,-9.5 338.69,-6 338.69,-13"/>
</g>
</g>
</svg>
