<?xml version="1.0" encoding="UTF-8" standalone="no"?>
<!DOCTYPE svg PUBLIC "-//W3C//DTD SVG 1.1//EN"
 "http://www.w3.org/Graphics/SVG/1.1/DTD/svg11.dtd">
<!-- Generated by graphviz version 2.43.0 (0)
 -->
<!-- Title: PropertyChangedEvent.cpp Pages: 1 -->
<svg width="855pt" height="412pt"
 viewBox="0.00 0.00 854.50 412.00" xmlns="http://www.w3.org/2000/svg" xmlns:xlink="http://www.w3.org/1999/xlink">
<g id="graph0" class="graph" transform="scale(1 1) rotate(0) translate(4 408)">
<title>PropertyChangedEvent.cpp</title>
<!-- Node1 -->
<g id="node1" class="node">
<title>Node1</title>
<g id="a_node1"><a xlink:title=" ">
<polygon fill="#999999" stroke="#666666" points="216.5,-404 67.5,-404 67.5,-385 216.5,-385 216.5,-404"/>
<text text-anchor="middle" x="142" y="-392" font-family="Helvetica,sans-Serif" font-size="10.00">PropertyChangedEvent.cpp</text>
</a>
</g>
</g>
<!-- Node2 -->
<g id="node2" class="node">
<title>Node2</title>
<g id="a_node2"><a xlink:href="PropertyChangedEvent_8h.html" target="_top" xlink:title=" ">
<polygon fill="white" stroke="#666666" points="210.5,-349 73.5,-349 73.5,-330 210.5,-330 210.5,-349"/>
<text text-anchor="middle" x="142" y="-337" font-family="Helvetica,sans-Serif" font-size="10.00">PropertyChangedEvent.h</text>
</a>
</g>
</g>
<!-- Node1&#45;&gt;Node2 -->
<g id="edge1" class="edge">
<title>Node1&#45;&gt;Node2</title>
<path fill="none" stroke="#63b8ff" d="M142,-384.75C142,-377.8 142,-367.85 142,-359.13"/>
<polygon fill="#63b8ff" stroke="#63b8ff" points="145.5,-359.09 142,-349.09 138.5,-359.09 145.5,-359.09"/>
</g>
<!-- Node3 -->
<g id="node3" class="node">
<title>Node3</title>
<g id="a_node3"><a xlink:href="Command_8h.html" target="_top" xlink:title=" ">
<polygon fill="white" stroke="#666666" points="76,-294 0,-294 0,-275 76,-275 76,-294"/>
<text text-anchor="middle" x="38" y="-282" font-family="Helvetica,sans-Serif" font-size="10.00">Command.h</text>
</a>
</g>
</g>
<!-- Node2&#45;&gt;Node3 -->
<g id="edge2" class="edge">
<title>Node2&#45;&gt;Node3</title>
<path fill="none" stroke="#63b8ff" d="M125.29,-329.98C108.79,-321.57 83.3,-308.59 64.12,-298.81"/>
<polygon fill="#63b8ff" stroke="#63b8ff" points="65.51,-295.59 55.01,-294.17 62.33,-301.83 65.51,-295.59"/>
</g>
<!-- Node8 -->
<g id="node8" class="node">
<title>Node8</title>
<g id="a_node8"><a xlink:href="IComponentMemento_8h.html" target="_top" xlink:title=" ">
<polygon fill="white" stroke="#666666" points="301.5,-239 170.5,-239 170.5,-220 301.5,-220 301.5,-239"/>
<text text-anchor="middle" x="236" y="-227" font-family="Helvetica,sans-Serif" font-size="10.00">IComponentMemento.h</text>
</a>
</g>
</g>
<!-- Node2&#45;&gt;Node8 -->
<g id="edge8" class="edge">
<title>Node2&#45;&gt;Node8</title>
<path fill="none" stroke="#63b8ff" d="M149.69,-329.66C165.47,-311.54 201.7,-269.91 221.84,-246.77"/>
<polygon fill="#63b8ff" stroke="#63b8ff" points="224.54,-249 228.46,-239.16 219.26,-244.4 224.54,-249"/>
</g>
<!-- Node9 -->
<g id="node9" class="node">
<title>Node9</title>
<g id="a_node9"><a xlink:href="Entity_8h.html" target="_top" xlink:title=" ">
<polygon fill="white" stroke="#666666" points="130.5,-184 77.5,-184 77.5,-165 130.5,-165 130.5,-184"/>
<text text-anchor="middle" x="104" y="-172" font-family="Helvetica,sans-Serif" font-size="10.00">Entity.h</text>
</a>
</g>
</g>
<!-- Node2&#45;&gt;Node9 -->
<g id="edge15" class="edge">
<title>Node2&#45;&gt;Node9</title>
<path fill="none" stroke="#63b8ff" d="M138.94,-329.71C135.9,-320.79 131.24,-306.55 128,-294 118.99,-259.06 111.26,-217.62 107.15,-194.16"/>
<polygon fill="#63b8ff" stroke="#63b8ff" points="110.58,-193.46 105.44,-184.19 103.69,-194.64 110.58,-193.46"/>
</g>
<!-- Node10 -->
<g id="node10" class="node">
<title>Node10</title>
<g id="a_node10"><a xlink:title=" ">
<polygon fill="#e0e0e0" stroke="#999999" points="258.5,-184 193.5,-184 193.5,-165 258.5,-165 258.5,-184"/>
<text text-anchor="middle" x="226" y="-172" font-family="Helvetica,sans-Serif" font-size="10.00">typeindex</text>
</a>
</g>
</g>
<!-- Node2&#45;&gt;Node10 -->
<g id="edge31" class="edge">
<title>Node2&#45;&gt;Node10</title>
<path fill="none" stroke="#63b8ff" d="M141.2,-329.96C139.68,-309.31 138.36,-255.73 161,-220 169.48,-206.61 183.6,-196.23 196.52,-188.87"/>
<polygon fill="#63b8ff" stroke="#63b8ff" points="198.42,-191.82 205.61,-184.05 195.14,-185.64 198.42,-191.82"/>
</g>
<!-- Node14 -->
<g id="node14" class="node">
<title>Node14</title>
<g id="a_node14"><a xlink:href="ComponentFactory_8h.html" target="_top" xlink:title=" ">
<polygon fill="white" stroke="#666666" points="484,-294 368,-294 368,-275 484,-275 484,-294"/>
<text text-anchor="middle" x="426" y="-282" font-family="Helvetica,sans-Serif" font-size="10.00">ComponentFactory.h</text>
</a>
</g>
</g>
<!-- Node2&#45;&gt;Node14 -->
<g id="edge16" class="edge">
<title>Node2&#45;&gt;Node14</title>
<path fill="none" stroke="#63b8ff" d="M187.63,-329.98C237.27,-320.72 316.66,-305.9 370.03,-295.94"/>
<polygon fill="#63b8ff" stroke="#63b8ff" points="370.82,-299.36 380.01,-294.08 369.54,-292.48 370.82,-299.36"/>
</g>
<!-- Node4 -->
<g id="node4" class="node">
<title>Node4</title>
<g id="a_node4"><a xlink:title=" ">
<polygon fill="#e0e0e0" stroke="#999999" points="76,-239 32,-239 32,-220 76,-220 76,-239"/>
<text text-anchor="middle" x="54" y="-227" font-family="Helvetica,sans-Serif" font-size="10.00">string</text>
</a>
</g>
</g>
<!-- Node3&#45;&gt;Node4 -->
<g id="edge3" class="edge">
<title>Node3&#45;&gt;Node4</title>
<path fill="none" stroke="#63b8ff" d="M40.64,-274.75C42.76,-267.72 45.81,-257.62 48.46,-248.84"/>
<polygon fill="#63b8ff" stroke="#63b8ff" points="51.87,-249.67 51.41,-239.09 45.17,-247.65 51.87,-249.67"/>
</g>
<!-- Node5 -->
<g id="node5" class="node">
<title>Node5</title>
<g id="a_node5"><a xlink:href="cmtgb_8h.html" target="_top" xlink:title=" ">
<polygon fill="white" stroke="#666666" points="82,-129 26,-129 26,-110 82,-110 82,-129"/>
<text text-anchor="middle" x="54" y="-117" font-family="Helvetica,sans-Serif" font-size="10.00">cmtgb.h</text>
</a>
</g>
</g>
<!-- Node3&#45;&gt;Node5 -->
<g id="edge4" class="edge">
<title>Node3&#45;&gt;Node5</title>
<path fill="none" stroke="#63b8ff" d="M34.14,-274.85C30.44,-266.04 25.11,-251.87 23,-239 17.03,-202.6 33.38,-161.13 44.54,-138.17"/>
<polygon fill="#63b8ff" stroke="#63b8ff" points="47.79,-139.5 49.21,-129.01 41.55,-136.33 47.79,-139.5"/>
</g>
<!-- Node6 -->
<g id="node6" class="node">
<title>Node6</title>
<g id="a_node6"><a xlink:title=" ">
<polygon fill="#e0e0e0" stroke="#999999" points="79,-19 29,-19 29,0 79,0 79,-19"/>
<text text-anchor="middle" x="54" y="-7" font-family="Helvetica,sans-Serif" font-size="10.00">cstdint</text>
</a>
</g>
</g>
<!-- Node5&#45;&gt;Node6 -->
<g id="edge5" class="edge">
<title>Node5&#45;&gt;Node6</title>
<path fill="none" stroke="#63b8ff" d="M50.61,-109.92C46.2,-97.76 39.38,-74.8 42,-55 43.16,-46.27 45.53,-36.83 47.87,-28.9"/>
<polygon fill="#63b8ff" stroke="#63b8ff" points="51.25,-29.82 50.91,-19.23 44.57,-27.72 51.25,-29.82"/>
</g>
<!-- Node7 -->
<g id="node7" class="node">
<title>Node7</title>
<g id="a_node7"><a xlink:href="Handlers_8h.html" target="_top" xlink:title=" ">
<polygon fill="white" stroke="#666666" points="120.5,-74 51.5,-74 51.5,-55 120.5,-55 120.5,-74"/>
<text text-anchor="middle" x="86" y="-62" font-family="Helvetica,sans-Serif" font-size="10.00">Handlers.h</text>
</a>
</g>
</g>
<!-- Node5&#45;&gt;Node7 -->
<g id="edge6" class="edge">
<title>Node5&#45;&gt;Node7</title>
<path fill="none" stroke="#63b8ff" d="M59.28,-109.75C63.71,-102.42 70.16,-91.73 75.62,-82.7"/>
<polygon fill="#63b8ff" stroke="#63b8ff" points="78.64,-84.46 80.81,-74.09 72.65,-80.84 78.64,-84.46"/>
</g>
<!-- Node7&#45;&gt;Node6 -->
<g id="edge7" class="edge">
<title>Node7&#45;&gt;Node6</title>
<path fill="none" stroke="#63b8ff" d="M80.72,-54.75C76.29,-47.42 69.84,-36.73 64.38,-27.7"/>
<polygon fill="#63b8ff" stroke="#63b8ff" points="67.35,-25.84 59.19,-19.09 61.36,-29.46 67.35,-25.84"/>
</g>
<!-- Node8&#45;&gt;Node9 -->
<g id="edge9" class="edge">
<title>Node8&#45;&gt;Node9</title>
<path fill="none" stroke="#63b8ff" d="M214.79,-219.98C193.27,-211.34 159.72,-197.87 135.17,-188.02"/>
<polygon fill="#63b8ff" stroke="#63b8ff" points="136.18,-184.65 125.59,-184.17 133.57,-191.14 136.18,-184.65"/>
</g>
<!-- Node8&#45;&gt;Node10 -->
<g id="edge11" class="edge">
<title>Node8&#45;&gt;Node10</title>
<path fill="none" stroke="#63b8ff" d="M234.35,-219.75C233.04,-212.8 231.16,-202.85 229.52,-194.13"/>
<polygon fill="#63b8ff" stroke="#63b8ff" points="232.91,-193.27 227.62,-184.09 226.04,-194.56 232.91,-193.27"/>
</g>
<!-- Node11 -->
<g id="node11" class="node">
<title>Node11</title>
<g id="a_node11"><a xlink:href="ComponentConcept_8h.html" target="_top" xlink:title=" ">
<polygon fill="white" stroke="#666666" points="399,-184 277,-184 277,-165 399,-165 399,-184"/>
<text text-anchor="middle" x="338" y="-172" font-family="Helvetica,sans-Serif" font-size="10.00">ComponentConcept.h</text>
</a>
</g>
</g>
<!-- Node8&#45;&gt;Node11 -->
<g id="edge12" class="edge">
<title>Node8&#45;&gt;Node11</title>
<path fill="none" stroke="#63b8ff" d="M252.39,-219.98C268.57,-211.57 293.57,-198.59 312.38,-188.81"/>
<polygon fill="#63b8ff" stroke="#63b8ff" points="314.05,-191.89 321.31,-184.17 310.83,-185.68 314.05,-191.89"/>
</g>
<!-- Node9&#45;&gt;Node5 -->
<g id="edge10" class="edge">
<title>Node9&#45;&gt;Node5</title>
<path fill="none" stroke="#63b8ff" d="M95.74,-164.75C88.54,-157.11 77.89,-145.82 69.15,-136.56"/>
<polygon fill="#63b8ff" stroke="#63b8ff" points="71.51,-133.96 62.1,-129.09 66.42,-138.76 71.51,-133.96"/>
</g>
<!-- Node12 -->
<g id="node12" class="node">
<title>Node12</title>
<g id="a_node12"><a xlink:title=" ">
<polygon fill="#e0e0e0" stroke="#999999" points="326,-129 266,-129 266,-110 326,-110 326,-129"/>
<text text-anchor="middle" x="296" y="-117" font-family="Helvetica,sans-Serif" font-size="10.00">concepts</text>
</a>
</g>
</g>
<!-- Node11&#45;&gt;Node12 -->
<g id="edge13" class="edge">
<title>Node11&#45;&gt;Node12</title>
<path fill="none" stroke="#63b8ff" d="M331.06,-164.75C325.13,-157.26 316.43,-146.28 309.18,-137.13"/>
<polygon fill="#63b8ff" stroke="#63b8ff" points="311.76,-134.75 302.81,-129.09 306.27,-139.1 311.76,-134.75"/>
</g>
<!-- Node13 -->
<g id="node13" class="node">
<title>Node13</title>
<g id="a_node13"><a xlink:title=" ">
<polygon fill="#e0e0e0" stroke="#999999" points="413.5,-129 344.5,-129 344.5,-110 413.5,-110 413.5,-129"/>
<text text-anchor="middle" x="379" y="-117" font-family="Helvetica,sans-Serif" font-size="10.00">type_traits</text>
</a>
</g>
</g>
<!-- Node11&#45;&gt;Node13 -->
<g id="edge14" class="edge">
<title>Node11&#45;&gt;Node13</title>
<path fill="none" stroke="#63b8ff" d="M344.77,-164.75C350.56,-157.26 359.06,-146.28 366.14,-137.13"/>
<polygon fill="#63b8ff" stroke="#63b8ff" points="369.01,-139.14 372.36,-129.09 363.47,-134.86 369.01,-139.14"/>
</g>
<!-- Node14&#45;&gt;Node8 -->
<g id="edge21" class="edge">
<title>Node14&#45;&gt;Node8</title>
<path fill="none" stroke="#63b8ff" d="M395.47,-274.98C363.3,-266.01 312.44,-251.82 276.83,-241.89"/>
<polygon fill="#63b8ff" stroke="#63b8ff" points="277.34,-238.4 266.77,-239.08 275.46,-245.14 277.34,-238.4"/>
</g>
<!-- Node14&#45;&gt;Node10 -->
<g id="edge18" class="edge">
<title>Node14&#45;&gt;Node10</title>
<path fill="none" stroke="#63b8ff" d="M420.45,-274.75C411.35,-261.08 391.94,-234.72 369,-220 352.2,-209.22 304.1,-195.36 268.3,-185.99"/>
<polygon fill="#63b8ff" stroke="#63b8ff" points="269.12,-182.59 258.56,-183.48 267.37,-189.37 269.12,-182.59"/>
</g>
<!-- Node14&#45;&gt;Node11 -->
<g id="edge20" class="edge">
<title>Node14&#45;&gt;Node11</title>
<path fill="none" stroke="#63b8ff" d="M424.45,-274.89C421.76,-261.87 415.19,-236.91 402,-220 392.09,-207.29 377.55,-196.78 364.83,-189.16"/>
<polygon fill="#63b8ff" stroke="#63b8ff" points="366.41,-186.04 355.98,-184.14 362.96,-192.12 366.41,-186.04"/>
</g>
<!-- Node15 -->
<g id="node15" class="node">
<title>Node15</title>
<g id="a_node15"><a xlink:href="ISystem_8h.html" target="_top" xlink:title=" ">
<polygon fill="white" stroke="#666666" points="846.5,-184 781.5,-184 781.5,-165 846.5,-165 846.5,-184"/>
<text text-anchor="middle" x="814" y="-172" font-family="Helvetica,sans-Serif" font-size="10.00">ISystem.h</text>
</a>
</g>
</g>
<!-- Node14&#45;&gt;Node15 -->
<g id="edge17" class="edge">
<title>Node14&#45;&gt;Node15</title>
<path fill="none" stroke="#63b8ff" d="M479.19,-274.93C519.38,-267.64 575.53,-255.67 623,-239 641.19,-232.61 644.02,-226.96 662,-220 698.17,-206.01 740.63,-193.93 771.46,-185.9"/>
<polygon fill="#63b8ff" stroke="#63b8ff" points="772.64,-189.21 781.45,-183.33 770.89,-182.43 772.64,-189.21"/>
</g>
<!-- Node16 -->
<g id="node16" class="node">
<title>Node16</title>
<g id="a_node16"><a xlink:title=" ">
<polygon fill="#e0e0e0" stroke="#999999" points="510.5,-184 417.5,-184 417.5,-165 510.5,-165 510.5,-184"/>
<text text-anchor="middle" x="464" y="-172" font-family="Helvetica,sans-Serif" font-size="10.00">unordered_map</text>
</a>
</g>
</g>
<!-- Node14&#45;&gt;Node16 -->
<g id="edge19" class="edge">
<title>Node14&#45;&gt;Node16</title>
<path fill="none" stroke="#63b8ff" d="M429.11,-274.66C435.32,-257.01 449.37,-217.09 457.62,-193.64"/>
<polygon fill="#63b8ff" stroke="#63b8ff" points="460.94,-194.75 460.95,-184.16 454.33,-192.43 460.94,-194.75"/>
</g>
<!-- Node17 -->
<g id="node17" class="node">
<title>Node17</title>
<g id="a_node17"><a xlink:href="ComponentRegistry_8h.html" target="_top" xlink:title=" ">
<polygon fill="white" stroke="#666666" points="613.5,-239 492.5,-239 492.5,-220 613.5,-220 613.5,-239"/>
<text text-anchor="middle" x="553" y="-227" font-family="Helvetica,sans-Serif" font-size="10.00">ComponentRegistry.h</text>
</a>
</g>
</g>
<!-- Node14&#45;&gt;Node17 -->
<g id="edge22" class="edge">
<title>Node14&#45;&gt;Node17</title>
<path fill="none" stroke="#63b8ff" d="M446.4,-274.98C467.02,-266.38 499.11,-252.99 522.69,-243.15"/>
<polygon fill="#63b8ff" stroke="#63b8ff" points="524.34,-246.25 532.22,-239.17 521.65,-239.79 524.34,-246.25"/>
</g>
<!-- Node21 -->
<g id="node21" class="node">
<title>Node21</title>
<g id="a_node21"><a xlink:title=" ">
<polygon fill="#e0e0e0" stroke="#999999" points="735.5,-239 670.5,-239 670.5,-220 735.5,-220 735.5,-239"/>
<text text-anchor="middle" x="703" y="-227" font-family="Helvetica,sans-Serif" font-size="10.00">functional</text>
</a>
</g>
</g>
<!-- Node14&#45;&gt;Node21 -->
<g id="edge29" class="edge">
<title>Node14&#45;&gt;Node21</title>
<path fill="none" stroke="#63b8ff" d="M470.5,-274.98C522.73,-264.99 608.71,-248.54 660.19,-238.69"/>
<polygon fill="#63b8ff" stroke="#63b8ff" points="661.15,-242.07 670.31,-236.75 659.83,-235.2 661.15,-242.07"/>
</g>
<!-- Node22 -->
<g id="node22" class="node">
<title>Node22</title>
<g id="a_node22"><a xlink:title=" ">
<polygon fill="#e0e0e0" stroke="#999999" points="360,-239 320,-239 320,-220 360,-220 360,-239"/>
<text text-anchor="middle" x="340" y="-227" font-family="Helvetica,sans-Serif" font-size="10.00">span</text>
</a>
</g>
</g>
<!-- Node14&#45;&gt;Node22 -->
<g id="edge30" class="edge">
<title>Node14&#45;&gt;Node22</title>
<path fill="none" stroke="#63b8ff" d="M412.18,-274.98C398.85,-266.77 378.42,-254.18 362.69,-244.49"/>
<polygon fill="#63b8ff" stroke="#63b8ff" points="364.42,-241.44 354.07,-239.17 360.75,-247.4 364.42,-241.44"/>
</g>
<!-- Node17&#45;&gt;Node10 -->
<g id="edge25" class="edge">
<title>Node17&#45;&gt;Node10</title>
<path fill="none" stroke="#63b8ff" d="M493.37,-219.98C437.82,-211.87 352.45,-198.94 268.49,-184.02"/>
<polygon fill="#63b8ff" stroke="#63b8ff" points="268.99,-180.55 258.53,-182.23 267.76,-187.44 268.99,-180.55"/>
</g>
<!-- Node17&#45;&gt;Node15 -->
<g id="edge23" class="edge">
<title>Node17&#45;&gt;Node15</title>
<path fill="none" stroke="#63b8ff" d="M594.93,-219.98C643.36,-210.15 722.61,-194.06 771.34,-184.16"/>
<polygon fill="#63b8ff" stroke="#63b8ff" points="772.15,-187.57 781.26,-182.15 770.76,-180.71 772.15,-187.57"/>
</g>
<!-- Node17&#45;&gt;Node16 -->
<g id="edge24" class="edge">
<title>Node17&#45;&gt;Node16</title>
<path fill="none" stroke="#63b8ff" d="M538.7,-219.98C524.9,-211.77 503.76,-199.18 487.49,-189.49"/>
<polygon fill="#63b8ff" stroke="#63b8ff" points="488.94,-186.28 478.56,-184.17 485.36,-192.29 488.94,-186.28"/>
</g>
<!-- Node18 -->
<g id="node18" class="node">
<title>Node18</title>
<g id="a_node18"><a xlink:title=" ">
<polygon fill="#e0e0e0" stroke="#999999" points="763,-184 707,-184 707,-165 763,-165 763,-184"/>
<text text-anchor="middle" x="735" y="-172" font-family="Helvetica,sans-Serif" font-size="10.00">optional</text>
</a>
</g>
</g>
<!-- Node17&#45;&gt;Node18 -->
<g id="edge26" class="edge">
<title>Node17&#45;&gt;Node18</title>
<path fill="none" stroke="#63b8ff" d="M582.24,-219.98C613.43,-210.9 662.94,-196.49 697.09,-186.54"/>
<polygon fill="#63b8ff" stroke="#63b8ff" points="698.11,-189.89 706.73,-183.73 696.15,-183.17 698.11,-189.89"/>
</g>
<!-- Node19 -->
<g id="node19" class="node">
<title>Node19</title>
<g id="a_node19"><a xlink:title=" ">
<polygon fill="#e0e0e0" stroke="#999999" points="561,-184 529,-184 529,-165 561,-165 561,-184"/>
<text text-anchor="middle" x="545" y="-172" font-family="Helvetica,sans-Serif" font-size="10.00">set</text>
</a>
</g>
</g>
<!-- Node17&#45;&gt;Node19 -->
<g id="edge27" class="edge">
<title>Node17&#45;&gt;Node19</title>
<path fill="none" stroke="#63b8ff" d="M551.68,-219.75C550.63,-212.8 549.13,-202.85 547.81,-194.13"/>
<polygon fill="#63b8ff" stroke="#63b8ff" points="551.25,-193.45 546.3,-184.09 544.33,-194.5 551.25,-193.45"/>
</g>
<!-- Node20 -->
<g id="node20" class="node">
<title>Node20</title>
<g id="a_node20"><a xlink:title=" ">
<polygon fill="#e0e0e0" stroke="#999999" points="689,-184 579,-184 579,-165 689,-165 689,-184"/>
<text text-anchor="middle" x="634" y="-172" font-family="Helvetica,sans-Serif" font-size="10.00">nlohmann/json.hpp</text>
</a>
</g>
</g>
<!-- Node17&#45;&gt;Node20 -->
<g id="edge28" class="edge">
<title>Node17&#45;&gt;Node20</title>
<path fill="none" stroke="#63b8ff" d="M566.01,-219.98C578.46,-211.84 597.46,-199.41 612.21,-189.76"/>
<polygon fill="#63b8ff" stroke="#63b8ff" points="614.3,-192.57 620.75,-184.17 610.46,-186.72 614.3,-192.57"/>
</g>
</g>
</svg>
