<?xml version="1.0" encoding="UTF-8" standalone="no"?>
<!DOCTYPE svg PUBLIC "-//W3C//DTD SVG 1.1//EN"
 "http://www.w3.org/Graphics/SVG/1.1/DTD/svg11.dtd">
<!-- Generated by graphviz version 2.43.0 (0)
 -->
<!-- Title: RectContainsInfo.h Pages: 1 -->
<svg width="2776pt" height="368pt"
 viewBox="0.00 0.00 2775.50 368.00" xmlns="http://www.w3.org/2000/svg" xmlns:xlink="http://www.w3.org/1999/xlink">
<g id="graph0" class="graph" transform="scale(1 1) rotate(0) translate(4 364)">
<title>RectContainsInfo.h</title>
<!-- Node1 -->
<g id="node1" class="node">
<title>Node1</title>
<g id="a_node1"><a xlink:title=" ">
<polygon fill="#999999" stroke="#666666" points="377.5,-360 268.5,-360 268.5,-341 377.5,-341 377.5,-360"/>
<text text-anchor="middle" x="323" y="-348" font-family="Helvetica,sans-Serif" font-size="10.00">RectContainsInfo.h</text>
</a>
</g>
</g>
<!-- Node2 -->
<g id="node2" class="node">
<title>Node2</title>
<g id="a_node2"><a xlink:href="ColliderCP_8h.html" target="_top" xlink:title=" ">
<polygon fill="white" stroke="#666666" points="827,-305 753,-305 753,-286 827,-286 827,-305"/>
<text text-anchor="middle" x="790" y="-293" font-family="Helvetica,sans-Serif" font-size="10.00">ColliderCP.h</text>
</a>
</g>
</g>
<!-- Node1&#45;&gt;Node2 -->
<g id="edge1" class="edge">
<title>Node1&#45;&gt;Node2</title>
<path fill="none" stroke="#63b8ff" d="M388.15,-342.11C487.45,-330.84 673.46,-309.73 752.7,-300.73"/>
<polygon fill="#63b8ff" stroke="#63b8ff" points="387.49,-338.66 377.94,-343.26 388.28,-345.61 387.49,-338.66"/>
</g>
<!-- Node50 -->
<g id="node7" class="node">
<title>Node50</title>
<g id="a_node7"><a xlink:href="mtgb_8h.html" target="_top" xlink:title=" ">
<polygon fill="white" stroke="#666666" points="1535.5,-140 1484.5,-140 1484.5,-121 1535.5,-121 1535.5,-140"/>
<text text-anchor="middle" x="1510" y="-128" font-family="Helvetica,sans-Serif" font-size="10.00">mtgb.h</text>
</a>
</g>
</g>
<!-- Node1&#45;&gt;Node50 -->
<g id="edge65" class="edge">
<title>Node1&#45;&gt;Node50</title>
<path fill="none" stroke="#63b8ff" d="M387.54,-346.43C485.08,-341.22 675.65,-328.82 836,-305 1069.66,-270.28 1130.31,-264.76 1356,-195 1406.84,-179.29 1464.15,-153.36 1492.37,-140.01"/>
<polygon fill="#63b8ff" stroke="#63b8ff" points="387.35,-342.94 377.54,-346.96 387.71,-349.93 387.35,-342.94"/>
</g>
<!-- Node67 -->
<g id="node24" class="node">
<title>Node67</title>
<g id="a_node24"><a xlink:href="MTImGui_8cpp.html" target="_top" xlink:title=" ">
<polygon fill="white" stroke="#666666" points="347.5,-24.5 266.5,-24.5 266.5,-5.5 347.5,-5.5 347.5,-24.5"/>
<text text-anchor="middle" x="307" y="-12.5" font-family="Helvetica,sans-Serif" font-size="10.00">MTImGui.cpp</text>
</a>
</g>
</g>
<!-- Node1&#45;&gt;Node67 -->
<g id="edge63" class="edge">
<title>Node1&#45;&gt;Node67</title>
<path fill="none" stroke="#63b8ff" d="M303.92,-334.23C282.29,-315.08 250,-280.03 250,-241.5 250,-241.5 250,-241.5 250,-129.5 250,-86.28 283.41,-42.71 299.07,-24.66"/>
<polygon fill="#63b8ff" stroke="#63b8ff" points="301.71,-336.95 311.59,-340.77 306.25,-331.62 301.71,-336.95"/>
</g>
<!-- Node89 -->
<g id="node45" class="node">
<title>Node89</title>
<g id="a_node45"><a xlink:href="IDetector_8h.html" target="_top" xlink:title=" ">
<polygon fill="white" stroke="#666666" points="218,-305 148,-305 148,-286 218,-286 218,-305"/>
<text text-anchor="middle" x="183" y="-293" font-family="Helvetica,sans-Serif" font-size="10.00">IDetector.h</text>
</a>
</g>
</g>
<!-- Node1&#45;&gt;Node89 -->
<g id="edge54" class="edge">
<title>Node1&#45;&gt;Node89</title>
<path fill="none" stroke="#63b8ff" d="M291.09,-337.42C265.12,-327.59 229.08,-313.95 205.9,-305.17"/>
<polygon fill="#63b8ff" stroke="#63b8ff" points="289.92,-340.72 300.51,-340.98 292.39,-334.17 289.92,-340.72"/>
</g>
<!-- Node94 -->
<g id="node50" class="node">
<title>Node94</title>
<g id="a_node50"><a xlink:href="RectDetector_8h.html" target="_top" xlink:title=" ">
<polygon fill="white" stroke="#666666" points="367.5,-250 278.5,-250 278.5,-231 367.5,-231 367.5,-250"/>
<text text-anchor="middle" x="323" y="-238" font-family="Helvetica,sans-Serif" font-size="10.00">RectDetector.h</text>
</a>
</g>
</g>
<!-- Node1&#45;&gt;Node94 -->
<g id="edge64" class="edge">
<title>Node1&#45;&gt;Node94</title>
<path fill="none" stroke="#63b8ff" d="M323,-330.48C323,-306.84 323,-267.5 323,-250.16"/>
<polygon fill="#63b8ff" stroke="#63b8ff" points="319.5,-330.66 323,-340.66 326.5,-330.66 319.5,-330.66"/>
</g>
<!-- Node3 -->
<g id="node3" class="node">
<title>Node3</title>
<g id="a_node3"><a xlink:href="Collider_8h.html" target="_top" xlink:title=" ">
<polygon fill="white" stroke="#666666" points="1060,-250 998,-250 998,-231 1060,-231 1060,-250"/>
<text text-anchor="middle" x="1029" y="-238" font-family="Helvetica,sans-Serif" font-size="10.00">Collider.h</text>
</a>
</g>
</g>
<!-- Node2&#45;&gt;Node3 -->
<g id="edge2" class="edge">
<title>Node2&#45;&gt;Node3</title>
<path fill="none" stroke="#63b8ff" d="M833.27,-283.67C880.75,-272.72 955.61,-256.2 997.74,-247.45"/>
<polygon fill="#63b8ff" stroke="#63b8ff" points="832.24,-280.32 823.28,-285.98 833.82,-287.14 832.24,-280.32"/>
</g>
<!-- Node2&#45;&gt;Node50 -->
<g id="edge53" class="edge">
<title>Node2&#45;&gt;Node50</title>
<path fill="none" stroke="#63b8ff" d="M803.59,-278.15C827.01,-251.3 877.9,-198.59 934,-176 1036.11,-134.88 1386.58,-131.56 1484.44,-131.45"/>
<polygon fill="#63b8ff" stroke="#63b8ff" points="800.81,-276.01 796.97,-285.89 806.13,-280.56 800.81,-276.01"/>
</g>
<!-- Node82 -->
<g id="node38" class="node">
<title>Node82</title>
<g id="a_node38"><a xlink:href="TerrainReader_8h.html" target="_top" xlink:title=" ">
<polygon fill="white" stroke="#666666" points="564,-195 472,-195 472,-176 564,-176 564,-195"/>
<text text-anchor="middle" x="518" y="-183" font-family="Helvetica,sans-Serif" font-size="10.00">TerrainReader.h</text>
</a>
</g>
</g>
<!-- Node2&#45;&gt;Node82 -->
<g id="edge52" class="edge">
<title>Node2&#45;&gt;Node82</title>
<path fill="none" stroke="#63b8ff" d="M742.72,-292.32C646.97,-287.43 437.37,-274.06 416,-250 393.08,-224.19 442.42,-205.21 480.18,-195.02"/>
<polygon fill="#63b8ff" stroke="#63b8ff" points="742.55,-295.82 752.72,-292.82 742.9,-288.83 742.55,-295.82"/>
</g>
<!-- Node84 -->
<g id="node40" class="node">
<title>Node84</title>
<g id="a_node40"><a xlink:href="ColliderCP_8cpp.html" target="_top" xlink:title=" ">
<polygon fill="white" stroke="#666666" points="980,-250 894,-250 894,-231 980,-231 980,-250"/>
<text text-anchor="middle" x="937" y="-238" font-family="Helvetica,sans-Serif" font-size="10.00">ColliderCP.cpp</text>
</a>
</g>
</g>
<!-- Node2&#45;&gt;Node84 -->
<g id="edge47" class="edge">
<title>Node2&#45;&gt;Node84</title>
<path fill="none" stroke="#63b8ff" d="M823.14,-282.55C850.44,-272.71 888.5,-258.98 912.95,-250.17"/>
<polygon fill="#63b8ff" stroke="#63b8ff" points="821.84,-279.3 813.62,-285.98 824.21,-285.89 821.84,-279.3"/>
</g>
<!-- Node85 -->
<g id="node41" class="node">
<title>Node85</title>
<g id="a_node41"><a xlink:href="ImGuiEditorCamera_8cpp.html" target="_top" xlink:title=" ">
<polygon fill="white" stroke="#666666" points="557.5,-250 424.5,-250 424.5,-231 557.5,-231 557.5,-250"/>
<text text-anchor="middle" x="491" y="-238" font-family="Helvetica,sans-Serif" font-size="10.00">ImGuiEditorCamera.cpp</text>
</a>
</g>
</g>
<!-- Node2&#45;&gt;Node85 -->
<g id="edge48" class="edge">
<title>Node2&#45;&gt;Node85</title>
<path fill="none" stroke="#63b8ff" d="M742.79,-286.13C687.14,-276.27 595.18,-259.97 539.13,-250.03"/>
<polygon fill="#63b8ff" stroke="#63b8ff" points="742.28,-289.6 752.74,-287.89 743.5,-282.7 742.28,-289.6"/>
</g>
<!-- Node86 -->
<g id="node42" class="node">
<title>Node86</title>
<g id="a_node42"><a xlink:href="RectDetector_8cpp.html" target="_top" xlink:title=" ">
<polygon fill="white" stroke="#666666" points="454,-195 354,-195 354,-176 454,-176 454,-195"/>
<text text-anchor="middle" x="404" y="-183" font-family="Helvetica,sans-Serif" font-size="10.00">RectDetector.cpp</text>
</a>
</g>
</g>
<!-- Node2&#45;&gt;Node86 -->
<g id="edge49" class="edge">
<title>Node2&#45;&gt;Node86</title>
<path fill="none" stroke="#63b8ff" d="M802.85,-277.71C811.94,-263.66 820.63,-243.9 809,-231 783.12,-202.29 501.36,-199.76 463,-195 460.12,-194.64 457.17,-194.26 454.19,-193.87"/>
<polygon fill="#63b8ff" stroke="#63b8ff" points="799.92,-275.8 797.03,-285.99 805.64,-279.82 799.92,-275.8"/>
</g>
<!-- Node87 -->
<g id="node43" class="node">
<title>Node87</title>
<g id="a_node43"><a xlink:href="RenderSystem_8cpp.html" target="_top" xlink:title=" ">
<polygon fill="white" stroke="#666666" points="684,-250 576,-250 576,-231 684,-231 684,-250"/>
<text text-anchor="middle" x="630" y="-238" font-family="Helvetica,sans-Serif" font-size="10.00">RenderSystem.cpp</text>
</a>
</g>
</g>
<!-- Node2&#45;&gt;Node87 -->
<g id="edge50" class="edge">
<title>Node2&#45;&gt;Node87</title>
<path fill="none" stroke="#63b8ff" d="M754.67,-282.8C724.81,-272.91 682.73,-258.97 655.91,-250.08"/>
<polygon fill="#63b8ff" stroke="#63b8ff" points="753.7,-286.16 764.29,-285.98 755.9,-279.52 753.7,-286.16"/>
</g>
<!-- Node88 -->
<g id="node44" class="node">
<title>Node88</title>
<g id="a_node44"><a xlink:href="RigidBodyCP_8cpp.html" target="_top" xlink:title=" ">
<polygon fill="white" stroke="#666666" points="800,-250 702,-250 702,-231 800,-231 800,-250"/>
<text text-anchor="middle" x="751" y="-238" font-family="Helvetica,sans-Serif" font-size="10.00">RigidBodyCP.cpp</text>
</a>
</g>
</g>
<!-- Node2&#45;&gt;Node88 -->
<g id="edge51" class="edge">
<title>Node2&#45;&gt;Node88</title>
<path fill="none" stroke="#63b8ff" d="M777.62,-277.67C770.86,-268.5 762.79,-257.52 757.32,-250.09"/>
<polygon fill="#63b8ff" stroke="#63b8ff" points="774.81,-279.77 783.56,-285.75 780.45,-275.62 774.81,-279.77"/>
</g>
<!-- Node3&#45;&gt;Node2 -->
<g id="edge5" class="edge">
<title>Node3&#45;&gt;Node2</title>
<path fill="none" stroke="#63b8ff" d="M988.2,-251.76C942.93,-262.22 870.73,-278.18 827.02,-287.35"/>
<polygon fill="#63b8ff" stroke="#63b8ff" points="989.04,-255.16 997.99,-249.48 987.46,-248.34 989.04,-255.16"/>
</g>
<!-- Node4 -->
<g id="node4" class="node">
<title>Node4</title>
<g id="a_node4"><a xlink:href="Collider_8cpp.html" target="_top" xlink:title=" ">
<polygon fill="white" stroke="#666666" points="1017,-195 943,-195 943,-176 1017,-176 1017,-195"/>
<text text-anchor="middle" x="980" y="-183" font-family="Helvetica,sans-Serif" font-size="10.00">Collider.cpp</text>
</a>
</g>
</g>
<!-- Node3&#45;&gt;Node4 -->
<g id="edge3" class="edge">
<title>Node3&#45;&gt;Node4</title>
<path fill="none" stroke="#63b8ff" d="M1013.97,-223.24C1005.38,-213.95 994.96,-202.68 987.94,-195.09"/>
<polygon fill="#63b8ff" stroke="#63b8ff" points="1011.55,-225.78 1020.91,-230.75 1016.69,-221.03 1011.55,-225.78"/>
</g>
<!-- Node5 -->
<g id="node5" class="node">
<title>Node5</title>
<g id="a_node5"><a xlink:href="Collider_8generated_8cpp.html" target="_top" xlink:title=" ">
<polygon fill="white" stroke="#666666" points="1161,-195 1035,-195 1035,-176 1161,-176 1161,-195"/>
<text text-anchor="middle" x="1098" y="-183" font-family="Helvetica,sans-Serif" font-size="10.00">Collider.generated.cpp</text>
</a>
</g>
</g>
<!-- Node3&#45;&gt;Node5 -->
<g id="edge4" class="edge">
<title>Node3&#45;&gt;Node5</title>
<path fill="none" stroke="#63b8ff" d="M1048.04,-224.88C1060.46,-215.34 1076.24,-203.21 1086.71,-195.17"/>
<polygon fill="#63b8ff" stroke="#63b8ff" points="1045.88,-222.12 1040.09,-230.98 1050.15,-227.67 1045.88,-222.12"/>
</g>
<!-- Node6 -->
<g id="node6" class="node">
<title>Node6</title>
<g id="a_node6"><a xlink:href="Interpolator_8h.html" target="_top" xlink:title=" ">
<polygon fill="#fff0f0" stroke="red" points="1347,-195 1265,-195 1265,-176 1347,-176 1347,-195"/>
<text text-anchor="middle" x="1306" y="-183" font-family="Helvetica,sans-Serif" font-size="10.00">Interpolator.h</text>
</a>
</g>
</g>
<!-- Node3&#45;&gt;Node6 -->
<g id="edge6" class="edge">
<title>Node3&#45;&gt;Node6</title>
<path fill="none" stroke="#63b8ff" d="M1070.17,-231.62C1122.45,-221.62 1212.13,-204.46 1264.54,-194.43"/>
<polygon fill="#63b8ff" stroke="#63b8ff" points="1069.4,-228.21 1060.24,-233.52 1070.72,-235.08 1069.4,-228.21"/>
</g>
<!-- Node3&#45;&gt;Node67 -->
<g id="edge44" class="edge">
<title>Node3&#45;&gt;Node67</title>
<path fill="none" stroke="#63b8ff" d="M990.26,-228.06C911.98,-205.26 729.14,-153.53 573,-121 472.57,-100.07 428.97,-143.94 345,-85 323.96,-70.23 313.33,-39.94 309.16,-24.89"/>
<polygon fill="#63b8ff" stroke="#63b8ff" points="989.58,-231.51 1000.16,-230.95 991.54,-224.79 989.58,-231.51"/>
</g>
<!-- Node3&#45;&gt;Node82 -->
<g id="edge45" class="edge">
<title>Node3&#45;&gt;Node82</title>
<path fill="none" stroke="#63b8ff" d="M987.46,-230.95C805.89,-204.31 756.88,-215.49 578,-195 573.51,-194.49 568.83,-193.9 564.16,-193.29"/>
<polygon fill="#63b8ff" stroke="#63b8ff" points="987.22,-234.45 997.62,-232.45 988.25,-227.52 987.22,-234.45"/>
</g>
<!-- Node6&#45;&gt;Node50 -->
<g id="edge7" class="edge">
<title>Node6&#45;&gt;Node50</title>
<path fill="none" stroke="#63b8ff" d="M1348.5,-173.46C1389.53,-162.8 1450.31,-147.01 1484.41,-138.15"/>
<polygon fill="#63b8ff" stroke="#63b8ff" points="1347.57,-170.08 1338.78,-175.98 1349.33,-176.86 1347.57,-170.08"/>
</g>
<!-- Node51 -->
<g id="node8" class="node">
<title>Node51</title>
<g id="a_node8"><a xlink:href="Box3D_8h.html" target="_top" xlink:title=" ">
<polygon fill="white" stroke="#666666" points="824,-85 766,-85 766,-66 824,-66 824,-85"/>
<text text-anchor="middle" x="795" y="-73" font-family="Helvetica,sans-Serif" font-size="10.00">Box3D.h</text>
</a>
</g>
</g>
<!-- Node50&#45;&gt;Node51 -->
<g id="edge8" class="edge">
<title>Node50&#45;&gt;Node51</title>
<path fill="none" stroke="#63b8ff" d="M1474.05,-129.09C1372.7,-127.5 1076.26,-119.99 833,-85 830.19,-84.6 827.28,-84.1 824.38,-83.54"/>
<polygon fill="#63b8ff" stroke="#63b8ff" points="1474.29,-132.59 1484.34,-129.24 1474.39,-125.59 1474.29,-132.59"/>
</g>
<!-- Node55 -->
<g id="node12" class="node">
<title>Node55</title>
<g id="a_node12"><a xlink:href="Camera_8h.html" target="_top" xlink:title=" ">
<polygon fill="#fff0f0" stroke="red" points="2333,-85 2269,-85 2269,-66 2333,-66 2333,-85"/>
<text text-anchor="middle" x="2301" y="-73" font-family="Helvetica,sans-Serif" font-size="10.00">Camera.h</text>
</a>
</g>
</g>
<!-- Node50&#45;&gt;Node55 -->
<g id="edge12" class="edge">
<title>Node50&#45;&gt;Node55</title>
<path fill="none" stroke="#63b8ff" d="M1545.8,-128.92C1653.47,-126.85 1983.61,-118.05 2255,-85 2259.51,-84.45 2264.26,-83.73 2268.91,-82.95"/>
<polygon fill="#63b8ff" stroke="#63b8ff" points="1545.44,-125.43 1535.51,-129.11 1545.57,-132.43 1545.44,-125.43"/>
</g>
<!-- Node57 -->
<g id="node13" class="node">
<title>Node57</title>
<g id="a_node13"><a xlink:href="Player_8h.html" target="_top" xlink:title=" ">
<polygon fill="#fff0f0" stroke="red" points="2230,-24.5 2174,-24.5 2174,-5.5 2230,-5.5 2230,-24.5"/>
<text text-anchor="middle" x="2202" y="-12.5" font-family="Helvetica,sans-Serif" font-size="10.00">Player.h</text>
</a>
</g>
</g>
<!-- Node50&#45;&gt;Node57 -->
<g id="edge29" class="edge">
<title>Node50&#45;&gt;Node57</title>
<path fill="none" stroke="#63b8ff" d="M1545.92,-128.61C1687.27,-124.91 2198.63,-109.88 2222,-85 2237.88,-68.09 2220.13,-39.33 2209.23,-24.86"/>
<polygon fill="#63b8ff" stroke="#63b8ff" points="1545.55,-125.11 1535.64,-128.87 1545.73,-132.11 1545.55,-125.11"/>
</g>
<!-- Node48 -->
<g id="node14" class="node">
<title>Node48</title>
<g id="a_node14"><a xlink:href="TitleScene_8cpp.html" target="_top" xlink:title=" ">
<polygon fill="white" stroke="#666666" points="2618,-24.5 2530,-24.5 2530,-5.5 2618,-5.5 2618,-24.5"/>
<text text-anchor="middle" x="2574" y="-12.5" font-family="Helvetica,sans-Serif" font-size="10.00">TitleScene.cpp</text>
</a>
</g>
</g>
<!-- Node50&#45;&gt;Node48 -->
<g id="edge42" class="edge">
<title>Node50&#45;&gt;Node48</title>
<path fill="none" stroke="#63b8ff" d="M1545.85,-129.41C1729.81,-128.78 2560.76,-123.8 2598,-85 2614.34,-67.98 2594.26,-39.27 2582.07,-24.84"/>
<polygon fill="#63b8ff" stroke="#63b8ff" points="1545.62,-125.91 1535.63,-129.44 1545.64,-132.91 1545.62,-125.91"/>
</g>
<!-- Node58 -->
<g id="node15" class="node">
<title>Node58</title>
<g id="a_node15"><a xlink:href="CircularSaw_8h.html" target="_top" xlink:title=" ">
<polygon fill="#fff0f0" stroke="red" points="2588.5,-85 2505.5,-85 2505.5,-66 2588.5,-66 2588.5,-85"/>
<text text-anchor="middle" x="2547" y="-73" font-family="Helvetica,sans-Serif" font-size="10.00">CircularSaw.h</text>
</a>
</g>
</g>
<!-- Node50&#45;&gt;Node58 -->
<g id="edge15" class="edge">
<title>Node50&#45;&gt;Node58</title>
<path fill="none" stroke="#63b8ff" d="M1545.67,-129.43C1674.26,-128.87 2125.96,-124.04 2496,-85 2499.04,-84.68 2502.16,-84.29 2505.31,-83.87"/>
<polygon fill="#63b8ff" stroke="#63b8ff" points="1545.59,-125.93 1535.6,-129.47 1545.62,-132.93 1545.59,-125.93"/>
</g>
<!-- Node59 -->
<g id="node16" class="node">
<title>Node59</title>
<g id="a_node16"><a xlink:href="FadeOutScreen_8h.html" target="_top" xlink:title=" ">
<polygon fill="#fff0f0" stroke="red" points="2487,-85 2389,-85 2389,-66 2487,-66 2487,-85"/>
<text text-anchor="middle" x="2438" y="-73" font-family="Helvetica,sans-Serif" font-size="10.00">FadeOutScreen.h</text>
</a>
</g>
</g>
<!-- Node50&#45;&gt;Node59 -->
<g id="edge16" class="edge">
<title>Node50&#45;&gt;Node59</title>
<path fill="none" stroke="#63b8ff" d="M1545.82,-128.72C1664.28,-125.91 2054.12,-114.85 2375,-85 2379.51,-84.58 2384.18,-84.08 2388.86,-83.53"/>
<polygon fill="#63b8ff" stroke="#63b8ff" points="1545.45,-125.23 1535.53,-128.96 1545.61,-132.22 1545.45,-125.23"/>
</g>
<!-- Node60 -->
<g id="node17" class="node">
<title>Node60</title>
<g id="a_node17"><a xlink:href="GameOverManager_8h.html" target="_top" xlink:title=" ">
<polygon fill="#fff0f0" stroke="red" points="2448,-24.5 2328,-24.5 2328,-5.5 2448,-5.5 2448,-24.5"/>
<text text-anchor="middle" x="2388" y="-12.5" font-family="Helvetica,sans-Serif" font-size="10.00">GameOverManager.h</text>
</a>
</g>
</g>
<!-- Node50&#45;&gt;Node60 -->
<g id="edge18" class="edge">
<title>Node50&#45;&gt;Node60</title>
<path fill="none" stroke="#63b8ff" d="M1545.6,-129.46C1695.66,-129.04 2272.13,-124.83 2342,-85 2365.76,-71.45 2379.59,-40.01 2385.14,-24.69"/>
<polygon fill="#63b8ff" stroke="#63b8ff" points="1545.54,-125.96 1535.54,-129.48 1545.55,-132.96 1545.54,-125.96"/>
</g>
<!-- Node61 -->
<g id="node18" class="node">
<title>Node61</title>
<g id="a_node18"><a xlink:href="GameOverZone_8h.html" target="_top" xlink:title=" ">
<polygon fill="#fff0f0" stroke="red" points="561.5,-85 458.5,-85 458.5,-66 561.5,-66 561.5,-85"/>
<text text-anchor="middle" x="510" y="-73" font-family="Helvetica,sans-Serif" font-size="10.00">GameOverZone.h</text>
</a>
</g>
</g>
<!-- Node50&#45;&gt;Node61 -->
<g id="edge19" class="edge">
<title>Node50&#45;&gt;Node61</title>
<path fill="none" stroke="#63b8ff" d="M1474.02,-128.97C1349,-126.9 921.93,-117.7 571,-85 567.91,-84.71 564.74,-84.38 561.55,-84.02"/>
<polygon fill="#63b8ff" stroke="#63b8ff" points="1474.12,-132.48 1484.17,-129.14 1474.23,-125.48 1474.12,-132.48"/>
</g>
<!-- Node62 -->
<g id="node19" class="node">
<title>Node62</title>
<g id="a_node19"><a xlink:href="Goal_8h.html" target="_top" xlink:title=" ">
<polygon fill="#fff0f0" stroke="red" points="628,-85 580,-85 580,-66 628,-66 628,-85"/>
<text text-anchor="middle" x="604" y="-73" font-family="Helvetica,sans-Serif" font-size="10.00">Goal.h</text>
</a>
</g>
</g>
<!-- Node50&#45;&gt;Node62 -->
<g id="edge20" class="edge">
<title>Node50&#45;&gt;Node62</title>
<path fill="none" stroke="#63b8ff" d="M1473.85,-128.63C1330.56,-125.02 802.4,-110.25 637,-85 634.08,-84.55 631.04,-83.96 628.03,-83.29"/>
<polygon fill="#63b8ff" stroke="#63b8ff" points="1474.16,-132.14 1484.25,-128.89 1474.34,-125.14 1474.16,-132.14"/>
</g>
<!-- Node63 -->
<g id="node20" class="node">
<title>Node63</title>
<g id="a_node20"><a xlink:href="HPViewer_8h.html" target="_top" xlink:title=" ">
<polygon fill="#fff0f0" stroke="red" points="1186,-85 1114,-85 1114,-66 1186,-66 1186,-85"/>
<text text-anchor="middle" x="1150" y="-73" font-family="Helvetica,sans-Serif" font-size="10.00">HPViewer.h</text>
</a>
</g>
</g>
<!-- Node50&#45;&gt;Node63 -->
<g id="edge21" class="edge">
<title>Node50&#45;&gt;Node63</title>
<path fill="none" stroke="#63b8ff" d="M1474.12,-124.91C1415.73,-117.34 1296.52,-101.4 1196,-85 1192.79,-84.48 1189.47,-83.91 1186.13,-83.32"/>
<polygon fill="#63b8ff" stroke="#63b8ff" points="1473.94,-128.42 1484.3,-126.23 1474.83,-121.48 1473.94,-128.42"/>
</g>
<!-- Node64 -->
<g id="node21" class="node">
<title>Node64</title>
<g id="a_node21"><a xlink:href="HighlightEnemy_8h.html" target="_top" xlink:title=" ">
<polygon fill="white" stroke="#666666" points="748,-85 646,-85 646,-66 748,-66 748,-85"/>
<text text-anchor="middle" x="697" y="-73" font-family="Helvetica,sans-Serif" font-size="10.00">HighlightEnemy.h</text>
</a>
</g>
</g>
<!-- Node50&#45;&gt;Node64 -->
<g id="edge23" class="edge">
<title>Node50&#45;&gt;Node64</title>
<path fill="none" stroke="#63b8ff" d="M1474.2,-128.42C1365.88,-124.94 1032.22,-112.58 757,-85 754.07,-84.71 751.06,-84.38 748.03,-84.02"/>
<polygon fill="#63b8ff" stroke="#63b8ff" points="1474.15,-131.92 1484.26,-128.74 1474.38,-124.93 1474.15,-131.92"/>
</g>
<!-- Node65 -->
<g id="node22" class="node">
<title>Node65</title>
<g id="a_node22"><a xlink:href="JumpController_8h.html" target="_top" xlink:title=" ">
<polygon fill="#fff0f0" stroke="red" points="2213,-85 2115,-85 2115,-66 2213,-66 2213,-85"/>
<text text-anchor="middle" x="2164" y="-73" font-family="Helvetica,sans-Serif" font-size="10.00">JumpController.h</text>
</a>
</g>
</g>
<!-- Node50&#45;&gt;Node65 -->
<g id="edge24" class="edge">
<title>Node50&#45;&gt;Node65</title>
<path fill="none" stroke="#63b8ff" d="M1545.86,-127.71C1638.66,-122.89 1894.2,-108.4 2106,-85 2108.93,-84.68 2111.95,-84.32 2114.98,-83.93"/>
<polygon fill="#63b8ff" stroke="#63b8ff" points="1545.43,-124.23 1535.62,-128.24 1545.79,-131.22 1545.43,-124.23"/>
</g>
<!-- Node66 -->
<g id="node23" class="node">
<title>Node66</title>
<g id="a_node23"><a xlink:href="MovingFloor_8h.html" target="_top" xlink:title=" ">
<polygon fill="#fff0f0" stroke="red" points="440,-85 354,-85 354,-66 440,-66 440,-85"/>
<text text-anchor="middle" x="397" y="-73" font-family="Helvetica,sans-Serif" font-size="10.00">MovingFloor.h</text>
</a>
</g>
</g>
<!-- Node50&#45;&gt;Node66 -->
<g id="edge26" class="edge">
<title>Node50&#45;&gt;Node66</title>
<path fill="none" stroke="#63b8ff" d="M1474.35,-129.51C1339.87,-129.25 850.57,-125.39 450,-85 446.75,-84.67 443.41,-84.28 440.04,-83.84"/>
<polygon fill="#63b8ff" stroke="#63b8ff" points="1474.49,-133.01 1484.49,-129.53 1474.5,-126.01 1474.49,-133.01"/>
</g>
<!-- Node69 -->
<g id="node25" class="node">
<title>Node69</title>
<g id="a_node25"><a xlink:href="PatrolChargerEnemy_8h.html" target="_top" xlink:title=" ">
<polygon fill="#fff0f0" stroke="red" points="966,-85 842,-85 842,-66 966,-66 966,-85"/>
<text text-anchor="middle" x="904" y="-73" font-family="Helvetica,sans-Serif" font-size="10.00">PatrolChargerEnemy.h</text>
</a>
</g>
</g>
<!-- Node50&#45;&gt;Node69 -->
<g id="edge28" class="edge">
<title>Node50&#45;&gt;Node69</title>
<path fill="none" stroke="#63b8ff" d="M1474.34,-126.98C1388.35,-120.81 1162.82,-104.05 975,-85 972.16,-84.71 969.26,-84.41 966.32,-84.09"/>
<polygon fill="#63b8ff" stroke="#63b8ff" points="1474.13,-130.48 1484.36,-127.7 1474.63,-123.49 1474.13,-130.48"/>
</g>
<!-- Node70 -->
<g id="node26" class="node">
<title>Node70</title>
<g id="a_node26"><a xlink:href="RespawnManager_8h.html" target="_top" xlink:title=" ">
<polygon fill="#fff0f0" stroke="red" points="1096,-85 984,-85 984,-66 1096,-66 1096,-85"/>
<text text-anchor="middle" x="1040" y="-73" font-family="Helvetica,sans-Serif" font-size="10.00">RespawnManager.h</text>
</a>
</g>
</g>
<!-- Node50&#45;&gt;Node70 -->
<g id="edge30" class="edge">
<title>Node50&#45;&gt;Node70</title>
<path fill="none" stroke="#63b8ff" d="M1474.26,-125.82C1403.64,-118.5 1241.27,-101.39 1105,-85 1102.06,-84.65 1099.05,-84.28 1096.01,-83.9"/>
<polygon fill="#63b8ff" stroke="#63b8ff" points="1474.08,-129.32 1484.39,-126.87 1474.8,-122.36 1474.08,-129.32"/>
</g>
<!-- Node71 -->
<g id="node27" class="node">
<title>Node71</title>
<g id="a_node27"><a xlink:href="SampleGame_8h.html" target="_top" xlink:title=" ">
<polygon fill="#fff0f0" stroke="red" points="2737,-85 2645,-85 2645,-66 2737,-66 2737,-85"/>
<text text-anchor="middle" x="2691" y="-73" font-family="Helvetica,sans-Serif" font-size="10.00">SampleGame.h</text>
</a>
</g>
</g>
<!-- Node50&#45;&gt;Node71 -->
<g id="edge31" class="edge">
<title>Node50&#45;&gt;Node71</title>
<path fill="none" stroke="#63b8ff" d="M1545.84,-129.39C1685.31,-128.7 2205.16,-123.52 2631,-85 2635.51,-84.59 2640.19,-84.08 2644.87,-83.51"/>
<polygon fill="#63b8ff" stroke="#63b8ff" points="1545.71,-125.89 1535.72,-129.44 1545.74,-132.89 1545.71,-125.89"/>
</g>
<!-- Node73 -->
<g id="node28" class="node">
<title>Node73</title>
<g id="a_node28"><a xlink:href="Source_2TheMain_8cpp.html" target="_top" xlink:title=" ">
<polygon fill="white" stroke="#666666" points="2767.5,-24.5 2688.5,-24.5 2688.5,-5.5 2767.5,-5.5 2767.5,-24.5"/>
<text text-anchor="middle" x="2728" y="-12.5" font-family="Helvetica,sans-Serif" font-size="10.00">TheMain.cpp</text>
</a>
</g>
</g>
<!-- Node50&#45;&gt;Node73 -->
<g id="edge41" class="edge">
<title>Node50&#45;&gt;Node73</title>
<path fill="none" stroke="#63b8ff" d="M1545.86,-129.59C1744.59,-129.94 2703.25,-129.31 2746,-85 2761.99,-68.43 2745.24,-39.51 2734.89,-24.94"/>
<polygon fill="#63b8ff" stroke="#63b8ff" points="1545.68,-126.09 1535.68,-129.57 1545.67,-133.09 1545.68,-126.09"/>
</g>
<!-- Node74 -->
<g id="node29" class="node">
<title>Node74</title>
<g id="a_node29"><a xlink:href="SampleScene_8cpp.html" target="_top" xlink:title=" ">
<polygon fill="white" stroke="#666666" points="1307.5,-85 1204.5,-85 1204.5,-66 1307.5,-66 1307.5,-85"/>
<text text-anchor="middle" x="1256" y="-73" font-family="Helvetica,sans-Serif" font-size="10.00">SampleScene.cpp</text>
</a>
</g>
</g>
<!-- Node50&#45;&gt;Node74 -->
<g id="edge33" class="edge">
<title>Node50&#45;&gt;Node74</title>
<path fill="none" stroke="#63b8ff" d="M1474.28,-122.05C1427.57,-112.3 1345.94,-95.27 1296.83,-85.02"/>
<polygon fill="#63b8ff" stroke="#63b8ff" points="1473.74,-125.51 1484.25,-124.13 1475.17,-118.66 1473.74,-125.51"/>
</g>
<!-- Node75 -->
<g id="node30" class="node">
<title>Node75</title>
<g id="a_node30"><a xlink:href="ScoreItem_8h.html" target="_top" xlink:title=" ">
<polygon fill="#fff0f0" stroke="red" points="1400.5,-85 1325.5,-85 1325.5,-66 1400.5,-66 1400.5,-85"/>
<text text-anchor="middle" x="1363" y="-73" font-family="Helvetica,sans-Serif" font-size="10.00">ScoreItem.h</text>
</a>
</g>
</g>
<!-- Node50&#45;&gt;Node75 -->
<g id="edge34" class="edge">
<title>Node50&#45;&gt;Node75</title>
<path fill="none" stroke="#63b8ff" d="M1476.86,-117.55C1449.56,-107.71 1411.5,-93.98 1387.05,-85.17"/>
<polygon fill="#63b8ff" stroke="#63b8ff" points="1475.79,-120.89 1486.38,-120.98 1478.16,-114.3 1475.79,-120.89"/>
</g>
<!-- Node76 -->
<g id="node31" class="node">
<title>Node76</title>
<g id="a_node31"><a xlink:href="ScoreViewer_8h.html" target="_top" xlink:title=" ">
<polygon fill="#fff0f0" stroke="red" points="1505,-85 1419,-85 1419,-66 1505,-66 1505,-85"/>
<text text-anchor="middle" x="1462" y="-73" font-family="Helvetica,sans-Serif" font-size="10.00">ScoreViewer.h</text>
</a>
</g>
</g>
<!-- Node50&#45;&gt;Node76 -->
<g id="edge35" class="edge">
<title>Node50&#45;&gt;Node76</title>
<path fill="none" stroke="#63b8ff" d="M1495.27,-113.24C1486.86,-103.95 1476.65,-92.68 1469.78,-85.09"/>
<polygon fill="#63b8ff" stroke="#63b8ff" points="1492.77,-115.69 1502.07,-120.75 1497.96,-110.99 1492.77,-115.69"/>
</g>
<!-- Node77 -->
<g id="node32" class="node">
<title>Node77</title>
<g id="a_node32"><a xlink:href="SeaPlane_8h.html" target="_top" xlink:title=" ">
<polygon fill="#fff0f0" stroke="red" points="1594.5,-85 1523.5,-85 1523.5,-66 1594.5,-66 1594.5,-85"/>
<text text-anchor="middle" x="1559" y="-73" font-family="Helvetica,sans-Serif" font-size="10.00">SeaPlane.h</text>
</a>
</g>
</g>
<!-- Node50&#45;&gt;Node77 -->
<g id="edge36" class="edge">
<title>Node50&#45;&gt;Node77</title>
<path fill="none" stroke="#63b8ff" d="M1525.03,-113.24C1533.62,-103.95 1544.04,-92.68 1551.06,-85.09"/>
<polygon fill="#63b8ff" stroke="#63b8ff" points="1522.31,-111.03 1518.09,-120.75 1527.45,-115.78 1522.31,-111.03"/>
</g>
<!-- Node78 -->
<g id="node33" class="node">
<title>Node78</title>
<g id="a_node33"><a xlink:href="SkySphere_8h.html" target="_top" xlink:title=" ">
<polygon fill="#fff0f0" stroke="red" points="1689.5,-85 1612.5,-85 1612.5,-66 1689.5,-66 1689.5,-85"/>
<text text-anchor="middle" x="1651" y="-73" font-family="Helvetica,sans-Serif" font-size="10.00">SkySphere.h</text>
</a>
</g>
</g>
<!-- Node50&#45;&gt;Node78 -->
<g id="edge37" class="edge">
<title>Node50&#45;&gt;Node78</title>
<path fill="none" stroke="#63b8ff" d="M1542.14,-117.42C1568.29,-107.59 1604.59,-93.95 1627.93,-85.17"/>
<polygon fill="#63b8ff" stroke="#63b8ff" points="1540.78,-114.19 1532.65,-120.98 1543.25,-120.74 1540.78,-114.19"/>
</g>
<!-- Node43 -->
<g id="node34" class="node">
<title>Node43</title>
<g id="a_node34"><a xlink:href="StageEditScene_8cpp.html" target="_top" xlink:title=" ">
<polygon fill="white" stroke="#666666" points="1820.5,-85 1707.5,-85 1707.5,-66 1820.5,-66 1820.5,-85"/>
<text text-anchor="middle" x="1764" y="-73" font-family="Helvetica,sans-Serif" font-size="10.00">StageEditScene.cpp</text>
</a>
</g>
</g>
<!-- Node50&#45;&gt;Node43 -->
<g id="edge38" class="edge">
<title>Node50&#45;&gt;Node43</title>
<path fill="none" stroke="#63b8ff" d="M1545.72,-122.05C1592.43,-112.3 1674.06,-95.27 1723.17,-85.02"/>
<polygon fill="#63b8ff" stroke="#63b8ff" points="1544.83,-118.66 1535.75,-124.13 1546.26,-125.51 1544.83,-118.66"/>
</g>
<!-- Node79 -->
<g id="node35" class="node">
<title>Node79</title>
<g id="a_node35"><a xlink:href="StageManager_8h.html" target="_top" xlink:title=" ">
<polygon fill="#fff0f0" stroke="red" points="1933.5,-85 1838.5,-85 1838.5,-66 1933.5,-66 1933.5,-85"/>
<text text-anchor="middle" x="1886" y="-73" font-family="Helvetica,sans-Serif" font-size="10.00">StageManager.h</text>
</a>
</g>
</g>
<!-- Node50&#45;&gt;Node79 -->
<g id="edge39" class="edge">
<title>Node50&#45;&gt;Node79</title>
<path fill="none" stroke="#63b8ff" d="M1545.69,-124.69C1604.82,-116.67 1726.85,-100 1830,-85 1832.72,-84.6 1835.52,-84.19 1838.35,-83.77"/>
<polygon fill="#63b8ff" stroke="#63b8ff" points="1545.17,-121.22 1535.73,-126.03 1546.11,-128.16 1545.17,-121.22"/>
</g>
<!-- Node80 -->
<g id="node36" class="node">
<title>Node80</title>
<g id="a_node36"><a xlink:href="TextBox_8h.html" target="_top" xlink:title=" ">
<polygon fill="#fff0f0" stroke="red" points="2016.5,-85 1951.5,-85 1951.5,-66 2016.5,-66 2016.5,-85"/>
<text text-anchor="middle" x="1984" y="-73" font-family="Helvetica,sans-Serif" font-size="10.00">TextBox.h</text>
</a>
</g>
</g>
<!-- Node50&#45;&gt;Node80 -->
<g id="edge40" class="edge">
<title>Node50&#45;&gt;Node80</title>
<path fill="none" stroke="#63b8ff" d="M1546.24,-127.03C1620.81,-121.68 1796.72,-107.62 1943,-85 1945.73,-84.58 1948.55,-84.09 1951.38,-83.58"/>
<polygon fill="#63b8ff" stroke="#63b8ff" points="1545.71,-123.56 1535.98,-127.76 1546.21,-130.54 1545.71,-123.56"/>
</g>
<!-- Node81 -->
<g id="node37" class="node">
<title>Node81</title>
<g id="a_node37"><a xlink:href="mtgb_8cpp.html" target="_top" xlink:title=" ">
<polygon fill="white" stroke="#666666" points="2097,-85 2035,-85 2035,-66 2097,-66 2097,-85"/>
<text text-anchor="middle" x="2066" y="-73" font-family="Helvetica,sans-Serif" font-size="10.00">mtgb.cpp</text>
</a>
</g>
</g>
<!-- Node50&#45;&gt;Node81 -->
<g id="edge43" class="edge">
<title>Node50&#45;&gt;Node81</title>
<path fill="none" stroke="#63b8ff" d="M1545.68,-127.94C1629.74,-123.94 1846.68,-111.68 2026,-85 2028.81,-84.58 2031.72,-84.09 2034.62,-83.55"/>
<polygon fill="#63b8ff" stroke="#63b8ff" points="1545.46,-124.45 1535.63,-128.41 1545.79,-131.44 1545.46,-124.45"/>
</g>
<!-- Node52 -->
<g id="node9" class="node">
<title>Node52</title>
<g id="a_node9"><a xlink:href="Box3D_8cpp.html" target="_top" xlink:title=" ">
<polygon fill="white" stroke="#666666" points="703.5,-24.5 634.5,-24.5 634.5,-5.5 703.5,-5.5 703.5,-24.5"/>
<text text-anchor="middle" x="669" y="-12.5" font-family="Helvetica,sans-Serif" font-size="10.00">Box3D.cpp</text>
</a>
</g>
</g>
<!-- Node51&#45;&gt;Node52 -->
<g id="edge9" class="edge">
<title>Node51&#45;&gt;Node52</title>
<path fill="none" stroke="#63b8ff" d="M767.29,-61.63C742.99,-50.35 708.35,-34.27 687.34,-24.52"/>
<polygon fill="#63b8ff" stroke="#63b8ff" points="766.13,-64.96 776.68,-65.99 769.08,-58.61 766.13,-64.96"/>
</g>
<!-- Node53 -->
<g id="node10" class="node">
<title>Node53</title>
<g id="a_node10"><a xlink:href="GameObjectGenerator_8cpp.html" target="_top" xlink:title=" ">
<polygon fill="white" stroke="#666666" points="868,-24.5 722,-24.5 722,-5.5 868,-5.5 868,-24.5"/>
<text text-anchor="middle" x="795" y="-12.5" font-family="Helvetica,sans-Serif" font-size="10.00">GameObjectGenerator.cpp</text>
</a>
</g>
</g>
<!-- Node51&#45;&gt;Node53 -->
<g id="edge10" class="edge">
<title>Node51&#45;&gt;Node53</title>
<path fill="none" stroke="#63b8ff" d="M795,-55.66C795,-45.24 795,-32.8 795,-24.67"/>
<polygon fill="#63b8ff" stroke="#63b8ff" points="791.5,-55.87 795,-65.87 798.5,-55.87 791.5,-55.87"/>
</g>
<!-- Node54 -->
<g id="node11" class="node">
<title>Node54</title>
<g id="a_node11"><a xlink:href="RegisterCommonGameObjectType_8cpp.html" target="_top" xlink:title=" ">
<polygon fill="white" stroke="#666666" points="1048,-30 886,-30 886,0 1048,0 1048,-30"/>
<text text-anchor="start" x="894" y="-18" font-family="Helvetica,sans-Serif" font-size="10.00">RegisterCommonGameObject</text>
<text text-anchor="middle" x="967" y="-7" font-family="Helvetica,sans-Serif" font-size="10.00">Type.cpp</text>
</a>
</g>
</g>
<!-- Node51&#45;&gt;Node54 -->
<g id="edge11" class="edge">
<title>Node51&#45;&gt;Node54</title>
<path fill="none" stroke="#63b8ff" d="M829.67,-62.71C857.39,-53.28 896.31,-40.04 925.65,-30.06"/>
<polygon fill="#63b8ff" stroke="#63b8ff" points="828.35,-59.46 820.01,-65.99 830.6,-66.09 828.35,-59.46"/>
</g>
<!-- Node55&#45;&gt;Node57 -->
<g id="edge13" class="edge">
<title>Node55&#45;&gt;Node57</title>
<path fill="none" stroke="#63b8ff" d="M2277.77,-60.77C2258.87,-49.6 2232.78,-34.19 2216.67,-24.67"/>
<polygon fill="#63b8ff" stroke="#63b8ff" points="2276,-63.79 2286.39,-65.87 2279.56,-57.77 2276,-63.79"/>
</g>
<!-- Node55&#45;&gt;Node48 -->
<g id="edge14" class="edge">
<title>Node55&#45;&gt;Node48</title>
<path fill="none" stroke="#63b8ff" d="M2343.02,-65.49C2395.05,-54.35 2483.01,-35.5 2534.06,-24.56"/>
<polygon fill="#63b8ff" stroke="#63b8ff" points="2342.16,-62.1 2333.12,-67.62 2343.63,-68.94 2342.16,-62.1"/>
</g>
<!-- Node59&#45;&gt;Node60 -->
<g id="edge17" class="edge">
<title>Node59&#45;&gt;Node60</title>
<path fill="none" stroke="#63b8ff" d="M2423.86,-57.95C2414.6,-47.12 2402.88,-33.41 2395.41,-24.67"/>
<polygon fill="#63b8ff" stroke="#63b8ff" points="2421.46,-60.54 2430.62,-65.87 2426.79,-55.99 2421.46,-60.54"/>
</g>
<!-- Node63&#45;&gt;Node57 -->
<g id="edge22" class="edge">
<title>Node63&#45;&gt;Node57</title>
<path fill="none" stroke="#63b8ff" d="M1195.7,-66.04C1195.8,-66.02 1195.9,-66.01 1196,-66 1581.59,-21 2054.95,-16.44 2173.88,-16.03"/>
<polygon fill="#63b8ff" stroke="#63b8ff" points="1195.52,-62.53 1186.09,-67.36 1196.48,-69.46 1195.52,-62.53"/>
</g>
<!-- Node65&#45;&gt;Node57 -->
<g id="edge25" class="edge">
<title>Node65&#45;&gt;Node57</title>
<path fill="none" stroke="#63b8ff" d="M2175.17,-57.3C2182.14,-46.58 2190.8,-33.23 2196.37,-24.67"/>
<polygon fill="#63b8ff" stroke="#63b8ff" points="2172.12,-55.58 2169.61,-65.87 2177.99,-59.39 2172.12,-55.58"/>
</g>
<!-- Node66&#45;&gt;Node67 -->
<g id="edge27" class="edge">
<title>Node66&#45;&gt;Node67</title>
<path fill="none" stroke="#63b8ff" d="M374.94,-60.16C357.84,-49.05 334.71,-34.01 320.33,-24.67"/>
<polygon fill="#63b8ff" stroke="#63b8ff" points="373.43,-63.35 383.72,-65.87 377.24,-57.48 373.43,-63.35"/>
</g>
<!-- Node71&#45;&gt;Node73 -->
<g id="edge32" class="edge">
<title>Node71&#45;&gt;Node73</title>
<path fill="none" stroke="#63b8ff" d="M2701.88,-57.3C2708.66,-46.58 2717.1,-33.23 2722.52,-24.67"/>
<polygon fill="#63b8ff" stroke="#63b8ff" points="2698.85,-55.55 2696.46,-65.87 2704.76,-59.29 2698.85,-55.55"/>
</g>
<!-- Node83 -->
<g id="node39" class="node">
<title>Node83</title>
<g id="a_node39"><a xlink:href="TerrainReader_8cpp.html" target="_top" xlink:title=" ">
<polygon fill="white" stroke="#666666" points="564,-140 460,-140 460,-121 564,-121 564,-140"/>
<text text-anchor="middle" x="512" y="-128" font-family="Helvetica,sans-Serif" font-size="10.00">TerrainReader.cpp</text>
</a>
</g>
</g>
<!-- Node82&#45;&gt;Node83 -->
<g id="edge46" class="edge">
<title>Node82&#45;&gt;Node83</title>
<path fill="none" stroke="#63b8ff" d="M515.87,-165.66C514.88,-156.93 513.75,-146.99 512.97,-140.09"/>
<polygon fill="#63b8ff" stroke="#63b8ff" points="512.41,-166.21 517.01,-175.75 519.36,-165.42 512.41,-166.21"/>
</g>
<!-- Node90 -->
<g id="node46" class="node">
<title>Node90</title>
<g id="a_node46"><a xlink:href="CircleDetector_8h.html" target="_top" xlink:title=" ">
<polygon fill="white" stroke="#666666" points="106.5,-250 11.5,-250 11.5,-231 106.5,-231 106.5,-250"/>
<text text-anchor="middle" x="59" y="-238" font-family="Helvetica,sans-Serif" font-size="10.00">CircleDetector.h</text>
</a>
</g>
</g>
<!-- Node89&#45;&gt;Node90 -->
<g id="edge55" class="edge">
<title>Node89&#45;&gt;Node90</title>
<path fill="none" stroke="#63b8ff" d="M153.82,-282.03C130.89,-272.23 99.55,-258.83 79.29,-250.17"/>
<polygon fill="#63b8ff" stroke="#63b8ff" points="152.51,-285.27 163.08,-285.98 155.26,-278.84 152.51,-285.27"/>
</g>
<!-- Node92 -->
<g id="node48" class="node">
<title>Node92</title>
<g id="a_node48"><a xlink:href="RayDetector_8h.html" target="_top" xlink:title=" ">
<polygon fill="white" stroke="#666666" points="219,-250 133,-250 133,-231 219,-231 219,-250"/>
<text text-anchor="middle" x="176" y="-238" font-family="Helvetica,sans-Serif" font-size="10.00">RayDetector.h</text>
</a>
</g>
</g>
<!-- Node89&#45;&gt;Node92 -->
<g id="edge57" class="edge">
<title>Node89&#45;&gt;Node92</title>
<path fill="none" stroke="#63b8ff" d="M180.51,-275.66C179.36,-266.93 178.05,-256.99 177.13,-250.09"/>
<polygon fill="#63b8ff" stroke="#63b8ff" points="177.06,-276.29 181.84,-285.75 184,-275.38 177.06,-276.29"/>
</g>
<!-- Node89&#45;&gt;Node94 -->
<g id="edge59" class="edge">
<title>Node89&#45;&gt;Node94</title>
<path fill="none" stroke="#63b8ff" d="M214.91,-282.42C240.88,-272.59 276.92,-258.95 300.1,-250.17"/>
<polygon fill="#63b8ff" stroke="#63b8ff" points="213.61,-279.17 205.49,-285.98 216.08,-285.72 213.61,-279.17"/>
</g>
<!-- Node91 -->
<g id="node47" class="node">
<title>Node91</title>
<g id="a_node47"><a xlink:href="CircleDetector_8cpp.html" target="_top" xlink:title=" ">
<polygon fill="white" stroke="#666666" points="106,-195 0,-195 0,-176 106,-176 106,-195"/>
<text text-anchor="middle" x="53" y="-183" font-family="Helvetica,sans-Serif" font-size="10.00">CircleDetector.cpp</text>
</a>
</g>
</g>
<!-- Node90&#45;&gt;Node91 -->
<g id="edge56" class="edge">
<title>Node90&#45;&gt;Node91</title>
<path fill="none" stroke="#63b8ff" d="M56.87,-220.66C55.88,-211.93 54.75,-201.99 53.97,-195.09"/>
<polygon fill="#63b8ff" stroke="#63b8ff" points="53.41,-221.21 58.01,-230.75 60.36,-220.42 53.41,-221.21"/>
</g>
<!-- Node93 -->
<g id="node49" class="node">
<title>Node93</title>
<g id="a_node49"><a xlink:href="RayDetector_8cpp.html" target="_top" xlink:title=" ">
<polygon fill="white" stroke="#666666" points="221.5,-195 124.5,-195 124.5,-176 221.5,-176 221.5,-195"/>
<text text-anchor="middle" x="173" y="-183" font-family="Helvetica,sans-Serif" font-size="10.00">RayDetector.cpp</text>
</a>
</g>
</g>
<!-- Node92&#45;&gt;Node93 -->
<g id="edge58" class="edge">
<title>Node92&#45;&gt;Node93</title>
<path fill="none" stroke="#63b8ff" d="M174.93,-220.66C174.44,-211.93 173.88,-201.99 173.49,-195.09"/>
<polygon fill="#63b8ff" stroke="#63b8ff" points="171.44,-220.96 175.5,-230.75 178.43,-220.57 171.44,-220.96"/>
</g>
<!-- Node94&#45;&gt;Node50 -->
<g id="edge62" class="edge">
<title>Node94&#45;&gt;Node50</title>
<path fill="none" stroke="#63b8ff" d="M324.03,-220.69C325.93,-205.96 331.11,-186.3 345,-176 392.34,-140.92 1317.58,-132.84 1484.36,-131.67"/>
<polygon fill="#63b8ff" stroke="#63b8ff" points="320.53,-220.48 323.12,-230.75 327.5,-221.1 320.53,-220.48"/>
</g>
<!-- Node94&#45;&gt;Node67 -->
<g id="edge60" class="edge">
<title>Node94&#45;&gt;Node67</title>
<path fill="none" stroke="#63b8ff" d="M321.65,-220.67C318.36,-174.71 310.02,-58.14 307.64,-24.94"/>
<polygon fill="#63b8ff" stroke="#63b8ff" points="318.17,-221.01 322.37,-230.74 325.15,-220.51 318.17,-221.01"/>
</g>
<!-- Node94&#45;&gt;Node86 -->
<g id="edge61" class="edge">
<title>Node94&#45;&gt;Node86</title>
<path fill="none" stroke="#63b8ff" d="M344.51,-225.42C359.21,-215.81 378.22,-203.37 390.75,-195.17"/>
<polygon fill="#63b8ff" stroke="#63b8ff" points="342.47,-222.58 336.01,-230.98 346.3,-228.44 342.47,-222.58"/>
</g>
</g>
</svg>
