<?xml version="1.0" encoding="UTF-8" standalone="no"?>
<!DOCTYPE svg PUBLIC "-//W3C//DTD SVG 1.1//EN"
 "http://www.w3.org/Graphics/SVG/1.1/DTD/svg11.dtd">
<!-- Generated by graphviz version 2.43.0 (0)
 -->
<!-- Title: ReleaseUtility.h Pages: 1 -->
<svg width="4240pt" height="247pt"
 viewBox="0.00 0.00 4240.00 247.00" xmlns="http://www.w3.org/2000/svg" xmlns:xlink="http://www.w3.org/1999/xlink">
<g id="graph0" class="graph" transform="scale(1 1) rotate(0) translate(4 243)">
<title>ReleaseUtility.h</title>
<!-- Node1 -->
<g id="node1" class="node">
<title>Node1</title>
<g id="a_node1"><a xlink:title=" ">
<polygon fill="#999999" stroke="#666666" points="2976,-239 2883,-239 2883,-220 2976,-220 2976,-239"/>
<text text-anchor="middle" x="2929.5" y="-227" font-family="Helvetica,sans-Serif" font-size="10.00">ReleaseUtility.h</text>
</a>
</g>
</g>
<!-- Node2 -->
<g id="node2" class="node">
<title>Node2</title>
<g id="a_node2"><a xlink:href="Audio_8cpp.html" target="_top" xlink:title=" ">
<polygon fill="white" stroke="#666666" points="65,-184 0,-184 0,-165 65,-165 65,-184"/>
<text text-anchor="middle" x="32.5" y="-172" font-family="Helvetica,sans-Serif" font-size="10.00">Audio.cpp</text>
</a>
</g>
</g>
<!-- Node1&#45;&gt;Node2 -->
<g id="edge1" class="edge">
<title>Node1&#45;&gt;Node2</title>
<path fill="none" stroke="#63b8ff" d="M2872.67,-228.26C2495.59,-226.58 360.92,-215.74 73.5,-184 70.75,-183.7 67.92,-183.3 65.08,-182.83"/>
<polygon fill="#63b8ff" stroke="#63b8ff" points="2872.78,-231.76 2882.8,-228.31 2872.81,-224.76 2872.78,-231.76"/>
</g>
<!-- Node3 -->
<g id="node3" class="node">
<title>Node3</title>
<g id="a_node3"><a xlink:href="AudioClip_8cpp.html" target="_top" xlink:title=" ">
<polygon fill="white" stroke="#666666" points="166,-184 83,-184 83,-165 166,-165 166,-184"/>
<text text-anchor="middle" x="124.5" y="-172" font-family="Helvetica,sans-Serif" font-size="10.00">AudioClip.cpp</text>
</a>
</g>
</g>
<!-- Node1&#45;&gt;Node3 -->
<g id="edge2" class="edge">
<title>Node1&#45;&gt;Node3</title>
<path fill="none" stroke="#63b8ff" d="M2872.6,-228.74C2528.88,-229.99 726.08,-234.05 175.5,-184 172.46,-183.72 169.33,-183.37 166.18,-182.97"/>
<polygon fill="#63b8ff" stroke="#63b8ff" points="2872.82,-232.24 2882.81,-228.7 2872.8,-225.24 2872.82,-232.24"/>
</g>
<!-- Node4 -->
<g id="node4" class="node">
<title>Node4</title>
<g id="a_node4"><a xlink:href="AudioOneShot_8cpp.html" target="_top" xlink:title=" ">
<polygon fill="white" stroke="#666666" points="290.5,-184 184.5,-184 184.5,-165 290.5,-165 290.5,-184"/>
<text text-anchor="middle" x="237.5" y="-172" font-family="Helvetica,sans-Serif" font-size="10.00">AudioOneShot.cpp</text>
</a>
</g>
</g>
<!-- Node1&#45;&gt;Node4 -->
<g id="edge3" class="edge">
<title>Node1&#45;&gt;Node4</title>
<path fill="none" stroke="#63b8ff" d="M2872.56,-228.46C2537.99,-228.1 824.54,-224.29 299.5,-184 296.58,-183.78 293.58,-183.5 290.56,-183.2"/>
<polygon fill="#63b8ff" stroke="#63b8ff" points="2872.97,-231.96 2882.97,-228.47 2872.97,-224.96 2872.97,-231.96"/>
</g>
<!-- Node5 -->
<g id="node5" class="node">
<title>Node5</title>
<g id="a_node5"><a xlink:href="AudioPlayer_8cpp.html" target="_top" xlink:title=" ">
<polygon fill="white" stroke="#666666" points="404,-184 309,-184 309,-165 404,-165 404,-184"/>
<text text-anchor="middle" x="356.5" y="-172" font-family="Helvetica,sans-Serif" font-size="10.00">AudioPlayer.cpp</text>
</a>
</g>
</g>
<!-- Node1&#45;&gt;Node5 -->
<g id="edge4" class="edge">
<title>Node1&#45;&gt;Node5</title>
<path fill="none" stroke="#63b8ff" d="M2872.39,-228.52C2545.96,-228.5 913.33,-226.25 412.5,-184 409.76,-183.77 406.94,-183.49 404.11,-183.17"/>
<polygon fill="#63b8ff" stroke="#63b8ff" points="2872.56,-232.02 2882.56,-228.52 2872.56,-225.02 2872.56,-232.02"/>
</g>
<!-- Node6 -->
<g id="node6" class="node">
<title>Node6</title>
<g id="a_node6"><a xlink:href="CameraResource_8cpp.html" target="_top" xlink:title=" ">
<polygon fill="white" stroke="#666666" points="2932.5,-129 2812.5,-129 2812.5,-110 2932.5,-110 2932.5,-129"/>
<text text-anchor="middle" x="2872.5" y="-117" font-family="Helvetica,sans-Serif" font-size="10.00">CameraResource.cpp</text>
</a>
</g>
</g>
<!-- Node1&#45;&gt;Node6 -->
<g id="edge5" class="edge">
<title>Node1&#45;&gt;Node6</title>
<path fill="none" stroke="#63b8ff" d="M2915.49,-211.92C2909.13,-203.85 2901.85,-193.8 2896.5,-184 2886.33,-165.38 2878.6,-141.55 2874.9,-129.04"/>
<polygon fill="#63b8ff" stroke="#63b8ff" points="2912.87,-214.25 2921.9,-219.79 2918.3,-209.83 2912.87,-214.25"/>
</g>
<!-- Node7 -->
<g id="node7" class="node">
<title>Node7</title>
<g id="a_node7"><a xlink:href="CommandHistory_8cpp.html" target="_top" xlink:title=" ">
<polygon fill="white" stroke="#666666" points="3388,-184 3267,-184 3267,-165 3388,-165 3388,-184"/>
<text text-anchor="middle" x="3327.5" y="-172" font-family="Helvetica,sans-Serif" font-size="10.00">CommandHistory.cpp</text>
</a>
</g>
</g>
<!-- Node1&#45;&gt;Node7 -->
<g id="edge6" class="edge">
<title>Node1&#45;&gt;Node7</title>
<path fill="none" stroke="#63b8ff" d="M2986.45,-220.92C3060.88,-211 3190.71,-193.72 3266.9,-183.57"/>
<polygon fill="#63b8ff" stroke="#63b8ff" points="2985.78,-217.47 2976.33,-222.26 2986.7,-224.41 2985.78,-217.47"/>
</g>
<!-- Node8 -->
<g id="node8" class="node">
<title>Node8</title>
<g id="a_node8"><a xlink:href="DXGIResource_8cpp.html" target="_top" xlink:title=" ">
<polygon fill="white" stroke="#666666" points="3302,-19 3195,-19 3195,0 3302,0 3302,-19"/>
<text text-anchor="middle" x="3248.5" y="-7" font-family="Helvetica,sans-Serif" font-size="10.00">DXGIResource.cpp</text>
</a>
</g>
</g>
<!-- Node1&#45;&gt;Node8 -->
<g id="edge7" class="edge">
<title>Node1&#45;&gt;Node8</title>
<path fill="none" stroke="#63b8ff" d="M2986.46,-224.84C3045.78,-219.86 3140.84,-208.57 3219.5,-184 3237.9,-178.25 3240.16,-170.95 3258.5,-165 3346.49,-136.46 3404.01,-199.84 3463.5,-129 3514,-68.86 3380.44,-33.91 3301.6,-19.04"/>
<polygon fill="#63b8ff" stroke="#63b8ff" points="2985.86,-221.38 2976.18,-225.67 2986.43,-228.35 2985.86,-221.38"/>
</g>
<!-- Node9 -->
<g id="node9" class="node">
<title>Node9</title>
<g id="a_node9"><a xlink:href="Direct2D_8cpp.html" target="_top" xlink:title=" ">
<polygon fill="white" stroke="#666666" points="3486.5,-184 3406.5,-184 3406.5,-165 3486.5,-165 3486.5,-184"/>
<text text-anchor="middle" x="3446.5" y="-172" font-family="Helvetica,sans-Serif" font-size="10.00">Direct2D.cpp</text>
</a>
</g>
</g>
<!-- Node1&#45;&gt;Node9 -->
<g id="edge8" class="edge">
<title>Node1&#45;&gt;Node9</title>
<path fill="none" stroke="#63b8ff" d="M2986.19,-224.52C3074.38,-218.02 3249.66,-203.82 3397.5,-184 3400.41,-183.61 3403.41,-183.17 3406.43,-182.71"/>
<polygon fill="#63b8ff" stroke="#63b8ff" points="2985.85,-221.04 2976.13,-225.26 2986.36,-228.02 2985.85,-221.04"/>
</g>
<!-- Node10 -->
<g id="node10" class="node">
<title>Node10</title>
<g id="a_node10"><a xlink:href="Direct3DResource_8cpp.html" target="_top" xlink:title=" ">
<polygon fill="white" stroke="#666666" points="3630,-184 3505,-184 3505,-165 3630,-165 3630,-184"/>
<text text-anchor="middle" x="3567.5" y="-172" font-family="Helvetica,sans-Serif" font-size="10.00">Direct3DResource.cpp</text>
</a>
</g>
</g>
<!-- Node1&#45;&gt;Node10 -->
<g id="edge9" class="edge">
<title>Node1&#45;&gt;Node10</title>
<path fill="none" stroke="#63b8ff" d="M2986.23,-224.78C3088.24,-217.92 3309.38,-202.3 3495.5,-184 3498.51,-183.7 3501.58,-183.39 3504.69,-183.06"/>
<polygon fill="#63b8ff" stroke="#63b8ff" points="2985.89,-221.29 2976.14,-225.45 2986.36,-228.28 2985.89,-221.29"/>
</g>
<!-- Node11 -->
<g id="node11" class="node">
<title>Node11</title>
<g id="a_node11"><a xlink:href="DirectWrite_8h.html" target="_top" xlink:title=" ">
<polygon fill="white" stroke="#666666" points="503,-184 422,-184 422,-165 503,-165 503,-184"/>
<text text-anchor="middle" x="462.5" y="-172" font-family="Helvetica,sans-Serif" font-size="10.00">DirectWrite.h</text>
</a>
</g>
</g>
<!-- Node1&#45;&gt;Node11 -->
<g id="edge10" class="edge">
<title>Node1&#45;&gt;Node11</title>
<path fill="none" stroke="#63b8ff" d="M2872.27,-228.49C2553.69,-228.3 996.11,-225.21 517.5,-184 512.88,-183.6 508.06,-183.05 503.27,-182.43"/>
<polygon fill="#63b8ff" stroke="#63b8ff" points="2872.64,-231.99 2882.64,-228.5 2872.64,-224.99 2872.64,-231.99"/>
</g>
<!-- Node13 -->
<g id="node13" class="node">
<title>Node13</title>
<g id="a_node13"><a xlink:href="DirectX11Draw_8cpp.html" target="_top" xlink:title=" ">
<polygon fill="white" stroke="#666666" points="541.5,-129 431.5,-129 431.5,-110 541.5,-110 541.5,-129"/>
<text text-anchor="middle" x="486.5" y="-117" font-family="Helvetica,sans-Serif" font-size="10.00">DirectX11Draw.cpp</text>
</a>
</g>
</g>
<!-- Node1&#45;&gt;Node13 -->
<g id="edge20" class="edge">
<title>Node1&#45;&gt;Node13</title>
<path fill="none" stroke="#63b8ff" d="M2872.76,-228.57C2522.54,-228.89 666.35,-228.45 555.5,-184 527.09,-172.61 503.2,-143.7 492.51,-129.15"/>
<polygon fill="#63b8ff" stroke="#63b8ff" points="2872.92,-232.07 2882.91,-228.56 2872.91,-225.07 2872.92,-232.07"/>
</g>
<!-- Node14 -->
<g id="node14" class="node">
<title>Node14</title>
<g id="a_node14"><a xlink:href="Draw_8cpp.html" target="_top" xlink:title=" ">
<polygon fill="white" stroke="#666666" points="558.5,-74 496.5,-74 496.5,-55 558.5,-55 558.5,-74"/>
<text text-anchor="middle" x="527.5" y="-62" font-family="Helvetica,sans-Serif" font-size="10.00">Draw.cpp</text>
</a>
</g>
</g>
<!-- Node1&#45;&gt;Node14 -->
<g id="edge22" class="edge">
<title>Node1&#45;&gt;Node14</title>
<path fill="none" stroke="#63b8ff" d="M2872.64,-228.13C2592.28,-226.16 1355.19,-215.79 971.5,-184 800.12,-169.8 741.5,-207.5 588.5,-129 563.2,-116.02 542.46,-88.38 533.01,-74.24"/>
<polygon fill="#63b8ff" stroke="#63b8ff" points="2872.95,-231.63 2882.98,-228.2 2873,-224.63 2872.95,-231.63"/>
</g>
<!-- Node58 -->
<g id="node18" class="node">
<title>Node58</title>
<g id="a_node18"><a xlink:href="DirectX11Manager_8cpp.html" target="_top" xlink:title=" ">
<polygon fill="white" stroke="#666666" points="725,-129 598,-129 598,-110 725,-110 725,-129"/>
<text text-anchor="middle" x="661.5" y="-117" font-family="Helvetica,sans-Serif" font-size="10.00">DirectX11Manager.cpp</text>
</a>
</g>
</g>
<!-- Node1&#45;&gt;Node58 -->
<g id="edge21" class="edge">
<title>Node1&#45;&gt;Node58</title>
<path fill="none" stroke="#63b8ff" d="M2872.75,-227.88C2608.42,-224.87 1496.22,-210.82 1149.5,-184 989.78,-171.65 802.24,-143.32 713.32,-129.05"/>
<polygon fill="#63b8ff" stroke="#63b8ff" points="2872.85,-231.38 2882.89,-227.99 2872.93,-224.38 2872.85,-231.38"/>
</g>
<!-- Node59 -->
<g id="node19" class="node">
<title>Node59</title>
<g id="a_node19"><a xlink:href="EventManager_8cpp.html" target="_top" xlink:title=" ">
<polygon fill="white" stroke="#666666" points="2392,-129 2285,-129 2285,-110 2392,-110 2392,-129"/>
<text text-anchor="middle" x="2338.5" y="-117" font-family="Helvetica,sans-Serif" font-size="10.00">EventManager.cpp</text>
</a>
</g>
</g>
<!-- Node1&#45;&gt;Node59 -->
<g id="edge23" class="edge">
<title>Node1&#45;&gt;Node59</title>
<path fill="none" stroke="#63b8ff" d="M2872.5,-218.08C2756.02,-196.8 2492.71,-148.68 2385.37,-129.07"/>
<polygon fill="#63b8ff" stroke="#63b8ff" points="2872.16,-221.58 2882.63,-219.94 2873.42,-214.69 2872.16,-221.58"/>
</g>
<!-- Node60 -->
<g id="node20" class="node">
<title>Node60</title>
<g id="a_node20"><a xlink:href="Fbx_8cpp.html" target="_top" xlink:title=" ">
<polygon fill="white" stroke="#666666" points="3703,-184 3648,-184 3648,-165 3703,-165 3703,-184"/>
<text text-anchor="middle" x="3675.5" y="-172" font-family="Helvetica,sans-Serif" font-size="10.00">Fbx.cpp</text>
</a>
</g>
</g>
<!-- Node1&#45;&gt;Node60 -->
<g id="edge24" class="edge">
<title>Node1&#45;&gt;Node60</title>
<path fill="none" stroke="#63b8ff" d="M2986.44,-228.19C3107.38,-226.82 3398.52,-219.74 3639.5,-184 3642.17,-183.6 3644.93,-183.11 3647.68,-182.56"/>
<polygon fill="#63b8ff" stroke="#63b8ff" points="2986.27,-224.69 2976.31,-228.3 2986.34,-231.69 2986.27,-224.69"/>
</g>
<!-- Node61 -->
<g id="node21" class="node">
<title>Node61</title>
<g id="a_node21"><a xlink:href="FbxModel_8cpp.html" target="_top" xlink:title=" ">
<polygon fill="white" stroke="#666666" points="3806,-184 3721,-184 3721,-165 3806,-165 3806,-184"/>
<text text-anchor="middle" x="3763.5" y="-172" font-family="Helvetica,sans-Serif" font-size="10.00">FbxModel.cpp</text>
</a>
</g>
</g>
<!-- Node1&#45;&gt;Node61 -->
<g id="edge25" class="edge">
<title>Node1&#45;&gt;Node61</title>
<path fill="none" stroke="#63b8ff" d="M2986.5,-227.38C3115.92,-224.36 3441.75,-214.17 3712.5,-184 3715.27,-183.69 3718.11,-183.33 3720.97,-182.94"/>
<polygon fill="#63b8ff" stroke="#63b8ff" points="2986.34,-223.88 2976.42,-227.61 2986.5,-230.88 2986.34,-223.88"/>
</g>
<!-- Node62 -->
<g id="node22" class="node">
<title>Node62</title>
<g id="a_node22"><a xlink:href="FbxParts_8cpp.html" target="_top" xlink:title=" ">
<polygon fill="white" stroke="#666666" points="822,-129 743,-129 743,-110 822,-110 822,-129"/>
<text text-anchor="middle" x="782.5" y="-117" font-family="Helvetica,sans-Serif" font-size="10.00">FbxParts.cpp</text>
</a>
</g>
</g>
<!-- Node1&#45;&gt;Node62 -->
<g id="edge26" class="edge">
<title>Node1&#45;&gt;Node62</title>
<path fill="none" stroke="#63b8ff" d="M2872.73,-227.93C2676.61,-225.73 2009.46,-216.19 1459.5,-184 1177.59,-167.5 1106.18,-168.06 826.5,-129 825.11,-128.81 823.7,-128.6 822.28,-128.38"/>
<polygon fill="#63b8ff" stroke="#63b8ff" points="2872.77,-231.43 2882.8,-228.04 2872.84,-224.43 2872.77,-231.43"/>
</g>
<!-- Node63 -->
<g id="node23" class="node">
<title>Node63</title>
<g id="a_node23"><a xlink:href="Game_8h.html" target="_top" xlink:title=" ">
<polygon fill="#fff0f0" stroke="red" points="1524,-184 1469,-184 1469,-165 1524,-165 1524,-184"/>
<text text-anchor="middle" x="1496.5" y="-172" font-family="Helvetica,sans-Serif" font-size="10.00">Game.h</text>
</a>
</g>
</g>
<!-- Node1&#45;&gt;Node63 -->
<g id="edge27" class="edge">
<title>Node1&#45;&gt;Node63</title>
<path fill="none" stroke="#63b8ff" d="M2872.32,-226.39C2630.52,-217.44 1696.59,-182.9 1524.01,-176.52"/>
<polygon fill="#63b8ff" stroke="#63b8ff" points="2872.51,-229.89 2882.64,-226.77 2872.77,-222.9 2872.51,-229.89"/>
</g>
<!-- Node182 -->
<g id="node39" class="node">
<title>Node182</title>
<g id="a_node39"><a xlink:href="Input_8cpp.html" target="_top" xlink:title=" ">
<polygon fill="white" stroke="#666666" points="2103.5,-129 2041.5,-129 2041.5,-110 2103.5,-110 2103.5,-129"/>
<text text-anchor="middle" x="2072.5" y="-117" font-family="Helvetica,sans-Serif" font-size="10.00">Input.cpp</text>
</a>
</g>
</g>
<!-- Node1&#45;&gt;Node182 -->
<g id="edge56" class="edge">
<title>Node1&#45;&gt;Node182</title>
<path fill="none" stroke="#63b8ff" d="M2872.8,-223.33C2739.59,-210.82 2396.5,-176.37 2112.5,-129 2109.7,-128.53 2106.8,-128 2103.89,-127.44"/>
<polygon fill="#63b8ff" stroke="#63b8ff" points="2872.49,-226.82 2882.77,-224.27 2873.14,-219.85 2872.49,-226.82"/>
</g>
<!-- Node119 -->
<g id="node40" class="node">
<title>Node119</title>
<g id="a_node40"><a xlink:href="Ground_8cpp.html" target="_top" xlink:title=" ">
<polygon fill="white" stroke="#666666" points="3896.5,-184 3824.5,-184 3824.5,-165 3896.5,-165 3896.5,-184"/>
<text text-anchor="middle" x="3860.5" y="-172" font-family="Helvetica,sans-Serif" font-size="10.00">Ground.cpp</text>
</a>
</g>
</g>
<!-- Node1&#45;&gt;Node119 -->
<g id="edge53" class="edge">
<title>Node1&#45;&gt;Node119</title>
<path fill="none" stroke="#63b8ff" d="M2986.42,-228.33C3127.42,-227.32 3504.04,-221.06 3815.5,-184 3818.34,-183.66 3821.27,-183.25 3824.22,-182.79"/>
<polygon fill="#63b8ff" stroke="#63b8ff" points="2986.26,-224.83 2976.28,-228.39 2986.3,-231.83 2986.26,-224.83"/>
</g>
<!-- Node160 -->
<g id="node41" class="node">
<title>Node160</title>
<g id="a_node41"><a xlink:href="IShader_8cpp.html" target="_top" xlink:title=" ">
<polygon fill="white" stroke="#666666" points="3024,-129 2951,-129 2951,-110 3024,-110 3024,-129"/>
<text text-anchor="middle" x="2987.5" y="-117" font-family="Helvetica,sans-Serif" font-size="10.00">IShader.cpp</text>
</a>
</g>
</g>
<!-- Node1&#45;&gt;Node160 -->
<g id="edge54" class="edge">
<title>Node1&#45;&gt;Node160</title>
<path fill="none" stroke="#63b8ff" d="M2927.27,-209.46C2926.59,-196.27 2927.45,-178.69 2934.5,-165 2942.64,-149.19 2959.08,-136.79 2971.51,-129.14"/>
<polygon fill="#63b8ff" stroke="#63b8ff" points="2923.81,-210.05 2928.15,-219.71 2930.78,-209.45 2923.81,-210.05"/>
</g>
<!-- Node134 -->
<g id="node42" class="node">
<title>Node134</title>
<g id="a_node42"><a xlink:href="ImGuiEditor_8cpp.html" target="_top" xlink:title=" ">
<polygon fill="white" stroke="#666666" points="3136.5,-129 3042.5,-129 3042.5,-110 3136.5,-110 3136.5,-129"/>
<text text-anchor="middle" x="3089.5" y="-117" font-family="Helvetica,sans-Serif" font-size="10.00">ImGuiEditor.cpp</text>
</a>
</g>
</g>
<!-- Node1&#45;&gt;Node134 -->
<g id="edge55" class="edge">
<title>Node1&#45;&gt;Node134</title>
<path fill="none" stroke="#63b8ff" d="M2937.74,-210.68C2945.08,-196.56 2957.04,-177.23 2972.5,-165 2995.16,-147.06 3025.86,-135.75 3050.12,-129.02"/>
<polygon fill="#63b8ff" stroke="#63b8ff" points="2934.5,-209.35 2933.23,-219.86 2940.78,-212.43 2934.5,-209.35"/>
</g>
<!-- Node143 -->
<g id="node43" class="node">
<title>Node143</title>
<g id="a_node43"><a xlink:href="InputResource_8cpp.html" target="_top" xlink:title=" ">
<polygon fill="white" stroke="#666666" points="4022,-184 3915,-184 3915,-165 4022,-165 4022,-184"/>
<text text-anchor="middle" x="3968.5" y="-172" font-family="Helvetica,sans-Serif" font-size="10.00">InputResource.cpp</text>
</a>
</g>
</g>
<!-- Node1&#45;&gt;Node143 -->
<g id="edge57" class="edge">
<title>Node1&#45;&gt;Node143</title>
<path fill="none" stroke="#63b8ff" d="M2986.7,-227.66C3137.35,-225.07 3557.4,-215.36 3905.5,-184 3908.58,-183.72 3911.74,-183.4 3914.92,-183.06"/>
<polygon fill="#63b8ff" stroke="#63b8ff" points="2986.27,-224.17 2976.33,-227.83 2986.39,-231.17 2986.27,-224.17"/>
</g>
<!-- Node121 -->
<g id="node44" class="node">
<title>Node121</title>
<g id="a_node44"><a xlink:href="OBJ_8cpp.html" target="_top" xlink:title=" ">
<polygon fill="white" stroke="#666666" points="3208.5,-129 3154.5,-129 3154.5,-110 3208.5,-110 3208.5,-129"/>
<text text-anchor="middle" x="3181.5" y="-117" font-family="Helvetica,sans-Serif" font-size="10.00">OBJ.cpp</text>
</a>
</g>
</g>
<!-- Node1&#45;&gt;Node121 -->
<g id="edge58" class="edge">
<title>Node1&#45;&gt;Node121</title>
<path fill="none" stroke="#63b8ff" d="M2945.71,-212.46C2961.14,-198.04 2985.64,-177.31 3010.5,-165 3023.42,-158.6 3109.59,-137.6 3154.45,-126.9"/>
<polygon fill="#63b8ff" stroke="#63b8ff" points="2942.93,-210.27 2938.13,-219.72 2947.77,-215.33 2942.93,-210.27"/>
</g>
<!-- Node197 -->
<g id="node45" class="node">
<title>Node197</title>
<g id="a_node45"><a xlink:href="RenderSystem_8h.html" target="_top" xlink:title=" ">
<polygon fill="#fff0f0" stroke="red" points="2910,-74 2813,-74 2813,-55 2910,-55 2910,-74"/>
<text text-anchor="middle" x="2861.5" y="-62" font-family="Helvetica,sans-Serif" font-size="10.00">RenderSystem.h</text>
</a>
</g>
</g>
<!-- Node1&#45;&gt;Node197 -->
<g id="edge59" class="edge">
<title>Node1&#45;&gt;Node197</title>
<path fill="none" stroke="#63b8ff" d="M2954.81,-215.03C2970.68,-206.43 2991.48,-194.9 3009.5,-184 3022.69,-176.03 3024.24,-170.85 3038.5,-165 3115.5,-133.42 3272.77,-172.22 3217.5,-110 3172.47,-59.3 2981.66,-83.37 2914.5,-74 2913.02,-73.79 2911.52,-73.58 2910.01,-73.36"/>
<polygon fill="#63b8ff" stroke="#63b8ff" points="2952.78,-212.15 2945.63,-219.97 2956.1,-218.31 2952.78,-212.15"/>
</g>
<!-- Node198 -->
<g id="node46" class="node">
<title>Node198</title>
<g id="a_node46"><a xlink:href="ResourceCollection_8h.html" target="_top" xlink:title=" ">
<polygon fill="#fff0f0" stroke="red" points="3210,-184 3091,-184 3091,-165 3210,-165 3210,-184"/>
<text text-anchor="middle" x="3150.5" y="-172" font-family="Helvetica,sans-Serif" font-size="10.00">ResourceCollection.h</text>
</a>
</g>
</g>
<!-- Node1&#45;&gt;Node198 -->
<g id="edge61" class="edge">
<title>Node1&#45;&gt;Node198</title>
<path fill="none" stroke="#63b8ff" d="M2974.84,-217.63C3016.24,-207.7 3076.62,-193.22 3114.71,-184.08"/>
<polygon fill="#63b8ff" stroke="#63b8ff" points="2973.92,-214.25 2965.01,-219.98 2975.55,-221.06 2973.92,-214.25"/>
</g>
<!-- Node200 -->
<g id="node47" class="node">
<title>Node200</title>
<g id="a_node47"><a xlink:href="WindowContextResourceManager_8h.html" target="_top" xlink:title=" ">
<polygon fill="#fff0f0" stroke="red" points="3454.5,-129 3264.5,-129 3264.5,-110 3454.5,-110 3454.5,-129"/>
<text text-anchor="middle" x="3359.5" y="-117" font-family="Helvetica,sans-Serif" font-size="10.00">WindowContextResourceManager.h</text>
</a>
</g>
</g>
<!-- Node1&#45;&gt;Node200 -->
<g id="edge78" class="edge">
<title>Node1&#45;&gt;Node200</title>
<path fill="none" stroke="#63b8ff" d="M2960.29,-216.12C2982.16,-207.28 3012.19,-195.05 3038.5,-184 3058.14,-175.75 3062.05,-170.96 3082.5,-165 3144.34,-146.98 3216.22,-135.71 3271.25,-129.01"/>
<polygon fill="#63b8ff" stroke="#63b8ff" points="2958.82,-212.94 2950.86,-219.93 2961.44,-219.43 2958.82,-212.94"/>
</g>
<!-- Node202 -->
<g id="node48" class="node">
<title>Node202</title>
<g id="a_node48"><a xlink:href="SceneSystem_8h.html" target="_top" xlink:title=" ">
<polygon fill="#fff0f0" stroke="red" points="2837.5,-184 2745.5,-184 2745.5,-165 2837.5,-165 2837.5,-184"/>
<text text-anchor="middle" x="2791.5" y="-172" font-family="Helvetica,sans-Serif" font-size="10.00">SceneSystem.h</text>
</a>
</g>
</g>
<!-- Node1&#45;&gt;Node202 -->
<g id="edge66" class="edge">
<title>Node1&#45;&gt;Node202</title>
<path fill="none" stroke="#63b8ff" d="M2897.71,-216.29C2872.13,-206.47 2836.83,-192.91 2814.08,-184.17"/>
<polygon fill="#63b8ff" stroke="#63b8ff" points="2896.74,-219.67 2907.33,-219.98 2899.25,-213.13 2896.74,-219.67"/>
</g>
<!-- Node189 -->
<g id="node49" class="node">
<title>Node189</title>
<g id="a_node49"><a xlink:href="Texture2D_8cpp.html" target="_top" xlink:title=" ">
<polygon fill="white" stroke="#666666" points="4126.5,-184 4040.5,-184 4040.5,-165 4126.5,-165 4126.5,-184"/>
<text text-anchor="middle" x="4083.5" y="-172" font-family="Helvetica,sans-Serif" font-size="10.00">Texture2D.cpp</text>
</a>
</g>
</g>
<!-- Node1&#45;&gt;Node189 -->
<g id="edge76" class="edge">
<title>Node1&#45;&gt;Node189</title>
<path fill="none" stroke="#63b8ff" d="M2986.38,-228.64C3149.51,-228.52 3632.83,-224.48 4031.5,-184 4034.41,-183.7 4037.41,-183.35 4040.42,-182.96"/>
<polygon fill="#63b8ff" stroke="#63b8ff" points="2986.1,-225.14 2976.1,-228.64 2986.1,-232.14 2986.1,-225.14"/>
</g>
<!-- Node204 -->
<g id="node50" class="node">
<title>Node204</title>
<g id="a_node50"><a xlink:href="WaveData_8cpp.html" target="_top" xlink:title=" ">
<polygon fill="white" stroke="#666666" points="4232,-184 4145,-184 4145,-165 4232,-165 4232,-184"/>
<text text-anchor="middle" x="4188.5" y="-172" font-family="Helvetica,sans-Serif" font-size="10.00">WaveData.cpp</text>
</a>
</g>
</g>
<!-- Node1&#45;&gt;Node204 -->
<g id="edge77" class="edge">
<title>Node1&#45;&gt;Node204</title>
<path fill="none" stroke="#63b8ff" d="M2986.35,-228.86C3159.36,-229.44 3694.64,-227.32 4135.5,-184 4138.56,-183.7 4141.71,-183.33 4144.88,-182.93"/>
<polygon fill="#63b8ff" stroke="#63b8ff" points="2986.21,-225.36 2976.2,-228.82 2986.19,-232.36 2986.21,-225.36"/>
</g>
<!-- Node12 -->
<g id="node12" class="node">
<title>Node12</title>
<g id="a_node12"><a xlink:href="DirectWrite_8cpp.html" target="_top" xlink:title=" ">
<polygon fill="white" stroke="#666666" points="243.5,-129 151.5,-129 151.5,-110 243.5,-110 243.5,-129"/>
<text text-anchor="middle" x="197.5" y="-117" font-family="Helvetica,sans-Serif" font-size="10.00">DirectWrite.cpp</text>
</a>
</g>
</g>
<!-- Node11&#45;&gt;Node12 -->
<g id="edge11" class="edge">
<title>Node11&#45;&gt;Node12</title>
<path fill="none" stroke="#63b8ff" d="M412.06,-163.41C362.32,-153.46 287.12,-138.42 240.23,-129.05"/>
<polygon fill="#63b8ff" stroke="#63b8ff" points="411.47,-166.86 421.96,-165.39 412.84,-160 411.47,-166.86"/>
</g>
<!-- Node11&#45;&gt;Node13 -->
<g id="edge12" class="edge">
<title>Node11&#45;&gt;Node13</title>
<path fill="none" stroke="#63b8ff" d="M470.64,-155.53C474.68,-146.6 479.38,-136.22 482.61,-129.09"/>
<polygon fill="#63b8ff" stroke="#63b8ff" points="467.4,-154.19 466.46,-164.75 473.78,-157.08 467.4,-154.19"/>
</g>
<!-- Node11&#45;&gt;Node14 -->
<g id="edge13" class="edge">
<title>Node11&#45;&gt;Node14</title>
<path fill="none" stroke="#63b8ff" d="M442.36,-158.5C427.51,-145.56 411.63,-126.41 422.5,-110 438.79,-85.4 471.69,-74.37 496.34,-69.43"/>
<polygon fill="#63b8ff" stroke="#63b8ff" points="440.36,-161.39 450.33,-165 444.79,-155.97 440.36,-161.39"/>
</g>
<!-- Node15 -->
<g id="node15" class="node">
<title>Node15</title>
<g id="a_node15"><a xlink:href="TextCache_8cpp.html" target="_top" xlink:title=" ">
<polygon fill="white" stroke="#666666" points="348,-74 261,-74 261,-55 348,-55 348,-74"/>
<text text-anchor="middle" x="304.5" y="-62" font-family="Helvetica,sans-Serif" font-size="10.00">TextCache.cpp</text>
</a>
</g>
</g>
<!-- Node11&#45;&gt;Node15 -->
<g id="edge14" class="edge">
<title>Node11&#45;&gt;Node15</title>
<path fill="none" stroke="#63b8ff" d="M411.78,-163.64C363.82,-153.81 298.08,-138.79 290.5,-129 277.92,-112.75 290.3,-87.51 298.51,-74.28"/>
<polygon fill="#63b8ff" stroke="#63b8ff" points="411.22,-167.1 421.72,-165.66 412.62,-160.24 411.22,-167.1"/>
</g>
<!-- Node16 -->
<g id="node16" class="node">
<title>Node16</title>
<g id="a_node16"><a xlink:href="TextCache_8h.html" target="_top" xlink:title=" ">
<polygon fill="white" stroke="#666666" points="375.5,-129 299.5,-129 299.5,-110 375.5,-110 375.5,-129"/>
<text text-anchor="middle" x="337.5" y="-117" font-family="Helvetica,sans-Serif" font-size="10.00">TextCache.h</text>
</a>
</g>
</g>
<!-- Node11&#45;&gt;Node16 -->
<g id="edge15" class="edge">
<title>Node11&#45;&gt;Node16</title>
<path fill="none" stroke="#63b8ff" d="M433.09,-161.03C409.97,-151.23 378.37,-137.83 357.95,-129.17"/>
<polygon fill="#63b8ff" stroke="#63b8ff" points="431.84,-164.3 442.42,-164.98 434.58,-157.86 431.84,-164.3"/>
</g>
<!-- Node17 -->
<g id="node17" class="node">
<title>Node17</title>
<g id="a_node17"><a xlink:href="mtgb_8h.html" target="_top" xlink:title=" ">
<polygon fill="#fff0f0" stroke="red" points="1943,-19 1892,-19 1892,0 1943,0 1943,-19"/>
<text text-anchor="middle" x="1917.5" y="-7" font-family="Helvetica,sans-Serif" font-size="10.00">mtgb.h</text>
</a>
</g>
</g>
<!-- Node11&#45;&gt;Node17 -->
<g id="edge19" class="edge">
<title>Node11&#45;&gt;Node17</title>
<path fill="none" stroke="#63b8ff" d="M411.49,-165.17C336.98,-157.53 180.5,-172.41 142.5,-129 136.94,-122.65 138.07,-117.19 142.5,-110 170.94,-63.79 198.88,-68.27 251.5,-55 417.12,-13.24 1694.57,-10.66 1891.93,-10.51"/>
<polygon fill="#63b8ff" stroke="#63b8ff" points="411.5,-168.7 421.86,-166.47 412.37,-161.75 411.5,-168.7"/>
</g>
<!-- Node16&#45;&gt;Node14 -->
<g id="edge16" class="edge">
<title>Node16&#45;&gt;Node14</title>
<path fill="none" stroke="#63b8ff" d="M378.07,-107.18C413.6,-97.27 464.47,-83.08 496.73,-74.08"/>
<polygon fill="#63b8ff" stroke="#63b8ff" points="376.72,-103.93 368.03,-109.98 378.6,-110.67 376.72,-103.93"/>
</g>
<!-- Node16&#45;&gt;Node15 -->
<g id="edge17" class="edge">
<title>Node16&#45;&gt;Node15</title>
<path fill="none" stroke="#63b8ff" d="M326.67,-101.1C321.03,-92.04 314.38,-81.37 309.85,-74.09"/>
<polygon fill="#63b8ff" stroke="#63b8ff" points="323.79,-103.11 332.05,-109.75 329.74,-99.41 323.79,-103.11"/>
</g>
<!-- Node16&#45;&gt;Node17 -->
<g id="edge18" class="edge">
<title>Node16&#45;&gt;Node17</title>
<path fill="none" stroke="#63b8ff" d="M361.57,-105C390.45,-89.6 440.84,-65.23 487.5,-55 629.74,-23.82 1711.28,-12.42 1891.94,-10.73"/>
<polygon fill="#63b8ff" stroke="#63b8ff" points="359.76,-102 352.64,-109.85 363.09,-108.16 359.76,-102"/>
</g>
<!-- Node63&#45;&gt;Node14 -->
<g id="edge37" class="edge">
<title>Node63&#45;&gt;Node14</title>
<path fill="none" stroke="#63b8ff" d="M1458.61,-172.21C1342.32,-168 991.67,-153.58 880.5,-129 857.29,-123.87 853.51,-115.98 830.5,-110 733.25,-84.7 614.44,-72.5 558.92,-67.85"/>
<polygon fill="#63b8ff" stroke="#63b8ff" points="1458.68,-175.71 1468.8,-172.57 1458.93,-168.71 1458.68,-175.71"/>
</g>
<!-- Node63&#45;&gt;Node17 -->
<g id="edge52" class="edge">
<title>Node63&#45;&gt;Node17</title>
<path fill="none" stroke="#63b8ff" d="M1458.35,-171.83C1336.39,-166.29 962.91,-147.87 945.5,-129 939.77,-122.79 939.84,-116.27 945.5,-110 1010.94,-37.52 1744.96,-14.93 1891.96,-11.12"/>
<polygon fill="#63b8ff" stroke="#63b8ff" points="1458.54,-175.34 1468.69,-172.29 1458.85,-168.35 1458.54,-175.34"/>
</g>
<!-- Node63&#45;&gt;Node58 -->
<g id="edge35" class="edge">
<title>Node63&#45;&gt;Node58</title>
<path fill="none" stroke="#63b8ff" d="M1458.68,-172.09C1347.38,-167.76 1011.36,-153.48 733.5,-129 730.74,-128.76 727.93,-128.49 725.08,-128.21"/>
<polygon fill="#63b8ff" stroke="#63b8ff" points="1458.61,-175.59 1468.74,-172.48 1458.88,-168.59 1458.61,-175.59"/>
</g>
<!-- Node63&#45;&gt;Node59 -->
<g id="edge41" class="edge">
<title>Node63&#45;&gt;Node59</title>
<path fill="none" stroke="#63b8ff" d="M1534.35,-172.37C1647.24,-168.79 1991.38,-156.24 2275.5,-129 2278.58,-128.71 2281.73,-128.37 2284.92,-128.02"/>
<polygon fill="#63b8ff" stroke="#63b8ff" points="1534.04,-168.88 1524.16,-172.69 1534.26,-175.88 1534.04,-168.88"/>
</g>
<!-- Node63&#45;&gt;Node62 -->
<g id="edge42" class="edge">
<title>Node63&#45;&gt;Node62</title>
<path fill="none" stroke="#63b8ff" d="M1458.72,-172.13C1357.59,-168.2 1072.38,-155.46 836.5,-129 831.88,-128.48 827.05,-127.85 822.26,-127.17"/>
<polygon fill="#63b8ff" stroke="#63b8ff" points="1458.63,-175.63 1468.76,-172.51 1458.9,-168.63 1458.63,-175.63"/>
</g>
<!-- Node64 -->
<g id="node24" class="node">
<title>Node64</title>
<g id="a_node24"><a xlink:href="AddComponentCommandGeneric_8h.html" target="_top" xlink:title=" ">
<polygon fill="#fff0f0" stroke="red" points="1985.5,-129 1797.5,-129 1797.5,-110 1985.5,-110 1985.5,-129"/>
<text text-anchor="middle" x="1891.5" y="-117" font-family="Helvetica,sans-Serif" font-size="10.00">AddComponentCommandGeneric.h</text>
</a>
</g>
</g>
<!-- Node63&#45;&gt;Node64 -->
<g id="edge28" class="edge">
<title>Node63&#45;&gt;Node64</title>
<path fill="none" stroke="#63b8ff" d="M1534.51,-168.4C1602.42,-159.29 1745.21,-140.13 1828.15,-129"/>
<polygon fill="#63b8ff" stroke="#63b8ff" points="1533.72,-164.97 1524.28,-169.77 1534.65,-171.91 1533.72,-164.97"/>
</g>
<!-- Node116 -->
<g id="node25" class="node">
<title>Node116</title>
<g id="a_node25"><a xlink:href="CircleDetector_8cpp.html" target="_top" xlink:title=" ">
<polygon fill="white" stroke="#666666" points="1060.5,-129 954.5,-129 954.5,-110 1060.5,-110 1060.5,-129"/>
<text text-anchor="middle" x="1007.5" y="-117" font-family="Helvetica,sans-Serif" font-size="10.00">CircleDetector.cpp</text>
</a>
</g>
</g>
<!-- Node63&#45;&gt;Node116 -->
<g id="edge29" class="edge">
<title>Node63&#45;&gt;Node116</title>
<path fill="none" stroke="#63b8ff" d="M1458.62,-169.78C1384.71,-162.45 1216.09,-145.44 1074.5,-129 1069.96,-128.47 1065.24,-127.91 1060.52,-127.33"/>
<polygon fill="#63b8ff" stroke="#63b8ff" points="1458.53,-173.28 1468.83,-170.79 1459.22,-166.32 1458.53,-173.28"/>
</g>
<!-- Node174 -->
<g id="node26" class="node">
<title>Node174</title>
<g id="a_node26"><a xlink:href="DXGIResource_8h.html" target="_top" xlink:title=" ">
<polygon fill="#fff0f0" stroke="red" points="3062,-74 2967,-74 2967,-55 3062,-55 3062,-74"/>
<text text-anchor="middle" x="3014.5" y="-62" font-family="Helvetica,sans-Serif" font-size="10.00">DXGIResource.h</text>
</a>
</g>
</g>
<!-- Node63&#45;&gt;Node174 -->
<g id="edge30" class="edge">
<title>Node63&#45;&gt;Node174</title>
<path fill="none" stroke="#63b8ff" d="M1534.12,-170.19C1584.24,-165.04 1675.24,-153.09 1749.5,-129 1767.84,-123.05 1769.78,-114.63 1788.5,-110 2032.38,-49.65 2667.71,-89.09 2918.5,-74 2934.2,-73.06 2951.31,-71.66 2966.69,-70.27"/>
<polygon fill="#63b8ff" stroke="#63b8ff" points="1533.67,-166.72 1524.06,-171.19 1534.36,-173.69 1533.67,-166.72"/>
</g>
<!-- Node175 -->
<g id="node27" class="node">
<title>Node175</title>
<g id="a_node27"><a xlink:href="Direct2DResource_8cpp.html" target="_top" xlink:title=" ">
<polygon fill="white" stroke="#666666" points="2576,-19 2451,-19 2451,0 2576,0 2576,-19"/>
<text text-anchor="middle" x="2513.5" y="-7" font-family="Helvetica,sans-Serif" font-size="10.00">Direct2DResource.cpp</text>
</a>
</g>
</g>
<!-- Node63&#45;&gt;Node175 -->
<g id="edge34" class="edge">
<title>Node63&#45;&gt;Node175</title>
<path fill="none" stroke="#63b8ff" d="M1534.15,-171.95C1634.73,-167.54 1907.9,-153.56 1994.5,-129 2012.67,-123.85 2014.66,-116.19 2032.5,-110 2177.92,-59.57 2357.4,-30.79 2450.61,-18.2"/>
<polygon fill="#63b8ff" stroke="#63b8ff" points="1533.98,-168.46 1524.14,-172.39 1534.28,-175.45 1533.98,-168.46"/>
</g>
<!-- Node179 -->
<g id="node28" class="node">
<title>Node179</title>
<g id="a_node28"><a xlink:href="DoubleWindow_8cpp.html" target="_top" xlink:title=" ">
<polygon fill="white" stroke="#666666" points="2454.5,-74 2344.5,-74 2344.5,-55 2454.5,-55 2454.5,-74"/>
<text text-anchor="middle" x="2399.5" y="-62" font-family="Helvetica,sans-Serif" font-size="10.00">DoubleWindow.cpp</text>
</a>
</g>
</g>
<!-- Node63&#45;&gt;Node179 -->
<g id="edge36" class="edge">
<title>Node63&#45;&gt;Node179</title>
<path fill="none" stroke="#63b8ff" d="M1458.88,-173.1C1352.02,-171.32 1057.52,-161.73 1107.5,-110 1151.07,-64.91 2103.34,-64.63 2344.42,-65.29"/>
<polygon fill="#63b8ff" stroke="#63b8ff" points="1458.86,-176.6 1468.91,-173.25 1458.96,-169.6 1458.86,-176.6"/>
</g>
<!-- Node180 -->
<g id="node29" class="node">
<title>Node180</title>
<g id="a_node29"><a xlink:href="DrawScreenUtility_8h.html" target="_top" xlink:title=" ">
<polygon fill="white" stroke="#666666" points="898,-74 785,-74 785,-55 898,-55 898,-74"/>
<text text-anchor="middle" x="841.5" y="-62" font-family="Helvetica,sans-Serif" font-size="10.00">DrawScreenUtility.h</text>
</a>
</g>
</g>
<!-- Node63&#45;&gt;Node180 -->
<g id="edge38" class="edge">
<title>Node63&#45;&gt;Node180</title>
<path fill="none" stroke="#63b8ff" d="M1458.61,-172.02C1337.16,-167.1 962.55,-150.33 912.5,-129 884.2,-116.94 859.55,-88.88 848.18,-74.44"/>
<polygon fill="#63b8ff" stroke="#63b8ff" points="1458.77,-175.53 1468.9,-172.44 1459.05,-168.54 1458.77,-175.53"/>
</g>
<!-- Node82 -->
<g id="node30" class="node">
<title>Node82</title>
<g id="a_node30"><a xlink:href="DuplicateGameObjectCommand_8cpp.html" target="_top" xlink:title=" ">
<polygon fill="white" stroke="#666666" points="2604.5,-129 2410.5,-129 2410.5,-110 2604.5,-110 2604.5,-129"/>
<text text-anchor="middle" x="2507.5" y="-117" font-family="Helvetica,sans-Serif" font-size="10.00">DuplicateGameObjectCommand.cpp</text>
</a>
</g>
</g>
<!-- Node63&#45;&gt;Node82 -->
<g id="edge40" class="edge">
<title>Node63&#45;&gt;Node82</title>
<path fill="none" stroke="#63b8ff" d="M1534.39,-172.04C1658.63,-167.18 2064.91,-150.58 2400.5,-129 2403.75,-128.79 2407.06,-128.57 2410.41,-128.34"/>
<polygon fill="#63b8ff" stroke="#63b8ff" points="1534.11,-168.55 1524.26,-172.44 1534.39,-175.55 1534.11,-168.55"/>
</g>
<!-- Node158 -->
<g id="node31" class="node">
<title>Node158</title>
<g id="a_node31"><a xlink:href="Figure_8cpp.html" target="_top" xlink:title=" ">
<polygon fill="white" stroke="#666666" points="1184,-129 1117,-129 1117,-110 1184,-110 1184,-129"/>
<text text-anchor="middle" x="1150.5" y="-117" font-family="Helvetica,sans-Serif" font-size="10.00">Figure.cpp</text>
</a>
</g>
</g>
<!-- Node63&#45;&gt;Node158 -->
<g id="edge43" class="edge">
<title>Node63&#45;&gt;Node158</title>
<path fill="none" stroke="#63b8ff" d="M1458.8,-168.57C1401.4,-160.93 1288.7,-145.39 1193.5,-129 1190.5,-128.48 1187.39,-127.92 1184.27,-127.34"/>
<polygon fill="#63b8ff" stroke="#63b8ff" points="1458.48,-172.06 1468.85,-169.9 1459.4,-165.12 1458.48,-172.06"/>
</g>
<!-- Node98 -->
<g id="node32" class="node">
<title>Node98</title>
<g id="a_node32"><a xlink:href="Game_8cpp.html" target="_top" xlink:title=" ">
<polygon fill="white" stroke="#666666" points="1268.5,-129 1202.5,-129 1202.5,-110 1268.5,-110 1268.5,-129"/>
<text text-anchor="middle" x="1235.5" y="-117" font-family="Helvetica,sans-Serif" font-size="10.00">Game.cpp</text>
</a>
</g>
</g>
<!-- Node63&#45;&gt;Node98 -->
<g id="edge44" class="edge">
<title>Node63&#45;&gt;Node98</title>
<path fill="none" stroke="#63b8ff" d="M1458.58,-165.8C1407.4,-155.41 1317.06,-137.06 1268.53,-127.21"/>
<polygon fill="#63b8ff" stroke="#63b8ff" points="1458.07,-169.27 1468.57,-167.83 1459.46,-162.41 1458.07,-169.27"/>
</g>
<!-- Node181 -->
<g id="node33" class="node">
<title>Node181</title>
<g id="a_node33"><a xlink:href="GameTime_8cpp.html" target="_top" xlink:title=" ">
<polygon fill="white" stroke="#666666" points="1378,-129 1287,-129 1287,-110 1378,-110 1378,-129"/>
<text text-anchor="middle" x="1332.5" y="-117" font-family="Helvetica,sans-Serif" font-size="10.00">GameTime.cpp</text>
</a>
</g>
</g>
<!-- Node63&#45;&gt;Node181 -->
<g id="edge45" class="edge">
<title>Node63&#45;&gt;Node181</title>
<path fill="none" stroke="#63b8ff" d="M1460.29,-161.8C1429.68,-151.91 1386.55,-137.97 1359.06,-129.08"/>
<polygon fill="#63b8ff" stroke="#63b8ff" points="1459.56,-165.24 1470.15,-164.98 1461.71,-158.58 1459.56,-165.24"/>
</g>
<!-- Node99 -->
<g id="node34" class="node">
<title>Node99</title>
<g id="a_node34"><a xlink:href="IComponent_8h.html" target="_top" xlink:title=" ">
<polygon fill="#fff0f0" stroke="red" points="1481,-129 1396,-129 1396,-110 1481,-110 1481,-129"/>
<text text-anchor="middle" x="1438.5" y="-117" font-family="Helvetica,sans-Serif" font-size="10.00">IComponent.h</text>
</a>
</g>
</g>
<!-- Node63&#45;&gt;Node99 -->
<g id="edge46" class="edge">
<title>Node63&#45;&gt;Node99</title>
<path fill="none" stroke="#63b8ff" d="M1479.59,-158.04C1469.3,-148.64 1456.53,-136.98 1447.99,-129.17"/>
<polygon fill="#63b8ff" stroke="#63b8ff" points="1477.44,-160.82 1487.18,-164.98 1482.16,-155.66 1477.44,-160.82"/>
</g>
<!-- Node93 -->
<g id="node35" class="node">
<title>Node93</title>
<g id="a_node35"><a xlink:href="ImGuiEditorCamera_8cpp.html" target="_top" xlink:title=" ">
<polygon fill="white" stroke="#666666" points="2756,-129 2623,-129 2623,-110 2756,-110 2756,-129"/>
<text text-anchor="middle" x="2689.5" y="-117" font-family="Helvetica,sans-Serif" font-size="10.00">ImGuiEditorCamera.cpp</text>
</a>
</g>
</g>
<!-- Node63&#45;&gt;Node93 -->
<g id="edge47" class="edge">
<title>Node63&#45;&gt;Node93</title>
<path fill="none" stroke="#63b8ff" d="M1534.53,-172.97C1676.78,-170.78 2191.01,-161 2613.5,-129 2616.54,-128.77 2619.66,-128.51 2622.8,-128.23"/>
<polygon fill="#63b8ff" stroke="#63b8ff" points="1534.12,-169.48 1524.18,-173.13 1534.23,-176.48 1534.12,-169.48"/>
</g>
<!-- Node166 -->
<g id="node36" class="node">
<title>Node166</title>
<g id="a_node36"><a xlink:href="ImGuiRenderer_8cpp.html" target="_top" xlink:title=" ">
<polygon fill="white" stroke="#666666" points="1609.5,-129 1499.5,-129 1499.5,-110 1609.5,-110 1609.5,-129"/>
<text text-anchor="middle" x="1554.5" y="-117" font-family="Helvetica,sans-Serif" font-size="10.00">ImGuiRenderer.cpp</text>
</a>
</g>
</g>
<!-- Node63&#45;&gt;Node166 -->
<g id="edge48" class="edge">
<title>Node63&#45;&gt;Node166</title>
<path fill="none" stroke="#63b8ff" d="M1513.41,-158.04C1523.7,-148.64 1536.47,-136.98 1545.01,-129.17"/>
<polygon fill="#63b8ff" stroke="#63b8ff" points="1510.84,-155.66 1505.82,-164.98 1515.56,-160.82 1510.84,-155.66"/>
</g>
<!-- Node142 -->
<g id="node37" class="node">
<title>Node142</title>
<g id="a_node37"><a xlink:href="ImGuiShowable_8cpp.html" target="_top" xlink:title=" ">
<polygon fill="white" stroke="#666666" points="1741,-129 1628,-129 1628,-110 1741,-110 1741,-129"/>
<text text-anchor="middle" x="1684.5" y="-117" font-family="Helvetica,sans-Serif" font-size="10.00">ImGuiShowable.cpp</text>
</a>
</g>
</g>
<!-- Node63&#45;&gt;Node142 -->
<g id="edge49" class="edge">
<title>Node63&#45;&gt;Node142</title>
<path fill="none" stroke="#63b8ff" d="M1534.16,-162.88C1569.43,-152.94 1621.47,-138.27 1654.15,-129.06"/>
<polygon fill="#63b8ff" stroke="#63b8ff" points="1532.92,-159.6 1524.24,-165.68 1534.81,-166.33 1532.92,-159.6"/>
</g>
<!-- Node120 -->
<g id="node38" class="node">
<title>Node120</title>
<g id="a_node38"><a xlink:href="ImGuizmoManipulator_8cpp.html" target="_top" xlink:title=" ">
<polygon fill="white" stroke="#666666" points="2267,-129 2122,-129 2122,-110 2267,-110 2267,-129"/>
<text text-anchor="middle" x="2194.5" y="-117" font-family="Helvetica,sans-Serif" font-size="10.00">ImGuizmoManipulator.cpp</text>
</a>
</g>
</g>
<!-- Node63&#45;&gt;Node120 -->
<g id="edge50" class="edge">
<title>Node63&#45;&gt;Node120</title>
<path fill="none" stroke="#63b8ff" d="M1534.28,-171.18C1630.7,-165.18 1893.73,-148.24 2112.5,-129 2115.49,-128.74 2118.55,-128.46 2121.63,-128.17"/>
<polygon fill="#63b8ff" stroke="#63b8ff" points="1533.92,-167.7 1524.15,-171.81 1534.35,-174.68 1533.92,-167.7"/>
</g>
<!-- Node63&#45;&gt;Node182 -->
<g id="edge51" class="edge">
<title>Node63&#45;&gt;Node182</title>
<path fill="none" stroke="#63b8ff" d="M1534.46,-171.67C1621.8,-167.15 1843.59,-154.01 2027.5,-129 2031.91,-128.4 2036.55,-127.66 2041.1,-126.86"/>
<polygon fill="#63b8ff" stroke="#63b8ff" points="1534.06,-168.18 1524.25,-172.19 1534.41,-175.17 1534.06,-168.18"/>
</g>
<!-- Node174&#45;&gt;Node8 -->
<g id="edge31" class="edge">
<title>Node174&#45;&gt;Node8</title>
<path fill="none" stroke="#63b8ff" d="M3061.95,-52.75C3105.8,-42.82 3170.1,-28.26 3210.61,-19.08"/>
<polygon fill="#63b8ff" stroke="#63b8ff" points="3061.08,-49.36 3052.1,-54.98 3062.62,-56.19 3061.08,-49.36"/>
</g>
<!-- Node174&#45;&gt;Node17 -->
<g id="edge33" class="edge">
<title>Node174&#45;&gt;Node17</title>
<path fill="none" stroke="#63b8ff" d="M2956.47,-55.38C2955.13,-55.24 2953.81,-55.12 2952.5,-55 2551.24,-18.95 2059.76,-11.92 1943.16,-10.72"/>
<polygon fill="#63b8ff" stroke="#63b8ff" points="2956.5,-58.9 2966.82,-56.51 2957.26,-51.94 2956.5,-58.9"/>
</g>
<!-- Node174&#45;&gt;Node175 -->
<g id="edge32" class="edge">
<title>Node174&#45;&gt;Node175</title>
<path fill="none" stroke="#63b8ff" d="M2956.46,-55.48C2955.12,-55.32 2953.8,-55.16 2952.5,-55 2818.62,-39.04 2661.33,-23.99 2576.1,-16.15"/>
<polygon fill="#63b8ff" stroke="#63b8ff" points="2956.43,-59 2966.79,-56.79 2957.31,-52.06 2956.43,-59"/>
</g>
<!-- Node180&#45;&gt;Node17 -->
<g id="edge39" class="edge">
<title>Node180&#45;&gt;Node17</title>
<path fill="none" stroke="#63b8ff" d="M908.05,-55.38C909.54,-55.25 911.03,-55.12 912.5,-55 1301.54,-23.14 1777.3,-12.99 1891.83,-10.93"/>
<polygon fill="#63b8ff" stroke="#63b8ff" points="907.66,-51.9 898.04,-56.34 908.33,-58.87 907.66,-51.9"/>
</g>
<!-- Node197&#45;&gt;Node17 -->
<g id="edge60" class="edge">
<title>Node197&#45;&gt;Node17</title>
<path fill="none" stroke="#63b8ff" d="M2802.43,-55.38C2801.11,-55.25 2799.8,-55.12 2798.5,-55 2461.11,-23.77 2048.85,-13.28 1943.14,-11.01"/>
<polygon fill="#63b8ff" stroke="#63b8ff" points="2802.39,-58.9 2812.71,-56.51 2803.15,-51.94 2802.39,-58.9"/>
</g>
<!-- Node198&#45;&gt;Node200 -->
<g id="edge62" class="edge">
<title>Node198&#45;&gt;Node200</title>
<path fill="none" stroke="#63b8ff" d="M3193.87,-162.5C3233.01,-152.58 3289.78,-138.18 3325.66,-129.08"/>
<polygon fill="#63b8ff" stroke="#63b8ff" points="3192.91,-159.13 3184.08,-164.98 3194.63,-165.92 3192.91,-159.13"/>
</g>
<!-- Node200&#45;&gt;Node17 -->
<g id="edge65" class="edge">
<title>Node200&#45;&gt;Node17</title>
<path fill="none" stroke="#63b8ff" d="M3258.07,-109.01C3148.77,-98.5 2986.64,-82 2958.5,-74 2939.57,-68.62 2937.6,-59.75 2918.5,-55 2821.44,-30.84 2090.79,-14.17 1943.37,-11.04"/>
<polygon fill="#63b8ff" stroke="#63b8ff" points="3257.86,-112.51 3268.14,-109.98 3258.52,-105.54 3257.86,-112.51"/>
</g>
<!-- Node200&#45;&gt;Node174 -->
<g id="edge63" class="edge">
<title>Node200&#45;&gt;Node174</title>
<path fill="none" stroke="#63b8ff" d="M3293.94,-108.43C3226.23,-98.03 3122.21,-82.05 3062.02,-72.8"/>
<polygon fill="#63b8ff" stroke="#63b8ff" points="3293.65,-111.93 3304.07,-109.98 3294.72,-105.01 3293.65,-111.93"/>
</g>
<!-- Node200&#45;&gt;Node179 -->
<g id="edge64" class="edge">
<title>Node200&#45;&gt;Node179</title>
<path fill="none" stroke="#63b8ff" d="M3254.08,-112.13C3241.75,-111.4 3229.35,-110.68 3217.5,-110 2930.32,-93.59 2586.34,-75.34 2454.56,-68.39"/>
<polygon fill="#63b8ff" stroke="#63b8ff" points="3254.22,-115.64 3264.41,-112.74 3254.63,-108.65 3254.22,-115.64"/>
</g>
<!-- Node202&#45;&gt;Node6 -->
<g id="edge67" class="edge">
<title>Node202&#45;&gt;Node6</title>
<path fill="none" stroke="#63b8ff" d="M2813.01,-159.42C2827.71,-149.81 2846.72,-137.37 2859.25,-129.17"/>
<polygon fill="#63b8ff" stroke="#63b8ff" points="2810.97,-156.58 2804.51,-164.98 2814.8,-162.44 2810.97,-156.58"/>
</g>
<!-- Node202&#45;&gt;Node17 -->
<g id="edge75" class="edge">
<title>Node202&#45;&gt;Node17</title>
<path fill="none" stroke="#63b8ff" d="M2788.55,-155.11C2785.23,-140.63 2778.36,-121.09 2764.5,-110 2698.6,-57.28 2078.23,-19.54 1943.32,-11.92"/>
<polygon fill="#63b8ff" stroke="#63b8ff" points="2785.12,-155.82 2790.45,-164.98 2791.99,-154.49 2785.12,-155.82"/>
</g>
<!-- Node202&#45;&gt;Node59 -->
<g id="edge69" class="edge">
<title>Node202&#45;&gt;Node59</title>
<path fill="none" stroke="#63b8ff" d="M2734.95,-167.42C2659.04,-159.16 2520.02,-143.76 2401.5,-129 2398.43,-128.62 2395.28,-128.22 2392.11,-127.81"/>
<polygon fill="#63b8ff" stroke="#63b8ff" points="2734.92,-170.93 2745.24,-168.53 2735.67,-163.97 2734.92,-170.93"/>
</g>
<!-- Node202&#45;&gt;Node82 -->
<g id="edge68" class="edge">
<title>Node202&#45;&gt;Node82</title>
<path fill="none" stroke="#63b8ff" d="M2735.92,-163.13C2682.67,-153.19 2603.27,-138.37 2553.49,-129.08"/>
<polygon fill="#63b8ff" stroke="#63b8ff" points="2735.4,-166.59 2745.87,-164.98 2736.68,-159.71 2735.4,-166.59"/>
</g>
<!-- Node202&#45;&gt;Node93 -->
<g id="edge72" class="edge">
<title>Node202&#45;&gt;Node93</title>
<path fill="none" stroke="#63b8ff" d="M2766.23,-160.37C2747.49,-150.63 2722.48,-137.64 2706.19,-129.17"/>
<polygon fill="#63b8ff" stroke="#63b8ff" points="2764.62,-163.48 2775.11,-164.98 2767.85,-157.27 2764.62,-163.48"/>
</g>
<!-- Node202&#45;&gt;Node120 -->
<g id="edge73" class="edge">
<title>Node202&#45;&gt;Node120</title>
<path fill="none" stroke="#63b8ff" d="M2734.98,-168.97C2640.02,-161.28 2442.44,-144.96 2275.5,-129 2272.83,-128.74 2270.1,-128.48 2267.35,-128.21"/>
<polygon fill="#63b8ff" stroke="#63b8ff" points="2734.97,-172.48 2745.22,-169.8 2735.53,-165.5 2734.97,-172.48"/>
</g>
<!-- Node202&#45;&gt;Node160 -->
<g id="edge70" class="edge">
<title>Node202&#45;&gt;Node160</title>
<path fill="none" stroke="#63b8ff" d="M2832.88,-162.31C2869.55,-152.39 2922.33,-138.12 2955.76,-129.08"/>
<polygon fill="#63b8ff" stroke="#63b8ff" points="2831.73,-159 2822.99,-164.98 2833.56,-165.75 2831.73,-159"/>
</g>
<!-- Node202&#45;&gt;Node134 -->
<g id="edge71" class="edge">
<title>Node202&#45;&gt;Node134</title>
<path fill="none" stroke="#63b8ff" d="M2847.87,-163.47C2904.07,-153.48 2989.39,-138.3 3042.17,-128.92"/>
<polygon fill="#63b8ff" stroke="#63b8ff" points="2846.97,-160.08 2837.74,-165.28 2848.19,-166.97 2846.97,-160.08"/>
</g>
<!-- Node202&#45;&gt;Node121 -->
<g id="edge74" class="edge">
<title>Node202&#45;&gt;Node121</title>
<path fill="none" stroke="#63b8ff" d="M2847.93,-168.28C2918.03,-161.37 3041.13,-147.83 3145.5,-129 3148.41,-128.48 3151.43,-127.87 3154.44,-127.22"/>
<polygon fill="#63b8ff" stroke="#63b8ff" points="2847.18,-164.84 2837.56,-169.3 2847.86,-171.81 2847.18,-164.84"/>
</g>
</g>
</svg>
