<?xml version="1.0" encoding="UTF-8" standalone="no"?>
<!DOCTYPE svg PUBLIC "-//W3C//DTD SVG 1.1//EN"
 "http://www.w3.org/Graphics/SVG/1.1/DTD/svg11.dtd">
<!-- Generated by graphviz version 2.43.0 (0)
 -->
<!-- Title: ResourceCollection.cpp Pages: 1 -->
<svg width="561pt" height="192pt"
 viewBox="0.00 0.00 561.00 192.00" xmlns="http://www.w3.org/2000/svg" xmlns:xlink="http://www.w3.org/1999/xlink">
<g id="graph0" class="graph" transform="scale(1 1) rotate(0) translate(4 188)">
<title>ResourceCollection.cpp</title>
<!-- Node1 -->
<g id="node1" class="node">
<title>Node1</title>
<g id="a_node1"><a xlink:title=" ">
<polygon fill="#999999" stroke="#666666" points="337,-184 206,-184 206,-165 337,-165 337,-184"/>
<text text-anchor="middle" x="271.5" y="-172" font-family="Helvetica,sans-Serif" font-size="10.00">ResourceCollection.cpp</text>
</a>
</g>
</g>
<!-- Node2 -->
<g id="node2" class="node">
<title>Node2</title>
<g id="a_node2"><a xlink:href="ResourceCollection_8h.html" target="_top" xlink:title=" ">
<polygon fill="white" stroke="#666666" points="417,-129 298,-129 298,-110 417,-110 417,-129"/>
<text text-anchor="middle" x="357.5" y="-117" font-family="Helvetica,sans-Serif" font-size="10.00">ResourceCollection.h</text>
</a>
</g>
</g>
<!-- Node1&#45;&gt;Node2 -->
<g id="edge1" class="edge">
<title>Node1&#45;&gt;Node2</title>
<path fill="none" stroke="#63b8ff" d="M285.32,-164.98C298.65,-156.77 319.08,-144.18 334.81,-134.49"/>
<polygon fill="#63b8ff" stroke="#63b8ff" points="336.75,-137.4 343.43,-129.17 333.08,-131.44 336.75,-137.4"/>
</g>
<!-- Node7 -->
<g id="node7" class="node">
<title>Node7</title>
<g id="a_node7"><a xlink:href="WindowContextResource_8h.html" target="_top" xlink:title=" ">
<polygon fill="white" stroke="#666666" points="269.5,-129 121.5,-129 121.5,-110 269.5,-110 269.5,-129"/>
<text text-anchor="middle" x="195.5" y="-117" font-family="Helvetica,sans-Serif" font-size="10.00">WindowContextResource.h</text>
</a>
</g>
</g>
<!-- Node1&#45;&gt;Node7 -->
<g id="edge6" class="edge">
<title>Node1&#45;&gt;Node7</title>
<path fill="none" stroke="#63b8ff" d="M259.29,-164.98C247.72,-156.92 230.12,-144.65 216.34,-135.03"/>
<polygon fill="#63b8ff" stroke="#63b8ff" points="218.14,-132.02 207.93,-129.17 214.13,-137.76 218.14,-132.02"/>
</g>
<!-- Node3 -->
<g id="node3" class="node">
<title>Node3</title>
<g id="a_node3"><a xlink:title=" ">
<polygon fill="#e0e0e0" stroke="#999999" points="376.5,-74 338.5,-74 338.5,-55 376.5,-55 376.5,-74"/>
<text text-anchor="middle" x="357.5" y="-62" font-family="Helvetica,sans-Serif" font-size="10.00">map</text>
</a>
</g>
</g>
<!-- Node2&#45;&gt;Node3 -->
<g id="edge2" class="edge">
<title>Node2&#45;&gt;Node3</title>
<path fill="none" stroke="#63b8ff" d="M357.5,-109.75C357.5,-102.8 357.5,-92.85 357.5,-84.13"/>
<polygon fill="#63b8ff" stroke="#63b8ff" points="361,-84.09 357.5,-74.09 354,-84.09 361,-84.09"/>
</g>
<!-- Node4 -->
<g id="node4" class="node">
<title>Node4</title>
<g id="a_node4"><a xlink:title=" ">
<polygon fill="#e0e0e0" stroke="#999999" points="553,-74 506,-74 506,-55 553,-55 553,-74"/>
<text text-anchor="middle" x="529.5" y="-62" font-family="Helvetica,sans-Serif" font-size="10.00">vector</text>
</a>
</g>
</g>
<!-- Node2&#45;&gt;Node4 -->
<g id="edge3" class="edge">
<title>Node2&#45;&gt;Node4</title>
<path fill="none" stroke="#63b8ff" d="M385.13,-109.98C415.3,-100.69 463.59,-85.81 495.92,-75.85"/>
<polygon fill="#63b8ff" stroke="#63b8ff" points="497.28,-79.09 505.81,-72.8 495.22,-72.4 497.28,-79.09"/>
</g>
<!-- Node5 -->
<g id="node5" class="node">
<title>Node5</title>
<g id="a_node5"><a xlink:title=" ">
<polygon fill="#e0e0e0" stroke="#999999" points="320,-74 255,-74 255,-55 320,-55 320,-74"/>
<text text-anchor="middle" x="287.5" y="-62" font-family="Helvetica,sans-Serif" font-size="10.00">typeindex</text>
</a>
</g>
</g>
<!-- Node2&#45;&gt;Node5 -->
<g id="edge4" class="edge">
<title>Node2&#45;&gt;Node5</title>
<path fill="none" stroke="#63b8ff" d="M346.25,-109.98C335.7,-102 319.7,-89.88 307.06,-80.31"/>
<polygon fill="#63b8ff" stroke="#63b8ff" points="309.04,-77.42 298.95,-74.17 304.81,-83 309.04,-77.42"/>
</g>
<!-- Node6 -->
<g id="node6" class="node">
<title>Node6</title>
<g id="a_node6"><a xlink:href="ReleaseUtility_8h.html" target="_top" xlink:title=" ">
<polygon fill="white" stroke="#666666" points="488,-74 395,-74 395,-55 488,-55 488,-74"/>
<text text-anchor="middle" x="441.5" y="-62" font-family="Helvetica,sans-Serif" font-size="10.00">ReleaseUtility.h</text>
</a>
</g>
</g>
<!-- Node2&#45;&gt;Node6 -->
<g id="edge5" class="edge">
<title>Node2&#45;&gt;Node6</title>
<path fill="none" stroke="#63b8ff" d="M371,-109.98C383.9,-101.84 403.6,-89.41 418.9,-79.76"/>
<polygon fill="#63b8ff" stroke="#63b8ff" points="421.17,-82.47 427.76,-74.17 417.43,-76.55 421.17,-82.47"/>
</g>
<!-- Node7&#45;&gt;Node3 -->
<g id="edge8" class="edge">
<title>Node7&#45;&gt;Node3</title>
<path fill="none" stroke="#63b8ff" d="M221.53,-109.98C250.78,-100.42 298.14,-84.92 328.54,-74.98"/>
<polygon fill="#63b8ff" stroke="#63b8ff" points="329.73,-78.27 338.15,-71.83 327.55,-71.62 329.73,-78.27"/>
</g>
<!-- Node7&#45;&gt;Node5 -->
<g id="edge9" class="edge">
<title>Node7&#45;&gt;Node5</title>
<path fill="none" stroke="#63b8ff" d="M210.28,-109.98C224.68,-101.69 246.81,-88.94 263.69,-79.22"/>
<polygon fill="#63b8ff" stroke="#63b8ff" points="265.53,-82.19 272.45,-74.17 262.04,-76.13 265.53,-82.19"/>
</g>
<!-- Node8 -->
<g id="node8" class="node">
<title>Node8</title>
<g id="a_node8"><a xlink:title=" ">
<polygon fill="#e0e0e0" stroke="#999999" points="41,-74 0,-74 0,-55 41,-55 41,-74"/>
<text text-anchor="middle" x="20.5" y="-62" font-family="Helvetica,sans-Serif" font-size="10.00">tuple</text>
</a>
</g>
</g>
<!-- Node7&#45;&gt;Node8 -->
<g id="edge7" class="edge">
<title>Node7&#45;&gt;Node8</title>
<path fill="none" stroke="#63b8ff" d="M167.38,-109.98C135.56,-100.35 83.9,-84.7 51.09,-74.76"/>
<polygon fill="#63b8ff" stroke="#63b8ff" points="51.74,-71.3 41.15,-71.75 49.71,-78 51.74,-71.3"/>
</g>
<!-- Node9 -->
<g id="node9" class="node">
<title>Node9</title>
<g id="a_node9"><a xlink:title=" ">
<polygon fill="#e0e0e0" stroke="#999999" points="115.5,-74 59.5,-74 59.5,-55 115.5,-55 115.5,-74"/>
<text text-anchor="middle" x="87.5" y="-62" font-family="Helvetica,sans-Serif" font-size="10.00">d3d11.h</text>
</a>
</g>
</g>
<!-- Node7&#45;&gt;Node9 -->
<g id="edge10" class="edge">
<title>Node7&#45;&gt;Node9</title>
<path fill="none" stroke="#63b8ff" d="M178.15,-109.98C160.93,-101.54 134.3,-88.47 114.35,-78.68"/>
<polygon fill="#63b8ff" stroke="#63b8ff" points="115.69,-75.43 105.17,-74.17 112.6,-81.72 115.69,-75.43"/>
</g>
<!-- Node10 -->
<g id="node10" class="node">
<title>Node10</title>
<g id="a_node10"><a xlink:href="WindowContext_8h.html" target="_top" xlink:title=" ">
<polygon fill="white" stroke="#666666" points="237,-74 134,-74 134,-55 237,-55 237,-74"/>
<text text-anchor="middle" x="185.5" y="-62" font-family="Helvetica,sans-Serif" font-size="10.00">WindowContext.h</text>
</a>
</g>
</g>
<!-- Node7&#45;&gt;Node10 -->
<g id="edge11" class="edge">
<title>Node7&#45;&gt;Node10</title>
<path fill="none" stroke="#63b8ff" d="M193.85,-109.75C192.54,-102.8 190.66,-92.85 189.02,-84.13"/>
<polygon fill="#63b8ff" stroke="#63b8ff" points="192.41,-83.27 187.12,-74.09 185.54,-84.56 192.41,-83.27"/>
</g>
<!-- Node11 -->
<g id="node11" class="node">
<title>Node11</title>
<g id="a_node11"><a xlink:title=" ">
<polygon fill="#e0e0e0" stroke="#999999" points="221,-19 150,-19 150,0 221,0 221,-19"/>
<text text-anchor="middle" x="185.5" y="-7" font-family="Helvetica,sans-Serif" font-size="10.00">wrl/client.h</text>
</a>
</g>
</g>
<!-- Node10&#45;&gt;Node11 -->
<g id="edge12" class="edge">
<title>Node10&#45;&gt;Node11</title>
<path fill="none" stroke="#63b8ff" d="M185.5,-54.75C185.5,-47.8 185.5,-37.85 185.5,-29.13"/>
<polygon fill="#63b8ff" stroke="#63b8ff" points="189,-29.09 185.5,-19.09 182,-29.09 189,-29.09"/>
</g>
</g>
</svg>
