<?xml version="1.0" encoding="UTF-8" standalone="no"?>
<!DOCTYPE svg PUBLIC "-//W3C//DTD SVG 1.1//EN"
 "http://www.w3.org/Graphics/SVG/1.1/DTD/svg11.dtd">
<!-- Generated by graphviz version 2.43.0 (0)
 -->
<!-- Title: SelectionCommand.cpp Pages: 1 -->
<svg width="654pt" height="357pt"
 viewBox="0.00 0.00 654.00 357.00" xmlns="http://www.w3.org/2000/svg" xmlns:xlink="http://www.w3.org/1999/xlink">
<g id="graph0" class="graph" transform="scale(1 1) rotate(0) translate(4 353)">
<title>SelectionCommand.cpp</title>
<!-- Node1 -->
<g id="node1" class="node">
<title>Node1</title>
<g id="a_node1"><a xlink:title=" ">
<polygon fill="#999999" stroke="#666666" points="445.5,-349 313.5,-349 313.5,-330 445.5,-330 445.5,-349"/>
<text text-anchor="middle" x="379.5" y="-337" font-family="Helvetica,sans-Serif" font-size="10.00">SelectionCommand.cpp</text>
</a>
</g>
</g>
<!-- Node2 -->
<g id="node2" class="node">
<title>Node2</title>
<g id="a_node2"><a xlink:href="SelectionCommand_8h.html" target="_top" xlink:title=" ">
<polygon fill="white" stroke="#666666" points="440,-294 319,-294 319,-275 440,-275 440,-294"/>
<text text-anchor="middle" x="379.5" y="-282" font-family="Helvetica,sans-Serif" font-size="10.00">SelectionCommand.h</text>
</a>
</g>
</g>
<!-- Node1&#45;&gt;Node2 -->
<g id="edge1" class="edge">
<title>Node1&#45;&gt;Node2</title>
<path fill="none" stroke="#63b8ff" d="M379.5,-329.75C379.5,-322.8 379.5,-312.85 379.5,-304.13"/>
<polygon fill="#63b8ff" stroke="#63b8ff" points="383,-304.09 379.5,-294.09 376,-304.09 383,-304.09"/>
</g>
<!-- Node3 -->
<g id="node3" class="node">
<title>Node3</title>
<g id="a_node3"><a xlink:href="GameObjectSelectionEvent_8h.html" target="_top" xlink:title=" ">
<polygon fill="white" stroke="#666666" points="159,-239 0,-239 0,-220 159,-220 159,-239"/>
<text text-anchor="middle" x="79.5" y="-227" font-family="Helvetica,sans-Serif" font-size="10.00">GameObjectSelectionEvent.h</text>
</a>
</g>
</g>
<!-- Node2&#45;&gt;Node3 -->
<g id="edge2" class="edge">
<title>Node2&#45;&gt;Node3</title>
<path fill="none" stroke="#63b8ff" d="M331.3,-274.98C278.75,-265.7 194.65,-250.84 138.27,-240.88"/>
<polygon fill="#63b8ff" stroke="#63b8ff" points="138.53,-237.38 128.08,-239.08 137.32,-244.27 138.53,-237.38"/>
</g>
<!-- Node4 -->
<g id="node4" class="node">
<title>Node4</title>
<g id="a_node4"><a xlink:href="Entity_8h.html" target="_top" xlink:title=" ">
<polygon fill="white" stroke="#666666" points="213,-184 160,-184 160,-165 213,-165 213,-184"/>
<text text-anchor="middle" x="186.5" y="-172" font-family="Helvetica,sans-Serif" font-size="10.00">Entity.h</text>
</a>
</g>
</g>
<!-- Node2&#45;&gt;Node4 -->
<g id="edge12" class="edge">
<title>Node2&#45;&gt;Node4</title>
<path fill="none" stroke="#63b8ff" d="M318.73,-282.49C281.55,-278.7 235.52,-267.83 205.5,-239 193.45,-227.43 188.96,-208.56 187.32,-194.39"/>
<polygon fill="#63b8ff" stroke="#63b8ff" points="190.8,-193.96 186.54,-184.26 183.82,-194.5 190.8,-193.96"/>
</g>
<!-- Node8 -->
<g id="node8" class="node">
<title>Node8</title>
<g id="a_node8"><a xlink:title=" ">
<polygon fill="#e0e0e0" stroke="#999999" points="280,-239 215,-239 215,-220 280,-220 280,-239"/>
<text text-anchor="middle" x="247.5" y="-227" font-family="Helvetica,sans-Serif" font-size="10.00">functional</text>
</a>
</g>
</g>
<!-- Node2&#45;&gt;Node8 -->
<g id="edge8" class="edge">
<title>Node2&#45;&gt;Node8</title>
<path fill="none" stroke="#63b8ff" d="M358.29,-274.98C336.77,-266.34 303.22,-252.87 278.67,-243.02"/>
<polygon fill="#63b8ff" stroke="#63b8ff" points="279.68,-239.65 269.09,-239.17 277.07,-246.14 279.68,-239.65"/>
</g>
<!-- Node9 -->
<g id="node9" class="node">
<title>Node9</title>
<g id="a_node9"><a xlink:href="Command_8h.html" target="_top" xlink:title=" ">
<polygon fill="white" stroke="#666666" points="374.5,-239 298.5,-239 298.5,-220 374.5,-220 374.5,-239"/>
<text text-anchor="middle" x="336.5" y="-227" font-family="Helvetica,sans-Serif" font-size="10.00">Command.h</text>
</a>
</g>
</g>
<!-- Node2&#45;&gt;Node9 -->
<g id="edge9" class="edge">
<title>Node2&#45;&gt;Node9</title>
<path fill="none" stroke="#63b8ff" d="M372.4,-274.75C366.33,-267.26 357.41,-256.28 349.99,-247.13"/>
<polygon fill="#63b8ff" stroke="#63b8ff" points="352.49,-244.65 343.47,-239.09 347.05,-249.06 352.49,-244.65"/>
</g>
<!-- Node11 -->
<g id="node11" class="node">
<title>Node11</title>
<g id="a_node11"><a xlink:title=" ">
<polygon fill="#e0e0e0" stroke="#999999" points="452.5,-239 392.5,-239 392.5,-220 452.5,-220 452.5,-239"/>
<text text-anchor="middle" x="422.5" y="-227" font-family="Helvetica,sans-Serif" font-size="10.00">concepts</text>
</a>
</g>
</g>
<!-- Node2&#45;&gt;Node11 -->
<g id="edge13" class="edge">
<title>Node2&#45;&gt;Node11</title>
<path fill="none" stroke="#63b8ff" d="M386.6,-274.75C392.67,-267.26 401.59,-256.28 409.01,-247.13"/>
<polygon fill="#63b8ff" stroke="#63b8ff" points="411.95,-249.06 415.53,-239.09 406.51,-244.65 411.95,-249.06"/>
</g>
<!-- Node12 -->
<g id="node12" class="node">
<title>Node12</title>
<g id="a_node12"><a xlink:title=" ">
<polygon fill="#e0e0e0" stroke="#999999" points="506,-239 471,-239 471,-220 506,-220 506,-239"/>
<text text-anchor="middle" x="488.5" y="-227" font-family="Helvetica,sans-Serif" font-size="10.00">any</text>
</a>
</g>
</g>
<!-- Node2&#45;&gt;Node12 -->
<g id="edge14" class="edge">
<title>Node2&#45;&gt;Node12</title>
<path fill="none" stroke="#63b8ff" d="M397.01,-274.98C414.47,-266.5 441.51,-253.35 461.67,-243.54"/>
<polygon fill="#63b8ff" stroke="#63b8ff" points="463.21,-246.69 470.67,-239.17 460.14,-240.4 463.21,-246.69"/>
</g>
<!-- Node13 -->
<g id="node13" class="node">
<title>Node13</title>
<g id="a_node13"><a xlink:title=" ">
<polygon fill="#e0e0e0" stroke="#999999" points="562.5,-239 524.5,-239 524.5,-220 562.5,-220 562.5,-239"/>
<text text-anchor="middle" x="543.5" y="-227" font-family="Helvetica,sans-Serif" font-size="10.00">map</text>
</a>
</g>
</g>
<!-- Node2&#45;&gt;Node13 -->
<g id="edge15" class="edge">
<title>Node2&#45;&gt;Node13</title>
<path fill="none" stroke="#63b8ff" d="M405.85,-274.98C435.62,-265.36 483.93,-249.75 514.68,-239.81"/>
<polygon fill="#63b8ff" stroke="#63b8ff" points="515.95,-243.08 524.39,-236.68 513.8,-236.42 515.95,-243.08"/>
</g>
<!-- Node14 -->
<g id="node14" class="node">
<title>Node14</title>
<g id="a_node14"><a xlink:title=" ">
<polygon fill="#e0e0e0" stroke="#999999" points="646,-239 581,-239 581,-220 646,-220 646,-239"/>
<text text-anchor="middle" x="613.5" y="-227" font-family="Helvetica,sans-Serif" font-size="10.00">typeindex</text>
</a>
</g>
</g>
<!-- Node2&#45;&gt;Node14 -->
<g id="edge16" class="edge">
<title>Node2&#45;&gt;Node14</title>
<path fill="none" stroke="#63b8ff" d="M417.1,-274.98C459.17,-265.46 527.17,-250.05 571.1,-240.1"/>
<polygon fill="#63b8ff" stroke="#63b8ff" points="571.92,-243.51 580.9,-237.88 570.38,-236.68 571.92,-243.51"/>
</g>
<!-- Node3&#45;&gt;Node4 -->
<g id="edge3" class="edge">
<title>Node3&#45;&gt;Node4</title>
<path fill="none" stroke="#63b8ff" d="M96.69,-219.98C113.75,-211.54 140.13,-198.47 159.9,-188.68"/>
<polygon fill="#63b8ff" stroke="#63b8ff" points="161.59,-191.75 169,-184.17 158.48,-185.47 161.59,-191.75"/>
</g>
<!-- Node5 -->
<g id="node5" class="node">
<title>Node5</title>
<g id="a_node5"><a xlink:href="cmtgb_8h.html" target="_top" xlink:title=" ">
<polygon fill="white" stroke="#666666" points="264.5,-129 208.5,-129 208.5,-110 264.5,-110 264.5,-129"/>
<text text-anchor="middle" x="236.5" y="-117" font-family="Helvetica,sans-Serif" font-size="10.00">cmtgb.h</text>
</a>
</g>
</g>
<!-- Node4&#45;&gt;Node5 -->
<g id="edge4" class="edge">
<title>Node4&#45;&gt;Node5</title>
<path fill="none" stroke="#63b8ff" d="M194.76,-164.75C201.96,-157.11 212.61,-145.82 221.35,-136.56"/>
<polygon fill="#63b8ff" stroke="#63b8ff" points="224.08,-138.76 228.4,-129.09 218.99,-133.96 224.08,-138.76"/>
</g>
<!-- Node6 -->
<g id="node6" class="node">
<title>Node6</title>
<g id="a_node6"><a xlink:title=" ">
<polygon fill="#e0e0e0" stroke="#999999" points="261.5,-19 211.5,-19 211.5,0 261.5,0 261.5,-19"/>
<text text-anchor="middle" x="236.5" y="-7" font-family="Helvetica,sans-Serif" font-size="10.00">cstdint</text>
</a>
</g>
</g>
<!-- Node5&#45;&gt;Node6 -->
<g id="edge5" class="edge">
<title>Node5&#45;&gt;Node6</title>
<path fill="none" stroke="#63b8ff" d="M233.11,-109.92C228.7,-97.76 221.88,-74.8 224.5,-55 225.66,-46.27 228.03,-36.83 230.37,-28.9"/>
<polygon fill="#63b8ff" stroke="#63b8ff" points="233.75,-29.82 233.41,-19.23 227.07,-27.72 233.75,-29.82"/>
</g>
<!-- Node7 -->
<g id="node7" class="node">
<title>Node7</title>
<g id="a_node7"><a xlink:href="Handlers_8h.html" target="_top" xlink:title=" ">
<polygon fill="white" stroke="#666666" points="303,-74 234,-74 234,-55 303,-55 303,-74"/>
<text text-anchor="middle" x="268.5" y="-62" font-family="Helvetica,sans-Serif" font-size="10.00">Handlers.h</text>
</a>
</g>
</g>
<!-- Node5&#45;&gt;Node7 -->
<g id="edge6" class="edge">
<title>Node5&#45;&gt;Node7</title>
<path fill="none" stroke="#63b8ff" d="M241.78,-109.75C246.21,-102.42 252.66,-91.73 258.12,-82.7"/>
<polygon fill="#63b8ff" stroke="#63b8ff" points="261.14,-84.46 263.31,-74.09 255.15,-80.84 261.14,-84.46"/>
</g>
<!-- Node7&#45;&gt;Node6 -->
<g id="edge7" class="edge">
<title>Node7&#45;&gt;Node6</title>
<path fill="none" stroke="#63b8ff" d="M263.22,-54.75C258.79,-47.42 252.34,-36.73 246.88,-27.7"/>
<polygon fill="#63b8ff" stroke="#63b8ff" points="249.85,-25.84 241.69,-19.09 243.86,-29.46 249.85,-25.84"/>
</g>
<!-- Node9&#45;&gt;Node5 -->
<g id="edge11" class="edge">
<title>Node9&#45;&gt;Node5</title>
<path fill="none" stroke="#63b8ff" d="M328.32,-219.66C311.53,-201.54 272.99,-159.91 251.57,-136.77"/>
<polygon fill="#63b8ff" stroke="#63b8ff" points="253.88,-134.12 244.52,-129.16 248.74,-138.87 253.88,-134.12"/>
</g>
<!-- Node10 -->
<g id="node10" class="node">
<title>Node10</title>
<g id="a_node10"><a xlink:title=" ">
<polygon fill="#e0e0e0" stroke="#999999" points="358.5,-184 314.5,-184 314.5,-165 358.5,-165 358.5,-184"/>
<text text-anchor="middle" x="336.5" y="-172" font-family="Helvetica,sans-Serif" font-size="10.00">string</text>
</a>
</g>
</g>
<!-- Node9&#45;&gt;Node10 -->
<g id="edge10" class="edge">
<title>Node9&#45;&gt;Node10</title>
<path fill="none" stroke="#63b8ff" d="M336.5,-219.75C336.5,-212.8 336.5,-202.85 336.5,-194.13"/>
<polygon fill="#63b8ff" stroke="#63b8ff" points="340,-194.09 336.5,-184.09 333,-194.09 340,-194.09"/>
</g>
</g>
</svg>
