<?xml version="1.0" encoding="UTF-8" standalone="no"?>
<!DOCTYPE svg PUBLIC "-//W3C//DTD SVG 1.1//EN"
 "http://www.w3.org/Graphics/SVG/1.1/DTD/svg11.dtd">
<!-- Generated by graphviz version 2.43.0 (0)
 -->
<!-- Title: ShowRange Pages: 1 -->
<svg width="1154pt" height="970pt"
 viewBox="0.00 0.00 1154.00 969.57" xmlns="http://www.w3.org/2000/svg" xmlns:xlink="http://www.w3.org/1999/xlink">
<g id="graph0" class="graph" transform="scale(1 1) rotate(0) translate(4 965.57)">
<title>ShowRange</title>
<!-- Node1 -->
<g id="node1" class="node">
<title>Node1</title>
<g id="a_node1"><a xlink:title=" ">
<polygon fill="#999999" stroke="#666666" points="74,-449.59 0,-449.59 0,-430.59 74,-430.59 74,-449.59"/>
<text text-anchor="middle" x="37" y="-437.59" font-family="Helvetica,sans-Serif" font-size="10.00">ShowRange</text>
</a>
</g>
</g>
<!-- Node2 -->
<g id="node2" class="node">
<title>Node2</title>
<g id="a_node2"><a xlink:href="namespaceImGui.html#a864f761801792a0cc5ce3408f3392cfc" target="_top" xlink:title=" ">
<polygon fill="white" stroke="#666666" points="214,-449.59 110,-449.59 110,-430.59 214,-430.59 214,-449.59"/>
<text text-anchor="middle" x="162" y="-437.59" font-family="Helvetica,sans-Serif" font-size="10.00">ImGui::SliderFloat</text>
</a>
</g>
</g>
<!-- Node1&#45;&gt;Node2 -->
<g id="edge1" class="edge">
<title>Node1&#45;&gt;Node2</title>
<path fill="none" stroke="#63b8ff" d="M74.24,-440.09C82.29,-440.09 91.03,-440.09 99.77,-440.09"/>
<polygon fill="#63b8ff" stroke="#63b8ff" points="99.98,-443.59 109.98,-440.09 99.98,-436.59 99.98,-443.59"/>
</g>
<!-- Node557 -->
<g id="node46" class="node">
<title>Node557</title>
<g id="a_node46"><a xlink:href="namespaceImGui.html#a580128c9b35d1a9fc5b7a057f6f5464a" target="_top" xlink:title=" ">
<polygon fill="white" stroke="#666666" points="208,-486.59 116,-486.59 116,-467.59 208,-467.59 208,-486.59"/>
<text text-anchor="middle" x="162" y="-474.59" font-family="Helvetica,sans-Serif" font-size="10.00">ImGui::SliderInt</text>
</a>
</g>
</g>
<!-- Node1&#45;&gt;Node557 -->
<g id="edge59" class="edge">
<title>Node1&#45;&gt;Node557</title>
<path fill="none" stroke="#63b8ff" d="M69.68,-449.62C84.77,-454.16 103.02,-459.65 119.22,-464.53"/>
<polygon fill="#63b8ff" stroke="#63b8ff" points="118.42,-467.94 129,-467.47 120.44,-461.24 118.42,-467.94"/>
</g>
<!-- Node558 -->
<g id="node47" class="node">
<title>Node558</title>
<g id="a_node47"><a xlink:href="namespaceImGui.html#a9e7b83611fe441d54fad2effb4bf4965" target="_top" xlink:title=" ">
<polygon fill="white" stroke="#666666" points="198,-273.59 126,-273.59 126,-254.59 198,-254.59 198,-273.59"/>
<text text-anchor="middle" x="162" y="-261.59" font-family="Helvetica,sans-Serif" font-size="10.00">ImGui::Text</text>
</a>
</g>
</g>
<!-- Node1&#45;&gt;Node558 -->
<g id="edge61" class="edge">
<title>Node1&#45;&gt;Node558</title>
<path fill="none" stroke="#63b8ff" d="M44.79,-430.38C64.57,-402.08 122.38,-319.36 148.24,-282.36"/>
<polygon fill="#63b8ff" stroke="#63b8ff" points="151.22,-284.2 154.08,-273.99 145.48,-280.19 151.22,-284.2"/>
</g>
<!-- Node3 -->
<g id="node3" class="node">
<title>Node3</title>
<g id="a_node3"><a xlink:href="namespaceImGui.html#afdd7faa9a69f75b8d674cdc207441bea" target="_top" xlink:title=" ">
<polygon fill="white" stroke="#666666" points="502.5,-487.59 392.5,-487.59 392.5,-468.59 502.5,-468.59 502.5,-487.59"/>
<text text-anchor="middle" x="447.5" y="-475.59" font-family="Helvetica,sans-Serif" font-size="10.00">ImGui::SliderScalar</text>
</a>
</g>
</g>
<!-- Node2&#45;&gt;Node3 -->
<g id="edge2" class="edge">
<title>Node2&#45;&gt;Node3</title>
<path fill="none" stroke="#63b8ff" d="M214.01,-446.93C261.09,-453.24 331.2,-462.64 382.12,-469.46"/>
<polygon fill="#63b8ff" stroke="#63b8ff" points="381.66,-472.93 392.03,-470.79 382.59,-466 381.66,-472.93"/>
</g>
<!-- Node4 -->
<g id="node4" class="node">
<title>Node4</title>
<g id="a_node4"><a xlink:href="structImDrawList.html#a6b16ab764160b0251d2e7b3bd08c1ffc" target="_top" xlink:title=" ">
<polygon fill="white" stroke="#666666" points="944.5,-333.59 799.5,-333.59 799.5,-314.59 944.5,-314.59 944.5,-333.59"/>
<text text-anchor="middle" x="872" y="-321.59" font-family="Helvetica,sans-Serif" font-size="10.00">ImDrawList::AddRectFilled</text>
</a>
</g>
</g>
<!-- Node3&#45;&gt;Node4 -->
<g id="edge3" class="edge">
<title>Node3&#45;&gt;Node4</title>
<path fill="none" stroke="#63b8ff" d="M465.06,-487.68C514.39,-514.83 662.24,-585.92 748,-516.09 809.24,-466.23 728.16,-397.94 784,-342.09 786.1,-340 788.37,-338.12 790.78,-336.43"/>
<polygon fill="#63b8ff" stroke="#63b8ff" points="792.55,-339.44 799.44,-331.39 789.04,-333.39 792.55,-339.44"/>
</g>
<!-- Node23 -->
<g id="node9" class="node">
<title>Node23</title>
<g id="a_node9"><a xlink:href="namespaceImGui.html#ab3b3ba92ebd8bca4a552dd93321a1994" target="_top" xlink:title=" ">
<polygon fill="white" stroke="#666666" points="719,-506.59 595,-506.59 595,-487.59 719,-487.59 719,-506.59"/>
<text text-anchor="middle" x="657" y="-494.59" font-family="Helvetica,sans-Serif" font-size="10.00">ImGui::CalcItemWidth</text>
</a>
</g>
</g>
<!-- Node3&#45;&gt;Node23 -->
<g id="edge8" class="edge">
<title>Node3&#45;&gt;Node23</title>
<path fill="none" stroke="#63b8ff" d="M502.75,-483.06C527.77,-485.35 557.81,-488.1 584.64,-490.56"/>
<polygon fill="#63b8ff" stroke="#63b8ff" points="584.47,-494.06 594.74,-491.49 585.11,-487.09 584.47,-494.06"/>
</g>
<!-- Node26 -->
<g id="node12" class="node">
<title>Node26</title>
<g id="a_node12"><a xlink:href="namespaceImGui.html#a848b9db6cc4a186751c0ecebcaadc33b" target="_top" xlink:title=" ">
<polygon fill="white" stroke="#666666" points="713.5,-153.59 600.5,-153.59 600.5,-134.59 713.5,-134.59 713.5,-153.59"/>
<text text-anchor="middle" x="657" y="-141.59" font-family="Helvetica,sans-Serif" font-size="10.00">ImGui::CalcTextSize</text>
</a>
</g>
</g>
<!-- Node3&#45;&gt;Node26 -->
<g id="edge11" class="edge">
<title>Node3&#45;&gt;Node26</title>
<path fill="none" stroke="#63b8ff" d="M448.87,-468.5C451.1,-425.3 466.24,-247.17 566,-162.09 573.03,-156.1 581.5,-151.89 590.39,-148.98"/>
<polygon fill="#63b8ff" stroke="#63b8ff" points="591.44,-152.32 600.16,-146.3 589.59,-145.57 591.44,-152.32"/>
</g>
<!-- Node145 -->
<g id="node15" class="node">
<title>Node145</title>
<g id="a_node15"><a xlink:href="namespaceImGui.html#a5fda8e22d0e4721940aefcb7232b1f82" target="_top" xlink:title=" ">
<polygon fill="white" stroke="#666666" points="952.5,-824.59 791.5,-824.59 791.5,-805.59 952.5,-805.59 952.5,-824.59"/>
<text text-anchor="middle" x="872" y="-812.59" font-family="Helvetica,sans-Serif" font-size="10.00">ImGui::DataTypeFormatString</text>
</a>
</g>
</g>
<!-- Node3&#45;&gt;Node145 -->
<g id="edge15" class="edge">
<title>Node3&#45;&gt;Node145</title>
<path fill="none" stroke="#63b8ff" d="M449.65,-487.67C454.83,-526.42 479.68,-672.96 566,-743.09 630.21,-795.26 669.04,-757.41 748,-782.09 764.54,-787.27 767.44,-791.98 784,-797.09 791.36,-799.37 799.15,-801.44 806.94,-803.3"/>
<polygon fill="#63b8ff" stroke="#63b8ff" points="806.23,-806.72 816.76,-805.54 807.79,-799.9 806.23,-806.72"/>
</g>
<!-- Node147 -->
<g id="node17" class="node">
<title>Node147</title>
<g id="a_node17"><a xlink:href="namespaceImGui.html#a5b25ed1443e5a28d5a5725892e896578" target="_top" xlink:title=" ">
<polygon fill="white" stroke="#666666" points="939,-787.59 805,-787.59 805,-768.59 939,-768.59 939,-787.59"/>
<text text-anchor="middle" x="872" y="-775.59" font-family="Helvetica,sans-Serif" font-size="10.00">ImGui::DataTypeGetInfo</text>
</a>
</g>
</g>
<!-- Node3&#45;&gt;Node147 -->
<g id="edge17" class="edge">
<title>Node3&#45;&gt;Node147</title>
<path fill="none" stroke="#63b8ff" d="M451.77,-487.95C462.58,-518.96 500.29,-615.2 566,-662.09 633.74,-710.44 678.49,-660.33 748,-706.09 770.27,-720.76 761.96,-739.08 784,-754.09 790.63,-758.61 798.08,-762.28 805.77,-765.26"/>
<polygon fill="#63b8ff" stroke="#63b8ff" points="804.63,-768.57 815.22,-768.57 806.94,-761.96 804.63,-768.57"/>
</g>
<!-- Node148 -->
<g id="node18" class="node">
<title>Node148</title>
<g id="a_node18"><a xlink:href="namespaceImGui.html#a27aa6f2f3aa11778c6d023b1b223f262" target="_top" xlink:title=" ">
<polygon fill="#fff0f0" stroke="red" points="716.5,-619.59 597.5,-619.59 597.5,-600.59 716.5,-600.59 716.5,-619.59"/>
<text text-anchor="middle" x="657" y="-607.59" font-family="Helvetica,sans-Serif" font-size="10.00">ImGui::FocusWindow</text>
</a>
</g>
</g>
<!-- Node3&#45;&gt;Node148 -->
<g id="edge18" class="edge">
<title>Node3&#45;&gt;Node148</title>
<path fill="none" stroke="#63b8ff" d="M455.19,-487.61C471.4,-509.85 515.18,-565.39 566,-592.09 572.67,-595.6 579.94,-598.42 587.38,-600.7"/>
<polygon fill="#63b8ff" stroke="#63b8ff" points="586.63,-604.12 597.2,-603.38 588.47,-597.37 586.63,-604.12"/>
</g>
<!-- Node155 -->
<g id="node23" class="node">
<title>Node155</title>
<g id="a_node23"><a xlink:href="namespaceImGui.html#a27b8ace13a8c421ee8405f0cbebe4ead" target="_top" xlink:title=" ">
<polygon fill="#fff0f0" stroke="red" points="1125.5,-578.59 1016.5,-578.59 1016.5,-559.59 1125.5,-559.59 1125.5,-578.59"/>
<text text-anchor="middle" x="1071" y="-566.59" font-family="Helvetica,sans-Serif" font-size="10.00">ImGui::SetActiveID</text>
</a>
</g>
</g>
<!-- Node3&#45;&gt;Node155 -->
<g id="edge50" class="edge">
<title>Node3&#45;&gt;Node155</title>
<path fill="none" stroke="#63b8ff" d="M452.92,-487.86C465.88,-515.25 506.61,-593.14 566,-629.09 636.32,-671.67 680.2,-615.6 748,-662.09 773.33,-679.47 757.21,-706.06 784,-721.09 852.21,-759.38 890.34,-756.67 960,-721.09 1015.23,-692.89 1049.15,-622.56 1062.91,-588.37"/>
<polygon fill="#63b8ff" stroke="#63b8ff" points="1066.33,-589.22 1066.67,-578.64 1059.8,-586.7 1066.33,-589.22"/>
</g>
<!-- Node169 -->
<g id="node28" class="node">
<title>Node169</title>
<g id="a_node28"><a xlink:href="namespaceImGui.html#a0de2d9bd347d9866511eb8d014e62556" target="_top" xlink:title=" ">
<polygon fill="#fff0f0" stroke="red" points="929,-257.59 815,-257.59 815,-238.59 929,-238.59 929,-257.59"/>
<text text-anchor="middle" x="872" y="-245.59" font-family="Helvetica,sans-Serif" font-size="10.00">ImGui::GetColorU32</text>
</a>
</g>
</g>
<!-- Node3&#45;&gt;Node169 -->
<g id="edge28" class="edge">
<title>Node3&#45;&gt;Node169</title>
<path fill="none" stroke="#63b8ff" d="M450.78,-468.24C459.17,-434.38 491.82,-322.35 566,-275.09 604.24,-250.73 726.95,-246.85 804.58,-246.97"/>
<polygon fill="#63b8ff" stroke="#63b8ff" points="804.73,-250.47 814.75,-247.01 804.76,-243.47 804.73,-250.47"/>
</g>
<!-- Node171 -->
<g id="node29" class="node">
<title>Node171</title>
<g id="a_node29"><a xlink:href="namespaceImGui.html#ac452417b5004ca16a814a72cff153526" target="_top" xlink:title=" ">
<polygon fill="white" stroke="#666666" points="729,-42.59 585,-42.59 585,-23.59 729,-23.59 729,-42.59"/>
<text text-anchor="middle" x="657" y="-30.59" font-family="Helvetica,sans-Serif" font-size="10.00">ImGui::GetCurrentWindow</text>
</a>
</g>
</g>
<!-- Node3&#45;&gt;Node171 -->
<g id="edge29" class="edge">
<title>Node3&#45;&gt;Node171</title>
<path fill="none" stroke="#63b8ff" d="M449.78,-468.4C457.64,-410.59 501.01,-111.62 566,-51.09 569,-48.3 572.3,-45.89 575.82,-43.81"/>
<polygon fill="#63b8ff" stroke="#63b8ff" points="577.54,-46.86 584.95,-39.29 574.43,-40.59 577.54,-46.86"/>
</g>
<!-- Node172 -->
<g id="node30" class="node">
<title>Node172</title>
<g id="a_node30"><a xlink:href="structImGuiWindow.html#afe084e59f7cd4da393ae30f0b4410b16" target="_top" xlink:title=" ">
<polygon fill="#fff0f0" stroke="red" points="716,-469.59 598,-469.59 598,-450.59 716,-450.59 716,-469.59"/>
<text text-anchor="middle" x="657" y="-457.59" font-family="Helvetica,sans-Serif" font-size="10.00">ImGuiWindow::GetID</text>
</a>
</g>
</g>
<!-- Node3&#45;&gt;Node172 -->
<g id="edge30" class="edge">
<title>Node3&#45;&gt;Node172</title>
<path fill="none" stroke="#63b8ff" d="M502.75,-473.39C528.73,-471.13 560.13,-468.41 587.73,-466.02"/>
<polygon fill="#63b8ff" stroke="#63b8ff" points="588.05,-469.5 597.71,-465.15 587.44,-462.53 588.05,-469.5"/>
</g>
<!-- Node175 -->
<g id="node31" class="node">
<title>Node175</title>
<g id="a_node31"><a xlink:href="namespaceImGui.html#a2d430db9485d0b3d86d51d5436225495" target="_top" xlink:title=" ">
<polygon fill="white" stroke="#666666" points="721,-414.59 593,-414.59 593,-395.59 721,-395.59 721,-414.59"/>
<text text-anchor="middle" x="657" y="-402.59" font-family="Helvetica,sans-Serif" font-size="10.00">ImGui::IsMouseClicked</text>
</a>
</g>
</g>
<!-- Node3&#45;&gt;Node175 -->
<g id="edge31" class="edge">
<title>Node3&#45;&gt;Node175</title>
<path fill="none" stroke="#63b8ff" d="M475.63,-468.55C512.37,-455.63 578.06,-432.51 619.22,-418.03"/>
<polygon fill="#63b8ff" stroke="#63b8ff" points="620.59,-421.26 628.87,-414.64 618.27,-414.66 620.59,-421.26"/>
</g>
<!-- Node176 -->
<g id="node32" class="node">
<title>Node176</title>
<g id="a_node32"><a xlink:href="namespaceImGui.html#a0c2ccafc8d403c02a6590ac21157b9ac" target="_top" xlink:title=" ">
<polygon fill="#fff0f0" stroke="red" points="703.5,-79.59 610.5,-79.59 610.5,-60.59 703.5,-60.59 703.5,-79.59"/>
<text text-anchor="middle" x="657" y="-67.59" font-family="Helvetica,sans-Serif" font-size="10.00">ImGui::ItemAdd</text>
</a>
</g>
</g>
<!-- Node3&#45;&gt;Node176 -->
<g id="edge33" class="edge">
<title>Node3&#45;&gt;Node176</title>
<path fill="none" stroke="#63b8ff" d="M448.11,-468.37C446.7,-419.2 447.22,-196.07 566,-88.09 575.4,-79.55 587.67,-74.58 600.11,-71.79"/>
<polygon fill="#63b8ff" stroke="#63b8ff" points="600.85,-75.21 610.07,-69.99 599.61,-68.33 600.85,-75.21"/>
</g>
<!-- Node214 -->
<g id="node33" class="node">
<title>Node214</title>
<g id="a_node33"><a xlink:href="namespaceImGui.html#a1d7304e335dbe35c4d97b67854111ed2" target="_top" xlink:title=" ">
<polygon fill="#fff0f0" stroke="red" points="719.5,-582.59 594.5,-582.59 594.5,-563.59 719.5,-563.59 719.5,-582.59"/>
<text text-anchor="middle" x="657" y="-570.59" font-family="Helvetica,sans-Serif" font-size="10.00">ImGui::ItemHoverable</text>
</a>
</g>
</g>
<!-- Node3&#45;&gt;Node214 -->
<g id="edge34" class="edge">
<title>Node3&#45;&gt;Node214</title>
<path fill="none" stroke="#63b8ff" d="M461.58,-487.71C482.6,-502.76 525.64,-531.93 566,-549.09 576.82,-553.69 588.75,-557.62 600.29,-560.88"/>
<polygon fill="#63b8ff" stroke="#63b8ff" points="599.73,-564.35 610.3,-563.57 601.55,-557.59 599.73,-564.35"/>
</g>
<!-- Node498 -->
<g id="node34" class="node">
<title>Node498</title>
<g id="a_node34"><a xlink:href="namespaceImGui.html#a4b5818a652d943ea54e0cec9fb3943d7" target="_top" xlink:title=" ">
<polygon fill="#fff0f0" stroke="red" points="704.5,-116.59 609.5,-116.59 609.5,-97.59 704.5,-97.59 704.5,-116.59"/>
<text text-anchor="middle" x="657" y="-104.59" font-family="Helvetica,sans-Serif" font-size="10.00">ImGui::ItemSize</text>
</a>
</g>
</g>
<!-- Node3&#45;&gt;Node498 -->
<g id="edge36" class="edge">
<title>Node3&#45;&gt;Node498</title>
<path fill="none" stroke="#63b8ff" d="M448.46,-468.36C448.82,-421.97 456.83,-221.51 566,-125.09 575.24,-116.94 587.11,-112.06 599.18,-109.24"/>
<polygon fill="#63b8ff" stroke="#63b8ff" points="600.14,-112.62 609.31,-107.32 598.83,-105.74 600.14,-112.62"/>
</g>
<!-- Node312 -->
<g id="node35" class="node">
<title>Node312</title>
<g id="a_node35"><a xlink:href="namespaceImGui.html#a66bc1e61bff5f2170bcd2d7d071eaa22" target="_top" xlink:title=" ">
<polygon fill="white" stroke="#666666" points="748,-340.59 566,-340.59 566,-321.59 748,-321.59 748,-340.59"/>
<text text-anchor="middle" x="657" y="-328.59" font-family="Helvetica,sans-Serif" font-size="10.00">ImGui::LogSetNextTextDecoration</text>
</a>
</g>
</g>
<!-- Node3&#45;&gt;Node312 -->
<g id="edge38" class="edge">
<title>Node3&#45;&gt;Node312</title>
<path fill="none" stroke="#63b8ff" d="M454.2,-468.41C469.12,-444 511.94,-379.67 566,-349.09 569.08,-347.35 572.29,-345.78 575.61,-344.36"/>
<polygon fill="#63b8ff" stroke="#63b8ff" points="577.04,-347.56 585.15,-340.74 574.56,-341.01 577.04,-347.56"/>
</g>
<!-- Node502 -->
<g id="node36" class="node">
<title>Node502</title>
<g id="a_node36"><a xlink:href="namespaceImGui.html#a83036681a36fbee2d35b5b57a1ef72e6" target="_top" xlink:title=" ">
<polygon fill="white" stroke="#666666" points="937,-913.59 807,-913.59 807,-894.59 937,-894.59 937,-913.59"/>
<text text-anchor="middle" x="872" y="-901.59" font-family="Helvetica,sans-Serif" font-size="10.00">ImGui::MarkItemEdited</text>
</a>
</g>
</g>
<!-- Node3&#45;&gt;Node502 -->
<g id="edge39" class="edge">
<title>Node3&#45;&gt;Node502</title>
<path fill="none" stroke="#63b8ff" d="M449.44,-487.75C455.55,-548.08 491.6,-872.56 566,-930.09 648.66,-994.01 784.27,-944.41 842.73,-917.96"/>
<polygon fill="#63b8ff" stroke="#63b8ff" points="844.47,-921.01 852.08,-913.63 841.53,-914.65 844.47,-921.01"/>
</g>
<!-- Node442 -->
<g id="node37" class="node">
<title>Node442</title>
<g id="a_node37"><a xlink:href="namespaceImGui.html#a6eb97ff501764c37df4ffd99ebadeba7" target="_top" xlink:title=" ">
<polygon fill="#fff0f0" stroke="red" points="715.5,-377.59 598.5,-377.59 598.5,-358.59 715.5,-358.59 715.5,-377.59"/>
<text text-anchor="middle" x="657" y="-365.59" font-family="Helvetica,sans-Serif" font-size="10.00">ImGui::RenderFrame</text>
</a>
</g>
</g>
<!-- Node3&#45;&gt;Node442 -->
<g id="edge40" class="edge">
<title>Node3&#45;&gt;Node442</title>
<path fill="none" stroke="#63b8ff" d="M457.52,-468.51C475.95,-449.53 520.1,-407.19 566,-386.09 573.02,-382.87 580.62,-380.21 588.31,-378.04"/>
<polygon fill="#63b8ff" stroke="#63b8ff" points="589.27,-381.41 598.08,-375.53 587.53,-374.63 589.27,-381.41"/>
</g>
<!-- Node311 -->
<g id="node38" class="node">
<title>Node311</title>
<g id="a_node38"><a xlink:href="namespaceImGui.html#a2722dcfe26c7f6e8cd522102ef5b7df2" target="_top" xlink:title=" ">
<polygon fill="#fff0f0" stroke="red" points="725.5,-303.59 588.5,-303.59 588.5,-284.59 725.5,-284.59 725.5,-303.59"/>
<text text-anchor="middle" x="657" y="-291.59" font-family="Helvetica,sans-Serif" font-size="10.00">ImGui::RenderNavCursor</text>
</a>
</g>
</g>
<!-- Node3&#45;&gt;Node311 -->
<g id="edge43" class="edge">
<title>Node3&#45;&gt;Node311</title>
<path fill="none" stroke="#63b8ff" d="M452.32,-468.27C464.21,-439.13 503.52,-352.68 566,-312.09 570.05,-309.47 574.39,-307.21 578.92,-305.27"/>
<polygon fill="#63b8ff" stroke="#63b8ff" points="580.26,-308.5 588.4,-301.72 577.81,-301.94 580.26,-308.5"/>
</g>
<!-- Node500 -->
<g id="node39" class="node">
<title>Node500</title>
<g id="a_node39"><a xlink:href="namespaceImGui.html#a9971ce57f2a288ac3a12df886c5550d1" target="_top" xlink:title=" ">
<polygon fill="#fff0f0" stroke="red" points="710.5,-190.59 603.5,-190.59 603.5,-171.59 710.5,-171.59 710.5,-190.59"/>
<text text-anchor="middle" x="657" y="-178.59" font-family="Helvetica,sans-Serif" font-size="10.00">ImGui::RenderText</text>
</a>
</g>
</g>
<!-- Node3&#45;&gt;Node500 -->
<g id="edge45" class="edge">
<title>Node3&#45;&gt;Node500</title>
<path fill="none" stroke="#63b8ff" d="M449.38,-468.54C453.63,-428.51 475.63,-272.89 566,-199.09 573.87,-192.67 583.4,-188.33 593.28,-185.43"/>
<polygon fill="#63b8ff" stroke="#63b8ff" points="594.34,-188.77 603.22,-182.99 592.67,-181.97 594.34,-188.77"/>
</g>
<!-- Node459 -->
<g id="node40" class="node">
<title>Node459</title>
<g id="a_node40"><a xlink:href="namespaceImGui.html#ab362eafae794c7364a6b96ea06f38eb9" target="_top" xlink:title=" ">
<polygon fill="#fff0f0" stroke="red" points="728.5,-227.59 585.5,-227.59 585.5,-208.59 728.5,-208.59 728.5,-227.59"/>
<text text-anchor="middle" x="657" y="-215.59" font-family="Helvetica,sans-Serif" font-size="10.00">ImGui::RenderTextClipped</text>
</a>
</g>
</g>
<!-- Node3&#45;&gt;Node459 -->
<g id="edge48" class="edge">
<title>Node3&#45;&gt;Node459</title>
<path fill="none" stroke="#63b8ff" d="M450.39,-468.21C457.85,-431.97 488.71,-305.2 566,-242.09 571.22,-237.83 577.12,-234.32 583.35,-231.43"/>
<polygon fill="#63b8ff" stroke="#63b8ff" points="584.73,-234.65 592.66,-227.63 582.08,-228.17 584.73,-234.65"/>
</g>
<!-- Node306 -->
<g id="node41" class="node">
<title>Node306</title>
<g id="a_node41"><a xlink:href="namespaceImGui.html#a8ad578d7141486ff12b59b0c251234e6" target="_top" xlink:title=" ">
<polygon fill="#fff0f0" stroke="red" points="710,-920.59 604,-920.59 604,-901.59 710,-901.59 710,-920.59"/>
<text text-anchor="middle" x="657" y="-908.59" font-family="Helvetica,sans-Serif" font-size="10.00">ImGui::SetFocusID</text>
</a>
</g>
</g>
<!-- Node3&#45;&gt;Node306 -->
<g id="edge51" class="edge">
<title>Node3&#45;&gt;Node306</title>
<path fill="none" stroke="#63b8ff" d="M449.88,-487.88C458.12,-544.98 502.63,-834.51 566,-893.09 573.8,-900.31 583.65,-904.98 593.94,-907.96"/>
<polygon fill="#63b8ff" stroke="#63b8ff" points="593.36,-911.41 603.9,-910.31 594.97,-904.6 593.36,-911.41"/>
</g>
<!-- Node308 -->
<g id="node42" class="node">
<title>Node308</title>
<g id="a_node42"><a xlink:href="namespaceImGui.html#ac415798dd69ab045cda84dd14a52c3ea" target="_top" xlink:title=" ">
<polygon fill="#fff0f0" stroke="red" points="715.5,-883.59 598.5,-883.59 598.5,-864.59 715.5,-864.59 715.5,-883.59"/>
<text text-anchor="middle" x="657" y="-871.59" font-family="Helvetica,sans-Serif" font-size="10.00">ImGui::SetKeyOwner</text>
</a>
</g>
</g>
<!-- Node3&#45;&gt;Node308 -->
<g id="edge52" class="edge">
<title>Node3&#45;&gt;Node308</title>
<path fill="none" stroke="#63b8ff" d="M448.21,-487.84C447.37,-536.18 450.36,-751.9 566,-856.09 572.54,-861.98 580.44,-866.17 588.82,-869.11"/>
<polygon fill="#63b8ff" stroke="#63b8ff" points="587.85,-872.48 598.43,-871.93 589.82,-865.76 587.85,-872.48"/>
</g>
<!-- Node503 -->
<g id="node43" class="node">
<title>Node503</title>
<g id="a_node43"><a xlink:href="namespaceImGui.html#af8d5d2cfa55221448e55e51b1abcfe93" target="_top" xlink:title=" ">
<polygon fill="white" stroke="#666666" points="718.5,-846.59 595.5,-846.59 595.5,-827.59 718.5,-827.59 718.5,-846.59"/>
<text text-anchor="middle" x="657" y="-834.59" font-family="Helvetica,sans-Serif" font-size="10.00">ImGui::SliderBehavior</text>
</a>
</g>
</g>
<!-- Node3&#45;&gt;Node503 -->
<g id="edge53" class="edge">
<title>Node3&#45;&gt;Node503</title>
<path fill="none" stroke="#63b8ff" d="M448.58,-487.81C449.54,-533.23 459.91,-726.39 566,-819.09 571.69,-824.07 578.36,-827.82 585.46,-830.62"/>
<polygon fill="#63b8ff" stroke="#63b8ff" points="584.75,-834.07 595.34,-833.89 586.95,-827.43 584.75,-834.07"/>
</g>
<!-- Node504 -->
<g id="node44" class="node">
<title>Node504</title>
<g id="a_node44"><a xlink:href="namespaceImGui.html#a4e5c8dd9a681f3b8f8f36b07d84ae0e5" target="_top" xlink:title=" ">
<polygon fill="white" stroke="#666666" points="728,-809.59 586,-809.59 586,-790.59 728,-790.59 728,-809.59"/>
<text text-anchor="middle" x="657" y="-797.59" font-family="Helvetica,sans-Serif" font-size="10.00">ImGui::TempInputIsActive</text>
</a>
</g>
</g>
<!-- Node3&#45;&gt;Node504 -->
<g id="edge54" class="edge">
<title>Node3&#45;&gt;Node504</title>
<path fill="none" stroke="#63b8ff" d="M449.26,-487.84C453.06,-529.44 473.62,-693.77 566,-776.09 570.49,-780.09 575.57,-783.43 580.97,-786.23"/>
<polygon fill="#63b8ff" stroke="#63b8ff" points="579.78,-789.53 590.33,-790.43 582.64,-783.14 579.78,-789.53"/>
</g>
<!-- Node505 -->
<g id="node45" class="node">
<title>Node505</title>
<g id="a_node45"><a xlink:href="namespaceImGui.html#a392fed3e7db2a75abf217bf84c6abce9" target="_top" xlink:title=" ">
<polygon fill="#fff0f0" stroke="red" points="723.5,-733.59 590.5,-733.59 590.5,-714.59 723.5,-714.59 723.5,-733.59"/>
<text text-anchor="middle" x="657" y="-721.59" font-family="Helvetica,sans-Serif" font-size="10.00">ImGui::TempInputScalar</text>
</a>
</g>
</g>
<!-- Node3&#45;&gt;Node505 -->
<g id="edge55" class="edge">
<title>Node3&#45;&gt;Node505</title>
<path fill="none" stroke="#63b8ff" d="M450.7,-487.88C459.02,-522.63 491.96,-641.16 566,-700.09 571.36,-704.36 577.4,-707.87 583.76,-710.75"/>
<polygon fill="#63b8ff" stroke="#63b8ff" points="582.68,-714.09 593.26,-714.56 585.28,-707.59 582.68,-714.09"/>
</g>
<!-- Node5 -->
<g id="node5" class="node">
<title>Node5</title>
<g id="a_node5"><a xlink:href="structImDrawList.html#aea9301cb99ebf4b27f5d3959017567c9" target="_top" xlink:title=" ">
<polygon fill="white" stroke="#666666" points="1146,-388.59 996,-388.59 996,-369.59 1146,-369.59 1146,-388.59"/>
<text text-anchor="middle" x="1071" y="-376.59" font-family="Helvetica,sans-Serif" font-size="10.00">ImDrawList::PathFillConvex</text>
</a>
</g>
</g>
<!-- Node4&#45;&gt;Node5 -->
<g id="edge4" class="edge">
<title>Node4&#45;&gt;Node5</title>
<path fill="none" stroke="#63b8ff" d="M929.74,-333.61C939.94,-335.95 950.38,-338.76 960,-342.09 976.9,-347.96 979.24,-353.83 996,-360.09 1002.51,-362.53 1009.46,-364.76 1016.39,-366.77"/>
<polygon fill="#63b8ff" stroke="#63b8ff" points="1015.91,-370.27 1026.48,-369.56 1017.77,-363.52 1015.91,-370.27"/>
</g>
<!-- Node6 -->
<g id="node6" class="node">
<title>Node6</title>
<g id="a_node6"><a xlink:href="structImDrawList.html#a2251eb264ed8b17a253c409787375053" target="_top" xlink:title=" ">
<polygon fill="#fff0f0" stroke="red" points="1131.5,-351.59 1010.5,-351.59 1010.5,-332.59 1131.5,-332.59 1131.5,-351.59"/>
<text text-anchor="middle" x="1071" y="-339.59" font-family="Helvetica,sans-Serif" font-size="10.00">ImDrawList::PathRect</text>
</a>
</g>
</g>
<!-- Node4&#45;&gt;Node6 -->
<g id="edge5" class="edge">
<title>Node4&#45;&gt;Node6</title>
<path fill="none" stroke="#63b8ff" d="M944.68,-330.64C962.79,-332.3 982.21,-334.07 1000.22,-335.72"/>
<polygon fill="#63b8ff" stroke="#63b8ff" points="1000.08,-339.22 1010.35,-336.64 1000.71,-332.25 1000.08,-339.22"/>
</g>
<!-- Node19 -->
<g id="node7" class="node">
<title>Node19</title>
<g id="a_node7"><a xlink:href="structImDrawList.html#ae2be093563f1d20b8190b7c423113925" target="_top" xlink:title=" ">
<polygon fill="white" stroke="#666666" points="1132,-314.59 1010,-314.59 1010,-295.59 1132,-295.59 1132,-314.59"/>
<text text-anchor="middle" x="1071" y="-302.59" font-family="Helvetica,sans-Serif" font-size="10.00">ImDrawList::PrimRect</text>
</a>
</g>
</g>
<!-- Node4&#45;&gt;Node19 -->
<g id="edge6" class="edge">
<title>Node4&#45;&gt;Node19</title>
<path fill="none" stroke="#63b8ff" d="M944.68,-317.18C962.52,-315.46 981.63,-313.62 999.42,-311.9"/>
<polygon fill="#63b8ff" stroke="#63b8ff" points="1000.1,-315.35 1009.72,-310.91 999.43,-308.38 1000.1,-315.35"/>
</g>
<!-- Node20 -->
<g id="node8" class="node">
<title>Node20</title>
<g id="a_node8"><a xlink:href="structImDrawList.html#a879aa38dbfb0344e3e023d65c002c7d7" target="_top" xlink:title=" ">
<polygon fill="#fff0f0" stroke="red" points="1141,-277.59 1001,-277.59 1001,-258.59 1141,-258.59 1141,-277.59"/>
<text text-anchor="middle" x="1071" y="-265.59" font-family="Helvetica,sans-Serif" font-size="10.00">ImDrawList::PrimReserve</text>
</a>
</g>
</g>
<!-- Node4&#45;&gt;Node20 -->
<g id="edge7" class="edge">
<title>Node4&#45;&gt;Node20</title>
<path fill="none" stroke="#63b8ff" d="M910.94,-314.53C926.28,-310.43 944.09,-305.37 960,-300.09 976.3,-294.69 979.62,-291.25 996,-286.09 1002.61,-284.01 1009.61,-282.03 1016.58,-280.19"/>
<polygon fill="#63b8ff" stroke="#63b8ff" points="1017.87,-283.48 1026.69,-277.61 1016.14,-276.69 1017.87,-283.48"/>
</g>
<!-- Node24 -->
<g id="node10" class="node">
<title>Node24</title>
<g id="a_node10"><a xlink:href="namespaceImGui.html#a410c8e19b2fea8b52746ca11b3930301" target="_top" xlink:title=" ">
<polygon fill="white" stroke="#666666" points="954.5,-370.59 789.5,-370.59 789.5,-351.59 954.5,-351.59 954.5,-370.59"/>
<text text-anchor="middle" x="872" y="-358.59" font-family="Helvetica,sans-Serif" font-size="10.00">ImGui::GetContentRegionAvail</text>
</a>
</g>
</g>
<!-- Node23&#45;&gt;Node24 -->
<g id="edge9" class="edge">
<title>Node23&#45;&gt;Node24</title>
<path fill="none" stroke="#63b8ff" d="M719.04,-493.67C729.59,-490.75 739.79,-486.17 748,-479.09 783.78,-448.26 748.32,-410.05 784,-379.09 785.32,-377.95 786.7,-376.87 788.12,-375.85"/>
<polygon fill="#63b8ff" stroke="#63b8ff" points="789.95,-378.83 796.72,-370.68 786.34,-372.83 789.95,-378.83"/>
</g>
<!-- Node25 -->
<g id="node11" class="node">
<title>Node25</title>
<g id="a_node11"><a xlink:href="imgui__internal_8h.html#a7667efd95147d0422f140917c71a9226" target="_top" xlink:title=" ">
<polygon fill="white" stroke="#666666" points="1096,-134.59 1046,-134.59 1046,-115.59 1096,-115.59 1096,-134.59"/>
<text text-anchor="middle" x="1071" y="-122.59" font-family="Helvetica,sans-Serif" font-size="10.00">ImMax</text>
</a>
</g>
</g>
<!-- Node23&#45;&gt;Node25 -->
<g id="edge10" class="edge">
<title>Node23&#45;&gt;Node25</title>
<path fill="none" stroke="#63b8ff" d="M719.42,-494.72C730.07,-491.72 740.2,-486.84 748,-479.09 804.03,-423.44 728.55,-361.33 784,-305.09 840.25,-248.04 892.25,-308.87 960,-266.09 1008.82,-235.27 1044.76,-174.82 1060.77,-144.05"/>
<polygon fill="#63b8ff" stroke="#63b8ff" points="1064.04,-145.35 1065.43,-134.84 1057.79,-142.19 1064.04,-145.35"/>
</g>
<!-- Node27 -->
<g id="node13" class="node">
<title>Node27</title>
<g id="a_node13"><a xlink:href="structImFont.html#a418146c00c3dee351a411b952cce5175" target="_top" xlink:title=" ">
<polygon fill="#fff0f0" stroke="red" points="934.5,-153.59 809.5,-153.59 809.5,-134.59 934.5,-134.59 934.5,-153.59"/>
<text text-anchor="middle" x="872" y="-141.59" font-family="Helvetica,sans-Serif" font-size="10.00">ImFont::CalcTextSizeA</text>
</a>
</g>
</g>
<!-- Node26&#45;&gt;Node27 -->
<g id="edge12" class="edge">
<title>Node26&#45;&gt;Node27</title>
<path fill="none" stroke="#63b8ff" d="M713.69,-144.09C739.81,-144.09 771.27,-144.09 799.17,-144.09"/>
<polygon fill="#63b8ff" stroke="#63b8ff" points="799.27,-147.59 809.27,-144.09 799.27,-140.59 799.27,-147.59"/>
</g>
<!-- Node144 -->
<g id="node14" class="node">
<title>Node144</title>
<g id="a_node14"><a xlink:href="namespaceImGui.html#a7671e1dbc803a31b06081b52a771d83f" target="_top" xlink:title=" ">
<polygon fill="white" stroke="#666666" points="950.5,-190.59 793.5,-190.59 793.5,-171.59 950.5,-171.59 950.5,-190.59"/>
<text text-anchor="middle" x="872" y="-178.59" font-family="Helvetica,sans-Serif" font-size="10.00">ImGui::FindRenderedTextEnd</text>
</a>
</g>
</g>
<!-- Node26&#45;&gt;Node144 -->
<g id="edge14" class="edge">
<title>Node26&#45;&gt;Node144</title>
<path fill="none" stroke="#63b8ff" d="M712.85,-153.62C741.31,-158.57 776.27,-164.64 806.07,-169.82"/>
<polygon fill="#63b8ff" stroke="#63b8ff" points="805.51,-173.27 815.96,-171.53 806.71,-166.37 805.51,-173.27"/>
</g>
<!-- Node27&#45;&gt;Node25 -->
<g id="edge13" class="edge">
<title>Node27&#45;&gt;Node25</title>
<path fill="none" stroke="#63b8ff" d="M934.52,-138.16C967.96,-134.94 1008.04,-131.07 1035.9,-128.38"/>
<polygon fill="#63b8ff" stroke="#63b8ff" points="1036.32,-131.86 1045.93,-127.42 1035.64,-124.89 1036.32,-131.86"/>
</g>
<!-- Node146 -->
<g id="node16" class="node">
<title>Node146</title>
<g id="a_node16"><a xlink:href="imgui_8cpp.html#a75ccaf7d676b1f567ba888ae42ac3809" target="_top" xlink:title=" ">
<polygon fill="white" stroke="#666666" points="1117,-824.59 1025,-824.59 1025,-805.59 1117,-805.59 1117,-824.59"/>
<text text-anchor="middle" x="1071" y="-812.59" font-family="Helvetica,sans-Serif" font-size="10.00">ImFormatString</text>
</a>
</g>
</g>
<!-- Node145&#45;&gt;Node146 -->
<g id="edge16" class="edge">
<title>Node145&#45;&gt;Node146</title>
<path fill="none" stroke="#63b8ff" d="M952.56,-815.09C973.47,-815.09 995.56,-815.09 1014.88,-815.09"/>
<polygon fill="#63b8ff" stroke="#63b8ff" points="1015,-818.59 1025,-815.09 1015,-811.59 1015,-818.59"/>
</g>
<!-- Node149 -->
<g id="node19" class="node">
<title>Node149</title>
<g id="a_node19"><a xlink:href="namespaceImGui.html#a8cae2f7a08f820a8d5349d1964603b20" target="_top" xlink:title=" ">
<polygon fill="#fff0f0" stroke="red" points="954,-504.09 790,-504.09 790,-474.09 954,-474.09 954,-504.09"/>
<text text-anchor="start" x="798" y="-492.09" font-family="Helvetica,sans-Serif" font-size="10.00">ImGui::BringWindowToDisplay</text>
<text text-anchor="middle" x="872" y="-481.09" font-family="Helvetica,sans-Serif" font-size="10.00">Behind</text>
</a>
</g>
</g>
<!-- Node148&#45;&gt;Node149 -->
<g id="edge19" class="edge">
<title>Node148&#45;&gt;Node149</title>
<path fill="none" stroke="#63b8ff" d="M716.71,-606.61C727.96,-603.76 739.01,-599.22 748,-592.09 778.24,-568.12 754.64,-538.13 784,-513.09 785.52,-511.8 787.1,-510.57 788.74,-509.41"/>
<polygon fill="#63b8ff" stroke="#63b8ff" points="790.65,-512.35 797.34,-504.14 786.99,-506.38 790.65,-512.35"/>
</g>
<!-- Node152 -->
<g id="node20" class="node">
<title>Node152</title>
<g id="a_node20"><a xlink:href="namespaceImGui.html#a1f7b95f36d03751c928af7b1b745e959" target="_top" xlink:title=" ">
<polygon fill="#fff0f0" stroke="red" points="954,-456.09 790,-456.09 790,-426.09 954,-426.09 954,-456.09"/>
<text text-anchor="start" x="798" y="-444.09" font-family="Helvetica,sans-Serif" font-size="10.00">ImGui::BringWindowToDisplay</text>
<text text-anchor="middle" x="872" y="-433.09" font-family="Helvetica,sans-Serif" font-size="10.00">Front</text>
</a>
</g>
</g>
<!-- Node148&#45;&gt;Node152 -->
<g id="edge20" class="edge">
<title>Node148&#45;&gt;Node152</title>
<path fill="none" stroke="#63b8ff" d="M716.66,-607.87C728.17,-604.98 739.34,-600.1 748,-592.09 791.09,-552.28 742.37,-506.43 784,-465.09 785.08,-464.02 786.2,-463 787.36,-462.02"/>
<polygon fill="#63b8ff" stroke="#63b8ff" points="789.41,-464.86 795.51,-456.19 785.34,-459.16 789.41,-464.86"/>
</g>
<!-- Node153 -->
<g id="node21" class="node">
<title>Node153</title>
<g id="a_node21"><a xlink:href="namespaceImGui.html#affe95a2dc969f0d15fbd4b588c94ac1a" target="_top" xlink:title=" ">
<polygon fill="#fff0f0" stroke="red" points="949.5,-712.09 794.5,-712.09 794.5,-682.09 949.5,-682.09 949.5,-712.09"/>
<text text-anchor="start" x="802.5" y="-700.09" font-family="Helvetica,sans-Serif" font-size="10.00">ImGui::BringWindowToFocus</text>
<text text-anchor="middle" x="872" y="-689.09" font-family="Helvetica,sans-Serif" font-size="10.00">Front</text>
</a>
</g>
</g>
<!-- Node148&#45;&gt;Node153 -->
<g id="edge21" class="edge">
<title>Node148&#45;&gt;Node153</title>
<path fill="none" stroke="#63b8ff" d="M713.78,-619.72C725.59,-623.17 737.62,-627.83 748,-634.09 768.2,-646.28 763.86,-660.82 784,-673.09 786.81,-674.81 789.74,-676.4 792.76,-677.88"/>
<polygon fill="#63b8ff" stroke="#63b8ff" points="791.48,-681.14 802.04,-682 794.32,-674.74 791.48,-681.14"/>
</g>
<!-- Node154 -->
<g id="node22" class="node">
<title>Node154</title>
<g id="a_node22"><a xlink:href="namespaceImGui.html#a17ff60ad1e2669130ac38a04d16eb354" target="_top" xlink:title=" ">
<polygon fill="white" stroke="#666666" points="931.5,-407.59 812.5,-407.59 812.5,-388.59 931.5,-388.59 931.5,-407.59"/>
<text text-anchor="middle" x="872" y="-395.59" font-family="Helvetica,sans-Serif" font-size="10.00">ImGui::ClearActiveID</text>
</a>
</g>
</g>
<!-- Node148&#45;&gt;Node154 -->
<g id="edge22" class="edge">
<title>Node148&#45;&gt;Node154</title>
<path fill="none" stroke="#63b8ff" d="M716.64,-608.46C728.29,-605.56 739.53,-600.52 748,-592.09 804.3,-536.1 728.19,-473.58 784,-417.09 789.3,-411.73 795.75,-407.71 802.7,-404.74"/>
<polygon fill="#63b8ff" stroke="#63b8ff" points="804.19,-407.92 812.45,-401.29 801.86,-401.32 804.19,-407.92"/>
</g>
<!-- Node157 -->
<g id="node24" class="node">
<title>Node157</title>
<g id="a_node24"><a xlink:href="namespaceImGui.html#a0076b153c697cb85e263fcbd59340bce" target="_top" xlink:title=" ">
<polygon fill="#fff0f0" stroke="red" points="960,-663.59 784,-663.59 784,-644.59 960,-644.59 960,-663.59"/>
<text text-anchor="middle" x="872" y="-651.59" font-family="Helvetica,sans-Serif" font-size="10.00">ImGui::ClosePopupsOverWindow</text>
</a>
</g>
</g>
<!-- Node148&#45;&gt;Node157 -->
<g id="edge24" class="edge">
<title>Node148&#45;&gt;Node157</title>
<path fill="none" stroke="#63b8ff" d="M704.22,-619.64C736.74,-626.36 780.43,-635.39 814.94,-642.51"/>
<polygon fill="#63b8ff" stroke="#63b8ff" points="814.37,-645.97 824.87,-644.57 815.79,-639.11 814.37,-645.97"/>
</g>
<!-- Node162 -->
<g id="node25" class="node">
<title>Node162</title>
<g id="a_node25"><a xlink:href="namespaceImGui.html#a196705a4195b41a57470ef6553cb440c" target="_top" xlink:title=" ">
<polygon fill="#fff0f0" stroke="red" points="944,-626.59 800,-626.59 800,-607.59 944,-607.59 944,-626.59"/>
<text text-anchor="middle" x="872" y="-614.59" font-family="Helvetica,sans-Serif" font-size="10.00">ImGui::FindBlockingModal</text>
</a>
</g>
</g>
<!-- Node148&#45;&gt;Node162 -->
<g id="edge25" class="edge">
<title>Node148&#45;&gt;Node162</title>
<path fill="none" stroke="#63b8ff" d="M716.77,-612.03C739.29,-612.77 765.39,-613.62 789.66,-614.42"/>
<polygon fill="#63b8ff" stroke="#63b8ff" points="789.82,-617.93 799.92,-614.76 790.05,-610.93 789.82,-617.93"/>
</g>
<!-- Node163 -->
<g id="node26" class="node">
<title>Node163</title>
<g id="a_node26"><a xlink:href="namespaceImGui.html#a6b905269b079f5e07755db52cc6e52df" target="_top" xlink:title=" ">
<polygon fill="white" stroke="#666666" points="957,-589.59 787,-589.59 787,-570.59 957,-570.59 957,-589.59"/>
<text text-anchor="middle" x="872" y="-577.59" font-family="Helvetica,sans-Serif" font-size="10.00">ImGui::GetTopMostPopupModal</text>
</a>
</g>
</g>
<!-- Node148&#45;&gt;Node163 -->
<g id="edge26" class="edge">
<title>Node148&#45;&gt;Node163</title>
<path fill="none" stroke="#63b8ff" d="M716.77,-601.82C740.47,-598.48 768.14,-594.58 793.45,-591.02"/>
<polygon fill="#63b8ff" stroke="#63b8ff" points="793.98,-594.48 803.39,-589.62 793,-587.55 793.98,-594.48"/>
</g>
<!-- Node164 -->
<g id="node27" class="node">
<title>Node164</title>
<g id="a_node27"><a xlink:href="namespaceImGui.html#ae9ed208c0b64e4919e5de1cb83b2db2a" target="_top" xlink:title=" ">
<polygon fill="#fff0f0" stroke="red" points="949,-552.09 795,-552.09 795,-522.09 949,-522.09 949,-552.09"/>
<text text-anchor="start" x="803" y="-540.09" font-family="Helvetica,sans-Serif" font-size="10.00">ImGui::NavRestoreLastChild</text>
<text text-anchor="middle" x="872" y="-529.09" font-family="Helvetica,sans-Serif" font-size="10.00">NavWindow</text>
</a>
</g>
</g>
<!-- Node148&#45;&gt;Node164 -->
<g id="edge27" class="edge">
<title>Node148&#45;&gt;Node164</title>
<path fill="none" stroke="#63b8ff" d="M716.51,-602.79C727.29,-600.23 738.22,-596.77 748,-592.09 766.79,-583.11 765.6,-571.85 784,-562.09 788.29,-559.82 792.81,-557.73 797.44,-555.82"/>
<polygon fill="#63b8ff" stroke="#63b8ff" points="798.98,-558.98 807.07,-552.13 796.48,-552.44 798.98,-558.98"/>
</g>
<!-- Node154&#45;&gt;Node155 -->
<g id="edge23" class="edge">
<title>Node154&#45;&gt;Node155</title>
<path fill="none" stroke="#63b8ff" d="M931.53,-404.72C941.55,-407.53 951.46,-411.5 960,-417.09 1011.4,-450.74 1046.76,-517.31 1061.83,-550.03"/>
<polygon fill="#63b8ff" stroke="#63b8ff" points="1058.73,-551.67 1066,-559.38 1065.12,-548.82 1058.73,-551.67"/>
</g>
<!-- Node175&#45;&gt;Node175 -->
<g id="edge32" class="edge">
<title>Node175&#45;&gt;Node175</title>
<path fill="none" stroke="#63b8ff" d="M624.94,-414.68C609.34,-423.33 620.03,-432.59 657,-432.59 683.57,-432.59 696.57,-427.81 695.98,-421.9"/>
<polygon fill="#63b8ff" stroke="#63b8ff" points="698.5,-419.48 689.06,-414.68 693.45,-424.32 698.5,-419.48"/>
</g>
<!-- Node214&#45;&gt;Node154 -->
<g id="edge35" class="edge">
<title>Node214&#45;&gt;Node154</title>
<path fill="none" stroke="#63b8ff" d="M719.71,-565.82C730.2,-562.18 740.2,-556.85 748,-549.09 791.12,-506.22 739.91,-458.98 784,-417.09 789.39,-411.97 795.83,-408.1 802.74,-405.2"/>
<polygon fill="#63b8ff" stroke="#63b8ff" points="804.11,-408.42 812.38,-401.8 801.79,-401.82 804.11,-408.42"/>
</g>
<!-- Node498&#45;&gt;Node25 -->
<g id="edge37" class="edge">
<title>Node498&#45;&gt;Node25</title>
<path fill="none" stroke="#63b8ff" d="M704.86,-109.14C788.49,-112.79 961.57,-120.36 1035.41,-123.58"/>
<polygon fill="#63b8ff" stroke="#63b8ff" points="1035.41,-127.09 1045.56,-124.03 1035.72,-120.09 1035.41,-127.09"/>
</g>
<!-- Node442&#45;&gt;Node4 -->
<g id="edge41" class="edge">
<title>Node442&#45;&gt;Node4</title>
<path fill="none" stroke="#63b8ff" d="M704.22,-358.55C736.74,-351.83 780.43,-342.8 814.94,-335.67"/>
<polygon fill="#63b8ff" stroke="#63b8ff" points="815.79,-339.07 824.87,-333.62 814.37,-332.22 815.79,-339.07"/>
</g>
<!-- Node442&#45;&gt;Node169 -->
<g id="edge42" class="edge">
<title>Node442&#45;&gt;Node169</title>
<path fill="none" stroke="#63b8ff" d="M715.75,-364.08C727.32,-361.13 738.74,-356.44 748,-349.09 777.59,-325.61 755.14,-296.47 784,-272.09 790.21,-266.85 797.48,-262.74 805.12,-259.53"/>
<polygon fill="#63b8ff" stroke="#63b8ff" points="806.41,-262.78 814.58,-256.04 803.99,-256.22 806.41,-262.78"/>
</g>
<!-- Node311&#45;&gt;Node169 -->
<g id="edge44" class="edge">
<title>Node311&#45;&gt;Node169</title>
<path fill="none" stroke="#63b8ff" d="M702.13,-284.56C735.41,-277.38 781.22,-267.48 816.73,-259.81"/>
<polygon fill="#63b8ff" stroke="#63b8ff" points="817.89,-263.15 826.92,-257.61 816.41,-256.3 817.89,-263.15"/>
</g>
<!-- Node500&#45;&gt;Node144 -->
<g id="edge46" class="edge">
<title>Node500&#45;&gt;Node144</title>
<path fill="none" stroke="#63b8ff" d="M710.65,-181.09C732.52,-181.09 758.51,-181.09 783.12,-181.09"/>
<polygon fill="#63b8ff" stroke="#63b8ff" points="783.2,-184.59 793.2,-181.09 783.2,-177.59 783.2,-184.59"/>
</g>
<!-- Node500&#45;&gt;Node169 -->
<g id="edge47" class="edge">
<title>Node500&#45;&gt;Node169</title>
<path fill="none" stroke="#63b8ff" d="M710.74,-189.97C723.07,-192.51 736.08,-195.56 748,-199.09 780.49,-208.73 816.35,-223.52 840.93,-234.33"/>
<polygon fill="#63b8ff" stroke="#63b8ff" points="839.52,-237.53 850.08,-238.4 842.37,-231.14 839.52,-237.53"/>
</g>
<!-- Node459&#45;&gt;Node144 -->
<g id="edge49" class="edge">
<title>Node459&#45;&gt;Node144</title>
<path fill="none" stroke="#63b8ff" d="M712.85,-208.57C741.31,-203.62 776.27,-197.55 806.07,-192.37"/>
<polygon fill="#63b8ff" stroke="#63b8ff" points="806.71,-195.81 815.96,-190.65 805.51,-188.92 806.71,-195.81"/>
</g>
<!-- Node505&#45;&gt;Node145 -->
<g id="edge56" class="edge">
<title>Node505&#45;&gt;Node145</title>
<path fill="none" stroke="#63b8ff" d="M717.16,-733.73C728,-737.16 738.78,-741.8 748,-748.09 770.32,-763.33 761.26,-782.5 784,-797.09 786.49,-798.7 789.11,-800.16 791.8,-801.49"/>
<polygon fill="#63b8ff" stroke="#63b8ff" points="790.67,-804.82 801.24,-805.56 793.44,-798.39 790.67,-804.82"/>
</g>
<!-- Node505&#45;&gt;Node147 -->
<g id="edge57" class="edge">
<title>Node505&#45;&gt;Node147</title>
<path fill="none" stroke="#63b8ff" d="M695.59,-733.62C731.22,-742.66 784.89,-756.26 823.47,-766.04"/>
<polygon fill="#63b8ff" stroke="#63b8ff" points="822.87,-769.5 833.43,-768.57 824.6,-762.72 822.87,-769.5"/>
</g>
<!-- Node505&#45;&gt;Node502 -->
<g id="edge58" class="edge">
<title>Node505&#45;&gt;Node502</title>
<path fill="none" stroke="#63b8ff" d="M677.46,-733.72C696.81,-743.93 726.62,-761.41 748,-782.09 768.2,-801.64 764.85,-813.52 784,-834.09 803.63,-855.19 829.81,-875.4 848.3,-888.63"/>
<polygon fill="#63b8ff" stroke="#63b8ff" points="846.51,-891.64 856.7,-894.53 850.53,-885.92 846.51,-891.64"/>
</g>
<!-- Node557&#45;&gt;Node3 -->
<g id="edge60" class="edge">
<title>Node557&#45;&gt;Node3</title>
<path fill="none" stroke="#63b8ff" d="M208.23,-477.25C255.13,-477.42 328.87,-477.68 381.9,-477.87"/>
<polygon fill="#63b8ff" stroke="#63b8ff" points="382.2,-481.37 392.22,-477.9 382.23,-474.37 382.2,-481.37"/>
</g>
<!-- Node492 -->
<g id="node48" class="node">
<title>Node492</title>
<g id="a_node48"><a xlink:href="namespaceImGui.html#a10a0d6362178c2f743092f21e1b6cd20" target="_top" xlink:title=" ">
<polygon fill="white" stroke="#666666" points="329,-79.59 250,-79.59 250,-60.59 329,-60.59 329,-79.59"/>
<text text-anchor="middle" x="289.5" y="-67.59" font-family="Helvetica,sans-Serif" font-size="10.00">ImGui::TextV</text>
</a>
</g>
</g>
<!-- Node558&#45;&gt;Node492 -->
<g id="edge62" class="edge">
<title>Node558&#45;&gt;Node492</title>
<path fill="none" stroke="#63b8ff" d="M169.22,-254.47C189,-223.9 250.66,-128.59 276.7,-88.33"/>
<polygon fill="#63b8ff" stroke="#63b8ff" points="279.75,-90.07 282.24,-79.77 273.87,-86.27 279.75,-90.07"/>
</g>
<!-- Node492&#45;&gt;Node171 -->
<g id="edge63" class="edge">
<title>Node492&#45;&gt;Node171</title>
<path fill="none" stroke="#63b8ff" d="M329.27,-66.17C387.38,-60.29 498.39,-49.05 574.76,-41.32"/>
<polygon fill="#63b8ff" stroke="#63b8ff" points="575.23,-44.79 584.83,-40.3 574.52,-37.82 575.23,-44.79"/>
</g>
<!-- Node493 -->
<g id="node49" class="node">
<title>Node493</title>
<g id="a_node49"><a xlink:href="imgui_8cpp.html#a7d2a77b9735185891f885970b1e54626" target="_top" xlink:title=" ">
<polygon fill="#fff0f0" stroke="red" points="530,-22.59 365,-22.59 365,-3.59 530,-3.59 530,-22.59"/>
<text text-anchor="middle" x="447.5" y="-10.59" font-family="Helvetica,sans-Serif" font-size="10.00">ImFormatStringToTempBufferV</text>
</a>
</g>
</g>
<!-- Node492&#45;&gt;Node493 -->
<g id="edge64" class="edge">
<title>Node492&#45;&gt;Node493</title>
<path fill="none" stroke="#63b8ff" d="M310.13,-60.55C324.99,-53.54 346.01,-44.06 365,-37.09 376.47,-32.89 389.04,-28.89 400.81,-25.41"/>
<polygon fill="#63b8ff" stroke="#63b8ff" points="401.83,-28.76 410.47,-22.61 399.89,-22.03 401.83,-28.76"/>
</g>
<!-- Node494 -->
<g id="node50" class="node">
<title>Node494</title>
<g id="a_node50"><a xlink:href="namespaceImGui.html#aae6420fec03511fd478d9108f31e6b5f" target="_top" xlink:title=" ">
<polygon fill="#fff0f0" stroke="red" points="489.5,-98.59 405.5,-98.59 405.5,-79.59 489.5,-79.59 489.5,-98.59"/>
<text text-anchor="middle" x="447.5" y="-86.59" font-family="Helvetica,sans-Serif" font-size="10.00">ImGui::TextEx</text>
</a>
</g>
</g>
<!-- Node492&#45;&gt;Node494 -->
<g id="edge65" class="edge">
<title>Node492&#45;&gt;Node494</title>
<path fill="none" stroke="#63b8ff" d="M329.06,-74.79C349.08,-77.23 373.8,-80.24 395.39,-82.87"/>
<polygon fill="#63b8ff" stroke="#63b8ff" points="395.03,-86.35 405.38,-84.09 395.88,-79.4 395.03,-86.35"/>
</g>
<!-- Node494&#45;&gt;Node25 -->
<g id="edge68" class="edge">
<title>Node494&#45;&gt;Node25</title>
<path fill="none" stroke="#63b8ff" d="M461.48,-79.47C487.03,-60.76 543.35,-20.71 566,-14.09 643.65,8.57 668.22,-0.73 748,-14.09 859.96,-32.85 985.08,-85.9 1040.66,-111.26"/>
<polygon fill="#63b8ff" stroke="#63b8ff" points="1039.35,-114.51 1049.9,-115.51 1042.28,-108.15 1039.35,-114.51"/>
</g>
<!-- Node494&#45;&gt;Node26 -->
<g id="edge66" class="edge">
<title>Node494&#45;&gt;Node26</title>
<path fill="none" stroke="#63b8ff" d="M477.27,-98.69C500.93,-106.4 535.43,-117.2 566,-125.09 575.96,-127.67 586.61,-130.15 596.96,-132.42"/>
<polygon fill="#63b8ff" stroke="#63b8ff" points="596.26,-135.85 606.77,-134.53 597.73,-129 596.26,-135.85"/>
</g>
<!-- Node494&#45;&gt;Node171 -->
<g id="edge67" class="edge">
<title>Node494&#45;&gt;Node171</title>
<path fill="none" stroke="#63b8ff" d="M483.2,-79.57C497.75,-75.4 514.78,-70.28 530,-65.09 546.25,-59.55 549.52,-55.91 566,-51.09 573.83,-48.81 582.13,-46.72 590.39,-44.83"/>
<polygon fill="#63b8ff" stroke="#63b8ff" points="591.4,-48.19 600.42,-42.64 589.9,-41.36 591.4,-48.19"/>
</g>
<!-- Node494&#45;&gt;Node176 -->
<g id="edge69" class="edge">
<title>Node494&#45;&gt;Node176</title>
<path fill="none" stroke="#63b8ff" d="M489.99,-85.29C521.64,-82.4 565.55,-78.38 600.26,-75.2"/>
<polygon fill="#63b8ff" stroke="#63b8ff" points="600.61,-78.68 610.25,-74.28 599.98,-71.71 600.61,-78.68"/>
</g>
<!-- Node494&#45;&gt;Node498 -->
<g id="edge70" class="edge">
<title>Node494&#45;&gt;Node498</title>
<path fill="none" stroke="#63b8ff" d="M489.99,-92.69C521.18,-95.4 564.28,-99.14 598.75,-102.13"/>
<polygon fill="#63b8ff" stroke="#63b8ff" points="598.88,-105.65 609.15,-103.03 599.49,-98.68 598.88,-105.65"/>
</g>
<!-- Node494&#45;&gt;Node500 -->
<g id="edge71" class="edge">
<title>Node494&#45;&gt;Node500</title>
<path fill="none" stroke="#63b8ff" d="M460.75,-98.75C481.3,-114.45 524.55,-145.44 566,-162.09 574.6,-165.55 583.92,-168.41 593.2,-170.78"/>
<polygon fill="#63b8ff" stroke="#63b8ff" points="592.67,-174.25 603.21,-173.15 594.29,-167.44 592.67,-174.25"/>
</g>
</g>
</svg>
