<?xml version="1.0" encoding="UTF-8" standalone="no"?>
<!DOCTYPE svg PUBLIC "-//W3C//DTD SVG 1.1//EN"
 "http://www.w3.org/Graphics/SVG/1.1/DTD/svg11.dtd">
<!-- Generated by graphviz version 2.43.0 (0)
 -->
<!-- Title: ShowAttributes.h Pages: 1 -->
<svg width="1492pt" height="302pt"
 viewBox="0.00 0.00 1491.50 302.00" xmlns="http://www.w3.org/2000/svg" xmlns:xlink="http://www.w3.org/1999/xlink">
<g id="graph0" class="graph" transform="scale(1 1) rotate(0) translate(4 298)">
<title>ShowAttributes.h</title>
<!-- Node1 -->
<g id="node1" class="node">
<title>Node1</title>
<g id="a_node1"><a xlink:title=" ">
<polygon fill="#999999" stroke="#666666" points="1242,-294 1142,-294 1142,-275 1242,-275 1242,-294"/>
<text text-anchor="middle" x="1192" y="-282" font-family="Helvetica,sans-Serif" font-size="10.00">ShowAttributes.h</text>
</a>
</g>
</g>
<!-- Node2 -->
<g id="node2" class="node">
<title>Node2</title>
<g id="a_node2"><a xlink:href="refl_8hpp.html" target="_top" xlink:title=" ">
<polygon fill="white" stroke="#666666" points="467.5,-239 414.5,-239 414.5,-220 467.5,-220 467.5,-239"/>
<text text-anchor="middle" x="441" y="-227" font-family="Helvetica,sans-Serif" font-size="10.00">refl.hpp</text>
</a>
</g>
</g>
<!-- Node1&#45;&gt;Node2 -->
<g id="edge1" class="edge">
<title>Node1&#45;&gt;Node2</title>
<path fill="none" stroke="#63b8ff" d="M1141.85,-279.96C1000.56,-269.99 601.46,-241.82 477.92,-233.11"/>
<polygon fill="#63b8ff" stroke="#63b8ff" points="478.05,-229.61 467.83,-232.39 477.56,-236.59 478.05,-229.61"/>
</g>
<!-- Node15 -->
<g id="node15" class="node">
<title>Node15</title>
<g id="a_node15"><a xlink:href="imgui_8h.html" target="_top" xlink:title=" ">
<polygon fill="white" stroke="#666666" points="1091.5,-239 996.5,-239 996.5,-220 1091.5,-220 1091.5,-239"/>
<text text-anchor="middle" x="1044" y="-227" font-family="Helvetica,sans-Serif" font-size="10.00">../ImGui/imgui.h</text>
</a>
</g>
</g>
<!-- Node1&#45;&gt;Node15 -->
<g id="edge14" class="edge">
<title>Node1&#45;&gt;Node15</title>
<path fill="none" stroke="#63b8ff" d="M1168.22,-274.98C1143.77,-266.23 1105.47,-252.51 1077.85,-242.62"/>
<polygon fill="#63b8ff" stroke="#63b8ff" points="1078.81,-239.25 1068.21,-239.17 1076.45,-245.84 1078.81,-239.25"/>
</g>
<!-- Node21 -->
<g id="node21" class="node">
<title>Node21</title>
<g id="a_node21"><a xlink:href="Vector3_8h.html" target="_top" xlink:title=" ">
<polygon fill="white" stroke="#666666" points="1298,-184 1236,-184 1236,-165 1298,-165 1298,-184"/>
<text text-anchor="middle" x="1267" y="-172" font-family="Helvetica,sans-Serif" font-size="10.00">Vector3.h</text>
</a>
</g>
</g>
<!-- Node1&#45;&gt;Node21 -->
<g id="edge21" class="edge">
<title>Node1&#45;&gt;Node21</title>
<path fill="none" stroke="#63b8ff" d="M1192.9,-275C1194.61,-262.12 1199.26,-237.34 1211,-220 1219.24,-207.83 1231.83,-197.4 1242.99,-189.7"/>
<polygon fill="#63b8ff" stroke="#63b8ff" points="1245.06,-192.53 1251.52,-184.14 1241.23,-186.67 1245.06,-192.53"/>
</g>
<!-- Node24 -->
<g id="node24" class="node">
<title>Node24</title>
<g id="a_node24"><a xlink:href="ShowFunc_8h.html" target="_top" xlink:title=" ">
<polygon fill="white" stroke="#666666" points="1396,-239 1322,-239 1322,-220 1396,-220 1396,-239"/>
<text text-anchor="middle" x="1359" y="-227" font-family="Helvetica,sans-Serif" font-size="10.00">ShowFunc.h</text>
</a>
</g>
</g>
<!-- Node1&#45;&gt;Node24 -->
<g id="edge24" class="edge">
<title>Node1&#45;&gt;Node24</title>
<path fill="none" stroke="#63b8ff" d="M1218.83,-274.98C1246.87,-266.09 1291.05,-252.07 1322.3,-242.15"/>
<polygon fill="#63b8ff" stroke="#63b8ff" points="1323.49,-245.44 1331.96,-239.08 1321.37,-238.77 1323.49,-245.44"/>
</g>
<!-- Node30 -->
<g id="node30" class="node">
<title>Node30</title>
<g id="a_node30"><a xlink:href="QuatToEuler_8h.html" target="_top" xlink:title=" ">
<polygon fill="white" stroke="#666666" points="1303.5,-239 1220.5,-239 1220.5,-220 1303.5,-220 1303.5,-239"/>
<text text-anchor="middle" x="1262" y="-227" font-family="Helvetica,sans-Serif" font-size="10.00">QuatToEuler.h</text>
</a>
</g>
</g>
<!-- Node1&#45;&gt;Node30 -->
<g id="edge31" class="edge">
<title>Node1&#45;&gt;Node30</title>
<path fill="none" stroke="#63b8ff" d="M1203.25,-274.98C1213.8,-267 1229.8,-254.88 1242.44,-245.31"/>
<polygon fill="#63b8ff" stroke="#63b8ff" points="1244.69,-248 1250.55,-239.17 1240.46,-242.42 1244.69,-248"/>
</g>
<!-- Node3 -->
<g id="node3" class="node">
<title>Node3</title>
<g id="a_node3"><a xlink:title=" ">
<polygon fill="#e0e0e0" stroke="#999999" points="846,-184 790,-184 790,-165 846,-165 846,-184"/>
<text text-anchor="middle" x="818" y="-172" font-family="Helvetica,sans-Serif" font-size="10.00">stddef.h</text>
</a>
</g>
</g>
<!-- Node2&#45;&gt;Node3 -->
<g id="edge2" class="edge">
<title>Node2&#45;&gt;Node3</title>
<path fill="none" stroke="#63b8ff" d="M467.93,-225.79C525.47,-219.83 664.56,-204.45 780,-184 780.1,-183.98 780.2,-183.96 780.3,-183.95"/>
<polygon fill="#63b8ff" stroke="#63b8ff" points="780.69,-187.44 789.83,-182.09 779.35,-180.57 780.69,-187.44"/>
</g>
<!-- Node4 -->
<g id="node4" class="node">
<title>Node4</title>
<g id="a_node4"><a xlink:title=" ">
<polygon fill="#e0e0e0" stroke="#999999" points="50,-184 0,-184 0,-165 50,-165 50,-184"/>
<text text-anchor="middle" x="25" y="-172" font-family="Helvetica,sans-Serif" font-size="10.00">cstring</text>
</a>
</g>
</g>
<!-- Node2&#45;&gt;Node4 -->
<g id="edge3" class="edge">
<title>Node2&#45;&gt;Node4</title>
<path fill="none" stroke="#63b8ff" d="M414.43,-226.59C353.48,-221.96 198.83,-208.79 60.13,-183.98"/>
<polygon fill="#63b8ff" stroke="#63b8ff" points="60.64,-180.52 50.17,-182.18 59.39,-187.41 60.64,-180.52"/>
</g>
<!-- Node5 -->
<g id="node5" class="node">
<title>Node5</title>
<g id="a_node5"><a xlink:title=" ">
<polygon fill="#e0e0e0" stroke="#999999" points="110,-184 68,-184 68,-165 110,-165 110,-184"/>
<text text-anchor="middle" x="89" y="-172" font-family="Helvetica,sans-Serif" font-size="10.00">array</text>
</a>
</g>
</g>
<!-- Node2&#45;&gt;Node5 -->
<g id="edge4" class="edge">
<title>Node2&#45;&gt;Node5</title>
<path fill="none" stroke="#63b8ff" d="M414.49,-226.09C360.73,-220.95 234.93,-207.55 120.21,-183.99"/>
<polygon fill="#63b8ff" stroke="#63b8ff" points="120.72,-180.52 110.21,-181.9 119.29,-187.37 120.72,-180.52"/>
</g>
<!-- Node6 -->
<g id="node6" class="node">
<title>Node6</title>
<g id="a_node6"><a xlink:title=" ">
<polygon fill="#e0e0e0" stroke="#999999" points="173.5,-184 128.5,-184 128.5,-165 173.5,-165 173.5,-184"/>
<text text-anchor="middle" x="151" y="-172" font-family="Helvetica,sans-Serif" font-size="10.00">utility</text>
</a>
</g>
</g>
<!-- Node2&#45;&gt;Node6 -->
<g id="edge5" class="edge">
<title>Node2&#45;&gt;Node6</title>
<path fill="none" stroke="#63b8ff" d="M414.48,-224.72C369.2,-218.1 273.93,-203.43 183.53,-183.94"/>
<polygon fill="#63b8ff" stroke="#63b8ff" points="184.18,-180.5 173.67,-181.79 182.69,-187.34 184.18,-180.5"/>
</g>
<!-- Node7 -->
<g id="node7" class="node">
<title>Node7</title>
<g id="a_node7"><a xlink:title=" ">
<polygon fill="#e0e0e0" stroke="#999999" points="248,-184 192,-184 192,-165 248,-165 248,-184"/>
<text text-anchor="middle" x="220" y="-172" font-family="Helvetica,sans-Serif" font-size="10.00">optional</text>
</a>
</g>
</g>
<!-- Node2&#45;&gt;Node7 -->
<g id="edge6" class="edge">
<title>Node2&#45;&gt;Node7</title>
<path fill="none" stroke="#63b8ff" d="M414.34,-222.11C375.36,-212.76 302.61,-195.31 258.02,-184.62"/>
<polygon fill="#63b8ff" stroke="#63b8ff" points="258.69,-181.18 248.15,-182.25 257.05,-187.99 258.69,-181.18"/>
</g>
<!-- Node8 -->
<g id="node8" class="node">
<title>Node8</title>
<g id="a_node8"><a xlink:title=" ">
<polygon fill="#e0e0e0" stroke="#999999" points="307.5,-184 266.5,-184 266.5,-165 307.5,-165 307.5,-184"/>
<text text-anchor="middle" x="287" y="-172" font-family="Helvetica,sans-Serif" font-size="10.00">tuple</text>
</a>
</g>
</g>
<!-- Node2&#45;&gt;Node8 -->
<g id="edge7" class="edge">
<title>Node2&#45;&gt;Node8</title>
<path fill="none" stroke="#63b8ff" d="M416.26,-219.98C389.33,-210.72 346.27,-195.9 317.33,-185.94"/>
<polygon fill="#63b8ff" stroke="#63b8ff" points="318.33,-182.58 307.73,-182.63 316.05,-189.2 318.33,-182.58"/>
</g>
<!-- Node9 -->
<g id="node9" class="node">
<title>Node9</title>
<g id="a_node9"><a xlink:title=" ">
<polygon fill="#e0e0e0" stroke="#999999" points="394.5,-184 325.5,-184 325.5,-165 394.5,-165 394.5,-184"/>
<text text-anchor="middle" x="360" y="-172" font-family="Helvetica,sans-Serif" font-size="10.00">type_traits</text>
</a>
</g>
</g>
<!-- Node2&#45;&gt;Node9 -->
<g id="edge8" class="edge">
<title>Node2&#45;&gt;Node9</title>
<path fill="none" stroke="#63b8ff" d="M427.99,-219.98C415.54,-211.84 396.54,-199.41 381.79,-189.76"/>
<polygon fill="#63b8ff" stroke="#63b8ff" points="383.54,-186.72 373.25,-184.17 379.7,-192.57 383.54,-186.72"/>
</g>
<!-- Node10 -->
<g id="node10" class="node">
<title>Node10</title>
<g id="a_node10"><a xlink:title=" ">
<polygon fill="#e0e0e0" stroke="#999999" points="469.5,-184 412.5,-184 412.5,-165 469.5,-165 469.5,-184"/>
<text text-anchor="middle" x="441" y="-172" font-family="Helvetica,sans-Serif" font-size="10.00">ostream</text>
</a>
</g>
</g>
<!-- Node2&#45;&gt;Node10 -->
<g id="edge9" class="edge">
<title>Node2&#45;&gt;Node10</title>
<path fill="none" stroke="#63b8ff" d="M441,-219.75C441,-212.8 441,-202.85 441,-194.13"/>
<polygon fill="#63b8ff" stroke="#63b8ff" points="444.5,-194.09 441,-184.09 437.5,-194.09 444.5,-194.09"/>
</g>
<!-- Node11 -->
<g id="node11" class="node">
<title>Node11</title>
<g id="a_node11"><a xlink:title=" ">
<polygon fill="#e0e0e0" stroke="#999999" points="544,-184 488,-184 488,-165 544,-165 544,-184"/>
<text text-anchor="middle" x="516" y="-172" font-family="Helvetica,sans-Serif" font-size="10.00">sstream</text>
</a>
</g>
</g>
<!-- Node2&#45;&gt;Node11 -->
<g id="edge10" class="edge">
<title>Node2&#45;&gt;Node11</title>
<path fill="none" stroke="#63b8ff" d="M453.05,-219.98C464.46,-211.92 481.83,-199.65 495.43,-190.03"/>
<polygon fill="#63b8ff" stroke="#63b8ff" points="497.58,-192.8 503.73,-184.17 493.54,-187.08 497.58,-192.8"/>
</g>
<!-- Node12 -->
<g id="node12" class="node">
<title>Node12</title>
<g id="a_node12"><a xlink:title=" ">
<polygon fill="#e0e0e0" stroke="#999999" points="618,-184 562,-184 562,-165 618,-165 618,-184"/>
<text text-anchor="middle" x="590" y="-172" font-family="Helvetica,sans-Serif" font-size="10.00">iomanip</text>
</a>
</g>
</g>
<!-- Node2&#45;&gt;Node12 -->
<g id="edge11" class="edge">
<title>Node2&#45;&gt;Node12</title>
<path fill="none" stroke="#63b8ff" d="M464.94,-219.98C489.56,-211.23 528.12,-197.51 555.92,-187.62"/>
<polygon fill="#63b8ff" stroke="#63b8ff" points="557.38,-190.82 565.62,-184.17 555.03,-184.22 557.38,-190.82"/>
</g>
<!-- Node13 -->
<g id="node13" class="node">
<title>Node13</title>
<g id="a_node13"><a xlink:title=" ">
<polygon fill="#e0e0e0" stroke="#999999" points="694,-184 636,-184 636,-165 694,-165 694,-184"/>
<text text-anchor="middle" x="665" y="-172" font-family="Helvetica,sans-Serif" font-size="10.00">memory</text>
</a>
</g>
</g>
<!-- Node2&#45;&gt;Node13 -->
<g id="edge12" class="edge">
<title>Node2&#45;&gt;Node13</title>
<path fill="none" stroke="#63b8ff" d="M467.58,-222.21C506.9,-212.91 580.82,-195.42 626.2,-184.68"/>
<polygon fill="#63b8ff" stroke="#63b8ff" points="627.06,-188.07 635.98,-182.37 625.45,-181.26 627.06,-188.07"/>
</g>
<!-- Node14 -->
<g id="node14" class="node">
<title>Node14</title>
<g id="a_node14"><a xlink:title=" ">
<polygon fill="#e0e0e0" stroke="#999999" points="771.5,-184 712.5,-184 712.5,-165 771.5,-165 771.5,-184"/>
<text text-anchor="middle" x="742" y="-172" font-family="Helvetica,sans-Serif" font-size="10.00">complex</text>
</a>
</g>
</g>
<!-- Node2&#45;&gt;Node14 -->
<g id="edge13" class="edge">
<title>Node2&#45;&gt;Node14</title>
<path fill="none" stroke="#63b8ff" d="M467.85,-224.36C513.71,-217.2 610.29,-201.73 702.19,-184.08"/>
<polygon fill="#63b8ff" stroke="#63b8ff" points="703.06,-187.47 712.22,-182.14 701.74,-180.6 703.06,-187.47"/>
</g>
<!-- Node15&#45;&gt;Node3 -->
<g id="edge18" class="edge">
<title>Node15&#45;&gt;Node3</title>
<path fill="none" stroke="#63b8ff" d="M1007.69,-219.98C966.08,-210.23 898.19,-194.31 855.92,-184.39"/>
<polygon fill="#63b8ff" stroke="#63b8ff" points="856.55,-180.94 846.01,-182.07 854.95,-187.76 856.55,-180.94"/>
</g>
<!-- Node16 -->
<g id="node16" class="node">
<title>Node16</title>
<g id="a_node16"><a xlink:href="imconfig_8h.html" target="_top" xlink:title=" ">
<polygon fill="white" stroke="#666666" points="932,-184 864,-184 864,-165 932,-165 932,-184"/>
<text text-anchor="middle" x="898" y="-172" font-family="Helvetica,sans-Serif" font-size="10.00">imconfig.h</text>
</a>
</g>
</g>
<!-- Node15&#45;&gt;Node16 -->
<g id="edge15" class="edge">
<title>Node15&#45;&gt;Node16</title>
<path fill="none" stroke="#63b8ff" d="M1020.54,-219.98C996.42,-211.23 958.63,-197.51 931.4,-187.62"/>
<polygon fill="#63b8ff" stroke="#63b8ff" points="932.48,-184.29 921.88,-184.17 930.09,-190.87 932.48,-184.29"/>
</g>
<!-- Node17 -->
<g id="node17" class="node">
<title>Node17</title>
<g id="a_node17"><a xlink:title=" ">
<polygon fill="#e0e0e0" stroke="#999999" points="997.5,-184 950.5,-184 950.5,-165 997.5,-165 997.5,-184"/>
<text text-anchor="middle" x="974" y="-172" font-family="Helvetica,sans-Serif" font-size="10.00">float.h</text>
</a>
</g>
</g>
<!-- Node15&#45;&gt;Node17 -->
<g id="edge16" class="edge">
<title>Node15&#45;&gt;Node17</title>
<path fill="none" stroke="#63b8ff" d="M1032.75,-219.98C1022.2,-212 1006.2,-199.88 993.56,-190.31"/>
<polygon fill="#63b8ff" stroke="#63b8ff" points="995.54,-187.42 985.45,-184.17 991.31,-193 995.54,-187.42"/>
</g>
<!-- Node18 -->
<g id="node18" class="node">
<title>Node18</title>
<g id="a_node18"><a xlink:title=" ">
<polygon fill="#e0e0e0" stroke="#999999" points="1072,-184 1016,-184 1016,-165 1072,-165 1072,-184"/>
<text text-anchor="middle" x="1044" y="-172" font-family="Helvetica,sans-Serif" font-size="10.00">stdarg.h</text>
</a>
</g>
</g>
<!-- Node15&#45;&gt;Node18 -->
<g id="edge17" class="edge">
<title>Node15&#45;&gt;Node18</title>
<path fill="none" stroke="#63b8ff" d="M1044,-219.75C1044,-212.8 1044,-202.85 1044,-194.13"/>
<polygon fill="#63b8ff" stroke="#63b8ff" points="1047.5,-194.09 1044,-184.09 1040.5,-194.09 1047.5,-194.09"/>
</g>
<!-- Node19 -->
<g id="node19" class="node">
<title>Node19</title>
<g id="a_node19"><a xlink:title=" ">
<polygon fill="#e0e0e0" stroke="#999999" points="1143.5,-184 1090.5,-184 1090.5,-165 1143.5,-165 1143.5,-184"/>
<text text-anchor="middle" x="1117" y="-172" font-family="Helvetica,sans-Serif" font-size="10.00">string.h</text>
</a>
</g>
</g>
<!-- Node15&#45;&gt;Node19 -->
<g id="edge19" class="edge">
<title>Node15&#45;&gt;Node19</title>
<path fill="none" stroke="#63b8ff" d="M1055.73,-219.98C1066.73,-212 1083.42,-199.88 1096.6,-190.31"/>
<polygon fill="#63b8ff" stroke="#63b8ff" points="1099.02,-192.88 1105.06,-184.17 1094.91,-187.21 1099.02,-192.88"/>
</g>
<!-- Node20 -->
<g id="node20" class="node">
<title>Node20</title>
<g id="a_node20"><a xlink:title=" ">
<polygon fill="#e0e0e0" stroke="#999999" points="1218,-184 1162,-184 1162,-165 1218,-165 1218,-184"/>
<text text-anchor="middle" x="1190" y="-172" font-family="Helvetica,sans-Serif" font-size="10.00">assert.h</text>
</a>
</g>
</g>
<!-- Node15&#45;&gt;Node20 -->
<g id="edge20" class="edge">
<title>Node15&#45;&gt;Node20</title>
<path fill="none" stroke="#63b8ff" d="M1067.46,-219.98C1091.58,-211.23 1129.37,-197.51 1156.6,-187.62"/>
<polygon fill="#63b8ff" stroke="#63b8ff" points="1157.91,-190.87 1166.12,-184.17 1155.52,-184.29 1157.91,-190.87"/>
</g>
<!-- Node22 -->
<g id="node22" class="node">
<title>Node22</title>
<g id="a_node22"><a xlink:title=" ">
<polygon fill="#e0e0e0" stroke="#999999" points="1233,-129 1147,-129 1147,-110 1233,-110 1233,-129"/>
<text text-anchor="middle" x="1190" y="-117" font-family="Helvetica,sans-Serif" font-size="10.00">DirectXMath.h</text>
</a>
</g>
</g>
<!-- Node21&#45;&gt;Node22 -->
<g id="edge22" class="edge">
<title>Node21&#45;&gt;Node22</title>
<path fill="none" stroke="#63b8ff" d="M1254.63,-164.98C1242.91,-156.92 1225.08,-144.65 1211.11,-135.03"/>
<polygon fill="#63b8ff" stroke="#63b8ff" points="1212.82,-131.96 1202.6,-129.17 1208.85,-137.72 1212.82,-131.96"/>
</g>
<!-- Node23 -->
<g id="node23" class="node">
<title>Node23</title>
<g id="a_node23"><a xlink:title=" ">
<polygon fill="#e0e0e0" stroke="#999999" points="1298.5,-129 1251.5,-129 1251.5,-110 1298.5,-110 1298.5,-129"/>
<text text-anchor="middle" x="1275" y="-117" font-family="Helvetica,sans-Serif" font-size="10.00">cmath</text>
</a>
</g>
</g>
<!-- Node21&#45;&gt;Node23 -->
<g id="edge23" class="edge">
<title>Node21&#45;&gt;Node23</title>
<path fill="none" stroke="#63b8ff" d="M1268.32,-164.75C1269.37,-157.8 1270.87,-147.85 1272.19,-139.13"/>
<polygon fill="#63b8ff" stroke="#63b8ff" points="1275.67,-139.5 1273.7,-129.09 1268.75,-138.45 1275.67,-139.5"/>
</g>
<!-- Node25 -->
<g id="node25" class="node">
<title>Node25</title>
<g id="a_node25"><a xlink:href="Command_8h.html" target="_top" xlink:title=" ">
<polygon fill="white" stroke="#666666" points="1397,-184 1321,-184 1321,-165 1397,-165 1397,-184"/>
<text text-anchor="middle" x="1359" y="-172" font-family="Helvetica,sans-Serif" font-size="10.00">Command.h</text>
</a>
</g>
</g>
<!-- Node24&#45;&gt;Node25 -->
<g id="edge25" class="edge">
<title>Node24&#45;&gt;Node25</title>
<path fill="none" stroke="#63b8ff" d="M1359,-219.75C1359,-212.8 1359,-202.85 1359,-194.13"/>
<polygon fill="#63b8ff" stroke="#63b8ff" points="1362.5,-194.09 1359,-184.09 1355.5,-194.09 1362.5,-194.09"/>
</g>
<!-- Node26 -->
<g id="node26" class="node">
<title>Node26</title>
<g id="a_node26"><a xlink:title=" ">
<polygon fill="#e0e0e0" stroke="#999999" points="1372,-129 1328,-129 1328,-110 1372,-110 1372,-129"/>
<text text-anchor="middle" x="1350" y="-117" font-family="Helvetica,sans-Serif" font-size="10.00">string</text>
</a>
</g>
</g>
<!-- Node25&#45;&gt;Node26 -->
<g id="edge26" class="edge">
<title>Node25&#45;&gt;Node26</title>
<path fill="none" stroke="#63b8ff" d="M1357.51,-164.75C1356.33,-157.8 1354.64,-147.85 1353.16,-139.13"/>
<polygon fill="#63b8ff" stroke="#63b8ff" points="1356.58,-138.36 1351.46,-129.09 1349.68,-139.53 1356.58,-138.36"/>
</g>
<!-- Node27 -->
<g id="node27" class="node">
<title>Node27</title>
<g id="a_node27"><a xlink:href="cmtgb_8h.html" target="_top" xlink:title=" ">
<polygon fill="white" stroke="#666666" points="1446,-129 1390,-129 1390,-110 1446,-110 1446,-129"/>
<text text-anchor="middle" x="1418" y="-117" font-family="Helvetica,sans-Serif" font-size="10.00">cmtgb.h</text>
</a>
</g>
</g>
<!-- Node25&#45;&gt;Node27 -->
<g id="edge27" class="edge">
<title>Node25&#45;&gt;Node27</title>
<path fill="none" stroke="#63b8ff" d="M1368.48,-164.98C1377.2,-157.15 1390.34,-145.34 1400.9,-135.86"/>
<polygon fill="#63b8ff" stroke="#63b8ff" points="1403.25,-138.46 1408.35,-129.17 1398.57,-133.25 1403.25,-138.46"/>
</g>
<!-- Node28 -->
<g id="node28" class="node">
<title>Node28</title>
<g id="a_node28"><a xlink:title=" ">
<polygon fill="#e0e0e0" stroke="#999999" points="1442,-19 1392,-19 1392,0 1442,0 1442,-19"/>
<text text-anchor="middle" x="1417" y="-7" font-family="Helvetica,sans-Serif" font-size="10.00">cstdint</text>
</a>
</g>
</g>
<!-- Node27&#45;&gt;Node28 -->
<g id="edge28" class="edge">
<title>Node27&#45;&gt;Node28</title>
<path fill="none" stroke="#63b8ff" d="M1414.66,-109.8C1411.45,-100.94 1406.82,-86.75 1405,-74 1402.81,-58.71 1406.45,-41.5 1410.28,-28.86"/>
<polygon fill="#63b8ff" stroke="#63b8ff" points="1413.69,-29.68 1413.55,-19.09 1407.05,-27.46 1413.69,-29.68"/>
</g>
<!-- Node29 -->
<g id="node29" class="node">
<title>Node29</title>
<g id="a_node29"><a xlink:href="Handlers_8h.html" target="_top" xlink:title=" ">
<polygon fill="white" stroke="#666666" points="1483.5,-74 1414.5,-74 1414.5,-55 1483.5,-55 1483.5,-74"/>
<text text-anchor="middle" x="1449" y="-62" font-family="Helvetica,sans-Serif" font-size="10.00">Handlers.h</text>
</a>
</g>
</g>
<!-- Node27&#45;&gt;Node29 -->
<g id="edge29" class="edge">
<title>Node27&#45;&gt;Node29</title>
<path fill="none" stroke="#63b8ff" d="M1423.12,-109.75C1427.36,-102.49 1433.53,-91.95 1438.78,-82.98"/>
<polygon fill="#63b8ff" stroke="#63b8ff" points="1441.95,-84.49 1443.98,-74.09 1435.91,-80.95 1441.95,-84.49"/>
</g>
<!-- Node29&#45;&gt;Node28 -->
<g id="edge30" class="edge">
<title>Node29&#45;&gt;Node28</title>
<path fill="none" stroke="#63b8ff" d="M1443.72,-54.75C1439.29,-47.42 1432.84,-36.73 1427.38,-27.7"/>
<polygon fill="#63b8ff" stroke="#63b8ff" points="1430.35,-25.84 1422.19,-19.09 1424.36,-29.46 1430.35,-25.84"/>
</g>
<!-- Node30&#45;&gt;Node21 -->
<g id="edge32" class="edge">
<title>Node30&#45;&gt;Node21</title>
<path fill="none" stroke="#63b8ff" d="M1262.83,-219.75C1263.48,-212.8 1264.42,-202.85 1265.24,-194.13"/>
<polygon fill="#63b8ff" stroke="#63b8ff" points="1268.73,-194.37 1266.19,-184.09 1261.77,-193.72 1268.73,-194.37"/>
</g>
</g>
</svg>
