<?xml version="1.0" encoding="UTF-8" standalone="no"?>
<!DOCTYPE svg PUBLIC "-//W3C//DTD SVG 1.1//EN"
 "http://www.w3.org/Graphics/SVG/1.1/DTD/svg11.dtd">
<!-- Generated by graphviz version 2.43.0 (0)
 -->
<!-- Title: ShowFunc.h Pages: 1 -->
<svg width="3163pt" height="247pt"
 viewBox="0.00 0.00 3162.50 247.00" xmlns="http://www.w3.org/2000/svg" xmlns:xlink="http://www.w3.org/1999/xlink">
<g id="graph0" class="graph" transform="scale(1 1) rotate(0) translate(4 243)">
<title>ShowFunc.h</title>
<!-- Node1 -->
<g id="node1" class="node">
<title>Node1</title>
<g id="a_node1"><a xlink:title=" ">
<polygon fill="#999999" stroke="#666666" points="1738.5,-239 1664.5,-239 1664.5,-220 1738.5,-220 1738.5,-239"/>
<text text-anchor="middle" x="1701.5" y="-227" font-family="Helvetica,sans-Serif" font-size="10.00">ShowFunc.h</text>
</a>
</g>
</g>
<!-- Node2 -->
<g id="node2" class="node">
<title>Node2</title>
<g id="a_node2"><a xlink:href="ShowAttributes_8h.html" target="_top" xlink:title=" ">
<polygon fill="white" stroke="#666666" points="1751.5,-184 1651.5,-184 1651.5,-165 1751.5,-165 1751.5,-184"/>
<text text-anchor="middle" x="1701.5" y="-172" font-family="Helvetica,sans-Serif" font-size="10.00">ShowAttributes.h</text>
</a>
</g>
</g>
<!-- Node1&#45;&gt;Node2 -->
<g id="edge1" class="edge">
<title>Node1&#45;&gt;Node2</title>
<path fill="none" stroke="#63b8ff" d="M1701.5,-209.66C1701.5,-200.93 1701.5,-190.99 1701.5,-184.09"/>
<polygon fill="#63b8ff" stroke="#63b8ff" points="1698,-209.75 1701.5,-219.75 1705,-209.75 1698,-209.75"/>
</g>
<!-- Node3 -->
<g id="node3" class="node">
<title>Node3</title>
<g id="a_node3"><a xlink:href="ReflectionInfo_8h.html" target="_top" xlink:title=" ">
<polygon fill="white" stroke="#666666" points="1748,-129 1655,-129 1655,-110 1748,-110 1748,-129"/>
<text text-anchor="middle" x="1701.5" y="-117" font-family="Helvetica,sans-Serif" font-size="10.00">ReflectionInfo.h</text>
</a>
</g>
</g>
<!-- Node2&#45;&gt;Node3 -->
<g id="edge2" class="edge">
<title>Node2&#45;&gt;Node3</title>
<path fill="none" stroke="#63b8ff" d="M1701.5,-154.66C1701.5,-145.93 1701.5,-135.99 1701.5,-129.09"/>
<polygon fill="#63b8ff" stroke="#63b8ff" points="1698,-154.75 1701.5,-164.75 1705,-154.75 1698,-154.75"/>
</g>
<!-- Node31 -->
<g id="node31" class="node">
<title>Node31</title>
<g id="a_node31"><a xlink:href="ShowAttributes_8cpp.html" target="_top" xlink:title=" ">
<polygon fill="white" stroke="#666666" points="1877,-129 1766,-129 1766,-110 1877,-110 1877,-129"/>
<text text-anchor="middle" x="1821.5" y="-117" font-family="Helvetica,sans-Serif" font-size="10.00">ShowAttributes.cpp</text>
</a>
</g>
</g>
<!-- Node2&#45;&gt;Node31 -->
<g id="edge30" class="edge">
<title>Node2&#45;&gt;Node31</title>
<path fill="none" stroke="#63b8ff" d="M1730.03,-160.9C1752.2,-151.11 1782.35,-137.79 1801.87,-129.17"/>
<polygon fill="#63b8ff" stroke="#63b8ff" points="1728.51,-157.74 1720.78,-164.98 1731.34,-164.15 1728.51,-157.74"/>
</g>
<!-- Node32 -->
<g id="node32" class="node">
<title>Node32</title>
<g id="a_node32"><a xlink:href="TypeRegistryImpl_8h.html" target="_top" xlink:title=" ">
<polygon fill="white" stroke="#666666" points="1636.5,-129 1526.5,-129 1526.5,-110 1636.5,-110 1636.5,-129"/>
<text text-anchor="middle" x="1581.5" y="-117" font-family="Helvetica,sans-Serif" font-size="10.00">TypeRegistryImpl.h</text>
</a>
</g>
</g>
<!-- Node2&#45;&gt;Node32 -->
<g id="edge31" class="edge">
<title>Node2&#45;&gt;Node32</title>
<path fill="none" stroke="#63b8ff" d="M1672.97,-160.9C1650.8,-151.11 1620.65,-137.79 1601.13,-129.17"/>
<polygon fill="#63b8ff" stroke="#63b8ff" points="1671.66,-164.15 1682.22,-164.98 1674.49,-157.74 1671.66,-164.15"/>
</g>
<!-- Node4 -->
<g id="node4" class="node">
<title>Node4</title>
<g id="a_node4"><a xlink:href="TypeRegistry_8cpp.html" target="_top" xlink:title=" ">
<polygon fill="white" stroke="#666666" points="1642.5,-74 1544.5,-74 1544.5,-55 1642.5,-55 1642.5,-74"/>
<text text-anchor="middle" x="1593.5" y="-62" font-family="Helvetica,sans-Serif" font-size="10.00">TypeRegistry.cpp</text>
</a>
</g>
</g>
<!-- Node3&#45;&gt;Node4 -->
<g id="edge3" class="edge">
<title>Node3&#45;&gt;Node4</title>
<path fill="none" stroke="#63b8ff" d="M1675.01,-105.5C1655.14,-95.75 1628.5,-82.68 1611.17,-74.17"/>
<polygon fill="#63b8ff" stroke="#63b8ff" points="1673.63,-108.72 1684.15,-109.98 1676.71,-102.44 1673.63,-108.72"/>
</g>
<!-- Node5 -->
<g id="node5" class="node">
<title>Node5</title>
<g id="a_node5"><a xlink:href="stdafx_8h.html" target="_top" xlink:title=" ">
<polygon fill="white" stroke="#666666" points="1722.5,-74 1666.5,-74 1666.5,-55 1722.5,-55 1722.5,-74"/>
<text text-anchor="middle" x="1694.5" y="-62" font-family="Helvetica,sans-Serif" font-size="10.00">stdafx.h</text>
</a>
</g>
</g>
<!-- Node3&#45;&gt;Node5 -->
<g id="edge4" class="edge">
<title>Node3&#45;&gt;Node5</title>
<path fill="none" stroke="#63b8ff" d="M1699.01,-99.66C1697.86,-90.93 1696.55,-80.99 1695.63,-74.09"/>
<polygon fill="#63b8ff" stroke="#63b8ff" points="1695.56,-100.29 1700.34,-109.75 1702.5,-99.38 1695.56,-100.29"/>
</g>
<!-- Node6 -->
<g id="node6" class="node">
<title>Node6</title>
<g id="a_node6"><a xlink:href="BoxPlane_8cpp.html" target="_top" xlink:title=" ">
<polygon fill="white" stroke="#666666" points="83,-19 0,-19 0,0 83,0 83,-19"/>
<text text-anchor="middle" x="41.5" y="-7" font-family="Helvetica,sans-Serif" font-size="10.00">BoxPlane.cpp</text>
</a>
</g>
</g>
<!-- Node5&#45;&gt;Node6 -->
<g id="edge5" class="edge">
<title>Node5&#45;&gt;Node6</title>
<path fill="none" stroke="#63b8ff" d="M1656.1,-55.57C1654.55,-55.36 1653.01,-55.17 1651.5,-55 962.55,20.48 782.51,-84.13 92.5,-19 89.46,-18.71 86.33,-18.35 83.19,-17.94"/>
<polygon fill="#63b8ff" stroke="#63b8ff" points="1655.96,-59.09 1666.39,-57.22 1657.07,-52.18 1655.96,-59.09"/>
</g>
<!-- Node7 -->
<g id="node7" class="node">
<title>Node7</title>
<g id="a_node7"><a xlink:href="CommandHistoryManager_8cpp.html" target="_top" xlink:title=" ">
<polygon fill="white" stroke="#666666" points="265.5,-19 101.5,-19 101.5,0 265.5,0 265.5,-19"/>
<text text-anchor="middle" x="183.5" y="-7" font-family="Helvetica,sans-Serif" font-size="10.00">CommandHistoryManager.cpp</text>
</a>
</g>
</g>
<!-- Node5&#45;&gt;Node7 -->
<g id="edge6" class="edge">
<title>Node5&#45;&gt;Node7</title>
<path fill="none" stroke="#63b8ff" d="M1656.1,-55.58C1654.55,-55.36 1653.01,-55.17 1651.5,-55 1043.03,12.6 885.62,-55.49 274.5,-19 271.65,-18.83 268.75,-18.64 265.82,-18.44"/>
<polygon fill="#63b8ff" stroke="#63b8ff" points="1655.96,-59.1 1666.39,-57.24 1657.07,-52.19 1655.96,-59.1"/>
</g>
<!-- Node8 -->
<g id="node8" class="node">
<title>Node8</title>
<g id="a_node8"><a xlink:href="DuplicateGameObjectCommand_8cpp.html" target="_top" xlink:title=" ">
<polygon fill="white" stroke="#666666" points="477.5,-19 283.5,-19 283.5,0 477.5,0 477.5,-19"/>
<text text-anchor="middle" x="380.5" y="-7" font-family="Helvetica,sans-Serif" font-size="10.00">DuplicateGameObjectCommand.cpp</text>
</a>
</g>
</g>
<!-- Node5&#45;&gt;Node8 -->
<g id="edge7" class="edge">
<title>Node5&#45;&gt;Node8</title>
<path fill="none" stroke="#63b8ff" d="M1656.1,-55.59C1654.55,-55.37 1653.01,-55.17 1651.5,-55 1136.78,3.43 1003.73,-47.71 486.5,-19 483.55,-18.84 480.56,-18.66 477.53,-18.47"/>
<polygon fill="#63b8ff" stroke="#63b8ff" points="1655.95,-59.11 1666.38,-57.26 1657.08,-52.2 1655.95,-59.11"/>
</g>
<!-- Node9 -->
<g id="node9" class="node">
<title>Node9</title>
<g id="a_node9"><a xlink:href="GameObjectFactory_8cpp.html" target="_top" xlink:title=" ">
<polygon fill="white" stroke="#666666" points="627,-19 496,-19 496,0 627,0 627,-19"/>
<text text-anchor="middle" x="561.5" y="-7" font-family="Helvetica,sans-Serif" font-size="10.00">GameObjectFactory.cpp</text>
</a>
</g>
</g>
<!-- Node5&#45;&gt;Node9 -->
<g id="edge8" class="edge">
<title>Node5&#45;&gt;Node9</title>
<path fill="none" stroke="#63b8ff" d="M1656.1,-55.59C1654.55,-55.37 1653.01,-55.18 1651.5,-55 1202.66,-3.02 1086.07,-52.81 635.5,-19 632.79,-18.8 630.03,-18.57 627.24,-18.32"/>
<polygon fill="#63b8ff" stroke="#63b8ff" points="1655.95,-59.12 1666.38,-57.27 1657.08,-52.21 1655.95,-59.12"/>
</g>
<!-- Node10 -->
<g id="node10" class="node">
<title>Node10</title>
<g id="a_node10"><a xlink:href="GameObjectTypeRegistry_8cpp.html" target="_top" xlink:title=" ">
<polygon fill="white" stroke="#666666" points="804,-19 645,-19 645,0 804,0 804,-19"/>
<text text-anchor="middle" x="724.5" y="-7" font-family="Helvetica,sans-Serif" font-size="10.00">GameObjectTypeRegistry.cpp</text>
</a>
</g>
</g>
<!-- Node5&#45;&gt;Node10 -->
<g id="edge9" class="edge">
<title>Node5&#45;&gt;Node10</title>
<path fill="none" stroke="#63b8ff" d="M1656.1,-55.61C1654.55,-55.39 1653.01,-55.18 1651.5,-55 1281.35,-10.73 1185.4,-44.73 813.5,-19 810.4,-18.79 807.25,-18.55 804.06,-18.31"/>
<polygon fill="#63b8ff" stroke="#63b8ff" points="1655.94,-59.13 1666.38,-57.3 1657.08,-52.22 1655.94,-59.13"/>
</g>
<!-- Node11 -->
<g id="node11" class="node">
<title>Node11</title>
<g id="a_node11"><a xlink:href="GameOverZone_8cpp.html" target="_top" xlink:title=" ">
<polygon fill="white" stroke="#666666" points="936.5,-19 822.5,-19 822.5,0 936.5,0 936.5,-19"/>
<text text-anchor="middle" x="879.5" y="-7" font-family="Helvetica,sans-Serif" font-size="10.00">GameOverZone.cpp</text>
</a>
</g>
</g>
<!-- Node5&#45;&gt;Node11 -->
<g id="edge10" class="edge">
<title>Node5&#45;&gt;Node11</title>
<path fill="none" stroke="#63b8ff" d="M1656.1,-55.62C1654.55,-55.4 1653.01,-55.19 1651.5,-55 1339.69,-16.44 1258.43,-47.09 945.5,-19 942.62,-18.74 939.68,-18.45 936.71,-18.14"/>
<polygon fill="#63b8ff" stroke="#63b8ff" points="1655.94,-59.15 1666.38,-57.34 1657.09,-52.24 1655.94,-59.15"/>
</g>
<!-- Node12 -->
<g id="node12" class="node">
<title>Node12</title>
<g id="a_node12"><a xlink:href="Goal_8cpp.html" target="_top" xlink:title=" ">
<polygon fill="white" stroke="#666666" points="1014,-19 955,-19 955,0 1014,0 1014,-19"/>
<text text-anchor="middle" x="984.5" y="-7" font-family="Helvetica,sans-Serif" font-size="10.00">Goal.cpp</text>
</a>
</g>
</g>
<!-- Node5&#45;&gt;Node12 -->
<g id="edge11" class="edge">
<title>Node5&#45;&gt;Node12</title>
<path fill="none" stroke="#63b8ff" d="M1656.1,-55.64C1654.55,-55.41 1653.01,-55.19 1651.5,-55 1374.15,-19.81 1300.49,-56.88 1023.5,-19 1020.48,-18.59 1017.34,-18.06 1014.22,-17.48"/>
<polygon fill="#63b8ff" stroke="#63b8ff" points="1655.93,-59.16 1666.37,-57.36 1657.09,-52.25 1655.93,-59.16"/>
</g>
<!-- Node13 -->
<g id="node13" class="node">
<title>Node13</title>
<g id="a_node13"><a xlink:href="GroupCommand_8cpp.html" target="_top" xlink:title=" ">
<polygon fill="white" stroke="#666666" points="1148.5,-19 1032.5,-19 1032.5,0 1148.5,0 1148.5,-19"/>
<text text-anchor="middle" x="1090.5" y="-7" font-family="Helvetica,sans-Serif" font-size="10.00">GroupCommand.cpp</text>
</a>
</g>
</g>
<!-- Node5&#45;&gt;Node13 -->
<g id="edge12" class="edge">
<title>Node5&#45;&gt;Node13</title>
<path fill="none" stroke="#63b8ff" d="M1656.09,-55.67C1654.54,-55.43 1653.01,-55.2 1651.5,-55 1433.33,-25.6 1376.55,-40.86 1157.5,-19 1154.58,-18.71 1151.6,-18.39 1148.58,-18.06"/>
<polygon fill="#63b8ff" stroke="#63b8ff" points="1655.92,-59.19 1666.36,-57.43 1657.1,-52.29 1655.92,-59.19"/>
</g>
<!-- Node14 -->
<g id="node14" class="node">
<title>Node14</title>
<g id="a_node14"><a xlink:href="Interpolator_8cpp.html" target="_top" xlink:title=" ">
<polygon fill="white" stroke="#666666" points="1260,-19 1167,-19 1167,0 1260,0 1260,-19"/>
<text text-anchor="middle" x="1213.5" y="-7" font-family="Helvetica,sans-Serif" font-size="10.00">Interpolator.cpp</text>
</a>
</g>
</g>
<!-- Node5&#45;&gt;Node14 -->
<g id="edge13" class="edge">
<title>Node5&#45;&gt;Node14</title>
<path fill="none" stroke="#63b8ff" d="M1656.09,-55.71C1654.54,-55.46 1653.01,-55.22 1651.5,-55 1482.31,-30.39 1438.17,-40.07 1268.5,-19 1265.82,-18.67 1263.06,-18.3 1260.28,-17.92"/>
<polygon fill="#63b8ff" stroke="#63b8ff" points="1655.9,-59.23 1666.35,-57.51 1657.11,-52.33 1655.9,-59.23"/>
</g>
<!-- Node15 -->
<g id="node15" class="node">
<title>Node15</title>
<g id="a_node15"><a xlink:href="InterpolatorCP_8cpp.html" target="_top" xlink:title=" ">
<polygon fill="white" stroke="#666666" points="1383,-19 1278,-19 1278,0 1383,0 1383,-19"/>
<text text-anchor="middle" x="1330.5" y="-7" font-family="Helvetica,sans-Serif" font-size="10.00">InterpolatorCP.cpp</text>
</a>
</g>
</g>
<!-- Node5&#45;&gt;Node15 -->
<g id="edge14" class="edge">
<title>Node5&#45;&gt;Node15</title>
<path fill="none" stroke="#63b8ff" d="M1656.07,-55.79C1654.53,-55.52 1653,-55.25 1651.5,-55 1536.45,-35.68 1507.05,-35.05 1391.5,-19 1388.75,-18.62 1385.92,-18.23 1383.07,-17.83"/>
<polygon fill="#63b8ff" stroke="#63b8ff" points="1655.85,-59.31 1666.32,-57.69 1657.13,-52.43 1655.85,-59.31"/>
</g>
<!-- Node16 -->
<g id="node16" class="node">
<title>Node16</title>
<g id="a_node16"><a xlink:href="MonitorInfo_8cpp.html" target="_top" xlink:title=" ">
<polygon fill="white" stroke="#666666" points="1494,-19 1401,-19 1401,0 1494,0 1494,-19"/>
<text text-anchor="middle" x="1447.5" y="-7" font-family="Helvetica,sans-Serif" font-size="10.00">MonitorInfo.cpp</text>
</a>
</g>
</g>
<!-- Node5&#45;&gt;Node16 -->
<g id="edge15" class="edge">
<title>Node5&#45;&gt;Node16</title>
<path fill="none" stroke="#63b8ff" d="M1656.31,-55.31C1610.44,-45.46 1533.86,-29.03 1487.29,-19.04"/>
<polygon fill="#63b8ff" stroke="#63b8ff" points="1655.65,-58.74 1666.17,-57.42 1657.12,-51.9 1655.65,-58.74"/>
</g>
<!-- Node17 -->
<g id="node17" class="node">
<title>Node17</title>
<g id="a_node17"><a xlink:href="MovingFloor_8cpp.html" target="_top" xlink:title=" ">
<polygon fill="white" stroke="#666666" points="1609,-19 1512,-19 1512,0 1609,0 1609,-19"/>
<text text-anchor="middle" x="1560.5" y="-7" font-family="Helvetica,sans-Serif" font-size="10.00">MovingFloor.cpp</text>
</a>
</g>
</g>
<!-- Node5&#45;&gt;Node17 -->
<g id="edge16" class="edge">
<title>Node5&#45;&gt;Node17</title>
<path fill="none" stroke="#63b8ff" d="M1663.63,-51.29C1638.8,-41.47 1604.51,-27.91 1582.42,-19.17"/>
<polygon fill="#63b8ff" stroke="#63b8ff" points="1662.38,-54.56 1672.97,-54.98 1664.96,-48.05 1662.38,-54.56"/>
</g>
<!-- Node18 -->
<g id="node18" class="node">
<title>Node18</title>
<g id="a_node18"><a xlink:href="PatrolChargerEnemy_8cpp.html" target="_top" xlink:title=" ">
<polygon fill="white" stroke="#666666" points="1762,-19 1627,-19 1627,0 1762,0 1762,-19"/>
<text text-anchor="middle" x="1694.5" y="-7" font-family="Helvetica,sans-Serif" font-size="10.00">PatrolChargerEnemy.cpp</text>
</a>
</g>
</g>
<!-- Node5&#45;&gt;Node18 -->
<g id="edge17" class="edge">
<title>Node5&#45;&gt;Node18</title>
<path fill="none" stroke="#63b8ff" d="M1694.5,-44.66C1694.5,-35.93 1694.5,-25.99 1694.5,-19.09"/>
<polygon fill="#63b8ff" stroke="#63b8ff" points="1691,-44.75 1694.5,-54.75 1698,-44.75 1691,-44.75"/>
</g>
<!-- Node19 -->
<g id="node19" class="node">
<title>Node19</title>
<g id="a_node19"><a xlink:href="Player_8cpp.html" target="_top" xlink:title=" ">
<polygon fill="white" stroke="#666666" points="1847,-19 1780,-19 1780,0 1847,0 1847,-19"/>
<text text-anchor="middle" x="1813.5" y="-7" font-family="Helvetica,sans-Serif" font-size="10.00">Player.cpp</text>
</a>
</g>
</g>
<!-- Node5&#45;&gt;Node19 -->
<g id="edge18" class="edge">
<title>Node5&#45;&gt;Node19</title>
<path fill="none" stroke="#63b8ff" d="M1722.8,-50.9C1744.78,-41.11 1774.68,-27.79 1794.03,-19.17"/>
<polygon fill="#63b8ff" stroke="#63b8ff" points="1721.33,-47.72 1713.62,-54.98 1724.18,-54.11 1721.33,-47.72"/>
</g>
<!-- Node20 -->
<g id="node20" class="node">
<title>Node20</title>
<g id="a_node20"><a xlink:href="RegisterGameObjectType_8cpp.html" target="_top" xlink:title=" ">
<polygon fill="white" stroke="#666666" points="2026,-19 1865,-19 1865,0 2026,0 2026,-19"/>
<text text-anchor="middle" x="1945.5" y="-7" font-family="Helvetica,sans-Serif" font-size="10.00">RegisterGameObjectType.cpp</text>
</a>
</g>
</g>
<!-- Node5&#45;&gt;Node20 -->
<g id="edge19" class="edge">
<title>Node5&#45;&gt;Node20</title>
<path fill="none" stroke="#63b8ff" d="M1732.79,-55.42C1779.28,-45.6 1857.36,-29.11 1904.88,-19.08"/>
<polygon fill="#63b8ff" stroke="#63b8ff" points="1731.87,-52.03 1722.8,-57.52 1733.31,-58.88 1731.87,-52.03"/>
</g>
<!-- Node21 -->
<g id="node21" class="node">
<title>Node21</title>
<g id="a_node21"><a xlink:href="ResultScene_8cpp.html" target="_top" xlink:title=" ">
<polygon fill="white" stroke="#666666" points="2141,-19 2044,-19 2044,0 2141,0 2141,-19"/>
<text text-anchor="middle" x="2092.5" y="-7" font-family="Helvetica,sans-Serif" font-size="10.00">ResultScene.cpp</text>
</a>
</g>
</g>
<!-- Node5&#45;&gt;Node21 -->
<g id="edge20" class="edge">
<title>Node5&#45;&gt;Node21</title>
<path fill="none" stroke="#63b8ff" d="M1733.11,-58.69C1796.35,-50.77 1925.95,-34.32 2035.5,-19 2038.27,-18.61 2041.12,-18.21 2044,-17.79"/>
<polygon fill="#63b8ff" stroke="#63b8ff" points="1732.3,-55.27 1722.82,-59.98 1733.17,-62.21 1732.3,-55.27"/>
</g>
<!-- Node22 -->
<g id="node22" class="node">
<title>Node22</title>
<g id="a_node22"><a xlink:href="ScoreItem_8cpp.html" target="_top" xlink:title=" ">
<polygon fill="white" stroke="#666666" points="2245.5,-19 2159.5,-19 2159.5,0 2245.5,0 2245.5,-19"/>
<text text-anchor="middle" x="2202.5" y="-7" font-family="Helvetica,sans-Serif" font-size="10.00">ScoreItem.cpp</text>
</a>
</g>
</g>
<!-- Node5&#45;&gt;Node22 -->
<g id="edge21" class="edge">
<title>Node5&#45;&gt;Node22</title>
<path fill="none" stroke="#63b8ff" d="M1732.97,-60.59C1811.58,-54.46 1996.26,-39.11 2150.5,-19 2153.4,-18.62 2156.39,-18.2 2159.4,-17.77"/>
<polygon fill="#63b8ff" stroke="#63b8ff" points="1732.29,-57.13 1722.59,-61.4 1732.83,-64.11 1732.29,-57.13"/>
</g>
<!-- Node23 -->
<g id="node23" class="node">
<title>Node23</title>
<g id="a_node23"><a xlink:href="ScoreViewer_8cpp.html" target="_top" xlink:title=" ">
<polygon fill="white" stroke="#666666" points="2361,-19 2264,-19 2264,0 2361,0 2361,-19"/>
<text text-anchor="middle" x="2312.5" y="-7" font-family="Helvetica,sans-Serif" font-size="10.00">ScoreViewer.cpp</text>
</a>
</g>
</g>
<!-- Node5&#45;&gt;Node23 -->
<g id="edge22" class="edge">
<title>Node5&#45;&gt;Node23</title>
<path fill="none" stroke="#63b8ff" d="M1732.61,-61.35C1823.24,-56.03 2058.73,-41.1 2254.5,-19 2257.53,-18.66 2260.65,-18.28 2263.8,-17.88"/>
<polygon fill="#63b8ff" stroke="#63b8ff" points="1732.31,-57.86 1722.53,-61.93 1732.72,-64.84 1732.31,-57.86"/>
</g>
<!-- Node24 -->
<g id="node24" class="node">
<title>Node24</title>
<g id="a_node24"><a xlink:href="StageEditScene_8cpp.html" target="_top" xlink:title=" ">
<polygon fill="white" stroke="#666666" points="2492,-19 2379,-19 2379,0 2492,0 2492,-19"/>
<text text-anchor="middle" x="2435.5" y="-7" font-family="Helvetica,sans-Serif" font-size="10.00">StageEditScene.cpp</text>
</a>
</g>
</g>
<!-- Node5&#45;&gt;Node24 -->
<g id="edge23" class="edge">
<title>Node5&#45;&gt;Node24</title>
<path fill="none" stroke="#63b8ff" d="M1732.8,-61.84C1835.97,-57.19 2128.29,-42.78 2370.5,-19 2373.22,-18.73 2376,-18.44 2378.8,-18.13"/>
<polygon fill="#63b8ff" stroke="#63b8ff" points="1732.4,-58.36 1722.56,-62.3 1732.71,-65.35 1732.4,-58.36"/>
</g>
<!-- Node25 -->
<g id="node25" class="node">
<title>Node25</title>
<g id="a_node25"><a xlink:href="StageManager_8cpp.html" target="_top" xlink:title=" ">
<polygon fill="white" stroke="#666666" points="2617,-19 2510,-19 2510,0 2617,0 2617,-19"/>
<text text-anchor="middle" x="2563.5" y="-7" font-family="Helvetica,sans-Serif" font-size="10.00">StageManager.cpp</text>
</a>
</g>
</g>
<!-- Node5&#45;&gt;Node25 -->
<g id="edge24" class="edge">
<title>Node5&#45;&gt;Node25</title>
<path fill="none" stroke="#63b8ff" d="M1732.96,-62.49C1849.13,-59.19 2206.56,-47.3 2501.5,-19 2504.2,-18.74 2506.97,-18.45 2509.76,-18.14"/>
<polygon fill="#63b8ff" stroke="#63b8ff" points="1732.69,-58.99 1722.79,-62.77 1732.89,-65.99 1732.69,-58.99"/>
</g>
<!-- Node26 -->
<g id="node26" class="node">
<title>Node26</title>
<g id="a_node26"><a xlink:href="TextBox_8cpp.html" target="_top" xlink:title=" ">
<polygon fill="white" stroke="#666666" points="2711.5,-19 2635.5,-19 2635.5,0 2711.5,0 2711.5,-19"/>
<text text-anchor="middle" x="2673.5" y="-7" font-family="Helvetica,sans-Serif" font-size="10.00">TextBox.cpp</text>
</a>
</g>
</g>
<!-- Node5&#45;&gt;Node26 -->
<g id="edge25" class="edge">
<title>Node5&#45;&gt;Node26</title>
<path fill="none" stroke="#63b8ff" d="M1732.87,-63.47C1860.36,-62.98 2281.31,-58.28 2626.5,-19 2629.38,-18.67 2632.36,-18.27 2635.34,-17.83"/>
<polygon fill="#63b8ff" stroke="#63b8ff" points="1732.81,-59.97 1722.82,-63.5 1732.83,-66.97 1732.81,-59.97"/>
</g>
<!-- Node27 -->
<g id="node27" class="node">
<title>Node27</title>
<g id="a_node27"><a xlink:href="TextRenderer_8cpp.html" target="_top" xlink:title=" ">
<polygon fill="white" stroke="#666666" points="2831,-19 2730,-19 2730,0 2831,0 2831,-19"/>
<text text-anchor="middle" x="2780.5" y="-7" font-family="Helvetica,sans-Serif" font-size="10.00">TextRenderer.cpp</text>
</a>
</g>
</g>
<!-- Node5&#45;&gt;Node27 -->
<g id="edge26" class="edge">
<title>Node5&#45;&gt;Node27</title>
<path fill="none" stroke="#63b8ff" d="M1733,-63.18C1868.55,-61.77 2336.33,-54.46 2720.5,-19 2723.54,-18.72 2726.66,-18.39 2729.8,-18.04"/>
<polygon fill="#63b8ff" stroke="#63b8ff" points="1732.69,-59.68 1722.72,-63.28 1732.76,-66.68 1732.69,-59.68"/>
</g>
<!-- Node28 -->
<g id="node28" class="node">
<title>Node28</title>
<g id="a_node28"><a xlink:href="TextRendererCP_8cpp.html" target="_top" xlink:title=" ">
<polygon fill="white" stroke="#666666" points="2962,-19 2849,-19 2849,0 2962,0 2962,-19"/>
<text text-anchor="middle" x="2905.5" y="-7" font-family="Helvetica,sans-Serif" font-size="10.00">TextRendererCP.cpp</text>
</a>
</g>
</g>
<!-- Node5&#45;&gt;Node28 -->
<g id="edge27" class="edge">
<title>Node5&#45;&gt;Node28</title>
<path fill="none" stroke="#63b8ff" d="M1733.1,-63.28C1878.5,-62.17 2406.94,-55.69 2840.5,-19 2843.22,-18.77 2846,-18.51 2848.81,-18.22"/>
<polygon fill="#63b8ff" stroke="#63b8ff" points="1732.88,-59.78 1722.91,-63.35 1732.94,-66.78 1732.88,-59.78"/>
</g>
<!-- Node29 -->
<g id="node29" class="node">
<title>Node29</title>
<g id="a_node29"><a xlink:href="TitleScene_8cpp.html" target="_top" xlink:title=" ">
<polygon fill="white" stroke="#666666" points="3068.5,-19 2980.5,-19 2980.5,0 3068.5,0 3068.5,-19"/>
<text text-anchor="middle" x="3024.5" y="-7" font-family="Helvetica,sans-Serif" font-size="10.00">TitleScene.cpp</text>
</a>
</g>
</g>
<!-- Node5&#45;&gt;Node29 -->
<g id="edge28" class="edge">
<title>Node5&#45;&gt;Node29</title>
<path fill="none" stroke="#63b8ff" d="M1733.36,-63.9C1889.31,-65.14 2484.74,-66.33 2971.5,-19 2974.38,-18.72 2977.33,-18.38 2980.31,-18.01"/>
<polygon fill="#63b8ff" stroke="#63b8ff" points="1732.93,-60.4 1722.9,-63.81 1732.87,-67.4 1732.93,-60.4"/>
</g>
<!-- Node30 -->
<g id="node30" class="node">
<title>Node30</title>
<g id="a_node30"><a xlink:href="stdafx_8cpp.html" target="_top" xlink:title=" ">
<polygon fill="white" stroke="#666666" points="3154.5,-19 3086.5,-19 3086.5,0 3154.5,0 3154.5,-19"/>
<text text-anchor="middle" x="3120.5" y="-7" font-family="Helvetica,sans-Serif" font-size="10.00">stdafx.cpp</text>
</a>
</g>
</g>
<!-- Node5&#45;&gt;Node30 -->
<g id="edge29" class="edge">
<title>Node5&#45;&gt;Node30</title>
<path fill="none" stroke="#63b8ff" d="M1732.79,-63.11C1927.2,-61.01 2806.37,-49.95 3077.5,-19 3080.37,-18.67 3083.34,-18.25 3086.31,-17.78"/>
<polygon fill="#63b8ff" stroke="#63b8ff" points="1732.73,-59.61 1722.76,-63.22 1732.8,-66.61 1732.73,-59.61"/>
</g>
<!-- Node32&#45;&gt;Node4 -->
<g id="edge32" class="edge">
<title>Node32&#45;&gt;Node4</title>
<path fill="none" stroke="#63b8ff" d="M1585.7,-99.95C1587.69,-91.15 1589.98,-81.06 1591.56,-74.09"/>
<polygon fill="#63b8ff" stroke="#63b8ff" points="1582.28,-99.22 1583.48,-109.75 1589.1,-100.77 1582.28,-99.22"/>
</g>
<!-- Node32&#45;&gt;Node5 -->
<g id="edge33" class="edge">
<title>Node32&#45;&gt;Node5</title>
<path fill="none" stroke="#63b8ff" d="M1608.93,-105.63C1629.75,-95.87 1657.8,-82.71 1676.01,-74.17"/>
<polygon fill="#63b8ff" stroke="#63b8ff" points="1607.22,-102.57 1599.66,-109.98 1610.2,-108.91 1607.22,-102.57"/>
</g>
</g>
</svg>
