<?xml version="1.0" encoding="UTF-8" standalone="no"?>
<!DOCTYPE svg PUBLIC "-//W3C//DTD SVG 1.1//EN"
 "http://www.w3.org/Graphics/SVG/1.1/DTD/svg11.dtd">
<!-- Generated by graphviz version 2.43.0 (0)
 -->
<!-- Title: mtgb::JoystickContext::JoystickContext Pages: 1 -->
<svg width="321pt" height="51pt"
 viewBox="0.00 0.00 321.00 50.50" xmlns="http://www.w3.org/2000/svg" xmlns:xlink="http://www.w3.org/1999/xlink">
<g id="graph0" class="graph" transform="scale(1 1) rotate(0) translate(4 46.5)">
<title>mtgb::JoystickContext::JoystickContext</title>
<!-- Node1 -->
<g id="node1" class="node">
<title>Node1</title>
<g id="a_node1"><a xlink:title=" ">
<polygon fill="#999999" stroke="#666666" points="125,-30 0,-30 0,0 125,0 125,-30"/>
<text text-anchor="start" x="8" y="-18" font-family="Helvetica,sans-Serif" font-size="10.00">mtgb::JoystickContext</text>
<text text-anchor="middle" x="62.5" y="-7" font-family="Helvetica,sans-Serif" font-size="10.00">::JoystickContext</text>
</a>
</g>
</g>
<!-- Node2 -->
<g id="node2" class="node">
<title>Node2</title>
<g id="a_node2"><a xlink:href="classmtgb_1_1Input.html#a5e7d3ec55273498dde61ab62c818fecd" target="_top" xlink:title="デバイスのタイプを判別">
<polygon fill="white" stroke="#666666" points="313,-24.5 161,-24.5 161,-5.5 313,-5.5 313,-24.5"/>
<text text-anchor="middle" x="237" y="-12.5" font-family="Helvetica,sans-Serif" font-size="10.00">mtgb::Input::GetDeviceType</text>
</a>
</g>
</g>
<!-- Node1&#45;&gt;Node2 -->
<g id="edge1" class="edge">
<title>Node1&#45;&gt;Node2</title>
<path fill="none" stroke="#63b8ff" d="M125.29,-15C133.56,-15 142.15,-15 150.74,-15"/>
<polygon fill="#63b8ff" stroke="#63b8ff" points="150.78,-18.5 160.78,-15 150.78,-11.5 150.78,-18.5"/>
</g>
<!-- Node2&#45;&gt;Node2 -->
<g id="edge2" class="edge">
<title>Node2&#45;&gt;Node2</title>
<path fill="none" stroke="#63b8ff" d="M210.18,-24.58C197.13,-33.23 206.07,-42.5 237,-42.5 257.78,-42.5 268.63,-38.32 269.56,-32.95"/>
<polygon fill="#63b8ff" stroke="#63b8ff" points="272.36,-30.85 263.82,-24.58 266.59,-34.81 272.36,-30.85"/>
</g>
</g>
</svg>
