<?xml version="1.0" encoding="UTF-8" standalone="no"?>
<!DOCTYPE svg PUBLIC "-//W3C//DTD SVG 1.1//EN"
 "http://www.w3.org/Graphics/SVG/1.1/DTD/svg11.dtd">
<!-- Generated by graphviz version 2.43.0 (0)
 -->
<!-- Title: ImBitArray::SetBit Pages: 1 -->
<svg width="776pt" height="86pt"
 viewBox="0.00 0.00 776.00 86.00" xmlns="http://www.w3.org/2000/svg" xmlns:xlink="http://www.w3.org/1999/xlink">
<g id="graph0" class="graph" transform="scale(1 1) rotate(0) translate(4 82)">
<title>ImBitArray::SetBit</title>
<!-- Node1 -->
<g id="node1" class="node">
<title>Node1</title>
<g id="a_node1"><a xlink:title=" ">
<polygon fill="#999999" stroke="#666666" points="768,-50.5 664,-50.5 664,-31.5 768,-31.5 768,-50.5"/>
<text text-anchor="middle" x="716" y="-38.5" font-family="Helvetica,sans-Serif" font-size="10.00">ImBitArray::SetBit</text>
</a>
</g>
</g>
<!-- Node2 -->
<g id="node2" class="node">
<title>Node2</title>
<g id="a_node2"><a xlink:href="namespaceImGui.html#a1a611da38fae18a3d1dafcb3228259da" target="_top" xlink:title=" ">
<polygon fill="white" stroke="#666666" points="602.5,-70.5 508.5,-70.5 508.5,-51.5 602.5,-51.5 602.5,-70.5"/>
<text text-anchor="middle" x="555.5" y="-58.5" font-family="Helvetica,sans-Serif" font-size="10.00">ImGui::Initialize</text>
</a>
</g>
</g>
<!-- Node1&#45;&gt;Node2 -->
<g id="edge1" class="edge">
<title>Node1&#45;&gt;Node2</title>
<path fill="none" stroke="#63b8ff" d="M653.6,-48.75C636.64,-50.89 618.53,-53.17 602.6,-55.18"/>
<polygon fill="#63b8ff" stroke="#63b8ff" points="654.49,-52.16 663.98,-47.44 653.62,-45.22 654.49,-52.16"/>
</g>
<!-- Node5 -->
<g id="node5" class="node">
<title>Node5</title>
<g id="a_node5"><a xlink:href="namespaceImGui.html#aafed9b47752723162308368c01eeffad" target="_top" xlink:title=" ">
<polygon fill="white" stroke="#666666" points="628,-32.5 483,-32.5 483,-13.5 628,-13.5 628,-32.5"/>
<text text-anchor="middle" x="555.5" y="-20.5" font-family="Helvetica,sans-Serif" font-size="10.00">ImGui::UpdateInputEvents</text>
</a>
</g>
</g>
<!-- Node1&#45;&gt;Node5 -->
<g id="edge4" class="edge">
<title>Node1&#45;&gt;Node5</title>
<path fill="none" stroke="#63b8ff" d="M653.89,-34.06C645.48,-33.11 636.79,-32.12 628.21,-31.14"/>
<polygon fill="#63b8ff" stroke="#63b8ff" points="653.65,-37.55 663.98,-35.21 654.44,-30.6 653.65,-37.55"/>
</g>
<!-- Node3 -->
<g id="node3" class="node">
<title>Node3</title>
<g id="a_node3"><a xlink:href="namespaceImGui.html#a4ff6c9ad05a0eba37ce1b5ff1607810a" target="_top" xlink:title=" ">
<polygon fill="white" stroke="#666666" points="447,-71.5 325,-71.5 325,-52.5 447,-52.5 447,-71.5"/>
<text text-anchor="middle" x="386" y="-59.5" font-family="Helvetica,sans-Serif" font-size="10.00">ImGui::CreateContext</text>
</a>
</g>
</g>
<!-- Node2&#45;&gt;Node3 -->
<g id="edge2" class="edge">
<title>Node2&#45;&gt;Node3</title>
<path fill="none" stroke="#63b8ff" d="M497.83,-61.34C481.53,-61.44 463.7,-61.54 447.19,-61.64"/>
<polygon fill="#63b8ff" stroke="#63b8ff" points="498.31,-64.84 508.29,-61.28 498.27,-57.84 498.31,-64.84"/>
</g>
<!-- Node4 -->
<g id="node4" class="node">
<title>Node4</title>
<g id="a_node4"><a xlink:href="classmtgb_1_1ImGuiRenderer.html#a4db4a95a57f586a5fda30be1957f247a" target="_top" xlink:title=" ">
<polygon fill="white" stroke="#666666" points="289,-78 167,-78 167,-48 289,-48 289,-78"/>
<text text-anchor="start" x="175" y="-66" font-family="Helvetica,sans-Serif" font-size="10.00">mtgb::ImGuiRenderer</text>
<text text-anchor="middle" x="228" y="-55" font-family="Helvetica,sans-Serif" font-size="10.00">::Initialize</text>
</a>
</g>
</g>
<!-- Node3&#45;&gt;Node4 -->
<g id="edge3" class="edge">
<title>Node3&#45;&gt;Node4</title>
<path fill="none" stroke="#63b8ff" d="M314.46,-62.45C306.01,-62.51 297.44,-62.56 289.15,-62.61"/>
<polygon fill="#63b8ff" stroke="#63b8ff" points="314.71,-65.95 324.69,-62.39 314.66,-58.95 314.71,-65.95"/>
</g>
<!-- Node6 -->
<g id="node6" class="node">
<title>Node6</title>
<g id="a_node6"><a xlink:href="namespaceImGui.html#ab3f1fc018f903b7ad79fd10663375774" target="_top" xlink:title=" ">
<polygon fill="white" stroke="#666666" points="438,-29.5 334,-29.5 334,-10.5 438,-10.5 438,-29.5"/>
<text text-anchor="middle" x="386" y="-17.5" font-family="Helvetica,sans-Serif" font-size="10.00">ImGui::NewFrame</text>
</a>
</g>
</g>
<!-- Node5&#45;&gt;Node6 -->
<g id="edge5" class="edge">
<title>Node5&#45;&gt;Node6</title>
<path fill="none" stroke="#63b8ff" d="M472.64,-21.53C460.84,-21.32 448.99,-21.11 438.03,-20.91"/>
<polygon fill="#63b8ff" stroke="#63b8ff" points="472.92,-25.04 482.98,-21.72 473.04,-18.04 472.92,-25.04"/>
</g>
<!-- Node7 -->
<g id="node7" class="node">
<title>Node7</title>
<g id="a_node7"><a xlink:href="classmtgb_1_1ImGuiRenderer.html#a4684d4374beee1f52053b4634edae2c8" target="_top" xlink:title=" ">
<polygon fill="white" stroke="#666666" points="289,-30 167,-30 167,0 289,0 289,-30"/>
<text text-anchor="start" x="175" y="-18" font-family="Helvetica,sans-Serif" font-size="10.00">mtgb::ImGuiRenderer</text>
<text text-anchor="middle" x="228" y="-7" font-family="Helvetica,sans-Serif" font-size="10.00">::BeginFrame</text>
</a>
</g>
</g>
<!-- Node6&#45;&gt;Node7 -->
<g id="edge6" class="edge">
<title>Node6&#45;&gt;Node7</title>
<path fill="none" stroke="#63b8ff" d="M323.66,-18.03C312.31,-17.67 300.47,-17.29 289.15,-16.93"/>
<polygon fill="#63b8ff" stroke="#63b8ff" points="323.81,-21.54 333.92,-18.36 324.04,-14.54 323.81,-21.54"/>
</g>
<!-- Node8 -->
<g id="node8" class="node">
<title>Node8</title>
<g id="a_node8"><a xlink:href="classmtgb_1_1RenderSystem.html#a14e39d4590efdf77c2085b12c6f3cdf5" target="_top" xlink:title=" ">
<polygon fill="white" stroke="#666666" points="131,-30 0,-30 0,0 131,0 131,-30"/>
<text text-anchor="start" x="8" y="-18" font-family="Helvetica,sans-Serif" font-size="10.00">mtgb::RenderSystem</text>
<text text-anchor="middle" x="65.5" y="-7" font-family="Helvetica,sans-Serif" font-size="10.00">::RenderImGuiWindows</text>
</a>
</g>
</g>
<!-- Node7&#45;&gt;Node8 -->
<g id="edge7" class="edge">
<title>Node7&#45;&gt;Node8</title>
<path fill="none" stroke="#63b8ff" d="M156.55,-15C148.08,-15 139.47,-15 131.09,-15"/>
<polygon fill="#63b8ff" stroke="#63b8ff" points="156.78,-18.5 166.78,-15 156.78,-11.5 156.78,-18.5"/>
</g>
</g>
</svg>
