<?xml version="1.0" encoding="UTF-8" standalone="no"?>
<!DOCTYPE svg PUBLIC "-//W3C//DTD SVG 1.1//EN"
 "http://www.w3.org/Graphics/SVG/1.1/DTD/svg11.dtd">
<!-- Generated by graphviz version 2.43.0 (0)
 -->
<!-- Title: boost::fusion::detail::adl_barrier::non_const_pointee_impl&lt; Ptr &gt; Pages: 1 -->
<svg width="237pt" height="420pt"
 viewBox="0.00 0.00 237.00 420.00" xmlns="http://www.w3.org/2000/svg" xmlns:xlink="http://www.w3.org/1999/xlink">
<g id="graph0" class="graph" transform="scale(1 1) rotate(0) translate(4 416)">
<title>boost::fusion::detail::adl_barrier::non_const_pointee_impl&lt; Ptr &gt;</title>
<!-- Node1 -->
<g id="node1" class="node">
<title>Node1</title>
<g id="a_node1"><a xlink:title=" ">
<polygon fill="#999999" stroke="#666666" points="29,-321.5 29,-411.5 167,-411.5 167,-321.5 29,-321.5"/>
<text text-anchor="start" x="37" y="-399.5" font-family="Helvetica,sans-Serif" font-size="10.00">boost::fusion::detail</text>
<text text-anchor="start" x="37" y="-388.5" font-family="Helvetica,sans-Serif" font-size="10.00">::adl_barrier::non_const</text>
<text text-anchor="middle" x="98" y="-377.5" font-family="Helvetica,sans-Serif" font-size="10.00">_pointee_impl&lt; Ptr &gt;</text>
<polyline fill="none" stroke="#666666" points="29,-370.5 167,-370.5 "/>
<text text-anchor="start" x="37" y="-358.5" font-family="Helvetica,sans-Serif" font-size="10.00">+ static Ptr &amp; what</text>
<text text-anchor="start" x="37" y="-347.5" font-family="Helvetica,sans-Serif" font-size="10.00">+ static bool const value</text>
<polyline fill="none" stroke="#666666" points="29,-340.5 167,-340.5 "/>
<text text-anchor="middle" x="98" y="-328.5" font-family="Helvetica,sans-Serif" font-size="10.00"> </text>
</a>
</g>
</g>
<!-- Node2 -->
<g id="node2" class="node">
<title>Node2</title>
<g id="a_node2"><a xlink:href="structboost_1_1fusion_1_1detail_1_1adl__barrier_1_1non__const__pointee__impl.html" target="_top" xlink:title=" ">
<polygon fill="white" stroke="#666666" points="0,-117.5 0,-251.5 196,-251.5 196,-117.5 0,-117.5"/>
<text text-anchor="start" x="8" y="-239.5" font-family="Helvetica,sans-Serif" font-size="10.00">boost::fusion::detail</text>
<text text-anchor="start" x="8" y="-228.5" font-family="Helvetica,sans-Serif" font-size="10.00">::adl_barrier::non_const</text>
<text text-anchor="start" x="8" y="-217.5" font-family="Helvetica,sans-Serif" font-size="10.00">_pointee_impl&lt; remove_cv</text>
<text text-anchor="start" x="8" y="-206.5" font-family="Helvetica,sans-Serif" font-size="10.00">&lt; remove_reference&lt; PtrOrSmartPtr</text>
<text text-anchor="middle" x="98" y="-195.5" font-family="Helvetica,sans-Serif" font-size="10.00"> &gt;::type &gt;::type &gt;</text>
<polyline fill="none" stroke="#666666" points="0,-188.5 196,-188.5 "/>
<text text-anchor="start" x="8" y="-176.5" font-family="Helvetica,sans-Serif" font-size="10.00">+ static remove_cv&lt; remove</text>
<text text-anchor="start" x="8" y="-165.5" font-family="Helvetica,sans-Serif" font-size="10.00">_reference&lt; PtrOrSmartPtr</text>
<text text-anchor="start" x="8" y="-154.5" font-family="Helvetica,sans-Serif" font-size="10.00"> &gt;::type &gt;::type &amp; what</text>
<text text-anchor="start" x="8" y="-143.5" font-family="Helvetica,sans-Serif" font-size="10.00">+ static bool const value</text>
<polyline fill="none" stroke="#666666" points="0,-136.5 196,-136.5 "/>
<text text-anchor="middle" x="98" y="-124.5" font-family="Helvetica,sans-Serif" font-size="10.00"> </text>
</a>
</g>
</g>
<!-- Node1&#45;&gt;Node2 -->
<g id="edge1" class="edge">
<title>Node1&#45;&gt;Node2</title>
<path fill="none" stroke="orange" d="M98,-311.3C98,-292.5 98,-271.21 98,-251.55"/>
<polygon fill="orange" stroke="orange" points="94.5,-311.47 98,-321.47 101.5,-311.47 94.5,-311.47"/>
<text text-anchor="start" x="98" y="-295" font-family="Helvetica,sans-Serif" font-size="10.00"> &lt; remove_cv&lt; remove</text>
<text text-anchor="start" x="98" y="-284" font-family="Helvetica,sans-Serif" font-size="10.00">_reference&lt; PtrOrSmartPtr</text>
<text text-anchor="middle" x="163.5" y="-273" font-family="Helvetica,sans-Serif" font-size="10.00"> &gt;::type &gt;::type &gt;</text>
</g>
<!-- Node3 -->
<g id="node3" class="node">
<title>Node3</title>
<g id="a_node3"><a xlink:href="structboost_1_1fusion_1_1detail_1_1non__const__pointee.html" target="_top" xlink:title=" ">
<polygon fill="white" stroke="#666666" points="37,-0.5 37,-79.5 159,-79.5 159,-0.5 37,-0.5"/>
<text text-anchor="start" x="45" y="-67.5" font-family="Helvetica,sans-Serif" font-size="10.00">boost::fusion::detail</text>
<text text-anchor="start" x="45" y="-56.5" font-family="Helvetica,sans-Serif" font-size="10.00">::non_const_pointee&lt;</text>
<text text-anchor="middle" x="98" y="-45.5" font-family="Helvetica,sans-Serif" font-size="10.00"> PtrOrSmartPtr &gt;</text>
<polyline fill="none" stroke="#666666" points="37,-38.5 159,-38.5 "/>
<text text-anchor="middle" x="98" y="-26.5" font-family="Helvetica,sans-Serif" font-size="10.00"> </text>
<polyline fill="none" stroke="#666666" points="37,-19.5 159,-19.5 "/>
<text text-anchor="middle" x="98" y="-7.5" font-family="Helvetica,sans-Serif" font-size="10.00"> </text>
</a>
</g>
</g>
<!-- Node2&#45;&gt;Node3 -->
<g id="edge2" class="edge">
<title>Node2&#45;&gt;Node3</title>
<path fill="none" stroke="#63b8ff" d="M98,-107.05C98,-97.66 98,-88.38 98,-79.89"/>
<polygon fill="none" stroke="#63b8ff" points="94.5,-107.26 98,-117.26 101.5,-107.26 94.5,-107.26"/>
</g>
</g>
</svg>
