<?xml version="1.0" encoding="UTF-8" standalone="no"?>
<!DOCTYPE svg PUBLIC "-//W3C//DTD SVG 1.1//EN"
 "http://www.w3.org/Graphics/SVG/1.1/DTD/svg11.dtd">
<!-- Generated by graphviz version 2.43.0 (0)
 -->
<!-- Title: ExampleAppPropertyEditor Pages: 1 -->
<svg width="552pt" height="909pt"
 viewBox="0.00 0.00 552.00 909.00" xmlns="http://www.w3.org/2000/svg" xmlns:xlink="http://www.w3.org/1999/xlink">
<g id="graph0" class="graph" transform="scale(1 1) rotate(0) translate(4 905)">
<title>ExampleAppPropertyEditor</title>
<!-- Node1 -->
<g id="node1" class="node">
<title>Node1</title>
<g id="a_node1"><a xlink:title=" ">
<polygon fill="#999999" stroke="#666666" points="129,-0.5 129,-90.5 299,-90.5 299,-0.5 129,-0.5"/>
<text text-anchor="middle" x="214" y="-78.5" font-family="Helvetica,sans-Serif" font-size="10.00">ExampleAppPropertyEditor</text>
<polyline fill="none" stroke="#666666" points="129,-71.5 299,-71.5 "/>
<text text-anchor="middle" x="214" y="-59.5" font-family="Helvetica,sans-Serif" font-size="10.00"> </text>
<polyline fill="none" stroke="#666666" points="129,-52.5 299,-52.5 "/>
<text text-anchor="start" x="137" y="-40.5" font-family="Helvetica,sans-Serif" font-size="10.00">+ void Draw(ExampleTreeNode</text>
<text text-anchor="start" x="137" y="-29.5" font-family="Helvetica,sans-Serif" font-size="10.00"> *root_node)</text>
<text text-anchor="start" x="137" y="-18.5" font-family="Helvetica,sans-Serif" font-size="10.00">+ void DrawTreeNode(Example</text>
<text text-anchor="start" x="137" y="-7.5" font-family="Helvetica,sans-Serif" font-size="10.00">TreeNode *node)</text>
</a>
</g>
</g>
<!-- Node2 -->
<g id="node2" class="node">
<title>Node2</title>
<g id="a_node2"><a xlink:href="structImGuiTextFilter.html" target="_top" xlink:title=" ">
<polygon fill="white" stroke="#666666" points="41,-138.5 41,-316.5 203,-316.5 203,-138.5 41,-138.5"/>
<text text-anchor="middle" x="122" y="-304.5" font-family="Helvetica,sans-Serif" font-size="10.00">ImGuiTextFilter</text>
<polyline fill="none" stroke="#666666" points="41,-297.5 203,-297.5 "/>
<text text-anchor="start" x="49" y="-285.5" font-family="Helvetica,sans-Serif" font-size="10.00">+ char InputBuf</text>
<text text-anchor="start" x="49" y="-274.5" font-family="Helvetica,sans-Serif" font-size="10.00">+ int CountGrep</text>
<polyline fill="none" stroke="#666666" points="41,-267.5 203,-267.5 "/>
<text text-anchor="start" x="49" y="-255.5" font-family="Helvetica,sans-Serif" font-size="10.00">+ IMGUI_API ImGuiTextFilter</text>
<text text-anchor="start" x="49" y="-244.5" font-family="Helvetica,sans-Serif" font-size="10.00">(const char *default_filter=&quot;&quot;)</text>
<text text-anchor="start" x="49" y="-233.5" font-family="Helvetica,sans-Serif" font-size="10.00">+ IMGUI_API bool Draw</text>
<text text-anchor="start" x="49" y="-222.5" font-family="Helvetica,sans-Serif" font-size="10.00">(const char *label=&quot;Filter</text>
<text text-anchor="start" x="49" y="-211.5" font-family="Helvetica,sans-Serif" font-size="10.00"> (inc,&#45;exc)&quot;, float width=0.0f)</text>
<text text-anchor="start" x="49" y="-200.5" font-family="Helvetica,sans-Serif" font-size="10.00">+ IMGUI_API bool PassFilter</text>
<text text-anchor="start" x="49" y="-189.5" font-family="Helvetica,sans-Serif" font-size="10.00">(const char *text, const</text>
<text text-anchor="start" x="49" y="-178.5" font-family="Helvetica,sans-Serif" font-size="10.00"> char *text_end=NULL) const</text>
<text text-anchor="start" x="49" y="-167.5" font-family="Helvetica,sans-Serif" font-size="10.00">+ IMGUI_API void Build()</text>
<text text-anchor="start" x="49" y="-156.5" font-family="Helvetica,sans-Serif" font-size="10.00">+ void Clear()</text>
<text text-anchor="start" x="49" y="-145.5" font-family="Helvetica,sans-Serif" font-size="10.00">+ bool IsActive() const</text>
</a>
</g>
</g>
<!-- Node2&#45;&gt;Node1 -->
<g id="edge1" class="edge">
<title>Node2&#45;&gt;Node1</title>
<path fill="none" stroke="#404040" d="M167.06,-138.35C173.47,-125.79 179.92,-113.19 185.88,-101.51"/>
<polygon fill="none" stroke="#404040" points="185.98,-101.32 185.15,-94.16 191.44,-90.64 192.27,-97.8 185.98,-101.32"/>
<text text-anchor="middle" x="200.5" y="-112" font-family="Helvetica,sans-Serif" font-size="10.00"> +Filter</text>
</g>
<!-- Node3 -->
<g id="node3" class="node">
<title>Node3</title>
<g id="a_node3"><a xlink:href="structImVector.html" target="_top" xlink:title=" ">
<polygon fill="white" stroke="#666666" points="0,-364.5 0,-619.5 188,-619.5 188,-364.5 0,-364.5"/>
<text text-anchor="start" x="8" y="-607.5" font-family="Helvetica,sans-Serif" font-size="10.00">ImVector&lt; ImGuiTextFilter</text>
<text text-anchor="middle" x="94" y="-596.5" font-family="Helvetica,sans-Serif" font-size="10.00">::ImGuiTextRange &gt;</text>
<polyline fill="none" stroke="#666666" points="0,-589.5 188,-589.5 "/>
<text text-anchor="start" x="8" y="-577.5" font-family="Helvetica,sans-Serif" font-size="10.00">+ int Size</text>
<text text-anchor="start" x="8" y="-566.5" font-family="Helvetica,sans-Serif" font-size="10.00">+ int Capacity</text>
<polyline fill="none" stroke="#666666" points="0,-559.5 188,-559.5 "/>
<text text-anchor="start" x="8" y="-547.5" font-family="Helvetica,sans-Serif" font-size="10.00">+ ImVector()</text>
<text text-anchor="start" x="8" y="-536.5" font-family="Helvetica,sans-Serif" font-size="10.00">+ ImVector(const ImVector</text>
<text text-anchor="start" x="8" y="-525.5" font-family="Helvetica,sans-Serif" font-size="10.00">&lt; ImGuiTextFilter::ImGuiTextRange</text>
<text text-anchor="start" x="8" y="-514.5" font-family="Helvetica,sans-Serif" font-size="10.00"> &gt; &amp;src)</text>
<text text-anchor="start" x="8" y="-503.5" font-family="Helvetica,sans-Serif" font-size="10.00">+ ImVector&lt; ImGuiTextFilter</text>
<text text-anchor="start" x="8" y="-492.5" font-family="Helvetica,sans-Serif" font-size="10.00">::ImGuiTextRange &gt; &amp; operator</text>
<text text-anchor="start" x="8" y="-481.5" font-family="Helvetica,sans-Serif" font-size="10.00">=(const ImVector&lt; ImGuiTextFilter</text>
<text text-anchor="start" x="8" y="-470.5" font-family="Helvetica,sans-Serif" font-size="10.00">::ImGuiTextRange &gt; &amp;src)</text>
<text text-anchor="start" x="8" y="-459.5" font-family="Helvetica,sans-Serif" font-size="10.00">+ ~ImVector()</text>
<text text-anchor="start" x="8" y="-448.5" font-family="Helvetica,sans-Serif" font-size="10.00">+ void clear()</text>
<text text-anchor="start" x="8" y="-437.5" font-family="Helvetica,sans-Serif" font-size="10.00">+ void clear_delete()</text>
<text text-anchor="start" x="8" y="-426.5" font-family="Helvetica,sans-Serif" font-size="10.00">+ void clear_destruct()</text>
<text text-anchor="start" x="8" y="-415.5" font-family="Helvetica,sans-Serif" font-size="10.00">+ bool empty() const</text>
<text text-anchor="start" x="8" y="-404.5" font-family="Helvetica,sans-Serif" font-size="10.00">+ int size() const</text>
<text text-anchor="start" x="8" y="-393.5" font-family="Helvetica,sans-Serif" font-size="10.00">+ int size_in_bytes()</text>
<text text-anchor="start" x="8" y="-382.5" font-family="Helvetica,sans-Serif" font-size="10.00"> const</text>
<text text-anchor="start" x="8" y="-371.5" font-family="Helvetica,sans-Serif" font-size="10.00">ほか 33 件…</text>
</a>
</g>
</g>
<!-- Node3&#45;&gt;Node2 -->
<g id="edge2" class="edge">
<title>Node3&#45;&gt;Node2</title>
<path fill="none" stroke="#404040" d="M107.51,-364.36C108.78,-352.39 110.07,-340.38 111.31,-328.7"/>
<polygon fill="none" stroke="#404040" points="111.32,-328.61 107.98,-322.22 112.59,-316.68 115.93,-323.07 111.32,-328.61"/>
<text text-anchor="middle" x="132" y="-338" font-family="Helvetica,sans-Serif" font-size="10.00"> +Filters</text>
</g>
<!-- Node4 -->
<g id="node4" class="node">
<title>Node4</title>
<g id="a_node4"><a xlink:href="structImGuiTextFilter_1_1ImGuiTextRange.html" target="_top" xlink:title=" ">
<polygon fill="white" stroke="#666666" points="6,-717 6,-862 182,-862 182,-717 6,-717"/>
<text text-anchor="start" x="14" y="-850" font-family="Helvetica,sans-Serif" font-size="10.00">ImGuiTextFilter::ImGuiText</text>
<text text-anchor="middle" x="94" y="-839" font-family="Helvetica,sans-Serif" font-size="10.00">Range</text>
<polyline fill="none" stroke="#666666" points="6,-832 182,-832 "/>
<text text-anchor="start" x="14" y="-820" font-family="Helvetica,sans-Serif" font-size="10.00">+ const char * b</text>
<text text-anchor="start" x="14" y="-809" font-family="Helvetica,sans-Serif" font-size="10.00">+ const char * e</text>
<polyline fill="none" stroke="#666666" points="6,-802 182,-802 "/>
<text text-anchor="start" x="14" y="-790" font-family="Helvetica,sans-Serif" font-size="10.00">+ ImGuiTextRange()</text>
<text text-anchor="start" x="14" y="-779" font-family="Helvetica,sans-Serif" font-size="10.00">+ ImGuiTextRange(const</text>
<text text-anchor="start" x="14" y="-768" font-family="Helvetica,sans-Serif" font-size="10.00"> char *_b, const char *_e)</text>
<text text-anchor="start" x="14" y="-757" font-family="Helvetica,sans-Serif" font-size="10.00">+ bool empty() const</text>
<text text-anchor="start" x="14" y="-746" font-family="Helvetica,sans-Serif" font-size="10.00">+ IMGUI_API void split</text>
<text text-anchor="start" x="14" y="-735" font-family="Helvetica,sans-Serif" font-size="10.00">(char separator, ImVector</text>
<text text-anchor="start" x="14" y="-724" font-family="Helvetica,sans-Serif" font-size="10.00">&lt; ImGuiTextRange &gt; *out) const</text>
</a>
</g>
</g>
<!-- Node4&#45;&gt;Node3 -->
<g id="edge3" class="edge">
<title>Node4&#45;&gt;Node3</title>
<path fill="none" stroke="#404040" d="M94,-716.97C94,-691.22 94,-661.22 94,-631.71"/>
<polygon fill="none" stroke="#404040" points="94,-631.55 90,-625.55 94,-619.55 98,-625.55 94,-631.55"/>
<text text-anchor="middle" x="111.5" y="-646.5" font-family="Helvetica,sans-Serif" font-size="10.00"> +Data</text>
</g>
<!-- Node5 -->
<g id="node5" class="node">
<title>Node5</title>
<g id="a_node5"><a xlink:href="structImVector.html" target="_top" xlink:title=" ">
<polygon fill="white" stroke="#666666" points="208,-678.5 208,-900.5 366,-900.5 366,-678.5 208,-678.5"/>
<text text-anchor="middle" x="287" y="-888.5" font-family="Helvetica,sans-Serif" font-size="10.00">ImVector&lt; T &gt;</text>
<polyline fill="none" stroke="#666666" points="208,-881.5 366,-881.5 "/>
<text text-anchor="start" x="216" y="-869.5" font-family="Helvetica,sans-Serif" font-size="10.00">+ int Size</text>
<text text-anchor="start" x="216" y="-858.5" font-family="Helvetica,sans-Serif" font-size="10.00">+ int Capacity</text>
<text text-anchor="start" x="216" y="-847.5" font-family="Helvetica,sans-Serif" font-size="10.00">+ T * Data</text>
<polyline fill="none" stroke="#666666" points="208,-840.5 366,-840.5 "/>
<text text-anchor="start" x="216" y="-828.5" font-family="Helvetica,sans-Serif" font-size="10.00">+ ImVector()</text>
<text text-anchor="start" x="216" y="-817.5" font-family="Helvetica,sans-Serif" font-size="10.00">+ ImVector(const ImVector</text>
<text text-anchor="start" x="216" y="-806.5" font-family="Helvetica,sans-Serif" font-size="10.00">&lt; T &gt; &amp;src)</text>
<text text-anchor="start" x="216" y="-795.5" font-family="Helvetica,sans-Serif" font-size="10.00">+ ImVector&lt; T &gt; &amp; operator</text>
<text text-anchor="start" x="216" y="-784.5" font-family="Helvetica,sans-Serif" font-size="10.00">=(const ImVector&lt; T &gt; &amp;src)</text>
<text text-anchor="start" x="216" y="-773.5" font-family="Helvetica,sans-Serif" font-size="10.00">+ ~ImVector()</text>
<text text-anchor="start" x="216" y="-762.5" font-family="Helvetica,sans-Serif" font-size="10.00">+ void clear()</text>
<text text-anchor="start" x="216" y="-751.5" font-family="Helvetica,sans-Serif" font-size="10.00">+ void clear_delete()</text>
<text text-anchor="start" x="216" y="-740.5" font-family="Helvetica,sans-Serif" font-size="10.00">+ void clear_destruct()</text>
<text text-anchor="start" x="216" y="-729.5" font-family="Helvetica,sans-Serif" font-size="10.00">+ bool empty() const</text>
<text text-anchor="start" x="216" y="-718.5" font-family="Helvetica,sans-Serif" font-size="10.00">+ int size() const</text>
<text text-anchor="start" x="216" y="-707.5" font-family="Helvetica,sans-Serif" font-size="10.00">+ int size_in_bytes()</text>
<text text-anchor="start" x="216" y="-696.5" font-family="Helvetica,sans-Serif" font-size="10.00"> const</text>
<text text-anchor="start" x="216" y="-685.5" font-family="Helvetica,sans-Serif" font-size="10.00">ほか 33 件…</text>
</a>
</g>
</g>
<!-- Node5&#45;&gt;Node3 -->
<g id="edge4" class="edge">
<title>Node5&#45;&gt;Node3</title>
<path fill="none" stroke="orange" d="M202,-674.84C198.58,-669.86 195.23,-664.89 192,-660 183.48,-647.1 174.86,-633.44 166.44,-619.71"/>
<polygon fill="orange" stroke="orange" points="199.25,-677.02 207.81,-683.25 205,-673.03 199.25,-677.02"/>
<text text-anchor="start" x="192" y="-652" font-family="Helvetica,sans-Serif" font-size="10.00"> &lt; ImGuiTextFilter::</text>
<text text-anchor="middle" x="239.5" y="-641" font-family="Helvetica,sans-Serif" font-size="10.00">ImGuiTextRange &gt;</text>
</g>
<!-- Node7 -->
<g id="node7" class="node">
<title>Node7</title>
<g id="a_node7"><a xlink:href="structImVector.html" target="_top" xlink:title=" ">
<polygon fill="white" stroke="#666666" points="206.5,-375.5 206.5,-608.5 385.5,-608.5 385.5,-375.5 206.5,-375.5"/>
<text text-anchor="middle" x="296" y="-596.5" font-family="Helvetica,sans-Serif" font-size="10.00">ImVector&lt; ExampleTreeNode * &gt;</text>
<polyline fill="none" stroke="#666666" points="206.5,-589.5 385.5,-589.5 "/>
<text text-anchor="start" x="214.5" y="-577.5" font-family="Helvetica,sans-Serif" font-size="10.00">+ int Size</text>
<text text-anchor="start" x="214.5" y="-566.5" font-family="Helvetica,sans-Serif" font-size="10.00">+ int Capacity</text>
<polyline fill="none" stroke="#666666" points="206.5,-559.5 385.5,-559.5 "/>
<text text-anchor="start" x="214.5" y="-547.5" font-family="Helvetica,sans-Serif" font-size="10.00">+ ImVector()</text>
<text text-anchor="start" x="214.5" y="-536.5" font-family="Helvetica,sans-Serif" font-size="10.00">+ ImVector(const ImVector</text>
<text text-anchor="start" x="214.5" y="-525.5" font-family="Helvetica,sans-Serif" font-size="10.00">&lt; ExampleTreeNode * &gt; &amp;src)</text>
<text text-anchor="start" x="214.5" y="-514.5" font-family="Helvetica,sans-Serif" font-size="10.00">+ ImVector&lt; ExampleTreeNode</text>
<text text-anchor="start" x="214.5" y="-503.5" font-family="Helvetica,sans-Serif" font-size="10.00"> * &gt; &amp; operator=(const</text>
<text text-anchor="start" x="214.5" y="-492.5" font-family="Helvetica,sans-Serif" font-size="10.00"> ImVector&lt; ExampleTreeNode</text>
<text text-anchor="start" x="214.5" y="-481.5" font-family="Helvetica,sans-Serif" font-size="10.00"> * &gt; &amp;src)</text>
<text text-anchor="start" x="214.5" y="-470.5" font-family="Helvetica,sans-Serif" font-size="10.00">+ ~ImVector()</text>
<text text-anchor="start" x="214.5" y="-459.5" font-family="Helvetica,sans-Serif" font-size="10.00">+ void clear()</text>
<text text-anchor="start" x="214.5" y="-448.5" font-family="Helvetica,sans-Serif" font-size="10.00">+ void clear_delete()</text>
<text text-anchor="start" x="214.5" y="-437.5" font-family="Helvetica,sans-Serif" font-size="10.00">+ void clear_destruct()</text>
<text text-anchor="start" x="214.5" y="-426.5" font-family="Helvetica,sans-Serif" font-size="10.00">+ bool empty() const</text>
<text text-anchor="start" x="214.5" y="-415.5" font-family="Helvetica,sans-Serif" font-size="10.00">+ int size() const</text>
<text text-anchor="start" x="214.5" y="-404.5" font-family="Helvetica,sans-Serif" font-size="10.00">+ int size_in_bytes()</text>
<text text-anchor="start" x="214.5" y="-393.5" font-family="Helvetica,sans-Serif" font-size="10.00"> const</text>
<text text-anchor="start" x="214.5" y="-382.5" font-family="Helvetica,sans-Serif" font-size="10.00">ほか 33 件…</text>
</a>
</g>
</g>
<!-- Node5&#45;&gt;Node7 -->
<g id="edge9" class="edge">
<title>Node5&#45;&gt;Node7</title>
<path fill="none" stroke="orange" d="M290.66,-668.23C291.26,-648.53 291.88,-628.15 292.48,-608.56"/>
<polygon fill="orange" stroke="orange" points="287.16,-668.36 290.35,-678.47 294.15,-668.58 287.16,-668.36"/>
<text text-anchor="middle" x="353.5" y="-646.5" font-family="Helvetica,sans-Serif" font-size="10.00"> &lt; ExampleTreeNode * &gt;</text>
</g>
<!-- Node6 -->
<g id="node6" class="node">
<title>Node6</title>
<g id="a_node6"><a xlink:href="structExampleTreeNode.html" target="_top" xlink:title=" ">
<polygon fill="white" stroke="#666666" points="225,-171.5 225,-283.5 395,-283.5 395,-171.5 225,-171.5"/>
<text text-anchor="middle" x="310" y="-271.5" font-family="Helvetica,sans-Serif" font-size="10.00">ExampleTreeNode</text>
<polyline fill="none" stroke="#666666" points="225,-264.5 395,-264.5 "/>
<text text-anchor="start" x="233" y="-252.5" font-family="Helvetica,sans-Serif" font-size="10.00">+ char Name</text>
<text text-anchor="start" x="233" y="-241.5" font-family="Helvetica,sans-Serif" font-size="10.00">+ int UID</text>
<text text-anchor="start" x="233" y="-230.5" font-family="Helvetica,sans-Serif" font-size="10.00">+ unsigned short IndexInParent</text>
<text text-anchor="start" x="233" y="-219.5" font-family="Helvetica,sans-Serif" font-size="10.00">+ bool HasData</text>
<text text-anchor="start" x="233" y="-208.5" font-family="Helvetica,sans-Serif" font-size="10.00">+ bool DataMyBool</text>
<text text-anchor="start" x="233" y="-197.5" font-family="Helvetica,sans-Serif" font-size="10.00">+ int DataMyInt</text>
<polyline fill="none" stroke="#666666" points="225,-190.5 395,-190.5 "/>
<text text-anchor="middle" x="310" y="-178.5" font-family="Helvetica,sans-Serif" font-size="10.00"> </text>
</a>
</g>
</g>
<!-- Node6&#45;&gt;Node1 -->
<g id="edge5" class="edge">
<title>Node6&#45;&gt;Node1</title>
<path fill="none" stroke="#404040" d="M280.41,-171.03C268.63,-148.93 255.1,-123.57 243.35,-101.52"/>
<polygon fill="none" stroke="#404040" points="243.2,-101.25 236.85,-97.84 237.55,-90.66 243.91,-94.08 243.2,-101.25"/>
<text text-anchor="middle" x="286" y="-112" font-family="Helvetica,sans-Serif" font-size="10.00"> +VisibleNode</text>
</g>
<!-- Node6&#45;&gt;Node6 -->
<g id="edge6" class="edge">
<title>Node6&#45;&gt;Node6</title>
<path fill="none" stroke="#404040" d="M395.25,-245.79C405.95,-242.56 413,-236.47 413,-227.5 413,-222.17 410.52,-217.86 406.26,-214.56"/>
<polygon fill="none" stroke="#404040" points="406.04,-214.46 398.9,-215.43 395.25,-209.21 402.39,-208.24 406.04,-214.46"/>
<text text-anchor="middle" x="434.5" y="-225" font-family="Helvetica,sans-Serif" font-size="10.00"> +Parent</text>
</g>
<!-- Node6&#45;&gt;Node7 -->
<g id="edge8" class="edge">
<title>Node6&#45;&gt;Node7</title>
<path fill="none" stroke="#404040" d="M308.52,-283.51C307.89,-303.23 307.05,-325.62 306,-346 305.71,-351.69 305.39,-357.5 305.05,-363.36"/>
<polygon fill="none" stroke="#404040" points="305.04,-363.49 308.68,-369.72 304.33,-375.47 300.69,-369.24 305.04,-363.49"/>
<text text-anchor="middle" x="324.5" y="-338" font-family="Helvetica,sans-Serif" font-size="10.00"> +Data</text>
</g>
<!-- Node7&#45;&gt;Node6 -->
<g id="edge7" class="edge">
<title>Node7&#45;&gt;Node6</title>
<path fill="none" stroke="#404040" d="M261.63,-375.13C260.76,-361.6 261.31,-348 264,-335 266.76,-321.65 271.27,-307.92 276.42,-294.94"/>
<polygon fill="none" stroke="#404040" points="276.47,-294.83 275.09,-287.75 281.09,-283.75 282.47,-290.83 276.47,-294.83"/>
<text text-anchor="middle" x="285" y="-338" font-family="Helvetica,sans-Serif" font-size="10.00"> +Childs</text>
</g>
<!-- Node8 -->
<g id="node8" class="node">
<title>Node8</title>
<g id="a_node8"><a xlink:href="structImVec2.html" target="_top" xlink:title=" ">
<polygon fill="white" stroke="#666666" points="404,-425 404,-559 544,-559 544,-425 404,-425"/>
<text text-anchor="middle" x="474" y="-547" font-family="Helvetica,sans-Serif" font-size="10.00">ImVec2</text>
<polyline fill="none" stroke="#666666" points="404,-540 544,-540 "/>
<text text-anchor="start" x="412" y="-528" font-family="Helvetica,sans-Serif" font-size="10.00">+ float x</text>
<text text-anchor="start" x="412" y="-517" font-family="Helvetica,sans-Serif" font-size="10.00">+ float y</text>
<polyline fill="none" stroke="#666666" points="404,-510 544,-510 "/>
<text text-anchor="start" x="412" y="-498" font-family="Helvetica,sans-Serif" font-size="10.00">+ constexpr ImVec2()</text>
<text text-anchor="start" x="412" y="-487" font-family="Helvetica,sans-Serif" font-size="10.00">+ constexpr ImVec2(float</text>
<text text-anchor="start" x="412" y="-476" font-family="Helvetica,sans-Serif" font-size="10.00"> _x, float _y)</text>
<text text-anchor="start" x="412" y="-465" font-family="Helvetica,sans-Serif" font-size="10.00">+ float &amp; operator[]</text>
<text text-anchor="start" x="412" y="-454" font-family="Helvetica,sans-Serif" font-size="10.00">(size_t idx)</text>
<text text-anchor="start" x="412" y="-443" font-family="Helvetica,sans-Serif" font-size="10.00">+ float operator[](size</text>
<text text-anchor="start" x="412" y="-432" font-family="Helvetica,sans-Serif" font-size="10.00">_t idx) const</text>
</a>
</g>
</g>
<!-- Node8&#45;&gt;Node6 -->
<g id="edge10" class="edge">
<title>Node8&#45;&gt;Node6</title>
<path fill="none" stroke="#404040" d="M432.62,-424.76C407.62,-384.75 375.88,-333.95 350.96,-294.06"/>
<polygon fill="none" stroke="#404040" points="350.81,-293.82 344.24,-290.85 344.45,-283.64 351.02,-286.61 350.81,-293.82"/>
<text text-anchor="middle" x="419.5" y="-338" font-family="Helvetica,sans-Serif" font-size="10.00"> +DataMyVec2</text>
</g>
</g>
</svg>
