<?xml version="1.0" encoding="UTF-8" standalone="no"?>
<!DOCTYPE svg PUBLIC "-//W3C//DTD SVG 1.1//EN"
 "http://www.w3.org/Graphics/SVG/1.1/DTD/svg11.dtd">
<!-- Generated by graphviz version 2.43.0 (0)
 -->
<!-- Title: ExampleAppConsole::ExecCommand Pages: 1 -->
<svg width="796pt" height="313pt"
 viewBox="0.00 0.00 796.00 312.93" xmlns="http://www.w3.org/2000/svg" xmlns:xlink="http://www.w3.org/1999/xlink">
<g id="graph0" class="graph" transform="scale(1 1) rotate(0) translate(4 308.93)">
<title>ExampleAppConsole::ExecCommand</title>
<!-- Node1 -->
<g id="node1" class="node">
<title>Node1</title>
<g id="a_node1"><a xlink:title=" ">
<polygon fill="#999999" stroke="#666666" points="123,-175 0,-175 0,-145 123,-145 123,-175"/>
<text text-anchor="start" x="8" y="-163" font-family="Helvetica,sans-Serif" font-size="10.00">ExampleAppConsole::</text>
<text text-anchor="middle" x="61.5" y="-152" font-family="Helvetica,sans-Serif" font-size="10.00">ExecCommand</text>
</a>
</g>
</g>
<!-- Node2 -->
<g id="node2" class="node">
<title>Node2</title>
<g id="a_node2"><a xlink:href="structExampleAppConsole.html#a719354ce6be7481923a5fd702e785952" target="_top" xlink:title=" ">
<polygon fill="white" stroke="#666666" points="282,-278 159,-278 159,-248 282,-248 282,-278"/>
<text text-anchor="start" x="167" y="-266" font-family="Helvetica,sans-Serif" font-size="10.00">ExampleAppConsole::</text>
<text text-anchor="middle" x="220.5" y="-255" font-family="Helvetica,sans-Serif" font-size="10.00">AddLog</text>
</a>
</g>
</g>
<!-- Node1&#45;&gt;Node2 -->
<g id="edge1" class="edge">
<title>Node1&#45;&gt;Node2</title>
<path fill="none" stroke="#63b8ff" d="M79.84,-175.07C98.57,-190.92 129.67,-216 159,-234 164.34,-237.28 170.11,-240.46 175.89,-243.44"/>
<polygon fill="#63b8ff" stroke="#63b8ff" points="174.42,-246.62 184.93,-247.95 177.54,-240.35 174.42,-246.62"/>
</g>
<!-- Node3 -->
<g id="node3" class="node">
<title>Node3</title>
<g id="a_node3"><a xlink:href="structImVector.html#aab5df48e0711a48bd12f3206e08c4108" target="_top" xlink:title=" ">
<polygon fill="white" stroke="#666666" points="438.5,-289.5 320.5,-289.5 320.5,-270.5 438.5,-270.5 438.5,-289.5"/>
<text text-anchor="middle" x="379.5" y="-277.5" font-family="Helvetica,sans-Serif" font-size="10.00">ImVector::push_back</text>
</a>
</g>
</g>
<!-- Node1&#45;&gt;Node3 -->
<g id="edge15" class="edge">
<title>Node1&#45;&gt;Node3</title>
<path fill="none" stroke="#63b8ff" d="M68.65,-175.41C80.9,-203.75 111.37,-263.37 159,-287 216.16,-315.35 292.38,-303.65 338.32,-292.14"/>
<polygon fill="#63b8ff" stroke="#63b8ff" points="339.42,-295.47 348.21,-289.55 337.64,-288.7 339.42,-295.47"/>
</g>
<!-- Node6 -->
<g id="node6" class="node">
<title>Node6</title>
<g id="a_node6"><a xlink:href="structExampleAppConsole.html#ab81253ac3575f7fcd63a61c7f5820913" target="_top" xlink:title=" ">
<polygon fill="white" stroke="#666666" points="441,-235 318,-235 318,-205 441,-205 441,-235"/>
<text text-anchor="start" x="326" y="-223" font-family="Helvetica,sans-Serif" font-size="10.00">ExampleAppConsole::</text>
<text text-anchor="middle" x="379.5" y="-212" font-family="Helvetica,sans-Serif" font-size="10.00">Strdup</text>
</a>
</g>
</g>
<!-- Node1&#45;&gt;Node6 -->
<g id="edge16" class="edge">
<title>Node1&#45;&gt;Node6</title>
<path fill="none" stroke="#63b8ff" d="M91.23,-175.04C110,-184.15 135.33,-195.11 159,-201 207.62,-213.11 263.96,-217.8 307.38,-219.49"/>
<polygon fill="#63b8ff" stroke="#63b8ff" points="307.45,-223 317.57,-219.85 307.69,-216 307.45,-223"/>
</g>
<!-- Node9 -->
<g id="node9" class="node">
<title>Node9</title>
<g id="a_node9"><a xlink:href="structImVector.html#ab48ae48675fa779e29c9ae5892bb99f4" target="_top" xlink:title=" ">
<polygon fill="white" stroke="#666666" points="267,-191.5 174,-191.5 174,-172.5 267,-172.5 267,-191.5"/>
<text text-anchor="middle" x="220.5" y="-179.5" font-family="Helvetica,sans-Serif" font-size="10.00">ImVector::begin</text>
</a>
</g>
</g>
<!-- Node1&#45;&gt;Node9 -->
<g id="edge8" class="edge">
<title>Node1&#45;&gt;Node9</title>
<path fill="none" stroke="#63b8ff" d="M123.2,-168.51C136.41,-170.36 150.33,-172.31 163.35,-174.13"/>
<polygon fill="#63b8ff" stroke="#63b8ff" points="163.18,-177.64 173.57,-175.56 164.16,-170.71 163.18,-177.64"/>
</g>
<!-- Node10 -->
<g id="node10" class="node">
<title>Node10</title>
<g id="a_node10"><a xlink:href="structExampleAppConsole.html#a2ef13f00c474b16b8da2ec062d5e5cc2" target="_top" xlink:title=" ">
<polygon fill="white" stroke="#666666" points="282,-154 159,-154 159,-124 282,-124 282,-154"/>
<text text-anchor="start" x="167" y="-142" font-family="Helvetica,sans-Serif" font-size="10.00">ExampleAppConsole::</text>
<text text-anchor="middle" x="220.5" y="-131" font-family="Helvetica,sans-Serif" font-size="10.00">ClearLog</text>
</a>
</g>
</g>
<!-- Node1&#45;&gt;Node10 -->
<g id="edge9" class="edge">
<title>Node1&#45;&gt;Node10</title>
<path fill="none" stroke="#63b8ff" d="M123.2,-151.88C131.64,-150.75 140.36,-149.59 148.95,-148.44"/>
<polygon fill="#63b8ff" stroke="#63b8ff" points="149.51,-151.89 158.96,-147.1 148.59,-144.95 149.51,-151.89"/>
</g>
<!-- Node12 -->
<g id="node12" class="node">
<title>Node12</title>
<g id="a_node12"><a xlink:href="namespaceImGui.html#a269ec695c6e722ec3da85dae37f0675d" target="_top" xlink:title=" ">
<polygon fill="white" stroke="#666666" points="428.5,-130.5 330.5,-130.5 330.5,-111.5 428.5,-111.5 428.5,-130.5"/>
<text text-anchor="middle" x="379.5" y="-118.5" font-family="Helvetica,sans-Serif" font-size="10.00">ImGui::MemFree</text>
</a>
</g>
</g>
<!-- Node1&#45;&gt;Node12 -->
<g id="edge14" class="edge">
<title>Node1&#45;&gt;Node12</title>
<path fill="none" stroke="#63b8ff" d="M87.22,-144.78C106.11,-134.09 133.19,-120.72 159,-115 212.69,-103.1 275.58,-106.51 320.24,-111.77"/>
<polygon fill="#63b8ff" stroke="#63b8ff" points="319.98,-115.26 330.33,-113.02 320.84,-108.31 319.98,-115.26"/>
</g>
<!-- Node13 -->
<g id="node13" class="node">
<title>Node13</title>
<g id="a_node13"><a xlink:href="structImVector.html#a2f88ac70791f2da6d4168d7b29f38f1e" target="_top" xlink:title=" ">
<polygon fill="white" stroke="#666666" points="267,-67.5 174,-67.5 174,-48.5 267,-48.5 267,-67.5"/>
<text text-anchor="middle" x="220.5" y="-55.5" font-family="Helvetica,sans-Serif" font-size="10.00">ImVector::erase</text>
</a>
</g>
</g>
<!-- Node1&#45;&gt;Node13 -->
<g id="edge13" class="edge">
<title>Node1&#45;&gt;Node13</title>
<path fill="none" stroke="#63b8ff" d="M78.12,-144.85C96.34,-127.81 127.94,-100.15 159,-82 165.86,-77.99 173.52,-74.38 181.01,-71.24"/>
<polygon fill="#63b8ff" stroke="#63b8ff" points="182.35,-74.47 190.35,-67.52 179.77,-67.97 182.35,-74.47"/>
</g>
<!-- Node14 -->
<g id="node14" class="node">
<title>Node14</title>
<g id="a_node14"><a xlink:href="structExampleAppConsole.html#a3ac60d63c0eed2d3ad282fbbc1ae068a" target="_top" xlink:title=" ">
<polygon fill="white" stroke="#666666" points="282,-30 159,-30 159,0 282,0 282,-30"/>
<text text-anchor="start" x="167" y="-18" font-family="Helvetica,sans-Serif" font-size="10.00">ExampleAppConsole::</text>
<text text-anchor="middle" x="220.5" y="-7" font-family="Helvetica,sans-Serif" font-size="10.00">Stricmp</text>
</a>
</g>
</g>
<!-- Node1&#45;&gt;Node14 -->
<g id="edge17" class="edge">
<title>Node1&#45;&gt;Node14</title>
<path fill="none" stroke="#63b8ff" d="M70.95,-144.89C85.75,-119.69 118.63,-68.91 159,-39 160.84,-37.63 162.78,-36.33 164.77,-35.1"/>
<polygon fill="#63b8ff" stroke="#63b8ff" points="166.79,-37.98 173.84,-30.08 163.4,-31.86 166.79,-37.98"/>
</g>
<!-- Node2&#45;&gt;Node3 -->
<g id="edge2" class="edge">
<title>Node2&#45;&gt;Node3</title>
<path fill="none" stroke="#63b8ff" d="M282.2,-269.57C291.39,-270.57 300.92,-271.6 310.26,-272.61"/>
<polygon fill="#63b8ff" stroke="#63b8ff" points="309.96,-276.1 320.28,-273.7 310.72,-269.14 309.96,-276.1"/>
</g>
<!-- Node2&#45;&gt;Node6 -->
<g id="edge5" class="edge">
<title>Node2&#45;&gt;Node6</title>
<path fill="none" stroke="#63b8ff" d="M276.41,-247.96C288.48,-244.65 301.37,-241.12 313.79,-237.72"/>
<polygon fill="#63b8ff" stroke="#63b8ff" points="314.9,-241.05 323.62,-235.03 313.05,-234.3 314.9,-241.05"/>
</g>
<!-- Node4 -->
<g id="node4" class="node">
<title>Node4</title>
<g id="a_node4"><a xlink:href="structImVector.html#a3a097635d464b1b70dc7d59996a88b28" target="_top" xlink:title=" ">
<polygon fill="white" stroke="#666666" points="619,-297.5 477,-297.5 477,-278.5 619,-278.5 619,-297.5"/>
<text text-anchor="middle" x="548" y="-285.5" font-family="Helvetica,sans-Serif" font-size="10.00">ImVector::_grow_capacity</text>
</a>
</g>
</g>
<!-- Node3&#45;&gt;Node4 -->
<g id="edge3" class="edge">
<title>Node3&#45;&gt;Node4</title>
<path fill="none" stroke="#63b8ff" d="M438.73,-282.8C447.76,-283.23 457.21,-283.69 466.61,-284.14"/>
<polygon fill="#63b8ff" stroke="#63b8ff" points="466.62,-287.64 476.78,-284.63 466.96,-280.65 466.62,-287.64"/>
</g>
<!-- Node5 -->
<g id="node5" class="node">
<title>Node5</title>
<g id="a_node5"><a xlink:href="structImVector.html#a0f14f5736c3372157856eebb67123b75" target="_top" xlink:title=" ">
<polygon fill="white" stroke="#666666" points="599.5,-260.5 496.5,-260.5 496.5,-241.5 599.5,-241.5 599.5,-260.5"/>
<text text-anchor="middle" x="548" y="-248.5" font-family="Helvetica,sans-Serif" font-size="10.00">ImVector::reserve</text>
</a>
</g>
</g>
<!-- Node3&#45;&gt;Node5 -->
<g id="edge4" class="edge">
<title>Node3&#45;&gt;Node5</title>
<path fill="none" stroke="#63b8ff" d="M435.48,-270.42C451.72,-267.6 469.58,-264.48 486.17,-261.6"/>
<polygon fill="#63b8ff" stroke="#63b8ff" points="487.05,-264.99 496.3,-259.83 485.85,-258.1 487.05,-264.99"/>
</g>
<!-- Node7 -->
<g id="node7" class="node">
<title>Node7</title>
<g id="a_node7"><a xlink:href="namespaceImGui.html#aed896913f2e140cd0ad7431060dba50b" target="_top" xlink:title=" ">
<polygon fill="white" stroke="#666666" points="598.5,-220.5 497.5,-220.5 497.5,-201.5 598.5,-201.5 598.5,-220.5"/>
<text text-anchor="middle" x="548" y="-208.5" font-family="Helvetica,sans-Serif" font-size="10.00">ImGui::MemAlloc</text>
</a>
</g>
</g>
<!-- Node6&#45;&gt;Node7 -->
<g id="edge6" class="edge">
<title>Node6&#45;&gt;Node7</title>
<path fill="none" stroke="#63b8ff" d="M441.08,-216.73C456.12,-215.91 472.22,-215.04 487.21,-214.23"/>
<polygon fill="#63b8ff" stroke="#63b8ff" points="487.59,-217.72 497.39,-213.68 487.22,-210.73 487.59,-217.72"/>
</g>
<!-- Node8 -->
<g id="node8" class="node">
<title>Node8</title>
<g id="a_node8"><a xlink:href="namespaceImGui.html#af81dc8d88fa2e5d0996163993f90ccf8" target="_top" xlink:title=" ">
<polygon fill="white" stroke="#666666" points="788,-195.5 655,-195.5 655,-176.5 788,-176.5 788,-195.5"/>
<text text-anchor="middle" x="721.5" y="-183.5" font-family="Helvetica,sans-Serif" font-size="10.00">ImGui::DebugAllocHook</text>
</a>
</g>
</g>
<!-- Node7&#45;&gt;Node8 -->
<g id="edge7" class="edge">
<title>Node7&#45;&gt;Node8</title>
<path fill="none" stroke="#63b8ff" d="M598.6,-203.77C613.05,-201.66 629.17,-199.31 644.83,-197.03"/>
<polygon fill="#63b8ff" stroke="#63b8ff" points="645.65,-200.45 655.04,-195.54 644.64,-193.52 645.65,-200.45"/>
</g>
<!-- Node11 -->
<g id="node11" class="node">
<title>Node11</title>
<g id="a_node11"><a xlink:href="structImVector.html#ae2d401b4ec5f1113cdb8edb5a61a38f7" target="_top" xlink:title=" ">
<polygon fill="white" stroke="#666666" points="424.5,-167.5 334.5,-167.5 334.5,-148.5 424.5,-148.5 424.5,-167.5"/>
<text text-anchor="middle" x="379.5" y="-155.5" font-family="Helvetica,sans-Serif" font-size="10.00">ImVector::clear</text>
</a>
</g>
</g>
<!-- Node10&#45;&gt;Node11 -->
<g id="edge10" class="edge">
<title>Node10&#45;&gt;Node11</title>
<path fill="none" stroke="#63b8ff" d="M282.2,-146.35C295.95,-148.01 310.47,-149.77 323.95,-151.4"/>
<polygon fill="#63b8ff" stroke="#63b8ff" points="323.68,-154.89 334.03,-152.62 324.52,-147.94 323.68,-154.89"/>
</g>
<!-- Node10&#45;&gt;Node12 -->
<g id="edge11" class="edge">
<title>Node10&#45;&gt;Node12</title>
<path fill="none" stroke="#63b8ff" d="M282.2,-132.04C294.6,-130.62 307.63,-129.12 319.96,-127.71"/>
<polygon fill="#63b8ff" stroke="#63b8ff" points="320.58,-131.16 330.12,-126.55 319.79,-124.21 320.58,-131.16"/>
</g>
<!-- Node12&#45;&gt;Node8 -->
<g id="edge12" class="edge">
<title>Node12&#45;&gt;Node8</title>
<path fill="none" stroke="#63b8ff" d="M428.85,-130.24C489.89,-141.91 594.85,-161.98 660.82,-174.59"/>
<polygon fill="#63b8ff" stroke="#63b8ff" points="660.18,-178.03 670.66,-176.47 661.49,-171.16 660.18,-178.03"/>
</g>
</g>
</svg>
