<?xml version="1.0" encoding="UTF-8" standalone="no"?>
<!DOCTYPE svg PUBLIC "-//W3C//DTD SVG 1.1//EN"
 "http://www.w3.org/Graphics/SVG/1.1/DTD/svg11.dtd">
<!-- Generated by graphviz version 2.43.0 (0)
 -->
<!-- Title: mtgb::Quaternion::Quaternion Pages: 1 -->
<svg width="324pt" height="138pt"
 viewBox="0.00 0.00 324.00 138.00" xmlns="http://www.w3.org/2000/svg" xmlns:xlink="http://www.w3.org/1999/xlink">
<g id="graph0" class="graph" transform="scale(1 1) rotate(0) translate(4 134)">
<title>mtgb::Quaternion::Quaternion</title>
<!-- Node1 -->
<g id="node1" class="node">
<title>Node1</title>
<g id="a_node1"><a xlink:title=" ">
<polygon fill="#999999" stroke="#666666" points="162,-74 0,-74 0,-55 162,-55 162,-74"/>
<text text-anchor="middle" x="81" y="-62" font-family="Helvetica,sans-Serif" font-size="10.00">mtgb::Quaternion::Quaternion</text>
</a>
</g>
</g>
<!-- Node2 -->
<g id="node2" class="node">
<title>Node2</title>
<g id="a_node2"><a xlink:href="structmtgb_1_1Quaternion.html#af8eb563825e363c5a18a7b247f55e992" target="_top" xlink:title=" ">
<polygon fill="white" stroke="#666666" points="316,-130 198,-130 198,-111 316,-111 316,-130"/>
<text text-anchor="middle" x="257" y="-118" font-family="Helvetica,sans-Serif" font-size="10.00">mtgb::Quaternion::W</text>
</a>
</g>
</g>
<!-- Node1&#45;&gt;Node2 -->
<g id="edge1" class="edge">
<title>Node1&#45;&gt;Node2</title>
<path fill="none" stroke="#63b8ff" d="M111.04,-74.15C134.48,-81.91 168.32,-93.03 198,-102.5 203.6,-104.29 209.51,-106.15 215.33,-107.97"/>
<polygon fill="#63b8ff" stroke="#63b8ff" points="214.38,-111.34 224.97,-110.97 216.46,-104.65 214.38,-111.34"/>
</g>
<!-- Node3 -->
<g id="node3" class="node">
<title>Node3</title>
<g id="a_node3"><a xlink:href="structmtgb_1_1Quaternion.html#a2ea703d13738f74f3f3ebd242f929bac" target="_top" xlink:title=" ">
<polygon fill="white" stroke="#666666" points="314.5,-93 199.5,-93 199.5,-74 314.5,-74 314.5,-93"/>
<text text-anchor="middle" x="257" y="-81" font-family="Helvetica,sans-Serif" font-size="10.00">mtgb::Quaternion::X</text>
</a>
</g>
</g>
<!-- Node1&#45;&gt;Node3 -->
<g id="edge2" class="edge">
<title>Node1&#45;&gt;Node3</title>
<path fill="none" stroke="#63b8ff" d="M162.12,-73.25C171.16,-74.24 180.3,-75.23 189.15,-76.2"/>
<polygon fill="#63b8ff" stroke="#63b8ff" points="189.05,-79.71 199.37,-77.32 189.81,-72.75 189.05,-79.71"/>
</g>
<!-- Node4 -->
<g id="node4" class="node">
<title>Node4</title>
<g id="a_node4"><a xlink:href="structmtgb_1_1Quaternion.html#aa4e533f5fd28821dc19f8c4037832d58" target="_top" xlink:title=" ">
<polygon fill="white" stroke="#666666" points="314,-56 200,-56 200,-37 314,-37 314,-56"/>
<text text-anchor="middle" x="257" y="-44" font-family="Helvetica,sans-Serif" font-size="10.00">mtgb::Quaternion::Y</text>
</a>
</g>
</g>
<!-- Node1&#45;&gt;Node4 -->
<g id="edge3" class="edge">
<title>Node1&#45;&gt;Node4</title>
<path fill="none" stroke="#63b8ff" d="M162.12,-56.21C171.39,-55.25 180.76,-54.28 189.82,-53.35"/>
<polygon fill="#63b8ff" stroke="#63b8ff" points="190.29,-56.82 199.88,-52.31 189.57,-49.85 190.29,-56.82"/>
</g>
<!-- Node5 -->
<g id="node5" class="node">
<title>Node5</title>
<g id="a_node5"><a xlink:href="structmtgb_1_1Quaternion.html#a63e96e97a32898ededd6c2e71eb30a33" target="_top" xlink:title=" ">
<polygon fill="white" stroke="#666666" points="314.5,-19 199.5,-19 199.5,0 314.5,0 314.5,-19"/>
<text text-anchor="middle" x="257" y="-7" font-family="Helvetica,sans-Serif" font-size="10.00">mtgb::Quaternion::Z</text>
</a>
</g>
</g>
<!-- Node1&#45;&gt;Node5 -->
<g id="edge4" class="edge">
<title>Node1&#45;&gt;Node5</title>
<path fill="none" stroke="#63b8ff" d="M112.31,-54.92C141.04,-45.84 184.38,-32.14 215.95,-22.16"/>
<polygon fill="#63b8ff" stroke="#63b8ff" points="217.27,-25.41 225.75,-19.06 215.16,-18.74 217.27,-25.41"/>
</g>
</g>
</svg>
