<?xml version="1.0" encoding="UTF-8" standalone="no"?>
<!DOCTYPE svg PUBLIC "-//W3C//DTD SVG 1.1//EN"
 "http://www.w3.org/Graphics/SVG/1.1/DTD/svg11.dtd">
<!-- Generated by graphviz version 2.43.0 (0)
 -->
<!-- Title: Range::operator() Pages: 1 -->
<svg width="1292pt" height="972pt"
 viewBox="0.00 0.00 1292.00 972.41" xmlns="http://www.w3.org/2000/svg" xmlns:xlink="http://www.w3.org/1999/xlink">
<g id="graph0" class="graph" transform="scale(1 1) rotate(0) translate(4 968.41)">
<title>Range::operator()</title>
<!-- Node1 -->
<g id="node1" class="node">
<title>Node1</title>
<g id="a_node1"><a xlink:title=" ">
<polygon fill="#999999" stroke="#666666" points="102,-452.29 0,-452.29 0,-433.29 102,-433.29 102,-452.29"/>
<text text-anchor="middle" x="51" y="-440.29" font-family="Helvetica,sans-Serif" font-size="10.00">Range::operator()</text>
</a>
</g>
</g>
<!-- Node2 -->
<g id="node2" class="node">
<title>Node2</title>
<g id="a_node2"><a xlink:href="ShowAttributes_8h.html#ae99e316148b6b0aedce862e573f26c2c" target="_top" xlink:title=" ">
<polygon fill="white" stroke="#666666" points="212,-452.29 138,-452.29 138,-433.29 212,-433.29 212,-452.29"/>
<text text-anchor="middle" x="175" y="-440.29" font-family="Helvetica,sans-Serif" font-size="10.00">ShowRange</text>
</a>
</g>
</g>
<!-- Node1&#45;&gt;Node2 -->
<g id="edge1" class="edge">
<title>Node1&#45;&gt;Node2</title>
<path fill="none" stroke="#63b8ff" d="M102.33,-442.79C110.73,-442.79 119.4,-442.79 127.7,-442.79"/>
<polygon fill="#63b8ff" stroke="#63b8ff" points="127.95,-446.29 137.95,-442.79 127.95,-439.29 127.95,-446.29"/>
</g>
<!-- Node3 -->
<g id="node3" class="node">
<title>Node3</title>
<g id="a_node3"><a xlink:href="namespaceImGui.html#a864f761801792a0cc5ce3408f3392cfc" target="_top" xlink:title=" ">
<polygon fill="white" stroke="#666666" points="352,-452.29 248,-452.29 248,-433.29 352,-433.29 352,-452.29"/>
<text text-anchor="middle" x="300" y="-440.29" font-family="Helvetica,sans-Serif" font-size="10.00">ImGui::SliderFloat</text>
</a>
</g>
</g>
<!-- Node2&#45;&gt;Node3 -->
<g id="edge2" class="edge">
<title>Node2&#45;&gt;Node3</title>
<path fill="none" stroke="#63b8ff" d="M212.24,-442.79C220.29,-442.79 229.03,-442.79 237.77,-442.79"/>
<polygon fill="#63b8ff" stroke="#63b8ff" points="237.98,-446.29 247.98,-442.79 237.98,-439.29 237.98,-446.29"/>
</g>
<!-- Node558 -->
<g id="node46" class="node">
<title>Node558</title>
<g id="a_node46"><a xlink:href="namespaceImGui.html#a580128c9b35d1a9fc5b7a057f6f5464a" target="_top" xlink:title=" ">
<polygon fill="white" stroke="#666666" points="346,-489.29 254,-489.29 254,-470.29 346,-470.29 346,-489.29"/>
<text text-anchor="middle" x="300" y="-477.29" font-family="Helvetica,sans-Serif" font-size="10.00">ImGui::SliderInt</text>
</a>
</g>
</g>
<!-- Node2&#45;&gt;Node558 -->
<g id="edge59" class="edge">
<title>Node2&#45;&gt;Node558</title>
<path fill="none" stroke="#63b8ff" d="M207.68,-452.32C222.77,-456.86 241.02,-462.35 257.22,-467.22"/>
<polygon fill="#63b8ff" stroke="#63b8ff" points="256.42,-470.64 267,-470.16 258.44,-463.93 256.42,-470.64"/>
</g>
<!-- Node559 -->
<g id="node47" class="node">
<title>Node559</title>
<g id="a_node47"><a xlink:href="namespaceImGui.html#a9e7b83611fe441d54fad2effb4bf4965" target="_top" xlink:title=" ">
<polygon fill="white" stroke="#666666" points="336,-276.29 264,-276.29 264,-257.29 336,-257.29 336,-276.29"/>
<text text-anchor="middle" x="300" y="-264.29" font-family="Helvetica,sans-Serif" font-size="10.00">ImGui::Text</text>
</a>
</g>
</g>
<!-- Node2&#45;&gt;Node559 -->
<g id="edge61" class="edge">
<title>Node2&#45;&gt;Node559</title>
<path fill="none" stroke="#63b8ff" d="M182.79,-433.08C202.57,-404.78 260.38,-322.06 286.24,-285.05"/>
<polygon fill="#63b8ff" stroke="#63b8ff" points="289.22,-286.89 292.08,-276.69 283.48,-282.88 289.22,-286.89"/>
</g>
<!-- Node4 -->
<g id="node4" class="node">
<title>Node4</title>
<g id="a_node4"><a xlink:href="namespaceImGui.html#afdd7faa9a69f75b8d674cdc207441bea" target="_top" xlink:title=" ">
<polygon fill="white" stroke="#666666" points="640.5,-490.29 530.5,-490.29 530.5,-471.29 640.5,-471.29 640.5,-490.29"/>
<text text-anchor="middle" x="585.5" y="-478.29" font-family="Helvetica,sans-Serif" font-size="10.00">ImGui::SliderScalar</text>
</a>
</g>
</g>
<!-- Node3&#45;&gt;Node4 -->
<g id="edge3" class="edge">
<title>Node3&#45;&gt;Node4</title>
<path fill="none" stroke="#63b8ff" d="M352.01,-449.63C399.09,-455.94 469.2,-465.33 520.12,-472.16"/>
<polygon fill="#63b8ff" stroke="#63b8ff" points="519.66,-475.63 530.03,-473.49 520.59,-468.69 519.66,-475.63"/>
</g>
<!-- Node5 -->
<g id="node5" class="node">
<title>Node5</title>
<g id="a_node5"><a xlink:href="structImDrawList.html#a6b16ab764160b0251d2e7b3bd08c1ffc" target="_top" xlink:title=" ">
<polygon fill="white" stroke="#666666" points="1082.5,-386.29 937.5,-386.29 937.5,-367.29 1082.5,-367.29 1082.5,-386.29"/>
<text text-anchor="middle" x="1010" y="-374.29" font-family="Helvetica,sans-Serif" font-size="10.00">ImDrawList::AddRectFilled</text>
</a>
</g>
</g>
<!-- Node4&#45;&gt;Node5 -->
<g id="edge4" class="edge">
<title>Node4&#45;&gt;Node5</title>
<path fill="none" stroke="#63b8ff" d="M616.2,-490.36C673.55,-506.91 801.34,-534.16 886,-479.79 918.13,-459.16 893.02,-426.65 922,-401.79 927.49,-397.08 933.83,-393.25 940.52,-390.14"/>
<polygon fill="#63b8ff" stroke="#63b8ff" points="941.89,-393.36 949.83,-386.34 939.24,-386.88 941.89,-393.36"/>
</g>
<!-- Node24 -->
<g id="node10" class="node">
<title>Node24</title>
<g id="a_node10"><a xlink:href="namespaceImGui.html#ab3b3ba92ebd8bca4a552dd93321a1994" target="_top" xlink:title=" ">
<polygon fill="white" stroke="#666666" points="857,-547.29 733,-547.29 733,-528.29 857,-528.29 857,-547.29"/>
<text text-anchor="middle" x="795" y="-535.29" font-family="Helvetica,sans-Serif" font-size="10.00">ImGui::CalcItemWidth</text>
</a>
</g>
</g>
<!-- Node4&#45;&gt;Node24 -->
<g id="edge9" class="edge">
<title>Node4&#45;&gt;Node24</title>
<path fill="none" stroke="#63b8ff" d="M619.89,-490.29C643.39,-496.95 675.59,-506.01 704,-513.79 718.18,-517.67 733.64,-521.82 747.69,-525.56"/>
<polygon fill="#63b8ff" stroke="#63b8ff" points="747.06,-529.02 757.62,-528.21 748.86,-522.25 747.06,-529.02"/>
</g>
<!-- Node27 -->
<g id="node13" class="node">
<title>Node27</title>
<g id="a_node13"><a xlink:href="namespaceImGui.html#a848b9db6cc4a186751c0ecebcaadc33b" target="_top" xlink:title=" ">
<polygon fill="white" stroke="#666666" points="851.5,-155.29 738.5,-155.29 738.5,-136.29 851.5,-136.29 851.5,-155.29"/>
<text text-anchor="middle" x="795" y="-143.29" font-family="Helvetica,sans-Serif" font-size="10.00">ImGui::CalcTextSize</text>
</a>
</g>
</g>
<!-- Node4&#45;&gt;Node27 -->
<g id="edge12" class="edge">
<title>Node4&#45;&gt;Node27</title>
<path fill="none" stroke="#63b8ff" d="M586.86,-471.17C589.04,-427.83 604.01,-249.15 704,-163.79 711.03,-157.79 719.5,-153.58 728.39,-150.66"/>
<polygon fill="#63b8ff" stroke="#63b8ff" points="729.44,-154.01 738.15,-147.98 727.58,-147.26 729.44,-154.01"/>
</g>
<!-- Node146 -->
<g id="node16" class="node">
<title>Node146</title>
<g id="a_node16"><a xlink:href="namespaceImGui.html#a5fda8e22d0e4721940aefcb7232b1f82" target="_top" xlink:title=" ">
<polygon fill="white" stroke="#666666" points="1090.5,-836.29 929.5,-836.29 929.5,-817.29 1090.5,-817.29 1090.5,-836.29"/>
<text text-anchor="middle" x="1010" y="-824.29" font-family="Helvetica,sans-Serif" font-size="10.00">ImGui::DataTypeFormatString</text>
</a>
</g>
</g>
<!-- Node4&#45;&gt;Node146 -->
<g id="edge16" class="edge">
<title>Node4&#45;&gt;Node146</title>
<path fill="none" stroke="#63b8ff" d="M587.65,-490.36C592.83,-529.12 617.68,-675.66 704,-745.79 768.21,-797.95 809.79,-752.61 886,-784.79 903.72,-792.27 904.26,-801.37 922,-808.79 927.07,-810.91 932.41,-812.79 937.86,-814.45"/>
<polygon fill="#63b8ff" stroke="#63b8ff" points="937.15,-817.89 947.72,-817.22 939.04,-811.15 937.15,-817.89"/>
</g>
<!-- Node148 -->
<g id="node18" class="node">
<title>Node148</title>
<g id="a_node18"><a xlink:href="namespaceImGui.html#a5b25ed1443e5a28d5a5725892e896578" target="_top" xlink:title=" ">
<polygon fill="white" stroke="#666666" points="1077,-799.29 943,-799.29 943,-780.29 1077,-780.29 1077,-799.29"/>
<text text-anchor="middle" x="1010" y="-787.29" font-family="Helvetica,sans-Serif" font-size="10.00">ImGui::DataTypeGetInfo</text>
</a>
</g>
</g>
<!-- Node4&#45;&gt;Node148 -->
<g id="edge18" class="edge">
<title>Node4&#45;&gt;Node148</title>
<path fill="none" stroke="#63b8ff" d="M589.49,-490.54C599.7,-522.11 636.36,-622.23 704,-669.79 771.67,-717.37 819.22,-659.96 886,-708.79 912.03,-727.82 895.9,-752.85 922,-771.79 925.51,-774.34 929.3,-776.54 933.26,-778.45"/>
<polygon fill="#63b8ff" stroke="#63b8ff" points="932.21,-781.8 942.78,-782.38 934.88,-775.33 932.21,-781.8"/>
</g>
<!-- Node149 -->
<g id="node19" class="node">
<title>Node149</title>
<g id="a_node19"><a xlink:href="namespaceImGui.html#a27aa6f2f3aa11778c6d023b1b223f262" target="_top" xlink:title=" ">
<polygon fill="#fff0f0" stroke="red" points="854.5,-623.29 735.5,-623.29 735.5,-604.29 854.5,-604.29 854.5,-623.29"/>
<text text-anchor="middle" x="795" y="-611.29" font-family="Helvetica,sans-Serif" font-size="10.00">ImGui::FocusWindow</text>
</a>
</g>
</g>
<!-- Node4&#45;&gt;Node149 -->
<g id="edge19" class="edge">
<title>Node4&#45;&gt;Node149</title>
<path fill="none" stroke="#63b8ff" d="M593.91,-490.29C610.97,-511.5 655.28,-562.9 704,-589.79 712.41,-594.43 721.75,-598.21 731.16,-601.27"/>
<polygon fill="#63b8ff" stroke="#63b8ff" points="730.35,-604.69 740.93,-604.22 732.37,-597.98 730.35,-604.69"/>
</g>
<!-- Node156 -->
<g id="node24" class="node">
<title>Node156</title>
<g id="a_node24"><a xlink:href="namespaceImGui.html#a27b8ace13a8c421ee8405f0cbebe4ead" target="_top" xlink:title=" ">
<polygon fill="#fff0f0" stroke="red" points="1263.5,-620.29 1154.5,-620.29 1154.5,-601.29 1263.5,-601.29 1263.5,-620.29"/>
<text text-anchor="middle" x="1209" y="-608.29" font-family="Helvetica,sans-Serif" font-size="10.00">ImGui::SetActiveID</text>
</a>
</g>
</g>
<!-- Node4&#45;&gt;Node156 -->
<g id="edge50" class="edge">
<title>Node4&#45;&gt;Node156</title>
<path fill="none" stroke="#63b8ff" d="M596.77,-490.46C615.99,-507.81 659.5,-543.65 704,-556.79 781.58,-579.69 817.97,-600.55 886,-556.79 918.45,-535.92 889.55,-498.66 922,-477.79 987.79,-435.47 1027.22,-444.48 1098,-477.79 1148.42,-501.52 1183.64,-560.96 1199.13,-591.71"/>
<polygon fill="#63b8ff" stroke="#63b8ff" points="1196.1,-593.48 1203.62,-600.94 1202.39,-590.42 1196.1,-593.48"/>
</g>
<!-- Node170 -->
<g id="node28" class="node">
<title>Node170</title>
<g id="a_node28"><a xlink:href="namespaceImGui.html#a0de2d9bd347d9866511eb8d014e62556" target="_top" xlink:title=" ">
<polygon fill="#fff0f0" stroke="red" points="1067,-279.29 953,-279.29 953,-260.29 1067,-260.29 1067,-279.29"/>
<text text-anchor="middle" x="1010" y="-267.29" font-family="Helvetica,sans-Serif" font-size="10.00">ImGui::GetColorU32</text>
</a>
</g>
</g>
<!-- Node4&#45;&gt;Node170 -->
<g id="edge28" class="edge">
<title>Node4&#45;&gt;Node170</title>
<path fill="none" stroke="#63b8ff" d="M590.04,-471.17C601.4,-441.83 639.95,-353.1 704,-313.79 742.89,-289.92 865.39,-278.32 942.79,-273.24"/>
<polygon fill="#63b8ff" stroke="#63b8ff" points="943.18,-276.73 952.93,-272.6 942.73,-269.74 943.18,-276.73"/>
</g>
<!-- Node172 -->
<g id="node29" class="node">
<title>Node172</title>
<g id="a_node29"><a xlink:href="namespaceImGui.html#ac452417b5004ca16a814a72cff153526" target="_top" xlink:title=" ">
<polygon fill="white" stroke="#666666" points="867,-44.29 723,-44.29 723,-25.29 867,-25.29 867,-44.29"/>
<text text-anchor="middle" x="795" y="-32.29" font-family="Helvetica,sans-Serif" font-size="10.00">ImGui::GetCurrentWindow</text>
</a>
</g>
</g>
<!-- Node4&#45;&gt;Node172 -->
<g id="edge29" class="edge">
<title>Node4&#45;&gt;Node172</title>
<path fill="none" stroke="#63b8ff" d="M587.78,-471.08C595.61,-413.13 638.89,-113.46 704,-52.79 707,-50 710.3,-47.58 713.81,-45.5"/>
<polygon fill="#63b8ff" stroke="#63b8ff" points="715.53,-48.56 722.94,-40.98 712.43,-42.28 715.53,-48.56"/>
</g>
<!-- Node173 -->
<g id="node30" class="node">
<title>Node173</title>
<g id="a_node30"><a xlink:href="structImGuiWindow.html#afe084e59f7cd4da393ae30f0b4410b16" target="_top" xlink:title=" ">
<polygon fill="#fff0f0" stroke="red" points="854,-471.29 736,-471.29 736,-452.29 854,-452.29 854,-471.29"/>
<text text-anchor="middle" x="795" y="-459.29" font-family="Helvetica,sans-Serif" font-size="10.00">ImGuiWindow::GetID</text>
</a>
</g>
</g>
<!-- Node4&#45;&gt;Node173 -->
<g id="edge30" class="edge">
<title>Node4&#45;&gt;Node173</title>
<path fill="none" stroke="#63b8ff" d="M640.75,-475.82C666.73,-473.44 698.13,-470.57 725.73,-468.04"/>
<polygon fill="#63b8ff" stroke="#63b8ff" points="726.07,-471.52 735.71,-467.13 725.43,-464.55 726.07,-471.52"/>
</g>
<!-- Node176 -->
<g id="node31" class="node">
<title>Node176</title>
<g id="a_node31"><a xlink:href="namespaceImGui.html#a2d430db9485d0b3d86d51d5436225495" target="_top" xlink:title=" ">
<polygon fill="white" stroke="#666666" points="859,-416.29 731,-416.29 731,-397.29 859,-397.29 859,-416.29"/>
<text text-anchor="middle" x="795" y="-404.29" font-family="Helvetica,sans-Serif" font-size="10.00">ImGui::IsMouseClicked</text>
</a>
</g>
</g>
<!-- Node4&#45;&gt;Node176 -->
<g id="edge31" class="edge">
<title>Node4&#45;&gt;Node176</title>
<path fill="none" stroke="#63b8ff" d="M613.2,-471.27C649.91,-458.18 716.09,-434.57 757.39,-419.84"/>
<polygon fill="#63b8ff" stroke="#63b8ff" points="758.83,-423.05 767.07,-416.39 756.48,-416.45 758.83,-423.05"/>
</g>
<!-- Node177 -->
<g id="node32" class="node">
<title>Node177</title>
<g id="a_node32"><a xlink:href="namespaceImGui.html#a0c2ccafc8d403c02a6590ac21157b9ac" target="_top" xlink:title=" ">
<polygon fill="#fff0f0" stroke="red" points="841.5,-118.29 748.5,-118.29 748.5,-99.29 841.5,-99.29 841.5,-118.29"/>
<text text-anchor="middle" x="795" y="-106.29" font-family="Helvetica,sans-Serif" font-size="10.00">ImGui::ItemAdd</text>
</a>
</g>
</g>
<!-- Node4&#45;&gt;Node177 -->
<g id="edge33" class="edge">
<title>Node4&#45;&gt;Node177</title>
<path fill="none" stroke="#63b8ff" d="M586.45,-471.03C586.76,-424.51 594.59,-223.5 704,-126.79 713.51,-118.38 725.83,-113.46 738.27,-110.67"/>
<polygon fill="#63b8ff" stroke="#63b8ff" points="739.02,-114.1 748.23,-108.87 737.77,-107.21 739.02,-114.1"/>
</g>
<!-- Node215 -->
<g id="node33" class="node">
<title>Node215</title>
<g id="a_node33"><a xlink:href="namespaceImGui.html#a1d7304e335dbe35c4d97b67854111ed2" target="_top" xlink:title=" ">
<polygon fill="#fff0f0" stroke="red" points="857.5,-660.29 732.5,-660.29 732.5,-641.29 857.5,-641.29 857.5,-660.29"/>
<text text-anchor="middle" x="795" y="-648.29" font-family="Helvetica,sans-Serif" font-size="10.00">ImGui::ItemHoverable</text>
</a>
</g>
</g>
<!-- Node4&#45;&gt;Node215 -->
<g id="edge34" class="edge">
<title>Node4&#45;&gt;Node215</title>
<path fill="none" stroke="#63b8ff" d="M590.94,-490.56C603.93,-517.99 644.76,-596.05 704,-632.79 709.73,-636.34 716.03,-639.21 722.55,-641.53"/>
<polygon fill="#63b8ff" stroke="#63b8ff" points="721.63,-644.91 732.22,-644.54 723.71,-638.23 721.63,-644.91"/>
</g>
<!-- Node499 -->
<g id="node34" class="node">
<title>Node499</title>
<g id="a_node34"><a xlink:href="namespaceImGui.html#a4b5818a652d943ea54e0cec9fb3943d7" target="_top" xlink:title=" ">
<polygon fill="#fff0f0" stroke="red" points="842.5,-81.29 747.5,-81.29 747.5,-62.29 842.5,-62.29 842.5,-81.29"/>
<text text-anchor="middle" x="795" y="-69.29" font-family="Helvetica,sans-Serif" font-size="10.00">ImGui::ItemSize</text>
</a>
</g>
</g>
<!-- Node4&#45;&gt;Node499 -->
<g id="edge36" class="edge">
<title>Node4&#45;&gt;Node499</title>
<path fill="none" stroke="#63b8ff" d="M586.1,-471.04C584.65,-421.75 584.98,-198.06 704,-89.79 713.12,-81.5 724.94,-76.57 737,-73.74"/>
<polygon fill="#63b8ff" stroke="#63b8ff" points="737.96,-77.12 747.14,-71.82 736.66,-70.24 737.96,-77.12"/>
</g>
<!-- Node313 -->
<g id="node35" class="node">
<title>Node313</title>
<g id="a_node35"><a xlink:href="namespaceImGui.html#a66bc1e61bff5f2170bcd2d7d071eaa22" target="_top" xlink:title=" ">
<polygon fill="white" stroke="#666666" points="886,-342.29 704,-342.29 704,-323.29 886,-323.29 886,-342.29"/>
<text text-anchor="middle" x="795" y="-330.29" font-family="Helvetica,sans-Serif" font-size="10.00">ImGui::LogSetNextTextDecoration</text>
</a>
</g>
</g>
<!-- Node4&#45;&gt;Node313 -->
<g id="edge38" class="edge">
<title>Node4&#45;&gt;Node313</title>
<path fill="none" stroke="#63b8ff" d="M592.18,-471.03C607.05,-446.43 649.77,-381.59 704,-350.79 707.07,-349.04 710.29,-347.47 713.6,-346.04"/>
<polygon fill="#63b8ff" stroke="#63b8ff" points="715.04,-349.24 723.14,-342.41 712.55,-342.69 715.04,-349.24"/>
</g>
<!-- Node503 -->
<g id="node36" class="node">
<title>Node503</title>
<g id="a_node36"><a xlink:href="namespaceImGui.html#a83036681a36fbee2d35b5b57a1ef72e6" target="_top" xlink:title=" ">
<polygon fill="white" stroke="#666666" points="1075,-917.29 945,-917.29 945,-898.29 1075,-898.29 1075,-917.29"/>
<text text-anchor="middle" x="1010" y="-905.29" font-family="Helvetica,sans-Serif" font-size="10.00">ImGui::MarkItemEdited</text>
</a>
</g>
</g>
<!-- Node4&#45;&gt;Node503 -->
<g id="edge39" class="edge">
<title>Node4&#45;&gt;Node503</title>
<path fill="none" stroke="#63b8ff" d="M587.44,-490.45C593.55,-550.78 629.6,-875.25 704,-932.79 786.44,-996.54 921.61,-947.92 980.3,-921.7"/>
<polygon fill="#63b8ff" stroke="#63b8ff" points="982.06,-924.75 989.7,-917.4 979.15,-918.38 982.06,-924.75"/>
</g>
<!-- Node443 -->
<g id="node37" class="node">
<title>Node443</title>
<g id="a_node37"><a xlink:href="namespaceImGui.html#a6eb97ff501764c37df4ffd99ebadeba7" target="_top" xlink:title=" ">
<polygon fill="#fff0f0" stroke="red" points="853.5,-379.29 736.5,-379.29 736.5,-360.29 853.5,-360.29 853.5,-379.29"/>
<text text-anchor="middle" x="795" y="-367.29" font-family="Helvetica,sans-Serif" font-size="10.00">ImGui::RenderFrame</text>
</a>
</g>
</g>
<!-- Node4&#45;&gt;Node443 -->
<g id="edge40" class="edge">
<title>Node4&#45;&gt;Node443</title>
<path fill="none" stroke="#63b8ff" d="M595.49,-471.09C613.88,-451.9 657.96,-409.1 704,-387.79 711.02,-384.54 718.6,-381.88 726.3,-379.7"/>
<polygon fill="#63b8ff" stroke="#63b8ff" points="727.25,-383.06 736.06,-377.18 725.51,-376.29 727.25,-383.06"/>
</g>
<!-- Node312 -->
<g id="node38" class="node">
<title>Node312</title>
<g id="a_node38"><a xlink:href="namespaceImGui.html#a2722dcfe26c7f6e8cd522102ef5b7df2" target="_top" xlink:title=" ">
<polygon fill="#fff0f0" stroke="red" points="863.5,-266.29 726.5,-266.29 726.5,-247.29 863.5,-247.29 863.5,-266.29"/>
<text text-anchor="middle" x="795" y="-254.29" font-family="Helvetica,sans-Serif" font-size="10.00">ImGui::RenderNavCursor</text>
</a>
</g>
</g>
<!-- Node4&#45;&gt;Node312 -->
<g id="edge43" class="edge">
<title>Node4&#45;&gt;Node312</title>
<path fill="none" stroke="#63b8ff" d="M589.27,-471.07C599.05,-438.64 635.08,-333.2 704,-280.79 709.75,-276.42 716.24,-272.84 723.03,-269.91"/>
<polygon fill="#63b8ff" stroke="#63b8ff" points="724.35,-273.15 732.43,-266.31 721.84,-266.62 724.35,-273.15"/>
</g>
<!-- Node501 -->
<g id="node39" class="node">
<title>Node501</title>
<g id="a_node39"><a xlink:href="namespaceImGui.html#a9971ce57f2a288ac3a12df886c5550d1" target="_top" xlink:title=" ">
<polygon fill="#fff0f0" stroke="red" points="848.5,-192.29 741.5,-192.29 741.5,-173.29 848.5,-173.29 848.5,-192.29"/>
<text text-anchor="middle" x="795" y="-180.29" font-family="Helvetica,sans-Serif" font-size="10.00">ImGui::RenderText</text>
</a>
</g>
</g>
<!-- Node4&#45;&gt;Node501 -->
<g id="edge45" class="edge">
<title>Node4&#45;&gt;Node501</title>
<path fill="none" stroke="#63b8ff" d="M587.37,-471.2C591.57,-431.03 613.4,-274.87 704,-200.79 711.86,-194.36 721.39,-190.01 731.27,-187.12"/>
<polygon fill="#63b8ff" stroke="#63b8ff" points="732.33,-190.46 741.21,-184.68 730.67,-183.66 732.33,-190.46"/>
</g>
<!-- Node460 -->
<g id="node40" class="node">
<title>Node460</title>
<g id="a_node40"><a xlink:href="namespaceImGui.html#ab362eafae794c7364a6b96ea06f38eb9" target="_top" xlink:title=" ">
<polygon fill="#fff0f0" stroke="red" points="866.5,-229.29 723.5,-229.29 723.5,-210.29 866.5,-210.29 866.5,-229.29"/>
<text text-anchor="middle" x="795" y="-217.29" font-family="Helvetica,sans-Serif" font-size="10.00">ImGui::RenderTextClipped</text>
</a>
</g>
</g>
<!-- Node4&#45;&gt;Node460 -->
<g id="edge48" class="edge">
<title>Node4&#45;&gt;Node460</title>
<path fill="none" stroke="#63b8ff" d="M588.02,-471.22C594.43,-434.39 622.67,-300.76 704,-237.79 707.17,-235.33 710.58,-233.19 714.17,-231.32"/>
<polygon fill="#63b8ff" stroke="#63b8ff" points="715.68,-234.47 723.37,-227.19 712.82,-228.09 715.68,-234.47"/>
</g>
<!-- Node307 -->
<g id="node41" class="node">
<title>Node307</title>
<g id="a_node41"><a xlink:href="namespaceImGui.html#a8ad578d7141486ff12b59b0c251234e6" target="_top" xlink:title=" ">
<polygon fill="#fff0f0" stroke="red" points="848,-923.29 742,-923.29 742,-904.29 848,-904.29 848,-923.29"/>
<text text-anchor="middle" x="795" y="-911.29" font-family="Helvetica,sans-Serif" font-size="10.00">ImGui::SetFocusID</text>
</a>
</g>
</g>
<!-- Node4&#45;&gt;Node307 -->
<g id="edge51" class="edge">
<title>Node4&#45;&gt;Node307</title>
<path fill="none" stroke="#63b8ff" d="M587.88,-490.58C596.12,-547.68 640.63,-837.21 704,-895.79 711.8,-903 721.65,-907.68 731.94,-910.65"/>
<polygon fill="#63b8ff" stroke="#63b8ff" points="731.36,-914.11 741.9,-913.01 732.97,-907.3 731.36,-914.11"/>
</g>
<!-- Node309 -->
<g id="node42" class="node">
<title>Node309</title>
<g id="a_node42"><a xlink:href="namespaceImGui.html#ac415798dd69ab045cda84dd14a52c3ea" target="_top" xlink:title=" ">
<polygon fill="#fff0f0" stroke="red" points="853.5,-886.29 736.5,-886.29 736.5,-867.29 853.5,-867.29 853.5,-886.29"/>
<text text-anchor="middle" x="795" y="-874.29" font-family="Helvetica,sans-Serif" font-size="10.00">ImGui::SetKeyOwner</text>
</a>
</g>
</g>
<!-- Node4&#45;&gt;Node309 -->
<g id="edge52" class="edge">
<title>Node4&#45;&gt;Node309</title>
<path fill="none" stroke="#63b8ff" d="M586.21,-490.54C585.37,-538.87 588.36,-754.59 704,-858.79 710.54,-864.68 718.44,-868.87 726.82,-871.81"/>
<polygon fill="#63b8ff" stroke="#63b8ff" points="725.85,-875.17 736.43,-874.63 727.82,-868.46 725.85,-875.17"/>
</g>
<!-- Node504 -->
<g id="node43" class="node">
<title>Node504</title>
<g id="a_node43"><a xlink:href="namespaceImGui.html#af8d5d2cfa55221448e55e51b1abcfe93" target="_top" xlink:title=" ">
<polygon fill="white" stroke="#666666" points="856.5,-849.29 733.5,-849.29 733.5,-830.29 856.5,-830.29 856.5,-849.29"/>
<text text-anchor="middle" x="795" y="-837.29" font-family="Helvetica,sans-Serif" font-size="10.00">ImGui::SliderBehavior</text>
</a>
</g>
</g>
<!-- Node4&#45;&gt;Node504 -->
<g id="edge53" class="edge">
<title>Node4&#45;&gt;Node504</title>
<path fill="none" stroke="#63b8ff" d="M586.58,-490.5C587.54,-535.92 597.91,-729.08 704,-821.79 709.69,-826.76 716.36,-830.51 723.46,-833.32"/>
<polygon fill="#63b8ff" stroke="#63b8ff" points="722.75,-836.77 733.34,-836.59 724.95,-830.12 722.75,-836.77"/>
</g>
<!-- Node505 -->
<g id="node44" class="node">
<title>Node505</title>
<g id="a_node44"><a xlink:href="namespaceImGui.html#a4e5c8dd9a681f3b8f8f36b07d84ae0e5" target="_top" xlink:title=" ">
<polygon fill="white" stroke="#666666" points="866,-812.29 724,-812.29 724,-793.29 866,-793.29 866,-812.29"/>
<text text-anchor="middle" x="795" y="-800.29" font-family="Helvetica,sans-Serif" font-size="10.00">ImGui::TempInputIsActive</text>
</a>
</g>
</g>
<!-- Node4&#45;&gt;Node505 -->
<g id="edge54" class="edge">
<title>Node4&#45;&gt;Node505</title>
<path fill="none" stroke="#63b8ff" d="M587.26,-490.53C591.06,-532.13 611.62,-696.46 704,-778.79 708.49,-782.79 713.57,-786.13 718.97,-788.92"/>
<polygon fill="#63b8ff" stroke="#63b8ff" points="717.78,-792.22 728.33,-793.13 720.64,-785.84 717.78,-792.22"/>
</g>
<!-- Node506 -->
<g id="node45" class="node">
<title>Node506</title>
<g id="a_node45"><a xlink:href="namespaceImGui.html#a392fed3e7db2a75abf217bf84c6abce9" target="_top" xlink:title=" ">
<polygon fill="#fff0f0" stroke="red" points="861.5,-736.29 728.5,-736.29 728.5,-717.29 861.5,-717.29 861.5,-736.29"/>
<text text-anchor="middle" x="795" y="-724.29" font-family="Helvetica,sans-Serif" font-size="10.00">ImGui::TempInputScalar</text>
</a>
</g>
</g>
<!-- Node4&#45;&gt;Node506 -->
<g id="edge55" class="edge">
<title>Node4&#45;&gt;Node506</title>
<path fill="none" stroke="#63b8ff" d="M588.7,-490.57C597.02,-525.32 629.96,-643.86 704,-702.79 709.36,-707.05 715.4,-710.56 721.76,-713.45"/>
<polygon fill="#63b8ff" stroke="#63b8ff" points="720.68,-716.79 731.26,-717.25 723.28,-710.29 720.68,-716.79"/>
</g>
<!-- Node6 -->
<g id="node6" class="node">
<title>Node6</title>
<g id="a_node6"><a xlink:href="structImDrawList.html#aea9301cb99ebf4b27f5d3959017567c9" target="_top" xlink:title=" ">
<polygon fill="white" stroke="#666666" points="1284,-441.29 1134,-441.29 1134,-422.29 1284,-422.29 1284,-441.29"/>
<text text-anchor="middle" x="1209" y="-429.29" font-family="Helvetica,sans-Serif" font-size="10.00">ImDrawList::PathFillConvex</text>
</a>
</g>
</g>
<!-- Node5&#45;&gt;Node6 -->
<g id="edge5" class="edge">
<title>Node5&#45;&gt;Node6</title>
<path fill="none" stroke="#63b8ff" d="M1044.92,-386.39C1061.02,-390.99 1080.52,-396.61 1098,-401.79 1114.04,-406.54 1117.89,-408.26 1134,-412.79 1142.26,-415.11 1151.07,-417.47 1159.63,-419.7"/>
<polygon fill="#63b8ff" stroke="#63b8ff" points="1158.95,-423.14 1169.5,-422.26 1160.7,-416.37 1158.95,-423.14"/>
</g>
<!-- Node7 -->
<g id="node7" class="node">
<title>Node7</title>
<g id="a_node7"><a xlink:href="structImDrawList.html#a2251eb264ed8b17a253c409787375053" target="_top" xlink:title=" ">
<polygon fill="#fff0f0" stroke="red" points="1269.5,-404.29 1148.5,-404.29 1148.5,-385.29 1269.5,-385.29 1269.5,-404.29"/>
<text text-anchor="middle" x="1209" y="-392.29" font-family="Helvetica,sans-Serif" font-size="10.00">ImDrawList::PathRect</text>
</a>
</g>
</g>
<!-- Node5&#45;&gt;Node7 -->
<g id="edge6" class="edge">
<title>Node5&#45;&gt;Node7</title>
<path fill="none" stroke="#63b8ff" d="M1082.68,-383.34C1100.79,-384.99 1120.21,-386.77 1138.22,-388.41"/>
<polygon fill="#63b8ff" stroke="#63b8ff" points="1138.08,-391.91 1148.35,-389.34 1138.71,-384.94 1138.08,-391.91"/>
</g>
<!-- Node20 -->
<g id="node8" class="node">
<title>Node20</title>
<g id="a_node8"><a xlink:href="structImDrawList.html#ae2be093563f1d20b8190b7c423113925" target="_top" xlink:title=" ">
<polygon fill="white" stroke="#666666" points="1270,-367.29 1148,-367.29 1148,-348.29 1270,-348.29 1270,-367.29"/>
<text text-anchor="middle" x="1209" y="-355.29" font-family="Helvetica,sans-Serif" font-size="10.00">ImDrawList::PrimRect</text>
</a>
</g>
</g>
<!-- Node5&#45;&gt;Node20 -->
<g id="edge7" class="edge">
<title>Node5&#45;&gt;Node20</title>
<path fill="none" stroke="#63b8ff" d="M1082.68,-369.88C1100.52,-368.16 1119.63,-366.31 1137.42,-364.6"/>
<polygon fill="#63b8ff" stroke="#63b8ff" points="1138.1,-368.05 1147.72,-363.6 1137.43,-361.08 1138.1,-368.05"/>
</g>
<!-- Node21 -->
<g id="node9" class="node">
<title>Node21</title>
<g id="a_node9"><a xlink:href="structImDrawList.html#a879aa38dbfb0344e3e023d65c002c7d7" target="_top" xlink:title=" ">
<polygon fill="#fff0f0" stroke="red" points="1279,-330.29 1139,-330.29 1139,-311.29 1279,-311.29 1279,-330.29"/>
<text text-anchor="middle" x="1209" y="-318.29" font-family="Helvetica,sans-Serif" font-size="10.00">ImDrawList::PrimReserve</text>
</a>
</g>
</g>
<!-- Node5&#45;&gt;Node21 -->
<g id="edge8" class="edge">
<title>Node5&#45;&gt;Node21</title>
<path fill="none" stroke="#63b8ff" d="M1040.18,-367.22C1065.01,-359.22 1101.68,-347.7 1134,-338.79 1141.36,-336.76 1149.16,-334.73 1156.83,-332.81"/>
<polygon fill="#63b8ff" stroke="#63b8ff" points="1157.92,-336.14 1166.79,-330.34 1156.24,-329.35 1157.92,-336.14"/>
</g>
<!-- Node25 -->
<g id="node11" class="node">
<title>Node25</title>
<g id="a_node11"><a xlink:href="namespaceImGui.html#a410c8e19b2fea8b52746ca11b3930301" target="_top" xlink:title=" ">
<polygon fill="white" stroke="#666666" points="1092.5,-430.29 927.5,-430.29 927.5,-411.29 1092.5,-411.29 1092.5,-430.29"/>
<text text-anchor="middle" x="1010" y="-418.29" font-family="Helvetica,sans-Serif" font-size="10.00">ImGui::GetContentRegionAvail</text>
</a>
</g>
</g>
<!-- Node24&#45;&gt;Node25 -->
<g id="edge10" class="edge">
<title>Node24&#45;&gt;Node25</title>
<path fill="none" stroke="#63b8ff" d="M857.37,-528.78C867.65,-525.29 877.67,-520.46 886,-513.79 913,-492.17 895.09,-466.53 922,-444.79 927.24,-440.56 933.18,-437.07 939.42,-434.19"/>
<polygon fill="#63b8ff" stroke="#63b8ff" points="940.81,-437.41 948.76,-430.4 938.17,-430.92 940.81,-437.41"/>
</g>
<!-- Node26 -->
<g id="node12" class="node">
<title>Node26</title>
<g id="a_node12"><a xlink:href="imgui__internal_8h.html#a7667efd95147d0422f140917c71a9226" target="_top" xlink:title=" ">
<polygon fill="white" stroke="#666666" points="1234,-118.29 1184,-118.29 1184,-99.29 1234,-99.29 1234,-118.29"/>
<text text-anchor="middle" x="1209" y="-106.29" font-family="Helvetica,sans-Serif" font-size="10.00">ImMax</text>
</a>
</g>
</g>
<!-- Node24&#45;&gt;Node26 -->
<g id="edge11" class="edge">
<title>Node24&#45;&gt;Node26</title>
<path fill="none" stroke="#63b8ff" d="M819.71,-528.23C840.14,-518.83 868.96,-502.56 886,-479.79 919.88,-434.53 883.9,-399.55 922,-357.79 978.74,-295.6 1033.57,-341.97 1098,-287.79 1151.64,-242.69 1186.72,-164.46 1200.89,-128.24"/>
<polygon fill="#63b8ff" stroke="#63b8ff" points="1204.34,-129.02 1204.61,-118.42 1197.79,-126.53 1204.34,-129.02"/>
</g>
<!-- Node28 -->
<g id="node14" class="node">
<title>Node28</title>
<g id="a_node14"><a xlink:href="structImFont.html#a418146c00c3dee351a411b952cce5175" target="_top" xlink:title=" ">
<polygon fill="#fff0f0" stroke="red" points="1072.5,-146.29 947.5,-146.29 947.5,-127.29 1072.5,-127.29 1072.5,-146.29"/>
<text text-anchor="middle" x="1010" y="-134.29" font-family="Helvetica,sans-Serif" font-size="10.00">ImFont::CalcTextSizeA</text>
</a>
</g>
</g>
<!-- Node27&#45;&gt;Node28 -->
<g id="edge13" class="edge">
<title>Node27&#45;&gt;Node28</title>
<path fill="none" stroke="#63b8ff" d="M851.69,-143.44C877.81,-142.33 909.27,-141 937.17,-139.82"/>
<polygon fill="#63b8ff" stroke="#63b8ff" points="937.42,-143.32 947.27,-139.4 937.13,-136.32 937.42,-143.32"/>
</g>
<!-- Node145 -->
<g id="node15" class="node">
<title>Node145</title>
<g id="a_node15"><a xlink:href="namespaceImGui.html#a7671e1dbc803a31b06081b52a771d83f" target="_top" xlink:title=" ">
<polygon fill="white" stroke="#666666" points="1088.5,-192.29 931.5,-192.29 931.5,-173.29 1088.5,-173.29 1088.5,-192.29"/>
<text text-anchor="middle" x="1010" y="-180.29" font-family="Helvetica,sans-Serif" font-size="10.00">ImGui::FindRenderedTextEnd</text>
</a>
</g>
</g>
<!-- Node27&#45;&gt;Node145 -->
<g id="edge15" class="edge">
<title>Node27&#45;&gt;Node145</title>
<path fill="none" stroke="#63b8ff" d="M850.85,-155.32C879.31,-160.26 914.27,-166.33 944.07,-171.51"/>
<polygon fill="#63b8ff" stroke="#63b8ff" points="943.51,-174.97 953.96,-173.23 944.71,-168.07 943.51,-174.97"/>
</g>
<!-- Node28&#45;&gt;Node26 -->
<g id="edge14" class="edge">
<title>Node28&#45;&gt;Node26</title>
<path fill="none" stroke="#63b8ff" d="M1072.52,-128.04C1105.96,-123.29 1146.04,-117.6 1173.9,-113.64"/>
<polygon fill="#63b8ff" stroke="#63b8ff" points="1174.53,-117.08 1183.93,-112.21 1173.54,-110.15 1174.53,-117.08"/>
</g>
<!-- Node147 -->
<g id="node17" class="node">
<title>Node147</title>
<g id="a_node17"><a xlink:href="imgui_8cpp.html#a75ccaf7d676b1f567ba888ae42ac3809" target="_top" xlink:title=" ">
<polygon fill="white" stroke="#666666" points="1255,-836.29 1163,-836.29 1163,-817.29 1255,-817.29 1255,-836.29"/>
<text text-anchor="middle" x="1209" y="-824.29" font-family="Helvetica,sans-Serif" font-size="10.00">ImFormatString</text>
</a>
</g>
</g>
<!-- Node146&#45;&gt;Node147 -->
<g id="edge17" class="edge">
<title>Node146&#45;&gt;Node147</title>
<path fill="none" stroke="#63b8ff" d="M1090.56,-826.79C1111.47,-826.79 1133.56,-826.79 1152.88,-826.79"/>
<polygon fill="#63b8ff" stroke="#63b8ff" points="1153,-830.29 1163,-826.79 1153,-823.29 1153,-830.29"/>
</g>
<!-- Node150 -->
<g id="node20" class="node">
<title>Node150</title>
<g id="a_node20"><a xlink:href="namespaceImGui.html#a8cae2f7a08f820a8d5349d1964603b20" target="_top" xlink:title=" ">
<polygon fill="#fff0f0" stroke="red" points="1092,-724.79 928,-724.79 928,-694.79 1092,-694.79 1092,-724.79"/>
<text text-anchor="start" x="936" y="-712.79" font-family="Helvetica,sans-Serif" font-size="10.00">ImGui::BringWindowToDisplay</text>
<text text-anchor="middle" x="1010" y="-701.79" font-family="Helvetica,sans-Serif" font-size="10.00">Behind</text>
</a>
</g>
</g>
<!-- Node149&#45;&gt;Node150 -->
<g id="edge20" class="edge">
<title>Node149&#45;&gt;Node150</title>
<path fill="none" stroke="#63b8ff" d="M854.79,-619.44C865.78,-622.32 876.72,-626.56 886,-632.79 909.64,-648.66 898.85,-669.21 922,-685.79 924.12,-687.31 926.33,-688.73 928.61,-690.06"/>
<polygon fill="#63b8ff" stroke="#63b8ff" points="927.22,-693.28 937.71,-694.76 930.43,-687.06 927.22,-693.28"/>
</g>
<!-- Node153 -->
<g id="node21" class="node">
<title>Node153</title>
<g id="a_node21"><a xlink:href="namespaceImGui.html#a1f7b95f36d03751c928af7b1b745e959" target="_top" xlink:title=" ">
<polygon fill="#fff0f0" stroke="red" points="1092,-676.79 928,-676.79 928,-646.79 1092,-646.79 1092,-676.79"/>
<text text-anchor="start" x="936" y="-664.79" font-family="Helvetica,sans-Serif" font-size="10.00">ImGui::BringWindowToDisplay</text>
<text text-anchor="middle" x="1010" y="-653.79" font-family="Helvetica,sans-Serif" font-size="10.00">Front</text>
</a>
</g>
</g>
<!-- Node149&#45;&gt;Node153 -->
<g id="edge21" class="edge">
<title>Node149&#45;&gt;Node153</title>
<path fill="none" stroke="#63b8ff" d="M842.29,-623.34C856.35,-626.3 871.82,-629.62 886,-632.79 902.31,-636.43 919.81,-640.48 936.34,-644.36"/>
<polygon fill="#63b8ff" stroke="#63b8ff" points="935.96,-647.86 946.49,-646.75 937.56,-641.05 935.96,-647.86"/>
</g>
<!-- Node154 -->
<g id="node22" class="node">
<title>Node154</title>
<g id="a_node22"><a xlink:href="namespaceImGui.html#affe95a2dc969f0d15fbd4b588c94ac1a" target="_top" xlink:title=" ">
<polygon fill="#fff0f0" stroke="red" points="1087.5,-628.79 932.5,-628.79 932.5,-598.79 1087.5,-598.79 1087.5,-628.79"/>
<text text-anchor="start" x="940.5" y="-616.79" font-family="Helvetica,sans-Serif" font-size="10.00">ImGui::BringWindowToFocus</text>
<text text-anchor="middle" x="1010" y="-605.79" font-family="Helvetica,sans-Serif" font-size="10.00">Front</text>
</a>
</g>
</g>
<!-- Node149&#45;&gt;Node154 -->
<g id="edge22" class="edge">
<title>Node149&#45;&gt;Node154</title>
<path fill="none" stroke="#63b8ff" d="M854.77,-613.79C875.68,-613.79 899.7,-613.79 922.45,-613.79"/>
<polygon fill="#63b8ff" stroke="#63b8ff" points="922.46,-617.29 932.46,-613.79 922.46,-610.29 922.46,-617.29"/>
</g>
<!-- Node155 -->
<g id="node23" class="node">
<title>Node155</title>
<g id="a_node23"><a xlink:href="namespaceImGui.html#a17ff60ad1e2669130ac38a04d16eb354" target="_top" xlink:title=" ">
<polygon fill="white" stroke="#666666" points="1069.5,-762.29 950.5,-762.29 950.5,-743.29 1069.5,-743.29 1069.5,-762.29"/>
<text text-anchor="middle" x="1010" y="-750.29" font-family="Helvetica,sans-Serif" font-size="10.00">ImGui::ClearActiveID</text>
</a>
</g>
</g>
<!-- Node149&#45;&gt;Node155 -->
<g id="edge23" class="edge">
<title>Node149&#45;&gt;Node155</title>
<path fill="none" stroke="#63b8ff" d="M854.76,-617.28C866.13,-620.28 877.22,-625.12 886,-632.79 921.88,-664.15 886.23,-702.3 922,-733.79 927.51,-738.63 933.96,-742.34 940.82,-745.15"/>
<polygon fill="#63b8ff" stroke="#63b8ff" points="939.78,-748.5 950.37,-748.47 942.07,-741.88 939.78,-748.5"/>
</g>
<!-- Node158 -->
<g id="node25" class="node">
<title>Node158</title>
<g id="a_node25"><a xlink:href="namespaceImGui.html#a0076b153c697cb85e263fcbd59340bce" target="_top" xlink:title=" ">
<polygon fill="#fff0f0" stroke="red" points="1098,-580.29 922,-580.29 922,-561.29 1098,-561.29 1098,-580.29"/>
<text text-anchor="middle" x="1010" y="-568.29" font-family="Helvetica,sans-Serif" font-size="10.00">ImGui::ClosePopupsOverWindow</text>
</a>
</g>
</g>
<!-- Node149&#45;&gt;Node158 -->
<g id="edge25" class="edge">
<title>Node149&#45;&gt;Node158</title>
<path fill="none" stroke="#63b8ff" d="M843.27,-604.25C875.26,-597.79 917.7,-589.22 951.63,-582.37"/>
<polygon fill="#63b8ff" stroke="#63b8ff" points="952.75,-585.72 961.86,-580.31 951.37,-578.85 952.75,-585.72"/>
</g>
<!-- Node163 -->
<g id="node26" class="node">
<title>Node163</title>
<g id="a_node26"><a xlink:href="namespaceImGui.html#a196705a4195b41a57470ef6553cb440c" target="_top" xlink:title=" ">
<polygon fill="#fff0f0" stroke="red" points="1082,-543.29 938,-543.29 938,-524.29 1082,-524.29 1082,-543.29"/>
<text text-anchor="middle" x="1010" y="-531.29" font-family="Helvetica,sans-Serif" font-size="10.00">ImGui::FindBlockingModal</text>
</a>
</g>
</g>
<!-- Node149&#45;&gt;Node163 -->
<g id="edge26" class="edge">
<title>Node149&#45;&gt;Node163</title>
<path fill="none" stroke="#63b8ff" d="M850.71,-604.23C862.83,-600.76 875.26,-596.08 886,-589.79 905.8,-578.19 901.94,-563.93 922,-552.79 926.17,-550.47 930.6,-548.44 935.17,-546.65"/>
<polygon fill="#63b8ff" stroke="#63b8ff" points="936.41,-549.92 944.7,-543.32 934.1,-543.31 936.41,-549.92"/>
</g>
<!-- Node164 -->
<g id="node27" class="node">
<title>Node164</title>
<g id="a_node27"><a xlink:href="namespaceImGui.html#a6b905269b079f5e07755db52cc6e52df" target="_top" xlink:title=" ">
<polygon fill="white" stroke="#666666" points="1095,-506.29 925,-506.29 925,-487.29 1095,-487.29 1095,-506.29"/>
<text text-anchor="middle" x="1010" y="-494.29" font-family="Helvetica,sans-Serif" font-size="10.00">ImGui::GetTopMostPopupModal</text>
</a>
</g>
</g>
<!-- Node149&#45;&gt;Node164 -->
<g id="edge27" class="edge">
<title>Node149&#45;&gt;Node164</title>
<path fill="none" stroke="#63b8ff" d="M854.72,-605.89C865.97,-602.33 877.02,-597.19 886,-589.79 914.22,-566.53 893.25,-538.4 922,-515.79 924.2,-514.06 926.53,-512.47 928.95,-511.03"/>
<polygon fill="#63b8ff" stroke="#63b8ff" points="930.77,-514.03 938.09,-506.38 927.59,-507.8 930.77,-514.03"/>
</g>
<!-- Node155&#45;&gt;Node156 -->
<g id="edge24" class="edge">
<title>Node155&#45;&gt;Node156</title>
<path fill="none" stroke="#63b8ff" d="M1069.53,-745.3C1079.44,-742.57 1089.32,-738.85 1098,-733.79 1143.16,-707.45 1179.83,-656.16 1197.17,-628.88"/>
<polygon fill="#63b8ff" stroke="#63b8ff" points="1200.19,-630.65 1202.48,-620.31 1194.23,-626.96 1200.19,-630.65"/>
</g>
<!-- Node176&#45;&gt;Node176 -->
<g id="edge32" class="edge">
<title>Node176&#45;&gt;Node176</title>
<path fill="none" stroke="#63b8ff" d="M762.94,-416.37C747.34,-425.02 758.03,-434.29 795,-434.29 821.57,-434.29 834.57,-429.5 833.98,-423.6"/>
<polygon fill="#63b8ff" stroke="#63b8ff" points="836.5,-421.17 827.06,-416.37 831.45,-426.01 836.5,-421.17"/>
</g>
<!-- Node215&#45;&gt;Node155 -->
<g id="edge35" class="edge">
<title>Node215&#45;&gt;Node155</title>
<path fill="none" stroke="#63b8ff" d="M857.48,-660.43C867.63,-663.85 877.58,-668.5 886,-674.79 910.61,-693.18 896.98,-715.97 922,-733.79 927.58,-737.77 933.84,-740.94 940.38,-743.46"/>
<polygon fill="#63b8ff" stroke="#63b8ff" points="939.51,-746.86 950.1,-746.71 941.73,-740.22 939.51,-746.86"/>
</g>
<!-- Node499&#45;&gt;Node26 -->
<g id="edge37" class="edge">
<title>Node499&#45;&gt;Node26</title>
<path fill="none" stroke="#63b8ff" d="M842.86,-76C926.49,-83.51 1099.57,-99.05 1173.41,-105.68"/>
<polygon fill="#63b8ff" stroke="#63b8ff" points="1173.28,-109.19 1183.56,-106.59 1173.91,-102.21 1173.28,-109.19"/>
</g>
<!-- Node443&#45;&gt;Node5 -->
<g id="edge41" class="edge">
<title>Node443&#45;&gt;Node5</title>
<path fill="none" stroke="#63b8ff" d="M853.64,-371.68C876.27,-372.43 902.66,-373.29 927.2,-374.1"/>
<polygon fill="#63b8ff" stroke="#63b8ff" points="927.11,-377.6 937.22,-374.43 927.34,-370.6 927.11,-377.6"/>
</g>
<!-- Node443&#45;&gt;Node170 -->
<g id="edge42" class="edge">
<title>Node443&#45;&gt;Node170</title>
<path fill="none" stroke="#63b8ff" d="M853.9,-363.6C865.08,-360.77 876.31,-356.68 886,-350.79 907.59,-337.66 901.79,-321.95 922,-306.79 935.36,-296.77 951.83,-288.87 966.84,-282.99"/>
<polygon fill="#63b8ff" stroke="#63b8ff" points="968.3,-286.18 976.45,-279.41 965.85,-279.62 968.3,-286.18"/>
</g>
<!-- Node312&#45;&gt;Node170 -->
<g id="edge44" class="edge">
<title>Node312&#45;&gt;Node170</title>
<path fill="none" stroke="#63b8ff" d="M863.69,-260.92C888.95,-262.46 917.6,-264.21 942.74,-265.74"/>
<polygon fill="#63b8ff" stroke="#63b8ff" points="942.71,-269.25 952.91,-266.37 943.14,-262.26 942.71,-269.25"/>
</g>
<!-- Node501&#45;&gt;Node145 -->
<g id="edge46" class="edge">
<title>Node501&#45;&gt;Node145</title>
<path fill="none" stroke="#63b8ff" d="M848.65,-182.79C870.52,-182.79 896.51,-182.79 921.12,-182.79"/>
<polygon fill="#63b8ff" stroke="#63b8ff" points="921.2,-186.29 931.2,-182.79 921.2,-179.29 921.2,-186.29"/>
</g>
<!-- Node501&#45;&gt;Node170 -->
<g id="edge47" class="edge">
<title>Node501&#45;&gt;Node170</title>
<path fill="none" stroke="#63b8ff" d="M848.65,-190.44C861.1,-193.04 874.19,-196.42 886,-200.79 923.47,-214.65 963.14,-238.87 986.98,-254.61"/>
<polygon fill="#63b8ff" stroke="#63b8ff" points="985.06,-257.53 995.31,-260.19 988.95,-251.72 985.06,-257.53"/>
</g>
<!-- Node460&#45;&gt;Node145 -->
<g id="edge49" class="edge">
<title>Node460&#45;&gt;Node145</title>
<path fill="none" stroke="#63b8ff" d="M850.85,-210.26C879.31,-205.32 914.27,-199.24 944.07,-194.07"/>
<polygon fill="#63b8ff" stroke="#63b8ff" points="944.71,-197.51 953.96,-192.35 943.51,-190.61 944.71,-197.51"/>
</g>
<!-- Node506&#45;&gt;Node146 -->
<g id="edge56" class="edge">
<title>Node506&#45;&gt;Node146</title>
<path fill="none" stroke="#63b8ff" d="M856.97,-736.32C867.29,-739.76 877.43,-744.43 886,-750.79 910.37,-768.86 897.13,-791.42 922,-808.79 924.1,-810.26 926.3,-811.61 928.57,-812.86"/>
<polygon fill="#63b8ff" stroke="#63b8ff" points="927.1,-816.04 937.64,-817.16 930.1,-809.71 927.1,-816.04"/>
</g>
<!-- Node506&#45;&gt;Node148 -->
<g id="edge57" class="edge">
<title>Node506&#45;&gt;Node148</title>
<path fill="none" stroke="#63b8ff" d="M841.19,-736.32C855.77,-740.06 871.82,-744.89 886,-750.79 903.1,-757.91 904.7,-765.16 922,-771.79 927.77,-774 933.86,-775.96 940.03,-777.69"/>
<polygon fill="#63b8ff" stroke="#63b8ff" points="939.2,-781.09 949.76,-780.23 940.97,-774.32 939.2,-781.09"/>
</g>
<!-- Node506&#45;&gt;Node503 -->
<g id="edge58" class="edge">
<title>Node506&#45;&gt;Node503</title>
<path fill="none" stroke="#63b8ff" d="M816.52,-736.47C836.13,-746.49 865.64,-763.62 886,-784.79 907.82,-807.48 900.72,-822.59 922,-845.79 939.59,-864.96 964.03,-881.74 982.53,-892.99"/>
<polygon fill="#63b8ff" stroke="#63b8ff" points="980.95,-896.12 991.34,-898.21 984.51,-890.1 980.95,-896.12"/>
</g>
<!-- Node558&#45;&gt;Node4 -->
<g id="edge60" class="edge">
<title>Node558&#45;&gt;Node4</title>
<path fill="none" stroke="#63b8ff" d="M346.23,-479.95C393.13,-480.11 466.87,-480.37 519.9,-480.56"/>
<polygon fill="#63b8ff" stroke="#63b8ff" points="520.2,-484.06 530.22,-480.6 520.23,-477.06 520.2,-484.06"/>
</g>
<!-- Node493 -->
<g id="node48" class="node">
<title>Node493</title>
<g id="a_node48"><a xlink:href="namespaceImGui.html#a10a0d6362178c2f743092f21e1b6cd20" target="_top" xlink:title=" ">
<polygon fill="white" stroke="#666666" points="467,-81.29 388,-81.29 388,-62.29 467,-62.29 467,-81.29"/>
<text text-anchor="middle" x="427.5" y="-69.29" font-family="Helvetica,sans-Serif" font-size="10.00">ImGui::TextV</text>
</a>
</g>
</g>
<!-- Node559&#45;&gt;Node493 -->
<g id="edge62" class="edge">
<title>Node559&#45;&gt;Node493</title>
<path fill="none" stroke="#63b8ff" d="M307.22,-257.12C327,-226.38 388.66,-130.58 414.7,-90.12"/>
<polygon fill="#63b8ff" stroke="#63b8ff" points="417.77,-91.82 420.24,-81.52 411.88,-88.03 417.77,-91.82"/>
</g>
<!-- Node493&#45;&gt;Node172 -->
<g id="edge63" class="edge">
<title>Node493&#45;&gt;Node172</title>
<path fill="none" stroke="#63b8ff" d="M467.27,-67.86C525.38,-61.98 636.39,-50.74 712.76,-43.01"/>
<polygon fill="#63b8ff" stroke="#63b8ff" points="713.23,-46.48 722.83,-41.99 712.52,-39.52 713.23,-46.48"/>
</g>
<!-- Node494 -->
<g id="node49" class="node">
<title>Node494</title>
<g id="a_node49"><a xlink:href="imgui_8cpp.html#a7d2a77b9735185891f885970b1e54626" target="_top" xlink:title=" ">
<polygon fill="#fff0f0" stroke="red" points="668,-24.29 503,-24.29 503,-5.29 668,-5.29 668,-24.29"/>
<text text-anchor="middle" x="585.5" y="-12.29" font-family="Helvetica,sans-Serif" font-size="10.00">ImFormatStringToTempBufferV</text>
</a>
</g>
</g>
<!-- Node493&#45;&gt;Node494 -->
<g id="edge64" class="edge">
<title>Node493&#45;&gt;Node494</title>
<path fill="none" stroke="#63b8ff" d="M448.13,-62.25C462.99,-55.24 484.01,-45.76 503,-38.79 514.47,-34.58 527.04,-30.58 538.81,-27.1"/>
<polygon fill="#63b8ff" stroke="#63b8ff" points="539.83,-30.45 548.47,-24.3 537.89,-23.73 539.83,-30.45"/>
</g>
<!-- Node495 -->
<g id="node50" class="node">
<title>Node495</title>
<g id="a_node50"><a xlink:href="namespaceImGui.html#aae6420fec03511fd478d9108f31e6b5f" target="_top" xlink:title=" ">
<polygon fill="#fff0f0" stroke="red" points="627.5,-100.29 543.5,-100.29 543.5,-81.29 627.5,-81.29 627.5,-100.29"/>
<text text-anchor="middle" x="585.5" y="-88.29" font-family="Helvetica,sans-Serif" font-size="10.00">ImGui::TextEx</text>
</a>
</g>
</g>
<!-- Node493&#45;&gt;Node495 -->
<g id="edge65" class="edge">
<title>Node493&#45;&gt;Node495</title>
<path fill="none" stroke="#63b8ff" d="M467.06,-76.49C487.08,-78.92 511.8,-81.93 533.39,-84.56"/>
<polygon fill="#63b8ff" stroke="#63b8ff" points="533.03,-88.05 543.38,-85.78 533.88,-81.1 533.03,-88.05"/>
</g>
<!-- Node495&#45;&gt;Node26 -->
<g id="edge68" class="edge">
<title>Node495&#45;&gt;Node26</title>
<path fill="none" stroke="#63b8ff" d="M599.48,-81.17C625.03,-62.46 681.35,-22.4 704,-15.79 881.74,36.1 1103.55,-57.82 1180.34,-94.79"/>
<polygon fill="#63b8ff" stroke="#63b8ff" points="1178.86,-97.96 1189.38,-99.2 1181.93,-91.67 1178.86,-97.96"/>
</g>
<!-- Node495&#45;&gt;Node27 -->
<g id="edge66" class="edge">
<title>Node495&#45;&gt;Node27</title>
<path fill="none" stroke="#63b8ff" d="M615.27,-100.39C638.93,-108.1 673.43,-118.89 704,-126.79 713.96,-129.36 724.61,-131.84 734.96,-134.11"/>
<polygon fill="#63b8ff" stroke="#63b8ff" points="734.26,-137.54 744.77,-136.22 735.73,-130.7 734.26,-137.54"/>
</g>
<!-- Node495&#45;&gt;Node172 -->
<g id="edge67" class="edge">
<title>Node495&#45;&gt;Node172</title>
<path fill="none" stroke="#63b8ff" d="M621.2,-81.27C635.75,-77.1 652.78,-71.98 668,-66.79 684.25,-61.25 687.52,-57.6 704,-52.79 711.83,-50.5 720.13,-48.41 728.39,-46.53"/>
<polygon fill="#63b8ff" stroke="#63b8ff" points="729.4,-49.89 738.42,-44.33 727.9,-43.05 729.4,-49.89"/>
</g>
<!-- Node495&#45;&gt;Node177 -->
<g id="edge69" class="edge">
<title>Node495&#45;&gt;Node177</title>
<path fill="none" stroke="#63b8ff" d="M627.99,-94.39C659.64,-97.13 703.55,-100.94 738.26,-103.95"/>
<polygon fill="#63b8ff" stroke="#63b8ff" points="737.99,-107.44 748.25,-104.82 738.59,-100.47 737.99,-107.44"/>
</g>
<!-- Node495&#45;&gt;Node499 -->
<g id="edge70" class="edge">
<title>Node495&#45;&gt;Node499</title>
<path fill="none" stroke="#63b8ff" d="M627.99,-86.99C659.18,-84.13 702.28,-80.19 736.75,-77.03"/>
<polygon fill="#63b8ff" stroke="#63b8ff" points="737.51,-80.48 747.15,-76.08 736.87,-73.51 737.51,-80.48"/>
</g>
<!-- Node495&#45;&gt;Node501 -->
<g id="edge71" class="edge">
<title>Node495&#45;&gt;Node501</title>
<path fill="none" stroke="#63b8ff" d="M598.75,-100.44C619.3,-116.15 662.55,-147.14 704,-163.79 712.6,-167.24 721.92,-170.11 731.2,-172.47"/>
<polygon fill="#63b8ff" stroke="#63b8ff" points="730.67,-175.94 741.21,-174.84 732.29,-169.13 730.67,-175.94"/>
</g>
</g>
</svg>
