<?xml version="1.0" encoding="UTF-8" standalone="no"?>
<!DOCTYPE svg PUBLIC "-//W3C//DTD SVG 1.1//EN"
 "http://www.w3.org/Graphics/SVG/1.1/DTD/svg11.dtd">
<!-- Generated by graphviz version 2.43.0 (0)
 -->
<!-- Title: ImGuiIO::AddMouseViewportEvent Pages: 1 -->
<svg width="498pt" height="82pt"
 viewBox="0.00 0.00 498.00 82.00" xmlns="http://www.w3.org/2000/svg" xmlns:xlink="http://www.w3.org/1999/xlink">
<g id="graph0" class="graph" transform="scale(1 1) rotate(0) translate(4 78)">
<title>ImGuiIO::AddMouseViewportEvent</title>
<!-- Node1 -->
<g id="node1" class="node">
<title>Node1</title>
<g id="a_node1"><a xlink:title=" ">
<polygon fill="#999999" stroke="#666666" points="157,-60.5 0,-60.5 0,-30.5 157,-30.5 157,-60.5"/>
<text text-anchor="start" x="8" y="-48.5" font-family="Helvetica,sans-Serif" font-size="10.00">ImGuiIO::AddMouseViewport</text>
<text text-anchor="middle" x="78.5" y="-37.5" font-family="Helvetica,sans-Serif" font-size="10.00">Event</text>
</a>
</g>
</g>
<!-- Node2 -->
<g id="node2" class="node">
<title>Node2</title>
<g id="a_node2"><a xlink:href="imgui_8cpp.html#ac07ec3acbc8eefe52f805b1ed55f670a" target="_top" xlink:title=" ">
<polygon fill="white" stroke="#666666" points="312,-74 193,-74 193,-55 312,-55 312,-74"/>
<text text-anchor="middle" x="252.5" y="-62" font-family="Helvetica,sans-Serif" font-size="10.00">FindLatestInputEvent</text>
</a>
</g>
</g>
<!-- Node1&#45;&gt;Node2 -->
<g id="edge1" class="edge">
<title>Node1&#45;&gt;Node2</title>
<path fill="none" stroke="#63b8ff" d="M157.2,-54.08C165.74,-55.03 174.4,-55.98 182.82,-56.91"/>
<polygon fill="#63b8ff" stroke="#63b8ff" points="182.63,-60.41 192.96,-58.03 183.4,-53.46 182.63,-60.41"/>
</g>
<!-- Node3 -->
<g id="node3" class="node">
<title>Node3</title>
<g id="a_node3"><a xlink:href="structImVector.html#aab5df48e0711a48bd12f3206e08c4108" target="_top" xlink:title=" ">
<polygon fill="white" stroke="#666666" points="311.5,-37 193.5,-37 193.5,-18 311.5,-18 311.5,-37"/>
<text text-anchor="middle" x="252.5" y="-25" font-family="Helvetica,sans-Serif" font-size="10.00">ImVector::push_back</text>
</a>
</g>
</g>
<!-- Node1&#45;&gt;Node3 -->
<g id="edge2" class="edge">
<title>Node1&#45;&gt;Node3</title>
<path fill="none" stroke="#63b8ff" d="M157.2,-37.37C165.96,-36.45 174.85,-35.52 183.48,-34.62"/>
<polygon fill="#63b8ff" stroke="#63b8ff" points="183.89,-38.1 193.47,-33.57 183.16,-31.13 183.89,-38.1"/>
</g>
<!-- Node4 -->
<g id="node4" class="node">
<title>Node4</title>
<g id="a_node4"><a xlink:href="structImVector.html#a3a097635d464b1b70dc7d59996a88b28" target="_top" xlink:title=" ">
<polygon fill="white" stroke="#666666" points="490,-56 348,-56 348,-37 490,-37 490,-56"/>
<text text-anchor="middle" x="419" y="-44" font-family="Helvetica,sans-Serif" font-size="10.00">ImVector::_grow_capacity</text>
</a>
</g>
</g>
<!-- Node3&#45;&gt;Node4 -->
<g id="edge3" class="edge">
<title>Node3&#45;&gt;Node4</title>
<path fill="none" stroke="#63b8ff" d="M311.96,-34.25C320.32,-35.22 329.05,-36.23 337.74,-37.23"/>
<polygon fill="#63b8ff" stroke="#63b8ff" points="337.57,-40.73 347.91,-38.4 338.37,-33.78 337.57,-40.73"/>
</g>
<!-- Node5 -->
<g id="node5" class="node">
<title>Node5</title>
<g id="a_node5"><a xlink:href="structImVector.html#a0f14f5736c3372157856eebb67123b75" target="_top" xlink:title=" ">
<polygon fill="white" stroke="#666666" points="470.5,-19 367.5,-19 367.5,0 470.5,0 470.5,-19"/>
<text text-anchor="middle" x="419" y="-7" font-family="Helvetica,sans-Serif" font-size="10.00">ImVector::reserve</text>
</a>
</g>
</g>
<!-- Node3&#45;&gt;Node5 -->
<g id="edge4" class="edge">
<title>Node3&#45;&gt;Node5</title>
<path fill="none" stroke="#63b8ff" d="M311.96,-21.1C326.67,-19.49 342.48,-17.76 357.3,-16.14"/>
<polygon fill="#63b8ff" stroke="#63b8ff" points="357.81,-19.61 367.37,-15.04 357.04,-12.65 357.81,-19.61"/>
</g>
</g>
</svg>
