<?xml version="1.0" encoding="UTF-8" standalone="no"?>
<!DOCTYPE svg PUBLIC "-//W3C//DTD SVG 1.1//EN"
 "http://www.w3.org/Graphics/SVG/1.1/DTD/svg11.dtd">
<!-- Generated by graphviz version 2.43.0 (0)
 -->
<!-- Title: boost::mpl::bitxor_impl&lt; integral_c_tag, integral_c_tag &gt;::apply Pages: 1 -->
<svg width="386pt" height="398pt"
 viewBox="0.00 0.00 386.00 398.00" xmlns="http://www.w3.org/2000/svg" xmlns:xlink="http://www.w3.org/1999/xlink">
<g id="graph0" class="graph" transform="scale(1 1) rotate(0) translate(4 394)">
<title>boost::mpl::bitxor_impl&lt; integral_c_tag, integral_c_tag &gt;::apply</title>
<!-- Node1 -->
<g id="node1" class="node">
<title>Node1</title>
<g id="a_node1"><a xlink:title=" ">
<polygon fill="#999999" stroke="#666666" points="187,-0.5 187,-79.5 320,-79.5 320,-0.5 187,-0.5"/>
<text text-anchor="start" x="195" y="-67.5" font-family="Helvetica,sans-Serif" font-size="10.00">boost::mpl::bitxor</text>
<text text-anchor="start" x="195" y="-56.5" font-family="Helvetica,sans-Serif" font-size="10.00">_impl&lt; integral_c_tag,</text>
<text text-anchor="middle" x="253.5" y="-45.5" font-family="Helvetica,sans-Serif" font-size="10.00"> integral_c_tag &gt;::apply</text>
<polyline fill="none" stroke="#666666" points="187,-38.5 320,-38.5 "/>
<text text-anchor="middle" x="253.5" y="-26.5" font-family="Helvetica,sans-Serif" font-size="10.00"> </text>
<polyline fill="none" stroke="#666666" points="187,-19.5 320,-19.5 "/>
<text text-anchor="middle" x="253.5" y="-7.5" font-family="Helvetica,sans-Serif" font-size="10.00"> </text>
</a>
</g>
</g>
<!-- Node2 -->
<g id="node2" class="node">
<title>Node2</title>
<g id="a_node2"><a xlink:href="structintegral__c.html" target="_top" xlink:title=" ">
<polygon fill="white" stroke="#666666" points="0,-117.5 0,-229.5 211,-229.5 211,-117.5 0,-117.5"/>
<text text-anchor="start" x="8" y="-217.5" font-family="Helvetica,sans-Serif" font-size="10.00">integral_c&lt; aux::largest</text>
<text text-anchor="start" x="8" y="-206.5" font-family="Helvetica,sans-Serif" font-size="10.00">_int&lt; N1::value_type, N2</text>
<text text-anchor="start" x="8" y="-195.5" font-family="Helvetica,sans-Serif" font-size="10.00">::value_type &gt;::type,(BOOST</text>
<text text-anchor="start" x="8" y="-184.5" font-family="Helvetica,sans-Serif" font-size="10.00">_MPL_AUX_VALUE_WKND(N1)::value</text>
<text text-anchor="start" x="8" y="-173.5" font-family="Helvetica,sans-Serif" font-size="10.00"> ^ BOOST_MPL_AUX_VALUE_WKND(N2)</text>
<text text-anchor="middle" x="105.5" y="-162.5" font-family="Helvetica,sans-Serif" font-size="10.00">::value) &gt;</text>
<polyline fill="none" stroke="#666666" points="0,-155.5 211,-155.5 "/>
<text text-anchor="middle" x="105.5" y="-143.5" font-family="Helvetica,sans-Serif" font-size="10.00"> </text>
<polyline fill="none" stroke="#666666" points="0,-136.5 211,-136.5 "/>
<text text-anchor="middle" x="105.5" y="-124.5" font-family="Helvetica,sans-Serif" font-size="10.00"> </text>
</a>
</g>
</g>
<!-- Node2&#45;&gt;Node1 -->
<g id="edge1" class="edge">
<title>Node2&#45;&gt;Node1</title>
<path fill="none" stroke="#63b8ff" d="M175.14,-110.62C186.96,-100.12 198.93,-89.49 209.83,-79.8"/>
<polygon fill="none" stroke="#63b8ff" points="172.56,-108.24 167.41,-117.49 177.21,-113.47 172.56,-108.24"/>
</g>
<!-- Node3 -->
<g id="node3" class="node">
<title>Node3</title>
<g id="a_node3"><a xlink:href="structintegral__c.html" target="_top" xlink:title=" ">
<polygon fill="white" stroke="#666666" points="52,-332.5 52,-389.5 159,-389.5 159,-332.5 52,-332.5"/>
<text text-anchor="middle" x="105.5" y="-377.5" font-family="Helvetica,sans-Serif" font-size="10.00">integral_c&lt; T, N &gt;</text>
<polyline fill="none" stroke="#666666" points="52,-370.5 159,-370.5 "/>
<text text-anchor="middle" x="105.5" y="-358.5" font-family="Helvetica,sans-Serif" font-size="10.00"> </text>
<polyline fill="none" stroke="#666666" points="52,-351.5 159,-351.5 "/>
<text text-anchor="middle" x="105.5" y="-339.5" font-family="Helvetica,sans-Serif" font-size="10.00"> </text>
</a>
</g>
</g>
<!-- Node3&#45;&gt;Node2 -->
<g id="edge2" class="edge">
<title>Node3&#45;&gt;Node2</title>
<path fill="none" stroke="orange" d="M105.5,-322.17C105.5,-295.57 105.5,-259.55 105.5,-229.75"/>
<polygon fill="orange" stroke="orange" points="102,-322.23 105.5,-332.23 109,-322.23 102,-322.23"/>
<text text-anchor="start" x="105.5" y="-306" font-family="Helvetica,sans-Serif" font-size="10.00"> &lt; aux::largest_int</text>
<text text-anchor="start" x="105.5" y="-295" font-family="Helvetica,sans-Serif" font-size="10.00">&lt; N1::value_type, N2</text>
<text text-anchor="start" x="105.5" y="-284" font-family="Helvetica,sans-Serif" font-size="10.00">::value_type &gt;::type,</text>
<text text-anchor="start" x="105.5" y="-273" font-family="Helvetica,sans-Serif" font-size="10.00">(BOOST_MPL_AUX_VALUE_WKND</text>
<text text-anchor="start" x="105.5" y="-262" font-family="Helvetica,sans-Serif" font-size="10.00">(N1)::value ^ BOOST_MPL_AUX</text>
<text text-anchor="middle" x="187" y="-251" font-family="Helvetica,sans-Serif" font-size="10.00">_VALUE_WKND(N2)::value) &gt;</text>
</g>
<!-- Node4 -->
<g id="node4" class="node">
<title>Node4</title>
<g id="a_node4"><a xlink:href="structintegral__c.html" target="_top" xlink:title=" ">
<polygon fill="white" stroke="#666666" points="229,-123 229,-224 378,-224 378,-123 229,-123"/>
<text text-anchor="start" x="237" y="-212" font-family="Helvetica,sans-Serif" font-size="10.00">aux::bitxor_wknd&lt; aux</text>
<text text-anchor="start" x="237" y="-201" font-family="Helvetica,sans-Serif" font-size="10.00">::largest_int&lt; N1::value</text>
<text text-anchor="start" x="237" y="-190" font-family="Helvetica,sans-Serif" font-size="10.00">_type, N2::value_type &gt;</text>
<text text-anchor="start" x="237" y="-179" font-family="Helvetica,sans-Serif" font-size="10.00">::type, N1::value, N2::value</text>
<text text-anchor="middle" x="303.5" y="-168" font-family="Helvetica,sans-Serif" font-size="10.00"> &gt;::type</text>
<polyline fill="none" stroke="#666666" points="229,-161 378,-161 "/>
<text text-anchor="middle" x="303.5" y="-149" font-family="Helvetica,sans-Serif" font-size="10.00"> </text>
<polyline fill="none" stroke="#666666" points="229,-142 378,-142 "/>
<text text-anchor="middle" x="303.5" y="-130" font-family="Helvetica,sans-Serif" font-size="10.00"> </text>
</a>
</g>
</g>
<!-- Node4&#45;&gt;Node1 -->
<g id="edge3" class="edge">
<title>Node4&#45;&gt;Node1</title>
<path fill="none" stroke="#63b8ff" d="M280.99,-113.31C276.66,-101.91 272.23,-90.25 268.22,-79.72"/>
<polygon fill="none" stroke="#63b8ff" points="277.77,-114.68 284.6,-122.79 284.31,-112.19 277.77,-114.68"/>
</g>
</g>
</svg>
