<?xml version="1.0" encoding="UTF-8" standalone="no"?>
<!DOCTYPE svg PUBLIC "-//W3C//DTD SVG 1.1//EN"
 "http://www.w3.org/Graphics/SVG/1.1/DTD/svg11.dtd">
<!-- Generated by graphviz version 2.43.0 (0)
 -->
<!-- Title: ImTriangulator::ReclassifyNode Pages: 1 -->
<svg width="520pt" height="161pt"
 viewBox="0.00 0.00 520.00 161.00" xmlns="http://www.w3.org/2000/svg" xmlns:xlink="http://www.w3.org/1999/xlink">
<g id="graph0" class="graph" transform="scale(1 1) rotate(0) translate(4 157)">
<title>ImTriangulator::ReclassifyNode</title>
<!-- Node1 -->
<g id="node1" class="node">
<title>Node1</title>
<g id="a_node1"><a xlink:title=" ">
<polygon fill="#999999" stroke="#666666" points="168,-85.5 0,-85.5 0,-66.5 168,-66.5 168,-85.5"/>
<text text-anchor="middle" x="84" y="-73.5" font-family="Helvetica,sans-Serif" font-size="10.00">ImTriangulator::ReclassifyNode</text>
</a>
</g>
</g>
<!-- Node2 -->
<g id="node2" class="node">
<title>Node2</title>
<g id="a_node2"><a xlink:href="structImTriangulatorNodeSpan.html#a83c4ca94f08b7eddde15fa6131a9e5d2" target="_top" xlink:title=" ">
<polygon fill="white" stroke="#666666" points="341,-153 204,-153 204,-123 341,-123 341,-153"/>
<text text-anchor="start" x="212" y="-141" font-family="Helvetica,sans-Serif" font-size="10.00">ImTriangulatorNodeSpan</text>
<text text-anchor="middle" x="272.5" y="-130" font-family="Helvetica,sans-Serif" font-size="10.00">::find_erase_unsorted</text>
</a>
</g>
</g>
<!-- Node1&#45;&gt;Node2 -->
<g id="edge1" class="edge">
<title>Node1&#45;&gt;Node2</title>
<path fill="none" stroke="#63b8ff" d="M113.73,-85.55C140.98,-94.61 182.64,-108.46 216.31,-119.65"/>
<polygon fill="#63b8ff" stroke="#63b8ff" points="215.44,-123.05 226.03,-122.88 217.65,-116.41 215.44,-123.05"/>
</g>
<!-- Node3 -->
<g id="node3" class="node">
<title>Node3</title>
<g id="a_node3"><a xlink:href="imgui__internal_8h.html#ae4a4b8c7970b82c6a3a1a93ed9752de5" target="_top" xlink:title=" ">
<polygon fill="white" stroke="#666666" points="335,-104.5 210,-104.5 210,-85.5 335,-85.5 335,-104.5"/>
<text text-anchor="middle" x="272.5" y="-92.5" font-family="Helvetica,sans-Serif" font-size="10.00">ImTriangleIsClockwise</text>
</a>
</g>
</g>
<!-- Node1&#45;&gt;Node3 -->
<g id="edge2" class="edge">
<title>Node1&#45;&gt;Node3</title>
<path fill="none" stroke="#63b8ff" d="M168.16,-84.47C178.65,-85.54 189.31,-86.63 199.61,-87.68"/>
<polygon fill="#63b8ff" stroke="#63b8ff" points="199.46,-91.18 209.76,-88.71 200.17,-84.21 199.46,-91.18"/>
</g>
<!-- Node4 -->
<g id="node4" class="node">
<title>Node4</title>
<g id="a_node4"><a xlink:href="structImTriangulator.html#a2fae6ba9afe9322843a93c7511985fc8" target="_top" xlink:title=" ">
<polygon fill="white" stroke="#666666" points="331,-67.5 214,-67.5 214,-48.5 331,-48.5 331,-67.5"/>
<text text-anchor="middle" x="272.5" y="-55.5" font-family="Helvetica,sans-Serif" font-size="10.00">ImTriangulator::IsEar</text>
</a>
</g>
</g>
<!-- Node1&#45;&gt;Node4 -->
<g id="edge3" class="edge">
<title>Node1&#45;&gt;Node4</title>
<path fill="none" stroke="#63b8ff" d="M168.16,-67.97C180.1,-66.82 192.27,-65.65 203.87,-64.53"/>
<polygon fill="#63b8ff" stroke="#63b8ff" points="204.27,-68 213.89,-63.56 203.6,-61.04 204.27,-68"/>
</g>
<!-- Node6 -->
<g id="node6" class="node">
<title>Node6</title>
<g id="a_node6"><a xlink:href="structImTriangulatorNodeSpan.html#a67626e397d16c2710fc7497d46ba408c" target="_top" xlink:title=" ">
<polygon fill="white" stroke="#666666" points="341,-30 204,-30 204,0 341,0 341,-30"/>
<text text-anchor="start" x="212" y="-18" font-family="Helvetica,sans-Serif" font-size="10.00">ImTriangulatorNodeSpan</text>
<text text-anchor="middle" x="272.5" y="-7" font-family="Helvetica,sans-Serif" font-size="10.00">::push_back</text>
</a>
</g>
</g>
<!-- Node1&#45;&gt;Node6 -->
<g id="edge5" class="edge">
<title>Node1&#45;&gt;Node6</title>
<path fill="none" stroke="#63b8ff" d="M114.14,-66.47C141.27,-57.59 182.44,-44.13 215.87,-33.2"/>
<polygon fill="#63b8ff" stroke="#63b8ff" points="217.1,-36.47 225.52,-30.04 214.93,-29.82 217.1,-36.47"/>
</g>
<!-- Node5 -->
<g id="node5" class="node">
<title>Node5</title>
<g id="a_node5"><a xlink:href="imgui_8cpp.html#aa53a4a0b963d2d35b8e58442247e1239" target="_top" xlink:title=" ">
<polygon fill="white" stroke="#666666" points="512,-67.5 377,-67.5 377,-48.5 512,-48.5 512,-67.5"/>
<text text-anchor="middle" x="444.5" y="-55.5" font-family="Helvetica,sans-Serif" font-size="10.00">ImTriangleContainsPoint</text>
</a>
</g>
</g>
<!-- Node4&#45;&gt;Node5 -->
<g id="edge4" class="edge">
<title>Node4&#45;&gt;Node5</title>
<path fill="none" stroke="#63b8ff" d="M331.05,-58C342.57,-58 354.83,-58 366.87,-58"/>
<polygon fill="#63b8ff" stroke="#63b8ff" points="366.91,-61.5 376.91,-58 366.91,-54.5 366.91,-61.5"/>
</g>
</g>
</svg>
