<?xml version="1.0" encoding="UTF-8" standalone="no"?>
<!DOCTYPE svg PUBLIC "-//W3C//DTD SVG 1.1//EN"
 "http://www.w3.org/Graphics/SVG/1.1/DTD/svg11.dtd">
<!-- Generated by graphviz version 2.43.0 (0)
 -->
<!-- Title: mtgb::Vector3::Up Pages: 1 -->
<svg width="514pt" height="348pt"
 viewBox="0.00 0.00 514.00 348.00" xmlns="http://www.w3.org/2000/svg" xmlns:xlink="http://www.w3.org/1999/xlink">
<g id="graph0" class="graph" transform="scale(1 1) rotate(0) translate(4 344)">
<title>mtgb::Vector3::Up</title>
<!-- Node1 -->
<g id="node1" class="node">
<title>Node1</title>
<g id="a_node1"><a xlink:title=" ">
<polygon fill="#999999" stroke="#666666" points="506,-176.5 402,-176.5 402,-157.5 506,-157.5 506,-176.5"/>
<text text-anchor="middle" x="454" y="-164.5" font-family="Helvetica,sans-Serif" font-size="10.00">mtgb::Vector3::Up</text>
</a>
</g>
</g>
<!-- Node2 -->
<g id="node2" class="node">
<title>Node2</title>
<g id="a_node2"><a xlink:href="classmtgb_1_1ImGuiEditorCamera.html#aeba51d4deee4df973342639d9453e9c3" target="_top" xlink:title=" ">
<polygon fill="white" stroke="#666666" points="345,-340 201,-340 201,-310 345,-310 345,-340"/>
<text text-anchor="start" x="209" y="-328" font-family="Helvetica,sans-Serif" font-size="10.00">mtgb::ImGuiEditorCamera</text>
<text text-anchor="middle" x="273" y="-317" font-family="Helvetica,sans-Serif" font-size="10.00">::DoDolly</text>
</a>
</g>
</g>
<!-- Node1&#45;&gt;Node2 -->
<g id="edge1" class="edge">
<title>Node1&#45;&gt;Node2</title>
<path fill="none" stroke="#63b8ff" d="M445.94,-186C434.07,-215.3 407.27,-271.22 366,-301 359.71,-305.54 352.63,-309.22 345.26,-312.21"/>
<polygon fill="#63b8ff" stroke="#63b8ff" points="449.27,-187.1 449.64,-176.51 442.75,-184.56 449.27,-187.1"/>
</g>
<!-- Node4 -->
<g id="node4" class="node">
<title>Node4</title>
<g id="a_node4"><a xlink:href="BoxPlane_8cpp.html#a1d010ed351241a47694365e9de47bd06" target="_top" xlink:title="AABBから指定された向きの平面を返す">
<polygon fill="white" stroke="#666666" points="303.5,-291.5 242.5,-291.5 242.5,-272.5 303.5,-272.5 303.5,-291.5"/>
<text text-anchor="middle" x="273" y="-279.5" font-family="Helvetica,sans-Serif" font-size="10.00">GetPlane</text>
</a>
</g>
</g>
<!-- Node1&#45;&gt;Node4 -->
<g id="edge3" class="edge">
<title>Node1&#45;&gt;Node4</title>
<path fill="none" stroke="#63b8ff" d="M441.77,-185.22C427.16,-207.28 399.49,-243.86 366,-263 347.02,-273.84 322.71,-278.54 303.84,-280.55"/>
<polygon fill="#63b8ff" stroke="#63b8ff" points="444.75,-187.05 447.21,-176.74 438.86,-183.27 444.75,-187.05"/>
</g>
<!-- Node7 -->
<g id="node7" class="node">
<title>Node7</title>
<g id="a_node7"><a xlink:href="classmtgb_1_1Ground.html#a1044f45a24ec560f13b1f694444ad9fa" target="_top" xlink:title="頂点バッファの初期化">
<polygon fill="white" stroke="#666666" points="338.5,-254 207.5,-254 207.5,-224 338.5,-224 338.5,-254"/>
<text text-anchor="start" x="215.5" y="-242" font-family="Helvetica,sans-Serif" font-size="10.00">mtgb::Ground::Initialize</text>
<text text-anchor="middle" x="273" y="-231" font-family="Helvetica,sans-Serif" font-size="10.00">VertexBuffer</text>
</a>
</g>
</g>
<!-- Node1&#45;&gt;Node7 -->
<g id="edge6" class="edge">
<title>Node1&#45;&gt;Node7</title>
<path fill="none" stroke="#63b8ff" d="M429.44,-182.11C412.37,-192.52 388.44,-206.05 366,-215 357.26,-218.49 347.85,-221.61 338.51,-224.36"/>
<polygon fill="#63b8ff" stroke="#63b8ff" points="431.51,-184.94 438.16,-176.69 427.82,-178.99 431.51,-184.94"/>
</g>
<!-- Node8 -->
<g id="node8" class="node">
<title>Node8</title>
<g id="a_node8"><a xlink:href="classmtgb_1_1ICamera.html#ada04218c762c876f8f9d4b4d4eb05716" target="_top" xlink:title=" ">
<polygon fill="white" stroke="#666666" points="353.5,-206 192.5,-206 192.5,-176 353.5,-176 353.5,-206"/>
<text text-anchor="start" x="200.5" y="-194" font-family="Helvetica,sans-Serif" font-size="10.00">mtgb::ICamera::MoveCamera</text>
<text text-anchor="middle" x="273" y="-183" font-family="Helvetica,sans-Serif" font-size="10.00">Spherical</text>
</a>
</g>
</g>
<!-- Node1&#45;&gt;Node8 -->
<g id="edge7" class="edge">
<title>Node1&#45;&gt;Node8</title>
<path fill="none" stroke="#63b8ff" d="M391.65,-175.23C379.42,-176.86 366.42,-178.61 353.69,-180.32"/>
<polygon fill="#63b8ff" stroke="#63b8ff" points="392.26,-178.68 401.71,-173.88 391.33,-171.74 392.26,-178.68"/>
</g>
<!-- Node9 -->
<g id="node9" class="node">
<title>Node9</title>
<g id="a_node9"><a xlink:href="classmtgb_1_1Camera.html#aca293b287fbed1881b143b490189550c" target="_top" xlink:title=" ">
<polygon fill="white" stroke="#666666" points="352,-158 194,-158 194,-128 352,-128 352,-158"/>
<text text-anchor="start" x="202" y="-146" font-family="Helvetica,sans-Serif" font-size="10.00">mtgb::Camera::MoveCamera</text>
<text text-anchor="middle" x="273" y="-135" font-family="Helvetica,sans-Serif" font-size="10.00">Spherical</text>
</a>
</g>
</g>
<!-- Node1&#45;&gt;Node9 -->
<g id="edge8" class="edge">
<title>Node1&#45;&gt;Node9</title>
<path fill="none" stroke="#63b8ff" d="M391.67,-158.78C378.9,-157.07 365.28,-155.24 352.01,-153.46"/>
<polygon fill="#63b8ff" stroke="#63b8ff" points="391.33,-162.26 401.71,-160.12 392.26,-155.32 391.33,-162.26"/>
</g>
<!-- Node10 -->
<g id="node10" class="node">
<title>Node10</title>
<g id="a_node10"><a xlink:href="classmtgb_1_1ImGuiEditorCamera.html#abf8aec700b525d8b43bd4bc50b512e3f" target="_top" xlink:title=" ">
<polygon fill="white" stroke="#666666" points="366,-110 180,-110 180,-80 366,-80 366,-110"/>
<text text-anchor="start" x="188" y="-98" font-family="Helvetica,sans-Serif" font-size="10.00">mtgb::ImGuiEditorCamera</text>
<text text-anchor="middle" x="273" y="-87" font-family="Helvetica,sans-Serif" font-size="10.00">::MoveCameraSphericalOnTheSpot</text>
</a>
</g>
</g>
<!-- Node1&#45;&gt;Node10 -->
<g id="edge9" class="edge">
<title>Node1&#45;&gt;Node10</title>
<path fill="none" stroke="#63b8ff" d="M429.44,-151.89C412.37,-141.48 388.44,-127.95 366,-119 357.72,-115.7 348.84,-112.72 339.98,-110.08"/>
<polygon fill="#63b8ff" stroke="#63b8ff" points="427.82,-155.01 438.16,-157.31 431.51,-149.06 427.82,-155.01"/>
</g>
<!-- Node11 -->
<g id="node11" class="node">
<title>Node11</title>
<g id="a_node11"><a xlink:href="classmtgb_1_1Transform.html#ac8b68f35d2f2fa181a62b5b53b545cc8" target="_top" xlink:title="上方向のワールドベクトル">
<polygon fill="white" stroke="#666666" points="331,-61.5 215,-61.5 215,-42.5 331,-42.5 331,-61.5"/>
<text text-anchor="middle" x="273" y="-49.5" font-family="Helvetica,sans-Serif" font-size="10.00">mtgb::Transform::Up</text>
</a>
</g>
</g>
<!-- Node1&#45;&gt;Node11 -->
<g id="edge10" class="edge">
<title>Node1&#45;&gt;Node11</title>
<path fill="none" stroke="#63b8ff" d="M441.77,-148.78C427.16,-126.72 399.49,-90.14 366,-71 355.38,-64.93 343.09,-60.79 331.01,-57.96"/>
<polygon fill="#63b8ff" stroke="#63b8ff" points="438.86,-150.73 447.21,-157.26 444.75,-146.95 438.86,-150.73"/>
</g>
<!-- Node12 -->
<g id="node12" class="node">
<title>Node12</title>
<g id="a_node12"><a xlink:href="classmtgb_1_1RigidBody.html#a4ae90b81205022f5551239ba5029262f" target="_top" xlink:title=" ">
<polygon fill="white" stroke="#666666" points="361.5,-24.5 184.5,-24.5 184.5,-5.5 361.5,-5.5 361.5,-24.5"/>
<text text-anchor="middle" x="273" y="-12.5" font-family="Helvetica,sans-Serif" font-size="10.00">mtgb::RigidBody::UpdateVelocity</text>
</a>
</g>
</g>
<!-- Node1&#45;&gt;Node12 -->
<g id="edge11" class="edge">
<title>Node1&#45;&gt;Node12</title>
<path fill="none" stroke="#63b8ff" d="M446.16,-147.69C434.58,-117.97 408.17,-61.48 366,-33 361.01,-29.63 355.54,-26.86 349.83,-24.58"/>
<polygon fill="#63b8ff" stroke="#63b8ff" points="442.98,-149.18 449.76,-157.32 449.54,-146.73 442.98,-149.18"/>
</g>
<!-- Node3 -->
<g id="node3" class="node">
<title>Node3</title>
<g id="a_node3"><a xlink:href="classmtgb_1_1ImGuiEditorCamera.html#ae593d5e8b81e1fe8d6efc3ddb8ecb9a2" target="_top" xlink:title=" ">
<polygon fill="white" stroke="#666666" points="144,-340 0,-340 0,-310 144,-310 144,-340"/>
<text text-anchor="start" x="8" y="-328" font-family="Helvetica,sans-Serif" font-size="10.00">mtgb::ImGuiEditorCamera</text>
<text text-anchor="middle" x="72" y="-317" font-family="Helvetica,sans-Serif" font-size="10.00">::ImGuiEditorCamera</text>
</a>
</g>
</g>
<!-- Node2&#45;&gt;Node3 -->
<g id="edge2" class="edge">
<title>Node2&#45;&gt;Node3</title>
<path fill="none" stroke="#63b8ff" d="M190.95,-325C175.5,-325 159.43,-325 144.31,-325"/>
<polygon fill="#63b8ff" stroke="#63b8ff" points="191,-328.5 201,-325 191,-321.5 191,-328.5"/>
</g>
<!-- Node5 -->
<g id="node5" class="node">
<title>Node5</title>
<g id="a_node5"><a xlink:href="BoxPlane_8cpp.html#a57d57c265bcec06150ac680075ba94c0" target="_top" xlink:title=" ">
<polygon fill="white" stroke="#666666" points="125.5,-291.5 18.5,-291.5 18.5,-272.5 125.5,-272.5 125.5,-291.5"/>
<text text-anchor="middle" x="72" y="-279.5" font-family="Helvetica,sans-Serif" font-size="10.00">GetPlaneAngleRad</text>
</a>
</g>
</g>
<!-- Node4&#45;&gt;Node5 -->
<g id="edge4" class="edge">
<title>Node4&#45;&gt;Node5</title>
<path fill="none" stroke="#63b8ff" d="M231.94,-282C201.43,-282 159.14,-282 125.85,-282"/>
<polygon fill="#63b8ff" stroke="#63b8ff" points="232.21,-285.5 242.21,-282 232.21,-278.5 232.21,-285.5"/>
</g>
<!-- Node6 -->
<g id="node6" class="node">
<title>Node6</title>
<g id="a_node6"><a xlink:href="BoxPlane_8cpp.html#aa8091f419f272b80b543567d2adda8b3" target="_top" xlink:title=" ">
<polygon fill="white" stroke="#666666" points="125,-254.5 19,-254.5 19,-235.5 125,-235.5 125,-254.5"/>
<text text-anchor="middle" x="72" y="-242.5" font-family="Helvetica,sans-Serif" font-size="10.00">TryGetFacingPlane</text>
</a>
</g>
</g>
<!-- Node4&#45;&gt;Node6 -->
<g id="edge5" class="edge">
<title>Node4&#45;&gt;Node6</title>
<path fill="none" stroke="#63b8ff" d="M232.19,-274.6C201.18,-268.83 157.89,-260.78 124.28,-254.53"/>
<polygon fill="#63b8ff" stroke="#63b8ff" points="231.74,-278.07 242.21,-276.46 233.02,-271.19 231.74,-278.07"/>
</g>
<!-- Node13 -->
<g id="node13" class="node">
<title>Node13</title>
<g id="a_node13"><a xlink:href="classmtgb_1_1RigidBodyCP.html#ab3052d653b853508f6ac92d1de8d5798" target="_top" xlink:title=" ">
<polygon fill="white" stroke="#666666" points="130,-30 14,-30 14,0 130,0 130,-30"/>
<text text-anchor="start" x="22" y="-18" font-family="Helvetica,sans-Serif" font-size="10.00">mtgb::RigidBodyCP::</text>
<text text-anchor="middle" x="72" y="-7" font-family="Helvetica,sans-Serif" font-size="10.00">Update</text>
</a>
</g>
</g>
<!-- Node12&#45;&gt;Node13 -->
<g id="edge12" class="edge">
<title>Node12&#45;&gt;Node13</title>
<path fill="none" stroke="#63b8ff" d="M174.06,-15C159.06,-15 144,-15 130.27,-15"/>
<polygon fill="#63b8ff" stroke="#63b8ff" points="174.43,-18.5 184.43,-15 174.43,-11.5 174.43,-18.5"/>
</g>
</g>
</svg>
