<?xml version="1.0" encoding="UTF-8" standalone="no"?>
<!DOCTYPE svg PUBLIC "-//W3C//DTD SVG 1.1//EN"
 "http://www.w3.org/Graphics/SVG/1.1/DTD/svg11.dtd">
<!-- Generated by graphviz version 2.43.0 (0)
 -->
<!-- Title: ImPool::GetByKey Pages: 1 -->
<svg width="1157pt" height="113pt"
 viewBox="0.00 0.00 1157.00 112.50" xmlns="http://www.w3.org/2000/svg" xmlns:xlink="http://www.w3.org/1999/xlink">
<g id="graph0" class="graph" transform="scale(1 1) rotate(0) translate(4 108.5)">
<title>ImPool::GetByKey</title>
<!-- Node1 -->
<g id="node1" class="node">
<title>Node1</title>
<g id="a_node1"><a xlink:title=" ">
<polygon fill="#999999" stroke="#666666" points="1149,-56 1045,-56 1045,-37 1149,-37 1149,-56"/>
<text text-anchor="middle" x="1097" y="-44" font-family="Helvetica,sans-Serif" font-size="10.00">ImPool::GetByKey</text>
</a>
</g>
</g>
<!-- Node2 -->
<g id="node2" class="node">
<title>Node2</title>
<g id="a_node2"><a xlink:href="namespaceImGui.html#adc0c133a37b7e56223cb104f8bca32dc" target="_top" xlink:title=" ">
<polygon fill="white" stroke="#666666" points="1009,-104.5 830,-104.5 830,-74.5 1009,-74.5 1009,-104.5"/>
<text text-anchor="start" x="838" y="-92.5" font-family="Helvetica,sans-Serif" font-size="10.00">ImGui::DockContextPruneUnused</text>
<text text-anchor="middle" x="919.5" y="-81.5" font-family="Helvetica,sans-Serif" font-size="10.00">SettingsNodes</text>
</a>
</g>
</g>
<!-- Node1&#45;&gt;Node2 -->
<g id="edge1" class="edge">
<title>Node1&#45;&gt;Node2</title>
<path fill="none" stroke="#63b8ff" d="M1047.11,-58.48C1026.86,-63.44 1003.14,-69.25 981.75,-74.49"/>
<polygon fill="#63b8ff" stroke="#63b8ff" points="1048.17,-61.82 1057.05,-56.04 1046.51,-55.02 1048.17,-61.82"/>
</g>
<!-- Node8 -->
<g id="node8" class="node">
<title>Node8</title>
<g id="a_node8"><a xlink:href="namespaceImGui.html#a7bd06d2c8aa27de68ba2e567a67e39be" target="_top" xlink:title=" ">
<polygon fill="white" stroke="#666666" points="994,-56 845,-56 845,-37 994,-37 994,-56"/>
<text text-anchor="middle" x="919.5" y="-44" font-family="Helvetica,sans-Serif" font-size="10.00">ImGui::GetMultiSelectState</text>
</a>
</g>
</g>
<!-- Node1&#45;&gt;Node8 -->
<g id="edge7" class="edge">
<title>Node1&#45;&gt;Node8</title>
<path fill="none" stroke="#63b8ff" d="M1034.55,-46.5C1021.55,-46.5 1007.7,-46.5 994.3,-46.5"/>
<polygon fill="#63b8ff" stroke="#63b8ff" points="1034.77,-50 1044.77,-46.5 1034.77,-43 1034.77,-50"/>
</g>
<!-- Node9 -->
<g id="node9" class="node">
<title>Node9</title>
<g id="a_node9"><a xlink:href="namespaceImGui.html#a57adce5340eb73285ccf2c8bc81c92bf" target="_top" xlink:title=" ">
<polygon fill="white" stroke="#666666" points="980,-19 859,-19 859,0 980,0 980,-19"/>
<text text-anchor="middle" x="919.5" y="-7" font-family="Helvetica,sans-Serif" font-size="10.00">ImGui::TableFindByID</text>
</a>
</g>
</g>
<!-- Node1&#45;&gt;Node9 -->
<g id="edge8" class="edge">
<title>Node1&#45;&gt;Node9</title>
<path fill="none" stroke="#63b8ff" d="M1040.73,-34.85C1016.62,-29.77 988.71,-23.88 965.85,-19.06"/>
<polygon fill="#63b8ff" stroke="#63b8ff" points="1040.3,-38.33 1050.8,-36.97 1041.74,-31.48 1040.3,-38.33"/>
</g>
<!-- Node3 -->
<g id="node3" class="node">
<title>Node3</title>
<g id="a_node3"><a xlink:href="namespaceImGui.html#a5a15182dbd53ea7081397d1ad968bc79" target="_top" xlink:title=" ">
<polygon fill="white" stroke="#666666" points="794,-104.5 639,-104.5 639,-74.5 794,-74.5 794,-104.5"/>
<text text-anchor="start" x="647" y="-92.5" font-family="Helvetica,sans-Serif" font-size="10.00">ImGui::DockSettingsHandler</text>
<text text-anchor="middle" x="716.5" y="-81.5" font-family="Helvetica,sans-Serif" font-size="10.00">_ApplyAll</text>
</a>
</g>
</g>
<!-- Node2&#45;&gt;Node3 -->
<g id="edge2" class="edge">
<title>Node2&#45;&gt;Node3</title>
<path fill="none" stroke="#63b8ff" d="M819.69,-89.5C811.1,-89.5 802.49,-89.5 794.11,-89.5"/>
<polygon fill="#63b8ff" stroke="#63b8ff" points="819.75,-93 829.75,-89.5 819.75,-86 819.75,-93"/>
</g>
<!-- Node4 -->
<g id="node4" class="node">
<title>Node4</title>
<g id="a_node4"><a xlink:href="namespaceImGui.html#a3b7bcf876b64c28c4eb3868f79728499" target="_top" xlink:title=" ">
<polygon fill="white" stroke="#666666" points="603,-99 446,-99 446,-80 603,-80 603,-99"/>
<text text-anchor="middle" x="524.5" y="-87" font-family="Helvetica,sans-Serif" font-size="10.00">ImGui::DockContextInitialize</text>
</a>
</g>
</g>
<!-- Node3&#45;&gt;Node4 -->
<g id="edge3" class="edge">
<title>Node3&#45;&gt;Node4</title>
<path fill="none" stroke="#63b8ff" d="M628.51,-89.5C620.05,-89.5 611.5,-89.5 603.14,-89.5"/>
<polygon fill="#63b8ff" stroke="#63b8ff" points="628.77,-93 638.77,-89.5 628.77,-86 628.77,-93"/>
</g>
<!-- Node5 -->
<g id="node5" class="node">
<title>Node5</title>
<g id="a_node5"><a xlink:href="namespaceImGui.html#a1a611da38fae18a3d1dafcb3228259da" target="_top" xlink:title=" ">
<polygon fill="white" stroke="#666666" points="410,-99 316,-99 316,-80 410,-80 410,-99"/>
<text text-anchor="middle" x="363" y="-87" font-family="Helvetica,sans-Serif" font-size="10.00">ImGui::Initialize</text>
</a>
</g>
</g>
<!-- Node4&#45;&gt;Node5 -->
<g id="edge4" class="edge">
<title>Node4&#45;&gt;Node5</title>
<path fill="none" stroke="#63b8ff" d="M435.36,-89.5C426.64,-89.5 418.07,-89.5 410.05,-89.5"/>
<polygon fill="#63b8ff" stroke="#63b8ff" points="435.62,-93 445.62,-89.5 435.62,-86 435.62,-93"/>
</g>
<!-- Node6 -->
<g id="node6" class="node">
<title>Node6</title>
<g id="a_node6"><a xlink:href="namespaceImGui.html#a4ff6c9ad05a0eba37ce1b5ff1607810a" target="_top" xlink:title=" ">
<polygon fill="white" stroke="#666666" points="280,-99 158,-99 158,-80 280,-80 280,-99"/>
<text text-anchor="middle" x="219" y="-87" font-family="Helvetica,sans-Serif" font-size="10.00">ImGui::CreateContext</text>
</a>
</g>
</g>
<!-- Node5&#45;&gt;Node6 -->
<g id="edge5" class="edge">
<title>Node5&#45;&gt;Node6</title>
<path fill="none" stroke="#63b8ff" d="M305.78,-89.5C297.34,-89.5 288.61,-89.5 280.1,-89.5"/>
<polygon fill="#63b8ff" stroke="#63b8ff" points="305.9,-93 315.9,-89.5 305.9,-86 305.9,-93"/>
</g>
<!-- Node7 -->
<g id="node7" class="node">
<title>Node7</title>
<g id="a_node7"><a xlink:href="classmtgb_1_1ImGuiRenderer.html#a4db4a95a57f586a5fda30be1957f247a" target="_top" xlink:title=" ">
<polygon fill="white" stroke="#666666" points="122,-104.5 0,-104.5 0,-74.5 122,-74.5 122,-104.5"/>
<text text-anchor="start" x="8" y="-92.5" font-family="Helvetica,sans-Serif" font-size="10.00">mtgb::ImGuiRenderer</text>
<text text-anchor="middle" x="61" y="-81.5" font-family="Helvetica,sans-Serif" font-size="10.00">::Initialize</text>
</a>
</g>
</g>
<!-- Node6&#45;&gt;Node7 -->
<g id="edge6" class="edge">
<title>Node6&#45;&gt;Node7</title>
<path fill="none" stroke="#63b8ff" d="M147.46,-89.5C139.01,-89.5 130.44,-89.5 122.15,-89.5"/>
<polygon fill="#63b8ff" stroke="#63b8ff" points="147.69,-93 157.69,-89.5 147.69,-86 147.69,-93"/>
</g>
</g>
</svg>
