<?xml version="1.0" encoding="UTF-8" standalone="no"?>
<!DOCTYPE svg PUBLIC "-//W3C//DTD SVG 1.1//EN"
 "http://www.w3.org/Graphics/SVG/1.1/DTD/svg11.dtd">
<!-- Generated by graphviz version 2.43.0 (0)
 -->
<!-- Title: ImFont::ClearOutputData Pages: 1 -->
<svg width="1117pt" height="195pt"
 viewBox="0.00 0.00 1117.00 195.00" xmlns="http://www.w3.org/2000/svg" xmlns:xlink="http://www.w3.org/1999/xlink">
<g id="graph0" class="graph" transform="scale(1 1) rotate(0) translate(4 191)">
<title>ImFont::ClearOutputData</title>
<!-- Node1 -->
<g id="node1" class="node">
<title>Node1</title>
<g id="a_node1"><a xlink:title=" ">
<polygon fill="#999999" stroke="#666666" points="138,-130 0,-130 0,-111 138,-111 138,-130"/>
<text text-anchor="middle" x="69" y="-118" font-family="Helvetica,sans-Serif" font-size="10.00">ImFont::ClearOutputData</text>
</a>
</g>
</g>
<!-- Node2 -->
<g id="node2" class="node">
<title>Node2</title>
<g id="a_node2"><a xlink:href="imgui__draw_8cpp.html#a26822b1d734b4d10c08e64983024e600" target="_top" xlink:title=" ">
<polygon fill="white" stroke="#666666" points="336,-130 174,-130 174,-111 336,-111 336,-130"/>
<text text-anchor="middle" x="255" y="-118" font-family="Helvetica,sans-Serif" font-size="10.00">ImFontAtlasFontDiscardBakes</text>
</a>
</g>
</g>
<!-- Node1&#45;&gt;Node2 -->
<g id="edge1" class="edge">
<title>Node1&#45;&gt;Node2</title>
<path fill="none" stroke="#63b8ff" d="M138.25,-120.5C146.56,-120.5 155.14,-120.5 163.71,-120.5"/>
<polygon fill="#63b8ff" stroke="#63b8ff" points="163.73,-124 173.73,-120.5 163.73,-117 163.73,-124"/>
</g>
<!-- Node3 -->
<g id="node3" class="node">
<title>Node3</title>
<g id="a_node3"><a xlink:href="imgui__draw_8cpp.html#a5b545ff603b726dfe58fb1a673a19c11" target="_top" xlink:title=" ">
<polygon fill="white" stroke="#666666" points="514,-130 372,-130 372,-111 514,-111 514,-130"/>
<text text-anchor="middle" x="443" y="-118" font-family="Helvetica,sans-Serif" font-size="10.00">ImFontAtlasBakedDiscard</text>
</a>
</g>
</g>
<!-- Node2&#45;&gt;Node3 -->
<g id="edge2" class="edge">
<title>Node2&#45;&gt;Node3</title>
<path fill="none" stroke="#63b8ff" d="M336.23,-120.5C344.69,-120.5 353.29,-120.5 361.75,-120.5"/>
<polygon fill="#63b8ff" stroke="#63b8ff" points="361.97,-124 371.97,-120.5 361.97,-117 361.97,-124"/>
</g>
<!-- Node4 -->
<g id="node4" class="node">
<title>Node4</title>
<g id="a_node4"><a xlink:href="structImFontBaked.html#ab97e16ef7ce03a16d79bceffd409b762" target="_top" xlink:title=" ">
<polygon fill="white" stroke="#666666" points="718,-186 550,-186 550,-167 718,-167 718,-186"/>
<text text-anchor="middle" x="634" y="-174" font-family="Helvetica,sans-Serif" font-size="10.00">ImFontBaked::ClearOutputData</text>
</a>
</g>
</g>
<!-- Node3&#45;&gt;Node4 -->
<g id="edge3" class="edge">
<title>Node3&#45;&gt;Node4</title>
<path fill="none" stroke="#63b8ff" d="M467.71,-130.01C489,-138.3 521.24,-150.27 550,-158.5 557.76,-160.72 566,-162.82 574.15,-164.74"/>
<polygon fill="#63b8ff" stroke="#63b8ff" points="573.49,-168.18 584.02,-166.99 575.05,-161.35 573.49,-168.18"/>
</g>
<!-- Node6 -->
<g id="node6" class="node">
<title>Node6</title>
<g id="a_node6"><a xlink:href="structImFont.html#a51ebaa238a7efd72875b270cbd813590" target="_top" xlink:title=" ">
<polygon fill="white" stroke="#666666" points="701,-149 567,-149 567,-130 701,-130 701,-149"/>
<text text-anchor="middle" x="634" y="-137" font-family="Helvetica,sans-Serif" font-size="10.00">ImFont::GetDebugName</text>
</a>
</g>
</g>
<!-- Node3&#45;&gt;Node6 -->
<g id="edge5" class="edge">
<title>Node3&#45;&gt;Node6</title>
<path fill="none" stroke="#63b8ff" d="M514.11,-127.55C527.97,-128.94 542.59,-130.41 556.65,-131.82"/>
<polygon fill="#63b8ff" stroke="#63b8ff" points="556.47,-135.32 566.77,-132.84 557.17,-128.36 556.47,-135.32"/>
</g>
<!-- Node7 -->
<g id="node7" class="node">
<title>Node7</title>
<g id="a_node7"><a xlink:href="imgui__draw_8cpp.html#a53458cee397384163c40b3042561aa87" target="_top" xlink:title=" ">
<polygon fill="white" stroke="#666666" points="712,-112 556,-112 556,-93 712,-93 712,-112"/>
<text text-anchor="middle" x="634" y="-100" font-family="Helvetica,sans-Serif" font-size="10.00">ImFontAtlasPackDiscardRect</text>
</a>
</g>
</g>
<!-- Node3&#45;&gt;Node7 -->
<g id="edge6" class="edge">
<title>Node3&#45;&gt;Node7</title>
<path fill="none" stroke="#63b8ff" d="M514.11,-113.82C524.38,-112.84 535.06,-111.83 545.62,-110.82"/>
<polygon fill="#63b8ff" stroke="#63b8ff" points="546.07,-114.29 555.7,-109.86 545.41,-107.33 546.07,-114.29"/>
</g>
<!-- Node11 -->
<g id="node11" class="node">
<title>Node11</title>
<g id="a_node11"><a xlink:href="structImGuiStorage.html#a55f840086b3ec9cf63c67f02d159204a" target="_top" xlink:title=" ">
<polygon fill="white" stroke="#666666" points="704,-74 564,-74 564,-55 704,-55 704,-74"/>
<text text-anchor="middle" x="634" y="-62" font-family="Helvetica,sans-Serif" font-size="10.00">ImGuiStorage::SetVoidPtr</text>
</a>
</g>
</g>
<!-- Node3&#45;&gt;Node11 -->
<g id="edge11" class="edge">
<title>Node3&#45;&gt;Node11</title>
<path fill="none" stroke="#63b8ff" d="M469.93,-110.96C491.26,-103.28 522.37,-92.5 550,-84.5 559.72,-81.69 570.15,-78.95 580.23,-76.45"/>
<polygon fill="#63b8ff" stroke="#63b8ff" points="581.26,-79.8 590.15,-74.04 579.61,-73 581.26,-79.8"/>
</g>
<!-- Node5 -->
<g id="node5" class="node">
<title>Node5</title>
<g id="a_node5"><a xlink:href="structImVector.html#ae2d401b4ec5f1113cdb8edb5a61a38f7" target="_top" xlink:title=" ">
<polygon fill="white" stroke="#666666" points="867.5,-187 777.5,-187 777.5,-168 867.5,-168 867.5,-187"/>
<text text-anchor="middle" x="822.5" y="-175" font-family="Helvetica,sans-Serif" font-size="10.00">ImVector::clear</text>
</a>
</g>
</g>
<!-- Node4&#45;&gt;Node5 -->
<g id="edge4" class="edge">
<title>Node4&#45;&gt;Node5</title>
<path fill="none" stroke="#63b8ff" d="M718.16,-176.95C734.73,-177.03 751.74,-177.13 767.04,-177.21"/>
<polygon fill="#63b8ff" stroke="#63b8ff" points="767.32,-180.71 777.34,-177.26 767.36,-173.71 767.32,-180.71"/>
</g>
<!-- Node8 -->
<g id="node8" class="node">
<title>Node8</title>
<g id="a_node8"><a xlink:href="imgui__draw_8cpp.html#a0c336a0e5d743ff3c8d40351d125d1bb" target="_top" xlink:title=" ">
<polygon fill="white" stroke="#666666" points="891,-150 754,-150 754,-131 891,-131 891,-150"/>
<text text-anchor="middle" x="822.5" y="-138" font-family="Helvetica,sans-Serif" font-size="10.00">ImFontAtlasPackGetRect</text>
</a>
</g>
</g>
<!-- Node7&#45;&gt;Node8 -->
<g id="edge7" class="edge">
<title>Node7&#45;&gt;Node8</title>
<path fill="none" stroke="#63b8ff" d="M682.06,-112.09C707.23,-117.22 738.4,-123.57 764.88,-128.96"/>
<polygon fill="#63b8ff" stroke="#63b8ff" points="764.28,-132.41 774.78,-130.98 765.68,-125.55 764.28,-132.41"/>
</g>
<!-- Node10 -->
<g id="node10" class="node">
<title>Node10</title>
<g id="a_node10"><a xlink:href="imgui__internal_8h.html#aa98db9ab353d51f962cc6cfe7c39a9d2" target="_top" xlink:title=" ">
<polygon fill="white" stroke="#666666" points="1095.5,-112 940.5,-112 940.5,-93 1095.5,-93 1095.5,-112"/>
<text text-anchor="middle" x="1018" y="-100" font-family="Helvetica,sans-Serif" font-size="10.00">ImFontAtlasRectId_GetIndex</text>
</a>
</g>
</g>
<!-- Node7&#45;&gt;Node10 -->
<g id="edge10" class="edge">
<title>Node7&#45;&gt;Node10</title>
<path fill="none" stroke="#63b8ff" d="M712.3,-102.5C775.42,-102.5 864.58,-102.5 930.15,-102.5"/>
<polygon fill="#63b8ff" stroke="#63b8ff" points="930.46,-106 940.46,-102.5 930.46,-99 930.46,-106"/>
</g>
<!-- Node9 -->
<g id="node9" class="node">
<title>Node9</title>
<g id="a_node9"><a xlink:href="imgui__internal_8h.html#a6039a69a67990d53ef5ae5b1118c6b32" target="_top" xlink:title=" ">
<polygon fill="white" stroke="#666666" points="1109,-150 927,-150 927,-131 1109,-131 1109,-150"/>
<text text-anchor="middle" x="1018" y="-138" font-family="Helvetica,sans-Serif" font-size="10.00">ImFontAtlasRectId_GetGeneration</text>
</a>
</g>
</g>
<!-- Node8&#45;&gt;Node9 -->
<g id="edge8" class="edge">
<title>Node8&#45;&gt;Node9</title>
<path fill="none" stroke="#63b8ff" d="M891.18,-140.5C899.48,-140.5 908.1,-140.5 916.75,-140.5"/>
<polygon fill="#63b8ff" stroke="#63b8ff" points="916.92,-144 926.92,-140.5 916.92,-137 916.92,-144"/>
</g>
<!-- Node8&#45;&gt;Node10 -->
<g id="edge9" class="edge">
<title>Node8&#45;&gt;Node10</title>
<path fill="none" stroke="#63b8ff" d="M872.33,-130.91C898.55,-125.76 931.06,-119.38 958.62,-113.97"/>
<polygon fill="#63b8ff" stroke="#63b8ff" points="959.38,-117.38 968.52,-112.02 958.04,-110.51 959.38,-117.38"/>
</g>
<!-- Node12 -->
<g id="node12" class="node">
<title>Node12</title>
<g id="a_node12"><a xlink:href="imgui_8cpp.html#a409bfd6de574854cd644636ea13b6a8a" target="_top" xlink:title=" ">
<polygon fill="white" stroke="#666666" points="867,-74 778,-74 778,-55 867,-55 867,-74"/>
<text text-anchor="middle" x="822.5" y="-62" font-family="Helvetica,sans-Serif" font-size="10.00">ImLowerBound</text>
</a>
</g>
</g>
<!-- Node11&#45;&gt;Node12 -->
<g id="edge12" class="edge">
<title>Node11&#45;&gt;Node12</title>
<path fill="none" stroke="#63b8ff" d="M704.18,-64.5C725.19,-64.5 747.95,-64.5 767.78,-64.5"/>
<polygon fill="#63b8ff" stroke="#63b8ff" points="767.86,-68 777.86,-64.5 767.86,-61 767.86,-68"/>
</g>
<!-- Node13 -->
<g id="node13" class="node">
<title>Node13</title>
<g id="a_node13"><a xlink:href="structImVector.html#a541c8cd4b844f5276f10d160cb500533" target="_top" xlink:title=" ">
<polygon fill="white" stroke="#666666" points="869.5,-37 775.5,-37 775.5,-18 869.5,-18 869.5,-37"/>
<text text-anchor="middle" x="822.5" y="-25" font-family="Helvetica,sans-Serif" font-size="10.00">ImVector::insert</text>
</a>
</g>
</g>
<!-- Node11&#45;&gt;Node13 -->
<g id="edge13" class="edge">
<title>Node11&#45;&gt;Node13</title>
<path fill="none" stroke="#63b8ff" d="M683.03,-54.97C708.2,-49.98 739.17,-43.83 765.43,-38.62"/>
<polygon fill="#63b8ff" stroke="#63b8ff" points="766.12,-42.06 775.24,-36.68 764.75,-35.19 766.12,-42.06"/>
</g>
<!-- Node14 -->
<g id="node14" class="node">
<title>Node14</title>
<g id="a_node14"><a xlink:href="structImVector.html#a3a097635d464b1b70dc7d59996a88b28" target="_top" xlink:title=" ">
<polygon fill="white" stroke="#666666" points="1089,-56 947,-56 947,-37 1089,-37 1089,-56"/>
<text text-anchor="middle" x="1018" y="-44" font-family="Helvetica,sans-Serif" font-size="10.00">ImVector::_grow_capacity</text>
</a>
</g>
</g>
<!-- Node13&#45;&gt;Node14 -->
<g id="edge14" class="edge">
<title>Node13&#45;&gt;Node14</title>
<path fill="none" stroke="#63b8ff" d="M869.85,-32.05C889.91,-34.02 913.99,-36.38 936.8,-38.62"/>
<polygon fill="#63b8ff" stroke="#63b8ff" points="936.53,-42.12 946.82,-39.61 937.21,-35.15 936.53,-42.12"/>
</g>
<!-- Node15 -->
<g id="node15" class="node">
<title>Node15</title>
<g id="a_node15"><a xlink:href="structImVector.html#a0f14f5736c3372157856eebb67123b75" target="_top" xlink:title=" ">
<polygon fill="white" stroke="#666666" points="1069.5,-19 966.5,-19 966.5,0 1069.5,0 1069.5,-19"/>
<text text-anchor="middle" x="1018" y="-7" font-family="Helvetica,sans-Serif" font-size="10.00">ImVector::reserve</text>
</a>
</g>
</g>
<!-- Node13&#45;&gt;Node15 -->
<g id="edge15" class="edge">
<title>Node13&#45;&gt;Node15</title>
<path fill="none" stroke="#63b8ff" d="M869.85,-23.19C895.74,-20.78 928.31,-17.75 956.22,-15.15"/>
<polygon fill="#63b8ff" stroke="#63b8ff" points="956.64,-18.63 966.27,-14.22 955.99,-11.66 956.64,-18.63"/>
</g>
</g>
</svg>
