<?xml version="1.0" encoding="UTF-8" standalone="no"?>
<!DOCTYPE svg PUBLIC "-//W3C//DTD SVG 1.1//EN"
 "http://www.w3.org/Graphics/SVG/1.1/DTD/svg11.dtd">
<!-- Generated by graphviz version 2.43.0 (0)
 -->
<!-- Title: ImVector::find_erase_unsorted Pages: 1 -->
<svg width="301pt" height="64pt"
 viewBox="0.00 0.00 301.00 64.00" xmlns="http://www.w3.org/2000/svg" xmlns:xlink="http://www.w3.org/1999/xlink">
<g id="graph0" class="graph" transform="scale(1 1) rotate(0) translate(4 60)">
<title>ImVector::find_erase_unsorted</title>
<!-- Node1 -->
<g id="node1" class="node">
<title>Node1</title>
<g id="a_node1"><a xlink:title=" ">
<polygon fill="#999999" stroke="#666666" points="116,-42.5 0,-42.5 0,-12.5 116,-12.5 116,-42.5"/>
<text text-anchor="start" x="8" y="-30.5" font-family="Helvetica,sans-Serif" font-size="10.00">ImVector::find_erase</text>
<text text-anchor="middle" x="58" y="-19.5" font-family="Helvetica,sans-Serif" font-size="10.00">_unsorted</text>
</a>
</g>
</g>
<!-- Node2 -->
<g id="node2" class="node">
<title>Node2</title>
<g id="a_node2"><a xlink:href="structImVector.html#a87a4cae517c156b73823c5cd5e86378a" target="_top" xlink:title=" ">
<polygon fill="white" stroke="#666666" points="293,-56 152,-56 152,-37 293,-37 293,-56"/>
<text text-anchor="middle" x="222.5" y="-44" font-family="Helvetica,sans-Serif" font-size="10.00">ImVector::erase_unsorted</text>
</a>
</g>
</g>
<!-- Node1&#45;&gt;Node2 -->
<g id="edge1" class="edge">
<title>Node1&#45;&gt;Node2</title>
<path fill="none" stroke="#63b8ff" d="M116.29,-34.2C124.57,-35.17 133.21,-36.18 141.82,-37.18"/>
<polygon fill="#63b8ff" stroke="#63b8ff" points="141.56,-40.68 151.9,-38.36 142.38,-33.72 141.56,-40.68"/>
</g>
<!-- Node3 -->
<g id="node3" class="node">
<title>Node3</title>
<g id="a_node3"><a xlink:href="structImVector.html#a406417c3efef769d4bee47df2188831a" target="_top" xlink:title=" ">
<polygon fill="white" stroke="#666666" points="264.5,-19 180.5,-19 180.5,0 264.5,0 264.5,-19"/>
<text text-anchor="middle" x="222.5" y="-7" font-family="Helvetica,sans-Serif" font-size="10.00">ImVector::find</text>
</a>
</g>
</g>
<!-- Node1&#45;&gt;Node3 -->
<g id="edge2" class="edge">
<title>Node1&#45;&gt;Node3</title>
<path fill="none" stroke="#63b8ff" d="M116.29,-21.15C133.77,-19.22 152.88,-17.1 169.95,-15.21"/>
<polygon fill="#63b8ff" stroke="#63b8ff" points="170.73,-18.64 180.29,-14.06 169.96,-11.69 170.73,-18.64"/>
</g>
</g>
</svg>
