<?xml version="1.0" encoding="UTF-8" standalone="no"?>
<!DOCTYPE svg PUBLIC "-//W3C//DTD SVG 1.1//EN"
 "http://www.w3.org/Graphics/SVG/1.1/DTD/svg11.dtd">
<!-- Generated by graphviz version 2.43.0 (0)
 -->
<!-- Title: refl::runtime::detail::field_proxies&lt; Derived, type_list&lt; Members... &gt; &gt; Pages: 1 -->
<svg width="384pt" height="526pt"
 viewBox="0.00 0.00 383.50 526.00" xmlns="http://www.w3.org/2000/svg" xmlns:xlink="http://www.w3.org/1999/xlink">
<g id="graph0" class="graph" transform="scale(1 1) rotate(0) translate(4 522)">
<title>refl::runtime::detail::field_proxies&lt; Derived, type_list&lt; Members... &gt; &gt;</title>
<!-- Node1 -->
<g id="node1" class="node">
<title>Node1</title>
<g id="a_node1"><a xlink:title=" ">
<polygon fill="#999999" stroke="#666666" points="44,-0.5 44,-79.5 194,-79.5 194,-0.5 44,-0.5"/>
<text text-anchor="start" x="52" y="-67.5" font-family="Helvetica,sans-Serif" font-size="10.00">refl::runtime::detail</text>
<text text-anchor="start" x="52" y="-56.5" font-family="Helvetica,sans-Serif" font-size="10.00">::field_proxies&lt; Derived,</text>
<text text-anchor="middle" x="119" y="-45.5" font-family="Helvetica,sans-Serif" font-size="10.00"> type_list&lt; Members... &gt; &gt;</text>
<polyline fill="none" stroke="#666666" points="44,-38.5 194,-38.5 "/>
<text text-anchor="middle" x="119" y="-26.5" font-family="Helvetica,sans-Serif" font-size="10.00"> </text>
<polyline fill="none" stroke="#666666" points="44,-19.5 194,-19.5 "/>
<text text-anchor="middle" x="119" y="-7.5" font-family="Helvetica,sans-Serif" font-size="10.00"> </text>
</a>
</g>
</g>
<!-- Node2 -->
<g id="node2" class="node">
<title>Node2</title>
<g id="a_node2"><a xlink:href="structrefl_1_1runtime_1_1detail_1_1field__proxy.html" target="_top" xlink:title=" ">
<polygon fill="white" stroke="#666666" points="43.5,-117.5 43.5,-229.5 194.5,-229.5 194.5,-117.5 43.5,-117.5"/>
<text text-anchor="start" x="51.5" y="-217.5" font-family="Helvetica,sans-Serif" font-size="10.00">refl::runtime::detail</text>
<text text-anchor="start" x="51.5" y="-206.5" font-family="Helvetica,sans-Serif" font-size="10.00">::field_proxy&lt; Derived,</text>
<text text-anchor="middle" x="119" y="-195.5" font-family="Helvetica,sans-Serif" font-size="10.00"> Members &gt;</text>
<polyline fill="none" stroke="#666666" points="43.5,-188.5 194.5,-188.5 "/>
<text text-anchor="middle" x="119" y="-176.5" font-family="Helvetica,sans-Serif" font-size="10.00"> </text>
<polyline fill="none" stroke="#666666" points="43.5,-169.5 194.5,-169.5 "/>
<text text-anchor="start" x="51.5" y="-157.5" font-family="Helvetica,sans-Serif" font-size="10.00">+ field_proxy()</text>
<text text-anchor="start" x="51.5" y="-146.5" font-family="Helvetica,sans-Serif" font-size="10.00">+ static constexpr decltype</text>
<text text-anchor="start" x="51.5" y="-135.5" font-family="Helvetica,sans-Serif" font-size="10.00">(auto) invoke_impl(Self</text>
<text text-anchor="start" x="51.5" y="-124.5" font-family="Helvetica,sans-Serif" font-size="10.00"> &amp;&amp;self, Args &amp;&amp;... args)</text>
</a>
</g>
</g>
<!-- Node2&#45;&gt;Node1 -->
<g id="edge1" class="edge">
<title>Node2&#45;&gt;Node1</title>
<path fill="none" stroke="#63b8ff" d="M119,-107.32C119,-97.9 119,-88.47 119,-79.8"/>
<polygon fill="none" stroke="#63b8ff" points="115.5,-107.49 119,-117.49 122.5,-107.49 115.5,-107.49"/>
</g>
<!-- Node3 -->
<g id="node3" class="node">
<title>Node3</title>
<g id="a_node3"><a xlink:title=" ">
<polygon fill="white" stroke="#666666" points="0,-294 0,-373 206,-373 206,-294 0,-294"/>
<text text-anchor="start" x="8" y="-361" font-family="Helvetica,sans-Serif" font-size="10.00">get_member_info&lt; Members</text>
<text text-anchor="start" x="8" y="-350" font-family="Helvetica,sans-Serif" font-size="10.00"> &gt;::type::template remap</text>
<text text-anchor="middle" x="103" y="-339" font-family="Helvetica,sans-Serif" font-size="10.00">&lt; field_proxy&lt; Derived, Members &gt; &gt;</text>
<polyline fill="none" stroke="#666666" points="0,-332 206,-332 "/>
<text text-anchor="middle" x="103" y="-320" font-family="Helvetica,sans-Serif" font-size="10.00"> </text>
<polyline fill="none" stroke="#666666" points="0,-313 206,-313 "/>
<text text-anchor="middle" x="103" y="-301" font-family="Helvetica,sans-Serif" font-size="10.00"> </text>
</a>
</g>
</g>
<!-- Node3&#45;&gt;Node2 -->
<g id="edge2" class="edge">
<title>Node3&#45;&gt;Node2</title>
<path fill="none" stroke="#63b8ff" d="M107.96,-283.56C109.68,-266.51 111.63,-247.28 113.4,-229.76"/>
<polygon fill="none" stroke="#63b8ff" points="104.44,-283.55 106.91,-293.85 111.4,-284.25 104.44,-283.55"/>
</g>
<!-- Node4 -->
<g id="node4" class="node">
<title>Node4</title>
<g id="a_node4"><a xlink:href="structrefl_1_1runtime_1_1detail_1_1field__proxy.html" target="_top" xlink:title=" ">
<polygon fill="white" stroke="#666666" points="224.5,-277.5 224.5,-389.5 375.5,-389.5 375.5,-277.5 224.5,-277.5"/>
<text text-anchor="start" x="232.5" y="-377.5" font-family="Helvetica,sans-Serif" font-size="10.00">refl::runtime::detail</text>
<text text-anchor="start" x="232.5" y="-366.5" font-family="Helvetica,sans-Serif" font-size="10.00">::field_proxy&lt; Derived,</text>
<text text-anchor="middle" x="300" y="-355.5" font-family="Helvetica,sans-Serif" font-size="10.00"> Field &gt;</text>
<polyline fill="none" stroke="#666666" points="224.5,-348.5 375.5,-348.5 "/>
<text text-anchor="middle" x="300" y="-336.5" font-family="Helvetica,sans-Serif" font-size="10.00"> </text>
<polyline fill="none" stroke="#666666" points="224.5,-329.5 375.5,-329.5 "/>
<text text-anchor="start" x="232.5" y="-317.5" font-family="Helvetica,sans-Serif" font-size="10.00">+ field_proxy()</text>
<text text-anchor="start" x="232.5" y="-306.5" font-family="Helvetica,sans-Serif" font-size="10.00">+ static constexpr decltype</text>
<text text-anchor="start" x="232.5" y="-295.5" font-family="Helvetica,sans-Serif" font-size="10.00">(auto) invoke_impl(Self</text>
<text text-anchor="start" x="232.5" y="-284.5" font-family="Helvetica,sans-Serif" font-size="10.00"> &amp;&amp;self, Args &amp;&amp;... args)</text>
</a>
</g>
</g>
<!-- Node4&#45;&gt;Node2 -->
<g id="edge3" class="edge">
<title>Node4&#45;&gt;Node2</title>
<path fill="none" stroke="orange" d="M229.38,-270.85C213.8,-257.25 197.39,-242.93 182.13,-229.61"/>
<polygon fill="orange" stroke="orange" points="227.11,-273.52 236.95,-277.46 231.72,-268.25 227.11,-273.52"/>
<text text-anchor="middle" x="272" y="-251" font-family="Helvetica,sans-Serif" font-size="10.00"> &lt; Derived, Members &gt;</text>
</g>
<!-- Node5 -->
<g id="node5" class="node">
<title>Node5</title>
<g id="a_node5"><a xlink:title=" ">
<polygon fill="white" stroke="#666666" points="230,-427.5 230,-517.5 370,-517.5 370,-427.5 230,-427.5"/>
<text text-anchor="start" x="238" y="-505.5" font-family="Helvetica,sans-Serif" font-size="10.00">get_member_info&lt; Field</text>
<text text-anchor="start" x="238" y="-494.5" font-family="Helvetica,sans-Serif" font-size="10.00"> &gt;::type::template remap</text>
<text text-anchor="start" x="238" y="-483.5" font-family="Helvetica,sans-Serif" font-size="10.00">&lt; field_proxy&lt; Derived,</text>
<text text-anchor="middle" x="300" y="-472.5" font-family="Helvetica,sans-Serif" font-size="10.00"> Field &gt; &gt;</text>
<polyline fill="none" stroke="#666666" points="230,-465.5 370,-465.5 "/>
<text text-anchor="middle" x="300" y="-453.5" font-family="Helvetica,sans-Serif" font-size="10.00"> </text>
<polyline fill="none" stroke="#666666" points="230,-446.5 370,-446.5 "/>
<text text-anchor="middle" x="300" y="-434.5" font-family="Helvetica,sans-Serif" font-size="10.00"> </text>
</a>
</g>
</g>
<!-- Node5&#45;&gt;Node4 -->
<g id="edge4" class="edge">
<title>Node5&#45;&gt;Node4</title>
<path fill="none" stroke="#63b8ff" d="M300,-417.29C300,-408.18 300,-398.71 300,-389.57"/>
<polygon fill="none" stroke="#63b8ff" points="296.5,-417.4 300,-427.4 303.5,-417.4 296.5,-417.4"/>
</g>
</g>
</svg>
