<?xml version="1.0" encoding="UTF-8" standalone="no"?>
<!DOCTYPE svg PUBLIC "-//W3C//DTD SVG 1.1//EN"
 "http://www.w3.org/Graphics/SVG/1.1/DTD/svg11.dtd">
<!-- Generated by graphviz version 2.43.0 (0)
 -->
<!-- Title: IMGUIZMO_NAMESPACE::matrix_t::OrthoNormalize Pages: 1 -->
<svg width="546pt" height="188pt"
 viewBox="0.00 0.00 546.00 188.00" xmlns="http://www.w3.org/2000/svg" xmlns:xlink="http://www.w3.org/1999/xlink">
<g id="graph0" class="graph" transform="scale(1 1) rotate(0) translate(4 184)">
<title>IMGUIZMO_NAMESPACE::matrix_t::OrthoNormalize</title>
<!-- Node1 -->
<g id="node1" class="node">
<title>Node1</title>
<g id="a_node1"><a xlink:title=" ">
<polygon fill="#999999" stroke="#666666" points="538,-96 391,-96 391,-66 538,-66 538,-96"/>
<text text-anchor="start" x="399" y="-84" font-family="Helvetica,sans-Serif" font-size="10.00">IMGUIZMO_NAMESPACE</text>
<text text-anchor="middle" x="464.5" y="-73" font-family="Helvetica,sans-Serif" font-size="10.00">::matrix_t::OrthoNormalize</text>
</a>
</g>
</g>
<!-- Node2 -->
<g id="node2" class="node">
<title>Node2</title>
<g id="a_node2"><a xlink:href="namespaceIMGUIZMO__NAMESPACE.html#a7cc7533ff750257db246ff8b9d161295" target="_top" xlink:title=" ">
<polygon fill="white" stroke="#666666" points="330.5,-162 195.5,-162 195.5,-132 330.5,-132 330.5,-162"/>
<text text-anchor="start" x="203.5" y="-150" font-family="Helvetica,sans-Serif" font-size="10.00">IMGUIZMO_NAMESPACE</text>
<text text-anchor="middle" x="263" y="-139" font-family="Helvetica,sans-Serif" font-size="10.00">::ComputeContext</text>
</a>
</g>
</g>
<!-- Node1&#45;&gt;Node2 -->
<g id="edge1" class="edge">
<title>Node1&#45;&gt;Node2</title>
<path fill="none" stroke="#63b8ff" d="M418.24,-99.82C398.93,-107.51 376.04,-116.18 355,-123 345.36,-126.12 335.06,-129.14 324.97,-131.93"/>
<polygon fill="#63b8ff" stroke="#63b8ff" points="419.72,-102.99 427.7,-96.02 417.11,-96.5 419.72,-102.99"/>
</g>
<!-- Node5 -->
<g id="node5" class="node">
<title>Node5</title>
<g id="a_node5"><a xlink:href="namespaceIMGUIZMO__NAMESPACE.html#ac30fce8d950790571ea13a08297c9f03" target="_top" xlink:title=" ">
<polygon fill="white" stroke="#666666" points="355,-96 171,-96 171,-66 355,-66 355,-96"/>
<text text-anchor="start" x="179" y="-84" font-family="Helvetica,sans-Serif" font-size="10.00">IMGUIZMO_NAMESPACE</text>
<text text-anchor="middle" x="263" y="-73" font-family="Helvetica,sans-Serif" font-size="10.00">::DecomposeMatrixToComponents</text>
</a>
</g>
</g>
<!-- Node1&#45;&gt;Node5 -->
<g id="edge7" class="edge">
<title>Node1&#45;&gt;Node5</title>
<path fill="none" stroke="#63b8ff" d="M380.75,-81C372.33,-81 363.75,-81 355.26,-81"/>
<polygon fill="#63b8ff" stroke="#63b8ff" points="380.91,-84.5 390.91,-81 380.91,-77.5 380.91,-84.5"/>
</g>
<!-- Node6 -->
<g id="node6" class="node">
<title>Node6</title>
<g id="a_node6"><a xlink:href="namespaceIMGUIZMO__NAMESPACE.html#a4ff973907013d81cd6b9ec8bdfd78e8c" target="_top" xlink:title=" ">
<polygon fill="white" stroke="#666666" points="330.5,-30 195.5,-30 195.5,0 330.5,0 330.5,-30"/>
<text text-anchor="start" x="203.5" y="-18" font-family="Helvetica,sans-Serif" font-size="10.00">IMGUIZMO_NAMESPACE</text>
<text text-anchor="middle" x="263" y="-7" font-family="Helvetica,sans-Serif" font-size="10.00">::HandleTranslation</text>
</a>
</g>
</g>
<!-- Node1&#45;&gt;Node6 -->
<g id="edge9" class="edge">
<title>Node1&#45;&gt;Node6</title>
<path fill="none" stroke="#63b8ff" d="M407.94,-62.62C376.93,-52.36 338.79,-39.74 309.56,-30.07"/>
<polygon fill="#63b8ff" stroke="#63b8ff" points="407.14,-66.04 417.73,-65.86 409.34,-59.39 407.14,-66.04"/>
</g>
<!-- Node2&#45;&gt;Node2 -->
<g id="edge2" class="edge">
<title>Node2&#45;&gt;Node2</title>
<path fill="none" stroke="#63b8ff" d="M296.96,-172.6C292.32,-176.97 281,-180 263,-180 232.69,-180 221.32,-171.41 228.9,-162.28"/>
<polygon fill="#63b8ff" stroke="#63b8ff" points="300.46,-172.32 297.1,-162.28 293.46,-172.23 300.46,-172.32"/>
</g>
<!-- Node3 -->
<g id="node3" class="node">
<title>Node3</title>
<g id="a_node3"><a xlink:href="namespaceIMGUIZMO__NAMESPACE.html#a77d9f13c118607e6ae36dfbc8904482d" target="_top" xlink:title=" ">
<polygon fill="white" stroke="#666666" points="135,-63 0,-63 0,-33 135,-33 135,-63"/>
<text text-anchor="start" x="8" y="-51" font-family="Helvetica,sans-Serif" font-size="10.00">IMGUIZMO_NAMESPACE</text>
<text text-anchor="middle" x="67.5" y="-40" font-family="Helvetica,sans-Serif" font-size="10.00">::Manipulate</text>
</a>
</g>
</g>
<!-- Node2&#45;&gt;Node3 -->
<g id="edge3" class="edge">
<title>Node2&#45;&gt;Node3</title>
<path fill="none" stroke="#63b8ff" d="M185.6,-129.14C180.58,-127.27 175.67,-125.23 171,-123 137.76,-107.16 104.27,-80.07 85,-63.15"/>
<polygon fill="#63b8ff" stroke="#63b8ff" points="184.75,-132.55 195.35,-132.53 187.05,-125.94 184.75,-132.55"/>
</g>
<!-- Node4 -->
<g id="node4" class="node">
<title>Node4</title>
<g id="a_node4"><a xlink:href="namespaceIMGUIZMO__NAMESPACE.html#a6464b670b0b83ef0265842921c13d4b0" target="_top" xlink:title=" ">
<polygon fill="white" stroke="#666666" points="135,-162 0,-162 0,-132 135,-132 135,-162"/>
<text text-anchor="start" x="8" y="-150" font-family="Helvetica,sans-Serif" font-size="10.00">IMGUIZMO_NAMESPACE</text>
<text text-anchor="middle" x="67.5" y="-139" font-family="Helvetica,sans-Serif" font-size="10.00">::ViewManipulate</text>
</a>
</g>
</g>
<!-- Node2&#45;&gt;Node4 -->
<g id="edge5" class="edge">
<title>Node2&#45;&gt;Node4</title>
<path fill="none" stroke="#63b8ff" d="M185.23,-147C168.69,-147 151.34,-147 135.21,-147"/>
<polygon fill="#63b8ff" stroke="#63b8ff" points="185.41,-150.5 195.41,-147 185.41,-143.5 185.41,-150.5"/>
</g>
<!-- Node3&#45;&gt;Node3 -->
<g id="edge4" class="edge">
<title>Node3&#45;&gt;Node3</title>
<path fill="none" stroke="#63b8ff" d="M101.46,-73.6C96.82,-77.97 85.5,-81 67.5,-81 37.19,-81 25.82,-72.41 33.4,-63.28"/>
<polygon fill="#63b8ff" stroke="#63b8ff" points="104.96,-73.32 101.6,-63.28 97.96,-73.23 104.96,-73.32"/>
</g>
<!-- Node4&#45;&gt;Node4 -->
<g id="edge6" class="edge">
<title>Node4&#45;&gt;Node4</title>
<path fill="none" stroke="#63b8ff" d="M101.46,-172.6C96.82,-176.97 85.5,-180 67.5,-180 37.19,-180 25.82,-171.41 33.4,-162.28"/>
<polygon fill="#63b8ff" stroke="#63b8ff" points="104.96,-172.32 101.6,-162.28 97.96,-172.23 104.96,-172.32"/>
</g>
<!-- Node5&#45;&gt;Node5 -->
<g id="edge8" class="edge">
<title>Node5&#45;&gt;Node5</title>
<path fill="none" stroke="#63b8ff" d="M296.96,-106.6C292.32,-110.97 281,-114 263,-114 232.69,-114 221.32,-105.41 228.9,-96.28"/>
<polygon fill="#63b8ff" stroke="#63b8ff" points="300.46,-106.32 297.1,-96.28 293.46,-106.23 300.46,-106.32"/>
</g>
<!-- Node6&#45;&gt;Node3 -->
<g id="edge11" class="edge">
<title>Node6&#45;&gt;Node3</title>
<path fill="none" stroke="#63b8ff" d="M185.23,-28.09C168.69,-30.91 151.34,-33.87 135.21,-36.62"/>
<polygon fill="#63b8ff" stroke="#63b8ff" points="186.14,-31.49 195.41,-26.36 184.96,-24.59 186.14,-31.49"/>
</g>
<!-- Node6&#45;&gt;Node6 -->
<g id="edge10" class="edge">
<title>Node6&#45;&gt;Node6</title>
<path fill="none" stroke="#63b8ff" d="M296.96,-40.6C292.32,-44.97 281,-48 263,-48 232.69,-48 221.32,-39.41 228.9,-30.28"/>
<polygon fill="#63b8ff" stroke="#63b8ff" points="300.46,-40.32 297.1,-30.28 293.46,-40.23 300.46,-40.32"/>
</g>
</g>
</svg>
