<?xml version="1.0" encoding="UTF-8" standalone="no"?>
<!DOCTYPE svg PUBLIC "-//W3C//DTD SVG 1.1//EN"
 "http://www.w3.org/Graphics/SVG/1.1/DTD/svg11.dtd">
<!-- Generated by graphviz version 2.43.0 (0)
 -->
<!-- Title: ImGuiDemoWindowData::~ImGuiDemoWindowData Pages: 1 -->
<svg width="755pt" height="51pt"
 viewBox="0.00 0.00 755.00 50.50" xmlns="http://www.w3.org/2000/svg" xmlns:xlink="http://www.w3.org/1999/xlink">
<g id="graph0" class="graph" transform="scale(1 1) rotate(0) translate(4 46.5)">
<title>ImGuiDemoWindowData::~ImGuiDemoWindowData</title>
<!-- Node1 -->
<g id="node1" class="node">
<title>Node1</title>
<g id="a_node1"><a xlink:title=" ">
<polygon fill="#999999" stroke="#666666" points="152,-30 0,-30 0,0 152,0 152,-30"/>
<text text-anchor="start" x="8" y="-18" font-family="Helvetica,sans-Serif" font-size="10.00">ImGuiDemoWindowData</text>
<text text-anchor="middle" x="76" y="-7" font-family="Helvetica,sans-Serif" font-size="10.00">::~ImGuiDemoWindowData</text>
</a>
</g>
</g>
<!-- Node2 -->
<g id="node2" class="node">
<title>Node2</title>
<g id="a_node2"><a xlink:href="imgui__demo_8cpp.html#a076dfb18db412cdcec12e3e99d569610" target="_top" xlink:title=" ">
<polygon fill="white" stroke="#666666" points="337,-24.5 188,-24.5 188,-5.5 337,-5.5 337,-24.5"/>
<text text-anchor="middle" x="262.5" y="-12.5" font-family="Helvetica,sans-Serif" font-size="10.00">ExampleTree_DestroyNode</text>
</a>
</g>
</g>
<!-- Node1&#45;&gt;Node2 -->
<g id="edge1" class="edge">
<title>Node1&#45;&gt;Node2</title>
<path fill="none" stroke="#63b8ff" d="M152.04,-15C160.41,-15 168.98,-15 177.45,-15"/>
<polygon fill="#63b8ff" stroke="#63b8ff" points="177.72,-18.5 187.72,-15 177.72,-11.5 177.72,-18.5"/>
</g>
<!-- Node2&#45;&gt;Node2 -->
<g id="edge2" class="edge">
<title>Node2&#45;&gt;Node2</title>
<path fill="none" stroke="#63b8ff" d="M240,-24.58C229.05,-33.23 236.55,-42.5 262.5,-42.5 279.12,-42.5 288.18,-38.7 289.66,-33.69"/>
<polygon fill="#63b8ff" stroke="#63b8ff" points="292.67,-31.89 285,-24.58 286.44,-35.08 292.67,-31.89"/>
</g>
<!-- Node3 -->
<g id="node3" class="node">
<title>Node3</title>
<g id="a_node3"><a xlink:href="imgui_8h.html#a3c856832c3fe1da8767a9353da3707e1" target="_top" xlink:title=" ">
<polygon fill="white" stroke="#666666" points="444,-24.5 373,-24.5 373,-5.5 444,-5.5 444,-24.5"/>
<text text-anchor="middle" x="408.5" y="-12.5" font-family="Helvetica,sans-Serif" font-size="10.00">IM_DELETE</text>
</a>
</g>
</g>
<!-- Node2&#45;&gt;Node3 -->
<g id="edge3" class="edge">
<title>Node2&#45;&gt;Node3</title>
<path fill="none" stroke="#63b8ff" d="M337.19,-15C345.95,-15 354.67,-15 362.84,-15"/>
<polygon fill="#63b8ff" stroke="#63b8ff" points="362.86,-18.5 372.86,-15 362.86,-11.5 362.86,-18.5"/>
</g>
<!-- Node4 -->
<g id="node4" class="node">
<title>Node4</title>
<g id="a_node4"><a xlink:href="namespaceImGui.html#a269ec695c6e722ec3da85dae37f0675d" target="_top" xlink:title=" ">
<polygon fill="white" stroke="#666666" points="578,-24.5 480,-24.5 480,-5.5 578,-5.5 578,-24.5"/>
<text text-anchor="middle" x="529" y="-12.5" font-family="Helvetica,sans-Serif" font-size="10.00">ImGui::MemFree</text>
</a>
</g>
</g>
<!-- Node3&#45;&gt;Node4 -->
<g id="edge4" class="edge">
<title>Node3&#45;&gt;Node4</title>
<path fill="none" stroke="#63b8ff" d="M444.09,-15C452.15,-15 460.94,-15 469.7,-15"/>
<polygon fill="#63b8ff" stroke="#63b8ff" points="469.93,-18.5 479.93,-15 469.93,-11.5 469.93,-18.5"/>
</g>
<!-- Node5 -->
<g id="node5" class="node">
<title>Node5</title>
<g id="a_node5"><a xlink:href="namespaceImGui.html#af81dc8d88fa2e5d0996163993f90ccf8" target="_top" xlink:title=" ">
<polygon fill="white" stroke="#666666" points="747,-24.5 614,-24.5 614,-5.5 747,-5.5 747,-24.5"/>
<text text-anchor="middle" x="680.5" y="-12.5" font-family="Helvetica,sans-Serif" font-size="10.00">ImGui::DebugAllocHook</text>
</a>
</g>
</g>
<!-- Node4&#45;&gt;Node5 -->
<g id="edge5" class="edge">
<title>Node4&#45;&gt;Node5</title>
<path fill="none" stroke="#63b8ff" d="M578.13,-15C586.29,-15 594.93,-15 603.6,-15"/>
<polygon fill="#63b8ff" stroke="#63b8ff" points="603.76,-18.5 613.76,-15 603.76,-11.5 603.76,-18.5"/>
</g>
</g>
</svg>
