<?xml version="1.0" encoding="UTF-8" standalone="no"?>
<!DOCTYPE svg PUBLIC "-//W3C//DTD SVG 1.1//EN"
 "http://www.w3.org/Graphics/SVG/1.1/DTD/svg11.dtd">
<!-- Generated by graphviz version 2.43.0 (0)
 -->
<!-- Title: Effekseer::FixedSizeVector::get_hash Pages: 1 -->
<svg width="350pt" height="76pt"
 viewBox="0.00 0.00 350.00 75.50" xmlns="http://www.w3.org/2000/svg" xmlns:xlink="http://www.w3.org/1999/xlink">
<g id="graph0" class="graph" transform="scale(1 1) rotate(0) translate(4 71.5)">
<title>Effekseer::FixedSizeVector::get_hash</title>
<!-- Node1 -->
<g id="node1" class="node">
<title>Node1</title>
<g id="a_node1"><a xlink:title=" ">
<polygon fill="#999999" stroke="#666666" points="145,-51 0,-51 0,-21 145,-21 145,-51"/>
<text text-anchor="start" x="8" y="-39" font-family="Helvetica,sans-Serif" font-size="10.00">Effekseer::FixedSizeVector</text>
<text text-anchor="middle" x="72.5" y="-28" font-family="Helvetica,sans-Serif" font-size="10.00">::get_hash</text>
</a>
</g>
</g>
<!-- Node2 -->
<g id="node2" class="node">
<title>Node2</title>
<g id="a_node2"><a xlink:href="structEffekseer_1_1FixedSizeVector.html#aad255467f3b26a2c7f3ef76495d3247c" target="_top" xlink:title=" ">
<polygon fill="white" stroke="#666666" points="342,-67.5 181,-67.5 181,-48.5 342,-48.5 342,-67.5"/>
<text text-anchor="middle" x="261.5" y="-55.5" font-family="Helvetica,sans-Serif" font-size="10.00">Effekseer::FixedSizeVector::at</text>
</a>
</g>
</g>
<!-- Node1&#45;&gt;Node2 -->
<g id="edge1" class="edge">
<title>Node1&#45;&gt;Node2</title>
<path fill="none" stroke="#63b8ff" d="M145.26,-44.44C153.63,-45.43 162.24,-46.44 170.81,-47.45"/>
<polygon fill="#63b8ff" stroke="#63b8ff" points="170.49,-50.93 180.83,-48.63 171.31,-43.98 170.49,-50.93"/>
</g>
<!-- Node3 -->
<g id="node3" class="node">
<title>Node3</title>
<g id="a_node3"><a xlink:href="structEffekseer_1_1FixedSizeVector.html#a9d7818b0152c502594a42fbadb549bd7" target="_top" xlink:title=" ">
<polygon fill="white" stroke="#666666" points="334,-30 189,-30 189,0 334,0 334,-30"/>
<text text-anchor="start" x="197" y="-18" font-family="Helvetica,sans-Serif" font-size="10.00">Effekseer::FixedSizeVector</text>
<text text-anchor="middle" x="261.5" y="-7" font-family="Helvetica,sans-Serif" font-size="10.00">::size</text>
</a>
</g>
</g>
<!-- Node1&#45;&gt;Node3 -->
<g id="edge2" class="edge">
<title>Node1&#45;&gt;Node3</title>
<path fill="none" stroke="#63b8ff" d="M145.26,-27.94C156.23,-26.71 167.61,-25.43 178.76,-24.18"/>
<polygon fill="#63b8ff" stroke="#63b8ff" points="179.38,-27.63 188.93,-23.04 178.6,-20.68 179.38,-27.63"/>
</g>
</g>
</svg>
