<?xml version="1.0" encoding="UTF-8" standalone="no"?>
<!DOCTYPE svg PUBLIC "-//W3C//DTD SVG 1.1//EN"
 "http://www.w3.org/Graphics/SVG/1.1/DTD/svg11.dtd">
<!-- Generated by graphviz version 2.43.0 (0)
 -->
<!-- Title: ImDrawList::PathArcToFast Pages: 1 -->
<svg width="720pt" height="187pt"
 viewBox="0.00 0.00 720.00 187.00" xmlns="http://www.w3.org/2000/svg" xmlns:xlink="http://www.w3.org/1999/xlink">
<g id="graph0" class="graph" transform="scale(1 1) rotate(0) translate(4 183)">
<title>ImDrawList::PathArcToFast</title>
<!-- Node1 -->
<g id="node1" class="node">
<title>Node1</title>
<g id="a_node1"><a xlink:title=" ">
<polygon fill="#999999" stroke="#666666" points="145,-142 0,-142 0,-123 145,-123 145,-142"/>
<text text-anchor="middle" x="72.5" y="-130" font-family="Helvetica,sans-Serif" font-size="10.00">ImDrawList::PathArcToFast</text>
</a>
</g>
</g>
<!-- Node2 -->
<g id="node2" class="node">
<title>Node2</title>
<g id="a_node2"><a xlink:href="structImDrawList.html#ac25f3a7693ed13ba2dac455675be8654" target="_top" xlink:title=" ">
<polygon fill="white" stroke="#666666" points="343,-123 181,-123 181,-104 343,-104 343,-123"/>
<text text-anchor="middle" x="262" y="-111" font-family="Helvetica,sans-Serif" font-size="10.00">ImDrawList::_PathArcToFastEx</text>
</a>
</g>
</g>
<!-- Node1&#45;&gt;Node2 -->
<g id="edge1" class="edge">
<title>Node1&#45;&gt;Node2</title>
<path fill="none" stroke="#63b8ff" d="M145.19,-125.24C153.58,-124.38 162.23,-123.51 170.84,-122.64"/>
<polygon fill="#63b8ff" stroke="#63b8ff" points="171.31,-126.11 180.91,-121.62 170.6,-119.14 171.31,-126.11"/>
</g>
<!-- Node6 -->
<g id="node6" class="node">
<title>Node6</title>
<g id="a_node6"><a xlink:href="structImVector.html#aab5df48e0711a48bd12f3206e08c4108" target="_top" xlink:title=" ">
<polygon fill="white" stroke="#666666" points="515.5,-179 397.5,-179 397.5,-160 515.5,-160 515.5,-179"/>
<text text-anchor="middle" x="456.5" y="-167" font-family="Helvetica,sans-Serif" font-size="10.00">ImVector::push_back</text>
</a>
</g>
</g>
<!-- Node1&#45;&gt;Node6 -->
<g id="edge11" class="edge">
<title>Node1&#45;&gt;Node6</title>
<path fill="none" stroke="#63b8ff" d="M145.35,-139.46C214.73,-146.18 319.04,-156.28 387.2,-162.88"/>
<polygon fill="#63b8ff" stroke="#63b8ff" points="387.11,-166.39 397.4,-163.87 387.78,-159.42 387.11,-166.39"/>
</g>
<!-- Node3 -->
<g id="node3" class="node">
<title>Node3</title>
<g id="a_node3"><a xlink:href="structImDrawList.html#a52afa32aaab6d581cda90dc5d8726ed6" target="_top" xlink:title=" ">
<polygon fill="white" stroke="#666666" points="534,-67.5 379,-67.5 379,-37.5 534,-37.5 534,-67.5"/>
<text text-anchor="start" x="387" y="-55.5" font-family="Helvetica,sans-Serif" font-size="10.00">ImDrawList::_CalcCircleAuto</text>
<text text-anchor="middle" x="456.5" y="-44.5" font-family="Helvetica,sans-Serif" font-size="10.00">SegmentCount</text>
</a>
</g>
</g>
<!-- Node2&#45;&gt;Node3 -->
<g id="edge2" class="edge">
<title>Node2&#45;&gt;Node3</title>
<path fill="none" stroke="#63b8ff" d="M293.03,-103.88C316.44,-96.39 349.78,-85.74 379,-76.5 385.01,-74.6 391.29,-72.62 397.55,-70.65"/>
<polygon fill="#63b8ff" stroke="#63b8ff" points="398.85,-73.91 407.34,-67.57 396.75,-67.23 398.85,-73.91"/>
</g>
<!-- Node4 -->
<g id="node4" class="node">
<title>Node4</title>
<g id="a_node4"><a xlink:href="imgui__internal_8h.html#aab329ad3ecb3ffc0bf9183d9edb144bb" target="_top" xlink:title=" ">
<polygon fill="white" stroke="#666666" points="480,-19 433,-19 433,0 480,0 480,-19"/>
<text text-anchor="middle" x="456.5" y="-7" font-family="Helvetica,sans-Serif" font-size="10.00">ImAbs</text>
</a>
</g>
</g>
<!-- Node2&#45;&gt;Node4 -->
<g id="edge3" class="edge">
<title>Node2&#45;&gt;Node4</title>
<path fill="none" stroke="#63b8ff" d="M273.28,-103.75C292.5,-86.08 335.81,-48.72 379,-28.5 392.73,-22.07 408.9,-17.65 422.83,-14.7"/>
<polygon fill="#63b8ff" stroke="#63b8ff" points="423.82,-18.07 432.96,-12.72 422.48,-11.2 423.82,-18.07"/>
</g>
<!-- Node5 -->
<g id="node5" class="node">
<title>Node5</title>
<g id="a_node5"><a xlink:href="imgui__internal_8h.html#a6e61ede308bfd68c7434e17905a29fc8" target="_top" xlink:title=" ">
<polygon fill="white" stroke="#666666" points="487,-105 426,-105 426,-86 487,-86 487,-105"/>
<text text-anchor="middle" x="456.5" y="-93" font-family="Helvetica,sans-Serif" font-size="10.00">ImClamp</text>
</a>
</g>
</g>
<!-- Node2&#45;&gt;Node5 -->
<g id="edge4" class="edge">
<title>Node2&#45;&gt;Node5</title>
<path fill="none" stroke="#63b8ff" d="M343.24,-106C368.31,-103.65 394.86,-101.17 415.85,-99.21"/>
<polygon fill="#63b8ff" stroke="#63b8ff" points="416.34,-102.68 425.97,-98.26 415.69,-95.71 416.34,-102.68"/>
</g>
<!-- Node2&#45;&gt;Node6 -->
<g id="edge5" class="edge">
<title>Node2&#45;&gt;Node6</title>
<path fill="none" stroke="#63b8ff" d="M291.45,-123.15C314.83,-130.94 348.9,-141.97 379,-150.5 387.42,-152.89 396.4,-155.26 405.15,-157.49"/>
<polygon fill="#63b8ff" stroke="#63b8ff" points="404.32,-160.89 414.87,-159.93 406.03,-154.1 404.32,-160.89"/>
</g>
<!-- Node9 -->
<g id="node9" class="node">
<title>Node9</title>
<g id="a_node9"><a xlink:href="structImVector.html#ac371dd62e56ae486b1a5038cf07eee56" target="_top" xlink:title=" ">
<polygon fill="white" stroke="#666666" points="504,-142 409,-142 409,-123 504,-123 504,-142"/>
<text text-anchor="middle" x="456.5" y="-130" font-family="Helvetica,sans-Serif" font-size="10.00">ImVector::resize</text>
</a>
</g>
</g>
<!-- Node2&#45;&gt;Node9 -->
<g id="edge8" class="edge">
<title>Node2&#45;&gt;Node9</title>
<path fill="none" stroke="#63b8ff" d="M343.24,-121.42C361.96,-123.27 381.5,-125.2 398.94,-126.92"/>
<polygon fill="#63b8ff" stroke="#63b8ff" points="398.64,-130.41 408.94,-127.9 399.33,-123.44 398.64,-130.41"/>
</g>
<!-- Node7 -->
<g id="node7" class="node">
<title>Node7</title>
<g id="a_node7"><a xlink:href="structImVector.html#a3a097635d464b1b70dc7d59996a88b28" target="_top" xlink:title=" ">
<polygon fill="white" stroke="#666666" points="712,-179 570,-179 570,-160 712,-160 712,-179"/>
<text text-anchor="middle" x="641" y="-167" font-family="Helvetica,sans-Serif" font-size="10.00">ImVector::_grow_capacity</text>
</a>
</g>
</g>
<!-- Node6&#45;&gt;Node7 -->
<g id="edge6" class="edge">
<title>Node6&#45;&gt;Node7</title>
<path fill="none" stroke="#63b8ff" d="M515.75,-169.5C529.73,-169.5 544.91,-169.5 559.7,-169.5"/>
<polygon fill="#63b8ff" stroke="#63b8ff" points="559.86,-173 569.86,-169.5 559.86,-166 559.86,-173"/>
</g>
<!-- Node8 -->
<g id="node8" class="node">
<title>Node8</title>
<g id="a_node8"><a xlink:href="structImVector.html#a0f14f5736c3372157856eebb67123b75" target="_top" xlink:title=" ">
<polygon fill="white" stroke="#666666" points="692.5,-142 589.5,-142 589.5,-123 692.5,-123 692.5,-142"/>
<text text-anchor="middle" x="641" y="-130" font-family="Helvetica,sans-Serif" font-size="10.00">ImVector::reserve</text>
</a>
</g>
</g>
<!-- Node6&#45;&gt;Node8 -->
<g id="edge7" class="edge">
<title>Node6&#45;&gt;Node8</title>
<path fill="none" stroke="#63b8ff" d="M504.5,-159.97C528.46,-155.11 557.79,-149.17 583.03,-144.05"/>
<polygon fill="#63b8ff" stroke="#63b8ff" points="583.74,-147.48 592.84,-142.06 582.35,-140.62 583.74,-147.48"/>
</g>
<!-- Node9&#45;&gt;Node7 -->
<g id="edge9" class="edge">
<title>Node9&#45;&gt;Node7</title>
<path fill="none" stroke="#63b8ff" d="M504.02,-141.93C528.08,-146.81 557.64,-152.8 583.05,-157.95"/>
<polygon fill="#63b8ff" stroke="#63b8ff" points="582.43,-161.4 592.93,-159.96 583.82,-154.54 582.43,-161.4"/>
</g>
<!-- Node9&#45;&gt;Node8 -->
<g id="edge10" class="edge">
<title>Node9&#45;&gt;Node8</title>
<path fill="none" stroke="#63b8ff" d="M504.02,-132.5C526.85,-132.5 554.63,-132.5 579.12,-132.5"/>
<polygon fill="#63b8ff" stroke="#63b8ff" points="579.39,-136 589.39,-132.5 579.39,-129 579.39,-136"/>
</g>
</g>
</svg>
