<?xml version="1.0" encoding="UTF-8" standalone="no"?>
<!DOCTYPE svg PUBLIC "-//W3C//DTD SVG 1.1//EN"
 "http://www.w3.org/Graphics/SVG/1.1/DTD/svg11.dtd">
<!-- Generated by graphviz version 2.43.0 (0)
 -->
<!-- Title: refl::runtime::detail::function_proxies&lt; Derived, type_list&lt; Members... &gt; &gt; Pages: 1 -->
<svg width="351pt" height="526pt"
 viewBox="0.00 0.00 351.00 526.00" xmlns="http://www.w3.org/2000/svg" xmlns:xlink="http://www.w3.org/1999/xlink">
<g id="graph0" class="graph" transform="scale(1 1) rotate(0) translate(4 522)">
<title>refl::runtime::detail::function_proxies&lt; Derived, type_list&lt; Members... &gt; &gt;</title>
<!-- Node1 -->
<g id="node1" class="node">
<title>Node1</title>
<g id="a_node1"><a xlink:title=" ">
<polygon fill="#999999" stroke="#666666" points="61.5,-0.5 61.5,-79.5 217.5,-79.5 217.5,-0.5 61.5,-0.5"/>
<text text-anchor="start" x="69.5" y="-67.5" font-family="Helvetica,sans-Serif" font-size="10.00">refl::runtime::detail</text>
<text text-anchor="start" x="69.5" y="-56.5" font-family="Helvetica,sans-Serif" font-size="10.00">::function_proxies&lt; Derived,</text>
<text text-anchor="middle" x="139.5" y="-45.5" font-family="Helvetica,sans-Serif" font-size="10.00"> type_list&lt; Members... &gt; &gt;</text>
<polyline fill="none" stroke="#666666" points="61.5,-38.5 217.5,-38.5 "/>
<text text-anchor="middle" x="139.5" y="-26.5" font-family="Helvetica,sans-Serif" font-size="10.00"> </text>
<polyline fill="none" stroke="#666666" points="61.5,-19.5 217.5,-19.5 "/>
<text text-anchor="middle" x="139.5" y="-7.5" font-family="Helvetica,sans-Serif" font-size="10.00"> </text>
</a>
</g>
</g>
<!-- Node2 -->
<g id="node2" class="node">
<title>Node2</title>
<g id="a_node2"><a xlink:href="structrefl_1_1runtime_1_1detail_1_1function__proxy.html" target="_top" xlink:title=" ">
<polygon fill="white" stroke="#666666" points="64,-117.5 64,-229.5 215,-229.5 215,-117.5 64,-117.5"/>
<text text-anchor="start" x="72" y="-217.5" font-family="Helvetica,sans-Serif" font-size="10.00">refl::runtime::detail</text>
<text text-anchor="start" x="72" y="-206.5" font-family="Helvetica,sans-Serif" font-size="10.00">::function_proxy&lt; Derived,</text>
<text text-anchor="middle" x="139.5" y="-195.5" font-family="Helvetica,sans-Serif" font-size="10.00"> Members &gt;</text>
<polyline fill="none" stroke="#666666" points="64,-188.5 215,-188.5 "/>
<text text-anchor="middle" x="139.5" y="-176.5" font-family="Helvetica,sans-Serif" font-size="10.00"> </text>
<polyline fill="none" stroke="#666666" points="64,-169.5 215,-169.5 "/>
<text text-anchor="start" x="72" y="-157.5" font-family="Helvetica,sans-Serif" font-size="10.00">+ function_proxy()</text>
<text text-anchor="start" x="72" y="-146.5" font-family="Helvetica,sans-Serif" font-size="10.00">+ static constexpr decltype</text>
<text text-anchor="start" x="72" y="-135.5" font-family="Helvetica,sans-Serif" font-size="10.00">(auto) invoke_impl(Self</text>
<text text-anchor="start" x="72" y="-124.5" font-family="Helvetica,sans-Serif" font-size="10.00"> &amp;&amp;self, Args &amp;&amp;... args)</text>
</a>
</g>
</g>
<!-- Node2&#45;&gt;Node1 -->
<g id="edge1" class="edge">
<title>Node2&#45;&gt;Node1</title>
<path fill="none" stroke="#63b8ff" d="M139.5,-107.32C139.5,-97.9 139.5,-88.47 139.5,-79.8"/>
<polygon fill="none" stroke="#63b8ff" points="136,-107.49 139.5,-117.49 143,-107.49 136,-107.49"/>
</g>
<!-- Node3 -->
<g id="node3" class="node">
<title>Node3</title>
<g id="a_node3"><a xlink:title=" ">
<polygon fill="white" stroke="#666666" points="0,-294 0,-373 173,-373 173,-294 0,-294"/>
<text text-anchor="start" x="8" y="-361" font-family="Helvetica,sans-Serif" font-size="10.00">get_member_info::type</text>
<text text-anchor="start" x="8" y="-350" font-family="Helvetica,sans-Serif" font-size="10.00">::template remap&lt; function</text>
<text text-anchor="middle" x="86.5" y="-339" font-family="Helvetica,sans-Serif" font-size="10.00">_proxy&lt; Derived, Members &gt; &gt;</text>
<polyline fill="none" stroke="#666666" points="0,-332 173,-332 "/>
<text text-anchor="middle" x="86.5" y="-320" font-family="Helvetica,sans-Serif" font-size="10.00"> </text>
<polyline fill="none" stroke="#666666" points="0,-313 173,-313 "/>
<text text-anchor="middle" x="86.5" y="-301" font-family="Helvetica,sans-Serif" font-size="10.00"> </text>
</a>
</g>
</g>
<!-- Node3&#45;&gt;Node2 -->
<g id="edge2" class="edge">
<title>Node3&#45;&gt;Node2</title>
<path fill="none" stroke="#63b8ff" d="M102.76,-284.04C108.51,-266.88 115.03,-247.44 120.96,-229.76"/>
<polygon fill="none" stroke="#63b8ff" points="99.33,-283.25 99.47,-293.85 105.96,-285.48 99.33,-283.25"/>
</g>
<!-- Node4 -->
<g id="node4" class="node">
<title>Node4</title>
<g id="a_node4"><a xlink:href="structrefl_1_1runtime_1_1detail_1_1function__proxy.html" target="_top" xlink:title=" ">
<polygon fill="white" stroke="#666666" points="191,-277.5 191,-389.5 342,-389.5 342,-277.5 191,-277.5"/>
<text text-anchor="start" x="199" y="-377.5" font-family="Helvetica,sans-Serif" font-size="10.00">refl::runtime::detail</text>
<text text-anchor="start" x="199" y="-366.5" font-family="Helvetica,sans-Serif" font-size="10.00">::function_proxy&lt; Derived,</text>
<text text-anchor="middle" x="266.5" y="-355.5" font-family="Helvetica,sans-Serif" font-size="10.00"> Func &gt;</text>
<polyline fill="none" stroke="#666666" points="191,-348.5 342,-348.5 "/>
<text text-anchor="middle" x="266.5" y="-336.5" font-family="Helvetica,sans-Serif" font-size="10.00"> </text>
<polyline fill="none" stroke="#666666" points="191,-329.5 342,-329.5 "/>
<text text-anchor="start" x="199" y="-317.5" font-family="Helvetica,sans-Serif" font-size="10.00">+ function_proxy()</text>
<text text-anchor="start" x="199" y="-306.5" font-family="Helvetica,sans-Serif" font-size="10.00">+ static constexpr decltype</text>
<text text-anchor="start" x="199" y="-295.5" font-family="Helvetica,sans-Serif" font-size="10.00">(auto) invoke_impl(Self</text>
<text text-anchor="start" x="199" y="-284.5" font-family="Helvetica,sans-Serif" font-size="10.00"> &amp;&amp;self, Args &amp;&amp;... args)</text>
</a>
</g>
</g>
<!-- Node4&#45;&gt;Node2 -->
<g id="edge3" class="edge">
<title>Node4&#45;&gt;Node2</title>
<path fill="none" stroke="orange" d="M215.62,-269.2C205.12,-256.14 194.14,-242.48 183.89,-229.73"/>
<polygon fill="orange" stroke="orange" points="213.09,-271.64 222.08,-277.24 218.54,-267.25 213.09,-271.64"/>
<text text-anchor="middle" x="264.5" y="-251" font-family="Helvetica,sans-Serif" font-size="10.00"> &lt; Derived, Members &gt;</text>
</g>
<!-- Node5 -->
<g id="node5" class="node">
<title>Node5</title>
<g id="a_node5"><a xlink:title=" ">
<polygon fill="white" stroke="#666666" points="190,-427.5 190,-517.5 343,-517.5 343,-427.5 190,-427.5"/>
<text text-anchor="start" x="198" y="-505.5" font-family="Helvetica,sans-Serif" font-size="10.00">get_member_info&lt; Func</text>
<text text-anchor="start" x="198" y="-494.5" font-family="Helvetica,sans-Serif" font-size="10.00"> &gt;::type::template remap</text>
<text text-anchor="start" x="198" y="-483.5" font-family="Helvetica,sans-Serif" font-size="10.00">&lt; function_proxy&lt; Derived,</text>
<text text-anchor="middle" x="266.5" y="-472.5" font-family="Helvetica,sans-Serif" font-size="10.00"> Func &gt; &gt;</text>
<polyline fill="none" stroke="#666666" points="190,-465.5 343,-465.5 "/>
<text text-anchor="middle" x="266.5" y="-453.5" font-family="Helvetica,sans-Serif" font-size="10.00"> </text>
<polyline fill="none" stroke="#666666" points="190,-446.5 343,-446.5 "/>
<text text-anchor="middle" x="266.5" y="-434.5" font-family="Helvetica,sans-Serif" font-size="10.00"> </text>
</a>
</g>
</g>
<!-- Node5&#45;&gt;Node4 -->
<g id="edge4" class="edge">
<title>Node5&#45;&gt;Node4</title>
<path fill="none" stroke="#63b8ff" d="M266.5,-417.29C266.5,-408.18 266.5,-398.71 266.5,-389.57"/>
<polygon fill="none" stroke="#63b8ff" points="263,-417.4 266.5,-427.4 270,-417.4 263,-417.4"/>
</g>
</g>
</svg>
