<?xml version="1.0" encoding="UTF-8" standalone="no"?>
<!DOCTYPE svg PUBLIC "-//W3C//DTD SVG 1.1//EN"
 "http://www.w3.org/Graphics/SVG/1.1/DTD/svg11.dtd">
<!-- Generated by graphviz version 2.43.0 (0)
 -->
<!-- Title: ImGuiIO::AddMousePosEvent Pages: 1 -->
<svg width="1384pt" height="190pt"
 viewBox="0.00 0.00 1384.00 189.50" xmlns="http://www.w3.org/2000/svg" xmlns:xlink="http://www.w3.org/1999/xlink">
<g id="graph0" class="graph" transform="scale(1 1) rotate(0) translate(4 185.5)">
<title>ImGuiIO::AddMousePosEvent</title>
<!-- Node1 -->
<g id="node1" class="node">
<title>Node1</title>
<g id="a_node1"><a xlink:title=" ">
<polygon fill="#999999" stroke="#666666" points="1376,-107 1218,-107 1218,-88 1376,-88 1376,-107"/>
<text text-anchor="middle" x="1297" y="-95" font-family="Helvetica,sans-Serif" font-size="10.00">ImGuiIO::AddMousePosEvent</text>
</a>
</g>
</g>
<!-- Node2 -->
<g id="node2" class="node">
<title>Node2</title>
<g id="a_node2"><a xlink:href="imgui__impl__win32_8cpp.html#a8bf20d5849d2009929f0df2a5378907f" target="_top" xlink:title=" ">
<polygon fill="white" stroke="#666666" points="1181,-139 981,-139 981,-120 1181,-120 1181,-139"/>
<text text-anchor="middle" x="1081" y="-127" font-family="Helvetica,sans-Serif" font-size="10.00">ImGui_ImplWin32_UpdateMouseData</text>
</a>
</g>
</g>
<!-- Node1&#45;&gt;Node2 -->
<g id="edge1" class="edge">
<title>Node1&#45;&gt;Node2</title>
<path fill="none" stroke="#63b8ff" d="M1222.25,-108.53C1197.36,-112.25 1169.8,-116.37 1145.75,-119.97"/>
<polygon fill="#63b8ff" stroke="#63b8ff" points="1223,-111.95 1232.37,-107.01 1221.96,-105.03 1223,-111.95"/>
</g>
<!-- Node6 -->
<g id="node6" class="node">
<title>Node6</title>
<g id="a_node6"><a xlink:href="imgui__impl__win32_8cpp.html#a7038e1f34a0be8f5b6023a08973f4431" target="_top" xlink:title=" ">
<polygon fill="white" stroke="#666666" points="1182,-89 980,-89 980,-70 1182,-70 1182,-89"/>
<text text-anchor="middle" x="1081" y="-77" font-family="Helvetica,sans-Serif" font-size="10.00">ImGui_ImplWin32_WndProcHandlerEx</text>
</a>
</g>
</g>
<!-- Node1&#45;&gt;Node6 -->
<g id="edge5" class="edge">
<title>Node1&#45;&gt;Node6</title>
<path fill="none" stroke="#63b8ff" d="M1207.68,-90.07C1199.28,-89.36 1190.73,-88.65 1182.23,-87.93"/>
<polygon fill="#63b8ff" stroke="#63b8ff" points="1207.57,-93.57 1217.83,-90.93 1208.16,-86.6 1207.57,-93.57"/>
</g>
<!-- Node3 -->
<g id="node3" class="node">
<title>Node3</title>
<g id="a_node3"><a xlink:href="imgui__impl__win32_8cpp.html#ade4f55b90fdbd75a562d894d33f1909e" target="_top" xlink:title=" ">
<polygon fill="white" stroke="#666666" points="929.5,-166 768.5,-166 768.5,-147 929.5,-147 929.5,-166"/>
<text text-anchor="middle" x="849" y="-154" font-family="Helvetica,sans-Serif" font-size="10.00">ImGui_ImplWin32_NewFrame</text>
</a>
</g>
</g>
<!-- Node2&#45;&gt;Node3 -->
<g id="edge2" class="edge">
<title>Node2&#45;&gt;Node3</title>
<path fill="none" stroke="#63b8ff" d="M988.78,-140.21C969.2,-142.51 948.67,-144.92 929.58,-147.16"/>
<polygon fill="#63b8ff" stroke="#63b8ff" points="989.39,-143.66 998.91,-139.02 988.57,-136.71 989.39,-143.66"/>
</g>
<!-- Node4 -->
<g id="node4" class="node">
<title>Node4</title>
<g id="a_node4"><a xlink:href="classmtgb_1_1ImGuiRenderer.html#a4684d4374beee1f52053b4634edae2c8" target="_top" xlink:title=" ">
<polygon fill="white" stroke="#666666" points="704.5,-180.5 582.5,-180.5 582.5,-150.5 704.5,-150.5 704.5,-180.5"/>
<text text-anchor="start" x="590.5" y="-168.5" font-family="Helvetica,sans-Serif" font-size="10.00">mtgb::ImGuiRenderer</text>
<text text-anchor="middle" x="643.5" y="-157.5" font-family="Helvetica,sans-Serif" font-size="10.00">::BeginFrame</text>
</a>
</g>
</g>
<!-- Node3&#45;&gt;Node4 -->
<g id="edge3" class="edge">
<title>Node3&#45;&gt;Node4</title>
<path fill="none" stroke="#63b8ff" d="M758.44,-160.46C740.29,-161.26 721.62,-162.09 704.78,-162.83"/>
<polygon fill="#63b8ff" stroke="#63b8ff" points="758.61,-163.96 768.45,-160.02 758.3,-156.96 758.61,-163.96"/>
</g>
<!-- Node5 -->
<g id="node5" class="node">
<title>Node5</title>
<g id="a_node5"><a xlink:href="classmtgb_1_1RenderSystem.html#a14e39d4590efdf77c2085b12c6f3cdf5" target="_top" xlink:title=" ">
<polygon fill="white" stroke="#666666" points="518,-181.5 387,-181.5 387,-151.5 518,-151.5 518,-181.5"/>
<text text-anchor="start" x="395" y="-169.5" font-family="Helvetica,sans-Serif" font-size="10.00">mtgb::RenderSystem</text>
<text text-anchor="middle" x="452.5" y="-158.5" font-family="Helvetica,sans-Serif" font-size="10.00">::RenderImGuiWindows</text>
</a>
</g>
</g>
<!-- Node4&#45;&gt;Node5 -->
<g id="edge4" class="edge">
<title>Node4&#45;&gt;Node5</title>
<path fill="none" stroke="#63b8ff" d="M572.2,-165.87C554.55,-165.97 535.68,-166.07 518.31,-166.16"/>
<polygon fill="#63b8ff" stroke="#63b8ff" points="572.46,-169.37 582.44,-165.82 572.42,-162.37 572.46,-169.37"/>
</g>
<!-- Node7 -->
<g id="node7" class="node">
<title>Node7</title>
<g id="a_node7"><a xlink:href="imgui__impl__win32_8cpp.html#a87a3f9652a75339308cf5fd5699ef1fd" target="_top" xlink:title="ウィンドウからのメッセージを受信してImGuiの入力やイベントを有効にするためのコールバック関数">
<polygon fill="white" stroke="#666666" points="944,-89 754,-89 754,-70 944,-70 944,-89"/>
<text text-anchor="middle" x="849" y="-77" font-family="Helvetica,sans-Serif" font-size="10.00">ImGui_ImplWin32_WndProcHandler</text>
</a>
</g>
</g>
<!-- Node6&#45;&gt;Node7 -->
<g id="edge6" class="edge">
<title>Node6&#45;&gt;Node7</title>
<path fill="none" stroke="#63b8ff" d="M969.74,-79.5C961.16,-79.5 952.54,-79.5 944.07,-79.5"/>
<polygon fill="#63b8ff" stroke="#63b8ff" points="969.79,-83 979.79,-79.5 969.79,-76 969.79,-83"/>
</g>
<!-- Node13 -->
<g id="node13" class="node">
<title>Node13</title>
<g id="a_node13"><a xlink:href="imgui__impl__win32_8cpp.html#ab4a89c5993eec0726141d49e8b105625" target="_top" xlink:title=" ">
<polygon fill="white" stroke="#666666" points="944,-51.5 754,-51.5 754,-21.5 944,-21.5 944,-51.5"/>
<text text-anchor="start" x="762" y="-39.5" font-family="Helvetica,sans-Serif" font-size="10.00">ImGui_ImplWin32_WndProcHandler</text>
<text text-anchor="middle" x="849" y="-28.5" font-family="Helvetica,sans-Serif" font-size="10.00">_PlatformWindow</text>
</a>
</g>
</g>
<!-- Node6&#45;&gt;Node13 -->
<g id="edge12" class="edge">
<title>Node6&#45;&gt;Node13</title>
<path fill="none" stroke="#63b8ff" d="M1018.82,-68.06C991.66,-62.98 959.33,-56.94 930.27,-51.51"/>
<polygon fill="#63b8ff" stroke="#63b8ff" points="1018.48,-71.56 1028.96,-69.96 1019.77,-64.68 1018.48,-71.56"/>
</g>
<!-- Node8 -->
<g id="node8" class="node">
<title>Node8</title>
<g id="a_node8"><a xlink:href="classmtgb_1_1WindowResource.html#a93d540c3169105253fca5f4dad0cfff2" target="_top" xlink:title=" ">
<polygon fill="white" stroke="#666666" points="713.5,-131.5 573.5,-131.5 573.5,-101.5 713.5,-101.5 713.5,-131.5"/>
<text text-anchor="start" x="581.5" y="-119.5" font-family="Helvetica,sans-Serif" font-size="10.00">mtgb::WindowResource</text>
<text text-anchor="middle" x="643.5" y="-108.5" font-family="Helvetica,sans-Serif" font-size="10.00">::HandleWindowMessage</text>
</a>
</g>
</g>
<!-- Node7&#45;&gt;Node8 -->
<g id="edge7" class="edge">
<title>Node7&#45;&gt;Node8</title>
<path fill="none" stroke="#63b8ff" d="M785.7,-90.83C762.9,-94.97 736.98,-99.69 713.62,-103.93"/>
<polygon fill="#63b8ff" stroke="#63b8ff" points="786.38,-94.26 795.59,-89.03 785.13,-87.37 786.38,-94.26"/>
</g>
<!-- Node11 -->
<g id="node11" class="node">
<title>Node11</title>
<g id="a_node11"><a xlink:href="MainWindow_8cpp.html#a58295210e24883e25ca3ff5ade88600c" target="_top" xlink:title="ウィンドウからのメッセージを受信するコールバック関数">
<polygon fill="white" stroke="#666666" points="673,-81 614,-81 614,-62 673,-62 673,-81"/>
<text text-anchor="middle" x="643.5" y="-69" font-family="Helvetica,sans-Serif" font-size="10.00">WndProc</text>
</a>
</g>
</g>
<!-- Node7&#45;&gt;Node11 -->
<g id="edge10" class="edge">
<title>Node7&#45;&gt;Node11</title>
<path fill="none" stroke="#63b8ff" d="M743.99,-75.41C717.89,-74.39 691.99,-73.37 673.16,-72.63"/>
<polygon fill="#63b8ff" stroke="#63b8ff" points="743.86,-78.91 753.99,-75.8 744.14,-71.91 743.86,-78.91"/>
</g>
<!-- Node9 -->
<g id="node9" class="node">
<title>Node9</title>
<g id="a_node9"><a xlink:href="classmtgb_1_1WindowResource.html#acf07401470a2b365375026058b8c6cf8" target="_top" xlink:title="各ウィンドウに共通の処理を記述。これをWNDCLASSに渡す">
<polygon fill="white" stroke="#666666" points="518.5,-133.5 386.5,-133.5 386.5,-103.5 518.5,-103.5 518.5,-133.5"/>
<text text-anchor="start" x="394.5" y="-121.5" font-family="Helvetica,sans-Serif" font-size="10.00">mtgb::WindowResource</text>
<text text-anchor="middle" x="452.5" y="-110.5" font-family="Helvetica,sans-Serif" font-size="10.00">::WndProc</text>
</a>
</g>
</g>
<!-- Node8&#45;&gt;Node9 -->
<g id="edge8" class="edge">
<title>Node8&#45;&gt;Node9</title>
<path fill="none" stroke="#63b8ff" d="M563.26,-117.34C548.37,-117.5 532.97,-117.66 518.58,-117.81"/>
<polygon fill="#63b8ff" stroke="#63b8ff" points="563.5,-120.84 573.46,-117.23 563.43,-113.84 563.5,-120.84"/>
</g>
<!-- Node10 -->
<g id="node10" class="node">
<title>Node10</title>
<g id="a_node10"><a xlink:href="classmtgb_1_1WindowManager.html#a9b70ded51f3a15074a9c2ae8fe4969f5" target="_top" xlink:title=" ">
<polygon fill="white" stroke="#666666" points="313,-133.5 181,-133.5 181,-103.5 313,-103.5 313,-133.5"/>
<text text-anchor="start" x="189" y="-121.5" font-family="Helvetica,sans-Serif" font-size="10.00">mtgb::WindowManager</text>
<text text-anchor="middle" x="247" y="-110.5" font-family="Helvetica,sans-Serif" font-size="10.00">::CreateWindowContext</text>
</a>
</g>
</g>
<!-- Node9&#45;&gt;Node10 -->
<g id="edge9" class="edge">
<title>Node9&#45;&gt;Node10</title>
<path fill="none" stroke="#63b8ff" d="M376.25,-118.5C355.56,-118.5 333.29,-118.5 313.21,-118.5"/>
<polygon fill="#63b8ff" stroke="#63b8ff" points="376.27,-122 386.27,-118.5 376.27,-115 376.27,-122"/>
</g>
<!-- Node12 -->
<g id="node12" class="node">
<title>Node12</title>
<g id="a_node12"><a xlink:href="classmtgb_1_1MainWindow.html#a19e9ce6c3276dee48e9f34520f9c832e" target="_top" xlink:title=" ">
<polygon fill="white" stroke="#666666" points="533,-85.5 372,-85.5 372,-55.5 533,-55.5 533,-85.5"/>
<text text-anchor="start" x="380" y="-73.5" font-family="Helvetica,sans-Serif" font-size="10.00">mtgb::MainWindow::Generate</text>
<text text-anchor="middle" x="452.5" y="-62.5" font-family="Helvetica,sans-Serif" font-size="10.00">WndClassEx</text>
</a>
</g>
</g>
<!-- Node11&#45;&gt;Node12 -->
<g id="edge11" class="edge">
<title>Node11&#45;&gt;Node12</title>
<path fill="none" stroke="#63b8ff" d="M603.67,-71.29C583.31,-71.19 557.58,-71.05 533.21,-70.92"/>
<polygon fill="#63b8ff" stroke="#63b8ff" points="603.78,-74.8 613.79,-71.35 603.81,-67.8 603.78,-74.8"/>
</g>
<!-- Node14 -->
<g id="node14" class="node">
<title>Node14</title>
<g id="a_node14"><a xlink:href="imgui__impl__win32_8cpp.html#a580ea37efc232c8e76da164e876e0f54" target="_top" xlink:title=" ">
<polygon fill="white" stroke="#666666" points="718,-43.5 569,-43.5 569,-13.5 718,-13.5 718,-43.5"/>
<text text-anchor="start" x="577" y="-31.5" font-family="Helvetica,sans-Serif" font-size="10.00">ImGui_ImplWin32_InitMulti</text>
<text text-anchor="middle" x="643.5" y="-20.5" font-family="Helvetica,sans-Serif" font-size="10.00">ViewportSupport</text>
</a>
</g>
</g>
<!-- Node13&#45;&gt;Node14 -->
<g id="edge13" class="edge">
<title>Node13&#45;&gt;Node14</title>
<path fill="none" stroke="#63b8ff" d="M743.87,-32.41C735.24,-32.07 726.64,-31.73 718.3,-31.4"/>
<polygon fill="#63b8ff" stroke="#63b8ff" points="743.86,-35.91 753.99,-32.8 744.14,-28.91 743.86,-35.91"/>
</g>
<!-- Node15 -->
<g id="node15" class="node">
<title>Node15</title>
<g id="a_node15"><a xlink:href="imgui__impl__win32_8cpp.html#aae36e87f5370bd86a7ea10c76f742ccb" target="_top" xlink:title=" ">
<polygon fill="white" stroke="#666666" points="521,-37 384,-37 384,-18 521,-18 521,-37"/>
<text text-anchor="middle" x="452.5" y="-25" font-family="Helvetica,sans-Serif" font-size="10.00">ImGui_ImplWin32_InitEx</text>
</a>
</g>
</g>
<!-- Node14&#45;&gt;Node15 -->
<g id="edge14" class="edge">
<title>Node14&#45;&gt;Node15</title>
<path fill="none" stroke="#63b8ff" d="M558.83,-28.06C546.19,-27.99 533.29,-27.92 521.05,-27.86"/>
<polygon fill="#63b8ff" stroke="#63b8ff" points="558.87,-31.56 568.89,-28.11 558.91,-24.56 558.87,-31.56"/>
</g>
<!-- Node16 -->
<g id="node16" class="node">
<title>Node16</title>
<g id="a_node16"><a xlink:href="imgui__impl__win32_8cpp.html#a9f752412a1f6dfdf6fc00dbbd90a8428" target="_top" xlink:title=" ">
<polygon fill="white" stroke="#666666" points="309.5,-56 184.5,-56 184.5,-37 309.5,-37 309.5,-56"/>
<text text-anchor="middle" x="247" y="-44" font-family="Helvetica,sans-Serif" font-size="10.00">ImGui_ImplWin32_Init</text>
</a>
</g>
</g>
<!-- Node15&#45;&gt;Node16 -->
<g id="edge15" class="edge">
<title>Node15&#45;&gt;Node16</title>
<path fill="none" stroke="#63b8ff" d="M373.78,-34.76C352.55,-36.74 329.84,-38.86 309.64,-40.75"/>
<polygon fill="#63b8ff" stroke="#63b8ff" points="374.11,-38.24 383.74,-33.83 373.46,-31.27 374.11,-38.24"/>
</g>
<!-- Node18 -->
<g id="node18" class="node">
<title>Node18</title>
<g id="a_node18"><a xlink:href="imgui__impl__win32_8cpp.html#a62c65c5f453046a14119bc62234ac5b7" target="_top" xlink:title=" ">
<polygon fill="white" stroke="#666666" points="336,-19 158,-19 158,0 336,0 336,-19"/>
<text text-anchor="middle" x="247" y="-7" font-family="Helvetica,sans-Serif" font-size="10.00">ImGui_ImplWin32_InitForOpenGL</text>
</a>
</g>
</g>
<!-- Node15&#45;&gt;Node18 -->
<g id="edge17" class="edge">
<title>Node15&#45;&gt;Node18</title>
<path fill="none" stroke="#63b8ff" d="M373.57,-20.61C361.32,-19.52 348.57,-18.4 336.1,-17.29"/>
<polygon fill="#63b8ff" stroke="#63b8ff" points="373.47,-24.11 383.74,-21.51 374.08,-17.14 373.47,-24.11"/>
</g>
<!-- Node17 -->
<g id="node17" class="node">
<title>Node17</title>
<g id="a_node17"><a xlink:href="classmtgb_1_1ImGuiRenderer.html#a4db4a95a57f586a5fda30be1957f247a" target="_top" xlink:title=" ">
<polygon fill="white" stroke="#666666" points="122,-61.5 0,-61.5 0,-31.5 122,-31.5 122,-61.5"/>
<text text-anchor="start" x="8" y="-49.5" font-family="Helvetica,sans-Serif" font-size="10.00">mtgb::ImGuiRenderer</text>
<text text-anchor="middle" x="61" y="-38.5" font-family="Helvetica,sans-Serif" font-size="10.00">::Initialize</text>
</a>
</g>
</g>
<!-- Node16&#45;&gt;Node17 -->
<g id="edge16" class="edge">
<title>Node16&#45;&gt;Node17</title>
<path fill="none" stroke="#63b8ff" d="M174.45,-46.5C157.18,-46.5 138.9,-46.5 122.22,-46.5"/>
<polygon fill="#63b8ff" stroke="#63b8ff" points="174.47,-50 184.47,-46.5 174.47,-43 174.47,-50"/>
</g>
</g>
</svg>
