<?xml version="1.0" encoding="UTF-8" standalone="no"?>
<!DOCTYPE svg PUBLIC "-//W3C//DTD SVG 1.1//EN"
 "http://www.w3.org/Graphics/SVG/1.1/DTD/svg11.dtd">
<!-- Generated by graphviz version 2.43.0 (0)
 -->
<!-- Title: ImGuiInputEvent Pages: 1 -->
<svg width="1256pt" height="248pt"
 viewBox="0.00 0.00 1256.00 248.00" xmlns="http://www.w3.org/2000/svg" xmlns:xlink="http://www.w3.org/1999/xlink">
<g id="graph0" class="graph" transform="scale(1 1) rotate(0) translate(4 244)">
<title>ImGuiInputEvent</title>
<!-- Node1 -->
<g id="node1" class="node">
<title>Node1</title>
<g id="a_node1"><a xlink:title=" ">
<polygon fill="#999999" stroke="#666666" points="635.5,-0.5 635.5,-112.5 793.5,-112.5 793.5,-0.5 635.5,-0.5"/>
<text text-anchor="middle" x="714.5" y="-100.5" font-family="Helvetica,sans-Serif" font-size="10.00">ImGuiInputEvent</text>
<polyline fill="none" stroke="#666666" points="635.5,-93.5 793.5,-93.5 "/>
<text text-anchor="start" x="643.5" y="-81.5" font-family="Helvetica,sans-Serif" font-size="10.00">+ ImGuiInputEventType Type</text>
<text text-anchor="start" x="643.5" y="-70.5" font-family="Helvetica,sans-Serif" font-size="10.00">+ ImGuiInputSource Source</text>
<text text-anchor="start" x="643.5" y="-59.5" font-family="Helvetica,sans-Serif" font-size="10.00">+ ImU32 EventId</text>
<text text-anchor="start" x="643.5" y="-48.5" font-family="Helvetica,sans-Serif" font-size="10.00">+ union ImGuiInputEvent</text>
<text text-anchor="start" x="643.5" y="-37.5" font-family="Helvetica,sans-Serif" font-size="10.00">::@7 @8</text>
<text text-anchor="start" x="643.5" y="-26.5" font-family="Helvetica,sans-Serif" font-size="10.00">+ bool AddedByTestEngine</text>
<polyline fill="none" stroke="#666666" points="635.5,-19.5 793.5,-19.5 "/>
<text text-anchor="start" x="643.5" y="-7.5" font-family="Helvetica,sans-Serif" font-size="10.00">+ ImGuiInputEvent()</text>
</a>
</g>
</g>
<!-- Node2 -->
<g id="node2" class="node">
<title>Node2</title>
<g id="a_node2"><a xlink:href="structImGuiInputEventMousePos.html" target="_top" xlink:title=" ">
<polygon fill="white" stroke="#666666" points="0,-160.5 0,-239.5 191,-239.5 191,-160.5 0,-160.5"/>
<text text-anchor="middle" x="95.5" y="-227.5" font-family="Helvetica,sans-Serif" font-size="10.00">ImGuiInputEventMousePos</text>
<polyline fill="none" stroke="#666666" points="0,-220.5 191,-220.5 "/>
<text text-anchor="start" x="8" y="-208.5" font-family="Helvetica,sans-Serif" font-size="10.00">+ float PosX</text>
<text text-anchor="start" x="8" y="-197.5" font-family="Helvetica,sans-Serif" font-size="10.00">+ float PosY</text>
<text text-anchor="start" x="8" y="-186.5" font-family="Helvetica,sans-Serif" font-size="10.00">+ ImGuiMouseSource MouseSource</text>
<polyline fill="none" stroke="#666666" points="0,-179.5 191,-179.5 "/>
<text text-anchor="middle" x="95.5" y="-167.5" font-family="Helvetica,sans-Serif" font-size="10.00"> </text>
</a>
</g>
</g>
<!-- Node2&#45;&gt;Node1 -->
<g id="edge1" class="edge">
<title>Node2&#45;&gt;Node1</title>
<path fill="none" stroke="#404040" d="M191.07,-162.49C193.91,-161.63 196.72,-160.79 199.5,-160 345.61,-118.36 519.73,-87.5 623.48,-71.03"/>
<polygon fill="none" stroke="#404040" points="623.62,-71.01 628.92,-66.12 635.47,-69.14 630.16,-74.02 623.62,-71.01"/>
<text text-anchor="middle" x="342" y="-134" font-family="Helvetica,sans-Serif" font-size="10.00"> +MousePos</text>
</g>
<!-- Node3 -->
<g id="node3" class="node">
<title>Node3</title>
<g id="a_node3"><a xlink:href="structImGuiInputEventMouseWheel.html" target="_top" xlink:title=" ">
<polygon fill="white" stroke="#666666" points="209,-160.5 209,-239.5 400,-239.5 400,-160.5 209,-160.5"/>
<text text-anchor="middle" x="304.5" y="-227.5" font-family="Helvetica,sans-Serif" font-size="10.00">ImGuiInputEventMouseWheel</text>
<polyline fill="none" stroke="#666666" points="209,-220.5 400,-220.5 "/>
<text text-anchor="start" x="217" y="-208.5" font-family="Helvetica,sans-Serif" font-size="10.00">+ float WheelX</text>
<text text-anchor="start" x="217" y="-197.5" font-family="Helvetica,sans-Serif" font-size="10.00">+ float WheelY</text>
<text text-anchor="start" x="217" y="-186.5" font-family="Helvetica,sans-Serif" font-size="10.00">+ ImGuiMouseSource MouseSource</text>
<polyline fill="none" stroke="#666666" points="209,-179.5 400,-179.5 "/>
<text text-anchor="middle" x="304.5" y="-167.5" font-family="Helvetica,sans-Serif" font-size="10.00"> </text>
</a>
</g>
</g>
<!-- Node3&#45;&gt;Node1 -->
<g id="edge2" class="edge">
<title>Node3&#45;&gt;Node1</title>
<path fill="none" stroke="#404040" d="M400.22,-162.96C403.01,-161.96 405.77,-160.97 408.5,-160 480.55,-134.43 562.73,-107 623.77,-86.95"/>
<polygon fill="none" stroke="#404040" points="623.9,-86.91 628.35,-81.24 635.3,-83.17 630.85,-88.84 623.9,-86.91"/>
<text text-anchor="middle" x="522" y="-134" font-family="Helvetica,sans-Serif" font-size="10.00"> +MouseWheel</text>
</g>
<!-- Node4 -->
<g id="node4" class="node">
<title>Node4</title>
<g id="a_node4"><a xlink:href="structImGuiInputEventMouseButton.html" target="_top" xlink:title=" ">
<polygon fill="white" stroke="#666666" points="418,-160.5 418,-239.5 609,-239.5 609,-160.5 418,-160.5"/>
<text text-anchor="middle" x="513.5" y="-227.5" font-family="Helvetica,sans-Serif" font-size="10.00">ImGuiInputEventMouseButton</text>
<polyline fill="none" stroke="#666666" points="418,-220.5 609,-220.5 "/>
<text text-anchor="start" x="426" y="-208.5" font-family="Helvetica,sans-Serif" font-size="10.00">+ int Button</text>
<text text-anchor="start" x="426" y="-197.5" font-family="Helvetica,sans-Serif" font-size="10.00">+ bool Down</text>
<text text-anchor="start" x="426" y="-186.5" font-family="Helvetica,sans-Serif" font-size="10.00">+ ImGuiMouseSource MouseSource</text>
<polyline fill="none" stroke="#666666" points="418,-179.5 609,-179.5 "/>
<text text-anchor="middle" x="513.5" y="-167.5" font-family="Helvetica,sans-Serif" font-size="10.00"> </text>
</a>
</g>
</g>
<!-- Node4&#45;&gt;Node1 -->
<g id="edge3" class="edge">
<title>Node4&#45;&gt;Node1</title>
<path fill="none" stroke="#404040" d="M568.42,-160.33C586.32,-147.73 606.67,-133.41 626.37,-119.54"/>
<polygon fill="none" stroke="#404040" points="626.47,-119.47 629.08,-112.75 636.28,-112.56 633.68,-119.29 626.47,-119.47"/>
<text text-anchor="middle" x="646.5" y="-134" font-family="Helvetica,sans-Serif" font-size="10.00"> +MouseButton</text>
</g>
<!-- Node5 -->
<g id="node5" class="node">
<title>Node5</title>
<g id="a_node5"><a xlink:href="structImGuiInputEventMouseViewport.html" target="_top" xlink:title=" ">
<polygon fill="white" stroke="#666666" points="627.5,-171.5 627.5,-228.5 801.5,-228.5 801.5,-171.5 627.5,-171.5"/>
<text text-anchor="middle" x="714.5" y="-216.5" font-family="Helvetica,sans-Serif" font-size="10.00">ImGuiInputEventMouseViewport</text>
<polyline fill="none" stroke="#666666" points="627.5,-209.5 801.5,-209.5 "/>
<text text-anchor="start" x="635.5" y="-197.5" font-family="Helvetica,sans-Serif" font-size="10.00">+ ImGuiID HoveredViewportID</text>
<polyline fill="none" stroke="#666666" points="627.5,-190.5 801.5,-190.5 "/>
<text text-anchor="middle" x="714.5" y="-178.5" font-family="Helvetica,sans-Serif" font-size="10.00"> </text>
</a>
</g>
</g>
<!-- Node5&#45;&gt;Node1 -->
<g id="edge4" class="edge">
<title>Node5&#45;&gt;Node1</title>
<path fill="none" stroke="#404040" d="M714.5,-171.38C714.5,-158.05 714.5,-141.42 714.5,-125.01"/>
<polygon fill="none" stroke="#404040" points="714.5,-124.57 710.5,-118.57 714.5,-112.57 718.5,-118.57 714.5,-124.57"/>
<text text-anchor="middle" x="758.5" y="-134" font-family="Helvetica,sans-Serif" font-size="10.00"> +MouseViewport</text>
</g>
<!-- Node6 -->
<g id="node6" class="node">
<title>Node6</title>
<g id="a_node6"><a xlink:href="structImGuiInputEventKey.html" target="_top" xlink:title=" ">
<polygon fill="white" stroke="#666666" points="819.5,-160.5 819.5,-239.5 935.5,-239.5 935.5,-160.5 819.5,-160.5"/>
<text text-anchor="middle" x="877.5" y="-227.5" font-family="Helvetica,sans-Serif" font-size="10.00">ImGuiInputEventKey</text>
<polyline fill="none" stroke="#666666" points="819.5,-220.5 935.5,-220.5 "/>
<text text-anchor="start" x="827.5" y="-208.5" font-family="Helvetica,sans-Serif" font-size="10.00">+ ImGuiKey Key</text>
<text text-anchor="start" x="827.5" y="-197.5" font-family="Helvetica,sans-Serif" font-size="10.00">+ bool Down</text>
<text text-anchor="start" x="827.5" y="-186.5" font-family="Helvetica,sans-Serif" font-size="10.00">+ float AnalogValue</text>
<polyline fill="none" stroke="#666666" points="819.5,-179.5 935.5,-179.5 "/>
<text text-anchor="middle" x="877.5" y="-167.5" font-family="Helvetica,sans-Serif" font-size="10.00"> </text>
</a>
</g>
</g>
<!-- Node6&#45;&gt;Node1 -->
<g id="edge5" class="edge">
<title>Node6&#45;&gt;Node1</title>
<path fill="none" stroke="#404040" d="M838.28,-160.24C828.1,-150.51 817.03,-140.22 806.5,-131 802.5,-127.5 798.36,-123.95 794.15,-120.4"/>
<polygon fill="none" stroke="#404040" points="794.07,-120.33 786.9,-119.55 784.86,-112.64 792.03,-113.41 794.07,-120.33"/>
<text text-anchor="middle" x="832.5" y="-134" font-family="Helvetica,sans-Serif" font-size="10.00"> +Key</text>
</g>
<!-- Node7 -->
<g id="node7" class="node">
<title>Node7</title>
<g id="a_node7"><a xlink:href="structImGuiInputEventText.html" target="_top" xlink:title=" ">
<polygon fill="white" stroke="#666666" points="954,-171.5 954,-228.5 1073,-228.5 1073,-171.5 954,-171.5"/>
<text text-anchor="middle" x="1013.5" y="-216.5" font-family="Helvetica,sans-Serif" font-size="10.00">ImGuiInputEventText</text>
<polyline fill="none" stroke="#666666" points="954,-209.5 1073,-209.5 "/>
<text text-anchor="start" x="962" y="-197.5" font-family="Helvetica,sans-Serif" font-size="10.00">+ unsigned int Char</text>
<polyline fill="none" stroke="#666666" points="954,-190.5 1073,-190.5 "/>
<text text-anchor="middle" x="1013.5" y="-178.5" font-family="Helvetica,sans-Serif" font-size="10.00"> </text>
</a>
</g>
</g>
<!-- Node7&#45;&gt;Node1 -->
<g id="edge6" class="edge">
<title>Node7&#45;&gt;Node1</title>
<path fill="none" stroke="#404040" d="M965.94,-171.34C958.81,-167.42 951.5,-163.53 944.5,-160 899.17,-137.15 847.64,-113.94 804.86,-95.4"/>
<polygon fill="none" stroke="#404040" points="804.63,-95.3 797.53,-96.59 793.61,-90.54 800.7,-89.25 804.63,-95.3"/>
<text text-anchor="middle" x="922.5" y="-134" font-family="Helvetica,sans-Serif" font-size="10.00"> +Text</text>
</g>
<!-- Node8 -->
<g id="node8" class="node">
<title>Node8</title>
<g id="a_node8"><a xlink:href="structImGuiInputEventAppFocused.html" target="_top" xlink:title=" ">
<polygon fill="white" stroke="#666666" points="1091,-171.5 1091,-228.5 1248,-228.5 1248,-171.5 1091,-171.5"/>
<text text-anchor="middle" x="1169.5" y="-216.5" font-family="Helvetica,sans-Serif" font-size="10.00">ImGuiInputEventAppFocused</text>
<polyline fill="none" stroke="#666666" points="1091,-209.5 1248,-209.5 "/>
<text text-anchor="start" x="1099" y="-197.5" font-family="Helvetica,sans-Serif" font-size="10.00">+ bool Focused</text>
<polyline fill="none" stroke="#666666" points="1091,-190.5 1248,-190.5 "/>
<text text-anchor="middle" x="1169.5" y="-178.5" font-family="Helvetica,sans-Serif" font-size="10.00"> </text>
</a>
</g>
</g>
<!-- Node8&#45;&gt;Node1 -->
<g id="edge7" class="edge">
<title>Node8&#45;&gt;Node1</title>
<path fill="none" stroke="#404040" d="M1111.02,-171.35C1101.58,-167.31 1091.84,-163.37 1082.5,-160 989.84,-126.54 880.8,-97.4 805.59,-78.83"/>
<polygon fill="none" stroke="#404040" points="805.47,-78.8 798.69,-81.25 793.82,-75.94 800.6,-73.49 805.47,-78.8"/>
<text text-anchor="middle" x="1057.5" y="-134" font-family="Helvetica,sans-Serif" font-size="10.00"> +AppFocused</text>
</g>
</g>
</svg>
