<?xml version="1.0" encoding="UTF-8" standalone="no"?>
<!DOCTYPE svg PUBLIC "-//W3C//DTD SVG 1.1//EN"
 "http://www.w3.org/Graphics/SVG/1.1/DTD/svg11.dtd">
<!-- Generated by graphviz version 2.43.0 (0)
 -->
<!-- Title: IMGUIZMO_NAMESPACE::vec_t::Length Pages: 1 -->
<svg width="1306pt" height="1121pt"
 viewBox="0.00 0.00 1306.00 1120.67" xmlns="http://www.w3.org/2000/svg" xmlns:xlink="http://www.w3.org/1999/xlink">
<g id="graph0" class="graph" transform="scale(1 1) rotate(0) translate(4 1116.67)">
<title>IMGUIZMO_NAMESPACE::vec_t::Length</title>
<!-- Node1 -->
<g id="node1" class="node">
<title>Node1</title>
<g id="a_node1"><a xlink:title=" ">
<polygon fill="#999999" stroke="#666666" points="1298,-401.41 1163,-401.41 1163,-371.41 1298,-371.41 1298,-401.41"/>
<text text-anchor="start" x="1171" y="-389.41" font-family="Helvetica,sans-Serif" font-size="10.00">IMGUIZMO_NAMESPACE</text>
<text text-anchor="middle" x="1230.5" y="-378.41" font-family="Helvetica,sans-Serif" font-size="10.00">::vec_t::Length</text>
</a>
</g>
</g>
<!-- Node2 -->
<g id="node2" class="node">
<title>Node2</title>
<g id="a_node2"><a xlink:href="namespaceIMGUIZMO__NAMESPACE.html#a7cc7533ff750257db246ff8b9d161295" target="_top" xlink:title=" ">
<polygon fill="white" stroke="#666666" points="320,-1067.41 185,-1067.41 185,-1037.41 320,-1037.41 320,-1067.41"/>
<text text-anchor="start" x="193" y="-1055.41" font-family="Helvetica,sans-Serif" font-size="10.00">IMGUIZMO_NAMESPACE</text>
<text text-anchor="middle" x="252.5" y="-1044.41" font-family="Helvetica,sans-Serif" font-size="10.00">::ComputeContext</text>
</a>
</g>
</g>
<!-- Node1&#45;&gt;Node2 -->
<g id="edge1" class="edge">
<title>Node1&#45;&gt;Node2</title>
<path fill="none" stroke="#63b8ff" d="M1228.12,-411.58C1219.66,-539.49 1163.66,-1111.41 838.5,-1111.41 838.5,-1111.41 838.5,-1111.41 641.5,-1111.41 520.54,-1111.41 488.54,-1116.47 370,-1092.41 342.23,-1086.77 312,-1076.25 289.29,-1067.42"/>
<polygon fill="#63b8ff" stroke="#63b8ff" points="1231.62,-411.75 1228.75,-401.55 1224.63,-411.31 1231.62,-411.75"/>
</g>
<!-- Node5 -->
<g id="node5" class="node">
<title>Node5</title>
<g id="a_node5"><a xlink:href="namespaceIMGUIZMO__NAMESPACE.html#ac30fce8d950790571ea13a08297c9f03" target="_top" xlink:title=" ">
<polygon fill="white" stroke="#666666" points="1127,-665.41 943,-665.41 943,-635.41 1127,-635.41 1127,-665.41"/>
<text text-anchor="start" x="951" y="-653.41" font-family="Helvetica,sans-Serif" font-size="10.00">IMGUIZMO_NAMESPACE</text>
<text text-anchor="middle" x="1035" y="-642.41" font-family="Helvetica,sans-Serif" font-size="10.00">::DecomposeMatrixToComponents</text>
</a>
</g>
</g>
<!-- Node1&#45;&gt;Node5 -->
<g id="edge7" class="edge">
<title>Node1&#45;&gt;Node5</title>
<path fill="none" stroke="#63b8ff" d="M1226.12,-411.48C1218.16,-460.41 1193.62,-568.86 1127,-626.41 1123.04,-629.83 1118.65,-632.76 1114,-635.29"/>
<polygon fill="#63b8ff" stroke="#63b8ff" points="1229.6,-411.86 1227.65,-401.45 1222.68,-410.8 1229.6,-411.86"/>
</g>
<!-- Node6 -->
<g id="node6" class="node">
<title>Node6</title>
<g id="a_node6"><a xlink:href="namespaceIMGUIZMO__NAMESPACE.html#abfb9915cdd8a71c7f58b5298dd28bd23" target="_top" xlink:title=" ">
<polygon fill="white" stroke="#666666" points="511,-553.41 376,-553.41 376,-523.41 511,-523.41 511,-553.41"/>
<text text-anchor="start" x="384" y="-541.41" font-family="Helvetica,sans-Serif" font-size="10.00">IMGUIZMO_NAMESPACE</text>
<text text-anchor="middle" x="443.5" y="-530.41" font-family="Helvetica,sans-Serif" font-size="10.00">::GetRotateType</text>
</a>
</g>
</g>
<!-- Node1&#45;&gt;Node6 -->
<g id="edge9" class="edge">
<title>Node1&#45;&gt;Node6</title>
<path fill="none" stroke="#63b8ff" d="M1152.69,-393.51C999.83,-408.23 662.77,-443.89 553,-481.41 522.19,-491.94 489.46,-510.24 468.1,-523.26"/>
<polygon fill="#63b8ff" stroke="#63b8ff" points="1153.31,-396.96 1162.94,-392.52 1152.65,-389.99 1153.31,-396.96"/>
</g>
<!-- Node7 -->
<g id="node7" class="node">
<title>Node7</title>
<g id="a_node7"><a xlink:href="namespaceIMGUIZMO__NAMESPACE.html#aedbac9a352c1488d57f65bd1631c8003" target="_top" xlink:title=" ">
<polygon fill="white" stroke="#666666" points="334,-472.41 171,-472.41 171,-442.41 334,-442.41 334,-472.41"/>
<text text-anchor="start" x="179" y="-460.41" font-family="Helvetica,sans-Serif" font-size="10.00">IMGUIZMO_NAMESPACE</text>
<text text-anchor="middle" x="252.5" y="-449.41" font-family="Helvetica,sans-Serif" font-size="10.00">::HandleAndDrawLocalBounds</text>
</a>
</g>
</g>
<!-- Node1&#45;&gt;Node7 -->
<g id="edge26" class="edge">
<title>Node1&#45;&gt;Node7</title>
<path fill="none" stroke="#63b8ff" d="M1216.74,-362.16C1174.3,-285.18 1029.66,-51.41 838.5,-51.41 838.5,-51.41 838.5,-51.41 641.5,-51.41 581.02,-51.41 413.38,-28.26 370,-70.41 311.86,-126.89 385.6,-370.89 334,-433.41 331.22,-436.78 327.98,-439.69 324.43,-442.21"/>
<polygon fill="#63b8ff" stroke="#63b8ff" points="1213.77,-364.03 1221.62,-371.14 1219.92,-360.68 1213.77,-364.03"/>
</g>
<!-- Node10 -->
<g id="node10" class="node">
<title>Node10</title>
<g id="a_node10"><a xlink:href="namespaceIMGUIZMO__NAMESPACE.html#adefb74f61b224597bb181785574cced2" target="_top" xlink:title=" ">
<polygon fill="white" stroke="#666666" points="511,-307.41 376,-307.41 376,-277.41 511,-277.41 511,-307.41"/>
<text text-anchor="start" x="384" y="-295.41" font-family="Helvetica,sans-Serif" font-size="10.00">IMGUIZMO_NAMESPACE</text>
<text text-anchor="middle" x="443.5" y="-284.41" font-family="Helvetica,sans-Serif" font-size="10.00">::GetScaleType</text>
</a>
</g>
</g>
<!-- Node1&#45;&gt;Node10 -->
<g id="edge19" class="edge">
<title>Node1&#45;&gt;Node10</title>
<path fill="none" stroke="#63b8ff" d="M1152.73,-375.4C1144.06,-374.31 1135.34,-373.29 1127,-372.41 872.59,-345.53 803.64,-380.66 553,-329.41 528.43,-324.38 501.76,-315.34 481.02,-307.45"/>
<polygon fill="#63b8ff" stroke="#63b8ff" points="1152.49,-378.9 1162.86,-376.7 1153.38,-371.96 1152.49,-378.9"/>
</g>
<!-- Node11 -->
<g id="node11" class="node">
<title>Node11</title>
<g id="a_node11"><a xlink:href="namespaceIMGUIZMO__NAMESPACE.html#a9e8d0f6bb00fc980a2adc12af495cd53" target="_top" xlink:title=" ">
<polygon fill="white" stroke="#666666" points="320,-326.41 185,-326.41 185,-296.41 320,-296.41 320,-326.41"/>
<text text-anchor="start" x="193" y="-314.41" font-family="Helvetica,sans-Serif" font-size="10.00">IMGUIZMO_NAMESPACE</text>
<text text-anchor="middle" x="252.5" y="-303.41" font-family="Helvetica,sans-Serif" font-size="10.00">::HandleScale</text>
</a>
</g>
</g>
<!-- Node1&#45;&gt;Node11 -->
<g id="edge27" class="edge">
<title>Node1&#45;&gt;Node11</title>
<path fill="none" stroke="#63b8ff" d="M1229.1,-361.06C1226.71,-301.72 1212.07,-153.03 1127,-76.41 1029.48,11.43 969.74,-13.41 838.5,-13.41 838.5,-13.41 838.5,-13.41 641.5,-13.41 520.19,-13.41 467.8,30.36 370,-41.41 282.54,-105.59 260.01,-249.26 254.87,-296.23"/>
<polygon fill="#63b8ff" stroke="#63b8ff" points="1225.61,-361.49 1229.42,-371.38 1232.61,-361.27 1225.61,-361.49"/>
</g>
<!-- Node12 -->
<g id="node12" class="node">
<title>Node12</title>
<g id="a_node12"><a xlink:href="structIMGUIZMO__NAMESPACE_1_1vec__t.html#a2e18e8518186c392795c4cd17a4efd62" target="_top" xlink:title=" ">
<polygon fill="white" stroke="#666666" points="1102.5,-617.41 967.5,-617.41 967.5,-587.41 1102.5,-587.41 1102.5,-617.41"/>
<text text-anchor="start" x="975.5" y="-605.41" font-family="Helvetica,sans-Serif" font-size="10.00">IMGUIZMO_NAMESPACE</text>
<text text-anchor="middle" x="1035" y="-594.41" font-family="Helvetica,sans-Serif" font-size="10.00">::vec_t::Normalize</text>
</a>
</g>
</g>
<!-- Node1&#45;&gt;Node12 -->
<g id="edge28" class="edge">
<title>Node1&#45;&gt;Node12</title>
<path fill="none" stroke="#63b8ff" d="M1209.06,-409.23C1169.41,-453.49 1083.02,-549.92 1049.59,-587.24"/>
<polygon fill="#63b8ff" stroke="#63b8ff" points="1211.83,-411.38 1215.89,-401.6 1206.61,-406.71 1211.83,-411.38"/>
</g>
<!-- Node2&#45;&gt;Node2 -->
<g id="edge2" class="edge">
<title>Node2&#45;&gt;Node2</title>
<path fill="none" stroke="#63b8ff" d="M284.71,-1078C280.31,-1082.38 269.57,-1085.41 252.5,-1085.41 223.75,-1085.41 212.97,-1076.81 220.16,-1067.68"/>
<polygon fill="#63b8ff" stroke="#63b8ff" points="288.21,-1077.73 284.84,-1067.68 281.21,-1077.64 288.21,-1077.73"/>
</g>
<!-- Node3 -->
<g id="node3" class="node">
<title>Node3</title>
<g id="a_node3"><a xlink:href="namespaceIMGUIZMO__NAMESPACE.html#a77d9f13c118607e6ae36dfbc8904482d" target="_top" xlink:title=" ">
<polygon fill="white" stroke="#666666" points="135,-472.41 0,-472.41 0,-442.41 135,-442.41 135,-472.41"/>
<text text-anchor="start" x="8" y="-460.41" font-family="Helvetica,sans-Serif" font-size="10.00">IMGUIZMO_NAMESPACE</text>
<text text-anchor="middle" x="67.5" y="-449.41" font-family="Helvetica,sans-Serif" font-size="10.00">::Manipulate</text>
</a>
</g>
</g>
<!-- Node2&#45;&gt;Node3 -->
<g id="edge3" class="edge">
<title>Node2&#45;&gt;Node3</title>
<path fill="none" stroke="#63b8ff" d="M176.65,-1033.8C174.64,-1032.15 172.74,-1030.36 171,-1028.41 94.24,-942.52 72.82,-554.21 69.13,-472.52"/>
<polygon fill="#63b8ff" stroke="#63b8ff" points="174.73,-1036.73 184.96,-1039.49 178.69,-1030.96 174.73,-1036.73"/>
</g>
<!-- Node4 -->
<g id="node4" class="node">
<title>Node4</title>
<g id="a_node4"><a xlink:href="namespaceIMGUIZMO__NAMESPACE.html#a6464b670b0b83ef0265842921c13d4b0" target="_top" xlink:title=" ">
<polygon fill="white" stroke="#666666" points="135,-1067.41 0,-1067.41 0,-1037.41 135,-1037.41 135,-1067.41"/>
<text text-anchor="start" x="8" y="-1055.41" font-family="Helvetica,sans-Serif" font-size="10.00">IMGUIZMO_NAMESPACE</text>
<text text-anchor="middle" x="67.5" y="-1044.41" font-family="Helvetica,sans-Serif" font-size="10.00">::ViewManipulate</text>
</a>
</g>
</g>
<!-- Node2&#45;&gt;Node4 -->
<g id="edge5" class="edge">
<title>Node2&#45;&gt;Node4</title>
<path fill="none" stroke="#63b8ff" d="M174.89,-1052.41C161.65,-1052.41 147.98,-1052.41 135.04,-1052.41"/>
<polygon fill="#63b8ff" stroke="#63b8ff" points="174.92,-1055.91 184.92,-1052.41 174.92,-1048.91 174.92,-1055.91"/>
</g>
<!-- Node3&#45;&gt;Node3 -->
<g id="edge4" class="edge">
<title>Node3&#45;&gt;Node3</title>
<path fill="none" stroke="#63b8ff" d="M99.71,-483C95.31,-487.38 84.57,-490.41 67.5,-490.41 38.75,-490.41 27.97,-481.81 35.16,-472.68"/>
<polygon fill="#63b8ff" stroke="#63b8ff" points="103.21,-482.73 99.84,-472.68 96.21,-482.64 103.21,-482.73"/>
</g>
<!-- Node4&#45;&gt;Node4 -->
<g id="edge6" class="edge">
<title>Node4&#45;&gt;Node4</title>
<path fill="none" stroke="#63b8ff" d="M99.71,-1078C95.31,-1082.38 84.57,-1085.41 67.5,-1085.41 38.75,-1085.41 27.97,-1076.81 35.16,-1067.68"/>
<polygon fill="#63b8ff" stroke="#63b8ff" points="103.21,-1077.73 99.84,-1067.68 96.21,-1077.64 103.21,-1077.73"/>
</g>
<!-- Node5&#45;&gt;Node5 -->
<g id="edge8" class="edge">
<title>Node5&#45;&gt;Node5</title>
<path fill="none" stroke="#63b8ff" d="M1068.96,-676C1064.32,-680.38 1053,-683.41 1035,-683.41 1004.69,-683.41 993.32,-674.81 1000.9,-665.68"/>
<polygon fill="#63b8ff" stroke="#63b8ff" points="1072.46,-675.73 1069.1,-665.68 1065.46,-675.63 1072.46,-675.73"/>
</g>
<!-- Node6&#45;&gt;Node6 -->
<g id="edge10" class="edge">
<title>Node6&#45;&gt;Node6</title>
<path fill="none" stroke="#63b8ff" d="M476.76,-564C472.21,-568.38 461.13,-571.41 443.5,-571.41 413.81,-571.41 402.68,-562.81 410.1,-553.68"/>
<polygon fill="#63b8ff" stroke="#63b8ff" points="480.26,-563.73 476.9,-553.68 473.26,-563.63 480.26,-563.73"/>
</g>
<!-- Node6&#45;&gt;Node7 -->
<g id="edge11" class="edge">
<title>Node6&#45;&gt;Node7</title>
<path fill="none" stroke="#63b8ff" d="M397.88,-519.29C364.54,-505 319.58,-485.73 288.74,-472.51"/>
<polygon fill="#63b8ff" stroke="#63b8ff" points="396.82,-522.64 407.39,-523.36 399.58,-516.21 396.82,-522.64"/>
</g>
<!-- Node8 -->
<g id="node8" class="node">
<title>Node8</title>
<g id="a_node8"><a xlink:href="namespaceIMGUIZMO__NAMESPACE.html#af3d2643ed3b668a24f37115a3745342f" target="_top" xlink:title=" ">
<polygon fill="white" stroke="#666666" points="320,-828.41 185,-828.41 185,-798.41 320,-798.41 320,-828.41"/>
<text text-anchor="start" x="193" y="-816.41" font-family="Helvetica,sans-Serif" font-size="10.00">IMGUIZMO_NAMESPACE</text>
<text text-anchor="middle" x="252.5" y="-805.41" font-family="Helvetica,sans-Serif" font-size="10.00">::HandleRotation</text>
</a>
</g>
</g>
<!-- Node6&#45;&gt;Node8 -->
<g id="edge14" class="edge">
<title>Node6&#45;&gt;Node8</title>
<path fill="none" stroke="#63b8ff" d="M426.29,-562C388.45,-617.06 295.16,-752.79 263.9,-798.28"/>
<polygon fill="#63b8ff" stroke="#63b8ff" points="429.29,-563.81 432.07,-553.58 423.52,-559.84 429.29,-563.81"/>
</g>
<!-- Node9 -->
<g id="node9" class="node">
<title>Node9</title>
<g id="a_node9"><a xlink:href="namespaceIMGUIZMO__NAMESPACE.html#a368d3c0e65dfff9da9958a961fdaf2e2" target="_top" xlink:title=" ">
<polygon fill="white" stroke="#666666" points="320,-406.41 185,-406.41 185,-376.41 320,-376.41 320,-406.41"/>
<text text-anchor="start" x="193" y="-394.41" font-family="Helvetica,sans-Serif" font-size="10.00">IMGUIZMO_NAMESPACE</text>
<text text-anchor="middle" x="252.5" y="-383.41" font-family="Helvetica,sans-Serif" font-size="10.00">::IsOver</text>
</a>
</g>
</g>
<!-- Node6&#45;&gt;Node9 -->
<g id="edge17" class="edge">
<title>Node6&#45;&gt;Node9</title>
<path fill="none" stroke="#63b8ff" d="M422.57,-515.59C401.94,-492.88 368.04,-457.96 334,-433.41 319.68,-423.08 302.48,-413.75 287.67,-406.52"/>
<polygon fill="#63b8ff" stroke="#63b8ff" points="420,-517.97 429.29,-523.07 425.21,-513.29 420,-517.97"/>
</g>
<!-- Node7&#45;&gt;Node3 -->
<g id="edge13" class="edge">
<title>Node7&#45;&gt;Node3</title>
<path fill="none" stroke="#63b8ff" d="M160.81,-457.41C152.14,-457.41 143.46,-457.41 135.08,-457.41"/>
<polygon fill="#63b8ff" stroke="#63b8ff" points="160.97,-460.91 170.97,-457.41 160.97,-453.91 160.97,-460.91"/>
</g>
<!-- Node7&#45;&gt;Node7 -->
<g id="edge12" class="edge">
<title>Node7&#45;&gt;Node7</title>
<path fill="none" stroke="#63b8ff" d="M284.71,-483C280.31,-487.38 269.57,-490.41 252.5,-490.41 223.75,-490.41 212.97,-481.81 220.16,-472.68"/>
<polygon fill="#63b8ff" stroke="#63b8ff" points="288.21,-482.73 284.84,-472.68 281.21,-482.64 288.21,-482.73"/>
</g>
<!-- Node8&#45;&gt;Node3 -->
<g id="edge16" class="edge">
<title>Node8&#45;&gt;Node3</title>
<path fill="none" stroke="#63b8ff" d="M235.38,-789.72C218.37,-764.27 191.29,-722.35 171,-684.41 129.61,-607 89.41,-509.62 74.54,-472.61"/>
<polygon fill="#63b8ff" stroke="#63b8ff" points="232.67,-791.97 241.15,-798.31 238.48,-788.06 232.67,-791.97"/>
</g>
<!-- Node8&#45;&gt;Node8 -->
<g id="edge15" class="edge">
<title>Node8&#45;&gt;Node8</title>
<path fill="none" stroke="#63b8ff" d="M284.71,-839C280.31,-843.38 269.57,-846.41 252.5,-846.41 223.75,-846.41 212.97,-837.81 220.16,-828.68"/>
<polygon fill="#63b8ff" stroke="#63b8ff" points="288.21,-838.73 284.84,-828.68 281.21,-838.64 288.21,-838.73"/>
</g>
<!-- Node9&#45;&gt;Node9 -->
<g id="edge18" class="edge">
<title>Node9&#45;&gt;Node9</title>
<path fill="none" stroke="#63b8ff" d="M284.71,-417C280.31,-421.38 269.57,-424.41 252.5,-424.41 223.75,-424.41 212.97,-415.81 220.16,-406.68"/>
<polygon fill="#63b8ff" stroke="#63b8ff" points="288.21,-416.73 284.84,-406.68 281.21,-416.64 288.21,-416.73"/>
</g>
<!-- Node10&#45;&gt;Node7 -->
<g id="edge21" class="edge">
<title>Node10&#45;&gt;Node7</title>
<path fill="none" stroke="#63b8ff" d="M419.69,-315.05C404.7,-330.51 385.14,-351.84 370,-372.41 351.33,-397.76 358.8,-414.01 334,-433.41 329.63,-436.82 324.79,-439.75 319.71,-442.26"/>
<polygon fill="#63b8ff" stroke="#63b8ff" points="422.56,-317.12 427.06,-307.53 417.56,-312.22 422.56,-317.12"/>
</g>
<!-- Node10&#45;&gt;Node9 -->
<g id="edge25" class="edge">
<title>Node10&#45;&gt;Node9</title>
<path fill="none" stroke="#63b8ff" d="M407.99,-312.64C386.83,-324.83 359.09,-340.45 334,-353.41 318.62,-361.35 301.29,-369.61 286.66,-376.4"/>
<polygon fill="#63b8ff" stroke="#63b8ff" points="410.01,-315.51 416.91,-307.47 406.5,-309.45 410.01,-315.51"/>
</g>
<!-- Node10&#45;&gt;Node10 -->
<g id="edge20" class="edge">
<title>Node10&#45;&gt;Node10</title>
<path fill="none" stroke="#63b8ff" d="M476.76,-318C472.21,-322.38 461.13,-325.41 443.5,-325.41 413.81,-325.41 402.68,-316.81 410.1,-307.68"/>
<polygon fill="#63b8ff" stroke="#63b8ff" points="480.26,-317.73 476.9,-307.68 473.26,-317.63 480.26,-317.73"/>
</g>
<!-- Node10&#45;&gt;Node11 -->
<g id="edge22" class="edge">
<title>Node10&#45;&gt;Node11</title>
<path fill="none" stroke="#63b8ff" d="M365.57,-300.14C350.52,-301.65 334.85,-303.23 320.17,-304.7"/>
<polygon fill="#63b8ff" stroke="#63b8ff" points="366.27,-303.59 375.87,-299.11 365.57,-296.62 366.27,-303.59"/>
</g>
<!-- Node11&#45;&gt;Node3 -->
<g id="edge24" class="edge">
<title>Node11&#45;&gt;Node3</title>
<path fill="none" stroke="#63b8ff" d="M219.96,-332.14C204.86,-342.37 186.69,-355.13 171,-367.41 139.3,-392.22 104.5,-423.77 84.7,-442.16"/>
<polygon fill="#63b8ff" stroke="#63b8ff" points="222.11,-334.91 228.45,-326.43 218.2,-329.1 222.11,-334.91"/>
</g>
<!-- Node11&#45;&gt;Node11 -->
<g id="edge23" class="edge">
<title>Node11&#45;&gt;Node11</title>
<path fill="none" stroke="#63b8ff" d="M284.71,-337C280.31,-341.38 269.57,-344.41 252.5,-344.41 223.75,-344.41 212.97,-335.81 220.16,-326.68"/>
<polygon fill="#63b8ff" stroke="#63b8ff" points="288.21,-336.73 284.84,-326.68 281.21,-336.64 288.21,-336.73"/>
</g>
<!-- Node12&#45;&gt;Node7 -->
<g id="edge70" class="edge">
<title>Node12&#45;&gt;Node7</title>
<path fill="none" stroke="#63b8ff" d="M957.31,-610.13C940.74,-611.49 923.3,-612.7 907,-613.41 749.81,-620.2 709.71,-627.42 553,-613.41 511.84,-609.73 402.5,-605.92 370,-580.41 339.01,-556.08 360.97,-528.12 334,-499.41 323.32,-488.03 308.86,-479.17 295.14,-472.59"/>
<polygon fill="#63b8ff" stroke="#63b8ff" points="957.83,-613.59 967.5,-609.26 957.24,-606.62 957.83,-613.59"/>
</g>
<!-- Node12&#45;&gt;Node8 -->
<g id="edge71" class="edge">
<title>Node12&#45;&gt;Node8</title>
<path fill="none" stroke="#63b8ff" d="M958.04,-614.61C952.44,-617.75 947.31,-621.63 943,-626.41 872.88,-704.27 973.84,-778.71 907,-859.41 854.36,-922.95 812.2,-902.01 732,-921.41 575.12,-959.35 516.51,-1018.14 370,-950.41 314.74,-924.86 276.07,-858.74 260.78,-828.68"/>
<polygon fill="#63b8ff" stroke="#63b8ff" points="959.66,-617.72 967.19,-610.26 956.66,-611.39 959.66,-617.72"/>
</g>
<!-- Node13 -->
<g id="node13" class="node">
<title>Node13</title>
<g id="a_node13"><a xlink:href="namespaceIMGUIZMO__NAMESPACE.html#afba093f474d6e3e926e16c4d9f90a802" target="_top" xlink:title=" ">
<polygon fill="white" stroke="#666666" points="710,-414.41 575,-414.41 575,-384.41 710,-384.41 710,-414.41"/>
<text text-anchor="start" x="583" y="-402.41" font-family="Helvetica,sans-Serif" font-size="10.00">IMGUIZMO_NAMESPACE</text>
<text text-anchor="middle" x="642.5" y="-391.41" font-family="Helvetica,sans-Serif" font-size="10.00">::BuildPlan</text>
</a>
</g>
</g>
<!-- Node12&#45;&gt;Node13 -->
<g id="edge29" class="edge">
<title>Node12&#45;&gt;Node13</title>
<path fill="none" stroke="#63b8ff" d="M993.28,-583.02C968.65,-571.73 936.42,-557.74 907,-547.41 846.57,-526.18 824.35,-539.84 768,-509.41 755.69,-502.76 690.54,-443.02 659.7,-414.47"/>
<polygon fill="#63b8ff" stroke="#63b8ff" points="992.11,-586.33 1002.66,-587.35 995.05,-579.98 992.11,-586.33"/>
</g>
<!-- Node15 -->
<g id="node15" class="node">
<title>Node15</title>
<g id="a_node15"><a xlink:href="namespaceIMGUIZMO__NAMESPACE.html#a4ff973907013d81cd6b9ec8bdfd78e8c" target="_top" xlink:title=" ">
<polygon fill="white" stroke="#666666" points="320,-538.41 185,-538.41 185,-508.41 320,-508.41 320,-538.41"/>
<text text-anchor="start" x="193" y="-526.41" font-family="Helvetica,sans-Serif" font-size="10.00">IMGUIZMO_NAMESPACE</text>
<text text-anchor="middle" x="252.5" y="-515.41" font-family="Helvetica,sans-Serif" font-size="10.00">::HandleTranslation</text>
</a>
</g>
</g>
<!-- Node12&#45;&gt;Node15 -->
<g id="edge72" class="edge">
<title>Node12&#45;&gt;Node15</title>
<path fill="none" stroke="#63b8ff" d="M958.9,-620.61C953.46,-622.42 948.12,-624.35 943,-626.41 926.02,-633.24 924.72,-641.82 907,-646.41 675.53,-706.39 588.52,-710.49 370,-613.41 328.66,-595.04 288.79,-559.05 268.12,-538.58"/>
<polygon fill="#63b8ff" stroke="#63b8ff" points="960.25,-623.86 968.73,-617.5 958.14,-617.18 960.25,-623.86"/>
</g>
<!-- Node16 -->
<g id="node16" class="node">
<title>Node16</title>
<g id="a_node16"><a xlink:href="namespaceIMGUIZMO__NAMESPACE.html#a9c42aaf6b344a4c0c55e77cbac87eb42" target="_top" xlink:title=" ">
<polygon fill="white" stroke="#666666" points="320,-1019.41 185,-1019.41 185,-989.41 320,-989.41 320,-1019.41"/>
<text text-anchor="start" x="193" y="-1007.41" font-family="Helvetica,sans-Serif" font-size="10.00">IMGUIZMO_NAMESPACE</text>
<text text-anchor="middle" x="252.5" y="-996.41" font-family="Helvetica,sans-Serif" font-size="10.00">::ViewManipulate</text>
</a>
</g>
</g>
<!-- Node12&#45;&gt;Node16 -->
<g id="edge87" class="edge">
<title>Node12&#45;&gt;Node16</title>
<path fill="none" stroke="#63b8ff" d="M957.93,-614.51C952.35,-617.67 947.25,-621.58 943,-626.41 861.85,-718.6 984.52,-805.14 907,-900.41 834,-990.13 471.48,-1003.05 320.09,-1004.48"/>
<polygon fill="#63b8ff" stroke="#63b8ff" points="959.54,-617.61 967.04,-610.13 956.51,-611.3 959.54,-617.61"/>
</g>
<!-- Node17 -->
<g id="node17" class="node">
<title>Node17</title>
<g id="a_node17"><a xlink:href="namespaceIMGUIZMO__NAMESPACE.html#a6eee44e97434c9dddca71511e93caf7e" target="_top" xlink:title=" ">
<polygon fill="white" stroke="#666666" points="511,-923.41 376,-923.41 376,-893.41 511,-893.41 511,-923.41"/>
<text text-anchor="start" x="384" y="-911.41" font-family="Helvetica,sans-Serif" font-size="10.00">IMGUIZMO_NAMESPACE</text>
<text text-anchor="middle" x="443.5" y="-900.41" font-family="Helvetica,sans-Serif" font-size="10.00">::ComputeAngleOnPlan</text>
</a>
</g>
</g>
<!-- Node12&#45;&gt;Node17 -->
<g id="edge45" class="edge">
<title>Node12&#45;&gt;Node17</title>
<path fill="none" stroke="#63b8ff" d="M958.28,-614.83C952.62,-617.92 947.41,-621.73 943,-626.41 887.62,-685.12 962.1,-745.42 907,-804.41 804.33,-914.32 612.55,-920.31 511.21,-914.73"/>
<polygon fill="#63b8ff" stroke="#63b8ff" points="959.9,-617.93 967.48,-610.53 956.94,-611.59 959.9,-617.93"/>
</g>
<!-- Node18 -->
<g id="node18" class="node">
<title>Node18</title>
<g id="a_node18"><a xlink:href="namespaceIMGUIZMO__NAMESPACE.html#ac474fcbb3031ecc3cb25604749f0dfc3" target="_top" xlink:title=" ">
<polygon fill="white" stroke="#666666" points="907,-586.41 768,-586.41 768,-556.41 907,-556.41 907,-586.41"/>
<text text-anchor="start" x="776" y="-574.41" font-family="Helvetica,sans-Serif" font-size="10.00">IMGUIZMO_NAMESPACE</text>
<text text-anchor="middle" x="837.5" y="-563.41" font-family="Helvetica,sans-Serif" font-size="10.00">::ComputeFrustumPlanes</text>
</a>
</g>
</g>
<!-- Node12&#45;&gt;Node18 -->
<g id="edge48" class="edge">
<title>Node12&#45;&gt;Node18</title>
<path fill="none" stroke="#63b8ff" d="M957.14,-590.22C940.68,-587.61 923.39,-584.87 907.26,-582.31"/>
<polygon fill="#63b8ff" stroke="#63b8ff" points="956.84,-593.72 967.27,-591.83 957.94,-586.8 956.84,-593.72"/>
</g>
<!-- Node21 -->
<g id="node21" class="node">
<title>Node21</title>
<g id="a_node21"><a xlink:href="namespaceIMGUIZMO__NAMESPACE.html#a0d5c198ca076ed6778d53141aaf25e08" target="_top" xlink:title=" ">
<polygon fill="white" stroke="#666666" points="511,-109.41 376,-109.41 376,-79.41 511,-79.41 511,-109.41"/>
<text text-anchor="start" x="384" y="-97.41" font-family="Helvetica,sans-Serif" font-size="10.00">IMGUIZMO_NAMESPACE</text>
<text text-anchor="middle" x="443.5" y="-86.41" font-family="Helvetica,sans-Serif" font-size="10.00">::DrawTranslationGizmo</text>
</a>
</g>
</g>
<!-- Node12&#45;&gt;Node21 -->
<g id="edge54" class="edge">
<title>Node12&#45;&gt;Node21</title>
<path fill="none" stroke="#63b8ff" d="M1016.39,-578.92C992.48,-547.38 948.01,-489.91 907,-443.41 833.21,-359.72 819.7,-332.39 732,-263.41 644.77,-194.79 612.79,-192.45 517,-136.41 501.68,-127.45 484.5,-117.49 470.71,-109.52"/>
<polygon fill="#63b8ff" stroke="#63b8ff" points="1013.75,-581.23 1022.57,-587.1 1019.33,-577.01 1013.75,-581.23"/>
</g>
<!-- Node22 -->
<g id="node22" class="node">
<title>Node22</title>
<g id="a_node22"><a xlink:href="namespaceIMGUIZMO__NAMESPACE.html#a3aaa59607812d70293d9534a06412e99" target="_top" xlink:title=" ">
<polygon fill="white" stroke="#666666" points="905,-482.41 770,-482.41 770,-452.41 905,-452.41 905,-482.41"/>
<text text-anchor="start" x="778" y="-470.41" font-family="Helvetica,sans-Serif" font-size="10.00">IMGUIZMO_NAMESPACE</text>
<text text-anchor="middle" x="837.5" y="-459.41" font-family="Helvetica,sans-Serif" font-size="10.00">::GetParallelogram</text>
</a>
</g>
</g>
<!-- Node12&#45;&gt;Node22 -->
<g id="edge57" class="edge">
<title>Node12&#45;&gt;Node22</title>
<path fill="none" stroke="#63b8ff" d="M1003.77,-581.4C978.05,-563.55 940.13,-537.25 907,-514.41 891.45,-503.68 873.87,-491.63 860.42,-482.41"/>
<polygon fill="#63b8ff" stroke="#63b8ff" points="1001.79,-584.29 1012,-587.11 1005.78,-578.54 1001.79,-584.29"/>
</g>
<!-- Node26 -->
<g id="node26" class="node">
<title>Node26</title>
<g id="a_node26"><a xlink:href="namespaceIMGUIZMO__NAMESPACE.html#a9d9d75f9cfb5de40c04c3d28ee040022" target="_top" xlink:title=" ">
<polygon fill="white" stroke="#666666" points="710,-825.41 575,-825.41 575,-795.41 710,-795.41 710,-825.41"/>
<text text-anchor="start" x="583" y="-813.41" font-family="Helvetica,sans-Serif" font-size="10.00">IMGUIZMO_NAMESPACE</text>
<text text-anchor="middle" x="642.5" y="-802.41" font-family="Helvetica,sans-Serif" font-size="10.00">::Normalized</text>
</a>
</g>
</g>
<!-- Node12&#45;&gt;Node26 -->
<g id="edge73" class="edge">
<title>Node12&#45;&gt;Node26</title>
<path fill="none" stroke="#63b8ff" d="M958.26,-615.24C952.66,-618.25 947.46,-621.92 943,-626.41 897.98,-671.63 953.99,-722.22 907,-765.41 854.21,-813.93 769.16,-820.27 710.02,-817.68"/>
<polygon fill="#63b8ff" stroke="#63b8ff" points="959.75,-618.41 967.36,-611.03 956.81,-612.05 959.75,-618.41"/>
</g>
<!-- Node13&#45;&gt;Node6 -->
<g id="edge38" class="edge">
<title>Node13&#45;&gt;Node6</title>
<path fill="none" stroke="#63b8ff" d="M593.16,-418.87C579.11,-426.09 564.48,-435.28 553,-446.41 529.85,-468.86 541.33,-488.24 517,-509.41 510.56,-515.01 502.89,-519.62 495,-523.37"/>
<polygon fill="#63b8ff" stroke="#63b8ff" points="594.83,-421.95 602.28,-414.42 591.75,-415.67 594.83,-421.95"/>
</g>
<!-- Node13&#45;&gt;Node7 -->
<g id="edge40" class="edge">
<title>Node13&#45;&gt;Node7</title>
<path fill="none" stroke="#63b8ff" d="M592.04,-417.8C569.47,-425.44 542.2,-433.62 517,-438.41 456.4,-449.92 386.74,-454.58 334.27,-456.41"/>
<polygon fill="#63b8ff" stroke="#63b8ff" points="593.42,-421.02 601.73,-414.46 591.14,-414.41 593.42,-421.02"/>
</g>
<!-- Node13&#45;&gt;Node8 -->
<g id="edge41" class="edge">
<title>Node13&#45;&gt;Node8</title>
<path fill="none" stroke="#63b8ff" d="M612.1,-420.67C593.02,-435.77 568.85,-457.54 553,-481.41 527.1,-520.41 544.19,-542.29 517,-580.41 468.19,-648.84 432.78,-643.51 370,-699.41 331.96,-733.28 289.82,-775.88 268.15,-798.19"/>
<polygon fill="#63b8ff" stroke="#63b8ff" points="614.42,-423.3 620.19,-414.42 610.14,-417.76 614.42,-423.3"/>
</g>
<!-- Node13&#45;&gt;Node10 -->
<g id="edge39" class="edge">
<title>Node13&#45;&gt;Node10</title>
<path fill="none" stroke="#63b8ff" d="M591.58,-380.35C578.79,-374.98 565.21,-368.84 553,-362.41 550.79,-361.24 498.91,-327.67 467.7,-307.45"/>
<polygon fill="#63b8ff" stroke="#63b8ff" points="590.58,-383.72 601.16,-384.3 593.25,-377.25 590.58,-383.72"/>
</g>
<!-- Node13&#45;&gt;Node11 -->
<g id="edge42" class="edge">
<title>Node13&#45;&gt;Node11</title>
<path fill="none" stroke="#63b8ff" d="M565.39,-382.14C493.88,-365.93 387.94,-341.9 319.81,-326.45"/>
<polygon fill="#63b8ff" stroke="#63b8ff" points="564.71,-385.58 575.24,-384.38 566.26,-378.75 564.71,-385.58"/>
</g>
<!-- Node13&#45;&gt;Node13 -->
<g id="edge30" class="edge">
<title>Node13&#45;&gt;Node13</title>
<path fill="none" stroke="#63b8ff" d="M676.46,-425C671.82,-429.38 660.5,-432.41 642.5,-432.41 612.19,-432.41 600.82,-423.81 608.4,-414.68"/>
<polygon fill="#63b8ff" stroke="#63b8ff" points="679.96,-424.73 676.6,-414.68 672.96,-424.63 679.96,-424.73"/>
</g>
<!-- Node14 -->
<g id="node14" class="node">
<title>Node14</title>
<g id="a_node14"><a xlink:href="namespaceIMGUIZMO__NAMESPACE.html#a835c788bbfd8713aa1133c196c98b78e" target="_top" xlink:title=" ">
<polygon fill="white" stroke="#666666" points="511,-411.41 376,-411.41 376,-381.41 511,-381.41 511,-411.41"/>
<text text-anchor="start" x="384" y="-399.41" font-family="Helvetica,sans-Serif" font-size="10.00">IMGUIZMO_NAMESPACE</text>
<text text-anchor="middle" x="443.5" y="-388.41" font-family="Helvetica,sans-Serif" font-size="10.00">::GetMoveType</text>
</a>
</g>
</g>
<!-- Node13&#45;&gt;Node14 -->
<g id="edge31" class="edge">
<title>Node13&#45;&gt;Node14</title>
<path fill="none" stroke="#63b8ff" d="M564.55,-398.24C546.9,-397.97 528.29,-397.68 511.13,-397.42"/>
<polygon fill="#63b8ff" stroke="#63b8ff" points="564.75,-401.74 574.8,-398.39 564.86,-394.74 564.75,-401.74"/>
</g>
<!-- Node13&#45;&gt;Node15 -->
<g id="edge43" class="edge">
<title>Node13&#45;&gt;Node15</title>
<path fill="none" stroke="#63b8ff" d="M606.16,-419.34C581.72,-432.46 548.13,-449.21 517,-460.41 451.71,-483.88 374.18,-501.22 320.19,-511.7"/>
<polygon fill="#63b8ff" stroke="#63b8ff" points="607.93,-422.36 615.05,-414.51 604.59,-416.2 607.93,-422.36"/>
</g>
<!-- Node13&#45;&gt;Node16 -->
<g id="edge44" class="edge">
<title>Node13&#45;&gt;Node16</title>
<path fill="none" stroke="#63b8ff" d="M610.22,-420.55C590.78,-435.33 566.93,-456.79 553,-481.41 514.54,-549.38 549.21,-582.26 517,-653.41 450.69,-799.87 314.68,-943.35 268.92,-989.26"/>
<polygon fill="#63b8ff" stroke="#63b8ff" points="612.54,-423.18 618.51,-414.43 608.38,-417.55 612.54,-423.18"/>
</g>
<!-- Node14&#45;&gt;Node7 -->
<g id="edge33" class="edge">
<title>Node14&#45;&gt;Node7</title>
<path fill="none" stroke="#63b8ff" d="M389.99,-414.77C372.26,-420.85 352.32,-427.56 334,-433.41 324.69,-436.38 314.74,-439.44 305.12,-442.34"/>
<polygon fill="#63b8ff" stroke="#63b8ff" points="391.28,-418.03 399.59,-411.47 389,-411.41 391.28,-418.03"/>
</g>
<!-- Node14&#45;&gt;Node9 -->
<g id="edge37" class="edge">
<title>Node14&#45;&gt;Node9</title>
<path fill="none" stroke="#63b8ff" d="M365.57,-394.37C350.52,-393.97 334.85,-393.56 320.17,-393.17"/>
<polygon fill="#63b8ff" stroke="#63b8ff" points="365.78,-397.88 375.87,-394.64 365.96,-390.88 365.78,-397.88"/>
</g>
<!-- Node14&#45;&gt;Node14 -->
<g id="edge32" class="edge">
<title>Node14&#45;&gt;Node14</title>
<path fill="none" stroke="#63b8ff" d="M476.76,-422C472.21,-426.38 461.13,-429.41 443.5,-429.41 413.81,-429.41 402.68,-420.81 410.1,-411.68"/>
<polygon fill="#63b8ff" stroke="#63b8ff" points="480.26,-421.73 476.9,-411.68 473.26,-421.63 480.26,-421.73"/>
</g>
<!-- Node14&#45;&gt;Node15 -->
<g id="edge34" class="edge">
<title>Node14&#45;&gt;Node15</title>
<path fill="none" stroke="#63b8ff" d="M424.05,-419.39C404.16,-442.72 370.4,-478.35 334,-499.41 328.07,-502.84 321.6,-505.82 314.99,-508.4"/>
<polygon fill="#63b8ff" stroke="#63b8ff" points="426.76,-421.6 430.5,-411.69 421.39,-417.11 426.76,-421.6"/>
</g>
<!-- Node15&#45;&gt;Node3 -->
<g id="edge36" class="edge">
<title>Node15&#45;&gt;Node3</title>
<path fill="none" stroke="#63b8ff" d="M188.46,-505.27C182.54,-503.37 176.64,-501.4 171,-499.41 147.97,-491.28 122.56,-480.88 102.81,-472.46"/>
<polygon fill="#63b8ff" stroke="#63b8ff" points="187.84,-508.74 198.43,-508.4 189.94,-502.06 187.84,-508.74"/>
</g>
<!-- Node15&#45;&gt;Node15 -->
<g id="edge35" class="edge">
<title>Node15&#45;&gt;Node15</title>
<path fill="none" stroke="#63b8ff" d="M284.71,-549C280.31,-553.38 269.57,-556.41 252.5,-556.41 223.75,-556.41 212.97,-547.81 220.16,-538.68"/>
<polygon fill="#63b8ff" stroke="#63b8ff" points="288.21,-548.73 284.84,-538.68 281.21,-548.64 288.21,-548.73"/>
</g>
<!-- Node17&#45;&gt;Node8 -->
<g id="edge47" class="edge">
<title>Node17&#45;&gt;Node8</title>
<path fill="none" stroke="#63b8ff" d="M392.86,-889.59C385.13,-886.36 377.3,-882.91 370,-879.41 337.31,-863.7 301.2,-842.63 277.98,-828.56"/>
<polygon fill="#63b8ff" stroke="#63b8ff" points="391.61,-892.86 402.19,-893.4 394.26,-886.38 391.61,-892.86"/>
</g>
<!-- Node17&#45;&gt;Node17 -->
<g id="edge46" class="edge">
<title>Node17&#45;&gt;Node17</title>
<path fill="none" stroke="#63b8ff" d="M476.76,-934C472.21,-938.38 461.13,-941.41 443.5,-941.41 413.81,-941.41 402.68,-932.81 410.1,-923.68"/>
<polygon fill="#63b8ff" stroke="#63b8ff" points="480.26,-933.73 476.9,-923.68 473.26,-933.63 480.26,-933.73"/>
</g>
<!-- Node18&#45;&gt;Node18 -->
<g id="edge49" class="edge">
<title>Node18&#45;&gt;Node18</title>
<path fill="none" stroke="#63b8ff" d="M871.46,-597C866.82,-601.38 855.5,-604.41 837.5,-604.41 807.19,-604.41 795.82,-595.81 803.4,-586.68"/>
<polygon fill="#63b8ff" stroke="#63b8ff" points="874.96,-596.73 871.6,-586.68 867.96,-596.63 874.96,-596.73"/>
</g>
<!-- Node19 -->
<g id="node19" class="node">
<title>Node19</title>
<g id="a_node19"><a xlink:href="namespaceIMGUIZMO__NAMESPACE.html#a62e43e125f953ef8035e0f600498f803" target="_top" xlink:title=" ">
<polygon fill="white" stroke="#666666" points="710,-586.41 575,-586.41 575,-556.41 710,-556.41 710,-586.41"/>
<text text-anchor="start" x="583" y="-574.41" font-family="Helvetica,sans-Serif" font-size="10.00">IMGUIZMO_NAMESPACE</text>
<text text-anchor="middle" x="642.5" y="-563.41" font-family="Helvetica,sans-Serif" font-size="10.00">::DrawCubes</text>
</a>
</g>
</g>
<!-- Node18&#45;&gt;Node19 -->
<g id="edge50" class="edge">
<title>Node18&#45;&gt;Node19</title>
<path fill="none" stroke="#63b8ff" d="M757.68,-571.41C741.93,-571.41 725.54,-571.41 710.25,-571.41"/>
<polygon fill="#63b8ff" stroke="#63b8ff" points="757.91,-574.91 767.91,-571.41 757.91,-567.91 757.91,-574.91"/>
</g>
<!-- Node20 -->
<g id="node20" class="node">
<title>Node20</title>
<g id="a_node20"><a xlink:href="namespaceIMGUIZMO__NAMESPACE.html#adf4dc750e99c0f4d188426435faab237" target="_top" xlink:title=" ">
<polygon fill="white" stroke="#666666" points="710,-520.41 575,-520.41 575,-490.41 710,-490.41 710,-520.41"/>
<text text-anchor="start" x="583" y="-508.41" font-family="Helvetica,sans-Serif" font-size="10.00">IMGUIZMO_NAMESPACE</text>
<text text-anchor="middle" x="642.5" y="-497.41" font-family="Helvetica,sans-Serif" font-size="10.00">::DrawGrid</text>
</a>
</g>
</g>
<!-- Node18&#45;&gt;Node20 -->
<g id="edge52" class="edge">
<title>Node18&#45;&gt;Node20</title>
<path fill="none" stroke="#63b8ff" d="M782.75,-553.02C752.75,-542.77 715.85,-530.15 687.57,-520.48"/>
<polygon fill="#63b8ff" stroke="#63b8ff" points="781.63,-556.34 792.22,-556.27 783.89,-549.72 781.63,-556.34"/>
</g>
<!-- Node19&#45;&gt;Node19 -->
<g id="edge51" class="edge">
<title>Node19&#45;&gt;Node19</title>
<path fill="none" stroke="#63b8ff" d="M676.46,-597C671.82,-601.38 660.5,-604.41 642.5,-604.41 612.19,-604.41 600.82,-595.81 608.4,-586.68"/>
<polygon fill="#63b8ff" stroke="#63b8ff" points="679.96,-596.73 676.6,-586.68 672.96,-596.63 679.96,-596.73"/>
</g>
<!-- Node20&#45;&gt;Node20 -->
<g id="edge53" class="edge">
<title>Node20&#45;&gt;Node20</title>
<path fill="none" stroke="#63b8ff" d="M676.46,-531C671.82,-535.38 660.5,-538.41 642.5,-538.41 612.19,-538.41 600.82,-529.81 608.4,-520.68"/>
<polygon fill="#63b8ff" stroke="#63b8ff" points="679.96,-530.73 676.6,-520.68 672.96,-530.63 679.96,-530.73"/>
</g>
<!-- Node21&#45;&gt;Node3 -->
<g id="edge56" class="edge">
<title>Node21&#45;&gt;Node3</title>
<path fill="none" stroke="#63b8ff" d="M365.7,-94.65C305.66,-98.88 223.79,-114.12 171,-162.41 85.59,-240.54 71.35,-393.53 68.97,-442.18"/>
<polygon fill="#63b8ff" stroke="#63b8ff" points="366.13,-98.13 375.89,-94.02 365.7,-91.15 366.13,-98.13"/>
</g>
<!-- Node21&#45;&gt;Node21 -->
<g id="edge55" class="edge">
<title>Node21&#45;&gt;Node21</title>
<path fill="none" stroke="#63b8ff" d="M476.76,-120C472.21,-124.38 461.13,-127.41 443.5,-127.41 413.81,-127.41 402.68,-118.81 410.1,-109.68"/>
<polygon fill="#63b8ff" stroke="#63b8ff" points="480.26,-119.73 476.9,-109.68 473.26,-119.63 480.26,-119.73"/>
</g>
<!-- Node22&#45;&gt;Node22 -->
<g id="edge69" class="edge">
<title>Node22&#45;&gt;Node22</title>
<path fill="none" stroke="#63b8ff" d="M871.46,-493C866.82,-497.38 855.5,-500.41 837.5,-500.41 807.19,-500.41 795.82,-491.81 803.4,-482.68"/>
<polygon fill="#63b8ff" stroke="#63b8ff" points="874.96,-492.73 871.6,-482.68 867.96,-492.63 874.96,-492.73"/>
</g>
<!-- Node23 -->
<g id="node23" class="node">
<title>Node23</title>
<g id="a_node23"><a xlink:href="namespaceIMGUIZMO__NAMESPACE.html#a35859961432b8c5eec1fb930f87a29f0" target="_top" xlink:title=" ">
<polygon fill="white" stroke="#666666" points="732,-302.41 553,-302.41 553,-272.41 732,-272.41 732,-302.41"/>
<text text-anchor="start" x="561" y="-290.41" font-family="Helvetica,sans-Serif" font-size="10.00">IMGUIZMO_NAMESPACE</text>
<text text-anchor="middle" x="642.5" y="-279.41" font-family="Helvetica,sans-Serif" font-size="10.00">::ComputeTripodAxisAndVisibility</text>
</a>
</g>
</g>
<!-- Node22&#45;&gt;Node23 -->
<g id="edge58" class="edge">
<title>Node22&#45;&gt;Node23</title>
<path fill="none" stroke="#63b8ff" d="M780.61,-447.55C776.11,-444.84 771.83,-441.8 768,-438.41 743.88,-417 751.61,-401.01 732,-375.41 710.52,-347.37 680.52,-319.36 661.55,-302.71"/>
<polygon fill="#63b8ff" stroke="#63b8ff" points="779.03,-450.68 789.49,-452.37 782.37,-444.53 779.03,-450.68"/>
</g>
<!-- Node23&#45;&gt;Node10 -->
<g id="edge68" class="edge">
<title>Node23&#45;&gt;Node10</title>
<path fill="none" stroke="#63b8ff" d="M542.6,-289.92C531.95,-290.19 521.31,-290.46 511.17,-290.72"/>
<polygon fill="#63b8ff" stroke="#63b8ff" points="542.89,-293.41 552.8,-289.66 542.71,-286.41 542.89,-293.41"/>
</g>
<!-- Node23&#45;&gt;Node14 -->
<g id="edge67" class="edge">
<title>Node23&#45;&gt;Node14</title>
<path fill="none" stroke="#63b8ff" d="M605.26,-307.46C566.65,-328.82 506.39,-362.16 471.66,-381.38"/>
<polygon fill="#63b8ff" stroke="#63b8ff" points="607.05,-310.47 614.11,-302.56 603.66,-304.34 607.05,-310.47"/>
</g>
<!-- Node23&#45;&gt;Node21 -->
<g id="edge66" class="edge">
<title>Node23&#45;&gt;Node21</title>
<path fill="none" stroke="#63b8ff" d="M563.58,-267.19C559.76,-264.61 556.19,-261.69 553,-258.41 513.62,-217.84 551.94,-180.85 517,-136.41 508.01,-124.97 494.98,-116.06 482.44,-109.45"/>
<polygon fill="#63b8ff" stroke="#63b8ff" points="561.92,-270.27 572.31,-272.34 565.47,-264.24 561.92,-270.27"/>
</g>
<!-- Node23&#45;&gt;Node23 -->
<g id="edge59" class="edge">
<title>Node23&#45;&gt;Node23</title>
<path fill="none" stroke="#63b8ff" d="M676.46,-313C671.82,-317.38 660.5,-320.41 642.5,-320.41 612.19,-320.41 600.82,-311.81 608.4,-302.68"/>
<polygon fill="#63b8ff" stroke="#63b8ff" points="679.96,-312.73 676.6,-302.68 672.96,-312.63 679.96,-312.73"/>
</g>
<!-- Node24 -->
<g id="node24" class="node">
<title>Node24</title>
<g id="a_node24"><a xlink:href="namespaceIMGUIZMO__NAMESPACE.html#a76d3d361aade2a1291d70611aa576422" target="_top" xlink:title=" ">
<polygon fill="white" stroke="#666666" points="511,-241.41 376,-241.41 376,-211.41 511,-211.41 511,-241.41"/>
<text text-anchor="start" x="384" y="-229.41" font-family="Helvetica,sans-Serif" font-size="10.00">IMGUIZMO_NAMESPACE</text>
<text text-anchor="middle" x="443.5" y="-218.41" font-family="Helvetica,sans-Serif" font-size="10.00">::DrawScaleGizmo</text>
</a>
</g>
</g>
<!-- Node23&#45;&gt;Node24 -->
<g id="edge60" class="edge">
<title>Node23&#45;&gt;Node24</title>
<path fill="none" stroke="#63b8ff" d="M583.16,-269.34C554.49,-260.46 520.33,-249.89 493.1,-241.46"/>
<polygon fill="#63b8ff" stroke="#63b8ff" points="582.47,-272.79 593.06,-272.41 584.54,-266.11 582.47,-272.79"/>
</g>
<!-- Node25 -->
<g id="node25" class="node">
<title>Node25</title>
<g id="a_node25"><a xlink:href="namespaceIMGUIZMO__NAMESPACE.html#a74be51ecc6e7e35bf5648f1d27848adf" target="_top" xlink:title=" ">
<polygon fill="white" stroke="#666666" points="517,-175.41 370,-175.41 370,-145.41 517,-145.41 517,-175.41"/>
<text text-anchor="start" x="378" y="-163.41" font-family="Helvetica,sans-Serif" font-size="10.00">IMGUIZMO_NAMESPACE</text>
<text text-anchor="middle" x="443.5" y="-152.41" font-family="Helvetica,sans-Serif" font-size="10.00">::DrawScaleUniveralGizmo</text>
</a>
</g>
</g>
<!-- Node23&#45;&gt;Node25 -->
<g id="edge63" class="edge">
<title>Node23&#45;&gt;Node25</title>
<path fill="none" stroke="#63b8ff" d="M568.19,-267.97C562.81,-265.19 557.67,-262.02 553,-258.41 529.59,-240.31 538.4,-222.84 517,-202.41 505.64,-191.56 490.96,-182.39 477.78,-175.41"/>
<polygon fill="#63b8ff" stroke="#63b8ff" points="566.89,-271.23 577.43,-272.3 569.85,-264.89 566.89,-271.23"/>
</g>
<!-- Node24&#45;&gt;Node3 -->
<g id="edge62" class="edge">
<title>Node24&#45;&gt;Node3</title>
<path fill="none" stroke="#63b8ff" d="M365.73,-227.76C307.42,-232.31 227.84,-246.43 171,-287.41 115.09,-327.71 83.98,-408.8 73.04,-442.35"/>
<polygon fill="#63b8ff" stroke="#63b8ff" points="366.27,-231.23 376,-227.04 365.78,-224.25 366.27,-231.23"/>
</g>
<!-- Node24&#45;&gt;Node24 -->
<g id="edge61" class="edge">
<title>Node24&#45;&gt;Node24</title>
<path fill="none" stroke="#63b8ff" d="M476.76,-252C472.21,-256.38 461.13,-259.41 443.5,-259.41 413.81,-259.41 402.68,-250.81 410.1,-241.68"/>
<polygon fill="#63b8ff" stroke="#63b8ff" points="480.26,-251.73 476.9,-241.68 473.26,-251.63 480.26,-251.73"/>
</g>
<!-- Node25&#45;&gt;Node3 -->
<g id="edge65" class="edge">
<title>Node25&#45;&gt;Node3</title>
<path fill="none" stroke="#63b8ff" d="M359.84,-162.53C301.15,-168.11 223.71,-184.22 171,-228.41 101.74,-286.47 77.41,-400.86 70.68,-442.12"/>
<polygon fill="#63b8ff" stroke="#63b8ff" points="360.17,-166.02 369.83,-161.67 359.57,-159.04 360.17,-166.02"/>
</g>
<!-- Node25&#45;&gt;Node25 -->
<g id="edge64" class="edge">
<title>Node25&#45;&gt;Node25</title>
<path fill="none" stroke="#63b8ff" d="M476.76,-186C472.21,-190.38 461.13,-193.41 443.5,-193.41 413.81,-193.41 402.68,-184.81 410.1,-175.68"/>
<polygon fill="#63b8ff" stroke="#63b8ff" points="480.26,-185.73 476.9,-175.68 473.26,-185.63 480.26,-185.73"/>
</g>
<!-- Node26&#45;&gt;Node6 -->
<g id="edge82" class="edge">
<title>Node26&#45;&gt;Node6</title>
<path fill="none" stroke="#63b8ff" d="M626.6,-786.07C604.08,-749.77 559.5,-679.69 517,-623.41 497.83,-598.02 473.47,-570.28 458.43,-553.62"/>
<polygon fill="#63b8ff" stroke="#63b8ff" points="623.85,-788.29 632.09,-794.96 629.81,-784.61 623.85,-788.29"/>
</g>
<!-- Node26&#45;&gt;Node7 -->
<g id="edge83" class="edge">
<title>Node26&#45;&gt;Node7</title>
<path fill="none" stroke="#63b8ff" d="M599.53,-790.82C539.89,-760.88 431.09,-698.17 370,-613.41 338.93,-570.3 368.14,-540.12 334,-499.41 324.28,-487.81 310.52,-479.01 297.13,-472.53"/>
<polygon fill="#63b8ff" stroke="#63b8ff" points="598.15,-794.04 608.67,-795.34 601.26,-787.76 598.15,-794.04"/>
</g>
<!-- Node26&#45;&gt;Node8 -->
<g id="edge84" class="edge">
<title>Node26&#45;&gt;Node8</title>
<path fill="none" stroke="#63b8ff" d="M583.05,-828.08C562.38,-833.5 538.85,-838.73 517,-841.41 452.15,-849.36 434.88,-849.09 370,-841.41 348.31,-838.84 324.81,-833.67 304.64,-828.46"/>
<polygon fill="#63b8ff" stroke="#63b8ff" points="584.19,-831.4 592.94,-825.42 582.37,-824.64 584.19,-831.4"/>
</g>
<!-- Node26&#45;&gt;Node15 -->
<g id="edge85" class="edge">
<title>Node26&#45;&gt;Node15</title>
<path fill="none" stroke="#63b8ff" d="M564.75,-806.95C494.59,-802.19 397.68,-791.06 370,-765.41 320.67,-719.68 364.56,-678.33 334,-618.41 317.7,-586.44 288.69,-555.98 270.31,-538.52"/>
<polygon fill="#63b8ff" stroke="#63b8ff" points="564.69,-810.45 574.89,-807.61 565.14,-803.47 564.69,-810.45"/>
</g>
<!-- Node26&#45;&gt;Node17 -->
<g id="edge74" class="edge">
<title>Node26&#45;&gt;Node17</title>
<path fill="none" stroke="#63b8ff" d="M607.61,-830.71C582.91,-845.13 548.41,-864.49 517,-879.41 506.71,-884.29 495.37,-889.09 484.77,-893.34"/>
<polygon fill="#63b8ff" stroke="#63b8ff" points="609.39,-833.72 616.24,-825.64 605.85,-827.68 609.39,-833.72"/>
</g>
<!-- Node26&#45;&gt;Node26 -->
<g id="edge86" class="edge">
<title>Node26&#45;&gt;Node26</title>
<path fill="none" stroke="#63b8ff" d="M676.46,-836C671.82,-840.38 660.5,-843.41 642.5,-843.41 612.19,-843.41 600.82,-834.81 608.4,-825.68"/>
<polygon fill="#63b8ff" stroke="#63b8ff" points="679.96,-835.73 676.6,-825.68 672.96,-835.63 679.96,-835.73"/>
</g>
<!-- Node27 -->
<g id="node27" class="node">
<title>Node27</title>
<g id="a_node27"><a xlink:href="namespaceIMGUIZMO__NAMESPACE.html#a7a66153038f229a0456937db4c9f6002" target="_top" xlink:title=" ">
<polygon fill="white" stroke="#666666" points="511,-1065.41 376,-1065.41 376,-1035.41 511,-1035.41 511,-1065.41"/>
<text text-anchor="start" x="384" y="-1053.41" font-family="Helvetica,sans-Serif" font-size="10.00">IMGUIZMO_NAMESPACE</text>
<text text-anchor="middle" x="443.5" y="-1042.41" font-family="Helvetica,sans-Serif" font-size="10.00">::ComputeCameraRay</text>
</a>
</g>
</g>
<!-- Node26&#45;&gt;Node27 -->
<g id="edge75" class="edge">
<title>Node26&#45;&gt;Node27</title>
<path fill="none" stroke="#63b8ff" d="M622.8,-833.19C582.88,-881.82 490.26,-994.66 456.82,-1035.4"/>
<polygon fill="#63b8ff" stroke="#63b8ff" points="625.54,-835.37 629.18,-825.42 620.13,-830.93 625.54,-835.37"/>
</g>
<!-- Node28 -->
<g id="node28" class="node">
<title>Node28</title>
<g id="a_node28"><a xlink:href="namespaceIMGUIZMO__NAMESPACE.html#ae66e48fbd8ef0ffad6403510c485347e" target="_top" xlink:title=" ">
<polygon fill="white" stroke="#666666" points="320,-657.41 185,-657.41 185,-627.41 320,-627.41 320,-657.41"/>
<text text-anchor="start" x="193" y="-645.41" font-family="Helvetica,sans-Serif" font-size="10.00">IMGUIZMO_NAMESPACE</text>
<text text-anchor="middle" x="252.5" y="-634.41" font-family="Helvetica,sans-Serif" font-size="10.00">::DrawRotationGizmo</text>
</a>
</g>
</g>
<!-- Node26&#45;&gt;Node28 -->
<g id="edge79" class="edge">
<title>Node26&#45;&gt;Node28</title>
<path fill="none" stroke="#63b8ff" d="M564.83,-825.84C507.8,-833.34 429.81,-834.93 370,-803.41 308.96,-771.23 272.19,-691.06 259.02,-657.53"/>
<polygon fill="#63b8ff" stroke="#63b8ff" points="565.46,-829.28 574.87,-824.43 564.48,-822.35 565.46,-829.28"/>
</g>
<!-- Node27&#45;&gt;Node2 -->
<g id="edge77" class="edge">
<title>Node27&#45;&gt;Node2</title>
<path fill="none" stroke="#63b8ff" d="M365.57,-1051.22C350.52,-1051.38 334.85,-1051.55 320.17,-1051.7"/>
<polygon fill="#63b8ff" stroke="#63b8ff" points="365.9,-1054.72 375.87,-1051.11 365.83,-1047.72 365.9,-1054.72"/>
</g>
<!-- Node27&#45;&gt;Node16 -->
<g id="edge78" class="edge">
<title>Node27&#45;&gt;Node16</title>
<path fill="none" stroke="#63b8ff" d="M370.87,-1032.97C352.54,-1028.51 332.98,-1023.75 315.2,-1019.42"/>
<polygon fill="#63b8ff" stroke="#63b8ff" points="370.07,-1036.38 380.61,-1035.35 371.73,-1029.58 370.07,-1036.38"/>
</g>
<!-- Node27&#45;&gt;Node27 -->
<g id="edge76" class="edge">
<title>Node27&#45;&gt;Node27</title>
<path fill="none" stroke="#63b8ff" d="M476.76,-1076C472.21,-1080.38 461.13,-1083.41 443.5,-1083.41 413.81,-1083.41 402.68,-1074.81 410.1,-1065.68"/>
<polygon fill="#63b8ff" stroke="#63b8ff" points="480.26,-1075.73 476.9,-1065.68 473.26,-1075.63 480.26,-1075.73"/>
</g>
<!-- Node28&#45;&gt;Node3 -->
<g id="edge81" class="edge">
<title>Node28&#45;&gt;Node3</title>
<path fill="none" stroke="#63b8ff" d="M227.79,-620.3C211.6,-605.06 189.77,-584.25 171,-565.41 138.71,-532.99 102.07,-493.77 82.53,-472.65"/>
<polygon fill="#63b8ff" stroke="#63b8ff" points="225.55,-623 235.24,-627.29 230.34,-617.9 225.55,-623"/>
</g>
<!-- Node28&#45;&gt;Node28 -->
<g id="edge80" class="edge">
<title>Node28&#45;&gt;Node28</title>
<path fill="none" stroke="#63b8ff" d="M284.71,-668C280.31,-672.38 269.57,-675.41 252.5,-675.41 223.75,-675.41 212.97,-666.81 220.16,-657.68"/>
<polygon fill="#63b8ff" stroke="#63b8ff" points="288.21,-667.73 284.84,-657.68 281.21,-667.64 288.21,-667.73"/>
</g>
</g>
</svg>
