<?xml version="1.0" encoding="UTF-8" standalone="no"?>
<!DOCTYPE svg PUBLIC "-//W3C//DTD SVG 1.1//EN"
 "http://www.w3.org/Graphics/SVG/1.1/DTD/svg11.dtd">
<!-- Generated by graphviz version 2.43.0 (0)
 -->
<!-- Title: ImFontAtlas::GetTexDataAsRGBA32 Pages: 1 -->
<svg width="1621pt" height="988pt"
 viewBox="0.00 0.00 1621.00 987.50" xmlns="http://www.w3.org/2000/svg" xmlns:xlink="http://www.w3.org/1999/xlink">
<g id="graph0" class="graph" transform="scale(1 1) rotate(0) translate(4 983.5)">
<title>ImFontAtlas::GetTexDataAsRGBA32</title>
<!-- Node1 -->
<g id="node1" class="node">
<title>Node1</title>
<g id="a_node1"><a xlink:title=" ">
<polygon fill="#999999" stroke="#666666" points="150,-404.5 0,-404.5 0,-374.5 150,-374.5 150,-404.5"/>
<text text-anchor="start" x="8" y="-392.5" font-family="Helvetica,sans-Serif" font-size="10.00">ImFontAtlas::GetTexDataAs</text>
<text text-anchor="middle" x="75" y="-381.5" font-family="Helvetica,sans-Serif" font-size="10.00">RGBA32</text>
</a>
</g>
</g>
<!-- Node2 -->
<g id="node2" class="node">
<title>Node2</title>
<g id="a_node2"><a xlink:href="imgui__draw_8cpp.html#a716f90bbbb825a71a7e17de856038d5c" target="_top" xlink:title=" ">
<polygon fill="white" stroke="#666666" points="306,-399 186,-399 186,-380 306,-380 306,-399"/>
<text text-anchor="middle" x="246" y="-387" font-family="Helvetica,sans-Serif" font-size="10.00">GetTexDataAsFormat</text>
</a>
</g>
</g>
<!-- Node1&#45;&gt;Node2 -->
<g id="edge1" class="edge">
<title>Node1&#45;&gt;Node2</title>
<path fill="none" stroke="#63b8ff" d="M150.13,-389.5C158.64,-389.5 167.29,-389.5 175.74,-389.5"/>
<polygon fill="#63b8ff" stroke="#63b8ff" points="175.91,-393 185.91,-389.5 175.91,-386 175.91,-393"/>
</g>
<!-- Node3 -->
<g id="node3" class="node">
<title>Node3</title>
<g id="a_node3"><a xlink:href="structImFontAtlas.html#a81e39e30dffa4dd7e458a53297451e27" target="_top" xlink:title=" ">
<polygon fill="white" stroke="#666666" points="448,-399 342,-399 342,-380 448,-380 448,-399"/>
<text text-anchor="middle" x="395" y="-387" font-family="Helvetica,sans-Serif" font-size="10.00">ImFontAtlas::Build</text>
</a>
</g>
</g>
<!-- Node2&#45;&gt;Node3 -->
<g id="edge2" class="edge">
<title>Node2&#45;&gt;Node3</title>
<path fill="none" stroke="#63b8ff" d="M306.37,-389.5C314.75,-389.5 323.39,-389.5 331.83,-389.5"/>
<polygon fill="#63b8ff" stroke="#63b8ff" points="331.98,-393 341.98,-389.5 331.98,-386 331.98,-393"/>
</g>
<!-- Node4 -->
<g id="node4" class="node">
<title>Node4</title>
<g id="a_node4"><a xlink:href="imgui__draw_8cpp.html#a2ed1c49f29c1635abb9d187846311e43" target="_top" xlink:title=" ">
<polygon fill="white" stroke="#666666" points="608,-399 484,-399 484,-380 608,-380 608,-399"/>
<text text-anchor="middle" x="546" y="-387" font-family="Helvetica,sans-Serif" font-size="10.00">ImFontAtlasBuildMain</text>
</a>
</g>
</g>
<!-- Node3&#45;&gt;Node4 -->
<g id="edge3" class="edge">
<title>Node3&#45;&gt;Node4</title>
<path fill="none" stroke="#63b8ff" d="M448.11,-389.5C456.44,-389.5 465.17,-389.5 473.85,-389.5"/>
<polygon fill="#63b8ff" stroke="#63b8ff" points="473.97,-393 483.97,-389.5 473.97,-386 473.97,-393"/>
</g>
<!-- Node5 -->
<g id="node5" class="node">
<title>Node5</title>
<g id="a_node5"><a xlink:href="structImFontAtlas.html#a9d2b4a94579bf603a0d2662cd8348cbd" target="_top" xlink:title=" ">
<polygon fill="white" stroke="#666666" points="808,-840 651,-840 651,-821 808,-821 808,-840"/>
<text text-anchor="middle" x="729.5" y="-828" font-family="Helvetica,sans-Serif" font-size="10.00">ImFontAtlas::AddFontDefault</text>
</a>
</g>
</g>
<!-- Node4&#45;&gt;Node5 -->
<g id="edge4" class="edge">
<title>Node4&#45;&gt;Node5</title>
<path fill="none" stroke="#63b8ff" d="M547.7,-399.12C551.26,-442.69 570.09,-624.76 644,-749.5 659.9,-776.34 687.11,-800.11 706.35,-814.85"/>
<polygon fill="#63b8ff" stroke="#63b8ff" points="704.45,-817.8 714.56,-820.96 708.63,-812.18 704.45,-817.8"/>
</g>
<!-- Node116 -->
<g id="node13" class="node">
<title>Node116</title>
<g id="a_node13"><a xlink:href="imgui__draw_8cpp.html#a3feab149778d739a3fb681a0c9c16f7a" target="_top" xlink:title=" ">
<polygon fill="white" stroke="#666666" points="1220,-327 1082,-327 1082,-308 1220,-308 1220,-327"/>
<text text-anchor="middle" x="1151" y="-315" font-family="Helvetica,sans-Serif" font-size="10.00">ImFontAtlasBuildDestroy</text>
</a>
</g>
</g>
<!-- Node4&#45;&gt;Node116 -->
<g id="edge13" class="edge">
<title>Node4&#45;&gt;Node116</title>
<path fill="none" stroke="#63b8ff" d="M602.11,-399.04C694.59,-412.51 885.14,-429.33 1030,-369.5 1050.06,-361.21 1046.77,-346.57 1066,-336.5 1070.52,-334.13 1075.33,-332.06 1080.27,-330.25"/>
<polygon fill="#63b8ff" stroke="#63b8ff" points="1081.49,-333.53 1089.88,-327.06 1079.29,-326.88 1081.49,-333.53"/>
</g>
<!-- Node13 -->
<g id="node18" class="node">
<title>Node13</title>
<g id="a_node18"><a xlink:href="imgui__draw_8cpp.html#ac050ff181df43cec0b63d834b6039c3f" target="_top" xlink:title=" ">
<polygon fill="white" stroke="#666666" points="787.5,-342 671.5,-342 671.5,-323 787.5,-323 787.5,-342"/>
<text text-anchor="middle" x="729.5" y="-330" font-family="Helvetica,sans-Serif" font-size="10.00">ImFontAtlasBuildInit</text>
</a>
</g>
</g>
<!-- Node4&#45;&gt;Node13 -->
<g id="edge18" class="edge">
<title>Node4&#45;&gt;Node13</title>
<path fill="none" stroke="#63b8ff" d="M577.38,-379.96C607.74,-370.42 654.61,-355.71 688.09,-345.19"/>
<polygon fill="#63b8ff" stroke="#63b8ff" points="689.53,-348.41 698.02,-342.07 687.43,-341.73 689.53,-348.41"/>
</g>
<!-- Node68 -->
<g id="node28" class="node">
<title>Node68</title>
<g id="a_node28"><a xlink:href="imgui__draw_8cpp.html#a159e6385167812b148f32d4fb6cb6817" target="_top" xlink:title=" ">
<polygon fill="white" stroke="#666666" points="1030,-141.5 851,-141.5 851,-111.5 1030,-111.5 1030,-141.5"/>
<text text-anchor="start" x="859" y="-129.5" font-family="Helvetica,sans-Serif" font-size="10.00">ImFontAtlasBuildUpdateRenderer</text>
<text text-anchor="middle" x="940.5" y="-118.5" font-family="Helvetica,sans-Serif" font-size="10.00">HasTexturesFromContext</text>
</a>
</g>
</g>
<!-- Node4&#45;&gt;Node68 -->
<g id="edge59" class="edge">
<title>Node4&#45;&gt;Node68</title>
<path fill="none" stroke="#63b8ff" d="M556.46,-379.61C591.73,-343.32 720.22,-216.2 851,-150.5 854.76,-148.61 858.69,-146.86 862.71,-145.23"/>
<polygon fill="#63b8ff" stroke="#63b8ff" points="864.09,-148.45 872.22,-141.65 861.63,-141.89 864.09,-148.45"/>
</g>
<!-- Node53 -->
<g id="node37" class="node">
<title>Node53</title>
<g id="a_node37"><a xlink:href="imgui__draw_8cpp.html#a5279b1dafad68a1ab42121440c59ce0f" target="_top" xlink:title=" ">
<polygon fill="white" stroke="#666666" points="1005.5,-680 875.5,-680 875.5,-661 1005.5,-661 1005.5,-680"/>
<text text-anchor="middle" x="940.5" y="-668" font-family="Helvetica,sans-Serif" font-size="10.00">ImFontAtlasTextureAdd</text>
</a>
</g>
</g>
<!-- Node4&#45;&gt;Node53 -->
<g id="edge60" class="edge">
<title>Node4&#45;&gt;Node53</title>
<path fill="none" stroke="#63b8ff" d="M554.73,-399.09C586.6,-437.89 712.59,-584.45 851,-652.5 855.63,-654.78 860.53,-656.76 865.56,-658.5"/>
<polygon fill="#63b8ff" stroke="#63b8ff" points="864.76,-661.92 875.34,-661.54 866.83,-655.23 864.76,-661.92"/>
</g>
<!-- Node117 -->
<g id="node44" class="node">
<title>Node117</title>
<g id="a_node44"><a xlink:href="imgui__draw_8cpp.html#abd1950f96c48e04b73b586942c94918d" target="_top" xlink:title=" ">
<polygon fill="white" stroke="#666666" points="815,-740.5 644,-740.5 644,-710.5 815,-710.5 815,-740.5"/>
<text text-anchor="start" x="652" y="-728.5" font-family="Helvetica,sans-Serif" font-size="10.00">ImFontAtlasBuildLegacyPreload</text>
<text text-anchor="middle" x="729.5" y="-717.5" font-family="Helvetica,sans-Serif" font-size="10.00">AllGlyphRanges</text>
</a>
</g>
</g>
<!-- Node4&#45;&gt;Node117 -->
<g id="edge54" class="edge">
<title>Node4&#45;&gt;Node117</title>
<path fill="none" stroke="#63b8ff" d="M551.33,-399.14C564.43,-428.11 605.1,-516.72 644,-587.5 666.61,-628.64 695.71,-674.88 713.19,-702.02"/>
<polygon fill="#63b8ff" stroke="#63b8ff" points="710.28,-703.96 718.65,-710.46 716.16,-700.16 710.28,-703.96"/>
</g>
<!-- Node139 -->
<g id="node48" class="node">
<title>Node139</title>
<g id="a_node48"><a xlink:href="imgui__draw_8cpp.html#ac1de9fff83244136935700a8ae67a7c9" target="_top" xlink:title=" ">
<polygon fill="white" stroke="#666666" points="804,-80.5 655,-80.5 655,-50.5 804,-50.5 804,-80.5"/>
<text text-anchor="start" x="663" y="-68.5" font-family="Helvetica,sans-Serif" font-size="10.00">ImFontAtlasTextureGetSize</text>
<text text-anchor="middle" x="729.5" y="-57.5" font-family="Helvetica,sans-Serif" font-size="10.00">Estimate</text>
</a>
</g>
</g>
<!-- Node4&#45;&gt;Node139 -->
<g id="edge61" class="edge">
<title>Node4&#45;&gt;Node139</title>
<path fill="none" stroke="#63b8ff" d="M551.87,-379.88C565.79,-352.51 607.07,-271.95 644,-206.5 667.56,-164.74 696.59,-117.06 713.76,-89.22"/>
<polygon fill="#63b8ff" stroke="#63b8ff" points="716.83,-90.92 719.11,-80.58 710.87,-87.24 716.83,-90.92"/>
</g>
<!-- Node6 -->
<g id="node6" class="node">
<title>Node6</title>
<g id="a_node6"><a xlink:href="structImFontAtlas.html#a7da214e3b090724bbc43e77ee254870d" target="_top" xlink:title=" ">
<polygon fill="white" stroke="#666666" points="1013.5,-936.5 867.5,-936.5 867.5,-906.5 1013.5,-906.5 1013.5,-936.5"/>
<text text-anchor="start" x="875.5" y="-924.5" font-family="Helvetica,sans-Serif" font-size="10.00">ImFontAtlas::AddFontFrom</text>
<text text-anchor="middle" x="940.5" y="-913.5" font-family="Helvetica,sans-Serif" font-size="10.00">MemoryCompressedTTF</text>
</a>
</g>
</g>
<!-- Node5&#45;&gt;Node6 -->
<g id="edge5" class="edge">
<title>Node5&#45;&gt;Node6</title>
<path fill="none" stroke="#63b8ff" d="M745.13,-840.18C767.25,-854.45 810.86,-881.18 851,-897.5 856.07,-899.56 861.37,-901.5 866.76,-903.32"/>
<polygon fill="#63b8ff" stroke="#63b8ff" points="865.91,-906.72 876.5,-906.45 868.05,-900.06 865.91,-906.72"/>
</g>
<!-- Node113 -->
<g id="node10" class="node">
<title>Node113</title>
<g id="a_node10"><a xlink:href="imgui__draw_8cpp.html#abc3b462ef2c5ef511d4f7231e3d9b853" target="_top" xlink:title=" ">
<polygon fill="white" stroke="#666666" points="1016.5,-888.5 864.5,-888.5 864.5,-858.5 1016.5,-858.5 1016.5,-888.5"/>
<text text-anchor="start" x="872.5" y="-876.5" font-family="Helvetica,sans-Serif" font-size="10.00">GetDefaultCompressedFont</text>
<text text-anchor="middle" x="940.5" y="-865.5" font-family="Helvetica,sans-Serif" font-size="10.00">DataTTF</text>
</a>
</g>
</g>
<!-- Node5&#45;&gt;Node113 -->
<g id="edge10" class="edge">
<title>Node5&#45;&gt;Node113</title>
<path fill="none" stroke="#63b8ff" d="M776.88,-840.04C800.34,-844.87 829.52,-850.87 856.67,-856.46"/>
<polygon fill="#63b8ff" stroke="#63b8ff" points="856.06,-859.91 866.56,-858.49 857.47,-853.05 856.06,-859.91"/>
</g>
<!-- Node114 -->
<g id="node11" class="node">
<title>Node114</title>
<g id="a_node11"><a xlink:href="structImFontAtlas.html#adec0df140eb1dc01c2a22a5253d62820" target="_top" xlink:title=" ">
<polygon fill="white" stroke="#666666" points="1022,-802.5 859,-802.5 859,-772.5 1022,-772.5 1022,-802.5"/>
<text text-anchor="start" x="867" y="-790.5" font-family="Helvetica,sans-Serif" font-size="10.00">ImFontAtlas::GetGlyphRanges</text>
<text text-anchor="middle" x="940.5" y="-779.5" font-family="Helvetica,sans-Serif" font-size="10.00">Default</text>
</a>
</g>
</g>
<!-- Node5&#45;&gt;Node114 -->
<g id="edge11" class="edge">
<title>Node5&#45;&gt;Node114</title>
<path fill="none" stroke="#63b8ff" d="M776.88,-820.96C800.34,-816.13 829.52,-810.13 856.67,-804.54"/>
<polygon fill="#63b8ff" stroke="#63b8ff" points="857.47,-807.95 866.56,-802.51 856.06,-801.09 857.47,-807.95"/>
</g>
<!-- Node115 -->
<g id="node12" class="node">
<title>Node115</title>
<g id="a_node12"><a xlink:href="imgui_8cpp.html#a75ccaf7d676b1f567ba888ae42ac3809" target="_top" xlink:title=" ">
<polygon fill="white" stroke="#666666" points="986.5,-840 894.5,-840 894.5,-821 986.5,-821 986.5,-840"/>
<text text-anchor="middle" x="940.5" y="-828" font-family="Helvetica,sans-Serif" font-size="10.00">ImFormatString</text>
</a>
</g>
</g>
<!-- Node5&#45;&gt;Node115 -->
<g id="edge12" class="edge">
<title>Node5&#45;&gt;Node115</title>
<path fill="none" stroke="#63b8ff" d="M808.03,-830.5C833.33,-830.5 860.89,-830.5 884.21,-830.5"/>
<polygon fill="#63b8ff" stroke="#63b8ff" points="884.27,-834 894.27,-830.5 884.27,-827 884.27,-834"/>
</g>
<!-- Node7 -->
<g id="node7" class="node">
<title>Node7</title>
<g id="a_node7"><a xlink:href="structImFontAtlas.html#ad7e1ae24061d41f667546626dc39ef09" target="_top" xlink:title=" ">
<polygon fill="#fff0f0" stroke="red" points="1224,-979.5 1078,-979.5 1078,-949.5 1224,-949.5 1224,-979.5"/>
<text text-anchor="start" x="1086" y="-967.5" font-family="Helvetica,sans-Serif" font-size="10.00">ImFontAtlas::AddFontFrom</text>
<text text-anchor="middle" x="1151" y="-956.5" font-family="Helvetica,sans-Serif" font-size="10.00">MemoryTTF</text>
</a>
</g>
</g>
<!-- Node6&#45;&gt;Node7 -->
<g id="edge6" class="edge">
<title>Node6&#45;&gt;Node7</title>
<path fill="none" stroke="#63b8ff" d="M1013.55,-936.36C1031.12,-939.98 1050.06,-943.89 1068.06,-947.6"/>
<polygon fill="#63b8ff" stroke="#63b8ff" points="1067.45,-951.05 1077.95,-949.64 1068.86,-944.19 1067.45,-951.05"/>
</g>
<!-- Node107 -->
<g id="node8" class="node">
<title>Node107</title>
<g id="a_node8"><a xlink:href="imgui__draw_8cpp.html#a23f899d930c93d351569ee83cf920570" target="_top" xlink:title=" ">
<polygon fill="#fff0f0" stroke="red" points="1199,-893 1103,-893 1103,-874 1199,-874 1199,-893"/>
<text text-anchor="middle" x="1151" y="-881" font-family="Helvetica,sans-Serif" font-size="10.00">stb_decompress</text>
</a>
</g>
</g>
<!-- Node6&#45;&gt;Node107 -->
<g id="edge7" class="edge">
<title>Node6&#45;&gt;Node107</title>
<path fill="none" stroke="#63b8ff" d="M1013.55,-908.37C1039.51,-903.64 1068.44,-898.37 1092.95,-893.9"/>
<polygon fill="#63b8ff" stroke="#63b8ff" points="1093.6,-897.34 1102.81,-892.1 1092.34,-890.45 1093.6,-897.34"/>
</g>
<!-- Node109 -->
<g id="node9" class="node">
<title>Node109</title>
<g id="a_node9"><a xlink:href="imgui__draw_8cpp.html#a5a5301def23b33e2156ac79a8b65c69b" target="_top" xlink:title=" ">
<polygon fill="white" stroke="#666666" points="1421.5,-912 1289.5,-912 1289.5,-893 1421.5,-893 1421.5,-912"/>
<text text-anchor="middle" x="1355.5" y="-900" font-family="Helvetica,sans-Serif" font-size="10.00">stb_decompress_length</text>
</a>
</g>
</g>
<!-- Node6&#45;&gt;Node109 -->
<g id="edge9" class="edge">
<title>Node6&#45;&gt;Node109</title>
<path fill="none" stroke="#63b8ff" d="M1013.91,-918.17C1088.26,-914.75 1203.47,-909.45 1278.94,-905.98"/>
<polygon fill="#63b8ff" stroke="#63b8ff" points="1279.49,-909.45 1289.32,-905.5 1279.17,-902.46 1279.49,-909.45"/>
</g>
<!-- Node107&#45;&gt;Node109 -->
<g id="edge8" class="edge">
<title>Node107&#45;&gt;Node109</title>
<path fill="none" stroke="#63b8ff" d="M1199.22,-887.93C1222.95,-890.16 1252.28,-892.91 1279.04,-895.42"/>
<polygon fill="#63b8ff" stroke="#63b8ff" points="1278.87,-898.92 1289.15,-896.37 1279.52,-891.95 1278.87,-898.92"/>
</g>
<!-- Node10 -->
<g id="node14" class="node">
<title>Node10</title>
<g id="a_node14"><a xlink:href="imgui_8h.html#a3c856832c3fe1da8767a9353da3707e1" target="_top" xlink:title=" ">
<polygon fill="white" stroke="#666666" points="1391,-466 1320,-466 1320,-447 1391,-447 1391,-466"/>
<text text-anchor="middle" x="1355.5" y="-454" font-family="Helvetica,sans-Serif" font-size="10.00">IM_DELETE</text>
</a>
</g>
</g>
<!-- Node116&#45;&gt;Node10 -->
<g id="edge14" class="edge">
<title>Node116&#45;&gt;Node10</title>
<path fill="none" stroke="#63b8ff" d="M1213.62,-327.13C1221.41,-329.58 1229.07,-332.65 1236,-336.5 1282.48,-362.32 1322.64,-411.89 1342.07,-438.52"/>
<polygon fill="#63b8ff" stroke="#63b8ff" points="1339.39,-440.8 1348.05,-446.91 1345.09,-436.74 1339.39,-440.8"/>
</g>
<!-- Node94 -->
<g id="node16" class="node">
<title>Node94</title>
<g id="a_node16"><a xlink:href="imgui__draw_8cpp.html#af583742e2268ebaef124cba2fa666e6b" target="_top" xlink:title=" ">
<polygon fill="white" stroke="#666666" points="1439,-305 1272,-305 1272,-286 1439,-286 1439,-305"/>
<text text-anchor="middle" x="1355.5" y="-293" font-family="Helvetica,sans-Serif" font-size="10.00">ImFontAtlasFontDestroyOutput</text>
</a>
</g>
</g>
<!-- Node116&#45;&gt;Node94 -->
<g id="edge16" class="edge">
<title>Node116&#45;&gt;Node94</title>
<path fill="none" stroke="#63b8ff" d="M1220.27,-310.08C1233.58,-308.64 1247.74,-307.1 1261.68,-305.58"/>
<polygon fill="#63b8ff" stroke="#63b8ff" points="1262.22,-309.05 1271.78,-304.49 1261.46,-302.09 1262.22,-309.05"/>
</g>
<!-- Node11 -->
<g id="node15" class="node">
<title>Node11</title>
<g id="a_node15"><a xlink:href="namespaceImGui.html#a269ec695c6e722ec3da85dae37f0675d" target="_top" xlink:title=" ">
<polygon fill="#fff0f0" stroke="red" points="1593,-466 1495,-466 1495,-447 1593,-447 1593,-466"/>
<text text-anchor="middle" x="1544" y="-454" font-family="Helvetica,sans-Serif" font-size="10.00">ImGui::MemFree</text>
</a>
</g>
</g>
<!-- Node10&#45;&gt;Node11 -->
<g id="edge15" class="edge">
<title>Node10&#45;&gt;Node11</title>
<path fill="none" stroke="#63b8ff" d="M1391.14,-456.5C1417.36,-456.5 1453.97,-456.5 1484.67,-456.5"/>
<polygon fill="#63b8ff" stroke="#63b8ff" points="1484.83,-460 1494.83,-456.5 1484.83,-453 1484.83,-460"/>
</g>
<!-- Node95 -->
<g id="node17" class="node">
<title>Node95</title>
<g id="a_node17"><a xlink:href="structImFont.html#aecf7773b1c40b433f91ee245f463de12" target="_top" xlink:title=" ">
<polygon fill="#fff0f0" stroke="red" points="1613,-305 1475,-305 1475,-286 1613,-286 1613,-305"/>
<text text-anchor="middle" x="1544" y="-293" font-family="Helvetica,sans-Serif" font-size="10.00">ImFont::ClearOutputData</text>
</a>
</g>
</g>
<!-- Node94&#45;&gt;Node95 -->
<g id="edge17" class="edge">
<title>Node94&#45;&gt;Node95</title>
<path fill="none" stroke="#63b8ff" d="M1439.12,-295.5C1447.64,-295.5 1456.28,-295.5 1464.75,-295.5"/>
<polygon fill="#63b8ff" stroke="#63b8ff" points="1464.98,-299 1474.98,-295.5 1464.98,-292 1464.98,-299"/>
</g>
<!-- Node14 -->
<g id="node19" class="node">
<title>Node14</title>
<g id="a_node19"><a xlink:href="imgui__draw_8cpp.html#ab393bf8b3bb80eec2e65edae02153d8c" target="_top" xlink:title=" ">
<polygon fill="white" stroke="#666666" points="1021,-189.5 860,-189.5 860,-159.5 1021,-159.5 1021,-189.5"/>
<text text-anchor="start" x="868" y="-177.5" font-family="Helvetica,sans-Serif" font-size="10.00">ImFontAtlasBuildUpdateBasic</text>
<text text-anchor="middle" x="940.5" y="-166.5" font-family="Helvetica,sans-Serif" font-size="10.00">TexData</text>
</a>
</g>
</g>
<!-- Node13&#45;&gt;Node14 -->
<g id="edge19" class="edge">
<title>Node13&#45;&gt;Node14</title>
<path fill="none" stroke="#63b8ff" d="M738.7,-322.76C763.51,-293.38 836.88,-207.19 851,-198.5 853.78,-196.79 856.68,-195.2 859.67,-193.72"/>
<polygon fill="#63b8ff" stroke="#63b8ff" points="861.15,-196.89 868.85,-189.61 858.29,-190.5 861.15,-196.89"/>
</g>
<!-- Node49 -->
<g id="node24" class="node">
<title>Node49</title>
<g id="a_node24"><a xlink:href="imgui__draw_8cpp.html#ae1947e9ba26126e2cd94f8772df62b88" target="_top" xlink:title=" ">
<polygon fill="white" stroke="#666666" points="1021,-285.5 860,-285.5 860,-255.5 1021,-255.5 1021,-285.5"/>
<text text-anchor="start" x="868" y="-273.5" font-family="Helvetica,sans-Serif" font-size="10.00">ImFontAtlasBuildUpdateLines</text>
<text text-anchor="middle" x="940.5" y="-262.5" font-family="Helvetica,sans-Serif" font-size="10.00">TexData</text>
</a>
</g>
</g>
<!-- Node13&#45;&gt;Node49 -->
<g id="edge26" class="edge">
<title>Node13&#45;&gt;Node49</title>
<path fill="none" stroke="#63b8ff" d="M762.7,-322.95C793.5,-313.81 840.73,-299.8 878.63,-288.56"/>
<polygon fill="#63b8ff" stroke="#63b8ff" points="879.95,-291.82 888.55,-285.62 877.96,-285.1 879.95,-291.82"/>
</g>
<!-- Node67 -->
<g id="node25" class="node">
<title>Node67</title>
<g id="a_node25"><a xlink:href="imgui__draw_8cpp.html#a5bc852b30a75c2601a2bbea053210069" target="_top" xlink:title=" ">
<polygon fill="white" stroke="#666666" points="1028,-643 853,-643 853,-624 1028,-624 1028,-643"/>
<text text-anchor="middle" x="940.5" y="-631" font-family="Helvetica,sans-Serif" font-size="10.00">ImFontAtlasBuildUpdatePointers</text>
</a>
</g>
</g>
<!-- Node13&#45;&gt;Node67 -->
<g id="edge30" class="edge">
<title>Node13&#45;&gt;Node67</title>
<path fill="none" stroke="#63b8ff" d="M733.75,-342.32C745.36,-376.3 787.48,-490.96 851,-566.5 868.99,-587.89 895,-606.55 914.17,-618.7"/>
<polygon fill="#63b8ff" stroke="#63b8ff" points="912.36,-621.7 922.7,-623.98 916.03,-615.74 912.36,-621.7"/>
</g>
<!-- Node13&#45;&gt;Node68 -->
<g id="edge33" class="edge">
<title>Node13&#45;&gt;Node68</title>
<path fill="none" stroke="#63b8ff" d="M740.76,-322.75C757.92,-306 792.75,-270.13 815,-234.5 836.51,-200.05 820.34,-177.14 851,-150.5 852.36,-149.32 853.78,-148.19 855.24,-147.12"/>
<polygon fill="#63b8ff" stroke="#63b8ff" points="857.46,-149.85 864.06,-141.56 853.73,-143.93 857.46,-149.85"/>
</g>
<!-- Node69 -->
<g id="node29" class="node">
<title>Node69</title>
<g id="a_node29"><a xlink:href="imgui__draw_8cpp.html#a2445ec6272ab6f7597ad4012e178a5d6" target="_top" xlink:title=" ">
<polygon fill="white" stroke="#666666" points="1013.5,-469.5 867.5,-469.5 867.5,-439.5 1013.5,-439.5 1013.5,-469.5"/>
<text text-anchor="start" x="875.5" y="-457.5" font-family="Helvetica,sans-Serif" font-size="10.00">ImFontAtlasGetFontLoader</text>
<text text-anchor="middle" x="940.5" y="-446.5" font-family="Helvetica,sans-Serif" font-size="10.00">ForStbTruetype</text>
</a>
</g>
</g>
<!-- Node13&#45;&gt;Node69 -->
<g id="edge34" class="edge">
<title>Node13&#45;&gt;Node69</title>
<path fill="none" stroke="#63b8ff" d="M746.9,-342.07C780.82,-361.87 859.33,-407.7 904.95,-434.33"/>
<polygon fill="#63b8ff" stroke="#63b8ff" points="903.21,-437.37 913.61,-439.39 906.74,-431.32 903.21,-437.37"/>
</g>
<!-- Node51 -->
<g id="node35" class="node">
<title>Node51</title>
<g id="a_node35"><a xlink:href="imgui__draw_8cpp.html#a352dcf39de7ba575d8e1c1db1f11c45a" target="_top" xlink:title=" ">
<polygon fill="white" stroke="#666666" points="997,-557 884,-557 884,-538 997,-538 997,-557"/>
<text text-anchor="middle" x="940.5" y="-545" font-family="Helvetica,sans-Serif" font-size="10.00">ImFontAtlasPackInit</text>
</a>
</g>
</g>
<!-- Node13&#45;&gt;Node51 -->
<g id="edge43" class="edge">
<title>Node13&#45;&gt;Node51</title>
<path fill="none" stroke="#63b8ff" d="M737.45,-342.34C754.96,-366.8 802.94,-431.75 851,-478.5 871.76,-498.69 898.26,-518.71 916.83,-531.93"/>
<polygon fill="#63b8ff" stroke="#63b8ff" points="915.05,-534.96 925.24,-537.85 919.08,-529.24 915.05,-534.96"/>
</g>
<!-- Node13&#45;&gt;Node53 -->
<g id="edge45" class="edge">
<title>Node13&#45;&gt;Node53</title>
<path fill="none" stroke="#63b8ff" d="M734.05,-342.03C753.82,-395.04 849.38,-651.12 851,-652.5 855.51,-656.34 860.62,-659.44 866.05,-661.94"/>
<polygon fill="#63b8ff" stroke="#63b8ff" points="864.86,-665.23 875.45,-665.59 867.39,-658.7 864.86,-665.23"/>
</g>
<!-- Node58 -->
<g id="node40" class="node">
<title>Node58</title>
<g id="a_node40"><a xlink:href="imgui__draw_8cpp.html#ad83271ddd5cf9c02c9cc72fb33299369" target="_top" xlink:title=" ">
<polygon fill="white" stroke="#666666" points="1019.5,-237.5 861.5,-237.5 861.5,-207.5 1019.5,-207.5 1019.5,-237.5"/>
<text text-anchor="start" x="869.5" y="-225.5" font-family="Helvetica,sans-Serif" font-size="10.00">ImFontAtlasUpdateDrawLists</text>
<text text-anchor="middle" x="940.5" y="-214.5" font-family="Helvetica,sans-Serif" font-size="10.00">SharedData</text>
</a>
</g>
</g>
<!-- Node13&#45;&gt;Node58 -->
<g id="edge49" class="edge">
<title>Node13&#45;&gt;Node58</title>
<path fill="none" stroke="#63b8ff" d="M741.28,-322.75C761.39,-305.04 806.63,-267.51 851,-246.5 855.08,-244.57 859.33,-242.77 863.68,-241.1"/>
<polygon fill="#63b8ff" stroke="#63b8ff" points="865.08,-244.32 873.31,-237.65 862.72,-237.73 865.08,-244.32"/>
</g>
<!-- Node62 -->
<g id="node41" class="node">
<title>Node62</title>
<g id="a_node41"><a xlink:href="imgui__internal_8h.html#adae096c61c812293ec61ac541c146674" target="_top" xlink:title=" ">
<polygon fill="white" stroke="#666666" points="1000,-93 881,-93 881,-74 1000,-74 1000,-93"/>
<text text-anchor="middle" x="940.5" y="-81" font-family="Helvetica,sans-Serif" font-size="10.00">ImUpperPowerOfTwo</text>
</a>
</g>
</g>
<!-- Node13&#45;&gt;Node62 -->
<g id="edge50" class="edge">
<title>Node13&#45;&gt;Node62</title>
<path fill="none" stroke="#63b8ff" d="M732.51,-322.73C740.39,-286.94 772.76,-161.96 851,-102.5 856.94,-97.99 863.71,-94.5 870.81,-91.8"/>
<polygon fill="#63b8ff" stroke="#63b8ff" points="872.22,-95.03 880.64,-88.6 870.05,-88.37 872.22,-95.03"/>
</g>
<!-- Node92 -->
<g id="node42" class="node">
<title>Node92</title>
<g id="a_node42"><a xlink:href="structImFontAtlas.html#abeefaa367a36b73d215b1578b5ab1c70" target="_top" xlink:title=" ">
<polygon fill="white" stroke="#666666" points="1016,-361 865,-361 865,-342 1016,-342 1016,-361"/>
<text text-anchor="middle" x="940.5" y="-349" font-family="Helvetica,sans-Serif" font-size="10.00">ImFontAtlas::SetFontLoader</text>
</a>
</g>
</g>
<!-- Node13&#45;&gt;Node92 -->
<g id="edge51" class="edge">
<title>Node13&#45;&gt;Node92</title>
<path fill="none" stroke="#63b8ff" d="M787.61,-337.69C808.26,-339.57 832.04,-341.73 854.56,-343.78"/>
<polygon fill="#63b8ff" stroke="#63b8ff" points="854.53,-347.29 864.8,-344.71 855.16,-340.32 854.53,-347.29"/>
</g>
<!-- Node15 -->
<g id="node20" class="node">
<title>Node15</title>
<g id="a_node20"><a xlink:href="structImFontAtlas.html#ab4660128958e0c30577056975ef8dc29" target="_top" xlink:title=" ">
<polygon fill="#fff0f0" stroke="red" points="1230.5,-203 1071.5,-203 1071.5,-184 1230.5,-184 1230.5,-203"/>
<text text-anchor="middle" x="1151" y="-191" font-family="Helvetica,sans-Serif" font-size="10.00">ImFontAtlas::AddCustomRect</text>
</a>
</g>
</g>
<!-- Node14&#45;&gt;Node15 -->
<g id="edge20" class="edge">
<title>Node14&#45;&gt;Node15</title>
<path fill="none" stroke="#63b8ff" d="M1021.22,-181.76C1034.32,-182.96 1047.97,-184.2 1061.27,-185.41"/>
<polygon fill="#63b8ff" stroke="#63b8ff" points="1061.08,-188.91 1071.36,-186.33 1061.72,-181.94 1061.08,-188.91"/>
</g>
<!-- Node16 -->
<g id="node21" class="node">
<title>Node16</title>
<g id="a_node21"><a xlink:href="structImFontAtlas.html#a4b2f96a0b67dd06c69547e93ccd4652f" target="_top" xlink:title=" ">
<polygon fill="#fff0f0" stroke="red" points="1434.5,-203 1276.5,-203 1276.5,-184 1434.5,-184 1434.5,-203"/>
<text text-anchor="middle" x="1355.5" y="-191" font-family="Helvetica,sans-Serif" font-size="10.00">ImFontAtlas::GetCustomRect</text>
</a>
</g>
</g>
<!-- Node14&#45;&gt;Node16 -->
<g id="edge23" class="edge">
<title>Node14&#45;&gt;Node16</title>
<path fill="none" stroke="#63b8ff" d="M1021.01,-171.09C1080.35,-169.37 1163.37,-168.71 1236,-174.5 1255.72,-176.07 1277.11,-179.09 1296.22,-182.27"/>
<polygon fill="#63b8ff" stroke="#63b8ff" points="1295.83,-185.75 1306.28,-183.99 1297.01,-178.85 1295.83,-185.75"/>
</g>
<!-- Node66 -->
<g id="node22" class="node">
<title>Node66</title>
<g id="a_node22"><a xlink:href="imgui__draw_8cpp.html#afb984dfe621aaf80f49b6f0af469330f" target="_top" xlink:title=" ">
<polygon fill="white" stroke="#666666" points="1236,-89.5 1066,-89.5 1066,-59.5 1236,-59.5 1236,-89.5"/>
<text text-anchor="start" x="1074" y="-77.5" font-family="Helvetica,sans-Serif" font-size="10.00">ImFontAtlasBuildRenderBitmap</text>
<text text-anchor="middle" x="1151" y="-66.5" font-family="Helvetica,sans-Serif" font-size="10.00">FromString</text>
</a>
</g>
</g>
<!-- Node14&#45;&gt;Node66 -->
<g id="edge24" class="edge">
<title>Node14&#45;&gt;Node66</title>
<path fill="none" stroke="#63b8ff" d="M1013.35,-159.46C1019.21,-156.92 1024.84,-153.96 1030,-150.5 1051.85,-135.84 1044.66,-118.89 1066,-103.5 1071.09,-99.83 1076.69,-96.59 1082.5,-93.74"/>
<polygon fill="#63b8ff" stroke="#63b8ff" points="1084.07,-96.87 1091.76,-89.58 1081.2,-90.49 1084.07,-96.87"/>
</g>
<!-- Node15&#45;&gt;Node13 -->
<g id="edge22" class="edge">
<title>Node15&#45;&gt;Node13</title>
<path fill="none" stroke="#63b8ff" d="M1132.86,-203.12C1115.11,-213.53 1087.07,-231.24 1066,-250.5 1047.35,-267.55 1052.11,-282.26 1030,-294.5 991.35,-315.9 873.74,-325.59 797.91,-329.72"/>
<polygon fill="#63b8ff" stroke="#63b8ff" points="797.31,-326.24 787.5,-330.26 797.67,-333.24 797.31,-326.24"/>
</g>
<!-- Node15&#45;&gt;Node16 -->
<g id="edge21" class="edge">
<title>Node15&#45;&gt;Node16</title>
<path fill="none" stroke="#63b8ff" d="M1230.58,-193.5C1242.19,-193.5 1254.22,-193.5 1266.01,-193.5"/>
<polygon fill="#63b8ff" stroke="#63b8ff" points="1266.3,-197 1276.3,-193.5 1266.3,-190 1266.3,-197"/>
</g>
<!-- Node50 -->
<g id="node23" class="node">
<title>Node50</title>
<g id="a_node23"><a xlink:href="structImTextureData.html#ae7e2edcf13504e8c6de654c5e4127d3b" target="_top" xlink:title=" ">
<polygon fill="white" stroke="#666666" points="1431,-106 1280,-106 1280,-87 1431,-87 1431,-106"/>
<text text-anchor="middle" x="1355.5" y="-94" font-family="Helvetica,sans-Serif" font-size="10.00">ImTextureData::GetPixelsAt</text>
</a>
</g>
</g>
<!-- Node66&#45;&gt;Node50 -->
<g id="edge25" class="edge">
<title>Node66&#45;&gt;Node50</title>
<path fill="none" stroke="#63b8ff" d="M1236.12,-83.64C1247.18,-84.84 1258.53,-86.07 1269.61,-87.28"/>
<polygon fill="#63b8ff" stroke="#63b8ff" points="1269.37,-90.77 1279.69,-88.37 1270.13,-83.81 1269.37,-90.77"/>
</g>
<!-- Node49&#45;&gt;Node15 -->
<g id="edge27" class="edge">
<title>Node49&#45;&gt;Node15</title>
<path fill="none" stroke="#63b8ff" d="M1008.82,-255.43C1016.13,-252.86 1023.33,-249.9 1030,-246.5 1048.3,-237.17 1047.76,-226.95 1066,-217.5 1074.89,-212.89 1084.78,-209.07 1094.56,-205.92"/>
<polygon fill="#63b8ff" stroke="#63b8ff" points="1095.69,-209.24 1104.26,-203.01 1093.68,-202.53 1095.69,-209.24"/>
</g>
<!-- Node49&#45;&gt;Node16 -->
<g id="edge28" class="edge">
<title>Node49&#45;&gt;Node16</title>
<path fill="none" stroke="#63b8ff" d="M1021.13,-255.65C1100.72,-240.82 1221.35,-218.32 1293.59,-204.86"/>
<polygon fill="#63b8ff" stroke="#63b8ff" points="1294.27,-208.29 1303.46,-203.02 1292.98,-201.41 1294.27,-208.29"/>
</g>
<!-- Node49&#45;&gt;Node50 -->
<g id="edge29" class="edge">
<title>Node49&#45;&gt;Node50</title>
<path fill="none" stroke="#63b8ff" d="M1016.28,-255.39C1021.17,-252.87 1025.81,-249.93 1030,-246.5 1057.68,-223.84 1038.31,-197.15 1066,-174.5 1123.64,-127.36 1207.32,-108.56 1269.73,-101.14"/>
<polygon fill="#63b8ff" stroke="#63b8ff" points="1270.39,-104.59 1279.94,-100 1269.62,-97.63 1270.39,-104.59"/>
</g>
<!-- Node47 -->
<g id="node26" class="node">
<title>Node47</title>
<g id="a_node26"><a xlink:href="structImVector.html#aab5df48e0711a48bd12f3206e08c4108" target="_top" xlink:title=" ">
<polygon fill="#fff0f0" stroke="red" points="1210,-681 1092,-681 1092,-662 1210,-662 1210,-681"/>
<text text-anchor="middle" x="1151" y="-669" font-family="Helvetica,sans-Serif" font-size="10.00">ImVector::push_back</text>
</a>
</g>
</g>
<!-- Node67&#45;&gt;Node47 -->
<g id="edge31" class="edge">
<title>Node67&#45;&gt;Node47</title>
<path fill="none" stroke="#63b8ff" d="M993.84,-643.04C1022.35,-648.23 1057.8,-654.7 1087.72,-660.15"/>
<polygon fill="#63b8ff" stroke="#63b8ff" points="1087.17,-663.61 1097.63,-661.96 1088.42,-656.72 1087.17,-663.61"/>
</g>
<!-- Node23 -->
<g id="node27" class="node">
<title>Node23</title>
<g id="a_node27"><a xlink:href="structImVector.html#ac371dd62e56ae486b1a5038cf07eee56" target="_top" xlink:title=" ">
<polygon fill="#fff0f0" stroke="red" points="1403,-602 1308,-602 1308,-583 1403,-583 1403,-602"/>
<text text-anchor="middle" x="1355.5" y="-590" font-family="Helvetica,sans-Serif" font-size="10.00">ImVector::resize</text>
</a>
</g>
</g>
<!-- Node67&#45;&gt;Node23 -->
<g id="edge32" class="edge">
<title>Node67&#45;&gt;Node23</title>
<path fill="none" stroke="#63b8ff" d="M1028.09,-630.63C1086.9,-628.01 1166.35,-623.18 1236,-614.5 1257.14,-611.87 1280.2,-607.85 1300.32,-603.96"/>
<polygon fill="#63b8ff" stroke="#63b8ff" points="1301.1,-607.38 1310.24,-602.01 1299.75,-600.51 1301.1,-607.38"/>
</g>
<!-- Node70 -->
<g id="node30" class="node">
<title>Node70</title>
<g id="a_node30"><a xlink:href="imgui__draw_8cpp.html#a4e9378547028046be8752b029f5cb6f7" target="_top" xlink:title=" ">
<polygon fill="#fff0f0" stroke="red" points="1216.5,-423.5 1085.5,-423.5 1085.5,-393.5 1216.5,-393.5 1216.5,-423.5"/>
<text text-anchor="start" x="1093.5" y="-411.5" font-family="Helvetica,sans-Serif" font-size="10.00">ImGui_ImplStbTrueType</text>
<text text-anchor="middle" x="1151" y="-400.5" font-family="Helvetica,sans-Serif" font-size="10.00">_FontBakedInit</text>
</a>
</g>
</g>
<!-- Node69&#45;&gt;Node70 -->
<g id="edge35" class="edge">
<title>Node69&#45;&gt;Node70</title>
<path fill="none" stroke="#63b8ff" d="M1009.77,-439.44C1030.79,-434.8 1054.03,-429.67 1075.45,-424.95"/>
<polygon fill="#63b8ff" stroke="#63b8ff" points="1076.46,-428.31 1085.47,-422.74 1074.95,-421.47 1076.46,-428.31"/>
</g>
<!-- Node73 -->
<g id="node31" class="node">
<title>Node73</title>
<g id="a_node31"><a xlink:href="imgui__draw_8cpp.html#a384d25358c5821097a2a8cfc007a78a5" target="_top" xlink:title=" ">
<polygon fill="#fff0f0" stroke="red" points="1216.5,-567.5 1085.5,-567.5 1085.5,-537.5 1216.5,-537.5 1216.5,-567.5"/>
<text text-anchor="start" x="1093.5" y="-555.5" font-family="Helvetica,sans-Serif" font-size="10.00">ImGui_ImplStbTrueType</text>
<text text-anchor="middle" x="1151" y="-544.5" font-family="Helvetica,sans-Serif" font-size="10.00">_FontBakedLoadGlyph</text>
</a>
</g>
</g>
<!-- Node69&#45;&gt;Node73 -->
<g id="edge36" class="edge">
<title>Node69&#45;&gt;Node73</title>
<path fill="none" stroke="#63b8ff" d="M963.07,-469.67C987.2,-486.08 1027.91,-512.07 1066,-528.5 1070.67,-530.51 1075.55,-532.41 1080.52,-534.19"/>
<polygon fill="#63b8ff" stroke="#63b8ff" points="1079.54,-537.55 1090.13,-537.46 1081.79,-530.92 1079.54,-537.55"/>
</g>
<!-- Node85 -->
<g id="node32" class="node">
<title>Node85</title>
<g id="a_node32"><a xlink:href="imgui__draw_8cpp.html#abbc4496535a5cea3108a34e7ff50a2f6" target="_top" xlink:title=" ">
<polygon fill="#fff0f0" stroke="red" points="1216.5,-375.5 1085.5,-375.5 1085.5,-345.5 1216.5,-345.5 1216.5,-375.5"/>
<text text-anchor="start" x="1093.5" y="-363.5" font-family="Helvetica,sans-Serif" font-size="10.00">ImGui_ImplStbTrueType</text>
<text text-anchor="middle" x="1151" y="-352.5" font-family="Helvetica,sans-Serif" font-size="10.00">_FontSrcContainsGlyph</text>
</a>
</g>
</g>
<!-- Node69&#45;&gt;Node85 -->
<g id="edge38" class="edge">
<title>Node69&#45;&gt;Node85</title>
<path fill="none" stroke="#63b8ff" d="M967.43,-439.5C1000.86,-420.21 1055.93,-388.7 1066,-384.5 1070.78,-382.51 1075.77,-380.62 1080.84,-378.84"/>
<polygon fill="#63b8ff" stroke="#63b8ff" points="1082.28,-382.06 1090.65,-375.57 1080.06,-375.42 1082.28,-382.06"/>
</g>
<!-- Node86 -->
<g id="node33" class="node">
<title>Node86</title>
<g id="a_node33"><a xlink:href="imgui__draw_8cpp.html#a1b084bce1a6d1ffc1bdf5af634dcf694" target="_top" xlink:title=" ">
<polygon fill="white" stroke="#666666" points="1216.5,-519.5 1085.5,-519.5 1085.5,-489.5 1216.5,-489.5 1216.5,-519.5"/>
<text text-anchor="start" x="1093.5" y="-507.5" font-family="Helvetica,sans-Serif" font-size="10.00">ImGui_ImplStbTrueType</text>
<text text-anchor="middle" x="1151" y="-496.5" font-family="Helvetica,sans-Serif" font-size="10.00">_FontSrcDestroy</text>
</a>
</g>
</g>
<!-- Node69&#45;&gt;Node86 -->
<g id="edge39" class="edge">
<title>Node69&#45;&gt;Node86</title>
<path fill="none" stroke="#63b8ff" d="M1004.06,-469.5C1027.15,-475.04 1053.5,-481.36 1077.4,-487.09"/>
<polygon fill="#63b8ff" stroke="#63b8ff" points="1076.59,-490.49 1087.13,-489.42 1078.22,-483.69 1076.59,-490.49"/>
</g>
<!-- Node87 -->
<g id="node34" class="node">
<title>Node87</title>
<g id="a_node34"><a xlink:href="imgui__draw_8cpp.html#a5dfc4e93e89b1acd59ae482450c64b75" target="_top" xlink:title=" ">
<polygon fill="#fff0f0" stroke="red" points="1216.5,-471.5 1085.5,-471.5 1085.5,-441.5 1216.5,-441.5 1216.5,-471.5"/>
<text text-anchor="start" x="1093.5" y="-459.5" font-family="Helvetica,sans-Serif" font-size="10.00">ImGui_ImplStbTrueType</text>
<text text-anchor="middle" x="1151" y="-448.5" font-family="Helvetica,sans-Serif" font-size="10.00">_FontSrcInit</text>
</a>
</g>
</g>
<!-- Node69&#45;&gt;Node87 -->
<g id="edge41" class="edge">
<title>Node69&#45;&gt;Node87</title>
<path fill="none" stroke="#63b8ff" d="M1013.55,-455.19C1033.48,-455.38 1055.16,-455.59 1075.25,-455.78"/>
<polygon fill="#63b8ff" stroke="#63b8ff" points="1075.25,-459.28 1085.28,-455.88 1075.31,-452.28 1075.25,-459.28"/>
</g>
<!-- Node73&#45;&gt;Node23 -->
<g id="edge37" class="edge">
<title>Node73&#45;&gt;Node23</title>
<path fill="none" stroke="#63b8ff" d="M1216.63,-565.27C1242.67,-570.41 1272.45,-576.29 1297.65,-581.27"/>
<polygon fill="#63b8ff" stroke="#63b8ff" points="1297.3,-584.77 1307.79,-583.27 1298.66,-577.9 1297.3,-584.77"/>
</g>
<!-- Node86&#45;&gt;Node10 -->
<g id="edge40" class="edge">
<title>Node86&#45;&gt;Node10</title>
<path fill="none" stroke="#63b8ff" d="M1215.52,-489.44C1246.2,-482.17 1282.27,-473.62 1309.98,-467.05"/>
<polygon fill="#63b8ff" stroke="#63b8ff" points="1310.86,-470.44 1319.78,-464.73 1309.25,-463.63 1310.86,-470.44"/>
</g>
<!-- Node87&#45;&gt;Node10 -->
<g id="edge42" class="edge">
<title>Node87&#45;&gt;Node10</title>
<path fill="none" stroke="#63b8ff" d="M1216.63,-456.5C1247.01,-456.5 1282.47,-456.5 1309.83,-456.5"/>
<polygon fill="#63b8ff" stroke="#63b8ff" points="1309.88,-460 1319.88,-456.5 1309.88,-453 1309.88,-460"/>
</g>
<!-- Node52 -->
<g id="node36" class="node">
<title>Node52</title>
<g id="a_node36"><a xlink:href="imstb__rectpack_8h.html#a8b32f5ad458f614f5d419ef26cef5b3c" target="_top" xlink:title=" ">
<polygon fill="white" stroke="#666666" points="1199.5,-605 1102.5,-605 1102.5,-586 1199.5,-586 1199.5,-605"/>
<text text-anchor="middle" x="1151" y="-593" font-family="Helvetica,sans-Serif" font-size="10.00">stbrp_init_target</text>
</a>
</g>
</g>
<!-- Node51&#45;&gt;Node52 -->
<g id="edge44" class="edge">
<title>Node51&#45;&gt;Node52</title>
<path fill="none" stroke="#63b8ff" d="M982.14,-557.03C1006.46,-562.72 1037.99,-570.07 1066,-576.5 1076.27,-578.86 1087.25,-581.36 1097.78,-583.74"/>
<polygon fill="#63b8ff" stroke="#63b8ff" points="1097.16,-587.19 1107.69,-585.98 1098.71,-580.36 1097.16,-587.19"/>
</g>
<!-- Node53&#45;&gt;Node47 -->
<g id="edge48" class="edge">
<title>Node53&#45;&gt;Node47</title>
<path fill="none" stroke="#63b8ff" d="M1005.76,-670.81C1029.84,-670.92 1057.27,-671.06 1081.71,-671.17"/>
<polygon fill="#63b8ff" stroke="#63b8ff" points="1081.96,-674.67 1091.98,-671.22 1081.99,-667.67 1081.96,-674.67"/>
</g>
<!-- Node54 -->
<g id="node38" class="node">
<title>Node54</title>
<g id="a_node38"><a xlink:href="structImTextureData.html#a22fc119a6933ecbb7fc600cbf93d41aa" target="_top" xlink:title=" ">
<polygon fill="#fff0f0" stroke="red" points="1214.5,-755 1087.5,-755 1087.5,-736 1214.5,-736 1214.5,-755"/>
<text text-anchor="middle" x="1151" y="-743" font-family="Helvetica,sans-Serif" font-size="10.00">ImTextureData::Create</text>
</a>
</g>
</g>
<!-- Node53&#45;&gt;Node54 -->
<g id="edge46" class="edge">
<title>Node53&#45;&gt;Node54</title>
<path fill="none" stroke="#63b8ff" d="M1005.57,-679.42C1014.08,-681.97 1022.47,-685.27 1030,-689.5 1050.28,-700.9 1045.72,-716.11 1066,-727.5 1069.73,-729.6 1073.68,-731.45 1077.75,-733.08"/>
<polygon fill="#63b8ff" stroke="#63b8ff" points="1076.84,-736.47 1087.43,-736.52 1079.18,-729.88 1076.84,-736.47"/>
</g>
<!-- Node42 -->
<g id="node39" class="node">
<title>Node42</title>
<g id="a_node39"><a xlink:href="imgui__draw_8cpp.html#a10edae7dc82c6255c63f3d6761f204f5" target="_top" xlink:title=" ">
<polygon fill="#fff0f0" stroke="red" points="1227,-718 1075,-718 1075,-699 1227,-699 1227,-718"/>
<text text-anchor="middle" x="1151" y="-706" font-family="Helvetica,sans-Serif" font-size="10.00">ImFontAtlasBuildSetTexture</text>
</a>
</g>
</g>
<!-- Node53&#45;&gt;Node42 -->
<g id="edge47" class="edge">
<title>Node53&#45;&gt;Node42</title>
<path fill="none" stroke="#63b8ff" d="M993.84,-680.04C1022.35,-685.23 1057.8,-691.7 1087.72,-697.15"/>
<polygon fill="#63b8ff" stroke="#63b8ff" points="1087.17,-700.61 1097.63,-698.96 1088.42,-693.72 1087.17,-700.61"/>
</g>
<!-- Node93 -->
<g id="node43" class="node">
<title>Node93</title>
<g id="a_node43"><a xlink:href="imgui__draw_8cpp.html#a19d7fb37c8bf850f4996965eaf4c7986" target="_top" xlink:title=" ">
<polygon fill="#fff0f0" stroke="red" points="1225.5,-289.5 1076.5,-289.5 1076.5,-259.5 1225.5,-259.5 1225.5,-289.5"/>
<text text-anchor="start" x="1084.5" y="-277.5" font-family="Helvetica,sans-Serif" font-size="10.00">ImFontAtlasBuildSetupFont</text>
<text text-anchor="middle" x="1151" y="-266.5" font-family="Helvetica,sans-Serif" font-size="10.00">Loader</text>
</a>
</g>
</g>
<!-- Node92&#45;&gt;Node93 -->
<g id="edge52" class="edge">
<title>Node92&#45;&gt;Node93</title>
<path fill="none" stroke="#63b8ff" d="M991.07,-341.91C1004.14,-338.36 1017.94,-333.65 1030,-327.5 1048.3,-318.17 1047.76,-307.95 1066,-298.5 1069.53,-296.67 1073.23,-294.96 1077.01,-293.37"/>
<polygon fill="#63b8ff" stroke="#63b8ff" points="1078.51,-296.54 1086.55,-289.65 1075.96,-290.02 1078.51,-296.54"/>
</g>
<!-- Node93&#45;&gt;Node94 -->
<g id="edge53" class="edge">
<title>Node93&#45;&gt;Node94</title>
<path fill="none" stroke="#63b8ff" d="M1225.68,-282.14C1237.43,-283.36 1249.72,-284.63 1261.84,-285.89"/>
<polygon fill="#63b8ff" stroke="#63b8ff" points="1261.66,-289.39 1271.97,-286.94 1262.38,-282.43 1261.66,-289.39"/>
</g>
<!-- Node117&#45;&gt;Node114 -->
<g id="edge58" class="edge">
<title>Node117&#45;&gt;Node114</title>
<path fill="none" stroke="#63b8ff" d="M776.71,-740.56C799.09,-747.72 826.37,-756.28 851,-763.5 858.12,-765.59 865.57,-767.71 873.01,-769.78"/>
<polygon fill="#63b8ff" stroke="#63b8ff" points="872.18,-773.18 882.75,-772.48 874.05,-766.44 872.18,-773.18"/>
</g>
<!-- Node118 -->
<g id="node45" class="node">
<title>Node118</title>
<g id="a_node45"><a xlink:href="structImFontBaked.html#a785a4f3372cd8258f17ede065ee3cbad" target="_top" xlink:title=" ">
<polygon fill="white" stroke="#666666" points="1008,-754 873,-754 873,-735 1008,-735 1008,-754"/>
<text text-anchor="middle" x="940.5" y="-742" font-family="Helvetica,sans-Serif" font-size="10.00">ImFontBaked::FindGlyph</text>
</a>
</g>
</g>
<!-- Node117&#45;&gt;Node118 -->
<g id="edge55" class="edge">
<title>Node117&#45;&gt;Node118</title>
<path fill="none" stroke="#63b8ff" d="M815.21,-733.2C830.99,-734.64 847.39,-736.13 862.91,-737.54"/>
<polygon fill="#63b8ff" stroke="#63b8ff" points="862.69,-741.03 872.96,-738.45 863.32,-734.06 862.69,-741.03"/>
</g>
<!-- Node128 -->
<g id="node47" class="node">
<title>Node128</title>
<g id="a_node47"><a xlink:href="structImFont.html#a8adbf587ae41bedc3084d9924733b4c3" target="_top" xlink:title=" ">
<polygon fill="#fff0f0" stroke="red" points="1003,-717 878,-717 878,-698 1003,-698 1003,-717"/>
<text text-anchor="middle" x="940.5" y="-705" font-family="Helvetica,sans-Serif" font-size="10.00">ImFont::GetFontBaked</text>
</a>
</g>
</g>
<!-- Node117&#45;&gt;Node128 -->
<g id="edge57" class="edge">
<title>Node117&#45;&gt;Node128</title>
<path fill="none" stroke="#63b8ff" d="M815.21,-718.2C832.54,-716.71 850.63,-715.15 867.47,-713.7"/>
<polygon fill="#63b8ff" stroke="#63b8ff" points="868.12,-717.16 877.78,-712.82 867.52,-710.19 868.12,-717.16"/>
</g>
<!-- Node119 -->
<g id="node46" class="node">
<title>Node119</title>
<g id="a_node46"><a xlink:href="imgui__draw_8cpp.html#af0ee06cd161ca9d371b6466b8a145db9" target="_top" xlink:title=" ">
<polygon fill="#fff0f0" stroke="red" points="1232,-792 1070,-792 1070,-773 1232,-773 1232,-792"/>
<text text-anchor="middle" x="1151" y="-780" font-family="Helvetica,sans-Serif" font-size="10.00">ImFontBaked_BuildLoadGlyph</text>
</a>
</g>
</g>
<!-- Node118&#45;&gt;Node119 -->
<g id="edge56" class="edge">
<title>Node118&#45;&gt;Node119</title>
<path fill="none" stroke="#63b8ff" d="M993.84,-754.04C1022.35,-759.23 1057.8,-765.7 1087.72,-771.15"/>
<polygon fill="#63b8ff" stroke="#63b8ff" points="1087.17,-774.61 1097.63,-772.96 1088.42,-767.72 1087.17,-774.61"/>
</g>
<!-- Node139&#45;&gt;Node62 -->
<g id="edge64" class="edge">
<title>Node139&#45;&gt;Node62</title>
<path fill="none" stroke="#63b8ff" d="M804.19,-71.85C825.9,-73.72 849.56,-75.75 870.93,-77.59"/>
<polygon fill="#63b8ff" stroke="#63b8ff" points="870.64,-81.08 880.9,-78.45 871.24,-74.11 870.64,-81.08"/>
</g>
<!-- Node60 -->
<g id="node49" class="node">
<title>Node60</title>
<g id="a_node49"><a xlink:href="imgui__internal_8h.html#a3cc719adb48b1aed8ab1196ecea7e828" target="_top" xlink:title=" ">
<polygon fill="white" stroke="#666666" points="989.5,-56 891.5,-56 891.5,-37 989.5,-37 989.5,-56"/>
<text text-anchor="middle" x="940.5" y="-44" font-family="Helvetica,sans-Serif" font-size="10.00">ImIsPowerOfTwo</text>
</a>
</g>
</g>
<!-- Node139&#45;&gt;Node60 -->
<g id="edge62" class="edge">
<title>Node139&#45;&gt;Node60</title>
<path fill="none" stroke="#63b8ff" d="M804.19,-58.8C829.48,-56.5 857.43,-53.96 881.32,-51.79"/>
<polygon fill="#63b8ff" stroke="#63b8ff" points="881.65,-55.27 891.29,-50.88 881.01,-48.3 881.65,-55.27"/>
</g>
<!-- Node61 -->
<g id="node50" class="node">
<title>Node61</title>
<g id="a_node50"><a xlink:href="imgui__internal_8h.html#a7667efd95147d0422f140917c71a9226" target="_top" xlink:title=" ">
<polygon fill="white" stroke="#666666" points="965.5,-19 915.5,-19 915.5,0 965.5,0 965.5,-19"/>
<text text-anchor="middle" x="940.5" y="-7" font-family="Helvetica,sans-Serif" font-size="10.00">ImMax</text>
</a>
</g>
</g>
<!-- Node139&#45;&gt;Node61 -->
<g id="edge63" class="edge">
<title>Node139&#45;&gt;Node61</title>
<path fill="none" stroke="#63b8ff" d="M774.25,-50.49C796.98,-43 825.3,-34.15 851,-27.5 868.68,-22.93 888.6,-18.79 905.05,-15.64"/>
<polygon fill="#63b8ff" stroke="#63b8ff" points="906.12,-19 915.3,-13.71 904.83,-12.12 906.12,-19"/>
</g>
</g>
</svg>
