<?xml version="1.0" encoding="UTF-8" standalone="no"?>
<!DOCTYPE svg PUBLIC "-//W3C//DTD SVG 1.1//EN"
 "http://www.w3.org/Graphics/SVG/1.1/DTD/svg11.dtd">
<!-- Generated by graphviz version 2.43.0 (0)
 -->
<!-- Title: ImDrawList::AddRectFilledMultiColor Pages: 1 -->
<svg width="1037pt" height="128pt"
 viewBox="0.00 0.00 1037.00 127.50" xmlns="http://www.w3.org/2000/svg" xmlns:xlink="http://www.w3.org/1999/xlink">
<g id="graph0" class="graph" transform="scale(1 1) rotate(0) translate(4 123.5)">
<title>ImDrawList::AddRectFilledMultiColor</title>
<!-- Node1 -->
<g id="node1" class="node">
<title>Node1</title>
<g id="a_node1"><a xlink:title=" ">
<polygon fill="#999999" stroke="#666666" points="145,-61.5 0,-61.5 0,-31.5 145,-31.5 145,-61.5"/>
<text text-anchor="start" x="8" y="-49.5" font-family="Helvetica,sans-Serif" font-size="10.00">ImDrawList::AddRectFilled</text>
<text text-anchor="middle" x="72.5" y="-38.5" font-family="Helvetica,sans-Serif" font-size="10.00">MultiColor</text>
</a>
</g>
</g>
<!-- Node2 -->
<g id="node2" class="node">
<title>Node2</title>
<g id="a_node2"><a xlink:href="structImDrawList.html#a879aa38dbfb0344e3e023d65c002c7d7" target="_top" xlink:title=" ">
<polygon fill="white" stroke="#666666" points="322.5,-93 182.5,-93 182.5,-74 322.5,-74 322.5,-93"/>
<text text-anchor="middle" x="252.5" y="-81" font-family="Helvetica,sans-Serif" font-size="10.00">ImDrawList::PrimReserve</text>
</a>
</g>
</g>
<!-- Node1&#45;&gt;Node2 -->
<g id="edge1" class="edge">
<title>Node1&#45;&gt;Node2</title>
<path fill="none" stroke="#63b8ff" d="M145.13,-61.39C161.85,-64.87 179.42,-68.52 195.36,-71.83"/>
<polygon fill="#63b8ff" stroke="#63b8ff" points="195.07,-75.34 205.57,-73.95 196.49,-68.49 195.07,-75.34"/>
</g>
<!-- Node9 -->
<g id="node9" class="node">
<title>Node9</title>
<g id="a_node9"><a xlink:href="structImDrawList.html#a42b72f87a0084c02f11dcd1560c8bbc7" target="_top" xlink:title=" ">
<polygon fill="white" stroke="#666666" points="323.5,-56 181.5,-56 181.5,-37 323.5,-37 323.5,-56"/>
<text text-anchor="middle" x="252.5" y="-44" font-family="Helvetica,sans-Serif" font-size="10.00">ImDrawList::PrimWriteIdx</text>
</a>
</g>
</g>
<!-- Node1&#45;&gt;Node9 -->
<g id="edge10" class="edge">
<title>Node1&#45;&gt;Node9</title>
<path fill="none" stroke="#63b8ff" d="M145.13,-46.5C153.74,-46.5 162.58,-46.5 171.3,-46.5"/>
<polygon fill="#63b8ff" stroke="#63b8ff" points="171.46,-50 181.46,-46.5 171.46,-43 171.46,-50"/>
</g>
<!-- Node10 -->
<g id="node10" class="node">
<title>Node10</title>
<g id="a_node10"><a xlink:href="structImDrawList.html#af86de4faf6c8e978fb712ea14c5d0c5f" target="_top" xlink:title=" ">
<polygon fill="white" stroke="#666666" points="324,-19 181,-19 181,0 324,0 324,-19"/>
<text text-anchor="middle" x="252.5" y="-7" font-family="Helvetica,sans-Serif" font-size="10.00">ImDrawList::PrimWriteVtx</text>
</a>
</g>
</g>
<!-- Node1&#45;&gt;Node10 -->
<g id="edge11" class="edge">
<title>Node1&#45;&gt;Node10</title>
<path fill="none" stroke="#63b8ff" d="M145.13,-31.61C161.85,-28.13 179.42,-24.48 195.36,-21.17"/>
<polygon fill="#63b8ff" stroke="#63b8ff" points="196.49,-24.51 205.57,-19.05 195.07,-17.66 196.49,-24.51"/>
</g>
<!-- Node3 -->
<g id="node3" class="node">
<title>Node3</title>
<g id="a_node3"><a xlink:href="structImDrawList.html#a7f2e315f147acd8b555d86d1557659cc" target="_top" xlink:title=" ">
<polygon fill="white" stroke="#666666" points="516,-119.5 360,-119.5 360,-89.5 516,-89.5 516,-119.5"/>
<text text-anchor="start" x="368" y="-107.5" font-family="Helvetica,sans-Serif" font-size="10.00">ImDrawList::_OnChangedVtx</text>
<text text-anchor="middle" x="438" y="-96.5" font-family="Helvetica,sans-Serif" font-size="10.00">Offset</text>
</a>
</g>
</g>
<!-- Node2&#45;&gt;Node3 -->
<g id="edge2" class="edge">
<title>Node2&#45;&gt;Node3</title>
<path fill="none" stroke="#63b8ff" d="M322.61,-91.41C331.57,-92.43 340.82,-93.49 350.02,-94.55"/>
<polygon fill="#63b8ff" stroke="#63b8ff" points="349.62,-98.02 359.96,-95.68 350.42,-91.07 349.62,-98.02"/>
</g>
<!-- Node8 -->
<g id="node8" class="node">
<title>Node8</title>
<g id="a_node8"><a xlink:href="structImVector.html#ac371dd62e56ae486b1a5038cf07eee56" target="_top" xlink:title=" ">
<polygon fill="white" stroke="#666666" points="839.5,-71 744.5,-71 744.5,-52 839.5,-52 839.5,-71"/>
<text text-anchor="middle" x="792" y="-59" font-family="Helvetica,sans-Serif" font-size="10.00">ImVector::resize</text>
</a>
</g>
</g>
<!-- Node2&#45;&gt;Node8 -->
<g id="edge7" class="edge">
<title>Node2&#45;&gt;Node8</title>
<path fill="none" stroke="#63b8ff" d="M322.67,-80.67C430.02,-76.28 634.69,-67.9 734.05,-63.83"/>
<polygon fill="#63b8ff" stroke="#63b8ff" points="734.35,-67.32 744.2,-63.42 734.06,-60.33 734.35,-67.32"/>
</g>
<!-- Node4 -->
<g id="node4" class="node">
<title>Node4</title>
<g id="a_node4"><a xlink:href="structImDrawList.html#a846714bb0321c6f1f908767abc8559e6" target="_top" xlink:title=" ">
<polygon fill="white" stroke="#666666" points="697,-111 552,-111 552,-92 697,-92 697,-111"/>
<text text-anchor="middle" x="624.5" y="-99" font-family="Helvetica,sans-Serif" font-size="10.00">ImDrawList::AddDrawCmd</text>
</a>
</g>
</g>
<!-- Node3&#45;&gt;Node4 -->
<g id="edge3" class="edge">
<title>Node3&#45;&gt;Node4</title>
<path fill="none" stroke="#63b8ff" d="M516.18,-103.25C524.6,-103.11 533.2,-102.97 541.67,-102.83"/>
<polygon fill="#63b8ff" stroke="#63b8ff" points="541.99,-106.33 551.94,-102.66 541.88,-99.33 541.99,-106.33"/>
</g>
<!-- Node5 -->
<g id="node5" class="node">
<title>Node5</title>
<g id="a_node5"><a xlink:href="structImVector.html#aab5df48e0711a48bd12f3206e08c4108" target="_top" xlink:title=" ">
<polygon fill="white" stroke="#666666" points="851,-108 733,-108 733,-89 851,-89 851,-108"/>
<text text-anchor="middle" x="792" y="-96" font-family="Helvetica,sans-Serif" font-size="10.00">ImVector::push_back</text>
</a>
</g>
</g>
<!-- Node4&#45;&gt;Node5 -->
<g id="edge4" class="edge">
<title>Node4&#45;&gt;Node5</title>
<path fill="none" stroke="#63b8ff" d="M697.13,-100.2C705.64,-100.05 714.31,-99.89 722.76,-99.74"/>
<polygon fill="#63b8ff" stroke="#63b8ff" points="723.02,-103.23 732.96,-99.55 722.89,-96.23 723.02,-103.23"/>
</g>
<!-- Node6 -->
<g id="node6" class="node">
<title>Node6</title>
<g id="a_node6"><a xlink:href="structImVector.html#a3a097635d464b1b70dc7d59996a88b28" target="_top" xlink:title=" ">
<polygon fill="white" stroke="#666666" points="1029,-108 887,-108 887,-89 1029,-89 1029,-108"/>
<text text-anchor="middle" x="958" y="-96" font-family="Helvetica,sans-Serif" font-size="10.00">ImVector::_grow_capacity</text>
</a>
</g>
</g>
<!-- Node5&#45;&gt;Node6 -->
<g id="edge5" class="edge">
<title>Node5&#45;&gt;Node6</title>
<path fill="none" stroke="#63b8ff" d="M851.28,-98.5C859.55,-98.5 868.18,-98.5 876.78,-98.5"/>
<polygon fill="#63b8ff" stroke="#63b8ff" points="876.83,-102 886.83,-98.5 876.83,-95 876.83,-102"/>
</g>
<!-- Node7 -->
<g id="node7" class="node">
<title>Node7</title>
<g id="a_node7"><a xlink:href="structImVector.html#a0f14f5736c3372157856eebb67123b75" target="_top" xlink:title=" ">
<polygon fill="white" stroke="#666666" points="1009.5,-71 906.5,-71 906.5,-52 1009.5,-52 1009.5,-71"/>
<text text-anchor="middle" x="958" y="-59" font-family="Helvetica,sans-Serif" font-size="10.00">ImVector::reserve</text>
</a>
</g>
</g>
<!-- Node5&#45;&gt;Node7 -->
<g id="edge6" class="edge">
<title>Node5&#45;&gt;Node7</title>
<path fill="none" stroke="#63b8ff" d="M835.23,-88.97C856.39,-84.2 882.19,-78.38 904.6,-73.32"/>
<polygon fill="#63b8ff" stroke="#63b8ff" points="905.64,-76.68 914.62,-71.06 904.1,-69.85 905.64,-76.68"/>
</g>
<!-- Node8&#45;&gt;Node6 -->
<g id="edge8" class="edge">
<title>Node8&#45;&gt;Node6</title>
<path fill="none" stroke="#63b8ff" d="M835.23,-71.03C856.39,-75.8 882.19,-81.62 904.6,-86.68"/>
<polygon fill="#63b8ff" stroke="#63b8ff" points="904.1,-90.15 914.62,-88.94 905.64,-83.32 904.1,-90.15"/>
</g>
<!-- Node8&#45;&gt;Node7 -->
<g id="edge9" class="edge">
<title>Node8&#45;&gt;Node7</title>
<path fill="none" stroke="#63b8ff" d="M839.56,-61.5C857.14,-61.5 877.4,-61.5 896.1,-61.5"/>
<polygon fill="#63b8ff" stroke="#63b8ff" points="896.3,-65 906.3,-61.5 896.3,-58 896.3,-65"/>
</g>
</g>
</svg>
