<?xml version="1.0" encoding="UTF-8" standalone="no"?>
<!DOCTYPE svg PUBLIC "-//W3C//DTD SVG 1.1//EN"
 "http://www.w3.org/Graphics/SVG/1.1/DTD/svg11.dtd">
<!-- Generated by graphviz version 2.43.0 (0)
 -->
<!-- Title: refl::trait::detail::reverse_impl&lt; typename, typename &gt; Pages: 1 -->
<svg width="213pt" height="321pt"
 viewBox="0.00 0.00 213.00 321.00" xmlns="http://www.w3.org/2000/svg" xmlns:xlink="http://www.w3.org/1999/xlink">
<g id="graph0" class="graph" transform="scale(1 1) rotate(0) translate(4 317)">
<title>refl::trait::detail::reverse_impl&lt; typename, typename &gt;</title>
<!-- Node1 -->
<g id="node1" class="node">
<title>Node1</title>
<g id="a_node1"><a xlink:title=" ">
<polygon fill="#999999" stroke="#666666" points="0,-233.5 0,-312.5 150,-312.5 150,-233.5 0,-233.5"/>
<text text-anchor="start" x="8" y="-300.5" font-family="Helvetica,sans-Serif" font-size="10.00">refl::trait::detail</text>
<text text-anchor="start" x="8" y="-289.5" font-family="Helvetica,sans-Serif" font-size="10.00">::reverse_impl&lt; typename,</text>
<text text-anchor="middle" x="75" y="-278.5" font-family="Helvetica,sans-Serif" font-size="10.00"> typename &gt;</text>
<polyline fill="none" stroke="#666666" points="0,-271.5 150,-271.5 "/>
<text text-anchor="middle" x="75" y="-259.5" font-family="Helvetica,sans-Serif" font-size="10.00"> </text>
<polyline fill="none" stroke="#666666" points="0,-252.5 150,-252.5 "/>
<text text-anchor="middle" x="75" y="-240.5" font-family="Helvetica,sans-Serif" font-size="10.00"> </text>
</a>
</g>
</g>
<!-- Node2 -->
<g id="node2" class="node">
<title>Node2</title>
<g id="a_node2"><a xlink:href="structrefl_1_1trait_1_1detail_1_1reverse__impl.html" target="_top" xlink:title=" ">
<polygon fill="white" stroke="#666666" points="15.5,-106.5 15.5,-185.5 134.5,-185.5 134.5,-106.5 15.5,-106.5"/>
<text text-anchor="start" x="23.5" y="-173.5" font-family="Helvetica,sans-Serif" font-size="10.00">refl::trait::detail</text>
<text text-anchor="start" x="23.5" y="-162.5" font-family="Helvetica,sans-Serif" font-size="10.00">::reverse_impl&lt; type</text>
<text text-anchor="middle" x="75" y="-151.5" font-family="Helvetica,sans-Serif" font-size="10.00">_list&lt;&gt;, TypeList &gt;</text>
<polyline fill="none" stroke="#666666" points="15.5,-144.5 134.5,-144.5 "/>
<text text-anchor="middle" x="75" y="-132.5" font-family="Helvetica,sans-Serif" font-size="10.00"> </text>
<polyline fill="none" stroke="#666666" points="15.5,-125.5 134.5,-125.5 "/>
<text text-anchor="middle" x="75" y="-113.5" font-family="Helvetica,sans-Serif" font-size="10.00"> </text>
</a>
</g>
</g>
<!-- Node1&#45;&gt;Node2 -->
<g id="edge1" class="edge">
<title>Node1&#45;&gt;Node2</title>
<path fill="none" stroke="orange" d="M75,-223.22C75,-210.74 75,-197.5 75,-185.61"/>
<polygon fill="orange" stroke="orange" points="71.5,-223.48 75,-233.48 78.5,-223.48 71.5,-223.48"/>
<text text-anchor="middle" x="140" y="-207" font-family="Helvetica,sans-Serif" font-size="10.00"> &lt; type_list&lt;&gt;, TypeList &gt;</text>
</g>
<!-- Node3 -->
<g id="node3" class="node">
<title>Node3</title>
<g id="a_node3"><a xlink:href="structrefl_1_1trait_1_1reverse.html" target="_top" xlink:title=" ">
<polygon fill="white" stroke="#666666" points="24.5,-0.5 24.5,-68.5 125.5,-68.5 125.5,-0.5 24.5,-0.5"/>
<text text-anchor="start" x="32.5" y="-56.5" font-family="Helvetica,sans-Serif" font-size="10.00">refl::trait::reverse</text>
<text text-anchor="middle" x="75" y="-45.5" font-family="Helvetica,sans-Serif" font-size="10.00">&lt; TypeList &gt;</text>
<polyline fill="none" stroke="#666666" points="24.5,-38.5 125.5,-38.5 "/>
<text text-anchor="middle" x="75" y="-26.5" font-family="Helvetica,sans-Serif" font-size="10.00"> </text>
<polyline fill="none" stroke="#666666" points="24.5,-19.5 125.5,-19.5 "/>
<text text-anchor="middle" x="75" y="-7.5" font-family="Helvetica,sans-Serif" font-size="10.00"> </text>
</a>
</g>
</g>
<!-- Node2&#45;&gt;Node3 -->
<g id="edge2" class="edge">
<title>Node2&#45;&gt;Node3</title>
<path fill="none" stroke="#63b8ff" d="M75,-96.38C75,-87.02 75,-77.41 75,-68.67"/>
<polygon fill="none" stroke="#63b8ff" points="71.5,-96.39 75,-106.39 78.5,-96.39 71.5,-96.39"/>
</g>
</g>
</svg>
