<?xml version="1.0" encoding="UTF-8" standalone="no"?>
<!DOCTYPE svg PUBLIC "-//W3C//DTD SVG 1.1//EN"
 "http://www.w3.org/Graphics/SVG/1.1/DTD/svg11.dtd">
<!-- Generated by graphviz version 2.43.0 (0)
 -->
<!-- Title: mtgb::Quaternion::W Pages: 1 -->
<svg width="521pt" height="101pt"
 viewBox="0.00 0.00 521.00 101.00" xmlns="http://www.w3.org/2000/svg" xmlns:xlink="http://www.w3.org/1999/xlink">
<g id="graph0" class="graph" transform="scale(1 1) rotate(0) translate(4 97)">
<title>mtgb::Quaternion::W</title>
<!-- Node1 -->
<g id="node1" class="node">
<title>Node1</title>
<g id="a_node1"><a xlink:title=" ">
<polygon fill="#999999" stroke="#666666" points="513,-56 395,-56 395,-37 513,-37 513,-56"/>
<text text-anchor="middle" x="454" y="-44" font-family="Helvetica,sans-Serif" font-size="10.00">mtgb::Quaternion::W</text>
</a>
</g>
</g>
<!-- Node2 -->
<g id="node2" class="node">
<title>Node2</title>
<g id="a_node2"><a xlink:href="structmtgb_1_1Quaternion.html#a6350787aaaeeceba3d94d19e69fbaf90" target="_top" xlink:title="逆四元数/共役を取得">
<polygon fill="white" stroke="#666666" points="358.5,-93 197.5,-93 197.5,-74 358.5,-74 358.5,-93"/>
<text text-anchor="middle" x="278" y="-81" font-family="Helvetica,sans-Serif" font-size="10.00">mtgb::Quaternion::GetInverse</text>
</a>
</g>
</g>
<!-- Node1&#45;&gt;Node2 -->
<g id="edge1" class="edge">
<title>Node1&#45;&gt;Node2</title>
<path fill="none" stroke="#63b8ff" d="M398.2,-58.15C374.3,-63.23 346.63,-69.12 323.96,-73.94"/>
<polygon fill="#63b8ff" stroke="#63b8ff" points="399.14,-61.53 408.19,-56.03 397.68,-54.68 399.14,-61.53"/>
</g>
<!-- Node4 -->
<g id="node4" class="node">
<title>Node4</title>
<g id="a_node4"><a xlink:href="structmtgb_1_1Quaternion.html#a8d6a7effc32f26a5dcf44986076b63bc" target="_top" xlink:title="四元数のサイズを取得する">
<polygon fill="white" stroke="#666666" points="351,-56 205,-56 205,-37 351,-37 351,-56"/>
<text text-anchor="middle" x="278" y="-44" font-family="Helvetica,sans-Serif" font-size="10.00">mtgb::Quaternion::GetSize</text>
</a>
</g>
</g>
<!-- Node1&#45;&gt;Node4 -->
<g id="edge3" class="edge">
<title>Node1&#45;&gt;Node4</title>
<path fill="none" stroke="#63b8ff" d="M384.29,-46.5C373.41,-46.5 362.14,-46.5 351.18,-46.5"/>
<polygon fill="#63b8ff" stroke="#63b8ff" points="384.58,-50 394.58,-46.5 384.58,-43 384.58,-50"/>
</g>
<!-- Node6 -->
<g id="node6" class="node">
<title>Node6</title>
<g id="a_node6"><a xlink:href="structmtgb_1_1Quaternion.html#a724ab693b6296127cbe6013934bd59bf" target="_top" xlink:title=" ">
<polygon fill="white" stroke="#666666" points="359,-19 197,-19 197,0 359,0 359,-19"/>
<text text-anchor="middle" x="278" y="-7" font-family="Helvetica,sans-Serif" font-size="10.00">mtgb::Quaternion::Quaternion</text>
</a>
</g>
</g>
<!-- Node1&#45;&gt;Node6 -->
<g id="edge5" class="edge">
<title>Node1&#45;&gt;Node6</title>
<path fill="none" stroke="#63b8ff" d="M398.2,-34.85C374.3,-29.77 346.63,-23.88 323.96,-19.06"/>
<polygon fill="#63b8ff" stroke="#63b8ff" points="397.68,-38.32 408.19,-36.97 399.14,-31.47 397.68,-38.32"/>
</g>
<!-- Node3 -->
<g id="node3" class="node">
<title>Node3</title>
<g id="a_node3"><a xlink:href="structmtgb_1_1Quaternion.html#a7e4a7d027242791dc6dcd68692b70fb2" target="_top" xlink:title="逆四元数/共役を取得">
<polygon fill="white" stroke="#666666" points="161,-93 0,-93 0,-74 161,-74 161,-93"/>
<text text-anchor="middle" x="80.5" y="-81" font-family="Helvetica,sans-Serif" font-size="10.00">mtgb::Quaternion::GetInverse</text>
</a>
</g>
</g>
<!-- Node2&#45;&gt;Node3 -->
<g id="edge2" class="edge">
<title>Node2&#45;&gt;Node3</title>
<path fill="none" stroke="#63b8ff" d="M187.33,-83.5C178.64,-83.5 169.85,-83.5 161.26,-83.5"/>
<polygon fill="#63b8ff" stroke="#63b8ff" points="187.48,-87 197.48,-83.5 187.48,-80 187.48,-87"/>
</g>
<!-- Node5 -->
<g id="node5" class="node">
<title>Node5</title>
<g id="a_node5"><a xlink:href="structmtgb_1_1Quaternion.html#a792de53fa7e6318a5ba729fde561c329" target="_top" xlink:title="四元数のサイズを取得する">
<polygon fill="white" stroke="#666666" points="153.5,-56 7.5,-56 7.5,-37 153.5,-37 153.5,-56"/>
<text text-anchor="middle" x="80.5" y="-44" font-family="Helvetica,sans-Serif" font-size="10.00">mtgb::Quaternion::GetSize</text>
</a>
</g>
</g>
<!-- Node4&#45;&gt;Node5 -->
<g id="edge4" class="edge">
<title>Node4&#45;&gt;Node5</title>
<path fill="none" stroke="#63b8ff" d="M194.5,-46.5C180.97,-46.5 167.03,-46.5 153.77,-46.5"/>
<polygon fill="#63b8ff" stroke="#63b8ff" points="194.76,-50 204.76,-46.5 194.76,-43 194.76,-50"/>
</g>
</g>
</svg>
