<?xml version="1.0" encoding="UTF-8" standalone="no"?>
<!DOCTYPE svg PUBLIC "-//W3C//DTD SVG 1.1//EN"
 "http://www.w3.org/Graphics/SVG/1.1/DTD/svg11.dtd">
<!-- Generated by graphviz version 2.43.0 (0)
 -->
<!-- Title: ImFontBaked::IsGlyphLoaded Pages: 1 -->
<svg width="1285pt" height="119pt"
 viewBox="0.00 0.00 1285.00 118.50" xmlns="http://www.w3.org/2000/svg" xmlns:xlink="http://www.w3.org/1999/xlink">
<g id="graph0" class="graph" transform="scale(1 1) rotate(0) translate(4 114.5)">
<title>ImFontBaked::IsGlyphLoaded</title>
<!-- Node1 -->
<g id="node1" class="node">
<title>Node1</title>
<g id="a_node1"><a xlink:title=" ">
<polygon fill="#999999" stroke="#666666" points="1277,-81 1119,-81 1119,-62 1277,-62 1277,-81"/>
<text text-anchor="middle" x="1198" y="-69" font-family="Helvetica,sans-Serif" font-size="10.00">ImFontBaked::IsGlyphLoaded</text>
</a>
</g>
</g>
<!-- Node2 -->
<g id="node2" class="node">
<title>Node2</title>
<g id="a_node2"><a xlink:href="structImFontAtlas.html#a7b5b4e1374b9ee8ad3cdf624f6ca0ea6" target="_top" xlink:title=" ">
<polygon fill="white" stroke="#666666" points="1077.5,-110.5 918.5,-110.5 918.5,-80.5 1077.5,-80.5 1077.5,-110.5"/>
<text text-anchor="start" x="926.5" y="-98.5" font-family="Helvetica,sans-Serif" font-size="10.00">ImFontAtlas::AddCustomRect</text>
<text text-anchor="middle" x="998" y="-87.5" font-family="Helvetica,sans-Serif" font-size="10.00">FontGlyphForSize</text>
</a>
</g>
</g>
<!-- Node1&#45;&gt;Node2 -->
<g id="edge1" class="edge">
<title>Node1&#45;&gt;Node2</title>
<path fill="none" stroke="#63b8ff" d="M1108.53,-82.22C1098.24,-83.47 1087.8,-84.74 1077.66,-85.97"/>
<polygon fill="#63b8ff" stroke="#63b8ff" points="1109.24,-85.66 1118.75,-80.99 1108.4,-78.71 1109.24,-85.66"/>
</g>
<!-- Node4 -->
<g id="node4" class="node">
<title>Node4</title>
<g id="a_node4"><a xlink:href="namespaceImGui.html#abd7a4ef76bea8c2936225852896e49d8" target="_top" xlink:title=" ">
<polygon fill="white" stroke="#666666" points="1083,-62.5 913,-62.5 913,-32.5 1083,-32.5 1083,-62.5"/>
<text text-anchor="start" x="921" y="-50.5" font-family="Helvetica,sans-Serif" font-size="10.00">ImGui::DebugNodeFontGlyphes</text>
<text text-anchor="middle" x="998" y="-39.5" font-family="Helvetica,sans-Serif" font-size="10.00">ForSrcMask</text>
</a>
</g>
</g>
<!-- Node1&#45;&gt;Node4 -->
<g id="edge3" class="edge">
<title>Node1&#45;&gt;Node4</title>
<path fill="none" stroke="#63b8ff" d="M1108.81,-60.81C1100.3,-59.78 1091.68,-58.73 1083.2,-57.71"/>
<polygon fill="#63b8ff" stroke="#63b8ff" points="1108.4,-64.29 1118.75,-62.01 1109.24,-57.34 1108.4,-64.29"/>
</g>
<!-- Node3 -->
<g id="node3" class="node">
<title>Node3</title>
<g id="a_node3"><a xlink:href="structImFontAtlas.html#ab5427b1134dc2d82fefb4595054f1a04" target="_top" xlink:title=" ">
<polygon fill="white" stroke="#666666" points="877,-110.5 718,-110.5 718,-80.5 877,-80.5 877,-110.5"/>
<text text-anchor="start" x="726" y="-98.5" font-family="Helvetica,sans-Serif" font-size="10.00">ImFontAtlas::AddCustomRect</text>
<text text-anchor="middle" x="797.5" y="-87.5" font-family="Helvetica,sans-Serif" font-size="10.00">FontGlyph</text>
</a>
</g>
</g>
<!-- Node2&#45;&gt;Node3 -->
<g id="edge2" class="edge">
<title>Node2&#45;&gt;Node3</title>
<path fill="none" stroke="#63b8ff" d="M908.03,-95.5C897.73,-95.5 887.29,-95.5 877.14,-95.5"/>
<polygon fill="#63b8ff" stroke="#63b8ff" points="908.26,-99 918.26,-95.5 908.26,-92 908.26,-99"/>
</g>
<!-- Node5 -->
<g id="node5" class="node">
<title>Node5</title>
<g id="a_node5"><a xlink:href="namespaceImGui.html#ae0207d60728f7e6a47dbcd1d7d84e3cb" target="_top" xlink:title=" ">
<polygon fill="white" stroke="#666666" points="862.5,-57 732.5,-57 732.5,-38 862.5,-38 862.5,-57"/>
<text text-anchor="middle" x="797.5" y="-45" font-family="Helvetica,sans-Serif" font-size="10.00">ImGui::DebugNodeFont</text>
</a>
</g>
</g>
<!-- Node4&#45;&gt;Node5 -->
<g id="edge4" class="edge">
<title>Node4&#45;&gt;Node5</title>
<path fill="none" stroke="#63b8ff" d="M902.52,-47.5C889.01,-47.5 875.38,-47.5 862.63,-47.5"/>
<polygon fill="#63b8ff" stroke="#63b8ff" points="902.82,-51 912.82,-47.5 902.82,-44 902.82,-51"/>
</g>
<!-- Node6 -->
<g id="node6" class="node">
<title>Node6</title>
<g id="a_node6"><a xlink:href="namespaceImGui.html#acab51ec2b39577845309f24535381038" target="_top" xlink:title=" ">
<polygon fill="white" stroke="#666666" points="682,-57 558,-57 558,-38 682,-38 682,-57"/>
<text text-anchor="middle" x="620" y="-45" font-family="Helvetica,sans-Serif" font-size="10.00">ImGui::ShowFontAtlas</text>
</a>
</g>
</g>
<!-- Node5&#45;&gt;Node6 -->
<g id="edge5" class="edge">
<title>Node5&#45;&gt;Node6</title>
<path fill="none" stroke="#63b8ff" d="M722.07,-47.5C708.75,-47.5 695.02,-47.5 682.13,-47.5"/>
<polygon fill="#63b8ff" stroke="#63b8ff" points="722.15,-51 732.15,-47.5 722.15,-44 722.15,-51"/>
</g>
<!-- Node7 -->
<g id="node7" class="node">
<title>Node7</title>
<g id="a_node7"><a xlink:href="imgui__demo_8cpp.html#a163f04ccf255dede76e5e54f741ca9d5" target="_top" xlink:title=" ">
<polygon fill="white" stroke="#666666" points="522,-95 371,-95 371,-76 522,-76 522,-95"/>
<text text-anchor="middle" x="446.5" y="-83" font-family="Helvetica,sans-Serif" font-size="10.00">DemoWindowWidgetsFonts</text>
</a>
</g>
</g>
<!-- Node6&#45;&gt;Node7 -->
<g id="edge6" class="edge">
<title>Node6&#45;&gt;Node7</title>
<path fill="none" stroke="#63b8ff" d="M565.96,-59.25C541.71,-64.63 513.35,-70.91 490.47,-75.98"/>
<polygon fill="#63b8ff" stroke="#63b8ff" points="566.72,-62.67 575.72,-57.09 565.2,-55.84 566.72,-62.67"/>
</g>
<!-- Node10 -->
<g id="node10" class="node">
<title>Node10</title>
<g id="a_node10"><a xlink:href="namespaceImGui.html#afe7a28c6eb52fff3cc27d5a698fea4ff" target="_top" xlink:title=" ">
<polygon fill="white" stroke="#666666" points="335,-57 182,-57 182,-38 335,-38 335,-57"/>
<text text-anchor="middle" x="258.5" y="-45" font-family="Helvetica,sans-Serif" font-size="10.00">ImGui::ShowMetricsWindow</text>
</a>
</g>
</g>
<!-- Node6&#45;&gt;Node10 -->
<g id="edge9" class="edge">
<title>Node6&#45;&gt;Node10</title>
<path fill="none" stroke="#63b8ff" d="M547.24,-47.5C485.87,-47.5 397.82,-47.5 335.32,-47.5"/>
<polygon fill="#63b8ff" stroke="#63b8ff" points="547.61,-51 557.61,-47.5 547.61,-44 547.61,-51"/>
</g>
<!-- Node11 -->
<g id="node11" class="node">
<title>Node11</title>
<g id="a_node11"><a xlink:href="namespaceImGui.html#ab2eb3dec78d054fe3feab1c091ec5de5" target="_top" xlink:title=" ">
<polygon fill="white" stroke="#666666" points="512,-19 381,-19 381,0 512,0 512,-19"/>
<text text-anchor="middle" x="446.5" y="-7" font-family="Helvetica,sans-Serif" font-size="10.00">ImGui::ShowStyleEditor</text>
</a>
</g>
</g>
<!-- Node6&#45;&gt;Node11 -->
<g id="edge11" class="edge">
<title>Node6&#45;&gt;Node11</title>
<path fill="none" stroke="#63b8ff" d="M565.96,-35.75C541.71,-30.37 513.35,-24.09 490.47,-19.02"/>
<polygon fill="#63b8ff" stroke="#63b8ff" points="565.2,-39.16 575.72,-37.91 566.72,-32.33 565.2,-39.16"/>
</g>
<!-- Node8 -->
<g id="node8" class="node">
<title>Node8</title>
<g id="a_node8"><a xlink:href="imgui__demo_8cpp.html#a9a639caab781642cbc4f4a23bfbd11cd" target="_top" xlink:title=" ">
<polygon fill="white" stroke="#666666" points="321,-94 196,-94 196,-75 321,-75 321,-94"/>
<text text-anchor="middle" x="258.5" y="-82" font-family="Helvetica,sans-Serif" font-size="10.00">DemoWindowWidgets</text>
</a>
</g>
</g>
<!-- Node7&#45;&gt;Node8 -->
<g id="edge7" class="edge">
<title>Node7&#45;&gt;Node8</title>
<path fill="none" stroke="#63b8ff" d="M360.8,-85.04C347.48,-84.97 333.94,-84.9 321.27,-84.83"/>
<polygon fill="#63b8ff" stroke="#63b8ff" points="360.9,-88.55 370.92,-85.1 360.94,-81.55 360.9,-88.55"/>
</g>
<!-- Node9 -->
<g id="node9" class="node">
<title>Node9</title>
<g id="a_node9"><a xlink:href="namespaceImGui.html#af95643a0ce4893b9e57c12991922fb18" target="_top" xlink:title=" ">
<polygon fill="white" stroke="#666666" points="146,-57 0,-57 0,-38 146,-38 146,-57"/>
<text text-anchor="middle" x="73" y="-45" font-family="Helvetica,sans-Serif" font-size="10.00">ImGui::ShowDemoWindow</text>
</a>
</g>
</g>
<!-- Node8&#45;&gt;Node9 -->
<g id="edge8" class="edge">
<title>Node8&#45;&gt;Node9</title>
<path fill="none" stroke="#63b8ff" d="M200.39,-72.98C175.03,-67.87 145.53,-61.92 121.41,-57.06"/>
<polygon fill="#63b8ff" stroke="#63b8ff" points="199.75,-76.43 210.24,-74.97 201.13,-69.56 199.75,-76.43"/>
</g>
<!-- Node10&#45;&gt;Node9 -->
<g id="edge10" class="edge">
<title>Node10&#45;&gt;Node9</title>
<path fill="none" stroke="#63b8ff" d="M171.54,-47.5C163.09,-47.5 154.57,-47.5 146.28,-47.5"/>
<polygon fill="#63b8ff" stroke="#63b8ff" points="171.8,-51 181.8,-47.5 171.8,-44 171.8,-51"/>
</g>
<!-- Node11&#45;&gt;Node9 -->
<g id="edge12" class="edge">
<title>Node11&#45;&gt;Node9</title>
<path fill="none" stroke="#63b8ff" d="M370.59,-12.86C317.74,-15.73 245.37,-20.66 182,-28.5 162.26,-30.94 140.63,-34.56 121.96,-37.98"/>
<polygon fill="#63b8ff" stroke="#63b8ff" points="371.09,-16.34 380.89,-12.31 370.72,-9.35 371.09,-16.34"/>
</g>
</g>
</svg>
