<?xml version="1.0" encoding="UTF-8" standalone="no"?>
<!DOCTYPE svg PUBLIC "-//W3C//DTD SVG 1.1//EN"
 "http://www.w3.org/Graphics/SVG/1.1/DTD/svg11.dtd">
<!-- Generated by graphviz version 2.43.0 (0)
 -->
<!-- Title: mtgb::WorldToScreenData Pages: 1 -->
<svg width="175pt" height="464pt"
 viewBox="0.00 0.00 175.00 464.00" xmlns="http://www.w3.org/2000/svg" xmlns:xlink="http://www.w3.org/1999/xlink">
<g id="graph0" class="graph" transform="scale(1 1) rotate(0) translate(4 460)">
<title>mtgb::WorldToScreenData</title>
<!-- Node1 -->
<g id="node1" class="node">
<title>Node1</title>
<g id="a_node1"><a xlink:title=" ">
<polygon fill="#999999" stroke="#666666" points="2,-0.5 2,-68.5 165,-68.5 165,-0.5 2,-0.5"/>
<text text-anchor="middle" x="83.5" y="-56.5" font-family="Helvetica,sans-Serif" font-size="10.00">mtgb::WorldToScreenData</text>
<polyline fill="none" stroke="#666666" points="2,-49.5 165,-49.5 "/>
<text text-anchor="start" x="10" y="-37.5" font-family="Helvetica,sans-Serif" font-size="10.00">+ D3D11_VIEWPORT viewport</text>
<text text-anchor="start" x="10" y="-26.5" font-family="Helvetica,sans-Serif" font-size="10.00">+ uint64_t frameId</text>
<polyline fill="none" stroke="#666666" points="2,-19.5 165,-19.5 "/>
<text text-anchor="middle" x="83.5" y="-7.5" font-family="Helvetica,sans-Serif" font-size="10.00"> </text>
</a>
</g>
</g>
<!-- Node2 -->
<g id="node2" class="node">
<title>Node2</title>
<g id="a_node2"><a xlink:href="structmtgb_1_1Matrix4x4.html" target="_top" xlink:title=" ">
<polygon fill="white" stroke="#666666" points="0,-127.5 0,-360.5 167,-360.5 167,-127.5 0,-127.5"/>
<text text-anchor="middle" x="83.5" y="-348.5" font-family="Helvetica,sans-Serif" font-size="10.00">mtgb::Matrix4x4</text>
<polyline fill="none" stroke="#666666" points="0,-341.5 167,-341.5 "/>
<text text-anchor="start" x="8" y="-329.5" font-family="Helvetica,sans-Serif" font-size="10.00">+ static const size_t</text>
<text text-anchor="start" x="8" y="-318.5" font-family="Helvetica,sans-Serif" font-size="10.00"> ROW_SIZE</text>
<text text-anchor="start" x="8" y="-307.5" font-family="Helvetica,sans-Serif" font-size="10.00">+ static const size_t</text>
<text text-anchor="start" x="8" y="-296.5" font-family="Helvetica,sans-Serif" font-size="10.00"> COLUMN_SIZE</text>
<polyline fill="none" stroke="#666666" points="0,-289.5 167,-289.5 "/>
<text text-anchor="start" x="8" y="-277.5" font-family="Helvetica,sans-Serif" font-size="10.00">+ Matrix4x4()</text>
<text text-anchor="start" x="8" y="-266.5" font-family="Helvetica,sans-Serif" font-size="10.00">+ Matrix4x4(const Matrix4x4</text>
<text text-anchor="start" x="8" y="-255.5" font-family="Helvetica,sans-Serif" font-size="10.00"> &amp;_other)=default</text>
<text text-anchor="start" x="8" y="-244.5" font-family="Helvetica,sans-Serif" font-size="10.00">+ Matrix4x4(const DirectX</text>
<text text-anchor="start" x="8" y="-233.5" font-family="Helvetica,sans-Serif" font-size="10.00">::XMMATRIX &amp;_xmMatrix)</text>
<text text-anchor="start" x="8" y="-222.5" font-family="Helvetica,sans-Serif" font-size="10.00">+ Matrix4x4 &amp; operator</text>
<text text-anchor="start" x="8" y="-211.5" font-family="Helvetica,sans-Serif" font-size="10.00">=(const Matrix4x4 &amp;_other)</text>
<text text-anchor="start" x="8" y="-200.5" font-family="Helvetica,sans-Serif" font-size="10.00">+ bool Equals(const Matrix4x4</text>
<text text-anchor="start" x="8" y="-189.5" font-family="Helvetica,sans-Serif" font-size="10.00"> &amp;_other) const</text>
<text text-anchor="start" x="8" y="-178.5" font-family="Helvetica,sans-Serif" font-size="10.00">+ bool operator==(const</text>
<text text-anchor="start" x="8" y="-167.5" font-family="Helvetica,sans-Serif" font-size="10.00"> Matrix4x4 &amp;_other) const</text>
<text text-anchor="start" x="8" y="-156.5" font-family="Helvetica,sans-Serif" font-size="10.00">+ bool operator!=(const</text>
<text text-anchor="start" x="8" y="-145.5" font-family="Helvetica,sans-Serif" font-size="10.00"> Matrix4x4 &amp;_other) const</text>
<text text-anchor="start" x="8" y="-134.5" font-family="Helvetica,sans-Serif" font-size="10.00">+ std::string ToString()</text>
</a>
</g>
</g>
<!-- Node2&#45;&gt;Node1 -->
<g id="edge1" class="edge">
<title>Node2&#45;&gt;Node1</title>
<path fill="none" stroke="#404040" d="M83.5,-127.42C83.5,-110.89 83.5,-94.77 83.5,-80.76"/>
<polygon fill="none" stroke="#404040" points="83.5,-80.53 79.5,-74.53 83.5,-68.53 87.5,-74.53 83.5,-80.53"/>
<text text-anchor="middle" x="109" y="-101" font-family="Helvetica,sans-Serif" font-size="10.00"> +projMat</text>
<text text-anchor="middle" x="109" y="-90" font-family="Helvetica,sans-Serif" font-size="10.00">+viewMat</text>
</g>
<!-- Node3 -->
<g id="node3" class="node">
<title>Node3</title>
<g id="a_node3"><a xlink:title=" ">
<polygon fill="white" stroke="#666666" points="27.5,-398.5 27.5,-455.5 139.5,-455.5 139.5,-398.5 27.5,-398.5"/>
<text text-anchor="middle" x="83.5" y="-443.5" font-family="Helvetica,sans-Serif" font-size="10.00">DirectX::XMMATRIX</text>
<polyline fill="none" stroke="#666666" points="27.5,-436.5 139.5,-436.5 "/>
<text text-anchor="middle" x="83.5" y="-424.5" font-family="Helvetica,sans-Serif" font-size="10.00"> </text>
<polyline fill="none" stroke="#666666" points="27.5,-417.5 139.5,-417.5 "/>
<text text-anchor="middle" x="83.5" y="-405.5" font-family="Helvetica,sans-Serif" font-size="10.00"> </text>
</a>
</g>
</g>
<!-- Node3&#45;&gt;Node2 -->
<g id="edge2" class="edge">
<title>Node3&#45;&gt;Node2</title>
<path fill="none" stroke="#63b8ff" d="M83.5,-388.01C83.5,-379.61 83.5,-370.29 83.5,-360.55"/>
<polygon fill="none" stroke="#63b8ff" points="80,-388.12 83.5,-398.12 87,-388.12 80,-388.12"/>
</g>
</g>
</svg>
