<?xml version="1.0" encoding="UTF-8" standalone="no"?>
<!DOCTYPE svg PUBLIC "-//W3C//DTD SVG 1.1//EN"
 "http://www.w3.org/Graphics/SVG/1.1/DTD/svg11.dtd">
<!-- Generated by graphviz version 2.43.0 (0)
 -->
<!-- Title: ExampleAppDocuments::DisplayDocContextMenu Pages: 1 -->
<svg width="1256pt" height="1434pt"
 viewBox="0.00 0.00 1256.00 1434.00" xmlns="http://www.w3.org/2000/svg" xmlns:xlink="http://www.w3.org/1999/xlink">
<g id="graph0" class="graph" transform="scale(1 1) rotate(0) translate(4 1430)">
<title>ExampleAppDocuments::DisplayDocContextMenu</title>
<!-- Node1 -->
<g id="node1" class="node">
<title>Node1</title>
<g id="a_node1"><a xlink:title=" ">
<polygon fill="#999999" stroke="#666666" points="143,-414.5 0,-414.5 0,-384.5 143,-384.5 143,-414.5"/>
<text text-anchor="start" x="8" y="-402.5" font-family="Helvetica,sans-Serif" font-size="10.00">ExampleAppDocuments</text>
<text text-anchor="middle" x="71.5" y="-391.5" font-family="Helvetica,sans-Serif" font-size="10.00">::DisplayDocContextMenu</text>
</a>
</g>
</g>
<!-- Node2 -->
<g id="node2" class="node">
<title>Node2</title>
<g id="a_node2"><a xlink:href="namespaceImGui.html#a440894c8c00495d5cc01529f4504fca9" target="_top" xlink:title=" ">
<polygon fill="white" stroke="#666666" points="349,-1077 179,-1077 179,-1058 349,-1058 349,-1077"/>
<text text-anchor="middle" x="264" y="-1065" font-family="Helvetica,sans-Serif" font-size="10.00">ImGui::BeginPopupContextItem</text>
</a>
</g>
</g>
<!-- Node1&#45;&gt;Node2 -->
<g id="edge1" class="edge">
<title>Node1&#45;&gt;Node2</title>
<path fill="none" stroke="#63b8ff" d="M73.8,-414.54C81.08,-496.76 118.81,-892.05 179,-996.5 192.83,-1020.49 217.95,-1040.09 237.13,-1052.57"/>
<polygon fill="#63b8ff" stroke="#63b8ff" points="235.39,-1055.61 245.72,-1057.95 239.11,-1049.68 235.39,-1055.61"/>
</g>
<!-- Node11 -->
<g id="node8" class="node">
<title>Node11</title>
<g id="a_node8"><a xlink:href="structImVector.html#aab5df48e0711a48bd12f3206e08c4108" target="_top" xlink:title=" ">
<polygon fill="white" stroke="#666666" points="921,-410 803,-410 803,-391 921,-391 921,-410"/>
<text text-anchor="middle" x="862" y="-398" font-family="Helvetica,sans-Serif" font-size="10.00">ImVector::push_back</text>
</a>
</g>
</g>
<!-- Node1&#45;&gt;Node11 -->
<g id="edge74" class="edge">
<title>Node1&#45;&gt;Node11</title>
<path fill="none" stroke="#63b8ff" d="M84.6,-384.22C153.5,-299.02 502.02,107.53 746,-66.5 851.55,-141.79 861.2,-320.5 861.36,-380.48"/>
<polygon fill="#63b8ff" stroke="#63b8ff" points="857.85,-380.8 861.29,-390.83 864.85,-380.85 857.85,-380.8"/>
</g>
<!-- Node498 -->
<g id="node11" class="node">
<title>Node498</title>
<g id="a_node11"><a xlink:href="namespaceImGui.html#aa6a9b5696f2ea7eed7683425fc77b8f2" target="_top" xlink:title=" ">
<polygon fill="white" stroke="#666666" points="702,-1029 602,-1029 602,-1010 702,-1010 702,-1029"/>
<text text-anchor="middle" x="652" y="-1017" font-family="Helvetica,sans-Serif" font-size="10.00">ImGui::EndPopup</text>
</a>
</g>
</g>
<!-- Node1&#45;&gt;Node498 -->
<g id="edge41" class="edge">
<title>Node1&#45;&gt;Node498</title>
<path fill="none" stroke="#63b8ff" d="M76.63,-414.9C96.74,-486.94 191.51,-793.55 385,-944.5 445.31,-991.55 533.67,-1009.09 591.75,-1015.62"/>
<polygon fill="#63b8ff" stroke="#63b8ff" points="591.56,-1019.12 601.87,-1016.68 592.29,-1012.16 591.56,-1019.12"/>
</g>
<!-- Node502 -->
<g id="node31" class="node">
<title>Node502</title>
<g id="a_node31"><a xlink:href="structMyDocument.html#a95b8cc478b59e5fc70a187e990506668" target="_top" xlink:title=" ">
<polygon fill="white" stroke="#666666" points="326.5,-19 201.5,-19 201.5,0 326.5,0 326.5,-19"/>
<text text-anchor="middle" x="264" y="-7" font-family="Helvetica,sans-Serif" font-size="10.00">MyDocument::DoSave</text>
</a>
</g>
</g>
<!-- Node1&#45;&gt;Node502 -->
<g id="edge40" class="edge">
<title>Node1&#45;&gt;Node502</title>
<path fill="none" stroke="#63b8ff" d="M72.08,-384.43C71.41,-329.12 76.74,-135.26 179,-33.5 182.96,-29.55 187.53,-26.25 192.44,-23.48"/>
<polygon fill="#63b8ff" stroke="#63b8ff" points="194.12,-26.55 201.6,-19.05 191.07,-20.25 194.12,-26.55"/>
</g>
<!-- Node503 -->
<g id="node32" class="node">
<title>Node503</title>
<g id="a_node32"><a xlink:href="namespaceImGui.html#aa1bae511ca47478998693a9d8c84f2e6" target="_top" xlink:title=" ">
<polygon fill="white" stroke="#666666" points="314.5,-409 213.5,-409 213.5,-390 314.5,-390 314.5,-409"/>
<text text-anchor="middle" x="264" y="-397" font-family="Helvetica,sans-Serif" font-size="10.00">ImGui::MenuItem</text>
</a>
</g>
</g>
<!-- Node1&#45;&gt;Node503 -->
<g id="edge42" class="edge">
<title>Node1&#45;&gt;Node503</title>
<path fill="none" stroke="#63b8ff" d="M143.16,-399.5C162.91,-399.5 184.17,-399.5 203.22,-399.5"/>
<polygon fill="#63b8ff" stroke="#63b8ff" points="203.26,-403 213.26,-399.5 203.26,-396 203.26,-403"/>
</g>
<!-- Node3 -->
<g id="node3" class="node">
<title>Node3</title>
<g id="a_node3"><a xlink:href="namespaceImGui.html#a9bb87665314f24d473daefd570d43db1" target="_top" xlink:title=" ">
<polygon fill="white" stroke="#666666" points="514.5,-1124 392.5,-1124 392.5,-1105 514.5,-1105 514.5,-1124"/>
<text text-anchor="middle" x="453.5" y="-1112" font-family="Helvetica,sans-Serif" font-size="10.00">ImGui::BeginPopupEx</text>
</a>
</g>
</g>
<!-- Node2&#45;&gt;Node3 -->
<g id="edge2" class="edge">
<title>Node2&#45;&gt;Node3</title>
<path fill="none" stroke="#63b8ff" d="M302.94,-1077.01C332.2,-1084.34 372.86,-1094.54 404.4,-1102.44"/>
<polygon fill="#63b8ff" stroke="#63b8ff" points="403.74,-1105.89 414.29,-1104.92 405.44,-1099.1 403.74,-1105.89"/>
</g>
<!-- Node391 -->
<g id="node15" class="node">
<title>Node391</title>
<g id="a_node15"><a xlink:href="structImGuiWindow.html#afe084e59f7cd4da393ae30f0b4410b16" target="_top" xlink:title=" ">
<polygon fill="white" stroke="#666666" points="921,-1243 803,-1243 803,-1224 921,-1224 921,-1243"/>
<text text-anchor="middle" x="862" y="-1231" font-family="Helvetica,sans-Serif" font-size="10.00">ImGuiWindow::GetID</text>
</a>
</g>
</g>
<!-- Node2&#45;&gt;Node391 -->
<g id="edge21" class="edge">
<title>Node2&#45;&gt;Node391</title>
<path fill="none" stroke="#63b8ff" d="M268.01,-1077.04C278.55,-1108.93 316.9,-1212.77 385,-1266.5 448.34,-1316.47 478.27,-1309.13 558,-1321.5 640.57,-1334.31 666.86,-1348.31 746,-1321.5 787.38,-1307.48 825.58,-1271.94 845.84,-1250.56"/>
<polygon fill="#63b8ff" stroke="#63b8ff" points="848.49,-1252.85 852.7,-1243.13 843.35,-1248.1 848.49,-1252.85"/>
</g>
<!-- Node99 -->
<g id="node18" class="node">
<title>Node99</title>
<g id="a_node18"><a xlink:href="namespaceImGui.html#ac9a400eff3a9561d95e80486c52a660b" target="_top" xlink:title=" ">
<polygon fill="white" stroke="#666666" points="515.5,-935 391.5,-935 391.5,-916 515.5,-916 515.5,-935"/>
<text text-anchor="middle" x="453.5" y="-923" font-family="Helvetica,sans-Serif" font-size="10.00">ImGui::IsItemHovered</text>
</a>
</g>
</g>
<!-- Node2&#45;&gt;Node99 -->
<g id="edge22" class="edge">
<title>Node2&#45;&gt;Node99</title>
<path fill="none" stroke="#63b8ff" d="M277.59,-1057.96C309.27,-1033.97 392.53,-970.92 431.64,-941.3"/>
<polygon fill="#63b8ff" stroke="#63b8ff" points="433.86,-944.01 439.71,-935.18 429.63,-938.43 433.86,-944.01"/>
</g>
<!-- Node320 -->
<g id="node24" class="node">
<title>Node320</title>
<g id="a_node24"><a xlink:href="namespaceImGui.html#ae53a0c1818d2804e3b1331f0c1777434" target="_top" xlink:title=" ">
<polygon fill="white" stroke="#666666" points="522,-805 385,-805 385,-786 522,-786 522,-805"/>
<text text-anchor="middle" x="453.5" y="-793" font-family="Helvetica,sans-Serif" font-size="10.00">ImGui::IsMouseReleased</text>
</a>
</g>
</g>
<!-- Node2&#45;&gt;Node320 -->
<g id="edge29" class="edge">
<title>Node2&#45;&gt;Node320</title>
<path fill="none" stroke="#63b8ff" d="M271.67,-1057.82C299.18,-1017.91 404.04,-865.81 440.17,-813.38"/>
<polygon fill="#63b8ff" stroke="#63b8ff" points="443.11,-815.28 445.91,-805.06 437.35,-811.31 443.11,-815.28"/>
</g>
<!-- Node501 -->
<g id="node27" class="node">
<title>Node501</title>
<g id="a_node27"><a xlink:href="namespaceImGui.html#ac1570338b44e1f1311055db7ae41c47b" target="_top" xlink:title=" ">
<polygon fill="white" stroke="#666666" points="513,-1257 394,-1257 394,-1238 513,-1238 513,-1257"/>
<text text-anchor="middle" x="453.5" y="-1245" font-family="Helvetica,sans-Serif" font-size="10.00">ImGui::OpenPopupEx</text>
</a>
</g>
</g>
<!-- Node2&#45;&gt;Node501 -->
<g id="edge32" class="edge">
<title>Node2&#45;&gt;Node501</title>
<path fill="none" stroke="#63b8ff" d="M275.08,-1077.18C305.48,-1106.36 396.49,-1193.73 434.99,-1230.69"/>
<polygon fill="#63b8ff" stroke="#63b8ff" points="432.73,-1233.37 442.37,-1237.77 437.58,-1228.32 432.73,-1233.37"/>
</g>
<!-- Node4 -->
<g id="node4" class="node">
<title>Node4</title>
<g id="a_node4"><a xlink:href="namespaceImGui.html#a581e58db0bc930bafa4a5d23093a2b99" target="_top" xlink:title=" ">
<polygon fill="#fff0f0" stroke="red" points="692,-1105 612,-1105 612,-1086 692,-1086 692,-1105"/>
<text text-anchor="middle" x="652" y="-1093" font-family="Helvetica,sans-Serif" font-size="10.00">ImGui::Begin</text>
</a>
</g>
</g>
<!-- Node3&#45;&gt;Node4 -->
<g id="edge3" class="edge">
<title>Node3&#45;&gt;Node4</title>
<path fill="none" stroke="#63b8ff" d="M514.52,-1108.7C542.42,-1106 575.19,-1102.83 601.63,-1100.27"/>
<polygon fill="#63b8ff" stroke="#63b8ff" points="602.18,-1103.74 611.8,-1099.29 601.51,-1096.77 602.18,-1103.74"/>
</g>
<!-- Node409 -->
<g id="node6" class="node">
<title>Node409</title>
<g id="a_node6"><a xlink:href="structImGuiNextWindowData.html#a9543431fafe3d0627fdecc5fa839487c" target="_top" xlink:title=" ">
<polygon fill="white" stroke="#666666" points="927.5,-1115.5 796.5,-1115.5 796.5,-1085.5 927.5,-1085.5 927.5,-1115.5"/>
<text text-anchor="start" x="804.5" y="-1103.5" font-family="Helvetica,sans-Serif" font-size="10.00">ImGuiNextWindowData</text>
<text text-anchor="middle" x="862" y="-1092.5" font-family="Helvetica,sans-Serif" font-size="10.00">::ClearFlags</text>
</a>
</g>
</g>
<!-- Node3&#45;&gt;Node409 -->
<g id="edge10" class="edge">
<title>Node3&#45;&gt;Node409</title>
<path fill="none" stroke="#63b8ff" d="M514.58,-1116.62C573.56,-1118.2 666.06,-1119.35 746,-1114.5 759.04,-1113.71 772.86,-1112.42 786.23,-1110.93"/>
<polygon fill="#63b8ff" stroke="#63b8ff" points="786.82,-1114.39 796.35,-1109.76 786.02,-1107.43 786.82,-1114.39"/>
</g>
<!-- Node3&#45;&gt;Node498 -->
<g id="edge11" class="edge">
<title>Node3&#45;&gt;Node498</title>
<path fill="none" stroke="#63b8ff" d="M465.5,-1105C483.6,-1089.84 521.31,-1060.19 558,-1043.5 568.57,-1038.69 580.26,-1034.73 591.69,-1031.5"/>
<polygon fill="#63b8ff" stroke="#63b8ff" points="592.87,-1034.81 601.63,-1028.85 591.07,-1028.04 592.87,-1034.81"/>
</g>
<!-- Node39 -->
<g id="node13" class="node">
<title>Node39</title>
<g id="a_node13"><a xlink:href="imgui_8cpp.html#a75ccaf7d676b1f567ba888ae42ac3809" target="_top" xlink:title=" ">
<polygon fill="white" stroke="#666666" points="1248,-1228 1156,-1228 1156,-1209 1248,-1209 1248,-1228"/>
<text text-anchor="middle" x="1202" y="-1216" font-family="Helvetica,sans-Serif" font-size="10.00">ImFormatString</text>
</a>
</g>
</g>
<!-- Node3&#45;&gt;Node39 -->
<g id="edge13" class="edge">
<title>Node3&#45;&gt;Node39</title>
<path fill="none" stroke="#63b8ff" d="M514.68,-1123.39C528.88,-1125.44 543.97,-1127.58 558,-1129.5 807.51,-1163.56 871.69,-1159.6 1120,-1201.5 1129.36,-1203.08 1139.28,-1204.98 1148.85,-1206.92"/>
<polygon fill="#63b8ff" stroke="#63b8ff" points="1148.16,-1210.35 1158.66,-1208.95 1149.58,-1203.5 1148.16,-1210.35"/>
</g>
<!-- Node500 -->
<g id="node14" class="node">
<title>Node500</title>
<g id="a_node14"><a xlink:href="namespaceImGui.html#a0e351145d0936e79948094166757712e" target="_top" xlink:title=" ">
<polygon fill="white" stroke="#666666" points="710,-1257 594,-1257 594,-1238 710,-1238 710,-1257"/>
<text text-anchor="middle" x="652" y="-1245" font-family="Helvetica,sans-Serif" font-size="10.00">ImGui::IsPopupOpen</text>
</a>
</g>
</g>
<!-- Node3&#45;&gt;Node500 -->
<g id="edge14" class="edge">
<title>Node3&#45;&gt;Node500</title>
<path fill="none" stroke="#63b8ff" d="M468.52,-1124.21C488.38,-1137.93 525.87,-1163.77 558,-1185.5 581.76,-1201.57 609.09,-1219.75 627.94,-1232.25"/>
<polygon fill="#63b8ff" stroke="#63b8ff" points="626.19,-1235.29 636.46,-1237.89 630.06,-1229.45 626.19,-1235.29"/>
</g>
<!-- Node14 -->
<g id="node5" class="node">
<title>Node14</title>
<g id="a_node5"><a xlink:href="structImVector.html#a2d80e87e81b1b01143c8d8be93e6fde1" target="_top" xlink:title=" ">
<polygon fill="white" stroke="#666666" points="1093.5,-730 1004.5,-730 1004.5,-711 1093.5,-711 1093.5,-730"/>
<text text-anchor="middle" x="1049" y="-718" font-family="Helvetica,sans-Serif" font-size="10.00">ImVector::back</text>
</a>
</g>
</g>
<!-- Node4&#45;&gt;Node14 -->
<g id="edge4" class="edge">
<title>Node4&#45;&gt;Node14</title>
<path fill="none" stroke="#63b8ff" d="M692.08,-1090.02C766.61,-1079.24 923.36,-1054.91 942,-1038.5 1033.53,-957.91 1046.24,-796.17 1047.84,-740.14"/>
<polygon fill="#63b8ff" stroke="#63b8ff" points="1051.34,-740.19 1048.03,-730.13 1044.34,-740.06 1051.34,-740.19"/>
</g>
<!-- Node4&#45;&gt;Node409 -->
<g id="edge5" class="edge">
<title>Node4&#45;&gt;Node409</title>
<path fill="none" stroke="#63b8ff" d="M692.12,-1096.44C718.56,-1097.08 754.32,-1097.94 786.12,-1098.7"/>
<polygon fill="#63b8ff" stroke="#63b8ff" points="786.21,-1102.2 796.29,-1098.94 786.38,-1095.21 786.21,-1102.2"/>
</g>
<!-- Node21 -->
<g id="node7" class="node">
<title>Node21</title>
<g id="a_node7"><a xlink:href="imgui__internal_8h.html#a7667efd95147d0422f140917c71a9226" target="_top" xlink:title=" ">
<polygon fill="white" stroke="#666666" points="887,-692 837,-692 837,-673 887,-673 887,-692"/>
<text text-anchor="middle" x="862" y="-680" font-family="Helvetica,sans-Serif" font-size="10.00">ImMax</text>
</a>
</g>
</g>
<!-- Node4&#45;&gt;Node21 -->
<g id="edge6" class="edge">
<title>Node4&#45;&gt;Node21</title>
<path fill="none" stroke="#63b8ff" d="M692.37,-1095.31C711.39,-1093.03 732.88,-1086.83 746,-1071.5 799.7,-1008.72 727.78,-763.83 782,-701.5 793.01,-688.84 810.85,-683.84 826.78,-682.12"/>
<polygon fill="#63b8ff" stroke="#63b8ff" points="827.16,-685.6 836.89,-681.41 826.67,-678.62 827.16,-685.6"/>
</g>
<!-- Node4&#45;&gt;Node11 -->
<g id="edge7" class="edge">
<title>Node4&#45;&gt;Node11</title>
<path fill="none" stroke="#63b8ff" d="M692.09,-1095.52C711.28,-1093.34 733.01,-1087.16 746,-1071.5 822.23,-979.63 746.92,-649.61 782,-535.5 796.07,-489.73 828.24,-442.96 846.9,-418.28"/>
<polygon fill="#63b8ff" stroke="#63b8ff" points="849.77,-420.29 853.11,-410.23 844.23,-416.02 849.77,-420.29"/>
</g>
<!-- Node12 -->
<g id="node9" class="node">
<title>Node12</title>
<g id="a_node9"><a xlink:href="structImVector.html#a3a097635d464b1b70dc7d59996a88b28" target="_top" xlink:title=" ">
<polygon fill="white" stroke="#666666" points="1120,-429 978,-429 978,-410 1120,-410 1120,-429"/>
<text text-anchor="middle" x="1049" y="-417" font-family="Helvetica,sans-Serif" font-size="10.00">ImVector::_grow_capacity</text>
</a>
</g>
</g>
<!-- Node11&#45;&gt;Node12 -->
<g id="edge8" class="edge">
<title>Node11&#45;&gt;Node12</title>
<path fill="none" stroke="#63b8ff" d="M921.03,-406.46C935.8,-407.98 951.95,-409.64 967.63,-411.25"/>
<polygon fill="#63b8ff" stroke="#63b8ff" points="967.53,-414.75 977.84,-412.29 968.25,-407.79 967.53,-414.75"/>
</g>
<!-- Node13 -->
<g id="node10" class="node">
<title>Node13</title>
<g id="a_node10"><a xlink:href="structImVector.html#a0f14f5736c3372157856eebb67123b75" target="_top" xlink:title=" ">
<polygon fill="white" stroke="#666666" points="1100.5,-392 997.5,-392 997.5,-373 1100.5,-373 1100.5,-392"/>
<text text-anchor="middle" x="1049" y="-380" font-family="Helvetica,sans-Serif" font-size="10.00">ImVector::reserve</text>
</a>
</g>
</g>
<!-- Node11&#45;&gt;Node13 -->
<g id="edge9" class="edge">
<title>Node11&#45;&gt;Node13</title>
<path fill="none" stroke="#63b8ff" d="M921.03,-394.85C942.06,-392.81 965.87,-390.49 987.15,-388.42"/>
<polygon fill="#63b8ff" stroke="#63b8ff" points="987.75,-391.88 997.36,-387.43 987.07,-384.91 987.75,-391.88"/>
</g>
<!-- Node499 -->
<g id="node12" class="node">
<title>Node499</title>
<g id="a_node12"><a xlink:href="namespaceImGui.html#a95a9a1a5411cccb918fc29a0b0d3f953" target="_top" xlink:title=" ">
<polygon fill="white" stroke="#666666" points="938,-1029.5 786,-1029.5 786,-999.5 938,-999.5 938,-1029.5"/>
<text text-anchor="start" x="794" y="-1017.5" font-family="Helvetica,sans-Serif" font-size="10.00">ImGui::NavMoveRequestTry</text>
<text text-anchor="middle" x="862" y="-1006.5" font-family="Helvetica,sans-Serif" font-size="10.00">Wrapping</text>
</a>
</g>
</g>
<!-- Node498&#45;&gt;Node499 -->
<g id="edge12" class="edge">
<title>Node498&#45;&gt;Node499</title>
<path fill="none" stroke="#63b8ff" d="M702.03,-1018.32C723.99,-1017.79 750.53,-1017.16 775.59,-1016.55"/>
<polygon fill="#63b8ff" stroke="#63b8ff" points="775.93,-1020.05 785.84,-1016.31 775.76,-1013.05 775.93,-1020.05"/>
</g>
<!-- Node500&#45;&gt;Node500 -->
<g id="edge20" class="edge">
<title>Node500&#45;&gt;Node500</title>
<path fill="none" stroke="#63b8ff" d="M621.48,-1257.08C606.64,-1265.73 616.81,-1275 652,-1275 676.74,-1275 689.12,-1270.42 689.12,-1264.69"/>
<polygon fill="#63b8ff" stroke="#63b8ff" points="691.72,-1262.34 682.52,-1257.08 686.43,-1266.93 691.72,-1262.34"/>
</g>
<!-- Node500&#45;&gt;Node391 -->
<g id="edge15" class="edge">
<title>Node500&#45;&gt;Node391</title>
<path fill="none" stroke="#63b8ff" d="M710.11,-1243.66C735.71,-1241.93 766.09,-1239.89 792.86,-1238.09"/>
<polygon fill="#63b8ff" stroke="#63b8ff" points="793.19,-1241.57 802.93,-1237.41 792.72,-1234.59 793.19,-1241.57"/>
</g>
<!-- Node391&#45;&gt;Node14 -->
<g id="edge16" class="edge">
<title>Node391&#45;&gt;Node14</title>
<path fill="none" stroke="#63b8ff" d="M877.05,-1223.94C894.94,-1211.01 925.51,-1186.22 942,-1157.5 1025.09,-1012.83 1043.32,-805.18 1047.08,-740.5"/>
<polygon fill="#63b8ff" stroke="#63b8ff" points="1050.6,-740.31 1047.63,-730.14 1043.6,-739.94 1050.6,-740.31"/>
</g>
<!-- Node392 -->
<g id="node16" class="node">
<title>Node392</title>
<g id="a_node16"><a xlink:href="namespaceImGui.html#a5487269f4cb9fb809fd3e797411ed2d7" target="_top" xlink:title=" ">
<polygon fill="#fff0f0" stroke="red" points="1117.5,-1266 980.5,-1266 980.5,-1247 1117.5,-1247 1117.5,-1266"/>
<text text-anchor="middle" x="1049" y="-1254" font-family="Helvetica,sans-Serif" font-size="10.00">ImGui::DebugHookIdInfo</text>
</a>
</g>
</g>
<!-- Node391&#45;&gt;Node392 -->
<g id="edge17" class="edge">
<title>Node391&#45;&gt;Node392</title>
<path fill="none" stroke="#63b8ff" d="M921.03,-1240.71C936.65,-1242.66 953.8,-1244.79 970.3,-1246.84"/>
<polygon fill="#63b8ff" stroke="#63b8ff" points="970.12,-1250.34 980.48,-1248.11 970.98,-1243.4 970.12,-1250.34"/>
</g>
<!-- Node73 -->
<g id="node17" class="node">
<title>Node73</title>
<g id="a_node17"><a xlink:href="imgui_8cpp.html#ab6659b5d67f7a3369e099ce890e12223" target="_top" xlink:title=" ">
<polygon fill="white" stroke="#666666" points="1083,-1229 1015,-1229 1015,-1210 1083,-1210 1083,-1229"/>
<text text-anchor="middle" x="1049" y="-1217" font-family="Helvetica,sans-Serif" font-size="10.00">ImHashStr</text>
</a>
</g>
</g>
<!-- Node391&#45;&gt;Node73 -->
<g id="edge19" class="edge">
<title>Node391&#45;&gt;Node73</title>
<path fill="none" stroke="#63b8ff" d="M921.03,-1229.11C948.1,-1227.06 979.77,-1224.66 1004.71,-1222.78"/>
<polygon fill="#63b8ff" stroke="#63b8ff" points="1005.25,-1226.25 1014.96,-1222 1004.72,-1219.27 1005.25,-1226.25"/>
</g>
<!-- Node392&#45;&gt;Node39 -->
<g id="edge18" class="edge">
<title>Node392&#45;&gt;Node39</title>
<path fill="none" stroke="#63b8ff" d="M1088.1,-1246.91C1107.94,-1241.92 1132.38,-1235.77 1153.45,-1230.47"/>
<polygon fill="#63b8ff" stroke="#63b8ff" points="1154.33,-1233.85 1163.17,-1228.02 1152.62,-1227.07 1154.33,-1233.85"/>
</g>
<!-- Node100 -->
<g id="node19" class="node">
<title>Node100</title>
<g id="a_node19"><a xlink:href="imgui_8cpp.html#a989cfbd85e6f3d725efd883c4275872e" target="_top" xlink:title=" ">
<polygon fill="white" stroke="#666666" points="725.5,-842 578.5,-842 578.5,-823 725.5,-823 725.5,-842"/>
<text text-anchor="middle" x="652" y="-830" font-family="Helvetica,sans-Serif" font-size="10.00">ApplyHoverFlagsForTooltip</text>
</a>
</g>
</g>
<!-- Node99&#45;&gt;Node100 -->
<g id="edge23" class="edge">
<title>Node99&#45;&gt;Node100</title>
<path fill="none" stroke="#63b8ff" d="M464.75,-915.87C482.36,-899.88 520.14,-868.01 558,-851.5 563.85,-848.95 570.06,-846.74 576.38,-844.82"/>
<polygon fill="#63b8ff" stroke="#63b8ff" points="577.68,-848.09 586.38,-842.03 575.8,-841.34 577.68,-848.09"/>
</g>
<!-- Node101 -->
<g id="node20" class="node">
<title>Node101</title>
<g id="a_node20"><a xlink:href="imgui_8cpp.html#a486a2f0ac6b8bc3c18f14d08b3c808d6" target="_top" xlink:title=" ">
<polygon fill="white" stroke="#666666" points="731,-953 573,-953 573,-934 731,-934 731,-953"/>
<text text-anchor="middle" x="652" y="-941" font-family="Helvetica,sans-Serif" font-size="10.00">CalcDelayFromHoveredFlags</text>
</a>
</g>
</g>
<!-- Node99&#45;&gt;Node101 -->
<g id="edge24" class="edge">
<title>Node99&#45;&gt;Node101</title>
<path fill="none" stroke="#63b8ff" d="M515.6,-931.1C530.48,-932.46 546.69,-933.94 562.56,-935.4"/>
<polygon fill="#63b8ff" stroke="#63b8ff" points="562.64,-938.92 572.92,-936.35 563.28,-931.95 562.64,-938.92"/>
</g>
<!-- Node102 -->
<g id="node21" class="node">
<title>Node102</title>
<g id="a_node21"><a xlink:href="structImGuiWindow.html#a462f82a6567ca87a689a2aec87468083" target="_top" xlink:title=" ">
<polygon fill="#fff0f0" stroke="red" points="942,-877 782,-877 782,-858 942,-858 942,-877"/>
<text text-anchor="middle" x="862" y="-865" font-family="Helvetica,sans-Serif" font-size="10.00">ImGuiWindow::GetIDFromPos</text>
</a>
</g>
</g>
<!-- Node99&#45;&gt;Node102 -->
<g id="edge25" class="edge">
<title>Node99&#45;&gt;Node102</title>
<path fill="none" stroke="#63b8ff" d="M474.56,-935.01C495.01,-944.14 527.92,-957.28 558,-962.5 640.33,-976.77 667.37,-990.78 746,-962.5 788.78,-947.11 826.97,-908.15 846.75,-885.18"/>
<polygon fill="#63b8ff" stroke="#63b8ff" points="849.66,-887.16 853.4,-877.25 844.29,-882.67 849.66,-887.16"/>
</g>
<!-- Node104 -->
<g id="node22" class="node">
<title>Node104</title>
<g id="a_node22"><a xlink:href="namespaceImGui.html#add3290865a67327258c3a32b695adb28" target="_top" xlink:title=" ">
<polygon fill="white" stroke="#666666" points="713,-916 591,-916 591,-897 713,-897 713,-916"/>
<text text-anchor="middle" x="652" y="-904" font-family="Helvetica,sans-Serif" font-size="10.00">ImGui::IsItemFocused</text>
</a>
</g>
</g>
<!-- Node99&#45;&gt;Node104 -->
<g id="edge27" class="edge">
<title>Node99&#45;&gt;Node104</title>
<path fill="none" stroke="#63b8ff" d="M515.6,-919.59C536.31,-917.59 559.61,-915.34 580.97,-913.27"/>
<polygon fill="#63b8ff" stroke="#63b8ff" points="581.34,-916.75 590.95,-912.31 580.66,-909.78 581.34,-916.75"/>
</g>
<!-- Node105 -->
<g id="node23" class="node">
<title>Node105</title>
<g id="a_node23"><a xlink:href="namespaceImGui.html#ab3095c274afa3c3d73e1d5cae190f469" target="_top" xlink:title=" ">
<polygon fill="#fff0f0" stroke="red" points="746,-879 558,-879 558,-860 746,-860 746,-879"/>
<text text-anchor="middle" x="652" y="-867" font-family="Helvetica,sans-Serif" font-size="10.00">ImGui::IsWindowContentHoverable</text>
</a>
</g>
</g>
<!-- Node99&#45;&gt;Node105 -->
<g id="edge28" class="edge">
<title>Node99&#45;&gt;Node105</title>
<path fill="none" stroke="#63b8ff" d="M478.45,-915.85C499.23,-907.73 530.25,-896.25 558,-888.5 567.52,-885.84 577.69,-883.38 587.68,-881.18"/>
<polygon fill="#63b8ff" stroke="#63b8ff" points="588.53,-884.58 597.57,-879.06 587.06,-877.73 588.53,-884.58"/>
</g>
<!-- Node102&#45;&gt;Node14 -->
<g id="edge26" class="edge">
<title>Node102&#45;&gt;Node14</title>
<path fill="none" stroke="#63b8ff" d="M875.14,-857.85C906.23,-833.15 988.98,-767.4 1027.61,-736.7"/>
<polygon fill="#63b8ff" stroke="#63b8ff" points="1029.92,-739.33 1035.57,-730.37 1025.57,-733.85 1029.92,-739.33"/>
</g>
<!-- Node285 -->
<g id="node25" class="node">
<title>Node285</title>
<g id="a_node25"><a xlink:href="namespaceImGui.html#a25689086f813c9714c4bbd4e3d5e669c" target="_top" xlink:title=" ">
<polygon fill="white" stroke="#666666" points="724.5,-768 579.5,-768 579.5,-749 724.5,-749 724.5,-768"/>
<text text-anchor="middle" x="652" y="-756" font-family="Helvetica,sans-Serif" font-size="10.00">ImGui::MouseButtonToKey</text>
</a>
</g>
</g>
<!-- Node320&#45;&gt;Node285 -->
<g id="edge30" class="edge">
<title>Node320&#45;&gt;Node285</title>
<path fill="none" stroke="#63b8ff" d="M505.1,-785.97C531.13,-781.07 563.05,-775.06 590.38,-769.91"/>
<polygon fill="#63b8ff" stroke="#63b8ff" points="591.05,-773.35 600.23,-768.06 589.75,-766.47 591.05,-773.35"/>
</g>
<!-- Node286 -->
<g id="node26" class="node">
<title>Node286</title>
<g id="a_node26"><a xlink:href="namespaceImGui.html#ad12c5be2f1c691e4e6656524248824fb" target="_top" xlink:title=" ">
<polygon fill="#fff0f0" stroke="red" points="712.5,-805 591.5,-805 591.5,-786 712.5,-786 712.5,-805"/>
<text text-anchor="middle" x="652" y="-793" font-family="Helvetica,sans-Serif" font-size="10.00">ImGui::TestKeyOwner</text>
</a>
</g>
</g>
<!-- Node320&#45;&gt;Node286 -->
<g id="edge31" class="edge">
<title>Node320&#45;&gt;Node286</title>
<path fill="none" stroke="#63b8ff" d="M522.12,-795.5C541.23,-795.5 562.05,-795.5 581.27,-795.5"/>
<polygon fill="#63b8ff" stroke="#63b8ff" points="581.46,-799 591.46,-795.5 581.46,-792 581.46,-799"/>
</g>
<!-- Node501&#45;&gt;Node14 -->
<g id="edge33" class="edge">
<title>Node501&#45;&gt;Node14</title>
<path fill="none" stroke="#63b8ff" d="M504.05,-1237.96C621.72,-1214.9 910.49,-1155.71 942,-1124.5 998.23,-1068.79 1035.65,-814.28 1045.44,-740.56"/>
<polygon fill="#63b8ff" stroke="#63b8ff" points="1048.95,-740.71 1046.78,-730.34 1042.01,-739.8 1048.95,-740.71"/>
</g>
<!-- Node501&#45;&gt;Node11 -->
<g id="edge39" class="edge">
<title>Node501&#45;&gt;Node11</title>
<path fill="none" stroke="#63b8ff" d="M460.41,-1237.55C481.8,-1201.58 554.15,-1080.21 558,-1077.5 627.74,-1028.32 689.81,-1102.72 746,-1038.5 819.8,-954.16 748.83,-642.54 782,-535.5 796.17,-489.76 828.31,-442.98 846.93,-418.29"/>
<polygon fill="#63b8ff" stroke="#63b8ff" points="849.8,-420.3 853.12,-410.24 844.25,-416.03 849.8,-420.3"/>
</g>
<!-- Node501&#45;&gt;Node500 -->
<g id="edge36" class="edge">
<title>Node501&#45;&gt;Node500</title>
<path fill="none" stroke="#63b8ff" d="M513.19,-1247.5C535.45,-1247.5 560.97,-1247.5 583.95,-1247.5"/>
<polygon fill="#63b8ff" stroke="#63b8ff" points="583.96,-1251 593.96,-1247.5 583.96,-1244 583.96,-1251"/>
</g>
<!-- Node59 -->
<g id="node28" class="node">
<title>Node59</title>
<g id="a_node28"><a xlink:href="namespaceImGui.html#a0be705dc533a62387dc39ec5c276d2a0" target="_top" xlink:title=" ">
<polygon fill="#fff0f0" stroke="red" points="725,-1312 579,-1312 579,-1293 725,-1293 725,-1312"/>
<text text-anchor="middle" x="652" y="-1300" font-family="Helvetica,sans-Serif" font-size="10.00">ImGui::ClosePopupToLevel</text>
</a>
</g>
</g>
<!-- Node501&#45;&gt;Node59 -->
<g id="edge34" class="edge">
<title>Node501&#45;&gt;Node59</title>
<path fill="none" stroke="#63b8ff" d="M478.01,-1257.07C498.78,-1265.23 530.02,-1276.84 558,-1284.5 566.41,-1286.8 575.33,-1288.93 584.19,-1290.84"/>
<polygon fill="#63b8ff" stroke="#63b8ff" points="583.62,-1294.3 594.12,-1292.92 585.05,-1287.45 583.62,-1294.3"/>
</g>
<!-- Node425 -->
<g id="node29" class="node">
<title>Node425</title>
<g id="a_node29"><a xlink:href="namespaceImGui.html#a22d482190e8f549d5904aded1c6f7778" target="_top" xlink:title=" ">
<polygon fill="white" stroke="#666666" points="929,-1388 795,-1388 795,-1369 929,-1369 929,-1388"/>
<text text-anchor="middle" x="862" y="-1376" font-family="Helvetica,sans-Serif" font-size="10.00">ImGui::IsMousePosValid</text>
</a>
</g>
</g>
<!-- Node501&#45;&gt;Node425 -->
<g id="edge35" class="edge">
<title>Node501&#45;&gt;Node425</title>
<path fill="none" stroke="#63b8ff" d="M464.72,-1257.2C482.29,-1273.28 520.01,-1305.29 558,-1321.5 631.22,-1352.74 721.63,-1366.92 784.54,-1373.32"/>
<polygon fill="#63b8ff" stroke="#63b8ff" points="784.49,-1376.83 794.78,-1374.32 785.17,-1369.86 784.49,-1376.83"/>
</g>
<!-- Node424 -->
<g id="node30" class="node">
<title>Node424</title>
<g id="a_node30"><a xlink:href="namespaceImGui.html#a3fedd0a136d52d72d2fd1e3139b4272c" target="_top" xlink:title=" ">
<polygon fill="#fff0f0" stroke="red" points="737.5,-1426 566.5,-1426 566.5,-1407 737.5,-1407 737.5,-1426"/>
<text text-anchor="middle" x="652" y="-1414" font-family="Helvetica,sans-Serif" font-size="10.00">ImGui::NavCalcPreferredRefPos</text>
</a>
</g>
</g>
<!-- Node501&#45;&gt;Node424 -->
<g id="edge37" class="edge">
<title>Node501&#45;&gt;Node424</title>
<path fill="none" stroke="#63b8ff" d="M462.48,-1257.03C479.09,-1276.57 519.09,-1322.06 558,-1354.5 579.52,-1372.44 606.34,-1389.87 625.65,-1401.65"/>
<polygon fill="#63b8ff" stroke="#63b8ff" points="624.09,-1404.8 634.46,-1406.96 627.7,-1398.8 624.09,-1404.8"/>
</g>
<!-- Node424&#45;&gt;Node425 -->
<g id="edge38" class="edge">
<title>Node424&#45;&gt;Node425</title>
<path fill="none" stroke="#63b8ff" d="M705.22,-1406.96C733.65,-1401.77 769.02,-1395.3 798.87,-1389.85"/>
<polygon fill="#63b8ff" stroke="#63b8ff" points="799.55,-1393.28 808.76,-1388.04 798.29,-1386.4 799.55,-1393.28"/>
</g>
<!-- Node504 -->
<g id="node33" class="node">
<title>Node504</title>
<g id="a_node33"><a xlink:href="namespaceImGui.html#ab5e6e4c78805615fb4d26d4918031f9c" target="_top" xlink:title=" ">
<polygon fill="#fff0f0" stroke="red" points="510,-409 397,-409 397,-390 510,-390 510,-409"/>
<text text-anchor="middle" x="453.5" y="-397" font-family="Helvetica,sans-Serif" font-size="10.00">ImGui::MenuItemEx</text>
</a>
</g>
</g>
<!-- Node503&#45;&gt;Node504 -->
<g id="edge43" class="edge">
<title>Node503&#45;&gt;Node504</title>
<path fill="none" stroke="#63b8ff" d="M314.75,-399.5C336.77,-399.5 362.98,-399.5 386.6,-399.5"/>
<polygon fill="#63b8ff" stroke="#63b8ff" points="386.89,-403 396.89,-399.5 386.89,-396 386.89,-403"/>
</g>
<!-- Node504&#45;&gt;Node21 -->
<g id="edge54" class="edge">
<title>Node504&#45;&gt;Node21</title>
<path fill="none" stroke="#63b8ff" d="M456.84,-409.01C464.95,-439.79 494.84,-537.45 558,-584.5 626.66,-635.65 670.68,-585.79 746,-626.5 765.63,-637.11 762.59,-650.5 782,-661.5 795.71,-669.27 812.39,-674.25 826.89,-677.4"/>
<polygon fill="#63b8ff" stroke="#63b8ff" points="826.49,-680.89 836.98,-679.38 827.84,-674.02 826.49,-680.89"/>
</g>
<!-- Node505 -->
<g id="node34" class="node">
<title>Node505</title>
<g id="a_node34"><a xlink:href="namespaceImGui.html#ae90e9a26f01d0d45f6bf7ca720d170d1" target="_top" xlink:title=" ">
<polygon fill="white" stroke="#666666" points="713,-354 591,-354 591,-335 713,-335 713,-354"/>
<text text-anchor="middle" x="652" y="-342" font-family="Helvetica,sans-Serif" font-size="10.00">ImGui::BeginDisabled</text>
</a>
</g>
</g>
<!-- Node504&#45;&gt;Node505 -->
<g id="edge44" class="edge">
<title>Node504&#45;&gt;Node505</title>
<path fill="none" stroke="#63b8ff" d="M478.01,-389.93C498.78,-381.77 530.02,-370.16 558,-362.5 566.41,-360.2 575.33,-358.07 584.19,-356.16"/>
<polygon fill="#63b8ff" stroke="#63b8ff" points="585.05,-359.55 594.12,-354.08 583.62,-352.7 585.05,-359.55"/>
</g>
<!-- Node120 -->
<g id="node35" class="node">
<title>Node120</title>
<g id="a_node35"><a xlink:href="namespaceImGui.html#a848b9db6cc4a186751c0ecebcaadc33b" target="_top" xlink:title=" ">
<polygon fill="#fff0f0" stroke="red" points="708.5,-243 595.5,-243 595.5,-224 708.5,-224 708.5,-243"/>
<text text-anchor="middle" x="652" y="-231" font-family="Helvetica,sans-Serif" font-size="10.00">ImGui::CalcTextSize</text>
</a>
</g>
</g>
<!-- Node504&#45;&gt;Node120 -->
<g id="edge46" class="edge">
<title>Node504&#45;&gt;Node120</title>
<path fill="none" stroke="#63b8ff" d="M458.13,-389.97C468.83,-363.25 503.04,-287.18 558,-251.5 566.28,-246.13 575.78,-242.28 585.48,-239.55"/>
<polygon fill="#63b8ff" stroke="#63b8ff" points="586.34,-242.94 595.22,-237.17 584.67,-236.14 586.34,-242.94"/>
</g>
<!-- Node506 -->
<g id="node36" class="node">
<title>Node506</title>
<g id="a_node36"><a xlink:href="structImGuiMenuColumns.html#a85fedb03fec0c73555220b74ceaa2bb8" target="_top" xlink:title=" ">
<polygon fill="#fff0f0" stroke="red" points="745,-692 559,-692 559,-673 745,-673 745,-692"/>
<text text-anchor="middle" x="652" y="-680" font-family="Helvetica,sans-Serif" font-size="10.00">ImGuiMenuColumns::DeclColumns</text>
</a>
</g>
</g>
<!-- Node504&#45;&gt;Node506 -->
<g id="edge47" class="edge">
<title>Node504&#45;&gt;Node506</title>
<path fill="none" stroke="#63b8ff" d="M455.11,-409.03C458.1,-447.6 474.74,-593.46 558,-663.5 559.99,-665.17 562.08,-666.71 564.26,-668.12"/>
<polygon fill="#63b8ff" stroke="#63b8ff" points="562.61,-671.21 573.06,-672.98 566,-665.08 562.61,-671.21"/>
</g>
<!-- Node507 -->
<g id="node37" class="node">
<title>Node507</title>
<g id="a_node37"><a xlink:href="namespaceImGui.html#a9e6088c6c690ddff1302b6e42b380733" target="_top" xlink:title=" ">
<polygon fill="#fff0f0" stroke="red" points="918.5,-730 805.5,-730 805.5,-711 918.5,-711 918.5,-730"/>
<text text-anchor="middle" x="862" y="-718" font-family="Helvetica,sans-Serif" font-size="10.00">ImGui::EndDisabled</text>
</a>
</g>
</g>
<!-- Node504&#45;&gt;Node507 -->
<g id="edge49" class="edge">
<title>Node504&#45;&gt;Node507</title>
<path fill="none" stroke="#63b8ff" d="M454.34,-409.19C454.2,-452.03 459.89,-625.48 558,-700.5 593.87,-727.93 717.42,-727.6 795.23,-724.39"/>
<polygon fill="#63b8ff" stroke="#63b8ff" points="795.59,-727.87 805.43,-723.94 795.28,-720.88 795.59,-727.87"/>
</g>
<!-- Node261 -->
<g id="node38" class="node">
<title>Node261</title>
<g id="a_node38"><a xlink:href="namespaceImGui.html#a0de2d9bd347d9866511eb8d014e62556" target="_top" xlink:title=" ">
<polygon fill="#fff0f0" stroke="red" points="709,-206 595,-206 595,-187 709,-187 709,-206"/>
<text text-anchor="middle" x="652" y="-194" font-family="Helvetica,sans-Serif" font-size="10.00">ImGui::GetColorU32</text>
</a>
</g>
</g>
<!-- Node504&#45;&gt;Node261 -->
<g id="edge51" class="edge">
<title>Node504&#45;&gt;Node261</title>
<path fill="none" stroke="#63b8ff" d="M456.79,-389.92C464.73,-358.92 494.17,-260.64 558,-214.5 565.91,-208.78 575.16,-204.74 584.69,-201.92"/>
<polygon fill="#63b8ff" stroke="#63b8ff" points="585.85,-205.24 594.69,-199.4 584.14,-198.45 585.85,-205.24"/>
</g>
<!-- Node508 -->
<g id="node39" class="node">
<title>Node508</title>
<g id="a_node39"><a xlink:href="namespaceImGui.html#a410c8e19b2fea8b52746ca11b3930301" target="_top" xlink:title=" ">
<polygon fill="white" stroke="#666666" points="734.5,-169 569.5,-169 569.5,-150 734.5,-150 734.5,-169"/>
<text text-anchor="middle" x="652" y="-157" font-family="Helvetica,sans-Serif" font-size="10.00">ImGui::GetContentRegionAvail</text>
</a>
</g>
</g>
<!-- Node504&#45;&gt;Node508 -->
<g id="edge52" class="edge">
<title>Node504&#45;&gt;Node508</title>
<path fill="none" stroke="#63b8ff" d="M455.91,-389.57C461.47,-354.31 485.26,-234.29 558,-177.5 559.6,-176.25 561.27,-175.07 562.99,-173.98"/>
<polygon fill="#63b8ff" stroke="#63b8ff" points="564.87,-176.94 571.98,-169.08 561.52,-170.79 564.87,-176.94"/>
</g>
<!-- Node116 -->
<g id="node40" class="node">
<title>Node116</title>
<g id="a_node40"><a xlink:href="namespaceImGui.html#ac452417b5004ca16a814a72cff153526" target="_top" xlink:title=" ">
<polygon fill="white" stroke="#666666" points="724,-132 580,-132 580,-113 724,-113 724,-132"/>
<text text-anchor="middle" x="652" y="-120" font-family="Helvetica,sans-Serif" font-size="10.00">ImGui::GetCurrentWindow</text>
</a>
</g>
</g>
<!-- Node504&#45;&gt;Node116 -->
<g id="edge53" class="edge">
<title>Node504&#45;&gt;Node116</title>
<path fill="none" stroke="#63b8ff" d="M455.17,-389.86C458.39,-351.52 475.71,-208.54 558,-140.5 561.76,-137.39 565.9,-134.76 570.28,-132.54"/>
<polygon fill="#63b8ff" stroke="#63b8ff" points="571.77,-135.71 579.57,-128.53 569,-129.28 571.77,-135.71"/>
</g>
<!-- Node509 -->
<g id="node41" class="node">
<title>Node509</title>
<g id="a_node41"><a xlink:href="imgui__widgets_8cpp.html#a323d394bcc27c05c96d74812a43aee1d" target="_top" xlink:title=" ">
<polygon fill="#fff0f0" stroke="red" points="715.5,-428 588.5,-428 588.5,-409 715.5,-409 715.5,-428"/>
<text text-anchor="middle" x="652" y="-416" font-family="Helvetica,sans-Serif" font-size="10.00">IsRootOfOpenMenuSet</text>
</a>
</g>
</g>
<!-- Node504&#45;&gt;Node509 -->
<g id="edge55" class="edge">
<title>Node504&#45;&gt;Node509</title>
<path fill="none" stroke="#63b8ff" d="M510.02,-404.87C531.18,-406.91 555.62,-409.28 578.15,-411.46"/>
<polygon fill="#63b8ff" stroke="#63b8ff" points="578.06,-414.96 588.35,-412.44 578.74,-408 578.06,-414.96"/>
</g>
<!-- Node327 -->
<g id="node42" class="node">
<title>Node327</title>
<g id="a_node42"><a xlink:href="namespaceImGui.html#a66bc1e61bff5f2170bcd2d7d071eaa22" target="_top" xlink:title=" ">
<polygon fill="white" stroke="#666666" points="743,-391 561,-391 561,-372 743,-372 743,-391"/>
<text text-anchor="middle" x="652" y="-379" font-family="Helvetica,sans-Serif" font-size="10.00">ImGui::LogSetNextTextDecoration</text>
</a>
</g>
</g>
<!-- Node504&#45;&gt;Node327 -->
<g id="edge56" class="edge">
<title>Node504&#45;&gt;Node327</title>
<path fill="none" stroke="#63b8ff" d="M510.02,-394.41C522.72,-393.25 536.59,-391.98 550.53,-390.7"/>
<polygon fill="#63b8ff" stroke="#63b8ff" points="551.03,-394.17 560.67,-389.77 550.39,-387.2 551.03,-394.17"/>
</g>
<!-- Node487 -->
<g id="node43" class="node">
<title>Node487</title>
<g id="a_node43"><a xlink:href="namespaceImGui.html#aba0b2d8f890a5d435ae43d0c4a2d4dd1" target="_top" xlink:title=" ">
<polygon fill="#fff0f0" stroke="red" points="692,-317 612,-317 612,-298 692,-298 692,-317"/>
<text text-anchor="middle" x="652" y="-305" font-family="Helvetica,sans-Serif" font-size="10.00">ImGui::PopID</text>
</a>
</g>
</g>
<!-- Node504&#45;&gt;Node487 -->
<g id="edge57" class="edge">
<title>Node504&#45;&gt;Node487</title>
<path fill="none" stroke="#63b8ff" d="M464.73,-389.83C482.32,-373.78 520.05,-341.81 558,-325.5 571.62,-319.65 587.17,-315.68 601.61,-313.01"/>
<polygon fill="#63b8ff" stroke="#63b8ff" points="602.61,-316.39 611.89,-311.27 601.45,-309.49 602.61,-316.39"/>
</g>
<!-- Node510 -->
<g id="node44" class="node">
<title>Node510</title>
<g id="a_node44"><a xlink:href="namespaceImGui.html#aa93281155e1dd23715dbd384e91edc6b" target="_top" xlink:title=" ">
<polygon fill="#fff0f0" stroke="red" points="918.5,-653 805.5,-653 805.5,-634 918.5,-634 918.5,-653"/>
<text text-anchor="middle" x="862" y="-641" font-family="Helvetica,sans-Serif" font-size="10.00">ImGui::PopItemFlag</text>
</a>
</g>
</g>
<!-- Node504&#45;&gt;Node510 -->
<g id="edge58" class="edge">
<title>Node504&#45;&gt;Node510</title>
<path fill="none" stroke="#63b8ff" d="M458.4,-409.19C469.6,-435.69 504.46,-509.78 558,-546.5 629.03,-595.21 667.9,-557.19 746,-593.5 763.9,-601.82 764.32,-610.73 782,-619.5 790.96,-623.94 800.9,-627.74 810.62,-630.93"/>
<polygon fill="#63b8ff" stroke="#63b8ff" points="809.64,-634.29 820.23,-633.9 811.71,-627.6 809.64,-634.29"/>
</g>
<!-- Node305 -->
<g id="node45" class="node">
<title>Node305</title>
<g id="a_node45"><a xlink:href="namespaceImGui.html#a9795f730b4043a98b6254738d86efcdc" target="_top" xlink:title=" ">
<polygon fill="#fff0f0" stroke="red" points="922,-611 802,-611 802,-592 922,-592 922,-611"/>
<text text-anchor="middle" x="862" y="-599" font-family="Helvetica,sans-Serif" font-size="10.00">ImGui::PopStyleColor</text>
</a>
</g>
</g>
<!-- Node504&#45;&gt;Node305 -->
<g id="edge60" class="edge">
<title>Node504&#45;&gt;Node305</title>
<path fill="none" stroke="#63b8ff" d="M460.69,-409.2C475.01,-430.8 512.7,-483.08 558,-509.5 632.31,-552.83 664.92,-526.77 746,-555.5 762.68,-561.41 765.68,-565.67 782,-572.5 795.32,-578.08 810.12,-583.67 823.29,-588.43"/>
<polygon fill="#63b8ff" stroke="#63b8ff" points="822.38,-591.83 832.98,-591.9 824.74,-585.24 822.38,-591.83"/>
</g>
<!-- Node511 -->
<g id="node46" class="node">
<title>Node511</title>
<g id="a_node46"><a xlink:href="namespaceImGui.html#a14116e57d81e326adef2a702e65781d4" target="_top" xlink:title=" ">
<polygon fill="#fff0f0" stroke="red" points="917,-564 807,-564 807,-545 917,-545 917,-564"/>
<text text-anchor="middle" x="862" y="-552" font-family="Helvetica,sans-Serif" font-size="10.00">ImGui::PopStyleVar</text>
</a>
</g>
</g>
<!-- Node504&#45;&gt;Node511 -->
<g id="edge62" class="edge">
<title>Node504&#45;&gt;Node511</title>
<path fill="none" stroke="#63b8ff" d="M464.8,-409.02C482.49,-424.83 520.37,-456.46 558,-473.5 636.17,-508.91 663.31,-494.56 746,-517.5 772.11,-524.74 801.16,-534.1 823.53,-541.59"/>
<polygon fill="#63b8ff" stroke="#63b8ff" points="822.71,-545.01 833.31,-544.89 824.95,-538.38 822.71,-545.01"/>
</g>
<!-- Node488 -->
<g id="node47" class="node">
<title>Node488</title>
<g id="a_node47"><a xlink:href="namespaceImGui.html#a27a8533605dc5b8cabf161bf7715bbde" target="_top" xlink:title=" ">
<polygon fill="white" stroke="#666666" points="695,-655 609,-655 609,-636 695,-636 695,-655"/>
<text text-anchor="middle" x="652" y="-643" font-family="Helvetica,sans-Serif" font-size="10.00">ImGui::PushID</text>
</a>
</g>
</g>
<!-- Node504&#45;&gt;Node488 -->
<g id="edge64" class="edge">
<title>Node504&#45;&gt;Node488</title>
<path fill="none" stroke="#63b8ff" d="M456.03,-409.28C462.01,-444.01 487.04,-562.51 558,-621.5 569.56,-631.11 584.52,-636.93 599.05,-640.44"/>
<polygon fill="#63b8ff" stroke="#63b8ff" points="598.49,-643.89 608.99,-642.51 599.92,-637.04 598.49,-643.89"/>
</g>
<!-- Node514 -->
<g id="node48" class="node">
<title>Node514</title>
<g id="a_node48"><a xlink:href="namespaceImGui.html#ac7301f6378333f6d17f47823eed9e00a" target="_top" xlink:title=" ">
<polygon fill="white" stroke="#666666" points="711.5,-465 592.5,-465 592.5,-446 711.5,-446 711.5,-465"/>
<text text-anchor="middle" x="652" y="-453" font-family="Helvetica,sans-Serif" font-size="10.00">ImGui::PushItemFlag</text>
</a>
</g>
</g>
<!-- Node504&#45;&gt;Node514 -->
<g id="edge67" class="edge">
<title>Node504&#45;&gt;Node514</title>
<path fill="none" stroke="#63b8ff" d="M478.45,-409.15C499.23,-417.27 530.25,-428.75 558,-436.5 567.52,-439.16 577.69,-441.62 587.68,-443.82"/>
<polygon fill="#63b8ff" stroke="#63b8ff" points="587.06,-447.27 597.57,-445.94 588.53,-440.42 587.06,-447.27"/>
</g>
<!-- Node307 -->
<g id="node49" class="node">
<title>Node307</title>
<g id="a_node49"><a xlink:href="namespaceImGui.html#a77ee84afb636e05eb4b2d6eeddcc2aa8" target="_top" xlink:title=" ">
<polygon fill="#fff0f0" stroke="red" points="714.5,-280 589.5,-280 589.5,-261 714.5,-261 714.5,-280"/>
<text text-anchor="middle" x="652" y="-268" font-family="Helvetica,sans-Serif" font-size="10.00">ImGui::PushStyleColor</text>
</a>
</g>
</g>
<!-- Node504&#45;&gt;Node307 -->
<g id="edge70" class="edge">
<title>Node504&#45;&gt;Node307</title>
<path fill="none" stroke="#63b8ff" d="M460.36,-389.88C474.29,-367.95 511.67,-314.16 558,-288.5 564.6,-284.84 571.83,-281.92 579.24,-279.58"/>
<polygon fill="#63b8ff" stroke="#63b8ff" points="580.36,-282.9 589.05,-276.84 578.47,-276.16 580.36,-282.9"/>
</g>
<!-- Node515 -->
<g id="node50" class="node">
<title>Node515</title>
<g id="a_node50"><a xlink:href="namespaceImGui.html#acf4ee3d6294b5e93fc1c79353d2a2748" target="_top" xlink:title=" ">
<polygon fill="#fff0f0" stroke="red" points="713,-95 591,-95 591,-76 713,-76 713,-95"/>
<text text-anchor="middle" x="652" y="-83" font-family="Helvetica,sans-Serif" font-size="10.00">ImGui::PushStyleVarX</text>
</a>
</g>
</g>
<!-- Node504&#45;&gt;Node515 -->
<g id="edge72" class="edge">
<title>Node504&#45;&gt;Node515</title>
<path fill="none" stroke="#63b8ff" d="M454.64,-389.97C455.79,-348.57 466.16,-182.89 558,-103.5 564.69,-97.72 572.67,-93.57 581.11,-90.63"/>
<polygon fill="#63b8ff" stroke="#63b8ff" points="582.17,-93.96 590.78,-87.79 580.2,-87.24 582.17,-93.96"/>
</g>
<!-- Node505&#45;&gt;Node11 -->
<g id="edge45" class="edge">
<title>Node505&#45;&gt;Node11</title>
<path fill="none" stroke="#63b8ff" d="M708.34,-354C720.8,-356.48 733.91,-359.35 746,-362.5 773.12,-369.57 803.17,-379.58 825.75,-387.55"/>
<polygon fill="#63b8ff" stroke="#63b8ff" points="824.65,-390.88 835.25,-390.94 827.01,-384.28 824.65,-390.88"/>
</g>
<!-- Node506&#45;&gt;Node21 -->
<g id="edge48" class="edge">
<title>Node506&#45;&gt;Node21</title>
<path fill="none" stroke="#63b8ff" d="M745.14,-682.5C774.09,-682.5 804.28,-682.5 826.58,-682.5"/>
<polygon fill="#63b8ff" stroke="#63b8ff" points="826.86,-686 836.86,-682.5 826.86,-679 826.86,-686"/>
</g>
<!-- Node507&#45;&gt;Node14 -->
<g id="edge50" class="edge">
<title>Node507&#45;&gt;Node14</title>
<path fill="none" stroke="#63b8ff" d="M918.51,-720.5C942.43,-720.5 970.3,-720.5 994.04,-720.5"/>
<polygon fill="#63b8ff" stroke="#63b8ff" points="994.29,-724 1004.29,-720.5 994.29,-717 994.29,-724"/>
</g>
<!-- Node510&#45;&gt;Node14 -->
<g id="edge59" class="edge">
<title>Node510&#45;&gt;Node14</title>
<path fill="none" stroke="#63b8ff" d="M908.72,-653.05C919.78,-655.91 931.45,-659.4 942,-663.5 971.69,-675.04 1003.61,-693.05 1024.57,-705.73"/>
<polygon fill="#63b8ff" stroke="#63b8ff" points="1022.76,-708.72 1033.12,-710.97 1026.42,-702.76 1022.76,-708.72"/>
</g>
<!-- Node305&#45;&gt;Node14 -->
<g id="edge61" class="edge">
<title>Node305&#45;&gt;Node14</title>
<path fill="none" stroke="#63b8ff" d="M908.71,-611.01C919.99,-614.37 931.77,-618.79 942,-624.5 979.31,-645.35 1014.37,-681.57 1033.34,-703.06"/>
<polygon fill="#63b8ff" stroke="#63b8ff" points="1030.82,-705.5 1040.01,-710.77 1036.12,-700.92 1030.82,-705.5"/>
</g>
<!-- Node511&#45;&gt;Node14 -->
<g id="edge63" class="edge">
<title>Node511&#45;&gt;Node14</title>
<path fill="none" stroke="#63b8ff" d="M903.76,-564.02C916.76,-568.3 930.7,-574.29 942,-582.5 987.04,-615.22 1022.16,-672.34 1038.31,-701.78"/>
<polygon fill="#63b8ff" stroke="#63b8ff" points="1035.41,-703.78 1043.21,-710.95 1041.58,-700.48 1035.41,-703.78"/>
</g>
<!-- Node488&#45;&gt;Node11 -->
<g id="edge66" class="edge">
<title>Node488&#45;&gt;Node11</title>
<path fill="none" stroke="#63b8ff" d="M661.15,-635.9C692.54,-598.92 805.83,-465.48 846.41,-417.68"/>
<polygon fill="#63b8ff" stroke="#63b8ff" points="849.1,-419.93 852.9,-410.04 843.76,-415.4 849.1,-419.93"/>
</g>
<!-- Node488&#45;&gt;Node391 -->
<g id="edge65" class="edge">
<title>Node488&#45;&gt;Node391</title>
<path fill="none" stroke="#63b8ff" d="M695.1,-643.03C713.36,-644.33 733.41,-649.39 746,-663.5 814.43,-740.16 746.52,-1028.06 782,-1124.5 795.48,-1161.13 824.99,-1196.35 843.88,-1216.42"/>
<polygon fill="#63b8ff" stroke="#63b8ff" points="841.55,-1219.04 851.01,-1223.81 846.59,-1214.18 841.55,-1219.04"/>
</g>
<!-- Node514&#45;&gt;Node14 -->
<g id="edge68" class="edge">
<title>Node514&#45;&gt;Node14</title>
<path fill="none" stroke="#63b8ff" d="M711.72,-458C775.06,-463.56 875.72,-481.06 942,-535.5 997.45,-581.05 1029.71,-663.7 1042.1,-701.14"/>
<polygon fill="#63b8ff" stroke="#63b8ff" points="1038.81,-702.37 1045.19,-710.83 1045.48,-700.24 1038.81,-702.37"/>
</g>
<!-- Node514&#45;&gt;Node11 -->
<g id="edge69" class="edge">
<title>Node514&#45;&gt;Node11</title>
<path fill="none" stroke="#63b8ff" d="M704.38,-445.98C717.98,-443.19 732.6,-439.96 746,-436.5 772.17,-429.75 801.22,-420.64 823.58,-413.28"/>
<polygon fill="#63b8ff" stroke="#63b8ff" points="824.96,-416.51 833.34,-410.03 822.75,-409.86 824.96,-416.51"/>
</g>
<!-- Node307&#45;&gt;Node11 -->
<g id="edge71" class="edge">
<title>Node307&#45;&gt;Node11</title>
<path fill="none" stroke="#63b8ff" d="M714.75,-277.22C725.54,-279.84 736.38,-283.47 746,-288.5 790.21,-311.61 828.83,-357.17 848.05,-382.48"/>
<polygon fill="#63b8ff" stroke="#63b8ff" points="845.46,-384.86 854.23,-390.81 851.08,-380.69 845.46,-384.86"/>
</g>
<!-- Node515&#45;&gt;Node11 -->
<g id="edge73" class="edge">
<title>Node515&#45;&gt;Node11</title>
<path fill="none" stroke="#63b8ff" d="M713.02,-88.02C724.95,-90.9 736.66,-95.69 746,-103.5 834.14,-177.18 854.96,-326.88 859.68,-380.68"/>
<polygon fill="#63b8ff" stroke="#63b8ff" points="856.21,-381.21 860.48,-390.91 863.19,-380.67 856.21,-381.21"/>
</g>
</g>
</svg>
