<?xml version="1.0" encoding="UTF-8" standalone="no"?>
<!DOCTYPE svg PUBLIC "-//W3C//DTD SVG 1.1//EN"
 "http://www.w3.org/Graphics/SVG/1.1/DTD/svg11.dtd">
<!-- Generated by graphviz version 2.43.0 (0)
 -->
<!-- Title: ImGuiDockNode::SetLocalFlags Pages: 1 -->
<svg width="1562pt" height="530pt"
 viewBox="0.00 0.00 1562.00 529.50" xmlns="http://www.w3.org/2000/svg" xmlns:xlink="http://www.w3.org/1999/xlink">
<g id="graph0" class="graph" transform="scale(1 1) rotate(0) translate(4 525.5)">
<title>ImGuiDockNode::SetLocalFlags</title>
<!-- Node1 -->
<g id="node1" class="node">
<title>Node1</title>
<g id="a_node1"><a xlink:title=" ">
<polygon fill="#999999" stroke="#666666" points="1554,-315.5 1384,-315.5 1384,-296.5 1554,-296.5 1554,-315.5"/>
<text text-anchor="middle" x="1469" y="-303.5" font-family="Helvetica,sans-Serif" font-size="10.00">ImGuiDockNode::SetLocalFlags</text>
</a>
</g>
</g>
<!-- Node2 -->
<g id="node2" class="node">
<title>Node2</title>
<g id="a_node2"><a xlink:href="namespaceImGui.html#a941b7d9d1f491f778796221031b5e439" target="_top" xlink:title=" ">
<polygon fill="white" stroke="#666666" points="513,-410.5 358,-410.5 358,-391.5 513,-391.5 513,-410.5"/>
<text text-anchor="middle" x="435.5" y="-398.5" font-family="Helvetica,sans-Serif" font-size="10.00">ImGui::DockBuilderAddNode</text>
</a>
</g>
</g>
<!-- Node1&#45;&gt;Node2 -->
<g id="edge1" class="edge">
<title>Node1&#45;&gt;Node2</title>
<path fill="none" stroke="#63b8ff" d="M1453.13,-323.43C1432.26,-346.54 1391.91,-386.54 1348,-405 1224.18,-457.05 1181.81,-437 1047.5,-437 1047.5,-437 1047.5,-437 840.5,-437 720.97,-437 582.32,-421.17 502.47,-410.51"/>
<polygon fill="#63b8ff" stroke="#63b8ff" points="1455.91,-325.57 1459.9,-315.75 1450.66,-320.93 1455.91,-325.57"/>
</g>
<!-- Node3 -->
<g id="node3" class="node">
<title>Node3</title>
<g id="a_node3"><a xlink:href="namespaceImGui.html#af3346b709d35d9fc7787f8c3a5ce4b52" target="_top" xlink:title=" ">
<polygon fill="white" stroke="#666666" points="1135,-315.5 958,-315.5 958,-296.5 1135,-296.5 1135,-315.5"/>
<text text-anchor="middle" x="1046.5" y="-303.5" font-family="Helvetica,sans-Serif" font-size="10.00">ImGui::DockBuilderRemoveNode</text>
</a>
</g>
</g>
<!-- Node1&#45;&gt;Node3 -->
<g id="edge2" class="edge">
<title>Node1&#45;&gt;Node3</title>
<path fill="none" stroke="#63b8ff" d="M1373.57,-306C1302.13,-306 1204.76,-306 1135.06,-306"/>
<polygon fill="#63b8ff" stroke="#63b8ff" points="1373.92,-309.5 1383.92,-306 1373.92,-302.5 1373.92,-309.5"/>
</g>
<!-- Node6 -->
<g id="node6" class="node">
<title>Node6</title>
<g id="a_node6"><a xlink:href="namespaceImGui.html#ab7bb6828e2ad6934e71d786c44bd37d4" target="_top" xlink:title=" ">
<polygon fill="white" stroke="#666666" points="1335.5,-224 1183.5,-224 1183.5,-194 1335.5,-194 1335.5,-224"/>
<text text-anchor="start" x="1191.5" y="-212" font-family="Helvetica,sans-Serif" font-size="10.00">ImGui::DockBuilderRemove</text>
<text text-anchor="middle" x="1259.5" y="-201" font-family="Helvetica,sans-Serif" font-size="10.00">NodeChildNodes</text>
</a>
</g>
</g>
<!-- Node1&#45;&gt;Node6 -->
<g id="edge6" class="edge">
<title>Node1&#45;&gt;Node6</title>
<path fill="none" stroke="#63b8ff" d="M1438.19,-292.06C1399.62,-274.03 1332.68,-242.74 1292.9,-224.14"/>
<polygon fill="#63b8ff" stroke="#63b8ff" points="1436.8,-295.28 1447.35,-296.34 1439.77,-288.94 1436.8,-295.28"/>
</g>
<!-- Node20 -->
<g id="node20" class="node">
<title>Node20</title>
<g id="a_node20"><a xlink:href="namespaceImGui.html#a6d45bf3d75b8591675d83441f5745ae1" target="_top" xlink:title=" ">
<polygon fill="white" stroke="#666666" points="1131.5,-78 961.5,-78 961.5,-48 1131.5,-48 1131.5,-78"/>
<text text-anchor="start" x="969.5" y="-66" font-family="Helvetica,sans-Serif" font-size="10.00">ImGui::DockContextBuildNodes</text>
<text text-anchor="middle" x="1046.5" y="-55" font-family="Helvetica,sans-Serif" font-size="10.00">FromSettings</text>
</a>
</g>
</g>
<!-- Node1&#45;&gt;Node20 -->
<g id="edge23" class="edge">
<title>Node1&#45;&gt;Node20</title>
<path fill="none" stroke="#63b8ff" d="M1454.2,-288.06C1433.55,-262.24 1392.27,-214.49 1348,-185 1269.74,-132.87 1165.71,-96.84 1102.83,-78.08"/>
<polygon fill="#63b8ff" stroke="#63b8ff" points="1451.68,-290.52 1460.62,-296.21 1457.18,-286.19 1451.68,-290.52"/>
</g>
<!-- Node22 -->
<g id="node22" class="node">
<title>Node22</title>
<g id="a_node22"><a xlink:href="namespaceImGui.html#a2634162c488c806737fe624013c37c0e" target="_top" xlink:title=" ">
<polygon fill="white" stroke="#666666" points="1348,-277.5 1171,-277.5 1171,-258.5 1348,-258.5 1348,-277.5"/>
<text text-anchor="middle" x="1259.5" y="-265.5" font-family="Helvetica,sans-Serif" font-size="10.00">ImGui::DockContextProcessDock</text>
</a>
</g>
</g>
<!-- Node1&#45;&gt;Node22 -->
<g id="edge27" class="edge">
<title>Node1&#45;&gt;Node22</title>
<path fill="none" stroke="#63b8ff" d="M1406.04,-294.65C1376.27,-289.2 1340.98,-282.74 1312.61,-277.54"/>
<polygon fill="#63b8ff" stroke="#63b8ff" points="1405.44,-298.1 1415.91,-296.46 1406.7,-291.22 1405.44,-298.1"/>
</g>
<!-- Node25 -->
<g id="node25" class="node">
<title>Node25</title>
<g id="a_node25"><a xlink:href="namespaceImGui.html#a12a53f2c63989eea4ca570cc2fee5212" target="_top" xlink:title=" ">
<polygon fill="white" stroke="#666666" points="1341.5,-378 1177.5,-378 1177.5,-348 1341.5,-348 1341.5,-378"/>
<text text-anchor="start" x="1185.5" y="-366" font-family="Helvetica,sans-Serif" font-size="10.00">ImGui::DockNodeUpdateFlags</text>
<text text-anchor="middle" x="1259.5" y="-355" font-family="Helvetica,sans-Serif" font-size="10.00">AndCollapse</text>
</a>
</g>
</g>
<!-- Node1&#45;&gt;Node25 -->
<g id="edge31" class="edge">
<title>Node1&#45;&gt;Node25</title>
<path fill="none" stroke="#63b8ff" d="M1423.4,-318.25C1391.73,-326.95 1349.02,-338.68 1315.28,-347.95"/>
<polygon fill="#63b8ff" stroke="#63b8ff" points="1424.55,-321.56 1433.27,-315.54 1422.7,-314.81 1424.55,-321.56"/>
</g>
<!-- Node28 -->
<g id="node28" class="node">
<title>Node28</title>
<g id="a_node28"><a xlink:href="namespaceImGui.html#a3d9d26cbb99a95938979a3ca3e211f92" target="_top" xlink:title=" ">
<polygon fill="white" stroke="#666666" points="694.5,-484.5 588.5,-484.5 588.5,-465.5 694.5,-465.5 694.5,-484.5"/>
<text text-anchor="middle" x="641.5" y="-472.5" font-family="Helvetica,sans-Serif" font-size="10.00">ImGui::DockSpace</text>
</a>
</g>
</g>
<!-- Node1&#45;&gt;Node28 -->
<g id="edge44" class="edge">
<title>Node1&#45;&gt;Node28</title>
<path fill="none" stroke="#63b8ff" d="M1458.93,-325.21C1442.25,-358 1403.31,-423.82 1348,-451 1118.94,-563.56 795.69,-508.87 683.07,-484.55"/>
<polygon fill="#63b8ff" stroke="#63b8ff" points="1462.27,-326.34 1463.55,-315.82 1455.99,-323.25 1462.27,-326.34"/>
</g>
<!-- Node3&#45;&gt;Node2 -->
<g id="edge3" class="edge">
<title>Node3&#45;&gt;Node2</title>
<path fill="none" stroke="#63b8ff" d="M952.18,-295.66C852.27,-287.77 690.25,-284.24 558,-325 512.59,-339 467.3,-374.41 447.24,-391.5"/>
<polygon fill="#63b8ff" stroke="#63b8ff" points="952,-299.15 962.26,-296.48 952.57,-292.18 952,-299.15"/>
</g>
<!-- Node4 -->
<g id="node4" class="node">
<title>Node4</title>
<g id="a_node4"><a xlink:href="namespaceImGui.html#a938077e82ec2d3c8c020058896a050d0" target="_top" xlink:title=" ">
<polygon fill="white" stroke="#666666" points="922,-353.5 761,-353.5 761,-334.5 922,-334.5 922,-353.5"/>
<text text-anchor="middle" x="841.5" y="-341.5" font-family="Helvetica,sans-Serif" font-size="10.00">ImGui::DockBuilderCopyNode</text>
</a>
</g>
</g>
<!-- Node3&#45;&gt;Node4 -->
<g id="edge4" class="edge">
<title>Node3&#45;&gt;Node4</title>
<path fill="none" stroke="#63b8ff" d="M984.5,-317.42C955.46,-322.86 921.12,-329.28 893.48,-334.46"/>
<polygon fill="#63b8ff" stroke="#63b8ff" points="985.35,-320.82 994.54,-315.54 984.06,-313.94 985.35,-320.82"/>
</g>
<!-- Node5 -->
<g id="node5" class="node">
<title>Node5</title>
<g id="a_node5"><a xlink:href="namespaceImGui.html#adf707304b4d0759f566bdf584b913815" target="_top" xlink:title=" ">
<polygon fill="white" stroke="#666666" points="722,-364 561,-364 561,-334 722,-334 722,-364"/>
<text text-anchor="start" x="569" y="-352" font-family="Helvetica,sans-Serif" font-size="10.00">ImGui::DockBuilderCopyDock</text>
<text text-anchor="middle" x="641.5" y="-341" font-family="Helvetica,sans-Serif" font-size="10.00">Space</text>
</a>
</g>
</g>
<!-- Node4&#45;&gt;Node5 -->
<g id="edge5" class="edge">
<title>Node4&#45;&gt;Node5</title>
<path fill="none" stroke="#63b8ff" d="M750.55,-346.27C741.03,-346.51 731.4,-346.75 722.02,-346.99"/>
<polygon fill="#63b8ff" stroke="#63b8ff" points="750.91,-349.76 760.82,-346.01 750.74,-342.77 750.91,-349.76"/>
</g>
<!-- Node6&#45;&gt;Node3 -->
<g id="edge7" class="edge">
<title>Node6&#45;&gt;Node3</title>
<path fill="none" stroke="#63b8ff" d="M1216.37,-228.37C1171.63,-248.94 1102.72,-280.62 1068.41,-296.39"/>
<polygon fill="#63b8ff" stroke="#63b8ff" points="1217.91,-231.51 1225.53,-224.16 1214.98,-225.15 1217.91,-231.51"/>
</g>
<!-- Node7 -->
<g id="node7" class="node">
<title>Node7</title>
<g id="a_node7"><a xlink:href="namespaceImGui.html#ada8fcfabcf71d5393827317f9d1d25d7" target="_top" xlink:title=" ">
<polygon fill="white" stroke="#666666" points="1132,-163.5 961,-163.5 961,-144.5 1132,-144.5 1132,-163.5"/>
<text text-anchor="middle" x="1046.5" y="-151.5" font-family="Helvetica,sans-Serif" font-size="10.00">ImGui::DockContextClearNodes</text>
</a>
</g>
</g>
<!-- Node6&#45;&gt;Node7 -->
<g id="edge8" class="edge">
<title>Node6&#45;&gt;Node7</title>
<path fill="none" stroke="#63b8ff" d="M1191.04,-191.42C1155.61,-182.18 1113.57,-171.22 1084.18,-163.56"/>
<polygon fill="#63b8ff" stroke="#63b8ff" points="1190.28,-194.84 1200.84,-193.97 1192.05,-188.06 1190.28,-194.84"/>
</g>
<!-- Node8 -->
<g id="node8" class="node">
<title>Node8</title>
<g id="a_node8"><a xlink:href="namespaceImGui.html#a7f7a9ea28b0557a655c27375eb941a56" target="_top" xlink:title=" ">
<polygon fill="white" stroke="#666666" points="725,-181 558,-181 558,-151 725,-151 725,-181"/>
<text text-anchor="start" x="566" y="-169" font-family="Helvetica,sans-Serif" font-size="10.00">ImGui::DockContextNewFrame</text>
<text text-anchor="middle" x="641.5" y="-158" font-family="Helvetica,sans-Serif" font-size="10.00">UpdateUndocking</text>
</a>
</g>
</g>
<!-- Node6&#45;&gt;Node8 -->
<g id="edge22" class="edge">
<title>Node6&#45;&gt;Node8</title>
<path fill="none" stroke="#63b8ff" d="M1173.17,-203.04C1054.77,-194.78 842.07,-179.93 725.13,-171.77"/>
<polygon fill="#63b8ff" stroke="#63b8ff" points="1173.05,-206.54 1183.27,-203.75 1173.54,-199.56 1173.05,-206.54"/>
</g>
<!-- Node7&#45;&gt;Node8 -->
<g id="edge9" class="edge">
<title>Node7&#45;&gt;Node8</title>
<path fill="none" stroke="#63b8ff" d="M950.18,-156.84C881.82,-158.87 790.62,-161.59 725.29,-163.53"/>
<polygon fill="#63b8ff" stroke="#63b8ff" points="950.64,-160.33 960.53,-156.53 950.43,-153.33 950.64,-160.33"/>
</g>
<!-- Node12 -->
<g id="node12" class="node">
<title>Node12</title>
<g id="a_node12"><a xlink:href="namespaceImGui.html#a6789c5ed2a793129d51cb29ff9865c86" target="_top" xlink:title=" ">
<polygon fill="white" stroke="#666666" points="917.5,-78 765.5,-78 765.5,-48 917.5,-48 917.5,-78"/>
<text text-anchor="start" x="773.5" y="-66" font-family="Helvetica,sans-Serif" font-size="10.00">ImGui::DockContextRebuild</text>
<text text-anchor="middle" x="841.5" y="-55" font-family="Helvetica,sans-Serif" font-size="10.00">Nodes</text>
</a>
</g>
</g>
<!-- Node7&#45;&gt;Node12 -->
<g id="edge13" class="edge">
<title>Node7&#45;&gt;Node12</title>
<path fill="none" stroke="#63b8ff" d="M1021.85,-139.28C997.5,-124.58 958.13,-102.07 922,-87 914.28,-83.78 905.98,-80.79 897.76,-78.09"/>
<polygon fill="#63b8ff" stroke="#63b8ff" points="1020.04,-142.28 1030.4,-144.49 1023.69,-136.3 1020.04,-142.28"/>
</g>
<!-- Node13 -->
<g id="node13" class="node">
<title>Node13</title>
<g id="a_node13"><a xlink:href="namespaceImGui.html#a715a6e2d43d08b58727623d0a61aa92e" target="_top" xlink:title=" ">
<polygon fill="white" stroke="#666666" points="919,-126 764,-126 764,-96 919,-96 919,-126"/>
<text text-anchor="start" x="772" y="-114" font-family="Helvetica,sans-Serif" font-size="10.00">ImGui::DockSettingsHandler</text>
<text text-anchor="middle" x="841.5" y="-103" font-family="Helvetica,sans-Serif" font-size="10.00">_ClearAll</text>
</a>
</g>
</g>
<!-- Node7&#45;&gt;Node13 -->
<g id="edge15" class="edge">
<title>Node7&#45;&gt;Node13</title>
<path fill="none" stroke="#63b8ff" d="M990.55,-142.36C966.78,-137.32 938.66,-131.37 913.34,-126.01"/>
<polygon fill="#63b8ff" stroke="#63b8ff" points="989.94,-145.81 1000.45,-144.46 991.39,-138.96 989.94,-145.81"/>
</g>
<!-- Node18 -->
<g id="node18" class="node">
<title>Node18</title>
<g id="a_node18"><a xlink:href="namespaceImGui.html#afe7a28c6eb52fff3cc27d5a698fea4ff" target="_top" xlink:title=" ">
<polygon fill="white" stroke="#666666" points="718,-229.5 565,-229.5 565,-210.5 718,-210.5 718,-229.5"/>
<text text-anchor="middle" x="641.5" y="-217.5" font-family="Helvetica,sans-Serif" font-size="10.00">ImGui::ShowMetricsWindow</text>
</a>
</g>
</g>
<!-- Node7&#45;&gt;Node18 -->
<g id="edge20" class="edge">
<title>Node7&#45;&gt;Node18</title>
<path fill="none" stroke="#63b8ff" d="M977.16,-165.19C899.44,-177.92 773.86,-198.49 700.65,-210.48"/>
<polygon fill="#63b8ff" stroke="#63b8ff" points="978.03,-168.6 987.33,-163.53 976.9,-161.69 978.03,-168.6"/>
</g>
<!-- Node9 -->
<g id="node9" class="node">
<title>Node9</title>
<g id="a_node9"><a xlink:href="namespaceImGui.html#ab3f1fc018f903b7ad79fd10663375774" target="_top" xlink:title=" ">
<polygon fill="white" stroke="#666666" points="487.5,-224.5 383.5,-224.5 383.5,-205.5 487.5,-205.5 487.5,-224.5"/>
<text text-anchor="middle" x="435.5" y="-212.5" font-family="Helvetica,sans-Serif" font-size="10.00">ImGui::NewFrame</text>
</a>
</g>
</g>
<!-- Node8&#45;&gt;Node9 -->
<g id="edge10" class="edge">
<title>Node8&#45;&gt;Node9</title>
<path fill="none" stroke="#63b8ff" d="M568.02,-183.41C537.11,-190.83 502.23,-199.21 476.17,-205.47"/>
<polygon fill="#63b8ff" stroke="#63b8ff" points="569,-186.77 577.91,-181.03 567.37,-179.97 569,-186.77"/>
</g>
<!-- Node10 -->
<g id="node10" class="node">
<title>Node10</title>
<g id="a_node10"><a xlink:href="classmtgb_1_1ImGuiRenderer.html#a4684d4374beee1f52053b4634edae2c8" target="_top" xlink:title=" ">
<polygon fill="white" stroke="#666666" points="301,-230 179,-230 179,-200 301,-200 301,-230"/>
<text text-anchor="start" x="187" y="-218" font-family="Helvetica,sans-Serif" font-size="10.00">mtgb::ImGuiRenderer</text>
<text text-anchor="middle" x="240" y="-207" font-family="Helvetica,sans-Serif" font-size="10.00">::BeginFrame</text>
</a>
</g>
</g>
<!-- Node9&#45;&gt;Node10 -->
<g id="edge11" class="edge">
<title>Node9&#45;&gt;Node10</title>
<path fill="none" stroke="#63b8ff" d="M373.11,-215C350.17,-215 324.16,-215 301.33,-215"/>
<polygon fill="#63b8ff" stroke="#63b8ff" points="373.41,-218.5 383.41,-215 373.41,-211.5 373.41,-218.5"/>
</g>
<!-- Node11 -->
<g id="node11" class="node">
<title>Node11</title>
<g id="a_node11"><a xlink:href="classmtgb_1_1RenderSystem.html#a14e39d4590efdf77c2085b12c6f3cdf5" target="_top" xlink:title=" ">
<polygon fill="white" stroke="#666666" points="131,-230 0,-230 0,-200 131,-200 131,-230"/>
<text text-anchor="start" x="8" y="-218" font-family="Helvetica,sans-Serif" font-size="10.00">mtgb::RenderSystem</text>
<text text-anchor="middle" x="65.5" y="-207" font-family="Helvetica,sans-Serif" font-size="10.00">::RenderImGuiWindows</text>
</a>
</g>
</g>
<!-- Node10&#45;&gt;Node11 -->
<g id="edge12" class="edge">
<title>Node10&#45;&gt;Node11</title>
<path fill="none" stroke="#63b8ff" d="M168.44,-215C156.12,-215 143.36,-215 131.2,-215"/>
<polygon fill="#63b8ff" stroke="#63b8ff" points="168.67,-218.5 178.67,-215 168.67,-211.5 168.67,-218.5"/>
</g>
<!-- Node12&#45;&gt;Node8 -->
<g id="edge14" class="edge">
<title>Node12&#45;&gt;Node8</title>
<path fill="none" stroke="#63b8ff" d="M773.67,-81.58C769.33,-83.27 765.07,-85.08 761,-87 723.43,-104.72 684.14,-133.2 661.56,-150.69"/>
<polygon fill="#63b8ff" stroke="#63b8ff" points="775.1,-84.78 783.27,-78.05 772.68,-78.21 775.1,-84.78"/>
</g>
<!-- Node14 -->
<g id="node14" class="node">
<title>Node14</title>
<g id="a_node14"><a xlink:href="namespaceImGui.html#a3b7bcf876b64c28c4eb3868f79728499" target="_top" xlink:title=" ">
<polygon fill="white" stroke="#666666" points="720,-72.5 563,-72.5 563,-53.5 720,-53.5 720,-72.5"/>
<text text-anchor="middle" x="641.5" y="-60.5" font-family="Helvetica,sans-Serif" font-size="10.00">ImGui::DockContextInitialize</text>
</a>
</g>
</g>
<!-- Node13&#45;&gt;Node14 -->
<g id="edge16" class="edge">
<title>Node13&#45;&gt;Node14</title>
<path fill="none" stroke="#63b8ff" d="M768.62,-93.58C739.38,-86.49 706.71,-78.57 681.95,-72.56"/>
<polygon fill="#63b8ff" stroke="#63b8ff" points="767.85,-96.99 778.39,-95.94 769.5,-90.19 767.85,-96.99"/>
</g>
<!-- Node15 -->
<g id="node15" class="node">
<title>Node15</title>
<g id="a_node15"><a xlink:href="namespaceImGui.html#a1a611da38fae18a3d1dafcb3228259da" target="_top" xlink:title=" ">
<polygon fill="white" stroke="#666666" points="482.5,-72.5 388.5,-72.5 388.5,-53.5 482.5,-53.5 482.5,-72.5"/>
<text text-anchor="middle" x="435.5" y="-60.5" font-family="Helvetica,sans-Serif" font-size="10.00">ImGui::Initialize</text>
</a>
</g>
</g>
<!-- Node14&#45;&gt;Node15 -->
<g id="edge17" class="edge">
<title>Node14&#45;&gt;Node15</title>
<path fill="none" stroke="#63b8ff" d="M552.56,-63C528.5,-63 503.38,-63 482.68,-63"/>
<polygon fill="#63b8ff" stroke="#63b8ff" points="552.79,-66.5 562.79,-63 552.79,-59.5 552.79,-66.5"/>
</g>
<!-- Node16 -->
<g id="node16" class="node">
<title>Node16</title>
<g id="a_node16"><a xlink:href="namespaceImGui.html#a4ff6c9ad05a0eba37ce1b5ff1607810a" target="_top" xlink:title=" ">
<polygon fill="white" stroke="#666666" points="301,-72.5 179,-72.5 179,-53.5 301,-53.5 301,-72.5"/>
<text text-anchor="middle" x="240" y="-60.5" font-family="Helvetica,sans-Serif" font-size="10.00">ImGui::CreateContext</text>
</a>
</g>
</g>
<!-- Node15&#45;&gt;Node16 -->
<g id="edge18" class="edge">
<title>Node15&#45;&gt;Node16</title>
<path fill="none" stroke="#63b8ff" d="M378.09,-63C353.97,-63 325.78,-63 301.26,-63"/>
<polygon fill="#63b8ff" stroke="#63b8ff" points="378.15,-66.5 388.15,-63 378.15,-59.5 378.15,-66.5"/>
</g>
<!-- Node17 -->
<g id="node17" class="node">
<title>Node17</title>
<g id="a_node17"><a xlink:href="classmtgb_1_1ImGuiRenderer.html#a4db4a95a57f586a5fda30be1957f247a" target="_top" xlink:title=" ">
<polygon fill="white" stroke="#666666" points="126.5,-78 4.5,-78 4.5,-48 126.5,-48 126.5,-78"/>
<text text-anchor="start" x="12.5" y="-66" font-family="Helvetica,sans-Serif" font-size="10.00">mtgb::ImGuiRenderer</text>
<text text-anchor="middle" x="65.5" y="-55" font-family="Helvetica,sans-Serif" font-size="10.00">::Initialize</text>
</a>
</g>
</g>
<!-- Node16&#45;&gt;Node17 -->
<g id="edge19" class="edge">
<title>Node16&#45;&gt;Node17</title>
<path fill="none" stroke="#63b8ff" d="M168.62,-63C154.64,-63 140.09,-63 126.51,-63"/>
<polygon fill="#63b8ff" stroke="#63b8ff" points="168.67,-66.5 178.67,-63 168.67,-59.5 168.67,-66.5"/>
</g>
<!-- Node19 -->
<g id="node19" class="node">
<title>Node19</title>
<g id="a_node19"><a xlink:href="namespaceImGui.html#af95643a0ce4893b9e57c12991922fb18" target="_top" xlink:title=" ">
<polygon fill="white" stroke="#666666" points="313,-447.5 167,-447.5 167,-428.5 313,-428.5 313,-447.5"/>
<text text-anchor="middle" x="240" y="-435.5" font-family="Helvetica,sans-Serif" font-size="10.00">ImGui::ShowDemoWindow</text>
</a>
</g>
</g>
<!-- Node18&#45;&gt;Node19 -->
<g id="edge21" class="edge">
<title>Node18&#45;&gt;Node19</title>
<path fill="none" stroke="#63b8ff" d="M577.21,-232.28C570.62,-234.23 564.11,-236.46 558,-239 428.97,-292.56 293.08,-396.52 252.86,-428.44"/>
<polygon fill="#63b8ff" stroke="#63b8ff" points="578.16,-235.64 586.87,-229.6 576.3,-228.9 578.16,-235.64"/>
</g>
<!-- Node20&#45;&gt;Node12 -->
<g id="edge24" class="edge">
<title>Node20&#45;&gt;Node12</title>
<path fill="none" stroke="#63b8ff" d="M951.2,-63C939.97,-63 928.62,-63 917.71,-63"/>
<polygon fill="#63b8ff" stroke="#63b8ff" points="951.47,-66.5 961.47,-63 951.47,-59.5 951.47,-66.5"/>
</g>
<!-- Node21 -->
<g id="node21" class="node">
<title>Node21</title>
<g id="a_node21"><a xlink:href="namespaceImGui.html#a5a15182dbd53ea7081397d1ad968bc79" target="_top" xlink:title=" ">
<polygon fill="white" stroke="#666666" points="919,-30 764,-30 764,0 919,0 919,-30"/>
<text text-anchor="start" x="772" y="-18" font-family="Helvetica,sans-Serif" font-size="10.00">ImGui::DockSettingsHandler</text>
<text text-anchor="middle" x="841.5" y="-7" font-family="Helvetica,sans-Serif" font-size="10.00">_ApplyAll</text>
</a>
</g>
</g>
<!-- Node20&#45;&gt;Node21 -->
<g id="edge25" class="edge">
<title>Node20&#45;&gt;Node21</title>
<path fill="none" stroke="#63b8ff" d="M972.03,-45.63C950.39,-40.51 926.9,-34.96 905.95,-30"/>
<polygon fill="#63b8ff" stroke="#63b8ff" points="971.29,-49.05 981.83,-47.94 972.9,-42.24 971.29,-49.05"/>
</g>
<!-- Node21&#45;&gt;Node14 -->
<g id="edge26" class="edge">
<title>Node21&#45;&gt;Node14</title>
<path fill="none" stroke="#63b8ff" d="M768.62,-32.42C739.38,-39.51 706.71,-47.43 681.95,-53.44"/>
<polygon fill="#63b8ff" stroke="#63b8ff" points="769.5,-35.81 778.39,-30.06 767.85,-29.01 769.5,-35.81"/>
</g>
<!-- Node23 -->
<g id="node23" class="node">
<title>Node23</title>
<g id="a_node23"><a xlink:href="namespaceImGui.html#a0575e1e5da712a0ab28f7c9c41167c1c" target="_top" xlink:title=" ">
<polygon fill="white" stroke="#666666" points="1125.5,-239.5 967.5,-239.5 967.5,-220.5 1125.5,-220.5 1125.5,-239.5"/>
<text text-anchor="middle" x="1046.5" y="-227.5" font-family="Helvetica,sans-Serif" font-size="10.00">ImGui::DockBuilderSplitNode</text>
</a>
</g>
</g>
<!-- Node22&#45;&gt;Node23 -->
<g id="edge28" class="edge">
<title>Node22&#45;&gt;Node23</title>
<path fill="none" stroke="#63b8ff" d="M1195.49,-256.65C1165.22,-251.2 1129.34,-244.74 1100.49,-239.54"/>
<polygon fill="#63b8ff" stroke="#63b8ff" points="1195.07,-260.13 1205.53,-258.46 1196.31,-253.24 1195.07,-260.13"/>
</g>
<!-- Node24 -->
<g id="node24" class="node">
<title>Node24</title>
<g id="a_node24"><a xlink:href="namespaceImGui.html#a3fd836d2bd3163537d1c36607e93ed6d" target="_top" xlink:title=" ">
<polygon fill="white" stroke="#666666" points="725,-278 558,-278 558,-248 725,-248 725,-278"/>
<text text-anchor="start" x="566" y="-266" font-family="Helvetica,sans-Serif" font-size="10.00">ImGui::DockContextNewFrame</text>
<text text-anchor="middle" x="641.5" y="-255" font-family="Helvetica,sans-Serif" font-size="10.00">UpdateDocking</text>
</a>
</g>
</g>
<!-- Node22&#45;&gt;Node24 -->
<g id="edge29" class="edge">
<title>Node22&#45;&gt;Node24</title>
<path fill="none" stroke="#63b8ff" d="M1160.59,-267.21C1040.3,-266.23 838.32,-264.59 725.37,-263.67"/>
<polygon fill="#63b8ff" stroke="#63b8ff" points="1160.87,-270.71 1170.9,-267.29 1160.93,-263.71 1160.87,-270.71"/>
</g>
<!-- Node24&#45;&gt;Node9 -->
<g id="edge30" class="edge">
<title>Node24&#45;&gt;Node9</title>
<path fill="none" stroke="#63b8ff" d="M566.45,-245.58C536.32,-238.49 502.66,-230.57 477.15,-224.56"/>
<polygon fill="#63b8ff" stroke="#63b8ff" points="565.98,-249.06 576.51,-247.94 567.58,-242.25 565.98,-249.06"/>
</g>
<!-- Node25&#45;&gt;Node25 -->
<g id="edge32" class="edge">
<title>Node25&#45;&gt;Node25</title>
<path fill="none" stroke="#63b8ff" d="M1295.91,-388.6C1290.93,-392.97 1278.8,-396 1259.5,-396 1227,-396 1214.81,-387.41 1222.94,-378.28"/>
<polygon fill="#63b8ff" stroke="#63b8ff" points="1299.41,-388.33 1296.06,-378.28 1292.41,-388.22 1299.41,-388.33"/>
</g>
<!-- Node26 -->
<g id="node26" class="node">
<title>Node26</title>
<g id="a_node26"><a xlink:href="namespaceImGui.html#a48fa127f287f028f14e404f919b7f05c" target="_top" xlink:title=" ">
<polygon fill="white" stroke="#666666" points="1122.5,-394 970.5,-394 970.5,-364 1122.5,-364 1122.5,-394"/>
<text text-anchor="start" x="978.5" y="-382" font-family="Helvetica,sans-Serif" font-size="10.00">ImGui::DockNodeUpdateFor</text>
<text text-anchor="middle" x="1046.5" y="-371" font-family="Helvetica,sans-Serif" font-size="10.00">RootNode</text>
</a>
</g>
</g>
<!-- Node25&#45;&gt;Node26 -->
<g id="edge33" class="edge">
<title>Node25&#45;&gt;Node26</title>
<path fill="none" stroke="#63b8ff" d="M1167.01,-369.94C1152.15,-371.06 1136.92,-372.22 1122.51,-373.31"/>
<polygon fill="#63b8ff" stroke="#63b8ff" points="1167.52,-373.41 1177.22,-369.16 1166.99,-366.43 1167.52,-373.41"/>
</g>
<!-- Node27 -->
<g id="node27" class="node">
<title>Node27</title>
<g id="a_node27"><a xlink:href="namespaceImGui.html#a526230d8de99b07ff2b2992c192ce212" target="_top" xlink:title=" ">
<polygon fill="white" stroke="#666666" points="910,-390.5 773,-390.5 773,-371.5 910,-371.5 910,-390.5"/>
<text text-anchor="middle" x="841.5" y="-378.5" font-family="Helvetica,sans-Serif" font-size="10.00">ImGui::DockNodeUpdate</text>
</a>
</g>
</g>
<!-- Node26&#45;&gt;Node27 -->
<g id="edge34" class="edge">
<title>Node26&#45;&gt;Node27</title>
<path fill="none" stroke="#63b8ff" d="M960.18,-379.84C943.49,-380.01 926.19,-380.18 910.16,-380.33"/>
<polygon fill="#63b8ff" stroke="#63b8ff" points="960.52,-383.34 970.49,-379.74 960.45,-376.34 960.52,-383.34"/>
</g>
<!-- Node27&#45;&gt;Node24 -->
<g id="edge35" class="edge">
<title>Node27&#45;&gt;Node24</title>
<path fill="none" stroke="#63b8ff" d="M771.05,-367.93C767.57,-366.46 764.2,-364.82 761,-363 740.78,-351.49 742.36,-340.49 725,-325 705.61,-307.71 681.72,-290.11 664.65,-278.11"/>
<polygon fill="#63b8ff" stroke="#63b8ff" points="769.85,-371.22 780.44,-371.46 772.31,-364.67 769.85,-371.22"/>
</g>
<!-- Node27&#45;&gt;Node27 -->
<g id="edge36" class="edge">
<title>Node27&#45;&gt;Node27</title>
<path fill="none" stroke="#63b8ff" d="M879,-398.19C878.99,-403.92 866.49,-408.5 841.5,-408.5 805.95,-408.5 795.68,-399.23 810.67,-390.58"/>
<polygon fill="#63b8ff" stroke="#63b8ff" points="881.55,-395.79 872.33,-390.58 876.29,-400.41 881.55,-395.79"/>
</g>
<!-- Node27&#45;&gt;Node28 -->
<g id="edge37" class="edge">
<title>Node27&#45;&gt;Node28</title>
<path fill="none" stroke="#63b8ff" d="M811.29,-394.87C770.57,-414.2 697.8,-448.75 662.63,-465.44"/>
<polygon fill="#63b8ff" stroke="#63b8ff" points="812.89,-397.98 820.43,-390.53 809.89,-391.66 812.89,-397.98"/>
</g>
<!-- Node28&#45;&gt;Node2 -->
<g id="edge38" class="edge">
<title>Node28&#45;&gt;Node2</title>
<path fill="none" stroke="#63b8ff" d="M584.98,-462.41C575.69,-459.31 566.37,-455.54 558,-451 539.44,-440.93 540.87,-429.46 522,-420 514.25,-416.12 505.72,-413.02 497.13,-410.55"/>
<polygon fill="#63b8ff" stroke="#63b8ff" points="584.01,-465.77 594.59,-465.4 586.08,-459.09 584.01,-465.77"/>
</g>
<!-- Node29 -->
<g id="node29" class="node">
<title>Node29</title>
<g id="a_node29"><a xlink:href="namespaceImGui.html#a29b58b0887b599185dfe677eb3ef6cdc" target="_top" xlink:title=" ">
<polygon fill="white" stroke="#666666" points="522,-521.5 349,-521.5 349,-502.5 522,-502.5 522,-521.5"/>
<text text-anchor="middle" x="435.5" y="-509.5" font-family="Helvetica,sans-Serif" font-size="10.00">ImGui::DockSpaceOverViewport</text>
</a>
</g>
</g>
<!-- Node28&#45;&gt;Node29 -->
<g id="edge39" class="edge">
<title>Node28&#45;&gt;Node29</title>
<path fill="none" stroke="#63b8ff" d="M578.61,-486.22C550.03,-491.41 516.46,-497.5 489.12,-502.46"/>
<polygon fill="#63b8ff" stroke="#63b8ff" points="579.28,-489.66 588.49,-484.43 578.03,-482.77 579.28,-489.66"/>
</g>
<!-- Node30 -->
<g id="node30" class="node">
<title>Node30</title>
<g id="a_node30"><a xlink:href="imgui__demo_8cpp.html#ae18f1dc3d5298b314080b35f6c20d781" target="_top" xlink:title=" ">
<polygon fill="white" stroke="#666666" points="514.5,-484.5 356.5,-484.5 356.5,-465.5 514.5,-465.5 514.5,-484.5"/>
<text text-anchor="middle" x="435.5" y="-472.5" font-family="Helvetica,sans-Serif" font-size="10.00">ShowExampleAppDockSpace</text>
</a>
</g>
</g>
<!-- Node28&#45;&gt;Node30 -->
<g id="edge40" class="edge">
<title>Node28&#45;&gt;Node30</title>
<path fill="none" stroke="#63b8ff" d="M578.24,-475C558.18,-475 535.68,-475 514.62,-475"/>
<polygon fill="#63b8ff" stroke="#63b8ff" points="578.49,-478.5 588.49,-475 578.49,-471.5 578.49,-478.5"/>
</g>
<!-- Node31 -->
<g id="node31" class="node">
<title>Node31</title>
<g id="a_node31"><a xlink:href="imgui__demo_8cpp.html#aa9e4f5130b74080ea2d97916a91b3b3c" target="_top" xlink:title=" ">
<polygon fill="white" stroke="#666666" points="515.5,-447.5 355.5,-447.5 355.5,-428.5 515.5,-428.5 515.5,-447.5"/>
<text text-anchor="middle" x="435.5" y="-435.5" font-family="Helvetica,sans-Serif" font-size="10.00">ShowExampleAppDocuments</text>
</a>
</g>
</g>
<!-- Node28&#45;&gt;Node31 -->
<g id="edge42" class="edge">
<title>Node28&#45;&gt;Node31</title>
<path fill="none" stroke="#63b8ff" d="M578.61,-463.78C550.03,-458.59 516.46,-452.5 489.12,-447.54"/>
<polygon fill="#63b8ff" stroke="#63b8ff" points="578.03,-467.23 588.49,-465.57 579.28,-460.34 578.03,-467.23"/>
</g>
<!-- Node30&#45;&gt;Node19 -->
<g id="edge41" class="edge">
<title>Node30&#45;&gt;Node19</title>
<path fill="none" stroke="#63b8ff" d="M374.63,-463.55C347.81,-458.42 316.54,-452.44 291,-447.56"/>
<polygon fill="#63b8ff" stroke="#63b8ff" points="374.19,-467.03 384.67,-465.47 375.5,-460.16 374.19,-467.03"/>
</g>
<!-- Node31&#45;&gt;Node19 -->
<g id="edge43" class="edge">
<title>Node31&#45;&gt;Node19</title>
<path fill="none" stroke="#63b8ff" d="M345.08,-438C334.43,-438 323.67,-438 313.3,-438"/>
<polygon fill="#63b8ff" stroke="#63b8ff" points="345.24,-441.5 355.24,-438 345.24,-434.5 345.24,-441.5"/>
</g>
</g>
</svg>
