<?xml version="1.0" encoding="UTF-8" standalone="no"?>
<!DOCTYPE svg PUBLIC "-//W3C//DTD SVG 1.1//EN"
 "http://www.w3.org/Graphics/SVG/1.1/DTD/svg11.dtd">
<!-- Generated by graphviz version 2.43.0 (0)
 -->
<!-- Title: ImDrawList::AddNgonFilled Pages: 1 -->
<svg width="910pt" height="338pt"
 viewBox="0.00 0.00 910.00 337.50" xmlns="http://www.w3.org/2000/svg" xmlns:xlink="http://www.w3.org/1999/xlink">
<g id="graph0" class="graph" transform="scale(1 1) rotate(0) translate(4 333.5)">
<title>ImDrawList::AddNgonFilled</title>
<!-- Node1 -->
<g id="node1" class="node">
<title>Node1</title>
<g id="a_node1"><a xlink:title=" ">
<polygon fill="#999999" stroke="#666666" points="149,-132 0,-132 0,-113 149,-113 149,-132"/>
<text text-anchor="middle" x="74.5" y="-120" font-family="Helvetica,sans-Serif" font-size="10.00">ImDrawList::AddNgonFilled</text>
</a>
</g>
</g>
<!-- Node2 -->
<g id="node2" class="node">
<title>Node2</title>
<g id="a_node2"><a xlink:href="structImDrawList.html#af86073403f1557cccb4ff45dfad0a74a" target="_top" xlink:title=" ">
<polygon fill="white" stroke="#666666" points="322.5,-151 197.5,-151 197.5,-132 322.5,-132 322.5,-151"/>
<text text-anchor="middle" x="260" y="-139" font-family="Helvetica,sans-Serif" font-size="10.00">ImDrawList::PathArcTo</text>
</a>
</g>
</g>
<!-- Node1&#45;&gt;Node2 -->
<g id="edge1" class="edge">
<title>Node1&#45;&gt;Node2</title>
<path fill="none" stroke="#63b8ff" d="M149.08,-130.12C161.75,-131.43 174.89,-132.79 187.51,-134.1"/>
<polygon fill="#63b8ff" stroke="#63b8ff" points="187.18,-137.58 197.48,-135.13 187.9,-130.62 187.18,-137.58"/>
</g>
<!-- Node14 -->
<g id="node14" class="node">
<title>Node14</title>
<g id="a_node14"><a xlink:href="structImDrawList.html#aea9301cb99ebf4b27f5d3959017567c9" target="_top" xlink:title=" ">
<polygon fill="white" stroke="#666666" points="335,-114 185,-114 185,-95 335,-95 335,-114"/>
<text text-anchor="middle" x="260" y="-102" font-family="Helvetica,sans-Serif" font-size="10.00">ImDrawList::PathFillConvex</text>
</a>
</g>
</g>
<!-- Node1&#45;&gt;Node14 -->
<g id="edge21" class="edge">
<title>Node1&#45;&gt;Node14</title>
<path fill="none" stroke="#63b8ff" d="M149.08,-115.28C157.54,-114.45 166.21,-113.6 174.79,-112.76"/>
<polygon fill="#63b8ff" stroke="#63b8ff" points="175.2,-116.24 184.81,-111.78 174.51,-109.27 175.2,-116.24"/>
</g>
<!-- Node3 -->
<g id="node3" class="node">
<title>Node3</title>
<g id="a_node3"><a xlink:href="structImDrawList.html#a52afa32aaab6d581cda90dc5d8726ed6" target="_top" xlink:title=" ">
<polygon fill="white" stroke="#666666" points="724,-329.5 569,-329.5 569,-299.5 724,-299.5 724,-329.5"/>
<text text-anchor="start" x="577" y="-317.5" font-family="Helvetica,sans-Serif" font-size="10.00">ImDrawList::_CalcCircleAuto</text>
<text text-anchor="middle" x="646.5" y="-306.5" font-family="Helvetica,sans-Serif" font-size="10.00">SegmentCount</text>
</a>
</g>
</g>
<!-- Node2&#45;&gt;Node3 -->
<g id="edge2" class="edge">
<title>Node2&#45;&gt;Node3</title>
<path fill="none" stroke="#63b8ff" d="M266.43,-151.22C280.34,-175.1 319.79,-236.79 371,-265.5 428.36,-297.65 502.14,-309.48 558.76,-313.5"/>
<polygon fill="#63b8ff" stroke="#63b8ff" points="558.56,-316.99 568.77,-314.14 559.01,-310.01 558.56,-316.99"/>
</g>
<!-- Node4 -->
<g id="node4" class="node">
<title>Node4</title>
<g id="a_node4"><a xlink:href="structImDrawList.html#ac25f3a7693ed13ba2dac455675be8654" target="_top" xlink:title=" ">
<polygon fill="white" stroke="#666666" points="533,-225 371,-225 371,-206 533,-206 533,-225"/>
<text text-anchor="middle" x="452" y="-213" font-family="Helvetica,sans-Serif" font-size="10.00">ImDrawList::_PathArcToFastEx</text>
</a>
</g>
</g>
<!-- Node2&#45;&gt;Node4 -->
<g id="edge3" class="edge">
<title>Node2&#45;&gt;Node4</title>
<path fill="none" stroke="#63b8ff" d="M285.45,-151.02C318.85,-164.03 378.9,-187.42 416.76,-202.16"/>
<polygon fill="#63b8ff" stroke="#63b8ff" points="415.75,-205.53 426.34,-205.9 418.29,-199.01 415.75,-205.53"/>
</g>
<!-- Node5 -->
<g id="node5" class="node">
<title>Node5</title>
<g id="a_node5"><a xlink:href="imgui__internal_8h.html#aab329ad3ecb3ffc0bf9183d9edb144bb" target="_top" xlink:title=" ">
<polygon fill="white" stroke="#666666" points="670,-281 623,-281 623,-262 670,-262 670,-281"/>
<text text-anchor="middle" x="646.5" y="-269" font-family="Helvetica,sans-Serif" font-size="10.00">ImAbs</text>
</a>
</g>
</g>
<!-- Node2&#45;&gt;Node5 -->
<g id="edge16" class="edge">
<title>Node2&#45;&gt;Node5</title>
<path fill="none" stroke="#63b8ff" d="M268.91,-151.15C285.52,-170.66 326.2,-214.61 371,-234.5 452.2,-270.56 559.19,-273.84 612.43,-272.88"/>
<polygon fill="#63b8ff" stroke="#63b8ff" points="612.74,-276.37 622.65,-272.63 612.56,-269.37 612.74,-276.37"/>
</g>
<!-- Node7 -->
<g id="node7" class="node">
<title>Node7</title>
<g id="a_node7"><a xlink:href="structImVector.html#aab5df48e0711a48bd12f3206e08c4108" target="_top" xlink:title=" ">
<polygon fill="white" stroke="#666666" points="705.5,-170 587.5,-170 587.5,-151 705.5,-151 705.5,-170"/>
<text text-anchor="middle" x="646.5" y="-158" font-family="Helvetica,sans-Serif" font-size="10.00">ImVector::push_back</text>
</a>
</g>
</g>
<!-- Node2&#45;&gt;Node7 -->
<g id="edge19" class="edge">
<title>Node2&#45;&gt;Node7</title>
<path fill="none" stroke="#63b8ff" d="M322.78,-144.55C392.28,-147.99 504.85,-153.55 577,-157.12"/>
<polygon fill="#63b8ff" stroke="#63b8ff" points="577.18,-160.63 587.34,-157.63 577.52,-153.64 577.18,-160.63"/>
</g>
<!-- Node9 -->
<g id="node9" class="node">
<title>Node9</title>
<g id="a_node9"><a xlink:href="structImVector.html#a0f14f5736c3372157856eebb67123b75" target="_top" xlink:title=" ">
<polygon fill="white" stroke="#666666" points="882.5,-151 779.5,-151 779.5,-132 882.5,-132 882.5,-151"/>
<text text-anchor="middle" x="831" y="-139" font-family="Helvetica,sans-Serif" font-size="10.00">ImVector::reserve</text>
</a>
</g>
</g>
<!-- Node2&#45;&gt;Node9 -->
<g id="edge20" class="edge">
<title>Node2&#45;&gt;Node9</title>
<path fill="none" stroke="#63b8ff" d="M308.56,-131.93C317.48,-129.58 326.63,-126.78 335,-123.5 352.05,-116.83 353.28,-108.09 371,-103.5 521.5,-64.5 708.16,-106.66 789.24,-129.2"/>
<polygon fill="#63b8ff" stroke="#63b8ff" points="788.48,-132.62 799.05,-131.97 790.38,-125.88 788.48,-132.62"/>
</g>
<!-- Node11 -->
<g id="node11" class="node">
<title>Node11</title>
<g id="a_node11"><a xlink:href="structImDrawList.html#a855fcd28cd12b81975e8a61ea2e80e96" target="_top" xlink:title=" ">
<polygon fill="white" stroke="#666666" points="521,-132 383,-132 383,-113 521,-113 521,-132"/>
<text text-anchor="middle" x="452" y="-120" font-family="Helvetica,sans-Serif" font-size="10.00">ImDrawList::_PathArcToN</text>
</a>
</g>
</g>
<!-- Node2&#45;&gt;Node11 -->
<g id="edge13" class="edge">
<title>Node2&#45;&gt;Node11</title>
<path fill="none" stroke="#63b8ff" d="M322.69,-135.33C338.57,-133.74 355.88,-132.01 372.49,-130.35"/>
<polygon fill="#63b8ff" stroke="#63b8ff" points="373.12,-133.81 382.72,-129.33 372.42,-126.84 373.12,-133.81"/>
</g>
<!-- Node12 -->
<g id="node12" class="node">
<title>Node12</title>
<g id="a_node12"><a xlink:href="imgui__internal_8h.html#a51a84b6be21807818b857a8565d97912" target="_top" xlink:title=" ">
<polygon fill="white" stroke="#666666" points="479,-56 425,-56 425,-37 479,-37 479,-56"/>
<text text-anchor="middle" x="452" y="-44" font-family="Helvetica,sans-Serif" font-size="10.00">ImFloor</text>
</a>
</g>
</g>
<!-- Node2&#45;&gt;Node12 -->
<g id="edge17" class="edge">
<title>Node2&#45;&gt;Node12</title>
<path fill="none" stroke="#63b8ff" d="M318.98,-131.88C324.65,-129.65 330.11,-126.89 335,-123.5 358.4,-107.27 348.04,-87.34 371,-70.5 383.83,-61.09 400.35,-55.34 415.04,-51.84"/>
<polygon fill="#63b8ff" stroke="#63b8ff" points="415.8,-55.26 424.86,-49.76 414.35,-48.41 415.8,-55.26"/>
</g>
<!-- Node13 -->
<g id="node13" class="node">
<title>Node13</title>
<g id="a_node13"><a xlink:href="imgui__internal_8h.html#a7667efd95147d0422f140917c71a9226" target="_top" xlink:title=" ">
<polygon fill="white" stroke="#666666" points="477,-19 427,-19 427,0 477,0 477,-19"/>
<text text-anchor="middle" x="452" y="-7" font-family="Helvetica,sans-Serif" font-size="10.00">ImMax</text>
</a>
</g>
</g>
<!-- Node2&#45;&gt;Node13 -->
<g id="edge18" class="edge">
<title>Node2&#45;&gt;Node13</title>
<path fill="none" stroke="#63b8ff" d="M322.05,-132C326.74,-129.72 331.14,-126.92 335,-123.5 369.1,-93.27 336.64,-57.43 371,-27.5 383.47,-16.63 401.1,-11.92 416.64,-10.02"/>
<polygon fill="#63b8ff" stroke="#63b8ff" points="417.32,-13.47 426.97,-9.11 416.7,-6.5 417.32,-13.47"/>
</g>
<!-- Node4&#45;&gt;Node3 -->
<g id="edge4" class="edge">
<title>Node4&#45;&gt;Node3</title>
<path fill="none" stroke="#63b8ff" d="M465.22,-225C485.68,-240.54 528.62,-271.54 569,-290.5 573.01,-292.38 577.2,-294.17 581.47,-295.85"/>
<polygon fill="#63b8ff" stroke="#63b8ff" points="580.3,-299.15 590.89,-299.36 582.75,-292.59 580.3,-299.15"/>
</g>
<!-- Node4&#45;&gt;Node5 -->
<g id="edge5" class="edge">
<title>Node4&#45;&gt;Node5</title>
<path fill="none" stroke="#63b8ff" d="M479.99,-225.07C503.37,-233.18 538.19,-244.85 569,-253.5 583.34,-257.53 599.36,-261.39 613.02,-264.5"/>
<polygon fill="#63b8ff" stroke="#63b8ff" points="612.42,-267.96 622.94,-266.72 613.95,-261.12 612.42,-267.96"/>
</g>
<!-- Node6 -->
<g id="node6" class="node">
<title>Node6</title>
<g id="a_node6"><a xlink:href="imgui__internal_8h.html#a6e61ede308bfd68c7434e17905a29fc8" target="_top" xlink:title=" ">
<polygon fill="white" stroke="#666666" points="677,-244 616,-244 616,-225 677,-225 677,-244"/>
<text text-anchor="middle" x="646.5" y="-232" font-family="Helvetica,sans-Serif" font-size="10.00">ImClamp</text>
</a>
</g>
</g>
<!-- Node4&#45;&gt;Node6 -->
<g id="edge6" class="edge">
<title>Node4&#45;&gt;Node6</title>
<path fill="none" stroke="#63b8ff" d="M533.24,-223.42C558.31,-225.89 584.86,-228.51 605.85,-230.59"/>
<polygon fill="#63b8ff" stroke="#63b8ff" points="605.68,-234.09 615.97,-231.59 606.37,-227.12 605.68,-234.09"/>
</g>
<!-- Node4&#45;&gt;Node7 -->
<g id="edge7" class="edge">
<title>Node4&#45;&gt;Node7</title>
<path fill="none" stroke="#63b8ff" d="M482.42,-205.86C505.79,-198.32 539.35,-187.78 569,-179.5 577.52,-177.12 586.62,-174.73 595.46,-172.49"/>
<polygon fill="#63b8ff" stroke="#63b8ff" points="596.44,-175.85 605.29,-170.03 594.74,-169.06 596.44,-175.85"/>
</g>
<!-- Node10 -->
<g id="node10" class="node">
<title>Node10</title>
<g id="a_node10"><a xlink:href="structImVector.html#ac371dd62e56ae486b1a5038cf07eee56" target="_top" xlink:title=" ">
<polygon fill="white" stroke="#666666" points="694,-207 599,-207 599,-188 694,-188 694,-207"/>
<text text-anchor="middle" x="646.5" y="-195" font-family="Helvetica,sans-Serif" font-size="10.00">ImVector::resize</text>
</a>
</g>
</g>
<!-- Node4&#45;&gt;Node10 -->
<g id="edge10" class="edge">
<title>Node4&#45;&gt;Node10</title>
<path fill="none" stroke="#63b8ff" d="M533.24,-208C551.96,-206.25 571.5,-204.42 588.94,-202.79"/>
<polygon fill="#63b8ff" stroke="#63b8ff" points="589.31,-206.27 598.94,-201.85 588.66,-199.3 589.31,-206.27"/>
</g>
<!-- Node8 -->
<g id="node8" class="node">
<title>Node8</title>
<g id="a_node8"><a xlink:href="structImVector.html#a3a097635d464b1b70dc7d59996a88b28" target="_top" xlink:title=" ">
<polygon fill="white" stroke="#666666" points="902,-188 760,-188 760,-169 902,-169 902,-188"/>
<text text-anchor="middle" x="831" y="-176" font-family="Helvetica,sans-Serif" font-size="10.00">ImVector::_grow_capacity</text>
</a>
</g>
</g>
<!-- Node7&#45;&gt;Node8 -->
<g id="edge8" class="edge">
<title>Node7&#45;&gt;Node8</title>
<path fill="none" stroke="#63b8ff" d="M705.75,-166.24C719.73,-167.62 734.91,-169.12 749.7,-170.58"/>
<polygon fill="#63b8ff" stroke="#63b8ff" points="749.56,-174.08 759.86,-171.58 750.25,-167.12 749.56,-174.08"/>
</g>
<!-- Node7&#45;&gt;Node9 -->
<g id="edge9" class="edge">
<title>Node7&#45;&gt;Node9</title>
<path fill="none" stroke="#63b8ff" d="M705.75,-154.44C726,-152.33 748.77,-149.96 769.23,-147.83"/>
<polygon fill="#63b8ff" stroke="#63b8ff" points="769.79,-151.29 779.37,-146.77 769.06,-144.33 769.79,-151.29"/>
</g>
<!-- Node10&#45;&gt;Node8 -->
<g id="edge11" class="edge">
<title>Node10&#45;&gt;Node8</title>
<path fill="none" stroke="#63b8ff" d="M694.02,-192.66C710.94,-190.89 730.59,-188.85 749.59,-186.87"/>
<polygon fill="#63b8ff" stroke="#63b8ff" points="750.18,-190.33 759.76,-185.81 749.45,-183.37 750.18,-190.33"/>
</g>
<!-- Node10&#45;&gt;Node9 -->
<g id="edge12" class="edge">
<title>Node10&#45;&gt;Node9</title>
<path fill="none" stroke="#63b8ff" d="M694.18,-188.51C704.16,-186.04 714.54,-183.04 724,-179.5 740.94,-173.15 743.17,-167.13 760,-160.5 766,-158.14 772.39,-155.96 778.79,-153.99"/>
<polygon fill="#63b8ff" stroke="#63b8ff" points="780.18,-157.23 788.79,-151.06 778.21,-150.51 780.18,-157.23"/>
</g>
<!-- Node11&#45;&gt;Node7 -->
<g id="edge14" class="edge">
<title>Node11&#45;&gt;Node7</title>
<path fill="none" stroke="#63b8ff" d="M501.58,-132.09C527.66,-137.24 560.01,-143.62 587.42,-149.03"/>
<polygon fill="#63b8ff" stroke="#63b8ff" points="586.78,-152.48 597.27,-150.98 588.14,-145.61 586.78,-152.48"/>
</g>
<!-- Node11&#45;&gt;Node9 -->
<g id="edge15" class="edge">
<title>Node11&#45;&gt;Node9</title>
<path fill="none" stroke="#63b8ff" d="M521.27,-125.94C592.01,-129.51 701.53,-135.03 769.33,-138.44"/>
<polygon fill="#63b8ff" stroke="#63b8ff" points="769.26,-141.94 779.43,-138.95 769.61,-134.95 769.26,-141.94"/>
</g>
</g>
</svg>
