<?xml version="1.0" encoding="UTF-8" standalone="no"?>
<!DOCTYPE svg PUBLIC "-//W3C//DTD SVG 1.1//EN"
 "http://www.w3.org/Graphics/SVG/1.1/DTD/svg11.dtd">
<!-- Generated by graphviz version 2.43.0 (0)
 -->
<!-- Title: ImFontAtlasRect Pages: 1 -->
<svg width="148pt" height="292pt"
 viewBox="0.00 0.00 148.00 292.00" xmlns="http://www.w3.org/2000/svg" xmlns:xlink="http://www.w3.org/1999/xlink">
<g id="graph0" class="graph" transform="scale(1 1) rotate(0) translate(4 288)">
<title>ImFontAtlasRect</title>
<!-- Node1 -->
<g id="node1" class="node">
<title>Node1</title>
<g id="a_node1"><a xlink:title=" ">
<polygon fill="#999999" stroke="#666666" points="12,-0.5 12,-90.5 128,-90.5 128,-0.5 12,-0.5"/>
<text text-anchor="middle" x="70" y="-78.5" font-family="Helvetica,sans-Serif" font-size="10.00">ImFontAtlasRect</text>
<polyline fill="none" stroke="#666666" points="12,-71.5 128,-71.5 "/>
<text text-anchor="start" x="20" y="-59.5" font-family="Helvetica,sans-Serif" font-size="10.00">+ unsigned short x</text>
<text text-anchor="start" x="20" y="-48.5" font-family="Helvetica,sans-Serif" font-size="10.00">+ unsigned short y</text>
<text text-anchor="start" x="20" y="-37.5" font-family="Helvetica,sans-Serif" font-size="10.00">+ unsigned short w</text>
<text text-anchor="start" x="20" y="-26.5" font-family="Helvetica,sans-Serif" font-size="10.00">+ unsigned short h</text>
<polyline fill="none" stroke="#666666" points="12,-19.5 128,-19.5 "/>
<text text-anchor="start" x="20" y="-7.5" font-family="Helvetica,sans-Serif" font-size="10.00">+ ImFontAtlasRect()</text>
</a>
</g>
</g>
<!-- Node2 -->
<g id="node2" class="node">
<title>Node2</title>
<g id="a_node2"><a xlink:href="structImVec2.html" target="_top" xlink:title=" ">
<polygon fill="white" stroke="#666666" points="0,-149.5 0,-283.5 140,-283.5 140,-149.5 0,-149.5"/>
<text text-anchor="middle" x="70" y="-271.5" font-family="Helvetica,sans-Serif" font-size="10.00">ImVec2</text>
<polyline fill="none" stroke="#666666" points="0,-264.5 140,-264.5 "/>
<text text-anchor="start" x="8" y="-252.5" font-family="Helvetica,sans-Serif" font-size="10.00">+ float x</text>
<text text-anchor="start" x="8" y="-241.5" font-family="Helvetica,sans-Serif" font-size="10.00">+ float y</text>
<polyline fill="none" stroke="#666666" points="0,-234.5 140,-234.5 "/>
<text text-anchor="start" x="8" y="-222.5" font-family="Helvetica,sans-Serif" font-size="10.00">+ constexpr ImVec2()</text>
<text text-anchor="start" x="8" y="-211.5" font-family="Helvetica,sans-Serif" font-size="10.00">+ constexpr ImVec2(float</text>
<text text-anchor="start" x="8" y="-200.5" font-family="Helvetica,sans-Serif" font-size="10.00"> _x, float _y)</text>
<text text-anchor="start" x="8" y="-189.5" font-family="Helvetica,sans-Serif" font-size="10.00">+ float &amp; operator[]</text>
<text text-anchor="start" x="8" y="-178.5" font-family="Helvetica,sans-Serif" font-size="10.00">(size_t idx)</text>
<text text-anchor="start" x="8" y="-167.5" font-family="Helvetica,sans-Serif" font-size="10.00">+ float operator[](size</text>
<text text-anchor="start" x="8" y="-156.5" font-family="Helvetica,sans-Serif" font-size="10.00">_t idx) const</text>
</a>
</g>
</g>
<!-- Node2&#45;&gt;Node1 -->
<g id="edge1" class="edge">
<title>Node2&#45;&gt;Node1</title>
<path fill="none" stroke="#404040" d="M70,-149.19C70,-133.8 70,-117.57 70,-102.67"/>
<polygon fill="none" stroke="#404040" points="70,-102.51 66,-96.51 70,-90.51 74,-96.51 70,-102.51"/>
<text text-anchor="middle" x="85" y="-123" font-family="Helvetica,sans-Serif" font-size="10.00"> +uv0</text>
<text text-anchor="middle" x="85" y="-112" font-family="Helvetica,sans-Serif" font-size="10.00">+uv1</text>
</g>
</g>
</svg>
