<?xml version="1.0" encoding="UTF-8" standalone="no"?>
<!DOCTYPE svg PUBLIC "-//W3C//DTD SVG 1.1//EN"
 "http://www.w3.org/Graphics/SVG/1.1/DTD/svg11.dtd">
<!-- Generated by graphviz version 2.43.0 (0)
 -->
<!-- Title: ImPool::Remove Pages: 1 -->
<svg width="242pt" height="45pt"
 viewBox="0.00 0.00 242.00 45.00" xmlns="http://www.w3.org/2000/svg" xmlns:xlink="http://www.w3.org/1999/xlink">
<g id="graph0" class="graph" transform="scale(1 1) rotate(0) translate(4 41)">
<title>ImPool::Remove</title>
<!-- Node1 -->
<g id="node1" class="node">
<title>Node1</title>
<g id="a_node1"><a xlink:title=" ">
<polygon fill="#999999" stroke="#666666" points="97,-19 0,-19 0,0 97,0 97,-19"/>
<text text-anchor="middle" x="48.5" y="-7" font-family="Helvetica,sans-Serif" font-size="10.00">ImPool::Remove</text>
</a>
</g>
</g>
<!-- Node1&#45;&gt;Node1 -->
<g id="edge2" class="edge">
<title>Node1&#45;&gt;Node1</title>
<path fill="none" stroke="#63b8ff" d="M27.85,-19.08C17.8,-27.73 24.68,-37 48.5,-37 63.76,-37 72.07,-33.2 73.43,-28.19"/>
<polygon fill="#63b8ff" stroke="#63b8ff" points="76.57,-26.65 69.15,-19.08 70.23,-29.62 76.57,-26.65"/>
</g>
<!-- Node2 -->
<g id="node2" class="node">
<title>Node2</title>
<g id="a_node2"><a xlink:href="structImPool.html#a3e683876ebd44c7f6f098851ee522870" target="_top" xlink:title=" ">
<polygon fill="white" stroke="#666666" points="234,-19 133,-19 133,0 234,0 234,-19"/>
<text text-anchor="middle" x="183.5" y="-7" font-family="Helvetica,sans-Serif" font-size="10.00">ImPool::GetIndex</text>
</a>
</g>
</g>
<!-- Node1&#45;&gt;Node2 -->
<g id="edge1" class="edge">
<title>Node1&#45;&gt;Node2</title>
<path fill="none" stroke="#63b8ff" d="M97.14,-9.5C105.5,-9.5 114.29,-9.5 122.92,-9.5"/>
<polygon fill="#63b8ff" stroke="#63b8ff" points="122.95,-13 132.95,-9.5 122.95,-6 122.95,-13"/>
</g>
</g>
</svg>
