<?xml version="1.0" encoding="UTF-8" standalone="no"?>
<!DOCTYPE svg PUBLIC "-//W3C//DTD SVG 1.1//EN"
 "http://www.w3.org/Graphics/SVG/1.1/DTD/svg11.dtd">
<!-- Generated by graphviz version 2.43.0 (0)
 -->
<!-- Title: boost::move_detail::enable_if_same_or_convertible&lt; T, U, R &gt; Pages: 1 -->
<svg width="139pt" height="298pt"
 viewBox="0.00 0.00 139.00 298.00" xmlns="http://www.w3.org/2000/svg" xmlns:xlink="http://www.w3.org/1999/xlink">
<g id="graph0" class="graph" transform="scale(1 1) rotate(0) translate(4 294)">
<title>boost::move_detail::enable_if_same_or_convertible&lt; T, U, R &gt;</title>
<!-- Node1 -->
<g id="node1" class="node">
<title>Node1</title>
<g id="a_node1"><a xlink:title=" ">
<polygon fill="#999999" stroke="#666666" points="0,-0.5 0,-79.5 131,-79.5 131,-0.5 0,-0.5"/>
<text text-anchor="start" x="8" y="-67.5" font-family="Helvetica,sans-Serif" font-size="10.00">boost::move_detail</text>
<text text-anchor="start" x="8" y="-56.5" font-family="Helvetica,sans-Serif" font-size="10.00">::enable_if_same_or</text>
<text text-anchor="middle" x="65.5" y="-45.5" font-family="Helvetica,sans-Serif" font-size="10.00">_convertible&lt; T, U, R &gt;</text>
<polyline fill="none" stroke="#666666" points="0,-38.5 131,-38.5 "/>
<text text-anchor="middle" x="65.5" y="-26.5" font-family="Helvetica,sans-Serif" font-size="10.00"> </text>
<polyline fill="none" stroke="#666666" points="0,-19.5 131,-19.5 "/>
<text text-anchor="middle" x="65.5" y="-7.5" font-family="Helvetica,sans-Serif" font-size="10.00"> </text>
</a>
</g>
</g>
<!-- Node2 -->
<g id="node2" class="node">
<title>Node2</title>
<g id="a_node2"><a xlink:href="structboost_1_1move__detail_1_1enable__if.html" target="_top" xlink:title=" ">
<polygon fill="white" stroke="#666666" points="2,-116.5 2,-184.5 129,-184.5 129,-116.5 2,-116.5"/>
<text text-anchor="start" x="10" y="-172.5" font-family="Helvetica,sans-Serif" font-size="10.00">boost::move_detail</text>
<text text-anchor="middle" x="65.5" y="-161.5" font-family="Helvetica,sans-Serif" font-size="10.00">::enable_if&lt; Cond, T &gt;</text>
<polyline fill="none" stroke="#666666" points="2,-154.5 129,-154.5 "/>
<text text-anchor="middle" x="65.5" y="-142.5" font-family="Helvetica,sans-Serif" font-size="10.00"> </text>
<polyline fill="none" stroke="#666666" points="2,-135.5 129,-135.5 "/>
<text text-anchor="middle" x="65.5" y="-123.5" font-family="Helvetica,sans-Serif" font-size="10.00"> </text>
</a>
</g>
</g>
<!-- Node2&#45;&gt;Node1 -->
<g id="edge1" class="edge">
<title>Node2&#45;&gt;Node1</title>
<path fill="none" stroke="#63b8ff" d="M65.5,-106.27C65.5,-97.48 65.5,-88.28 65.5,-79.65"/>
<polygon fill="none" stroke="#63b8ff" points="62,-106.36 65.5,-116.36 69,-106.36 62,-106.36"/>
</g>
<!-- Node3 -->
<g id="node3" class="node">
<title>Node3</title>
<g id="a_node3"><a xlink:href="structboost_1_1move__detail_1_1enable__if__c.html" target="_top" xlink:title=" ">
<polygon fill="white" stroke="#666666" points="6,-221.5 6,-289.5 125,-289.5 125,-221.5 6,-221.5"/>
<text text-anchor="start" x="14" y="-277.5" font-family="Helvetica,sans-Serif" font-size="10.00">boost::move_detail</text>
<text text-anchor="middle" x="65.5" y="-266.5" font-family="Helvetica,sans-Serif" font-size="10.00">::enable_if_c&lt; B, T &gt;</text>
<polyline fill="none" stroke="#666666" points="6,-259.5 125,-259.5 "/>
<text text-anchor="middle" x="65.5" y="-247.5" font-family="Helvetica,sans-Serif" font-size="10.00"> </text>
<polyline fill="none" stroke="#666666" points="6,-240.5 125,-240.5 "/>
<text text-anchor="middle" x="65.5" y="-228.5" font-family="Helvetica,sans-Serif" font-size="10.00"> </text>
</a>
</g>
</g>
<!-- Node3&#45;&gt;Node2 -->
<g id="edge2" class="edge">
<title>Node3&#45;&gt;Node2</title>
<path fill="none" stroke="#63b8ff" d="M65.5,-211.14C65.5,-202.26 65.5,-193.04 65.5,-184.59"/>
<polygon fill="none" stroke="#63b8ff" points="62,-211.34 65.5,-221.34 69,-211.34 62,-211.34"/>
</g>
</g>
</svg>
