<?xml version="1.0" encoding="UTF-8" standalone="no"?>
<!DOCTYPE svg PUBLIC "-//W3C//DTD SVG 1.1//EN"
 "http://www.w3.org/Graphics/SVG/1.1/DTD/svg11.dtd">
<!-- Generated by graphviz version 2.43.0 (0)
 -->
<!-- Title: ImFontAtlas::ClearTexData Pages: 1 -->
<svg width="338pt" height="64pt"
 viewBox="0.00 0.00 338.00 64.00" xmlns="http://www.w3.org/2000/svg" xmlns:xlink="http://www.w3.org/1999/xlink">
<g id="graph0" class="graph" transform="scale(1 1) rotate(0) translate(4 60)">
<title>ImFontAtlas::ClearTexData</title>
<!-- Node1 -->
<g id="node1" class="node">
<title>Node1</title>
<g id="a_node1"><a xlink:title=" ">
<polygon fill="#999999" stroke="#666666" points="330,-37 184,-37 184,-18 330,-18 330,-37"/>
<text text-anchor="middle" x="257" y="-25" font-family="Helvetica,sans-Serif" font-size="10.00">ImFontAtlas::ClearTexData</text>
</a>
</g>
</g>
<!-- Node2 -->
<g id="node2" class="node">
<title>Node2</title>
<g id="a_node2"><a xlink:href="structImFontAtlas.html#a8f6d01c671d8670f991ba651bbaf7e77" target="_top" xlink:title=" ">
<polygon fill="white" stroke="#666666" points="127.5,-56 20.5,-56 20.5,-37 127.5,-37 127.5,-56"/>
<text text-anchor="middle" x="74" y="-44" font-family="Helvetica,sans-Serif" font-size="10.00">ImFontAtlas::Clear</text>
</a>
</g>
</g>
<!-- Node1&#45;&gt;Node2 -->
<g id="edge1" class="edge">
<title>Node1&#45;&gt;Node2</title>
<path fill="none" stroke="#63b8ff" d="M173.71,-36.14C158.02,-37.78 142.01,-39.47 127.57,-40.98"/>
<polygon fill="#63b8ff" stroke="#63b8ff" points="174.36,-39.59 183.94,-35.06 173.63,-32.63 174.36,-39.59"/>
</g>
<!-- Node3 -->
<g id="node3" class="node">
<title>Node3</title>
<g id="a_node3"><a xlink:href="structImFontAtlas.html#a950b4f7586ad7786ae251b957d67a268" target="_top" xlink:title=" ">
<polygon fill="white" stroke="#666666" points="148,-19 0,-19 0,0 148,0 148,-19"/>
<text text-anchor="middle" x="74" y="-7" font-family="Helvetica,sans-Serif" font-size="10.00">ImFontAtlas::~ImFontAtlas</text>
</a>
</g>
</g>
<!-- Node1&#45;&gt;Node3 -->
<g id="edge2" class="edge">
<title>Node1&#45;&gt;Node3</title>
<path fill="none" stroke="#63b8ff" d="M173.96,-19.34C165.4,-18.49 156.74,-17.63 148.29,-16.79"/>
<polygon fill="#63b8ff" stroke="#63b8ff" points="173.65,-22.83 183.94,-20.33 174.34,-15.86 173.65,-22.83"/>
</g>
</g>
</svg>
