<?xml version="1.0" encoding="UTF-8" standalone="no"?>
<!DOCTYPE svg PUBLIC "-//W3C//DTD SVG 1.1//EN"
 "http://www.w3.org/Graphics/SVG/1.1/DTD/svg11.dtd">
<!-- Generated by graphviz version 2.43.0 (0)
 -->
<!-- Title: mtgb::CircleDetectorConfig Pages: 1 -->
<svg width="432pt" height="1366pt"
 viewBox="0.00 0.00 432.00 1366.00" xmlns="http://www.w3.org/2000/svg" xmlns:xlink="http://www.w3.org/1999/xlink">
<g id="graph0" class="graph" transform="scale(1 1) rotate(0) translate(4 1362)">
<title>mtgb::CircleDetectorConfig</title>
<!-- Node1 -->
<g id="node1" class="node">
<title>Node1</title>
<g id="a_node1"><a xlink:title="円検出器の設定">
<polygon fill="#999999" stroke="#666666" points="108.5,-0.5 108.5,-57.5 257.5,-57.5 257.5,-0.5 108.5,-0.5"/>
<text text-anchor="middle" x="183" y="-45.5" font-family="Helvetica,sans-Serif" font-size="10.00">mtgb::CircleDetectorConfig</text>
<polyline fill="none" stroke="#666666" points="108.5,-38.5 257.5,-38.5 "/>
<text text-anchor="start" x="116.5" y="-26.5" font-family="Helvetica,sans-Serif" font-size="10.00">+ float radius</text>
<polyline fill="none" stroke="#666666" points="108.5,-19.5 257.5,-19.5 "/>
<text text-anchor="middle" x="183" y="-7.5" font-family="Helvetica,sans-Serif" font-size="10.00"> </text>
</a>
</g>
</g>
<!-- Node2 -->
<g id="node2" class="node">
<title>Node2</title>
<g id="a_node2"><a xlink:href="structmtgb_1_1DetectorConfigBase.html" target="_top" xlink:title="検出器の共通設定">
<polygon fill="white" stroke="#666666" points="0,-188 0,-278 184,-278 184,-188 0,-188"/>
<text text-anchor="middle" x="92" y="-266" font-family="Helvetica,sans-Serif" font-size="10.00">mtgb::DetectorConfigBase</text>
<polyline fill="none" stroke="#666666" points="0,-259 184,-259 "/>
<text text-anchor="start" x="8" y="-247" font-family="Helvetica,sans-Serif" font-size="10.00">+ GameObjectTag targetTag</text>
<text text-anchor="start" x="8" y="-236" font-family="Helvetica,sans-Serif" font-size="10.00">+ WindowContext windowContext</text>
<text text-anchor="start" x="8" y="-225" font-family="Helvetica,sans-Serif" font-size="10.00">+ float maxDistance</text>
<text text-anchor="start" x="8" y="-214" font-family="Helvetica,sans-Serif" font-size="10.00">+ float minDistance</text>
<polyline fill="none" stroke="#666666" points="0,-207 184,-207 "/>
<text text-anchor="middle" x="92" y="-195" font-family="Helvetica,sans-Serif" font-size="10.00"> </text>
</a>
</g>
</g>
<!-- Node2&#45;&gt;Node1 -->
<g id="edge1" class="edge">
<title>Node2&#45;&gt;Node1</title>
<path fill="none" stroke="#404040" d="M111.97,-187.67C127.93,-152.24 150.08,-103.07 165.39,-69.1"/>
<polygon fill="none" stroke="#404040" points="165.56,-68.7 164.38,-61.59 170.49,-57.76 171.68,-64.88 165.56,-68.7"/>
<text text-anchor="middle" x="179.5" y="-79" font-family="Helvetica,sans-Serif" font-size="10.00"> +base</text>
</g>
<!-- Node3 -->
<g id="node3" class="node">
<title>Node3</title>
<g id="a_node3"><a xlink:href="structmtgb_1_1UIParams.html" target="_top" xlink:title="UI描画時に指定する設定">
<polygon fill="white" stroke="#666666" points="44.5,-507.5 44.5,-564.5 139.5,-564.5 139.5,-507.5 44.5,-507.5"/>
<text text-anchor="middle" x="92" y="-552.5" font-family="Helvetica,sans-Serif" font-size="10.00">mtgb::UIParams</text>
<polyline fill="none" stroke="#666666" points="44.5,-545.5 139.5,-545.5 "/>
<text text-anchor="start" x="52.5" y="-533.5" font-family="Helvetica,sans-Serif" font-size="10.00">+ int depth</text>
<polyline fill="none" stroke="#666666" points="44.5,-526.5 139.5,-526.5 "/>
<text text-anchor="middle" x="92" y="-514.5" font-family="Helvetica,sans-Serif" font-size="10.00"> </text>
</a>
</g>
</g>
<!-- Node3&#45;&gt;Node2 -->
<g id="edge2" class="edge">
<title>Node3&#45;&gt;Node2</title>
<path fill="none" stroke="#404040" d="M92,-507.49C92,-458.51 92,-355.27 92,-290.58"/>
<polygon fill="none" stroke="#404040" points="92,-290.19 88,-284.19 92,-278.19 96,-284.19 92,-290.19"/>
<text text-anchor="middle" x="120.5" y="-382" font-family="Helvetica,sans-Serif" font-size="10.00"> +uiParams</text>
</g>
<!-- Node4 -->
<g id="node4" class="node">
<title>Node4</title>
<g id="a_node4"><a xlink:href="classmtbit_1_1BitFlag.html" target="_top" xlink:title=" ">
<polygon fill="white" stroke="#666666" points="10,-722.5 10,-1021.5 174,-1021.5 174,-722.5 10,-722.5"/>
<text text-anchor="start" x="18" y="-1009.5" font-family="Helvetica,sans-Serif" font-size="10.00">mtbit::BitFlag&lt; GameObject</text>
<text text-anchor="middle" x="92" y="-998.5" font-family="Helvetica,sans-Serif" font-size="10.00">Layer &gt;</text>
<polyline fill="none" stroke="#666666" points="10,-991.5 174,-991.5 "/>
<text text-anchor="start" x="18" y="-979.5" font-family="Helvetica,sans-Serif" font-size="10.00">&#45; std::bitset&lt; BIT_COUNT</text>
<text text-anchor="start" x="18" y="-968.5" font-family="Helvetica,sans-Serif" font-size="10.00"> &gt; value_</text>
<text text-anchor="start" x="18" y="-957.5" font-family="Helvetica,sans-Serif" font-size="10.00">&#45; static constexpr size</text>
<text text-anchor="start" x="18" y="-946.5" font-family="Helvetica,sans-Serif" font-size="10.00">_t BIT_COUNT</text>
<polyline fill="none" stroke="#666666" points="10,-939.5 174,-939.5 "/>
<text text-anchor="start" x="18" y="-927.5" font-family="Helvetica,sans-Serif" font-size="10.00">+ BitFlag()=default</text>
<text text-anchor="start" x="18" y="-916.5" font-family="Helvetica,sans-Serif" font-size="10.00">+ BitFlag(const BitFlag</text>
<text text-anchor="start" x="18" y="-905.5" font-family="Helvetica,sans-Serif" font-size="10.00"> &amp;)=default</text>
<text text-anchor="start" x="18" y="-894.5" font-family="Helvetica,sans-Serif" font-size="10.00">+ BitFlag(const GameObject</text>
<text text-anchor="start" x="18" y="-883.5" font-family="Helvetica,sans-Serif" font-size="10.00">Layer _e)</text>
<text text-anchor="start" x="18" y="-872.5" font-family="Helvetica,sans-Serif" font-size="10.00">+ BitFlag(const std</text>
<text text-anchor="start" x="18" y="-861.5" font-family="Helvetica,sans-Serif" font-size="10.00">::bitset&lt; BIT_COUNT</text>
<text text-anchor="start" x="18" y="-850.5" font-family="Helvetica,sans-Serif" font-size="10.00"> &gt; &amp;_bitset)</text>
<text text-anchor="start" x="18" y="-839.5" font-family="Helvetica,sans-Serif" font-size="10.00">+ ~BitFlag()=default</text>
<text text-anchor="start" x="18" y="-828.5" font-family="Helvetica,sans-Serif" font-size="10.00">+ BitFlagEditor BeginEdit()</text>
<text text-anchor="start" x="18" y="-817.5" font-family="Helvetica,sans-Serif" font-size="10.00">+ bool Has(const GameObject</text>
<text text-anchor="start" x="18" y="-806.5" font-family="Helvetica,sans-Serif" font-size="10.00">Layer _e) const</text>
<text text-anchor="start" x="18" y="-795.5" font-family="Helvetica,sans-Serif" font-size="10.00">+ bool Has(const BitFlag</text>
<text text-anchor="start" x="18" y="-784.5" font-family="Helvetica,sans-Serif" font-size="10.00"> _other) const</text>
<text text-anchor="start" x="18" y="-773.5" font-family="Helvetica,sans-Serif" font-size="10.00">+ bool Is(const BitFlag</text>
<text text-anchor="start" x="18" y="-762.5" font-family="Helvetica,sans-Serif" font-size="10.00"> _other) const</text>
<text text-anchor="start" x="18" y="-751.5" font-family="Helvetica,sans-Serif" font-size="10.00">+ std::bitset&lt; BIT_COUNT</text>
<text text-anchor="start" x="18" y="-740.5" font-family="Helvetica,sans-Serif" font-size="10.00"> &gt; Value() const</text>
<text text-anchor="start" x="18" y="-729.5" font-family="Helvetica,sans-Serif" font-size="10.00">+ static BitFlag New()</text>
</a>
</g>
</g>
<!-- Node4&#45;&gt;Node3 -->
<g id="edge3" class="edge">
<title>Node4&#45;&gt;Node3</title>
<path fill="none" stroke="#404040" d="M92,-722.07C92,-668.93 92,-613.32 92,-577.1"/>
<polygon fill="none" stroke="#404040" points="92,-576.68 88,-570.68 92,-564.68 96,-570.68 92,-576.68"/>
<text text-anchor="middle" x="121" y="-690.5" font-family="Helvetica,sans-Serif" font-size="10.00"> +layerFlag</text>
</g>
<!-- Node5 -->
<g id="node5" class="node">
<title>Node5</title>
<g id="a_node5"><a xlink:href="classmtbit_1_1BitFlag.html" target="_top" xlink:title="スコープ付き列挙型を使ったビットフラグ">
<polygon fill="white" stroke="#666666" points="8,-1069.5 8,-1357.5 176,-1357.5 176,-1069.5 8,-1069.5"/>
<text text-anchor="middle" x="92" y="-1345.5" font-family="Helvetica,sans-Serif" font-size="10.00">mtbit::BitFlag&lt; EnumStructT &gt;</text>
<polyline fill="none" stroke="#666666" points="8,-1338.5 176,-1338.5 "/>
<text text-anchor="start" x="16" y="-1326.5" font-family="Helvetica,sans-Serif" font-size="10.00">&#45; std::bitset&lt; BIT_COUNT</text>
<text text-anchor="start" x="16" y="-1315.5" font-family="Helvetica,sans-Serif" font-size="10.00"> &gt; value_</text>
<text text-anchor="start" x="16" y="-1304.5" font-family="Helvetica,sans-Serif" font-size="10.00">&#45; static constexpr size</text>
<text text-anchor="start" x="16" y="-1293.5" font-family="Helvetica,sans-Serif" font-size="10.00">_t BIT_COUNT</text>
<polyline fill="none" stroke="#666666" points="8,-1286.5 176,-1286.5 "/>
<text text-anchor="start" x="16" y="-1274.5" font-family="Helvetica,sans-Serif" font-size="10.00">+ BitFlag()=default</text>
<text text-anchor="start" x="16" y="-1263.5" font-family="Helvetica,sans-Serif" font-size="10.00">+ BitFlag(const BitFlag</text>
<text text-anchor="start" x="16" y="-1252.5" font-family="Helvetica,sans-Serif" font-size="10.00"> &amp;)=default</text>
<text text-anchor="start" x="16" y="-1241.5" font-family="Helvetica,sans-Serif" font-size="10.00">+ BitFlag(const EnumStruct</text>
<text text-anchor="start" x="16" y="-1230.5" font-family="Helvetica,sans-Serif" font-size="10.00">T _e)</text>
<text text-anchor="start" x="16" y="-1219.5" font-family="Helvetica,sans-Serif" font-size="10.00">+ BitFlag(const std</text>
<text text-anchor="start" x="16" y="-1208.5" font-family="Helvetica,sans-Serif" font-size="10.00">::bitset&lt; BIT_COUNT</text>
<text text-anchor="start" x="16" y="-1197.5" font-family="Helvetica,sans-Serif" font-size="10.00"> &gt; &amp;_bitset)</text>
<text text-anchor="start" x="16" y="-1186.5" font-family="Helvetica,sans-Serif" font-size="10.00">+ ~BitFlag()=default</text>
<text text-anchor="start" x="16" y="-1175.5" font-family="Helvetica,sans-Serif" font-size="10.00">+ BitFlagEditor BeginEdit()</text>
<text text-anchor="start" x="16" y="-1164.5" font-family="Helvetica,sans-Serif" font-size="10.00">+ bool Has(const EnumStruct</text>
<text text-anchor="start" x="16" y="-1153.5" font-family="Helvetica,sans-Serif" font-size="10.00">T _e) const</text>
<text text-anchor="start" x="16" y="-1142.5" font-family="Helvetica,sans-Serif" font-size="10.00">+ bool Has(const BitFlag</text>
<text text-anchor="start" x="16" y="-1131.5" font-family="Helvetica,sans-Serif" font-size="10.00"> _other) const</text>
<text text-anchor="start" x="16" y="-1120.5" font-family="Helvetica,sans-Serif" font-size="10.00">+ bool Is(const BitFlag</text>
<text text-anchor="start" x="16" y="-1109.5" font-family="Helvetica,sans-Serif" font-size="10.00"> _other) const</text>
<text text-anchor="start" x="16" y="-1098.5" font-family="Helvetica,sans-Serif" font-size="10.00">+ std::bitset&lt; BIT_COUNT</text>
<text text-anchor="start" x="16" y="-1087.5" font-family="Helvetica,sans-Serif" font-size="10.00"> &gt; Value() const</text>
<text text-anchor="start" x="16" y="-1076.5" font-family="Helvetica,sans-Serif" font-size="10.00">+ static BitFlag New()</text>
</a>
</g>
</g>
<!-- Node5&#45;&gt;Node4 -->
<g id="edge4" class="edge">
<title>Node5&#45;&gt;Node4</title>
<path fill="none" stroke="orange" d="M92,-1058.7C92,-1046.39 92,-1033.96 92,-1021.69"/>
<polygon fill="orange" stroke="orange" points="88.5,-1059.01 92,-1069.01 95.5,-1059.01 88.5,-1059.01"/>
<text text-anchor="middle" x="149" y="-1043" font-family="Helvetica,sans-Serif" font-size="10.00"> &lt; GameObjectLayer &gt;</text>
</g>
<!-- Node6 -->
<g id="node6" class="node">
<title>Node6</title>
<g id="a_node6"><a xlink:href="structmtgb_1_1Vector2T.html" target="_top" xlink:title=" ">
<polygon fill="white" stroke="#666666" points="202,-105.5 202,-360.5 348,-360.5 348,-105.5 202,-105.5"/>
<text text-anchor="middle" x="275" y="-348.5" font-family="Helvetica,sans-Serif" font-size="10.00">mtgb::Vector2T&lt; float &gt;</text>
<polyline fill="none" stroke="#666666" points="202,-341.5 348,-341.5 "/>
<text text-anchor="middle" x="275" y="-329.5" font-family="Helvetica,sans-Serif" font-size="10.00"> </text>
<polyline fill="none" stroke="#666666" points="202,-322.5 348,-322.5 "/>
<text text-anchor="start" x="210" y="-310.5" font-family="Helvetica,sans-Serif" font-size="10.00">+ Vector2T(const Vector2T</text>
<text text-anchor="start" x="210" y="-299.5" font-family="Helvetica,sans-Serif" font-size="10.00">&lt; U &gt; &amp;_other)</text>
<text text-anchor="start" x="210" y="-288.5" font-family="Helvetica,sans-Serif" font-size="10.00">+ Vector2T(U _x, U _y)</text>
<text text-anchor="start" x="210" y="-277.5" font-family="Helvetica,sans-Serif" font-size="10.00">+ Vector2T()=default</text>
<text text-anchor="start" x="210" y="-266.5" font-family="Helvetica,sans-Serif" font-size="10.00">+ Vector2T(T _x, T _y)</text>
<text text-anchor="start" x="210" y="-255.5" font-family="Helvetica,sans-Serif" font-size="10.00">+ Vector2T(const Vector2T</text>
<text text-anchor="start" x="210" y="-244.5" font-family="Helvetica,sans-Serif" font-size="10.00"> &amp;_other)=default</text>
<text text-anchor="start" x="210" y="-233.5" font-family="Helvetica,sans-Serif" font-size="10.00">+ Vector2T(Vector2T</text>
<text text-anchor="start" x="210" y="-222.5" font-family="Helvetica,sans-Serif" font-size="10.00"> &amp;&amp;_other)=default</text>
<text text-anchor="start" x="210" y="-211.5" font-family="Helvetica,sans-Serif" font-size="10.00">+ Vector2T &amp; operator</text>
<text text-anchor="start" x="210" y="-200.5" font-family="Helvetica,sans-Serif" font-size="10.00">=(const Vector2T &amp;)</text>
<text text-anchor="start" x="210" y="-189.5" font-family="Helvetica,sans-Serif" font-size="10.00">=default</text>
<text text-anchor="start" x="210" y="-178.5" font-family="Helvetica,sans-Serif" font-size="10.00">+ Vector2T &amp; operator</text>
<text text-anchor="start" x="210" y="-167.5" font-family="Helvetica,sans-Serif" font-size="10.00">=(Vector2T &amp;&amp;)=default</text>
<text text-anchor="start" x="210" y="-156.5" font-family="Helvetica,sans-Serif" font-size="10.00">+ ~Vector2T()=default</text>
<text text-anchor="start" x="210" y="-145.5" font-family="Helvetica,sans-Serif" font-size="10.00">+ float Size() const</text>
<text text-anchor="start" x="210" y="-134.5" font-family="Helvetica,sans-Serif" font-size="10.00">ほか 8 件…</text>
<text text-anchor="start" x="210" y="-123.5" font-family="Helvetica,sans-Serif" font-size="10.00">+ static Vector2T Zero()</text>
<text text-anchor="start" x="210" y="-112.5" font-family="Helvetica,sans-Serif" font-size="10.00">+ static Vector2T One()</text>
</a>
</g>
</g>
<!-- Node6&#45;&gt;Node1 -->
<g id="edge5" class="edge">
<title>Node6&#45;&gt;Node1</title>
<path fill="none" stroke="#404040" d="M217.26,-105.22C211.32,-92.18 205.66,-79.75 200.71,-68.89"/>
<polygon fill="none" stroke="#404040" points="200.62,-68.69 194.49,-64.89 195.65,-57.77 201.77,-61.57 200.62,-68.69"/>
<text text-anchor="middle" x="229.5" y="-79" font-family="Helvetica,sans-Serif" font-size="10.00"> +center</text>
</g>
<!-- Node7 -->
<g id="node7" class="node">
<title>Node7</title>
<g id="a_node7"><a xlink:title=" ">
<polygon fill="white" stroke="#666666" points="263.5,-843.5 263.5,-900.5 292.5,-900.5 292.5,-843.5 263.5,-843.5"/>
<text text-anchor="middle" x="278" y="-888.5" font-family="Helvetica,sans-Serif" font-size="10.00">T</text>
<polyline fill="none" stroke="#666666" points="263.5,-881.5 292.5,-881.5 "/>
<text text-anchor="middle" x="278" y="-869.5" font-family="Helvetica,sans-Serif" font-size="10.00"> </text>
<polyline fill="none" stroke="#666666" points="263.5,-862.5 292.5,-862.5 "/>
<text text-anchor="middle" x="278" y="-850.5" font-family="Helvetica,sans-Serif" font-size="10.00"> </text>
</a>
</g>
</g>
<!-- Node7&#45;&gt;Node6 -->
<g id="edge6" class="edge">
<title>Node7&#45;&gt;Node6</title>
<path fill="none" stroke="#404040" d="M273.23,-843.32C266.67,-803.73 255.19,-728.56 251,-664 243.63,-550.46 243.21,-521.51 251,-408 251.79,-396.48 252.87,-384.56 254.14,-372.61"/>
<polygon fill="none" stroke="#404040" points="254.15,-372.58 250.83,-366.18 255.47,-360.66 258.78,-367.06 254.15,-372.58"/>
<text text-anchor="middle" x="260" y="-539" font-family="Helvetica,sans-Serif" font-size="10.00"> +x</text>
<text text-anchor="middle" x="260" y="-528" font-family="Helvetica,sans-Serif" font-size="10.00">+y</text>
</g>
<!-- Node8 -->
<g id="node8" class="node">
<title>Node8</title>
<g id="a_node8"><a xlink:href="structmtgb_1_1Vector2T.html" target="_top" xlink:title=" ">
<polygon fill="white" stroke="#666666" points="278,-408.5 278,-663.5 424,-663.5 424,-408.5 278,-408.5"/>
<text text-anchor="middle" x="351" y="-651.5" font-family="Helvetica,sans-Serif" font-size="10.00">mtgb::Vector2T&lt; T &gt;</text>
<polyline fill="none" stroke="#666666" points="278,-644.5 424,-644.5 "/>
<text text-anchor="middle" x="351" y="-632.5" font-family="Helvetica,sans-Serif" font-size="10.00"> </text>
<polyline fill="none" stroke="#666666" points="278,-625.5 424,-625.5 "/>
<text text-anchor="start" x="286" y="-613.5" font-family="Helvetica,sans-Serif" font-size="10.00">+ Vector2T(const Vector2T</text>
<text text-anchor="start" x="286" y="-602.5" font-family="Helvetica,sans-Serif" font-size="10.00">&lt; U &gt; &amp;_other)</text>
<text text-anchor="start" x="286" y="-591.5" font-family="Helvetica,sans-Serif" font-size="10.00">+ Vector2T(U _x, U _y)</text>
<text text-anchor="start" x="286" y="-580.5" font-family="Helvetica,sans-Serif" font-size="10.00">+ Vector2T()=default</text>
<text text-anchor="start" x="286" y="-569.5" font-family="Helvetica,sans-Serif" font-size="10.00">+ Vector2T(T _x, T _y)</text>
<text text-anchor="start" x="286" y="-558.5" font-family="Helvetica,sans-Serif" font-size="10.00">+ Vector2T(const Vector2T</text>
<text text-anchor="start" x="286" y="-547.5" font-family="Helvetica,sans-Serif" font-size="10.00"> &amp;_other)=default</text>
<text text-anchor="start" x="286" y="-536.5" font-family="Helvetica,sans-Serif" font-size="10.00">+ Vector2T(Vector2T</text>
<text text-anchor="start" x="286" y="-525.5" font-family="Helvetica,sans-Serif" font-size="10.00"> &amp;&amp;_other)=default</text>
<text text-anchor="start" x="286" y="-514.5" font-family="Helvetica,sans-Serif" font-size="10.00">+ Vector2T &amp; operator</text>
<text text-anchor="start" x="286" y="-503.5" font-family="Helvetica,sans-Serif" font-size="10.00">=(const Vector2T &amp;)</text>
<text text-anchor="start" x="286" y="-492.5" font-family="Helvetica,sans-Serif" font-size="10.00">=default</text>
<text text-anchor="start" x="286" y="-481.5" font-family="Helvetica,sans-Serif" font-size="10.00">+ Vector2T &amp; operator</text>
<text text-anchor="start" x="286" y="-470.5" font-family="Helvetica,sans-Serif" font-size="10.00">=(Vector2T &amp;&amp;)=default</text>
<text text-anchor="start" x="286" y="-459.5" font-family="Helvetica,sans-Serif" font-size="10.00">+ ~Vector2T()=default</text>
<text text-anchor="start" x="286" y="-448.5" font-family="Helvetica,sans-Serif" font-size="10.00">+ float Size() const</text>
<text text-anchor="start" x="286" y="-437.5" font-family="Helvetica,sans-Serif" font-size="10.00">ほか 8 件…</text>
<text text-anchor="start" x="286" y="-426.5" font-family="Helvetica,sans-Serif" font-size="10.00">+ static Vector2T Zero()</text>
<text text-anchor="start" x="286" y="-415.5" font-family="Helvetica,sans-Serif" font-size="10.00">+ static Vector2T One()</text>
</a>
</g>
</g>
<!-- Node7&#45;&gt;Node8 -->
<g id="edge8" class="edge">
<title>Node7&#45;&gt;Node8</title>
<path fill="none" stroke="#404040" d="M284.04,-843.38C292.11,-806.46 306.99,-738.36 320.68,-675.74"/>
<polygon fill="none" stroke="#404040" points="320.74,-675.43 318.12,-668.71 323.31,-663.7 325.93,-670.42 320.74,-675.43"/>
<text text-anchor="middle" x="327" y="-696" font-family="Helvetica,sans-Serif" font-size="10.00"> +x</text>
<text text-anchor="middle" x="327" y="-685" font-family="Helvetica,sans-Serif" font-size="10.00">+y</text>
</g>
<!-- Node8&#45;&gt;Node6 -->
<g id="edge7" class="edge">
<title>Node8&#45;&gt;Node6</title>
<path fill="none" stroke="orange" d="M316.46,-398.22C313.3,-385.7 310.11,-373.05 306.97,-360.63"/>
<polygon fill="orange" stroke="orange" points="313.15,-399.38 318.99,-408.22 319.93,-397.67 313.15,-399.38"/>
<text text-anchor="middle" x="337" y="-382" font-family="Helvetica,sans-Serif" font-size="10.00"> &lt; float &gt;</text>
</g>
</g>
</svg>
