<?xml version="1.0" encoding="UTF-8" standalone="no"?>
<!DOCTYPE svg PUBLIC "-//W3C//DTD SVG 1.1//EN"
 "http://www.w3.org/Graphics/SVG/1.1/DTD/svg11.dtd">
<!-- Generated by graphviz version 2.43.0 (0)
 -->
<!-- Title: ImVector::insert Pages: 1 -->
<svg width="1380pt" height="936pt"
 viewBox="0.00 0.00 1380.00 935.50" xmlns="http://www.w3.org/2000/svg" xmlns:xlink="http://www.w3.org/1999/xlink">
<g id="graph0" class="graph" transform="scale(1 1) rotate(0) translate(4 931.5)">
<title>ImVector::insert</title>
<!-- Node1 -->
<g id="node1" class="node">
<title>Node1</title>
<g id="a_node1"><a xlink:title=" ">
<polygon fill="#999999" stroke="#666666" points="1372,-518 1278,-518 1278,-499 1372,-499 1372,-518"/>
<text text-anchor="middle" x="1325" y="-506" font-family="Helvetica,sans-Serif" font-size="10.00">ImVector::insert</text>
</a>
</g>
</g>
<!-- Node2 -->
<g id="node2" class="node">
<title>Node2</title>
<g id="a_node2"><a xlink:href="structImGuiStorage.html#a4b51cc8c92c65d4224af65a8ce7752ee" target="_top" xlink:title=" ">
<polygon fill="white" stroke="#666666" points="1237,-804 1089,-804 1089,-785 1237,-785 1237,-804"/>
<text text-anchor="middle" x="1163" y="-792" font-family="Helvetica,sans-Serif" font-size="10.00">ImGuiStorage::GetFloatRef</text>
</a>
</g>
</g>
<!-- Node1&#45;&gt;Node2 -->
<g id="edge1" class="edge">
<title>Node1&#45;&gt;Node2</title>
<path fill="none" stroke="#63b8ff" d="M1323.75,-528.28C1322.03,-576.67 1310.81,-702.02 1242,-770.5 1235.67,-776.8 1227.74,-781.45 1219.37,-784.88"/>
<polygon fill="#63b8ff" stroke="#63b8ff" points="1327.25,-528.28 1324,-518.2 1320.25,-528.11 1327.25,-528.28"/>
</g>
<!-- Node3 -->
<g id="node3" class="node">
<title>Node3</title>
<g id="a_node3"><a xlink:href="structImGuiStorage.html#a28673fa7839263f3066ccb8e93e748a9" target="_top" xlink:title=" ">
<polygon fill="white" stroke="#666666" points="797.5,-763 661.5,-763 661.5,-744 797.5,-744 797.5,-763"/>
<text text-anchor="middle" x="729.5" y="-751" font-family="Helvetica,sans-Serif" font-size="10.00">ImGuiStorage::GetIntRef</text>
</a>
</g>
</g>
<!-- Node1&#45;&gt;Node3 -->
<g id="edge2" class="edge">
<title>Node1&#45;&gt;Node3</title>
<path fill="none" stroke="#63b8ff" d="M1316.33,-527.59C1304.23,-555.7 1278.27,-608.45 1242,-641.5 1170.89,-706.29 1141.09,-713.24 1048,-737.5 963.75,-759.46 862.77,-760.43 797.67,-757.94"/>
<polygon fill="#63b8ff" stroke="#63b8ff" points="1319.67,-528.7 1320.29,-518.12 1313.21,-526 1319.67,-528.7"/>
</g>
<!-- Node47 -->
<g id="node14" class="node">
<title>Node47</title>
<g id="a_node14"><a xlink:href="structImGuiStorage.html#a2b203317f3f488818e9b9f416fe35332" target="_top" xlink:title=" ">
<polygon fill="white" stroke="#666666" points="1242,-313 1084,-313 1084,-294 1242,-294 1242,-313"/>
<text text-anchor="middle" x="1163" y="-301" font-family="Helvetica,sans-Serif" font-size="10.00">ImGuiStorage::GetVoidPtrRef</text>
</a>
</g>
</g>
<!-- Node1&#45;&gt;Node47 -->
<g id="edge16" class="edge">
<title>Node1&#45;&gt;Node47</title>
<path fill="none" stroke="#63b8ff" d="M1321.21,-488.59C1314.72,-450.1 1294.93,-365.38 1242,-321.5 1237.93,-318.13 1233.36,-315.36 1228.51,-313.1"/>
<polygon fill="#63b8ff" stroke="#63b8ff" points="1317.83,-489.62 1322.82,-498.96 1324.74,-488.54 1317.83,-489.62"/>
</g>
<!-- Node426 -->
<g id="node17" class="node">
<title>Node426</title>
<g id="a_node17"><a xlink:href="structImVector.html#a168658df8e0e1df5698ebe7a69946389" target="_top" xlink:title=" ">
<polygon fill="white" stroke="#666666" points="1222,-632 1104,-632 1104,-613 1222,-613 1222,-632"/>
<text text-anchor="middle" x="1163" y="-620" font-family="Helvetica,sans-Serif" font-size="10.00">ImVector::push_front</text>
</a>
</g>
</g>
<!-- Node1&#45;&gt;Node426 -->
<g id="edge19" class="edge">
<title>Node1&#45;&gt;Node426</title>
<path fill="none" stroke="#63b8ff" d="M1302.43,-523.87C1268.96,-547.71 1205.5,-592.93 1177.67,-612.76"/>
<polygon fill="#63b8ff" stroke="#63b8ff" points="1304.52,-526.68 1310.63,-518.02 1300.46,-520.98 1304.52,-526.68"/>
</g>
<!-- Node439 -->
<g id="node26" class="node">
<title>Node439</title>
<g id="a_node26"><a xlink:href="structImGuiStorage.html#ab531d90a0e5a1a2453e351c499149756" target="_top" xlink:title=" ">
<polygon fill="white" stroke="#666666" points="1228,-276 1098,-276 1098,-257 1228,-257 1228,-276"/>
<text text-anchor="middle" x="1163" y="-264" font-family="Helvetica,sans-Serif" font-size="10.00">ImGuiStorage::SetFloat</text>
</a>
</g>
</g>
<!-- Node1&#45;&gt;Node439 -->
<g id="edge29" class="edge">
<title>Node1&#45;&gt;Node439</title>
<path fill="none" stroke="#63b8ff" d="M1322.84,-488.66C1319.15,-444.8 1303.97,-339.22 1242,-284.5 1237.94,-280.91 1233.3,-278 1228.36,-275.64"/>
<polygon fill="#63b8ff" stroke="#63b8ff" points="1319.35,-488.91 1323.56,-498.63 1326.33,-488.4 1319.35,-488.91"/>
</g>
<!-- Node440 -->
<g id="node27" class="node">
<title>Node440</title>
<g id="a_node27"><a xlink:href="structImGuiStorage.html#af83975ca841a9bd0e06a6ea0a41bf159" target="_top" xlink:title=" ">
<polygon fill="white" stroke="#666666" points="1222,-518 1104,-518 1104,-499 1222,-499 1222,-518"/>
<text text-anchor="middle" x="1163" y="-506" font-family="Helvetica,sans-Serif" font-size="10.00">ImGuiStorage::SetInt</text>
</a>
</g>
</g>
<!-- Node1&#45;&gt;Node440 -->
<g id="edge30" class="edge">
<title>Node1&#45;&gt;Node440</title>
<path fill="none" stroke="#63b8ff" d="M1267.72,-508.5C1252.95,-508.5 1237,-508.5 1222.14,-508.5"/>
<polygon fill="#63b8ff" stroke="#63b8ff" points="1267.72,-512 1277.72,-508.5 1267.72,-505 1267.72,-512"/>
</g>
<!-- Node446 -->
<g id="node38" class="node">
<title>Node446</title>
<g id="a_node38"><a xlink:href="structImGuiStorage.html#a55f840086b3ec9cf63c67f02d159204a" target="_top" xlink:title=" ">
<polygon fill="white" stroke="#666666" points="1233,-350 1093,-350 1093,-331 1233,-331 1233,-350"/>
<text text-anchor="middle" x="1163" y="-338" font-family="Helvetica,sans-Serif" font-size="10.00">ImGuiStorage::SetVoidPtr</text>
</a>
</g>
</g>
<!-- Node1&#45;&gt;Node446 -->
<g id="edge45" class="edge">
<title>Node1&#45;&gt;Node446</title>
<path fill="none" stroke="#63b8ff" d="M1307.8,-491.49C1274.59,-456.62 1199.68,-377.97 1173.36,-350.33"/>
<polygon fill="#63b8ff" stroke="#63b8ff" points="1305.51,-494.16 1314.94,-498.99 1310.58,-489.33 1305.51,-494.16"/>
</g>
<!-- Node4 -->
<g id="node4" class="node">
<title>Node4</title>
<g id="a_node4"><a xlink:href="structImGuiStorage.html#aeb0d62100453d710bac5f6ad0a6e6a2e" target="_top" xlink:title=" ">
<polygon fill="white" stroke="#666666" points="582,-722 437,-722 437,-703 582,-703 582,-722"/>
<text text-anchor="middle" x="509.5" y="-710" font-family="Helvetica,sans-Serif" font-size="10.00">ImGuiStorage::GetBoolRef</text>
</a>
</g>
</g>
<!-- Node3&#45;&gt;Node4 -->
<g id="edge3" class="edge">
<title>Node3&#45;&gt;Node4</title>
<path fill="none" stroke="#63b8ff" d="M667.79,-742.08C634.22,-735.77 592.99,-728.01 561.16,-722.03"/>
<polygon fill="#63b8ff" stroke="#63b8ff" points="667.46,-745.58 677.94,-743.99 668.76,-738.7 667.46,-745.58"/>
</g>
<!-- Node5 -->
<g id="node5" class="node">
<title>Node5</title>
<g id="a_node5"><a xlink:href="structImPool.html#a47973a2eac8e4c06ef369ac02d23f4e5" target="_top" xlink:title=" ">
<polygon fill="white" stroke="#666666" points="576.5,-759 442.5,-759 442.5,-740 576.5,-740 576.5,-759"/>
<text text-anchor="middle" x="509.5" y="-747" font-family="Helvetica,sans-Serif" font-size="10.00">ImPool::GetOrAddByKey</text>
</a>
</g>
</g>
<!-- Node3&#45;&gt;Node5 -->
<g id="edge4" class="edge">
<title>Node3&#45;&gt;Node5</title>
<path fill="none" stroke="#63b8ff" d="M651.06,-752.08C626.76,-751.63 600.17,-751.15 576.72,-750.71"/>
<polygon fill="#63b8ff" stroke="#63b8ff" points="651.25,-755.58 661.31,-752.27 651.38,-748.58 651.25,-755.58"/>
</g>
<!-- Node43 -->
<g id="node11" class="node">
<title>Node43</title>
<g id="a_node11"><a xlink:href="structImGuiSelectionBasicStorage.html#a00b16e65ced786c9446c419ab9a75a0a" target="_top" xlink:title=" ">
<polygon fill="white" stroke="#666666" points="587,-862.5 432,-862.5 432,-832.5 587,-832.5 587,-862.5"/>
<text text-anchor="start" x="440" y="-850.5" font-family="Helvetica,sans-Serif" font-size="10.00">ImGuiSelectionBasicStorage</text>
<text text-anchor="middle" x="509.5" y="-839.5" font-family="Helvetica,sans-Serif" font-size="10.00">::SetItemSelected</text>
</a>
</g>
</g>
<!-- Node3&#45;&gt;Node43 -->
<g id="edge10" class="edge">
<title>Node3&#45;&gt;Node43</title>
<path fill="none" stroke="#63b8ff" d="M697.08,-767.05C656.87,-784.39 587.43,-814.33 545.55,-832.39"/>
<polygon fill="#63b8ff" stroke="#63b8ff" points="698.6,-770.2 706.4,-763.03 695.83,-763.78 698.6,-770.2"/>
</g>
<!-- Node6 -->
<g id="node6" class="node">
<title>Node6</title>
<g id="a_node6"><a xlink:href="namespaceImGui.html#a1024700da3902b084e0f37d4abecc723" target="_top" xlink:title=" ">
<polygon fill="#fff0f0" stroke="red" points="362.5,-670 228.5,-670 228.5,-651 362.5,-651 362.5,-670"/>
<text text-anchor="middle" x="295.5" y="-658" font-family="Helvetica,sans-Serif" font-size="10.00">ImGui::BeginMultiSelect</text>
</a>
</g>
</g>
<!-- Node5&#45;&gt;Node6 -->
<g id="edge5" class="edge">
<title>Node5&#45;&gt;Node6</title>
<path fill="none" stroke="#63b8ff" d="M432.92,-737.97C428.75,-736.12 424.74,-733.97 421,-731.5 397.55,-716 408.38,-695.1 385,-679.5 378.2,-674.96 370.51,-671.49 362.58,-668.83"/>
<polygon fill="#63b8ff" stroke="#63b8ff" points="431.69,-741.25 442.28,-741.6 434.22,-734.72 431.69,-741.25"/>
</g>
<!-- Node13 -->
<g id="node8" class="node">
<title>Node13</title>
<g id="a_node8"><a xlink:href="namespaceImGui.html#ab930db04eeff13f78ae76382c52db7eb" target="_top" xlink:title=" ">
<polygon fill="#fff0f0" stroke="red" points="352,-793 239,-793 239,-774 352,-774 352,-793"/>
<text text-anchor="middle" x="295.5" y="-781" font-family="Helvetica,sans-Serif" font-size="10.00">ImGui::BeginTabBar</text>
</a>
</g>
</g>
<!-- Node5&#45;&gt;Node13 -->
<g id="edge7" class="edge">
<title>Node5&#45;&gt;Node13</title>
<path fill="none" stroke="#63b8ff" d="M438.98,-760.65C410.83,-765.16 378.75,-770.31 352.18,-774.57"/>
<polygon fill="#63b8ff" stroke="#63b8ff" points="439.84,-764.06 449.16,-759.02 438.74,-757.14 439.84,-764.06"/>
</g>
<!-- Node20 -->
<g id="node9" class="node">
<title>Node20</title>
<g id="a_node9"><a xlink:href="namespaceImGui.html#a28046a30716afeb7738a82a5b19044ca" target="_top" xlink:title=" ">
<polygon fill="#fff0f0" stroke="red" points="354,-756 237,-756 237,-737 354,-737 354,-756"/>
<text text-anchor="middle" x="295.5" y="-744" font-family="Helvetica,sans-Serif" font-size="10.00">ImGui::BeginTableEx</text>
</a>
</g>
</g>
<!-- Node5&#45;&gt;Node20 -->
<g id="edge8" class="edge">
<title>Node5&#45;&gt;Node20</title>
<path fill="none" stroke="#63b8ff" d="M432.22,-748.42C406.55,-748.06 378.34,-747.66 354.33,-747.32"/>
<polygon fill="#63b8ff" stroke="#63b8ff" points="432.25,-751.92 442.29,-748.56 432.34,-744.92 432.25,-751.92"/>
</g>
<!-- Node37 -->
<g id="node10" class="node">
<title>Node37</title>
<g id="a_node10"><a xlink:href="namespaceImGui.html#adc0c133a37b7e56223cb104f8bca32dc" target="_top" xlink:title=" ">
<polygon fill="#fff0f0" stroke="red" points="385,-718.5 206,-718.5 206,-688.5 385,-688.5 385,-718.5"/>
<text text-anchor="start" x="214" y="-706.5" font-family="Helvetica,sans-Serif" font-size="10.00">ImGui::DockContextPruneUnused</text>
<text text-anchor="middle" x="295.5" y="-695.5" font-family="Helvetica,sans-Serif" font-size="10.00">SettingsNodes</text>
</a>
</g>
</g>
<!-- Node5&#45;&gt;Node37 -->
<g id="edge9" class="edge">
<title>Node5&#45;&gt;Node37</title>
<path fill="none" stroke="#63b8ff" d="M451.28,-737.89C441.19,-735.79 430.78,-733.61 421,-731.5 401.94,-727.4 381.27,-722.81 362.36,-718.55"/>
<polygon fill="#63b8ff" stroke="#63b8ff" points="450.74,-741.35 461.24,-739.94 452.15,-734.49 450.74,-741.35"/>
</g>
<!-- Node7 -->
<g id="node7" class="node">
<title>Node7</title>
<g id="a_node7"><a xlink:href="imgui__demo_8cpp.html#a401c106ef9206d8dd4b4bc3271a6de6f" target="_top" xlink:title=" ">
<polygon fill="#fff0f0" stroke="red" points="170,-656.5 0,-656.5 0,-626.5 170,-626.5 170,-656.5"/>
<text text-anchor="start" x="8" y="-644.5" font-family="Helvetica,sans-Serif" font-size="10.00">DemoWindowWidgetsSelection</text>
<text text-anchor="middle" x="85" y="-633.5" font-family="Helvetica,sans-Serif" font-size="10.00">AndMultiSelect</text>
</a>
</g>
</g>
<!-- Node6&#45;&gt;Node7 -->
<g id="edge6" class="edge">
<title>Node6&#45;&gt;Node7</title>
<path fill="none" stroke="#63b8ff" d="M218.12,-653.54C202.49,-652.12 185.95,-650.61 170.07,-649.16"/>
<polygon fill="#63b8ff" stroke="#63b8ff" points="217.97,-657.04 228.24,-654.46 218.6,-650.07 217.97,-657.04"/>
</g>
<!-- Node43&#45;&gt;Node7 -->
<g id="edge15" class="edge">
<title>Node43&#45;&gt;Node7</title>
<path fill="none" stroke="#63b8ff" d="M448.79,-864.98C384.29,-880.21 280.75,-893.77 206,-850.5 131.05,-807.11 98.85,-697.24 89.27,-656.77"/>
<polygon fill="#63b8ff" stroke="#63b8ff" points="449.92,-868.31 458.8,-862.53 448.25,-861.51 449.92,-868.31"/>
</g>
<!-- Node44 -->
<g id="node12" class="node">
<title>Node44</title>
<g id="a_node12"><a xlink:href="structExampleSelectionWithDeletion.html#aa040ee356abd37ae15d34eaae8b53822" target="_top" xlink:title=" ">
<polygon fill="#fff0f0" stroke="red" points="379.5,-841.5 211.5,-841.5 211.5,-811.5 379.5,-811.5 379.5,-841.5"/>
<text text-anchor="start" x="219.5" y="-829.5" font-family="Helvetica,sans-Serif" font-size="10.00">ExampleSelectionWithDeletion</text>
<text text-anchor="middle" x="295.5" y="-818.5" font-family="Helvetica,sans-Serif" font-size="10.00">::ApplyDeletionPostLoop</text>
</a>
</g>
</g>
<!-- Node43&#45;&gt;Node44 -->
<g id="edge11" class="edge">
<title>Node43&#45;&gt;Node44</title>
<path fill="none" stroke="#63b8ff" d="M421.91,-838.92C407.98,-837.54 393.59,-836.12 379.74,-834.75"/>
<polygon fill="#63b8ff" stroke="#63b8ff" points="421.67,-842.42 431.96,-839.92 422.36,-835.45 421.67,-842.42"/>
</g>
<!-- Node45 -->
<g id="node13" class="node">
<title>Node45</title>
<g id="a_node13"><a xlink:href="structImGuiSelectionBasicStorage.html#a5da8efc0dbe1611b3f980afba295110a" target="_top" xlink:title=" ">
<polygon fill="#fff0f0" stroke="red" points="373,-927.5 218,-927.5 218,-897.5 373,-897.5 373,-927.5"/>
<text text-anchor="start" x="226" y="-915.5" font-family="Helvetica,sans-Serif" font-size="10.00">ImGuiSelectionBasicStorage</text>
<text text-anchor="middle" x="295.5" y="-904.5" font-family="Helvetica,sans-Serif" font-size="10.00">::ApplyRequests</text>
</a>
</g>
</g>
<!-- Node43&#45;&gt;Node45 -->
<g id="edge13" class="edge">
<title>Node43&#45;&gt;Node45</title>
<path fill="none" stroke="#63b8ff" d="M449.46,-865.6C416.81,-875.61 376.72,-887.91 345.77,-897.39"/>
<polygon fill="#63b8ff" stroke="#63b8ff" points="450.8,-868.85 459.33,-862.58 448.74,-862.16 450.8,-868.85"/>
</g>
<!-- Node44&#45;&gt;Node7 -->
<g id="edge12" class="edge">
<title>Node44&#45;&gt;Node7</title>
<path fill="none" stroke="#63b8ff" d="M213.06,-806.84C210.63,-805.49 208.27,-804.04 206,-802.5 148.94,-763.67 108.36,-688.59 92.9,-656.57"/>
<polygon fill="#63b8ff" stroke="#63b8ff" points="211.64,-810.04 222.15,-811.33 214.74,-803.76 211.64,-810.04"/>
</g>
<!-- Node45&#45;&gt;Node7 -->
<g id="edge14" class="edge">
<title>Node45&#45;&gt;Node7</title>
<path fill="none" stroke="#63b8ff" d="M218.91,-892.6C214.31,-889.93 209.95,-886.92 206,-883.5 132.08,-819.5 98.97,-699.22 89.23,-656.79"/>
<polygon fill="#63b8ff" stroke="#63b8ff" points="217.54,-895.83 228.03,-897.29 220.74,-889.6 217.54,-895.83"/>
</g>
<!-- Node48 -->
<g id="node15" class="node">
<title>Node48</title>
<g id="a_node15"><a xlink:href="imgui__draw_8cpp.html#a58a2aab4435ade7b1ad6ada67f0a509f" target="_top" xlink:title=" ">
<polygon fill="white" stroke="#666666" points="1030.5,-101 878.5,-101 878.5,-82 1030.5,-82 1030.5,-101"/>
<text text-anchor="middle" x="954.5" y="-89" font-family="Helvetica,sans-Serif" font-size="10.00">ImFontAtlasBakedGetOrAdd</text>
</a>
</g>
</g>
<!-- Node47&#45;&gt;Node48 -->
<g id="edge17" class="edge">
<title>Node47&#45;&gt;Node48</title>
<path fill="none" stroke="#63b8ff" d="M1089.43,-288.85C1087.52,-287.52 1085.71,-286.07 1084,-284.5 1046.77,-250.23 1075.5,-218.97 1048,-176.5 1026.78,-143.73 990.01,-115.23 969.81,-101.05"/>
<polygon fill="#63b8ff" stroke="#63b8ff" points="1087.85,-291.99 1098.26,-293.99 1091.38,-285.94 1087.85,-291.99"/>
</g>
<!-- Node49 -->
<g id="node16" class="node">
<title>Node49</title>
<g id="a_node16"><a xlink:href="structImFont.html#a8adbf587ae41bedc3084d9924733b4c3" target="_top" xlink:title=" ">
<polygon fill="#fff0f0" stroke="red" points="792,-19 667,-19 667,0 792,0 792,-19"/>
<text text-anchor="middle" x="729.5" y="-7" font-family="Helvetica,sans-Serif" font-size="10.00">ImFont::GetFontBaked</text>
</a>
</g>
</g>
<!-- Node48&#45;&gt;Node49 -->
<g id="edge18" class="edge">
<title>Node48&#45;&gt;Node49</title>
<path fill="none" stroke="#63b8ff" d="M925.65,-77.21C900,-64.47 860.65,-45.96 825,-33.5 808.86,-27.86 790.75,-22.93 774.73,-19.04"/>
<polygon fill="#63b8ff" stroke="#63b8ff" points="924.26,-80.43 934.77,-81.79 927.4,-74.17 924.26,-80.43"/>
</g>
<!-- Node427 -->
<g id="node18" class="node">
<title>Node427</title>
<g id="a_node18"><a xlink:href="imgui_8cpp.html#a3c92847eb67e7138e6f9af0ee66d3b33" target="_top" xlink:title=" ">
<polygon fill="white" stroke="#666666" points="1009.5,-481 899.5,-481 899.5,-462 1009.5,-462 1009.5,-481"/>
<text text-anchor="middle" x="954.5" y="-469" font-family="Helvetica,sans-Serif" font-size="10.00">CreateNewWindow</text>
</a>
</g>
</g>
<!-- Node426&#45;&gt;Node427 -->
<g id="edge20" class="edge">
<title>Node426&#45;&gt;Node427</title>
<path fill="none" stroke="#63b8ff" d="M1147.67,-604.65C1119.97,-570.36 1060.71,-497.95 1048,-490.5 1036.4,-483.7 1022.75,-479.3 1009.54,-476.47"/>
<polygon fill="#63b8ff" stroke="#63b8ff" points="1145.28,-607.27 1154.28,-612.86 1150.73,-602.88 1145.28,-607.27"/>
</g>
<!-- Node428 -->
<g id="node20" class="node">
<title>Node428</title>
<g id="a_node20"><a xlink:href="imgui__impl__win32_8cpp.html#a406c6a8e48cae7dcb70e768176599416" target="_top" xlink:title=" ">
<polygon fill="white" stroke="#666666" points="1048,-728.5 861,-728.5 861,-698.5 1048,-698.5 1048,-728.5"/>
<text text-anchor="start" x="869" y="-716.5" font-family="Helvetica,sans-Serif" font-size="10.00">ImGui_ImplWin32_UpdateMonitors</text>
<text text-anchor="middle" x="954.5" y="-705.5" font-family="Helvetica,sans-Serif" font-size="10.00">_EnumFunc</text>
</a>
</g>
</g>
<!-- Node426&#45;&gt;Node428 -->
<g id="edge22" class="edge">
<title>Node426&#45;&gt;Node428</title>
<path fill="none" stroke="#63b8ff" d="M1140.23,-637.78C1117.97,-652.8 1081.93,-675.45 1048,-689.5 1040.03,-692.8 1031.48,-695.75 1022.92,-698.36"/>
<polygon fill="#63b8ff" stroke="#63b8ff" points="1142.33,-640.59 1148.61,-632.05 1138.38,-634.81 1142.33,-640.59"/>
</g>
<!-- Node435 -->
<g id="node22" class="node">
<title>Node435</title>
<g id="a_node22"><a xlink:href="imgui_8cpp.html#a39e46fb2d1c766ea6b5292ecefc17575" target="_top" xlink:title=" ">
<polygon fill="white" stroke="#666666" points="1035.5,-632 873.5,-632 873.5,-613 1035.5,-613 1035.5,-632"/>
<text text-anchor="middle" x="954.5" y="-620" font-family="Helvetica,sans-Serif" font-size="10.00">ImGuiListClipper_StepInternal</text>
</a>
</g>
</g>
<!-- Node426&#45;&gt;Node435 -->
<g id="edge24" class="edge">
<title>Node426&#45;&gt;Node435</title>
<path fill="none" stroke="#63b8ff" d="M1093.82,-622.5C1075.27,-622.5 1055.01,-622.5 1035.86,-622.5"/>
<polygon fill="#63b8ff" stroke="#63b8ff" points="1093.93,-626 1103.93,-622.5 1093.93,-619 1093.93,-626"/>
</g>
<!-- Node437 -->
<g id="node24" class="node">
<title>Node437</title>
<g id="a_node24"><a xlink:href="namespaceImGui.html#a92ac596d91c03957e034022b239a881d" target="_top" xlink:title=" ">
<polygon fill="white" stroke="#666666" points="1047.5,-680.5 861.5,-680.5 861.5,-650.5 1047.5,-650.5 1047.5,-680.5"/>
<text text-anchor="start" x="869.5" y="-668.5" font-family="Helvetica,sans-Serif" font-size="10.00">ImGui::RenderDimmedBackground</text>
<text text-anchor="middle" x="954.5" y="-657.5" font-family="Helvetica,sans-Serif" font-size="10.00">BehindWindow</text>
</a>
</g>
</g>
<!-- Node426&#45;&gt;Node437 -->
<g id="edge27" class="edge">
<title>Node426&#45;&gt;Node437</title>
<path fill="none" stroke="#63b8ff" d="M1106.1,-634.14C1081.92,-639.18 1053.31,-645.13 1027.57,-650.49"/>
<polygon fill="#63b8ff" stroke="#63b8ff" points="1107.09,-637.51 1116.17,-632.04 1105.67,-630.66 1107.09,-637.51"/>
</g>
<!-- Node259 -->
<g id="node19" class="node">
<title>Node259</title>
<g id="a_node19"><a xlink:href="namespaceImGui.html#a581e58db0bc930bafa4a5d23093a2b99" target="_top" xlink:title=" ">
<polygon fill="#fff0f0" stroke="red" points="769.5,-481 689.5,-481 689.5,-462 769.5,-462 769.5,-481"/>
<text text-anchor="middle" x="729.5" y="-469" font-family="Helvetica,sans-Serif" font-size="10.00">ImGui::Begin</text>
</a>
</g>
</g>
<!-- Node427&#45;&gt;Node259 -->
<g id="edge21" class="edge">
<title>Node427&#45;&gt;Node259</title>
<path fill="none" stroke="#63b8ff" d="M889.11,-471.5C850.46,-471.5 802.55,-471.5 769.56,-471.5"/>
<polygon fill="#63b8ff" stroke="#63b8ff" points="889.23,-475 899.23,-471.5 889.23,-468 889.23,-475"/>
</g>
<!-- Node429 -->
<g id="node21" class="node">
<title>Node429</title>
<g id="a_node21"><a xlink:href="imgui__impl__win32_8cpp.html#a89e9a7d37283f923c83cb50573b5e1d9" target="_top" xlink:title=" ">
<polygon fill="#fff0f0" stroke="red" points="823,-723 636,-723 636,-704 823,-704 823,-723"/>
<text text-anchor="middle" x="729.5" y="-711" font-family="Helvetica,sans-Serif" font-size="10.00">ImGui_ImplWin32_UpdateMonitors</text>
</a>
</g>
</g>
<!-- Node428&#45;&gt;Node429 -->
<g id="edge23" class="edge">
<title>Node428&#45;&gt;Node429</title>
<path fill="none" stroke="#63b8ff" d="M850.6,-713.5C841.46,-713.5 832.25,-713.5 823.21,-713.5"/>
<polygon fill="#63b8ff" stroke="#63b8ff" points="850.87,-717 860.87,-713.5 850.87,-710 850.87,-717"/>
</g>
<!-- Node436 -->
<g id="node23" class="node">
<title>Node436</title>
<g id="a_node23"><a xlink:href="structImGuiListClipper.html#ac3e115812c3c4e5a39578a7aa955379a" target="_top" xlink:title=" ">
<polygon fill="#fff0f0" stroke="red" points="572,-632 447,-632 447,-613 572,-613 572,-632"/>
<text text-anchor="middle" x="509.5" y="-620" font-family="Helvetica,sans-Serif" font-size="10.00">ImGuiListClipper::Step</text>
</a>
</g>
</g>
<!-- Node435&#45;&gt;Node436 -->
<g id="edge25" class="edge">
<title>Node435&#45;&gt;Node436</title>
<path fill="none" stroke="#63b8ff" d="M863.18,-622.5C776.49,-622.5 647.89,-622.5 572.29,-622.5"/>
<polygon fill="#63b8ff" stroke="#63b8ff" points="863.28,-626 873.28,-622.5 863.28,-619 863.28,-626"/>
</g>
<!-- Node436&#45;&gt;Node7 -->
<g id="edge26" class="edge">
<title>Node436&#45;&gt;Node7</title>
<path fill="none" stroke="#63b8ff" d="M436.49,-625.74C362.76,-629.05 248.22,-634.2 170.31,-637.71"/>
<polygon fill="#63b8ff" stroke="#63b8ff" points="436.78,-629.23 446.61,-625.28 436.47,-622.24 436.78,-629.23"/>
</g>
<!-- Node438 -->
<g id="node25" class="node">
<title>Node438</title>
<g id="a_node25"><a xlink:href="namespaceImGui.html#a6b080917e0b311340f252f37cdc21736" target="_top" xlink:title=" ">
<polygon fill="#fff0f0" stroke="red" points="825,-675 634,-675 634,-656 825,-656 825,-675"/>
<text text-anchor="middle" x="729.5" y="-663" font-family="Helvetica,sans-Serif" font-size="10.00">ImGui::RenderDimmedBackgrounds</text>
</a>
</g>
</g>
<!-- Node437&#45;&gt;Node438 -->
<g id="edge28" class="edge">
<title>Node437&#45;&gt;Node438</title>
<path fill="none" stroke="#63b8ff" d="M851.12,-665.5C842.51,-665.5 833.82,-665.5 825.26,-665.5"/>
<polygon fill="#63b8ff" stroke="#63b8ff" points="851.19,-669 861.19,-665.5 851.19,-662 851.19,-669"/>
</g>
<!-- Node441 -->
<g id="node28" class="node">
<title>Node441</title>
<g id="a_node28"><a xlink:href="structImFont.html#afb70d5be01dd44905902d904c88b57bc" target="_top" xlink:title=" ">
<polygon fill="white" stroke="#666666" points="1020.5,-444 888.5,-444 888.5,-425 1020.5,-425 1020.5,-444"/>
<text text-anchor="middle" x="954.5" y="-432" font-family="Helvetica,sans-Serif" font-size="10.00">ImFont::AddRemapChar</text>
</a>
</g>
</g>
<!-- Node440&#45;&gt;Node441 -->
<g id="edge31" class="edge">
<title>Node440&#45;&gt;Node441</title>
<path fill="none" stroke="#63b8ff" d="M1136.62,-494C1114.01,-481.64 1079.69,-464.22 1048,-453.5 1036.97,-449.77 1024.95,-446.65 1013.33,-444.09"/>
<polygon fill="#63b8ff" stroke="#63b8ff" points="1135.11,-497.17 1145.55,-498.96 1138.51,-491.04 1135.11,-497.17"/>
</g>
<!-- Node442 -->
<g id="node29" class="node">
<title>Node442</title>
<g id="a_node29"><a xlink:href="structImPool.html#a967f556412946a33bca3950f9be7a6ae" target="_top" xlink:title=" ">
<polygon fill="white" stroke="#666666" points="1003,-407 906,-407 906,-388 1003,-388 1003,-407"/>
<text text-anchor="middle" x="954.5" y="-395" font-family="Helvetica,sans-Serif" font-size="10.00">ImPool::Remove</text>
</a>
</g>
</g>
<!-- Node440&#45;&gt;Node442 -->
<g id="edge32" class="edge">
<title>Node440&#45;&gt;Node442</title>
<path fill="none" stroke="#63b8ff" d="M1146.34,-491.65C1125.83,-470.65 1087.77,-435.26 1048,-416.5 1034.06,-409.92 1017.89,-405.62 1003,-402.8"/>
<polygon fill="#63b8ff" stroke="#63b8ff" points="1143.86,-494.12 1153.31,-498.92 1148.92,-489.28 1143.86,-494.12"/>
</g>
<!-- Node443 -->
<g id="node30" class="node">
<title>Node443</title>
<g id="a_node30"><a xlink:href="structImGuiStorage.html#ac5beee31a59b3f5294b41992717be7bf" target="_top" xlink:title=" ">
<polygon fill="white" stroke="#666666" points="573,-594 446,-594 446,-575 573,-575 573,-594"/>
<text text-anchor="middle" x="509.5" y="-582" font-family="Helvetica,sans-Serif" font-size="10.00">ImGuiStorage::SetBool</text>
</a>
</g>
</g>
<!-- Node440&#45;&gt;Node443 -->
<g id="edge33" class="edge">
<title>Node440&#45;&gt;Node443</title>
<path fill="none" stroke="#63b8ff" d="M1129.48,-521.77C1106.99,-530.34 1076.16,-540.9 1048,-546.5 878.71,-580.14 674.25,-585.03 573.25,-585.14"/>
<polygon fill="#63b8ff" stroke="#63b8ff" points="1130.83,-525 1138.89,-518.12 1128.3,-518.48 1130.83,-525"/>
</g>
<!-- Node336 -->
<g id="node31" class="node">
<title>Node336</title>
<g id="a_node31"><a xlink:href="namespaceImGui.html#a918eabf70d288e93b2519ee1eac2c0b4" target="_top" xlink:title=" ">
<polygon fill="white" stroke="#666666" points="580,-518 439,-518 439,-499 580,-499 580,-518"/>
<text text-anchor="middle" x="509.5" y="-506" font-family="Helvetica,sans-Serif" font-size="10.00">ImGui::TreeNodeBehavior</text>
</a>
</g>
</g>
<!-- Node440&#45;&gt;Node336 -->
<g id="edge35" class="edge">
<title>Node440&#45;&gt;Node336</title>
<path fill="none" stroke="#63b8ff" d="M1105.7,-519.78C1087.38,-522.94 1066.9,-525.94 1048,-527.5 864.63,-542.68 817.46,-541.53 634,-527.5 609.77,-525.65 583.11,-521.78 560.77,-518.01"/>
<polygon fill="#63b8ff" stroke="#63b8ff" points="1106.39,-523.21 1115.63,-518.01 1105.17,-516.32 1106.39,-523.21"/>
</g>
<!-- Node444 -->
<g id="node36" class="node">
<title>Node444</title>
<g id="a_node36"><a xlink:href="namespaceImGui.html#a1756b0bbb8f15af6ab35a6690e904565" target="_top" xlink:title=" ">
<polygon fill="white" stroke="#666666" points="1024,-518 885,-518 885,-499 1024,-499 1024,-518"/>
<text text-anchor="middle" x="954.5" y="-506" font-family="Helvetica,sans-Serif" font-size="10.00">ImGui::TreeNodeSetOpen</text>
</a>
</g>
</g>
<!-- Node440&#45;&gt;Node444 -->
<g id="edge42" class="edge">
<title>Node440&#45;&gt;Node444</title>
<path fill="none" stroke="#63b8ff" d="M1093.83,-508.5C1071.43,-508.5 1046.53,-508.5 1024.1,-508.5"/>
<polygon fill="#63b8ff" stroke="#63b8ff" points="1093.93,-512 1103.93,-508.5 1093.93,-505 1093.93,-512"/>
</g>
<!-- Node443&#45;&gt;Node7 -->
<g id="edge34" class="edge">
<title>Node443&#45;&gt;Node7</title>
<path fill="none" stroke="#63b8ff" d="M435.91,-593.43C374.6,-601.08 284.49,-612.55 206,-623.5 194.42,-625.11 182.22,-626.88 170.22,-628.64"/>
<polygon fill="#63b8ff" stroke="#63b8ff" points="436.39,-596.9 445.88,-592.19 435.52,-589.95 436.39,-596.9"/>
</g>
<!-- Node337 -->
<g id="node32" class="node">
<title>Node337</title>
<g id="a_node32"><a xlink:href="namespaceImGui.html#ab52f9e08698c9d64abb05b98f5355146" target="_top" xlink:title=" ">
<polygon fill="#fff0f0" stroke="red" points="364.5,-556 226.5,-556 226.5,-537 364.5,-537 364.5,-556"/>
<text text-anchor="middle" x="295.5" y="-544" font-family="Helvetica,sans-Serif" font-size="10.00">ImGui::CollapsingHeader</text>
</a>
</g>
</g>
<!-- Node336&#45;&gt;Node337 -->
<g id="edge36" class="edge">
<title>Node336&#45;&gt;Node337</title>
<path fill="none" stroke="#63b8ff" d="M445.2,-519.85C414.78,-525.3 378.73,-531.76 349.74,-536.96"/>
<polygon fill="#63b8ff" stroke="#63b8ff" points="446.05,-523.25 455.28,-518.04 444.82,-516.36 446.05,-523.25"/>
</g>
<!-- Node338 -->
<g id="node33" class="node">
<title>Node338</title>
<g id="a_node33"><a xlink:href="namespaceImGui.html#a4dff507ce8bbe0da9556bb50b1e60d7f" target="_top" xlink:title=" ">
<polygon fill="#fff0f0" stroke="red" points="344.5,-482 246.5,-482 246.5,-463 344.5,-463 344.5,-482"/>
<text text-anchor="middle" x="295.5" y="-470" font-family="Helvetica,sans-Serif" font-size="10.00">ImGui::TreeNode</text>
</a>
</g>
</g>
<!-- Node336&#45;&gt;Node338 -->
<g id="edge37" class="edge">
<title>Node336&#45;&gt;Node338</title>
<path fill="none" stroke="#63b8ff" d="M442.44,-497.28C410.74,-491.9 373.46,-485.57 344.51,-480.65"/>
<polygon fill="#63b8ff" stroke="#63b8ff" points="442.08,-500.77 452.52,-498.99 443.25,-493.87 442.08,-500.77"/>
</g>
<!-- Node341 -->
<g id="node34" class="node">
<title>Node341</title>
<g id="a_node34"><a xlink:href="namespaceImGui.html#a21f62e092dac9556a15a8edee2f70522" target="_top" xlink:title=" ">
<polygon fill="#fff0f0" stroke="red" points="350.5,-445 240.5,-445 240.5,-426 350.5,-426 350.5,-445"/>
<text text-anchor="middle" x="295.5" y="-433" font-family="Helvetica,sans-Serif" font-size="10.00">ImGui::TreeNodeEx</text>
</a>
</g>
</g>
<!-- Node336&#45;&gt;Node341 -->
<g id="edge39" class="edge">
<title>Node336&#45;&gt;Node341</title>
<path fill="none" stroke="#63b8ff" d="M480.6,-494.37C455.97,-482.37 418.82,-465.4 385,-454.5 373.63,-450.84 361.22,-447.67 349.37,-445.04"/>
<polygon fill="#63b8ff" stroke="#63b8ff" points="479.19,-497.58 489.71,-498.86 482.29,-491.3 479.19,-497.58"/>
</g>
<!-- Node342 -->
<g id="node35" class="node">
<title>Node342</title>
<g id="a_node35"><a xlink:href="namespaceImGui.html#a251cd4acbdad4cef2246d9b573a83ce0" target="_top" xlink:title=" ">
<polygon fill="#fff0f0" stroke="red" points="353.5,-519 237.5,-519 237.5,-500 353.5,-500 353.5,-519"/>
<text text-anchor="middle" x="295.5" y="-507" font-family="Helvetica,sans-Serif" font-size="10.00">ImGui::TreeNodeExV</text>
</a>
</g>
</g>
<!-- Node336&#45;&gt;Node342 -->
<g id="edge41" class="edge">
<title>Node336&#45;&gt;Node342</title>
<path fill="none" stroke="#63b8ff" d="M428.6,-508.88C403.63,-508.99 376.6,-509.12 353.53,-509.23"/>
<polygon fill="#63b8ff" stroke="#63b8ff" points="428.81,-512.38 438.79,-508.83 428.77,-505.38 428.81,-512.38"/>
</g>
<!-- Node338&#45;&gt;Node7 -->
<g id="edge38" class="edge">
<title>Node338&#45;&gt;Node7</title>
<path fill="none" stroke="#63b8ff" d="M236.54,-478.99C225.87,-481.8 215.21,-485.81 206,-491.5 150.4,-525.88 109.6,-595.54 93.52,-626.31"/>
<polygon fill="#63b8ff" stroke="#63b8ff" points="237.35,-482.39 246.3,-476.72 235.77,-475.57 237.35,-482.39"/>
</g>
<!-- Node341&#45;&gt;Node7 -->
<g id="edge40" class="edge">
<title>Node341&#45;&gt;Node7</title>
<path fill="none" stroke="#63b8ff" d="M230.41,-442.89C221.74,-445.67 213.32,-449.43 206,-454.5 141.79,-498.98 104.08,-590.1 91.12,-626.24"/>
<polygon fill="#63b8ff" stroke="#63b8ff" points="231.56,-446.21 240.25,-440.16 229.68,-439.46 231.56,-446.21"/>
</g>
<!-- Node445 -->
<g id="node37" class="node">
<title>Node445</title>
<g id="a_node37"><a xlink:href="namespaceImGui.html#a5dc6b814cfe2dd923ece2d3cf77a5f62" target="_top" xlink:title=" ">
<polygon fill="white" stroke="#666666" points="820.5,-518 638.5,-518 638.5,-499 820.5,-499 820.5,-518"/>
<text text-anchor="middle" x="729.5" y="-506" font-family="Helvetica,sans-Serif" font-size="10.00">ImGui::TreeNodeUpdateNextOpen</text>
</a>
</g>
</g>
<!-- Node444&#45;&gt;Node445 -->
<g id="edge43" class="edge">
<title>Node444&#45;&gt;Node445</title>
<path fill="none" stroke="#63b8ff" d="M874.66,-508.5C857.22,-508.5 838.62,-508.5 820.77,-508.5"/>
<polygon fill="#63b8ff" stroke="#63b8ff" points="874.77,-512 884.77,-508.5 874.77,-505 874.77,-512"/>
</g>
<!-- Node445&#45;&gt;Node336 -->
<g id="edge44" class="edge">
<title>Node445&#45;&gt;Node336</title>
<path fill="none" stroke="#63b8ff" d="M628.17,-508.5C611.9,-508.5 595.37,-508.5 580.04,-508.5"/>
<polygon fill="#63b8ff" stroke="#63b8ff" points="628.26,-512 638.26,-508.5 628.26,-505 628.26,-512"/>
</g>
<!-- Node446&#45;&gt;Node427 -->
<g id="edge46" class="edge">
<title>Node446&#45;&gt;Node427</title>
<path fill="none" stroke="#63b8ff" d="M1149.24,-358.68C1130.27,-384.21 1092.1,-430.17 1048,-453.5 1036.29,-459.7 1022.72,-463.77 1009.66,-466.45"/>
<polygon fill="#63b8ff" stroke="#63b8ff" points="1152.29,-360.43 1155.33,-350.28 1146.63,-356.32 1152.29,-360.43"/>
</g>
<!-- Node447 -->
<g id="node39" class="node">
<title>Node447</title>
<g id="a_node39"><a xlink:href="namespaceImGui.html#ab226cec3473d24f44fdb877b2f709c8d" target="_top" xlink:title=" ">
<polygon fill="#fff0f0" stroke="red" points="1034,-205 875,-205 875,-186 1034,-186 1034,-205"/>
<text text-anchor="middle" x="954.5" y="-193" font-family="Helvetica,sans-Serif" font-size="10.00">ImGui::DockContextAddNode</text>
</a>
</g>
</g>
<!-- Node446&#45;&gt;Node447 -->
<g id="edge47" class="edge">
<title>Node446&#45;&gt;Node447</title>
<path fill="none" stroke="#63b8ff" d="M1089.66,-325.84C1087.68,-324.51 1085.79,-323.07 1084,-321.5 1050.68,-292.27 1079.76,-259.42 1048,-228.5 1036.64,-217.44 1021.33,-210.06 1006.43,-205.14"/>
<polygon fill="#63b8ff" stroke="#63b8ff" points="1088.4,-329.14 1098.83,-330.96 1091.81,-323.03 1088.4,-329.14"/>
</g>
<!-- Node460 -->
<g id="node47" class="node">
<title>Node460</title>
<g id="a_node47"><a xlink:href="namespaceImGui.html#a69ff368895db4bdc84de9ff21b52fddc" target="_top" xlink:title=" ">
<polygon fill="#fff0f0" stroke="red" points="820,-369 639,-369 639,-350 820,-350 820,-369"/>
<text text-anchor="middle" x="729.5" y="-357" font-family="Helvetica,sans-Serif" font-size="10.00">ImGui::DockContextRemoveNode</text>
</a>
</g>
</g>
<!-- Node446&#45;&gt;Node460 -->
<g id="edge57" class="edge">
<title>Node446&#45;&gt;Node460</title>
<path fill="none" stroke="#63b8ff" d="M1082.45,-344C1008.22,-347.27 897.61,-352.14 820.26,-355.55"/>
<polygon fill="#63b8ff" stroke="#63b8ff" points="1082.84,-347.49 1092.67,-343.55 1082.53,-340.5 1082.84,-347.49"/>
</g>
<!-- Node473 -->
<g id="node48" class="node">
<title>Node473</title>
<g id="a_node48"><a xlink:href="namespaceImGui.html#a973b84ddd0e62151719cb562847b1291" target="_top" xlink:title=" ">
<polygon fill="white" stroke="#666666" points="1031,-257 878,-257 878,-238 1031,-238 1031,-257"/>
<text text-anchor="middle" x="954.5" y="-245" font-family="Helvetica,sans-Serif" font-size="10.00">ImGui::DockNodeTreeMerge</text>
</a>
</g>
</g>
<!-- Node446&#45;&gt;Node473 -->
<g id="edge59" class="edge">
<title>Node446&#45;&gt;Node473</title>
<path fill="none" stroke="#63b8ff" d="M1092.64,-326.75C1089.62,-325.19 1086.72,-323.44 1084,-321.5 1059.91,-304.33 1072.49,-282.1 1048,-265.5 1042.85,-262.01 1037.2,-259.16 1031.3,-256.84"/>
<polygon fill="#63b8ff" stroke="#63b8ff" points="1091.43,-330.05 1101.99,-330.94 1094.29,-323.66 1091.43,-330.05"/>
</g>
<!-- Node478 -->
<g id="node49" class="node">
<title>Node478</title>
<g id="a_node49"><a xlink:href="imgui__draw_8cpp.html#a5b545ff603b726dfe58fb1a673a19c11" target="_top" xlink:title=" ">
<polygon fill="#fff0f0" stroke="red" points="1025.5,-331 883.5,-331 883.5,-312 1025.5,-312 1025.5,-331"/>
<text text-anchor="middle" x="954.5" y="-319" font-family="Helvetica,sans-Serif" font-size="10.00">ImFontAtlasBakedDiscard</text>
</a>
</g>
</g>
<!-- Node446&#45;&gt;Node478 -->
<g id="edge62" class="edge">
<title>Node446&#45;&gt;Node478</title>
<path fill="none" stroke="#63b8ff" d="M1082.9,-333.22C1064.01,-331.48 1043.98,-329.64 1025.54,-327.94"/>
<polygon fill="#63b8ff" stroke="#63b8ff" points="1082.67,-336.72 1092.95,-334.15 1083.31,-329.75 1082.67,-336.72"/>
</g>
<!-- Node412 -->
<g id="node50" class="node">
<title>Node412</title>
<g id="a_node50"><a xlink:href="imgui__draw_8cpp.html#a3f94172dde65426b52f7e137a899afb1" target="_top" xlink:title=" ">
<polygon fill="#fff0f0" stroke="red" points="1036,-294 873,-294 873,-275 1036,-275 1036,-294"/>
<text text-anchor="middle" x="954.5" y="-282" font-family="Helvetica,sans-Serif" font-size="10.00">ImFontAtlasUpdateNewFrame</text>
</a>
</g>
</g>
<!-- Node446&#45;&gt;Node412 -->
<g id="edge63" class="edge">
<title>Node446&#45;&gt;Node412</title>
<path fill="none" stroke="#63b8ff" d="M1105.08,-328.37C1097.9,-326.34 1090.72,-324.05 1084,-321.5 1067.08,-315.09 1065.06,-308.51 1048,-302.5 1038.43,-299.13 1028.08,-296.33 1017.87,-294.03"/>
<polygon fill="#63b8ff" stroke="#63b8ff" points="1104.25,-331.78 1114.82,-330.99 1106.07,-325.02 1104.25,-331.78"/>
</g>
<!-- Node71 -->
<g id="node40" class="node">
<title>Node71</title>
<g id="a_node40"><a xlink:href="namespaceImGui.html#a941b7d9d1f491f778796221031b5e439" target="_top" xlink:title=" ">
<polygon fill="white" stroke="#666666" points="807,-246 652,-246 652,-227 807,-227 807,-246"/>
<text text-anchor="middle" x="729.5" y="-234" font-family="Helvetica,sans-Serif" font-size="10.00">ImGui::DockBuilderAddNode</text>
</a>
</g>
</g>
<!-- Node447&#45;&gt;Node71 -->
<g id="edge48" class="edge">
<title>Node447&#45;&gt;Node71</title>
<path fill="none" stroke="#63b8ff" d="M891.84,-206.84C857.42,-213.17 815.02,-220.96 782.33,-226.97"/>
<polygon fill="#63b8ff" stroke="#63b8ff" points="892.58,-210.26 901.78,-205.01 891.31,-203.38 892.58,-210.26"/>
</g>
<!-- Node448 -->
<g id="node41" class="node">
<title>Node448</title>
<g id="a_node41"><a xlink:href="imgui_8cpp.html#a48d8e4bfb5933e8ccec0e1e5671366d9" target="_top" xlink:title=" ">
<polygon fill="#fff0f0" stroke="red" points="801.5,-191 657.5,-191 657.5,-172 801.5,-172 801.5,-191"/>
<text text-anchor="middle" x="729.5" y="-179" font-family="Helvetica,sans-Serif" font-size="10.00">DockBuilderCopyNodeRec</text>
</a>
</g>
</g>
<!-- Node447&#45;&gt;Node448 -->
<g id="edge49" class="edge">
<title>Node447&#45;&gt;Node448</title>
<path fill="none" stroke="#63b8ff" d="M864.71,-189.93C843.79,-188.61 821.75,-187.23 801.72,-185.97"/>
<polygon fill="#63b8ff" stroke="#63b8ff" points="864.68,-193.43 874.88,-190.56 865.12,-186.44 864.68,-193.43"/>
</g>
<!-- Node451 -->
<g id="node42" class="node">
<title>Node451</title>
<g id="a_node42"><a xlink:href="namespaceImGui.html#ada53bde745722ba2792fb62514579a4f" target="_top" xlink:title=" ">
<polygon fill="#fff0f0" stroke="red" points="810.5,-153.5 648.5,-153.5 648.5,-123.5 810.5,-123.5 810.5,-153.5"/>
<text text-anchor="start" x="656.5" y="-141.5" font-family="Helvetica,sans-Serif" font-size="10.00">ImGui::DockContextBindNode</text>
<text text-anchor="middle" x="729.5" y="-130.5" font-family="Helvetica,sans-Serif" font-size="10.00">ToWindow</text>
</a>
</g>
</g>
<!-- Node447&#45;&gt;Node451 -->
<g id="edge51" class="edge">
<title>Node447&#45;&gt;Node451</title>
<path fill="none" stroke="#63b8ff" d="M906.69,-183.45C882.33,-177.18 852.07,-169.41 825,-162.5 813.6,-159.59 801.43,-156.49 789.74,-153.52"/>
<polygon fill="#63b8ff" stroke="#63b8ff" points="905.84,-186.84 916.39,-185.94 907.58,-180.06 905.84,-186.84"/>
</g>
<!-- Node453 -->
<g id="node43" class="node">
<title>Node453</title>
<g id="a_node43"><a xlink:href="namespaceImGui.html#a6d45bf3d75b8591675d83441f5745ae1" target="_top" xlink:title=" ">
<polygon fill="#fff0f0" stroke="red" points="814.5,-105.5 644.5,-105.5 644.5,-75.5 814.5,-75.5 814.5,-105.5"/>
<text text-anchor="start" x="652.5" y="-93.5" font-family="Helvetica,sans-Serif" font-size="10.00">ImGui::DockContextBuildNodes</text>
<text text-anchor="middle" x="729.5" y="-82.5" font-family="Helvetica,sans-Serif" font-size="10.00">FromSettings</text>
</a>
</g>
</g>
<!-- Node447&#45;&gt;Node453 -->
<g id="edge52" class="edge">
<title>Node447&#45;&gt;Node453</title>
<path fill="none" stroke="#63b8ff" d="M932.96,-179.67C908.49,-161.52 865.79,-132.01 825,-114.5 817.15,-111.13 808.71,-108.15 800.23,-105.55"/>
<polygon fill="#63b8ff" stroke="#63b8ff" points="931.02,-182.59 941.11,-185.8 935.23,-176.99 931.02,-182.59"/>
</g>
<!-- Node456 -->
<g id="node44" class="node">
<title>Node456</title>
<g id="a_node44"><a xlink:href="namespaceImGui.html#a2634162c488c806737fe624013c37c0e" target="_top" xlink:title=" ">
<polygon fill="#fff0f0" stroke="red" points="598,-283 421,-283 421,-264 598,-264 598,-283"/>
<text text-anchor="middle" x="509.5" y="-271" font-family="Helvetica,sans-Serif" font-size="10.00">ImGui::DockContextProcessDock</text>
</a>
</g>
</g>
<!-- Node447&#45;&gt;Node456 -->
<g id="edge53" class="edge">
<title>Node447&#45;&gt;Node456</title>
<path fill="none" stroke="#63b8ff" d="M934.52,-179.11C915.35,-162.27 885.2,-134.99 861,-109.5 843.84,-91.42 847.58,-77.05 825,-66.5 748.08,-30.58 707.82,-24.58 634,-66.5 555.03,-111.34 521.2,-228.9 512.73,-263.67"/>
<polygon fill="#63b8ff" stroke="#63b8ff" points="932.42,-181.92 942.26,-185.86 937.02,-176.65 932.42,-181.92"/>
</g>
<!-- Node458 -->
<g id="node45" class="node">
<title>Node458</title>
<g id="a_node45"><a xlink:href="namespaceImGui.html#af62559b86338c4d3d1cd80fb90bd7bd6" target="_top" xlink:title=" ">
<polygon fill="#fff0f0" stroke="red" points="805.5,-331.5 653.5,-331.5 653.5,-301.5 805.5,-301.5 805.5,-331.5"/>
<text text-anchor="start" x="661.5" y="-319.5" font-family="Helvetica,sans-Serif" font-size="10.00">ImGui::DockContextProcess</text>
<text text-anchor="middle" x="729.5" y="-308.5" font-family="Helvetica,sans-Serif" font-size="10.00">UndockNode</text>
</a>
</g>
</g>
<!-- Node447&#45;&gt;Node458 -->
<g id="edge54" class="edge">
<title>Node447&#45;&gt;Node458</title>
<path fill="none" stroke="#63b8ff" d="M897.13,-208.48C884.31,-213.29 871.42,-219.78 861,-228.5 836.28,-249.21 850.57,-271.85 825,-291.5 819.21,-295.95 812.7,-299.6 805.88,-302.61"/>
<polygon fill="#63b8ff" stroke="#63b8ff" points="898.56,-211.69 906.88,-205.13 896.28,-205.07 898.56,-211.69"/>
</g>
<!-- Node459 -->
<g id="node46" class="node">
<title>Node459</title>
<g id="a_node46"><a xlink:href="namespaceImGui.html#ad1bb36662ef45e0306c21eaa801ea013" target="_top" xlink:title=" ">
<polygon fill="white" stroke="#666666" points="801.5,-283 657.5,-283 657.5,-264 801.5,-264 801.5,-283"/>
<text text-anchor="middle" x="729.5" y="-271" font-family="Helvetica,sans-Serif" font-size="10.00">ImGui::DockNodeTreeSplit</text>
</a>
</g>
</g>
<!-- Node447&#45;&gt;Node459 -->
<g id="edge55" class="edge">
<title>Node447&#45;&gt;Node459</title>
<path fill="none" stroke="#63b8ff" d="M910,-208.19C894.16,-213.54 876.37,-220.42 861,-228.5 843.53,-237.69 843.09,-246.6 825,-254.5 816.11,-258.39 806.39,-261.49 796.68,-263.96"/>
<polygon fill="#63b8ff" stroke="#63b8ff" points="911.15,-211.5 919.57,-205.06 908.98,-204.84 911.15,-211.5"/>
</g>
<!-- Node448&#45;&gt;Node448 -->
<g id="edge50" class="edge">
<title>Node448&#45;&gt;Node448</title>
<path fill="none" stroke="#63b8ff" d="M770.73,-198.31C771.35,-204.21 757.6,-209 729.5,-209 690.4,-209 679.1,-199.73 695.59,-191.08"/>
<polygon fill="#63b8ff" stroke="#63b8ff" points="772.98,-195.62 763.41,-191.08 768.07,-200.6 772.98,-195.62"/>
</g>
<!-- Node459&#45;&gt;Node456 -->
<g id="edge56" class="edge">
<title>Node459&#45;&gt;Node456</title>
<path fill="none" stroke="#63b8ff" d="M647.09,-273.5C631.15,-273.5 614.38,-273.5 598.25,-273.5"/>
<polygon fill="#63b8ff" stroke="#63b8ff" points="647.42,-277 657.42,-273.5 647.42,-270 647.42,-277"/>
</g>
<!-- Node460&#45;&gt;Node456 -->
<g id="edge58" class="edge">
<title>Node460&#45;&gt;Node456</title>
<path fill="none" stroke="#63b8ff" d="M657.49,-347.63C649.47,-345.58 641.49,-343.22 634,-340.5 592.03,-325.29 546.96,-297.59 524.66,-283.03"/>
<polygon fill="#63b8ff" stroke="#63b8ff" points="656.73,-351.04 667.27,-349.97 658.36,-344.24 656.73,-351.04"/>
</g>
<!-- Node473&#45;&gt;Node458 -->
<g id="edge60" class="edge">
<title>Node473&#45;&gt;Node458</title>
<path fill="none" stroke="#63b8ff" d="M876.55,-259.78C871.21,-261.45 865.97,-263.35 861,-265.5 842.89,-273.35 842.84,-283.06 825,-291.5 816.95,-295.31 808.22,-298.61 799.44,-301.45"/>
<polygon fill="#63b8ff" stroke="#63b8ff" points="877.61,-263.11 886.26,-257 875.68,-256.38 877.61,-263.11"/>
</g>
<!-- Node473&#45;&gt;Node460 -->
<g id="edge61" class="edge">
<title>Node473&#45;&gt;Node460</title>
<path fill="none" stroke="#63b8ff" d="M868.47,-260.51C865.87,-262.01 863.37,-263.67 861,-265.5 831.74,-288.1 854.19,-317.81 825,-340.5 820.11,-344.3 814.66,-347.4 808.92,-349.92"/>
<polygon fill="#63b8ff" stroke="#63b8ff" points="870.25,-263.53 877.67,-255.97 867.15,-257.25 870.25,-263.53"/>
</g>
</g>
</svg>
