<?xml version="1.0" encoding="UTF-8" standalone="no"?>
<!DOCTYPE svg PUBLIC "-//W3C//DTD SVG 1.1//EN"
 "http://www.w3.org/Graphics/SVG/1.1/DTD/svg11.dtd">
<!-- Generated by graphviz version 2.43.0 (0)
 -->
<!-- Title: ImGuiSelectionBasicStorage::Contains Pages: 1 -->
<svg width="443pt" height="38pt"
 viewBox="0.00 0.00 443.00 38.00" xmlns="http://www.w3.org/2000/svg" xmlns:xlink="http://www.w3.org/1999/xlink">
<g id="graph0" class="graph" transform="scale(1 1) rotate(0) translate(4 34)">
<title>ImGuiSelectionBasicStorage::Contains</title>
<!-- Node1 -->
<g id="node1" class="node">
<title>Node1</title>
<g id="a_node1"><a xlink:title=" ">
<polygon fill="#999999" stroke="#666666" points="155,-30 0,-30 0,0 155,0 155,-30"/>
<text text-anchor="start" x="8" y="-18" font-family="Helvetica,sans-Serif" font-size="10.00">ImGuiSelectionBasicStorage</text>
<text text-anchor="middle" x="77.5" y="-7" font-family="Helvetica,sans-Serif" font-size="10.00">::Contains</text>
</a>
</g>
</g>
<!-- Node2 -->
<g id="node2" class="node">
<title>Node2</title>
<g id="a_node2"><a xlink:href="structImGuiStorage.html#ac86b64f5c69a15de6c6c326963eca64a" target="_top" xlink:title=" ">
<polygon fill="white" stroke="#666666" points="310,-24.5 191,-24.5 191,-5.5 310,-5.5 310,-24.5"/>
<text text-anchor="middle" x="250.5" y="-12.5" font-family="Helvetica,sans-Serif" font-size="10.00">ImGuiStorage::GetInt</text>
</a>
</g>
</g>
<!-- Node1&#45;&gt;Node2 -->
<g id="edge1" class="edge">
<title>Node1&#45;&gt;Node2</title>
<path fill="none" stroke="#63b8ff" d="M155.5,-15C163.94,-15 172.5,-15 180.83,-15"/>
<polygon fill="#63b8ff" stroke="#63b8ff" points="180.87,-18.5 190.87,-15 180.87,-11.5 180.87,-18.5"/>
</g>
<!-- Node3 -->
<g id="node3" class="node">
<title>Node3</title>
<g id="a_node3"><a xlink:href="imgui_8cpp.html#a409bfd6de574854cd644636ea13b6a8a" target="_top" xlink:title=" ">
<polygon fill="white" stroke="#666666" points="435,-24.5 346,-24.5 346,-5.5 435,-5.5 435,-24.5"/>
<text text-anchor="middle" x="390.5" y="-12.5" font-family="Helvetica,sans-Serif" font-size="10.00">ImLowerBound</text>
</a>
</g>
</g>
<!-- Node2&#45;&gt;Node3 -->
<g id="edge2" class="edge">
<title>Node2&#45;&gt;Node3</title>
<path fill="none" stroke="#63b8ff" d="M310.02,-15C318.59,-15 327.38,-15 335.84,-15"/>
<polygon fill="#63b8ff" stroke="#63b8ff" points="335.96,-18.5 345.96,-15 335.96,-11.5 335.96,-18.5"/>
</g>
</g>
</svg>
