<?xml version="1.0" encoding="UTF-8" standalone="no"?>
<!DOCTYPE svg PUBLIC "-//W3C//DTD SVG 1.1//EN"
 "http://www.w3.org/Graphics/SVG/1.1/DTD/svg11.dtd">
<!-- Generated by graphviz version 2.43.0 (0)
 -->
<!-- Title: mtgb::Quaternion::GetSize Pages: 1 -->
<svg width="308pt" height="138pt"
 viewBox="0.00 0.00 308.00 138.00" xmlns="http://www.w3.org/2000/svg" xmlns:xlink="http://www.w3.org/1999/xlink">
<g id="graph0" class="graph" transform="scale(1 1) rotate(0) translate(4 134)">
<title>mtgb::Quaternion::GetSize</title>
<!-- Node1 -->
<g id="node1" class="node">
<title>Node1</title>
<g id="a_node1"><a xlink:title="四元数のサイズを取得する">
<polygon fill="#999999" stroke="#666666" points="146,-74 0,-74 0,-55 146,-55 146,-74"/>
<text text-anchor="middle" x="73" y="-62" font-family="Helvetica,sans-Serif" font-size="10.00">mtgb::Quaternion::GetSize</text>
</a>
</g>
</g>
<!-- Node2 -->
<g id="node2" class="node">
<title>Node2</title>
<g id="a_node2"><a xlink:href="structmtgb_1_1Quaternion.html#af8eb563825e363c5a18a7b247f55e992" target="_top" xlink:title=" ">
<polygon fill="white" stroke="#666666" points="300,-130 182,-130 182,-111 300,-111 300,-130"/>
<text text-anchor="middle" x="241" y="-118" font-family="Helvetica,sans-Serif" font-size="10.00">mtgb::Quaternion::W</text>
</a>
</g>
</g>
<!-- Node1&#45;&gt;Node2 -->
<g id="edge1" class="edge">
<title>Node1&#45;&gt;Node2</title>
<path fill="none" stroke="#63b8ff" d="M100.54,-74.15C122.34,-82 154.07,-93.26 182,-102.5 187.38,-104.28 193.06,-106.11 198.67,-107.88"/>
<polygon fill="#63b8ff" stroke="#63b8ff" points="198.04,-111.35 208.63,-111 200.13,-104.67 198.04,-111.35"/>
</g>
<!-- Node3 -->
<g id="node3" class="node">
<title>Node3</title>
<g id="a_node3"><a xlink:href="structmtgb_1_1Quaternion.html#a2ea703d13738f74f3f3ebd242f929bac" target="_top" xlink:title=" ">
<polygon fill="white" stroke="#666666" points="298.5,-93 183.5,-93 183.5,-74 298.5,-74 298.5,-93"/>
<text text-anchor="middle" x="241" y="-81" font-family="Helvetica,sans-Serif" font-size="10.00">mtgb::Quaternion::X</text>
</a>
</g>
</g>
<!-- Node1&#45;&gt;Node3 -->
<g id="edge2" class="edge">
<title>Node1&#45;&gt;Node3</title>
<path fill="none" stroke="#63b8ff" d="M146.33,-72.78C155.34,-73.81 164.53,-74.86 173.45,-75.88"/>
<polygon fill="#63b8ff" stroke="#63b8ff" points="173.05,-79.36 183.38,-77.02 173.85,-72.41 173.05,-79.36"/>
</g>
<!-- Node4 -->
<g id="node4" class="node">
<title>Node4</title>
<g id="a_node4"><a xlink:href="structmtgb_1_1Quaternion.html#aa4e533f5fd28821dc19f8c4037832d58" target="_top" xlink:title=" ">
<polygon fill="white" stroke="#666666" points="298,-56 184,-56 184,-37 298,-37 298,-56"/>
<text text-anchor="middle" x="241" y="-44" font-family="Helvetica,sans-Serif" font-size="10.00">mtgb::Quaternion::Y</text>
</a>
</g>
</g>
<!-- Node1&#45;&gt;Node4 -->
<g id="edge3" class="edge">
<title>Node1&#45;&gt;Node4</title>
<path fill="none" stroke="#63b8ff" d="M146.33,-56.66C155.47,-55.67 164.78,-54.66 173.82,-53.68"/>
<polygon fill="#63b8ff" stroke="#63b8ff" points="174.32,-57.14 183.89,-52.58 173.57,-50.18 174.32,-57.14"/>
</g>
<!-- Node5 -->
<g id="node5" class="node">
<title>Node5</title>
<g id="a_node5"><a xlink:href="structmtgb_1_1Quaternion.html#a63e96e97a32898ededd6c2e71eb30a33" target="_top" xlink:title=" ">
<polygon fill="white" stroke="#666666" points="298.5,-19 183.5,-19 183.5,0 298.5,0 298.5,-19"/>
<text text-anchor="middle" x="241" y="-7" font-family="Helvetica,sans-Serif" font-size="10.00">mtgb::Quaternion::Z</text>
</a>
</g>
</g>
<!-- Node1&#45;&gt;Node5 -->
<g id="edge4" class="edge">
<title>Node1&#45;&gt;Node5</title>
<path fill="none" stroke="#63b8ff" d="M102.41,-54.99C124.18,-47.7 154.98,-37.43 182,-28.5 188.14,-26.47 194.65,-24.33 201,-22.24"/>
<polygon fill="#63b8ff" stroke="#63b8ff" points="202.37,-25.48 210.78,-19.04 200.19,-18.83 202.37,-25.48"/>
</g>
</g>
</svg>
