<?xml version="1.0" encoding="UTF-8" standalone="no"?>
<!DOCTYPE svg PUBLIC "-//W3C//DTD SVG 1.1//EN"
 "http://www.w3.org/Graphics/SVG/1.1/DTD/svg11.dtd">
<!-- Generated by graphviz version 2.43.0 (0)
 -->
<!-- Title: ImGuiTextBuffer::clear Pages: 1 -->
<svg width="1184pt" height="1145pt"
 viewBox="0.00 0.00 1184.00 1144.74" xmlns="http://www.w3.org/2000/svg" xmlns:xlink="http://www.w3.org/1999/xlink">
<g id="graph0" class="graph" transform="scale(1 1) rotate(0) translate(4 1140.74)">
<title>ImGuiTextBuffer::clear</title>
<!-- Node1 -->
<g id="node1" class="node">
<title>Node1</title>
<g id="a_node1"><a xlink:title=" ">
<polygon fill="#999999" stroke="#666666" points="1176,-946.5 1051,-946.5 1051,-927.5 1176,-927.5 1176,-946.5"/>
<text text-anchor="middle" x="1113.5" y="-934.5" font-family="Helvetica,sans-Serif" font-size="10.00">ImGuiTextBuffer::clear</text>
</a>
</g>
</g>
<!-- Node2 -->
<g id="node2" class="node">
<title>Node2</title>
<g id="a_node2"><a xlink:href="structExampleAppLog.html#ab9c298defddbb106fdfe4ab16c5eebac" target="_top" xlink:title=" ">
<polygon fill="white" stroke="#666666" points="989.5,-946.5 862.5,-946.5 862.5,-927.5 989.5,-927.5 989.5,-946.5"/>
<text text-anchor="middle" x="926" y="-934.5" font-family="Helvetica,sans-Serif" font-size="10.00">ExampleAppLog::Clear</text>
</a>
</g>
</g>
<!-- Node1&#45;&gt;Node2 -->
<g id="edge1" class="edge">
<title>Node1&#45;&gt;Node2</title>
<path fill="none" stroke="#63b8ff" d="M1040.65,-937C1023.82,-937 1006.01,-937 989.61,-937"/>
<polygon fill="#63b8ff" stroke="#63b8ff" points="1040.99,-940.5 1050.99,-937 1040.99,-933.5 1040.99,-940.5"/>
</g>
<!-- Node7 -->
<g id="node7" class="node">
<title>Node7</title>
<g id="a_node7"><a xlink:href="namespaceImGui.html#a845668cf582865444dd93809f6878d49" target="_top" xlink:title=" ">
<polygon fill="white" stroke="#666666" points="990.5,-1041.5 861.5,-1041.5 861.5,-1022.5 990.5,-1022.5 990.5,-1041.5"/>
<text text-anchor="middle" x="926" y="-1029.5" font-family="Helvetica,sans-Serif" font-size="10.00">ImGui::ClearIniSettings</text>
</a>
</g>
</g>
<!-- Node1&#45;&gt;Node7 -->
<g id="edge6" class="edge">
<title>Node1&#45;&gt;Node7</title>
<path fill="none" stroke="#63b8ff" d="M1094.24,-953.48C1075.57,-969.52 1045.12,-993.53 1015,-1008 1002.3,-1014.1 987.79,-1018.86 974.27,-1022.48"/>
<polygon fill="#63b8ff" stroke="#63b8ff" points="1096.72,-955.95 1101.94,-946.73 1092.11,-950.68 1096.72,-955.95"/>
</g>
<!-- Node9 -->
<g id="node9" class="node">
<title>Node9</title>
<g id="a_node9"><a xlink:href="namespaceImGui.html#a2ebcd048d1ca025fb972e1c2e920e3f3" target="_top" xlink:title=" ">
<polygon fill="white" stroke="#666666" points="975,-522.5 877,-522.5 877,-503.5 975,-503.5 975,-522.5"/>
<text text-anchor="middle" x="926" y="-510.5" font-family="Helvetica,sans-Serif" font-size="10.00">ImGui::LogFinish</text>
</a>
</g>
</g>
<!-- Node1&#45;&gt;Node9 -->
<g id="edge9" class="edge">
<title>Node1&#45;&gt;Node9</title>
<path fill="none" stroke="#63b8ff" d="M1104.13,-917.86C1071.73,-843.81 955.19,-577.43 931.3,-522.82"/>
<polygon fill="#63b8ff" stroke="#63b8ff" points="1101.06,-919.59 1108.28,-927.35 1107.48,-916.78 1101.06,-919.59"/>
</g>
<!-- Node31 -->
<g id="node31" class="node">
<title>Node31</title>
<g id="a_node31"><a xlink:href="imgui__demo_8cpp.html#a4dadf5e7b393795666d19af9694037cf" target="_top" xlink:title=" ">
<polygon fill="white" stroke="#666666" points="571,-1022.5 423,-1022.5 423,-1003.5 571,-1003.5 571,-1022.5"/>
<text text-anchor="middle" x="497" y="-1010.5" font-family="Helvetica,sans-Serif" font-size="10.00">ShowExampleAppLongText</text>
</a>
</g>
</g>
<!-- Node1&#45;&gt;Node31 -->
<g id="edge65" class="edge">
<title>Node1&#45;&gt;Node31</title>
<path fill="none" stroke="#63b8ff" d="M1057.61,-948.52C1043.74,-951.2 1028.86,-953.89 1015,-956 857.44,-980 671.38,-998 571.02,-1006.87"/>
<polygon fill="#63b8ff" stroke="#63b8ff" points="1058.36,-951.94 1067.49,-946.58 1057,-945.07 1058.36,-951.94"/>
</g>
<!-- Node36 -->
<g id="node36" class="node">
<title>Node36</title>
<g id="a_node36"><a xlink:href="namespaceImGui.html#af1b39e70cac2e1b9e62dd3c9d154cbd6" target="_top" xlink:title=" ">
<polygon fill="white" stroke="#666666" points="1009,-1078.5 843,-1078.5 843,-1059.5 1009,-1059.5 1009,-1078.5"/>
<text text-anchor="middle" x="926" y="-1066.5" font-family="Helvetica,sans-Serif" font-size="10.00">ImGui::ShowDebugLogWindow</text>
</a>
</g>
</g>
<!-- Node1&#45;&gt;Node36 -->
<g id="edge62" class="edge">
<title>Node1&#45;&gt;Node36</title>
<path fill="none" stroke="#63b8ff" d="M1102.27,-955.26C1086.87,-980.97 1055.19,-1027.32 1015,-1051 1009.22,-1054.4 1002.9,-1057.17 996.39,-1059.42"/>
<polygon fill="#63b8ff" stroke="#63b8ff" points="1105.36,-956.92 1107.37,-946.51 1099.31,-953.4 1105.36,-956.92"/>
</g>
<!-- Node37 -->
<g id="node37" class="node">
<title>Node37</title>
<g id="a_node37"><a xlink:href="namespaceImGui.html#aeba34069558d4fbcf734a9c92ce3b773" target="_top" xlink:title=" ">
<polygon fill="white" stroke="#666666" points="976,-116.5 876,-116.5 876,-97.5 976,-97.5 976,-116.5"/>
<text text-anchor="middle" x="926" y="-104.5" font-family="Helvetica,sans-Serif" font-size="10.00">ImGui::Shutdown</text>
</a>
</g>
</g>
<!-- Node1&#45;&gt;Node37 -->
<g id="edge66" class="edge">
<title>Node1&#45;&gt;Node37</title>
<path fill="none" stroke="#63b8ff" d="M1110.74,-917.33C1103.67,-841.57 1074.75,-561.75 1015,-339 991.23,-250.38 946.09,-148.62 931.6,-116.94"/>
<polygon fill="#63b8ff" stroke="#63b8ff" points="1107.26,-917.71 1111.66,-927.35 1114.23,-917.08 1107.26,-917.71"/>
</g>
<!-- Node40 -->
<g id="node40" class="node">
<title>Node40</title>
<g id="a_node40"><a xlink:href="namespaceImGui.html#af3cb65f8b45057e34fa7d9447a57eb28" target="_top" xlink:title=" ">
<polygon fill="white" stroke="#666666" points="1015,-378 837,-378 837,-348 1015,-348 1015,-378"/>
<text text-anchor="start" x="845" y="-366" font-family="Helvetica,sans-Serif" font-size="10.00">ImGui::TableGcCompactTransient</text>
<text text-anchor="middle" x="926" y="-355" font-family="Helvetica,sans-Serif" font-size="10.00">Buffers</text>
</a>
</g>
</g>
<!-- Node1&#45;&gt;Node40 -->
<g id="edge69" class="edge">
<title>Node1&#45;&gt;Node40</title>
<path fill="none" stroke="#63b8ff" d="M1110.74,-917.02C1104.58,-853.16 1080.64,-649.16 1015,-495 995.36,-448.88 959.17,-401.62 939.89,-378.15"/>
<polygon fill="#63b8ff" stroke="#63b8ff" points="1107.28,-917.63 1111.69,-927.27 1114.25,-916.99 1107.28,-917.63"/>
</g>
<!-- Node3 -->
<g id="node3" class="node">
<title>Node3</title>
<g id="a_node3"><a xlink:href="structExampleAppLog.html#a5ad3a4bdb89171b84aeaff96948a1f77" target="_top" xlink:title=" ">
<polygon fill="white" stroke="#666666" points="560.5,-985.5 433.5,-985.5 433.5,-966.5 560.5,-966.5 560.5,-985.5"/>
<text text-anchor="middle" x="497" y="-973.5" font-family="Helvetica,sans-Serif" font-size="10.00">ExampleAppLog::Draw</text>
</a>
</g>
</g>
<!-- Node2&#45;&gt;Node3 -->
<g id="edge2" class="edge">
<title>Node2&#45;&gt;Node3</title>
<path fill="none" stroke="#63b8ff" d="M852.26,-927.2C789.84,-921.14 698.04,-917.9 621,-938 603.29,-942.62 602.16,-951.63 585,-958 576.04,-961.33 566.31,-964.1 556.72,-966.39"/>
<polygon fill="#63b8ff" stroke="#63b8ff" points="852.1,-930.7 862.41,-928.23 852.81,-923.73 852.1,-930.7"/>
</g>
<!-- Node6 -->
<g id="node6" class="node">
<title>Node6</title>
<g id="a_node6"><a xlink:href="structExampleAppLog.html#adadd24050d22189a1dc43e4a694b7ab3" target="_top" xlink:title=" ">
<polygon fill="white" stroke="#666666" points="801,-965.5 621,-965.5 621,-946.5 801,-946.5 801,-965.5"/>
<text text-anchor="middle" x="711" y="-953.5" font-family="Helvetica,sans-Serif" font-size="10.00">ExampleAppLog::ExampleAppLog</text>
</a>
</g>
</g>
<!-- Node2&#45;&gt;Node6 -->
<g id="edge5" class="edge">
<title>Node2&#45;&gt;Node6</title>
<path fill="none" stroke="#63b8ff" d="M852.19,-943.49C835.76,-944.96 818.15,-946.53 801.14,-948.05"/>
<polygon fill="#63b8ff" stroke="#63b8ff" points="852.6,-946.97 862.25,-942.6 851.97,-940 852.6,-946.97"/>
</g>
<!-- Node4 -->
<g id="node4" class="node">
<title>Node4</title>
<g id="a_node4"><a xlink:href="imgui__demo_8cpp.html#ad0303cf1f675002eb4e68c17a47b3f88" target="_top" xlink:title=" ">
<polygon fill="white" stroke="#666666" points="338.5,-881.5 216.5,-881.5 216.5,-862.5 338.5,-862.5 338.5,-881.5"/>
<text text-anchor="middle" x="277.5" y="-869.5" font-family="Helvetica,sans-Serif" font-size="10.00">ShowExampleAppLog</text>
</a>
</g>
</g>
<!-- Node3&#45;&gt;Node4 -->
<g id="edge3" class="edge">
<title>Node3&#45;&gt;Node4</title>
<path fill="none" stroke="#63b8ff" d="M424.87,-963.63C419.42,-961.97 414.08,-960.11 409,-958 360.88,-938.03 311.53,-899.64 289.87,-881.69"/>
<polygon fill="#63b8ff" stroke="#63b8ff" points="424.17,-967.07 434.74,-966.39 426.05,-960.33 424.17,-967.07"/>
</g>
<!-- Node5 -->
<g id="node5" class="node">
<title>Node5</title>
<g id="a_node5"><a xlink:href="namespaceImGui.html#af95643a0ce4893b9e57c12991922fb18" target="_top" xlink:title=" ">
<polygon fill="white" stroke="#666666" points="146,-598.5 0,-598.5 0,-579.5 146,-579.5 146,-598.5"/>
<text text-anchor="middle" x="73" y="-586.5" font-family="Helvetica,sans-Serif" font-size="10.00">ImGui::ShowDemoWindow</text>
</a>
</g>
</g>
<!-- Node4&#45;&gt;Node5 -->
<g id="edge4" class="edge">
<title>Node4&#45;&gt;Node5</title>
<path fill="none" stroke="#63b8ff" d="M206.92,-862.36C197.86,-858.89 189.23,-854.24 182,-848 100.69,-777.8 79.33,-636.38 74.96,-598.51"/>
<polygon fill="#63b8ff" stroke="#63b8ff" points="205.89,-865.71 216.48,-865.56 208.11,-859.07 205.89,-865.71"/>
</g>
<!-- Node8 -->
<g id="node8" class="node">
<title>Node8</title>
<g id="a_node8"><a xlink:href="namespaceImGui.html#afe7a28c6eb52fff3cc27d5a698fea4ff" target="_top" xlink:title=" ">
<polygon fill="white" stroke="#666666" points="787.5,-1060.5 634.5,-1060.5 634.5,-1041.5 787.5,-1041.5 787.5,-1060.5"/>
<text text-anchor="middle" x="711" y="-1048.5" font-family="Helvetica,sans-Serif" font-size="10.00">ImGui::ShowMetricsWindow</text>
</a>
</g>
</g>
<!-- Node7&#45;&gt;Node8 -->
<g id="edge7" class="edge">
<title>Node7&#45;&gt;Node8</title>
<path fill="none" stroke="#63b8ff" d="M851.15,-1038.59C830.62,-1040.42 808.31,-1042.41 787.68,-1044.25"/>
<polygon fill="#63b8ff" stroke="#63b8ff" points="851.73,-1042.05 861.38,-1037.67 851.11,-1035.08 851.73,-1042.05"/>
</g>
<!-- Node8&#45;&gt;Node5 -->
<g id="edge8" class="edge">
<title>Node8&#45;&gt;Node5</title>
<path fill="none" stroke="#63b8ff" d="M637.64,-1061.69C523.2,-1074.1 301.2,-1079.08 182,-955 78.5,-847.27 73.54,-645.34 73.83,-598.76"/>
<polygon fill="#63b8ff" stroke="#63b8ff" points="638.16,-1065.15 647.7,-1060.55 637.37,-1058.2 638.16,-1065.15"/>
</g>
<!-- Node9&#45;&gt;Node5 -->
<g id="edge59" class="edge">
<title>Node9&#45;&gt;Node5</title>
<path fill="none" stroke="#63b8ff" d="M909.58,-495.83C889.72,-472.77 855.56,-429.72 837,-387 806.4,-316.56 853.14,-274.38 801,-218 707.36,-116.74 287.47,-84.13 182,-173 116.09,-228.53 81.19,-522.56 75,-579.46"/>
<polygon fill="#63b8ff" stroke="#63b8ff" points="906.98,-498.17 916.2,-503.38 912.24,-493.56 906.98,-498.17"/>
</g>
<!-- Node10 -->
<g id="node10" class="node">
<title>Node10</title>
<g id="a_node10"><a xlink:href="structExampleAppConsole.html#a0518a09c7e8648dd52c7c06df19ac17a" target="_top" xlink:title=" ">
<polygon fill="white" stroke="#666666" points="571.5,-181.5 422.5,-181.5 422.5,-162.5 571.5,-162.5 571.5,-181.5"/>
<text text-anchor="middle" x="497" y="-169.5" font-family="Helvetica,sans-Serif" font-size="10.00">ExampleAppConsole::Draw</text>
</a>
</g>
</g>
<!-- Node9&#45;&gt;Node10 -->
<g id="edge10" class="edge">
<title>Node9&#45;&gt;Node10</title>
<path fill="none" stroke="#63b8ff" d="M911.38,-495.31C869.14,-441.66 734.14,-279.38 585,-196 573.79,-189.73 560.83,-185.01 548.4,-181.5"/>
<polygon fill="#63b8ff" stroke="#63b8ff" points="908.65,-497.5 917.56,-503.23 914.17,-493.19 908.65,-497.5"/>
</g>
<!-- Node12 -->
<g id="node12" class="node">
<title>Node12</title>
<g id="a_node12"><a xlink:href="namespaceImGui.html#a5479d93794a004c67ceb6d13f37c8254" target="_top" xlink:title=" ">
<polygon fill="white" stroke="#666666" points="746,-581.5 676,-581.5 676,-562.5 746,-562.5 746,-581.5"/>
<text text-anchor="middle" x="711" y="-569.5" font-family="Helvetica,sans-Serif" font-size="10.00">ImGui::End</text>
</a>
</g>
</g>
<!-- Node9&#45;&gt;Node12 -->
<g id="edge13" class="edge">
<title>Node9&#45;&gt;Node12</title>
<path fill="none" stroke="#63b8ff" d="M880.56,-525.31C840.62,-536.37 782.81,-552.39 746.33,-562.49"/>
<polygon fill="#63b8ff" stroke="#63b8ff" points="881.6,-528.65 890.3,-522.61 879.73,-521.91 881.6,-528.65"/>
</g>
<!-- Node23 -->
<g id="node23" class="node">
<title>Node23</title>
<g id="a_node23"><a xlink:href="namespaceImGui.html#ac297462e33309d0540fa459bccdc9304" target="_top" xlink:title=" ">
<polygon fill="white" stroke="#666666" points="570,-948.5 424,-948.5 424,-929.5 570,-929.5 570,-948.5"/>
<text text-anchor="middle" x="497" y="-936.5" font-family="Helvetica,sans-Serif" font-size="10.00">ImGui::ShowAboutWindow</text>
</a>
</g>
</g>
<!-- Node9&#45;&gt;Node23 -->
<g id="edge58" class="edge">
<title>Node9&#45;&gt;Node23</title>
<path fill="none" stroke="#63b8ff" d="M915.35,-531.77C880.69,-597.18 755.4,-816.71 585,-920 578.65,-923.85 571.63,-926.92 564.4,-929.37"/>
<polygon fill="#63b8ff" stroke="#63b8ff" points="918.6,-533.12 920.13,-522.64 912.39,-529.87 918.6,-533.12"/>
</g>
<!-- Node35 -->
<g id="node35" class="node">
<title>Node35</title>
<g id="a_node35"><a xlink:href="namespaceImGui.html#ab2eb3dec78d054fe3feab1c091ec5de5" target="_top" xlink:title=" ">
<polygon fill="white" stroke="#666666" points="776.5,-463.5 645.5,-463.5 645.5,-444.5 776.5,-444.5 776.5,-463.5"/>
<text text-anchor="middle" x="711" y="-451.5" font-family="Helvetica,sans-Serif" font-size="10.00">ImGui::ShowStyleEditor</text>
</a>
</g>
</g>
<!-- Node9&#45;&gt;Node35 -->
<g id="edge60" class="edge">
<title>Node9&#45;&gt;Node35</title>
<path fill="none" stroke="#63b8ff" d="M880.56,-500.69C840.62,-489.63 782.81,-473.61 746.33,-463.51"/>
<polygon fill="#63b8ff" stroke="#63b8ff" points="879.73,-504.09 890.3,-503.39 881.6,-497.35 879.73,-504.09"/>
</g>
<!-- Node11 -->
<g id="node11" class="node">
<title>Node11</title>
<g id="a_node11"><a xlink:href="imgui__demo_8cpp.html#a8e5624314ae6402dd0ddf2a62aa91473" target="_top" xlink:title=" ">
<polygon fill="white" stroke="#666666" points="349,-200.5 206,-200.5 206,-181.5 349,-181.5 349,-200.5"/>
<text text-anchor="middle" x="277.5" y="-188.5" font-family="Helvetica,sans-Serif" font-size="10.00">ShowExampleAppConsole</text>
</a>
</g>
</g>
<!-- Node10&#45;&gt;Node11 -->
<g id="edge11" class="edge">
<title>Node10&#45;&gt;Node11</title>
<path fill="none" stroke="#63b8ff" d="M412.25,-179.32C391.4,-181.14 369.26,-183.07 349.12,-184.83"/>
<polygon fill="#63b8ff" stroke="#63b8ff" points="412.71,-182.79 422.36,-178.43 412.1,-175.82 412.71,-182.79"/>
</g>
<!-- Node11&#45;&gt;Node5 -->
<g id="edge12" class="edge">
<title>Node11&#45;&gt;Node5</title>
<path fill="none" stroke="#63b8ff" d="M227.79,-204.11C211.29,-210.7 194.02,-220.29 182,-234 86.47,-343.02 75.44,-534.63 74.17,-579.44"/>
<polygon fill="#63b8ff" stroke="#63b8ff" points="229.2,-207.32 237.37,-200.58 226.78,-200.76 229.2,-207.32"/>
</g>
<!-- Node12&#45;&gt;Node3 -->
<g id="edge25" class="edge">
<title>Node12&#45;&gt;Node3</title>
<path fill="none" stroke="#63b8ff" d="M706.3,-591.75C692.55,-663.22 642.13,-906.79 585,-958 578.11,-964.18 569.67,-968.45 560.78,-971.37"/>
<polygon fill="#63b8ff" stroke="#63b8ff" points="709.76,-592.3 708.19,-581.82 702.89,-590.99 709.76,-592.3"/>
</g>
<!-- Node12&#45;&gt;Node4 -->
<g id="edge48" class="edge">
<title>Node12&#45;&gt;Node4</title>
<path fill="none" stroke="#63b8ff" d="M700.24,-590.77C672.48,-644.04 594.43,-792.83 585,-800 546.76,-829.07 416.57,-852.16 338.7,-863.78"/>
<polygon fill="#63b8ff" stroke="#63b8ff" points="703.44,-592.21 704.95,-581.72 697.23,-588.98 703.44,-592.21"/>
</g>
<!-- Node12&#45;&gt;Node5 -->
<g id="edge33" class="edge">
<title>Node12&#45;&gt;Node5</title>
<path fill="none" stroke="#63b8ff" d="M665.77,-564.06C641.93,-560.18 611.96,-555.93 585,-554 421.8,-542.31 229.22,-565.51 133.8,-579.48"/>
<polygon fill="#63b8ff" stroke="#63b8ff" points="665.48,-567.56 675.92,-565.75 666.63,-560.65 665.48,-567.56"/>
</g>
<!-- Node12&#45;&gt;Node10 -->
<g id="edge21" class="edge">
<title>Node12&#45;&gt;Node10</title>
<path fill="none" stroke="#63b8ff" d="M689.65,-555.95C668.64,-538.13 636.76,-507.3 621,-473 569.16,-360.19 666.43,-289.71 585,-196 579.55,-189.73 572.63,-185.03 565.08,-181.52"/>
<polygon fill="#63b8ff" stroke="#63b8ff" points="687.44,-558.67 697.38,-562.34 691.9,-553.28 687.44,-558.67"/>
</g>
<!-- Node13 -->
<g id="node13" class="node">
<title>Node13</title>
<g id="a_node13"><a xlink:href="namespaceIMGUIZMO__NAMESPACE.html#a7e79232f8e04ed9a9da0bda4ed3ca1c5" target="_top" xlink:title=" ">
<polygon fill="white" stroke="#666666" points="564.5,-893 429.5,-893 429.5,-863 564.5,-863 564.5,-893"/>
<text text-anchor="start" x="437.5" y="-881" font-family="Helvetica,sans-Serif" font-size="10.00">IMGUIZMO_NAMESPACE</text>
<text text-anchor="middle" x="497" y="-870" font-family="Helvetica,sans-Serif" font-size="10.00">::BeginFrame</text>
</a>
</g>
</g>
<!-- Node12&#45;&gt;Node13 -->
<g id="edge14" class="edge">
<title>Node12&#45;&gt;Node13</title>
<path fill="none" stroke="#63b8ff" d="M699.04,-590.2C681.11,-620.51 645.07,-683.56 621,-740 600.99,-786.93 621.03,-812.87 585,-849 579.15,-854.86 572.09,-859.54 564.55,-863.27"/>
<polygon fill="#63b8ff" stroke="#63b8ff" points="702.08,-591.95 704.19,-581.57 696.07,-588.36 702.08,-591.95"/>
</g>
<!-- Node14 -->
<g id="node14" class="node">
<title>Node14</title>
<g id="a_node14"><a xlink:href="imgui__demo_8cpp.html#acdabfa47af2ef5ba0a22b98a4368cc7d" target="_top" xlink:title=" ">
<polygon fill="white" stroke="#666666" points="336.5,-503.5 218.5,-503.5 218.5,-484.5 336.5,-484.5 336.5,-503.5"/>
<text text-anchor="middle" x="277.5" y="-491.5" font-family="Helvetica,sans-Serif" font-size="10.00">DemoWindowLayout</text>
</a>
</g>
</g>
<!-- Node12&#45;&gt;Node14 -->
<g id="edge16" class="edge">
<title>Node12&#45;&gt;Node14</title>
<path fill="none" stroke="#63b8ff" d="M682.84,-557.81C658.06,-545.57 620.07,-528.56 585,-520 500.31,-499.33 398.99,-494.45 336.69,-493.62"/>
<polygon fill="#63b8ff" stroke="#63b8ff" points="681.46,-561.03 691.97,-562.4 684.61,-554.78 681.46,-561.03"/>
</g>
<!-- Node15 -->
<g id="node15" class="node">
<title>Node15</title>
<g id="a_node15"><a xlink:href="imgui__demo_8cpp.html#a5de91117986b51cfb587630d6ff46205" target="_top" xlink:title=" ">
<polygon fill="white" stroke="#666666" points="581.5,-468 412.5,-468 412.5,-438 581.5,-438 581.5,-468"/>
<text text-anchor="start" x="420.5" y="-456" font-family="Helvetica,sans-Serif" font-size="10.00">DemoWindowWidgetsQuerying</text>
<text text-anchor="middle" x="497" y="-445" font-family="Helvetica,sans-Serif" font-size="10.00">Statuses</text>
</a>
</g>
</g>
<!-- Node12&#45;&gt;Node15 -->
<g id="edge18" class="edge">
<title>Node12&#45;&gt;Node15</title>
<path fill="none" stroke="#63b8ff" d="M691.27,-555.71C667.81,-535.99 625.71,-502.83 585,-482 574.65,-476.71 563.13,-472.07 551.95,-468.16"/>
<polygon fill="#63b8ff" stroke="#63b8ff" points="689.16,-558.5 699.04,-562.32 693.69,-553.17 689.16,-558.5"/>
</g>
<!-- Node17 -->
<g id="node17" class="node">
<title>Node17</title>
<g id="a_node17"><a xlink:href="structExampleAssetsBrowser.html#a2b36e1f9b7d764e547611baa4c7fd8d1" target="_top" xlink:title=" ">
<polygon fill="white" stroke="#666666" points="562.5,-420 431.5,-420 431.5,-390 562.5,-390 562.5,-420"/>
<text text-anchor="start" x="439.5" y="-408" font-family="Helvetica,sans-Serif" font-size="10.00">ExampleAssetsBrowser</text>
<text text-anchor="middle" x="497" y="-397" font-family="Helvetica,sans-Serif" font-size="10.00">::Draw</text>
</a>
</g>
</g>
<!-- Node12&#45;&gt;Node17 -->
<g id="edge22" class="edge">
<title>Node12&#45;&gt;Node17</title>
<path fill="none" stroke="#63b8ff" d="M694.08,-554.78C676.08,-535.2 646.02,-502.16 621,-473 604.55,-453.82 606.17,-442.79 585,-429 578.17,-424.55 570.53,-420.92 562.68,-417.96"/>
<polygon fill="#63b8ff" stroke="#63b8ff" points="691.65,-557.32 701,-562.3 696.8,-552.57 691.65,-557.32"/>
</g>
<!-- Node19 -->
<g id="node19" class="node">
<title>Node19</title>
<g id="a_node19"><a xlink:href="classmtgb_1_1ImGuiRenderer.html#a725b57c53e525ab8e63e305f7898bae4" target="_top" xlink:title=" ">
<polygon fill="white" stroke="#666666" points="570,-105.5 424,-105.5 424,-86.5 570,-86.5 570,-105.5"/>
<text text-anchor="middle" x="497" y="-93.5" font-family="Helvetica,sans-Serif" font-size="10.00">mtgb::ImGuiRenderer::End</text>
</a>
</g>
</g>
<!-- Node12&#45;&gt;Node19 -->
<g id="edge26" class="edge">
<title>Node12&#45;&gt;Node19</title>
<path fill="none" stroke="#63b8ff" d="M689.53,-556.01C668.43,-538.22 636.47,-507.43 621,-473 562.52,-342.86 659.28,-275.82 585,-154 570.82,-130.75 543.39,-114.83 523.1,-105.64"/>
<polygon fill="#63b8ff" stroke="#63b8ff" points="687.35,-558.74 697.3,-562.38 691.79,-553.33 687.35,-558.74"/>
</g>
<!-- Node20 -->
<g id="node20" class="node">
<title>Node20</title>
<g id="a_node20"><a xlink:href="classmtgb_1_1MTImGui.html#a0ebe89de7aaa854c37e842ed796efb99" target="_top" xlink:title=" ">
<polygon fill="white" stroke="#666666" points="348.5,-105.5 206.5,-105.5 206.5,-86.5 348.5,-86.5 348.5,-105.5"/>
<text text-anchor="middle" x="277.5" y="-93.5" font-family="Helvetica,sans-Serif" font-size="10.00">mtgb::MTImGui::ShowLog</text>
</a>
</g>
</g>
<!-- Node12&#45;&gt;Node20 -->
<g id="edge57" class="edge">
<title>Node12&#45;&gt;Node20</title>
<path fill="none" stroke="#63b8ff" d="M689.62,-555.6C668.81,-537.64 637.31,-506.85 621,-473 578.94,-385.72 646.41,-332.94 585,-258 531.95,-193.26 482.59,-230.87 409,-191 361.44,-165.24 311.42,-124.32 289.68,-105.75"/>
<polygon fill="#63b8ff" stroke="#63b8ff" points="687.64,-558.51 697.54,-562.27 692.14,-553.15 687.64,-558.51"/>
</g>
<!-- Node12&#45;&gt;Node23 -->
<g id="edge31" class="edge">
<title>Node12&#45;&gt;Node23</title>
<path fill="none" stroke="#63b8ff" d="M697.98,-590.34C678.84,-620.37 641.49,-682.49 621,-740 593.62,-816.85 642.18,-861.81 585,-920 580.67,-924.41 575.56,-927.91 570.04,-930.67"/>
<polygon fill="#63b8ff" stroke="#63b8ff" points="701.04,-592.06 703.51,-581.76 695.15,-588.26 701.04,-592.06"/>
</g>
<!-- Node24 -->
<g id="node24" class="node">
<title>Node24</title>
<g id="a_node24"><a xlink:href="imgui__demo_8cpp.html#a38c9b50749061ff83a0ebf3137c00174" target="_top" xlink:title=" ">
<polygon fill="white" stroke="#666666" points="357,-390.5 198,-390.5 198,-371.5 357,-371.5 357,-390.5"/>
<text text-anchor="middle" x="277.5" y="-378.5" font-family="Helvetica,sans-Serif" font-size="10.00">ShowExampleAppAutoResize</text>
</a>
</g>
</g>
<!-- Node12&#45;&gt;Node24 -->
<g id="edge34" class="edge">
<title>Node12&#45;&gt;Node24</title>
<path fill="none" stroke="#63b8ff" d="M691.61,-555.45C671.96,-536.95 640.94,-505.33 621,-473 597.95,-435.63 621.27,-405.75 585,-381 548.96,-356.4 433.31,-363.32 354.84,-371.47"/>
<polygon fill="#63b8ff" stroke="#63b8ff" points="689.32,-558.09 699.03,-562.32 694.07,-552.96 689.32,-558.09"/>
</g>
<!-- Node25 -->
<g id="node25" class="node">
<title>Node25</title>
<g id="a_node25"><a xlink:href="imgui__demo_8cpp.html#a4f7b0b016c2ffd33836c3bdcf78ed97b" target="_top" xlink:title=" ">
<polygon fill="white" stroke="#666666" points="359,-350 196,-350 196,-320 359,-320 359,-350"/>
<text text-anchor="start" x="204" y="-338" font-family="Helvetica,sans-Serif" font-size="10.00">ShowExampleAppConstrained</text>
<text text-anchor="middle" x="277.5" y="-327" font-family="Helvetica,sans-Serif" font-size="10.00">Resize</text>
</a>
</g>
</g>
<!-- Node12&#45;&gt;Node25 -->
<g id="edge36" class="edge">
<title>Node12&#45;&gt;Node25</title>
<path fill="none" stroke="#63b8ff" d="M691.19,-555.7C671.18,-537.42 639.84,-505.98 621,-473 594.64,-426.87 626.6,-392.06 585,-359 518.56,-306.2 416.42,-309.73 348.55,-319.98"/>
<polygon fill="#63b8ff" stroke="#63b8ff" points="688.98,-558.42 698.76,-562.48 693.65,-553.2 688.98,-558.42"/>
</g>
<!-- Node26 -->
<g id="node26" class="node">
<title>Node26</title>
<g id="a_node26"><a xlink:href="imgui__demo_8cpp.html#a0729207a285af6ef57ce5a31d1a60348" target="_top" xlink:title=" ">
<polygon fill="white" stroke="#666666" points="373,-296.5 182,-296.5 182,-277.5 373,-277.5 373,-296.5"/>
<text text-anchor="middle" x="277.5" y="-284.5" font-family="Helvetica,sans-Serif" font-size="10.00">ShowExampleAppCustomRendering</text>
</a>
</g>
</g>
<!-- Node12&#45;&gt;Node26 -->
<g id="edge38" class="edge">
<title>Node12&#45;&gt;Node26</title>
<path fill="none" stroke="#63b8ff" d="M690.29,-555.72C669.76,-537.67 638.25,-506.61 621,-473 586.93,-406.61 641.44,-357.82 585,-309 508.34,-242.68 376.64,-262.69 313.83,-277.41"/>
<polygon fill="#63b8ff" stroke="#63b8ff" points="688.21,-558.56 698.08,-562.42 692.78,-553.25 688.21,-558.56"/>
</g>
<!-- Node27 -->
<g id="node27" class="node">
<title>Node27</title>
<g id="a_node27"><a xlink:href="imgui__demo_8cpp.html#ae18f1dc3d5298b314080b35f6c20d781" target="_top" xlink:title=" ">
<polygon fill="white" stroke="#666666" points="356.5,-805.5 198.5,-805.5 198.5,-786.5 356.5,-786.5 356.5,-805.5"/>
<text text-anchor="middle" x="277.5" y="-793.5" font-family="Helvetica,sans-Serif" font-size="10.00">ShowExampleAppDockSpace</text>
</a>
</g>
</g>
<!-- Node12&#45;&gt;Node27 -->
<g id="edge40" class="edge">
<title>Node12&#45;&gt;Node27</title>
<path fill="none" stroke="#63b8ff" d="M703.82,-591.53C689.93,-631.86 652.09,-724.01 585,-765 514.26,-808.22 416.82,-810.47 350.95,-805.51"/>
<polygon fill="#63b8ff" stroke="#63b8ff" points="707.22,-592.42 707.04,-581.82 700.57,-590.21 707.22,-592.42"/>
</g>
<!-- Node28 -->
<g id="node28" class="node">
<title>Node28</title>
<g id="a_node28"><a xlink:href="imgui__demo_8cpp.html#aa9e4f5130b74080ea2d97916a91b3b3c" target="_top" xlink:title=" ">
<polygon fill="white" stroke="#666666" points="357.5,-768.5 197.5,-768.5 197.5,-749.5 357.5,-749.5 357.5,-768.5"/>
<text text-anchor="middle" x="277.5" y="-756.5" font-family="Helvetica,sans-Serif" font-size="10.00">ShowExampleAppDocuments</text>
</a>
</g>
</g>
<!-- Node12&#45;&gt;Node28 -->
<g id="edge42" class="edge">
<title>Node12&#45;&gt;Node28</title>
<path fill="none" stroke="#63b8ff" d="M701.63,-590.92C685.06,-625.81 644.48,-699.68 585,-732 514.01,-770.57 419.91,-772.99 354.8,-768.51"/>
<polygon fill="#63b8ff" stroke="#63b8ff" points="704.82,-592.35 705.83,-581.8 698.47,-589.42 704.82,-592.35"/>
</g>
<!-- Node29 -->
<g id="node29" class="node">
<title>Node29</title>
<g id="a_node29"><a xlink:href="imgui__demo_8cpp.html#a2f38052447680c83c0028e4f21f0a2e6" target="_top" xlink:title=" ">
<polygon fill="white" stroke="#666666" points="354.5,-731.5 200.5,-731.5 200.5,-712.5 354.5,-712.5 354.5,-731.5"/>
<text text-anchor="middle" x="277.5" y="-719.5" font-family="Helvetica,sans-Serif" font-size="10.00">ShowExampleAppFullscreen</text>
</a>
</g>
</g>
<!-- Node12&#45;&gt;Node29 -->
<g id="edge44" class="edge">
<title>Node12&#45;&gt;Node29</title>
<path fill="none" stroke="#63b8ff" d="M698.88,-590.39C679.81,-620.02 637.78,-677.47 585,-702 510.65,-736.56 415.05,-736.82 350.55,-731.52"/>
<polygon fill="#63b8ff" stroke="#63b8ff" points="701.91,-592.16 704.25,-581.83 695.97,-588.44 701.91,-592.16"/>
</g>
<!-- Node30 -->
<g id="node30" class="node">
<title>Node30</title>
<g id="a_node30"><a xlink:href="imgui__demo_8cpp.html#adfe8516f13b623adbf78b024efd5bb6e" target="_top" xlink:title=" ">
<polygon fill="white" stroke="#666666" points="565.5,-692.5 428.5,-692.5 428.5,-673.5 565.5,-673.5 565.5,-692.5"/>
<text text-anchor="middle" x="497" y="-680.5" font-family="Helvetica,sans-Serif" font-size="10.00">ShowExampleAppLayout</text>
</a>
</g>
</g>
<!-- Node12&#45;&gt;Node30 -->
<g id="edge46" class="edge">
<title>Node12&#45;&gt;Node30</title>
<path fill="none" stroke="#63b8ff" d="M692.83,-588.7C670.1,-609.83 627.86,-645.77 585,-665 577.4,-668.41 569.14,-671.18 560.83,-673.43"/>
<polygon fill="#63b8ff" stroke="#63b8ff" points="695.43,-591.06 700.29,-581.65 690.62,-585.98 695.43,-591.06"/>
</g>
<!-- Node12&#45;&gt;Node31 -->
<g id="edge49" class="edge">
<title>Node12&#45;&gt;Node31</title>
<path fill="none" stroke="#63b8ff" d="M706.91,-591.65C694.63,-667.25 646.91,-938.04 585,-995 580.91,-998.76 576.26,-1001.82 571.27,-1004.3"/>
<polygon fill="#63b8ff" stroke="#63b8ff" points="710.39,-592.03 708.52,-581.6 703.48,-590.92 710.39,-592.03"/>
</g>
<!-- Node32 -->
<g id="node32" class="node">
<title>Node32</title>
<g id="a_node32"><a xlink:href="imgui__demo_8cpp.html#a746628697dff9d8d5e352436c96633c9" target="_top" xlink:title=" ">
<polygon fill="white" stroke="#666666" points="584,-655.5 410,-655.5 410,-636.5 584,-636.5 584,-655.5"/>
<text text-anchor="middle" x="497" y="-643.5" font-family="Helvetica,sans-Serif" font-size="10.00">ShowExampleAppPropertyEditor</text>
</a>
</g>
</g>
<!-- Node12&#45;&gt;Node32 -->
<g id="edge51" class="edge">
<title>Node12&#45;&gt;Node32</title>
<path fill="none" stroke="#63b8ff" d="M682.69,-586.32C657.81,-598.85 619.76,-616.77 585,-628 574.87,-631.27 563.89,-634.09 553.24,-636.46"/>
<polygon fill="#63b8ff" stroke="#63b8ff" points="684.54,-589.3 691.86,-581.64 681.36,-583.07 684.54,-589.3"/>
</g>
<!-- Node33 -->
<g id="node33" class="node">
<title>Node33</title>
<g id="a_node33"><a xlink:href="imgui__demo_8cpp.html#a41a6cb36f6ad91f80eba61b0053d17a5" target="_top" xlink:title=" ">
<polygon fill="white" stroke="#666666" points="585,-618.5 409,-618.5 409,-599.5 585,-599.5 585,-618.5"/>
<text text-anchor="middle" x="497" y="-606.5" font-family="Helvetica,sans-Serif" font-size="10.00">ShowExampleAppSimpleOverlay</text>
</a>
</g>
</g>
<!-- Node12&#45;&gt;Node33 -->
<g id="edge53" class="edge">
<title>Node12&#45;&gt;Node33</title>
<path fill="none" stroke="#63b8ff" d="M665.72,-579.73C632.83,-585.47 587.78,-593.33 552.66,-599.46"/>
<polygon fill="#63b8ff" stroke="#63b8ff" points="666.69,-583.11 675.94,-577.94 665.49,-576.22 666.69,-583.11"/>
</g>
<!-- Node34 -->
<g id="node34" class="node">
<title>Node34</title>
<g id="a_node34"><a xlink:href="imgui__demo_8cpp.html#aa93cc0d732db176bbffaf106faaa0ca1" target="_top" xlink:title=" ">
<polygon fill="white" stroke="#666666" points="582,-581.5 412,-581.5 412,-562.5 582,-562.5 582,-581.5"/>
<text text-anchor="middle" x="497" y="-569.5" font-family="Helvetica,sans-Serif" font-size="10.00">ShowExampleAppWindowTitles</text>
</a>
</g>
</g>
<!-- Node12&#45;&gt;Node34 -->
<g id="edge55" class="edge">
<title>Node12&#45;&gt;Node34</title>
<path fill="none" stroke="#63b8ff" d="M665.67,-572C641.52,-572 610.82,-572 582.3,-572"/>
<polygon fill="#63b8ff" stroke="#63b8ff" points="665.94,-575.5 675.94,-572 665.94,-568.5 665.94,-575.5"/>
</g>
<!-- Node13&#45;&gt;Node13 -->
<g id="edge15" class="edge">
<title>Node13&#45;&gt;Node13</title>
<path fill="none" stroke="#63b8ff" d="M534.46,-903.6C529.34,-907.97 516.85,-911 497,-911 463.56,-911 451.02,-902.41 459.38,-893.28"/>
<polygon fill="#63b8ff" stroke="#63b8ff" points="537.96,-903.33 534.62,-893.28 530.96,-903.22 537.96,-903.33"/>
</g>
<!-- Node14&#45;&gt;Node5 -->
<g id="edge17" class="edge">
<title>Node14&#45;&gt;Node5</title>
<path fill="none" stroke="#63b8ff" d="M215.92,-506.19C204.42,-509.39 192.66,-513.3 182,-518 144.22,-534.65 104.96,-564.05 85.86,-579.26"/>
<polygon fill="#63b8ff" stroke="#63b8ff" points="217.14,-509.49 225.92,-503.56 215.36,-502.72 217.14,-509.49"/>
</g>
<!-- Node16 -->
<g id="node16" class="node">
<title>Node16</title>
<g id="a_node16"><a xlink:href="imgui__demo_8cpp.html#a9a639caab781642cbc4f4a23bfbd11cd" target="_top" xlink:title=" ">
<polygon fill="white" stroke="#666666" points="340,-466.5 215,-466.5 215,-447.5 340,-447.5 340,-466.5"/>
<text text-anchor="middle" x="277.5" y="-454.5" font-family="Helvetica,sans-Serif" font-size="10.00">DemoWindowWidgets</text>
</a>
</g>
</g>
<!-- Node15&#45;&gt;Node16 -->
<g id="edge19" class="edge">
<title>Node15&#45;&gt;Node16</title>
<path fill="none" stroke="#63b8ff" d="M402.04,-454.73C381.14,-455.11 359.5,-455.51 340.29,-455.86"/>
<polygon fill="#63b8ff" stroke="#63b8ff" points="402.29,-458.22 412.22,-454.54 402.16,-451.23 402.29,-458.22"/>
</g>
<!-- Node16&#45;&gt;Node5 -->
<g id="edge20" class="edge">
<title>Node16&#45;&gt;Node5</title>
<path fill="none" stroke="#63b8ff" d="M204.83,-466.52C196.87,-468.99 189.09,-472.1 182,-476 134.22,-502.3 94.89,-556.96 80.2,-579.24"/>
<polygon fill="#63b8ff" stroke="#63b8ff" points="205.89,-469.86 214.59,-463.81 204.02,-463.11 205.89,-469.86"/>
</g>
<!-- Node18 -->
<g id="node18" class="node">
<title>Node18</title>
<g id="a_node18"><a xlink:href="imgui__demo_8cpp.html#a83fdfc359b5a0432835090acd227690f" target="_top" xlink:title=" ">
<polygon fill="white" stroke="#666666" points="365.5,-428.5 189.5,-428.5 189.5,-409.5 365.5,-409.5 365.5,-428.5"/>
<text text-anchor="middle" x="277.5" y="-416.5" font-family="Helvetica,sans-Serif" font-size="10.00">ShowExampleAppAssetsBrowser</text>
</a>
</g>
</g>
<!-- Node17&#45;&gt;Node18 -->
<g id="edge23" class="edge">
<title>Node17&#45;&gt;Node18</title>
<path fill="none" stroke="#63b8ff" d="M421.04,-409.83C403.26,-410.97 384.15,-412.2 365.87,-413.38"/>
<polygon fill="#63b8ff" stroke="#63b8ff" points="421.58,-413.3 431.33,-409.16 421.13,-406.31 421.58,-413.3"/>
</g>
<!-- Node18&#45;&gt;Node5 -->
<g id="edge24" class="edge">
<title>Node18&#45;&gt;Node5</title>
<path fill="none" stroke="#63b8ff" d="M194.12,-432.41C189.89,-434.33 185.82,-436.51 182,-439 125.82,-475.62 89.39,-552.43 77.9,-579.39"/>
<polygon fill="#63b8ff" stroke="#63b8ff" points="195.6,-435.58 203.59,-428.62 193,-429.08 195.6,-435.58"/>
</g>
<!-- Node19&#45;&gt;Node20 -->
<g id="edge27" class="edge">
<title>Node19&#45;&gt;Node20</title>
<path fill="none" stroke="#63b8ff" d="M413.8,-96C392.32,-96 369.36,-96 348.58,-96"/>
<polygon fill="#63b8ff" stroke="#63b8ff" points="413.88,-99.5 423.88,-96 413.88,-92.5 413.88,-99.5"/>
</g>
<!-- Node22 -->
<g id="node22" class="node">
<title>Node22</title>
<g id="a_node22"><a xlink:href="classmtgb_1_1MTImGui.html#aba6310f01ca3716db9817ef459b605f6" target="_top" xlink:title="ImGuiウィンドウの表示、キュー内の表示関数の一括実行、ImGuiウィンドウのEnd()までを行う">
<polygon fill="white" stroke="#666666" points="359.5,-68.5 195.5,-68.5 195.5,-49.5 359.5,-49.5 359.5,-68.5"/>
<text text-anchor="middle" x="277.5" y="-56.5" font-family="Helvetica,sans-Serif" font-size="10.00">mtgb::MTImGui::ShowWindow</text>
</a>
</g>
</g>
<!-- Node19&#45;&gt;Node22 -->
<g id="edge29" class="edge">
<title>Node19&#45;&gt;Node22</title>
<path fill="none" stroke="#63b8ff" d="M429.9,-84.75C399.49,-79.58 363.79,-73.51 334.7,-68.56"/>
<polygon fill="#63b8ff" stroke="#63b8ff" points="429.54,-88.24 439.99,-86.47 430.72,-81.34 429.54,-88.24"/>
</g>
<!-- Node21 -->
<g id="node21" class="node">
<title>Node21</title>
<g id="a_node21"><a xlink:href="classmtgb_1_1RenderSystem.html#a14e39d4590efdf77c2085b12c6f3cdf5" target="_top" xlink:title=" ">
<polygon fill="white" stroke="#666666" points="138.5,-74 7.5,-74 7.5,-44 138.5,-44 138.5,-74"/>
<text text-anchor="start" x="15.5" y="-62" font-family="Helvetica,sans-Serif" font-size="10.00">mtgb::RenderSystem</text>
<text text-anchor="middle" x="73" y="-51" font-family="Helvetica,sans-Serif" font-size="10.00">::RenderImGuiWindows</text>
</a>
</g>
</g>
<!-- Node20&#45;&gt;Node21 -->
<g id="edge28" class="edge">
<title>Node20&#45;&gt;Node21</title>
<path fill="none" stroke="#63b8ff" d="M214.3,-84.64C190.31,-80.25 162.87,-75.24 138.65,-70.81"/>
<polygon fill="#63b8ff" stroke="#63b8ff" points="213.88,-88.12 224.35,-86.47 215.14,-81.23 213.88,-88.12"/>
</g>
<!-- Node22&#45;&gt;Node21 -->
<g id="edge30" class="edge">
<title>Node22&#45;&gt;Node21</title>
<path fill="none" stroke="#63b8ff" d="M185.08,-59C169.44,-59 153.47,-59 138.71,-59"/>
<polygon fill="#63b8ff" stroke="#63b8ff" points="185.3,-62.5 195.3,-59 185.3,-55.5 185.3,-62.5"/>
</g>
<!-- Node23&#45;&gt;Node5 -->
<g id="edge32" class="edge">
<title>Node23&#45;&gt;Node5</title>
<path fill="none" stroke="#63b8ff" d="M416.5,-924.88C413.89,-923.4 411.38,-921.78 409,-920 382.26,-899.96 399.87,-873.86 373,-854 303.32,-802.51 250.27,-868.34 182,-815 107.3,-756.64 81.51,-633.79 75.49,-598.6"/>
<polygon fill="#63b8ff" stroke="#63b8ff" points="415.19,-928.13 425.71,-929.35 418.24,-921.84 415.19,-928.13"/>
</g>
<!-- Node24&#45;&gt;Node5 -->
<g id="edge35" class="edge">
<title>Node24&#45;&gt;Node5</title>
<path fill="none" stroke="#63b8ff" d="M191.83,-394.94C188.4,-396.74 185.1,-398.75 182,-401 116.86,-448.39 85.16,-547.92 76.51,-579.31"/>
<polygon fill="#63b8ff" stroke="#63b8ff" points="193.55,-398.01 201.21,-390.69 190.66,-391.63 193.55,-398.01"/>
</g>
<!-- Node25&#45;&gt;Node5 -->
<g id="edge37" class="edge">
<title>Node25&#45;&gt;Node5</title>
<path fill="none" stroke="#63b8ff" d="M193.44,-354.89C189.39,-357.29 185.54,-359.98 182,-363 110.22,-424.26 82.53,-544.05 75.76,-579.13"/>
<polygon fill="#63b8ff" stroke="#63b8ff" points="195.39,-357.82 202.62,-350.08 192.14,-351.62 195.39,-357.82"/>
</g>
<!-- Node26&#45;&gt;Node5 -->
<g id="edge39" class="edge">
<title>Node26&#45;&gt;Node5</title>
<path fill="none" stroke="#63b8ff" d="M197.13,-300.79C191.68,-303.61 186.55,-306.98 182,-311 96.12,-387.01 78,-539.61 74.68,-579.36"/>
<polygon fill="#63b8ff" stroke="#63b8ff" points="198.89,-303.84 206.59,-296.55 196.03,-297.45 198.89,-303.84"/>
</g>
<!-- Node27&#45;&gt;Node5 -->
<g id="edge41" class="edge">
<title>Node27&#45;&gt;Node5</title>
<path fill="none" stroke="#63b8ff" d="M189.13,-782.48C186.66,-781.12 184.28,-779.63 182,-778 116.17,-731.01 84.93,-630.51 76.45,-598.8"/>
<polygon fill="#63b8ff" stroke="#63b8ff" points="187.86,-785.75 198.39,-786.9 190.88,-779.44 187.86,-785.75"/>
</g>
<!-- Node28&#45;&gt;Node5 -->
<g id="edge43" class="edge">
<title>Node28&#45;&gt;Node5</title>
<path fill="none" stroke="#63b8ff" d="M189.6,-745.32C186.98,-744 184.44,-742.56 182,-741 125.06,-704.45 89.11,-626.27 77.83,-598.79"/>
<polygon fill="#63b8ff" stroke="#63b8ff" points="188.21,-748.53 198.77,-749.35 191.02,-742.12 188.21,-748.53"/>
</g>
<!-- Node29&#45;&gt;Node5 -->
<g id="edge45" class="edge">
<title>Node29&#45;&gt;Node5</title>
<path fill="none" stroke="#63b8ff" d="M208.49,-709.5C199.27,-706.45 190.18,-702.68 182,-698 135.75,-671.56 95.85,-619.9 80.6,-598.57"/>
<polygon fill="#63b8ff" stroke="#63b8ff" points="207.52,-712.87 218.11,-712.42 209.56,-706.17 207.52,-712.87"/>
</g>
<!-- Node30&#45;&gt;Node5 -->
<g id="edge47" class="edge">
<title>Node30&#45;&gt;Node5</title>
<path fill="none" stroke="#63b8ff" d="M418.34,-677.55C354.02,-671.64 260.74,-659.8 182,-637 148.69,-627.36 112.29,-609.53 91.4,-598.52"/>
<polygon fill="#63b8ff" stroke="#63b8ff" points="418.14,-681.05 428.41,-678.45 418.76,-674.07 418.14,-681.05"/>
</g>
<!-- Node31&#45;&gt;Node5 -->
<g id="edge50" class="edge">
<title>Node31&#45;&gt;Node5</title>
<path fill="none" stroke="#63b8ff" d="M413.09,-1001.53C342.18,-987.44 242.29,-956.72 182,-891 98.44,-799.91 78.59,-639.7 74.79,-598.75"/>
<polygon fill="#63b8ff" stroke="#63b8ff" points="412.85,-1005.05 423.33,-1003.49 414.17,-998.17 412.85,-1005.05"/>
</g>
<!-- Node32&#45;&gt;Node5 -->
<g id="edge52" class="edge">
<title>Node32&#45;&gt;Node5</title>
<path fill="none" stroke="#63b8ff" d="M399.52,-638.12C337.23,-632.4 254.57,-623.63 182,-612 159.38,-608.38 134.34,-603.12 114.08,-598.55"/>
<polygon fill="#63b8ff" stroke="#63b8ff" points="399.45,-641.63 409.72,-639.04 400.08,-634.65 399.45,-641.63"/>
</g>
<!-- Node33&#45;&gt;Node5 -->
<g id="edge54" class="edge">
<title>Node33&#45;&gt;Node5</title>
<path fill="none" stroke="#63b8ff" d="M398.63,-604.39C321.66,-600.74 215.93,-595.73 146.34,-592.43"/>
<polygon fill="#63b8ff" stroke="#63b8ff" points="398.66,-607.89 408.82,-604.87 398.99,-600.9 398.66,-607.89"/>
</g>
<!-- Node34&#45;&gt;Node5 -->
<g id="edge56" class="edge">
<title>Node34&#45;&gt;Node5</title>
<path fill="none" stroke="#63b8ff" d="M401.65,-575.8C324.33,-578.92 216.55,-583.26 146.04,-586.1"/>
<polygon fill="#63b8ff" stroke="#63b8ff" points="402.02,-579.29 411.87,-575.39 401.74,-572.29 402.02,-579.29"/>
</g>
<!-- Node35&#45;&gt;Node5 -->
<g id="edge61" class="edge">
<title>Node35&#45;&gt;Node5</title>
<path fill="none" stroke="#63b8ff" d="M698.71,-435.64C669.67,-388.57 594.02,-266.89 585,-262 554.54,-245.48 194.9,-259.43 182,-269 76.26,-347.41 72.92,-534.39 73.7,-579.22"/>
<polygon fill="#63b8ff" stroke="#63b8ff" points="695.79,-437.57 704.01,-444.25 701.75,-433.9 695.79,-437.57"/>
</g>
<!-- Node36&#45;&gt;Node5 -->
<g id="edge63" class="edge">
<title>Node36&#45;&gt;Node5</title>
<path fill="none" stroke="#63b8ff" d="M886.06,-1081.47C762.61,-1118.3 376.7,-1212.28 182,-1017 119.51,-954.32 81.86,-656.27 75.1,-598.65"/>
<polygon fill="#63b8ff" stroke="#63b8ff" points="887.28,-1084.75 895.84,-1078.51 885.25,-1078.06 887.28,-1084.75"/>
</g>
<!-- Node36&#45;&gt;Node8 -->
<g id="edge64" class="edge">
<title>Node36&#45;&gt;Node8</title>
<path fill="none" stroke="#63b8ff" d="M832.64,-1061.2C817.64,-1059.93 802.26,-1058.63 787.72,-1057.4"/>
<polygon fill="#63b8ff" stroke="#63b8ff" points="832.69,-1064.71 842.95,-1062.07 833.28,-1057.74 832.69,-1064.71"/>
</g>
<!-- Node38 -->
<g id="node38" class="node">
<title>Node38</title>
<g id="a_node38"><a xlink:href="namespaceImGui.html#ab9132deece575023170cd8e681d0581d" target="_top" xlink:title=" ">
<polygon fill="white" stroke="#666666" points="775,-35.5 647,-35.5 647,-16.5 775,-16.5 775,-35.5"/>
<text text-anchor="middle" x="711" y="-23.5" font-family="Helvetica,sans-Serif" font-size="10.00">ImGui::DestroyContext</text>
</a>
</g>
</g>
<!-- Node37&#45;&gt;Node38 -->
<g id="edge67" class="edge">
<title>Node37&#45;&gt;Node38</title>
<path fill="none" stroke="#63b8ff" d="M890.25,-93.79C847.3,-77.45 775.25,-50.05 737.24,-35.6"/>
<polygon fill="#63b8ff" stroke="#63b8ff" points="889.14,-97.11 899.73,-97.39 891.63,-90.56 889.14,-97.11"/>
</g>
<!-- Node39 -->
<g id="node39" class="node">
<title>Node39</title>
<g id="a_node39"><a xlink:href="classmtgb_1_1ImGuiRenderer.html#a9ef4f353cce28e09af4b18d95f4a253b" target="_top" xlink:title="開放処理">
<polygon fill="white" stroke="#666666" points="558,-30 436,-30 436,0 558,0 558,-30"/>
<text text-anchor="start" x="444" y="-18" font-family="Helvetica,sans-Serif" font-size="10.00">mtgb::ImGuiRenderer</text>
<text text-anchor="middle" x="497" y="-7" font-family="Helvetica,sans-Serif" font-size="10.00">::Release</text>
</a>
</g>
</g>
<!-- Node38&#45;&gt;Node39 -->
<g id="edge68" class="edge">
<title>Node38&#45;&gt;Node39</title>
<path fill="none" stroke="#63b8ff" d="M636.91,-22.21C611.25,-20.88 582.73,-19.4 558.24,-18.13"/>
<polygon fill="#63b8ff" stroke="#63b8ff" points="636.8,-25.71 646.97,-22.73 637.16,-18.72 636.8,-25.71"/>
</g>
<!-- Node41 -->
<g id="node41" class="node">
<title>Node41</title>
<g id="a_node41"><a xlink:href="namespaceImGui.html#ab3f1fc018f903b7ad79fd10663375774" target="_top" xlink:title=" ">
<polygon fill="white" stroke="#666666" points="763,-94.5 659,-94.5 659,-75.5 763,-75.5 763,-94.5"/>
<text text-anchor="middle" x="711" y="-82.5" font-family="Helvetica,sans-Serif" font-size="10.00">ImGui::NewFrame</text>
</a>
</g>
</g>
<!-- Node40&#45;&gt;Node41 -->
<g id="edge70" class="edge">
<title>Node40&#45;&gt;Node41</title>
<path fill="none" stroke="#63b8ff" d="M918.73,-338.19C905.26,-289.73 869.14,-181.82 801,-120 787.84,-108.06 770.14,-99.99 753.98,-94.64"/>
<polygon fill="#63b8ff" stroke="#63b8ff" points="915.35,-339.11 921.33,-347.86 922.11,-337.29 915.35,-339.11"/>
</g>
<!-- Node42 -->
<g id="node42" class="node">
<title>Node42</title>
<g id="a_node42"><a xlink:href="classmtgb_1_1ImGuiRenderer.html#a4684d4374beee1f52053b4634edae2c8" target="_top" xlink:title=" ">
<polygon fill="white" stroke="#666666" points="338.5,-31 216.5,-31 216.5,-1 338.5,-1 338.5,-31"/>
<text text-anchor="start" x="224.5" y="-19" font-family="Helvetica,sans-Serif" font-size="10.00">mtgb::ImGuiRenderer</text>
<text text-anchor="middle" x="277.5" y="-8" font-family="Helvetica,sans-Serif" font-size="10.00">::BeginFrame</text>
</a>
</g>
</g>
<!-- Node41&#45;&gt;Node42 -->
<g id="edge71" class="edge">
<title>Node41&#45;&gt;Node42</title>
<path fill="none" stroke="#63b8ff" d="M648.61,-76.04C587.74,-67.05 491.84,-52.63 409,-39 385.96,-35.21 360.67,-30.81 338.55,-26.88"/>
<polygon fill="#63b8ff" stroke="#63b8ff" points="648.41,-79.55 658.82,-77.54 649.43,-72.62 648.41,-79.55"/>
</g>
<!-- Node42&#45;&gt;Node21 -->
<g id="edge72" class="edge">
<title>Node42&#45;&gt;Node21</title>
<path fill="none" stroke="#63b8ff" d="M206.35,-30.9C184.34,-35.57 160.16,-40.7 138.56,-45.29"/>
<polygon fill="#63b8ff" stroke="#63b8ff" points="207.24,-34.29 216.29,-28.78 205.78,-27.44 207.24,-34.29"/>
</g>
</g>
</svg>
