<?xml version="1.0" encoding="UTF-8" standalone="no"?>
<!DOCTYPE svg PUBLIC "-//W3C//DTD SVG 1.1//EN"
 "http://www.w3.org/Graphics/SVG/1.1/DTD/svg11.dtd">
<!-- Generated by graphviz version 2.43.0 (0)
 -->
<!-- Title: ImDrawList::_SetDrawListSharedData Pages: 1 -->
<svg width="344pt" height="101pt"
 viewBox="0.00 0.00 344.00 101.00" xmlns="http://www.w3.org/2000/svg" xmlns:xlink="http://www.w3.org/1999/xlink">
<g id="graph0" class="graph" transform="scale(1 1) rotate(0) translate(4 97)">
<title>ImDrawList::_SetDrawListSharedData</title>
<!-- Node1 -->
<g id="node1" class="node">
<title>Node1</title>
<g id="a_node1"><a xlink:title=" ">
<polygon fill="#999999" stroke="#666666" points="336,-61.5 194,-61.5 194,-31.5 336,-31.5 336,-61.5"/>
<text text-anchor="start" x="202" y="-49.5" font-family="Helvetica,sans-Serif" font-size="10.00">ImDrawList::_SetDrawList</text>
<text text-anchor="middle" x="265" y="-38.5" font-family="Helvetica,sans-Serif" font-size="10.00">SharedData</text>
</a>
</g>
</g>
<!-- Node2 -->
<g id="node2" class="node">
<title>Node2</title>
<g id="a_node2"><a xlink:href="structImDrawList.html#a6360ccc7ce978f1497d6291a4a6f87eb" target="_top" xlink:title=" ">
<polygon fill="white" stroke="#666666" points="146,-93 12,-93 12,-74 146,-74 146,-93"/>
<text text-anchor="middle" x="79" y="-81" font-family="Helvetica,sans-Serif" font-size="10.00">ImDrawList::ImDrawList</text>
</a>
</g>
</g>
<!-- Node1&#45;&gt;Node2 -->
<g id="edge1" class="edge">
<title>Node1&#45;&gt;Node2</title>
<path fill="none" stroke="#63b8ff" d="M183.91,-62.61C164.61,-66.49 144.61,-70.51 127.37,-73.98"/>
<polygon fill="#63b8ff" stroke="#63b8ff" points="184.8,-66 193.91,-60.59 183.42,-59.13 184.8,-66"/>
</g>
<!-- Node3 -->
<g id="node3" class="node">
<title>Node3</title>
<g id="a_node3"><a xlink:href="structImGuiWindow.html#acd2909ae3b7079de81d528327cc11dfd" target="_top" xlink:title=" ">
<polygon fill="white" stroke="#666666" points="158,-56 0,-56 0,-37 158,-37 158,-56"/>
<text text-anchor="middle" x="79" y="-44" font-family="Helvetica,sans-Serif" font-size="10.00">ImGuiWindow::ImGuiWindow</text>
</a>
</g>
</g>
<!-- Node1&#45;&gt;Node3 -->
<g id="edge2" class="edge">
<title>Node1&#45;&gt;Node3</title>
<path fill="none" stroke="#63b8ff" d="M183.68,-46.5C175.22,-46.5 166.62,-46.5 158.19,-46.5"/>
<polygon fill="#63b8ff" stroke="#63b8ff" points="183.91,-50 193.91,-46.5 183.91,-43 183.91,-50"/>
</g>
<!-- Node4 -->
<g id="node4" class="node">
<title>Node4</title>
<g id="a_node4"><a xlink:href="structImDrawList.html#a19fd8d920c202cf8ba5f5c55c43d1d2a" target="_top" xlink:title=" ">
<polygon fill="white" stroke="#666666" points="150,-19 8,-19 8,0 150,0 150,-19"/>
<text text-anchor="middle" x="79" y="-7" font-family="Helvetica,sans-Serif" font-size="10.00">ImDrawList::~ImDrawList</text>
</a>
</g>
</g>
<!-- Node1&#45;&gt;Node4 -->
<g id="edge3" class="edge">
<title>Node1&#45;&gt;Node4</title>
<path fill="none" stroke="#63b8ff" d="M183.91,-30.39C164.61,-26.51 144.61,-22.49 127.37,-19.02"/>
<polygon fill="#63b8ff" stroke="#63b8ff" points="183.42,-33.87 193.91,-32.41 184.8,-27 183.42,-33.87"/>
</g>
</g>
</svg>
