<?xml version="1.0" encoding="UTF-8" standalone="no"?>
<!DOCTYPE svg PUBLIC "-//W3C//DTD SVG 1.1//EN"
 "http://www.w3.org/Graphics/SVG/1.1/DTD/svg11.dtd">
<!-- Generated by graphviz version 2.43.0 (0)
 -->
<!-- Title: ImGuiGroupData Pages: 1 -->
<svg width="340pt" height="380pt"
 viewBox="0.00 0.00 340.00 380.00" xmlns="http://www.w3.org/2000/svg" xmlns:xlink="http://www.w3.org/1999/xlink">
<g id="graph0" class="graph" transform="scale(1 1) rotate(0) translate(4 376)">
<title>ImGuiGroupData</title>
<!-- Node1 -->
<g id="node1" class="node">
<title>Node1</title>
<g id="a_node1"><a xlink:title=" ">
<polygon fill="#999999" stroke="#666666" points="68,-0.5 68,-156.5 238,-156.5 238,-0.5 68,-0.5"/>
<text text-anchor="middle" x="153" y="-144.5" font-family="Helvetica,sans-Serif" font-size="10.00">ImGuiGroupData</text>
<polyline fill="none" stroke="#666666" points="68,-137.5 238,-137.5 "/>
<text text-anchor="start" x="76" y="-125.5" font-family="Helvetica,sans-Serif" font-size="10.00">+ ImGuiID WindowID</text>
<text text-anchor="start" x="76" y="-114.5" font-family="Helvetica,sans-Serif" font-size="10.00">+ float BackupCurrLineText</text>
<text text-anchor="start" x="76" y="-103.5" font-family="Helvetica,sans-Serif" font-size="10.00">BaseOffset</text>
<text text-anchor="start" x="76" y="-92.5" font-family="Helvetica,sans-Serif" font-size="10.00">+ ImGuiID BackupActiveIdIs</text>
<text text-anchor="start" x="76" y="-81.5" font-family="Helvetica,sans-Serif" font-size="10.00">Alive</text>
<text text-anchor="start" x="76" y="-70.5" font-family="Helvetica,sans-Serif" font-size="10.00">+ bool BackupDeactivatedId</text>
<text text-anchor="start" x="76" y="-59.5" font-family="Helvetica,sans-Serif" font-size="10.00">IsAlive</text>
<text text-anchor="start" x="76" y="-48.5" font-family="Helvetica,sans-Serif" font-size="10.00">+ bool BackupHoveredIdIsAlive</text>
<text text-anchor="start" x="76" y="-37.5" font-family="Helvetica,sans-Serif" font-size="10.00">+ bool BackupIsSameLine</text>
<text text-anchor="start" x="76" y="-26.5" font-family="Helvetica,sans-Serif" font-size="10.00">+ bool EmitItem</text>
<polyline fill="none" stroke="#666666" points="68,-19.5 238,-19.5 "/>
<text text-anchor="middle" x="153" y="-7.5" font-family="Helvetica,sans-Serif" font-size="10.00"> </text>
</a>
</g>
</g>
<!-- Node2 -->
<g id="node2" class="node">
<title>Node2</title>
<g id="a_node2"><a xlink:href="structImVec2.html" target="_top" xlink:title=" ">
<polygon fill="white" stroke="#666666" points="0,-237.5 0,-371.5 140,-371.5 140,-237.5 0,-237.5"/>
<text text-anchor="middle" x="70" y="-359.5" font-family="Helvetica,sans-Serif" font-size="10.00">ImVec2</text>
<polyline fill="none" stroke="#666666" points="0,-352.5 140,-352.5 "/>
<text text-anchor="start" x="8" y="-340.5" font-family="Helvetica,sans-Serif" font-size="10.00">+ float x</text>
<text text-anchor="start" x="8" y="-329.5" font-family="Helvetica,sans-Serif" font-size="10.00">+ float y</text>
<polyline fill="none" stroke="#666666" points="0,-322.5 140,-322.5 "/>
<text text-anchor="start" x="8" y="-310.5" font-family="Helvetica,sans-Serif" font-size="10.00">+ constexpr ImVec2()</text>
<text text-anchor="start" x="8" y="-299.5" font-family="Helvetica,sans-Serif" font-size="10.00">+ constexpr ImVec2(float</text>
<text text-anchor="start" x="8" y="-288.5" font-family="Helvetica,sans-Serif" font-size="10.00"> _x, float _y)</text>
<text text-anchor="start" x="8" y="-277.5" font-family="Helvetica,sans-Serif" font-size="10.00">+ float &amp; operator[]</text>
<text text-anchor="start" x="8" y="-266.5" font-family="Helvetica,sans-Serif" font-size="10.00">(size_t idx)</text>
<text text-anchor="start" x="8" y="-255.5" font-family="Helvetica,sans-Serif" font-size="10.00">+ float operator[](size</text>
<text text-anchor="start" x="8" y="-244.5" font-family="Helvetica,sans-Serif" font-size="10.00">_t idx) const</text>
</a>
</g>
</g>
<!-- Node2&#45;&gt;Node1 -->
<g id="edge1" class="edge">
<title>Node2&#45;&gt;Node1</title>
<path fill="none" stroke="#404040" d="M67.96,-237.2C69.22,-216.71 72.57,-194.44 80,-175 80.97,-172.47 82.03,-169.94 83.16,-167.44"/>
<polygon fill="none" stroke="#404040" points="83.23,-167.3 82.35,-160.14 88.61,-156.57 89.5,-163.73 83.23,-167.3"/>
<text text-anchor="middle" x="147.5" y="-211" font-family="Helvetica,sans-Serif" font-size="10.00"> +BackupCurrLineSize</text>
<text text-anchor="middle" x="147.5" y="-200" font-family="Helvetica,sans-Serif" font-size="10.00">+BackupCursorMaxPos</text>
<text text-anchor="middle" x="147.5" y="-189" font-family="Helvetica,sans-Serif" font-size="10.00">+BackupCursorPos</text>
<text text-anchor="middle" x="147.5" y="-178" font-family="Helvetica,sans-Serif" font-size="10.00">+BackupCursorPosPrevLine</text>
</g>
<!-- Node3 -->
<g id="node3" class="node">
<title>Node3</title>
<g id="a_node3"><a xlink:href="structImVec1.html" target="_top" xlink:title=" ">
<polygon fill="white" stroke="#666666" points="158,-270.5 158,-338.5 316,-338.5 316,-270.5 158,-270.5"/>
<text text-anchor="middle" x="237" y="-326.5" font-family="Helvetica,sans-Serif" font-size="10.00">ImVec1</text>
<polyline fill="none" stroke="#666666" points="158,-319.5 316,-319.5 "/>
<text text-anchor="start" x="166" y="-307.5" font-family="Helvetica,sans-Serif" font-size="10.00">+ float x</text>
<polyline fill="none" stroke="#666666" points="158,-300.5 316,-300.5 "/>
<text text-anchor="start" x="166" y="-288.5" font-family="Helvetica,sans-Serif" font-size="10.00">+ constexpr ImVec1()</text>
<text text-anchor="start" x="166" y="-277.5" font-family="Helvetica,sans-Serif" font-size="10.00">+ constexpr ImVec1(float _x)</text>
</a>
</g>
</g>
<!-- Node3&#45;&gt;Node1 -->
<g id="edge2" class="edge">
<title>Node3&#45;&gt;Node1</title>
<path fill="none" stroke="#404040" d="M235.02,-270.3C232.57,-243.76 227.11,-205.99 215,-175 214.02,-172.49 212.97,-169.99 211.86,-167.48"/>
<polygon fill="none" stroke="#404040" points="211.81,-167.37 205.61,-163.68 206.63,-156.55 212.83,-160.23 211.81,-167.37"/>
<text text-anchor="middle" x="279" y="-200" font-family="Helvetica,sans-Serif" font-size="10.00"> +BackupGroupOffset</text>
<text text-anchor="middle" x="279" y="-189" font-family="Helvetica,sans-Serif" font-size="10.00">+BackupIndent</text>
</g>
</g>
</svg>
