<?xml version="1.0" encoding="UTF-8" standalone="no"?>
<!DOCTYPE svg PUBLIC "-//W3C//DTD SVG 1.1//EN"
 "http://www.w3.org/Graphics/SVG/1.1/DTD/svg11.dtd">
<!-- Generated by graphviz version 2.43.0 (0)
 -->
<!-- Title: ImGuiSelectionBasicStorage::Clear Pages: 1 -->
<svg width="1252pt" height="296pt"
 viewBox="0.00 0.00 1252.00 296.00" xmlns="http://www.w3.org/2000/svg" xmlns:xlink="http://www.w3.org/1999/xlink">
<g id="graph0" class="graph" transform="scale(1 1) rotate(0) translate(4 292)">
<title>ImGuiSelectionBasicStorage::Clear</title>
<!-- Node1 -->
<g id="node1" class="node">
<title>Node1</title>
<g id="a_node1"><a xlink:title=" ">
<polygon fill="#999999" stroke="#666666" points="1244,-175 1089,-175 1089,-145 1244,-145 1244,-175"/>
<text text-anchor="start" x="1097" y="-163" font-family="Helvetica,sans-Serif" font-size="10.00">ImGuiSelectionBasicStorage</text>
<text text-anchor="middle" x="1166.5" y="-152" font-family="Helvetica,sans-Serif" font-size="10.00">::Clear</text>
</a>
</g>
</g>
<!-- Node2 -->
<g id="node2" class="node">
<title>Node2</title>
<g id="a_node2"><a xlink:href="structExampleSelectionWithDeletion.html#aa040ee356abd37ae15d34eaae8b53822" target="_top" xlink:title=" ">
<polygon fill="white" stroke="#666666" points="1053,-78 885,-78 885,-48 1053,-48 1053,-78"/>
<text text-anchor="start" x="893" y="-66" font-family="Helvetica,sans-Serif" font-size="10.00">ExampleSelectionWithDeletion</text>
<text text-anchor="middle" x="969" y="-55" font-family="Helvetica,sans-Serif" font-size="10.00">::ApplyDeletionPostLoop</text>
</a>
</g>
</g>
<!-- Node1&#45;&gt;Node2 -->
<g id="edge1" class="edge">
<title>Node1&#45;&gt;Node2</title>
<path fill="none" stroke="#63b8ff" d="M1128.58,-140C1106.74,-128.33 1078.47,-113.5 1053,-101 1037.07,-93.18 1019.19,-84.93 1004.12,-78.12"/>
<polygon fill="#63b8ff" stroke="#63b8ff" points="1127.04,-143.15 1137.51,-144.79 1130.35,-136.98 1127.04,-143.15"/>
</g>
<!-- Node3 -->
<g id="node3" class="node">
<title>Node3</title>
<g id="a_node3"><a xlink:href="imgui__demo_8cpp.html#a401c106ef9206d8dd4b4bc3271a6de6f" target="_top" xlink:title=" ">
<polygon fill="white" stroke="#666666" points="516,-111 346,-111 346,-81 516,-81 516,-111"/>
<text text-anchor="start" x="354" y="-99" font-family="Helvetica,sans-Serif" font-size="10.00">DemoWindowWidgetsSelection</text>
<text text-anchor="middle" x="431" y="-88" font-family="Helvetica,sans-Serif" font-size="10.00">AndMultiSelect</text>
</a>
</g>
</g>
<!-- Node1&#45;&gt;Node3 -->
<g id="edge16" class="edge">
<title>Node1&#45;&gt;Node3</title>
<path fill="none" stroke="#63b8ff" d="M1078.73,-166.99C986.63,-172.92 837,-178.26 709,-163 626.95,-153.22 534.07,-127.69 479.41,-111.12"/>
<polygon fill="#63b8ff" stroke="#63b8ff" points="1079.1,-170.48 1088.84,-166.33 1078.64,-163.49 1079.1,-170.48"/>
</g>
<!-- Node8 -->
<g id="node8" class="node">
<title>Node8</title>
<g id="a_node8"><a xlink:href="structImGuiSelectionBasicStorage.html#a5da8efc0dbe1611b3f980afba295110a" target="_top" xlink:title=" ">
<polygon fill="white" stroke="#666666" points="1046.5,-140 891.5,-140 891.5,-110 1046.5,-110 1046.5,-140"/>
<text text-anchor="start" x="899.5" y="-128" font-family="Helvetica,sans-Serif" font-size="10.00">ImGuiSelectionBasicStorage</text>
<text text-anchor="middle" x="969" y="-117" font-family="Helvetica,sans-Serif" font-size="10.00">::ApplyRequests</text>
</a>
</g>
</g>
<!-- Node1&#45;&gt;Node8 -->
<g id="edge8" class="edge">
<title>Node1&#45;&gt;Node8</title>
<path fill="none" stroke="#63b8ff" d="M1078.68,-144.46C1068.06,-142.56 1057.26,-140.62 1046.81,-138.75"/>
<polygon fill="#63b8ff" stroke="#63b8ff" points="1078.33,-147.95 1088.79,-146.27 1079.57,-141.06 1078.33,-147.95"/>
</g>
<!-- Node11 -->
<g id="node11" class="node">
<title>Node11</title>
<g id="a_node11"><a xlink:href="structExampleAssetsBrowser.html#a62ad4a50da3fa63f0b60e51742f112da" target="_top" xlink:title=" ">
<polygon fill="white" stroke="#666666" points="1034.5,-30 903.5,-30 903.5,0 1034.5,0 1034.5,-30"/>
<text text-anchor="start" x="911.5" y="-18" font-family="Helvetica,sans-Serif" font-size="10.00">ExampleAssetsBrowser</text>
<text text-anchor="middle" x="969" y="-7" font-family="Helvetica,sans-Serif" font-size="10.00">::ClearItems</text>
</a>
</g>
</g>
<!-- Node1&#45;&gt;Node11 -->
<g id="edge14" class="edge">
<title>Node1&#45;&gt;Node11</title>
<path fill="none" stroke="#63b8ff" d="M1149.88,-136.69C1130.36,-109.34 1094.44,-64.5 1053,-39 1047.38,-35.54 1041.24,-32.56 1034.92,-30"/>
<polygon fill="#63b8ff" stroke="#63b8ff" points="1147.03,-138.72 1155.63,-144.91 1152.76,-134.7 1147.03,-138.72"/>
</g>
<!-- Node12 -->
<g id="node12" class="node">
<title>Node12</title>
<g id="a_node12"><a xlink:href="structExampleDualListBox.html#ad6cacee15ae085f2074e346c542ec820" target="_top" xlink:title=" ">
<polygon fill="white" stroke="#666666" points="838,-240 720,-240 720,-210 838,-210 838,-240"/>
<text text-anchor="start" x="728" y="-228" font-family="Helvetica,sans-Serif" font-size="10.00">ExampleDualListBox</text>
<text text-anchor="middle" x="779" y="-217" font-family="Helvetica,sans-Serif" font-size="10.00">::MoveAll</text>
</a>
</g>
</g>
<!-- Node1&#45;&gt;Node12 -->
<g id="edge17" class="edge">
<title>Node1&#45;&gt;Node12</title>
<path fill="none" stroke="#63b8ff" d="M1115.89,-178.28C1096.51,-184.79 1073.94,-191.59 1053,-196 979.78,-211.44 893.69,-218.85 838.05,-222.27"/>
<polygon fill="#63b8ff" stroke="#63b8ff" points="1117.09,-181.57 1125.42,-175.02 1114.83,-174.95 1117.09,-181.57"/>
</g>
<!-- Node13 -->
<g id="node13" class="node">
<title>Node13</title>
<g id="a_node13"><a xlink:href="structExampleDualListBox.html#a698e8cfeb3feee52d68b5785bc0c84e1" target="_top" xlink:title=" ">
<polygon fill="white" stroke="#666666" points="838,-288 720,-288 720,-258 838,-258 838,-288"/>
<text text-anchor="start" x="728" y="-276" font-family="Helvetica,sans-Serif" font-size="10.00">ExampleDualListBox</text>
<text text-anchor="middle" x="779" y="-265" font-family="Helvetica,sans-Serif" font-size="10.00">::MoveSelected</text>
</a>
</g>
</g>
<!-- Node1&#45;&gt;Node13 -->
<g id="edge19" class="edge">
<title>Node1&#45;&gt;Node13</title>
<path fill="none" stroke="#63b8ff" d="M1134.23,-180.37C1112.31,-193.78 1081.88,-210.7 1053,-221 981.31,-246.56 894.31,-260.37 838.09,-267.2"/>
<polygon fill="#63b8ff" stroke="#63b8ff" points="1136.14,-183.31 1142.78,-175.06 1132.44,-177.36 1136.14,-183.31"/>
</g>
<!-- Node2&#45;&gt;Node3 -->
<g id="edge2" class="edge">
<title>Node2&#45;&gt;Node3</title>
<path fill="none" stroke="#63b8ff" d="M874.63,-68.75C773.51,-74.97 613.65,-84.82 516.24,-90.81"/>
<polygon fill="#63b8ff" stroke="#63b8ff" points="875.07,-72.23 884.84,-68.12 874.64,-65.24 875.07,-72.23"/>
</g>
<!-- Node6 -->
<g id="node6" class="node">
<title>Node6</title>
<g id="a_node6"><a xlink:href="structExampleAssetsBrowser.html#a2b36e1f9b7d764e547611baa4c7fd8d1" target="_top" xlink:title=" ">
<polygon fill="white" stroke="#666666" points="844.5,-30 713.5,-30 713.5,0 844.5,0 844.5,-30"/>
<text text-anchor="start" x="721.5" y="-18" font-family="Helvetica,sans-Serif" font-size="10.00">ExampleAssetsBrowser</text>
<text text-anchor="middle" x="779" y="-7" font-family="Helvetica,sans-Serif" font-size="10.00">::Draw</text>
</a>
</g>
</g>
<!-- Node2&#45;&gt;Node6 -->
<g id="edge5" class="edge">
<title>Node2&#45;&gt;Node6</title>
<path fill="none" stroke="#63b8ff" d="M899.14,-45.42C879.33,-40.36 857.9,-34.89 838.76,-30"/>
<polygon fill="#63b8ff" stroke="#63b8ff" points="898.48,-48.86 909.03,-47.94 900.21,-42.08 898.48,-48.86"/>
</g>
<!-- Node4 -->
<g id="node4" class="node">
<title>Node4</title>
<g id="a_node4"><a xlink:href="imgui__demo_8cpp.html#a9a639caab781642cbc4f4a23bfbd11cd" target="_top" xlink:title=" ">
<polygon fill="white" stroke="#666666" points="307,-87.5 182,-87.5 182,-68.5 307,-68.5 307,-87.5"/>
<text text-anchor="middle" x="244.5" y="-75.5" font-family="Helvetica,sans-Serif" font-size="10.00">DemoWindowWidgets</text>
</a>
</g>
</g>
<!-- Node3&#45;&gt;Node4 -->
<g id="edge3" class="edge">
<title>Node3&#45;&gt;Node4</title>
<path fill="none" stroke="#63b8ff" d="M335.75,-86.81C326.06,-85.86 316.39,-84.92 307.19,-84.02"/>
<polygon fill="#63b8ff" stroke="#63b8ff" points="335.56,-90.3 345.85,-87.79 336.24,-83.34 335.56,-90.3"/>
</g>
<!-- Node5 -->
<g id="node5" class="node">
<title>Node5</title>
<g id="a_node5"><a xlink:href="namespaceImGui.html#af95643a0ce4893b9e57c12991922fb18" target="_top" xlink:title=" ">
<polygon fill="white" stroke="#666666" points="146,-67.5 0,-67.5 0,-48.5 146,-48.5 146,-67.5"/>
<text text-anchor="middle" x="73" y="-55.5" font-family="Helvetica,sans-Serif" font-size="10.00">ImGui::ShowDemoWindow</text>
</a>
</g>
</g>
<!-- Node4&#45;&gt;Node5 -->
<g id="edge4" class="edge">
<title>Node4&#45;&gt;Node5</title>
<path fill="none" stroke="#63b8ff" d="M171.68,-69.53C163.27,-68.53 154.69,-67.52 146.28,-66.53"/>
<polygon fill="#63b8ff" stroke="#63b8ff" points="171.49,-73.03 181.83,-70.72 172.31,-66.08 171.49,-73.03"/>
</g>
<!-- Node7 -->
<g id="node7" class="node">
<title>Node7</title>
<g id="a_node7"><a xlink:href="imgui__demo_8cpp.html#a83fdfc359b5a0432835090acd227690f" target="_top" xlink:title=" ">
<polygon fill="white" stroke="#666666" points="519,-46.5 343,-46.5 343,-27.5 519,-27.5 519,-46.5"/>
<text text-anchor="middle" x="431" y="-34.5" font-family="Helvetica,sans-Serif" font-size="10.00">ShowExampleAppAssetsBrowser</text>
</a>
</g>
</g>
<!-- Node6&#45;&gt;Node7 -->
<g id="edge6" class="edge">
<title>Node6&#45;&gt;Node7</title>
<path fill="none" stroke="#63b8ff" d="M703.12,-19.76C649.06,-23.2 575.9,-27.85 519.21,-31.46"/>
<polygon fill="#63b8ff" stroke="#63b8ff" points="703.57,-23.24 713.33,-19.11 703.12,-16.25 703.57,-23.24"/>
</g>
<!-- Node7&#45;&gt;Node5 -->
<g id="edge7" class="edge">
<title>Node7&#45;&gt;Node5</title>
<path fill="none" stroke="#63b8ff" d="M332.84,-42.73C273.87,-46.21 199.87,-50.58 146.11,-53.75"/>
<polygon fill="#63b8ff" stroke="#63b8ff" points="333.14,-46.22 342.91,-42.14 332.72,-39.23 333.14,-46.22"/>
</g>
<!-- Node8&#45;&gt;Node3 -->
<g id="edge12" class="edge">
<title>Node8&#45;&gt;Node3</title>
<path fill="none" stroke="#63b8ff" d="M880.95,-117.3C870.19,-116.46 859.35,-115.67 849,-115 733.83,-107.54 600.58,-102.01 516.31,-98.89"/>
<polygon fill="#63b8ff" stroke="#63b8ff" points="880.97,-120.81 891.22,-118.11 881.52,-113.83 880.97,-120.81"/>
</g>
<!-- Node8&#45;&gt;Node6 -->
<g id="edge13" class="edge">
<title>Node8&#45;&gt;Node6</title>
<path fill="none" stroke="#63b8ff" d="M922.18,-105.72C909.89,-100.1 896.76,-93.66 885,-87 854.03,-69.47 820.49,-45.51 799.85,-30.14"/>
<polygon fill="#63b8ff" stroke="#63b8ff" points="920.82,-108.95 931.38,-109.86 923.69,-102.56 920.82,-108.95"/>
</g>
<!-- Node9 -->
<g id="node9" class="node">
<title>Node9</title>
<g id="a_node9"><a xlink:href="structExampleDualListBox.html#aab28206553b6614372697f40dbc4c9a8" target="_top" xlink:title=" ">
<polygon fill="white" stroke="#666666" points="849,-154 709,-154 709,-124 849,-124 849,-154"/>
<text text-anchor="start" x="717" y="-142" font-family="Helvetica,sans-Serif" font-size="10.00">ExampleDualListBox</text>
<text text-anchor="middle" x="779" y="-131" font-family="Helvetica,sans-Serif" font-size="10.00">::ApplySelectionRequests</text>
</a>
</g>
</g>
<!-- Node8&#45;&gt;Node9 -->
<g id="edge9" class="edge">
<title>Node8&#45;&gt;Node9</title>
<path fill="none" stroke="#63b8ff" d="M881.08,-131.47C870.41,-132.27 859.61,-133.07 849.24,-133.84"/>
<polygon fill="#63b8ff" stroke="#63b8ff" points="881.55,-134.95 891.26,-130.71 881.03,-127.97 881.55,-134.95"/>
</g>
<!-- Node10 -->
<g id="node10" class="node">
<title>Node10</title>
<g id="a_node10"><a xlink:href="structExampleDualListBox.html#a1413fd803c568a0d4b98a8f3c59af1be" target="_top" xlink:title=" ">
<polygon fill="white" stroke="#666666" points="673,-240 555,-240 555,-210 673,-210 673,-240"/>
<text text-anchor="start" x="563" y="-228" font-family="Helvetica,sans-Serif" font-size="10.00">ExampleDualListBox</text>
<text text-anchor="middle" x="614" y="-217" font-family="Helvetica,sans-Serif" font-size="10.00">::Show</text>
</a>
</g>
</g>
<!-- Node9&#45;&gt;Node10 -->
<g id="edge10" class="edge">
<title>Node9&#45;&gt;Node10</title>
<path fill="none" stroke="#63b8ff" d="M740.06,-159.02C710.56,-174.58 670.27,-195.84 643.48,-209.97"/>
<polygon fill="#63b8ff" stroke="#63b8ff" points="742.02,-161.94 749.23,-154.18 738.76,-155.75 742.02,-161.94"/>
</g>
<!-- Node10&#45;&gt;Node3 -->
<g id="edge11" class="edge">
<title>Node10&#45;&gt;Node3</title>
<path fill="none" stroke="#63b8ff" d="M570.74,-205.24C565.34,-202.32 559.97,-199.21 555,-196 514.07,-169.58 470.94,-131.89 448.22,-111.14"/>
<polygon fill="#63b8ff" stroke="#63b8ff" points="569.3,-208.44 579.79,-209.96 572.54,-202.23 569.3,-208.44"/>
</g>
<!-- Node11&#45;&gt;Node6 -->
<g id="edge15" class="edge">
<title>Node11&#45;&gt;Node6</title>
<path fill="none" stroke="#63b8ff" d="M892.96,-15C877.03,-15 860.33,-15 844.82,-15"/>
<polygon fill="#63b8ff" stroke="#63b8ff" points="893.3,-18.5 903.3,-15 893.3,-11.5 893.3,-18.5"/>
</g>
<!-- Node12&#45;&gt;Node10 -->
<g id="edge18" class="edge">
<title>Node12&#45;&gt;Node10</title>
<path fill="none" stroke="#63b8ff" d="M709.58,-225C697.5,-225 685.02,-225 673.25,-225"/>
<polygon fill="#63b8ff" stroke="#63b8ff" points="709.61,-228.5 719.61,-225 709.61,-221.5 709.61,-228.5"/>
</g>
<!-- Node13&#45;&gt;Node10 -->
<g id="edge20" class="edge">
<title>Node13&#45;&gt;Node10</title>
<path fill="none" stroke="#63b8ff" d="M717.12,-255.07C700.27,-250.11 682.17,-244.78 665.95,-240"/>
<polygon fill="#63b8ff" stroke="#63b8ff" points="716.29,-258.48 726.87,-257.94 718.27,-251.76 716.29,-258.48"/>
</g>
</g>
</svg>
