<?xml version="1.0" encoding="UTF-8" standalone="no"?>
<!DOCTYPE svg PUBLIC "-//W3C//DTD SVG 1.1//EN"
 "http://www.w3.org/Graphics/SVG/1.1/DTD/svg11.dtd">
<!-- Generated by graphviz version 2.43.0 (0)
 -->
<!-- Title: refl::trait::is_reflectable&lt; T &gt; Pages: 1 -->
<svg width="166pt" height="171pt"
 viewBox="0.00 0.00 166.00 171.00" xmlns="http://www.w3.org/2000/svg" xmlns:xlink="http://www.w3.org/1999/xlink">
<g id="graph0" class="graph" transform="scale(1 1) rotate(0) translate(4 167)">
<title>refl::trait::is_reflectable&lt; T &gt;</title>
<!-- Node1 -->
<g id="node1" class="node">
<title>Node1</title>
<g id="a_node1"><a xlink:title=" ">
<polygon fill="#999999" stroke="#666666" points="0,-0.5 0,-57.5 158,-57.5 158,-0.5 0,-0.5"/>
<text text-anchor="middle" x="79" y="-45.5" font-family="Helvetica,sans-Serif" font-size="10.00">refl::trait::is_reflectable&lt; T &gt;</text>
<polyline fill="none" stroke="#666666" points="0,-38.5 158,-38.5 "/>
<text text-anchor="middle" x="79" y="-26.5" font-family="Helvetica,sans-Serif" font-size="10.00"> </text>
<polyline fill="none" stroke="#666666" points="0,-19.5 158,-19.5 "/>
<text text-anchor="middle" x="79" y="-7.5" font-family="Helvetica,sans-Serif" font-size="10.00"> </text>
</a>
</g>
</g>
<!-- Node2 -->
<g id="node2" class="node">
<title>Node2</title>
<g id="a_node2"><a xlink:title=" ">
<polygon fill="white" stroke="#666666" points="16,-94.5 16,-162.5 142,-162.5 142,-94.5 16,-94.5"/>
<text text-anchor="start" x="24" y="-150.5" font-family="Helvetica,sans-Serif" font-size="10.00">decltypedetail::is</text>
<text text-anchor="middle" x="79" y="-139.5" font-family="Helvetica,sans-Serif" font-size="10.00">_reflectable_test&lt; T &gt;</text>
<polyline fill="none" stroke="#666666" points="16,-132.5 142,-132.5 "/>
<text text-anchor="middle" x="79" y="-120.5" font-family="Helvetica,sans-Serif" font-size="10.00"> </text>
<polyline fill="none" stroke="#666666" points="16,-113.5 142,-113.5 "/>
<text text-anchor="middle" x="79" y="-101.5" font-family="Helvetica,sans-Serif" font-size="10.00"> </text>
</a>
</g>
</g>
<!-- Node2&#45;&gt;Node1 -->
<g id="edge1" class="edge">
<title>Node2&#45;&gt;Node1</title>
<path fill="none" stroke="#63b8ff" d="M79,-84.45C79,-75.4 79,-66.09 79,-57.78"/>
<polygon fill="none" stroke="#63b8ff" points="75.5,-84.49 79,-94.49 82.5,-84.49 75.5,-84.49"/>
</g>
</g>
</svg>
