<?xml version="1.0" encoding="UTF-8" standalone="no"?>
<!DOCTYPE svg PUBLIC "-//W3C//DTD SVG 1.1//EN"
 "http://www.w3.org/Graphics/SVG/1.1/DTD/svg11.dtd">
<!-- Generated by graphviz version 2.43.0 (0)
 -->
<!-- Title: ImDrawList::PathBezierQuadraticCurveTo Pages: 1 -->
<svg width="697pt" height="165pt"
 viewBox="0.00 0.00 697.00 165.00" xmlns="http://www.w3.org/2000/svg" xmlns:xlink="http://www.w3.org/1999/xlink">
<g id="graph0" class="graph" transform="scale(1 1) rotate(0) translate(4 161)">
<title>ImDrawList::PathBezierQuadraticCurveTo</title>
<!-- Node1 -->
<g id="node1" class="node">
<title>Node1</title>
<g id="a_node1"><a xlink:title=" ">
<polygon fill="#999999" stroke="#666666" points="177,-94.5 0,-94.5 0,-64.5 177,-64.5 177,-94.5"/>
<text text-anchor="start" x="8" y="-82.5" font-family="Helvetica,sans-Serif" font-size="10.00">ImDrawList::PathBezierQuadratic</text>
<text text-anchor="middle" x="88.5" y="-71.5" font-family="Helvetica,sans-Serif" font-size="10.00">CurveTo</text>
</a>
</g>
</g>
<!-- Node2 -->
<g id="node2" class="node">
<title>Node2</title>
<g id="a_node2"><a xlink:href="structImVector.html#a2d80e87e81b1b01143c8d8be93e6fde1" target="_top" xlink:title=" ">
<polygon fill="white" stroke="#666666" points="329.5,-157 240.5,-157 240.5,-138 329.5,-138 329.5,-157"/>
<text text-anchor="middle" x="285" y="-145" font-family="Helvetica,sans-Serif" font-size="10.00">ImVector::back</text>
</a>
</g>
</g>
<!-- Node1&#45;&gt;Node2 -->
<g id="edge1" class="edge">
<title>Node1&#45;&gt;Node2</title>
<path fill="none" stroke="#63b8ff" d="M123.11,-94.56C147.69,-105.21 182,-119.35 213,-129.5 219.33,-131.57 226.05,-133.55 232.72,-135.39"/>
<polygon fill="#63b8ff" stroke="#63b8ff" points="231.86,-138.78 242.43,-137.97 233.67,-132.02 231.86,-138.78"/>
</g>
<!-- Node3 -->
<g id="node3" class="node">
<title>Node3</title>
<g id="a_node3"><a xlink:href="imgui__draw_8cpp.html#a9b3ec0353c3a10709ad21985942613da" target="_top" xlink:title=" ">
<polygon fill="white" stroke="#666666" points="349,-120 221,-120 221,-101 349,-101 349,-120"/>
<text text-anchor="middle" x="285" y="-108" font-family="Helvetica,sans-Serif" font-size="10.00">ImBezierQuadraticCalc</text>
</a>
</g>
</g>
<!-- Node1&#45;&gt;Node3 -->
<g id="edge2" class="edge">
<title>Node1&#45;&gt;Node3</title>
<path fill="none" stroke="#63b8ff" d="M177.08,-93.46C189.52,-95.44 202.18,-97.46 214.23,-99.38"/>
<polygon fill="#63b8ff" stroke="#63b8ff" points="213.76,-102.85 224.19,-100.97 214.86,-95.94 213.76,-102.85"/>
</g>
<!-- Node4 -->
<g id="node4" class="node">
<title>Node4</title>
<g id="a_node4"><a xlink:href="imgui__draw_8cpp.html#aee43e89d334baa328c6a456379edaccd" target="_top" xlink:title=" ">
<polygon fill="white" stroke="#666666" points="357,-64.5 213,-64.5 213,-34.5 357,-34.5 357,-64.5"/>
<text text-anchor="start" x="221" y="-52.5" font-family="Helvetica,sans-Serif" font-size="10.00">PathBezierQuadraticCurve</text>
<text text-anchor="middle" x="285" y="-41.5" font-family="Helvetica,sans-Serif" font-size="10.00">ToCasteljau</text>
</a>
</g>
</g>
<!-- Node1&#45;&gt;Node4 -->
<g id="edge3" class="edge">
<title>Node1&#45;&gt;Node4</title>
<path fill="none" stroke="#63b8ff" d="M177.08,-65.99C185.7,-64.66 194.43,-63.32 202.98,-62"/>
<polygon fill="#63b8ff" stroke="#63b8ff" points="203.58,-65.45 212.93,-60.46 202.51,-58.53 203.58,-65.45"/>
</g>
<!-- Node5 -->
<g id="node5" class="node">
<title>Node5</title>
<g id="a_node5"><a xlink:href="structImVector.html#aab5df48e0711a48bd12f3206e08c4108" target="_top" xlink:title=" ">
<polygon fill="white" stroke="#666666" points="511,-37 393,-37 393,-18 511,-18 511,-37"/>
<text text-anchor="middle" x="452" y="-25" font-family="Helvetica,sans-Serif" font-size="10.00">ImVector::push_back</text>
</a>
</g>
</g>
<!-- Node1&#45;&gt;Node5 -->
<g id="edge8" class="edge">
<title>Node1&#45;&gt;Node5</title>
<path fill="none" stroke="#63b8ff" d="M115.42,-64.38C139.71,-51.15 177.5,-32.92 213,-25.5 269.26,-13.74 334.65,-15.35 382.64,-19.27"/>
<polygon fill="#63b8ff" stroke="#63b8ff" points="382.34,-22.76 392.61,-20.14 382.95,-15.79 382.34,-22.76"/>
</g>
<!-- Node4&#45;&gt;Node4 -->
<g id="edge4" class="edge">
<title>Node4&#45;&gt;Node4</title>
<path fill="none" stroke="#63b8ff" d="M255.82,-64.78C249.34,-73.91 259.06,-82.5 285,-82.5 300.4,-82.5 310.09,-79.47 314.06,-75.1"/>
<polygon fill="#63b8ff" stroke="#63b8ff" points="317.56,-74.82 314.18,-64.78 310.56,-74.73 317.56,-74.82"/>
</g>
<!-- Node4&#45;&gt;Node5 -->
<g id="edge5" class="edge">
<title>Node4&#45;&gt;Node5</title>
<path fill="none" stroke="#63b8ff" d="M357.41,-39.98C365.83,-38.86 374.41,-37.71 382.79,-36.6"/>
<polygon fill="#63b8ff" stroke="#63b8ff" points="383.43,-40.04 392.88,-35.25 382.5,-33.1 383.43,-40.04"/>
</g>
<!-- Node6 -->
<g id="node6" class="node">
<title>Node6</title>
<g id="a_node6"><a xlink:href="structImVector.html#a3a097635d464b1b70dc7d59996a88b28" target="_top" xlink:title=" ">
<polygon fill="white" stroke="#666666" points="689,-56 547,-56 547,-37 689,-37 689,-56"/>
<text text-anchor="middle" x="618" y="-44" font-family="Helvetica,sans-Serif" font-size="10.00">ImVector::_grow_capacity</text>
</a>
</g>
</g>
<!-- Node5&#45;&gt;Node6 -->
<g id="edge6" class="edge">
<title>Node5&#45;&gt;Node6</title>
<path fill="none" stroke="#63b8ff" d="M511.28,-34.25C519.55,-35.21 528.18,-36.21 536.78,-37.21"/>
<polygon fill="#63b8ff" stroke="#63b8ff" points="536.5,-40.7 546.83,-38.37 537.3,-33.74 536.5,-40.7"/>
</g>
<!-- Node7 -->
<g id="node7" class="node">
<title>Node7</title>
<g id="a_node7"><a xlink:href="structImVector.html#a0f14f5736c3372157856eebb67123b75" target="_top" xlink:title=" ">
<polygon fill="white" stroke="#666666" points="669.5,-19 566.5,-19 566.5,0 669.5,0 669.5,-19"/>
<text text-anchor="middle" x="618" y="-7" font-family="Helvetica,sans-Serif" font-size="10.00">ImVector::reserve</text>
</a>
</g>
</g>
<!-- Node5&#45;&gt;Node7 -->
<g id="edge7" class="edge">
<title>Node5&#45;&gt;Node7</title>
<path fill="none" stroke="#63b8ff" d="M511.28,-21.1C525.87,-19.5 541.55,-17.78 556.25,-16.17"/>
<polygon fill="#63b8ff" stroke="#63b8ff" points="556.69,-19.64 566.25,-15.07 555.93,-12.68 556.69,-19.64"/>
</g>
</g>
</svg>
