<?xml version="1.0" encoding="UTF-8" standalone="no"?>
<!DOCTYPE svg PUBLIC "-//W3C//DTD SVG 1.1//EN"
 "http://www.w3.org/Graphics/SVG/1.1/DTD/svg11.dtd">
<!-- Generated by graphviz version 2.43.0 (0)
 -->
<!-- Title: ImGuiDebugAllocInfo Pages: 1 -->
<svg width="160pt" height="215pt"
 viewBox="0.00 0.00 159.50 215.00" xmlns="http://www.w3.org/2000/svg" xmlns:xlink="http://www.w3.org/1999/xlink">
<g id="graph0" class="graph" transform="scale(1 1) rotate(0) translate(4 211)">
<title>ImGuiDebugAllocInfo</title>
<!-- Node1 -->
<g id="node1" class="node">
<title>Node1</title>
<g id="a_node1"><a xlink:title=" ">
<polygon fill="#999999" stroke="#666666" points="0,-0.5 0,-79.5 139,-79.5 139,-0.5 0,-0.5"/>
<text text-anchor="middle" x="69.5" y="-67.5" font-family="Helvetica,sans-Serif" font-size="10.00">ImGuiDebugAllocInfo</text>
<polyline fill="none" stroke="#666666" points="0,-60.5 139,-60.5 "/>
<text text-anchor="start" x="8" y="-48.5" font-family="Helvetica,sans-Serif" font-size="10.00">+ int TotalAllocCount</text>
<text text-anchor="start" x="8" y="-37.5" font-family="Helvetica,sans-Serif" font-size="10.00">+ int TotalFreeCount</text>
<text text-anchor="start" x="8" y="-26.5" font-family="Helvetica,sans-Serif" font-size="10.00">+ ImS16 LastEntriesIdx</text>
<polyline fill="none" stroke="#666666" points="0,-19.5 139,-19.5 "/>
<text text-anchor="start" x="8" y="-7.5" font-family="Helvetica,sans-Serif" font-size="10.00">+ ImGuiDebugAllocInfo()</text>
</a>
</g>
</g>
<!-- Node2 -->
<g id="node2" class="node">
<title>Node2</title>
<g id="a_node2"><a xlink:href="structImGuiDebugAllocEntry.html" target="_top" xlink:title=" ">
<polygon fill="white" stroke="#666666" points="6,-127.5 6,-206.5 133,-206.5 133,-127.5 6,-127.5"/>
<text text-anchor="middle" x="69.5" y="-194.5" font-family="Helvetica,sans-Serif" font-size="10.00">ImGuiDebugAllocEntry</text>
<polyline fill="none" stroke="#666666" points="6,-187.5 133,-187.5 "/>
<text text-anchor="start" x="14" y="-175.5" font-family="Helvetica,sans-Serif" font-size="10.00">+ int FrameCount</text>
<text text-anchor="start" x="14" y="-164.5" font-family="Helvetica,sans-Serif" font-size="10.00">+ ImS16 AllocCount</text>
<text text-anchor="start" x="14" y="-153.5" font-family="Helvetica,sans-Serif" font-size="10.00">+ ImS16 FreeCount</text>
<polyline fill="none" stroke="#666666" points="6,-146.5 133,-146.5 "/>
<text text-anchor="middle" x="69.5" y="-134.5" font-family="Helvetica,sans-Serif" font-size="10.00"> </text>
</a>
</g>
</g>
<!-- Node2&#45;&gt;Node1 -->
<g id="edge1" class="edge">
<title>Node2&#45;&gt;Node1</title>
<path fill="none" stroke="#404040" d="M69.5,-127.48C69.5,-116.19 69.5,-103.67 69.5,-91.75"/>
<polygon fill="none" stroke="#404040" points="69.5,-91.61 65.5,-85.61 69.5,-79.61 73.5,-85.61 69.5,-91.61"/>
<text text-anchor="middle" x="110.5" y="-101" font-family="Helvetica,sans-Serif" font-size="10.00"> +LastEntriesBuf</text>
</g>
</g>
</svg>
