<?xml version="1.0" encoding="UTF-8" standalone="no"?>
<!DOCTYPE svg PUBLIC "-//W3C//DTD SVG 1.1//EN"
 "http://www.w3.org/Graphics/SVG/1.1/DTD/svg11.dtd">
<!-- Generated by graphviz version 2.43.0 (0)
 -->
<!-- Title: ImPool::Clear Pages: 1 -->
<svg width="548pt" height="70pt"
 viewBox="0.00 0.00 548.00 69.50" xmlns="http://www.w3.org/2000/svg" xmlns:xlink="http://www.w3.org/1999/xlink">
<g id="graph0" class="graph" transform="scale(1 1) rotate(0) translate(4 65.5)">
<title>ImPool::Clear</title>
<!-- Node1 -->
<g id="node1" class="node">
<title>Node1</title>
<g id="a_node1"><a xlink:title=" ">
<polygon fill="#999999" stroke="#666666" points="540,-37 458,-37 458,-18 540,-18 540,-37"/>
<text text-anchor="middle" x="499" y="-25" font-family="Helvetica,sans-Serif" font-size="10.00">ImPool::Clear</text>
</a>
</g>
</g>
<!-- Node2 -->
<g id="node2" class="node">
<title>Node2</title>
<g id="a_node2"><a xlink:href="namespaceImGui.html#aeba34069558d4fbcf734a9c92ce3b773" target="_top" xlink:title=" ">
<polygon fill="white" stroke="#666666" points="422,-56 322,-56 322,-37 422,-37 422,-56"/>
<text text-anchor="middle" x="372" y="-44" font-family="Helvetica,sans-Serif" font-size="10.00">ImGui::Shutdown</text>
</a>
</g>
</g>
<!-- Node1&#45;&gt;Node2 -->
<g id="edge1" class="edge">
<title>Node1&#45;&gt;Node2</title>
<path fill="none" stroke="#63b8ff" d="M447.75,-35.14C439.38,-36.41 430.7,-37.73 422.36,-39"/>
<polygon fill="#63b8ff" stroke="#63b8ff" points="448.4,-38.58 457.76,-33.62 447.35,-31.66 448.4,-38.58"/>
</g>
<!-- Node5 -->
<g id="node5" class="node">
<title>Node5</title>
<g id="a_node5"><a xlink:href="structImPool.html#aa0b55e4483e95d6723d51b5106de4bc2" target="_top" xlink:title=" ">
<polygon fill="white" stroke="#666666" points="421,-19 323,-19 323,0 421,0 421,-19"/>
<text text-anchor="middle" x="372" y="-7" font-family="Helvetica,sans-Serif" font-size="10.00">ImPool::~ImPool</text>
</a>
</g>
</g>
<!-- Node1&#45;&gt;Node5 -->
<g id="edge4" class="edge">
<title>Node1&#45;&gt;Node5</title>
<path fill="none" stroke="#63b8ff" d="M447.64,-20.25C438.86,-18.98 429.74,-17.67 421.02,-16.42"/>
<polygon fill="#63b8ff" stroke="#63b8ff" points="447.36,-23.74 457.76,-21.71 448.36,-16.82 447.36,-23.74"/>
</g>
<!-- Node3 -->
<g id="node3" class="node">
<title>Node3</title>
<g id="a_node3"><a xlink:href="namespaceImGui.html#ab9132deece575023170cd8e681d0581d" target="_top" xlink:title=" ">
<polygon fill="white" stroke="#666666" points="286,-56 158,-56 158,-37 286,-37 286,-56"/>
<text text-anchor="middle" x="222" y="-44" font-family="Helvetica,sans-Serif" font-size="10.00">ImGui::DestroyContext</text>
</a>
</g>
</g>
<!-- Node2&#45;&gt;Node3 -->
<g id="edge2" class="edge">
<title>Node2&#45;&gt;Node3</title>
<path fill="none" stroke="#63b8ff" d="M311.61,-46.5C303.19,-46.5 294.51,-46.5 286.02,-46.5"/>
<polygon fill="#63b8ff" stroke="#63b8ff" points="311.72,-50 321.72,-46.5 311.72,-43 311.72,-50"/>
</g>
<!-- Node4 -->
<g id="node4" class="node">
<title>Node4</title>
<g id="a_node4"><a xlink:href="classmtgb_1_1ImGuiRenderer.html#a9ef4f353cce28e09af4b18d95f4a253b" target="_top" xlink:title="開放処理">
<polygon fill="white" stroke="#666666" points="122,-61.5 0,-61.5 0,-31.5 122,-31.5 122,-61.5"/>
<text text-anchor="start" x="8" y="-49.5" font-family="Helvetica,sans-Serif" font-size="10.00">mtgb::ImGuiRenderer</text>
<text text-anchor="middle" x="61" y="-38.5" font-family="Helvetica,sans-Serif" font-size="10.00">::Release</text>
</a>
</g>
</g>
<!-- Node3&#45;&gt;Node4 -->
<g id="edge3" class="edge">
<title>Node3&#45;&gt;Node4</title>
<path fill="none" stroke="#63b8ff" d="M147.47,-46.5C139.02,-46.5 130.48,-46.5 122.23,-46.5"/>
<polygon fill="#63b8ff" stroke="#63b8ff" points="147.7,-50 157.7,-46.5 147.7,-43 147.7,-50"/>
</g>
</g>
</svg>
