<?xml version="1.0" encoding="UTF-8" standalone="no"?>
<!DOCTYPE svg PUBLIC "-//W3C//DTD SVG 1.1//EN"
 "http://www.w3.org/Graphics/SVG/1.1/DTD/svg11.dtd">
<!-- Generated by graphviz version 2.43.0 (0)
 -->
<!-- Title: ImGuiIO::AddInputCharacterUTF16 Pages: 1 -->
<svg width="1379pt" height="142pt"
 viewBox="0.00 0.00 1379.00 141.50" xmlns="http://www.w3.org/2000/svg" xmlns:xlink="http://www.w3.org/1999/xlink">
<g id="graph0" class="graph" transform="scale(1 1) rotate(0) translate(4 137.5)">
<title>ImGuiIO::AddInputCharacterUTF16</title>
<!-- Node1 -->
<g id="node1" class="node">
<title>Node1</title>
<g id="a_node1"><a xlink:title=" ">
<polygon fill="#999999" stroke="#666666" points="1371,-63.5 1218,-63.5 1218,-33.5 1371,-33.5 1371,-63.5"/>
<text text-anchor="start" x="1226" y="-51.5" font-family="Helvetica,sans-Serif" font-size="10.00">ImGuiIO::AddInputCharacter</text>
<text text-anchor="middle" x="1294.5" y="-40.5" font-family="Helvetica,sans-Serif" font-size="10.00">UTF16</text>
</a>
</g>
</g>
<!-- Node2 -->
<g id="node2" class="node">
<title>Node2</title>
<g id="a_node2"><a xlink:href="imgui__impl__win32_8cpp.html#a7038e1f34a0be8f5b6023a08973f4431" target="_top" xlink:title=" ">
<polygon fill="white" stroke="#666666" points="1182,-58 980,-58 980,-39 1182,-39 1182,-58"/>
<text text-anchor="middle" x="1081" y="-46" font-family="Helvetica,sans-Serif" font-size="10.00">ImGui_ImplWin32_WndProcHandlerEx</text>
</a>
</g>
</g>
<!-- Node1&#45;&gt;Node2 -->
<g id="edge1" class="edge">
<title>Node1&#45;&gt;Node2</title>
<path fill="none" stroke="#63b8ff" d="M1207.66,-48.5C1199.31,-48.5 1190.78,-48.5 1182.31,-48.5"/>
<polygon fill="#63b8ff" stroke="#63b8ff" points="1207.74,-52 1217.74,-48.5 1207.74,-45 1207.74,-52"/>
</g>
<!-- Node3 -->
<g id="node3" class="node">
<title>Node3</title>
<g id="a_node3"><a xlink:href="imgui__impl__win32_8cpp.html#a87a3f9652a75339308cf5fd5699ef1fd" target="_top" xlink:title="ウィンドウからのメッセージを受信してImGuiの入力やイベントを有効にするためのコールバック関数">
<polygon fill="white" stroke="#666666" points="944,-80 754,-80 754,-61 944,-61 944,-80"/>
<text text-anchor="middle" x="849" y="-68" font-family="Helvetica,sans-Serif" font-size="10.00">ImGui_ImplWin32_WndProcHandler</text>
</a>
</g>
</g>
<!-- Node2&#45;&gt;Node3 -->
<g id="edge2" class="edge">
<title>Node2&#45;&gt;Node3</title>
<path fill="none" stroke="#63b8ff" d="M970.27,-59C961.57,-59.83 952.83,-60.66 944.25,-61.48"/>
<polygon fill="#63b8ff" stroke="#63b8ff" points="970.84,-62.46 980.46,-58.02 970.17,-55.49 970.84,-62.46"/>
</g>
<!-- Node9 -->
<g id="node9" class="node">
<title>Node9</title>
<g id="a_node9"><a xlink:href="imgui__impl__win32_8cpp.html#ab4a89c5993eec0726141d49e8b105625" target="_top" xlink:title=" ">
<polygon fill="white" stroke="#666666" points="944,-42.5 754,-42.5 754,-12.5 944,-12.5 944,-42.5"/>
<text text-anchor="start" x="762" y="-30.5" font-family="Helvetica,sans-Serif" font-size="10.00">ImGui_ImplWin32_WndProcHandler</text>
<text text-anchor="middle" x="849" y="-19.5" font-family="Helvetica,sans-Serif" font-size="10.00">_PlatformWindow</text>
</a>
</g>
</g>
<!-- Node2&#45;&gt;Node9 -->
<g id="edge8" class="edge">
<title>Node2&#45;&gt;Node9</title>
<path fill="none" stroke="#63b8ff" d="M969.74,-38.43C961.16,-37.65 952.54,-36.86 944.07,-36.09"/>
<polygon fill="#63b8ff" stroke="#63b8ff" points="969.51,-41.93 979.79,-39.35 970.15,-34.96 969.51,-41.93"/>
</g>
<!-- Node4 -->
<g id="node4" class="node">
<title>Node4</title>
<g id="a_node4"><a xlink:href="classmtgb_1_1WindowResource.html#a93d540c3169105253fca5f4dad0cfff2" target="_top" xlink:title=" ">
<polygon fill="white" stroke="#666666" points="713.5,-130.5 573.5,-130.5 573.5,-100.5 713.5,-100.5 713.5,-130.5"/>
<text text-anchor="start" x="581.5" y="-118.5" font-family="Helvetica,sans-Serif" font-size="10.00">mtgb::WindowResource</text>
<text text-anchor="middle" x="643.5" y="-107.5" font-family="Helvetica,sans-Serif" font-size="10.00">::HandleWindowMessage</text>
</a>
</g>
</g>
<!-- Node3&#45;&gt;Node4 -->
<g id="edge3" class="edge">
<title>Node3&#45;&gt;Node4</title>
<path fill="none" stroke="#63b8ff" d="M794.75,-82.27C769.58,-87.84 739.23,-94.55 712.42,-100.48"/>
<polygon fill="#63b8ff" stroke="#63b8ff" points="795.83,-85.62 804.84,-80.04 794.32,-78.79 795.83,-85.62"/>
</g>
<!-- Node7 -->
<g id="node7" class="node">
<title>Node7</title>
<g id="a_node7"><a xlink:href="MainWindow_8cpp.html#a58295210e24883e25ca3ff5ade88600c" target="_top" xlink:title="ウィンドウからのメッセージを受信するコールバック関数">
<polygon fill="white" stroke="#666666" points="673,-80 614,-80 614,-61 673,-61 673,-80"/>
<text text-anchor="middle" x="643.5" y="-68" font-family="Helvetica,sans-Serif" font-size="10.00">WndProc</text>
</a>
</g>
</g>
<!-- Node3&#45;&gt;Node7 -->
<g id="edge6" class="edge">
<title>Node3&#45;&gt;Node7</title>
<path fill="none" stroke="#63b8ff" d="M743.65,-70.5C717.66,-70.5 691.9,-70.5 673.16,-70.5"/>
<polygon fill="#63b8ff" stroke="#63b8ff" points="743.99,-74 753.99,-70.5 743.99,-67 743.99,-74"/>
</g>
<!-- Node5 -->
<g id="node5" class="node">
<title>Node5</title>
<g id="a_node5"><a xlink:href="classmtgb_1_1WindowResource.html#acf07401470a2b365375026058b8c6cf8" target="_top" xlink:title="各ウィンドウに共通の処理を記述。これをWNDCLASSに渡す">
<polygon fill="white" stroke="#666666" points="518.5,-133.5 386.5,-133.5 386.5,-103.5 518.5,-103.5 518.5,-133.5"/>
<text text-anchor="start" x="394.5" y="-121.5" font-family="Helvetica,sans-Serif" font-size="10.00">mtgb::WindowResource</text>
<text text-anchor="middle" x="452.5" y="-110.5" font-family="Helvetica,sans-Serif" font-size="10.00">::WndProc</text>
</a>
</g>
</g>
<!-- Node4&#45;&gt;Node5 -->
<g id="edge4" class="edge">
<title>Node4&#45;&gt;Node5</title>
<path fill="none" stroke="#63b8ff" d="M563.26,-116.76C548.37,-116.99 532.97,-117.24 518.58,-117.47"/>
<polygon fill="#63b8ff" stroke="#63b8ff" points="563.52,-120.25 573.46,-116.6 563.41,-113.26 563.52,-120.25"/>
</g>
<!-- Node6 -->
<g id="node6" class="node">
<title>Node6</title>
<g id="a_node6"><a xlink:href="classmtgb_1_1WindowManager.html#a9b70ded51f3a15074a9c2ae8fe4969f5" target="_top" xlink:title=" ">
<polygon fill="white" stroke="#666666" points="313,-133.5 181,-133.5 181,-103.5 313,-103.5 313,-133.5"/>
<text text-anchor="start" x="189" y="-121.5" font-family="Helvetica,sans-Serif" font-size="10.00">mtgb::WindowManager</text>
<text text-anchor="middle" x="247" y="-110.5" font-family="Helvetica,sans-Serif" font-size="10.00">::CreateWindowContext</text>
</a>
</g>
</g>
<!-- Node5&#45;&gt;Node6 -->
<g id="edge5" class="edge">
<title>Node5&#45;&gt;Node6</title>
<path fill="none" stroke="#63b8ff" d="M376.25,-118.5C355.56,-118.5 333.29,-118.5 313.21,-118.5"/>
<polygon fill="#63b8ff" stroke="#63b8ff" points="376.27,-122 386.27,-118.5 376.27,-115 376.27,-122"/>
</g>
<!-- Node8 -->
<g id="node8" class="node">
<title>Node8</title>
<g id="a_node8"><a xlink:href="classmtgb_1_1MainWindow.html#a19e9ce6c3276dee48e9f34520f9c832e" target="_top" xlink:title=" ">
<polygon fill="white" stroke="#666666" points="533,-85.5 372,-85.5 372,-55.5 533,-55.5 533,-85.5"/>
<text text-anchor="start" x="380" y="-73.5" font-family="Helvetica,sans-Serif" font-size="10.00">mtgb::MainWindow::Generate</text>
<text text-anchor="middle" x="452.5" y="-62.5" font-family="Helvetica,sans-Serif" font-size="10.00">WndClassEx</text>
</a>
</g>
</g>
<!-- Node7&#45;&gt;Node8 -->
<g id="edge7" class="edge">
<title>Node7&#45;&gt;Node8</title>
<path fill="none" stroke="#63b8ff" d="M603.67,-70.5C583.31,-70.5 557.58,-70.5 533.21,-70.5"/>
<polygon fill="#63b8ff" stroke="#63b8ff" points="603.8,-74 613.79,-70.5 603.79,-67 603.8,-74"/>
</g>
<!-- Node10 -->
<g id="node10" class="node">
<title>Node10</title>
<g id="a_node10"><a xlink:href="imgui__impl__win32_8cpp.html#a580ea37efc232c8e76da164e876e0f54" target="_top" xlink:title=" ">
<polygon fill="white" stroke="#666666" points="718,-42.5 569,-42.5 569,-12.5 718,-12.5 718,-42.5"/>
<text text-anchor="start" x="577" y="-30.5" font-family="Helvetica,sans-Serif" font-size="10.00">ImGui_ImplWin32_InitMulti</text>
<text text-anchor="middle" x="643.5" y="-19.5" font-family="Helvetica,sans-Serif" font-size="10.00">ViewportSupport</text>
</a>
</g>
</g>
<!-- Node9&#45;&gt;Node10 -->
<g id="edge9" class="edge">
<title>Node9&#45;&gt;Node10</title>
<path fill="none" stroke="#63b8ff" d="M743.87,-27.5C735.24,-27.5 726.64,-27.5 718.3,-27.5"/>
<polygon fill="#63b8ff" stroke="#63b8ff" points="743.99,-31 753.99,-27.5 743.99,-24 743.99,-31"/>
</g>
<!-- Node11 -->
<g id="node11" class="node">
<title>Node11</title>
<g id="a_node11"><a xlink:href="imgui__impl__win32_8cpp.html#aae36e87f5370bd86a7ea10c76f742ccb" target="_top" xlink:title=" ">
<polygon fill="white" stroke="#666666" points="521,-37 384,-37 384,-18 521,-18 521,-37"/>
<text text-anchor="middle" x="452.5" y="-25" font-family="Helvetica,sans-Serif" font-size="10.00">ImGui_ImplWin32_InitEx</text>
</a>
</g>
</g>
<!-- Node10&#45;&gt;Node11 -->
<g id="edge10" class="edge">
<title>Node10&#45;&gt;Node11</title>
<path fill="none" stroke="#63b8ff" d="M558.83,-27.5C546.19,-27.5 533.29,-27.5 521.05,-27.5"/>
<polygon fill="#63b8ff" stroke="#63b8ff" points="558.89,-31 568.89,-27.5 558.89,-24 558.89,-31"/>
</g>
<!-- Node12 -->
<g id="node12" class="node">
<title>Node12</title>
<g id="a_node12"><a xlink:href="imgui__impl__win32_8cpp.html#a9f752412a1f6dfdf6fc00dbbd90a8428" target="_top" xlink:title=" ">
<polygon fill="white" stroke="#666666" points="309.5,-56 184.5,-56 184.5,-37 309.5,-37 309.5,-56"/>
<text text-anchor="middle" x="247" y="-44" font-family="Helvetica,sans-Serif" font-size="10.00">ImGui_ImplWin32_Init</text>
</a>
</g>
</g>
<!-- Node11&#45;&gt;Node12 -->
<g id="edge11" class="edge">
<title>Node11&#45;&gt;Node12</title>
<path fill="none" stroke="#63b8ff" d="M373.78,-34.76C352.55,-36.74 329.84,-38.86 309.64,-40.75"/>
<polygon fill="#63b8ff" stroke="#63b8ff" points="374.11,-38.24 383.74,-33.83 373.46,-31.27 374.11,-38.24"/>
</g>
<!-- Node14 -->
<g id="node14" class="node">
<title>Node14</title>
<g id="a_node14"><a xlink:href="imgui__impl__win32_8cpp.html#a62c65c5f453046a14119bc62234ac5b7" target="_top" xlink:title=" ">
<polygon fill="white" stroke="#666666" points="336,-19 158,-19 158,0 336,0 336,-19"/>
<text text-anchor="middle" x="247" y="-7" font-family="Helvetica,sans-Serif" font-size="10.00">ImGui_ImplWin32_InitForOpenGL</text>
</a>
</g>
</g>
<!-- Node11&#45;&gt;Node14 -->
<g id="edge13" class="edge">
<title>Node11&#45;&gt;Node14</title>
<path fill="none" stroke="#63b8ff" d="M373.57,-20.61C361.32,-19.52 348.57,-18.4 336.1,-17.29"/>
<polygon fill="#63b8ff" stroke="#63b8ff" points="373.47,-24.11 383.74,-21.51 374.08,-17.14 373.47,-24.11"/>
</g>
<!-- Node13 -->
<g id="node13" class="node">
<title>Node13</title>
<g id="a_node13"><a xlink:href="classmtgb_1_1ImGuiRenderer.html#a4db4a95a57f586a5fda30be1957f247a" target="_top" xlink:title=" ">
<polygon fill="white" stroke="#666666" points="122,-61.5 0,-61.5 0,-31.5 122,-31.5 122,-61.5"/>
<text text-anchor="start" x="8" y="-49.5" font-family="Helvetica,sans-Serif" font-size="10.00">mtgb::ImGuiRenderer</text>
<text text-anchor="middle" x="61" y="-38.5" font-family="Helvetica,sans-Serif" font-size="10.00">::Initialize</text>
</a>
</g>
</g>
<!-- Node12&#45;&gt;Node13 -->
<g id="edge12" class="edge">
<title>Node12&#45;&gt;Node13</title>
<path fill="none" stroke="#63b8ff" d="M174.45,-46.5C157.18,-46.5 138.9,-46.5 122.22,-46.5"/>
<polygon fill="#63b8ff" stroke="#63b8ff" points="174.47,-50 184.47,-46.5 174.47,-43 174.47,-50"/>
</g>
</g>
</svg>
