<?xml version="1.0" encoding="UTF-8" standalone="no"?>
<!DOCTYPE svg PUBLIC "-//W3C//DTD SVG 1.1//EN"
 "http://www.w3.org/Graphics/SVG/1.1/DTD/svg11.dtd">
<!-- Generated by graphviz version 2.43.0 (0)
 -->
<!-- Title: mtgb::Quaternion::FromToRotation Pages: 1 -->
<svg width="475pt" height="38pt"
 viewBox="0.00 0.00 475.00 38.00" xmlns="http://www.w3.org/2000/svg" xmlns:xlink="http://www.w3.org/1999/xlink">
<g id="graph0" class="graph" transform="scale(1 1) rotate(0) translate(4 34)">
<title>mtgb::Quaternion::FromToRotation</title>
<!-- Node1 -->
<g id="node1" class="node">
<title>Node1</title>
<g id="a_node1"><a xlink:title="今向いている方向と、これから向きたい方向から四元数を作成">
<polygon fill="#999999" stroke="#666666" points="143,-30 0,-30 0,0 143,0 143,-30"/>
<text text-anchor="start" x="8" y="-18" font-family="Helvetica,sans-Serif" font-size="10.00">mtgb::Quaternion::FromTo</text>
<text text-anchor="middle" x="71.5" y="-7" font-family="Helvetica,sans-Serif" font-size="10.00">Rotation</text>
</a>
</g>
</g>
<!-- Node2 -->
<g id="node2" class="node">
<title>Node2</title>
<g id="a_node2"><a xlink:href="structmtgb_1_1Vector3.html#ae4cb4e8c99cfae50150e86f1f1450acc" target="_top" xlink:title=" ">
<polygon fill="white" stroke="#666666" points="320,-24.5 179,-24.5 179,-5.5 320,-5.5 320,-24.5"/>
<text text-anchor="middle" x="249.5" y="-12.5" font-family="Helvetica,sans-Serif" font-size="10.00">mtgb::Vector3::Normalize</text>
</a>
</g>
</g>
<!-- Node1&#45;&gt;Node2 -->
<g id="edge1" class="edge">
<title>Node1&#45;&gt;Node2</title>
<path fill="none" stroke="#63b8ff" d="M143.07,-15C151.43,-15 160.02,-15 168.5,-15"/>
<polygon fill="#63b8ff" stroke="#63b8ff" points="168.77,-18.5 178.77,-15 168.77,-11.5 168.77,-18.5"/>
</g>
<!-- Node3 -->
<g id="node3" class="node">
<title>Node3</title>
<g id="a_node3"><a xlink:href="structmtgb_1_1Vector3.html#a7da613a1086e5e1a58950d3d93746d2b" target="_top" xlink:title=" ">
<polygon fill="white" stroke="#666666" points="467,-24.5 356,-24.5 356,-5.5 467,-5.5 467,-24.5"/>
<text text-anchor="middle" x="411.5" y="-12.5" font-family="Helvetica,sans-Serif" font-size="10.00">mtgb::Vector3::Size</text>
</a>
</g>
</g>
<!-- Node2&#45;&gt;Node3 -->
<g id="edge2" class="edge">
<title>Node2&#45;&gt;Node3</title>
<path fill="none" stroke="#63b8ff" d="M320.21,-15C328.71,-15 337.37,-15 345.8,-15"/>
<polygon fill="#63b8ff" stroke="#63b8ff" points="345.93,-18.5 355.93,-15 345.93,-11.5 345.93,-18.5"/>
</g>
</g>
</svg>
