<?xml version="1.0" encoding="UTF-8" standalone="no"?>
<!DOCTYPE svg PUBLIC "-//W3C//DTD SVG 1.1//EN"
 "http://www.w3.org/Graphics/SVG/1.1/DTD/svg11.dtd">
<!-- Generated by graphviz version 2.43.0 (0)
 -->
<!-- Title: mtgb::Vector3::Forward Pages: 1 -->
<svg width="498pt" height="209pt"
 viewBox="0.00 0.00 498.00 208.50" xmlns="http://www.w3.org/2000/svg" xmlns:xlink="http://www.w3.org/1999/xlink">
<g id="graph0" class="graph" transform="scale(1 1) rotate(0) translate(4 204.5)">
<title>mtgb::Vector3::Forward</title>
<!-- Node1 -->
<g id="node1" class="node">
<title>Node1</title>
<g id="a_node1"><a xlink:title=" ">
<polygon fill="#999999" stroke="#666666" points="490,-112 360,-112 360,-93 490,-93 490,-112"/>
<text text-anchor="middle" x="425" y="-100" font-family="Helvetica,sans-Serif" font-size="10.00">mtgb::Vector3::Forward</text>
</a>
</g>
</g>
<!-- Node2 -->
<g id="node2" class="node">
<title>Node2</title>
<g id="a_node2"><a xlink:href="classmtgb_1_1ImGuiEditorCamera.html#aa90ccf988aea53027161e8d9d553bc74" target="_top" xlink:title=" ">
<polygon fill="white" stroke="#666666" points="324,-186.5 180,-186.5 180,-156.5 324,-156.5 324,-186.5"/>
<text text-anchor="start" x="188" y="-174.5" font-family="Helvetica,sans-Serif" font-size="10.00">mtgb::ImGuiEditorCamera</text>
<text text-anchor="middle" x="252" y="-163.5" font-family="Helvetica,sans-Serif" font-size="10.00">::DoTrack</text>
</a>
</g>
</g>
<!-- Node1&#45;&gt;Node2 -->
<g id="edge1" class="edge">
<title>Node1&#45;&gt;Node2</title>
<path fill="none" stroke="#63b8ff" d="M390.61,-115.97C361.82,-127.59 320.28,-144.35 290.38,-156.42"/>
<polygon fill="#63b8ff" stroke="#63b8ff" points="392.26,-119.08 400.22,-112.09 389.64,-112.59 392.26,-119.08"/>
</g>
<!-- Node4 -->
<g id="node4" class="node">
<title>Node4</title>
<g id="a_node4"><a xlink:href="classmtgb_1_1Transform.html#a95361d2c6ec0ff51183e7c1221e5ae0e" target="_top" xlink:title="前方向のワールドベクトル">
<polygon fill="white" stroke="#666666" points="323,-112 181,-112 181,-93 323,-93 323,-112"/>
<text text-anchor="middle" x="252" y="-100" font-family="Helvetica,sans-Serif" font-size="10.00">mtgb::Transform::Forward</text>
</a>
</g>
</g>
<!-- Node1&#45;&gt;Node4 -->
<g id="edge3" class="edge">
<title>Node1&#45;&gt;Node4</title>
<path fill="none" stroke="#63b8ff" d="M349.65,-102.5C340.88,-102.5 331.96,-102.5 323.25,-102.5"/>
<polygon fill="#63b8ff" stroke="#63b8ff" points="349.84,-106 359.84,-102.5 349.84,-99 349.84,-106"/>
</g>
<!-- Node7 -->
<g id="node7" class="node">
<title>Node7</title>
<g id="a_node7"><a xlink:href="BoxPlane_8cpp.html#a1d010ed351241a47694365e9de47bd06" target="_top" xlink:title="AABBから指定された向きの平面を返す">
<polygon fill="white" stroke="#666666" points="282.5,-56 221.5,-56 221.5,-37 282.5,-37 282.5,-56"/>
<text text-anchor="middle" x="252" y="-44" font-family="Helvetica,sans-Serif" font-size="10.00">GetPlane</text>
</a>
</g>
</g>
<!-- Node1&#45;&gt;Node7 -->
<g id="edge6" class="edge">
<title>Node1&#45;&gt;Node7</title>
<path fill="none" stroke="#63b8ff" d="M384.89,-89.69C353.56,-79.43 310.31,-65.27 282.01,-56"/>
<polygon fill="#63b8ff" stroke="#63b8ff" points="384.01,-93.09 394.6,-92.87 386.19,-86.43 384.01,-93.09"/>
</g>
<!-- Node3 -->
<g id="node3" class="node">
<title>Node3</title>
<g id="a_node3"><a xlink:href="classmtgb_1_1ImGuiEditorCamera.html#ae593d5e8b81e1fe8d6efc3ddb8ecb9a2" target="_top" xlink:title=" ">
<polygon fill="white" stroke="#666666" points="144,-200.5 0,-200.5 0,-170.5 144,-170.5 144,-200.5"/>
<text text-anchor="start" x="8" y="-188.5" font-family="Helvetica,sans-Serif" font-size="10.00">mtgb::ImGuiEditorCamera</text>
<text text-anchor="middle" x="72" y="-177.5" font-family="Helvetica,sans-Serif" font-size="10.00">::ImGuiEditorCamera</text>
</a>
</g>
</g>
<!-- Node2&#45;&gt;Node3 -->
<g id="edge2" class="edge">
<title>Node2&#45;&gt;Node3</title>
<path fill="none" stroke="#63b8ff" d="M169.83,-177.88C161.21,-178.56 152.49,-179.25 144,-179.92"/>
<polygon fill="#63b8ff" stroke="#63b8ff" points="170.19,-181.37 179.88,-177.09 169.64,-174.39 170.19,-181.37"/>
</g>
<!-- Node5 -->
<g id="node5" class="node">
<title>Node5</title>
<g id="a_node5"><a xlink:href="classPatrolChargerEnemy.html#a8edb3d2def00850fcdf45a89dd9b178c" target="_top" xlink:title=" ">
<polygon fill="white" stroke="#666666" points="130,-152.5 14,-152.5 14,-122.5 130,-122.5 130,-152.5"/>
<text text-anchor="start" x="22" y="-140.5" font-family="Helvetica,sans-Serif" font-size="10.00">PatrolChargerEnemy</text>
<text text-anchor="middle" x="72" y="-129.5" font-family="Helvetica,sans-Serif" font-size="10.00">::Search</text>
</a>
</g>
</g>
<!-- Node4&#45;&gt;Node5 -->
<g id="edge4" class="edge">
<title>Node4&#45;&gt;Node5</title>
<path fill="none" stroke="#63b8ff" d="M192.43,-114.02C172.39,-117.96 150.02,-122.36 130.1,-126.27"/>
<polygon fill="#63b8ff" stroke="#63b8ff" points="193.22,-117.43 202.36,-112.06 191.87,-110.56 193.22,-117.43"/>
</g>
<!-- Node6 -->
<g id="node6" class="node">
<title>Node6</title>
<g id="a_node6"><a xlink:href="classmtgb_1_1RayDetector.html#a927a7b71d5f27184afe1a8f3ca9579d8" target="_top" xlink:title="検出を実行（設定指定）">
<polygon fill="white" stroke="#666666" points="129.5,-104.5 14.5,-104.5 14.5,-74.5 129.5,-74.5 129.5,-104.5"/>
<text text-anchor="start" x="22.5" y="-92.5" font-family="Helvetica,sans-Serif" font-size="10.00">mtgb::RayDetector::</text>
<text text-anchor="middle" x="72" y="-81.5" font-family="Helvetica,sans-Serif" font-size="10.00">UpdateDetection</text>
</a>
</g>
</g>
<!-- Node4&#45;&gt;Node6 -->
<g id="edge5" class="edge">
<title>Node4&#45;&gt;Node6</title>
<path fill="none" stroke="#63b8ff" d="M170.84,-96.65C156.92,-95.63 142.7,-94.59 129.58,-93.63"/>
<polygon fill="#63b8ff" stroke="#63b8ff" points="170.68,-100.14 180.91,-97.38 171.19,-93.16 170.68,-100.14"/>
</g>
<!-- Node8 -->
<g id="node8" class="node">
<title>Node8</title>
<g id="a_node8"><a xlink:href="BoxPlane_8cpp.html#a57d57c265bcec06150ac680075ba94c0" target="_top" xlink:title=" ">
<polygon fill="white" stroke="#666666" points="125.5,-56 18.5,-56 18.5,-37 125.5,-37 125.5,-56"/>
<text text-anchor="middle" x="72" y="-44" font-family="Helvetica,sans-Serif" font-size="10.00">GetPlaneAngleRad</text>
</a>
</g>
</g>
<!-- Node7&#45;&gt;Node8 -->
<g id="edge7" class="edge">
<title>Node7&#45;&gt;Node8</title>
<path fill="none" stroke="#63b8ff" d="M210.9,-46.5C185.69,-46.5 152.89,-46.5 125.6,-46.5"/>
<polygon fill="#63b8ff" stroke="#63b8ff" points="211.21,-50 221.21,-46.5 211.21,-43 211.21,-50"/>
</g>
<!-- Node9 -->
<g id="node9" class="node">
<title>Node9</title>
<g id="a_node9"><a xlink:href="BoxPlane_8cpp.html#aa8091f419f272b80b543567d2adda8b3" target="_top" xlink:title=" ">
<polygon fill="white" stroke="#666666" points="125,-19 19,-19 19,0 125,0 125,-19"/>
<text text-anchor="middle" x="72" y="-7" font-family="Helvetica,sans-Serif" font-size="10.00">TryGetFacingPlane</text>
</a>
</g>
</g>
<!-- Node7&#45;&gt;Node9 -->
<g id="edge8" class="edge">
<title>Node7&#45;&gt;Node9</title>
<path fill="none" stroke="#63b8ff" d="M211.21,-38.23C183.88,-32.55 147.52,-24.99 118.96,-19.05"/>
<polygon fill="#63b8ff" stroke="#63b8ff" points="210.7,-41.7 221.21,-40.31 212.13,-34.85 210.7,-41.7"/>
</g>
</g>
</svg>
