<?xml version="1.0" encoding="UTF-8" standalone="no"?>
<!DOCTYPE svg PUBLIC "-//W3C//DTD SVG 1.1//EN"
 "http://www.w3.org/Graphics/SVG/1.1/DTD/svg11.dtd">
<!-- Generated by graphviz version 2.43.0 (0)
 -->
<!-- Title: ImDrawList::AddTriangle Pages: 1 -->
<svg width="1303pt" height="354pt"
 viewBox="0.00 0.00 1303.00 353.68" xmlns="http://www.w3.org/2000/svg" xmlns:xlink="http://www.w3.org/1999/xlink">
<g id="graph0" class="graph" transform="scale(1 1) rotate(0) translate(4 349.68)">
<title>ImDrawList::AddTriangle</title>
<!-- Node1 -->
<g id="node1" class="node">
<title>Node1</title>
<g id="a_node1"><a xlink:title=" ">
<polygon fill="#999999" stroke="#666666" points="1295,-137 1160,-137 1160,-118 1295,-118 1295,-137"/>
<text text-anchor="middle" x="1227.5" y="-125" font-family="Helvetica,sans-Serif" font-size="10.00">ImDrawList::AddTriangle</text>
</a>
</g>
</g>
<!-- Node2 -->
<g id="node2" class="node">
<title>Node2</title>
<g id="a_node2"><a xlink:href="namespaceImGui.html#a3d5aae9e0a14aa051d5a799abbe97b32" target="_top" xlink:title=" ">
<polygon fill="white" stroke="#666666" points="1124,-240 1011,-240 1011,-221 1124,-221 1124,-240"/>
<text text-anchor="middle" x="1067.5" y="-228" font-family="Helvetica,sans-Serif" font-size="10.00">ImGui::ColorPicker4</text>
</a>
</g>
</g>
<!-- Node1&#45;&gt;Node2 -->
<g id="edge1" class="edge">
<title>Node1&#45;&gt;Node2</title>
<path fill="none" stroke="#63b8ff" d="M1203.4,-142.56C1170.54,-163.98 1111.21,-202.66 1083.51,-220.72"/>
<polygon fill="#63b8ff" stroke="#63b8ff" points="1205.45,-145.4 1211.92,-137.01 1201.63,-139.53 1205.45,-145.4"/>
</g>
<!-- Node15 -->
<g id="node15" class="node">
<title>Node15</title>
<g id="a_node15"><a xlink:href="imgui__demo_8cpp.html#a0729207a285af6ef57ce5a31d1a60348" target="_top" xlink:title=" ">
<polygon fill="white" stroke="#666666" points="795,-19 604,-19 604,0 795,0 795,-19"/>
<text text-anchor="middle" x="699.5" y="-7" font-family="Helvetica,sans-Serif" font-size="10.00">ShowExampleAppCustomRendering</text>
</a>
</g>
</g>
<!-- Node1&#45;&gt;Node15 -->
<g id="edge32" class="edge">
<title>Node1&#45;&gt;Node15</title>
<path fill="none" stroke="#63b8ff" d="M1173.92,-115.7C1069.68,-92.32 838.66,-40.49 743.13,-19.06"/>
<polygon fill="#63b8ff" stroke="#63b8ff" points="1173.38,-119.17 1183.9,-117.94 1174.91,-112.34 1173.38,-119.17"/>
</g>
<!-- Node3 -->
<g id="node3" class="node">
<title>Node3</title>
<g id="a_node3"><a xlink:href="namespaceImGui.html#ac3f45e2aa0b1d591cc8a2cdf8b566a45" target="_top" xlink:title=" ">
<polygon fill="white" stroke="#666666" points="954,-197 852,-197 852,-178 954,-178 954,-197"/>
<text text-anchor="middle" x="903" y="-185" font-family="Helvetica,sans-Serif" font-size="10.00">ImGui::ColorEdit4</text>
</a>
</g>
</g>
<!-- Node2&#45;&gt;Node3 -->
<g id="edge2" class="edge">
<title>Node2&#45;&gt;Node3</title>
<path fill="none" stroke="#63b8ff" d="M1037.97,-217.67C1014.82,-210.01 981.6,-200.89 954.04,-194.45"/>
<polygon fill="#63b8ff" stroke="#63b8ff" points="1036.95,-221.02 1047.54,-220.96 1039.22,-214.4 1036.95,-221.02"/>
</g>
<!-- Node8 -->
<g id="node8" class="node">
<title>Node8</title>
<g id="a_node8"><a xlink:href="imgui__demo_8cpp.html#a9180ea582cf916de587f175b1a8aad03" target="_top" xlink:title=" ">
<polygon fill="white" stroke="#666666" points="557.5,-299.5 388.5,-299.5 388.5,-269.5 557.5,-269.5 557.5,-299.5"/>
<text text-anchor="start" x="396.5" y="-287.5" font-family="Helvetica,sans-Serif" font-size="10.00">DemoWindowWidgetsColorAnd</text>
<text text-anchor="middle" x="473" y="-276.5" font-family="Helvetica,sans-Serif" font-size="10.00">Pickers</text>
</a>
</g>
</g>
<!-- Node2&#45;&gt;Node8 -->
<g id="edge31" class="edge">
<title>Node2&#45;&gt;Node8</title>
<path fill="none" stroke="#63b8ff" d="M1052.73,-248.12C1036.51,-267.31 1007.61,-296.95 975,-309.5 818.74,-369.61 614.63,-325.34 522.66,-299.56"/>
<polygon fill="#63b8ff" stroke="#63b8ff" points="1055.64,-250.09 1059.25,-240.13 1050.22,-245.66 1055.64,-250.09"/>
</g>
<!-- Node17 -->
<g id="node17" class="node">
<title>Node17</title>
<g id="a_node17"><a xlink:href="namespaceImGui.html#a2a2a98cb9a17b18702be6b954670b388" target="_top" xlink:title=" ">
<polygon fill="white" stroke="#666666" points="959.5,-300 846.5,-300 846.5,-281 959.5,-281 959.5,-300"/>
<text text-anchor="middle" x="903" y="-288" font-family="Helvetica,sans-Serif" font-size="10.00">ImGui::ColorPicker3</text>
</a>
</g>
</g>
<!-- Node2&#45;&gt;Node17 -->
<g id="edge27" class="edge">
<title>Node2&#45;&gt;Node17</title>
<path fill="none" stroke="#63b8ff" d="M1031.33,-243.48C1000.81,-254.75 957.33,-270.81 929.9,-280.94"/>
<polygon fill="#63b8ff" stroke="#63b8ff" points="1032.58,-246.75 1040.75,-240.01 1030.16,-240.19 1032.58,-246.75"/>
</g>
<!-- Node18 -->
<g id="node18" class="node">
<title>Node18</title>
<g id="a_node18"><a xlink:href="namespaceImGui.html#a6d112eeb6d8ffdebbc9d9a8c66babbee" target="_top" xlink:title=" ">
<polygon fill="white" stroke="#666666" points="975,-245.5 831,-245.5 831,-215.5 975,-215.5 975,-245.5"/>
<text text-anchor="start" x="839" y="-233.5" font-family="Helvetica,sans-Serif" font-size="10.00">ImGui::ColorPickerOptions</text>
<text text-anchor="middle" x="903" y="-222.5" font-family="Helvetica,sans-Serif" font-size="10.00">Popup</text>
</a>
</g>
</g>
<!-- Node2&#45;&gt;Node18 -->
<g id="edge29" class="edge">
<title>Node2&#45;&gt;Node18</title>
<path fill="none" stroke="#63b8ff" d="M1000.54,-223.86C992.21,-223.74 983.65,-223.72 975.24,-223.8"/>
<polygon fill="#63b8ff" stroke="#63b8ff" points="1000.51,-227.36 1010.58,-224.05 1000.65,-220.36 1000.51,-227.36"/>
</g>
<!-- Node3&#45;&gt;Node2 -->
<g id="edge14" class="edge">
<title>Node3&#45;&gt;Node2</title>
<path fill="none" stroke="#63b8ff" d="M932.48,-200.31C954.01,-207.44 984.26,-215.83 1010.58,-222.15"/>
<polygon fill="#63b8ff" stroke="#63b8ff" points="933.55,-196.98 922.95,-197.04 931.27,-203.6 933.55,-196.98"/>
</g>
<!-- Node4 -->
<g id="node4" class="node">
<title>Node4</title>
<g id="a_node4"><a xlink:href="namespaceImGui.html#a5afe76ba1c91f07363e40396e7df656e" target="_top" xlink:title=" ">
<polygon fill="white" stroke="#666666" points="750.5,-181 648.5,-181 648.5,-162 750.5,-162 750.5,-181"/>
<text text-anchor="middle" x="699.5" y="-169" font-family="Helvetica,sans-Serif" font-size="10.00">ImGui::ColorEdit3</text>
</a>
</g>
</g>
<!-- Node3&#45;&gt;Node4 -->
<g id="edge3" class="edge">
<title>Node3&#45;&gt;Node4</title>
<path fill="none" stroke="#63b8ff" d="M841.89,-182.73C812.81,-180.42 778.3,-177.68 750.66,-175.48"/>
<polygon fill="#63b8ff" stroke="#63b8ff" points="841.69,-186.22 851.93,-183.52 842.24,-179.24 841.69,-186.22"/>
</g>
<!-- Node5 -->
<g id="node5" class="node">
<title>Node5</title>
<g id="a_node5"><a xlink:href="imgui__demo_8cpp.html#a89786289048f1a477095224630738f3a" target="_top" xlink:title=" ">
<polygon fill="white" stroke="#666666" points="548.5,-140 397.5,-140 397.5,-121 548.5,-121 548.5,-140"/>
<text text-anchor="middle" x="473" y="-128" font-family="Helvetica,sans-Serif" font-size="10.00">DemoWindowWidgetsBasic</text>
</a>
</g>
</g>
<!-- Node3&#45;&gt;Node5 -->
<g id="edge17" class="edge">
<title>Node3&#45;&gt;Node5</title>
<path fill="none" stroke="#63b8ff" d="M868.14,-174.48C847.35,-167.05 820,-158.3 795,-153.5 711.6,-137.49 614.07,-132.39 548.59,-130.88"/>
<polygon fill="#63b8ff" stroke="#63b8ff" points="867.18,-177.85 877.78,-177.99 869.58,-171.28 867.18,-177.85"/>
</g>
<!-- Node3&#45;&gt;Node8 -->
<g id="edge18" class="edge">
<title>Node3&#45;&gt;Node8</title>
<path fill="none" stroke="#63b8ff" d="M842.41,-200.5C838.43,-202.25 834.58,-204.24 831,-206.5 810.19,-219.6 816.73,-237 795,-248.5 721.53,-287.4 625.5,-293.32 557.68,-291.41"/>
<polygon fill="#63b8ff" stroke="#63b8ff" points="843.84,-203.7 851.89,-196.81 841.31,-197.17 843.84,-203.7"/>
</g>
<!-- Node9 -->
<g id="node9" class="node">
<title>Node9</title>
<g id="a_node9"><a xlink:href="imgui__demo_8cpp.html#a7a0698f1d728b2cb85f0be86b7e9521d" target="_top" xlink:title=" ">
<polygon fill="white" stroke="#666666" points="568,-226 378,-226 378,-207 568,-207 568,-226"/>
<text text-anchor="middle" x="473" y="-214" font-family="Helvetica,sans-Serif" font-size="10.00">DemoWindowWidgetsDragAndDrop</text>
</a>
</g>
</g>
<!-- Node3&#45;&gt;Node9 -->
<g id="edge19" class="edge">
<title>Node3&#45;&gt;Node9</title>
<path fill="none" stroke="#63b8ff" d="M849.21,-199.94C842.99,-201.9 836.8,-204.08 831,-206.5 813.9,-213.62 812.88,-222.67 795,-227.5 698.78,-253.51 580.43,-237.84 517.76,-226.01"/>
<polygon fill="#63b8ff" stroke="#63b8ff" points="850.37,-203.24 858.96,-197.04 848.38,-196.53 850.37,-203.24"/>
</g>
<!-- Node12 -->
<g id="node12" class="node">
<title>Node12</title>
<g id="a_node12"><a xlink:href="imgui__demo_8cpp.html#ada26445b1805241717bae1ad5eabf99b" target="_top" xlink:title=" ">
<polygon fill="white" stroke="#666666" points="322,-295 202,-295 202,-276 322,-276 322,-295"/>
<text text-anchor="middle" x="262" y="-283" font-family="Helvetica,sans-Serif" font-size="10.00">DemoWindowPopups</text>
</a>
</g>
</g>
<!-- Node3&#45;&gt;Node12 -->
<g id="edge15" class="edge">
<title>Node3&#45;&gt;Node12</title>
<path fill="none" stroke="#63b8ff" d="M842.56,-198.97C838.42,-201.07 834.51,-203.56 831,-206.5 802.04,-230.76 825.71,-261.5 795,-283.5 635.07,-398.06 372.98,-323.37 289.45,-295.05"/>
<polygon fill="#63b8ff" stroke="#63b8ff" points="844.12,-202.11 851.92,-194.94 841.35,-195.68 844.12,-202.11"/>
</g>
<!-- Node13 -->
<g id="node13" class="node">
<title>Node13</title>
<g id="a_node13"><a xlink:href="imgui__demo_8cpp.html#a5de91117986b51cfb587630d6ff46205" target="_top" xlink:title=" ">
<polygon fill="white" stroke="#666666" points="784,-105.5 615,-105.5 615,-75.5 784,-75.5 784,-105.5"/>
<text text-anchor="start" x="623" y="-93.5" font-family="Helvetica,sans-Serif" font-size="10.00">DemoWindowWidgetsQuerying</text>
<text text-anchor="middle" x="699.5" y="-82.5" font-family="Helvetica,sans-Serif" font-size="10.00">Statuses</text>
</a>
</g>
</g>
<!-- Node3&#45;&gt;Node13 -->
<g id="edge20" class="edge">
<title>Node3&#45;&gt;Node13</title>
<path fill="none" stroke="#63b8ff" d="M881.34,-171.99C860.47,-156.91 826.83,-134.17 795,-119.5 783.47,-114.18 770.71,-109.52 758.39,-105.57"/>
<polygon fill="#63b8ff" stroke="#63b8ff" points="879.33,-174.86 889.47,-177.94 883.47,-169.21 879.33,-174.86"/>
</g>
<!-- Node14 -->
<g id="node14" class="node">
<title>Node14</title>
<g id="a_node14"><a xlink:href="namespaceGraphEditor.html#ab77d94f304b61bc0a8cdfe89c9307b3a" target="_top" xlink:title=" ">
<polygon fill="white" stroke="#666666" points="768,-218 631,-218 631,-199 768,-199 768,-218"/>
<text text-anchor="middle" x="699.5" y="-206" font-family="Helvetica,sans-Serif" font-size="10.00">GraphEditor::EditOptions</text>
</a>
</g>
</g>
<!-- Node3&#45;&gt;Node14 -->
<g id="edge22" class="edge">
<title>Node3&#45;&gt;Node14</title>
<path fill="none" stroke="#63b8ff" d="M841.88,-193.77C818.69,-196.18 792.05,-198.96 768.19,-201.44"/>
<polygon fill="#63b8ff" stroke="#63b8ff" points="842.35,-197.24 851.93,-192.72 841.62,-190.27 842.35,-197.24"/>
</g>
<!-- Node3&#45;&gt;Node15 -->
<g id="edge23" class="edge">
<title>Node3&#45;&gt;Node15</title>
<path fill="none" stroke="#63b8ff" d="M886.25,-170.57C871.08,-153.78 848,-126.96 831,-101.5 812.02,-73.06 821.88,-54.64 795,-33.5 787.02,-27.22 777.58,-22.57 767.82,-19.12"/>
<polygon fill="#63b8ff" stroke="#63b8ff" points="883.67,-172.93 893,-177.95 888.84,-168.21 883.67,-172.93"/>
</g>
<!-- Node16 -->
<g id="node16" class="node">
<title>Node16</title>
<g id="a_node16"><a xlink:href="namespaceImGui.html#ab2eb3dec78d054fe3feab1c091ec5de5" target="_top" xlink:title=" ">
<polygon fill="white" stroke="#666666" points="327.5,-82 196.5,-82 196.5,-63 327.5,-63 327.5,-82"/>
<text text-anchor="middle" x="262" y="-70" font-family="Helvetica,sans-Serif" font-size="10.00">ImGui::ShowStyleEditor</text>
</a>
</g>
</g>
<!-- Node3&#45;&gt;Node16 -->
<g id="edge25" class="edge">
<title>Node3&#45;&gt;Node16</title>
<path fill="none" stroke="#63b8ff" d="M887.56,-169.61C861.3,-137.3 807.27,-72.03 795,-66.5 713.42,-29.74 450.6,-52.06 327.6,-65.09"/>
<polygon fill="#63b8ff" stroke="#63b8ff" points="885.16,-172.2 894.18,-177.77 890.6,-167.8 885.16,-172.2"/>
</g>
<!-- Node4&#45;&gt;Node5 -->
<g id="edge4" class="edge">
<title>Node4&#45;&gt;Node5</title>
<path fill="none" stroke="#63b8ff" d="M638.32,-160.51C603.38,-154.13 559.79,-146.17 526.29,-140.05"/>
<polygon fill="#63b8ff" stroke="#63b8ff" points="637.93,-164 648.4,-162.35 639.19,-157.11 637.93,-164"/>
</g>
<!-- Node4&#45;&gt;Node8 -->
<g id="edge7" class="edge">
<title>Node4&#45;&gt;Node8</title>
<path fill="none" stroke="#63b8ff" d="M638.11,-177.14C626.22,-180 614.27,-184.24 604,-190.5 582.13,-203.83 587.78,-219.23 568,-235.5 551.09,-249.41 529.58,-260.98 511.42,-269.37"/>
<polygon fill="#63b8ff" stroke="#63b8ff" points="638.97,-180.53 648.03,-175.04 637.52,-173.68 638.97,-180.53"/>
</g>
<!-- Node4&#45;&gt;Node9 -->
<g id="edge9" class="edge">
<title>Node4&#45;&gt;Node9</title>
<path fill="none" stroke="#63b8ff" d="M640.75,-183.08C603.76,-190.49 556.35,-199.99 521.54,-206.97"/>
<polygon fill="#63b8ff" stroke="#63b8ff" points="641.77,-186.44 650.89,-181.04 640.4,-179.58 641.77,-186.44"/>
</g>
<!-- Node10 -->
<g id="node10" class="node">
<title>Node10</title>
<g id="a_node10"><a xlink:href="structExampleAppDocuments.html#a007a1a59693a3c7fc7d87815e022dbe4" target="_top" xlink:title=" ">
<polygon fill="white" stroke="#666666" points="540,-188.5 406,-188.5 406,-158.5 540,-158.5 540,-188.5"/>
<text text-anchor="start" x="414" y="-176.5" font-family="Helvetica,sans-Serif" font-size="10.00">ExampleAppDocuments</text>
<text text-anchor="middle" x="473" y="-165.5" font-family="Helvetica,sans-Serif" font-size="10.00">::DisplayDocContents</text>
</a>
</g>
</g>
<!-- Node4&#45;&gt;Node10 -->
<g id="edge11" class="edge">
<title>Node4&#45;&gt;Node10</title>
<path fill="none" stroke="#63b8ff" d="M638.39,-172.04C608.08,-172.31 571.25,-172.63 540.14,-172.91"/>
<polygon fill="#63b8ff" stroke="#63b8ff" points="638.43,-175.54 648.4,-171.95 638.37,-168.54 638.43,-175.54"/>
</g>
<!-- Node6 -->
<g id="node6" class="node">
<title>Node6</title>
<g id="a_node6"><a xlink:href="imgui__demo_8cpp.html#a9a639caab781642cbc4f4a23bfbd11cd" target="_top" xlink:title=" ">
<polygon fill="white" stroke="#666666" points="324.5,-141 199.5,-141 199.5,-122 324.5,-122 324.5,-141"/>
<text text-anchor="middle" x="262" y="-129" font-family="Helvetica,sans-Serif" font-size="10.00">DemoWindowWidgets</text>
</a>
</g>
</g>
<!-- Node5&#45;&gt;Node6 -->
<g id="edge5" class="edge">
<title>Node5&#45;&gt;Node6</title>
<path fill="none" stroke="#63b8ff" d="M387.27,-130.91C366.37,-131.01 344.37,-131.11 324.79,-131.2"/>
<polygon fill="#63b8ff" stroke="#63b8ff" points="387.45,-134.4 397.43,-130.86 387.41,-127.4 387.45,-134.4"/>
</g>
<!-- Node7 -->
<g id="node7" class="node">
<title>Node7</title>
<g id="a_node7"><a xlink:href="namespaceImGui.html#af95643a0ce4893b9e57c12991922fb18" target="_top" xlink:title=" ">
<polygon fill="white" stroke="#666666" points="146,-141 0,-141 0,-122 146,-122 146,-141"/>
<text text-anchor="middle" x="73" y="-129" font-family="Helvetica,sans-Serif" font-size="10.00">ImGui::ShowDemoWindow</text>
</a>
</g>
</g>
<!-- Node6&#45;&gt;Node7 -->
<g id="edge6" class="edge">
<title>Node6&#45;&gt;Node7</title>
<path fill="none" stroke="#63b8ff" d="M189.11,-131.5C175,-131.5 160.19,-131.5 146.07,-131.5"/>
<polygon fill="#63b8ff" stroke="#63b8ff" points="189.25,-135 199.25,-131.5 189.25,-128 189.25,-135"/>
</g>
<!-- Node8&#45;&gt;Node6 -->
<g id="edge8" class="edge">
<title>Node8&#45;&gt;Node6</title>
<path fill="none" stroke="#63b8ff" d="M419.49,-264.94C404.66,-257.48 389.45,-247.74 378,-235.5 350.81,-206.43 372.07,-179.58 342,-153.5 335.87,-148.18 328.55,-144.14 320.88,-141.08"/>
<polygon fill="#63b8ff" stroke="#63b8ff" points="418.11,-268.16 428.64,-269.29 421.12,-261.84 418.11,-268.16"/>
</g>
<!-- Node9&#45;&gt;Node6 -->
<g id="edge10" class="edge">
<title>Node9&#45;&gt;Node6</title>
<path fill="none" stroke="#63b8ff" d="M389.37,-203.32C385.42,-201.61 381.61,-199.67 378,-197.5 356.36,-184.46 363.16,-167.31 342,-153.5 333.89,-148.21 324.52,-144.18 315.12,-141.11"/>
<polygon fill="#63b8ff" stroke="#63b8ff" points="388.18,-206.61 398.77,-206.93 390.69,-200.08 388.18,-206.61"/>
</g>
<!-- Node11 -->
<g id="node11" class="node">
<title>Node11</title>
<g id="a_node11"><a xlink:href="imgui__demo_8cpp.html#aa9e4f5130b74080ea2d97916a91b3b3c" target="_top" xlink:title=" ">
<polygon fill="white" stroke="#666666" points="342,-181 182,-181 182,-162 342,-162 342,-181"/>
<text text-anchor="middle" x="262" y="-169" font-family="Helvetica,sans-Serif" font-size="10.00">ShowExampleAppDocuments</text>
</a>
</g>
</g>
<!-- Node10&#45;&gt;Node11 -->
<g id="edge12" class="edge">
<title>Node10&#45;&gt;Node11</title>
<path fill="none" stroke="#63b8ff" d="M395.76,-172.77C378.34,-172.6 359.78,-172.43 342.24,-172.26"/>
<polygon fill="#63b8ff" stroke="#63b8ff" points="395.84,-176.27 405.87,-172.87 395.91,-169.27 395.84,-176.27"/>
</g>
<!-- Node11&#45;&gt;Node7 -->
<g id="edge13" class="edge">
<title>Node11&#45;&gt;Node7</title>
<path fill="none" stroke="#63b8ff" d="M206.19,-159.78C178.26,-153.8 144.73,-146.63 118.43,-141"/>
<polygon fill="#63b8ff" stroke="#63b8ff" points="205.7,-163.25 216.21,-161.92 207.16,-156.4 205.7,-163.25"/>
</g>
<!-- Node12&#45;&gt;Node7 -->
<g id="edge16" class="edge">
<title>Node12&#45;&gt;Node7</title>
<path fill="none" stroke="#63b8ff" d="M241.33,-269.3C202.47,-237.3 116.91,-166.84 85.69,-141.13"/>
<polygon fill="#63b8ff" stroke="#63b8ff" points="239.36,-272.21 249.3,-275.87 243.81,-266.81 239.36,-272.21"/>
</g>
<!-- Node13&#45;&gt;Node6 -->
<g id="edge21" class="edge">
<title>Node13&#45;&gt;Node6</title>
<path fill="none" stroke="#63b8ff" d="M604.88,-94.57C540.85,-97.93 454.12,-103.62 378,-112.5 357,-114.95 333.98,-118.57 314.09,-121.99"/>
<polygon fill="#63b8ff" stroke="#63b8ff" points="605.15,-98.06 614.96,-94.05 604.79,-91.07 605.15,-98.06"/>
</g>
<!-- Node15&#45;&gt;Node7 -->
<g id="edge24" class="edge">
<title>Node15&#45;&gt;Node7</title>
<path fill="none" stroke="#63b8ff" d="M593.66,-2.35C486.72,1.3 317.69,-3.16 182,-53.5 140.58,-68.86 100.85,-104.72 83.34,-121.94"/>
<polygon fill="#63b8ff" stroke="#63b8ff" points="593.68,-5.85 603.81,-2.72 593.94,1.14 593.68,-5.85"/>
</g>
<!-- Node16&#45;&gt;Node7 -->
<g id="edge26" class="edge">
<title>Node16&#45;&gt;Node7</title>
<path fill="none" stroke="#63b8ff" d="M220.64,-85.23C185.64,-96.28 135.76,-112.01 104.14,-121.99"/>
<polygon fill="#63b8ff" stroke="#63b8ff" points="222.06,-88.46 230.54,-82.11 219.95,-81.78 222.06,-88.46"/>
</g>
<!-- Node17&#45;&gt;Node8 -->
<g id="edge28" class="edge">
<title>Node17&#45;&gt;Node8</title>
<path fill="none" stroke="#63b8ff" d="M836.02,-296.21C822.46,-297.16 808.28,-298 795,-298.5 710.17,-301.67 688.77,-303.05 604,-298.5 589.04,-297.7 573.15,-296.38 557.81,-294.86"/>
<polygon fill="#63b8ff" stroke="#63b8ff" points="836.52,-299.68 846.23,-295.46 836,-292.7 836.52,-299.68"/>
</g>
<!-- Node18&#45;&gt;Node2 -->
<g id="edge30" class="edge">
<title>Node18&#45;&gt;Node2</title>
<path fill="none" stroke="#63b8ff" d="M985.27,-237.25C993.83,-237.25 1002.39,-237.15 1010.58,-236.95"/>
<polygon fill="#63b8ff" stroke="#63b8ff" points="985.25,-233.75 975.24,-237.2 985.22,-240.75 985.25,-233.75"/>
</g>
</g>
</svg>
