<?xml version="1.0" encoding="UTF-8" standalone="no"?>
<!DOCTYPE svg PUBLIC "-//W3C//DTD SVG 1.1//EN"
 "http://www.w3.org/Graphics/SVG/1.1/DTD/svg11.dtd">
<!-- Generated by graphviz version 2.43.0 (0)
 -->
<!-- Title: ImChunkStream::clear Pages: 1 -->
<svg width="975pt" height="129pt"
 viewBox="0.00 0.00 975.00 129.00" xmlns="http://www.w3.org/2000/svg" xmlns:xlink="http://www.w3.org/1999/xlink">
<g id="graph0" class="graph" transform="scale(1 1) rotate(0) translate(4 125)">
<title>ImChunkStream::clear</title>
<!-- Node1 -->
<g id="node1" class="node">
<title>Node1</title>
<g id="a_node1"><a xlink:title=" ">
<polygon fill="#999999" stroke="#666666" points="967,-72.5 842,-72.5 842,-53.5 967,-53.5 967,-72.5"/>
<text text-anchor="middle" x="904.5" y="-60.5" font-family="Helvetica,sans-Serif" font-size="10.00">ImChunkStream::clear</text>
</a>
</g>
</g>
<!-- Node2 -->
<g id="node2" class="node">
<title>Node2</title>
<g id="a_node2"><a xlink:href="namespaceImGui.html#aeba34069558d4fbcf734a9c92ce3b773" target="_top" xlink:title=" ">
<polygon fill="white" stroke="#666666" points="796,-115.5 696,-115.5 696,-96.5 796,-96.5 796,-115.5"/>
<text text-anchor="middle" x="746" y="-103.5" font-family="Helvetica,sans-Serif" font-size="10.00">ImGui::Shutdown</text>
</a>
</g>
</g>
<!-- Node1&#45;&gt;Node2 -->
<g id="edge1" class="edge">
<title>Node1&#45;&gt;Node2</title>
<path fill="none" stroke="#63b8ff" d="M858.97,-75.24C834.42,-81.98 804.41,-90.23 781.64,-96.48"/>
<polygon fill="#63b8ff" stroke="#63b8ff" points="860.05,-78.57 868.77,-72.54 858.2,-71.82 860.05,-78.57"/>
</g>
<!-- Node5 -->
<g id="node5" class="node">
<title>Node5</title>
<g id="a_node5"><a xlink:href="imgui__tables_8cpp.html#a72509642c50a5c4abc1efa33e69d2ca1" target="_top" xlink:title=" ">
<polygon fill="white" stroke="#666666" points="806,-78 686,-78 686,-48 806,-48 806,-78"/>
<text text-anchor="start" x="694" y="-66" font-family="Helvetica,sans-Serif" font-size="10.00">TableSettingsHandler</text>
<text text-anchor="middle" x="746" y="-55" font-family="Helvetica,sans-Serif" font-size="10.00">_ClearAll</text>
</a>
</g>
</g>
<!-- Node1&#45;&gt;Node5 -->
<g id="edge4" class="edge">
<title>Node1&#45;&gt;Node5</title>
<path fill="none" stroke="#63b8ff" d="M831.39,-63C822.93,-63 814.37,-63 806.11,-63"/>
<polygon fill="#63b8ff" stroke="#63b8ff" points="831.65,-66.5 841.65,-63 831.65,-59.5 831.65,-66.5"/>
</g>
<!-- Node10 -->
<g id="node10" class="node">
<title>Node10</title>
<g id="a_node10"><a xlink:href="imgui_8cpp.html#a942052dc32d118a3455ea9cc244c41ad" target="_top" xlink:title=" ">
<polygon fill="white" stroke="#666666" points="629,-30 495,-30 495,0 629,0 629,-30"/>
<text text-anchor="start" x="503" y="-18" font-family="Helvetica,sans-Serif" font-size="10.00">WindowSettingsHandler</text>
<text text-anchor="middle" x="562" y="-7" font-family="Helvetica,sans-Serif" font-size="10.00">_ClearAll</text>
</a>
</g>
</g>
<!-- Node1&#45;&gt;Node10 -->
<g id="edge9" class="edge">
<title>Node1&#45;&gt;Node10</title>
<path fill="none" stroke="#63b8ff" d="M859.86,-50.85C843.13,-46.56 823.79,-42.05 806,-39 746.56,-28.8 678.15,-22.53 629.09,-18.96"/>
<polygon fill="#63b8ff" stroke="#63b8ff" points="859.35,-54.33 869.91,-53.47 861.12,-47.56 859.35,-54.33"/>
</g>
<!-- Node3 -->
<g id="node3" class="node">
<title>Node3</title>
<g id="a_node3"><a xlink:href="namespaceImGui.html#ab9132deece575023170cd8e681d0581d" target="_top" xlink:title=" ">
<polygon fill="white" stroke="#666666" points="626,-115.5 498,-115.5 498,-96.5 626,-96.5 626,-115.5"/>
<text text-anchor="middle" x="562" y="-103.5" font-family="Helvetica,sans-Serif" font-size="10.00">ImGui::DestroyContext</text>
</a>
</g>
</g>
<!-- Node2&#45;&gt;Node3 -->
<g id="edge2" class="edge">
<title>Node2&#45;&gt;Node3</title>
<path fill="none" stroke="#63b8ff" d="M685.68,-106C666.58,-106 645.36,-106 626,-106"/>
<polygon fill="#63b8ff" stroke="#63b8ff" points="685.75,-109.5 695.75,-106 685.75,-102.5 685.75,-109.5"/>
</g>
<!-- Node4 -->
<g id="node4" class="node">
<title>Node4</title>
<g id="a_node4"><a xlink:href="classmtgb_1_1ImGuiRenderer.html#a9ef4f353cce28e09af4b18d95f4a253b" target="_top" xlink:title="開放処理">
<polygon fill="white" stroke="#666666" points="438,-121 316,-121 316,-91 438,-91 438,-121"/>
<text text-anchor="start" x="324" y="-109" font-family="Helvetica,sans-Serif" font-size="10.00">mtgb::ImGuiRenderer</text>
<text text-anchor="middle" x="377" y="-98" font-family="Helvetica,sans-Serif" font-size="10.00">::Release</text>
</a>
</g>
</g>
<!-- Node3&#45;&gt;Node4 -->
<g id="edge3" class="edge">
<title>Node3&#45;&gt;Node4</title>
<path fill="none" stroke="#63b8ff" d="M487.66,-106C471.23,-106 453.98,-106 438.15,-106"/>
<polygon fill="#63b8ff" stroke="#63b8ff" points="487.77,-109.5 497.77,-106 487.77,-102.5 487.77,-109.5"/>
</g>
<!-- Node6 -->
<g id="node6" class="node">
<title>Node6</title>
<g id="a_node6"><a xlink:href="namespaceImGui.html#a49786e01457877baef3eb8c01eca38d1" target="_top" xlink:title=" ">
<polygon fill="white" stroke="#666666" points="650,-78 474,-78 474,-48 650,-48 650,-78"/>
<text text-anchor="start" x="482" y="-66" font-family="Helvetica,sans-Serif" font-size="10.00">ImGui::TableSettingsAddSettings</text>
<text text-anchor="middle" x="562" y="-55" font-family="Helvetica,sans-Serif" font-size="10.00">Handler</text>
</a>
</g>
</g>
<!-- Node5&#45;&gt;Node6 -->
<g id="edge5" class="edge">
<title>Node5&#45;&gt;Node6</title>
<path fill="none" stroke="#63b8ff" d="M675.84,-63C667.46,-63 658.81,-63 650.21,-63"/>
<polygon fill="#63b8ff" stroke="#63b8ff" points="675.91,-66.5 685.91,-63 675.91,-59.5 675.91,-66.5"/>
</g>
<!-- Node7 -->
<g id="node7" class="node">
<title>Node7</title>
<g id="a_node7"><a xlink:href="namespaceImGui.html#a1a611da38fae18a3d1dafcb3228259da" target="_top" xlink:title=" ">
<polygon fill="white" stroke="#666666" points="424,-48.5 330,-48.5 330,-29.5 424,-29.5 424,-48.5"/>
<text text-anchor="middle" x="377" y="-36.5" font-family="Helvetica,sans-Serif" font-size="10.00">ImGui::Initialize</text>
</a>
</g>
</g>
<!-- Node6&#45;&gt;Node7 -->
<g id="edge6" class="edge">
<title>Node6&#45;&gt;Node7</title>
<path fill="none" stroke="#63b8ff" d="M463.75,-50.25C449.98,-48.44 436.39,-46.66 424.22,-45.06"/>
<polygon fill="#63b8ff" stroke="#63b8ff" points="463.42,-53.73 473.79,-51.56 464.33,-46.79 463.42,-53.73"/>
</g>
<!-- Node8 -->
<g id="node8" class="node">
<title>Node8</title>
<g id="a_node8"><a xlink:href="namespaceImGui.html#a4ff6c9ad05a0eba37ce1b5ff1607810a" target="_top" xlink:title=" ">
<polygon fill="white" stroke="#666666" points="280,-48.5 158,-48.5 158,-29.5 280,-29.5 280,-48.5"/>
<text text-anchor="middle" x="219" y="-36.5" font-family="Helvetica,sans-Serif" font-size="10.00">ImGui::CreateContext</text>
</a>
</g>
</g>
<!-- Node7&#45;&gt;Node8 -->
<g id="edge7" class="edge">
<title>Node7&#45;&gt;Node8</title>
<path fill="none" stroke="#63b8ff" d="M319.55,-39C306.72,-39 293.06,-39 280.09,-39"/>
<polygon fill="#63b8ff" stroke="#63b8ff" points="319.62,-42.5 329.62,-39 319.62,-35.5 319.62,-42.5"/>
</g>
<!-- Node9 -->
<g id="node9" class="node">
<title>Node9</title>
<g id="a_node9"><a xlink:href="classmtgb_1_1ImGuiRenderer.html#a4db4a95a57f586a5fda30be1957f247a" target="_top" xlink:title=" ">
<polygon fill="white" stroke="#666666" points="122,-54 0,-54 0,-24 122,-24 122,-54"/>
<text text-anchor="start" x="8" y="-42" font-family="Helvetica,sans-Serif" font-size="10.00">mtgb::ImGuiRenderer</text>
<text text-anchor="middle" x="61" y="-31" font-family="Helvetica,sans-Serif" font-size="10.00">::Initialize</text>
</a>
</g>
</g>
<!-- Node8&#45;&gt;Node9 -->
<g id="edge8" class="edge">
<title>Node8&#45;&gt;Node9</title>
<path fill="none" stroke="#63b8ff" d="M147.46,-39C139.01,-39 130.44,-39 122.15,-39"/>
<polygon fill="#63b8ff" stroke="#63b8ff" points="147.69,-42.5 157.69,-39 147.69,-35.5 147.69,-42.5"/>
</g>
<!-- Node10&#45;&gt;Node7 -->
<g id="edge10" class="edge">
<title>Node10&#45;&gt;Node7</title>
<path fill="none" stroke="#63b8ff" d="M484.92,-24.98C464.3,-27.68 442.61,-30.53 424.19,-32.94"/>
<polygon fill="#63b8ff" stroke="#63b8ff" points="485.47,-28.44 494.93,-23.66 484.56,-21.49 485.47,-28.44"/>
</g>
</g>
</svg>
