<?xml version="1.0" encoding="UTF-8" standalone="no"?>
<!DOCTYPE svg PUBLIC "-//W3C//DTD SVG 1.1//EN"
 "http://www.w3.org/Graphics/SVG/1.1/DTD/svg11.dtd">
<!-- Generated by graphviz version 2.43.0 (0)
 -->
<!-- Title: ImPool::~ImPool Pages: 1 -->
<svg width="501pt" height="27pt"
 viewBox="0.00 0.00 501.00 27.00" xmlns="http://www.w3.org/2000/svg" xmlns:xlink="http://www.w3.org/1999/xlink">
<g id="graph0" class="graph" transform="scale(1 1) rotate(0) translate(4 23)">
<title>ImPool::~ImPool</title>
<!-- Node1 -->
<g id="node1" class="node">
<title>Node1</title>
<g id="a_node1"><a xlink:title=" ">
<polygon fill="#999999" stroke="#666666" points="98,-19 0,-19 0,0 98,0 98,-19"/>
<text text-anchor="middle" x="49" y="-7" font-family="Helvetica,sans-Serif" font-size="10.00">ImPool::~ImPool</text>
</a>
</g>
</g>
<!-- Node2 -->
<g id="node2" class="node">
<title>Node2</title>
<g id="a_node2"><a xlink:href="structImPool.html#a613b0fa43ad7457ebde2988d4ea5f0be" target="_top" xlink:title=" ">
<polygon fill="white" stroke="#666666" points="216,-19 134,-19 134,0 216,0 216,-19"/>
<text text-anchor="middle" x="175" y="-7" font-family="Helvetica,sans-Serif" font-size="10.00">ImPool::Clear</text>
</a>
</g>
</g>
<!-- Node1&#45;&gt;Node2 -->
<g id="edge1" class="edge">
<title>Node1&#45;&gt;Node2</title>
<path fill="none" stroke="#63b8ff" d="M98.3,-9.5C106.61,-9.5 115.27,-9.5 123.64,-9.5"/>
<polygon fill="#63b8ff" stroke="#63b8ff" points="123.66,-13 133.66,-9.5 123.66,-6 123.66,-13"/>
</g>
<!-- Node3 -->
<g id="node3" class="node">
<title>Node3</title>
<g id="a_node3"><a xlink:href="structImGuiStorage.html#a72ceecfbca3d08df8c2a232b77890c20" target="_top" xlink:title=" ">
<polygon fill="white" stroke="#666666" points="367,-19 252,-19 252,0 367,0 367,-19"/>
<text text-anchor="middle" x="309.5" y="-7" font-family="Helvetica,sans-Serif" font-size="10.00">ImGuiStorage::Clear</text>
</a>
</g>
</g>
<!-- Node2&#45;&gt;Node3 -->
<g id="edge2" class="edge">
<title>Node2&#45;&gt;Node3</title>
<path fill="none" stroke="#63b8ff" d="M216.11,-9.5C224.22,-9.5 232.94,-9.5 241.68,-9.5"/>
<polygon fill="#63b8ff" stroke="#63b8ff" points="241.9,-13 251.9,-9.5 241.9,-6 241.9,-13"/>
</g>
<!-- Node4 -->
<g id="node4" class="node">
<title>Node4</title>
<g id="a_node4"><a xlink:href="structImVector.html#ae2d401b4ec5f1113cdb8edb5a61a38f7" target="_top" xlink:title=" ">
<polygon fill="white" stroke="#666666" points="493,-19 403,-19 403,0 493,0 493,-19"/>
<text text-anchor="middle" x="448" y="-7" font-family="Helvetica,sans-Serif" font-size="10.00">ImVector::clear</text>
</a>
</g>
</g>
<!-- Node3&#45;&gt;Node4 -->
<g id="edge3" class="edge">
<title>Node3&#45;&gt;Node4</title>
<path fill="none" stroke="#63b8ff" d="M367.2,-9.5C375.64,-9.5 384.32,-9.5 392.7,-9.5"/>
<polygon fill="#63b8ff" stroke="#63b8ff" points="392.75,-13 402.75,-9.5 392.75,-6 392.75,-13"/>
</g>
</g>
</svg>
