<?xml version="1.0" encoding="UTF-8" standalone="no"?>
<!DOCTYPE svg PUBLIC "-//W3C//DTD SVG 1.1//EN"
 "http://www.w3.org/Graphics/SVG/1.1/DTD/svg11.dtd">
<!-- Generated by graphviz version 2.43.0 (0)
 -->
<!-- Title: GraphEditor::Node Pages: 1 -->
<svg width="200pt" height="551pt"
 viewBox="0.00 0.00 200.00 551.00" xmlns="http://www.w3.org/2000/svg" xmlns:xlink="http://www.w3.org/1999/xlink">
<g id="graph0" class="graph" transform="scale(1 1) rotate(0) translate(4 547)">
<title>GraphEditor::Node</title>
<!-- Node1 -->
<g id="node1" class="node">
<title>Node1</title>
<g id="a_node1"><a xlink:title=" ">
<polygon fill="#999999" stroke="#666666" points="3.5,-0.5 3.5,-79.5 188.5,-79.5 188.5,-0.5 3.5,-0.5"/>
<text text-anchor="middle" x="96" y="-67.5" font-family="Helvetica,sans-Serif" font-size="10.00">GraphEditor::Node</text>
<polyline fill="none" stroke="#666666" points="3.5,-60.5 188.5,-60.5 "/>
<text text-anchor="start" x="11.5" y="-48.5" font-family="Helvetica,sans-Serif" font-size="10.00">+ const char * mName</text>
<text text-anchor="start" x="11.5" y="-37.5" font-family="Helvetica,sans-Serif" font-size="10.00">+ TemplateIndex mTemplateIndex</text>
<text text-anchor="start" x="11.5" y="-26.5" font-family="Helvetica,sans-Serif" font-size="10.00">+ bool mSelected</text>
<polyline fill="none" stroke="#666666" points="3.5,-19.5 188.5,-19.5 "/>
<text text-anchor="middle" x="96" y="-7.5" font-family="Helvetica,sans-Serif" font-size="10.00"> </text>
</a>
</g>
</g>
<!-- Node2 -->
<g id="node2" class="node">
<title>Node2</title>
<g id="a_node2"><a xlink:href="structImRect.html" target="_top" xlink:title=" ">
<polygon fill="white" stroke="#666666" points="0,-127.5 0,-349.5 192,-349.5 192,-127.5 0,-127.5"/>
<text text-anchor="middle" x="96" y="-337.5" font-family="Helvetica,sans-Serif" font-size="10.00">ImRect</text>
<polyline fill="none" stroke="#666666" points="0,-330.5 192,-330.5 "/>
<text text-anchor="middle" x="96" y="-318.5" font-family="Helvetica,sans-Serif" font-size="10.00"> </text>
<polyline fill="none" stroke="#666666" points="0,-311.5 192,-311.5 "/>
<text text-anchor="start" x="8" y="-299.5" font-family="Helvetica,sans-Serif" font-size="10.00">+ constexpr ImRect()</text>
<text text-anchor="start" x="8" y="-288.5" font-family="Helvetica,sans-Serif" font-size="10.00">+ constexpr ImRect(const</text>
<text text-anchor="start" x="8" y="-277.5" font-family="Helvetica,sans-Serif" font-size="10.00"> ImVec2 &amp;min, const ImVec2 &amp;max)</text>
<text text-anchor="start" x="8" y="-266.5" font-family="Helvetica,sans-Serif" font-size="10.00">+ constexpr ImRect(const</text>
<text text-anchor="start" x="8" y="-255.5" font-family="Helvetica,sans-Serif" font-size="10.00"> ImVec4 &amp;v)</text>
<text text-anchor="start" x="8" y="-244.5" font-family="Helvetica,sans-Serif" font-size="10.00">+ constexpr ImRect(float</text>
<text text-anchor="start" x="8" y="-233.5" font-family="Helvetica,sans-Serif" font-size="10.00"> x1, float y1, float x2,</text>
<text text-anchor="start" x="8" y="-222.5" font-family="Helvetica,sans-Serif" font-size="10.00"> float y2)</text>
<text text-anchor="start" x="8" y="-211.5" font-family="Helvetica,sans-Serif" font-size="10.00">+ ImVec2 GetCenter()</text>
<text text-anchor="start" x="8" y="-200.5" font-family="Helvetica,sans-Serif" font-size="10.00"> const</text>
<text text-anchor="start" x="8" y="-189.5" font-family="Helvetica,sans-Serif" font-size="10.00">+ ImVec2 GetSize() const</text>
<text text-anchor="start" x="8" y="-178.5" font-family="Helvetica,sans-Serif" font-size="10.00">+ float GetWidth() const</text>
<text text-anchor="start" x="8" y="-167.5" font-family="Helvetica,sans-Serif" font-size="10.00">+ float GetHeight() const</text>
<text text-anchor="start" x="8" y="-156.5" font-family="Helvetica,sans-Serif" font-size="10.00">+ float GetArea() const</text>
<text text-anchor="start" x="8" y="-145.5" font-family="Helvetica,sans-Serif" font-size="10.00">+ ImVec2 GetTL() const</text>
<text text-anchor="start" x="8" y="-134.5" font-family="Helvetica,sans-Serif" font-size="10.00">ほか 19 件…</text>
</a>
</g>
</g>
<!-- Node2&#45;&gt;Node1 -->
<g id="edge1" class="edge">
<title>Node2&#45;&gt;Node1</title>
<path fill="none" stroke="#404040" d="M96,-127.47C96,-114.98 96,-102.75 96,-91.6"/>
<polygon fill="none" stroke="#404040" points="96,-91.52 92,-85.52 96,-79.52 100,-85.52 96,-91.52"/>
<text text-anchor="middle" x="117.5" y="-101" font-family="Helvetica,sans-Serif" font-size="10.00"> +mRect</text>
</g>
<!-- Node3 -->
<g id="node3" class="node">
<title>Node3</title>
<g id="a_node3"><a xlink:href="structImVec2.html" target="_top" xlink:title=" ">
<polygon fill="white" stroke="#666666" points="26,-408.5 26,-542.5 166,-542.5 166,-408.5 26,-408.5"/>
<text text-anchor="middle" x="96" y="-530.5" font-family="Helvetica,sans-Serif" font-size="10.00">ImVec2</text>
<polyline fill="none" stroke="#666666" points="26,-523.5 166,-523.5 "/>
<text text-anchor="start" x="34" y="-511.5" font-family="Helvetica,sans-Serif" font-size="10.00">+ float x</text>
<text text-anchor="start" x="34" y="-500.5" font-family="Helvetica,sans-Serif" font-size="10.00">+ float y</text>
<polyline fill="none" stroke="#666666" points="26,-493.5 166,-493.5 "/>
<text text-anchor="start" x="34" y="-481.5" font-family="Helvetica,sans-Serif" font-size="10.00">+ constexpr ImVec2()</text>
<text text-anchor="start" x="34" y="-470.5" font-family="Helvetica,sans-Serif" font-size="10.00">+ constexpr ImVec2(float</text>
<text text-anchor="start" x="34" y="-459.5" font-family="Helvetica,sans-Serif" font-size="10.00"> _x, float _y)</text>
<text text-anchor="start" x="34" y="-448.5" font-family="Helvetica,sans-Serif" font-size="10.00">+ float &amp; operator[]</text>
<text text-anchor="start" x="34" y="-437.5" font-family="Helvetica,sans-Serif" font-size="10.00">(size_t idx)</text>
<text text-anchor="start" x="34" y="-426.5" font-family="Helvetica,sans-Serif" font-size="10.00">+ float operator[](size</text>
<text text-anchor="start" x="34" y="-415.5" font-family="Helvetica,sans-Serif" font-size="10.00">_t idx) const</text>
</a>
</g>
</g>
<!-- Node3&#45;&gt;Node2 -->
<g id="edge2" class="edge">
<title>Node3&#45;&gt;Node2</title>
<path fill="none" stroke="#404040" d="M96,-408.41C96,-393.81 96,-377.89 96,-361.84"/>
<polygon fill="none" stroke="#404040" points="96,-361.57 92,-355.57 96,-349.57 100,-355.57 96,-361.57"/>
<text text-anchor="middle" x="112.5" y="-382" font-family="Helvetica,sans-Serif" font-size="10.00"> +Max</text>
<text text-anchor="middle" x="112.5" y="-371" font-family="Helvetica,sans-Serif" font-size="10.00">+Min</text>
</g>
</g>
</svg>
