<?xml version="1.0" encoding="UTF-8" standalone="no"?>
<!DOCTYPE svg PUBLIC "-//W3C//DTD SVG 1.1//EN"
 "http://www.w3.org/Graphics/SVG/1.1/DTD/svg11.dtd">
<!-- Generated by graphviz version 2.43.0 (0)
 -->
<!-- Title: mtgb::FontFormatData Pages: 1 -->
<svg width="322pt" height="353pt"
 viewBox="0.00 0.00 321.50 353.00" xmlns="http://www.w3.org/2000/svg" xmlns:xlink="http://www.w3.org/1999/xlink">
<g id="graph0" class="graph" transform="scale(1 1) rotate(0) translate(4 349)">
<title>mtgb::FontFormatData</title>
<!-- Node1 -->
<g id="node1" class="node">
<title>Node1</title>
<g id="a_node1"><a xlink:title=" ">
<polygon fill="#999999" stroke="#666666" points="87.5,-0.5 87.5,-101.5 245.5,-101.5 245.5,-0.5 87.5,-0.5"/>
<text text-anchor="middle" x="166.5" y="-89.5" font-family="Helvetica,sans-Serif" font-size="10.00">mtgb::FontFormatData</text>
<polyline fill="none" stroke="#666666" points="87.5,-82.5 245.5,-82.5 "/>
<text text-anchor="start" x="95.5" y="-70.5" font-family="Helvetica,sans-Serif" font-size="10.00">+ int fontSize</text>
<polyline fill="none" stroke="#666666" points="87.5,-63.5 245.5,-63.5 "/>
<text text-anchor="start" x="95.5" y="-51.5" font-family="Helvetica,sans-Serif" font-size="10.00">+ FontFormatData(int</text>
<text text-anchor="start" x="95.5" y="-40.5" font-family="Helvetica,sans-Serif" font-size="10.00"> size, IDWriteTextFormat</text>
<text text-anchor="start" x="95.5" y="-29.5" font-family="Helvetica,sans-Serif" font-size="10.00"> *fmt, const PixelFontMetrics</text>
<text text-anchor="start" x="95.5" y="-18.5" font-family="Helvetica,sans-Serif" font-size="10.00"> &amp;metrics)</text>
<text text-anchor="start" x="95.5" y="-7.5" font-family="Helvetica,sans-Serif" font-size="10.00">+ ~FontFormatData()</text>
</a>
</g>
</g>
<!-- Node2 -->
<g id="node2" class="node">
<title>Node2</title>
<g id="a_node2"><a xlink:title=" ">
<polygon fill="white" stroke="#666666" points="0,-166 0,-223 167,-223 167,-166 0,-166"/>
<text text-anchor="middle" x="83.5" y="-211" font-family="Helvetica,sans-Serif" font-size="10.00">ComPtr&lt; IDWriteTextFormat &gt;</text>
<polyline fill="none" stroke="#666666" points="0,-204 167,-204 "/>
<text text-anchor="middle" x="83.5" y="-192" font-family="Helvetica,sans-Serif" font-size="10.00"> </text>
<polyline fill="none" stroke="#666666" points="0,-185 167,-185 "/>
<text text-anchor="middle" x="83.5" y="-173" font-family="Helvetica,sans-Serif" font-size="10.00"> </text>
</a>
</g>
</g>
<!-- Node2&#45;&gt;Node1 -->
<g id="edge1" class="edge">
<title>Node2&#45;&gt;Node1</title>
<path fill="none" stroke="#404040" d="M99.7,-165.88C108.69,-150.55 120.25,-130.84 131.22,-112.15"/>
<polygon fill="none" stroke="#404040" points="131.33,-111.95 130.92,-104.76 137.4,-101.6 137.82,-108.8 131.33,-111.95"/>
<text text-anchor="middle" x="148" y="-123" font-family="Helvetica,sans-Serif" font-size="10.00"> +format</text>
</g>
<!-- Node3 -->
<g id="node3" class="node">
<title>Node3</title>
<g id="a_node3"><a xlink:title=" ">
<polygon fill="white" stroke="#666666" points="57,-287.5 57,-344.5 110,-344.5 110,-287.5 57,-287.5"/>
<text text-anchor="middle" x="83.5" y="-332.5" font-family="Helvetica,sans-Serif" font-size="10.00">ComPtr</text>
<polyline fill="none" stroke="#666666" points="57,-325.5 110,-325.5 "/>
<text text-anchor="middle" x="83.5" y="-313.5" font-family="Helvetica,sans-Serif" font-size="10.00"> </text>
<polyline fill="none" stroke="#666666" points="57,-306.5 110,-306.5 "/>
<text text-anchor="middle" x="83.5" y="-294.5" font-family="Helvetica,sans-Serif" font-size="10.00"> </text>
</a>
</g>
</g>
<!-- Node3&#45;&gt;Node2 -->
<g id="edge2" class="edge">
<title>Node3&#45;&gt;Node2</title>
<path fill="none" stroke="orange" d="M83.5,-276.83C83.5,-259.35 83.5,-239.03 83.5,-223.07"/>
<polygon fill="orange" stroke="orange" points="80,-277.28 83.5,-287.28 87,-277.28 80,-277.28"/>
<text text-anchor="middle" x="142.5" y="-261" font-family="Helvetica,sans-Serif" font-size="10.00"> &lt; IDWriteTextFormat &gt;</text>
</g>
<!-- Node4 -->
<g id="node4" class="node">
<title>Node4</title>
<g id="a_node4"><a xlink:href="structmtgb_1_1PixelFontMetrics.html" target="_top" xlink:title=" ">
<polygon fill="white" stroke="#666666" points="185.5,-149.5 185.5,-239.5 313.5,-239.5 313.5,-149.5 185.5,-149.5"/>
<text text-anchor="middle" x="249.5" y="-227.5" font-family="Helvetica,sans-Serif" font-size="10.00">mtgb::PixelFontMetrics</text>
<polyline fill="none" stroke="#666666" points="185.5,-220.5 313.5,-220.5 "/>
<text text-anchor="start" x="193.5" y="-208.5" font-family="Helvetica,sans-Serif" font-size="10.00">+ float ascentPx</text>
<text text-anchor="start" x="193.5" y="-197.5" font-family="Helvetica,sans-Serif" font-size="10.00">+ float descentPx</text>
<text text-anchor="start" x="193.5" y="-186.5" font-family="Helvetica,sans-Serif" font-size="10.00">+ float lineGapPx</text>
<text text-anchor="start" x="193.5" y="-175.5" font-family="Helvetica,sans-Serif" font-size="10.00">+ float textTopOffset</text>
<polyline fill="none" stroke="#666666" points="185.5,-168.5 313.5,-168.5 "/>
<text text-anchor="middle" x="249.5" y="-156.5" font-family="Helvetica,sans-Serif" font-size="10.00"> </text>
</a>
</g>
</g>
<!-- Node4&#45;&gt;Node1 -->
<g id="edge3" class="edge">
<title>Node4&#45;&gt;Node1</title>
<path fill="none" stroke="#404040" d="M223.47,-149.12C216.63,-137.46 209.13,-124.68 201.89,-112.34"/>
<polygon fill="none" stroke="#404040" points="201.69,-111.99 195.21,-108.84 195.62,-101.64 202.11,-104.8 201.69,-111.99"/>
<text text-anchor="middle" x="255.5" y="-123" font-family="Helvetica,sans-Serif" font-size="10.00"> +pixelFontMetrics</text>
</g>
</g>
</svg>
