<?xml version="1.0" encoding="UTF-8" standalone="no"?>
<!DOCTYPE svg PUBLIC "-//W3C//DTD SVG 1.1//EN"
 "http://www.w3.org/Graphics/SVG/1.1/DTD/svg11.dtd">
<!-- Generated by graphviz version 2.43.0 (0)
 -->
<!-- Title: ImDrawData::AddDrawList Pages: 1 -->
<svg width="708pt" height="88pt"
 viewBox="0.00 0.00 708.00 88.00" xmlns="http://www.w3.org/2000/svg" xmlns:xlink="http://www.w3.org/1999/xlink">
<g id="graph0" class="graph" transform="scale(1 1) rotate(0) translate(4 84)">
<title>ImDrawData::AddDrawList</title>
<!-- Node1 -->
<g id="node1" class="node">
<title>Node1</title>
<g id="a_node1"><a xlink:title=" ">
<polygon fill="#999999" stroke="#666666" points="146,-58 0,-58 0,-39 146,-39 146,-58"/>
<text text-anchor="middle" x="73" y="-46" font-family="Helvetica,sans-Serif" font-size="10.00">ImDrawData::AddDrawList</text>
</a>
</g>
</g>
<!-- Node2 -->
<g id="node2" class="node">
<title>Node2</title>
<g id="a_node2"><a xlink:href="structImDrawList.html#a2cb0295fcd3062bfedbebbad55865455" target="_top" xlink:title=" ">
<polygon fill="white" stroke="#666666" points="368,-80 182,-80 182,-61 368,-61 368,-80"/>
<text text-anchor="middle" x="275" y="-68" font-family="Helvetica,sans-Serif" font-size="10.00">ImDrawList::_PopUnusedDrawCmd</text>
</a>
</g>
</g>
<!-- Node1&#45;&gt;Node2 -->
<g id="edge1" class="edge">
<title>Node1&#45;&gt;Node2</title>
<path fill="none" stroke="#63b8ff" d="M146.2,-56.44C156.38,-57.56 166.97,-58.73 177.51,-59.89"/>
<polygon fill="#63b8ff" stroke="#63b8ff" points="177.26,-63.38 187.59,-60.99 178.03,-56.42 177.26,-63.38"/>
</g>
<!-- Node4 -->
<g id="node4" class="node">
<title>Node4</title>
<g id="a_node4"><a xlink:href="namespaceImGui.html#a0074bb825de97c5602d9d9bb2e4d49d4" target="_top" xlink:title=" ">
<polygon fill="white" stroke="#666666" points="349.5,-42.5 200.5,-42.5 200.5,-12.5 349.5,-12.5 349.5,-42.5"/>
<text text-anchor="start" x="208.5" y="-30.5" font-family="Helvetica,sans-Serif" font-size="10.00">ImGui::AddDrawListToDraw</text>
<text text-anchor="middle" x="275" y="-19.5" font-family="Helvetica,sans-Serif" font-size="10.00">DataEx</text>
</a>
</g>
</g>
<!-- Node1&#45;&gt;Node4 -->
<g id="edge3" class="edge">
<title>Node1&#45;&gt;Node4</title>
<path fill="none" stroke="#63b8ff" d="M146.2,-40.92C160.48,-39.42 175.57,-37.84 190.19,-36.3"/>
<polygon fill="#63b8ff" stroke="#63b8ff" points="190.64,-39.77 200.22,-35.25 189.91,-32.81 190.64,-39.77"/>
</g>
<!-- Node3 -->
<g id="node3" class="node">
<title>Node3</title>
<g id="a_node3"><a xlink:href="structImVector.html#a3db7ce62d3c429effdb893fbf7148c1c" target="_top" xlink:title=" ">
<polygon fill="white" stroke="#666666" points="519.5,-80 406.5,-80 406.5,-61 519.5,-61 519.5,-80"/>
<text text-anchor="middle" x="463" y="-68" font-family="Helvetica,sans-Serif" font-size="10.00">ImVector::pop_back</text>
</a>
</g>
</g>
<!-- Node2&#45;&gt;Node3 -->
<g id="edge2" class="edge">
<title>Node2&#45;&gt;Node3</title>
<path fill="none" stroke="#63b8ff" d="M368.18,-70.5C377.67,-70.5 387.18,-70.5 396.29,-70.5"/>
<polygon fill="#63b8ff" stroke="#63b8ff" points="396.41,-74 406.4,-70.5 396.4,-67 396.41,-74"/>
</g>
<!-- Node5 -->
<g id="node5" class="node">
<title>Node5</title>
<g id="a_node5"><a xlink:href="structImVector.html#aab5df48e0711a48bd12f3206e08c4108" target="_top" xlink:title=" ">
<polygon fill="white" stroke="#666666" points="522,-37 404,-37 404,-18 522,-18 522,-37"/>
<text text-anchor="middle" x="463" y="-25" font-family="Helvetica,sans-Serif" font-size="10.00">ImVector::push_back</text>
</a>
</g>
</g>
<!-- Node4&#45;&gt;Node5 -->
<g id="edge4" class="edge">
<title>Node4&#45;&gt;Node5</title>
<path fill="none" stroke="#63b8ff" d="M349.51,-27.5C364.06,-27.5 379.27,-27.5 393.63,-27.5"/>
<polygon fill="#63b8ff" stroke="#63b8ff" points="393.92,-31 403.92,-27.5 393.92,-24 393.92,-31"/>
</g>
<!-- Node6 -->
<g id="node6" class="node">
<title>Node6</title>
<g id="a_node6"><a xlink:href="structImVector.html#a3a097635d464b1b70dc7d59996a88b28" target="_top" xlink:title=" ">
<polygon fill="white" stroke="#666666" points="700,-56 558,-56 558,-37 700,-37 700,-56"/>
<text text-anchor="middle" x="629" y="-44" font-family="Helvetica,sans-Serif" font-size="10.00">ImVector::_grow_capacity</text>
</a>
</g>
</g>
<!-- Node5&#45;&gt;Node6 -->
<g id="edge5" class="edge">
<title>Node5&#45;&gt;Node6</title>
<path fill="none" stroke="#63b8ff" d="M522.28,-34.25C530.55,-35.21 539.18,-36.21 547.78,-37.21"/>
<polygon fill="#63b8ff" stroke="#63b8ff" points="547.5,-40.7 557.83,-38.37 548.3,-33.74 547.5,-40.7"/>
</g>
<!-- Node7 -->
<g id="node7" class="node">
<title>Node7</title>
<g id="a_node7"><a xlink:href="structImVector.html#a0f14f5736c3372157856eebb67123b75" target="_top" xlink:title=" ">
<polygon fill="white" stroke="#666666" points="680.5,-19 577.5,-19 577.5,0 680.5,0 680.5,-19"/>
<text text-anchor="middle" x="629" y="-7" font-family="Helvetica,sans-Serif" font-size="10.00">ImVector::reserve</text>
</a>
</g>
</g>
<!-- Node5&#45;&gt;Node7 -->
<g id="edge6" class="edge">
<title>Node5&#45;&gt;Node7</title>
<path fill="none" stroke="#63b8ff" d="M522.28,-21.1C536.87,-19.5 552.55,-17.78 567.25,-16.17"/>
<polygon fill="#63b8ff" stroke="#63b8ff" points="567.69,-19.64 577.25,-15.07 566.93,-12.68 567.69,-19.64"/>
</g>
</g>
</svg>
