<?xml version="1.0" encoding="UTF-8" standalone="no"?>
<!DOCTYPE svg PUBLIC "-//W3C//DTD SVG 1.1//EN"
 "http://www.w3.org/Graphics/SVG/1.1/DTD/svg11.dtd">
<!-- Generated by graphviz version 2.43.0 (0)
 -->
<!-- Title: refl::attr::usage::member Pages: 1 -->
<svg width="220pt" height="182pt"
 viewBox="0.00 0.00 220.00 182.00" xmlns="http://www.w3.org/2000/svg" xmlns:xlink="http://www.w3.org/1999/xlink">
<g id="graph0" class="graph" transform="scale(1 1) rotate(0) translate(4 178)">
<title>refl::attr::usage::member</title>
<!-- Node1 -->
<g id="node1" class="node">
<title>Node1</title>
<g id="a_node1"><a xlink:title=" ">
<polygon fill="#999999" stroke="#666666" points="57,-0.5 57,-68.5 154,-68.5 154,-0.5 57,-0.5"/>
<text text-anchor="start" x="65" y="-56.5" font-family="Helvetica,sans-Serif" font-size="10.00">refl::attr::usage::</text>
<text text-anchor="middle" x="105.5" y="-45.5" font-family="Helvetica,sans-Serif" font-size="10.00">member</text>
<polyline fill="none" stroke="#666666" points="57,-38.5 154,-38.5 "/>
<text text-anchor="middle" x="105.5" y="-26.5" font-family="Helvetica,sans-Serif" font-size="10.00"> </text>
<polyline fill="none" stroke="#666666" points="57,-19.5 154,-19.5 "/>
<text text-anchor="middle" x="105.5" y="-7.5" font-family="Helvetica,sans-Serif" font-size="10.00"> </text>
</a>
</g>
</g>
<!-- Node2 -->
<g id="node2" class="node">
<title>Node2</title>
<g id="a_node2"><a xlink:href="structrefl_1_1attr_1_1usage_1_1function.html" target="_top" xlink:title=" ">
<polygon fill="white" stroke="#666666" points="0,-105.5 0,-173.5 97,-173.5 97,-105.5 0,-105.5"/>
<text text-anchor="start" x="8" y="-161.5" font-family="Helvetica,sans-Serif" font-size="10.00">refl::attr::usage::</text>
<text text-anchor="middle" x="48.5" y="-150.5" font-family="Helvetica,sans-Serif" font-size="10.00">function</text>
<polyline fill="none" stroke="#666666" points="0,-143.5 97,-143.5 "/>
<text text-anchor="middle" x="48.5" y="-131.5" font-family="Helvetica,sans-Serif" font-size="10.00"> </text>
<polyline fill="none" stroke="#666666" points="0,-124.5 97,-124.5 "/>
<text text-anchor="middle" x="48.5" y="-112.5" font-family="Helvetica,sans-Serif" font-size="10.00"> </text>
</a>
</g>
</g>
<!-- Node2&#45;&gt;Node1 -->
<g id="edge1" class="edge">
<title>Node2&#45;&gt;Node1</title>
<path fill="none" stroke="#63b8ff" d="M71.7,-96.58C76.86,-87.26 82.26,-77.5 87.19,-68.59"/>
<polygon fill="none" stroke="#63b8ff" points="68.63,-94.9 66.85,-105.34 74.75,-98.29 68.63,-94.9"/>
</g>
<!-- Node3 -->
<g id="node3" class="node">
<title>Node3</title>
<g id="a_node3"><a xlink:href="structrefl_1_1attr_1_1usage_1_1field.html" target="_top" xlink:title=" ">
<polygon fill="white" stroke="#666666" points="115,-105.5 115,-173.5 212,-173.5 212,-105.5 115,-105.5"/>
<text text-anchor="start" x="123" y="-161.5" font-family="Helvetica,sans-Serif" font-size="10.00">refl::attr::usage::</text>
<text text-anchor="middle" x="163.5" y="-150.5" font-family="Helvetica,sans-Serif" font-size="10.00">field</text>
<polyline fill="none" stroke="#666666" points="115,-143.5 212,-143.5 "/>
<text text-anchor="middle" x="163.5" y="-131.5" font-family="Helvetica,sans-Serif" font-size="10.00"> </text>
<polyline fill="none" stroke="#666666" points="115,-124.5 212,-124.5 "/>
<text text-anchor="middle" x="163.5" y="-112.5" font-family="Helvetica,sans-Serif" font-size="10.00"> </text>
</a>
</g>
</g>
<!-- Node3&#45;&gt;Node1 -->
<g id="edge2" class="edge">
<title>Node3&#45;&gt;Node1</title>
<path fill="none" stroke="#63b8ff" d="M139.9,-96.58C134.65,-87.26 129.15,-77.5 124.14,-68.59"/>
<polygon fill="none" stroke="#63b8ff" points="136.87,-98.35 144.83,-105.34 142.97,-94.91 136.87,-98.35"/>
</g>
</g>
</svg>
