<?xml version="1.0" encoding="UTF-8" standalone="no"?>
<!DOCTYPE svg PUBLIC "-//W3C//DTD SVG 1.1//EN"
 "http://www.w3.org/Graphics/SVG/1.1/DTD/svg11.dtd">
<!-- Generated by graphviz version 2.43.0 (0)
 -->
<!-- Title: ImGuiTextBuffer::begin Pages: 1 -->
<svg width="1067pt" height="1016pt"
 viewBox="0.00 0.00 1067.00 1015.86" xmlns="http://www.w3.org/2000/svg" xmlns:xlink="http://www.w3.org/1999/xlink">
<g id="graph0" class="graph" transform="scale(1 1) rotate(0) translate(4 1011.86)">
<title>ImGuiTextBuffer::begin</title>
<!-- Node1 -->
<g id="node1" class="node">
<title>Node1</title>
<g id="a_node1"><a xlink:title=" ">
<polygon fill="#999999" stroke="#666666" points="1059,-778.36 931,-778.36 931,-759.36 1059,-759.36 1059,-778.36"/>
<text text-anchor="middle" x="995" y="-766.36" font-family="Helvetica,sans-Serif" font-size="10.00">ImGuiTextBuffer::begin</text>
</a>
</g>
</g>
<!-- Node2 -->
<g id="node2" class="node">
<title>Node2</title>
<g id="a_node2"><a xlink:href="namespaceImGui.html#afa024e012e162b5a7904b848e1d8d92e" target="_top" xlink:title=" ">
<polygon fill="white" stroke="#666666" points="895,-938.36 788,-938.36 788,-919.36 895,-919.36 895,-938.36"/>
<text text-anchor="middle" x="841.5" y="-926.36" font-family="Helvetica,sans-Serif" font-size="10.00">ImGui::DebugLogV</text>
</a>
</g>
</g>
<!-- Node1&#45;&gt;Node2 -->
<g id="edge1" class="edge">
<title>Node1&#45;&gt;Node2</title>
<path fill="none" stroke="#63b8ff" d="M980.32,-786.68C961.96,-810.17 927.85,-852.3 895,-884.86 882.16,-897.59 866.06,-910.71 855.1,-919.28"/>
<polygon fill="#63b8ff" stroke="#63b8ff" points="983.19,-788.7 986.55,-778.65 977.66,-784.41 983.19,-788.7"/>
</g>
<!-- Node10 -->
<g id="node10" class="node">
<title>Node10</title>
<g id="a_node10"><a xlink:href="structExampleAppLog.html#a5ad3a4bdb89171b84aeaff96948a1f77" target="_top" xlink:title=" ">
<polygon fill="white" stroke="#666666" points="560.5,-766.36 433.5,-766.36 433.5,-747.36 560.5,-747.36 560.5,-766.36"/>
<text text-anchor="middle" x="497" y="-754.36" font-family="Helvetica,sans-Serif" font-size="10.00">ExampleAppLog::Draw</text>
</a>
</g>
</g>
<!-- Node1&#45;&gt;Node10 -->
<g id="edge9" class="edge">
<title>Node1&#45;&gt;Node10</title>
<path fill="none" stroke="#63b8ff" d="M920.86,-767.09C823.37,-764.73 652.48,-760.6 560.63,-758.38"/>
<polygon fill="#63b8ff" stroke="#63b8ff" points="920.85,-770.59 930.93,-767.33 921.02,-763.59 920.85,-770.59"/>
</g>
<!-- Node13 -->
<g id="node13" class="node">
<title>Node13</title>
<g id="a_node13"><a xlink:href="namespaceImGui.html#a2ebcd048d1ca025fb972e1c2e920e3f3" target="_top" xlink:title=" ">
<polygon fill="white" stroke="#666666" points="890.5,-574.36 792.5,-574.36 792.5,-555.36 890.5,-555.36 890.5,-574.36"/>
<text text-anchor="middle" x="841.5" y="-562.36" font-family="Helvetica,sans-Serif" font-size="10.00">ImGui::LogFinish</text>
</a>
</g>
</g>
<!-- Node1&#45;&gt;Node13 -->
<g id="edge12" class="edge">
<title>Node1&#45;&gt;Node13</title>
<path fill="none" stroke="#63b8ff" d="M980.88,-751.19C950.02,-709.64 873.66,-606.81 849.76,-574.64"/>
<polygon fill="#63b8ff" stroke="#63b8ff" points="978.12,-753.35 986.9,-759.3 983.74,-749.18 978.12,-753.35"/>
</g>
<!-- Node34 -->
<g id="node34" class="node">
<title>Node34</title>
<g id="a_node34"><a xlink:href="imgui__demo_8cpp.html#a4dadf5e7b393795666d19af9694037cf" target="_top" xlink:title=" ">
<polygon fill="white" stroke="#666666" points="571,-38.36 423,-38.36 423,-19.36 571,-19.36 571,-38.36"/>
<text text-anchor="middle" x="497" y="-26.36" font-family="Helvetica,sans-Serif" font-size="10.00">ShowExampleAppLongText</text>
</a>
</g>
</g>
<!-- Node1&#45;&gt;Node34 -->
<g id="edge65" class="edge">
<title>Node1&#45;&gt;Node34</title>
<path fill="none" stroke="#63b8ff" d="M985.64,-749.5C968.82,-710.7 929.58,-620.73 895,-545.86 785.54,-308.82 808.84,-181.27 585,-46.86 579.31,-43.45 573.08,-40.67 566.65,-38.42"/>
<polygon fill="#63b8ff" stroke="#63b8ff" points="982.58,-751.25 989.76,-759.03 989,-748.47 982.58,-751.25"/>
</g>
<!-- Node3 -->
<g id="node3" class="node">
<title>Node3</title>
<g id="a_node3"><a xlink:href="namespaceImGui.html#aaa66ae54a7078d4e14d957b85571f6d0" target="_top" xlink:title=" ">
<polygon fill="white" stroke="#666666" points="737,-959.36 636,-959.36 636,-940.36 737,-940.36 737,-959.36"/>
<text text-anchor="middle" x="686.5" y="-947.36" font-family="Helvetica,sans-Serif" font-size="10.00">ImGui::DebugLog</text>
</a>
</g>
</g>
<!-- Node2&#45;&gt;Node3 -->
<g id="edge2" class="edge">
<title>Node2&#45;&gt;Node3</title>
<path fill="none" stroke="#63b8ff" d="M777.67,-937.49C764.16,-939.34 750.08,-941.27 737.16,-943.05"/>
<polygon fill="#63b8ff" stroke="#63b8ff" points="778.41,-940.92 787.85,-936.09 777.46,-933.98 778.41,-940.92"/>
</g>
<!-- Node4 -->
<g id="node4" class="node">
<title>Node4</title>
<g id="a_node4"><a xlink:href="namespaceImGui.html#a1a611da38fae18a3d1dafcb3228259da" target="_top" xlink:title=" ">
<polygon fill="white" stroke="#666666" points="544,-999.36 450,-999.36 450,-980.36 544,-980.36 544,-999.36"/>
<text text-anchor="middle" x="497" y="-987.36" font-family="Helvetica,sans-Serif" font-size="10.00">ImGui::Initialize</text>
</a>
</g>
</g>
<!-- Node3&#45;&gt;Node4 -->
<g id="edge3" class="edge">
<title>Node3&#45;&gt;Node4</title>
<path fill="none" stroke="#63b8ff" d="M630.55,-961.58C602.54,-967.56 568.92,-974.73 542.54,-980.36"/>
<polygon fill="#63b8ff" stroke="#63b8ff" points="631.54,-964.95 640.59,-959.44 630.08,-958.11 631.54,-964.95"/>
</g>
<!-- Node7 -->
<g id="node7" class="node">
<title>Node7</title>
<g id="a_node7"><a xlink:href="namespaceImGui.html#ab3f1fc018f903b7ad79fd10663375774" target="_top" xlink:title=" ">
<polygon fill="white" stroke="#666666" points="549,-959.36 445,-959.36 445,-940.36 549,-940.36 549,-959.36"/>
<text text-anchor="middle" x="497" y="-947.36" font-family="Helvetica,sans-Serif" font-size="10.00">ImGui::NewFrame</text>
</a>
</g>
</g>
<!-- Node3&#45;&gt;Node7 -->
<g id="edge6" class="edge">
<title>Node3&#45;&gt;Node7</title>
<path fill="none" stroke="#63b8ff" d="M625.47,-949.86C600.94,-949.86 572.85,-949.86 549.3,-949.86"/>
<polygon fill="#63b8ff" stroke="#63b8ff" points="625.75,-953.36 635.75,-949.86 625.75,-946.36 625.75,-953.36"/>
</g>
<!-- Node5 -->
<g id="node5" class="node">
<title>Node5</title>
<g id="a_node5"><a xlink:href="namespaceImGui.html#a4ff6c9ad05a0eba37ce1b5ff1607810a" target="_top" xlink:title=" ">
<polygon fill="white" stroke="#666666" points="338.5,-1002.36 216.5,-1002.36 216.5,-983.36 338.5,-983.36 338.5,-1002.36"/>
<text text-anchor="middle" x="277.5" y="-990.36" font-family="Helvetica,sans-Serif" font-size="10.00">ImGui::CreateContext</text>
</a>
</g>
</g>
<!-- Node4&#45;&gt;Node5 -->
<g id="edge4" class="edge">
<title>Node4&#45;&gt;Node5</title>
<path fill="none" stroke="#63b8ff" d="M439.67,-990.64C408.67,-991.07 370.2,-991.6 338.62,-992.03"/>
<polygon fill="#63b8ff" stroke="#63b8ff" points="439.92,-994.13 449.87,-990.5 439.83,-987.14 439.92,-994.13"/>
</g>
<!-- Node6 -->
<g id="node6" class="node">
<title>Node6</title>
<g id="a_node6"><a xlink:href="classmtgb_1_1ImGuiRenderer.html#a4db4a95a57f586a5fda30be1957f247a" target="_top" xlink:title=" ">
<polygon fill="white" stroke="#666666" points="134,-1007.86 12,-1007.86 12,-977.86 134,-977.86 134,-1007.86"/>
<text text-anchor="start" x="20" y="-995.86" font-family="Helvetica,sans-Serif" font-size="10.00">mtgb::ImGuiRenderer</text>
<text text-anchor="middle" x="73" y="-984.86" font-family="Helvetica,sans-Serif" font-size="10.00">::Initialize</text>
</a>
</g>
</g>
<!-- Node5&#45;&gt;Node6 -->
<g id="edge5" class="edge">
<title>Node5&#45;&gt;Node6</title>
<path fill="none" stroke="#63b8ff" d="M206.09,-992.86C182.7,-992.86 156.88,-992.86 134.33,-992.86"/>
<polygon fill="#63b8ff" stroke="#63b8ff" points="206.29,-996.36 216.29,-992.86 206.29,-989.36 206.29,-996.36"/>
</g>
<!-- Node8 -->
<g id="node8" class="node">
<title>Node8</title>
<g id="a_node8"><a xlink:href="classmtgb_1_1ImGuiRenderer.html#a4684d4374beee1f52053b4634edae2c8" target="_top" xlink:title=" ">
<polygon fill="white" stroke="#666666" points="338.5,-964.86 216.5,-964.86 216.5,-934.86 338.5,-934.86 338.5,-964.86"/>
<text text-anchor="start" x="224.5" y="-952.86" font-family="Helvetica,sans-Serif" font-size="10.00">mtgb::ImGuiRenderer</text>
<text text-anchor="middle" x="277.5" y="-941.86" font-family="Helvetica,sans-Serif" font-size="10.00">::BeginFrame</text>
</a>
</g>
</g>
<!-- Node7&#45;&gt;Node8 -->
<g id="edge7" class="edge">
<title>Node7&#45;&gt;Node8</title>
<path fill="none" stroke="#63b8ff" d="M434.39,-949.86C404.4,-949.86 368.48,-949.86 338.68,-949.86"/>
<polygon fill="#63b8ff" stroke="#63b8ff" points="434.73,-953.36 444.73,-949.86 434.73,-946.36 434.73,-953.36"/>
</g>
<!-- Node9 -->
<g id="node9" class="node">
<title>Node9</title>
<g id="a_node9"><a xlink:href="classmtgb_1_1RenderSystem.html#a14e39d4590efdf77c2085b12c6f3cdf5" target="_top" xlink:title=" ">
<polygon fill="white" stroke="#666666" points="138.5,-921.86 7.5,-921.86 7.5,-891.86 138.5,-891.86 138.5,-921.86"/>
<text text-anchor="start" x="15.5" y="-909.86" font-family="Helvetica,sans-Serif" font-size="10.00">mtgb::RenderSystem</text>
<text text-anchor="middle" x="73" y="-898.86" font-family="Helvetica,sans-Serif" font-size="10.00">::RenderImGuiWindows</text>
</a>
</g>
</g>
<!-- Node8&#45;&gt;Node9 -->
<g id="edge8" class="edge">
<title>Node8&#45;&gt;Node9</title>
<path fill="none" stroke="#63b8ff" d="M206.35,-934.96C184.34,-930.29 160.16,-925.16 138.56,-920.57"/>
<polygon fill="#63b8ff" stroke="#63b8ff" points="205.78,-938.42 216.29,-937.08 207.24,-931.57 205.78,-938.42"/>
</g>
<!-- Node11 -->
<g id="node11" class="node">
<title>Node11</title>
<g id="a_node11"><a xlink:href="imgui__demo_8cpp.html#ad0303cf1f675002eb4e68c17a47b3f88" target="_top" xlink:title=" ">
<polygon fill="white" stroke="#666666" points="338.5,-662.36 216.5,-662.36 216.5,-643.36 338.5,-643.36 338.5,-662.36"/>
<text text-anchor="middle" x="277.5" y="-650.36" font-family="Helvetica,sans-Serif" font-size="10.00">ShowExampleAppLog</text>
</a>
</g>
</g>
<!-- Node10&#45;&gt;Node11 -->
<g id="edge10" class="edge">
<title>Node10&#45;&gt;Node11</title>
<path fill="none" stroke="#63b8ff" d="M428.28,-744.62C421.66,-742.67 415.13,-740.43 409,-737.86 361.11,-717.83 311.65,-680.03 289.91,-662.39"/>
<polygon fill="#63b8ff" stroke="#63b8ff" points="427.43,-748.01 438,-747.27 429.27,-741.26 427.43,-748.01"/>
</g>
<!-- Node12 -->
<g id="node12" class="node">
<title>Node12</title>
<g id="a_node12"><a xlink:href="namespaceImGui.html#af95643a0ce4893b9e57c12991922fb18" target="_top" xlink:title=" ">
<polygon fill="white" stroke="#666666" points="146,-379.36 0,-379.36 0,-360.36 146,-360.36 146,-379.36"/>
<text text-anchor="middle" x="73" y="-367.36" font-family="Helvetica,sans-Serif" font-size="10.00">ImGui::ShowDemoWindow</text>
</a>
</g>
</g>
<!-- Node11&#45;&gt;Node12 -->
<g id="edge11" class="edge">
<title>Node11&#45;&gt;Node12</title>
<path fill="none" stroke="#63b8ff" d="M206.35,-646.17C197.51,-643.07 189.09,-638.77 182,-632.86 98.4,-563.17 78.69,-418.42 74.83,-379.61"/>
<polygon fill="#63b8ff" stroke="#63b8ff" points="205.49,-649.56 216.07,-649.08 207.5,-642.86 205.49,-649.56"/>
</g>
<!-- Node13&#45;&gt;Node12 -->
<g id="edge62" class="edge">
<title>Node13&#45;&gt;Node12</title>
<path fill="none" stroke="#63b8ff" d="M826.78,-582.48C791.99,-625.52 695.24,-735.37 585,-774.86 511.36,-801.24 485.42,-791.53 409,-774.86 300.58,-751.21 257.06,-752.6 182,-670.86 98.63,-580.08 78.64,-420.39 74.8,-379.57"/>
<polygon fill="#63b8ff" stroke="#63b8ff" points="829.58,-584.58 833.07,-574.58 824.1,-580.22 829.58,-584.58"/>
</g>
<!-- Node14 -->
<g id="node14" class="node">
<title>Node14</title>
<g id="a_node14"><a xlink:href="structExampleAppConsole.html#a0518a09c7e8648dd52c7c06df19ac17a" target="_top" xlink:title=" ">
<polygon fill="white" stroke="#666666" points="571.5,-842.36 422.5,-842.36 422.5,-823.36 571.5,-823.36 571.5,-842.36"/>
<text text-anchor="middle" x="497" y="-830.36" font-family="Helvetica,sans-Serif" font-size="10.00">ExampleAppConsole::Draw</text>
</a>
</g>
</g>
<!-- Node13&#45;&gt;Node14 -->
<g id="edge13" class="edge">
<title>Node13&#45;&gt;Node14</title>
<path fill="none" stroke="#63b8ff" d="M840,-584.54C837.64,-631.97 824.43,-752.82 752,-808.86 692.97,-854.53 601.61,-850.48 546.05,-842.37"/>
<polygon fill="#63b8ff" stroke="#63b8ff" points="843.51,-584.51 840.39,-574.38 836.51,-584.24 843.51,-584.51"/>
</g>
<!-- Node16 -->
<g id="node16" class="node">
<title>Node16</title>
<g id="a_node16"><a xlink:href="namespaceImGui.html#a5479d93794a004c67ceb6d13f37c8254" target="_top" xlink:title=" ">
<polygon fill="white" stroke="#666666" points="721.5,-472.36 651.5,-472.36 651.5,-453.36 721.5,-453.36 721.5,-472.36"/>
<text text-anchor="middle" x="686.5" y="-460.36" font-family="Helvetica,sans-Serif" font-size="10.00">ImGui::End</text>
</a>
</g>
</g>
<!-- Node13&#45;&gt;Node16 -->
<g id="edge16" class="edge">
<title>Node13&#45;&gt;Node16</title>
<path fill="none" stroke="#63b8ff" d="M817.41,-549.47C785.42,-528.14 728.56,-490.24 701.97,-472.51"/>
<polygon fill="#63b8ff" stroke="#63b8ff" points="815.84,-552.63 826.11,-555.26 819.73,-546.81 815.84,-552.63"/>
</g>
<!-- Node26 -->
<g id="node26" class="node">
<title>Node26</title>
<g id="a_node26"><a xlink:href="namespaceImGui.html#ac297462e33309d0540fa459bccdc9304" target="_top" xlink:title=" ">
<polygon fill="white" stroke="#666666" points="570,-75.36 424,-75.36 424,-56.36 570,-56.36 570,-75.36"/>
<text text-anchor="middle" x="497" y="-63.36" font-family="Helvetica,sans-Serif" font-size="10.00">ImGui::ShowAboutWindow</text>
</a>
</g>
</g>
<!-- Node13&#45;&gt;Node26 -->
<g id="edge61" class="edge">
<title>Node13&#45;&gt;Node26</title>
<path fill="none" stroke="#63b8ff" d="M827.86,-546.91C810.96,-523.07 779.9,-479.79 752,-443.86 695.84,-371.55 659.58,-367.9 621,-284.86 583.5,-204.14 645.8,-152.87 585,-87.86 580.1,-82.63 574.16,-78.56 567.7,-75.42"/>
<polygon fill="#63b8ff" stroke="#63b8ff" points="825.17,-549.16 833.8,-555.31 830.88,-545.12 825.17,-549.16"/>
</g>
<!-- Node38 -->
<g id="node38" class="node">
<title>Node38</title>
<g id="a_node38"><a xlink:href="namespaceImGui.html#ab2eb3dec78d054fe3feab1c091ec5de5" target="_top" xlink:title=" ">
<polygon fill="white" stroke="#666666" points="752,-276.36 621,-276.36 621,-257.36 752,-257.36 752,-276.36"/>
<text text-anchor="middle" x="686.5" y="-264.36" font-family="Helvetica,sans-Serif" font-size="10.00">ImGui::ShowStyleEditor</text>
</a>
</g>
</g>
<!-- Node13&#45;&gt;Node38 -->
<g id="edge63" class="edge">
<title>Node13&#45;&gt;Node38</title>
<path fill="none" stroke="#63b8ff" d="M832.58,-545.37C817.98,-509.95 785.25,-432.97 752,-370.86 732.75,-334.9 706.09,-294.38 693.97,-276.37"/>
<polygon fill="#63b8ff" stroke="#63b8ff" points="829.48,-547.03 836.51,-554.96 835.96,-544.38 829.48,-547.03"/>
</g>
<!-- Node15 -->
<g id="node15" class="node">
<title>Node15</title>
<g id="a_node15"><a xlink:href="imgui__demo_8cpp.html#a8e5624314ae6402dd0ddf2a62aa91473" target="_top" xlink:title=" ">
<polygon fill="white" stroke="#666666" points="349,-842.36 206,-842.36 206,-823.36 349,-823.36 349,-842.36"/>
<text text-anchor="middle" x="277.5" y="-830.36" font-family="Helvetica,sans-Serif" font-size="10.00">ShowExampleAppConsole</text>
</a>
</g>
</g>
<!-- Node14&#45;&gt;Node15 -->
<g id="edge14" class="edge">
<title>Node14&#45;&gt;Node15</title>
<path fill="none" stroke="#63b8ff" d="M412.25,-832.86C391.4,-832.86 369.26,-832.86 349.12,-832.86"/>
<polygon fill="#63b8ff" stroke="#63b8ff" points="412.36,-836.36 422.36,-832.86 412.36,-829.36 412.36,-836.36"/>
</g>
<!-- Node15&#45;&gt;Node12 -->
<g id="edge15" class="edge">
<title>Node15&#45;&gt;Node12</title>
<path fill="none" stroke="#63b8ff" d="M196.54,-819.7C191.21,-816.74 186.28,-813.17 182,-808.86 118,-744.38 81.43,-437.53 75.02,-379.38"/>
<polygon fill="#63b8ff" stroke="#63b8ff" points="195.28,-822.98 205.81,-824.12 198.29,-816.66 195.28,-822.98"/>
</g>
<!-- Node16&#45;&gt;Node10 -->
<g id="edge28" class="edge">
<title>Node16&#45;&gt;Node10</title>
<path fill="none" stroke="#63b8ff" d="M684.5,-482.73C680.8,-533.56 663.69,-669.16 585,-737.86 578.01,-743.96 569.52,-748.25 560.61,-751.23"/>
<polygon fill="#63b8ff" stroke="#63b8ff" points="688.01,-482.66 685.14,-472.46 681.02,-482.23 688.01,-482.66"/>
</g>
<!-- Node16&#45;&gt;Node11 -->
<g id="edge51" class="edge">
<title>Node16&#45;&gt;Node11</title>
<path fill="none" stroke="#63b8ff" d="M677.67,-481.97C663.91,-512.94 632.29,-573.54 585,-602.86 509.5,-649.66 404.24,-656.93 338.79,-656.17"/>
<polygon fill="#63b8ff" stroke="#63b8ff" points="680.92,-483.27 681.65,-472.7 674.49,-480.51 680.92,-483.27"/>
</g>
<!-- Node16&#45;&gt;Node12 -->
<g id="edge36" class="edge">
<title>Node16&#45;&gt;Node12</title>
<path fill="none" stroke="#63b8ff" d="M671.81,-445.04C644.49,-409.52 585.79,-333.25 585,-332.86 504.36,-293.27 232.82,-339.2 121.85,-360.33"/>
<polygon fill="#63b8ff" stroke="#63b8ff" points="669.15,-447.33 678.02,-453.13 674.7,-443.06 669.15,-447.33"/>
</g>
<!-- Node16&#45;&gt;Node14 -->
<g id="edge24" class="edge">
<title>Node16&#45;&gt;Node14</title>
<path fill="none" stroke="#63b8ff" d="M683.66,-482.58C677.86,-535.14 655.97,-680.96 585,-774.86 568.14,-797.16 540.08,-813.62 520.4,-823.2"/>
<polygon fill="#63b8ff" stroke="#63b8ff" points="687.14,-482.88 684.68,-472.58 680.18,-482.17 687.14,-482.88"/>
</g>
<!-- Node17 -->
<g id="node17" class="node">
<title>Node17</title>
<g id="a_node17"><a xlink:href="namespaceIMGUIZMO__NAMESPACE.html#a7e79232f8e04ed9a9da0bda4ed3ca1c5" target="_top" xlink:title=" ">
<polygon fill="white" stroke="#666666" points="564.5,-710.86 429.5,-710.86 429.5,-680.86 564.5,-680.86 564.5,-710.86"/>
<text text-anchor="start" x="437.5" y="-698.86" font-family="Helvetica,sans-Serif" font-size="10.00">IMGUIZMO_NAMESPACE</text>
<text text-anchor="middle" x="497" y="-687.86" font-family="Helvetica,sans-Serif" font-size="10.00">::BeginFrame</text>
</a>
</g>
</g>
<!-- Node16&#45;&gt;Node17 -->
<g id="edge17" class="edge">
<title>Node16&#45;&gt;Node17</title>
<path fill="none" stroke="#63b8ff" d="M681.21,-482.52C671.39,-522.94 643.47,-615.85 585,-666.86 578.52,-672.51 570.91,-677.07 562.92,-680.75"/>
<polygon fill="#63b8ff" stroke="#63b8ff" points="684.67,-483.12 683.51,-472.59 677.85,-481.54 684.67,-483.12"/>
</g>
<!-- Node18 -->
<g id="node18" class="node">
<title>Node18</title>
<g id="a_node18"><a xlink:href="imgui__demo_8cpp.html#acdabfa47af2ef5ba0a22b98a4368cc7d" target="_top" xlink:title=" ">
<polygon fill="white" stroke="#666666" points="336.5,-284.36 218.5,-284.36 218.5,-265.36 336.5,-265.36 336.5,-284.36"/>
<text text-anchor="middle" x="277.5" y="-272.36" font-family="Helvetica,sans-Serif" font-size="10.00">DemoWindowLayout</text>
</a>
</g>
</g>
<!-- Node16&#45;&gt;Node18 -->
<g id="edge19" class="edge">
<title>Node16&#45;&gt;Node18</title>
<path fill="none" stroke="#63b8ff" d="M664.84,-446.58C650.85,-434.64 632.83,-417.35 621,-398.86 595.77,-359.42 622.22,-328.26 585,-299.86 547.33,-271.12 414.55,-270.22 336.66,-272.36"/>
<polygon fill="#63b8ff" stroke="#63b8ff" points="663,-449.61 672.94,-453.29 667.47,-444.21 663,-449.61"/>
</g>
<!-- Node19 -->
<g id="node19" class="node">
<title>Node19</title>
<g id="a_node19"><a xlink:href="imgui__demo_8cpp.html#a5de91117986b51cfb587630d6ff46205" target="_top" xlink:title=" ">
<polygon fill="white" stroke="#666666" points="581.5,-247.86 412.5,-247.86 412.5,-217.86 581.5,-217.86 581.5,-247.86"/>
<text text-anchor="start" x="420.5" y="-235.86" font-family="Helvetica,sans-Serif" font-size="10.00">DemoWindowWidgetsQuerying</text>
<text text-anchor="middle" x="497" y="-224.86" font-family="Helvetica,sans-Serif" font-size="10.00">Statuses</text>
</a>
</g>
</g>
<!-- Node16&#45;&gt;Node19 -->
<g id="edge21" class="edge">
<title>Node16&#45;&gt;Node19</title>
<path fill="none" stroke="#63b8ff" d="M664.45,-447.03C650.19,-435.24 632,-417.94 621,-398.86 589.55,-344.32 628.05,-307.8 585,-261.86 579.67,-256.17 573.19,-251.59 566.19,-247.92"/>
<polygon fill="#63b8ff" stroke="#63b8ff" points="662.31,-449.8 672.31,-453.31 666.68,-444.33 662.31,-449.8"/>
</g>
<!-- Node21 -->
<g id="node21" class="node">
<title>Node21</title>
<g id="a_node21"><a xlink:href="structExampleAssetsBrowser.html#a2b36e1f9b7d764e547611baa4c7fd8d1" target="_top" xlink:title=" ">
<polygon fill="white" stroke="#666666" points="562.5,-199.86 431.5,-199.86 431.5,-169.86 562.5,-169.86 562.5,-199.86"/>
<text text-anchor="start" x="439.5" y="-187.86" font-family="Helvetica,sans-Serif" font-size="10.00">ExampleAssetsBrowser</text>
<text text-anchor="middle" x="497" y="-176.86" font-family="Helvetica,sans-Serif" font-size="10.00">::Draw</text>
</a>
</g>
</g>
<!-- Node16&#45;&gt;Node21 -->
<g id="edge25" class="edge">
<title>Node16&#45;&gt;Node21</title>
<path fill="none" stroke="#63b8ff" d="M663.77,-447.05C649.36,-435.37 631.27,-418.19 621,-398.86 580.68,-322.96 643.23,-272.07 585,-208.86 578.84,-202.18 571.01,-197.29 562.58,-193.73"/>
<polygon fill="#63b8ff" stroke="#63b8ff" points="661.71,-449.88 671.74,-453.27 666.01,-444.36 661.71,-449.88"/>
</g>
<!-- Node23 -->
<g id="node23" class="node">
<title>Node23</title>
<g id="a_node23"><a xlink:href="classmtgb_1_1ImGuiRenderer.html#a725b57c53e525ab8e63e305f7898bae4" target="_top" xlink:title=" ">
<polygon fill="white" stroke="#666666" points="570,-879.36 424,-879.36 424,-860.36 570,-860.36 570,-879.36"/>
<text text-anchor="middle" x="497" y="-867.36" font-family="Helvetica,sans-Serif" font-size="10.00">mtgb::ImGuiRenderer::End</text>
</a>
</g>
</g>
<!-- Node16&#45;&gt;Node23 -->
<g id="edge29" class="edge">
<title>Node16&#45;&gt;Node23</title>
<path fill="none" stroke="#63b8ff" d="M683.11,-482.65C674.05,-554.23 639.61,-798.31 585,-850.86 580.66,-855.04 575.62,-858.39 570.19,-861.06"/>
<polygon fill="#63b8ff" stroke="#63b8ff" points="686.58,-483.05 684.34,-472.69 679.64,-482.19 686.58,-483.05"/>
</g>
<!-- Node24 -->
<g id="node24" class="node">
<title>Node24</title>
<g id="a_node24"><a xlink:href="classmtgb_1_1MTImGui.html#a0ebe89de7aaa854c37e842ed796efb99" target="_top" xlink:title=" ">
<polygon fill="white" stroke="#666666" points="348.5,-916.36 206.5,-916.36 206.5,-897.36 348.5,-897.36 348.5,-916.36"/>
<text text-anchor="middle" x="277.5" y="-904.36" font-family="Helvetica,sans-Serif" font-size="10.00">mtgb::MTImGui::ShowLog</text>
</a>
</g>
</g>
<!-- Node16&#45;&gt;Node24 -->
<g id="edge60" class="edge">
<title>Node16&#45;&gt;Node24</title>
<path fill="none" stroke="#63b8ff" d="M683.85,-482.81C677.09,-559.57 648.69,-834.18 585,-887.86 550.55,-916.89 428.01,-915.87 348.7,-911.83"/>
<polygon fill="#63b8ff" stroke="#63b8ff" points="687.36,-482.88 684.73,-472.61 680.39,-482.28 687.36,-482.88"/>
</g>
<!-- Node16&#45;&gt;Node26 -->
<g id="edge34" class="edge">
<title>Node16&#45;&gt;Node26</title>
<path fill="none" stroke="#63b8ff" d="M663.07,-447.06C648.5,-435.49 630.52,-418.43 621,-398.86 590.77,-336.69 630,-142.34 585,-89.86 579.7,-83.68 572.96,-79.01 565.59,-75.51"/>
<polygon fill="#63b8ff" stroke="#63b8ff" points="661.08,-449.95 671.16,-453.22 665.32,-444.38 661.08,-449.95"/>
</g>
<!-- Node27 -->
<g id="node27" class="node">
<title>Node27</title>
<g id="a_node27"><a xlink:href="imgui__demo_8cpp.html#a38c9b50749061ff83a0ebf3137c00174" target="_top" xlink:title=" ">
<polygon fill="white" stroke="#666666" points="357,-172.36 198,-172.36 198,-153.36 357,-153.36 357,-172.36"/>
<text text-anchor="middle" x="277.5" y="-160.36" font-family="Helvetica,sans-Serif" font-size="10.00">ShowExampleAppAutoResize</text>
</a>
</g>
</g>
<!-- Node16&#45;&gt;Node27 -->
<g id="edge37" class="edge">
<title>Node16&#45;&gt;Node27</title>
<path fill="none" stroke="#63b8ff" d="M663.54,-447.17C649.03,-435.54 630.91,-418.38 621,-398.86 572.58,-303.47 666.11,-230.62 585,-160.86 549.6,-130.41 418.69,-142.65 339.86,-153.36"/>
<polygon fill="#63b8ff" stroke="#63b8ff" points="661.52,-450.03 671.58,-453.35 665.79,-444.48 661.52,-450.03"/>
</g>
<!-- Node28 -->
<g id="node28" class="node">
<title>Node28</title>
<g id="a_node28"><a xlink:href="imgui__demo_8cpp.html#a4f7b0b016c2ffd33836c3bdcf78ed97b" target="_top" xlink:title=" ">
<polygon fill="white" stroke="#666666" points="359,-133.86 196,-133.86 196,-103.86 359,-103.86 359,-133.86"/>
<text text-anchor="start" x="204" y="-121.86" font-family="Helvetica,sans-Serif" font-size="10.00">ShowExampleAppConstrained</text>
<text text-anchor="middle" x="277.5" y="-110.86" font-family="Helvetica,sans-Serif" font-size="10.00">Resize</text>
</a>
</g>
</g>
<!-- Node16&#45;&gt;Node28 -->
<g id="edge39" class="edge">
<title>Node16&#45;&gt;Node28</title>
<path fill="none" stroke="#63b8ff" d="M663.2,-447C648.69,-435.4 630.72,-418.33 621,-398.86 568.68,-294.1 670.85,-217.49 585,-137.86 517.28,-75.05 400.84,-88.55 332.64,-103.84"/>
<polygon fill="#63b8ff" stroke="#63b8ff" points="661.19,-449.87 671.25,-453.18 665.45,-444.31 661.19,-449.87"/>
</g>
<!-- Node29 -->
<g id="node29" class="node">
<title>Node29</title>
<g id="a_node29"><a xlink:href="imgui__demo_8cpp.html#a0729207a285af6ef57ce5a31d1a60348" target="_top" xlink:title=" ">
<polygon fill="white" stroke="#666666" points="373,-624.36 182,-624.36 182,-605.36 373,-605.36 373,-624.36"/>
<text text-anchor="middle" x="277.5" y="-612.36" font-family="Helvetica,sans-Serif" font-size="10.00">ShowExampleAppCustomRendering</text>
</a>
</g>
</g>
<!-- Node16&#45;&gt;Node29 -->
<g id="edge41" class="edge">
<title>Node16&#45;&gt;Node29</title>
<path fill="none" stroke="#63b8ff" d="M673.54,-480.95C656.78,-504.68 623.97,-545.67 585,-565.86 519.45,-599.83 436.28,-611.47 373.12,-614.96"/>
<polygon fill="#63b8ff" stroke="#63b8ff" points="676.56,-482.73 679.34,-472.5 670.79,-478.77 676.56,-482.73"/>
</g>
<!-- Node30 -->
<g id="node30" class="node">
<title>Node30</title>
<g id="a_node30"><a xlink:href="imgui__demo_8cpp.html#ae18f1dc3d5298b314080b35f6c20d781" target="_top" xlink:title=" ">
<polygon fill="white" stroke="#666666" points="356.5,-586.36 198.5,-586.36 198.5,-567.36 356.5,-567.36 356.5,-586.36"/>
<text text-anchor="middle" x="277.5" y="-574.36" font-family="Helvetica,sans-Serif" font-size="10.00">ShowExampleAppDockSpace</text>
</a>
</g>
</g>
<!-- Node16&#45;&gt;Node30 -->
<g id="edge43" class="edge">
<title>Node16&#45;&gt;Node30</title>
<path fill="none" stroke="#63b8ff" d="M667.41,-479.13C648.35,-495.29 616.75,-519.41 585,-531.86 510.9,-560.92 420.03,-571.42 356.56,-575.11"/>
<polygon fill="#63b8ff" stroke="#63b8ff" points="669.75,-481.74 675.01,-472.54 665.16,-476.45 669.75,-481.74"/>
</g>
<!-- Node31 -->
<g id="node31" class="node">
<title>Node31</title>
<g id="a_node31"><a xlink:href="imgui__demo_8cpp.html#aa9e4f5130b74080ea2d97916a91b3b3c" target="_top" xlink:title=" ">
<polygon fill="white" stroke="#666666" points="357.5,-549.36 197.5,-549.36 197.5,-530.36 357.5,-530.36 357.5,-549.36"/>
<text text-anchor="middle" x="277.5" y="-537.36" font-family="Helvetica,sans-Serif" font-size="10.00">ShowExampleAppDocuments</text>
</a>
</g>
</g>
<!-- Node16&#45;&gt;Node31 -->
<g id="edge45" class="edge">
<title>Node16&#45;&gt;Node31</title>
<path fill="none" stroke="#63b8ff" d="M656.65,-476.66C636.91,-485.52 609.91,-496.51 585,-502.86 509.17,-522.18 420.14,-531.5 357.63,-535.94"/>
<polygon fill="#63b8ff" stroke="#63b8ff" points="658.35,-479.73 665.98,-472.39 655.44,-473.37 658.35,-479.73"/>
</g>
<!-- Node32 -->
<g id="node32" class="node">
<title>Node32</title>
<g id="a_node32"><a xlink:href="imgui__demo_8cpp.html#a2f38052447680c83c0028e4f21f0a2e6" target="_top" xlink:title=" ">
<polygon fill="white" stroke="#666666" points="354.5,-512.36 200.5,-512.36 200.5,-493.36 354.5,-493.36 354.5,-512.36"/>
<text text-anchor="middle" x="277.5" y="-500.36" font-family="Helvetica,sans-Serif" font-size="10.00">ShowExampleAppFullscreen</text>
</a>
</g>
</g>
<!-- Node16&#45;&gt;Node32 -->
<g id="edge47" class="edge">
<title>Node16&#45;&gt;Node32</title>
<path fill="none" stroke="#63b8ff" d="M641.29,-471.82C623.82,-475.09 603.53,-478.54 585,-480.86 506.79,-490.64 416.76,-496.46 354.61,-499.63"/>
<polygon fill="#63b8ff" stroke="#63b8ff" points="642.05,-475.24 651.22,-469.93 640.74,-468.36 642.05,-475.24"/>
</g>
<!-- Node33 -->
<g id="node33" class="node">
<title>Node33</title>
<g id="a_node33"><a xlink:href="imgui__demo_8cpp.html#adfe8516f13b623adbf78b024efd5bb6e" target="_top" xlink:title=" ">
<polygon fill="white" stroke="#666666" points="565.5,-472.36 428.5,-472.36 428.5,-453.36 565.5,-453.36 565.5,-472.36"/>
<text text-anchor="middle" x="497" y="-460.36" font-family="Helvetica,sans-Serif" font-size="10.00">ShowExampleAppLayout</text>
</a>
</g>
</g>
<!-- Node16&#45;&gt;Node33 -->
<g id="edge49" class="edge">
<title>Node16&#45;&gt;Node33</title>
<path fill="none" stroke="#63b8ff" d="M640.85,-462.86C618.36,-462.86 590.62,-462.86 565.58,-462.86"/>
<polygon fill="#63b8ff" stroke="#63b8ff" points="641.11,-466.36 651.11,-462.86 641.11,-459.36 641.11,-466.36"/>
</g>
<!-- Node16&#45;&gt;Node34 -->
<g id="edge52" class="edge">
<title>Node16&#45;&gt;Node34</title>
<path fill="none" stroke="#63b8ff" d="M677.04,-443.49C663.28,-411.21 636.06,-344.11 621,-284.86 607.82,-233.02 621.79,-85.69 585,-46.86 580.97,-42.61 576.22,-39.22 571.05,-36.53"/>
<polygon fill="#63b8ff" stroke="#63b8ff" points="673.99,-445.24 681.16,-453.04 680.41,-442.47 673.99,-445.24"/>
</g>
<!-- Node35 -->
<g id="node35" class="node">
<title>Node35</title>
<g id="a_node35"><a xlink:href="imgui__demo_8cpp.html#a746628697dff9d8d5e352436c96633c9" target="_top" xlink:title=" ">
<polygon fill="white" stroke="#666666" points="584,-435.36 410,-435.36 410,-416.36 584,-416.36 584,-435.36"/>
<text text-anchor="middle" x="497" y="-423.36" font-family="Helvetica,sans-Serif" font-size="10.00">ShowExampleAppPropertyEditor</text>
</a>
</g>
</g>
<!-- Node16&#45;&gt;Node35 -->
<g id="edge54" class="edge">
<title>Node16&#45;&gt;Node35</title>
<path fill="none" stroke="#63b8ff" d="M641.02,-454.08C612.51,-448.46 575.52,-441.16 546.29,-435.39"/>
<polygon fill="#63b8ff" stroke="#63b8ff" points="640.62,-457.57 651.11,-456.07 641.98,-450.7 640.62,-457.57"/>
</g>
<!-- Node36 -->
<g id="node36" class="node">
<title>Node36</title>
<g id="a_node36"><a xlink:href="imgui__demo_8cpp.html#a41a6cb36f6ad91f80eba61b0053d17a5" target="_top" xlink:title=" ">
<polygon fill="white" stroke="#666666" points="585,-398.36 409,-398.36 409,-379.36 585,-379.36 585,-398.36"/>
<text text-anchor="middle" x="497" y="-386.36" font-family="Helvetica,sans-Serif" font-size="10.00">ShowExampleAppSimpleOverlay</text>
</a>
</g>
</g>
<!-- Node16&#45;&gt;Node36 -->
<g id="edge56" class="edge">
<title>Node16&#45;&gt;Node36</title>
<path fill="none" stroke="#63b8ff" d="M662.94,-447.65C643.18,-434.99 613.28,-417.38 585,-406.86 576.04,-403.53 566.31,-400.75 556.72,-398.46"/>
<polygon fill="#63b8ff" stroke="#63b8ff" points="661.23,-450.72 671.52,-453.25 665.06,-444.85 661.23,-450.72"/>
</g>
<!-- Node37 -->
<g id="node37" class="node">
<title>Node37</title>
<g id="a_node37"><a xlink:href="imgui__demo_8cpp.html#aa93cc0d732db176bbffaf106faaa0ca1" target="_top" xlink:title=" ">
<polygon fill="white" stroke="#666666" points="582,-361.36 412,-361.36 412,-342.36 582,-342.36 582,-361.36"/>
<text text-anchor="middle" x="497" y="-349.36" font-family="Helvetica,sans-Serif" font-size="10.00">ShowExampleAppWindowTitles</text>
</a>
</g>
</g>
<!-- Node16&#45;&gt;Node37 -->
<g id="edge58" class="edge">
<title>Node16&#45;&gt;Node37</title>
<path fill="none" stroke="#63b8ff" d="M668.42,-446.1C642.37,-420.7 594.72,-374.86 585,-369.86 578.42,-366.47 571.24,-363.72 563.93,-361.49"/>
<polygon fill="#63b8ff" stroke="#63b8ff" points="666.14,-448.78 675.74,-453.26 671.04,-443.77 666.14,-448.78"/>
</g>
<!-- Node17&#45;&gt;Node17 -->
<g id="edge18" class="edge">
<title>Node17&#45;&gt;Node17</title>
<path fill="none" stroke="#63b8ff" d="M529.91,-721.46C525.41,-725.83 514.44,-728.86 497,-728.86 467.62,-728.86 456.61,-720.27 463.95,-711.14"/>
<polygon fill="#63b8ff" stroke="#63b8ff" points="533.41,-721.18 530.05,-711.14 526.41,-721.09 533.41,-721.18"/>
</g>
<!-- Node18&#45;&gt;Node12 -->
<g id="edge20" class="edge">
<title>Node18&#45;&gt;Node12</title>
<path fill="none" stroke="#63b8ff" d="M215.92,-287.05C204.42,-290.25 192.66,-294.16 182,-298.86 144.22,-315.51 104.96,-344.91 85.86,-360.12"/>
<polygon fill="#63b8ff" stroke="#63b8ff" points="217.14,-290.35 225.92,-284.42 215.36,-283.58 217.14,-290.35"/>
</g>
<!-- Node20 -->
<g id="node20" class="node">
<title>Node20</title>
<g id="a_node20"><a xlink:href="imgui__demo_8cpp.html#a9a639caab781642cbc4f4a23bfbd11cd" target="_top" xlink:title=" ">
<polygon fill="white" stroke="#666666" points="340,-247.36 215,-247.36 215,-228.36 340,-228.36 340,-247.36"/>
<text text-anchor="middle" x="277.5" y="-235.36" font-family="Helvetica,sans-Serif" font-size="10.00">DemoWindowWidgets</text>
</a>
</g>
</g>
<!-- Node19&#45;&gt;Node20 -->
<g id="edge22" class="edge">
<title>Node19&#45;&gt;Node20</title>
<path fill="none" stroke="#63b8ff" d="M402.04,-235.02C381.14,-235.5 359.5,-236 340.29,-236.44"/>
<polygon fill="#63b8ff" stroke="#63b8ff" points="402.3,-238.52 412.22,-234.79 402.14,-231.52 402.3,-238.52"/>
</g>
<!-- Node20&#45;&gt;Node12 -->
<g id="edge23" class="edge">
<title>Node20&#45;&gt;Node12</title>
<path fill="none" stroke="#63b8ff" d="M204.82,-246.53C196.86,-248.94 189.08,-251.99 182,-255.86 133.68,-282.28 94.37,-337.98 79.94,-360.31"/>
<polygon fill="#63b8ff" stroke="#63b8ff" points="205.83,-249.88 214.58,-243.91 204.02,-243.12 205.83,-249.88"/>
</g>
<!-- Node22 -->
<g id="node22" class="node">
<title>Node22</title>
<g id="a_node22"><a xlink:href="imgui__demo_8cpp.html#a83fdfc359b5a0432835090acd227690f" target="_top" xlink:title=" ">
<polygon fill="white" stroke="#666666" points="365.5,-210.36 189.5,-210.36 189.5,-191.36 365.5,-191.36 365.5,-210.36"/>
<text text-anchor="middle" x="277.5" y="-198.36" font-family="Helvetica,sans-Serif" font-size="10.00">ShowExampleAppAssetsBrowser</text>
</a>
</g>
</g>
<!-- Node21&#45;&gt;Node22 -->
<g id="edge26" class="edge">
<title>Node21&#45;&gt;Node22</title>
<path fill="none" stroke="#63b8ff" d="M421.04,-190.38C403.26,-191.68 384.15,-193.09 365.87,-194.43"/>
<polygon fill="#63b8ff" stroke="#63b8ff" points="421.62,-193.84 431.33,-189.62 421.1,-186.86 421.62,-193.84"/>
</g>
<!-- Node22&#45;&gt;Node12 -->
<g id="edge27" class="edge">
<title>Node22&#45;&gt;Node12</title>
<path fill="none" stroke="#63b8ff" d="M189.6,-214.55C186.98,-215.87 184.44,-217.3 182,-218.86 125.25,-255.16 89.18,-332.83 77.85,-360.13"/>
<polygon fill="#63b8ff" stroke="#63b8ff" points="191.03,-217.75 198.78,-210.53 188.22,-211.34 191.03,-217.75"/>
</g>
<!-- Node23&#45;&gt;Node24 -->
<g id="edge30" class="edge">
<title>Node23&#45;&gt;Node24</title>
<path fill="none" stroke="#63b8ff" d="M429.9,-881.11C399.49,-886.28 363.79,-892.35 334.7,-897.3"/>
<polygon fill="#63b8ff" stroke="#63b8ff" points="430.72,-884.52 439.99,-879.39 429.54,-877.62 430.72,-884.52"/>
</g>
<!-- Node25 -->
<g id="node25" class="node">
<title>Node25</title>
<g id="a_node25"><a xlink:href="classmtgb_1_1MTImGui.html#aba6310f01ca3716db9817ef459b605f6" target="_top" xlink:title="ImGuiウィンドウの表示、キュー内の表示関数の一括実行、ImGuiウィンドウのEnd()までを行う">
<polygon fill="white" stroke="#666666" points="359.5,-879.36 195.5,-879.36 195.5,-860.36 359.5,-860.36 359.5,-879.36"/>
<text text-anchor="middle" x="277.5" y="-867.36" font-family="Helvetica,sans-Serif" font-size="10.00">mtgb::MTImGui::ShowWindow</text>
</a>
</g>
</g>
<!-- Node23&#45;&gt;Node25 -->
<g id="edge32" class="edge">
<title>Node23&#45;&gt;Node25</title>
<path fill="none" stroke="#63b8ff" d="M413.63,-869.86C396.01,-869.86 377.4,-869.86 359.82,-869.86"/>
<polygon fill="#63b8ff" stroke="#63b8ff" points="413.88,-873.36 423.88,-869.86 413.88,-866.36 413.88,-873.36"/>
</g>
<!-- Node24&#45;&gt;Node9 -->
<g id="edge31" class="edge">
<title>Node24&#45;&gt;Node9</title>
<path fill="none" stroke="#63b8ff" d="M196.09,-906.86C177.03,-906.86 156.95,-906.86 138.7,-906.86"/>
<polygon fill="#63b8ff" stroke="#63b8ff" points="196.24,-910.36 206.24,-906.86 196.24,-903.36 196.24,-910.36"/>
</g>
<!-- Node25&#45;&gt;Node9 -->
<g id="edge33" class="edge">
<title>Node25&#45;&gt;Node9</title>
<path fill="none" stroke="#63b8ff" d="M214.3,-881.23C190.31,-885.61 162.87,-890.62 138.65,-895.05"/>
<polygon fill="#63b8ff" stroke="#63b8ff" points="215.14,-884.63 224.35,-879.39 213.88,-877.74 215.14,-884.63"/>
</g>
<!-- Node26&#45;&gt;Node12 -->
<g id="edge35" class="edge">
<title>Node26&#45;&gt;Node12</title>
<path fill="none" stroke="#63b8ff" d="M440.14,-54.77C372.09,-44.59 256.94,-38.56 182,-94.86 90.96,-163.26 76.6,-319.83 74.39,-360.22"/>
<polygon fill="#63b8ff" stroke="#63b8ff" points="439.82,-58.26 450.24,-56.36 440.91,-51.35 439.82,-58.26"/>
</g>
<!-- Node27&#45;&gt;Node12 -->
<g id="edge38" class="edge">
<title>Node27&#45;&gt;Node12</title>
<path fill="none" stroke="#63b8ff" d="M190.07,-176.81C187.27,-178.34 184.57,-180.01 182,-181.86 116.62,-228.92 85.08,-328.67 76.49,-360.14"/>
<polygon fill="#63b8ff" stroke="#63b8ff" points="191.77,-179.88 199.33,-172.45 188.79,-173.55 191.77,-179.88"/>
</g>
<!-- Node28&#45;&gt;Node12 -->
<g id="edge40" class="edge">
<title>Node28&#45;&gt;Node12</title>
<path fill="none" stroke="#63b8ff" d="M188.47,-139.08C186.22,-140.57 184.06,-142.16 182,-143.86 109.33,-204.06 82.26,-324.59 75.7,-359.91"/>
<polygon fill="#63b8ff" stroke="#63b8ff" points="190.58,-141.9 197.5,-133.88 187.09,-135.84 190.58,-141.9"/>
</g>
<!-- Node29&#45;&gt;Node12 -->
<g id="edge42" class="edge">
<title>Node29&#45;&gt;Node12</title>
<path fill="none" stroke="#63b8ff" d="M190.87,-600.78C187.76,-599.02 184.79,-597.05 182,-594.86 107.72,-536.51 81.63,-414.38 75.52,-379.4"/>
<polygon fill="#63b8ff" stroke="#63b8ff" points="189.42,-603.96 199.94,-605.22 192.5,-597.68 189.42,-603.96"/>
</g>
<!-- Node30&#45;&gt;Node12 -->
<g id="edge44" class="edge">
<title>Node30&#45;&gt;Node12</title>
<path fill="none" stroke="#63b8ff" d="M190.07,-562.91C187.27,-561.39 184.57,-559.71 182,-557.86 116.62,-510.8 85.08,-411.05 76.49,-379.58"/>
<polygon fill="#63b8ff" stroke="#63b8ff" points="188.79,-566.17 199.33,-567.27 191.77,-559.84 188.79,-566.17"/>
</g>
<!-- Node31&#45;&gt;Node12 -->
<g id="edge46" class="edge">
<title>Node31&#45;&gt;Node12</title>
<path fill="none" stroke="#63b8ff" d="M191.87,-526.34C188.44,-524.71 185.14,-522.89 182,-520.86 125.44,-484.27 89.25,-406.78 77.86,-379.56"/>
<polygon fill="#63b8ff" stroke="#63b8ff" points="190.59,-529.6 201.17,-530.23 193.29,-523.14 190.59,-529.6"/>
</g>
<!-- Node32&#45;&gt;Node12 -->
<g id="edge48" class="edge">
<title>Node32&#45;&gt;Node12</title>
<path fill="none" stroke="#63b8ff" d="M208.49,-490.36C199.27,-487.31 190.18,-483.54 182,-478.86 135.75,-452.42 95.85,-400.76 80.6,-379.43"/>
<polygon fill="#63b8ff" stroke="#63b8ff" points="207.52,-493.73 218.11,-493.28 209.56,-487.03 207.52,-493.73"/>
</g>
<!-- Node33&#45;&gt;Node12 -->
<g id="edge50" class="edge">
<title>Node33&#45;&gt;Node12</title>
<path fill="none" stroke="#63b8ff" d="M418.25,-458.66C353.88,-453.66 260.57,-442.87 182,-419.86 148.09,-409.93 111.3,-390.96 90.6,-379.45"/>
<polygon fill="#63b8ff" stroke="#63b8ff" points="418.1,-462.16 428.33,-459.41 418.62,-455.17 418.1,-462.16"/>
</g>
<!-- Node34&#45;&gt;Node12 -->
<g id="edge53" class="edge">
<title>Node34&#45;&gt;Node12</title>
<path fill="none" stroke="#63b8ff" d="M412.62,-22.83C331.96,-18.78 216.94,-18.27 182,-44.86 75.54,-125.87 72.79,-315.53 73.68,-360.28"/>
<polygon fill="#63b8ff" stroke="#63b8ff" points="412.6,-26.34 422.77,-23.37 412.97,-19.35 412.6,-26.34"/>
</g>
<!-- Node35&#45;&gt;Node12 -->
<g id="edge55" class="edge">
<title>Node35&#45;&gt;Node12</title>
<path fill="none" stroke="#63b8ff" d="M399.47,-418.97C337.17,-413.79 254.51,-405.57 182,-393.86 158.49,-390.06 132.41,-384.31 111.78,-379.39"/>
<polygon fill="#63b8ff" stroke="#63b8ff" points="399.43,-422.47 409.68,-419.8 400,-415.5 399.43,-422.47"/>
</g>
<!-- Node36&#45;&gt;Node12 -->
<g id="edge57" class="edge">
<title>Node36&#45;&gt;Node12</title>
<path fill="none" stroke="#63b8ff" d="M398.53,-384.56C336.53,-381.81 254.55,-378.16 182,-374.86 170.37,-374.33 158.05,-373.77 146.04,-373.21"/>
<polygon fill="#63b8ff" stroke="#63b8ff" points="398.55,-388.06 408.7,-385.01 398.86,-381.07 398.55,-388.06"/>
</g>
<!-- Node37&#45;&gt;Node12 -->
<g id="edge59" class="edge">
<title>Node37&#45;&gt;Node12</title>
<path fill="none" stroke="#63b8ff" d="M401.65,-355.89C324.33,-359.18 216.55,-363.78 146.04,-366.79"/>
<polygon fill="#63b8ff" stroke="#63b8ff" points="402.03,-359.37 411.87,-355.45 401.73,-352.38 402.03,-359.37"/>
</g>
<!-- Node38&#45;&gt;Node12 -->
<g id="edge64" class="edge">
<title>Node38&#45;&gt;Node12</title>
<path fill="none" stroke="#63b8ff" d="M684.78,-246.94C681.77,-196.76 666.12,-65.24 585,-9.86 557.34,9.02 198.52,-4.24 182,-16.86 123.81,-61.31 83.46,-307.64 75.46,-360.05"/>
<polygon fill="#63b8ff" stroke="#63b8ff" points="681.3,-247.29 685.28,-257.11 688.29,-246.95 681.3,-247.29"/>
</g>
</g>
</svg>
