<?xml version="1.0" encoding="UTF-8" standalone="no"?>
<!DOCTYPE svg PUBLIC "-//W3C//DTD SVG 1.1//EN"
 "http://www.w3.org/Graphics/SVG/1.1/DTD/svg11.dtd">
<!-- Generated by graphviz version 2.43.0 (0)
 -->
<!-- Title: ImTextureData::GetPitch Pages: 1 -->
<svg width="3094pt" height="545pt"
 viewBox="0.00 0.00 3094.00 545.00" xmlns="http://www.w3.org/2000/svg" xmlns:xlink="http://www.w3.org/1999/xlink">
<g id="graph0" class="graph" transform="scale(1 1) rotate(0) translate(4 541)">
<title>ImTextureData::GetPitch</title>
<!-- Node1 -->
<g id="node1" class="node">
<title>Node1</title>
<g id="a_node1"><a xlink:title=" ">
<polygon fill="#999999" stroke="#666666" points="3086,-152.5 2950,-152.5 2950,-133.5 3086,-133.5 3086,-152.5"/>
<text text-anchor="middle" x="3018" y="-140.5" font-family="Helvetica,sans-Serif" font-size="10.00">ImTextureData::GetPitch</text>
</a>
</g>
</g>
<!-- Node2 -->
<g id="node2" class="node">
<title>Node2</title>
<g id="a_node2"><a xlink:href="imgui__draw_8cpp.html#af9bb9baf259d78887086d048324b8657" target="_top" xlink:title=" ">
<polygon fill="white" stroke="#666666" points="2911,-212 2741,-212 2741,-182 2911,-182 2911,-212"/>
<text text-anchor="start" x="2749" y="-200" font-family="Helvetica,sans-Serif" font-size="10.00">ImFontAtlasBakedSetFontGlyph</text>
<text text-anchor="middle" x="2826" y="-189" font-family="Helvetica,sans-Serif" font-size="10.00">Bitmap</text>
</a>
</g>
</g>
<!-- Node1&#45;&gt;Node2 -->
<g id="edge1" class="edge">
<title>Node1&#45;&gt;Node2</title>
<path fill="none" stroke="#63b8ff" d="M2973.62,-155.33C2945.78,-163.24 2909.45,-173.57 2879.91,-181.96"/>
<polygon fill="#63b8ff" stroke="#63b8ff" points="2974.81,-158.63 2983.47,-152.53 2972.89,-151.9 2974.81,-158.63"/>
</g>
<!-- Node451 -->
<g id="node45" class="node">
<title>Node451</title>
<g id="a_node45"><a xlink:href="imgui__impl__dx11_8cpp.html#ad89ca8616114258839701901cef9300c" target="_top" xlink:title=" ">
<polygon fill="white" stroke="#666666" points="2914,-131.5 2738,-131.5 2738,-112.5 2914,-112.5 2914,-131.5"/>
<text text-anchor="middle" x="2826" y="-119.5" font-family="Helvetica,sans-Serif" font-size="10.00">ImGui_ImplDX11_UpdateTexture</text>
</a>
</g>
</g>
<!-- Node1&#45;&gt;Node451 -->
<g id="edge64" class="edge">
<title>Node1&#45;&gt;Node451</title>
<path fill="none" stroke="#63b8ff" d="M2939.62,-134.45C2930.89,-133.48 2921.96,-132.5 2913.13,-131.52"/>
<polygon fill="#63b8ff" stroke="#63b8ff" points="2939.42,-137.95 2949.75,-135.57 2940.19,-130.99 2939.42,-137.95"/>
</g>
<!-- Node3 -->
<g id="node3" class="node">
<title>Node3</title>
<g id="a_node3"><a xlink:href="imgui__draw_8cpp.html#a384d25358c5821097a2a8cfc007a78a5" target="_top" xlink:title=" ">
<polygon fill="white" stroke="#666666" points="2702,-248 2571,-248 2571,-218 2702,-218 2702,-248"/>
<text text-anchor="start" x="2579" y="-236" font-family="Helvetica,sans-Serif" font-size="10.00">ImGui_ImplStbTrueType</text>
<text text-anchor="middle" x="2636.5" y="-225" font-family="Helvetica,sans-Serif" font-size="10.00">_FontBakedLoadGlyph</text>
</a>
</g>
</g>
<!-- Node2&#45;&gt;Node3 -->
<g id="edge2" class="edge">
<title>Node2&#45;&gt;Node3</title>
<path fill="none" stroke="#63b8ff" d="M2736.67,-213.96C2725.04,-216.19 2713.3,-218.45 2702.16,-220.58"/>
<polygon fill="#63b8ff" stroke="#63b8ff" points="2737.68,-217.33 2746.84,-212.01 2736.36,-210.45 2737.68,-217.33"/>
</g>
<!-- Node4 -->
<g id="node4" class="node">
<title>Node4</title>
<g id="a_node4"><a xlink:href="imgui__draw_8cpp.html#a2445ec6272ab6f7597ad4012e178a5d6" target="_top" xlink:title=" ">
<polygon fill="white" stroke="#666666" points="2535,-324 2389,-324 2389,-294 2535,-294 2535,-324"/>
<text text-anchor="start" x="2397" y="-312" font-family="Helvetica,sans-Serif" font-size="10.00">ImFontAtlasGetFontLoader</text>
<text text-anchor="middle" x="2462" y="-301" font-family="Helvetica,sans-Serif" font-size="10.00">ForStbTruetype</text>
</a>
</g>
</g>
<!-- Node3&#45;&gt;Node4 -->
<g id="edge3" class="edge">
<title>Node3&#45;&gt;Node4</title>
<path fill="none" stroke="#63b8ff" d="M2592.22,-252.07C2562.86,-265 2524.56,-281.88 2497.3,-293.89"/>
<polygon fill="#63b8ff" stroke="#63b8ff" points="2593.68,-255.25 2601.42,-248.02 2590.86,-248.84 2593.68,-255.25"/>
</g>
<!-- Node5 -->
<g id="node5" class="node">
<title>Node5</title>
<g id="a_node5"><a xlink:href="imgui__draw_8cpp.html#ac050ff181df43cec0b63d834b6039c3f" target="_top" xlink:title=" ">
<polygon fill="white" stroke="#666666" points="2317,-318.5 2201,-318.5 2201,-299.5 2317,-299.5 2317,-318.5"/>
<text text-anchor="middle" x="2259" y="-306.5" font-family="Helvetica,sans-Serif" font-size="10.00">ImFontAtlasBuildInit</text>
</a>
</g>
</g>
<!-- Node4&#45;&gt;Node5 -->
<g id="edge4" class="edge">
<title>Node4&#45;&gt;Node5</title>
<path fill="none" stroke="#63b8ff" d="M2378.68,-309C2358.02,-309 2336.3,-309 2317.17,-309"/>
<polygon fill="#63b8ff" stroke="#63b8ff" points="2378.72,-312.5 2388.72,-309 2378.72,-305.5 2378.72,-312.5"/>
</g>
<!-- Node15 -->
<g id="node15" class="node">
<title>Node15</title>
<g id="a_node15"><a xlink:href="namespaceImGui.html#acab51ec2b39577845309f24535381038" target="_top" xlink:title=" ">
<polygon fill="white" stroke="#666666" points="696,-469.5 572,-469.5 572,-450.5 696,-450.5 696,-469.5"/>
<text text-anchor="middle" x="634" y="-457.5" font-family="Helvetica,sans-Serif" font-size="10.00">ImGui::ShowFontAtlas</text>
</a>
</g>
</g>
<!-- Node4&#45;&gt;Node15 -->
<g id="edge63" class="edge">
<title>Node4&#45;&gt;Node15</title>
<path fill="none" stroke="#63b8ff" d="M2438.96,-331.49C2380.11,-389.02 2212.11,-537 2041,-537 2041,-537 2041,-537 1029.5,-537 890.28,-537 728.47,-490.24 663.82,-469.6"/>
<polygon fill="#63b8ff" stroke="#63b8ff" points="2441.57,-333.84 2446.22,-324.31 2436.65,-328.86 2441.57,-333.84"/>
</g>
<!-- Node6 -->
<g id="node6" class="node">
<title>Node6</title>
<g id="a_node6"><a xlink:href="structImFontAtlas.html#ab4660128958e0c30577056975ef8dc29" target="_top" xlink:title=" ">
<polygon fill="white" stroke="#666666" points="1698,-318.5 1539,-318.5 1539,-299.5 1698,-299.5 1698,-318.5"/>
<text text-anchor="middle" x="1618.5" y="-306.5" font-family="Helvetica,sans-Serif" font-size="10.00">ImFontAtlas::AddCustomRect</text>
</a>
</g>
</g>
<!-- Node5&#45;&gt;Node6 -->
<g id="edge5" class="edge">
<title>Node5&#45;&gt;Node6</title>
<path fill="none" stroke="#63b8ff" d="M2190.7,-309C2071.73,-309 1824.87,-309 1698.21,-309"/>
<polygon fill="#63b8ff" stroke="#63b8ff" points="2190.78,-312.5 2200.78,-309 2190.78,-305.5 2190.78,-312.5"/>
</g>
<!-- Node441 -->
<g id="node25" class="node">
<title>Node441</title>
<g id="a_node25"><a xlink:href="structImFontAtlas.html#ad01c0f19a95d37a9e5ebab1e54525625" target="_top" xlink:title=" ">
<polygon fill="white" stroke="#666666" points="2100.5,-201.5 1979.5,-201.5 1979.5,-182.5 2100.5,-182.5 2100.5,-201.5"/>
<text text-anchor="middle" x="2040" y="-189.5" font-family="Helvetica,sans-Serif" font-size="10.00">ImFontAtlas::AddFont</text>
</a>
</g>
</g>
<!-- Node5&#45;&gt;Node441 -->
<g id="edge35" class="edge">
<title>Node5&#45;&gt;Node441</title>
<path fill="none" stroke="#63b8ff" d="M2231.37,-294.64C2186.43,-270.41 2096.73,-222.05 2058.7,-201.54"/>
<polygon fill="#63b8ff" stroke="#63b8ff" points="2229.78,-297.76 2240.24,-299.43 2233.1,-291.6 2229.78,-297.76"/>
</g>
<!-- Node32 -->
<g id="node31" class="node">
<title>Node32</title>
<g id="a_node31"><a xlink:href="imgui__draw_8cpp.html#a2ed1c49f29c1635abb9d187846311e43" target="_top" xlink:title=" ">
<polygon fill="white" stroke="#666666" points="1283.5,-148.5 1159.5,-148.5 1159.5,-129.5 1283.5,-129.5 1283.5,-148.5"/>
<text text-anchor="middle" x="1221.5" y="-136.5" font-family="Helvetica,sans-Serif" font-size="10.00">ImFontAtlasBuildMain</text>
</a>
</g>
</g>
<!-- Node5&#45;&gt;Node32 -->
<g id="edge55" class="edge">
<title>Node5&#45;&gt;Node32</title>
<path fill="none" stroke="#63b8ff" d="M2244.79,-290.96C2223.27,-262.62 2178.07,-207.36 2129,-173 2044.05,-113.52 2016.53,-101.11 1915,-80 1660.88,-27.17 1582.55,-16.03 1331,-80 1293.18,-89.62 1254.3,-115.38 1234.98,-129.47"/>
<polygon fill="#63b8ff" stroke="#63b8ff" points="2242.13,-293.25 2250.93,-299.16 2247.74,-289.06 2242.13,-293.25"/>
</g>
<!-- Node447 -->
<g id="node41" class="node">
<title>Node447</title>
<g id="a_node41"><a xlink:href="imgui__draw_8cpp.html#a9d1efb82d7bc3af7b4ee436ea5d776a9" target="_top" xlink:title=" ">
<polygon fill="white" stroke="#666666" points="1284,-508.5 1159,-508.5 1159,-489.5 1284,-489.5 1284,-508.5"/>
<text text-anchor="middle" x="1221.5" y="-496.5" font-family="Helvetica,sans-Serif" font-size="10.00">ImFontAtlasBuildClear</text>
</a>
</g>
</g>
<!-- Node5&#45;&gt;Node447 -->
<g id="edge53" class="edge">
<title>Node5&#45;&gt;Node447</title>
<path fill="none" stroke="#63b8ff" d="M2237.98,-325.06C2178.79,-370.89 1997.9,-499 1825.5,-499 1825.5,-499 1825.5,-499 1617.5,-499 1499.55,-499 1361.79,-499 1284.08,-499"/>
<polygon fill="#63b8ff" stroke="#63b8ff" points="2240.41,-327.61 2246.12,-318.68 2236.09,-322.1 2240.41,-327.61"/>
</g>
<!-- Node448 -->
<g id="node42" class="node">
<title>Node448</title>
<g id="a_node42"><a xlink:href="imgui__draw_8cpp.html#ac554b588bab2aa85e6f6d6969b8224e4" target="_top" xlink:title=" ">
<polygon fill="white" stroke="#666666" points="2119,-356.5 1961,-356.5 1961,-337.5 2119,-337.5 2119,-356.5"/>
<text text-anchor="middle" x="2040" y="-344.5" font-family="Helvetica,sans-Serif" font-size="10.00">ImFontAtlasPackGetRectSafe</text>
</a>
</g>
</g>
<!-- Node5&#45;&gt;Node448 -->
<g id="edge56" class="edge">
<title>Node5&#45;&gt;Node448</title>
<path fill="none" stroke="#63b8ff" d="M2193.61,-320.28C2162.39,-325.74 2125.3,-332.24 2095.5,-337.46"/>
<polygon fill="#63b8ff" stroke="#63b8ff" points="2194.28,-323.71 2203.52,-318.54 2193.07,-316.82 2194.28,-323.71"/>
</g>
<!-- Node7 -->
<g id="node7" class="node">
<title>Node7</title>
<g id="a_node7"><a xlink:href="imgui__draw_8cpp.html#ab393bf8b3bb80eec2e65edae02153d8c" target="_top" xlink:title=" ">
<polygon fill="white" stroke="#666666" points="1497.5,-341 1336.5,-341 1336.5,-311 1497.5,-311 1497.5,-341"/>
<text text-anchor="start" x="1344.5" y="-329" font-family="Helvetica,sans-Serif" font-size="10.00">ImFontAtlasBuildUpdateBasic</text>
<text text-anchor="middle" x="1417" y="-318" font-family="Helvetica,sans-Serif" font-size="10.00">TexData</text>
</a>
</g>
</g>
<!-- Node6&#45;&gt;Node7 -->
<g id="edge6" class="edge">
<title>Node6&#45;&gt;Node7</title>
<path fill="none" stroke="#63b8ff" d="M1528.71,-316.57C1518.42,-317.44 1507.96,-318.33 1497.8,-319.2"/>
<polygon fill="#63b8ff" stroke="#63b8ff" points="1529.27,-320.03 1538.94,-315.69 1528.68,-313.06 1529.27,-320.03"/>
</g>
<!-- Node440 -->
<g id="node24" class="node">
<title>Node440</title>
<g id="a_node24"><a xlink:href="imgui__draw_8cpp.html#ae1947e9ba26126e2cd94f8772df62b88" target="_top" xlink:title=" ">
<polygon fill="white" stroke="#666666" points="1497.5,-400 1336.5,-400 1336.5,-370 1497.5,-370 1497.5,-400"/>
<text text-anchor="start" x="1344.5" y="-388" font-family="Helvetica,sans-Serif" font-size="10.00">ImFontAtlasBuildUpdateLines</text>
<text text-anchor="middle" x="1417" y="-377" font-family="Helvetica,sans-Serif" font-size="10.00">TexData</text>
</a>
</g>
</g>
<!-- Node6&#45;&gt;Node440 -->
<g id="edge32" class="edge">
<title>Node6&#45;&gt;Node440</title>
<path fill="none" stroke="#63b8ff" d="M1582.46,-322.35C1547.51,-335.66 1493.92,-356.08 1457.48,-369.96"/>
<polygon fill="#63b8ff" stroke="#63b8ff" points="1584.13,-325.46 1592.23,-318.63 1581.64,-318.91 1584.13,-325.46"/>
</g>
<!-- Node7&#45;&gt;Node5 -->
<g id="edge7" class="edge">
<title>Node7&#45;&gt;Node5</title>
<path fill="none" stroke="#63b8ff" d="M1468.63,-307.91C1490.04,-301.17 1515.44,-294.34 1539,-291 1783.17,-256.4 2078.53,-285.9 2200.77,-301.19"/>
<polygon fill="#63b8ff" stroke="#63b8ff" points="1467.53,-304.59 1459.09,-310.99 1469.68,-311.25 1467.53,-304.59"/>
</g>
<!-- Node8 -->
<g id="node8" class="node">
<title>Node8</title>
<g id="a_node8"><a xlink:href="imgui__draw_8cpp.html#a774e74d2f6e0b33b6e6b85d4d5c5b3da" target="_top" xlink:title=" ">
<polygon fill="white" stroke="#666666" points="1295,-394.5 1148,-394.5 1148,-375.5 1295,-375.5 1295,-394.5"/>
<text text-anchor="middle" x="1221.5" y="-382.5" font-family="Helvetica,sans-Serif" font-size="10.00">ImFontAtlasTextureRepack</text>
</a>
</g>
</g>
<!-- Node7&#45;&gt;Node8 -->
<g id="edge8" class="edge">
<title>Node7&#45;&gt;Node8</title>
<path fill="none" stroke="#63b8ff" d="M1356.85,-344.04C1322.9,-354.39 1281.63,-366.97 1253.86,-375.44"/>
<polygon fill="#63b8ff" stroke="#63b8ff" points="1358.13,-347.31 1366.67,-341.04 1356.09,-340.61 1358.13,-347.31"/>
</g>
<!-- Node9 -->
<g id="node9" class="node">
<title>Node9</title>
<g id="a_node9"><a xlink:href="imgui__draw_8cpp.html#af11c1114c44b7a339be338065a28412b" target="_top" xlink:title=" ">
<polygon fill="white" stroke="#666666" points="1108,-431.5 953,-431.5 953,-412.5 1108,-412.5 1108,-431.5"/>
<text text-anchor="middle" x="1030.5" y="-419.5" font-family="Helvetica,sans-Serif" font-size="10.00">ImFontAtlasTextureCompact</text>
</a>
</g>
</g>
<!-- Node8&#45;&gt;Node9 -->
<g id="edge9" class="edge">
<title>Node8&#45;&gt;Node9</title>
<path fill="none" stroke="#63b8ff" d="M1161.67,-396.52C1135.56,-401.63 1105.17,-407.58 1080.34,-412.44"/>
<polygon fill="#63b8ff" stroke="#63b8ff" points="1162.69,-399.88 1171.83,-394.53 1161.34,-393.01 1162.69,-399.88"/>
</g>
<!-- Node21 -->
<g id="node21" class="node">
<title>Node21</title>
<g id="a_node21"><a xlink:href="imgui__draw_8cpp.html#ad574da8343f063ce995d922236480aac" target="_top" xlink:title=" ">
<polygon fill="white" stroke="#666666" points="1099,-394.5 962,-394.5 962,-375.5 1099,-375.5 1099,-394.5"/>
<text text-anchor="middle" x="1030.5" y="-382.5" font-family="Helvetica,sans-Serif" font-size="10.00">ImFontAtlasTextureGrow</text>
</a>
</g>
</g>
<!-- Node8&#45;&gt;Node21 -->
<g id="edge23" class="edge">
<title>Node8&#45;&gt;Node21</title>
<path fill="none" stroke="#63b8ff" d="M1137.72,-378.3C1124.85,-378.19 1111.67,-378.26 1099.18,-378.5"/>
<polygon fill="#63b8ff" stroke="#63b8ff" points="1137.93,-381.8 1147.97,-378.41 1138.01,-374.8 1137.93,-381.8"/>
</g>
<!-- Node22 -->
<g id="node22" class="node">
<title>Node22</title>
<g id="a_node22"><a xlink:href="imgui__draw_8cpp.html#ab6db3feee2a9236c83a4cfa35cd8b044" target="_top" xlink:title=" ">
<polygon fill="white" stroke="#666666" points="913,-356.5 746,-356.5 746,-337.5 913,-337.5 913,-356.5"/>
<text text-anchor="middle" x="829.5" y="-344.5" font-family="Helvetica,sans-Serif" font-size="10.00">ImFontAtlasTextureMakeSpace</text>
</a>
</g>
</g>
<!-- Node8&#45;&gt;Node22 -->
<g id="edge31" class="edge">
<title>Node8&#45;&gt;Node22</title>
<path fill="none" stroke="#63b8ff" d="M1159.37,-373.83C1143.95,-371.3 1127.4,-368.82 1112,-367 1045.34,-359.12 969.41,-353.95 913.22,-350.84"/>
<polygon fill="#63b8ff" stroke="#63b8ff" points="1158.87,-377.3 1169.31,-375.5 1160.03,-370.39 1158.87,-377.3"/>
</g>
<!-- Node10 -->
<g id="node10" class="node">
<title>Node10</title>
<g id="a_node10"><a xlink:href="structImFontAtlas.html#a617f379b512d62e83a395516a555f3c5" target="_top" xlink:title=" ">
<polygon fill="white" stroke="#666666" points="907,-393.5 752,-393.5 752,-374.5 907,-374.5 907,-393.5"/>
<text text-anchor="middle" x="829.5" y="-381.5" font-family="Helvetica,sans-Serif" font-size="10.00">ImFontAtlas::CompactCache</text>
</a>
</g>
</g>
<!-- Node9&#45;&gt;Node10 -->
<g id="edge10" class="edge">
<title>Node9&#45;&gt;Node10</title>
<path fill="none" stroke="#63b8ff" d="M969.71,-410.58C941.23,-405.14 907.57,-398.72 880.48,-393.54"/>
<polygon fill="#63b8ff" stroke="#63b8ff" points="969.06,-414.02 979.54,-412.46 970.37,-407.15 969.06,-414.02"/>
</g>
<!-- Node11 -->
<g id="node11" class="node">
<title>Node11</title>
<g id="a_node11"><a xlink:href="namespaceImGui.html#aab0d052a1581fddc1cc2d9d981f487c0" target="_top" xlink:title=" ">
<polygon fill="white" stroke="#666666" points="710,-374 558,-374 558,-344 710,-344 710,-374"/>
<text text-anchor="start" x="566" y="-362" font-family="Helvetica,sans-Serif" font-size="10.00">ImGui::GcCompactTransient</text>
<text text-anchor="middle" x="634" y="-351" font-family="Helvetica,sans-Serif" font-size="10.00">MiscBuffers</text>
</a>
</g>
</g>
<!-- Node10&#45;&gt;Node11 -->
<g id="edge11" class="edge">
<title>Node10&#45;&gt;Node11</title>
<path fill="none" stroke="#63b8ff" d="M744.75,-373.18C733.23,-371.69 721.46,-370.17 710.11,-368.7"/>
<polygon fill="#63b8ff" stroke="#63b8ff" points="744.43,-376.67 754.79,-374.48 745.32,-369.72 744.43,-376.67"/>
</g>
<!-- Node10&#45;&gt;Node15 -->
<g id="edge15" class="edge">
<title>Node10&#45;&gt;Node15</title>
<path fill="none" stroke="#63b8ff" d="M781.51,-396.3C769.79,-399.74 757.34,-403.72 746,-408 712.35,-420.69 674.75,-439.29 653.09,-450.46"/>
<polygon fill="#63b8ff" stroke="#63b8ff" points="782.49,-399.66 791.14,-393.55 780.56,-392.94 782.49,-399.66"/>
</g>
<!-- Node12 -->
<g id="node12" class="node">
<title>Node12</title>
<g id="a_node12"><a xlink:href="namespaceImGui.html#ab3f1fc018f903b7ad79fd10663375774" target="_top" xlink:title=" ">
<polygon fill="white" stroke="#666666" points="498.5,-164.5 394.5,-164.5 394.5,-145.5 498.5,-145.5 498.5,-164.5"/>
<text text-anchor="middle" x="446.5" y="-152.5" font-family="Helvetica,sans-Serif" font-size="10.00">ImGui::NewFrame</text>
</a>
</g>
</g>
<!-- Node11&#45;&gt;Node12 -->
<g id="edge12" class="edge">
<title>Node11&#45;&gt;Node12</title>
<path fill="none" stroke="#63b8ff" d="M596.53,-338.42C583.6,-330.19 569.43,-320.04 558,-309 509.01,-261.67 467,-190.19 452.71,-164.56"/>
<polygon fill="#63b8ff" stroke="#63b8ff" points="594.89,-341.52 605.23,-343.8 598.56,-335.57 594.89,-341.52"/>
</g>
<!-- Node13 -->
<g id="node13" class="node">
<title>Node13</title>
<g id="a_node13"><a xlink:href="classmtgb_1_1ImGuiRenderer.html#a4684d4374beee1f52053b4634edae2c8" target="_top" xlink:title=" ">
<polygon fill="white" stroke="#666666" points="319.5,-138 197.5,-138 197.5,-108 319.5,-108 319.5,-138"/>
<text text-anchor="start" x="205.5" y="-126" font-family="Helvetica,sans-Serif" font-size="10.00">mtgb::ImGuiRenderer</text>
<text text-anchor="middle" x="258.5" y="-115" font-family="Helvetica,sans-Serif" font-size="10.00">::BeginFrame</text>
</a>
</g>
</g>
<!-- Node12&#45;&gt;Node13 -->
<g id="edge13" class="edge">
<title>Node12&#45;&gt;Node13</title>
<path fill="none" stroke="#63b8ff" d="M384.19,-144.45C363.41,-140.88 340.23,-136.89 319.54,-133.33"/>
<polygon fill="#63b8ff" stroke="#63b8ff" points="383.73,-147.92 394.18,-146.17 384.92,-141.03 383.73,-147.92"/>
</g>
<!-- Node14 -->
<g id="node14" class="node">
<title>Node14</title>
<g id="a_node14"><a xlink:href="classmtgb_1_1RenderSystem.html#a14e39d4590efdf77c2085b12c6f3cdf5" target="_top" xlink:title=" ">
<polygon fill="white" stroke="#666666" points="138.5,-84 7.5,-84 7.5,-54 138.5,-54 138.5,-84"/>
<text text-anchor="start" x="15.5" y="-72" font-family="Helvetica,sans-Serif" font-size="10.00">mtgb::RenderSystem</text>
<text text-anchor="middle" x="73" y="-61" font-family="Helvetica,sans-Serif" font-size="10.00">::RenderImGuiWindows</text>
</a>
</g>
</g>
<!-- Node13&#45;&gt;Node14 -->
<g id="edge14" class="edge">
<title>Node13&#45;&gt;Node14</title>
<path fill="none" stroke="#63b8ff" d="M196.66,-105.1C173.49,-98.28 147.34,-90.58 125.16,-84.05"/>
<polygon fill="#63b8ff" stroke="#63b8ff" points="195.8,-108.49 206.39,-107.96 197.78,-101.78 195.8,-108.49"/>
</g>
<!-- Node16 -->
<g id="node16" class="node">
<title>Node16</title>
<g id="a_node16"><a xlink:href="imgui__demo_8cpp.html#a163f04ccf255dede76e5e54f741ca9d5" target="_top" xlink:title=" ">
<polygon fill="white" stroke="#666666" points="522,-432.5 371,-432.5 371,-413.5 522,-413.5 522,-432.5"/>
<text text-anchor="middle" x="446.5" y="-420.5" font-family="Helvetica,sans-Serif" font-size="10.00">DemoWindowWidgetsFonts</text>
</a>
</g>
</g>
<!-- Node15&#45;&gt;Node16 -->
<g id="edge16" class="edge">
<title>Node15&#45;&gt;Node16</title>
<path fill="none" stroke="#63b8ff" d="M575.26,-448.48C549.63,-443.37 519.81,-437.42 495.43,-432.56"/>
<polygon fill="#63b8ff" stroke="#63b8ff" points="574.74,-451.95 585.23,-450.47 576.11,-445.08 574.74,-451.95"/>
</g>
<!-- Node19 -->
<g id="node19" class="node">
<title>Node19</title>
<g id="a_node19"><a xlink:href="namespaceImGui.html#afe7a28c6eb52fff3cc27d5a698fea4ff" target="_top" xlink:title=" ">
<polygon fill="white" stroke="#666666" points="335,-507.5 182,-507.5 182,-488.5 335,-488.5 335,-507.5"/>
<text text-anchor="middle" x="258.5" y="-495.5" font-family="Helvetica,sans-Serif" font-size="10.00">ImGui::ShowMetricsWindow</text>
</a>
</g>
</g>
<!-- Node15&#45;&gt;Node19 -->
<g id="edge19" class="edge">
<title>Node15&#45;&gt;Node19</title>
<path fill="none" stroke="#63b8ff" d="M573.32,-471.31C556.75,-474.15 538.72,-476.97 522,-479 459.29,-486.62 387.76,-491.55 335.22,-494.47"/>
<polygon fill="#63b8ff" stroke="#63b8ff" points="574.17,-474.72 583.42,-469.55 572.97,-467.82 574.17,-474.72"/>
</g>
<!-- Node20 -->
<g id="node20" class="node">
<title>Node20</title>
<g id="a_node20"><a xlink:href="namespaceImGui.html#ab2eb3dec78d054fe3feab1c091ec5de5" target="_top" xlink:title=" ">
<polygon fill="white" stroke="#666666" points="512,-469.5 381,-469.5 381,-450.5 512,-450.5 512,-469.5"/>
<text text-anchor="middle" x="446.5" y="-457.5" font-family="Helvetica,sans-Serif" font-size="10.00">ImGui::ShowStyleEditor</text>
</a>
</g>
</g>
<!-- Node15&#45;&gt;Node20 -->
<g id="edge21" class="edge">
<title>Node15&#45;&gt;Node20</title>
<path fill="none" stroke="#63b8ff" d="M561.74,-460C545.44,-460 528.2,-460 512.19,-460"/>
<polygon fill="#63b8ff" stroke="#63b8ff" points="561.75,-463.5 571.75,-460 561.75,-456.5 561.75,-463.5"/>
</g>
<!-- Node17 -->
<g id="node17" class="node">
<title>Node17</title>
<g id="a_node17"><a xlink:href="imgui__demo_8cpp.html#a9a639caab781642cbc4f4a23bfbd11cd" target="_top" xlink:title=" ">
<polygon fill="white" stroke="#666666" points="321,-431.5 196,-431.5 196,-412.5 321,-412.5 321,-431.5"/>
<text text-anchor="middle" x="258.5" y="-419.5" font-family="Helvetica,sans-Serif" font-size="10.00">DemoWindowWidgets</text>
</a>
</g>
</g>
<!-- Node16&#45;&gt;Node17 -->
<g id="edge17" class="edge">
<title>Node16&#45;&gt;Node17</title>
<path fill="none" stroke="#63b8ff" d="M360.8,-422.54C347.48,-422.47 333.94,-422.4 321.27,-422.33"/>
<polygon fill="#63b8ff" stroke="#63b8ff" points="360.9,-426.05 370.92,-422.6 360.94,-419.05 360.9,-426.05"/>
</g>
<!-- Node18 -->
<g id="node18" class="node">
<title>Node18</title>
<g id="a_node18"><a xlink:href="namespaceImGui.html#af95643a0ce4893b9e57c12991922fb18" target="_top" xlink:title=" ">
<polygon fill="white" stroke="#666666" points="146,-469.5 0,-469.5 0,-450.5 146,-450.5 146,-469.5"/>
<text text-anchor="middle" x="73" y="-457.5" font-family="Helvetica,sans-Serif" font-size="10.00">ImGui::ShowDemoWindow</text>
</a>
</g>
</g>
<!-- Node17&#45;&gt;Node18 -->
<g id="edge18" class="edge">
<title>Node17&#45;&gt;Node18</title>
<path fill="none" stroke="#63b8ff" d="M201.09,-433.68C175.07,-439.07 144.57,-445.39 119.97,-450.48"/>
<polygon fill="#63b8ff" stroke="#63b8ff" points="202.11,-437.04 211.2,-431.59 200.69,-430.19 202.11,-437.04"/>
</g>
<!-- Node19&#45;&gt;Node18 -->
<g id="edge20" class="edge">
<title>Node19&#45;&gt;Node18</title>
<path fill="none" stroke="#63b8ff" d="M201.09,-486.32C175.07,-480.93 144.57,-474.61 119.97,-469.52"/>
<polygon fill="#63b8ff" stroke="#63b8ff" points="200.69,-489.81 211.2,-488.41 202.11,-482.96 200.69,-489.81"/>
</g>
<!-- Node20&#45;&gt;Node18 -->
<g id="edge22" class="edge">
<title>Node20&#45;&gt;Node18</title>
<path fill="none" stroke="#63b8ff" d="M370.55,-460C305.13,-460 210.82,-460 146.22,-460"/>
<polygon fill="#63b8ff" stroke="#63b8ff" points="370.79,-463.5 380.79,-460 370.79,-456.5 370.79,-463.5"/>
</g>
<!-- Node21&#45;&gt;Node8 -->
<g id="edge29" class="edge">
<title>Node21&#45;&gt;Node8</title>
<path fill="none" stroke="#63b8ff" d="M1109.33,-391.66C1122.11,-391.8 1135.32,-391.78 1147.97,-391.59"/>
<polygon fill="#63b8ff" stroke="#63b8ff" points="1109.23,-388.15 1099.18,-391.5 1109.13,-395.15 1109.23,-388.15"/>
</g>
<!-- Node21&#45;&gt;Node15 -->
<g id="edge30" class="edge">
<title>Node21&#45;&gt;Node15</title>
<path fill="none" stroke="#63b8ff" d="M969,-396.5C891.19,-411.3 757.46,-436.72 685.06,-450.48"/>
<polygon fill="#63b8ff" stroke="#63b8ff" points="969.97,-399.88 979.14,-394.57 968.66,-393 969.97,-399.88"/>
</g>
<!-- Node21&#45;&gt;Node22 -->
<g id="edge24" class="edge">
<title>Node21&#45;&gt;Node22</title>
<path fill="none" stroke="#63b8ff" d="M969.71,-373.58C941.23,-368.14 907.57,-361.72 880.48,-356.54"/>
<polygon fill="#63b8ff" stroke="#63b8ff" points="969.06,-377.02 979.54,-375.46 970.37,-370.15 969.06,-377.02"/>
</g>
<!-- Node23 -->
<g id="node23" class="node">
<title>Node23</title>
<g id="a_node23"><a xlink:href="imgui__draw_8cpp.html#a0033358c6425323b29be68b3f5af3aa9" target="_top" xlink:title=" ">
<polygon fill="#fff0f0" stroke="red" points="703,-299.5 565,-299.5 565,-280.5 703,-280.5 703,-299.5"/>
<text text-anchor="middle" x="634" y="-287.5" font-family="Helvetica,sans-Serif" font-size="10.00">ImFontAtlasPackAddRect</text>
</a>
</g>
</g>
<!-- Node22&#45;&gt;Node23 -->
<g id="edge25" class="edge">
<title>Node22&#45;&gt;Node23</title>
<path fill="none" stroke="#63b8ff" d="M785.65,-334.59C772.89,-330.87 758.87,-326.79 746,-323 719.38,-315.17 689.21,-306.19 667.04,-299.58"/>
<polygon fill="#63b8ff" stroke="#63b8ff" points="784.99,-338.04 795.57,-337.47 786.94,-331.32 784.99,-338.04"/>
</g>
<!-- Node23&#45;&gt;Node3 -->
<g id="edge28" class="edge">
<title>Node23&#45;&gt;Node3</title>
<path fill="none" stroke="#63b8ff" d="M684.5,-278.19C758.92,-261.49 904.26,-233 1029.5,-233 2260,-233 2260,-233 2260,-233 2369.03,-233 2495.87,-233 2570.71,-233"/>
<polygon fill="#63b8ff" stroke="#63b8ff" points="683.46,-274.83 674.48,-280.46 685.01,-281.66 683.46,-274.83"/>
</g>
<!-- Node23&#45;&gt;Node6 -->
<g id="edge26" class="edge">
<title>Node23&#45;&gt;Node6</title>
<path fill="none" stroke="#63b8ff" d="M713.44,-283.99C793.02,-278.43 919.75,-271 1029.5,-271 1222.5,-271 1222.5,-271 1222.5,-271 1341.17,-271 1478.97,-288.2 1556.44,-299.46"/>
<polygon fill="#63b8ff" stroke="#63b8ff" points="712.74,-280.54 703.02,-284.73 713.24,-287.52 712.74,-280.54"/>
</g>
<!-- Node23&#45;&gt;Node8 -->
<g id="edge27" class="edge">
<title>Node23&#45;&gt;Node8</title>
<path fill="none" stroke="#63b8ff" d="M713.39,-294.93C808.57,-302.01 973.57,-317.8 1112,-349 1141.62,-355.68 1174.59,-367.23 1196.33,-375.45"/>
<polygon fill="#63b8ff" stroke="#63b8ff" points="713.49,-291.43 703.26,-294.19 712.98,-298.41 713.49,-291.43"/>
</g>
<!-- Node440&#45;&gt;Node5 -->
<g id="edge33" class="edge">
<title>Node440&#45;&gt;Node5</title>
<path fill="none" stroke="#63b8ff" d="M1507.8,-397.44C1645.07,-413.19 1913.8,-431.07 2129,-366 2170.25,-353.53 2215.75,-331.26 2240.17,-318.57"/>
<polygon fill="#63b8ff" stroke="#63b8ff" points="1508.09,-393.95 1497.75,-396.27 1507.27,-400.9 1508.09,-393.95"/>
</g>
<!-- Node440&#45;&gt;Node8 -->
<g id="edge34" class="edge">
<title>Node440&#45;&gt;Node8</title>
<path fill="none" stroke="#63b8ff" d="M1326.15,-385C1315.78,-385 1305.31,-385 1295.21,-385"/>
<polygon fill="#63b8ff" stroke="#63b8ff" points="1326.46,-388.5 1336.46,-385 1326.46,-381.5 1326.46,-388.5"/>
</g>
<!-- Node442 -->
<g id="node26" class="node">
<title>Node442</title>
<g id="a_node26"><a xlink:href="structImFontAtlas.html#ad7e1ae24061d41f667546626dc39ef09" target="_top" xlink:title=" ">
<polygon fill="white" stroke="#666666" points="1897.5,-205 1751.5,-205 1751.5,-175 1897.5,-175 1897.5,-205"/>
<text text-anchor="start" x="1759.5" y="-193" font-family="Helvetica,sans-Serif" font-size="10.00">ImFontAtlas::AddFontFrom</text>
<text text-anchor="middle" x="1824.5" y="-182" font-family="Helvetica,sans-Serif" font-size="10.00">MemoryTTF</text>
</a>
</g>
</g>
<!-- Node441&#45;&gt;Node442 -->
<g id="edge36" class="edge">
<title>Node441&#45;&gt;Node442</title>
<path fill="none" stroke="#63b8ff" d="M1968.95,-191.34C1946.13,-191.13 1920.75,-190.89 1897.76,-190.68"/>
<polygon fill="#63b8ff" stroke="#63b8ff" points="1969.21,-194.85 1979.24,-191.44 1969.28,-187.85 1969.21,-194.85"/>
</g>
<!-- Node443 -->
<g id="node27" class="node">
<title>Node443</title>
<g id="a_node27"><a xlink:href="structImFontAtlas.html#a4c6bafad7f84b9de141e70b549b3601c" target="_top" xlink:title=" ">
<polygon fill="white" stroke="#666666" points="1691.5,-157 1545.5,-157 1545.5,-127 1691.5,-127 1691.5,-157"/>
<text text-anchor="start" x="1553.5" y="-145" font-family="Helvetica,sans-Serif" font-size="10.00">ImFontAtlas::AddFontFrom</text>
<text text-anchor="middle" x="1618.5" y="-134" font-family="Helvetica,sans-Serif" font-size="10.00">FileTTF</text>
</a>
</g>
</g>
<!-- Node442&#45;&gt;Node443 -->
<g id="edge37" class="edge">
<title>Node442&#45;&gt;Node443</title>
<path fill="none" stroke="#63b8ff" d="M1749.67,-172.63C1727.92,-167.51 1704.32,-161.96 1683.26,-157"/>
<polygon fill="#63b8ff" stroke="#63b8ff" points="1748.98,-176.06 1759.51,-174.94 1750.58,-169.25 1748.98,-176.06"/>
</g>
<!-- Node444 -->
<g id="node29" class="node">
<title>Node444</title>
<g id="a_node29"><a xlink:href="structImFontAtlas.html#a7da214e3b090724bbc43e77ee254870d" target="_top" xlink:title=" ">
<polygon fill="white" stroke="#666666" points="1691.5,-205 1545.5,-205 1545.5,-175 1691.5,-175 1691.5,-205"/>
<text text-anchor="start" x="1553.5" y="-193" font-family="Helvetica,sans-Serif" font-size="10.00">ImFontAtlas::AddFontFrom</text>
<text text-anchor="middle" x="1618.5" y="-182" font-family="Helvetica,sans-Serif" font-size="10.00">MemoryCompressedTTF</text>
</a>
</g>
</g>
<!-- Node442&#45;&gt;Node444 -->
<g id="edge39" class="edge">
<title>Node442&#45;&gt;Node444</title>
<path fill="none" stroke="#63b8ff" d="M1741.18,-190C1724.77,-190 1707.65,-190 1691.61,-190"/>
<polygon fill="#63b8ff" stroke="#63b8ff" points="1741.29,-193.5 1751.29,-190 1741.29,-186.5 1741.29,-193.5"/>
</g>
<!-- Node330 -->
<g id="node28" class="node">
<title>Node330</title>
<g id="a_node28"><a xlink:href="classmtgb_1_1ImGuiRenderer.html#a4db4a95a57f586a5fda30be1957f247a" target="_top" xlink:title=" ">
<polygon fill="white" stroke="#666666" points="1478,-119 1356,-119 1356,-89 1478,-89 1478,-119"/>
<text text-anchor="start" x="1364" y="-107" font-family="Helvetica,sans-Serif" font-size="10.00">mtgb::ImGuiRenderer</text>
<text text-anchor="middle" x="1417" y="-96" font-family="Helvetica,sans-Serif" font-size="10.00">::Initialize</text>
</a>
</g>
</g>
<!-- Node443&#45;&gt;Node330 -->
<g id="edge38" class="edge">
<title>Node443&#45;&gt;Node330</title>
<path fill="none" stroke="#63b8ff" d="M1535.52,-126.38C1516.29,-122.72 1496.16,-118.89 1478.09,-115.45"/>
<polygon fill="#63b8ff" stroke="#63b8ff" points="1535,-129.85 1545.48,-128.28 1536.31,-122.97 1535,-129.85"/>
</g>
<!-- Node445 -->
<g id="node30" class="node">
<title>Node445</title>
<g id="a_node30"><a xlink:href="structImFontAtlas.html#a9d2b4a94579bf603a0d2662cd8348cbd" target="_top" xlink:title=" ">
<polygon fill="white" stroke="#666666" points="1495.5,-156.5 1338.5,-156.5 1338.5,-137.5 1495.5,-137.5 1495.5,-156.5"/>
<text text-anchor="middle" x="1417" y="-144.5" font-family="Helvetica,sans-Serif" font-size="10.00">ImFontAtlas::AddFontDefault</text>
</a>
</g>
</g>
<!-- Node444&#45;&gt;Node445 -->
<g id="edge40" class="edge">
<title>Node444&#45;&gt;Node445</title>
<path fill="none" stroke="#63b8ff" d="M1537.94,-172.85C1512.13,-167.29 1484.44,-161.32 1462.18,-156.52"/>
<polygon fill="#63b8ff" stroke="#63b8ff" points="1537.21,-176.28 1547.72,-174.96 1538.69,-169.43 1537.21,-176.28"/>
</g>
<!-- Node446 -->
<g id="node40" class="node">
<title>Node446</title>
<g id="a_node40"><a xlink:href="structImFontAtlas.html#a00b44a4a4d7b2d5b66f83e8b92d0f5e7" target="_top" xlink:title=" ">
<polygon fill="white" stroke="#666666" points="1503,-205 1331,-205 1331,-175 1503,-175 1503,-205"/>
<text text-anchor="start" x="1339" y="-193" font-family="Helvetica,sans-Serif" font-size="10.00">ImFontAtlas::AddFontFrom</text>
<text text-anchor="middle" x="1417" y="-182" font-family="Helvetica,sans-Serif" font-size="10.00">MemoryCompressedBase85TTF</text>
</a>
</g>
</g>
<!-- Node444&#45;&gt;Node446 -->
<g id="edge52" class="edge">
<title>Node444&#45;&gt;Node446</title>
<path fill="none" stroke="#63b8ff" d="M1535.38,-190C1524.75,-190 1513.85,-190 1503.17,-190"/>
<polygon fill="#63b8ff" stroke="#63b8ff" points="1535.48,-193.5 1545.48,-190 1535.48,-186.5 1535.48,-193.5"/>
</g>
<!-- Node445&#45;&gt;Node32 -->
<g id="edge41" class="edge">
<title>Node445&#45;&gt;Node32</title>
<path fill="none" stroke="#63b8ff" d="M1328.1,-143.37C1313.11,-142.75 1297.84,-142.11 1283.73,-141.53"/>
<polygon fill="#63b8ff" stroke="#63b8ff" points="1328.28,-146.88 1338.41,-143.79 1328.56,-139.88 1328.28,-146.88"/>
</g>
<!-- Node33 -->
<g id="node32" class="node">
<title>Node33</title>
<g id="a_node32"><a xlink:href="structImFontAtlas.html#a81e39e30dffa4dd7e458a53297451e27" target="_top" xlink:title=" ">
<polygon fill="white" stroke="#666666" points="1083.5,-148.5 977.5,-148.5 977.5,-129.5 1083.5,-129.5 1083.5,-148.5"/>
<text text-anchor="middle" x="1030.5" y="-136.5" font-family="Helvetica,sans-Serif" font-size="10.00">ImFontAtlas::Build</text>
</a>
</g>
</g>
<!-- Node32&#45;&gt;Node33 -->
<g id="edge42" class="edge">
<title>Node32&#45;&gt;Node33</title>
<path fill="none" stroke="#63b8ff" d="M1149.18,-139C1127.37,-139 1103.79,-139 1083.51,-139"/>
<polygon fill="#63b8ff" stroke="#63b8ff" points="1149.4,-142.5 1159.4,-139 1149.4,-135.5 1149.4,-142.5"/>
</g>
<!-- Node37 -->
<g id="node36" class="node">
<title>Node37</title>
<g id="a_node36"><a xlink:href="namespaceImGui.html#a8344798d82c6baf9d94f81e445609eb2" target="_top" xlink:title=" ">
<polygon fill="white" stroke="#666666" points="1093.5,-108.5 967.5,-108.5 967.5,-89.5 1093.5,-89.5 1093.5,-108.5"/>
<text text-anchor="middle" x="1030.5" y="-96.5" font-family="Helvetica,sans-Serif" font-size="10.00">ImGui::GetDefaultFont</text>
</a>
</g>
</g>
<!-- Node32&#45;&gt;Node37 -->
<g id="edge46" class="edge">
<title>Node32&#45;&gt;Node37</title>
<path fill="none" stroke="#63b8ff" d="M1165.11,-127.28C1136.87,-121.3 1102.98,-114.13 1076.4,-108.5"/>
<polygon fill="#63b8ff" stroke="#63b8ff" points="1164.72,-130.77 1175.23,-129.42 1166.17,-123.92 1164.72,-130.77"/>
</g>
<!-- Node39 -->
<g id="node38" class="node">
<title>Node39</title>
<g id="a_node38"><a xlink:href="imgui__draw_8cpp.html#a3f94172dde65426b52f7e137a899afb1" target="_top" xlink:title=" ">
<polygon fill="white" stroke="#666666" points="1112,-190.5 949,-190.5 949,-171.5 1112,-171.5 1112,-190.5"/>
<text text-anchor="middle" x="1030.5" y="-178.5" font-family="Helvetica,sans-Serif" font-size="10.00">ImFontAtlasUpdateNewFrame</text>
</a>
</g>
</g>
<!-- Node32&#45;&gt;Node39 -->
<g id="edge49" class="edge">
<title>Node32&#45;&gt;Node39</title>
<path fill="none" stroke="#63b8ff" d="M1167.53,-150.77C1138.18,-157.29 1102.15,-165.3 1074.54,-171.43"/>
<polygon fill="#63b8ff" stroke="#63b8ff" points="1168.61,-154.12 1177.61,-148.53 1167.09,-147.28 1168.61,-154.12"/>
</g>
<!-- Node34 -->
<g id="node33" class="node">
<title>Node34</title>
<g id="a_node33"><a xlink:href="imgui__draw_8cpp.html#a716f90bbbb825a71a7e17de856038d5c" target="_top" xlink:title=" ">
<polygon fill="white" stroke="#666666" points="889.5,-148.5 769.5,-148.5 769.5,-129.5 889.5,-129.5 889.5,-148.5"/>
<text text-anchor="middle" x="829.5" y="-136.5" font-family="Helvetica,sans-Serif" font-size="10.00">GetTexDataAsFormat</text>
</a>
</g>
</g>
<!-- Node33&#45;&gt;Node34 -->
<g id="edge43" class="edge">
<title>Node33&#45;&gt;Node34</title>
<path fill="none" stroke="#63b8ff" d="M967.44,-139C942.61,-139 914.13,-139 889.6,-139"/>
<polygon fill="#63b8ff" stroke="#63b8ff" points="967.48,-142.5 977.48,-139 967.47,-135.5 967.48,-142.5"/>
</g>
<!-- Node35 -->
<g id="node34" class="node">
<title>Node35</title>
<g id="a_node34"><a xlink:href="structImFontAtlas.html#aeff1a1044a1ab68d8f27bb2819cd9f44" target="_top" xlink:title=" ">
<polygon fill="white" stroke="#666666" points="709,-143 559,-143 559,-113 709,-113 709,-143"/>
<text text-anchor="start" x="567" y="-131" font-family="Helvetica,sans-Serif" font-size="10.00">ImFontAtlas::GetTexDataAs</text>
<text text-anchor="middle" x="634" y="-120" font-family="Helvetica,sans-Serif" font-size="10.00">Alpha8</text>
</a>
</g>
</g>
<!-- Node34&#45;&gt;Node35 -->
<g id="edge44" class="edge">
<title>Node34&#45;&gt;Node35</title>
<path fill="none" stroke="#63b8ff" d="M759.41,-135.07C743.1,-134.15 725.66,-133.15 709.14,-132.21"/>
<polygon fill="#63b8ff" stroke="#63b8ff" points="759.21,-138.57 769.39,-135.64 759.61,-131.58 759.21,-138.57"/>
</g>
<!-- Node36 -->
<g id="node35" class="node">
<title>Node36</title>
<g id="a_node35"><a xlink:href="structImFontAtlas.html#a8abb0c4e67ebb38249d4df71218c4eec" target="_top" xlink:title=" ">
<polygon fill="white" stroke="#666666" points="709,-191 559,-191 559,-161 709,-161 709,-191"/>
<text text-anchor="start" x="567" y="-179" font-family="Helvetica,sans-Serif" font-size="10.00">ImFontAtlas::GetTexDataAs</text>
<text text-anchor="middle" x="634" y="-168" font-family="Helvetica,sans-Serif" font-size="10.00">RGBA32</text>
</a>
</g>
</g>
<!-- Node34&#45;&gt;Node36 -->
<g id="edge45" class="edge">
<title>Node34&#45;&gt;Node36</title>
<path fill="none" stroke="#63b8ff" d="M768.74,-150.43C749.9,-154.03 728.84,-158.06 709.12,-161.83"/>
<polygon fill="#63b8ff" stroke="#63b8ff" points="769.5,-153.84 778.67,-148.53 768.19,-146.97 769.5,-153.84"/>
</g>
<!-- Node38 -->
<g id="node37" class="node">
<title>Node38</title>
<g id="a_node37"><a xlink:href="namespaceImGui.html#a90f16c53af3ba22af61a6e56dcbd7281" target="_top" xlink:title=" ">
<polygon fill="white" stroke="#666666" points="912.5,-101.5 746.5,-101.5 746.5,-82.5 912.5,-82.5 912.5,-101.5"/>
<text text-anchor="middle" x="829.5" y="-89.5" font-family="Helvetica,sans-Serif" font-size="10.00">ImGui::UpdateFontsNewFrame</text>
</a>
</g>
</g>
<!-- Node37&#45;&gt;Node38 -->
<g id="edge47" class="edge">
<title>Node37&#45;&gt;Node38</title>
<path fill="none" stroke="#63b8ff" d="M957.01,-96.45C942.59,-95.94 927.34,-95.41 912.62,-94.89"/>
<polygon fill="#63b8ff" stroke="#63b8ff" points="957.24,-99.96 967.35,-96.81 957.48,-92.96 957.24,-99.96"/>
</g>
<!-- Node38&#45;&gt;Node12 -->
<g id="edge48" class="edge">
<title>Node38&#45;&gt;Node12</title>
<path fill="none" stroke="#63b8ff" d="M736.23,-87.34C683.35,-86.83 616.15,-89.87 558,-104 522.28,-112.68 484.07,-133.12 463.25,-145.33"/>
<polygon fill="#63b8ff" stroke="#63b8ff" points="736.22,-90.84 746.26,-87.48 736.31,-83.84 736.22,-90.84"/>
</g>
<!-- Node40 -->
<g id="node39" class="node">
<title>Node40</title>
<g id="a_node39"><a xlink:href="namespaceImGui.html#a50afb067961d5c407afdabc34905a47f" target="_top" xlink:title=" ">
<polygon fill="white" stroke="#666666" points="904.5,-202 754.5,-202 754.5,-172 904.5,-172 904.5,-202"/>
<text text-anchor="start" x="762.5" y="-190" font-family="Helvetica,sans-Serif" font-size="10.00">ImGui::UpdateTexturesNew</text>
<text text-anchor="middle" x="829.5" y="-179" font-family="Helvetica,sans-Serif" font-size="10.00">Frame</text>
</a>
</g>
</g>
<!-- Node39&#45;&gt;Node40 -->
<g id="edge50" class="edge">
<title>Node39&#45;&gt;Node40</title>
<path fill="none" stroke="#63b8ff" d="M938.82,-183.73C927.34,-184.08 915.7,-184.43 904.53,-184.77"/>
<polygon fill="#63b8ff" stroke="#63b8ff" points="938.96,-187.23 948.85,-183.43 938.74,-180.23 938.96,-187.23"/>
</g>
<!-- Node40&#45;&gt;Node12 -->
<g id="edge51" class="edge">
<title>Node40&#45;&gt;Node12</title>
<path fill="none" stroke="#63b8ff" d="M744.16,-201.38C690.41,-208.01 619.55,-212.05 558,-200 523.44,-193.23 486.05,-175.61 464.83,-164.53"/>
<polygon fill="#63b8ff" stroke="#63b8ff" points="744.86,-204.82 754.33,-200.07 743.96,-197.88 744.86,-204.82"/>
</g>
<!-- Node447&#45;&gt;Node15 -->
<g id="edge54" class="edge">
<title>Node447&#45;&gt;Node15</title>
<path fill="none" stroke="#63b8ff" d="M1148.83,-496.85C1055.82,-493.69 888.55,-486.73 746,-474 729.85,-472.56 712.42,-470.57 696.27,-468.54"/>
<polygon fill="#63b8ff" stroke="#63b8ff" points="1148.86,-500.35 1158.98,-497.19 1149.1,-493.36 1148.86,-500.35"/>
</g>
<!-- Node449 -->
<g id="node43" class="node">
<title>Node449</title>
<g id="a_node43"><a xlink:href="structImFontAtlas.html#a4b2f96a0b67dd06c69547e93ccd4652f" target="_top" xlink:title=" ">
<polygon fill="white" stroke="#666666" points="1903.5,-356.5 1745.5,-356.5 1745.5,-337.5 1903.5,-337.5 1903.5,-356.5"/>
<text text-anchor="middle" x="1824.5" y="-344.5" font-family="Helvetica,sans-Serif" font-size="10.00">ImFontAtlas::GetCustomRect</text>
</a>
</g>
</g>
<!-- Node448&#45;&gt;Node449 -->
<g id="edge57" class="edge">
<title>Node448&#45;&gt;Node449</title>
<path fill="none" stroke="#63b8ff" d="M1950.6,-347C1935.07,-347 1919.01,-347 1903.78,-347"/>
<polygon fill="#63b8ff" stroke="#63b8ff" points="1950.71,-350.5 1960.71,-347 1950.71,-343.5 1950.71,-350.5"/>
</g>
<!-- Node450 -->
<g id="node44" class="node">
<title>Node450</title>
<g id="a_node44"><a xlink:href="structImFontAtlas.html#a1fd42ec0b657ff4a1447290894c331de" target="_top" xlink:title=" ">
<polygon fill="white" stroke="#666666" points="1915,-393.5 1734,-393.5 1734,-374.5 1915,-374.5 1915,-393.5"/>
<text text-anchor="middle" x="1824.5" y="-381.5" font-family="Helvetica,sans-Serif" font-size="10.00">ImFontAtlas::RemoveCustomRect</text>
</a>
</g>
</g>
<!-- Node448&#45;&gt;Node450 -->
<g id="edge62" class="edge">
<title>Node448&#45;&gt;Node450</title>
<path fill="none" stroke="#63b8ff" d="M1974.11,-358.25C1944.26,-363.42 1909.22,-369.49 1880.67,-374.44"/>
<polygon fill="#63b8ff" stroke="#63b8ff" points="1974.76,-361.68 1984.02,-356.53 1973.57,-354.79 1974.76,-361.68"/>
</g>
<!-- Node449&#45;&gt;Node6 -->
<g id="edge58" class="edge">
<title>Node449&#45;&gt;Node6</title>
<path fill="none" stroke="#63b8ff" d="M1762.2,-335.58C1733.01,-330.14 1698.51,-323.72 1670.74,-318.54"/>
<polygon fill="#63b8ff" stroke="#63b8ff" points="1761.81,-339.07 1772.29,-337.46 1763.1,-332.19 1761.81,-339.07"/>
</g>
<!-- Node449&#45;&gt;Node7 -->
<g id="edge59" class="edge">
<title>Node449&#45;&gt;Node7</title>
<path fill="none" stroke="#63b8ff" d="M1735.08,-342.42C1664.34,-338.76 1566.01,-333.66 1497.68,-330.13"/>
<polygon fill="#63b8ff" stroke="#63b8ff" points="1735.15,-345.93 1745.32,-342.95 1735.51,-338.94 1735.15,-345.93"/>
</g>
<!-- Node449&#45;&gt;Node15 -->
<g id="edge61" class="edge">
<title>Node449&#45;&gt;Node15</title>
<path fill="none" stroke="#63b8ff" d="M1761.55,-358.79C1752.26,-360.95 1742.83,-363.36 1734,-366 1717.55,-370.91 1714.59,-375.6 1698,-380 1613.31,-402.46 1590.04,-398.98 1503,-409 1201.57,-443.71 838.38,-455.35 696.24,-458.76"/>
<polygon fill="#63b8ff" stroke="#63b8ff" points="1762.56,-362.15 1771.55,-356.54 1761.03,-355.32 1762.56,-362.15"/>
</g>
<!-- Node449&#45;&gt;Node440 -->
<g id="edge60" class="edge">
<title>Node449&#45;&gt;Node440</title>
<path fill="none" stroke="#63b8ff" d="M1735.08,-355.29C1664.34,-361.92 1566.01,-371.13 1497.68,-377.53"/>
<polygon fill="#63b8ff" stroke="#63b8ff" points="1735.69,-358.74 1745.32,-354.33 1735.03,-351.78 1735.69,-358.74"/>
</g>
<!-- Node452 -->
<g id="node46" class="node">
<title>Node452</title>
<g id="a_node46"><a xlink:href="imgui__impl__dx11_8cpp.html#ad49984e658afc491c9b16312cf6bdd5b" target="_top" xlink:title=" ">
<polygon fill="white" stroke="#666666" points="2353,-51.5 2165,-51.5 2165,-32.5 2353,-32.5 2353,-51.5"/>
<text text-anchor="middle" x="2259" y="-39.5" font-family="Helvetica,sans-Serif" font-size="10.00">ImGui_ImplDX11_RenderDrawData</text>
</a>
</g>
</g>
<!-- Node451&#45;&gt;Node452 -->
<g id="edge65" class="edge">
<title>Node451&#45;&gt;Node452</title>
<path fill="none" stroke="#63b8ff" d="M2747.54,-111.03C2636.18,-95.27 2432.72,-66.46 2327.31,-51.53"/>
<polygon fill="#63b8ff" stroke="#63b8ff" points="2747.3,-114.53 2757.69,-112.47 2748.28,-107.6 2747.3,-114.53"/>
</g>
<!-- Node158 -->
<g id="node47" class="node">
<title>Node158</title>
<g id="a_node47"><a xlink:href="classmtgb_1_1ImGuiRenderer.html#a8659d92cdaecc531688232b504e8c637" target="_top" xlink:title=" ">
<polygon fill="white" stroke="#666666" points="1282.5,-30 1160.5,-30 1160.5,0 1282.5,0 1282.5,-30"/>
<text text-anchor="start" x="1168.5" y="-18" font-family="Helvetica,sans-Serif" font-size="10.00">mtgb::ImGuiRenderer</text>
<text text-anchor="middle" x="1221.5" y="-7" font-family="Helvetica,sans-Serif" font-size="10.00">::EndFrame</text>
</a>
</g>
</g>
<!-- Node452&#45;&gt;Node158 -->
<g id="edge66" class="edge">
<title>Node452&#45;&gt;Node158</title>
<path fill="none" stroke="#63b8ff" d="M2190.22,-30.93C2170.52,-28.01 2148.94,-25.09 2129,-23 1994.58,-8.92 1960.65,-4 1825.5,-4 1825.5,-4 1825.5,-4 1617.5,-4 1498.82,-4 1360.15,-9.02 1282.71,-12.28"/>
<polygon fill="#63b8ff" stroke="#63b8ff" points="2189.93,-34.42 2200.34,-32.45 2190.97,-27.5 2189.93,-34.42"/>
</g>
<!-- Node453 -->
<g id="node48" class="node">
<title>Node453</title>
<g id="a_node48"><a xlink:href="imgui__impl__dx11_8cpp.html#a5151e2a7fc4d9dbc5100476fe6070a98" target="_top" xlink:title=" ">
<polygon fill="white" stroke="#666666" points="2129,-51.5 1951,-51.5 1951,-32.5 2129,-32.5 2129,-51.5"/>
<text text-anchor="middle" x="2040" y="-39.5" font-family="Helvetica,sans-Serif" font-size="10.00">ImGui_ImplDX11_RenderWindow</text>
</a>
</g>
</g>
<!-- Node452&#45;&gt;Node453 -->
<g id="edge68" class="edge">
<title>Node452&#45;&gt;Node453</title>
<path fill="none" stroke="#63b8ff" d="M2154.68,-42C2146.11,-42 2137.5,-42 2129.06,-42"/>
<polygon fill="#63b8ff" stroke="#63b8ff" points="2154.71,-45.5 2164.71,-42 2154.71,-38.5 2154.71,-45.5"/>
</g>
<!-- Node158&#45;&gt;Node14 -->
<g id="edge67" class="edge">
<title>Node158&#45;&gt;Node14</title>
<path fill="none" stroke="#63b8ff" d="M1150.23,-21.06C1072.19,-27.27 942.44,-36 830.5,-36 830.5,-36 830.5,-36 445.5,-36 337.53,-36 212.6,-50 138.61,-59.76"/>
<polygon fill="#63b8ff" stroke="#63b8ff" points="1150.74,-24.53 1160.42,-20.25 1150.18,-17.56 1150.74,-24.53"/>
</g>
<!-- Node454 -->
<g id="node49" class="node">
<title>Node454</title>
<g id="a_node49"><a xlink:href="imgui__impl__dx11_8cpp.html#a3effeadf194bc4370ebc8e38553f77d4" target="_top" xlink:title=" ">
<polygon fill="white" stroke="#666666" points="1897,-119 1752,-119 1752,-89 1897,-89 1897,-119"/>
<text text-anchor="start" x="1760" y="-107" font-family="Helvetica,sans-Serif" font-size="10.00">ImGui_ImplDX11_InitMulti</text>
<text text-anchor="middle" x="1824.5" y="-96" font-family="Helvetica,sans-Serif" font-size="10.00">ViewportSupport</text>
</a>
</g>
</g>
<!-- Node453&#45;&gt;Node454 -->
<g id="edge69" class="edge">
<title>Node453&#45;&gt;Node454</title>
<path fill="none" stroke="#63b8ff" d="M1996.41,-54.37C1962.21,-64.3 1914.04,-78.29 1877.55,-88.88"/>
<polygon fill="#63b8ff" stroke="#63b8ff" points="1997.48,-57.7 2006.11,-51.55 1995.53,-50.98 1997.48,-57.7"/>
</g>
<!-- Node455 -->
<g id="node50" class="node">
<title>Node455</title>
<g id="a_node50"><a xlink:href="imgui__impl__dx11_8cpp.html#a6bbf28d9c3bbd7f8159772f07289e848" target="_top" xlink:title=" ">
<polygon fill="white" stroke="#666666" points="1678.5,-108.5 1558.5,-108.5 1558.5,-89.5 1678.5,-89.5 1678.5,-108.5"/>
<text text-anchor="middle" x="1618.5" y="-96.5" font-family="Helvetica,sans-Serif" font-size="10.00">ImGui_ImplDX11_Init</text>
</a>
</g>
</g>
<!-- Node454&#45;&gt;Node455 -->
<g id="edge70" class="edge">
<title>Node454&#45;&gt;Node455</title>
<path fill="none" stroke="#63b8ff" d="M1741.66,-101.99C1720.65,-101.48 1698.45,-100.94 1678.82,-100.45"/>
<polygon fill="#63b8ff" stroke="#63b8ff" points="1741.78,-105.5 1751.86,-102.24 1741.95,-98.5 1741.78,-105.5"/>
</g>
<!-- Node455&#45;&gt;Node330 -->
<g id="edge71" class="edge">
<title>Node455&#45;&gt;Node330</title>
<path fill="none" stroke="#63b8ff" d="M1548.18,-100.74C1525.42,-101.31 1500.31,-101.94 1478.28,-102.49"/>
<polygon fill="#63b8ff" stroke="#63b8ff" points="1548.54,-104.23 1558.45,-100.48 1548.37,-97.23 1548.54,-104.23"/>
</g>
</g>
</svg>
