<?xml version="1.0" encoding="UTF-8" standalone="no"?>
<!DOCTYPE svg PUBLIC "-//W3C//DTD SVG 1.1//EN"
 "http://www.w3.org/Graphics/SVG/1.1/DTD/svg11.dtd">
<!-- Generated by graphviz version 2.43.0 (0)
 -->
<!-- Title: Texture2D.cpp Pages: 1 -->
<svg width="1546pt" height="467pt"
 viewBox="0.00 0.00 1545.50 467.00" xmlns="http://www.w3.org/2000/svg" xmlns:xlink="http://www.w3.org/1999/xlink">
<g id="graph0" class="graph" transform="scale(1 1) rotate(0) translate(4 463)">
<title>Texture2D.cpp</title>
<!-- Node1 -->
<g id="node1" class="node">
<title>Node1</title>
<g id="a_node1"><a xlink:title=" ">
<polygon fill="#999999" stroke="#666666" points="1118.5,-459 1032.5,-459 1032.5,-440 1118.5,-440 1118.5,-459"/>
<text text-anchor="middle" x="1075.5" y="-447" font-family="Helvetica,sans-Serif" font-size="10.00">Texture2D.cpp</text>
</a>
</g>
</g>
<!-- Node2 -->
<g id="node2" class="node">
<title>Node2</title>
<g id="a_node2"><a xlink:href="Texture2D_8h.html" target="_top" xlink:title=" ">
<polygon fill="white" stroke="#666666" points="1092,-349 1017,-349 1017,-330 1092,-330 1092,-349"/>
<text text-anchor="middle" x="1054.5" y="-337" font-family="Helvetica,sans-Serif" font-size="10.00">Texture2D.h</text>
</a>
</g>
</g>
<!-- Node1&#45;&gt;Node2 -->
<g id="edge1" class="edge">
<title>Node1&#45;&gt;Node2</title>
<path fill="none" stroke="#63b8ff" d="M1079.91,-439.69C1085.52,-427.26 1093.76,-403.96 1087.5,-385 1084.04,-374.54 1077.07,-364.53 1070.42,-356.66"/>
<polygon fill="#63b8ff" stroke="#63b8ff" points="1072.83,-354.1 1063.52,-349.04 1067.64,-358.8 1072.83,-354.1"/>
</g>
<!-- Node11 -->
<g id="node11" class="node">
<title>Node11</title>
<g id="a_node11"><a xlink:title=" ">
<polygon fill="#e0e0e0" stroke="#999999" points="989.5,-404 933.5,-404 933.5,-385 989.5,-385 989.5,-404"/>
<text text-anchor="middle" x="961.5" y="-392" font-family="Helvetica,sans-Serif" font-size="10.00">d3d11.h</text>
</a>
</g>
</g>
<!-- Node1&#45;&gt;Node11 -->
<g id="edge10" class="edge">
<title>Node1&#45;&gt;Node11</title>
<path fill="none" stroke="#63b8ff" d="M1057.18,-439.98C1038.84,-431.46 1010.39,-418.23 989.27,-408.41"/>
<polygon fill="#63b8ff" stroke="#63b8ff" points="990.69,-405.21 980.15,-404.17 987.74,-411.56 990.69,-405.21"/>
</g>
<!-- Node12 -->
<g id="node12" class="node">
<title>Node12</title>
<g id="a_node12"><a xlink:title=" ">
<polygon fill="#e0e0e0" stroke="#999999" points="1079,-404 1008,-404 1008,-385 1079,-385 1079,-404"/>
<text text-anchor="middle" x="1043.5" y="-392" font-family="Helvetica,sans-Serif" font-size="10.00">wincodec.h</text>
</a>
</g>
</g>
<!-- Node1&#45;&gt;Node12 -->
<g id="edge11" class="edge">
<title>Node1&#45;&gt;Node12</title>
<path fill="none" stroke="#63b8ff" d="M1070.22,-439.75C1065.79,-432.42 1059.34,-421.73 1053.88,-412.7"/>
<polygon fill="#63b8ff" stroke="#63b8ff" points="1056.85,-410.84 1048.69,-404.09 1050.86,-414.46 1056.85,-410.84"/>
</g>
<!-- Node13 -->
<g id="node13" class="node">
<title>Node13</title>
<g id="a_node13"><a xlink:href="MTAssert_8h.html" target="_top" xlink:title=" ">
<polygon fill="white" stroke="#666666" points="915,-404 844,-404 844,-385 915,-385 915,-404"/>
<text text-anchor="middle" x="879.5" y="-392" font-family="Helvetica,sans-Serif" font-size="10.00">MTAssert.h</text>
</a>
</g>
</g>
<!-- Node1&#45;&gt;Node13 -->
<g id="edge12" class="edge">
<title>Node1&#45;&gt;Node13</title>
<path fill="none" stroke="#63b8ff" d="M1044.01,-439.98C1010.68,-430.97 957.9,-416.7 921.15,-406.76"/>
<polygon fill="#63b8ff" stroke="#63b8ff" points="921.8,-403.31 911.24,-404.08 919.98,-410.07 921.8,-403.31"/>
</g>
<!-- Node30 -->
<g id="node30" class="node">
<title>Node30</title>
<g id="a_node30"><a xlink:href="ReleaseUtility_8h.html" target="_top" xlink:title=" ">
<polygon fill="white" stroke="#666666" points="1185,-294 1092,-294 1092,-275 1185,-275 1185,-294"/>
<text text-anchor="middle" x="1138.5" y="-282" font-family="Helvetica,sans-Serif" font-size="10.00">ReleaseUtility.h</text>
</a>
</g>
</g>
<!-- Node1&#45;&gt;Node30 -->
<g id="edge63" class="edge">
<title>Node1&#45;&gt;Node30</title>
<path fill="none" stroke="#63b8ff" d="M1082.06,-439.71C1088.29,-431.01 1097.56,-417.14 1103.5,-404 1118.83,-370.08 1129.46,-327.7 1134.71,-303.91"/>
<polygon fill="#63b8ff" stroke="#63b8ff" points="1138.14,-304.63 1136.81,-294.12 1131.3,-303.17 1138.14,-304.63"/>
</g>
<!-- Node44 -->
<g id="node43" class="node">
<title>Node44</title>
<g id="a_node43"><a xlink:href="DirectX11Draw_8h.html" target="_top" xlink:title=" ">
<polygon fill="white" stroke="#666666" points="1427.5,-294 1329.5,-294 1329.5,-275 1427.5,-275 1427.5,-294"/>
<text text-anchor="middle" x="1378.5" y="-282" font-family="Helvetica,sans-Serif" font-size="10.00">DirectX11Draw.h</text>
</a>
</g>
</g>
<!-- Node1&#45;&gt;Node44 -->
<g id="edge64" class="edge">
<title>Node1&#45;&gt;Node44</title>
<path fill="none" stroke="#63b8ff" d="M1110.34,-439.99C1160.57,-426.55 1254.75,-396.91 1322.5,-349 1340.61,-336.19 1356.84,-316.41 1367.1,-302.33"/>
<polygon fill="#63b8ff" stroke="#63b8ff" points="1370.05,-304.23 1372.94,-294.04 1364.32,-300.2 1370.05,-304.23"/>
</g>
<!-- Node3 -->
<g id="node3" class="node">
<title>Node3</title>
<g id="a_node3"><a xlink:title=" ">
<polygon fill="#e0e0e0" stroke="#999999" points="980.5,-294 936.5,-294 936.5,-275 980.5,-275 980.5,-294"/>
<text text-anchor="middle" x="958.5" y="-282" font-family="Helvetica,sans-Serif" font-size="10.00">string</text>
</a>
</g>
</g>
<!-- Node2&#45;&gt;Node3 -->
<g id="edge2" class="edge">
<title>Node2&#45;&gt;Node3</title>
<path fill="none" stroke="#63b8ff" d="M1039.08,-329.98C1024.05,-321.69 1000.96,-308.94 983.34,-299.22"/>
<polygon fill="#63b8ff" stroke="#63b8ff" points="984.65,-295.94 974.2,-294.17 981.27,-302.07 984.65,-295.94"/>
</g>
<!-- Node4 -->
<g id="node4" class="node">
<title>Node4</title>
<g id="a_node4"><a xlink:href="Vector2Int_8h.html" target="_top" xlink:title=" ">
<polygon fill="white" stroke="#666666" points="1074,-294 999,-294 999,-275 1074,-275 1074,-294"/>
<text text-anchor="middle" x="1036.5" y="-282" font-family="Helvetica,sans-Serif" font-size="10.00">Vector2Int.h</text>
</a>
</g>
</g>
<!-- Node2&#45;&gt;Node4 -->
<g id="edge3" class="edge">
<title>Node2&#45;&gt;Node4</title>
<path fill="none" stroke="#63b8ff" d="M1051.53,-329.75C1049.14,-322.72 1045.71,-312.62 1042.73,-303.84"/>
<polygon fill="#63b8ff" stroke="#63b8ff" points="1045.95,-302.43 1039.42,-294.09 1039.32,-304.68 1045.95,-302.43"/>
</g>
<!-- Node10 -->
<g id="node10" class="node">
<title>Node10</title>
<g id="a_node10"><a xlink:title=" ">
<polygon fill="#e0e0e0" stroke="#999999" points="1121,-239 1050,-239 1050,-220 1121,-220 1121,-239"/>
<text text-anchor="middle" x="1085.5" y="-227" font-family="Helvetica,sans-Serif" font-size="10.00">wrl/client.h</text>
</a>
</g>
</g>
<!-- Node2&#45;&gt;Node10 -->
<g id="edge9" class="edge">
<title>Node2&#45;&gt;Node10</title>
<path fill="none" stroke="#63b8ff" d="M1092.16,-337.95C1124.87,-335.22 1170.5,-325.52 1193.5,-294 1213.51,-266.58 1168.99,-249 1131.18,-239.44"/>
<polygon fill="#63b8ff" stroke="#63b8ff" points="1131.8,-235.99 1121.26,-237.07 1130.17,-242.8 1131.8,-235.99"/>
</g>
<!-- Node5 -->
<g id="node5" class="node">
<title>Node5</title>
<g id="a_node5"><a xlink:href="Vector2T_8h.html" target="_top" xlink:title=" ">
<polygon fill="white" stroke="#666666" points="983.5,-184 915.5,-184 915.5,-165 983.5,-165 983.5,-184"/>
<text text-anchor="middle" x="949.5" y="-172" font-family="Helvetica,sans-Serif" font-size="10.00">Vector2T.h</text>
</a>
</g>
</g>
<!-- Node4&#45;&gt;Node5 -->
<g id="edge4" class="edge">
<title>Node4&#45;&gt;Node5</title>
<path fill="none" stroke="#63b8ff" d="M1029.38,-274.66C1014.84,-256.61 981.54,-215.28 962.85,-192.08"/>
<polygon fill="#63b8ff" stroke="#63b8ff" points="965.47,-189.75 956.47,-184.16 960.02,-194.14 965.47,-189.75"/>
</g>
<!-- Node6 -->
<g id="node6" class="node">
<title>Node6</title>
<g id="a_node6"><a xlink:title=" ">
<polygon fill="#e0e0e0" stroke="#999999" points="828,-129 759,-129 759,-110 828,-110 828,-129"/>
<text text-anchor="middle" x="793.5" y="-117" font-family="Helvetica,sans-Serif" font-size="10.00">type_traits</text>
</a>
</g>
</g>
<!-- Node5&#45;&gt;Node6 -->
<g id="edge5" class="edge">
<title>Node5&#45;&gt;Node6</title>
<path fill="none" stroke="#63b8ff" d="M924.44,-164.98C898.47,-156.16 857.69,-142.31 828.54,-132.41"/>
<polygon fill="#63b8ff" stroke="#63b8ff" points="829.35,-128.99 818.76,-129.08 827.1,-135.61 829.35,-128.99"/>
</g>
<!-- Node7 -->
<g id="node7" class="node">
<title>Node7</title>
<g id="a_node7"><a xlink:title=" ">
<polygon fill="#e0e0e0" stroke="#999999" points="971.5,-129 927.5,-129 927.5,-110 971.5,-110 971.5,-129"/>
<text text-anchor="middle" x="949.5" y="-117" font-family="Helvetica,sans-Serif" font-size="10.00">limits</text>
</a>
</g>
</g>
<!-- Node5&#45;&gt;Node7 -->
<g id="edge6" class="edge">
<title>Node5&#45;&gt;Node7</title>
<path fill="none" stroke="#63b8ff" d="M949.5,-164.75C949.5,-157.8 949.5,-147.85 949.5,-139.13"/>
<polygon fill="#63b8ff" stroke="#63b8ff" points="953,-139.09 949.5,-129.09 946,-139.09 953,-139.09"/>
</g>
<!-- Node8 -->
<g id="node8" class="node">
<title>Node8</title>
<g id="a_node8"><a xlink:title=" ">
<polygon fill="#e0e0e0" stroke="#999999" points="1286,-129 1239,-129 1239,-110 1286,-110 1286,-129"/>
<text text-anchor="middle" x="1262.5" y="-117" font-family="Helvetica,sans-Serif" font-size="10.00">cmath</text>
</a>
</g>
</g>
<!-- Node5&#45;&gt;Node8 -->
<g id="edge7" class="edge">
<title>Node5&#45;&gt;Node8</title>
<path fill="none" stroke="#63b8ff" d="M983.75,-166.63C986.71,-166.07 989.65,-165.52 992.5,-165 1077.38,-149.62 1177.69,-133.67 1228.84,-125.7"/>
<polygon fill="#63b8ff" stroke="#63b8ff" points="1229.64,-129.11 1238.98,-124.12 1228.56,-122.2 1229.64,-129.11"/>
</g>
<!-- Node9 -->
<g id="node9" class="node">
<title>Node9</title>
<g id="a_node9"><a xlink:title=" ">
<polygon fill="#e0e0e0" stroke="#999999" points="906.5,-129 846.5,-129 846.5,-110 906.5,-110 906.5,-129"/>
<text text-anchor="middle" x="876.5" y="-117" font-family="Helvetica,sans-Serif" font-size="10.00">concepts</text>
</a>
</g>
</g>
<!-- Node5&#45;&gt;Node9 -->
<g id="edge8" class="edge">
<title>Node5&#45;&gt;Node9</title>
<path fill="none" stroke="#63b8ff" d="M937.77,-164.98C926.77,-157 910.08,-144.88 896.9,-135.31"/>
<polygon fill="#63b8ff" stroke="#63b8ff" points="898.59,-132.21 888.44,-129.17 894.48,-137.88 898.59,-132.21"/>
</g>
<!-- Node13&#45;&gt;Node3 -->
<g id="edge16" class="edge">
<title>Node13&#45;&gt;Node3</title>
<path fill="none" stroke="#63b8ff" d="M887.16,-384.86C894.86,-376.06 906.91,-361.9 916.5,-349 927.68,-333.95 939.37,-316.08 947.56,-303.14"/>
<polygon fill="#63b8ff" stroke="#63b8ff" points="950.74,-304.66 953.09,-294.33 944.81,-300.95 950.74,-304.66"/>
</g>
<!-- Node14 -->
<g id="node14" class="node">
<title>Node14</title>
<g id="a_node14"><a xlink:title=" ">
<polygon fill="#e0e0e0" stroke="#999999" points="907.5,-349 851.5,-349 851.5,-330 907.5,-330 907.5,-349"/>
<text text-anchor="middle" x="879.5" y="-337" font-family="Helvetica,sans-Serif" font-size="10.00">assert.h</text>
</a>
</g>
</g>
<!-- Node13&#45;&gt;Node14 -->
<g id="edge13" class="edge">
<title>Node13&#45;&gt;Node14</title>
<path fill="none" stroke="#63b8ff" d="M879.5,-384.75C879.5,-377.8 879.5,-367.85 879.5,-359.13"/>
<polygon fill="#63b8ff" stroke="#63b8ff" points="883,-359.09 879.5,-349.09 876,-359.09 883,-359.09"/>
</g>
<!-- Node15 -->
<g id="node15" class="node">
<title>Node15</title>
<g id="a_node15"><a xlink:href="IncludingWindows_8h.html" target="_top" xlink:title=" ">
<polygon fill="white" stroke="#666666" points="1313.5,-349 1199.5,-349 1199.5,-330 1313.5,-330 1313.5,-349"/>
<text text-anchor="middle" x="1256.5" y="-337" font-family="Helvetica,sans-Serif" font-size="10.00">IncludingWindows.h</text>
</a>
</g>
</g>
<!-- Node13&#45;&gt;Node15 -->
<g id="edge14" class="edge">
<title>Node13&#45;&gt;Node15</title>
<path fill="none" stroke="#63b8ff" d="M915.33,-386.55C918.43,-386.01 921.52,-385.48 924.5,-385 1015.97,-370.24 1122.18,-356.62 1189.35,-348.43"/>
<polygon fill="#63b8ff" stroke="#63b8ff" points="1189.87,-351.89 1199.38,-347.21 1189.03,-344.95 1189.87,-351.89"/>
</g>
<!-- Node17 -->
<g id="node17" class="node">
<title>Node17</title>
<g id="a_node17"><a xlink:href="Game_8h.html" target="_top" xlink:title=" ">
<polygon fill="white" stroke="#666666" points="682,-349 627,-349 627,-330 682,-330 682,-349"/>
<text text-anchor="middle" x="654.5" y="-337" font-family="Helvetica,sans-Serif" font-size="10.00">Game.h</text>
</a>
</g>
</g>
<!-- Node13&#45;&gt;Node17 -->
<g id="edge17" class="edge">
<title>Node13&#45;&gt;Node17</title>
<path fill="none" stroke="#63b8ff" d="M843.85,-385.1C802.41,-375.34 734.32,-359.3 692.08,-349.35"/>
<polygon fill="#63b8ff" stroke="#63b8ff" points="692.72,-345.91 682.18,-347.02 691.11,-352.72 692.72,-345.91"/>
</g>
<!-- Node16 -->
<g id="node16" class="node">
<title>Node16</title>
<g id="a_node16"><a xlink:title=" ">
<polygon fill="#e0e0e0" stroke="#999999" points="1311.5,-294 1241.5,-294 1241.5,-275 1311.5,-275 1311.5,-294"/>
<text text-anchor="middle" x="1276.5" y="-282" font-family="Helvetica,sans-Serif" font-size="10.00">Windows.h</text>
</a>
</g>
</g>
<!-- Node15&#45;&gt;Node16 -->
<g id="edge15" class="edge">
<title>Node15&#45;&gt;Node16</title>
<path fill="none" stroke="#63b8ff" d="M1259.8,-329.75C1262.48,-322.65 1266.35,-312.4 1269.69,-303.56"/>
<polygon fill="#63b8ff" stroke="#63b8ff" points="1273,-304.68 1273.26,-294.09 1266.45,-302.21 1273,-304.68"/>
</g>
<!-- Node17&#45;&gt;Node3 -->
<g id="edge23" class="edge">
<title>Node17&#45;&gt;Node3</title>
<path fill="none" stroke="#63b8ff" d="M682,-334.56C730.68,-327.44 835.1,-311.55 922.5,-294 923.77,-293.74 925.07,-293.48 926.38,-293.2"/>
<polygon fill="#63b8ff" stroke="#63b8ff" points="927.47,-296.54 936.47,-290.95 925.94,-289.71 927.47,-296.54"/>
</g>
<!-- Node17&#45;&gt;Node4 -->
<g id="edge33" class="edge">
<title>Node17&#45;&gt;Node4</title>
<path fill="none" stroke="#63b8ff" d="M682.36,-335.25C738.3,-328.62 868.51,-312.71 988.71,-294.06"/>
<polygon fill="#63b8ff" stroke="#63b8ff" points="989.48,-297.48 998.82,-292.48 988.4,-290.56 989.48,-297.48"/>
</g>
<!-- Node17&#45;&gt;Node6 -->
<g id="edge31" class="edge">
<title>Node17&#45;&gt;Node6</title>
<path fill="none" stroke="#63b8ff" d="M682.31,-331.35C702.35,-324.81 728.57,-313.17 744.5,-294 782.79,-247.94 791.21,-173.79 793.03,-139.28"/>
<polygon fill="#63b8ff" stroke="#63b8ff" points="796.53,-139.33 793.42,-129.2 789.53,-139.06 796.53,-139.33"/>
</g>
<!-- Node18 -->
<g id="node18" class="node">
<title>Node18</title>
<g id="a_node18"><a xlink:href="Entity_8h.html" target="_top" xlink:title=" ">
<polygon fill="white" stroke="#666666" points="1055,-184 1002,-184 1002,-165 1055,-165 1055,-184"/>
<text text-anchor="middle" x="1028.5" y="-172" font-family="Helvetica,sans-Serif" font-size="10.00">Entity.h</text>
</a>
</g>
</g>
<!-- Node17&#45;&gt;Node18 -->
<g id="edge18" class="edge">
<title>Node17&#45;&gt;Node18</title>
<path fill="none" stroke="#63b8ff" d="M682.34,-337.8C727.85,-335.69 820.03,-327.26 889.5,-294 942.44,-268.65 991.48,-218.02 1014.59,-191.91"/>
<polygon fill="#63b8ff" stroke="#63b8ff" points="1017.49,-193.91 1021.41,-184.07 1012.21,-189.32 1017.49,-193.91"/>
</g>
<!-- Node20 -->
<g id="node20" class="node">
<title>Node20</title>
<g id="a_node20"><a xlink:title=" ">
<polygon fill="#e0e0e0" stroke="#999999" points="1042.5,-19 992.5,-19 992.5,0 1042.5,0 1042.5,-19"/>
<text text-anchor="middle" x="1017.5" y="-7" font-family="Helvetica,sans-Serif" font-size="10.00">cstdint</text>
</a>
</g>
</g>
<!-- Node17&#45;&gt;Node20 -->
<g id="edge25" class="edge">
<title>Node17&#45;&gt;Node20</title>
<path fill="none" stroke="#63b8ff" d="M666.38,-329.88C687.75,-313.26 730.5,-274.52 730.5,-230.5 730.5,-230.5 730.5,-230.5 730.5,-118.5 730.5,-65.3 905.41,-29.34 982.14,-16.13"/>
<polygon fill="#63b8ff" stroke="#63b8ff" points="983,-19.53 992.28,-14.42 981.84,-12.63 983,-19.53"/>
</g>
<!-- Node22 -->
<g id="node22" class="node">
<title>Node22</title>
<g id="a_node22"><a xlink:title=" ">
<polygon fill="#e0e0e0" stroke="#999999" points="476,-239 411,-239 411,-220 476,-220 476,-239"/>
<text text-anchor="middle" x="443.5" y="-227" font-family="Helvetica,sans-Serif" font-size="10.00">functional</text>
</a>
</g>
</g>
<!-- Node17&#45;&gt;Node22 -->
<g id="edge24" class="edge">
<title>Node17&#45;&gt;Node22</title>
<path fill="none" stroke="#63b8ff" d="M643.17,-329.83C625.7,-316.74 590.81,-291.69 558.5,-275 533.15,-261.91 503.03,-250.38 479.97,-242.35"/>
<polygon fill="#63b8ff" stroke="#63b8ff" points="480.83,-238.94 470.24,-239.01 478.56,-245.57 480.83,-238.94"/>
</g>
<!-- Node23 -->
<g id="node23" class="node">
<title>Node23</title>
<g id="a_node23"><a xlink:title=" ">
<polygon fill="#e0e0e0" stroke="#999999" points="129.5,-294 91.5,-294 91.5,-275 129.5,-275 129.5,-294"/>
<text text-anchor="middle" x="110.5" y="-282" font-family="Helvetica,sans-Serif" font-size="10.00">map</text>
</a>
</g>
</g>
<!-- Node17&#45;&gt;Node23 -->
<g id="edge26" class="edge">
<title>Node17&#45;&gt;Node23</title>
<path fill="none" stroke="#63b8ff" d="M626.81,-338.14C550.42,-336.71 330.29,-329.72 139.57,-293.79"/>
<polygon fill="#63b8ff" stroke="#63b8ff" points="140.13,-290.33 129.65,-291.89 138.81,-297.21 140.13,-290.33"/>
</g>
<!-- Node24 -->
<g id="node24" class="node">
<title>Node24</title>
<g id="a_node24"><a xlink:title=" ">
<polygon fill="#e0e0e0" stroke="#999999" points="179.5,-294 147.5,-294 147.5,-275 179.5,-275 179.5,-294"/>
<text text-anchor="middle" x="163.5" y="-282" font-family="Helvetica,sans-Serif" font-size="10.00">list</text>
</a>
</g>
</g>
<!-- Node17&#45;&gt;Node24 -->
<g id="edge27" class="edge">
<title>Node17&#45;&gt;Node24</title>
<path fill="none" stroke="#63b8ff" d="M626.85,-338.09C555.57,-336.57 359.83,-329.42 189.64,-293.74"/>
<polygon fill="#63b8ff" stroke="#63b8ff" points="190.26,-290.3 179.75,-291.63 188.8,-297.14 190.26,-290.3"/>
</g>
<!-- Node25 -->
<g id="node25" class="node">
<title>Node25</title>
<g id="a_node25"><a xlink:title=" ">
<polygon fill="#e0e0e0" stroke="#999999" points="383.5,-294 331.5,-294 331.5,-275 383.5,-275 383.5,-294"/>
<text text-anchor="middle" x="357.5" y="-282" font-family="Helvetica,sans-Serif" font-size="10.00">cassert</text>
</a>
</g>
</g>
<!-- Node17&#45;&gt;Node25 -->
<g id="edge28" class="edge">
<title>Node17&#45;&gt;Node25</title>
<path fill="none" stroke="#63b8ff" d="M626.85,-334.45C580.61,-327.55 484.52,-312.61 393.73,-294.14"/>
<polygon fill="#63b8ff" stroke="#63b8ff" points="394.33,-290.69 383.83,-292.1 392.92,-297.54 394.33,-290.69"/>
</g>
<!-- Node26 -->
<g id="node26" class="node">
<title>Node26</title>
<g id="a_node26"><a xlink:title=" ">
<polygon fill="#e0e0e0" stroke="#999999" points="459,-294 402,-294 402,-275 459,-275 459,-294"/>
<text text-anchor="middle" x="430.5" y="-282" font-family="Helvetica,sans-Serif" font-size="10.00">typeinfo</text>
</a>
</g>
</g>
<!-- Node17&#45;&gt;Node26 -->
<g id="edge29" class="edge">
<title>Node17&#45;&gt;Node26</title>
<path fill="none" stroke="#63b8ff" d="M626.58,-331.89C586.87,-322.5 513.92,-305.24 469.06,-294.62"/>
<polygon fill="#63b8ff" stroke="#63b8ff" points="469.66,-291.17 459.12,-292.27 468.05,-297.98 469.66,-291.17"/>
</g>
<!-- Node27 -->
<g id="node27" class="node">
<title>Node27</title>
<g id="a_node27"><a xlink:title=" ">
<polygon fill="#e0e0e0" stroke="#999999" points="550,-294 477,-294 477,-275 550,-275 550,-294"/>
<text text-anchor="middle" x="513.5" y="-282" font-family="Helvetica,sans-Serif" font-size="10.00">string_view</text>
</a>
</g>
</g>
<!-- Node17&#45;&gt;Node27 -->
<g id="edge30" class="edge">
<title>Node17&#45;&gt;Node27</title>
<path fill="none" stroke="#63b8ff" d="M631.85,-329.98C608.65,-321.27 572.38,-307.63 546.1,-297.75"/>
<polygon fill="#63b8ff" stroke="#63b8ff" points="547.16,-294.41 536.57,-294.17 544.7,-300.97 547.16,-294.41"/>
</g>
<!-- Node28 -->
<g id="node28" class="node">
<title>Node28</title>
<g id="a_node28"><a xlink:href="ISystem_8h.html" target="_top" xlink:title=" ">
<polygon fill="white" stroke="#666666" points="65,-184 0,-184 0,-165 65,-165 65,-184"/>
<text text-anchor="middle" x="32.5" y="-172" font-family="Helvetica,sans-Serif" font-size="10.00">ISystem.h</text>
</a>
</g>
</g>
<!-- Node17&#45;&gt;Node28 -->
<g id="edge32" class="edge">
<title>Node17&#45;&gt;Node28</title>
<path fill="none" stroke="#63b8ff" d="M626.75,-338.02C518.32,-335.9 126.99,-326.07 82.5,-294 49.85,-270.46 38.39,-221.32 34.47,-194.3"/>
<polygon fill="#63b8ff" stroke="#63b8ff" points="37.92,-193.71 33.21,-184.22 30.97,-194.57 37.92,-193.71"/>
</g>
<!-- Node29 -->
<g id="node29" class="node">
<title>Node29</title>
<g id="a_node29"><a xlink:title=" ">
<polygon fill="#e0e0e0" stroke="#999999" points="409,-184 344,-184 344,-165 409,-165 409,-184"/>
<text text-anchor="middle" x="376.5" y="-172" font-family="Helvetica,sans-Serif" font-size="10.00">typeindex</text>
</a>
</g>
</g>
<!-- Node17&#45;&gt;Node29 -->
<g id="edge34" class="edge">
<title>Node17&#45;&gt;Node29</title>
<path fill="none" stroke="#63b8ff" d="M647.17,-329.88C635.78,-316.85 612.73,-291.87 589.5,-275 578.84,-267.26 496.43,-225.57 484.5,-220 459.32,-208.25 430.16,-196.33 408.49,-187.79"/>
<polygon fill="#63b8ff" stroke="#63b8ff" points="409.69,-184.5 399.1,-184.11 407.14,-191.02 409.69,-184.5"/>
</g>
<!-- Node17&#45;&gt;Node30 -->
<g id="edge35" class="edge">
<title>Node17&#45;&gt;Node30</title>
<path fill="none" stroke="#63b8ff" d="M682.09,-336.08C748.73,-330.15 923.95,-313.99 1081.43,-294.08"/>
<polygon fill="#63b8ff" stroke="#63b8ff" points="1082.29,-297.5 1091.77,-292.76 1081.41,-290.55 1082.29,-297.5"/>
</g>
<!-- Node31 -->
<g id="node31" class="node">
<title>Node31</title>
<g id="a_node31"><a xlink:href="IComponentMemento_8h.html" target="_top" xlink:title=" ">
<polygon fill="white" stroke="#666666" points="664,-239 533,-239 533,-220 664,-220 664,-239"/>
<text text-anchor="middle" x="598.5" y="-227" font-family="Helvetica,sans-Serif" font-size="10.00">IComponentMemento.h</text>
</a>
</g>
</g>
<!-- Node17&#45;&gt;Node31 -->
<g id="edge36" class="edge">
<title>Node17&#45;&gt;Node31</title>
<path fill="none" stroke="#63b8ff" d="M652.06,-329.98C648.32,-317.49 640.53,-293.69 630.5,-275 625.28,-265.27 618.22,-255.22 612.06,-247.14"/>
<polygon fill="#63b8ff" stroke="#63b8ff" points="614.79,-244.94 605.85,-239.25 609.28,-249.27 614.79,-244.94"/>
</g>
<!-- Node33 -->
<g id="node33" class="node">
<title>Node33</title>
<g id="a_node33"><a xlink:title=" ">
<polygon fill="#e0e0e0" stroke="#999999" points="702.5,-184 592.5,-184 592.5,-165 702.5,-165 702.5,-184"/>
<text text-anchor="middle" x="647.5" y="-172" font-family="Helvetica,sans-Serif" font-size="10.00">nlohmann/json.hpp</text>
</a>
</g>
</g>
<!-- Node17&#45;&gt;Node33 -->
<g id="edge42" class="edge">
<title>Node17&#45;&gt;Node33</title>
<path fill="none" stroke="#63b8ff" d="M658.22,-329.75C666.12,-309.94 683.04,-260.26 672.5,-220 669.95,-210.26 664.75,-200.41 659.74,-192.46"/>
<polygon fill="#63b8ff" stroke="#63b8ff" points="662.61,-190.46 654.13,-184.12 656.81,-194.37 662.61,-190.46"/>
</g>
<!-- Node34 -->
<g id="node34" class="node">
<title>Node34</title>
<g id="a_node34"><a xlink:href="IRenderable_8h.html" target="_top" xlink:title=" ">
<polygon fill="white" stroke="#666666" points="880.5,-294 796.5,-294 796.5,-275 880.5,-275 880.5,-294"/>
<text text-anchor="middle" x="838.5" y="-282" font-family="Helvetica,sans-Serif" font-size="10.00">IRenderable.h</text>
</a>
</g>
</g>
<!-- Node17&#45;&gt;Node34 -->
<g id="edge43" class="edge">
<title>Node17&#45;&gt;Node34</title>
<path fill="none" stroke="#63b8ff" d="M682.05,-330.57C713.07,-321.63 763.75,-307.03 798.98,-296.88"/>
<polygon fill="#63b8ff" stroke="#63b8ff" points="800.29,-300.15 808.93,-294.02 798.36,-293.42 800.29,-300.15"/>
</g>
<!-- Node38 -->
<g id="node37" class="node">
<title>Node38</title>
<g id="a_node37"><a xlink:href="ComponentFactory_8h.html" target="_top" xlink:title=" ">
<polygon fill="white" stroke="#666666" points="313.5,-294 197.5,-294 197.5,-275 313.5,-275 313.5,-294"/>
<text text-anchor="middle" x="255.5" y="-282" font-family="Helvetica,sans-Serif" font-size="10.00">ComponentFactory.h</text>
</a>
</g>
</g>
<!-- Node17&#45;&gt;Node38 -->
<g id="edge48" class="edge">
<title>Node17&#45;&gt;Node38</title>
<path fill="none" stroke="#63b8ff" d="M626.76,-334.82C564.65,-326.56 412.87,-306.4 323.8,-294.57"/>
<polygon fill="#63b8ff" stroke="#63b8ff" points="324.16,-291.09 313.79,-293.24 323.24,-298.03 324.16,-291.09"/>
</g>
<!-- Node19 -->
<g id="node19" class="node">
<title>Node19</title>
<g id="a_node19"><a xlink:href="cmtgb_8h.html" target="_top" xlink:title=" ">
<polygon fill="white" stroke="#666666" points="1108.5,-129 1052.5,-129 1052.5,-110 1108.5,-110 1108.5,-129"/>
<text text-anchor="middle" x="1080.5" y="-117" font-family="Helvetica,sans-Serif" font-size="10.00">cmtgb.h</text>
</a>
</g>
</g>
<!-- Node18&#45;&gt;Node19 -->
<g id="edge19" class="edge">
<title>Node18&#45;&gt;Node19</title>
<path fill="none" stroke="#63b8ff" d="M1037.09,-164.75C1044.66,-157.03 1055.88,-145.6 1065.01,-136.28"/>
<polygon fill="#63b8ff" stroke="#63b8ff" points="1067.57,-138.68 1072.07,-129.09 1062.57,-133.78 1067.57,-138.68"/>
</g>
<!-- Node19&#45;&gt;Node20 -->
<g id="edge20" class="edge">
<title>Node19&#45;&gt;Node20</title>
<path fill="none" stroke="#63b8ff" d="M1069.18,-109.79C1059.22,-101.57 1045.03,-88.39 1036.5,-74 1028.33,-60.22 1023.43,-42.65 1020.65,-29.48"/>
<polygon fill="#63b8ff" stroke="#63b8ff" points="1024.02,-28.44 1018.74,-19.26 1017.14,-29.73 1024.02,-28.44"/>
</g>
<!-- Node21 -->
<g id="node21" class="node">
<title>Node21</title>
<g id="a_node21"><a xlink:href="Handlers_8h.html" target="_top" xlink:title=" ">
<polygon fill="white" stroke="#666666" points="1115,-74 1046,-74 1046,-55 1115,-55 1115,-74"/>
<text text-anchor="middle" x="1080.5" y="-62" font-family="Helvetica,sans-Serif" font-size="10.00">Handlers.h</text>
</a>
</g>
</g>
<!-- Node19&#45;&gt;Node21 -->
<g id="edge21" class="edge">
<title>Node19&#45;&gt;Node21</title>
<path fill="none" stroke="#63b8ff" d="M1080.5,-109.75C1080.5,-102.8 1080.5,-92.85 1080.5,-84.13"/>
<polygon fill="#63b8ff" stroke="#63b8ff" points="1084,-84.09 1080.5,-74.09 1077,-84.09 1084,-84.09"/>
</g>
<!-- Node21&#45;&gt;Node20 -->
<g id="edge22" class="edge">
<title>Node21&#45;&gt;Node20</title>
<path fill="none" stroke="#63b8ff" d="M1070.38,-54.98C1061.06,-47.15 1047.03,-35.34 1035.76,-25.86"/>
<polygon fill="#63b8ff" stroke="#63b8ff" points="1037.71,-22.93 1027.81,-19.17 1033.21,-28.29 1037.71,-22.93"/>
</g>
<!-- Node31&#45;&gt;Node18 -->
<g id="edge37" class="edge">
<title>Node31&#45;&gt;Node18</title>
<path fill="none" stroke="#63b8ff" d="M664.02,-223.51C740.34,-217.16 870.36,-204.67 991.63,-183.94"/>
<polygon fill="#63b8ff" stroke="#63b8ff" points="992.58,-187.33 1001.84,-182.17 991.39,-180.43 992.58,-187.33"/>
</g>
<!-- Node31&#45;&gt;Node29 -->
<g id="edge38" class="edge">
<title>Node31&#45;&gt;Node29</title>
<path fill="none" stroke="#63b8ff" d="M562.83,-219.98C523.65,-210.63 460.77,-195.62 419.05,-185.66"/>
<polygon fill="#63b8ff" stroke="#63b8ff" points="419.73,-182.22 409.19,-183.3 418.1,-189.03 419.73,-182.22"/>
</g>
<!-- Node32 -->
<g id="node32" class="node">
<title>Node32</title>
<g id="a_node32"><a xlink:href="ComponentConcept_8h.html" target="_top" xlink:title=" ">
<polygon fill="white" stroke="#666666" points="574.5,-184 452.5,-184 452.5,-165 574.5,-165 574.5,-184"/>
<text text-anchor="middle" x="513.5" y="-172" font-family="Helvetica,sans-Serif" font-size="10.00">ComponentConcept.h</text>
</a>
</g>
</g>
<!-- Node31&#45;&gt;Node32 -->
<g id="edge39" class="edge">
<title>Node31&#45;&gt;Node32</title>
<path fill="none" stroke="#63b8ff" d="M584.84,-219.98C571.66,-211.77 551.47,-199.18 535.93,-189.49"/>
<polygon fill="#63b8ff" stroke="#63b8ff" points="537.74,-186.49 527.41,-184.17 534.04,-192.43 537.74,-186.49"/>
</g>
<!-- Node32&#45;&gt;Node6 -->
<g id="edge41" class="edge">
<title>Node32&#45;&gt;Node6</title>
<path fill="none" stroke="#63b8ff" d="M558.49,-164.98C610.81,-155.08 696.64,-138.83 748.83,-128.96"/>
<polygon fill="#63b8ff" stroke="#63b8ff" points="749.62,-132.37 758.8,-127.07 748.32,-125.49 749.62,-132.37"/>
</g>
<!-- Node32&#45;&gt;Node9 -->
<g id="edge40" class="edge">
<title>Node32&#45;&gt;Node9</title>
<path fill="none" stroke="#63b8ff" d="M574.71,-165.61C653.93,-155.3 787.57,-137.56 836.5,-129 836.6,-128.98 836.7,-128.96 836.8,-128.95"/>
<polygon fill="#63b8ff" stroke="#63b8ff" points="837.22,-132.43 846.4,-127.14 835.93,-125.55 837.22,-132.43"/>
</g>
<!-- Node35 -->
<g id="node35" class="node">
<title>Node35</title>
<g id="a_node35"><a xlink:href="GameObjectLayer_8h.html" target="_top" xlink:title=" ">
<polygon fill="white" stroke="#666666" points="910,-239 797,-239 797,-220 910,-220 910,-239"/>
<text text-anchor="middle" x="853.5" y="-227" font-family="Helvetica,sans-Serif" font-size="10.00">GameObjectLayer.h</text>
</a>
</g>
</g>
<!-- Node34&#45;&gt;Node35 -->
<g id="edge44" class="edge">
<title>Node34&#45;&gt;Node35</title>
<path fill="none" stroke="#63b8ff" d="M840.98,-274.75C842.96,-267.72 845.82,-257.62 848.31,-248.84"/>
<polygon fill="#63b8ff" stroke="#63b8ff" points="851.71,-249.66 851.07,-239.09 844.98,-247.76 851.71,-249.66"/>
</g>
<!-- Node36 -->
<g id="node36" class="node">
<title>Node36</title>
<g id="a_node36"><a xlink:href="BitFlag_8h.html" target="_top" xlink:title=" ">
<polygon fill="#fff0f0" stroke="red" points="897.5,-184 805.5,-184 805.5,-165 897.5,-165 897.5,-184"/>
<text text-anchor="middle" x="851.5" y="-172" font-family="Helvetica,sans-Serif" font-size="10.00">MTBit/BitFlag.h</text>
</a>
</g>
</g>
<!-- Node35&#45;&gt;Node36 -->
<g id="edge45" class="edge">
<title>Node35&#45;&gt;Node36</title>
<path fill="none" stroke="#63b8ff" d="M853.17,-219.75C852.91,-212.8 852.53,-202.85 852.2,-194.13"/>
<polygon fill="#63b8ff" stroke="#63b8ff" points="855.7,-193.95 851.82,-184.09 848.7,-194.21 855.7,-193.95"/>
</g>
<!-- Node36&#45;&gt;Node6 -->
<g id="edge46" class="edge">
<title>Node36&#45;&gt;Node6</title>
<path fill="none" stroke="#63b8ff" d="M842.18,-164.98C833.69,-157.23 820.94,-145.58 810.62,-136.14"/>
<polygon fill="#63b8ff" stroke="#63b8ff" points="812.73,-133.33 802.99,-129.17 808.01,-138.5 812.73,-133.33"/>
</g>
<!-- Node36&#45;&gt;Node9 -->
<g id="edge47" class="edge">
<title>Node36&#45;&gt;Node9</title>
<path fill="none" stroke="#63b8ff" d="M855.63,-164.75C859.01,-157.57 863.92,-147.18 868.12,-138.27"/>
<polygon fill="#63b8ff" stroke="#63b8ff" points="871.35,-139.63 872.45,-129.09 865.02,-136.64 871.35,-139.63"/>
</g>
<!-- Node38&#45;&gt;Node22 -->
<g id="edge61" class="edge">
<title>Node38&#45;&gt;Node22</title>
<path fill="none" stroke="#63b8ff" d="M285.71,-274.98C317.54,-266.01 367.86,-251.82 403.1,-241.89"/>
<polygon fill="#63b8ff" stroke="#63b8ff" points="404.38,-245.16 413.06,-239.08 402.48,-238.43 404.38,-245.16"/>
</g>
<!-- Node38&#45;&gt;Node28 -->
<g id="edge49" class="edge">
<title>Node38&#45;&gt;Node28</title>
<path fill="none" stroke="#63b8ff" d="M217.86,-274.95C189.35,-267.64 149.71,-255.64 117.5,-239 91.86,-225.75 65.76,-204.93 49.37,-190.77"/>
<polygon fill="#63b8ff" stroke="#63b8ff" points="51.56,-188.04 41.74,-184.05 46.93,-193.29 51.56,-188.04"/>
</g>
<!-- Node38&#45;&gt;Node29 -->
<g id="edge50" class="edge">
<title>Node38&#45;&gt;Node29</title>
<path fill="none" stroke="#63b8ff" d="M260.86,-274.93C269.24,-261.96 286.5,-237.06 305.5,-220 318.95,-207.92 336.08,-197.07 350.15,-189.12"/>
<polygon fill="#63b8ff" stroke="#63b8ff" points="352.23,-191.97 359.31,-184.09 348.86,-185.83 352.23,-191.97"/>
</g>
<!-- Node38&#45;&gt;Node31 -->
<g id="edge53" class="edge">
<title>Node38&#45;&gt;Node31</title>
<path fill="none" stroke="#63b8ff" d="M310.61,-274.98C371.28,-265.61 468.74,-250.55 533.19,-240.59"/>
<polygon fill="#63b8ff" stroke="#63b8ff" points="533.9,-244.02 543.24,-239.04 532.83,-237.11 533.9,-244.02"/>
</g>
<!-- Node38&#45;&gt;Node32 -->
<g id="edge52" class="edge">
<title>Node38&#45;&gt;Node32</title>
<path fill="none" stroke="#63b8ff" d="M277.63,-274.93C299.6,-266.29 334.15,-252.36 363.5,-239 380.69,-231.18 384.27,-227.72 401.5,-220 427.78,-208.23 458.18,-196.26 480.67,-187.7"/>
<polygon fill="#63b8ff" stroke="#63b8ff" points="481.98,-190.94 490.09,-184.13 479.5,-184.4 481.98,-190.94"/>
</g>
<!-- Node39 -->
<g id="node38" class="node">
<title>Node39</title>
<g id="a_node38"><a xlink:title=" ">
<polygon fill="#e0e0e0" stroke="#999999" points="176,-184 83,-184 83,-165 176,-165 176,-184"/>
<text text-anchor="middle" x="129.5" y="-172" font-family="Helvetica,sans-Serif" font-size="10.00">unordered_map</text>
</a>
</g>
</g>
<!-- Node38&#45;&gt;Node39 -->
<g id="edge51" class="edge">
<title>Node38&#45;&gt;Node39</title>
<path fill="none" stroke="#63b8ff" d="M215.73,-274.97C182.19,-266.87 138,-253.76 127.5,-239 118.32,-226.09 120.07,-207.68 123.37,-194.01"/>
<polygon fill="#63b8ff" stroke="#63b8ff" points="126.78,-194.83 126.18,-184.25 120.05,-192.89 126.78,-194.83"/>
</g>
<!-- Node40 -->
<g id="node39" class="node">
<title>Node40</title>
<g id="a_node39"><a xlink:href="ComponentRegistry_8h.html" target="_top" xlink:title=" ">
<polygon fill="white" stroke="#666666" points="258,-239 137,-239 137,-220 258,-220 258,-239"/>
<text text-anchor="middle" x="197.5" y="-227" font-family="Helvetica,sans-Serif" font-size="10.00">ComponentRegistry.h</text>
</a>
</g>
</g>
<!-- Node38&#45;&gt;Node40 -->
<g id="edge54" class="edge">
<title>Node38&#45;&gt;Node40</title>
<path fill="none" stroke="#63b8ff" d="M246.18,-274.98C237.69,-267.23 224.94,-255.58 214.62,-246.14"/>
<polygon fill="#63b8ff" stroke="#63b8ff" points="216.73,-243.33 206.99,-239.17 212.01,-248.5 216.73,-243.33"/>
</g>
<!-- Node43 -->
<g id="node42" class="node">
<title>Node43</title>
<g id="a_node42"><a xlink:title=" ">
<polygon fill="#e0e0e0" stroke="#999999" points="354.5,-239 314.5,-239 314.5,-220 354.5,-220 354.5,-239"/>
<text text-anchor="middle" x="334.5" y="-227" font-family="Helvetica,sans-Serif" font-size="10.00">span</text>
</a>
</g>
</g>
<!-- Node38&#45;&gt;Node43 -->
<g id="edge62" class="edge">
<title>Node38&#45;&gt;Node43</title>
<path fill="none" stroke="#63b8ff" d="M268.19,-274.98C280.33,-266.84 298.86,-254.41 313.25,-244.76"/>
<polygon fill="#63b8ff" stroke="#63b8ff" points="315.22,-247.65 321.58,-239.17 311.32,-241.84 315.22,-247.65"/>
</g>
<!-- Node40&#45;&gt;Node28 -->
<g id="edge55" class="edge">
<title>Node40&#45;&gt;Node28</title>
<path fill="none" stroke="#63b8ff" d="M170.99,-219.98C143.29,-211.09 99.64,-197.07 68.76,-187.15"/>
<polygon fill="#63b8ff" stroke="#63b8ff" points="69.81,-183.81 59.22,-184.08 67.67,-190.47 69.81,-183.81"/>
</g>
<!-- Node40&#45;&gt;Node29 -->
<g id="edge57" class="edge">
<title>Node40&#45;&gt;Node29</title>
<path fill="none" stroke="#63b8ff" d="M226.26,-219.98C256.44,-211.05 304.07,-196.94 337.6,-187.02"/>
<polygon fill="#63b8ff" stroke="#63b8ff" points="338.92,-190.28 347.52,-184.08 336.93,-183.57 338.92,-190.28"/>
</g>
<!-- Node40&#45;&gt;Node33 -->
<g id="edge60" class="edge">
<title>Node40&#45;&gt;Node33</title>
<path fill="none" stroke="#63b8ff" d="M258.04,-221.85C332,-213.65 461.21,-199.09 582.17,-184.15"/>
<polygon fill="#63b8ff" stroke="#63b8ff" points="582.86,-187.59 592.35,-182.89 582,-180.64 582.86,-187.59"/>
</g>
<!-- Node40&#45;&gt;Node39 -->
<g id="edge56" class="edge">
<title>Node40&#45;&gt;Node39</title>
<path fill="none" stroke="#63b8ff" d="M186.57,-219.98C176.42,-212.07 161.08,-200.11 148.85,-190.58"/>
<polygon fill="#63b8ff" stroke="#63b8ff" points="150.66,-187.56 140.62,-184.17 146.36,-193.08 150.66,-187.56"/>
</g>
<!-- Node41 -->
<g id="node40" class="node">
<title>Node41</title>
<g id="a_node40"><a xlink:title=" ">
<polygon fill="#e0e0e0" stroke="#999999" points="300.5,-184 244.5,-184 244.5,-165 300.5,-165 300.5,-184"/>
<text text-anchor="middle" x="272.5" y="-172" font-family="Helvetica,sans-Serif" font-size="10.00">optional</text>
</a>
</g>
</g>
<!-- Node40&#45;&gt;Node41 -->
<g id="edge58" class="edge">
<title>Node40&#45;&gt;Node41</title>
<path fill="none" stroke="#63b8ff" d="M209.55,-219.98C220.96,-211.92 238.33,-199.65 251.93,-190.03"/>
<polygon fill="#63b8ff" stroke="#63b8ff" points="254.08,-192.8 260.23,-184.17 250.04,-187.08 254.08,-192.8"/>
</g>
<!-- Node42 -->
<g id="node41" class="node">
<title>Node42</title>
<g id="a_node41"><a xlink:title=" ">
<polygon fill="#e0e0e0" stroke="#999999" points="226.5,-184 194.5,-184 194.5,-165 226.5,-165 226.5,-184"/>
<text text-anchor="middle" x="210.5" y="-172" font-family="Helvetica,sans-Serif" font-size="10.00">set</text>
</a>
</g>
</g>
<!-- Node40&#45;&gt;Node42 -->
<g id="edge59" class="edge">
<title>Node40&#45;&gt;Node42</title>
<path fill="none" stroke="#63b8ff" d="M199.65,-219.75C201.37,-212.72 203.85,-202.62 206,-193.84"/>
<polygon fill="#63b8ff" stroke="#63b8ff" points="209.41,-194.63 208.39,-184.09 202.61,-192.97 209.41,-194.63"/>
</g>
<!-- Node44&#45;&gt;Node10 -->
<g id="edge71" class="edge">
<title>Node44&#45;&gt;Node10</title>
<path fill="none" stroke="#63b8ff" d="M1330,-274.93C1282.14,-266.45 1206.6,-252.98 1131.47,-239.17"/>
<polygon fill="#63b8ff" stroke="#63b8ff" points="1131.82,-235.67 1121.36,-237.3 1130.56,-242.56 1131.82,-235.67"/>
</g>
<!-- Node44&#45;&gt;Node19 -->
<g id="edge65" class="edge">
<title>Node44&#45;&gt;Node19</title>
<path fill="none" stroke="#63b8ff" d="M1367.83,-274.81C1351.69,-261.91 1319.86,-237.35 1290.5,-220 1229.25,-183.8 1152.72,-150.25 1111.04,-132.89"/>
<polygon fill="#63b8ff" stroke="#63b8ff" points="1112.29,-129.62 1101.71,-129.03 1109.62,-136.08 1112.29,-129.62"/>
</g>
<!-- Node45 -->
<g id="node44" class="node">
<title>Node45</title>
<g id="a_node44"><a xlink:href="Vector4_8h.html" target="_top" xlink:title=" ">
<polygon fill="white" stroke="#666666" points="1537.5,-239 1475.5,-239 1475.5,-220 1537.5,-220 1537.5,-239"/>
<text text-anchor="middle" x="1506.5" y="-227" font-family="Helvetica,sans-Serif" font-size="10.00">Vector4.h</text>
</a>
</g>
</g>
<!-- Node44&#45;&gt;Node45 -->
<g id="edge66" class="edge">
<title>Node44&#45;&gt;Node45</title>
<path fill="none" stroke="#63b8ff" d="M1399.07,-274.98C1419.93,-266.34 1452.47,-252.87 1476.27,-243.02"/>
<polygon fill="#63b8ff" stroke="#63b8ff" points="1477.66,-246.23 1485.56,-239.17 1474.98,-239.76 1477.66,-246.23"/>
</g>
<!-- Node48 -->
<g id="node47" class="node">
<title>Node48</title>
<g id="a_node47"><a xlink:title=" ">
<polygon fill="#e0e0e0" stroke="#999999" points="1281.5,-239 1239.5,-239 1239.5,-220 1281.5,-220 1281.5,-239"/>
<text text-anchor="middle" x="1260.5" y="-227" font-family="Helvetica,sans-Serif" font-size="10.00">array</text>
</a>
</g>
</g>
<!-- Node44&#45;&gt;Node48 -->
<g id="edge72" class="edge">
<title>Node44&#45;&gt;Node48</title>
<path fill="none" stroke="#63b8ff" d="M1359.54,-274.98C1340.47,-266.42 1310.84,-253.11 1288.95,-243.28"/>
<polygon fill="#63b8ff" stroke="#63b8ff" points="1290.36,-240.07 1279.8,-239.17 1287.49,-246.46 1290.36,-240.07"/>
</g>
<!-- Node49 -->
<g id="node48" class="node">
<title>Node49</title>
<g id="a_node48"><a xlink:href="ShaderType_8h.html" target="_top" xlink:title=" ">
<polygon fill="white" stroke="#666666" points="1221.5,-239 1139.5,-239 1139.5,-220 1221.5,-220 1221.5,-239"/>
<text text-anchor="middle" x="1180.5" y="-227" font-family="Helvetica,sans-Serif" font-size="10.00">ShaderType.h</text>
</a>
</g>
</g>
<!-- Node44&#45;&gt;Node49 -->
<g id="edge73" class="edge">
<title>Node44&#45;&gt;Node49</title>
<path fill="none" stroke="#63b8ff" d="M1346.69,-274.98C1313.01,-265.97 1259.7,-251.7 1222.58,-241.76"/>
<polygon fill="#63b8ff" stroke="#63b8ff" points="1223.13,-238.29 1212.56,-239.08 1221.32,-245.05 1223.13,-238.29"/>
</g>
<!-- Node50 -->
<g id="node49" class="node">
<title>Node50</title>
<g id="a_node49"><a xlink:title=" ">
<polygon fill="#e0e0e0" stroke="#999999" points="1402,-184 1355,-184 1355,-165 1402,-165 1402,-184"/>
<text text-anchor="middle" x="1378.5" y="-172" font-family="Helvetica,sans-Serif" font-size="10.00">dxgi.h</text>
</a>
</g>
</g>
<!-- Node44&#45;&gt;Node50 -->
<g id="edge75" class="edge">
<title>Node44&#45;&gt;Node50</title>
<path fill="none" stroke="#63b8ff" d="M1393.68,-274.98C1411.8,-263.61 1438.49,-242.28 1428.5,-220 1423,-207.74 1412.27,-197.48 1402.15,-189.91"/>
<polygon fill="#63b8ff" stroke="#63b8ff" points="1404.14,-187.03 1393.93,-184.2 1400.15,-192.78 1404.14,-187.03"/>
</g>
<!-- Node51 -->
<g id="node50" class="node">
<title>Node51</title>
<g id="a_node50"><a xlink:href="MonitorInfo_8h.html" target="_top" xlink:title=" ">
<polygon fill="white" stroke="#666666" points="1419.5,-239 1337.5,-239 1337.5,-220 1419.5,-220 1419.5,-239"/>
<text text-anchor="middle" x="1378.5" y="-227" font-family="Helvetica,sans-Serif" font-size="10.00">MonitorInfo.h</text>
</a>
</g>
</g>
<!-- Node44&#45;&gt;Node51 -->
<g id="edge76" class="edge">
<title>Node44&#45;&gt;Node51</title>
<path fill="none" stroke="#63b8ff" d="M1378.5,-274.75C1378.5,-267.8 1378.5,-257.85 1378.5,-249.13"/>
<polygon fill="#63b8ff" stroke="#63b8ff" points="1382,-249.09 1378.5,-239.09 1375,-249.09 1382,-249.09"/>
</g>
<!-- Node46 -->
<g id="node45" class="node">
<title>Node46</title>
<g id="a_node45"><a xlink:title=" ">
<polygon fill="#e0e0e0" stroke="#999999" points="1523.5,-129 1437.5,-129 1437.5,-110 1523.5,-110 1523.5,-129"/>
<text text-anchor="middle" x="1480.5" y="-117" font-family="Helvetica,sans-Serif" font-size="10.00">DirectXMath.h</text>
</a>
</g>
</g>
<!-- Node45&#45;&gt;Node46 -->
<g id="edge67" class="edge">
<title>Node45&#45;&gt;Node46</title>
<path fill="none" stroke="#63b8ff" d="M1504.49,-219.87C1501.64,-207.64 1496.24,-184.6 1491.5,-165 1489.42,-156.38 1487.07,-146.84 1485.07,-138.81"/>
<polygon fill="#63b8ff" stroke="#63b8ff" points="1488.45,-137.88 1482.64,-129.02 1481.65,-139.57 1488.45,-137.88"/>
</g>
<!-- Node47 -->
<g id="node46" class="node">
<title>Node47</title>
<g id="a_node46"><a xlink:href="Vector3_8h.html" target="_top" xlink:title=" ">
<polygon fill="white" stroke="#666666" points="1482.5,-184 1420.5,-184 1420.5,-165 1482.5,-165 1482.5,-184"/>
<text text-anchor="middle" x="1451.5" y="-172" font-family="Helvetica,sans-Serif" font-size="10.00">Vector3.h</text>
</a>
</g>
</g>
<!-- Node45&#45;&gt;Node47 -->
<g id="edge68" class="edge">
<title>Node45&#45;&gt;Node47</title>
<path fill="none" stroke="#63b8ff" d="M1497.42,-219.75C1489.41,-212.03 1477.54,-200.6 1467.88,-191.28"/>
<polygon fill="#63b8ff" stroke="#63b8ff" points="1470.04,-188.51 1460.41,-184.09 1465.19,-193.55 1470.04,-188.51"/>
</g>
<!-- Node47&#45;&gt;Node8 -->
<g id="edge70" class="edge">
<title>Node47&#45;&gt;Node8</title>
<path fill="none" stroke="#63b8ff" d="M1421.13,-164.98C1386.94,-155.4 1331.55,-139.86 1296.09,-129.92"/>
<polygon fill="#63b8ff" stroke="#63b8ff" points="1296.78,-126.48 1286.21,-127.15 1294.89,-133.22 1296.78,-126.48"/>
</g>
<!-- Node47&#45;&gt;Node46 -->
<g id="edge69" class="edge">
<title>Node47&#45;&gt;Node46</title>
<path fill="none" stroke="#63b8ff" d="M1456.29,-164.75C1460.26,-157.49 1466.03,-146.95 1470.93,-137.98"/>
<polygon fill="#63b8ff" stroke="#63b8ff" points="1474.07,-139.54 1475.8,-129.09 1467.93,-136.18 1474.07,-139.54"/>
</g>
<!-- Node49&#45;&gt;Node19 -->
<g id="edge74" class="edge">
<title>Node49&#45;&gt;Node19</title>
<path fill="none" stroke="#63b8ff" d="M1172.32,-219.66C1155.53,-201.54 1116.99,-159.91 1095.57,-136.77"/>
<polygon fill="#63b8ff" stroke="#63b8ff" points="1097.88,-134.12 1088.52,-129.16 1092.74,-138.87 1097.88,-134.12"/>
</g>
<!-- Node51&#45;&gt;Node50 -->
<g id="edge77" class="edge">
<title>Node51&#45;&gt;Node50</title>
<path fill="none" stroke="#63b8ff" d="M1378.5,-219.75C1378.5,-212.8 1378.5,-202.85 1378.5,-194.13"/>
<polygon fill="#63b8ff" stroke="#63b8ff" points="1382,-194.09 1378.5,-184.09 1375,-194.09 1382,-194.09"/>
</g>
</g>
</svg>
