<?xml version="1.0" encoding="UTF-8" standalone="no"?>
<!DOCTYPE svg PUBLIC "-//W3C//DTD SVG 1.1//EN"
 "http://www.w3.org/Graphics/SVG/1.1/DTD/svg11.dtd">
<!-- Generated by graphviz version 2.43.0 (0)
 -->
<!-- Title: TextAlignment.h Pages: 1 -->
<svg width="2744pt" height="357pt"
 viewBox="0.00 0.00 2743.61 357.00" xmlns="http://www.w3.org/2000/svg" xmlns:xlink="http://www.w3.org/1999/xlink">
<g id="graph0" class="graph" transform="scale(1 1) rotate(0) translate(4 353)">
<title>TextAlignment.h</title>
<!-- Node1 -->
<g id="node1" class="node">
<title>Node1</title>
<g id="a_node1"><a xlink:title=" ">
<polygon fill="#999999" stroke="#666666" points="701.61,-349 605.61,-349 605.61,-330 701.61,-330 701.61,-349"/>
<text text-anchor="middle" x="653.61" y="-337" font-family="Helvetica,sans-Serif" font-size="10.00">TextAlignment.h</text>
</a>
</g>
</g>
<!-- Node2 -->
<g id="node2" class="node">
<title>Node2</title>
<g id="a_node2"><a xlink:href="DirectWrite_8h.html" target="_top" xlink:title=" ">
<polygon fill="white" stroke="#666666" points="253.11,-294 172.11,-294 172.11,-275 253.11,-275 253.11,-294"/>
<text text-anchor="middle" x="212.61" y="-282" font-family="Helvetica,sans-Serif" font-size="10.00">DirectWrite.h</text>
</a>
</g>
</g>
<!-- Node1&#45;&gt;Node2 -->
<g id="edge1" class="edge">
<title>Node1&#45;&gt;Node2</title>
<path fill="none" stroke="#63b8ff" d="M595.45,-331.51C504.7,-320.6 331.65,-299.81 253.14,-290.37"/>
<polygon fill="#63b8ff" stroke="#63b8ff" points="595.23,-335.01 605.57,-332.73 596.06,-328.06 595.23,-335.01"/>
</g>
<!-- Node7 -->
<g id="node7" class="node">
<title>Node7</title>
<g id="a_node7"><a xlink:href="TextCache_8h.html" target="_top" xlink:title=" ">
<polygon fill="white" stroke="#666666" points="361.61,-239 285.61,-239 285.61,-220 361.61,-220 361.61,-239"/>
<text text-anchor="middle" x="323.61" y="-227" font-family="Helvetica,sans-Serif" font-size="10.00">TextCache.h</text>
</a>
</g>
</g>
<!-- Node1&#45;&gt;Node7 -->
<g id="edge66" class="edge">
<title>Node1&#45;&gt;Node7</title>
<path fill="none" stroke="#63b8ff" d="M617.75,-326.77C550.86,-304.87 408.51,-258.29 349.78,-239.07"/>
<polygon fill="#63b8ff" stroke="#63b8ff" points="616.84,-330.15 627.44,-329.94 619.02,-323.5 616.84,-330.15"/>
</g>
<!-- Node72 -->
<g id="node40" class="node">
<title>Node72</title>
<g id="a_node40"><a xlink:href="Draw_8h.html" target="_top" xlink:title=" ">
<polygon fill="white" stroke="#666666" points="848.61,-294 798.61,-294 798.61,-275 848.61,-275 848.61,-294"/>
<text text-anchor="middle" x="823.61" y="-282" font-family="Helvetica,sans-Serif" font-size="10.00">Draw.h</text>
</a>
</g>
</g>
<!-- Node1&#45;&gt;Node72 -->
<g id="edge56" class="edge">
<title>Node1&#45;&gt;Node72</title>
<path fill="none" stroke="#63b8ff" d="M690.58,-326.97C723.27,-316.78 770.09,-302.19 798.58,-293.3"/>
<polygon fill="#63b8ff" stroke="#63b8ff" points="689.42,-323.67 680.92,-329.98 691.51,-330.35 689.42,-323.67"/>
</g>
<!-- Node81 -->
<g id="node48" class="node">
<title>Node81</title>
<g id="a_node48"><a xlink:href="TextRenderer_8h.html" target="_top" xlink:title=" ">
<polygon fill="white" stroke="#666666" points="1414.11,-294 1325.11,-294 1325.11,-275 1414.11,-275 1414.11,-294"/>
<text text-anchor="middle" x="1369.61" y="-282" font-family="Helvetica,sans-Serif" font-size="10.00">TextRenderer.h</text>
</a>
</g>
</g>
<!-- Node1&#45;&gt;Node81 -->
<g id="edge67" class="edge">
<title>Node1&#45;&gt;Node81</title>
<path fill="none" stroke="#63b8ff" d="M711.74,-334.2C850.88,-323.9 1200.71,-298 1324.96,-288.8"/>
<polygon fill="#63b8ff" stroke="#63b8ff" points="711.41,-330.71 701.7,-334.94 711.93,-337.69 711.41,-330.71"/>
</g>
<!-- Node3 -->
<g id="node3" class="node">
<title>Node3</title>
<g id="a_node3"><a xlink:href="DirectWrite_8cpp.html" target="_top" xlink:title=" ">
<polygon fill="white" stroke="#666666" points="139.61,-239 47.61,-239 47.61,-220 139.61,-220 139.61,-239"/>
<text text-anchor="middle" x="93.61" y="-227" font-family="Helvetica,sans-Serif" font-size="10.00">DirectWrite.cpp</text>
</a>
</g>
</g>
<!-- Node2&#45;&gt;Node3 -->
<g id="edge2" class="edge">
<title>Node2&#45;&gt;Node3</title>
<path fill="none" stroke="#63b8ff" d="M184.31,-270.9C162.33,-261.11 132.43,-247.79 113.07,-239.17"/>
<polygon fill="#63b8ff" stroke="#63b8ff" points="182.93,-274.11 193.49,-274.98 185.78,-267.72 182.93,-274.11"/>
</g>
<!-- Node4 -->
<g id="node4" class="node">
<title>Node4</title>
<g id="a_node4"><a xlink:href="DirectX11Draw_8cpp.html" target="_top" xlink:title=" ">
<polygon fill="white" stroke="#666666" points="267.61,-239 157.61,-239 157.61,-220 267.61,-220 267.61,-239"/>
<text text-anchor="middle" x="212.61" y="-227" font-family="Helvetica,sans-Serif" font-size="10.00">DirectX11Draw.cpp</text>
</a>
</g>
</g>
<!-- Node2&#45;&gt;Node4 -->
<g id="edge3" class="edge">
<title>Node2&#45;&gt;Node4</title>
<path fill="none" stroke="#63b8ff" d="M212.61,-264.66C212.61,-255.93 212.61,-245.99 212.61,-239.09"/>
<polygon fill="#63b8ff" stroke="#63b8ff" points="209.11,-264.75 212.61,-274.75 216.11,-264.75 209.11,-264.75"/>
</g>
<!-- Node5 -->
<g id="node5" class="node">
<title>Node5</title>
<g id="a_node5"><a xlink:href="Draw_8cpp.html" target="_top" xlink:title=" ">
<polygon fill="white" stroke="#666666" points="354.61,-184 292.61,-184 292.61,-165 354.61,-165 354.61,-184"/>
<text text-anchor="middle" x="323.61" y="-172" font-family="Helvetica,sans-Serif" font-size="10.00">Draw.cpp</text>
</a>
</g>
</g>
<!-- Node2&#45;&gt;Node5 -->
<g id="edge4" class="edge">
<title>Node2&#45;&gt;Node5</title>
<path fill="none" stroke="#63b8ff" d="M161.67,-281.38C98.05,-276.92 1.76,-263.04 38.61,-220 55.01,-200.84 222.16,-184.27 292.59,-178.09"/>
<polygon fill="#63b8ff" stroke="#63b8ff" points="161.76,-284.9 171.97,-282.05 162.21,-277.91 161.76,-284.9"/>
</g>
<!-- Node6 -->
<g id="node6" class="node">
<title>Node6</title>
<g id="a_node6"><a xlink:href="TextCache_8cpp.html" target="_top" xlink:title=" ">
<polygon fill="white" stroke="#666666" points="150.11,-184 63.11,-184 63.11,-165 150.11,-165 150.11,-184"/>
<text text-anchor="middle" x="106.61" y="-172" font-family="Helvetica,sans-Serif" font-size="10.00">TextCache.cpp</text>
</a>
</g>
</g>
<!-- Node2&#45;&gt;Node6 -->
<g id="edge5" class="edge">
<title>Node2&#45;&gt;Node6</title>
<path fill="none" stroke="#63b8ff" d="M161.69,-279.74C106.86,-274.5 24.87,-262.84 5.61,-239 -15.68,-212.66 31.42,-194.06 68.24,-184.06"/>
<polygon fill="#63b8ff" stroke="#63b8ff" points="161.66,-283.25 171.93,-280.67 162.29,-276.28 161.66,-283.25"/>
</g>
<!-- Node2&#45;&gt;Node7 -->
<g id="edge6" class="edge">
<title>Node2&#45;&gt;Node7</title>
<path fill="none" stroke="#63b8ff" d="M239.55,-270.63C260,-260.87 287.55,-247.71 305.45,-239.17"/>
<polygon fill="#63b8ff" stroke="#63b8ff" points="237.96,-267.52 230.44,-274.98 240.97,-273.83 237.96,-267.52"/>
</g>
<!-- Node8 -->
<g id="node8" class="node">
<title>Node8</title>
<g id="a_node8"><a xlink:href="mtgb_8h.html" target="_top" xlink:title=" ">
<polygon fill="white" stroke="#666666" points="1198.11,-184 1147.11,-184 1147.11,-165 1198.11,-165 1198.11,-184"/>
<text text-anchor="middle" x="1172.61" y="-172" font-family="Helvetica,sans-Serif" font-size="10.00">mtgb.h</text>
</a>
</g>
</g>
<!-- Node2&#45;&gt;Node8 -->
<g id="edge55" class="edge">
<title>Node2&#45;&gt;Node8</title>
<path fill="none" stroke="#63b8ff" d="M252.64,-272.21C314.53,-254.82 428.35,-223.16 447.61,-220 718.58,-175.55 1053.11,-174.52 1147.03,-175.21"/>
<polygon fill="#63b8ff" stroke="#63b8ff" points="251.49,-268.89 242.81,-274.97 253.39,-275.63 251.49,-268.89"/>
</g>
<!-- Node7&#45;&gt;Node5 -->
<g id="edge7" class="edge">
<title>Node7&#45;&gt;Node5</title>
<path fill="none" stroke="#63b8ff" d="M323.61,-209.66C323.61,-200.93 323.61,-190.99 323.61,-184.09"/>
<polygon fill="#63b8ff" stroke="#63b8ff" points="320.11,-209.75 323.61,-219.75 327.11,-209.75 320.11,-209.75"/>
</g>
<!-- Node7&#45;&gt;Node6 -->
<g id="edge8" class="edge">
<title>Node7&#45;&gt;Node6</title>
<path fill="none" stroke="#63b8ff" d="M278.83,-217.56C238.19,-207.64 179.07,-193.2 141.74,-184.08"/>
<polygon fill="#63b8ff" stroke="#63b8ff" points="278.2,-221.01 288.74,-219.98 279.86,-214.21 278.2,-221.01"/>
</g>
<!-- Node7&#45;&gt;Node8 -->
<g id="edge9" class="edge">
<title>Node7&#45;&gt;Node8</title>
<path fill="none" stroke="#63b8ff" d="M371.8,-220.44C373.08,-220.28 374.35,-220.14 375.61,-220 677.99,-186.94 1047.77,-177.86 1147.06,-175.94"/>
<polygon fill="#63b8ff" stroke="#63b8ff" points="371.33,-216.97 361.88,-221.77 372.26,-223.91 371.33,-216.97"/>
</g>
<!-- Node9 -->
<g id="node9" class="node">
<title>Node9</title>
<g id="a_node9"><a xlink:href="Box3D_8h.html" target="_top" xlink:title=" ">
<polygon fill="#fff0f0" stroke="red" points="143.61,-129 85.61,-129 85.61,-110 143.61,-110 143.61,-129"/>
<text text-anchor="middle" x="114.61" y="-117" font-family="Helvetica,sans-Serif" font-size="10.00">Box3D.h</text>
</a>
</g>
</g>
<!-- Node8&#45;&gt;Node9 -->
<g id="edge10" class="edge">
<title>Node8&#45;&gt;Node9</title>
<path fill="none" stroke="#63b8ff" d="M1136.72,-173.88C1005.4,-174.88 538.74,-174.76 157.61,-129 153.07,-128.46 148.3,-127.7 143.65,-126.86"/>
<polygon fill="#63b8ff" stroke="#63b8ff" points="1137.03,-177.38 1147,-173.8 1136.97,-170.38 1137.03,-177.38"/>
</g>
<!-- Node12 -->
<g id="node10" class="node">
<title>Node12</title>
<g id="a_node10"><a xlink:href="Button_8h.html" target="_top" xlink:title=" ">
<polygon fill="#fff0f0" stroke="red" points="316.61,-74 258.61,-74 258.61,-55 316.61,-55 316.61,-74"/>
<text text-anchor="middle" x="287.61" y="-62" font-family="Helvetica,sans-Serif" font-size="10.00">Button.h</text>
</a>
</g>
</g>
<!-- Node8&#45;&gt;Node12 -->
<g id="edge11" class="edge">
<title>Node8&#45;&gt;Node12</title>
<path fill="none" stroke="#63b8ff" d="M1136.61,-172.95C975.46,-170.34 326.91,-158.05 295.61,-129 280.62,-115.09 283.04,-88.37 285.59,-74.44"/>
<polygon fill="#63b8ff" stroke="#63b8ff" points="1136.87,-176.46 1146.93,-173.12 1136.99,-169.46 1136.87,-176.46"/>
</g>
<!-- Node15 -->
<g id="node11" class="node">
<title>Node15</title>
<g id="a_node11"><a xlink:href="TitleScene_8cpp.html" target="_top" xlink:title=" ">
<polygon fill="white" stroke="#666666" points="331.61,-19 243.61,-19 243.61,0 331.61,0 331.61,-19"/>
<text text-anchor="middle" x="287.61" y="-7" font-family="Helvetica,sans-Serif" font-size="10.00">TitleScene.cpp</text>
</a>
</g>
</g>
<!-- Node8&#45;&gt;Node15 -->
<g id="edge49" class="edge">
<title>Node8&#45;&gt;Node15</title>
<path fill="none" stroke="#63b8ff" d="M1136.69,-172.61C1002.82,-169.1 537.48,-155.11 476.61,-129 432.09,-109.91 437.46,-81.02 396.61,-55 371.26,-38.86 339.08,-26.58 316.28,-19.05"/>
<polygon fill="#63b8ff" stroke="#63b8ff" points="1136.73,-176.11 1146.82,-172.87 1136.91,-169.11 1136.73,-176.11"/>
</g>
<!-- Node16 -->
<g id="node12" class="node">
<title>Node16</title>
<g id="a_node12"><a xlink:href="CircularSaw_8h.html" target="_top" xlink:title=" ">
<polygon fill="#fff0f0" stroke="red" points="621.11,-129 538.11,-129 538.11,-110 621.11,-110 621.11,-129"/>
<text text-anchor="middle" x="579.61" y="-117" font-family="Helvetica,sans-Serif" font-size="10.00">CircularSaw.h</text>
</a>
</g>
</g>
<!-- Node8&#45;&gt;Node16 -->
<g id="edge13" class="edge">
<title>Node8&#45;&gt;Node16</title>
<path fill="none" stroke="#63b8ff" d="M1136.72,-171.59C1049.7,-166.73 820.61,-152.59 630.61,-129 627.58,-128.62 624.45,-128.2 621.31,-127.74"/>
<polygon fill="#63b8ff" stroke="#63b8ff" points="1136.68,-175.09 1146.85,-172.15 1137.06,-168.1 1136.68,-175.09"/>
</g>
<!-- Node19 -->
<g id="node13" class="node">
<title>Node19</title>
<g id="a_node13"><a xlink:href="FadeOutScreen_8h.html" target="_top" xlink:title=" ">
<polygon fill="#fff0f0" stroke="red" points="737.61,-129 639.61,-129 639.61,-110 737.61,-110 737.61,-129"/>
<text text-anchor="middle" x="688.61" y="-117" font-family="Helvetica,sans-Serif" font-size="10.00">FadeOutScreen.h</text>
</a>
</g>
</g>
<!-- Node8&#45;&gt;Node19 -->
<g id="edge14" class="edge">
<title>Node8&#45;&gt;Node19</title>
<path fill="none" stroke="#63b8ff" d="M1136.96,-170.08C1064.37,-163.04 894.18,-146.15 751.61,-129 747.11,-128.46 742.44,-127.87 737.77,-127.27"/>
<polygon fill="#63b8ff" stroke="#63b8ff" points="1136.66,-173.57 1146.95,-171.05 1137.33,-166.6 1136.66,-173.57"/>
</g>
<!-- Node21 -->
<g id="node14" class="node">
<title>Node21</title>
<g id="a_node14"><a xlink:href="GameOverManager_8h.html" target="_top" xlink:title=" ">
<polygon fill="#fff0f0" stroke="red" points="786.61,-74 666.61,-74 666.61,-55 786.61,-55 786.61,-74"/>
<text text-anchor="middle" x="726.61" y="-62" font-family="Helvetica,sans-Serif" font-size="10.00">GameOverManager.h</text>
</a>
</g>
</g>
<!-- Node8&#45;&gt;Node21 -->
<g id="edge16" class="edge">
<title>Node8&#45;&gt;Node21</title>
<path fill="none" stroke="#63b8ff" d="M1136.78,-172.53C1052.98,-169.75 846.66,-159.88 785.61,-129 760.63,-116.37 740.8,-88.57 731.82,-74.31"/>
<polygon fill="#63b8ff" stroke="#63b8ff" points="1136.73,-176.03 1146.84,-172.84 1136.95,-169.03 1136.73,-176.03"/>
</g>
<!-- Node23 -->
<g id="node15" class="node">
<title>Node23</title>
<g id="a_node15"><a xlink:href="GameOverZone_8h.html" target="_top" xlink:title=" ">
<polygon fill="#fff0f0" stroke="red" points="897.11,-129 794.11,-129 794.11,-110 897.11,-110 897.11,-129"/>
<text text-anchor="middle" x="845.61" y="-117" font-family="Helvetica,sans-Serif" font-size="10.00">GameOverZone.h</text>
</a>
</g>
</g>
<!-- Node8&#45;&gt;Node23 -->
<g id="edge17" class="edge">
<title>Node8&#45;&gt;Node23</title>
<path fill="none" stroke="#63b8ff" d="M1136.8,-167.7C1078.81,-158.3 964.09,-139.7 897.26,-128.87"/>
<polygon fill="#63b8ff" stroke="#63b8ff" points="1136.52,-171.2 1146.95,-169.34 1137.64,-164.29 1136.52,-171.2"/>
</g>
<!-- Node25 -->
<g id="node16" class="node">
<title>Node25</title>
<g id="a_node16"><a xlink:href="Goal_8h.html" target="_top" xlink:title=" ">
<polygon fill="#fff0f0" stroke="red" points="963.61,-129 915.61,-129 915.61,-110 963.61,-110 963.61,-129"/>
<text text-anchor="middle" x="939.61" y="-117" font-family="Helvetica,sans-Serif" font-size="10.00">Goal.h</text>
</a>
</g>
</g>
<!-- Node8&#45;&gt;Node25 -->
<g id="edge18" class="edge">
<title>Node8&#45;&gt;Node25</title>
<path fill="none" stroke="#63b8ff" d="M1137.15,-165.98C1097.11,-157.41 1030.04,-142.78 972.61,-129 969.73,-128.31 966.72,-127.56 963.73,-126.81"/>
<polygon fill="#63b8ff" stroke="#63b8ff" points="1136.46,-169.41 1146.97,-168.08 1137.92,-162.57 1136.46,-169.41"/>
</g>
<!-- Node27 -->
<g id="node17" class="node">
<title>Node27</title>
<g id="a_node17"><a xlink:href="HPViewer_8h.html" target="_top" xlink:title=" ">
<polygon fill="#fff0f0" stroke="red" points="1355.61,-129 1283.61,-129 1283.61,-110 1355.61,-110 1355.61,-129"/>
<text text-anchor="middle" x="1319.61" y="-117" font-family="Helvetica,sans-Serif" font-size="10.00">HPViewer.h</text>
</a>
</g>
</g>
<!-- Node8&#45;&gt;Node27 -->
<g id="edge19" class="edge">
<title>Node8&#45;&gt;Node27</title>
<path fill="none" stroke="#63b8ff" d="M1205.75,-161.55C1233.05,-151.71 1271.11,-137.98 1295.56,-129.17"/>
<polygon fill="#63b8ff" stroke="#63b8ff" points="1204.44,-158.3 1196.22,-164.98 1206.82,-164.89 1204.44,-158.3"/>
</g>
<!-- Node29 -->
<g id="node18" class="node">
<title>Node29</title>
<g id="a_node18"><a xlink:href="Player_8h.html" target="_top" xlink:title=" ">
<polygon fill="#fff0f0" stroke="red" points="1283.61,-74 1227.61,-74 1227.61,-55 1283.61,-55 1283.61,-74"/>
<text text-anchor="middle" x="1255.61" y="-62" font-family="Helvetica,sans-Serif" font-size="10.00">Player.h</text>
</a>
</g>
</g>
<!-- Node8&#45;&gt;Node29 -->
<g id="edge29" class="edge">
<title>Node8&#45;&gt;Node29</title>
<path fill="none" stroke="#63b8ff" d="M1200.09,-159.98C1212.84,-152.45 1227.21,-141.96 1236.61,-129 1248.89,-112.04 1253.31,-87.1 1254.84,-74.1"/>
<polygon fill="#63b8ff" stroke="#63b8ff" points="1198.22,-157.01 1191.19,-164.93 1201.63,-163.13 1198.22,-157.01"/>
</g>
<!-- Node31 -->
<g id="node19" class="node">
<title>Node31</title>
<g id="a_node19"><a xlink:href="HighlightEnemy_8h.html" target="_top" xlink:title=" ">
<polygon fill="white" stroke="#666666" points="1591.61,-129 1489.61,-129 1489.61,-110 1591.61,-110 1591.61,-129"/>
<text text-anchor="middle" x="1540.61" y="-117" font-family="Helvetica,sans-Serif" font-size="10.00">HighlightEnemy.h</text>
</a>
</g>
</g>
<!-- Node8&#45;&gt;Node31 -->
<g id="edge21" class="edge">
<title>Node8&#45;&gt;Node31</title>
<path fill="none" stroke="#63b8ff" d="M1208.44,-168.34C1274.1,-158.88 1413.85,-138.76 1489.47,-127.86"/>
<polygon fill="#63b8ff" stroke="#63b8ff" points="1207.59,-164.93 1198.19,-169.82 1208.59,-171.85 1207.59,-164.93"/>
</g>
<!-- Node32 -->
<g id="node20" class="node">
<title>Node32</title>
<g id="a_node20"><a xlink:href="JumpController_8h.html" target="_top" xlink:title=" ">
<polygon fill="#fff0f0" stroke="red" points="1471.61,-129 1373.61,-129 1373.61,-110 1471.61,-110 1471.61,-129"/>
<text text-anchor="middle" x="1422.61" y="-117" font-family="Helvetica,sans-Serif" font-size="10.00">JumpController.h</text>
</a>
</g>
</g>
<!-- Node8&#45;&gt;Node32 -->
<g id="edge22" class="edge">
<title>Node8&#45;&gt;Node32</title>
<path fill="none" stroke="#63b8ff" d="M1208.24,-165.95C1254.2,-156.2 1333.95,-139.29 1382.15,-129.08"/>
<polygon fill="#63b8ff" stroke="#63b8ff" points="1207.48,-162.53 1198.42,-168.03 1208.93,-169.38 1207.48,-162.53"/>
</g>
<!-- Node34 -->
<g id="node21" class="node">
<title>Node34</title>
<g id="a_node21"><a xlink:href="MovingFloor_8h.html" target="_top" xlink:title=" ">
<polygon fill="#fff0f0" stroke="red" points="1695.61,-129 1609.61,-129 1609.61,-110 1695.61,-110 1695.61,-129"/>
<text text-anchor="middle" x="1652.61" y="-117" font-family="Helvetica,sans-Serif" font-size="10.00">MovingFloor.h</text>
</a>
</g>
</g>
<!-- Node8&#45;&gt;Node34 -->
<g id="edge24" class="edge">
<title>Node8&#45;&gt;Node34</title>
<path fill="none" stroke="#63b8ff" d="M1208.35,-170.49C1281.92,-164.15 1455.57,-148.38 1600.61,-129 1603.51,-128.61 1606.5,-128.19 1609.5,-127.74"/>
<polygon fill="#63b8ff" stroke="#63b8ff" points="1207.9,-167.02 1198.24,-171.36 1208.5,-173.99 1207.9,-167.02"/>
</g>
<!-- Node38 -->
<g id="node22" class="node">
<title>Node38</title>
<g id="a_node22"><a xlink:href="Panel_8h.html" target="_top" xlink:title=" ">
<polygon fill="#fff0f0" stroke="red" points="496.61,-74 444.61,-74 444.61,-55 496.61,-55 496.61,-74"/>
<text text-anchor="middle" x="470.61" y="-62" font-family="Helvetica,sans-Serif" font-size="10.00">Panel.h</text>
</a>
</g>
</g>
<!-- Node8&#45;&gt;Node38 -->
<g id="edge25" class="edge">
<title>Node8&#45;&gt;Node38</title>
<path fill="none" stroke="#63b8ff" d="M1136.77,-173.36C1004.35,-172.54 547.59,-166.96 495.61,-129 477.81,-116 472.68,-88.37 471.2,-74.23"/>
<polygon fill="#63b8ff" stroke="#63b8ff" points="1136.78,-176.86 1146.8,-173.42 1136.82,-169.86 1136.78,-176.86"/>
</g>
<!-- Node40 -->
<g id="node23" class="node">
<title>Node40</title>
<g id="a_node23"><a xlink:href="PanelManager_8h.html" target="_top" xlink:title=" ">
<polygon fill="#fff0f0" stroke="red" points="544.61,-19 450.61,-19 450.61,0 544.61,0 544.61,-19"/>
<text text-anchor="middle" x="497.61" y="-7" font-family="Helvetica,sans-Serif" font-size="10.00">PanelManager.h</text>
</a>
</g>
</g>
<!-- Node8&#45;&gt;Node40 -->
<g id="edge27" class="edge">
<title>Node8&#45;&gt;Node40</title>
<path fill="none" stroke="#63b8ff" d="M1136.77,-173.41C1008.41,-172.75 576.64,-167.66 529.61,-129 520.88,-121.83 504.66,-45.27 499.34,-19.16"/>
<polygon fill="#63b8ff" stroke="#63b8ff" points="1136.85,-176.91 1146.87,-173.45 1136.88,-169.91 1136.85,-176.91"/>
</g>
<!-- Node45 -->
<g id="node24" class="node">
<title>Node45</title>
<g id="a_node24"><a xlink:href="PatrolChargerEnemy_8h.html" target="_top" xlink:title=" ">
<polygon fill="#fff0f0" stroke="red" points="1837.61,-129 1713.61,-129 1713.61,-110 1837.61,-110 1837.61,-129"/>
<text text-anchor="middle" x="1775.61" y="-117" font-family="Helvetica,sans-Serif" font-size="10.00">PatrolChargerEnemy.h</text>
</a>
</g>
</g>
<!-- Node8&#45;&gt;Node45 -->
<g id="edge28" class="edge">
<title>Node8&#45;&gt;Node45</title>
<path fill="none" stroke="#63b8ff" d="M1208.33,-170.95C1294.03,-164.75 1518.03,-147.97 1704.61,-129 1707.45,-128.71 1710.35,-128.41 1713.28,-128.09"/>
<polygon fill="#63b8ff" stroke="#63b8ff" points="1207.83,-167.48 1198.11,-171.69 1208.33,-174.46 1207.83,-167.48"/>
</g>
<!-- Node47 -->
<g id="node25" class="node">
<title>Node47</title>
<g id="a_node25"><a xlink:href="QuaternionCamera_8h.html" target="_top" xlink:title=" ">
<polygon fill="#fff0f0" stroke="red" points="1099.61,-129 981.61,-129 981.61,-110 1099.61,-110 1099.61,-129"/>
<text text-anchor="middle" x="1040.61" y="-117" font-family="Helvetica,sans-Serif" font-size="10.00">QuaternionCamera.h</text>
</a>
</g>
</g>
<!-- Node8&#45;&gt;Node47 -->
<g id="edge30" class="edge">
<title>Node8&#45;&gt;Node47</title>
<path fill="none" stroke="#63b8ff" d="M1141.87,-161.16C1117.43,-151.35 1083.86,-137.87 1062.2,-129.17"/>
<polygon fill="#63b8ff" stroke="#63b8ff" points="1140.81,-164.51 1151.4,-164.98 1143.42,-158.01 1140.81,-164.51"/>
</g>
<!-- Node49 -->
<g id="node26" class="node">
<title>Node49</title>
<g id="a_node26"><a xlink:href="RespawnManager_8h.html" target="_top" xlink:title=" ">
<polygon fill="#fff0f0" stroke="red" points="1967.61,-129 1855.61,-129 1855.61,-110 1967.61,-110 1967.61,-129"/>
<text text-anchor="middle" x="1911.61" y="-117" font-family="Helvetica,sans-Serif" font-size="10.00">RespawnManager.h</text>
</a>
</g>
</g>
<!-- Node8&#45;&gt;Node49 -->
<g id="edge32" class="edge">
<title>Node8&#45;&gt;Node49</title>
<path fill="none" stroke="#63b8ff" d="M1208.61,-171.94C1309.48,-167.38 1603.38,-152.91 1846.61,-129 1849.44,-128.72 1852.34,-128.42 1855.26,-128.09"/>
<polygon fill="#63b8ff" stroke="#63b8ff" points="1208.2,-168.45 1198.37,-172.4 1208.51,-175.44 1208.2,-168.45"/>
</g>
<!-- Node51 -->
<g id="node27" class="node">
<title>Node51</title>
<g id="a_node27"><a xlink:href="SampleGame_8h.html" target="_top" xlink:title=" ">
<polygon fill="#fff0f0" stroke="red" points="2077.61,-129 1985.61,-129 1985.61,-110 2077.61,-110 2077.61,-129"/>
<text text-anchor="middle" x="2031.61" y="-117" font-family="Helvetica,sans-Serif" font-size="10.00">SampleGame.h</text>
</a>
</g>
</g>
<!-- Node8&#45;&gt;Node51 -->
<g id="edge33" class="edge">
<title>Node8&#45;&gt;Node51</title>
<path fill="none" stroke="#63b8ff" d="M1208.54,-172.77C1321.74,-170.19 1680.96,-159.95 1976.61,-129 1979.49,-128.7 1982.45,-128.35 1985.43,-127.97"/>
<polygon fill="#63b8ff" stroke="#63b8ff" points="1208.29,-169.27 1198.37,-172.99 1208.44,-176.27 1208.29,-169.27"/>
</g>
<!-- Node52 -->
<g id="node28" class="node">
<title>Node52</title>
<g id="a_node28"><a xlink:href="TheMain_8cpp.html" target="_top" xlink:title=" ">
<polygon fill="white" stroke="#666666" points="2108.11,-74 2029.11,-74 2029.11,-55 2108.11,-55 2108.11,-74"/>
<text text-anchor="middle" x="2068.61" y="-62" font-family="Helvetica,sans-Serif" font-size="10.00">TheMain.cpp</text>
</a>
</g>
</g>
<!-- Node8&#45;&gt;Node52 -->
<g id="edge48" class="edge">
<title>Node8&#45;&gt;Node52</title>
<path fill="none" stroke="#63b8ff" d="M1208.62,-173.12C1374.23,-171.19 2055.81,-161.33 2086.61,-129 2101.15,-113.73 2085.49,-87.61 2075.53,-74.12"/>
<polygon fill="#63b8ff" stroke="#63b8ff" points="1208.43,-169.62 1198.47,-173.23 1208.51,-176.62 1208.43,-169.62"/>
</g>
<!-- Node53 -->
<g id="node29" class="node">
<title>Node53</title>
<g id="a_node29"><a xlink:href="SampleScene_8cpp.html" target="_top" xlink:title=" ">
<polygon fill="white" stroke="#666666" points="2237.11,-129 2134.11,-129 2134.11,-110 2237.11,-110 2237.11,-129"/>
<text text-anchor="middle" x="2185.61" y="-117" font-family="Helvetica,sans-Serif" font-size="10.00">SampleScene.cpp</text>
</a>
</g>
</g>
<!-- Node8&#45;&gt;Node53 -->
<g id="edge35" class="edge">
<title>Node8&#45;&gt;Node53</title>
<path fill="none" stroke="#63b8ff" d="M1208.45,-172.86C1333.96,-170.41 1765.12,-160.1 2119.61,-129 2124.21,-128.6 2128.99,-128.11 2133.77,-127.58"/>
<polygon fill="#63b8ff" stroke="#63b8ff" points="1208.2,-169.37 1198.27,-173.06 1208.33,-176.37 1208.2,-169.37"/>
</g>
<!-- Node54 -->
<g id="node30" class="node">
<title>Node54</title>
<g id="a_node30"><a xlink:href="ScoreItem_8h.html" target="_top" xlink:title=" ">
<polygon fill="#fff0f0" stroke="red" points="2330.11,-129 2255.11,-129 2255.11,-110 2330.11,-110 2330.11,-129"/>
<text text-anchor="middle" x="2292.61" y="-117" font-family="Helvetica,sans-Serif" font-size="10.00">ScoreItem.h</text>
</a>
</g>
</g>
<!-- Node8&#45;&gt;Node54 -->
<g id="edge36" class="edge">
<title>Node8&#45;&gt;Node54</title>
<path fill="none" stroke="#63b8ff" d="M1208.76,-173.85C1345.13,-174.78 1841.25,-174.62 2246.61,-129 2249.35,-128.69 2252.18,-128.31 2255.01,-127.89"/>
<polygon fill="#63b8ff" stroke="#63b8ff" points="1208.5,-170.35 1198.48,-173.77 1208.45,-177.35 1208.5,-170.35"/>
</g>
<!-- Node56 -->
<g id="node31" class="node">
<title>Node56</title>
<g id="a_node31"><a xlink:href="ScoreViewer_8h.html" target="_top" xlink:title=" ">
<polygon fill="#fff0f0" stroke="red" points="2434.61,-129 2348.61,-129 2348.61,-110 2434.61,-110 2434.61,-129"/>
<text text-anchor="middle" x="2391.61" y="-117" font-family="Helvetica,sans-Serif" font-size="10.00">ScoreViewer.h</text>
</a>
</g>
</g>
<!-- Node8&#45;&gt;Node56 -->
<g id="edge37" class="edge">
<title>Node8&#45;&gt;Node56</title>
<path fill="none" stroke="#63b8ff" d="M1208.51,-173.75C1351.63,-174.4 1895.26,-173.62 2339.61,-129 2342.52,-128.71 2345.52,-128.36 2348.53,-127.96"/>
<polygon fill="#63b8ff" stroke="#63b8ff" points="1208.16,-170.25 1198.14,-173.7 1208.13,-177.25 1208.16,-170.25"/>
</g>
<!-- Node58 -->
<g id="node32" class="node">
<title>Node58</title>
<g id="a_node32"><a xlink:href="SeaPlane_8h.html" target="_top" xlink:title=" ">
<polygon fill="#fff0f0" stroke="red" points="2524.11,-129 2453.11,-129 2453.11,-110 2524.11,-110 2524.11,-129"/>
<text text-anchor="middle" x="2488.61" y="-117" font-family="Helvetica,sans-Serif" font-size="10.00">SeaPlane.h</text>
</a>
</g>
</g>
<!-- Node8&#45;&gt;Node58 -->
<g id="edge38" class="edge">
<title>Node8&#45;&gt;Node58</title>
<path fill="none" stroke="#63b8ff" d="M1208.57,-172.98C1388.78,-170.25 2194.69,-156.7 2443.61,-129 2446.61,-128.67 2449.71,-128.24 2452.82,-127.77"/>
<polygon fill="#63b8ff" stroke="#63b8ff" points="1208.27,-169.48 1198.32,-173.13 1208.37,-176.48 1208.27,-169.48"/>
</g>
<!-- Node60 -->
<g id="node33" class="node">
<title>Node60</title>
<g id="a_node33"><a xlink:href="SkySphere_8h.html" target="_top" xlink:title=" ">
<polygon fill="#fff0f0" stroke="red" points="240.11,-74 163.11,-74 163.11,-55 240.11,-55 240.11,-74"/>
<text text-anchor="middle" x="201.61" y="-62" font-family="Helvetica,sans-Serif" font-size="10.00">SkySphere.h</text>
</a>
</g>
</g>
<!-- Node8&#45;&gt;Node60 -->
<g id="edge39" class="edge">
<title>Node8&#45;&gt;Node60</title>
<path fill="none" stroke="#63b8ff" d="M1136.81,-173C980.56,-170.65 362.54,-159.5 281.61,-129 250.41,-117.24 221.89,-88.51 208.94,-74.07"/>
<polygon fill="#63b8ff" stroke="#63b8ff" points="1136.79,-176.5 1146.84,-173.15 1136.89,-169.5 1136.79,-176.5"/>
</g>
<!-- Node62 -->
<g id="node34" class="node">
<title>Node62</title>
<g id="a_node34"><a xlink:href="Slider_8h.html" target="_top" xlink:title=" ">
<polygon fill="#fff0f0" stroke="red" points="388.11,-74 335.11,-74 335.11,-55 388.11,-55 388.11,-74"/>
<text text-anchor="middle" x="361.61" y="-62" font-family="Helvetica,sans-Serif" font-size="10.00">Slider.h</text>
</a>
</g>
</g>
<!-- Node8&#45;&gt;Node62 -->
<g id="edge41" class="edge">
<title>Node8&#45;&gt;Node62</title>
<path fill="none" stroke="#63b8ff" d="M1136.36,-173.02C975.62,-170.71 333.69,-159.61 304.61,-129 286.34,-109.78 321.49,-86.39 344.28,-74.06"/>
<polygon fill="#63b8ff" stroke="#63b8ff" points="1136.62,-176.52 1146.67,-173.16 1136.72,-169.52 1136.62,-176.52"/>
</g>
<!-- Node64 -->
<g id="node35" class="node">
<title>Node64</title>
<g id="a_node35"><a xlink:href="SphericalCamera_8h.html" target="_top" xlink:title=" ">
<polygon fill="#fff0f0" stroke="red" points="1227.11,-129 1118.11,-129 1118.11,-110 1227.11,-110 1227.11,-129"/>
<text text-anchor="middle" x="1172.61" y="-117" font-family="Helvetica,sans-Serif" font-size="10.00">SphericalCamera.h</text>
</a>
</g>
</g>
<!-- Node8&#45;&gt;Node64 -->
<g id="edge43" class="edge">
<title>Node8&#45;&gt;Node64</title>
<path fill="none" stroke="#63b8ff" d="M1172.61,-154.66C1172.61,-145.93 1172.61,-135.99 1172.61,-129.09"/>
<polygon fill="#63b8ff" stroke="#63b8ff" points="1169.11,-154.75 1172.61,-164.75 1176.11,-154.75 1169.11,-154.75"/>
</g>
<!-- Node66 -->
<g id="node36" class="node">
<title>Node66</title>
<g id="a_node36"><a xlink:href="StageEditScene_8cpp.html" target="_top" xlink:title=" ">
<polygon fill="white" stroke="#666666" points="2655.11,-129 2542.11,-129 2542.11,-110 2655.11,-110 2655.11,-129"/>
<text text-anchor="middle" x="2598.61" y="-117" font-family="Helvetica,sans-Serif" font-size="10.00">StageEditScene.cpp</text>
</a>
</g>
</g>
<!-- Node8&#45;&gt;Node66 -->
<g id="edge45" class="edge">
<title>Node8&#45;&gt;Node66</title>
<path fill="none" stroke="#63b8ff" d="M1208.17,-173.61C1364.69,-173.81 2007.86,-171.87 2533.61,-129 2536.33,-128.78 2539.11,-128.52 2541.92,-128.24"/>
<polygon fill="#63b8ff" stroke="#63b8ff" points="1208.16,-170.11 1198.16,-173.59 1208.15,-177.11 1208.16,-170.11"/>
</g>
<!-- Node67 -->
<g id="node37" class="node">
<title>Node67</title>
<g id="a_node37"><a xlink:href="StageManager_8h.html" target="_top" xlink:title=" ">
<polygon fill="#fff0f0" stroke="red" points="145.11,-74 50.11,-74 50.11,-55 145.11,-55 145.11,-74"/>
<text text-anchor="middle" x="97.61" y="-62" font-family="Helvetica,sans-Serif" font-size="10.00">StageManager.h</text>
</a>
</g>
</g>
<!-- Node8&#45;&gt;Node67 -->
<g id="edge46" class="edge">
<title>Node8&#45;&gt;Node67</title>
<path fill="none" stroke="#63b8ff" d="M1136.56,-173.47C987.7,-173.06 420.5,-168.88 246.61,-129 195.08,-117.18 138.88,-88.48 112.65,-74.06"/>
<polygon fill="#63b8ff" stroke="#63b8ff" points="1136.93,-176.97 1146.94,-173.49 1136.94,-169.97 1136.93,-176.97"/>
</g>
<!-- Node69 -->
<g id="node38" class="node">
<title>Node69</title>
<g id="a_node38"><a xlink:href="UIComponent_8h.html" target="_top" xlink:title=" ">
<polygon fill="#fff0f0" stroke="red" points="405.61,-129 313.61,-129 313.61,-110 405.61,-110 405.61,-129"/>
<text text-anchor="middle" x="359.61" y="-117" font-family="Helvetica,sans-Serif" font-size="10.00">UIComponent.h</text>
</a>
</g>
</g>
<!-- Node8&#45;&gt;Node69 -->
<g id="edge50" class="edge">
<title>Node8&#45;&gt;Node69</title>
<path fill="none" stroke="#63b8ff" d="M1136.8,-172.42C1028.49,-168.94 694.83,-156.58 419.61,-129 415.1,-128.55 410.42,-128.01 405.75,-127.42"/>
<polygon fill="#63b8ff" stroke="#63b8ff" points="1136.76,-175.92 1146.87,-172.74 1136.98,-168.93 1136.76,-175.92"/>
</g>
<!-- Node71 -->
<g id="node39" class="node">
<title>Node71</title>
<g id="a_node39"><a xlink:href="mtgb_8cpp.html" target="_top" xlink:title=" ">
<polygon fill="white" stroke="#666666" points="2735.61,-129 2673.61,-129 2673.61,-110 2735.61,-110 2735.61,-129"/>
<text text-anchor="middle" x="2704.61" y="-117" font-family="Helvetica,sans-Serif" font-size="10.00">mtgb.cpp</text>
</a>
</g>
</g>
<!-- Node8&#45;&gt;Node71 -->
<g id="edge54" class="edge">
<title>Node8&#45;&gt;Node71</title>
<path fill="none" stroke="#63b8ff" d="M1208.33,-173.31C1406.22,-172.09 2369.64,-164.45 2664.61,-129 2667.43,-128.66 2670.34,-128.22 2673.25,-127.72"/>
<polygon fill="#63b8ff" stroke="#63b8ff" points="1208.17,-169.81 1198.19,-173.37 1208.22,-176.81 1208.17,-169.81"/>
</g>
<!-- Node12&#45;&gt;Node15 -->
<g id="edge12" class="edge">
<title>Node12&#45;&gt;Node15</title>
<path fill="none" stroke="#63b8ff" d="M287.61,-44.66C287.61,-35.93 287.61,-25.99 287.61,-19.09"/>
<polygon fill="#63b8ff" stroke="#63b8ff" points="284.11,-44.75 287.61,-54.75 291.11,-44.75 284.11,-44.75"/>
</g>
<!-- Node19&#45;&gt;Node21 -->
<g id="edge15" class="edge">
<title>Node19&#45;&gt;Node21</title>
<path fill="none" stroke="#63b8ff" d="M700.87,-101.39C707.41,-92.27 715.17,-81.45 720.45,-74.09"/>
<polygon fill="#63b8ff" stroke="#63b8ff" points="697.86,-99.58 694.88,-109.75 703.55,-103.66 697.86,-99.58"/>
</g>
<!-- Node27&#45;&gt;Node29 -->
<g id="edge20" class="edge">
<title>Node27&#45;&gt;Node29</title>
<path fill="none" stroke="#63b8ff" d="M1301.61,-103.6C1290.15,-94.11 1275.69,-82.13 1266.08,-74.17"/>
<polygon fill="#63b8ff" stroke="#63b8ff" points="1299.39,-106.3 1309.32,-109.98 1303.85,-100.91 1299.39,-106.3"/>
</g>
<!-- Node32&#45;&gt;Node29 -->
<g id="edge23" class="edge">
<title>Node32&#45;&gt;Node29</title>
<path fill="none" stroke="#63b8ff" d="M1386.14,-106.93C1354.95,-97.03 1310.77,-83.01 1282.65,-74.08"/>
<polygon fill="#63b8ff" stroke="#63b8ff" points="1385.18,-110.3 1395.77,-109.98 1387.3,-103.62 1385.18,-110.3"/>
</g>
<!-- Node38&#45;&gt;Node40 -->
<g id="edge26" class="edge">
<title>Node38&#45;&gt;Node40</title>
<path fill="none" stroke="#63b8ff" d="M479.61,-45.82C484.2,-36.82 489.56,-26.29 493.23,-19.09"/>
<polygon fill="#63b8ff" stroke="#63b8ff" points="476.48,-44.25 475.06,-54.75 482.72,-47.43 476.48,-44.25"/>
</g>
<!-- Node47&#45;&gt;Node29 -->
<g id="edge31" class="edge">
<title>Node47&#45;&gt;Node29</title>
<path fill="none" stroke="#63b8ff" d="M1085,-107.56C1127.73,-97.02 1191.05,-81.41 1227.33,-72.47"/>
<polygon fill="#63b8ff" stroke="#63b8ff" points="1084.02,-104.19 1075.15,-109.98 1085.7,-110.99 1084.02,-104.19"/>
</g>
<!-- Node51&#45;&gt;Node52 -->
<g id="edge34" class="edge">
<title>Node51&#45;&gt;Node52</title>
<path fill="none" stroke="#63b8ff" d="M2043.55,-101.39C2049.92,-92.27 2057.47,-81.45 2062.61,-74.09"/>
<polygon fill="#63b8ff" stroke="#63b8ff" points="2040.57,-99.55 2037.72,-109.75 2046.31,-103.55 2040.57,-99.55"/>
</g>
<!-- Node60&#45;&gt;Node15 -->
<g id="edge40" class="edge">
<title>Node60&#45;&gt;Node15</title>
<path fill="none" stroke="#63b8ff" d="M224.01,-49.7C239.67,-40.04 260.11,-27.44 273.54,-19.17"/>
<polygon fill="#63b8ff" stroke="#63b8ff" points="222.1,-46.76 215.42,-54.98 225.77,-52.72 222.1,-46.76"/>
</g>
<!-- Node62&#45;&gt;Node15 -->
<g id="edge42" class="edge">
<title>Node62&#45;&gt;Node15</title>
<path fill="none" stroke="#63b8ff" d="M341.57,-49.15C328.2,-39.57 311.05,-27.29 299.71,-19.17"/>
<polygon fill="#63b8ff" stroke="#63b8ff" points="339.55,-52.01 349.72,-54.98 343.62,-46.32 339.55,-52.01"/>
</g>
<!-- Node64&#45;&gt;Node29 -->
<g id="edge44" class="edge">
<title>Node64&#45;&gt;Node29</title>
<path fill="none" stroke="#63b8ff" d="M1194.65,-104.42C1209.71,-94.81 1229.19,-82.37 1242.03,-74.17"/>
<polygon fill="#63b8ff" stroke="#63b8ff" points="1192.49,-101.65 1185.94,-109.98 1196.25,-107.55 1192.49,-101.65"/>
</g>
<!-- Node67&#45;&gt;Node15 -->
<g id="edge47" class="edge">
<title>Node67&#45;&gt;Node15</title>
<path fill="none" stroke="#63b8ff" d="M138.17,-52.18C173.71,-42.27 224.57,-28.08 256.84,-19.08"/>
<polygon fill="#63b8ff" stroke="#63b8ff" points="136.82,-48.93 128.13,-54.98 138.71,-55.67 136.82,-48.93"/>
</g>
<!-- Node69&#45;&gt;Node12 -->
<g id="edge51" class="edge">
<title>Node69&#45;&gt;Node12</title>
<path fill="none" stroke="#63b8ff" d="M339.74,-103.88C326.78,-94.34 310.31,-82.21 299.38,-74.17"/>
<polygon fill="#63b8ff" stroke="#63b8ff" points="337.91,-106.88 348.04,-109.98 342.06,-101.24 337.91,-106.88"/>
</g>
<!-- Node69&#45;&gt;Node38 -->
<g id="edge52" class="edge">
<title>Node69&#45;&gt;Node38</title>
<path fill="none" stroke="#63b8ff" d="M386.55,-105.63C407,-95.87 434.55,-82.71 452.45,-74.17"/>
<polygon fill="#63b8ff" stroke="#63b8ff" points="384.96,-102.52 377.44,-109.98 387.97,-108.83 384.96,-102.52"/>
</g>
<!-- Node69&#45;&gt;Node62 -->
<g id="edge53" class="edge">
<title>Node69&#45;&gt;Node62</title>
<path fill="none" stroke="#63b8ff" d="M360.32,-99.66C360.65,-90.93 361.02,-80.99 361.28,-74.09"/>
<polygon fill="#63b8ff" stroke="#63b8ff" points="356.82,-99.62 359.94,-109.75 363.81,-99.89 356.82,-99.62"/>
</g>
<!-- Node72&#45;&gt;Node5 -->
<g id="edge59" class="edge">
<title>Node72&#45;&gt;Node5</title>
<path fill="none" stroke="#63b8ff" d="M788.23,-283.45C720.56,-282.46 568.78,-275.89 447.61,-239 404.57,-225.9 358.61,-198.31 336.7,-184.21"/>
<polygon fill="#63b8ff" stroke="#63b8ff" points="788.31,-286.95 798.34,-283.57 788.39,-279.95 788.31,-286.95"/>
</g>
<!-- Node72&#45;&gt;Node8 -->
<g id="edge65" class="edge">
<title>Node72&#45;&gt;Node8</title>
<path fill="none" stroke="#63b8ff" d="M858.74,-283.42C934.49,-282.54 1109.84,-276.39 1153.61,-239 1169.88,-225.1 1172.53,-197.88 1172.77,-184.03"/>
<polygon fill="#63b8ff" stroke="#63b8ff" points="858.71,-279.92 848.74,-283.52 858.77,-286.92 858.71,-279.92"/>
</g>
<!-- Node73 -->
<g id="node41" class="node">
<title>Node73</title>
<g id="a_node41"><a xlink:href="CircleDetector_8cpp.html" target="_top" xlink:title=" ">
<polygon fill="white" stroke="#666666" points="1052.61,-239 946.61,-239 946.61,-220 1052.61,-220 1052.61,-239"/>
<text text-anchor="middle" x="999.61" y="-227" font-family="Helvetica,sans-Serif" font-size="10.00">CircleDetector.cpp</text>
</a>
</g>
</g>
<!-- Node72&#45;&gt;Node73 -->
<g id="edge57" class="edge">
<title>Node72&#45;&gt;Node73</title>
<path fill="none" stroke="#63b8ff" d="M858.53,-272.98C891.56,-263.04 940.53,-248.29 971.23,-239.05"/>
<polygon fill="#63b8ff" stroke="#63b8ff" points="857.39,-269.67 848.82,-275.91 859.41,-276.37 857.39,-269.67"/>
</g>
<!-- Node74 -->
<g id="node42" class="node">
<title>Node74</title>
<g id="a_node42"><a xlink:href="Collider_8cpp.html" target="_top" xlink:title=" ">
<polygon fill="white" stroke="#666666" points="1144.61,-239 1070.61,-239 1070.61,-220 1144.61,-220 1144.61,-239"/>
<text text-anchor="middle" x="1107.61" y="-227" font-family="Helvetica,sans-Serif" font-size="10.00">Collider.cpp</text>
</a>
</g>
</g>
<!-- Node72&#45;&gt;Node74 -->
<g id="edge58" class="edge">
<title>Node72&#45;&gt;Node74</title>
<path fill="none" stroke="#63b8ff" d="M858.93,-276.91C912.92,-266.83 1015.49,-247.69 1070.52,-237.42"/>
<polygon fill="#63b8ff" stroke="#63b8ff" points="858,-273.52 848.81,-278.8 859.28,-280.4 858,-273.52"/>
</g>
<!-- Node75 -->
<g id="node43" class="node">
<title>Node75</title>
<g id="a_node43"><a xlink:href="ImageRenderer_8cpp.html" target="_top" xlink:title=" ">
<polygon fill="white" stroke="#666666" points="567.11,-239 456.11,-239 456.11,-220 567.11,-220 567.11,-239"/>
<text text-anchor="middle" x="511.61" y="-227" font-family="Helvetica,sans-Serif" font-size="10.00">ImageRenderer.cpp</text>
</a>
</g>
</g>
<!-- Node72&#45;&gt;Node75 -->
<g id="edge60" class="edge">
<title>Node72&#45;&gt;Node75</title>
<path fill="none" stroke="#63b8ff" d="M788.58,-277.55C733.25,-268.15 625.38,-249.83 561.82,-239.03"/>
<polygon fill="#63b8ff" stroke="#63b8ff" points="788.16,-281.03 798.6,-279.25 789.33,-274.13 788.16,-281.03"/>
</g>
<!-- Node76 -->
<g id="node44" class="node">
<title>Node76</title>
<g id="a_node44"><a xlink:href="MeshRenderer_8cpp.html" target="_top" xlink:title=" ">
<polygon fill="white" stroke="#666666" points="692.11,-239 585.11,-239 585.11,-220 692.11,-220 692.11,-239"/>
<text text-anchor="middle" x="638.61" y="-227" font-family="Helvetica,sans-Serif" font-size="10.00">MeshRenderer.cpp</text>
</a>
</g>
</g>
<!-- Node72&#45;&gt;Node76 -->
<g id="edge61" class="edge">
<title>Node72&#45;&gt;Node76</title>
<path fill="none" stroke="#63b8ff" d="M788.55,-273.46C753.86,-263.52 701.32,-248.47 668.53,-239.07"/>
<polygon fill="#63b8ff" stroke="#63b8ff" points="787.69,-276.85 798.27,-276.24 789.62,-270.12 787.69,-276.85"/>
</g>
<!-- Node77 -->
<g id="node45" class="node">
<title>Node77</title>
<g id="a_node45"><a xlink:href="RenderSystem_8cpp.html" target="_top" xlink:title=" ">
<polygon fill="white" stroke="#666666" points="818.61,-239 710.61,-239 710.61,-220 818.61,-220 818.61,-239"/>
<text text-anchor="middle" x="764.61" y="-227" font-family="Helvetica,sans-Serif" font-size="10.00">RenderSystem.cpp</text>
</a>
</g>
</g>
<!-- Node72&#45;&gt;Node77 -->
<g id="edge62" class="edge">
<title>Node72&#45;&gt;Node77</title>
<path fill="none" stroke="#63b8ff" d="M806.4,-268.04C795.93,-258.64 782.95,-246.98 774.26,-239.17"/>
<polygon fill="#63b8ff" stroke="#63b8ff" points="804.35,-270.91 814.13,-274.98 809.03,-265.7 804.35,-270.91"/>
</g>
<!-- Node78 -->
<g id="node46" class="node">
<title>Node78</title>
<g id="a_node46"><a xlink:href="TerrainReader_8h.html" target="_top" xlink:title=" ">
<polygon fill="#fff0f0" stroke="red" points="928.61,-239 836.61,-239 836.61,-220 928.61,-220 928.61,-239"/>
<text text-anchor="middle" x="882.61" y="-227" font-family="Helvetica,sans-Serif" font-size="10.00">TerrainReader.h</text>
</a>
</g>
</g>
<!-- Node72&#45;&gt;Node78 -->
<g id="edge63" class="edge">
<title>Node72&#45;&gt;Node78</title>
<path fill="none" stroke="#63b8ff" d="M840.81,-268.04C851.28,-258.64 864.26,-246.98 872.95,-239.17"/>
<polygon fill="#63b8ff" stroke="#63b8ff" points="838.19,-265.7 833.08,-274.98 842.86,-270.91 838.19,-265.7"/>
</g>
<!-- Node80 -->
<g id="node47" class="node">
<title>Node80</title>
<g id="a_node47"><a xlink:href="TextRenderer_8cpp.html" target="_top" xlink:title=" ">
<polygon fill="white" stroke="#666666" points="1302.11,-239 1201.11,-239 1201.11,-220 1302.11,-220 1302.11,-239"/>
<text text-anchor="middle" x="1251.61" y="-227" font-family="Helvetica,sans-Serif" font-size="10.00">TextRenderer.cpp</text>
</a>
</g>
</g>
<!-- Node72&#45;&gt;Node80 -->
<g id="edge64" class="edge">
<title>Node72&#45;&gt;Node80</title>
<path fill="none" stroke="#63b8ff" d="M858.79,-279.28C923.63,-271.49 1066.38,-254.23 1186.61,-239 1191.23,-238.41 1196.05,-237.8 1200.87,-237.17"/>
<polygon fill="#63b8ff" stroke="#63b8ff" points="858.21,-275.83 848.7,-280.49 859.05,-282.78 858.21,-275.83"/>
</g>
<!-- Node81&#45;&gt;Node8 -->
<g id="edge73" class="edge">
<title>Node81&#45;&gt;Node8</title>
<path fill="none" stroke="#63b8ff" d="M1357.9,-266.34C1347.34,-252.06 1330.58,-232.17 1311.61,-220 1275.88,-197.09 1227.4,-185.11 1198.15,-179.56"/>
<polygon fill="#63b8ff" stroke="#63b8ff" points="1355.26,-268.66 1363.91,-274.78 1360.96,-264.6 1355.26,-268.66"/>
</g>
<!-- Node81&#45;&gt;Node80 -->
<g id="edge68" class="edge">
<title>Node81&#45;&gt;Node80</title>
<path fill="none" stroke="#63b8ff" d="M1341.25,-270.77C1319.49,-260.99 1290.02,-247.75 1270.91,-239.17"/>
<polygon fill="#63b8ff" stroke="#63b8ff" points="1340.09,-274.08 1350.65,-274.98 1342.96,-267.69 1340.09,-274.08"/>
</g>
<!-- Node82 -->
<g id="node49" class="node">
<title>Node82</title>
<g id="a_node49"><a xlink:href="TextRenderer_8gen_8cpp.html" target="_top" xlink:title=" ">
<polygon fill="white" stroke="#666666" points="1600.61,-239 1478.61,-239 1478.61,-220 1600.61,-220 1600.61,-239"/>
<text text-anchor="middle" x="1539.61" y="-227" font-family="Helvetica,sans-Serif" font-size="10.00">TextRenderer.gen.cpp</text>
</a>
</g>
</g>
<!-- Node81&#45;&gt;Node82 -->
<g id="edge69" class="edge">
<title>Node81&#45;&gt;Node82</title>
<path fill="none" stroke="#63b8ff" d="M1406.73,-271.93C1438.48,-262.03 1483.46,-248.01 1512.08,-239.08"/>
<polygon fill="#63b8ff" stroke="#63b8ff" points="1405.42,-268.67 1396.92,-274.98 1407.51,-275.35 1405.42,-268.67"/>
</g>
<!-- Node83 -->
<g id="node50" class="node">
<title>Node83</title>
<g id="a_node50"><a xlink:href="TextRendererCP_8h.html" target="_top" xlink:title=" ">
<polygon fill="#fff0f0" stroke="red" points="1460.11,-239 1359.11,-239 1359.11,-220 1460.11,-220 1460.11,-239"/>
<text text-anchor="middle" x="1409.61" y="-227" font-family="Helvetica,sans-Serif" font-size="10.00">TextRendererCP.h</text>
</a>
</g>
</g>
<!-- Node81&#45;&gt;Node83 -->
<g id="edge70" class="edge">
<title>Node81&#45;&gt;Node83</title>
<path fill="none" stroke="#63b8ff" d="M1376.35,-266.1C1382.43,-257.04 1390.9,-246.37 1397.99,-239.09"/>
<polygon fill="#63b8ff" stroke="#63b8ff" points="1373.29,-264.39 1371.04,-274.75 1379.26,-268.06 1373.29,-264.39"/>
</g>
<!-- Node83&#45;&gt;Node8 -->
<g id="edge72" class="edge">
<title>Node83&#45;&gt;Node8</title>
<path fill="none" stroke="#63b8ff" d="M1361.71,-217.79C1312.33,-206.75 1237.21,-189.95 1198.17,-181.22"/>
<polygon fill="#63b8ff" stroke="#63b8ff" points="1361,-221.22 1371.53,-219.98 1362.53,-214.39 1361,-221.22"/>
</g>
<!-- Node83&#45;&gt;Node81 -->
<g id="edge71" class="edge">
<title>Node83&#45;&gt;Node81</title>
<path fill="none" stroke="#63b8ff" d="M1402.99,-247.7C1396.95,-256.73 1388.49,-267.42 1381.38,-274.75"/>
<polygon fill="#63b8ff" stroke="#63b8ff" points="1406.03,-249.45 1408.25,-239.09 1400.05,-245.8 1406.03,-249.45"/>
</g>
</g>
</svg>
