<?xml version="1.0" encoding="UTF-8" standalone="no"?>
<!DOCTYPE svg PUBLIC "-//W3C//DTD SVG 1.1//EN"
 "http://www.w3.org/Graphics/SVG/1.1/DTD/svg11.dtd">
<!-- Generated by graphviz version 2.43.0 (0)
 -->
<!-- Title: TitleScene.h Pages: 1 -->
<svg width="488pt" height="247pt"
 viewBox="0.00 0.00 487.50 247.00" xmlns="http://www.w3.org/2000/svg" xmlns:xlink="http://www.w3.org/1999/xlink">
<g id="graph0" class="graph" transform="scale(1 1) rotate(0) translate(4 243)">
<title>TitleScene.h</title>
<!-- Node1 -->
<g id="node1" class="node">
<title>Node1</title>
<g id="a_node1"><a xlink:title=" ">
<polygon fill="#999999" stroke="#666666" points="222.5,-239 145.5,-239 145.5,-220 222.5,-220 222.5,-239"/>
<text text-anchor="middle" x="184" y="-227" font-family="Helvetica,sans-Serif" font-size="10.00">TitleScene.h</text>
</a>
</g>
</g>
<!-- Node2 -->
<g id="node2" class="node">
<title>Node2</title>
<g id="a_node2"><a xlink:href="GameScene_8h.html" target="_top" xlink:title=" ">
<polygon fill="white" stroke="#666666" points="226,-184 142,-184 142,-165 226,-165 226,-184"/>
<text text-anchor="middle" x="184" y="-172" font-family="Helvetica,sans-Serif" font-size="10.00">GameScene.h</text>
</a>
</g>
</g>
<!-- Node1&#45;&gt;Node2 -->
<g id="edge1" class="edge">
<title>Node1&#45;&gt;Node2</title>
<path fill="none" stroke="#63b8ff" d="M184,-219.75C184,-212.8 184,-202.85 184,-194.13"/>
<polygon fill="#63b8ff" stroke="#63b8ff" points="187.5,-194.09 184,-184.09 180.5,-194.09 187.5,-194.09"/>
</g>
<!-- Node3 -->
<g id="node3" class="node">
<title>Node3</title>
<g id="a_node3"><a xlink:href="cmtgb_8h.html" target="_top" xlink:title=" ">
<polygon fill="white" stroke="#666666" points="56,-129 0,-129 0,-110 56,-110 56,-129"/>
<text text-anchor="middle" x="28" y="-117" font-family="Helvetica,sans-Serif" font-size="10.00">cmtgb.h</text>
</a>
</g>
</g>
<!-- Node2&#45;&gt;Node3 -->
<g id="edge2" class="edge">
<title>Node2&#45;&gt;Node3</title>
<path fill="none" stroke="#63b8ff" d="M158.94,-164.98C132.97,-156.16 92.19,-142.31 63.04,-132.41"/>
<polygon fill="#63b8ff" stroke="#63b8ff" points="63.85,-128.99 53.26,-129.08 61.6,-135.61 63.85,-128.99"/>
</g>
<!-- Node5 -->
<g id="node5" class="node">
<title>Node5</title>
<g id="a_node5"><a xlink:href="Handlers_8h.html" target="_top" xlink:title=" ">
<polygon fill="white" stroke="#666666" points="118.5,-74 49.5,-74 49.5,-55 118.5,-55 118.5,-74"/>
<text text-anchor="middle" x="84" y="-62" font-family="Helvetica,sans-Serif" font-size="10.00">Handlers.h</text>
</a>
</g>
</g>
<!-- Node2&#45;&gt;Node5 -->
<g id="edge7" class="edge">
<title>Node2&#45;&gt;Node5</title>
<path fill="none" stroke="#63b8ff" d="M157.49,-164.98C139.69,-157.98 117.02,-146.35 103,-129 92.72,-116.27 88,-98.09 85.83,-84.45"/>
<polygon fill="#63b8ff" stroke="#63b8ff" points="89.27,-83.75 84.55,-74.27 82.32,-84.63 89.27,-83.75"/>
</g>
<!-- Node6 -->
<g id="node6" class="node">
<title>Node6</title>
<g id="a_node6"><a xlink:title=" ">
<polygon fill="#e0e0e0" stroke="#999999" points="144,-129 112,-129 112,-110 144,-110 144,-129"/>
<text text-anchor="middle" x="128" y="-117" font-family="Helvetica,sans-Serif" font-size="10.00">list</text>
</a>
</g>
</g>
<!-- Node2&#45;&gt;Node6 -->
<g id="edge6" class="edge">
<title>Node2&#45;&gt;Node6</title>
<path fill="none" stroke="#63b8ff" d="M175,-164.98C166.81,-157.23 154.49,-145.58 144.53,-136.14"/>
<polygon fill="#63b8ff" stroke="#63b8ff" points="146.83,-133.5 137.16,-129.17 142.02,-138.59 146.83,-133.5"/>
</g>
<!-- Node7 -->
<g id="node7" class="node">
<title>Node7</title>
<g id="a_node7"><a xlink:title=" ">
<polygon fill="#e0e0e0" stroke="#999999" points="206,-129 162,-129 162,-110 206,-110 206,-129"/>
<text text-anchor="middle" x="184" y="-117" font-family="Helvetica,sans-Serif" font-size="10.00">string</text>
</a>
</g>
</g>
<!-- Node2&#45;&gt;Node7 -->
<g id="edge8" class="edge">
<title>Node2&#45;&gt;Node7</title>
<path fill="none" stroke="#63b8ff" d="M184,-164.75C184,-157.8 184,-147.85 184,-139.13"/>
<polygon fill="#63b8ff" stroke="#63b8ff" points="187.5,-139.09 184,-129.09 180.5,-139.09 187.5,-139.09"/>
</g>
<!-- Node8 -->
<g id="node8" class="node">
<title>Node8</title>
<g id="a_node8"><a xlink:title=" ">
<polygon fill="#e0e0e0" stroke="#999999" points="271.5,-129 224.5,-129 224.5,-110 271.5,-110 271.5,-129"/>
<text text-anchor="middle" x="248" y="-117" font-family="Helvetica,sans-Serif" font-size="10.00">vector</text>
</a>
</g>
</g>
<!-- Node2&#45;&gt;Node8 -->
<g id="edge9" class="edge">
<title>Node2&#45;&gt;Node8</title>
<path fill="none" stroke="#63b8ff" d="M194.28,-164.98C203.84,-157.07 218.28,-145.11 229.78,-135.58"/>
<polygon fill="#63b8ff" stroke="#63b8ff" points="232.06,-138.24 237.53,-129.17 227.6,-132.85 232.06,-138.24"/>
</g>
<!-- Node9 -->
<g id="node9" class="node">
<title>Node9</title>
<g id="a_node9"><a xlink:title=" ">
<polygon fill="#e0e0e0" stroke="#999999" points="358.5,-129 289.5,-129 289.5,-110 358.5,-110 358.5,-129"/>
<text text-anchor="middle" x="324" y="-117" font-family="Helvetica,sans-Serif" font-size="10.00">type_traits</text>
</a>
</g>
</g>
<!-- Node2&#45;&gt;Node9 -->
<g id="edge10" class="edge">
<title>Node2&#45;&gt;Node9</title>
<path fill="none" stroke="#63b8ff" d="M206.49,-164.98C229.52,-156.27 265.54,-142.63 291.63,-132.75"/>
<polygon fill="#63b8ff" stroke="#63b8ff" points="292.98,-135.98 301.1,-129.17 290.51,-129.44 292.98,-135.98"/>
</g>
<!-- Node10 -->
<g id="node10" class="node">
<title>Node10</title>
<g id="a_node10"><a xlink:href="GameObjectTag_8h.html" target="_top" xlink:title=" ">
<polygon fill="white" stroke="#666666" points="479.5,-129 376.5,-129 376.5,-110 479.5,-110 479.5,-129"/>
<text text-anchor="middle" x="428" y="-117" font-family="Helvetica,sans-Serif" font-size="10.00">GameObjectTag.h</text>
</a>
</g>
</g>
<!-- Node2&#45;&gt;Node10 -->
<g id="edge11" class="edge">
<title>Node2&#45;&gt;Node10</title>
<path fill="none" stroke="#63b8ff" d="M223.2,-164.98C265.41,-155.82 332.65,-141.21 378.48,-131.26"/>
<polygon fill="#63b8ff" stroke="#63b8ff" points="379.46,-134.63 388.49,-129.08 377.97,-127.78 379.46,-134.63"/>
</g>
<!-- Node4 -->
<g id="node4" class="node">
<title>Node4</title>
<g id="a_node4"><a xlink:title=" ">
<polygon fill="#e0e0e0" stroke="#999999" points="77,-19 27,-19 27,0 77,0 77,-19"/>
<text text-anchor="middle" x="52" y="-7" font-family="Helvetica,sans-Serif" font-size="10.00">cstdint</text>
</a>
</g>
</g>
<!-- Node3&#45;&gt;Node4 -->
<g id="edge3" class="edge">
<title>Node3&#45;&gt;Node4</title>
<path fill="none" stroke="#63b8ff" d="M29.66,-109.85C32.03,-97.61 36.59,-74.54 41,-55 42.95,-46.35 45.29,-36.81 47.3,-28.78"/>
<polygon fill="#63b8ff" stroke="#63b8ff" points="50.72,-29.56 49.79,-19.01 43.93,-27.84 50.72,-29.56"/>
</g>
<!-- Node3&#45;&gt;Node5 -->
<g id="edge4" class="edge">
<title>Node3&#45;&gt;Node5</title>
<path fill="none" stroke="#63b8ff" d="M37,-109.98C45.19,-102.23 57.51,-90.58 67.47,-81.14"/>
<polygon fill="#63b8ff" stroke="#63b8ff" points="69.98,-83.59 74.84,-74.17 65.17,-78.5 69.98,-83.59"/>
</g>
<!-- Node5&#45;&gt;Node4 -->
<g id="edge5" class="edge">
<title>Node5&#45;&gt;Node4</title>
<path fill="none" stroke="#63b8ff" d="M78.72,-54.75C74.29,-47.42 67.84,-36.73 62.38,-27.7"/>
<polygon fill="#63b8ff" stroke="#63b8ff" points="65.35,-25.84 57.19,-19.09 59.36,-29.46 65.35,-25.84"/>
</g>
</g>
</svg>
