<?xml version="1.0" encoding="UTF-8" standalone="no"?>
<!DOCTYPE svg PUBLIC "-//W3C//DTD SVG 1.1//EN"
 "http://www.w3.org/Graphics/SVG/1.1/DTD/svg11.dtd">
<!-- Generated by graphviz version 2.43.0 (0)
 -->
<!-- Title: WindowContextUtil.h Pages: 1 -->
<svg width="2303pt" height="258pt"
 viewBox="0.00 0.00 2303.00 258.00" xmlns="http://www.w3.org/2000/svg" xmlns:xlink="http://www.w3.org/1999/xlink">
<g id="graph0" class="graph" transform="scale(1 1) rotate(0) translate(4 254)">
<title>WindowContextUtil.h</title>
<!-- Node1 -->
<g id="node1" class="node">
<title>Node1</title>
<g id="a_node1"><a xlink:title=" ">
<polygon fill="#999999" stroke="#666666" points="1244.5,-250 1124.5,-250 1124.5,-231 1244.5,-231 1244.5,-250"/>
<text text-anchor="middle" x="1184.5" y="-238" font-family="Helvetica,sans-Serif" font-size="10.00">WindowContextUtil.h</text>
</a>
</g>
</g>
<!-- Node2 -->
<g id="node2" class="node">
<title>Node2</title>
<g id="a_node2"><a xlink:href="CameraSystem_8cpp.html" target="_top" xlink:title=" ">
<polygon fill="white" stroke="#666666" points="149.5,-195 37.5,-195 37.5,-176 149.5,-176 149.5,-195"/>
<text text-anchor="middle" x="93.5" y="-183" font-family="Helvetica,sans-Serif" font-size="10.00">CameraSystem.cpp</text>
</a>
</g>
</g>
<!-- Node1&#45;&gt;Node2 -->
<g id="edge1" class="edge">
<title>Node1&#45;&gt;Node2</title>
<path fill="none" stroke="#63b8ff" d="M1114.14,-238.55C947.72,-235.84 516.9,-226.15 158.5,-195 155.67,-194.75 152.76,-194.47 149.84,-194.17"/>
<polygon fill="#63b8ff" stroke="#63b8ff" points="1114.19,-242.05 1124.25,-238.71 1114.3,-235.05 1114.19,-242.05"/>
</g>
<!-- Node3 -->
<g id="node3" class="node">
<title>Node3</title>
<g id="a_node3"><a xlink:href="DXGIResource_8cpp.html" target="_top" xlink:title=" ">
<polygon fill="white" stroke="#666666" points="275,-195 168,-195 168,-176 275,-176 275,-195"/>
<text text-anchor="middle" x="221.5" y="-183" font-family="Helvetica,sans-Serif" font-size="10.00">DXGIResource.cpp</text>
</a>
</g>
</g>
<!-- Node1&#45;&gt;Node3 -->
<g id="edge2" class="edge">
<title>Node1&#45;&gt;Node3</title>
<path fill="none" stroke="#63b8ff" d="M1114.23,-238.05C962.47,-234.48 592.87,-223.38 284.5,-195 281.42,-194.72 278.26,-194.39 275.08,-194.04"/>
<polygon fill="#63b8ff" stroke="#63b8ff" points="1114.26,-241.55 1124.34,-238.29 1114.42,-234.55 1114.26,-241.55"/>
</g>
<!-- Node4 -->
<g id="node4" class="node">
<title>Node4</title>
<g id="a_node4"><a xlink:href="DirectWrite_8cpp.html" target="_top" xlink:title=" ">
<polygon fill="white" stroke="#666666" points="385.5,-195 293.5,-195 293.5,-176 385.5,-176 385.5,-195"/>
<text text-anchor="middle" x="339.5" y="-183" font-family="Helvetica,sans-Serif" font-size="10.00">DirectWrite.cpp</text>
</a>
</g>
</g>
<!-- Node1&#45;&gt;Node4 -->
<g id="edge3" class="edge">
<title>Node1&#45;&gt;Node4</title>
<path fill="none" stroke="#63b8ff" d="M1114.35,-237.83C976.22,-234.05 659.4,-222.86 394.5,-195 391.62,-194.7 388.65,-194.35 385.67,-193.97"/>
<polygon fill="#63b8ff" stroke="#63b8ff" points="1114.29,-241.33 1124.38,-238.1 1114.48,-234.34 1114.29,-241.33"/>
</g>
<!-- Node5 -->
<g id="node5" class="node">
<title>Node5</title>
<g id="a_node5"><a xlink:href="DoubleWindow_8cpp.html" target="_top" xlink:title=" ">
<polygon fill="white" stroke="#666666" points="513.5,-195 403.5,-195 403.5,-176 513.5,-176 513.5,-195"/>
<text text-anchor="middle" x="458.5" y="-183" font-family="Helvetica,sans-Serif" font-size="10.00">DoubleWindow.cpp</text>
</a>
</g>
</g>
<!-- Node1&#45;&gt;Node5 -->
<g id="edge4" class="edge">
<title>Node1&#45;&gt;Node5</title>
<path fill="none" stroke="#63b8ff" d="M1113.9,-236.26C992.73,-230.37 737.45,-216.48 522.5,-195 519.6,-194.71 516.63,-194.39 513.63,-194.05"/>
<polygon fill="#63b8ff" stroke="#63b8ff" points="1113.99,-239.77 1124.15,-236.76 1114.33,-232.78 1113.99,-239.77"/>
</g>
<!-- Node6 -->
<g id="node6" class="node">
<title>Node6</title>
<g id="a_node6"><a xlink:href="ImGuiEditor_8cpp.html" target="_top" xlink:title=" ">
<polygon fill="white" stroke="#666666" points="625.5,-195 531.5,-195 531.5,-176 625.5,-176 625.5,-195"/>
<text text-anchor="middle" x="578.5" y="-183" font-family="Helvetica,sans-Serif" font-size="10.00">ImGuiEditor.cpp</text>
</a>
</g>
</g>
<!-- Node1&#45;&gt;Node6 -->
<g id="edge5" class="edge">
<title>Node1&#45;&gt;Node6</title>
<path fill="none" stroke="#63b8ff" d="M1114,-235.38C1009.21,-228.89 806.25,-214.96 634.5,-195 631.57,-194.66 628.56,-194.28 625.52,-193.88"/>
<polygon fill="#63b8ff" stroke="#63b8ff" points="1113.94,-238.88 1124.14,-236 1114.37,-231.89 1113.94,-238.88"/>
</g>
<!-- Node7 -->
<g id="node7" class="node">
<title>Node7</title>
<g id="a_node7"><a xlink:href="ImGuiRenderer_8cpp.html" target="_top" xlink:title=" ">
<polygon fill="white" stroke="#666666" points="753.5,-195 643.5,-195 643.5,-176 753.5,-176 753.5,-195"/>
<text text-anchor="middle" x="698.5" y="-183" font-family="Helvetica,sans-Serif" font-size="10.00">ImGuiRenderer.cpp</text>
</a>
</g>
</g>
<!-- Node1&#45;&gt;Node7 -->
<g id="edge6" class="edge">
<title>Node1&#45;&gt;Node7</title>
<path fill="none" stroke="#63b8ff" d="M1114.18,-232.67C1030.36,-224.39 886.09,-209.72 762.5,-195 759.61,-194.66 756.64,-194.29 753.65,-193.92"/>
<polygon fill="#63b8ff" stroke="#63b8ff" points="1114.05,-236.17 1124.34,-233.67 1114.73,-229.21 1114.05,-236.17"/>
</g>
<!-- Node8 -->
<g id="node8" class="node">
<title>Node8</title>
<g id="a_node8"><a xlink:href="ImGuizmoManipulator_8cpp.html" target="_top" xlink:title=" ">
<polygon fill="white" stroke="#666666" points="917,-195 772,-195 772,-176 917,-176 917,-195"/>
<text text-anchor="middle" x="844.5" y="-183" font-family="Helvetica,sans-Serif" font-size="10.00">ImGuizmoManipulator.cpp</text>
</a>
</g>
</g>
<!-- Node1&#45;&gt;Node8 -->
<g id="edge7" class="edge">
<title>Node1&#45;&gt;Node8</title>
<path fill="none" stroke="#63b8ff" d="M1119.92,-229.43C1056.08,-219.48 959.47,-204.42 899.27,-195.04"/>
<polygon fill="#63b8ff" stroke="#63b8ff" points="1119.45,-232.9 1129.87,-230.98 1120.53,-225.99 1119.45,-232.9"/>
</g>
<!-- Node9 -->
<g id="node9" class="node">
<title>Node9</title>
<g id="a_node9"><a xlink:href="InputResource_8cpp.html" target="_top" xlink:title=" ">
<polygon fill="white" stroke="#666666" points="1042,-195 935,-195 935,-176 1042,-176 1042,-195"/>
<text text-anchor="middle" x="988.5" y="-183" font-family="Helvetica,sans-Serif" font-size="10.00">InputResource.cpp</text>
</a>
</g>
</g>
<!-- Node1&#45;&gt;Node9 -->
<g id="edge8" class="edge">
<title>Node1&#45;&gt;Node9</title>
<path fill="none" stroke="#63b8ff" d="M1143.12,-228.31C1106.45,-218.39 1053.67,-204.12 1020.24,-195.08"/>
<polygon fill="#63b8ff" stroke="#63b8ff" points="1142.44,-231.75 1153.01,-230.98 1144.27,-225 1142.44,-231.75"/>
</g>
<!-- Node10 -->
<g id="node10" class="node">
<title>Node10</title>
<g id="a_node10"><a xlink:href="Inspector_8cpp.html" target="_top" xlink:title=" ">
<polygon fill="white" stroke="#666666" points="1141,-195 1060,-195 1060,-176 1141,-176 1141,-195"/>
<text text-anchor="middle" x="1100.5" y="-183" font-family="Helvetica,sans-Serif" font-size="10.00">Inspector.cpp</text>
</a>
</g>
</g>
<!-- Node1&#45;&gt;Node10 -->
<g id="edge9" class="edge">
<title>Node1&#45;&gt;Node10</title>
<path fill="none" stroke="#63b8ff" d="M1162.19,-225.42C1146.95,-215.81 1127.23,-203.37 1114.24,-195.17"/>
<polygon fill="#63b8ff" stroke="#63b8ff" points="1160.68,-228.61 1171,-230.98 1164.41,-222.69 1160.68,-228.61"/>
</g>
<!-- Node11 -->
<g id="node11" class="node">
<title>Node11</title>
<g id="a_node11"><a xlink:href="MTImGui_8cpp.html" target="_top" xlink:title=" ">
<polygon fill="white" stroke="#666666" points="1757,-79.5 1676,-79.5 1676,-60.5 1757,-60.5 1757,-79.5"/>
<text text-anchor="middle" x="1716.5" y="-67.5" font-family="Helvetica,sans-Serif" font-size="10.00">MTImGui.cpp</text>
</a>
</g>
</g>
<!-- Node1&#45;&gt;Node11 -->
<g id="edge10" class="edge">
<title>Node1&#45;&gt;Node11</title>
<path fill="none" stroke="#63b8ff" d="M1197.44,-223.29C1210.7,-208.02 1232.82,-186.04 1257.5,-176 1322.34,-149.61 1838.44,-190.89 1886.5,-140 1892.3,-133.86 1891.56,-127.76 1886.5,-121 1870.97,-100.25 1802.24,-85.15 1757.06,-77.26"/>
<polygon fill="#63b8ff" stroke="#63b8ff" points="1194.75,-221.04 1191.02,-230.96 1200.12,-225.53 1194.75,-221.04"/>
</g>
<!-- Node12 -->
<g id="node12" class="node">
<title>Node12</title>
<g id="a_node12"><a xlink:href="RectDetector_8cpp.html" target="_top" xlink:title=" ">
<polygon fill="white" stroke="#666666" points="1366.5,-195 1266.5,-195 1266.5,-176 1366.5,-176 1366.5,-195"/>
<text text-anchor="middle" x="1316.5" y="-183" font-family="Helvetica,sans-Serif" font-size="10.00">RectDetector.cpp</text>
</a>
</g>
</g>
<!-- Node1&#45;&gt;Node12 -->
<g id="edge11" class="edge">
<title>Node1&#45;&gt;Node12</title>
<path fill="none" stroke="#63b8ff" d="M1215.23,-227.16C1239.67,-217.35 1273.24,-203.87 1294.91,-195.17"/>
<polygon fill="#63b8ff" stroke="#63b8ff" points="1213.68,-224.01 1205.71,-230.98 1216.29,-230.51 1213.68,-224.01"/>
</g>
<!-- Node13 -->
<g id="node13" class="node">
<title>Node13</title>
<g id="a_node13"><a xlink:href="RenderSystem_8cpp.html" target="_top" xlink:title=" ">
<polygon fill="white" stroke="#666666" points="1492.5,-195 1384.5,-195 1384.5,-176 1492.5,-176 1492.5,-195"/>
<text text-anchor="middle" x="1438.5" y="-183" font-family="Helvetica,sans-Serif" font-size="10.00">RenderSystem.cpp</text>
</a>
</g>
</g>
<!-- Node1&#45;&gt;Node13 -->
<g id="edge12" class="edge">
<title>Node1&#45;&gt;Node13</title>
<path fill="none" stroke="#63b8ff" d="M1235.11,-228.94C1282.72,-219.01 1353.12,-204.31 1397.37,-195.08"/>
<polygon fill="#63b8ff" stroke="#63b8ff" points="1234.38,-225.52 1225.31,-230.98 1235.81,-232.37 1234.38,-225.52"/>
</g>
<!-- Node14 -->
<g id="node14" class="node">
<title>Node14</title>
<g id="a_node14"><a xlink:href="SceneSystem_8cpp.html" target="_top" xlink:title=" ">
<polygon fill="white" stroke="#666666" points="1614,-195 1511,-195 1511,-176 1614,-176 1614,-195"/>
<text text-anchor="middle" x="1562.5" y="-183" font-family="Helvetica,sans-Serif" font-size="10.00">SceneSystem.cpp</text>
</a>
</g>
</g>
<!-- Node1&#45;&gt;Node14 -->
<g id="edge13" class="edge">
<title>Node1&#45;&gt;Node14</title>
<path fill="none" stroke="#63b8ff" d="M1255.02,-229.61C1329.35,-219.19 1444.64,-203.03 1510.9,-193.73"/>
<polygon fill="#63b8ff" stroke="#63b8ff" points="1254.23,-226.19 1244.81,-231.04 1255.2,-233.12 1254.23,-226.19"/>
</g>
<!-- Node15 -->
<g id="node15" class="node">
<title>Node15</title>
<g id="a_node15"><a xlink:href="SingleWindow_8cpp.html" target="_top" xlink:title=" ">
<polygon fill="white" stroke="#666666" points="1737,-195 1632,-195 1632,-176 1737,-176 1737,-195"/>
<text text-anchor="middle" x="1684.5" y="-183" font-family="Helvetica,sans-Serif" font-size="10.00">SingleWindow.cpp</text>
</a>
</g>
</g>
<!-- Node1&#45;&gt;Node15 -->
<g id="edge14" class="edge">
<title>Node1&#45;&gt;Node15</title>
<path fill="none" stroke="#63b8ff" d="M1254.57,-233.21C1341.29,-225.24 1493.46,-210.65 1623.5,-195 1626.26,-194.67 1629.09,-194.32 1631.94,-193.95"/>
<polygon fill="#63b8ff" stroke="#63b8ff" points="1254.22,-229.73 1244.58,-234.13 1254.86,-236.7 1254.22,-229.73"/>
</g>
<!-- Node16 -->
<g id="node16" class="node">
<title>Node16</title>
<g id="a_node16"><a xlink:href="WindowContext_8cpp.html" target="_top" xlink:title=" ">
<polygon fill="white" stroke="#666666" points="1869.5,-195 1755.5,-195 1755.5,-176 1869.5,-176 1869.5,-195"/>
<text text-anchor="middle" x="1812.5" y="-183" font-family="Helvetica,sans-Serif" font-size="10.00">WindowContext.cpp</text>
</a>
</g>
</g>
<!-- Node1&#45;&gt;Node16 -->
<g id="edge15" class="edge">
<title>Node1&#45;&gt;Node16</title>
<path fill="none" stroke="#63b8ff" d="M1254.87,-235.04C1361.4,-228.04 1569.91,-213.35 1746.5,-195 1749.37,-194.7 1752.31,-194.38 1755.28,-194.04"/>
<polygon fill="#63b8ff" stroke="#63b8ff" points="1254.64,-231.55 1244.89,-235.69 1255.09,-238.53 1254.64,-231.55"/>
</g>
<!-- Node17 -->
<g id="node17" class="node">
<title>Node17</title>
<g id="a_node17"><a xlink:href="WindowContextUtil_8cpp.html" target="_top" xlink:title=" ">
<polygon fill="white" stroke="#666666" points="2019,-195 1888,-195 1888,-176 2019,-176 2019,-195"/>
<text text-anchor="middle" x="1953.5" y="-183" font-family="Helvetica,sans-Serif" font-size="10.00">WindowContextUtil.cpp</text>
</a>
</g>
</g>
<!-- Node1&#45;&gt;Node17 -->
<g id="edge16" class="edge">
<title>Node1&#45;&gt;Node17</title>
<path fill="none" stroke="#63b8ff" d="M1255.16,-236.11C1380.74,-229.83 1650.99,-215.17 1878.5,-195 1881.5,-194.73 1884.57,-194.45 1887.67,-194.14"/>
<polygon fill="#63b8ff" stroke="#63b8ff" points="1254.73,-232.63 1244.92,-236.62 1255.08,-239.62 1254.73,-232.63"/>
</g>
<!-- Node18 -->
<g id="node18" class="node">
<title>Node18</title>
<g id="a_node18"><a xlink:href="WindowManager_8cpp.html" target="_top" xlink:title=" ">
<polygon fill="white" stroke="#666666" points="2155.5,-195 2037.5,-195 2037.5,-176 2155.5,-176 2155.5,-195"/>
<text text-anchor="middle" x="2096.5" y="-183" font-family="Helvetica,sans-Serif" font-size="10.00">WindowManager.cpp</text>
</a>
</g>
</g>
<!-- Node1&#45;&gt;Node18 -->
<g id="edge17" class="edge">
<title>Node1&#45;&gt;Node18</title>
<path fill="none" stroke="#63b8ff" d="M1254.82,-237.5C1399.75,-232.99 1742.15,-220.41 2028.5,-195 2031.34,-194.75 2034.25,-194.47 2037.19,-194.17"/>
<polygon fill="#63b8ff" stroke="#63b8ff" points="1254.61,-234 1244.73,-237.81 1254.83,-241 1254.61,-234"/>
</g>
<!-- Node19 -->
<g id="node19" class="node">
<title>Node19</title>
<g id="a_node19"><a xlink:href="WindowResource_8cpp.html" target="_top" xlink:title=" ">
<polygon fill="white" stroke="#666666" points="2295,-195 2174,-195 2174,-176 2295,-176 2295,-195"/>
<text text-anchor="middle" x="2234.5" y="-183" font-family="Helvetica,sans-Serif" font-size="10.00">WindowResource.cpp</text>
</a>
</g>
</g>
<!-- Node1&#45;&gt;Node19 -->
<g id="edge18" class="edge">
<title>Node1&#45;&gt;Node19</title>
<path fill="none" stroke="#63b8ff" d="M1254.79,-238.13C1415.92,-234.58 1824.24,-223.34 2164.5,-195 2167.55,-194.75 2170.67,-194.46 2173.82,-194.15"/>
<polygon fill="#63b8ff" stroke="#63b8ff" points="1254.46,-234.63 1244.54,-238.35 1254.61,-241.63 1254.46,-234.63"/>
</g>
<!-- Node20 -->
<g id="node20" class="node">
<title>Node20</title>
<g id="a_node20"><a xlink:href="mtgb_8h.html" target="_top" xlink:title=" ">
<polygon fill="white" stroke="#666666" points="1210,-195 1159,-195 1159,-176 1210,-176 1210,-195"/>
<text text-anchor="middle" x="1184.5" y="-183" font-family="Helvetica,sans-Serif" font-size="10.00">mtgb.h</text>
</a>
</g>
</g>
<!-- Node1&#45;&gt;Node20 -->
<g id="edge19" class="edge">
<title>Node1&#45;&gt;Node20</title>
<path fill="none" stroke="#63b8ff" d="M1184.5,-220.66C1184.5,-211.93 1184.5,-201.99 1184.5,-195.09"/>
<polygon fill="#63b8ff" stroke="#63b8ff" points="1181,-220.75 1184.5,-230.75 1188,-220.75 1181,-220.75"/>
</g>
<!-- Node21 -->
<g id="node21" class="node">
<title>Node21</title>
<g id="a_node21"><a xlink:href="Box3D_8h.html" target="_top" xlink:title=" ">
<polygon fill="white" stroke="#666666" points="806.5,-140 748.5,-140 748.5,-121 806.5,-121 806.5,-140"/>
<text text-anchor="middle" x="777.5" y="-128" font-family="Helvetica,sans-Serif" font-size="10.00">Box3D.h</text>
</a>
</g>
</g>
<!-- Node20&#45;&gt;Node21 -->
<g id="edge20" class="edge">
<title>Node20&#45;&gt;Node21</title>
<path fill="none" stroke="#63b8ff" d="M1149.07,-175.97C1001.31,-150.39 960.07,-163.86 815.5,-140 812.7,-139.54 809.79,-139 806.89,-138.42"/>
<polygon fill="#63b8ff" stroke="#63b8ff" points="1148.51,-179.43 1158.96,-177.71 1149.72,-172.53 1148.51,-179.43"/>
</g>
<!-- Node25 -->
<g id="node25" class="node">
<title>Node25</title>
<g id="a_node25"><a xlink:href="Camera_8h.html" target="_top" xlink:title=" ">
<polygon fill="white" stroke="#666666" points="196.5,-140 132.5,-140 132.5,-121 196.5,-121 196.5,-140"/>
<text text-anchor="middle" x="164.5" y="-128" font-family="Helvetica,sans-Serif" font-size="10.00">Camera.h</text>
</a>
</g>
</g>
<!-- Node20&#45;&gt;Node25 -->
<g id="edge24" class="edge">
<title>Node20&#45;&gt;Node25</title>
<path fill="none" stroke="#63b8ff" d="M1149.04,-176.1C766.61,-121.59 664.7,-161.69 282.5,-140 253.38,-138.35 220.26,-135.91 196.54,-134.07"/>
<polygon fill="#63b8ff" stroke="#63b8ff" points="1148.59,-179.57 1158.99,-177.53 1149.59,-172.64 1148.59,-179.57"/>
</g>
<!-- Node28 -->
<g id="node28" class="node">
<title>Node28</title>
<g id="a_node28"><a xlink:href="Player_8h.html" target="_top" xlink:title=" ">
<polygon fill="white" stroke="#666666" points="89.5,-79.5 33.5,-79.5 33.5,-60.5 89.5,-60.5 89.5,-79.5"/>
<text text-anchor="middle" x="61.5" y="-67.5" font-family="Helvetica,sans-Serif" font-size="10.00">Player.h</text>
</a>
</g>
</g>
<!-- Node20&#45;&gt;Node28 -->
<g id="edge46" class="edge">
<title>Node20&#45;&gt;Node28</title>
<path fill="none" stroke="#63b8ff" d="M1148.88,-176.32C998.28,-161.4 224.43,-187.14 123.5,-140 95.78,-127.05 75.05,-95.32 66.21,-79.81"/>
<polygon fill="#63b8ff" stroke="#63b8ff" points="1148.65,-179.81 1158.99,-177.51 1149.47,-172.86 1148.65,-179.81"/>
</g>
<!-- Node31 -->
<g id="node31" class="node">
<title>Node31</title>
<g id="a_node31"><a xlink:href="TitleScene_8cpp.html" target="_top" xlink:title=" ">
<polygon fill="white" stroke="#666666" points="288.5,-79.5 200.5,-79.5 200.5,-60.5 288.5,-60.5 288.5,-79.5"/>
<text text-anchor="middle" x="244.5" y="-67.5" font-family="Helvetica,sans-Serif" font-size="10.00">TitleScene.cpp</text>
</a>
</g>
</g>
<!-- Node20&#45;&gt;Node31 -->
<g id="edge60" class="edge">
<title>Node20&#45;&gt;Node31</title>
<path fill="none" stroke="#63b8ff" d="M1148.95,-176.15C962.48,-152.08 532.81,-186.7 368.5,-140 323.24,-127.14 276.49,-95.06 255.67,-79.6"/>
<polygon fill="#63b8ff" stroke="#63b8ff" points="1148.6,-179.64 1158.99,-177.54 1149.56,-172.71 1148.6,-179.64"/>
</g>
<!-- Node32 -->
<g id="node32" class="node">
<title>Node32</title>
<g id="a_node32"><a xlink:href="GameOverZone_8h.html" target="_top" xlink:title=" ">
<polygon fill="white" stroke="#666666" points="730,-140 627,-140 627,-121 730,-121 730,-140"/>
<text text-anchor="middle" x="678.5" y="-128" font-family="Helvetica,sans-Serif" font-size="10.00">GameOverZone.h</text>
</a>
</g>
</g>
<!-- Node20&#45;&gt;Node32 -->
<g id="edge32" class="edge">
<title>Node20&#45;&gt;Node32</title>
<path fill="none" stroke="#63b8ff" d="M1148.85,-175.97C967.88,-146.2 918.41,-160.29 739.5,-140 736.42,-139.65 733.25,-139.27 730.06,-138.87"/>
<polygon fill="#63b8ff" stroke="#63b8ff" points="1148.53,-179.47 1158.97,-177.66 1149.68,-172.56 1148.53,-179.47"/>
</g>
<!-- Node34 -->
<g id="node34" class="node">
<title>Node34</title>
<g id="a_node34"><a xlink:href="Goal_8h.html" target="_top" xlink:title=" ">
<polygon fill="white" stroke="#666666" points="539.5,-140 491.5,-140 491.5,-121 539.5,-121 539.5,-140"/>
<text text-anchor="middle" x="515.5" y="-128" font-family="Helvetica,sans-Serif" font-size="10.00">Goal.h</text>
</a>
</g>
</g>
<!-- Node20&#45;&gt;Node34 -->
<g id="edge35" class="edge">
<title>Node20&#45;&gt;Node34</title>
<path fill="none" stroke="#63b8ff" d="M1149,-176.05C892.62,-137.21 822.81,-168.19 568.5,-140 559.05,-138.95 548.72,-137.39 539.71,-135.89"/>
<polygon fill="#63b8ff" stroke="#63b8ff" points="1148.57,-179.53 1158.98,-177.59 1149.63,-172.61 1148.57,-179.53"/>
</g>
<!-- Node36 -->
<g id="node36" class="node">
<title>Node36</title>
<g id="a_node36"><a xlink:href="HighlightEnemy_8h.html" target="_top" xlink:title=" ">
<polygon fill="white" stroke="#666666" points="926.5,-140 824.5,-140 824.5,-121 926.5,-121 926.5,-140"/>
<text text-anchor="middle" x="875.5" y="-128" font-family="Helvetica,sans-Serif" font-size="10.00">HighlightEnemy.h</text>
</a>
</g>
</g>
<!-- Node20&#45;&gt;Node36 -->
<g id="edge38" class="edge">
<title>Node20&#45;&gt;Node36</title>
<path fill="none" stroke="#63b8ff" d="M1148.8,-175.82C1094.61,-165.22 989.93,-148.92 926.78,-139.27"/>
<polygon fill="#63b8ff" stroke="#63b8ff" points="1148.44,-179.32 1158.93,-177.86 1149.82,-172.46 1148.44,-179.32"/>
</g>
<!-- Node38 -->
<g id="node38" class="node">
<title>Node38</title>
<g id="a_node38"><a xlink:href="Model_8cpp.html" target="_top" xlink:title=" ">
<polygon fill="white" stroke="#666666" points="1116,-140 1049,-140 1049,-121 1116,-121 1116,-140"/>
<text text-anchor="middle" x="1082.5" y="-128" font-family="Helvetica,sans-Serif" font-size="10.00">Model.cpp</text>
</a>
</g>
</g>
<!-- Node20&#45;&gt;Node38 -->
<g id="edge40" class="edge">
<title>Node20&#45;&gt;Node38</title>
<path fill="none" stroke="#63b8ff" d="M1159.23,-171.37C1140.49,-161.63 1115.48,-148.64 1099.19,-140.17"/>
<polygon fill="#63b8ff" stroke="#63b8ff" points="1157.62,-174.48 1168.11,-175.98 1160.85,-168.27 1157.62,-174.48"/>
</g>
<!-- Node39 -->
<g id="node39" class="node">
<title>Node39</title>
<g id="a_node39"><a xlink:href="MovingFloor_8h.html" target="_top" xlink:title=" ">
<polygon fill="#fff0f0" stroke="red" points="1030.5,-140 944.5,-140 944.5,-121 1030.5,-121 1030.5,-140"/>
<text text-anchor="middle" x="987.5" y="-128" font-family="Helvetica,sans-Serif" font-size="10.00">MovingFloor.h</text>
</a>
</g>
</g>
<!-- Node20&#45;&gt;Node39 -->
<g id="edge41" class="edge">
<title>Node20&#45;&gt;Node39</title>
<path fill="none" stroke="#63b8ff" d="M1148.89,-174.92C1111.89,-164.97 1054.57,-149.54 1019.12,-140.01"/>
<polygon fill="#63b8ff" stroke="#63b8ff" points="1148.18,-178.35 1158.75,-177.57 1150,-171.59 1148.18,-178.35"/>
</g>
<!-- Node42 -->
<g id="node40" class="node">
<title>Node42</title>
<g id="a_node40"><a xlink:href="PatrolChargerEnemy_8h.html" target="_top" xlink:title=" ">
<polygon fill="#fff0f0" stroke="red" points="1929.5,-79.5 1805.5,-79.5 1805.5,-60.5 1929.5,-60.5 1929.5,-79.5"/>
<text text-anchor="middle" x="1867.5" y="-67.5" font-family="Helvetica,sans-Serif" font-size="10.00">PatrolChargerEnemy.h</text>
</a>
</g>
</g>
<!-- Node20&#45;&gt;Node42 -->
<g id="edge44" class="edge">
<title>Node20&#45;&gt;Node42</title>
<path fill="none" stroke="#63b8ff" d="M1220.14,-179.93C1232.01,-178.52 1245.31,-177.06 1257.5,-176 1327.24,-169.95 1838.44,-190.89 1886.5,-140 1902.37,-123.2 1885.15,-94.39 1874.54,-79.89"/>
<polygon fill="#63b8ff" stroke="#63b8ff" points="1219.64,-176.46 1210.14,-181.14 1220.49,-183.41 1219.64,-176.46"/>
</g>
<!-- Node44 -->
<g id="node41" class="node">
<title>Node44</title>
<g id="a_node41"><a xlink:href="SampleGame_8h.html" target="_top" xlink:title=" ">
<polygon fill="#fff0f0" stroke="red" points="1877.5,-140 1785.5,-140 1785.5,-121 1877.5,-121 1877.5,-140"/>
<text text-anchor="middle" x="1831.5" y="-128" font-family="Helvetica,sans-Serif" font-size="10.00">SampleGame.h</text>
</a>
</g>
</g>
<!-- Node20&#45;&gt;Node44 -->
<g id="edge47" class="edge">
<title>Node20&#45;&gt;Node44</title>
<path fill="none" stroke="#63b8ff" d="M1220.08,-176.66C1221.57,-176.42 1223.05,-176.2 1224.5,-176 1468.04,-142.36 1532.11,-166.8 1776.5,-140 1779.38,-139.68 1782.34,-139.33 1785.33,-138.94"/>
<polygon fill="#63b8ff" stroke="#63b8ff" points="1219.43,-173.23 1210.22,-178.46 1220.69,-180.11 1219.43,-173.23"/>
</g>
<!-- Node46 -->
<g id="node42" class="node">
<title>Node46</title>
<g id="a_node42"><a xlink:href="Source_2TheMain_8cpp.html" target="_top" xlink:title=" ">
<polygon fill="white" stroke="#666666" points="1599,-79.5 1520,-79.5 1520,-60.5 1599,-60.5 1599,-79.5"/>
<text text-anchor="middle" x="1559.5" y="-67.5" font-family="Helvetica,sans-Serif" font-size="10.00">TheMain.cpp</text>
</a>
</g>
</g>
<!-- Node20&#45;&gt;Node46 -->
<g id="edge58" class="edge">
<title>Node20&#45;&gt;Node46</title>
<path fill="none" stroke="#63b8ff" d="M1171.03,-167.35C1161.79,-153.39 1153.09,-133.95 1164.5,-121 1176.2,-107.73 1421.86,-83.7 1519.75,-74.61"/>
<polygon fill="#63b8ff" stroke="#63b8ff" points="1168.29,-169.53 1176.97,-175.61 1173.97,-165.44 1168.29,-169.53"/>
</g>
<!-- Node47 -->
<g id="node43" class="node">
<title>Node47</title>
<g id="a_node43"><a xlink:href="SampleScene_8cpp.html" target="_top" xlink:title=" ">
<polygon fill="white" stroke="#666666" points="1276,-140 1173,-140 1173,-121 1276,-121 1276,-140"/>
<text text-anchor="middle" x="1224.5" y="-128" font-family="Helvetica,sans-Serif" font-size="10.00">SampleScene.cpp</text>
</a>
</g>
</g>
<!-- Node20&#45;&gt;Node47 -->
<g id="edge49" class="edge">
<title>Node20&#45;&gt;Node47</title>
<path fill="none" stroke="#63b8ff" d="M1197.2,-167.67C1204.13,-158.5 1212.41,-147.52 1218.02,-140.09"/>
<polygon fill="#63b8ff" stroke="#63b8ff" points="1194.34,-165.66 1191.11,-175.75 1199.92,-169.87 1194.34,-165.66"/>
</g>
<!-- Node48 -->
<g id="node44" class="node">
<title>Node48</title>
<g id="a_node44"><a xlink:href="ScoreItem_8h.html" target="_top" xlink:title=" ">
<polygon fill="#fff0f0" stroke="red" points="612,-79.5 537,-79.5 537,-60.5 612,-60.5 612,-79.5"/>
<text text-anchor="middle" x="574.5" y="-67.5" font-family="Helvetica,sans-Serif" font-size="10.00">ScoreItem.h</text>
</a>
</g>
</g>
<!-- Node20&#45;&gt;Node48 -->
<g id="edge50" class="edge">
<title>Node20&#45;&gt;Node48</title>
<path fill="none" stroke="#63b8ff" d="M1149.04,-176.2C1017.43,-159.68 716.71,-199.53 617.5,-140 594.5,-126.2 581.96,-94.88 577.02,-79.64"/>
<polygon fill="#63b8ff" stroke="#63b8ff" points="1148.59,-179.67 1158.98,-177.6 1149.57,-172.73 1148.59,-179.67"/>
</g>
<!-- Node50 -->
<g id="node45" class="node">
<title>Node50</title>
<g id="a_node45"><a xlink:href="ScoreViewer_8h.html" target="_top" xlink:title=" ">
<polygon fill="#fff0f0" stroke="red" points="1380.5,-140 1294.5,-140 1294.5,-121 1380.5,-121 1380.5,-140"/>
<text text-anchor="middle" x="1337.5" y="-128" font-family="Helvetica,sans-Serif" font-size="10.00">ScoreViewer.h</text>
</a>
</g>
</g>
<!-- Node20&#45;&gt;Node50 -->
<g id="edge52" class="edge">
<title>Node20&#45;&gt;Node50</title>
<path fill="none" stroke="#63b8ff" d="M1218.65,-172.67C1247.18,-162.79 1287.19,-148.93 1312.73,-140.08"/>
<polygon fill="#63b8ff" stroke="#63b8ff" points="1217.39,-169.4 1209.08,-175.98 1219.68,-176.02 1217.39,-169.4"/>
</g>
<!-- Node52 -->
<g id="node46" class="node">
<title>Node52</title>
<g id="a_node46"><a xlink:href="StageEditScene_8cpp.html" target="_top" xlink:title=" ">
<polygon fill="white" stroke="#666666" points="1512,-140 1399,-140 1399,-121 1512,-121 1512,-140"/>
<text text-anchor="middle" x="1455.5" y="-128" font-family="Helvetica,sans-Serif" font-size="10.00">StageEditScene.cpp</text>
</a>
</g>
</g>
<!-- Node20&#45;&gt;Node52 -->
<g id="edge53" class="edge">
<title>Node20&#45;&gt;Node52</title>
<path fill="none" stroke="#63b8ff" d="M1220.12,-176.89C1221.6,-176.59 1223.06,-176.29 1224.5,-176 1288.75,-162.99 1363.23,-148.8 1409.87,-140.03"/>
<polygon fill="#63b8ff" stroke="#63b8ff" points="1219.38,-173.47 1210.31,-178.94 1220.81,-180.33 1219.38,-173.47"/>
</g>
<!-- Node53 -->
<g id="node47" class="node">
<title>Node53</title>
<g id="a_node47"><a xlink:href="StageManager_8h.html" target="_top" xlink:title=" ">
<polygon fill="#fff0f0" stroke="red" points="473,-140 378,-140 378,-121 473,-121 473,-140"/>
<text text-anchor="middle" x="425.5" y="-128" font-family="Helvetica,sans-Serif" font-size="10.00">StageManager.h</text>
</a>
</g>
</g>
<!-- Node20&#45;&gt;Node53 -->
<g id="edge54" class="edge">
<title>Node20&#45;&gt;Node53</title>
<path fill="none" stroke="#63b8ff" d="M1148.88,-176.05C854.71,-132.59 774.98,-169.62 482.5,-140 479.41,-139.69 476.24,-139.33 473.04,-138.93"/>
<polygon fill="#63b8ff" stroke="#63b8ff" points="1148.58,-179.55 1158.99,-177.57 1149.61,-172.62 1148.58,-179.55"/>
</g>
<!-- Node55 -->
<g id="node48" class="node">
<title>Node55</title>
<g id="a_node48"><a xlink:href="TextBox_8h.html" target="_top" xlink:title=" ">
<polygon fill="#fff0f0" stroke="red" points="1595,-140 1530,-140 1530,-121 1595,-121 1595,-140"/>
<text text-anchor="middle" x="1562.5" y="-128" font-family="Helvetica,sans-Serif" font-size="10.00">TextBox.h</text>
</a>
</g>
</g>
<!-- Node20&#45;&gt;Node55 -->
<g id="edge57" class="edge">
<title>Node20&#45;&gt;Node55</title>
<path fill="none" stroke="#63b8ff" d="M1220.1,-176.77C1221.58,-176.5 1223.06,-176.24 1224.5,-176 1355.66,-154.16 1390.29,-161.51 1521.5,-140 1524.23,-139.55 1527.05,-139.05 1529.87,-138.52"/>
<polygon fill="#63b8ff" stroke="#63b8ff" points="1219.41,-173.34 1210.26,-178.68 1220.74,-180.21 1219.41,-173.34"/>
</g>
<!-- Node57 -->
<g id="node49" class="node">
<title>Node57</title>
<g id="a_node49"><a xlink:href="TimeLimit_8h.html" target="_top" xlink:title=" ">
<polygon fill="#fff0f0" stroke="red" points="1688,-140 1613,-140 1613,-121 1688,-121 1688,-140"/>
<text text-anchor="middle" x="1650.5" y="-128" font-family="Helvetica,sans-Serif" font-size="10.00">TimeLimit.h</text>
</a>
</g>
</g>
<!-- Node20&#45;&gt;Node57 -->
<g id="edge59" class="edge">
<title>Node20&#45;&gt;Node57</title>
<path fill="none" stroke="#63b8ff" d="M1220.09,-176.72C1221.58,-176.46 1223.05,-176.22 1224.5,-176 1392.19,-150.33 1436.48,-163.44 1604.5,-140 1607.23,-139.62 1610.05,-139.19 1612.89,-138.73"/>
<polygon fill="#63b8ff" stroke="#63b8ff" points="1219.42,-173.28 1210.24,-178.58 1220.72,-180.16 1219.42,-173.28"/>
</g>
<!-- Node59 -->
<g id="node50" class="node">
<title>Node59</title>
<g id="a_node50"><a xlink:href="mtgb_8cpp.html" target="_top" xlink:title=" ">
<polygon fill="white" stroke="#666666" points="1767.5,-140 1705.5,-140 1705.5,-121 1767.5,-121 1767.5,-140"/>
<text text-anchor="middle" x="1736.5" y="-128" font-family="Helvetica,sans-Serif" font-size="10.00">mtgb.cpp</text>
</a>
</g>
</g>
<!-- Node20&#45;&gt;Node59 -->
<g id="edge61" class="edge">
<title>Node20&#45;&gt;Node59</title>
<path fill="none" stroke="#63b8ff" d="M1220.09,-176.68C1221.58,-176.44 1223.05,-176.21 1224.5,-176 1433.19,-146.02 1488.89,-170.52 1697.5,-140 1700.11,-139.62 1702.8,-139.16 1705.49,-138.66"/>
<polygon fill="#63b8ff" stroke="#63b8ff" points="1219.43,-173.25 1210.23,-178.5 1220.7,-180.13 1219.43,-173.25"/>
</g>
<!-- Node22 -->
<g id="node22" class="node">
<title>Node22</title>
<g id="a_node22"><a xlink:href="Box3D_8cpp.html" target="_top" xlink:title=" ">
<polygon fill="white" stroke="#666666" points="1214,-79.5 1145,-79.5 1145,-60.5 1214,-60.5 1214,-79.5"/>
<text text-anchor="middle" x="1179.5" y="-67.5" font-family="Helvetica,sans-Serif" font-size="10.00">Box3D.cpp</text>
</a>
</g>
</g>
<!-- Node21&#45;&gt;Node22 -->
<g id="edge21" class="edge">
<title>Node21&#45;&gt;Node22</title>
<path fill="none" stroke="#63b8ff" d="M816.82,-120.96C958.45,-98.11 998.67,-114.17 1135.5,-85 1142.09,-83.6 1149.09,-81.61 1155.52,-79.57"/>
<polygon fill="#63b8ff" stroke="#63b8ff" points="816.19,-117.51 806.9,-122.6 817.33,-124.42 816.19,-117.51"/>
</g>
<!-- Node23 -->
<g id="node23" class="node">
<title>Node23</title>
<g id="a_node23"><a xlink:href="GameObjectGenerator_8cpp.html" target="_top" xlink:title=" ">
<polygon fill="white" stroke="#666666" points="946.5,-79.5 800.5,-79.5 800.5,-60.5 946.5,-60.5 946.5,-79.5"/>
<text text-anchor="middle" x="873.5" y="-67.5" font-family="Helvetica,sans-Serif" font-size="10.00">GameObjectGenerator.cpp</text>
</a>
</g>
</g>
<!-- Node21&#45;&gt;Node23 -->
<g id="edge22" class="edge">
<title>Node21&#45;&gt;Node23</title>
<path fill="none" stroke="#63b8ff" d="M800.28,-115.62C818.58,-104.46 843.73,-89.14 859.28,-79.67"/>
<polygon fill="#63b8ff" stroke="#63b8ff" points="798.38,-112.68 791.67,-120.87 802.03,-118.65 798.38,-112.68"/>
</g>
<!-- Node24 -->
<g id="node24" class="node">
<title>Node24</title>
<g id="a_node24"><a xlink:href="RegisterCommonGameObjectType_8cpp.html" target="_top" xlink:title=" ">
<polygon fill="white" stroke="#666666" points="1126.5,-85 964.5,-85 964.5,-55 1126.5,-55 1126.5,-85"/>
<text text-anchor="start" x="972.5" y="-73" font-family="Helvetica,sans-Serif" font-size="10.00">RegisterCommonGameObject</text>
<text text-anchor="middle" x="1045.5" y="-62" font-family="Helvetica,sans-Serif" font-size="10.00">Type.cpp</text>
</a>
</g>
</g>
<!-- Node21&#45;&gt;Node24 -->
<g id="edge23" class="edge">
<title>Node21&#45;&gt;Node24</title>
<path fill="none" stroke="#63b8ff" d="M816.37,-120.82C877.55,-107.34 936.8,-94.47 980.54,-85.01"/>
<polygon fill="#63b8ff" stroke="#63b8ff" points="815.55,-117.41 806.54,-122.98 817.06,-124.25 815.55,-117.41"/>
</g>
<!-- Node26 -->
<g id="node26" class="node">
<title>Node26</title>
<g id="a_node26"><a xlink:href="Camera_8cpp.html" target="_top" xlink:title=" ">
<polygon fill="white" stroke="#666666" points="183,-79.5 108,-79.5 108,-60.5 183,-60.5 183,-79.5"/>
<text text-anchor="middle" x="145.5" y="-67.5" font-family="Helvetica,sans-Serif" font-size="10.00">Camera.cpp</text>
</a>
</g>
</g>
<!-- Node25&#45;&gt;Node26 -->
<g id="edge25" class="edge">
<title>Node25&#45;&gt;Node26</title>
<path fill="none" stroke="#63b8ff" d="M158.6,-111.32C155.17,-100.78 151.01,-87.98 148.32,-79.67"/>
<polygon fill="#63b8ff" stroke="#63b8ff" points="155.28,-112.44 161.7,-120.87 161.94,-110.28 155.28,-112.44"/>
</g>
<!-- Node27 -->
<g id="node27" class="node">
<title>Node27</title>
<g id="a_node27"><a xlink:href="Player_8cpp.html" target="_top" xlink:title=" ">
<polygon fill="white" stroke="#666666" points="67,-19 0,-19 0,0 67,0 67,-19"/>
<text text-anchor="middle" x="33.5" y="-7" font-family="Helvetica,sans-Serif" font-size="10.00">Player.cpp</text>
</a>
</g>
</g>
<!-- Node25&#45;&gt;Node27 -->
<g id="edge26" class="edge">
<title>Node25&#45;&gt;Node27</title>
<path fill="none" stroke="#63b8ff" d="M122.06,-128.63C89.56,-125.45 46.65,-115.28 24.5,-85 10.04,-65.23 21.67,-34.32 28.87,-19.29"/>
<polygon fill="#63b8ff" stroke="#63b8ff" points="121.97,-132.13 132.21,-129.43 122.52,-125.16 121.97,-132.13"/>
</g>
<!-- Node25&#45;&gt;Node28 -->
<g id="edge27" class="edge">
<title>Node25&#45;&gt;Node28</title>
<path fill="none" stroke="#63b8ff" d="M140.6,-115.92C120.91,-104.74 93.6,-89.23 76.76,-79.67"/>
<polygon fill="#63b8ff" stroke="#63b8ff" points="138.88,-118.97 149.3,-120.87 142.34,-112.89 138.88,-118.97"/>
</g>
<!-- Node30 -->
<g id="node30" class="node">
<title>Node30</title>
<g id="a_node30"><a xlink:href="ResultScene_8cpp.html" target="_top" xlink:title=" ">
<polygon fill="white" stroke="#666666" points="403,-79.5 306,-79.5 306,-60.5 403,-60.5 403,-79.5"/>
<text text-anchor="middle" x="354.5" y="-67.5" font-family="Helvetica,sans-Serif" font-size="10.00">ResultScene.cpp</text>
</a>
</g>
</g>
<!-- Node25&#45;&gt;Node30 -->
<g id="edge30" class="edge">
<title>Node25&#45;&gt;Node30</title>
<path fill="none" stroke="#63b8ff" d="M201.97,-117.96C238.72,-106.65 293.9,-89.66 326.84,-79.52"/>
<polygon fill="#63b8ff" stroke="#63b8ff" points="200.65,-114.71 192.13,-120.99 202.71,-121.4 200.65,-114.71"/>
</g>
<!-- Node25&#45;&gt;Node31 -->
<g id="edge31" class="edge">
<title>Node25&#45;&gt;Node31</title>
<path fill="none" stroke="#63b8ff" d="M184.54,-114.85C199.69,-103.77 219.98,-88.93 232.65,-79.67"/>
<polygon fill="#63b8ff" stroke="#63b8ff" points="182.31,-112.14 176.3,-120.87 186.44,-117.79 182.31,-112.14"/>
</g>
<!-- Node28&#45;&gt;Node27 -->
<g id="edge28" class="edge">
<title>Node28&#45;&gt;Node27</title>
<path fill="none" stroke="#63b8ff" d="M52.96,-51.15C47.88,-40.54 41.67,-27.56 37.65,-19.17"/>
<polygon fill="#63b8ff" stroke="#63b8ff" points="49.89,-52.86 57.37,-60.37 56.21,-49.84 49.89,-52.86"/>
</g>
<!-- Node29 -->
<g id="node29" class="node">
<title>Node29</title>
<g id="a_node29"><a xlink:href="RegisterGameObjectType_8cpp.html" target="_top" xlink:title=" ">
<polygon fill="white" stroke="#666666" points="754,-19 593,-19 593,0 754,0 754,-19"/>
<text text-anchor="middle" x="673.5" y="-7" font-family="Helvetica,sans-Serif" font-size="10.00">RegisterGameObjectType.cpp</text>
</a>
</g>
</g>
<!-- Node28&#45;&gt;Node29 -->
<g id="edge29" class="edge">
<title>Node28&#45;&gt;Node29</title>
<path fill="none" stroke="#63b8ff" d="M90.83,-57.05C93.4,-56.26 95.98,-55.56 98.5,-55 271.71,-16.36 480.72,-9.89 592.91,-9.57"/>
<polygon fill="#63b8ff" stroke="#63b8ff" points="89.47,-53.81 81.15,-60.38 91.75,-60.43 89.47,-53.81"/>
</g>
<!-- Node32&#45;&gt;Node29 -->
<g id="edge34" class="edge">
<title>Node32&#45;&gt;Node29</title>
<path fill="none" stroke="#63b8ff" d="M715.52,-116.85C730.05,-109.86 745.2,-99.57 753.5,-85 760.1,-73.41 760.26,-66.49 753.5,-55 742.95,-37.05 722.25,-25.82 704.55,-19.13"/>
<polygon fill="#63b8ff" stroke="#63b8ff" points="713.89,-113.75 706.15,-120.98 716.71,-120.15 713.89,-113.75"/>
</g>
<!-- Node33 -->
<g id="node33" class="node">
<title>Node33</title>
<g id="a_node33"><a xlink:href="GameOverZone_8cpp.html" target="_top" xlink:title=" ">
<polygon fill="white" stroke="#666666" points="744.5,-79.5 630.5,-79.5 630.5,-60.5 744.5,-60.5 744.5,-79.5"/>
<text text-anchor="middle" x="687.5" y="-67.5" font-family="Helvetica,sans-Serif" font-size="10.00">GameOverZone.cpp</text>
</a>
</g>
</g>
<!-- Node32&#45;&gt;Node33 -->
<g id="edge33" class="edge">
<title>Node32&#45;&gt;Node33</title>
<path fill="none" stroke="#63b8ff" d="M681.4,-110.66C683,-100.24 684.92,-87.8 686.17,-79.67"/>
<polygon fill="#63b8ff" stroke="#63b8ff" points="677.89,-110.45 679.83,-120.87 684.81,-111.52 677.89,-110.45"/>
</g>
<!-- Node34&#45;&gt;Node29 -->
<g id="edge37" class="edge">
<title>Node34&#45;&gt;Node29</title>
<path fill="none" stroke="#63b8ff" d="M513.39,-110.81C512.58,-94.19 514.21,-70.24 527.5,-55 544.14,-35.93 568.68,-24.9 592.91,-18.55"/>
<polygon fill="#63b8ff" stroke="#63b8ff" points="509.91,-111.26 514.22,-120.94 516.89,-110.69 509.91,-111.26"/>
</g>
<!-- Node35 -->
<g id="node35" class="node">
<title>Node35</title>
<g id="a_node35"><a xlink:href="Goal_8cpp.html" target="_top" xlink:title=" ">
<polygon fill="white" stroke="#666666" points="480,-79.5 421,-79.5 421,-60.5 480,-60.5 480,-79.5"/>
<text text-anchor="middle" x="450.5" y="-67.5" font-family="Helvetica,sans-Serif" font-size="10.00">Goal.cpp</text>
</a>
</g>
</g>
<!-- Node34&#45;&gt;Node35 -->
<g id="edge36" class="edge">
<title>Node34&#45;&gt;Node35</title>
<path fill="none" stroke="#63b8ff" d="M498.18,-113.91C485.99,-102.94 470.13,-88.67 460.13,-79.67"/>
<polygon fill="#63b8ff" stroke="#63b8ff" points="496.13,-116.78 505.91,-120.87 500.82,-111.58 496.13,-116.78"/>
</g>
<!-- Node37 -->
<g id="node37" class="node">
<title>Node37</title>
<g id="a_node37"><a xlink:href="HighlightEnemy_8cpp.html" target="_top" xlink:title=" ">
<polygon fill="white" stroke="#666666" points="1345,-79.5 1232,-79.5 1232,-60.5 1345,-60.5 1345,-79.5"/>
<text text-anchor="middle" x="1288.5" y="-67.5" font-family="Helvetica,sans-Serif" font-size="10.00">HighlightEnemy.cpp</text>
</a>
</g>
</g>
<!-- Node36&#45;&gt;Node37 -->
<g id="edge39" class="edge">
<title>Node36&#45;&gt;Node37</title>
<path fill="none" stroke="#63b8ff" d="M936.78,-120.86C1065.1,-104.07 1099.55,-106.05 1223.5,-85 1232.6,-83.45 1242.37,-81.51 1251.49,-79.56"/>
<polygon fill="#63b8ff" stroke="#63b8ff" points="936.01,-117.43 926.56,-122.21 936.93,-124.37 936.01,-117.43"/>
</g>
<!-- Node39&#45;&gt;Node11 -->
<g id="edge42" class="edge">
<title>Node39&#45;&gt;Node11</title>
<path fill="none" stroke="#63b8ff" d="M1040.2,-121.03C1040.3,-121.02 1040.4,-121.01 1040.5,-121 1291.89,-92.94 1356.72,-109.27 1608.5,-85 1630.8,-82.85 1655.6,-79.69 1675.8,-76.92"/>
<polygon fill="#63b8ff" stroke="#63b8ff" points="1040.04,-117.53 1030.55,-122.24 1040.91,-124.47 1040.04,-117.53"/>
</g>
<!-- Node39&#45;&gt;Node29 -->
<g id="edge43" class="edge">
<title>Node39&#45;&gt;Node29</title>
<path fill="none" stroke="#63b8ff" d="M1040.2,-121.04C1040.3,-121.03 1040.4,-121.01 1040.5,-121 1181.78,-101.58 1451.99,-159.07 1354.5,-55 1314.23,-12.01 925.54,-8.96 754.08,-9.74"/>
<polygon fill="#63b8ff" stroke="#63b8ff" points="1039.97,-117.54 1030.57,-122.43 1040.97,-124.47 1039.97,-117.54"/>
</g>
<!-- Node42&#45;&gt;Node29 -->
<g id="edge45" class="edge">
<title>Node42&#45;&gt;Node29</title>
<path fill="none" stroke="#63b8ff" d="M1803.05,-59.12C1790.93,-57.53 1778.35,-56.06 1766.5,-55 1388.89,-21.22 935.58,-13.06 754.23,-11.11"/>
<polygon fill="#63b8ff" stroke="#63b8ff" points="1802.72,-62.6 1813.1,-60.47 1803.66,-55.67 1802.72,-62.6"/>
</g>
<!-- Node44&#45;&gt;Node46 -->
<g id="edge48" class="edge">
<title>Node44&#45;&gt;Node46</title>
<path fill="none" stroke="#63b8ff" d="M1781.85,-118.82C1729.32,-107.52 1647.47,-89.92 1599.1,-79.52"/>
<polygon fill="#63b8ff" stroke="#63b8ff" points="1781.44,-122.31 1791.95,-120.99 1782.91,-115.47 1781.44,-122.31"/>
</g>
<!-- Node48&#45;&gt;Node29 -->
<g id="edge51" class="edge">
<title>Node48&#45;&gt;Node29</title>
<path fill="none" stroke="#63b8ff" d="M597.73,-55.27C616.63,-44.1 642.72,-28.69 658.83,-19.17"/>
<polygon fill="#63b8ff" stroke="#63b8ff" points="595.94,-52.27 589.11,-60.37 599.5,-58.29 595.94,-52.27"/>
</g>
<!-- Node53&#45;&gt;Node30 -->
<g id="edge56" class="edge">
<title>Node53&#45;&gt;Node30</title>
<path fill="none" stroke="#63b8ff" d="M406.96,-114.22C393.6,-103.21 376.05,-88.75 365.02,-79.67"/>
<polygon fill="#63b8ff" stroke="#63b8ff" points="405.08,-117.21 415.02,-120.87 409.53,-111.81 405.08,-117.21"/>
</g>
<!-- Node53&#45;&gt;Node35 -->
<g id="edge55" class="edge">
<title>Node53&#45;&gt;Node35</title>
<path fill="none" stroke="#63b8ff" d="M433.13,-111.65C437.66,-101.04 443.21,-88.06 446.8,-79.67"/>
<polygon fill="#63b8ff" stroke="#63b8ff" points="429.9,-110.3 429.19,-120.87 436.34,-113.05 429.9,-110.3"/>
</g>
</g>
</svg>
