<?xml version="1.0" encoding="UTF-8" standalone="no"?>
<!DOCTYPE svg PUBLIC "-//W3C//DTD SVG 1.1//EN"
 "http://www.w3.org/Graphics/SVG/1.1/DTD/svg11.dtd">
<!-- Generated by graphviz version 2.43.0 (0)
 -->
<!-- Title: WindowContextResourceManager.h Pages: 1 -->
<svg width="897pt" height="192pt"
 viewBox="0.00 0.00 897.00 192.00" xmlns="http://www.w3.org/2000/svg" xmlns:xlink="http://www.w3.org/1999/xlink">
<g id="graph0" class="graph" transform="scale(1 1) rotate(0) translate(4 188)">
<title>WindowContextResourceManager.h</title>
<!-- Node1 -->
<g id="node1" class="node">
<title>Node1</title>
<g id="a_node1"><a xlink:title=" ">
<polygon fill="#999999" stroke="#666666" points="491.5,-184 301.5,-184 301.5,-165 491.5,-165 491.5,-184"/>
<text text-anchor="middle" x="396.5" y="-172" font-family="Helvetica,sans-Serif" font-size="10.00">WindowContextResourceManager.h</text>
</a>
</g>
</g>
<!-- Node2 -->
<g id="node2" class="node">
<title>Node2</title>
<g id="a_node2"><a xlink:title=" ">
<polygon fill="#e0e0e0" stroke="#999999" points="65,-129 0,-129 0,-110 65,-110 65,-129"/>
<text text-anchor="middle" x="32.5" y="-117" font-family="Helvetica,sans-Serif" font-size="10.00">functional</text>
</a>
</g>
</g>
<!-- Node1&#45;&gt;Node2 -->
<g id="edge1" class="edge">
<title>Node1&#45;&gt;Node2</title>
<path fill="none" stroke="#63b8ff" d="M330.21,-164.97C265.99,-156.52 165.92,-142.88 79.5,-129 78.04,-128.77 76.56,-128.52 75.06,-128.27"/>
<polygon fill="#63b8ff" stroke="#63b8ff" points="75.54,-124.8 65.09,-126.57 74.35,-131.7 75.54,-124.8"/>
</g>
<!-- Node3 -->
<g id="node3" class="node">
<title>Node3</title>
<g id="a_node3"><a xlink:title=" ">
<polygon fill="#e0e0e0" stroke="#999999" points="183.5,-74 145.5,-74 145.5,-55 183.5,-55 183.5,-74"/>
<text text-anchor="middle" x="164.5" y="-62" font-family="Helvetica,sans-Serif" font-size="10.00">map</text>
</a>
</g>
</g>
<!-- Node1&#45;&gt;Node3 -->
<g id="edge2" class="edge">
<title>Node1&#45;&gt;Node3</title>
<path fill="none" stroke="#63b8ff" d="M301.43,-168.62C240.7,-163.28 169.84,-152.15 150.5,-129 139.9,-116.31 146.01,-97.36 153.18,-83.46"/>
<polygon fill="#63b8ff" stroke="#63b8ff" points="156.44,-84.82 158.37,-74.4 150.36,-81.34 156.44,-84.82"/>
</g>
<!-- Node4 -->
<g id="node4" class="node">
<title>Node4</title>
<g id="a_node4"><a xlink:title=" ">
<polygon fill="#e0e0e0" stroke="#999999" points="629.5,-129 577.5,-129 577.5,-110 629.5,-110 629.5,-129"/>
<text text-anchor="middle" x="603.5" y="-117" font-family="Helvetica,sans-Serif" font-size="10.00">cassert</text>
</a>
</g>
</g>
<!-- Node1&#45;&gt;Node4 -->
<g id="edge3" class="edge">
<title>Node1&#45;&gt;Node4</title>
<path fill="none" stroke="#63b8ff" d="M429.76,-164.98C467.42,-155.34 528.58,-139.68 567.38,-129.75"/>
<polygon fill="#63b8ff" stroke="#63b8ff" points="568.4,-133.1 577.22,-127.23 566.66,-126.32 568.4,-133.1"/>
</g>
<!-- Node5 -->
<g id="node5" class="node">
<title>Node5</title>
<g id="a_node5"><a xlink:title=" ">
<polygon fill="#e0e0e0" stroke="#999999" points="122,-74 75,-74 75,-55 122,-55 122,-74"/>
<text text-anchor="middle" x="98.5" y="-62" font-family="Helvetica,sans-Serif" font-size="10.00">vector</text>
</a>
</g>
</g>
<!-- Node1&#45;&gt;Node5 -->
<g id="edge4" class="edge">
<title>Node1&#45;&gt;Node5</title>
<path fill="none" stroke="#63b8ff" d="M303.8,-164.97C242.23,-157.88 168.01,-146.15 141.5,-129 124.77,-118.18 112.9,-98.3 105.93,-83.66"/>
<polygon fill="#63b8ff" stroke="#63b8ff" points="108.96,-81.86 101.72,-74.13 102.56,-84.69 108.96,-81.86"/>
</g>
<!-- Node6 -->
<g id="node6" class="node">
<title>Node6</title>
<g id="a_node6"><a xlink:title=" ">
<polygon fill="#e0e0e0" stroke="#999999" points="705,-129 648,-129 648,-110 705,-110 705,-129"/>
<text text-anchor="middle" x="676.5" y="-117" font-family="Helvetica,sans-Serif" font-size="10.00">typeinfo</text>
</a>
</g>
</g>
<!-- Node1&#45;&gt;Node6 -->
<g id="edge5" class="edge">
<title>Node1&#45;&gt;Node6</title>
<path fill="none" stroke="#63b8ff" d="M446.2,-164.93C492.99,-156.74 565.3,-143.75 637.68,-129.1"/>
<polygon fill="#63b8ff" stroke="#63b8ff" points="638.79,-132.45 647.89,-127.02 637.39,-125.59 638.79,-132.45"/>
</g>
<!-- Node7 -->
<g id="node7" class="node">
<title>Node7</title>
<g id="a_node7"><a xlink:title=" ">
<polygon fill="#e0e0e0" stroke="#999999" points="378,-74 313,-74 313,-55 378,-55 378,-74"/>
<text text-anchor="middle" x="345.5" y="-62" font-family="Helvetica,sans-Serif" font-size="10.00">typeindex</text>
</a>
</g>
</g>
<!-- Node1&#45;&gt;Node7 -->
<g id="edge6" class="edge">
<title>Node1&#45;&gt;Node7</title>
<path fill="none" stroke="#63b8ff" d="M388.94,-164.86C381.77,-156.28 371.14,-142.49 364.5,-129 357.43,-114.62 352.43,-97.1 349.34,-84.11"/>
<polygon fill="#63b8ff" stroke="#63b8ff" points="352.69,-83.06 347.11,-74.05 345.86,-84.57 352.69,-83.06"/>
</g>
<!-- Node8 -->
<g id="node8" class="node">
<title>Node8</title>
<g id="a_node8"><a xlink:title=" ">
<polygon fill="#e0e0e0" stroke="#999999" points="806,-129 723,-129 723,-110 806,-110 806,-129"/>
<text text-anchor="middle" x="764.5" y="-117" font-family="Helvetica,sans-Serif" font-size="10.00">initializer_list</text>
</a>
</g>
</g>
<!-- Node1&#45;&gt;Node8 -->
<g id="edge7" class="edge">
<title>Node1&#45;&gt;Node8</title>
<path fill="none" stroke="#63b8ff" d="M461.44,-164.98C523.51,-156.71 619.97,-143.52 712.66,-129.25"/>
<polygon fill="#63b8ff" stroke="#63b8ff" points="713.43,-132.67 722.77,-127.69 712.36,-125.76 713.43,-132.67"/>
</g>
<!-- Node9 -->
<g id="node9" class="node">
<title>Node9</title>
<g id="a_node9"><a xlink:href="ISystem_8h.html" target="_top" xlink:title=" ">
<polygon fill="white" stroke="#666666" points="889,-129 824,-129 824,-110 889,-110 889,-129"/>
<text text-anchor="middle" x="856.5" y="-117" font-family="Helvetica,sans-Serif" font-size="10.00">ISystem.h</text>
</a>
</g>
</g>
<!-- Node1&#45;&gt;Node9 -->
<g id="edge8" class="edge">
<title>Node1&#45;&gt;Node9</title>
<path fill="none" stroke="#63b8ff" d="M491.7,-166.08C574.44,-159.02 697.7,-147 813.75,-129.14"/>
<polygon fill="#63b8ff" stroke="#63b8ff" points="814.54,-132.56 823.88,-127.57 813.46,-125.64 814.54,-132.56"/>
</g>
<!-- Node10 -->
<g id="node10" class="node">
<title>Node10</title>
<g id="a_node10"><a xlink:href="WindowContext_8h.html" target="_top" xlink:title=" ">
<polygon fill="white" stroke="#666666" points="601,-74 498,-74 498,-55 601,-55 601,-74"/>
<text text-anchor="middle" x="549.5" y="-62" font-family="Helvetica,sans-Serif" font-size="10.00">WindowContext.h</text>
</a>
</g>
</g>
<!-- Node1&#45;&gt;Node10 -->
<g id="edge9" class="edge">
<title>Node1&#45;&gt;Node10</title>
<path fill="none" stroke="#63b8ff" d="M461.28,-164.95C485.83,-158.68 512.23,-147.82 530.5,-129 542.14,-117.01 546.68,-98.2 548.44,-84.15"/>
<polygon fill="#63b8ff" stroke="#63b8ff" points="551.93,-84.41 549.34,-74.14 544.96,-83.79 551.93,-84.41"/>
</g>
<!-- Node17 -->
<g id="node17" class="node">
<title>Node17</title>
<g id="a_node17"><a xlink:href="WindowContextResource_8h.html" target="_top" xlink:title=" ">
<polygon fill="white" stroke="#666666" points="521.5,-129 373.5,-129 373.5,-110 521.5,-110 521.5,-129"/>
<text text-anchor="middle" x="447.5" y="-117" font-family="Helvetica,sans-Serif" font-size="10.00">WindowContextResource.h</text>
</a>
</g>
</g>
<!-- Node1&#45;&gt;Node17 -->
<g id="edge16" class="edge">
<title>Node1&#45;&gt;Node17</title>
<path fill="none" stroke="#63b8ff" d="M404.92,-164.75C412.27,-157.11 423.13,-145.82 432.04,-136.56"/>
<polygon fill="#63b8ff" stroke="#63b8ff" points="434.82,-138.72 439.24,-129.09 429.78,-133.87 434.82,-138.72"/>
</g>
<!-- Node19 -->
<g id="node19" class="node">
<title>Node19</title>
<g id="a_node19"><a xlink:href="ReleaseUtility_8h.html" target="_top" xlink:title=" ">
<polygon fill="white" stroke="#666666" points="295,-74 202,-74 202,-55 295,-55 295,-74"/>
<text text-anchor="middle" x="248.5" y="-62" font-family="Helvetica,sans-Serif" font-size="10.00">ReleaseUtility.h</text>
</a>
</g>
</g>
<!-- Node1&#45;&gt;Node19 -->
<g id="edge22" class="edge">
<title>Node1&#45;&gt;Node19</title>
<path fill="none" stroke="#63b8ff" d="M384.64,-164.84C359.42,-146.44 300.21,-103.23 268.83,-80.34"/>
<polygon fill="#63b8ff" stroke="#63b8ff" points="270.56,-77.26 260.42,-74.2 266.43,-82.92 270.56,-77.26"/>
</g>
<!-- Node20 -->
<g id="node20" class="node">
<title>Node20</title>
<g id="a_node20"><a xlink:href="ResourceCollection_8h.html" target="_top" xlink:title=" ">
<polygon fill="white" stroke="#666666" points="279,-129 160,-129 160,-110 279,-110 279,-129"/>
<text text-anchor="middle" x="219.5" y="-117" font-family="Helvetica,sans-Serif" font-size="10.00">ResourceCollection.h</text>
</a>
</g>
</g>
<!-- Node1&#45;&gt;Node20 -->
<g id="edge23" class="edge">
<title>Node1&#45;&gt;Node20</title>
<path fill="none" stroke="#63b8ff" d="M368.06,-164.98C338.22,-156.05 291.12,-141.94 257.97,-132.02"/>
<polygon fill="#63b8ff" stroke="#63b8ff" points="258.74,-128.6 248.16,-129.08 256.74,-135.3 258.74,-128.6"/>
</g>
<!-- Node11 -->
<g id="node11" class="node">
<title>Node11</title>
<g id="a_node11"><a xlink:title=" ">
<polygon fill="#e0e0e0" stroke="#999999" points="647.5,-19 603.5,-19 603.5,0 647.5,0 647.5,-19"/>
<text text-anchor="middle" x="625.5" y="-7" font-family="Helvetica,sans-Serif" font-size="10.00">string</text>
</a>
</g>
</g>
<!-- Node10&#45;&gt;Node11 -->
<g id="edge10" class="edge">
<title>Node10&#45;&gt;Node11</title>
<path fill="none" stroke="#63b8ff" d="M561.71,-54.98C573.28,-46.92 590.88,-34.65 604.66,-25.03"/>
<polygon fill="#63b8ff" stroke="#63b8ff" points="606.87,-27.76 613.07,-19.17 602.86,-22.02 606.87,-27.76"/>
</g>
<!-- Node12 -->
<g id="node12" class="node">
<title>Node12</title>
<g id="a_node12"><a xlink:title=" ">
<polygon fill="#e0e0e0" stroke="#999999" points="412.5,-19 356.5,-19 356.5,0 412.5,0 412.5,-19"/>
<text text-anchor="middle" x="384.5" y="-7" font-family="Helvetica,sans-Serif" font-size="10.00">d3d11.h</text>
</a>
</g>
</g>
<!-- Node10&#45;&gt;Node12 -->
<g id="edge11" class="edge">
<title>Node10&#45;&gt;Node12</title>
<path fill="none" stroke="#63b8ff" d="M522.99,-54.98C495.29,-46.09 451.64,-32.07 420.76,-22.15"/>
<polygon fill="#63b8ff" stroke="#63b8ff" points="421.81,-18.81 411.22,-19.08 419.67,-25.47 421.81,-18.81"/>
</g>
<!-- Node13 -->
<g id="node13" class="node">
<title>Node13</title>
<g id="a_node13"><a xlink:title=" ">
<polygon fill="#e0e0e0" stroke="#999999" points="735.5,-19 665.5,-19 665.5,0 735.5,0 735.5,-19"/>
<text text-anchor="middle" x="700.5" y="-7" font-family="Helvetica,sans-Serif" font-size="10.00">Windows.h</text>
</a>
</g>
</g>
<!-- Node10&#45;&gt;Node13 -->
<g id="edge12" class="edge">
<title>Node10&#45;&gt;Node13</title>
<path fill="none" stroke="#63b8ff" d="M573.76,-54.98C598.82,-46.19 638.13,-32.39 666.33,-22.49"/>
<polygon fill="#63b8ff" stroke="#63b8ff" points="667.52,-25.78 675.8,-19.17 665.2,-19.18 667.52,-25.78"/>
</g>
<!-- Node14 -->
<g id="node14" class="node">
<title>Node14</title>
<g id="a_node14"><a xlink:title=" ">
<polygon fill="#e0e0e0" stroke="#999999" points="801,-19 754,-19 754,0 801,0 801,-19"/>
<text text-anchor="middle" x="777.5" y="-7" font-family="Helvetica,sans-Serif" font-size="10.00">dxgi.h</text>
</a>
</g>
</g>
<!-- Node10&#45;&gt;Node14 -->
<g id="edge13" class="edge">
<title>Node10&#45;&gt;Node14</title>
<path fill="none" stroke="#63b8ff" d="M588.42,-54.95C625.76,-46.68 683.96,-33.58 743.73,-19.13"/>
<polygon fill="#63b8ff" stroke="#63b8ff" points="744.83,-22.47 753.73,-16.71 743.18,-15.66 744.83,-22.47"/>
</g>
<!-- Node15 -->
<g id="node15" class="node">
<title>Node15</title>
<g id="a_node15"><a xlink:title=" ">
<polygon fill="#e0e0e0" stroke="#999999" points="496,-19 431,-19 431,0 496,0 496,-19"/>
<text text-anchor="middle" x="463.5" y="-7" font-family="Helvetica,sans-Serif" font-size="10.00">Dxgi1_2.h</text>
</a>
</g>
</g>
<!-- Node10&#45;&gt;Node15 -->
<g id="edge14" class="edge">
<title>Node10&#45;&gt;Node15</title>
<path fill="none" stroke="#63b8ff" d="M535.68,-54.98C522.35,-46.77 501.92,-34.18 486.19,-24.49"/>
<polygon fill="#63b8ff" stroke="#63b8ff" points="487.92,-21.44 477.57,-19.17 484.25,-27.4 487.92,-21.44"/>
</g>
<!-- Node16 -->
<g id="node16" class="node">
<title>Node16</title>
<g id="a_node16"><a xlink:title=" ">
<polygon fill="#e0e0e0" stroke="#999999" points="585,-19 514,-19 514,0 585,0 585,-19"/>
<text text-anchor="middle" x="549.5" y="-7" font-family="Helvetica,sans-Serif" font-size="10.00">wrl/client.h</text>
</a>
</g>
</g>
<!-- Node10&#45;&gt;Node16 -->
<g id="edge15" class="edge">
<title>Node10&#45;&gt;Node16</title>
<path fill="none" stroke="#63b8ff" d="M549.5,-54.75C549.5,-47.8 549.5,-37.85 549.5,-29.13"/>
<polygon fill="#63b8ff" stroke="#63b8ff" points="553,-29.09 549.5,-19.09 546,-29.09 553,-29.09"/>
</g>
<!-- Node17&#45;&gt;Node3 -->
<g id="edge18" class="edge">
<title>Node17&#45;&gt;Node3</title>
<path fill="none" stroke="#63b8ff" d="M387.84,-109.98C336.13,-102.13 259.44,-89.39 193.5,-74 193.4,-73.98 193.3,-73.95 193.2,-73.93"/>
<polygon fill="#63b8ff" stroke="#63b8ff" points="194.32,-70.61 183.76,-71.47 192.56,-77.38 194.32,-70.61"/>
</g>
<!-- Node17&#45;&gt;Node7 -->
<g id="edge19" class="edge">
<title>Node17&#45;&gt;Node7</title>
<path fill="none" stroke="#63b8ff" d="M431.11,-109.98C414.93,-101.57 389.93,-88.59 371.12,-78.81"/>
<polygon fill="#63b8ff" stroke="#63b8ff" points="372.67,-75.68 362.19,-74.17 369.45,-81.89 372.67,-75.68"/>
</g>
<!-- Node17&#45;&gt;Node10 -->
<g id="edge21" class="edge">
<title>Node17&#45;&gt;Node10</title>
<path fill="none" stroke="#63b8ff" d="M463.89,-109.98C480.07,-101.57 505.07,-88.59 523.88,-78.81"/>
<polygon fill="#63b8ff" stroke="#63b8ff" points="525.55,-81.89 532.81,-74.17 522.33,-75.68 525.55,-81.89"/>
</g>
<!-- Node17&#45;&gt;Node12 -->
<g id="edge20" class="edge">
<title>Node17&#45;&gt;Node12</title>
<path fill="none" stroke="#63b8ff" d="M449.72,-109.68C452.46,-96.83 455.7,-72.59 446.5,-55 439.43,-41.49 426.19,-31.14 413.76,-23.83"/>
<polygon fill="#63b8ff" stroke="#63b8ff" points="415.4,-20.74 404.94,-19.04 412.06,-26.89 415.4,-20.74"/>
</g>
<!-- Node18 -->
<g id="node18" class="node">
<title>Node18</title>
<g id="a_node18"><a xlink:title=" ">
<polygon fill="#e0e0e0" stroke="#999999" points="437,-74 396,-74 396,-55 437,-55 437,-74"/>
<text text-anchor="middle" x="416.5" y="-62" font-family="Helvetica,sans-Serif" font-size="10.00">tuple</text>
</a>
</g>
</g>
<!-- Node17&#45;&gt;Node18 -->
<g id="edge17" class="edge">
<title>Node17&#45;&gt;Node18</title>
<path fill="none" stroke="#63b8ff" d="M442.38,-109.75C438.14,-102.49 431.97,-91.95 426.72,-82.98"/>
<polygon fill="#63b8ff" stroke="#63b8ff" points="429.59,-80.95 421.52,-74.09 423.55,-84.49 429.59,-80.95"/>
</g>
<!-- Node20&#45;&gt;Node3 -->
<g id="edge24" class="edge">
<title>Node20&#45;&gt;Node3</title>
<path fill="none" stroke="#63b8ff" d="M210.42,-109.75C202.41,-102.03 190.54,-90.6 180.88,-81.28"/>
<polygon fill="#63b8ff" stroke="#63b8ff" points="183.04,-78.51 173.41,-74.09 178.19,-83.55 183.04,-78.51"/>
</g>
<!-- Node20&#45;&gt;Node5 -->
<g id="edge25" class="edge">
<title>Node20&#45;&gt;Node5</title>
<path fill="none" stroke="#63b8ff" d="M200.06,-109.98C180.51,-101.42 150.12,-88.11 127.68,-78.28"/>
<polygon fill="#63b8ff" stroke="#63b8ff" points="128.86,-74.98 118.29,-74.17 126.05,-81.39 128.86,-74.98"/>
</g>
<!-- Node20&#45;&gt;Node7 -->
<g id="edge26" class="edge">
<title>Node20&#45;&gt;Node7</title>
<path fill="none" stroke="#63b8ff" d="M239.74,-109.98C260.2,-101.38 292.03,-87.99 315.43,-78.15"/>
<polygon fill="#63b8ff" stroke="#63b8ff" points="317.03,-81.27 324.89,-74.17 314.31,-74.82 317.03,-81.27"/>
</g>
<!-- Node20&#45;&gt;Node19 -->
<g id="edge27" class="edge">
<title>Node20&#45;&gt;Node19</title>
<path fill="none" stroke="#63b8ff" d="M224.29,-109.75C228.26,-102.49 234.03,-91.95 238.93,-82.98"/>
<polygon fill="#63b8ff" stroke="#63b8ff" points="242.07,-84.54 243.8,-74.09 235.93,-81.18 242.07,-84.54"/>
</g>
</g>
</svg>
